<?xml version="1.0" encoding="UTF-8" standalone="no"?>
<!DOCTYPE svg PUBLIC "-//W3C//DTD SVG 1.1//EN" "http://www.w3.org/Graphics/SVG/1.1/DTD/svg11.dtd">
<svg width="100%" height="100%" viewBox="0 0 124 180" version="1.1" xmlns="http://www.w3.org/2000/svg" xmlns:xlink="http://www.w3.org/1999/xlink" xml:space="preserve" xmlns:serif="http://www.serif.com/" style="fill-rule:evenodd;clip-rule:evenodd;stroke-linecap:round;stroke-linejoin:round;stroke-miterlimit:1.41421;">
    <g transform="matrix(1,0,0,1,-105.385,-447.411)">
        <g transform="matrix(1,0,0,1,0.20795,-0.525041)">
            <g transform="matrix(0.996454,0,0,0.993139,53.364,38.1234)">
                <path d="M154.146,530.9L154.665,530.356L153.673,529.412L154.31,528.59L155.377,529.608L156.447,528.486L157,529.013L155.93,530.135L157.964,532.074C158.091,532.196 158.209,532.288 158.316,532.353C158.426,532.417 158.528,532.453 158.625,532.461C158.721,532.469 158.816,532.45 158.907,532.402C158.998,532.355 159.089,532.284 159.18,532.187C159.238,532.127 159.295,532.062 159.352,531.992C159.409,531.921 159.463,531.852 159.515,531.785C159.566,531.714 159.613,531.648 159.656,531.585C159.7,531.523 159.735,531.467 159.764,531.422L160.301,531.89C160.271,531.954 160.232,532.023 160.187,532.098C160.142,532.174 160.092,532.251 160.035,532.331C159.978,532.41 159.918,532.49 159.854,532.57C159.792,532.649 159.726,532.722 159.661,532.792C159.479,532.981 159.299,533.134 159.121,533.251C158.943,533.367 158.757,533.432 158.563,533.451C158.371,533.468 158.167,533.427 157.953,533.33C157.738,533.232 157.503,533.062 157.25,532.821L155.217,530.883L154.612,531.519L154.146,530.9ZM152.613,535.994C152.899,536.294 153.203,536.522 153.524,536.679C153.848,536.836 154.177,536.921 154.513,536.931C154.849,536.943 155.183,536.882 155.515,536.747C155.846,536.613 156.165,536.401 156.469,536.11C156.718,535.874 156.911,535.644 157.052,535.423C157.193,535.202 157.288,534.998 157.337,534.804L156.688,534.496C156.625,534.653 156.539,534.82 156.428,534.993C156.315,535.166 156.155,535.353 155.942,535.556C155.759,535.731 155.567,535.86 155.364,535.947C155.163,536.032 154.953,536.066 154.733,536.049C154.515,536.033 154.291,535.964 154.061,535.84C153.832,535.716 153.599,535.53 153.361,535.28C153.126,535.034 152.952,534.794 152.839,534.558C152.727,534.324 152.67,534.098 152.666,533.88C152.663,533.663 152.708,533.457 152.804,533.26C152.901,533.064 153.041,532.879 153.223,532.705C153.322,532.611 153.416,532.532 153.502,532.469C153.59,532.405 153.67,532.351 153.746,532.309C153.821,532.266 153.892,532.23 153.961,532.205C154.031,532.178 154.097,532.152 154.163,532.129L153.88,531.415C153.699,531.461 153.502,531.551 153.292,531.685C153.082,531.818 152.857,531.998 152.616,532.228C152.323,532.507 152.107,532.802 151.963,533.118C151.822,533.434 151.75,533.754 151.751,534.081C151.752,534.407 151.825,534.732 151.968,535.056C152.113,535.382 152.328,535.695 152.613,535.994ZM153.242,538.837L152.526,539.401L152.044,538.933C151.995,539.28 151.899,539.597 151.753,539.885C151.607,540.172 151.401,540.421 151.133,540.632C150.925,540.796 150.715,540.92 150.509,541.002C150.302,541.085 150.091,541.112 149.874,541.082C149.656,541.052 149.432,540.956 149.2,540.794C148.969,540.633 148.726,540.391 148.469,540.065L146.449,537.495L147.262,536.856L149.283,539.428C149.437,539.624 149.58,539.776 149.714,539.885C149.846,539.996 149.976,540.068 150.1,540.1C150.225,540.135 150.346,540.132 150.467,540.097C150.586,540.06 150.712,539.992 150.84,539.89C151.074,539.707 151.254,539.495 151.382,539.255C151.507,539.015 151.6,538.759 151.657,538.494L149.184,535.346L149.997,534.708L153.242,538.837ZM143.665,542.352C143.492,542.083 143.363,541.832 143.277,541.597C143.19,541.362 143.152,541.144 143.162,540.942C143.172,540.739 143.231,540.552 143.344,540.379C143.456,540.208 143.624,540.05 143.847,539.907C144.039,539.785 144.234,539.703 144.43,539.66C144.626,539.617 144.821,539.6 145.014,539.609L146.732,542.289C146.659,542.467 146.563,542.638 146.442,542.798C146.321,542.959 146.166,543.101 145.974,543.224C145.75,543.368 145.537,543.454 145.333,543.482C145.128,543.511 144.932,543.485 144.742,543.407C144.552,543.328 144.369,543.201 144.191,543.023C144.013,542.845 143.837,542.621 143.665,542.352ZM147.083,542.756L147.393,543.094L148.16,542.603L144.186,536.404L143.316,536.961L144.683,539.092C144.557,539.073 144.435,539.062 144.316,539.059C144.195,539.057 144.075,539.071 143.951,539.097C143.826,539.126 143.699,539.168 143.568,539.221C143.438,539.277 143.297,539.352 143.151,539.446C142.87,539.627 142.653,539.842 142.497,540.095C142.343,540.35 142.25,540.627 142.219,540.928C142.189,541.228 142.221,541.546 142.317,541.881C142.412,542.219 142.572,542.562 142.795,542.91C143.018,543.258 143.263,543.547 143.53,543.775C143.797,544.004 144.075,544.17 144.361,544.269C144.649,544.37 144.942,544.404 145.238,544.37C145.534,544.336 145.823,544.229 146.102,544.05C146.261,543.948 146.396,543.846 146.507,543.748C146.618,543.647 146.71,543.545 146.784,543.438C146.858,543.334 146.918,543.224 146.967,543.115C147.013,543.003 147.051,542.883 147.083,542.756ZM138.285,545.156C138.442,545.461 138.609,545.709 138.789,545.898C138.967,546.086 139.153,546.221 139.344,546.302C139.535,546.384 139.73,546.418 139.93,546.4C140.129,546.382 140.328,546.323 140.528,546.22C140.726,546.119 140.893,545.992 141.024,545.839C141.156,545.687 141.245,545.508 141.292,545.304C141.339,545.101 141.339,544.872 141.292,544.615C141.246,544.359 141.144,544.078 140.987,543.771C140.83,543.464 140.662,543.218 140.48,543.031C140.3,542.843 140.114,542.709 139.922,542.628C139.729,542.547 139.531,542.515 139.331,542.534C139.13,542.551 138.93,542.612 138.732,542.713C138.532,542.815 138.367,542.942 138.237,543.093C138.105,543.246 138.019,543.423 137.973,543.626C137.928,543.829 137.929,544.058 137.977,544.313C138.025,544.569 138.128,544.849 138.285,545.156ZM137.365,545.627C137.172,545.25 137.053,544.883 137.01,544.527C136.964,544.17 136.988,543.838 137.078,543.526C137.167,543.213 137.323,542.93 137.544,542.676C137.762,542.421 138.043,542.208 138.383,542.034C138.719,541.861 139.057,541.758 139.396,541.728C139.733,541.697 140.057,541.734 140.364,541.842C140.672,541.952 140.957,542.127 141.221,542.37C141.485,542.614 141.714,542.923 141.907,543.3C142.102,543.68 142.22,544.049 142.264,544.406C142.307,544.761 142.282,545.096 142.191,545.409C142.099,545.722 141.94,546.006 141.717,546.26C141.493,546.514 141.212,546.728 140.876,546.901C140.536,547.075 140.198,547.177 139.865,547.209C139.531,547.241 139.21,547.202 138.904,547.092C138.598,546.983 138.313,546.805 138.053,546.563C137.789,546.319 137.56,546.006 137.365,545.627ZM133.172,544.351L134.025,544.015L134.372,544.665C134.453,544.303 134.581,544.019 134.754,543.814C134.93,543.61 135.146,543.458 135.399,543.357C135.464,543.332 135.536,543.305 135.61,543.28C135.685,543.254 135.755,543.232 135.823,543.213L136.062,544.078C135.973,544.095 135.883,544.118 135.795,544.146C135.708,544.174 135.614,544.21 135.509,544.252C135.291,544.337 135.117,544.481 134.99,544.681C134.861,544.882 134.762,545.117 134.69,545.382L136.061,548.859L135.099,549.239L133.172,544.351ZM131.989,547.534C131.815,546.923 131.567,546.488 131.246,546.231C130.922,545.973 130.509,545.918 130.005,546.06C129.776,546.126 129.576,546.223 129.406,546.352C129.235,546.481 129.085,546.624 128.955,546.786L129.81,549.791C130.003,549.857 130.205,549.898 130.418,549.919C130.631,549.938 130.853,549.916 131.082,549.851C131.586,549.708 131.907,549.44 132.045,549.045C132.182,548.653 132.163,548.149 131.989,547.534ZM127.67,546.042L128.547,545.793L128.763,546.26C128.834,546.139 128.907,546.027 128.983,545.925C129.062,545.825 129.151,545.732 129.254,545.647C129.358,545.563 129.479,545.489 129.618,545.42C129.757,545.351 129.923,545.29 130.116,545.235C130.438,545.143 130.75,545.122 131.046,545.172C131.342,545.224 131.615,545.336 131.864,545.512C132.112,545.688 132.333,545.921 132.524,546.214C132.718,546.508 132.87,546.855 132.983,547.253C133.096,547.65 133.149,548.026 133.139,548.378C133.131,548.73 133.066,549.048 132.949,549.331C132.83,549.614 132.658,549.857 132.433,550.056C132.208,550.256 131.933,550.404 131.61,550.496C131.432,550.546 131.269,550.58 131.12,550.593C130.97,550.61 130.83,550.611 130.701,550.595C130.571,550.582 130.448,550.553 130.328,550.51C130.209,550.468 130.09,550.418 129.97,550.357L130.673,552.832L129.679,553.115L127.67,546.042ZM122.344,544.96L123.361,544.778L124.656,552.027L123.639,552.209L122.344,544.96ZM119.264,552.073C119.449,552.059 119.619,552.024 119.771,551.971C119.925,551.917 120.061,551.858 120.178,551.79C120.296,551.723 120.395,551.656 120.475,551.59C120.556,551.525 120.617,551.473 120.656,551.44L120.558,550.15L119.545,550.227C119.277,550.251 119.06,550.309 118.896,550.402C118.73,550.496 118.605,550.603 118.516,550.722C118.427,550.841 118.368,550.961 118.341,551.08C118.313,551.201 118.302,551.298 118.308,551.376C118.317,551.497 118.349,551.606 118.401,551.698C118.453,551.791 118.521,551.867 118.607,551.925C118.692,551.983 118.791,552.026 118.903,552.05C119.014,552.076 119.136,552.083 119.264,552.073ZM120.508,549.495L120.498,549.37C120.479,549.125 120.442,548.922 120.385,548.763C120.33,548.604 120.252,548.479 120.152,548.39C120.052,548.3 119.928,548.244 119.78,548.215C119.633,548.189 119.456,548.182 119.249,548.198C119.112,548.209 118.974,548.228 118.83,548.257C118.687,548.284 118.547,548.32 118.415,548.362C118.283,548.403 118.159,548.448 118.041,548.495C117.923,548.544 117.823,548.591 117.738,548.64L117.459,547.946C117.57,547.871 117.696,547.799 117.84,547.735C117.984,547.668 118.137,547.612 118.297,547.56C118.457,547.509 118.621,547.466 118.788,547.434C118.956,547.4 119.12,547.377 119.281,547.365C119.599,547.34 119.889,547.351 120.15,547.393C120.412,547.437 120.641,547.529 120.835,547.672C121.03,547.816 121.185,548.018 121.305,548.281C121.423,548.543 121.498,548.878 121.529,549.292L121.776,552.551L120.982,552.612L120.798,552.06C120.733,552.126 120.645,552.2 120.537,552.284C120.426,552.368 120.299,552.448 120.152,552.527C120.005,552.607 119.839,552.677 119.655,552.74C119.469,552.8 119.267,552.839 119.046,552.856C118.775,552.877 118.532,552.854 118.318,552.786C118.104,552.717 117.924,552.616 117.775,552.483C117.626,552.35 117.51,552.192 117.426,552.009C117.341,551.825 117.291,551.629 117.275,551.419C117.258,551.194 117.297,550.977 117.394,550.768C117.49,550.559 117.63,550.371 117.817,550.204C118.002,550.037 118.226,549.897 118.489,549.785C118.754,549.673 119.046,549.606 119.366,549.582L120.508,549.495ZM113.71,547.744L114.627,547.72L114.729,548.451C114.93,548.138 115.147,547.916 115.38,547.782C115.616,547.651 115.871,547.582 116.143,547.575C116.213,547.573 116.289,547.573 116.368,547.575C116.447,547.576 116.521,547.58 116.591,547.585L116.518,548.479C116.428,548.464 116.336,548.455 116.245,548.452C116.153,548.449 116.052,548.449 115.939,548.452C115.705,548.458 115.493,548.534 115.304,548.678C115.114,548.823 114.941,549.008 114.782,549.233L114.876,552.969L113.843,552.996L113.71,547.744ZM112.017,553.026L111.108,552.957L111.069,552.287C110.798,552.508 110.513,552.678 110.211,552.792C109.909,552.906 109.589,552.95 109.25,552.923C108.985,552.904 108.748,552.853 108.54,552.775C108.331,552.696 108.157,552.573 108.017,552.404C107.877,552.235 107.777,552.013 107.715,551.737C107.653,551.461 107.637,551.119 107.669,550.706L107.917,547.446L108.948,547.524L108.7,550.786C108.681,551.035 108.683,551.244 108.708,551.415C108.73,551.586 108.777,551.725 108.847,551.834C108.916,551.943 109.007,552.024 109.12,552.079C109.232,552.132 109.372,552.167 109.535,552.179C109.832,552.202 110.108,552.167 110.363,552.077C110.619,551.985 110.858,551.858 111.081,551.701L111.384,547.71L112.415,547.788L112.017,553.026ZM103.451,546.877L104.197,546.971L104.37,545.613L105.408,545.638L105.222,547.101L106.76,547.296L106.664,548.055L105.125,547.86L104.771,550.647C104.749,550.822 104.745,550.971 104.756,551.095C104.769,551.222 104.801,551.325 104.853,551.408C104.903,551.491 104.975,551.555 105.066,551.599C105.159,551.645 105.27,551.676 105.402,551.693C105.485,551.704 105.571,551.711 105.662,551.715C105.751,551.719 105.84,551.721 105.924,551.723C106.011,551.723 106.093,551.721 106.169,551.718C106.245,551.717 106.311,551.712 106.364,551.709L106.306,552.42C106.238,552.432 106.159,552.442 106.071,552.451C105.983,552.46 105.892,552.464 105.793,552.466C105.696,552.466 105.597,552.466 105.494,552.462C105.393,552.459 105.295,552.45 105.201,552.437C104.941,552.405 104.71,552.35 104.51,552.276C104.312,552.202 104.149,552.09 104.019,551.946C103.891,551.801 103.802,551.613 103.754,551.382C103.706,551.152 103.702,550.862 103.747,550.515L104.101,547.729L103.23,547.619L103.451,546.877ZM99.284,550.594C99.464,550.636 99.637,550.654 99.798,550.649C99.962,550.642 100.11,550.627 100.242,550.596C100.374,550.568 100.489,550.534 100.584,550.495C100.681,550.457 100.754,550.425 100.802,550.405L101.092,549.144L100.103,548.917C99.839,548.859 99.615,548.85 99.431,548.89C99.245,548.93 99.094,548.995 98.972,549.083C98.853,549.17 98.761,549.265 98.7,549.372C98.636,549.478 98.596,549.569 98.579,549.644C98.552,549.763 98.55,549.877 98.572,549.979C98.594,550.084 98.637,550.176 98.701,550.257C98.765,550.338 98.847,550.409 98.946,550.465C99.045,550.523 99.158,550.565 99.284,550.594ZM101.24,548.504L101.269,548.382C101.324,548.143 101.349,547.939 101.342,547.77C101.336,547.601 101.299,547.46 101.23,547.344C101.161,547.228 101.06,547.137 100.927,547.066C100.794,546.997 100.627,546.938 100.425,546.891C100.292,546.861 100.154,546.838 100.008,546.823C99.862,546.805 99.718,546.798 99.58,546.799C99.442,546.799 99.31,546.805 99.182,546.815C99.057,546.826 98.946,546.841 98.851,546.864L98.792,546.117C98.92,546.079 99.061,546.048 99.218,546.029C99.376,546.008 99.538,546.001 99.706,545.999C99.874,545.999 100.043,546.006 100.212,546.025C100.383,546.043 100.546,546.069 100.704,546.105C101.015,546.177 101.289,546.273 101.525,546.392C101.763,546.511 101.954,546.668 102.096,546.863C102.239,547.058 102.327,547.297 102.362,547.584C102.398,547.868 102.369,548.211 102.275,548.615L101.541,551.8L100.764,551.622L100.752,551.041C100.671,551.082 100.565,551.128 100.436,551.175C100.305,551.222 100.161,551.261 99.996,551.293C99.832,551.325 99.653,551.342 99.459,551.347C99.263,551.35 99.058,551.327 98.843,551.277C98.578,551.216 98.353,551.122 98.168,550.993C97.985,550.864 97.843,550.713 97.741,550.542C97.638,550.372 97.574,550.185 97.548,549.986C97.523,549.785 97.533,549.583 97.581,549.377C97.631,549.158 97.733,548.962 97.888,548.793C98.042,548.622 98.232,548.483 98.46,548.379C98.687,548.275 98.942,548.209 99.227,548.18C99.513,548.152 99.812,548.175 100.125,548.248L101.24,548.504ZM93.263,543.967L94.132,544.261L94.053,544.757C94.355,544.659 94.663,544.607 94.974,544.6C95.283,544.593 95.602,544.645 95.93,544.756C96.178,544.84 96.396,544.944 96.58,545.066C96.763,545.191 96.903,545.342 97,545.525C97.097,545.708 97.145,545.926 97.145,546.182C97.146,546.438 97.086,546.742 96.968,547.094L95.853,550.389L94.874,550.058L95.99,546.759C96.056,546.564 96.095,546.393 96.104,546.247C96.116,546.101 96.1,545.974 96.057,545.867C96.013,545.759 95.941,545.669 95.842,545.593C95.741,545.519 95.612,545.456 95.458,545.403C95.176,545.307 94.901,545.273 94.63,545.301C94.362,545.328 94.1,545.386 93.843,545.478L92.559,549.275L91.58,548.944L93.263,543.967ZM89.336,540.113L81.784,544.279L82.527,544.658L90.071,540.486L89.336,540.113ZM86.152,544.802C86.089,544.925 86.051,545.044 86.035,545.158C86.02,545.273 86.025,545.38 86.051,545.48C86.076,545.582 86.121,545.671 86.188,545.75C86.253,545.83 86.336,545.895 86.44,545.948C86.655,546.057 86.863,546.076 87.064,545.999C87.263,545.923 87.426,545.763 87.551,545.519C87.676,545.275 87.71,545.05 87.653,544.847C87.597,544.643 87.46,544.486 87.245,544.377C87.142,544.324 87.04,544.294 86.937,544.287C86.834,544.279 86.736,544.293 86.641,544.329C86.546,544.363 86.457,544.42 86.372,544.5C86.288,544.58 86.215,544.679 86.152,544.802ZM85.348,544.39C85.461,544.169 85.601,543.99 85.77,543.853C85.938,543.717 86.12,543.623 86.316,543.568C86.513,543.516 86.719,543.504 86.934,543.532C87.15,543.56 87.365,543.628 87.576,543.736C87.795,543.847 87.979,543.984 88.13,544.144C88.282,544.305 88.396,544.48 88.471,544.671C88.545,544.865 88.577,545.069 88.564,545.285C88.552,545.502 88.489,545.719 88.376,545.941C88.26,546.167 88.12,546.346 87.95,546.484C87.783,546.619 87.599,546.712 87.399,546.765C87.199,546.816 86.991,546.827 86.772,546.795C86.555,546.764 86.337,546.693 86.118,546.582C85.907,546.473 85.726,546.339 85.577,546.183C85.427,546.026 85.316,545.852 85.244,545.662C85.173,545.47 85.144,545.268 85.156,545.052C85.168,544.835 85.232,544.616 85.348,544.39ZM84.405,539.263C84.342,539.386 84.304,539.503 84.288,539.619C84.273,539.734 84.279,539.841 84.306,539.942C84.334,540.045 84.38,540.135 84.448,540.214C84.516,540.295 84.6,540.36 84.7,540.412C84.913,540.52 85.121,540.539 85.323,540.462C85.524,540.388 85.689,540.229 85.814,539.984C85.939,539.74 85.972,539.515 85.913,539.311C85.855,539.106 85.717,538.95 85.505,538.84C85.404,538.789 85.302,538.759 85.198,538.752C85.093,538.743 84.994,538.755 84.895,538.791C84.8,538.824 84.71,538.88 84.625,538.961C84.542,539.041 84.468,539.14 84.405,539.263ZM83.591,538.846C83.704,538.624 83.844,538.445 84.013,538.308C84.181,538.172 84.365,538.079 84.564,538.026C84.761,537.974 84.968,537.963 85.186,537.992C85.404,538.021 85.619,538.088 85.832,538.198C86.046,538.307 86.23,538.444 86.382,538.604C86.533,538.764 86.649,538.941 86.724,539.132C86.797,539.325 86.829,539.529 86.817,539.745C86.805,539.961 86.742,540.18 86.628,540.402C86.513,540.627 86.372,540.806 86.203,540.944C86.035,541.08 85.85,541.172 85.652,541.226C85.453,541.277 85.242,541.286 85.024,541.255C84.806,541.224 84.588,541.153 84.375,541.044C84.162,540.934 83.981,540.801 83.828,540.642C83.676,540.484 83.564,540.31 83.491,540.12C83.418,539.927 83.387,539.723 83.399,539.507C83.412,539.291 83.476,539.071 83.591,538.846ZM78.742,537.832C79.004,537.463 79.267,537.149 79.53,536.888C79.793,536.627 80.049,536.427 80.3,536.291C80.549,536.154 80.791,536.084 81.022,536.078C81.254,536.074 81.471,536.142 81.674,536.287C81.88,536.433 82.022,536.62 82.098,536.843C82.175,537.068 82.194,537.324 82.154,537.61C82.113,537.895 82.017,538.208 81.86,538.545C81.705,538.882 81.495,539.235 81.233,539.603C80.972,539.971 80.711,540.279 80.45,540.528C80.189,540.777 79.932,540.963 79.68,541.088C79.428,541.212 79.185,541.273 78.951,541.268C78.719,541.263 78.499,541.188 78.293,541.042C78.089,540.897 77.951,540.717 77.875,540.503C77.801,540.289 77.783,540.043 77.826,539.769C77.867,539.495 77.966,539.195 78.12,538.871C78.274,538.545 78.481,538.199 78.742,537.832ZM77.899,537.233C78.226,536.774 78.567,536.386 78.922,536.076C79.278,535.764 79.635,535.539 79.997,535.398C80.356,535.257 80.717,535.206 81.074,535.246C81.432,535.284 81.779,535.423 82.117,535.664C82.461,535.909 82.713,536.195 82.874,536.526C83.037,536.855 83.111,537.216 83.104,537.607C83.094,537.999 83.002,538.414 82.829,538.853C82.654,539.293 82.402,539.744 82.076,540.203C81.746,540.666 81.405,541.049 81.052,541.351C80.699,541.652 80.343,541.868 79.983,541.996C79.623,542.123 79.264,542.16 78.904,542.108C78.544,542.057 78.193,541.909 77.85,541.665C77.512,541.424 77.263,541.146 77.104,540.828C76.945,540.51 76.868,540.163 76.876,539.786C76.883,539.408 76.975,539.003 77.147,538.573C77.318,538.143 77.57,537.696 77.899,537.233ZM74.203,534.078C73.908,534.419 73.669,534.743 73.484,535.052C73.3,535.361 73.174,535.65 73.106,535.92C73.038,536.187 73.031,536.433 73.085,536.654C73.14,536.875 73.261,537.067 73.45,537.23C73.641,537.396 73.852,537.492 74.083,537.518C74.315,537.545 74.564,537.509 74.826,537.409C75.088,537.309 75.363,537.148 75.646,536.925C75.93,536.702 76.219,536.42 76.514,536.08C76.81,535.738 77.052,535.406 77.239,535.086C77.427,534.765 77.553,534.463 77.621,534.182C77.689,533.902 77.694,533.645 77.638,533.415C77.584,533.184 77.461,532.986 77.27,532.82C77.082,532.657 76.872,532.568 76.64,532.549C76.41,532.533 76.163,532.58 75.901,532.693C75.638,532.804 75.364,532.978 75.077,533.213C74.792,533.448 74.499,533.736 74.203,534.078ZM73.422,533.401C73.049,533.831 72.757,534.252 72.544,534.664C72.332,535.076 72.203,535.468 72.16,535.844C72.115,536.219 72.159,536.573 72.286,536.904C72.415,537.236 72.636,537.537 72.949,537.808C73.268,538.084 73.603,538.265 73.956,538.35C74.309,538.435 74.67,538.432 75.042,538.341C75.411,538.249 75.787,538.068 76.167,537.801C76.547,537.535 76.923,537.186 77.295,536.756C77.664,536.331 77.958,535.906 78.173,535.485C78.389,535.064 78.52,534.66 78.567,534.271C78.611,533.882 78.571,533.515 78.441,533.172C78.312,532.828 78.089,532.518 77.77,532.243C77.457,531.97 77.124,531.799 76.772,531.726C76.42,531.652 76.057,531.67 75.685,531.775C75.311,531.88 74.934,532.071 74.551,532.347C74.168,532.623 73.791,532.975 73.422,533.401ZM67.272,532.086L67.825,531.558L68.962,532.75L72.936,528.961L71.45,528.013L71.976,527.512L73.812,528.586L74.296,529.092L69.675,533.498L70.785,534.662L70.231,535.189L67.272,532.086Z" style="fill:white;"/>
            </g>
        </g>
        <g transform="matrix(1,0,0,1,0.20795,-0.525041)">
            <g transform="matrix(0.996454,0,0,0.993139,53.364,38.1234)">
                <path d="M141.678,592.972C140.921,592.972 140.289,592.902 139.785,592.758C139.279,592.615 138.875,592.432 138.571,592.207C138.267,591.979 138.05,591.729 137.921,591.448C137.792,591.167 137.727,590.891 137.727,590.616C137.727,590.326 137.78,590.082 137.888,589.881C137.994,589.685 138.138,589.522 138.314,589.398C138.495,589.271 138.697,589.178 138.925,589.126C139.153,589.069 139.392,589.044 139.639,589.044C139.639,589.524 139.695,589.949 139.811,590.315C139.926,590.68 140.086,590.984 140.289,591.228C140.491,591.473 140.733,591.659 141.017,591.783C141.298,591.906 141.607,591.968 141.942,591.968C142.271,591.968 142.563,591.92 142.822,591.828C143.081,591.732 143.3,591.605 143.48,591.439C143.66,591.273 143.798,591.083 143.891,590.857C143.983,590.635 144.031,590.396 144.031,590.137C144.031,589.85 143.975,589.598 143.86,589.376C143.745,589.153 143.57,588.948 143.336,588.756C143.104,588.569 142.808,588.385 142.457,588.214C142.103,588.04 141.689,587.854 141.217,587.658C140.629,587.416 140.134,587.169 139.732,586.912C139.327,586.657 139.003,586.381 138.756,586.083C138.509,585.788 138.332,585.466 138.225,585.118C138.118,584.772 138.064,584.396 138.064,583.982C138.064,583.464 138.168,582.998 138.376,582.582C138.585,582.166 138.875,581.808 139.243,581.51C139.608,581.215 140.047,580.988 140.55,580.828C141.057,580.667 141.604,580.588 142.198,580.588C142.817,580.588 143.351,580.639 143.804,580.74C144.254,580.841 144.625,580.982 144.917,581.157C145.212,581.334 145.429,581.539 145.572,581.778C145.716,582.016 145.786,582.275 145.786,582.548C145.786,582.748 145.744,582.93 145.659,583.102C145.572,583.271 145.443,583.42 145.271,583.546C145.097,583.672 144.881,583.771 144.622,583.841C144.36,583.915 144.057,583.948 143.711,583.948C143.711,583.712 143.68,583.459 143.615,583.186C143.553,582.917 143.449,582.664 143.306,582.43C143.165,582.197 142.979,582.003 142.752,581.848C142.524,581.696 142.249,581.618 141.925,581.618C141.7,581.618 141.486,581.651 141.284,581.715C141.082,581.784 140.904,581.881 140.753,582.014C140.604,582.146 140.483,582.309 140.396,582.503C140.309,582.7 140.263,582.922 140.263,583.175C140.263,583.412 140.303,583.633 140.378,583.841C140.455,584.052 140.598,584.255 140.803,584.458C141.009,584.657 141.292,584.857 141.65,585.059C142.01,585.258 142.476,585.475 143.047,585.706C143.621,585.942 144.113,586.184 144.518,586.428C144.925,586.675 145.257,586.943 145.519,587.224C145.78,587.508 145.969,587.818 146.087,588.155C146.205,588.493 146.264,588.87 146.264,589.28C146.264,589.826 146.157,590.323 145.943,590.776C145.73,591.228 145.42,591.617 145.021,591.943C144.619,592.266 144.138,592.519 143.576,592.699C143.014,592.881 142.38,592.972 141.678,592.972ZM132.393,590.809C132.393,591.051 132.416,591.243 132.46,591.386C132.502,591.529 132.564,591.639 132.644,591.714C132.725,591.794 132.818,591.844 132.922,591.87C133.026,591.892 133.138,591.906 133.259,591.906L133.968,591.906L133.968,592.803L128.142,592.803L128.142,591.906L128.85,591.906C128.977,591.906 129.091,591.892 129.196,591.87C129.302,591.844 129.393,591.794 129.468,591.714C129.545,591.639 129.606,591.529 129.651,591.386C129.692,591.243 129.716,591.051 129.716,590.809L129.716,581.786L128.367,581.786C128.116,581.786 127.905,581.814 127.733,581.871C127.565,581.923 127.427,582.003 127.321,582.104C127.214,582.206 127.132,582.332 127.082,582.481C127.028,582.628 126.992,582.795 126.969,582.984L126.854,584.03L125.718,584.03L125.808,580.757L136.316,580.757L136.397,584.03L135.27,584.03L135.146,582.984C135.124,582.795 135.087,582.628 135.033,582.481C134.983,582.332 134.901,582.206 134.794,582.104C134.688,582.003 134.55,581.923 134.378,581.871C134.209,581.814 133.996,581.786 133.746,581.786L132.393,581.786L132.393,590.809ZM118.596,592.803L118.596,591.906L119.304,591.906C119.431,591.906 119.546,591.892 119.65,591.87C119.757,591.844 119.847,591.794 119.923,591.714C119.999,591.639 120.061,591.529 120.105,591.386C120.147,591.243 120.17,591.051 120.17,590.809L120.17,582.751C120.17,582.509 120.147,582.318 120.105,582.174C120.061,582.031 119.999,581.921 119.923,581.845C119.847,581.766 119.757,581.715 119.65,581.693C119.546,581.669 119.431,581.654 119.304,581.654L118.596,581.654L118.596,580.757L124.422,580.757L124.422,581.654L123.713,581.654C123.592,581.654 123.477,581.669 123.37,581.693C123.263,581.715 123.17,581.766 123.094,581.845C123.019,581.921 122.957,582.031 122.915,582.174C122.87,582.318 122.847,582.509 122.847,582.751L122.847,590.809C122.847,591.051 122.87,591.243 122.915,591.386C122.957,591.529 123.019,591.639 123.094,591.714C123.17,591.794 123.263,591.844 123.37,591.87C123.477,591.892 123.592,591.906 123.713,591.906L124.422,591.906L124.422,592.803L118.596,592.803ZM117.198,581.646L116.473,581.646C116.357,581.646 116.248,581.66 116.144,581.685C116.037,581.708 115.947,581.758 115.866,581.836C115.787,581.913 115.725,582.022 115.68,582.166C115.638,582.309 115.615,582.501 115.615,582.743L115.615,589.328C115.615,589.896 115.534,590.402 115.374,590.855C115.21,591.304 114.958,591.686 114.614,591.999C114.271,592.314 113.835,592.553 113.301,592.721C112.77,592.887 112.137,592.972 111.4,592.972C110.664,592.972 110.008,592.902 109.429,592.761C108.85,592.621 108.36,592.398 107.958,592.089C107.559,591.783 107.252,591.386 107.042,590.899C106.831,590.413 106.724,589.823 106.724,589.13L106.724,582.677C106.724,582.453 106.702,582.273 106.654,582.137C106.609,582.003 106.544,581.899 106.465,581.829C106.384,581.755 106.294,581.708 106.192,581.685C106.091,581.66 105.982,581.646 105.867,581.646L105.144,581.646L105.144,580.757L110.959,580.757L110.959,581.646L110.25,581.646C110.135,581.646 110.025,581.66 109.921,581.685C109.817,581.708 109.724,581.758 109.646,581.836C109.564,581.913 109.502,582.022 109.46,582.166C109.415,582.309 109.392,582.501 109.392,582.743L109.392,589.263C109.392,589.736 109.452,590.131 109.569,590.456C109.688,590.776 109.856,591.035 110.076,591.228C110.295,591.425 110.56,591.566 110.866,591.65C111.172,591.735 111.518,591.777 111.903,591.777C112.274,591.777 112.612,591.729 112.916,591.633C113.217,591.538 113.473,591.386 113.684,591.183C113.895,590.981 114.057,590.722 114.173,590.41C114.288,590.095 114.347,589.724 114.347,589.296L114.347,582.677C114.347,582.453 114.325,582.273 114.279,582.137C114.237,582.003 114.175,581.899 114.097,581.829C114.016,581.755 113.925,581.708 113.818,581.685C113.714,581.66 113.605,581.646 113.489,581.646L112.781,581.646L112.781,580.757L117.198,580.757L117.198,581.646ZM97.149,586.594L98.097,586.594C98.487,586.594 98.814,586.542 99.075,586.437C99.337,586.334 99.545,586.178 99.7,585.973C99.857,585.764 99.97,585.506 100.041,585.197C100.108,584.885 100.141,584.525 100.141,584.112C100.141,583.684 100.105,583.321 100.026,583.023C99.95,582.728 99.829,582.483 99.663,582.295C99.5,582.104 99.283,581.966 99.022,581.881C98.757,581.797 98.44,581.755 98.066,581.755L97.149,581.755L97.149,586.594ZM92.915,591.906L93.623,591.906C93.738,591.906 93.848,591.895 93.955,591.873C94.059,591.85 94.149,591.805 94.23,591.738C94.309,591.667 94.374,591.566 94.419,591.431C94.467,591.296 94.489,591.119 94.489,590.899L94.489,582.677C94.489,582.453 94.467,582.273 94.419,582.137C94.374,582.003 94.309,581.899 94.23,581.829C94.149,581.755 94.059,581.708 93.955,581.685C93.848,581.66 93.738,581.646 93.623,581.646L92.915,581.646L92.915,580.757L98.353,580.757C99.947,580.757 101.114,581.024 101.859,581.555C102.604,582.089 102.976,582.866 102.976,583.881C102.976,584.328 102.911,584.721 102.779,585.067C102.646,585.417 102.472,585.717 102.256,585.976C102.037,586.234 101.792,586.454 101.517,586.631C101.244,586.811 100.962,586.958 100.678,587.073L102.686,590.531C102.83,590.773 102.97,590.978 103.102,591.153C103.237,591.324 103.372,591.467 103.507,591.58C103.642,591.692 103.78,591.774 103.924,591.828C104.067,591.878 104.216,591.906 104.376,591.906L104.441,591.906L104.441,592.803L103.89,592.803C103.383,592.803 102.945,592.784 102.568,592.747C102.191,592.708 101.862,592.631 101.578,592.519C101.297,592.407 101.052,592.252 100.847,592.055C100.639,591.855 100.448,591.6 100.274,591.288L98.271,587.576L97.149,587.576L97.149,590.899C97.149,591.122 97.174,591.296 97.219,591.431C97.267,591.566 97.329,591.667 97.411,591.738C97.489,591.805 97.582,591.85 97.686,591.873C97.79,591.895 97.9,591.906 98.015,591.906L98.741,591.906L98.741,592.803L92.915,592.803L92.915,591.906ZM90.036,583.861L89.954,583.046C89.897,582.601 89.763,582.281 89.546,582.085C89.327,581.884 89.046,581.786 88.7,581.786L86.012,581.786L86.012,586.392L90.019,586.392L90.019,587.39L86.012,587.39L86.012,590.809C86.012,591.051 86.037,591.243 86.082,591.386C86.129,591.529 86.192,591.639 86.268,591.714C86.343,591.794 86.439,591.844 86.549,591.87C86.659,591.892 86.773,591.906 86.895,591.906L87.94,591.906L87.94,592.803L81.777,592.803L81.777,591.906L82.485,591.906C82.606,591.906 82.719,591.895 82.826,591.873C82.93,591.85 83.02,591.805 83.101,591.738C83.18,591.667 83.242,591.566 83.287,591.431C83.329,591.296 83.352,591.119 83.352,590.899L83.352,582.677C83.352,582.453 83.329,582.273 83.287,582.137C83.242,582.003 83.18,581.899 83.101,581.829C83.02,581.755 82.93,581.708 82.826,581.685C82.719,581.66 82.606,581.646 82.485,581.646L81.777,581.646L81.777,580.757L91.132,580.757L91.214,583.861L90.036,583.861ZM168.116,573.334C167.359,573.334 166.726,573.263 166.223,573.12C165.717,572.977 165.312,572.794 165.008,572.569C164.705,572.341 164.488,572.091 164.359,571.81C164.229,571.529 164.165,571.253 164.165,570.977C164.165,570.688 164.218,570.443 164.325,570.244C164.432,570.046 164.576,569.883 164.752,569.76C164.933,569.633 165.135,569.541 165.363,569.487C165.59,569.431 165.829,569.406 166.077,569.406C166.077,569.886 166.133,570.311 166.248,570.676C166.364,571.043 166.524,571.346 166.726,571.59C166.929,571.835 167.17,572.021 167.455,572.144C167.736,572.268 168.045,572.33 168.38,572.33C168.709,572.33 169.001,572.282 169.26,572.19C169.519,572.093 169.738,571.967 169.918,571.801C170.098,571.635 170.236,571.444 170.329,571.219C170.421,570.997 170.469,570.758 170.469,570.5C170.469,570.212 170.413,569.96 170.297,569.738C170.182,569.515 170.008,569.31 169.774,569.119C169.541,568.93 169.246,568.748 168.895,568.576C168.54,568.402 168.127,568.216 167.654,568.019C167.067,567.778 166.572,567.53 166.17,567.274C165.765,567.018 165.441,566.743 165.194,566.445C164.947,566.15 164.77,565.829 164.662,565.48C164.556,565.134 164.502,564.757 164.502,564.344C164.502,563.827 164.606,563.36 164.814,562.944C165.022,562.528 165.312,562.17 165.681,561.873C166.046,561.578 166.484,561.349 166.988,561.189C167.494,561.029 168.042,560.951 168.636,560.951C169.254,560.951 169.789,561.001 170.241,561.102C170.691,561.204 171.063,561.344 171.355,561.518C171.65,561.695 171.867,561.901 172.01,562.139C172.153,562.378 172.224,562.637 172.224,562.91C172.224,563.11 172.182,563.293 172.097,563.464C172.01,563.632 171.881,563.782 171.709,563.909C171.535,564.035 171.318,564.133 171.06,564.204C170.798,564.277 170.494,564.31 170.148,564.31C170.148,564.074 170.118,563.821 170.053,563.548C169.991,563.279 169.887,563.026 169.743,562.792C169.603,562.559 169.417,562.365 169.189,562.21C168.962,562.058 168.687,561.979 168.363,561.979C168.138,561.979 167.924,562.013 167.722,562.078C167.519,562.145 167.342,562.244 167.19,562.376C167.042,562.507 166.92,562.671 166.833,562.865C166.746,563.062 166.701,563.285 166.701,563.537C166.701,563.774 166.74,563.996 166.816,564.204C166.892,564.415 167.036,564.617 167.241,564.82C167.446,565.019 167.73,565.218 168.087,565.421C168.447,565.621 168.914,565.837 169.485,566.068C170.059,566.304 170.55,566.545 170.956,566.791C171.363,567.038 171.695,567.305 171.957,567.586C172.218,567.871 172.406,568.179 172.524,568.517C172.643,568.855 172.702,569.231 172.702,569.642C172.702,570.187 172.595,570.685 172.381,571.137C172.167,571.59 171.858,571.978 171.459,572.304C171.057,572.628 170.576,572.881 170.014,573.061C169.451,573.244 168.818,573.334 168.116,573.334ZM156.705,572.136L160.083,572.136C160.254,572.136 160.4,572.105 160.521,572.041C160.642,571.978 160.746,571.888 160.833,571.773C160.92,571.658 160.99,571.523 161.044,571.365C161.094,571.208 161.134,571.037 161.162,570.851L161.294,570.061L162.464,570.061L162.34,573.165L152.454,573.165L152.454,572.268L153.162,572.268C153.283,572.268 153.396,572.256 153.502,572.234C153.606,572.212 153.696,572.167 153.778,572.099C153.856,572.029 153.918,571.928 153.963,571.793C154.006,571.658 154.028,571.481 154.028,571.261L154.028,563.104C154.028,562.863 154.006,562.671 153.963,562.528C153.918,562.384 153.856,562.275 153.781,562.199C153.705,562.12 153.615,562.07 153.508,562.046C153.404,562.022 153.289,562.007 153.162,562.007L152.454,562.007L152.454,561.119L161.825,561.119L161.89,564.223L160.712,564.223L160.63,563.425C160.585,563.014 160.482,562.697 160.315,562.477C160.153,562.257 159.896,562.148 159.551,562.148L156.705,562.148L156.705,566.366L160.712,566.366L160.712,567.378L156.705,567.378L156.705,572.136ZM140.765,573.165L140.765,572.268L141.473,572.268C141.6,572.268 141.715,572.254 141.819,572.232C141.926,572.207 142.016,572.156 142.092,572.077C142.168,572.001 142.23,571.891 142.275,571.748C142.317,571.605 142.34,571.414 142.34,571.171L142.34,563.104C142.34,562.863 142.317,562.671 142.275,562.528C142.23,562.384 142.168,562.275 142.092,562.199C142.016,562.12 141.926,562.07 141.819,562.046C141.715,562.022 141.6,562.007 141.473,562.007L140.765,562.007L140.765,561.119L146.591,561.119L146.591,562.007L145.882,562.007C145.767,562.007 145.655,562.022 145.548,562.046C145.441,562.07 145.348,562.118 145.272,562.19C145.196,562.26 145.135,562.365 145.087,562.5C145.039,562.635 145.017,562.815 145.017,563.04L145.017,572.136L148.154,572.136C148.551,572.136 148.857,572.009 149.077,571.762C149.299,571.511 149.457,571.149 149.555,570.671L149.828,569.403L150.775,569.403L150.651,573.165L140.765,573.165ZM133.007,566.349L133.651,566.349C134.048,566.349 134.376,566.307 134.635,566.225C134.897,566.144 135.108,566.014 135.262,565.843C135.42,565.669 135.532,565.444 135.597,565.171C135.662,564.895 135.695,564.566 135.695,564.181C135.695,563.796 135.659,563.475 135.586,563.216C135.51,562.958 135.392,562.747 135.226,562.589C135.06,562.429 134.846,562.314 134.582,562.247C134.318,562.179 133.997,562.142 133.617,562.142L133.007,562.142L133.007,566.349ZM133.007,572.136L134.126,572.136C134.5,572.136 134.818,572.093 135.083,572.012C135.347,571.93 135.561,571.795 135.724,571.613C135.89,571.427 136.008,571.188 136.083,570.89C136.157,570.595 136.193,570.232 136.193,569.802C136.193,569.391 136.162,569.032 136.095,568.728C136.03,568.421 135.918,568.171 135.757,567.971C135.6,567.775 135.389,567.626 135.133,567.527C134.875,567.429 134.551,567.378 134.16,567.378L133.007,567.378L133.007,572.136ZM138.53,564.184C138.53,564.555 138.479,564.881 138.378,565.16C138.276,565.435 138.13,565.674 137.945,565.877C137.756,566.077 137.534,566.248 137.273,566.391C137.011,566.532 136.722,566.653 136.404,566.753L136.404,566.836C136.792,566.934 137.149,567.069 137.469,567.243C137.791,567.418 138.066,567.628 138.299,567.878C138.533,568.129 138.713,568.419 138.842,568.748C138.971,569.077 139.036,569.448 139.036,569.861C139.036,570.969 138.631,571.798 137.824,572.344C137.017,572.892 135.814,573.165 134.211,573.165L128.772,573.165L128.772,572.268L129.466,572.268C129.591,572.268 129.709,572.254 129.815,572.232C129.922,572.207 130.016,572.156 130.091,572.077C130.17,572.001 130.231,571.891 130.276,571.748C130.325,571.605 130.347,571.414 130.347,571.171L130.347,563.087C130.347,562.863 130.325,562.679 130.276,562.539C130.231,562.401 130.167,562.292 130.088,562.215C130.007,562.136 129.914,562.084 129.808,562.055C129.701,562.024 129.588,562.007 129.466,562.007L128.772,562.007L128.772,561.119L133.702,561.119C135.305,561.119 136.511,561.367 137.318,561.862C138.125,562.353 138.53,563.129 138.53,564.184ZM121.49,565.404L122.379,568.171L118.971,568.171L119.966,565.32C120.034,565.123 120.104,564.918 120.177,564.705C120.25,564.488 120.326,564.274 120.399,564.06C120.472,563.846 120.542,563.638 120.61,563.433C120.675,563.231 120.731,563.045 120.782,562.874C120.827,563.071 120.877,563.279 120.934,563.495C120.993,563.711 121.052,563.931 121.116,564.15C121.178,564.37 121.24,564.586 121.305,564.797C121.366,565.007 121.428,565.211 121.49,565.404ZM118.617,569.201L122.719,569.201L123.313,570.89C123.343,570.983 123.377,571.095 123.411,571.219C123.442,571.346 123.458,571.478 123.458,571.616C123.458,571.731 123.436,571.83 123.394,571.914C123.349,571.996 123.292,572.063 123.226,572.114C123.155,572.167 123.076,572.207 122.989,572.232C122.902,572.254 122.818,572.268 122.733,572.268L122.075,572.268L122.075,573.165L127.646,573.165L127.646,572.268L127.339,572.268C127.207,572.268 127.08,572.249 126.959,572.21C126.838,572.17 126.726,572.108 126.619,572.015C126.513,571.925 126.414,571.801 126.321,571.644C126.231,571.489 126.144,571.293 126.063,571.056L122.536,561.119L120.222,561.119L116.564,571.04C116.465,571.293 116.367,571.498 116.271,571.658C116.176,571.818 116.075,571.942 115.968,572.032C115.861,572.122 115.746,572.184 115.622,572.217C115.498,572.252 115.36,572.268 115.214,572.268L115.006,572.268L115.006,573.165L119.398,573.165L119.398,572.268L118.689,572.268C118.591,572.268 118.496,572.254 118.406,572.226C118.315,572.198 118.234,572.159 118.161,572.108C118.091,572.054 118.035,571.987 117.989,571.906C117.945,571.821 117.922,571.725 117.922,571.616C117.922,571.478 117.947,571.318 117.992,571.135C118.04,570.95 118.085,570.789 118.13,570.651L118.617,569.201ZM111.129,571.171C111.129,571.414 111.151,571.605 111.196,571.748C111.238,571.891 111.3,572.001 111.379,572.077C111.461,572.156 111.554,572.207 111.658,572.232C111.762,572.254 111.874,572.268 111.995,572.268L112.704,572.268L112.704,573.165L106.877,573.165L106.877,572.268L107.586,572.268C107.712,572.268 107.828,572.254 107.932,572.232C108.039,572.207 108.128,572.156 108.205,572.077C108.281,572.001 108.342,571.891 108.387,571.748C108.429,571.605 108.452,571.414 108.452,571.171L108.452,562.148L107.102,562.148C106.852,562.148 106.641,562.176 106.47,562.232C106.301,562.286 106.163,562.365 106.056,562.466C105.949,562.567 105.868,562.694 105.817,562.842C105.764,562.989 105.727,563.158 105.705,563.346L105.589,564.392L104.453,564.392L104.543,561.119L115.051,561.119L115.133,564.392L114.005,564.392L113.881,563.346C113.859,563.158 113.823,562.989 113.769,562.842C113.719,562.694 113.637,562.567 113.53,562.466C113.423,562.365 113.286,562.286 113.114,562.232C112.946,562.176 112.732,562.148 112.481,562.148L111.129,562.148L111.129,571.171ZM97.331,572.136L100.708,572.136C100.879,572.136 101.026,572.105 101.146,572.041C101.268,571.978 101.372,571.888 101.458,571.773C101.546,571.658 101.616,571.523 101.669,571.365C101.72,571.208 101.759,571.037 101.788,570.851L101.92,570.061L103.09,570.061L102.966,573.165L93.079,573.165L93.079,572.268L93.788,572.268C93.908,572.268 94.021,572.256 94.128,572.234C94.232,572.212 94.322,572.167 94.403,572.099C94.482,572.029 94.544,571.928 94.589,571.793C94.631,571.658 94.654,571.481 94.654,571.261L94.654,563.104C94.654,562.863 94.631,562.671 94.589,562.528C94.544,562.384 94.482,562.275 94.406,562.199C94.33,562.12 94.24,562.07 94.133,562.046C94.029,562.022 93.914,562.007 93.788,562.007L93.079,562.007L93.079,561.119L102.451,561.119L102.516,564.223L101.338,564.223L101.256,563.425C101.211,563.014 101.107,562.697 100.941,562.477C100.778,562.257 100.522,562.148 100.177,562.148L97.331,562.148L97.331,566.366L101.338,566.366L101.338,567.378L97.331,567.378L97.331,572.136ZM86.114,573.334C85.071,573.334 84.16,573.185 83.381,572.889C82.605,572.591 81.958,572.172 81.441,571.627C80.923,571.085 80.541,570.432 80.288,569.668C80.035,568.905 79.908,568.059 79.908,567.13C79.908,566.216 80.043,565.381 80.314,564.626C80.581,563.867 80.98,563.216 81.508,562.671C82.034,562.128 82.692,561.707 83.477,561.403C84.261,561.102 85.172,560.951 86.204,560.951C86.907,560.951 87.523,561.001 88.046,561.102C88.572,561.204 89.01,561.344 89.365,561.518C89.719,561.695 89.983,561.901 90.161,562.139C90.335,562.378 90.425,562.637 90.425,562.91C90.425,563.11 90.377,563.293 90.284,563.467C90.191,563.641 90.051,563.794 89.862,563.925C89.677,564.054 89.449,564.159 89.179,564.232C88.912,564.307 88.597,564.344 88.24,564.344C88.24,564.004 88.201,563.692 88.116,563.405C88.035,563.121 87.908,562.877 87.734,562.671C87.56,562.468 87.343,562.311 87.079,562.199C86.814,562.086 86.505,562.03 86.148,562.03C85.532,562.03 85.009,562.142 84.576,562.368C84.146,562.592 83.794,562.921 83.522,563.357C83.249,563.791 83.052,564.324 82.928,564.958C82.805,565.592 82.743,566.315 82.743,567.13C82.743,567.944 82.808,568.664 82.937,569.294C83.066,569.92 83.274,570.449 83.564,570.879C83.851,571.306 84.225,571.632 84.683,571.855C85.145,572.077 85.704,572.19 86.37,572.19C86.578,572.19 86.787,572.181 86.997,572.164C87.205,572.147 87.408,572.116 87.607,572.074L87.607,569.591C87.607,569.138 87.506,568.827 87.301,568.649C87.099,568.475 86.801,568.385 86.404,568.385L86.182,568.385L86.182,567.497L91.488,567.497L91.488,568.385L91.263,568.385C91.094,568.385 90.945,568.408 90.819,568.447C90.692,568.489 90.588,568.559 90.507,568.658C90.425,568.756 90.363,568.888 90.324,569.048C90.287,569.211 90.267,569.415 90.267,569.656L90.267,572.425C89.609,572.729 88.943,572.957 88.274,573.106C87.602,573.257 86.882,573.334 86.114,573.334ZM72.027,572.136L75.404,572.136C75.576,572.136 75.722,572.105 75.843,572.041C75.964,571.978 76.068,571.888 76.155,571.773C76.242,571.658 76.312,571.523 76.366,571.365C76.416,571.208 76.456,571.037 76.484,570.851L76.616,570.061L77.786,570.061L77.662,573.165L67.775,573.165L67.775,572.268L68.484,572.268C68.605,572.268 68.717,572.256 68.824,572.234C68.928,572.212 69.018,572.167 69.1,572.099C69.179,572.029 69.241,571.928 69.285,571.793C69.328,571.658 69.35,571.481 69.35,571.261L69.35,563.104C69.35,562.863 69.328,562.671 69.285,562.528C69.241,562.384 69.179,562.275 69.103,562.199C69.027,562.12 68.937,562.07 68.83,562.046C68.726,562.022 68.611,562.007 68.484,562.007L67.775,562.007L67.775,561.119L77.147,561.119L77.212,564.223L76.034,564.223L75.953,563.425C75.908,563.014 75.804,562.697 75.638,562.477C75.475,562.257 75.218,562.148 74.873,562.148L72.027,562.148L72.027,566.366L76.034,566.366L76.034,567.378L72.027,567.378L72.027,572.136ZM66.651,562.007L65.835,562.007C65.76,562.007 65.689,562.024 65.63,562.058C65.568,562.092 65.509,562.154 65.448,562.244C65.389,562.334 65.324,562.461 65.259,562.618C65.195,562.778 65.116,562.986 65.028,563.245L61.587,573.165L59.897,573.165L56.306,562.823C56.25,562.666 56.183,562.531 56.095,562.423C56.011,562.317 55.921,562.232 55.825,562.173C55.727,562.112 55.631,562.07 55.533,562.046C55.432,562.022 55.342,562.007 55.26,562.007L54.872,562.007L54.872,561.119L60.442,561.119L60.442,562.007L59.667,562.007C59.585,562.007 59.506,562.018 59.428,562.039C59.352,562.058 59.281,562.089 59.22,562.131C59.154,562.176 59.104,562.232 59.065,562.306C59.028,562.376 59.008,562.463 59.008,562.57C59.008,562.679 59.025,562.803 59.059,562.944C59.09,563.085 59.124,563.2 59.158,563.295L60.878,568.495C60.92,568.621 60.966,568.767 61.014,568.939C61.061,569.107 61.106,569.288 61.148,569.473C61.193,569.662 61.232,569.847 61.269,570.03C61.306,570.215 61.332,570.384 61.348,570.536C61.365,570.443 61.393,570.317 61.432,570.154C61.475,569.991 61.522,569.816 61.579,569.628C61.632,569.436 61.688,569.249 61.747,569.057C61.804,568.869 61.857,568.697 61.908,568.543L63.645,563.411C63.668,563.349 63.69,563.281 63.715,563.209C63.741,563.132 63.761,563.059 63.78,562.981C63.8,562.905 63.817,562.829 63.831,562.758C63.845,562.688 63.851,562.629 63.851,562.587C63.851,562.398 63.789,562.255 63.665,562.157C63.541,562.058 63.378,562.007 63.176,562.007L62.293,562.007L62.293,561.119L66.651,561.119L66.651,562.007Z" style="fill:white;"/>
            </g>
        </g>
        <g transform="matrix(1,0,0,1,0.20795,-0.525041)">
            <g transform="matrix(0.996454,0,0,0.993139,53.364,38.1234)">
                <path d="M75.926,583.118L76.772,585.736L79.522,585.73L77.294,587.343L78.149,589.958L75.926,588.336L73.704,589.958L74.559,587.343L72.33,585.73L75.081,585.736L75.926,583.118Z" style="fill:white;"/>
            </g>
        </g>
        <g transform="matrix(1,0,0,1,0.20795,-0.525041)">
            <g transform="matrix(0.996454,0,0,0.993139,53.364,38.1234)">
                <path d="M152.12,583.118L152.965,585.736L155.716,585.73L153.487,587.343L154.342,589.958L152.12,588.336L149.897,589.958L150.752,587.343L148.524,585.73L151.275,585.736L152.12,583.118Z" style="fill:white;"/>
            </g>
        </g>
        <g transform="matrix(1,0,0,1,0.20795,-0.525041)">
            <g transform="matrix(0.996454,0,0,0.993139,53.364,38.1234)">
                <path d="M84.72,454.804C84.44,454.248 84.11,453.68 83.798,453.188C84.424,453.339 85.024,453.642 85.562,454.002C85.624,453.395 85.747,452.765 85.93,452.114C86.407,452.579 86.823,453.054 87.176,453.541C87.46,452.972 87.822,452.423 88.28,451.987C88.256,452.584 88.254,453.257 88.293,453.892C88.64,453.275 89.122,452.745 89.726,452.292C89.055,454.483 88.944,456.626 91.139,457.013C91.688,457.11 92.168,457.058 92.711,457.045C108.113,456.701 113.369,479.947 94.726,484.942C76.523,489.82 68.731,467.923 82.546,459.789C82.916,459.572 83.287,459.386 83.633,459.129C85.634,457.647 84.561,455.87 82.732,454.166C83.46,454.253 84.125,454.461 84.72,454.804Z" style="fill:white;"/>
            </g>
        </g>
        <g transform="matrix(1,0,0,1,0.20795,-0.525041)">
            <g transform="matrix(0.996454,0,0,0.993139,53.364,38.1234)">
                <path d="M84.72,454.804C84.44,454.248 84.11,453.68 83.798,453.188C84.424,453.339 85.024,453.642 85.562,454.002C85.624,453.395 85.747,452.765 85.93,452.114C86.407,452.579 86.823,453.054 87.176,453.541C87.46,452.972 87.822,452.423 88.28,451.987C88.256,452.584 88.254,453.257 88.293,453.892C88.64,453.275 89.122,452.745 89.726,452.292C89.055,454.483 88.944,456.626 91.139,457.013C91.688,457.11 92.168,457.058 92.711,457.045C108.113,456.701 113.369,479.947 94.726,484.942C76.523,489.82 68.731,467.923 82.546,459.789C82.916,459.572 83.287,459.386 83.633,459.129C85.634,457.647 84.561,455.87 82.732,454.166C83.46,454.253 84.125,454.461 84.72,454.804Z" style="fill:none;stroke:white;stroke-width:3.48px;"/>
            </g>
        </g>
        <g transform="matrix(1,0,0,1,0.20795,-0.525041)">
            <g transform="matrix(0.996454,0,0,0.993139,53.364,38.1234)">
                <path d="M84.72,454.804C84.44,454.248 84.11,453.68 83.798,453.188C84.424,453.339 85.024,453.642 85.562,454.002C85.624,453.395 85.747,452.765 85.93,452.114C86.407,452.579 86.823,453.054 87.176,453.541C87.46,452.972 87.822,452.423 88.28,451.987C88.256,452.584 88.254,453.257 88.293,453.892C88.64,453.275 89.122,452.745 89.726,452.292C89.055,454.483 88.944,456.626 91.139,457.013C91.688,457.11 92.168,457.058 92.711,457.045C108.113,456.701 113.369,479.947 94.726,484.942C76.523,489.82 68.731,467.923 82.546,459.789C82.916,459.572 83.287,459.386 83.633,459.129C85.634,457.647 84.561,455.87 82.732,454.166C83.46,454.253 84.125,454.461 84.72,454.804Z" style="fill:rgb(70,70,70);"/>
            </g>
        </g>
        <g transform="matrix(1,0,0,1,0.20795,-0.525041)">
            <g transform="matrix(0.996454,0,0,0.993139,53.364,38.1234)">
                <path d="M81.282,462.13C77.585,465.192 75.879,469.847 77.058,474.74C77.84,477.985 79.865,480.86 82.729,482.595C83.637,483.146 84.585,483.561 85.561,483.858C85.059,483.619 84.566,483.342 84.084,483.027C81.175,481.125 79.089,478.023 78.246,474.548C77.094,469.806 78.322,465.312 81.282,462.13Z" style="fill:white;"/>
            </g>
        </g>
        <g transform="matrix(1,0,0,1,0.20795,-0.525041)">
            <g transform="matrix(0.996454,0,0,0.993139,53.364,38.1234)">
                <path d="M142.685,450.741C143.035,451.376 143.563,451.797 144.229,452.063C147.715,448.264 150.46,453.645 154.263,454.174C150.146,458.494 144.241,456.966 143.962,452.73C143.515,452.551 143.102,452.306 142.748,451.978C142.755,454.041 142.269,456.031 141.396,457.966C141.039,457.833 140.681,457.7 140.323,457.566C140.952,455.104 141.095,452.7 140.563,450.377C140.877,449.77 142.13,449.582 142.615,450.167C142.643,450.359 142.666,450.55 142.685,450.741Z" style="fill:white;"/>
            </g>
        </g>
        <g transform="matrix(1,0,0,1,0.20795,-0.525041)">
            <g transform="matrix(0.996454,0,0,0.993139,53.364,38.1234)">
                <path d="M132.681,482.616C133.735,482.491 134.69,482.737 135.538,483.381C136.42,484.081 137.343,484.483 138.31,484.58C140.076,484.757 141.841,483.807 143.274,482.856C150.636,477.964 157.984,464.999 148.766,459.177C147.296,458.25 145.488,457.671 143.389,457.649C141.728,457.662 140.18,457.25 138.748,456.406C136.919,455.375 135.064,454.971 133.327,455.041C122.434,455.473 122.314,470.376 126.245,478.293C127.009,479.834 128.063,481.539 129.682,482.268C130.567,482.667 131.568,482.781 132.681,482.616Z" style="fill:white;"/>
            </g>
        </g>
        <g transform="matrix(1,0,0,1,0.20795,-0.525041)">
            <g transform="matrix(0.996454,0,0,0.993139,53.364,38.1234)">
                <path d="M132.681,482.616C133.735,482.491 134.69,482.737 135.538,483.381C136.42,484.081 137.343,484.483 138.31,484.58C140.076,484.757 141.841,483.807 143.274,482.856C150.636,477.964 157.984,464.999 148.766,459.177C147.296,458.25 145.488,457.671 143.389,457.649C141.728,457.662 140.18,457.25 138.748,456.406C136.919,455.375 135.064,454.971 133.327,455.041C122.434,455.473 122.314,470.376 126.245,478.293C127.009,479.834 128.063,481.539 129.682,482.268C130.567,482.667 131.568,482.781 132.681,482.616Z" style="fill:none;stroke:white;stroke-width:3.41px;"/>
            </g>
        </g>
        <g transform="matrix(1,0,0,1,0.20795,-0.525041)">
            <g transform="matrix(0.996454,0,0,0.993139,53.364,38.1234)">
                <path d="M132.681,482.616C133.735,482.491 134.69,482.737 135.538,483.381C136.42,484.081 137.343,484.483 138.31,484.58C140.076,484.757 141.841,483.807 143.274,482.856C150.636,477.964 157.984,464.999 148.766,459.177C147.296,458.25 145.488,457.671 143.389,457.649C141.728,457.662 140.18,457.25 138.748,456.406C136.919,455.375 135.064,454.971 133.327,455.041C122.434,455.473 122.314,470.376 126.245,478.293C127.009,479.834 128.063,481.539 129.682,482.268C130.567,482.667 131.568,482.781 132.681,482.616Z" style="fill:rgb(70,70,70);"/>
            </g>
        </g>
        <g transform="matrix(1,0,0,1,0.20795,-0.525041)">
            <g transform="matrix(0.996454,0,0,0.993139,53.364,38.1234)">
                <path d="M130.035,457.016C129.368,457.338 128.744,457.768 128.179,458.319C125.338,461.089 124.845,465.982 125.17,469.726C125.405,472.429 126.105,475.325 127.315,477.761C127.453,478.04 127.606,478.335 127.775,478.631C126.848,476.093 126.346,473.18 126.219,470.43C126.17,469.369 126.176,468.224 126.258,467.054C126.333,465.67 126.533,464.248 126.909,462.903C127.443,460.818 128.317,458.869 129.664,457.398C129.785,457.265 129.91,457.138 130.035,457.016Z" style="fill:white;"/>
            </g>
        </g>
        <g transform="matrix(1,0,0,1,0.20795,-0.525041)">
            <g transform="matrix(0.996454,0,0,0.993139,53.364,38.1234)">
                <path d="M77.543,520.689C67.629,524.297 55.481,503.515 54.314,491.912C53.67,485.508 58.767,481.247 63.804,480.856C65.112,479.035 67.116,477.377 69.825,476.389C72.536,475.403 75.137,475.384 77.311,475.939C81.42,473.001 88.064,472.991 91.686,478.309C98.25,487.949 102.304,511.676 92.389,515.287C91.431,515.634 90.488,515.714 89.566,515.574C88.647,517.324 87.306,518.634 85.447,519.31C83.589,519.987 81.72,519.844 79.891,519.095C79.274,519.795 78.501,520.34 77.543,520.689Z" style="fill:white;"/>
            </g>
        </g>
        <g transform="matrix(1,0,0,1,0.20795,-0.525041)">
            <g transform="matrix(0.996454,0,0,0.993139,53.364,38.1234)">
                <path d="M77.543,520.689C67.629,524.297 55.481,503.515 54.314,491.912C53.67,485.508 58.767,481.247 63.804,480.856C65.112,479.035 67.116,477.377 69.825,476.389C72.536,475.403 75.137,475.384 77.311,475.939C81.42,473.001 88.064,472.991 91.686,478.309C98.25,487.949 102.304,511.676 92.389,515.287C91.431,515.634 90.488,515.714 89.566,515.574C88.647,517.324 87.306,518.634 85.447,519.31C83.589,519.987 81.72,519.844 79.891,519.095C79.274,519.795 78.501,520.34 77.543,520.689Z" style="fill:none;stroke:white;stroke-width:4.53px;"/>
            </g>
        </g>
        <g transform="matrix(1,0,0,1,0.20795,-0.525041)">
            <g transform="matrix(0.996454,0,0,0.993139,53.364,38.1234)">
                <path d="M77.543,520.689C67.629,524.297 55.481,503.515 54.314,491.912C53.67,485.508 58.767,481.247 63.804,480.856C65.112,479.035 67.116,477.377 69.826,476.389C72.536,475.403 75.137,475.384 77.311,475.939C81.42,473.001 88.064,472.991 91.686,478.309C98.25,487.949 102.304,511.676 92.389,515.287C91.431,515.634 90.489,515.714 89.566,515.574C88.647,517.324 87.306,518.634 85.448,519.31C83.589,519.987 81.72,519.844 79.891,519.095C79.274,519.795 78.502,520.34 77.543,520.689Z" style="fill:rgb(70,70,70);"/>
            </g>
        </g>
        <g transform="matrix(1,0,0,1,0.20795,-0.525041)">
            <g transform="matrix(0.996454,0,0,0.993139,53.364,38.1234)">
                <path d="M73.784,473.683C70.843,474.753 67.901,475.825 64.96,476.895C67.309,473.899 66.647,472.535 65.709,469.293C64.621,466.075 65.579,462.954 68.725,461.957C69.598,461.679 70.576,461.508 71.117,462.48C71.433,463.047 71.37,463.797 70.924,464.231C70.415,464.726 69.923,464.843 69.286,465.041C68.04,465.426 68.132,467.022 68.455,468.23C69.127,470.743 70.949,473.476 73.784,473.683Z" style="fill:white;"/>
            </g>
        </g>
        <g transform="matrix(1,0,0,1,0.20795,-0.525041)">
            <g transform="matrix(0.996454,0,0,0.993139,53.364,38.1234)">
                <path d="M92.389,515.287C102.303,511.676 98.25,487.949 91.686,478.309C86.497,470.691 75.106,474.004 73.849,481.202C72.495,488.941 81.458,519.263 92.389,515.287Z" style="fill:white;"/>
            </g>
        </g>
        <g transform="matrix(1,0,0,1,0.20795,-0.525041)">
            <g transform="matrix(0.996454,0,0,0.993139,53.364,38.1234)">
                <path d="M92.389,515.287C102.303,511.676 98.25,487.949 91.686,478.309C86.497,470.691 75.106,474.004 73.849,481.202C72.495,488.941 81.458,519.263 92.389,515.287Z" style="fill:none;stroke:white;stroke-width:1.52px;"/>
            </g>
        </g>
        <g transform="matrix(1,0,0,1,0.20795,-0.525041)">
            <g transform="matrix(0.996454,0,0,0.993139,53.364,38.1234)">
                <path d="M92.389,515.287C102.304,511.676 98.251,487.949 91.686,478.309C86.497,470.691 75.107,474.004 73.849,481.202C72.495,488.941 81.459,519.263 92.389,515.287Z" style="fill:rgb(70,70,70);"/>
            </g>
        </g>
        <g transform="matrix(1,0,0,1,0.20795,-0.525041)">
            <g transform="matrix(0.996454,0,0,0.993139,53.364,38.1234)">
                <path d="M77.543,520.689C67.629,524.297 55.481,503.515 54.314,491.912C53.392,482.74 64.247,477.958 69.838,482.662C75.849,487.719 88.474,516.711 77.543,520.689Z" style="fill:white;"/>
            </g>
        </g>
        <g transform="matrix(1,0,0,1,0.20795,-0.525041)">
            <g transform="matrix(0.996454,0,0,0.993139,53.364,38.1234)">
                <path d="M77.543,520.689C67.629,524.297 55.481,503.515 54.314,491.912C53.392,482.74 64.247,477.958 69.838,482.662C75.849,487.719 88.474,516.711 77.543,520.689Z" style="fill:none;stroke:white;stroke-width:1.52px;"/>
            </g>
        </g>
        <g transform="matrix(1,0,0,1,0.20795,-0.525041)">
            <g transform="matrix(0.996454,0,0,0.993139,53.364,38.1234)">
                <path d="M77.543,520.689C67.629,524.297 55.482,503.515 54.314,491.912C53.392,482.74 64.247,477.958 69.838,482.662C75.849,487.719 88.474,516.711 77.543,520.689Z" style="fill:rgb(70,70,70);"/>
            </g>
        </g>
        <g transform="matrix(1,0,0,1,0.20795,-0.525041)">
            <g transform="matrix(0.996454,0,0,0.993139,53.364,38.1234)">
                <path d="M85.447,519.31C73.243,523.753 60.547,493.052 62.073,484.766C62.64,481.699 65.21,478.07 69.825,476.39C74.445,474.709 78.749,475.838 81.155,477.83C87.647,483.204 97.652,514.87 85.447,519.31Z" style="fill:white;"/>
            </g>
        </g>
        <g transform="matrix(1,0,0,1,0.20795,-0.525041)">
            <g transform="matrix(0.996454,0,0,0.993139,53.364,38.1234)">
                <path d="M85.447,519.31C73.243,523.753 60.547,493.052 62.073,484.766C62.64,481.699 65.21,478.07 69.825,476.39C74.445,474.709 78.749,475.838 81.155,477.83C87.647,483.204 97.652,514.87 85.447,519.31Z" style="fill:none;stroke:white;stroke-width:1.51px;"/>
            </g>
        </g>
        <g transform="matrix(1,0,0,1,0.20795,-0.525041)">
            <g transform="matrix(0.996454,0,0,0.993139,53.364,38.1234)">
                <path d="M85.448,519.31C73.243,523.753 60.547,493.052 62.074,484.766C62.64,481.699 65.21,478.07 69.826,476.39C74.446,474.709 78.75,475.838 81.156,477.83C87.648,483.204 97.652,514.87 85.448,519.31Z" style="fill:rgb(70,70,70);"/>
            </g>
        </g>
        <g transform="matrix(1,0,0,1,0.20795,-0.525041)">
            <g transform="matrix(0.996454,0,0,0.993139,53.364,38.1234)">
                <path d="M64.311,483.583C64.106,484.066 63.952,484.572 63.855,485.094C63.468,487.194 64.265,490.711 64.814,492.746C65.827,496.503 67.314,500.272 69.051,503.753C70.752,507.165 74.32,513.305 78.478,516.259C72.064,508.679 65.375,493.825 64.311,483.583Z" style="fill:white;"/>
            </g>
        </g>
        <g transform="matrix(1,0,0,1,0.20795,-0.525041)">
            <g transform="matrix(0.996454,0,0,0.993139,53.364,38.1234)">
                <path d="M150.031,520.689C159.945,524.297 172.092,503.514 173.259,491.912C173.903,485.508 168.807,481.246 163.77,480.856C162.461,479.034 160.458,477.376 157.748,476.389C155.038,475.403 152.436,475.384 150.263,475.939C146.154,473.001 139.51,472.991 135.888,478.309C129.324,487.948 125.27,511.676 135.184,515.285C136.142,515.633 137.084,515.714 138.007,515.574C138.926,517.324 140.268,518.633 142.126,519.31C143.984,519.987 145.854,519.844 147.682,519.094C148.299,519.795 149.073,520.339 150.031,520.689Z" style="fill:white;"/>
            </g>
        </g>
        <g transform="matrix(1,0,0,1,0.20795,-0.525041)">
            <g transform="matrix(0.996454,0,0,0.993139,53.364,38.1234)">
                <path d="M150.031,520.689C159.945,524.297 172.092,503.514 173.259,491.912C173.903,485.508 168.807,481.246 163.77,480.856C162.461,479.034 160.458,477.376 157.748,476.389C155.038,475.403 152.436,475.384 150.263,475.939C146.154,473.001 139.51,472.991 135.888,478.309C129.324,487.948 125.27,511.676 135.184,515.285C136.142,515.633 137.084,515.714 138.007,515.574C138.926,517.324 140.268,518.633 142.126,519.31C143.984,519.987 145.854,519.844 147.682,519.094C148.299,519.795 149.073,520.339 150.031,520.689Z" style="fill:none;stroke:white;stroke-width:4.53px;"/>
            </g>
        </g>
        <g transform="matrix(1,0,0,1,0.20795,-0.525041)">
            <g transform="matrix(0.996454,0,0,0.993139,53.364,38.1234)">
                <path d="M150.031,520.689C159.945,524.297 172.092,503.514 173.259,491.912C173.903,485.508 168.808,481.246 163.77,480.856C162.462,479.034 160.458,477.376 157.748,476.389C155.038,475.403 152.437,475.384 150.263,475.939C146.154,473.001 139.51,472.991 135.888,478.309C129.324,487.948 125.271,511.676 135.185,515.285C136.143,515.633 137.085,515.714 138.007,515.574C138.926,517.324 140.268,518.633 142.126,519.31C143.984,519.987 145.854,519.844 147.683,519.094C148.299,519.795 149.073,520.339 150.031,520.689Z" style="fill:rgb(70,70,70);"/>
            </g>
        </g>
        <g transform="matrix(1,0,0,1,0.20795,-0.525041)">
            <g transform="matrix(0.996454,0,0,0.993139,53.364,38.1234)">
                <path d="M153.79,473.683C156.731,474.753 159.673,475.824 162.614,476.895C160.265,473.899 160.926,472.535 161.865,469.292C162.953,466.074 161.995,462.953 158.849,461.956C157.976,461.679 156.998,461.508 156.457,462.48C156.141,463.047 156.204,463.796 156.65,464.231C157.159,464.725 157.651,464.843 158.288,465.041C159.534,465.426 159.442,467.022 159.119,468.23C158.447,470.743 156.625,473.476 153.79,473.683Z" style="fill:white;"/>
            </g>
        </g>
        <g transform="matrix(1,0,0,1,0.20795,-0.525041)">
            <g transform="matrix(0.996454,0,0,0.993139,53.364,38.1234)">
                <path d="M135.184,515.285C125.27,511.676 129.324,487.949 135.888,478.309C141.077,470.69 152.466,474.003 153.725,481.202C155.079,488.94 146.115,519.263 135.184,515.285Z" style="fill:white;"/>
            </g>
        </g>
        <g transform="matrix(1,0,0,1,0.20795,-0.525041)">
            <g transform="matrix(0.996454,0,0,0.993139,53.364,38.1234)">
                <path d="M135.184,515.285C125.27,511.676 129.324,487.949 135.888,478.309C141.077,470.69 152.466,474.003 153.725,481.202C155.079,488.94 146.115,519.263 135.184,515.285Z" style="fill:none;stroke:white;stroke-width:1.52px;"/>
            </g>
        </g>
        <g transform="matrix(1,0,0,1,0.20795,-0.525041)">
            <g transform="matrix(0.996454,0,0,0.993139,53.364,38.1234)">
                <path d="M135.185,515.285C125.271,511.676 129.324,487.949 135.888,478.309C141.077,470.69 152.467,474.003 153.725,481.202C155.079,488.94 146.115,519.263 135.185,515.285Z" style="fill:rgb(70,70,70);"/>
            </g>
        </g>
        <g transform="matrix(1,0,0,1,0.20795,-0.525041)">
            <g transform="matrix(0.996454,0,0,0.993139,53.364,38.1234)">
                <path d="M150.031,520.689C159.945,524.297 172.092,503.515 173.259,491.912C174.181,482.74 163.327,477.957 157.736,482.662C151.725,487.719 139.1,516.711 150.031,520.689Z" style="fill:white;"/>
            </g>
        </g>
        <g transform="matrix(1,0,0,1,0.20795,-0.525041)">
            <g transform="matrix(0.996454,0,0,0.993139,53.364,38.1234)">
                <path d="M150.031,520.689C159.945,524.297 172.092,503.515 173.259,491.912C174.181,482.74 163.327,477.957 157.736,482.662C151.725,487.719 139.1,516.711 150.031,520.689Z" style="fill:none;stroke:white;stroke-width:1.52px;"/>
            </g>
        </g>
        <g transform="matrix(1,0,0,1,0.20795,-0.525041)">
            <g transform="matrix(0.996454,0,0,0.993139,53.364,38.1234)">
                <path d="M150.031,520.689C159.945,524.297 172.092,503.515 173.259,491.912C174.182,482.74 163.327,477.957 157.736,482.662C151.725,487.719 139.1,516.711 150.031,520.689Z" style="fill:rgb(70,70,70);"/>
            </g>
        </g>
        <g transform="matrix(1,0,0,1,0.20795,-0.525041)">
            <g transform="matrix(0.996454,0,0,0.993139,53.364,38.1234)">
                <path d="M142.126,519.31C154.331,523.753 167.026,493.051 165.5,484.766C164.934,481.698 162.364,478.07 157.748,476.389C153.127,474.708 148.825,475.837 146.417,477.83C139.925,483.204 129.921,514.868 142.126,519.31Z" style="fill:white;"/>
            </g>
        </g>
        <g transform="matrix(1,0,0,1,0.20795,-0.525041)">
            <g transform="matrix(0.996454,0,0,0.993139,53.364,38.1234)">
                <path d="M142.126,519.31C154.331,523.753 167.026,493.051 165.5,484.766C164.934,481.698 162.364,478.07 157.748,476.389C153.127,474.708 148.825,475.837 146.417,477.83C139.925,483.204 129.921,514.868 142.126,519.31Z" style="fill:none;stroke:white;stroke-width:1.51px;"/>
            </g>
        </g>
        <g transform="matrix(1,0,0,1,0.20795,-0.525041)">
            <g transform="matrix(0.996454,0,0,0.993139,53.364,38.1234)">
                <path d="M142.126,519.31C154.331,523.753 167.026,493.051 165.5,484.766C164.935,481.698 162.364,478.07 157.748,476.389C153.128,474.708 148.825,475.837 146.418,477.83C139.926,483.204 129.921,514.868 142.126,519.31Z" style="fill:rgb(70,70,70);"/>
            </g>
        </g>
        <g transform="matrix(1,0,0,1,0.20795,-0.525041)">
            <g transform="matrix(0.996454,0,0,0.993139,53.364,38.1234)">
                <path d="M163.263,483.582C163.467,484.066 163.622,484.571 163.719,485.094C164.105,487.194 163.309,490.711 162.76,492.746C161.747,496.503 160.259,500.272 158.523,503.753C156.821,507.164 153.254,513.305 149.096,516.258C155.51,508.678 162.199,493.825 163.263,483.582Z" style="fill:white;"/>
            </g>
        </g>
        <g transform="matrix(1,0,0,1,0.20795,-0.525041)">
            <g transform="matrix(0.996454,0,0,0.993139,53.364,38.1234)">
                <path d="M113.203,533.08C89.333,532.502 87.309,517.78 87.636,499.689C87.963,481.598 93.893,467.07 114.387,467.567C134.882,468.064 140.281,482.867 139.954,500.958C139.626,519.048 137.072,533.659 113.203,533.08Z" style="fill:rgb(229,149,37);"/>
            </g>
        </g>
        <g transform="matrix(1,0,0,1,0.20795,-0.525041)">
            <g transform="matrix(0.996454,0,0,0.993139,53.364,38.1234)">
                <path d="M94.398,484.823C95.402,481.219 98.434,478.789 101.17,479.394C103.907,479.999 105.312,483.41 104.308,487.014C103.304,490.618 100.272,493.048 97.536,492.444C94.799,491.838 93.395,488.427 94.398,484.823Z" style="fill:rgb(239,168,31);"/>
            </g>
        </g>
        <g transform="matrix(1,0,0,1,0.20795,-0.525041)">
            <g transform="matrix(0.996454,0,0,0.993139,53.364,38.1234)">
                <path d="M89.95,502.075C92.528,496.616 95.51,491.074 98.964,485.841C102.422,480.607 106.352,475.682 110.823,471.461C110.864,471.422 110.928,471.424 110.966,471.464C111.002,471.503 111.002,471.562 110.968,471.601C107.303,476.173 103.535,481.294 99.955,486.544C96.398,491.762 93.026,497.109 90.127,502.173C90.099,502.222 90.037,502.239 89.989,502.211C89.941,502.184 89.924,502.123 89.95,502.075Z" style="fill:rgb(186,104,40);"/>
            </g>
        </g>
        <g transform="matrix(1,0,0,1,0.20795,-0.525041)">
            <g transform="matrix(0.996454,0,0,0.993139,53.364,38.1234)">
                <path d="M92.456,518.194C95.506,510.126 99.221,502.36 103.706,495.045C108.191,487.73 113.446,480.865 119.575,474.595C119.614,474.555 119.678,474.554 119.718,474.593C119.755,474.629 119.758,474.687 119.728,474.727C114.602,481.459 109.603,488.388 105.001,495.61C100.4,502.832 96.19,510.353 92.643,518.271C92.621,518.323 92.561,518.344 92.51,518.323C92.461,518.3 92.439,518.245 92.457,518.194L92.456,518.194Z" style="fill:rgb(186,104,40);"/>
            </g>
        </g>
        <g transform="matrix(1,0,0,1,0.20795,-0.525041)">
            <g transform="matrix(0.996454,0,0,0.993139,53.364,38.1234)">
                <path d="M100.167,527.323C103.247,518.345 107.148,509.771 111.867,501.639C116.558,493.558 122.056,485.913 128.358,478.746C128.396,478.704 128.46,478.7 128.502,478.737C128.542,478.772 128.547,478.833 128.515,478.875C123.087,486.503 117.881,494.39 113.114,502.493C108.348,510.595 104.022,518.91 100.354,527.396C100.333,527.447 100.273,527.47 100.222,527.449C100.173,527.427 100.149,527.373 100.167,527.323Z" style="fill:rgb(186,104,40);"/>
            </g>
        </g>
        <g transform="matrix(1,0,0,1,0.20795,-0.525041)">
            <g transform="matrix(0.996454,0,0,0.993139,53.364,38.1234)">
                <path d="M111.598,529.084C114.122,521.92 117.134,514.954 120.611,508.21C124.106,501.429 128.071,494.875 132.482,488.572C132.515,488.527 132.578,488.515 132.624,488.547C132.667,488.578 132.68,488.638 132.651,488.684C130.983,491.793 129.287,494.889 127.583,497.999C121.965,508.252 116.281,518.625 111.786,529.157C111.764,529.208 111.705,529.232 111.653,529.211C111.604,529.189 111.58,529.133 111.598,529.084Z" style="fill:rgb(186,104,40);"/>
            </g>
        </g>
        <g transform="matrix(1,0,0,1,0.20795,-0.525041)">
            <g transform="matrix(0.996454,0,0,0.993139,53.364,38.1234)">
                <path d="M122.511,527.776C123.839,523.48 125.579,519.135 127.65,514.888C129.735,510.61 132.16,506.43 134.84,502.496C134.872,502.449 134.935,502.437 134.98,502.468C135.023,502.497 135.037,502.552 135.014,502.597C134.008,504.62 132.971,506.673 131.932,508.732C128.761,515.013 125.562,521.352 122.701,527.846C122.679,527.897 122.619,527.92 122.568,527.898C122.52,527.878 122.497,527.824 122.512,527.776L122.511,527.776Z" style="fill:rgb(186,104,40);"/>
            </g>
        </g>
        <g transform="matrix(1,0,0,1,0.20795,-0.525041)">
            <g transform="matrix(0.996454,0,0,0.993139,53.364,38.1234)">
                <path d="M102.377,473.311C108.833,475.861 114.944,478.909 120.675,482.469C126.318,485.975 131.596,489.98 136.476,494.497C136.516,494.535 136.519,494.599 136.481,494.64C136.446,494.678 136.388,494.683 136.348,494.653L136.347,494.653C130.91,490.692 125.396,486.936 119.747,483.406C114.092,479.873 108.296,476.563 102.294,473.495C102.245,473.469 102.225,473.409 102.25,473.359C102.274,473.312 102.33,473.293 102.377,473.311Z" style="fill:rgb(186,104,40);"/>
            </g>
        </g>
        <g transform="matrix(1,0,0,1,0.20795,-0.525041)">
            <g transform="matrix(0.996454,0,0,0.993139,53.364,38.1234)">
                <path d="M96.118,480.8C103.85,484.015 111.219,487.802 118.192,492.177C125.058,496.485 131.539,501.364 137.602,506.83C137.643,506.867 137.646,506.931 137.609,506.972C137.575,507.011 137.516,507.016 137.475,506.986L137.473,506.985C130.744,502.033 123.888,497.441 116.963,493.133C110.037,488.826 103.039,484.801 96.031,480.982C95.982,480.956 95.964,480.894 95.991,480.845C96.016,480.799 96.071,480.781 96.118,480.8Z" style="fill:rgb(186,104,40);"/>
            </g>
        </g>
        <g transform="matrix(1,0,0,1,0.20795,-0.525041)">
            <g transform="matrix(0.996454,0,0,0.993139,53.364,38.1234)">
                <path d="M92.016,489.096C99.681,492.283 107.1,496.178 114.13,500.647C121.294,505.199 128.057,510.348 134.269,515.948C134.31,515.985 134.313,516.05 134.276,516.091C134.242,516.129 134.183,516.134 134.142,516.105L134.14,516.103C127.655,511.331 120.813,506.663 113.775,502.189C106.64,497.655 99.301,493.32 91.929,489.278C91.88,489.252 91.862,489.19 91.889,489.141C91.914,489.095 91.969,489.077 92.016,489.096Z" style="fill:rgb(186,104,40);"/>
            </g>
        </g>
        <g transform="matrix(1,0,0,1,0.20795,-0.525041)">
            <g transform="matrix(0.996454,0,0,0.993139,53.364,38.1234)">
                <path d="M90.742,498.364C98.041,501.399 104.753,505.117 111.11,509.348C117.465,513.579 123.466,518.323 129.345,523.412C129.386,523.448 129.392,523.513 129.354,523.555C129.319,523.596 129.254,523.602 129.212,523.564L129.211,523.563C123.114,518.865 116.854,514.484 110.428,510.341C104.001,506.197 97.41,502.293 90.654,498.545C90.606,498.518 90.588,498.457 90.615,498.408C90.641,498.364 90.695,498.345 90.742,498.364Z" style="fill:rgb(186,104,40);"/>
            </g>
        </g>
        <g transform="matrix(1,0,0,1,0.20795,-0.525041)">
            <g transform="matrix(0.996454,0,0,0.993139,53.364,38.1234)">
                <path d="M91.995,510.682C96.625,512.781 101.016,515.214 105.206,517.925C109.397,520.638 113.391,523.63 117.226,526.846C117.269,526.882 117.274,526.946 117.239,526.989C117.206,527.028 117.148,527.036 117.106,527.008C115.697,526.085 114.189,525.09 112.673,524.09C105.813,519.568 98.792,514.939 91.895,510.858C91.847,510.83 91.831,510.767 91.859,510.719C91.887,510.672 91.947,510.656 91.995,510.682Z" style="fill:rgb(186,104,40);"/>
            </g>
        </g>
        <g transform="matrix(1,0,0,1,0.20795,-0.525041)">
            <g transform="matrix(0.996454,0,0,0.993139,53.364,38.1234)">
                <path d="M116.063,436.345C117.235,435.296 118.407,434.248 119.579,433.199C119.83,429.081 121.345,425.069 123.659,421.123C118.413,423.068 114.978,426.115 113.109,430.115C114.093,432.192 115.078,434.269 116.063,436.345Z" style="fill:rgb(67,137,63);"/>
            </g>
        </g>
        <g transform="matrix(1,0,0,1,0.20795,-0.525041)">
            <g transform="matrix(0.996454,0,0,0.993139,53.364,38.1234)">
                <path d="M120.549,448.537C121.879,447.658 123.208,446.779 124.538,445.901C125.454,441.863 127.604,438.1 130.532,434.51C125.029,435.724 121.137,438.272 118.64,441.975C119.276,444.163 119.913,446.35 120.549,448.537Z" style="fill:rgb(52,116,57);"/>
            </g>
        </g>
        <g transform="matrix(1,0,0,1,0.20795,-0.525041)">
            <g transform="matrix(0.996454,0,0,0.993139,53.364,38.1234)">
                <path d="M121.021,458.925C122.421,458.143 123.821,457.361 125.221,456.579C126.477,452.618 128.94,449.019 132.164,445.647C126.575,446.467 122.478,448.733 119.674,452.248C120.123,454.474 120.572,456.699 121.021,458.925Z" style="fill:rgb(52,116,57);"/>
            </g>
        </g>
        <g transform="matrix(1,0,0,1,0.20795,-0.525041)">
            <g transform="matrix(0.996454,0,0,0.993139,53.364,38.1234)">
                <path d="M123.692,469.127C125.41,465.916 128.894,461.568 134.153,458.668C126.581,458.701 120.6,461.965 117.796,465.481L118.794,470.428C120.427,470.145 122.059,469.712 123.692,469.126L123.692,469.127Z" style="fill:rgb(52,116,57);"/>
            </g>
        </g>
        <g transform="matrix(1,0,0,1,0.20795,-0.525041)">
            <g transform="matrix(0.996454,0,0,0.993139,53.364,38.1234)">
                <path d="M111.527,436.345C110.354,435.296 109.183,434.248 108.01,433.199C107.76,429.081 106.245,425.069 103.931,421.123C109.176,423.068 112.612,426.115 114.481,430.115C113.496,432.192 112.512,434.269 111.527,436.345Z" style="fill:rgb(86,154,67);"/>
            </g>
        </g>
        <g transform="matrix(1,0,0,1,0.20795,-0.525041)">
            <g transform="matrix(0.996454,0,0,0.993139,53.364,38.1234)">
                <path d="M107.041,448.537C105.71,447.658 104.381,446.779 103.052,445.901C102.136,441.863 99.985,438.1 97.057,434.51C102.56,435.724 106.453,438.272 108.95,441.975C108.313,444.163 107.677,446.35 107.041,448.537Z" style="fill:rgb(52,116,57);"/>
            </g>
        </g>
        <g transform="matrix(1,0,0,1,0.20795,-0.525041)">
            <g transform="matrix(0.996454,0,0,0.993139,53.364,38.1234)">
                <path d="M106.568,458.925C105.168,458.143 103.769,457.361 102.368,456.579C101.113,452.618 98.649,449.019 95.425,445.647C101.015,446.467 105.112,448.733 107.916,452.248C107.467,454.474 107.018,456.7 106.568,458.925Z" style="fill:rgb(52,116,57);"/>
            </g>
        </g>
        <g transform="matrix(1,0,0,1,0.20795,-0.525041)">
            <g transform="matrix(0.996454,0,0,0.993139,53.364,38.1234)">
                <path d="M103.842,469.032C102.072,465.831 98.377,461.54 93.168,458.668C100.233,458.295 106.99,461.965 109.794,465.481L108.81,470.355C107.154,470.052 105.499,469.609 103.842,469.032Z" style="fill:rgb(52,116,57);"/>
            </g>
        </g>
        <g transform="matrix(1,0,0,1,0.20795,-0.525041)">
            <g transform="matrix(0.996454,0,0,0.993139,53.364,38.1234)">
                <path d="M112.975,442.706C111.568,440.564 110.162,438.423 108.755,436.282C112.022,429.131 112.364,420.996 112.061,412.644C115.996,420.266 118.722,428.295 119.094,437.117C117.054,438.98 115.015,440.842 112.975,442.706Z" style="fill:rgb(52,116,57);"/>
            </g>
        </g>
        <g transform="matrix(1,0,0,1,0.20795,-0.525041)">
            <g transform="matrix(0.996454,0,0,0.993139,53.364,38.1234)">
                <path d="M118.369,452.92C114.705,452.586 111.042,452.25 107.38,451.914C107.892,443.926 105.5,435.259 99.171,429.15C109.82,429.443 120.499,440.672 118.369,452.92Z" style="fill:rgb(67,137,63);"/>
            </g>
        </g>
        <g transform="matrix(1,0,0,1,0.20795,-0.525041)">
            <g transform="matrix(0.996454,0,0,0.993139,53.364,38.1234)">
                <path d="M109.221,452.92C112.885,452.586 116.547,452.25 120.21,451.914C119.698,443.926 122.089,435.259 128.418,429.15C117.77,429.443 107.091,440.672 109.221,452.92Z" style="fill:rgb(86,154,67);"/>
            </g>
        </g>
        <g transform="matrix(1,0,0,1,0.20795,-0.525041)">
            <g transform="matrix(0.996454,0,0,0.993139,53.364,38.1234)">
                <path d="M116.438,461.271C112.775,460.936 109.112,460.6 105.449,460.264C107.324,452.443 101.925,445.778 94.147,439.492C103.686,440.377 117.428,449.63 116.438,461.271Z" style="fill:rgb(86,154,67);"/>
            </g>
        </g>
        <g transform="matrix(1,0,0,1,0.20795,-0.525041)">
            <g transform="matrix(0.996454,0,0,0.993139,53.364,38.1234)">
                <path d="M111.152,461.271C111.865,462.097 112.578,462.922 113.291,463.749C116.241,462.586 119.19,461.425 122.141,460.264C120.266,452.443 125.665,445.778 133.443,439.492C123.904,440.377 110.162,449.63 111.152,461.271Z" style="fill:rgb(67,137,63);"/>
            </g>
        </g>
        <g transform="matrix(1,0,0,1,0.20795,-0.525041)">
            <g transform="matrix(0.996454,0,0,0.993139,53.364,38.1234)">
                <path d="M121.456,469.834C121.414,462.53 127.408,456.879 135.457,451.793C125.976,451.637 111.348,459.166 110.514,470.617C114.161,471.07 117.809,470.833 121.456,469.834Z" style="fill:rgb(86,154,67);"/>
            </g>
        </g>
        <g transform="matrix(1,0,0,1,0.20795,-0.525041)">
            <g transform="matrix(0.996454,0,0,0.993139,53.364,38.1234)">
                <path d="M106.129,469.743C105.924,462.66 100.013,457.141 92.133,452.161C101.528,452.007 115.977,459.398 117.05,470.674C113.41,471.071 109.77,470.738 106.129,469.743Z" style="fill:rgb(67,137,63);"/>
            </g>
        </g>
        <g transform="matrix(1,0,0,1,0.20795,-0.525041)">
            <g transform="matrix(0.996454,0,0,0.993139,53.364,38.1234)">
                <path d="M119.674,432.073C120.146,428.481 121.556,424.967 123.585,421.505C120.951,422.482 118.775,423.741 117.029,425.259C115.808,421.057 114.103,417.019 112.074,413.089C112.237,417.591 112.212,422.029 111.635,426.282C109.735,424.297 107.211,422.694 104.005,421.505C106.034,424.967 107.445,428.481 107.917,432.073C105.225,430.495 102.251,429.555 99.28,429.473C101.934,432.035 103.89,435.049 105.226,438.274C103.072,436.677 100.405,435.505 97.181,434.795C99.012,437.038 100.537,439.35 101.641,441.756C99.125,440.652 96.586,439.951 94.293,439.738C97.574,442.39 100.429,445.111 102.484,447.959C100.497,446.946 98.196,446.235 95.562,445.848C98.028,448.428 100.046,451.142 101.413,454.05C98.25,452.879 95.052,452.269 92.293,452.314C96.208,454.788 99.632,457.395 102.104,460.265C99.441,459.226 96.411,458.609 93.322,458.773C98.491,461.623 102.159,465.882 103.917,469.06L103.917,469.059C110.483,471.349 117.06,471.515 123.619,469.153L123.619,469.154C125.324,465.966 128.783,461.651 134.003,458.772C130.642,458.787 127.596,459.444 125.007,460.477C127.504,457.378 131.121,454.587 135.297,451.949C132.601,451.904 129.483,452.487 126.392,453.607C127.751,450.866 129.688,448.296 132.029,445.848C129.395,446.235 127.094,446.945 125.107,447.959C127.162,445.111 130.016,442.39 133.298,439.739C131.004,439.951 128.465,440.653 125.949,441.756C127.054,439.35 128.578,437.038 130.409,434.795C127.185,435.505 124.519,436.677 122.365,438.274C123.701,435.049 125.657,432.035 128.31,429.473C125.339,429.555 122.366,430.495 119.674,432.073Z" style="fill:white;"/>
            </g>
        </g>
        <g transform="matrix(1,0,0,1,0.20795,-0.525041)">
            <g transform="matrix(0.996454,0,0,0.993139,53.364,38.1234)">
                <path d="M113.207,532.633C89.514,532.059 87.505,517.448 87.83,499.49C88.154,481.533 94.04,467.112 114.383,467.606C134.726,468.099 140.085,482.793 139.76,500.75C139.436,518.707 136.9,533.209 113.207,532.633Z" style="fill:white;"/>
            </g>
        </g>
        <g transform="matrix(1,0,0,1,0.20795,-0.525041)">
            <g transform="matrix(0.996454,0,0,0.993139,53.364,38.1234)">
                <path d="M113.207,532.633C89.514,532.059 87.505,517.448 87.83,499.49C88.154,481.533 94.04,467.112 114.383,467.606C134.726,468.099 140.085,482.793 139.76,500.75C139.436,518.707 136.9,533.209 113.207,532.633Z" style="fill:none;stroke:white;stroke-width:5.98px;"/>
            </g>
        </g>
        <g transform="matrix(1,0,0,1,0.20795,-0.525041)">
            <g transform="matrix(0.996454,0,0,0.993139,53.364,38.1234)">
                <path d="M113.207,532.633C89.514,532.059 87.505,517.448 87.83,499.49C88.154,481.533 94.04,467.112 114.383,467.606C134.726,468.099 140.085,482.793 139.76,500.75C139.436,518.707 136.9,533.209 113.207,532.633Z" style="fill:rgb(70,70,70);"/>
            </g>
        </g>
        <g transform="matrix(1,0,0,1,0.20795,-0.525041)">
            <g transform="matrix(0.996454,0,0,0.993139,53.364,38.1234)">
                <path d="M90.127,501.858C92.686,496.44 95.646,490.939 99.075,485.746C102.506,480.549 106.407,475.661 110.846,471.47C110.886,471.433 110.95,471.434 110.987,471.474C111.023,471.512 111.024,471.571 110.99,471.61C107.351,476.148 103.611,481.231 100.059,486.442C96.528,491.622 93.181,496.929 90.303,501.957C90.275,502.004 90.214,502.021 90.166,501.994C90.118,501.966 90.102,501.906 90.127,501.858Z" style="fill:white;"/>
            </g>
        </g>
        <g transform="matrix(1,0,0,1,0.20795,-0.525041)">
            <g transform="matrix(0.996454,0,0,0.993139,53.364,38.1234)">
                <path d="M92.615,517.859C95.642,509.849 99.33,502.141 103.781,494.88C108.233,487.62 113.449,480.805 119.533,474.582C119.571,474.543 119.635,474.542 119.675,474.581C119.711,474.616 119.715,474.673 119.685,474.713C114.597,481.395 109.635,488.272 105.067,495.441C100.5,502.61 96.321,510.076 92.8,517.935C92.778,517.985 92.718,518.008 92.668,517.987C92.619,517.964 92.597,517.909 92.615,517.859Z" style="fill:white;"/>
            </g>
        </g>
        <g transform="matrix(1,0,0,1,0.20795,-0.525041)">
            <g transform="matrix(0.996454,0,0,0.993139,53.364,38.1234)">
                <path d="M100.268,526.92C103.325,518.008 107.198,509.498 111.882,501.425C116.538,493.404 121.996,485.816 128.252,478.702C128.289,478.66 128.353,478.656 128.394,478.693C128.434,478.728 128.438,478.789 128.406,478.83C123.019,486.402 117.852,494.231 113.12,502.273C108.389,510.315 104.096,518.569 100.455,526.992C100.433,527.043 100.374,527.066 100.323,527.045C100.275,527.023 100.251,526.968 100.268,526.92Z" style="fill:white;"/>
            </g>
        </g>
        <g transform="matrix(1,0,0,1,0.20795,-0.525041)">
            <g transform="matrix(0.996454,0,0,0.993139,53.364,38.1234)">
                <path d="M111.614,528.667C114.12,521.556 117.11,514.641 120.561,507.948C124.031,501.217 127.966,494.711 132.345,488.456C132.376,488.411 132.439,488.399 132.484,488.43C132.528,488.461 132.541,488.522 132.512,488.566C130.856,491.652 129.172,494.726 127.482,497.812C121.906,507.989 116.263,518.287 111.801,528.74C111.78,528.791 111.721,528.814 111.67,528.793C111.621,528.772 111.597,528.716 111.615,528.667L111.614,528.667Z" style="fill:white;"/>
            </g>
        </g>
        <g transform="matrix(1,0,0,1,0.20795,-0.525041)">
            <g transform="matrix(0.996454,0,0,0.993139,53.364,38.1234)">
                <path d="M122.448,527.369C123.766,523.105 125.492,518.794 127.548,514.577C129.619,510.331 132.024,506.181 134.685,502.276C134.716,502.23 134.779,502.218 134.825,502.249C134.866,502.277 134.88,502.333 134.858,502.377C133.859,504.384 132.83,506.422 131.798,508.466C128.651,514.701 125.475,520.992 122.635,527.439C122.614,527.49 122.554,527.512 122.503,527.491C122.456,527.47 122.433,527.418 122.448,527.369Z" style="fill:white;"/>
            </g>
        </g>
        <g transform="matrix(1,0,0,1,0.20795,-0.525041)">
            <g transform="matrix(0.996454,0,0,0.993139,53.364,38.1234)">
                <path d="M102.462,473.307C108.871,475.838 114.936,478.863 120.625,482.398C126.226,485.878 131.464,489.853 136.308,494.336C136.349,494.375 136.351,494.438 136.313,494.478C136.279,494.516 136.221,494.521 136.181,494.492C130.784,490.559 125.312,486.832 119.703,483.327C114.091,479.821 108.337,476.535 102.38,473.49C102.331,473.464 102.312,473.404 102.336,473.355C102.36,473.309 102.415,473.289 102.462,473.307Z" style="fill:white;"/>
            </g>
        </g>
        <g transform="matrix(1,0,0,1,0.20795,-0.525041)">
            <g transform="matrix(0.996454,0,0,0.993139,53.364,38.1234)">
                <path d="M96.25,480.741C103.924,483.932 111.239,487.691 118.16,492.034C124.975,496.31 131.409,501.153 137.426,506.578C137.467,506.615 137.471,506.678 137.434,506.72C137.399,506.758 137.341,506.763 137.3,506.733L137.298,506.732C130.619,501.816 123.814,497.258 116.94,492.983C110.065,488.708 103.119,484.712 96.163,480.922C96.115,480.896 96.097,480.835 96.123,480.786C96.148,480.741 96.203,480.722 96.25,480.742L96.25,480.741Z" style="fill:white;"/>
            </g>
        </g>
        <g transform="matrix(1,0,0,1,0.20795,-0.525041)">
            <g transform="matrix(0.996454,0,0,0.993139,53.364,38.1234)">
                <path d="M92.178,488.975C99.786,492.139 107.15,496.005 114.128,500.441C121.239,504.96 127.952,510.07 134.118,515.629C134.159,515.667 134.163,515.73 134.125,515.771C134.091,515.81 134.033,515.814 133.992,515.784L133.99,515.784C127.554,511.045 120.762,506.412 113.775,501.972C106.693,497.471 99.409,493.168 92.091,489.156C92.043,489.129 92.025,489.069 92.051,489.02C92.076,488.974 92.131,488.957 92.178,488.975Z" style="fill:white;"/>
            </g>
        </g>
        <g transform="matrix(1,0,0,1,0.20795,-0.525041)">
            <g transform="matrix(0.996454,0,0,0.993139,53.364,38.1234)">
                <path d="M90.913,498.174C98.158,501.187 104.82,504.878 111.13,509.078C117.439,513.277 123.396,517.987 129.229,523.037C129.272,523.074 129.276,523.138 129.241,523.18C129.203,523.22 129.141,523.225 129.099,523.189L129.097,523.188C123.045,518.523 116.832,514.175 110.454,510.063C104.074,505.95 97.533,502.074 90.826,498.355C90.778,498.329 90.761,498.267 90.788,498.219C90.812,498.174 90.867,498.156 90.913,498.175L90.913,498.174Z" style="fill:white;"/>
            </g>
        </g>
        <g transform="matrix(1,0,0,1,0.20795,-0.525041)">
            <g transform="matrix(0.996454,0,0,0.993139,53.364,38.1234)">
                <path d="M92.157,510.402C96.752,512.485 101.111,514.901 105.27,517.592L105.27,517.591C109.43,520.284 113.394,523.254 117.201,526.447C117.243,526.482 117.249,526.545 117.214,526.587C117.181,526.627 117.124,526.634 117.082,526.607C115.684,525.69 114.187,524.704 112.682,523.711C105.873,519.221 98.903,514.628 92.058,510.577C92.01,510.548 91.994,510.487 92.022,510.439C92.049,510.392 92.109,510.376 92.157,510.402Z" style="fill:white;"/>
            </g>
        </g>
    </g>
</svg>
