<?xml version="1.0" encoding="UTF-8" standalone="no"?>
<!DOCTYPE svg PUBLIC "-//W3C//DTD SVG 1.1//EN" "http://www.w3.org/Graphics/SVG/1.1/DTD/svg11.dtd">
<svg width="100%" height="100%" viewBox="0 0 190 125" version="1.1" xmlns="http://www.w3.org/2000/svg" xmlns:xlink="http://www.w3.org/1999/xlink" xml:space="preserve" xmlns:serif="http://www.serif.com/" style="fill-rule:evenodd;clip-rule:evenodd;stroke-linecap:round;stroke-linejoin:round;stroke-miterlimit:1.41421;">
    <g transform="matrix(1,0,0,1,-72.3312,-666.102)">
        <g transform="matrix(1,0,0,1,0.20795,-0.525041)">
            <g transform="matrix(0.996454,0,0,0.993139,53.364,38.1234)">
                <path d="M202.887,732.541C203.52,732.683 204.109,732.731 204.654,732.681C205.197,732.633 205.683,732.503 206.111,732.294C206.538,732.081 206.896,731.794 207.18,731.428C207.465,731.064 207.663,730.637 207.774,730.145C207.857,729.774 207.88,729.422 207.843,729.094C207.805,728.766 207.698,728.449 207.52,728.139C207.341,727.833 207.097,727.524 206.779,727.218C206.464,726.915 206.069,726.596 205.6,726.267C205.132,725.943 204.756,725.653 204.472,725.399C204.191,725.144 203.976,724.906 203.831,724.684C203.687,724.461 203.599,724.249 203.573,724.043C203.547,723.839 203.557,723.631 203.605,723.419C203.656,723.19 203.742,722.999 203.861,722.839C203.979,722.682 204.122,722.559 204.283,722.47C204.446,722.382 204.626,722.33 204.823,722.31C205.018,722.293 205.218,722.306 205.42,722.352C205.712,722.418 205.945,722.545 206.119,722.728C206.293,722.914 206.421,723.127 206.5,723.365C206.582,723.605 206.625,723.854 206.625,724.111C206.628,724.37 206.604,724.604 206.556,724.817C206.868,724.887 207.149,724.919 207.399,724.907C207.647,724.896 207.862,724.85 208.045,724.772C208.226,724.693 208.373,724.585 208.485,724.451C208.597,724.313 208.672,724.157 208.713,723.977C208.769,723.731 208.758,723.483 208.677,723.239C208.596,722.994 208.443,722.764 208.212,722.545C207.984,722.329 207.678,722.126 207.293,721.943C206.905,721.759 206.434,721.605 205.876,721.479C205.341,721.358 204.831,721.318 204.341,721.359C203.855,721.401 203.413,721.517 203.023,721.71C202.63,721.903 202.297,722.167 202.024,722.499C201.751,722.833 201.563,723.232 201.458,723.698C201.374,724.071 201.345,724.422 201.371,724.755C201.396,725.091 201.491,725.418 201.654,725.733C201.816,726.052 202.052,726.367 202.365,726.68C202.675,726.993 203.071,727.317 203.552,727.655C203.938,727.928 204.273,728.179 204.557,728.409C204.839,728.635 205.068,728.86 205.241,729.078C205.412,729.297 205.528,729.518 205.586,729.742C205.645,729.965 205.645,730.206 205.585,730.463C205.533,730.697 205.441,730.903 205.313,731.085C205.183,731.268 205.02,731.413 204.824,731.526C204.627,731.638 204.404,731.709 204.151,731.742C203.899,731.773 203.626,731.756 203.33,731.689C203.027,731.622 202.761,731.503 202.533,731.334C202.302,731.165 202.122,730.948 201.989,730.686C201.856,730.424 201.773,730.118 201.743,729.764C201.714,729.412 201.75,729.017 201.847,728.584C201.625,728.533 201.404,728.507 201.187,728.511C200.97,728.513 200.77,728.556 200.581,728.633C200.396,728.71 200.233,728.827 200.097,728.983C199.96,729.141 199.862,729.35 199.803,729.612C199.747,729.86 199.749,730.123 199.809,730.402C199.868,730.682 200.013,730.952 200.24,731.219C200.468,731.483 200.796,731.731 201.223,731.962C201.648,732.195 202.204,732.386 202.887,732.541ZM195.112,728.793C195.067,729.011 195.051,729.189 195.064,729.328C195.075,729.464 195.11,729.576 195.167,729.66C195.226,729.747 195.3,729.81 195.389,729.852C195.479,729.892 195.578,729.926 195.688,729.95L196.329,730.085L196.158,730.896L190.887,729.789L191.058,728.977L191.699,729.112C191.813,729.135 191.92,729.145 192.018,729.144C192.12,729.142 192.211,729.113 192.295,729.056C192.377,729.002 192.455,728.915 192.522,728.794C192.588,728.671 192.645,728.503 192.691,728.284L194.406,720.12L193.185,719.864C192.958,719.816 192.762,719.801 192.596,719.82C192.433,719.836 192.293,719.881 192.178,719.953C192.062,720.024 191.964,720.123 191.89,720.248C191.813,720.37 191.749,720.515 191.692,720.682L191.389,721.606L190.361,721.39L191.064,718.446L200.572,720.443L200.023,723.42L199.003,723.206L199.09,722.236C199.106,722.061 199.105,721.902 199.084,721.759C199.067,721.615 199.017,721.485 198.939,721.373C198.862,721.26 198.752,721.164 198.607,721.083C198.466,721 198.277,720.934 198.051,720.885L196.827,720.629L195.112,728.793ZM182.408,728.219L187.71,729.169L187.856,728.352L187.211,728.236C187.101,728.216 186.999,728.185 186.905,728.147C186.812,728.107 186.736,728.045 186.68,727.961C186.623,727.88 186.584,727.77 186.569,727.633C186.552,727.496 186.563,727.318 186.602,727.097L187.915,719.763C187.954,719.544 188.005,719.374 188.07,719.25C188.131,719.127 188.206,719.037 188.287,718.98C188.369,718.92 188.462,718.889 188.563,718.886C188.664,718.881 188.771,718.886 188.881,718.907L189.526,719.022L189.672,718.206L184.37,717.256L184.224,718.073L184.869,718.189C184.984,718.21 185.087,718.241 185.177,718.281C185.271,718.319 185.344,718.379 185.401,718.463C185.458,718.545 185.496,718.655 185.513,718.793C185.528,718.93 185.518,719.108 185.479,719.328L184.166,726.662C184.126,726.881 184.075,727.052 184.013,727.175C183.949,727.298 183.875,727.388 183.793,727.445C183.711,727.504 183.621,727.536 183.52,727.542C183.421,727.545 183.314,727.539 183.199,727.518L182.554,727.403L182.408,728.219ZM183.003,717.83L182.341,717.721C182.235,717.705 182.134,717.701 182.035,717.708C181.934,717.713 181.845,717.746 181.759,717.805C181.675,717.863 181.603,717.954 181.54,718.078C181.48,718.202 181.431,718.374 181.395,718.594L180.413,724.602C180.329,725.121 180.179,725.57 179.965,725.96C179.749,726.345 179.461,726.657 179.102,726.89C178.741,727.127 178.308,727.28 177.796,727.354C177.286,727.426 176.696,727.409 176.024,727.298C175.352,727.189 174.765,727.027 174.257,726.813C173.75,726.598 173.336,726.322 173.015,725.98C172.697,725.641 172.476,725.234 172.356,724.758C172.236,724.283 172.227,723.728 172.33,723.097L173.292,717.21C173.326,717.004 173.333,716.836 173.309,716.706C173.288,716.576 173.245,716.471 173.183,716.396C173.12,716.317 173.045,716.26 172.956,716.224C172.867,716.186 172.769,716.157 172.664,716.139L172.004,716.032L172.137,715.221L177.442,716.088L177.31,716.899L176.664,716.794C176.559,716.776 176.456,716.773 176.357,716.781C176.259,716.785 176.167,716.818 176.083,716.878C175.998,716.935 175.925,717.026 175.865,717.15C175.803,717.274 175.753,717.446 175.717,717.667L174.745,723.616C174.674,724.046 174.67,724.418 174.729,724.73C174.789,725.04 174.904,725.301 175.076,725.51C175.246,725.723 175.466,725.891 175.733,726.013C176,726.136 176.31,726.226 176.661,726.284C177,726.339 177.315,726.345 177.606,726.304C177.895,726.261 178.151,726.161 178.374,726.007C178.597,725.854 178.784,725.643 178.936,725.376C179.088,725.105 179.197,724.775 179.261,724.385L180.248,718.345C180.281,718.14 180.288,717.973 180.267,717.843C180.249,717.713 180.207,717.61 180.146,717.534C180.083,717.455 180.007,717.398 179.913,717.362C179.822,717.323 179.725,717.294 179.619,717.277L178.972,717.17L179.105,716.36L183.135,717.019L183.003,717.83ZM163.963,719.602L164.832,719.716C165.19,719.764 165.496,719.754 165.748,719.691C166,719.628 166.209,719.51 166.376,719.341C166.545,719.17 166.68,718.946 166.782,718.671C166.882,718.393 166.956,718.068 167.006,717.689C167.058,717.297 167.068,716.96 167.033,716.677C166.999,716.398 166.917,716.159 166.789,715.966C166.662,715.771 166.48,715.618 166.251,715.509C166.019,715.4 165.733,715.323 165.39,715.277L164.55,715.167L163.963,719.602ZM159.438,723.957L160.088,724.043C160.193,724.056 160.295,724.059 160.396,724.051C160.494,724.044 160.582,724.013 160.665,723.961C160.746,723.907 160.817,723.822 160.875,723.704C160.935,723.586 160.977,723.426 161.003,723.224L162,715.689C162.027,715.483 162.029,715.316 162.001,715.186C161.977,715.057 161.93,714.954 161.866,714.879C161.8,714.803 161.723,714.749 161.63,714.714C161.536,714.679 161.438,714.652 161.331,714.639L160.683,714.552L160.79,713.739L165.774,714.398C167.235,714.59 168.272,714.977 168.891,715.554C169.509,716.134 169.755,716.89 169.632,717.821C169.578,718.231 169.471,718.584 169.308,718.884C169.145,719.188 168.948,719.443 168.718,719.654C168.486,719.864 168.235,720.036 167.961,720.165C167.689,720.296 167.414,720.396 167.14,720.467L168.561,723.88C168.663,724.12 168.767,724.325 168.867,724.501C168.969,724.674 169.076,724.822 169.186,724.942C169.296,725.061 169.413,725.153 169.538,725.219C169.663,725.283 169.796,725.327 169.943,725.346L170.002,725.354L169.893,726.175L169.388,726.109C168.924,726.047 168.525,725.976 168.184,725.897C167.843,725.815 167.551,725.706 167.304,725.569C167.06,725.431 166.854,725.26 166.69,725.055C166.524,724.846 166.38,724.589 166.258,724.282L164.873,720.637L163.844,720.502L163.441,723.547C163.415,723.751 163.417,723.914 163.441,724.043C163.469,724.172 163.513,724.273 163.58,724.347C163.644,724.419 163.723,724.471 163.816,724.504C163.909,724.538 164.008,724.561 164.113,724.575L164.778,724.663L164.669,725.485L159.33,724.779L159.438,723.957ZM157.716,716.296L157.717,715.539C157.706,715.125 157.612,714.818 157.431,714.617C157.248,714.413 156.999,714.295 156.681,714.263L154.208,714.013L153.779,718.25L157.465,718.623L157.373,719.541L153.687,719.168L153.368,722.313C153.346,722.536 153.352,722.713 153.379,722.85C153.41,722.986 153.457,723.092 153.519,723.17C153.582,723.25 153.665,723.304 153.764,723.338C153.862,723.369 153.967,723.393 154.078,723.404L155.041,723.502L154.957,724.327L149.288,723.753L149.371,722.927L150.023,722.994C150.134,723.005 150.239,723.005 150.339,722.994C150.437,722.983 150.524,722.951 150.605,722.896C150.684,722.838 150.75,722.752 150.804,722.631C150.855,722.511 150.893,722.35 150.913,722.148L151.678,714.586C151.699,714.378 151.695,714.211 151.669,714.084C151.64,713.955 151.593,713.853 151.527,713.782C151.459,713.707 151.381,713.654 151.287,713.624C151.191,713.59 151.089,713.567 150.978,713.556L150.326,713.49L150.409,712.673L159.014,713.544L158.8,716.407L157.716,716.296ZM139.416,713.903C139.429,713.722 139.425,713.552 139.402,713.391C139.382,713.231 139.334,713.092 139.263,712.969C139.188,712.847 139.083,712.749 138.947,712.671C138.809,712.596 138.633,712.55 138.415,712.535C138.241,712.523 138.088,712.546 137.957,712.602C137.822,712.661 137.709,712.744 137.621,712.855C137.532,712.966 137.46,713.099 137.41,713.256C137.358,713.412 137.325,713.585 137.312,713.771C137.299,713.948 137.309,714.121 137.338,714.284C137.366,714.451 137.414,714.615 137.484,714.779C137.55,714.945 137.64,715.113 137.75,715.282C137.858,715.454 137.989,715.635 138.14,715.831C138.366,715.724 138.557,715.607 138.711,715.48C138.869,715.353 138.996,715.212 139.093,715.061C139.189,714.906 139.264,714.734 139.316,714.545C139.366,714.355 139.399,714.142 139.416,713.903ZM135.594,719.622C135.572,719.933 135.601,720.224 135.681,720.495C135.761,720.769 135.882,721.01 136.047,721.219C136.21,721.431 136.414,721.602 136.663,721.734C136.912,721.866 137.19,721.943 137.499,721.964C138.051,722.003 138.521,721.945 138.916,721.79C139.307,721.638 139.64,721.416 139.916,721.13L136.834,717.35C136.605,717.49 136.418,717.644 136.265,717.81C136.113,717.974 135.991,718.151 135.897,718.342C135.801,718.531 135.732,718.732 135.686,718.945C135.642,719.158 135.61,719.385 135.594,719.622ZM141.54,723.136L140.548,721.922C140.343,722.101 140.115,722.262 139.869,722.402C139.624,722.544 139.355,722.66 139.062,722.754C138.771,722.851 138.457,722.918 138.12,722.957C137.783,722.999 137.421,723.003 137.032,722.977C136.394,722.932 135.834,722.817 135.352,722.635C134.872,722.451 134.475,722.204 134.16,721.897C133.845,721.591 133.616,721.226 133.474,720.802C133.329,720.379 133.275,719.907 133.312,719.386C133.344,718.929 133.444,718.545 133.609,718.234C133.776,717.922 133.991,717.659 134.248,717.44C134.508,717.221 134.805,717.041 135.138,716.897C135.472,716.756 135.819,716.628 136.182,716.509C135.997,716.252 135.836,716.008 135.704,715.778C135.569,715.546 135.463,715.32 135.379,715.095C135.298,714.871 135.244,714.643 135.214,714.411C135.186,714.18 135.179,713.932 135.198,713.67C135.222,713.326 135.309,713.019 135.46,712.748C135.612,712.48 135.826,712.253 136.1,712.068C136.375,711.884 136.71,711.752 137.11,711.67C137.506,711.588 137.964,711.565 138.48,711.602C138.98,711.637 139.415,711.725 139.777,711.867C140.143,712.01 140.44,712.192 140.67,712.412C140.902,712.631 141.069,712.88 141.175,713.156C141.281,713.434 141.323,713.721 141.302,714.02C141.28,714.334 141.211,714.615 141.098,714.86C140.984,715.107 140.822,715.331 140.613,715.532C140.403,715.734 140.143,715.919 139.834,716.085C139.525,716.253 139.162,716.416 138.744,716.574C138.767,716.618 138.801,716.656 138.85,716.696L140.892,719.167C140.982,718.81 141.051,718.459 141.097,718.107C141.142,717.755 141.173,717.434 141.193,717.139L141.241,716.455L144.649,716.693L144.591,717.512L144.348,717.496C144.177,717.484 144.007,717.482 143.84,717.491C143.675,717.501 143.517,717.537 143.371,717.599C143.223,717.665 143.091,717.761 142.973,717.894C142.854,718.025 142.752,718.208 142.671,718.442C142.567,718.726 142.453,719.025 142.318,719.347C142.187,719.666 142.031,719.986 141.852,720.31L143.289,722.037C143.426,722.205 143.598,722.321 143.807,722.385C144.016,722.453 144.261,722.496 144.538,722.515L144.684,722.525L144.625,723.352L141.54,723.136ZM123.284,722.411C122.585,722.395 122.001,722.316 121.54,722.172C121.075,722.03 120.705,721.851 120.429,721.637C120.153,721.42 119.958,721.184 119.845,720.921C119.731,720.659 119.678,720.403 119.683,720.148C119.689,719.88 119.745,719.656 119.848,719.473C119.95,719.294 120.086,719.146 120.253,719.036C120.422,718.922 120.611,718.84 120.823,718.796C121.034,718.75 121.255,718.731 121.484,718.737C121.474,719.181 121.517,719.575 121.616,719.915C121.714,720.255 121.856,720.54 122.038,720.77C122.22,721.001 122.439,721.177 122.699,721.297C122.957,721.419 123.241,721.482 123.55,721.489C123.854,721.497 124.125,721.459 124.366,721.378C124.607,721.295 124.813,721.183 124.983,721.034C125.153,720.884 125.285,720.711 125.375,720.504C125.466,720.301 125.515,720.081 125.521,719.842C125.527,719.577 125.48,719.342 125.378,719.134C125.276,718.926 125.12,718.733 124.908,718.551C124.697,718.373 124.428,718.197 124.106,718.031C123.783,717.862 123.405,717.681 122.973,717.489C122.435,717.253 121.982,717.013 121.617,716.769C121.248,716.523 120.955,716.262 120.732,715.981C120.51,715.703 120.353,715.402 120.262,715.078C120.17,714.756 120.129,714.407 120.138,714.025C120.149,713.546 120.255,713.118 120.457,712.737C120.658,712.357 120.934,712.033 121.281,711.765C121.625,711.501 122.035,711.299 122.504,711.162C122.975,711.025 123.483,710.964 124.032,710.977C124.604,710.99 125.096,711.048 125.513,711.152C125.926,711.255 126.266,711.393 126.533,711.561C126.802,711.73 126.998,711.925 127.125,712.149C127.252,712.373 127.312,712.614 127.306,712.866C127.301,713.05 127.258,713.218 127.177,713.376C127.093,713.529 126.97,713.664 126.809,713.777C126.645,713.89 126.442,713.976 126.202,714.036C125.958,714.098 125.677,714.123 125.357,714.115C125.363,713.897 125.34,713.662 125.286,713.409C125.234,713.158 125.144,712.921 125.016,712.703C124.891,712.485 124.724,712.3 124.517,712.153C124.309,712.008 124.056,711.929 123.757,711.922C123.55,711.918 123.352,711.944 123.163,712C122.974,712.057 122.809,712.144 122.666,712.263C122.525,712.382 122.409,712.531 122.325,712.708C122.24,712.888 122.193,713.092 122.188,713.326C122.183,713.545 122.214,713.751 122.28,713.945C122.346,714.141 122.474,714.332 122.66,714.523C122.845,714.711 123.103,714.903 123.429,715.097C123.757,715.29 124.184,715.5 124.706,715.725C125.231,715.956 125.681,716.19 126.05,716.425C126.421,716.662 126.723,716.916 126.958,717.182C127.193,717.45 127.361,717.74 127.463,718.054C127.564,718.369 127.611,718.718 127.603,719.097C127.591,719.602 127.481,720.059 127.274,720.473C127.067,720.887 126.772,721.239 126.396,721.532C126.018,721.822 125.568,722.046 125.044,722.2C124.521,722.357 123.934,722.426 123.284,722.411ZM112.95,721.168L116.072,721.192C116.231,721.193 116.366,721.166 116.479,721.106C116.591,721.05 116.688,720.967 116.769,720.861C116.85,720.756 116.916,720.631 116.967,720.486C117.014,720.341 117.052,720.183 117.08,720.011L117.208,719.282L118.289,719.291L118.152,722.16L109.013,722.088L109.019,721.258L109.673,721.264C109.786,721.265 109.89,721.255 109.989,721.235C110.085,721.214 110.168,721.174 110.244,721.113C110.318,721.047 110.375,720.955 110.418,720.831C110.458,720.706 110.48,720.543 110.482,720.339L110.541,712.798C110.542,712.575 110.523,712.398 110.485,712.265C110.445,712.132 110.388,712.03 110.319,711.96C110.249,711.886 110.166,711.838 110.067,711.817C109.971,711.794 109.865,711.779 109.748,711.778L109.093,711.773L109.1,710.952L117.763,711.019L117.801,713.89L116.712,713.881L116.642,713.142C116.604,712.762 116.51,712.467 116.358,712.264C116.208,712.06 115.973,711.957 115.653,711.955L113.022,711.934L112.992,715.833L116.696,715.862L116.688,716.797L112.985,716.769L112.95,721.168ZM98.411,722.386L98.392,721.557L99.046,721.542C99.163,721.54 99.27,721.524 99.365,721.501C99.463,721.475 99.545,721.426 99.614,721.352C99.682,721.28 99.737,721.177 99.775,721.044C99.812,720.911 99.828,720.733 99.823,720.509L99.649,713.053C99.644,712.83 99.619,712.654 99.577,712.522C99.532,712.39 99.473,712.291 99.401,712.222C99.329,712.151 99.245,712.106 99.146,712.087C99.049,712.067 98.942,712.056 98.825,712.058L98.17,712.074L98.151,711.253L103.537,711.127L103.556,711.948L102.901,711.963C102.794,711.966 102.69,711.981 102.592,712.007C102.494,712.031 102.409,712.077 102.341,712.146C102.272,712.212 102.217,712.31 102.176,712.435C102.134,712.561 102.118,712.728 102.122,712.936L102.318,721.343L105.219,721.276C105.585,721.267 105.866,721.144 106.063,720.911C106.263,720.674 106.4,720.336 106.481,719.892L106.706,718.713L107.582,718.693L107.549,722.173L98.411,722.386ZM91.108,716.478L91.703,716.446C92.069,716.425 92.37,716.37 92.605,716.282C92.842,716.193 93.03,716.063 93.165,715.897C93.301,715.728 93.394,715.515 93.44,715.26C93.485,715.003 93.5,714.697 93.481,714.341C93.461,713.986 93.412,713.692 93.331,713.457C93.248,713.221 93.128,713.033 92.967,712.896C92.806,712.756 92.603,712.661 92.356,712.612C92.108,712.563 91.81,712.545 91.46,712.564L90.897,712.594L91.108,716.478ZM91.399,721.82L92.433,721.763C92.778,721.745 93.069,721.69 93.309,721.601C93.549,721.512 93.739,721.378 93.88,721.201C94.024,721.021 94.122,720.795 94.177,720.515C94.229,720.239 94.245,719.902 94.223,719.505C94.203,719.126 94.156,718.795 94.078,718.518C94.003,718.239 93.887,718.013 93.729,717.837C93.573,717.664 93.371,717.537 93.13,717.459C92.886,717.38 92.585,717.35 92.225,717.37L91.16,717.428L91.399,721.82ZM96.097,714.201C96.116,714.545 96.086,714.847 96.006,715.11C95.926,715.369 95.804,715.597 95.643,715.794C95.479,715.987 95.282,716.157 95.048,716.302C94.814,716.445 94.553,716.572 94.265,716.681L94.269,716.756C94.631,716.827 94.968,716.934 95.272,717.079C95.578,717.223 95.842,717.405 96.07,717.624C96.298,717.842 96.479,718.101 96.615,718.398C96.751,718.696 96.829,719.036 96.85,719.417C96.906,720.44 96.574,721.225 95.856,721.769C95.139,722.316 94.042,722.628 92.562,722.71L87.542,722.983L87.497,722.155L88.138,722.12C88.252,722.114 88.36,722.094 88.459,722.069C88.555,722.04 88.639,721.989 88.705,721.912C88.773,721.837 88.825,721.734 88.859,721.599C88.896,721.464 88.908,721.287 88.896,721.063L88.489,713.6C88.477,713.393 88.447,713.225 88.397,713.098C88.348,712.973 88.283,712.876 88.206,712.809C88.127,712.74 88.039,712.696 87.939,712.675C87.838,712.652 87.734,712.642 87.622,712.648L86.981,712.683L86.936,711.863L91.486,711.615C92.966,711.535 94.092,711.702 94.862,712.118C95.631,712.532 96.044,713.228 96.097,714.201ZM80.42,716.357C80.348,716.184 80.276,716.002 80.202,715.813C80.126,715.624 80.052,715.429 79.978,715.232C79.901,715.035 79.829,714.837 79.758,714.642C79.689,714.448 79.626,714.26 79.569,714.082C79.536,714.245 79.498,714.42 79.455,714.611C79.409,714.805 79.36,715.003 79.31,715.206C79.259,715.408 79.207,715.611 79.156,715.816C79.106,716.019 79.057,716.213 79.01,716.4L78.318,719.105L81.457,718.836L80.42,716.357ZM78.073,720.081L77.739,721.456C77.709,721.586 77.68,721.737 77.65,721.912C77.624,722.084 77.613,722.233 77.624,722.36C77.632,722.461 77.661,722.547 77.709,722.622C77.757,722.693 77.814,722.751 77.882,722.795C77.954,722.836 78.032,722.866 78.117,722.884C78.202,722.903 78.292,722.909 78.382,722.901L79.035,722.844L79.106,723.671L75.06,724.017L74.989,723.191L75.181,723.174C75.315,723.163 75.441,723.136 75.552,723.096C75.664,723.055 75.765,722.989 75.856,722.898C75.947,722.806 76.031,722.684 76.106,722.53C76.182,722.374 76.256,722.177 76.328,721.936L78.915,712.51L81.046,712.328L85.078,721.203C85.171,721.415 85.267,721.588 85.362,721.724C85.46,721.862 85.561,721.968 85.666,722.043C85.772,722.12 85.88,722.168 85.995,722.195C86.109,722.221 86.228,722.229 86.349,722.219L86.631,722.195L86.702,723.021L81.571,723.461L81.501,722.634L82.106,722.582C82.184,722.575 82.261,722.555 82.339,722.529C82.418,722.498 82.487,722.456 82.548,722.401C82.606,722.348 82.652,722.283 82.687,722.204C82.72,722.123 82.732,722.03 82.723,721.924C82.712,721.797 82.687,721.676 82.648,721.563C82.607,721.452 82.567,721.35 82.531,721.267L81.852,719.757L78.073,720.081ZM71.484,722.557L70.517,714.271L71.759,714.127C71.989,714.1 72.188,714.102 72.349,714.136C72.513,714.168 72.647,714.224 72.756,714.306C72.865,714.387 72.954,714.495 73.016,714.627C73.081,714.754 73.133,714.906 73.174,715.077L73.399,716.024L74.435,715.903L74.009,712.906L64.359,714.032L64.628,717.047L65.671,716.925L65.665,715.953C65.665,715.777 65.681,715.619 65.714,715.478C65.745,715.336 65.806,715.211 65.893,715.107C65.981,715.003 66.099,714.916 66.248,714.848C66.399,714.778 66.59,714.73 66.82,714.703L68.059,714.558L69.026,722.844C69.052,723.066 69.052,723.244 69.028,723.38C69.002,723.517 68.958,723.625 68.896,723.702C68.835,723.783 68.757,723.838 68.662,723.874C68.569,723.905 68.465,723.93 68.349,723.944L67.698,724.02L67.794,724.843L73.144,724.219L73.048,723.396L72.397,723.471C72.286,723.485 72.181,723.484 72.084,723.474C71.985,723.462 71.895,723.425 71.811,723.362C71.731,723.3 71.662,723.207 71.608,723.08C71.551,722.953 71.51,722.779 71.484,722.557ZM59.116,724.993L62.211,724.585C62.369,724.563 62.499,724.517 62.602,724.443C62.705,724.372 62.79,724.277 62.855,724.161C62.921,724.045 62.969,723.912 62.999,723.761C63.026,723.611 63.042,723.449 63.045,723.275L63.07,722.535L64.143,722.393L64.405,725.253L55.344,726.452L55.235,725.629L55.885,725.544C55.996,725.529 56.097,725.505 56.192,725.471C56.285,725.438 56.362,725.386 56.429,725.315C56.493,725.241 56.537,725.14 56.562,725.011C56.584,724.882 56.583,724.717 56.557,724.516L55.568,717.04C55.539,716.818 55.495,716.646 55.439,716.519C55.38,716.393 55.31,716.3 55.231,716.24C55.152,716.177 55.064,716.142 54.963,716.134C54.864,716.124 54.757,716.125 54.641,716.14L53.992,716.225L53.884,715.411L62.474,714.275L62.909,717.113L61.829,717.255L61.658,716.534C61.567,716.163 61.433,715.883 61.254,715.703C61.079,715.522 60.831,715.453 60.514,715.495L57.905,715.839L58.417,719.706L62.089,719.219L62.212,720.147L58.54,720.632L59.116,724.993ZM49.218,727.638C48.266,727.794 47.413,727.794 46.658,727.64C45.905,727.485 45.253,727.199 44.699,726.778C44.146,726.36 43.7,725.822 43.355,725.162C43.011,724.504 42.769,723.751 42.63,722.904C42.495,722.07 42.493,721.289 42.627,720.558C42.757,719.826 43.024,719.173 43.426,718.597C43.825,718.023 44.362,717.541 45.032,717.146C45.704,716.754 46.512,716.48 47.454,716.327C48.095,716.222 48.664,716.176 49.157,716.19C49.651,716.205 50.073,716.267 50.422,716.374C50.772,716.482 51.043,716.629 51.241,716.822C51.435,717.013 51.556,717.237 51.597,717.485C51.627,717.668 51.61,717.841 51.551,718.014C51.493,718.187 51.387,718.346 51.235,718.496C51.085,718.64 50.893,718.77 50.657,718.877C50.425,718.986 50.143,719.066 49.817,719.12C49.766,718.809 49.684,718.53 49.564,718.281C49.448,718.034 49.295,717.83 49.106,717.669C48.917,717.509 48.695,717.398 48.438,717.336C48.18,717.272 47.889,717.266 47.563,717.32C47.002,717.412 46.541,717.592 46.179,717.862C45.82,718.131 45.549,718.484 45.365,718.922C45.18,719.358 45.081,719.875 45.062,720.471C45.044,721.069 45.095,721.738 45.217,722.482C45.338,723.223 45.504,723.871 45.716,724.425C45.928,724.978 46.196,725.43 46.525,725.779C46.851,726.127 47.24,726.368 47.691,726.503C48.146,726.636 48.672,726.656 49.281,726.556C49.471,726.525 49.659,726.486 49.849,726.44C50.036,726.393 50.217,726.335 50.393,726.266L50.022,724.002C49.955,723.588 49.815,723.319 49.602,723.187C49.392,723.058 49.106,723.021 48.744,723.08L48.542,723.113L48.409,722.302L53.251,721.511L53.383,722.322L53.177,722.355C53.023,722.38 52.891,722.423 52.781,722.478C52.672,722.536 52.587,722.615 52.528,722.717C52.468,722.819 52.432,722.949 52.419,723.101C52.41,723.255 52.423,723.443 52.459,723.664L52.872,726.19C52.317,726.566 51.743,726.873 51.154,727.109C50.564,727.347 49.918,727.524 49.218,727.638ZM36.398,728.847L39.463,728.251C39.618,728.22 39.746,728.167 39.844,728.086C39.943,728.009 40.021,727.909 40.08,727.79C40.139,727.67 40.179,727.535 40.2,727.381C40.217,727.23 40.223,727.068 40.216,726.894L40.196,726.154L41.258,725.947L41.694,728.786L32.722,730.532L32.563,729.717L33.206,729.592C33.316,729.571 33.416,729.541 33.509,729.502C33.6,729.463 33.673,729.406 33.735,729.331C33.794,729.253 33.833,729.15 33.85,729.02C33.864,728.89 33.853,728.725 33.814,728.526L32.375,721.124C32.332,720.904 32.277,720.734 32.214,720.612C32.147,720.49 32.072,720.401 31.99,720.345C31.907,720.288 31.816,720.257 31.716,720.255C31.617,720.252 31.51,720.258 31.395,720.281L30.752,720.406L30.595,719.599L39.1,717.946L39.707,720.752L38.638,720.96L38.422,720.249C38.31,719.884 38.159,719.614 37.97,719.444C37.783,719.274 37.531,719.22 37.217,719.281L34.635,719.783L35.379,723.611L39.016,722.904L39.194,723.823L35.559,724.53L36.398,728.847ZM29.629,720.633L28.894,720.8C28.825,720.815 28.765,720.844 28.719,720.887C28.67,720.93 28.629,720.998 28.592,721.091C28.557,721.185 28.524,721.312 28.498,721.467C28.472,721.626 28.444,721.829 28.418,722.08L27.333,731.726L25.809,732.07L20.466,723.475C20.383,723.344 20.295,723.236 20.194,723.158C20.097,723.079 19.999,723.021 19.9,722.987C19.799,722.951 19.704,722.932 19.611,722.932C19.514,722.93 19.43,722.936 19.356,722.952L19.007,723.031L18.826,722.23L23.849,721.096L24.03,721.897L23.331,722.055C23.257,722.072 23.188,722.098 23.121,722.131C23.057,722.165 23,722.208 22.952,722.258C22.903,722.311 22.869,722.373 22.848,722.447C22.83,722.518 22.83,722.6 22.851,722.696C22.874,722.795 22.914,722.904 22.973,723.023C23.029,723.144 23.084,723.241 23.134,723.321L25.743,727.659C25.807,727.764 25.878,727.887 25.956,728.032C26.033,728.174 26.11,728.328 26.186,728.486C26.265,728.647 26.338,728.806 26.408,728.964C26.479,729.124 26.537,729.271 26.583,729.404C26.579,729.317 26.579,729.197 26.581,729.043C26.585,728.886 26.593,728.719 26.606,728.539C26.615,728.355 26.627,728.173 26.642,727.989C26.654,727.808 26.667,727.642 26.682,727.493L27.204,722.511C27.211,722.451 27.218,722.385 27.226,722.314C27.233,722.241 27.236,722.17 27.238,722.095C27.24,722.023 27.24,721.951 27.239,721.884C27.237,721.818 27.23,721.764 27.221,721.726C27.183,721.556 27.098,721.44 26.967,721.376C26.835,721.312 26.677,721.3 26.495,721.341L25.699,721.521L25.518,720.719L29.448,719.833L29.629,720.633Z" style="fill:white;"/>
            </g>
        </g>
        <g transform="matrix(1,0,0,1,0.20795,-0.525041)">
            <g transform="matrix(0.996454,0,0,0.993139,53.364,38.1234)">
                <path d="M81.978,740.203C82.021,740.203 82.078,740.246 82.078,740.432C82.078,741.394 80.499,744.625 78.834,746.304C79.623,743.534 81.59,740.203 81.978,740.203ZM82.523,740.102C82.523,739.7 82.351,739.04 82.049,739.04C81.073,739.04 77.585,745.573 77.585,748.329C77.585,749.176 77.915,749.807 78.733,749.807C79.767,749.807 80.671,748.802 81.432,747.166L81.217,747.051C80.714,748.171 79.91,749.348 79.149,749.348C78.733,749.348 78.518,748.989 78.518,748.243C78.518,747.812 78.589,747.309 78.704,746.793C80.8,745.055 82.523,741.38 82.523,740.102ZM75.287,746.333C75.46,746.362 75.861,746.477 75.861,746.692C75.861,747.022 75.029,747.999 75.029,748.688C75.029,748.975 75.172,749.32 75.517,749.32C76.034,749.32 76.953,748.573 77.814,747.051L77.958,747.195C77.355,748.746 76.134,749.807 75.115,749.807C74.411,749.807 74.081,749.305 74.081,748.802C74.081,748.688 74.095,748.545 74.124,748.386C73.292,749.492 72.66,750.051 71.957,750.051C71.353,750.051 70.894,749.664 70.894,748.86C70.894,747.152 73.004,744.453 74.871,744.453C75.617,744.453 76.177,744.883 76.177,745.529C76.177,746.003 75.89,746.146 75.474,746.146C75.517,745.989 75.545,745.802 75.545,745.644C75.545,745.213 75.359,744.84 74.842,744.84C73.493,744.84 71.884,747.51 71.884,748.903C71.884,749.291 72.014,749.463 72.272,749.463C73.162,749.463 74.584,747.367 75.287,746.333ZM66.399,747.797C66.701,747.281 67.232,746.175 67.678,745.041C68.036,745.299 68.482,745.515 68.482,746.132C68.482,746.893 67.692,747.969 67.692,748.817C67.692,749.377 68.094,749.751 68.74,749.751C69.96,749.751 71.195,748.459 71.741,747.238L71.554,747.094C71.195,747.926 70.018,749.233 69.113,749.233C68.884,749.233 68.683,749.147 68.683,748.802C68.683,748.2 69.4,747.253 69.4,746.377C69.4,745.156 67.936,744.912 67.936,744.38C67.936,744.323 68.094,743.95 68.094,743.849C68.094,743.749 68.094,743.504 67.893,743.504C67.735,743.504 67.29,743.907 67.29,744.481C67.29,744.625 67.347,744.739 67.434,744.826C67.017,746.045 66.529,747.051 66.271,747.553L66.399,747.797ZM63.916,745.486C64.074,745.515 64.606,745.616 64.606,745.859C64.606,746.017 63.643,747.84 63.643,748.802C63.643,749.147 63.772,749.377 64.117,749.377C64.72,749.377 65.811,748.53 66.515,747.051L66.701,747.18C66.084,748.731 64.835,749.807 63.815,749.807C63.054,749.807 62.811,749.334 62.811,748.746C62.811,748.515 62.854,748.271 62.911,748.027C62.379,748.975 61.748,749.807 61.03,749.807C60.384,749.807 59.953,749.133 59.953,748.357C59.953,747.266 60.786,745.098 61.217,745.098C61.317,745.098 61.59,745.213 61.748,745.385C61.432,745.874 60.786,747.309 60.786,748.271C60.786,748.515 60.829,749.233 61.303,749.233C62.193,749.233 63.37,746.563 63.916,745.486ZM60.211,744.796C59.494,744.869 58.791,744.883 58.159,744.883L57.627,744.883C58.46,743.117 59.537,741.624 59.537,741.122C59.537,740.92 59.379,740.805 59.235,740.805C58.647,740.805 57.542,742.772 56.737,744.84C56.464,744.826 56.25,744.796 56.106,744.783L56.106,745.041C56.264,745.098 56.436,745.128 56.622,745.156C56.134,746.462 55.79,747.769 55.79,748.616C55.79,749.563 56.235,750.038 57.067,750.038C58.417,750.038 59.71,748.817 60.398,747.195L60.211,747.051C59.48,748.559 58.475,749.506 57.484,749.506C56.91,749.506 56.68,749.19 56.68,748.357C56.68,747.338 57.024,746.247 57.47,745.228L57.685,745.228C58.331,745.228 59.164,745.17 60.211,745.055L60.211,744.796ZM53.593,746.333C53.765,746.362 54.168,746.477 54.168,746.692C54.168,747.022 53.335,747.999 53.335,748.688C53.335,748.975 53.478,749.32 53.823,749.32C54.34,749.32 55.258,748.573 56.12,747.051L56.264,747.195C55.661,748.746 54.44,749.807 53.42,749.807C52.717,749.807 52.387,749.305 52.387,748.802C52.387,748.688 52.401,748.545 52.43,748.386C51.597,749.492 50.966,750.051 50.262,750.051C49.659,750.051 49.2,749.664 49.2,748.86C49.2,747.152 51.31,744.453 53.177,744.453C53.923,744.453 54.483,744.883 54.483,745.529C54.483,746.003 54.196,746.146 53.78,746.146C53.823,745.989 53.852,745.802 53.852,745.644C53.852,745.213 53.665,744.84 53.148,744.84C51.798,744.84 50.19,747.51 50.19,748.903C50.19,749.291 50.32,749.463 50.578,749.463C51.468,749.463 52.89,747.367 53.593,746.333ZM50.406,739.04C49.975,739.04 49.602,739.499 49.501,739.744C49.272,740.274 47.591,745.644 47.189,748.343C47.046,747.41 46.773,745.428 46.558,743.519C46.299,741.208 46.041,739.04 44.892,739.04C43.787,739.04 42.021,740.504 42.021,741.81C42.021,742.27 42.251,742.628 42.882,742.628C42.839,742.5 42.811,742.313 42.811,742.127C42.811,741.193 43.543,739.571 44.476,739.571C44.634,739.571 44.691,739.714 44.691,739.901C44.691,740.117 44.62,740.389 44.591,740.49C42.868,746.347 42.021,748.802 41.547,750.626C42.423,750.626 42.811,749.205 45.122,740.92C45.38,742.744 46.142,747.941 46.429,749.463C46.586,750.325 46.945,750.626 47.549,750.626C47.577,748.386 49.4,741.696 50.406,739.04Z" style="fill:white;"/>
            </g>
        </g>
        <g transform="matrix(1,0,0,1,0.20795,-0.525041)">
            <g transform="matrix(0.996454,0,0,0.993139,53.364,38.1234)">
                <path d="M81.978,740.203C82.021,740.203 82.078,740.246 82.078,740.432C82.078,741.394 80.499,744.625 78.834,746.304C79.623,743.534 81.59,740.203 81.978,740.203ZM82.523,740.102C82.523,739.7 82.351,739.04 82.049,739.04C81.073,739.04 77.585,745.573 77.585,748.329C77.585,749.176 77.915,749.807 78.733,749.807C79.767,749.807 80.671,748.802 81.432,747.166L81.217,747.051C80.714,748.171 79.91,749.348 79.149,749.348C78.733,749.348 78.518,748.989 78.518,748.243C78.518,747.812 78.589,747.309 78.704,746.793C80.8,745.055 82.523,741.38 82.523,740.102ZM75.287,746.333C75.46,746.362 75.861,746.477 75.861,746.692C75.861,747.022 75.029,747.999 75.029,748.688C75.029,748.975 75.172,749.32 75.517,749.32C76.034,749.32 76.953,748.573 77.814,747.051L77.958,747.195C77.355,748.746 76.134,749.807 75.115,749.807C74.411,749.807 74.081,749.305 74.081,748.802C74.081,748.688 74.095,748.545 74.124,748.386C73.292,749.492 72.66,750.051 71.957,750.051C71.353,750.051 70.894,749.664 70.894,748.86C70.894,747.152 73.004,744.453 74.871,744.453C75.617,744.453 76.177,744.883 76.177,745.529C76.177,746.003 75.89,746.146 75.474,746.146C75.517,745.989 75.545,745.802 75.545,745.644C75.545,745.213 75.359,744.84 74.842,744.84C73.493,744.84 71.884,747.51 71.884,748.903C71.884,749.291 72.014,749.463 72.272,749.463C73.162,749.463 74.584,747.367 75.287,746.333ZM66.399,747.797C66.701,747.281 67.232,746.175 67.678,745.041C68.036,745.299 68.482,745.515 68.482,746.132C68.482,746.893 67.692,747.969 67.692,748.817C67.692,749.377 68.094,749.751 68.74,749.751C69.96,749.751 71.195,748.459 71.741,747.238L71.554,747.094C71.195,747.926 70.018,749.233 69.113,749.233C68.884,749.233 68.683,749.147 68.683,748.802C68.683,748.2 69.4,747.253 69.4,746.377C69.4,745.156 67.936,744.912 67.936,744.38C67.936,744.323 68.094,743.95 68.094,743.849C68.094,743.749 68.094,743.504 67.893,743.504C67.735,743.504 67.29,743.907 67.29,744.481C67.29,744.625 67.347,744.739 67.434,744.826C67.017,746.045 66.529,747.051 66.271,747.553L66.399,747.797ZM63.916,745.486C64.074,745.515 64.606,745.616 64.606,745.859C64.606,746.017 63.643,747.84 63.643,748.802C63.643,749.147 63.772,749.377 64.117,749.377C64.72,749.377 65.811,748.53 66.515,747.051L66.701,747.18C66.084,748.731 64.835,749.807 63.815,749.807C63.054,749.807 62.811,749.334 62.811,748.746C62.811,748.515 62.854,748.271 62.911,748.027C62.379,748.975 61.748,749.807 61.03,749.807C60.384,749.807 59.953,749.133 59.953,748.357C59.953,747.266 60.786,745.098 61.217,745.098C61.317,745.098 61.59,745.213 61.748,745.385C61.432,745.874 60.786,747.309 60.786,748.271C60.786,748.515 60.829,749.233 61.303,749.233C62.193,749.233 63.37,746.563 63.916,745.486ZM60.211,744.796C59.494,744.869 58.791,744.883 58.159,744.883L57.627,744.883C58.46,743.117 59.537,741.624 59.537,741.122C59.537,740.92 59.379,740.805 59.235,740.805C58.647,740.805 57.542,742.772 56.737,744.84C56.464,744.826 56.25,744.796 56.106,744.783L56.106,745.041C56.264,745.098 56.436,745.128 56.622,745.156C56.134,746.462 55.79,747.769 55.79,748.616C55.79,749.563 56.235,750.038 57.067,750.038C58.417,750.038 59.71,748.817 60.398,747.195L60.211,747.051C59.48,748.559 58.475,749.506 57.484,749.506C56.91,749.506 56.68,749.19 56.68,748.357C56.68,747.338 57.024,746.247 57.47,745.228L57.685,745.228C58.331,745.228 59.164,745.17 60.211,745.055L60.211,744.796ZM53.593,746.333C53.765,746.362 54.168,746.477 54.168,746.692C54.168,747.022 53.335,747.999 53.335,748.688C53.335,748.975 53.478,749.32 53.823,749.32C54.34,749.32 55.258,748.573 56.12,747.051L56.264,747.195C55.661,748.746 54.44,749.807 53.42,749.807C52.717,749.807 52.387,749.305 52.387,748.802C52.387,748.688 52.401,748.545 52.43,748.386C51.597,749.492 50.966,750.051 50.262,750.051C49.659,750.051 49.2,749.664 49.2,748.86C49.2,747.152 51.31,744.453 53.177,744.453C53.923,744.453 54.483,744.883 54.483,745.529C54.483,746.003 54.196,746.146 53.78,746.146C53.823,745.989 53.852,745.802 53.852,745.644C53.852,745.213 53.665,744.84 53.148,744.84C51.798,744.84 50.19,747.51 50.19,748.903C50.19,749.291 50.32,749.463 50.578,749.463C51.468,749.463 52.89,747.367 53.593,746.333ZM50.406,739.04C49.975,739.04 49.602,739.499 49.501,739.744C49.272,740.274 47.591,745.644 47.189,748.343C47.046,747.41 46.773,745.428 46.558,743.519C46.299,741.208 46.041,739.04 44.892,739.04C43.787,739.04 42.021,740.504 42.021,741.81C42.021,742.27 42.251,742.628 42.882,742.628C42.839,742.5 42.811,742.313 42.811,742.127C42.811,741.193 43.543,739.571 44.476,739.571C44.634,739.571 44.691,739.714 44.691,739.901C44.691,740.117 44.62,740.389 44.591,740.49C42.868,746.347 42.021,748.802 41.547,750.626C42.423,750.626 42.811,749.205 45.122,740.92C45.38,742.744 46.142,747.941 46.429,749.463C46.586,750.325 46.945,750.626 47.549,750.626C47.577,748.386 49.4,741.696 50.406,739.04Z" style="fill:none;stroke:white;stroke-width:0.28px;"/>
            </g>
        </g>
        <g transform="matrix(1,0,0,1,0.20795,-0.525041)">
            <g transform="matrix(0.996454,0,0,0.993139,53.364,38.1234)">
                <path d="M184.479,744.524C185.269,744.524 185.499,745.084 185.499,745.586C185.499,746.146 185.226,746.634 184.781,746.634C184.638,746.634 184.494,746.578 184.365,746.42C184.652,746.276 184.896,745.715 184.896,745.286C184.896,745.055 184.824,744.926 184.58,744.926C183.561,744.926 182.226,747.037 182.226,748.444C182.226,749.033 182.455,749.635 183.274,749.635C184.408,749.635 185.7,748.63 186.317,747.037L186.504,747.18C185.844,748.918 184.336,750.181 182.943,750.181C182.024,750.181 181.335,749.578 181.335,748.343C181.335,746.42 183.015,744.524 184.479,744.524ZM180.689,743.174C181.149,743.174 181.623,742.758 181.623,742.399C181.623,742.069 181.436,741.955 181.149,741.955C180.689,741.955 180.101,742.298 180.101,742.701C180.101,743.031 180.374,743.174 180.689,743.174ZM179.929,744.509C178.952,744.509 177.861,747.453 177.861,748.545C177.861,749.219 178.22,749.751 178.967,749.751C180.086,749.751 181.235,748.846 181.795,747.195L181.666,747.051C180.847,748.688 180.101,749.248 179.455,749.248C178.981,749.248 178.751,749.076 178.751,748.386C178.751,747.037 180.244,745.299 180.244,744.826C180.244,744.625 180.101,744.509 179.929,744.509ZM170.682,749.277C170.682,749.104 171.688,746.994 171.702,745.745C171.816,745.616 172.089,745.443 172.362,745.443C172.621,745.443 172.75,745.586 172.75,745.816C172.75,746.118 172.549,746.922 172.291,747.711C173.051,746.548 174.186,745.185 175.276,745.185C176.023,745.185 176.339,745.831 176.339,746.477C176.339,747.367 175.75,748.042 175.75,748.746C175.75,749.147 175.937,749.291 176.181,749.291C176.899,749.291 177.66,748.114 178.191,747.051L178.349,747.238C177.747,748.644 176.942,749.664 175.866,749.664C175.191,749.664 174.86,749.277 174.86,748.746C174.86,748.157 175.276,747.424 175.276,746.75C175.276,746.218 175.033,746.045 174.703,746.045C173.511,746.045 172.19,748.329 171.443,749.592C171.142,749.592 170.84,749.492 170.682,749.277ZM168.974,746.333C168.271,747.367 166.849,749.463 165.959,749.463C165.701,749.463 165.571,749.291 165.571,748.903C165.571,747.51 167.179,744.84 168.529,744.84C169.045,744.84 169.232,745.213 169.232,745.644C169.232,745.802 169.204,745.989 169.161,746.146C169.577,746.146 169.864,746.003 169.864,745.529C169.864,744.883 169.304,744.453 168.558,744.453C166.691,744.453 164.581,747.152 164.581,748.86C164.581,749.664 165.04,750.051 165.643,750.051C166.347,750.051 166.979,749.492 167.811,748.386C167.782,748.545 167.768,748.688 167.768,748.802C167.768,749.305 168.098,749.807 168.802,749.807C169.821,749.807 171.042,748.746 171.644,747.195L171.501,747.051C170.639,748.573 169.72,749.32 169.204,749.32C168.859,749.32 168.715,748.975 168.715,748.688C168.715,747.999 169.548,747.022 169.548,746.692C169.548,746.477 169.146,746.362 168.974,746.333ZM159.857,752.937C160.23,752.937 160.948,752.263 161.709,750.425C160.575,751 159.512,751.617 159.512,752.435C159.512,752.737 159.656,752.937 159.857,752.937ZM163.59,745.141C163.489,744.998 163.303,744.926 163.016,744.926C161.508,744.926 160.13,746.979 160.13,748.185C160.13,748.644 160.331,748.888 160.632,748.888C161.178,748.888 162.025,748.042 162.757,746.994L162.929,746.233C162.987,745.96 163.188,745.501 163.662,745.501C163.748,745.501 163.848,745.515 163.963,745.544C163.963,746.017 163.518,747.769 162.858,749.477C163.791,749.033 164.767,748.142 165.198,747.051L165.384,747.195C164.939,748.487 163.59,749.463 162.7,749.893C161.896,751.832 160.977,753.397 159.9,753.397C159.483,753.397 159.067,753.153 159.067,752.564C159.067,751.401 160.661,750.64 161.867,750.038C162.125,749.377 162.37,748.601 162.599,747.669C161.867,748.716 161.063,749.506 160.259,749.506C159.57,749.506 159.182,748.946 159.182,748.114C159.182,746.118 161.436,744.395 162.987,744.395C163.532,744.395 163.762,744.61 163.762,744.854C163.762,745.027 163.633,745.128 163.59,745.141ZM154.487,747.797C154.789,747.281 155.32,746.175 155.765,745.041C156.124,745.299 156.569,745.515 156.569,746.132C156.569,746.893 155.779,747.969 155.779,748.817C155.779,749.377 156.181,749.751 156.827,749.751C158.047,749.751 159.283,748.459 159.828,747.238L159.642,747.094C159.283,747.926 158.105,749.233 157.201,749.233C156.971,749.233 156.77,749.147 156.77,748.802C156.77,748.2 157.488,747.253 157.488,746.377C157.488,745.156 156.023,744.912 156.023,744.38C156.023,744.323 156.181,743.95 156.181,743.849C156.181,743.749 156.181,743.504 155.98,743.504C155.822,743.504 155.377,743.907 155.377,744.481C155.377,744.625 155.435,744.739 155.521,744.826C155.104,746.045 154.617,747.051 154.358,747.553L154.487,747.797ZM152.535,739.226C152.319,739.111 152.032,739.054 151.673,739.054C148.931,739.054 145.729,743.376 145.729,747.065C145.729,749.219 146.849,750.626 148.486,750.626C150.797,750.626 154.071,747.754 154.071,742.529C154.071,741.409 153.841,739.757 152.85,739.757C151.903,739.757 150.252,741.495 150.252,742.514C150.252,742.83 150.453,743.102 150.941,743.217C151.17,742.141 152.176,740.145 152.879,740.145C153.367,740.145 153.525,741.336 153.525,742.127C153.525,745.529 151.601,750.138 148.917,750.138C147.552,750.138 146.993,748.802 146.993,747.266C146.993,743.778 149.907,739.226 152.376,739.226L152.535,739.226Z" style="fill:white;"/>
            </g>
        </g>
        <g transform="matrix(1,0,0,1,0.20795,-0.525041)">
            <g transform="matrix(0.996454,0,0,0.993139,53.364,38.1234)">
                <path d="M184.479,744.524C185.269,744.524 185.499,745.084 185.499,745.586C185.499,746.146 185.226,746.634 184.781,746.634C184.638,746.634 184.494,746.578 184.365,746.42C184.652,746.276 184.896,745.715 184.896,745.286C184.896,745.055 184.824,744.926 184.58,744.926C183.561,744.926 182.226,747.037 182.226,748.444C182.226,749.033 182.455,749.635 183.274,749.635C184.408,749.635 185.7,748.63 186.317,747.037L186.504,747.18C185.844,748.918 184.336,750.181 182.943,750.181C182.024,750.181 181.335,749.578 181.335,748.343C181.335,746.42 183.015,744.524 184.479,744.524ZM180.689,743.174C181.149,743.174 181.623,742.758 181.623,742.399C181.623,742.069 181.436,741.955 181.149,741.955C180.689,741.955 180.101,742.298 180.101,742.701C180.101,743.031 180.374,743.174 180.689,743.174ZM179.929,744.509C178.952,744.509 177.861,747.453 177.861,748.545C177.861,749.219 178.22,749.751 178.967,749.751C180.086,749.751 181.235,748.846 181.795,747.195L181.666,747.051C180.847,748.688 180.101,749.248 179.455,749.248C178.981,749.248 178.751,749.076 178.751,748.386C178.751,747.037 180.244,745.299 180.244,744.826C180.244,744.625 180.101,744.509 179.929,744.509ZM170.682,749.277C170.682,749.104 171.688,746.994 171.702,745.745C171.816,745.616 172.089,745.443 172.362,745.443C172.621,745.443 172.75,745.586 172.75,745.816C172.75,746.118 172.549,746.922 172.291,747.711C173.051,746.548 174.186,745.185 175.276,745.185C176.023,745.185 176.339,745.831 176.339,746.477C176.339,747.367 175.75,748.042 175.75,748.746C175.75,749.147 175.937,749.291 176.181,749.291C176.899,749.291 177.66,748.114 178.191,747.051L178.349,747.238C177.747,748.644 176.942,749.664 175.866,749.664C175.191,749.664 174.86,749.277 174.86,748.746C174.86,748.157 175.276,747.424 175.276,746.75C175.276,746.218 175.033,746.045 174.703,746.045C173.511,746.045 172.19,748.329 171.443,749.592C171.142,749.592 170.84,749.492 170.682,749.277ZM168.974,746.333C168.271,747.367 166.849,749.463 165.959,749.463C165.701,749.463 165.571,749.291 165.571,748.903C165.571,747.51 167.179,744.84 168.529,744.84C169.045,744.84 169.232,745.213 169.232,745.644C169.232,745.802 169.204,745.989 169.161,746.146C169.577,746.146 169.864,746.003 169.864,745.529C169.864,744.883 169.304,744.453 168.558,744.453C166.691,744.453 164.581,747.152 164.581,748.86C164.581,749.664 165.04,750.051 165.643,750.051C166.347,750.051 166.979,749.492 167.811,748.386C167.782,748.545 167.768,748.688 167.768,748.802C167.768,749.305 168.098,749.807 168.802,749.807C169.821,749.807 171.042,748.746 171.644,747.195L171.501,747.051C170.639,748.573 169.72,749.32 169.204,749.32C168.859,749.32 168.715,748.975 168.715,748.688C168.715,747.999 169.548,747.022 169.548,746.692C169.548,746.477 169.146,746.362 168.974,746.333ZM159.857,752.937C160.23,752.937 160.948,752.263 161.709,750.425C160.575,751 159.512,751.617 159.512,752.435C159.512,752.737 159.656,752.937 159.857,752.937ZM163.59,745.141C163.489,744.998 163.303,744.926 163.016,744.926C161.508,744.926 160.13,746.979 160.13,748.185C160.13,748.644 160.331,748.888 160.632,748.888C161.178,748.888 162.025,748.042 162.757,746.994L162.929,746.233C162.987,745.96 163.188,745.501 163.662,745.501C163.748,745.501 163.848,745.515 163.963,745.544C163.963,746.017 163.518,747.769 162.858,749.477C163.791,749.033 164.767,748.142 165.198,747.051L165.384,747.195C164.939,748.487 163.59,749.463 162.7,749.893C161.896,751.832 160.977,753.397 159.9,753.397C159.483,753.397 159.067,753.153 159.067,752.564C159.067,751.401 160.661,750.64 161.867,750.038C162.125,749.377 162.37,748.601 162.599,747.669C161.867,748.716 161.063,749.506 160.259,749.506C159.57,749.506 159.182,748.946 159.182,748.114C159.182,746.118 161.436,744.395 162.987,744.395C163.532,744.395 163.762,744.61 163.762,744.854C163.762,745.027 163.633,745.128 163.59,745.141ZM154.487,747.797C154.789,747.281 155.32,746.175 155.765,745.041C156.124,745.299 156.569,745.515 156.569,746.132C156.569,746.893 155.779,747.969 155.779,748.817C155.779,749.377 156.181,749.751 156.827,749.751C158.047,749.751 159.283,748.459 159.828,747.238L159.642,747.094C159.283,747.926 158.105,749.233 157.201,749.233C156.971,749.233 156.77,749.147 156.77,748.802C156.77,748.2 157.488,747.253 157.488,746.377C157.488,745.156 156.023,744.912 156.023,744.38C156.023,744.323 156.181,743.95 156.181,743.849C156.181,743.749 156.181,743.504 155.98,743.504C155.822,743.504 155.377,743.907 155.377,744.481C155.377,744.625 155.435,744.739 155.521,744.826C155.104,746.045 154.617,747.051 154.358,747.553L154.487,747.797ZM152.535,739.226C152.319,739.111 152.032,739.054 151.673,739.054C148.931,739.054 145.729,743.376 145.729,747.065C145.729,749.219 146.849,750.626 148.486,750.626C150.797,750.626 154.071,747.754 154.071,742.529C154.071,741.409 153.841,739.757 152.85,739.757C151.903,739.757 150.252,741.495 150.252,742.514C150.252,742.83 150.453,743.102 150.941,743.217C151.17,742.141 152.176,740.145 152.879,740.145C153.367,740.145 153.525,741.336 153.525,742.127C153.525,745.529 151.601,750.138 148.917,750.138C147.552,750.138 146.993,748.802 146.993,747.266C146.993,743.778 149.907,739.226 152.376,739.226L152.535,739.226Z" style="fill:none;stroke:white;stroke-width:0.28px;"/>
            </g>
        </g>
        <g transform="matrix(1,0,0,1,0.20795,-0.525041)">
            <g transform="matrix(0.996454,0,0,0.993139,53.364,38.1234)">
                <path d="M137.588,734.881L137.588,756.93L113.66,751.504L89.731,756.93L89.731,734.881C105.683,733.317 121.636,733.314 137.588,734.881Z" style="fill:none;stroke:white;stroke-width:1.42px;stroke-linecap:butt;stroke-linejoin:miter;"/>
            </g>
        </g>
        <g transform="matrix(1,0,0,1,0.20795,-0.525041)">
            <g transform="matrix(0.996454,0,0,0.993139,53.364,38.1234)">
                <path d="M123.397,739.84L124.51,739.84L124.51,743.283L128.231,743.283L128.231,739.84L129.343,739.84L129.343,747.537L128.231,747.537L128.231,744.105L124.51,744.105L124.51,747.537L123.397,747.537L123.397,739.84ZM121.792,745.51C121.792,745.835 121.73,746.13 121.608,746.391C121.485,746.654 121.311,746.879 121.083,747.065C120.857,747.253 120.583,747.398 120.26,747.5C119.939,747.602 119.58,747.652 119.184,747.652C118.96,747.652 118.734,747.642 118.506,747.622C118.276,747.6 118.056,747.572 117.842,747.535C117.629,747.496 117.428,747.45 117.241,747.396C117.054,747.341 116.895,747.28 116.762,747.211L117.04,746.398C117.198,746.457 117.358,746.51 117.521,746.563C117.683,746.617 117.851,746.664 118.023,746.702C118.195,746.743 118.375,746.773 118.564,746.795C118.753,746.818 118.957,746.83 119.17,746.83C119.406,746.83 119.615,746.8 119.801,746.743C119.986,746.683 120.144,746.597 120.274,746.488C120.405,746.376 120.505,746.24 120.575,746.084C120.645,745.927 120.679,745.75 120.679,745.548C120.679,745.363 120.637,745.199 120.554,745.056C120.471,744.913 120.353,744.784 120.197,744.668C120.042,744.551 119.854,744.45 119.636,744.357C119.416,744.264 119.172,744.177 118.904,744.098C118.603,744.007 118.319,743.895 118.054,743.758C117.79,743.623 117.56,743.462 117.364,743.277C117.171,743.091 117.017,742.882 116.906,742.651C116.794,742.42 116.738,742.161 116.738,741.877C116.738,741.551 116.8,741.256 116.924,740.992C117.045,740.725 117.22,740.497 117.441,740.311C117.666,740.124 117.936,739.979 118.253,739.877C118.57,739.774 118.925,739.724 119.317,739.724C119.555,739.724 119.783,739.74 120.001,739.769C120.222,739.799 120.424,739.836 120.614,739.882C120.801,739.927 120.973,739.975 121.127,740.03C121.282,740.082 121.416,740.129 121.523,740.174L121.28,741.022C121.125,740.966 120.977,740.911 120.834,740.852C120.691,740.796 120.542,740.747 120.39,740.7C120.237,740.656 120.075,740.619 119.905,740.589C119.737,740.561 119.547,740.547 119.341,740.547C119.095,740.547 118.879,740.578 118.692,740.64C118.504,740.704 118.35,740.791 118.224,740.904C118.101,741.016 118.008,741.152 117.944,741.306C117.882,741.461 117.851,741.63 117.851,741.816C117.851,742.129 117.977,742.404 118.226,742.635C118.475,742.868 118.881,743.07 119.445,743.244C119.833,743.37 120.175,743.504 120.471,743.651C120.766,743.8 121.01,743.964 121.205,744.148C121.4,744.332 121.547,744.535 121.646,744.76C121.744,744.985 121.792,745.236 121.792,745.51ZM111.067,747.537L111.067,739.84L115.603,739.84L115.603,740.663L112.179,740.663L112.179,743.178L115.235,743.178L115.235,744.002L112.179,744.002L112.179,746.713L115.603,746.713L115.603,747.537L111.067,747.537ZM105.059,740.663L105.059,743.41L107.355,743.41C107.437,743.342 107.52,743.269 107.601,743.188C107.682,743.109 107.753,743.016 107.817,742.908C107.881,742.799 107.933,742.674 107.976,742.531C108.017,742.386 108.038,742.218 108.038,742.025C108.038,741.776 107.999,741.565 107.922,741.393C107.845,741.219 107.732,741.081 107.585,740.972C107.439,740.864 107.259,740.787 107.046,740.737C106.834,740.688 106.593,740.663 106.322,740.663L105.059,740.663ZM103.946,739.84L106.434,739.84C106.869,739.84 107.253,739.89 107.589,739.991C107.925,740.089 108.208,740.234 108.441,740.42C108.673,740.607 108.849,740.836 108.969,741.106C109.09,741.374 109.15,741.681 109.15,742.025C109.15,742.236 109.116,742.438 109.048,742.629C108.98,742.823 108.89,743.004 108.777,743.172C108.664,743.342 108.532,743.499 108.381,743.64C108.231,743.781 108.072,743.903 107.906,744.005L109.535,747.537L108.375,747.537L106.873,744.233L105.059,744.233L105.059,747.537L103.946,747.537L103.946,739.84ZM99.392,744.002L99.392,747.537L98.279,747.537L98.279,739.84L102.573,739.84L102.573,740.663L99.392,740.663L99.392,743.178L102.194,743.178L102.194,744.002L99.392,744.002Z" style="fill:white;"/>
            </g>
        </g>
        <g transform="matrix(1,0,0,1,0.20795,-0.525041)">
            <g transform="matrix(0.996454,0,0,0.993139,53.364,38.1234)">
                <path d="M180.498,680.154C179.548,686.254 178.6,692.356 177.651,698.457C182.067,697.961 184.885,695.152 185.473,691.985C186.39,687.046 183.198,683.83 180.498,680.154Z" style="fill:white;"/>
            </g>
        </g>
        <g transform="matrix(1,0,0,1,0.20795,-0.525041)">
            <g transform="matrix(0.996454,0,0,0.993139,53.364,38.1234)">
                <path d="M180.498,680.154C179.548,686.254 178.6,692.356 177.651,698.457C182.067,697.961 184.885,695.152 185.473,691.985C186.39,687.046 183.198,683.83 180.498,680.154Z" style="fill:none;stroke:white;stroke-width:0.95px;"/>
            </g>
        </g>
        <g transform="matrix(1,0,0,1,0.20795,-0.525041)">
            <g transform="matrix(0.996454,0,0,0.993139,53.364,38.1234)">
                <path d="M180.498,680.154C179.549,686.254 178.6,692.356 177.651,698.457C182.067,697.961 184.885,695.152 185.473,691.985C186.39,687.046 183.198,683.83 180.498,680.154Z" style="fill:rgb(70,70,70);"/>
            </g>
        </g>
        <g transform="matrix(1,0,0,1,0.20795,-0.525041)">
            <g transform="matrix(0.996454,0,0,0.993139,53.364,38.1234)">
                <path d="M178.238,698.376C182.316,697.707 184.912,695.009 185.473,691.985C186.18,688.174 184.442,685.388 182.37,682.626C179.892,678.708 176.172,675.717 177.125,669.163C176.891,669.016 176.654,668.895 176.415,668.798L176.397,668.792L176.385,668.787L176.355,668.775L176.331,668.765L176.325,668.763L176.294,668.753L176.273,668.745L176.256,668.739L176.235,668.731L176.205,668.72L176.199,668.718L176.174,668.711L176.144,668.701L176.114,668.691L176.083,668.681C176.043,668.67 176.003,668.658 175.962,668.647L175.932,668.638L175.902,668.63L175.872,668.623L175.811,668.609L175.78,668.602L175.75,668.595L175.719,668.589C175.678,668.581 175.637,668.574 175.596,668.566L175.566,668.561L175.564,668.561L175.536,668.557L175.504,668.552L175.491,668.55L175.474,668.548L175.443,668.545L175.437,668.544L175.413,668.541L175.383,668.538L175.381,668.537L175.35,668.534L175.329,668.532L175.32,668.531L175.289,668.528L175.275,668.527L175.258,668.526L175.227,668.524L175.22,668.523L175.217,668.523L175.169,668.52L175.167,668.52L175.165,668.52L175.164,668.52L175.121,668.518L175.112,668.518L175.103,668.518L175.072,668.517L175.057,668.516L175.052,668.516L175.011,668.516L175.009,668.516L175.002,668.516L174.978,668.516L174.948,668.516L174.947,668.516L174.917,668.516L174.893,668.517L174.885,668.517L174.853,668.518L174.838,668.519L174.822,668.519L174.792,668.521L174.784,668.521L174.759,668.522L174.728,668.525L174.715,668.525L174.678,668.528L174.673,668.529L174.666,668.529L174.634,668.532L174.618,668.534L174.603,668.536L174.571,668.539L174.546,668.542L174.54,668.543L174.508,668.545L174.507,668.545L174.476,668.549L174.47,668.55C174.206,668.586 173.938,668.649 173.667,668.739C173.005,675.33 168.672,677.331 165.32,680.534C162.642,682.712 160.282,684.995 160.046,688.863C159.856,691.991 161.795,695.298 165.734,696.903C166.686,697.379 167.753,697.715 168.897,697.917C169.335,698.634 170.383,699.221 171.66,699.378C172.91,699.532 174.045,699.232 174.655,698.667C175.91,698.763 177.121,698.669 178.238,698.376Z" style="fill:white;"/>
            </g>
        </g>
        <g transform="matrix(1,0,0,1,0.20795,-0.525041)">
            <g transform="matrix(0.996454,0,0,0.993139,53.364,38.1234)">
                <path d="M178.238,698.376C182.316,697.707 184.912,695.009 185.473,691.985C186.18,688.174 184.442,685.388 182.37,682.626C179.892,678.708 176.172,675.717 177.125,669.163C176.891,669.016 176.654,668.895 176.415,668.798L176.397,668.792L176.385,668.787L176.355,668.775L176.331,668.765L176.325,668.763L176.294,668.753L176.273,668.745L176.256,668.739L176.235,668.731L176.205,668.72L176.199,668.718L176.174,668.711L176.144,668.701L176.114,668.691L176.083,668.681C176.043,668.67 176.003,668.658 175.962,668.647L175.932,668.638L175.902,668.63L175.872,668.623L175.811,668.609L175.78,668.602L175.75,668.595L175.719,668.589C175.678,668.581 175.637,668.574 175.596,668.566L175.566,668.561L175.564,668.561L175.536,668.557L175.504,668.552L175.491,668.55L175.474,668.548L175.443,668.545L175.437,668.544L175.413,668.541L175.383,668.538L175.381,668.537L175.35,668.534L175.329,668.532L175.32,668.531L175.289,668.528L175.275,668.527L175.258,668.526L175.227,668.524L175.22,668.523L175.217,668.523L175.169,668.52L175.167,668.52L175.165,668.52L175.164,668.52L175.121,668.518L175.112,668.518L175.103,668.518L175.072,668.517L175.057,668.516L175.052,668.516L175.011,668.516L175.009,668.516L175.002,668.516L174.978,668.516L174.948,668.516L174.947,668.516L174.917,668.516L174.893,668.517L174.885,668.517L174.853,668.518L174.838,668.519L174.822,668.519L174.792,668.521L174.784,668.521L174.759,668.522L174.728,668.525L174.715,668.525L174.678,668.528L174.673,668.529L174.666,668.529L174.634,668.532L174.618,668.534L174.603,668.536L174.571,668.539L174.546,668.542L174.54,668.543L174.508,668.545L174.507,668.545L174.476,668.549L174.47,668.55C174.206,668.586 173.938,668.649 173.667,668.739C173.005,675.33 168.672,677.331 165.32,680.534C162.642,682.712 160.282,684.995 160.046,688.863C159.856,691.991 161.795,695.298 165.734,696.903C166.686,697.379 167.753,697.715 168.897,697.917C169.335,698.634 170.383,699.221 171.66,699.378C172.91,699.532 174.045,699.232 174.655,698.667C175.91,698.763 177.121,698.669 178.238,698.376Z" style="fill:none;stroke:white;stroke-width:2.85px;"/>
            </g>
        </g>
        <g transform="matrix(1,0,0,1,0.20795,-0.525041)">
            <g transform="matrix(0.996454,0,0,0.993139,53.364,38.1234)">
                <path d="M178.238,698.376C182.316,697.707 184.912,695.009 185.473,691.985C186.181,688.174 184.442,685.388 182.37,682.626C179.892,678.708 176.172,675.717 177.125,669.163C176.891,669.016 176.654,668.895 176.415,668.798L176.397,668.792L176.385,668.787L176.355,668.775L176.331,668.765L176.325,668.763L176.295,668.753L176.273,668.745L176.257,668.739L176.235,668.731L176.205,668.72L176.199,668.718L176.175,668.711L176.145,668.701L176.114,668.691L176.084,668.681C176.043,668.67 176.003,668.658 175.963,668.647L175.933,668.638L175.902,668.63L175.872,668.623L175.811,668.609L175.78,668.602L175.75,668.595L175.719,668.589C175.679,668.581 175.638,668.574 175.597,668.566L175.566,668.561L175.564,668.561L175.536,668.557L175.505,668.552L175.491,668.55L175.474,668.548L175.443,668.545L175.438,668.544L175.413,668.541L175.383,668.538L175.382,668.537L175.351,668.534L175.329,668.532L175.32,668.531L175.289,668.528L175.275,668.527L175.258,668.526L175.227,668.524L175.221,668.523L175.218,668.523L175.17,668.52L175.167,668.52L175.165,668.52L175.164,668.52L175.121,668.518L175.112,668.518L175.103,668.518L175.072,668.517L175.058,668.516L175.052,668.516L175.011,668.516L175.01,668.516L175.003,668.516L174.979,668.516L174.948,668.516L174.947,668.516L174.917,668.516L174.893,668.517L174.885,668.517L174.854,668.518L174.838,668.519L174.822,668.519L174.792,668.521L174.784,668.521L174.76,668.522L174.729,668.525L174.716,668.525L174.678,668.528L174.673,668.529L174.666,668.529L174.634,668.532L174.618,668.534L174.603,668.536L174.571,668.539L174.547,668.542L174.54,668.543L174.508,668.545L174.507,668.545L174.477,668.549L174.47,668.55C174.206,668.586 173.938,668.649 173.668,668.739C173.006,675.33 168.672,677.331 165.32,680.534C162.642,682.712 160.282,684.995 160.046,688.863C159.856,691.991 161.795,695.298 165.734,696.903C166.686,697.379 167.754,697.715 168.897,697.917C169.336,698.634 170.383,699.221 171.66,699.378C172.91,699.532 174.045,699.232 174.655,698.667C175.91,698.763 177.121,698.669 178.238,698.376Z" style="fill:rgb(70,70,70);"/>
            </g>
        </g>
        <g transform="matrix(1,0,0,1,0.20795,-0.525041)">
            <g transform="matrix(0.996454,0,0,0.993139,53.364,38.1234)">
                <path d="M167.736,678.586C167.181,684.736 166.625,690.885 166.07,697.035C161.906,695.485 159.85,692.079 160.046,688.863C160.351,683.849 164.226,681.501 167.736,678.586Z" style="fill:white;"/>
            </g>
        </g>
        <g transform="matrix(1,0,0,1,0.20795,-0.525041)">
            <g transform="matrix(0.996454,0,0,0.993139,53.364,38.1234)">
                <path d="M167.736,678.586C167.181,684.736 166.625,690.885 166.07,697.035C161.906,695.485 159.85,692.079 160.046,688.863C160.351,683.849 164.226,681.501 167.736,678.586Z" style="fill:none;stroke:white;stroke-width:0.95px;"/>
            </g>
        </g>
        <g transform="matrix(1,0,0,1,0.20795,-0.525041)">
            <g transform="matrix(0.996454,0,0,0.993139,53.364,38.1234)">
                <path d="M167.736,678.586C167.181,684.736 166.625,690.885 166.07,697.035C161.906,695.485 159.851,692.079 160.046,688.863C160.352,683.849 164.227,681.501 167.736,678.586Z" style="fill:rgb(70,70,70);"/>
            </g>
        </g>
        <g transform="matrix(1,0,0,1,0.20795,-0.525041)">
            <g transform="matrix(0.996454,0,0,0.993139,53.364,38.1234)">
                <path d="M171.632,699.609C169.857,699.391 168.524,698.341 168.657,697.265C168.789,696.188 170.335,695.492 172.11,695.71C173.887,695.928 175.218,696.978 175.086,698.054C174.954,699.131 173.407,699.827 171.632,699.609Z" style="fill:white;"/>
            </g>
        </g>
        <g transform="matrix(1,0,0,1,0.20795,-0.525041)">
            <g transform="matrix(0.996454,0,0,0.993139,53.364,38.1234)">
                <path d="M171.817,698.142C177.663,699.838 183.373,697.745 184.29,691.151C185.708,680.964 175.625,679.483 177.125,669.163C176.027,668.478 174.875,668.337 173.667,668.739C172.625,679.114 162.485,678.113 161.396,688.339C160.674,695.117 165.723,698.222 171.817,698.142Z" style="fill:white;"/>
            </g>
        </g>
        <g transform="matrix(1,0,0,1,0.20795,-0.525041)">
            <g transform="matrix(0.996454,0,0,0.993139,53.364,38.1234)">
                <path d="M171.817,698.142C177.663,699.838 183.373,697.745 184.29,691.151C185.708,680.964 175.625,679.483 177.125,669.163C176.027,668.478 174.875,668.337 173.667,668.739C172.625,679.114 162.485,678.113 161.396,688.339C160.674,695.117 165.723,698.222 171.817,698.142Z" style="fill:none;stroke:white;stroke-width:0.95px;"/>
            </g>
        </g>
        <g transform="matrix(1,0,0,1,0.20795,-0.525041)">
            <g transform="matrix(0.996454,0,0,0.993139,53.364,38.1234)">
                <path d="M171.817,698.142C177.663,699.838 183.373,697.745 184.29,691.151C185.708,680.964 175.625,679.483 177.125,669.163C176.027,668.478 174.875,668.337 173.667,668.739C172.626,679.114 162.485,678.113 161.396,688.339C160.674,695.117 165.724,698.222 171.817,698.142Z" style="fill:rgb(70,70,70);"/>
            </g>
        </g>
        <g transform="matrix(1,0,0,1,0.20795,-0.525041)">
            <g transform="matrix(0.996454,0,0,0.993139,53.364,38.1234)">
                <path d="M167.734,686.05C169.269,679.936 172.999,675.378 173.667,668.739C174.865,668.333 176.134,668.498 177.125,669.163C176.169,675.765 178.683,681.093 178.694,687.396C179.068,703.535 163.467,701.62 167.734,686.05Z" style="fill:white;"/>
            </g>
        </g>
        <g transform="matrix(1,0,0,1,0.20795,-0.525041)">
            <g transform="matrix(0.996454,0,0,0.993139,53.364,38.1234)">
                <path d="M167.734,686.05C169.269,679.936 172.999,675.378 173.667,668.739C174.865,668.333 176.134,668.498 177.125,669.163C176.169,675.765 178.683,681.093 178.694,687.396C179.068,703.535 163.467,701.62 167.734,686.05Z" style="fill:none;stroke:white;stroke-width:0.95px;"/>
            </g>
        </g>
        <g transform="matrix(1,0,0,1,0.20795,-0.525041)">
            <g transform="matrix(0.996454,0,0,0.993139,53.364,38.1234)">
                <path d="M167.734,686.05C169.27,679.936 172.999,675.378 173.667,668.739C174.865,668.333 176.134,668.498 177.125,669.163C176.169,675.765 178.684,681.093 178.694,687.396C179.068,703.535 163.467,701.62 167.734,686.05Z" style="fill:rgb(70,70,70);"/>
            </g>
        </g>
        <g transform="matrix(1,0,0,1,0.20795,-0.525041)">
            <g transform="matrix(0.996454,0,0,0.993139,53.364,38.1234)">
                <path d="M166.677,680.834C164.323,682.954 162.9,684.979 162.53,688.458C162.292,690.691 162.756,692.452 163.711,693.781C162.694,689.436 164.047,684.242 166.677,680.834Z" style="fill:white;"/>
            </g>
        </g>
        <g transform="matrix(1,0,0,1,0.20795,-0.525041)">
            <g transform="matrix(0.996454,0,0,0.993139,53.364,38.1234)">
                <path d="M179.596,683.828C180.927,686.212 181.454,692.764 177.859,696.258C179.462,693.674 179.903,690.333 179.834,687.367C179.833,686.173 179.74,684.998 179.596,683.828Z" style="fill:white;"/>
            </g>
        </g>
        <g transform="matrix(1,0,0,1,0.20795,-0.525041)">
            <g transform="matrix(0.996454,0,0,0.993139,53.364,38.1234)">
                <path d="M172.62,676.763C172.321,677.479 172.005,678.198 171.678,678.926C170.59,681.349 169.49,683.737 168.84,686.325L168.834,686.348C168.131,688.913 167.729,692.129 168.756,694.668C168.917,695.063 169.12,695.451 169.364,695.805C168.349,689.881 170.63,682.344 172.62,676.763Z" style="fill:white;"/>
            </g>
        </g>
        <g transform="matrix(1,0,0,1,0.20795,-0.525041)">
            <g transform="matrix(0.996454,0,0,0.993139,53.364,38.1234)">
                <path d="M53.03,699.629C47.383,699.29 42.675,695.33 42.017,689.967C41.607,686.635 42.847,683.451 45.138,681.11C46.81,679.401 48.701,677.888 49.764,675.764C50.794,673.705 51.048,671.417 50.439,668.875C50.642,669.004 50.919,669.14 51.064,669.323C51.13,669.139 51.177,668.808 51.134,668.622C51.387,668.843 51.577,669.055 51.736,669.321C51.824,669.023 51.967,668.775 52.156,668.515C52.198,668.724 52.321,669.046 52.433,669.233C52.553,669.018 52.769,668.79 52.888,668.575C52.912,671.188 53.712,673.347 55.209,675.095C56.774,676.923 59.017,677.929 61.06,679.207C63.814,680.926 65.757,683.699 66.162,687.003C66.82,692.365 63.21,697.346 57.813,699.042C56.301,699.513 54.709,699.717 53.03,699.629Z" style="fill:white;"/>
            </g>
        </g>
        <g transform="matrix(1,0,0,1,0.20795,-0.525041)">
            <g transform="matrix(0.996454,0,0,0.993139,53.364,38.1234)">
                <path d="M53.03,699.629C47.383,699.29 42.675,695.33 42.017,689.967C41.607,686.635 42.847,683.451 45.138,681.11C46.81,679.401 48.701,677.888 49.764,675.764C50.794,673.705 51.048,671.417 50.439,668.875C50.642,669.004 50.919,669.14 51.064,669.323C51.13,669.139 51.177,668.808 51.134,668.622C51.387,668.843 51.577,669.055 51.736,669.321C51.824,669.023 51.967,668.775 52.156,668.515C52.198,668.724 52.321,669.046 52.433,669.233C52.553,669.018 52.769,668.79 52.888,668.575C52.912,671.188 53.712,673.347 55.209,675.095C56.774,676.923 59.017,677.929 61.06,679.207C63.814,680.926 65.757,683.699 66.162,687.003C66.82,692.365 63.21,697.346 57.813,699.042C56.301,699.513 54.709,699.717 53.03,699.629Z" style="fill:none;stroke:white;stroke-width:2.7px;"/>
            </g>
        </g>
        <g transform="matrix(1,0,0,1,0.20795,-0.525041)">
            <g transform="matrix(0.996454,0,0,0.993139,53.364,38.1234)">
                <path d="M53.031,699.629C47.383,699.29 42.675,695.33 42.017,689.967C41.607,686.635 42.847,683.451 45.138,681.11C46.81,679.401 48.701,677.888 49.764,675.764C50.794,673.705 51.048,671.417 50.439,668.875C50.642,669.004 50.919,669.14 51.064,669.323C51.13,669.139 51.177,668.808 51.134,668.622C51.387,668.843 51.578,669.055 51.737,669.321C51.824,669.023 51.967,668.775 52.156,668.515C52.199,668.724 52.321,669.046 52.433,669.233C52.553,669.018 52.769,668.79 52.888,668.575C52.912,671.188 53.712,673.347 55.21,675.095C56.775,676.923 59.017,677.929 61.06,679.207C63.814,680.926 65.757,683.699 66.163,687.003C66.821,692.365 63.21,697.346 57.813,699.042C56.301,699.513 54.709,699.717 53.031,699.629Z" style="fill:rgb(70,70,70);"/>
            </g>
        </g>
        <g transform="matrix(1,0,0,1,0.20795,-0.525041)">
            <g transform="matrix(0.996454,0,0,0.993139,53.364,38.1234)">
                <path d="M55.38,699C55.477,698.987 55.065,694.253 54.355,688.472C53.646,682.691 52.899,677.998 52.803,678.009C52.708,678.021 53.119,682.755 53.829,688.537C54.539,694.317 55.285,699.01 55.38,699Z" style="fill:white;"/>
            </g>
        </g>
        <g transform="matrix(1,0,0,1,0.20795,-0.525041)">
            <g transform="matrix(0.996454,0,0,0.993139,53.364,38.1234)">
                <path d="M54.156,699.092C54.277,699.062 51.273,694.836 50.595,688.934C49.825,683.044 51.718,678.215 51.593,678.215C51.542,678.151 49.295,683.02 50.073,688.998C50.765,694.986 54.122,699.168 54.156,699.092Z" style="fill:white;"/>
            </g>
        </g>
        <g transform="matrix(1,0,0,1,0.20795,-0.525041)">
            <g transform="matrix(0.996454,0,0,0.993139,53.364,38.1234)">
                <path d="M52.447,699.059C52.58,699.062 47.734,695.52 47.063,689.368C46.226,683.235 50.071,678.626 49.942,678.662C49.935,678.503 45.696,683.147 46.541,689.431C47.241,695.734 52.478,699.213 52.447,699.059Z" style="fill:white;"/>
            </g>
        </g>
        <g transform="matrix(1,0,0,1,0.20795,-0.525041)">
            <g transform="matrix(0.996454,0,0,0.993139,53.364,38.1234)">
                <path d="M49.351,698.266C49.478,698.285 44.471,695.42 43.865,689.76C43.083,684.122 47.249,680.131 47.13,680.179C47.135,679.989 42.553,684.007 43.343,689.824C43.983,695.659 49.402,698.451 49.351,698.266Z" style="fill:white;"/>
            </g>
        </g>
        <g transform="matrix(1,0,0,1,0.20795,-0.525041)">
            <g transform="matrix(0.996454,0,0,0.993139,53.364,38.1234)">
                <path d="M56.591,698.794C56.466,698.794 58.358,693.965 57.589,688.076C56.911,682.173 53.907,677.947 54.028,677.917C54.062,677.841 57.419,682.022 58.111,688.011C58.888,693.989 56.642,698.858 56.591,698.794Z" style="fill:white;"/>
            </g>
        </g>
        <g transform="matrix(1,0,0,1,0.20795,-0.525041)">
            <g transform="matrix(0.996454,0,0,0.993139,53.364,38.1234)">
                <path d="M58.242,698.347C58.113,698.382 61.958,693.774 61.122,687.641C60.449,681.489 55.604,677.947 55.737,677.95C55.707,677.795 60.943,681.275 61.644,687.578C62.488,693.862 58.25,698.505 58.242,698.347Z" style="fill:white;"/>
            </g>
        </g>
        <g transform="matrix(1,0,0,1,0.20795,-0.525041)">
            <g transform="matrix(0.996454,0,0,0.993139,53.364,38.1234)">
                <path d="M61.054,696.83C60.935,696.878 65.101,692.887 64.319,687.249C63.713,681.588 58.706,678.724 58.833,678.743C58.782,678.558 64.201,681.35 64.841,687.185C65.631,693.002 61.049,697.02 61.054,696.83Z" style="fill:white;"/>
            </g>
        </g>
        <g transform="matrix(1,0,0,1,0.20795,-0.525041)">
            <g transform="matrix(0.996454,0,0,0.993139,53.364,38.1234)">
                <path d="M155.003,650.026C153.1,656.34 146.656,658.519 141.837,653.909C145.509,651.74 149.559,646.394 154.842,649.339C155.239,649.084 155.583,648.758 155.886,648.398C155.887,648.295 155.887,648.194 155.887,648.092C156.332,647.834 156.776,647.845 157.222,648.094C157.222,650.907 156.92,653.724 156.233,656.455C155.802,656.346 155.371,656.239 154.94,656.131C155.497,653.917 155.787,651.666 155.865,649.392C155.602,649.634 155.314,649.85 155.003,650.026Z" style="fill:white;"/>
            </g>
        </g>
        <g transform="matrix(1,0,0,1,0.20795,-0.525041)">
            <g transform="matrix(0.996454,0,0,0.993139,53.364,38.1234)">
                <path d="M147.798,699.359C140.101,698.002 133.894,690.002 135.351,681.739C136.637,674.446 146.947,666.952 149.509,659.455C151.421,653.86 159.857,655.272 159.871,661.169C159.888,668.387 166.803,679.786 165.521,687.059C164.064,695.321 155.496,700.716 147.798,699.359Z" style="fill:white;"/>
            </g>
        </g>
        <g transform="matrix(1,0,0,1,0.20795,-0.525041)">
            <g transform="matrix(0.996454,0,0,0.993139,53.364,38.1234)">
                <path d="M147.798,699.359C140.101,698.002 133.894,690.002 135.351,681.739C136.637,674.446 146.947,666.952 149.509,659.455C151.421,653.86 159.857,655.272 159.871,661.169C159.888,668.387 166.803,679.786 165.521,687.059C164.064,695.321 155.496,700.716 147.798,699.359Z" style="fill:none;stroke:white;stroke-width:3.87px;"/>
            </g>
        </g>
        <g transform="matrix(1,0,0,1,0.20795,-0.525041)">
            <g transform="matrix(0.996454,0,0,0.993139,53.364,38.1234)">
                <path d="M147.798,699.359C140.101,698.002 133.894,690.002 135.351,681.739C136.637,674.446 146.947,666.952 149.509,659.455C151.421,653.86 159.857,655.272 159.871,661.169C159.888,668.387 166.803,679.786 165.521,687.059C164.064,695.321 155.496,700.716 147.798,699.359Z" style="fill:rgb(70,70,70);"/>
            </g>
        </g>
        <g transform="matrix(1,0,0,1,0.20795,-0.525041)">
            <g transform="matrix(0.996454,0,0,0.993139,53.364,38.1234)">
                <path d="M150.086,661.613C148.56,664.831 145.997,667.894 143.82,670.536C141.344,673.542 137.374,678.07 136.686,681.974C136.031,685.686 137.12,689.458 139.303,692.43C137.873,689.551 137.267,686.182 137.841,682.837C138.576,678.558 142.607,673.543 145.124,670.215C146.997,667.739 148.917,664.752 150.086,661.613Z" style="fill:white;"/>
            </g>
        </g>
        <g transform="matrix(1,0,0,1,0.20795,-0.525041)">
            <g transform="matrix(0.996454,0,0,0.993139,53.364,38.1234)">
                <path d="M72.191,648.797C72.723,649.45 73.376,649.959 74.207,650.213C79.066,647.363 86.672,648.983 87.433,656.37C82.984,654.219 76.625,658.323 73.973,650.696C73.417,650.511 72.93,650.219 72.501,649.851C73.047,651.805 73.441,653.8 73.65,655.82C73.167,655.871 72.683,655.92 72.2,655.971C71.895,653.015 71.183,650.147 70.167,647.356C70.526,646.924 70.988,646.77 71.539,646.859C71.772,647.501 71.989,648.146 72.191,648.797Z" style="fill:white;"/>
            </g>
        </g>
        <g transform="matrix(1,0,0,1,0.20795,-0.525041)">
            <g transform="matrix(0.996454,0,0,0.993139,53.364,38.1234)">
                <path d="M80.374,699.345C71.955,700.83 63.84,694.709 62.247,685.673C60.736,677.107 64.355,667.052 67.633,659.244C68.554,657.049 70.486,655.699 72.59,655.323C74.715,654.944 77.016,655.559 78.63,657.305C84.38,663.527 91.219,671.725 92.731,680.298C94.323,689.334 88.791,697.861 80.374,699.345Z" style="fill:white;"/>
            </g>
        </g>
        <g transform="matrix(1,0,0,1,0.20795,-0.525041)">
            <g transform="matrix(0.996454,0,0,0.993139,53.364,38.1234)">
                <path d="M80.374,699.345C71.955,700.83 63.84,694.709 62.247,685.673C60.736,677.107 64.355,667.052 67.633,659.244C68.554,657.049 70.486,655.699 72.59,655.323C74.715,654.944 77.016,655.559 78.63,657.305C84.38,663.527 91.219,671.725 92.731,680.298C94.323,689.334 88.791,697.861 80.374,699.345Z" style="fill:none;stroke:white;stroke-width:4.19px;"/>
            </g>
        </g>
        <g transform="matrix(1,0,0,1,0.20795,-0.525041)">
            <g transform="matrix(0.996454,0,0,0.993139,53.364,38.1234)">
                <path d="M80.374,699.345C71.955,700.83 63.84,694.709 62.247,685.673C60.736,677.107 64.355,667.052 67.633,659.244C68.554,657.049 70.486,655.699 72.59,655.323C74.715,654.944 77.016,655.559 78.63,657.305C84.38,663.527 91.219,671.725 92.731,680.298C94.323,689.334 88.791,697.861 80.374,699.345Z" style="fill:rgb(70,70,70);"/>
            </g>
        </g>
        <g transform="matrix(1,0,0,1,0.20795,-0.525041)">
            <g transform="matrix(0.996454,0,0,0.993139,53.364,38.1234)">
                <path d="M78.929,691.156C74.867,691.872 71.023,689.33 70.344,685.478C69.665,681.626 72.027,675.765 76.089,675.049C80.151,674.333 84.376,679.032 85.055,682.884C85.734,686.736 82.991,690.439 78.929,691.156Z" style="fill:white;"/>
            </g>
        </g>
        <g transform="matrix(1,0,0,1,0.20795,-0.525041)">
            <g transform="matrix(0.996454,0,0,0.993139,53.364,38.1234)">
                <path d="M67.117,664.661C64.643,671.269 62.598,678.859 63.752,685.408C64.234,688.139 65.393,690.708 67.168,692.842C69.13,695.201 71.782,696.945 74.77,697.669C61.183,691.862 64.035,674.661 67.117,664.661Z" style="fill:white;"/>
            </g>
        </g>
        <g transform="matrix(1,0,0,1,0.20795,-0.525041)">
            <g transform="matrix(0.996454,0,0,0.993139,53.364,38.1234)">
                <path d="M78.664,689.65C78.944,689.601 79.218,689.532 79.485,689.447C76.411,689.835 73.428,688.247 72.707,685.138C72.14,682.697 73.011,678.96 75.008,677.102C72.651,678.628 71.401,682.672 71.85,685.212C72.407,688.377 75.595,690.191 78.664,689.65Z" style="fill:rgb(70,70,70);"/>
            </g>
        </g>
        <g transform="matrix(1,0,0,1,0.20795,-0.525041)">
            <g transform="matrix(0.996454,0,0,0.993139,53.364,38.1234)">
                <path d="M104.763,699.336C92.712,699.336 87.792,672.285 91.073,659.375C92.883,652.251 100.018,649.666 105.578,651.214C107.694,649.771 110.493,648.774 113.787,648.774C117.081,648.774 119.88,649.769 121.996,651.214C127.555,649.666 134.689,652.251 136.5,659.375C139.78,672.285 134.861,699.336 122.809,699.336C121.645,699.336 120.602,699.054 119.667,698.544C117.997,700.062 116.045,700.945 113.787,700.945C111.528,700.945 109.577,700.062 107.907,698.544C106.971,699.054 105.928,699.336 104.763,699.336Z" style="fill:white;"/>
            </g>
        </g>
        <g transform="matrix(1,0,0,1,0.20795,-0.525041)">
            <g transform="matrix(0.996454,0,0,0.993139,53.364,38.1234)">
                <path d="M104.763,699.336C92.712,699.336 87.792,672.285 91.073,659.375C92.883,652.251 100.018,649.666 105.578,651.214C107.694,649.771 110.493,648.774 113.787,648.774C117.081,648.774 119.88,649.769 121.996,651.214C127.555,649.666 134.689,652.251 136.5,659.375C139.78,672.285 134.861,699.336 122.809,699.336C121.645,699.336 120.602,699.054 119.667,698.544C117.997,700.062 116.045,700.945 113.787,700.945C111.528,700.945 109.577,700.062 107.907,698.544C106.971,699.054 105.928,699.336 104.763,699.336Z" style="fill:none;stroke:white;stroke-width:5.17px;"/>
            </g>
        </g>
        <g transform="matrix(1,0,0,1,0.20795,-0.525041)">
            <g transform="matrix(0.996454,0,0,0.993139,53.364,38.1234)">
                <path d="M104.763,699.336C92.712,699.336 87.793,672.285 91.073,659.375C92.883,652.251 100.019,649.666 105.578,651.214C107.694,649.771 110.493,648.774 113.787,648.774C117.081,648.774 119.88,649.769 121.996,651.214C127.555,649.666 134.689,652.251 136.5,659.375C139.78,672.285 134.861,699.336 122.81,699.336C121.646,699.336 120.603,699.054 119.667,698.544C117.997,700.062 116.045,700.945 113.787,700.945C111.528,700.945 109.577,700.062 107.907,698.544C106.971,699.054 105.928,699.336 104.763,699.336Z" style="fill:rgb(70,70,70);"/>
            </g>
        </g>
        <g transform="matrix(1,0,0,1,0.20795,-0.525041)">
            <g transform="matrix(0.996454,0,0,0.993139,53.364,38.1234)">
                <path d="M119.092,647.415C115.517,647.415 111.941,647.415 108.366,647.415C112.058,645.118 111.881,643.394 112.14,639.547C112.229,635.669 114.478,632.693 118.243,632.851C119.289,632.895 120.405,633.094 120.607,634.349C120.725,635.081 120.364,635.861 119.715,636.152C118.976,636.484 118.401,636.419 117.64,636.381C116.153,636.308 115.627,638.057 115.502,639.48C115.242,642.439 116.13,646.086 119.092,647.415Z" style="fill:white;"/>
            </g>
        </g>
        <g transform="matrix(1,0,0,1,0.20795,-0.525041)">
            <g transform="matrix(0.996454,0,0,0.993139,53.364,38.1234)">
                <path d="M122.809,699.336C134.861,699.336 139.78,672.285 136.5,659.374C133.907,649.17 120.387,648.277 116.224,655.51C111.749,663.288 109.523,699.336 122.809,699.336Z" style="fill:white;"/>
            </g>
        </g>
        <g transform="matrix(1,0,0,1,0.20795,-0.525041)">
            <g transform="matrix(0.996454,0,0,0.993139,53.364,38.1234)">
                <path d="M122.809,699.336C134.861,699.336 139.78,672.285 136.5,659.374C133.907,649.17 120.387,648.277 116.224,655.51C111.749,663.288 109.523,699.336 122.809,699.336Z" style="fill:none;stroke:white;stroke-width:1.74px;"/>
            </g>
        </g>
        <g transform="matrix(1,0,0,1,0.20795,-0.525041)">
            <g transform="matrix(0.996454,0,0,0.993139,53.364,38.1234)">
                <path d="M122.81,699.336C134.861,699.336 139.78,672.285 136.5,659.374C133.907,649.17 120.387,648.277 116.225,655.51C111.749,663.288 109.523,699.336 122.81,699.336Z" style="fill:rgb(70,70,70);"/>
            </g>
        </g>
        <g transform="matrix(1,0,0,1,0.20795,-0.525041)">
            <g transform="matrix(0.996454,0,0,0.993139,53.364,38.1234)">
                <path d="M104.763,699.336C92.712,699.336 87.793,672.285 91.073,659.374C93.666,649.17 107.186,648.277 111.349,655.51C115.825,663.288 118.05,699.336 104.763,699.336Z" style="fill:white;"/>
            </g>
        </g>
        <g transform="matrix(1,0,0,1,0.20795,-0.525041)">
            <g transform="matrix(0.996454,0,0,0.993139,53.364,38.1234)">
                <path d="M104.763,699.336C92.712,699.336 87.793,672.285 91.073,659.374C93.666,649.17 107.186,648.277 111.349,655.51C115.825,663.288 118.05,699.336 104.763,699.336Z" style="fill:none;stroke:white;stroke-width:1.74px;"/>
            </g>
        </g>
        <g transform="matrix(1,0,0,1,0.20795,-0.525041)">
            <g transform="matrix(0.996454,0,0,0.993139,53.364,38.1234)">
                <path d="M104.764,699.336C92.712,699.336 87.793,672.285 91.073,659.374C93.666,649.17 107.187,648.277 111.349,655.51C115.825,663.288 118.05,699.336 104.764,699.336Z" style="fill:rgb(70,70,70);"/>
            </g>
        </g>
        <g transform="matrix(1,0,0,1,0.20795,-0.525041)">
            <g transform="matrix(0.996454,0,0,0.993139,53.364,38.1234)">
                <path d="M113.787,700.945C98.951,700.945 97.317,663.033 102.194,654.737C104,651.664 108.176,648.774 113.787,648.774C119.403,648.774 123.58,651.668 125.384,654.746C130.253,663.05 128.621,700.945 113.787,700.945Z" style="fill:white;"/>
            </g>
        </g>
        <g transform="matrix(1,0,0,1,0.20795,-0.525041)">
            <g transform="matrix(0.996454,0,0,0.993139,53.364,38.1234)">
                <path d="M113.787,700.945C98.951,700.945 97.317,663.033 102.194,654.737C104,651.664 108.176,648.774 113.787,648.774C119.403,648.774 123.58,651.668 125.384,654.746C130.253,663.05 128.621,700.945 113.787,700.945Z" style="fill:none;stroke:white;stroke-width:1.72px;"/>
            </g>
        </g>
        <g transform="matrix(1,0,0,1,0.20795,-0.525041)">
            <g transform="matrix(0.996454,0,0,0.993139,53.364,38.1234)">
                <path d="M113.787,700.945C98.951,700.945 97.318,663.033 102.194,654.737C104,651.664 108.176,648.774 113.787,648.774C119.403,648.774 123.58,651.668 125.385,654.746C130.254,663.05 128.621,700.945 113.787,700.945Z" style="fill:rgb(70,70,70);"/>
            </g>
        </g>
        <g transform="matrix(1,0,0,1,0.20795,-0.525041)">
            <g transform="matrix(0.996454,0,0,0.993139,53.364,38.1234)">
                <path d="M105.058,654.339C104.649,654.779 104.285,655.261 103.977,655.785C102.742,657.887 102.224,661.972 102.018,664.372C101.637,668.8 101.761,673.426 102.265,677.84C102.759,682.168 104.189,690.152 107.497,694.947C103.574,684.305 102.198,665.749 105.058,654.339Z" style="fill:white;"/>
            </g>
        </g>
    </g>
</svg>
