<?xml version="1.0" encoding="UTF-8" standalone="no"?>
<!DOCTYPE svg PUBLIC "-//W3C//DTD SVG 1.1//EN" "http://www.w3.org/Graphics/SVG/1.1/DTD/svg11.dtd">
<svg width="100%" height="100%" viewBox="0 0 290 180" version="1.1" xmlns="http://www.w3.org/2000/svg" xmlns:xlink="http://www.w3.org/1999/xlink" xml:space="preserve" xmlns:serif="http://www.serif.com/" style="fill-rule:evenodd;clip-rule:evenodd;stroke-linejoin:round;stroke-miterlimit:1.41421;">
    <g transform="matrix(1,0,0,1,-25.714,-625.02)">
        <path d="M300.714,629.02L40.714,629.02C37.774,629.02 35.013,630.165 32.937,632.243C30.859,634.319 29.714,637.081 29.714,640.02L29.714,790.02C29.714,792.959 30.859,795.721 32.937,797.797C35.013,799.875 37.774,801.02 40.714,801.02L300.714,801.02C303.652,801.02 306.415,799.875 308.49,797.797C310.568,795.721 311.714,792.959 311.714,790.02L311.714,640.02C311.714,637.081 310.568,634.319 308.49,632.243C306.415,630.165 303.652,629.02 300.714,629.02Z" style="fill:rgb(57,181,74);fill-rule:nonzero;"/>
        <path d="M315.714,729.242L315.714,712.575C228.815,675.151 152.405,782.558 25.714,713.214L25.714,729.881C152.405,799.225 228.815,691.817 315.714,729.242Z" style="fill:url(#_Linear1);"/>
        <path d="M25.714,729.881L25.714,785.02C25.714,790.138 27.667,795.256 31.571,799.163C35.478,803.067 40.595,805.02 45.714,805.02L295.714,805.02C300.831,805.02 305.95,803.067 309.856,799.163C313.761,795.256 315.714,790.138 315.714,785.02L315.714,729.242C228.815,691.817 152.405,799.225 25.714,729.881Z" style="fill:url(#_Linear2);"/>
        <path d="M117.394,792.297C117.388,792.297 117.388,792.297 117.382,792.297C89.784,792.297 63.149,785.391 36.083,771.207L36.083,770.222C62.991,783.27 89.694,789.632 117.384,789.629C148.253,789.629 175.134,782.083 204.573,772.967L208.706,771.684C233.134,764.096 256.206,756.93 278.86,756.93C290.622,756.93 301.532,758.86 312.079,762.817L312.079,764.665C301.478,761.262 290.522,759.598 278.856,759.598C254.081,759.598 230.024,767.071 204.552,774.981L200.429,776.26C172.097,785.033 146.294,792.297 117.394,792.297Z" style="fill:url(#_Linear3);"/>
        <path d="M248.735,700.571C248.728,694.965 251.763,690.065 256.288,687.433L250.864,678.069C246.325,680.69 240.567,680.885 235.712,678.09C230.847,675.29 228.12,670.21 228.112,664.973L217.278,664.989C217.284,670.225 214.585,675.311 209.718,678.126C204.872,680.934 199.101,680.756 194.567,678.147L189.167,687.526C193.7,690.147 196.753,695.037 196.761,700.642C196.769,706.253 193.73,711.149 189.202,713.782L194.63,723.145C199.155,720.524 204.925,720.329 209.778,723.123C214.655,725.926 217.368,731.004 217.376,736.241L228.212,736.225C228.204,730.99 230.917,725.904 235.774,723.088C240.622,720.279 246.38,720.458 250.927,723.066L256.323,713.689C251.792,711.068 248.743,706.181 248.735,700.571ZM222.763,714.159C215.278,714.169 209.202,708.109 209.19,700.625C209.181,693.142 215.239,687.067 222.726,687.056C230.208,687.044 236.284,693.106 236.296,700.588C236.306,708.072 230.245,714.149 222.763,714.159Z" style="fill:rgb(224,228,204);fill-rule:nonzero;"/>
        <path d="M284.272,659.084C284.267,654.998 286.478,651.426 289.776,649.508L285.823,642.683C282.515,644.594 278.317,644.737 274.778,642.699C271.233,640.657 269.245,636.956 269.239,633.137L261.343,633.149C261.347,636.965 259.38,640.672 255.831,642.725C252.3,644.772 248.093,644.642 244.788,642.741L240.851,649.577C244.155,651.487 246.382,655.051 246.388,659.137C246.392,663.227 244.179,666.795 240.878,668.714L244.835,675.54C248.132,673.629 252.339,673.487 255.876,675.524C259.431,677.567 261.407,681.268 261.413,685.084L269.312,685.074C269.306,681.257 271.284,677.55 274.825,675.498C278.358,673.45 282.556,673.581 285.868,675.481L289.802,668.647C286.499,666.737 284.276,663.174 284.272,659.084ZM265.339,668.989C259.886,668.997 255.456,664.579 255.448,659.123C255.44,653.67 259.856,649.241 265.314,649.234C270.767,649.225 275.196,653.643 275.204,659.098C275.212,664.552 270.794,668.981 265.339,668.989Z" style="fill:rgb(224,228,204);fill-rule:nonzero;"/>
        <path d="M315.714,727.143C312.218,726.944 308.716,725.949 305.478,724.084C298.021,719.79 293.841,712.006 293.829,703.978L277.222,704.002C277.231,712.028 273.095,719.824 265.632,724.14C258.204,728.444 249.356,728.17 242.411,724.172L234.13,738.548C241.079,742.565 245.759,750.06 245.772,758.653C245.782,767.254 241.126,774.757 234.185,778.793L242.505,793.145C249.44,789.128 258.286,788.829 265.728,793.114C270.585,795.905 274.03,800.173 275.858,805.02L295.466,805.02C297.284,800.157 300.726,795.869 305.575,793.059C308.577,791.319 311.81,790.338 315.054,790.039C315.48,788.393 315.714,786.708 315.714,785.02L315.714,727.143ZM285.628,779.372C274.157,779.388 264.841,770.098 264.825,758.626C264.81,747.157 274.097,737.843 285.571,737.827C297.04,737.81 306.356,747.1 306.372,758.57C306.388,770.041 297.099,779.356 285.628,779.372Z" style="fill:rgb(224,228,204);fill-rule:nonzero;"/>
        <path d="M216.372,636.328L219.253,641.293C221.651,639.905 224.714,639.8 227.286,641.283C229.874,642.77 231.314,645.463 231.317,648.241L237.065,648.233C237.062,645.456 238.501,642.758 241.077,641.264C243.647,639.774 246.702,639.87 249.114,641.252L251.978,636.278C249.573,634.888 247.956,632.295 247.952,629.321C247.95,627.737 248.415,626.266 249.204,625.02L239.899,625.02C240.806,626.221 241.351,627.709 241.353,629.329C241.358,633.299 238.144,636.522 234.175,636.528C230.204,636.534 226.981,633.319 226.976,629.348C226.974,627.722 227.519,626.226 228.427,625.02L219.087,625.02C219.897,626.272 220.38,627.756 220.382,629.358C220.386,632.334 218.774,634.93 216.372,636.328Z" style="fill:rgb(224,228,204);fill-rule:nonzero;"/>
        <path d="M70.913,662.722C70.465,662.946 69.568,663.184 68.42,663.184C65.759,663.184 63.755,661.489 63.755,658.393C63.755,655.438 65.759,653.435 68.686,653.435C69.862,653.435 70.605,653.687 70.927,653.856L70.633,654.85C70.171,654.625 69.513,654.457 68.728,654.457C66.515,654.457 65.044,655.873 65.044,658.352C65.044,660.663 66.375,662.148 68.672,662.148C69.414,662.148 70.171,661.994 70.661,661.755L70.913,662.722Z" style="fill:white;fill-rule:nonzero;"/>
        <path d="M78.375,659.584C78.375,662.092 76.638,663.184 74.999,663.184C73.164,663.184 71.749,661.84 71.749,659.696C71.749,657.427 73.233,656.096 75.111,656.096C77.058,656.096 78.375,657.511 78.375,659.584ZM72.996,659.655C72.996,661.139 73.851,662.26 75.055,662.26C76.231,662.26 77.114,661.153 77.114,659.626C77.114,658.478 76.54,657.021 75.083,657.021C73.626,657.021 72.996,658.366 72.996,659.655Z" style="fill:white;fill-rule:nonzero;"/>
        <path d="M79.926,658.085C79.926,657.385 79.912,656.811 79.87,656.25L80.948,656.25L81.005,657.343L81.047,657.343C81.425,656.699 82.055,656.096 83.176,656.096C84.101,656.096 84.801,656.657 85.095,657.456L85.123,657.456C85.333,657.077 85.599,656.783 85.879,656.573C86.285,656.264 86.733,656.096 87.378,656.096C88.274,656.096 89.606,656.685 89.606,659.038L89.606,663.03L88.4,663.03L88.4,659.192C88.4,657.889 87.924,657.105 86.93,657.105C86.23,657.105 85.683,657.623 85.473,658.225C85.417,658.393 85.375,658.618 85.375,658.842L85.375,663.03L84.17,663.03L84.17,658.968C84.17,657.889 83.694,657.105 82.756,657.105C81.985,657.105 81.425,657.721 81.229,658.338C81.158,658.52 81.131,658.73 81.131,658.94L81.131,663.03L79.926,663.03L79.926,658.085Z" style="fill:white;fill-rule:nonzero;"/>
        <path d="M91.602,658.463C91.602,657.595 91.573,656.895 91.546,656.25L92.652,656.25L92.708,657.413L92.736,657.413C93.24,656.586 94.039,656.096 95.146,656.096C96.784,656.096 98.018,657.483 98.018,659.542C98.018,661.979 96.532,663.184 94.936,663.184C94.039,663.184 93.255,662.791 92.849,662.12L92.82,662.12L92.82,665.803L91.602,665.803L91.602,658.463ZM92.82,660.271C92.82,660.454 92.849,660.622 92.876,660.775C93.101,661.629 93.843,662.217 94.726,662.217C96.028,662.217 96.784,661.153 96.784,659.598C96.784,658.24 96.07,657.077 94.768,657.077C93.927,657.077 93.143,657.679 92.904,658.604C92.862,658.758 92.82,658.94 92.82,659.108L92.82,660.271Z" style="fill:white;fill-rule:nonzero;"/>
        <path d="M104.33,661.405C104.33,661.994 104.358,662.568 104.442,663.03L103.321,663.03L103.224,662.176L103.182,662.176C102.804,662.707 102.075,663.184 101.108,663.184C99.735,663.184 99.035,662.217 99.035,661.237C99.035,659.598 100.492,658.702 103.111,658.715L103.111,658.576C103.111,658.016 102.957,657.006 101.57,657.006C100.94,657.006 100.282,657.204 99.806,657.511L99.525,656.699C100.086,656.334 100.898,656.096 101.753,656.096C103.826,656.096 104.33,657.511 104.33,658.87L104.33,661.405ZM103.14,659.571C101.795,659.542 100.268,659.78 100.268,661.097C100.268,661.895 100.8,662.274 101.431,662.274C102.313,662.274 102.873,661.713 103.069,661.139C103.111,661.013 103.14,660.873 103.14,660.747L103.14,659.571Z" style="fill:white;fill-rule:nonzero;"/>
        <path d="M106.315,658.085C106.315,657.385 106.302,656.811 106.26,656.25L107.353,656.25L107.422,657.372L107.45,657.372C107.786,656.727 108.57,656.096 109.691,656.096C110.63,656.096 112.087,656.657 112.087,658.982L112.087,663.03L110.854,663.03L110.854,659.122C110.854,658.03 110.448,657.12 109.285,657.12C108.473,657.12 107.843,657.694 107.632,658.379C107.576,658.534 107.548,658.745 107.548,658.954L107.548,663.03L106.315,663.03L106.315,658.085Z" style="fill:white;fill-rule:nonzero;"/>
        <path d="M114.352,656.25L115.837,660.256C115.99,660.706 116.158,661.237 116.271,661.643L116.299,661.643C116.425,661.237 116.564,660.719 116.733,660.229L118.078,656.25L119.38,656.25L117.531,661.082C116.648,663.409 116.047,664.599 115.206,665.328C114.604,665.86 114.001,666.07 113.693,666.125L113.385,665.089C113.693,664.991 114.1,664.795 114.464,664.487C114.8,664.221 115.22,663.745 115.5,663.114C115.557,662.989 115.599,662.89 115.599,662.821C115.599,662.75 115.57,662.652 115.515,662.498L113.007,656.25L114.352,656.25Z" style="fill:white;fill-rule:nonzero;"/>
        <path d="M123.465,658.085C123.465,657.385 123.451,656.811 123.409,656.25L124.502,656.25L124.571,657.372L124.6,657.372C124.936,656.727 125.72,656.096 126.841,656.096C127.779,656.096 129.236,656.657 129.236,658.982L129.236,663.03L128.003,663.03L128.003,659.122C128.003,658.03 127.597,657.12 126.435,657.12C125.622,657.12 124.992,657.694 124.781,658.379C124.726,658.534 124.697,658.745 124.697,658.954L124.697,663.03L123.465,663.03L123.465,658.085Z" style="fill:white;fill-rule:nonzero;"/>
        <path d="M135.997,661.405C135.997,661.994 136.025,662.568 136.109,663.03L134.988,663.03L134.891,662.176L134.849,662.176C134.47,662.707 133.742,663.184 132.775,663.184C131.402,663.184 130.702,662.217 130.702,661.237C130.702,659.598 132.159,658.702 134.778,658.715L134.778,658.576C134.778,658.016 134.624,657.006 133.237,657.006C132.607,657.006 131.949,657.204 131.473,657.511L131.192,656.699C131.753,656.334 132.565,656.096 133.42,656.096C135.493,656.096 135.997,657.511 135.997,658.87L135.997,661.405ZM134.807,659.571C133.462,659.542 131.935,659.78 131.935,661.097C131.935,661.895 132.467,662.274 133.098,662.274C133.98,662.274 134.54,661.713 134.736,661.139C134.778,661.013 134.807,660.873 134.807,660.747L134.807,659.571Z" style="fill:white;fill-rule:nonzero;"/>
        <path d="M137.982,658.085C137.982,657.385 137.969,656.811 137.927,656.25L139.005,656.25L139.062,657.343L139.104,657.343C139.481,656.699 140.111,656.096 141.232,656.096C142.157,656.096 142.857,656.657 143.151,657.456L143.18,657.456C143.39,657.077 143.655,656.783 143.936,656.573C144.342,656.264 144.79,656.096 145.435,656.096C146.331,656.096 147.662,656.685 147.662,659.038L147.662,663.03L146.457,663.03L146.457,659.192C146.457,657.889 145.981,657.105 144.986,657.105C144.286,657.105 143.739,657.623 143.529,658.225C143.474,658.393 143.432,658.618 143.432,658.842L143.432,663.03L142.227,663.03L142.227,658.968C142.227,657.889 141.751,657.105 140.813,657.105C140.042,657.105 139.481,657.721 139.285,658.338C139.215,658.52 139.188,658.73 139.188,658.94L139.188,663.03L137.982,663.03L137.982,658.085Z" style="fill:white;fill-rule:nonzero;"/>
        <path d="M150.346,659.865C150.374,661.532 151.439,662.217 152.671,662.217C153.554,662.217 154.086,662.064 154.548,661.868L154.758,662.75C154.324,662.946 153.581,663.184 152.503,663.184C150.416,663.184 149.169,661.797 149.169,659.752C149.169,657.707 150.374,656.096 152.349,656.096C154.562,656.096 155.15,658.043 155.15,659.29C155.15,659.542 155.122,659.739 155.108,659.865L150.346,659.865ZM153.96,658.982C153.974,658.198 153.638,656.979 152.251,656.979C151.004,656.979 150.458,658.127 150.359,658.982L153.96,658.982Z" style="fill:white;fill-rule:nonzero;"/>
        <path d="M90.449,671.911C90.657,672.047 91.025,672.19 91.377,672.19C91.889,672.19 92.129,671.934 92.129,671.615C92.129,671.28 91.929,671.095 91.409,670.903C90.714,670.655 90.386,670.272 90.386,669.808C90.386,669.184 90.89,668.672 91.721,668.672C92.112,668.672 92.456,668.785 92.673,668.913L92.496,669.424C92.345,669.329 92.064,669.2 91.705,669.2C91.289,669.2 91.058,669.44 91.058,669.728C91.058,670.047 91.289,670.192 91.793,670.383C92.465,670.639 92.809,670.975 92.809,671.551C92.809,672.231 92.28,672.718 91.361,672.718C90.938,672.718 90.546,672.606 90.273,672.446L90.449,671.911Z" style="fill:white;fill-rule:nonzero;"/>
        <path d="M96.432,671.704C96.432,672.039 96.448,672.367 96.496,672.63L95.856,672.63L95.801,672.143L95.776,672.143C95.561,672.446 95.145,672.718 94.593,672.718C93.81,672.718 93.41,672.166 93.41,671.607C93.41,670.671 94.241,670.16 95.736,670.168L95.736,670.088C95.736,669.768 95.648,669.192 94.856,669.192C94.497,669.192 94.121,669.304 93.85,669.48L93.689,669.016C94.01,668.809 94.474,668.672 94.961,668.672C96.145,668.672 96.432,669.48 96.432,670.256L96.432,671.704ZM95.753,670.655C94.985,670.639 94.113,670.776 94.113,671.527C94.113,671.983 94.417,672.199 94.777,672.199C95.28,672.199 95.601,671.879 95.713,671.551C95.736,671.479 95.753,671.399 95.753,671.327L95.753,670.655Z" style="fill:white;fill-rule:nonzero;"/>
        <path d="M97.569,669.808C97.569,669.409 97.562,669.081 97.537,668.76L98.152,668.76L98.185,669.384L98.209,669.384C98.425,669.016 98.784,668.672 99.424,668.672C99.952,668.672 100.352,668.993 100.52,669.448L100.535,669.448C100.655,669.233 100.808,669.065 100.967,668.944C101.199,668.768 101.455,668.672 101.822,668.672C102.334,668.672 103.094,669.008 103.094,670.352L103.094,672.63L102.406,672.63L102.406,670.44C102.406,669.696 102.135,669.248 101.566,669.248C101.167,669.248 100.856,669.543 100.735,669.887C100.703,669.984 100.68,670.112 100.68,670.24L100.68,672.63L99.991,672.63L99.991,670.311C99.991,669.696 99.72,669.248 99.185,669.248C98.744,669.248 98.425,669.6 98.313,669.952C98.272,670.055 98.257,670.176 98.257,670.295L98.257,672.63L97.569,672.63L97.569,669.808Z" style="fill:white;fill-rule:nonzero;"/>
        <path d="M104.242,670.024C104.242,669.528 104.226,669.128 104.21,668.76L104.842,668.76L104.874,669.424L104.89,669.424C105.178,668.952 105.633,668.672 106.265,668.672C107.2,668.672 107.904,669.463 107.904,670.639C107.904,672.031 107.057,672.718 106.145,672.718C105.633,672.718 105.186,672.495 104.953,672.111L104.938,672.111L104.938,674.213L104.242,674.213L104.242,670.024ZM104.938,671.055C104.938,671.159 104.953,671.254 104.97,671.343C105.098,671.831 105.522,672.166 106.024,672.166C106.769,672.166 107.2,671.559 107.2,670.671C107.2,669.896 106.792,669.233 106.049,669.233C105.569,669.233 105.121,669.577 104.985,670.104C104.962,670.192 104.938,670.295 104.938,670.391L104.938,671.055Z" style="fill:white;fill-rule:nonzero;"/>
        <rect x="108.794" y="666.954" width="0.703" height="5.676" style="fill:white;fill-rule:nonzero;"/>
        <path d="M111.073,670.823C111.089,671.775 111.696,672.166 112.4,672.166C112.904,672.166 113.208,672.079 113.472,671.967L113.592,672.471C113.344,672.582 112.92,672.718 112.305,672.718C111.113,672.718 110.401,671.926 110.401,670.759C110.401,669.592 111.089,668.672 112.217,668.672C113.48,668.672 113.815,669.784 113.815,670.496C113.815,670.639 113.8,670.751 113.792,670.823L111.073,670.823ZM113.136,670.32C113.144,669.872 112.952,669.176 112.16,669.176C111.449,669.176 111.137,669.832 111.081,670.32L113.136,670.32Z" style="fill:white;fill-rule:nonzero;"/>
        <path d="M117.233,667.832L117.233,668.76L118.24,668.76L118.24,669.296L117.233,669.296L117.233,671.383C117.233,671.863 117.369,672.135 117.761,672.135C117.952,672.135 118.064,672.119 118.169,672.086L118.2,672.614C118.064,672.67 117.849,672.718 117.577,672.718C117.249,672.718 116.985,672.606 116.817,672.415C116.617,672.207 116.545,671.863 116.545,671.407L116.545,669.296L115.945,669.296L115.945,668.76L116.545,668.76L116.545,668.049L117.233,667.832Z" style="fill:white;fill-rule:nonzero;"/>
        <path d="M119.377,670.823C119.393,671.775 120.001,672.166 120.704,672.166C121.208,672.166 121.512,672.079 121.775,671.967L121.896,672.471C121.647,672.582 121.224,672.718 120.608,672.718C119.417,672.718 118.705,671.926 118.705,670.759C118.705,669.592 119.393,668.672 120.521,668.672C121.783,668.672 122.119,669.784 122.119,670.496C122.119,670.639 122.104,670.751 122.096,670.823L119.377,670.823ZM121.439,670.32C121.447,669.872 121.256,669.176 120.464,669.176C119.753,669.176 119.44,669.832 119.385,670.32L121.439,670.32Z" style="fill:white;fill-rule:nonzero;"/>
        <path d="M123.297,668.76L123.849,669.592C123.993,669.808 124.112,670.008 124.241,670.223L124.265,670.223C124.393,669.992 124.521,669.791 124.648,669.584L125.192,668.76L125.952,668.76L124.633,670.631L125.992,672.63L125.192,672.63L124.624,671.758C124.473,671.536 124.345,671.319 124.209,671.087L124.192,671.087C124.064,671.327 123.929,671.527 123.785,671.758L123.226,672.63L122.45,672.63L123.825,670.655L122.514,668.76L123.297,668.76Z" style="fill:white;fill-rule:nonzero;"/>
        <path d="M127.625,667.832L127.625,668.76L128.632,668.76L128.632,669.296L127.625,669.296L127.625,671.383C127.625,671.863 127.761,672.135 128.152,672.135C128.344,672.135 128.456,672.119 128.56,672.086L128.592,672.614C128.456,672.67 128.24,672.718 127.969,672.718C127.641,672.718 127.377,672.606 127.209,672.415C127.009,672.207 126.937,671.863 126.937,671.407L126.937,669.296L126.337,669.296L126.337,668.76L126.937,668.76L126.937,668.049L127.625,667.832Z" style="fill:white;fill-rule:nonzero;"/>
        <rect x="63.452" y="678.733" width="92" height="0.844" style="fill:white;fill-rule:nonzero;"/>
        <path d="M75.993,684.733L74.355,684.733L74.355,684.141L78.344,684.141L78.344,684.733L76.697,684.733L76.697,689.53L75.993,689.53L75.993,684.733Z" style="fill:white;fill-rule:nonzero;"/>
        <path d="M78.746,687.723C78.762,688.674 79.37,689.067 80.073,689.067C80.577,689.067 80.881,688.979 81.145,688.867L81.265,689.37C81.017,689.483 80.593,689.618 79.978,689.618C78.786,689.618 78.074,688.827 78.074,687.659C78.074,686.493 78.762,685.573 79.89,685.573C81.152,685.573 81.488,686.684 81.488,687.395C81.488,687.54 81.473,687.651 81.465,687.723L78.746,687.723ZM80.809,687.219C80.816,686.772 80.625,686.077 79.833,686.077C79.122,686.077 78.81,686.732 78.754,687.219L80.809,687.219Z" style="fill:white;fill-rule:nonzero;"/>
        <rect x="82.362" y="683.854" width="0.703" height="5.676" style="fill:white;fill-rule:nonzero;"/>
        <path d="M84.546,686.795C84.273,686.795 84.082,686.581 84.082,686.299C84.082,686.004 84.281,685.788 84.562,685.788C84.842,685.788 85.025,686.004 85.033,686.299C85.033,686.581 84.85,686.795 84.554,686.795L84.546,686.795ZM84.546,689.618C84.273,689.618 84.082,689.403 84.082,689.123C84.082,688.827 84.281,688.619 84.562,688.619C84.842,688.619 85.025,688.827 85.033,689.123C85.033,689.403 84.85,689.618 84.554,689.618L84.546,689.618Z" style="fill:white;fill-rule:nonzero;"/>
        <path d="M88.904,684.989L88.889,684.989L87.985,685.477L87.849,684.941L88.984,684.332L89.584,684.332L89.584,689.53L88.904,689.53L88.904,684.989Z" style="fill:white;fill-rule:nonzero;"/>
        <path d="M93.009,684.989L92.993,684.989L92.09,685.477L91.954,684.941L93.089,684.332L93.689,684.332L93.689,689.53L93.009,689.53L93.009,684.989Z" style="fill:white;fill-rule:nonzero;"/>
        <path d="M97.112,684.989L97.097,684.989L96.193,685.477L96.058,684.941L97.192,684.332L97.792,684.332L97.792,689.53L97.112,689.53L97.112,684.989Z" style="fill:white;fill-rule:nonzero;"/>
        <rect x="99.569" y="687.108" width="1.975" height="0.519" style="fill:white;fill-rule:nonzero;"/>
        <path d="M105.599,686.875C105.599,688.643 104.943,689.618 103.792,689.618C102.776,689.618 102.089,688.666 102.073,686.948C102.073,685.205 102.824,684.245 103.88,684.245C104.976,684.245 105.599,685.221 105.599,686.875ZM102.776,686.956C102.776,688.307 103.192,689.075 103.832,689.075C104.552,689.075 104.896,688.235 104.896,686.908C104.896,685.628 104.567,684.79 103.84,684.79C103.225,684.79 102.776,685.54 102.776,686.956Z" style="fill:white;fill-rule:nonzero;"/>
        <path d="M109.703,686.875C109.703,688.643 109.048,689.618 107.897,689.618C106.881,689.618 106.193,688.666 106.178,686.948C106.178,685.205 106.929,684.245 107.984,684.245C109.08,684.245 109.703,685.221 109.703,686.875ZM106.881,686.956C106.881,688.307 107.297,689.075 107.937,689.075C108.656,689.075 109,688.235 109,686.908C109,685.628 108.672,684.79 107.944,684.79C107.329,684.79 106.881,685.54 106.881,686.956Z" style="fill:white;fill-rule:nonzero;"/>
        <path d="M111.88,684.989L111.864,684.989L110.961,685.477L110.825,684.941L111.96,684.332L112.56,684.332L112.56,689.53L111.88,689.53L111.88,684.989Z" style="fill:white;fill-rule:nonzero;"/>
        <rect x="114.337" y="687.108" width="1.975" height="0.519" style="fill:white;fill-rule:nonzero;"/>
        <path d="M120.366,686.875C120.366,688.643 119.711,689.618 118.56,689.618C117.544,689.618 116.856,688.666 116.841,686.948C116.841,685.205 117.592,684.245 118.647,684.245C119.743,684.245 120.366,685.221 120.366,686.875ZM117.544,686.956C117.544,688.307 117.96,689.075 118.6,689.075C119.319,689.075 119.663,688.235 119.663,686.908C119.663,685.628 119.335,684.79 118.607,684.79C117.992,684.79 117.544,685.54 117.544,686.956Z" style="fill:white;fill-rule:nonzero;"/>
        <path d="M122.544,684.989L122.528,684.989L121.625,685.477L121.489,684.941L122.624,684.332L123.224,684.332L123.224,689.53L122.544,689.53L122.544,684.989Z" style="fill:white;fill-rule:nonzero;"/>
        <rect x="125.001" y="687.108" width="1.975" height="0.519" style="fill:white;fill-rule:nonzero;"/>
        <path d="M131.03,686.875C131.03,688.643 130.375,689.618 129.224,689.618C128.208,689.618 127.521,688.666 127.505,686.948C127.505,685.205 128.256,684.245 129.312,684.245C130.407,684.245 131.03,685.221 131.03,686.875ZM128.208,686.956C128.208,688.307 128.624,689.075 129.264,689.075C129.983,689.075 130.327,688.235 130.327,686.908C130.327,685.628 129.999,684.79 129.272,684.79C128.656,684.79 128.208,685.54 128.208,686.956Z" style="fill:white;fill-rule:nonzero;"/>
        <path d="M135.134,686.875C135.134,688.643 134.479,689.618 133.327,689.618C132.312,689.618 131.624,688.666 131.608,686.948C131.608,685.205 132.359,684.245 133.415,684.245C134.511,684.245 135.134,685.221 135.134,686.875ZM132.312,686.956C132.312,688.307 132.728,689.075 133.367,689.075C134.087,689.075 134.431,688.235 134.431,686.908C134.431,685.628 134.103,684.79 133.375,684.79C132.76,684.79 132.312,685.54 132.312,686.956Z" style="fill:white;fill-rule:nonzero;"/>
        <rect x="135.665" y="687.108" width="1.975" height="0.519" style="fill:white;fill-rule:nonzero;"/>
        <path d="M139.768,684.989L139.752,684.989L138.849,685.477L138.712,684.941L139.848,684.332L140.447,684.332L140.447,689.53L139.768,689.53L139.768,684.989Z" style="fill:white;fill-rule:nonzero;"/>
        <path d="M143.871,684.989L143.856,684.989L142.952,685.477L142.815,684.941L143.951,684.332L144.551,684.332L144.551,689.53L143.871,689.53L143.871,684.989Z" style="fill:white;fill-rule:nonzero;"/>
        <path d="M73.143,693.741L76.045,693.741L76.045,694.325L73.839,694.325L73.839,696.116L75.877,696.116L75.877,696.692L73.839,696.692L73.839,699.13L73.143,699.13L73.143,693.741Z" style="fill:white;fill-rule:nonzero;"/>
        <path d="M79.373,698.204C79.373,698.539 79.39,698.867 79.438,699.13L78.798,699.13L78.742,698.643L78.718,698.643C78.502,698.946 78.086,699.218 77.534,699.218C76.751,699.218 76.352,698.666 76.352,698.107C76.352,697.171 77.183,696.66 78.678,696.668L78.678,696.588C78.678,696.268 78.59,695.692 77.799,695.692C77.439,695.692 77.063,695.804 76.791,695.98L76.631,695.516C76.951,695.309 77.414,695.172 77.902,695.172C79.086,695.172 79.373,695.98 79.373,696.756L79.373,698.204ZM78.693,697.155C77.926,697.139 77.055,697.276 77.055,698.027C77.055,698.483 77.358,698.699 77.719,698.699C78.222,698.699 78.542,698.379 78.654,698.051C78.678,697.979 78.693,697.899 78.693,697.827L78.693,697.155Z" style="fill:white;fill-rule:nonzero;"/>
        <path d="M80.838,695.26L81.39,696.092C81.534,696.308 81.654,696.508 81.781,696.723L81.806,696.723C81.934,696.492 82.062,696.291 82.189,696.084L82.733,695.26L83.493,695.26L82.174,697.131L83.533,699.13L82.733,699.13L82.166,698.258C82.014,698.036 81.886,697.819 81.75,697.587L81.733,697.587C81.606,697.827 81.47,698.027 81.326,698.258L80.767,699.13L79.99,699.13L81.366,697.155L80.055,695.26L80.838,695.26Z" style="fill:white;fill-rule:nonzero;"/>
        <path d="M84.511,696.396C84.238,696.396 84.047,696.18 84.047,695.901C84.047,695.604 84.246,695.389 84.526,695.389C84.807,695.389 84.99,695.604 84.998,695.901C84.998,696.18 84.814,696.396 84.519,696.396L84.511,696.396ZM84.511,699.218C84.238,699.218 84.047,699.002 84.047,698.723C84.047,698.426 84.246,698.219 84.526,698.219C84.807,698.219 84.99,698.426 84.998,698.723C84.998,699.002 84.814,699.218 84.519,699.218L84.511,699.218Z" style="fill:white;fill-rule:nonzero;"/>
        <path d="M90.796,696.475C90.796,698.243 90.141,699.218 88.989,699.218C87.974,699.218 87.286,698.266 87.271,696.547C87.271,694.805 88.022,693.845 89.077,693.845C90.173,693.845 90.796,694.821 90.796,696.475ZM87.974,696.555C87.974,697.907 88.39,698.674 89.029,698.674C89.749,698.674 90.093,697.834 90.093,696.508C90.093,695.229 89.765,694.389 89.037,694.389C88.422,694.389 87.974,695.141 87.974,696.555Z" style="fill:white;fill-rule:nonzero;"/>
        <path d="M92.974,694.588L92.958,694.588L92.055,695.077L91.918,694.541L93.054,693.933L93.653,693.933L93.653,699.13L92.974,699.13L92.974,694.588Z" style="fill:white;fill-rule:nonzero;"/>
        <path d="M99.004,696.475C99.004,698.243 98.349,699.218 97.197,699.218C96.182,699.218 95.494,698.266 95.479,696.547C95.479,694.805 96.23,693.845 97.285,693.845C98.381,693.845 99.004,694.821 99.004,696.475ZM96.182,696.555C96.182,697.907 96.598,698.674 97.237,698.674C97.957,698.674 98.301,697.834 98.301,696.508C98.301,695.229 97.973,694.389 97.245,694.389C96.63,694.389 96.182,695.141 96.182,696.555Z" style="fill:white;fill-rule:nonzero;"/>
        <rect x="99.535" y="696.707" width="1.975" height="0.52" style="fill:white;fill-rule:nonzero;"/>
        <path d="M105.564,696.475C105.564,698.243 104.908,699.218 103.757,699.218C102.741,699.218 102.054,698.266 102.038,696.547C102.038,694.805 102.789,693.845 103.845,693.845C104.94,693.845 105.564,694.821 105.564,696.475ZM102.741,696.555C102.741,697.907 103.157,698.674 103.797,698.674C104.517,698.674 104.86,697.834 104.86,696.508C104.86,695.229 104.532,694.389 103.805,694.389C103.189,694.389 102.741,695.141 102.741,696.555Z" style="fill:white;fill-rule:nonzero;"/>
        <path d="M107.741,694.588L107.726,694.588L106.822,695.077L106.686,694.541L107.821,693.933L108.421,693.933L108.421,699.13L107.741,699.13L107.741,694.588Z" style="fill:white;fill-rule:nonzero;"/>
        <path d="M111.845,694.588L111.829,694.588L110.926,695.077L110.789,694.541L111.925,693.933L112.524,693.933L112.524,699.13L111.845,699.13L111.845,694.588Z" style="fill:white;fill-rule:nonzero;"/>
        <rect x="114.303" y="696.707" width="1.974" height="0.52" style="fill:white;fill-rule:nonzero;"/>
        <path d="M118.404,694.588L118.389,694.588L117.485,695.077L117.35,694.541L118.484,693.933L119.084,693.933L119.084,699.13L118.404,699.13L118.404,694.588Z" style="fill:white;fill-rule:nonzero;"/>
        <path d="M124.436,696.475C124.436,698.243 123.78,699.218 122.629,699.218C121.613,699.218 120.926,698.266 120.91,696.547C120.91,694.805 121.661,693.845 122.717,693.845C123.813,693.845 124.436,694.821 124.436,696.475ZM121.613,696.555C121.613,697.907 122.029,698.674 122.669,698.674C123.389,698.674 123.732,697.834 123.732,696.508C123.732,695.229 123.404,694.389 122.677,694.389C122.062,694.389 121.613,695.141 121.613,696.555Z" style="fill:white;fill-rule:nonzero;"/>
        <rect x="124.966" y="696.707" width="1.974" height="0.52" style="fill:white;fill-rule:nonzero;"/>
        <path d="M129.068,694.588L129.053,694.588L128.149,695.077L128.014,694.541L129.148,693.933L129.748,693.933L129.748,699.13L129.068,699.13L129.068,694.588Z" style="fill:white;fill-rule:nonzero;"/>
        <path d="M133.172,694.588L133.156,694.588L132.253,695.077L132.117,694.541L133.252,693.933L133.852,693.933L133.852,699.13L133.172,699.13L133.172,694.588Z" style="fill:white;fill-rule:nonzero;"/>
        <rect x="135.63" y="696.707" width="1.975" height="0.52" style="fill:white;fill-rule:nonzero;"/>
        <path d="M141.659,696.475C141.659,698.243 141.004,699.218 139.853,699.218C138.837,699.218 138.149,698.266 138.134,696.547C138.134,694.805 138.885,693.845 139.94,693.845C141.036,693.845 141.659,694.821 141.659,696.475ZM138.837,696.555C138.837,697.907 139.253,698.674 139.893,698.674C140.612,698.674 140.956,697.834 140.956,696.508C140.956,695.229 140.628,694.389 139.9,694.389C139.285,694.389 138.837,695.141 138.837,696.555Z" style="fill:white;fill-rule:nonzero;"/>
        <path d="M145.763,696.475C145.763,698.243 145.107,699.218 143.956,699.218C142.94,699.218 142.253,698.266 142.237,696.547C142.237,694.805 142.988,693.845 144.044,693.845C145.14,693.845 145.763,694.821 145.763,696.475ZM142.94,696.555C142.94,697.907 143.356,698.674 143.996,698.674C144.716,698.674 145.06,697.834 145.06,696.508C145.06,695.229 144.731,694.389 144.004,694.389C143.389,694.389 142.94,695.141 142.94,696.555Z" style="fill:white;fill-rule:nonzero;"/>
        <path d="M67.745,718.331L67.745,716.043L66.042,712.942L66.834,712.942L67.594,714.428C67.802,714.836 67.961,715.165 68.129,715.54L68.146,715.54C68.297,715.188 68.481,714.836 68.689,714.428L69.465,712.942L70.256,712.942L68.449,716.036L68.449,718.331L67.745,718.331Z" style="fill:white;fill-rule:nonzero;"/>
        <path d="M73.744,716.364C73.744,717.793 72.753,718.418 71.817,718.418C70.77,718.418 69.962,717.651 69.962,716.426C69.962,715.131 70.81,714.372 71.881,714.372C72.992,714.372 73.744,715.18 73.744,716.364ZM70.674,716.403C70.674,717.25 71.161,717.891 71.849,717.891C72.521,717.891 73.024,717.258 73.024,716.387C73.024,715.731 72.696,714.901 71.865,714.901C71.033,714.901 70.674,715.668 70.674,716.403Z" style="fill:white;fill-rule:nonzero;"/>
        <path d="M77.873,717.274C77.873,717.674 77.881,718.026 77.904,718.331L77.281,718.331L77.241,717.698L77.225,717.698C77.041,718.01 76.634,718.418 75.945,718.418C75.338,718.418 74.61,718.082 74.61,716.723L74.61,714.459L75.314,714.459L75.314,716.602C75.314,717.338 75.538,717.834 76.178,717.834C76.649,717.834 76.978,717.506 77.106,717.194C77.146,717.09 77.169,716.963 77.169,716.834L77.169,714.459L77.873,714.459L77.873,717.274Z" style="fill:white;fill-rule:nonzero;"/>
        <path d="M79.042,715.668C79.042,715.211 79.034,714.821 79.01,714.459L79.625,714.459L79.649,715.219L79.682,715.219C79.857,714.7 80.281,714.372 80.753,714.372C80.833,714.372 80.889,714.379 80.952,714.397L80.952,715.059C80.881,715.043 80.809,715.036 80.713,715.036C80.217,715.036 79.865,715.413 79.77,715.94C79.753,716.036 79.737,716.147 79.737,716.268L79.737,718.331L79.042,718.331L79.042,715.668Z" style="fill:white;fill-rule:nonzero;"/>
        <path d="M84.202,713.532L84.202,714.459L85.209,714.459L85.209,714.997L84.202,714.997L84.202,717.082C84.202,717.563 84.338,717.834 84.73,717.834C84.921,717.834 85.033,717.819 85.138,717.786L85.169,718.315C85.033,718.37 84.817,718.418 84.546,718.418C84.218,718.418 83.954,718.305 83.786,718.114C83.586,717.907 83.514,717.563 83.514,717.106L83.514,714.997L82.914,714.997L82.914,714.459L83.514,714.459L83.514,713.748L84.202,713.532Z" style="fill:white;fill-rule:nonzero;"/>
        <path d="M86.346,716.524C86.361,717.475 86.97,717.866 87.673,717.866C88.177,717.866 88.48,717.778 88.744,717.666L88.864,718.17C88.616,718.282 88.192,718.418 87.577,718.418C86.386,718.418 85.674,717.625 85.674,716.459C85.674,715.291 86.361,714.372 87.489,714.372C88.752,714.372 89.088,715.483 89.088,716.196C89.088,716.338 89.072,716.452 89.064,716.524L86.346,716.524ZM88.408,716.02C88.416,715.571 88.225,714.875 87.433,714.875C86.722,714.875 86.409,715.532 86.354,716.02L88.408,716.02Z" style="fill:white;fill-rule:nonzero;"/>
        <path d="M90.266,714.459L90.817,715.291C90.962,715.508 91.081,715.707 91.21,715.924L91.233,715.924C91.361,715.692 91.489,715.491 91.617,715.284L92.161,714.459L92.921,714.459L91.602,716.331L92.961,718.331L92.161,718.331L91.593,717.459C91.441,717.235 91.314,717.018 91.178,716.788L91.161,716.788C91.033,717.026 90.897,717.227 90.754,717.459L90.194,718.331L89.419,718.331L90.794,716.356L89.482,714.459L90.266,714.459Z" style="fill:white;fill-rule:nonzero;"/>
        <path d="M94.594,713.532L94.594,714.459L95.601,714.459L95.601,714.997L94.594,714.997L94.594,717.082C94.594,717.563 94.73,717.834 95.121,717.834C95.313,717.834 95.425,717.819 95.528,717.786L95.561,718.315C95.425,718.37 95.209,718.418 94.938,718.418C94.609,718.418 94.346,718.305 94.178,718.114C93.978,717.907 93.905,717.563 93.905,717.106L93.905,714.997L93.306,714.997L93.306,714.459L93.905,714.459L93.905,713.748L94.594,713.532Z" style="fill:white;fill-rule:nonzero;"/>
        <path d="M98.09,712.653L98.793,712.653L98.793,715.067L98.81,715.067C98.921,714.868 99.097,714.692 99.313,714.573C99.521,714.452 99.769,714.372 100.032,714.372C100.552,714.372 101.384,714.692 101.384,716.028L101.384,718.331L100.68,718.331L100.68,716.108C100.68,715.483 100.448,714.956 99.784,714.956C99.329,714.956 98.969,715.276 98.841,715.659C98.801,715.756 98.793,715.86 98.793,715.995L98.793,718.331L98.09,718.331L98.09,712.653Z" style="fill:white;fill-rule:nonzero;"/>
        <path d="M102.922,716.524C102.938,717.475 103.546,717.866 104.249,717.866C104.753,717.866 105.057,717.778 105.32,717.666L105.44,718.17C105.192,718.282 104.769,718.418 104.153,718.418C102.962,718.418 102.25,717.625 102.25,716.459C102.25,715.291 102.938,714.372 104.065,714.372C105.328,714.372 105.664,715.483 105.664,716.196C105.664,716.338 105.648,716.452 105.641,716.524L102.922,716.524ZM104.984,716.02C104.992,715.571 104.801,714.875 104.009,714.875C103.298,714.875 102.985,715.532 102.93,716.02L104.984,716.02Z" style="fill:white;fill-rule:nonzero;"/>
        <path d="M106.538,715.668C106.538,715.211 106.53,714.821 106.506,714.459L107.121,714.459L107.146,715.219L107.178,715.219C107.354,714.7 107.777,714.372 108.249,714.372C108.329,714.372 108.385,714.379 108.448,714.397L108.448,715.059C108.377,715.043 108.305,715.036 108.209,715.036C107.713,715.036 107.361,715.413 107.266,715.94C107.249,716.036 107.233,716.147 107.233,716.268L107.233,718.331L106.538,718.331L106.538,715.668Z" style="fill:white;fill-rule:nonzero;"/>
        <path d="M109.466,716.524C109.481,717.475 110.089,717.866 110.793,717.866C111.297,717.866 111.601,717.778 111.864,717.666L111.984,718.17C111.736,718.282 111.313,718.418 110.697,718.418C109.506,718.418 108.794,717.625 108.794,716.459C108.794,715.291 109.481,714.372 110.609,714.372C111.872,714.372 112.208,715.483 112.208,716.196C112.208,716.338 112.192,716.452 112.185,716.524L109.466,716.524ZM111.528,716.02C111.536,715.571 111.345,714.875 110.553,714.875C109.842,714.875 109.529,715.532 109.474,716.02L111.528,716.02Z" style="fill:white;fill-rule:nonzero;"/>
        <path d="M114.681,717.61C114.889,717.747 115.257,717.891 115.608,717.891C116.12,717.891 116.36,717.635 116.36,717.315C116.36,716.979 116.16,716.795 115.641,716.602C114.945,716.356 114.617,715.971 114.617,715.508C114.617,714.883 115.121,714.372 115.952,714.372C116.344,714.372 116.689,714.485 116.904,714.612L116.728,715.123C116.576,715.028 116.296,714.901 115.937,714.901C115.521,714.901 115.289,715.139 115.289,715.428C115.289,715.747 115.521,715.891 116.024,716.082C116.696,716.338 117.04,716.674 117.04,717.25C117.04,717.93 116.512,718.418 115.593,718.418C115.169,718.418 114.777,718.305 114.505,718.147L114.681,717.61Z" style="fill:white;fill-rule:nonzero;"/>
        <path d="M120.663,717.403C120.663,717.739 120.68,718.067 120.728,718.331L120.088,718.331L120.032,717.842L120.008,717.842C119.792,718.147 119.376,718.418 118.824,718.418C118.041,718.418 117.642,717.866 117.642,717.307C117.642,716.372 118.473,715.86 119.968,715.868L119.968,715.788C119.968,715.467 119.88,714.891 119.089,714.891C118.729,714.891 118.353,715.004 118.081,715.18L117.921,714.715C118.241,714.508 118.704,714.372 119.192,714.372C120.376,714.372 120.663,715.18 120.663,715.956L120.663,717.403ZM119.983,716.356C119.216,716.338 118.345,716.475 118.345,717.227C118.345,717.682 118.648,717.899 119.009,717.899C119.512,717.899 119.832,717.579 119.944,717.25C119.968,717.178 119.983,717.098 119.983,717.026L119.983,716.356Z" style="fill:white;fill-rule:nonzero;"/>
        <path d="M121.802,715.508C121.802,715.108 121.794,714.78 121.77,714.459L122.385,714.459L122.417,715.084L122.441,715.084C122.657,714.715 123.017,714.372 123.656,714.372C124.185,714.372 124.584,714.692 124.752,715.147L124.768,715.147C124.888,714.932 125.04,714.764 125.199,714.645C125.432,714.467 125.688,714.372 126.055,714.372C126.566,714.372 127.326,714.707 127.326,716.051L127.326,718.331L126.639,718.331L126.639,716.139C126.639,715.395 126.367,714.948 125.799,714.948C125.399,714.948 125.088,715.245 124.968,715.588C124.936,715.684 124.912,715.811 124.912,715.94L124.912,718.331L124.224,718.331L124.224,716.012C124.224,715.395 123.952,714.948 123.417,714.948C122.977,714.948 122.657,715.299 122.545,715.651C122.505,715.756 122.489,715.875 122.489,715.995L122.489,718.331L121.802,718.331L121.802,715.508Z" style="fill:white;fill-rule:nonzero;"/>
        <path d="M128.474,715.723C128.474,715.227 128.457,714.829 128.441,714.459L129.073,714.459L129.105,715.123L129.121,715.123C129.409,714.653 129.864,714.372 130.496,714.372C131.432,714.372 132.136,715.165 132.136,716.338C132.136,717.731 131.288,718.418 130.376,718.418C129.864,718.418 129.417,718.194 129.185,717.811L129.169,717.811L129.169,719.913L128.474,719.913L128.474,715.723ZM129.169,716.754C129.169,716.858 129.185,716.956 129.201,717.043C129.329,717.53 129.753,717.866 130.257,717.866C131,717.866 131.432,717.258 131.432,716.372C131.432,715.596 131.024,714.932 130.28,714.932C129.801,714.932 129.353,715.276 129.217,715.803C129.193,715.891 129.169,715.995 129.169,716.09L129.169,716.754Z" style="fill:white;fill-rule:nonzero;"/>
        <rect x="133.025" y="712.653" width="0.704" height="5.678" style="fill:white;fill-rule:nonzero;"/>
        <path d="M135.305,716.524C135.32,717.475 135.929,717.866 136.632,717.866C137.136,717.866 137.439,717.778 137.703,717.666L137.823,718.17C137.575,718.282 137.151,718.418 136.536,718.418C135.345,718.418 134.633,717.625 134.633,716.459C134.633,715.291 135.32,714.372 136.448,714.372C137.711,714.372 138.047,715.483 138.047,716.196C138.047,716.338 138.031,716.452 138.023,716.524L135.305,716.524ZM137.367,716.02C137.375,715.571 137.184,714.875 136.392,714.875C135.681,714.875 135.368,715.532 135.313,716.02L137.367,716.02Z" style="fill:white;fill-rule:nonzero;"/>
        <path d="M141.465,713.532L141.465,714.459L142.472,714.459L142.472,714.997L141.465,714.997L141.465,717.082C141.465,717.563 141.601,717.834 141.992,717.834C142.184,717.834 142.296,717.819 142.399,717.786L142.432,718.315C142.296,718.37 142.08,718.418 141.809,718.418C141.481,718.418 141.217,718.305 141.049,718.114C140.849,717.907 140.776,717.563 140.776,717.106L140.776,714.997L140.177,714.997L140.177,714.459L140.776,714.459L140.776,713.748L141.465,713.532Z" style="fill:white;fill-rule:nonzero;"/>
        <path d="M143.609,716.524C143.625,717.475 144.233,717.866 144.937,717.866C145.44,717.866 145.744,717.778 146.008,717.666L146.128,718.17C145.88,718.282 145.456,718.418 144.841,718.418C143.649,718.418 142.938,717.625 142.938,716.459C142.938,715.291 143.625,714.372 144.753,714.372C146.016,714.372 146.352,715.483 146.352,716.196C146.352,716.338 146.336,716.452 146.328,716.524L143.609,716.524ZM145.672,716.02C145.68,715.571 145.488,714.875 144.696,714.875C143.985,714.875 143.673,715.532 143.617,716.02L145.672,716.02Z" style="fill:white;fill-rule:nonzero;"/>
        <path d="M147.528,714.459L148.08,715.291C148.225,715.508 148.345,715.707 148.472,715.924L148.496,715.924C148.624,715.692 148.752,715.491 148.88,715.284L149.424,714.459L150.184,714.459L148.864,716.331L150.224,718.331L149.424,718.331L148.856,717.459C148.704,717.235 148.576,717.018 148.44,716.788L148.424,716.788C148.296,717.026 148.16,717.227 148.017,717.459L147.457,718.331L146.681,718.331L148.057,716.356L146.745,714.459L147.528,714.459Z" style="fill:white;fill-rule:nonzero;"/>
        <path d="M151.856,713.532L151.856,714.459L152.863,714.459L152.863,714.997L151.856,714.997L151.856,717.082C151.856,717.563 151.992,717.834 152.384,717.834C152.575,717.834 152.688,717.819 152.792,717.786L152.823,718.315C152.688,718.37 152.472,718.418 152.2,718.418C151.872,718.418 151.608,718.305 151.44,718.114C151.24,717.907 151.168,717.563 151.168,717.106L151.168,714.997L150.568,714.997L150.568,714.459L151.168,714.459L151.168,713.748L151.856,713.532Z" style="fill:white;fill-rule:nonzero;"/>
        <path d="M85.437,722.606C85.773,722.549 86.213,722.502 86.773,722.502C87.461,722.502 87.965,722.661 88.284,722.95C88.58,723.206 88.756,723.596 88.756,724.077C88.756,724.565 88.612,724.948 88.34,725.229C87.973,725.62 87.373,725.819 86.693,725.819C86.485,725.819 86.293,725.811 86.134,725.772L86.134,727.93L85.437,727.93L85.437,722.606ZM86.134,725.204C86.285,725.245 86.478,725.26 86.709,725.26C87.549,725.26 88.061,724.852 88.061,724.108C88.061,723.397 87.557,723.053 86.789,723.053C86.485,723.053 86.253,723.077 86.134,723.11L86.134,725.204Z" style="fill:white;fill-rule:nonzero;"/>
        <rect x="89.63" y="722.254" width="0.703" height="5.676" style="fill:white;fill-rule:nonzero;"/>
        <path d="M94.235,727.002C94.235,727.338 94.252,727.666 94.3,727.93L93.66,727.93L93.605,727.444L93.58,727.444C93.364,727.747 92.948,728.018 92.397,728.018C91.613,728.018 91.214,727.467 91.214,726.907C91.214,725.971 92.045,725.459 93.54,725.467L93.54,725.387C93.54,725.069 93.452,724.493 92.66,724.493C92.301,724.493 91.925,724.604 91.653,724.78L91.493,724.317C91.814,724.108 92.277,723.973 92.765,723.973C93.948,723.973 94.235,724.78 94.235,725.555L94.235,727.002ZM93.557,725.956C92.789,725.94 91.917,726.075 91.917,726.827C91.917,727.284 92.221,727.498 92.581,727.498C93.084,727.498 93.404,727.178 93.517,726.852C93.54,726.78 93.557,726.7 93.557,726.627L93.557,725.956Z" style="fill:white;fill-rule:nonzero;"/>
        <path d="M98.132,727.788C97.948,727.883 97.541,728.018 97.021,728.018C95.854,728.018 95.094,727.219 95.094,726.036C95.094,724.844 95.909,723.981 97.173,723.981C97.589,723.981 97.956,724.084 98.148,724.18L97.988,724.725C97.82,724.629 97.557,724.54 97.173,724.54C96.285,724.54 95.806,725.196 95.806,726.004C95.806,726.899 96.381,727.452 97.148,727.452C97.549,727.452 97.813,727.346 98.013,727.258L98.132,727.788Z" style="fill:white;fill-rule:nonzero;"/>
        <path d="M99.302,726.123C99.317,727.075 99.926,727.467 100.629,727.467C101.133,727.467 101.437,727.379 101.7,727.266L101.82,727.77C101.572,727.883 101.148,728.018 100.533,728.018C99.342,728.018 98.63,727.227 98.63,726.059C98.63,724.893 99.317,723.973 100.445,723.973C101.708,723.973 102.044,725.084 102.044,725.795C102.044,725.94 102.028,726.051 102.021,726.123L99.302,726.123ZM101.364,725.62C101.372,725.172 101.181,724.477 100.389,724.477C99.678,724.477 99.365,725.131 99.31,725.62L101.364,725.62Z" style="fill:white;fill-rule:nonzero;"/>
        <path d="M105.462,723.133L105.462,724.061L106.469,724.061L106.469,724.596L105.462,724.596L105.462,726.684C105.462,727.163 105.598,727.434 105.989,727.434C106.181,727.434 106.293,727.418 106.397,727.387L106.429,727.915C106.293,727.971 106.077,728.018 105.806,728.018C105.478,728.018 105.214,727.907 105.046,727.715C104.846,727.506 104.773,727.163 104.773,726.707L104.773,724.596L104.174,724.596L104.174,724.061L104.773,724.061L104.773,723.35L105.462,723.133Z" style="fill:white;fill-rule:nonzero;"/>
        <path d="M107.606,726.123C107.621,727.075 108.229,727.467 108.933,727.467C109.437,727.467 109.74,727.379 110.004,727.266L110.124,727.77C109.876,727.883 109.452,728.018 108.837,728.018C107.646,728.018 106.934,727.227 106.934,726.059C106.934,724.893 107.621,723.973 108.749,723.973C110.012,723.973 110.348,725.084 110.348,725.795C110.348,725.94 110.332,726.051 110.324,726.123L107.606,726.123ZM109.668,725.62C109.676,725.172 109.484,724.477 108.692,724.477C107.981,724.477 107.669,725.131 107.613,725.62L109.668,725.62Z" style="fill:white;fill-rule:nonzero;"/>
        <path d="M111.525,724.061L112.077,724.893C112.222,725.108 112.342,725.307 112.469,725.524L112.493,725.524C112.621,725.291 112.749,725.092 112.877,724.885L113.421,724.061L114.181,724.061L112.861,725.932L114.221,727.93L113.421,727.93L112.854,727.059C112.701,726.834 112.573,726.62 112.438,726.387L112.421,726.387C112.293,726.627 112.157,726.827 112.014,727.059L111.454,727.93L110.678,727.93L112.054,725.956L110.742,724.061L111.525,724.061Z" style="fill:white;fill-rule:nonzero;"/>
        <path d="M115.854,723.133L115.854,724.061L116.86,724.061L116.86,724.596L115.854,724.596L115.854,726.684C115.854,727.163 115.989,727.434 116.381,727.434C116.572,727.434 116.685,727.418 116.789,727.387L116.82,727.915C116.685,727.971 116.469,728.018 116.197,728.018C115.869,728.018 115.606,727.907 115.438,727.715C115.237,727.506 115.165,727.163 115.165,726.707L115.165,724.596L114.565,724.596L114.565,724.061L115.165,724.061L115.165,723.35L115.854,723.133Z" style="fill:white;fill-rule:nonzero;"/>
        <path d="M119.35,722.254L120.053,722.254L120.053,724.668L120.069,724.668C120.181,724.469 120.356,724.293 120.572,724.172C120.78,724.053 121.028,723.973 121.292,723.973C121.812,723.973 122.644,724.293 122.644,725.627L122.644,727.93L121.939,727.93L121.939,725.707C121.939,725.084 121.708,724.557 121.044,724.557C120.589,724.557 120.229,724.875 120.101,725.26C120.061,725.356 120.053,725.459 120.053,725.596L120.053,727.93L119.35,727.93L119.35,722.254Z" style="fill:white;fill-rule:nonzero;"/>
        <path d="M124.181,726.123C124.196,727.075 124.805,727.467 125.508,727.467C126.012,727.467 126.315,727.379 126.579,727.266L126.699,727.77C126.451,727.883 126.027,728.018 125.412,728.018C124.221,728.018 123.509,727.227 123.509,726.059C123.509,724.893 124.196,723.973 125.324,723.973C126.587,723.973 126.923,725.084 126.923,725.795C126.923,725.94 126.907,726.051 126.899,726.123L124.181,726.123ZM126.243,725.62C126.251,725.172 126.06,724.477 125.268,724.477C124.557,724.477 124.244,725.131 124.189,725.62L126.243,725.62Z" style="fill:white;fill-rule:nonzero;"/>
        <path d="M127.798,725.268C127.798,724.813 127.789,724.42 127.766,724.061L128.381,724.061L128.405,724.821L128.438,724.821C128.613,724.301 129.037,723.973 129.509,723.973C129.589,723.973 129.645,723.981 129.709,723.997L129.709,724.661C129.637,724.645 129.564,724.637 129.469,724.637C128.973,724.637 128.621,725.012 128.525,725.54C128.509,725.635 128.493,725.748 128.493,725.868L128.493,727.93L127.798,727.93L127.798,725.268Z" style="fill:white;fill-rule:nonzero;"/>
        <path d="M130.726,726.123C130.741,727.075 131.35,727.467 132.053,727.467C132.557,727.467 132.86,727.379 133.124,727.266L133.244,727.77C132.996,727.883 132.572,728.018 131.957,728.018C130.766,728.018 130.054,727.227 130.054,726.059C130.054,724.893 130.741,723.973 131.869,723.973C133.132,723.973 133.468,725.084 133.468,725.795C133.468,725.94 133.452,726.051 133.444,726.123L130.726,726.123ZM132.788,725.62C132.796,725.172 132.605,724.477 131.813,724.477C131.102,724.477 130.789,725.131 130.733,725.62L132.788,725.62Z" style="fill:white;fill-rule:nonzero;"/>
        <path d="M98.974,646.203L110.825,636.151L108.069,636.151L92.261,649.559L113.04,649.559L113.181,649.45L117.005,646.203L98.974,646.203Z" style="fill:white;fill-rule:nonzero;"/>
        <path d="M114.851,638.018L117.054,636.151L115.288,636.151L110.554,640.168L124.114,640.168L126.644,638.018L114.851,638.018Z" style="fill:white;fill-rule:nonzero;"/>
        <path d="M107.401,641.851L114.122,636.151L111.919,636.151L102.03,644.536L118.968,644.536L122.132,641.851L107.401,641.851Z" style="fill:white;fill-rule:nonzero;"/>
        <path d="M311.32,629.413C308.392,626.484 304.553,625.02 300.714,625.02L40.714,625.02C36.875,625.02 33.036,626.484 30.107,629.413C27.178,632.342 25.714,636.18 25.714,640.02L25.714,790.02C25.714,793.858 27.178,797.698 30.107,800.625C33.036,803.555 36.875,805.02 40.714,805.02L300.714,805.02C304.553,805.02 308.392,803.555 311.32,800.625C314.249,797.698 315.714,793.858 315.714,790.02L315.714,640.02C315.714,636.18 314.249,632.342 311.32,629.413ZM311.714,790.02C311.714,792.959 310.568,795.721 308.49,797.797C306.415,799.875 303.652,801.02 300.714,801.02L40.714,801.02C37.774,801.02 35.013,799.875 32.937,797.797C30.859,795.721 29.714,792.959 29.714,790.02L29.714,640.02C29.714,637.081 30.859,634.319 32.937,632.243C35.013,630.165 37.774,629.02 40.714,629.02L300.714,629.02C303.652,629.02 306.415,630.165 308.49,632.243C310.568,634.319 311.714,637.081 311.714,640.02L311.714,790.02Z" style="fill:rgb(224,228,204);fill-rule:nonzero;"/>
    </g>
    <defs>
        <linearGradient id="_Linear1" x1="0" y1="0" x2="1" y2="0" gradientUnits="userSpaceOnUse" gradientTransform="matrix(360.002,0,0,126.667,-4.9028,673.15)"><stop offset="0" style="stop-color:rgb(110,201,54);stop-opacity:1"/><stop offset="1" style="stop-color:rgb(145,214,102);stop-opacity:1"/></linearGradient>
        <linearGradient id="_Linear2" x1="0" y1="0" x2="1" y2="0" gradientUnits="userSpaceOnUse" gradientTransform="matrix(290,0,0,117.203,25.3765,689.816)"><stop offset="0" style="stop-color:rgb(186,229,159);stop-opacity:1"/><stop offset="0.6" style="stop-color:rgb(93,195,31);stop-opacity:1"/><stop offset="1" style="stop-color:rgb(71,187,0);stop-opacity:1"/></linearGradient>
        <linearGradient id="_Linear3" x1="0" y1="0" x2="1" y2="0" gradientUnits="userSpaceOnUse" gradientTransform="matrix(342.618,0,0,38.9346,6.9448,754.93)"><stop offset="0" style="stop-color:rgb(110,200,54);stop-opacity:1"/><stop offset="1" style="stop-color:rgb(110,200,54);stop-opacity:1"/></linearGradient>
    </defs>
</svg>
