<?xml version="1.0" encoding="UTF-8" standalone="no"?>
<!DOCTYPE svg PUBLIC "-//W3C//DTD SVG 1.1//EN" "http://www.w3.org/Graphics/SVG/1.1/DTD/svg11.dtd">
<svg width="100%" height="100%" viewBox="0 0 290 181" version="1.1" xmlns="http://www.w3.org/2000/svg" xmlns:xlink="http://www.w3.org/1999/xlink" xml:space="preserve" xmlns:serif="http://www.serif.com/" style="fill-rule:evenodd;clip-rule:evenodd;stroke-linejoin:round;stroke-miterlimit:1.41421;">
    <g transform="matrix(1,0,0,1,-645.714,-625.019)">
        <path d="M920.712,629.019L660.714,629.019C657.777,629.019 655.015,630.162 652.935,632.24C650.857,634.318 649.714,637.082 649.714,640.019L649.714,790.021C649.714,792.958 650.857,795.72 652.935,797.798C655.013,799.876 657.777,801.019 660.714,801.019L920.712,801.019C923.652,801.019 926.416,799.876 928.492,797.798C930.57,795.72 931.712,792.958 931.712,790.021L931.712,640.019C931.712,637.082 930.57,634.318 928.492,632.24C926.414,630.162 923.65,629.019 920.712,629.019Z" style="fill:white;fill-rule:nonzero;"/>
        <path d="M935.714,641.365L772.06,805.021L774.191,805.021L935.714,643.496L935.714,641.365Z" style="fill:rgb(0,113,188);fill-rule:nonzero;"/>
        <path d="M935.714,644.673L775.369,805.021L777.498,805.021L935.714,646.802L935.714,644.673Z" style="fill:rgb(255,255,0);fill-rule:nonzero;"/>
        <path d="M935.714,670.773L801.466,805.021L803.599,805.021L935.714,672.906L935.714,670.773Z" style="fill:rgb(255,255,0);fill-rule:nonzero;"/>
        <path d="M935.714,674.468L805.162,805.021L807.293,805.021L935.714,676.597L935.714,674.468Z" style="fill:rgb(0,255,255);fill-rule:nonzero;"/>
        <path d="M935.714,716.8L847.494,805.021L849.648,805.021L935.714,718.953L935.714,716.8Z" style="fill:rgb(102,45,145);fill-rule:nonzero;"/>
        <path d="M935.714,693.664L824.359,805.021L826.49,805.021L935.714,695.794L935.714,693.664Z" style="fill:rgb(0,255,0);fill-rule:nonzero;"/>
        <path d="M935.714,730.582L861.275,805.021L863.429,805.021L935.714,732.734L935.714,730.582Z" style="fill:rgb(0,255,255);fill-rule:nonzero;"/>
        <path d="M935.714,734.623L865.316,805.021L868.257,805.021L935.714,737.562L935.714,734.623Z" style="fill:rgb(0,255,0);fill-rule:nonzero;"/>
        <path d="M935.714,648.874L779.57,805.021L781.312,805.021L935.714,650.617L935.714,648.874Z" style="fill:rgb(237,28,36);fill-rule:nonzero;"/>
        <path d="M935.714,678.665L809.361,805.021L811.107,805.021L935.714,680.412L935.714,678.665Z" style="fill:rgb(237,28,36);fill-rule:nonzero;"/>
        <path d="M935.714,697.884L828.58,805.021L831.523,805.021L935.714,700.828L935.714,697.884Z" style="fill:rgb(255,255,0);fill-rule:nonzero;"/>
        <path d="M935.714,667.38L798.076,805.021L800.23,805.021L935.714,669.535L935.714,667.38Z" style="fill:rgb(57,181,74);fill-rule:nonzero;"/>
        <path d="M935.714,690.378L821.074,805.021L822.269,805.021L935.714,691.576L935.714,690.378Z" style="fill:rgb(0,255,255);fill-rule:nonzero;"/>
        <path d="M935.714,701.945L832.64,805.021L833.835,805.021L935.714,703.142L935.714,701.945Z" style="fill:rgb(0,104,55);fill-rule:nonzero;"/>
        <path d="M935.714,714.509L845.205,805.021L846.4,805.021L935.714,715.705L935.714,714.509Z" style="fill:rgb(61,61,61);fill-rule:nonzero;"/>
        <path d="M935.714,738.882L869.576,805.021L870.775,805.021L935.714,740.082L935.714,738.882Z" style="fill:rgb(166,124,82);fill-rule:nonzero;"/>
        <path d="M935.714,704.646L835.341,805.021L836.556,805.021L935.714,705.861L935.714,704.646Z" style="fill:rgb(41,171,226);fill-rule:nonzero;"/>
        <path d="M935.714,720.415L851.111,805.021L852.306,805.021L935.714,721.613L935.714,720.415Z" style="fill:rgb(247,147,30);fill-rule:nonzero;"/>
        <path d="M935.714,640.019C935.714,638.083 935.339,636.146 934.593,634.326L763.902,805.021L770.882,805.021L935.714,640.189L935.714,640.019Z" style="fill:rgb(0,255,0);fill-rule:nonzero;"/>
        <path d="M935.714,652.443L783.138,805.021L786.916,805.021L935.714,656.222L935.714,652.443Z" style="fill:rgb(0,255,255);fill-rule:nonzero;"/>
        <path d="M935.714,659.386L790.08,805.021L795.724,805.021L935.714,665.029L935.714,659.386Z" style="fill:rgb(237,30,121);fill-rule:nonzero;"/>
        <path d="M935.714,707.386L838.082,805.021L843.742,805.021L935.714,713.046L935.714,707.386Z" style="fill:rgb(237,28,36);fill-rule:nonzero;"/>
        <path d="M935.714,681.79L812.486,805.021L820.361,805.021L935.714,689.665L935.714,681.79Z" style="fill:rgb(0,0,255);fill-rule:nonzero;"/>
        <path d="M935.714,723.154L853.847,805.021L859.734,805.021L935.714,729.04L935.714,723.154Z" style="fill:rgb(241,90,36);fill-rule:nonzero;"/>
        <path d="M935.714,742.736L873.431,805.021L873.898,805.021L935.714,743.205L935.714,742.736Z" style="fill:rgb(61,61,61);fill-rule:nonzero;"/>
        <path d="M935.714,776.527L907.222,805.021L909.375,805.021L935.714,778.681L935.714,776.527Z" style="fill:rgb(237,28,36);fill-rule:nonzero;"/>
        <path d="M927.05,803.601L934.296,796.357C934.783,795.312 935.15,794.226 935.384,793.115L923.81,804.689C924.919,804.457 926.005,804.089 927.05,803.601Z" style="fill:rgb(61,61,61);fill-rule:nonzero;"/>
        <path d="M931.322,800.626C931.699,800.249 932.05,799.855 932.378,799.449L930.144,801.685C930.55,801.355 930.943,801.005 931.322,800.626Z" style="fill:rgb(61,61,61);fill-rule:nonzero;"/>
        <path d="M935.714,780.792L911.488,805.021L913.636,805.021L935.714,782.943L935.714,780.792Z" style="fill:rgb(0,255,255);fill-rule:nonzero;"/>
        <path d="M935.714,790.021L935.714,784.648L915.343,805.021L920.714,805.021C921.289,805.021 921.861,804.976 922.431,804.912L935.605,791.738C935.671,791.167 935.714,790.593 935.714,790.021Z" style="fill:rgb(0,255,0);fill-rule:nonzero;"/>
        <path d="M935.714,745.152L875.845,805.021L877.998,805.021L935.714,747.304L935.714,745.152Z" style="fill:rgb(0,255,255);fill-rule:nonzero;"/>
        <path d="M935.714,771.253L901.947,805.021L904.099,805.021L935.714,773.404L935.714,771.253Z" style="fill:rgb(0,104,55);fill-rule:nonzero;"/>
        <path d="M935.714,749.353L880.048,805.021L881.796,805.021L935.714,751.101L935.714,749.353Z" style="fill:rgb(57,181,74);fill-rule:nonzero;"/>
        <path d="M935.714,767.863L898.558,805.021L900.689,805.021L935.714,769.994L935.714,767.863Z" style="fill:rgb(0,0,255);fill-rule:nonzero;"/>
        <path d="M935.714,752.925L883.621,805.021L887.396,805.021L935.714,756.703L935.714,752.925Z" style="fill:rgb(251,176,59);fill-rule:nonzero;"/>
        <path d="M935.714,759.869L890.564,805.021L896.222,805.021L935.714,765.527L935.714,759.869Z" style="fill:rgb(217,224,33);fill-rule:nonzero;"/>
        <path d="M691.857,625.019L645.714,671.162L645.714,674.107L694.802,625.019L691.857,625.019Z" style="fill:rgb(57,181,74);fill-rule:nonzero;"/>
        <path d="M696.546,625.019L645.714,675.851L645.714,677.07L697.765,625.019L696.546,625.019Z" style="fill:rgb(147,39,143);fill-rule:nonzero;"/>
        <path d="M699.226,625.019L645.714,678.533L645.714,679.017L699.712,625.019L699.226,625.019Z" style="fill:rgb(255,255,0);fill-rule:nonzero;"/>
        <path d="M733.037,625.019L645.714,712.341L645.714,714.494L735.187,625.019L733.037,625.019Z" style="fill:rgb(0,0,255);fill-rule:nonzero;"/>
        <path d="M737.298,625.019L645.714,716.603L645.714,718.736L739.429,625.019L737.298,625.019Z" style="fill:rgb(255,0,255);fill-rule:nonzero;"/>
        <path d="M741.154,625.019L645.714,720.46L645.714,727.421L748.117,625.019L741.154,625.019Z" style="fill:rgb(0,255,0);fill-rule:nonzero;"/>
        <path d="M701.66,625.019L645.714,680.964L645.714,683.095L703.791,625.019L701.66,625.019Z" style="fill:rgb(0,255,0);fill-rule:nonzero;"/>
        <path d="M727.759,625.019L645.714,707.064L645.714,709.197L729.89,625.019L727.759,625.019Z" style="fill:rgb(255,0,0);fill-rule:nonzero;"/>
        <path d="M705.841,625.019L645.714,685.146L645.714,686.892L707.587,625.019L705.841,625.019Z" style="fill:rgb(0,0,255);fill-rule:nonzero;"/>
        <path d="M724.351,625.019L645.714,703.656L645.714,705.806L726.502,625.019L724.351,625.019Z" style="fill:rgb(34,181,115);fill-rule:nonzero;"/>
        <path d="M709.414,625.019L645.714,688.718L645.714,692.494L713.189,625.019L709.414,625.019Z" style="fill:rgb(241,90,36);fill-rule:nonzero;"/>
        <path d="M716.355,625.019L645.714,695.66L645.714,701.322L722.017,625.019L716.355,625.019Z" style="fill:rgb(0,255,255);fill-rule:nonzero;"/>
        <path d="M925.582,625.847L746.408,805.021L748.517,805.021L927.084,626.455C926.591,626.224 926.091,626.021 925.582,625.847Z" style="fill:rgb(255,255,0);fill-rule:nonzero;"/>
        <path d="M928.459,627.189L750.627,805.021L752.779,805.021L929.74,628.058C929.324,627.744 928.896,627.455 928.459,627.189Z" style="fill:rgb(102,45,145);fill-rule:nonzero;"/>
        <path d="M931.322,629.414C931.117,629.208 930.898,629.029 930.687,628.839L754.505,805.021L761.464,805.021L933.791,632.693C933.132,631.521 932.32,630.412 931.322,629.414Z" style="fill:rgb(193,39,45);fill-rule:nonzero;"/>
        <path d="M670.246,625.019L645.714,649.55L645.714,651.703L672.396,625.019L670.246,625.019Z" style="fill:rgb(0,255,255);fill-rule:nonzero;"/>
        <path d="M673.937,625.019L645.714,653.242L645.714,655.394L676.089,625.019L673.937,625.019Z" style="fill:rgb(0,255,0);fill-rule:nonzero;"/>
        <path d="M678.138,625.019L645.714,657.443L645.714,659.191L679.886,625.019L678.138,625.019Z" style="fill:rgb(193,39,45);fill-rule:nonzero;"/>
        <path d="M666.875,625.019L645.714,646.179L645.714,648.31L669.005,625.019L666.875,625.019Z" style="fill:rgb(255,0,0);fill-rule:nonzero;"/>
        <path d="M650.109,629.414C648.886,630.634 647.935,632.019 647.224,633.49L654.185,626.529C652.714,627.242 651.33,628.193 650.109,629.414Z" style="fill:rgb(61,61,61);fill-rule:nonzero;"/>
        <path d="M660.714,625.019C660.044,625.019 659.375,625.082 658.709,625.169L645.865,638.013C645.775,638.679 645.714,639.349 645.714,640.019L645.714,643.826L664.521,625.019L660.714,625.019Z" style="fill:rgb(255,255,0);fill-rule:nonzero;"/>
        <path d="M681.265,625.019L645.714,660.572L645.714,668.443L689.138,625.019L681.265,625.019Z" style="fill:rgb(237,30,121);fill-rule:nonzero;"/>
        <path d="M771.232,625.019L645.714,750.537L645.714,752.689L773.382,625.019L771.232,625.019Z" style="fill:rgb(255,255,0);fill-rule:nonzero;"/>
        <path d="M787.488,625.019L645.714,766.792L645.714,768.923L789.619,625.019L787.488,625.019Z" style="fill:rgb(255,0,0);fill-rule:nonzero;"/>
        <path d="M790.796,625.019L645.714,770.103L645.714,772.253L792.947,625.019L790.796,625.019Z" style="fill:rgb(251,176,59);fill-rule:nonzero;"/>
        <path d="M816.896,625.019L646.668,795.249C646.857,795.759 647.07,796.259 647.318,796.751L819.046,625.019L816.896,625.019Z" style="fill:rgb(140,198,63);fill-rule:nonzero;"/>
        <path d="M820.587,625.019L647.871,797.74C648.134,798.179 648.423,798.607 648.738,799.023L822.74,625.019L820.587,625.019Z" style="fill:rgb(255,255,0);fill-rule:nonzero;"/>
        <path d="M839.828,625.019L659.869,804.98C660.15,804.996 660.433,805.021 660.714,805.021L661.98,805.021L841.98,625.019L839.828,625.019Z" style="fill:rgb(0,255,255);fill-rule:nonzero;"/>
        <path d="M775.472,625.019L645.714,754.779L645.714,756.931L777.625,625.019L775.472,625.019Z" style="fill:rgb(41,171,226);fill-rule:nonzero;"/>
        <path d="M795.017,625.019L645.714,774.324L645.714,776.048L796.742,625.019L795.017,625.019Z" style="fill:rgb(102,45,145);fill-rule:nonzero;"/>
        <path d="M824.791,625.019L649.669,800.142C649.818,800.302 649.953,800.47 650.109,800.626C650.248,800.765 650.396,800.884 650.539,801.017L826.535,625.019L824.791,625.019Z" style="fill:rgb(255,0,0);fill-rule:nonzero;"/>
        <path d="M844.05,625.019L664.05,805.021L666.974,805.021L846.974,625.019L844.05,625.019Z" style="fill:rgb(57,181,74);fill-rule:nonzero;"/>
        <path d="M754.793,625.019L645.714,734.099L645.714,736.249L756.945,625.019L754.793,625.019Z" style="fill:rgb(255,0,0);fill-rule:nonzero;"/>
        <path d="M813.527,625.019L645.949,792.599C646.048,793.183 646.175,793.761 646.347,794.332L815.66,625.019L813.527,625.019Z" style="fill:rgb(198,156,109);fill-rule:nonzero;"/>
        <path d="M836.519,625.019L657.002,804.539C657.33,804.623 657.66,804.705 657.992,804.767L837.738,625.019L836.519,625.019Z" style="fill:rgb(237,30,121);fill-rule:nonzero;"/>
        <path d="M848.109,625.019L668.109,805.021L669.328,805.021L849.328,625.019L848.109,625.019Z" style="fill:rgb(237,28,36);fill-rule:nonzero;"/>
        <path d="M761.064,625.019L645.714,740.369L645.714,747.332L768.027,625.019L761.064,625.019Z" style="fill:rgb(255,0,255);fill-rule:nonzero;"/>
        <path d="M779.349,625.019L645.714,758.656L645.714,765.615L786.31,625.019L779.349,625.019Z" style="fill:rgb(0,255,0);fill-rule:nonzero;"/>
        <path d="M798.589,625.019L645.714,777.896L645.714,781.65L802.345,625.019L798.589,625.019Z" style="fill:rgb(0,0,255);fill-rule:nonzero;"/>
        <path d="M805.509,625.019L645.714,784.816L645.714,790.021C645.714,790.165 645.732,790.312 645.736,790.457L811.171,625.019L805.509,625.019Z" style="fill:rgb(237,28,36);fill-rule:nonzero;"/>
        <path d="M827.914,625.019L651.265,801.669C652.824,802.937 654.58,803.845 656.418,804.394L835.791,625.019L827.914,625.019Z" style="fill:rgb(0,0,255);fill-rule:nonzero;"/>
        <path d="M875.427,625.019L695.427,805.021L697.578,805.021L877.578,625.019L875.427,625.019Z" style="fill:rgb(0,104,55);fill-rule:nonzero;"/>
        <path d="M891.681,625.019L711.681,805.021L713.812,805.021L893.812,625.019L891.681,625.019Z" style="fill:rgb(255,0,0);fill-rule:nonzero;"/>
        <path d="M895.011,625.019L715.011,805.021L717.14,805.021L897.14,625.019L895.011,625.019Z" style="fill:rgb(252,238,33);fill-rule:nonzero;"/>
        <path d="M921.072,625.037L741.089,805.021L743.242,805.021L923.044,625.216C922.39,625.115 921.732,625.052 921.072,625.037Z" style="fill:rgb(237,30,121);fill-rule:nonzero;"/>
        <path d="M879.687,625.019L699.687,805.021L701.82,805.021L881.82,625.019L879.687,625.019Z" style="fill:rgb(237,30,121);fill-rule:nonzero;"/>
        <path d="M899.212,625.019L719.212,805.021L720.955,805.021L900.955,625.019L899.212,625.019Z" style="fill:rgb(0,255,255);fill-rule:nonzero;"/>
        <path d="M917.72,625.019L737.72,805.021L739.853,805.021L919.853,625.019L917.72,625.019Z" style="fill:rgb(199,178,153);fill-rule:nonzero;"/>
        <path d="M883.544,625.019L703.544,805.021L710.525,805.021L890.525,625.019L883.544,625.019Z" style="fill:rgb(0,255,0);fill-rule:nonzero;"/>
        <path d="M902.785,625.019L722.785,805.021L726.56,805.021L906.56,625.019L902.785,625.019Z" style="fill:rgb(0,0,255);fill-rule:nonzero;"/>
        <path d="M909.724,625.019L729.724,805.021L735.367,805.021L915.367,625.019L909.724,625.019Z" style="fill:rgb(0,255,0);fill-rule:nonzero;"/>
        <path d="M750.49,625.019L645.714,729.796L645.714,731.947L752.642,625.019L750.49,625.019Z" style="fill:rgb(0,0,255);fill-rule:nonzero;"/>
        <path d="M869.013,625.019L689.013,805.021L689.337,805.021L869.337,625.019L869.013,625.019Z" style="fill:rgb(61,61,61);fill-rule:nonzero;"/>
        <path d="M864.101,625.019L684.101,805.021L686.253,805.021L866.253,625.019L864.101,625.019Z" style="fill:rgb(255,0,0);fill-rule:nonzero;"/>
        <path d="M871.244,625.019L691.244,805.021L693.396,805.021L873.396,625.019L871.244,625.019Z" style="fill:rgb(0,255,255);fill-rule:nonzero;"/>
        <path d="M852.839,625.019L672.839,805.021L674.988,805.021L854.988,625.019L852.839,625.019Z" style="fill:rgb(255,255,0);fill-rule:nonzero;"/>
        <path d="M856.531,625.019L676.531,805.021L680.531,805.021L860.531,625.019L856.531,625.019Z" style="fill:rgb(0,255,0);fill-rule:nonzero;"/>
        <path d="M862.255,625.019L682.255,805.021L682.783,805.021L862.783,625.019L862.255,625.019Z" style="fill:rgb(61,61,61);fill-rule:nonzero;"/>
        <rect x="647.689" y="744.148" width="286" height="46" style="fill:white;fill-rule:nonzero;"/>
        <path d="M752.173,773.505C751.726,773.73 750.83,773.968 749.681,773.968C747.019,773.968 745.015,772.273 745.015,769.177C745.015,766.22 747.019,764.218 749.947,764.218C751.123,764.218 751.865,764.47 752.187,764.638L751.894,765.632C751.431,765.41 750.773,765.24 749.988,765.24C747.775,765.24 746.304,766.656 746.304,769.134C746.304,771.447 747.636,772.931 749.933,772.931C750.675,772.931 751.431,772.777 751.921,772.539L752.173,773.505Z" style="fill:rgb(51,51,51);fill-rule:nonzero;"/>
        <path d="M759.636,770.367C759.636,772.874 757.898,773.968 756.259,773.968C754.425,773.968 753.009,772.623 753.009,770.48C753.009,768.21 754.494,766.88 756.373,766.88C758.318,766.88 759.636,768.294 759.636,770.367ZM754.257,770.437C754.257,771.921 755.111,773.042 756.316,773.042C757.492,773.042 758.375,771.937 758.375,770.41C758.375,769.261 757.8,767.804 756.343,767.804C754.886,767.804 754.257,769.148 754.257,770.437Z" style="fill:rgb(51,51,51);fill-rule:nonzero;"/>
        <path d="M761.187,768.869C761.187,768.167 761.173,767.593 761.13,767.033L762.209,767.033L762.265,768.126L762.308,768.126C762.685,767.482 763.316,766.88 764.437,766.88C765.361,766.88 766.062,767.439 766.355,768.238L766.384,768.238C766.593,767.861 766.859,767.566 767.14,767.355C767.546,767.048 767.994,766.88 768.638,766.88C769.535,766.88 770.867,767.468 770.867,769.822L770.867,773.814L769.662,773.814L769.662,769.976C769.662,768.673 769.185,767.888 768.191,767.888C767.49,767.888 766.943,768.406 766.734,769.009C766.677,769.177 766.636,769.4 766.636,769.624L766.636,773.814L765.431,773.814L765.431,769.751C765.431,768.673 764.955,767.888 764.017,767.888C763.246,767.888 762.685,768.503 762.49,769.121C762.419,769.302 762.392,769.513 762.392,769.722L762.392,773.814L761.187,773.814L761.187,768.869Z" style="fill:rgb(51,51,51);fill-rule:nonzero;"/>
        <path d="M772.863,769.248C772.863,768.378 772.834,767.677 772.806,767.033L773.914,767.033L773.968,768.197L773.998,768.197C774.502,767.371 775.3,766.88 776.406,766.88C778.044,766.88 779.279,768.267 779.279,770.326C779.279,772.763 777.793,773.968 776.197,773.968C775.3,773.968 774.515,773.576 774.109,772.902L774.082,772.902L774.082,776.587L772.863,776.587L772.863,769.248ZM774.082,771.054C774.082,771.236 774.109,771.404 774.136,771.558C774.361,772.412 775.103,773.001 775.986,773.001C777.289,773.001 778.044,771.937 778.044,770.382C778.044,769.023 777.332,767.861 776.029,767.861C775.187,767.861 774.404,768.462 774.166,769.386C774.123,769.54 774.082,769.722 774.082,769.892L774.082,771.054Z" style="fill:rgb(51,51,51);fill-rule:nonzero;"/>
        <path d="M785.591,772.189C785.591,772.777 785.619,773.351 785.703,773.814L784.582,773.814L784.484,772.958L784.443,772.958C784.064,773.492 783.335,773.968 782.369,773.968C780.996,773.968 780.296,773.001 780.296,772.021C780.296,770.382 781.753,769.486 784.373,769.499L784.373,769.359C784.373,768.798 784.218,767.79 782.832,767.79C782.201,767.79 781.543,767.986 781.066,768.294L780.787,767.482C781.347,767.117 782.16,766.88 783.013,766.88C785.087,766.88 785.591,768.294 785.591,769.654L785.591,772.189ZM784.4,770.353C783.056,770.326 781.529,770.564 781.529,771.88C781.529,772.679 782.06,773.056 782.691,773.056C783.574,773.056 784.134,772.496 784.33,771.921C784.373,771.796 784.4,771.656 784.4,771.531L784.4,770.353Z" style="fill:rgb(51,51,51);fill-rule:nonzero;"/>
        <path d="M787.576,768.869C787.576,768.167 787.562,767.593 787.521,767.033L788.613,767.033L788.683,768.154L788.71,768.154C789.046,767.509 789.832,766.88 790.953,766.88C791.89,766.88 793.347,767.439 793.347,769.765L793.347,773.814L792.115,773.814L792.115,769.906C792.115,768.812 791.709,767.902 790.546,767.902C789.734,767.902 789.103,768.476 788.892,769.164C788.837,769.316 788.808,769.527 788.808,769.738L788.808,773.814L787.576,773.814L787.576,768.869Z" style="fill:rgb(51,51,51);fill-rule:nonzero;"/>
        <path d="M795.613,767.033L797.097,771.04C797.252,771.488 797.419,772.021 797.531,772.427L797.56,772.427C797.685,772.021 797.826,771.501 797.994,771.011L799.339,767.033L800.64,767.033L798.793,771.867C797.91,774.191 797.308,775.382 796.466,776.111C795.865,776.642 795.261,776.853 794.955,776.91L794.646,775.873C794.955,775.775 795.361,775.578 795.724,775.271C796.06,775.003 796.48,774.527 796.761,773.898C796.818,773.771 796.859,773.673 796.859,773.603C796.859,773.533 796.832,773.435 796.775,773.281L794.267,767.033L795.613,767.033Z" style="fill:rgb(51,51,51);fill-rule:nonzero;"/>
        <path d="M804.726,768.869C804.726,768.167 804.712,767.593 804.669,767.033L805.763,767.033L805.832,768.154L805.861,768.154C806.197,767.509 806.98,766.88 808.101,766.88C809.041,766.88 810.498,767.439 810.498,769.765L810.498,773.814L809.263,773.814L809.263,769.906C809.263,768.812 808.857,767.902 807.695,767.902C806.882,767.902 806.253,768.476 806.043,769.164C805.986,769.316 805.959,769.527 805.959,769.738L805.959,773.814L804.726,773.814L804.726,768.869Z" style="fill:rgb(51,51,51);fill-rule:nonzero;"/>
        <path d="M817.257,772.189C817.257,772.777 817.287,773.351 817.371,773.814L816.25,773.814L816.152,772.958L816.109,772.958C815.73,773.492 815.003,773.968 814.037,773.968C812.664,773.968 811.962,773.001 811.962,772.021C811.962,770.382 813.419,769.486 816.039,769.499L816.039,769.359C816.039,768.798 815.884,767.79 814.498,767.79C813.869,767.79 813.21,767.986 812.734,768.294L812.453,767.482C813.013,767.117 813.826,766.88 814.681,766.88C816.753,766.88 817.257,768.294 817.257,769.654L817.257,772.189ZM816.068,770.353C814.722,770.326 813.195,770.564 813.195,771.88C813.195,772.679 813.728,773.056 814.359,773.056C815.24,773.056 815.8,772.496 815.998,771.921C816.039,771.796 816.068,771.656 816.068,771.531L816.068,770.353Z" style="fill:rgb(51,51,51);fill-rule:nonzero;"/>
        <path d="M819.244,768.869C819.244,768.167 819.23,767.593 819.187,767.033L820.265,767.033L820.322,768.126L820.365,768.126C820.742,767.482 821.373,766.88 822.494,766.88C823.418,766.88 824.119,767.439 824.412,768.238L824.441,768.238C824.65,767.861 824.916,767.566 825.197,767.355C825.603,767.048 826.05,766.88 826.695,766.88C827.591,766.88 828.923,767.468 828.923,769.822L828.923,773.814L827.718,773.814L827.718,769.976C827.718,768.673 827.242,767.888 826.248,767.888C825.546,767.888 825,768.406 824.791,769.009C824.734,769.177 824.693,769.4 824.693,769.624L824.693,773.814L823.488,773.814L823.488,769.751C823.488,768.673 823.011,767.888 822.074,767.888C821.302,767.888 820.742,768.503 820.546,769.121C820.476,769.302 820.449,769.513 820.449,769.722L820.449,773.814L819.244,773.814L819.244,768.869Z" style="fill:rgb(51,51,51);fill-rule:nonzero;"/>
        <path d="M831.607,770.648C831.634,772.314 832.699,773.001 833.931,773.001C834.814,773.001 835.347,772.847 835.808,772.65L836.019,773.533C835.585,773.73 834.841,773.968 833.763,773.968C831.677,773.968 830.429,772.582 830.429,770.535C830.429,768.49 831.634,766.88 833.609,766.88C835.822,766.88 836.412,768.826 836.412,770.074C836.412,770.326 836.382,770.521 836.369,770.648L831.607,770.648ZM835.22,769.765C835.234,768.98 834.898,767.761 833.511,767.761C832.265,767.761 831.718,768.91 831.621,769.765L835.22,769.765Z" style="fill:rgb(51,51,51);fill-rule:nonzero;"/>
        <path d="M771.71,782.693C771.918,782.83 772.287,782.974 772.638,782.974C773.15,782.974 773.39,782.718 773.39,782.398C773.39,782.062 773.189,781.878 772.669,781.687C771.974,781.439 771.646,781.054 771.646,780.591C771.646,779.966 772.15,779.455 772.982,779.455C773.373,779.455 773.716,779.568 773.933,779.695L773.757,780.207C773.605,780.111 773.326,779.984 772.966,779.984C772.55,779.984 772.318,780.222 772.318,780.511C772.318,780.832 772.55,780.974 773.054,781.167C773.726,781.423 774.07,781.757 774.07,782.333C774.07,783.013 773.541,783.501 772.623,783.501C772.199,783.501 771.806,783.39 771.535,783.23L771.71,782.693Z" style="fill:rgb(51,51,51);fill-rule:nonzero;"/>
        <path d="M777.693,782.486C777.693,782.822 777.709,783.15 777.757,783.414L777.117,783.414L777.062,782.925L777.037,782.925C776.822,783.23 776.406,783.501 775.853,783.501C775.07,783.501 774.671,782.949 774.671,782.39C774.671,781.455 775.502,780.943 776.998,780.951L776.998,780.871C776.998,780.55 776.91,779.976 776.117,779.976C775.757,779.976 775.382,780.087 775.111,780.263L774.951,779.8C775.271,779.591 775.734,779.455 776.222,779.455C777.406,779.455 777.693,780.263 777.693,781.039L777.693,782.486ZM777.013,781.439C776.246,781.423 775.375,781.558 775.375,782.31C775.375,782.765 775.677,782.982 776.039,782.982C776.541,782.982 776.861,782.662 776.974,782.333C776.998,782.261 777.013,782.181 777.013,782.111L777.013,781.439Z" style="fill:rgb(51,51,51);fill-rule:nonzero;"/>
        <path d="M778.83,780.591C778.83,780.191 778.822,779.863 778.798,779.544L779.414,779.544L779.445,780.167L779.47,780.167C779.685,779.8 780.044,779.455 780.685,779.455C781.212,779.455 781.613,779.775 781.781,780.232L781.796,780.232C781.916,780.015 782.068,779.847 782.228,779.728C782.46,779.552 782.716,779.455 783.084,779.455C783.595,779.455 784.355,779.79 784.355,781.134L784.355,783.414L783.668,783.414L783.668,781.222C783.668,780.478 783.396,780.031 782.828,780.031C782.427,780.031 782.117,780.328 781.996,780.671C781.964,780.767 781.941,780.894 781.941,781.023L781.941,783.414L781.252,783.414L781.252,781.095C781.252,780.478 780.98,780.031 780.445,780.031C780.005,780.031 779.685,780.382 779.574,780.734C779.533,780.839 779.517,780.958 779.517,781.08L779.517,783.414L778.83,783.414L778.83,780.591Z" style="fill:rgb(51,51,51);fill-rule:nonzero;"/>
        <path d="M785.503,780.806C785.503,780.312 785.486,779.912 785.47,779.544L786.103,779.544L786.134,780.207L786.15,780.207C786.439,779.736 786.894,779.455 787.525,779.455C788.46,779.455 789.166,780.248 789.166,781.423C789.166,782.814 788.318,783.501 787.406,783.501C786.894,783.501 786.447,783.277 786.214,782.894L786.199,782.894L786.199,784.996L785.503,784.996L785.503,780.806ZM786.199,781.837C786.199,781.943 786.214,782.039 786.23,782.126C786.359,782.615 786.783,782.949 787.285,782.949C788.029,782.949 788.46,782.341 788.46,781.455C788.46,780.679 788.052,780.015 787.31,780.015C786.83,780.015 786.382,780.359 786.246,780.886C786.222,780.974 786.199,781.08 786.199,781.175L786.199,781.837Z" style="fill:rgb(51,51,51);fill-rule:nonzero;"/>
        <rect x="790.054" y="777.736" width="0.703" height="5.678" style="fill:rgb(51,51,51);fill-rule:nonzero;"/>
        <path d="M792.334,781.607C792.349,782.558 792.957,782.949 793.662,782.949C794.166,782.949 794.468,782.861 794.732,782.749L794.853,783.253C794.605,783.365 794.181,783.501 793.566,783.501C792.375,783.501 791.662,782.71 791.662,781.542C791.662,780.374 792.349,779.455 793.478,779.455C794.74,779.455 795.076,780.568 795.076,781.279C795.076,781.423 795.06,781.535 795.052,781.607L792.334,781.607ZM794.396,781.103C794.404,780.656 794.212,779.958 793.421,779.958C792.71,779.958 792.398,780.615 792.341,781.103L794.396,781.103Z" style="fill:rgb(51,51,51);fill-rule:nonzero;"/>
        <path d="M798.494,778.617L798.494,779.544L799.502,779.544L799.502,780.08L798.494,780.08L798.494,782.165C798.494,782.646 798.63,782.917 799.021,782.917C799.212,782.917 799.326,782.902 799.429,782.871L799.46,783.398C799.326,783.453 799.109,783.501 798.837,783.501C798.509,783.501 798.246,783.39 798.078,783.197C797.878,782.99 797.806,782.646 797.806,782.191L797.806,780.08L797.207,780.08L797.207,779.544L797.806,779.544L797.806,778.832L798.494,778.617Z" style="fill:rgb(51,51,51);fill-rule:nonzero;"/>
        <path d="M800.638,781.607C800.654,782.558 801.261,782.949 801.964,782.949C802.468,782.949 802.773,782.861 803.037,782.749L803.156,783.253C802.908,783.365 802.484,783.501 801.869,783.501C800.677,783.501 799.966,782.71 799.966,781.542C799.966,780.374 800.654,779.455 801.781,779.455C803.044,779.455 803.38,780.568 803.38,781.279C803.38,781.423 803.365,781.535 803.357,781.607L800.638,781.607ZM802.701,781.103C802.709,780.656 802.517,779.958 801.724,779.958C801.013,779.958 800.701,780.615 800.646,781.103L802.701,781.103Z" style="fill:rgb(51,51,51);fill-rule:nonzero;"/>
        <path d="M804.558,779.544L805.109,780.374C805.253,780.591 805.373,780.79 805.502,781.007L805.525,781.007C805.654,780.775 805.781,780.576 805.91,780.367L806.453,779.544L807.212,779.544L805.894,781.414L807.253,783.414L806.453,783.414L805.884,782.542C805.734,782.318 805.605,782.103 805.47,781.871L805.453,781.871C805.326,782.111 805.189,782.31 805.046,782.542L804.486,783.414L803.71,783.414L805.085,781.439L803.775,779.544L804.558,779.544Z" style="fill:rgb(51,51,51);fill-rule:nonzero;"/>
        <path d="M808.886,778.617L808.886,779.544L809.892,779.544L809.892,780.08L808.886,780.08L808.886,782.165C808.886,782.646 809.021,782.917 809.414,782.917C809.605,782.917 809.716,782.902 809.82,782.871L809.853,783.398C809.716,783.453 809.502,783.501 809.23,783.501C808.902,783.501 808.638,783.39 808.47,783.197C808.269,782.99 808.197,782.646 808.197,782.191L808.197,780.08L807.597,780.08L807.597,779.544L808.197,779.544L808.197,778.832L808.886,778.617Z" style="fill:rgb(51,51,51);fill-rule:nonzero;"/>
        <path d="M780.234,756.986L792.085,746.933L789.33,746.933L773.521,760.343L794.3,760.343L794.441,760.232L798.265,756.986L780.234,756.986Z" style="fill:rgb(51,51,51);fill-rule:nonzero;"/>
        <path d="M796.111,748.802L798.314,746.933L796.548,746.933L791.814,750.951L805.375,750.951L807.904,748.802L796.111,748.802Z" style="fill:rgb(51,51,51);fill-rule:nonzero;"/>
        <path d="M788.662,752.634L795.382,746.933L793.179,746.933L783.291,755.318L800.228,755.318L803.392,752.634L788.662,752.634Z" style="fill:rgb(51,51,51);fill-rule:nonzero;"/>
        <path d="M931.32,629.414C928.392,626.484 924.552,625.019 920.714,625.019L660.714,625.019C656.875,625.019 653.037,626.484 650.107,629.414C647.179,632.341 645.714,636.181 645.714,640.019L645.714,790.019C645.714,793.859 647.179,797.697 650.107,800.626C653.037,803.554 656.875,805.019 660.714,805.019L920.714,805.019C924.552,805.019 928.392,803.554 931.32,800.626C934.25,797.697 935.714,793.859 935.714,790.019L935.714,640.019C935.714,636.181 934.25,632.341 931.32,629.414ZM931.712,790.021C931.712,792.958 930.57,795.72 928.492,797.798C926.416,799.876 923.652,801.019 920.712,801.019L660.714,801.019C657.777,801.019 655.013,799.876 652.935,797.798C650.857,795.72 649.714,792.958 649.714,790.021L649.714,640.019C649.714,637.082 650.857,634.318 652.935,632.24C655.015,630.162 657.777,629.019 660.714,629.019L920.712,629.019C923.65,629.019 926.414,630.162 928.492,632.24C930.57,634.318 931.712,637.082 931.712,640.019L931.712,790.021Z" style="fill:white;fill-rule:nonzero;"/>
    </g>
</svg>
