<?xml version="1.0" encoding="UTF-8" standalone="no"?>
<!DOCTYPE svg PUBLIC "-//W3C//DTD SVG 1.1//EN" "http://www.w3.org/Graphics/SVG/1.1/DTD/svg11.dtd">
<svg width="100%" height="100%" viewBox="0 0 290 181" version="1.1" xmlns="http://www.w3.org/2000/svg" xmlns:xlink="http://www.w3.org/1999/xlink" xml:space="preserve" xmlns:serif="http://www.serif.com/" style="fill-rule:evenodd;clip-rule:evenodd;stroke-linejoin:round;stroke-miterlimit:1.41421;">
    <g transform="matrix(1,0,0,1,-955.714,-625.019)">
        <path d="M1230.71,629.019L970.714,629.019C967.777,629.019 965.015,630.162 962.935,632.24C960.857,634.318 959.714,637.082 959.714,640.019L959.714,790.021C959.714,792.958 960.857,795.72 962.935,797.798C965.013,799.876 967.777,801.019 970.714,801.019L1230.71,801.019C1233.65,801.019 1236.42,799.876 1238.49,797.798C1240.57,795.72 1241.71,792.958 1241.71,790.021L1241.71,640.019C1241.71,637.082 1240.57,634.318 1238.49,632.24C1236.41,630.162 1233.65,629.019 1230.71,629.019Z" style="fill:rgb(118,97,87);fill-rule:nonzero;"/>
        <path d="M1137.29,726.451C1136.84,726.675 1135.94,726.914 1134.79,726.914C1132.13,726.914 1130.13,725.218 1130.13,722.123C1130.13,719.165 1132.13,717.164 1135.06,717.164C1136.24,717.164 1136.98,717.415 1137.3,717.583L1137.01,718.578C1136.54,718.355 1135.89,718.185 1135.1,718.185C1132.89,718.185 1131.42,719.601 1131.42,722.08C1131.42,724.392 1132.75,725.876 1135.05,725.876C1135.79,725.876 1136.54,725.722 1137.04,725.484L1137.29,726.451Z" style="fill:white;fill-rule:nonzero;"/>
        <path d="M1144.75,723.312C1144.75,725.82 1143.01,726.914 1141.37,726.914C1139.54,726.914 1138.12,725.568 1138.12,723.425C1138.12,721.156 1139.61,719.826 1141.49,719.826C1143.43,719.826 1144.75,721.24 1144.75,723.312ZM1139.37,723.382C1139.37,724.867 1140.22,725.988 1141.43,725.988C1142.61,725.988 1143.49,724.882 1143.49,723.355C1143.49,722.207 1142.91,720.749 1141.46,720.749C1140,720.749 1139.37,722.093 1139.37,723.382Z" style="fill:white;fill-rule:nonzero;"/>
        <path d="M1146.3,721.814C1146.3,721.113 1146.29,720.539 1146.24,719.978L1147.32,719.978L1147.38,721.072L1147.42,721.072C1147.8,720.427 1148.43,719.826 1149.55,719.826C1150.47,719.826 1151.17,720.384 1151.47,721.183L1151.5,721.183C1151.71,720.806 1151.97,720.511 1152.25,720.3C1152.66,719.994 1153.11,719.826 1153.75,719.826C1154.65,719.826 1155.98,720.414 1155.98,722.767L1155.98,726.759L1154.77,726.759L1154.77,722.921C1154.77,721.619 1154.3,720.833 1153.3,720.833C1152.6,720.833 1152.06,721.351 1151.85,721.955C1151.79,722.123 1151.75,722.345 1151.75,722.57L1151.75,726.759L1150.54,726.759L1150.54,722.697C1150.54,721.619 1150.07,720.833 1149.13,720.833C1148.36,720.833 1147.8,721.449 1147.6,722.066C1147.53,722.248 1147.5,722.458 1147.5,722.667L1147.5,726.759L1146.3,726.759L1146.3,721.814Z" style="fill:white;fill-rule:nonzero;"/>
        <path d="M1157.98,722.193C1157.98,721.324 1157.95,720.623 1157.92,719.978L1159.03,719.978L1159.08,721.142L1159.11,721.142C1159.61,720.316 1160.41,719.826 1161.52,719.826C1163.16,719.826 1164.39,721.212 1164.39,723.271C1164.39,725.708 1162.91,726.914 1161.31,726.914C1160.41,726.914 1159.63,726.521 1159.22,725.847L1159.19,725.847L1159.19,729.533L1157.98,729.533L1157.98,722.193ZM1159.19,723.999C1159.19,724.181 1159.22,724.349 1159.25,724.503C1159.47,725.357 1160.22,725.947 1161.1,725.947C1162.4,725.947 1163.16,724.882 1163.16,723.328C1163.16,721.968 1162.44,720.806 1161.14,720.806C1160.3,720.806 1159.52,721.408 1159.28,722.332C1159.24,722.486 1159.19,722.667 1159.19,722.837L1159.19,723.999Z" style="fill:white;fill-rule:nonzero;"/>
        <path d="M1170.7,725.134C1170.7,725.722 1170.73,726.296 1170.82,726.759L1169.69,726.759L1169.6,725.904L1169.56,725.904C1169.18,726.437 1168.45,726.914 1167.48,726.914C1166.11,726.914 1165.41,725.947 1165.41,724.966C1165.41,723.328 1166.87,722.431 1169.49,722.445L1169.49,722.304C1169.49,721.744 1169.33,720.736 1167.94,720.736C1167.31,720.736 1166.66,720.931 1166.18,721.24L1165.9,720.427C1166.46,720.062 1167.27,719.826 1168.13,719.826C1170.2,719.826 1170.7,721.24 1170.7,722.599L1170.7,725.134ZM1169.51,723.298C1168.17,723.271 1166.64,723.509 1166.64,724.826C1166.64,725.624 1167.17,726.001 1167.8,726.001C1168.69,726.001 1169.25,725.441 1169.44,724.867C1169.49,724.742 1169.51,724.601 1169.51,724.476L1169.51,723.298Z" style="fill:white;fill-rule:nonzero;"/>
        <path d="M1172.69,721.814C1172.69,721.113 1172.67,720.539 1172.63,719.978L1173.73,719.978L1173.8,721.099L1173.82,721.099C1174.16,720.455 1174.94,719.826 1176.07,719.826C1177,719.826 1178.46,720.384 1178.46,722.71L1178.46,726.759L1177.23,726.759L1177.23,722.851C1177.23,721.757 1176.82,720.847 1175.66,720.847C1174.85,720.847 1174.22,721.421 1174.01,722.109C1173.95,722.261 1173.92,722.472 1173.92,722.683L1173.92,726.759L1172.69,726.759L1172.69,721.814Z" style="fill:white;fill-rule:nonzero;"/>
        <path d="M1180.73,719.978L1182.21,723.986C1182.36,724.433 1182.53,724.966 1182.64,725.373L1182.67,725.373C1182.8,724.966 1182.94,724.447 1183.11,723.957L1184.45,719.978L1185.75,719.978L1183.9,724.812C1183.02,727.136 1182.42,728.328 1181.58,729.056C1180.98,729.587 1180.38,729.798 1180.07,729.855L1179.76,728.818C1180.07,728.72 1180.47,728.523 1180.84,728.216C1181.17,727.949 1181.59,727.472 1181.87,726.843C1181.93,726.716 1181.97,726.619 1181.97,726.548C1181.97,726.478 1181.94,726.38 1181.89,726.226L1179.38,719.978L1180.73,719.978Z" style="fill:white;fill-rule:nonzero;"/>
        <path d="M1189.84,721.814C1189.84,721.113 1189.83,720.539 1189.78,719.978L1190.88,719.978L1190.94,721.099L1190.97,721.099C1191.31,720.455 1192.09,719.826 1193.21,719.826C1194.15,719.826 1195.61,720.384 1195.61,722.71L1195.61,726.759L1194.38,726.759L1194.38,722.851C1194.38,721.757 1193.97,720.847 1192.81,720.847C1192,720.847 1191.37,721.421 1191.15,722.109C1191.1,722.261 1191.07,722.472 1191.07,722.683L1191.07,726.759L1189.84,726.759L1189.84,721.814Z" style="fill:white;fill-rule:nonzero;"/>
        <path d="M1202.37,725.134C1202.37,725.722 1202.4,726.296 1202.48,726.759L1201.36,726.759L1201.26,725.904L1201.22,725.904C1200.84,726.437 1200.12,726.914 1199.15,726.914C1197.78,726.914 1197.08,725.947 1197.08,724.966C1197.08,723.328 1198.53,722.431 1201.15,722.445L1201.15,722.304C1201.15,721.744 1201,720.736 1199.61,720.736C1198.98,720.736 1198.32,720.931 1197.85,721.24L1197.57,720.427C1198.13,720.062 1198.94,719.826 1199.79,719.826C1201.87,719.826 1202.37,721.24 1202.37,722.599L1202.37,725.134ZM1201.18,723.298C1199.84,723.271 1198.31,723.509 1198.31,724.826C1198.31,725.624 1198.84,726.001 1199.47,726.001C1200.35,726.001 1200.91,725.441 1201.11,724.867C1201.15,724.742 1201.18,724.601 1201.18,724.476L1201.18,723.298Z" style="fill:white;fill-rule:nonzero;"/>
        <path d="M1204.36,721.814C1204.36,721.113 1204.34,720.539 1204.3,719.978L1205.38,719.978L1205.43,721.072L1205.48,721.072C1205.86,720.427 1206.49,719.826 1207.61,719.826C1208.53,719.826 1209.23,720.384 1209.53,721.183L1209.55,721.183C1209.76,720.806 1210.03,720.511 1210.31,720.3C1210.71,719.994 1211.16,719.826 1211.81,719.826C1212.7,719.826 1214.04,720.414 1214.04,722.767L1214.04,726.759L1212.83,726.759L1212.83,722.921C1212.83,721.619 1212.35,720.833 1211.36,720.833C1210.66,720.833 1210.11,721.351 1209.9,721.955C1209.85,722.123 1209.81,722.345 1209.81,722.57L1209.81,726.759L1208.6,726.759L1208.6,722.697C1208.6,721.619 1208.13,720.833 1207.19,720.833C1206.42,720.833 1205.86,721.449 1205.66,722.066C1205.59,722.248 1205.56,722.458 1205.56,722.667L1205.56,726.759L1204.36,726.759L1204.36,721.814Z" style="fill:white;fill-rule:nonzero;"/>
        <path d="M1216.72,723.593C1216.75,725.259 1217.81,725.947 1219.04,725.947C1219.93,725.947 1220.46,725.792 1220.92,725.595L1221.13,726.478C1220.7,726.675 1219.95,726.914 1218.88,726.914C1216.79,726.914 1215.54,725.527 1215.54,723.48C1215.54,721.435 1216.75,719.826 1218.72,719.826C1220.93,719.826 1221.52,721.771 1221.52,723.019C1221.52,723.271 1221.5,723.466 1221.48,723.593L1216.72,723.593ZM1220.33,722.71C1220.35,721.925 1220.01,720.707 1218.63,720.707C1217.38,720.707 1216.83,721.855 1216.73,722.71L1220.33,722.71Z" style="fill:white;fill-rule:nonzero;"/>
        <path d="M1156.82,735.638C1157.03,735.775 1157.4,735.919 1157.75,735.919C1158.26,735.919 1158.5,735.664 1158.5,735.343C1158.5,735.007 1158.3,734.824 1157.78,734.632C1157.09,734.384 1156.76,733.999 1156.76,733.537C1156.76,732.912 1157.26,732.4 1158.09,732.4C1158.49,732.4 1158.83,732.513 1159.05,732.64L1158.87,733.152C1158.72,733.056 1158.44,732.929 1158.08,732.929C1157.66,732.929 1157.43,733.167 1157.43,733.457C1157.43,733.777 1157.66,733.919 1158.17,734.113C1158.84,734.369 1159.18,734.703 1159.18,735.279C1159.18,735.958 1158.65,736.447 1157.74,736.447C1157.31,736.447 1156.92,736.335 1156.65,736.175L1156.82,735.638Z" style="fill:white;fill-rule:nonzero;"/>
        <path d="M1162.81,735.431C1162.81,735.767 1162.82,736.095 1162.87,736.359L1162.23,736.359L1162.17,735.871L1162.15,735.871C1161.93,736.175 1161.52,736.447 1160.97,736.447C1160.18,736.447 1159.78,735.894 1159.78,735.335C1159.78,734.4 1160.62,733.888 1162.11,733.896L1162.11,733.816C1162.11,733.496 1162.02,732.921 1161.23,732.921C1160.87,732.921 1160.5,733.033 1160.22,733.208L1160.06,732.746C1160.38,732.537 1160.85,732.4 1161.34,732.4C1162.52,732.4 1162.81,733.208 1162.81,733.984L1162.81,735.431ZM1162.13,734.384C1161.36,734.369 1160.49,734.503 1160.49,735.255C1160.49,735.71 1160.79,735.927 1161.15,735.927C1161.65,735.927 1161.97,735.607 1162.09,735.279C1162.11,735.207 1162.13,735.126 1162.13,735.056L1162.13,734.384Z" style="fill:white;fill-rule:nonzero;"/>
        <path d="M1163.94,733.537C1163.94,733.136 1163.93,732.808 1163.91,732.49L1164.53,732.49L1164.56,733.113L1164.58,733.113C1164.8,732.746 1165.16,732.4 1165.8,732.4C1166.33,732.4 1166.73,732.72 1166.89,733.177L1166.91,733.177C1167.03,732.96 1167.18,732.792 1167.34,732.673C1167.57,732.498 1167.83,732.4 1168.2,732.4C1168.71,732.4 1169.47,732.736 1169.47,734.08L1169.47,736.359L1168.78,736.359L1168.78,734.167C1168.78,733.423 1168.51,732.976 1167.94,732.976C1167.54,732.976 1167.23,733.273 1167.11,733.617C1167.08,733.712 1167.05,733.839 1167.05,733.968L1167.05,736.359L1166.37,736.359L1166.37,734.04C1166.37,733.423 1166.09,732.976 1165.56,732.976C1165.12,732.976 1164.8,733.328 1164.69,733.679C1164.65,733.785 1164.63,733.904 1164.63,734.025L1164.63,736.359L1163.94,736.359L1163.94,733.537Z" style="fill:white;fill-rule:nonzero;"/>
        <path d="M1170.62,733.751C1170.62,733.257 1170.6,732.857 1170.58,732.49L1171.21,732.49L1171.25,733.152L1171.26,733.152C1171.55,732.681 1172.01,732.4 1172.64,732.4C1173.57,732.4 1174.28,733.193 1174.28,734.369C1174.28,735.759 1173.43,736.447 1172.52,736.447C1172.01,736.447 1171.56,736.222 1171.33,735.839L1171.31,735.839L1171.31,737.941L1170.62,737.941L1170.62,733.751ZM1171.31,734.783C1171.31,734.888 1171.33,734.984 1171.34,735.072C1171.47,735.56 1171.89,735.894 1172.4,735.894C1173.14,735.894 1173.57,735.287 1173.57,734.4C1173.57,733.624 1173.17,732.96 1172.42,732.96C1171.94,732.96 1171.5,733.304 1171.36,733.832C1171.34,733.919 1171.31,734.025 1171.31,734.121L1171.31,734.783Z" style="fill:white;fill-rule:nonzero;"/>
        <rect x="1175.17" y="730.681" width="0.703" height="5.678" style="fill:white;fill-rule:nonzero;"/>
        <path d="M1177.45,734.552C1177.46,735.503 1178.07,735.894 1178.77,735.894C1179.28,735.894 1179.58,735.806 1179.85,735.695L1179.96,736.199C1179.72,736.31 1179.29,736.447 1178.68,736.447C1177.49,736.447 1176.78,735.656 1176.78,734.488C1176.78,733.32 1177.46,732.4 1178.59,732.4C1179.85,732.4 1180.19,733.513 1180.19,734.224C1180.19,734.369 1180.17,734.48 1180.17,734.552L1177.45,734.552ZM1179.51,734.048C1179.52,733.601 1179.33,732.904 1178.53,732.904C1177.82,732.904 1177.51,733.56 1177.45,734.048L1179.51,734.048Z" style="fill:white;fill-rule:nonzero;"/>
        <path d="M1183.61,731.562L1183.61,732.49L1184.61,732.49L1184.61,733.025L1183.61,733.025L1183.61,735.111C1183.61,735.591 1183.74,735.863 1184.13,735.863C1184.33,735.863 1184.44,735.847 1184.54,735.816L1184.57,736.343C1184.44,736.398 1184.22,736.447 1183.95,736.447C1183.62,736.447 1183.36,736.335 1183.19,736.142C1182.99,735.935 1182.92,735.591 1182.92,735.136L1182.92,733.025L1182.32,733.025L1182.32,732.49L1182.92,732.49L1182.92,731.777L1183.61,731.562Z" style="fill:white;fill-rule:nonzero;"/>
        <path d="M1185.75,734.552C1185.77,735.503 1186.38,735.894 1187.08,735.894C1187.58,735.894 1187.88,735.806 1188.15,735.695L1188.27,736.199C1188.02,736.31 1187.6,736.447 1186.98,736.447C1185.79,736.447 1185.08,735.656 1185.08,734.488C1185.08,733.32 1185.77,732.4 1186.89,732.4C1188.16,732.4 1188.49,733.513 1188.49,734.224C1188.49,734.369 1188.48,734.48 1188.47,734.552L1185.75,734.552ZM1187.81,734.048C1187.82,733.601 1187.63,732.904 1186.84,732.904C1186.13,732.904 1185.81,733.56 1185.76,734.048L1187.81,734.048Z" style="fill:white;fill-rule:nonzero;"/>
        <path d="M1189.67,732.49L1190.22,733.32C1190.37,733.537 1190.49,733.736 1190.62,733.953L1190.64,733.953C1190.77,733.72 1190.89,733.521 1191.02,733.312L1191.57,732.49L1192.33,732.49L1191.01,734.359L1192.37,736.359L1191.57,736.359L1191,735.488C1190.85,735.263 1190.72,735.048 1190.58,734.816L1190.57,734.816C1190.44,735.056 1190.3,735.255 1190.16,735.488L1189.6,736.359L1188.82,736.359L1190.2,734.384L1188.89,732.49L1189.67,732.49Z" style="fill:white;fill-rule:nonzero;"/>
        <path d="M1194,731.562L1194,732.49L1195.01,732.49L1195.01,733.025L1194,733.025L1194,735.111C1194,735.591 1194.13,735.863 1194.53,735.863C1194.72,735.863 1194.83,735.847 1194.93,735.816L1194.96,736.343C1194.83,736.398 1194.61,736.447 1194.34,736.447C1194.01,736.447 1193.75,736.335 1193.58,736.142C1193.38,735.935 1193.31,735.591 1193.31,735.136L1193.31,733.025L1192.71,733.025L1192.71,732.49L1193.31,732.49L1193.31,731.777L1194,731.562Z" style="fill:white;fill-rule:nonzero;"/>
        <rect x="1129.83" y="742.46" width="92" height="0.844" style="fill:white;fill-rule:nonzero;"/>
        <path d="M1142.37,748.46L1140.73,748.46L1140.73,747.869L1144.72,747.869L1144.72,748.46L1143.07,748.46L1143.07,753.257L1142.37,753.257L1142.37,748.46Z" style="fill:white;fill-rule:nonzero;"/>
        <path d="M1145.12,751.451C1145.13,752.402 1145.74,752.794 1146.45,752.794C1146.95,752.794 1147.25,752.707 1147.52,752.595L1147.64,753.097C1147.39,753.21 1146.97,753.345 1146.35,753.345C1145.16,753.345 1144.45,752.554 1144.45,751.386C1144.45,750.22 1145.13,749.3 1146.26,749.3C1147.53,749.3 1147.86,750.412 1147.86,751.123C1147.86,751.267 1147.85,751.378 1147.84,751.451L1145.12,751.451ZM1147.18,750.947C1147.19,750.499 1147,749.804 1146.21,749.804C1145.5,749.804 1145.18,750.46 1145.13,750.947L1147.18,750.947Z" style="fill:white;fill-rule:nonzero;"/>
        <rect x="1148.74" y="747.582" width="0.703" height="5.675" style="fill:white;fill-rule:nonzero;"/>
        <path d="M1150.92,750.523C1150.65,750.523 1150.46,750.308 1150.46,750.027C1150.46,749.732 1150.65,749.515 1150.93,749.515C1151.21,749.515 1151.4,749.732 1151.41,750.027C1151.41,750.308 1151.22,750.523 1150.93,750.523L1150.92,750.523ZM1150.92,753.345C1150.65,753.345 1150.46,753.13 1150.46,752.851C1150.46,752.554 1150.65,752.347 1150.93,752.347C1151.21,752.347 1151.4,752.554 1151.41,752.851C1151.41,753.13 1151.22,753.345 1150.93,753.345L1150.92,753.345Z" style="fill:white;fill-rule:nonzero;"/>
        <path d="M1155.28,748.716L1155.26,748.716L1154.36,749.205L1154.22,748.669L1155.36,748.06L1155.96,748.06L1155.96,753.257L1155.28,753.257L1155.28,748.716Z" style="fill:white;fill-rule:nonzero;"/>
        <path d="M1159.38,748.716L1159.37,748.716L1158.46,749.205L1158.33,748.669L1159.46,748.06L1160.06,748.06L1160.06,753.257L1159.38,753.257L1159.38,748.716Z" style="fill:white;fill-rule:nonzero;"/>
        <path d="M1163.49,748.716L1163.47,748.716L1162.57,749.205L1162.43,748.669L1163.57,748.06L1164.17,748.06L1164.17,753.257L1163.49,753.257L1163.49,748.716Z" style="fill:white;fill-rule:nonzero;"/>
        <rect x="1165.94" y="750.835" width="1.975" height="0.52" style="fill:white;fill-rule:nonzero;"/>
        <path d="M1171.97,750.603C1171.97,752.371 1171.32,753.345 1170.17,753.345C1169.15,753.345 1168.46,752.394 1168.45,750.675C1168.45,748.933 1169.2,747.972 1170.25,747.972C1171.35,747.972 1171.97,748.949 1171.97,750.603ZM1169.15,750.683C1169.15,752.035 1169.57,752.802 1170.21,752.802C1170.92,752.802 1171.27,751.962 1171.27,750.636C1171.27,749.357 1170.94,748.517 1170.21,748.517C1169.6,748.517 1169.15,749.269 1169.15,750.683Z" style="fill:white;fill-rule:nonzero;"/>
        <path d="M1176.08,750.603C1176.08,752.371 1175.42,753.345 1174.27,753.345C1173.25,753.345 1172.57,752.394 1172.55,750.675C1172.55,748.933 1173.3,747.972 1174.36,747.972C1175.45,747.972 1176.08,748.949 1176.08,750.603ZM1173.25,750.683C1173.25,752.035 1173.67,752.802 1174.31,752.802C1175.03,752.802 1175.37,751.962 1175.37,750.636C1175.37,749.357 1175.05,748.517 1174.32,748.517C1173.7,748.517 1173.25,749.269 1173.25,750.683Z" style="fill:white;fill-rule:nonzero;"/>
        <path d="M1178.25,748.716L1178.24,748.716L1177.34,749.205L1177.2,748.669L1178.33,748.06L1178.93,748.06L1178.93,753.257L1178.25,753.257L1178.25,748.716Z" style="fill:white;fill-rule:nonzero;"/>
        <rect x="1180.71" y="750.835" width="1.974" height="0.52" style="fill:white;fill-rule:nonzero;"/>
        <path d="M1186.74,750.603C1186.74,752.371 1186.09,753.345 1184.93,753.345C1183.92,753.345 1183.23,752.394 1183.21,750.675C1183.21,748.933 1183.96,747.972 1185.02,747.972C1186.12,747.972 1186.74,748.949 1186.74,750.603ZM1183.92,750.683C1183.92,752.035 1184.33,752.802 1184.97,752.802C1185.69,752.802 1186.04,751.962 1186.04,750.636C1186.04,749.357 1185.71,748.517 1184.98,748.517C1184.37,748.517 1183.92,749.269 1183.92,750.683Z" style="fill:white;fill-rule:nonzero;"/>
        <path d="M1188.92,748.716L1188.9,748.716L1188,749.205L1187.86,748.669L1189,748.06L1189.6,748.06L1189.6,753.257L1188.92,753.257L1188.92,748.716Z" style="fill:white;fill-rule:nonzero;"/>
        <rect x="1191.38" y="750.835" width="1.974" height="0.52" style="fill:white;fill-rule:nonzero;"/>
        <path d="M1197.4,750.603C1197.4,752.371 1196.75,753.345 1195.6,753.345C1194.58,753.345 1193.89,752.394 1193.88,750.675C1193.88,748.933 1194.63,747.972 1195.68,747.972C1196.78,747.972 1197.4,748.949 1197.4,750.603ZM1194.58,750.683C1194.58,752.035 1195,752.802 1195.64,752.802C1196.36,752.802 1196.7,751.962 1196.7,750.636C1196.7,749.357 1196.37,748.517 1195.64,748.517C1195.03,748.517 1194.58,749.269 1194.58,750.683Z" style="fill:white;fill-rule:nonzero;"/>
        <path d="M1201.51,750.603C1201.51,752.371 1200.85,753.345 1199.7,753.345C1198.68,753.345 1198,752.394 1197.98,750.675C1197.98,748.933 1198.73,747.972 1199.79,747.972C1200.88,747.972 1201.51,748.949 1201.51,750.603ZM1198.68,750.683C1198.68,752.035 1199.1,752.802 1199.74,752.802C1200.46,752.802 1200.8,751.962 1200.8,750.636C1200.8,749.357 1200.48,748.517 1199.75,748.517C1199.13,748.517 1198.68,749.269 1198.68,750.683Z" style="fill:white;fill-rule:nonzero;"/>
        <rect x="1202.04" y="750.835" width="1.974" height="0.52" style="fill:white;fill-rule:nonzero;"/>
        <path d="M1206.14,748.716L1206.13,748.716L1205.22,749.205L1205.09,748.669L1206.22,748.06L1206.82,748.06L1206.82,753.257L1206.14,753.257L1206.14,748.716Z" style="fill:white;fill-rule:nonzero;"/>
        <path d="M1210.25,748.716L1210.23,748.716L1209.33,749.205L1209.19,748.669L1210.33,748.06L1210.92,748.06L1210.92,753.257L1210.25,753.257L1210.25,748.716Z" style="fill:white;fill-rule:nonzero;"/>
        <path d="M1139.52,757.468L1142.42,757.468L1142.42,758.052L1140.21,758.052L1140.21,759.843L1142.25,759.843L1142.25,760.419L1140.21,760.419L1140.21,762.859L1139.52,762.859L1139.52,757.468Z" style="fill:white;fill-rule:nonzero;"/>
        <path d="M1145.75,761.931C1145.75,762.267 1145.76,762.595 1145.81,762.859L1145.17,762.859L1145.12,762.371L1145.09,762.371C1144.88,762.673 1144.46,762.947 1143.91,762.947C1143.13,762.947 1142.73,762.394 1142.73,761.835C1142.73,760.9 1143.56,760.388 1145.05,760.396L1145.05,760.316C1145.05,759.996 1144.96,759.419 1144.17,759.419C1143.81,759.419 1143.44,759.533 1143.16,759.708L1143,759.244C1143.33,759.037 1143.79,758.9 1144.28,758.9C1145.46,758.9 1145.75,759.708 1145.75,760.484L1145.75,761.931ZM1145.07,760.882C1144.3,760.867 1143.43,761.003 1143.43,761.755C1143.43,762.21 1143.73,762.427 1144.09,762.427C1144.6,762.427 1144.92,762.107 1145.03,761.779C1145.05,761.707 1145.07,761.626 1145.07,761.554L1145.07,760.882Z" style="fill:white;fill-rule:nonzero;"/>
        <path d="M1147.21,758.988L1147.76,759.82C1147.91,760.037 1148.03,760.236 1148.15,760.451L1148.18,760.451C1148.31,760.22 1148.43,760.019 1148.56,759.812L1149.11,758.988L1149.87,758.988L1148.55,760.859L1149.91,762.859L1149.11,762.859L1148.54,761.986C1148.39,761.763 1148.26,761.546 1148.12,761.316L1148.11,761.316C1147.98,761.554 1147.84,761.755 1147.7,761.986L1147.14,762.859L1146.36,762.859L1147.74,760.882L1146.43,758.988L1147.21,758.988Z" style="fill:white;fill-rule:nonzero;"/>
        <path d="M1150.88,760.124C1150.61,760.124 1150.42,759.908 1150.42,759.628C1150.42,759.332 1150.62,759.117 1150.9,759.117C1151.18,759.117 1151.36,759.332 1151.37,759.628C1151.37,759.908 1151.19,760.124 1150.89,760.124L1150.88,760.124ZM1150.88,762.947C1150.61,762.947 1150.42,762.73 1150.42,762.451C1150.42,762.154 1150.62,761.947 1150.9,761.947C1151.18,761.947 1151.36,762.154 1151.37,762.451C1151.37,762.73 1151.19,762.947 1150.89,762.947L1150.88,762.947Z" style="fill:white;fill-rule:nonzero;"/>
        <path d="M1157.17,760.203C1157.17,761.97 1156.51,762.947 1155.36,762.947C1154.35,762.947 1153.66,761.994 1153.64,760.275C1153.64,758.533 1154.39,757.574 1155.45,757.574C1156.55,757.574 1157.17,758.548 1157.17,760.203ZM1154.35,760.283C1154.35,761.634 1154.76,762.402 1155.4,762.402C1156.12,762.402 1156.47,761.562 1156.47,760.236C1156.47,758.957 1156.14,758.117 1155.41,758.117C1154.8,758.117 1154.35,758.869 1154.35,760.283Z" style="fill:white;fill-rule:nonzero;"/>
        <path d="M1159.35,758.316L1159.33,758.316L1158.43,758.804L1158.29,758.269L1159.43,757.662L1160.03,757.662L1160.03,762.859L1159.35,762.859L1159.35,758.316Z" style="fill:white;fill-rule:nonzero;"/>
        <path d="M1165.38,760.203C1165.38,761.97 1164.72,762.947 1163.57,762.947C1162.56,762.947 1161.87,761.994 1161.85,760.275C1161.85,758.533 1162.6,757.574 1163.66,757.574C1164.75,757.574 1165.38,758.548 1165.38,760.203ZM1162.56,760.283C1162.56,761.634 1162.97,762.402 1163.61,762.402C1164.33,762.402 1164.67,761.562 1164.67,760.236C1164.67,758.957 1164.35,758.117 1163.62,758.117C1163,758.117 1162.56,758.869 1162.56,760.283Z" style="fill:white;fill-rule:nonzero;"/>
        <rect x="1165.91" y="760.435" width="1.974" height="0.52" style="fill:white;fill-rule:nonzero;"/>
        <path d="M1171.94,760.203C1171.94,761.97 1171.28,762.947 1170.13,762.947C1169.12,762.947 1168.43,761.994 1168.41,760.275C1168.41,758.533 1169.16,757.574 1170.22,757.574C1171.31,757.574 1171.94,758.548 1171.94,760.203ZM1169.12,760.283C1169.12,761.634 1169.53,762.402 1170.17,762.402C1170.89,762.402 1171.23,761.562 1171.23,760.236C1171.23,758.957 1170.91,758.117 1170.18,758.117C1169.56,758.117 1169.12,758.869 1169.12,760.283Z" style="fill:white;fill-rule:nonzero;"/>
        <path d="M1174.12,758.316L1174.1,758.316L1173.2,758.804L1173.06,758.269L1174.19,757.662L1174.79,757.662L1174.79,762.859L1174.12,762.859L1174.12,758.316Z" style="fill:white;fill-rule:nonzero;"/>
        <path d="M1178.22,758.316L1178.2,758.316L1177.3,758.804L1177.16,758.269L1178.3,757.662L1178.9,757.662L1178.9,762.859L1178.22,762.859L1178.22,758.316Z" style="fill:white;fill-rule:nonzero;"/>
        <rect x="1180.68" y="760.435" width="1.975" height="0.52" style="fill:white;fill-rule:nonzero;"/>
        <path d="M1184.78,758.316L1184.76,758.316L1183.86,758.804L1183.72,758.269L1184.86,757.662L1185.46,757.662L1185.46,762.859L1184.78,762.859L1184.78,758.316Z" style="fill:white;fill-rule:nonzero;"/>
        <path d="M1190.81,760.203C1190.81,761.97 1190.15,762.947 1189,762.947C1187.99,762.947 1187.3,761.994 1187.28,760.275C1187.28,758.533 1188.04,757.574 1189.09,757.574C1190.19,757.574 1190.81,758.548 1190.81,760.203ZM1187.99,760.283C1187.99,761.634 1188.4,762.402 1189.04,762.402C1189.76,762.402 1190.11,761.562 1190.11,760.236C1190.11,758.957 1189.78,758.117 1189.05,758.117C1188.43,758.117 1187.99,758.869 1187.99,760.283Z" style="fill:white;fill-rule:nonzero;"/>
        <rect x="1191.34" y="760.435" width="1.975" height="0.52" style="fill:white;fill-rule:nonzero;"/>
        <path d="M1195.44,758.316L1195.43,758.316L1194.52,758.804L1194.39,758.269L1195.52,757.662L1196.12,757.662L1196.12,762.859L1195.44,762.859L1195.44,758.316Z" style="fill:white;fill-rule:nonzero;"/>
        <path d="M1199.55,758.316L1199.53,758.316L1198.63,758.804L1198.49,758.269L1199.63,757.662L1200.23,757.662L1200.23,762.859L1199.55,762.859L1199.55,758.316Z" style="fill:white;fill-rule:nonzero;"/>
        <rect x="1202" y="760.435" width="1.975" height="0.52" style="fill:white;fill-rule:nonzero;"/>
        <path d="M1208.03,760.203C1208.03,761.97 1207.38,762.947 1206.23,762.947C1205.21,762.947 1204.52,761.994 1204.51,760.275C1204.51,758.533 1205.26,757.574 1206.31,757.574C1207.41,757.574 1208.03,758.548 1208.03,760.203ZM1205.21,760.283C1205.21,761.634 1205.63,762.402 1206.27,762.402C1206.99,762.402 1207.33,761.562 1207.33,760.236C1207.33,758.957 1207,758.117 1206.27,758.117C1205.66,758.117 1205.21,758.869 1205.21,760.283Z" style="fill:white;fill-rule:nonzero;"/>
        <path d="M1212.14,760.203C1212.14,761.97 1211.48,762.947 1210.33,762.947C1209.31,762.947 1208.63,761.994 1208.61,760.275C1208.61,758.533 1209.36,757.574 1210.42,757.574C1211.51,757.574 1212.14,758.548 1212.14,760.203ZM1209.31,760.283C1209.31,761.634 1209.73,762.402 1210.37,762.402C1211.09,762.402 1211.43,761.562 1211.43,760.236C1211.43,758.957 1211.11,758.117 1210.38,758.117C1209.76,758.117 1209.31,758.869 1209.31,760.283Z" style="fill:white;fill-rule:nonzero;"/>
        <path d="M1134.12,782.058L1134.12,779.771L1132.42,776.669L1133.21,776.669L1133.97,778.156C1134.17,778.564 1134.34,778.892 1134.5,779.267L1134.52,779.267C1134.67,778.915 1134.86,778.564 1135.06,778.156L1135.84,776.669L1136.63,776.669L1134.82,779.763L1134.82,782.058L1134.12,782.058Z" style="fill:white;fill-rule:nonzero;"/>
        <path d="M1140.12,780.091C1140.12,781.521 1139.13,782.146 1138.19,782.146C1137.14,782.146 1136.34,781.378 1136.34,780.154C1136.34,778.859 1137.18,778.099 1138.25,778.099C1139.37,778.099 1140.12,778.908 1140.12,780.091ZM1137.05,780.13C1137.05,780.978 1137.54,781.619 1138.22,781.619C1138.89,781.619 1139.4,780.986 1139.4,780.115C1139.4,779.458 1139.07,778.628 1138.24,778.628C1137.41,778.628 1137.05,779.396 1137.05,780.13Z" style="fill:white;fill-rule:nonzero;"/>
        <path d="M1144.25,781.001C1144.25,781.402 1144.25,781.753 1144.28,782.058L1143.65,782.058L1143.62,781.425L1143.6,781.425C1143.41,781.738 1143.01,782.146 1142.32,782.146C1141.71,782.146 1140.98,781.81 1140.98,780.451L1140.98,778.187L1141.69,778.187L1141.69,780.33C1141.69,781.066 1141.91,781.562 1142.55,781.562C1143.02,781.562 1143.35,781.234 1143.48,780.921C1143.52,780.818 1143.54,780.691 1143.54,780.562L1143.54,778.187L1144.25,778.187L1144.25,781.001Z" style="fill:white;fill-rule:nonzero;"/>
        <path d="M1145.42,779.396C1145.42,778.939 1145.41,778.548 1145.38,778.187L1146,778.187L1146.02,778.947L1146.06,778.947C1146.23,778.427 1146.65,778.099 1147.13,778.099C1147.21,778.099 1147.26,778.107 1147.33,778.124L1147.33,778.787C1147.25,778.771 1147.18,778.763 1147.09,778.763C1146.59,778.763 1146.24,779.14 1146.14,779.667C1146.13,779.763 1146.11,779.874 1146.11,779.996L1146.11,782.058L1145.42,782.058L1145.42,779.396Z" style="fill:white;fill-rule:nonzero;"/>
        <path d="M1150.58,777.259L1150.58,778.187L1151.58,778.187L1151.58,778.724L1150.58,778.724L1150.58,780.81C1150.58,781.29 1150.71,781.562 1151.1,781.562C1151.29,781.562 1151.41,781.546 1151.51,781.513L1151.54,782.042C1151.41,782.097 1151.19,782.146 1150.92,782.146C1150.59,782.146 1150.33,782.033 1150.16,781.841C1149.96,781.634 1149.89,781.29 1149.89,780.833L1149.89,778.724L1149.29,778.724L1149.29,778.187L1149.89,778.187L1149.89,777.476L1150.58,777.259Z" style="fill:white;fill-rule:nonzero;"/>
        <path d="M1152.72,780.251C1152.74,781.203 1153.34,781.593 1154.05,781.593C1154.55,781.593 1154.85,781.505 1155.12,781.394L1155.24,781.898C1154.99,782.009 1154.57,782.146 1153.95,782.146C1152.76,782.146 1152.05,781.353 1152.05,780.187C1152.05,779.019 1152.74,778.099 1153.86,778.099C1155.13,778.099 1155.46,779.21 1155.46,779.923C1155.46,780.066 1155.45,780.179 1155.44,780.251L1152.72,780.251ZM1154.78,779.748C1154.79,779.298 1154.6,778.603 1153.81,778.603C1153.1,778.603 1152.78,779.259 1152.73,779.748L1154.78,779.748Z" style="fill:white;fill-rule:nonzero;"/>
        <path d="M1156.64,778.187L1157.19,779.019C1157.34,779.236 1157.45,779.435 1157.58,779.652L1157.61,779.652C1157.74,779.419 1157.86,779.218 1157.99,779.011L1158.54,778.187L1159.29,778.187L1157.98,780.058L1159.34,782.058L1158.54,782.058L1157.97,781.187C1157.82,780.962 1157.69,780.746 1157.55,780.515L1157.54,780.515C1157.41,780.753 1157.27,780.955 1157.13,781.187L1156.57,782.058L1155.79,782.058L1157.17,780.083L1155.86,778.187L1156.64,778.187Z" style="fill:white;fill-rule:nonzero;"/>
        <path d="M1160.97,777.259L1160.97,778.187L1161.97,778.187L1161.97,778.724L1160.97,778.724L1160.97,780.81C1160.97,781.29 1161.1,781.562 1161.5,781.562C1161.69,781.562 1161.8,781.546 1161.9,781.513L1161.93,782.042C1161.8,782.097 1161.58,782.146 1161.31,782.146C1160.98,782.146 1160.72,782.033 1160.55,781.841C1160.35,781.634 1160.28,781.29 1160.28,780.833L1160.28,778.724L1159.68,778.724L1159.68,778.187L1160.28,778.187L1160.28,777.476L1160.97,777.259Z" style="fill:white;fill-rule:nonzero;"/>
        <path d="M1164.46,776.38L1165.17,776.38L1165.17,778.794L1165.18,778.794C1165.29,778.595 1165.47,778.419 1165.69,778.3C1165.89,778.179 1166.14,778.099 1166.41,778.099C1166.92,778.099 1167.76,778.419 1167.76,779.755L1167.76,782.058L1167.05,782.058L1167.05,779.835C1167.05,779.21 1166.82,778.683 1166.16,778.683C1165.7,778.683 1165.34,779.003 1165.21,779.386C1165.17,779.484 1165.17,779.587 1165.17,779.722L1165.17,782.058L1164.46,782.058L1164.46,776.38Z" style="fill:white;fill-rule:nonzero;"/>
        <path d="M1169.3,780.251C1169.31,781.203 1169.92,781.593 1170.62,781.593C1171.13,781.593 1171.43,781.505 1171.69,781.394L1171.81,781.898C1171.57,782.009 1171.14,782.146 1170.53,782.146C1169.34,782.146 1168.62,781.353 1168.62,780.187C1168.62,779.019 1169.31,778.099 1170.44,778.099C1171.7,778.099 1172.04,779.21 1172.04,779.923C1172.04,780.066 1172.02,780.179 1172.01,780.251L1169.3,780.251ZM1171.36,779.748C1171.37,779.298 1171.17,778.603 1170.38,778.603C1169.67,778.603 1169.36,779.259 1169.3,779.748L1171.36,779.748Z" style="fill:white;fill-rule:nonzero;"/>
        <path d="M1172.91,779.396C1172.91,778.939 1172.9,778.548 1172.88,778.187L1173.5,778.187L1173.52,778.947L1173.55,778.947C1173.73,778.427 1174.15,778.099 1174.62,778.099C1174.7,778.099 1174.76,778.107 1174.82,778.124L1174.82,778.787C1174.75,778.771 1174.68,778.763 1174.58,778.763C1174.09,778.763 1173.74,779.14 1173.64,779.667C1173.62,779.763 1173.61,779.874 1173.61,779.996L1173.61,782.058L1172.91,782.058L1172.91,779.396Z" style="fill:white;fill-rule:nonzero;"/>
        <path d="M1175.84,780.251C1175.86,781.203 1176.46,781.593 1177.17,781.593C1177.67,781.593 1177.97,781.505 1178.24,781.394L1178.36,781.898C1178.11,782.009 1177.69,782.146 1177.07,782.146C1175.88,782.146 1175.17,781.353 1175.17,780.187C1175.17,779.019 1175.86,778.099 1176.98,778.099C1178.25,778.099 1178.58,779.21 1178.58,779.923C1178.58,780.066 1178.57,780.179 1178.56,780.251L1175.84,780.251ZM1177.9,779.748C1177.91,779.298 1177.72,778.603 1176.93,778.603C1176.21,778.603 1175.9,779.259 1175.85,779.748L1177.9,779.748Z" style="fill:white;fill-rule:nonzero;"/>
        <path d="M1181.05,781.337C1181.26,781.474 1181.63,781.619 1181.98,781.619C1182.49,781.619 1182.73,781.363 1182.73,781.042C1182.73,780.707 1182.53,780.523 1182.01,780.33C1181.32,780.083 1180.99,779.699 1180.99,779.236C1180.99,778.611 1181.5,778.099 1182.33,778.099C1182.72,778.099 1183.06,778.212 1183.28,778.339L1183.1,778.851C1182.95,778.755 1182.67,778.628 1182.31,778.628C1181.89,778.628 1181.66,778.867 1181.66,779.156C1181.66,779.474 1181.89,779.619 1182.4,779.81C1183.07,780.066 1183.41,780.402 1183.41,780.978C1183.41,781.658 1182.88,782.146 1181.97,782.146C1181.54,782.146 1181.15,782.033 1180.88,781.874L1181.05,781.337Z" style="fill:white;fill-rule:nonzero;"/>
        <path d="M1187.04,781.13C1187.04,781.466 1187.05,781.794 1187.1,782.058L1186.46,782.058L1186.41,781.57L1186.38,781.57C1186.17,781.874 1185.75,782.146 1185.2,782.146C1184.41,782.146 1184.02,781.593 1184.02,781.035C1184.02,780.099 1184.85,779.587 1186.34,779.595L1186.34,779.515C1186.34,779.195 1186.25,778.619 1185.46,778.619C1185.1,778.619 1184.73,778.732 1184.45,778.908L1184.29,778.443C1184.62,778.236 1185.08,778.099 1185.57,778.099C1186.75,778.099 1187.04,778.908 1187.04,779.683L1187.04,781.13ZM1186.36,780.083C1185.59,780.066 1184.72,780.203 1184.72,780.955C1184.72,781.41 1185.02,781.626 1185.38,781.626C1185.88,781.626 1186.21,781.306 1186.32,780.978C1186.34,780.906 1186.36,780.826 1186.36,780.753L1186.36,780.083Z" style="fill:white;fill-rule:nonzero;"/>
        <path d="M1188.17,779.236C1188.17,778.835 1188.17,778.507 1188.14,778.187L1188.76,778.187L1188.79,778.812L1188.82,778.812C1189.03,778.443 1189.39,778.099 1190.03,778.099C1190.56,778.099 1190.96,778.419 1191.13,778.874L1191.14,778.874C1191.26,778.66 1191.41,778.492 1191.57,778.373C1191.81,778.195 1192.06,778.099 1192.43,778.099C1192.94,778.099 1193.7,778.435 1193.7,779.779L1193.7,782.058L1193.01,782.058L1193.01,779.867C1193.01,779.123 1192.74,778.675 1192.17,778.675C1191.77,778.675 1191.46,778.972 1191.34,779.316C1191.31,779.412 1191.29,779.539 1191.29,779.667L1191.29,782.058L1190.6,782.058L1190.6,779.74C1190.6,779.123 1190.33,778.675 1189.79,778.675C1189.35,778.675 1189.03,779.027 1188.92,779.378C1188.88,779.484 1188.86,779.603 1188.86,779.722L1188.86,782.058L1188.17,782.058L1188.17,779.236Z" style="fill:white;fill-rule:nonzero;"/>
        <path d="M1194.85,779.451C1194.85,778.955 1194.83,778.556 1194.82,778.187L1195.45,778.187L1195.48,778.851L1195.5,778.851C1195.78,778.38 1196.24,778.099 1196.87,778.099C1197.81,778.099 1198.51,778.892 1198.51,780.066C1198.51,781.458 1197.66,782.146 1196.75,782.146C1196.24,782.146 1195.79,781.921 1195.56,781.539L1195.54,781.539L1195.54,783.64L1194.85,783.64L1194.85,779.451ZM1195.54,780.482C1195.54,780.585 1195.56,780.683 1195.58,780.771C1195.7,781.257 1196.13,781.593 1196.63,781.593C1197.37,781.593 1197.81,780.986 1197.81,780.099C1197.81,779.324 1197.4,778.66 1196.65,778.66C1196.17,778.66 1195.73,779.003 1195.59,779.531C1195.57,779.619 1195.54,779.722 1195.54,779.818L1195.54,780.482Z" style="fill:white;fill-rule:nonzero;"/>
        <rect x="1199.4" y="776.38" width="0.703" height="5.678" style="fill:white;fill-rule:nonzero;"/>
        <path d="M1201.68,780.251C1201.69,781.203 1202.3,781.593 1203.01,781.593C1203.51,781.593 1203.81,781.505 1204.08,781.394L1204.2,781.898C1203.95,782.009 1203.53,782.146 1202.91,782.146C1201.72,782.146 1201.01,781.353 1201.01,780.187C1201.01,779.019 1201.69,778.099 1202.82,778.099C1204.09,778.099 1204.42,779.21 1204.42,779.923C1204.42,780.066 1204.4,780.179 1204.4,780.251L1201.68,780.251ZM1203.74,779.748C1203.75,779.298 1203.56,778.603 1202.77,778.603C1202.05,778.603 1201.74,779.259 1201.69,779.748L1203.74,779.748Z" style="fill:white;fill-rule:nonzero;"/>
        <path d="M1207.84,777.259L1207.84,778.187L1208.85,778.187L1208.85,778.724L1207.84,778.724L1207.84,780.81C1207.84,781.29 1207.97,781.562 1208.37,781.562C1208.56,781.562 1208.67,781.546 1208.77,781.513L1208.81,782.042C1208.67,782.097 1208.45,782.146 1208.18,782.146C1207.85,782.146 1207.59,782.033 1207.42,781.841C1207.22,781.634 1207.15,781.29 1207.15,780.833L1207.15,778.724L1206.55,778.724L1206.55,778.187L1207.15,778.187L1207.15,777.476L1207.84,777.259Z" style="fill:white;fill-rule:nonzero;"/>
        <path d="M1209.98,780.251C1210,781.203 1210.61,781.593 1211.31,781.593C1211.81,781.593 1212.12,781.505 1212.38,781.394L1212.5,781.898C1212.25,782.009 1211.83,782.146 1211.21,782.146C1210.02,782.146 1209.31,781.353 1209.31,780.187C1209.31,779.019 1210,778.099 1211.13,778.099C1212.39,778.099 1212.73,779.21 1212.73,779.923C1212.73,780.066 1212.71,780.179 1212.7,780.251L1209.98,780.251ZM1212.05,779.748C1212.05,779.298 1211.86,778.603 1211.07,778.603C1210.36,778.603 1210.05,779.259 1209.99,779.748L1212.05,779.748Z" style="fill:white;fill-rule:nonzero;"/>
        <path d="M1213.9,778.187L1214.45,779.019C1214.6,779.236 1214.72,779.435 1214.85,779.652L1214.87,779.652C1215,779.419 1215.13,779.218 1215.25,779.011L1215.8,778.187L1216.56,778.187L1215.24,780.058L1216.6,782.058L1215.8,782.058L1215.23,781.187C1215.08,780.962 1214.95,780.746 1214.81,780.515L1214.8,780.515C1214.67,780.753 1214.53,780.955 1214.39,781.187L1213.83,782.058L1213.05,782.058L1214.43,780.083L1213.12,778.187L1213.9,778.187Z" style="fill:white;fill-rule:nonzero;"/>
        <path d="M1218.23,777.259L1218.23,778.187L1219.24,778.187L1219.24,778.724L1218.23,778.724L1218.23,780.81C1218.23,781.29 1218.37,781.562 1218.76,781.562C1218.95,781.562 1219.06,781.546 1219.17,781.513L1219.2,782.042C1219.06,782.097 1218.85,782.146 1218.57,782.146C1218.25,782.146 1217.98,782.033 1217.81,781.841C1217.61,781.634 1217.54,781.29 1217.54,780.833L1217.54,778.724L1216.94,778.724L1216.94,778.187L1217.54,778.187L1217.54,777.476L1218.23,777.259Z" style="fill:white;fill-rule:nonzero;"/>
        <path d="M1151.81,786.333C1152.15,786.277 1152.59,786.23 1153.15,786.23C1153.84,786.23 1154.34,786.388 1154.66,786.677C1154.95,786.933 1155.13,787.324 1155.13,787.804C1155.13,788.292 1154.99,788.675 1154.71,788.957C1154.35,789.347 1153.75,789.546 1153.07,789.546C1152.86,789.546 1152.67,789.539 1152.51,789.499L1152.51,791.658L1151.81,791.658L1151.81,786.333ZM1152.51,788.931C1152.66,788.972 1152.85,788.988 1153.08,788.988C1153.92,788.988 1154.43,788.58 1154.43,787.835C1154.43,787.124 1153.93,786.781 1153.16,786.781C1152.86,786.781 1152.63,786.804 1152.51,786.837L1152.51,788.931Z" style="fill:white;fill-rule:nonzero;"/>
        <rect x="1156" y="785.982" width="0.704" height="5.676" style="fill:white;fill-rule:nonzero;"/>
        <path d="M1160.61,790.73C1160.61,791.066 1160.63,791.394 1160.67,791.658L1160.03,791.658L1159.98,791.171L1159.95,791.171C1159.74,791.474 1159.32,791.746 1158.77,791.746C1157.99,791.746 1157.59,791.195 1157.59,790.634C1157.59,789.699 1158.42,789.187 1159.91,789.195L1159.91,789.115C1159.91,788.796 1159.83,788.22 1159.03,788.22C1158.67,788.22 1158.3,788.332 1158.03,788.507L1157.87,788.044C1158.19,787.835 1158.65,787.701 1159.14,787.701C1160.32,787.701 1160.61,788.507 1160.61,789.283L1160.61,790.73ZM1159.93,789.683C1159.16,789.667 1158.29,789.802 1158.29,790.554C1158.29,791.011 1158.59,791.226 1158.95,791.226C1159.46,791.226 1159.78,790.906 1159.89,790.58C1159.91,790.507 1159.93,790.427 1159.93,790.355L1159.93,789.683Z" style="fill:white;fill-rule:nonzero;"/>
        <path d="M1164.51,791.515C1164.32,791.611 1163.91,791.746 1163.39,791.746C1162.23,791.746 1161.47,790.947 1161.47,789.763C1161.47,788.572 1162.28,787.708 1163.55,787.708C1163.96,787.708 1164.33,787.812 1164.52,787.908L1164.36,788.453C1164.19,788.357 1163.93,788.267 1163.55,788.267C1162.66,788.267 1162.18,788.923 1162.18,789.732C1162.18,790.626 1162.75,791.179 1163.52,791.179C1163.92,791.179 1164.19,791.074 1164.39,790.986L1164.51,791.515Z" style="fill:white;fill-rule:nonzero;"/>
        <path d="M1165.67,789.851C1165.69,790.802 1166.3,791.195 1167,791.195C1167.51,791.195 1167.81,791.107 1168.07,790.994L1168.19,791.498C1167.95,791.611 1167.52,791.746 1166.91,791.746C1165.71,791.746 1165,790.955 1165,789.787C1165,788.621 1165.69,787.701 1166.82,787.701C1168.08,787.701 1168.42,788.812 1168.42,789.523C1168.42,789.667 1168.4,789.779 1168.39,789.851L1165.67,789.851ZM1167.74,789.347C1167.75,788.9 1167.55,788.205 1166.76,788.205C1166.05,788.205 1165.74,788.859 1165.68,789.347L1167.74,789.347Z" style="fill:white;fill-rule:nonzero;"/>
        <path d="M1171.84,786.861L1171.84,787.789L1172.84,787.789L1172.84,788.324L1171.84,788.324L1171.84,790.412C1171.84,790.89 1171.97,791.162 1172.36,791.162C1172.55,791.162 1172.67,791.146 1172.77,791.115L1172.8,791.642C1172.67,791.699 1172.45,791.746 1172.18,791.746C1171.85,791.746 1171.59,791.634 1171.42,791.443C1171.22,791.234 1171.15,790.89 1171.15,790.435L1171.15,788.324L1170.55,788.324L1170.55,787.789L1171.15,787.789L1171.15,787.078L1171.84,786.861Z" style="fill:white;fill-rule:nonzero;"/>
        <path d="M1173.98,789.851C1174,790.802 1174.6,791.195 1175.31,791.195C1175.81,791.195 1176.11,791.107 1176.38,790.994L1176.5,791.498C1176.25,791.611 1175.83,791.746 1175.21,791.746C1174.02,791.746 1173.31,790.955 1173.31,789.787C1173.31,788.621 1174,787.701 1175.12,787.701C1176.38,787.701 1176.72,788.812 1176.72,789.523C1176.72,789.667 1176.71,789.779 1176.7,789.851L1173.98,789.851ZM1176.04,789.347C1176.05,788.9 1175.86,788.205 1175.07,788.205C1174.36,788.205 1174.04,788.859 1173.99,789.347L1176.04,789.347Z" style="fill:white;fill-rule:nonzero;"/>
        <path d="M1177.9,787.789L1178.45,788.621C1178.6,788.835 1178.71,789.035 1178.84,789.251L1178.87,789.251C1179,789.019 1179.12,788.82 1179.25,788.613L1179.79,787.789L1180.55,787.789L1179.24,789.66L1180.59,791.658L1179.79,791.658L1179.23,790.787C1179.08,790.562 1178.95,790.347 1178.81,790.115L1178.79,790.115C1178.67,790.355 1178.53,790.554 1178.39,790.787L1177.83,791.658L1177.05,791.658L1178.43,789.683L1177.12,787.789L1177.9,787.789Z" style="fill:white;fill-rule:nonzero;"/>
        <path d="M1182.23,786.861L1182.23,787.789L1183.23,787.789L1183.23,788.324L1182.23,788.324L1182.23,790.412C1182.23,790.89 1182.36,791.162 1182.75,791.162C1182.95,791.162 1183.06,791.146 1183.16,791.115L1183.19,791.642C1183.06,791.699 1182.84,791.746 1182.57,791.746C1182.24,791.746 1181.98,791.634 1181.81,791.443C1181.61,791.234 1181.54,790.89 1181.54,790.435L1181.54,788.324L1180.94,788.324L1180.94,787.789L1181.54,787.789L1181.54,787.078L1182.23,786.861Z" style="fill:white;fill-rule:nonzero;"/>
        <path d="M1185.72,785.982L1186.43,785.982L1186.43,788.396L1186.44,788.396C1186.55,788.197 1186.73,788.021 1186.95,787.9C1187.15,787.781 1187.4,787.701 1187.67,787.701C1188.18,787.701 1189.02,788.021 1189.02,789.355L1189.02,791.658L1188.31,791.658L1188.31,789.435C1188.31,788.812 1188.08,788.285 1187.42,788.285C1186.96,788.285 1186.6,788.603 1186.47,788.988C1186.43,789.083 1186.43,789.187 1186.43,789.324L1186.43,791.658L1185.72,791.658L1185.72,785.982Z" style="fill:white;fill-rule:nonzero;"/>
        <path d="M1190.55,789.851C1190.57,790.802 1191.18,791.195 1191.88,791.195C1192.38,791.195 1192.69,791.107 1192.95,790.994L1193.07,791.498C1192.83,791.611 1192.4,791.746 1191.79,791.746C1190.59,791.746 1189.88,790.955 1189.88,789.787C1189.88,788.621 1190.57,787.701 1191.7,787.701C1192.96,787.701 1193.3,788.812 1193.3,789.523C1193.3,789.667 1193.28,789.779 1193.27,789.851L1190.55,789.851ZM1192.62,789.347C1192.63,788.9 1192.43,788.205 1191.64,788.205C1190.93,788.205 1190.62,788.859 1190.56,789.347L1192.62,789.347Z" style="fill:white;fill-rule:nonzero;"/>
        <path d="M1194.17,788.996C1194.17,788.54 1194.16,788.148 1194.14,787.789L1194.75,787.789L1194.78,788.548L1194.81,788.548C1194.99,788.029 1195.41,787.701 1195.88,787.701C1195.96,787.701 1196.02,787.708 1196.08,787.724L1196.08,788.388C1196.01,788.373 1195.94,788.365 1195.84,788.365C1195.35,788.365 1195,788.74 1194.9,789.267C1194.88,789.363 1194.87,789.476 1194.87,789.595L1194.87,791.658L1194.17,791.658L1194.17,788.996Z" style="fill:white;fill-rule:nonzero;"/>
        <path d="M1197.1,789.851C1197.12,790.802 1197.72,791.195 1198.43,791.195C1198.93,791.195 1199.23,791.107 1199.5,790.994L1199.62,791.498C1199.37,791.611 1198.95,791.746 1198.33,791.746C1197.14,791.746 1196.43,790.955 1196.43,789.787C1196.43,788.621 1197.12,787.701 1198.24,787.701C1199.51,787.701 1199.84,788.812 1199.84,789.523C1199.84,789.667 1199.83,789.779 1199.82,789.851L1197.1,789.851ZM1199.16,789.347C1199.17,788.9 1198.98,788.205 1198.19,788.205C1197.48,788.205 1197.16,788.859 1197.11,789.347L1199.16,789.347Z" style="fill:white;fill-rule:nonzero;"/>
        <path d="M1165.35,709.931L1177.2,699.878L1174.44,699.878L1158.63,713.289L1179.41,713.289L1179.55,713.177L1183.38,709.931L1165.35,709.931Z" style="fill:white;fill-rule:nonzero;"/>
        <path d="M1181.22,701.746L1183.43,699.878L1181.66,699.878L1176.93,703.896L1190.49,703.896L1193.02,701.746L1181.22,701.746Z" style="fill:white;fill-rule:nonzero;"/>
        <path d="M1173.78,705.58L1180.5,699.878L1178.29,699.878L1168.4,708.263L1185.34,708.263L1188.51,705.58L1173.78,705.58Z" style="fill:white;fill-rule:nonzero;"/>
        <path d="M1122.62,626.828C1140.52,635.554 1159.01,642.261 1178.12,644.964C1199.41,647.962 1223.25,645.21 1243.96,638.333C1243.96,640.423 1243.96,642.511 1243.96,644.601C1222.84,650.107 1199.64,652.189 1178.12,649.81C1155.48,647.292 1133.23,640.24 1111.73,631.169C1108.78,629.925 1102.93,627.339 1102.93,627.339C1102.93,627.339 1117.86,626.814 1122.62,626.828Z" style="fill:rgb(143,129,110);fill-rule:nonzero;"/>
        <path d="M1033.72,627.226C1033.72,627.226 1070.02,626.98 1083.45,627.169C1092.86,630.921 1102.23,634.509 1111.73,637.789C1133.41,645.283 1155.69,651.005 1178.12,653.042C1199.76,655.007 1222.59,653.335 1243.96,648.779C1243.96,650.869 1243.96,652.957 1243.96,655.046C1201.13,661.136 1154.76,657.63 1111.73,647.72C1088.8,642.453 1066.11,635.8 1042.19,629.46C1039.39,628.716 1033.72,627.226 1033.72,627.226Z" style="fill:rgb(176,171,142);fill-rule:nonzero;"/>
        <path d="M958.55,658.501C958.55,649.423 958.55,640.343 958.55,631.265C990.689,633.273 1017.41,637.783 1042.19,642.165C1066.04,646.392 1088.96,650.832 1111.73,654.339C1155.48,661.042 1200.54,663.345 1243.96,659.224C1243.96,661.312 1243.96,663.402 1243.96,665.49C1200.06,666.521 1156.1,665.966 1111.73,664.269C1089.08,663.398 1065.99,662.289 1042.19,661.226C1017.3,660.134 990.433,659.009 958.55,658.501Z" style="fill:rgb(218,223,181);fill-rule:nonzero;"/>
        <path d="M958.55,703.896C958.55,694.816 958.55,685.738 958.55,676.658C990.433,676.152 1017.3,675.027 1042.19,673.933C1065.99,672.873 1089.08,671.763 1111.73,670.89C1156.1,669.195 1200.06,668.638 1243.96,669.669C1243.96,671.759 1243.96,673.847 1243.96,675.937C1200.54,671.816 1155.48,674.119 1111.73,680.822C1088.96,684.33 1066.04,688.769 1042.19,692.994C1017.41,697.376 990.689,701.886 958.55,703.896Z" style="fill:rgb(218,223,181);fill-rule:nonzero;"/>
        <path d="M958.55,749.289C958.55,740.208 958.55,731.13 958.55,722.052C991.017,719.017 1017.55,712.255 1042.19,705.701C1066.11,699.361 1088.8,692.708 1111.73,687.441C1154.76,677.531 1201.13,674.025 1243.96,680.115C1243.96,682.203 1243.96,684.292 1243.96,686.382C1222.59,681.826 1199.76,680.154 1178.12,682.119C1155.69,684.156 1133.41,689.876 1111.73,697.371C1088.57,705.369 1066.17,715.197 1042.19,724.761C1017.74,734.501 991.694,744.621 958.55,749.289Z" style="fill:rgb(176,171,142);fill-rule:nonzero;"/>
        <path d="M958.55,794.681C958.55,785.603 958.55,776.525 958.55,767.445C992.252,761.654 1017.86,749.312 1042.19,737.468C1066.23,725.763 1088.42,713.833 1111.73,703.99C1133.23,694.919 1155.48,687.867 1178.12,685.349C1199.64,682.972 1222.84,685.054 1243.96,690.56C1243.96,692.648 1243.96,694.738 1243.96,696.828C1223.25,689.951 1199.41,687.199 1178.12,690.197C1155.1,693.453 1132.98,702.513 1111.73,713.921C1088.22,726.55 1066.3,741.595 1042.19,756.529C1018.01,771.513 993.175,787.105 958.55,794.681Z" style="fill:rgb(143,129,110);fill-rule:nonzero;"/>
        <path d="M1241.32,629.414C1238.39,626.484 1234.55,625.019 1230.71,625.019L970.714,625.019C966.876,625.019 963.037,626.484 960.108,629.414C957.179,632.341 955.714,636.181 955.714,640.019L955.714,790.019C955.714,793.859 957.179,797.697 960.108,800.626C963.037,803.554 966.876,805.019 970.714,805.019L1230.71,805.019C1234.55,805.019 1238.39,803.554 1241.32,800.626C1244.25,797.697 1245.71,793.859 1245.71,790.019L1245.71,640.019C1245.71,636.181 1244.25,632.341 1241.32,629.414ZM1241.71,790.021C1241.71,792.958 1240.57,795.72 1238.49,797.798C1236.42,799.876 1233.65,801.019 1230.71,801.019L970.714,801.019C967.777,801.019 965.013,799.876 962.935,797.798C960.857,795.72 959.714,792.958 959.714,790.021L959.714,640.019C959.714,637.082 960.857,634.318 962.935,632.24C965.015,630.162 967.777,629.019 970.714,629.019L1230.71,629.019C1233.65,629.019 1236.41,630.162 1238.49,632.24C1240.57,634.318 1241.71,637.082 1241.71,640.019L1241.71,790.021Z" style="fill:rgb(218,223,181);fill-rule:nonzero;"/>
    </g>
</svg>
