<?xml version="1.0" encoding="UTF-8" standalone="no"?>
<!DOCTYPE svg PUBLIC "-//W3C//DTD SVG 1.1//EN" "http://www.w3.org/Graphics/SVG/1.1/DTD/svg11.dtd">
<svg width="100%" height="100%" viewBox="0 0 290 180" version="1.1" xmlns="http://www.w3.org/2000/svg" xmlns:xlink="http://www.w3.org/1999/xlink" xml:space="preserve" xmlns:serif="http://www.serif.com/" style="fill-rule:evenodd;clip-rule:evenodd;stroke-linejoin:round;stroke-miterlimit:1.41421;">
    <g transform="matrix(1,0,0,1,-955.714,-825.019)">
        <path d="M1230.71,825.019L970.714,825.019C966.876,825.019 963.037,826.484 960.108,829.414C957.179,832.341 955.714,836.181 955.714,840.019L955.714,990.019C955.714,993.859 957.179,997.697 960.108,1000.63C963.037,1003.55 966.876,1005.02 970.714,1005.02L1230.71,1005.02C1234.55,1005.02 1238.39,1003.55 1241.32,1000.63C1244.25,997.697 1245.71,993.859 1245.71,990.019L1245.71,840.019C1245.71,836.181 1244.25,832.341 1241.32,829.414C1238.39,826.484 1234.55,825.019 1230.71,825.019Z" style="fill:rgb(224,228,204);fill-rule:nonzero;"/>
        <path d="M1230.71,1001.02L970.714,1001.02C967.777,1001.02 965.013,999.876 962.935,997.798C960.857,995.72 959.714,992.958 959.714,990.021L959.714,840.019C959.714,837.082 960.857,834.318 962.935,832.24C965.015,830.162 967.777,829.019 970.714,829.019L1230.71,829.019C1233.65,829.019 1236.41,830.162 1238.49,832.24C1240.57,834.318 1241.71,837.082 1241.71,840.019L1241.71,990.021C1241.71,992.958 1240.57,995.72 1238.49,997.798C1236.42,999.876 1233.65,1001.02 1230.71,1001.02Z" style="fill:url(#_Linear1);"/>
        <rect x="990.355" y="951.48" width="98.001" height="50.668" style="fill:rgb(224,228,204);fill-rule:nonzero;"/>
        <rect x="990.355" y="927.48" width="98.001" height="20" style="fill:rgb(224,228,204);fill-rule:nonzero;"/>
        <rect x="990.355" y="908.48" width="98.001" height="15" style="fill:rgb(224,228,204);fill-rule:nonzero;"/>
        <rect x="990.355" y="894.48" width="98.002" height="10" style="fill:rgb(224,228,204);fill-rule:nonzero;"/>
        <rect x="990.355" y="886.32" width="98.002" height="4.16" style="fill:rgb(224,228,204);fill-rule:nonzero;"/>
        <path d="M1119.97,895.296C1119.52,895.521 1118.62,895.759 1117.48,895.759C1114.81,895.759 1112.81,894.064 1112.81,890.968C1112.81,888.013 1114.81,886.009 1117.74,886.009C1118.92,886.009 1119.66,886.261 1119.98,886.429L1119.69,887.423C1119.23,887.201 1118.57,887.033 1117.78,887.033C1115.57,887.033 1114.1,888.447 1114.1,890.925C1114.1,893.238 1115.43,894.722 1117.73,894.722C1118.47,894.722 1119.23,894.568 1119.72,894.33L1119.97,895.296Z" style="fill:rgb(46,46,46);fill-rule:nonzero;"/>
        <path d="M1127.43,892.16C1127.43,894.665 1125.69,895.759 1124.05,895.759C1122.22,895.759 1120.8,894.414 1120.8,892.271C1120.8,890.001 1122.29,888.671 1124.17,888.671C1126.11,888.671 1127.43,890.085 1127.43,892.16ZM1122.05,892.228C1122.05,893.714 1122.91,894.833 1124.11,894.833C1125.29,894.833 1126.17,893.728 1126.17,892.201C1126.17,891.052 1125.6,889.595 1124.14,889.595C1122.68,889.595 1122.05,890.941 1122.05,892.228Z" style="fill:rgb(46,46,46);fill-rule:nonzero;"/>
        <path d="M1128.98,890.66C1128.98,889.96 1128.97,889.386 1128.92,888.826L1130,888.826L1130.06,889.917L1130.1,889.917C1130.48,889.273 1131.11,888.671 1132.23,888.671C1133.16,888.671 1133.86,889.232 1134.15,890.029L1134.18,890.029C1134.39,889.652 1134.65,889.357 1134.93,889.148C1135.34,888.839 1135.79,888.671 1136.43,888.671C1137.33,888.671 1138.66,889.259 1138.66,891.613L1138.66,895.605L1137.46,895.605L1137.46,891.767C1137.46,890.464 1136.98,889.679 1135.99,889.679C1135.29,889.679 1134.74,890.199 1134.53,890.8C1134.47,890.968 1134.43,891.193 1134.43,891.415L1134.43,895.605L1133.23,895.605L1133.23,891.542C1133.23,890.464 1132.75,889.679 1131.81,889.679C1131.04,889.679 1130.48,890.296 1130.28,890.912C1130.21,891.095 1130.19,891.304 1130.19,891.515L1130.19,895.605L1128.98,895.605L1128.98,890.66Z" style="fill:rgb(46,46,46);fill-rule:nonzero;"/>
        <path d="M1140.66,891.039C1140.66,890.169 1140.63,889.47 1140.6,888.826L1141.71,888.826L1141.76,889.988L1141.79,889.988C1142.3,889.162 1143.09,888.671 1144.2,888.671C1145.84,888.671 1147.07,890.058 1147.07,892.117C1147.07,894.554 1145.59,895.759 1143.99,895.759C1143.09,895.759 1142.31,895.367 1141.9,894.695L1141.88,894.695L1141.88,898.378L1140.66,898.378L1140.66,891.039ZM1141.88,892.845C1141.88,893.027 1141.9,893.195 1141.93,893.349C1142.16,894.205 1142.9,894.792 1143.78,894.792C1145.08,894.792 1145.84,893.728 1145.84,892.173C1145.84,890.814 1145.13,889.652 1143.82,889.652C1142.98,889.652 1142.2,890.253 1141.96,891.179C1141.92,891.332 1141.88,891.515 1141.88,891.683L1141.88,892.845Z" style="fill:rgb(46,46,46);fill-rule:nonzero;"/>
        <path d="M1153.38,893.98C1153.38,894.568 1153.41,895.142 1153.5,895.605L1152.38,895.605L1152.28,894.749L1152.24,894.749C1151.86,895.283 1151.13,895.759 1150.16,895.759C1148.79,895.759 1148.09,894.792 1148.09,893.812C1148.09,892.173 1149.55,891.277 1152.17,891.29L1152.17,891.15C1152.17,890.589 1152.01,889.582 1150.63,889.582C1150,889.582 1149.34,889.777 1148.86,890.085L1148.58,889.273C1149.14,888.91 1149.95,888.671 1150.81,888.671C1152.88,888.671 1153.38,890.085 1153.38,891.445L1153.38,893.98ZM1152.19,892.144C1150.85,892.117 1149.32,892.355 1149.32,893.671C1149.32,894.47 1149.86,894.849 1150.49,894.849C1151.37,894.849 1151.93,894.289 1152.13,893.714C1152.17,893.587 1152.19,893.447 1152.19,893.322L1152.19,892.144Z" style="fill:rgb(46,46,46);fill-rule:nonzero;"/>
        <path d="M1155.37,890.66C1155.37,889.96 1155.36,889.386 1155.32,888.826L1156.41,888.826L1156.48,889.945L1156.51,889.945C1156.84,889.302 1157.63,888.671 1158.75,888.671C1159.68,888.671 1161.14,889.232 1161.14,891.556L1161.14,895.605L1159.91,895.605L1159.91,891.697C1159.91,890.605 1159.5,889.693 1158.34,889.693C1157.53,889.693 1156.9,890.267 1156.69,890.955C1156.63,891.109 1156.6,891.318 1156.6,891.529L1156.6,895.605L1155.37,895.605L1155.37,890.66Z" style="fill:rgb(46,46,46);fill-rule:nonzero;"/>
        <path d="M1163.41,888.826L1164.89,892.832C1165.05,893.279 1165.21,893.812 1165.33,894.218L1165.35,894.218C1165.48,893.812 1165.62,893.294 1165.79,892.802L1167.13,888.826L1168.43,888.826L1166.59,893.658C1165.7,895.984 1165.1,897.173 1164.26,897.902C1163.66,898.435 1163.06,898.644 1162.75,898.701L1162.44,897.664C1162.75,897.566 1163.15,897.371 1163.52,897.062C1163.86,896.794 1164.28,896.32 1164.56,895.689C1164.61,895.562 1164.65,895.464 1164.65,895.394C1164.65,895.324 1164.63,895.226 1164.57,895.072L1162.06,888.826L1163.41,888.826Z" style="fill:rgb(46,46,46);fill-rule:nonzero;"/>
        <path d="M1172.52,890.66C1172.52,889.96 1172.51,889.386 1172.46,888.826L1173.56,888.826L1173.63,889.945L1173.65,889.945C1173.99,889.302 1174.78,888.671 1175.9,888.671C1176.84,888.671 1178.29,889.232 1178.29,891.556L1178.29,895.605L1177.06,895.605L1177.06,891.697C1177.06,890.605 1176.65,889.693 1175.49,889.693C1174.68,889.693 1174.05,890.267 1173.84,890.955C1173.78,891.109 1173.75,891.318 1173.75,891.529L1173.75,895.605L1172.52,895.605L1172.52,890.66Z" style="fill:rgb(46,46,46);fill-rule:nonzero;"/>
        <path d="M1185.05,893.98C1185.05,894.568 1185.08,895.142 1185.16,895.605L1184.04,895.605L1183.95,894.749L1183.9,894.749C1183.53,895.283 1182.8,895.759 1181.83,895.759C1180.46,895.759 1179.76,894.792 1179.76,893.812C1179.76,892.173 1181.21,891.277 1183.83,891.29L1183.83,891.15C1183.83,890.589 1183.68,889.582 1182.29,889.582C1181.66,889.582 1181,889.777 1180.53,890.085L1180.25,889.273C1180.81,888.91 1181.62,888.671 1182.48,888.671C1184.55,888.671 1185.05,890.085 1185.05,891.445L1185.05,893.98ZM1183.86,892.144C1182.52,892.117 1180.99,892.355 1180.99,893.671C1180.99,894.47 1181.52,894.849 1182.15,894.849C1183.04,894.849 1183.6,894.289 1183.79,893.714C1183.83,893.587 1183.86,893.447 1183.86,893.322L1183.86,892.144Z" style="fill:rgb(46,46,46);fill-rule:nonzero;"/>
        <path d="M1187.04,890.66C1187.04,889.96 1187.02,889.386 1186.98,888.826L1188.06,888.826L1188.12,889.917L1188.16,889.917C1188.54,889.273 1189.17,888.671 1190.29,888.671C1191.21,888.671 1191.91,889.232 1192.21,890.029L1192.24,890.029C1192.44,889.652 1192.71,889.357 1192.99,889.148C1193.4,888.839 1193.85,888.671 1194.49,888.671C1195.39,888.671 1196.72,889.259 1196.72,891.613L1196.72,895.605L1195.51,895.605L1195.51,891.767C1195.51,890.464 1195.04,889.679 1194.04,889.679C1193.34,889.679 1192.79,890.199 1192.59,890.8C1192.53,890.968 1192.49,891.193 1192.49,891.415L1192.49,895.605L1191.28,895.605L1191.28,891.542C1191.28,890.464 1190.81,889.679 1189.87,889.679C1189.1,889.679 1188.54,890.296 1188.34,890.912C1188.27,891.095 1188.24,891.304 1188.24,891.515L1188.24,895.605L1187.04,895.605L1187.04,890.66Z" style="fill:rgb(46,46,46);fill-rule:nonzero;"/>
        <path d="M1199.4,892.439C1199.43,894.105 1200.49,894.792 1201.73,894.792C1202.61,894.792 1203.14,894.638 1203.6,894.443L1203.81,895.324C1203.38,895.521 1202.64,895.759 1201.56,895.759C1199.47,895.759 1198.22,894.373 1198.22,892.328C1198.22,890.283 1199.43,888.671 1201.4,888.671C1203.62,888.671 1204.21,890.619 1204.21,891.865C1204.21,892.117 1204.18,892.312 1204.16,892.439L1199.4,892.439ZM1203.02,891.556C1203.03,890.773 1202.69,889.554 1201.31,889.554C1200.06,889.554 1199.51,890.703 1199.41,891.556L1203.02,891.556Z" style="fill:rgb(46,46,46);fill-rule:nonzero;"/>
        <path d="M1139.5,904.486C1139.71,904.621 1140.08,904.765 1140.43,904.765C1140.94,904.765 1141.18,904.509 1141.18,904.189C1141.18,903.853 1140.98,903.669 1140.46,903.478C1139.77,903.23 1139.44,902.845 1139.44,902.382C1139.44,901.759 1139.94,901.248 1140.78,901.248C1141.17,901.248 1141.51,901.359 1141.73,901.488L1141.55,901.999C1141.4,901.902 1141.12,901.775 1140.76,901.775C1140.34,901.775 1140.11,902.015 1140.11,902.302C1140.11,902.623 1140.34,902.767 1140.85,902.958C1141.52,903.214 1141.86,903.55 1141.86,904.124C1141.86,904.804 1141.34,905.292 1140.42,905.292C1139.99,905.292 1139.6,905.181 1139.33,905.021L1139.5,904.486Z" style="fill:rgb(46,46,46);fill-rule:nonzero;"/>
        <path d="M1145.49,904.277C1145.49,904.613 1145.5,904.941 1145.55,905.205L1144.91,905.205L1144.86,904.716L1144.83,904.716C1144.62,905.021 1144.2,905.292 1143.65,905.292C1142.87,905.292 1142.46,904.742 1142.46,904.181C1142.46,903.246 1143.3,902.734 1144.79,902.742L1144.79,902.662C1144.79,902.343 1144.7,901.767 1143.91,901.767C1143.55,901.767 1143.18,901.878 1142.9,902.054L1142.75,901.591C1143.07,901.382 1143.53,901.248 1144.02,901.248C1145.2,901.248 1145.49,902.054 1145.49,902.83L1145.49,904.277ZM1144.81,903.23C1144.04,903.214 1143.17,903.349 1143.17,904.101C1143.17,904.558 1143.47,904.773 1143.83,904.773C1144.34,904.773 1144.66,904.453 1144.77,904.124C1144.79,904.054 1144.81,903.974 1144.81,903.902L1144.81,903.23Z" style="fill:rgb(46,46,46);fill-rule:nonzero;"/>
        <path d="M1146.63,902.382C1146.63,901.982 1146.62,901.654 1146.59,901.335L1147.21,901.335L1147.24,901.958L1147.26,901.958C1147.48,901.591 1147.84,901.248 1148.48,901.248C1149.01,901.248 1149.41,901.566 1149.58,902.023L1149.59,902.023C1149.71,901.806 1149.86,901.638 1150.02,901.519C1150.25,901.343 1150.51,901.248 1150.88,901.248C1151.39,901.248 1152.15,901.583 1152.15,902.925L1152.15,905.205L1151.46,905.205L1151.46,903.013C1151.46,902.271 1151.19,901.822 1150.62,901.822C1150.22,901.822 1149.91,902.119 1149.79,902.462C1149.76,902.558 1149.74,902.687 1149.74,902.814L1149.74,905.205L1149.05,905.205L1149.05,902.886C1149.05,902.271 1148.78,901.822 1148.24,901.822C1147.8,901.822 1147.48,902.175 1147.37,902.527C1147.33,902.63 1147.31,902.749 1147.31,902.871L1147.31,905.205L1146.63,905.205L1146.63,902.382Z" style="fill:rgb(46,46,46);fill-rule:nonzero;"/>
        <path d="M1153.3,902.599C1153.3,902.103 1153.28,901.703 1153.27,901.335L1153.9,901.335L1153.93,901.999L1153.94,901.999C1154.23,901.527 1154.69,901.248 1155.32,901.248C1156.26,901.248 1156.96,902.039 1156.96,903.214C1156.96,904.605 1156.11,905.292 1155.2,905.292C1154.69,905.292 1154.24,905.07 1154.01,904.685L1153.99,904.685L1153.99,906.789L1153.3,906.789L1153.3,902.599ZM1153.99,903.63C1153.99,903.734 1154.01,903.83 1154.03,903.917C1154.15,904.406 1154.58,904.742 1155.08,904.742C1155.82,904.742 1156.26,904.134 1156.26,903.246C1156.26,902.47 1155.85,901.806 1155.1,901.806C1154.63,901.806 1154.18,902.15 1154.04,902.677C1154.02,902.767 1153.99,902.871 1153.99,902.966L1153.99,903.63Z" style="fill:rgb(46,46,46);fill-rule:nonzero;"/>
        <rect x="1157.85" y="899.529" width="0.703" height="5.676" style="fill:rgb(46,46,46);fill-rule:nonzero;"/>
        <path d="M1160.13,903.398C1160.14,904.349 1160.75,904.742 1161.46,904.742C1161.96,904.742 1162.26,904.654 1162.53,904.54L1162.65,905.044C1162.4,905.158 1161.98,905.292 1161.36,905.292C1160.17,905.292 1159.46,904.501 1159.46,903.333C1159.46,902.165 1160.14,901.248 1161.27,901.248C1162.54,901.248 1162.87,902.359 1162.87,903.07C1162.87,903.214 1162.86,903.326 1162.85,903.398L1160.13,903.398ZM1162.19,902.894C1162.2,902.447 1162.01,901.751 1161.21,901.751C1160.5,901.751 1160.19,902.406 1160.14,902.894L1162.19,902.894Z" style="fill:rgb(46,46,46);fill-rule:nonzero;"/>
        <path d="M1166.29,900.408L1166.29,901.335L1167.3,901.335L1167.3,901.871L1166.29,901.871L1166.29,903.957C1166.29,904.437 1166.42,904.708 1166.82,904.708C1167.01,904.708 1167.12,904.693 1167.22,904.662L1167.26,905.189C1167.12,905.246 1166.9,905.292 1166.63,905.292C1166.3,905.292 1166.04,905.181 1165.87,904.99C1165.67,904.781 1165.6,904.437 1165.6,903.982L1165.6,901.871L1165,901.871L1165,901.335L1165.6,901.335L1165.6,900.623L1166.29,900.408Z" style="fill:rgb(46,46,46);fill-rule:nonzero;"/>
        <path d="M1168.43,903.398C1168.45,904.349 1169.06,904.742 1169.76,904.742C1170.26,904.742 1170.57,904.654 1170.83,904.54L1170.95,905.044C1170.7,905.158 1170.28,905.292 1169.66,905.292C1168.47,905.292 1167.76,904.501 1167.76,903.333C1167.76,902.165 1168.45,901.248 1169.58,901.248C1170.84,901.248 1171.17,902.359 1171.17,903.07C1171.17,903.214 1171.16,903.326 1171.15,903.398L1168.43,903.398ZM1170.5,902.894C1170.5,902.447 1170.31,901.751 1169.52,901.751C1168.81,901.751 1168.5,902.406 1168.44,902.894L1170.5,902.894Z" style="fill:rgb(46,46,46);fill-rule:nonzero;"/>
        <path d="M1172.35,901.335L1172.9,902.165C1173.05,902.382 1173.17,902.582 1173.3,902.798L1173.32,902.798C1173.45,902.566 1173.58,902.367 1173.7,902.158L1174.25,901.335L1175.01,901.335L1173.69,903.207L1175.05,905.205L1174.25,905.205L1173.68,904.333C1173.53,904.109 1173.4,903.894 1173.26,903.662L1173.25,903.662C1173.12,903.902 1172.98,904.101 1172.84,904.333L1172.28,905.205L1171.51,905.205L1172.88,903.23L1171.57,901.335L1172.35,901.335Z" style="fill:rgb(46,46,46);fill-rule:nonzero;"/>
        <path d="M1176.68,900.408L1176.68,901.335L1177.69,901.335L1177.69,901.871L1176.68,901.871L1176.68,903.957C1176.68,904.437 1176.82,904.708 1177.21,904.708C1177.4,904.708 1177.51,904.693 1177.62,904.662L1177.65,905.189C1177.51,905.246 1177.3,905.292 1177.02,905.292C1176.7,905.292 1176.43,905.181 1176.26,904.99C1176.06,904.781 1175.99,904.437 1175.99,903.982L1175.99,901.871L1175.39,901.871L1175.39,901.335L1175.99,901.335L1175.99,900.623L1176.68,900.408Z" style="fill:rgb(46,46,46);fill-rule:nonzero;"/>
        <rect x="1112.51" y="911.308" width="92" height="0.844" style="fill:rgb(224,228,204);fill-rule:nonzero;"/>
        <path d="M1125.05,917.308L1123.41,917.308L1123.41,916.716L1127.4,916.716L1127.4,917.308L1125.75,917.308L1125.75,922.105L1125.05,922.105L1125.05,917.308Z" style="fill:rgb(46,46,46);fill-rule:nonzero;"/>
        <path d="M1127.8,920.298C1127.82,921.249 1128.42,921.642 1129.13,921.642C1129.63,921.642 1129.94,921.554 1130.2,921.441L1130.32,921.945C1130.07,922.058 1129.65,922.193 1129.03,922.193C1127.84,922.193 1127.13,921.402 1127.13,920.234C1127.13,919.068 1127.82,918.148 1128.94,918.148C1130.21,918.148 1130.54,919.259 1130.54,919.97C1130.54,920.115 1130.53,920.226 1130.52,920.298L1127.8,920.298ZM1129.86,919.794C1129.87,919.347 1129.68,918.652 1128.89,918.652C1128.18,918.652 1127.87,919.306 1127.81,919.794L1129.86,919.794Z" style="fill:rgb(46,46,46);fill-rule:nonzero;"/>
        <rect x="1131.42" y="916.429" width="0.703" height="5.676" style="fill:rgb(46,46,46);fill-rule:nonzero;"/>
        <path d="M1133.6,919.371C1133.33,919.371 1133.14,919.156 1133.14,918.874C1133.14,918.58 1133.34,918.363 1133.62,918.363C1133.9,918.363 1134.08,918.58 1134.09,918.874C1134.09,919.156 1133.9,919.371 1133.61,919.371L1133.6,919.371ZM1133.6,922.193C1133.33,922.193 1133.14,921.978 1133.14,921.697C1133.14,921.402 1133.34,921.193 1133.62,921.193C1133.9,921.193 1134.08,921.402 1134.09,921.697C1134.09,921.978 1133.9,922.193 1133.61,922.193L1133.6,922.193Z" style="fill:rgb(46,46,46);fill-rule:nonzero;"/>
        <path d="M1137.96,917.564L1137.94,917.564L1137.04,918.052L1136.9,917.515L1138.04,916.908L1138.64,916.908L1138.64,922.105L1137.96,922.105L1137.96,917.564Z" style="fill:rgb(46,46,46);fill-rule:nonzero;"/>
        <path d="M1142.06,917.564L1142.05,917.564L1141.14,918.052L1141.01,917.515L1142.14,916.908L1142.74,916.908L1142.74,922.105L1142.06,922.105L1142.06,917.564Z" style="fill:rgb(46,46,46);fill-rule:nonzero;"/>
        <path d="M1146.17,917.564L1146.15,917.564L1145.25,918.052L1145.11,917.515L1146.25,916.908L1146.85,916.908L1146.85,922.105L1146.17,922.105L1146.17,917.564Z" style="fill:rgb(46,46,46);fill-rule:nonzero;"/>
        <rect x="1148.63" y="919.683" width="1.974" height="0.52" style="fill:rgb(46,46,46);fill-rule:nonzero;"/>
        <path d="M1154.65,919.451C1154.65,921.218 1154,922.193 1152.85,922.193C1151.83,922.193 1151.14,921.242 1151.13,919.523C1151.13,917.779 1151.88,916.82 1152.93,916.82C1154.03,916.82 1154.65,917.796 1154.65,919.451ZM1151.83,919.531C1151.83,920.882 1152.25,921.65 1152.89,921.65C1153.61,921.65 1153.95,920.81 1153.95,919.482C1153.95,918.203 1153.62,917.365 1152.89,917.365C1152.28,917.365 1151.83,918.115 1151.83,919.531Z" style="fill:rgb(46,46,46);fill-rule:nonzero;"/>
        <path d="M1158.76,919.451C1158.76,921.218 1158.1,922.193 1156.95,922.193C1155.94,922.193 1155.25,921.242 1155.23,919.523C1155.23,917.779 1155.98,916.82 1157.04,916.82C1158.13,916.82 1158.76,917.796 1158.76,919.451ZM1155.94,919.531C1155.94,920.882 1156.35,921.65 1156.99,921.65C1157.71,921.65 1158.06,920.81 1158.06,919.482C1158.06,918.203 1157.73,917.365 1157,917.365C1156.38,917.365 1155.94,918.115 1155.94,919.531Z" style="fill:rgb(46,46,46);fill-rule:nonzero;"/>
        <path d="M1160.93,917.564L1160.92,917.564L1160.02,918.052L1159.88,917.515L1161.02,916.908L1161.62,916.908L1161.62,922.105L1160.93,922.105L1160.93,917.564Z" style="fill:rgb(46,46,46);fill-rule:nonzero;"/>
        <rect x="1163.39" y="919.683" width="1.975" height="0.52" style="fill:rgb(46,46,46);fill-rule:nonzero;"/>
        <path d="M1169.42,919.451C1169.42,921.218 1168.77,922.193 1167.62,922.193C1166.6,922.193 1165.91,921.242 1165.9,919.523C1165.9,917.779 1166.65,916.82 1167.7,916.82C1168.8,916.82 1169.42,917.796 1169.42,919.451ZM1166.6,919.531C1166.6,920.882 1167.02,921.65 1167.65,921.65C1168.38,921.65 1168.72,920.81 1168.72,919.482C1168.72,918.203 1168.39,917.365 1167.66,917.365C1167.05,917.365 1166.6,918.115 1166.6,919.531Z" style="fill:rgb(46,46,46);fill-rule:nonzero;"/>
        <path d="M1171.6,917.564L1171.58,917.564L1170.68,918.052L1170.54,917.515L1171.68,916.908L1172.28,916.908L1172.28,922.105L1171.6,922.105L1171.6,917.564Z" style="fill:rgb(46,46,46);fill-rule:nonzero;"/>
        <rect x="1174.06" y="919.683" width="1.975" height="0.52" style="fill:rgb(46,46,46);fill-rule:nonzero;"/>
        <path d="M1180.09,919.451C1180.09,921.218 1179.43,922.193 1178.28,922.193C1177.26,922.193 1176.58,921.242 1176.56,919.523C1176.56,917.779 1177.31,916.82 1178.37,916.82C1179.46,916.82 1180.09,917.796 1180.09,919.451ZM1177.26,919.531C1177.26,920.882 1177.68,921.65 1178.32,921.65C1179.04,921.65 1179.38,920.81 1179.38,919.482C1179.38,918.203 1179.05,917.365 1178.33,917.365C1177.71,917.365 1177.26,918.115 1177.26,919.531Z" style="fill:rgb(46,46,46);fill-rule:nonzero;"/>
        <path d="M1184.19,919.451C1184.19,921.218 1183.53,922.193 1182.38,922.193C1181.37,922.193 1180.68,921.242 1180.66,919.523C1180.66,917.779 1181.41,916.82 1182.47,916.82C1183.57,916.82 1184.19,917.796 1184.19,919.451ZM1181.37,919.531C1181.37,920.882 1181.78,921.65 1182.42,921.65C1183.14,921.65 1183.49,920.81 1183.49,919.482C1183.49,918.203 1183.16,917.365 1182.43,917.365C1181.82,917.365 1181.37,918.115 1181.37,919.531Z" style="fill:rgb(46,46,46);fill-rule:nonzero;"/>
        <rect x="1184.72" y="919.683" width="1.975" height="0.52" style="fill:rgb(46,46,46);fill-rule:nonzero;"/>
        <path d="M1188.82,917.564L1188.81,917.564L1187.9,918.052L1187.77,917.515L1188.9,916.908L1189.5,916.908L1189.5,922.105L1188.82,922.105L1188.82,917.564Z" style="fill:rgb(46,46,46);fill-rule:nonzero;"/>
        <path d="M1192.93,917.564L1192.91,917.564L1192.01,918.052L1191.87,917.515L1193.01,916.908L1193.61,916.908L1193.61,922.105L1192.93,922.105L1192.93,917.564Z" style="fill:rgb(46,46,46);fill-rule:nonzero;"/>
        <path d="M1122.2,926.316L1125.1,926.316L1125.1,926.9L1122.89,926.9L1122.89,928.691L1124.93,928.691L1124.93,929.267L1122.89,929.267L1122.89,931.705L1122.2,931.705L1122.2,926.316Z" style="fill:rgb(46,46,46);fill-rule:nonzero;"/>
        <path d="M1128.43,930.779C1128.43,931.113 1128.44,931.441 1128.49,931.705L1127.85,931.705L1127.8,931.218L1127.77,931.218C1127.56,931.521 1127.14,931.792 1126.59,931.792C1125.81,931.792 1125.41,931.242 1125.41,930.681C1125.41,929.746 1126.24,929.234 1127.73,929.244L1127.73,929.164C1127.73,928.843 1127.64,928.267 1126.85,928.267C1126.49,928.267 1126.12,928.378 1125.85,928.554L1125.69,928.091C1126.01,927.884 1126.47,927.748 1126.96,927.748C1128.14,927.748 1128.43,928.554 1128.43,929.332L1128.43,930.779ZM1127.75,929.73C1126.98,929.714 1126.11,929.851 1126.11,930.601C1126.11,931.058 1126.41,931.273 1126.77,931.273C1127.28,931.273 1127.6,930.955 1127.71,930.626C1127.73,930.554 1127.75,930.474 1127.75,930.402L1127.75,929.73Z" style="fill:rgb(46,46,46);fill-rule:nonzero;"/>
        <path d="M1129.89,927.835L1130.44,928.667C1130.59,928.882 1130.71,929.083 1130.84,929.298L1130.86,929.298C1130.99,929.066 1131.12,928.867 1131.25,928.66L1131.79,927.835L1132.55,927.835L1131.23,929.707L1132.59,931.705L1131.79,931.705L1131.22,930.833C1131.07,930.611 1130.94,930.394 1130.81,930.162L1130.79,930.162C1130.66,930.402 1130.53,930.601 1130.38,930.833L1129.82,931.705L1129.05,931.705L1130.42,929.73L1129.11,927.835L1129.89,927.835Z" style="fill:rgb(46,46,46);fill-rule:nonzero;"/>
        <path d="M1133.57,928.97C1133.29,928.97 1133.1,928.755 1133.1,928.476C1133.1,928.179 1133.3,927.964 1133.58,927.964C1133.86,927.964 1134.05,928.179 1134.05,928.476C1134.05,928.755 1133.87,928.97 1133.57,928.97L1133.57,928.97ZM1133.57,931.792C1133.29,931.792 1133.1,931.578 1133.1,931.298C1133.1,931.001 1133.3,930.794 1133.58,930.794C1133.86,930.794 1134.05,931.001 1134.05,931.298C1134.05,931.578 1133.87,931.792 1133.57,931.792L1133.57,931.792Z" style="fill:rgb(46,46,46);fill-rule:nonzero;"/>
        <path d="M1139.85,929.05C1139.85,930.818 1139.2,931.792 1138.04,931.792C1137.03,931.792 1136.34,930.841 1136.33,929.123C1136.33,927.38 1137.08,926.419 1138.13,926.419C1139.23,926.419 1139.85,927.396 1139.85,929.05ZM1137.03,929.13C1137.03,930.482 1137.44,931.249 1138.09,931.249C1138.8,931.249 1139.15,930.41 1139.15,929.083C1139.15,927.804 1138.82,926.964 1138.09,926.964C1137.48,926.964 1137.03,927.716 1137.03,929.13Z" style="fill:rgb(46,46,46);fill-rule:nonzero;"/>
        <path d="M1142.03,927.164L1142.01,927.164L1141.11,927.652L1140.97,927.117L1142.11,926.507L1142.71,926.507L1142.71,931.705L1142.03,931.705L1142.03,927.164Z" style="fill:rgb(46,46,46);fill-rule:nonzero;"/>
        <path d="M1148.06,929.05C1148.06,930.818 1147.4,931.792 1146.25,931.792C1145.24,931.792 1144.55,930.841 1144.53,929.123C1144.53,927.38 1145.29,926.419 1146.34,926.419C1147.44,926.419 1148.06,927.396 1148.06,929.05ZM1145.24,929.13C1145.24,930.482 1145.65,931.249 1146.29,931.249C1147.01,931.249 1147.36,930.41 1147.36,929.083C1147.36,927.804 1147.03,926.964 1146.3,926.964C1145.68,926.964 1145.24,927.716 1145.24,929.13Z" style="fill:rgb(46,46,46);fill-rule:nonzero;"/>
        <rect x="1148.59" y="929.283" width="1.975" height="0.519" style="fill:rgb(46,46,46);fill-rule:nonzero;"/>
        <path d="M1154.62,929.05C1154.62,930.818 1153.96,931.792 1152.81,931.792C1151.8,931.792 1151.11,930.841 1151.09,929.123C1151.09,927.38 1151.84,926.419 1152.9,926.419C1154,926.419 1154.62,927.396 1154.62,929.05ZM1151.8,929.13C1151.8,930.482 1152.21,931.249 1152.85,931.249C1153.57,931.249 1153.92,930.41 1153.92,929.083C1153.92,927.804 1153.59,926.964 1152.86,926.964C1152.25,926.964 1151.8,927.716 1151.8,929.13Z" style="fill:rgb(46,46,46);fill-rule:nonzero;"/>
        <path d="M1156.8,927.164L1156.78,927.164L1155.88,927.652L1155.74,927.117L1156.88,926.507L1157.48,926.507L1157.48,931.705L1156.8,931.705L1156.8,927.164Z" style="fill:rgb(46,46,46);fill-rule:nonzero;"/>
        <path d="M1160.9,927.164L1160.88,927.164L1159.98,927.652L1159.84,927.117L1160.98,926.507L1161.58,926.507L1161.58,931.705L1160.9,931.705L1160.9,927.164Z" style="fill:rgb(46,46,46);fill-rule:nonzero;"/>
        <rect x="1163.36" y="929.283" width="1.975" height="0.519" style="fill:rgb(46,46,46);fill-rule:nonzero;"/>
        <path d="M1167.46,927.164L1167.44,927.164L1166.54,927.652L1166.4,927.117L1167.54,926.507L1168.14,926.507L1168.14,931.705L1167.46,931.705L1167.46,927.164Z" style="fill:rgb(46,46,46);fill-rule:nonzero;"/>
        <path d="M1173.49,929.05C1173.49,930.818 1172.84,931.792 1171.68,931.792C1170.67,931.792 1169.98,930.841 1169.96,929.123C1169.96,927.38 1170.72,926.419 1171.77,926.419C1172.87,926.419 1173.49,927.396 1173.49,929.05ZM1170.67,929.13C1170.67,930.482 1171.09,931.249 1171.72,931.249C1172.44,931.249 1172.79,930.41 1172.79,929.083C1172.79,927.804 1172.46,926.964 1171.73,926.964C1171.12,926.964 1170.67,927.716 1170.67,929.13Z" style="fill:rgb(46,46,46);fill-rule:nonzero;"/>
        <rect x="1174.02" y="929.283" width="1.975" height="0.519" style="fill:rgb(46,46,46);fill-rule:nonzero;"/>
        <path d="M1178.12,927.164L1178.11,927.164L1177.2,927.652L1177.07,927.117L1178.2,926.507L1178.8,926.507L1178.8,931.705L1178.12,931.705L1178.12,927.164Z" style="fill:rgb(46,46,46);fill-rule:nonzero;"/>
        <path d="M1182.23,927.164L1182.21,927.164L1181.31,927.652L1181.17,927.117L1182.31,926.507L1182.91,926.507L1182.91,931.705L1182.23,931.705L1182.23,927.164Z" style="fill:rgb(46,46,46);fill-rule:nonzero;"/>
        <rect x="1184.68" y="929.283" width="1.975" height="0.519" style="fill:rgb(46,46,46);fill-rule:nonzero;"/>
        <path d="M1190.71,929.05C1190.71,930.818 1190.06,931.792 1188.91,931.792C1187.89,931.792 1187.2,930.841 1187.19,929.123C1187.19,927.38 1187.94,926.419 1189,926.419C1190.09,926.419 1190.71,927.396 1190.71,929.05ZM1187.89,929.13C1187.89,930.482 1188.31,931.249 1188.95,931.249C1189.67,931.249 1190.01,930.41 1190.01,929.083C1190.01,927.804 1189.68,926.964 1188.96,926.964C1188.34,926.964 1187.89,927.716 1187.89,929.13Z" style="fill:rgb(46,46,46);fill-rule:nonzero;"/>
        <path d="M1194.82,929.05C1194.82,930.818 1194.16,931.792 1193.01,931.792C1192,931.792 1191.31,930.841 1191.29,929.123C1191.29,927.38 1192.04,926.419 1193.1,926.419C1194.19,926.419 1194.82,927.396 1194.82,929.05ZM1192,929.13C1192,930.482 1192.41,931.249 1193.05,931.249C1193.77,931.249 1194.12,930.41 1194.12,929.083C1194.12,927.804 1193.79,926.964 1193.06,926.964C1192.44,926.964 1192,927.716 1192,929.13Z" style="fill:rgb(46,46,46);fill-rule:nonzero;"/>
        <path d="M1116.8,950.906L1116.8,948.619L1115.1,945.517L1115.89,945.517L1116.65,947.003C1116.86,947.412 1117.02,947.74 1117.18,948.115L1117.2,948.115C1117.35,947.763 1117.54,947.412 1117.74,947.003L1118.52,945.517L1119.31,945.517L1117.5,948.611L1117.5,950.906L1116.8,950.906Z" style="fill:rgb(46,46,46);fill-rule:nonzero;"/>
        <path d="M1122.8,948.939C1122.8,950.369 1121.81,950.994 1120.87,950.994C1119.83,950.994 1119.02,950.226 1119.02,949.001C1119.02,947.707 1119.87,946.947 1120.94,946.947C1122.05,946.947 1122.8,947.755 1122.8,948.939ZM1119.73,948.978C1119.73,949.826 1120.22,950.466 1120.9,950.466C1121.58,950.466 1122.08,949.833 1122.08,948.962C1122.08,948.306 1121.75,947.476 1120.92,947.476C1120.09,947.476 1119.73,948.244 1119.73,948.978Z" style="fill:rgb(46,46,46);fill-rule:nonzero;"/>
        <path d="M1126.93,949.849C1126.93,950.249 1126.94,950.601 1126.96,950.906L1126.34,950.906L1126.3,950.273L1126.28,950.273C1126.1,950.585 1125.69,950.994 1125,950.994C1124.39,950.994 1123.67,950.658 1123.67,949.298L1123.67,947.035L1124.37,947.035L1124.37,949.177C1124.37,949.914 1124.59,950.41 1125.23,950.41C1125.7,950.41 1126.03,950.082 1126.16,949.769C1126.2,949.665 1126.22,949.539 1126.22,949.41L1126.22,947.035L1126.93,947.035L1126.93,949.849Z" style="fill:rgb(46,46,46);fill-rule:nonzero;"/>
        <path d="M1128.1,948.244C1128.1,947.787 1128.09,947.396 1128.07,947.035L1128.68,947.035L1128.7,947.794L1128.74,947.794C1128.91,947.275 1129.34,946.947 1129.81,946.947C1129.89,946.947 1129.94,946.955 1130.01,946.972L1130.01,947.634C1129.94,947.619 1129.86,947.611 1129.77,947.611C1129.27,947.611 1128.92,947.988 1128.83,948.515C1128.81,948.611 1128.79,948.722 1128.79,948.843L1128.79,950.906L1128.1,950.906L1128.1,948.244Z" style="fill:rgb(46,46,46);fill-rule:nonzero;"/>
        <path d="M1133.26,946.107L1133.26,947.035L1134.26,947.035L1134.26,947.572L1133.26,947.572L1133.26,949.658C1133.26,950.138 1133.39,950.41 1133.79,950.41C1133.98,950.41 1134.09,950.394 1134.19,950.361L1134.22,950.89C1134.09,950.945 1133.87,950.994 1133.6,950.994C1133.27,950.994 1133.01,950.88 1132.84,950.689C1132.64,950.482 1132.57,950.138 1132.57,949.681L1132.57,947.572L1131.97,947.572L1131.97,947.035L1132.57,947.035L1132.57,946.324L1133.26,946.107Z" style="fill:rgb(46,46,46);fill-rule:nonzero;"/>
        <path d="M1135.4,949.099C1135.42,950.05 1136.03,950.441 1136.73,950.441C1137.23,950.441 1137.54,950.353 1137.8,950.242L1137.92,950.746C1137.67,950.857 1137.25,950.994 1136.63,950.994C1135.44,950.994 1134.73,950.201 1134.73,949.035C1134.73,947.867 1135.42,946.947 1136.54,946.947C1137.81,946.947 1138.14,948.058 1138.14,948.771C1138.14,948.914 1138.13,949.027 1138.12,949.099L1135.4,949.099ZM1137.46,948.595C1137.47,948.146 1137.28,947.451 1136.49,947.451C1135.78,947.451 1135.46,948.107 1135.41,948.595L1137.46,948.595Z" style="fill:rgb(46,46,46);fill-rule:nonzero;"/>
        <path d="M1139.32,947.035L1139.87,947.867C1140.02,948.083 1140.14,948.283 1140.27,948.499L1140.29,948.499C1140.42,948.267 1140.54,948.066 1140.67,947.859L1141.22,947.035L1141.98,947.035L1140.66,948.906L1142.02,950.906L1141.22,950.906L1140.65,950.035C1140.5,949.81 1140.37,949.593 1140.23,949.363L1140.22,949.363C1140.09,949.601 1139.95,949.802 1139.81,950.035L1139.25,950.906L1138.47,950.906L1139.85,948.931L1138.54,947.035L1139.32,947.035Z" style="fill:rgb(46,46,46);fill-rule:nonzero;"/>
        <path d="M1143.65,946.107L1143.65,947.035L1144.66,947.035L1144.66,947.572L1143.65,947.572L1143.65,949.658C1143.65,950.138 1143.79,950.41 1144.18,950.41C1144.37,950.41 1144.48,950.394 1144.58,950.361L1144.62,950.89C1144.48,950.945 1144.26,950.994 1143.99,950.994C1143.66,950.994 1143.4,950.88 1143.23,950.689C1143.03,950.482 1142.96,950.138 1142.96,949.681L1142.96,947.572L1142.36,947.572L1142.36,947.035L1142.96,947.035L1142.96,946.324L1143.65,946.107Z" style="fill:rgb(46,46,46);fill-rule:nonzero;"/>
        <path d="M1147.14,945.228L1147.85,945.228L1147.85,947.642L1147.87,947.642C1147.98,947.443 1148.15,947.267 1148.37,947.148C1148.58,947.027 1148.82,946.947 1149.09,946.947C1149.61,946.947 1150.44,947.267 1150.44,948.603L1150.44,950.906L1149.74,950.906L1149.74,948.683C1149.74,948.058 1149.5,947.531 1148.84,947.531C1148.38,947.531 1148.02,947.851 1147.9,948.234C1147.86,948.332 1147.85,948.435 1147.85,948.57L1147.85,950.906L1147.14,950.906L1147.14,945.228Z" style="fill:rgb(46,46,46);fill-rule:nonzero;"/>
        <path d="M1151.98,949.099C1151.99,950.05 1152.6,950.441 1153.3,950.441C1153.81,950.441 1154.11,950.353 1154.38,950.242L1154.5,950.746C1154.25,950.857 1153.82,950.994 1153.21,950.994C1152.02,950.994 1151.31,950.201 1151.31,949.035C1151.31,947.867 1151.99,946.947 1153.12,946.947C1154.38,946.947 1154.72,948.058 1154.72,948.771C1154.72,948.914 1154.7,949.027 1154.7,949.099L1151.98,949.099ZM1154.04,948.595C1154.05,948.146 1153.86,947.451 1153.06,947.451C1152.35,947.451 1152.04,948.107 1151.99,948.595L1154.04,948.595Z" style="fill:rgb(46,46,46);fill-rule:nonzero;"/>
        <path d="M1155.59,948.244C1155.59,947.787 1155.59,947.396 1155.56,947.035L1156.18,947.035L1156.2,947.794L1156.23,947.794C1156.41,947.275 1156.83,946.947 1157.3,946.947C1157.38,946.947 1157.44,946.955 1157.5,946.972L1157.5,947.634C1157.43,947.619 1157.36,947.611 1157.26,947.611C1156.77,947.611 1156.42,947.988 1156.32,948.515C1156.3,948.611 1156.29,948.722 1156.29,948.843L1156.29,950.906L1155.59,950.906L1155.59,948.244Z" style="fill:rgb(46,46,46);fill-rule:nonzero;"/>
        <path d="M1158.52,949.099C1158.54,950.05 1159.14,950.441 1159.85,950.441C1160.35,950.441 1160.66,950.353 1160.92,950.242L1161.04,950.746C1160.79,950.857 1160.37,950.994 1159.75,950.994C1158.56,950.994 1157.85,950.201 1157.85,949.035C1157.85,947.867 1158.54,946.947 1159.66,946.947C1160.93,946.947 1161.26,948.058 1161.26,948.771C1161.26,948.914 1161.25,949.027 1161.24,949.099L1158.52,949.099ZM1160.58,948.595C1160.59,948.146 1160.4,947.451 1159.61,947.451C1158.9,947.451 1158.59,948.107 1158.53,948.595L1160.58,948.595Z" style="fill:rgb(46,46,46);fill-rule:nonzero;"/>
        <path d="M1163.74,950.185C1163.94,950.322 1164.31,950.466 1164.66,950.466C1165.17,950.466 1165.42,950.21 1165.42,949.89C1165.42,949.554 1165.21,949.371 1164.7,949.177C1164,948.931 1163.67,948.546 1163.67,948.083C1163.67,947.458 1164.18,946.947 1165.01,946.947C1165.4,946.947 1165.74,947.06 1165.96,947.187L1165.78,947.699C1165.63,947.603 1165.35,947.476 1164.99,947.476C1164.58,947.476 1164.34,947.714 1164.34,948.003C1164.34,948.322 1164.58,948.466 1165.08,948.658C1165.75,948.914 1166.1,949.249 1166.1,949.826C1166.1,950.505 1165.57,950.994 1164.65,950.994C1164.22,950.994 1163.83,950.88 1163.56,950.722L1163.74,950.185Z" style="fill:rgb(46,46,46);fill-rule:nonzero;"/>
        <path d="M1169.72,949.978C1169.72,950.314 1169.74,950.642 1169.78,950.906L1169.14,950.906L1169.09,950.417L1169.06,950.417C1168.85,950.722 1168.43,950.994 1167.88,950.994C1167.1,950.994 1166.7,950.441 1166.7,949.882C1166.7,948.947 1167.53,948.435 1169.02,948.443L1169.02,948.363C1169.02,948.042 1168.93,947.466 1168.14,947.466C1167.78,947.466 1167.41,947.58 1167.14,947.755L1166.98,947.29C1167.3,947.083 1167.76,946.947 1168.25,946.947C1169.43,946.947 1169.72,947.755 1169.72,948.531L1169.72,949.978ZM1169.04,948.931C1168.27,948.914 1167.4,949.05 1167.4,949.802C1167.4,950.257 1167.7,950.474 1168.06,950.474C1168.57,950.474 1168.89,950.154 1169,949.826C1169.02,949.753 1169.04,949.673 1169.04,949.601L1169.04,948.931Z" style="fill:rgb(46,46,46);fill-rule:nonzero;"/>
        <path d="M1170.86,948.083C1170.86,947.683 1170.85,947.355 1170.83,947.035L1171.44,947.035L1171.47,947.66L1171.5,947.66C1171.71,947.29 1172.07,946.947 1172.71,946.947C1173.24,946.947 1173.64,947.267 1173.81,947.722L1173.82,947.722C1173.94,947.507 1174.1,947.339 1174.25,947.22C1174.49,947.042 1174.74,946.947 1175.11,946.947C1175.62,946.947 1176.38,947.283 1176.38,948.626L1176.38,950.906L1175.69,950.906L1175.69,948.714C1175.69,947.97 1175.42,947.523 1174.85,947.523C1174.45,947.523 1174.14,947.82 1174.02,948.164C1173.99,948.259 1173.97,948.386 1173.97,948.515L1173.97,950.906L1173.28,950.906L1173.28,948.587C1173.28,947.97 1173.01,947.523 1172.47,947.523C1172.03,947.523 1171.71,947.874 1171.6,948.226C1171.56,948.332 1171.54,948.451 1171.54,948.57L1171.54,950.906L1170.86,950.906L1170.86,948.083Z" style="fill:rgb(46,46,46);fill-rule:nonzero;"/>
        <path d="M1177.53,948.298C1177.53,947.802 1177.51,947.404 1177.5,947.035L1178.13,947.035L1178.16,947.699L1178.18,947.699C1178.46,947.228 1178.92,946.947 1179.55,946.947C1180.49,946.947 1181.19,947.74 1181.19,948.914C1181.19,950.306 1180.34,950.994 1179.43,950.994C1178.92,950.994 1178.47,950.769 1178.24,950.386L1178.22,950.386L1178.22,952.488L1177.53,952.488L1177.53,948.298ZM1178.22,949.33C1178.22,949.433 1178.24,949.531 1178.26,949.619C1178.38,950.105 1178.81,950.441 1179.31,950.441C1180.06,950.441 1180.49,949.833 1180.49,948.947C1180.49,948.171 1180.08,947.507 1179.34,947.507C1178.86,947.507 1178.41,947.851 1178.27,948.378C1178.25,948.466 1178.22,948.57 1178.22,948.665L1178.22,949.33Z" style="fill:rgb(46,46,46);fill-rule:nonzero;"/>
        <rect x="1182.08" y="945.228" width="0.703" height="5.678" style="fill:rgb(46,46,46);fill-rule:nonzero;"/>
        <path d="M1184.36,949.099C1184.38,950.05 1184.98,950.441 1185.69,950.441C1186.19,950.441 1186.5,950.353 1186.76,950.242L1186.88,950.746C1186.63,950.857 1186.21,950.994 1185.59,950.994C1184.4,950.994 1183.69,950.201 1183.69,949.035C1183.69,947.867 1184.38,946.947 1185.5,946.947C1186.77,946.947 1187.1,948.058 1187.1,948.771C1187.1,948.914 1187.09,949.027 1187.08,949.099L1184.36,949.099ZM1186.42,948.595C1186.43,948.146 1186.24,947.451 1185.45,947.451C1184.74,947.451 1184.42,948.107 1184.37,948.595L1186.42,948.595Z" style="fill:rgb(46,46,46);fill-rule:nonzero;"/>
        <path d="M1190.52,946.107L1190.52,947.035L1191.53,947.035L1191.53,947.572L1190.52,947.572L1190.52,949.658C1190.52,950.138 1190.66,950.41 1191.05,950.41C1191.24,950.41 1191.35,950.394 1191.45,950.361L1191.49,950.89C1191.35,950.945 1191.13,950.994 1190.86,950.994C1190.54,950.994 1190.27,950.88 1190.1,950.689C1189.9,950.482 1189.83,950.138 1189.83,949.681L1189.83,947.572L1189.23,947.572L1189.23,947.035L1189.83,947.035L1189.83,946.324L1190.52,946.107Z" style="fill:rgb(46,46,46);fill-rule:nonzero;"/>
        <path d="M1192.66,949.099C1192.68,950.05 1193.29,950.441 1193.99,950.441C1194.5,950.441 1194.8,950.353 1195.06,950.242L1195.18,950.746C1194.93,950.857 1194.51,950.994 1193.9,950.994C1192.7,950.994 1191.99,950.201 1191.99,949.035C1191.99,947.867 1192.68,946.947 1193.81,946.947C1195.07,946.947 1195.41,948.058 1195.41,948.771C1195.41,948.914 1195.39,949.027 1195.38,949.099L1192.66,949.099ZM1194.73,948.595C1194.74,948.146 1194.54,947.451 1193.75,947.451C1193.04,947.451 1192.73,948.107 1192.67,948.595L1194.73,948.595Z" style="fill:rgb(46,46,46);fill-rule:nonzero;"/>
        <path d="M1196.58,947.035L1197.13,947.867C1197.28,948.083 1197.4,948.283 1197.53,948.499L1197.55,948.499C1197.68,948.267 1197.81,948.066 1197.93,947.859L1198.48,947.035L1199.24,947.035L1197.92,948.906L1199.28,950.906L1198.48,950.906L1197.91,950.035C1197.76,949.81 1197.63,949.593 1197.5,949.363L1197.48,949.363C1197.35,949.601 1197.21,949.802 1197.07,950.035L1196.51,950.906L1195.74,950.906L1197.11,948.931L1195.8,947.035L1196.58,947.035Z" style="fill:rgb(46,46,46);fill-rule:nonzero;"/>
        <path d="M1200.91,946.107L1200.91,947.035L1201.92,947.035L1201.92,947.572L1200.91,947.572L1200.91,949.658C1200.91,950.138 1201.05,950.41 1201.44,950.41C1201.63,950.41 1201.74,950.394 1201.85,950.361L1201.88,950.89C1201.74,950.945 1201.53,950.994 1201.26,950.994C1200.93,950.994 1200.66,950.88 1200.5,950.689C1200.3,950.482 1200.22,950.138 1200.22,949.681L1200.22,947.572L1199.62,947.572L1199.62,947.035L1200.22,947.035L1200.22,946.324L1200.91,946.107Z" style="fill:rgb(46,46,46);fill-rule:nonzero;"/>
        <path d="M1134.49,955.181C1134.83,955.124 1135.27,955.078 1135.83,955.078C1136.52,955.078 1137.02,955.236 1137.34,955.525C1137.63,955.781 1137.81,956.171 1137.81,956.652C1137.81,957.14 1137.67,957.523 1137.39,957.804C1137.03,958.195 1136.43,958.394 1135.75,958.394C1135.54,958.394 1135.35,958.386 1135.19,958.347L1135.19,960.505L1134.49,960.505L1134.49,955.181ZM1135.19,957.779C1135.34,957.82 1135.53,957.835 1135.76,957.835C1136.6,957.835 1137.12,957.427 1137.12,956.683C1137.12,955.972 1136.61,955.628 1135.84,955.628C1135.54,955.628 1135.31,955.652 1135.19,955.685L1135.19,957.779Z" style="fill:rgb(46,46,46);fill-rule:nonzero;"/>
        <rect x="1138.68" y="954.83" width="0.703" height="5.675" style="fill:rgb(46,46,46);fill-rule:nonzero;"/>
        <path d="M1143.29,959.578C1143.29,959.914 1143.31,960.242 1143.36,960.505L1142.71,960.505L1142.66,960.019L1142.63,960.019C1142.42,960.322 1142,960.593 1141.45,960.593C1140.67,960.593 1140.27,960.042 1140.27,959.482C1140.27,958.546 1141.1,958.035 1142.6,958.042L1142.6,957.962C1142.6,957.644 1142.51,957.068 1141.71,957.068C1141.36,957.068 1140.98,957.179 1140.71,957.355L1140.55,956.892C1140.87,956.683 1141.33,956.548 1141.82,956.548C1143,956.548 1143.29,957.355 1143.29,958.13L1143.29,959.578ZM1142.61,958.531C1141.84,958.515 1140.97,958.65 1140.97,959.402C1140.97,959.859 1141.28,960.074 1141.64,960.074C1142.14,960.074 1142.46,959.753 1142.57,959.427C1142.6,959.355 1142.61,959.275 1142.61,959.203L1142.61,958.531Z" style="fill:rgb(46,46,46);fill-rule:nonzero;"/>
        <path d="M1147.19,960.363C1147,960.458 1146.6,960.593 1146.08,960.593C1144.91,960.593 1144.15,959.794 1144.15,958.611C1144.15,957.419 1144.96,956.556 1146.23,956.556C1146.64,956.556 1147.01,956.66 1147.2,956.755L1147.04,957.3C1146.88,957.205 1146.61,957.115 1146.23,957.115C1145.34,957.115 1144.86,957.771 1144.86,958.58C1144.86,959.474 1145.44,960.027 1146.2,960.027C1146.6,960.027 1146.87,959.921 1147.07,959.833L1147.19,960.363Z" style="fill:rgb(46,46,46);fill-rule:nonzero;"/>
        <path d="M1148.36,958.699C1148.37,959.65 1148.98,960.042 1149.68,960.042C1150.19,960.042 1150.49,959.955 1150.76,959.841L1150.88,960.345C1150.63,960.458 1150.2,960.593 1149.59,960.593C1148.4,960.593 1147.68,959.802 1147.68,958.634C1147.68,957.468 1148.37,956.548 1149.5,956.548C1150.76,956.548 1151.1,957.66 1151.1,958.371C1151.1,958.515 1151.08,958.626 1151.08,958.699L1148.36,958.699ZM1150.42,958.195C1150.43,957.748 1150.24,957.052 1149.44,957.052C1148.73,957.052 1148.42,957.707 1148.37,958.195L1150.42,958.195Z" style="fill:rgb(46,46,46);fill-rule:nonzero;"/>
        <path d="M1154.52,955.708L1154.52,956.636L1155.52,956.636L1155.52,957.171L1154.52,957.171L1154.52,959.259C1154.52,959.738 1154.65,960.009 1155.04,960.009C1155.24,960.009 1155.35,959.994 1155.45,959.962L1155.48,960.49C1155.35,960.546 1155.13,960.593 1154.86,960.593C1154.53,960.593 1154.27,960.482 1154.1,960.29C1153.9,960.082 1153.83,959.738 1153.83,959.283L1153.83,957.171L1153.23,957.171L1153.23,956.636L1153.83,956.636L1153.83,955.925L1154.52,955.708Z" style="fill:rgb(46,46,46);fill-rule:nonzero;"/>
        <path d="M1156.66,958.699C1156.68,959.65 1157.28,960.042 1157.99,960.042C1158.49,960.042 1158.8,959.955 1159.06,959.841L1159.18,960.345C1158.93,960.458 1158.51,960.593 1157.89,960.593C1156.7,960.593 1155.99,959.802 1155.99,958.634C1155.99,957.468 1156.68,956.548 1157.8,956.548C1159.07,956.548 1159.4,957.66 1159.4,958.371C1159.4,958.515 1159.39,958.626 1159.38,958.699L1156.66,958.699ZM1158.72,958.195C1158.73,957.748 1158.54,957.052 1157.75,957.052C1157.04,957.052 1156.72,957.707 1156.67,958.195L1158.72,958.195Z" style="fill:rgb(46,46,46);fill-rule:nonzero;"/>
        <path d="M1160.58,956.636L1161.13,957.468C1161.28,957.683 1161.4,957.882 1161.52,958.099L1161.55,958.099C1161.68,957.867 1161.8,957.667 1161.93,957.46L1162.48,956.636L1163.24,956.636L1161.92,958.507L1163.28,960.505L1162.48,960.505L1161.91,959.634C1161.76,959.41 1161.63,959.195 1161.49,958.962L1161.48,958.962C1161.35,959.203 1161.21,959.402 1161.07,959.634L1160.51,960.505L1159.73,960.505L1161.11,958.531L1159.8,956.636L1160.58,956.636Z" style="fill:rgb(46,46,46);fill-rule:nonzero;"/>
        <path d="M1164.91,955.708L1164.91,956.636L1165.92,956.636L1165.92,957.171L1164.91,957.171L1164.91,959.259C1164.91,959.738 1165.04,960.009 1165.44,960.009C1165.63,960.009 1165.74,959.994 1165.84,959.962L1165.88,960.49C1165.74,960.546 1165.52,960.593 1165.25,960.593C1164.92,960.593 1164.66,960.482 1164.49,960.29C1164.29,960.082 1164.22,959.738 1164.22,959.283L1164.22,957.171L1163.62,957.171L1163.62,956.636L1164.22,956.636L1164.22,955.925L1164.91,955.708Z" style="fill:rgb(46,46,46);fill-rule:nonzero;"/>
        <path d="M1168.4,954.83L1169.11,954.83L1169.11,957.244L1169.13,957.244C1169.24,957.044 1169.41,956.869 1169.63,956.748C1169.84,956.628 1170.08,956.548 1170.35,956.548C1170.87,956.548 1171.7,956.869 1171.7,958.203L1171.7,960.505L1171,960.505L1171,958.283C1171,957.66 1170.76,957.132 1170.1,957.132C1169.64,957.132 1169.28,957.451 1169.16,957.835C1169.12,957.931 1169.11,958.035 1169.11,958.171L1169.11,960.505L1168.4,960.505L1168.4,954.83Z" style="fill:rgb(46,46,46);fill-rule:nonzero;"/>
        <path d="M1173.24,958.699C1173.25,959.65 1173.86,960.042 1174.56,960.042C1175.07,960.042 1175.37,959.955 1175.63,959.841L1175.75,960.345C1175.51,960.458 1175.08,960.593 1174.47,960.593C1173.28,960.593 1172.56,959.802 1172.56,958.634C1172.56,957.468 1173.25,956.548 1174.38,956.548C1175.64,956.548 1175.98,957.66 1175.98,958.371C1175.98,958.515 1175.96,958.626 1175.95,958.699L1173.24,958.699ZM1175.3,958.195C1175.31,957.748 1175.12,957.052 1174.32,957.052C1173.61,957.052 1173.3,957.707 1173.24,958.195L1175.3,958.195Z" style="fill:rgb(46,46,46);fill-rule:nonzero;"/>
        <path d="M1176.85,957.843C1176.85,957.388 1176.84,956.996 1176.82,956.636L1177.44,956.636L1177.46,957.396L1177.49,957.396C1177.67,956.876 1178.09,956.548 1178.56,956.548C1178.64,956.548 1178.7,956.556 1178.76,956.572L1178.76,957.236C1178.69,957.22 1178.62,957.212 1178.52,957.212C1178.03,957.212 1177.68,957.587 1177.58,958.115C1177.56,958.21 1177.55,958.324 1177.55,958.443L1177.55,960.505L1176.85,960.505L1176.85,957.843Z" style="fill:rgb(46,46,46);fill-rule:nonzero;"/>
        <path d="M1179.78,958.699C1179.8,959.65 1180.4,960.042 1181.11,960.042C1181.61,960.042 1181.92,959.955 1182.18,959.841L1182.3,960.345C1182.05,960.458 1181.63,960.593 1181.01,960.593C1179.82,960.593 1179.11,959.802 1179.11,958.634C1179.11,957.468 1179.8,956.548 1180.92,956.548C1182.19,956.548 1182.52,957.66 1182.52,958.371C1182.52,958.515 1182.51,958.626 1182.5,958.699L1179.78,958.699ZM1181.84,958.195C1181.85,957.748 1181.66,957.052 1180.87,957.052C1180.16,957.052 1179.84,957.707 1179.79,958.195L1181.84,958.195Z" style="fill:rgb(46,46,46);fill-rule:nonzero;"/>
        <path d="M1148.03,878.777L1159.88,868.726L1157.13,868.726L1141.32,882.134L1162.1,882.134L1162.24,882.025L1166.06,878.777L1148.03,878.777Z" style="fill:rgb(46,46,46);fill-rule:nonzero;"/>
        <path d="M1163.91,870.593L1166.11,868.726L1164.34,868.726L1159.61,872.744L1173.17,872.744L1175.7,870.593L1163.91,870.593Z" style="fill:rgb(46,46,46);fill-rule:nonzero;"/>
        <path d="M1156.46,874.425L1163.18,868.726L1160.97,868.726L1151.09,877.111L1168.02,877.111L1171.19,874.425L1156.46,874.425Z" style="fill:rgb(46,46,46);fill-rule:nonzero;"/>
        <path d="M1242.98,839.712L1244.9,838.23C1244.75,837.025 1244.46,835.835 1244.03,834.689L1231.65,825.117C1231.11,825.056 1224.35,825.298 1224.35,825.298L1242.98,839.712Z" style="fill:rgb(224,228,204);fill-rule:nonzero;"/>
        <path d="M1224.35,837.673L1242.98,852.085L1245.02,850.511L1245.02,847.828L1224.35,831.839L1224.35,837.673Z" style="fill:rgb(224,228,204);fill-rule:nonzero;"/>
        <path d="M1224.35,850.046L1242.98,864.458L1245.02,862.884L1245.02,860.201L1224.35,844.214L1224.35,850.046Z" style="fill:rgb(224,228,204);fill-rule:nonzero;"/>
        <path d="M1224.35,862.419L1242.98,876.833L1245.02,875.259L1245.02,872.576L1224.35,856.587L1224.35,862.419Z" style="fill:rgb(224,228,204);fill-rule:nonzero;"/>
        <path d="M1224.35,874.794L1242.98,889.207L1245.02,887.632L1245.02,884.949L1224.35,868.961L1224.35,874.794Z" style="fill:rgb(224,228,204);fill-rule:nonzero;"/>
        <path d="M1224.35,887.167L1242.98,901.582L1245.02,900.007L1245.02,897.322L1224.35,881.335L1224.35,887.167Z" style="fill:rgb(224,228,204);fill-rule:nonzero;"/>
        <path d="M1224.35,899.542L1242.98,913.955L1245.02,912.38L1245.02,909.697L1224.35,893.708L1224.35,899.542Z" style="fill:rgb(224,228,204);fill-rule:nonzero;"/>
        <path d="M1224.35,911.915L1242.98,926.33L1245.02,924.755L1245.02,922.07L1224.35,906.083L1224.35,911.915Z" style="fill:rgb(224,228,204);fill-rule:nonzero;"/>
        <path d="M1224.35,924.29L1242.98,938.703L1245.02,937.128L1245.02,934.445L1224.35,918.457L1224.35,924.29Z" style="fill:rgb(224,228,204);fill-rule:nonzero;"/>
        <path d="M1224.35,936.664L1242.98,951.076L1245.02,949.501L1245.02,946.818L1224.35,930.832L1224.35,936.664Z" style="fill:rgb(224,228,204);fill-rule:nonzero;"/>
        <path d="M1224.35,949.037L1242.98,963.451L1245.02,961.876L1245.02,959.193L1224.35,943.205L1224.35,949.037Z" style="fill:rgb(224,228,204);fill-rule:nonzero;"/>
        <path d="M1224.35,961.412L1242.98,975.824L1245.02,974.249L1245.02,971.566L1224.35,955.58L1224.35,961.412Z" style="fill:rgb(224,228,204);fill-rule:nonzero;"/>
        <path d="M1224.35,973.785L1242.98,988.199L1245.02,986.624L1245.02,983.939L1224.35,967.953L1224.35,973.785Z" style="fill:rgb(224,228,204);fill-rule:nonzero;"/>
        <path d="M1224.35,986.16L1241.62,999.521C1242.63,998.289 1243.41,996.931 1243.97,995.507L1224.35,980.326L1224.35,986.16Z" style="fill:rgb(224,228,204);fill-rule:nonzero;"/>
        <path d="M1224.35,998.533L1232.46,1004.81C1234.25,1004.51 1235.99,1003.89 1237.6,1002.95L1224.35,992.701L1224.35,998.533Z" style="fill:rgb(224,228,204);fill-rule:nonzero;"/>
        <path d="M990.357,842.253L1039.36,879.587L1088.36,842.253L1063.24,842.253L1063.24,825.32L1015.47,825.32L1015.47,842.253L990.357,842.253Z" style="fill:rgb(224,228,204);fill-rule:nonzero;"/>
    </g>
    <defs>
        <linearGradient id="_Linear1" x1="0" y1="0" x2="1" y2="0" gradientUnits="userSpaceOnUse" gradientTransform="matrix(281.999,0,0,176,959.715,827.019)"><stop offset="0" style="stop-color:rgb(230,71,0);stop-opacity:1"/><stop offset="1" style="stop-color:rgb(243,134,48);stop-opacity:1"/></linearGradient>
    </defs>
</svg>
