<?xml version="1.0" encoding="UTF-8" standalone="no"?>
<!DOCTYPE svg PUBLIC "-//W3C//DTD SVG 1.1//EN" "http://www.w3.org/Graphics/SVG/1.1/DTD/svg11.dtd">
<svg width="100%" height="100%" viewBox="0 0 290 181" version="1.1" xmlns="http://www.w3.org/2000/svg" xmlns:xlink="http://www.w3.org/1999/xlink" xml:space="preserve" xmlns:serif="http://www.serif.com/" style="fill-rule:evenodd;clip-rule:evenodd;stroke-linejoin:round;stroke-miterlimit:1.41421;">
    <g transform="matrix(1,0,0,1,-25.714,-1025.02)">
        <path d="M300.713,1029.02L40.713,1029.02C37.776,1029.02 35.015,1030.16 32.935,1032.24C30.857,1034.32 29.714,1037.08 29.714,1040.02L29.714,1190.02C29.714,1192.96 30.857,1195.72 32.935,1197.8C35.013,1199.88 37.776,1201.02 40.713,1201.02L300.713,1201.02C303.652,1201.02 306.415,1199.88 308.491,1197.8C310.569,1195.72 311.713,1192.96 311.713,1190.02L311.713,1040.02C311.713,1037.08 310.569,1034.32 308.491,1032.24C306.413,1030.16 303.65,1029.02 300.713,1029.02Z" style="fill:rgb(84,36,55);fill-rule:nonzero;"/>
        <path d="M242.841,1164.41C236.072,1164.41 229.305,1164.41 222.536,1164.41C222.173,1168.89 221.782,1173.71 221.361,1178.9C220.907,1184.51 220.415,1190.59 219.88,1197.2C219.736,1198.97 219.438,1202.65 219.438,1202.65L245.951,1202.8C245.951,1202.8 245.645,1199.02 245.497,1197.2C244.962,1190.59 244.47,1184.51 244.016,1178.9C243.595,1173.71 243.204,1168.89 242.841,1164.41Z" style="fill:rgb(224,228,204);fill-rule:nonzero;"/>
        <path d="M239.479,1122.91C234.952,1122.91 230.425,1122.91 225.898,1122.91C225.569,1126.97 225.206,1131.45 224.805,1136.41C224.357,1141.93 223.856,1148.12 223.291,1155.09C229.556,1155.09 235.821,1155.09 242.086,1155.09C241.521,1148.12 241.02,1141.93 240.572,1136.41C240.171,1131.45 239.808,1126.97 239.479,1122.91Z" style="fill:rgb(224,228,204);fill-rule:nonzero;"/>
        <path d="M237.789,1102.06C234.389,1102.06 230.988,1102.06 227.588,1102.06C227.207,1106.76 226.765,1112.22 226.244,1118.64C230.54,1118.64 234.837,1118.64 239.133,1118.64C238.612,1112.22 238.17,1106.76 237.789,1102.06Z" style="fill:rgb(224,228,204);fill-rule:nonzero;"/>
        <path d="M236.773,1089.52C234.05,1089.52 231.327,1089.52 228.604,1089.52C228.363,1092.49 228.093,1095.83 227.785,1099.62C231.054,1099.62 234.323,1099.62 237.592,1099.62C237.284,1095.83 237.014,1092.49 236.773,1089.52Z" style="fill:rgb(224,228,204);fill-rule:nonzero;"/>
        <path d="M236.095,1081.14C233.824,1081.14 231.553,1081.14 229.282,1081.14C229.116,1083.19 228.934,1085.44 228.731,1087.94C231.369,1087.94 234.008,1087.94 236.646,1087.94C236.443,1085.44 236.261,1083.19 236.095,1081.14Z" style="fill:rgb(224,228,204);fill-rule:nonzero;"/>
        <path d="M29.214,1084.82L29.214,1039.02C29.214,1036.03 30.361,1033.21 32.447,1031.1C34.534,1028.98 37.304,1027.82 40.252,1027.82L301.174,1027.82C304.121,1027.82 306.894,1028.98 308.98,1031.1C311.065,1033.21 312.213,1036.03 312.213,1039.02L312.213,1084.82L29.214,1084.82Z" style="fill:rgb(236,208,120);fill-rule:nonzero;"/>
        <path d="M38.988,1068.29L134.225,1068.29L162.978,1055.55L134.225,1042.81L38.99,1042.81L48.715,1055.55L38.988,1068.29Z" style="fill:rgb(84,36,55);fill-rule:nonzero;"/>
        <rect x="70.411" y="1031.82" width="4.295" height="53" style="fill:rgb(84,36,55);fill-rule:nonzero;"/>
        <rect x="70.411" y="1084.82" width="4.295" height="118" style="fill:rgb(224,228,204);fill-rule:nonzero;"/>
        <path d="M116.052,1120.32L114.413,1120.32L114.413,1119.73L118.401,1119.73L118.401,1120.32L116.755,1120.32L116.755,1125.12L116.052,1125.12L116.052,1120.32Z" style="fill:rgb(224,228,204);fill-rule:nonzero;"/>
        <path d="M118.804,1123.31C118.819,1124.26 119.429,1124.66 120.132,1124.66C120.636,1124.66 120.939,1124.57 121.202,1124.45L121.323,1124.96C121.075,1125.07 120.651,1125.21 120.036,1125.21C118.845,1125.21 118.132,1124.41 118.132,1123.25C118.132,1122.08 118.819,1121.16 119.948,1121.16C121.21,1121.16 121.546,1122.27 121.546,1122.98C121.546,1123.13 121.53,1123.24 121.522,1123.31L118.804,1123.31ZM120.866,1122.81C120.874,1122.36 120.683,1121.66 119.892,1121.66C119.181,1121.66 118.868,1122.32 118.812,1122.81L120.866,1122.81Z" style="fill:rgb(224,228,204);fill-rule:nonzero;"/>
        <rect x="122.421" y="1119.44" width="0.703" height="5.676" style="fill:rgb(224,228,204);fill-rule:nonzero;"/>
        <path d="M124.605,1122.38C124.331,1122.38 124.14,1122.17 124.14,1121.89C124.14,1121.59 124.339,1121.38 124.62,1121.38C124.899,1121.38 125.083,1121.59 125.091,1121.89C125.091,1122.17 124.907,1122.38 124.612,1122.38L124.605,1122.38ZM124.605,1125.21C124.331,1125.21 124.14,1124.99 124.14,1124.71C124.14,1124.41 124.339,1124.21 124.62,1124.21C124.899,1124.21 125.083,1124.41 125.091,1124.71C125.091,1124.99 124.907,1125.21 124.612,1125.21L124.605,1125.21Z" style="fill:rgb(224,228,204);fill-rule:nonzero;"/>
        <path d="M128.962,1120.58L128.946,1120.58L128.044,1121.07L127.907,1120.53L129.042,1119.92L129.642,1119.92L129.642,1125.12L128.962,1125.12L128.962,1120.58Z" style="fill:rgb(224,228,204);fill-rule:nonzero;"/>
        <path d="M133.067,1120.58L133.052,1120.58L132.147,1121.07L132.013,1120.53L133.147,1119.92L133.747,1119.92L133.747,1125.12L133.067,1125.12L133.067,1120.58Z" style="fill:rgb(224,228,204);fill-rule:nonzero;"/>
        <path d="M137.171,1120.58L137.155,1120.58L136.251,1121.07L136.116,1120.53L137.251,1119.92L137.851,1119.92L137.851,1125.12L137.171,1125.12L137.171,1120.58Z" style="fill:rgb(224,228,204);fill-rule:nonzero;"/>
        <rect x="139.628" y="1122.7" width="1.975" height="0.519" style="fill:rgb(224,228,204);fill-rule:nonzero;"/>
        <path d="M145.657,1122.46C145.657,1124.23 145.001,1125.21 143.851,1125.21C142.835,1125.21 142.147,1124.26 142.132,1122.54C142.132,1120.79 142.882,1119.83 143.939,1119.83C145.034,1119.83 145.657,1120.81 145.657,1122.46ZM142.835,1122.54C142.835,1123.9 143.251,1124.66 143.89,1124.66C144.61,1124.66 144.954,1123.82 144.954,1122.5C144.954,1121.22 144.626,1120.38 143.897,1120.38C143.282,1120.38 142.835,1121.13 142.835,1122.54Z" style="fill:rgb(224,228,204);fill-rule:nonzero;"/>
        <path d="M149.761,1122.46C149.761,1124.23 149.106,1125.21 147.954,1125.21C146.939,1125.21 146.251,1124.26 146.235,1122.54C146.235,1120.79 146.987,1119.83 148.042,1119.83C149.138,1119.83 149.761,1120.81 149.761,1122.46ZM146.939,1122.54C146.939,1123.9 147.355,1124.66 147.995,1124.66C148.714,1124.66 149.058,1123.82 149.058,1122.5C149.058,1121.22 148.73,1120.38 148.003,1120.38C147.388,1120.38 146.939,1121.13 146.939,1122.54Z" style="fill:rgb(224,228,204);fill-rule:nonzero;"/>
        <path d="M151.939,1120.58L151.923,1120.58L151.019,1121.07L150.884,1120.53L152.019,1119.92L152.618,1119.92L152.618,1125.12L151.939,1125.12L151.939,1120.58Z" style="fill:rgb(224,228,204);fill-rule:nonzero;"/>
        <rect x="154.396" y="1122.7" width="1.974" height="0.519" style="fill:rgb(224,228,204);fill-rule:nonzero;"/>
        <path d="M160.425,1122.46C160.425,1124.23 159.769,1125.21 158.618,1125.21C157.603,1125.21 156.915,1124.26 156.899,1122.54C156.899,1120.79 157.649,1119.83 158.706,1119.83C159.802,1119.83 160.425,1120.81 160.425,1122.46ZM157.603,1122.54C157.603,1123.9 158.019,1124.66 158.657,1124.66C159.378,1124.66 159.722,1123.82 159.722,1122.5C159.722,1121.22 159.394,1120.38 158.665,1120.38C158.05,1120.38 157.603,1121.13 157.603,1122.54Z" style="fill:rgb(224,228,204);fill-rule:nonzero;"/>
        <path d="M162.603,1120.58L162.587,1120.58L161.683,1121.07L161.548,1120.53L162.683,1119.92L163.282,1119.92L163.282,1125.12L162.603,1125.12L162.603,1120.58Z" style="fill:rgb(224,228,204);fill-rule:nonzero;"/>
        <rect x="165.06" y="1122.7" width="1.974" height="0.519" style="fill:rgb(224,228,204);fill-rule:nonzero;"/>
        <path d="M171.089,1122.46C171.089,1124.23 170.433,1125.21 169.282,1125.21C168.267,1125.21 167.579,1124.26 167.564,1122.54C167.564,1120.79 168.314,1119.83 169.37,1119.83C170.466,1119.83 171.089,1120.81 171.089,1122.46ZM168.267,1122.54C168.267,1123.9 168.683,1124.66 169.321,1124.66C170.042,1124.66 170.386,1123.82 170.386,1122.5C170.386,1121.22 170.058,1120.38 169.329,1120.38C168.714,1120.38 168.267,1121.13 168.267,1122.54Z" style="fill:rgb(224,228,204);fill-rule:nonzero;"/>
        <path d="M175.192,1122.46C175.192,1124.23 174.536,1125.21 173.386,1125.21C172.37,1125.21 171.683,1124.26 171.667,1122.54C171.667,1120.79 172.417,1119.83 173.474,1119.83C174.569,1119.83 175.192,1120.81 175.192,1122.46ZM172.37,1122.54C172.37,1123.9 172.786,1124.66 173.425,1124.66C174.146,1124.66 174.489,1123.82 174.489,1122.5C174.489,1121.22 174.161,1120.38 173.433,1120.38C172.817,1120.38 172.37,1121.13 172.37,1122.54Z" style="fill:rgb(224,228,204);fill-rule:nonzero;"/>
        <rect x="175.724" y="1122.7" width="1.974" height="0.519" style="fill:rgb(224,228,204);fill-rule:nonzero;"/>
        <path d="M179.825,1120.58L179.81,1120.58L178.907,1121.07L178.771,1120.53L179.905,1119.92L180.505,1119.92L180.505,1125.12L179.825,1125.12L179.825,1120.58Z" style="fill:rgb(224,228,204);fill-rule:nonzero;"/>
        <path d="M183.929,1120.58L183.913,1120.58L183.011,1121.07L182.874,1120.53L184.009,1119.92L184.608,1119.92L184.608,1125.12L183.929,1125.12L183.929,1120.58Z" style="fill:rgb(224,228,204);fill-rule:nonzero;"/>
        <path d="M113.2,1129.33L116.103,1129.33L116.103,1129.91L113.897,1129.91L113.897,1131.7L115.935,1131.7L115.935,1132.28L113.897,1132.28L113.897,1134.72L113.2,1134.72L113.2,1129.33Z" style="fill:rgb(224,228,204);fill-rule:nonzero;"/>
        <path d="M119.431,1133.79C119.431,1134.13 119.448,1134.45 119.495,1134.72L118.856,1134.72L118.8,1134.23L118.776,1134.23C118.56,1134.54 118.144,1134.81 117.593,1134.81C116.81,1134.81 116.409,1134.26 116.409,1133.69C116.409,1132.76 117.241,1132.25 118.735,1132.26L118.735,1132.18C118.735,1131.86 118.647,1131.28 117.856,1131.28C117.497,1131.28 117.12,1131.39 116.849,1131.57L116.689,1131.11C117.009,1130.9 117.472,1130.76 117.96,1130.76C119.144,1130.76 119.431,1131.57 119.431,1132.35L119.431,1133.79ZM118.751,1132.74C117.983,1132.73 117.112,1132.87 117.112,1133.62C117.112,1134.07 117.417,1134.29 117.776,1134.29C118.28,1134.29 118.601,1133.97 118.712,1133.64C118.735,1133.57 118.751,1133.49 118.751,1133.41L118.751,1132.74Z" style="fill:rgb(224,228,204);fill-rule:nonzero;"/>
        <path d="M120.896,1130.85L121.448,1131.68C121.593,1131.9 121.712,1132.1 121.839,1132.31L121.864,1132.31C121.991,1132.08 122.12,1131.88 122.247,1131.67L122.792,1130.85L123.552,1130.85L122.231,1132.72L123.591,1134.72L122.792,1134.72L122.224,1133.85C122.071,1133.62 121.944,1133.41 121.808,1133.17L121.792,1133.17C121.663,1133.41 121.528,1133.62 121.384,1133.85L120.825,1134.72L120.048,1134.72L121.425,1132.74L120.112,1130.85L120.896,1130.85Z" style="fill:rgb(224,228,204);fill-rule:nonzero;"/>
        <path d="M124.569,1131.98C124.296,1131.98 124.105,1131.77 124.105,1131.49C124.105,1131.19 124.304,1130.98 124.585,1130.98C124.864,1130.98 125.048,1131.19 125.056,1131.49C125.056,1131.77 124.872,1131.98 124.577,1131.98L124.569,1131.98ZM124.569,1134.81C124.296,1134.81 124.105,1134.59 124.105,1134.31C124.105,1134.02 124.304,1133.81 124.585,1133.81C124.864,1133.81 125.048,1134.02 125.056,1134.31C125.056,1134.59 124.872,1134.81 124.577,1134.81L124.569,1134.81Z" style="fill:rgb(224,228,204);fill-rule:nonzero;"/>
        <path d="M130.855,1132.06C130.855,1133.83 130.198,1134.81 129.048,1134.81C128.032,1134.81 127.345,1133.86 127.329,1132.14C127.329,1130.39 128.079,1129.43 129.136,1129.43C130.231,1129.43 130.855,1130.41 130.855,1132.06ZM128.032,1132.14C128.032,1133.5 128.448,1134.26 129.087,1134.26C129.808,1134.26 130.151,1133.42 130.151,1132.1C130.151,1130.82 129.823,1129.98 129.095,1129.98C128.48,1129.98 128.032,1130.73 128.032,1132.14Z" style="fill:rgb(224,228,204);fill-rule:nonzero;"/>
        <path d="M133.032,1130.18L133.017,1130.18L132.112,1130.67L131.976,1130.13L133.112,1129.52L133.712,1129.52L133.712,1134.72L133.032,1134.72L133.032,1130.18Z" style="fill:rgb(224,228,204);fill-rule:nonzero;"/>
        <path d="M139.062,1132.06C139.062,1133.83 138.407,1134.81 137.255,1134.81C136.239,1134.81 135.552,1133.86 135.536,1132.14C135.536,1130.39 136.288,1129.43 137.343,1129.43C138.439,1129.43 139.062,1130.41 139.062,1132.06ZM136.239,1132.14C136.239,1133.5 136.655,1134.26 137.296,1134.26C138.015,1134.26 138.358,1133.42 138.358,1132.1C138.358,1130.82 138.03,1129.98 137.304,1129.98C136.689,1129.98 136.239,1130.73 136.239,1132.14Z" style="fill:rgb(224,228,204);fill-rule:nonzero;"/>
        <rect x="139.593" y="1132.3" width="1.974" height="0.52" style="fill:rgb(224,228,204);fill-rule:nonzero;"/>
        <path d="M145.622,1132.06C145.622,1133.83 144.966,1134.81 143.815,1134.81C142.8,1134.81 142.112,1133.86 142.097,1132.14C142.097,1130.39 142.847,1129.43 143.903,1129.43C144.999,1129.43 145.622,1130.41 145.622,1132.06ZM142.8,1132.14C142.8,1133.5 143.216,1134.26 143.855,1134.26C144.575,1134.26 144.919,1133.42 144.919,1132.1C144.919,1130.82 144.591,1129.98 143.862,1129.98C143.247,1129.98 142.8,1130.73 142.8,1132.14Z" style="fill:rgb(224,228,204);fill-rule:nonzero;"/>
        <path d="M147.8,1130.18L147.784,1130.18L146.88,1130.67L146.743,1130.13L147.88,1129.52L148.48,1129.52L148.48,1134.72L147.8,1134.72L147.8,1130.18Z" style="fill:rgb(224,228,204);fill-rule:nonzero;"/>
        <path d="M151.903,1130.18L151.888,1130.18L150.983,1130.67L150.847,1130.13L151.983,1129.52L152.583,1129.52L152.583,1134.72L151.903,1134.72L151.903,1130.18Z" style="fill:rgb(224,228,204);fill-rule:nonzero;"/>
        <rect x="154.36" y="1132.3" width="1.975" height="0.52" style="fill:rgb(224,228,204);fill-rule:nonzero;"/>
        <path d="M158.462,1130.18L158.446,1130.18L157.544,1130.67L157.407,1130.13L158.542,1129.52L159.142,1129.52L159.142,1134.72L158.462,1134.72L158.462,1130.18Z" style="fill:rgb(224,228,204);fill-rule:nonzero;"/>
        <path d="M164.493,1132.06C164.493,1133.83 163.839,1134.81 162.687,1134.81C161.671,1134.81 160.983,1133.86 160.968,1132.14C160.968,1130.39 161.72,1129.43 162.774,1129.43C163.87,1129.43 164.493,1130.41 164.493,1132.06ZM161.671,1132.14C161.671,1133.5 162.087,1134.26 162.728,1134.26C163.446,1134.26 163.79,1133.42 163.79,1132.1C163.79,1130.82 163.462,1129.98 162.735,1129.98C162.12,1129.98 161.671,1130.73 161.671,1132.14Z" style="fill:rgb(224,228,204);fill-rule:nonzero;"/>
        <rect x="165.024" y="1132.3" width="1.975" height="0.52" style="fill:rgb(224,228,204);fill-rule:nonzero;"/>
        <path d="M169.126,1130.18L169.11,1130.18L168.208,1130.67L168.071,1130.13L169.206,1129.52L169.806,1129.52L169.806,1134.72L169.126,1134.72L169.126,1130.18Z" style="fill:rgb(224,228,204);fill-rule:nonzero;"/>
        <path d="M173.23,1130.18L173.214,1130.18L172.312,1130.67L172.175,1130.13L173.31,1129.52L173.909,1129.52L173.909,1134.72L173.23,1134.72L173.23,1130.18Z" style="fill:rgb(224,228,204);fill-rule:nonzero;"/>
        <rect x="175.689" y="1132.3" width="1.974" height="0.52" style="fill:rgb(224,228,204);fill-rule:nonzero;"/>
        <path d="M181.718,1132.06C181.718,1133.83 181.062,1134.81 179.911,1134.81C178.896,1134.81 178.208,1133.86 178.192,1132.14C178.192,1130.39 178.942,1129.43 179.999,1129.43C181.095,1129.43 181.718,1130.41 181.718,1132.06ZM178.896,1132.14C178.896,1133.5 179.312,1134.26 179.95,1134.26C180.671,1134.26 181.015,1133.42 181.015,1132.1C181.015,1130.82 180.687,1129.98 179.958,1129.98C179.343,1129.98 178.896,1130.73 178.896,1132.14Z" style="fill:rgb(224,228,204);fill-rule:nonzero;"/>
        <path d="M185.821,1132.06C185.821,1133.83 185.165,1134.81 184.015,1134.81C182.999,1134.81 182.312,1133.86 182.296,1132.14C182.296,1130.39 183.046,1129.43 184.103,1129.43C185.198,1129.43 185.821,1130.41 185.821,1132.06ZM182.999,1132.14C182.999,1133.5 183.415,1134.26 184.054,1134.26C184.774,1134.26 185.118,1133.42 185.118,1132.1C185.118,1130.82 184.79,1129.98 184.062,1129.98C183.446,1129.98 182.999,1130.73 182.999,1132.14Z" style="fill:rgb(224,228,204);fill-rule:nonzero;"/>
        <path d="M107.804,1153.92L107.804,1151.63L106.101,1148.53L106.892,1148.53L107.651,1150.02C107.86,1150.42 108.019,1150.75 108.187,1151.13L108.204,1151.13C108.355,1150.78 108.54,1150.42 108.747,1150.02L109.522,1148.53L110.314,1148.53L108.507,1151.62L108.507,1153.92L107.804,1153.92Z" style="fill:rgb(224,228,204);fill-rule:nonzero;"/>
        <path d="M113.802,1151.95C113.802,1153.38 112.812,1154.01 111.876,1154.01C110.827,1154.01 110.021,1153.24 110.021,1152.02C110.021,1150.72 110.868,1149.96 111.939,1149.96C113.05,1149.96 113.802,1150.77 113.802,1151.95ZM110.731,1151.99C110.731,1152.84 111.22,1153.48 111.907,1153.48C112.579,1153.48 113.083,1152.85 113.083,1151.98C113.083,1151.32 112.755,1150.49 111.923,1150.49C111.091,1150.49 110.731,1151.26 110.731,1151.99Z" style="fill:rgb(224,228,204);fill-rule:nonzero;"/>
        <path d="M117.931,1152.86C117.931,1153.26 117.939,1153.62 117.962,1153.92L117.339,1153.92L117.3,1153.29L117.282,1153.29C117.099,1153.6 116.692,1154.01 116.003,1154.01C115.396,1154.01 114.669,1153.67 114.669,1152.31L114.669,1150.05L115.372,1150.05L115.372,1152.19C115.372,1152.93 115.597,1153.42 116.235,1153.42C116.708,1153.42 117.036,1153.1 117.163,1152.78C117.204,1152.68 117.228,1152.55 117.228,1152.42L117.228,1150.05L117.931,1150.05L117.931,1152.86Z" style="fill:rgb(224,228,204);fill-rule:nonzero;"/>
        <path d="M119.101,1151.26C119.101,1150.8 119.093,1150.41 119.067,1150.05L119.683,1150.05L119.708,1150.81L119.739,1150.81C119.915,1150.29 120.339,1149.96 120.812,1149.96C120.892,1149.96 120.946,1149.97 121.011,1149.99L121.011,1150.65C120.939,1150.63 120.866,1150.62 120.771,1150.62C120.274,1150.62 119.923,1151 119.827,1151.53C119.812,1151.62 119.796,1151.74 119.796,1151.86L119.796,1153.92L119.101,1153.92L119.101,1151.26Z" style="fill:rgb(224,228,204);fill-rule:nonzero;"/>
        <path d="M124.261,1149.12L124.261,1150.05L125.267,1150.05L125.267,1150.59L124.261,1150.59L124.261,1152.67C124.261,1153.15 124.396,1153.42 124.788,1153.42C124.98,1153.42 125.091,1153.41 125.196,1153.37L125.228,1153.9C125.091,1153.96 124.876,1154.01 124.605,1154.01C124.276,1154.01 124.013,1153.89 123.845,1153.7C123.644,1153.5 123.571,1153.15 123.571,1152.69L123.571,1150.59L122.972,1150.59L122.972,1150.05L123.571,1150.05L123.571,1149.34L124.261,1149.12Z" style="fill:rgb(224,228,204);fill-rule:nonzero;"/>
        <path d="M126.403,1152.11C126.419,1153.06 127.028,1153.45 127.731,1153.45C128.235,1153.45 128.538,1153.37 128.802,1153.26L128.923,1153.76C128.675,1153.87 128.251,1154.01 127.636,1154.01C126.444,1154.01 125.731,1153.21 125.731,1152.05C125.731,1150.88 126.419,1149.96 127.548,1149.96C128.81,1149.96 129.146,1151.07 129.146,1151.79C129.146,1151.93 129.13,1152.04 129.122,1152.11L126.403,1152.11ZM128.466,1151.61C128.474,1151.16 128.282,1150.46 127.491,1150.46C126.78,1150.46 126.468,1151.12 126.411,1151.61L128.466,1151.61Z" style="fill:rgb(224,228,204);fill-rule:nonzero;"/>
        <path d="M130.323,1150.05L130.876,1150.88C131.021,1151.1 131.14,1151.3 131.269,1151.51L131.292,1151.51C131.419,1151.28 131.548,1151.08 131.675,1150.87L132.22,1150.05L132.98,1150.05L131.659,1151.92L133.019,1153.92L132.22,1153.92L131.651,1153.05C131.499,1152.82 131.372,1152.61 131.235,1152.38L131.22,1152.38C131.091,1152.62 130.956,1152.82 130.812,1153.05L130.253,1153.92L129.478,1153.92L130.853,1151.94L129.54,1150.05L130.323,1150.05Z" style="fill:rgb(224,228,204);fill-rule:nonzero;"/>
        <path d="M134.651,1149.12L134.651,1150.05L135.659,1150.05L135.659,1150.59L134.651,1150.59L134.651,1152.67C134.651,1153.15 134.788,1153.42 135.179,1153.42C135.37,1153.42 135.483,1153.41 135.587,1153.37L135.618,1153.9C135.483,1153.96 135.267,1154.01 134.995,1154.01C134.667,1154.01 134.403,1153.89 134.235,1153.7C134.036,1153.5 133.964,1153.15 133.964,1152.69L133.964,1150.59L133.364,1150.59L133.364,1150.05L133.964,1150.05L133.964,1149.34L134.651,1149.12Z" style="fill:rgb(224,228,204);fill-rule:nonzero;"/>
        <path d="M138.147,1148.24L138.851,1148.24L138.851,1150.66L138.868,1150.66C138.98,1150.46 139.155,1150.28 139.37,1150.16C139.579,1150.04 139.827,1149.96 140.091,1149.96C140.61,1149.96 141.442,1150.28 141.442,1151.62L141.442,1153.92L140.737,1153.92L140.737,1151.7C140.737,1151.07 140.507,1150.54 139.843,1150.54C139.388,1150.54 139.026,1150.87 138.899,1151.25C138.858,1151.35 138.851,1151.45 138.851,1151.58L138.851,1153.92L138.147,1153.92L138.147,1148.24Z" style="fill:rgb(224,228,204);fill-rule:nonzero;"/>
        <path d="M142.98,1152.11C142.995,1153.06 143.605,1153.45 144.308,1153.45C144.812,1153.45 145.114,1153.37 145.378,1153.26L145.499,1153.76C145.251,1153.87 144.827,1154.01 144.212,1154.01C143.021,1154.01 142.308,1153.21 142.308,1152.05C142.308,1150.88 142.995,1149.96 144.124,1149.96C145.386,1149.96 145.722,1151.07 145.722,1151.79C145.722,1151.93 145.706,1152.04 145.698,1152.11L142.98,1152.11ZM145.042,1151.61C145.05,1151.16 144.858,1150.46 144.067,1150.46C143.356,1150.46 143.044,1151.12 142.987,1151.61L145.042,1151.61Z" style="fill:rgb(224,228,204);fill-rule:nonzero;"/>
        <path d="M146.597,1151.26C146.597,1150.8 146.589,1150.41 146.564,1150.05L147.179,1150.05L147.204,1150.81L147.235,1150.81C147.411,1150.29 147.835,1149.96 148.308,1149.96C148.388,1149.96 148.442,1149.97 148.507,1149.99L148.507,1150.65C148.435,1150.63 148.362,1150.62 148.267,1150.62C147.771,1150.62 147.419,1151 147.323,1151.53C147.308,1151.62 147.292,1151.74 147.292,1151.86L147.292,1153.92L146.597,1153.92L146.597,1151.26Z" style="fill:rgb(224,228,204);fill-rule:nonzero;"/>
        <path d="M149.524,1152.11C149.54,1153.06 150.147,1153.45 150.851,1153.45C151.355,1153.45 151.659,1153.37 151.923,1153.26L152.042,1153.76C151.794,1153.87 151.37,1154.01 150.755,1154.01C149.564,1154.01 148.853,1153.21 148.853,1152.05C148.853,1150.88 149.54,1149.96 150.667,1149.96C151.931,1149.96 152.267,1151.07 152.267,1151.79C152.267,1151.93 152.251,1152.04 152.243,1152.11L149.524,1152.11ZM151.587,1151.61C151.595,1151.16 151.403,1150.46 150.61,1150.46C149.899,1150.46 149.587,1151.12 149.532,1151.61L151.587,1151.61Z" style="fill:rgb(224,228,204);fill-rule:nonzero;"/>
        <path d="M154.739,1153.2C154.946,1153.34 155.315,1153.48 155.667,1153.48C156.179,1153.48 156.419,1153.22 156.419,1152.9C156.419,1152.57 156.218,1152.38 155.698,1152.19C155.003,1151.94 154.675,1151.56 154.675,1151.1C154.675,1150.47 155.179,1149.96 156.011,1149.96C156.401,1149.96 156.747,1150.07 156.962,1150.2L156.786,1150.71C156.634,1150.62 156.355,1150.49 155.995,1150.49C155.579,1150.49 155.347,1150.73 155.347,1151.02C155.347,1151.34 155.579,1151.48 156.083,1151.67C156.755,1151.93 157.099,1152.26 157.099,1152.84C157.099,1153.52 156.569,1154.01 155.651,1154.01C155.228,1154.01 154.835,1153.89 154.564,1153.74L154.739,1153.2Z" style="fill:rgb(224,228,204);fill-rule:nonzero;"/>
        <path d="M160.722,1152.99C160.722,1153.33 160.737,1153.66 160.786,1153.92L160.146,1153.92L160.091,1153.43L160.065,1153.43C159.851,1153.74 159.435,1154.01 158.882,1154.01C158.099,1154.01 157.7,1153.45 157.7,1152.9C157.7,1151.96 158.53,1151.45 160.026,1151.46L160.026,1151.38C160.026,1151.06 159.939,1150.48 159.147,1150.48C158.786,1150.48 158.411,1150.59 158.14,1150.77L157.98,1150.3C158.3,1150.1 158.763,1149.96 159.251,1149.96C160.435,1149.96 160.722,1150.77 160.722,1151.54L160.722,1152.99ZM160.042,1151.94C159.274,1151.93 158.403,1152.06 158.403,1152.82C158.403,1153.27 158.706,1153.49 159.067,1153.49C159.569,1153.49 159.89,1153.17 160.003,1152.84C160.026,1152.77 160.042,1152.69 160.042,1152.62L160.042,1151.94Z" style="fill:rgb(224,228,204);fill-rule:nonzero;"/>
        <path d="M161.86,1151.1C161.86,1150.7 161.853,1150.37 161.827,1150.05L162.442,1150.05L162.476,1150.67L162.499,1150.67C162.716,1150.3 163.075,1149.96 163.714,1149.96C164.243,1149.96 164.642,1150.28 164.81,1150.74L164.825,1150.74C164.946,1150.52 165.099,1150.35 165.257,1150.23C165.489,1150.06 165.745,1149.96 166.112,1149.96C166.624,1149.96 167.384,1150.3 167.384,1151.64L167.384,1153.92L166.696,1153.92L166.696,1151.73C166.696,1150.98 166.425,1150.54 165.856,1150.54C165.458,1150.54 165.146,1150.83 165.026,1151.18C164.993,1151.27 164.97,1151.4 164.97,1151.53L164.97,1153.92L164.282,1153.92L164.282,1151.6C164.282,1150.98 164.011,1150.54 163.476,1150.54C163.034,1150.54 162.716,1150.89 162.603,1151.24C162.564,1151.35 162.548,1151.46 162.548,1151.58L162.548,1153.92L161.86,1153.92L161.86,1151.1Z" style="fill:rgb(224,228,204);fill-rule:nonzero;"/>
        <path d="M168.532,1151.31C168.532,1150.82 168.515,1150.42 168.499,1150.05L169.132,1150.05L169.163,1150.71L169.179,1150.71C169.468,1150.24 169.923,1149.96 170.554,1149.96C171.489,1149.96 172.194,1150.75 172.194,1151.93C172.194,1153.32 171.347,1154.01 170.435,1154.01C169.923,1154.01 169.476,1153.78 169.243,1153.4L169.228,1153.4L169.228,1155.5L168.532,1155.5L168.532,1151.31ZM169.228,1152.34C169.228,1152.45 169.243,1152.54 169.259,1152.63C169.388,1153.12 169.812,1153.45 170.315,1153.45C171.058,1153.45 171.489,1152.85 171.489,1151.96C171.489,1151.18 171.083,1150.52 170.339,1150.52C169.858,1150.52 169.411,1150.87 169.274,1151.39C169.251,1151.48 169.228,1151.58 169.228,1151.68L169.228,1152.34Z" style="fill:rgb(224,228,204);fill-rule:nonzero;"/>
        <rect x="173.083" y="1148.24" width="0.703" height="5.677" style="fill:rgb(224,228,204);fill-rule:nonzero;"/>
        <path d="M175.362,1152.11C175.378,1153.06 175.987,1153.45 176.69,1153.45C177.194,1153.45 177.497,1153.37 177.761,1153.26L177.882,1153.76C177.634,1153.87 177.21,1154.01 176.595,1154.01C175.403,1154.01 174.69,1153.21 174.69,1152.05C174.69,1150.88 175.378,1149.96 176.507,1149.96C177.769,1149.96 178.105,1151.07 178.105,1151.79C178.105,1151.93 178.089,1152.04 178.081,1152.11L175.362,1152.11ZM177.425,1151.61C177.433,1151.16 177.241,1150.46 176.45,1150.46C175.739,1150.46 175.427,1151.12 175.37,1151.61L177.425,1151.61Z" style="fill:rgb(224,228,204);fill-rule:nonzero;"/>
        <path d="M181.522,1149.12L181.522,1150.05L182.53,1150.05L182.53,1150.59L181.522,1150.59L181.522,1152.67C181.522,1153.15 181.659,1153.42 182.05,1153.42C182.241,1153.42 182.355,1153.41 182.458,1153.37L182.489,1153.9C182.355,1153.96 182.138,1154.01 181.866,1154.01C181.538,1154.01 181.274,1153.89 181.106,1153.7C180.907,1153.5 180.835,1153.15 180.835,1152.69L180.835,1150.59L180.235,1150.59L180.235,1150.05L180.835,1150.05L180.835,1149.34L181.522,1149.12Z" style="fill:rgb(224,228,204);fill-rule:nonzero;"/>
        <path d="M183.667,1152.11C183.683,1153.06 184.292,1153.45 184.995,1153.45C185.499,1153.45 185.802,1153.37 186.065,1153.26L186.187,1153.76C185.939,1153.87 185.515,1154.01 184.899,1154.01C183.708,1154.01 182.995,1153.21 182.995,1152.05C182.995,1150.88 183.683,1149.96 184.812,1149.96C186.073,1149.96 186.409,1151.07 186.409,1151.79C186.409,1151.93 186.394,1152.04 186.386,1152.11L183.667,1152.11ZM185.73,1151.61C185.737,1151.16 185.546,1150.46 184.755,1150.46C184.044,1150.46 183.731,1151.12 183.675,1151.61L185.73,1151.61Z" style="fill:rgb(224,228,204);fill-rule:nonzero;"/>
        <path d="M187.587,1150.05L188.138,1150.88C188.282,1151.1 188.403,1151.3 188.53,1151.51L188.554,1151.51C188.683,1151.28 188.81,1151.08 188.939,1150.87L189.481,1150.05L190.241,1150.05L188.923,1151.92L190.282,1153.92L189.481,1153.92L188.915,1153.05C188.763,1152.82 188.634,1152.61 188.499,1152.38L188.481,1152.38C188.355,1152.62 188.218,1152.82 188.075,1153.05L187.515,1153.92L186.739,1153.92L188.114,1151.94L186.804,1150.05L187.587,1150.05Z" style="fill:rgb(224,228,204);fill-rule:nonzero;"/>
        <path d="M191.915,1149.12L191.915,1150.05L192.921,1150.05L192.921,1150.59L191.915,1150.59L191.915,1152.67C191.915,1153.15 192.05,1153.42 192.442,1153.42C192.634,1153.42 192.745,1153.41 192.851,1153.37L192.882,1153.9C192.745,1153.96 192.53,1154.01 192.259,1154.01C191.931,1154.01 191.667,1153.89 191.499,1153.7C191.298,1153.5 191.226,1153.15 191.226,1152.69L191.226,1150.59L190.626,1150.59L190.626,1150.05L191.226,1150.05L191.226,1149.34L191.915,1149.12Z" style="fill:rgb(224,228,204);fill-rule:nonzero;"/>
        <path d="M125.495,1158.19C125.831,1158.14 126.271,1158.09 126.831,1158.09C127.519,1158.09 128.022,1158.25 128.343,1158.54C128.638,1158.79 128.814,1159.18 128.814,1159.66C128.814,1160.15 128.671,1160.54 128.397,1160.82C128.03,1161.21 127.431,1161.41 126.751,1161.41C126.544,1161.41 126.351,1161.4 126.192,1161.36L126.192,1163.52L125.495,1163.52L125.495,1158.19ZM126.192,1160.79C126.343,1160.83 126.536,1160.85 126.767,1160.85C127.606,1160.85 128.118,1160.44 128.118,1159.7C128.118,1158.99 127.614,1158.64 126.847,1158.64C126.544,1158.64 126.312,1158.66 126.192,1158.7L126.192,1160.79Z" style="fill:rgb(224,228,204);fill-rule:nonzero;"/>
        <rect x="129.689" y="1157.84" width="0.703" height="5.676" style="fill:rgb(224,228,204);fill-rule:nonzero;"/>
        <path d="M134.294,1162.59C134.294,1162.93 134.31,1163.26 134.358,1163.52L133.718,1163.52L133.663,1163.03L133.638,1163.03C133.423,1163.34 133.007,1163.61 132.454,1163.61C131.671,1163.61 131.272,1163.06 131.272,1162.5C131.272,1161.56 132.103,1161.05 133.599,1161.06L133.599,1160.98C133.599,1160.66 133.511,1160.08 132.718,1160.08C132.358,1160.08 131.983,1160.19 131.712,1160.37L131.552,1159.91C131.872,1159.7 132.335,1159.56 132.823,1159.56C134.007,1159.56 134.294,1160.37 134.294,1161.14L134.294,1162.59ZM133.614,1161.54C132.847,1161.53 131.976,1161.66 131.976,1162.41C131.976,1162.87 132.278,1163.09 132.64,1163.09C133.142,1163.09 133.462,1162.77 133.575,1162.44C133.599,1162.37 133.614,1162.29 133.614,1162.22L133.614,1161.54Z" style="fill:rgb(224,228,204);fill-rule:nonzero;"/>
        <path d="M138.19,1163.38C138.007,1163.47 137.599,1163.61 137.079,1163.61C135.911,1163.61 135.151,1162.81 135.151,1161.62C135.151,1160.43 135.968,1159.57 137.231,1159.57C137.647,1159.57 138.015,1159.67 138.206,1159.77L138.046,1160.31C137.878,1160.22 137.614,1160.13 137.231,1160.13C136.343,1160.13 135.864,1160.79 135.864,1161.59C135.864,1162.49 136.439,1163.04 137.206,1163.04C137.606,1163.04 137.87,1162.93 138.071,1162.85L138.19,1163.38Z" style="fill:rgb(224,228,204);fill-rule:nonzero;"/>
        <path d="M139.36,1161.71C139.376,1162.66 139.983,1163.06 140.687,1163.06C141.19,1163.06 141.495,1162.97 141.759,1162.86L141.878,1163.36C141.63,1163.47 141.206,1163.61 140.591,1163.61C139.399,1163.61 138.689,1162.82 138.689,1161.65C138.689,1160.48 139.376,1159.56 140.503,1159.56C141.767,1159.56 142.103,1160.67 142.103,1161.38C142.103,1161.53 142.087,1161.64 142.079,1161.71L139.36,1161.71ZM141.423,1161.21C141.431,1160.76 141.239,1160.07 140.446,1160.07C139.735,1160.07 139.423,1160.72 139.368,1161.21L141.423,1161.21Z" style="fill:rgb(224,228,204);fill-rule:nonzero;"/>
        <path d="M145.521,1158.72L145.521,1159.65L146.526,1159.65L146.526,1160.18L145.521,1160.18L145.521,1162.27C145.521,1162.75 145.655,1163.02 146.048,1163.02C146.239,1163.02 146.351,1163.01 146.454,1162.98L146.487,1163.5C146.351,1163.56 146.136,1163.61 145.864,1163.61C145.536,1163.61 145.272,1163.5 145.105,1163.3C144.903,1163.1 144.831,1162.75 144.831,1162.3L144.831,1160.18L144.231,1160.18L144.231,1159.65L144.831,1159.65L144.831,1158.94L145.521,1158.72Z" style="fill:rgb(224,228,204);fill-rule:nonzero;"/>
        <path d="M147.663,1161.71C147.679,1162.66 148.286,1163.06 148.991,1163.06C149.495,1163.06 149.798,1162.97 150.062,1162.86L150.183,1163.36C149.935,1163.47 149.511,1163.61 148.896,1163.61C147.704,1163.61 146.991,1162.82 146.991,1161.65C146.991,1160.48 147.679,1159.56 148.808,1159.56C150.069,1159.56 150.405,1160.67 150.405,1161.38C150.405,1161.53 150.39,1161.64 150.382,1161.71L147.663,1161.71ZM149.726,1161.21C149.733,1160.76 149.542,1160.07 148.751,1160.07C148.04,1160.07 147.728,1160.72 147.671,1161.21L149.726,1161.21Z" style="fill:rgb(224,228,204);fill-rule:nonzero;"/>
        <path d="M151.583,1159.65L152.136,1160.48C152.28,1160.7 152.399,1160.9 152.526,1161.11L152.552,1161.11C152.679,1160.88 152.808,1160.68 152.935,1160.47L153.48,1159.65L154.239,1159.65L152.919,1161.52L154.278,1163.52L153.48,1163.52L152.911,1162.65C152.759,1162.42 152.632,1162.21 152.495,1161.98L152.48,1161.98C152.351,1162.22 152.216,1162.41 152.071,1162.65L151.513,1163.52L150.735,1163.52L152.112,1161.54L150.8,1159.65L151.583,1159.65Z" style="fill:rgb(224,228,204);fill-rule:nonzero;"/>
        <path d="M155.911,1158.72L155.911,1159.65L156.919,1159.65L156.919,1160.18L155.911,1160.18L155.911,1162.27C155.911,1162.75 156.048,1163.02 156.439,1163.02C156.63,1163.02 156.743,1163.01 156.847,1162.98L156.878,1163.5C156.743,1163.56 156.526,1163.61 156.255,1163.61C155.927,1163.61 155.663,1163.5 155.495,1163.3C155.296,1163.1 155.224,1162.75 155.224,1162.3L155.224,1160.18L154.624,1160.18L154.624,1159.65L155.224,1159.65L155.224,1158.94L155.911,1158.72Z" style="fill:rgb(224,228,204);fill-rule:nonzero;"/>
        <path d="M159.407,1157.84L160.11,1157.84L160.11,1160.26L160.128,1160.26C160.239,1160.06 160.415,1159.88 160.63,1159.76C160.839,1159.64 161.087,1159.56 161.351,1159.56C161.87,1159.56 162.702,1159.88 162.702,1161.22L162.702,1163.52L161.997,1163.52L161.997,1161.3C161.997,1160.67 161.767,1160.15 161.103,1160.15C160.647,1160.15 160.286,1160.46 160.159,1160.85C160.118,1160.94 160.11,1161.05 160.11,1161.18L160.11,1163.52L159.407,1163.52L159.407,1157.84Z" style="fill:rgb(224,228,204);fill-rule:nonzero;"/>
        <path d="M164.239,1161.71C164.255,1162.66 164.862,1163.06 165.565,1163.06C166.069,1163.06 166.374,1162.97 166.638,1162.86L166.757,1163.36C166.509,1163.47 166.085,1163.61 165.47,1163.61C164.278,1163.61 163.567,1162.82 163.567,1161.65C163.567,1160.48 164.255,1159.56 165.382,1159.56C166.646,1159.56 166.981,1160.67 166.981,1161.38C166.981,1161.53 166.966,1161.64 166.958,1161.71L164.239,1161.71ZM166.302,1161.21C166.31,1160.76 166.118,1160.07 165.325,1160.07C164.614,1160.07 164.302,1160.72 164.247,1161.21L166.302,1161.21Z" style="fill:rgb(224,228,204);fill-rule:nonzero;"/>
        <path d="M167.856,1160.86C167.856,1160.4 167.847,1160.01 167.823,1159.65L168.439,1159.65L168.464,1160.41L168.495,1160.41C168.671,1159.89 169.095,1159.56 169.567,1159.56C169.647,1159.56 169.702,1159.57 169.767,1159.59L169.767,1160.25C169.694,1160.23 169.622,1160.23 169.526,1160.23C169.03,1160.23 168.679,1160.6 168.583,1161.13C168.567,1161.22 168.552,1161.34 168.552,1161.46L168.552,1163.52L167.856,1163.52L167.856,1160.86Z" style="fill:rgb(224,228,204);fill-rule:nonzero;"/>
        <path d="M170.784,1161.71C170.8,1162.66 171.407,1163.06 172.11,1163.06C172.614,1163.06 172.919,1162.97 173.183,1162.86L173.302,1163.36C173.054,1163.47 172.63,1163.61 172.015,1163.61C170.823,1163.61 170.112,1162.82 170.112,1161.65C170.112,1160.48 170.8,1159.56 171.927,1159.56C173.19,1159.56 173.526,1160.67 173.526,1161.38C173.526,1161.53 173.511,1161.64 173.503,1161.71L170.784,1161.71ZM172.847,1161.21C172.855,1160.76 172.663,1160.07 171.87,1160.07C171.159,1160.07 170.847,1160.72 170.792,1161.21L172.847,1161.21Z" style="fill:rgb(224,228,204);fill-rule:nonzero;"/>
        <path d="M196.474,1063.83C196.026,1064.05 195.13,1064.29 193.981,1064.29C191.319,1064.29 189.315,1062.59 189.315,1059.5C189.315,1056.54 191.319,1054.54 194.247,1054.54C195.423,1054.54 196.165,1054.79 196.487,1054.96L196.194,1055.95C195.731,1055.73 195.073,1055.56 194.288,1055.56C192.075,1055.56 190.605,1056.98 190.605,1059.46C190.605,1061.77 191.937,1063.25 194.233,1063.25C194.976,1063.25 195.731,1063.1 196.222,1062.86L196.474,1063.83Z" style="fill:rgb(84,36,55);fill-rule:nonzero;"/>
        <path d="M203.937,1060.69C203.937,1063.2 202.198,1064.29 200.56,1064.29C198.726,1064.29 197.31,1062.94 197.31,1060.8C197.31,1058.53 198.794,1057.2 200.673,1057.2C202.618,1057.2 203.937,1058.62 203.937,1060.69ZM198.558,1060.76C198.558,1062.24 199.411,1063.37 200.616,1063.37C201.792,1063.37 202.675,1062.26 202.675,1060.73C202.675,1059.58 202.101,1058.13 200.644,1058.13C199.187,1058.13 198.558,1059.47 198.558,1060.76Z" style="fill:rgb(84,36,55);fill-rule:nonzero;"/>
        <path d="M205.487,1059.19C205.487,1058.49 205.474,1057.91 205.431,1057.36L206.509,1057.36L206.565,1058.45L206.608,1058.45C206.985,1057.8 207.616,1057.2 208.737,1057.2C209.661,1057.2 210.362,1057.76 210.655,1058.56L210.685,1058.56C210.894,1058.18 211.159,1057.89 211.44,1057.68C211.847,1057.37 212.294,1057.2 212.939,1057.2C213.835,1057.2 215.167,1057.79 215.167,1060.14L215.167,1064.13L213.962,1064.13L213.962,1060.3C213.962,1058.99 213.485,1058.21 212.491,1058.21C211.79,1058.21 211.243,1058.73 211.034,1059.33C210.978,1059.5 210.937,1059.72 210.937,1059.95L210.937,1064.13L209.731,1064.13L209.731,1060.07C209.731,1058.99 209.255,1058.21 208.317,1058.21C207.546,1058.21 206.985,1058.83 206.79,1059.44C206.72,1059.62 206.692,1059.84 206.692,1060.04L206.692,1064.13L205.487,1064.13L205.487,1059.19Z" style="fill:rgb(84,36,55);fill-rule:nonzero;"/>
        <path d="M217.163,1059.57C217.163,1058.7 217.134,1058 217.106,1057.36L218.214,1057.36L218.269,1058.52L218.298,1058.52C218.802,1057.69 219.601,1057.2 220.706,1057.2C222.345,1057.2 223.579,1058.59 223.579,1060.65C223.579,1063.08 222.093,1064.29 220.497,1064.29C219.601,1064.29 218.815,1063.9 218.409,1063.22L218.382,1063.22L218.382,1066.91L217.163,1066.91L217.163,1059.57ZM218.382,1061.38C218.382,1061.56 218.409,1061.73 218.437,1061.88C218.661,1062.73 219.403,1063.32 220.286,1063.32C221.589,1063.32 222.345,1062.26 222.345,1060.7C222.345,1059.35 221.632,1058.18 220.329,1058.18C219.487,1058.18 218.704,1058.79 218.466,1059.71C218.423,1059.86 218.382,1060.04 218.382,1060.21L218.382,1061.38Z" style="fill:rgb(84,36,55);fill-rule:nonzero;"/>
        <path d="M229.892,1062.51C229.892,1063.1 229.919,1063.67 230.003,1064.13L228.882,1064.13L228.784,1063.28L228.743,1063.28C228.364,1063.81 227.636,1064.29 226.669,1064.29C225.296,1064.29 224.597,1063.32 224.597,1062.34C224.597,1060.7 226.054,1059.81 228.673,1059.82L228.673,1059.68C228.673,1059.12 228.519,1058.11 227.132,1058.11C226.501,1058.11 225.843,1058.31 225.366,1058.62L225.087,1057.8C225.647,1057.44 226.46,1057.2 227.314,1057.2C229.388,1057.2 229.892,1058.62 229.892,1059.97L229.892,1062.51ZM228.7,1060.67C227.356,1060.65 225.829,1060.88 225.829,1062.2C225.829,1063 226.36,1063.38 226.991,1063.38C227.874,1063.38 228.435,1062.82 228.63,1062.24C228.673,1062.12 228.7,1061.98 228.7,1061.85L228.7,1060.67Z" style="fill:rgb(84,36,55);fill-rule:nonzero;"/>
        <path d="M231.876,1059.19C231.876,1058.49 231.862,1057.91 231.821,1057.36L232.913,1057.36L232.983,1058.48L233.011,1058.48C233.347,1057.83 234.132,1057.2 235.253,1057.2C236.19,1057.2 237.647,1057.76 237.647,1060.09L237.647,1064.13L236.415,1064.13L236.415,1060.23C236.415,1059.13 236.009,1058.22 234.847,1058.22C234.034,1058.22 233.403,1058.8 233.192,1059.48C233.138,1059.64 233.108,1059.85 233.108,1060.06L233.108,1064.13L231.876,1064.13L231.876,1059.19Z" style="fill:rgb(84,36,55);fill-rule:nonzero;"/>
        <path d="M239.913,1057.36L241.397,1061.36C241.552,1061.81 241.72,1062.34 241.831,1062.75L241.86,1062.75C241.985,1062.34 242.126,1061.82 242.294,1061.33L243.64,1057.36L244.94,1057.36L243.093,1062.19C242.21,1064.51 241.608,1065.7 240.767,1066.43C240.165,1066.96 239.562,1067.17 239.255,1067.23L238.946,1066.19C239.255,1066.1 239.661,1065.9 240.024,1065.59C240.36,1065.33 240.78,1064.85 241.062,1064.22C241.118,1064.09 241.159,1064 241.159,1063.92C241.159,1063.86 241.132,1063.76 241.075,1063.6L238.567,1057.36L239.913,1057.36Z" style="fill:rgb(84,36,55);fill-rule:nonzero;"/>
        <path d="M249.026,1059.19C249.026,1058.49 249.013,1057.91 248.97,1057.36L250.064,1057.36L250.132,1058.48L250.161,1058.48C250.497,1057.83 251.28,1057.2 252.401,1057.2C253.341,1057.2 254.798,1057.76 254.798,1060.09L254.798,1064.13L253.564,1064.13L253.564,1060.23C253.564,1059.13 253.157,1058.22 251.995,1058.22C251.183,1058.22 250.554,1058.8 250.343,1059.48C250.286,1059.64 250.259,1059.85 250.259,1060.06L250.259,1064.13L249.026,1064.13L249.026,1059.19Z" style="fill:rgb(84,36,55);fill-rule:nonzero;"/>
        <path d="M261.558,1062.51C261.558,1063.1 261.587,1063.67 261.671,1064.13L260.55,1064.13L260.452,1063.28L260.409,1063.28C260.03,1063.81 259.304,1064.29 258.337,1064.29C256.964,1064.29 256.263,1063.32 256.263,1062.34C256.263,1060.7 257.72,1059.81 260.339,1059.82L260.339,1059.68C260.339,1059.12 260.185,1058.11 258.798,1058.11C258.169,1058.11 257.511,1058.31 257.034,1058.62L256.753,1057.8C257.314,1057.44 258.126,1057.2 258.981,1057.2C261.054,1057.2 261.558,1058.62 261.558,1059.97L261.558,1062.51ZM260.368,1060.67C259.022,1060.65 257.495,1060.88 257.495,1062.2C257.495,1063 258.028,1063.38 258.659,1063.38C259.54,1063.38 260.101,1062.82 260.298,1062.24C260.339,1062.12 260.368,1061.98 260.368,1061.85L260.368,1060.67Z" style="fill:rgb(84,36,55);fill-rule:nonzero;"/>
        <path d="M263.544,1059.19C263.544,1058.49 263.53,1057.91 263.487,1057.36L264.565,1057.36L264.622,1058.45L264.665,1058.45C265.042,1057.8 265.673,1057.2 266.794,1057.2C267.718,1057.2 268.419,1057.76 268.712,1058.56L268.741,1058.56C268.95,1058.18 269.216,1057.89 269.497,1057.68C269.903,1057.37 270.351,1057.2 270.995,1057.2C271.892,1057.2 273.224,1057.79 273.224,1060.14L273.224,1064.13L272.019,1064.13L272.019,1060.3C272.019,1058.99 271.542,1058.21 270.548,1058.21C269.847,1058.21 269.3,1058.73 269.091,1059.33C269.034,1059.5 268.993,1059.72 268.993,1059.95L268.993,1064.13L267.788,1064.13L267.788,1060.07C267.788,1058.99 267.312,1058.21 266.374,1058.21C265.603,1058.21 265.042,1058.83 264.847,1059.44C264.776,1059.62 264.749,1059.84 264.749,1060.04L264.749,1064.13L263.544,1064.13L263.544,1059.19Z" style="fill:rgb(84,36,55);fill-rule:nonzero;"/>
        <path d="M275.907,1060.97C275.935,1062.64 276.999,1063.32 278.231,1063.32C279.114,1063.32 279.647,1063.17 280.108,1062.97L280.319,1063.86C279.886,1064.05 279.142,1064.29 278.064,1064.29C275.978,1064.29 274.73,1062.9 274.73,1060.86C274.73,1058.81 275.935,1057.2 277.909,1057.2C280.122,1057.2 280.712,1059.15 280.712,1060.39C280.712,1060.65 280.683,1060.84 280.669,1060.97L275.907,1060.97ZM279.521,1060.09C279.534,1059.3 279.198,1058.08 277.812,1058.08C276.565,1058.08 276.019,1059.23 275.921,1060.09L279.521,1060.09Z" style="fill:rgb(84,36,55);fill-rule:nonzero;"/>
        <path d="M216.011,1073.02C216.218,1073.15 216.587,1073.29 216.939,1073.29C217.45,1073.29 217.69,1073.04 217.69,1072.72C217.69,1072.38 217.489,1072.2 216.97,1072.01C216.274,1071.76 215.946,1071.38 215.946,1070.91C215.946,1070.29 216.45,1069.78 217.282,1069.78C217.673,1069.78 218.017,1069.89 218.233,1070.02L218.058,1070.53C217.905,1070.43 217.626,1070.3 217.267,1070.3C216.851,1070.3 216.618,1070.54 216.618,1070.83C216.618,1071.15 216.851,1071.3 217.355,1071.49C218.026,1071.74 218.37,1072.08 218.37,1072.66C218.37,1073.34 217.841,1073.82 216.923,1073.82C216.499,1073.82 216.106,1073.71 215.835,1073.55L216.011,1073.02Z" style="fill:rgb(84,36,55);fill-rule:nonzero;"/>
        <path d="M221.993,1072.81C221.993,1073.14 222.009,1073.47 222.058,1073.74L221.417,1073.74L221.362,1073.25L221.337,1073.25C221.122,1073.55 220.706,1073.82 220.153,1073.82C219.37,1073.82 218.972,1073.27 218.972,1072.71C218.972,1071.78 219.802,1071.27 221.298,1071.27L221.298,1071.19C221.298,1070.87 221.21,1070.3 220.417,1070.3C220.058,1070.3 219.683,1070.41 219.411,1070.59L219.251,1070.12C219.571,1069.91 220.034,1069.78 220.522,1069.78C221.706,1069.78 221.993,1070.59 221.993,1071.36L221.993,1072.81ZM221.314,1071.76C220.546,1071.74 219.675,1071.88 219.675,1072.63C219.675,1073.09 219.978,1073.3 220.339,1073.3C220.841,1073.3 221.161,1072.98 221.274,1072.66C221.298,1072.58 221.314,1072.5 221.314,1072.43L221.314,1071.76Z" style="fill:rgb(84,36,55);fill-rule:nonzero;"/>
        <path d="M223.13,1070.91C223.13,1070.51 223.122,1070.18 223.099,1069.87L223.714,1069.87L223.745,1070.49L223.771,1070.49C223.985,1070.12 224.345,1069.78 224.985,1069.78C225.513,1069.78 225.913,1070.1 226.081,1070.55L226.097,1070.55C226.216,1070.34 226.368,1070.17 226.528,1070.05C226.761,1069.87 227.017,1069.78 227.384,1069.78C227.896,1069.78 228.655,1070.11 228.655,1071.46L228.655,1073.74L227.968,1073.74L227.968,1071.54C227.968,1070.8 227.696,1070.35 227.128,1070.35C226.728,1070.35 226.417,1070.65 226.296,1070.99C226.265,1071.09 226.241,1071.22 226.241,1071.35L226.241,1073.74L225.552,1073.74L225.552,1071.41C225.552,1070.8 225.28,1070.35 224.745,1070.35C224.306,1070.35 223.985,1070.7 223.874,1071.06C223.833,1071.16 223.817,1071.28 223.817,1071.4L223.817,1073.74L223.13,1073.74L223.13,1070.91Z" style="fill:rgb(84,36,55);fill-rule:nonzero;"/>
        <path d="M229.804,1071.13C229.804,1070.63 229.786,1070.23 229.771,1069.87L230.403,1069.87L230.435,1070.53L230.45,1070.53C230.739,1070.06 231.194,1069.78 231.825,1069.78C232.761,1069.78 233.466,1070.57 233.466,1071.74C233.466,1073.14 232.618,1073.82 231.706,1073.82C231.194,1073.82 230.747,1073.6 230.515,1073.22L230.499,1073.22L230.499,1075.32L229.804,1075.32L229.804,1071.13ZM230.499,1072.16C230.499,1072.26 230.515,1072.36 230.53,1072.45C230.659,1072.93 231.083,1073.27 231.585,1073.27C232.329,1073.27 232.761,1072.66 232.761,1071.78C232.761,1071 232.353,1070.34 231.61,1070.34C231.13,1070.34 230.683,1070.68 230.546,1071.21C230.522,1071.3 230.499,1071.4 230.499,1071.5L230.499,1072.16Z" style="fill:rgb(84,36,55);fill-rule:nonzero;"/>
        <rect x="234.355" y="1068.06" width="0.703" height="5.678" style="fill:rgb(84,36,55);fill-rule:nonzero;"/>
        <path d="M236.634,1071.93C236.649,1072.88 237.257,1073.27 237.962,1073.27C238.466,1073.27 238.769,1073.18 239.032,1073.07L239.153,1073.58C238.905,1073.69 238.481,1073.82 237.866,1073.82C236.675,1073.82 235.962,1073.03 235.962,1071.87C235.962,1070.7 236.649,1069.78 237.778,1069.78C239.04,1069.78 239.376,1070.89 239.376,1071.6C239.376,1071.74 239.36,1071.86 239.353,1071.93L236.634,1071.93ZM238.696,1071.42C238.704,1070.98 238.513,1070.28 237.722,1070.28C237.011,1070.28 236.698,1070.94 236.642,1071.42L238.696,1071.42Z" style="fill:rgb(84,36,55);fill-rule:nonzero;"/>
        <path d="M242.794,1068.94L242.794,1069.87L243.802,1069.87L243.802,1070.4L242.794,1070.4L242.794,1072.49C242.794,1072.97 242.931,1073.24 243.321,1073.24C243.513,1073.24 243.626,1073.22 243.73,1073.19L243.761,1073.72C243.626,1073.78 243.409,1073.82 243.138,1073.82C242.81,1073.82 242.546,1073.71 242.378,1073.52C242.179,1073.31 242.106,1072.97 242.106,1072.51L242.106,1070.4L241.507,1070.4L241.507,1069.87L242.106,1069.87L242.106,1069.15L242.794,1068.94Z" style="fill:rgb(84,36,55);fill-rule:nonzero;"/>
        <path d="M244.939,1071.93C244.954,1072.88 245.562,1073.27 246.265,1073.27C246.769,1073.27 247.073,1073.18 247.337,1073.07L247.456,1073.58C247.208,1073.69 246.784,1073.82 246.169,1073.82C244.978,1073.82 244.267,1073.03 244.267,1071.87C244.267,1070.7 244.954,1069.78 246.081,1069.78C247.345,1069.78 247.681,1070.89 247.681,1071.6C247.681,1071.74 247.665,1071.86 247.657,1071.93L244.939,1071.93ZM247.001,1071.42C247.009,1070.98 246.817,1070.28 246.024,1070.28C245.314,1070.28 245.001,1070.94 244.946,1071.42L247.001,1071.42Z" style="fill:rgb(84,36,55);fill-rule:nonzero;"/>
        <path d="M248.858,1069.87L249.409,1070.7C249.554,1070.91 249.673,1071.11 249.802,1071.33L249.825,1071.33C249.954,1071.1 250.081,1070.9 250.21,1070.69L250.753,1069.87L251.513,1069.87L250.194,1071.74L251.554,1073.74L250.753,1073.74L250.185,1072.86C250.034,1072.64 249.905,1072.42 249.771,1072.19L249.753,1072.19C249.626,1072.43 249.489,1072.63 249.347,1072.86L248.786,1073.74L248.011,1073.74L249.386,1071.76L248.075,1069.87L248.858,1069.87Z" style="fill:rgb(84,36,55);fill-rule:nonzero;"/>
        <path d="M253.187,1068.94L253.187,1069.87L254.192,1069.87L254.192,1070.4L253.187,1070.4L253.187,1072.49C253.187,1072.97 253.321,1073.24 253.714,1073.24C253.905,1073.24 254.017,1073.22 254.12,1073.19L254.153,1073.72C254.017,1073.78 253.802,1073.82 253.53,1073.82C253.202,1073.82 252.939,1073.71 252.771,1073.52C252.569,1073.31 252.497,1072.97 252.497,1072.51L252.497,1070.4L251.897,1070.4L251.897,1069.87L252.497,1069.87L252.497,1069.15L253.187,1068.94Z" style="fill:rgb(84,36,55);fill-rule:nonzero;"/>
        <path d="M224.534,1047.31L236.386,1037.26L233.63,1037.26L217.821,1050.66L238.601,1050.66L238.741,1050.55L242.565,1047.31L224.534,1047.31Z" style="fill:rgb(84,36,55);fill-rule:nonzero;"/>
        <path d="M240.411,1039.12L242.614,1037.26L240.849,1037.26L236.114,1041.27L249.675,1041.27L252.204,1039.12L240.411,1039.12Z" style="fill:rgb(84,36,55);fill-rule:nonzero;"/>
        <path d="M232.962,1042.96L239.683,1037.26L237.48,1037.26L227.591,1045.64L244.528,1045.64L247.692,1042.96L232.962,1042.96Z" style="fill:rgb(84,36,55);fill-rule:nonzero;"/>
        <path d="M311.32,1029.41C308.392,1026.49 304.553,1025.02 300.714,1025.02L40.714,1025.02C36.875,1025.02 33.036,1026.49 30.107,1029.41C27.178,1032.34 25.714,1036.18 25.714,1040.02L25.714,1190.02C25.714,1193.86 27.178,1197.7 30.107,1200.63C33.036,1203.56 36.875,1205.02 40.714,1205.02L300.714,1205.02C304.553,1205.02 308.392,1203.56 311.32,1200.63C314.249,1197.7 315.714,1193.86 315.714,1190.02L315.714,1040.02C315.714,1036.18 314.249,1032.34 311.32,1029.41ZM311.713,1190.02C311.713,1192.96 310.569,1195.72 308.491,1197.8C306.415,1199.88 303.652,1201.02 300.713,1201.02L40.713,1201.02C37.776,1201.02 35.013,1199.88 32.935,1197.8C30.857,1195.72 29.714,1192.96 29.714,1190.02L29.714,1040.02C29.714,1037.08 30.857,1034.32 32.935,1032.24C35.015,1030.16 37.776,1029.02 40.713,1029.02L300.713,1029.02C303.65,1029.02 306.413,1030.16 308.491,1032.24C310.569,1034.32 311.713,1037.08 311.713,1040.02L311.713,1190.02Z" style="fill:rgb(224,228,204);fill-rule:nonzero;"/>
    </g>
</svg>
