<?xml version="1.0" encoding="UTF-8" standalone="no"?>
<!DOCTYPE svg PUBLIC "-//W3C//DTD SVG 1.1//EN" "http://www.w3.org/Graphics/SVG/1.1/DTD/svg11.dtd">
<svg width="100%" height="100%" viewBox="0 0 290 181" version="1.1" xmlns="http://www.w3.org/2000/svg" xmlns:xlink="http://www.w3.org/1999/xlink" xml:space="preserve" xmlns:serif="http://www.serif.com/" style="fill-rule:evenodd;clip-rule:evenodd;stroke-linejoin:round;stroke-miterlimit:1.41421;">
    <g transform="matrix(1,0,0,1,-955.714,-1025.02)">
        <path d="M1230.71,1029.02L970.714,1029.02C967.777,1029.02 965.015,1030.16 962.935,1032.24C960.857,1034.32 959.714,1037.08 959.714,1040.02L959.714,1190.02C959.714,1192.96 960.857,1195.72 962.935,1197.8C965.013,1199.88 967.777,1201.02 970.714,1201.02L1230.71,1201.02C1233.65,1201.02 1236.42,1199.88 1238.49,1197.8C1240.57,1195.72 1241.71,1192.96 1241.71,1190.02L1241.71,1040.02C1241.71,1037.08 1240.57,1034.32 1238.49,1032.24C1236.41,1030.16 1233.65,1029.02 1230.71,1029.02Z" style="fill:rgb(189,21,80);fill-rule:nonzero;"/>
        <path d="M1152.79,1115.02C1152.79,1133.25 1138.01,1148.02 1119.79,1148.02C1101.56,1148.02 1086.79,1133.25 1086.79,1115.02C1086.79,1096.79 1101.56,1082.02 1119.79,1082.02C1138.01,1082.02 1152.79,1096.79 1152.79,1115.02Z" style="fill:rgb(180,233,243);fill-rule:nonzero;"/>
        <path d="M1119.78,1138.02C1107.1,1138.02 1096.79,1127.7 1096.79,1115.02C1096.79,1102.34 1107.1,1092.02 1119.78,1092.02C1132.47,1092.02 1142.79,1102.34 1142.79,1115.02C1142.79,1127.7 1132.47,1138.02 1119.78,1138.02Z" style="fill:rgb(189,21,80);fill-rule:nonzero;"/>
        <path d="M1119.79,1128.02C1112.62,1128.02 1106.79,1122.19 1106.79,1115.02C1106.79,1107.85 1112.62,1102.02 1119.79,1102.02C1126.95,1102.02 1132.79,1107.85 1132.79,1115.02C1132.79,1122.19 1126.95,1128.02 1119.79,1128.02Z" style="fill:rgb(180,233,243);fill-rule:nonzero;"/>
        <path d="M1216.12,1056.46C1212.03,1058.96 1208.27,1061.25 1204.81,1063.36C1198.62,1067.13 1193.26,1070.4 1188.56,1073.26C1184.42,1075.79 1180.72,1078.04 1177.41,1080.06C1174.43,1081.87 1171.72,1083.53 1169.25,1085.03C1164.9,1087.68 1161.19,1089.94 1157.99,1091.9C1161.57,1097.78 1163.76,1104.52 1164.33,1111.37C1168.07,1111.07 1172.4,1110.71 1177.48,1110.29C1180.36,1110.05 1183.52,1109.79 1187,1109.51C1190.87,1109.19 1195.17,1108.83 1200.01,1108.43C1205.49,1107.98 1211.75,1107.47 1218.97,1106.87C1223.02,1106.54 1227.41,1106.18 1232.18,1105.79C1235.66,1105.5 1243.35,1104.87 1243.35,1104.87L1243.5,1039.78C1243.5,1039.78 1234.79,1045.09 1230.88,1047.47C1225.49,1050.76 1220.59,1053.74 1216.12,1056.46Z" style="fill:rgb(180,233,243);fill-rule:nonzero;"/>
        <path d="M1205.26,1188.49C1201.63,1185.36 1198.3,1182.49 1195.22,1179.83C1189.73,1175.1 1184.98,1171 1180.82,1167.41C1177.14,1164.24 1173.86,1161.42 1170.93,1158.89C1168.28,1156.61 1165.88,1154.53 1163.69,1152.64C1159.83,1149.32 1156.54,1146.48 1153.7,1144.03C1149.2,1149.24 1143.46,1153.4 1137.1,1156.04C1138.55,1159.51 1140.21,1163.52 1142.17,1168.22C1143.28,1170.89 1144.49,1173.82 1145.84,1177.05C1147.32,1180.63 1148.98,1184.62 1150.85,1189.11C1152.5,1193.1 1156.42,1202.52 1156.42,1202.52L1221.87,1202.81C1221.87,1202.81 1219.5,1200.77 1218.35,1199.78C1213.56,1195.65 1209.22,1191.9 1205.26,1188.49Z" style="fill:rgb(180,233,243);fill-rule:nonzero;"/>
        <path d="M1218.97,1123.16C1211.75,1122.56 1205.49,1122.05 1200.01,1121.6C1195.17,1121.2 1190.87,1120.85 1187,1120.53C1183.52,1120.24 1180.36,1119.98 1177.48,1119.74C1172.4,1119.33 1168.07,1118.97 1164.33,1118.66C1163.76,1125.52 1161.57,1132.26 1157.99,1138.14C1161.2,1140.1 1164.9,1142.36 1169.25,1145.01C1171.72,1146.51 1174.43,1148.16 1177.42,1149.98C1180.73,1152 1184.42,1154.25 1188.56,1156.78C1193.26,1159.63 1198.62,1162.9 1204.81,1166.67C1208.28,1168.79 1212.03,1171.08 1216.12,1173.57C1220.59,1176.29 1225.49,1179.28 1230.89,1182.57C1234.77,1184.93 1243.42,1190.21 1243.42,1190.21L1243.69,1125.19C1243.69,1125.19 1235.76,1124.54 1232.18,1124.24C1227.41,1123.85 1223.02,1123.49 1218.97,1123.16Z" style="fill:rgb(180,233,243);fill-rule:nonzero;"/>
        <path d="M1104.37,1049.7C1105.19,1053.1 1105.93,1056.18 1106.6,1059C1107.79,1063.94 1108.8,1068.17 1109.68,1071.82C1116.38,1070.22 1123.46,1070.19 1130.17,1071.76C1131.02,1068.1 1132.01,1063.87 1133.17,1058.91C1133.83,1056.1 1134.55,1053.01 1135.35,1049.61C1136.23,1045.83 1137.21,1041.62 1138.32,1036.89C1139.02,1033.91 1140.59,1027.19 1140.59,1027.19L1098.93,1027.04C1098.93,1027.04 1100.59,1033.95 1101.32,1037C1102.45,1041.73 1103.46,1045.93 1104.37,1049.7Z" style="fill:rgb(180,233,243);fill-rule:nonzero;"/>
        <path d="M1145.84,1052.99C1144.49,1056.21 1143.28,1059.14 1142.17,1061.82C1140.21,1066.52 1138.55,1070.53 1137.1,1074C1143.46,1076.64 1149.2,1080.79 1153.7,1086.01C1156.54,1083.55 1159.83,1080.72 1163.69,1077.39C1165.88,1075.51 1168.28,1073.43 1170.93,1071.15C1173.86,1068.62 1177.14,1065.79 1180.81,1062.62C1184.98,1059.04 1189.73,1054.93 1195.22,1050.2C1198.29,1047.55 1201.63,1044.67 1205.25,1041.55C1209.21,1038.13 1213.56,1034.38 1218.35,1030.26C1219.59,1029.18 1222.18,1026.95 1222.18,1026.95L1156.8,1026.61C1156.8,1026.61 1152.6,1036.69 1150.85,1040.93C1148.98,1045.41 1147.32,1049.41 1145.84,1052.99Z" style="fill:rgb(180,233,243);fill-rule:nonzero;"/>
        <path d="M1135.35,1180.43C1134.55,1177.03 1133.83,1173.94 1133.17,1171.12C1132.01,1166.17 1131.02,1161.94 1130.17,1158.28C1123.46,1159.85 1116.38,1159.82 1109.68,1158.22C1108.8,1161.87 1107.79,1166.09 1106.6,1171.04C1105.93,1173.86 1105.19,1176.94 1104.37,1180.34C1103.46,1184.11 1102.45,1188.31 1101.32,1193.04C1100.6,1196.04 1098.98,1202.8 1098.98,1202.8L1140.54,1202.65C1140.54,1202.65 1139,1196.07 1138.32,1193.14C1137.21,1188.42 1136.23,1184.21 1135.35,1180.43Z" style="fill:rgb(180,233,243);fill-rule:nonzero;"/>
        <path d="M992.442,1086.36C991.994,1086.58 991.097,1086.82 989.949,1086.82C987.288,1086.82 985.284,1085.13 985.284,1082.03C985.284,1079.08 987.288,1077.07 990.214,1077.07C991.391,1077.07 992.133,1077.32 992.456,1077.49L992.162,1078.49C991.7,1078.26 991.042,1078.1 990.256,1078.1C988.044,1078.1 986.573,1079.51 986.573,1081.99C986.573,1084.3 987.904,1085.79 990.201,1085.79C990.943,1085.79 991.7,1085.63 992.19,1085.39L992.442,1086.36Z" style="fill:white;fill-rule:nonzero;"/>
        <path d="M999.904,1083.22C999.904,1085.73 998.167,1086.82 996.528,1086.82C994.693,1086.82 993.278,1085.48 993.278,1083.33C993.278,1081.06 994.762,1079.73 996.64,1079.73C998.586,1079.73 999.904,1081.15 999.904,1083.22ZM994.525,1083.29C994.525,1084.78 995.379,1085.9 996.584,1085.9C997.76,1085.9 998.643,1084.79 998.643,1083.26C998.643,1082.12 998.069,1080.66 996.612,1080.66C995.155,1080.66 994.525,1082 994.525,1083.29Z" style="fill:white;fill-rule:nonzero;"/>
        <path d="M1001.46,1081.72C1001.46,1081.02 1001.44,1080.45 1001.4,1079.89L1002.48,1079.89L1002.53,1080.98L1002.58,1080.98C1002.95,1080.34 1003.58,1079.73 1004.71,1079.73C1005.63,1079.73 1006.33,1080.29 1006.62,1081.09L1006.65,1081.09C1006.86,1080.71 1007.13,1080.42 1007.41,1080.21C1007.81,1079.9 1008.26,1079.73 1008.91,1079.73C1009.8,1079.73 1011.13,1080.32 1011.13,1082.67L1011.13,1086.67L1009.93,1086.67L1009.93,1082.83C1009.93,1081.53 1009.45,1080.74 1008.46,1080.74C1007.76,1080.74 1007.21,1081.26 1007,1081.86C1006.95,1082.03 1006.9,1082.26 1006.9,1082.48L1006.9,1086.67L1005.7,1086.67L1005.7,1082.61C1005.7,1081.53 1005.22,1080.74 1004.28,1080.74C1003.51,1080.74 1002.95,1081.36 1002.76,1081.98C1002.69,1082.16 1002.66,1082.37 1002.66,1082.58L1002.66,1086.67L1001.46,1086.67L1001.46,1081.72Z" style="fill:white;fill-rule:nonzero;"/>
        <path d="M1013.13,1082.1C1013.13,1081.23 1013.1,1080.53 1013.08,1079.89L1014.18,1079.89L1014.24,1081.05L1014.26,1081.05C1014.77,1080.22 1015.57,1079.73 1016.67,1079.73C1018.31,1079.73 1019.55,1081.12 1019.55,1083.18C1019.55,1085.62 1018.06,1086.82 1016.46,1086.82C1015.57,1086.82 1014.78,1086.43 1014.38,1085.76L1014.35,1085.76L1014.35,1089.44L1013.13,1089.44L1013.13,1082.1ZM1014.35,1083.91C1014.35,1084.09 1014.38,1084.26 1014.4,1084.41C1014.63,1085.27 1015.37,1085.86 1016.25,1085.86C1017.56,1085.86 1018.31,1084.79 1018.31,1083.24C1018.31,1081.88 1017.6,1080.71 1016.3,1080.71C1015.46,1080.71 1014.67,1081.32 1014.43,1082.24C1014.39,1082.4 1014.35,1082.58 1014.35,1082.75L1014.35,1083.91Z" style="fill:white;fill-rule:nonzero;"/>
        <path d="M1025.86,1085.04C1025.86,1085.63 1025.89,1086.2 1025.97,1086.67L1024.85,1086.67L1024.75,1085.81L1024.71,1085.81C1024.33,1086.35 1023.6,1086.82 1022.64,1086.82C1021.26,1086.82 1020.56,1085.86 1020.56,1084.87C1020.56,1083.24 1022.02,1082.34 1024.64,1082.35L1024.64,1082.21C1024.64,1081.65 1024.49,1080.64 1023.1,1080.64C1022.47,1080.64 1021.81,1080.84 1021.34,1081.15L1021.05,1080.34C1021.62,1079.97 1022.43,1079.73 1023.28,1079.73C1025.36,1079.73 1025.86,1081.15 1025.86,1082.51L1025.86,1085.04ZM1024.67,1083.21C1023.32,1083.18 1021.8,1083.42 1021.8,1084.73C1021.8,1085.53 1022.33,1085.91 1022.96,1085.91C1023.84,1085.91 1024.4,1085.35 1024.6,1084.78C1024.64,1084.65 1024.67,1084.51 1024.67,1084.38L1024.67,1083.21Z" style="fill:white;fill-rule:nonzero;"/>
        <path d="M1027.84,1081.72C1027.84,1081.02 1027.83,1080.45 1027.79,1079.89L1028.88,1079.89L1028.95,1081.01L1028.98,1081.01C1029.32,1080.37 1030.1,1079.73 1031.22,1079.73C1032.16,1079.73 1033.62,1080.29 1033.62,1082.62L1033.62,1086.67L1032.38,1086.67L1032.38,1082.76C1032.38,1081.67 1031.98,1080.76 1030.81,1080.76C1030,1080.76 1029.37,1081.33 1029.16,1082.02C1029.11,1082.17 1029.08,1082.38 1029.08,1082.59L1029.08,1086.67L1027.84,1086.67L1027.84,1081.72Z" style="fill:white;fill-rule:nonzero;"/>
        <path d="M1035.88,1079.89L1037.37,1083.89C1037.52,1084.34 1037.69,1084.87 1037.8,1085.28L1037.83,1085.28C1037.95,1084.87 1038.09,1084.36 1038.26,1083.87L1039.61,1079.89L1040.91,1079.89L1039.06,1084.72C1038.18,1087.05 1037.58,1088.24 1036.74,1088.96C1036.13,1089.5 1035.53,1089.71 1035.22,1089.76L1034.91,1088.73C1035.22,1088.63 1035.63,1088.43 1035.99,1088.12C1036.33,1087.86 1036.75,1087.38 1037.03,1086.75C1037.09,1086.63 1037.13,1086.53 1037.13,1086.46C1037.13,1086.39 1037.1,1086.29 1037.04,1086.14L1034.54,1079.89L1035.88,1079.89Z" style="fill:white;fill-rule:nonzero;"/>
        <path d="M1044.99,1081.72C1044.99,1081.02 1044.98,1080.45 1044.94,1079.89L1046.03,1079.89L1046.1,1081.01L1046.13,1081.01C1046.46,1080.37 1047.25,1079.73 1048.37,1079.73C1049.31,1079.73 1050.77,1080.29 1050.77,1082.62L1050.77,1086.67L1049.53,1086.67L1049.53,1082.76C1049.53,1081.67 1049.13,1080.76 1047.96,1080.76C1047.15,1080.76 1046.52,1081.33 1046.31,1082.02C1046.25,1082.17 1046.23,1082.38 1046.23,1082.59L1046.23,1086.67L1044.99,1086.67L1044.99,1081.72Z" style="fill:white;fill-rule:nonzero;"/>
        <path d="M1057.53,1085.04C1057.53,1085.63 1057.55,1086.2 1057.64,1086.67L1056.52,1086.67L1056.42,1085.81L1056.38,1085.81C1056,1086.35 1055.27,1086.82 1054.3,1086.82C1052.93,1086.82 1052.23,1085.86 1052.23,1084.87C1052.23,1083.24 1053.69,1082.34 1056.31,1082.35L1056.31,1082.21C1056.31,1081.65 1056.15,1080.64 1054.77,1080.64C1054.14,1080.64 1053.48,1080.84 1053,1081.15L1052.72,1080.34C1053.28,1079.97 1054.09,1079.73 1054.95,1079.73C1057.02,1079.73 1057.53,1081.15 1057.53,1082.51L1057.53,1085.04ZM1056.34,1083.21C1054.99,1083.18 1053.46,1083.42 1053.46,1084.73C1053.46,1085.53 1054,1085.91 1054.63,1085.91C1055.51,1085.91 1056.07,1085.35 1056.27,1084.78C1056.31,1084.65 1056.34,1084.51 1056.34,1084.38L1056.34,1083.21Z" style="fill:white;fill-rule:nonzero;"/>
        <path d="M1059.51,1081.72C1059.51,1081.02 1059.5,1080.45 1059.46,1079.89L1060.53,1079.89L1060.59,1080.98L1060.63,1080.98C1061.01,1080.34 1061.64,1079.73 1062.76,1079.73C1063.69,1079.73 1064.39,1080.29 1064.68,1081.09L1064.71,1081.09C1064.92,1080.71 1065.18,1080.42 1065.46,1080.21C1065.87,1079.9 1066.32,1079.73 1066.96,1079.73C1067.86,1079.73 1069.19,1080.32 1069.19,1082.67L1069.19,1086.67L1067.99,1086.67L1067.99,1082.83C1067.99,1081.53 1067.51,1080.74 1066.52,1080.74C1065.82,1080.74 1065.27,1081.26 1065.06,1081.86C1065,1082.03 1064.96,1082.26 1064.96,1082.48L1064.96,1086.67L1063.76,1086.67L1063.76,1082.61C1063.76,1081.53 1063.28,1080.74 1062.34,1080.74C1061.57,1080.74 1061.01,1081.36 1060.81,1081.98C1060.74,1082.16 1060.72,1082.37 1060.72,1082.58L1060.72,1086.67L1059.51,1086.67L1059.51,1081.72Z" style="fill:white;fill-rule:nonzero;"/>
        <path d="M1071.88,1083.5C1071.9,1085.17 1072.97,1085.86 1074.2,1085.86C1075.08,1085.86 1075.62,1085.7 1076.08,1085.51L1076.29,1086.39C1075.85,1086.58 1075.11,1086.82 1074.03,1086.82C1071.94,1086.82 1070.7,1085.43 1070.7,1083.39C1070.7,1081.35 1071.9,1079.73 1073.88,1079.73C1076.09,1079.73 1076.68,1081.68 1076.68,1082.93C1076.68,1083.18 1076.65,1083.38 1076.64,1083.5L1071.88,1083.5ZM1075.49,1082.62C1075.5,1081.84 1075.17,1080.62 1073.78,1080.62C1072.53,1080.62 1071.99,1081.77 1071.89,1082.62L1075.49,1082.62Z" style="fill:white;fill-rule:nonzero;"/>
        <path d="M1011.98,1095.55C1012.19,1095.68 1012.55,1095.83 1012.91,1095.83C1013.42,1095.83 1013.66,1095.57 1013.66,1095.25C1013.66,1094.92 1013.46,1094.73 1012.94,1094.54C1012.24,1094.29 1011.92,1093.91 1011.92,1093.44C1011.92,1092.82 1012.42,1092.31 1013.25,1092.31C1013.64,1092.31 1013.99,1092.42 1014.2,1092.55L1014.02,1093.06C1013.87,1092.97 1013.59,1092.84 1013.23,1092.84C1012.82,1092.84 1012.59,1093.08 1012.59,1093.37C1012.59,1093.68 1012.82,1093.83 1013.32,1094.02C1013.99,1094.28 1014.34,1094.61 1014.34,1095.19C1014.34,1095.87 1013.81,1096.36 1012.89,1096.36C1012.47,1096.36 1012.08,1096.24 1011.8,1096.08L1011.98,1095.55Z" style="fill:white;fill-rule:nonzero;"/>
        <path d="M1017.96,1095.34C1017.96,1095.67 1017.98,1096 1018.02,1096.27L1017.38,1096.27L1017.33,1095.78L1017.31,1095.78C1017.09,1096.08 1016.67,1096.36 1016.12,1096.36C1015.34,1096.36 1014.94,1095.8 1014.94,1095.24C1014.94,1094.31 1015.77,1093.8 1017.26,1093.81L1017.26,1093.73C1017.26,1093.41 1017.18,1092.83 1016.38,1092.83C1016.03,1092.83 1015.65,1092.94 1015.38,1093.12L1015.22,1092.65C1015.54,1092.45 1016,1092.31 1016.49,1092.31C1017.67,1092.31 1017.96,1093.12 1017.96,1093.89L1017.96,1095.34ZM1017.28,1094.29C1016.51,1094.28 1015.64,1094.41 1015.64,1095.16C1015.64,1095.62 1015.95,1095.84 1016.31,1095.84C1016.81,1095.84 1017.13,1095.52 1017.24,1095.19C1017.26,1095.12 1017.28,1095.04 1017.28,1094.96L1017.28,1094.29Z" style="fill:white;fill-rule:nonzero;"/>
        <path d="M1019.1,1093.44C1019.1,1093.05 1019.09,1092.72 1019.07,1092.4L1019.68,1092.4L1019.71,1093.02L1019.74,1093.02C1019.95,1092.65 1020.31,1092.31 1020.95,1092.31C1021.48,1092.31 1021.88,1092.63 1022.05,1093.09L1022.06,1093.09C1022.18,1092.87 1022.34,1092.7 1022.5,1092.58C1022.73,1092.41 1022.98,1092.31 1023.35,1092.31C1023.86,1092.31 1024.62,1092.65 1024.62,1093.99L1024.62,1096.27L1023.94,1096.27L1023.94,1094.08C1023.94,1093.33 1023.66,1092.89 1023.1,1092.89C1022.7,1092.89 1022.38,1093.18 1022.26,1093.53C1022.23,1093.62 1022.21,1093.75 1022.21,1093.88L1022.21,1096.27L1021.52,1096.27L1021.52,1093.95C1021.52,1093.33 1021.25,1092.89 1020.71,1092.89C1020.27,1092.89 1019.95,1093.24 1019.84,1093.59C1019.8,1093.69 1019.79,1093.81 1019.79,1093.93L1019.79,1096.27L1019.1,1096.27L1019.1,1093.44Z" style="fill:white;fill-rule:nonzero;"/>
        <path d="M1025.77,1093.66C1025.77,1093.16 1025.75,1092.77 1025.74,1092.4L1026.37,1092.4L1026.4,1093.06L1026.42,1093.06C1026.71,1092.59 1027.16,1092.31 1027.79,1092.31C1028.73,1092.31 1029.43,1093.1 1029.43,1094.28C1029.43,1095.67 1028.59,1096.36 1027.67,1096.36C1027.16,1096.36 1026.71,1096.13 1026.48,1095.75L1026.47,1095.75L1026.47,1097.85L1025.77,1097.85L1025.77,1093.66ZM1026.47,1094.69C1026.47,1094.8 1026.48,1094.89 1026.5,1094.98C1026.63,1095.47 1027.05,1095.8 1027.55,1095.8C1028.3,1095.8 1028.73,1095.2 1028.73,1094.31C1028.73,1093.53 1028.32,1092.87 1027.58,1092.87C1027.1,1092.87 1026.65,1093.21 1026.51,1093.74C1026.49,1093.83 1026.47,1093.93 1026.47,1094.03L1026.47,1094.69Z" style="fill:white;fill-rule:nonzero;"/>
        <rect x="1030.32" y="1090.59" width="0.703" height="5.676" style="fill:white;fill-rule:nonzero;"/>
        <path d="M1032.6,1094.46C1032.62,1095.41 1033.22,1095.8 1033.93,1095.8C1034.43,1095.8 1034.74,1095.72 1035,1095.61L1035.12,1096.11C1034.87,1096.22 1034.45,1096.36 1033.83,1096.36C1032.64,1096.36 1031.93,1095.56 1031.93,1094.4C1031.93,1093.23 1032.62,1092.31 1033.75,1092.31C1035.01,1092.31 1035.34,1093.42 1035.34,1094.13C1035.34,1094.28 1035.33,1094.39 1035.32,1094.46L1032.6,1094.46ZM1034.66,1093.96C1034.67,1093.51 1034.48,1092.81 1033.69,1092.81C1032.98,1092.81 1032.67,1093.47 1032.61,1093.96L1034.66,1093.96Z" style="fill:white;fill-rule:nonzero;"/>
        <path d="M1038.76,1091.47L1038.76,1092.4L1039.77,1092.4L1039.77,1092.93L1038.76,1092.93L1038.76,1095.02C1038.76,1095.5 1038.9,1095.77 1039.29,1095.77C1039.48,1095.77 1039.59,1095.76 1039.7,1095.72L1039.73,1096.25C1039.59,1096.31 1039.38,1096.36 1039.11,1096.36C1038.78,1096.36 1038.51,1096.24 1038.35,1096.05C1038.15,1095.84 1038.07,1095.5 1038.07,1095.04L1038.07,1092.93L1037.47,1092.93L1037.47,1092.4L1038.07,1092.4L1038.07,1091.69L1038.76,1091.47Z" style="fill:white;fill-rule:nonzero;"/>
        <path d="M1040.91,1094.46C1040.92,1095.41 1041.53,1095.8 1042.23,1095.8C1042.74,1095.8 1043.04,1095.72 1043.3,1095.61L1043.42,1096.11C1043.18,1096.22 1042.75,1096.36 1042.14,1096.36C1040.95,1096.36 1040.23,1095.56 1040.23,1094.4C1040.23,1093.23 1040.92,1092.31 1042.05,1092.31C1043.31,1092.31 1043.65,1093.42 1043.65,1094.13C1043.65,1094.28 1043.63,1094.39 1043.63,1094.46L1040.91,1094.46ZM1042.97,1093.96C1042.98,1093.51 1042.79,1092.81 1041.99,1092.81C1041.28,1092.81 1040.97,1093.47 1040.91,1093.96L1042.97,1093.96Z" style="fill:white;fill-rule:nonzero;"/>
        <path d="M1044.83,1092.4L1045.38,1093.23C1045.52,1093.44 1045.64,1093.65 1045.77,1093.86L1045.79,1093.86C1045.92,1093.63 1046.05,1093.43 1046.18,1093.22L1046.72,1092.4L1047.48,1092.4L1046.16,1094.27L1047.52,1096.27L1046.72,1096.27L1046.15,1095.4C1046,1095.17 1045.87,1094.96 1045.74,1094.72L1045.72,1094.72C1045.59,1094.96 1045.46,1095.16 1045.31,1095.4L1044.75,1096.27L1043.98,1096.27L1045.35,1094.29L1044.04,1092.4L1044.83,1092.4Z" style="fill:white;fill-rule:nonzero;"/>
        <path d="M1049.15,1091.47L1049.15,1092.4L1050.16,1092.4L1050.16,1092.93L1049.15,1092.93L1049.15,1095.02C1049.15,1095.5 1049.29,1095.77 1049.68,1095.77C1049.87,1095.77 1049.99,1095.76 1050.09,1095.72L1050.12,1096.25C1049.99,1096.31 1049.77,1096.36 1049.5,1096.36C1049.17,1096.36 1048.91,1096.24 1048.74,1096.05C1048.54,1095.84 1048.46,1095.5 1048.46,1095.04L1048.46,1092.93L1047.87,1092.93L1047.87,1092.4L1048.46,1092.4L1048.46,1091.69L1049.15,1091.47Z" style="fill:white;fill-rule:nonzero;"/>
        <rect x="984.981" y="1102.37" width="92" height="0.843" style="fill:white;fill-rule:nonzero;"/>
        <path d="M997.522,1108.37L995.883,1108.37L995.883,1107.78L999.873,1107.78L999.873,1108.37L998.226,1108.37L998.226,1113.17L997.522,1113.17L997.522,1108.37Z" style="fill:white;fill-rule:nonzero;"/>
        <path d="M1000.27,1111.36C1000.29,1112.31 1000.9,1112.7 1001.6,1112.7C1002.11,1112.7 1002.41,1112.62 1002.67,1112.5L1002.79,1113.01C1002.55,1113.12 1002.12,1113.26 1001.51,1113.26C1000.32,1113.26 999.603,1112.46 999.603,1111.3C999.603,1110.13 1000.29,1109.21 1001.42,1109.21C1002.68,1109.21 1003.02,1110.32 1003.02,1111.03C1003.02,1111.18 1003,1111.29 1002.99,1111.36L1000.27,1111.36ZM1002.34,1110.86C1002.35,1110.41 1002.15,1109.71 1001.36,1109.71C1000.65,1109.71 1000.34,1110.37 1000.28,1110.86L1002.34,1110.86Z" style="fill:white;fill-rule:nonzero;"/>
        <rect x="1003.89" y="1107.49" width="0.703" height="5.675" style="fill:white;fill-rule:nonzero;"/>
        <path d="M1006.08,1110.43C1005.8,1110.43 1005.61,1110.22 1005.61,1109.94C1005.61,1109.64 1005.81,1109.42 1006.09,1109.42C1006.37,1109.42 1006.55,1109.64 1006.56,1109.94C1006.56,1110.22 1006.38,1110.43 1006.08,1110.43L1006.08,1110.43ZM1006.08,1113.26C1005.8,1113.26 1005.61,1113.04 1005.61,1112.76C1005.61,1112.46 1005.81,1112.26 1006.09,1112.26C1006.37,1112.26 1006.55,1112.46 1006.56,1112.76C1006.56,1113.04 1006.38,1113.26 1006.08,1113.26L1006.08,1113.26Z" style="fill:white;fill-rule:nonzero;"/>
        <path d="M1010.43,1108.63L1010.42,1108.63L1009.51,1109.12L1009.38,1108.58L1010.51,1107.97L1011.11,1107.97L1011.11,1113.17L1010.43,1113.17L1010.43,1108.63Z" style="fill:white;fill-rule:nonzero;"/>
        <path d="M1014.54,1108.63L1014.52,1108.63L1013.62,1109.12L1013.48,1108.58L1014.62,1107.97L1015.22,1107.97L1015.22,1113.17L1014.54,1113.17L1014.54,1108.63Z" style="fill:white;fill-rule:nonzero;"/>
        <path d="M1018.64,1108.63L1018.63,1108.63L1017.72,1109.12L1017.59,1108.58L1018.72,1107.97L1019.32,1107.97L1019.32,1113.17L1018.64,1113.17L1018.64,1108.63Z" style="fill:white;fill-rule:nonzero;"/>
        <rect x="1021.1" y="1110.75" width="1.975" height="0.519" style="fill:white;fill-rule:nonzero;"/>
        <path d="M1027.13,1110.51C1027.13,1112.28 1026.47,1113.26 1025.32,1113.26C1024.31,1113.26 1023.62,1112.3 1023.6,1110.59C1023.6,1108.84 1024.35,1107.88 1025.41,1107.88C1026.5,1107.88 1027.13,1108.86 1027.13,1110.51ZM1024.31,1110.59C1024.31,1111.94 1024.72,1112.71 1025.36,1112.71C1026.08,1112.71 1026.42,1111.87 1026.42,1110.54C1026.42,1109.27 1026.1,1108.43 1025.37,1108.43C1024.75,1108.43 1024.31,1109.18 1024.31,1110.59Z" style="fill:white;fill-rule:nonzero;"/>
        <path d="M1031.23,1110.51C1031.23,1112.28 1030.58,1113.26 1029.42,1113.26C1028.41,1113.26 1027.72,1112.3 1027.71,1110.59C1027.71,1108.84 1028.46,1107.88 1029.51,1107.88C1030.61,1107.88 1031.23,1108.86 1031.23,1110.51ZM1028.41,1110.59C1028.41,1111.94 1028.83,1112.71 1029.46,1112.71C1030.18,1112.71 1030.53,1111.87 1030.53,1110.54C1030.53,1109.27 1030.2,1108.43 1029.47,1108.43C1028.86,1108.43 1028.41,1109.18 1028.41,1110.59Z" style="fill:white;fill-rule:nonzero;"/>
        <path d="M1033.41,1108.63L1033.39,1108.63L1032.49,1109.12L1032.35,1108.58L1033.49,1107.97L1034.09,1107.97L1034.09,1113.17L1033.41,1113.17L1033.41,1108.63Z" style="fill:white;fill-rule:nonzero;"/>
        <rect x="1035.87" y="1110.75" width="1.974" height="0.519" style="fill:white;fill-rule:nonzero;"/>
        <path d="M1041.89,1110.51C1041.89,1112.28 1041.24,1113.26 1040.09,1113.26C1039.07,1113.26 1038.38,1112.3 1038.37,1110.59C1038.37,1108.84 1039.12,1107.88 1040.18,1107.88C1041.27,1107.88 1041.89,1108.86 1041.89,1110.51ZM1039.07,1110.59C1039.07,1111.94 1039.49,1112.71 1040.13,1112.71C1040.85,1112.71 1041.19,1111.87 1041.19,1110.54C1041.19,1109.27 1040.86,1108.43 1040.14,1108.43C1039.52,1108.43 1039.07,1109.18 1039.07,1110.59Z" style="fill:white;fill-rule:nonzero;"/>
        <path d="M1044.07,1108.63L1044.06,1108.63L1043.15,1109.12L1043.02,1108.58L1044.15,1107.97L1044.75,1107.97L1044.75,1113.17L1044.07,1113.17L1044.07,1108.63Z" style="fill:white;fill-rule:nonzero;"/>
        <rect x="1046.53" y="1110.75" width="1.974" height="0.519" style="fill:white;fill-rule:nonzero;"/>
        <path d="M1052.56,1110.51C1052.56,1112.28 1051.9,1113.26 1050.75,1113.26C1049.74,1113.26 1049.05,1112.3 1049.03,1110.59C1049.03,1108.84 1049.79,1107.88 1050.84,1107.88C1051.94,1107.88 1052.56,1108.86 1052.56,1110.51ZM1049.74,1110.59C1049.74,1111.94 1050.15,1112.71 1050.79,1112.71C1051.51,1112.71 1051.86,1111.87 1051.86,1110.54C1051.86,1109.27 1051.53,1108.43 1050.8,1108.43C1050.18,1108.43 1049.74,1109.18 1049.74,1110.59Z" style="fill:white;fill-rule:nonzero;"/>
        <path d="M1056.66,1110.51C1056.66,1112.28 1056.01,1113.26 1054.86,1113.26C1053.84,1113.26 1053.15,1112.3 1053.14,1110.59C1053.14,1108.84 1053.89,1107.88 1054.94,1107.88C1056.04,1107.88 1056.66,1108.86 1056.66,1110.51ZM1053.84,1110.59C1053.84,1111.94 1054.26,1112.71 1054.9,1112.71C1055.62,1112.71 1055.96,1111.87 1055.96,1110.54C1055.96,1109.27 1055.63,1108.43 1054.9,1108.43C1054.29,1108.43 1053.84,1109.18 1053.84,1110.59Z" style="fill:white;fill-rule:nonzero;"/>
        <rect x="1057.19" y="1110.75" width="1.975" height="0.519" style="fill:white;fill-rule:nonzero;"/>
        <path d="M1061.3,1108.63L1061.28,1108.63L1060.38,1109.12L1060.24,1108.58L1061.38,1107.97L1061.98,1107.97L1061.98,1113.17L1061.3,1113.17L1061.3,1108.63Z" style="fill:white;fill-rule:nonzero;"/>
        <path d="M1065.4,1108.63L1065.38,1108.63L1064.48,1109.12L1064.34,1108.58L1065.48,1107.97L1066.08,1107.97L1066.08,1113.17L1065.4,1113.17L1065.4,1108.63Z" style="fill:white;fill-rule:nonzero;"/>
        <path d="M994.671,1117.38L997.574,1117.38L997.574,1117.96L995.368,1117.96L995.368,1119.75L997.406,1119.75L997.406,1120.33L995.368,1120.33L995.368,1122.77L994.671,1122.77L994.671,1117.38Z" style="fill:white;fill-rule:nonzero;"/>
        <path d="M1000.9,1121.84C1000.9,1122.17 1000.92,1122.5 1000.97,1122.77L1000.33,1122.77L1000.27,1122.28L1000.25,1122.28C1000.03,1122.58 999.615,1122.86 999.063,1122.86C998.28,1122.86 997.88,1122.3 997.88,1121.74C997.88,1120.81 998.711,1120.3 1000.21,1120.31L1000.21,1120.23C1000.21,1119.91 1000.12,1119.33 999.328,1119.33C998.967,1119.33 998.591,1119.44 998.32,1119.62L998.16,1119.15C998.48,1118.95 998.943,1118.81 999.431,1118.81C1000.62,1118.81 1000.9,1119.62 1000.9,1120.39L1000.9,1121.84ZM1000.22,1120.79C999.455,1120.78 998.584,1120.91 998.584,1121.66C998.584,1122.12 998.887,1122.34 999.248,1122.34C999.751,1122.34 1000.07,1122.02 1000.18,1121.69C1000.21,1121.62 1000.22,1121.54 1000.22,1121.46L1000.22,1120.79Z" style="fill:white;fill-rule:nonzero;"/>
        <path d="M1002.37,1118.9L1002.92,1119.73C1003.06,1119.94 1003.18,1120.15 1003.31,1120.36L1003.34,1120.36C1003.46,1120.13 1003.59,1119.93 1003.72,1119.72L1004.26,1118.9L1005.02,1118.9L1003.7,1120.77L1005.06,1122.77L1004.26,1122.77L1003.7,1121.9C1003.54,1121.67 1003.42,1121.46 1003.28,1121.22L1003.26,1121.22C1003.13,1121.46 1003,1121.66 1002.86,1121.9L1002.3,1122.77L1001.52,1122.77L1002.89,1120.79L1001.58,1118.9L1002.37,1118.9Z" style="fill:white;fill-rule:nonzero;"/>
        <path d="M1006.04,1120.03C1005.77,1120.03 1005.58,1119.82 1005.58,1119.54C1005.58,1119.24 1005.77,1119.03 1006.06,1119.03C1006.34,1119.03 1006.52,1119.24 1006.53,1119.54C1006.53,1119.82 1006.34,1120.03 1006.05,1120.03L1006.04,1120.03ZM1006.04,1122.86C1005.77,1122.86 1005.58,1122.64 1005.58,1122.36C1005.58,1122.06 1005.77,1121.86 1006.06,1121.86C1006.34,1121.86 1006.52,1122.06 1006.53,1122.36C1006.53,1122.64 1006.34,1122.86 1006.05,1122.86L1006.04,1122.86Z" style="fill:white;fill-rule:nonzero;"/>
        <path d="M1012.33,1120.11C1012.33,1121.88 1011.67,1122.86 1010.52,1122.86C1009.5,1122.86 1008.82,1121.9 1008.8,1120.18C1008.8,1118.44 1009.55,1117.48 1010.61,1117.48C1011.7,1117.48 1012.33,1118.46 1012.33,1120.11ZM1009.5,1120.19C1009.5,1121.54 1009.92,1122.31 1010.56,1122.31C1011.28,1122.31 1011.62,1121.47 1011.62,1120.15C1011.62,1118.87 1011.29,1118.03 1010.57,1118.03C1009.95,1118.03 1009.5,1118.78 1009.5,1120.19Z" style="fill:white;fill-rule:nonzero;"/>
        <path d="M1014.5,1118.23L1014.49,1118.23L1013.58,1118.71L1013.45,1118.18L1014.58,1117.57L1015.18,1117.57L1015.18,1122.77L1014.5,1122.77L1014.5,1118.23Z" style="fill:white;fill-rule:nonzero;"/>
        <path d="M1020.53,1120.11C1020.53,1121.88 1019.88,1122.86 1018.73,1122.86C1017.71,1122.86 1017.02,1121.9 1017.01,1120.18C1017.01,1118.44 1017.76,1117.48 1018.81,1117.48C1019.91,1117.48 1020.53,1118.46 1020.53,1120.11ZM1017.71,1120.19C1017.71,1121.54 1018.13,1122.31 1018.77,1122.31C1019.49,1122.31 1019.83,1121.47 1019.83,1120.15C1019.83,1118.87 1019.5,1118.03 1018.77,1118.03C1018.16,1118.03 1017.71,1118.78 1017.71,1120.19Z" style="fill:white;fill-rule:nonzero;"/>
        <rect x="1021.06" y="1120.35" width="1.975" height="0.52" style="fill:white;fill-rule:nonzero;"/>
        <path d="M1027.09,1120.11C1027.09,1121.88 1026.44,1122.86 1025.29,1122.86C1024.27,1122.86 1023.58,1121.9 1023.57,1120.18C1023.57,1118.44 1024.32,1117.48 1025.37,1117.48C1026.47,1117.48 1027.09,1118.46 1027.09,1120.11ZM1024.27,1120.19C1024.27,1121.54 1024.69,1122.31 1025.33,1122.31C1026.05,1122.31 1026.39,1121.47 1026.39,1120.15C1026.39,1118.87 1026.06,1118.03 1025.33,1118.03C1024.72,1118.03 1024.27,1118.78 1024.27,1120.19Z" style="fill:white;fill-rule:nonzero;"/>
        <path d="M1029.27,1118.23L1029.25,1118.23L1028.35,1118.71L1028.21,1118.18L1029.35,1117.57L1029.95,1117.57L1029.95,1122.77L1029.27,1122.77L1029.27,1118.23Z" style="fill:white;fill-rule:nonzero;"/>
        <path d="M1033.37,1118.23L1033.36,1118.23L1032.45,1118.71L1032.32,1118.18L1033.45,1117.57L1034.05,1117.57L1034.05,1122.77L1033.37,1122.77L1033.37,1118.23Z" style="fill:white;fill-rule:nonzero;"/>
        <rect x="1035.83" y="1120.35" width="1.974" height="0.52" style="fill:white;fill-rule:nonzero;"/>
        <path d="M1039.93,1118.23L1039.92,1118.23L1039.01,1118.71L1038.88,1118.18L1040.01,1117.57L1040.61,1117.57L1040.61,1122.77L1039.93,1122.77L1039.93,1118.23Z" style="fill:white;fill-rule:nonzero;"/>
        <path d="M1045.96,1120.11C1045.96,1121.88 1045.31,1122.86 1044.16,1122.86C1043.14,1122.86 1042.45,1121.9 1042.44,1120.18C1042.44,1118.44 1043.19,1117.48 1044.25,1117.48C1045.34,1117.48 1045.96,1118.46 1045.96,1120.11ZM1043.14,1120.19C1043.14,1121.54 1043.56,1122.31 1044.2,1122.31C1044.92,1122.31 1045.26,1121.47 1045.26,1120.15C1045.26,1118.87 1044.93,1118.03 1044.21,1118.03C1043.59,1118.03 1043.14,1118.78 1043.14,1120.19Z" style="fill:white;fill-rule:nonzero;"/>
        <rect x="1046.5" y="1120.35" width="1.974" height="0.52" style="fill:white;fill-rule:nonzero;"/>
        <path d="M1050.6,1118.23L1050.58,1118.23L1049.68,1118.71L1049.54,1118.18L1050.68,1117.57L1051.28,1117.57L1051.28,1122.77L1050.6,1122.77L1050.6,1118.23Z" style="fill:white;fill-rule:nonzero;"/>
        <path d="M1054.7,1118.23L1054.68,1118.23L1053.78,1118.71L1053.65,1118.18L1054.78,1117.57L1055.38,1117.57L1055.38,1122.77L1054.7,1122.77L1054.7,1118.23Z" style="fill:white;fill-rule:nonzero;"/>
        <rect x="1057.16" y="1120.35" width="1.974" height="0.52" style="fill:white;fill-rule:nonzero;"/>
        <path d="M1063.19,1120.11C1063.19,1121.88 1062.53,1122.86 1061.38,1122.86C1060.37,1122.86 1059.68,1121.9 1059.66,1120.18C1059.66,1118.44 1060.41,1117.48 1061.47,1117.48C1062.57,1117.48 1063.19,1118.46 1063.19,1120.11ZM1060.37,1120.19C1060.37,1121.54 1060.78,1122.31 1061.42,1122.31C1062.14,1122.31 1062.49,1121.47 1062.49,1120.15C1062.49,1118.87 1062.16,1118.03 1061.43,1118.03C1060.81,1118.03 1060.37,1118.78 1060.37,1120.19Z" style="fill:white;fill-rule:nonzero;"/>
        <path d="M1067.29,1120.11C1067.29,1121.88 1066.64,1122.86 1065.49,1122.86C1064.47,1122.86 1063.78,1121.9 1063.77,1120.18C1063.77,1118.44 1064.52,1117.48 1065.57,1117.48C1066.67,1117.48 1067.29,1118.46 1067.29,1120.11ZM1064.47,1120.19C1064.47,1121.54 1064.88,1122.31 1065.53,1122.31C1066.25,1122.31 1066.59,1121.47 1066.59,1120.15C1066.59,1118.87 1066.26,1118.03 1065.53,1118.03C1064.92,1118.03 1064.47,1118.78 1064.47,1120.19Z" style="fill:white;fill-rule:nonzero;"/>
        <path d="M989.274,1141.97L989.274,1139.68L987.571,1136.58L988.363,1136.58L989.123,1138.07C989.331,1138.47 989.49,1138.8 989.658,1139.18L989.674,1139.18C989.826,1138.83 990.01,1138.47 990.217,1138.07L990.994,1136.58L991.785,1136.58L989.978,1139.67L989.978,1141.97L989.274,1141.97Z" style="fill:white;fill-rule:nonzero;"/>
        <path d="M995.273,1140C995.273,1141.43 994.282,1142.06 993.346,1142.06C992.298,1142.06 991.491,1141.29 991.491,1140.06C991.491,1138.77 992.338,1138.01 993.41,1138.01C994.521,1138.01 995.273,1138.82 995.273,1140ZM992.203,1140.04C992.203,1140.89 992.69,1141.53 993.377,1141.53C994.049,1141.53 994.553,1140.9 994.553,1140.03C994.553,1139.37 994.225,1138.54 993.394,1138.54C992.562,1138.54 992.203,1139.31 992.203,1140.04Z" style="fill:white;fill-rule:nonzero;"/>
        <path d="M999.402,1140.91C999.402,1141.31 999.41,1141.66 999.433,1141.97L998.81,1141.97L998.77,1141.34L998.753,1141.34C998.57,1141.65 998.163,1142.06 997.474,1142.06C996.867,1142.06 996.139,1141.72 996.139,1140.36L996.139,1138.1L996.843,1138.1L996.843,1140.24C996.843,1140.98 997.067,1141.47 997.707,1141.47C998.178,1141.47 998.506,1141.14 998.634,1140.83C998.674,1140.73 998.698,1140.6 998.698,1140.47L998.698,1138.1L999.402,1138.1L999.402,1140.91Z" style="fill:white;fill-rule:nonzero;"/>
        <path d="M1000.57,1139.31C1000.57,1138.85 1000.56,1138.46 1000.54,1138.1L1001.15,1138.1L1001.18,1138.86L1001.21,1138.86C1001.39,1138.34 1001.81,1138.01 1002.28,1138.01C1002.36,1138.01 1002.42,1138.02 1002.48,1138.04L1002.48,1138.7C1002.41,1138.68 1002.34,1138.67 1002.24,1138.67C1001.75,1138.67 1001.39,1139.05 1001.3,1139.58C1001.28,1139.67 1001.27,1139.79 1001.27,1139.91L1001.27,1141.97L1000.57,1141.97L1000.57,1139.31Z" style="fill:white;fill-rule:nonzero;"/>
        <path d="M1005.73,1137.17L1005.73,1138.1L1006.74,1138.1L1006.74,1138.63L1005.73,1138.63L1005.73,1140.72C1005.73,1141.2 1005.87,1141.47 1006.26,1141.47C1006.45,1141.47 1006.56,1141.46 1006.67,1141.42L1006.7,1141.95C1006.56,1142.01 1006.35,1142.06 1006.08,1142.06C1005.75,1142.06 1005.48,1141.94 1005.32,1141.75C1005.12,1141.54 1005.04,1141.2 1005.04,1140.74L1005.04,1138.63L1004.44,1138.63L1004.44,1138.1L1005.04,1138.1L1005.04,1137.39L1005.73,1137.17Z" style="fill:white;fill-rule:nonzero;"/>
        <path d="M1007.88,1140.16C1007.89,1141.11 1008.5,1141.5 1009.2,1141.5C1009.71,1141.5 1010.01,1141.41 1010.27,1141.3L1010.39,1141.81C1010.14,1141.92 1009.72,1142.06 1009.11,1142.06C1007.92,1142.06 1007.2,1141.26 1007.2,1140.1C1007.2,1138.93 1007.89,1138.01 1009.02,1138.01C1010.28,1138.01 1010.62,1139.12 1010.62,1139.83C1010.62,1139.98 1010.6,1140.09 1010.59,1140.16L1007.88,1140.16ZM1009.94,1139.66C1009.95,1139.21 1009.75,1138.51 1008.96,1138.51C1008.25,1138.51 1007.94,1139.17 1007.88,1139.66L1009.94,1139.66Z" style="fill:white;fill-rule:nonzero;"/>
        <path d="M1011.79,1138.1L1012.35,1138.93C1012.49,1139.15 1012.61,1139.35 1012.74,1139.56L1012.76,1139.56C1012.89,1139.33 1013.02,1139.13 1013.15,1138.92L1013.69,1138.1L1014.45,1138.1L1013.13,1139.97L1014.49,1141.97L1013.69,1141.97L1013.12,1141.1C1012.97,1140.87 1012.84,1140.66 1012.71,1140.42L1012.69,1140.42C1012.56,1140.66 1012.43,1140.87 1012.28,1141.1L1011.72,1141.97L1010.95,1141.97L1012.32,1139.99L1011.01,1138.1L1011.79,1138.1Z" style="fill:white;fill-rule:nonzero;"/>
        <path d="M1016.12,1137.17L1016.12,1138.1L1017.13,1138.1L1017.13,1138.63L1016.12,1138.63L1016.12,1140.72C1016.12,1141.2 1016.26,1141.47 1016.65,1141.47C1016.84,1141.47 1016.95,1141.46 1017.06,1141.42L1017.09,1141.95C1016.95,1142.01 1016.74,1142.06 1016.47,1142.06C1016.14,1142.06 1015.88,1141.94 1015.71,1141.75C1015.51,1141.54 1015.43,1141.2 1015.43,1140.74L1015.43,1138.63L1014.84,1138.63L1014.84,1138.1L1015.43,1138.1L1015.43,1137.39L1016.12,1137.17Z" style="fill:white;fill-rule:nonzero;"/>
        <path d="M1019.62,1136.29L1020.32,1136.29L1020.32,1138.7L1020.34,1138.7C1020.45,1138.51 1020.63,1138.33 1020.84,1138.21C1021.05,1138.09 1021.3,1138.01 1021.56,1138.01C1022.08,1138.01 1022.91,1138.33 1022.91,1139.66L1022.91,1141.97L1022.21,1141.97L1022.21,1139.75C1022.21,1139.12 1021.98,1138.59 1021.31,1138.59C1020.86,1138.59 1020.5,1138.91 1020.37,1139.3C1020.33,1139.39 1020.32,1139.5 1020.32,1139.63L1020.32,1141.97L1019.62,1141.97L1019.62,1136.29Z" style="fill:white;fill-rule:nonzero;"/>
        <path d="M1024.45,1140.16C1024.47,1141.11 1025.08,1141.5 1025.78,1141.5C1026.28,1141.5 1026.59,1141.41 1026.85,1141.3L1026.97,1141.81C1026.72,1141.92 1026.3,1142.06 1025.68,1142.06C1024.49,1142.06 1023.78,1141.26 1023.78,1140.1C1023.78,1138.93 1024.47,1138.01 1025.59,1138.01C1026.86,1138.01 1027.19,1139.12 1027.19,1139.83C1027.19,1139.98 1027.18,1140.09 1027.17,1140.16L1024.45,1140.16ZM1026.51,1139.66C1026.52,1139.21 1026.33,1138.51 1025.54,1138.51C1024.83,1138.51 1024.51,1139.17 1024.46,1139.66L1026.51,1139.66Z" style="fill:white;fill-rule:nonzero;"/>
        <path d="M1028.07,1139.31C1028.07,1138.85 1028.06,1138.46 1028.04,1138.1L1028.65,1138.1L1028.67,1138.86L1028.71,1138.86C1028.88,1138.34 1029.31,1138.01 1029.78,1138.01C1029.86,1138.01 1029.91,1138.02 1029.98,1138.04L1029.98,1138.7C1029.91,1138.68 1029.83,1138.67 1029.74,1138.67C1029.24,1138.67 1028.89,1139.05 1028.79,1139.58C1028.78,1139.67 1028.76,1139.79 1028.76,1139.91L1028.76,1141.97L1028.07,1141.97L1028.07,1139.31Z" style="fill:white;fill-rule:nonzero;"/>
        <path d="M1031,1140.16C1031.01,1141.11 1031.62,1141.5 1032.32,1141.5C1032.83,1141.5 1033.13,1141.41 1033.39,1141.3L1033.51,1141.81C1033.27,1141.92 1032.84,1142.06 1032.23,1142.06C1031.04,1142.06 1030.32,1141.26 1030.32,1140.1C1030.32,1138.93 1031.01,1138.01 1032.14,1138.01C1033.4,1138.01 1033.74,1139.12 1033.74,1139.83C1033.74,1139.98 1033.72,1140.09 1033.71,1140.16L1031,1140.16ZM1033.06,1139.66C1033.07,1139.21 1032.87,1138.51 1032.08,1138.51C1031.37,1138.51 1031.06,1139.17 1031,1139.66L1033.06,1139.66Z" style="fill:white;fill-rule:nonzero;"/>
        <path d="M1036.21,1141.25C1036.42,1141.38 1036.79,1141.53 1037.14,1141.53C1037.65,1141.53 1037.89,1141.27 1037.89,1140.95C1037.89,1140.62 1037.69,1140.43 1037.17,1140.24C1036.47,1139.99 1036.15,1139.61 1036.15,1139.15C1036.15,1138.52 1036.65,1138.01 1037.48,1138.01C1037.87,1138.01 1038.22,1138.12 1038.43,1138.25L1038.26,1138.76C1038.11,1138.66 1037.83,1138.54 1037.46,1138.54C1037.05,1138.54 1036.82,1138.78 1036.82,1139.07C1036.82,1139.38 1037.05,1139.53 1037.55,1139.72C1038.22,1139.98 1038.57,1140.31 1038.57,1140.89C1038.57,1141.57 1038.04,1142.06 1037.12,1142.06C1036.7,1142.06 1036.31,1141.94 1036.03,1141.79L1036.21,1141.25Z" style="fill:white;fill-rule:nonzero;"/>
        <path d="M1042.19,1141.04C1042.19,1141.38 1042.21,1141.7 1042.26,1141.97L1041.62,1141.97L1041.56,1141.48L1041.54,1141.48C1041.32,1141.79 1040.9,1142.06 1040.35,1142.06C1039.57,1142.06 1039.17,1141.5 1039.17,1140.94C1039.17,1140.01 1040,1139.5 1041.5,1139.51L1041.5,1139.42C1041.5,1139.11 1041.41,1138.53 1040.62,1138.53C1040.26,1138.53 1039.88,1138.64 1039.61,1138.82L1039.45,1138.35C1039.77,1138.15 1040.23,1138.01 1040.72,1138.01C1041.9,1138.01 1042.19,1138.82 1042.19,1139.59L1042.19,1141.04ZM1041.51,1139.99C1040.75,1139.98 1039.87,1140.11 1039.87,1140.87C1039.87,1141.32 1040.18,1141.54 1040.54,1141.54C1041.04,1141.54 1041.36,1141.22 1041.47,1140.89C1041.5,1140.82 1041.51,1140.74 1041.51,1140.66L1041.51,1139.99Z" style="fill:white;fill-rule:nonzero;"/>
        <path d="M1043.33,1139.15C1043.33,1138.75 1043.32,1138.42 1043.3,1138.1L1043.91,1138.1L1043.95,1138.72L1043.97,1138.72C1044.19,1138.35 1044.55,1138.01 1045.18,1138.01C1045.71,1138.01 1046.11,1138.33 1046.28,1138.79L1046.3,1138.79C1046.42,1138.57 1046.57,1138.4 1046.73,1138.28C1046.96,1138.11 1047.22,1138.01 1047.58,1138.01C1048.1,1138.01 1048.86,1138.35 1048.86,1139.69L1048.86,1141.97L1048.17,1141.97L1048.17,1139.78C1048.17,1139.03 1047.9,1138.59 1047.33,1138.59C1046.93,1138.59 1046.62,1138.88 1046.5,1139.23C1046.46,1139.32 1046.44,1139.45 1046.44,1139.58L1046.44,1141.97L1045.75,1141.97L1045.75,1139.65C1045.75,1139.03 1045.48,1138.59 1044.95,1138.59C1044.51,1138.59 1044.19,1138.94 1044.07,1139.29C1044.03,1139.39 1044.02,1139.51 1044.02,1139.63L1044.02,1141.97L1043.33,1141.97L1043.33,1139.15Z" style="fill:white;fill-rule:nonzero;"/>
        <path d="M1050,1139.36C1050,1138.87 1049.99,1138.47 1049.97,1138.1L1050.6,1138.1L1050.63,1138.76L1050.65,1138.76C1050.94,1138.29 1051.39,1138.01 1052.03,1138.01C1052.96,1138.01 1053.66,1138.8 1053.66,1139.98C1053.66,1141.37 1052.82,1142.06 1051.9,1142.06C1051.39,1142.06 1050.95,1141.83 1050.71,1141.45L1050.7,1141.45L1050.7,1143.55L1050,1143.55L1050,1139.36ZM1050.7,1140.39C1050.7,1140.5 1050.71,1140.59 1050.73,1140.68C1050.86,1141.17 1051.28,1141.5 1051.79,1141.5C1052.53,1141.5 1052.96,1140.9 1052.96,1140.01C1052.96,1139.23 1052.55,1138.57 1051.81,1138.57C1051.33,1138.57 1050.88,1138.91 1050.75,1139.44C1050.72,1139.53 1050.7,1139.63 1050.7,1139.73L1050.7,1140.39Z" style="fill:white;fill-rule:nonzero;"/>
        <rect x="1054.55" y="1136.29" width="0.703" height="5.678" style="fill:white;fill-rule:nonzero;"/>
        <path d="M1056.83,1140.16C1056.85,1141.11 1057.46,1141.5 1058.16,1141.5C1058.66,1141.5 1058.97,1141.41 1059.23,1141.3L1059.35,1141.81C1059.1,1141.92 1058.68,1142.06 1058.07,1142.06C1056.87,1142.06 1056.16,1141.26 1056.16,1140.1C1056.16,1138.93 1056.85,1138.01 1057.98,1138.01C1059.24,1138.01 1059.58,1139.12 1059.58,1139.83C1059.58,1139.98 1059.56,1140.09 1059.55,1140.16L1056.83,1140.16ZM1058.9,1139.66C1058.9,1139.21 1058.71,1138.51 1057.92,1138.51C1057.21,1138.51 1056.9,1139.17 1056.84,1139.66L1058.9,1139.66Z" style="fill:white;fill-rule:nonzero;"/>
        <path d="M1062.99,1137.17L1062.99,1138.1L1064,1138.1L1064,1138.63L1062.99,1138.63L1062.99,1140.72C1062.99,1141.2 1063.13,1141.47 1063.52,1141.47C1063.71,1141.47 1063.83,1141.46 1063.93,1141.42L1063.96,1141.95C1063.83,1142.01 1063.61,1142.06 1063.34,1142.06C1063.01,1142.06 1062.75,1141.94 1062.58,1141.75C1062.38,1141.54 1062.31,1141.2 1062.31,1140.74L1062.31,1138.63L1061.71,1138.63L1061.71,1138.1L1062.31,1138.1L1062.31,1137.39L1062.99,1137.17Z" style="fill:white;fill-rule:nonzero;"/>
        <path d="M1065.14,1140.16C1065.15,1141.11 1065.76,1141.5 1066.46,1141.5C1066.97,1141.5 1067.27,1141.41 1067.54,1141.3L1067.66,1141.81C1067.41,1141.92 1066.99,1142.06 1066.37,1142.06C1065.18,1142.06 1064.47,1141.26 1064.47,1140.1C1064.47,1138.93 1065.15,1138.01 1066.28,1138.01C1067.54,1138.01 1067.88,1139.12 1067.88,1139.83C1067.88,1139.98 1067.87,1140.09 1067.86,1140.16L1065.14,1140.16ZM1067.2,1139.66C1067.21,1139.21 1067.02,1138.51 1066.22,1138.51C1065.51,1138.51 1065.2,1139.17 1065.15,1139.66L1067.2,1139.66Z" style="fill:white;fill-rule:nonzero;"/>
        <path d="M1069.06,1138.1L1069.61,1138.93C1069.75,1139.15 1069.87,1139.35 1070,1139.56L1070.03,1139.56C1070.15,1139.33 1070.28,1139.13 1070.41,1138.92L1070.95,1138.1L1071.71,1138.1L1070.39,1139.97L1071.75,1141.97L1070.95,1141.97L1070.38,1141.1C1070.23,1140.87 1070.11,1140.66 1069.97,1140.42L1069.95,1140.42C1069.83,1140.66 1069.69,1140.87 1069.55,1141.1L1068.99,1141.97L1068.21,1141.97L1069.59,1139.99L1068.27,1138.1L1069.06,1138.1Z" style="fill:white;fill-rule:nonzero;"/>
        <path d="M1073.38,1137.17L1073.38,1138.1L1074.39,1138.1L1074.39,1138.63L1073.38,1138.63L1073.38,1140.72C1073.38,1141.2 1073.52,1141.47 1073.91,1141.47C1074.1,1141.47 1074.22,1141.46 1074.32,1141.42L1074.35,1141.95C1074.22,1142.01 1074,1142.06 1073.73,1142.06C1073.4,1142.06 1073.14,1141.94 1072.97,1141.75C1072.77,1141.54 1072.7,1141.2 1072.7,1140.74L1072.7,1138.63L1072.1,1138.63L1072.1,1138.1L1072.7,1138.1L1072.7,1137.39L1073.38,1137.17Z" style="fill:white;fill-rule:nonzero;"/>
        <path d="M1006.97,1146.24C1007.3,1146.19 1007.74,1146.14 1008.3,1146.14C1008.99,1146.14 1009.49,1146.3 1009.81,1146.59C1010.11,1146.84 1010.28,1147.23 1010.28,1147.71C1010.28,1148.2 1010.14,1148.59 1009.87,1148.87C1009.5,1149.26 1008.9,1149.46 1008.22,1149.46C1008.01,1149.46 1007.82,1149.45 1007.66,1149.41L1007.66,1151.57L1006.97,1151.57L1006.97,1146.24ZM1007.66,1148.84C1007.81,1148.88 1008.01,1148.9 1008.24,1148.9C1009.08,1148.9 1009.59,1148.49 1009.59,1147.75C1009.59,1147.04 1009.09,1146.69 1008.32,1146.69C1008.01,1146.69 1007.78,1146.71 1007.66,1146.75L1007.66,1148.84Z" style="fill:white;fill-rule:nonzero;"/>
        <rect x="1011.16" y="1145.89" width="0.703" height="5.676" style="fill:white;fill-rule:nonzero;"/>
        <path d="M1015.76,1150.64C1015.76,1150.98 1015.78,1151.3 1015.83,1151.57L1015.19,1151.57L1015.13,1151.08L1015.11,1151.08C1014.89,1151.38 1014.48,1151.66 1013.93,1151.66C1013.14,1151.66 1012.74,1151.11 1012.74,1150.54C1012.74,1149.61 1013.57,1149.1 1015.07,1149.11L1015.07,1149.03C1015.07,1148.71 1014.98,1148.13 1014.19,1148.13C1013.83,1148.13 1013.45,1148.24 1013.18,1148.42L1013.02,1147.95C1013.34,1147.75 1013.81,1147.61 1014.29,1147.61C1015.48,1147.61 1015.76,1148.42 1015.76,1149.19L1015.76,1150.64ZM1015.09,1149.59C1014.32,1149.58 1013.45,1149.71 1013.45,1150.46C1013.45,1150.92 1013.75,1151.14 1014.11,1151.14C1014.61,1151.14 1014.93,1150.82 1015.05,1150.49C1015.07,1150.42 1015.09,1150.34 1015.09,1150.27L1015.09,1149.59Z" style="fill:white;fill-rule:nonzero;"/>
        <path d="M1019.66,1151.42C1019.48,1151.52 1019.07,1151.66 1018.55,1151.66C1017.38,1151.66 1016.62,1150.86 1016.62,1149.67C1016.62,1148.48 1017.44,1147.62 1018.7,1147.62C1019.12,1147.62 1019.49,1147.72 1019.68,1147.82L1019.52,1148.36C1019.35,1148.27 1019.09,1148.18 1018.7,1148.18C1017.81,1148.18 1017.34,1148.83 1017.34,1149.64C1017.34,1150.54 1017.91,1151.09 1018.68,1151.09C1019.08,1151.09 1019.34,1150.98 1019.54,1150.9L1019.66,1151.42Z" style="fill:white;fill-rule:nonzero;"/>
        <path d="M1020.83,1149.76C1020.85,1150.71 1021.46,1151.11 1022.16,1151.11C1022.66,1151.11 1022.97,1151.02 1023.23,1150.9L1023.35,1151.41C1023.1,1151.52 1022.68,1151.66 1022.06,1151.66C1020.87,1151.66 1020.16,1150.87 1020.16,1149.7C1020.16,1148.53 1020.85,1147.61 1021.97,1147.61C1023.24,1147.61 1023.57,1148.72 1023.57,1149.43C1023.57,1149.58 1023.56,1149.69 1023.55,1149.76L1020.83,1149.76ZM1022.89,1149.26C1022.9,1148.81 1022.71,1148.12 1021.92,1148.12C1021.21,1148.12 1020.89,1148.77 1020.84,1149.26L1022.89,1149.26Z" style="fill:white;fill-rule:nonzero;"/>
        <path d="M1026.99,1146.77L1026.99,1147.7L1028,1147.7L1028,1148.23L1026.99,1148.23L1026.99,1150.32C1026.99,1150.8 1027.13,1151.07 1027.52,1151.07C1027.71,1151.07 1027.82,1151.06 1027.92,1151.03L1027.96,1151.55C1027.82,1151.61 1027.61,1151.66 1027.34,1151.66C1027.01,1151.66 1026.74,1151.54 1026.58,1151.35C1026.38,1151.14 1026.3,1150.8 1026.3,1150.35L1026.3,1148.23L1025.7,1148.23L1025.7,1147.7L1026.3,1147.7L1026.3,1146.99L1026.99,1146.77Z" style="fill:white;fill-rule:nonzero;"/>
        <path d="M1029.13,1149.76C1029.15,1150.71 1029.76,1151.11 1030.46,1151.11C1030.96,1151.11 1031.27,1151.02 1031.53,1150.9L1031.65,1151.41C1031.4,1151.52 1030.98,1151.66 1030.37,1151.66C1029.17,1151.66 1028.46,1150.87 1028.46,1149.7C1028.46,1148.53 1029.15,1147.61 1030.28,1147.61C1031.54,1147.61 1031.88,1148.72 1031.88,1149.43C1031.88,1149.58 1031.86,1149.69 1031.85,1149.76L1029.13,1149.76ZM1031.2,1149.26C1031.2,1148.81 1031.01,1148.12 1030.22,1148.12C1029.51,1148.12 1029.2,1148.77 1029.14,1149.26L1031.2,1149.26Z" style="fill:white;fill-rule:nonzero;"/>
        <path d="M1033.05,1147.7L1033.61,1148.53C1033.75,1148.75 1033.87,1148.94 1034,1149.16L1034.02,1149.16C1034.15,1148.93 1034.28,1148.73 1034.41,1148.52L1034.95,1147.7L1035.71,1147.7L1034.39,1149.57L1035.75,1151.57L1034.95,1151.57L1034.38,1150.7C1034.23,1150.47 1034.1,1150.26 1033.97,1150.03L1033.95,1150.03C1033.82,1150.27 1033.69,1150.46 1033.54,1150.7L1032.98,1151.57L1032.21,1151.57L1033.58,1149.59L1032.27,1147.7L1033.05,1147.7Z" style="fill:white;fill-rule:nonzero;"/>
        <path d="M1037.38,1146.77L1037.38,1147.7L1038.39,1147.7L1038.39,1148.23L1037.38,1148.23L1037.38,1150.32C1037.38,1150.8 1037.52,1151.07 1037.91,1151.07C1038.1,1151.07 1038.21,1151.06 1038.32,1151.03L1038.35,1151.55C1038.21,1151.61 1038,1151.66 1037.73,1151.66C1037.4,1151.66 1037.13,1151.54 1036.97,1151.35C1036.77,1151.14 1036.69,1150.8 1036.69,1150.35L1036.69,1148.23L1036.09,1148.23L1036.09,1147.7L1036.69,1147.7L1036.69,1146.99L1037.38,1146.77Z" style="fill:white;fill-rule:nonzero;"/>
        <path d="M1040.88,1145.89L1041.58,1145.89L1041.58,1148.31L1041.6,1148.31C1041.71,1148.11 1041.88,1147.93 1042.1,1147.81C1042.31,1147.69 1042.56,1147.61 1042.82,1147.61C1043.34,1147.61 1044.17,1147.93 1044.17,1149.27L1044.17,1151.57L1043.47,1151.57L1043.47,1149.35C1043.47,1148.72 1043.24,1148.19 1042.57,1148.19C1042.12,1148.19 1041.76,1148.51 1041.63,1148.9C1041.59,1148.99 1041.58,1149.1 1041.58,1149.23L1041.58,1151.57L1040.88,1151.57L1040.88,1145.89Z" style="fill:white;fill-rule:nonzero;"/>
        <path d="M1045.71,1149.76C1045.72,1150.71 1046.33,1151.11 1047.04,1151.11C1047.54,1151.11 1047.84,1151.02 1048.11,1150.9L1048.23,1151.41C1047.98,1151.52 1047.56,1151.66 1046.94,1151.66C1045.75,1151.66 1045.04,1150.87 1045.04,1149.7C1045.04,1148.53 1045.72,1147.61 1046.85,1147.61C1048.12,1147.61 1048.45,1148.72 1048.45,1149.43C1048.45,1149.58 1048.44,1149.69 1048.43,1149.76L1045.71,1149.76ZM1047.77,1149.26C1047.78,1148.81 1047.59,1148.12 1046.8,1148.12C1046.09,1148.12 1045.77,1148.77 1045.72,1149.26L1047.77,1149.26Z" style="fill:white;fill-rule:nonzero;"/>
        <path d="M1049.33,1148.91C1049.33,1148.45 1049.32,1148.06 1049.29,1147.7L1049.91,1147.7L1049.93,1148.46L1049.97,1148.46C1050.14,1147.94 1050.57,1147.61 1051.04,1147.61C1051.12,1147.61 1051.17,1147.62 1051.24,1147.63L1051.24,1148.3C1051.17,1148.28 1051.09,1148.28 1051,1148.28C1050.5,1148.28 1050.15,1148.65 1050.05,1149.18C1050.04,1149.27 1050.02,1149.39 1050.02,1149.51L1050.02,1151.57L1049.33,1151.57L1049.33,1148.91Z" style="fill:white;fill-rule:nonzero;"/>
        <path d="M1052.25,1149.76C1052.27,1150.71 1052.88,1151.11 1053.58,1151.11C1054.09,1151.11 1054.39,1151.02 1054.65,1150.9L1054.77,1151.41C1054.53,1151.52 1054.1,1151.66 1053.49,1151.66C1052.29,1151.66 1051.58,1150.87 1051.58,1149.7C1051.58,1148.53 1052.27,1147.61 1053.4,1147.61C1054.66,1147.61 1055,1148.72 1055,1149.43C1055,1149.58 1054.98,1149.69 1054.97,1149.76L1052.25,1149.76ZM1054.32,1149.26C1054.33,1148.81 1054.13,1148.12 1053.34,1148.12C1052.63,1148.12 1052.32,1148.77 1052.26,1149.26L1054.32,1149.26Z" style="fill:white;fill-rule:nonzero;"/>
        <path d="M1020.5,1069.84L1032.35,1059.79L1029.6,1059.79L1013.79,1073.2L1034.57,1073.2L1034.71,1073.09L1038.53,1069.84L1020.5,1069.84Z" style="fill:white;fill-rule:nonzero;"/>
        <path d="M1036.38,1061.66L1038.58,1059.79L1036.82,1059.79L1032.08,1063.81L1045.64,1063.81L1048.17,1061.66L1036.38,1061.66Z" style="fill:white;fill-rule:nonzero;"/>
        <path d="M1028.93,1065.49L1035.65,1059.79L1033.45,1059.79L1023.56,1068.17L1040.5,1068.17L1043.66,1065.49L1028.93,1065.49Z" style="fill:white;fill-rule:nonzero;"/>
        <path d="M1241.32,1029.41C1238.39,1026.48 1234.55,1025.02 1230.71,1025.02L970.714,1025.02C966.876,1025.02 963.037,1026.48 960.108,1029.41C957.179,1032.34 955.714,1036.18 955.714,1040.02L955.714,1190.02C955.714,1193.86 957.179,1197.7 960.108,1200.63C963.037,1203.55 966.876,1205.02 970.714,1205.02L1230.71,1205.02C1234.55,1205.02 1238.39,1203.55 1241.32,1200.63C1244.25,1197.7 1245.71,1193.86 1245.71,1190.02L1245.71,1040.02C1245.71,1036.18 1244.25,1032.34 1241.32,1029.41ZM1241.71,1190.02C1241.71,1192.96 1240.57,1195.72 1238.49,1197.8C1236.42,1199.88 1233.65,1201.02 1230.71,1201.02L970.714,1201.02C967.777,1201.02 965.013,1199.88 962.935,1197.8C960.857,1195.72 959.714,1192.96 959.714,1190.02L959.714,1040.02C959.714,1037.08 960.857,1034.32 962.935,1032.24C965.015,1030.16 967.777,1029.02 970.714,1029.02L1230.71,1029.02C1233.65,1029.02 1236.41,1030.16 1238.49,1032.24C1240.57,1034.32 1241.71,1037.08 1241.71,1040.02L1241.71,1190.02Z" style="fill:white;fill-rule:nonzero;"/>
    </g>
</svg>
