<?xml version="1.0" encoding="UTF-8" standalone="no"?>
<!DOCTYPE svg PUBLIC "-//W3C//DTD SVG 1.1//EN" "http://www.w3.org/Graphics/SVG/1.1/DTD/svg11.dtd">
<svg width="100%" height="100%" viewBox="0 0 290 180" version="1.1" xmlns="http://www.w3.org/2000/svg" xmlns:xlink="http://www.w3.org/1999/xlink" xml:space="preserve" xmlns:serif="http://www.serif.com/" style="fill-rule:evenodd;clip-rule:evenodd;stroke-linejoin:round;stroke-miterlimit:1.41421;">
    <g transform="matrix(1,0,0,1,-335.714,-225.019)">
        <path d="M610.713,229.019L350.713,229.019C347.776,229.019 345.015,230.162 342.935,232.24C340.857,234.318 339.714,237.081 339.714,240.018L339.714,390.02C339.714,392.957 340.857,395.72 342.935,397.798C345.013,399.876 347.776,401.019 350.713,401.019L610.713,401.019C613.652,401.019 616.415,399.876 618.491,397.798C620.569,395.72 621.713,392.957 621.713,390.02L621.713,240.018C621.713,237.081 620.569,234.318 618.491,232.24C616.413,230.162 613.65,229.019 610.713,229.019Z" style="fill:url(#_Linear1);"/>
        <path d="M513.795,275.965C513.347,276.19 512.45,276.428 511.302,276.428C508.641,276.428 506.637,274.733 506.637,271.637C506.637,268.681 508.641,266.678 511.567,266.678C512.744,266.678 513.486,266.93 513.809,267.098L513.515,268.092C513.053,267.87 512.395,267.701 511.609,267.701C509.397,267.701 507.926,269.116 507.926,271.594C507.926,273.907 509.257,275.391 511.554,275.391C512.296,275.391 513.053,275.237 513.543,274.998L513.795,275.965Z" style="fill:rgb(79,91,13);fill-rule:nonzero;"/>
        <path d="M521.257,272.828C521.257,275.334 519.52,276.428 517.881,276.428C516.046,276.428 514.631,275.082 514.631,272.94C514.631,270.67 516.115,269.34 517.993,269.34C519.939,269.34 521.257,270.754 521.257,272.828ZM515.878,272.897C515.878,274.382 516.732,275.502 517.937,275.502C519.113,275.502 519.996,274.397 519.996,272.87C519.996,271.721 519.422,270.264 517.965,270.264C516.508,270.264 515.878,271.609 515.878,272.897Z" style="fill:rgb(79,91,13);fill-rule:nonzero;"/>
        <path d="M522.808,271.329C522.808,270.628 522.794,270.054 522.752,269.494L523.83,269.494L523.887,270.586L523.929,270.586C524.307,269.942 524.937,269.34 526.058,269.34C526.982,269.34 527.683,269.9 527.977,270.698L528.005,270.698C528.215,270.321 528.481,270.026 528.761,269.816C529.167,269.508 529.615,269.34 530.26,269.34C531.156,269.34 532.487,269.928 532.487,272.282L532.487,276.274L531.282,276.274L531.282,272.436C531.282,271.133 530.806,270.348 529.812,270.348C529.111,270.348 528.564,270.867 528.355,271.469C528.299,271.637 528.257,271.861 528.257,272.084L528.257,276.274L527.052,276.274L527.052,272.211C527.052,271.133 526.576,270.348 525.638,270.348C524.867,270.348 524.307,270.964 524.11,271.581C524.04,271.763 524.013,271.973 524.013,272.183L524.013,276.274L522.808,276.274L522.808,271.329Z" style="fill:rgb(79,91,13);fill-rule:nonzero;"/>
        <path d="M534.483,271.707C534.483,270.838 534.455,270.138 534.428,269.494L535.534,269.494L535.59,270.657L535.618,270.657C536.122,269.831 536.921,269.34 538.027,269.34C539.666,269.34 540.899,270.727 540.899,272.786C540.899,275.223 539.414,276.428 537.817,276.428C536.921,276.428 536.137,276.036 535.731,275.363L535.702,275.363L535.702,279.047L534.483,279.047L534.483,271.707ZM535.702,273.514C535.702,273.696 535.731,273.864 535.758,274.018C535.982,274.873 536.725,275.461 537.607,275.461C538.91,275.461 539.666,274.397 539.666,272.842C539.666,271.483 538.952,270.321 537.649,270.321C536.809,270.321 536.024,270.922 535.786,271.847C535.744,272 535.702,272.183 535.702,272.352L535.702,273.514Z" style="fill:rgb(79,91,13);fill-rule:nonzero;"/>
        <path d="M547.212,274.649C547.212,275.237 547.24,275.811 547.324,276.274L546.203,276.274L546.106,275.418L546.064,275.418C545.686,275.952 544.957,276.428 543.99,276.428C542.617,276.428 541.917,275.461 541.917,274.481C541.917,272.842 543.374,271.946 545.993,271.959L545.993,271.819C545.993,271.258 545.839,270.25 544.452,270.25C543.822,270.25 543.164,270.446 542.688,270.754L542.407,269.942C542.968,269.578 543.78,269.34 544.635,269.34C546.708,269.34 547.212,270.754 547.212,272.114L547.212,274.649ZM546.022,272.813C544.677,272.786 543.149,273.024 543.149,274.34C543.149,275.139 543.682,275.517 544.313,275.517C545.194,275.517 545.755,274.956 545.951,274.382C545.993,274.256 546.022,274.116 546.022,273.991L546.022,272.813Z" style="fill:rgb(79,91,13);fill-rule:nonzero;"/>
        <path d="M549.197,271.329C549.197,270.628 549.184,270.054 549.142,269.494L550.234,269.494L550.304,270.614L550.332,270.614C550.668,269.97 551.452,269.34 552.573,269.34C553.512,269.34 554.969,269.9 554.969,272.225L554.969,276.274L553.735,276.274L553.735,272.366C553.735,271.273 553.33,270.362 552.167,270.362C551.355,270.362 550.725,270.936 550.514,271.623C550.458,271.777 550.43,271.987 550.43,272.198L550.43,276.274L549.197,276.274L549.197,271.329Z" style="fill:rgb(79,91,13);fill-rule:nonzero;"/>
        <path d="M557.233,269.494L558.719,273.5C558.872,273.948 559.04,274.481 559.152,274.887L559.181,274.887C559.307,274.481 559.446,273.962 559.615,273.471L560.96,269.494L562.262,269.494L560.413,274.327C559.53,276.652 558.929,277.842 558.088,278.571C557.485,279.103 556.883,279.313 556.575,279.37L556.267,278.332C556.575,278.235 556.981,278.039 557.346,277.731C557.682,277.463 558.102,276.988 558.382,276.358C558.439,276.231 558.481,276.133 558.481,276.063C558.481,275.993 558.452,275.895 558.397,275.741L555.889,269.494L557.233,269.494Z" style="fill:rgb(79,91,13);fill-rule:nonzero;"/>
        <path d="M566.347,271.329C566.347,270.628 566.333,270.054 566.291,269.494L567.384,269.494L567.453,270.614L567.481,270.614C567.817,269.97 568.602,269.34 569.723,269.34C570.661,269.34 572.118,269.9 572.118,272.225L572.118,276.274L570.885,276.274L570.885,272.366C570.885,271.273 570.479,270.362 569.316,270.362C568.504,270.362 567.874,270.936 567.663,271.623C567.607,271.777 567.579,271.987 567.579,272.198L567.579,276.274L566.347,276.274L566.347,271.329Z" style="fill:rgb(79,91,13);fill-rule:nonzero;"/>
        <path d="M578.879,274.649C578.879,275.237 578.907,275.811 578.991,276.274L577.87,276.274L577.772,275.418L577.731,275.418C577.352,275.952 576.624,276.428 575.657,276.428C574.284,276.428 573.584,275.461 573.584,274.481C573.584,272.842 575.041,271.946 577.66,271.959L577.66,271.819C577.66,271.258 577.506,270.25 576.119,270.25C575.489,270.25 574.831,270.446 574.355,270.754L574.074,269.942C574.635,269.578 575.447,269.34 576.302,269.34C578.375,269.34 578.879,270.754 578.879,272.114L578.879,274.649ZM577.689,272.813C576.344,272.786 574.816,273.024 574.816,274.34C574.816,275.139 575.349,275.517 575.98,275.517C576.861,275.517 577.422,274.956 577.618,274.382C577.66,274.256 577.689,274.116 577.689,273.991L577.689,272.813Z" style="fill:rgb(79,91,13);fill-rule:nonzero;"/>
        <path d="M580.864,271.329C580.864,270.628 580.851,270.054 580.809,269.494L581.887,269.494L581.943,270.586L581.985,270.586C582.363,269.942 582.993,269.34 584.114,269.34C585.039,269.34 585.739,269.9 586.033,270.698L586.062,270.698C586.272,270.321 586.537,270.026 586.817,269.816C587.224,269.508 587.672,269.34 588.316,269.34C589.213,269.34 590.544,269.928 590.544,272.282L590.544,276.274L589.339,276.274L589.339,272.436C589.339,271.133 588.862,270.348 587.868,270.348C587.168,270.348 586.621,270.867 586.411,271.469C586.356,271.637 586.314,271.861 586.314,272.084L586.314,276.274L585.108,276.274L585.108,272.211C585.108,271.133 584.633,270.348 583.694,270.348C582.924,270.348 582.363,270.964 582.167,271.581C582.097,271.763 582.069,271.973 582.069,272.183L582.069,276.274L580.864,276.274L580.864,271.329Z" style="fill:rgb(79,91,13);fill-rule:nonzero;"/>
        <path d="M593.228,273.108C593.256,274.774 594.319,275.461 595.552,275.461C596.435,275.461 596.968,275.307 597.429,275.111L597.64,275.993C597.206,276.19 596.462,276.428 595.384,276.428C593.298,276.428 592.051,275.041 592.051,272.996C592.051,270.951 593.256,269.34 595.23,269.34C597.442,269.34 598.032,271.287 598.032,272.534C598.032,272.786 598.003,272.981 597.989,273.108L593.228,273.108ZM596.841,272.225C596.855,271.441 596.519,270.222 595.132,270.222C593.886,270.222 593.34,271.371 593.241,272.225L596.841,272.225Z" style="fill:rgb(79,91,13);fill-rule:nonzero;"/>
        <path d="M533.331,285.154C533.539,285.289 533.907,285.434 534.259,285.434C534.771,285.434 535.011,285.178 535.011,284.858C535.011,284.522 534.811,284.338 534.291,284.147C533.596,283.899 533.268,283.514 533.268,283.051C533.268,282.427 533.772,281.915 534.603,281.915C534.994,281.915 535.338,282.028 535.555,282.156L535.378,282.667C535.227,282.571 534.946,282.444 534.587,282.444C534.171,282.444 533.939,282.683 533.939,282.971C533.939,283.291 534.171,283.435 534.675,283.627C535.347,283.883 535.69,284.218 535.69,284.793C535.69,285.473 535.162,285.961 534.243,285.961C533.819,285.961 533.428,285.85 533.155,285.69L533.331,285.154Z" style="fill:rgb(79,91,13);fill-rule:nonzero;"/>
        <path d="M539.314,284.946C539.314,285.282 539.33,285.61 539.378,285.873L538.738,285.873L538.683,285.385L538.658,285.385C538.442,285.69 538.026,285.961 537.475,285.961C536.691,285.961 536.292,285.41 536.292,284.85C536.292,283.914 537.123,283.403 538.618,283.411L538.618,283.331C538.618,283.011 538.53,282.436 537.738,282.436C537.379,282.436 537.003,282.547 536.731,282.723L536.571,282.26C536.892,282.051 537.356,281.915 537.843,281.915C539.026,281.915 539.314,282.723 539.314,283.498L539.314,284.946ZM538.635,283.899C537.867,283.883 536.995,284.018 536.995,284.77C536.995,285.226 537.299,285.442 537.659,285.442C538.162,285.442 538.482,285.122 538.595,284.793C538.618,284.722 538.635,284.642 538.635,284.571L538.635,283.899Z" style="fill:rgb(79,91,13);fill-rule:nonzero;"/>
        <path d="M540.451,283.051C540.451,282.651 540.443,282.323 540.419,282.004L541.034,282.004L541.066,282.627L541.091,282.627C541.307,282.26 541.666,281.915 542.306,281.915C542.834,281.915 543.233,282.235 543.401,282.692L543.417,282.692C543.537,282.475 543.689,282.307 543.849,282.188C544.081,282.012 544.337,281.915 544.704,281.915C545.216,281.915 545.976,282.251 545.976,283.594L545.976,285.873L545.288,285.873L545.288,283.682C545.288,282.939 545.017,282.491 544.448,282.491C544.049,282.491 543.737,282.788 543.617,283.131C543.585,283.227 543.562,283.355 543.562,283.483L543.562,285.873L542.873,285.873L542.873,283.555C542.873,282.939 542.602,282.491 542.066,282.491C541.626,282.491 541.307,282.843 541.194,283.195C541.154,283.299 541.139,283.418 541.139,283.539L541.139,285.873L540.451,285.873L540.451,283.051Z" style="fill:rgb(79,91,13);fill-rule:nonzero;"/>
        <path d="M547.124,283.267C547.124,282.772 547.107,282.372 547.092,282.004L547.724,282.004L547.756,282.667L547.772,282.667C548.06,282.196 548.515,281.915 549.147,281.915C550.082,281.915 550.786,282.707 550.786,283.883C550.786,285.274 549.939,285.961 549.026,285.961C548.515,285.961 548.067,285.738 547.835,285.354L547.819,285.354L547.819,287.456L547.124,287.456L547.124,283.267ZM547.819,284.298C547.819,284.403 547.835,284.498 547.852,284.586C547.98,285.075 548.403,285.41 548.906,285.41C549.65,285.41 550.082,284.802 550.082,283.914C550.082,283.139 549.674,282.475 548.931,282.475C548.451,282.475 548.003,282.819 547.867,283.346C547.844,283.435 547.819,283.539 547.819,283.635L547.819,284.298Z" style="fill:rgb(79,91,13);fill-rule:nonzero;"/>
        <rect x="551.676" y="280.197" width="0.703" height="5.676" style="fill:rgb(79,91,13);fill-rule:nonzero;"/>
        <path d="M553.955,284.067C553.971,285.018 554.578,285.41 555.282,285.41C555.786,285.41 556.09,285.322 556.354,285.209L556.474,285.713C556.226,285.826 555.802,285.961 555.187,285.961C553.995,285.961 553.283,285.17 553.283,284.002C553.283,282.834 553.971,281.915 555.099,281.915C556.361,281.915 556.697,283.028 556.697,283.739C556.697,283.883 556.682,283.995 556.674,284.067L553.955,284.067ZM556.018,283.563C556.025,283.116 555.834,282.419 555.042,282.419C554.331,282.419 554.019,283.075 553.963,283.563L556.018,283.563Z" style="fill:rgb(79,91,13);fill-rule:nonzero;"/>
        <path d="M560.115,281.077L560.115,282.004L561.122,282.004L561.122,282.539L560.115,282.539L560.115,284.625C560.115,285.106 560.251,285.377 560.643,285.377C560.834,285.377 560.946,285.362 561.051,285.331L561.082,285.858C560.946,285.914 560.731,285.961 560.459,285.961C560.131,285.961 559.867,285.85 559.699,285.658C559.499,285.45 559.427,285.106 559.427,284.651L559.427,282.539L558.827,282.539L558.827,282.004L559.427,282.004L559.427,281.291L560.115,281.077Z" style="fill:rgb(79,91,13);fill-rule:nonzero;"/>
        <path d="M562.259,284.067C562.274,285.018 562.883,285.41 563.586,285.41C564.09,285.41 564.394,285.322 564.657,285.209L564.777,285.713C564.529,285.826 564.106,285.961 563.49,285.961C562.299,285.961 561.587,285.17 561.587,284.002C561.587,282.834 562.274,281.915 563.402,281.915C564.665,281.915 565.001,283.028 565.001,283.739C565.001,283.883 564.985,283.995 564.978,284.067L562.259,284.067ZM564.321,283.563C564.329,283.116 564.138,282.419 563.346,282.419C562.635,282.419 562.322,283.075 562.267,283.563L564.321,283.563Z" style="fill:rgb(79,91,13);fill-rule:nonzero;"/>
        <path d="M566.179,282.004L566.731,282.834C566.875,283.051 566.994,283.25 567.123,283.467L567.147,283.467C567.274,283.235 567.402,283.036 567.53,282.827L568.074,282.004L568.834,282.004L567.515,283.874L568.874,285.873L568.074,285.873L567.506,285.002C567.355,284.778 567.227,284.563 567.091,284.331L567.074,284.331C566.946,284.571 566.811,284.77 566.667,285.002L566.107,285.873L565.332,285.873L566.707,283.899L565.396,282.004L566.179,282.004Z" style="fill:rgb(79,91,13);fill-rule:nonzero;"/>
        <path d="M570.507,281.077L570.507,282.004L571.514,282.004L571.514,282.539L570.507,282.539L570.507,284.625C570.507,285.106 570.643,285.377 571.034,285.377C571.226,285.377 571.338,285.362 571.441,285.331L571.474,285.858C571.338,285.914 571.122,285.961 570.851,285.961C570.522,285.961 570.259,285.85 570.091,285.658C569.891,285.45 569.818,285.106 569.818,284.651L569.818,282.539L569.219,282.539L569.219,282.004L569.818,282.004L569.818,281.291L570.507,281.077Z" style="fill:rgb(79,91,13);fill-rule:nonzero;"/>
        <rect x="506.334" y="291.975" width="91.999" height="0.844" style="fill:rgb(79,91,13);fill-rule:nonzero;"/>
        <path d="M518.875,297.975L517.236,297.975L517.236,297.383L521.226,297.383L521.226,297.975L519.579,297.975L519.579,302.772L518.875,302.772L518.875,297.975Z" style="fill:rgb(79,91,13);fill-rule:nonzero;"/>
        <path d="M521.628,300.965C521.644,301.916 522.252,302.309 522.955,302.309C523.459,302.309 523.763,302.221 524.026,302.11L524.147,302.612C523.898,302.725 523.475,302.86 522.859,302.86C521.668,302.86 520.956,302.069 520.956,300.901C520.956,299.735 521.644,298.815 522.772,298.815C524.034,298.815 524.37,299.926 524.37,300.637C524.37,300.782 524.355,300.893 524.347,300.965L521.628,300.965ZM523.69,300.461C523.698,300.014 523.507,299.319 522.715,299.319C522.004,299.319 521.691,299.975 521.636,300.461L523.69,300.461Z" style="fill:rgb(79,91,13);fill-rule:nonzero;"/>
        <rect x="525.244" y="297.096" width="0.703" height="5.676" style="fill:rgb(79,91,13);fill-rule:nonzero;"/>
        <path d="M527.428,300.038C527.155,300.038 526.964,299.823 526.964,299.541C526.964,299.247 527.163,299.03 527.443,299.03C527.724,299.03 527.907,299.247 527.915,299.541C527.915,299.823 527.731,300.038 527.436,300.038L527.428,300.038ZM527.428,302.86C527.155,302.86 526.964,302.645 526.964,302.366C526.964,302.069 527.163,301.862 527.443,301.862C527.724,301.862 527.907,302.069 527.915,302.366C527.915,302.645 527.731,302.86 527.436,302.86L527.428,302.86Z" style="fill:rgb(79,91,13);fill-rule:nonzero;"/>
        <path d="M531.786,298.231L531.771,298.231L530.867,298.719L530.731,298.184L531.866,297.575L532.466,297.575L532.466,302.772L531.786,302.772L531.786,298.231Z" style="fill:rgb(79,91,13);fill-rule:nonzero;"/>
        <path d="M535.891,298.231L535.875,298.231L534.972,298.719L534.836,298.184L535.971,297.575L536.57,297.575L536.57,302.772L535.891,302.772L535.891,298.231Z" style="fill:rgb(79,91,13);fill-rule:nonzero;"/>
        <path d="M539.994,298.231L539.979,298.231L539.075,298.719L538.939,298.184L540.074,297.575L540.674,297.575L540.674,302.772L539.994,302.772L539.994,298.231Z" style="fill:rgb(79,91,13);fill-rule:nonzero;"/>
        <rect x="542.451" y="300.35" width="1.975" height="0.52" style="fill:rgb(79,91,13);fill-rule:nonzero;"/>
        <path d="M548.481,300.118C548.481,301.885 547.825,302.86 546.674,302.86C545.658,302.86 544.971,301.909 544.955,300.19C544.955,298.448 545.706,297.487 546.762,297.487C547.857,297.487 548.481,298.463 548.481,300.118ZM545.658,300.198C545.658,301.549 546.074,302.317 546.714,302.317C547.434,302.317 547.777,301.477 547.777,300.151C547.777,298.872 547.449,298.032 546.722,298.032C546.106,298.032 545.658,298.784 545.658,300.198Z" style="fill:rgb(79,91,13);fill-rule:nonzero;"/>
        <path d="M552.585,300.118C552.585,301.885 551.93,302.86 550.778,302.86C549.763,302.86 549.075,301.909 549.06,300.19C549.06,298.448 549.811,297.487 550.866,297.487C551.962,297.487 552.585,298.463 552.585,300.118ZM549.763,300.198C549.763,301.549 550.179,302.317 550.818,302.317C551.538,302.317 551.882,301.477 551.882,300.151C551.882,298.872 551.554,298.032 550.826,298.032C550.211,298.032 549.763,298.784 549.763,300.198Z" style="fill:rgb(79,91,13);fill-rule:nonzero;"/>
        <path d="M554.762,298.231L554.746,298.231L553.843,298.719L553.707,298.184L554.842,297.575L555.441,297.575L555.441,302.772L554.762,302.772L554.762,298.231Z" style="fill:rgb(79,91,13);fill-rule:nonzero;"/>
        <rect x="557.219" y="300.35" width="1.974" height="0.52" style="fill:rgb(79,91,13);fill-rule:nonzero;"/>
        <path d="M563.248,300.118C563.248,301.885 562.593,302.86 561.441,302.86C560.426,302.86 559.738,301.909 559.723,300.19C559.723,298.448 560.474,297.487 561.529,297.487C562.625,297.487 563.248,298.463 563.248,300.118ZM560.426,300.198C560.426,301.549 560.842,302.317 561.481,302.317C562.201,302.317 562.545,301.477 562.545,300.151C562.545,298.872 562.217,298.032 561.489,298.032C560.874,298.032 560.426,298.784 560.426,300.198Z" style="fill:rgb(79,91,13);fill-rule:nonzero;"/>
        <path d="M565.426,298.231L565.41,298.231L564.507,298.719L564.371,298.184L565.506,297.575L566.106,297.575L566.106,302.772L565.426,302.772L565.426,298.231Z" style="fill:rgb(79,91,13);fill-rule:nonzero;"/>
        <rect x="567.883" y="300.35" width="1.974" height="0.52" style="fill:rgb(79,91,13);fill-rule:nonzero;"/>
        <path d="M573.912,300.118C573.912,301.885 573.257,302.86 572.106,302.86C571.09,302.86 570.402,301.909 570.387,300.19C570.387,298.448 571.138,297.487 572.193,297.487C573.289,297.487 573.912,298.463 573.912,300.118ZM571.09,300.198C571.09,301.549 571.506,302.317 572.146,302.317C572.865,302.317 573.209,301.477 573.209,300.151C573.209,298.872 572.881,298.032 572.153,298.032C571.538,298.032 571.09,298.784 571.09,300.198Z" style="fill:rgb(79,91,13);fill-rule:nonzero;"/>
        <path d="M578.016,300.118C578.016,301.885 577.36,302.86 576.209,302.86C575.193,302.86 574.506,301.909 574.49,300.19C574.49,298.448 575.241,297.487 576.297,297.487C577.393,297.487 578.016,298.463 578.016,300.118ZM575.193,300.198C575.193,301.549 575.609,302.317 576.249,302.317C576.969,302.317 577.313,301.477 577.313,300.151C577.313,298.872 576.984,298.032 576.257,298.032C575.642,298.032 575.193,298.784 575.193,300.198Z" style="fill:rgb(79,91,13);fill-rule:nonzero;"/>
        <rect x="578.547" y="300.35" width="1.975" height="0.52" style="fill:rgb(79,91,13);fill-rule:nonzero;"/>
        <path d="M582.649,298.231L582.634,298.231L581.731,298.719L581.594,298.184L582.73,297.575L583.329,297.575L583.329,302.772L582.649,302.772L582.649,298.231Z" style="fill:rgb(79,91,13);fill-rule:nonzero;"/>
        <path d="M586.753,298.231L586.737,298.231L585.834,298.719L585.697,298.184L586.833,297.575L587.433,297.575L587.433,302.772L586.753,302.772L586.753,298.231Z" style="fill:rgb(79,91,13);fill-rule:nonzero;"/>
        <path d="M516.024,306.983L518.927,306.983L518.927,307.567L516.721,307.567L516.721,309.358L518.759,309.358L518.759,309.934L516.721,309.934L516.721,312.373L516.024,312.373L516.024,306.983Z" style="fill:rgb(79,91,13);fill-rule:nonzero;"/>
        <path d="M522.255,311.446C522.255,311.782 522.272,312.11 522.319,312.373L521.68,312.373L521.624,311.885L521.6,311.885C521.384,312.188 520.968,312.461 520.416,312.461C519.633,312.461 519.233,311.909 519.233,311.35C519.233,310.414 520.064,309.903 521.56,309.911L521.56,309.831C521.56,309.51 521.472,308.934 520.681,308.934C520.32,308.934 519.944,309.047 519.673,309.223L519.513,308.758C519.833,308.551 520.296,308.414 520.784,308.414C521.968,308.414 522.255,309.223 522.255,309.998L522.255,311.446ZM521.575,310.397C520.808,310.381 519.937,310.518 519.937,311.27C519.937,311.725 520.24,311.942 520.601,311.942C521.104,311.942 521.424,311.622 521.536,311.293C521.56,311.221 521.575,311.141 521.575,311.069L521.575,310.397Z" style="fill:rgb(79,91,13);fill-rule:nonzero;"/>
        <path d="M523.72,308.502L524.272,309.334C524.416,309.551 524.536,309.75 524.663,309.965L524.688,309.965C524.815,309.735 524.943,309.534 525.071,309.327L525.615,308.502L526.375,308.502L525.056,310.373L526.415,312.373L525.615,312.373L525.048,311.5C524.896,311.278 524.768,311.061 524.632,310.831L524.615,310.831C524.487,311.069 524.352,311.27 524.208,311.5L523.648,312.373L522.872,312.373L524.248,310.397L522.937,308.502L523.72,308.502Z" style="fill:rgb(79,91,13);fill-rule:nonzero;"/>
        <path d="M527.393,309.639C527.12,309.639 526.929,309.422 526.929,309.143C526.929,308.846 527.128,308.631 527.408,308.631C527.689,308.631 527.872,308.846 527.88,309.143C527.88,309.422 527.696,309.639 527.4,309.639L527.393,309.639ZM527.393,312.461C527.12,312.461 526.929,312.245 526.929,311.965C526.929,311.668 527.128,311.461 527.408,311.461C527.689,311.461 527.872,311.668 527.88,311.965C527.88,312.245 527.696,312.461 527.4,312.461L527.393,312.461Z" style="fill:rgb(79,91,13);fill-rule:nonzero;"/>
        <path d="M533.678,309.717C533.678,311.485 533.022,312.461 531.871,312.461C530.856,312.461 530.168,311.508 530.152,309.789C530.152,308.047 530.903,307.088 531.959,307.088C533.055,307.088 533.678,308.063 533.678,309.717ZM530.856,309.797C530.856,311.149 531.272,311.916 531.911,311.916C532.631,311.916 532.975,311.077 532.975,309.75C532.975,308.471 532.647,307.631 531.919,307.631C531.304,307.631 530.856,308.383 530.856,309.797Z" style="fill:rgb(79,91,13);fill-rule:nonzero;"/>
        <path d="M535.856,307.831L535.84,307.831L534.937,308.319L534.8,307.784L535.936,307.176L536.535,307.176L536.535,312.373L535.856,312.373L535.856,307.831Z" style="fill:rgb(79,91,13);fill-rule:nonzero;"/>
        <path d="M541.886,309.717C541.886,311.485 541.231,312.461 540.079,312.461C539.064,312.461 538.376,311.508 538.36,309.789C538.36,308.047 539.111,307.088 540.167,307.088C541.263,307.088 541.886,308.063 541.886,309.717ZM539.064,309.797C539.064,311.149 539.48,311.916 540.119,311.916C540.839,311.916 541.183,311.077 541.183,309.75C541.183,308.471 540.855,307.631 540.127,307.631C539.512,307.631 539.064,308.383 539.064,309.797Z" style="fill:rgb(79,91,13);fill-rule:nonzero;"/>
        <rect x="542.417" y="309.95" width="1.975" height="0.519" style="fill:rgb(79,91,13);fill-rule:nonzero;"/>
        <path d="M548.445,309.717C548.445,311.485 547.79,312.461 546.639,312.461C545.623,312.461 544.936,311.508 544.92,309.789C544.92,308.047 545.671,307.088 546.727,307.088C547.822,307.088 548.445,308.063 548.445,309.717ZM545.623,309.797C545.623,311.149 546.039,311.916 546.679,311.916C547.398,311.916 547.742,311.077 547.742,309.75C547.742,308.471 547.414,307.631 546.687,307.631C546.071,307.631 545.623,308.383 545.623,309.797Z" style="fill:rgb(79,91,13);fill-rule:nonzero;"/>
        <path d="M550.623,307.831L550.607,307.831L549.704,308.319L549.567,307.784L550.703,307.176L551.303,307.176L551.303,312.373L550.623,312.373L550.623,307.831Z" style="fill:rgb(79,91,13);fill-rule:nonzero;"/>
        <path d="M554.727,307.831L554.711,307.831L553.808,308.319L553.671,307.784L554.807,307.176L555.406,307.176L555.406,312.373L554.727,312.373L554.727,307.831Z" style="fill:rgb(79,91,13);fill-rule:nonzero;"/>
        <rect x="557.185" y="309.95" width="1.974" height="0.519" style="fill:rgb(79,91,13);fill-rule:nonzero;"/>
        <path d="M561.286,307.831L561.271,307.831L560.367,308.319L560.231,307.784L561.366,307.176L561.966,307.176L561.966,312.373L561.286,312.373L561.286,307.831Z" style="fill:rgb(79,91,13);fill-rule:nonzero;"/>
        <path d="M567.317,309.717C567.317,311.485 566.662,312.461 565.511,312.461C564.495,312.461 563.808,311.508 563.792,309.789C563.792,308.047 564.543,307.088 565.599,307.088C566.694,307.088 567.317,308.063 567.317,309.717ZM564.495,309.797C564.495,311.149 564.911,311.916 565.551,311.916C566.271,311.916 566.614,311.077 566.614,309.75C566.614,308.471 566.286,307.631 565.559,307.631C564.943,307.631 564.495,308.383 564.495,309.797Z" style="fill:rgb(79,91,13);fill-rule:nonzero;"/>
        <rect x="567.848" y="309.95" width="1.974" height="0.519" style="fill:rgb(79,91,13);fill-rule:nonzero;"/>
        <path d="M571.95,307.831L571.935,307.831L571.031,308.319L570.896,307.784L572.03,307.176L572.63,307.176L572.63,312.373L571.95,312.373L571.95,307.831Z" style="fill:rgb(79,91,13);fill-rule:nonzero;"/>
        <path d="M576.054,307.831L576.038,307.831L575.135,308.319L574.999,307.784L576.134,307.176L576.733,307.176L576.733,312.373L576.054,312.373L576.054,307.831Z" style="fill:rgb(79,91,13);fill-rule:nonzero;"/>
        <rect x="578.512" y="309.95" width="1.974" height="0.519" style="fill:rgb(79,91,13);fill-rule:nonzero;"/>
        <path d="M584.541,309.717C584.541,311.485 583.886,312.461 582.734,312.461C581.719,312.461 581.031,311.508 581.016,309.789C581.016,308.047 581.767,307.088 582.822,307.088C583.918,307.088 584.541,308.063 584.541,309.717ZM581.719,309.797C581.719,311.149 582.135,311.916 582.774,311.916C583.494,311.916 583.838,311.077 583.838,309.75C583.838,308.471 583.51,307.631 582.782,307.631C582.167,307.631 581.719,308.383 581.719,309.797Z" style="fill:rgb(79,91,13);fill-rule:nonzero;"/>
        <path d="M588.645,309.717C588.645,311.485 587.989,312.461 586.838,312.461C585.822,312.461 585.135,311.508 585.119,309.789C585.119,308.047 585.87,307.088 586.926,307.088C588.022,307.088 588.645,308.063 588.645,309.717ZM585.822,309.797C585.822,311.149 586.238,311.916 586.878,311.916C587.598,311.916 587.941,311.077 587.941,309.75C587.941,308.471 587.613,307.631 586.886,307.631C586.271,307.631 585.822,308.383 585.822,309.797Z" style="fill:rgb(79,91,13);fill-rule:nonzero;"/>
        <path d="M510.627,331.571L510.627,329.284L508.924,326.182L509.716,326.182L510.476,327.668C510.684,328.077 510.843,328.405 511.011,328.78L511.027,328.78C511.179,328.428 511.363,328.077 511.57,327.668L512.347,326.182L513.138,326.182L511.331,329.276L511.331,331.571L510.627,331.571Z" style="fill:rgb(79,91,13);fill-rule:nonzero;"/>
        <path d="M516.626,329.604C516.626,331.034 515.635,331.659 514.699,331.659C513.651,331.659 512.844,330.891 512.844,329.666C512.844,328.372 513.691,327.612 514.763,327.612C515.874,327.612 516.626,328.42 516.626,329.604ZM513.556,329.643C513.556,330.491 514.043,331.131 514.731,331.131C515.402,331.131 515.906,330.498 515.906,329.627C515.906,328.971 515.578,328.141 514.747,328.141C513.915,328.141 513.556,328.909 513.556,329.643Z" style="fill:rgb(79,91,13);fill-rule:nonzero;"/>
        <path d="M520.755,330.514C520.755,330.914 520.763,331.266 520.786,331.571L520.163,331.571L520.123,330.938L520.106,330.938C519.923,331.25 519.516,331.659 518.827,331.659C518.22,331.659 517.492,331.323 517.492,329.963L517.492,327.7L518.196,327.7L518.196,329.842C518.196,330.579 518.42,331.075 519.06,331.075C519.531,331.075 519.859,330.747 519.987,330.434C520.027,330.331 520.051,330.204 520.051,330.075L520.051,327.7L520.755,327.7L520.755,330.514Z" style="fill:rgb(79,91,13);fill-rule:nonzero;"/>
        <path d="M521.924,328.909C521.924,328.452 521.916,328.061 521.892,327.7L522.507,327.7L522.531,328.459L522.564,328.459C522.739,327.94 523.163,327.612 523.635,327.612C523.715,327.612 523.771,327.62 523.834,327.637L523.834,328.299C523.763,328.284 523.69,328.276 523.595,328.276C523.099,328.276 522.747,328.653 522.651,329.18C522.635,329.276 522.619,329.387 522.619,329.508L522.619,331.571L521.924,331.571L521.924,328.909Z" style="fill:rgb(79,91,13);fill-rule:nonzero;"/>
        <path d="M527.084,326.772L527.084,327.7L528.091,327.7L528.091,328.237L527.084,328.237L527.084,330.323C527.084,330.803 527.22,331.075 527.611,331.075C527.803,331.075 527.915,331.059 528.02,331.026L528.051,331.555C527.915,331.61 527.699,331.659 527.428,331.659C527.1,331.659 526.836,331.545 526.668,331.354C526.468,331.147 526.396,330.803 526.396,330.346L526.396,328.237L525.796,328.237L525.796,327.7L526.396,327.7L526.396,326.989L527.084,326.772Z" style="fill:rgb(79,91,13);fill-rule:nonzero;"/>
        <path d="M529.228,329.764C529.243,330.715 529.852,331.106 530.555,331.106C531.059,331.106 531.362,331.018 531.626,330.907L531.746,331.411C531.498,331.522 531.074,331.659 530.459,331.659C529.268,331.659 528.556,330.866 528.556,329.7C528.556,328.532 529.243,327.612 530.371,327.612C531.634,327.612 531.97,328.723 531.97,329.436C531.97,329.579 531.954,329.692 531.946,329.764L529.228,329.764ZM531.29,329.26C531.298,328.811 531.106,328.116 530.314,328.116C529.604,328.116 529.291,328.772 529.235,329.26L531.29,329.26Z" style="fill:rgb(79,91,13);fill-rule:nonzero;"/>
        <path d="M533.147,327.7L533.699,328.532C533.844,328.748 533.963,328.948 534.092,329.164L534.115,329.164C534.243,328.932 534.371,328.731 534.499,328.524L535.043,327.7L535.803,327.7L534.483,329.571L535.843,331.571L535.043,331.571L534.475,330.7C534.323,330.475 534.195,330.258 534.06,330.028L534.043,330.028C533.915,330.266 533.779,330.467 533.636,330.7L533.076,331.571L532.301,331.571L533.676,329.596L532.364,327.7L533.147,327.7Z" style="fill:rgb(79,91,13);fill-rule:nonzero;"/>
        <path d="M537.476,326.772L537.476,327.7L538.482,327.7L538.482,328.237L537.476,328.237L537.476,330.323C537.476,330.803 537.611,331.075 538.003,331.075C538.194,331.075 538.307,331.059 538.41,331.026L538.442,331.555C538.307,331.61 538.091,331.659 537.819,331.659C537.491,331.659 537.228,331.545 537.06,331.354C536.859,331.147 536.787,330.803 536.787,330.346L536.787,328.237L536.188,328.237L536.188,327.7L536.787,327.7L536.787,326.989L537.476,326.772Z" style="fill:rgb(79,91,13);fill-rule:nonzero;"/>
        <path d="M540.972,325.893L541.675,325.893L541.675,328.307L541.691,328.307C541.803,328.108 541.979,327.932 542.194,327.813C542.402,327.692 542.65,327.612 542.914,327.612C543.434,327.612 544.266,327.932 544.266,329.268L544.266,331.571L543.562,331.571L543.562,329.348C543.562,328.723 543.33,328.196 542.666,328.196C542.211,328.196 541.851,328.516 541.723,328.899C541.683,328.997 541.675,329.1 541.675,329.235L541.675,331.571L540.972,331.571L540.972,325.893Z" style="fill:rgb(79,91,13);fill-rule:nonzero;"/>
        <path d="M545.804,329.764C545.819,330.715 546.428,331.106 547.131,331.106C547.635,331.106 547.939,331.018 548.202,330.907L548.322,331.411C548.074,331.522 547.65,331.659 547.035,331.659C545.844,331.659 545.132,330.866 545.132,329.7C545.132,328.532 545.819,327.612 546.947,327.612C548.21,327.612 548.546,328.723 548.546,329.436C548.546,329.579 548.53,329.692 548.522,329.764L545.804,329.764ZM547.866,329.26C547.874,328.811 547.683,328.116 546.891,328.116C546.18,328.116 545.867,328.772 545.812,329.26L547.866,329.26Z" style="fill:rgb(79,91,13);fill-rule:nonzero;"/>
        <path d="M549.42,328.909C549.42,328.452 549.412,328.061 549.388,327.7L550.003,327.7L550.027,328.459L550.06,328.459C550.235,327.94 550.659,327.612 551.131,327.612C551.211,327.612 551.267,327.62 551.33,327.637L551.33,328.299C551.259,328.284 551.187,328.276 551.091,328.276C550.595,328.276 550.243,328.653 550.147,329.18C550.131,329.276 550.115,329.387 550.115,329.508L550.115,331.571L549.42,331.571L549.42,328.909Z" style="fill:rgb(79,91,13);fill-rule:nonzero;"/>
        <path d="M552.348,329.764C552.363,330.715 552.971,331.106 553.675,331.106C554.179,331.106 554.482,331.018 554.746,330.907L554.866,331.411C554.618,331.522 554.194,331.659 553.579,331.659C552.388,331.659 551.676,330.866 551.676,329.7C551.676,328.532 552.363,327.612 553.491,327.612C554.754,327.612 555.09,328.723 555.09,329.436C555.09,329.579 555.074,329.692 555.066,329.764L552.348,329.764ZM554.41,329.26C554.418,328.811 554.227,328.116 553.435,328.116C552.724,328.116 552.411,328.772 552.356,329.26L554.41,329.26Z" style="fill:rgb(79,91,13);fill-rule:nonzero;"/>
        <path d="M557.563,330.85C557.771,330.987 558.139,331.131 558.49,331.131C559.002,331.131 559.242,330.875 559.242,330.555C559.242,330.219 559.042,330.036 558.522,329.842C557.827,329.596 557.499,329.211 557.499,328.748C557.499,328.123 558.003,327.612 558.834,327.612C559.226,327.612 559.57,327.725 559.786,327.852L559.609,328.364C559.458,328.268 559.178,328.141 558.818,328.141C558.402,328.141 558.171,328.379 558.171,328.668C558.171,328.987 558.402,329.131 558.906,329.323C559.578,329.579 559.922,329.914 559.922,330.491C559.922,331.17 559.394,331.659 558.475,331.659C558.051,331.659 557.659,331.545 557.387,331.387L557.563,330.85Z" style="fill:rgb(79,91,13);fill-rule:nonzero;"/>
        <path d="M563.545,330.643C563.545,330.979 563.562,331.307 563.609,331.571L562.97,331.571L562.914,331.082L562.89,331.082C562.674,331.387 562.258,331.659 561.706,331.659C560.923,331.659 560.523,331.106 560.523,330.547C560.523,329.612 561.355,329.1 562.85,329.108L562.85,329.028C562.85,328.707 562.762,328.131 561.971,328.131C561.61,328.131 561.234,328.245 560.963,328.42L560.803,327.956C561.123,327.748 561.586,327.612 562.074,327.612C563.258,327.612 563.545,328.42 563.545,329.196L563.545,330.643ZM562.865,329.596C562.098,329.579 561.227,329.715 561.227,330.467C561.227,330.922 561.53,331.139 561.891,331.139C562.394,331.139 562.714,330.819 562.826,330.491C562.85,330.418 562.865,330.338 562.865,330.266L562.865,329.596Z" style="fill:rgb(79,91,13);fill-rule:nonzero;"/>
        <path d="M564.684,328.748C564.684,328.348 564.676,328.02 564.651,327.7L565.267,327.7L565.299,328.325L565.323,328.325C565.539,327.956 565.898,327.612 566.538,327.612C567.066,327.612 567.466,327.932 567.634,328.387L567.649,328.387C567.77,328.172 567.922,328.004 568.081,327.885C568.314,327.707 568.569,327.612 568.937,327.612C569.448,327.612 570.208,327.948 570.208,329.291L570.208,331.571L569.521,331.571L569.521,329.379C569.521,328.635 569.249,328.188 568.681,328.188C568.281,328.188 567.97,328.485 567.85,328.829C567.817,328.924 567.794,329.051 567.794,329.18L567.794,331.571L567.106,331.571L567.106,329.252C567.106,328.635 566.834,328.188 566.299,328.188C565.858,328.188 565.539,328.539 565.427,328.891C565.387,328.997 565.371,329.116 565.371,329.235L565.371,331.571L564.684,331.571L564.684,328.748Z" style="fill:rgb(79,91,13);fill-rule:nonzero;"/>
        <path d="M571.356,328.963C571.356,328.467 571.339,328.069 571.323,327.7L571.955,327.7L571.986,328.364L572.003,328.364C572.291,327.893 572.746,327.612 573.378,327.612C574.314,327.612 575.018,328.405 575.018,329.579C575.018,330.971 574.17,331.659 573.258,331.659C572.746,331.659 572.299,331.434 572.066,331.051L572.051,331.051L572.051,333.153L571.356,333.153L571.356,328.963ZM572.051,329.995C572.051,330.098 572.066,330.196 572.083,330.284C572.211,330.77 572.635,331.106 573.139,331.106C573.882,331.106 574.314,330.498 574.314,329.612C574.314,328.836 573.906,328.172 573.162,328.172C572.683,328.172 572.234,328.516 572.099,329.043C572.075,329.131 572.051,329.235 572.051,329.331L572.051,329.995Z" style="fill:rgb(79,91,13);fill-rule:nonzero;"/>
        <rect x="575.907" y="325.893" width="0.703" height="5.678" style="fill:rgb(79,91,13);fill-rule:nonzero;"/>
        <path d="M578.187,329.764C578.202,330.715 578.811,331.106 579.514,331.106C580.018,331.106 580.321,331.018 580.585,330.907L580.705,331.411C580.457,331.522 580.033,331.659 579.418,331.659C578.227,331.659 577.515,330.866 577.515,329.7C577.515,328.532 578.202,327.612 579.33,327.612C580.593,327.612 580.929,328.723 580.929,329.436C580.929,329.579 580.913,329.692 580.905,329.764L578.187,329.764ZM580.249,329.26C580.257,328.811 580.065,328.116 579.273,328.116C578.563,328.116 578.25,328.772 578.194,329.26L580.249,329.26Z" style="fill:rgb(79,91,13);fill-rule:nonzero;"/>
        <path d="M584.347,326.772L584.347,327.7L585.354,327.7L585.354,328.237L584.347,328.237L584.347,330.323C584.347,330.803 584.482,331.075 584.874,331.075C585.065,331.075 585.178,331.059 585.281,331.026L585.314,331.555C585.178,331.61 584.962,331.659 584.69,331.659C584.362,331.659 584.099,331.545 583.931,331.354C583.731,331.147 583.658,330.803 583.658,330.346L583.658,328.237L583.059,328.237L583.059,327.7L583.658,327.7L583.658,326.989L584.347,326.772Z" style="fill:rgb(79,91,13);fill-rule:nonzero;"/>
        <path d="M586.491,329.764C586.507,330.715 587.115,331.106 587.818,331.106C588.322,331.106 588.626,331.018 588.89,330.907L589.01,331.411C588.762,331.522 588.338,331.659 587.723,331.659C586.531,331.659 585.819,330.866 585.819,329.7C585.819,328.532 586.507,327.612 587.635,327.612C588.897,327.612 589.233,328.723 589.233,329.436C589.233,329.579 589.218,329.692 589.21,329.764L586.491,329.764ZM588.554,329.26C588.562,328.811 588.37,328.116 587.578,328.116C586.867,328.116 586.555,328.772 586.499,329.26L588.554,329.26Z" style="fill:rgb(79,91,13);fill-rule:nonzero;"/>
        <path d="M590.41,327.7L590.962,328.532C591.106,328.748 591.227,328.948 591.354,329.164L591.378,329.164C591.506,328.932 591.634,328.731 591.762,328.524L592.306,327.7L593.065,327.7L591.746,329.571L593.106,331.571L592.306,331.571L591.738,330.7C591.586,330.475 591.458,330.258 591.322,330.028L591.306,330.028C591.178,330.266 591.042,330.467 590.898,330.7L590.339,331.571L589.563,331.571L590.939,329.596L589.627,327.7L590.41,327.7Z" style="fill:rgb(79,91,13);fill-rule:nonzero;"/>
        <path d="M594.737,326.772L594.737,327.7L595.745,327.7L595.745,328.237L594.737,328.237L594.737,330.323C594.737,330.803 594.874,331.075 595.265,331.075C595.456,331.075 595.569,331.059 595.673,331.026L595.704,331.555C595.569,331.61 595.353,331.659 595.081,331.659C594.753,331.659 594.489,331.545 594.321,331.354C594.122,331.147 594.05,330.803 594.05,330.346L594.05,328.237L593.45,328.237L593.45,327.7L594.05,327.7L594.05,326.989L594.737,326.772Z" style="fill:rgb(79,91,13);fill-rule:nonzero;"/>
        <path d="M528.319,335.846C528.655,335.789 529.095,335.743 529.655,335.743C530.343,335.743 530.847,335.901 531.166,336.19C531.462,336.446 531.638,336.836 531.638,337.317C531.638,337.805 531.494,338.188 531.222,338.469C530.855,338.86 530.255,339.059 529.575,339.059C529.367,339.059 529.175,339.051 529.016,339.012L529.016,341.17L528.319,341.17L528.319,335.846ZM529.016,338.444C529.167,338.485 529.359,338.5 529.591,338.5C530.431,338.5 530.942,338.092 530.942,337.348C530.942,336.637 530.439,336.293 529.671,336.293C529.367,336.293 529.135,336.317 529.016,336.35L529.016,338.444Z" style="fill:rgb(79,91,13);fill-rule:nonzero;"/>
        <rect x="532.512" y="335.495" width="0.703" height="5.675" style="fill:rgb(79,91,13);fill-rule:nonzero;"/>
        <path d="M537.117,340.243C537.117,340.579 537.134,340.907 537.182,341.17L536.542,341.17L536.486,340.684L536.462,340.684C536.246,340.987 535.83,341.258 535.278,341.258C534.495,341.258 534.096,340.707 534.096,340.147C534.096,339.211 534.927,338.7 536.422,338.707L536.422,338.627C536.422,338.309 536.334,337.733 535.542,337.733C535.183,337.733 534.807,337.844 534.535,338.02L534.375,337.557C534.695,337.348 535.159,337.213 535.647,337.213C536.83,337.213 537.117,338.02 537.117,338.795L537.117,340.243ZM536.439,339.196C535.671,339.18 534.799,339.315 534.799,340.067C534.799,340.524 535.103,340.739 535.463,340.739C535.966,340.739 536.286,340.418 536.398,340.092C536.422,340.02 536.439,339.94 536.439,339.868L536.439,339.196Z" style="fill:rgb(79,91,13);fill-rule:nonzero;"/>
        <path d="M541.014,341.028C540.83,341.124 540.423,341.258 539.902,341.258C538.735,341.258 537.976,340.459 537.976,339.276C537.976,338.084 538.791,337.221 540.055,337.221C540.471,337.221 540.838,337.325 541.03,337.42L540.87,337.965C540.702,337.87 540.439,337.78 540.055,337.78C539.167,337.78 538.688,338.436 538.688,339.245C538.688,340.139 539.263,340.692 540.03,340.692C540.431,340.692 540.694,340.586 540.895,340.499L541.014,341.028Z" style="fill:rgb(79,91,13);fill-rule:nonzero;"/>
        <path d="M542.184,339.364C542.199,340.315 542.808,340.707 543.511,340.707C544.015,340.707 544.318,340.62 544.582,340.506L544.702,341.01C544.454,341.124 544.03,341.258 543.415,341.258C542.224,341.258 541.512,340.467 541.512,339.299C541.512,338.133 542.199,337.213 543.327,337.213C544.59,337.213 544.926,338.325 544.926,339.036C544.926,339.18 544.91,339.291 544.902,339.364L542.184,339.364ZM544.246,338.86C544.254,338.413 544.063,337.717 543.271,337.717C542.56,337.717 542.247,338.372 542.191,338.86L544.246,338.86Z" style="fill:rgb(79,91,13);fill-rule:nonzero;"/>
        <path d="M548.344,336.373L548.344,337.301L549.351,337.301L549.351,337.836L548.344,337.836L548.344,339.924C548.344,340.403 548.48,340.674 548.871,340.674C549.063,340.674 549.175,340.659 549.278,340.627L549.311,341.155C549.175,341.211 548.959,341.258 548.688,341.258C548.359,341.258 548.096,341.147 547.928,340.956C547.728,340.747 547.655,340.403 547.655,339.948L547.655,337.836L547.056,337.836L547.056,337.301L547.655,337.301L547.655,336.59L548.344,336.373Z" style="fill:rgb(79,91,13);fill-rule:nonzero;"/>
        <path d="M550.487,339.364C550.503,340.315 551.11,340.707 551.814,340.707C552.318,340.707 552.622,340.62 552.886,340.506L553.006,341.01C552.758,341.124 552.334,341.258 551.719,341.258C550.527,341.258 549.815,340.467 549.815,339.299C549.815,338.133 550.503,337.213 551.631,337.213C552.894,337.213 553.23,338.325 553.23,339.036C553.23,339.18 553.214,339.291 553.206,339.364L550.487,339.364ZM552.55,338.86C552.558,338.413 552.366,337.717 551.574,337.717C550.863,337.717 550.551,338.372 550.495,338.86L552.55,338.86Z" style="fill:rgb(79,91,13);fill-rule:nonzero;"/>
        <path d="M554.407,337.301L554.959,338.133C555.104,338.348 555.224,338.547 555.351,338.764L555.375,338.764C555.503,338.532 555.631,338.332 555.759,338.125L556.303,337.301L557.063,337.301L555.743,339.172L557.103,341.17L556.303,341.17L555.735,340.299C555.583,340.075 555.455,339.86 555.319,339.627L555.303,339.627C555.175,339.868 555.039,340.067 554.896,340.299L554.336,341.17L553.56,341.17L554.936,339.196L553.624,337.301L554.407,337.301Z" style="fill:rgb(79,91,13);fill-rule:nonzero;"/>
        <path d="M558.735,336.373L558.735,337.301L559.742,337.301L559.742,337.836L558.735,337.836L558.735,339.924C558.735,340.403 558.871,340.674 559.263,340.674C559.454,340.674 559.566,340.659 559.671,340.627L559.702,341.155C559.566,341.211 559.351,341.258 559.079,341.258C558.751,341.258 558.487,341.147 558.319,340.956C558.119,340.747 558.047,340.403 558.047,339.948L558.047,337.836L557.447,337.836L557.447,337.301L558.047,337.301L558.047,336.59L558.735,336.373Z" style="fill:rgb(79,91,13);fill-rule:nonzero;"/>
        <path d="M562.231,335.495L562.935,335.495L562.935,337.909L562.951,337.909C563.063,337.709 563.238,337.534 563.454,337.413C563.662,337.293 563.91,337.213 564.174,337.213C564.693,337.213 565.525,337.534 565.525,338.868L565.525,341.17L564.821,341.17L564.821,338.948C564.821,338.325 564.59,337.797 563.926,337.797C563.471,337.797 563.11,338.116 562.982,338.5C562.942,338.596 562.935,338.7 562.935,338.836L562.935,341.17L562.231,341.17L562.231,335.495Z" style="fill:rgb(79,91,13);fill-rule:nonzero;"/>
        <path d="M567.063,339.364C567.078,340.315 567.687,340.707 568.39,340.707C568.894,340.707 569.197,340.62 569.461,340.506L569.581,341.01C569.333,341.124 568.909,341.258 568.294,341.258C567.103,341.258 566.391,340.467 566.391,339.299C566.391,338.133 567.078,337.213 568.206,337.213C569.469,337.213 569.805,338.325 569.805,339.036C569.805,339.18 569.789,339.291 569.781,339.364L567.063,339.364ZM569.125,338.86C569.133,338.413 568.941,337.717 568.149,337.717C567.439,337.717 567.126,338.372 567.07,338.86L569.125,338.86Z" style="fill:rgb(79,91,13);fill-rule:nonzero;"/>
        <path d="M570.68,338.508C570.68,338.053 570.671,337.661 570.647,337.301L571.263,337.301L571.287,338.061L571.319,338.061C571.495,337.541 571.919,337.213 572.391,337.213C572.471,337.213 572.526,337.221 572.591,337.237L572.591,337.901C572.519,337.885 572.446,337.877 572.351,337.877C571.855,337.877 571.503,338.252 571.407,338.78C571.391,338.875 571.375,338.989 571.375,339.108L571.375,341.17L570.68,341.17L570.68,338.508Z" style="fill:rgb(79,91,13);fill-rule:nonzero;"/>
        <path d="M573.607,339.364C573.623,340.315 574.231,340.707 574.935,340.707C575.439,340.707 575.742,340.62 576.006,340.506L576.126,341.01C575.878,341.124 575.454,341.258 574.839,341.258C573.647,341.258 572.936,340.467 572.936,339.299C572.936,338.133 573.623,337.213 574.751,337.213C576.014,337.213 576.35,338.325 576.35,339.036C576.35,339.18 576.334,339.291 576.326,339.364L573.607,339.364ZM575.67,338.86C575.678,338.413 575.486,337.717 574.694,337.717C573.983,337.717 573.671,338.372 573.615,338.86L575.67,338.86Z" style="fill:rgb(79,91,13);fill-rule:nonzero;"/>
        <path d="M541.856,259.446L553.707,249.394L550.951,249.394L535.143,262.803L555.922,262.803L556.063,262.693L559.887,259.446L541.856,259.446Z" style="fill:rgb(79,91,13);fill-rule:nonzero;"/>
        <path d="M557.732,251.262L559.936,249.394L558.17,249.394L553.436,253.412L566.996,253.412L569.525,251.262L557.732,251.262Z" style="fill:rgb(79,91,13);fill-rule:nonzero;"/>
        <path d="M550.283,255.094L557.004,249.394L554.801,249.394L544.912,257.779L561.85,257.779L565.014,255.094L550.283,255.094Z" style="fill:rgb(79,91,13);fill-rule:nonzero;"/>
        <path d="M487.921,371.335C487.675,371.165 487.485,370.982 487.347,370.783C487.101,370.433 487.011,370.048 487.019,369.646C486.628,369.945 486.23,370.236 485.825,370.505C485.946,370.953 486.194,371.333 486.567,371.673C486.677,371.655 486.79,371.647 486.9,371.63C487.231,371.526 487.598,371.443 488.002,371.384C487.975,371.369 487.948,371.353 487.921,371.335Z" style="fill:rgb(104,114,47);fill-rule:nonzero;"/>
        <path d="M492.849,363.236C492.097,364.039 491.491,365.019 491.118,366.052C490.823,366.869 490.665,367.669 490.167,368.404C493.888,364.296 498.642,362.152 504.239,362.412C501.855,362.978 500.138,365.082 498.321,366.589C496.308,368.255 494.122,369.326 491.622,370.074C493.673,369.664 495.939,370.058 498.022,370.04C500.142,370.023 502.105,369.749 504.12,369.115C503.282,370.201 502.409,371.302 501.21,372.011C500.542,372.408 499.745,372.717 498.93,372.944C499.313,373.123 499.689,373.318 500.059,373.522C500.818,373.287 501.562,373.008 502.272,372.665C505.026,371.343 506.808,369.33 508.837,367.138C509.503,366.419 510.214,365.726 510.817,364.951C509.019,365.693 506.985,366.179 504.612,366.134C506.325,361.367 510.606,359.357 515.653,357.652C510.921,357.335 506.608,359.324 502.183,360.851C502.696,359.648 503.147,358.083 504.011,357.095C500.589,357.658 497.314,358.119 494.417,359.365C494.267,359.873 494.087,360.374 493.882,360.871C495.325,360.273 496.899,359.884 498.513,359.63C496.534,360.761 494.442,361.531 492.849,363.236Z" style="fill:rgb(104,114,47);fill-rule:nonzero;"/>
        <path d="M476.845,349.037C477.288,349.581 477.7,350.148 478.091,350.73C478.178,350.471 478.264,350.214 478.36,349.957C478.366,350.356 478.361,350.754 478.355,351.149C478.457,351.309 478.561,351.468 478.659,351.631C479.757,353.085 480.649,354.728 481.317,356.556C481.202,352.857 482.151,349.242 484.259,345.822C483.521,348.484 484.683,351.328 485.19,353.947C485.753,356.841 485.63,359.582 485.009,362.457C485.722,360.208 487.351,358.189 488.47,356.123C489.614,354.023 490.411,351.935 490.876,349.599C491.503,351.021 492.12,352.478 492.177,354.054C492.237,355.812 491.728,357.886 490.939,359.451C490.179,360.962 489.024,362.249 487.888,363.494C487.261,364.177 486.603,364.955 485.874,365.626C485.37,366.089 484.835,366.503 484.249,366.8C483.944,366.949 483.655,367.035 483.384,367.064C483.23,367.083 483.083,367.076 482.94,367.06C482.911,367.54 482.87,368.017 482.814,368.49C483.995,368.519 485.235,367.728 486.772,366.376C487.384,365.835 488.042,365.208 488.767,364.503C491.538,361.455 493.185,357.429 493.409,353.359C493.595,349.919 492.558,347.064 491.481,343.867C491.128,342.818 490.823,341.736 490.38,340.714C490.136,342.894 489.513,345.169 488.177,347.488C485.942,343.447 485.144,341.999 486.196,336.089C483.3,340.583 482.476,341.796 481.583,346.999C480.659,345.833 479.347,344.535 478.831,343.142C478.118,345.154 477.407,347.103 476.845,349.037Z" style="fill:rgb(104,114,47);fill-rule:nonzero;"/>
        <path d="M478.091,350.73C477.7,350.148 477.288,349.581 476.845,349.037C476.023,348.03 475.12,347.092 474.14,346.246C470.901,343.447 467.306,342.283 463.343,340.894C462.042,340.443 460.749,339.914 459.411,339.568C461.368,341.466 463.132,343.8 464.388,346.865C459.678,346.388 457.565,345.291 453.946,342.072C456.157,348.314 456.545,350.05 458.893,352.912C457.045,352.923 454.772,353.212 453.01,352.654C453.92,354.062 454.803,355.455 455.704,356.8C458.469,356.15 461.18,356.044 463.827,356.451C462.144,354.425 460.782,352.078 459.77,349.41C461.827,352.158 465.505,353.187 468.468,354.689C471.739,356.341 474.341,358.548 476.696,361.335C475.022,358.931 474.28,355.814 473.103,353.148C471.907,350.443 470.458,348.074 468.521,345.845C470.396,346.318 472.296,346.828 473.888,347.97C475.661,349.249 477.31,351.324 478.249,353.279C479.155,355.171 479.546,357.271 479.899,359.324C480.122,360.591 480.423,361.988 480.493,363.347C480.53,364.039 480.511,364.726 480.38,365.38C480.337,365.597 480.278,365.792 480.204,365.972C480.618,366.431 481.009,366.902 481.388,367.378C481.872,366.374 481.993,365.003 481.921,363.255C481.87,362.085 481.737,360.749 481.562,359.238C481.087,356.548 480.074,353.965 478.659,351.631C478.561,351.468 478.457,351.309 478.355,351.149C478.266,351.01 478.183,350.867 478.091,350.73Z" style="fill:rgb(104,114,47);fill-rule:nonzero;"/>
        <path d="M452.579,377.464C454.418,375.228 456.575,373.476 459.02,372.189C456.891,371.683 454.788,370.884 452.721,369.755C456.086,370.507 459.557,368.904 462.792,368.123C466.364,367.257 469.786,367.248 473.405,367.839C470.56,367.093 467.946,365.208 465.306,363.945C462.622,362.666 459.973,361.804 457.034,361.369C458.768,360.513 460.549,359.664 462.507,359.501C464.694,359.32 467.308,359.828 469.304,360.707C471.233,361.556 472.905,362.9 474.522,364.224C474.981,364.601 475.47,364.992 475.958,365.394C477.073,366.312 478.175,367.316 478.855,368.519C479.064,368.888 479.189,369.232 479.241,369.57C479.274,369.781 479.276,369.984 479.257,370.183C479.853,370.326 480.442,370.482 481.024,370.66C481.272,368.796 479.778,366.937 477.196,364.462C476.741,364.021 476.251,363.568 475.728,363.083C471.769,359.847 466.655,358.056 461.567,358.023C457.272,357.998 453.774,359.449 449.856,360.966C448.569,361.462 447.241,361.902 445.997,362.509C448.727,362.679 451.6,363.314 454.563,364.828C451.534,367.759 447.973,368.927 444.032,369.197C442.809,369.255 441.376,369.468 440.858,370.134C442.413,371.165 444.212,371.742 445.353,371.939C448.315,372.398 451.346,372.623 454.346,372.984C452.952,374.195 451.415,375.888 449.71,376.605C450.676,376.894 451.631,377.183 452.579,377.464Z" style="fill:rgb(104,114,47);fill-rule:nonzero;"/>
        <path d="M492.774,371.269C491.526,371.23 490.423,371.214 489.462,371.253C488.929,371.276 488.447,371.32 488.002,371.384C487.598,371.443 487.231,371.526 486.9,371.63C485.947,371.93 485.285,372.433 484.937,373.271C485.339,373.628 485.733,373.996 486.116,374.386C486.247,373.855 486.495,373.392 486.954,373.056C487.179,372.89 487.456,372.755 487.788,372.66C488.294,372.515 488.833,372.451 489.378,372.429C490.532,372.38 491.733,372.537 492.819,372.63C494.538,372.779 496.298,372.949 497.921,373.56C499.601,374.193 501.429,375.392 502.605,376.755C503.659,377.972 504.214,379.492 504.731,380.99C502.759,379.56 500.704,378.542 498.388,377.753C496.108,376.978 493.481,376.585 491.382,375.388C493.849,377.117 495.847,379.089 497.442,381.648C498.884,383.962 499.993,386.894 502.399,388.386C496.167,386.632 491.741,382.55 489.169,376.691C489.349,377.33 489.362,377.941 489.355,378.568C489.419,378.673 489.485,378.773 489.548,378.882C491.306,381.591 492.454,384.335 492.944,387.093C493.655,387.839 494.394,388.564 495.099,389.349C494.417,388.996 493.749,388.619 493.106,388.218C493.179,388.882 493.214,389.544 493.21,390.208C495.353,391.634 497.745,392.841 500.194,394.132C499.61,392.732 499.692,390.857 499.571,389.345C502.515,393.148 503.897,394.708 509.202,396.08C505.897,392.185 504.304,390.289 504.177,384.437C506.796,385.249 508.847,386.529 510.544,387.994C510.169,386.927 509.644,385.906 509.179,384.874C507.759,381.734 506.548,378.876 504.013,376.427C502.838,375.291 501.5,374.317 500.059,373.522C499.689,373.318 499.313,373.123 498.93,372.944C496.995,372.04 494.906,371.457 492.774,371.269Z" style="fill:rgb(104,114,47);fill-rule:nonzero;"/>
        <path d="M476.88,400.941C476.884,401.543 476.922,402.442 476.981,403.48L483.388,403.48C483.939,402.773 484.515,402.154 485.11,401.671C485.342,402.283 485.529,402.883 485.696,403.48L490.179,403.48C491.425,400.973 492.431,398.462 492.759,395.486C493.314,390.419 492.103,385.121 489.306,380.81C488.489,379.699 487.743,378.71 487.042,377.871C485.341,375.824 483.899,374.642 482.321,374.66C482.269,375.259 482.181,375.874 482.06,376.507C482.427,376.445 482.804,376.457 483.19,376.562C483.521,376.654 483.856,376.818 484.2,377.066C484.821,377.513 485.366,378.082 485.864,378.703C486.675,379.712 487.353,380.863 488.017,381.878C489.165,383.636 490.325,385.457 490.956,387.476C491.606,389.564 491.815,392.222 491.38,394.378C490.993,396.308 489.935,397.984 488.872,399.611C488.776,396.638 488.214,393.9 487.235,391.082C486.272,388.308 484.677,385.49 484.259,382.57C484.435,386.24 484.03,389.646 482.745,393.103C481.587,396.228 479.575,399.501 479.94,402.933C476.95,395.628 477.579,388.308 481.325,381.425C481.013,381.851 480.655,382.197 480.276,382.515C478.7,386.583 476.755,389.29 474.353,391.32C473.997,393.064 473.841,394.851 473.511,396.646C473.245,395.22 473.056,393.785 472.981,392.369C472.401,392.777 471.796,393.16 471.165,393.513C471.212,396.746 471.79,400.053 472.406,403.48L474.024,403.48C474.93,402.567 476.006,401.735 476.88,400.941Z" style="fill:rgb(104,114,47);fill-rule:nonzero;"/>
        <path d="M479.556,382.97C479.915,382.066 480.222,381.236 480.485,380.458C483.337,372.068 480.565,370.874 472.993,370.273C472.503,370.236 471.999,370.201 471.47,370.165C465.98,370.117 460.501,372.046 456.241,375.431C452.639,378.287 450.702,381.837 448.461,385.73C447.725,387.007 447.842,387.294 447.215,388.632C449.606,386.945 451.502,386.521 454.999,385.794C454.09,393.367 448.768,397.197 441.936,401.38C448.987,400.273 454.36,396.46 460.344,392.744C460.001,394.687 459.86,397.13 458.926,398.871C467.642,395.324 475.78,392.437 479.556,382.97ZM456.799,391.144C460.116,389.511 461.927,385.849 464.095,383.033C466.487,379.919 469.335,377.615 472.751,375.683C469.876,376.968 466.419,377.144 463.364,377.863C460.26,378.595 457.463,379.652 454.721,381.255C455.585,379.38 456.501,377.482 458.022,376.037C459.723,374.417 462.247,373.089 464.507,372.484C466.689,371.898 468.993,371.9 471.241,371.923C471.776,371.929 472.333,371.927 472.901,371.929C474.554,371.939 476.284,372.017 477.759,372.599C478.181,372.767 478.521,372.972 478.79,373.218C480.489,374.742 479.515,377.601 479.189,379.724C479.167,379.859 479.136,379.984 479.112,380.115C477.868,387.003 472.364,390.835 466.147,393.316C468.675,390.996 471.487,389.171 473.253,386.134C474.087,384.705 474.647,383.062 474.847,381.421C475.001,380.169 474.976,378.988 475.407,377.794C475.401,377.785 475.394,377.779 475.386,377.773C471.302,384.974 465.065,389.664 456.799,391.144Z" style="fill:rgb(104,114,47);fill-rule:nonzero;"/>
        <path d="M368.469,374.466C373.075,369.761 378.998,365.874 386.382,364.337C393.639,362.726 402.757,364.345 409.272,370.679C400.839,364.878 391.932,365.287 385.489,367.339C378.891,369.462 373.98,373.025 369.906,377.033C365.856,381.083 362.511,385.798 360.175,391.796C358.866,395.182 357.848,399.108 357.691,403.48L358.977,403.48C359.694,398.651 361.518,392.857 365.696,387.617C369.949,381.798 376.179,376.998 382.244,374.605C388.349,372.13 393.824,372.136 397.414,372.781C402.348,373.165 409.728,377.082 414.29,382.876C418.09,388.805 418.332,398.579 414.526,403.48L414.949,403.48C422.326,399.577 427.626,385.64 419.95,373.468C415.468,366.066 408.726,361.095 401.75,359.167C394.753,357.285 387.972,358.054 382.097,360.476C379.757,361.519 377.422,362.781 375.154,364.296C375.05,364.442 374.95,364.594 374.845,364.736C370.614,370.896 365.563,374.433 365.401,374.531C366.898,372.615 368.101,370.85 369.095,369.183C363.014,375.079 358.001,383.472 355.625,395.398C355.654,395.393 354.984,399.234 355.272,403.48L356.352,403.48C356.32,391.526 361.686,381.764 368.469,374.466Z" style="fill:rgb(104,114,47);fill-rule:nonzero;"/>
        <path d="M449.677,291.803C450.069,291.197 450.522,290.63 451.016,290.191C451.901,289.396 453.018,288.966 454.12,288.56C453.092,290.033 452.372,291.554 451.825,293.267C451.288,294.955 451.04,296.886 450.186,298.449C451.428,296.611 452.858,295.111 454.727,293.9C456.42,292.802 458.575,291.943 459.639,290.152C458.442,294.755 455.487,298.066 451.188,300.05C451.915,299.83 452.608,299.904 453.354,299.869C454.293,299.828 455.247,299.583 456.094,299.175C457.895,298.316 459.051,296.812 460.473,295.494C459.86,296.738 459.145,297.915 458.292,298.935C458.751,298.894 459.206,298.874 459.659,298.88C461.411,296.845 462.612,294.306 463.935,291.675C462.909,292.128 461.514,292.099 460.399,292.21C462.763,289.009 465.48,286.015 466.413,282.101C463.747,285.759 461.02,288.724 456.684,288.914C457.243,286.978 458.157,285.453 459.217,284.181C458.43,284.476 457.684,284.878 456.924,285.236C454.622,286.328 452.524,287.263 450.749,289.164C450.288,289.656 449.872,290.185 449.488,290.743C449.562,291.094 449.627,291.447 449.677,291.803Z" style="fill:rgb(104,114,47);fill-rule:nonzero;"/>
        <path d="M447.604,302.142C447.79,302.531 448.038,302.828 448.376,303.039C448.696,302.779 449.036,302.531 449.379,302.289C449.047,302.193 448.754,302.023 448.53,301.734C448.403,301.57 448.299,301.373 448.223,301.13C448.215,301.103 448.209,301.077 448.203,301.05C448.052,301.363 447.893,301.639 447.724,301.882C447.682,301.967 447.647,302.058 447.604,302.142Z" style="fill:rgb(104,114,47);fill-rule:nonzero;"/>
        <path d="M454.03,302.167C453.27,302.574 452.59,302.951 451.991,303.312C450.499,304.214 449.538,305.021 449.266,305.984C449.667,306.058 450.067,306.146 450.467,306.242C450.491,306.123 450.524,306.003 450.575,305.884C450.668,305.671 450.813,305.458 451.012,305.249C451.401,304.849 451.874,304.519 452.379,304.228C453.114,303.804 453.917,303.466 454.633,303.13C455.94,302.523 457.282,301.914 458.715,301.679C460.194,301.435 462.021,301.542 463.444,302.033C464.72,302.478 465.761,303.343 466.765,304.21C464.735,303.998 462.825,304.121 460.817,304.515C458.844,304.906 456.778,305.716 454.756,305.724C457.268,305.947 459.543,306.539 461.772,307.724C463.79,308.796 465.823,310.453 468.19,310.525C464.858,311.371 461.659,311.23 458.661,310.205C459.994,311.211 461.116,312.35 462.035,313.614C462.633,314.282 463.191,314.982 463.69,315.722C465.415,315.756 467.19,315.668 469.019,315.597C468.007,314.83 467.276,313.439 466.554,312.396C471.036,312.986 475.505,314.031 479.915,312.814C474.812,312.179 470.368,311.107 467.814,306.931C470.048,306.429 472.067,306.498 473.915,306.849C473.19,306.234 472.38,305.716 471.612,305.164C469.265,303.484 467.187,301.925 464.323,301.21C460.934,300.365 457.221,300.687 454.03,302.167Z" style="fill:rgb(104,114,47);fill-rule:nonzero;"/>
        <path d="M456.526,309.331C455.333,308.808 454.272,308.363 453.327,308.027C451.913,307.531 450.762,307.285 449.815,307.423C450.112,307.849 450.399,308.283 450.67,308.734C450.836,308.722 451.012,308.724 451.2,308.742C451.766,308.8 452.335,308.956 452.893,309.162C453.989,309.562 455.055,310.156 456.038,310.656C457.629,311.462 459.251,312.306 460.571,313.517C461.937,314.771 463.222,316.63 463.817,318.39C464.355,319.966 464.292,321.634 464.208,323.275C462.872,321.142 461.297,319.371 459.381,317.72C457.497,316.095 455.129,314.705 453.581,312.748C455.27,315.357 456.424,318.021 456.952,321.089C457.436,323.869 457.354,327.109 459.085,329.468C457.153,327.978 455.577,326.279 454.338,324.406C454.006,326.654 453.239,328.826 452.008,330.9C452.883,331.968 453.799,333.037 454.725,334.126C454.827,332.888 455.522,330.79 455.997,329.294C457.999,333.83 460.008,336.498 464.064,339.892C461.502,333.314 461.352,330.794 462.331,326.367C464.522,328.156 465.993,330.173 467.052,332.236C467.105,331.068 466.999,329.886 466.956,328.716C466.819,325.156 466.771,321.947 465.296,318.619C464.849,317.611 464.309,316.642 463.69,315.722C463.191,314.982 462.633,314.282 462.035,313.614C460.478,311.873 458.615,310.397 456.526,309.331Z" style="fill:rgb(104,114,47);fill-rule:nonzero;"/>
        <path d="M447.126,334.591C449.354,331.798 451.422,329.328 452.483,325.841C453.739,321.71 453.559,317.115 451.907,313.091C451.643,312.546 451.393,312.035 451.149,311.552C449.77,308.837 448.626,307.158 447.04,306.888C447.038,307.406 447.016,307.923 446.983,308.443C447.151,308.478 447.317,308.531 447.481,308.609C447.743,308.74 447.997,308.925 448.243,309.185C449.057,310.04 449.604,311.187 450.075,312.322C450.282,312.82 450.475,313.314 450.67,313.781C451.346,315.423 452.024,317.119 452.235,318.896C452.452,320.734 452.21,322.98 451.51,324.708C450.885,326.251 449.743,327.484 448.604,328.671C448.987,326.179 448.952,323.816 448.577,321.32C448.208,318.861 447.321,316.269 447.43,313.775C447.001,316.857 446.129,319.628 444.522,322.306C443.068,324.73 440.882,327.138 440.651,330.056C440.248,328.097 440.12,326.189 440.245,324.339C438.571,325.994 436.597,327.302 434.302,328.228C434.294,329.068 434.291,329.915 434.284,330.771C435.3,329.57 437.075,328.751 438.415,327.923C437.416,333.415 435.847,338.867 437.103,344.376C438.196,338.119 439.794,332.705 445.15,329.802C445.644,332.587 445.438,335.076 444.89,337.33C445.698,336.474 446.393,335.509 447.126,334.591Z" style="fill:rgb(104,114,47);fill-rule:nonzero;"/>
        <path d="M448.106,286.806C446.739,284.134 444.704,282.433 442.493,280.492C441.765,279.857 441.06,279.173 440.28,278.599C441.054,280.345 441.58,282.33 441.589,284.656C436.831,283.08 434.745,278.925 432.947,274.017C432.736,278.662 434.802,282.847 436.411,287.152C435.202,286.673 433.649,286.267 432.648,285.441C433.088,287.751 433.474,289.994 434.102,292.089C434.646,292.255 435.181,292.451 435.704,292.675C435.54,292.052 435.399,291.419 435.282,290.775C435.747,291.542 436.154,292.326 436.586,293.089C438.722,294.181 440.678,295.802 442.454,297.912C442.526,297.99 442.591,298.068 442.663,298.148C443.177,298.298 443.677,298.464 444.151,298.771C440.001,295.21 437.774,290.595 437.909,285.099C438.522,287.429 440.647,289.066 442.177,290.816C443.868,292.751 444.981,294.871 445.776,297.304C445.323,295.302 445.663,293.074 445.603,291.031C445.54,288.953 445.224,287.033 444.55,285.074C445.647,285.871 446.752,286.703 447.485,287.863C448.303,289.162 448.827,290.945 448.918,292.464C449.01,293.935 448.708,295.406 448.397,296.833C448.2,297.738 448.024,298.749 447.694,299.675C447.538,300.111 447.35,300.529 447.104,300.904C446.942,301.15 446.762,301.339 446.569,301.48C446.18,301.765 445.737,301.851 445.272,301.824C445.495,302.232 445.694,302.646 445.885,303.062C446.659,302.99 447.238,302.58 447.724,301.882C447.893,301.639 448.052,301.363 448.203,301.05C448.367,300.706 448.524,300.328 448.676,299.902C448.954,299.134 449.217,298.236 449.499,297.21C449.88,295.437 449.93,293.598 449.677,291.803C449.627,291.447 449.562,291.094 449.488,290.743C449.2,289.374 448.74,288.044 448.106,286.806Z" style="fill:rgb(104,114,47);fill-rule:nonzero;"/>
        <path d="M425.843,309.124C426.29,308.701 426.759,308.306 427.237,307.939C426.097,307.523 424.971,307.009 423.868,306.433C425.42,306.619 426.924,306.941 428.443,307.093C430.708,305.66 433.415,304.763 437.142,304.509C437.5,304.285 437.874,304.08 438.3,303.935C431.72,305.238 425.571,303.902 420.343,299.638C423.06,300.8 426.245,299.994 429.097,299.841C432.252,299.673 435.138,300.201 438.101,301.269C435.817,300.195 433.91,298.191 431.882,296.71C429.821,295.208 427.722,294.064 425.313,293.238C426.913,292.787 428.548,292.351 430.226,292.523C432.104,292.712 434.227,293.552 435.772,294.607C437.268,295.626 438.464,297.023 439.616,298.396C440.279,299.189 441.05,300.033 441.672,300.939C442.054,301.501 442.382,302.087 442.593,302.699C442.71,303.04 442.759,303.359 442.751,303.648C442.742,303.988 442.655,304.296 442.511,304.578C443.062,304.64 443.587,304.724 444.091,304.831C444.501,303.556 443.897,302.089 442.651,300.195C442.14,299.415 441.517,298.562 440.815,297.621C437.989,294.269 433.956,291.953 429.669,291.126C426.049,290.429 422.866,291.103 419.318,291.769C418.151,291.986 416.961,292.15 415.815,292.468C418.093,293.039 420.417,294.025 422.678,295.765C417.567,299.152 413.098,298.681 407.124,297.71C411.756,300.499 415.048,302.441 421.202,302.619C419.831,303.419 418.263,304.609 416.708,304.945C419.823,306.539 422.784,308.134 425.843,309.124Z" style="fill:rgb(104,114,47);fill-rule:nonzero;"/>
        <path d="M422.778,330.267C424.032,330.099 425.269,329.759 426.497,329.484C430.251,328.65 433.645,327.972 436.888,325.773C440.732,323.171 443.692,319.218 445.04,314.757C445.144,314.32 445.24,313.902 445.331,313.496C446.747,307.21 446.467,304.66 438.882,304.857C438.179,304.876 437.419,304.915 436.587,304.98C427.886,305.654 423.474,311.525 418.374,317.693C420.035,317.374 422.069,317.878 423.749,318.087C419.198,321.999 417.791,324.277 416.634,327.792C421.78,323.31 424.192,323.851 428.092,324.169C426.616,326.818 424.763,328.755 422.778,330.267ZM424.167,321.361C427.46,315.039 432.87,311.164 439.794,309.667C439.792,309.66 439.788,309.652 439.782,309.644C438.698,309.695 437.733,309.376 436.67,309.183C435.275,308.935 433.792,308.972 432.409,309.289C429.481,309.956 427.275,311.777 424.741,313.24C428.337,308.826 432.862,305.331 438.817,306.058C438.93,306.074 439.038,306.078 439.154,306.095C440.976,306.365 443.562,306.294 444.382,308.054C444.513,308.335 444.597,308.664 444.628,309.046C444.732,310.39 444.36,311.812 443.954,313.152C443.814,313.615 443.671,314.064 443.538,314.501C442.993,316.328 442.413,318.195 441.382,319.818C440.321,321.494 438.598,323.206 436.844,324.179C435.277,325.048 433.491,325.308 431.737,325.537C433.743,323.718 435.312,321.72 436.692,319.388C438.05,317.093 439.064,314.335 440.841,312.33C438.399,314.611 435.798,316.339 432.644,317.498C429.79,318.54 426.337,319.087 424.167,321.361Z" style="fill:rgb(104,114,47);fill-rule:nonzero;"/>
        <path d="M382.532,241.238C383.175,241.513 383.8,241.609 384.438,241.505C384.548,240.845 384.692,240.179 384.855,239.513C384.341,239.753 383.803,239.861 383.216,239.749C382.886,239.685 382.544,239.554 382.189,239.341C382.15,239.317 382.114,239.291 382.078,239.266C382.232,239.805 382.337,240.31 382.394,240.785C382.436,240.935 382.493,241.085 382.532,241.238Z" style="fill:rgb(104,114,47);fill-rule:nonzero;"/>
        <path d="M413.323,239.851C412.99,239.802 412.656,239.761 412.322,239.724C408.606,239.302 404.811,239.525 401.18,240.447C399.159,241.087 397.388,241.679 395.871,242.283C393.613,243.189 391.94,244.124 390.939,245.306C391.76,245.509 392.581,245.73 393.399,245.99C393.589,245.796 393.802,245.611 394.054,245.431C394.811,244.894 395.669,244.478 396.569,244.128C398.34,243.443 400.28,243.025 402.021,242.583C404.831,241.861 407.717,241.154 410.639,241.214C413.657,241.281 417.237,242.169 419.868,243.677C422.228,245.023 423.957,247.126 425.628,249.214C421.692,248.044 417.857,247.574 413.737,247.613C409.683,247.65 405.294,248.492 401.291,247.761C406.173,249.134 410.459,251.148 414.423,254.318C418.018,257.187 421.425,261.226 426.087,262.248C422.12,262.499 418.362,262.119 414.827,261.162C416.853,264.259 418.267,267.726 419.013,271.572C421.234,271.935 423.509,272.255 425.819,272.595C424.104,270.697 423.177,267.675 422.138,265.345C430.794,268.173 439.252,271.9 448.438,271.126C438.57,267.978 430.175,264.208 426.689,254.992C431.294,254.824 435.267,255.712 438.792,257.091C437.591,255.607 436.187,254.279 434.868,252.902C430.849,248.708 427.314,244.851 421.917,242.374C420.283,241.624 418.579,241.02 416.832,240.562C415.89,240.314 414.936,240.114 413.974,239.954C413.757,239.917 413.54,239.882 413.323,239.851Z" style="fill:rgb(104,114,47);fill-rule:nonzero;"/>
        <path d="M408.032,293.683C409.346,294.779 410.909,295.949 412.901,297.376C411.719,295.496 410.718,293.486 409.989,291.335L408.032,293.683Z" style="fill:rgb(104,114,47);fill-rule:nonzero;"/>
        <path d="M417.291,287.033C417.356,285.123 417.157,283.201 417.058,281.298C416.748,275.507 416.597,270.283 414.116,264.894C411.18,258.517 405.989,253.109 399.62,249.976C398.71,249.593 397.853,249.236 397.03,248.912C392.417,247.078 389.2,246.255 386.977,247.628C387.533,248.259 388.068,248.914 388.591,249.583C388.832,249.447 389.091,249.33 389.378,249.253C389.837,249.13 390.345,249.087 390.929,249.136C392.847,249.308 394.753,250.121 396.555,251.001C397.347,251.384 398.118,251.779 398.855,252.14C401.464,253.417 404.124,254.755 406.301,256.697C408.554,258.71 410.689,261.703 411.708,264.558C412.614,267.111 412.555,269.833 412.453,272.499C410.225,269.056 407.621,266.214 404.466,263.57C401.357,260.968 397.471,258.759 394.904,255.605C397.718,259.82 399.653,264.128 400.592,269.115C401.442,273.624 401.382,278.904 404.257,282.708C401.647,280.751 399.425,278.562 397.576,276.173C397.329,279.982 396.336,283.691 394.544,287.277C395.44,288.308 396.354,289.347 397.269,290.4C397.211,287.845 398.487,284.947 399.226,282.501C401.914,286.919 403.546,289.386 405.829,291.681L409.339,289.058C408.524,285.58 408.45,281.765 409.468,277.581C413.079,280.445 415.521,283.699 417.291,287.033Z" style="fill:rgb(104,114,47);fill-rule:nonzero;"/>
        <path d="M395.039,281.517C396.909,274.23 396.24,266.24 393.055,259.363C392.706,258.718 392.372,258.103 392.044,257.507C386.968,248.331 383.868,245.523 374.836,253.892C373.998,254.665 373.118,255.529 372.173,256.496C362.298,266.636 363.271,278.517 363.731,291.498C365.409,289.331 368.436,287.763 370.706,286.224C369.396,295.863 369.245,297.814 371.856,307.314C372.952,299.554 373.477,294.443 382.581,288.982C383.651,293.79 383.486,298.14 382.702,302.105C384.049,300.556 385.188,298.822 386.39,297.167C390.06,292.13 393.466,287.671 395.039,281.517ZM380.907,275.976C378.561,280.304 374.942,284.669 374.76,289.765C371.933,278.529 374.333,268.015 381.153,258.775C381.144,258.769 381.131,258.763 381.114,258.759C379.846,259.984 378.328,260.626 376.823,261.533C374.853,262.722 373.085,264.359 371.745,266.222C368.896,270.173 368.179,274.751 366.674,279.249C366.281,270.019 368.015,260.914 376.056,255.425C376.21,255.322 376.349,255.21 376.507,255.109C379.019,253.484 382.097,250.628 385,251.898C385.462,252.099 385.92,252.41 386.376,252.841C387.952,254.367 389.038,256.499 389.993,258.566C390.319,259.283 390.636,259.984 390.944,260.656C392.259,263.466 393.571,266.363 394.073,269.445C394.592,272.626 394.345,276.558 393.261,279.621C392.288,282.359 390.394,284.589 388.505,286.744C388.982,282.382 388.73,278.267 387.89,273.945C387.061,269.697 385.314,265.248 385.31,260.898C384.802,266.294 383.503,271.189 380.907,275.976Z" style="fill:rgb(104,114,47);fill-rule:nonzero;"/>
        <path d="M443.692,346.083C440.175,349.929 439.126,352.964 438.348,355.749C437.735,358.597 437.487,361.503 438.599,366.058C438.62,365.96 438.358,362.302 439.483,358.734C440.503,355.093 443.11,352.171 444.405,350.4C446.026,347.849 449.21,342.99 452.874,341.408C449.891,340.628 446.624,341.05 443.638,342.501C436.166,346.523 434.386,351.522 436.25,361.496C436.793,362.709 437.304,363.979 437.773,365.299C436.003,357.697 435.745,351.2 443.692,346.083Z" style="fill:rgb(104,114,47);fill-rule:nonzero;"/>
        <path d="M432.983,345.24C432.231,342.957 430.483,339.421 430.683,336.833C429.605,338.285 429.149,340.376 429.151,342.482C429.237,348.058 430.779,349.166 433.546,355.041C433.569,355.033 434.824,357.884 434.856,357.988C433.4,352.285 431.157,350.111 430.821,343.734C432.817,350.464 433.554,351.724 435.159,357.898C435.254,357.718 434.03,348.462 432.983,345.24Z" style="fill:rgb(104,114,47);fill-rule:nonzero;"/>
        <path d="M398.439,388.095C393.21,383.9 386.216,382.484 379.212,384.089C372.11,385.789 366.239,391.263 363.311,397.833C362.431,399.481 361.777,401.425 361.315,403.48L365.513,403.48C365.586,403.294 365.647,403.089 365.726,402.914C367.106,399.708 368.769,398.042 369.265,397.519C369.343,397.384 369.394,397.32 369.406,397.332C369.427,397.343 369.372,397.402 369.265,397.519C368.897,398.141 367.92,400.315 367.307,403.48L371.789,403.48C373.548,399.196 376.752,395.927 380.549,394.623C392.923,390.367 399.479,397.004 400.363,403.48L405.879,403.48C405.995,397.958 403.401,392.09 398.439,388.095Z" style="fill:rgb(104,114,47);fill-rule:nonzero;"/>
        <path d="M382.857,403.48L384.495,403.48C383.954,403.419 383.405,403.42 382.857,403.48Z" style="fill:rgb(104,114,47);fill-rule:nonzero;"/>
        <path d="M428.82,399.474C433.383,391.13 435.554,381.207 432.608,370.898C429.872,360.562 423.067,350.386 414.515,339.289C425.11,351.015 432.692,361.822 435.182,372.833C437.67,383.822 434.86,393.763 430.022,401.585C429.632,402.24 429.215,402.866 428.786,403.48L432.543,403.48C436.754,397.462 439.669,390.411 440.193,383.107C440.776,376.495 439.623,370.502 437.773,365.299C437.304,363.979 436.793,362.709 436.25,361.496C434.34,357.23 432.082,353.627 430.187,350.843C427.337,346.738 423.787,342.558 419.894,338.365C417.786,335.234 415.147,331.462 413.53,327.146C411.676,321.871 411.204,316.718 413.282,313.687C414.997,310.566 417.87,310.417 418.083,310.337C417.82,310.294 414.851,309.105 411.483,312.21C408.364,314.787 407.165,320.33 408.265,325.687C407.04,324.04 405.949,322.304 405.041,320.402C402.05,314.56 401.056,307.816 402.958,301.843C404.771,295.841 409.049,290.902 413.548,287.404C407.555,290.218 400.999,295.292 398.117,303.658C395.107,311.99 397.149,322.324 402.083,330.626C416.637,350.859 426.519,361.091 429.885,375.445C431.458,382.345 430.831,390.148 426.683,398.552C425.846,400.223 424.817,401.862 423.61,403.48L426.267,403.48C427.21,402.217 428.074,400.895 428.82,399.474Z" style="fill:rgb(104,114,47);fill-rule:nonzero;"/>
        <path d="M428.704,384.335C429.022,379.466 427.68,372.708 424.613,366.228C418.743,353.162 407.191,340.789 402.794,334.828C399.392,330.113 395.118,324.283 393.468,317.13C391.833,309.992 391.775,301.265 390.573,294.374C389.116,302.914 385.629,311.576 386.896,322.748C389.231,337.101 396.428,344.74 402.688,350.896C408.777,357.406 417.386,363.066 424.179,377.044C424.167,377.039 425.695,380.437 426.253,384.181C426.864,387.921 426.134,391.82 426.073,392.05C428.089,385.058 426.341,378.576 423.915,373.421C421.433,368.187 418.221,363.874 414.855,359.675C411.466,355.472 407.81,351.423 403.919,346.74C399.968,342.16 395.898,336.415 393.462,329.044C397.343,336.908 402.228,341.984 406.358,346.453C410.478,350.945 413.896,354.857 416.958,358.925C419.995,363.003 422.771,367.21 425.059,372.48C427.206,377.653 429.175,384.343 427.02,392.161C427.198,391.616 428.448,388.88 428.704,384.335Z" style="fill:rgb(104,114,47);fill-rule:nonzero;"/>
        <path d="M427.02,392.161C427.006,392.205 426.997,392.238 426.997,392.253C427.006,392.222 427.012,392.192 427.02,392.161Z" style="fill:rgb(104,114,47);fill-rule:nonzero;"/>
        <path d="M393.937,378.263C384.064,377.675 374.272,381.8 367.743,388.81C374.616,382.146 384.489,378.699 393.79,379.749C398.407,380.3 402.879,382.267 405.778,385.693C408.733,389.091 409.831,393.695 409.782,398.205C409.774,399.203 410.442,400.046 411.269,400.091C412.096,400.136 412.776,399.269 412.781,398.152C412.587,393.183 411.063,387.933 407.452,384.195C403.899,380.429 398.833,378.593 393.937,378.263Z" style="fill:rgb(104,114,47);fill-rule:nonzero;"/>
        <path d="M364.504,373.627C364.464,373.679 364.429,373.73 364.388,373.781C364.415,373.771 364.457,373.71 364.504,373.627Z" style="fill:rgb(104,114,47);fill-rule:nonzero;"/>
        <path d="M374.845,364.736C374.95,364.594 375.05,364.442 375.154,364.296C379.369,358.379 382.132,349.521 381.009,344.097C380.388,340.283 377.946,335.496 374.399,331.962C370.918,328.318 366.759,326.121 363.752,323.962C365.257,329.937 366.722,334.806 366.874,338.998C366.917,344.441 366.534,346.914 367.19,350.624C367.631,354.218 368.7,358.912 366.933,366.484C367.093,366.507 365.094,372.606 364.504,373.627C368.853,368.109 369.887,362.7 370.872,357.779C371.622,352.609 372.909,348.029 373.128,340.023C376.021,348.376 374.671,354.039 373.536,358.835C372.512,362.167 371.339,365.422 369.095,369.183C368.101,370.85 366.898,372.615 365.401,374.531C365.563,374.433 370.614,370.896 374.845,364.736Z" style="fill:rgb(104,114,47);fill-rule:nonzero;"/>
        <path d="M465.362,400.615C464.785,401.767 463.931,402.707 462.88,403.48L470.513,403.48C471.785,399.889 467.064,397.26 465.362,400.615Z" style="fill:rgb(104,114,47);fill-rule:nonzero;"/>
        <path d="M449.188,379.47C450.569,376.498 446.497,374.583 445.069,377.664C441.605,386.25 440.682,396.043 435.939,403.48L437.368,403.48C442.813,396.435 445.112,386.747 449.188,379.47Z" style="fill:rgb(104,114,47);fill-rule:nonzero;"/>
        <path d="M348.11,299.908C348.396,300.421 348.827,300.824 349.384,301.003C361.681,303.626 371.401,311.458 377.545,322.535C383.63,333.15 386.565,346.736 381.052,358.519C387.522,347.193 385.756,332.798 380.211,321.165C377.462,315.228 373.606,309.759 368.716,305.136C363.817,300.371 357.283,297.552 351.261,295.33C350.702,295.152 350.126,295.205 349.603,295.427C349.229,295.474 349.731,295.099 350.346,294.921C351.542,294.322 353.09,293.208 353.255,293.257C353.481,293.32 351.716,291.037 349.134,292.072C349.017,292.123 348.915,292.179 348.813,292.236C349.329,291.88 349.917,291.542 350.546,291.31C352.48,290.638 354.679,291.619 354.853,291.609C354.708,291.468 353.523,289.499 350.884,289.716C351.235,289.527 351.597,289.373 351.959,289.277C352.437,289.152 353.058,289.076 353.731,289.216C354.487,289.378 355.309,289.816 356.06,290.769C355.815,289.687 355.409,288.648 354.644,287.935C353.9,287.253 353.147,286.831 352.386,286.669C351.97,286.583 351.554,286.572 351.138,286.642C349.476,286.915 347.747,288.494 346.392,290.97C345.829,292.105 345.833,292.955 345.839,294.029C345.845,294.833 345.851,295.746 345.606,296.915C345.385,297.978 345.059,298.728 344.739,299.455C344.307,300.443 343.935,301.3 343.923,302.806C344.177,305.566 345.087,307.583 346.485,308.49C346.831,308.714 347.208,308.873 347.617,308.956C348.376,309.119 349.235,309.039 350.19,308.722C351.108,308.369 351.896,307.624 352.585,306.734C351.536,307.269 350.63,307.331 349.89,307.175C349.218,307.033 348.681,306.71 348.294,306.402C348.256,306.371 348.221,306.333 348.183,306.3C349.989,306.746 351.342,305.814 351.501,305.755C351.346,305.677 348.946,305.671 347.447,304.289C346.989,303.847 346.604,303.333 346.285,302.83C346.345,302.902 346.397,302.976 346.466,303.046C348.401,305.023 350.935,303.65 350.705,303.615C350.536,303.591 349.579,301.949 348.726,300.923C348.097,300.398 347.681,299.587 348.11,299.908Z" style="fill:rgb(104,114,47);fill-rule:nonzero;"/>
        <path d="M336.919,286.263C340.54,287.031 343.509,288.949 345.201,291.31C345.286,291.062 345.39,290.804 345.524,290.537C345.528,290.531 345.53,290.525 345.533,290.519C346.005,289.656 346.515,288.896 347.057,288.249C346.058,285.134 342.913,282.529 339.031,281.708C338.255,281.544 337.468,281.451 336.689,281.414L336.689,286.221C336.765,286.236 336.842,286.248 336.919,286.263Z" style="fill:rgb(104,114,47);fill-rule:nonzero;"/>
        <path d="M343.25,304.763C343.116,304.171 343.015,303.542 342.954,302.873C342.95,302.855 342.95,302.841 342.952,302.826C342.954,302.41 342.981,302.039 343.028,301.699C341.296,302.728 339.085,303.3 336.689,303.314L336.689,307.808C339.386,307.631 341.809,306.525 343.25,304.763Z" style="fill:rgb(104,114,47);fill-rule:nonzero;"/>
        <path d="M340.414,293.447C342.265,293.837 343.854,294.496 344.853,295.212C344.876,294.798 344.876,294.412 344.871,294.035C344.868,293.566 344.864,293.107 344.914,292.632C343.512,290.124 340.495,288.007 336.716,287.206C336.707,287.205 336.698,287.204 336.689,287.202L336.689,293.128C337.757,293.06 339.048,293.157 340.414,293.447Z" style="fill:rgb(104,114,47);fill-rule:nonzero;"/>
        <path d="M343.345,300.335C343.493,299.89 343.671,299.484 343.852,299.07C343.995,298.742 344.139,298.408 344.275,298.042C343.069,298.3 341.334,298.261 339.469,297.867C338.442,297.649 337.498,297.349 336.689,297.003L336.689,302.356C339.314,302.343 341.686,301.613 343.345,300.335Z" style="fill:rgb(104,114,47);fill-rule:nonzero;"/>
        <path d="M374.387,244.169C372.919,243.769 371.237,243.396 369.362,242.999C362.29,241.941 354.872,243.437 348.754,247.021C343.586,250.05 340.435,254.279 336.833,258.892C336.786,258.953 336.736,259.012 336.689,259.073L336.689,262.005C339.247,261.044 342.071,260.369 345.251,260.164C343.84,265.448 340.763,269.22 336.689,272.242L336.689,276.251C341.499,274.554 346.136,272.186 350.866,270.097C350.062,272.54 349.438,275.667 347.909,277.744C353.429,276.351 358.767,275.124 363.558,273.054C363.651,272.058 363.792,271.078 363.979,270.117C362.14,270.831 360.209,271.41 358.241,271.892C360.335,270.455 362.52,269.238 364.534,267.794C365.743,263.621 368.073,259.628 372.339,255.331C372.532,254.671 372.766,254.023 373.128,253.388C366.521,262.023 357.579,266.982 346.593,267.386C351.163,265.89 354.173,261.496 357.482,258.259C361.149,254.669 365.239,252.222 370.001,250.353C366.056,251.49 361.565,251.091 357.493,251.456C353.354,251.831 349.556,252.689 345.726,254.261C347.189,251.998 348.712,249.712 350.94,248.126C353.435,246.349 356.931,245.095 359.954,244.726C362.882,244.369 365.853,244.789 368.742,245.228C370.409,245.484 372.257,245.687 373.999,246.128C375.071,246.402 376.105,246.763 377.024,247.287C377.538,247.578 377.94,247.91 378.243,248.271C378.599,248.695 378.827,249.164 378.959,249.662C379.694,249.148 380.424,248.687 381.156,248.281C380.276,246.287 377.955,245.146 374.387,244.169Z" style="fill:rgb(104,114,47);fill-rule:nonzero;"/>
        <path d="M345.233,327.503C342.757,330.96 339.893,333.818 336.698,336.099C340.663,336.517 344.524,337.695 348.25,339.679C350.06,338.085 351.866,336.419 353.715,334.734C350.965,334.869 347.806,333.591 345.152,332.874C353.38,327.615 362.23,323.13 367.802,314.992C358.483,321.039 349.643,325.443 339.564,322.091C342.544,318.162 345.978,315.47 349.518,313.482C347.463,313.472 345.399,313.738 343.353,313.9C341.061,314.081 338.852,314.238 336.689,314.502L336.689,330.762C339.776,330.208 342.81,329.418 345.233,327.503Z" style="fill:rgb(104,114,47);fill-rule:nonzero;"/>
        <path d="M337.429,340.986C340.181,341.962 342.421,343.859 344.585,345.748C341.893,345.449 339.297,345.423 336.689,345.636L336.689,355.023C340.093,357.1 343.611,359.299 347.579,359.451C344.174,360.291 340.838,360.646 337.585,360.562C340.606,363.345 343.042,366.681 344.829,370.597C346.302,370.55 347.787,370.496 349.288,370.449C347.108,368.769 345.548,365.749 344.001,363.482C350.366,365.156 354.392,365.519 362.439,361.88C354.208,359.697 350.733,358.423 346.816,351.662C351.662,350.607 356.038,350.787 360.027,351.578C358.473,350.232 356.729,349.095 355.067,347.89C350.013,344.222 345.533,340.808 339.344,339.218C338.468,338.993 337.582,338.806 336.689,338.653L336.689,340.756C336.937,340.831 337.19,340.901 337.429,340.986Z" style="fill:rgb(104,114,47);fill-rule:nonzero;"/>
        <path d="M337.547,366.474C339.185,369.134 339.768,372.214 340.291,375.238C339.13,374.07 337.932,373 336.689,372.001L336.689,399.192C338.15,400.683 339.646,402.129 341.214,403.48L345.459,403.48C340.262,396.949 336.96,390.099 338.153,381.665C342.907,384.035 346.434,387.115 349.224,390.451C348.84,388.285 348.158,386.167 347.587,384.052C345.854,377.599 344.429,371.757 340.341,366.283C339.239,364.805 338.012,363.416 336.689,362.123L336.689,365.22C336.996,365.634 337.288,366.052 337.547,366.474Z" style="fill:rgb(104,114,47);fill-rule:nonzero;"/>
        <path d="M381.68,233.97C381.355,231.519 381.316,229.169 381.632,226.813L378.501,226.813C379.64,229.141 381.104,231.48 381.68,233.97Z" style="fill:rgb(104,114,47);fill-rule:nonzero;"/>
        <path d="M384.633,234.849C385.282,233.804 386.207,233.152 387.079,232.312C388.177,231.253 389.077,229.935 389.668,228.533C389.909,227.962 390.083,227.389 390.23,226.813L386.799,226.813C386.536,229.499 385.807,232.187 384.633,234.849Z" style="fill:rgb(104,114,47);fill-rule:nonzero;"/>
        <path d="M423.415,226.813L403.957,226.813C402.99,227.8 402.072,228.843 401.196,229.982C399.216,232.57 397.577,235.769 395.125,237.945C398.425,235.527 401.839,233.81 405.835,232.867C409.456,232.013 413.728,231.853 416.689,229.408C413.544,234.007 409.491,237.263 404.727,239.226C407.368,239.029 409.9,239.203 412.322,239.724C412.656,239.761 412.99,239.802 413.323,239.851C413.809,239.623 414.298,239.396 414.796,239.183C414.527,239.443 414.25,239.699 413.974,239.954C414.936,240.114 415.89,240.314 416.832,240.562C418.967,238.753 421.037,236.747 423.185,234.703C421.122,234.853 418.727,233.941 416.716,233.443C420.354,230.839 421.222,230.066 423.415,226.813Z" style="fill:rgb(104,114,47);fill-rule:nonzero;"/>
        <path d="M390.391,234.386C389.904,235.697 389.481,236.884 389.142,237.964C388.3,240.665 388.001,242.677 388.714,244.142C389.28,243.802 389.865,243.478 390.457,243.169C390.356,242.998 390.266,242.818 390.2,242.615C390.084,242.257 390.027,241.845 390.046,241.378C390.084,240.472 390.306,239.562 390.608,238.664C391.044,237.365 391.653,236.095 392.169,234.914C393.102,232.775 394.077,230.593 395.569,228.775C396.121,228.1 396.778,227.434 397.496,226.813L395.621,226.813C393.436,228.995 391.63,231.558 390.391,234.386Z" style="fill:rgb(104,114,47);fill-rule:nonzero;"/>
        <path d="M373.663,228.037C375.364,229.73 376.584,231.845 377.75,233.921C378.489,235.232 379.372,236.656 379.97,238.134C380.25,238.835 380.476,239.544 380.579,240.263C380.649,240.74 380.634,241.162 380.554,241.54C380.387,242.306 379.941,242.884 379.343,243.351C380.057,243.611 380.747,243.9 381.433,244.199C382.298,243.281 382.558,242.158 382.394,240.785C382.337,240.31 382.232,239.805 382.078,239.266C381.906,238.671 381.689,238.042 381.413,237.361C380.917,236.126 380.269,234.749 379.505,233.199C378.145,230.796 376.357,228.65 374.294,226.813L372.272,226.813C372.772,227.206 373.242,227.617 373.663,228.037Z" style="fill:rgb(104,114,47);fill-rule:nonzero;"/>
        <path d="M344.251,227.438C346.994,231.26 348.081,233.417 352.667,234.955C350.679,235.669 348.341,236.837 346.232,236.902C349.267,239.246 352.163,241.568 355.196,243.449C356.038,243.068 356.899,242.734 357.784,242.447C356.91,241.863 356.051,241.242 355.214,240.583C356.609,241.019 357.956,241.539 359.308,242.005C363.09,241.048 367.229,240.931 371.672,241.599C371.847,241.617 372.013,241.644 372.184,241.662C372.974,241.296 373.759,240.964 374.673,240.828C365.761,240.933 358.058,237.695 352.274,230.855C355.541,233.033 359.901,232.755 363.657,233.249C367.817,233.794 371.467,235.185 375.067,237.3C372.351,235.345 370.351,232.263 368.067,229.839C367.028,228.738 365.954,227.742 364.829,226.813L354.774,226.813C352.501,227.484 351.131,228.63 344.251,227.438Z" style="fill:rgb(104,114,47);fill-rule:nonzero;"/>
        <path d="M621.32,229.413C618.392,226.484 614.553,225.019 610.714,225.019L350.714,225.019C346.875,225.019 343.036,226.484 340.107,229.413C337.178,232.341 335.714,236.18 335.714,240.019L335.714,390.019C335.714,393.858 337.178,397.697 340.107,400.625C343.036,403.554 346.875,405.019 350.714,405.019L610.714,405.019C614.553,405.019 618.392,403.554 621.32,400.625C624.249,397.697 625.714,393.858 625.714,390.019L625.714,240.019C625.714,236.18 624.249,232.341 621.32,229.413ZM621.713,390.02C621.713,392.957 620.569,395.72 618.491,397.798C616.415,399.876 613.652,401.019 610.713,401.019L350.713,401.019C347.776,401.019 345.013,399.876 342.935,397.798C340.857,395.72 339.714,392.957 339.714,390.02L339.714,240.018C339.714,237.081 340.857,234.318 342.935,232.24C345.015,230.162 347.776,229.019 350.713,229.019L610.713,229.019C613.65,229.019 616.413,230.162 618.491,232.24C620.569,234.318 621.713,237.081 621.713,240.018L621.713,390.02Z" style="fill:white;fill-rule:nonzero;"/>
    </g>
    <defs>
        <linearGradient id="_Linear1" x1="0" y1="0" x2="1" y2="0" gradientUnits="userSpaceOnUse" gradientTransform="matrix(281.999,0,0,176,339.714,227.019)"><stop offset="0" style="stop-color:rgb(228,240,153);stop-opacity:1"/><stop offset="1" style="stop-color:rgb(195,223,34);stop-opacity:1"/></linearGradient>
    </defs>
</svg>
