<?xml version="1.0" encoding="UTF-8" standalone="no"?>
<!DOCTYPE svg PUBLIC "-//W3C//DTD SVG 1.1//EN" "http://www.w3.org/Graphics/SVG/1.1/DTD/svg11.dtd">
<svg width="100%" height="100%" viewBox="0 0 651 382" version="1.1" xmlns="http://www.w3.org/2000/svg" xmlns:xlink="http://www.w3.org/1999/xlink" xml:space="preserve" xmlns:serif="http://www.serif.com/" style="fill-rule:evenodd;clip-rule:evenodd;stroke-linejoin:round;stroke-miterlimit:1.41421;">
    <g transform="matrix(1,0,0,1,-16.3657,-38.6755)">
        <g transform="matrix(4.16667,0,0,4.16667,-103.189,369.759)">
            <path d="M184.849,5.195C184.849,9.027 181.2,12.133 176.699,12.133L36.843,12.133C32.341,12.133 28.693,9.027 28.693,5.195L28.693,-72.521C28.693,-76.353 32.341,-79.46 36.843,-79.46L176.699,-79.46C181.2,-79.46 184.849,-76.353 184.849,-72.521L184.849,5.195Z" style="fill:rgb(54,54,57);fill-rule:nonzero;"/>
        </g>
        <g transform="matrix(4.16667,0,0,4.16667,-103.189,369.759)">
            <path d="M33.923,-75.198L33.923,6.784L174.865,6.784L179.5,2.549L179.5,-75.198L33.923,-75.198Z" style="fill:rgb(255,208,79);fill-rule:nonzero;"/>
        </g>
        <g transform="matrix(4.16667,0,0,4.16667,-103.189,369.759)">
            <path d="M33.923,0.771L117.082,-75.198L106.624,-75.198L33.923,-8.782L33.923,0.771Z" style="fill:rgb(229,114,77);fill-rule:nonzero;"/>
        </g>
        <g transform="matrix(4.16667,0,0,4.16667,-103.189,369.759)">
            <path d="M118.664,-75.198L33.923,2.219L33.923,6.784L39.382,6.784L129.121,-75.198L118.664,-75.198Z" style="fill:rgb(237,149,74);fill-rule:nonzero;"/>
        </g>
        <g transform="matrix(4.16667,0,0,4.16667,-103.189,369.759)">
            <path d="M166.825,-75.198L77.087,6.784L87.543,6.784L177.282,-75.198L166.825,-75.198Z" style="fill:rgb(237,149,74);fill-rule:nonzero;"/>
        </g>
        <g transform="matrix(4.16667,0,0,4.16667,-103.189,369.759)">
            <path d="M178.865,-75.198L89.127,6.784L99.582,6.784L179.5,-66.226L179.5,-75.198L178.865,-75.198Z" style="fill:rgb(229,114,77);fill-rule:nonzero;"/>
        </g>
        <g transform="matrix(4.16667,0,0,4.16667,-103.189,369.759)">
            <path d="M179.5,-64.778L101.166,6.784L111.621,6.784L179.5,-55.228L179.5,-64.778Z" style="fill:rgb(109,152,114);fill-rule:nonzero;"/>
        </g>
        <g transform="matrix(4.16667,0,0,4.16667,-103.189,369.759)">
            <path d="M179.5,-53.78L113.206,6.784L123.659,6.784L179.5,-44.229L179.5,-53.78Z" style="fill:rgb(109,152,114);fill-rule:nonzero;"/>
        </g>
        <g transform="matrix(4.16667,0,0,4.16667,-103.189,369.759)">
            <path d="M179.5,-42.778L125.247,6.784L135.703,6.784L179.5,-33.227L179.5,-42.778Z" style="fill:rgb(190,192,130);fill-rule:nonzero;"/>
        </g>
        <g transform="matrix(4.16667,0,0,4.16667,-103.189,369.759)">
            <path d="M179.5,-31.78L137.285,6.784L147.742,6.784L179.5,-22.228L179.5,-31.78Z" style="fill:rgb(229,114,77);fill-rule:nonzero;"/>
        </g>
        <g transform="matrix(4.16667,0,0,4.16667,-103.189,369.759)">
            <rect x="103.708" y="-1.954" width="1.518" height="1.79" style="fill:rgb(255,208,79);"/>
        </g>
        <g transform="matrix(4.16667,0,0,4.16667,-103.189,369.759)">
            <rect x="54.575" y="-0.412" width="0.932" height="1.168" style="fill:white;"/>
        </g>
        <g transform="matrix(4.16667,0,0,4.16667,-103.189,369.759)">
            <rect x="45.543" y="-1.874" width="1.011" height="2.13" style="fill:white;"/>
        </g>
        <g transform="matrix(4.16667,0,0,4.16667,-103.189,369.759)">
            <path d="M175.039,-18.017L174.999,-16.532L171.634,-16.532L171.634,-12.353L167.434,-12.353L167.434,-11.812L165.657,-11.812L165.657,-13.565L161.817,-13.565L161.817,-11.812L159.428,-11.812L159.428,-13.565L160.587,-13.565L160.587,-17.452L159.428,-17.452L159.428,-28.355L157.475,-28.355L157.475,-31.556L154.867,-31.556L154.867,-28.355L148.71,-28.355L148.71,-27.287L147.984,-27.287L147.984,-23.551L148.71,-23.551L148.71,-16.538L141.904,-16.538L141.904,-15.858L138.869,-15.858L138.869,-20.769L135.505,-20.769L135.467,-22.515L129.6,-25.351L129.6,-20.769L128.514,-20.769L128.514,-15.858L128.133,-15.858L128.133,-18.784L124.225,-18.784L124.225,-23.408L120.095,-23.408L120.095,-18.784L119.373,-18.784L119.373,-10.691L117.85,-10.691L117.85,-28.995L118.285,-28.995L118.285,-30.151L111.405,-30.151L111.405,-28.995L111.694,-28.995L111.694,-27.742L111.043,-27.742L111.043,-25.72L111.694,-25.72L111.694,-15.799L110.03,-15.799L110.03,-13.448L104.223,-13.448L104.223,-19.566L104.948,-19.566L104.948,-22.826L104.223,-22.826L104.223,-23.758L98.068,-23.758L98.068,-26.552L95.461,-26.552L95.461,-23.758L93.504,-23.758L93.504,-14.245L92.347,-14.245L92.347,-12.419L90.691,-12.419L90.691,-10.853L87.278,-10.853L87.278,-9.323L86.217,-9.323L86.217,-10.58L84.043,-10.58L84.043,-15.392L83.898,-15.385L83.898,-21.567L84.694,-21.567L84.694,-23.25L83.898,-23.25L83.898,-23.972L84.694,-23.972L84.694,-25.657L83.898,-25.657L83.898,-26.378L84.694,-26.378L84.694,-28.063L83.898,-28.063L83.898,-29.826L83.391,-29.826L83.391,-31.431L81.87,-31.431L81.87,-29.826L77.888,-29.826L77.888,-15.188L77.309,-15.168L77.309,-24.214L75.643,-24.214L75.643,-27.34L72.528,-27.34L72.528,-24.214L70.647,-24.214L70.647,-23.009L67.387,-23.009L67.387,-29.265L65.722,-29.265L65.722,-30.549L63.983,-30.549L63.983,-29.265L63.332,-29.265L63.332,-18.838L62.608,-18.838L62.608,-17.156L63.332,-17.156L63.332,-8.814L62.245,-8.814L62.245,-6.582L59.857,-6.582L59.857,-9.314L59.177,-9.314L59.177,-15.948L53.368,-15.948L53.368,-18.37L52.008,-18.37L52.008,-15.948L51.103,-15.948L51.103,-9.314L50.422,-9.314L50.422,-3.459L49.969,-3.459L49.969,-0.257L48.775,-0.257L48.775,-5.998L47.689,-5.998L47.689,-12.915L48.412,-12.915L48.412,-14.312L47.689,-14.312L47.689,-22.958L47.038,-22.958L47.038,-24.024L45.3,-24.024L45.3,-22.958L43.633,-22.958L43.633,-17.77L40.375,-17.77L40.375,-18.77L38.491,-18.77L38.491,-21.362L35.379,-21.362L35.379,-18.77L33.711,-18.77L33.711,-11.266L33.564,-11.27L33.609,7.021L179.852,7.06L179.871,-20.006L175.039,-18.017ZM43.633,-7.206L41.461,-11.053L40.375,-11.083L40.375,-15.976L43.633,-15.976L43.633,-7.206ZM44.576,-22.027L45.806,-22.027L45.806,-20.632L44.576,-20.632L44.576,-22.027ZM46.313,-16.241L45.083,-16.241L45.083,-18.237L46.313,-18.237L46.313,-16.241ZM53.794,-11.656L52.688,-11.656L52.688,-13.685L53.794,-13.685L53.794,-11.656ZM64.708,-23.571L65.939,-23.571L65.939,-21.165L64.708,-21.165L64.708,-23.571ZM66.011,-14.268L64.924,-14.268L64.924,-16.434L66.011,-16.434L66.011,-14.268ZM66.445,-26.458L65.214,-26.458L65.214,-28.142L66.445,-28.142L66.445,-26.458ZM70.647,-14.946L69.559,-14.909L67.387,-10.274L67.387,-20.845L70.647,-20.845L70.647,-14.946ZM72.022,-6.008L70.719,-6.008L70.719,-8.063L72.022,-8.063L72.022,-6.008ZM73.977,-19.48L75.497,-19.48L75.497,-18.118L73.977,-18.118L73.977,-19.48ZM76.222,-3.842L74.845,-3.842L74.845,-6.329L76.222,-6.329L76.222,-3.842ZM81.581,-18.358L82.741,-18.358L82.741,-16.675L81.581,-16.675L81.581,-18.358ZM79.553,-22.689L78.757,-22.689L78.757,-25.335L79.553,-25.335L79.553,-22.689ZM82.448,-11.863L81.075,-11.863L81.075,-13.306L82.448,-13.306L82.448,-11.863ZM84.043,-5.126L82.524,-5.126L82.524,-8.093L84.043,-8.093L84.043,-5.126ZM89.306,-6.595L88.002,-6.595L88.002,-8.724L89.306,-8.724L89.306,-6.595ZM90.972,-4.002L89.668,-4.002L89.668,-6.063L90.972,-6.063L90.972,-4.002ZM93.072,-4.002L91.913,-4.002L91.913,-6.13L93.072,-6.13L93.072,-4.002ZM95.932,-6.763L94.556,-6.763L94.556,-8.957L95.932,-8.957L95.932,-6.763ZM97.487,-14.71L95.967,-14.71L95.967,-16.374L97.487,-16.374L97.487,-14.71ZM97.487,-17.705L96.041,-17.705L96.041,-19.501L97.487,-19.501L97.487,-17.705ZM100.314,-13.048L101.689,-13.048L101.689,-11.252L100.314,-11.252L100.314,-13.048ZM100.385,-9.921L101.544,-9.921L101.544,-7.926L100.385,-7.926L100.385,-9.921ZM102.413,-1.673L100.893,-1.673L100.893,-3.469L102.413,-3.469L102.413,-1.673ZM103.283,-20.297L102.051,-20.297L102.051,-21.829L103.283,-21.829L103.283,-20.297ZM105.164,-0.343L103.861,-0.343L103.861,-1.874L105.164,-1.874L105.164,-0.343ZM106.903,-5.998L105.6,-5.998L105.6,-7.926L106.903,-7.926L106.903,-5.998ZM111.261,-14.064L112.347,-14.064L112.347,-11.27L111.261,-11.27L111.261,-14.064ZM111.694,-10.307L112.853,-10.307L112.853,-7.418L111.694,-7.418L111.694,-10.307ZM113.288,-1.831L111.985,-1.831L111.985,-4.624L113.288,-4.624L113.288,-1.831ZM116.185,-13.872L114.591,-13.872L114.591,-16.664L116.185,-16.664L116.185,-13.872ZM116.547,-19.843L115.244,-19.843L115.244,-22.734L116.547,-22.734L116.547,-19.843ZM116.91,-24.756L115.605,-24.756L115.605,-27.551L116.91,-27.551L116.91,-24.756ZM119.444,-6.164L118.285,-6.164L118.285,-8.767L119.444,-8.767L119.444,-6.164ZM122.267,-12.331L120.819,-12.331L120.819,-15.51L122.267,-15.51L122.267,-12.331ZM122.339,-20.613L120.602,-20.613L120.602,-22.059L122.339,-22.059L122.339,-20.613ZM126.974,-14.064L125.454,-14.064L125.454,-16.761L126.974,-16.761L126.974,-14.064ZM132.208,-8.222L130.685,-8.222L130.685,-11.822L132.208,-11.822L132.208,-8.222ZM134.452,-18.042L133.004,-18.042L133.004,-20.986L134.452,-20.986L134.452,-18.042ZM141.838,-8.876L140.39,-8.876L140.39,-12.15L141.838,-12.15L141.838,-8.876ZM146.03,-1.901L144.51,-1.901L144.51,-3.806L146.03,-3.806L146.03,-1.901ZM147.334,-7.999L146.03,-7.999L146.03,-10.21L147.334,-10.21L147.334,-7.999ZM150.882,-24.389L149.652,-24.389L149.652,-26.144L150.882,-26.144L150.882,-24.389ZM152.622,-14.022L151.246,-14.022L151.246,-16.08L152.622,-16.08L152.622,-14.022ZM158.379,-8.876L157.002,-8.876L157.002,-11.392L158.379,-11.392L158.379,-8.876ZM161.022,-5.712L159.863,-5.712L159.863,-8.152L161.022,-8.152L161.022,-5.712Z" style="fill:rgb(126,49,54);fill-rule:nonzero;"/>
        </g>
        <g transform="matrix(4.16667,0,0,4.16667,-103.189,369.759)">
            <path d="M38.123,1.326C38.036,0.881 37.767,0.555 37.935,0.062C38.085,-0.377 38.483,-0.653 38.6,-1.16C38.436,-0.618 38.96,-0.44 39.121,0.004C39.309,0.526 38.9,0.959 38.486,1.272C38.853,0.881 38.829,0.269 38.581,-0.183C38.695,0.421 38.512,1.044 38.094,1.457L38.123,1.326Z" style="fill:white;fill-rule:nonzero;"/>
        </g>
        <g transform="matrix(4.16667,0,0,4.16667,-103.189,369.759)">
            <path d="M38.526,1.42C38.908,1.178 39.114,0.807 39.631,0.786C40.093,0.766 40.494,1.037 41.007,0.962C40.444,1.006 40.469,1.561 40.116,1.874C39.7,2.238 39.148,2.012 38.708,1.741C39.205,1.939 39.762,1.698 40.093,1.299C39.574,1.626 38.931,1.681 38.394,1.442L38.526,1.42Z" style="fill:white;fill-rule:nonzero;"/>
        </g>
        <g transform="matrix(4.16667,0,0,4.16667,-103.189,369.759)">
            <path d="M38.59,1.946C39.02,2.083 39.433,2.001 39.785,2.386C40.098,2.726 40.148,3.209 40.537,3.555C40.141,3.151 39.735,3.53 39.269,3.458C38.722,3.376 38.54,2.807 38.462,2.292C38.631,2.803 39.176,3.075 39.692,3.07C39.107,2.882 38.649,2.423 38.488,1.857L38.59,1.946Z" style="fill:white;fill-rule:nonzero;"/>
        </g>
        <g transform="matrix(4.16667,0,0,4.16667,-103.189,369.759)">
            <path d="M37.801,2.281C37.627,2.7 37.298,2.964 37.363,3.481C37.421,3.941 37.755,4.292 37.768,4.813C37.717,4.247 38.267,4.18 38.513,3.779C38.802,3.304 38.488,2.797 38.147,2.406C38.427,2.866 38.281,3.458 37.945,3.852C38.18,3.283 38.126,2.636 37.798,2.147L37.801,2.281Z" style="fill:white;fill-rule:nonzero;"/>
        </g>
        <g transform="matrix(4.16667,0,0,4.16667,-103.189,369.759)">
            <path d="M37.692,1.854C37.241,1.85 36.873,1.642 36.419,1.897C36.017,2.122 35.817,2.566 35.342,2.771C35.845,2.514 36.112,2.998 36.576,3.078C37.123,3.17 37.473,2.687 37.705,2.224C37.387,2.655 36.786,2.742 36.295,2.578C36.909,2.582 37.487,2.289 37.816,1.803L37.692,1.854Z" style="fill:white;fill-rule:nonzero;"/>
        </g>
        <g transform="matrix(4.16667,0,0,4.16667,-103.189,369.759)">
            <path d="M37.926,1.435C37.731,1.026 37.753,0.602 37.328,0.307C36.947,0.043 36.464,0.057 36.07,-0.28C36.522,0.058 36.206,0.514 36.339,0.967C36.499,1.5 37.083,1.602 37.601,1.61C37.075,1.512 36.731,1.008 36.665,0.494C36.93,1.049 37.446,1.442 38.026,1.524L37.926,1.435Z" style="fill:white;fill-rule:nonzero;"/>
        </g>
        <g transform="matrix(4.16667,0,0,4.16667,-103.189,369.759)">
            <path d="M146.864,3.49L147.171,3.49L147.171,3.497C147.171,3.614 147.212,3.71 147.296,3.786C147.377,3.863 147.48,3.901 147.603,3.901C147.72,3.901 147.815,3.872 147.893,3.812C147.971,3.753 148.01,3.679 148.01,3.589C148.01,3.5 147.98,3.429 147.918,3.373C147.856,3.32 147.746,3.269 147.585,3.22C147.329,3.147 147.16,3.071 147.082,2.996C147.003,2.918 146.962,2.814 146.962,2.684C146.962,2.539 147.028,2.414 147.16,2.312C147.293,2.211 147.45,2.159 147.638,2.159C147.836,2.159 147.994,2.204 148.111,2.295C148.228,2.387 148.29,2.513 148.299,2.675L147.98,2.675C147.973,2.586 147.939,2.517 147.876,2.469C147.814,2.42 147.729,2.395 147.619,2.395C147.522,2.395 147.442,2.422 147.377,2.475C147.313,2.528 147.28,2.593 147.28,2.671C147.28,2.728 147.293,2.773 147.32,2.812C147.347,2.849 147.389,2.883 147.452,2.915C147.508,2.943 147.59,2.97 147.699,2.997C147.806,3.022 147.878,3.042 147.914,3.054C148.06,3.104 148.165,3.17 148.234,3.253C148.303,3.337 148.337,3.441 148.337,3.569C148.337,3.731 148.267,3.864 148.127,3.97C147.989,4.074 147.812,4.128 147.598,4.128C147.38,4.128 147.205,4.071 147.073,3.955C146.941,3.84 146.872,3.684 146.864,3.49ZM150.654,3.13C150.654,2.932 150.565,2.76 150.39,2.611C150.215,2.464 150.011,2.389 149.781,2.389C149.532,2.389 149.321,2.464 149.147,2.611C148.972,2.76 148.884,2.943 148.884,3.161C148.884,3.37 148.972,3.546 149.147,3.689C149.318,3.832 149.528,3.904 149.773,3.904C150.009,3.904 150.216,3.83 150.39,3.676C150.565,3.526 150.654,3.344 150.654,3.13ZM150.654,3.782C150.561,3.891 150.435,3.975 150.277,4.035C150.118,4.098 149.948,4.128 149.765,4.128C149.424,4.128 149.142,4.033 148.916,3.846C148.688,3.658 148.575,3.426 148.575,3.151C148.575,2.871 148.69,2.637 148.923,2.449C149.153,2.26 149.444,2.166 149.791,2.166C149.969,2.166 150.134,2.195 150.284,2.253C150.431,2.312 150.556,2.397 150.654,2.506L150.654,2.207L150.946,2.207L150.946,4.078L150.654,4.078L150.654,3.782ZM153.238,2.5C153.332,2.392 153.45,2.31 153.589,2.253C153.728,2.199 153.885,2.169 154.059,2.169C154.375,2.169 154.604,2.246 154.748,2.399C154.89,2.551 154.963,2.796 154.963,3.134L154.963,4.078L154.676,4.078L154.676,3.084C154.676,2.837 154.627,2.662 154.525,2.557C154.424,2.452 154.259,2.4 154.03,2.4C153.897,2.4 153.78,2.422 153.679,2.465C153.578,2.509 153.501,2.571 153.441,2.652C153.406,2.704 153.381,2.761 153.365,2.828C153.35,2.893 153.342,3.006 153.342,3.168L153.342,4.078L153.06,4.078L153.06,3.031C153.06,2.816 153.007,2.656 152.898,2.554C152.791,2.451 152.623,2.4 152.401,2.4C152.264,2.4 152.146,2.422 152.044,2.465C151.944,2.509 151.861,2.571 151.803,2.652C151.766,2.704 151.742,2.761 151.728,2.828C151.711,2.893 151.703,3.006 151.703,3.168L151.703,4.078L151.411,4.078L151.411,2.207L151.703,2.207L151.703,2.42C151.793,2.337 151.898,2.275 152.017,2.233C152.137,2.19 152.274,2.169 152.425,2.169C152.601,2.169 152.761,2.199 152.907,2.26C153.052,2.319 153.163,2.399 153.238,2.5ZM155.43,2.207L155.723,2.207L155.723,2.514C155.808,2.409 155.93,2.324 156.085,2.26C156.242,2.199 156.409,2.166 156.585,2.166C156.939,2.166 157.227,2.26 157.457,2.447C157.686,2.636 157.802,2.87 157.802,3.151C157.802,3.425 157.689,3.657 157.462,3.846C157.234,4.033 156.95,4.128 156.61,4.128C156.42,4.128 156.252,4.098 156.1,4.039C155.949,3.981 155.824,3.895 155.723,3.782L155.723,4.684L155.43,4.684L155.43,2.207ZM155.723,3.13C155.723,3.344 155.811,3.526 155.985,3.676C156.159,3.83 156.364,3.904 156.602,3.904C156.846,3.904 157.053,3.832 157.229,3.689C157.402,3.546 157.489,3.37 157.489,3.161C157.489,2.943 157.402,2.76 157.227,2.611C157.051,2.464 156.84,2.389 156.591,2.389C156.361,2.389 156.159,2.464 155.985,2.612C155.811,2.76 155.723,2.933 155.723,3.13ZM158.165,4.078L158.165,1.602L158.462,1.602L158.462,4.078L158.165,4.078ZM161.222,3.219L159.126,3.219C159.144,3.422 159.235,3.587 159.399,3.712C159.564,3.839 159.77,3.901 160.016,3.901C160.189,3.901 160.346,3.864 160.486,3.792C160.623,3.718 160.733,3.618 160.808,3.489L161.147,3.489C161.04,3.694 160.889,3.854 160.697,3.965C160.502,4.076 160.277,4.131 160.023,4.131C159.687,4.131 159.399,4.035 159.167,3.84C158.934,3.646 158.817,3.412 158.817,3.142C158.817,2.855 158.931,2.621 159.159,2.435C159.387,2.249 159.68,2.155 160.037,2.155C160.385,2.155 160.67,2.253 160.889,2.447C161.111,2.64 161.222,2.892 161.222,3.202L161.222,3.219ZM160.892,3.016C160.835,2.806 160.73,2.648 160.581,2.542C160.43,2.435 160.234,2.383 159.991,2.383C159.769,2.383 159.575,2.439 159.42,2.554C159.264,2.667 159.169,2.822 159.134,3.016L160.892,3.016ZM162.984,4.078L162.984,2.449L162.543,2.449L162.543,2.207L162.984,2.207L162.984,1.602L163.282,1.602L163.282,2.207L163.722,2.207L163.722,2.449L163.282,2.449L163.282,4.078L162.984,4.078ZM166.239,3.219L164.143,3.219C164.161,3.422 164.252,3.587 164.417,3.712C164.581,3.839 164.788,3.901 165.033,3.901C165.208,3.901 165.365,3.864 165.503,3.792C165.641,3.718 165.751,3.618 165.825,3.489L166.164,3.489C166.058,3.694 165.907,3.854 165.713,3.965C165.52,4.076 165.295,4.131 165.041,4.131C164.705,4.131 164.418,4.035 164.185,3.84C163.951,3.646 163.834,3.412 163.834,3.142C163.834,2.855 163.949,2.621 164.177,2.435C164.405,2.249 164.697,2.155 165.055,2.155C165.403,2.155 165.688,2.253 165.907,2.447C166.127,2.64 166.239,2.892 166.239,3.202L166.239,3.219ZM165.91,3.016C165.853,2.806 165.75,2.648 165.598,2.542C165.448,2.435 165.252,2.383 165.01,2.383C164.786,2.383 164.593,2.439 164.438,2.554C164.282,2.667 164.187,2.822 164.152,3.016L165.91,3.016ZM166.705,2.207L167.244,2.915L167.822,2.207L168.164,2.207L167.414,3.103L168.16,4.078L167.822,4.078L167.228,3.298L166.605,4.078L166.276,4.078L167.064,3.107L166.371,2.207L166.705,2.207ZM168.572,4.078L168.572,2.449L168.131,2.449L168.131,2.207L168.572,2.207L168.572,1.602L168.87,1.602L168.87,2.207L169.311,2.207L169.311,2.449L168.87,2.449L168.87,4.078L168.572,4.078Z" style="fill:white;fill-rule:nonzero;"/>
        </g>
    </g>
</svg>
