<?xml version="1.0" encoding="UTF-8" standalone="no"?>
<!DOCTYPE svg PUBLIC "-//W3C//DTD SVG 1.1//EN" "http://www.w3.org/Graphics/SVG/1.1/DTD/svg11.dtd">
<svg width="100%" height="100%" viewBox="0 0 237 230" version="1.1" xmlns="http://www.w3.org/2000/svg" xmlns:xlink="http://www.w3.org/1999/xlink" xml:space="preserve" xmlns:serif="http://www.serif.com/" style="fill-rule:evenodd;clip-rule:evenodd;stroke-linejoin:round;stroke-miterlimit:1.41421;">
    <g transform="matrix(1,0,0,1,-881.96,-302.515)">
        <path d="M919.547,404.029C923.262,403.828 926.552,416.148 910.471,433.483C916.78,408.534 917.682,404.13 919.547,404.029ZM925.744,451.732C924.479,452.906 922.852,453.81 921.316,454.984C919.781,456.159 917.522,457.334 916.257,456.882C913.083,455.748 922.695,441.835 923.756,439.625C924.84,437.366 923.033,436.643 921.859,435.74C920.844,434.959 919.999,434.763 918.959,435.052C914.511,436.292 910.625,440.332 907.825,444.004C908.514,440.932 908.455,441.413 909.687,436.577C916.755,428.838 926.028,417.248 924.039,406.971C923.611,404.755 922.329,401.602 917.297,402.075C913.595,402.424 911.076,407.494 909.57,411.107C908.886,412.75 902.307,429.89 900.085,443.113C894.777,446.484 890.155,446.009 886.973,446.054C885.833,446.07 884.964,446.084 883.868,445.698C882.955,445.377 882.38,445.082 882.064,446.209C881.547,448.054 883.039,450.34 884.867,450.737C888.316,451.485 891.935,449.255 894.866,447.764C896.504,446.931 898.16,446.063 899.76,445.106C898.687,451.894 897.953,458.877 898.733,461.683C899.736,465.296 902.747,466.701 903.65,466.199C904.553,465.697 903.851,463.389 904.252,461.483C904.517,460.224 905.787,453.591 906.995,447.841C910.274,442.407 915.404,437.874 917.188,437.017C912.66,443.749 910.336,452.29 910.655,454.442C911.017,456.882 914.811,460.315 916.889,460.405C918.967,460.496 924.388,454.623 925.834,453.268C927.28,451.912 927.008,450.557 925.744,451.732Z" style="fill:rgb(229,185,95);fill-rule:nonzero;"/>
        <path d="M934.552,432.637C932.165,434.277 929.149,437.242 926.581,443.619C923.209,451.991 928.641,459.126 933.666,458.498C936.5,458.144 939.525,454.35 940.663,449.819C941.416,446.818 941.637,442.113 941.282,440.873C940.928,439.633 940.397,439.102 939.777,439.722C939.157,440.342 939.688,440.431 939.866,441.493C940.043,442.556 940.125,446.062 938.892,449.283C937.224,453.641 933.4,456.107 931.629,455.398C929.858,454.69 929.946,449.907 931.983,446.01C933.543,443.027 937.386,438.571 939.334,437.154C941.282,435.737 941.548,434.762 940.397,432.991C939.246,431.22 935.969,431.663 934.552,432.637Z" style="fill:rgb(229,185,95);fill-rule:nonzero;"/>
        <path d="M966.789,409.344C967.563,407.558 969.57,404.502 970.511,405.613C972.735,408.236 971.139,418.386 958.401,429.073C961.519,421.858 965.948,411.287 966.789,409.344ZM957.111,432.032C964.395,426.248 971.93,418.596 972.7,409.24C972.878,407.078 972.419,404.821 970.563,403.592C967.557,401.602 963.3,404.904 961.653,407.307C954.167,418.223 949.496,429.125 947.493,436.978C945.297,438.252 942.743,439.515 940.308,439.531C939.305,439.537 938.261,443.253 947.05,438.848C946.016,443.61 945.784,447.963 946.508,451.413C947.659,456.904 949.482,457.183 951.29,457.435C955.099,457.967 961.653,451.767 964.132,449.199C966.612,446.63 967.675,445.656 967.409,444.948C967.144,444.239 966.321,445.371 964.904,446.788C962.986,448.705 955.418,456.142 951.91,454.424C949.471,453.229 953.77,439.102 955.63,435.294C955.956,434.628 956.473,433.482 957.111,432.032Z" style="fill:rgb(229,185,95);fill-rule:nonzero;"/>
        <path d="M984.855,415.154C985.818,416.16 985.158,417.955 984.863,419.238C983.494,425.195 975.699,434.78 971.699,439.397C974.051,431.605 982.366,412.554 984.855,415.154ZM982.11,447.935C980.193,449.852 972.845,456.759 969.624,455.044C968.052,454.207 969.319,447.975 970.766,442.65C975.606,437.248 980.182,431.57 983.93,425.353C986.88,420.459 988.583,413.385 982.85,411.985C980.817,411.488 976.991,413.142 974.849,416.164C964.544,430.696 962.535,443.992 964.221,452.033C965.372,457.524 967.195,457.803 969.004,458.055C972.812,458.586 979.366,452.387 981.846,449.819C984.326,447.25 985.388,446.276 985.123,445.567C984.857,444.859 983.527,446.518 982.11,447.935Z" style="fill:rgb(229,185,95);fill-rule:nonzero;"/>
        <path d="M953.593,485.776C946.279,487.42 937.563,488.787 935.437,484.359C933.312,479.931 941.903,470.011 955.542,466.469C967.41,463.386 977.533,463.255 984.164,465.199C979.186,472.861 965.978,482.992 953.593,485.776ZM1001.86,434.054C996.308,431.277 997.195,438.792 990.059,454.138C988.193,455.228 985.982,455.813 984.89,454.995C983.473,453.932 984.503,449.464 985.565,446.896C986.628,444.327 989.639,438.305 990.702,436.888C992.621,434.329 987.143,429.915 984.768,433.345C983.971,434.497 980.493,442.15 979.809,444.682C977.831,451.994 979.277,455.398 982.997,456.55C985.489,457.321 987.503,456.74 989.254,455.847C988.094,458.277 986.629,461.184 985.003,463.862C957.006,456.484 926.274,475.057 933.489,485.511C943.107,499.446 976.319,486.597 986.628,473.997C987.887,472.458 989.203,470.551 990.523,468.428C1002.09,477.74 989.276,491.685 975.912,490.47C968.356,489.783 972.427,499.424 979.454,498.707C985.585,498.081 997.964,494.013 999.027,483.739C999.906,475.249 996.428,469.484 991.696,466.488C997.495,456.638 1003.06,443.477 1003.81,439.988C1004.78,435.471 1003.1,434.674 1001.86,434.054Z" style="fill:rgb(229,185,95);fill-rule:nonzero;"/>
        <path d="M1048.84,432.637C1046.46,434.277 1043.44,437.242 1040.87,443.619C1037.5,451.991 1042.93,459.126 1047.96,458.498C1050.79,458.144 1054.25,452.83 1054.95,449.819C1055.66,446.807 1055.93,442.113 1055.57,440.873C1055.22,439.633 1054.69,439.102 1054.07,439.722C1053.45,440.342 1053.98,440.431 1054.16,441.493C1055.53,449.751 1049.2,456.708 1045.92,455.398C1044.15,454.69 1044.24,449.907 1046.27,446.01C1047.83,443.027 1051.68,438.571 1053.63,437.154C1055.57,435.737 1055.84,434.762 1054.69,432.991C1053.54,431.22 1050.26,431.663 1048.84,432.637Z" style="fill:rgb(229,185,95);fill-rule:nonzero;"/>
        <path d="M1081.08,409.344C1081.85,407.558 1083.76,404.621 1084.8,405.613C1086.31,407.052 1085.57,409.748 1085.16,411.618C1083.69,418.447 1078.02,424.601 1072.69,429.073C1075.81,421.858 1080.24,411.287 1081.08,409.344ZM1071.4,432.032C1078.69,426.248 1086.22,418.596 1086.99,409.24C1087.17,407.078 1086.59,404.985 1084.85,403.592C1082.49,401.694 1078.3,403.876 1075.94,407.307C1068.46,418.217 1063.79,429.12 1061.78,436.978C1059.59,438.252 1057.03,439.515 1054.6,439.531C1053.78,439.536 1053.76,440.953 1054.58,440.974C1056.99,441.035 1059.24,439.903 1061.34,438.848C1060.31,443.61 1060.08,447.963 1060.8,451.413C1061.95,456.904 1063.77,457.183 1065.58,457.435C1069.39,457.967 1075.94,451.767 1078.42,449.199C1080.9,446.63 1081.97,445.656 1081.7,444.948C1081.43,444.239 1080.46,445.283 1079.04,446.7C1077.12,448.617 1069.69,456.142 1066.2,454.424C1063.76,453.223 1068.06,439.102 1069.92,435.294C1070.25,434.628 1070.76,433.482 1071.4,432.032Z" style="fill:rgb(229,185,95);fill-rule:nonzero;"/>
        <path d="M1099.15,415.154C1100.1,416.17 1099.45,417.955 1099.15,419.238C1097.79,425.194 1089.99,434.779 1085.99,439.396C1088.25,431.903 1096.65,412.489 1099.15,415.154ZM1096.78,447.494C1094.86,449.411 1087.34,456.892 1083.91,455.044C1082.35,454.198 1083.61,447.971 1085.06,442.648C1089.9,437.247 1094.47,431.569 1098.22,425.353C1101.17,420.461 1102.88,413.4 1097.14,411.985C1095.13,411.488 1091.28,413.142 1089.14,416.164C1078.84,430.696 1076.83,443.992 1078.51,452.033C1079.66,457.524 1081.49,457.803 1083.29,458.055C1087.1,458.586 1093.66,452.387 1096.14,449.819C1098.62,447.25 1099.68,446.276 1099.41,445.567C1099.15,444.859 1098.2,446.077 1096.78,447.494Z" style="fill:rgb(229,185,95);fill-rule:nonzero;"/>
        <path d="M1067.88,485.776C1060.57,487.42 1051.85,488.787 1049.73,484.359C1047.6,479.931 1056.19,470.011 1069.83,466.469C1081.7,463.386 1091.82,463.255 1098.45,465.199C1093.48,472.861 1080.27,482.992 1067.88,485.776ZM1116.15,434.054C1114.56,433.257 1112.88,432.814 1111.46,435.914C1109.59,439.999 1108.25,445.716 1104.53,453.74C1100.75,456.116 1096.24,455.645 1099.86,446.896C1100.92,444.327 1103.93,438.305 1104.99,436.888C1106.91,434.329 1101.43,429.915 1099.06,433.345C1098.26,434.497 1094.88,442.177 1094.1,444.682C1090.78,455.373 1097.48,458.942 1103.55,455.847C1102.39,458.277 1100.92,461.184 1099.29,463.862C1071.3,456.484 1040.57,475.057 1047.78,485.511C1057.39,499.439 1090.6,486.606 1100.92,473.997C1102.18,472.458 1103.49,470.551 1104.81,468.428C1116.38,477.74 1103.57,491.685 1090.2,490.47C1082.65,489.783 1086.72,499.424 1093.75,498.707C1099.88,498.081 1112.26,494.013 1113.32,483.739C1114.2,475.249 1110.72,469.484 1105.99,466.488C1111.79,456.638 1117.35,443.477 1118.1,439.988C1119.08,435.471 1117.39,434.674 1116.15,434.054Z" style="fill:rgb(229,185,95);fill-rule:nonzero;"/>
        <path d="M1020.44,465.496C1017.56,469.129 1013.5,470.773 1011.03,469.571C1008.82,468.496 1007.93,465.981 1008.78,464.024C1010.74,459.516 1018.43,455.238 1027.31,450.007C1025.62,455.731 1023.03,462.22 1020.44,465.496ZM1049.04,434.679C1045.02,437.972 1040.4,440.63 1035.9,443.267C1043.88,413.312 1045.57,412.73 1040.18,411.112C1034.94,409.541 1035.22,412.249 1033.65,419.731C1027.81,424.572 1019.72,427.049 1012.35,426.596C1010.02,426.454 1013.96,430.887 1015.42,431.366C1016.69,431.782 1017.56,430.941 1018.6,430.419C1020.03,429.707 1026.55,426.644 1033.2,421.893C1027.94,447.049 1029.15,443.134 1027.87,447.987C1017.42,454.127 1000.37,462.881 1009.67,470.445C1012.53,472.775 1018.05,474.407 1024.26,468.14C1030.08,462.268 1033.51,451.847 1035.35,445.273C1038.76,443.256 1046.85,438.442 1049.85,435.889C1050.55,435.291 1049.77,434.079 1049.04,434.679Z" style="fill:rgb(229,185,95);fill-rule:nonzero;"/>
        <path d="M1045.82,401.8C1046.05,399.382 1044.12,399.654 1042.5,399.417C1040.93,399.188 1039.11,398.584 1038.62,400.7C1038.18,402.566 1038.32,405.254 1038.73,407.121C1039.77,411.816 1045.61,404.095 1045.82,401.8Z" style="fill:rgb(229,185,95);fill-rule:nonzero;"/>
        <path d="M952.674,366.261L952.674,383.353C952.674,384.676 952.288,385.888 951.626,386.881L948.649,392.173C948.484,392.394 948.208,392.615 947.877,392.615L944.79,392.615C944.459,392.615 944.183,392.394 944.018,392.173L941.758,388.094L939.442,392.173C939.277,392.394 939.001,392.615 938.67,392.615L935.583,392.615C935.307,392.615 934.976,392.394 934.866,392.173L931.833,386.881C931.172,385.888 930.786,384.676 930.786,383.353L930.786,366.261C930.786,365.765 931.172,365.379 931.668,365.379L933.432,365.379C933.929,365.379 934.315,365.765 934.315,366.261L934.315,383.353C934.315,383.683 934.37,383.959 934.48,384.29L937.126,388.976L939.828,384.29C939.938,383.959 939.993,383.683 939.993,383.353L939.993,366.261C939.993,365.765 940.379,365.379 940.875,365.379L942.64,365.379C943.081,365.379 943.522,365.765 943.522,366.261L943.522,383.353C943.522,383.683 943.577,383.959 943.632,384.29L946.333,388.976L948.98,384.29C949.09,383.959 949.145,383.683 949.145,383.353L949.145,366.261C949.145,365.765 949.531,365.379 950.028,365.379L951.792,365.379C952.288,365.379 952.674,365.765 952.674,366.261Z" style="fill:white;fill-rule:nonzero;"/>
        <path d="M960.779,391.733C960.779,392.229 960.393,392.615 959.896,392.615L958.132,392.615C957.636,392.615 957.25,392.229 957.25,391.733L957.25,366.206C957.25,365.71 957.636,365.324 958.132,365.324L959.896,365.324C960.338,365.324 960.779,365.71 960.779,366.206L960.779,391.733Z" style="fill:white;fill-rule:nonzero;"/>
        <path d="M973.955,373.539L973.955,371.664C973.955,370.12 972.687,368.852 971.143,368.852C969.599,368.852 968.331,370.12 968.331,371.664C968.331,372.381 968.331,372.381 968.497,372.601L976.16,382.746C977.483,384.51 977.483,384.51 977.483,386.275C977.483,389.748 974.616,392.615 971.143,392.615C967.67,392.615 964.803,389.748 964.803,386.275L964.803,384.4C964.803,383.904 965.189,383.518 965.685,383.518L967.449,383.518C967.945,383.518 968.331,383.904 968.331,384.4L968.331,386.275C968.331,387.818 969.599,389.086 971.143,389.086C972.687,389.086 973.955,387.818 973.955,386.275C973.955,385.558 973.955,385.558 973.79,385.337L966.126,375.193C964.803,373.428 964.803,373.428 964.803,371.664C964.803,368.191 967.67,365.324 971.143,365.324C974.616,365.324 977.483,368.191 977.483,371.664L977.483,373.539C977.483,374.035 977.097,374.421 976.601,374.421L974.837,374.421C974.341,374.421 973.955,374.035 973.955,373.539Z" style="fill:white;fill-rule:nonzero;"/>
        <path d="M994.189,366.206L994.189,391.733C994.189,392.229 993.803,392.615 993.307,392.615L991.543,392.615C991.102,392.615 990.661,392.229 990.661,391.733L990.661,380.706L985.037,380.706L985.037,391.733C985.037,392.229 984.651,392.615 984.155,392.615L982.39,392.615C981.894,392.615 981.509,392.229 981.509,391.733L981.509,366.206C981.509,365.71 981.894,365.324 982.39,365.324L984.155,365.324C984.651,365.324 985.037,365.71 985.037,366.206L985.037,377.177L990.661,377.177L990.661,366.206C990.661,365.71 991.102,365.324 991.543,365.324L993.307,365.324C993.803,365.324 994.189,365.71 994.189,366.206Z" style="fill:white;fill-rule:nonzero;"/>
        <path d="M1018.89,366.206L1018.89,374.311C1018.89,377.233 1016.96,379.658 1014.31,380.43L1014.31,391.733C1014.31,392.173 1013.87,392.615 1013.43,392.615L1011.67,392.615C1011.17,392.615 1010.78,392.173 1010.78,391.733L1010.78,380.43C1008.08,379.658 1006.15,377.233 1006.15,374.311L1006.15,366.206C1006.15,365.71 1006.54,365.324 1007.03,365.324L1008.8,365.324C1009.3,365.324 1009.68,365.71 1009.68,366.206L1009.68,374.311C1009.68,375.909 1010.95,377.177 1012.55,377.177C1014.09,377.177 1015.36,375.909 1015.36,374.311L1015.36,366.206C1015.36,365.71 1015.75,365.324 1016.24,365.324L1018.01,365.324C1018.5,365.324 1018.89,365.71 1018.89,366.206Z" style="fill:white;fill-rule:nonzero;"/>
        <path d="M1032.12,371.664C1032.12,370.12 1030.85,368.852 1029.31,368.852C1027.71,368.852 1026.44,370.12 1026.44,371.664L1026.44,386.219C1026.44,387.818 1027.71,389.086 1029.31,389.086C1030.85,389.086 1032.12,387.818 1032.12,386.219L1032.12,371.664ZM1035.65,371.664L1035.65,386.219C1035.65,389.748 1032.78,392.615 1029.31,392.615C1025.78,392.615 1022.91,389.748 1022.91,386.219L1022.91,371.664C1022.91,368.191 1025.78,365.324 1029.31,365.324C1032.78,365.324 1035.65,368.191 1035.65,371.664Z" style="fill:white;fill-rule:nonzero;"/>
        <path d="M1052.96,366.206L1052.96,386.219C1052.96,389.748 1050.09,392.615 1046.62,392.615C1043.09,392.615 1040.22,389.748 1040.22,386.219L1040.22,366.206C1040.22,365.71 1040.67,365.324 1041.11,365.324L1042.87,365.324C1043.37,365.324 1043.75,365.71 1043.75,366.206L1043.75,386.219C1043.75,387.818 1045.02,389.086 1046.62,389.086C1048.16,389.086 1049.43,387.818 1049.43,386.219L1049.43,366.206C1049.43,365.71 1049.82,365.324 1050.31,365.324L1052.08,365.324C1052.57,365.324 1052.96,365.71 1052.96,366.206Z" style="fill:white;fill-rule:nonzero;"/>
        <path d="M1074.68,371.719C1074.68,370.176 1073.41,368.908 1071.87,368.908C1070.27,368.908 1069,370.176 1069,371.719L1069,377.233L1074.68,377.233L1074.68,371.719ZM1078.21,371.719L1078.21,391.733C1078.21,392.229 1077.83,392.615 1077.33,392.615L1075.56,392.615C1075.07,392.615 1074.68,392.229 1074.68,391.733L1074.68,380.761L1069,380.761L1069,391.733C1069,392.229 1068.62,392.615 1068.12,392.615L1066.36,392.615C1065.86,392.615 1065.48,392.229 1065.48,391.733L1065.48,371.719C1065.48,368.246 1068.34,365.379 1071.87,365.379C1075.34,365.379 1078.21,368.246 1078.21,371.719Z" style="fill:white;fill-rule:nonzero;"/>
        <path d="M943.136,512.961L943.136,511.086C943.136,509.542 941.868,508.274 940.324,508.274C938.78,508.274 937.513,509.542 937.513,511.086L937.513,525.696C937.513,527.24 938.78,528.508 940.324,528.508C941.868,528.508 943.136,527.24 943.136,525.696L943.136,523.656C943.136,523.16 943.522,522.774 944.018,522.774L945.782,522.774C946.278,522.774 946.664,523.16 946.664,523.656L946.664,525.696C946.664,529.17 943.798,532.037 940.324,532.037C936.796,532.037 933.984,529.17 933.984,525.696L933.984,511.086C933.984,507.613 936.796,504.746 940.324,504.746C943.798,504.746 946.664,507.613 946.664,511.086L946.664,512.961C946.664,513.457 946.278,513.843 945.782,513.843L944.018,513.843C943.522,513.843 943.136,513.457 943.136,512.961Z" style="fill:white;fill-rule:nonzero;"/>
        <path d="M963.37,505.628L963.37,531.154C963.37,531.651 962.984,532.037 962.488,532.037L960.723,532.037C960.282,532.037 959.841,531.651 959.841,531.154L959.841,520.128L954.218,520.128L954.218,531.154C954.218,531.651 953.832,532.037 953.335,532.037L951.571,532.037C951.075,532.037 950.689,531.651 950.689,531.154L950.689,505.628C950.689,505.132 951.075,504.746 951.571,504.746L953.335,504.746C953.832,504.746 954.218,505.132 954.218,505.628L954.218,516.599L959.841,516.599L959.841,505.628C959.841,505.132 960.282,504.746 960.723,504.746L962.488,504.746C962.984,504.746 963.37,505.132 963.37,505.628Z" style="fill:white;fill-rule:nonzero;"/>
        <path d="M976.822,511.086C976.822,509.542 975.554,508.274 974.01,508.274L971.198,508.274L971.198,516.599L974.01,516.599C975.554,516.599 976.822,515.331 976.822,513.733L976.822,511.086ZM980.35,513.733C980.35,515.552 979.634,517.206 978.421,518.364C979.634,519.521 980.35,521.12 980.35,522.939L980.35,531.154C980.35,531.595 979.964,532.037 979.468,532.037L977.704,532.037C977.208,532.037 976.822,531.595 976.822,531.154L976.822,522.939C976.822,521.396 975.554,520.128 974.01,520.128L971.198,520.128L971.198,531.154C971.198,531.595 970.757,532.037 970.316,532.037L968.552,532.037C968.056,532.037 967.67,531.595 967.67,531.154L967.67,506.51C967.67,505.518 968.442,504.746 969.434,504.746L974.01,504.746C977.539,504.746 980.35,507.613 980.35,511.086L980.35,513.733Z" style="fill:white;fill-rule:nonzero;"/>
        <path d="M988.455,531.154C988.455,531.651 988.069,532.037 987.573,532.037L985.809,532.037C985.313,532.037 984.927,531.651 984.927,531.154L984.927,505.628C984.927,505.132 985.313,504.746 985.809,504.746L987.573,504.746C988.014,504.746 988.455,505.132 988.455,505.628L988.455,531.154Z" style="fill:white;fill-rule:nonzero;"/>
        <path d="M1001.63,512.961L1001.63,511.086C1001.63,509.542 1000.36,508.274 998.82,508.274C997.276,508.274 996.008,509.542 996.008,511.086C996.008,511.803 996.008,511.803 996.173,512.023L1003.84,522.168C1005.16,523.932 1005.16,523.932 1005.16,525.696C1005.16,529.17 1002.29,532.037 998.82,532.037C995.346,532.037 992.479,529.17 992.479,525.696L992.479,523.822C992.479,523.326 992.865,522.939 993.361,522.939L995.126,522.939C995.622,522.939 996.008,523.326 996.008,523.822L996.008,525.696C996.008,527.24 997.276,528.508 998.82,528.508C1000.36,528.508 1001.63,527.24 1001.63,525.696C1001.63,524.979 1001.63,524.979 1001.47,524.759L993.802,514.615C992.479,512.85 992.479,512.85 992.479,511.086C992.479,507.613 995.346,504.746 998.82,504.746C1002.29,504.746 1005.16,507.613 1005.16,511.086L1005.16,512.961C1005.16,513.457 1004.77,513.843 1004.28,513.843L1002.51,513.843C1002.02,513.843 1001.63,513.457 1001.63,512.961Z" style="fill:white;fill-rule:nonzero;"/>
        <path d="M1017.23,505.628L1017.23,507.392C1017.23,507.888 1016.85,508.274 1016.35,508.274L1013.87,508.274L1013.87,531.154C1013.87,531.595 1013.49,532.037 1012.99,532.037L1011.22,532.037C1010.73,532.037 1010.34,531.595 1010.34,531.154L1010.34,508.274L1007.86,508.274C1007.37,508.274 1006.98,507.888 1006.98,507.392L1006.98,505.628C1006.98,505.132 1007.37,504.746 1007.86,504.746L1016.35,504.746C1016.85,504.746 1017.23,505.132 1017.23,505.628Z" style="fill:white;fill-rule:nonzero;"/>
        <path d="M1041.55,511.086L1041.55,531.154C1041.55,531.595 1041.16,532.037 1040.67,532.037L1038.9,532.037C1038.41,532.037 1038.02,531.595 1038.02,531.154L1038.02,511.086C1038.02,509.542 1036.75,508.274 1035.15,508.274C1033.61,508.274 1032.34,509.542 1032.34,511.086L1032.34,531.154C1032.34,531.595 1031.95,532.037 1031.46,532.037L1029.69,532.037C1029.2,532.037 1028.81,531.595 1028.81,531.154L1028.81,511.086C1028.81,509.542 1027.54,508.274 1026,508.274C1024.4,508.274 1023.13,509.542 1023.13,511.086L1023.13,531.154C1023.13,531.595 1022.75,532.037 1022.25,532.037L1020.49,532.037C1020.05,532.037 1019.6,531.595 1019.6,531.154L1019.6,511.086C1019.6,507.613 1022.47,504.746 1026,504.746C1027.76,504.746 1029.42,505.518 1030.58,506.731C1031.73,505.518 1033.39,504.746 1035.15,504.746C1038.68,504.746 1041.55,507.613 1041.55,511.086Z" style="fill:white;fill-rule:nonzero;"/>
        <path d="M1055.33,511.141C1055.33,509.597 1054.06,508.33 1052.52,508.33C1050.92,508.33 1049.65,509.597 1049.65,511.141L1049.65,516.654L1055.33,516.654L1055.33,511.141ZM1058.86,511.141L1058.86,531.154C1058.86,531.651 1058.47,532.037 1057.98,532.037L1056.21,532.037C1055.72,532.037 1055.33,531.651 1055.33,531.154L1055.33,520.183L1049.65,520.183L1049.65,531.154C1049.65,531.651 1049.27,532.037 1048.77,532.037L1047.01,532.037C1046.51,532.037 1046.12,531.651 1046.12,531.154L1046.12,511.141C1046.12,507.668 1048.99,504.801 1052.52,504.801C1055.99,504.801 1058.86,507.668 1058.86,511.141Z" style="fill:white;fill-rule:nonzero;"/>
        <path d="M1072.04,512.961L1072.04,511.086C1072.04,509.542 1070.77,508.274 1069.22,508.274C1067.68,508.274 1066.41,509.542 1066.41,511.086C1066.41,511.803 1066.41,511.803 1066.58,512.023L1074.24,522.168C1075.56,523.932 1075.56,523.932 1075.56,525.696C1075.56,529.17 1072.7,532.037 1069.22,532.037C1065.75,532.037 1062.88,529.17 1062.88,525.696L1062.88,523.822C1062.88,523.326 1063.27,522.939 1063.77,522.939L1065.53,522.939C1066.03,522.939 1066.41,523.326 1066.41,523.822L1066.41,525.696C1066.41,527.24 1067.68,528.508 1069.22,528.508C1070.77,528.508 1072.04,527.24 1072.04,525.696C1072.04,524.979 1072.04,524.979 1071.87,524.759L1064.21,514.615C1062.88,512.85 1062.88,512.85 1062.88,511.086C1062.88,507.613 1065.75,504.746 1069.22,504.746C1072.7,504.746 1075.56,507.613 1075.56,511.086L1075.56,512.961C1075.56,513.457 1075.18,513.843 1074.68,513.843L1072.92,513.843C1072.42,513.843 1072.04,513.457 1072.04,512.961Z" style="fill:white;fill-rule:nonzero;"/>
        <path d="M1036.95,349.028C1037.61,349.03 1038.29,349.132 1038.99,349.329C1039.84,349.567 1040.65,349.923 1041.41,350.388C1041.93,350.701 1042.36,351.077 1042.66,351.6C1042.96,352.102 1043.15,352.712 1043.63,353.079C1044.48,353.73 1044.62,351.404 1044.82,350.912C1044.98,350.521 1045.18,350.244 1045.49,349.949C1045.93,349.526 1046.54,349.042 1047.09,348.766C1047.73,348.438 1048.71,348.585 1049.4,348.609C1050.02,348.629 1050.9,348.943 1051.46,348.803C1051.42,348.279 1050.26,347.762 1049.85,347.51C1049.06,347.025 1048.22,346.69 1047.5,346.095C1046.7,345.433 1046.06,344.463 1045.63,343.526C1045.16,342.497 1045.06,341.586 1045.25,340.478C1045.29,340.215 1045.46,339.853 1045.33,339.603C1044.85,339.546 1044.21,339.948 1043.71,340.005C1042.03,340.197 1040.48,339.968 1039.08,338.959C1038.21,338.334 1037.14,337.457 1036.6,336.219C1036.55,336.112 1036.51,335.953 1036.46,335.784C1036.34,335.322 1036.21,334.798 1035.83,334.667C1035.75,334.64 1035.66,334.626 1035.57,334.626C1035.26,334.625 1034.95,334.795 1034.68,334.946C1034.57,335.008 1034.46,335.067 1034.36,335.109C1033.75,335.371 1033.13,335.556 1032.52,335.658C1032.14,335.72 1031.75,335.751 1031.37,335.749C1030.46,335.746 1029.57,335.569 1028.72,335.223C1028.31,335.054 1027.89,334.825 1027.39,334.502C1027.37,334.487 1027.34,334.48 1027.32,334.48C1027.29,334.479 1027.26,334.488 1027.24,334.504C1027.19,334.535 1027.17,334.591 1027.18,334.646C1027.34,335.387 1027.38,336.137 1027.29,336.874C1027.21,337.593 1026.99,338.32 1026.65,339.036C1026.64,339.074 1026.64,339.118 1026.65,339.155C1026.67,339.193 1026.71,339.22 1026.75,339.23C1028.18,339.563 1029.37,339.864 1030.49,340.178C1034.74,341.374 1038.16,342.933 1041.57,345.233C1041.85,345.418 1041.9,345.589 1041.89,345.642C1041.88,345.664 1041.84,345.667 1041.82,345.667C1041.77,345.666 1041.66,345.648 1041.48,345.527C1037.72,342.997 1032.75,341.146 1026.29,339.866C1026.28,339.865 1026.27,339.864 1026.27,339.864C1026.22,339.863 1026.18,339.886 1026.15,339.925C1025.37,341.096 1024.29,341.991 1023.04,342.512C1022.47,342.75 1021.87,342.911 1021.26,342.989C1021.13,343.006 1020.98,343.014 1020.82,343.013C1020.65,343.013 1020.48,343.004 1020.31,342.995C1020.31,342.995 1020.08,342.984 1020.07,342.984C1020.02,342.983 1019.98,343.009 1019.95,343.052C1019.93,343.096 1019.93,343.151 1019.96,343.195C1020.71,344.376 1021.2,345.668 1021.18,347.083C1021.17,347.771 1021.43,347.665 1021.95,347.367C1022.35,347.139 1022.75,346.935 1023.16,346.725C1024.16,346.213 1024.92,346.123 1026.02,346.288C1027.37,346.49 1028.75,347.092 1030,348.029C1030.89,348.695 1031.45,349.432 1032,350.393C1032.16,350.665 1032.3,351.242 1032.55,351.42C1033.07,351.783 1033.45,350.898 1033.71,350.564C1034.05,350.135 1034.42,349.81 1034.87,349.516C1035.45,349.143 1036.28,349.025 1036.95,349.028Z" style="fill:white;fill-rule:nonzero;"/>
        <path d="M975.337,348.945C976.486,348.868 977.768,349.01 978.774,349.609C979.657,350.135 979.89,351.104 980.43,351.912C980.798,352.464 981.099,351.997 981.404,351.543C981.713,351.08 982.033,350.596 982.423,350.207C982.867,349.764 983.438,349.402 983.989,349.112C985.195,348.476 986.419,348.113 987.628,348.033C987.816,348.02 988.007,348.014 988.193,348.016C989.646,348.026 990.484,348.498 991.623,349.309C991.862,349.478 992.23,350.014 992.508,350.076C993.07,350.202 993.175,349.197 993.235,348.848C993.362,348.107 993.421,347.57 993.861,346.935C994.349,346.23 994.925,345.577 995.572,344.993C995.617,344.952 995.665,344.916 995.714,344.879C995.756,344.847 995.797,344.815 995.838,344.781C995.875,344.749 995.893,344.699 995.884,344.651C995.875,344.602 995.84,344.562 995.794,344.546C994.293,344.024 993.004,342.99 992.162,341.634C992.137,341.594 992.092,341.569 992.045,341.569C990.151,341.577 988.445,341.633 986.827,341.742C981.232,342.116 976.724,343.129 973.044,344.84C972.934,344.891 972.832,344.921 972.751,344.927C972.674,344.932 972.627,344.914 972.621,344.894C972.61,344.85 972.678,344.683 972.997,344.534C976.73,342.799 980.351,341.796 984.737,341.281C986.045,341.128 987.397,341.008 989.121,340.893C989.909,340.84 990.7,340.793 991.503,340.746C991.547,340.743 991.587,340.719 991.61,340.683C991.634,340.645 991.638,340.598 991.622,340.558C991.13,339.339 990.991,337.988 991.235,336.696C991.339,336.141 992.134,334.551 991.191,334.295C990.876,334.209 990.655,334.651 990.461,334.854C989.572,335.788 988.515,336.368 987.255,336.663C986.879,336.752 986.493,336.81 986.108,336.836C985.196,336.897 984.299,336.783 983.442,336.497C982.325,336.128 981.558,335.531 980.823,334.622C980.667,334.429 980.29,333.828 980.025,333.925C979.785,334.013 979.703,334.701 979.65,334.922C979.419,335.873 979.262,336.671 978.529,337.356C977.917,337.927 977.189,338.357 976.445,338.731C975.675,339.119 974.802,339.348 973.85,339.411C972.538,339.499 971.61,338.883 970.416,338.484C969.818,338.284 969.993,338.605 970.083,339.044C970.319,340.202 969.89,341.261 969.254,342.213C968.115,343.913 966.501,344.75 964.622,345.436C964.157,345.606 962.046,346 961.962,346.505C963.261,346.694 964.548,346.315 965.828,346.714C966.828,347.025 967.753,347.746 968.389,348.58C968.853,349.187 969.222,350.045 969.303,350.809C969.329,351.058 969.209,351.975 969.475,352.032C969.725,352.085 970.362,351.137 970.548,350.946C970.912,350.573 971.231,350.235 971.705,349.986C972.709,349.459 973.77,349.118 974.901,348.985C975.046,348.968 975.191,348.955 975.337,348.945Z" style="fill:white;fill-rule:nonzero;"/>
        <path d="M1008.86,332.367C1005.01,332.495 1001.88,335.491 1001.58,339.335C1001.43,341.344 1002.07,343.295 1003.38,344.829C1004.69,346.363 1006.52,347.293 1008.53,347.448C1008.81,347.47 1009.09,347.476 1009.37,347.467C1013.22,347.338 1016.35,344.342 1016.65,340.498C1016.97,336.345 1013.85,332.706 1009.7,332.385C1009.42,332.364 1009.13,332.357 1008.86,332.367Z" style="fill:rgb(229,185,95);fill-rule:nonzero;"/>
        <path d="M998.522,330.899C995.353,331.005 992.778,333.472 992.534,336.637C992.406,338.291 992.931,339.897 994.013,341.161C995.095,342.424 996.602,343.19 998.256,343.317C998.476,343.334 998.74,343.351 999.023,343.341C999.924,343.311 1000.44,343.03 1000.55,342.505C1000.61,342.254 1000.49,341.888 1000.38,341.534C1000.32,341.339 1000.26,341.156 1000.25,341.026C1000.17,340.431 1000.15,339.828 1000.2,339.235C1000.3,337.883 1000.73,336.554 1001.43,335.393C1001.54,335.199 1001.76,334.957 1001.99,334.701C1002.56,334.071 1003.21,333.358 1003.01,332.708C1002.65,331.557 1000.25,330.994 999.214,330.914C998.984,330.896 998.752,330.891 998.522,330.899Z" style="fill:rgb(229,185,95);fill-rule:nonzero;"/>
        <path d="M1019.37,329.09C1018.34,329.124 1017.33,329.416 1016.45,329.935C1015.86,330.281 1014.88,330.86 1014.57,331.655C1014.26,332.44 1015,333.049 1015.59,333.538C1015.82,333.723 1016.03,333.898 1016.17,334.066C1017.08,335.123 1017.73,336.401 1018.06,337.763C1018.17,338.211 1018.19,338.696 1018.21,339.164C1018.23,339.57 1018.25,339.989 1018.33,340.392C1018.33,340.431 1018.34,340.473 1018.35,340.518C1018.4,340.84 1018.47,341.28 1018.77,341.466C1018.84,341.514 1018.94,341.549 1019.06,341.571C1019.18,341.593 1019.33,341.601 1019.5,341.595C1019.94,341.581 1020.45,341.475 1020.75,341.412L1020.81,341.399C1023.52,340.844 1025.55,338.535 1025.76,335.786C1026.03,332.365 1023.46,329.368 1020.04,329.104C1019.82,329.087 1019.59,329.082 1019.37,329.09Z" style="fill:rgb(229,185,95);fill-rule:nonzero;"/>
        <path d="M1035.8,332.216C1036.05,332.259 1036.29,332.459 1036.5,332.921C1037.28,334.638 1037.97,336.528 1039.87,337.283C1040.64,337.586 1041.48,337.721 1042.46,337.695C1042.51,337.694 1042.55,337.669 1042.58,337.63C1042.98,336.971 1043.45,336.41 1043.98,335.965C1045.14,334.974 1046.66,334.336 1048.38,334.12C1048.7,334.08 1049.03,334.055 1049.36,334.044C1051.39,333.976 1053.06,334.634 1054.68,335.843C1054.9,336.009 1055.22,336.583 1055.48,336.609C1055.88,336.648 1055.72,335.628 1055.71,335.314C1055.69,334.761 1055.67,334.223 1055.73,333.682C1055.96,331.845 1056.67,329.918 1058.2,328.751C1059.05,328.106 1060.13,327.832 1061.15,327.583C1061.43,327.514 1063.56,327.268 1062.96,326.792C1062.71,326.588 1061.76,326.693 1061.42,326.651C1060.78,326.573 1060.14,326.465 1059.51,326.344C1058.42,326.138 1057.22,325.961 1056.21,325.494C1055.33,325.085 1054.48,324.351 1053.83,323.632C1052.85,322.573 1052.48,321.531 1052.31,320.122C1052.27,319.785 1052.35,319.402 1052.27,319.077C1052.11,318.391 1051.69,319.006 1051.37,319.278C1050.98,319.615 1050.56,319.952 1050.14,320.243C1049.55,320.643 1048.8,320.999 1048.1,321.163C1046.82,321.463 1045.76,321.657 1044.45,321.307C1043.07,320.941 1042.19,320.164 1041.19,319.166C1040.73,318.715 1040.4,318.15 1040.06,317.613C1039.81,317.23 1039.66,316.515 1039.34,316.206C1038.87,315.74 1038.65,316.489 1038.47,316.869C1037.12,319.729 1034.42,321.833 1031.22,321.94C1031.13,321.943 1031.05,321.944 1030.97,321.944C1029.26,321.944 1028.05,320.603 1026.41,320.464C1025.24,320.364 1025,322.685 1024.58,323.428C1024.05,324.349 1023.59,325.064 1023.12,325.677C1022.44,326.558 1021.6,327.32 1020.61,327.943C1020.56,327.975 1020.53,328.035 1020.55,328.092C1020.56,328.15 1020.61,328.192 1020.67,328.196C1021.7,328.279 1022.68,328.588 1023.59,329.114C1023.62,329.127 1023.64,329.133 1023.67,329.133C1023.68,329.132 1023.69,329.131 1023.69,329.129C1024.36,328.963 1025.15,328.772 1025.97,328.616L1026.35,328.545C1029.27,327.99 1032.03,327.466 1034.95,327.096C1036.54,326.897 1038.02,326.777 1039.47,326.728C1043.03,326.609 1046.31,326.927 1049.8,327.726C1050.21,327.821 1050.35,328.017 1050.34,328.119C1050.33,328.202 1050.22,328.259 1050.06,328.265C1049.97,328.268 1049.88,328.257 1049.77,328.233C1047.13,327.627 1044.16,327.375 1040.94,327.482C1036.43,327.633 1031.42,328.456 1025.17,330.07C1025.13,330.082 1025.09,330.119 1025.08,330.166C1025.06,330.213 1025.07,330.264 1025.11,330.299C1025.41,330.613 1025.69,330.956 1025.93,331.317C1026.15,331.577 1026.37,331.838 1026.61,332.091C1026.94,332.429 1027.37,332.854 1027.84,333.147C1028.66,333.662 1029.66,333.952 1030.52,333.924C1031.82,333.88 1033.09,333.494 1034.23,332.866C1034.82,332.544 1035.34,332.14 1035.8,332.216Z" style="fill:white;fill-rule:nonzero;"/>
        <path d="M964.619,331.984C965.679,331.839 966.745,331.977 967.801,332.279C969.469,332.756 970.876,333.62 971.869,334.776C972.318,335.3 972.698,335.926 972.998,336.637C973.016,336.679 973.054,336.71 973.099,336.719C973.644,336.818 974.168,336.86 974.657,336.844C975.024,336.832 975.383,336.786 975.722,336.709C978.1,336.172 979.152,333.893 979.951,331.799C980.026,331.603 980.219,331.462 980.42,331.455C980.506,331.452 980.632,331.475 980.739,331.598C981.486,332.451 982.348,333.053 983.261,333.691C983.482,333.845 983.705,334 983.927,334.16C984.286,334.418 984.852,334.676 985.304,334.787C985.632,334.868 985.992,334.902 986.374,334.889C987.001,334.868 987.666,334.719 988.247,334.469C988.752,334.253 989.245,333.898 989.619,333.614C989.923,333.384 990.212,333.134 990.491,332.893C990.66,332.747 990.83,332.6 991.005,332.456C991.102,332.377 991.221,332.33 991.339,332.326C991.431,332.323 991.563,332.345 991.675,332.466C991.872,332.681 992.064,332.912 992.234,333.116C992.261,333.149 992.302,333.168 992.348,333.166C992.392,333.163 992.431,333.14 992.455,333.103C992.564,332.934 992.686,332.771 992.779,332.649C992.805,332.615 992.814,332.572 992.803,332.531C992.793,332.491 992.764,332.457 992.726,332.44C985.828,329.382 976.826,325.909 968.375,326.192C968.023,326.203 967.67,326.222 967.326,326.246L967.27,326.249C966.959,326.259 966.79,326.161 966.785,326.059C966.779,325.948 966.965,325.772 967.381,325.742C967.923,325.703 968.467,325.675 968.998,325.657C973.317,325.513 977.494,326.066 982.145,327.398C984.993,328.216 987.647,329.161 990.458,330.161L990.787,330.278C991.696,330.603 992.675,330.999 993.78,331.49C993.8,331.498 993.82,331.502 993.841,331.501C993.87,331.5 993.899,331.49 993.923,331.47C994.58,330.935 996.282,330.536 995.618,329.46C995.379,329.073 995.072,328.714 994.849,328.302C994.082,326.891 993.521,325.371 992.831,323.922C992.616,323.47 992.349,322.07 991.902,321.835C991.506,321.627 990.958,322.274 990.621,322.437C989.44,323.006 988.162,323.122 986.876,322.919C985.292,322.67 983.655,321.923 982.503,320.789C982.039,320.332 981.687,319.643 981.331,319.097C980.873,318.396 980.532,317.627 980.126,316.896C979.913,316.511 979.746,315.848 979.242,316.203C978.823,316.498 978.636,317.179 978.355,317.588C977.269,319.165 975.517,320.022 973.654,320.221C973.499,320.237 973.341,320.248 973.183,320.253C971.133,320.322 969.123,319.4 967.705,317.922C967.331,317.533 967.072,316.923 966.675,316.574C966.128,316.095 966.13,316.816 966.118,317.254C966.11,317.541 966.137,317.804 966.091,318.086C965.891,319.331 964.979,320.319 964.029,321.078C963.061,321.85 962.062,322.275 960.873,322.543C959.795,322.785 958.643,322.939 957.521,322.909C956.895,322.892 956.29,322.845 955.67,322.75C955.42,322.712 954.464,322.404 954.319,322.679C954.08,323.13 956.053,323.738 956.375,323.855C958.478,324.624 959.901,326.506 960.522,328.612C960.849,329.725 960.806,330.798 960.637,331.938C960.575,332.356 960.108,332.992 960.16,333.391C960.245,334.036 961.232,333.223 961.556,333.069C962.205,332.761 962.858,332.459 963.543,332.232C963.901,332.114 964.26,332.033 964.619,331.984Z" style="fill:white;fill-rule:nonzero;"/>
        <path d="M998.509,329.302C998.755,329.294 998.997,329.299 999.229,329.317C1000.19,329.391 1001.15,329.675 1002,330.138C1002.29,330.299 1002.55,330.492 1002.79,330.678C1003.14,330.942 1003.46,331.191 1003.85,331.297C1003.86,331.301 1003.88,331.302 1003.89,331.302C1003.93,331.301 1003.96,331.285 1003.99,331.258C1004.02,331.221 1004.03,331.168 1004.02,331.119C1002.23,325.936 999.267,318.506 994.193,313.848C994.003,313.674 993.966,313.53 993.992,313.459C994.013,313.403 994.076,313.393 994.112,313.392C994.227,313.388 994.375,313.46 994.516,313.589C997.553,316.374 999.806,319.443 1001.82,323.541C1002.91,325.763 1003.82,327.95 1004.78,330.265L1004.89,330.549C1004.93,330.628 1004.96,330.709 1004.98,330.79C1005.01,330.861 1005.03,330.932 1005.06,331.002C1005.08,331.037 1005.1,331.065 1005.14,331.079C1005.16,331.086 1005.18,331.09 1005.2,331.089C1005.21,331.089 1005.23,331.084 1005.25,331.077C1006.06,330.709 1006.93,330.491 1007.81,330.351C1008.41,330.256 1009.19,330.24 1009.58,329.691C1009.94,329.202 1010.1,328.546 1010.37,328.006C1010.63,327.497 1011.12,326.861 1011.08,326.262C1011.03,325.469 1009.91,325.485 1009.35,325.246C1008.52,324.896 1007.86,324.363 1007.37,323.619C1006.6,322.471 1006.18,321.016 1006.24,319.635C1006.26,319.095 1006.49,318.587 1006.58,318.047C1006.69,317.403 1006.82,316.77 1007.15,316.195C1007.31,315.898 1007.81,315.187 1007.51,314.867C1007.24,314.57 1006.49,314.955 1006.17,315.016C1004.4,315.351 1002.96,315.118 1001.58,313.943C1000.83,313.303 1000.22,312.381 999.834,311.278C999.544,310.46 999.578,309.631 999.602,308.773C999.609,308.501 999.743,307.97 999.596,307.727C999.347,307.317 999.033,307.774 998.748,307.981C998.068,308.476 997.317,308.648 996.488,308.676C996.185,308.686 995.876,308.675 995.572,308.643C994.063,308.488 992.379,307.809 991.308,306.702C991.009,306.393 990.76,306.069 990.505,305.718C989.941,304.945 989.461,304.107 988.851,303.379C988.287,302.705 988.412,303.319 988.596,303.8C988.782,304.283 989.04,304.755 989.216,305.244C989.958,307.315 989.934,309.275 988.814,311.194C988.253,312.156 987.365,313.048 986.384,313.591C986.126,313.734 985.249,313.994 985.83,314.327C986.029,314.44 986.295,314.402 986.512,314.45C986.839,314.521 987.173,314.657 987.48,314.789C988.907,315.402 989.942,316.505 990.618,317.885C991.02,318.696 991.265,319.567 991.348,320.477C991.352,320.521 991.377,320.56 991.415,320.583C991.438,320.596 991.464,320.603 991.49,320.602C991.507,320.601 991.525,320.597 991.541,320.59L991.648,320.542C991.845,320.455 992.041,320.367 992.242,320.284C992.314,320.255 992.39,320.238 992.467,320.236C992.726,320.227 992.944,320.372 993.049,320.624C993.35,321.342 993.614,322.096 993.869,322.824C994.243,323.891 994.63,324.994 995.141,326.02C995.794,327.328 996.745,328.466 997.892,329.312C997.917,329.33 997.947,329.34 997.978,329.339C997.981,329.339 997.984,329.338 997.987,329.338C998.165,329.32 998.341,329.308 998.509,329.302Z" style="fill:white;fill-rule:nonzero;"/>
        <path d="M1025.15,311.266C1025.24,311.263 1025.3,311.293 1025.32,311.345C1025.34,311.425 1025.28,311.568 1025.06,311.709C1019,315.752 1014.71,323.235 1011.65,329.303C1011.56,329.485 1011.48,329.677 1011.4,329.862L1011.35,330.001C1011.33,330.039 1011.33,330.082 1011.35,330.118C1011.37,330.155 1011.41,330.181 1011.45,330.189C1011.8,330.261 1012.14,330.354 1012.48,330.465C1012.94,330.619 1013.59,331.027 1014.02,330.662C1014.37,330.368 1014.57,329.863 1014.89,329.532C1015.8,328.592 1016.8,327.959 1017.97,327.39C1019.1,326.847 1020.5,326.491 1021.42,325.602C1022.49,324.562 1023.06,323.216 1023.72,321.885C1024.01,321.287 1024.35,320.703 1024.63,320.1C1024.81,319.715 1024.92,319.17 1025.26,318.909C1025.64,318.618 1025.88,318.784 1026.27,318.931C1026.86,319.153 1026.86,318.689 1026.98,318.248C1027.19,317.537 1027.55,316.85 1027.97,316.247C1028.85,314.996 1029.67,314.267 1031.16,313.846C1031.77,313.673 1032.47,313.621 1032.98,313.231C1033,312.66 1032.25,312.131 1031.9,311.766C1031.4,311.234 1031.06,310.592 1030.79,309.912C1030.12,308.226 1030.15,306.643 1030.89,304.993C1031.16,304.392 1031.96,303.154 1031.82,302.515C1031.43,302.518 1031.13,303.032 1030.89,303.279C1030.53,303.637 1030.13,303.994 1029.74,304.342C1028.42,305.516 1026.89,306.299 1025.11,306.359C1024.9,306.366 1024.7,306.364 1024.5,306.354C1023.33,306.295 1022.09,305.932 1021.22,305.101C1021.02,304.91 1020.82,304.464 1020.53,304.489C1020.53,304.991 1020.53,305.479 1020.49,305.972C1020.45,306.422 1020.24,306.831 1020.14,307.266C1020.05,307.651 1020.08,307.947 1019.89,308.304C1019.33,309.335 1018.59,310.152 1017.75,310.668C1016.48,311.45 1015.33,311.799 1013.82,311.43C1013.42,311.33 1012.97,311.227 1012.58,311.067C1012.33,310.963 1012.14,310.755 1011.87,310.692C1011.21,310.543 1011.48,311.161 1011.58,311.506C1011.97,312.804 1012.47,314.317 1012.26,315.664C1012.04,317.088 1011.45,318.36 1010.55,319.342C1010.1,319.83 1009.57,320.26 1008.96,320.621C1008.83,320.697 1008.67,320.766 1008.49,320.838C1008.27,320.928 1008.05,321.021 1007.84,321.146C1007.79,321.177 1007.77,321.235 1007.78,321.292C1007.97,322.161 1008.48,323.031 1009.12,323.62C1009.54,323.996 1010.08,324.276 1010.5,324.477C1010.85,324.642 1011.21,324.781 1011.55,324.916C1011.77,324.999 1011.98,325.081 1012.19,325.17C1012.28,325.208 1012.35,325.279 1012.41,325.381C1012.43,325.424 1012.48,325.452 1012.53,325.454C1012.53,325.453 1012.53,325.454 1012.53,325.454C1012.58,325.452 1012.62,325.427 1012.65,325.388C1013.67,323.709 1014.78,321.919 1016.04,320.115C1018.66,316.375 1021.36,313.689 1024.78,311.404C1024.95,311.294 1025.07,311.268 1025.15,311.266Z" style="fill:white;fill-rule:nonzero;"/>
        <path d="M1008,335.934C1008,336.686 1007.4,337.295 1006.64,337.295C1005.89,337.295 1005.28,336.686 1005.28,335.934C1005.28,335.183 1005.89,334.573 1006.64,334.573C1007.4,334.573 1008,335.183 1008,335.934Z" style="fill:rgb(30,30,30);fill-rule:nonzero;"/>
        <path d="M997.004,334.063C997.004,334.658 996.522,335.14 995.927,335.14C995.332,335.14 994.849,334.658 994.849,334.063C994.849,333.468 995.332,332.986 995.927,332.986C996.522,332.986 997.004,333.468 997.004,334.063Z" style="fill:rgb(30,30,30);fill-rule:nonzero;"/>
        <path d="M1023.26,332.079C1023.26,332.674 1022.77,333.156 1022.18,333.156C1021.58,333.156 1021.1,332.674 1021.1,332.079C1021.1,331.484 1021.58,331.001 1022.18,331.001C1022.77,331.001 1023.26,331.484 1023.26,332.079Z" style="fill:rgb(30,30,30);fill-rule:nonzero;"/>
    </g>
</svg>
