<?xml version="1.0" encoding="UTF-8" standalone="no"?>
<!DOCTYPE svg PUBLIC "-//W3C//DTD SVG 1.1//EN" "http://www.w3.org/Graphics/SVG/1.1/DTD/svg11.dtd">
<svg width="100%" height="100%" viewBox="0 0 226 193" version="1.1" xmlns="http://www.w3.org/2000/svg" xmlns:xlink="http://www.w3.org/1999/xlink" xml:space="preserve" xmlns:serif="http://www.serif.com/" style="fill-rule:evenodd;clip-rule:evenodd;stroke-linejoin:round;stroke-miterlimit:1.41421;">
    <g transform="matrix(1,0,0,1,-612.364,-58.5996)">
        <path d="M827.913,150.442C829.691,149.102 831.343,149.03 831.801,149.693C832.785,151.119 831.565,153.239 830.821,154.573C828.054,159.539 824.529,162.962 820.891,166.967C820.841,158.441 824.379,153.103 827.913,150.442ZM832.218,180.957C830.21,179.679 827.885,178.89 825.596,178.284C824.76,178.063 823.914,177.886 823.061,177.741C822.652,174.863 822.343,172.322 822.119,171.18C828.231,166.565 833.398,162.146 835.78,158.158C837.622,155.073 838.64,149.996 836.198,147.772C834.073,145.837 830.988,145.137 826.351,148.457C822.438,151.258 820.154,156.295 818.999,160.885C818.517,162.802 818.257,165.745 818.112,168.921C814.858,172 811.177,174.769 810.299,174.06C809.799,173.657 810.36,171.467 810.501,170.954C811.042,168.995 812.024,167.147 812.848,165.643C813.561,164.343 816.877,159.24 817.813,158.09C820.207,155.151 812.834,150.82 810.992,152.97C806.237,158.522 804.043,168.882 804.043,168.882C804.043,168.882 800.955,175.03 798.862,174.404C796.973,173.839 798.174,167.134 801.58,160.575C806.458,151.18 810.162,149.412 811.456,149.077C812.362,148.843 813.451,148.855 813.951,150.114C814.825,152.314 816.12,151.564 815.3,148.745C814.63,146.444 813.324,143.19 812.495,141.43C810.694,137.605 808.069,139.107 805.751,140.988C802.49,143.635 798.133,149.545 795.227,157.604C793.968,161.097 793.278,164.348 793.133,167.152C790.414,169.861 788.946,170.832 787.795,170.513C786.5,170.155 790.926,158.308 792.296,154.315C794.619,147.547 793.489,144.107 792.14,142.231C790.79,140.356 787.23,138.102 785.874,138.608C784.547,139.104 782.021,143.13 779.987,146.536C780.489,141.963 779.315,139.514 778.089,138.1C776.576,136.354 772.732,134.263 771.522,135.057C769.461,136.411 766.526,142.484 764.126,149.05C765.563,141.98 767.602,135.274 767.948,133.578C768.453,131.103 763.24,129.638 761.449,130.144C758.499,130.978 758.119,136.768 757.557,139.18C755.224,149.207 754.641,163.437 758.59,171.453C760.218,174.76 763.753,176.981 764.23,175.923C764.669,174.949 763.182,174.988 762.598,167.233C762.413,164.774 762.449,161.679 762.691,159.849C763.73,151.975 770.403,137.957 772.095,138.122C773.046,138.214 773.222,139.732 770.99,149.056C769.285,156.182 767.985,163.922 769.194,166.906C770.728,170.693 776.978,173.211 776.478,171.241C775.448,167.177 777.081,159.423 778.421,153.848C778.458,153.775 778.495,153.7 778.533,153.616C780.317,149.706 785.244,141.47 786.168,141.712C787.092,141.954 787.145,143.417 784.08,152.502C781.738,159.445 780.206,164.757 781.141,167.838C782.327,171.748 785.049,173.786 787.08,173.713C788.214,173.673 790.679,172.025 793.168,169.801C793.391,172.344 794.187,174.334 795.516,175.563C796.993,176.931 799.999,176.255 802.147,174.618C802.984,173.98 804.457,172.574 805.223,171.746C806.247,173.684 807.781,175.197 809.086,175.579C811.278,176.222 814.892,174.06 818.013,171.643C817.96,173.579 817.937,175.518 817.921,177.293C809.173,177.2 800.061,180.258 792.525,183.805C774.325,192.373 764.822,208.554 772.314,217.738C777.471,224.059 788.534,223.612 799.056,218.422L797.95,214.698C792.09,218.725 786.019,220.876 781.484,220.492C780.372,220.398 777.994,219.77 776.185,218.534C774.693,217.515 774.235,215.9 774.476,213.987C773.328,213.918 772.412,212.971 772.412,211.805L772.412,205.45C772.412,204.239 773.397,203.255 774.607,203.255L780.051,203.255C782.213,200.558 784.627,198.19 786.583,196.796C797.162,189.263 809.146,185.614 816.849,187.085C815.478,194.387 811.863,200.941 807.289,206.276L808.803,212.028C815.916,206.027 821.57,197.739 823.07,188.007C826.476,189.171 827.444,191.603 827.897,195.291C828.172,197.523 828.17,200.437 831.271,199.074C834.678,197.577 837.392,193.954 837.601,190.332C837.807,186.77 835.056,182.764 832.218,180.957ZM696.241,134.664C697.709,136.794 696.72,141.175 695.49,142.995C691.702,138.844 694.89,132.705 696.241,134.664ZM694.921,145.982C696.335,147.667 699.718,148.844 701.79,148.49C697.871,176.228 709.446,190.088 717.032,185.491C718.962,184.321 712.733,187.217 709.864,168.007C708.626,159.723 711.912,146.194 712.233,143.682C712.554,141.17 704.973,139.239 703.732,140.958C701.549,143.979 699.044,144.926 696.798,143.991C699.995,140.025 700.197,131.268 695.209,131.937C691.066,132.494 689.696,140.101 693.604,144.69C692.299,145.739 690.184,145.787 688.989,145.254C686.39,144.094 686.439,141.53 687.332,139.348C687.623,138.638 686.679,137.661 685.948,137.374C685.251,137.101 684.091,136.949 683.577,137.379C681.659,138.983 681.914,142.906 683.241,144.801C686.035,148.792 691.202,148.879 694.921,145.982ZM676.056,147.688C672.314,130.039 668.629,110.01 671.077,108.783C675.953,106.338 679.162,120.269 676.056,147.688ZM707.805,193.79C710.647,192.361 708.062,192.482 706.566,192.027C703.673,191.146 701.959,188.629 700.532,186.164C698.898,183.338 698.055,180.228 697.48,177.044C697.462,176.948 697.445,176.852 697.427,176.756C696.302,170.535 696.311,164.453 696.509,158.176C696.635,154.19 694.122,153.801 691.982,153.077C690.133,152.452 686.997,152.691 685.711,153.633C684.469,154.544 681.829,160.489 679.932,166.645C679.883,166.426 678.624,160.786 677.818,157.467C680.402,140.666 683.357,120.666 677.857,110.052C676.181,106.817 673.49,105.882 665.514,105.048C661.163,104.594 654.796,102.464 656.074,110.374C658.534,125.614 661.626,136.148 663.167,144.493C664.454,151.459 668.488,167.087 670.824,175.403C671.615,180.336 672.336,185.405 672.22,189.758C671.925,200.793 671.556,214.777 660.23,217.116C654.526,218.294 645.823,212.599 639.823,199.563C636.533,192.415 632.046,178.068 630.812,165.858C627.066,128.81 639.412,127.606 642.673,128.86C649.407,131.449 651.479,142.864 652.093,148.792C653.031,157.842 651.217,165.617 640.535,170.087C637.509,171.353 644.201,178.884 646.854,178.77C649.82,178.642 651.742,175.812 653.077,171.869C655.096,165.902 655.535,157.331 654.943,148.241C654.529,141.878 651.155,128.007 644.489,122.287C641.3,119.551 632.512,115.554 626.838,117.402C618.87,119.995 608.623,129.548 613.737,164.578C616.102,180.783 623.272,198.186 630.284,208.061C639.396,220.893 651.531,225.37 662.446,221.574C674.759,217.291 676.5,202.835 675.767,189.642C677.359,193.102 679.227,196.223 681.602,199.185C685.377,203.89 688.851,203.777 689.716,202.487C690.581,201.196 688.398,198.134 687.336,195.176C685.252,189.371 683.539,183.432 682.327,177.387C681.119,171.365 681.882,168.007 682.526,165.756C683.015,164.05 684.031,158.623 686.003,157.807C686.998,157.395 686.547,162.247 687.199,169.912C687.789,176.852 688.815,182.846 693.236,188.428C696.674,192.769 702.204,196.605 707.805,193.79ZM725.099,139.456C725.699,141.776 724.305,144.142 721.985,144.742C719.666,145.342 717.299,143.947 716.699,141.628C716.1,139.308 717.494,136.942 719.814,136.342C722.133,135.742 724.5,137.137 725.099,139.456ZM720.706,112.713C724.215,116.203 731.204,121.481 742.165,123.599C743.169,123.793 744.194,123.952 745.23,124.084C745.517,117.357 745.725,110.63 746.498,103.918C747.135,98.393 750.322,100.605 752.882,103.872C755.486,107.194 756.435,108.591 756.504,111.518C756.52,112.2 756.489,112.966 756.419,113.858C756.145,117.38 755.671,120.919 755.121,124.455C764.797,124.003 774.443,121.275 780.726,116.827C783.82,118.545 772.064,123.597 767.616,125.23C763.307,126.812 758.922,127.859 754.453,128.569C754.054,130.954 753.641,133.334 753.252,135.704C750.994,149.472 750.715,160.222 752.248,168.028C753.459,174.189 756.63,175.588 756.14,176.313C755.47,177.306 750.84,174.32 748.403,170.356C745.351,165.391 743.312,153.185 744.757,132.876C744.834,131.793 744.901,130.71 744.962,129.627C744.295,129.675 743.626,129.72 742.955,129.759C729.355,130.565 719.58,128.526 713.556,124.977C706.036,120.546 718.788,110.806 720.706,112.713ZM732.141,195.798C728.04,198.904 724.629,201.087 719.803,200.766C713.621,200.354 716.631,194.696 721.098,191.371C727.372,186.701 735.696,184.507 742.261,182.886C739.987,189.046 735.483,193.267 732.141,195.798ZM734.502,159.668C729.354,153.497 728.726,147.494 729.701,143.44C730.192,141.4 731.349,140.357 732.08,140.565C733.651,141.012 734.034,143.285 734.293,144.701C735.258,149.972 734.746,154.575 734.502,159.668ZM786.179,182.759C786.175,180.394 780.334,179.493 775.975,178.806C770.11,177.881 764.229,177.86 758.43,178.017C755.054,178.108 751.252,178.355 748.195,179.042C746.019,171.899 743.982,166.977 737.921,161.996C739.598,154.975 740.707,148.663 740.048,144.336C739.539,140.987 737.235,136.685 734.126,136.532C731.421,136.398 728.758,137.739 727.375,142.933C726.208,147.316 727.567,152.349 729.479,156.379C730.629,158.802 732.329,160.987 734.13,163.129C734.091,163.33 734.05,163.53 734.006,163.729C733.457,166.228 732.812,168.711 731.97,171.129C731.141,173.51 730.028,177.944 727.312,178.362C726.219,178.53 724.722,177.319 723.814,174.432C723.071,172.068 722.834,167.498 722.887,164.977C722.983,160.474 723.531,156.377 724.22,151.348C724.488,149.395 721.184,148.238 719.847,147.88C715.556,146.73 715.036,149.011 714.674,152.667C714.395,155.474 714.386,158.298 714.507,161.91C714.645,166.027 715.532,171.83 718.097,175.571C720.104,178.499 723.513,180.684 727.237,179.789C727.929,179.623 728.615,179.363 729.2,178.978C731.146,177.7 732.279,175.509 733.337,173.52C734.447,171.435 735.694,168.502 736.41,165.821C740.097,170.148 743.124,174.015 742.664,180.155C736.145,181.293 729.278,183.96 723.138,186.978C714.383,191.282 709.83,198.105 710.275,203.255L712.586,203.255C716.725,203.255 719.909,204.434 722.05,206.759C722.91,207.694 723.586,208.803 724.095,210.063C732.607,208.998 740.837,203.735 745.264,196.632C746.692,194.34 749.368,188.936 749.112,182.413C753.253,181.439 760.696,181.637 768.473,183.123C775.865,184.536 777.756,185.911 779.647,187.458C780.695,188.316 786.182,184.314 786.179,182.759Z" style="fill:rgb(229,185,95);fill-rule:nonzero;"/>
        <path d="M732.378,235.14L734.906,218.255L737.434,235.14L732.378,235.14ZM741.115,205.272C741.058,204.916 740.751,204.654 740.391,204.654L740.094,204.654C736.699,207.461 732.703,209.586 728.512,210.806L722.254,249.917C722.22,250.129 722.281,250.346 722.42,250.509C722.56,250.673 722.764,250.767 722.979,250.767L729.421,250.767C729.784,250.767 730.093,250.501 730.147,250.142L731.265,242.667L738.61,242.667L739.728,250.142C739.782,250.501 740.091,250.767 740.454,250.767L747.534,250.767C747.749,250.767 747.953,250.673 748.092,250.509C748.232,250.346 748.293,250.129 748.259,249.917L741.115,205.272ZM764.02,220.759C764.02,222.3 763.716,223.391 763.142,223.916C762.532,224.473 761.682,224.744 760.544,224.744L758.536,224.744L758.536,212.5L761.182,212.5C762.188,212.5 762.886,212.764 763.317,213.306C763.783,213.893 764.02,214.92 764.02,216.358L764.02,220.759ZM772.691,247.438C772.609,246.643 772.567,245.692 772.567,244.612L772.567,237.724C772.567,235.303 772.217,233.204 771.526,231.486C770.961,230.085 770.019,228.976 768.719,228.176C770.941,226.629 772.19,224.084 772.45,220.588C771.82,220.059 771.241,219.475 770.718,218.833C767.986,215.485 767.108,211.221 768.179,206.503C768.202,206.399 768.232,206.294 768.257,206.19C766.533,205.171 764.229,204.654 761.373,204.654L750.786,204.654C750.38,204.654 750.052,204.982 750.052,205.388L750.052,250.033C750.052,250.439 750.38,250.767 750.786,250.767L757.802,250.767C758.207,250.767 758.536,250.439 758.536,250.033L758.536,232.59L760.225,232.59C761.607,232.59 762.599,232.933 763.174,233.607C763.777,234.318 764.083,235.639 764.083,237.532L764.083,244.548C764.083,245.472 764.094,246.211 764.116,246.806C764.138,247.439 764.183,247.95 764.252,248.368C764.324,248.798 764.407,249.148 764.503,249.435C764.585,249.681 764.667,249.95 764.75,250.237C764.841,250.551 765.128,250.767 765.455,250.767L772.599,250.767C772.842,250.767 773.07,250.646 773.207,250.444C773.343,250.242 773.371,249.986 773.28,249.76C772.966,248.978 772.769,248.198 772.691,247.438ZM783.63,224.158C785.508,224.158 787.468,223.943 789.468,223.543L789.468,250.033C789.468,250.439 789.139,250.767 788.734,250.767L781.718,250.767C781.313,250.767 780.984,250.439 780.984,250.033L780.984,224.007C781.836,224.104 782.716,224.158 783.63,224.158ZM822.8,205.597L813.966,235.343L813.966,250.033C813.966,250.439 813.638,250.767 813.232,250.767L806.216,250.767C805.81,250.767 805.482,250.439 805.482,250.033L805.482,235.343L796.802,206.12L796.802,211.766C796.802,212.171 796.474,212.5 796.068,212.5L794.074,212.5L789.468,212.5L789.468,217.204C786.92,218.212 784.489,218.766 782.355,218.766C782.04,218.766 781.729,218.753 781.433,218.728C781.305,218.717 781.151,218.695 780.984,218.665L780.984,212.5L776.378,212.5L774.384,212.5C773.978,212.5 773.65,212.171 773.65,211.766L773.65,205.388C773.65,204.982 773.978,204.654 774.384,204.654L796.068,204.654C796.347,204.654 796.586,204.81 796.71,205.039C796.727,205.008 796.741,204.977 796.762,204.949C796.901,204.763 797.119,204.654 797.351,204.654L804.685,204.654C805.019,204.654 805.31,204.879 805.395,205.201L810.043,222.85L813.431,209.983C815.073,208.291 816.553,206.507 817.872,204.654L822.097,204.654C822.328,204.654 822.547,204.763 822.685,204.949C822.824,205.134 822.867,205.375 822.8,205.597ZM714.854,222.672C714.854,224.424 714.485,225.16 714.176,225.47C713.72,225.925 713.055,226.147 712.144,226.147L709.562,226.147L709.562,212.5L712.144,212.5C713.054,212.5 713.719,212.722 714.176,213.177C714.485,213.487 714.854,214.224 714.854,215.975L714.854,222.672ZM723.338,216.422C723.338,212.635 722.404,209.7 720.561,207.697C718.702,205.677 715.87,204.654 712.144,204.654L701.812,204.654C701.407,204.654 701.078,204.982 701.078,205.388L701.078,250.033C701.078,250.439 701.407,250.767 701.812,250.767L708.828,250.767C709.233,250.767 709.562,250.439 709.562,250.033L709.562,233.993L712.144,233.993C715.871,233.993 718.703,232.969 720.561,230.95C722.404,228.949 723.338,226.013 723.338,222.226L723.338,216.422Z" style="fill:white;fill-rule:nonzero;"/>
        <path d="M812.349,85.273C778.087,57.85 731.324,50.992 690.637,67.402C694.219,76.301 697.802,85.2 701.384,94.099C732.472,81.56 768.202,86.8 794.382,107.753C800.371,100.26 806.36,92.766 812.349,85.273ZM682.784,92.746C682.539,98.512 682.731,104.187 683.344,109.712C692.297,103.034 702.101,98.306 712.247,95.454C711.993,94.548 711.737,93.641 711.482,92.735C707.657,93.811 703.878,95.145 700.172,96.741C696.757,88.792 693.341,80.844 689.925,72.895C681.658,76.456 673.673,81.032 666.142,86.65C671.997,88.265 677.556,90.318 682.784,92.746ZM812.41,111.609C811.001,117.206 809.2,122.591 807.037,127.712C800.359,118.759 792.31,111.433 783.397,105.807C783.9,105.011 784.402,104.215 784.905,103.42C788.266,105.541 791.507,107.896 794.604,110.482C800.144,103.837 805.683,97.192 811.223,90.547C818.132,96.316 824.482,102.978 830.099,110.51C824.027,110.389 818.114,110.772 812.41,111.609Z" style="fill:white;fill-rule:nonzero;"/>
        <path d="M720.657,78.856L720.336,65.226L724.424,64.511L727.698,83.214L724.919,83.7L722.572,70.288L722.888,84.056L720.11,84.542L715.603,71.7L717.918,84.926L715.354,85.375L712.079,66.671L716.167,65.956L720.657,78.856Z" style="fill:rgb(30,30,30);fill-rule:nonzero;"/>
        <path d="M732.535,76.993L735.409,76.893L733.635,67.347L732.535,76.993ZM739.55,82.773L736.541,82.879L735.906,79.454L732.246,79.582L731.852,83.043L729.114,83.139L731.484,64.057L735.849,63.903L739.55,82.773Z" style="fill:rgb(30,30,30);fill-rule:nonzero;"/>
        <path d="M746.409,72.692L750.572,73.034L750.079,79.035C749.954,80.567 749.483,81.713 748.668,82.471C747.853,83.23 746.715,83.549 745.255,83.429C743.795,83.309 742.725,82.809 742.044,81.927C741.364,81.046 741.086,79.839 741.213,78.307L742.021,68.466C742.146,66.935 742.617,65.79 743.433,65.031C744.247,64.272 745.385,63.953 746.845,64.073C748.305,64.192 749.375,64.693 750.056,65.575C750.736,66.457 751.014,67.663 750.888,69.195L750.737,71.033L747.925,70.802L748.091,68.774C748.148,68.09 748.048,67.597 747.792,67.294C747.535,66.992 747.172,66.821 746.704,66.783C746.235,66.744 745.849,66.853 745.548,67.11C745.245,67.366 745.066,67.837 745.01,68.522L744.171,78.74C744.114,79.426 744.214,79.914 744.471,80.208C744.729,80.501 745.092,80.667 745.561,80.705C746.029,80.744 746.414,80.64 746.716,80.392C747.017,80.145 747.196,79.679 747.252,78.994L747.539,75.506L746.187,75.395L746.409,72.692Z" style="fill:rgb(30,30,30);fill-rule:nonzero;"/>
        <path d="M755.047,65.259L757.989,65.759L754.802,84.478L751.861,83.977L755.047,65.259Z" style="fill:rgb(30,30,30);fill-rule:nonzero;"/>
        <path d="M767.396,80.216L766.758,82.658C766.371,84.145 765.71,85.192 764.776,85.799C763.842,86.406 762.667,86.524 761.249,86.155C759.832,85.785 758.864,85.108 758.345,84.122C757.827,83.136 757.762,81.9 758.149,80.412L760.641,70.858C761.029,69.371 761.689,68.324 762.624,67.717C763.557,67.11 764.733,66.992 766.15,67.361C767.568,67.731 768.536,68.409 769.054,69.394C769.572,70.38 769.638,71.616 769.25,73.103L768.785,74.888L766.055,74.176L766.568,72.208C766.741,71.543 766.728,71.04 766.527,70.697C766.327,70.355 765.999,70.125 765.544,70.007C765.089,69.888 764.691,69.929 764.349,70.129C764.007,70.33 763.749,70.763 763.576,71.428L760.989,81.349C760.815,82.014 760.829,82.513 761.032,82.846C761.235,83.18 761.564,83.405 762.02,83.524C762.474,83.643 762.872,83.606 763.212,83.415C763.551,83.223 763.808,82.795 763.981,82.13L764.665,79.505L767.396,80.216Z" style="fill:rgb(30,30,30);fill-rule:nonzero;"/>
        <path d="M772.294,83.092L774.973,84.135L777.118,74.666L772.294,83.092ZM776.452,91.174L773.646,90.081L774.417,86.684L771.004,85.355L769.274,88.378L766.721,87.384L776.444,70.793L780.513,72.378L776.452,91.174Z" style="fill:rgb(30,30,30);fill-rule:nonzero;"/>
        <path d="M786.627,75.076L789.27,76.459L781.727,90.88L786.078,93.156L784.82,95.559L777.826,91.901L786.627,75.076Z" style="fill:rgb(30,30,30);fill-rule:nonzero;"/>
    </g>
</svg>
