<?xml version="1.0" encoding="UTF-8" standalone="no"?>
<!-- Creator: CorelDRAW X6 -->

<svg
   xmlns:dc="http://purl.org/dc/elements/1.1/"
   xmlns:cc="http://creativecommons.org/ns#"
   xmlns:rdf="http://www.w3.org/1999/02/22-rdf-syntax-ns#"
   xmlns:svg="http://www.w3.org/2000/svg"
   xmlns="http://www.w3.org/2000/svg"
   xmlns:sodipodi="http://sodipodi.sourceforge.net/DTD/sodipodi-0.dtd"
   xmlns:inkscape="http://www.inkscape.org/namespaces/inkscape"
   xml:space="preserve"
   width="4.4835377in"
   height="2.74in"
   version="1.1"
   style="clip-rule:evenodd;fill-rule:evenodd;image-rendering:optimizeQuality;shape-rendering:geometricPrecision;text-rendering:geometricPrecision"
   viewBox="0 0 4483.3978 2740"
   id="svg1012"
   sodipodi:docname="95047.svg"
   inkscape:version="0.92.3 (2405546, 2018-03-11)"><metadata
   id="metadata1016"><rdf:RDF><cc:Work
       rdf:about=""><dc:format>image/svg+xml</dc:format><dc:type
         rdf:resource="http://purl.org/dc/dcmitype/StillImage" /><dc:title></dc:title></cc:Work></rdf:RDF></metadata><sodipodi:namedview
   pagecolor="#ffffff"
   bordercolor="#666666"
   borderopacity="1"
   objecttolerance="10"
   gridtolerance="10"
   guidetolerance="10"
   inkscape:pageopacity="0"
   inkscape:pageshadow="2"
   inkscape:window-width="967"
   inkscape:window-height="592"
   id="namedview1014"
   showgrid="false"
   fit-margin-top="0"
   fit-margin-left="0"
   fit-margin-right="0"
   fit-margin-bottom="0"
   inkscape:zoom="0.25056637"
   inkscape:cx="319.43063"
   inkscape:cy="-205.34423"
   inkscape:window-x="0"
   inkscape:window-y="0"
   inkscape:window-maximized="0"
   inkscape:current-layer="svg1012" />
 <defs
   id="defs4">
  <style
   type="text/css"
   id="style2">
   <![CDATA[
    .fil2 {fill:#2D2D2D;fill-rule:nonzero}
    .fil9 {fill:#58F081;fill-rule:nonzero}
    .fil3 {fill:#82E6FF;fill-rule:nonzero}
    .fil5 {fill:#9BFF82;fill-rule:nonzero}
    .fil8 {fill:#D6CFFF;fill-rule:nonzero}
    .fil10 {fill:#DEDEDE;fill-rule:nonzero}
    .fil6 {fill:#E2FF82;fill-rule:nonzero}
    .fil7 {fill:#FF8282;fill-rule:nonzero}
    .fil1 {fill:#FFB01F;fill-rule:nonzero}
    .fil4 {fill:#FFFB82;fill-rule:nonzero}
    .fil0 {fill:white;fill-rule:nonzero}
   ]]>
  </style>
 
  
  
  
  
  
  
  
  
  
  
  
  
  
  
  
  
  
  
  
  
  
  
  
  
  
  
  
  
  
  
  
  
  
  
  
  
  
  
  
  
  
  
  
  
  
  
  
  
  
  
  
  
  
  
  
  
  
  
  
  
  
  
  
  
  
  
  
  
  
  
  
  
  
  
  
  
  
  
  
  
  
  
  
  
  
  
  
  
  
  
  
  
  
  
  
  
  
  
  
  
  
  
  
  
  
  
  
  
  
  
  
  
  
  
  
  
  
  
  
  
  
  
  
  
  
  
  
  
  
  
  
  
  
  
  
  
  
  
  
  
  
  
  
  
  
  
  
  
  
  
  
  
  
  
  
  
  
  
  
  
  
  
  
  
  
  
  
  
  
  
  
  
  
  
  
  
  
  
  
  
  
  
  
  
  
  
  
  
  
  
  
  
  
  
  
  
  
  
  
  
  
  
  
  
  
  
  
  
  
  
  
  
  
  
  
  
  
  
  
  
  
  
  
  
  
  
  
  
  
  
  
  
  
  
  
  
  
  
  
  
  
  
  
  
  
  
  
  
  
  
  
  
  
  
  
  
  
  
  
  
  
  
  
  
  
  
  
  
  
  
  
  
  
  
  
  
  
  
  
  
  
  
  
  
  
  
  
  
  
  
  
  
  
  
  
  
  
  
  
  
  
  
  
  
  
  
  
  
  
  
  
  
  
  
  
  
  
  
  
  
  
  
  
  
  
  
  
  
  
  
  
  
  
  
  
  
  
  
  
  
  
  
  
  
  
  
  
  
  
  
  
  
  
  
  
  
  
  
  
  
  
  
  
  
  
  
  
  
  
  
  
  
  
  
  
  
  
  
  
  
  
  
  
  
  
  
  
  
  
  
  
  
  
  
  
  
  
  
  
  
  
  
  
  
  
  
  
  
  
  
  
  
  
  
  
  
  
  
  
  
  
  
  
  
  
  
  
  
  
  
  
  
  
  
  
  
  
  
  
  
  
  
  
  
  
  
  
  
  
  
  
  
  
  
  
  
  
  
  
  
  
  
  
  
  
  
  
  
  
  
  
  
  
  
  
  
  
  
  
  
  
  
  
  
  
  
  
  
  
  
  
  
  
  
  
  
  
  
  
  
  
  
  
 </defs>
 <path
   style="fill:#9bff82;fill-rule:nonzero"
   inkscape:connector-curvature="0"
   id="path205"
   d="m 1610.8807,795.00003 c 0,0 -140.0001,-5 -417.0001,-23 -359,-23 -688,-31 -984,-279 C 233.8806,27 1259.8806,194 1495.8807,199 c 763,16 1525,107 2284.9999,169 328,27.00003 387,33.00003 702,117.00003 -45,161 -214,208 -357,232 -277,48 -608,69 -869.9999,69 158,0 766.9999,-22 714.9999,259.99997 -50,269 -802.9999,270 -1002.9999,275 261,156 1169.9999,65 1255.9999,406 -244,154 -558,199 -835.9999,257 126.9999,41 582.9999,128 640.9999,272 57,141 -136,130 -234,154 -426.9999,102 -803.9999,65 -1246,37 -628.9999,-40 -1392,90 -1966,-134 2,-222 412,-227 544,-227 -181,-1 -535,-13 -404,-296 183,-395 470,-337 706,-334 -212,-103 -477,8 -648,-171 -130,-136 74,-492.99997 267,-463.99997 l 561.0001,-29 z"
   class="fil5" /><path
   style="fill:#ffffff;fill-rule:nonzero"
   inkscape:connector-curvature="0"
   id="path207"
   d="m 1139.8806,839.00003 c -50,0 -72,48 -74,94 46,-1 112,-11 112,-59 0,-23 -15,-35 -37,-35 z m 106,34 c 0,96 -104,112 -178,113 2,40.99997 24,73.99997 77,73.99997 37,0 64,-17 79,-27 l 24,51 c -10,9 -51,35 -110,35 -106,0 -147,-65 -147,-157.99997 0,-92 52,-173 154,-173 61,0 102,31 102,87 z"
   class="fil0" /><path
   style="fill:#ffffff;fill-rule:nonzero"
   inkscape:connector-curvature="0"
   id="path209"
   d="m 1610.8807,795.00003 v 49 l -19,1 c -8,1 -13,3 -17,15 l -81,248.99997 h -95.0001 l -87,-247.99997 c -4,-11 -7,-15 -18,-16 l -18,-1 v -49 h 147 v 50 l -38,2 64,204.99997 h 1 l 62.0001,-204.99997 -32,-2 v -50 h 132 z"
   class="fil0" /><path
   style="fill:#ffffff;fill-rule:nonzero"
   inkscape:connector-curvature="0"
   id="path211"
   d="m 1789.8807,839.00003 c -50,0 -72,48 -74,94 46,-1 112,-11 112,-59 0,-23 -15,-35 -37,-35 z m 106,34 c 0,96 -104,112 -178,113 3,40.99997 24,73.99997 77,73.99997 37,0 64,-17 79,-27 l 24,51 c -10,9 -51,35 -110,35 -106,0 -147,-65 -147,-157.99997 0,-92 52,-173 154,-173 61,0 102,31 102,87 z"
   class="fil0" /><path
   style="fill:#ffffff;fill-rule:nonzero"
   inkscape:connector-curvature="0"
   id="path213"
   d="m 1977.8807,866.00003 c 0,-14 -4,-18 -16,-19 l -26,-2 v -51 h 105 v 47 c 14,-31 47,-56 89,-56 21,0 39,4 60,14 v 93 l -58,4 v -29 c 0,-8 -1,-13 -6,-16 -6,-3 -10,-3 -17,-3 -34,0 -57,27 -57,63 V 1056 l 54,2 v 49 h -167 v -47 l 21,-2 c 12,-1 18,-5 18,-21 V 864.00003 Z"
   class="fil0" /><path
   style="fill:#ffffff;fill-rule:nonzero"
   inkscape:connector-curvature="0"
   id="path215"
   d="m 2457.8806,1050 c -22,31 -60,49 -100.9999,49 -62,0 -97,-34 -97,-107.99997 v -125 c 0,-13 -5,-17 -16,-17 l -20,-1 v -51 h 110 v 179 c 0,37.99997 6,66.99997 45.9999,66.99997 44,0 67,-29 67,-61.99997 v -113 c 0,-14 -4,-19 -16,-19 l -20,-1 v -51 h 110 V 1099 c 0,103 -52,145 -144.9999,145 -39,0 -91,-7 -117,-21 v -87 l 59,-5 v 30 c 0,12 3,18 14,22 12,4 26,6 44,6 56.9999,0 80.9999,-35 80.9999,-92 v -47 z"
   class="fil0" /><path
   style="fill:#ffffff;fill-rule:nonzero"
   inkscape:connector-curvature="0"
   id="path217"
   d="m 2796.8807,953.00003 c 0,-70 -17,-113 -67,-113 -49,0 -69,42 -69,102 0,57.99997 8,119.99997 68,119.99997 49,0 68,-45 68,-109.99997 z m -63,-168 c 46,0 139,14 139,158 0,119.99997 -67,174.99997 -149,174.99997 -84,0 -139,-54 -139,-166.99997 0,-130 84,-166 149,-166 z"
   class="fil0" /><path
   style="fill:#ffffff;fill-rule:nonzero"
   inkscape:connector-curvature="0"
   id="path219"
   d="m 2910.8807,795.00003 h 105 v 41 c 22,-31 60,-50 101,-50 62,0 99,35 99,109 V 1058 l 36,2 v 50 h -149 v -47 l 21,-2 c 12,-1 18,-5 18,-21 V 911.00003 c 0,-41 -9,-67 -51,-67 -41,0 -64,31 -64,63 V 1058 l 36,2 v 50 h -149 v -47 l 21,-2 c 12,-1 18,-5 18,-21 V 867.00003 c 0,-14 -4,-19 -16,-19 l -26,-2 v -50 z"
   class="fil0" /><path
   style="fill:#ffffff;fill-rule:nonzero"
   inkscape:connector-curvature="0"
   id="path221"
   d="m 3441.8807,839.00003 c -50,0 -72,48 -74,94 46,-1 111.9999,-11 111.9999,-59 0,-23 -14.9999,-35 -36.9999,-35 z m 105.9999,34 c 0,96 -103.9999,112 -177.9999,113 3,40.99997 24,73.99997 77,73.99997 36.9999,0 63.9999,-17 78.9999,-27 l 24,51 c -10,9 -51,35 -109.9999,35 -106,0 -147,-65 -147,-157.99997 0,-92 52,-173 154,-173 60.9999,0 101.9999,31 101.9999,87 z"
   class="fil0" /><path
   style="fill:#2d2d2d;fill-rule:nonzero"
   inkscape:connector-curvature="0"
   id="path223"
   d="m 743.8806,68 h -17 c -6,0 -11,1 -14,4 -3,3 -4,8 -4,15 0,61 4,153 11,274 8,122.00003 11,213.00003 11,274.00003 v 36 c 6,-1 13,-1 19,-1 26,0 39,11 39,33 v 5 l -23,16 -64,2 c -54,0 -81,-9 -81,-28 0,-15 9,-22 28,-22 l 20,1 c 9,0 14,-7 14,-22 0,-48 -3,-121 -9,-217 -6,-96.00003 -9,-169.00003 -9,-217.00003 l 2,-96 c 0,-20 -1,-38 -2,-52 -8,3 -16,4 -22,4 -15,0 -22,-7 -22,-22 0,-8 5,-14 14,-20 9,-6 21,-10 35,-12 26,-5 46,-7 58,-7 13,0 22,3 27,8 6,5 8,11 8,18 0,7 -2,13 -6,18 -4,5 -9,8 -16,8 z"
   class="fil2" /><path
   style="fill:#2d2d2d;fill-rule:nonzero"
   inkscape:connector-curvature="0"
   id="path225"
   d="m 908.8806,685.00003 -2,6 c 1,4 2,8 2,14 0,6 -3,11 -9,16 -6,5 -13,7 -23,7 -18,0 -27,-20 -27,-60 0,-60 -3,-172 -9,-338.00003 -6,-165 -13,-253 -19,-263 0,-32 22,-50 66,-52 7,0 16,0 27,0 11,0 20,2 27,6 7,4 10,13 10,26 0,13 -9,20 -26,20 l -23,-1 c -17,0 -26,4 -26,11 0,29 2,72 7,128 5,56 7,97 7,124 4,-1 9,-2 16,-4 16,-4 28,-6 35,-6 8,0 14,3 19,9 5,6 8,13 8,20 0,20 -26,31.00003 -78,31.00003 0,34 3,85 9,153 6,68 9,119 9,153 z"
   class="fil2" /><path
   style="fill:#2d2d2d;fill-rule:nonzero"
   inkscape:connector-curvature="0"
   id="path227"
   d="m 1333.8806,68 h -16 c -6,0 -11,1 -14,4 -3,3 -4,8 -4,15 0,61 4,153 11,274 8,122.00003 11,213.00003 11,274.00003 v 36 c 6,-1 13,-1 19,-1 26,0 39,11 39,33 v 5 l -23,16 -64,2 c -54,0 -81,-9 -81,-28 0,-15 9,-22 28,-22 l 20,1 c 9,0 14,-7 14,-22 0,-48 -3,-121 -9,-217 -6,-96.00003 -9,-169.00003 -9,-217.00003 l 2,-96 c 0,-20 -1,-38 -2,-52 -8,3 -16,4 -22,4 -15,0 -22,-7 -22,-22 0,-8 5,-14 14,-20 9,-6 21,-10 35,-12 26,-5 46,-7 58,-7 13,0 22,3 27,8 6,5 8,11 8,18 0,7 -2,13 -6,18 -4,5 -9,8 -16,8 z"
   class="fil2" /><path
   style="fill:#2d2d2d;fill-rule:nonzero"
   inkscape:connector-curvature="0"
   id="path229"
   d="m 1540.8807,183 -2,121 8,216.00003 8,169 c 0,31 -9,46 -27,46 -10,0 -18,-5 -23,-15 -5,-10 -7,-21 -7,-33 l 7,-150 c 0,-32 -2,-81 -6,-146 -4,-65.00003 -6,-114.00003 -6,-146.00003 l 1,-82 c 0,-45 -3,-74 -9,-87 l -51.0001,5 c -8,0 -15,-2 -21,-7 -6,-5 -9,-11 -9,-18 0,-7 7,-14 22,-19 15,-6 34,-9 55.0001,-12 38,-4 69,-6 95,-6 8,0 15,3 21,8 6,5 9,11 9,19 0,8 -3,14 -8,18 -6,4 -12,7 -20,7 l -33,-2 c -4,0 -7,0 -10,0 4,36 6,75 6,115 z"
   class="fil2" /><path
   style="fill:#2d2d2d;fill-rule:nonzero"
   inkscape:connector-curvature="0"
   id="path231"
   d="m 2151.8807,708.00003 c 0,9 -2,17 -7,23 -5,6 -12,9 -21,9 -23,0 -51,-120 -85,-360 -5,-35.00003 -8,-56.00003 -9,-61.00003 -12,83.00003 -20,155.00003 -27,216.00003 -6,61 -9,121 -9,180 0,7 -3,13 -8,18 -6,5 -12,8 -19,8 -23,0 -34,-24 -34,-71 0,-29 -13,-136 -39,-321.00003 -26,-185 -42,-286 -49,-303 8,-15 19,-22 33,-22 14,0 27,33 39,98 12,65 22,144 30,237 8,93.00003 13,140.00003 13,141.00003 1,-9 4,-35 9,-79 5,-44 10,-80.00003 13,-107.00003 9,-81 14,-139 14,-173 v -18 c 0,-7 3,-13 8,-19 5,-6 11,-9 17,-9 22,0 33,9 33,27 v 14 c 0,60 14,148 42,262.00003 12,50 21,90 26,120 3,-35 9,-84 18,-150.00003 19,-142 29,-252 29,-329 0,-14 2,-24 7,-30 5,-6 12,-9 22,-9 10,0 19,2 25,7 6,5 9,11 9,19 0,8 -3,15 -10,21 0,91 -12,201 -36,331.00003 -24,130 -36,240 -36,331 z"
   class="fil2" /><path
   style="fill:#2d2d2d;fill-rule:nonzero"
   inkscape:connector-curvature="0"
   id="path233"
   d="m 2419.8806,421.00003 c -6,-55.00003 -10,-108.00003 -15,-158.00003 -4,-50 -7,-81 -7,-91 0,-11 0,-17 0,-18 -10,10 -23.9999,66 -41.9999,168 -18,102.00003 -28,167.00003 -30,194.00003 26,7 48,11 64.9999,11 18,0 30,-1 37,-3 -1,-13 -4,-47 -10,-102 z m 39,306 c -19,0 -29,-8 -29,-24 v -122 c -9,-6 -25,-11 -48,-16 -22.9999,-4 -43.9999,-7 -61.9999,-8 -6,11 -12,27 -16,48 -4,21 -8,42 -13,63 -4,21 -10,38 -18,50 -24,0 -38,-6 -41,-19 9,-12 22,-75 42,-187 19,-113 35,-201.00003 47,-265.00003 12,-64 26,-117 40,-161 14,-43 27.9999,-65 40.9999,-65 13,0 23,3 30,8 0,22 6,83 18,181 12,98 18,162 18,191.00003 0,29 3,77 10,144 7,67 10,117 10,151 0,21 -10,32 -31,32 z"
   class="fil2" /><path
   style="fill:#2d2d2d;fill-rule:nonzero"
   inkscape:connector-curvature="0"
   id="path235"
   d="m 2535.8806,717.00003 c 0,-17 7,-25 21,-25 7,0 16,2 28.0001,7 11,5 21,7 30,7 8,0 17,-5 27,-16 10,-11 17,-24 23,-40 11,-32 17,-62 17,-88 0,-26 -5,-54 -14,-84 -9,-30 -20,-58 -33,-84 -13,-26.00003 -26,-53.00003 -40,-79.00003 -32.0001,-63 -47.0001,-120 -47.0001,-171 0,-49 15,-87 46.0001,-115 16,-15 36,-22 58,-22 11,0 22,3 33,9 11,6 18,14 22,25 l -16,20 c -16,0 -28,-3 -37,-9 -12,1 -22,7 -30,16 -16,18 -23,40 -23,67 0,26 3,52 10,77 7,25 15,47 25,67 10,20 21,41 33,65 12,23 23,46.00003 33,67.00003 24,49 35,103 35,160 0,40 -10,79 -31,116 -10,18 -23,32 -40,44 -17,11 -36,17 -57,17 -23,0 -40.0001,-3 -53.0001,-10 -13,-7 -19,-14 -19,-22 z"
   class="fil2" /><path
   style="fill:#2d2d2d;fill-rule:nonzero"
   inkscape:connector-curvature="0"
   id="path237"
   d="m 3105.8807,385.00003 -23,-1 c -9,0 -16,2 -19,7 v 289 c 32,-2 49,-3 52,-3 36,0 54,8 54,25 v 3 c -4,9 -12,15 -22,20 -10,5 -20,7 -27,8 -8,1 -18,1 -31,1 h -29 c -23,0 -38,-5 -43,-14 -2,-4 -4,-10 -4,-17 V 158 c 0,-11 -2,-27 -6,-48 -4,-21 -6,-37 -6,-48 v -3 c 10,-17 18,-28 23,-33 l 70,-8 c 9,0 19,3 29,8 10,6 14,13 14,22 0,19 -14,28 -43,28 l -27,-1 c -5,0 -8,0 -10,0 l 7,155 c 0,13 -1,31 -2,55 -2,24 -2,41 -2,52 3,-1 8,-2 14,-3 13,-3 23,-5 30,-5 7,0 14,3 19,8 6,5 8,11 8,19 0,7 -2,14 -7,20.00003 -5,6 -11,9 -18,9 z"
   class="fil2" /><path
   style="fill:#2d2d2d;fill-rule:nonzero"
   inkscape:connector-curvature="0"
   id="path239"
   d="m 3382.8807,421.00003 c -6,-55.00003 -10,-108.00003 -15,-158.00003 -4,-50 -7,-81 -7,-91 0,-11 0,-17 0,-18 -10,10 -24,66 -42,168 -18,102.00003 -28,167.00003 -30,194.00003 26,7 48,11 65,11 18,0 30,-1 37,-3 -1,-13 -4,-47 -10,-102 z m 39,306 c -19,0 -29,-8 -29,-24 v -122 c -9,-6 -25,-11 -48,-16 -23,-4 -44,-7 -62,-8 -6,11 -12,27 -16,48 -4,21 -8,42 -13,63 -4,21 -10,38 -18,50 -24,0 -38,-6 -41,-19 9,-12 22,-75 42,-187 19,-113 35,-201.00003 47,-265.00003 12,-64 26,-117 40,-161 14,-43 28,-65 41,-65 13,0 23,3 30,8 0,22 6,83 18,181 12,98 18,162 18,191.00003 0,29 3,77 10,144 7,67 10,117 10,151 0,21 -10,32 -31,32 z"
   class="fil2" /><path
   style="fill:#2d2d2d;fill-rule:nonzero"
   inkscape:connector-curvature="0"
   id="path241"
   d="m 3498.8806,717.00003 c 0,-17 7,-25 21,-25 7,0 16,2 28,7 11,5 21,7 30,7 8,0 17,-5 27,-16 10,-11 17,-24 23,-40 11,-32 17,-62 17,-88 0,-26 -5,-54 -14,-84 -9,-30 -20,-58 -33,-84 -13,-26.00003 -26,-53.00003 -40,-79.00003 -32,-63 -47,-120 -47,-171 0,-49 15,-87 46,-115 17,-15 36,-22 58,-22 11,0 22,3 33,9 11,6 18,14 22,25 l -16,20 c -16,0 -28,-3 -37,-9 -12,1 -22,7 -30,16 -16,18 -23,40 -23,67 0,26 3,52 10,77 7,25 15,47 25,67 10,20 21,41 33,65 12,23 23,46.00003 33,67.00003 24,49 35,103 35,160 0,40 -10,79 -31,116 -10,18 -23,32 -40,44 -17,11 -36,17 -57,17 -23,0 -40,-3 -53,-10 -13,-7 -19,-14 -19,-22 z"
   class="fil2" /><path
   style="fill:#2d2d2d;fill-rule:nonzero"
   inkscape:connector-curvature="0"
   id="path243"
   d="m 3817.8806,717.00003 5,-181 c 0,-18 -3,-45 -9,-81 -6,-36 -9,-65 -9,-87.00003 0,-22 -4,-48 -11,-80 -7,-31 -16,-59 -25,-85 -24,-66 -36,-122 -36,-168 0,-5 3,-8 8,-12 5,-3 11,-5 17,-5 6,0 12,7 19,22 7,14 13,33 18,55 5,22 11,45 15,67 5,22 9,44 13,65 4,21 7,34 9,41 1,-6 3,-19 4,-39 2,-21 4,-42 6,-63 2,-22 6,-44 9,-66 8,-50 21,-76 37,-76 17,0 25,3 25,10 0,35 -7,87 -22,157 -15,70 -22,122 -22,158 l -3,33.00003 v 14 l 5,249 3,47 v 21 c 0,8 -3,15 -9,20 -6,5 -13,8 -20,8 -7,0 -13,-2 -18,-7 -5,-4 -7,-10 -7,-16 z"
   class="fil2" /><path
   style="fill:#2d2d2d;fill-rule:nonzero"
   inkscape:connector-curvature="0"
   id="path245"
   d="m 1139.8806,888.00003 c -50,0 -72,48 -74,94 46,-1 112,-11 112,-59 0,-23 -15,-35 -37,-35 z m 106,34 c 0,95.99997 -104,111.99997 -178,112.99997 2,41 24,74 77,74 37,0 64,-17 79,-27 l 24,51 c -10,9 -51,35 -110,35 -106,0 -147,-65 -147,-158 0,-91.99997 52,-173.99997 154,-173.99997 61,0 102,31 102,87 z"
   class="fil2" /><path
   style="fill:#2d2d2d;fill-rule:nonzero"
   inkscape:connector-curvature="0"
   id="path247"
   d="m 1610.8807,844.00003 v 49 l -19,1 c -8,1 -13,3 -17,15 l -81,248.99997 h -95.0001 l -87,-247.99997 c -4,-11 -7,-15 -18,-16 l -18,-1 v -49 h 147 v 50 l -38,2 64,204.99997 h 1 l 62.0001,-204.99997 -32,-2 v -50 h 132 z"
   class="fil2" /><path
   style="fill:#2d2d2d;fill-rule:nonzero"
   inkscape:connector-curvature="0"
   id="path249"
   d="m 1789.8807,888.00003 c -50,0 -72,48 -74,94 46,-1 112,-11 112,-59 0,-23 -15,-35 -37,-35 z m 106,34 c 0,95.99997 -104,111.99997 -178,112.99997 3,41 24,74 77,74 37,0 64,-17 79,-27 l 24,51 c -10,9 -51,35 -110,35 -106,0 -147,-65 -147,-158 0,-91.99997 52,-173.99997 154,-173.99997 61,0 102,31 102,87 z"
   class="fil2" /><path
   style="fill:#2d2d2d;fill-rule:nonzero"
   inkscape:connector-curvature="0"
   id="path251"
   d="m 1977.8807,915.00003 c 0,-14 -4,-18 -16,-19 l -26,-2 v -51 h 105 v 47 c 14,-31 47,-56 89,-56 21,0 39,4 60,14 v 93 l -58,4 v -29 c 0,-8 -1,-13 -6,-16 -6,-3 -10,-3 -17,-3 -34,0 -57,27 -57,63 V 1105 l 54,2 v 49 h -167 v -47 l 21,-2 c 12,-1 18,-5 18,-21 V 913.00003 Z"
   class="fil2" /><path
   style="fill:#2d2d2d;fill-rule:nonzero"
   inkscape:connector-curvature="0"
   id="path253"
   d="m 2457.8806,1099 c -22,31 -60,49 -100.9999,49 -62,0 -97,-34 -97,-108 V 915.00003 c 0,-13 -5,-17 -16,-17 l -20,-1 v -51 h 110 V 1025 c 0,38 6,67 45.9999,67 44,0 67,-29 67,-62 V 917.00003 c 0,-14 -4,-19 -16,-19 l -20,-1 v -51 h 110 V 1148 c 0,103 -52,145 -144.9999,145 -39,0 -91,-7 -117,-21 v -87 l 59,-5 v 30 c 0,12 3,18 14,22 12,4 26,6 44,6 56.9999,0 80.9999,-35 80.9999,-92 v -47 z"
   class="fil2" /><path
   style="fill:#2d2d2d;fill-rule:nonzero"
   inkscape:connector-curvature="0"
   id="path255"
   d="m 2796.8807,1003 c 0,-69.99997 -17,-112.99997 -67,-112.99997 -49,0 -69,42 -69,102 0,57.99997 8,119.99997 68,119.99997 49,0 68,-45 68,-110 z m -63,-167.99997 c 46,0 139,14 139,158 0,119.99997 -67,174.99997 -149,174.99997 -84,0 -139,-54 -139,-167 0,-129.99997 84,-165.99997 149,-165.99997 z"
   class="fil2" /><path
   style="fill:#2d2d2d;fill-rule:nonzero"
   inkscape:connector-curvature="0"
   id="path257"
   d="m 2910.8807,844.00003 h 105 v 41 c 22,-31 60,-50 101,-50 62,0 99,35 99,109 V 1107 l 36,2 v 50 h -149 v -47 l 21,-2 c 12,-1 18,-5 18,-21 V 960.00003 c 0,-41 -9,-67 -51,-67 -41,0 -64,31 -64,63 V 1107 l 36,2 v 50 h -149 v -47 l 21,-2 c 12,-1 18,-5 18,-21 V 916.00003 c 0,-14 -4,-19 -16,-19 l -26,-2 v -50 z"
   class="fil2" /><path
   style="fill:#2d2d2d;fill-rule:nonzero"
   inkscape:connector-curvature="0"
   id="path259"
   d="m 3441.8807,888.00003 c -50,0 -72,48 -74,94 46,-1 111.9999,-11 111.9999,-59 0,-23 -14.9999,-35 -36.9999,-35 z m 105.9999,34 C 3547.8806,1018 3443.8807,1034 3369.8807,1035 c 3,41 24,74 77,74 36.9999,0 63.9999,-17 78.9999,-27 l 24,51 c -10,9 -51,35 -109.9999,35 -106,0 -147,-65 -147,-158 0,-91.99997 52,-173.99997 154,-173.99997 60.9999,0 101.9999,31 101.9999,87 z"
   class="fil2" /><path
   style="fill:#2d2d2d;fill-rule:nonzero"
   inkscape:connector-curvature="0"
   id="path261"
   d="m 575.8806,1664 c -34,-62 -48,-126 -53,-198 -10,-134 -32,-338 19,-457 29,-65.99997 67,-154.99997 140,-178.99997 l 35,2 c -45,-59 -140,8 -186,39 -64,42 -85,95 -94,169.99997 -18,147 1,309 25,450 18,105 69,293 200,306 13,1 26,3 39,2 -40,-49 -92,-78 -124,-136 z"
   class="fil2" /><path
   style="fill:#2d2d2d;fill-rule:nonzero"
   inkscape:connector-curvature="0"
   id="path263"
   d="m 389.8806,1136 c 7,-71 38,-136.99997 45,-204.99997 -3,6 -10,25 -13,31 -76,139.99997 -92,241.99997 -78,409.99997 13,157 34,268 163,354 -79,-93 -94,-233 -110,-361 -9,-73 -14,-153 -6,-229 z"
   class="fil2" /><path
   style="fill:#2d2d2d;fill-rule:nonzero"
   inkscape:connector-curvature="0"
   id="path265"
   d="m 377.8806,990.00003 c 0,0 -14,11.99997 -21,23.99997 -7,11 -68,134 -78,207 -22,153 -4,292 92,403 -29,-58 -28,-150 -48,-219 -43,-143 16,-286 55,-414.99997 z"
   class="fil2" /><path
   style="fill:#2d2d2d;fill-rule:nonzero"
   inkscape:connector-curvature="0"
   id="path267"
   d="m 244.8806,1275 c 10,-70 44,-140 58,-210 0,0 -30,50 -39,66 -13,24 -30,67 -43,115 -65,-4 -101,-4 -164.999996,-1 -20,1 -82,12 -44,38 35,24 119.999996,37 193.999996,43 -9,81 3,158 69,178 0,-5 -2,-20 -4,-28 -18,-71 -36,-133 -26,-203 z"
   class="fil2" /><path
   style="fill:#2d2d2d;fill-rule:nonzero"
   inkscape:connector-curvature="0"
   id="path269"
   d="m 762.8806,1339 c -10,-24 -1,-73 18,-84 25,-15 95,-11 133,-7 -4,-120 -39,-285.99997 -111,-354.99997 -139,-132 -229,83 -239,206.99997 -12,151 -18,338 19,481 39,149 134,279 268,131 79,-87 41,-233 52,-352 -58,4 -129,5 -141,-21 z"
   class="fil2" /><path
   style="fill:#2d2d2d;fill-rule:nonzero"
   inkscape:connector-curvature="0"
   id="path271"
   d="m 3604.8806,1328 c 14,0 55,-1 91,-4 49,-4 57,0 40,-51 -43,-1 -82,6 -124,0 v 0 c -5,0 -11,0 -16,0 -339.9999,0 -658.9999,1 -1014.9999,-3 -289,-3 -562,9 -857,9 -291.0001,-12 -541.0001,20 -809.0001,6 v 0 c 0,0 -60,0 -118,2 -7,13 -1,37 -1,37 9,18 111,12 111,12 v 0 c 0,0 0,0 0,0 286,2 597.0001,4 882.0001,4 321,0 639.9999,4 961,4 287,0 553,-8 855.9999,-16 v 0 z"
   class="fil2" /><path
   style="fill:#2d2d2d;fill-rule:nonzero"
   inkscape:connector-curvature="0"
   id="path273"
   d="m 3894.8806,1551 c 31,-86 52,-189 55,-285 5,-109 -21,-367.99997 -145,-390.99997 -147,-27 -176,259.99997 -189,360.99997 -1,5 -1,9 -2,14 43,-3 96,-10 125,1 36,15 24,62 26,98 -46,13 -111,13 -163,8 -11,108 -12,224 29,315 86,190 223,-7 264,-120 z"
   class="fil2" /><path
   style="fill:#2d2d2d;fill-rule:nonzero"
   inkscape:connector-curvature="0"
   id="path275"
   d="m 3998.8806,1001 c -29,-92.99997 -133,-181.99997 -159,-157.99997 103,99 140,227.99997 140,374.99997 0,155 -32,290 -96,422 -28,58 -61,85 -99,129 144,17 209,-201 225,-311 20,-138 31,-323 -11,-457 z"
   class="fil2" /><path
   style="fill:#2d2d2d;fill-rule:nonzero"
   inkscape:connector-curvature="0"
   id="path277"
   d="m 4048.8806,952.00003 c -11,-15 -39,-38 -53,-50 12,69 44,129.99997 55,202.99997 12,74 7,153 -4,226 -11,71 -20,140 -35,210 -5,24 -65,177 -56,190 130,-73 143,-226 151,-362 9,-146 24,-299 -58,-416.99997 z"
   class="fil2" /><path
   style="fill:#2d2d2d;fill-rule:nonzero"
   inkscape:connector-curvature="0"
   id="path279"
   d="m 4113.8806,994.00003 c 13,76.99997 38,138.99997 37,223.99997 -1,74 -3,155 -14,229 -11,73 -49,138 -69,207 67,-48 100,-67 119,-154 16,-73 21,-148 21,-226 0,-83 -13,-226 -94,-279.99997 z"
   class="fil2" /><path
   style="fill:#2d2d2d;fill-rule:nonzero"
   inkscape:connector-curvature="0"
   id="path281"
   d="m 4450.8806,1266 c -48,1 -96,1 -143,2 -1,-54 -13,-102 -33,-130 -12,-16 -40,-32 -57,-41 67,92 13,313 -2,412 53,-20 84,-104 91,-189 51,-3 99,-7 143,-13 20,-4 63,-33 2,-42 z"
   class="fil2" /><path
   style="fill:#2d2d2d;fill-rule:nonzero"
   inkscape:connector-curvature="0"
   id="path283"
   d="m 1541.8807,2440 -7,35 7,7 c 10,-10 17,-21 21,-35 l -21,-8 z m -14,49 c 6,11 15,18 28,21 z m 0,-125 7,21 v -21 z m -7,-98 c 3,23 9,46 21,70 -3,-22 -10,-46 -21,-70 z m -49.0001,-48 c 2,16 9.0001,30 21.0001,42 -3,-16 -10,-30 -21.0001,-42 z m -7,348 v -14 h -7 z m -35,41 21,15 c -4,-7 -11,-12 -21,-15 z m -42,-417 c 7,13 18,22 35,28 -7,-11 -18,-21 -35,-28 z m -76,439 c 1,9 6,16 14,21 -2,-9 -6,-16 -14,-21 z m -14,-459 -7,28 28,-21 z m -14,103 -7,57 7,21 -7,153 c 3,29 20,52 49,70 l 84,-28 49,-84 7,-91 -7,-21 c -12,-30 -33,-53 -63,-70 -33,-10 -70,-13 -112,-8 z m -62,23 v -14 h -7 z m -21,279 c 7,10 16,17 28,21 z m -7,-125 v 28 l 21,-21 z m 14,-35 c -1,-6 -5,-11 -14,-14 2,4 6,9 14,14 z m -21,-237 21,14 14,-21 -21,-7 z m -21,153 v -14 h -7 z m -14,293 v 34 c 10,-6 20,-15 28,-28 l -28,-7 z m 0,-383 v -14 h -7 z m -18,-130 143,-9 119,-7 28,7 c 36,9 73.0001,26 112.0001,49 24,22 50,50 76,84 16,34 28,73 35,118 l 7,49 -7,14 v 49 l -7,21 c -7,37 -21,77 -42,118 -22,30 -49,56 -84,76 -37.0001,18 -78.0001,30 -125.0001,35 l -217,11 -52,-14 -38,-10 14,-153 -7,-21 v -56 l -7,-35 14,-28 -14,-63 7,-118 -7,-28 c 3,-38 20,-67 52,-89 z"
   class="fil2" /><path
   style="fill:#2d2d2d;fill-rule:nonzero"
   inkscape:connector-curvature="0"
   id="path285"
   d="m 2237.8807,2355 c 1,6 6,10 13,13 l 6,-6 z m -26,20 c 1,6 5,10 13,13 -1,-6 -5,-10 -13,-13 z m 19,65 -32,26 c 5,17 14,34 26,52 l -7,-52 39,-26 z m -46,65 c 1,6 5,10 13,13 -2,-4 -6,-9 -13,-13 z m -46,-313 c 8,31 30,51 65,59 z m -59,424 c -10,8 -19,19 -26,32 v 20 l 20,-7 26,-13 c -2,-13 -8,-24 -20,-32 z m -91,0 -13,32 19,7 13,-13 z m 26,-359 -85,65 -13,84 c 2,32 13,64 33,98 26,25 59,40 98,46 31,-11 57,-31 78,-59 9,-30 16,-67 19,-111 -3,-28 -13,-56 -32,-85 -30,-16 -62,-29 -98,-39 z m -98,-13 c 1,6 5,10 13,13 -1,-6 -5,-10 -13,-13 z m -19,-45 c 7,7 16,12 26,13 z m -13,300 v -13 h -7 z m -7,-242 c 2,10 6,18 13,26 l 13,-26 z m -33,267 -6,26 19,-20 -13,-7 z m -19,-78 -7,20 13,-7 v -13 z m 6,-105 -13,33 20,13 13,-7 c -3,-15 -9,-28 -20,-39 z m -26,-52 c 2,8 6,15 13,20 l 7,-20 z m 150,-196 h 105 l 45,13 c 36,8 73,23 111,45 28,20 55,48 78,85 l 39,111 c -7,23 -11,46 -13,71 l 7,26 c -6,43 -17,86 -33,130 l -78,85 c -26,18 -58,38 -98,59 l -143,7 c -36,-11 -73,-28 -111,-52 -27,-20 -55,-44 -85,-72 l -39,-124 7,-124 c 3,-35 14,-74 32,-117 l 78,-85 98,-59 z"
   class="fil2" /><path
   style="fill:#2d2d2d;fill-rule:nonzero"
   inkscape:connector-curvature="0"
   id="path287"
   d="m 2704.8807,2188 7,21 v -21 z m 0,303 v -14 h -7 z m -7,-330 14,21 7,-21 h -20 z m -14,55 c 4,8 11,13 21,14 -4,-7 -11,-11 -21,-14 z m -7,385 -7,34 21,7 7,-34 z m -7,-96 c 7,9 16,14 28,14 z m 28,-419 c 30,9 60,20 89,34 l 7,103 -14,62 14,27 -14,185 14,41 -7,48 v 14 h 7 l -7,7 14,76 -14,21 c -25,17 -54,26 -89,27 -30,-6 -60,-17 -89,-34 l -8,-62 8,-48 -14,-21 c 8,-16 13,-35 14,-55 l 7,-96 -7,-89 7,-20 -14,-172 8,-21 89,-27 z"
   class="fil2" /><path
   style="fill:#2d2d2d;fill-rule:nonzero"
   inkscape:connector-curvature="0"
   id="path289"
   d="m 3172.8807,2235 c 4,6 11,11 21,14 z m -42,277 28,-7 -14,-7 z m 14,69 -21,21 c 12,-3 18,-10 21,-21 z m -7,-291 c -8,13 -13,29 -14,48 8,-14 13,-30 14,-48 z m -21,256 14,7 v -21 h -7 z m 21,-187 -21,90 21,-7 13,-62 z m -28,-97 c 2,9 7,16 14,21 z m 0,-83 c 2,11 9,20 21,28 -4,-10 -11,-20 -21,-28 z m -28,14 c 1,6 6,10 14,14 -2,-5 -6,-9 -14,-14 z m -90,-21 -14,21 28,-7 c -2,-5 -7,-9 -14,-14 z m -21,-83 c 36,7 78,12 125,14 l 28,-7 48,14 21,-7 153,-7 21,7 21,42 7,28 -14,76 -34,14 -118,-21 7,104 -7,21 7,152 -7,76 7,28 v 48 c -24,34 -59,57 -104,69 -31,-5 -61,-15 -90,-28 l -7,-28 7,-14 7,-118 -7,-97 14,-21 -7,-21 -14,-62 28,-69 c -3,-9 -10,-14 -21,-14 l -97,21 c -28,-29 -44,-66 -48,-111 11,-38 37,-68 76,-90 z"
   class="fil2" /><path
   style="fill:#ffffff;fill-rule:nonzero"
   inkscape:connector-curvature="0"
   id="path291"
   d="m 1994.8807,1779 c 0,0 -5,24 -5,28 0,5 -9,28 -9,33 -5,9 -14,38 -14,43 0,5 -9,19 -9,19 0,0 -19,14 -24,19 -5,5 -14,9 -14,9 h -19 c -5,0 -14,-5 -19,-5 -5,0 -19,-9 -19,-9 -5,0 -14,-14 -14,-19 l -5,-19 c 0,-5 -9,-28 -9,-33 0,-5 -5,-19 -5,-24 0,-9 -5,-28 -5,-33 v -33 c 0,-9 5,-57 5,-66 0,-5 5,-19 5,-24 l 5,-14 c 0,-5 8,-28 8,-33 l 5,-9 c 0,-5 19,-24 19,-28 l 5,-9 c 5,-5 14,-14 19,-14 0,0 28,-9 38,-9 h 5 l 14,5 c 5,0 19,9 19,9 0,0 9,19 14,24 l 5,9 c 0,5 5,19 5,19 v 165 z m 52,-208 c 0,-5 -9,-24 -9,-24 0,-5 -14,-19 -19,-24 l -19,-14 -5,-5 c -5,0 -19,-5 -24,-5 h -24 l -9,5 h -28 c 0,0 -14,5 -19,9 -5,5 -28,19 -33,19 l -5,5 c -5,9 -27,38 -32,43 l -5,9 -5,5 c 0,5 -9,24 -9,28 -5,24 -24,94 -24,99 v 104 c 0,0 5,19 5,24 l 5,19 5,24 c 0,5 9,24 9,28 0,5 9,19 9,19 l 51,47 c 0,0 14,5 19,5 h 71 c 5,0 14,-9 19,-14 l 47,-47 c 0,0 9,-19 14,-24 l 5,-9 5,-19 c 0,-5 9,-24 9,-28 0,-5 5,-24 5,-28 v -203 c 0,0 -5,-24 -5,-28 0,-5 -4,-19 -4,-19 z"
   class="fil0" /><path
   style="fill:#ffffff;fill-rule:nonzero"
   inkscape:connector-curvature="0"
   id="path293"
   d="m 2565.8806,1579 c 0,0 -5,-19 -5,-24 0,-5 -5,-19 -5,-19 l -5,-5 -9,-5 -61,9 v 24 c 0,9 9,57 9,66 v 222 c 0,5 -5,28 -9,38 l -5,5 c -5,5 -19,28 -24,28 -5,5 -24,14 -28,14 h -38 c 0,0 -8.9999,-5 -13.9999,-5 -5,-5 -9,-5 -14,-9 l -9,-14 h -5 c -9,-24 -14,-47 -19,-71 v -14 c 0,-14 -5,-80 -5,-90 0,-5 -5,-57 -5,-61 v -128 l -5,-5 h -14 l -19,5 h -14 c -5,0 -19,5 -19,5 l -5,9 v 14 c 0,5 5,24 5,24 0,5 5,28 5,28 0,5 5,38 5,47 0,14 5,57 5,61 v 104 c 0,9 5,52 5,61 0,0 5,9 5,14 5,9 19,43 24,47 l 9,5 9,9 c 5,0 14,9 14,9 5,0 24,9 28,9 5,0 24,5 27.9999,5 h 57 l 14,-5 h 5 l 9,-5 c 5,0 19,-24 24,-24 l 24,-14 19,-19 9,-5 c 0,0 9,-9 9,-14 9,-14 9,-28 14,-43 0,-5 5,-24 5,-24 0,-9 5,-43 5,-47 v -132 c 0,0 -5,-33 -5,-47 0,-9 -5,-33 -5,-38 z"
   class="fil0" /><path
   style="fill:#ffffff;fill-rule:nonzero"
   inkscape:connector-curvature="0"
   id="path295"
   d="m 2981.8807,1908 c -5,0 -43,5 -47,5 -9,0 -52,5 -61,5 h -14 c -5,0 -14,-5 -14,-5 l -9,-9 c 0,-9 -5,-57 -5,-66 v -123 c 0,-5 -5,-38 -5,-43 0,-9 -5,-90 -5,-99 0,-5 -5,-24 -5,-24 l -14,-14 -9,-5 h -33 l -5,5 v 61 c 0,24 5,99 5,113 0,5 5,24 5,28 0,5 5,38 5,43 v 9 c 0,28 14,151 14,179 0,5 5,9 9,14 h 66 c 5,0 24,-5 28,-5 h 9 c 5,0 52,-9 57,-9 h 5 c 5,0 19,-5 19,-5 l 9,-5 14,-5 v -24 c 0,-5 -5,-19 -5,-24 h -14 z"
   class="fil0" /><path
   style="fill:#ffffff;fill-rule:nonzero"
   inkscape:connector-curvature="0"
   id="path297"
   d="m 1576.8807,1550 -5,5 c 0,0 -19,53 -24,72 0,5 -5,24 -5,28 0,5 -9,28 -9,33 0,5 -14,57 -14,61 0,5 -5,19 -5,19 0,5 -9,19 -9,24 0,5 -5,33 -5,38 l -5,19 v 24 l -5,10 v 14 l -5,5 c 0,5 -5,24 -5,28 l -5.0001,9 -5,5 h -9 l -9,-9 -5,-9 -5,-24 -5,-14 c 0,-10 -9,-43 -9,-48 0,-5 -5,-33 -5,-38 0,0 -9,-43 -14,-61 l -5,-19 c 0,-5 -5,-28 -5,-33 0,-5 -5,-19 -5,-24 l -5,-14 c -5,-14 -9,-33 -9,-47 v -10 l -5,-14 c 0,-5 -5,-24 -5,-28 0,-5 -5,-19 -5,-19 l -5,-5 h -23 c -5,0 -24,5 -28,5 0,5 -14,38 -14,43 l -5,9 c 0,0 -5,14 -5,20 l -5,24 c 0,5 -14,38 -14,43 l -5,24 c 0,5 -9,24 -9,28 l -5,9 c 0,5 -14,33 -14,38 0,5 -19,43 -19,47 0,0 -5,14 -5,19 0,5 -5,24 -5,28 l -5,9 -5,5 -14,10 -5,-5 c -5,-6 -9,-15 -9,-15 v -14 c 0,-5 -14,-38 -14,-43 0,-5 -5,-14 -5,-19 0,-5 -5,-28 -5,-33 0,-5 -9,-38 -9,-43 0,-5 -9,-47 -9,-52 0,-5 -9,-28 -9,-33 0,-5 -9,-34 -9,-39 0,0 -9,-24 -14,-33 0,-5 -5,-9 -5,-9 h -5 c -5,0 -28,9 -33,9 h -24 v 9 c 0,5 9,39 14,48 l 5,9 c 0,0 5,14 5,19 l 5,24 c 0,0 9,24 14,33 l 5,9 5,14 c 0,5 9,19 9,24 l 5,9 c 0,5 9,33 9,38 l 5,9 c 0,5 9,28 9,33 0,5 9,24 9,24 l 5,14 5,10 c 0,5 14,52 14,57 0,5 9,24 9,28 l 5,5 h 61 l 5,-5 5,-9 5,-14 5,-9 c 0,-5 9,-24 9,-24 0,-5 14,-48 19,-62 l 5,-19 c 0,-5 9,-24 9,-28 l 5,-19 c 0,-5 9,-24 9,-28 0,0 5,-19 5,-24 v -5 c 0,-5 19,-38 19,-43 l 5,-24 5,-5 h 9 l 4,5 c 0,0 5,9 5,14 v 5 l 9,14 c 0,5 5,28 5,33 l 5,5 v 57 c 0,5 5,24 5,28 l 5,14 c 0,5 5,24 5,28 l 5,25 c 0,5 5,24 5,28 0,5 9,24 9,33 0,5 9,24 9,28 0,5 5,9 5,9 h 5 c 19,0 38,-5 57.0001,-9 5,0 24,-5 28,-5 l 5,-5 5,-14 c 0,-5 14,-33 14,-38 0,-5 9,-24 9,-28 5,-10 28,-81 33,-91 l 5,-14 9,-19 5,-19 5,-9 c 0,-5 9,-19 9,-24 l 28,-85 v -5 c 0,-5 5,-25 5,-29 v -38 l -5,-5 h -61 z"
   class="fil0" /><path
   style="fill:#ffffff;fill-rule:nonzero"
   inkscape:connector-curvature="0"
   id="path299"
   d="m 3393.8807,1774 c 0,9 -9,33 -9,38 -5,9 -19,43 -24,47 l -43,43 c 0,0 -14,9 -19,9 -9,5 -33,14 -33,14 h -28 c -5,0 -19,-9 -19,-9 0,0 -5,-9 -5,-14 v -123 c 0,-5 5,-43 5,-48 v -99 c 0,-5 -5,-19 -5,-24 v -43 l 5,-5 c 5,0 14,-5 19,-5 h 57 l 28,14 c 5,5 24,14 24,14 5,0 14,14 19,19 0,0 9,9 9,14 0,5 9,19 9,19 0,5 9,33 9,38 0,9 5,47 5,57 0,5 -5,34 -5,43 z m 19,-152 c 0,-5 -5,-19 -5,-19 0,-5 -14,-19 -14,-24 -9,-9 -38,-38 -43,-43 0,0 -19,-9 -24,-9 l -19,-5 -5,-5 h -85 c -9,0 -43,9 -47,9 v 77 c 0,5 -5,43 -5,47 0,19 -5,80 -5,91 v 251 l 5,9 h 43 c 0,0 9,-5 14,-5 l 9,-5 c 5,0 28,-14 33,-14 9,-5 33,-19 38,-19 5,-5 24,-14 28,-19 5,-6 33,-34 43,-43 l 14,-19 5,-5 c 5,-5 14,-24 14,-28 5,-9 14,-33 14,-38 0,-5 5,-28 5,-38 v -24 c 0,-34 -5,-67 -9,-100 0,-5 -5,-19 -5,-24 z"
   class="fil0" /><path
   style="fill:#2d2d2d;fill-rule:nonzero"
   inkscape:connector-curvature="0"
   id="path301"
   d="m 1642.8807,1593 c 0,5 -5,25 -5,29 v 5 l -28,85 c 0,5 -9,19 -9,24 l -5,9 -5,19 -9,19 -5,14 c -5,9 -28,80 -33,91 0,5 -9,24 -9,28 0,5 -14,33 -14,38 l -5,14 -5,5 c -5,0 -24,5 -28,5 -19.0001,5 -38.0001,9 -57.0001,9 h -5 c 0,0 -5,-5 -5,-9 0,-5 -9,-24 -9,-28 0,-9 -9,-28 -9,-33 0,-5 -5,-24 -5,-28 l -5,-25 c 0,-5 -5,-24 -5,-28 l -5,-14 c 0,-5 -5,-24 -5,-28 v -57 l -5,-5 c 0,-5 -5,-28 -5,-33 l -9,-14 v -5 c 0,-5 -5,-14 -5,-14 l -4,-5 h -9 l -5,5 -5,24 c 0,5 -19,38 -19,43 v 5 c 0,5 -5,24 -5,24 0,5 -9,24 -9,28 l -5,19 c 0,5 -9,24 -9,28 l -5,19 c -5,14 -19,58 -19,62 0,0 -9,19 -9,24 l -5,9 -5,14 -5,9 -5,5 h -61 l -5,-5 c 0,-5 -9,-24 -9,-28 0,-5 -14,-52 -14,-57 l -5,-10 -5,-14 c 0,0 -9,-19 -9,-24 0,-5 -9,-28 -9,-33 l -5,-9 c 0,-5 -9,-33 -9,-38 l -5,-9 c 0,-5 -9,-19 -9,-24 l -5,-14 -5,-9 c -5,-9 -14,-33 -14,-33 l -5,-24 c 0,-5 -5,-19 -5,-19 l -5,-9 c -5,-9 -14,-43 -14,-48 v -9 h 24 c 5,0 28,-9 33,-9 h 5 c 0,0 5,5 5,9 5,9 14,33 14,33 0,5 9,34 9,39 0,5 9,28 9,33 0,5 9,47 9,52 0,5 9,38 9,43 0,5 5,28 5,33 0,5 5,14 5,19 0,5 14,38 14,43 v 14 c 0,0 5,9 9,15 l 5,5 14,-10 5,-5 5,-9 c 0,-5 5,-24 5,-28 0,-5 5,-19 5,-19 0,-5 19,-43 19,-47 0,-5 14,-33 14,-38 l 5,-9 c 0,-5 9,-24 9,-28 l 5,-24 c 0,-5 14,-38 14,-43 l 5,-24 c 0,-6 5,-20 5,-20 l 5,-9 c 0,-5 14,-38 14,-43 5,0 24,-5 28,-5 h 23 l 5,5 c 0,0 5,14 5,19 0,5 5,24 5,28 l 5,14 v 10 c 0,14 5,33 9,47 l 5,14 c 0,5 5,19 5,24 0,5 5,28 5,33 l 5,19 c 5,19 14,61 14,61 0,5 5,33 5,38 0,5 9,38 9,48 l 5,14 5,24 5,9 9,9 h 9 l 5,-5 5.0001,-9 c 0,-5 5,-24 5,-28 l 5,-5 v -14 l 5,-10 v -24 l 5,-19 c 0,-5 5,-33 5,-38 0,-5 9,-19 9,-24 0,0 5,-14 5,-19 0,-5 14,-57 14,-61 0,-5 9,-28 9,-33 0,-5 5,-24 5,-28 5,-19 24,-72 24,-72 l 5,-5 h 61 l 5,5 v 38 z m 57,-104 h -19 c -5,0 -42,-9 -47,-9 h -14 c -5,0 -24,9 -28,9 0,0 -14,9 -19,9 -5,0 -14,9 -14,9 -5,0 -9,9 -9,9 l -5,24 c 0,0 -5,9 -5,14 0,5 -14,33 -14,38 0,5 -5,25 -5,29 0,5 -9,47 -14,57 l -5,14 -5,24 c 0,5 -9,24 -9,28 l -5,9 -5.0001,-14 c 0,-5 -9,-61 -9,-66 l -5,-14 c 0,-5 -5,-28 -5,-33 0,-5 -9,-34 -9,-39 0,-5 -9,-38 -9,-47 0,-5 -5,-24 -5,-28 0,-5 -5,-19 -5,-19 l -14,-28 c 0,0 -19,-5 -24,-5 h -43 c 0,0 -18,5 -23,9 -9,5 -24,9 -33,19 l -9,9 c 0,0 -5,14 -5,19 0,5 -5,24 -5,28 0,5 -14,38 -14,43 l -5,20 c 0,5 -14,38 -14,43 l -5,19 c 0,0 -5,9 -5,14 -5,9 -14,38 -14,38 l -5,5 c -5,-9 -9,-19 -9,-28 0,-9 -9,-38 -9,-43 0,-5 -5,-24 -5,-28 0,-5 -9,-24 -9,-29 0,-5 -9,-28 -9,-33 0,-5 -14,-24 -14,-28 l -5,-14 c 0,-5 -14,-24 -14,-28 l -5,-5 -9,-5 h -80 c 0,0 -5,5 -9,5 -5,0 -19,14 -24,14 l -19,9 -5,5 v 24 c 0,5 9,24 9,28 5,14 28,133 33,147 0,5 5,19 5,19 l 9,9 5,14 5,9 5,14 c 0,5 24,52 24,57 0,0 9,24 9,28 0,5 14,43 14,48 0,5 19,52 19,57 0,5 5,19 5,24 v 9 l 9,9 9,5 h 14 l 9,-5 h 76 c 0,0 14,-5 19,-9 5,0 14,-9 14,-9 5,-5 28,-24 33,-28 l 9,-9 c 0,-5 9,-14 9,-14 v -9 c 0,-5 5,-19 5,-24 0,-5 9,-24 9,-28 0,-5 3,-13 4,-18 1,8 9,33 9,37 l 5,14 c 0,5 9,43 9,47 0,0 9,28 14,38 0,5 5,9 9,14 l 9,5 h 5 c 14,0 52,-5 57,-5 5,0 19.0001,-5 24.0001,-5 h 38 l 9,-5 33,-33 v -19 l 33,-33 c 0,0 5,-5 5,-9 l 9,-24 5,-10 v -24 l 5,-5 5,-9 c 0,-5 5,-14 5,-14 0,-5 5,-24 5,-28 l 5,-5 c 5,-9 14,-66 19,-76 l 5,-24 c 0,-5 9,-19 9,-24 5,-5 9,-28 9,-28 0,-5 5,-33 5,-38 l 5,-20 c 0,-5 5,-24 5,-24 0,-5 5,-38 5,-43 l 5,-14 -5,-9 -9,-5 z"
   class="fil2" /><path
   style="fill:#2d2d2d;fill-rule:nonzero"
   inkscape:connector-curvature="0"
   id="path303"
   d="m 1960.8807,1784 c 0,0 -9,43 -14,57 0,5 -5,14 -5,14 0,5 -9,19 -9,19 0,5 -9,9 -9,9 l -9,-5 c 0,0 -9,-14 -9,-19 0,-5 -5,-14 -5,-19 0,-9 -5,-43 -5,-47 v -66 l 5,-14 c 0,-5 5,-14 5,-19 0,-5 9,-43 9,-47 0,0 9,-24 14,-33 0,-5 9,-19 9,-19 l 9,-5 5,5 c 5,5 9,24 9,24 z m 24,-198 c -5,-5 -14,-24 -14,-24 0,0 -14,-9 -19,-9 l -14,-5 h -5 c -9,0 -38,9 -38,9 -5,0 -14,9 -19,14 l -5,9 c 0,5 -19,24 -19,28 l -5,9 c 0,5 -8,28 -8,33 l -5,14 c 0,5 -5,19 -5,24 0,9 -5,57 -5,66 v 33 c 0,5 5,24 5,33 0,5 5,19 5,24 0,5 9,28 9,33 l 5,19 c 0,5 9,19 14,19 0,0 14,9 19,9 5,0 14,5 19,5 h 19 c 0,0 9,-5 14,-9 5,-5 24,-19 24,-19 0,0 9,-14 9,-19 0,-5 9,-33 14,-43 0,-5 9,-28 9,-33 0,-5 5,-28 5,-28 v -165 c 0,0 -5,-14 -5,-19 l -5,-9 z"
   class="fil2" /><path
   style="fill:#2d2d2d;fill-rule:nonzero"
   inkscape:connector-curvature="0"
   id="path305"
   d="m 2054.8807,1822 c 0,5 -5,24 -5,28 0,5 -9,24 -9,28 l -5,19 -5,9 c -5,5 -14,24 -14,24 l -47,47 c -5,5 -14,14 -19,14 h -71 c -5,0 -19,-5 -19,-5 l -51,-47 c 0,0 -9,-14 -9,-19 0,-5 -9,-24 -9,-28 l -5,-24 -5,-19 c 0,-5 -5,-24 -5,-24 v -104 c 0,-5 19,-76 24,-99 0,-5 9,-24 9,-28 l 5,-5 5,-9 c 5,-5 27,-33 32,-43 l 5,-5 c 5,0 28,-14 33,-19 5,-5 19,-9 19,-9 h 28 l 9,-5 h 24 c 5,0 19,5 24,5 l 5,5 19,14 c 5,5 19,19 19,24 0,0 9,19 9,24 0,0 4,14 4,19 0,5 5,28 5,28 v 203 z m 66,-274 c 0,-5 -19,-38 -24,-47 0,-5 -9,-14 -9,-14 l -14,-14 c 0,0 -19,-9 -24,-9 -9,-5 -42,-14 -42,-14 h -47 c -5,0 -19,5 -24,5 -5,0 -24,9 -28,9 l -9,5 c -5,0 -28,19 -33,19 l -14,5 -42,43 c -5,5 -14,24 -19,28 -5,5 -14,33 -19,38 0,5 -9,24 -9,28 0,5 -9,33 -9,38 l -5,5 v 24 c 0,5 -5,14 -5,19 v 113 c 0,0 5,33 9,47 0,9 9,43 9,43 0,5 9,19 9,24 0,0 9,9 9,14 l 9,9 33,38 5,5 c 0,0 18,9 23,9 5,5 28,9 28,9 5,0 33,5 43,5 h 24 l 19,-5 c 5,0 33,-5 38,-5 0,0 9,-5 14,-9 l 5,-5 14,-5 c 5,0 18,-19 23,-24 l 5,-9 c 0,-5 24,-19 24,-24 0,0 9,-14 9,-19 19,-38 24,-80 33,-118 0,-5 9,-38 9,-43 0,-5 5,-24 5,-24 v -85 c 0,-9 -9,-52 -9,-61 0,-9 -9,-43 -14,-47 z"
   class="fil2" /><path
   style="fill:#2d2d2d;fill-rule:nonzero"
   inkscape:connector-curvature="0"
   id="path307"
   d="m 2574.8806,1796 c 0,5 -5,38 -5,47 0,0 -5,19 -5,24 -5,14 -5,28 -14,43 0,5 -9,14 -9,14 l -9,5 -19,19 -24,14 c -5,0 -19,24 -24,24 l -9,5 h -5 l -14,5 h -57 c -4.9999,0 -23.9999,-5 -27.9999,-5 -5,0 -24,-9 -28,-9 0,0 -9,-9 -14,-9 l -9,-9 -9,-5 c -5,-5 -19,-38 -24,-47 0,-5 -5,-14 -5,-14 0,-9 -5,-52 -5,-61 v -104 c 0,-5 -5,-47 -5,-61 0,-9 -5,-43 -5,-47 0,0 -5,-24 -5,-28 0,0 -5,-19 -5,-24 v -14 l 5,-9 c 0,0 14,-5 19,-5 h 14 l 19,-5 h 14 l 5,5 v 128 c 0,5 5,57 5,61 0,9 5,76 5,90 v 14 c 5,24 9,47 19,71 h 5 l 9,14 c 5,5 9,5 14,9 5,0 13.9999,5 13.9999,5 h 38 c 5,0 24,-9 28,-14 5,0 19,-24 24,-28 l 5,-5 c 5,-9 9,-33 9,-38 v -222 c 0,-9 -9,-57 -9,-66 v -24 l 61,-9 9,5 5,5 c 0,0 5,14 5,19 0,5 5,24 5,24 0,5 5,28 5,38 0,14 5,47 5,47 v 132 z m 57.0001,-298 c 0,-5 -9,-28 -9,-28 l -5,-5 -9,-5 c -5,0 -14,-5 -14,-5 h -71.0001 l -28,14 -19,14 -9,5 -5,5 c -5,5 -14,19 -14,19 v 9 c 0,9 5,47 5,52 0,5 5,24 5,28 0,14 5,66 5,76 v 123 c 0,5 -5,33 -5,43 0,5 -5,19 -5,19 0,0 -9,14 -14,19 l -5,5 h -9 c 0,0 -5,-9 -5,-14 0,-5 -5,-19 -5,-24 0,-5 -5,-28 -5,-33 0,-5 -5,-38 -5,-43 l -5,-5 c 0,-14 -5,-94 -5,-109 0,-9 -9,-71 -9,-80 v -28 c 0,-5 -5,-28 -5,-38 0,-5 -4.9999,-24 -4.9999,-24 0,0 -5,-9 -9,-9 l -9,-5 h -66 c 0,0 -24,5 -28,9 -5,0 -14,9 -19,9 l -19,14 -9,5 c -5,5 -9,14 -9,19 v 38 c 0,5 5,24 5,24 0,5 5,24 5,28 0,5 5,38 5,43 0,14 5,57 5,61 v 57 c 0,14 5,94 5,109 0,5 9,28 9,33 0,5 14,33 19,38 0,0 9,14 14,19 5,9 14,14 24,19 5,5 24,14 28,14 5,0 24,9 28,9 h 84.9999 c 5,0 24,-5 28,-5 5,0 24,-9 24,-9 l 14,-5 14,-9 19,-19 9,-5 14,-19 9,-9 c 5,-5 24.0001,-28 28.0001,-33 l 9,-9 5,-9 c 5,-5 9,-24 9,-24 l 5,-24 5,-19 c 0,-9 9,-47 9,-52 0,-9 5,-47 5,-52 v -151 c 0,-5 -5,-33 -5,-38 0,0 -5,-24 -9,-33 z"
   class="fil2" /><path
   style="fill:#2d2d2d;fill-rule:nonzero"
   inkscape:connector-curvature="0"
   id="path309"
   d="m 2999.8807,1956 -14,5 -9,5 c 0,0 -14,5 -19,5 h -5 c -5,0 -52,9 -57,9 h -9 c -5,0 -24,5 -28,5 h -66 c -5,-5 -9,-9 -9,-14 0,-28 -14,-151 -14,-179 v -9 c 0,-5 -5,-38 -5,-43 0,-5 -5,-24 -5,-28 0,-14 -5,-90 -5,-113 v -61 l 5,-5 h 33 l 9,5 14,14 c 0,0 5,19 5,24 0,9 5,90 5,99 0,5 5,38 5,43 v 123 c 0,9 5,57 5,66 l 9,9 c 0,0 9,5 14,5 h 14 c 9,0 52,-5 61,-5 5,0 43,-5 47,-5 h 14 c 0,5 5,19 5,24 v 24 z m 71,-113 -9,-9 h -14 l -19,5 c -5,0 -33,5 -38,5 h -14 c -5,0 -19,5 -24,5 h -33 c 0,-5 -5,-38 -5,-43 0,-14 -5,-52 -5,-57 v -33 c 0,-5 -5,-57 -5,-61 v -33 c 0,-5 -5,-19 -5,-24 0,-5 -5,-61 -5,-66 0,-5 -5,-24 -9,-33 0,-5 -9,-19 -9,-24 0,-5 -9,-14 -9,-14 0,0 -14,-5 -19,-5 h -57 c -5,0 -14,9 -19,9 l -5,5 -19,9 -24,24 v 175 c 0,5 5,28 5,33 v 9 c 0,9 9,71 9,80 5,28 14,146 14,175 0,5 9,33 9,38 l 5,5 h 24 c 5,0 42,-5 47,-5 h 24 c 5,0 24,-5 28,-5 5,0 38,-5 43,-5 l 24,-5 h 9 l 14,-5 24,-5 c 5,0 14,-5 19,-5 5,-9 38,-43 43,-52 l 14,-14 5,-9 v -5 c 0,-5 -5,-19 -5,-24 0,-9 -9,-38 -9,-38 z"
   class="fil2" /><path
   style="fill:#2d2d2d;fill-rule:nonzero"
   inkscape:connector-curvature="0"
   id="path311"
   d="m 3365.8807,1712 c 0,24 -5,48 -14,72 l -5,9 c -5,5 -19,24 -24,28 l -14,14 c -5,0 -14,9 -19,9 h -9 v -52 c 0,-5 5,-38 5,-43 v -72 c 0,-5 -5,-66 -5,-71 v -9 c 0,-5 5,-9 5,-9 0,0 9,5 14,5 5,0 19,9 19,9 l 14,14 c 5,5 14,19 14,19 0,5 9,28 9,33 l 5,9 c 0,5 5,19 5,19 v 14 z m 19,-76 c 0,0 -9,-14 -9,-19 0,-5 -9,-14 -9,-14 -5,-5 -14,-19 -19,-19 0,0 -19,-9 -24,-14 l -28,-14 h -57 c -5,0 -14,5 -19,5 l -5,5 v 43 c 0,5 5,19 5,24 v 99 c 0,5 -5,43 -5,48 v 123 c 0,5 5,14 5,14 0,0 14,9 19,9 h 28 c 0,0 24,-9 33,-14 5,0 19,-9 19,-9 l 43,-43 c 5,-5 19,-38 24,-47 0,-5 9,-28 9,-38 0,-9 5,-39 5,-43 0,-9 -5,-47 -5,-57 0,-5 -9,-33 -9,-38 z"
   class="fil2" /><path
   style="fill:#2d2d2d;fill-rule:nonzero"
   inkscape:connector-curvature="0"
   id="path313"
   d="m 3426.8807,1770 c 0,9 -5,33 -5,38 0,5 -9,28 -14,38 0,5 -9,24 -14,28 l -5,5 -14,19 c -9,9 -38,38 -43,43 -5,5 -24,14 -28,19 -5,0 -28,14 -38,19 -5,0 -28,14 -33,14 l -9,5 c -5,0 -14,5 -14,5 h -43 l -5,-9 v -251 c 0,-10 5,-72 5,-91 0,-5 5,-43 5,-47 v -77 c 5,0 38,-9 47,-9 h 85 l 5,5 19,5 c 5,0 24,9 24,9 5,6 33,34 43,43 0,5 14,19 14,24 0,0 5,14 5,19 0,5 5,19 5,24 5,33 9,66 9,100 v 24 z m 33,-171 -5,-19 c 0,0 -9,-19 -14,-24 0,-5 -9,-14 -9,-14 0,-6 -14,-20 -19,-25 l -5,-5 -38,-33 -5,-5 -14,-5 -14,-9 c 0,0 -24,-9 -28,-9 -5,0 -19,-5 -19,-5 -5,0 -38,-5 -43,-5 h -28 c 0,0 -19,5 -24,9 l -9,5 c -5,5 -19,14 -19,14 l -28,28 v 138 c 0,9 -5,105 -5,114 v 247 l -5,14 v 9 l 5,9 5,5 9,5 h 33 l 19,-5 c 5,0 24,-5 28,-5 5,0 19,-9 24,-9 9,-5 52,-24 57,-28 5,-5 38,-24 47,-28 l 5,-5 19,-14 43,-43 c 0,0 19,-24 24,-28 5,-5 14,-19 14,-19 l 5,-19 5,-9 c 0,0 5,-14 5,-19 4.9999,-14 8.9999,-47 8.9999,-47 v -62 c 0,-9 -8.9999,-52 -8.9999,-61 0,-5 -14,-33 -14,-38 z"
   class="fil2" />
</svg>