<?xml version="1.0" encoding="UTF-8" standalone="no"?>
<!-- Generator: Adobe Illustrator 21.0.0, SVG Export Plug-In . SVG Version: 6.00 Build 0)  -->

<svg
   xmlns:dc="http://purl.org/dc/elements/1.1/"
   xmlns:cc="http://creativecommons.org/ns#"
   xmlns:rdf="http://www.w3.org/1999/02/22-rdf-syntax-ns#"
   xmlns:svg="http://www.w3.org/2000/svg"
   xmlns="http://www.w3.org/2000/svg"
   xmlns:sodipodi="http://sodipodi.sourceforge.net/DTD/sodipodi-0.dtd"
   xmlns:inkscape="http://www.inkscape.org/namespaces/inkscape"
   version="1.1"
   id="Layer_1"
   x="0px"
   y="0px"
   viewBox="0 0 791.95367 624.10681"
   xml:space="preserve"
   sodipodi:docname="8025.svg"
   width="791.95367"
   height="624.10681"
   inkscape:version="0.92.3 (2405546, 2018-03-11)"><metadata
   id="metadata87"><rdf:RDF><cc:Work
       rdf:about=""><dc:format>image/svg+xml</dc:format><dc:type
         rdf:resource="http://purl.org/dc/dcmitype/StillImage" /><dc:title></dc:title></cc:Work></rdf:RDF></metadata><defs
   id="defs85" /><sodipodi:namedview
   pagecolor="#ffffff"
   bordercolor="#666666"
   borderopacity="1"
   objecttolerance="10"
   gridtolerance="10"
   guidetolerance="10"
   inkscape:pageopacity="0"
   inkscape:pageshadow="2"
   inkscape:window-width="640"
   inkscape:window-height="480"
   id="namedview83"
   showgrid="false"
   fit-margin-top="0"
   fit-margin-left="0"
   fit-margin-right="0"
   fit-margin-bottom="0"
   inkscape:zoom="0.27314815"
   inkscape:cx="395.93779"
   inkscape:cy="312.10001"
   inkscape:window-x="0"
   inkscape:window-y="0"
   inkscape:window-maximized="0"
   inkscape:current-layer="Layer_1" />
<style
   type="text/css"
   id="style2">
	.st0{fill:#1A1A1A;}
	.st1{fill:#FFFFFF;}
</style>
<g
   id="g80"
   transform="translate(-36.06221,-119.99318)">
	<circle
   cx="432"
   cy="498.20001"
   r="245.89999"
   id="circle4" />
	<g
   id="g20">
		<path
   d="m 156.8,444.2 c -2.8,-0.4 -5,0.7 -6.6,3.5 l -1.7,3 c -0.8,1.4 -2.1,2 -3.7,2 L 113.4,448 c -0.1,-1.5 -0.1,-2.5 0,-3 0.3,-2 1.3,-3.4 3,-4.2 4.9,-1 8.7,-1.7 11.4,-2 1.8,-0.8 2.8,-2.2 3.1,-4.4 0.6,-3.8 -1.1,-5.9 -4.9,-6.5 -1.2,-0.2 -4.1,0 -8.7,0.6 -5.3,0.6 -8.4,0.9 -9.5,0.9 -1.6,0.1 -3,0.1 -4.2,0 -4.5,-0.2 -7.1,1.4 -7.6,4.6 -0.5,3.3 1.4,5.5 5.5,6.6 l -0.1,5.6 -29.1,-4.4 -0.6,-2.3 c -0.9,-3.2 -1.2,-5.7 -0.9,-7.3 0.8,-5.6 6.4,-8.7 16.5,-9.5 3.3,-0.2 5.4,-0.5 6.4,-0.9 2.3,-0.7 3.6,-2.1 3.9,-4.2 0.6,-4.3 -1.3,-6.8 -5.7,-7.7 l -7.4,-1.4 c -2.5,-0.5 -6.9,-1.8 -13.3,-4 -1.1,-0.4 -2,-0.6 -2.7,-0.7 -1.5,-0.2 -2.9,0.1 -4.1,1.1 -1.2,1 -1.9,2.3 -2.1,3.9 -0.3,2.1 0.5,4.5 2.4,7.1 -1.1,1.1 -2,2.1 -2.6,3 -2,3 -3.3,6.3 -3.8,9.9 -0.5,3.3 -0.1,7.7 1.3,13.3 2.3,9.5 3.1,17.4 2.3,23.7 -0.9,7.3 0.6,11.3 4.4,11.9 2.7,0.4 5,-1.1 6.7,-4.4 1.2,-2.2 2.1,-3.6 2.7,-4.3 0.9,-0.7 2.5,-0.9 4.6,-0.6 l 17.4,2.6 c -1,6.7 0.5,10.4 4.4,11 4,0.6 6.6,-1.8 7.8,-7.1 l 0.5,-2 28.2,4.3 c 3,0.5 4.8,1.7 5.4,3.6 l 0.8,3.1 c 0.8,3 2.6,4.7 5.3,5.2 2.3,0.4 4.1,-0.3 5.4,-2 0.8,-0.9 1.4,-3.3 2,-7 l 3.8,-24.8 c 0.6,-3.8 0.6,-6.2 0.2,-7.3 -0.9,-2.2 -2.4,-3.4 -4.7,-3.8 z"
   id="path6"
   inkscape:connector-curvature="0" />
		<path
   d="m 348.7,221 -3.2,0.2 c -1.8,0 -3.1,-0.7 -3.9,-1.9 l -25.8,-52.4 c -1.8,-3.7 -2.9,-6.5 -3.3,-8.5 -0.6,-3 0,-5.8 1.7,-8.4 l 1.4,-2.1 c 1.3,-1.9 1.4,-3.8 0.4,-5.7 -2.1,-4.3 -7.8,-4.3 -16.9,0.2 -7.2,3.5 -12.4,8.9 -15.5,16.1 -3.1,7.2 -4.7,17.3 -4.7,30.4 l -2.7,-2.3 c -12.5,-10.7 -21.9,-16.7 -28.3,-18 -2.4,-0.5 -4.8,-0.2 -7,0.9 -1.4,0.7 -2.5,1.8 -3.4,3.2 l -3.1,4.9 c -3.7,4.4 -6.5,7.8 -8.5,10 l -2.3,2 c -2.1,2.2 -2.6,4.4 -1.5,6.7 1.3,2.6 4.2,3.5 8.9,2.8 2.8,-0.4 5.1,0.5 7.1,2.9 l 25.8,52.5 c 1.3,2.7 1.4,4.8 0.2,6.4 l -2.2,2.5 c -1.7,2.4 -2.2,4.6 -1.5,6.7 -0.3,-0.3 -0.6,-0.6 -0.9,-0.9 -4.3,-4.1 -10.1,-6.8 -17.2,-8.2 -8.5,-1.6 -19.7,-0.2 -33.7,4.2 2.7,-12.7 -0.1,-23 -8.3,-30.7 -5.9,-5.6 -13,-8.3 -21.4,-8.3 -8.4,0.1 -15.4,3 -20.9,8.9 -2.6,2.8 -5,6.9 -7.3,12.4 l -1.1,2.8 c -2.9,7.3 -6.4,13.3 -10.5,18.1 -4.8,5.7 -5.8,9.8 -3.1,12.3 2,1.9 4.7,2 8.1,0.2 1.4,-0.8 3.4,-0.9 5.9,-0.4 1,0.3 2.1,0.6 3.3,1 l 17,16.1 c -0.2,0.2 -0.4,0.4 -0.6,0.5 l -0.3,0.3 c -1.4,1.5 -2.1,3.2 -2.2,5.2 -0.1,2 0.6,3.6 1.9,4.9 3,2.8 6.6,2.2 11,-1.7 l 15.6,14.7 c 2.2,2.1 3,4.1 2.4,6 l -1.1,3 c -0.5,1.4 -0.7,2.6 -0.5,3.7 -1.4,0 -2.8,0.6 -4.4,1.7 -2.4,1.8 -4.6,2.6 -6.6,2.5 l -87.8,-3.9 c -4.6,-0.2 -7.5,0.8 -8.7,3.3 -0.6,1.3 -0.8,3.3 -0.5,6.1 0.6,5.1 0.6,9.5 0.1,13.2 -0.5,4.3 0.2,6.9 2.3,7.9 2,0.9 3.7,0.7 5.4,-0.6 l 2.6,-2 c 1.6,-1.3 3.3,-1.5 4.9,-0.8 0.9,0.4 2,1.3 3.3,2.7 l 26.1,28.3 c -0.7,0.7 -1.2,1.5 -1.7,2.5 -1.7,3.5 -0.7,6.1 2.8,7.8 2.2,1 4.6,0.5 7,-1.5 l 7.8,8.1 c 1.8,1.9 3.2,5 4.2,9.3 0.7,3.7 1.9,6 3.5,6.7 3.4,1.6 6.1,0.4 8,-3.7 l 8.7,-18.7 c 0.9,-2 1.2,-3.8 0.8,-5.6 -0.4,-1.8 -1.3,-3 -2.8,-3.7 -2.2,-1 -4.6,-0.7 -7,1.2 l -2.6,1.9 c -1.6,1.2 -3.1,1.4 -4.6,0.7 -0.6,-0.3 -1.2,-0.8 -2,-1.6 l -4,-4.2 c 4.1,-4.1 7.2,-8.5 9.4,-13.1 2.5,-5.4 3.7,-10.3 3.7,-14.8 l 5.7,0.5 c 0.9,0.1 1.8,0.3 2.8,0.8 1.3,0.6 2,2.1 2.1,4.6 0,1.6 0.1,2.7 0.2,3.3 0,2.2 1.1,3.8 3.4,4.8 3.6,1.7 6.5,0.2 8.7,-4.4 L 200,346.3 c 1.2,-2.6 1.8,-4.7 1.7,-6.5 0.6,0 1.3,0 2,-0.3 1.2,-0.3 3,-1.9 5.6,-4.6 l 17.2,-18.3 c 2.6,-2.8 4,-4.7 4.3,-5.9 0.5,-2 -0.1,-3.9 -1.8,-5.5 -1.8,-1.7 -4.3,-2 -7.4,-0.9 l -3.1,1.5 c -1.6,0.8 -3,0.6 -4.2,-0.5 l -17.4,-16.4 c 4.7,-4.9 10.1,-7.8 16.3,-8.7 6.8,-0.9 12.6,0.9 17.4,5.4 1.6,1.5 2.2,3.8 1.8,7.1 -0.4,3.2 0.1,5.5 1.6,6.9 3.1,2.9 6.5,2.4 10.2,-1.6 l 14.6,-15.5 c 1.9,-2 3.1,-3.7 3.6,-5.1 0.3,-1.5 0.2,-2.9 -0.4,-4.4 0.9,0.8 2,1.3 3.3,1.4 1.2,0.1 3.5,-0.7 6.9,-2.4 l 14.2,-7 c 3.2,-1.6 5.3,-2.9 6.1,-4 1,-1.9 1.1,-3.8 0.1,-5.7 -1.2,-2.5 -3.4,-3.6 -6.6,-3.5 l -3.2,0.2 c -2,0 -3.3,-0.7 -3.9,-1.9 L 252,195.4 c 7,4 14.1,9.9 21.2,17.7 5.8,6.4 10.5,12.6 14.1,18.5 1.2,2 2.4,3.2 3.4,3.6 1.1,0.4 2.6,0.1 4.8,-1 3.5,-1.7 4.6,-4.2 3.4,-7.5 -2.6,-6.9 -4.6,-15.1 -6,-24.7 -1.5,-10.2 -1.7,-18.7 -0.7,-25.2 l 25.4,51.6 c 1.3,2.7 1.4,4.8 0.2,6.4 l -2.2,2.5 c -2.1,2.3 -2.5,4.7 -1.2,7.3 1.1,2.2 2.7,3.3 4.7,3.3 1.3,0.1 3.6,-0.7 6.9,-2.4 l 22.5,-11.1 c 3.4,-1.7 5.4,-3 6.1,-4 1.2,-1.7 1.3,-3.7 0.2,-5.8 -0.8,-2.7 -3,-3.8 -6.1,-3.6 z m -157.6,52.6 c -0.5,1.8 -1.7,3.7 -3.4,5.9 l -22.5,-21.3 c -1.7,-1.6 -2.8,-3.4 -3.2,-5.2 -0.4,-1.9 -0.1,-3.4 1.1,-4.6 2,-2.1 4.7,-2.7 8.3,-1.7 3.5,1 7.2,3.2 11,6.8 7.5,7.1 10.4,13.9 8.7,20.1 z m -41.5,100.2 c -1.3,2.7 -3,5.2 -5.1,7.6 l -1.1,1.2 -19.7,-21.6 28.5,1.9 c -0.2,4.1 -1.1,7.7 -2.6,10.9 z"
   id="path8"
   inkscape:connector-curvature="0" />
		<path
   d="m 471.4,121.4 c -2.2,0 -4.4,1 -6.7,3.3 -1.2,-0.9 -2.3,-1.7 -3.3,-2.2 -3.3,-1.6 -6.7,-2.4 -10.3,-2.5 -3.3,-0.1 -7.6,0.9 -13,3 -9.1,3.5 -16.8,5.3 -23.2,5.4 -7.4,0.1 -11.1,2 -11.2,5.9 -0.1,2.8 1.7,4.8 5.3,6.1 2.3,0.9 3.9,1.6 4.6,2.1 0.8,0.8 1.2,2.3 1.1,4.5 l -0.4,17.6 c -6.8,-0.1 -10.2,1.8 -10.3,5.8 -0.1,4 2.6,6.3 8,6.8 l 2,0.2 -0.6,28.5 c -0.1,3.1 -1,5 -2.9,5.8 l -3,1.2 c -2.9,1.2 -4.4,3.1 -4.4,5.9 0,2.4 0.8,4.1 2.7,5.1 1,0.6 3.4,1 7.2,1.1 l 25.1,0.5 c 3.8,0.1 6.2,-0.2 7.3,-0.8 1.9,-1 2.8,-2.7 2.9,-5 0.1,-2.9 -1.4,-4.9 -4.3,-6.1 l -3.2,-1.3 c -1.5,-0.6 -2.3,-1.8 -2.5,-3.4 L 439,177 c 1.4,-0.3 2.4,-0.4 2.9,-0.4 2.1,0 3.6,0.8 4.6,2.4 1.6,4.8 2.8,8.4 3.5,11 1,1.7 2.6,2.5 4.7,2.6 3.8,0.1 5.7,-1.8 5.8,-5.7 0,-1.2 -0.5,-4.1 -1.7,-8.5 -1.2,-5.2 -1.9,-8.3 -2.1,-9.3 -0.3,-1.5 -0.5,-2.9 -0.5,-4.2 -0.4,-4.5 -2.3,-6.8 -5.6,-6.9 -3.3,-0.1 -5.2,2.1 -5.8,6.4 l -5.6,0.7 0.6,-29.4 2.2,-0.9 c 3.1,-1.3 5.5,-1.9 7.1,-1.9 5.6,0.1 9.5,5.2 11.6,15.2 0.7,3.2 1.2,5.3 1.7,6.2 1,2.2 2.6,3.3 4.7,3.3 4.3,0.1 6.6,-2.1 6.9,-6.6 l 0.5,-7.5 c 0.2,-2.6 0.9,-7.1 2.3,-13.7 0.2,-1.1 0.4,-2 0.4,-2.8 0,-1.5 -0.5,-2.8 -1.6,-3.9 -1.2,-1.1 -2.5,-1.7 -4.2,-1.7 z"
   id="path10"
   inkscape:connector-curvature="0" />
		<path
   d="m 563.8,245.3 c 1.8,-5.7 1.8,-12 0,-19.1 -2.2,-8.4 -8.3,-17.9 -18.4,-28.5 12.6,-3.1 20.7,-10 24.1,-20.8 2.5,-7.7 1.9,-15.4 -1.8,-22.9 -3.7,-7.5 -9.4,-12.5 -17.1,-15 -3.6,-1.2 -8.4,-1.6 -14.3,-1.2 l -3,0.2 c -7.8,0.5 -14.8,0 -20.8,-1.6 -7.2,-1.9 -11.3,-1 -12.4,2.5 -0.8,2.6 0.3,5.1 3.3,7.4 1.3,1 2.3,2.7 2.9,5.1 0.2,1 0.4,2.2 0.5,3.4 l -7.1,22.3 c -0.3,-0.1 -0.5,-0.2 -0.7,-0.4 l -0.4,-0.1 c -2,-0.6 -3.8,-0.5 -5.7,0.3 -1.8,0.8 -3,2.1 -3.6,3.9 -1.2,3.9 0.8,7 6.3,9.1 l -6.5,20.4 c -0.9,2.9 -2.4,4.5 -4.4,4.7 l -3.2,0.3 c -3.1,0.3 -5.1,1.8 -5.9,4.4 -0.7,2.3 -0.4,4.1 1.1,5.7 0.8,0.9 3,1.9 6.6,3.1 l 23.9,7.6 c 3.6,1.2 6,1.6 7.2,1.3 2.1,-0.4 3.5,-1.7 4.2,-4 0.8,-2.3 -0.1,-4.7 -2.4,-7.1 l -2.7,-2.1 c -1.4,-1.1 -1.9,-2.4 -1.4,-4 l 7.3,-22.7 c 6.5,2.1 11.4,5.7 14.9,10.9 3.8,5.7 4.7,11.7 2.7,18 -0.7,2.1 -2.5,3.6 -5.6,4.7 -3.1,1.1 -4.9,2.5 -5.5,4.4 -1.3,4 0.7,6.8 5.9,8.5 l 20.2,6.5 c 2.6,0.8 4.7,1.2 6.2,1 2.6,-0.8 4.5,-2.8 5.6,-6.2 z m -19.3,-76.7 c -3.2,9.9 -7.9,15.4 -14.4,16.6 -1.8,0.3 -4.1,0.1 -6.8,-0.5 l 9.4,-29.5 c 0.7,-2.2 1.8,-4 3.3,-5.2 1.5,-1.2 3,-1.5 4.6,-1 2.7,0.9 4.4,3.1 5.1,6.7 0.9,3.6 0.4,7.9 -1.2,12.9 z"
   id="path12"
   inkscape:connector-curvature="0" />
		<path
   d="m 639.6,272.3 c 2.3,-3.3 1.6,-6.2 -2,-8.8 -2.4,-1.7 -5.4,-1.5 -9,0.6 l -5.6,3.4 c -9.7,5.8 -17.1,6.9 -22.3,3.2 -5,-3.6 -5.3,-8.6 -0.7,-15 l 14.8,-20.9 c 1.6,0.8 2.6,1.3 2.9,1.5 2.3,1.7 2.6,4.9 0.8,9.8 -1.1,3 -1.7,4.9 -1.7,5.6 -0.1,2.1 0.7,3.7 2.4,4.9 3.1,2.2 5.8,1.7 8,-1.5 1,-1.4 2.2,-4.2 3.4,-8.4 1.3,-4.2 2.5,-7.1 3.7,-8.8 0.7,-1.5 1.2,-2.6 1.6,-3.4 2.1,-4 1.8,-6.9 -0.8,-8.7 -3,-2.1 -5.8,-1.6 -8.3,1.5 l -5,-2.6 16.8,-23.7 c 4.5,0.9 7.6,2 9.4,3.3 3.9,2.7 5.2,6.2 4,10.4 -0.4,1.7 -0.9,2.9 -1.3,3.6 -1,2.8 -1.6,4.4 -1.7,4.8 -1.2,2.6 -1.9,4 -1.8,4.2 -1,3.4 -0.4,6 2,7.6 3.4,2.4 6.7,1.7 9.7,-2.2 l 4.8,-6.2 5.3,-6.1 3.9,-3.6 c 0.8,-0.7 1.2,-1.2 1.4,-1.5 0.9,-1.3 1.2,-2.7 1,-4.3 -0.2,-1.6 -1,-2.9 -2.2,-3.8 -2,-1.4 -4.5,-1.7 -7.4,-0.7 -1.4,-5.1 -4.2,-9 -8.3,-12 -2.1,-1.5 -5.2,-2.9 -9.3,-4.2 l -11.4,-3.6 c -1.3,-0.4 -3.6,-1.3 -6.8,-2.6 -3.2,-1.3 -5.7,-2.4 -7.4,-3.4 -3,-1.8 -5.1,-2.9 -6.3,-3.3 -2.6,-1 -4.7,-0.3 -6.3,2 -1.6,2.3 -1.3,4.9 0.9,8 0.7,0.8 0.9,2.3 0.7,4.3 0,0.5 -0.2,1.9 -0.6,4.3 -0.1,1 0.1,1.2 0.5,0.6 l -9.7,13.7 -0.9,-0.6 c -4.9,-3.4 -8.5,-3.5 -10.9,-0.1 -2,2.8 -1.8,5.5 0.6,8.2 0.9,1 2.1,2.1 3.6,3.1 l -16.5,23.2 c -1.8,2.5 -3.7,3.6 -5.6,3.2 l -3.1,-0.7 c -3.1,-0.7 -5.4,0.1 -7,2.4 -1.4,1.9 -1.6,3.8 -0.7,5.7 0.5,1.1 2.3,2.7 5.4,4.9 l 38.2,27.1 c 0.5,2.9 1.8,5 3.9,6.5 3.5,2.5 6.8,2.2 9.9,-0.9 1.8,-2.5 4.5,-5.4 8.1,-8.8 2.2,-2.1 4.2,-3.9 6,-5.6 l 4.7,-3.5 c 0.7,-0.3 1.4,-1.1 2.2,-2.1 z"
   id="path14"
   inkscape:connector-curvature="0" />
		<path
   d="m 697.8,339.7 c 6.6,-5.2 10.5,-11.9 11.7,-20 0.7,-4.8 0,-12.4 -2.1,-22.6 -1.6,-8.2 -2.6,-13.9 -2.8,-17 -0.2,-3.9 1,-6.9 3.6,-8.9 2,-1.6 4.3,-2.2 7,-1.7 2.6,0.4 4.8,1.8 6.6,4 3.8,4.8 2.8,10.4 -2.9,16.8 -4.3,4.8 -5.4,8.6 -3.3,11.2 1.3,1.7 3.1,2.5 5.2,2.4 1.1,-0.1 3.3,-1.1 6.6,-3 0.3,-0.3 2.1,-1.3 5.2,-3.1 5.6,-3.2 8.7,-5 9.3,-5.4 2.3,-1.8 2.3,-4 0.3,-6.7 l -0.3,-0.4 -2.4,-2.6 c -0.1,0 -0.4,-0.3 -0.9,-0.9 -1,-1.3 -2,-2.8 -2.8,-4.6 l -1.7,-3.4 c -2.2,-4.5 -4.3,-8 -6.2,-10.4 -4.5,-5.7 -10.3,-9.3 -17.2,-10.7 -7,-1.4 -13.3,0.1 -19,4.5 -6,4.7 -9.2,10.9 -9.6,18.5 -0.2,2.5 0.1,5.6 0.9,9.3 -5.5,-5.9 -11.7,-9.4 -18.5,-10.6 -7.4,-1.4 -14.1,0.3 -20.3,5.1 -7.8,6.1 -11.3,14.2 -10.6,24.4 0.7,8.9 4.2,17.4 10.6,25.5 6.8,8.6 15.1,14.1 25,16.4 10.6,2.6 20.1,0.5 28.6,-6.1 z m -28.6,-12.6 c -4.9,-1 -9,-3.6 -12.4,-8 -3.2,-4.1 -4.8,-8.5 -4.8,-13.1 0,-4.6 1.6,-8.2 4.9,-10.8 2.2,-1.7 4.6,-2.5 7.4,-2.3 2.8,0.2 4.9,1.3 6.5,3.3 1.9,2.4 1.9,4.4 0.1,5.8 -0.6,0.5 -1.4,0.7 -2.1,0.5 l -1.6,-0.3 c -0.6,-0.2 -1.2,0 -1.7,0.3 -2.7,2.2 -2.5,5.3 0.6,9.3 2,2.6 4.7,4 8,4.4 3.3,0.3 6.4,-0.6 9.1,-2.7 1.7,-1.3 3,-3.3 4,-5.9 0.3,8.1 -1.3,13.6 -5.1,16.5 -3.7,3 -8,4 -12.9,3 z"
   id="path16"
   inkscape:connector-curvature="0" />
		<path
   d="m 799.9,409.6 c -0.6,-1.6 -2.4,-4 -5.5,-7 -3.6,-3.6 -6.6,-7.7 -8.9,-12.4 l -4.8,-9.7 c -1.9,-3.7 -4.3,-5 -7.3,-3.9 -2.1,0.8 -3.3,2.2 -3.5,4.4 l -0.6,6.4 c -0.2,1.7 -0.8,2.8 -2.1,3.4 -0.1,0.1 -0.9,0.5 -2.4,1 l -13.3,4.8 c -6,-7 -10.5,-13.9 -13.6,-20.8 l 25.2,-9.1 6.9,0.6 5.1,2.9 c 1.3,0.7 2.7,0.8 4.5,0.2 1.4,-0.5 2.5,-1.5 3.2,-2.9 0.7,-1.4 0.8,-2.8 0.3,-4.3 -0.6,-1.6 -2.4,-4 -5.5,-7 -3.6,-3.6 -6.6,-7.7 -8.9,-12.4 l -4.8,-9.7 c -1.9,-3.7 -4.3,-5 -7.3,-3.9 -2.1,0.8 -3.3,2.2 -3.5,4.4 l -0.6,6.4 c -0.2,1.6 -0.9,2.8 -2,3.5 l -22.5,8.1 c -1.9,-4.8 -4.7,-6.5 -8.4,-5.2 -3.7,1.3 -4.7,4.4 -3.2,9.3 l -23.2,8.4 c -2.8,1 -4.9,0.8 -6.4,-0.5 l -2.2,-2.5 c -2.4,-2.2 -4.8,-2.9 -7.1,-2 -2.2,0.8 -3.5,2.2 -3.8,4.3 -0.2,1.2 0.3,3.5 1.6,7.1 l 8.6,23.8 c 1.2,3.4 2.3,5.5 3.3,6.5 1.8,1.2 3.6,1.5 5.7,0.7 2.6,-0.9 4,-3 4.2,-6.2 l 0.2,-3.2 c 0.3,-1.9 1.1,-3.1 2.3,-3.7 l 27,-9.7 c 2.7,5.6 4.6,9.2 5.7,10.9 2.6,3.9 5,7.3 7.3,10.2 L 710,411.5 c -2.9,1 -5,0.8 -6.4,-0.6 l -2.2,-2.3 c -2.1,-2.3 -4.5,-3 -7.1,-2 -2.2,0.8 -3.5,2.2 -3.8,4.3 -0.2,1.2 0.3,3.5 1.6,7.1 l 8.5,23.6 c 1.3,3.6 2.4,5.7 3.3,6.5 1.6,1.4 3.5,1.7 5.7,0.9 2.7,-1 4.1,-3 4.2,-6.1 l 0.1,-3.3 c 0.1,-1.6 0.9,-2.7 2.4,-3.5 l 57,-20.7 6.5,-2.5 6.9,0.6 5.1,2.9 c 1.4,0.8 2.9,0.9 4.5,0.3 1.4,-0.5 2.5,-1.5 3.2,-3 0.8,-1.4 0.9,-2.8 0.4,-4.1 z"
   id="path18"
   inkscape:connector-curvature="0" />
	</g>
	<g
   id="g40">
		<g
   id="g26">
			<path
   class="st1"
   d="m 696.3,542 c -75.9,46 -413,-57.1 -528.6,-0.4 -2.1,38.4 4.7,78.1 0,115.7 110.4,-66.6 383.4,53.6 526.2,3.7 5.4,-18.8 1.7,-92.4 2.4,-119 z"
   id="path22"
   inkscape:connector-curvature="0"
   style="fill:#ffffff" />
			<path
   d="m 699.9,554 c 0,-4 0,-8 0.1,-12 0,-1.6 -0.8,-2.7 -1.9,-3.2 -1,-0.6 -2.3,-0.8 -3.7,0 -8.8,5.2 -19,7.6 -29,9.2 -13.7,2.2 -27.6,2.5 -41.5,2.5 -36.7,-0.2 -73.3,-4.2 -109.7,-8.4 -41.8,-4.8 -83.5,-10.2 -125.4,-14.6 -40,-4.2 -80.3,-7.6 -120.6,-7.1 -31.2,0.4 -64.2,2.4 -93.6,14.1 -3.1,1.2 -6.1,2.5 -9,4 -1.2,0.6 -1.8,2 -1.8,3.2 -2,38.6 4.6,77.2 0,115.7 -0.3,2.9 3.4,4.5 5.6,3.2 31.6,-18.9 70.9,-20.9 106.8,-20 46.7,1.2 93.2,8.5 139.3,15.7 48.4,7.5 96.8,15.6 145.6,19.3 41.9,3.2 85.8,3.8 126.4,-8.5 3.8,-1.2 8.9,-1.7 10.1,-6 0.9,-3.3 1.2,-6.8 1.6,-10.2 1,-9.9 1.2,-19.9 1.3,-29.9 0.3,-22.4 -0.4,-44.7 -0.6,-67 z m -7.1,83.1 c -0.3,6.9 -0.5,14.2 -2.1,21 -30.6,10.2 -63.3,12.2 -95.3,11.6 -37.9,-0.8 -75.7,-5.4 -113.3,-10.8 -38.8,-5.6 -77.4,-12.2 -116.3,-17.5 -35.6,-4.9 -71.6,-9 -107.5,-8.4 -29.2,0.5 -59.9,4 -86.2,17.6 3.1,-35.5 -2.3,-71.1 -0.8,-106.6 26.9,-12.6 58.4,-15.1 87.7,-16 39.8,-1.2 79.6,1.9 119.2,5.8 42,4.2 83.8,9.6 125.7,14.5 37.2,4.3 74.5,8.6 111.9,9.5 25,0.6 53.1,0.9 76.4,-9.5 0.1,0 0.2,-0.1 0.3,-0.2 -0.2,18.5 0.5,37.1 0.7,55.6 0,11.2 0,22.3 -0.4,33.4 z"
   id="path24"
   inkscape:connector-curvature="0" />
		</g>
		<g
   id="g32">
			<path
   class="st1"
   d="m 766.3,542.1 c 17.7,-23.3 39.5,-49.2 55.3,-68.2 -38.6,6.1 -93.6,8.8 -143.7,8.7 0.3,5.1 0.5,10.3 0.5,15.6 0,13.3 -1.1,26.4 -3.1,39.2 12.9,-3.6 25.7,-8.7 34,-11.6 -2.4,17.9 1,44.6 2.2,76.3 41.4,1.3 80.2,-1.9 112.7,-11.9 C 794,574 785.4,561.4 766.3,542.1 Z"
   id="path28"
   inkscape:connector-curvature="0"
   style="fill:#ffffff" />
			<path
   d="m 826.2,587 c -11.8,-6.4 -23,-13.6 -32.9,-22.7 -7.7,-7.1 -14.8,-14.9 -22.1,-22.4 17,-22.3 35.1,-43.7 53.1,-65.3 2.5,-3 0.1,-6.8 -3.6,-6.2 -47,7.3 -95.2,8.7 -142.7,8.6 -1.9,0 -3.8,1.7 -3.7,3.7 1.1,18 0.3,36 -2.5,53.7 -0.4,2.7 1.6,5.4 4.6,4.6 9.8,-2.7 19.3,-6.3 28.8,-9.8 -0.6,9.1 -0.2,18.4 0.3,27.5 0.8,14.5 1.9,28.9 2.5,43.4 0.1,2.1 1.6,3.7 3.7,3.7 38.1,1.1 77,-0.9 113.7,-12 2.9,-0.9 3.7,-5.3 0.8,-6.8 z m -111,11.4 c -0.6,-13.3 -1.6,-26.5 -2.3,-39.7 -0.6,-11 -1.1,-22.1 0.2,-33 0.3,-2.3 -2.6,-4.3 -4.7,-3.6 -9.5,3.4 -18.9,7 -28.6,10 2,-15.2 2.7,-30.5 2,-45.8 43.6,0 87.6,-1.4 130.8,-7.3 -16.8,20.2 -33.6,40.4 -49.5,61.3 -1.2,1.6 -0.8,3.1 0.3,4.1 0.1,0.1 0.2,0.3 0.3,0.4 8.4,8.5 16.3,17.6 25.2,25.6 7.9,7.1 16.6,13.2 25.8,18.6 -32.3,8.5 -66.2,10.2 -99.5,9.4 z"
   id="path30"
   inkscape:connector-curvature="0" />
		</g>
		<g
   id="g38">
			<path
   class="st1"
   d="m 239.3,650.2 c -38.8,0.1 -76.3,29 -84.1,22.7 2.4,-25.4 -1.6,-52.8 0.2,-81.5 -39.4,4.1 -74.3,18.1 -115.7,18.1 18.9,20.5 37.2,31.7 56.3,51.1 -17.7,23.3 -38.5,50.8 -54.4,69.8 49.1,3.1 179.9,-33.5 242,-36.5 -16.6,-12.7 -31.5,-27.3 -44.3,-43.7 z"
   id="path34"
   inkscape:connector-curvature="0"
   style="fill:#ffffff" />
			<path
   d="m 285.4,690.6 c -16.1,-12.4 -30.6,-26.8 -43.3,-42.7 -0.2,-0.2 -0.3,-0.4 -0.5,-0.6 -1,-1.1 -2.2,-1.2 -3.2,-0.8 -17.9,0.4 -34.9,6 -51.3,12.8 -6.4,2.7 -12.8,5.6 -19.3,8.1 -2,0.8 -6,2.6 -8.7,2.7 1.9,-26.2 -1.6,-52.5 0,-78.8 0.1,-1.9 -1.8,-3.9 -3.7,-3.7 -38.9,4.2 -76.3,17.9 -115.7,18.1 -3.3,0 -4.8,4 -2.6,6.3 16.6,17.8 36.6,31.8 54,48.8 -17,22.5 -34,45.1 -52.1,66.8 -2.1,2.5 -0.7,6.1 2.6,6.3 12.2,0.7 24.6,-0.6 36.7,-2.2 16.4,-2.1 32.7,-4.9 49,-7.9 35.7,-6.6 71.3,-14.3 107.1,-20.4 16.3,-2.7 32.7,-5.3 49.2,-6.1 3.9,0 4.7,-4.5 1.8,-6.7 z m -96.8,13.9 c -34.8,6.8 -69.5,14.3 -104.6,19.2 -11.5,1.6 -23.1,3.1 -34.8,3.1 17.2,-21 33.5,-42.8 49.9,-64.4 1,-1.3 0.5,-3.4 -0.6,-4.5 -15.9,-16 -34.3,-29.2 -50.3,-45 35,-1.8 68.5,-13.1 103.2,-17.4 -0.7,18.1 0.5,36.2 0.8,54.4 0.1,4.8 0,9.5 -0.2,14.3 -0.1,3.2 -1.8,8.7 0.5,11.3 2.1,2.4 6.2,2.1 9,1.6 10.9,-1.9 21.3,-8.2 31.4,-12.3 14.3,-5.7 29.1,-10.4 44.6,-10.9 10.8,13.5 23,25.7 36.3,36.8 -28.6,2.4 -57.1,8.3 -85.2,13.8 z"
   id="path36"
   inkscape:connector-curvature="0" />
		</g>
	</g>
	<g
   id="g52">
		<path
   d="m 315.5,579.6 c 6.8,-4.3 12.6,-10.1 13.3,-17.9 0.7,-20.9 -13,-26 -30.8,-26.1 -3.7,-0.6 -8.1,0.3 -8.7,3.2 -4.9,18.6 -7.4,63.2 -6,82.1 0.2,3.5 3.6,4.9 6.9,4.9 17.6,-0.7 38.1,-9.3 40,-26.5 0.5,-14.3 -6,-18.5 -14.7,-19.7 z m -13.6,-37.3 c 10.3,0.9 14.8,4.7 13.7,19.1 -0.8,9.7 -11.5,15.9 -18.6,19 1,-15.2 2.7,-30.4 4.9,-38.1 z m 15.1,56.5 c 0,7.1 -6.3,16.8 -20.6,19.6 -0.5,-7 -0.4,-18.4 0.1,-30.5 0.8,-0.3 1.7,-0.5 2.5,-0.8 3,-0.7 6.1,-1.2 9.1,-1.1 7.7,0 9.1,8.2 8.9,12.8 z"
   id="path42"
   inkscape:connector-curvature="0" />
		<path
   d="m 369.4,542.8 c -36.6,-7.4 -30.9,61.4 -33.6,83.7 -0.4,3.7 6,4.7 6.5,0.8 0.6,-5 1.3,-14.4 2.1,-24.8 7.5,0.7 20.6,2.2 30.5,3.2 -1.1,10.5 -2.6,19.5 -3.6,23.7 -1.3,7.4 11.8,10.4 13.5,1.7 5.8,-25.4 13.7,-82.1 -15.4,-88.3 z m 6.1,56.3 c -9.9,-1 -23,-2.5 -30.4,-3.2 2.4,-21.9 6.8,-46.1 17.5,-47.1 v 0.1 c 0.5,-0.1 1,-0.1 1.3,-0.1 1.3,0.2 2.5,0.6 3.9,1.2 v -0.1 c 8.8,5.5 9.4,28.9 7.7,49.2 z"
   id="path44"
   inkscape:connector-curvature="0" />
		<path
   d="m 445.7,624.7 c -3.8,6.6 -10.8,12.1 -18.7,11.2 -11.1,-1.3 -19.6,-23.1 -16.9,-41.3 2.6,-16 13.8,-36.7 26.7,-35.3 3.9,0.4 6.9,4.9 8,13.5 0.4,3.6 1.7,3.6 3.3,3.4 2.5,-0.2 2.6,-2.7 2.8,-4.7 0.1,-11.1 -5,-18.4 -12.8,-19.7 -22.8,-3.4 -38,18.1 -41.2,41 -3.9,27.5 11.4,47.8 29.1,49.7 10.4,1 18.1,-3.4 24.9,-13.8 2.3,-2.8 -2.3,-8.6 -5.2,-4 z"
   id="path46"
   inkscape:connector-curvature="0" />
		<path
   d="m 497.4,561.3 c -23.7,-3.5 -36.4,17.2 -39.6,39.2 -3.3,22.4 2.5,45.6 26.6,49.1 24.2,3.6 36.3,-16.9 39.6,-39.4 3.3,-21.9 -2.8,-45.4 -26.6,-48.9 z m 13.4,47.1 c -2.1,14.2 -7.7,35.8 -25.2,33.2 -17.5,-2.6 -16.5,-24.9 -14.4,-39 2,-13.8 7.5,-36.3 24.7,-33.7 17.2,2.4 16.9,25.7 14.9,39.5 z"
   id="path48"
   inkscape:connector-curvature="0" />
		<path
   d="m 574.5,577.6 c -4,15.9 -7.8,34.2 -8.9,51.8 l -17.4,-57.7 c -3.5,-5.7 -12.8,-2.6 -12.6,3.3 -5.4,22.6 -9.8,54.8 -7.7,77.3 0.3,3.7 6.9,3.3 6.8,0.8 -1.6,-17.9 1,-43.6 4.9,-64.4 l 19.8,65.6 c 3.8,7 12.9,3.2 13,-2.2 v -0.4 c -2,-22.6 3.2,-51.4 8.7,-73.4 0.8,-3.1 -6,-3.7 -6.6,-0.7 z"
   id="path50"
   inkscape:connector-curvature="0" />
	</g>
	<g
   id="g78">
		<path
   class="st1"
   d="m 343.9,459.4 c 7.3,-0.1 15.9,-1.1 24.9,-2.9 -2.4,-1.5 -4.7,-3 -6.8,-4.5 -10.8,-7.8 -27.2,-15.6 -43.2,-21.1 -20.8,2.2 -47.4,9.7 -63.9,18.4 v 0 c -9.5,5 -21.7,20.2 -24.3,23.6 l 8.3,25.2 c 7.3,-5.5 18.1,-13.1 30.1,-19.4 19.5,-10.3 53.1,-19 74.9,-19.3 z"
   id="path54"
   inkscape:connector-curvature="0"
   style="fill:#ffffff" />
		<path
   class="st1"
   d="m 554.5,369.9 c -21.2,12 -56.2,22.1 -78,22.3 -17.1,0.2 -41.4,5.6 -60.2,13 13.3,5.6 27.4,9.9 38.6,11.5 6.9,1 14.9,3 23.2,5.7 4.7,-0.6 9.2,-0.9 13.2,-1 21.5,-0.3 56,-10.2 77.1,-22.1 12.5,-7.1 22.9,-16.5 29.6,-23.3 l -11,-32.3 c -6.3,6.6 -17.9,17.9 -32.5,26.2 z"
   id="path56"
   inkscape:connector-curvature="0"
   style="fill:#ffffff" />
		<path
   class="st1"
   d="m 254,447.6 v 0 c 15.6,-8.2 40.1,-15.4 60.4,-18.1 -6.2,-2 -12.3,-3.5 -17.8,-4.5 -13.1,3.8 -26.1,9 -36,14.6 -18.1,10.3 -30.3,23.3 -32.6,25.7 l 1.8,5.4 c 3.9,-4.8 15.1,-18.2 24.2,-23.1 z"
   id="path58"
   inkscape:connector-curvature="0"
   style="fill:#ffffff" />
		<path
   class="st1"
   d="m 476.5,390.2 c 21.5,-0.3 56.1,-10.2 77.1,-22.1 14.9,-8.5 26.7,-20.2 32.7,-26.7 l -1.8,-5.4 c -4,4.2 -18,18.1 -33.8,26.5 -18.9,10 -51.5,18.4 -72.6,18.7 -20.8,0.3 -52.6,8.5 -70.9,18.3 -0.5,0.3 -0.9,0.5 -1.4,0.7 2.6,1.3 5.3,2.5 8.1,3.7 19,-7.6 44.7,-13.5 62.6,-13.7 z"
   id="path60"
   inkscape:connector-curvature="0"
   style="fill:#ffffff" />
		<path
   class="st1"
   d="m 345.4,471.2 c -21.6,0.2 -54.8,8.6 -74.1,18.9 v 0 c -11.5,6.1 -22,13.4 -29,18.6 L 246,520 c 4,-3.2 17.6,-13.8 33.3,-22.1 19,-10 51.5,-18.4 72.6,-18.7 13.1,-0.2 30.7,-3.5 46.4,-8.4 -4.5,-1.7 -9,-3.6 -13.3,-5.6 -13.9,3.6 -28.3,5.9 -39.6,6 z"
   id="path62"
   inkscape:connector-curvature="0"
   style="fill:#ffffff" />
		<path
   class="st1"
   d="m 571.2,411.3 c -18,10.2 -45.8,18.9 -67.2,21.4 4.5,2.2 8.9,4.5 12.8,6.8 0.9,-0.2 1.8,-0.4 2.7,-0.6 17.4,-3.8 36.4,-10.5 49.7,-18.1 16,-9 28.4,-22.1 32.8,-27.1 0,0 0,0 0.1,-0.1 0.6,-0.7 1.1,-1.2 1.4,-1.6 l -1.8,-5.1 c -5.9,6.4 -17,16.7 -30.5,24.4 z"
   id="path64"
   inkscape:connector-curvature="0"
   style="fill:#ffffff" />
		<path
   class="st1"
   d="m 491.4,423.3 c -2.8,0 -5.7,0.2 -8.8,0.5 6.1,2.1 12.2,4.6 18,7.3 21.5,-2 51,-10.9 69.7,-21.5 13.8,-7.9 25,-18.6 30.8,-24.7 l -2.3,-6.9 c -6.8,6.8 -17,16 -29.3,23 -21.4,12 -56.4,22 -78.1,22.3 z"
   id="path66"
   inkscape:connector-curvature="0"
   style="fill:#ffffff" />
		<path
   class="st1"
   d="m 270.3,488.4 c 19.6,-10.4 53.2,-18.9 75.1,-19.1 10.6,-0.1 23.8,-2.2 36.9,-5.4 -3.8,-1.9 -7.5,-3.8 -11,-5.8 -9.9,2 -19.4,3.3 -27.4,3.4 -21.5,0.3 -54.7,8.8 -74.1,19.1 v 0 c -12.2,6.4 -23.1,14.2 -30.3,19.7 l 2.2,6.6 c 7,-5.4 17.3,-12.6 28.6,-18.5 z"
   id="path68"
   inkscape:connector-curvature="0"
   style="fill:#ffffff" />
		<path
   class="st1"
   d="m 580.2,525.1 c -24.3,-2.9 -58.4,-15.6 -76.1,-28.3 -17.5,-12.6 -49.1,-25.3 -70.3,-28.2 -21.6,-3.1 -53.5,-15.9 -71.1,-28.6 -17.5,-12.6 -49.3,-25.4 -71,-28.6 v 0 c -13.1,-1.9 -25.8,-2.2 -34.3,-2.1 l -3.6,11.2 c 1.4,-0.1 3.8,-0.1 6.9,-0.2 0.7,0 1.4,0 2.2,0 7.4,0 17.9,0.3 28.7,1.8 0.7,0.1 1.4,0.2 2.2,0.3 21.2,3.1 52.4,15.6 69.6,27.8 1.6,1.1 3.3,2.3 5.1,3.4 16.8,10.5 42.4,20.4 60.9,23.4 0.7,0.1 1.3,0.2 2,0.3 20.9,2.9 51.8,15.3 68.9,27.5 16.9,12.1 49.6,24.1 72.8,26.9 20.9,2.5 41.2,-2.1 44.7,-3 l 1.6,-5.2 c -10.2,1.8 -24.5,3.3 -39.2,1.6 z"
   id="path70"
   inkscape:connector-curvature="0"
   style="fill:#ffffff" />
		<path
   class="st1"
   d="M 591.2,481.8 C 567,479 532.8,466.4 515.1,453.7 c -17.5,-12.5 -49,-25.1 -70.3,-28 -21.6,-3 -53.5,-15.8 -71.2,-28.4 -17.5,-12.5 -49.4,-25.2 -71,-28.4 v 0 c -10.6,-1.5 -29.4,3.5 -33.5,4.6 l -8.3,25.2 c 7.8,-0.1 21.6,0 35.7,2.1 22,3.2 54.2,16.1 71.9,28.7 17.4,12.5 49,25 70.3,28 21.5,3 53.4,15.7 71.2,28.4 17.5,12.5 51.3,25 75.2,27.8 14.4,1.7 28.3,0.2 37.6,-1.4 l 10.2,-32.6 c -7.8,1.6 -24.5,4.1 -41.7,2.1 z"
   id="path72"
   inkscape:connector-curvature="0"
   style="fill:#ffffff" />
		<path
   class="st1"
   d="M 592.2,473.6 C 571,470.5 539.7,458 522.6,445.8 c -16.9,-12.1 -47.4,-24.3 -68,-27.1 -20.8,-2.9 -51.8,-15.3 -68.9,-27.5 -16.9,-12.1 -49.6,-24.1 -72.8,-26.9 -20.7,-2.4 -38.2,0.9 -41.4,1.5 l -1.8,5.4 c 5.9,-1.6 22.9,-5.8 33.1,-4.3 v 0 c 21.9,3.2 54.1,16.1 71.9,28.7 17.4,12.5 48.9,25.1 70.3,28.1 21.5,3 53.5,15.7 71.2,28.4 17.5,12.5 51.3,25 75.2,27.8 17.8,2.1 35.1,-0.8 42.2,-2.2 l 1.7,-5.4 c -5.7,0.9 -25.2,3.9 -43.1,1.3 z"
   id="path74"
   inkscape:connector-curvature="0"
   style="fill:#ffffff" />
		<path
   class="st1"
   d="M 584.8,515.6 C 560.6,512.8 526.4,500.2 508.6,487.5 491,475 459.5,462.4 438.3,459.4 c -21.6,-3 -53.5,-15.8 -71.2,-28.4 -17.4,-12.5 -49.3,-25.2 -71,-28.4 v 0 c -14.4,-2.1 -28.6,-2.2 -36.1,-2.1 l -2.2,6.6 c 8.6,-0.1 21.1,0.2 34,2.1 v 0 c 21.9,3.2 54.2,16.2 71.8,28.9 17.4,12.6 48.9,25.2 70.3,28.2 21.5,3 53.4,15.8 71.2,28.6 17.5,12.6 51.2,25.1 75.2,28 15,1.8 29.6,0.1 39.5,-1.7 l 2.2,-6.9 c -9.4,1.7 -23.1,3 -37.2,1.3 z"
   id="path76"
   inkscape:connector-curvature="0"
   style="fill:#ffffff" />
	</g>
</g>
</svg>