<?xml version="1.0" encoding="UTF-8" standalone="no"?>
<!-- Generator: Adobe Illustrator 21.0.0, SVG Export Plug-In . SVG Version: 6.00 Build 0)  -->

<svg
   xmlns:dc="http://purl.org/dc/elements/1.1/"
   xmlns:cc="http://creativecommons.org/ns#"
   xmlns:rdf="http://www.w3.org/1999/02/22-rdf-syntax-ns#"
   xmlns:svg="http://www.w3.org/2000/svg"
   xmlns="http://www.w3.org/2000/svg"
   xmlns:sodipodi="http://sodipodi.sourceforge.net/DTD/sodipodi-0.dtd"
   xmlns:inkscape="http://www.inkscape.org/namespaces/inkscape"
   version="1.1"
   id="Layer_1"
   x="0px"
   y="0px"
   viewBox="0 0 792 551"
   xml:space="preserve"
   sodipodi:docname="8033.svg"
   width="792"
   height="551"
   inkscape:version="0.92.3 (2405546, 2018-03-11)"><metadata
   id="metadata11"><rdf:RDF><cc:Work
       rdf:about=""><dc:format>image/svg+xml</dc:format><dc:type
         rdf:resource="http://purl.org/dc/dcmitype/StillImage" /><dc:title></dc:title></cc:Work></rdf:RDF></metadata><defs
   id="defs9" /><sodipodi:namedview
   pagecolor="#ffffff"
   bordercolor="#666666"
   borderopacity="1"
   objecttolerance="10"
   gridtolerance="10"
   guidetolerance="10"
   inkscape:pageopacity="0"
   inkscape:pageshadow="2"
   inkscape:window-width="640"
   inkscape:window-height="480"
   id="namedview7"
   showgrid="false"
   fit-margin-top="0"
   fit-margin-left="0"
   fit-margin-right="0"
   fit-margin-bottom="0"
   inkscape:zoom="0.27314815"
   inkscape:cx="396"
   inkscape:cy="275.5"
   inkscape:window-x="0"
   inkscape:window-y="0"
   inkscape:window-maximized="0"
   inkscape:current-layer="Layer_1" />
<style
   type="text/css"
   id="style2">
	.st0{fill:#FFFFFF;}
</style>
<path
   d="M 0,0 V 551 H 792 V 0 Z m 736.1,157.6 c 0,18 -0.3,20.7 -0.3,20.7 0,4.4 -6.3,7.4 -10.1,7.4 h -13.1 c -1.6,0 -2.3,2.1 -2.6,4.9 h -42 l 66.7,-144 c 1.1,60 1.4,93 1.4,111 z m -1.6,-146.4 -3.4,7.2 c 0.3,-0.3 -62.7,136.4 -62.7,136.4 L 605.9,18.9 602.8,11.1 h 131.7 z m -146.3,27.2 70.5,152.2 h -39.6 c -0.3,-2.7 -0.9,-4.9 -2.5,-4.9 h -12.8 c -5.2,0 -15,-2.2 -15.8,-12 -0.8,-14.2 -0.8,-20.5 -0.8,-39.3 -0.1,-32.1 0.5,-75 1,-96 z m -66.6,283 c -0.1,-1.3 -0.1,-2.6 -0.1,-3.9 V 211.3 c 0,-5 -6.7,-8.4 -11.1,-8.4 h -10.2 c -0.3,-0.8 -0.4,-2.7 -0.5,-4.5 1.2,0 2.6,0.1 3.9,0.1 7.7,0.2 17.2,0.5 25.5,0.5 h 75.1 l 3.4,3.6 c 0,0.1 0.1,0.3 0.1,0.6 l -1.1,22.6 -6.7,0.3 C 599.6,215 597.6,205.3 582.5,205.3 H 547 c -5.2,0 -8.3,2.9 -8.6,8.2 v 54.3 l 0.2,0.5 c 0.4,0.9 1.4,1.9 3.6,1.9 h 35.3 c 14,0 16.2,-6.9 16.3,-11.2 l 0.9,-6.8 c 0.1,-0.1 0.5,-0.4 1.3,-0.6 0.9,-0.2 1.9,-0.1 2.8,0.2 -1.2,7.7 -1.6,11.2 -1.6,21.1 0,8.9 0.2,14.3 0.3,20.4 l 0.1,2.7 c -1.4,0.4 -2.6,0.2 -3.3,-0.2 -0.4,-0.3 -0.6,-0.6 -0.6,-1 v -5.9 c 0,-8.2 -8.2,-12.4 -16.3,-12.4 h -35.3 c -1.6,0 -2.9,0.8 -3.6,2.1 l -0.2,0.5 v 57.4 0.4 c 1,5 4.6,8.1 9.4,8.1 h 41 c 7.2,0 13.3,-1.1 20.3,-15.1 1.7,-3.4 2.3,-6.2 3.1,-10.2 l 0.2,-0.8 c 1.3,0.3 2.7,0.8 4.3,1.4 0.6,0.2 1.3,0.5 2,0.7 -0.6,3.9 -3.6,21.9 -5.2,29 -0.1,0.3 -0.3,0.4 -1.2,0.5 -7.4,0.7 -13.8,0.7 -19.5,0.7 h -70.2 c -7.5,0 -15.3,0.2 -22.1,0.5 -1.7,0.1 -3.4,0.1 -5,0.2 0,-1.9 0.1,-4 0.5,-4.9 h 10.4 c 10.1,0 14.6,-4.2 14.7,-8.5 0.1,-0.8 0.5,-6.3 0.5,-13.2 0.2,-1.4 0.1,-2.7 0.1,-3.9 z m 211.9,39 -2.4,5.1 c 0.3,-0.3 -62.7,136.4 -62.7,136.4 L 605.9,366 603.7,360.3 H 733.5 Z M 546.8,11.2 c 0.2,3.5 0.7,6.4 2.7,6.4 h 13.1 c 3.8,0 13.4,1.9 13.4,7.4 -0.3,0 -1.4,132.6 -6.3,148.7 -2.7,8.7 -7.4,12 -13.4,12 h -13.1 c -1.6,0 -2.3,2.1 -2.6,4.9 h -14.1 c -0.6,-2.8 -1.6,-4.9 -3.3,-4.9 H 515 c -4.9,0 -11.2,-1.1 -14.2,-5.2 -30.6,-41.7 -52.7,-73.9 -53.5,-74.5 l 10.1,-6.3 c 24.8,-15 26.7,-36.3 26.7,-47.2 0,-15.3 -8.4,-33 -28.1,-41.4 h 90.8 z M 396.1,23.7 c 0.3,-3.5 2.5,-6.8 16.1,-6.8 32.7,0 44.5,17.5 44.5,43.6 0,32.7 -20.7,40.9 -31.6,40.9 h -26.7 c -1.6,0 -2.2,-1.1 -2.2,-1.6 V 23.7 Z m 0,93 c 0,0 0,-2.2 2.2,-2.2 h 22.4 c 3.8,0.3 6.3,2.2 8.7,5.5 12,17.2 41.2,62.5 41.2,62.5 1.7,2.1 3.4,4.4 6.5,8.1 h -54.4 c -0.3,-2.7 -0.9,-4.9 -2.5,-4.9 h -12.8 c -4.1,0 -10.1,-3.3 -10.1,-7.4 0,0 -1.1,-13.9 -1.1,-25.9 v -35.7 z m -52,-105.5 c 0.2,3.3 0.8,5.9 2.6,5.9 h 13.1 c 4.1,0 10.9,3.3 10.9,7.4 v 127.9 c 0,12.5 -0.8,25.9 -0.8,25.9 0,4.1 -6,7.4 -10.1,7.4 h -13.1 c -1.6,0 -2.3,2.1 -2.6,4.9 h -6.9 c -0.3,-2.7 -0.9,-4.9 -2.5,-4.9 h -11.2 c -4.6,0 -9,-3.3 -11.2,-7.4 -1.6,-2.1 -50.8,-133.6 -61.6,-167.1 z m -109.5,222 -2.2,5.9 c -22.1,58.2 -35.8,96.5 -40.8,114 -1.7,-0.1 -3.7,-0.3 -5.6,-0.3 -1.9,0 -4.2,0.1 -6.1,0.3 -3,-10.2 -10.4,-37 -18.2,-65.3 -13.4,-48.8 -21.7,-78.6 -22.8,-81 l -0.1,-0.2 c -2.3,-4 -8.3,-4.3 -10.1,-4.3 H 118 c -0.3,-0.6 -0.4,-2.1 -0.4,-3.6 9.7,0.2 26.1,0.4 35.8,0.4 9.9,0 17.9,0 25.6,-0.3 0,1.5 -0.1,2.9 -0.4,3.5 h -13.8 c -0.9,0 -3.7,0 -5.2,1.9 -0.6,0.7 -1.1,2 -0.6,3.8 0.2,0.9 20.3,88.3 30.6,118.4 l 2.1,6.1 44.1,-125.6 c 1.3,0.2 2.9,0.4 4.4,0.4 1.1,0 3.2,-0.1 5,-0.3 4.5,15.5 26.7,88.1 37,117.6 l 2.3,6.6 2,-6.7 c 33.1,-114.2 33.1,-114.8 33.1,-115.8 0,-6.3 -6.7,-6.3 -9.3,-6.3 h -15 c -0.3,-0.7 -0.3,-2.1 -0.4,-3.6 9.6,0.2 28.4,0.4 35.1,0.4 7.5,0 11.6,0 18.6,-0.3 0,1.4 -0.1,2.9 -0.4,3.5 h -8.9 c -5.5,0 -9.2,2.5 -11.2,7.6 v 0.1 c -0.3,1.1 -32.3,105.4 -43.2,143.1 -1.7,-0.2 -3.8,-0.3 -5.6,-0.3 -1.9,0 -4.2,0.1 -6.1,0.3 -5.5,-18.2 -26.4,-83.7 -36.6,-114 z m 25.1,220.4 c -0.3,0.3 -0.5,0.5 -1.4,0.5 H 212 c -0.5,0 -0.8,0 -1.1,-0.3 L 236,385.3 Z M 117.9,202.3 v 2.2 -2.2 c 0,0 0,0 0,0 z m 66.8,-24.2 21,-57.6 c 0.3,-0.3 0.5,-0.3 1.1,-0.3 h 56.7 c 0.5,0 0.8,0 1.4,0.3 10.6,31.1 19.9,57.8 19.9,57.8 2.5,6.3 -6.3,7.4 -10.1,7.4 h -10.9 c -1.6,0 -2.3,2.1 -2.6,4.9 h -50.5 c -0.3,-2.9 -1,-5.1 -2.8,-5.1 h -12.8 c -7.9,0 -12,-3 -10.4,-7.4 z m 75,-71.5 c -0.3,0.3 -0.5,0.5 -1.4,0.5 H 212 c -0.5,0 -0.8,0 -1.1,-0.3 L 236,38.3 Z m -204.6,4.9 c 0.3,-0.5 0.8,-1.4 2.2,-1.4 h 45 c 7.6,0 16.9,3.3 16.9,11.5 v 7.4 c 0,3.8 5.2,5.5 10.1,3 -0.3,-10.1 -0.5,-16.6 -0.5,-29.7 0,-12.8 0.5,-16.4 2.2,-26.7 -4.6,-3 -10.4,-1.4 -10.6,1.4 l -1.1,8.7 c 0,8.7 -9.3,11.5 -16.9,11.5 h -45 c -1.4,0 -1.9,-0.5 -2.2,-1.1 l 0.3,-68.5 c 0.3,-4.4 2.7,-7.4 8.2,-7.4 h 46.7 c 16.1,0 18,8.5 18.3,22.9 0,0.8 0.3,1.1 1.1,1.1 l 10.9,-0.5 c 1.1,0 1.4,-0.3 1.4,-1.1 L 143.5,15 c 0,-2.2 -0.8,-2.7 -0.8,-2.7 l -0.9,-1 h 90.7 c -12.2,33.5 -63.3,166.8 -63.3,166.8 -1.9,4.9 -8.5,7.4 -12,7.4 h -13.1 c -1.7,0 -2.3,2.2 -2.6,5.1 H 82.2 c -0.3,-2.7 -0.9,-4.9 -2.5,-4.9 H 66.9 c -4.1,0 -10.9,-3.3 -10.9,-7.4 0,0 -0.5,-13.9 -0.5,-25.9 V 111.5 Z M 11.2,17.1 h 7.6 c 4.1,0 10.6,3.3 10.6,7.4 v 127.9 c 0,12.5 -0.3,25.9 -0.3,25.9 0,4.1 -6,7.4 -10.1,7.4 H 11.1 V 17.1 Z m 18.3,482.4 c 0,12.5 -0.3,25.9 -0.3,25.9 0,4.1 -6,7.4 -10.1,7.4 H 11.2 V 364.1 h 7.6 c 4.1,0 10.6,3.3 10.6,7.4 v 128 z m -11,-150.8 -0.1,-0.5 c -0.3,-1.2 -3.5,-22.6 -4,-26.7 l 6.8,-2 c 0.5,1.6 0.9,3.1 1.3,4.5 1.3,4.4 2.2,7.9 5.3,13.2 0.3,0.6 7.9,13.8 32.3,13.8 18.7,0 31.2,-12.5 31.2,-31.2 0,-6.9 -4.4,-20.9 -34,-36.6 -25.2,-13.7 -38.1,-28.7 -38.1,-44.7 0,-26.3 18.9,-43.2 48.2,-43.2 10,0 19.7,1.5 20.8,1.7 l 0.3,-1.1 -0.1,1.1 9.6,1.5 3.5,3.7 c 0.1,0.1 0.2,0.5 0.1,1.2 l -1.3,24.3 c -1.8,0.1 -4.5,0 -6,0 -0.5,-8 -3.8,-16.9 -6,-19.9 -0.7,-1 -6.7,-8.9 -24.5,-8.9 -17.5,0 -29.2,10.5 -29.2,26.2 0,14.3 1.7,24.6 24.2,37.5 4.9,2.9 9.7,5.3 14.3,7.7 19.9,10.3 34.2,17.8 34.2,41.9 0,21.6 -16.9,43.5 -54.6,43.5 -10.6,0.1 -20.8,-2.1 -34.2,-7 z m 74.7,-121 -0.1,2.1 v -2.2 c 0,0 0,0.1 0.1,0.1 z m 63.7,304.8 h -13.1 c -2.1,0 -2.6,3.4 -2.7,7.3 h -59 c -0.1,-3.7 -0.7,-7 -2.7,-7 H 66.6 c -4.1,0 -10.9,-3.3 -10.9,-7.4 0,0 -0.5,-13.9 -0.5,-25.9 v -41 c 0.3,-0.5 0.8,-1.4 2.2,-1.4 h 45 c 7.6,0 16.9,3.3 16.9,11.5 v 7.4 c 0,3.8 5.2,5.5 10.1,3 -0.3,-10.1 -0.5,-16.6 -0.5,-29.7 0,-12.8 0.5,-16.4 2.2,-26.7 -4.6,-3 -10.4,-1.4 -10.6,1.4 l -1.1,8.7 c 0,8.7 -9.3,11.5 -16.9,11.5 h -45 c -1.4,0 -1.9,-0.5 -2.2,-1.1 l 0.3,-68.5 c 0.3,-4.4 2.7,-7.4 8.2,-7.4 h 46.7 c 16.1,0 18,8.5 18.3,22.9 0,0.8 0.3,1.1 1.1,1.1 l 10.9,-0.5 c 1.1,0 1.4,-0.3 1.4,-1.1 l 1.4,-27.6 c 0,-0.7 -0.1,-1.2 -0.2,-1.6 h 88.4 c -13.4,36.7 -62.5,164.7 -62.5,164.7 -2.3,4.9 -8.9,7.4 -12.4,7.4 z m 117.8,0.2 h -10.9 c -2,0 -2.6,3.2 -2.7,7 h -50.3 c -0.1,-3.8 -0.7,-7.3 -3,-7.3 H 195 c -7.9,0 -12,-3 -10.4,-7.4 l 21,-57.6 c 0.3,-0.3 0.5,-0.3 1.1,-0.3 h 56.7 c 0.5,0 0.8,0 1.4,0.3 10.6,31.1 19.9,57.8 19.9,57.8 2.6,6.5 -6.1,7.5 -10,7.5 z m 96.1,-33.2 c 0,12.5 -0.8,25.9 -0.8,25.9 0,4.1 -6,7.4 -10.1,7.4 h -13.1 c -2,0 -2.6,3.2 -2.7,7 h -6.6 c -0.1,-3.7 -0.7,-7 -2.7,-7 h -11.2 c -4.6,0 -9,-3.3 -11.2,-7.4 -1.5,-2 -48.9,-128.3 -60.9,-165 h 92.9 c 0.3,2.2 1,3.7 2.4,3.7 h 13.1 c 4.1,0 10.9,3.3 10.9,7.4 z m -8.4,-147.8 c -1.7,0.1 -3.4,0.1 -5,0.2 0,-1.9 0.1,-4 0.5,-4.9 h 10.4 c 10.1,0 14.6,-4.2 14.7,-8.5 0.1,-0.8 0.5,-6.3 0.5,-13.2 0,-1.3 -0.1,-2.5 -0.1,-3.8 -0.1,-1.3 -0.1,-2.6 -0.1,-3.9 V 211.3 c 0,-5 -6.7,-8.4 -11.1,-8.4 H 362 c -0.3,-0.8 -0.4,-2.7 -0.5,-4.5 1.2,0 2.6,0.1 3.9,0.1 7.7,0.2 17.2,0.5 25.5,0.5 H 466 l 3.4,3.6 c 0,0.1 0.1,0.3 0.1,0.6 l -1.1,22.6 -6.7,0.3 c -0.3,-11.1 -2.3,-20.8 -17.4,-20.8 h -35.5 c -5.2,0 -8.3,2.9 -8.6,8.2 v 54.3 l 0.2,0.5 c 0.4,0.9 1.4,1.9 3.6,1.9 h 35.3 c 14,0 16.2,-6.9 16.3,-11.2 l 0.9,-6.8 c 0.1,-0.1 0.5,-0.4 1.3,-0.6 0.9,-0.2 1.9,-0.1 2.8,0.2 -1.2,7.7 -1.6,11.2 -1.6,21.1 0,8.9 0.2,14.3 0.3,20.4 l 0.1,2.7 c -1.4,0.4 -2.6,0.2 -3.3,-0.2 -0.4,-0.3 -0.6,-0.6 -0.6,-1 v -5.9 c 0,-8.2 -8.2,-12.4 -16.3,-12.4 H 404 c -1.6,0 -2.9,0.8 -3.6,2.1 l -0.2,0.5 v 57.4 0.4 c 1,5 4.6,8.1 9.4,8.1 h 41 c 7.2,0 13.3,-1.1 20.3,-15.1 1.7,-3.4 2.3,-6.2 3.1,-10.2 l 0.2,-0.8 c 1.3,0.3 2.7,0.8 4.3,1.4 0.6,0.2 1.3,0.5 2,0.7 -0.6,3.9 -3.6,21.9 -5.2,29 -0.1,0.3 -0.3,0.4 -1.2,0.5 -7.4,0.7 -13.8,0.7 -19.5,0.7 h -70.2 c -7.3,0 -15.1,0.3 -22,0.5 z m 94.3,55.8 c 0,32.7 -20.7,40.9 -31.6,40.9 h -26.7 c -1.6,0 -2.2,-1.1 -2.2,-1.6 v -76.1 c 0.3,-3.5 2.5,-6.8 16.1,-6.8 32.7,0 44.4,17.4 44.4,43.6 z m -33.9,132.3 c -0.1,-3.7 -0.7,-7 -2.7,-7 h -12.8 c -4.1,0 -10.1,-3.3 -10.1,-7.4 0,0 -1.1,-13.9 -1.1,-25.9 v -35.7 c 0,0 0,-2.2 2.2,-2.2 h 22.4 c 3.8,0.3 6.3,2.2 8.7,5.5 12,17.2 41.2,62.5 41.2,62.5 2,2.5 4,5.2 8.3,10.3 h -56.1 z m 146.8,-19.1 c -2.7,8.7 -7.4,12 -13.4,12 h -13.1 c -2,0 -2.6,3.2 -2.7,7 h -13.6 c -0.4,-3.7 -1.6,-7 -3.6,-7 H 515 c -4.9,0 -11.2,-1.1 -14.2,-5.2 -30.6,-41.7 -52.7,-73.9 -53.5,-74.5 l 10.1,-6.3 c 24.8,-15 26.7,-36.3 26.7,-47.2 0,-14.1 -7.2,-30.2 -23.7,-39.2 H 547 c 0.3,2.5 1,4.3 2.5,4.3 h 13.1 c 3.8,0 13.4,1.9 13.4,7.4 -0.4,0.1 -1.4,132.6 -6.4,148.7 z m 49.6,19.1 c -0.1,-3.7 -0.7,-7 -2.7,-7 h -12.8 c -5.2,0 -15,-2.2 -15.8,-12 -0.8,-14.2 -0.8,-20.5 -0.8,-39.3 0,-32.2 0.5,-75 1.1,-96 l 71.5,154.3 z m 116.6,-14.4 c 0,4.4 -6.3,7.4 -10.1,7.4 h -13.1 c -2,0 -2.6,3.2 -2.7,7 H 667 l 67.7,-146.1 c 1.1,60 1.4,93 1.4,111 0,17.9 -0.3,20.7 -0.3,20.7 z M 717.1,339.1 c 0.1,5.7 6.9,8.3 11.8,8.3 h 12 c 0.3,0.8 0.4,2.7 0.5,4.4 -8.7,-0.4 -23.4,-0.6 -33.7,-0.6 -9.8,0 -25.2,0.4 -34.2,0.6 0,-1.8 0.1,-3.7 0.5,-4.5 h 13.3 c 4.9,0 11.7,-2.6 11.8,-8.3 0.1,-0.9 0.7,-11.6 0.7,-21.6 V 209.2 l -0.1,-0.3 c -0.6,-2.4 -2.3,-3.2 -3.6,-3.5 h -0.2 -30.6 c -10.7,0 -18.2,8.2 -21.3,23.1 l -5.6,-0.2 1.7,-24.6 v -0.2 c 0,-0.4 0,-0.6 0.1,-0.7 l 3.5,-4 23.2,0.2 h 82.9 l 23.3,-0.2 4.5,4.3 c 0,0.1 0.1,0.3 0.1,0.7 l -1.3,24.7 h -5.1 c -2.8,-12.7 -6.4,-23.1 -19.9,-23.1 h -31 -0.3 c -1.7,0.2 -3.7,1.3 -3.7,4.9 v 107.2 c -0.3,9.5 0.6,20.5 0.7,21.6 z m 63.7,193.6 h -7.9 c -3.8,0 -9.8,-3 -9.8,-7.4 0,0 -1.4,-12 -3.5,-153.9 0,-4.1 7.1,-7.4 11.2,-7.4 h 10 z m 0,-347 h -7.9 c -3.8,0 -9.8,-3 -9.8,-7.4 0,0 -1.4,-12 -3.5,-153.9 0,-4.1 7.1,-7.4 11.2,-7.4 h 10 z"
   id="path4"
   inkscape:connector-curvature="0" />
</svg>