<?xml version="1.0" encoding="UTF-8" standalone="no"?>
<!-- Created with Inkscape (http://www.inkscape.org/) -->

<svg
   xmlns:dc="http://purl.org/dc/elements/1.1/"
   xmlns:cc="http://creativecommons.org/ns#"
   xmlns:rdf="http://www.w3.org/1999/02/22-rdf-syntax-ns#"
   xmlns:svg="http://www.w3.org/2000/svg"
   xmlns="http://www.w3.org/2000/svg"
   xmlns:sodipodi="http://sodipodi.sourceforge.net/DTD/sodipodi-0.dtd"
   xmlns:inkscape="http://www.inkscape.org/namespaces/inkscape"
   width="1399.9999mm"
   height="993.79688mm"
   viewBox="0 0 1399.9999 993.79685"
   version="1.1"
   id="svg9245"
   inkscape:version="0.92.3 (2405546, 2018-03-11)"
   sodipodi:docname="9508.svg">
  <defs
     id="defs9239" />
  <sodipodi:namedview
     id="base"
     pagecolor="#ffffff"
     bordercolor="#666666"
     borderopacity="1.0"
     inkscape:pageopacity="0.0"
     inkscape:pageshadow="2"
     inkscape:zoom="0.021875"
     inkscape:cx="15957.355"
     inkscape:cy="-5026.2406"
     inkscape:document-units="mm"
     inkscape:current-layer="layer1"
     showgrid="false"
     fit-margin-top="0"
     fit-margin-left="0"
     fit-margin-right="0"
     fit-margin-bottom="0"
     inkscape:window-width="1280"
     inkscape:window-height="657"
     inkscape:window-x="-8"
     inkscape:window-y="-8"
     inkscape:window-maximized="1" />
  <metadata
     id="metadata9242">
    <rdf:RDF>
      <cc:Work
         rdf:about="">
        <dc:format>image/svg+xml</dc:format>
        <dc:type
           rdf:resource="http://purl.org/dc/dcmitype/StillImage" />
        <dc:title></dc:title>
      </cc:Work>
    </rdf:RDF>
  </metadata>
  <g
     inkscape:label="Layer 1"
     inkscape:groupmode="layer"
     id="layer1"
     transform="translate(2767.1816,342.79799)">
    <path
       style="clip-rule:evenodd;fill:#3e3a49;fill-rule:nonzero;stroke-width:0.88208622;image-rendering:optimizeQuality;shape-rendering:geometricPrecision;text-rendering:geometricPrecision"
       inkscape:connector-curvature="0"
       id="path2581"
       d="m -1473.9991,488.69385 c -30.8733,17.64185 -249.6287,124.37504 -313.1394,162.30502 0,0 -78.5062,-0.8682 -184.3573,-1.77113 -15.8777,0 -32.6374,0 -49.3937,0 -194.0604,-1.77113 -447.2209,-2.63934 -508.0818,-1.77113 -18.524,0 -47.633,0.8682 -78.5062,-0.86821 -14.9956,-0.8682 -29.9912,-1.77113 -44.9868,-3.52837 -29.109,-3.52837 -56.4539,-10.5851 -70.5674,-22.05231 -39.6941,-30.87323 -47.6329,-86.44506 -33.5195,-141.13479 14.1135,-55.57183 72.3316,-69.68531 100.5586,-68.80321 14.9955,0.8682 32.6374,1.77113 52.0434,1.77113 h 2.6394 c 19.406,0 41.4583,0.8682 65.2748,0.8682 v 0 c 151.7164,0 375.7679,-5.29256 540.7157,-7.93883 21.1703,0 187.8857,-1.77113 208.1739,0 -27.3449,42.34044 -51.1614,172.89012 -17.6419,228.46194 14.1135,-10.58511 279.6198,-136.72433 342.2484,-174.6543 14.1135,-8.82093 29.9912,-14.11348 41.4584,-24.69859 -43.2226,-8.82093 -47.633,-100.55854 -25.5807,-140.24923 l 20.2881,-15.87766 c -21.1702,61.74299 -33.5195,136.72085 30.8732,146.42387 25.5807,4.41046 -58.2181,52.92555 -79.3883,64.39275 z"
       class="fil9" />
    <path
       style="clip-rule:evenodd;fill:#706ba0;fill-rule:nonzero;stroke-width:0.88208622;image-rendering:optimizeQuality;shape-rendering:geometricPrecision;text-rendering:geometricPrecision"
       inkscape:connector-curvature="0"
       id="path2583"
       d="m -1740.3876,508.98198 c 28.227,-16.75976 75.86,-53.80764 106.7332,-57.33601 32.6374,-3.52837 66.1569,31.75533 94.3839,50.27927 22.9309,14.99557 46.7474,26.46277 68.7997,41.45835 0,0 -57.336,0.8682 -84.6774,4.41046 2.6394,22.05231 17.6419,39.69416 24.6951,60.86438 -72.3281,-2.63933 -144.6597,-49.39718 -211.6987,-98.79436 v 0 z"
       class="fil15" />
    <path
       style="clip-rule:evenodd;fill:#ff6648;fill-rule:nonzero;stroke-width:0.88208622;image-rendering:optimizeQuality;shape-rendering:geometricPrecision;text-rendering:geometricPrecision"
       inkscape:connector-curvature="0"
       id="path2585"
       d="m -1690.1083,400.48461 c -10.5851,6.17464 -19.4061,10.58511 -25.5807,14.11348 -11.4672,-29.10905 -21.1702,-74.97786 -18.524,-101.43716 1.7712,-14.11348 7.9389,-32.63742 14.9956,-47.633 12.3493,-6.17464 28.227,-17.64185 37.0479,-21.17022 34.4016,-14.99557 240.8078,-118.20039 300.7901,-164.069193 -23.8165,18.523941 -53.8077,134.960143 -10.5851,152.601993 -37.93,30.87324 -213.463,120.8432 -297.2617,167.5941 z m 317.5498,-172.88665 c -63.5107,-43.22253 2.6393,-128.785502 5.2925,-159.658738 2.6394,-21.170219 -57.336,-11.467202 -84.6808,-4.410462 l -258.4497,148.19153 c -15.8776,7.05674 -35.2837,14.11348 -52.0434,22.93441 0.8682,0.8682 1.7711,1.77113 2.6393,2.63933 -72.3316,2.63933 -176.4185,7.93883 -200.235,8.82092 -1.7711,0 -2.6393,0 -4.4104,0 -4.4105,0 -10.5851,0 -17.6419,0.86821 -81.149,2.63933 -329.8991,4.41046 -508.0818,4.41046 -6.1746,0 -11.4637,0 -16.7562,0 -100.5586,0 -175.5364,0 -179.0648,-0.8682 -41.4584,-5.29256 -78.5062,45.8688 -76.7421,93.49832 1.7712,62.62857 35.2837,89.97344 73.2137,93.50181 25.5807,2.63933 74.9779,3.52837 139.3706,2.63933 8.8209,0 17.6419,0 26.4628,0 152.5985,-0.8682 372.2395,-6.17465 545.1262,-10.58511 7.9388,0 14.9956,0 22.9344,-0.8682 123.4929,-2.63934 219.641,-4.41047 245.2217,-1.77113 0.8682,0 0.8682,0 1.7711,0 16.7598,4.41046 74.9779,-33.51952 89.0914,-42.34044 67.9211,-38.81207 283.1482,-152.59853 247.8645,-158.77317 z"
       class="fil12" />
    <path
       style="clip-rule:evenodd;fill:#ffffff;fill-rule:nonzero;stroke-width:0.88208622;image-rendering:optimizeQuality;shape-rendering:geometricPrecision;text-rendering:geometricPrecision"
       inkscape:connector-curvature="0"
       id="path2587"
       d="m -2543.9669,331.6814 c 7.0568,-28.22349 30.8733,-57.33254 52.04,-79.38485 h -16.7563 c -22.0523,26.46277 -47.633,49.39717 -54.6897,89.08786 -5.2926,29.10905 -4.4105,74.97786 11.4672,99.67645 8.8209,0 17.6418,0 26.4628,0 -6.1747,-32.63742 -29.9912,-67.92112 -18.524,-110.26156 z"
       class="fil0" />
    <path
       style="clip-rule:evenodd;fill:#ffffff;fill-rule:nonzero;stroke-width:0.88208622;image-rendering:optimizeQuality;shape-rendering:geometricPrecision;text-rendering:geometricPrecision"
       inkscape:connector-curvature="0"
       id="path2589"
       d="m -1990.0198,327.27093 c 7.0568,-28.22348 30.8733,-57.33253 52.0435,-79.38485 h -16.7598 c -22.0523,26.46278 -47.633,49.39718 -54.6897,89.08787 -5.2926,29.10905 -7.9388,68.80321 7.9388,93.5018 8.821,0 19.4061,-0.8682 28.227,-0.8682 -6.1747,-32.63742 -28.227,-60.86438 -17.6419,-103.20482 z"
       class="fil0" />
    <path
       style="clip-rule:evenodd;fill:#8dccc4;fill-rule:nonzero;stroke-width:0.88208622;image-rendering:optimizeQuality;shape-rendering:geometricPrecision;text-rendering:geometricPrecision"
       inkscape:connector-curvature="0"
       id="path2591"
       d="m -1588.6677,133.21406 c -31.7553,14.99558 -127.9034,66.15694 -174.6543,84.68088 -25.5807,-40.57625 -13.2314,-97.03017 6.1746,-148.191533 26.4628,-9.703017 54.6898,-24.698589 80.2705,-37.047883 32.6374,-14.995572 118.2003,-52.043455 176.415,-82.034599 -3.5284,7.05674 -6.1747,14.995572 -8.8209,23.816496 -10.5852,33.5195139 -5.2926,71.44949 16.7597,82.916692 33.5195,17.641849 -81.149,68.803207 -95.2625,75.859947 z m 149.0702,-73.21367 c -36.1658,0 -54.6898,-12.349294 -58.2181,-58.2181024 -3.5284,-44.9867156 38.812,-67.0390266 49.3971,-76.7420446 10.5851,-9.703017 1.7712,-10.585109 1.7712,-10.585109 -3.5284,0 -7.0568,0 -10.5851,0.868201 -120.8432,6.174647 -756.8284,44.104623 -818.5749,49.397178 -56.4539,4.410462 -97.9123,-6.174647 -148.1915,25.5806814 -71.4495,44.9867156 -179.0613,64.3927496 -263.7422,87.3271536 -37.93,-3.52837 -81.1525,44.104622 -79.3883,88.209242 2.6393,57.33601 42.3404,81.15251 83.7988,86.44507 100.5585,12.34929 209.9345,10.58511 311.3751,7.93883 119.9646,-3.52837 521.3132,-8.82093 624.518,-19.40604 0,0 151.7199,-83.79878 229.3406,-119.96457 23.8165,-11.4672 130.5497,-67.921121 77.6241,-59.982289 z"
       class="fil11" />
    <path
       style="clip-rule:evenodd;fill:#3e3a49;fill-rule:nonzero;stroke-width:0.88208622;image-rendering:optimizeQuality;shape-rendering:geometricPrecision;text-rendering:geometricPrecision"
       inkscape:connector-curvature="0"
       id="path2593"
       d="m -2521.0325,95.284089 0.8682,28.226961 37.0444,-0.8682 v 13.23138 l -37.0444,0.8682 0.8682,54.68974 c 0,7.05674 1.7712,12.34929 4.4105,14.99557 2.6393,2.63933 7.9388,4.41046 14.9956,4.41046 h 18.5204 v 13.23139 h -20.2846 c -12.3493,0 -21.1702,-1.77113 -26.4628,-7.05674 -5.2926,-5.29256 -7.9388,-13.23139 -7.9388,-25.58068 l -0.8682,-54.68974 h -26.4628 v -13.23138 h 26.4628 l -0.8682,-28.226961 z"
       class="fil9" />
    <path
       style="clip-rule:evenodd;fill:#3e3a49;fill-rule:nonzero;stroke-width:0.88208622;image-rendering:optimizeQuality;shape-rendering:geometricPrecision;text-rendering:geometricPrecision"
       inkscape:connector-curvature="0"
       id="path2595"
       d="m -2386.0758,172.02613 h -5.2926 c -9.703,0 -16.7597,1.77113 -22.0523,5.29256 -4.4104,3.52837 -7.0567,8.82092 -7.0567,14.99557 0,6.17465 1.7711,10.58511 5.2925,14.11348 3.5284,3.52837 8.821,5.29255 14.9956,4.41046 8.8209,0 15.8777,-3.52837 21.1702,-9.70302 5.2926,-6.17464 7.9389,-14.99557 7.0568,-26.46277 v -3.52837 h -14.9956 z m 31.7553,-7.05674 0.8682,57.33601 h -16.7597 v -14.99557 c -3.5284,6.17465 -7.9389,10.58511 -13.2314,13.23139 -5.2926,2.63933 -11.4672,4.41046 -19.4061,4.41046 -10.5851,0 -18.5239,-2.63933 -24.6985,-7.93883 -6.1747,-5.29256 -9.7031,-13.23139 -9.7031,-22.93441 0,-11.4672 3.5284,-19.40603 10.5851,-25.58068 7.0568,-6.17464 18.524,-8.82092 32.6375,-8.82092 h 22.0523 v -2.63933 c 0,-7.93884 -2.6394,-14.11348 -6.1747,-17.64185 -4.4104,-3.52837 -10.5851,-5.29256 -19.406,-5.29256 -5.2926,0 -11.4672,0.8682 -16.7598,2.63933 -5.2925,1.77113 -11.4672,4.41047 -16.7597,7.05674 v -16.75975 c 6.1746,-2.63933 11.4672,-4.41047 17.6418,-5.29256 5.2926,-0.8682 10.5851,-1.77113 15.8777,-1.77113 7.9388,0 14.9956,0.8682 21.1702,3.52837 6.1747,2.63933 10.5851,6.17465 14.1135,10.58511 2.6393,2.63933 4.4105,6.17465 5.2926,10.58511 0.8682,4.41046 1.7711,10.58511 1.7711,19.40604 z"
       class="fil9" />
    <polygon
       transform="matrix(0.88208621,0,0,0.88208621,-8326.0413,-2353.3872)"
       style="clip-rule:evenodd;fill:#3e3a49;fill-rule:nonzero;image-rendering:optimizeQuality;shape-rendering:geometricPrecision;text-rendering:geometricPrecision"
       id="polygon2597"
       points="6848,2873 6849,2919 6830,2919 6827,2761 6847,2761 6848,2852 6896,2804 6919,2804 6875,2847 6928,2917 6905,2918 6862,2860 "
       class="fil9" />
    <path
       style="clip-rule:evenodd;fill:#3e3a49;fill-rule:nonzero;stroke-width:0.88208622;image-rendering:optimizeQuality;shape-rendering:geometricPrecision;text-rendering:geometricPrecision"
       inkscape:connector-curvature="0"
       id="path2599"
       d="m -2114.3913,159.67684 c 0,-9.70302 -2.6394,-16.75976 -7.0568,-22.05231 -4.4104,-5.29256 -10.5851,-7.05674 -18.5239,-7.05674 -7.9388,0 -14.1135,2.63933 -19.406,7.93883 -5.2926,5.29255 -7.9389,12.34929 -8.821,22.05231 l 54.6898,-0.8682 z m 16.7597,4.41046 v 7.93883 l -71.4495,0.8682 v 0.86821 c 0,10.5851 3.5284,19.40603 8.821,25.58068 6.1746,6.17464 14.1134,8.82092 24.6986,8.82092 5.2925,0 10.5851,-0.8682 16.7597,-2.63933 5.2926,-1.77113 11.4672,-4.41046 18.524,-7.93883 v 16.75975 c -6.1747,2.63934 -12.3493,4.41047 -17.6419,6.17465 -6.1746,1.77113 -11.4672,1.77113 -16.7598,1.77113 -15.8776,0 -28.2269,-4.41046 -37.0478,-13.23139 -8.821,-8.82092 -13.2314,-22.05231 -14.1135,-38.81206 0,-15.87767 3.5284,-29.10905 12.3493,-38.81207 8.8209,-9.70302 19.406,-14.99557 34.4016,-14.99557 12.3493,0 22.9344,4.41046 29.9911,12.34929 7.9389,8.82093 11.4672,20.28813 11.4672,35.2837 z"
       class="fil9" />
    <path
       style="clip-rule:evenodd;fill:#3e3a49;fill-rule:nonzero;stroke-width:0.88208622;image-rendering:optimizeQuality;shape-rendering:geometricPrecision;text-rendering:geometricPrecision"
       inkscape:connector-curvature="0"
       id="path2601"
       d="m -1985.6093,119.98268 v 15.87766 c -4.4105,-2.63933 -9.703,-4.41046 -14.1135,-6.17465 -4.4104,-0.8682 -9.703,-1.77113 -14.9956,-1.77113 -7.0532,0 -13.2279,1.77113 -16.7562,3.52837 -3.5284,2.63934 -5.2926,6.17465 -5.2926,11.46721 0,4.41046 1.7711,7.93883 4.4105,9.70301 2.6393,1.77113 9.703,4.41047 20.2846,6.17465 l 7.0568,0.8682 c 7.9388,1.77113 14.1134,4.41046 18.5239,8.82093 4.4105,4.41046 6.1747,10.58511 6.1747,18.52394 0,9.70301 -3.5284,17.64185 -10.5852,23.81649 -7.0567,5.29256 -16.7597,8.82093 -29.1055,8.82093 -5.2926,0 -10.5851,0 -15.8777,-1.77113 -5.2926,-0.8682 -11.4672,-2.63933 -17.6418,-4.41046 v -16.75976 c 6.1746,2.63933 12.3492,5.29255 17.6418,7.05674 5.2926,1.77113 10.5851,2.63933 15.8777,1.77113 7.0532,0 13.2279,-1.77113 16.7562,-4.41046 3.5284,-2.63933 6.1747,-7.05674 6.1747,-12.3493 0,-7.93883 -7.9388,-13.23138 -22.0488,-15.87766 h -0.8682 l -6.1747,-0.8682 c -9.703,-1.77113 -16.7597,-4.41047 -21.1702,-8.82093 -4.4105,-4.41046 -7.0567,-10.58511 -7.0567,-17.64185 0,-9.70301 2.6393,-16.75975 9.703,-22.05231 6.1746,-5.29255 15.8776,-7.93883 27.3414,-7.93883 5.2925,0 10.5851,0 15.8776,0.8682 5.2926,0.8682 9.703,2.63933 14.9956,4.41046 z"
       class="fil9" />
    <polygon
       transform="matrix(0.88208621,0,0,0.88208621,-8326.0413,-2353.3872)"
       style="clip-rule:evenodd;fill:#ffffff;fill-rule:nonzero;image-rendering:optimizeQuality;shape-rendering:geometricPrecision;text-rendering:geometricPrecision"
       id="polygon2603"
       points="6752,3026 6717,3090 6717,3109 6728,3109 6728,3139 6655,3139 6655,3109 6666,3109 6666,3090 6629,3026 6623,3026 6623,2996 6693,2996 6693,3026 6686,3026 6697,3058 6699,3058 6710,3026 6703,3026 6703,2996 6759,2996 6759,3026 "
       class="fil0" />
    <path
       style="clip-rule:evenodd;fill:#ffffff;fill-rule:nonzero;stroke-width:0.88208622;image-rendering:optimizeQuality;shape-rendering:geometricPrecision;text-rendering:geometricPrecision"
       inkscape:connector-curvature="0"
       id="path2605"
       d="m -2276.6963,389.01741 c 3.5283,0 6.1746,-0.86821 7.9388,-2.63934 1.7711,-1.77113 2.6393,-5.29255 2.6393,-8.82092 v -48.51509 c 0,-4.41046 -0.8682,-7.05326 -2.6393,-8.81745 -1.7711,-1.77113 -4.4105,-2.63933 -7.9388,-2.63933 -3.5284,0 -6.1747,0.8682 -7.9389,2.63933 -1.7711,1.77113 -2.6393,5.28908 -2.6393,8.81745 v 48.51509 c 0,4.41046 0.8682,7.05674 2.6393,8.82092 1.7712,1.77113 4.4105,2.63934 7.9389,2.63934 z m 61.7464,-36.1658 c 0,11.46721 -1.7711,22.05232 -4.4104,29.99115 -2.6394,7.93883 -7.0568,14.99557 -12.3493,20.28813 -5.2926,5.29255 -11.4672,8.82092 -19.4061,11.4672 -7.9388,2.63933 -15.8776,3.52837 -25.5806,3.52837 -9.7031,0 -17.6419,-0.8682 -25.5807,-3.52837 -7.9389,-2.63933 -14.1135,-6.17465 -19.4061,-11.4672 -5.2925,-5.29256 -9.703,-11.46721 -12.3493,-20.28813 -2.6393,-7.93883 -4.4104,-18.52394 -4.4104,-29.99115 0,-11.4672 1.7711,-22.05231 4.4104,-29.99114 2.6394,-7.93536 7.0568,-14.9921 12.3493,-20.28465 5.2926,-5.29256 11.4672,-8.82093 19.4061,-11.4672 7.9388,-2.63934 15.8776,-3.52837 25.5807,-3.52837 9.703,0 17.6418,0.8682 25.5806,3.52837 7.9389,2.63933 14.1135,6.17464 19.4061,11.4672 5.2925,5.29255 9.703,12.34929 12.3493,20.28465 2.6393,7.93883 4.4104,18.52394 4.4104,29.99114 z"
       class="fil0" />
    <path
       style="clip-rule:evenodd;fill:#ffffff;fill-rule:nonzero;stroke-width:0.88208622;image-rendering:optimizeQuality;shape-rendering:geometricPrecision;text-rendering:geometricPrecision"
       inkscape:connector-curvature="0"
       id="path2607"
       d="m -2066.7583,370.49346 c 0,8.82093 -0.8682,15.87767 -3.5284,22.05232 -2.6393,6.17464 -6.1747,10.58511 -10.5851,14.99557 -4.4105,3.52837 -9.703,6.17464 -16.7598,7.93883 -6.1746,1.77113 -13.2314,2.63933 -21.1702,2.63933 -7.9388,0 -14.9956,-0.8682 -22.0523,-2.63933 -6.1746,-1.77113 -12.3493,-4.41046 -16.7598,-7.93883 -4.4104,-3.52837 -7.9388,-8.82093 -10.5851,-14.99557 -2.6393,-6.17465 -3.5283,-13.23139 -3.5283,-22.05232 V 316.6893 h -9.7031 v -26.46278 h 61.7465 v 26.46278 h -6.1746 v 62.62509 c 0,3.52837 0.8682,6.17465 2.6393,7.93883 1.7711,1.77113 3.5284,2.63933 7.0567,2.63933 3.5284,0 5.2926,-0.8682 7.0568,-2.63933 1.7711,-1.77113 2.6393,-4.41046 2.6393,-7.93883 V 316.6893 h -6.1746 v -26.46278 h 57.336 v 26.46278 h -9.703 v 53.80416 z"
       class="fil0" />
    <path
       style="clip-rule:evenodd;fill:#ffffff;fill-rule:nonzero;stroke-width:0.88208622;image-rendering:optimizeQuality;shape-rendering:geometricPrecision;text-rendering:geometricPrecision"
       inkscape:connector-curvature="0"
       id="path2609"
       d="m -2536.9101,460.4669 c -1.7712,23.81649 -1.7712,48.51508 -1.7712,73.21367 0,31.75533 0.8682,63.51066 2.6394,85.56297 l -28.227,-2.63933 c -1.7711,-14.11348 -2.6393,-37.04789 -2.6393,-60.86438 l -32.6375,1.77113 c 0.8682,21.17022 0.8682,42.34044 1.7712,64.39275 l -29.9912,-2.63933 c -1.7711,-29.99115 -2.6393,-59.1002 -2.6393,-88.20925 0,-22.05231 0.8682,-44.10462 1.7711,-65.27484 l 29.1091,2.63933 c -0.8682,13.23139 -1.7711,26.46277 -1.7711,39.69416 0,7.93883 0,17.64185 0,25.58068 l 33.5195,-1.77113 c 0,-24.69859 0.8682,-50.27927 0.8682,-73.21367 l 29.109,2.63933 z"
       class="fil0" />
    <path
       style="clip-rule:evenodd;fill:#ffffff;fill-rule:nonzero;stroke-width:0.88208622;image-rendering:optimizeQuality;shape-rendering:geometricPrecision;text-rendering:geometricPrecision"
       inkscape:connector-curvature="0"
       id="path2611"
       d="m -2459.2895,464.87736 c -1.7711,22.9344 -1.7711,49.39718 -1.7711,75.85995 0,29.10905 0.8682,58.2181 2.6393,82.91669 l -29.9911,-2.63933 c -1.7712,-30.87324 -2.6394,-58.2181 -2.6394,-84.68088 0,-23.81649 0.8682,-46.7509 1.7712,-74.09576 z"
       class="fil0" />
    <path
       style="clip-rule:evenodd;fill:#ffffff;fill-rule:nonzero;stroke-width:0.88208622;image-rendering:optimizeQuality;shape-rendering:geometricPrecision;text-rendering:geometricPrecision"
       inkscape:connector-curvature="0"
       id="path2613"
       d="m -2358.7309,530.1522 c 0.8682,-3.52837 0.8682,-7.93883 0.8682,-12.34929 0,-14.11348 -3.5284,-29.10906 -13.2314,-29.10906 -10.5851,0 -22.0523,32.63742 -22.0523,61.74648 0,31.75532 6.1746,50.27927 16.7597,50.27927 13.2314,0 17.6419,-13.23139 20.2881,-31.75533 -6.1746,0 -10.5851,0.8682 -16.7597,1.77113 l -4.4105,-22.05231 c 17.6419,-0.8682 33.5195,-2.63933 50.2793,-5.29256 0.8682,6.17465 1.7711,17.64185 1.7711,18.52394 0,22.93441 -18.5239,62.62857 -46.7509,62.62857 -29.9911,0 -50.2792,-23.8165 -50.2792,-68.80321 0,-47.633 19.406,-93.5018 50.2792,-93.5018 16.7598,0 42.3405,12.34929 42.3405,50.27927 0,6.17464 -0.8682,12.34929 -1.7712,19.40603 l -25.5806,-2.63933 z"
       class="fil0" />
    <path
       style="clip-rule:evenodd;fill:#ffffff;fill-rule:nonzero;stroke-width:0.88208622;image-rendering:optimizeQuality;shape-rendering:geometricPrecision;text-rendering:geometricPrecision"
       inkscape:connector-curvature="0"
       id="path2615"
       d="m -2199.9543,460.4669 c -1.7711,23.81649 -1.7711,48.51508 -1.7711,73.21367 0,31.75533 0.8682,63.51066 2.6393,85.56297 l -28.227,-2.63933 c -1.7711,-14.11348 -2.6393,-37.04789 -2.6393,-60.86438 l -32.6374,1.77113 c 0.8682,21.17022 0.8682,42.34044 1.7711,64.39275 l -29.9911,-2.63933 c -1.7712,-29.99115 -2.6394,-59.1002 -2.6394,-88.20925 0,-22.05231 0.8682,-44.10462 1.7712,-65.27484 l 29.109,2.63933 c -0.8682,13.23139 -1.7711,26.46277 -1.7711,39.69416 0,7.93883 0,17.64185 0,25.58068 l 33.5195,-1.77113 c 0,-24.69859 0.8682,-50.27927 0.8682,-73.21367 l 29.1091,2.63933 z"
       class="fil0" />
    <path
       style="clip-rule:evenodd;fill:#ffffff;fill-rule:nonzero;stroke-width:0.88208622;image-rendering:optimizeQuality;shape-rendering:geometricPrecision;text-rendering:geometricPrecision"
       inkscape:connector-curvature="0"
       id="path2617"
       d="m -2079.1076,613.95098 c -10.5851,4.41047 -23.8165,8.82093 -44.1047,8.82093 l -34.4016,-3.52837 c -0.8682,-17.64185 -0.8682,-35.2837 -0.8682,-55.57183 0,-26.46277 1.7712,-66.15693 3.5284,-91.73761 30.8732,-4.41047 55.5718,-6.17465 74.0958,-6.17465 v 27.34487 c -14.9956,0 -30.8733,0.8682 -46.7509,1.77113 -0.8682,12.34929 -0.8682,25.58068 -0.8682,37.92997 13.2314,-1.77113 25.5807,-2.63933 39.6941,-2.63933 l 4.4105,24.69859 c -13.2314,0 -31.7553,1.77113 -44.1046,3.52837 0,15.87766 0,26.46277 0,37.92998 17.6418,-1.77114 33.5195,-4.41047 45.8688,-7.05674 z"
       class="fil0" />
    <path
       style="clip-rule:evenodd;fill:#ffffff;fill-rule:nonzero;stroke-width:0.88208622;image-rendering:optimizeQuality;shape-rendering:geometricPrecision;text-rendering:geometricPrecision"
       inkscape:connector-curvature="0"
       id="path2619"
       d="m -2013.8363,544.26568 c 22.0524,-10.58511 39.6942,-28.22696 39.6942,-38.81207 0,-14.11348 -8.8209,-20.28813 -18.5239,-20.28813 -6.1747,0 -13.2314,0.86821 -20.2882,3.52837 0,18.52395 0,37.04789 0,55.57183 z m -32.6339,75.85995 c 1.7711,-37.04788 2.6393,-73.21367 2.6393,-110.26156 0,-13.23138 0,-26.46277 0,-38.81207 15.8777,-7.93883 34.3982,-11.4672 50.2758,-11.4672 24.6986,0 45.8688,15.87767 45.8688,47.633 0,20.28812 -17.6418,37.04788 -37.0479,50.27927 14.1135,17.64185 28.227,37.04788 41.4584,55.57182 l -21.1702,15.87767 c -13.2314,-20.28813 -30.8733,-43.22254 -50.2793,-68.80322 -0.8682,20.28813 -0.8682,43.22253 -1.7711,64.39275 l -29.9877,-3.52837 z"
       class="fil0" />
    <path
       style="clip-rule:evenodd;fill:#706ba0;fill-rule:nonzero;stroke-width:0.88208622;image-rendering:optimizeQuality;shape-rendering:geometricPrecision;text-rendering:geometricPrecision"
       inkscape:connector-curvature="0"
       id="path2621"
       d="m -1601.8991,-164.92971 c 46.7509,-41.45835 111.1402,-115.55412 132.3104,-176.4185 -119.079,-2.63933 -239.9257,-0.8682 -359.0081,-0.8682 -299.0259,0 -587.4702,34.40161 -886.496,34.40161 l 7.0567,14.11348 c 30.8733,51.16136 50.2793,113.78992 98.7944,156.12689 -52.0435,33.51951 -96.1481,64.39275 -149.9557,90.855523 146.4273,108.497373 369.5932,91.737616 553.9505,88.209247 232.869,-4.410463 582.1776,6.174647 736.5403,-184.35732 -47.633,-1.77114 -87.3237,-15.87767 -132.3104,-22.04884 z"
       class="fil15" />
    <path
       style="clip-rule:evenodd;fill:#ffffff;fill-rule:nonzero;stroke-width:0.88208622;image-rendering:optimizeQuality;shape-rendering:geometricPrecision;text-rendering:geometricPrecision"
       inkscape:connector-curvature="0"
       id="path2623"
       d="m -2528.9713,-127.00321 c 28.2269,-13.23139 50.2758,-36.16232 50.2758,-50.2758 0,-18.52394 -11.4672,-26.46277 -23.813,-26.46277 -7.9389,0 -16.7598,1.77113 -26.4628,4.41046 0,23.8165 0,47.62952 0,71.44602 z m -42.3405,97.030169 c 2.6394,-46.7509 3.5284,-94.383889 3.5284,-141.131319 0,-16.75976 0,-33.51952 0,-50.27927 20.2881,-9.70302 44.1046,-14.99557 65.2749,-14.99557 30.8697,0 59.0967,20.28812 59.0967,60.86438 0,25.5772 -22.0523,47.62952 -47.633,64.38927 17.6418,22.052314 36.1658,46.750903 52.9255,71.449492 l -27.3448,20.288127 c -16.7598,-25.580682 -39.6907,-55.571826 -64.3893,-88.209249 -0.8682,26.462776 -1.7711,54.689735 -2.6393,82.034601 z"
       class="fil0" />
    <path
       style="clip-rule:evenodd;fill:#ffffff;fill-rule:nonzero;stroke-width:0.88208622;image-rendering:optimizeQuality;shape-rendering:geometricPrecision;text-rendering:geometricPrecision"
       inkscape:connector-curvature="0"
       id="path2625"
       d="m -2317.2726,-44.08652 c -13.2314,6.174647 -30.8732,11.467202 -57.336,11.467202 l -43.2225,-4.410463 c -0.8682,-22.052311 -0.8682,-44.986715 -0.8682,-71.449489 0,-33.51951 2.6393,-84.6774 4.4104,-117.31482 38.8121,-6.17465 70.5674,-7.05674 94.3839,-7.05674 v 35.28369 c -18.5239,0 -39.6941,0.86821 -59.1002,1.77113 -0.8682,15.87767 -0.8682,32.63743 -1.7711,48.51162 16.7598,-2.63933 32.6374,-3.52837 51.1614,-3.52837 l 5.2925,30.87323 c -16.7597,0 -40.5762,2.63934 -57.336,4.41047 0,19.40603 0,34.401602 0,49.397174 22.0523,-1.771131 43.2225,-5.292555 59.1002,-8.820925 l 4.4105,30.873236 z"
       class="fil0" />
    <path
       style="clip-rule:evenodd;fill:#ffffff;fill-rule:nonzero;stroke-width:0.88208622;image-rendering:optimizeQuality;shape-rendering:geometricPrecision;text-rendering:geometricPrecision"
       inkscape:connector-curvature="0"
       id="path2627"
       d="m -2248.4694,-107.59718 31.7553,-3.52837 -21.1702,-85.55949 z m 38.8121,25.580684 -42.3405,5.292555 -6.1746,53.80764 h -39.6942 l 32.6375,-209.052439 h 52.9255 l 53.8076,187.88222 h -41.4583 l -9.703,-38.812069 z"
       class="fil0" />
    <path
       style="clip-rule:evenodd;fill:#ffffff;fill-rule:nonzero;stroke-width:0.88208622;image-rendering:optimizeQuality;shape-rendering:geometricPrecision;text-rendering:geometricPrecision"
       inkscape:connector-curvature="0"
       id="path2629"
       d="m -2095.8674,-207.27015 c -4.4104,0 -7.9388,0.8682 -12.3493,2.63933 1.7711,21.17022 3.5284,42.34044 4.4105,63.50718 0.8682,22.93441 1.7711,44.986719 1.7711,66.156938 1.7711,1.77113 3.5284,1.77113 6.1747,1.77113 16.7597,-0.868201 37.0478,-37.929978 35.2837,-74.977858 -1.7712,-36.16232 -17.6419,-60.86091 -34.4016,-59.97882 z m -2.6393,-33.51952 c 46.7509,-2.63933 71.4495,39.69416 73.2137,85.5595 2.6393,55.571825 -22.9344,114.672019 -76.7421,117.318297 -2.6393,0 -26.4628,-0.868201 -38.8121,-1.771131 0.8682,-35.283698 0,-74.095766 -0.8682,-106.733186 -1.7711,-29.98767 -3.5283,-55.56835 -6.1746,-82.03113 15.8777,-6.17464 34.4016,-11.4672 50.2793,-12.34929 z"
       class="fil0" />
    <path
       style="clip-rule:evenodd;fill:#ffffff;fill-rule:nonzero;stroke-width:0.88208622;image-rendering:optimizeQuality;shape-rendering:geometricPrecision;text-rendering:geometricPrecision"
       inkscape:connector-curvature="0"
       id="path2631"
       d="m -1958.2644,-249.61059 c -1.7712,29.99114 -2.6394,63.51066 -2.6394,97.0267 0,37.04788 0.8682,74.977856 3.5284,106.733185 l -37.93,-3.52837 c -2.6393,-39.694161 -3.5283,-74.095765 -3.5283,-107.615285 0,-30.86976 0.8682,-59.97881 2.6393,-95.26251 l 37.93,3.52837 z"
       class="fil0" />
    <path
       style="clip-rule:evenodd;fill:#ffffff;fill-rule:nonzero;stroke-width:0.88208622;image-rendering:optimizeQuality;shape-rendering:geometricPrecision;text-rendering:geometricPrecision"
       inkscape:connector-curvature="0"
       id="path2633"
       d="m -1921.2166,-44.968613 c -0.8682,-11.467202 -1.7711,-22.934404 -2.6393,-33.519513 -2.6393,-54.689734 -1.7711,-112.904364 -0.8682,-159.655264 l 37.93,1.77113 c 17.6418,41.45835 35.2837,81.14904 56.4539,114.66855 -3.5284,-45.86534 -7.0567,-93.49833 -10.5851,-134.95668 l 35.2837,0.86821 c 1.7711,40.57625 4.4105,85.56296 7.0567,131.4283 0.8682,21.17022 1.7712,51.161363 1.7712,69.685304 l -31.7554,-1.77113 c -20.2881,-38.812068 -42.3404,-83.798784 -66.1569,-120.843194 2.6393,41.45487 4.4105,86.441588 7.0567,133.192488 l -33.5195,-1.77113 z"
       class="fil0" />
    <path
       style="clip-rule:evenodd;fill:#ffffff;fill-rule:nonzero;stroke-width:0.88208622;image-rendering:optimizeQuality;shape-rendering:geometricPrecision;text-rendering:geometricPrecision"
       inkscape:connector-curvature="0"
       id="path2635"
       d="m -1684.8158,-183.45366 c 0,-4.41046 0,-10.58511 -0.8682,-15.87766 -1.7711,-17.64185 -8.8209,-36.16579 -20.2881,-35.2837 -13.2314,1.77113 -23.8165,44.10462 -20.2881,82.03113 4.4104,40.57625 14.1135,62.628562 28.2269,61.746469 16.7598,-1.77113 20.2882,-18.523939 21.1703,-42.340439 -7.9389,0.8682 -13.2314,1.77113 -21.1703,4.41046 l -8.8209,-27.34486 c 22.0523,-3.52837 42.3404,-7.93536 63.5107,-13.22792 1.7711,7.05674 4.4104,22.04884 4.4104,22.93093 3.5284,29.99115 -14.9955,82.034603 -51.1613,85.562973 -37.93,4.410462 -67.9212,-23.816497 -74.0958,-80.270413 -6.1746,-60.86091 11.4672,-120.8432 52.0435,-125.25366 21.1702,-2.63933 55.5718,9.70302 60.8643,58.2181 0.8682,7.93884 0.8682,15.87767 0,25.58069 l -33.5195,0.8682 z"
       class="fil0" />
  </g>
</svg>
