<?xml version="1.0" encoding="UTF-8" standalone="no"?>
<!-- Generator: Adobe Illustrator 22.1.0, SVG Export Plug-In . SVG Version: 6.00 Build 0)  -->

<svg
   xmlns:dc="http://purl.org/dc/elements/1.1/"
   xmlns:cc="http://creativecommons.org/ns#"
   xmlns:rdf="http://www.w3.org/1999/02/22-rdf-syntax-ns#"
   xmlns:svg="http://www.w3.org/2000/svg"
   xmlns="http://www.w3.org/2000/svg"
   xmlns:sodipodi="http://sodipodi.sourceforge.net/DTD/sodipodi-0.dtd"
   xmlns:inkscape="http://www.inkscape.org/namespaces/inkscape"
   version="1.1"
   id="Layer_1"
   x="0px"
   y="0px"
   viewBox="0 0 1500 1192.9222"
   xml:space="preserve"
   sodipodi:docname="8101.svg"
   inkscape:version="0.92.3 (2405546, 2018-03-11)"
   width="1500"
   height="1192.9222"><metadata
   id="metadata59"><rdf:RDF><cc:Work
       rdf:about=""><dc:format>image/svg+xml</dc:format><dc:type
         rdf:resource="http://purl.org/dc/dcmitype/StillImage" /><dc:title></dc:title></cc:Work></rdf:RDF></metadata><defs
   id="defs57">
	
	
	
	
	
	
	
	
</defs><sodipodi:namedview
   pagecolor="#ffffff"
   bordercolor="#666666"
   borderopacity="1"
   objecttolerance="10"
   gridtolerance="10"
   guidetolerance="10"
   inkscape:pageopacity="0"
   inkscape:pageshadow="2"
   inkscape:window-width="1050"
   inkscape:window-height="720"
   id="namedview55"
   showgrid="false"
   inkscape:zoom="0.10282955"
   inkscape:cx="-170.11411"
   inkscape:cy="1080.6701"
   inkscape:window-x="149"
   inkscape:window-y="54"
   inkscape:window-maximized="0"
   inkscape:current-layer="Layer_1"
   scale-x="1"
   fit-margin-top="0"
   fit-margin-left="0"
   fit-margin-right="0"
   fit-margin-bottom="0" />
<g
   id="g3900"
   transform="translate(-27.3,747.07374)"><g
     id="g18"
     style="fill:#000000">
		
		
		
		
		
		
		
		
	</g><g
     id="g38"
     style="fill:#000000">
		
		
		
		
		
		
		
		
	</g><g
     id="_x34_9_1_"
     style="fill:#000000">
		
	</g><g
     id="_x34_9_2_"
     style="fill:#000000">
		<path
   id="path49"
   style="fill:#000000;stroke-width:3.27654004"
   d="m 1142.6342,-605.75208 c -0.983,7.20839 -1.9659,14.08913 -3.2765,20.64221 -1.3106,7.20838 -2.9489,14.41677 -5.2425,21.29751 -2.2936,7.53604 -4.9148,15.07208 -9.8296,21.29751 -0.6553,0.6553 -0.983,1.63827 -1.3106,2.29357 -1.3106,2.29358 -0.3277,4.58716 2.2935,5.57012 0.6554,0.32765 1.3107,0.32765 1.966,0.32765 3.2765,0.32766 6.553,0.65531 9.8296,0.65531 4.5871,0 9.1743,1.31062 13.7615,1.63827 4.9148,0.32766 9.8296,0 14.4167,-0.65531 3.2766,-0.32765 6.8808,-1.31061 10.1573,-2.29357 0.983,-0.32766 2.6212,-0.32766 3.2765,-0.98296 4.9149,-3.6042 11.1403,-4.25951 16.0551,-7.8637 0.983,-0.65531 1.9659,-1.31062 2.9489,-1.63827 2.9489,-1.31062 5.5701,0.32765 5.5701,3.60419 0,0.98297 -0.3277,1.96593 -0.6553,2.62124 -3.2766,4.2595 -6.5531,9.17431 -11.4679,10.81258 -7.2084,2.62123 -13.4338,7.20838 -19.9869,10.81258 -8.1913,4.58715 -16.7103,7.20839 -25.557,7.86369 -5.5701,0.65531 -11.1402,0.98297 -16.7104,0.32766 -12.1232,-1.31062 -23.591,1.31061 -34.7313,4.91481 -7.536,4.91481 -16.7103,6.88073 -23.2634,13.43381 -2.6213,2.62123 -6.2254,4.58716 -9.502,6.55308 -5.8978,3.6042 -10.1573,8.84666 -15.0721,13.10616 -4.5871,3.93185 -8.1913,9.17431 -12.1232,13.76147 -2.6212,2.94889 -4.9148,6.22543 -7.2084,9.17431 -2.6212,3.6042 -0.6553,8.51901 3.6042,8.84666 5.2425,0.65531 10.1573,2.62123 15.7274,2.94889 3.6042,0.32765 7.2084,0.98296 10.485,2.62123 4.5871,1.96592 9.8296,1.96592 14.7444,2.94888 1.6383,0.32766 3.6042,0.98297 5.2425,1.96593 1.6382,0.98296 1.3106,3.60419 -0.3277,4.58715 -1.6383,0.65531 -3.6042,1.31062 -5.2425,1.96593 -9.1743,3.60419 -18.6762,4.2595 -28.5059,2.62123 -5.2424,-0.98296 -10.4849,-1.63827 -15.7274,-1.63827 -2.9488,0 -5.8977,0.65531 -8.8466,0.98296 -1.9659,0.32766 -3.9319,0.65531 -5.5701,0.32766 -7.5361,-1.96593 -14.08915,1.96592 -20.96989,3.27654 -3.93184,0.6553 -7.53604,3.60419 -11.14023,5.57011 -0.65531,0.32766 -1.63827,1.31062 -2.29358,1.31062 -3.93185,1.31062 -6.22543,4.2595 -7.8637,8.19135 -1.31061,3.93185 -6.55308,6.88073 -10.48492,6.55308 -3.6042,-0.32765 -6.22543,-2.62123 -8.19135,-4.91481 -3.6042,-4.2595 -6.88074,-8.84666 -9.82962,-13.43381 -3.93185,-5.89778 -1.96593,-14.74443 7.20838,-17.69332 3.6042,-0.98296 7.8637,-1.31062 11.46789,-1.96592 1.96593,-0.32766 3.6042,-0.65531 5.24247,-1.63827 7.20839,-4.25951 14.74443,-7.53605 21.29751,-13.10616 5.57012,-4.91481 11.79554,-9.50197 17.03804,-15.07209 2.9489,-2.94888 5.8977,-5.89777 8.519,-9.17431 4.9148,-5.89777 10.1572,-11.14024 14.7444,-17.36566 1.3106,-1.63827 2.9489,-2.62123 4.5872,-4.2595 0.9829,-0.65531 1.9659,-1.31062 2.6212,-2.29358 6.2254,-9.82962 16.055,-16.3827 24.574,-24.2464 3.9319,-3.60419 8.519,-6.22542 12.7785,-9.17431 6.8808,-4.91481 14.0892,-9.82962 19.9869,-16.05504 6.8808,-7.20839 13.4339,-14.74443 16.7104,-24.57405 1.9659,-5.89778 3.2765,-12.1232 4.5871,-18.02097 0.3277,-0.65531 0.3277,-1.31062 0.3277,-1.96593 -2.6212,-8.519 -2.2936,-17.69331 -6.8807,-25.22936 -5.2425,-8.19135 -8.1914,-17.038 -12.4509,-25.55701 -2.2936,-4.91481 -5.5701,-9.17431 -9.8296,-12.45085 -5.2425,-4.2595 -9.502,-9.50197 -14.7444,-13.76147 -2.2936,-1.96592 -4.9148,-3.27654 -7.5361,-4.91481 -3.6042,-1.96592 -6.8807,-4.58715 -9.8296,-7.53604 -1.6383,-1.63827 -0.983,-3.93185 1.3106,-3.93185 5.2425,-0.32765 10.4849,-0.98296 15.7274,1.63827 0.3277,0.32766 0.983,0.32766 1.3106,0.32766 5.5701,0.98296 10.485,3.27654 15.0721,6.55308 3.2766,2.29357 6.2254,0.98296 7.5361,-2.94889 0.6553,-1.63827 0.6553,-3.27654 0.6553,-4.91481 0,-1.96592 0,-3.60419 0,-5.57012 0,-1.31061 0.3276,-2.94888 1.6382,-3.60419 1.3106,-0.65531 4.2595,0.32765 4.9148,1.63827 1.966,3.27654 4.5872,5.89777 4.9149,10.15727 0.3276,3.93185 1.3106,7.8637 1.6382,11.79555 0.3277,11.14023 5.5701,19.98689 13.1062,27.52293 0.6553,0.65531 1.3106,1.31062 1.9659,1.96593 1.3106,1.31061 2.6212,2.29357 3.9319,3.60419 1.9659,-1.63827 1.6382,-3.60419 1.6382,-5.57012 -0.6553,-14.74443 -1.6382,-29.48886 -5.8977,-43.90563 -0.6554,-2.62124 -1.966,-5.24247 -3.2766,-7.53605 -4.9148,-10.15727 -9.8296,-20.31454 -15.3997,-30.47182 -2.9489,-5.57012 -5.5701,-11.14023 -7.8637,-17.03801 -0.3277,-0.98296 -0.983,-2.29357 -0.983,-3.27654 -0.3276,-1.63827 0.6553,-2.62123 1.9659,-3.27654 1.3107,-0.6553 2.6213,-0.6553 3.6042,0.65531 1.6383,2.29358 3.6042,4.91481 5.2425,7.20839 2.6212,3.27654 5.5701,6.88073 8.519,9.82962 6.8807,6.88073 13.1062,14.41678 18.3486,22.28047 7.2084,11.14024 13.7615,22.93578 15.0721,36.3696 0.983,9.17431 2.9489,18.34862 0.983,27.52293 -0.3277,2.29358 0,4.58716 0,6.88074 0.3276,7.53604 -2.6213,14.74443 -3.6042,21.95281 -0.6553,4.25951 -1.3106,6.55308 -1.6383,8.19135 z m -799.8034,-6.55308 c -0.98296,-7.20838 -3.60419,-14.41677 -3.60419,-21.95281 0,-2.29358 0.32765,-4.58716 0,-6.88074 -1.96593,-9.17431 0,-18.34862 0.98296,-27.52293 1.31061,-13.43382 7.86369,-25.22936 15.07208,-36.3696 5.24247,-8.19135 11.79555,-15.39974 18.34863,-22.28047 2.94888,-2.94889 5.89777,-6.55308 8.519,-9.82962 1.96592,-2.29358 3.60419,-4.91481 5.24246,-7.20839 0.98297,-1.31061 2.29358,-1.31061 3.6042,-0.65531 1.63827,0.65531 2.29358,1.63827 1.96592,3.27654 -0.32765,0.98297 -0.65531,2.29358 -0.98296,3.27654 -2.29358,5.89778 -4.91481,11.46789 -7.8637,17.03801 -5.24246,10.15728 -10.15727,20.31455 -15.39973,30.47182 -1.31062,2.62124 -2.62124,4.91481 -3.27654,7.53605 -4.25951,14.41677 -4.91481,29.1612 -5.89778,43.90563 0,1.96593 -0.32765,4.2595 1.63827,5.57012 1.31062,-1.31062 2.62124,-2.29358 3.93185,-3.60419 0.65531,-0.65531 1.31062,-1.31062 1.96593,-1.96593 7.53604,-7.53604 12.7785,-16.3827 13.10616,-27.52293 0,-3.93185 1.31061,-7.8637 1.63827,-11.79555 0.32765,-4.2595 3.27654,-6.88073 4.91481,-10.15727 0.6553,-1.31062 3.60419,-2.29358 4.91481,-1.63827 1.63827,0.65531 1.63827,1.96592 1.63827,3.60419 0,1.96593 -0.32766,3.6042 0,5.57012 0,1.63827 0,3.27654 0.6553,4.91481 1.31062,3.93185 4.25951,5.24246 7.53605,2.94889 4.58715,-3.27654 9.50196,-5.57012 15.07208,-6.55308 0.32765,0 0.98296,-0.32766 1.31061,-0.32766 4.91481,-2.62123 10.48493,-1.63827 15.7274,-1.63827 2.29357,0 2.94888,2.62123 1.31061,3.93185 -3.27654,2.62123 -6.55308,5.24246 -9.82962,7.53604 -2.62123,1.63827 -4.91481,3.27654 -7.53604,4.91481 -5.24246,3.93185 -9.50197,9.50197 -14.74443,13.76147 -4.2595,3.27654 -7.20839,7.53604 -9.82962,12.45085 -4.2595,8.51901 -7.20839,17.69332 -12.45085,25.55701 -4.91481,7.53605 -4.58716,17.03801 -6.88073,25.22936 -0.32766,0.65531 0,1.31062 0.32765,1.96593 1.63827,6.22542 2.62123,12.12319 4.58716,18.02097 3.27654,9.50196 9.82962,17.36566 16.71035,24.57405 5.89777,6.22542 12.7785,11.14023 19.98689,16.05504 4.2595,2.94889 9.17431,5.57012 12.77851,9.17431 8.19135,7.8637 18.02097,14.41678 24.57405,24.2464 0.65531,0.98296 1.96592,1.31061 2.62123,2.29358 1.63827,1.31061 3.27654,2.62123 4.58716,4.2595 4.58715,6.22542 9.82962,11.46789 14.74443,17.36566 2.62123,3.27654 5.57011,6.22543 8.519,9.17431 5.24246,5.57012 11.46789,10.15728 17.03801,15.07209 6.22542,5.57011 14.08912,9.17431 21.29751,13.10616 1.63827,0.98296 3.60419,1.31061 5.24246,1.63827 3.93185,0.6553 7.8637,0.98296 11.46789,1.96592 9.17431,2.62123 11.14024,11.46789 7.20839,17.69332 -2.94889,4.58715 -6.22543,9.17431 -9.82962,13.43381 -1.96592,2.29358 -4.58716,4.58716 -8.19135,4.91481 -3.93185,0.32765 -9.17431,-2.62123 -10.48493,-6.55308 -1.31061,-3.93185 -3.60419,-6.88073 -7.86369,-8.19135 -0.98297,-0.32765 -1.63827,-0.98296 -2.29358,-1.31062 -3.6042,-1.96592 -7.20839,-4.91481 -11.14024,-5.57011 -6.88073,-1.31062 -13.43381,-5.24247 -20.96985,-3.27654 -1.63827,0.32765 -3.6042,0 -5.57012,-0.32766 -2.94889,-0.32765 -5.89777,-1.31061 -8.84666,-0.98296 -5.24246,0.32765 -10.48493,0.65531 -15.72739,1.63827 -9.82962,1.63827 -19.33159,0.98296 -28.5059,-2.62123 -1.63827,-0.65531 -3.60419,-0.98296 -5.24246,-1.96593 -1.63827,-0.98296 -1.96593,-3.60419 -0.32766,-4.58715 1.63827,-0.98296 3.27654,-1.31062 5.24247,-1.96593 4.91481,-0.98296 10.15727,-1.31061 14.74443,-2.94888 3.60419,-1.31062 6.88073,-2.29358 10.48492,-2.62123 5.24247,-0.32766 10.48493,-2.29358 15.7274,-2.94889 4.2595,-0.65531 5.89777,-5.24246 3.60419,-8.84666 -2.29358,-3.27654 -4.58716,-6.22542 -7.20839,-9.17431 -3.93185,-4.58716 -7.53604,-9.82962 -12.1232,-13.76147 -5.24246,-4.2595 -9.50196,-9.50196 -15.07208,-13.10616 -3.27654,-1.96592 -6.88073,-3.93185 -9.50197,-6.55308 -6.55308,-6.88073 -15.72739,-8.519 -23.26343,-13.43381 -11.46789,-3.27654 -22.60812,-6.22543 -34.73132,-4.91481 -5.57012,0.65531 -11.14024,0 -16.71036,-0.32766 -9.17431,-0.98296 -17.69331,-3.27654 -25.55701,-7.86369 -6.55308,-3.6042 -12.7785,-8.19135 -19.98689,-10.81258 -4.91481,-1.96593 -8.19135,-6.88074 -11.46789,-10.81258 -0.65531,-0.65531 -0.65531,-1.63827 -0.65531,-2.62124 0,-3.27654 2.62123,-5.24246 5.57012,-3.60419 0.98296,0.32765 1.96592,0.98296 2.94888,1.63827 4.91481,3.60419 11.14024,3.93185 16.05505,7.86369 0.98296,0.65531 2.29358,0.65531 3.27654,0.98297 3.27654,0.6553 6.88073,1.63827 10.15727,2.29357 4.91481,0.65531 9.82962,0.98297 14.41678,0.65531 4.58716,-0.32765 8.84666,-1.63827 13.76147,-1.63827 3.27654,0 6.55308,-0.32765 9.82962,-0.65531 0.65531,0 1.31061,0 1.96592,-0.32765 2.29358,-0.98296 3.27654,-3.27654 2.29358,-5.57012 -0.32765,-0.98296 -0.98296,-1.63827 -1.31062,-2.29357 -4.91481,-6.22543 -7.53604,-13.76147 -9.82962,-21.29751 -1.96592,-6.88074 -3.93184,-14.08913 -5.24246,-21.29751 -1.31062,-6.55308 -1.96592,-13.10616 -3.27654,-20.64221 -0.32765,-3.27654 -0.98296,-5.57011 -1.63827,-8.19135 z m 1130.4063,766.05505 c -7.5361,6.22543 -8.1914,13.43381 -9.502,20.96986 -1.9659,8.19135 -24.2464,65.20314 -62.2542,83.87942 -12.1232,9.50196 -12.7785,9.50196 -19.004,-4.58716 -8.8466,-18.34862 -19.0039,-35.38663 -30.4718,-52.75229 -12.7785,-19.00393 -22.9358,-39.31848 -28.5059,-61.59895 -5.5701,-23.59109 -4.5871,-46.854524 7.5361,-69.134996 3.2765,-6.880734 9.5019,-12.778506 17.038,-7.536042 15.3997,10.157274 33.093,19.65924 33.093,41.284408 0.6553,8.19135 -1.3106,17.038 6.2254,24.9017 7.5361,-12.77851 9.502,-36.04194 4.5872,-46.854522 -14.0891,-31.12713 -47.8375,-45.543906 -81.9135,-35.058978 -31.1271,9.501966 -41.9397,33.093054 -46.5269,60.28834 -4.9148,26.21232 -0.6553,51.44167 8.519,75.68807 -7.2084,22.60813 -24.2464,64.87549 -47.5098,78.63696 -15.3997,9.50196 -26.2123,10.15727 -35.059,-6.88074 -6.2254,-10.15727 -10.1572,-21.62516 -12.1232,-33.74836 -2.6212,-19.00393 -3.2765,-18.34862 15.3998,-17.69331 5.5701,0.65531 11.4679,0.65531 17.038,-0.65531 6.2254,-1.31062 12.7785,-4.58716 12.1232,-12.1232 -1.3106,-19.00393 1.9659,-38.00786 -3.9319,-56.68414 -6.2254,-19.00393 -20.3145,-24.9017 -38.6631,-17.03801 -10.1573,3.93185 -17.6934,11.46789 -24.2464,20.31455 -16.0551,20.6422 -20.6422,44.23329 -19.9869,68.80734 -10.485,19.33158 -26.8677,41.61206 -48.1652,52.09698 -12.1232,9.50197 -12.7785,9.50197 -19.0039,-4.58715 -8.8467,-18.34863 -19.0039,-35.38663 -30.4718,-52.75229 -12.7785,-19.00394 -22.9358,-39.31848 -28.5059,-61.59896 -5.5701,-23.59108 -4.5872,-46.854518 7.536,-69.13499 3.2766,-6.880734 9.502,-12.778506 17.038,-7.536042 15.3998,10.157274 33.0931,19.65924 33.0931,41.284402 0.6553,8.19135 -1.3106,17.03801 6.2254,24.90171 7.536,-12.77851 9.502,-36.041944 4.5872,-46.854526 -14.0892,-31.12713 -47.8375,-45.543906 -81.91354,-35.058978 -31.12713,9.501966 -41.93971,33.093054 -46.52687,60.288334 -3.27654,18.67628 -2.29357,36.69725 1.63827,54.06291 -0.6553,2.94889 -0.98296,6.22543 -1.31061,9.17431 -3.93185,22.60813 -55.70118,201.50721 -74.37746,182.83093 -8.519,-16.05504 -7.20839,-33.09305 -7.20839,-48.82044 -0.6553,-46.19922 0,-93.05374 0,-139.25295 0,-18.67628 -1.63827,-36.69725 -7.86369,-54.71822 -6.88074,-18.676276 -18.02097,-26.212318 -35.05898,-22.608124 -13.43381,3.604194 -18.02097,16.055044 -21.95282,29.161204 -10.15727,33.74836 -20.31455,67.82438 -31.45478,101.57274 -9.50197,30.14417 -20.96986,57.33945 -37.68021,82.89646 -3.93185,4.58716 -6.88074,13.10616 -15.72739,10.48493 -3.93185,-15.07208 -4.58716,-30.14417 -3.93185,-46.19921 2.29358,-44.23329 -0.65531,-87.48362 -6.22543,-130.07864 -1.63827,-10.48493 -3.93185,-20.6422 -9.50196,-28.17824 -8.51901,-12.123202 -23.59109,-13.106164 -32.1101,0 -3.27654,4.58715 -5.57011,11.14023 -6.88073,17.038 -9.17431,32.7654 -13.76147,65.5308 -14.74443,99.27916 -12.45085,33.42071 -30.79947,74.37746 -47.50983,99.27917 -20.6422,26.86762 -29.1612,24.9017 -40.62909,-8.19135 -6.22543,-17.69332 -8.51901,-35.05898 -9.17432,-53.73526 -2.94888,-54.39056 -2.29357,-109.10878 11.46789,-161.861074 2.94889,-10.157274 6.22543,-23.263434 17.69332,-22.280472 11.46789,0 21.62516,5.570118 26.86763,18.348624 1.63827,4.587152 1.63827,11.140232 6.88073,14.744432 4.58716,-21.297512 3.93185,-27.850592 -6.88073,-37.024904 -22.93578,-19.331586 -54.71822,-15.727392 -72.08388,11.140236 -10.81258,16.710358 -19.33159,34.076018 -22.93578,55.373528 -6.55308,34.73132 -9.50197,70.77326 -9.50197,106.8152 -9.50196,36.04194 -20.31455,70.77326 -28.17824,78.30931 -17.03801,20.31454 -20.6422,19.33158 -35.38663,-2.62124 -17.69332,-26.86762 -29.81652,-56.35648 -43.90564,-85.84534 -4.58715,-9.17432 -6.88073,-18.34863 -7.53604,-26.86763 6.88073,-30.47182 38.33552,-77.654 67.49672,-87.81127 5.24247,-1.96593 15.39974,-1.96593 13.10616,-12.1232 -2.29358,-11.140236 -10.81258,-4.58716 -15.39974,-3.60419 -40.62909,8.19135 -66.84141,59.96068 -76.99868,77.65399 -7.53605,-10.15727 -9.82962,-23.26343 -15.39974,-33.4207 -19.33159,-35.05898 -41.61206,-66.513766 -79.94758,-66.513766 -6.22542,0 -13.10616,-1.965924 -17.03801,5.570118 -4.58715,8.19135 1.63827,13.106158 5.24247,18.348628 2.94888,4.58715 6.22542,10.15727 8.519,15.72739 7.20839,14.41677 13.43382,29.48886 19.33159,44.56094 -6.55308,29.16121 -32.43775,119.92136 -69.7903,146.78899 -21.62517,15.72739 -36.69725,17.03801 -48.82045,-11.14023 -8.519,-17.03801 -14.08912,-36.04194 -17.03801,-56.35649 -3.60419,-31.45479 -4.58715,-30.47182 21.62517,-29.48886 7.53604,0.98296 16.05504,0.98296 23.59108,-0.98296 8.51901,-2.29358 17.69332,-7.8637 17.03801,-20.31455 -1.96592,-31.45478 2.94889,-63.23722 -5.57012,-94.69201 -8.519,-31.45478 -28.17824,-41.612054 -53.4076,-28.17824 -14.08912,6.880734 -24.24639,19.331586 -33.74836,33.74836 -25.22936,39.64614 -30.144167,84.53473 -27.195281,132.04456 0.982961,23.59109 6.553081,47.50983 17.693321,68.80734 22.60812,41.61206 81.58584,61.92661 113.36828,35.05898 22.28047,-18.67628 52.42464,-93.70904 70.11795,-153.66972 6.88074,19.33158 14.08913,38.66317 22.93578,57.01179 3.93185,9.17431 2.29358,16.71035 -2.29357,24.9017 -6.22543,11.14024 -11.46789,23.26344 -17.03801,35.05898 -3.93185,8.19135 -8.51901,17.69332 -3.93185,31.45479 16.05505,-14.74443 22.28047,-38.00787 37.68021,-52.7523 6.88073,11.14024 12.45085,21.29751 18.34862,30.47182 21.62517,37.02491 51.44168,72.08388 89.12189,73.06685 21.29751,0.32765 39.64613,-43.25033 54.71822,-96.65793 1.96592,12.45085 6.55308,24.24639 12.45085,35.38663 24.57405,44.23329 71.42857,46.19921 96.00262,2.62123 11.14024,-22.60813 24.2464,-45.54391 36.3696,-74.70511 0.6553,10.15727 1.31061,20.6422 2.29357,30.79947 1.63827,12.1232 6.22543,22.60813 11.79555,33.09306 23.59108,39.64613 75.03276,35.71428 93.05373,-7.53604 6.88074,-16.05505 12.45085,-32.1101 17.36566,-48.82045 10.15728,-33.09305 18.67628,-65.85845 30.47183,-98.95151 2.29357,-5.57011 2.29357,-14.08912 11.79554,-17.038 -6.22543,47.18217 -8.519,94.03669 -8.519,141.21887 0,18.67628 0.6553,36.69725 6.88073,54.71822 7.8637,24.57405 20.96986,40.62909 43.90564,42.26736 21.95281,0.98296 38.33551,-8.519 49.14809,-33.09305 18.67628,-33.42071 38.00787,-95.01966 54.39057,-167.10354 3.60419,8.84666 7.53604,17.69332 12.45085,26.53997 14.74443,27.85059 30.47185,56.35649 47.18215,84.53473 6.2255,10.15728 6.2255,17.69332 -1.3106,28.5059 -20.96985,30.47182 -22.28046,64.22019 -11.4679,98.2962 3.2766,10.15728 8.1914,18.34863 20.9699,20.96986 32.4377,6.88073 60.2883,-6.22543 71.7562,-35.38663 2.6212,-8.19135 3.9318,-17.03801 4.5872,-25.88467 1.9659,-29.81651 -2.6213,-58.32241 -14.7445,-85.51769 -4.5871,-10.15728 -3.2765,-16.3827 5.5701,-22.28048 19.004,-13.43381 33.0931,-30.79947 43.578,-48.49279 1.6383,10.81258 5.5701,21.62517 11.7956,31.45479 16.3827,24.9017 58.65,37.0249 81.9135,20.96985 14.7444,-10.15727 34.4036,-49.1481 47.5098,-83.22411 2.6212,5.57012 5.2425,11.14023 8.1913,16.3827 14.7445,27.85059 30.4719,56.35648 47.1822,84.53473 6.2255,10.15727 6.2255,17.69331 -1.3106,28.5059 -20.9698,30.47182 -22.2805,64.22018 -11.4679,98.2962 3.2766,10.15727 8.1914,18.34862 20.9699,20.96985 32.4377,6.88074 60.2883,-6.22542 71.7562,-35.38663 2.6212,-8.19135 3.9318,-17.03801 4.5872,-25.88467 1.9659,-29.81651 -2.6213,-58.32241 -14.7445,-85.51769 -4.5871,-10.15727 -3.2765,-16.3827 5.5701,-22.28047 44.561,-31.78244 62.2543,-84.53473 68.8074,-109.10878 0.3276,-3.6042 0.3276,-8.19135 -3.6042,-12.1232 z M 151.48087,177.34098 c -0.98297,-23.59109 1.96592,-46.19922 10.15727,-67.82438 4.58715,-10.157274 8.519,-23.591088 19.65924,-22.608126 12.1232,2.293578 13.10616,17.038006 15.07208,29.488856 0.98296,12.45086 0.98296,51.76934 0,59.63303 -0.98296,25.88467 -0.98296,25.88467 -22.60812,25.88467 -21.29751,0.32765 -21.29751,0.32765 -22.28047,-24.57405 z m 888.59763,244.42988 c -1.9659,3.27654 -2.6212,7.53604 -7.536,8.19135 -5.5702,0 -8.1914,-4.58716 -9.502,-8.19135 -13.4338,-30.47182 -13.4338,-59.63303 7.536,-90.76016 10.1573,24.2464 13.4339,46.19922 14.0892,69.135 0,7.53604 0,15.07208 -4.5872,21.62516 z m 133.0275,-242.1363 c -0.6553,-14.08913 1.3106,-27.85059 7.5361,-40.6291 3.2765,-6.22543 6.2254,-14.08912 14.0891,-13.43381 8.8467,1.31061 9.502,10.15727 10.8126,17.69331 0.6553,7.53604 0.6553,31.12713 0,35.71429 -0.6553,15.39974 -0.6553,15.39974 -16.3827,15.39974 -15.3998,0.32765 -15.3998,0.32765 -16.0551,-14.74443 z m 181.848,242.1363 c -1.9659,3.27654 -2.6212,7.53604 -7.536,8.19135 -5.5702,0 -8.1914,-4.58716 -9.502,-8.19135 -13.4338,-30.47182 -13.4338,-59.63303 7.536,-90.76016 10.1573,24.2464 13.4338,46.19922 14.0892,69.135 0,7.53604 0,15.07208 -4.5872,21.62516 z M 330.05229,-33.668197 H 83.984142 c -8.519004,0 -8.519004,13.10616 0,13.10616 H 330.05229 c 8.51901,0 8.51901,-13.10616 0,-13.10616 z m 1127.12971,0 h -246.0681 c -8.519,0 -8.519,13.10616 0,13.10616 h 246.0681 c 8.519,0 8.519,-13.10616 0,-13.10616 z m -304.0629,7.536042 c 11.1403,-4.587156 18.6763,-16.055046 18.6763,-28.178244 0,-17.038008 -13.7615,-30.799476 -30.7995,-30.799476 h -30.1441 V 20.394713 h 17.038 v -44.23329 h 6.8807 l 23.9188,44.23329 h 19.6592 z m -25.2293,-14.74443 v -27.195282 h 13.1061 c 7.5361,0 13.4339,5.897772 13.4339,13.433814 0,7.536042 -6.2255,13.433814 -13.4339,13.433814 h -13.1061 z m -59.9607,-44.23329 v 71.756226 c 0,9.1743118 -7.536,16.7103537 -16.7104,16.7103537 -9.1743,0 -16.7103,-7.5360419 -16.7103,-16.7103537 v -71.756226 h -17.038 v 71.756226 c 0,18.6762777 15.0721,33.748362 33.7483,33.748362 18.6763,0 33.7484,-15.3997383 33.7484,-33.748362 v -71.756226 z m -128.76803,0 c -29.1612,0 -52.75229,23.591088 -52.75229,52.752294 0,29.1612057 23.59109,52.752294 52.75229,52.752294 29.16121,0 52.7523,-23.5910883 52.7523,-52.752294 0,-29.161206 -23.59109,-52.752294 -52.7523,-52.752294 z m 0,88.4665797 c -19.65924,0 -35.71428,-16.0550457 -35.71428,-35.7142857 0,-19.986894 16.05504,-35.714286 35.71428,-35.714286 19.65924,0 35.71429,15.727392 35.71429,35.714286 0,19.986894 -16.05505,35.7142857 -35.71429,35.7142857 z M 807.77182,-85.109875 h -20.31455 l 35.38664,55.373526 v 50.458716 h 17.038 v -50.458716 l 35.05898,-55.373526 h -20.31455 l -23.26343,37.024902 z m -167.43119,0 H 624.61324 V 20.722367 h 17.03801 v -73.394496 l 50.45871,73.394496 h 15.72739 V -85.109875 h -17.36566 v 73.394496 z m -75.03277,0 c -18.67627,0 -33.74836,15.072084 -33.74836,33.748362 v 71.756226 h 17.03801 V -9.0941472 h 33.42071 V 20.394713 h 17.03801 v -71.756226 c 0,-18.348624 -15.39974,-33.748362 -33.74837,-33.748362 z m -16.71035,34.076016 c 0,-9.174312 7.53604,-16.710354 16.71035,-16.710354 9.17432,0 16.71036,7.536042 16.71036,16.710354 v 25.229358 h -33.42071 z m -90.10485,10.157274 v -44.23329 H 441.45465 V 20.722367 h 17.03801 v -44.23329 h 30.14417 v 44.23329 h 17.03801 V -85.109875 h -17.03801 v 44.23329 z m -78.3093,-26.867628 v 88.46658 h 17.038 v -88.46658 h 18.67628 v -17.365662 h -53.07995 v 17.365662 z m 533.4207,-431.192657 c -6.55308,2.62123 -7.86369,7.20838 -9.82962,11.79554 -2.62123,5.57012 -24.24639,40.6291 -46.19921,48.16514 -11.46789,4.2595 -18.67628,3.60419 -23.59109,-7.20839 -3.60419,-6.55308 -5.89777,-13.76147 -6.55308,-21.29751 -0.98296,-11.46789 -0.98296,-11.79554 12.1232,-9.50197 3.60419,0.65531 8.19135,1.31062 12.45085,0.98297 4.58716,-0.32766 9.50197,-1.63827 9.82962,-6.22543 0.32766,-11.46789 4.91481,-22.28047 1.63827,-34.40367 -3.27654,-12.1232 -14.08912,-17.03801 -28.83355,-13.76147 -8.19135,1.63827 -14.41678,5.89777 -19.98689,10.81258 -13.43382,12.1232 -17.03801,26.53998 -17.36567,41.93972 -3.60419,5.57011 -7.53604,11.14023 -10.81258,14.08912 -6.88073,5.89777 -6.88073,4.58715 -16.71035,7.53604 -0.98296,-10.15727 -5.24247,-19.33159 -8.84666,-28.17824 -4.2595,-10.15728 -12.45085,-18.02097 -23.91874,-23.26344 -18.34863,-8.19135 -38.33552,-3.27654 -49.80341,12.1232 -2.62123,3.60419 -4.58716,7.53604 -6.55308,11.46789 -1.31062,1.96592 -4.58716,5.57012 -5.89777,4.2595 -3.27654,-2.94888 -5.24247,-23.91874 -4.58716,-36.36959 0.65531,-10.48493 0.65531,-10.81258 13.10616,-14.08912 25.55701,-6.55308 38.66317,-20.96986 47.18218,-38.99083 4.58715,-8.84666 3.60419,-18.34862 1.96592,-27.19528 -3.27654,-16.71035 -33.42071,-24.2464 -56.68414,-12.77851 -15.39974,7.20839 -26.86763,17.36567 -33.42071,30.14417 -17.038,30.79948 -17.038,36.3696 -17.038,65.20315 -0.32766,36.36959 13.10616,69.13499 34.73132,99.60681 6.88073,9.50197 14.74443,11.46789 26.53997,7.53604 8.51901,-2.94888 10.15728,-6.55308 7.53604,-14.08912 -2.62123,-7.20839 -6.55308,-15.07208 -9.17431,-22.28047 -6.88073,-18.67628 -0.65531,-37.68021 13.76147,-53.73526 10.48493,-11.14023 21.95282,-10.15727 31.45478,0.65531 2.29358,3.27654 4.91481,6.55308 6.22543,9.82962 4.2595,12.1232 6.88073,24.90171 7.20839,37.35256 0,5.89777 -1.96593,9.17431 -8.19135,11.14023 -10.48493,3.27654 -18.02097,10.48493 -24.57405,18.02097 -8.51901,10.15728 -8.19135,21.62517 -4.58716,33.09306 1.96593,6.22542 6.22543,11.14023 14.08912,12.45085 16.05505,2.62123 30.79948,-3.93185 39.64614,-18.34862 7.53604,-12.77851 12.1232,-26.86763 11.14023,-41.28441 -0.6553,-7.86369 2.29358,-13.43381 10.15728,-16.71035 1.96592,-0.65531 3.27654,-1.96593 5.24246,-3.27654 3.93185,-2.29358 8.19135,-7.20839 12.1232,-13.10616 0.98296,6.55308 3.27654,13.10616 7.20839,19.33158 10.48493,15.7274 37.35255,25.55702 54.39056,18.34863 14.74443,-6.55308 43.57798,-43.25033 54.71822,-62.25426 0.65531,-1.63827 1.31061,-4.58716 -1.31062,-7.53604 z m -231.97903,-90.43251 c 1.63827,-4.58715 5.89777,-8.84665 9.82962,-12.45085 5.24247,-4.91481 12.45085,-6.55308 19.9869,-2.62123 4.2595,2.62123 7.53604,5.89777 9.50196,9.82962 8.19135,18.67628 -4.58715,42.59502 -26.21232,54.71822 -6.55308,3.60419 -13.76147,6.55308 -23.59109,6.22542 -1.31061,-19.33158 3.93185,-37.35255 10.48493,-55.70118 z m 49.1481,202.16252 c -2.94888,3.93185 -6.55308,3.60419 -9.82962,0.32765 -3.93185,-4.2595 -5.24246,-9.50196 -5.57012,-12.12319 -1.31061,-13.43382 11.46789,-30.14417 22.93578,-32.43775 3.27654,-0.65531 5.57012,0.65531 5.24247,3.27654 -0.98296,14.41678 -3.27654,28.83355 -12.77851,40.95675 z m 96.00262,-105.50459 c 0.32766,-8.519 2.29358,-16.71035 7.8637,-23.91874 2.94889,-3.27654 5.89777,-8.19135 11.79554,-6.88073 6.55308,1.31061 6.88074,7.20838 7.20839,11.46789 0.32766,4.2595 -1.96592,18.67627 -2.62123,21.62516 -1.96592,8.519 -1.63827,9.17431 -13.10616,7.8637 -11.46789,-1.31062 -11.46789,-1.31062 -11.14024,-10.15728 z m 650.06555,364.35125 c -4.9148,-2.29358 -10.1573,-3.93185 -13.7615,-8.51901 -0.9829,-0.98296 -1.9659,-1.96592 -2.6212,-3.27654 -5.2425,-9.17431 -9.1743,-19.65924 -11.7956,-29.81651 -1.9659,-7.53604 -4.2595,-14.74443 -5.5701,-22.28047 -0.3276,-1.96593 -1.3106,-3.6042 -1.9659,-5.24247 -1.3106,-3.27654 -1.9659,-6.22542 -2.9489,-9.50196 -1.3106,-7.53604 -3.2765,-14.74443 -7.536,-21.29751 -3.2766,-4.91481 -6.2255,-5.24247 -11.7956,-4.91481 h -3.2765 c -1.3106,0.32765 -1.9659,0.98296 -1.9659,2.29358 0.3276,3.60419 -0.983,7.86369 -0.3277,11.79554 0.6553,3.93185 0,7.53604 0,11.79554 0.3277,15.39974 0.6553,31.12713 0.3277,46.52687 0,6.22543 1.9659,11.79555 4.9148,17.03801 0.6553,1.31062 1.9659,1.96592 3.2765,2.62123 4.9148,1.96593 9.8296,4.58716 14.7444,4.2595 0.6554,0 1.6383,0.32766 2.2936,0.65531 1.3106,0.32766 2.2936,2.29358 2.2936,3.93185 -0.3277,1.63827 -1.6383,3.60419 -3.2765,3.60419 -1.6383,0.32766 -3.2766,0.32766 -4.5872,0.32766 -3.6042,0 -7.2084,0 -10.8126,-0.32766 -3.2765,0.65531 -6.2254,-0.6553 -9.5019,-0.32765 -3.2766,0.32765 -6.5531,0 -9.8297,0.65531 -2.9489,0.32765 -5.8977,-0.65531 -8.8466,-0.65531 -0.6553,0 -1.6383,-0.32765 -2.2936,0 -5.2425,1.96592 -10.8126,0.98296 -16.055,1.31062 -7.2084,0.32765 -15.0721,-1.31062 -22.6082,0.98296 -3.9318,-1.96593 -8.1913,-0.65531 -12.1232,-0.65531 -0.3276,-0.32765 -0.6553,-0.32765 -0.6553,-0.32765 -0.9829,-0.65531 -2.2936,-2.29358 -1.9659,-3.6042 0,-0.98296 0.6553,-1.96592 1.6383,-2.29358 2.6212,-0.6553 5.2424,-1.96592 7.8637,-1.96592 6.2254,0.32765 9.8296,-3.60419 13.4338,-8.19135 1.9659,-2.94889 3.2765,-6.22543 2.9489,-9.82962 -0.3277,-7.20839 0,-14.41678 0,-21.62516 0,-2.62124 0,-4.91481 -0.6553,-7.53605 -0.6554,-1.96592 0.6553,-4.91481 0.6553,-7.20838 -1.3107,-7.53605 0.3276,-14.74443 0,-21.62517 l -0.6553,-24.24639 c 0,-0.65531 0.6553,-1.63827 0.6553,-2.29358 -1.966,-5.24247 0,-10.81258 -0.3277,-16.3827 l -0.983,-39.64613 c 0,-3.6042 -0.3276,-6.88074 0.983,-10.48493 0.6553,-0.98296 -1.3106,-3.6042 0,-5.89777 -1.6383,-3.6042 -0.6553,-7.20839 -0.983,-10.48493 -0.6553,-6.55308 -4.5871,-10.48493 -10.4849,-10.48493 -2.9489,0 -5.8978,-0.65531 -8.519,-0.65531 h -0.6553 c -1.3106,0 -4.5871,-2.62123 -4.2595,-3.60419 0.6553,-1.96593 1.6383,-2.94889 3.2765,-3.6042 0.6554,-0.32765 1.6383,-0.6553 2.2936,-0.6553 h 4.2595 c 22.2805,-1.63827 36.3696,0 54.7182,0 h 23.5911 c 7.8637,-0.32766 16.0551,-0.65531 23.9188,0 13.7614,0.6553 26.5399,3.93184 38.3355,11.79554 7.8637,4.91481 12.7785,12.45085 16.055,21.29751 0.983,3.27654 1.966,5.24246 1.966,8.84666 0.3276,3.60419 -0.6553,7.53604 0.9829,11.46789 -1.9659,5.57011 0.3277,12.12319 -3.9318,17.36566 -3.9319,9.17431 -10.1573,16.05504 -18.021,21.62516 -6.5531,4.58716 -22.2805,8.84666 -31.4548,10.15728 19.9869,2.62123 30.4718,20.31454 35.7143,34.07601 1.9659,4.91481 3.2765,9.82962 4.2595,14.74443 3.2765,6.55308 3.9319,14.41678 7.2084,20.96986 0.3277,4.91481 2.9489,8.84666 4.5872,13.10616 0.3276,0.65531 0.6553,1.31061 1.3106,1.96592 1.9659,2.62123 4.9148,2.94889 7.2084,0.32766 2.6212,-2.94889 3.6042,-6.55308 3.6042,-10.48493 1.3106,-3.6042 0.9829,-6.22543 1.6382,-9.50197 0.3277,-0.98296 1.6383,-1.63827 2.2936,-2.29358 0.3277,-0.32765 0.983,-0.32765 1.6383,-0.32765 1.9659,0.98296 1.9659,1.63827 2.6212,3.93185 v 1.63827 c -0.6553,10.48493 -0.6553,21.62516 -6.8807,30.14417 -4.5872,6.22542 -10.8126,10.81258 -18.3487,12.7785 -6.553,1.96593 -10.8125,1.96593 -16.7103,1.63827 -3.2766,-0.98296 -5.8978,-2.62123 -8.519,-3.60419 z m -47.8375,-115.00656 c 1.9659,-0.32765 3.6042,-0.6553 5.5701,-1.31061 5.8978,-2.29358 10.8126,-6.22543 14.7444,-11.46789 3.9319,-4.91481 5.5702,-10.48493 7.8637,-16.05505 0.3277,-7.86369 2.9489,-15.72739 1.966,-22.93578 v -6.88073 c 0,-4.2595 -1.3106,-9.50197 -3.2766,-14.74443 -1.9659,-6.22543 -6.2254,-9.17431 -11.4679,-11.79554 -1.6382,-0.65531 -3.6042,-0.98297 -5.2424,-1.96593 -5.8978,-2.62123 -11.7956,-1.96592 -17.3657,-0.65531 -5.2425,0.98297 -7.2084,8.19135 -7.2084,13.76147 -0.3276,4.91481 0,6.88074 0,11.46789 0,6.55308 0,12.1232 -0.3276,18.67628 0,6.55308 -0.983,13.10616 -0.3277,19.98689 0.3277,1.96593 0,4.2595 0.3277,6.22543 0.3276,2.29358 -0.6553,4.58715 -0.6553,6.88073 0.3276,2.62123 0.6553,6.22543 0.3276,9.17431 0,0.98297 -0.6553,1.63827 0.6553,1.96593 0.6553,0.32765 1.9659,0.65531 2.6213,0.32765 4.2595,0 7.8637,-0.32765 11.7955,-0.65531 z m -270.6422,115.66187 c -0.6553,0 -1.9659,-0.65531 -2.6212,-1.63827 -0.6553,-0.65531 -0.6553,-1.63827 -0.6553,-1.96593 0.6553,-1.96592 1.9659,-4.2595 4.5871,-4.2595 2.9489,0.32765 5.8978,0 8.519,-0.65531 6.2254,-0.98296 9.502,-4.91481 11.1403,-10.48493 0,-0.6553 0.6553,-1.63827 0.6553,-1.96592 0,-6.22543 1.3106,-12.45085 0.6553,-18.67628 -0.3277,-6.22542 -0.3277,-12.1232 0,-18.34862 0.3276,-6.22543 0.3276,-12.77851 0,-18.67628 -0.6553,-16.71035 0.6553,-33.42071 0.6553,-50.13106 0,-2.62123 0.3276,-5.57012 -0.6553,-8.19135 0.9829,-6.22543 0.6553,-13.10616 0.6553,-19.33159 -0.3277,-9.82962 -0.3277,-19.33158 -0.3277,-29.1612 0,-3.6042 0,-7.20839 -1.3106,-10.48493 -1.9659,-5.24246 -5.8978,-8.519 -11.1402,-9.17431 -3.2766,-0.32766 -5.8978,-0.32766 -9.1743,-0.32766 -2.2936,0 -3.9319,-1.31061 -5.2425,-3.27654 -0.6553,-0.98296 -0.6553,-2.29357 0.3277,-3.27654 1.9659,-0.98296 3.6041,-1.63827 5.8977,-1.96592 5.8978,-0.65531 11.1403,-0.32765 16.3827,-0.32765 6.2254,0 11.1403,0.32765 16.0551,0.32765 1.6382,0 3.2765,-0.65531 4.5871,-0.65531 7.8637,1.96593 17.038,0.65531 33.7484,0.65531 3.2765,0 7.2084,0 10.4849,-0.32765 3.2766,-0.65531 6.8807,0 10.1573,-0.65531 6.8807,0.32765 13.7615,0.65531 20.3145,0.32765 h 21.2975 c 2.6213,0 4.9149,-0.65531 7.2084,-0.32765 3.9319,0.32765 6.5531,-0.32766 9.502,0.65531 2.9489,0.6553 4.2595,3.60419 4.5872,6.88073 0.9829,6.55308 0.6553,12.45085 1.9659,18.67628 1.3106,6.88073 0.6553,13.76147 1.6382,20.6422 0.6554,5.24246 1.3107,10.81258 1.3107,16.05504 0.3276,1.31062 0,2.94889 0,4.25951 -0.3277,1.31061 -1.3107,1.63827 -2.2936,1.96592 -3.2766,0.32765 -5.5701,-0.65531 -6.8807,-3.60419 -0.6554,-1.96593 -1.3107,-3.6042 -1.966,-5.57012 -2.9489,-11.46789 -8.1913,-21.95282 -13.7614,-32.43775 -3.9319,-7.53604 -10.1573,-12.45085 -18.3487,-15.39973 -6.2254,-1.96593 -12.4508,-2.94889 -18.6762,-3.6042 -1.3107,0 -2.6213,0.65531 -3.9319,-0.32765 -2.9489,-0.32766 -5.8978,-1.31062 -8.8466,-0.65531 -1.966,0.65531 -3.6042,0.65531 -5.5702,0.98296 -3.2765,0 -5.8977,1.96593 -8.8466,3.6042 -0.983,0.6553 -1.9659,2.62123 -2.2936,4.2595 -0.6553,2.94888 -0.3277,6.22542 -1.6383,8.84666 -0.3276,0.6553 -0.3276,1.31061 0,1.96592 1.966,3.60419 0.983,7.53604 0.6553,11.14024 -0.6553,4.91481 -0.3276,10.15727 0,15.07208 0.3277,0.98296 0.6553,1.96592 0,3.27654 -0.6553,1.63827 -0.6553,3.27654 0,4.91481 0.6553,1.63827 0.983,3.60419 0.6553,4.91481 -1.6382,3.60419 -0.6553,7.53604 0,11.14023 0.6554,5.57012 0.3277,11.14024 0.3277,16.71036 v 2.94888 c 0,0.98297 0.6553,1.96593 1.9659,1.96593 5.5701,0 11.7956,0.65531 16.7104,-0.98296 10.8126,-3.27654 16.7103,-10.48493 20.3145,-20.64221 0.983,-2.94888 2.2936,-6.22542 1.966,-9.50196 0,-1.63827 0.6553,-3.27654 1.3106,-4.91481 1.3106,-3.27654 3.2765,-3.93185 6.553,-2.94889 0.6554,0 1.3107,0.65531 1.6383,1.31062 0.6553,0.98296 0.6553,2.29358 0.6553,3.60419 v 12.1232 c 0,3.60419 -0.6553,6.55308 0.6553,9.82962 -1.3106,2.94889 -0.9829,6.22543 -0.6553,9.17431 0,3.6042 -0.3276,6.55308 -0.3276,10.15728 0,2.94888 0.3276,5.89777 0.3276,9.17431 0,3.27654 -0.3276,6.55308 -0.3276,9.82962 v 9.17431 c 0,3.27654 0,6.55308 0.3276,9.82962 0,0.98296 0,2.29358 -0.3276,3.60419 -0.3277,0.65531 -0.6553,1.63827 -1.6383,1.63827 -1.6383,0.32766 -3.2765,0.32766 -4.5872,0 -0.6553,0 -1.6382,-0.6553 -1.9659,-1.31061 -0.6553,-0.98296 -1.3106,-2.29358 -1.3106,-3.6042 -0.6553,-6.88073 -2.9489,-13.43381 -5.2425,-19.98689 -1.6382,-3.60419 -3.2765,-7.53604 -5.8977,-10.48493 -2.2936,-3.27654 -6.2255,-5.24246 -10.485,-5.57012 -4.2595,0 -8.519,-0.6553 -12.1232,0.65531 -1.6382,-0.98296 -2.6212,0.32766 -4.2595,0 -2.2935,-0.65531 -3.2765,0.65531 -3.2765,2.94889 0,9.50196 0.3277,19.33158 0.3277,28.5059 v 11.79554 c 0,2.29358 2.2935,4.91481 0.3276,7.20839 0,1.96592 1.3106,3.93185 0.983,6.22542 -0.3277,2.29358 0,4.91481 -0.3277,7.53605 0,2.94888 0.6553,6.22542 -0.6553,9.17431 -0.6553,1.63827 0.6553,3.60419 0.3277,5.57012 -0.3277,0.6553 0.6553,1.96592 0.3276,2.94888 -1.9659,3.6042 0,6.22543 1.3106,8.84666 1.6383,2.94889 4.5872,3.93185 7.2084,4.91481 1.3106,0.32765 2.6213,0.32765 3.9319,0.32765 8.519,0 14.7444,1.31062 24.2464,0 1.9659,-0.32765 4.2595,-0.6553 6.2254,-1.63827 9.8296,-3.60419 17.6933,-10.15727 24.9017,-17.69331 0.6553,-0.65531 1.3106,-0.98296 1.6383,-1.96593 5.8977,-10.15727 10.4849,-19.98689 12.7785,-31.45478 0.6553,-3.93185 1.9659,-7.8637 1.9659,-11.79554 0,-1.96593 0.983,-4.25951 1.6383,-6.22543 0.6553,-1.96592 4.5871,-2.29358 7.2084,-0.65531 0.9829,0.65531 1.9659,1.31062 1.9659,2.29358 -0.3277,3.60419 0.6553,6.55308 -0.6553,9.82962 -0.3277,0.65531 -0.6553,0.98296 -0.6553,1.63827 0.3276,6.88073 -1.966,13.43381 -1.966,20.31455 0.3277,6.22542 0.6553,12.1232 -1.6382,18.02097 -0.6553,2.29358 0,4.91481 0,7.53604 0,5.89777 -0.6553,11.79554 -1.966,17.36566 -0.6553,1.96593 -0.6553,2.62123 -3.2765,2.62123 -2.2936,0.32766 -4.5872,0.32766 -6.5531,0.32766 -13.4338,0 -26.54,-0.65531 -39.9738,0.32765 -7.2084,0.65531 -13.1061,0 -19.6592,0 l -16.0551,0.32766 c -10.4849,-0.32766 -24.574,0.6553 -31.1271,-0.65531 -5.8978,0.32765 -12.1232,0.32765 -18.021,0.32765 -1.3106,0 -2.6212,0.65531 -3.9318,0.65531 -6.5531,-2.29358 -13.4338,-1.96592 -20.6422,-1.96592 z m -8.8467,-95.34732 c 0,1.96593 -0.9829,3.6042 -2.6212,3.6042 -1.3106,0.32765 -2.9489,0.32765 -4.2595,0.6553 -4.2595,0.65531 -7.2084,2.29358 -8.519,6.88074 -0.983,3.60419 -0.983,7.20839 -1.3106,10.48493 0,3.60419 0.6553,6.55308 0.6553,9.82962 0,3.60419 0.983,6.88073 0,10.15727 -0.983,2.62123 0.983,5.57012 0.3276,8.84666 -0.6553,2.62123 -0.3276,5.89777 -0.3276,8.84666 0,0.6553 -0.3277,1.96592 0,2.29357 1.9659,3.93185 0,6.55308 -3.2765,9.17432 -5.5702,3.93184 -11.1403,8.19135 -17.0381,12.12319 -9.8296,6.55308 -19.9868,11.14024 -31.7824,13.76147 -4.2595,0.98296 -8.519,1.96593 -12.7785,1.96593 -3.2765,0 -8.519,0.6553 -11.4679,0 -0.6553,0.32765 -1.6383,0.32765 -2.2936,0 -5.5701,-1.63827 -9.8296,-0.98297 -15.3997,-2.94889 -4.2595,-0.98296 -8.519,-1.96592 -12.4509,-3.60419 l -4.5871,-1.63827 c -6.2254,-2.62124 -11.4679,-6.22543 -16.0551,-11.14024 -3.2765,-3.60419 -6.88069,-6.22543 -9.82958,-9.17431 -5.57011,-6.22543 -10.48492,-12.45085 -14.08912,-19.65924 -0.32765,-0.98296 -0.98296,-1.96593 -1.63827,-2.94889 -2.62123,-3.93185 -4.2595,-7.53604 -5.57012,-12.45085 -1.96592,-8.519 -3.27654,-17.36566 -5.57011,-25.88467 -0.65531,-1.31061 -0.32766,-3.27654 -0.65531,-4.91481 -1.31062,-10.15727 -1.31062,-19.98689 0,-29.81651 1.31061,-9.82962 1.96592,-19.33159 5.89777,-28.5059 1.96592,-3.93185 2.94889,-8.19135 4.58716,-11.79554 4.58715,-10.48493 12.7785,-22.93578 19.98689,-29.81651 4.58719,-4.58716 9.82959,-8.51901 15.07209,-11.79555 1.3106,-0.65531 2.6212,-0.98296 3.6042,-1.96592 5.8978,-5.57012 13.4338,-6.55308 21.2975,-8.84666 5.2425,-1.31062 10.8126,-0.65531 16.055,-2.62123 0.6554,-0.32766 1.6383,0 2.2936,0 9.1743,0.98296 21.9528,1.63827 31.1272,4.58715 9.8296,2.62124 18.0209,8.19135 26.2123,14.08913 5.2424,4.2595 8.519,9.17431 11.7955,15.07208 4.9148,9.17431 6.8807,18.67628 5.8978,28.5059 -0.6553,4.91481 -1.9659,9.50196 -3.6042,14.08912 -1.9659,4.58715 -5.5701,8.519 -10.4849,10.81258 -0.6553,0.65531 -1.966,0.98296 -2.9489,1.63827 -3.9319,2.29358 -8.519,3.60419 -13.1062,2.94889 -4.2595,-0.32766 -8.519,0.32765 -12.7785,-1.63827 -9.1743,-3.6042 -15.0721,-9.82962 -16.055,-20.31455 0,-1.96593 -0.6553,-3.93185 -0.6553,-6.22543 0,-1.96592 0.6553,-3.60419 0.9829,-5.57011 1.3106,-6.55308 4.2595,-11.79555 9.1743,-16.71036 1.966,-1.96592 3.2766,-1.96592 5.5702,-2.94888 1.6382,-0.65531 5.5701,-1.31062 7.8636,-0.65531 2.2936,0.32765 4.5872,-2.94889 3.9319,-4.91481 -0.6553,-4.91481 -3.2765,-9.17431 -6.2254,-12.1232 -1.3106,-0.65531 -1.966,-1.96592 -3.2766,-2.94889 -4.9148,-4.58715 -9.8296,-6.55308 -16.055,-7.86369 -6.2254,-1.31062 -15.0721,0 -19.6593,3.60419 -5.8977,3.27654 -12.7785,8.84666 -16.055,15.39974 0,0.32765 -0.3277,0.65531 -0.6553,0.65531 -2.6212,6.88073 -6.8807,14.08912 -8.8467,21.29751 -0.9829,3.60419 -1.6382,6.88073 -2.2935,10.15727 0,0.65531 -0.6554,1.63827 -0.6554,2.29358 0.3277,5.89777 -1.6382,11.79554 -1.9659,17.36566 -0.6553,7.20839 -1.9659,14.08912 -1.6382,20.96986 -1.966,5.24246 -1.3107,10.48492 -1.3107,16.05504 -0.3276,3.6042 0,6.88074 0,10.48493 0,2.94889 0.983,6.22543 0.6553,9.17431 0,0.98296 0.3277,1.96593 0.3277,3.27654 0,8.84666 1.9659,17.36566 3.6042,25.88467 2.6212,11.79554 7.536,22.28047 13.7615,32.43774 2.9488,4.91481 7.536,7.20839 12.4508,10.15728 1.3106,0.98296 3.2766,0.32765 4.5872,0.65531 6.8807,1.63827 13.1061,-1.63827 16.7103,-6.22543 5.8978,-6.22543 8.519,-14.74443 10.4849,-23.91874 0.3277,-1.63827 -1.3106,-2.94889 -0.3276,-4.58716 0.983,-1.63827 0.983,-2.94888 0.983,-4.58715 0,-2.94889 0,-5.57012 0.6553,-8.19135 0.6553,-2.94889 -0.983,-5.57012 -0.6553,-8.51901 0.6553,-2.29358 0,-5.24246 0,-7.86369 v -8.19135 c -0.3277,-4.58716 -3.6042,-7.8637 -8.1914,-8.51901 -5.5701,-0.65531 -10.4849,-2.62123 -16.055,-2.29358 -0.983,0.32766 -2.2936,-0.6553 -3.2766,-1.96592 -1.9659,-1.63827 -1.6382,-4.91481 0.6553,-5.89777 2.2936,-0.65531 4.5872,-0.98296 7.2084,-0.98296 6.5531,0.32765 13.1062,0 19.6593,0 5.5701,0.98296 22.2804,0.32765 22.6081,0.32765 3.2765,0.65531 6.8807,0 9.8296,0 3.6042,0 7.2084,0.65531 10.8126,0.65531 1.3106,0 2.6212,-0.65531 3.9318,-0.65531 5.5702,-0.65531 9.1743,0 13.4338,-0.65531 1.966,-0.32765 3.2766,1.31062 3.6042,3.27654 z m -248.03403,93.05374 c -2.62124,-3.27654 -5.24247,-6.55308 -7.20839,-10.15728 l -15.07209,-24.9017 c -1.63827,-2.29358 -2.94888,-4.2595 -3.27654,-7.53604 -3.60419,-6.22543 -8.519,-11.79555 -12.12319,-18.02097 -2.62124,-4.58716 -5.24247,-9.17431 -7.53605,-13.76147 -3.27654,-10.81258 -6.88073,-9.17431 -16.05504,-26.53997 -4.91481,-8.19135 -9.82962,-16.3827 -14.74443,-24.2464 l -5.24247,-8.519 c -6.22542,-9.82962 -12.12319,-20.31455 -17.36566,-30.47182 -0.98296,-1.63827 -1.31061,-3.27654 -2.29358,-4.25951 -0.32765,-0.32765 -0.6553,-0.6553 -0.6553,-0.98296 -0.65531,0 -0.65531,2.62123 -0.65531,3.6042 1.31061,4.91481 0.32765,9.82962 0.32765,14.74442 0.32766,8.19135 0,16.3827 0.32766,24.90171 0,0.65531 -0.32766,1.63827 -0.32766,2.29358 0.32766,3.27654 0,6.55308 1.31062,9.82962 -1.63827,2.94888 -0.65531,5.89777 -0.98296,9.17431 v 1.63827 c 1.31061,3.93185 0.6553,7.86369 0.98296,11.79554 0.32765,3.6042 -0.32766,7.53604 -0.32766,11.46789 0,3.27654 -0.32765,6.22543 0.65531,9.50197 0.65531,3.27654 0,6.55308 0,9.82962 0,6.22542 -0.32765,12.1232 -0.32765,18.34862 0,6.22543 1.63827,12.45085 1.96592,18.67628 0,4.58716 3.27654,8.19135 6.88074,11.14024 3.27654,2.94888 6.88073,5.24246 11.46789,5.24246 1.96592,0 3.60419,1.31062 5.57011,0.98296 1.96593,-0.65531 3.6042,0.65531 5.57012,0.32766 2.29358,0 4.2595,0.6553 5.89777,2.62123 1.31062,1.96592 0.65531,4.91481 -1.63827,5.24246 -8.19135,0.65531 -13.76146,-0.65531 -24.24639,0 -1.96593,-0.65531 -3.6042,0.98296 -5.57012,-0.32765 -4.58716,0.65531 -10.48493,-0.98296 -15.07208,-0.65531 -4.58716,0.32765 -7.20839,0.65531 -11.79555,0.65531 -1.96592,0 -5.89777,-0.65531 -7.86369,-0.32766 -1.63827,0.65531 -3.27654,0.98297 -4.58716,0 -0.98296,-0.6553 -1.96592,0 -2.94889,0.32766 -2.62123,0.98296 -4.58715,0.65531 -7.20838,-0.65531 -1.96593,-0.98296 -2.62124,-1.96592 -2.29358,-4.58716 0,-0.98296 0.65531,-1.96592 1.96592,-2.29357 h 2.29358 c 5.57012,0.6553 10.81258,-0.98297 15.72739,-3.27654 3.6042,-1.31062 6.55308,-3.6042 9.82962,-6.22543 0.65531,-0.65531 0.98296,-1.96592 1.63827,-2.62123 2.94889,-4.91481 4.2595,-10.15728 4.58716,-15.72739 0.32765,-2.29358 0.32765,-4.91481 0.32765,-7.53605 0,-1.96592 0.32766,-4.58715 0,-6.55308 -0.65531,-2.29357 0.65531,-4.91481 0.65531,-7.20838 -0.32765,-4.25951 -0.65531,-8.51901 -0.65531,-13.10616 0.65531,-9.17432 0.32766,-18.34863 0,-27.19529 -0.32765,-6.55308 0.65531,-13.10616 -0.32765,-19.65924 -0.32766,-0.6553 0.32765,-1.63827 0.32765,-2.29357 0.32766,-1.31062 0.98296,-2.94889 0.65531,-3.93185 -1.31062,-3.6042 -0.65531,-7.53604 0,-11.14024 0.32765,-1.63827 0.65531,-3.60419 0,-4.91481 -0.65531,-2.29358 -1.63827,-4.91481 -0.65531,-7.20839 0.65531,-2.29357 -0.98296,-4.2595 -0.32765,-6.22542 0.98296,-3.6042 0,-6.88073 0,-10.48493 -0.32766,-3.60419 0.65531,-6.22542 0.32765,-9.82962 -0.65531,-3.60419 -0.65531,-7.20839 -0.65531,-10.48493 0.32766,-2.62123 -0.6553,-4.91481 -1.96592,-7.20838 -3.93185,-5.57012 -8.519,-10.48493 -15.39974,-11.79555 -3.93185,-0.65531 -7.86369,-2.29358 -12.1232,-1.96592 -0.98296,0 -2.29357,-0.32766 -3.27654,-0.65531 -0.6553,-0.65531 -1.96592,-1.31062 -1.63827,-2.62123 0.32766,-2.62123 2.29358,-4.91481 4.58716,-4.58716 2.94889,0 5.89777,-0.65531 8.84666,0.65531 1.96592,0.98296 3.27654,-1.63827 5.57012,-0.32765 2.62123,-0.65531 5.57011,0 8.519,-0.32766 2.94889,-0.32765 5.89777,0.32766 8.519,0.65531 5.89778,-0.65531 11.46789,0 17.36567,0 2.94888,0 5.89777,0.32765 8.84665,-0.65531 0.65531,-0.32765 1.63827,-0.65531 2.29358,-0.32765 2.62123,1.63827 5.89777,0.98296 8.51901,0.98296 4.58715,0 8.519,1.96592 10.48492,6.22543 3.27654,7.53604 8.19135,14.41677 12.45086,21.29751 l 1.96592,3.60419 c 1.96592,4.58716 4.58716,8.19135 7.20839,12.1232 0.65531,0.65531 1.31061,1.63827 1.96592,2.62123 3.93185,7.53604 7.8637,14.74443 12.1232,22.28047 1.31062,2.62123 2.62123,5.24246 4.58716,7.8637 2.94888,3.93184 4.58715,8.519 7.20838,12.45085 2.62124,3.93185 4.91481,7.86369 7.20839,11.79554 2.29358,5.24247 4.91481,10.48493 8.519,15.07209 3.27654,4.58715 5.57012,9.82962 8.51901,14.74443 3.27654,5.24246 5.89777,10.48492 9.17431,15.39973 0.32765,0.65531 0.65531,0.98297 1.31062,0.98297 0.98296,0 0.6553,-0.98297 0.98296,-1.63827 0,-6.22543 -0.32766,-13.10616 0,-19.00394 -0.65531,-12.12319 -0.98296,-32.11009 -0.32766,-47.83748 0.32766,-3.27654 -0.6553,-6.22543 -0.32765,-9.50197 0.32765,-2.94888 -0.65531,-5.89777 -0.65531,-8.84665 -0.32765,-4.58716 -0.98296,-9.17431 0.65531,-13.76147 0.32765,-0.65531 0.32765,-1.31062 0.32765,-1.63827 -1.96592,-4.58716 -0.6553,-9.17431 -0.98296,-14.08912 l -0.65531,-4.91481 c -2.29357,-8.84666 -4.2595,-11.14024 -12.45085,-15.07209 -3.27654,-1.63827 -6.88073,-2.94888 -11.14023,-2.29357 -2.94889,0.32765 -5.89777,0 -8.84666,0 -1.96592,-0.32766 -3.27654,-2.29358 -2.94889,-4.58716 0,-1.63827 1.96593,-3.60419 3.27654,-3.93185 12.77851,0.65531 25.22936,-0.65531 38.33552,0.65531 3.60419,0.32765 7.20839,0.65531 10.48493,0.32765 3.27654,-0.6553 7.20839,-0.32765 10.81258,-0.6553 h 10.48493 c 1.63827,0 3.27654,0 4.91481,0.32765 1.63827,0.32765 1.63827,1.96592 2.29358,3.27654 0.6553,1.31062 -0.65531,1.96592 -0.98297,2.62123 -0.98296,1.31062 -2.62123,1.96593 -4.58715,1.96593 -1.63827,0 -3.27654,0.32765 -4.58716,0.32765 -5.57012,0 -9.82962,2.29358 -13.76147,5.89777 -4.58715,3.6042 -7.20838,8.19135 -8.519,13.76147 -0.32765,0.65531 -0.65531,1.31062 -0.65531,1.96592 -0.32765,8.84666 -1.31061,17.03801 -0.98296,25.55701 0.65531,10.15728 0.65531,19.9869 0.65531,29.81652 0,3.60419 -0.32766,7.53604 -0.32766,11.14023 0.32766,3.93185 0.65531,7.53605 0.65531,11.46789 0,9.50197 0.32766,18.67628 0.32766,28.5059 0,23.91874 -1.31062,47.83749 -0.32766,71.75623 0,2.94888 -0.32765,3.27654 -3.27654,3.93185 -1.96592,0.6553 -3.93185,1.31061 -6.22542,0.32765 -1.96593,-0.65531 -3.27654,0.65531 -6.88074,0.32765 -1.31061,0.32766 -4.2595,0 -5.89777,0 -5.24246,0.32766 -7.53604,-0.32765 -9.50196,-2.94888 z m -245.7405,4.2595 -3.27654,-0.65531 c -9.50197,-0.32765 -18.02097,-2.62123 -26.53998,-6.22542 -1.96592,-0.65531 -3.93184,-1.96593 -5.89777,-3.27654 -6.55308,-3.93185 -13.43381,-7.8637 -18.34862,-14.41678 -5.57012,-6.22543 -10.81258,-12.45085 -16.05505,-18.67628 -1.96592,-2.62123 -3.60419,-5.24246 -4.91481,-8.19135 -1.96592,-4.58715 -3.93185,-9.50196 -5.89777,-14.08912 -0.65531,-1.31062 -0.98296,-2.62123 -0.98296,-3.93185 0,-2.29358 -0.98296,-4.91481 -1.96593,-7.53604 -0.32765,-1.31062 -0.6553,-2.29358 -0.98296,-3.60419 -0.65531,-3.93185 -0.98296,-7.8637 -1.96592,-11.79555 -0.65531,-3.60419 -0.65531,-7.20839 -0.98296,-10.48493 -0.65531,-3.93184 -0.98297,-7.86369 0.6553,-11.79554 0.32766,-0.98296 0.32766,-1.96592 0.32766,-2.94889 0.32765,-11.79554 2.94888,-22.60812 6.88073,-33.4207 4.58716,-11.79555 9.17431,-23.26344 17.03801,-33.09306 5.24246,-6.88073 11.14024,-13.10616 18.34862,-18.02097 9.50197,-6.55308 19.9869,-10.81258 30.79948,-13.43381 9.50197,-2.29358 19.33158,-2.94889 29.1612,-1.96592 5.24247,0.6553 10.15728,1.96592 15.07209,3.93184 7.20839,3.6042 14.74443,6.88074 21.29751,11.14024 6.22542,4.2595 11.79554,9.82962 16.05504,15.72739 4.91481,5.89777 9.50197,11.79555 12.77851,19.00393 1.63827,3.6042 2.94889,6.88074 4.58716,10.48493 0.6553,1.96592 0.98296,3.93185 1.96592,5.89777 2.29358,5.57012 3.27654,11.14024 4.58716,17.03801 1.31061,7.53604 2.62123,15.07208 1.63827,21.95282 0,4.2595 -0.32766,7.20839 0.32765,10.48493 0.32765,2.62123 -1.96592,5.24246 -0.65531,8.519 -1.96592,6.88073 -2.29358,13.76147 -4.58715,20.6422 -3.6042,10.48493 -7.53605,20.96986 -13.43382,30.79948 -3.27654,5.57012 -6.88073,11.14023 -11.14023,16.3827 -10.81259,12.1232 -23.91875,20.31455 -40.30145,23.91874 -3.27654,0.65531 -6.88073,1.31062 -10.48492,1.63827 -1.31062,0 -2.62124,0.32765 -3.93185,0.65531 -2.94889,0.32765 -5.89777,0.32765 -9.17431,-0.65531 z m 15.39973,-14.41678 c 2.29358,-1.96592 4.58716,-3.60419 6.22543,-6.22542 5.57012,-7.53604 8.84666,-17.36566 12.45085,-26.21232 0.65531,-0.65531 0.32766,-1.31062 0.32766,-1.96593 0,-4.91481 1.63827,-9.17431 2.29357,-13.43381 1.31062,-6.22543 2.62124,-12.1232 2.62124,-18.67628 0.32765,-9.17431 0.98296,-17.36566 0.98296,-25.88466 v -1.63827 c 0,-7.8637 -1.31062,-14.74443 -0.98296,-22.93578 0.32765,-7.53605 -1.96593,-14.74443 -1.63827,-22.28048 -1.96593,-3.60419 -1.31062,-7.53604 -1.96593,-10.81258 -1.96592,-8.519 -5.24246,-16.71035 -7.86369,-24.9017 -1.96593,-5.89777 -4.91481,-10.48493 -9.82962,-14.41678 -1.63827,-1.31061 -4.58716,-3.60419 -6.55308,-3.60419 -2.62124,-1.31062 -6.22543,-0.98296 -8.84666,-0.32765 -0.65531,0.32765 -1.63827,0.32765 -2.29358,0.6553 -6.88073,4.58716 -12.7785,9.50197 -16.71035,17.03801 l -6.22543,13.10616 c -0.98296,1.96593 -2.29358,4.91481 -2.94888,7.53604 -1.63827,8.51901 -4.58716,16.71036 -5.57012,25.22936 -1.31062,8.519 -2.62123,17.03801 -2.94889,25.55701 -0.65531,6.22543 0.65531,12.77851 -1.31061,18.67628 1.96592,7.20839 0.6553,14.74443 1.31061,21.62516 0.32766,0.65531 0.32766,1.31062 0.65531,1.96593 1.31062,1.96592 0.65531,4.2595 1.31062,6.22542 0.32765,2.29358 1.31061,4.91481 0.98296,7.20839 0,3.6042 1.63827,6.55308 1.96592,9.82962 0.32766,1.31062 0.98296,2.62123 1.63827,3.93185 1.96593,8.19135 3.27654,13.43381 8.19135,19.33159 1.31062,1.63827 2.29358,2.94888 3.27654,4.91481 2.29358,3.60419 5.89777,6.88073 9.50197,9.17431 4.58715,3.27654 9.17431,4.58715 14.74443,4.2595 2.62123,-0.65531 4.91481,-1.63827 7.20838,-2.94889 z m -158.25688,11.79555 c -4.91481,-2.29358 -10.15727,-3.93185 -13.76146,-8.51901 -0.98297,-0.98296 -1.96593,-1.96592 -2.62124,-3.27654 -5.24246,-9.17431 -9.17431,-19.65924 -11.79554,-29.81651 -1.96592,-7.53604 -4.2595,-14.74443 -5.57012,-22.28047 -0.32765,-1.96593 -1.31061,-3.6042 -1.96592,-5.24247 -1.31062,-3.27654 -1.96593,-6.22542 -2.94889,-9.50196 -1.31061,-7.53604 -3.27654,-14.74443 -7.53604,-21.29751 -3.27654,-4.91481 -6.22543,-5.24247 -11.79554,-4.91481 h -3.27654 c -1.31062,0.32765 -1.96593,0.98296 -1.96593,2.29358 0.32766,3.60419 -0.98296,7.86369 -0.32765,11.79554 0.65531,3.93185 0,7.53604 0,11.79554 0.32765,15.39974 0.65531,31.12713 0.32765,46.52687 0,6.22543 1.96593,11.79555 4.91481,17.03801 0.65531,1.31062 1.96593,1.96592 3.27654,2.62123 4.91481,1.96593 9.82962,4.58716 14.74443,4.2595 0.65531,0 1.63827,0.32766 2.29358,0.65531 1.31062,0.32766 2.29358,2.29358 2.29358,3.93185 -0.32766,1.63827 -1.63827,3.60419 -3.27654,3.60419 -1.63827,0.32766 -3.27654,0.32766 -4.58716,0.32766 -3.60419,0 -7.20839,0 -10.81258,-0.32766 -3.27654,0.65531 -6.22543,-0.6553 -9.50197,-0.32765 -3.27654,0.32765 -6.55308,0 -9.82962,0.65531 -2.94888,0.32765 -5.89777,-0.65531 -8.84665,-0.65531 -0.65531,0 -1.63827,-0.32765 -2.29358,0 -5.24247,1.96592 -10.81258,0.98296 -16.05505,1.31062 -7.20839,0.32765 -15.07208,-1.31062 -22.60812,0.98296 -3.93185,-1.96593 -8.19135,-0.65531 -12.1232,-0.65531 -0.32765,-0.32765 -0.65531,-0.32765 -0.65531,-0.32765 -0.98296,-0.65531 -2.29358,-2.29358 -1.96592,-3.6042 0,-0.98296 0.65531,-1.96592 1.63827,-2.29358 2.62123,-0.6553 5.24246,-1.96592 7.86369,-1.96592 6.22543,0.32765 9.82962,-3.60419 13.43382,-8.19135 1.96592,-2.94889 3.27654,-6.22543 2.94888,-9.82962 -0.32765,-7.20839 0,-14.41678 0,-21.62516 0,-2.62124 0,-4.91481 -0.6553,-7.53605 -0.65531,-1.96592 0.6553,-4.91481 0.6553,-7.20838 -1.31061,-7.53605 0.32766,-14.74443 0,-21.62517 l -0.6553,-24.24639 c 0,-0.65531 0.6553,-1.63827 0.6553,-2.29358 -1.96592,-5.24247 0,-10.81258 -0.32765,-16.3827 l -0.98296,-39.64613 c 0,-3.6042 -0.32766,-6.88074 0.98296,-10.48493 0.65531,-0.98296 -1.31062,-3.6042 0,-5.89777 -1.63827,-3.6042 -0.65531,-7.20839 -0.98296,-10.48493 -0.65531,-6.55308 -4.58716,-10.48493 -10.48493,-10.48493 -2.94889,0 -5.89777,-0.65531 -8.519,-0.65531 h -0.65531 c -1.31062,0 -4.58716,-2.62123 -4.2595,-3.60419 0.6553,-1.96593 1.63827,-2.94889 3.27654,-3.6042 0.6553,-0.32765 1.63827,-0.6553 2.29357,-0.6553 h 4.25951 c 22.28047,-1.63827 36.36959,0 54.71821,0 h 23.59109 c 7.8637,-0.32766 16.05505,-0.65531 23.91874,0 13.76147,0.6553 26.53998,3.93184 38.33552,11.79554 7.8637,4.91481 12.77851,12.45085 16.05505,21.29751 0.98296,3.27654 1.96592,5.24246 1.96592,8.84666 0.32765,3.60419 -0.65531,7.53604 0.98296,11.46789 -1.96592,5.57011 0.32766,12.12319 -3.93185,17.36566 -3.93184,9.17431 -10.15727,16.05504 -18.02097,21.62516 -6.55308,4.58716 -22.28047,8.84666 -31.45478,10.15728 19.98689,2.62123 30.47182,20.31454 35.71429,34.07601 1.96592,4.91481 3.27654,9.82962 4.2595,14.74443 3.27654,6.55308 3.93185,14.41678 7.20839,20.96986 0.32765,4.91481 2.94888,8.84666 4.58715,13.10616 0.32766,0.65531 0.65531,1.31061 1.31062,1.96592 1.96592,2.62123 4.91481,2.94889 7.20839,0.32766 2.62123,-2.94889 3.60419,-6.55308 3.60419,-10.48493 1.31062,-3.6042 0.98296,-6.22543 1.63827,-9.50197 0.32765,-0.98296 1.63827,-1.63827 2.29358,-2.29358 0.32765,-0.32765 0.98296,-0.32765 1.63827,-0.32765 1.96592,0.98296 1.96592,1.63827 2.62123,3.93185 v 1.63827 c -0.65531,10.48493 -0.65531,21.62516 -6.88073,30.14417 -4.58716,6.22542 -10.81259,10.81258 -18.34863,12.7785 -6.55308,1.96593 -10.81258,1.96593 -16.71035,1.63827 -3.27654,-0.98296 -5.89777,-2.62123 -8.51901,-3.60419 z m -47.83748,-115.00656 c 1.96592,-0.32765 3.60419,-0.6553 5.57012,-1.31061 5.89777,-2.29358 10.81258,-6.22543 14.74443,-11.46789 3.93185,-4.91481 5.57012,-10.48493 7.86369,-16.05505 0.32766,-7.86369 2.94889,-15.72739 1.96593,-22.93578 v -6.88073 c 0,-4.2595 -1.31062,-9.50197 -3.27654,-14.74443 -1.96593,-6.22543 -6.22543,-9.17431 -11.46789,-11.79554 -1.63827,-0.65531 -3.6042,-0.98297 -5.24247,-1.96593 -5.89777,-2.62123 -11.79554,-1.96592 -17.36566,-0.65531 -5.24246,0.98297 -7.20839,8.19135 -7.20839,13.76147 -0.32765,4.91481 0,6.88074 0,11.46789 0,6.55308 0,12.1232 -0.32765,18.67628 0,6.55308 -0.98296,13.10616 -0.32765,19.98689 0.32765,1.96593 0,4.2595 0.32765,6.22543 0.32765,2.29358 -0.65531,4.58715 -0.65531,6.88073 0.32766,2.62123 0.65531,6.22543 0.32766,9.17431 0,0.98297 -0.65531,1.63827 0.6553,1.96593 0.65531,0.32765 1.96593,0.65531 2.62124,0.32765 3.93184,0 7.86369,-0.32765 11.79554,-0.65531 z m -242.46396,112.38533 c -0.65531,-0.65531 -0.65531,-0.65531 0,-1.31062 1.31062,-1.96592 2.94889,-3.60419 5.57012,-3.60419 3.93185,0.32765 7.8637,-0.65531 12.1232,-1.31062 1.63827,-0.32765 2.94888,-0.98296 4.2595,-1.96592 4.58716,-4.58716 6.88073,-9.50197 6.88073,-16.05505 -0.32765,-20.96986 0.65531,-41.93971 -0.32765,-62.90957 0,-9.17431 0,-18.34862 0.32765,-27.19528 0,-3.93185 -0.98296,-7.8637 -0.32765,-12.1232 0.65531,-4.2595 0.32765,-8.84666 0.32765,-13.10616 v -12.45085 c 0,-4.2595 -0.32765,-8.519 0.65531,-12.45085 -0.98296,-4.58716 -0.65531,-8.84666 -0.65531,-13.10616 v -12.45085 c 0,-1.96593 0.32766,-3.93185 0,-5.89777 0,-2.62124 -1.96592,-3.93185 -4.2595,-3.6042 -1.63827,0.32766 -3.27654,0.65531 -4.58715,0.98296 -3.27654,0.98297 -6.22543,1.96593 -8.84666,3.6042 -7.20839,4.91481 -13.43382,10.48493 -18.34863,17.36566 -1.96592,2.94889 -4.2595,6.22543 -5.57011,9.82962 -1.96593,6.22543 -5.24247,11.79554 -8.19135,17.69331 -1.96593,3.6042 -3.27654,7.53605 -4.58716,11.46789 -0.65531,3.6042 -1.96592,4.25951 -4.91481,4.58716 h -3.93185 c -2.62123,-0.32765 -3.93185,-1.63827 -3.93185,-4.58716 0,-1.63827 -0.32765,-3.60419 0.32766,-4.91481 1.96592,-4.58715 0.65531,-9.17431 2.29358,-13.76146 0.6553,-1.31062 0.6553,-3.27654 0.6553,-4.91481 -0.6553,-5.57012 1.31062,-10.48493 1.96593,-15.72739 1.96592,-2.94889 1.31061,-6.22543 1.63827,-9.50197 0.65531,-5.57012 0.98296,-10.81258 1.96592,-16.3827 0,-0.65531 0.65531,-1.63827 0.65531,-1.96592 0.98296,-2.94889 1.63827,-3.93185 4.2595,-3.6042 9.82962,0.65531 16.71036,0.32766 26.53998,0.32766 3.27654,0 6.22542,-0.32766 9.50196,0.32765 13.76147,-1.31062 22.60813,0 34.07602,0 1.96592,0.32765 4.2595,0.65531 6.22542,-0.65531 0.65531,-0.32765 1.31062,-0.65531 1.63827,-0.65531 6.55308,2.29358 12.77851,-0.98296 19.33159,-0.6553 6.55308,0.6553 13.10616,0.98296 19.65924,0.98296 6.55308,0 13.10616,0.32765 19.65924,0 2.94889,-0.32766 5.57012,0.98296 8.519,0.65531 0.65531,0 1.96593,0.6553 2.94889,0.32765 3.27654,-1.96592 5.89777,0.32765 8.519,0.98296 1.96593,0.65531 2.62124,2.94889 2.94889,4.91481 0.32765,3.6042 1.31062,7.53604 1.63827,11.14024 0.98296,9.50196 3.27654,18.67628 4.91481,28.5059 0.65531,4.91481 0.98296,9.82961 1.96592,14.74442 0.65531,3.93185 1.96593,7.8637 1.96593,12.1232 0,1.96593 -0.98296,3.27654 -2.94889,3.27654 -1.31061,0.32766 -2.62123,0.32766 -3.93185,0.32766 -0.98296,0 -1.96592,0.98296 -3.27654,0.32765 -1.63827,-0.65531 -2.62123,-1.96592 -3.27654,-3.60419 -2.62123,-9.82962 -7.20838,-18.67628 -11.14023,-28.17825 -1.96593,-4.91481 -4.58716,-10.15727 -7.20839,-14.74443 -4.58716,-7.20838 -9.82962,-12.7785 -17.03801,-16.3827 -4.2595,-1.96592 -8.84666,-3.93184 -13.76147,-3.93184 -6.22542,0 -6.22542,-0.98297 -6.22542,5.89777 -0.32766,8.84666 0.32765,20.31455 -0.98296,26.21232 0,1.63827 0.6553,2.94888 0.6553,4.58715 0,6.55308 -0.32765,4.91481 -0.32765,11.79555 0,6.22542 0.98296,12.12319 -0.65531,18.34862 1.96593,7.8637 0.65531,24.2464 0.65531,32.7654 0.32765,7.8637 0,16.05505 0.32765,23.91874 -2.29357,8.19135 0,16.71036 0,24.90171 0,7.86369 0,16.05504 0.32766,23.91874 0,3.27654 0,6.22542 0.98296,9.17431 1.63827,5.57012 4.91481,8.84666 10.15727,10.48493 3.93185,1.31061 8.19135,2.29358 12.45086,1.96592 1.96592,-0.32765 3.27654,0 4.58715,1.31062 0.98296,0.98296 1.63827,2.29358 0.98296,3.93185 -0.6553,1.31061 -1.31061,2.29357 -2.94888,2.62123 -0.98296,0.32765 -1.96593,0.65531 -3.27654,0.65531 -7.53604,0 -15.39974,-0.65531 -22.93578,0 -3.27654,0.32765 -6.55308,-0.98297 -9.50197,0.32765 -3.27654,-1.31062 -5.89777,-0.32765 -8.84666,0.32765 -2.29357,0.32766 -5.24246,-0.6553 -7.86369,-0.6553 -4.58716,0 -8.84666,1.31061 -13.43382,-0.32766 -0.98296,-0.65531 -2.29357,0 -3.27654,0.32766 -1.96592,0.6553 -3.27654,0.6553 -4.91481,0 -0.98296,-0.32766 -1.96592,-0.32766 -3.27654,0 -6.55308,1.63827 -13.43381,0.32765 -19.98689,0.6553 -2.94889,-0.6553 -4.2595,-1.96592 -5.57012,-3.93184 z m -125.163825,5.89777 c -7.536042,0.65531 -14.744429,-1.31062 -21.625163,-2.94889 -2.621232,-0.32765 -5.242464,-0.65531 -8.19135,-1.96592 -1.965924,-0.65531 -3.27654,-1.96593 -4.587156,-2.62123 -1.965924,-0.98297 -4.587156,-0.65531 -6.880734,-1.96593 -5.570118,-3.60419 -11.46789,-6.55308 -16.3827,-11.14023 -4.91481,-4.91481 -8.519004,-10.81259 -9.82962,-17.69332 -0.655308,-0.98296 -0.655308,-1.96592 -0.655308,-2.94889 -0.655308,-3.27654 -1.965924,-6.22542 -1.965924,-9.17431 0.655308,-3.60419 0.655308,-7.53604 1.965924,-10.81258 0.982962,-3.27654 2.621232,-6.55308 4.587156,-9.17431 4.91481,-6.55308 11.46789,-11.14024 19.986894,-10.81258 3.604194,0 7.536042,-0.32766 11.140236,0.98296 4.587156,1.63827 8.519004,4.2595 12.450852,7.53604 2.621232,2.62123 4.587156,5.89777 5.897772,9.17431 1.310616,2.62123 1.63827,5.89777 1.310616,8.84666 0,5.57012 -1.310616,10.81258 -4.587156,15.07208 -2.293578,3.6042 -3.27654,6.55308 -8.19135,7.8637 l -1.965924,0.65531 c -3.27654,1.31061 -4.587156,5.57012 -2.621232,8.519 2.948886,3.6042 7.863696,7.53604 10.484928,9.17431 4.587156,2.62124 7.208388,3.6042 12.778505,4.58716 2.621232,0.65531 5.242464,0.98296 7.863696,1.31062 2.621233,0 4.914813,-0.32766 7.208393,-0.32766 8.84665,0 9.50196,0.65531 16.71035,-3.60419 5.89777,-3.6042 9.17431,-9.17431 10.15727,-15.72739 1.63827,-9.82962 -1.96592,-18.34863 -8.519,-25.22936 -2.94889,-3.6042 -5.89777,-6.88074 -9.82962,-9.17431 -0.65531,-0.65531 -1.63827,-1.31062 -2.29358,-1.96593 -8.519,-8.84666 -18.676277,-16.05504 -26.867626,-24.9017 -0.655308,-0.65531 -1.310616,-1.63827 -2.293578,-1.96593 -4.587156,-2.29357 -7.863696,-6.22542 -11.795544,-9.82962 L 56.78886,-239.43491 c -7.863696,-7.53604 -14.089122,-16.05504 -18.676278,-25.88466 -2.293578,-5.24247 -3.931848,-8.19135 -3.931848,-14.08913 0,-2.29357 -0.327654,-4.91481 -1.310616,-6.88073 0,-0.65531 -0.327654,-1.31061 0,-1.63827 1.965924,-2.94888 1.310616,-6.22542 1.965924,-9.17431 1.965924,-6.22543 4.587156,-13.10616 8.519004,-19.00393 3.27654,-4.2595 6.225426,-7.53604 10.484928,-11.14024 2.621232,-2.29358 5.570118,-4.58715 8.846658,-5.89777 7.863696,-3.60419 16.055046,-6.88073 25.229358,-8.84666 6.553079,-0.98296 15.39974,-1.63827 22.60813,-0.98296 4.91481,0.65531 10.81258,-0.32765 16.05504,1.96592 7.53604,0 12.1232,3.6042 18.67628,6.22543 7.53604,3.60419 11.14023,8.84666 17.36566,16.71035 0.98296,1.63827 1.63827,3.27654 1.96592,4.91481 1.63827,3.6042 3.27654,8.84666 3.27654,12.77851 0.65531,4.91481 0.65531,8.84666 -0.6553,13.43381 -0.65531,1.63827 -1.63827,2.94889 -1.96593,4.58716 -3.27654,8.84666 -9.17431,13.10616 -17.36566,16.05504 -1.31061,0.65531 -5.89777,1.31062 -7.20839,0.98297 -4.58715,0 -10.81258,-1.63827 -14.74443,-3.93185 -7.53604,-4.58716 -12.45085,-14.74443 -10.81258,-24.9017 1.63827,-8.19135 7.20839,-14.74443 14.41678,-16.3827 1.96592,-0.65531 4.58715,-0.65531 6.22542,0 1.31062,0.32765 3.6042,-0.65531 3.93185,-2.94889 0.98296,-6.22543 -1.31061,-9.82962 -6.88073,-13.10616 -4.58716,-4.2595 -11.14024,-4.58716 -16.3827,-7.20839 -5.89777,-0.65531 -14.08912,-2.29358 -19.659243,-0.32765 -0.982962,-0.32766 -1.965924,0.65531 -3.27654,0.65531 -8.519003,0.98296 -14.089121,6.22542 -18.020969,11.79554 -1.63827,1.96592 -1.310616,7.20839 -2.621232,9.17431 -0.655308,1.96593 0.655308,3.27654 0.655308,4.91481 1.310616,7.53604 4.587156,14.41678 9.82962,20.31455 3.27654,3.60419 5.242464,7.86369 9.829619,10.48493 2.621232,4.58715 7.863697,6.22542 10.812587,10.48492 3.27654,3.93185 7.53604,7.20839 11.46789,10.81259 3.60419,3.60419 7.20838,6.88073 11.14023,10.15727 0.65531,0.65531 0.65531,1.63827 1.63827,1.96592 3.93185,1.96593 6.22543,5.57012 9.82962,7.8637 3.6042,2.62123 6.22543,5.89777 9.82962,8.84666 3.27654,2.62123 5.89777,5.89777 8.84666,8.84666 9.82962,9.82962 15.07208,21.29751 17.36566,34.40367 1.63827,9.17431 0,15.72739 -2.94889,23.91874 -1.63827,4.58715 -4.58715,9.82962 -8.519,13.76147 -3.93185,4.2595 -4.2595,4.58715 -8.519,8.519 -2.62123,2.29358 -10.15728,6.88073 -13.76147,7.8637 -6.22543,2.29357 -12.45085,4.58715 -19.00393,4.91481 -0.98296,0.32765 -2.29358,0.32765 -3.27654,0.6553 -1.96593,0.65531 -3.27654,0.65531 -4.58716,0 -0.98296,-0.6553 -1.96592,-0.6553 -3.27654,-0.6553 -2.29358,-0.65531 -4.2595,0.98296 -6.22542,0.6553 -2.94889,-1.63827 -4.587161,-1.31061 -6.553085,-1.31061 z"
   inkscape:connector-curvature="0" />
	</g></g>
</svg>