<?xml version="1.0" encoding="UTF-8" standalone="no"?>
<!-- Generator: Adobe Illustrator 21.0.0, SVG Export Plug-In . SVG Version: 6.00 Build 0)  -->

<svg
   xmlns:dc="http://purl.org/dc/elements/1.1/"
   xmlns:cc="http://creativecommons.org/ns#"
   xmlns:rdf="http://www.w3.org/1999/02/22-rdf-syntax-ns#"
   xmlns:svg="http://www.w3.org/2000/svg"
   xmlns="http://www.w3.org/2000/svg"
   xmlns:sodipodi="http://sodipodi.sourceforge.net/DTD/sodipodi-0.dtd"
   xmlns:inkscape="http://www.inkscape.org/namespaces/inkscape"
   version="1.1"
   id="Layer_1"
   x="0px"
   y="0px"
   viewBox="0 0 791.95367 622.9068"
   xml:space="preserve"
   sodipodi:docname="8017.svg"
   width="791.95367"
   height="622.9068"
   inkscape:version="0.92.3 (2405546, 2018-03-11)"><metadata
   id="metadata33"><rdf:RDF><cc:Work
       rdf:about=""><dc:format>image/svg+xml</dc:format><dc:type
         rdf:resource="http://purl.org/dc/dcmitype/StillImage" /><dc:title></dc:title></cc:Work></rdf:RDF></metadata><defs
   id="defs31" /><sodipodi:namedview
   pagecolor="#ffffff"
   bordercolor="#666666"
   borderopacity="1"
   objecttolerance="10"
   gridtolerance="10"
   guidetolerance="10"
   inkscape:pageopacity="0"
   inkscape:pageshadow="2"
   inkscape:window-width="640"
   inkscape:window-height="480"
   id="namedview29"
   showgrid="false"
   fit-margin-top="0"
   fit-margin-left="0"
   fit-margin-right="0"
   fit-margin-bottom="0"
   inkscape:zoom="0.27314815"
   inkscape:cx="395.93779"
   inkscape:cy="311.4"
   inkscape:window-x="0"
   inkscape:window-y="0"
   inkscape:window-maximized="0"
   inkscape:current-layer="Layer_1" />
<g
   id="g26"
   transform="translate(-36.06221,-120.49317)">
	<path
   d="m 60.9,463.6 c -0.9,7.3 0.5,11.3 4.4,11.9 2.7,0.4 5,-1 6.8,-4.4 1.2,-2.2 2.1,-3.6 2.7,-4.3 0.9,-0.7 2.5,-0.9 4.6,-0.5 l 17.3,2.7 c -1.1,6.7 0.4,10.4 4.3,11 4,0.6 6.6,-1.7 7.8,-7 l 0.5,-2 28.1,4.4 c 3,0.5 4.8,1.7 5.4,3.7 l 0.8,3.1 c 0.8,3 2.5,4.8 5.3,5.2 2.3,0.4 4.2,-0.3 5.5,-1.9 0.8,-0.9 1.4,-3.3 2,-7 l 3.9,-24.8 c 0.6,-3.8 0.7,-6.2 0.2,-7.3 -0.7,-2 -2.3,-3.2 -4.6,-3.5 -2.8,-0.4 -5,0.7 -6.6,3.5 l -1.7,2.9 c -0.8,1.4 -2.1,2 -3.7,2 l -31.3,-4.9 c -0.1,-1.5 -0.1,-2.5 0,-3 0.3,-2 1.3,-3.4 3,-4.2 4.9,-1 8.7,-1.6 11.4,-1.9 1.8,-0.8 2.8,-2.2 3.2,-4.3 0.6,-3.8 -1,-5.9 -4.9,-6.5 -1.2,-0.2 -4.1,0 -8.7,0.5 -5.3,0.5 -8.4,0.8 -9.5,0.8 -1.6,0.1 -3,0.1 -4.2,0 -4.5,-0.2 -7.1,1.3 -7.6,4.6 -0.5,3.2 1.3,5.5 5.5,6.6 l -0.1,5.6 L 71.6,440 71,437.7 c -0.8,-3.3 -1.1,-5.7 -0.9,-7.3 0.9,-5.6 6.4,-8.7 16.6,-9.4 3.3,-0.2 5.4,-0.5 6.4,-0.9 2.3,-0.7 3.6,-2.1 3.9,-4.2 0.7,-4.3 -1.2,-6.8 -5.6,-7.8 L 84,406.6 c -2.5,-0.5 -6.9,-1.9 -13.2,-4.1 -1.1,-0.4 -2,-0.6 -2.7,-0.7 -1.5,-0.2 -2.9,0.1 -4.1,1.1 -1.2,1 -1.9,2.2 -2.2,3.9 -0.3,2.1 0.4,4.5 2.3,7.1 -1.1,1.1 -2,2.1 -2.7,3 -2,3 -3.3,6.3 -3.9,9.8 -0.5,3.2 -0.1,7.7 1.2,13.3 2.3,9.4 3,17.3 2.2,23.6 z"
   id="path2"
   inkscape:connector-curvature="0" />
	<path
   d="m 88.6,355.3 c -0.6,4.3 0.2,6.9 2.2,7.9 1.9,0.9 3.7,0.7 5.4,-0.5 l 2.6,-2 c 1.6,-1.3 3.3,-1.5 4.9,-0.7 0.9,0.4 2,1.4 3.3,2.8 l 25.9,28.5 c -0.7,0.7 -1.2,1.5 -1.7,2.4 -1.7,3.5 -0.7,6.1 2.8,7.8 2.2,1.1 4.6,0.6 7,-1.5 l 7.7,8.1 c 1.8,1.9 3.2,5 4.1,9.3 0.7,3.8 1.9,6 3.4,6.8 3.4,1.6 6.1,0.4 8.1,-3.7 l 8.8,-18.6 c 0.9,-1.9 1.2,-3.8 0.9,-5.6 -0.4,-1.8 -1.3,-3 -2.8,-3.7 -2.2,-1.1 -4.6,-0.7 -7,1.1 l -2.6,1.8 c -1.6,1.2 -3.1,1.4 -4.6,0.7 -0.6,-0.3 -1.2,-0.8 -2,-1.6 l -3.9,-4.3 c 4.1,-4.1 7.2,-8.4 9.4,-13.1 2.6,-5.4 3.8,-10.3 3.8,-14.8 l 5.7,0.5 c 0.9,0.1 1.8,0.4 2.8,0.8 1.3,0.6 2,2.1 2.1,4.6 0,1.6 0.1,2.7 0.1,3.3 0,2.2 1.1,3.8 3.3,4.8 3.6,1.7 6.5,0.3 8.7,-4.4 l 12.9,-27.1 c 1.2,-2.6 1.8,-4.7 1.7,-6.5 0.6,0 1.3,0 2,-0.2 1.2,-0.3 3,-1.8 5.7,-4.6 l 17.4,-18.1 c 2.6,-2.7 4.1,-4.7 4.3,-5.9 0.5,-2 0,-3.9 -1.8,-5.5 -1.8,-1.7 -4.3,-2 -7.4,-0.9 l -3.1,1.4 c -1.6,0.8 -3,0.6 -4.2,-0.5 l -17.3,-16.5 c 4.7,-4.9 10.1,-7.8 16.4,-8.6 6.8,-0.9 12.6,1 17.3,5.5 1.6,1.5 2.1,3.9 1.7,7.1 -0.4,3.2 0.1,5.5 1.5,6.9 3,2.9 6.4,2.4 10.2,-1.5 L 259,281.6 c 1.9,-2 3.1,-3.7 3.6,-5.1 0.4,-1.5 0.2,-2.9 -0.4,-4.4 0.9,0.9 2,1.3 3.3,1.4 1.2,0.1 3.5,-0.7 6.9,-2.3 l 14.3,-6.9 c 3.2,-1.6 5.3,-2.9 6.1,-4 1,-1.9 1.1,-3.8 0.1,-5.7 -1.2,-2.5 -3.4,-3.7 -6.6,-3.5 l -3.2,0.2 c -2,-0.1 -3.3,-0.7 -3.9,-1.9 l -26.6,-54.9 c 7,4 14,10 21.1,17.8 5.7,6.5 10.4,12.6 14,18.6 1.2,2 2.3,3.3 3.4,3.7 1.1,0.4 2.6,0.1 4.8,-0.9 3.5,-1.7 4.6,-4.2 3.4,-7.5 -2.5,-6.9 -4.5,-15.1 -5.8,-24.7 -1.4,-10.3 -1.6,-18.7 -0.6,-25.2 l 25,51.7 c 1.3,2.7 1.4,4.8 0.2,6.4 l -2.2,2.5 c -2.1,2.3 -2.5,4.7 -1.3,7.3 1.1,2.2 2.6,3.3 4.7,3.4 1.3,0.1 3.6,-0.7 6.9,-2.3 l 22.6,-10.9 c 3.4,-1.7 5.5,-3 6.1,-4 1.2,-1.7 1.3,-3.7 0.3,-5.8 -1.2,-2.5 -3.4,-3.7 -6.6,-3.5 L 346,221 c -1.8,-0.1 -3.1,-0.7 -3.9,-1.9 l -25.4,-52.5 c -1.8,-3.7 -2.9,-6.5 -3.3,-8.5 -0.6,-3 0,-5.8 1.8,-8.4 l 1.4,-2 c 1.3,-1.9 1.4,-3.8 0.5,-5.7 -2.1,-4.3 -7.7,-4.3 -16.9,0.1 -7.2,3.5 -12.4,8.8 -15.6,16 -3.2,7.2 -4.8,17.3 -4.9,30.4 l -2.7,-2.3 c -12.4,-10.8 -21.8,-16.8 -28.2,-18.2 -2.4,-0.5 -4.8,-0.3 -7,0.8 -1.4,0.7 -2.5,1.7 -3.4,3.2 l -3.1,4.9 c -3.7,4.4 -6.5,7.7 -8.5,10 l -2.3,2 c -2.1,2.2 -2.7,4.4 -1.5,6.7 1.3,2.6 4.2,3.5 8.9,2.9 2.8,-0.4 5.1,0.5 7.1,2.9 l 25.5,52.7 c 1.3,2.7 1.4,4.8 0.2,6.4 l -2.2,2.5 c -1.7,2.4 -2.2,4.6 -1.5,6.7 -0.3,-0.3 -0.6,-0.6 -0.9,-0.9 -4.3,-4.1 -10,-6.9 -17.2,-8.3 -8.5,-1.7 -19.7,-0.4 -33.7,4 2.8,-12.7 0.1,-23 -8.1,-30.8 -5.9,-5.6 -13,-8.4 -21.4,-8.4 -8.4,0 -15.4,2.9 -21,8.8 -2.6,2.7 -5.1,6.9 -7.4,12.4 l -1.1,2.7 c -3,7.3 -6.5,13.3 -10.6,18 -4.8,5.6 -5.9,9.7 -3.2,12.3 2,1.9 4.7,2 8.1,0.3 1.4,-0.8 3.4,-0.9 5.9,-0.3 1,0.3 2.1,0.6 3.3,1 l 16.9,16.2 c -0.2,0.2 -0.4,0.4 -0.6,0.5 l -0.3,0.3 c -1.4,1.5 -2.2,3.2 -2.2,5.2 -0.1,2 0.6,3.6 1.9,4.9 3,2.8 6.6,2.3 11,-1.7 l 15.5,14.8 c 2.2,2.1 3,4.1 2.3,6 l -1.1,3 c -0.5,1.4 -0.7,2.6 -0.5,3.7 -1.4,0 -2.9,0.6 -4.4,1.7 -2.4,1.8 -4.6,2.6 -6.6,2.4 L 97.9,333 c -4.6,-0.3 -7.5,0.8 -8.7,3.2 -0.6,1.3 -0.8,3.3 -0.5,6.1 0.4,5 0.4,9.3 -0.1,13 z m 102.7,-82.8 c -0.5,1.8 -1.7,3.7 -3.5,5.9 L 165.5,257 c -1.7,-1.6 -2.8,-3.4 -3.2,-5.3 -0.4,-1.9 0,-3.4 1.1,-4.6 2,-2.1 4.8,-2.6 8.3,-1.7 3.5,1 7.2,3.3 11,6.9 7.5,7.2 10.4,13.9 8.6,20.2 z m -39.4,89.1 c -0.3,4 -1.2,7.6 -2.7,10.8 -1.3,2.7 -3,5.2 -5.1,7.6 l -1.1,1.2 -19.5,-21.7 z"
   id="path4"
   inkscape:connector-curvature="0" />
	<path
   d="m 411.2,211.8 -3,1.2 c -2.9,1.2 -4.4,3.1 -4.5,5.9 -0.1,2.4 0.8,4.1 2.6,5.2 1,0.6 3.4,1 7.2,1.1 l 25.1,0.7 c 3.8,0.1 6.2,-0.1 7.3,-0.7 1.9,-1 2.8,-2.6 2.9,-5 0.1,-2.9 -1.4,-4.9 -4.3,-6.1 l -3.1,-1.3 c -1.5,-0.7 -2.3,-1.8 -2.4,-3.5 l 0.8,-31.7 c 1.4,-0.3 2.4,-0.4 2.9,-0.4 2.1,0.1 3.6,0.9 4.6,2.4 1.6,4.8 2.8,8.4 3.4,11 1,1.7 2.6,2.5 4.7,2.6 3.8,0.1 5.7,-1.8 5.9,-5.7 0,-1.2 -0.5,-4.1 -1.6,-8.5 -1.2,-5.2 -1.9,-8.3 -2.1,-9.3 -0.3,-1.5 -0.4,-2.9 -0.5,-4.2 -0.4,-4.5 -2.2,-6.8 -5.5,-6.9 -3.3,-0.1 -5.2,2 -5.9,6.3 l -5.6,0.6 0.9,-29.5 2.2,-0.9 c 3.1,-1.3 5.5,-1.9 7.1,-1.8 5.6,0.2 9.5,5.2 11.5,15.3 0.6,3.2 1.2,5.3 1.7,6.2 1,2.2 2.5,3.3 4.7,3.4 4.3,0.1 6.6,-2.1 7,-6.6 l 0.5,-7.5 c 0.2,-2.6 1,-7.1 2.4,-13.7 0.2,-1.1 0.4,-2 0.4,-2.8 0,-1.5 -0.5,-2.8 -1.6,-3.9 -1.1,-1.1 -2.5,-1.6 -4.1,-1.6 -2.2,-0.1 -4.4,1 -6.7,3.2 -1.2,-1 -2.3,-1.7 -3.3,-2.2 -3.2,-1.6 -6.7,-2.5 -10.3,-2.6 -3.3,-0.1 -7.6,0.9 -13,2.9 -9.1,3.5 -16.9,5.2 -23.3,5.2 -7.4,0 -11.1,2 -11.3,5.9 -0.1,2.8 1.7,4.8 5.2,6.1 2.3,0.9 3.9,1.6 4.6,2.1 0.8,0.8 1.2,2.3 1.1,4.5 l -0.5,17.6 c -6.8,-0.2 -10.2,1.7 -10.3,5.7 -0.1,4 2.6,6.3 8,6.8 l 2,0.2 -0.8,28.5 c -0.1,3.1 -1.1,5 -3,5.8 z"
   id="path6"
   inkscape:connector-curvature="0" />
	<path
   d="m 476,220.3 c -0.7,2.2 -0.4,4.1 1.1,5.7 0.8,0.9 3,1.9 6.6,3.1 l 23.9,7.8 c 3.6,1.2 6,1.6 7.2,1.4 2.1,-0.4 3.5,-1.7 4.2,-4 0.8,-2.3 0,-4.7 -2.4,-7.1 L 514,225 c -1.4,-1.1 -1.9,-2.4 -1.4,-4 l 7.4,-22.7 c 6.4,2.1 11.4,5.8 14.9,11 3.7,5.8 4.6,11.8 2.5,18 -0.7,2.1 -2.6,3.6 -5.6,4.6 -3.1,1 -4.9,2.5 -5.6,4.3 -1.3,4 0.6,6.8 5.8,8.5 l 20.2,6.6 c 2.6,0.9 4.7,1.2 6.1,1 2.8,-0.6 4.7,-2.6 5.9,-6 1.8,-5.7 1.9,-12 0.1,-19.1 -2.1,-8.4 -8.2,-17.9 -18.2,-28.6 12.6,-3 20.7,-9.9 24.2,-20.6 2.5,-7.7 2,-15.3 -1.7,-22.9 -3.6,-7.6 -9.3,-12.6 -17,-15.1 -3.6,-1.2 -8.4,-1.6 -14.3,-1.3 l -3,0.2 c -7.8,0.5 -14.8,-0.1 -20.8,-1.8 -7.2,-1.9 -11.3,-1.1 -12.5,2.4 -0.9,2.6 0.2,5.1 3.3,7.4 1.3,1 2.3,2.7 2.9,5.1 0.2,1 0.4,2.2 0.5,3.4 l -7.3,22.3 c -0.3,-0.1 -0.5,-0.2 -0.7,-0.4 l -0.4,-0.1 c -2,-0.6 -3.8,-0.6 -5.7,0.3 -1.8,0.8 -3,2.1 -3.6,3.8 -1.3,3.9 0.8,7 6.2,9.2 l -6.7,20.4 c -1,2.9 -2.4,4.5 -4.5,4.7 l -3.2,0.3 c -2.9,0.3 -4.9,1.8 -5.8,4.4 z m 57.8,-64.1 c 0.7,-2.2 1.9,-4 3.4,-5.1 1.5,-1.2 3.1,-1.5 4.6,-1 2.7,0.9 4.4,3.1 5.1,6.8 0.7,3.6 0.2,7.9 -1.5,12.9 -3.2,9.9 -8,15.4 -14.5,16.5 -1.8,0.3 -4.1,0.1 -6.8,-0.6 z"
   id="path8"
   inkscape:connector-curvature="0" />
	<path
   d="m 562.2,250.3 c -1.4,1.9 -1.6,3.8 -0.7,5.7 0.5,1.1 2.3,2.8 5.3,5 l 38,27.3 c 0.5,2.9 1.7,5 3.8,6.5 3.5,2.5 6.8,2.2 9.9,-0.8 1.8,-2.5 4.5,-5.4 8.2,-8.7 2.2,-2.1 4.3,-3.9 6.1,-5.5 l 4.7,-3.4 c 0.8,-0.6 1.5,-1.4 2.3,-2.4 2.3,-3.3 1.7,-6.2 -2,-8.8 -2.4,-1.7 -5.4,-1.5 -9,0.6 l -5.6,3.3 c -9.7,5.8 -17.2,6.8 -22.3,3.1 -5,-3.6 -5.2,-8.6 -0.6,-15 l 14.9,-20.8 c 1.6,0.8 2.6,1.3 2.9,1.5 2.3,1.7 2.6,5 0.7,9.8 -1.1,3 -1.7,4.8 -1.7,5.6 -0.1,2.1 0.7,3.7 2.3,4.9 3.1,2.2 5.8,1.7 8,-1.4 1,-1.4 2.2,-4.2 3.5,-8.4 1.3,-4.2 2.6,-7.1 3.8,-8.8 0.7,-1.5 1.3,-2.6 1.7,-3.4 2.1,-3.9 1.8,-6.8 -0.8,-8.7 -3,-2.2 -5.8,-1.7 -8.3,1.5 l -5,-2.6 17,-23.6 c 4.5,1 7.6,2.1 9.4,3.3 3.8,2.8 5.1,6.2 3.9,10.4 -0.5,1.7 -0.9,2.9 -1.3,3.6 -1,2.8 -1.6,4.4 -1.8,4.8 -1.3,2.6 -1.9,4 -1.9,4.2 -1.1,3.4 -0.4,6 1.9,7.6 3.4,2.5 6.6,1.7 9.7,-2.1 l 4.8,-6.2 5.3,-6.1 3.9,-3.6 c 0.8,-0.7 1.2,-1.2 1.4,-1.4 0.9,-1.2 1.2,-2.7 1,-4.3 -0.2,-1.6 -1,-2.9 -2.2,-3.8 -2,-1.4 -4.5,-1.7 -7.4,-0.8 -1.4,-5.1 -4.2,-9.1 -8.2,-12 -2.1,-1.5 -5.2,-2.9 -9.3,-4.2 l -11.4,-3.7 c -1.3,-0.4 -3.6,-1.3 -6.8,-2.6 -3.2,-1.3 -5.7,-2.5 -7.4,-3.4 -3,-1.8 -5.1,-2.9 -6.3,-3.4 -2.6,-1 -4.7,-0.3 -6.3,1.9 -1.6,2.3 -1.3,4.9 0.9,8 0.7,0.8 0.9,2.3 0.7,4.3 0,0.5 -0.2,1.9 -0.6,4.3 -0.1,1 0.1,1.2 0.5,0.6 l -9.8,13.6 -0.9,-0.6 c -4.8,-3.5 -8.5,-3.5 -10.8,-0.2 -2,2.8 -1.8,5.5 0.6,8.2 0.9,1 2.1,2.1 3.6,3.2 L 578,245.5 c -1.8,2.5 -3.7,3.5 -5.7,3.1 l -3.1,-0.7 c -3.1,-0.6 -5.4,0.2 -7,2.4 z"
   id="path10"
   inkscape:connector-curvature="0" />
	<path
   d="m 664.6,276.4 c -7.4,-1.4 -14.1,0.2 -20.3,5 -7.8,6 -11.4,14.1 -10.8,24.3 0.6,8.9 4.1,17.4 10.5,25.6 6.7,8.7 15,14.2 24.9,16.6 10.6,2.6 20.1,0.6 28.7,-6 6.7,-5.2 10.6,-11.8 11.9,-19.9 0.7,-4.8 0,-12.4 -2,-22.6 -1.6,-8.3 -2.5,-13.9 -2.7,-17 -0.2,-3.9 1.1,-6.9 3.7,-8.9 2,-1.6 4.4,-2.1 7,-1.7 2.6,0.4 4.8,1.8 6.6,4.1 3.8,4.9 2.8,10.5 -3,16.7 -4.3,4.8 -5.5,8.5 -3.4,11.2 1.3,1.7 3,2.5 5.2,2.4 1.1,-0.1 3.3,-1.1 6.6,-3 0.3,-0.3 2.1,-1.3 5.2,-3.1 5.6,-3.2 8.7,-4.9 9.3,-5.3 2.3,-1.8 2.4,-4 0.3,-6.7 l -0.3,-0.4 -2.4,-2.6 c -0.1,0 -0.4,-0.3 -0.9,-0.9 -1,-1.3 -1.9,-2.8 -2.8,-4.6 l -1.7,-3.4 c -2.2,-4.5 -4.3,-8 -6.1,-10.4 -4.5,-5.8 -10.2,-9.4 -17.2,-10.9 -7,-1.5 -13.3,0 -19,4.4 -6,4.7 -9.2,10.8 -9.7,18.4 -0.2,2.5 0.1,5.6 0.8,9.3 -5.5,-5.8 -11.6,-9.4 -18.4,-10.6 z m 18.5,39.2 c 1.7,-1.3 3,-3.3 4,-5.9 0.3,8.1 -1.4,13.6 -5.2,16.5 -3.7,2.9 -8,3.8 -12.9,2.9 -4.9,-1 -9,-3.7 -12.4,-8 -3.2,-4.1 -4.8,-8.5 -4.7,-13.2 0,-4.6 1.7,-8.2 4.9,-10.7 2.2,-1.7 4.7,-2.4 7.4,-2.2 2.8,0.2 4.9,1.3 6.5,3.4 1.9,2.4 1.9,4.4 0,5.8 -0.6,0.5 -1.4,0.7 -2.1,0.5 l -1.6,-0.3 c -0.6,-0.2 -1.2,0 -1.7,0.3 -2.8,2.1 -2.6,5.2 0.6,9.3 2,2.6 4.7,4.1 8,4.4 3.4,0.3 6.5,-0.6 9.2,-2.8 z"
   id="path12"
   inkscape:connector-curvature="0" />
	<path
   d="m 719.4,349.7 c -3.7,1.3 -4.8,4.4 -3.2,9.3 l -23.2,8.2 c -2.8,1 -4.9,0.8 -6.4,-0.5 l -2.2,-2.5 c -2.4,-2.2 -4.8,-2.9 -7.1,-2.1 -2.2,0.8 -3.5,2.2 -3.9,4.3 -0.2,1.2 0.3,3.6 1.5,7.1 l 8.4,23.8 c 1.2,3.4 2.3,5.6 3.3,6.5 1.7,1.2 3.6,1.5 5.7,0.8 2.6,-0.9 4,-3 4.2,-6.1 l 0.2,-3.2 c 0.3,-1.9 1.1,-3.1 2.3,-3.6 l 27,-9.5 c 2.6,5.6 4.5,9.2 5.6,10.9 2.6,3.9 5,7.3 7.2,10.2 l -29.5,10.4 c -2.9,1 -5.1,0.8 -6.4,-0.7 l -2.1,-2.3 c -2.1,-2.3 -4.5,-3 -7.1,-2.1 -2.2,0.8 -3.5,2.2 -3.9,4.3 -0.2,1.2 0.3,3.6 1.5,7.1 l 8.4,23.7 c 1.3,3.6 2.4,5.8 3.3,6.5 1.6,1.4 3.5,1.7 5.7,0.9 2.7,-1 4.1,-3 4.2,-6.1 l 0.1,-3.3 c 0.1,-1.6 0.9,-2.7 2.4,-3.5 l 57.2,-20.3 6.5,-2.5 6.9,0.7 5.1,2.9 c 1.4,0.8 2.9,0.9 4.5,0.4 1.5,-0.5 2.5,-1.5 3.2,-2.9 0.7,-1.4 0.8,-2.8 0.3,-4.2 -0.6,-1.6 -2.4,-4 -5.4,-7.1 -3.6,-3.6 -6.5,-7.8 -8.8,-12.4 l -4.8,-9.8 c -1.9,-3.7 -4.3,-5 -7.3,-4 -2.1,0.8 -3.3,2.2 -3.5,4.3 l -0.7,6.4 c -0.2,1.7 -0.9,2.8 -2.1,3.3 -0.1,0.1 -0.9,0.5 -2.4,1 l -13.4,4.7 c -6,-7 -10.4,-14 -13.4,-20.9 l 25.3,-8.9 6.9,0.7 5.1,2.9 c 1.2,0.8 2.7,0.8 4.5,0.2 1.5,-0.5 2.5,-1.5 3.2,-2.9 0.7,-1.4 0.8,-2.8 0.3,-4.3 -0.6,-1.6 -2.4,-4 -5.4,-7.1 -3.6,-3.6 -6.5,-7.8 -8.8,-12.4 l -4.8,-9.8 c -1.9,-3.7 -4.3,-5 -7.3,-4 -2.1,0.8 -3.3,2.2 -3.5,4.3 l -0.7,6.4 c -0.2,1.6 -0.9,2.8 -2,3.5 l -22.5,7.9 c -1.7,-4.2 -4.5,-5.9 -8.2,-4.6 z"
   id="path14"
   inkscape:connector-curvature="0" />
	<path
   d="m 826.2,586.2 c -11.8,-6.4 -23,-13.6 -32.9,-22.7 -7.7,-7.1 -14.8,-14.9 -22.1,-22.4 17,-22.3 35.1,-43.7 53.1,-65.3 2.5,-3 0.1,-6.8 -3.6,-6.2 -47,7.3 -95.2,8.7 -142.7,8.6 -0.3,0 -0.6,0 -0.8,0.1 C 667.3,351.5 561.3,251.7 432,251.7 c -135.8,0 -245.9,110.1 -245.9,245.9 0,10.7 0.7,21.2 2,31.5 -4.5,1.3 -8.9,2.8 -13.3,4.6 -3.1,1.2 -6.1,2.5 -9,4 -1.2,0.6 -1.8,2 -1.8,3.2 -2,38.6 4.6,77.2 0,115.7 -0.3,2.9 3.4,4.5 5.6,3.2 18.9,-11.3 40.6,-16.6 62.6,-18.8 1.2,1.6 2.4,3.3 3.6,4.9 -16.9,0.9 -33.1,6.2 -48.7,12.7 -6.4,2.7 -12.8,5.6 -19.3,8.1 -2,0.8 -6,2.6 -8.7,2.7 1.9,-26.2 -1.6,-52.5 0,-78.8 0.1,-1.9 -1.8,-3.9 -3.7,-3.7 -38.9,4.2 -76.3,17.9 -115.7,18.1 -3.3,0 -4.8,4 -2.6,6.3 16.6,17.8 36.6,31.8 54,48.8 -17,22.5 -34,45.1 -52.1,66.8 -2.1,2.5 -0.7,6.1 2.6,6.3 12.2,0.7 24.6,-0.6 36.7,-2.2 16.4,-2.1 32.7,-4.9 49,-7.9 35.7,-6.6 71.3,-14.3 107.1,-20.4 16.3,-2.7 32.7,-5.2 49.2,-6.1 1.1,-0.1 2,-0.5 2.6,-1.1 40.8,30.1 91.2,47.9 145.8,47.9 65.3,0 124.7,-25.5 168.7,-67 29.4,0.4 58.9,-1.9 86.9,-10.4 3.8,-1.2 8.9,-1.7 10.1,-6 0.9,-3.3 1.2,-6.8 1.6,-10.2 1,-9.9 1.2,-19.9 1.3,-29.9 0.2,-22.3 -0.5,-44.6 -0.6,-66.9 0,-4 0,-8 0.1,-12 0,-1.6 -0.8,-2.7 -1.9,-3.2 -1,-0.6 -2.3,-0.8 -3.7,0 -6.5,3.9 -13.8,6.2 -21.3,7.8 0.4,-1.9 0.7,-3.8 1.1,-5.7 0.6,0.2 1.3,0.2 2.1,0 9.8,-2.7 19.3,-6.3 28.8,-9.8 -0.6,9.1 -0.2,18.4 0.3,27.5 0.8,14.5 1.9,28.9 2.5,43.4 0.1,2.1 1.6,3.7 3.7,3.7 38.1,1.1 77,-0.9 113.7,-12 2.9,-0.6 3.7,-5 0.8,-6.5 z M 291.4,349.3 c 1,-0.5 2,-1 2.9,-1.7 4.9,-3.7 8.2,-9 12,-13.7 0.5,-0.7 0.9,-1.8 0.9,-2.6 0.1,-1.9 -0.1,-3.8 -0.1,-5.7 0,-2.4 0.7,-4.5 2.7,-5.9 5,-3.3 4.7,-3.4 5,-9.5 0,-0.7 0.1,-1.4 0.5,-2 0.6,-0.9 1.8,-1.1 3,-1.1 4.7,0 7.9,4.4 10.7,-0.7 0.6,-1.2 3,-2.1 4.5,-1.9 3.9,0.4 7.1,2.4 9,6 0.5,1.1 1.6,2 2.6,2.6 1.5,1.1 3.2,1.8 4.7,2.7 1.5,0.8 2.8,1 4.3,0 2.5,-1.7 5,-3.4 7.6,-4.8 3.7,-2 7.5,-2.7 11.5,-0.9 1.8,0.8 2.2,2.1 1.8,4 -1,4.4 -3.2,8.1 -6.2,11.3 -1.8,1.8 -3.9,2.9 -6.6,2.5 -0.8,-0.1 -1.7,-0.3 -2.5,-0.4 -0.8,-0.1 -1.6,-0.3 -2.4,-0.5 7.2,5.1 14.8,4.5 22.3,1.6 3.3,-1.2 6.6,-1.8 9.8,-1.5 7.9,0.7 15.6,2 23.5,3 5.8,0.8 11.6,1.5 17.4,2.3 6.1,0.8 12.1,1.9 18.3,2.4 6.1,0.4 11.9,0.4 17.9,1.6 3.6,0.8 6.9,0.5 10.4,0.3 3.7,-0.1 7.7,0.9 11.3,1.6 7.5,1.6 15.1,3.5 22.8,2.5 4.8,-0.6 10.5,-3.1 15.3,-1 4.2,1.9 8.9,4.2 12.9,6.6 2.7,1.7 4.9,3.8 5.5,7.3 0.3,2 1.1,4 1.9,6 1.2,3 2.6,5.9 3.7,8.9 2.9,8.4 3.3,17.3 3.4,26.1 0,3.5 -0.2,7 0.1,10.5 0.6,9.2 2.1,14.6 8.8,20.8 2.6,2.4 5.2,4.7 7.3,7.6 1.6,2 2.7,4.2 3.5,6.6 2.1,6.3 1.7,13.4 -1.4,19.2 -0.1,-2.1 -0.3,-4.1 -0.3,-6.2 0,-0.9 -0.1,-1.8 -0.4,-2.6 -0.6,-1.7 -2.2,-2.8 -3.7,-3.8 -15,-10.9 -17.3,-30.6 -16.7,-47.9 0.4,-11.1 -1.2,-21.9 -5.3,-32.3 -0.3,-0.8 -0.8,-1.5 -1.3,-2.5 -0.5,0.8 -0.7,1.2 -0.8,1.6 -2.6,9.8 -4.5,19.7 -5.1,29.8 -0.4,7.1 -0.1,14.2 -0.1,21.4 0,6.3 1.8,12.1 5.1,17.5 1.3,2 1.4,4 0.7,6.2 -0.6,1.8 -1,3.8 -1.2,5.7 -0.2,3.1 -0.2,6.1 -0.2,9.2 0,6.7 -0.2,13.4 0,20.1 0.1,4.1 1.1,8.1 3.4,11.7 1.1,1.6 0.3,2.4 -1.6,2 -1.5,-0.4 -2.1,0.2 -2,1.5 0,1.2 0,2.4 0.5,3.5 1.3,3.6 0.2,6.3 -3.7,6.7 -3.6,0.4 -7.2,0.1 -10.8,-0.2 -1.7,-0.1 -2.1,-1.3 -1.3,-2.9 0.5,-1 1.3,-1.9 1.7,-2.9 1.4,-3 3.1,-6 3.9,-9.2 2.1,-8.6 1.8,-17.4 1.6,-26.1 0,-1.1 -0.6,-2.1 -1.1,-3.2 -1,-2.4 -2.6,-4.8 -3.1,-7.3 -0.8,-4.2 -2,-8.1 -3.9,-11.9 -0.7,-1.5 -1,-3.2 -1.6,-4.7 -0.4,-1 -0.9,-1.9 -1.5,-3 -2.4,1.5 -1.9,3.4 -1.5,5.2 0.2,1.2 0.8,2.4 0.8,3.7 -0.4,6.1 -1.2,12.1 -1.4,18.2 -0.3,6.5 -0.1,13 0,19.5 0,1.2 0.4,2.4 0.9,3.6 0.9,2 -0.2,3.8 -2.3,3.9 -0.6,0 -1.5,0.4 -1.7,0.8 -0.5,1.1 -0.8,2.4 -0.8,3.7 0,3.1 -1.1,5.3 -4.1,5.6 -3.5,0.4 -7.1,0.1 -10.6,-0.1 -1.4,-0.1 -1.9,-1.1 -0.8,-2.4 0.8,-0.9 1.7,-1.8 2.6,-2.7 3.3,-3.3 6.3,-6.7 6.4,-11.8 0,-0.4 0.2,-0.8 0.2,-1.3 0.6,-5.2 1.4,-10.4 1,-15.6 -0.4,-4.5 -1.8,-7.5 -1.4,-12.1 0.3,-3.2 0.5,-6.3 0.8,-9.5 0.1,-1.3 0.5,-2.6 0.5,-3.9 0,-0.8 -0.8,-3.8 -0.5,-4.3 -0.5,0.8 -0.9,1.6 -1.4,2.4 -1.3,2.3 -2.8,4.7 -4.9,6.3 -0.9,0.7 -2.1,1.2 -2.4,2.4 -0.2,0.6 -0.1,1.3 -0.1,2 0,2.3 -0.5,4.6 -1.4,6.7 -0.5,0.3 -1.3,0 -1.6,-0.5 -0.3,-0.5 -0.3,-1.2 -0.3,-1.9 0,-2.1 0.1,-4.2 0.1,-6.3 -0.9,0.3 -1.4,1.1 -1.6,2 -0.2,0.9 0,1.8 0.1,2.7 0.1,1.3 0.1,2.7 -0.1,4.1 -1.1,0.1 -2.6,0 -3,-1.1 -0.2,-0.3 -0.2,-0.8 -0.2,-1.1 V 444 c 0,-0.8 0,-1.7 -0.5,-2.4 -0.5,-0.7 -1.6,-1 -2.2,-0.4 -0.3,0.4 -0.4,1 -0.4,1.5 0,2 0,3.9 0,5.9 -1,0.2 -2.2,0.3 -2.6,-0.6 -0.1,-0.3 -0.1,-0.5 -0.1,-0.8 V 441 c -0.4,-0.1 -0.8,0 -1.2,0.2 0,2.1 -0.1,4.1 -0.1,6.1 -0.6,0.7 -1.9,0.2 -2.3,-0.7 -0.4,-0.9 -0.2,-1.9 -0.1,-2.9 0,-5.1 -5.6,-5.5 -8.2,-9.3 -1.4,-2.1 -2.1,-3.9 -5.1,-2.4 -11.9,5.6 -25.3,1.9 -37.5,-0.1 -5.1,-0.8 -10.3,-1.4 -14.8,-4.7 -3.2,-2.3 -7.5,-0.3 -8.7,3.4 -2,6.3 -3.7,12.6 -5.5,18.9 -1.4,4.8 -3,9.6 -4.5,14.4 -0.8,2.5 -1.8,4.9 -2.1,7.4 -0.5,3.9 -0.8,7.9 -0.4,11.7 0.4,4.2 0,8.7 2.5,12.6 1,1.5 0.2,3 -1.3,4 -0.5,0.3 -1.4,0.3 -1.9,0 -0.3,-0.2 -0.3,-1.1 -0.3,-1.6 0,-0.5 0.2,-1.1 0.3,-1.6 -0.8,0.3 -1.3,0.7 -1.6,1.2 -1.4,2 -0.2,3.8 0.6,5.5 1.7,3.7 -0.6,8.6 -4.6,9 -4.5,0.4 -9.1,0.2 -13.6,0 -1.8,-0.1 -2.3,-1.2 -1.4,-2.8 0.7,-1.3 1.6,-2.5 2.7,-4.2 -1.8,0 -3.2,0 -4.6,0 -1.5,0 -3,0 -4.4,-0.4 -2,-0.5 -2.4,-1.6 -1.1,-3.2 0.9,-1.2 2,-2.3 3.2,-3.3 1.9,-1.7 4.3,-3 5.1,-5.7 0.6,-2 1.3,-3.9 1.8,-5.9 1.1,-4.5 2.1,-9 2.9,-13.5 0.6,-3.6 0.5,-7.1 -1,-10.6 -1.2,-2.7 -1.5,-5.9 -1.7,-9 -0.4,-4.5 -0.3,-9.1 -0.5,-13.6 0,-0.7 -0.7,-1.7 -1.3,-2 -2.8,-1.2 -5.2,-2.9 -6.6,-5.6 -1.8,-3.3 -3.4,-6.8 -5,-10.1 -2.9,-5.9 -3.9,-10.3 -11,-11.1 -1.1,-0.1 -2.2,-0.2 -3.2,-0.5 -2.2,-0.8 -3.7,-2.9 -4.6,-5 -2.4,-5 -3.2,-10.6 -3.9,-16.1 -0.5,-3.3 -0.3,-8.1 -1.6,-11.1 -1.4,-3.2 -4.8,-5.8 -6.4,-9 -0.3,-0.5 -1.4,-1.1 -2,-1 -3.9,0.8 -7.8,0.3 -11.7,-0.2 -3.9,-0.5 -7.8,-1.1 -11.2,-3.2 -0.7,-0.5 -2,-0.6 -2.8,-0.3 -3.4,1.5 -6.8,1.4 -10.1,0 -1.3,-0.6 -2.7,-1.1 -4.2,-1.4 -3.1,-0.7 -4,-2.1 -3.6,-5.2 0.2,-1.3 0.2,-2.8 -0.1,-4.1 -1,-2.4 -0.7,-3.5 1.4,-4.7 z M 188.6,703.7 C 153.8,710.5 119.1,718 84,722.9 72.5,724.5 60.9,726 49.2,726 c 17.2,-21 33.5,-42.8 49.9,-64.4 1,-1.3 0.5,-3.4 -0.6,-4.5 -15.9,-16 -34.3,-29.2 -50.3,-45 35,-1.8 68.5,-13.1 103.2,-17.4 -0.7,18.1 0.5,36.2 0.8,54.4 0.1,4.8 0,9.5 -0.2,14.3 -0.1,3.2 -1.8,8.7 0.5,11.3 2.1,2.4 6.2,2.1 9,1.6 10.9,-1.9 21.3,-8.2 31.4,-12.3 14.3,-5.7 29.1,-10.4 44.6,-10.9 10.8,13.5 23,25.7 36.3,36.8 -28.6,2.4 -57.1,8.4 -85.2,13.8 z M 692.5,547.4 c -0.2,18.5 0.5,37.1 0.7,55.6 0.1,11.1 0.1,22.2 -0.4,33.4 -0.3,6.9 -0.5,14.2 -2.1,21 -30.6,10.2 -63.3,12.2 -95.3,11.6 -37.9,-0.8 -75.7,-5.4 -113.3,-10.8 -38.8,-5.6 -77.4,-12.2 -116.3,-17.5 -35.6,-4.9 -71.6,-9 -107.5,-8.4 -29.2,0.5 -59.9,4 -86.2,17.6 3.1,-35.5 -2.3,-71.1 -0.8,-106.6 26.9,-12.6 58.4,-15.1 87.7,-16 39.8,-1.2 79.6,1.9 119.2,5.8 42,4.2 83.8,9.6 125.7,14.5 37.2,4.3 74.5,8.6 111.9,9.5 25,0.6 53.1,0.9 76.4,-9.5 0.1,-0.1 0.2,-0.2 0.3,-0.2 z m 22.7,50.2 c -0.6,-13.3 -1.6,-26.5 -2.3,-39.7 -0.6,-11 -1.1,-22.1 0.2,-33 0.3,-2.3 -2.6,-4.3 -4.7,-3.6 -9.5,3.4 -18.9,7 -28.6,10 2,-15.2 2.7,-30.5 2,-45.8 43.6,0 87.6,-1.4 130.8,-7.3 -16.8,20.2 -33.6,40.4 -49.5,61.3 -1.2,1.6 -0.8,3.1 0.3,4.1 0.1,0.1 0.2,0.3 0.3,0.4 8.4,8.5 16.3,17.6 25.2,25.6 7.9,7.1 16.6,13.2 25.8,18.6 -32.3,8.5 -66.2,10.2 -99.5,9.4 z"
   id="path16"
   inkscape:connector-curvature="0" />
	<path
   d="m 408.8,552.7 c 2,-5.8 -10.3,-9.6 -12.6,-4 l -24.9,37.7 -17.6,-44.5 c -3.5,-5.6 -12.3,-2.8 -12.6,2.8 -5.5,22.6 -9.8,55.1 -7.8,77.8 0.1,3.7 6.8,3.3 6.8,0.8 -1.7,-18.5 1.1,-45.3 5.2,-66.5 l 15.3,38.9 c 3.3,6.1 10.6,4 12.6,-0.3 l 19.2,-28.9 c -3.8,20.5 -5.1,38.3 -5,61.4 -0.4,7.2 13.1,6.2 13.2,0 -0.1,-28.2 1.8,-47.9 8.2,-75.2 z"
   id="path18"
   inkscape:connector-curvature="0" />
	<path
   d="m 433,552.7 c 1.9,-4.9 -12.1,-7.2 -13.5,-1.9 -6.2,18.2 -11.8,62.6 -11.6,81.5 0,7.1 13.5,6.4 13.4,1.7 -1.2,-14.7 5.4,-68.8 11.7,-81.3 z"
   id="path20"
   inkscape:connector-curvature="0" />
	<path
   d="m 465,636.3 c -6.9,1.2 -14.9,0.2 -21.9,-1.9 -1.7,-15.6 7,-66.5 12,-79.9 1.6,-4.5 -11.3,-8.9 -13.2,-2.1 -5.6,18 -12.7,62.1 -12,81.3 -0.1,2.2 2.2,3.9 4.8,4.6 9.4,4.1 21.4,6.2 31.5,4.4 4.1,-0.8 3,-7.6 -1.2,-6.4 z"
   id="path22"
   inkscape:connector-curvature="0" />
	<path
   d="m 529.3,566.9 c -10.8,16.3 -21,23.4 -33.2,32.5 l -2.7,2.1 c 2.3,-16.5 5.5,-32.5 8.7,-38.6 1.9,-4.9 -12,-7.2 -13.5,-2 -6.2,18.2 -12.1,62.5 -11.9,81.4 -0.1,7.1 13.4,6.5 13.3,1.7 -0.5,-6.1 0.5,-19.3 2.2,-33.3 1.2,-1 2.5,-1.9 3.7,-2.9 5.9,15.4 12.8,26.7 22.3,40.4 2.7,5.3 11.9,1.2 9.2,-3.7 -10.6,-14.1 -17.2,-26.6 -23.3,-43 10.9,-8.1 20.5,-15.6 30.7,-31.1 1.9,-2.8 -3.7,-6.2 -5.5,-3.5 z"
   id="path24"
   inkscape:connector-curvature="0" />
</g>
</svg>