<?xml version="1.0" encoding="UTF-8" standalone="no"?>
<!DOCTYPE svg PUBLIC "-//W3C//DTD SVG 1.1//EN" "http://www.w3.org/Graphics/SVG/1.1/DTD/svg11.dtd">
<svg width="100%" height="100%" viewBox="0 0 49 23" version="1.1" xmlns="http://www.w3.org/2000/svg" xmlns:xlink="http://www.w3.org/1999/xlink" xml:space="preserve" xmlns:serif="http://www.serif.com/" style="fill-rule:evenodd;clip-rule:evenodd;stroke-linejoin:round;stroke-miterlimit:1.41421;">
    <g transform="matrix(1,0,0,1,-342.169,-17.382)">
        <path d="M370.946,34.399C371.662,34.297 372.388,34.326 373.109,34.364C373.825,34.403 374.541,34.399 375.256,34.433C376.104,34.474 376.937,34.637 377.764,34.803C378.58,34.967 379.397,35.111 380.217,35.24C380.689,35.315 381.16,35.387 381.631,35.457C383.043,35.671 384.466,35.78 385.889,35.853C387.01,35.911 388.168,35.953 389.28,35.769C389.398,35.749 390.622,35.426 390.508,35.226C390.284,34.836 389.955,34.529 389.62,34.24C388.848,33.577 387.961,33.08 387.094,32.561C386.708,32.329 386.29,32.127 385.919,31.866C385.567,31.618 385.25,31.327 384.922,31.045C384.61,30.777 384.27,30.539 383.96,30.269C383.667,30.022 383.374,29.769 383.032,29.597C382.525,29.344 381.943,29.298 381.391,29.208C380.141,29.003 378.891,28.797 377.642,28.564C376.564,28.363 375.479,28.177 374.398,27.989C374.126,27.944 373.851,27.907 373.58,27.848C373.294,27.798 373.012,27.75 372.729,27.701C372.723,27.7 372.719,27.7 372.715,27.698C372.694,27.694 372.693,27.149 372.693,27.114C372.67,26.65 372.654,26.186 372.636,25.72C372.621,25.173 372.596,24.625 372.568,24.078C372.547,23.649 372.529,23.216 372.525,22.786C372.525,22.493 372.512,22.297 372.376,22.036C372.166,21.636 371.758,21.394 371.421,21.111C371.107,20.849 370.891,20.494 370.693,20.143C370.555,19.903 370.473,19.612 370.286,19.404C370.152,19.254 369.99,19.189 369.789,19.181C369.695,19.177 369.604,19.183 369.515,19.151C369.665,19.505 369.82,19.853 369.974,20.203C370.092,20.464 370.239,20.735 370.259,21.027C370.286,21.44 369.972,21.736 369.75,22.056C369.506,22.404 369.319,22.786 369.117,23.159C368.571,24.158 368.09,25.193 367.491,26.162C367.37,26.355 367.247,26.547 367.123,26.741L365.542,26.477C365.434,26.459 365.3,26.262 365.204,26.205C364.894,26.026 364.522,25.966 364.17,25.899C363.207,25.711 362.23,25.57 361.254,25.43C360.356,25.3 359.422,25.226 358.54,25.005C357.557,24.76 356.822,24.001 356.08,23.371C355.417,22.81 354.728,22.278 354.057,21.727C353.905,21.6 353.748,21.477 353.593,21.351C353.814,20.443 353.986,19.505 354.255,18.612C354.309,18.437 354.367,18.221 354.212,18.081C353.956,17.849 353.527,17.842 353.203,17.778C352.636,17.671 352.082,17.52 351.524,17.382L350.185,18.701C350.206,18.682 349.466,18.169 349.39,18.13C348.874,17.865 348.273,17.809 347.704,17.738C347.242,17.681 346.785,17.587 346.324,17.524C346.279,17.517 346.039,17.52 346.009,17.475L347.84,20.144C347.707,20.164 347.558,20.167 347.428,20.205C347.279,20.247 347.202,20.345 347.291,20.487C347.332,20.55 347.588,20.748 347.666,20.712L342.169,23.269C342.64,23.423 343.113,23.563 343.58,23.718C344.116,23.897 344.565,24.095 345.144,24.01C345.646,23.936 346.118,23.739 346.606,23.599C347.604,23.312 348.599,23.018 349.597,22.731L352.436,26.94C352.436,26.94 352.038,27.244 352.035,27.245C351.828,27.401 353.049,28.178 353.082,28.301C353.166,28.62 352.91,28.959 352.947,29.292C352.997,29.748 353.355,29.989 353.72,30.191C354.215,30.47 354.731,30.712 355.256,30.935C356.235,31.347 357.244,31.771 358.265,32.065C358.949,32.264 359.614,32.284 360.316,32.22L361.696,32.697C361.632,32.677 361.345,32.998 361.301,33.041C361.125,33.204 360.937,33.353 360.734,33.484C360.059,33.924 359.291,34.209 358.575,34.579C357.172,35.302 355.752,35.971 354.295,36.573C353.661,36.837 353.024,37.095 352.386,37.356L348.349,38.862C348.306,38.878 347.818,38.262 347.777,38.213C347.559,37.958 347.357,37.695 347.146,37.436C346.963,37.209 346.749,37.019 346.445,37C346.335,36.992 346.222,37.019 346.123,36.955C346.513,37.594 346.905,38.228 347.293,38.866C347.341,38.942 347.391,39.022 347.441,39.101C348.306,39.438 349.187,39.869 350.123,39.962C351.029,40.052 351.928,39.774 352.784,39.524C353.912,39.195 355.055,38.927 356.188,38.627C357.266,38.343 358.341,38.054 359.42,37.782C361.048,37.372 362.665,36.926 364.267,36.426C365.591,36.013 366.912,35.595 368.234,35.184C368.974,34.955 369.697,34.669 370.453,34.491C370.617,34.453 370.782,34.422 370.946,34.399Z" style="fill-rule:nonzero;"/>
    </g>
</svg>
