<?xml version="1.0" encoding="UTF-8" standalone="no"?>
<!DOCTYPE svg PUBLIC "-//W3C//DTD SVG 1.1//EN" "http://www.w3.org/Graphics/SVG/1.1/DTD/svg11.dtd">
<svg width="100%" height="100%" viewBox="0 0 62 28" version="1.1" xmlns="http://www.w3.org/2000/svg" xmlns:xlink="http://www.w3.org/1999/xlink" xml:space="preserve" xmlns:serif="http://www.serif.com/" style="fill-rule:evenodd;clip-rule:evenodd;stroke-linejoin:round;stroke-miterlimit:1.41421;">
    <g transform="matrix(1,0,0,1,-167.988,-295.542)">
        <path d="M201.578,305.858C201.398,305.813 201.277,305.698 201.101,305.594C200.787,305.41 200.432,305.269 200.027,305.203L199.702,305.203C199.702,305.052 199.639,304.835 199.746,304.7C199.953,304.426 200.464,304.352 200.694,304.089C200.98,303.77 201.002,303.332 200.863,302.979C200.773,302.747 200.609,302.535 200.358,302.366C200.237,302.283 199.573,302.051 199.561,301.957C199.561,301.957 198.936,295.638 198.936,295.626C198.92,295.46 198.587,295.58 198.497,295.643C198.51,296.36 198.51,297.077 198.52,297.794C198.532,298.925 198.544,300.057 198.555,301.188C198.56,301.447 198.562,301.702 198.563,301.957C198.098,302.125 197.688,302.323 197.495,302.679C197.275,303.086 197.306,303.559 197.565,303.957C197.806,304.33 198.274,304.521 198.727,304.755C198.859,304.823 198.573,305.199 198.497,305.257C198.319,305.39 198.068,305.455 197.865,305.568C197.774,305.616 197.235,306.143 197.151,306.13C197.151,306.13 187.71,304.795 187.661,304.787C187.428,304.755 187.258,304.866 187.225,305.022C187.168,305.29 188.088,305.389 188.301,305.446C188.991,305.633 189.721,305.784 190.428,305.938C192.032,306.286 193.626,306.666 195.217,307.044C195.582,307.13 195.95,307.212 196.315,307.298C196.159,307.674 195.983,308.046 195.93,308.438C195.854,308.982 195.922,309.528 195.902,310.073C195.885,310.526 195.817,310.975 195.779,311.428C195.747,311.886 195.727,312.16 194.953,312.052C191.651,311.594 188.43,310.928 185.098,310.573C182.118,310.254 179.192,309.717 176.26,309.239C175.262,309.123 174.268,308.915 173.282,308.752C172.409,308.611 171.539,308.469 170.665,308.328C170.108,308.236 169.193,307.915 168.634,308.068C168.221,308.181 168.027,308.516 167.988,308.801C167.988,308.801 183.577,312.008 183.602,312.014C184.586,312.216 185.629,312.342 186.635,312.487C186.999,312.54 187.364,312.587 187.731,312.638L187.592,313.675C187.585,313.726 187.112,313.867 187.018,313.907C186.377,314.194 185.997,314.673 185.841,315.177C185.686,315.683 185.554,316.252 185.769,316.756C185.982,317.26 186.409,317.777 187.126,317.999C187.744,318.189 188.501,318.043 188.987,317.746C189.554,317.399 189.764,316.813 189.805,316.309C189.841,315.818 189.868,315.305 189.665,314.825C189.439,314.29 188.916,313.923 188.288,313.598L188.405,312.766L195.85,314.299C195.831,315.084 195.751,315.871 195.895,316.649C196.135,317.924 196.831,319.131 197.704,320.259C198.428,321.198 199.585,322.078 201.001,322.529C201.382,322.651 201.831,322.751 202.252,322.784C203.323,322.861 204.338,322.546 205.071,322.015C206.243,321.165 206.895,320.045 207.264,318.915C207.384,318.554 207.464,318.184 207.517,317.817C207.701,316.53 207.45,315.28 206.934,314.045C206.918,314.005 206.702,313.527 206.731,313.518L211.79,312.094L212.16,312.924C211.877,313.102 211.555,313.246 211.362,313.48C210.703,314.299 210.989,315.591 211.716,316.338C211.911,316.538 212.168,316.744 212.451,316.884C212.757,317.036 213.278,317.195 213.662,317.195C216.059,317.189 215.817,314.998 215.113,313.969C214.976,313.77 214.797,313.587 214.572,313.43C214.377,313.29 214.175,313.125 213.923,313.035C213.738,312.97 213.345,312.978 213.251,312.83L212.603,311.822C213.441,311.614 214.278,311.405 215.115,311.196C217.383,310.633 219.657,310.083 221.888,309.454C223.782,308.922 225.678,308.306 227.522,307.67C228.029,307.495 228.533,307.32 229.036,307.145C229.084,307.127 229.822,306.85 229.839,306.866C229.839,306.866 229.515,306.58 229.469,306.514C229.235,306.191 228.512,306.195 228.104,306.274C227.419,306.407 226.78,306.67 226.109,306.834C225.593,306.961 225.082,307.096 224.568,307.225C222.051,307.855 219.56,308.53 216.991,309.053C216.024,309.249 215.063,309.458 214.087,309.632C212.831,309.86 211.518,309.907 210.269,310.153C210.061,310.191 209.156,310.374 209.6,310.591C209.515,310.552 208.838,310.751 208.722,310.776C208.43,310.839 208.139,310.901 207.849,310.96C207.201,311.1 206.553,311.238 205.908,311.375C205.734,311.413 205.56,311.45 205.388,311.485C205.353,311.494 204.351,309.623 204.253,309.452C204.129,309.237 202.531,306.958 202.67,306.913C202.67,306.913 210.557,304.535 210.719,304.485C210.647,304.505 210.411,304.25 210.339,304.217C210.012,304.073 209.588,304.214 209.261,304.281C207.412,304.644 205.55,305.015 203.74,305.463C203.124,305.617 202.503,305.792 201.856,305.871C201.748,305.884 201.656,305.877 201.578,305.858Z" style="fill-rule:nonzero;"/>
    </g>
</svg>
