<?xml version="1.0" encoding="UTF-8" standalone="no"?>
<!DOCTYPE svg PUBLIC "-//W3C//DTD SVG 1.1//EN" "http://www.w3.org/Graphics/SVG/1.1/DTD/svg11.dtd">
<svg width="100%" height="100%" viewBox="0 0 69 19" version="1.1" xmlns="http://www.w3.org/2000/svg" xmlns:xlink="http://www.w3.org/1999/xlink" xml:space="preserve" xmlns:serif="http://www.serif.com/" style="fill-rule:evenodd;clip-rule:evenodd;stroke-linejoin:round;stroke-miterlimit:1.41421;">
    <g transform="matrix(1,0,0,1,-85.4665,-300.134)">
        <path d="M100.715,312.779C100.532,312.72 100.33,312.718 100.135,312.722C99.711,312.737 99.297,312.583 98.872,312.607C98.684,312.615 98.442,312.642 98.317,312.8C98.149,313.014 98.288,313.239 98.295,313.47C98.299,313.686 98.238,313.974 97.961,313.863C97.69,313.755 97.715,313.421 97.56,313.22C97.278,312.857 96.909,313.075 96.526,312.976C96.189,312.888 96.202,312.686 96.029,312.428C95.965,312.338 95.786,312.032 95.643,312.076C95.532,312.111 95.559,312.363 95.485,312.441C95.288,312.649 94.913,312.571 94.661,312.548C92.477,312.355 90.286,312.338 88.097,312.193C87.453,312.151 86.805,312.096 86.163,312.025C86.005,312.017 85.424,310.74 85.469,310.582C85.635,310.028 86.144,310.855 86.297,311.042C86.297,311.042 86.561,311.538 86.568,311.55C86.7,311.79 88.184,311.475 88.455,311.454C89.51,311.37 90.575,311.338 91.635,311.285C91.896,311.272 92.159,311.246 92.423,311.246C92.525,311.246 96.891,310.942 96.891,310.942C96.891,310.942 101.202,310.509 101.293,310.5C101.483,310.482 101.819,309.969 102.014,309.855C102.668,309.473 103.424,309.779 104.038,310.094C104.038,310.094 108.267,309.688 108.267,309.587C108.267,309.486 108.2,308.571 108.2,308.571L108.979,308.571L108.811,308.063C108.748,307.818 108.272,307.586 108.083,307.421C107.676,307.071 107.252,306.736 106.895,306.335C105.786,305.097 105.024,302.963 105.966,301.406C106.905,299.852 109.088,299.908 110.532,300.586C112.249,301.4 113.682,302.661 115.083,303.915C116.354,305.052 117.66,306.153 118.94,307.281C119.069,307.394 119.683,308.109 119.879,308.097L122.992,307.894L123.907,304.206L124.991,304.814L124.821,307.726L130.643,307.522C131.418,307.467 132.192,307.412 132.967,307.358C134.178,307.275 135.391,307.173 136.604,307.099C139.46,306.922 142.318,306.434 145.161,306.093C145.422,306.06 145.683,306.03 145.944,305.998L151.937,305.018C152.092,304.991 152.339,304.701 152.473,304.597C152.905,304.259 153.352,303.948 153.797,303.629C154.032,303.461 154.077,303.739 154.032,303.917C153.947,304.246 153.629,304.472 153.417,304.712C153.262,304.882 152.86,305.583 152.647,305.625L145.538,307.048L140.799,307.791L140.867,308.606C140.867,308.606 139.088,308.999 139.04,309.012C139.004,309.02 139.247,309.784 139.092,309.892C138.885,310.034 138.678,309.773 138.561,309.637C138.496,309.559 138.161,309 138.09,309.012C138.09,309.012 134.807,309.476 134.741,309.486C134.748,309.485 134.899,310.343 134.899,310.415C134.908,311.077 134.349,310.66 134.109,310.328C133.977,310.144 133.83,309.969 133.69,309.789L130.711,310.298C130.715,310.297 130.722,311.076 130.702,311.147C130.588,311.54 130.182,311.205 129.989,310.975C129.854,310.81 129.723,310.638 129.593,310.466L127.799,310.737C127.846,311.194 127.968,311.623 127.665,312.019C127.354,312.426 126.825,312.534 126.34,312.496C126.178,312.483 124.672,312.187 124.686,312.059L124.585,312.972L125.092,313.582C125.092,313.421 131.042,312.993 131.633,312.951C132.313,312.899 132.995,312.842 133.668,312.731C134.386,312.615 135.178,312.457 135.877,312.748C135.935,312.771 136.12,312.909 136.161,312.903C136.161,312.903 125.443,314.455 125.397,314.461C125.389,314.461 125.345,314.927 125.325,314.993C125.227,315.318 124.84,315.464 124.799,315.822C124.77,316.092 124.96,316.37 124.842,316.634C124.561,317.258 124.04,316.857 123.909,316.391C123.86,316.227 123.238,316.288 123.129,316.288C123.252,316.29 123.02,316.901 122.961,316.957C122.387,317.494 122.239,316.62 122.077,316.288C121.963,316.05 121.088,316.349 120.879,316.366C120.174,316.424 119.584,316.114 118.993,315.778C118.422,315.455 117.868,315.108 117.307,314.768L114.361,315L114.427,314.665L116.291,314.531C116.291,314.531 115.342,314.327 115.104,314.259C114.87,314.19 113.651,313.852 113.548,313.751C113.447,313.651 113.075,313.142 113.075,313.142C113.033,313.083 112.168,313.186 112.066,313.184C111.822,313.182 111.485,313.115 111.26,313.241C110.775,313.512 110.941,314.379 110.941,314.832C110.941,314.65 111.576,315.124 111.626,315.21C111.7,315.332 111.872,316.406 111.618,316.424C112.09,316.389 112.259,316.723 112.247,317.147C112.239,317.452 112.315,318.008 111.956,318.151C111.614,318.288 111.475,317.897 111.307,317.689C111.231,317.596 111.188,317.541 111.088,317.508C111.06,317.499 110.809,317.523 110.806,317.508C110.887,317.924 110.202,318.535 109.926,317.981C109.926,317.981 109.825,317.779 109.825,317.645C109.825,317.508 109.79,316.966 109.79,316.966C109.317,316.966 109.141,316.424 109.12,316.017C109.106,315.763 108.988,315.374 109.149,315.152C109.521,314.631 109.772,315.422 109.857,315.681C110.145,315.838 110.273,315.902 110.322,315.526C110.358,315.236 110.298,314.953 110.297,314.665C110.297,314.579 109.994,314.553 109.944,314.503C109.815,314.369 109.934,314.155 109.815,314.014C109.733,313.915 109.586,313.932 109.504,313.808C109.353,313.587 109.463,313.248 109.447,313.001C109.28,312.974 109.11,312.936 108.944,312.903L108.911,313.885C108.911,313.885 108.877,313.955 108.743,313.885C108.606,313.819 108.47,313.547 108.368,313.447C108.267,313.346 107.929,312.903 107.929,312.903C107.883,312.846 107.486,312.859 107.413,312.85C106.84,312.79 106.265,312.729 105.694,312.667C105.883,313.457 105.793,314.458 104.84,314.553C103.698,314.671 102.391,314.217 101.51,313.491C101.294,313.314 101.182,313.041 100.947,312.886C100.873,312.835 100.797,312.8 100.715,312.779Z" style="fill-rule:nonzero;"/>
    </g>
</svg>
