<?xml version="1.0" encoding="UTF-8" standalone="no"?>
<!DOCTYPE svg PUBLIC "-//W3C//DTD SVG 1.1//EN" "http://www.w3.org/Graphics/SVG/1.1/DTD/svg11.dtd">
<svg width="100%" height="100%" viewBox="0 0 55 16" version="1.1" xmlns="http://www.w3.org/2000/svg" xmlns:xlink="http://www.w3.org/1999/xlink" xml:space="preserve" xmlns:serif="http://www.serif.com/" style="fill-rule:evenodd;clip-rule:evenodd;stroke-linejoin:round;stroke-miterlimit:1.41421;">
    <g transform="matrix(1,0,0,1,-336.237,-379.982)">
        <path d="M381.392,390.061C382.127,389.957 382.866,389.813 383.605,389.736C384.317,389.662 385.03,389.568 385.727,389.408C385.598,389.803 385.739,389.796 386.085,389.831C386.054,390.141 386.034,390.408 385.825,390.645C385.371,391.162 385.888,391.531 386.416,391.531C386.725,391.531 387.036,391.239 387.115,390.954C387.158,390.8 387.142,390.68 387.039,390.561C386.95,390.456 386.592,390.37 386.551,390.263C386.541,390.229 386.627,389.771 386.612,389.769C386.612,389.769 386.869,389.8 387.1,389.736C387.54,389.61 387.624,389.307 387.622,388.887C387.62,388.873 388.701,388.537 388.803,388.498C389.666,388.188 390.908,387.619 390.395,386.505C390.208,386.098 389.636,385.758 389.294,385.492C388.69,385.025 388.125,384.473 387.375,384.252C385.525,383.708 383.534,383.732 381.628,383.878C380.491,383.964 379.37,384.154 378.239,384.289C377.914,384.328 377.802,383.977 377.529,383.92C377.215,383.858 377.449,384.2 377.508,384.332C377.488,384.286 375.715,384.588 375.576,384.603C374.707,384.7 373.833,384.754 372.961,384.851C372.56,384.897 372.427,384.794 372.145,384.515C371.63,384.009 371.137,383.522 370.444,383.27C369.847,383.055 369.277,382.75 368.709,382.482L367.839,382.482L369.123,383.721L369.055,385.286C368.117,385.428 367.175,385.567 366.235,385.706C364.941,385.901 363.644,386.092 362.348,386.283C361.045,386.478 359.738,386.664 358.435,386.852C356.346,387.153 354.255,387.44 352.172,387.768C351.326,387.902 350.487,388.15 349.625,388.15C348.357,388.15 347.423,387.314 346.541,386.543C344.953,385.156 343.365,383.765 341.792,382.361C341.119,381.764 340.458,381.153 339.777,380.563C338.79,379.704 337.418,380.027 336.237,380.111L337.368,382.091L341.783,390.16C341.386,390.326 340.993,390.502 340.595,390.66C340.131,390.846 339.674,391.061 339.229,391.288C338.86,391.476 338.428,391.618 338.098,391.867C337.899,392.02 337.931,392.22 338.139,392.333C338.427,392.491 338.865,392.44 339.179,392.447C339.851,392.459 340.479,392.531 341.133,392.661C343.037,393.039 344.976,393.188 346.919,393.301C348.986,393.423 351.043,393.646 353.112,393.657C354.848,393.665 356.584,393.539 358.302,393.312C359.524,393.15 360.752,392.812 361.989,392.812C362.164,392.812 363.185,392.812 363.185,392.812L363.381,393.595C362.93,393.686 362.264,393.792 362.267,394.376C362.274,394.786 362.625,395.189 363.033,395.256C363.283,395.296 363.659,395.286 363.867,395.134C364.024,395.021 364.096,394.816 364.264,394.717C364.502,394.576 364.831,394.672 365.09,394.544C365.51,394.331 365.685,393.597 365.134,393.493C364.793,393.427 364.328,393.631 364.014,393.461C363.826,393.36 363.844,393.188 363.918,392.991C364.068,392.577 364.415,392.693 364.771,392.64C365.001,392.609 365.218,392.551 365.452,392.577C365.727,392.602 365.988,392.705 366.268,392.705C366.806,392.705 367.344,392.737 367.884,392.77C367.915,393.062 367.94,393.352 367.971,393.639C367.764,393.577 367.561,393.56 367.349,393.61C366.832,393.73 366.625,394.618 367.193,394.834C367.556,394.973 368.209,394.96 368.58,394.836C368.756,394.778 368.913,394.551 368.883,394.366C369.332,394.318 369.649,394.448 369.963,394.037C370.103,393.856 370.207,393.668 370.153,393.434C370.081,393.113 369.594,393.049 369.326,393.1C369.147,393.137 368.935,393.387 368.749,393.356C368.394,393.293 368.645,392.806 368.829,392.717C369.256,392.52 369.742,392.527 370.182,392.365C370.614,392.207 370.881,391.795 371.31,391.647C371.91,391.437 372.627,391.543 373.255,391.382C373.771,391.246 374.353,391.054 374.868,391.293C375.226,391.459 375.473,391.795 375.85,391.934C376.288,392.089 376.769,391.993 377.219,391.974C378.428,391.921 379.884,392.082 380.822,391.143C381.1,390.864 381.294,390.441 381.392,390.061Z" style="fill-rule:nonzero;"/>
    </g>
</svg>
