<?xml version="1.0" encoding="UTF-8" standalone="no"?>
<!DOCTYPE svg PUBLIC "-//W3C//DTD SVG 1.1//EN" "http://www.w3.org/Graphics/SVG/1.1/DTD/svg11.dtd">
<svg width="100%" height="100%" viewBox="0 0 3609 2563" version="1.1" xmlns="http://www.w3.org/2000/svg" xmlns:xlink="http://www.w3.org/1999/xlink" xml:space="preserve" xmlns:serif="http://www.serif.com/" style="fill-rule:evenodd;clip-rule:evenodd;stroke-linejoin:round;stroke-miterlimit:1.41421;">
    <g transform="matrix(1,0,0,1,-5727.68,-3504.08)">
        <g transform="matrix(4.16667,0,0,4.16667,0,0)">
            <path d="M2232.92,1184.07C2228.71,1180.31 2223.33,1178.24 2217.76,1178.24C2203.78,1178.24 2196.06,1189.23 2186.3,1203.14C2176.56,1217.01 2161.85,1237.98 2147.58,1237.98C2142.73,1237.98 2138.8,1236.16 2134.84,1232.08C2124.75,1221.72 2108.38,1189.99 2110.19,1093.66C2124.29,1076.42 2150.92,1037.38 2175.51,965.44C2189.79,923.65 2189.41,891.801 2174.36,870.761C2164.16,856.491 2147.05,847.98 2128.58,847.98C2110.74,847.98 2077.04,857.471 2051.75,921.091C2033.32,967.44 2023.58,1032.41 2023.58,1108.98C2023.58,1116.42 2023.73,1123.65 2023.99,1130.69C2018.16,1131.12 2013.79,1133.79 2010.58,1136.75C2009.98,1124.46 2010.45,1107.7 2010.82,1095.07L2010.85,1093.77C2011.3,1078.28 2012.3,1068.94 2012.96,1062.75C2013.83,1054.59 2014.53,1047.97 2011.6,1040.58C2013.07,1039.16 2014.5,1037.51 2015.86,1035.6C2026.74,1020.37 2022.56,999.511 2005.7,984.871C1996.59,976.96 1985.96,972.61 1975.78,972.61C1965.38,972.61 1956.1,977.25 1950.31,985.351C1943.68,994.63 1942.4,1008.34 1948.47,1021.02C1947.72,1021.63 1947.04,1022.24 1946.44,1022.83C1940,1029.28 1937.1,1039.21 1935.37,1060.78C1934.31,1073.95 1933.73,1091.31 1933.58,1113.85C1933.55,1119.92 1933.68,1125.69 1933.97,1131.19C1929.12,1132.06 1925.16,1134.32 1921.92,1136.98C1920.78,1130.85 1919.95,1123.11 1919.95,1114.92C1919.95,1091.78 1923.97,1071.22 1927.2,1054.7C1931.17,1034.43 1933.56,1022.19 1926.98,1011.49C1922.75,1004.61 1915.83,999.601 1907.08,993.261C1897.98,986.661 1886.66,978.46 1879.64,968.471C1874.59,961.291 1871.42,953.141 1868.61,945.951C1863.96,934.02 1858.69,920.491 1843.8,917.101C1841.81,916.65 1839.78,916.42 1837.76,916.42C1823.82,916.42 1815.3,926.48 1809.66,933.141C1807.86,935.261 1805.83,937.661 1804.52,938.681C1801.32,941.161 1797.9,943.311 1794.88,945.21C1787.17,950.051 1776.61,956.69 1776.61,969.98C1776.61,982.63 1785.51,1001.48 1802.24,1016.98C1784.22,1017.06 1771.82,1023.11 1763.47,1030.21C1751.71,1021.86 1734.2,1016.87 1723.53,1016.87C1709.77,1016.87 1703.02,1023.91 1700.22,1028.1C1692.94,1039.02 1692.28,1057.55 1692.41,1139.12C1692.41,1141.27 1692.42,1143.44 1692.42,1145.64C1688.12,1143.43 1684.16,1142.89 1681.33,1142.89C1678.75,1142.89 1676.43,1143.31 1674.41,1143.94C1672.61,1140.14 1670.43,1134.17 1668.61,1125.21C1677.15,1121.47 1684.88,1115.89 1688.66,1108.33C1692.72,1100.21 1691.91,1090.73 1686.54,1083.58L1686.16,1083.08C1681.63,1077.43 1675.07,1074.31 1667.68,1074.31C1666.75,1074.31 1665.87,1074.36 1665,1074.44C1665.03,1072.99 1665.07,1071.51 1665.11,1069.99C1665.33,1062.77 1665.58,1055.74 1665.83,1048.92C1667.91,990.701 1669.41,948.63 1646.68,925.061C1636.52,914.541 1622.78,909.201 1605.84,909.201C1588.97,909.201 1573.78,916.701 1560.7,931.5C1551.02,942.431 1542.47,957.391 1534.55,977.21C1534.01,978.561 1533.49,979.951 1532.97,981.321C1520.31,970.331 1508.85,964.341 1497.16,964.341C1490.79,964.341 1484.72,966.23 1479.6,969.821C1476.97,971.661 1468.95,977.27 1462.66,1000.09C1460.48,1007.99 1457.22,1023.12 1459.84,1035.61C1462.35,1047.6 1470.26,1056.04 1480.98,1058.19C1490.42,1060.08 1499.69,1063 1508.71,1066.91C1506.72,1075.59 1504.81,1084.19 1502.96,1092.53C1498.19,1114.1 1493.68,1134.47 1489.05,1150.45C1486.18,1160.37 1483.78,1166.71 1481.97,1170.71C1480.66,1167.88 1479.1,1163.31 1477.79,1156.06C1475.51,1143.36 1475.07,1128.56 1474.71,1116.67C1474.16,1097.95 1473.91,1089.41 1466.7,1082.2C1463.43,1078.94 1457.6,1075.05 1448.35,1075.05C1434.72,1075.05 1419.35,1083.87 1413.37,1087.67C1398.11,1097.36 1389.38,1107.92 1387.41,1119.06C1384.97,1132.9 1386.93,1183.82 1414.62,1216.82C1430.5,1235.75 1452.41,1245.75 1477.97,1245.75C1495.44,1245.75 1511.05,1238.28 1524.38,1223.53C1534.39,1212.45 1543.08,1197.29 1550.95,1177.19C1559.16,1156.2 1565.71,1131.6 1571.38,1106.77C1572.04,1107.18 1572.71,1107.59 1573.39,1107.99C1571.06,1153.15 1575.15,1195.6 1597.23,1220.9C1609.97,1235.49 1627.82,1243.2 1648.86,1243.2C1666.07,1243.2 1681.38,1233.33 1692.12,1215.99C1691.9,1231.87 1691.55,1248.06 1690.98,1264.08C1666.66,1277.2 1647.07,1292.18 1632.62,1308.73C1613.35,1330.79 1603.58,1355.1 1603.58,1380.98C1603.58,1401.71 1609.47,1419.59 1620.6,1432.68C1629.63,1443.31 1646.68,1455.98 1676.58,1455.98C1703.27,1455.98 1739.35,1443.85 1759.69,1386.08C1767.7,1363.35 1772.72,1335.09 1774.66,1301.94C1794.78,1298.64 1817.22,1296.98 1841.58,1296.98C2011.34,1296.98 2042.66,1371.42 2052.95,1395.89C2054.74,1400.13 2056.03,1403.2 2057.94,1406.07C2060.84,1410.41 2067.71,1417.69 2081.24,1417.69L2081.25,1417.69C2097.95,1417.69 2117.46,1406.02 2125.07,1401C2144.65,1388.09 2154.58,1374.96 2154.58,1361.98C2154.58,1350.25 2144.95,1329.49 2128.18,1307.95C2133.18,1308.63 2138.32,1308.98 2143.58,1308.98C2164.78,1308.98 2185.7,1298.31 2204.08,1278.12C2222.32,1258.08 2231.91,1235.97 2235.19,1227.4C2240.24,1214.18 2245.49,1195.32 2232.92,1184.07Z" style="fill:rgb(4,9,13);fill-rule:nonzero;"/>
        </g>
        <g transform="matrix(4.16667,0,0,4.16667,0,0)">
            <path d="M2220.92,1177.07C2216.71,1173.31 2211.33,1171.24 2205.76,1171.24C2191.78,1171.24 2184.06,1182.23 2174.3,1196.14C2164.56,1210.01 2149.85,1230.98 2135.58,1230.98C2130.73,1230.98 2126.8,1229.16 2122.84,1225.08C2112.75,1214.72 2096.38,1182.99 2098.19,1086.66C2112.29,1069.42 2138.92,1030.38 2163.51,958.44C2177.79,916.65 2177.41,884.801 2162.36,863.761C2152.16,849.491 2135.05,840.98 2116.58,840.98C2098.74,840.98 2065.04,850.471 2039.75,914.091C2021.32,960.44 2011.58,1025.41 2011.58,1101.98C2011.58,1109.42 2011.73,1116.65 2011.99,1123.69C2006.16,1124.12 2001.79,1126.79 1998.58,1129.75C1997.98,1117.46 1998.45,1100.7 1998.82,1088.07L1998.85,1086.77C1999.3,1071.28 2000.3,1061.94 2000.96,1055.75C2001.83,1047.59 2002.53,1040.97 1999.6,1033.58C2001.07,1032.16 2002.5,1030.51 2003.86,1028.6C2014.74,1013.37 2010.56,992.511 1993.7,977.871C1984.59,969.96 1973.96,965.61 1963.78,965.61C1953.38,965.61 1944.1,970.25 1938.31,978.351C1931.68,987.63 1930.4,1001.34 1936.47,1014.02C1935.72,1014.63 1935.04,1015.24 1934.44,1015.83C1928,1022.28 1925.1,1032.21 1923.37,1053.78C1922.31,1066.95 1921.73,1084.31 1921.58,1106.85C1921.55,1112.92 1921.68,1118.69 1921.97,1124.19C1917.12,1125.06 1913.16,1127.32 1909.92,1129.98C1908.78,1123.85 1907.95,1116.11 1907.95,1107.92C1907.95,1084.78 1911.97,1064.22 1915.2,1047.7C1919.17,1027.43 1921.56,1015.19 1914.98,1004.49C1910.75,997.61 1903.83,992.601 1895.08,986.261C1885.98,979.661 1874.66,971.46 1867.64,961.471C1862.59,954.291 1859.42,946.141 1856.61,938.951C1851.96,927.02 1846.69,913.491 1831.8,910.101C1829.81,909.65 1827.78,909.42 1825.76,909.42C1811.82,909.42 1803.3,919.48 1797.66,926.141C1795.86,928.261 1793.83,930.661 1792.52,931.681C1789.32,934.161 1785.9,936.311 1782.88,938.21C1775.17,943.051 1764.61,949.69 1764.61,962.98C1764.61,975.63 1773.51,994.48 1790.24,1009.98C1772.22,1010.06 1759.82,1016.11 1751.47,1023.21C1739.71,1014.86 1722.2,1009.87 1711.53,1009.87C1697.77,1009.87 1691.02,1016.91 1688.22,1021.1C1680.94,1032.02 1680.28,1050.55 1680.41,1132.12C1680.41,1134.27 1680.42,1136.44 1680.42,1138.64C1676.12,1136.43 1672.16,1135.89 1669.33,1135.89C1666.75,1135.89 1664.43,1136.31 1662.41,1136.94C1660.61,1133.14 1658.43,1127.17 1656.61,1118.21C1665.15,1114.47 1672.88,1108.89 1676.66,1101.33C1680.72,1093.21 1679.91,1083.73 1674.54,1076.58L1674.16,1076.08C1669.63,1070.43 1663.07,1067.31 1655.68,1067.31C1654.75,1067.31 1653.87,1067.36 1653,1067.44C1653.03,1065.99 1653.07,1064.51 1653.11,1062.99C1653.33,1055.77 1653.58,1048.74 1653.83,1041.92C1655.91,983.701 1657.41,941.63 1634.68,918.061C1624.52,907.541 1610.78,902.201 1593.84,902.201C1576.97,902.201 1561.78,909.701 1548.7,924.5C1539.02,935.431 1530.47,950.391 1522.55,970.21C1522.01,971.561 1521.49,972.951 1520.97,974.321C1508.31,963.331 1496.85,957.341 1485.16,957.341C1478.79,957.341 1472.72,959.23 1467.6,962.821C1464.97,964.661 1456.95,970.27 1450.66,993.091C1448.48,1000.99 1445.22,1016.12 1447.84,1028.61C1450.35,1040.6 1458.26,1049.04 1468.98,1051.19C1478.42,1053.08 1487.69,1056 1496.71,1059.91C1494.72,1068.59 1492.81,1077.19 1490.96,1085.53C1486.19,1107.1 1481.68,1127.47 1477.05,1143.45C1474.18,1153.37 1471.78,1159.71 1469.97,1163.71C1468.66,1160.88 1467.1,1156.31 1465.79,1149.06C1463.51,1136.36 1463.07,1121.56 1462.71,1109.67C1462.16,1090.95 1461.91,1082.41 1454.7,1075.2C1451.43,1071.94 1445.6,1068.05 1436.35,1068.05C1422.72,1068.05 1407.35,1076.87 1401.37,1080.67C1386.11,1090.36 1377.38,1100.92 1375.41,1112.06C1372.97,1125.9 1374.93,1176.82 1402.62,1209.82C1418.5,1228.75 1440.41,1238.75 1465.97,1238.75C1483.44,1238.75 1499.05,1231.28 1512.38,1216.53C1522.39,1205.45 1531.08,1190.29 1538.95,1170.19C1547.16,1149.2 1553.71,1124.6 1559.38,1099.77C1560.04,1100.18 1560.71,1100.59 1561.39,1100.99C1559.06,1146.15 1563.15,1188.6 1585.23,1213.9C1597.97,1228.49 1615.82,1236.2 1636.86,1236.2C1654.07,1236.2 1669.38,1226.33 1680.12,1208.99C1679.9,1224.87 1679.55,1241.06 1678.98,1257.08C1654.66,1270.2 1635.07,1285.18 1620.62,1301.73C1601.35,1323.79 1591.58,1348.1 1591.58,1373.98C1591.58,1394.71 1597.47,1412.59 1608.6,1425.68C1617.63,1436.31 1634.68,1448.98 1664.58,1448.98C1691.27,1448.98 1727.35,1436.85 1747.69,1379.08C1755.7,1356.35 1760.72,1328.09 1762.66,1294.94C1782.78,1291.64 1805.22,1289.98 1829.58,1289.98C1999.34,1289.98 2030.66,1364.42 2040.95,1388.89C2042.74,1393.13 2044.03,1396.2 2045.94,1399.07C2048.84,1403.41 2055.71,1410.69 2069.24,1410.69L2069.25,1410.69C2085.95,1410.69 2105.46,1399.02 2113.07,1394C2132.65,1381.09 2142.58,1367.96 2142.58,1354.98C2142.58,1343.25 2132.95,1322.49 2116.18,1300.95C2121.18,1301.63 2126.32,1301.98 2131.58,1301.98C2152.78,1301.98 2173.7,1291.31 2192.08,1271.12C2210.32,1251.08 2219.91,1228.97 2223.19,1220.4C2228.24,1207.18 2233.49,1188.32 2220.92,1177.07Z" style="fill:rgb(238,150,122);fill-rule:nonzero;"/>
        </g>
        <g transform="matrix(4.16667,0,0,4.16667,0,0)">
            <path d="M1593.84,922.201C1515.27,922.201 1511.42,1187.94 1472.91,1187.94C1434.39,1187.94 1446.33,1095.12 1440.56,1089.35C1434.01,1082.8 1397.42,1102.44 1395.11,1115.54C1392.8,1128.63 1396.65,1218.75 1465.98,1218.75C1550.7,1218.75 1545.31,943.768 1589.99,943.768C1620.86,943.768 1524.86,1216.2 1636.86,1216.2C1666.9,1216.2 1678.57,1161.75 1672.41,1157.13C1666.24,1152.51 1665.47,1162.52 1655.46,1159.44C1650.74,1157.99 1630.81,1138.65 1633.12,1062.39C1635.62,979.832 1642.37,922.201 1593.84,922.201Z" style="fill:white;fill-rule:nonzero;"/>
        </g>
        <g transform="matrix(4.16667,0,0,4.16667,0,0)">
            <path d="M1827.36,929.601C1819.07,927.713 1813.21,940.931 1804.78,947.477C1794.6,955.386 1784.62,959.311 1784.62,962.977C1784.62,970.977 1794.52,991.13 1815.78,1004.48C1837.99,1018.41 1874.91,1019.14 1876.62,1024.31C1882.12,1040.98 1851.65,1071.01 1849.95,1112.31C1847.95,1160.98 1874.1,1186.98 1893.62,1186.98C1917.34,1186.98 1933.59,1147.46 1928.59,1144.46C1921.13,1139.99 1915.28,1159.64 1906.62,1159.64C1891.95,1159.64 1887.95,1125.92 1887.95,1107.92C1887.95,1060.92 1903.28,1023.64 1897.95,1014.98C1892.62,1006.31 1866.28,994.31 1851.28,972.977C1837.56,953.456 1835.93,931.552 1827.36,929.601Z" style="fill:white;fill-rule:nonzero;"/>
        </g>
        <g transform="matrix(4.16667,0,0,4.16667,0,0)">
            <path d="M1948.59,1029.98C1943.59,1034.98 1941.84,1067.04 1941.59,1106.98C1941.27,1156.12 1952.56,1186.98 1979.59,1186.98C2003.59,1186.98 2019.59,1147.98 2014.59,1143.98C2010.6,1140.79 2006.59,1159.98 1991.59,1159.98C1976.59,1159.98 1977.74,1125.37 1978.86,1086.2C1979.86,1051.2 1983.59,1045.98 1980.59,1039.98C1975.75,1030.3 1954.59,1023.98 1948.59,1029.98Z" style="fill:white;fill-rule:nonzero;"/>
        </g>
        <g transform="matrix(4.16667,0,0,4.16667,0,0)">
            <path d="M1954.59,989.977C1951.3,994.58 1951.04,1006.1 1962.59,1014.98C1975.59,1024.98 1982.65,1023.88 1987.59,1016.98C1992.59,1009.98 1988.61,999.946 1980.59,992.977C1971.04,984.685 1959.59,982.977 1954.59,989.977Z" style="fill:white;fill-rule:nonzero;"/>
        </g>
        <g transform="matrix(4.16667,0,0,4.16667,0,0)">
            <path d="M2116.59,860.977C2074.59,860.977 2031.59,941.977 2031.59,1101.98C2031.59,1253.98 2087.59,1281.98 2131.59,1281.98C2180.59,1281.98 2215.65,1199.19 2207.59,1191.98C2198.09,1183.48 2175.59,1250.98 2135.59,1250.98C2103.59,1250.98 2073.69,1211.89 2078.59,1071.98C2083.59,928.977 2111.09,887.977 2122.59,887.977C2157.09,887.977 2100.59,1021.98 2073.59,1050.98L2074.59,1082.98C2074.59,1082.98 2111.16,1049.79 2144.59,951.977C2171.59,872.977 2133.59,860.977 2116.59,860.977Z" style="fill:white;fill-rule:nonzero;"/>
        </g>
        <g transform="matrix(4.16667,0,0,4.16667,0,0)">
            <path d="M1658.59,1411.98C1622.09,1411.98 1607.98,1333.9 1697.26,1293.18C1692.96,1360.78 1685.09,1411.98 1658.59,1411.98ZM1784.86,1053.2C1795.86,1053.2 1805.59,1058.98 1805.59,1099.98C1805.59,1137.2 1800.86,1156.2 1782.86,1156.2C1770.86,1156.2 1762.86,1145.2 1762.86,1107.2C1762.86,1069.2 1770.86,1053.2 1784.86,1053.2ZM1904.59,1225.98C1850.51,1225.98 1793.1,1234.84 1743.57,1251.3C1743.36,1217.13 1741.84,1167.98 1745.59,1167.98C1752.59,1167.98 1752.86,1186.2 1783.86,1186.2C1811.86,1186.2 1834.59,1149.98 1834.59,1095.98C1834.59,1041.98 1813.59,1029.98 1790.59,1029.98C1749.59,1029.98 1751.58,1070.83 1748.59,1070.98C1743.86,1071.2 1749.14,1051.42 1743.86,1043.2C1739.03,1035.67 1709.57,1025.14 1704.86,1032.2C1696.71,1044.42 1703.21,1160.35 1698.51,1269.53C1646.89,1294.83 1611.59,1330.36 1611.59,1373.98C1611.59,1403.98 1626.59,1428.98 1664.59,1428.98C1732.26,1428.98 1741.97,1328.46 1743.36,1278.26C1767.27,1273.04 1795.79,1269.98 1829.59,1269.98C2034.59,1269.98 2054.59,1375.98 2062.59,1387.98C2070.59,1399.98 2122.59,1369.12 2122.59,1354.98C2122.59,1338.98 2063.59,1225.98 1904.59,1225.98Z" style="fill:white;fill-rule:nonzero;"/>
        </g>
        <g transform="matrix(4.16667,0,0,4.16667,0,0)">
            <path d="M1890.88,1038.83C1889.58,1043.73 1888.37,1048.59 1887.26,1053.47C1886.14,1058.34 1885.1,1063.21 1884.21,1068.09C1882.42,1077.84 1881.06,1087.63 1880.65,1097.41C1880.42,1102.3 1880.39,1107.2 1880.72,1112.06C1881.05,1116.91 1881.57,1121.76 1882.59,1126.52C1883.6,1131.27 1884.95,1135.97 1886.77,1140.54C1888.63,1145.08 1890.97,1149.46 1893.66,1153.76C1889.9,1150.37 1886.64,1146.36 1883.92,1141.97C1881.26,1137.54 1879.22,1132.74 1877.65,1127.79L1876.58,1124.05C1876.29,1122.79 1876.03,1121.52 1875.76,1120.25C1875.46,1118.98 1875.29,1117.7 1875.09,1116.42C1874.9,1115.14 1874.7,1113.86 1874.59,1112.57C1874.47,1111.29 1874.33,1110 1874.25,1108.71L1874.07,1104.84C1874.03,1103.55 1874.07,1102.27 1874.06,1100.98C1874.05,1099.69 1874.11,1098.41 1874.17,1097.12C1874.61,1086.83 1876.49,1076.71 1879.26,1066.92C1880.67,1062.02 1882.32,1057.21 1884.23,1052.51C1886.17,1047.82 1888.28,1043.2 1890.88,1038.83Z" style="fill:rgb(238,150,122);fill-rule:nonzero;"/>
        </g>
        <g transform="matrix(4.16667,0,0,4.16667,0,0)">
            <path d="M1828.78,948.931C1829.82,952.857 1831.15,956.661 1832.7,960.361C1834.22,964.07 1835.96,967.669 1837.89,971.155C1839.85,974.622 1841.92,978.018 1844.26,981.225C1846.56,984.457 1849.04,987.56 1851.75,990.446C1857.07,996.321 1863.18,1001.46 1869.75,1005.95C1876.36,1010.42 1883.49,1014.15 1890.88,1017.52C1882.98,1015.61 1875.31,1012.54 1868.21,1008.4L1865.57,1006.81C1864.69,1006.28 1863.87,1005.66 1863.01,1005.09C1862.16,1004.51 1861.31,1003.92 1860.5,1003.29C1859.68,1002.67 1858.84,1002.06 1858.04,1001.42C1854.83,998.819 1851.84,995.963 1849.02,992.948C1843.44,986.857 1838.8,979.913 1835.32,972.463C1833.56,968.749 1832.13,964.885 1830.99,960.956C1829.89,957.018 1829.01,952.999 1828.78,948.931Z" style="fill:rgb(238,150,122);fill-rule:nonzero;"/>
        </g>
        <g transform="matrix(4.16667,0,0,4.16667,0,0)">
            <path d="M1627.36,964.701C1626.41,983.558 1625.54,1002.34 1624.98,1021.11C1624.49,1039.88 1624.27,1058.63 1624.87,1077.33C1625.51,1096 1626.83,1114.67 1630.31,1132.91C1631.18,1137.47 1632.26,1141.98 1633.53,1146.42C1634.79,1150.87 1636.31,1155.24 1638.19,1159.44C1640.04,1163.66 1642.27,1167.72 1645.08,1171.38C1647.88,1175.03 1651.3,1178.27 1655.36,1180.7C1653.19,1179.79 1651.04,1178.72 1649.09,1177.32C1647.1,1175.98 1645.33,1174.34 1643.61,1172.65C1640.22,1169.2 1637.51,1165.16 1635.12,1160.98C1630.46,1152.53 1627.3,1143.37 1624.98,1134.11C1622.58,1124.85 1621.07,1115.41 1619.93,1105.97C1619.38,1101.24 1618.96,1096.51 1618.6,1091.77C1618.29,1087.03 1618.05,1082.29 1617.88,1077.55C1617.29,1058.59 1617.93,1039.64 1619.55,1020.81C1621.14,1001.98 1623.53,983.207 1627.36,964.701Z" style="fill:rgb(238,150,122);fill-rule:nonzero;"/>
        </g>
        <g transform="matrix(4.16667,0,0,4.16667,0,0)">
            <path d="M1479.07,979.2C1471.37,984.592 1459.56,1028.91 1472.91,1031.58C1484.46,1033.89 1505.26,1039.28 1529.14,1054.69C1546.99,1066.21 1589.99,1103.98 1630.81,1103.98C1643.91,1103.98 1663.16,1094.74 1658.54,1088.58C1655.46,1084.73 1649.19,1090.89 1630.81,1090.89C1616.41,1090.89 1589.22,1083.96 1558.41,1046.21C1530.54,1012.08 1495.55,967.665 1479.07,979.2Z" style="fill:white;fill-rule:nonzero;"/>
        </g>
        <g transform="matrix(4.16667,0,0,4.16667,0,0)">
            <path d="M1489.36,985.701C1492.19,987.018 1494.85,988.667 1497.46,990.379C1500.07,992.102 1502.59,993.957 1505.06,995.871C1506.28,996.846 1507.51,997.816 1508.7,998.832C1509.9,999.833 1511.1,1000.84 1512.26,1001.88C1514.61,1003.95 1516.86,1006.12 1519.11,1008.29C1523.62,1012.63 1527.79,1017.3 1531.9,1021.99C1535.94,1026.71 1539.91,1031.48 1543.87,1036.22C1551.79,1045.72 1559.76,1055.08 1568.51,1063.69C1577.26,1072.28 1586.89,1079.99 1597.36,1086.7C1585.92,1081.78 1575.35,1074.75 1565.91,1066.51C1556.4,1058.31 1548.04,1048.94 1540.05,1039.43C1536.05,1034.67 1532.15,1029.86 1528.22,1025.08C1524.31,1020.32 1520.36,1015.61 1516.24,1011.05C1514.18,1008.77 1512.08,1006.51 1509.93,1004.31C1508.89,1003.18 1507.8,1002.09 1506.71,1001C1505.64,999.901 1504.52,998.843 1503.41,997.777C1501.21,995.623 1498.93,993.542 1496.6,991.519C1495.44,990.495 1494.26,989.501 1493.05,988.534C1491.86,987.541 1490.63,986.608 1489.36,985.701Z" style="fill:rgb(238,150,122);fill-rule:nonzero;"/>
        </g>
        <g transform="matrix(4.16667,0,0,4.16667,0,0)">
            <path d="M1725.36,1051.7C1729.11,1082.23 1731.37,1112.92 1732.82,1143.65C1733.2,1151.33 1733.52,1159.01 1733.72,1166.7C1733.94,1174.39 1734.12,1182.08 1734.24,1189.78C1734.45,1205.17 1734.34,1220.56 1734.02,1235.96C1733.58,1251.35 1732.88,1266.75 1731.74,1282.13C1730.47,1297.49 1728.97,1312.86 1726.49,1328.12C1724.09,1343.37 1720.89,1358.56 1716.05,1373.3C1713.54,1380.63 1710.66,1387.88 1706.82,1394.65L1705.3,1397.14L1704.54,1398.38L1703.7,1399.58C1703.14,1400.37 1702.6,1401.18 1702.01,1401.96L1700.16,1404.21C1697.59,1407.11 1694.69,1409.75 1691.36,1411.7C1697.62,1407.14 1701.78,1400.52 1705.1,1393.75C1708.35,1386.88 1710.78,1379.65 1712.76,1372.3C1714.77,1364.96 1716.36,1357.5 1717.69,1349.99C1719.02,1342.48 1720.17,1334.94 1721.08,1327.35C1721.54,1323.56 1721.97,1319.77 1722.35,1315.96C1722.75,1312.17 1723.12,1308.36 1723.46,1304.55C1724.12,1296.94 1724.68,1289.31 1725.12,1281.67C1726.06,1266.4 1726.7,1251.1 1727.02,1235.78C1727.47,1220.47 1727.61,1205.15 1727.63,1189.82C1727.74,1174.48 1727.52,1159.15 1727.38,1143.81C1726.97,1113.13 1726.22,1082.44 1725.36,1051.7Z" style="fill:rgb(238,150,122);fill-rule:nonzero;"/>
        </g>
        <g transform="matrix(4.16667,0,0,4.16667,0,0)">
            <path d="M1816.36,1046.7C1817.46,1049.39 1818.37,1052.15 1819.23,1054.93C1820.08,1057.71 1820.85,1060.51 1821.54,1063.34C1822.93,1068.98 1824.02,1074.71 1824.84,1080.48C1825.66,1086.26 1826.18,1092.08 1826.42,1097.93C1826.64,1103.79 1826.52,1109.67 1826.07,1115.54C1825.63,1121.41 1824.72,1127.26 1823.39,1133.03C1822.75,1135.92 1821.9,1138.77 1821.02,1141.6L1819.5,1145.8C1819.02,1147.2 1818.34,1148.54 1817.76,1149.9L1816.85,1151.94L1815.8,1153.91L1814.75,1155.88L1814.22,1156.85L1813.62,1157.8L1811.21,1161.54L1808.49,1165.07C1804.7,1169.62 1800.29,1173.62 1795.36,1176.7C1799.33,1172.44 1802.79,1167.92 1805.67,1163.09L1807.74,1159.43L1809.56,1155.64L1810.01,1154.69L1810.4,1153.72L1811.19,1151.78L1811.98,1149.84L1812.65,1147.85C1813.62,1145.24 1814.32,1142.53 1815.1,1139.85C1815.72,1137.12 1816.43,1134.43 1816.9,1131.66L1817.3,1129.6L1817.62,1127.52C1817.82,1126.13 1818.08,1124.76 1818.22,1123.36L1818.73,1119.18L1819.1,1114.97C1819.55,1109.36 1819.77,1103.71 1819.8,1098.05C1819.82,1092.38 1819.66,1086.7 1819.38,1081.01C1818.8,1069.62 1817.74,1058.21 1816.36,1046.7Z" style="fill:rgb(238,150,122);fill-rule:nonzero;"/>
        </g>
        <g transform="matrix(4.16667,0,0,4.16667,0,0)">
            <path d="M1887.36,1231.7C1898.81,1230.87 1910.33,1231.25 1921.8,1232.05C1933.26,1232.95 1944.7,1234.43 1956.03,1236.62C1967.37,1238.72 1978.58,1241.63 1989.61,1245.1C2000.63,1248.62 2011.43,1252.9 2021.91,1257.87C2027.14,1260.38 2032.26,1263.14 2037.28,1266.05C2042.3,1268.97 2047.24,1272.05 2051.97,1275.42C2056.71,1278.79 2061.33,1282.32 2065.75,1286.11C2070.18,1289.87 2074.45,1293.83 2078.43,1298.06C2086.49,1306.42 2093.65,1315.64 2099.7,1325.5C2105.76,1335.34 2110.67,1345.85 2114.36,1356.7C2109.23,1346.45 2103.58,1336.53 2096.84,1327.4C2095.21,1325.09 2093.46,1322.86 2091.73,1320.62C2090.86,1319.51 2089.93,1318.44 2089.04,1317.35L2087.69,1315.72L2086.28,1314.14C2082.57,1309.88 2078.66,1305.81 2074.58,1301.93C2066.37,1294.21 2057.61,1287.09 2048.22,1280.88C2045.88,1279.31 2043.51,1277.8 2041.14,1276.28C2038.73,1274.83 2036.33,1273.35 2033.87,1271.98C2028.97,1269.2 2023.98,1266.58 2018.88,1264.17C2013.81,1261.71 2008.65,1259.42 2003.42,1257.28C1998.19,1255.15 1992.87,1253.24 1987.53,1251.37C1976.86,1247.62 1965.91,1244.63 1954.89,1241.94C1949.37,1240.6 1943.81,1239.46 1938.23,1238.35C1932.65,1237.25 1927.04,1236.29 1921.41,1235.44C1910.15,1233.71 1898.8,1232.41 1887.36,1231.7Z" style="fill:rgb(238,150,122);fill-rule:nonzero;"/>
        </g>
        <g transform="matrix(4.16667,0,0,4.16667,0,0)">
            <path d="M1969.86,1047.2C1970.24,1057.73 1970.22,1068.16 1970.19,1078.57C1970.14,1088.98 1970.05,1099.35 1970.12,1109.7C1970.22,1120.04 1970.38,1130.37 1971.32,1140.56C1971.81,1145.64 1972.47,1150.71 1973.83,1155.53C1974.54,1157.92 1975.39,1160.3 1976.78,1162.3C1978.1,1164.35 1980.2,1165.89 1982.86,1166.2C1981.56,1166.44 1980.16,1166.31 1978.84,1165.84C1977.52,1165.37 1976.33,1164.54 1975.32,1163.58C1973.23,1161.66 1971.84,1159.21 1970.62,1156.77C1968.27,1151.82 1966.93,1146.58 1965.87,1141.35C1963.86,1130.86 1963.21,1120.27 1963.12,1109.75C1963.06,1099.21 1963.64,1088.71 1964.71,1078.27C1965.82,1067.84 1967.36,1057.44 1969.86,1047.2Z" style="fill:rgb(238,150,122);fill-rule:nonzero;"/>
        </g>
        <g transform="matrix(4.16667,0,0,4.16667,0,0)">
            <path d="M1968.36,989.701C1971.33,990.741 1974.09,992.274 1976.66,994.081C1979.25,995.879 1981.64,998.02 1983.63,1000.6C1984.62,1001.89 1985.48,1003.32 1986.11,1004.89C1986.72,1006.46 1987.1,1008.21 1986.93,1009.96C1986.8,1011.71 1986.09,1013.37 1985.09,1014.69C1984.04,1015.99 1982.74,1016.96 1981.36,1017.7C1982.32,1016.45 1983.25,1015.25 1983.83,1013.92C1984.42,1012.6 1984.67,1011.24 1984.59,1009.91C1984.4,1007.24 1982.99,1004.71 1981.24,1002.41C1979.48,1000.11 1977.37,997.975 1975.19,995.889C1972.99,993.816 1970.69,991.802 1968.36,989.701Z" style="fill:rgb(238,150,122);fill-rule:nonzero;"/>
        </g>
        <g transform="matrix(4.16667,0,0,4.16667,0,0)">
            <path d="M2091.36,903.701C2088.27,919.496 2085.38,935.308 2082.79,951.162C2081.47,959.083 2080.2,967.011 2079.03,974.952C2077.86,982.893 2076.68,990.829 2075.64,998.784C2074.61,1006.74 2073.63,1014.7 2072.71,1022.66C2071.8,1030.62 2070.99,1038.59 2070.29,1046.57C2069.61,1054.55 2068.92,1062.53 2068.43,1070.52C2067.94,1078.5 2067.56,1086.5 2067.34,1094.49C2067.11,1102.48 2066.99,1110.47 2067.07,1118.45C2067.18,1126.43 2067.5,1134.41 2067.98,1142.36C2068.98,1158.26 2070.93,1174.12 2074.53,1189.57C2076.33,1197.29 2078.63,1204.89 2081.5,1212.26C2084.36,1219.62 2087.89,1226.73 2092.31,1233.26C2096.68,1239.82 2102.01,1245.76 2108.26,1250.64L2109.42,1251.58C2109.82,1251.87 2110.23,1252.14 2110.64,1252.42L2113.11,1254.09C2113.91,1254.68 2114.8,1255.14 2115.66,1255.63L2118.27,1257.09C2120.04,1258.02 2121.89,1258.79 2123.7,1259.65C2125.57,1260.36 2127.47,1261.01 2129.36,1261.7C2127.42,1261.18 2125.46,1260.7 2123.52,1260.14C2121.63,1259.44 2119.69,1258.83 2117.82,1258.05L2115.06,1256.76C2114.14,1256.33 2113.21,1255.93 2112.34,1255.39L2109.7,1253.86C2109.26,1253.6 2108.81,1253.36 2108.38,1253.09L2107.12,1252.21C2100.34,1247.66 2094.47,1241.78 2089.51,1235.26C2084.58,1228.7 2080.58,1221.49 2077.26,1214.02C2073.94,1206.54 2071.38,1198.77 2069.23,1190.91C2068.73,1188.93 2068.16,1186.97 2067.72,1184.99L2066.36,1179.03L2065.22,1173.04C2064.84,1171.04 2064.55,1169.03 2064.22,1167.02C2062.97,1158.99 2062.03,1150.92 2061.37,1142.84C2060.73,1134.75 2060.41,1126.65 2060.23,1118.55C2060.1,1110.46 2060.15,1102.37 2060.35,1094.28C2060.91,1078.11 2062.03,1061.99 2063.71,1045.93C2065.48,1029.88 2067.56,1013.88 2070.26,997.98C2072.86,982.067 2075.98,966.248 2079.43,950.512C2082.97,934.796 2086.77,919.134 2091.36,903.701Z" style="fill:rgb(238,150,122);fill-rule:nonzero;"/>
        </g>
        <g transform="matrix(4.16667,0,0,4.16667,0,0)">
            <path d="M2141.86,878.201C2143.26,879.445 2144.3,881.054 2145.2,882.7C2146.14,884.347 2146.79,886.121 2147.45,887.9L2148.23,890.626C2148.52,891.536 2148.62,892.471 2148.83,893.396C2149,894.324 2149.21,895.255 2149.32,896.192L2149.59,899.009C2150.22,906.542 2149.52,914.092 2148.21,921.458C2148.08,922.388 2147.84,923.292 2147.63,924.202L2146.98,926.93L2146.34,929.657C2146.12,930.566 2145.93,931.481 2145.62,932.362L2143.95,937.694C2143.39,939.472 2142.85,941.252 2142.12,942.968C2140.75,946.426 2139.45,949.905 2137.88,953.268C2136.25,956.609 2134.64,959.947 2132.86,963.201C2133.82,959.601 2134.94,956.085 2136.04,952.573C2136.65,950.838 2137.09,949.045 2137.6,947.281C2138.09,945.51 2138.64,943.76 2139.15,942.002C2139.71,940.254 2140.11,938.467 2140.58,936.702L2141.96,931.398C2142.44,929.636 2142.76,927.843 2143.17,926.068C2143.53,924.286 2144.01,922.519 2144.28,920.725L2145.2,915.358L2145.43,914.016L2145.57,912.667C2145.66,911.768 2145.75,910.868 2145.86,909.97L2146.19,907.271L2146.33,904.569C2146.41,902.766 2146.56,900.958 2146.48,899.16L2146.45,896.452C2146.43,895.549 2146.29,894.662 2146.24,893.76C2146.15,892.867 2146.16,891.947 2145.99,891.066L2145.56,888.395C2145.2,886.63 2144.8,884.859 2144.2,883.148C2143.61,881.433 2142.91,879.727 2141.86,878.201Z" style="fill:rgb(238,150,122);fill-rule:nonzero;"/>
        </g>
    </g>
</svg>
