<?xml version="1.0" encoding="UTF-8" standalone="no"?>
<!DOCTYPE svg PUBLIC "-//W3C//DTD SVG 1.1//EN" "http://www.w3.org/Graphics/SVG/1.1/DTD/svg11.dtd">
<svg width="100%" height="100%" viewBox="0 0 30 48" version="1.1" xmlns="http://www.w3.org/2000/svg" xmlns:xlink="http://www.w3.org/1999/xlink" xml:space="preserve" xmlns:serif="http://www.serif.com/" style="fill-rule:evenodd;clip-rule:evenodd;stroke-linejoin:round;stroke-miterlimit:1.41421;">
    <g transform="matrix(1,0,0,1,-258.636,-23.2745)">
        <g transform="matrix(1,0,0,1,358,358)">
            <g transform="matrix(1,0,0,1,-248.574,-344.1)">
                <path d="M176.2,22.043C176.312,16.866 176.86,11.358 176.86,11.358C166.284,13.23 157.582,14.332 157.582,14.332C155.049,32.288 151.193,54.65 151.193,54.65C154.299,53.73 157.682,52.944 160.777,52.309C161.511,44.809 162.026,39.073 162.345,37.439C166.164,36.383 173.63,34.895 173.63,34.895C173.684,31.591 174.07,27.404 174.07,27.404C171.307,28.076 166.206,29.377 163.961,29.839C164.803,26.123 165.514,23.254 165.514,23.254C169.259,22.594 176.2,22.043 176.2,22.043Z" style="fill-rule:nonzero;"/>
                <path d="M174.661,13.751C174.523,15.448 174.362,17.785 174.271,20.218C171.936,20.428 167.822,20.834 165.169,21.302C164.389,21.44 163.771,22.006 163.59,22.778L162.028,29.401C161.992,29.551 161.976,29.702 161.976,29.852C161.976,30.361 162.175,30.854 162.538,31.228C163.011,31.714 163.698,31.916 164.362,31.781C166.033,31.436 169.139,30.667 171.876,29.987C171.809,30.973 171.741,32.119 171.694,33.265C169.286,33.762 164.635,34.748 161.816,35.528C161.092,35.728 160.543,36.322 160.398,37.059C160.125,38.463 159.763,42.21 159.215,47.882C159.215,47.882 159.065,49.42 158.943,50.673C157.066,51.076 155.306,51.491 153.671,51.914C154.773,45.393 157.393,29.658 159.334,16.1C161.962,15.745 167.785,14.924 174.661,13.751ZM176.514,9.405C166.114,11.247 157.421,12.353 157.335,12.365C156.445,12.477 155.745,13.17 155.619,14.054C153.119,31.774 149.277,54.09 149.239,54.313C149.123,54.989 149.364,55.677 149.876,56.132C150.388,56.587 151.1,56.746 151.756,56.551C154.436,55.757 157.603,54.984 161.175,54.251C162.028,54.075 162.665,53.368 162.75,52.502L163.162,48.263C163.553,44.231 163.875,40.884 164.113,39.025C168.008,38.04 173.95,36.853 174.016,36.84C174.933,36.658 175.597,35.862 175.611,34.928C175.664,31.738 176.041,27.627 176.045,27.586C176.051,27.524 176.055,27.463 176.055,27.402C176.055,26.828 175.804,26.278 175.366,25.9C174.88,25.482 174.224,25.324 173.602,25.477L170.922,26.138C169.553,26.478 168.012,26.86 166.622,27.194C166.879,26.103 166.977,25.69 167.14,25.004C170.871,24.459 176.296,24.024 176.355,24.02C177.37,23.939 178.159,23.103 178.183,22.085C178.289,17.049 178.827,11.609 178.833,11.555C178.84,11.489 178.844,11.423 178.844,11.358C178.844,10.808 178.615,10.281 178.209,9.904C177.753,9.481 177.127,9.297 176.514,9.405Z" style="fill-rule:nonzero;"/>
                <path d="M175.319,21.161C175.428,15.984 175.979,10.476 175.979,10.476C165.403,12.349 156.7,13.45 156.7,13.45C154.168,31.407 150.313,53.768 150.313,53.768C153.416,52.849 156.802,52.062 159.896,51.427C160.63,43.928 161.146,38.191 161.464,36.558C165.283,35.501 172.748,34.014 172.748,34.014C172.802,30.709 173.188,26.523 173.188,26.523C170.425,27.195 165.324,28.496 163.08,28.957C163.923,25.242 164.633,22.374 164.633,22.374C168.378,21.712 175.319,21.161 175.319,21.161Z" style="fill:white;fill-rule:nonzero;"/>
                <path d="M157.53,14.285C155.293,30.092 152.026,49.367 151.325,53.477C154.144,52.682 157.134,51.993 159.896,51.427C160.63,43.928 161.146,38.191 161.464,36.558C165.283,35.501 172.748,34.014 172.748,34.014C172.786,31.715 172.984,28.993 173.101,27.548C172.375,27.727 171.066,28.05 171.066,28.05C168.342,28.725 165.251,29.492 163.61,29.83L162.934,29.969L163.178,28.937C163.146,28.943 163.11,28.951 163.08,28.957C163.923,25.242 164.633,22.374 164.633,22.374C168.378,21.712 175.319,21.161 175.319,21.161C175.399,17.306 175.726,13.268 175.889,11.457C166.804,13.052 159.149,14.075 157.53,14.285Z" style="fill:url(#_Linear1);"/>
            </g>
        </g>
    </g>
    <defs>
        <linearGradient id="_Linear1" x1="0" y1="0" x2="1" y2="0" gradientUnits="userSpaceOnUse" gradientTransform="matrix(19.7534,19.7534,-19.7534,19.7534,151.479,20.3377)"><stop offset="0" style="stop-color:rgb(255,153,0);stop-opacity:1"/><stop offset="1" style="stop-color:rgb(253,221,87);stop-opacity:1"/></linearGradient>
    </defs>
</svg>
