<?xml version="1.0" encoding="UTF-8" standalone="no"?>
<!DOCTYPE svg PUBLIC "-//W3C//DTD SVG 1.1//EN" "http://www.w3.org/Graphics/SVG/1.1/DTD/svg11.dtd">
<svg width="100%" height="100%" viewBox="0 0 414 436" version="1.1" xmlns="http://www.w3.org/2000/svg" xmlns:xlink="http://www.w3.org/1999/xlink" xml:space="preserve" xmlns:serif="http://www.serif.com/" style="fill-rule:evenodd;clip-rule:evenodd;stroke-linejoin:round;stroke-miterlimit:1.41421;">
    <g transform="matrix(1,0,0,1,-3282.32,-510.023)">
        <g transform="matrix(4.16667,0,0,4.16667,2721.19,-65.7972)">
            <path d="M227.191,152.058C234.004,163.12 234.262,184.682 233.617,197.241C233.06,208.099 231.113,224.003 224.949,233.196C217.557,244.219 203.555,244.837 195.025,234.786C193.355,232.818 192.06,230.617 191.096,228.278C188.027,223.413 186.779,217.565 186.892,211.812C186.913,210.714 186.807,209.532 186.549,208.403C185.372,207.667 183.695,212.276 183.484,212.918C182.313,216.473 181.953,220.659 181.656,224.383C180.053,244.458 153.385,249.522 143.475,231.984L141.497,228.14C133.516,214.012 133.777,185.593 136.063,169.19C136.814,163.792 137.971,157.692 140.07,152.643C146.778,136.51 170.211,131.948 176.745,149.042C177.983,150.877 178.964,153.093 179.6,155.719C180.66,160.093 181.141,164.589 182.123,168.981C183.933,170.219 186.473,169.319 187.221,166.281C188.432,161.36 188.895,156.362 190.54,151.542C194.115,141.064 204.009,136.202 214.412,139.485C220.77,141.492 224.729,146.318 227.191,152.058Z" style="fill:url(#_Linear1);fill-rule:nonzero;"/>
        </g>
        <g transform="matrix(4.16667,0,0,4.16667,2721.19,-65.7972)">
            <path d="M178.102,165.95C176.926,161.177 176.402,156.05 175.31,151.537C170.93,133.466 148.018,136.97 141.52,152.601C134.905,168.506 133.742,210.258 142.84,226.36C151.885,242.366 175.881,237.53 177.315,219.576C177.65,215.383 178.09,211.132 179.237,207.648C182.95,196.382 188.646,203.083 188.492,211.046C188.041,234.244 210.453,243.079 220.938,227.443C231.135,212.238 231.038,173.066 226.703,157.048C224.531,149.026 220.484,142.8 213.432,140.573C205.168,137.966 195.65,140.779 192.034,151.378C190.354,156.303 190.135,160.382 188.764,165.95C187.207,172.275 179.659,172.278 178.102,165.95Z" style="fill:url(#_Radial2);fill-rule:nonzero;"/>
        </g>
        <g transform="matrix(4.16667,0,0,4.16667,2721.19,-65.7972)">
            <path d="M217.422,146.167C216.092,145.026 214.537,144.12 212.712,143.545C210.102,142.72 207.266,142.514 204.593,143.159C199.813,144.311 196.756,147.837 195.205,152.383C193.638,156.975 193.174,161.966 192.011,166.694C190.453,173.023 184.556,175.124 180.117,172.996C184.518,177.275 192.373,175.687 194.207,168.231C195.371,163.504 195.834,158.513 197.402,153.921C198.953,149.374 202.009,145.849 206.789,144.696C209.463,144.052 212.299,144.259 214.909,145.083C215.811,145.367 216.646,145.733 217.422,146.167ZM168.676,145.342C167.725,144.473 166.6,143.765 165.283,143.267C161.579,141.863 157.328,142.478 153.816,144.146C149.676,146.113 146.379,149.561 144.617,153.796C138.135,169.387 137.413,210.025 145.775,224.824C147.233,227.405 149.244,229.507 151.723,230.929C150.231,229.675 148.972,228.131 147.972,226.362C139.61,211.563 140.331,170.926 146.814,155.334C148.575,151.098 151.873,147.651 156.014,145.683C159.524,144.016 163.775,143.4 167.48,144.804C167.898,144.963 168.297,145.143 168.676,145.342ZM188.408,200.508C189.196,201.325 189.828,202.32 190.305,203.342C191.407,205.709 191.88,208.505 191.829,211.104C191.721,216.689 193.094,222.498 196.773,226.834C197.974,228.249 199.4,229.466 200.99,230.381C200.263,229.772 199.587,229.097 198.971,228.372C195.291,224.036 193.918,218.227 194.025,212.642C194.076,210.043 193.604,207.247 192.501,204.88C191.644,203.04 190.285,201.286 188.408,200.508Z" style="fill:rgb(249,203,223);"/>
        </g>
        <g transform="matrix(4.16667,0,0,4.16667,2721.19,-65.7972)">
            <path d="M194.796,229.548C202.125,237.427 214.081,237.669 220.938,227.443C231.135,212.238 231.038,173.066 226.703,157.048C225.277,151.779 223.043,147.286 219.678,144.191C222.471,147.216 224.39,151.302 225.663,156.008C229.999,172.027 230.095,211.198 219.898,226.403C213.357,236.159 202.174,236.388 194.796,229.548ZM145.598,230.153C155.994,241.395 176.01,235.927 177.315,219.576C177.65,215.383 178.09,211.132 179.237,207.648C181.11,201.965 183.488,200.855 185.365,202.173C183.402,199.556 180.438,199.81 178.197,206.609C177.05,210.093 176.611,214.344 176.275,218.537C175.012,234.357 156.23,239.989 145.598,230.153ZM178.102,165.95C176.926,161.177 176.402,156.05 175.31,151.537C174.4,147.786 172.691,144.969 170.499,142.992C172.192,144.878 173.51,147.362 174.27,150.497C175.363,155.011 175.887,160.137 177.063,164.911C177.475,166.591 178.312,167.824 179.344,168.612C178.798,167.905 178.364,167.017 178.102,165.95Z" style="fill:rgb(110,14,108);fill-rule:nonzero;"/>
        </g>
    </g>
    <defs>
        <linearGradient id="_Linear1" x1="0" y1="0" x2="1" y2="0" gradientUnits="userSpaceOnUse" gradientTransform="matrix(-63.9424,71.0152,-71.0152,-63.9424,214.894,156.142)"><stop offset="0" style="stop-color:rgb(110,14,108);stop-opacity:1"/><stop offset="0.5" style="stop-color:rgb(162,34,142);stop-opacity:1"/><stop offset="1" style="stop-color:rgb(111,14,108);stop-opacity:1"/></linearGradient>
        <radialGradient id="_Radial2" cx="0" cy="0" r="1" gradientUnits="userSpaceOnUse" gradientTransform="matrix(86.4639,0,0,86.4639,208.979,215.761)"><stop offset="0" style="stop-color:rgb(248,187,214);stop-opacity:1"/><stop offset="0.6" style="stop-color:rgb(175,57,149);stop-opacity:1"/><stop offset="1" style="stop-color:rgb(146,38,143);stop-opacity:1"/></radialGradient>
    </defs>
</svg>
