<?xml version="1.0" encoding="UTF-8" standalone="no"?>
<!DOCTYPE svg PUBLIC "-//W3C//DTD SVG 1.1//EN" "http://www.w3.org/Graphics/SVG/1.1/DTD/svg11.dtd">
<svg width="100%" height="100%" viewBox="0 0 414 428" version="1.1" xmlns="http://www.w3.org/2000/svg" xmlns:xlink="http://www.w3.org/1999/xlink" xml:space="preserve" xmlns:serif="http://www.serif.com/" style="fill-rule:evenodd;clip-rule:evenodd;stroke-linejoin:round;stroke-miterlimit:1.41421;">
    <g transform="matrix(1,0,0,1,-4502.79,-989.002)">
        <g transform="matrix(4.16667,0,0,4.16667,2721.19,-65.7972)">
            <path d="M485.16,300.05C479.979,294.055 468.604,297.159 470.295,307.189C470.468,308.219 470.43,309.471 470.863,310.286C475.769,316.228 485.856,312.916 485.509,301.92C485.438,301.279 485.32,300.653 485.16,300.05ZM501.884,349.932C478.596,363.157 445.672,353.479 434.279,328.899C433.201,327.005 432.223,325 431.352,322.887C422.479,301.35 429.67,274.607 448.857,261.092C457.922,254.708 468.644,252.111 479.63,253.528C498.193,254.047 512.111,265.304 519.049,280.293C526.374,293.14 528.209,309.501 522.862,324.274C523.219,324.952 523.526,325.653 523.783,326.372C525.93,329.462 526.969,333.215 526.67,337.042C525.723,349.143 512.242,356.062 501.884,349.932Z" style="fill:url(#_Linear1);fill-rule:nonzero;"/>
        </g>
        <g transform="matrix(4.16667,0,0,4.16667,2721.19,-65.7972)">
            <path d="M517.966,320.229C529.739,291.251 511.948,255.072 479.091,254.226C443.81,249.596 419.519,288.61 432.803,320.848C440.161,338.706 454.793,347.371 471.736,348.112C481.707,349.239 491.309,347.5 499.57,342.476C501.623,343.923 504.079,344.853 506.763,345.064C514.735,345.689 521.705,339.731 522.33,331.76C522.68,327.286 520.956,323.128 517.966,320.229ZM465.976,302.393C463.406,287.184 485.48,285.142 487.105,300.497C487.694,317.074 467.491,318.909 465.976,302.393Z" style="fill:url(#_Radial2);fill-rule:nonzero;"/>
        </g>
        <g transform="matrix(4.16667,0,0,4.16667,2721.19,-65.7972)">
            <path d="M501.426,264.984C495.783,261.317 489.057,259.075 481.428,258.879L481.264,258.875L481.102,258.853C471.34,257.572 461.883,259.844 453.828,265.516C445.516,271.372 439.563,280.238 436.67,289.934C433.611,300.185 434.018,311.284 438.102,321.196C441.135,328.558 445.568,334.428 451.168,338.661C444.525,334.362 439.325,327.958 435.905,319.659C431.821,309.747 431.415,298.647 434.474,288.397C437.367,278.7 443.318,269.835 451.632,263.979C459.686,258.306 469.143,256.035 478.905,257.315L479.066,257.337L479.23,257.342C487.875,257.563 495.364,260.412 501.426,264.984ZM485.475,290.183C488.344,292.652 490.007,296.208 490.426,300.167L490.438,300.275L490.441,300.385C490.598,304.797 489.449,309.294 486.434,312.623C483.891,315.428 480.307,317.059 476.509,317.01C474.379,316.981 472.336,316.427 470.521,315.42C472.798,317.391 475.663,318.508 478.705,318.548C482.504,318.596 486.088,316.967 488.63,314.16C491.646,310.831 492.795,306.335 492.639,301.922L492.635,301.813L492.623,301.704C492.106,296.825 489.699,292.556 485.475,290.183Z" style="fill:white;"/>
        </g>
        <g transform="matrix(4.16667,0,0,4.16667,2721.19,-65.7972)">
            <path d="M517.966,320.229C520.956,323.128 522.68,327.286 522.33,331.76C521.705,339.731 514.735,345.689 506.763,345.064C504.079,344.853 501.623,343.923 499.57,342.476C491.309,347.5 481.707,349.239 471.736,348.112C460.313,347.612 449.938,343.511 442.136,335.416C449.809,342.822 459.772,346.594 470.697,347.073C480.668,348.2 490.269,346.46 498.531,341.436C500.584,342.883 503.04,343.813 505.723,344.025C513.695,344.649 520.666,338.692 521.289,330.72C521.64,326.247 519.918,322.089 516.927,319.19C524.459,300.652 519.888,279.169 507.02,265.873C520.679,279.067 525.697,301.2 517.966,320.229ZM465.976,302.393C464,290.7 476.592,286.792 483.257,292.589C476.977,285.346 462.852,289.019 464.936,301.354C465.324,305.581 466.938,308.602 469.111,310.486C467.472,308.598 466.299,305.914 465.976,302.393Z" style="fill:rgb(0,149,218);fill-rule:nonzero;"/>
        </g>
    </g>
    <defs>
        <linearGradient id="_Linear1" x1="0" y1="0" x2="1" y2="0" gradientUnits="userSpaceOnUse" gradientTransform="matrix(-54.2229,60.2207,-60.2207,-54.2229,510.707,275.23)"><stop offset="0" style="stop-color:rgb(0,174,239);stop-opacity:1"/><stop offset="0.5" style="stop-color:rgb(95,204,246);stop-opacity:1"/><stop offset="0.6" style="stop-color:rgb(87,198,242);stop-opacity:1"/><stop offset="1" style="stop-color:rgb(0,149,218);stop-opacity:1"/></linearGradient>
        <radialGradient id="_Radial2" cx="0" cy="0" r="1" gradientUnits="userSpaceOnUse" gradientTransform="matrix(77.3311,0,0,77.3311,495.33,321.011)"><stop offset="0" style="stop-color:white;stop-opacity:1"/><stop offset="1" style="stop-color:rgb(109,207,246);stop-opacity:1"/></radialGradient>
    </defs>
</svg>
