<?xml version="1.0" encoding="UTF-8" standalone="no"?>
<!DOCTYPE svg PUBLIC "-//W3C//DTD SVG 1.1//EN" "http://www.w3.org/Graphics/SVG/1.1/DTD/svg11.dtd">
<svg width="100%" height="100%" viewBox="0 0 368 432" version="1.1" xmlns="http://www.w3.org/2000/svg" xmlns:xlink="http://www.w3.org/1999/xlink" xml:space="preserve" xmlns:serif="http://www.serif.com/" style="fill-rule:evenodd;clip-rule:evenodd;stroke-linejoin:round;stroke-miterlimit:1.41421;">
    <g transform="matrix(1,0,0,1,-2926.14,-1465.04)">
        <g transform="matrix(4.16667,0,0,4.16667,2721.19,-65.7972)">
            <path d="M133.227,424.525C139.103,434.071 138.48,445.91 132.147,455.146C127.809,461.474 121.391,465.955 114.318,468.763C95.534,476.223 35.377,465.469 52.09,433.113C54.949,427.58 59.954,424.918 65.525,424.282L65.484,424.254C61.186,421.232 58.209,417.398 56.496,413.161C51.282,404.964 51.606,394.473 56.99,385.351C69.502,364.155 97.367,363.292 116.954,374.641C121.466,377.257 125.229,381.132 127.088,386.005C128.201,387.693 129.07,389.547 129.626,391.551C131.814,399.448 128.184,407.924 119.885,409.85C125.675,413.212 130.619,418.32 133.227,424.525Z" style="fill:url(#_Linear1);fill-rule:nonzero;"/>
        </g>
        <g transform="matrix(4.16667,0,0,4.16667,2721.19,-65.7972)">
            <path d="M94.435,399.06C97.628,399.748 101.084,401.369 104.063,402.687C125.523,412.181 132.997,387.347 114.697,376.743C95.654,365.708 69.193,366.825 57.437,386.744C50.865,397.878 52.253,411.346 63.384,419.171C70.562,424.216 82.47,427.514 88.997,429.488C96.489,431.755 93.981,436.081 87.614,433.594C82.345,431.536 74.25,427.351 71.382,426.872C48.38,423.024 45.177,448.799 59.234,457.235C73.533,465.816 94.4,469.792 110.346,463.459C140.461,451.499 139.277,415.915 107.004,407.701C102.816,406.636 97.562,406.823 93.246,405.235C85.935,402.545 85.606,397.158 94.435,399.06Z" style="fill:url(#_Radial2);fill-rule:nonzero;"/>
        </g>
        <g transform="matrix(4.16667,0,0,4.16667,2721.19,-65.7972)">
            <path d="M119.581,416.856C116.24,414.731 112.488,413.235 108.65,412.259C106.313,411.663 103.723,411.494 101.324,411.184C99.041,410.89 96.753,410.495 94.586,409.697C92.843,409.056 91.05,408.139 89.629,406.895C90.522,407.399 91.462,407.818 92.389,408.159C94.556,408.957 96.844,409.352 99.127,409.646C101.525,409.956 104.115,410.125 106.454,410.72C111.158,411.918 115.734,413.895 119.581,416.856ZM95.232,429.2C96.56,430.483 97.328,432.261 96.751,434.114C96.127,436.121 94.253,437.173 92.273,437.403C90.408,437.62 88.431,437.173 86.699,436.496C84.519,435.644 82.373,434.667 80.24,433.703C78.347,432.846 76.454,431.975 74.538,431.172C73.604,430.781 72.076,430.11 71.087,429.945C65.092,428.942 58.615,429.964 55.582,435.837C52.249,442.288 54.895,450.86 61.059,454.559L61.45,454.792C56.607,450.637 54.793,443.154 57.778,437.375C60.812,431.501 67.289,430.48 73.285,431.482C74.273,431.648 75.8,432.318 76.734,432.71C78.651,433.512 80.544,434.384 82.437,435.241C84.569,436.205 86.716,437.182 88.896,438.034C90.627,438.71 92.604,439.157 94.47,438.94C96.451,438.71 98.324,437.659 98.948,435.652C99.55,433.715 98.684,431.861 97.248,430.568C96.652,430.034 95.964,429.583 95.232,429.2ZM116.012,381.252C115.173,380.582 114.28,379.975 113.354,379.438C96.246,369.525 71.383,369.619 60.341,388.327C54.532,398.17 55.701,409.802 65.398,416.617C65.793,416.895 66.203,417.167 66.623,417.432C57.828,410.539 56.929,399.368 62.539,389.864C73.581,371.157 98.443,371.063 115.551,380.976C115.705,381.065 115.859,381.159 116.012,381.252Z" style="fill:rgb(255,249,174);"/>
        </g>
        <g transform="matrix(4.16667,0,0,4.16667,2721.19,-65.7972)">
            <path d="M59.527,415.841C60.386,416.647 61.324,417.413 62.345,418.131C69.523,423.176 81.431,426.475 87.957,428.449C90.377,429.18 91.753,430.129 92.293,430.991C91.547,430.456 90.464,429.932 88.997,429.488C82.47,427.514 70.562,424.216 63.384,419.171C61.933,418.15 60.651,417.034 59.527,415.841ZM94.435,399.06C97.628,399.748 101.084,401.369 104.063,402.687C123.574,411.319 131.521,391.576 119.051,379.949C130.007,391.667 121.965,410.028 103.023,401.647C100.044,400.329 96.589,398.709 93.395,398.02C86.483,396.531 85.185,399.511 88.457,402.166C86.658,399.852 88.419,397.764 94.435,399.06ZM55.488,454.172C56.558,455.339 57.805,456.378 59.234,457.235C73.533,465.816 94.4,469.792 110.346,463.459C133.891,454.108 138.304,430.318 123.685,416.456C137.033,430.438 132.273,453.299 109.307,462.42C93.36,468.753 72.494,464.777 58.195,456.196C57.206,455.602 56.306,454.921 55.488,454.172Z" style="fill:rgb(171,77,16);fill-rule:nonzero;"/>
        </g>
    </g>
    <defs>
        <linearGradient id="_Linear1" x1="0" y1="0" x2="1" y2="0" gradientUnits="userSpaceOnUse" gradientTransform="matrix(74.1905,-55.9066,55.9066,74.1905,53.9048,450.262)"><stop offset="0" style="stop-color:rgb(150,55,7);stop-opacity:1"/><stop offset="0.3" style="stop-color:rgb(229,100,31);stop-opacity:1"/><stop offset="0.5" style="stop-color:rgb(241,109,32);stop-opacity:1"/><stop offset="0.8" style="stop-color:rgb(173,75,17);stop-opacity:1"/><stop offset="1" style="stop-color:rgb(155,42,11);stop-opacity:1"/></linearGradient>
        <radialGradient id="_Radial2" cx="0" cy="0" r="1" gradientUnits="userSpaceOnUse" gradientTransform="matrix(97.2917,0,0,97.2917,110.956,446.237)"><stop offset="0" style="stop-color:rgb(255,249,174);stop-opacity:1"/><stop offset="0.3" style="stop-color:rgb(255,201,6);stop-opacity:1"/><stop offset="1" style="stop-color:rgb(237,28,36);stop-opacity:1"/></radialGradient>
    </defs>
</svg>
