<?xml version="1.0" encoding="UTF-8" standalone="no"?>
<!DOCTYPE svg PUBLIC "-//W3C//DTD SVG 1.1//EN" "http://www.w3.org/Graphics/SVG/1.1/DTD/svg11.dtd">
<svg width="100%" height="100%" viewBox="0 0 424 439" version="1.1" xmlns="http://www.w3.org/2000/svg" xmlns:xlink="http://www.w3.org/1999/xlink" xml:space="preserve" xmlns:serif="http://www.serif.com/" style="fill-rule:evenodd;clip-rule:evenodd;stroke-linejoin:round;stroke-miterlimit:1.41421;">
    <g transform="matrix(1,0,0,1,-3640.34,-1470.91)">
        <g transform="matrix(4.16667,0,0,4.16667,2721.19,-65.7972)">
            <path d="M264.102,473.162C259.991,472.561 256.058,471.265 252.385,469.332C243.959,464.897 237.502,457.508 232.822,449.071C228.083,441.772 224.824,433.372 222.908,425.282C219.641,411.477 219.356,394.536 225.225,381.367C231.584,367.098 251.521,364.124 260.64,376.947L262.946,380.791C268.69,388.869 267.655,403.026 268.133,412.61C268.287,415.688 268.719,419.352 269.814,422.384C270.068,422.581 270.329,422.708 270.59,422.716C271.625,422.748 272.785,420.841 273.18,420.096C277.25,412.413 276.498,399.906 276.497,391.473C276.494,367.765 302.977,362.864 313.813,376.001C314.947,377.378 315.887,378.898 316.658,380.532C325.139,391.788 321.623,411.735 320.016,424.688C315.629,460.04 299.207,478.296 264.102,473.162Z" style="fill:url(#_Linear1);fill-rule:nonzero;"/>
        </g>
        <g transform="matrix(4.16667,0,0,4.16667,2721.19,-65.7972)">
            <path d="M298.971,454.729C307.254,445.94 312.682,433.668 314.479,419.191C316.336,404.216 321.719,375.497 301.99,370.186C290.889,367.198 277.217,373.469 277.219,390.065C277.221,397.15 277.422,402.825 276.785,407.963C274.106,429.555 263.576,427.375 262.582,407.457C262.133,398.424 263.1,384.196 257.76,376.688C249.965,365.726 231.837,367.165 225.774,380.766C217.68,398.931 220.83,427.824 233.449,446.928C247.855,468.74 280.113,474.738 298.971,454.729Z" style="fill:url(#_Radial2);fill-rule:nonzero;"/>
        </g>
        <g transform="matrix(4.16667,0,0,4.16667,2721.19,-65.7972)">
            <path d="M307.167,376.18C305.621,374.852 303.725,373.821 301.4,373.196C300.178,372.867 298.922,372.671 297.658,372.606C295.857,372.516 294.041,372.696 292.296,373.155C284.279,375.266 280.556,382.111 280.557,390.062C280.558,396.064 280.836,402.392 280.099,408.344C279.582,412.506 278.625,417.338 276.646,421.074C275.184,423.835 272.785,426.511 269.391,426.406C268.563,426.38 267.801,426.193 267.104,425.884C268.3,427.067 269.785,427.887 271.587,427.943C274.982,428.048 277.381,425.372 278.843,422.612C280.821,418.876 281.779,414.043 282.295,409.883C283.033,403.93 282.754,397.601 282.754,391.6C282.752,383.649 286.476,376.804 294.493,374.692C296.237,374.233 298.055,374.053 299.855,374.144C301.118,374.208 302.375,374.405 303.597,374.733C304.922,375.091 306.105,375.581 307.167,376.18ZM253.141,375.98C251.574,374.641 249.727,373.665 247.693,373.094C240.021,370.94 232.075,374.78 228.842,382.034C223.446,394.143 223.83,410.019 226.831,422.696C228.697,430.578 231.795,438.433 236.27,445.208C239.434,449.997 243.521,453.964 248.15,456.985C244.424,454.198 241.119,450.762 238.467,446.746C233.992,439.971 230.895,432.116 229.027,424.234C226.027,411.557 225.643,395.681 231.039,383.572C234.271,376.318 242.219,372.478 249.89,374.632C251.039,374.955 252.127,375.407 253.141,375.98Z" style="fill:rgb(199,234,251);"/>
        </g>
        <g transform="matrix(4.16667,0,0,4.16667,2721.19,-65.7972)">
            <path d="M298.971,454.729C282.104,472.626 254.52,469.715 238.574,453.294C254.656,468.793 281.426,471.202 297.932,453.69C306.215,444.901 311.642,432.629 313.438,418.152C314.959,405.898 318.836,384.446 309.389,374.143C320.15,383.974 316.052,406.509 314.479,419.191C312.682,433.668 307.254,445.94 298.971,454.729ZM266.324,421.516C264.415,419.123 262.926,414.354 262.582,407.457C262.133,398.424 263.1,384.196 257.76,376.688C257.047,375.685 256.246,374.787 255.377,373.991C255.852,374.509 256.302,375.059 256.721,375.649C262.06,383.157 261.092,397.385 261.543,406.418C261.946,414.524 263.933,419.693 266.324,421.516Z" style="fill:rgb(0,113,188);fill-rule:nonzero;"/>
        </g>
    </g>
    <defs>
        <linearGradient id="_Linear1" x1="0" y1="0" x2="1" y2="0" gradientUnits="userSpaceOnUse" gradientTransform="matrix(-64.8671,72.0422,-72.0422,-64.8671,299.079,383.571)"><stop offset="0" style="stop-color:rgb(0,113,188);stop-opacity:1"/><stop offset="0.4" style="stop-color:rgb(0,165,231);stop-opacity:1"/><stop offset="0.5" style="stop-color:rgb(0,166,232);stop-opacity:1"/><stop offset="1" style="stop-color:rgb(7,78,162);stop-opacity:1"/></linearGradient>
        <radialGradient id="_Radial2" cx="0" cy="0" r="1" gradientUnits="userSpaceOnUse" gradientTransform="matrix(90.8804,0,0,90.8804,289.897,443.515)"><stop offset="0" style="stop-color:rgb(223,243,253);stop-opacity:1"/><stop offset="0.3" style="stop-color:rgb(166,223,249);stop-opacity:1"/><stop offset="0.6" style="stop-color:rgb(0,180,241);stop-opacity:1"/><stop offset="0.7" style="stop-color:rgb(0,166,232);stop-opacity:1"/><stop offset="1" style="stop-color:rgb(0,114,188);stop-opacity:1"/></radialGradient>
    </defs>
</svg>
