<?xml version="1.0" encoding="UTF-8" standalone="no"?>
<!DOCTYPE svg PUBLIC "-//W3C//DTD SVG 1.1//EN" "http://www.w3.org/Graphics/SVG/1.1/DTD/svg11.dtd">
<svg width="100%" height="100%" viewBox="0 0 439 439" version="1.1" xmlns="http://www.w3.org/2000/svg" xmlns:xlink="http://www.w3.org/1999/xlink" xml:space="preserve" xmlns:serif="http://www.serif.com/" style="fill-rule:evenodd;clip-rule:evenodd;stroke-linejoin:round;stroke-miterlimit:1.41421;">
    <g transform="matrix(1,0,0,1,-4064.96,-1470.83)">
        <g transform="matrix(4.16667,0,0,4.16667,2721.19,-65.7972)">
            <path d="M427.688,396.486C428.025,402.636 427.002,408.936 425.636,414.917C421.951,431.046 413.41,448.13 401.781,459.934C385.562,476.4 368.345,479.959 351.286,462.306C343.473,454.22 334.3,435.274 330.158,424.794C326.008,414.286 320.248,396.301 323.424,385.079C326.044,375.824 334.536,369.246 344.111,368.814C354.104,368.363 361.393,374.46 365.05,383.085C366.311,385.131 367.329,387.397 368.086,389.81C369.955,395.769 371.967,416.141 373.354,418.607C373.781,419.121 374.332,419.619 374.857,419.627C377.221,419.663 379.111,412.618 379.471,410.988C381.127,403.488 381.439,395.68 383.019,388.145C386.915,369.549 408.752,362.443 419.975,376.092C421.455,377.893 422.603,379.9 423.47,382.027C426.202,386.308 427.41,391.436 427.688,396.486Z" style="fill:url(#_Linear1);fill-rule:nonzero;"/>
        </g>
        <g transform="matrix(4.16667,0,0,4.16667,2721.19,-65.7972)">
            <path d="M422.466,391.411C422.78,397.13 421.854,403.196 420.461,409.291C416.73,425.617 408.114,442.204 397.127,453.357C382.545,468.161 366.529,473.393 349.473,455.744C337.817,443.683 319.043,402.04 324.07,384.279C329,366.866 355.637,361.895 362.952,385.219C364.695,390.779 365.578,401.44 367.109,409.656C369.625,423.164 377.007,424.293 380.146,410.076C381.669,403.177 382.227,394.233 383.697,387.212C388.503,364.282 420.848,362.005 422.466,391.411Z" style="fill:url(#_Radial2);"/>
        </g>
        <g transform="matrix(4.16667,0,0,4.16667,2721.19,-65.7972)">
            <path d="M353.852,376.06C351.062,373.724 347.535,372.378 343.299,372.569C335.918,372.902 329.313,377.987 327.291,385.127C322.715,401.292 340.613,441.86 351.934,453.575C354.18,455.898 356.67,458.083 359.389,459.829C357.512,458.406 355.758,456.796 354.131,455.113C342.811,443.398 324.912,402.83 329.487,386.664C331.509,379.525 338.115,374.44 345.496,374.106C348.688,373.963 351.477,374.693 353.852,376.06ZM413.168,376.096C411.309,374.495 408.994,373.369 406.157,372.951C402.055,372.347 397.848,373.525 394.49,375.914C390.474,378.771 387.973,383.064 386.969,387.849C385.389,395.395 385.075,403.207 383.41,410.746C382.379,415.418 379.753,423.477 373.737,423.386C372.843,423.373 372.025,423.181 371.279,422.849C372.53,424.091 374.063,424.895 375.934,424.924C381.95,425.014 384.576,416.956 385.607,412.284C387.271,404.745 387.586,396.932 389.166,389.387C390.169,384.602 392.67,380.309 396.688,377.452C400.045,375.062 404.252,373.886 408.354,374.489C410.166,374.756 411.764,375.313 413.168,376.096Z" style="fill:rgb(243,145,188);"/>
        </g>
        <g transform="matrix(4.16667,0,0,4.16667,2721.19,-65.7972)">
            <path d="M422.466,391.411C422.024,383.397 419.3,377.743 415.475,374.212C418.748,377.776 421.026,383.104 421.426,390.372C421.74,396.09 420.813,402.156 419.422,408.251C415.691,424.578 407.074,441.165 396.088,452.318C381.843,466.779 366.23,472.102 349.615,455.888C366.618,473.361 382.586,468.12 397.127,453.357C408.114,442.204 416.73,425.617 420.461,409.291C421.854,403.196 422.78,397.13 422.466,391.411ZM356.422,374.354C359.17,376.891 361.461,380.468 362.952,385.219C364.695,390.779 365.578,401.44 367.109,409.656C367.871,413.752 369.084,416.708 370.486,418.444C368.65,417.023 367.016,413.695 366.069,408.617C364.539,400.401 363.656,389.739 361.912,384.18C360.615,380.042 358.707,376.8 356.422,374.354Z" style="fill:rgb(110,14,108);fill-rule:nonzero;"/>
        </g>
    </g>
    <defs>
        <linearGradient id="_Linear1" x1="0" y1="0" x2="1" y2="0" gradientUnits="userSpaceOnUse" gradientTransform="matrix(-67.2493,72.116,-72.116,-67.2493,400.541,380.065)"><stop offset="0" style="stop-color:rgb(110,14,108);stop-opacity:1"/><stop offset="0.5" style="stop-color:rgb(162,34,142);stop-opacity:1"/><stop offset="1" style="stop-color:rgb(111,14,108);stop-opacity:1"/></linearGradient>
        <radialGradient id="_Radial2" cx="0" cy="0" r="1" gradientUnits="userSpaceOnUse" gradientTransform="matrix(89.543,0,0,89.543,400.684,446.42)"><stop offset="0" style="stop-color:rgb(248,187,214);stop-opacity:1"/><stop offset="0.6" style="stop-color:rgb(175,57,149);stop-opacity:1"/><stop offset="1" style="stop-color:rgb(146,38,143);stop-opacity:1"/></radialGradient>
    </defs>
</svg>
