<?xml version="1.0" encoding="UTF-8" standalone="no"?>
<!DOCTYPE svg PUBLIC "-//W3C//DTD SVG 1.1//EN" "http://www.w3.org/Graphics/SVG/1.1/DTD/svg11.dtd">
<svg width="100%" height="100%" viewBox="0 0 386 432" version="1.1" xmlns="http://www.w3.org/2000/svg" xmlns:xlink="http://www.w3.org/1999/xlink" xml:space="preserve" xmlns:serif="http://www.serif.com/" style="fill-rule:evenodd;clip-rule:evenodd;stroke-linejoin:round;stroke-miterlimit:1.41421;">
    <g transform="matrix(1,0,0,1,-3472.01,-1958.4)">
        <g transform="matrix(4.16667,0,0,4.16667,2721.19,-65.7972)">
            <path d="M268.07,498.695C272.4,505.197 272.185,513.204 268.152,520.076C263.398,528.177 251.528,531.439 249.221,535.668C250.232,536.493 251.324,537.189 251.877,537.531C257.036,540.719 261.756,546.093 265.412,550.876C266.896,552.816 268.145,554.923 269.066,557.146C271.779,561.534 273.27,566.582 272.665,571.811C270.73,588.554 249.674,597.006 235.041,580.213C231.367,575.997 228.107,567.399 227.036,566.187C224.291,571.229 223.304,577.778 217.191,582.989C209.691,589.382 199.342,591.966 190.798,585.967C187.521,583.666 185.07,580.426 183.637,576.747C182.052,574.328 180.979,571.573 180.496,568.681C179.441,562.372 181.243,556.171 184.832,550.956C193.346,538.586 201.053,537.167 203.031,533.566C197.413,529.162 190.189,527.032 186.107,520.076L184.129,516.232C175.701,501.878 185.871,485.8 201.012,485.816C210.087,485.825 216.611,491.466 220.777,499.108L224.025,505.493C224.281,505.946 224.68,506.399 224.973,506.441C225.619,505.948 228.087,500.581 228.714,499.544C241.584,478.242 262.799,484.717 268.07,498.695Z" style="fill:url(#_Linear1);fill-rule:nonzero;"/>
        </g>
        <g transform="matrix(4.16667,0,0,4.16667,2721.19,-65.7972)">
            <path d="M200.076,486.428C187.271,486.414 176.855,500.135 184.906,513.855C188.044,519.203 194.436,522.209 199.348,525.383C205.336,529.253 206.973,532.635 198.535,537.847C194.354,540.429 189.605,544.792 185.533,550.709C171.992,570.385 193.143,593.182 212.992,576.262C220.09,570.212 221.482,558.341 223.9,558.656C227.346,559.105 228.498,567.809 233.625,573.692C252.254,595.07 279.131,571.939 262.902,550.709C258.54,545.002 254.082,540.429 249.9,537.847C241.463,532.635 243.099,529.253 249.088,525.383C254,522.209 260.39,519.203 263.529,513.855C270.131,502.604 264.316,491.353 254.949,487.676C244.048,483.396 234.857,490.293 229.479,499.197C227.045,503.227 226.283,507.03 224.127,507.056C221.465,507.089 220.421,502.94 218.102,498.685C214.301,491.712 208.417,486.436 200.076,486.428Z" style="fill:url(#_Radial2);"/>
        </g>
        <g transform="matrix(4.16667,0,0,4.16667,2721.19,-65.7972)">
            <path d="M250.722,542.062C249.983,541.49 249.236,540.964 248.482,540.498C248.289,540.379 248.094,540.256 247.896,540.13C248.818,540.847 249.782,541.481 250.679,542.036L250.722,542.062ZM227.993,557.428C229.423,558.931 230.373,561.059 231.186,562.836C232.582,565.884 233.972,569.091 236.195,571.641C237.85,573.54 239.765,575.26 241.909,576.566C240.633,575.553 239.459,574.404 238.393,573.179C236.168,570.628 234.779,567.422 233.383,564.374C232.211,561.815 230.76,558.528 227.993,557.428ZM203.42,524.276C205.533,525.917 207.424,528.005 207.668,530.704C208.073,535.193 203.766,538.415 200.393,540.498C195.675,543.413 191.446,547.934 188.321,552.474C185.488,556.591 183.98,561.471 184.814,566.466C185.488,570.5 187.672,574.209 191.037,576.571C191.412,576.834 191.795,577.075 192.187,577.297C189.416,574.94 187.613,571.602 187.012,568.004C186.178,563.01 187.686,558.128 190.518,554.012C193.643,549.471 197.871,544.95 202.59,542.036C205.962,539.953 210.27,536.731 209.864,532.242C209.538,528.633 206.269,526.117 203.457,524.3L203.42,524.276ZM200.292,489.544C195.889,489.54 191.678,491.52 188.828,494.87C184.461,500.004 184.48,506.593 187.815,512.275C189.309,514.82 191.91,516.885 194.678,518.7C192.777,517.266 191.1,515.667 190.012,513.813C186.678,508.131 186.657,501.542 191.025,496.407C193.875,493.058 198.085,491.077 202.488,491.082C205.323,491.085 207.804,491.821 209.97,493.082C207.332,490.902 204.137,489.549 200.292,489.544ZM258.256,493.092C256.996,492.032 255.564,491.179 254.029,490.576C244.724,486.923 237.002,493.136 232.367,500.807C231.42,502.377 230.717,504.018 229.898,505.648C228.988,507.46 227.875,509.266 225.83,509.934C225.363,510.087 224.877,510.167 224.385,510.173C223.748,510.18 223.113,510.079 222.512,509.868C222.431,509.841 222.352,509.81 222.273,509.779C222.941,510.488 223.734,511.065 224.708,511.406C225.31,511.616 225.945,511.718 226.582,511.71C227.073,511.704 227.56,511.625 228.027,511.471C230.071,510.803 231.186,508.998 232.095,507.186C232.914,505.556 233.617,503.914 234.564,502.345C239.199,494.674 246.92,488.461 256.226,492.114C256.927,492.389 257.605,492.716 258.256,493.092Z" style="fill:rgb(255,246,132);"/>
        </g>
        <g transform="matrix(4.16667,0,0,4.16667,2721.19,-65.7972)">
            <path d="M187.061,516.716C190.464,520.373 195.386,522.823 199.348,525.383C200.402,526.064 201.322,526.73 202.075,527.394C201.205,526.384 199.913,525.381 198.309,524.344C194.734,522.034 190.378,519.813 187.061,516.716ZM245.461,534.346C242.514,530.967 244.551,528.314 249.088,525.383C254,522.209 260.39,519.203 263.529,513.855C268.631,505.161 266.318,496.469 260.682,491.27C265.544,496.542 267.265,504.678 262.49,512.816C259.351,518.164 252.961,521.169 248.049,524.344C243.057,527.569 241.091,530.456 245.461,534.346ZM186.18,576.623C192.172,583.15 202.754,584.99 212.992,576.262C220.09,570.212 221.482,558.341 223.9,558.656C224.263,558.704 224.6,558.842 224.918,559.059C224.302,558.242 223.641,557.718 222.861,557.617C220.443,557.302 219.051,569.172 211.953,575.223C202.283,583.467 192.306,582.28 186.18,576.623ZM234.58,574.739C253.154,594.283 278.855,571.579 262.902,550.709C260.558,547.641 258.187,544.902 255.844,542.623C257.847,544.678 259.864,547.055 261.863,549.67C277.52,570.153 253.053,592.399 234.58,574.739ZM221.698,505.593C220.522,504.016 219.566,501.372 218.102,498.685C216.631,495.989 214.851,493.547 212.736,491.564C214.402,493.338 215.84,495.403 217.063,497.645C218.931,501.074 219.973,504.433 221.698,505.593Z" style="fill:rgb(171,77,16);fill-rule:nonzero;"/>
        </g>
    </g>
    <defs>
        <linearGradient id="_Linear1" x1="0" y1="0" x2="1" y2="0" gradientUnits="userSpaceOnUse" gradientTransform="matrix(-50.705,60.4278,-60.4278,-50.705,254.447,504.824)"><stop offset="0" style="stop-color:rgb(124,67,47);stop-opacity:1"/><stop offset="0.5" style="stop-color:rgb(212,131,46);stop-opacity:1"/><stop offset="0.6" style="stop-color:rgb(206,127,47);stop-opacity:1"/><stop offset="1" style="stop-color:rgb(124,67,47);stop-opacity:1"/></linearGradient>
        <radialGradient id="_Radial2" cx="0" cy="0" r="1" gradientUnits="userSpaceOnUse" gradientTransform="matrix(81.8786,0,0,81.8786,247.105,558.245)"><stop offset="0" style="stop-color:rgb(253,209,112);stop-opacity:1"/><stop offset="0.5" style="stop-color:rgb(245,178,55);stop-opacity:1"/><stop offset="1" style="stop-color:rgb(189,112,49);stop-opacity:1"/></radialGradient>
    </defs>
</svg>
