<?xml version="1.0" encoding="UTF-8" standalone="no"?>
<!DOCTYPE svg PUBLIC "-//W3C//DTD SVG 1.1//EN" "http://www.w3.org/Graphics/SVG/1.1/DTD/svg11.dtd">
<svg width="100%" height="100%" viewBox="0 0 306 370" version="1.1" xmlns="http://www.w3.org/2000/svg" xmlns:xlink="http://www.w3.org/1999/xlink" xml:space="preserve" xmlns:serif="http://www.serif.com/" style="fill-rule:evenodd;clip-rule:evenodd;stroke-linejoin:round;stroke-miterlimit:1.41421;">
    <g transform="matrix(1,0,0,1,-4569.89,-3494.26)">
        <g transform="matrix(6.78053,0,0,6.78053,2529.58,1167.43)">
            <path d="M321.271,373.292C321.402,373.067 321.534,372.844 321.665,372.619L321.524,372.487L321.576,372.399L321.436,372.269L321.489,372.18L321.348,372.049L321.4,371.961L321.259,371.829L321.311,371.741L321.172,371.61L321.224,371.522L321.083,371.392L321.135,371.304L320.994,371.172L321.046,371.084L320.906,370.953L320.959,370.865L320.817,370.733L320.87,370.645L320.73,370.515L320.78,370.426L320.642,370.296L320.693,370.208L320.553,370.077L320.604,369.988L320.465,369.857L320.516,369.77L320.376,369.639L320.428,369.55L320.287,369.419L320.339,369.331L320.199,369.2L320.252,369.111L320.11,368.981L320.162,368.894L320.021,368.763L320.073,368.675L319.934,368.544L319.985,368.455L319.845,368.324L319.896,368.236C319.712,368.064 319.527,367.893 319.343,367.72C315.289,363.94 311.241,360.305 306.918,357.098C307.239,356.722 307.559,356.347 307.883,355.967C309.563,353.99 311.27,351.976 313.03,349.96C317.547,354.446 321.592,359.518 325.302,364.308C325.68,364.797 326.058,365.285 326.435,365.773C326.539,365.142 326.645,364.511 326.75,363.879C327.588,358.856 328.347,354.703 329.125,350.883C332.529,351.008 335.956,351.32 339.368,351.745C334.855,360.207 331.624,369.49 328.215,379.264C326.842,383.207 325.418,387.29 323.896,391.305C320.01,390.547 315.981,389.53 311.726,388.253C315.274,383.406 318.38,378.25 321.271,373.292ZM310.928,343.163C310.733,343.388 310.539,343.612 310.345,343.836C308.376,346.116 306.486,348.397 304.634,350.63C303.603,351.874 302.581,353.104 301.565,354.312C301.346,354.573 301.126,354.835 300.906,355.096L301.083,355.207L301.006,355.299L301.184,355.41L301.106,355.501L301.284,355.614L301.208,355.704L301.383,355.817L301.307,355.908L301.483,356.021L301.406,356.111L301.584,356.225L301.507,356.315L301.682,356.429L301.604,356.519L301.781,356.633L301.704,356.723L301.879,356.838L301.802,356.928L301.978,357.042L301.901,357.132L302.077,357.247L302,357.337L302.175,357.451L302.097,357.542L302.273,357.656L302.195,357.746L302.371,357.862L302.294,357.951L302.468,358.067L302.391,358.157L302.565,358.273L302.488,358.363L302.664,358.479L302.586,358.569L302.759,358.685L302.682,358.774L302.856,358.891L302.779,358.98L302.954,359.098L302.876,359.187C303.152,359.373 303.429,359.56 303.704,359.747C308.272,362.853 312.491,366.512 316.677,370.367C313.371,375.985 309.797,381.737 305.585,386.854C305.305,387.193 305.023,387.532 304.741,387.869L304.945,387.938L304.821,388.087L305.026,388.156L304.9,388.305L305.107,388.375L304.981,388.522L305.187,388.593L305.063,388.741L305.268,388.811L305.142,388.96L305.349,389.029L305.223,389.178L305.428,389.248L305.304,389.397L305.509,389.468L305.383,389.616L305.588,389.687L305.464,389.834L305.669,389.904L305.544,390.053L305.75,390.123L305.623,390.271L305.829,390.343L305.704,390.491L305.91,390.562L305.783,390.711L305.99,390.781L305.864,390.93L306.069,391L305.945,391.148L306.15,391.22L306.023,391.368L306.231,391.439L306.105,391.588L306.311,391.659L306.186,391.808L306.392,391.879L306.265,392.027L306.473,392.1L306.346,392.247C306.761,392.391 307.177,392.534 307.593,392.677C314.239,394.96 320.332,396.586 326.153,397.605C326.385,397.646 326.616,397.686 326.848,397.726C326.934,397.497 327.019,397.268 327.104,397.038C328.705,392.766 330.184,388.422 331.612,384.242C335.605,372.552 339.347,361.599 345.284,352.066C345.52,351.691 345.756,351.317 345.994,350.944L345.799,350.91L345.916,350.728L345.723,350.694L345.838,350.511L345.645,350.477L345.763,350.294L345.566,350.26L345.685,350.076L345.49,350.043L345.606,349.859L345.413,349.825L345.531,349.643L345.335,349.607L345.453,349.425L345.259,349.391L345.375,349.207L345.181,349.173L345.3,348.989L345.105,348.955L345.222,348.772L345.027,348.737L345.146,348.554L344.949,348.519L345.068,348.336L344.874,348.301L344.991,348.117L344.796,348.083L344.915,347.899L344.718,347.864L344.838,347.681L344.643,347.646L344.76,347.463L344.564,347.427L344.685,347.244L344.487,347.208L344.606,347.024L344.411,346.988L344.529,346.806L344.333,346.77L344.454,346.587C344.016,346.505 343.577,346.425 343.139,346.347C337.71,345.366 332.163,344.772 326.689,344.623C326.451,344.616 326.212,344.61 325.974,344.604C325.923,344.851 325.873,345.097 325.823,345.343C325.108,348.912 324.414,352.743 323.656,357.27C320.033,352.671 316.048,347.918 311.572,343.758C311.357,343.559 311.143,343.36 310.928,343.163Z" style="fill:rgb(145,25,30);fill-rule:nonzero;"/>
        </g>
        <g transform="matrix(6.78053,0,0,6.78053,2529.58,1167.43)">
            <path d="M307.702,386.993C313.479,388.88 318.805,390.313 323.896,391.305C325.418,387.29 326.842,383.207 328.215,379.264C332.155,367.979 335.848,357.324 341.566,347.873C336.865,347.108 332.089,346.628 327.361,346.472C326.583,350.301 325.824,354.463 324.985,359.489C324.88,360.121 324.774,360.753 324.67,361.385C324.29,360.896 323.91,360.408 323.53,359.92C319.796,355.135 315.681,350.105 311.047,345.712C309.286,347.751 307.585,349.788 305.913,351.788C305.1,352.763 304.293,353.727 303.489,354.68C309.146,358.404 314.236,362.956 319.343,367.72C319.527,367.893 319.712,368.064 319.896,368.236C319.766,368.461 319.635,368.686 319.504,368.91C315.992,374.952 312.212,381.302 307.702,386.993ZM324.962,393.365C324.734,393.322 324.506,393.28 324.278,393.237C318.551,392.162 312.547,390.519 305.975,388.288C305.562,388.148 305.151,388.009 304.741,387.869C305.023,387.531 305.305,387.193 305.585,386.854C310.238,381.202 314.128,374.765 317.718,368.599C312.582,363.817 307.451,359.284 301.751,355.634C301.47,355.453 301.189,355.273 300.906,355.096C301.126,354.835 301.346,354.573 301.565,354.312C302.581,353.104 303.603,351.874 304.634,350.63C306.486,348.397 308.376,346.116 310.345,343.836C310.539,343.612 310.733,343.388 310.928,343.163C311.143,343.36 311.357,343.559 311.572,343.758C316.048,347.918 320.033,352.671 323.656,357.27C324.414,352.743 325.108,348.913 325.823,345.343C325.873,345.097 325.923,344.851 325.974,344.604C326.212,344.61 326.451,344.616 326.689,344.623C332.164,344.772 337.71,345.366 343.139,346.347C343.577,346.425 344.016,346.505 344.454,346.587C344.21,346.961 343.967,347.336 343.727,347.713C337.647,357.265 333.825,368.233 329.773,379.911C328.324,384.084 326.83,388.42 325.22,392.679C325.134,392.907 325.048,393.137 324.962,393.365Z" style="fill:rgb(145,25,30);fill-rule:nonzero;"/>
        </g>
        <g transform="matrix(6.78053,0,0,6.78053,2529.58,1167.43)">
            <path d="M343.003,347.219C334.641,360.428 330.411,376.582 324.428,392.336C318.195,391.165 312.135,389.426 306.227,387.44C310.976,381.662 314.926,375.099 318.808,368.418C313.511,363.475 308.143,358.681 302.199,354.885C305.041,351.518 307.919,347.976 310.988,344.436C315.87,348.966 320.105,354.117 324.164,359.325C324.928,354.714 325.738,350.11 326.67,345.536C332.129,345.684 337.585,346.259 343.003,347.219Z" style="fill:white;fill-rule:nonzero;"/>
        </g>
        <g transform="matrix(6.78053,0,0,6.78053,2529.58,1167.43)">
            <path d="M324.194,390.383C318.398,389.262 314.714,387.966 309.423,386.235C313.449,380.952 316.93,375.14 320.355,369.247C315.063,364.292 309.719,359.457 303.808,355.589C306.537,352.375 309.305,349.007 312.232,345.644C311.831,345.253 311.439,344.855 311.028,344.473C315.893,348.994 320.117,354.131 324.164,359.325C324.882,354.99 325.642,350.661 326.504,346.357C325.704,350.348 324.996,354.361 324.323,358.381C324.791,358.974 325.259,359.567 325.72,360.161C326.494,355.555 327.319,350.959 328.268,346.395C333.063,346.557 337.853,347.054 342.617,347.837C342.555,347.935 342.495,348.033 342.434,348.132C334.462,361.089 330.03,375.002 324.194,390.383ZM318.624,368.735C318.626,368.731 318.628,368.727 318.63,368.724C318.689,368.622 318.748,368.52 318.808,368.418C318.746,368.524 318.685,368.629 318.624,368.735ZM318.621,368.244C313.385,363.362 308.073,358.636 302.199,354.885C308.074,358.636 313.385,363.362 318.621,368.244ZM302.199,354.885C305.041,351.518 307.919,347.976 310.988,344.436C307.919,347.976 305.042,351.518 302.199,354.885ZM342.964,347.281C342.977,347.26 342.99,347.239 343.003,347.219C342.99,347.24 342.977,347.26 342.964,347.281ZM326.514,346.309C326.516,346.296 326.519,346.284 326.521,346.271C326.519,346.284 326.516,346.297 326.514,346.309Z" style="fill:url(#_Linear1);"/>
        </g>
        <g transform="matrix(6.78053,0,0,6.78053,2529.58,1167.43)">
            <path d="M342.63,347.839C342.625,347.838 342.621,347.837 342.617,347.837C342.731,347.652 342.848,347.465 342.964,347.281C342.85,347.464 342.746,347.654 342.63,347.839ZM343.003,347.219C337.585,346.259 332.129,345.684 326.67,345.536C332.129,345.683 337.585,346.259 343.003,347.219ZM326.504,346.357C326.507,346.341 326.51,346.325 326.514,346.309C326.51,346.325 326.507,346.341 326.504,346.357ZM326.521,346.271C326.57,346.026 326.62,345.781 326.67,345.536C326.62,345.781 326.57,346.026 326.521,346.271Z" style="fill:rgb(145,25,30);fill-rule:nonzero;"/>
        </g>
        <g transform="matrix(6.78053,0,0,6.78053,2529.58,1167.43)">
            <path d="M325.72,360.161C325.259,359.567 324.791,358.974 324.323,358.381C324.996,354.361 325.704,350.348 326.504,346.357C326.507,346.341 326.51,346.325 326.514,346.309C326.516,346.297 326.519,346.284 326.521,346.271C326.57,346.026 326.62,345.781 326.67,345.536C332.129,345.684 337.585,346.259 343.003,347.219C342.99,347.239 342.977,347.26 342.964,347.281C342.848,347.465 342.731,347.652 342.617,347.837C337.853,347.054 333.063,346.557 328.268,346.395C327.319,350.959 326.494,355.555 325.72,360.161Z" style="fill:url(#_Linear2);"/>
        </g>
        <g transform="matrix(6.78053,0,0,6.78053,2529.58,1167.43)">
            <path d="M311.028,344.473C311.015,344.46 311.002,344.448 310.988,344.436C311.002,344.448 311.015,344.46 311.028,344.473Z" style="fill:rgb(145,25,30);fill-rule:nonzero;"/>
        </g>
        <g transform="matrix(6.78053,0,0,6.78053,2529.58,1167.43)">
            <path d="M308.021,388.024C307.423,387.83 306.82,387.64 306.227,387.44C310.9,381.753 314.801,375.307 318.624,368.735C314.855,375.242 312.903,380.076 308.317,385.875C308.694,385.997 309.062,386.117 309.423,386.235C308.963,386.839 308.496,387.435 308.021,388.024Z" style="fill:rgb(247,160,135);fill-rule:nonzero;"/>
        </g>
        <g transform="matrix(6.78053,0,0,6.78053,2529.58,1167.43)">
            <path d="M309.423,386.235C309.062,386.117 308.694,385.997 308.317,385.875C312.903,380.076 314.855,375.242 318.624,368.735C318.685,368.629 318.746,368.524 318.808,368.418C318.746,368.36 318.683,368.302 318.621,368.244C313.385,363.362 308.074,358.636 302.199,354.885C305.042,351.518 307.919,347.976 310.988,344.436C311.002,344.448 311.015,344.46 311.028,344.473C311.439,344.855 311.831,345.253 312.232,345.644C309.305,349.007 306.537,352.375 303.808,355.589C309.719,359.457 315.063,364.292 320.355,369.247C316.93,375.14 313.449,380.952 309.423,386.235Z" style="fill:url(#_Linear3);"/>
        </g>
    </g>
    <defs>
        <linearGradient id="_Linear1" x1="0" y1="0" x2="1" y2="0" gradientUnits="userSpaceOnUse" gradientTransform="matrix(-2.00842e-06,-45.9473,45.9473,-2.00842e-06,322.602,390.383)"><stop offset="0" style="stop-color:rgb(237,28,36);stop-opacity:1"/><stop offset="1" style="stop-color:rgb(250,212,55);stop-opacity:1"/></linearGradient>
        <linearGradient id="_Linear2" x1="0" y1="0" x2="1" y2="0" gradientUnits="userSpaceOnUse" gradientTransform="matrix(-2.00842e-06,-45.9473,45.9473,-2.00842e-06,322.602,390.383)"><stop offset="0" style="stop-color:rgb(237,28,36);stop-opacity:1"/><stop offset="1" style="stop-color:rgb(241,143,55);stop-opacity:1"/></linearGradient>
        <linearGradient id="_Linear3" x1="0" y1="0" x2="1" y2="0" gradientUnits="userSpaceOnUse" gradientTransform="matrix(-2.00842e-06,-45.9473,45.9473,-2.00842e-06,322.602,390.383)"><stop offset="0" style="stop-color:rgb(237,28,36);stop-opacity:1"/><stop offset="1" style="stop-color:rgb(241,143,55);stop-opacity:1"/></linearGradient>
    </defs>
</svg>
