<?xml version="1.0" encoding="UTF-8" standalone="no"?>
<!DOCTYPE svg PUBLIC "-//W3C//DTD SVG 1.1//EN" "http://www.w3.org/Graphics/SVG/1.1/DTD/svg11.dtd">
<svg width="100%" height="100%" viewBox="0 0 241 374" version="1.1" xmlns="http://www.w3.org/2000/svg" xmlns:xlink="http://www.w3.org/1999/xlink" xml:space="preserve" xmlns:serif="http://www.serif.com/" style="fill-rule:evenodd;clip-rule:evenodd;stroke-linejoin:round;stroke-miterlimit:1.41421;">
    <g transform="matrix(1,0,0,1,-4518.17,-3948.59)">
        <g transform="matrix(6.78053,0,0,6.78053,2529.58,1167.43)">
            <path d="M314.608,446.464C313.833,447.347 312.705,447.865 311.489,447.878C310.667,447.879 309.877,447.622 309.208,447.177C309.362,446.357 309.739,445.675 310.361,445.097C311.195,444.273 312.174,443.853 313.274,443.847L313.275,443.636L313.277,443.636L313.278,443.847C314.104,443.843 314.863,444.071 315.554,444.533C315.409,445.249 315.099,445.909 314.608,446.464ZM302.422,427.619C306.023,422.129 310.774,418.376 316.555,416.929C316.573,417.025 316.592,417.122 316.608,417.218C316.832,418.417 317.056,419.615 317.278,420.814C309.917,422.456 305.879,427.808 305.026,436.044C304.956,436.713 304.885,437.383 304.813,438.051L304.935,437.959C304.923,438.063 304.912,438.166 304.901,438.27L305.022,438.178C305.012,438.281 305,438.385 304.989,438.487L305.11,438.394C305.1,438.499 305.089,438.603 305.078,438.706L305.199,438.613C305.188,438.717 305.178,438.821 305.166,438.925L305.287,438.832C305.276,438.936 305.266,439.039 305.254,439.143L305.375,439.051C305.364,439.154 305.354,439.258 305.342,439.36L305.464,439.27C305.453,439.373 305.441,439.476 305.431,439.579L305.552,439.487C305.541,439.591 305.529,439.694 305.518,439.798L305.64,439.706C305.629,439.81 305.617,439.913 305.606,440.017L305.728,439.925C305.717,440.028 305.706,440.132 305.695,440.235L305.816,440.144C305.805,440.247 305.794,440.351 305.783,440.454L305.904,440.362C305.893,440.466 305.882,440.569 305.871,440.673L305.991,440.581C305.98,440.685 305.97,440.788 305.958,440.892L306.08,440.799C306.069,440.903 306.059,441.007 306.047,441.11L306.168,441.019C306.157,441.122 306.145,441.226 306.135,441.33L306.14,441.326C305.863,442.013 305.712,442.77 305.703,443.6C305.696,444.441 305.858,445.253 306.153,446.004L306.24,446.224L306.328,446.442L306.415,446.662L306.504,446.882L306.591,447.102L306.679,447.322L306.768,447.541L306.854,447.761L306.942,447.98L307.029,448.201L307.118,448.421L307.206,448.641L307.294,448.86L307.382,449.08L307.47,449.301L307.558,449.521L307.646,449.74L307.822,450.18C308.082,450.921 308.476,451.605 309.003,452.189C310.096,453.403 311.664,454.1 313.34,454.08C314.985,454.047 316.557,453.298 317.637,452.05C318.638,450.898 319.161,449.41 319.123,447.857C319.105,446.96 318.918,446.152 318.585,445.434L318.494,445.217L318.404,445.001L318.313,444.785L318.224,444.568L318.134,444.353L318.044,444.137L317.953,443.921L317.863,443.704L317.773,443.487L317.684,443.27L317.594,443.054L317.504,442.837L317.414,442.62L317.325,442.403L317.235,442.185L317.147,441.969L317.057,441.752L316.968,441.534L316.879,441.316C316.578,440.56 316.129,439.89 315.512,439.323C314.845,438.672 314.099,438.229 313.298,437.955C314.331,437.522 315.476,437.297 316.763,437.298L316.766,437.298C319.526,437.317 321.827,438.517 323.833,440.881C324.247,441.361 324.611,441.852 324.946,442.346C325.078,442.987 325.164,443.646 325.193,444.325C325.343,447.869 323.909,451.215 320.819,454.318C317.673,457.422 313.992,459.086 309.965,459.057L309.938,459.057C305.318,459.03 301.505,456.951 298.677,453.233C298.098,452.464 297.605,451.676 297.166,450.874C296.771,449.197 296.598,447.447 296.664,445.585C296.915,439.085 298.734,433.28 302.422,427.619ZM327.514,443.439L327.423,443.232L327.332,443.024L327.24,442.816L327.148,442.608L327.059,442.399L326.968,442.191L326.876,441.983L326.786,441.774L326.695,441.564L326.604,441.355L326.515,441.145L326.425,440.936L326.335,440.727L326.244,440.517L326.154,440.306L326.065,440.096L325.976,439.885L325.886,439.674C325.295,438.191 324.435,436.778 323.285,435.406C321.018,432.638 318.237,431.143 314.949,431.097C313.861,431.088 312.829,431.238 311.86,431.529C313.817,429.104 316.567,427.485 320.144,426.838C320.424,426.787 320.704,426.736 320.983,426.686C320.654,424.902 320.328,423.113 320.003,421.319C319.654,419.387 319.306,417.444 318.951,415.494C318.898,415.201 318.845,414.908 318.792,414.615L318.746,414.623L318.705,414.394L318.66,414.4L318.618,414.171L318.574,414.178L318.532,413.949L318.486,413.956L318.445,413.727L318.4,413.733L318.358,413.504L318.313,413.512L318.271,413.281L318.227,413.29L318.186,413.06L318.14,413.067L318.098,412.838L318.053,412.845L318.011,412.615L317.966,412.622L317.924,412.393L317.878,412.399L317.837,412.17L317.791,412.178L317.749,411.948L317.704,411.956L317.662,411.727L317.617,411.733L317.574,411.504L317.528,411.511L317.486,411.281L317.441,411.288L317.398,411.059L317.354,411.066L317.311,410.836L317.266,410.844L317.224,410.614L317.178,410.621L317.135,410.392L317.09,410.398L317.047,410.169C316.767,410.214 316.486,410.261 316.206,410.309C309.076,411.501 303.341,415.888 299.189,422.355C295.331,428.397 293.506,434.477 293.289,441.236C293.201,444.323 293.677,447.131 294.773,449.789L294.855,450.005L294.939,450.221L295.022,450.437L295.188,450.871L295.271,451.089L295.355,451.306L295.437,451.522L295.52,451.74L295.604,451.958L295.77,452.394L295.853,452.611L295.935,452.829L296.101,453.267L296.185,453.485L296.267,453.704L296.35,453.923C297,455.584 297.887,457.187 299.039,458.738C302.205,462.947 306.541,465.31 311.781,465.271L311.806,465.271C316.344,465.247 320.467,463.295 323.925,459.786C327.408,456.182 328.953,452.355 328.723,448.333C328.625,446.666 328.251,445.119 327.606,443.646L327.514,443.439Z" style="fill:rgb(145,25,30);fill-rule:nonzero;"/>
        </g>
        <g transform="matrix(6.78053,0,0,6.78053,2529.58,1167.43)">
            <path d="M311.505,438.552C311.503,438.856 311.501,439.162 311.5,439.467C310.402,439.47 309.426,439.888 308.594,440.71C307.771,441.475 307.376,442.422 307.363,443.625C307.353,444.729 307.72,445.728 308.425,446.515C309.197,447.382 310.318,447.881 311.489,447.878C312.705,447.865 313.833,447.347 314.608,446.464C315.311,445.668 315.668,444.671 315.65,443.576C315.636,442.385 315.238,441.448 314.432,440.709C313.581,439.879 312.602,439.467 311.505,439.467C311.505,439.162 311.505,438.856 311.505,438.552ZM311.533,449.708C309.871,449.713 308.32,449.007 307.236,447.792C306.228,446.661 305.688,445.173 305.703,443.6C305.723,441.861 306.328,440.427 307.506,439.329C308.633,438.217 309.979,437.639 311.498,437.637L311.504,437.637C313.02,437.637 314.367,438.207 315.512,439.323C316.677,440.394 317.286,441.813 317.31,443.54C317.339,445.099 316.808,446.585 315.807,447.726C314.727,448.961 313.165,449.69 311.533,449.708ZM315.679,412.268C309.411,413.574 304.327,417.54 300.565,423.355C296.897,429.062 295.145,434.858 294.946,441.305C294.823,445.79 295.997,449.654 298.677,453.233C301.505,456.951 305.318,459.03 309.938,459.057L309.965,459.057C313.992,459.086 317.673,457.422 320.819,454.318C323.909,451.215 325.343,447.869 325.193,444.325C325.07,441.48 324.048,438.979 322.056,436.602C320.071,434.186 317.769,432.957 315.004,432.923L315.001,432.923C313.626,432.915 312.407,433.16 311.321,433.65C310.457,434.035 308.892,434.916 306.323,436.895C305.82,437.28 305.316,437.666 304.813,438.051C304.885,437.382 304.956,436.713 305.026,436.044C305.879,427.808 309.917,422.456 317.278,420.814C317.056,419.615 316.832,418.417 316.608,417.218C316.304,415.572 315.995,413.921 315.679,412.268ZM309.96,460.887L309.935,460.887C304.771,460.856 300.511,458.488 297.37,454.327C294.422,450.357 293.15,446.129 293.289,441.236C293.506,434.478 295.332,428.397 299.189,422.355C303.341,415.888 309.076,411.501 316.206,410.309C316.486,410.261 316.767,410.214 317.047,410.169C317.102,410.462 317.156,410.756 317.211,411.05C317.576,413.005 317.93,414.956 318.282,416.896C318.61,418.698 318.937,420.497 319.267,422.293C318.984,422.341 318.702,422.39 318.42,422.439C312.015,423.584 308.202,427.708 306.968,434.216C308.425,433.175 309.694,432.403 310.695,431.955C311.98,431.374 313.413,431.084 314.949,431.097C318.238,431.143 321.017,432.638 323.285,435.406C325.546,438.108 326.704,440.959 326.854,444.22C327.029,448.283 325.44,452.093 321.96,455.621C318.506,459.059 314.431,460.922 309.96,460.887Z" style="fill:rgb(145,25,30);fill-rule:nonzero;"/>
        </g>
        <g transform="matrix(6.78053,0,0,6.78053,2529.58,1167.43)">
            <path d="M314.962,440.007C313.969,439.037 312.803,438.55 311.5,438.552C310.199,438.554 309.033,439.048 308.04,440.027C307.049,440.95 306.548,442.142 306.534,443.613C306.5,446.602 308.809,448.817 311.526,448.793C314.247,448.762 316.532,446.518 316.481,443.558C316.462,442.097 315.958,440.921 314.962,440.007ZM321.388,454.975C318.167,458.162 314.291,460.01 309.939,459.971C304.942,459.941 300.917,457.6 298.021,453.78C295.159,449.94 293.99,445.89 294.117,441.27C294.323,434.77 296.047,428.833 299.88,422.852C303.696,416.938 309.165,412.426 316.359,411.209C317.013,414.674 317.638,418.124 318.271,421.543C310.64,422.911 306.67,428.233 305.848,436.147C308.043,434.455 309.792,433.346 311.006,432.804C312.22,432.256 313.57,431.991 315.01,432.01C318.029,432.051 320.569,433.443 322.666,435.999C324.77,438.51 325.886,441.208 326.023,444.273C326.183,448.024 324.744,451.585 321.388,454.975Z" style="fill:white;fill-rule:nonzero;"/>
        </g>
        <g transform="matrix(6.78053,0,0,6.78053,2529.58,1167.43)">
            <path d="M310.092,458.261C310.043,458.261 309.994,458.261 309.944,458.261C305.104,458.238 300.965,456.025 298.08,452.401C296.289,449.221 295.552,445.845 295.659,442.101C295.869,435.549 297.615,429.572 301.466,423.6C305.051,418.082 310.079,413.869 316.582,412.407C316.528,412.114 316.474,411.822 316.42,411.53C317.051,414.887 317.657,418.23 318.271,421.543C310.64,422.911 306.67,428.233 305.848,436.147C308.043,434.455 309.792,433.346 311.006,432.804C311.018,432.798 311.029,432.793 311.041,432.788C311.029,432.793 311.018,432.798 311.006,432.804C310.168,433.179 309.055,433.843 307.733,434.768C307.596,435.48 307.477,436.209 307.396,436.974C309.593,435.282 311.342,434.176 312.556,433.637C313.725,433.112 315.02,432.849 316.402,432.849C316.454,432.849 316.506,432.85 316.559,432.851C317.828,432.87 319.011,433.141 320.113,433.622C318.6,432.592 316.91,432.041 315.035,432.01C318.044,432.059 320.575,433.451 322.666,435.999C324.77,438.51 325.886,441.208 326.023,444.273C326.034,444.516 326.038,444.752 326.034,444.982C325.987,448.309 324.489,450.383 321.352,453.532C318.172,456.67 314.361,458.261 310.092,458.261ZM310.045,448.577C310.879,449.227 311.907,449.617 313.015,449.617C313.04,449.617 313.065,449.617 313.091,449.616C315.814,449.569 318.097,447.315 318.038,444.365C318.016,442.908 317.507,441.738 316.513,440.829C315.919,440.254 315.256,439.87 314.549,439.639C313.652,438.916 312.631,438.552 311.508,438.552C311.505,438.552 311.503,438.552 311.5,438.552C310.199,438.554 309.033,439.048 308.04,440.027C307.049,440.95 306.548,442.142 306.534,443.613C306.534,443.636 306.534,443.66 306.534,443.683C306.535,446.074 308.04,447.96 310.045,448.577ZM315.043,447.274C315.927,446.361 316.48,445.099 316.482,443.661C316.482,443.627 316.482,443.592 316.481,443.558C316.507,445.038 315.948,446.339 315.043,447.274ZM294.245,444.415C294.122,443.47 294.083,442.442 294.117,441.27C294.323,434.77 296.047,428.833 299.88,422.852C303.696,416.938 309.165,412.426 316.359,411.209C309.165,412.426 303.696,416.938 299.88,422.852C296.047,428.833 294.323,434.77 294.117,441.27C294.088,442.348 294.128,443.394 294.245,444.415ZM315.01,432.01C314.963,432.009 314.916,432.009 314.869,432.009C314.916,432.009 314.963,432.009 315.01,432.01ZM314.86,432.009C314.863,432.009 314.865,432.009 314.868,432.009C314.865,432.009 314.863,432.009 314.86,432.009Z" style="fill:url(#_Linear1);"/>
        </g>
        <g transform="matrix(6.78053,0,0,6.78053,2529.58,1167.43)">
            <path d="M311.482,448.793C310.985,448.793 310.502,448.718 310.045,448.577C310.027,448.563 310.009,448.549 309.991,448.535C310.47,448.69 310.968,448.793 311.49,448.793C311.502,448.793 311.514,448.793 311.526,448.793C311.511,448.793 311.497,448.793 311.482,448.793ZM311.526,448.793C312.886,448.777 314.138,448.209 315.043,447.274C314.138,448.209 312.887,448.777 311.526,448.793ZM316.481,443.558C316.462,442.097 315.958,440.921 314.962,440.007C314.811,439.86 314.648,439.746 314.492,439.621C314.511,439.627 314.53,439.633 314.549,439.639C314.69,439.753 314.827,439.875 314.962,440.007C315.958,440.921 316.462,442.097 316.481,443.558Z" style="fill:rgb(145,25,30);fill-rule:nonzero;"/>
        </g>
        <g transform="matrix(6.78053,0,0,6.78053,2529.58,1167.43)">
            <path d="M313.015,449.617C311.907,449.617 310.879,449.227 310.045,448.577C310.502,448.718 310.985,448.793 311.482,448.793C311.497,448.793 311.511,448.793 311.526,448.793C312.887,448.777 314.138,448.209 315.043,447.274C315.948,446.339 316.507,445.038 316.481,443.558C316.462,442.097 315.958,440.921 314.962,440.007C314.827,439.875 314.69,439.753 314.549,439.639C315.256,439.87 315.919,440.254 316.513,440.829C317.507,441.738 318.016,442.908 318.038,444.365C318.097,447.315 315.814,449.569 313.091,449.616C313.065,449.617 313.04,449.617 313.015,449.617Z" style="fill:url(#_Linear2);"/>
        </g>
        <g transform="matrix(6.78053,0,0,6.78053,2529.58,1167.43)">
            <path d="M316.42,411.53C316.4,411.423 316.379,411.316 316.359,411.209C316.38,411.316 316.4,411.423 316.42,411.53Z" style="fill:rgb(145,25,30);fill-rule:nonzero;"/>
        </g>
        <g transform="matrix(6.78053,0,0,6.78053,2529.58,1167.43)">
            <path d="M303.622,458.496C301.451,457.427 299.575,455.824 298.021,453.78C295.827,450.836 294.628,447.768 294.245,444.415C294.608,447.198 295.705,449.253 297.845,452.099C297.922,452.201 298.001,452.301 298.08,452.401C298.516,453.174 299.014,453.937 299.577,454.689C300.748,456.225 302.102,457.501 303.622,458.496Z" style="fill:rgb(247,160,135);fill-rule:nonzero;"/>
        </g>
        <g transform="matrix(6.78053,0,0,6.78053,2529.58,1167.43)">
            <path d="M298.08,452.401C298.001,452.301 297.922,452.201 297.845,452.099C295.705,449.253 294.608,447.198 294.245,444.415C294.128,443.394 294.088,442.348 294.117,441.27C294.323,434.77 296.047,428.833 299.88,422.852C303.696,416.938 309.165,412.426 316.359,411.209C316.379,411.316 316.4,411.423 316.42,411.53C316.474,411.822 316.528,412.114 316.582,412.407C310.079,413.869 305.051,418.082 301.466,423.6C297.615,429.572 295.869,435.549 295.659,442.101C295.552,445.845 296.289,449.221 298.08,452.401Z" style="fill:url(#_Linear3);"/>
        </g>
        <g transform="matrix(6.78053,0,0,6.78053,2529.58,1167.43)">
            <path d="M311.041,432.788C312.203,432.27 313.49,432.01 314.86,432.009C313.49,432.01 312.203,432.27 311.041,432.788ZM315.035,432.01C315.027,432.01 315.018,432.01 315.01,432.01C315.018,432.01 315.027,432.01 315.035,432.01ZM314.869,432.009L314.868,432.009L314.869,432.009Z" style="fill:rgb(145,25,30);fill-rule:nonzero;"/>
        </g>
        <g transform="matrix(6.78053,0,0,6.78053,2529.58,1167.43)">
            <path d="M307.396,436.974C307.477,436.209 307.596,435.48 307.733,434.768C309.055,433.843 310.168,433.179 311.006,432.804C311.018,432.798 311.029,432.793 311.041,432.788C312.203,432.27 313.49,432.01 314.86,432.009L314.869,432.009C314.916,432.009 314.963,432.009 315.01,432.01C315.018,432.01 315.027,432.01 315.035,432.01C316.91,432.041 318.6,432.592 320.113,433.622C319.011,433.141 317.828,432.87 316.559,432.851C316.506,432.85 316.454,432.849 316.402,432.849C315.02,432.849 313.725,433.112 312.556,433.637C311.342,434.176 309.593,435.282 307.396,436.974Z" style="fill:url(#_Linear4);"/>
        </g>
    </g>
    <defs>
        <linearGradient id="_Linear1" x1="0" y1="0" x2="1" y2="0" gradientUnits="userSpaceOnUse" gradientTransform="matrix(-2.05674e-06,-47.0527,47.0527,-2.05674e-06,310.07,458.262)"><stop offset="0" style="stop-color:rgb(237,28,36);stop-opacity:1"/><stop offset="1" style="stop-color:rgb(250,212,55);stop-opacity:1"/></linearGradient>
        <linearGradient id="_Linear2" x1="0" y1="0" x2="1" y2="0" gradientUnits="userSpaceOnUse" gradientTransform="matrix(-2.05674e-06,-47.0527,47.0527,-2.05674e-06,310.07,458.262)"><stop offset="0" style="stop-color:rgb(237,28,36);stop-opacity:1"/><stop offset="1" style="stop-color:rgb(241,143,55);stop-opacity:1"/></linearGradient>
        <linearGradient id="_Linear3" x1="0" y1="0" x2="1" y2="0" gradientUnits="userSpaceOnUse" gradientTransform="matrix(-2.05674e-06,-47.0527,47.0527,-2.05674e-06,310.07,458.262)"><stop offset="0" style="stop-color:rgb(237,28,36);stop-opacity:1"/><stop offset="1" style="stop-color:rgb(241,143,55);stop-opacity:1"/></linearGradient>
        <linearGradient id="_Linear4" x1="0" y1="0" x2="1" y2="0" gradientUnits="userSpaceOnUse" gradientTransform="matrix(-2.05674e-06,-47.0527,47.0527,-2.05674e-06,310.07,458.262)"><stop offset="0" style="stop-color:rgb(237,28,36);stop-opacity:1"/><stop offset="1" style="stop-color:rgb(241,143,55);stop-opacity:1"/></linearGradient>
    </defs>
</svg>
