<?xml version="1.0" encoding="UTF-8" standalone="no"?>
<!DOCTYPE svg PUBLIC "-//W3C//DTD SVG 1.1//EN" "http://www.w3.org/Graphics/SVG/1.1/DTD/svg11.dtd">
<svg width="100%" height="100%" viewBox="0 0 211 355" version="1.1" xmlns="http://www.w3.org/2000/svg" xmlns:xlink="http://www.w3.org/1999/xlink" xml:space="preserve" xmlns:serif="http://www.serif.com/" style="fill-rule:evenodd;clip-rule:evenodd;stroke-linejoin:round;stroke-miterlimit:1.41421;">
    <g transform="matrix(1,0,0,1,-4781.03,-3957.59)">
        <g transform="matrix(6.78053,0,0,6.78053,2529.58,1167.43)">
            <path d="M348.66,427.437L348.761,427.191C348.269,427.256 347.778,427.322 347.287,427.391C343.838,427.865 340.396,428.508 337.457,429.107C337.223,426.413 336.951,423.751 336.625,421.18C344.098,418.52 351.095,417.393 357.89,417.88C354.96,428.534 353.207,440.053 351.338,452.183C351.113,453.634 350.889,455.086 350.663,456.539C346.754,457.347 342.913,457.676 339.157,457.534C342.537,451.366 345.353,444.358 348.1,437.549C348.703,436.052 349.309,434.554 349.919,433.064C350.121,432.57 350.324,432.078 350.527,431.585L350.34,431.609L350.439,431.365L350.251,431.391L350.351,431.146L350.163,431.171L350.263,430.926L350.075,430.951L350.175,430.707L349.987,430.731L350.086,430.487L349.898,430.512L349.998,430.268L349.811,430.293L349.91,430.048L349.723,430.073L349.822,429.828L349.634,429.854L349.733,429.608L349.545,429.634L349.645,429.39L349.457,429.413L349.558,429.169L349.368,429.193L349.469,428.949L349.28,428.975L349.381,428.729L349.192,428.755L349.292,428.51L349.103,428.535L349.204,428.291L349.015,428.315L349.115,428.071L348.927,428.096L349.026,427.852L348.838,427.877L348.939,427.631L348.749,427.657L348.85,427.411L348.66,427.437ZM363,416.545L362.853,416.52L362.919,416.323L362.772,416.298L362.838,416.102L362.691,416.076L362.758,415.88L362.609,415.855L362.676,415.659L362.529,415.633L362.596,415.436L362.448,415.41L362.515,415.214L362.366,415.188L362.435,414.992L362.286,414.966L362.353,414.769L362.205,414.743L362.271,414.546L362.124,414.52L362.191,414.324L362.042,414.298L362.109,414.101L361.961,414.074L362.028,413.878L361.88,413.852L361.947,413.654L361.798,413.628L361.865,413.431L361.717,413.405L361.784,413.208L361.636,413.182L361.703,412.983L361.554,412.957L361.622,412.76L361.473,412.733L361.54,412.536L361.392,412.509L361.459,412.311C361.093,412.245 360.728,412.181 360.361,412.118C359.351,411.946 358.342,411.81 357.332,411.709C349.728,410.934 341.811,412.286 333.442,415.71C333.209,415.805 332.976,415.9 332.742,415.996C332.78,416.241 332.817,416.486 332.855,416.731C333.536,421.139 334.058,425.799 334.417,430.555C334.441,430.876 334.465,431.197 334.489,431.519L334.564,431.503L334.58,431.727L334.655,431.712L334.671,431.936L334.747,431.92L334.763,432.145L334.838,432.129L334.854,432.353L334.929,432.339L334.944,432.562L335.021,432.548L335.035,432.771L335.11,432.757L335.126,432.981L335.201,432.967L335.216,433.192L335.291,433.177L335.306,433.402L335.382,433.388L335.397,433.611L335.472,433.599L335.486,433.822L335.561,433.809L335.576,434.033L335.652,434.02L335.667,434.245L335.742,434.23L335.757,434.456L335.832,434.442L335.846,434.668L335.922,434.653L335.936,434.879L336.012,434.865L336.025,435.091L336.101,435.076L336.115,435.303L336.189,435.289L336.204,435.516L336.28,435.501L336.294,435.727C336.593,435.674 336.892,435.62 337.19,435.566C339.171,435.21 341.525,434.788 344.027,434.381C340.728,442.579 337.268,450.86 332.85,457.33C332.583,457.72 332.315,458.106 332.046,458.49L332.255,458.528L332.126,458.712L332.336,458.75L332.206,458.933L332.417,458.971L332.288,459.154L332.497,459.193L332.368,459.376L332.578,459.415L332.449,459.598L332.66,459.637L332.529,459.82L332.74,459.858L332.611,460.042L332.821,460.081L332.692,460.265L332.903,460.304L332.772,460.486L332.984,460.526L332.854,460.709L333.065,460.749L332.936,460.933L333.146,460.972L333.017,461.155L333.228,461.194L333.098,461.379L333.309,461.418L333.179,461.602L333.39,461.642L333.26,461.825L333.473,461.865L333.341,462.049L333.554,462.089L333.423,462.272L333.635,462.312L333.504,462.496L333.716,462.536L333.585,462.721L333.798,462.76L333.667,462.944C334.153,463.035 334.639,463.123 335.124,463.207C336.279,463.407 337.461,463.564 338.634,463.67C343.409,464.108 348.43,463.718 353.472,462.485C353.671,462.437 353.869,462.389 354.067,462.34C354.338,460.464 354.606,458.591 354.876,456.722C356.9,442.665 358.855,429.501 362.737,417.79C362.852,417.448 362.966,417.107 363.081,416.767L362.933,416.741L363,416.545Z" style="fill:rgb(145,25,30);fill-rule:nonzero;"/>
        </g>
        <g transform="matrix(6.78053,0,0,6.78053,2529.58,1167.43)">
            <path d="M335.063,457.201C340.1,457.859 345.321,457.646 350.663,456.539C350.889,455.086 351.113,453.634 351.338,452.183C353.455,438.459 355.409,425.489 359.116,413.719C351.304,412.628 343.271,413.759 334.662,417.087C335.227,421.043 335.673,425.184 336.002,429.406C339.219,428.732 343.251,427.945 347.287,427.391C347.778,427.322 348.269,427.256 348.761,427.191C348.557,427.686 348.353,428.18 348.15,428.674C347.538,430.167 346.933,431.667 346.329,433.165C342.954,441.549 339.501,450.222 335.063,457.201ZM336.936,459.196C335.781,459.09 334.618,458.936 333.481,458.743C333.003,458.662 332.524,458.577 332.046,458.49C332.315,458.106 332.583,457.72 332.85,457.33C337.619,450.346 341.271,441.253 344.814,432.427C345.217,431.425 345.618,430.42 346.023,429.416C342.139,429.996 338.346,430.738 335.387,431.337C335.088,431.397 334.788,431.458 334.489,431.519C334.465,431.197 334.441,430.876 334.417,430.555C334.057,425.799 333.536,421.138 332.855,416.731C332.817,416.486 332.78,416.241 332.742,415.996C332.976,415.9 333.209,415.805 333.442,415.71C341.811,412.286 349.728,410.933 357.332,411.709C358.342,411.81 359.351,411.946 360.361,412.118C360.728,412.181 361.093,412.245 361.459,412.311C361.341,412.655 361.225,413 361.108,413.346C357.142,425.159 355.122,438.385 352.997,452.453C352.715,454.323 352.434,456.196 352.15,458.072C351.954,458.116 351.758,458.16 351.562,458.203C346.584,459.312 341.64,459.638 336.936,459.196Z" style="fill:rgb(145,25,30);fill-rule:nonzero;"/>
        </g>
        <g transform="matrix(6.78053,0,0,6.78053,2529.58,1167.43)">
            <path d="M360.283,412.999C355.86,426.365 353.81,441.752 351.405,457.31C345.541,458.607 339.56,458.871 333.561,457.869C339.153,449.611 343.1,438.799 347.392,428.298C343.327,428.857 339.277,429.629 335.245,430.466C334.896,425.764 334.396,421.109 333.704,416.533C342.276,413.061 351.246,411.45 360.283,412.999Z" style="fill:white;fill-rule:nonzero;"/>
        </g>
        <g transform="matrix(6.78053,0,0,6.78053,2529.58,1167.43)">
            <path d="M341.103,456.833C339.671,456.833 338.189,456.745 336.562,456.559C341.394,448.538 345.018,438.679 348.946,429.134C348.275,429.222 347.602,429.333 346.932,429.432C347.037,429.171 347.142,428.909 347.25,428.645C347.297,428.53 347.344,428.414 347.392,428.298C343.824,428.789 340.267,429.444 336.723,430.162C336.393,425.782 335.948,421.437 335.341,417.158C341.479,414.773 347.816,413.348 354.229,413.348C356.16,413.348 358.096,413.477 360.038,413.748C355.781,426.872 353.326,440.352 350.934,455.617C347.216,456.396 344.283,456.833 341.103,456.833ZM335.245,430.466C335.267,430.461 335.289,430.457 335.31,430.452C335.289,430.457 335.267,430.461 335.245,430.466ZM333.796,416.496C333.849,416.475 333.901,416.454 333.954,416.433C333.901,416.454 333.849,416.475 333.796,416.496ZM334.033,416.401C334.038,416.399 334.043,416.397 334.047,416.396C334.043,416.397 334.038,416.399 334.033,416.401ZM360.273,413.03C360.276,413.02 360.28,413.009 360.283,412.999C360.28,413.01 360.276,413.02 360.273,413.03ZM360.283,412.999C357.945,412.598 355.611,412.409 353.287,412.409C355.611,412.409 357.944,412.598 360.283,412.999ZM353.279,412.409C353.281,412.409 353.283,412.409 353.285,412.409C353.283,412.409 353.281,412.409 353.279,412.409Z" style="fill:url(#_Linear1);"/>
        </g>
        <g transform="matrix(6.78053,0,0,6.78053,2529.58,1167.43)">
            <path d="M335.31,430.452C335.781,430.355 336.252,430.258 336.723,430.162C336.723,430.165 336.723,430.167 336.724,430.169C336.252,430.265 335.781,430.355 335.31,430.452ZM333.704,416.533C333.735,416.521 333.766,416.508 333.796,416.496C333.766,416.508 333.735,416.521 333.704,416.533ZM333.954,416.433C333.98,416.422 334.007,416.411 334.033,416.401C334.007,416.411 333.98,416.422 333.954,416.433ZM334.047,416.396C340.293,413.905 346.745,412.41 353.279,412.409C346.745,412.41 340.292,413.905 334.047,416.396ZM360.046,413.749C360.043,413.749 360.041,413.748 360.038,413.748C360.069,413.654 360.099,413.559 360.13,413.465C360.178,413.32 360.225,413.175 360.273,413.03C360.195,413.268 360.124,413.511 360.046,413.749ZM353.287,412.409C353.287,412.409 353.286,412.409 353.285,412.409C353.286,412.409 353.287,412.409 353.287,412.409Z" style="fill:rgb(145,25,30);fill-rule:nonzero;"/>
        </g>
        <g transform="matrix(6.78053,0,0,6.78053,2529.58,1167.43)">
            <path d="M360.038,413.748C360.069,413.654 360.099,413.559 360.13,413.465C360.099,413.559 360.069,413.654 360.038,413.748Z" style="fill:rgb(247,160,135);fill-rule:nonzero;"/>
        </g>
        <g transform="matrix(6.78053,0,0,6.78053,2529.58,1167.43)">
            <path d="M335.245,430.466C334.896,425.764 334.396,421.109 333.704,416.533C333.735,416.521 333.766,416.508 333.796,416.496C333.849,416.475 333.901,416.454 333.954,416.433C333.98,416.422 334.007,416.411 334.033,416.401C334.038,416.399 334.043,416.397 334.047,416.396C340.292,413.905 346.745,412.41 353.279,412.409L353.287,412.409C355.611,412.409 357.945,412.598 360.283,412.999C360.28,413.009 360.276,413.02 360.273,413.03C360.225,413.175 360.178,413.32 360.13,413.465C360.099,413.559 360.069,413.654 360.038,413.748C358.096,413.477 356.16,413.348 354.229,413.348C347.816,413.348 341.479,414.773 335.341,417.158C335.948,421.437 336.393,425.782 336.723,430.162C336.252,430.258 335.781,430.355 335.31,430.452C335.289,430.457 335.267,430.461 335.245,430.466Z" style="fill:url(#_Linear2);"/>
        </g>
        <g transform="matrix(6.78053,0,0,6.78053,2529.58,1167.43)">
            <path d="M333.561,457.869C335.052,455.666 336.428,453.281 337.723,450.768C336.428,453.28 335.053,455.666 333.561,457.869ZM337.733,450.749C337.736,450.744 337.738,450.74 337.741,450.735C337.738,450.739 337.736,450.744 337.733,450.749Z" style="fill:rgb(145,25,30);fill-rule:nonzero;"/>
        </g>
        <g transform="matrix(6.78053,0,0,6.78053,2529.58,1167.43)">
            <path d="M335.57,458.152C334.899,458.071 334.23,457.98 333.561,457.869C335.053,455.666 336.428,453.28 337.723,450.768C337.727,450.762 337.73,450.756 337.733,450.749C337.736,450.744 337.738,450.739 337.741,450.735C341.119,444.177 343.96,436.752 346.931,429.433C346.931,429.432 346.931,429.432 346.932,429.432C342.917,439.444 340.489,448.202 335.222,456.389C335.68,456.453 336.127,456.509 336.562,456.559C336.237,457.099 335.907,457.63 335.57,458.152Z" style="fill:rgb(247,160,135);fill-rule:nonzero;"/>
        </g>
        <g transform="matrix(6.78053,0,0,6.78053,2529.58,1167.43)">
            <path d="M336.562,456.559C336.127,456.509 335.68,456.453 335.222,456.389C340.489,448.202 342.917,439.444 346.932,429.432C347.602,429.333 348.275,429.222 348.946,429.134C345.018,438.679 341.394,448.538 336.562,456.559Z" style="fill:url(#_Linear3);"/>
        </g>
    </g>
    <defs>
        <linearGradient id="_Linear1" x1="0" y1="0" x2="1" y2="0" gradientUnits="userSpaceOnUse" gradientTransform="matrix(-1.94183e-06,-44.4238,44.4238,-1.94183e-06,346.994,456.833)"><stop offset="0" style="stop-color:rgb(237,28,36);stop-opacity:1"/><stop offset="1" style="stop-color:rgb(250,212,55);stop-opacity:1"/></linearGradient>
        <linearGradient id="_Linear2" x1="0" y1="0" x2="1" y2="0" gradientUnits="userSpaceOnUse" gradientTransform="matrix(-1.94183e-06,-44.4238,44.4238,-1.94183e-06,346.994,456.833)"><stop offset="0" style="stop-color:rgb(237,28,36);stop-opacity:1"/><stop offset="1" style="stop-color:rgb(241,143,55);stop-opacity:1"/></linearGradient>
        <linearGradient id="_Linear3" x1="0" y1="0" x2="1" y2="0" gradientUnits="userSpaceOnUse" gradientTransform="matrix(-1.94183e-06,-44.4238,44.4238,-1.94183e-06,346.994,456.833)"><stop offset="0" style="stop-color:rgb(237,28,36);stop-opacity:1"/><stop offset="1" style="stop-color:rgb(241,143,55);stop-opacity:1"/></linearGradient>
    </defs>
</svg>
