<?xml version="1.0" encoding="UTF-8" standalone="no"?>
<!-- Generator: Adobe Illustrator 21.0.0, SVG Export Plug-In . SVG Version: 6.00 Build 0)  -->

<svg
   xmlns:dc="http://purl.org/dc/elements/1.1/"
   xmlns:cc="http://creativecommons.org/ns#"
   xmlns:rdf="http://www.w3.org/1999/02/22-rdf-syntax-ns#"
   xmlns:svg="http://www.w3.org/2000/svg"
   xmlns="http://www.w3.org/2000/svg"
   xmlns:sodipodi="http://sodipodi.sourceforge.net/DTD/sodipodi-0.dtd"
   xmlns:inkscape="http://www.inkscape.org/namespaces/inkscape"
   version="1.1"
   id="Layer_1"
   x="0px"
   y="0px"
   viewBox="0 0 792.06177 759.25903"
   xml:space="preserve"
   sodipodi:docname="8024.svg"
   width="792.06177"
   height="759.25903"
   inkscape:version="0.92.3 (2405546, 2018-03-11)"><metadata
   id="metadata51"><rdf:RDF><cc:Work
       rdf:about=""><dc:format>image/svg+xml</dc:format><dc:type
         rdf:resource="http://purl.org/dc/dcmitype/StillImage" /><dc:title></dc:title></cc:Work></rdf:RDF></metadata><defs
   id="defs49" /><sodipodi:namedview
   pagecolor="#ffffff"
   bordercolor="#666666"
   borderopacity="1"
   objecttolerance="10"
   gridtolerance="10"
   guidetolerance="10"
   inkscape:pageopacity="0"
   inkscape:pageshadow="2"
   inkscape:window-width="640"
   inkscape:window-height="480"
   id="namedview47"
   showgrid="false"
   fit-margin-top="0"
   fit-margin-left="0"
   fit-margin-right="0"
   fit-margin-bottom="0"
   inkscape:zoom="0.27314815"
   inkscape:cx="395.93389"
   inkscape:cy="379.62076"
   inkscape:window-x="0"
   inkscape:window-y="0"
   inkscape:window-maximized="0"
   inkscape:current-layer="Layer_1" />
<style
   type="text/css"
   id="style2">
	.st0{fill:#FFFFFF;}
</style>
<g
   id="g44"
   transform="translate(-36.066106,-52.361741)">
	<path
   d="m 81.9,698.3 c 2.3,-0.4 4,-1.9 4.9,-4.1 0.6,-1.3 1.1,-2.7 1.3,-4.2 0.8,-5.5 -1.4,-9.3 -6.6,-11.4 -0.8,-0.3 -1.7,-0.7 -2.5,-1 -3.3,-1.3 -4.7,-3.6 -4.7,-7.2 0.1,-31.9 0,-63.8 0,-95.6 0,-0.8 0.1,-1.5 0.1,-2.3 0.8,0.4 1.2,0.9 1.5,1.5 1.7,3.4 3.5,6.8 5,10.4 8.2,19.4 12.5,39.8 14.8,60.7 0.3,2.8 0.6,5.5 1.1,8.3 0.4,2.1 1.4,3.8 3.8,4.2 7,1.3 12.2,-2.6 12.8,-9.7 0.3,-3.5 0.7,-7 1.2,-10.5 1.5,-10.9 3.8,-21.5 6.6,-32.1 3.4,-12.8 7.3,-25.4 13.1,-37.4 0.2,-0.4 0.6,-0.8 1.2,-1.7 0,1.3 0,1.9 0,2.6 0,30.5 0,61 0,91.5 0,1 0,2 -0.1,2.9 -0.4,3.6 -1.8,6.6 -5.1,8.4 -1.2,0.6 -2.2,1.4 -3.3,2.1 -5.4,3.7 -6.1,10.1 -4.7,14.6 0.8,2.6 2.6,4.1 5.4,4.2 2,0 4,0.1 5.9,-0.3 9.4,-1.7 18.8,-3.5 28.1,-5.4 5,-1 9.9,-2.2 14.7,-3.5 6.2,-1.7 8.2,-7.5 7.9,-12.4 -0.3,-4.4 -2.3,-6.7 -6.5,-7.8 -1,-0.3 -2.1,-0.5 -3.1,-0.8 -2.8,-0.9 -4.1,-2.6 -4.2,-5.6 0,-0.7 0,-1.5 0,-2.2 0,-31.8 0,-63.6 0,-95.4 0,-2.8 0.1,-5.6 0.3,-8.3 0.5,-7.8 3.4,-14.4 9.5,-19.4 0.7,-0.6 1.3,-1.2 2,-1.8 2.5,-2.6 3.7,-5.7 3.5,-9.4 -0.2,-3.8 -2.2,-6.3 -5.9,-7.2 -1.4,-0.4 -2.9,-0.5 -4.4,-0.5 -12.5,0 -23.5,4.3 -33,12.3 -6.8,5.8 -12,12.9 -16.5,20.5 -5.4,9.2 -9.6,18.9 -13.7,28.7 -0.4,0.9 -0.8,1.7 -1.3,3.1 -0.5,-1.3 -0.8,-2.1 -1.2,-2.9 -3.8,-9.7 -7.3,-19.6 -12.1,-28.9 -3,-5.8 -6.6,-11.3 -11.1,-16.1 -2.1,-2.2 -4.4,-3.8 -7.4,-4.4 -4,-0.8 -7.3,0.5 -10.4,3.1 -7.9,6.7 -16.8,11.8 -26.5,15.4 -7.8,2.9 -7.7,12.7 -2.9,16.4 1.7,1.3 3.5,2.3 5.5,3.2 4.9,2.1 7.6,5.9 7.6,11.1 0,31.6 0,63.1 0,94.7 0,1.8 -0.2,3.6 -0.6,5.3 -0.5,2.5 -1.9,4.5 -4.4,5.5 -0.8,0.3 -1.6,0.8 -2.4,1.2 -6.2,3.6 -7.1,8.1 -6.2,13.4 0.6,3.4 2.7,5.7 6.3,6.3 0.5,0.1 0.9,0.3 1.4,0.4 3.8,0 7.5,0 11.3,0 0.5,-0.1 0.9,-0.4 1.4,-0.4 4.1,-0.2 8.2,-0.3 12.2,-0.7 3.5,-0.3 6.9,-0.8 10.4,-1.4 z"
   id="path4"
   inkscape:connector-curvature="0" />
	<path
   d="m 798.9,164.7 c -3.9,1 -7.8,0.7 -11.7,-0.1 -2.6,-0.5 -5.2,-1 -7.9,-1.5 -2.9,0 -5.9,0 -8.8,0 -0.3,0.1 -0.5,0.4 -0.8,0.4 -8.8,1.5 -15.5,6.3 -20.9,13 -5.8,7.2 -8.3,15.6 -8.2,24.8 0.2,12.5 5.2,22 16.5,28 0.4,0.2 0.7,0.5 1.4,0.9 -0.9,0.3 -1.5,0.6 -2.1,0.8 -23.7,7.6 -32.9,32.8 -27.5,51.5 3.3,11.3 10.3,19.1 21.8,22.5 8.2,2.4 16.5,3.1 24.9,1.3 11.3,-2.3 21.4,-7.1 29,-15.8 12.7,-14.4 16.3,-31.1 11.3,-49.6 -2.3,-8.3 -6.9,-15.1 -13.9,-20.2 -4.8,-3.5 -10,-6.6 -15.2,-9.4 -5.4,-2.9 -10.8,-5.9 -16,-9 -8.3,-4.9 -8.1,-16.5 -0.7,-22.3 4.1,-3.3 11.8,-4.2 15.6,3.2 0.6,1.1 1.1,2.2 1.5,3.4 0.6,2 1.1,4.1 1.5,6.2 0.6,3.4 1.1,6.8 2.8,9.8 2.3,4 6.6,4.4 9.8,1 1.3,-1.5 1.9,-3.3 2.1,-5.1 1.2,-9.3 2.3,-18.6 3.4,-28 0.1,-0.6 0.1,-1.3 0,-2 -0.2,-2.3 -1.5,-3.8 -3.8,-4.1 -1.3,0 -2.8,0 -4.1,0.3 z m -33.5,89.6 c 0.7,1.5 0.8,3.2 -0.2,4.7 -0.4,0.5 -0.8,1 -1.2,1.5 -2.7,3.2 -1.1,7.9 3.1,8.7 4.9,0.9 9.3,-0.3 12.7,-4.1 5,-5.7 6.3,-12.2 4.2,-19.4 -0.2,-0.7 -0.4,-1.3 -0.7,-2.2 13.2,9.5 12.4,23 4.9,32.4 -5.8,7.3 -13.6,10.3 -22.8,9 -6.6,-0.9 -11.6,-4.5 -13.9,-10.9 -2.3,-6.6 -1.2,-12.7 3.5,-18.1 1.8,-2 4,-3.3 6.8,-3.3 1.5,-0.2 2.9,0.1 3.6,1.7 z"
   id="path6"
   inkscape:connector-curvature="0" />
	<path
   d="m 407.6,587 c -1.1,1.8 -2.3,3.6 -3.2,5.5 -1.3,2.7 -1.6,5.6 -0.7,8.6 0.8,2.4 2.3,3.8 4.9,3.6 2.1,-0.1 4.2,-0.6 6.2,-1.3 5.2,-1.9 10.4,-4 15.5,-6.1 5.8,-2.3 11.7,-4.7 17.5,-7.1 5.4,-2.3 8.3,-6.6 9.5,-12.3 0.9,-4.5 0.7,-9.1 -0.1,-13.6 -2.2,-13 -8.4,-23.4 -19.9,-30.3 -5,-3 -10.3,-5.2 -15.8,-7.2 -2.5,-0.9 -5.1,-1.7 -7.8,-2.6 0.5,-0.6 0.8,-1 1.1,-1.5 2.6,-3.3 5.3,-6.4 7.7,-9.9 7.4,-10.8 12.7,-22.5 13.8,-35.7 0.8,-9.2 -0.5,-18.1 -4.2,-26.6 -2.2,-5 -5.2,-9.6 -10.1,-12.4 -8.9,-5.1 -18.4,-5.8 -27.7,-1.4 -4.3,2 -8.4,4.7 -12.3,7.6 -5.2,3.8 -10.1,8.1 -15.1,12.1 -7.6,6 -15.5,11.5 -24.5,15.3 -3.2,1.4 -6.3,3.2 -8.9,5.5 -2.1,1.8 -3.8,3.9 -4.5,6.6 -1.4,5.5 0,9.9 6.6,10.5 0.2,0 0.5,0 0.7,0.1 1,0.4 2.1,0.6 2.9,1.2 2.8,2.6 4.9,5.6 4.9,9.7 0,11.2 0,22.4 0,33.6 0,0.8 0,1.6 0,2.4 -0.4,0.2 -0.7,0.3 -1,0.4 -7.1,2.4 -11.8,9.9 -11,17.2 0.4,3.4 2.2,5.4 5.7,5.6 1.5,0.1 3.1,-0.2 4.6,-0.3 0.5,0 1.1,-0.1 1.7,-0.2 0,0.7 0.1,1.3 0.1,1.9 0,11 0,22.1 0,33.1 0,1.3 -0.1,2.6 -0.3,3.9 -0.5,3.1 -1.7,5.8 -4.2,7.8 -1.3,1.1 -2.6,2.2 -3.9,3.4 -4.1,3.9 -6.3,8.5 -5.2,14.3 0.7,3.8 3,5.3 6.7,4.5 2.2,-0.5 4.4,-1.2 6.6,-2 12.1,-4.6 24.3,-9.3 36.4,-13.9 2,-0.8 3.9,-1.7 5.8,-2.7 4.8,-2.6 6.9,-6.8 7,-12.1 0.1,-4.6 -2.7,-7.5 -7.3,-7.8 -1.1,-0.1 -2.3,-0.1 -3.4,-0.3 -2.1,-0.3 -3,-1.2 -3.4,-3.3 -0.1,-0.6 -0.1,-1.1 -0.1,-1.7 0,-12.2 0,-24.4 0,-36.5 0,-0.6 0.1,-1.3 0.1,-2 3.2,-1.5 6.5,-2.2 9.9,-2.7 8.9,-1.2 18,2.9 21.9,10.5 4.6,9.1 5.3,18.1 -1.6,26.6 -0.7,0.6 -1.2,1.3 -1.6,2 z m -8,-96.9 c -0.5,8.4 -2.3,16.5 -6.2,24 -2.8,5.4 -6.6,9.9 -12.1,12.7 -0.7,0.4 -1.4,0.7 -2.6,1.3 0,-1.1 0,-1.8 0,-2.4 0,-16.2 0,-32.3 0,-48.5 0,-3.7 0.6,-7.3 2.3,-10.7 0.8,-1.6 1.9,-3.3 3.2,-4.6 3.4,-3.3 8,-2.9 10.8,0.9 1.7,2.3 2.6,4.9 3.3,7.6 1.6,6.5 1.7,13.1 1.3,19.7 z"
   id="path8"
   inkscape:connector-curvature="0" />
	<path
   d="m 539.5,533.5 c -1.5,1.6 -2.8,3.4 -4.2,5.1 -2.2,2.7 -3.1,5.9 -2.8,9.4 0.4,4.7 3.9,7.4 8.5,6.3 2.2,-0.5 4.4,-1.3 6.5,-2.1 11.4,-4 22.8,-8 34.2,-12 4.2,-1.4 6.8,-4.2 7.6,-8.5 0.4,-2.1 0.8,-4.4 0.6,-6.6 -1.3,-16.4 -5.9,-31.8 -13.9,-46.1 -7.8,-14 -19,-24.2 -34.2,-29.7 -0.4,-0.2 -0.9,-0.4 -1.4,-0.6 0.3,-0.6 0.6,-1 0.8,-1.4 4.8,-6.3 8.6,-13.1 11.8,-20.3 2.9,-6.6 5.8,-13.2 8.6,-19.7 2,-4.5 4.6,-8.4 8,-11.9 2.2,-2.3 4.2,-4.8 6.1,-7.3 2.1,-2.8 2.6,-6.1 1.7,-9.6 -0.7,-2.9 -2.3,-4.2 -5.2,-4.2 -1.8,0 -3.6,0.3 -5.3,0.8 -2.7,0.8 -5.4,1.8 -8.1,2.8 -5.5,2 -10.9,3.9 -16.4,5.9 -5.9,2.2 -9.3,6.4 -10.3,12.6 -0.3,2 -0.5,4.1 -0.4,6.1 0.2,8.4 -0.7,16.6 -2.5,24.8 -1.5,7 -3.3,13.8 -6.7,20.2 -1.5,2.9 -3.4,5.6 -5.9,7.7 -0.8,0.7 -1.8,1.2 -3.1,2 0,-1.3 0,-2.1 0,-2.9 0,-6.3 0.2,-12.6 -0.1,-18.9 -0.3,-6.9 0.5,-13.5 3.3,-19.8 0.7,-1.5 1.3,-3 2.2,-4.3 1.6,-2.4 3.3,-4.7 4.9,-7 2,-2.9 2.5,-6.2 1.9,-9.6 -0.7,-4.2 -4.2,-5.9 -8.1,-4.2 -0.7,0.3 -1.5,0.7 -2.1,1.2 -2.6,2.1 -5.3,4.1 -7.8,6.4 -6.7,6.3 -13.9,11.9 -22.1,16.1 -4.7,2.5 -9.4,4.9 -14.1,7.4 -1.6,0.9 -3.1,1.8 -4.4,3 -3.6,3.1 -5,7.2 -4.3,11.9 0.4,2.5 1.6,3.8 4.1,4.2 2.2,0.4 4.5,0.8 6.7,1.2 3.8,0.7 4.8,2 4.8,5.8 0,6.9 0,13.7 0,20.6 0,0.7 -0.1,1.4 -0.1,2.2 -0.6,0.2 -1.2,0.4 -1.7,0.6 -7.1,2.6 -11.4,10.2 -9.9,17.7 0.6,3.3 3.1,5.3 6.6,4.6 1.6,-0.3 3.3,-0.6 5,-0.9 0.1,0.4 0.2,0.7 0.2,0.9 0,17.8 0.1,35.6 0,53.5 0,5.1 -1.6,9.6 -6,12.8 -2.4,1.7 -4.2,4.1 -5.8,6.6 -1.8,3 -2.4,6.2 -1.9,9.6 0.6,3.7 2.8,5.3 6.4,4.6 1.9,-0.4 3.8,-1 5.6,-1.7 9.9,-3.8 19.8,-7.6 29.7,-11.4 4.2,-1.6 8.4,-3.2 12.5,-5 7.3,-3.2 8.6,-8.8 8.1,-14.4 -0.3,-3.5 -2.4,-5.6 -5.9,-6.1 -1.1,-0.1 -2.1,-0.3 -3.2,-0.4 -3.6,-0.5 -4.6,-1.7 -4.6,-5.3 0,-18.2 0,-36.5 0,-54.7 0,-0.8 0,-1.6 0,-2.5 4.7,-1.5 9,-1 13.2,1.3 2.7,1.5 4.9,3.6 6.8,5.9 8.6,10.4 11.7,22.6 10.8,35.9 -0.2,4.3 -1.8,8.1 -4.7,11.4 z"
   id="path10"
   inkscape:connector-curvature="0" />
	<path
   d="m 613.6,502.1 c -0.5,2.9 -1.7,5.4 -4.2,7.3 -1.5,1.1 -3,2.3 -4.3,3.6 -3.9,3.7 -5.7,8.1 -4.8,13.5 0.6,3.8 3,5.6 6.8,4.9 2.2,-0.4 4.5,-1 6.6,-1.7 11.7,-3.4 23.3,-6.9 35,-10.2 9.3,-2.6 18.6,-5 27.9,-7.4 1.1,-0.3 2.1,-0.6 3.2,0.3 5.1,4.2 12.3,1.8 15.6,-2.1 2.2,-2.6 3.2,-5.6 3.5,-9 0.5,-5.6 0.8,-11.3 1.7,-16.8 1.3,-9 2.8,-18.1 5.4,-26.9 0.8,-2.8 1,-5.8 0.3,-8.7 -0.8,-3.3 -3,-5.1 -6.3,-5.1 -3.4,0.1 -6.5,1.2 -8.5,4.2 -1.5,2.4 -2.9,4.9 -3.9,7.6 -2.1,5.7 -3.8,11.5 -5.9,17.1 -2.5,7 -5.8,13.5 -10.9,19 -3.1,3.3 -6.7,5.7 -11.2,6.6 -3.7,0.7 -6.7,-0.6 -8.5,-3.8 -0.8,-1.4 -1.4,-3 -1.7,-4.5 -0.5,-2.5 -0.8,-5 -0.8,-7.5 -0.1,-13 0,-26 0,-39 0,-4.3 0.1,-4.4 4.2,-5.8 1.8,-0.6 3.3,-0.2 4.5,1 0.9,1 1.8,2.1 2.4,3.4 0.8,1.8 1.3,3.7 1.9,5.6 0.7,2.5 1.3,5.1 2.1,7.5 0.9,2.7 3,4.1 5.6,3.9 3.7,-0.3 6.5,-1.9 8.2,-5.3 1.2,-2.3 1.5,-4.9 1.2,-7.4 -0.4,-3.1 -1,-6.3 -1.7,-9.4 -1.1,-4.9 -2.5,-9.6 -3.4,-14.5 -0.8,-3.8 -1.1,-7.8 -1.7,-11.6 -0.2,-1.4 -0.7,-2.9 -1.3,-4.2 -1.3,-2.9 -3.6,-3.8 -6.7,-2.9 -3.3,0.9 -5.6,3 -6.7,6.2 -0.5,1.4 -0.8,3 -1,4.5 -0.1,0.8 -0.3,1.4 -1.1,1.7 -2,0.8 -4,1.7 -6.5,2.8 0,-1.4 0,-2.3 0,-3.2 0,-7.2 0,-14.4 0,-21.6 0,-7.1 0,-14.2 0,-21.3 0,-1.4 0.3,-2.3 1.5,-3.1 2.6,-1.7 5,-3.7 7.7,-5.1 1.9,-1 4.1,-1.7 6.2,-2.2 4,-0.8 7.3,0.9 9.2,4.4 0.7,1.2 1.2,2.5 1.6,3.8 1.2,5.1 2.4,10.2 3.5,15.3 0.6,2.6 0.9,5.2 2.2,7.5 1.7,3 4.1,4 7.4,3.1 3.7,-0.9 6.3,-3.2 7.4,-6.8 0.8,-2.5 1.3,-5.1 1.4,-7.7 0.3,-12.5 1,-25 3.3,-37.3 0.3,-1.5 0.1,-3.1 -0.3,-4.6 -1.3,-4.5 -5.2,-6.1 -9.5,-4.2 -2.5,1.1 -4.2,3.1 -5.7,5.3 -0.5,0.6 -0.9,1.3 -1.3,1.8 -0.3,-0.1 -0.4,-0.1 -0.5,-0.1 -0.3,-0.2 -0.6,-0.3 -0.9,-0.5 -6.5,-3.9 -13.3,-4.3 -20.2,-1.6 -2.8,1.1 -5.5,2.5 -8.1,4.1 -5.5,3.5 -10.9,7.2 -16.4,10.8 -8.8,5.7 -17.6,11.3 -27.3,15.4 -2,0.8 -3.9,1.8 -5.7,2.8 -3.1,1.8 -5.2,4.5 -5.8,8.1 -0.8,5.3 0.4,9.4 6.8,10.2 0.1,0 0.2,0 0.2,0 1.4,0.1 2.5,0.9 3.2,2 0.8,1.1 1.5,2.3 2.2,3.5 0.7,1.3 1.1,2.8 2,3.9 0.8,1.1 1,2.1 1,3.4 0,7.2 0,14.4 0,21.6 0,0.8 0,1.6 0,2.3 -1,0.3 -1.7,0.5 -2.3,0.8 -2,0.9 -4.1,1.8 -5.9,2.9 -5,3.3 -6.7,9 -5.3,14.7 0.7,2.7 2.6,4.4 5.5,4.4 2.1,0 4.2,-0.4 6.3,-0.7 0.5,-0.1 1,-0.1 1.6,-0.2 0,0.6 0.1,1 0.1,1.4 0,14.9 0,29.8 0,44.6 0.3,2 0.1,3.6 -0.1,5.2 z"
   id="path12"
   inkscape:connector-curvature="0" />
	<path
   d="m 264.7,640.5 c -3.6,3.4 -4.3,7.8 -3.6,12.4 0.5,3.3 3,5 6.4,4.6 1.4,-0.2 2.9,-0.5 4.3,-1 14,-4.8 27.9,-9.6 41.9,-14.6 2.3,-0.8 4.5,-2 6.5,-3.3 2.8,-1.8 4.9,-4.2 5.7,-7.4 1.8,-7.1 -0.6,-10.3 -5.5,-11.5 -0.2,0 -0.3,-0.1 -0.5,-0.2 -2.9,-1.1 -4.9,-3 -6.1,-5.9 -6.1,-15.7 -12.4,-31.4 -18.6,-47.2 -9.2,-23.5 -18.4,-47 -27.7,-70.4 -0.8,-2 -1.9,-4 -3.2,-5.7 -2,-2.5 -4.4,-3 -7.2,-1.3 -1.9,1.2 -3.8,2.6 -5.4,4.2 -6.2,6.2 -12.5,12.2 -19.7,17.2 -1.8,1.3 -3.4,3.1 -4.8,4.9 -1.8,2.1 -2.1,4.7 -1.5,7.4 0.4,2.1 1.5,3.6 3.6,4.2 1.2,0.4 2.5,0.8 3.7,1.3 3.1,1.1 4.4,2.9 4.1,6.1 -0.2,2.3 -0.7,4.5 -1.4,6.7 -6.6,21 -13.2,42.1 -19.8,63.1 -0.2,0.6 -0.5,1.2 -0.7,1.7 -7.9,0.6 -11.7,4.2 -12.1,11.3 -0.3,4.7 1.5,7.5 5.1,8.8 0.2,0.1 0.4,0.3 0.7,0.4 -0.1,0.6 -0.2,1.1 -0.4,1.6 -1.4,4.9 -3,9.8 -4.3,14.8 -1.3,4.8 -3.5,9.1 -6.5,13.1 -1.3,1.7 -2.8,3.4 -4.1,5.2 -1.6,2.2 -3.2,4.4 -4.5,6.7 -1.3,2.3 -1.3,4.8 -0.6,7.4 0.7,2.5 2.3,3.9 4.9,4 1.4,0.1 2.9,-0.2 4.4,-0.5 3.4,-0.8 6.8,-1.7 10.2,-2.6 6,-1.6 12,-3.3 17.9,-5 4.9,-1.4 8.7,-4.4 10.2,-9.4 1.7,-5.9 -0.3,-9.9 -5.5,-11.6 -1,-0.3 -2,-0.7 -3,-1.1 -3.1,-1.2 -4.5,-3.2 -3.8,-6.5 0.9,-4.4 2.4,-8.6 3.6,-12.9 16.3,1.8 30.3,-3 42.7,-13.1 0.9,2.5 1.7,4.9 2.5,7.2 1.6,4.5 0.9,8.5 -2.7,11.9 -1.7,1.5 -3.4,3.3 -5.2,5 z m -30.8,-32.1 c 5.1,-16.2 10.2,-32.2 15.2,-48.2 0.2,0 0.3,0 0.5,-0.1 4.6,12.8 9.3,25.6 13.9,38.5 -8.7,6.9 -18.1,11 -29.6,9.8 z"
   id="path14"
   inkscape:connector-curvature="0" />
	<path
   d="m 460,272.3 c 0.7,-0.6 1.2,-1.3 1.7,-2.1 0.7,-1.2 1.4,-2.5 1.7,-3.8 0.9,-4.9 -0.4,-8.6 -6.8,-8.1 -4.1,0.3 -8,1.6 -11.7,3.3 -9.8,4.5 -17.4,11.7 -23.4,20.7 -4.4,6.7 -8.1,13.8 -11.3,21.2 -2.5,5.9 -4.9,11.9 -7.5,18.4 -1.3,-2.9 -2.3,-5.5 -3.5,-7.9 -2.4,-5.1 -4.8,-10.2 -7.5,-15.1 -2.2,-4 -5.2,-7.5 -8.9,-10.3 -2.3,-1.7 -4.7,-2.1 -7.4,-1.4 -2.8,0.7 -4.8,2.4 -6.6,4.5 -6.6,7.6 -14,14.4 -22.1,20.5 -2,1.5 -3.7,3.3 -4.4,5.8 -1.7,5.8 0.4,9.2 6.2,9.3 0.1,0 0.2,0 0.2,0 3.8,0.2 6,2.3 6.3,6.1 0,0.7 0,1.3 0,2 0,24.8 0,49.7 0,74.5 0,1 0,2 -0.1,2.9 -0.2,3.7 -1.5,6.8 -4.5,9.1 -1.6,1.3 -3.1,2.9 -4.4,4.6 -1.9,2.4 -2.6,5.2 -2.3,8.3 0.3,3.4 2.2,4.9 5.5,4.3 1.5,-0.3 3,-0.7 4.5,-1.3 6.7,-2.5 13.4,-5.1 20.1,-7.7 1.7,-0.7 3.3,-1.5 4.9,-2.3 3.2,-1.6 4.8,-4.5 5.2,-7.8 0.6,-5 -0.3,-8.1 -6.6,-8.4 -3.6,-0.2 -4.5,-1.3 -4.5,-4.9 0,-25.9 0,-51.8 0,-77.7 0,-0.6 0.1,-1.2 0.2,-2.2 0.6,0.8 1,1.2 1.3,1.6 1.4,2.5 3,4.9 4.2,7.5 6.1,13.6 9.9,27.8 11.5,42.6 0.3,2.9 0.5,5.9 1,8.8 0.4,2.6 1.6,3.2 4.2,2.8 5.5,-1 9,-4.9 9.4,-10.4 0.2,-2.4 0.5,-4.7 0.7,-7.1 1.2,-10 3.4,-19.8 5.7,-29.6 2.6,-10.9 5.8,-21.6 10.3,-31.9 0.3,-0.6 0.6,-1.2 1,-1.8 0.1,0.1 0.2,0.1 0.3,0.2 0,0.4 0,0.8 0,1.2 0,24.7 0,49.4 0,74.1 0,0.7 -0.1,1.5 -0.1,2.2 -0.2,3.7 -1.6,6.8 -4.7,9 -0.9,0.6 -1.6,1.4 -2.4,2.1 -3.1,2.9 -4.4,6.4 -4,10.6 0.3,3.5 2.2,5.1 5.6,4.3 2,-0.5 3.9,-1.1 5.8,-1.9 8.3,-3.2 16.6,-6.5 24.8,-9.8 3.1,-1.2 6.2,-2.5 9.2,-4.1 4.3,-2.2 6.4,-7.2 5.3,-11.9 -0.5,-2.4 -1.8,-3.7 -4.2,-4.1 -1,-0.2 -1.9,-0.3 -2.9,-0.4 -2.9,-0.4 -3.8,-1.4 -3.8,-4.3 0,-27.2 0,-54.4 0,-81.7 -0.1,-8.9 2.2,-16.5 8.8,-22.5 z"
   id="path16"
   inkscape:connector-curvature="0" />
	<path
   d="m 800.4,319.5 c -6.2,1.3 -12,3.8 -17.5,6.8 -9.4,5 -18.6,10.2 -28,15.2 -3.5,1.9 -7.3,3.3 -10.9,4.9 -0.5,0.2 -1.1,0.3 -1.7,0.4 -4.8,0.7 -7.3,-1.7 -6.9,-6.6 0,-0.4 0.1,-0.8 0.2,-1.2 0.6,-1.5 1.2,-3 2,-4.4 1.1,-2.1 1.1,-4.1 -0.6,-5.8 -0.9,-0.9 -2.1,-1.6 -3.2,-2.1 -2.2,-1 -4.5,-0.5 -6.7,0.1 -4.9,1.4 -8.7,4.5 -11.8,8.4 -6.4,8 -9.3,17 -7.3,27.2 1.3,6.6 6.2,11.6 12.4,12.7 3.6,0.6 7.2,0.3 10.7,-0.7 5.9,-1.6 11.2,-4.4 16.5,-7.4 1,-0.6 2.1,-1.2 3.5,-2 0,1.2 0,1.9 0,2.5 0,33.1 0,66.2 0,99.3 0,1.1 -0.1,2.1 -0.2,3.2 -0.4,3.3 -1.9,5.8 -4.9,7.4 -1.4,0.7 -2.6,1.7 -3.8,2.6 -4.2,3.3 -5.4,7.6 -4.6,12.7 0.6,3.7 3,5.7 6.8,5.7 1.7,0 3.4,-0.1 5.1,-0.3 9.4,-1 18.8,-2.1 28.2,-3.2 4.5,-0.5 8.9,-0.9 13.4,-1.4 1.7,-0.2 3.6,-0.6 4.8,-1.5 5.8,-4.3 5.9,-14.3 -0.9,-17.8 -1.1,-0.6 -2.2,-1.1 -3.3,-1.5 -4.1,-1.4 -5.8,-4.1 -5.8,-8.6 0.1,-38 0.1,-76 0.1,-114 0,-4.3 0,-4.3 3.8,-6 0.2,-0.1 0.4,-0.2 0.7,-0.3 3.9,-1.2 7.6,0.1 8.4,4.5 0.3,1.7 0.2,3.4 0,5.1 -0.3,2.3 -1.1,4.4 -1.6,6.7 -0.9,4.1 0.7,6.6 4.8,7.3 6.1,1.1 11.7,0 16.4,-4.3 8,-7.4 11.2,-16.5 8.9,-27.3 -1.9,-9.3 -8.5,-15.4 -17.6,-16.7 -3.3,-0.6 -6.3,-0.3 -9.4,0.4 z"
   id="path18"
   inkscape:connector-curvature="0" />
	<path
   d="m 617.6,338.7 c 4.1,-1.7 5.6,-5.3 5.7,-9.5 0,-3.6 -2.1,-5.9 -5.7,-6.6 -0.8,-0.2 -1.6,-0.3 -2.4,-0.4 -2.4,-0.4 -3.2,-1.2 -3.4,-3.7 -0.1,-0.6 0,-1.1 0,-1.7 0,-9.2 0,-18.5 0,-27.7 0,-0.8 0,-1.6 0,-2.4 2.2,-1.1 4.5,-1.3 6.8,-1.6 7.7,-0.9 15.6,3.2 19.3,10.1 1.8,3.5 2.5,7.2 2.8,11.1 0.2,2.6 -0.5,5 -1.9,7.2 -0.8,1.3 -1.8,2.5 -2.7,3.8 -1.1,1.7 -2.3,3.4 -3.3,5.1 -1.1,1.8 -1.2,3.9 -0.8,6 0.4,2.9 2.2,4.5 5.2,4.5 1.4,0 2.9,-0.3 4.3,-0.7 5.4,-1.5 10.9,-3 16.3,-4.5 3.2,-0.9 6.5,-1.7 9.7,-2.6 5.5,-1.6 8.1,-5.5 8.6,-11 0.2,-1.7 0.2,-3.4 0.1,-5.1 -0.6,-10.3 -4.3,-19.2 -11.5,-26.6 -6.1,-6.4 -13.7,-10.5 -21.8,-13.7 -0.8,-0.3 -1.5,-0.7 -2.5,-1.1 0.6,-0.7 1,-1.1 1.3,-1.5 2.8,-3.7 5.9,-7.2 8.4,-11.1 6,-9.5 9.4,-19.9 8.7,-31.3 -0.4,-7 -2,-13.6 -6.2,-19.3 -5.1,-7.1 -11.7,-11.3 -20.7,-10.8 -4.4,0.2 -8.6,1.4 -12.3,3.7 -3.7,2.3 -7.5,4.7 -10.9,7.4 -8.4,6.6 -17.1,12.5 -27.1,16.5 -2.5,1 -4.7,2.6 -6.8,4.3 -1.4,1.1 -2.5,2.8 -3.2,4.5 -1.9,4.8 0.2,8.2 5.3,9 0.8,0.1 1.7,0.3 2.3,0.8 2.7,2.1 4.5,4.8 4.6,8.3 0.1,9.2 0,18.5 0,27.7 0,0.6 -0.1,1.1 -0.1,1.7 -0.7,0.2 -1.3,0.4 -1.9,0.7 -5.1,2.1 -8.6,8.1 -7.9,13.4 0.4,3.2 2.1,4.8 5.4,4.8 1.4,0 2.7,-0.2 4.3,-0.3 0,0.7 0.1,1.4 0.1,2.1 0,8.6 0,17.2 0,25.7 0,1.4 -0.2,2.8 -0.4,4.1 -0.4,2.3 -1.4,4.3 -3.3,5.8 -1.5,1.2 -2.9,2.4 -4.2,3.7 -2.8,2.8 -3.7,6.3 -3.3,10.1 0.4,3.1 2.2,4.6 5.2,4.1 1.9,-0.3 3.8,-0.8 5.7,-1.4 8,-2.6 16,-5.2 24,-7.9 3.3,-1.2 6.9,-2.3 10.2,-3.7 z m -5.9,-111.2 c 0,-3.4 0.5,-6.7 2.1,-9.7 0.4,-0.8 0.9,-1.6 1.5,-2.2 2.7,-3.2 6.7,-3.2 9.2,0.1 1.3,1.8 2.4,4 2.9,6.1 2.5,11.4 2.2,22.7 -2.5,33.6 -2.3,5.3 -5.8,9.6 -11.3,12 -0.5,0.2 -1,0.4 -1.7,0.6 -0.1,-0.8 -0.1,-1.5 -0.1,-2.1 -0.1,-12.7 -0.1,-25.6 -0.1,-38.4 z"
   id="path20"
   inkscape:connector-curvature="0" />
	<path
   d="m 337,437.5 c 0.5,-2.4 0.6,-4.9 0.5,-7.3 -0.5,-11.5 -5.1,-21 -14.3,-28.1 -5.6,-4.4 -12.1,-7.1 -18.8,-9.3 -0.8,-0.3 -1.6,-0.5 -2.4,-0.8 0.1,-0.4 0.2,-0.6 0.3,-0.7 0.6,-0.7 1.1,-1.4 1.7,-2.1 6.3,-7.6 11.3,-16 14.1,-25.6 2.8,-9.6 3.3,-19.3 -0.2,-28.9 -3,-8.2 -8.5,-14.1 -17.3,-16.2 -5.9,-1.4 -11.5,-0.1 -16.9,2.4 -5.1,2.4 -9.5,5.7 -13.8,9.2 -8.2,6.7 -16.9,12.5 -27,16.2 -2.5,0.9 -4.7,2.6 -6.9,4.1 -1.7,1.2 -2.9,3 -3.3,5 -0.9,4.2 0.5,7.7 5.3,8.4 1,0.1 2.2,0.5 2.9,1.2 2.5,2.3 4.3,5.1 4.3,8.7 0,8.8 0,17.7 0,26.5 0,0.8 0,1.6 0,2.5 -0.6,0.2 -1,0.2 -1.3,0.4 -5.2,1.6 -9,7.3 -8.6,12.6 0.3,3.9 2.2,5.7 6.2,5.7 1.2,0 2.4,0 3.7,0 0,0.4 0.1,0.8 0.1,1.2 0,9 0,18 0,27 0,1.3 -0.2,2.6 -0.4,3.9 -0.4,2.2 -1.5,4.1 -3.3,5.5 -1.2,0.9 -2.3,1.8 -3.4,2.8 -3.3,2.9 -4.5,6.5 -4,10.8 0.4,3.2 2.5,4.8 5.6,4.3 1.7,-0.3 3.4,-0.7 5,-1.2 6.4,-2 12.8,-3.9 19.2,-6 4.8,-1.6 9.6,-3.2 14.3,-5 4.2,-1.5 6.3,-4.8 6.8,-9.1 0.5,-4 -1.6,-6.9 -5.6,-7.6 -0.8,-0.1 -1.6,-0.3 -2.4,-0.4 -2.4,-0.3 -3.3,-1.1 -3.5,-3.6 0,-0.5 0,-1 0,-1.5 0,-9.5 0,-19 0,-28.4 0,-0.6 0,-1.3 0,-2.1 3.5,-1.3 6.9,-1.8 10.4,-1.7 7.6,0.2 14.4,4.9 16.9,12 2.5,7 2.3,13.6 -3,19.5 -1.4,1.6 -2.4,3.5 -3.4,5.4 -1,1.8 -1.1,3.7 -0.8,5.7 0.4,3.2 2.3,4.8 5.6,4.4 1.4,-0.2 2.9,-0.6 4.3,-1.1 5.9,-2.1 11.7,-4.1 17.5,-6.3 2.9,-1.1 5.8,-2.2 8.7,-3.4 3.7,-1.5 6.3,-4.7 7.2,-9 z m -49.6,-58.9 c -1.2,3.3 -2.9,6.4 -5.2,9.1 -2.3,2.8 -5.2,4.7 -8.9,6 0,-1.2 0,-1.9 0,-2.6 0,-12.6 0,-25.2 0,-37.8 0,-2.9 0.3,-5.7 1.4,-8.4 0.6,-1.5 1.4,-3 2.5,-4.2 2.7,-3.1 6.8,-2.8 9.3,0.5 1.5,2 2.4,4.3 2.9,6.7 1.9,10.4 1.5,20.7 -2,30.7 z"
   id="path22"
   inkscape:connector-curvature="0" />
	<path
   d="m 515.6,253.7 c 2.9,-2.7 5.9,-5.4 9.6,-7.1 5,-2.2 9.2,-1.3 10.9,5 1.1,4 1.9,8.1 2.9,12.1 0.4,1.7 0.7,3.5 1.4,5.2 1.2,2.8 3.4,3.6 6.3,2.5 3.2,-1.2 5.4,-3.5 6.3,-6.7 0.6,-2.1 1,-4.3 1,-6.5 0.3,-9.6 0.7,-19.3 2.4,-28.8 0.3,-1.5 0.3,-3.1 0.1,-4.6 -0.6,-3.4 -3.7,-5 -6.9,-3.5 -1.9,0.9 -3.4,2.3 -4.6,3.9 -0.7,1 -1.4,2 -2.1,3.2 -6.9,-2.7 -11.7,-2.6 -17.4,0.2 -1.5,0.8 -3,1.6 -4.4,2.6 -4.4,3.2 -8.7,6.4 -13,9.7 -7.9,6 -15.8,11.8 -24.7,16.3 -1.7,0.8 -3.3,1.7 -4.9,2.8 -3.1,2 -4.6,5 -4.7,8.7 -0.1,3.8 1.5,5.7 5.2,6 1.8,0.1 3.1,0.9 4,2.4 0.9,1.5 1.6,3.2 2.6,4.7 0.7,1 0.8,1.9 0.8,3 0,5.8 0,11.6 0,17.4 0,0.6 -0.1,1.3 -0.1,2 -0.9,0.4 -1.9,0.8 -2.7,1.3 -1.7,1 -3.5,1.9 -4.9,3.2 -3.3,3.1 -4.3,7 -3.2,11.4 0.6,2.1 1.9,3.2 4.1,3.2 1.4,0 2.9,-0.3 4.3,-0.6 0.7,-0.1 1.4,-0.4 2.4,-0.7 0,1 0,1.8 0,2.6 0,11.7 -0.1,23.4 0,35.1 0,4.5 -1.3,8.3 -5,11.2 -1.8,1.4 -3.3,3.2 -4.6,5 -1.8,2.6 -2.3,5.6 -1.5,8.7 0.7,2.7 2.4,3.8 5.1,3.1 2.3,-0.6 4.6,-1.3 6.8,-2.1 14.9,-5.6 29.8,-11.3 44.7,-16.9 2.4,-0.9 4.9,-1.8 7.2,-2.6 4.7,2.6 8.8,2 12.5,-1.5 2.5,-2.4 3.8,-5.3 4,-8.7 0.7,-11.1 2.2,-22.1 4.8,-32.9 0.4,-1.7 1,-3.3 1.2,-5 0.2,-1.9 0.3,-3.9 0,-5.8 -0.4,-2.7 -2,-3.7 -4.7,-3.5 -3.4,0.2 -5.9,1.9 -7.6,4.7 -1.2,2.1 -2.2,4.4 -3,6.7 -2.1,5.9 -3.9,11.9 -6,17.9 -1.4,4 -3.5,7.8 -6,11.2 -2.7,3.5 -5.8,6.4 -10.1,7.9 -3.9,1.3 -6.9,0 -8.2,-3.9 -0.7,-2.2 -1.1,-4.6 -1.2,-7 -0.1,-11.4 -0.1,-22.7 0,-34.1 0,-0.6 0.1,-1.1 0.1,-1.8 0.9,-0.5 1.8,-1.1 2.8,-1.6 2.4,-1.1 4.1,-0.8 5.4,1.5 0.9,1.5 1.5,3.3 2.1,4.9 0.7,2.1 1.1,4.3 1.9,6.3 0.9,2.5 2.8,3.5 5.2,2.8 3.3,-0.9 5.7,-3 6.5,-6.3 0.5,-2.1 0.6,-4.4 0.4,-6.5 -0.2,-2.3 -0.8,-4.5 -1.5,-6.7 -1.6,-5 -2.6,-10.1 -3.2,-15.3 -0.2,-2.3 -0.7,-4.7 -1.4,-6.9 -1,-3 -3.1,-3.8 -6,-2.6 -2.6,1.1 -4.5,3 -5.4,5.7 -0.4,1.2 -0.5,2.4 -0.8,3.6 -0.1,0.5 -0.3,1.2 -0.7,1.4 -1.6,1 -3.4,1.8 -5.4,2.9 0,-4.9 0,-9.4 0,-13.9 0,-7.7 0,-15.4 0,-23 0.3,-1.3 0.4,-2.4 0.9,-2.9 z"
   id="path24"
   inkscape:connector-curvature="0" />
	<path
   d="m 180.8,478 c -3.3,2.8 -3.9,6.4 -3.2,10.4 0.5,2.4 2.2,3.9 4.7,3.8 1.7,0 3.4,-0.3 5.1,-0.7 9.8,-2.5 19.6,-5.1 29.4,-7.7 2.4,-0.7 4.9,-1.4 7.2,-2.4 2.5,-1.1 4.6,-2.8 5.8,-5.3 2.4,-4.8 0.9,-9 -3.9,-11 -2.7,-1.2 -4.5,-3 -5.6,-5.8 -6.7,-17.7 -13.5,-35.4 -20.2,-53.1 -5.7,-15 -11.4,-30.1 -17.1,-45.1 -0.7,-1.7 -1.5,-3.5 -2.6,-5 -1.8,-2.6 -4.2,-3.1 -6.9,-1.5 -1.6,1 -3.1,2.1 -4.5,3.4 -4.6,4.2 -9.3,8.2 -14.7,11.4 -0.9,0.5 -1.8,1.2 -2.5,1.9 -0.9,0.9 -1.9,1.9 -2.5,3 -2,3.6 -0.6,7.5 3.1,9.1 0.7,0.3 1.5,0.7 2.3,1 2.3,0.9 3.5,2.7 3.3,5.2 -0.2,1.9 -0.6,3.9 -1.2,5.7 -4.5,14.2 -9.1,28.3 -13.7,42.4 -0.9,2.8 -1.8,5.6 -2.7,8.3 -6.4,0.6 -8.6,1.8 -9.5,5.8 -0.9,4.1 -1.3,7.3 4.2,10.7 -0.2,0.7 -0.3,1.4 -0.5,2.1 -1,3.2 -2.1,6.4 -2.9,9.6 -1.4,5.7 -4.4,10.3 -8.3,14.5 -1.4,1.5 -2.7,3.3 -3.9,5 -1.3,1.8 -1.5,3.9 -1.1,6.1 0.5,2.8 2.1,4.3 5,4.5 1,0.1 2,0 2.9,-0.1 7.7,-1.3 15.4,-2.7 23.1,-4.1 3.1,-0.6 5.5,-2.3 7.2,-5.1 2.5,-4.3 1,-9.2 -3.4,-11.4 -1,-0.5 -1.9,-0.9 -2.9,-1.3 -2.5,-1.3 -3.6,-2.9 -3,-5.5 0.8,-3.4 1.9,-6.7 2.9,-10.1 12.7,2.6 24.1,0.2 34.8,-7.5 0.9,2.7 1.8,5.2 2.4,7.7 0.8,2.9 0,5.5 -2.3,7.5 -1.5,1.1 -2.9,2.4 -4.3,3.6 z m -25.3,-28.3 c 4.1,-12.5 8.2,-25.1 12.2,-37.6 0.2,0 0.4,0 0.5,0 3.7,10.6 7.4,21.2 11.1,31.8 -5.7,5.5 -17.1,8.1 -23.8,5.8 z"
   id="path26"
   inkscape:connector-curvature="0" />
	<path
   d="m 81.4,388.2 c 2.5,-1.3 4.9,-2.7 7.4,-3.8 3.2,-1.3 6.1,-0.5 8.5,1.9 2.3,2.2 3.7,5 4.6,8 1,3.4 1.7,7 2.6,10.4 0.6,2.1 1.1,4.3 1.9,6.3 0.8,2.1 2.5,3.3 4.8,3.1 3.2,-0.3 5.9,-1.8 6.9,-5 0.7,-2 1,-4.1 1.1,-6.2 0.3,-8.6 0.8,-17.1 2.3,-25.6 0.4,-2.4 0.7,-4.9 0.6,-7.3 -0.2,-4.1 -3.9,-6.4 -7.7,-5 -1.3,0.5 -2.5,1.4 -3.7,2.3 -1,0.7 -1.8,1.6 -2.9,2.6 -4.8,-3.5 -10.2,-4.5 -16,-3.7 -3.4,0.5 -6.4,1.8 -9.4,3.3 -4.4,2.2 -8.8,4.7 -13.3,6.8 -5.5,2.6 -11.3,4.3 -17.4,4.9 -2.5,0.2 -5,0.8 -7.4,1.6 -3,1 -4.7,3.2 -4.9,6.4 -0.2,3.1 1,5.6 3.6,7.3 1.1,0.7 2.3,1.3 3.5,1.7 4.3,1.2 5.7,4 5.6,8.2 -0.2,7.2 0,14.4 -0.1,21.6 0,0.6 -0.1,1.2 -0.2,1.6 -2.3,0.5 -4.3,0.8 -6.2,1.4 -1.9,0.6 -3.5,1.8 -4.3,3.7 -2.4,5.1 0.5,10.9 5.9,12 1.5,0.3 3,0.4 4.7,0.7 0,0.8 0.1,1.5 0.1,2.2 0,11.8 0,23.5 0,35.3 0,1 0,2 -0.1,2.9 -0.3,2.9 -1.5,5.2 -4.3,6.3 -0.7,0.3 -1.3,0.7 -2,1 -5.1,2.6 -5.6,7.8 -4.4,11.5 0.8,2.4 2.4,4.1 5.1,4.3 1.4,0.1 2.8,0.4 4.1,0.3 9.6,-0.5 19.2,-1 28.9,-1.6 2,-0.1 4.1,-0.4 6.1,-0.8 1.7,-0.3 3.3,-1 4.4,-2.4 3.9,-4.6 2.1,-11.8 -3.5,-13.9 -0.5,-0.2 -1.1,-0.4 -1.6,-0.6 -3.6,-1.4 -4.3,-2.4 -4.3,-6.2 0,-13.1 0,-26.2 0,-39.2 0,-0.7 0.1,-1.4 0.2,-2.1 1,-0.3 1.7,-0.6 2.5,-0.7 3,-0.5 5.1,0.7 6.1,3.6 0.3,0.8 0.5,1.6 0.7,2.3 1,3.4 1.9,6.8 2.9,10.1 0.8,2.4 2.5,3.5 5,3.5 3.4,0 6.1,-2 6.7,-5.3 0.3,-1.7 0.4,-3.6 0.2,-5.3 -0.2,-2.3 -0.8,-4.7 -1.3,-7 -1.5,-6.9 -3.4,-13.6 -3.9,-20.7 -0.1,-1.5 -0.6,-3.1 -1.2,-4.5 -1.5,-3.7 -5.8,-4.5 -8.7,-1.7 -1,0.9 -1.6,2.2 -2.2,3.5 -0.4,0.9 -0.4,2.1 -0.8,3.1 -0.2,0.6 -0.6,1.3 -1.1,1.4 -1.6,0.5 -3.3,0.9 -5.2,1.3 0,-1.2 0,-2 0,-2.9 0,-10.6 0,-21.3 0,-31.9 0,-1.1 0,-2.3 0,-3.4 0,-0.7 0.3,-1.2 1.1,-1.6 z"
   id="path28"
   inkscape:connector-curvature="0" />
	<path
   d="m 714.1,195.1 c 0,-1.4 0.1,-2.8 0,-4.2 -0.4,-4 -1.4,-7.7 -3.9,-10.9 -2.3,-2.9 -5.4,-4.2 -9,-3.9 -2.9,0.3 -5.6,1.2 -7.9,3.1 -4.3,3.5 -7.1,8.1 -8.1,13.6 -1.4,7.2 0.7,13.1 6.9,17.2 0.8,0.5 1.6,1.2 2.3,1.9 1.8,1.7 2.6,3.8 1.8,6.2 -0.8,2.3 -1.6,4.6 -2.6,6.8 -0.8,1.7 -1.8,3.3 -2.6,5 -1.1,2.1 -1.6,4.3 -0.9,6.6 0.5,1.7 1.3,2.2 3,2.2 1.6,0 3.1,-0.6 4.2,-1.7 1.7,-1.6 3.3,-3.4 4.7,-5.3 3,-4.2 5.3,-8.8 7.2,-13.6 2.9,-7.4 5,-15 4.9,-23 z"
   id="path30"
   inkscape:connector-curvature="0" />
	<path
   d="m 819.5,513.6 c -47.6,2.4 -94.7,10.1 -141,21.8 -57.2,14.5 -113.1,33.8 -168.7,53.4 -79.1,27.8 -157.5,57.6 -237.2,83.6 -51,16.7 -102.5,32.4 -155,43.5 -11.9,2.5 -23.8,4.8 -35.8,6.4 -0.6,0.1 -1.4,0.2 -1.7,0.2 -0.9,0.1 -1.7,0.2 -2.6,0.3 -1.4,0.2 -2.7,0.3 -4.1,0.4 -1.5,0.1 -3,0.2 -4.4,0.3 -0.2,0 -0.3,0 -0.5,0 -9.9,0.1 -9.9,15.5 0,15.3 13.6,-0.2 27.5,-3.2 40.8,-5.8 47,-9.1 93.2,-22.5 138.8,-36.8 80,-25.1 158.6,-54.7 237.6,-82.8 58.4,-20.8 117,-41.6 176.8,-58 45.9,-12.6 92.5,-22 139.9,-25.5 5.7,-0.4 11.4,-0.8 17.1,-1.1 9.8,-0.3 9.8,-15.7 0,-15.2 z"
   id="path32"
   inkscape:connector-curvature="0" />
	<path
   d="m 44.6,354.8 c 13.6,-0.2 27.5,-3.2 40.8,-5.8 47,-9.1 93.2,-22.5 138.8,-36.8 80,-25.1 158.6,-54.7 237.6,-82.8 58.4,-20.8 117,-41.6 176.8,-58 45.9,-12.6 92.5,-22 139.9,-25.5 5.7,-0.4 11.4,-0.8 17.1,-1.1 9.8,-0.5 9.9,-15.8 0,-15.3 -47.6,2.4 -94.7,10.1 -141,21.8 -57.2,14.5 -113.1,33.8 -168.7,53.4 -79.1,27.8 -157.5,57.6 -237.2,83.6 -51,16.7 -102.5,32.4 -155,43.5 -11.9,2.5 -23.8,4.8 -35.8,6.4 -0.6,0.1 -1.4,0.2 -1.7,0.2 -0.9,0.1 -1.7,0.2 -2.6,0.3 -1.4,0.2 -2.7,0.3 -4.1,0.4 -1.5,0.1 -3,0.2 -4.4,0.3 -0.2,0 -0.3,0 -0.5,0 -9.9,0.2 -9.9,15.6 0,15.4 z"
   id="path34"
   inkscape:connector-curvature="0" />
	<path
   d="m 372.5,170.3 c 56.4,-19 112.9,-37.7 170,-54.2 47.5,-13.8 95.5,-25.7 144.1,-34.8 28.5,-5.3 57.2,-9.8 85.9,-13.5 4.1,-0.5 7.7,-3.1 7.7,-7.7 0,-3.7 -3.5,-8.2 -7.7,-7.7 -50.4,6.6 -100.6,15.2 -150.1,26.8 -51.3,12 -101.9,26.9 -152.2,42.8 -34,10.8 -67.9,22.1 -101.8,33.5 -9.3,3.1 -5.3,18 4.1,14.8 z"
   id="path36"
   inkscape:connector-curvature="0" />
	<path
   d="m 48.7,251.8 c 5.5,11.4 13.4,20.9 24.1,29.1 8.5,6.4 19.8,11.1 33.8,13.9 6.4,1.3 12.8,2 19.2,2 6.2,0 12.4,-0.6 18.8,-1.8 13.9,-2.6 25,-6.9 33.9,-13.1 10.6,-7.3 19.9,-15.9 27.7,-25.5 7.4,-9.1 13.7,-20.4 18.7,-33.7 2.3,-6 4.3,-12.1 6.4,-18.1 l 0.6,-1.7 c 1.9,-5.7 3.9,-11.5 7,-16.5 6.6,-10.6 15.3,-19.2 25.9,-25.5 4.8,-2.9 10.4,-5.4 15.1,-6.9 l 1.9,-0.6 v 0 c 10.1,-3.1 20.3,-1.1 29.5,5.9 4,3.1 7.2,6.8 9.8,11.5 2.5,4.4 4.9,9.2 4.9,14 0.1,9.5 -3.9,19.1 -12,28.3 -3.6,4.1 -13.2,13.3 -24.8,9.5 -6.7,-2.2 -13,-7.4 -15.9,-13 -1.2,-2.4 -1.8,-4.8 -1.7,-7.1 1.4,0.7 3,1.1 4.7,1.1 3.8,0 7.4,-1.9 9.8,-5.2 4.1,-5.5 3,-13.3 -2.6,-18.1 -5.7,-4.9 -13.9,-4.9 -20.2,0 -5.3,4.2 -8.9,11 -9.7,18.9 -1.8,16.2 9.1,30.1 20.7,36.7 13.9,7.9 28.9,7.9 41.2,-0.1 11.9,-7.8 21.7,-20.4 26.1,-33.8 2.4,-7.3 3.2,-15 2.2,-21.8 -0.9,-6.1 -3.5,-12.7 -7.9,-20.1 -7.7,-12.8 -20.5,-22.3 -34.3,-25.4 -12.2,-2.8 -26.8,-0.1 -41,7.5 -7.4,3.9 -13.6,8.1 -18.5,12.2 -5,4.3 -9.8,9.7 -14.8,16.6 -7.4,10.2 -11.3,21.8 -15.2,33.1 -0.9,2.5 -1.7,5 -2.6,7.6 -5.3,14.9 -12.2,27.2 -20.9,37.4 -4.6,5.4 -10.3,10 -16.2,14.7 -5.3,4.2 -11.2,7.5 -18,9.9 -13.5,4.9 -28,6.3 -40.9,3.9 -6.1,-1.1 -12.4,-3 -19.9,-5.9 -5.5,-2.1 -10.9,-5.7 -17,-11.5 -4.2,-3.9 -7.8,-9.1 -11.1,-15.8 -3.3,-6.8 -5.5,-12.7 -5.2,-19.4 0.2,-6.2 1.7,-12.9 4.4,-21.1 2.3,-6.7 6.3,-12.5 10.1,-18 9.1,-13.1 19.6,-20.9 32,-23.9 7.1,-1.7 13.5,-2.2 19.5,-1.6 4.7,0.5 13.3,2.1 18.4,7.8 4.1,4.5 6.8,10.3 8.1,17.3 1.1,5.9 0.4,11.6 -2.2,18.5 -4.9,12.8 -16.5,21.8 -29.6,22.9 -3.8,0.3 -7,0.1 -9.7,-0.7 4.7,-1.3 8.2,-4.7 9.9,-9.6 2.3,-6.6 0.7,-14.3 -4,-19 -3.9,-3.9 -8.7,-5.5 -13.9,-4.6 -6.8,1.1 -13.7,6.6 -17.1,13.6 -6.2,12.8 0.7,25.6 10.4,32.6 11.4,8.3 27,7.1 37.8,3.3 12.7,-4.5 22.9,-12.7 28.9,-23.1 6.9,-12 9.5,-24.7 7.4,-36.8 -2.3,-13.4 -8.5,-24.6 -17.7,-31.5 -8.9,-6.7 -22.1,-10.1 -36.4,-9.2 -13.3,0.8 -25.7,4.8 -34.9,11 -9.5,6.5 -17.4,15.1 -25.8,28 -6.6,10.1 -10.9,21.6 -13.2,35 -1,6 -1.1,12 -0.3,18 1,6.6 3.5,12.2 6.3,17.9 z"
   id="path38"
   inkscape:connector-curvature="0" />
	<path
   d="m 478,680.6 c -56,20.9 -112,41.6 -168.9,60.1 -47.3,15.4 -95.1,28.9 -143.6,39.6 -28.5,6.3 -57.2,11.7 -86,16.4 -9.7,1.6 -5.6,16.4 4.1,14.8 50,-8.2 99.6,-18.5 148.6,-31.7 50.4,-13.6 100,-30 149.3,-47.5 33.7,-11.9 67.2,-24.3 100.6,-36.8 9.1,-3.6 5.1,-18.4 -4.1,-14.9 z"
   id="path40"
   inkscape:connector-curvature="0" />
	<path
   d="m 803.6,605.7 c -5.5,-11.4 -13.4,-20.9 -24.1,-29.1 -8.5,-6.4 -19.8,-11.1 -33.8,-13.9 -12.6,-2.6 -25,-2.6 -38,-0.1 -13.9,2.6 -25,6.9 -33.9,13.1 -10.6,7.3 -19.9,15.9 -27.7,25.5 -7.4,9.1 -13.7,20.4 -18.7,33.7 -2.3,6 -4.4,12.2 -6.4,18.1 l -0.6,1.7 c -1.9,5.7 -3.9,11.5 -7,16.5 -6.6,10.6 -15.3,19.2 -25.9,25.5 -4.8,2.9 -10.4,5.4 -15.1,6.9 l -1.9,0.6 v 0 c 0,0 0,0 0,0 v 0 c -10.1,3.1 -20.3,1.1 -29.5,-5.9 -4,-3.1 -7.2,-6.8 -9.8,-11.5 -2.5,-4.4 -4.9,-9.2 -4.9,-14 -0.1,-9.5 3.9,-19.1 12,-28.3 3.6,-4.1 13.2,-13.3 24.8,-9.5 6.7,2.2 13,7.4 15.9,13 1.2,2.4 1.8,4.8 1.7,7.1 -1.4,-0.7 -3,-1.1 -4.7,-1.1 -3.8,0 -7.4,1.9 -9.8,5.2 -4.1,5.5 -3,13.3 2.6,18.1 5.7,4.9 13.9,4.9 20.2,0 5.3,-4.2 8.9,-11 9.7,-18.9 1.8,-16.2 -9.1,-30.1 -20.7,-36.7 -13.9,-7.9 -28.9,-7.9 -41.2,0.1 -11.9,7.8 -21.7,20.4 -26.1,33.8 -2.4,7.3 -3.2,15 -2.2,21.8 0.9,6.1 3.5,12.7 7.9,20.1 7.7,12.8 20.5,22.3 34.3,25.4 3.1,0.7 6.4,1.1 9.8,1.1 9.8,0 20.6,-2.9 31.2,-8.6 7.4,-3.9 13.6,-8.1 18.5,-12.2 5,-4.3 9.8,-9.7 14.8,-16.6 7.4,-10.2 11.3,-21.8 15.2,-33.1 0.9,-2.5 1.7,-5 2.6,-7.6 5.3,-14.9 12.2,-27.2 20.9,-37.4 4.6,-5.4 10.3,-10 16.2,-14.7 5.3,-4.2 11.2,-7.5 18,-9.9 13.5,-4.9 28,-6.3 40.9,-3.9 6.1,1.1 12.4,3 19.9,5.9 5.5,2.1 10.9,5.7 17,11.5 4.2,3.9 7.8,9.1 11.1,15.8 3.3,6.8 5.5,12.7 5.2,19.4 -0.2,6.2 -1.7,12.9 -4.4,21.1 -2.3,6.7 -6.3,12.5 -10.1,18 -9.1,13.1 -19.6,20.9 -32,23.9 -7.1,1.7 -13.5,2.2 -19.5,1.6 -4.7,-0.5 -13.3,-2.1 -18.4,-7.8 -4.1,-4.5 -6.8,-10.3 -8.1,-17.3 -1.1,-5.9 -0.4,-11.6 2.2,-18.5 4.9,-12.8 16.5,-21.8 29.6,-22.9 3.8,-0.3 7,-0.1 9.7,0.7 -4.7,1.3 -8.2,4.7 -9.9,9.6 -2.3,6.6 -0.7,14.3 4,19 3.9,3.9 8.7,5.5 13.9,4.6 6.8,-1.1 13.7,-6.6 17.1,-13.6 6.2,-12.8 -0.7,-25.6 -10.4,-32.6 -11.4,-8.3 -27,-7.1 -37.8,-3.3 -12.7,4.5 -22.9,12.7 -28.9,23.1 -6.9,12 -9.5,24.7 -7.4,36.8 2.3,13.4 8.5,24.6 17.7,31.5 8.9,6.7 22.1,10.1 36.4,9.2 13.3,-0.8 25.7,-4.8 34.9,-11 9.5,-6.5 17.4,-15.1 25.8,-28 6.6,-10.1 10.9,-21.6 13.2,-35 1,-6 1.1,-12 0.3,-18 -1.1,-6.6 -3.6,-12.3 -6.3,-18 z"
   id="path42"
   inkscape:connector-curvature="0" />
</g>
</svg>