<?xml version="1.0" encoding="UTF-8" standalone="no"?>
<!-- Generator: Adobe Illustrator 22.1.0, SVG Export Plug-In . SVG Version: 6.00 Build 0)  -->

<svg
   xmlns:dc="http://purl.org/dc/elements/1.1/"
   xmlns:cc="http://creativecommons.org/ns#"
   xmlns:rdf="http://www.w3.org/1999/02/22-rdf-syntax-ns#"
   xmlns:svg="http://www.w3.org/2000/svg"
   xmlns="http://www.w3.org/2000/svg"
   xmlns:sodipodi="http://sodipodi.sourceforge.net/DTD/sodipodi-0.dtd"
   xmlns:inkscape="http://www.inkscape.org/namespaces/inkscape"
   version="1.1"
   id="Layer_1"
   x="0px"
   y="0px"
   viewBox="0 0 474.77499 431.6098"
   xml:space="preserve"
   sodipodi:docname="8052.svg"
   width="474.77499"
   height="431.6098"
   inkscape:version="0.92.3 (2405546, 2018-03-11)"><metadata
   id="metadata92"><rdf:RDF><cc:Work
       rdf:about=""><dc:format>image/svg+xml</dc:format><dc:type
         rdf:resource="http://purl.org/dc/dcmitype/StillImage" /><dc:title></dc:title></cc:Work></rdf:RDF></metadata><defs
   id="defs90" /><sodipodi:namedview
   pagecolor="#ffffff"
   bordercolor="#666666"
   borderopacity="1"
   objecttolerance="10"
   gridtolerance="10"
   guidetolerance="10"
   inkscape:pageopacity="0"
   inkscape:pageshadow="2"
   inkscape:window-width="640"
   inkscape:window-height="480"
   id="namedview88"
   showgrid="false"
   fit-margin-top="0"
   fit-margin-left="0"
   fit-margin-right="0"
   fit-margin-bottom="0"
   inkscape:zoom="0.472"
   inkscape:cx="241.875"
   inkscape:cy="216.1"
   inkscape:window-x="0"
   inkscape:window-y="0"
   inkscape:window-maximized="0"
   inkscape:current-layer="Layer_1" />
<g
   id="g85"
   transform="translate(-8.125,-34.490187)">
	<g
   id="g4">
		<path
   d="m 78,237.5 c 42.3,0.1 84.7,1.1 127,1.1 2.6,0 2.6,-4.3 0,-4.3 -42.3,0 -84.7,-1 -127,-1.1 -2.6,0 -2.6,4.3 0,4.3 z"
   id="path2"
   inkscape:connector-curvature="0" />
	</g>
	<g
   id="g8">
		<path
   d="m 265.2,235.3 c 28.2,0 56.4,0 84.6,0 13.2,0 26.3,0 39.5,0 9.8,0 19.8,0.8 29.4,-1.1 3.1,-0.6 1.8,-4.8 -1.3,-4.1 -10.4,2.2 -22.3,1 -33,1 -13.2,0 -26.4,0 -39.6,0 -26.5,0 -53.1,0 -79.6,0 -3.2,-0.1 -3.2,4.2 0,4.2 z"
   id="path6"
   inkscape:connector-curvature="0" />
	</g>
	<g
   id="g32">
		<path
   d="m 79.8,256.2 c 1.4,0 2,1.1 2,7 v 1.5 c 0,1.5 -0.3,5.4 -0.9,11.9 0,0.2 0.1,0.4 0.1,0.6 v 0.2 c -0.1,4 -0.1,7.3 -0.1,9.6 v 7.6 c 0,0 0,0.2 0.3,0.9 v 0.4 c -0.3,1.2 -1,1.5 -1.6,1.5 H 79 c -1.4,0 -1.6,-1.7 -1.6,-4 0,-13.5 0.3,-22.8 0.9,-28 v -3.2 c 0,-1.7 -0.1,-3.4 -0.4,-4.7 v -0.2 c 0,-0.6 0.7,-1 1.1,-1.1 l 0.2,-0.2 h 0.6 z"
   id="path10"
   inkscape:connector-curvature="0" />
		<path
   d="m 106.4,257.6 c 0,0.6 -0.6,0.9 -1.2,1.2 l -0.3,0.2 h -1.7 c -2.2,0 -3.5,0.6 -4.3,1.8 -0.7,1.5 -1.1,3.4 -1.1,5.4 0,1.2 0.6,3.1 1.9,5.9 0.3,0.4 1.7,1.8 7.5,6.1 l 0.1,0.2 c 2.5,2.9 3.8,5.9 3.8,8.8 0,2.3 -0.6,4.5 -1.8,6.7 -0.6,1.2 -2.2,2.1 -4.8,2.9 -0.9,0.4 -1.7,0.6 -2.4,0.6 -1.2,0 -1.7,-0.5 -1.9,-0.9 l -0.1,-0.2 v -0.5 c 0,-1 1.5,-1.2 2.4,-1.2 3.6,-1.2 3.9,-2 3.9,-2.2 v -0.2 l 0.1,-0.2 c 0.8,-1.2 1.2,-3 1.2,-5.1 0,-2.7 -1.5,-5.4 -4.5,-8.1 -2.6,-1.6 -4.5,-3.2 -5.8,-4.7 -0.6,-0.6 -1.6,-1.9 -2.8,-6.4 v -0.2 c 0,-0.4 0,-0.8 -0.1,-1.4 V 266 c 0,-2.6 0.6,-5 1.8,-7 l 0.1,-0.1 c 1.5,-1.8 4.4,-2.7 8.6,-2.7 h 0.4 l 1,1 z"
   id="path12"
   inkscape:connector-curvature="0" />
		<path
   d="m 164.2,257.6 c 0,0.6 -0.6,0.9 -1.2,1.2 l -0.3,0.2 H 161 c -2.2,0 -3.5,0.6 -4.3,1.8 -0.7,1.5 -1.1,3.4 -1.1,5.4 0,1.2 0.6,3.1 1.9,5.9 0.3,0.4 1.7,1.8 7.5,6.1 l 0.1,0.2 c 2.5,2.9 3.8,5.9 3.8,8.8 0,2.3 -0.6,4.5 -1.8,6.7 -0.6,1.2 -2.2,2.1 -4.8,2.9 -0.9,0.4 -1.7,0.6 -2.4,0.6 -1.2,0 -1.7,-0.5 -1.9,-0.9 l -0.1,-0.2 v -0.5 c 0,-1 1.5,-1.2 2.4,-1.2 3.6,-1.2 3.9,-2 3.9,-2.2 v -0.2 l 0.1,-0.2 c 0.8,-1.2 1.2,-3 1.2,-5.1 0,-2.7 -1.5,-5.4 -4.5,-8.1 -2.6,-1.6 -4.5,-3.2 -5.8,-4.7 -0.6,-0.6 -1.6,-1.9 -2.8,-6.4 v -0.2 c 0,-0.4 0,-0.8 -0.1,-1.4 V 266 c 0,-2.6 0.6,-5 1.8,-7 l 0.1,-0.1 c 1.5,-1.8 4.4,-2.7 8.6,-2.7 h 0.4 l 1,1 z"
   id="path14"
   inkscape:connector-curvature="0" />
		<path
   d="m 192,256.2 c 0.9,0.4 1,0.9 1,1.2 0,3.4 -0.1,6 -0.3,7.8 l 0.3,10.7 c 0.1,0.3 0.3,0.5 0.3,0.8 v 0.1 l -0.1,0.1 -0.2,0.4 c 0.2,3.4 0.3,9.1 0.4,17 v 0.2 c -0.1,0.2 -0.1,0.7 -0.1,1.9 v 0.4 l -1.1,0.6 h -0.9 l -1.2,-0.7 v -0.4 c 0,-0.8 0.1,-1.4 0.1,-1.9 -0.1,-8.6 -0.2,-14.2 -0.4,-16.6 -2.8,0.1 -4.3,0.1 -5,0.2 0.1,1.1 0.1,2.2 0.1,3.3 0,2.8 0,5.3 -0.1,7.4 0.1,1.2 0.1,3.5 0.1,7 v 0.4 l -0.4,0.2 c -0.4,0.2 -0.9,0.4 -1.2,0.4 -0.7,0 -1.2,-0.5 -1.3,-0.8 l -0.1,-0.2 v -1.2 c 0,-2.8 -0.1,-4.8 -0.1,-5.8 v -0.1 c 0.1,-1.7 0.1,-3.8 0.1,-6.3 v -1.6 c -0.3,-3.4 -0.4,-5.8 -0.4,-7.2 0.3,-7.8 0.4,-12.8 0.4,-15 -0.1,-0.3 -0.1,-0.6 -0.1,-0.8 v -0.4 l 1.2,-0.6 h 0.8 l 0.2,0.1 c 0.7,0.4 1.1,0.9 1.1,1.5 0,1.3 -0.1,6.7 -0.4,15.9 v 1.2 c 0.9,-0.1 2.4,-0.2 5.1,-0.2 -0.1,-2.2 -0.1,-3.8 -0.1,-4.8 v -4.9 l -0.3,-0.4 0.3,-0.5 c 0.1,-3.3 0.1,-5.9 0.1,-7.7 v -0.4 l 1.2,-0.7 h 0.8 z"
   id="path16"
   inkscape:connector-curvature="0" />
		<path
   d="m 222,272.9 c 0.1,1.1 0.1,2.4 0.1,4 v 0.5 c 0,0.3 0,0.6 -0.1,1 0.1,0.2 0.1,0.5 0.1,0.9 v 0.1 c 0,0.4 0,0.7 -0.1,0.9 l 0.1,0.6 c 0,8.7 -1.5,13.9 -4.5,16 l -0.1,0.1 -0.1,0.1 c -1.4,0.4 -2,0.5 -2.4,0.5 h -1.2 c -4,-0.8 -6.4,-4.6 -7.3,-11.7 l -0.4,-4.9 c 0,-11.4 1.7,-19.1 5.2,-23.5 l 0.1,-0.1 0.1,-0.1 c 1.1,-0.6 2.1,-1 3.1,-1 2.2,-0.1 5.2,1.8 7.4,16.6 z m -8.6,-13.2 v 0.1 c -2.6,4.5 -4,11.5 -4,20.6 0,4.3 0.7,8.1 2.1,11.4 1.7,2.7 2.6,2.8 2.7,2.8 h 0.1 c 0.6,0 2.1,0 2.7,-2.7 l 0.1,-0.1 c 1,-1.9 1.5,-6.3 1.5,-12.8 v -2.4 c 0,-4.5 -1,-9.7 -3,-15.6 -0.5,-0.9 -1,-1.5 -1.4,-1.9 -0.6,0.4 -0.7,0.6 -0.8,0.6 z"
   id="path18"
   inkscape:connector-curvature="0" />
		<path
   d="m 237.2,256.5 c 0,-0.1 0.4,0.2 1.8,0.4 l 0.2,0.1 c 1.9,0.6 3.4,1.7 4.5,3.3 l 0.1,0.1 c 1.5,3.1 2.3,5.3 2.3,6.8 v 1.1 c 0,4.3 -1.4,7.7 -4.2,9.9 3.4,1.5 5.3,5.2 5.8,11.4 v 4.1 c 0,0.6 0.1,1.5 0.1,2.7 l 0.1,0.5 -1.1,0.6 h -1 l -1.2,-0.7 v -0.4 c -0.1,-1.4 -0.1,-2.5 -0.1,-3.2 v -3.9 c 0,-2.5 -0.9,-5.1 -2.8,-7.8 -0.8,-0.6 -1.5,-0.9 -2.1,-1.2 0.1,1.1 0.1,1.9 0.1,2.5 v 4.1 c 0.2,3.5 0.3,5.5 0.3,6 v 0.4 l -0.1,0.1 c -0.3,0.6 -0.9,0.9 -1.6,0.9 -0.5,0 -0.9,-0.3 -1.4,-0.7 l -0.3,-0.2 0.1,-1.1 c -0.1,-3 -0.2,-5 -0.2,-6 v -5.9 c -0.3,-0.1 -0.6,-0.4 -0.7,-0.6 l -0.1,-0.2 V 279 l 0.1,-0.2 c 0.1,-0.2 0.4,-0.4 0.6,-0.5 -0.4,-9.6 -1,-16.6 -1.7,-20.9 l -0.1,-0.5 1.2,-0.7 h 1.1 z m 2.4,19.9 c 2.2,-1.8 3.4,-4.3 3.4,-7.6 v -1.5 c 0,-1.7 -0.9,-4 -2.7,-6.7 -0.9,-0.6 -1.5,-1 -1.9,-1.2 0.4,4.7 0.8,10.4 1.2,17 z"
   id="path20"
   inkscape:connector-curvature="0" />
		<path
   d="m 262.8,256.5 c 0.5,0.1 0.9,0.2 1,0.3 2.1,-0.1 3.5,-0.2 4.3,-0.1 l 6.6,0.1 c 1.3,0.1 2.7,0.1 4,-0.1 l 0.6,-0.1 1.1,1.2 v 0.6 c -0.1,1.3 -1.9,1.5 -5.8,1.4 l -3.8,-0.1 0.1,5.6 v 0.1 l -0.1,0.8 c 0.4,13 0.6,22.6 0.4,28.4 0.1,0.2 0.1,0.4 0.1,0.6 v 0.2 l -0.1,0.2 0.1,0.8 -0.1,0.2 c -0.4,0.7 -0.9,1 -1.6,1 l -0.6,-0.1 c -0.6,0 -1,-0.4 -1.4,-0.8 l -0.3,-0.2 v -0.4 c 0,-0.2 0,-0.4 0.2,-1.4 0.1,-2 -0.1,-11.6 -0.4,-28.4 0.1,-2.5 0.1,-4.8 0,-6.8 l -5.4,0.2 -0.4,-0.3 c -0.4,-0.5 -0.7,-1.1 -0.7,-1.7 0.1,-0.8 1,-1.1 1.4,-1.2 l 0.4,-0.2 z"
   id="path22"
   inkscape:connector-curvature="0" />
		<path
   d="m 323.7,256.3 c 0.6,0.2 1.2,0.4 8.7,16.8 0.7,-2.2 2.5,-6.6 6.3,-15.6 l 0.2,-0.6 h 1.7 l 0.8,1.2 v 1.3 c -0.2,6.8 -0.4,12.6 -0.4,17.4 0,1.8 0.4,8.4 1.2,19.6 v 0.5 l -1.6,0.6 h -0.3 c -1.2,0 -1.7,0 -2.6,-19.4 v -9.9 c -3.7,9.3 -4.1,9.6 -4.5,9.9 l -0.3,0.2 h -0.4 c -0.9,-0.1 -1.7,-0.1 -6.9,-11.6 l 1.8,29.5 -1.6,0.7 h -0.2 c -1.2,0 -1.8,-0.6 -1.8,-1.5 -0.9,-19.8 -1.7,-32.5 -2.5,-37.8 l -0.1,-0.5 1.7,-0.8 z"
   id="path24"
   inkscape:connector-curvature="0" />
		<path
   d="m 361.1,256.3 c 1.6,0.6 2.9,2.1 4,4.5 2.7,6.7 4.6,15.3 5.8,25.7 0.9,3.3 1.3,6.4 1.3,9 v 0.1 l -0.1,0.2 c -0.1,0.3 -0.6,0.9 -1.9,0.9 h -0.6 l -0.3,-0.5 c -0.4,-0.5 -0.8,-2 -1.8,-9.4 -0.1,-0.5 -0.4,-1.8 -1.3,-7.1 H 366 c -4.5,0.4 -6.1,0.6 -6.7,0.8 v 4.1 l -0.9,10.6 c 0.2,0.4 0.4,0.6 0.4,0.9 0,0.7 -0.8,1.1 -1.2,1.2 l -0.5,0.1 c -1.1,0 -2.2,-0.5 -2.2,-2.1 0.7,-8.2 1.1,-13.2 1.1,-14.8 -0.1,-1.1 -0.1,-2.1 -0.1,-3.2 0,-5.6 0.6,-11.6 1.7,-17.8 0.2,-0.9 0.8,-3.4 3,-3.4 h 0.4 z m 0,4.2 c -1,4 -1.6,9 -1.6,14.9 v 0.8 h -0.1 v 1.3 c 2.2,-0.4 4.4,-0.6 6.6,-0.7 -0.3,-2.6 -1.8,-7.9 -4.7,-15.9 z"
   id="path26"
   inkscape:connector-curvature="0" />
		<path
   d="m 386.8,256.2 c 0.7,0 1.1,0.6 1.2,0.9 l 0.1,0.2 -0.1,0.8 c 0.1,2.1 0.4,7.3 1,15.1 3,-7.2 4.5,-11.8 4.7,-13.6 l 0.1,-1.1 c 0,-0.1 -0.1,-0.4 -0.1,-0.8 v -0.5 l 1.3,-0.6 h 0.4 c 0.8,0.1 1.5,0.5 1.7,1.1 l 0.1,0.1 -0.1,0.7 c -0.3,3.3 -1.7,7.7 -4,13 -0.4,1.3 -1.4,3.5 -2.8,6.8 1.2,0.8 2.9,3.4 5.6,11.2 0.6,1.9 1,4.4 1.3,7 v 0.5 c 0,0.3 -0.3,0.7 -1.1,1 l -0.1,0.1 -0.9,-0.1 -0.2,-0.1 c -0.8,-0.4 -1.2,-1 -1.1,-1.7 V 296 c 0,-0.1 0,-0.2 0.1,-0.3 -0.7,-4.3 -1.7,-7.6 -2.7,-9.9 -0.9,-2.4 -1.7,-3.7 -2.2,-4.5 l -0.3,15.6 -1.2,0.5 h -0.8 c -0.6,-0.1 -1,-0.5 -1.4,-1 l -0.2,-0.2 0.1,-0.4 c 0,-0.3 0.1,-0.6 0.3,-0.9 0.4,-11.9 0.4,-20.7 0.2,-25.9 -0.7,-6 -1,-9.8 -0.8,-11.5 v -0.4 c 0.1,-0.5 0.8,-0.9 1.1,-1 l 0.3,-0.1 z"
   id="path28"
   inkscape:connector-curvature="0" />
		<path
   d="m 415.8,256.2 c 4.3,0.4 5.5,0.7 5.5,1.7 v 0.2 l -0.1,0.1 c -0.4,1.1 -1.3,1.2 -1.7,1.2 l -0.1,-0.1 -4,-0.3 c -0.2,0 -0.8,0 -1.7,0.1 l 0.1,0.5 c 0,1.3 0.2,6.1 0.6,14.5 h 0.1 c 0.6,0 1.2,0 1.6,-0.1 l 0.1,-0.1 0.1,0.1 c 2.1,0.1 3.6,0.2 4.5,0.2 h 0.5 l 0.9,1 v 0.6 c 0,0.6 -0.5,1.2 -1.5,1.2 -0.9,0 -2.2,-0.1 -4.1,-0.2 -0.9,0.1 -1.6,0.1 -2.2,0.1 0,5.1 0.3,11 0.9,17.7 3,-0.1 4.8,-0.2 5.5,-0.2 h 0.3 c 0.7,0.2 1.2,0.5 1.5,1 l 0.1,0.2 v 0.3 c 0,0.6 -0.7,1 -1,1.2 l -0.2,0.1 h -0.3 c -4.4,0.1 -5.9,0.2 -6.4,0.2 h -0.1 c -1.7,0 -2.7,-0.9 -2.7,-2.3 -0.6,-7.3 -1,-13.5 -1,-18.4 V 273 c -0.4,-6.6 -0.6,-11.2 -0.6,-13.6 -0.4,-1.8 -0.4,-1.8 -0.4,-1.9 v -0.4 l 1.2,-0.8 h 1.9 c 0.4,0 0.9,0 1.7,-0.1 v -0.1 z"
   id="path30"
   inkscape:connector-curvature="0" />
	</g>
	<path
   d="m 471.3,343.9 c -1.6,0 -3.2,0.7 -3.9,2.3 -1.1,2.3 -1.8,5.2 -3,7.7 -6.8,15 -16.4,23.6 -26.3,30.7 -0.2,-11.8 -1.1,-29.3 -1.4,-34.5 -0.2,-4.1 -1.4,-7.9 -2.7,-11.8 -0.2,-1.1 -0.7,-2.3 -1.4,-3.4 -4.5,-7.5 -13.9,-7.5 -18.2,-0.2 -1.4,1.8 -2.3,3.9 -3.4,5.9 L 399.5,366 c -2,4.5 -3.9,9.3 -6.1,13.9 -0.7,1.8 -1.8,3.4 -2.7,5.2 -0.5,0.7 -1.1,1.1 -1.8,0.7 -0.5,0 -0.9,-0.7 -0.9,-0.9 -0.2,-1.6 -0.7,-3.2 -0.5,-4.5 0,-5.2 1.1,-21.8 1.1,-25 0,-0.9 0.2,-1.8 0.2,-3 -0.2,-2.7 0,-5.5 -0.5,-8.2 -0.5,-4.8 -2.5,-6.8 -6.8,-7.5 -4.3,-0.7 -6.8,0.9 -8.6,5.7 -0.7,2.3 -1.4,4.8 -1.8,7.3 -0.3,1.5 -0.6,3.1 -0.8,4.6 -6.4,19.8 -21.1,50.4 -29,50.4 -1.1,0 -1.6,-1.4 -1.8,-2.5 -0.9,-5.9 -1.6,-11.8 -0.9,-17.9 l 2.7,-22.5 c 0.5,-3.4 0.7,-6.8 0.9,-10.4 0.2,-2.5 -1.1,-4.3 -3.2,-5.5 -2.5,-1.1 -4.8,-1.4 -7.5,-1.4 -4.3,0 -8.9,0 -13.4,-0.2 -2.7,-0.2 -3.4,-1.6 -2.5,-4.1 2.3,-5.7 4.5,-11.4 5.9,-17.3 0.2,-1 0.5,-1.9 0.7,-2.9 34.5,0 69,0.1 103.6,-0.2 2.8,0 2.8,-4.3 0,-4.3 -34.3,0.3 -68.5,0.2 -102.7,0.2 0.7,-4.2 0.9,-8.4 -0.2,-12.8 -2.3,-7.9 -9.1,-12.5 -17.3,-10.7 -7.3,1.6 -12.9,5.2 -17,11.6 -2.4,3.7 -4.2,7.7 -5.4,11.9 -9.1,0 -18.2,0.1 -27.2,0.1 -59.3,0.5 -118.6,-2.1 -177.9,-1.7 -2.8,0 -2.8,4.3 0,4.3 59.3,-0.4 118.5,2.2 177.9,1.7 8.8,-0.1 17.6,-0.1 26.3,-0.1 -0.1,0.9 -0.2,1.9 -0.3,2.9 -1.1,10.9 2.7,17.5 12.5,22.5 2.6,1.4 5.3,2.1 7.6,3.7 -12.2,23.6 -24.6,41.4 -41.7,48.5 -2.5,0.9 -4.5,0.2 -5.7,-2.3 -1.4,-3.2 -2,-6.6 -2,-10.2 -0.2,-3 0.2,-3.4 3,-4.1 2,-0.5 3.9,-1.1 5.5,-2.5 8.4,-6.8 14.8,-15 18.2,-25.4 1.1,-4.1 1.8,-8.2 0.9,-12.7 -0.7,-4.8 -3.2,-8.2 -7.7,-10.2 -6.6,-3.2 -13.4,-4.1 -20.4,-1.6 -8.6,3.4 -15,9.1 -18.4,17.7 -1.9,4.9 -3.1,9.7 -3.8,14.7 -7.7,10.7 -15.6,8.7 -16.2,8.7 -0.7,-0.2 -0.9,-0.9 -0.9,-1.8 0.2,-2 0.5,-11.6 0.2,-14.3 -0.2,-3.9 -1.6,-7.3 -4.1,-10.2 -7,-8.6 -19.8,-6.8 -23.9,3.2 -4.3,10 -2.5,21.1 8.9,28.2 1.4,0.9 3.2,1.6 4.5,2.5 1.1,0.5 1.4,1.6 1.1,2.5 -2.7,6.4 -7,15.2 -11.6,20.9 -1.6,1.8 -3.4,3.6 -5.2,5.2 -3.6,3.2 -5.5,2.7 -6.8,-2 -1.1,-3.4 -1.8,-6.8 -1.8,-10.5 0,-5.9 0,-30.4 0,-33.2 V 351 c 0,-1.8 0,-3.4 -0.5,-5.2 -0.2,-1.8 -1.4,-3.2 -3.2,-3.9 -6.2,-1.9 -10.4,-0.6 -12.7,4.1 -0.5,0.4 -0.9,0.9 -1.3,1.6 -12.5,24.3 -25,42.7 -42.5,50 -2.5,0.9 -4.5,0.2 -5.7,-2.3 -1.4,-3.2 -2,-6.6 -2,-10.2 -0.2,-3 0.2,-3.4 3,-4.1 2,-0.5 3.9,-1.1 5.5,-2.5 8.4,-6.8 14.8,-15 18.2,-25.4 1.1,-4.1 1.8,-8.2 0.9,-12.7 -0.7,-4.8 -3.2,-8.2 -7.7,-10.2 -6.6,-3.2 -13.4,-4.1 -20.4,-1.6 -8.6,3.4 -15,9.1 -18.4,17.7 -3,7.7 -4.3,15.4 -4.5,23.6 -0.2,6.1 1.1,11.8 3.4,17.7 5.5,14.1 24.5,19.8 36.8,12.7 12.2,-7.3 22.6,-19.1 31,-32.4 -0.4,7 -0.4,14.3 0.1,19.5 0.7,7.5 2.7,14.8 8,20.7 4.5,5.7 10.4,7.5 17.5,6.1 3.9,-0.7 7.3,-2.5 10,-5 2.3,-2 4.1,-4.3 6.1,-6.6 5,-6.4 9.1,-13.4 12,-20.7 1.4,-2.5 3,-4.3 5.9,-5 1.4,-0.1 8.5,-0.5 15.7,-5.6 0,5.6 1.3,10.8 3.4,16.3 5.5,14.1 24.5,19.8 36.8,12.7 17.5,-10.4 31.1,-30.1 40.8,-50.3 3.1,-0.4 6.3,-0.1 9.3,0.1 1.6,0.2 2.3,1.4 2,2.7 -0.2,0.7 -0.5,1.4 -0.9,2 -3.4,7.3 -4.1,15 -4.1,23.2 0,5.9 0.2,12.3 2.3,18.2 1.1,4.1 3,7.5 5.7,10.5 3.6,3.6 8.4,5.7 12.9,5.7 12.8,0 23.3,-17.5 31.8,-36.5 0.1,1.8 0.1,3.6 0.3,5.4 0.2,3.9 1.1,7.9 2.5,11.6 1.1,2.7 2.5,5 4.8,6.8 3,2.7 6.6,3.2 10.7,2.7 3.2,-0.5 4.3,-3 5.7,-5.5 1.1,-1.6 2,-3.4 3,-5.2 3.4,-6.8 6.4,-13.6 9.1,-20.7 3.2,-8.6 7,-16.6 11.6,-24.5 0.5,-0.5 1.4,-1.1 1.8,-1.1 0.5,0.2 1.1,1.1 1.1,1.8 0.2,4.5 0.5,9.1 0.5,13.4 0,12.7 0,25 -0.9,36.3 -1.6,1.1 -3.4,2.3 -5,3.6 -17.9,13.9 -33.4,32.7 -32.9,52.9 0.2,7.5 5.7,12.5 12.9,12.7 5,0 9.5,-1.1 13.6,-3.4 5.2,-3 9.3,-7 12.7,-11.8 6.1,-8.4 10.7,-17.5 13.2,-27.7 2.3,-9.3 3.9,-18.6 4.3,-28.2 v -2.3 c 13.4,-9.5 26.1,-20.4 33.4,-36.8 0.9,-2 1.6,-4.1 2.3,-6.1 l 0.7,-3 c -0.1,-1.7 -1.5,-3.1 -3.5,-2.9 z m -210.6,0.7 c 1.4,-2.7 3.2,-5 5.5,-7 2,-1.6 3.9,-0.9 4.5,1.4 0.7,2 0.7,4.1 0.7,6.8 0,0.9 -0.2,2.7 -0.7,4.3 -2.5,9.1 -7.7,16.1 -14.5,22.5 -0.2,0.2 -0.9,0.5 -1.4,0.5 -0.9,-0.2 -1.1,-0.9 -1.1,-1.8 0.4,-9.4 2.7,-18.3 7,-26.7 z m -146.5,0 c 1.4,-2.7 3.2,-5 5.5,-7 2,-1.6 3.9,-0.9 4.5,1.4 0.7,2 0.7,4.1 0.7,6.8 0,0.9 -0.2,2.7 -0.7,4.3 -2.5,9.1 -7.7,16.1 -14.5,22.5 -0.2,0.2 -0.9,0.5 -1.4,0.5 -0.9,-0.2 -1.1,-0.9 -1.1,-1.8 0.4,-9.4 2.7,-18.3 7,-26.7 z m 88.6,25.7 c -0.5,1.6 -2.3,2 -3.6,0.9 -3,-2.3 -4.5,-5.2 -5.5,-8.9 -1.1,-5.2 -0.2,-10.5 2.3,-15.2 0.5,-1.1 1.1,-2.5 2.5,-2.5 1.6,-0.2 2.3,1.1 2.7,2.3 2.3,4.3 3.2,8.9 3.2,13.9 0,3.1 -0.7,6.3 -1.6,9.5 z m 106.3,-68.2 c 0.5,-0.9 1.1,-1.6 1.8,-2.5 0.9,-0.9 2.5,-0.7 3.2,0.5 1.8,3.2 1.6,6.8 1.8,10.7 -0.1,1.6 -0.2,3.2 -0.5,4.8 -3.7,0 -7.3,0 -11,0 1.2,-4.6 2.7,-9 4.7,-13.5 z m -0.9,36.4 c -0.5,0.5 -1.1,1.1 -1.8,1.1 -0.7,0 -1.4,-0.7 -1.8,-1.1 -1.1,-1.6 -1.6,-3.6 -1.6,-5.7 -0.3,-4.4 0,-8.7 0.7,-12.9 3.7,0 7.4,0 11,0 -1.4,6.3 -3.8,12.4 -6.5,18.6 z m 98.5,110.2 c -2,3.9 -4.3,7.3 -7.7,10.2 -5.7,4.8 -9.3,-1.6 -9.1,-10.9 0.2,-18.4 16.4,-32 22.7,-37 1.8,-1.6 3.9,-3 5.9,-4.3 -1.5,16.1 -4.9,30.4 -11.8,42 z"
   id="path34"
   inkscape:connector-curvature="0" />
	<g
   id="g58">
		<path
   d="m 91.2,442.5 c 0.1,0.9 0.1,2.1 0.1,3.5 v 0.4 c 0,0.3 0,0.5 -0.1,0.9 0.1,0.2 0.1,0.5 0.1,0.8 v 0.1 c 0,0.4 0,0.6 -0.1,0.8 l 0.1,0.5 c 0,7.7 -1.3,12.3 -4,14.2 l -0.1,0.1 -0.1,0.1 c -1.3,0.4 -1.8,0.4 -2.1,0.4 h -1.1 c -3.5,-0.7 -5.6,-4.1 -6.5,-10.4 L 77,449.6 c 0,-10.1 1.5,-16.9 4.6,-20.9 l 0.1,-0.1 0.1,-0.1 c 1,-0.6 1.9,-0.9 2.8,-0.9 1.9,0 4.6,1.8 6.6,14.9 z m -7.7,-11.7 v 0.1 c -2.3,4 -3.5,10.2 -3.5,18.3 0,3.8 0.6,7.2 1.9,10.1 1.5,2.4 2.3,2.5 2.4,2.5 h 0.1 c 0.5,0 1.9,0 2.4,-2.4 l 0.1,-0.1 c 0.9,-1.7 1.3,-5.6 1.3,-11.4 v -2.1 c 0,-4 -0.9,-8.6 -2.7,-13.9 -0.4,-0.8 -0.9,-1.4 -1.2,-1.7 -0.6,0.4 -0.7,0.6 -0.8,0.6 z"
   id="path36"
   inkscape:connector-curvature="0" />
		<path
   d="m 104.5,427.6 c 0.7,0.4 1,0.9 1,1.5 l -0.1,0.5 c 0.3,10.8 0.7,19.6 1.4,26.2 0.6,5.2 1.6,6.1 2,6.2 0.6,-0.3 0.9,-0.6 1,-1.2 0.1,-2.6 0.1,-9.3 -0.1,-19.8 0.3,-2 0.3,-3.9 0.4,-5.7 l 0.1,-2.3 -0.1,-0.8 0.2,-0.3 -0.2,-2.5 -0.1,-0.4 1.1,-0.7 h 0.7 c 1.1,0.1 1.3,1.2 1.5,3.6 0,0.2 -0.1,0.3 -0.2,0.4 0.1,0.9 0.1,1.6 0.1,2 l -0.2,3.2 h 0.1 l -0.1,0.8 c -0.2,0.8 -0.2,1.3 -0.3,1.6 v 0.4 c 0.1,11.5 0,18.4 -0.1,20.5 -0.6,3.1 -2.9,3.5 -4.2,3.5 -2.8,-0.1 -4.4,-3.4 -4.8,-10.5 -0.6,-5.7 -1,-14.3 -1.3,-25.4 V 428 l 1.2,-0.6 h 0.7 z"
   id="path38"
   inkscape:connector-curvature="0" />
		<path
   d="m 126.5,427.9 c 0.4,0.1 0.8,0.2 0.9,0.3 1.9,-0.1 3.1,-0.2 3.8,-0.1 l 5.9,0.1 c 1.2,0.1 2.4,0.1 3.6,-0.1 l 0.6,-0.1 1,1 v 0.6 c -0.1,1.2 -1.7,1.3 -5.1,1.2 l -3.4,-0.1 0.1,5 v 0.1 l -0.1,0.7 c 0.4,11.6 0.5,20.1 0.3,25.2 0.1,0.2 0.1,0.3 0.1,0.5 v 0.2 l -0.1,0.2 0.1,0.7 -0.1,0.2 c -0.3,0.6 -0.8,0.9 -1.4,0.9 l -0.6,-0.1 c -0.6,0 -0.9,-0.3 -1.3,-0.7 l -0.3,-0.2 v -0.3 c 0,-0.2 0,-0.4 0.2,-1.2 0.1,-1.8 -0.1,-10.3 -0.3,-25.3 0.1,-2.2 0.1,-4.2 0,-6.1 l -4.8,0.2 -0.3,-0.3 c -0.4,-0.5 -0.6,-1 -0.6,-1.5 0.1,-0.7 0.9,-1 1.2,-1.1 l 0.3,-0.2 z"
   id="path40"
   inkscape:connector-curvature="0" />
		<path
   d="m 163.4,427.8 h 0.4 l 0.7,0.8 v 0.2 c 0,0.9 -0.6,1.5 -1.7,1.5 -2,-0.1 -4.1,-0.1 -6.4,-0.1 l 0.6,12.9 c 1,-0.1 2.1,-0.1 3,-0.1 h 3.4 c 0.6,0 1.1,0.4 1.3,1.3 l 0.1,0.4 -1.3,0.8 h -4 c -1.3,0 -1.9,0.1 -2.3,0.1 v 0.7 c 0,1 0.1,5.3 0.3,12.6 v 1.1 l 0.1,0.7 c 0,0.1 0,0.2 -0.1,0.4 l 0.1,0.7 v 1.3 c 0,0.3 -0.1,0.7 -0.9,1 l -0.2,0.1 h -0.6 c -0.7,0 -1.1,-0.5 -1.3,-0.8 l -0.1,-0.2 V 463 c -0.4,-17.2 -0.6,-21.4 -0.8,-21.9 l 0.1,-0.1 -0.1,-0.4 c -0.4,-5.5 -0.5,-9.6 -0.5,-12.2 V 428 l 0.3,-0.2 c 0.5,-0.3 1.2,-0.5 2,-0.5 3.7,0.5 6.3,0.5 7.9,0.5 z"
   id="path42"
   inkscape:connector-curvature="0" />
		<path
   d="m 178.1,427.6 c 1.2,0 1.8,0.9 1.8,6.2 v 1.4 c 0,1.4 -0.3,4.8 -0.8,10.5 0,0.2 0.1,0.4 0.1,0.6 v 0.2 c -0.1,3.6 -0.1,6.4 -0.1,8.5 v 6.8 c 0,0 0,0.2 0.3,0.8 v 0.3 c -0.3,1.1 -0.9,1.3 -1.4,1.3 h -0.5 c -1.3,0 -1.4,-1.5 -1.4,-3.5 0,-11.9 0.3,-20.3 0.8,-24.8 v -2.8 c 0,-1.5 -0.1,-3 -0.4,-4.2 v -0.2 c 0,-0.5 0.6,-0.9 1,-1 l 0.2,-0.2 h 0.4 z"
   id="path44"
   inkscape:connector-curvature="0" />
		<path
   d="m 193,427.9 c 0.4,0.1 0.8,0.2 0.9,0.3 1.9,-0.1 3.1,-0.2 3.8,-0.1 l 5.9,0.1 c 1.2,0.1 2.4,0.1 3.6,-0.1 l 0.6,-0.1 1,1 v 0.6 c -0.1,1.2 -1.7,1.3 -5.1,1.2 l -3.4,-0.1 0.1,5 v 0.1 l -0.1,0.7 c 0.4,11.6 0.5,20.1 0.3,25.2 0.1,0.2 0.1,0.3 0.1,0.5 v 0.2 l -0.1,0.2 0.1,0.7 -0.1,0.2 c -0.3,0.6 -0.8,0.9 -1.4,0.9 l -0.6,-0.1 c -0.6,0 -0.9,-0.3 -1.3,-0.7 l -0.3,-0.2 v -0.3 c 0,-0.2 0,-0.4 0.2,-1.2 0.1,-1.8 -0.1,-10.3 -0.3,-25.3 0.1,-2.2 0.1,-4.2 0,-6.1 l -4.8,0.2 -0.3,-0.3 c -0.4,-0.5 -0.6,-1 -0.6,-1.5 0.1,-0.7 0.9,-1 1.2,-1.1 l 0.3,-0.2 z"
   id="path46"
   inkscape:connector-curvature="0" />
		<path
   d="m 253.7,427.6 c 2.5,0.4 3.1,1.3 3.1,2 0,0.6 -0.7,0.9 -1,1 l -0.2,0.1 h -1.2 l -0.3,-0.3 c -0.4,-0.4 -0.8,-0.5 -1,-0.5 -1.9,0.5 -2.3,0.9 -2.4,1 v 0.1 l -0.1,0.2 c -1.6,2.5 -2.4,6 -2.4,10.4 v 1.8 c 0,3 0.5,6.7 1.5,11 0.6,3 1.4,5 2.4,6.1 1.1,0.8 2.1,1.2 2.8,1.3 0.9,0 2.1,-0.7 3.3,-2 l 0.3,-0.3 h 0.8 c 0.3,0 0.8,0.1 1.2,0.7 l 0.1,0.2 v 0.4 c 0,0.9 -1,1.8 -3.2,3 l -0.1,0.1 c -0.9,0.3 -1.7,0.5 -2.5,0.5 l -0.3,-0.1 c -1.4,-0.1 -2.9,-0.7 -4.4,-1.8 -1,-0.7 -2.7,-2.7 -4.2,-12.3 -0.4,-1.5 -0.6,-4 -0.6,-7.5 V 442 c 0.1,-7.3 1.7,-11.7 4.6,-13.6 l 0.1,-0.1 c 1.9,-0.7 2.4,-0.8 2.8,-0.8 h 0.9 z"
   id="path48"
   inkscape:connector-curvature="0" />
		<path
   d="m 285.9,442.5 c 0.1,0.9 0.1,2.1 0.1,3.5 v 0.4 c 0,0.3 0,0.5 -0.1,0.9 0.1,0.2 0.1,0.5 0.1,0.8 v 0.1 c 0,0.4 0,0.6 -0.1,0.8 l 0.1,0.5 c 0,7.7 -1.3,12.3 -4,14.2 l -0.1,0.1 -0.1,0.1 c -1.3,0.4 -1.8,0.4 -2.1,0.4 h -1.1 c -3.5,-0.7 -5.6,-4.1 -6.5,-10.4 l -0.4,-4.3 c 0,-10.1 1.5,-16.9 4.6,-20.9 l 0.1,-0.1 0.1,-0.1 c 1,-0.6 1.9,-0.9 2.8,-0.9 2,0 4.6,1.8 6.6,14.9 z m -7.6,-11.7 v 0.1 c -2.3,4 -3.5,10.2 -3.5,18.3 0,3.8 0.6,7.2 1.9,10.1 1.5,2.4 2.3,2.5 2.4,2.5 h 0.1 c 0.5,0 1.9,0 2.4,-2.4 l 0.1,-0.1 c 0.9,-1.7 1.3,-5.6 1.3,-11.4 v -2.1 c 0,-4 -0.9,-8.6 -2.7,-13.9 -0.4,-0.8 -0.9,-1.4 -1.2,-1.7 -0.7,0.4 -0.8,0.6 -0.8,0.6 z"
   id="path50"
   inkscape:connector-curvature="0" />
		<path
   d="m 299.2,427.6 c 0.7,0.4 1,0.9 1,1.5 l -0.1,0.5 c 0.3,10.8 0.7,19.6 1.4,26.2 0.6,5.2 1.6,6.1 2,6.2 0.6,-0.3 0.9,-0.6 1,-1.2 0.1,-2.6 0.1,-9.3 -0.1,-19.8 0.3,-2 0.3,-3.9 0.4,-5.7 l 0.1,-2.3 -0.1,-0.8 0.2,-0.3 -0.2,-2.5 -0.1,-0.4 1.1,-0.7 h 0.7 c 1.1,0.1 1.3,1.2 1.5,3.6 0,0.2 -0.1,0.3 -0.2,0.4 0.1,0.9 0.1,1.6 0.1,2 l -0.2,3.2 h 0.1 l -0.1,0.8 c -0.2,0.8 -0.2,1.3 -0.3,1.6 v 0.4 c 0.1,11.5 0,18.4 -0.1,20.5 -0.6,3.1 -2.9,3.5 -4.2,3.5 -2.8,-0.1 -4.4,-3.4 -4.8,-10.5 -0.6,-5.7 -1,-14.3 -1.3,-25.4 V 428 l 1.2,-0.6 h 0.7 z"
   id="path52"
   inkscape:connector-curvature="0" />
		<path
   d="m 327.3,442 0.1,0.1 c 0.4,1.8 1.9,6 4.4,12.4 -0.4,-6.2 -0.6,-9.7 -0.6,-10.6 0,-0.3 0.1,-1.3 0.2,-3.1 0,-0.2 -0.1,-0.6 -0.1,-1.2 l 0.1,-0.1 c 0.1,-1.3 0.2,-2.4 0.2,-3.1 v -7.3 c 0.2,-0.9 0.9,-1.3 1.6,-1.3 h 0.2 l 1.4,0.6 v 0.5 c -0.3,3.8 -0.4,6.7 -0.4,8.6 v 2.8 c 0,5.9 0.3,13.6 0.7,22.8 v 0.5 l -1.3,0.6 h -0.2 c -1,0 -1.4,0 -9.7,-23.1 l -1.6,-4.5 c -0.1,3.6 -0.3,6 -0.3,7.4 0,7.5 0.4,13.8 1.1,18.7 l 0.1,0.8 h -1.7 c -1,0 -1.6,-0.5 -1.6,-1.3 -0.4,-5.9 -0.7,-11.3 -0.7,-15.9 v -17.7 c 0.2,-0.7 0.8,-1.2 1.6,-1.2 1,0.2 1.4,0.2 6.5,14.6 z"
   id="path54"
   inkscape:connector-curvature="0" />
		<path
   d="m 348.2,427.9 c 0.4,0.1 0.8,0.2 0.9,0.3 1.9,-0.1 3.1,-0.2 3.8,-0.1 l 5.9,0.1 c 1.2,0.1 2.4,0.1 3.6,-0.1 l 0.6,-0.1 1,1 v 0.6 c -0.1,1.2 -1.7,1.3 -5.1,1.2 l -3.4,-0.1 0.1,5 v 0.1 l -0.1,0.7 c 0.4,11.6 0.5,20.1 0.3,25.2 0.1,0.2 0.1,0.3 0.1,0.5 v 0.2 l -0.1,0.2 0.1,0.7 -0.1,0.2 c -0.3,0.6 -0.8,0.9 -1.4,0.9 l -0.6,-0.1 c -0.6,0 -0.9,-0.3 -1.3,-0.7 l -0.3,-0.2 v -0.3 c 0,-0.2 0,-0.4 0.2,-1.2 0.1,-1.8 -0.1,-10.3 -0.3,-25.3 0.1,-2.2 0.1,-4.2 0,-6.1 l -4.8,0.2 -0.3,-0.3 c -0.4,-0.5 -0.6,-1 -0.6,-1.5 0.1,-0.7 0.9,-1 1.2,-1.1 l 0.3,-0.2 z"
   id="path56"
   inkscape:connector-curvature="0" />
	</g>
	<g
   id="g64">
		<path
   d="m 165.1,109.5 c 3,2 5.9,2.5 9.3,1.6 3.2,-1.1 4.8,-5.2 3.2,-7.9 -0.5,-1.1 -1.4,-2.3 -1.8,-3.4 -1.4,-2.5 -3.6,-3.2 -7.7,-3.2 -0.2,0 -1.6,0.2 -2.7,1.6 -1.8,2 -2.5,4.8 -2.3,7.5 0,1.6 0.9,2.9 2,3.8 z"
   id="path60"
   inkscape:connector-curvature="0" />
		<path
   d="m 366.4,134.5 c -2.5,-0.5 -4.3,0.7 -5.7,2.7 -12.5,24.3 -25,42.7 -42.5,50 -2.5,0.9 -4.5,0.2 -5.7,-2.3 -1.4,-3.2 -2,-6.6 -2,-10.2 -0.2,-3 0.2,-3.4 3,-4.1 2,-0.5 3.9,-1.1 5.5,-2.5 8.4,-6.8 14.8,-15 18.2,-25.4 1.1,-4.1 1.8,-8.2 0.9,-12.7 -0.7,-4.8 -3.2,-8.2 -7.7,-10.2 -6.6,-3.2 -13.4,-4.1 -20.4,-1.6 -8.6,3.4 -15,9.1 -18.4,17.7 -2,5.2 -3.3,10.5 -3.9,15.8 -8.9,14.9 -22.9,20.3 -24.5,21.9 -0.9,0.7 -2,0.7 -2.7,-0.5 -1.1,-1.8 -2,-3.9 -3.2,-5.9 -2.3,-4.1 -5.7,-7 -10.4,-8.2 -6.1,-1.1 -11.8,0 -17,4.1 -1.4,1.1 -2.3,3.2 -4.3,3.6 -1.1,-0.7 -1.1,-1.6 -1.1,-2.7 0,-2.7 0.5,-5.5 0.5,-8.2 -0.2,-8.9 3.6,-16.1 9.5,-22.3 3,-3 6.1,-5.9 9.3,-8.9 l 7.5,-6.1 c 8.2,-6.4 15,-14.1 21.1,-22.5 3.6,-5.5 6.6,-11.4 8.6,-17.5 2,-6.6 1.8,-12.9 0.2,-19.5 -3.9,-16.4 -27.9,-27.9 -45.4,-15.9 -5.5,3.9 -9.8,8.6 -13.2,14.3 -5,7.9 -8.6,16.6 -10.9,25.7 -1.4,6.1 -2.7,12.3 -3.9,18.4 -2.7,14.1 -4.8,28.3 -5.9,42.7 -6.6,19.6 -17.4,39.3 -30.9,39.3 -1.1,-0.5 -0.9,-3.9 -0.9,-4.8 0,-1.6 0,-3.2 0.2,-4.5 1.1,-7.9 2.3,-15.9 3.2,-24.1 0.7,-3.9 1.1,-7.9 1.1,-11.8 0.2,-4.3 -1.1,-5.9 -5,-7.3 -6.8,-1.8 -10.4,-0.2 -13.4,6.1 -0.7,1.6 -1.4,3.4 -1.8,5 -0.9,2.7 -1.5,5.4 -2.1,8.2 -5.2,15.4 -8.5,24.1 -11.1,30.5 -3.2,7.9 -7.5,15.4 -12.5,22.5 -2.5,3.4 -5.2,6.8 -8.4,9.3 -1.8,1.6 -3.4,1.4 -4.8,-0.2 -1.1,-1.6 -2.3,-3.2 -3.4,-5 -3,-5 -5,-10.2 -6.6,-15.9 -4.3,-16.6 -5.2,-33.6 -5.2,-50.9 0,-5.2 1.6,-9.1 5.9,-12 2,-1.6 3.6,-3.4 5.7,-5 8.9,-7.5 16.4,-16.1 23.4,-25.7 5.7,-7.7 10.2,-15.9 13.2,-25.2 1.8,-5.5 3.2,-11.1 2.5,-17 -0.5,-5.7 -2.3,-10.7 -6.8,-14.5 -7.5,-6.1 -15.9,-8.4 -25.2,-5.4 -8.2,2.3 -14.3,7.5 -19.3,13.9 -6.4,8 -10.2,17.3 -12.9,27 -5.7,19.6 -8.1,39.8 -9,60.2 -19.6,10.7 -45.5,12.8 -66.6,11.3 -4.1,-0.3 -4.1,6.1 0,6.4 21.3,1.5 46.1,-0.7 66.3,-10.5 -0.4,9.4 0.9,18.8 2.3,28 1.1,8.9 3.2,17.5 6.8,25.4 3.2,7 7,13.4 12.7,18.4 4.1,3.9 8.9,5.5 14.5,5.2 6.4,-0.2 11.8,-2.5 15.9,-7.3 4.5,-4.8 8.2,-10.2 11.6,-15.7 3,-5 5.5,-10 7.5,-15.2 1.2,-3.1 2.1,-5.5 3.1,-8.1 0.2,1.3 0.5,2.7 0.8,4 1.6,6.6 9.3,12.3 16.8,11.8 12.5,-0.8 23.4,-11 31.6,-25.9 -0.2,12.1 0.3,24 1.8,35.9 1.1,9.8 2.7,19.3 7.5,28.2 6.6,12 14.1,15.9 27.9,13.9 5.7,-0.9 10.4,-3.4 13.6,-8.4 1.6,-3 3.2,-5.7 4.5,-8.9 4.1,-10 5.9,-20.7 6.1,-31.6 v -8.2 c 0,-2 0.7,-3.4 2.3,-4.5 0.2,-0.3 12,-6 22.4,-17.4 0.4,4.6 1.6,9 3.3,13.6 5.5,14.1 24.5,19.8 36.8,12.7 17.9,-10.7 31.8,-31.1 41.6,-51.8 0.7,-2.1 -0.3,-3.5 -2.5,-3.7 z m -48,-0.2 c 1.4,-2.7 3.2,-5 5.5,-7 2,-1.6 3.9,-0.9 4.5,1.4 0.7,2 0.7,4.1 0.7,6.8 0,0.9 -0.2,2.7 -0.7,4.3 -2.5,9.1 -7.7,16.1 -14.5,22.5 -0.2,0.2 -0.9,0.5 -1.4,0.5 -0.9,-0.2 -1.1,-0.9 -1.1,-1.8 0.5,-9.4 2.7,-18.3 7,-26.7 z m -89.2,-17.5 c 1.8,-10.4 3.6,-20.9 5.9,-31.1 1.6,-7.5 4.1,-14.5 7.3,-21.4 2.3,-5.2 5.2,-9.8 9.3,-13.6 6.6,-6.4 11.6,-5.5 16.4,2.3 2.3,3.6 3.6,9.3 3.6,14.5 0.2,4.5 -0.9,8.9 -2.5,13.2 -3,8.2 -7.5,15.2 -12.9,21.8 -7.5,8.9 -16.6,15.7 -25.2,22.9 -0.7,0.5 -1.4,0.7 -2,0 -0.2,-0.2 -0.5,-0.9 -0.5,-1.1 -0.1,-2.5 0.1,-5.2 0.6,-7.5 z m -127.4,1.4 c 0.7,-7.5 1.4,-15 2.7,-22.5 1.1,-6.8 2.5,-13.9 4.3,-20.7 2,-8.2 5.5,-16.1 10.4,-23.2 2.7,-3.6 5.9,-6.8 10,-8.9 5,-2 7.5,-1.4 10,3.4 1.8,3.4 2.3,7.3 2.3,10.9 -0.2,7.5 -2,14.5 -5.2,21.1 -7,15.9 -17.5,29.3 -30.2,40.9 -0.2,0.2 -0.2,0.5 -0.5,0.5 -1.1,0.9 -2,2 -3.4,1.1 -0.4,-0.4 -0.7,-1.7 -0.4,-2.6 z m 134.9,53.3 c 0.5,-1.6 1.4,-3.2 2.3,-4.5 2,-2.7 3.9,-2.7 6.1,-0.2 2.7,3.4 4.5,7.3 5.7,11.4 0.9,3.2 -0.5,4.5 -3.6,5 h -1.6 c -5.7,0.4 -10.3,-6.9 -8.9,-11.7 z m 15.6,21.4 v 3.9 c -0.2,8.6 -1.8,16.8 -4.8,25 -1.8,4.8 -4.1,9.1 -7.9,12.7 -1.6,1.6 -3.4,1.6 -5,-0.5 -3.6,-3.9 -5.7,-8.9 -7.3,-13.9 -0.9,-3.9 -1.8,-7.7 -2.3,-11.8 -1.1,-8.4 -1.8,-17 -1.6,-25.4 0,-1.1 0.2,-2 0.5,-3 0.5,-0.7 1.1,-0.9 2,-0.5 0.5,0.2 0.7,0.7 0.9,0.9 4.8,5.9 11.1,7.5 18.2,7.7 1.1,0 2.5,-0.2 3.6,-0.2 2.7,0 3.4,0.7 3.6,3.6 0.1,0.6 0.1,1 0.1,1.5 z"
   id="path62"
   inkscape:connector-curvature="0" />
	</g>
	<g
   id="_x31_0_1_">
		<path
   d="m 426.9,162 c 0.3,4.2 -0.7,8 -2.1,11.9 -1.3,3.5 -2.1,7.2 -2.8,10.9 -1.2,6.8 -1.3,13.8 -1,20.7 0.1,2.5 0.2,4.9 0.1,7.4 -0.1,2.1 -0.8,2.9 -3,2.8 -0.9,-0.1 -1.8,0.6 -2.9,-0.2 -1.4,-0.9 -1.4,-2 -1.5,-3.4 -0.2,-3.3 -0.9,-6.6 -0.9,-9.8 0.1,-4.4 -0.4,-8.8 -1,-13.2 -0.3,-2.3 -1.1,-4.5 -1.7,-6.7 -0.6,-2.3 -3,-4.4 -6,-4.5 -3.6,-0.1 -6.9,0.9 -9.6,2.9 -4,3 -7.8,6.2 -11.3,9.7 -1.9,1.8 -3.1,4.3 -4.6,6.5 -2.9,4.4 -5.1,9.2 -7.3,14 -1,2.2 -2.2,4.4 -3.5,6.5 -0.4,0.7 -1.2,1.5 -2,1.7 -2.5,0.8 -5,1.5 -7.5,1.8 -5,0.6 -10,1.2 -15,1.4 -4,0.2 -8,1.1 -12,1.3 -3.7,0.2 -7.3,0.1 -11,0.1 -3,0.1 -6.1,0.3 -9.1,0.2 -1.8,0 -3.7,-0.3 -5.5,-0.5 -1.3,-0.1 -2.6,-0.3 -3.8,-0.2 -1.7,0.1 -2.4,-0.2 -2.9,-1.7 -0.5,-1.5 -0.7,-2.7 0.6,-4.3 2.7,-3.1 5.5,-6.2 8.8,-8.7 5,-3.8 10.3,-7 15.8,-10 0.8,-0.4 1.5,-1 2.3,-1.5 2.2,-1.3 4.6,-2.2 7.2,-2.5 4.7,-0.5 9.3,-1.3 13.9,-2.1 2,-0.4 3.8,-1.4 5.9,-1 2.8,-1.6 6,-2.4 8.6,-4.7 4.2,-3.7 6.8,-8.4 9.6,-13.1 3.8,-6.4 7.6,-12.8 12.3,-18.6 2.6,-3.3 5.3,-6.6 8.8,-9.2 2.9,-2.1 5.5,-4.6 8.3,-6.8 0.5,-0.4 1.2,-0.6 1.7,-0.8 0.8,-0.4 1.7,-0.7 2.5,-1.1 1.4,-0.7 2.7,-1.6 4.4,-1.6 0.9,0 1.7,-0.6 2.5,-1 1.8,-0.9 3.1,-0.7 4.1,1 1.5,2.6 3,5.3 4.4,8 1.6,3.3 3.3,6.6 4.4,10.1 1.1,2.8 1.3,5.6 1.8,8.3 z m -77.8,37.3 c 3.8,-0.8 8.1,-1.5 12.3,-2.4 1.3,-0.3 2.8,-0.7 3.8,-1.4 1.7,-1.2 3.3,-2.7 4.6,-4.3 2,-2.4 3.8,-5 5.7,-7.5 0.2,-0.3 0.4,-0.6 0.6,-0.9 2.8,-4.5 5.6,-9.1 8.5,-13.6 1.3,-2 2.6,-4 3.8,-6 0.1,-0.2 0.3,-0.5 0.4,-0.7 1.6,-2.8 3.1,-5.6 5,-8.3 2.5,-3.6 5.2,-7.1 7.9,-10.6 0.7,-0.9 1.7,-1.6 2.6,-2.5 0.1,-0.1 0.2,-0.5 0.2,-0.5 -0.2,-0.1 -0.5,-0.3 -0.7,-0.2 -0.8,0.5 -1.5,1 -2.3,1.5 -0.7,0.5 -1.3,1 -1.9,1.5 -1.3,1 -2.8,1.8 -4,3 -3,2.8 -5.9,5.6 -8.6,8.6 -1.9,2.1 -3.6,4.4 -5.2,6.8 -1.6,2.4 -2.8,5 -4.4,7.3 -2.3,3.2 -4.2,6.7 -6.1,10.1 -2,3.5 -4.4,6.9 -7.6,9.5 -3.5,2.8 -7.4,4.7 -12,5.1 -0.4,0 -0.7,0.2 -1.1,0.2 -1.7,0.3 -3.4,0.6 -5.1,0.9 -4.1,0.6 -8.2,1.1 -12.2,2.4 -0.2,0.1 -0.6,0.3 -0.6,0.4 0,0.2 0.2,0.6 0.4,0.7 2,0.6 3.8,1.8 6.1,1.1 1.3,-0.4 2.7,-0.2 4.1,-0.2 1.7,-0.1 3.5,0 5.8,0 z"
   id="path66"
   inkscape:connector-curvature="0" />
	</g>
	<path
   d="m 374.4,113.9 c -1.7,-2 -3.3,-3.7 -4.8,-5.4 -0.1,-0.1 -0.2,-0.3 -0.3,-0.5 -0.8,-1.5 -0.5,-2.4 1.1,-2.8 2.1,-0.5 4.1,-1 6.2,-1.2 1.8,-0.2 3,-0.9 3.9,-2.5 1,-1.8 2.3,-3.6 3.4,-5.2 1.8,-0.3 2.7,0.7 3.2,2 0.5,1.1 0.8,2.4 1.2,3.6 0.4,1.5 1.2,2.6 2.9,2.9 1.6,0.3 3.2,0.6 4.8,1.1 1.3,0.4 2.5,1 3.6,1.7 1.4,0.9 1.4,2 0.2,3.1 -1.6,1.4 -3.2,2.9 -5,3.9 -1.6,0.9 -2.1,2.1 -1.8,3.8 0.2,1.2 0.3,2.5 0.5,3.7 0.2,1.2 -0.2,2 -0.8,2.8 -1.4,0.4 -2.1,-0.6 -2.9,-1.2 -1.4,-0.9 -2.8,-1.7 -4.2,-2.6 -1.9,-1.2 -3.8,-0.8 -5.1,0.5 -1.7,1.6 -3.9,1.7 -5.7,2.6 -1.1,0.5 -2.2,-0.3 -2.2,-1.5 0,-1.4 0.2,-2.9 0.5,-4.3 0.4,-1.5 0.9,-3 1.3,-4.5 z"
   id="path69"
   inkscape:connector-curvature="0" />
	<path
   d="m 351.9,88.7 c -1.9,0.6 -3.5,1.1 -5.2,1.7 -0.1,0 -0.3,0 -0.4,0 -1.3,0.1 -1.8,-0.4 -1.6,-1.6 0.3,-1.6 0.5,-3.1 1,-4.7 0.4,-1.3 0.3,-2.4 -0.6,-3.5 -1,-1.3 -1.7,-2.7 -2.6,-3.9 0.3,-1.3 1.3,-1.6 2.3,-1.6 0.9,0 1.9,0.1 2.8,0.3 1.2,0.2 2.1,-0.1 2.9,-1.1 0.7,-1 1.4,-2 2.2,-2.9 0.7,-0.7 1.4,-1.5 2.3,-2 1,-0.7 1.8,-0.4 2.2,0.8 0.5,1.5 1,3.1 1.2,4.6 0.2,1.4 0.8,2.1 2.1,2.4 0.9,0.2 1.8,0.6 2.7,0.8 0.9,0.2 1.4,0.7 1.7,1.4 -0.1,1.1 -1,1.2 -1.7,1.7 -1,0.7 -2,1.4 -3,2.1 -1.4,0.9 -1.7,2.4 -1.2,3.7 0.6,1.6 0,3.2 0.1,4.7 0,0.9 -0.8,1.4 -1.7,1 -1,-0.4 -1.9,-1 -2.8,-1.6 -1,-0.8 -1.8,-1.6 -2.7,-2.3 z"
   id="path71"
   inkscape:connector-curvature="0" />
	<path
   d="m 365.2,52.5 c -0.9,0.3 -1.8,0.6 -2.6,0.9 -0.1,0 -0.1,0 -0.2,0 -0.7,0.1 -0.9,-0.2 -0.8,-0.8 0.1,-0.8 0.3,-1.6 0.5,-2.4 0.2,-0.7 0.1,-1.2 -0.3,-1.8 -0.5,-0.6 -0.9,-1.3 -1.3,-2 0.2,-0.7 0.6,-0.8 1.2,-0.8 0.5,0 1,0.1 1.4,0.1 0.6,0.1 1.1,0 1.5,-0.6 0.4,-0.5 0.7,-1 1.1,-1.5 0.3,-0.4 0.7,-0.7 1.1,-1 0.5,-0.3 0.9,-0.2 1.1,0.4 0.3,0.8 0.5,1.6 0.6,2.3 0.1,0.7 0.4,1.1 1.1,1.2 0.5,0.1 0.9,0.3 1.4,0.4 0.4,0.1 0.7,0.4 0.9,0.7 -0.1,0.5 -0.5,0.6 -0.8,0.9 -0.5,0.4 -1,0.7 -1.5,1.1 -0.7,0.5 -0.8,1.2 -0.6,1.9 0.3,0.8 0,1.6 0.1,2.4 0,0.5 -0.4,0.7 -0.9,0.5 -0.5,-0.2 -1,-0.5 -1.4,-0.8 -0.7,-0.4 -1.1,-0.8 -1.6,-1.1 z"
   id="path73"
   inkscape:connector-curvature="0" />
	<path
   d="m 65.4,411.1 c -1.5,-0.9 -2.9,-1.7 -4.3,-2.5 -0.1,-0.1 -0.2,-0.2 -0.3,-0.3 -0.8,-0.8 -0.8,-1.5 0.2,-2.1 1.2,-0.8 2.5,-1.5 3.8,-2.1 1.1,-0.5 1.8,-1.2 2,-2.5 0.3,-1.4 0.8,-2.8 1.2,-4.1 1.1,-0.6 1.9,-0.1 2.5,0.6 0.6,0.6 1,1.4 1.5,2.1 0.6,0.9 1.3,1.4 2.5,1.3 1.1,-0.1 2.2,-0.3 3.3,-0.2 0.9,0 1.9,0.1 2.7,0.4 1.1,0.3 1.4,1 0.8,2 -0.7,1.3 -1.5,2.6 -2.5,3.6 -0.9,1 -1,1.8 -0.4,2.8 0.4,0.8 0.7,1.6 1.1,2.3 0.4,0.7 0.3,1.4 0.1,2 -0.8,0.5 -1.5,0 -2.2,-0.2 -1.1,-0.3 -2.2,-0.5 -3.3,-0.8 -1.5,-0.4 -2.6,0.3 -3.2,1.4 -0.8,1.4 -2.2,1.9 -3.2,2.9 -0.6,0.6 -1.5,0.3 -1.7,-0.6 -0.3,-0.9 -0.5,-1.9 -0.6,-2.9 0,-1 0,-2.1 0,-3.1 z"
   id="path75"
   inkscape:connector-curvature="0" />
	<path
   d="m 44.8,350.3 c -2.3,0.7 -4.3,1.4 -6.4,2.1 -0.2,0.1 -0.4,0 -0.5,0.1 -1.6,0.1 -2.2,-0.5 -2,-2 0.3,-1.9 0.7,-3.9 1.3,-5.7 0.5,-1.6 0.3,-2.9 -0.7,-4.3 -1.2,-1.6 -2.1,-3.3 -3.2,-4.8 0.4,-1.6 1.6,-2 2.9,-2 1.2,0 2.3,0.2 3.5,0.3 1.4,0.2 2.6,-0.1 3.5,-1.4 0.9,-1.2 1.7,-2.5 2.7,-3.6 0.8,-0.9 1.8,-1.8 2.8,-2.5 1.3,-0.8 2.3,-0.5 2.7,1 0.6,1.9 1.3,3.8 1.5,5.7 0.2,1.7 1,2.6 2.5,2.9 1.1,0.3 2.2,0.7 3.3,1 1.1,0.2 1.7,0.9 2.1,1.7 -0.2,1.3 -1.3,1.5 -2.1,2.1 -1.2,0.9 -2.5,1.7 -3.7,2.6 -1.7,1.1 -2,2.9 -1.4,4.5 0.7,2 0,3.9 0.1,5.8 0,1.1 -1,1.7 -2.1,1.3 -1.2,-0.5 -2.4,-1.2 -3.5,-2 -1.2,-1 -2.2,-1.9 -3.3,-2.8 z"
   id="path77"
   inkscape:connector-curvature="0" />
	<path
   d="m 469.9,397.8 c -1.9,0.6 -3.5,1.1 -5.2,1.7 -0.1,0 -0.3,0 -0.4,0 -1.3,0.1 -1.8,-0.4 -1.6,-1.6 0.3,-1.6 0.5,-3.1 1,-4.7 0.4,-1.3 0.3,-2.4 -0.6,-3.5 -1,-1.3 -1.7,-2.7 -2.6,-3.9 0.3,-1.3 1.3,-1.6 2.3,-1.6 0.9,0 1.9,0.1 2.8,0.3 1.2,0.2 2.1,-0.1 2.9,-1.1 0.7,-1 1.4,-2 2.2,-2.9 0.7,-0.7 1.4,-1.5 2.3,-2 1,-0.7 1.8,-0.4 2.2,0.8 0.5,1.5 1,3.1 1.2,4.6 0.2,1.4 0.8,2.1 2.1,2.4 0.9,0.2 1.8,0.6 2.7,0.8 0.9,0.2 1.4,0.7 1.7,1.4 -0.1,1.1 -1,1.2 -1.7,1.7 -1,0.7 -2,1.4 -3,2.1 -1.4,0.9 -1.7,2.4 -1.2,3.7 0.6,1.6 0,3.2 0.1,4.7 0,0.9 -0.8,1.4 -1.7,1 -1,-0.4 -1.9,-1 -2.8,-1.6 -0.9,-0.8 -1.8,-1.6 -2.7,-2.3 z"
   id="path79"
   inkscape:connector-curvature="0" />
	<path
   d="m 37.5,178.3 c -1.7,-2 -3.3,-3.7 -4.8,-5.4 -0.1,-0.1 -0.2,-0.3 -0.3,-0.5 -0.8,-1.5 -0.5,-2.4 1.1,-2.8 2.1,-0.5 4.1,-1 6.2,-1.2 1.8,-0.2 3,-0.9 3.9,-2.5 1,-1.8 2.3,-3.6 3.4,-5.2 1.8,-0.3 2.7,0.7 3.2,2 0.5,1.1 0.8,2.4 1.2,3.6 0.4,1.5 1.2,2.6 2.9,2.9 1.6,0.3 3.2,0.6 4.8,1.1 1.3,0.4 2.5,1 3.6,1.7 1.4,0.9 1.4,2 0.2,3.1 -1.6,1.4 -3.2,2.9 -5,3.9 -1.6,0.9 -2.1,2.1 -1.8,3.8 0.2,1.2 0.3,2.5 0.5,3.7 0.2,1.2 -0.2,2 -0.8,2.8 -1.4,0.4 -2.1,-0.6 -2.9,-1.2 -1.4,-0.9 -2.8,-1.7 -4.2,-2.6 -1.9,-1.2 -3.8,-0.8 -5.1,0.5 -1.7,1.6 -3.9,1.7 -5.7,2.6 -1.1,0.5 -2.2,-0.3 -2.2,-1.5 0,-1.4 0.2,-2.9 0.5,-4.3 0.4,-1.5 0.8,-3 1.3,-4.5 z"
   id="path81"
   inkscape:connector-curvature="0" />
	<path
   d="m 57.8,112.3 c -1.9,0.6 -3.5,1.1 -5.2,1.7 -0.1,0 -0.3,0 -0.4,0 -1.3,0.1 -1.8,-0.4 -1.6,-1.6 0.3,-1.6 0.5,-3.1 1,-4.7 0.4,-1.3 0.3,-2.4 -0.6,-3.5 -1,-1.3 -1.7,-2.7 -2.6,-3.9 0.3,-1.3 1.3,-1.6 2.3,-1.6 0.9,0 1.9,0.1 2.8,0.3 1.2,0.2 2.1,-0.1 2.9,-1.1 0.7,-1 1.4,-2 2.2,-2.9 0.7,-0.7 1.4,-1.5 2.3,-2 1,-0.7 1.8,-0.4 2.2,0.8 0.5,1.5 1,3.1 1.2,4.6 0.2,1.4 0.8,2.1 2.1,2.4 0.9,0.2 1.8,0.6 2.7,0.8 0.9,0.2 1.4,0.7 1.7,1.4 -0.1,1.1 -1,1.2 -1.7,1.7 -1,0.7 -2,1.4 -3,2.1 -1.4,0.9 -1.7,2.4 -1.2,3.7 0.6,1.6 0,3.2 0.1,4.7 0,0.9 -0.8,1.4 -1.7,1 -1,-0.4 -1.9,-1 -2.8,-1.6 -0.9,-0.8 -1.8,-1.6 -2.7,-2.3 z"
   id="path83"
   inkscape:connector-curvature="0" />
</g>
</svg>