<?xml version="1.0" encoding="UTF-8" standalone="no"?>
<!-- Generator: Adobe Illustrator 22.1.0, SVG Export Plug-In . SVG Version: 6.00 Build 0)  -->

<svg
   xmlns:dc="http://purl.org/dc/elements/1.1/"
   xmlns:cc="http://creativecommons.org/ns#"
   xmlns:rdf="http://www.w3.org/1999/02/22-rdf-syntax-ns#"
   xmlns:svg="http://www.w3.org/2000/svg"
   xmlns="http://www.w3.org/2000/svg"
   xmlns:sodipodi="http://sodipodi.sourceforge.net/DTD/sodipodi-0.dtd"
   xmlns:inkscape="http://www.inkscape.org/namespaces/inkscape"
   version="1.1"
   id="Layer_1"
   x="0px"
   y="0px"
   viewBox="0 0 1500 700.86346"
   xml:space="preserve"
   sodipodi:docname="8086.svg"
   inkscape:version="0.92.3 (2405546, 2018-03-11)"
   width="1500"
   height="700.86346"><metadata
   id="metadata47"><rdf:RDF><cc:Work
       rdf:about=""><dc:format>image/svg+xml</dc:format><dc:type
         rdf:resource="http://purl.org/dc/dcmitype/StillImage" /><dc:title></dc:title></cc:Work></rdf:RDF></metadata><defs
   id="defs45" /><sodipodi:namedview
   pagecolor="#ffffff"
   bordercolor="#666666"
   borderopacity="1"
   objecttolerance="10"
   gridtolerance="10"
   guidetolerance="10"
   inkscape:pageopacity="0"
   inkscape:pageshadow="2"
   inkscape:window-width="939"
   inkscape:window-height="622"
   id="namedview43"
   showgrid="false"
   inkscape:zoom="0.21617969"
   inkscape:cx="252.08542"
   inkscape:cy="452.86421"
   inkscape:window-x="0"
   inkscape:window-y="27"
   inkscape:window-maximized="0"
   inkscape:current-layer="Layer_1"
   fit-margin-top="0"
   fit-margin-left="0"
   fit-margin-right="0"
   fit-margin-bottom="0" />
<g
   id="g40"
   transform="matrix(3.4917974,0,0,3.4917974,-105.78418,-468.19617)">
	<g
   id="g8">
		
		
		
	</g>
	<g
   id="g36">
		<g
   id="g14">
			
			
		</g>
		
		<g
   id="g22">
			
			
		</g>
		
		
		
		
		
		
	</g>
	
</g>
<path
   style="stroke-width:3.49179745"
   inkscape:connector-curvature="0"
   id="path38"
   d="m 1423.2739,13.671875 c -1.7459,-3.840977 -2.0951,-4.190157 -5.9361,-4.888517 -2.095,-0.349179 -4.5393,-0.698359 -6.6344,-1.3967186 -4.5393,-0.6983595 -9.0786,-1.7458987 -13.618,-2.7934379 -11.8721,-3.1426177 -24.0934,-3.8409771 -35.6163,-4.5393366 -8.0311,-0.3491798 -15.7131,1.0475392 -23.0459,2.7934379 -2.4442,0.3491797 -4.8885,1.0475392 -6.9836,1.396719 -4.5393,0.6983594 -9.0786,2.0950784 -13.618,3.4917974 -2.4442,0.6983598 -4.8885,1.3967188 -7.6819,2.0950788 -1.3967,0.349179 -2.4443,0.349179 -3.841,0.698359 -1.0475,0 -2.4443,0.34918 -3.4918,0.69836 -2.4443,0.698359 -5.2377,1.396719 -7.682,2.095078 l -1.0475,0.34918 c -1.0475,0.349179 -2.0951,0.698359 -3.1426,1.047539 -3.1426,1.047539 -6.2853,1.745899 -9.4279,3.142618 -2.095,1.047539 -4.5393,2.444258 -6.2852,4.539336 -2.0951,2.095079 -4.1902,4.539337 -5.9361,6.983595 -1.3967,1.745899 -3.1426,3.491797 -4.5393,5.586876 -1.0475,1.396719 -2.4443,2.444258 -3.841,3.840977 -1.7459,1.745899 -3.841,3.840977 -5.2377,5.936056 -3.1426,4.190156 -6.2852,9.078673 -9.4278,13.26883 -1.7459,2.444258 -3.1426,4.539336 -4.8885,6.983595 -2.4443,3.491797 -4.8886,6.983594 -7.682,10.475392 l -1.3967,1.745898 c -2.0951,3.142618 -4.5393,6.285236 -6.9836,9.078674 -0.6984,0.698359 -1.7459,1.396719 -2.7934,2.095078 -1.3968,1.047539 -2.4443,1.745899 -3.4918,3.142618 -1.0476,1.396719 -1.7459,1.745898 -3.4918,2.095078 h -0.3492 c 0,0 0,0 0,-0.34918 0,-0.349179 -0.3492,-0.349179 -0.3492,-0.349179 -4.5393,-9.777033 -11.8721,-16.411448 -21.9983,-19.204886 -5.5869,-1.745899 -10.8246,-3.840977 -15.3639,-6.983595 -4.1902,-2.444258 -8.7295,-5.237696 -13.618,-7.681954 -7.3328,-3.840977 -15.364,-4.888516 -23.0459,-5.586876 -1.0475,0 -2.4443,-0.34918 -3.4918,-0.34918 -3.841,-0.349179 -7.3328,0.34918 -10.8246,1.04754 -2.0951,0.349179 -4.5393,0.698359 -6.9836,1.047539 -1.0475,0 -2.095,0.34918 -3.1426,0.698359 -0.3492,0 -0.6983,0.34918 -1.3967,0.34918 -5.5869,1.745899 -10.8246,4.539337 -15.7131,7.332775 l -2.7934,1.396719 c -1.0476,0.349179 -1.7459,1.047539 -2.4443,1.396718 -1.0475,0.69836 -2.0951,1.396719 -3.1426,1.745899 -1.7459,0.69836 -2.7934,2.095079 -3.4918,3.491798 -0.3492,0.698359 -1.0475,1.396719 -1.3967,2.095078 -2.7935,2.793438 -5.9361,5.586876 -8.7295,8.031134 -2.0951,1.745899 -4.1902,3.840977 -6.2853,5.586876 -4.8885,4.539337 -9.0786,8.729493 -12.9196,12.57047 -1.7459,1.7459 -3.4918,3.84098 -5.2377,5.58688 -1.3967,1.7459 -2.7934,3.14261 -4.1902,4.88851 -4.1901,4.53934 -8.3803,8.7295 -12.5704,12.91965 l -1.7459,1.7459 c -1.7459,1.7459 -3.4918,3.4918 -4.8885,5.2377 -2.0951,2.09508 -4.5394,4.53933 -6.6345,6.63441 -1.0475,1.04754 -1.3967,2.09508 -1.3967,3.14262 0,1.04754 0.3492,1.7459 1.3967,2.44426 1.7459,1.39672 4.1902,3.4918 7.682,2.44426 1.0475,-0.34918 2.0951,-0.69836 3.1426,-1.04754 1.3967,-0.34918 2.7935,-0.69836 3.841,-1.39672 1.7459,-0.69836 3.4918,-0.69836 5.5869,-0.69836 1.0475,0 2.095,0 3.1426,0 2.7934,-0.34918 5.5869,-0.34918 8.0311,-0.69836 3.841,-0.34918 8.0312,-0.69836 11.8721,-1.04754 3.841,0 7.682,0 11.1738,0.34918 2.7934,0 5.936,0.34918 9.0787,0.34918 7.3327,0 14.6655,-0.34918 21.6491,-0.34918 3.1426,0 5.9361,0 9.0787,-0.34918 0.3492,0 0.3492,0 0.6983,0 2.4443,-0.69836 4.8885,-1.04754 7.3328,-1.7459 6.9836,-1.39672 14.3164,-3.14262 20.9508,-5.93605 5.936,-2.79344 11.8721,-5.93606 17.1098,-9.77704 1.7459,-1.39672 3.4918,-2.79343 4.8885,-4.19015 1.3967,-1.04754 2.7935,-2.44426 4.5394,-3.4918 l 1.3967,-1.04754 c 4.8885,-3.4918 9.777,-6.98359 13.618,-11.52293 3.4918,-4.19016 7.6819,-5.586877 11.5229,-4.888518 3.1426,0.698358 6.2852,1.745898 6.9836,5.237698 0,1.04754 0.3492,2.44426 0.3492,3.4918 0.6983,4.19015 1.3967,8.72949 0.6983,12.91965 -0.3491,3.14261 -1.0475,6.63441 -1.3967,9.77703 -0.3492,3.14262 -0.6983,6.28523 -1.3967,9.77703 -1.0475,6.9836 -0.6984,13.96719 -0.3492,20.60161 0.3492,4.53933 0.6984,9.07867 0.3492,13.96719 l -0.3492,6.28523 c -0.3492,11.17375 -0.6983,22.3475 -1.7459,33.52126 l -0.3492,2.44425 c -0.6983,8.38032 -1.3967,17.10981 0,25.49013 0,0.34918 0,0.69835 0,1.39671 -0.6983,5.58688 1.0476,9.77704 4.8886,12.91965 2.095,1.7459 4.1901,2.79344 6.2852,4.19016 1.0475,0.69836 2.0951,1.04754 2.7934,1.7459 0.3492,0.34918 1.0476,0.34918 1.7459,0.34918 0.6984,0 1.0476,0 1.3968,-0.34918 1.0475,-0.69836 1.7459,-1.7459 1.7459,-2.79344 v -2.44426 c 0,-4.19015 0,-8.38031 -0.6984,-12.22129 -1.7459,-10.82457 -2.4443,-22.3475 -2.4443,-34.91797 0,-1.7459 0.3492,-3.14262 0.6984,-4.88852 0.3492,-1.39672 0.3492,-2.79343 0.3492,-4.19015 0.3492,-4.88852 0.3492,-9.77704 0.6983,-14.31637 v -4.53934 c 0,-2.09508 0,-4.19016 0.3492,-5.93606 0.3492,-4.88851 0.3492,-10.12621 0.3492,-15.3639 0,-3.14262 -0.3492,-6.28524 -0.6984,-9.07868 -0.3491,-3.14261 -0.6983,-6.63441 -0.6983,-9.77703 0.3492,-9.77703 2.0951,-18.85571 3.841,-26.53766 1.0475,-4.53934 3.8409,-8.03113 8.0311,-10.47539 0.6983,-0.34918 1.0475,-0.69836 1.7459,-1.04754 2.7934,-1.7459 5.5869,-3.4918 9.0787,-3.4918 0,0 0,0 0,0 h 1.7459 c 6.2852,0 12.9196,0 19.554,-0.34918 8.7295,-0.69836 18.8557,-1.745897 28.6328,-3.840976 6.6344,-1.396719 13.2688,-3.840977 20.6016,-7.332774 8.3803,-4.190157 15.3639,-10.475393 22.3475,-16.411448 3.4918,-3.142618 7.3327,-6.285235 11.1737,-9.427853 0.6984,-0.69836 1.7459,-1.396719 2.4443,-2.095079 2.7934,-2.444258 5.936,-4.888516 8.3803,-7.681954 4.5393,-4.888516 9.777,-10.126212 17.1098,-16.411448 2.4443,-2.095078 4.8885,-4.190157 7.682,-5.936055 2.4442,-1.745899 4.8885,-3.840977 7.3327,-5.936056 4.1902,-3.491797 9.0787,-5.237696 15.3639,-5.586876 3.841,0 7.682,-0.349179 11.1738,-0.698359 h 0.6984 c 2.4442,-0.34918 4.5393,-0.69836 6.2852,-2.444258 l 0.3492,-0.34918 z M 1186.53,80.714385 c -3.4918,0 -7.3327,0.34918 -11.1737,-0.69836 -5.9361,-1.396719 -12.2213,-1.745898 -18.1574,-1.745898 -0.3491,0 -0.6983,0 -0.6983,0 -10.4754,0 -20.6016,1.047539 -29.3311,2.444258 -4.1902,0.698359 -7.3328,1.745899 -9.4279,3.491797 -1.3967,1.047539 -3.1426,1.745899 -5.2377,2.793438 -2.7934,1.047539 -5.5868,2.444258 -7.6819,5.237696 -3.4918,2.095079 -6.9836,4.190157 -10.1262,6.285234 -6.9836,4.53934 -13.9672,9.07867 -21.9984,12.22129 -12.5704,4.88852 -22.6966,9.77704 -31.077,15.71309 4.5394,-3.84098 8.0312,-8.38031 11.523,-12.91965 1.3967,-2.09508 3.4918,-3.84098 5.2377,-5.58688 0.6983,-0.69835 1.0475,-1.04753 1.7459,-1.74589 3.1426,-3.14262 6.2852,-6.28524 9.4278,-9.427857 1.3967,-1.396719 2.7935,-2.444258 3.841,-3.491798 1.7459,-1.396718 3.1426,-2.444258 4.8885,-4.190156 4.1902,-4.539337 9.0787,-9.078674 13.2689,-12.919651 1.7459,-1.745898 3.4917,-3.142617 5.2376,-4.190157 6.9836,-4.190157 15.364,-8.729493 24.0935,-10.824572 5.2376,-1.396719 10.1262,-2.095078 15.3639,-2.095078 7.6819,0 15.713,1.396719 23.7442,4.539337 1.0475,0.349179 2.0951,1.047539 3.1426,1.745898 l 0.6984,0.34918 c 0.3491,0.34918 0.6983,0.34918 1.0475,0.698359 0.3492,0.34918 1.0475,0.69836 1.3967,1.04754 1.0476,0.698359 2.4443,1.047539 3.4918,1.745898 2.0951,1.04754 4.1902,1.745899 6.2852,3.142618 5.5869,3.840977 11.8722,5.936056 17.8082,7.681954 0.3492,0 0.3492,0.34918 0.6984,0.34918 -3.1426,0 -5.5869,0.34918 -8.0312,0.34918 z m -143.862,52.726145 c 1.7459,-1.7459 3.4918,-3.14262 5.5869,-4.19016 8.3803,-4.53934 15.7131,-8.03114 22.6966,-10.82457 10.4754,-4.53934 19.5541,-9.42786 27.5852,-15.01473 5.9361,-4.19016 12.2213,-8.380316 18.5066,-12.221293 7.3327,-4.539337 15.7131,-5.586876 23.7442,-5.936056 1.7459,0 3.4918,0 5.5869,-0.349179 4.5393,-0.34918 9.4278,-0.34918 14.3163,-0.34918 4.1902,0 8.7295,0.698359 13.2689,1.745899 4.1901,1.047539 8.7295,1.745898 13.9672,1.047539 3.8409,-0.69836 7.3327,0.34918 11.1737,2.444258 -6.6344,-1.047539 -11.8721,3.142618 -16.7606,7.681954 -3.1426,2.793438 -6.2853,5.586878 -9.4279,8.380318 l -1.0475,1.04754 c -2.0951,1.74589 -4.1902,3.84097 -6.6344,5.58687 -10.1262,8.38031 -19.5541,13.61801 -30.0295,16.41145 -1.3967,0.34918 -2.4442,0.69836 -3.841,1.04754 -2.095,0.69836 -4.1901,1.39672 -6.2852,1.7459 -1.3967,0.34918 -2.7934,0.34918 -4.1901,0.69836 -3.841,0.69836 -6.9836,1.39672 -10.8246,0.69836 -0.6984,-0.34918 -1.7459,-0.34918 -2.4443,0 -8.0311,1.39671 -16.4114,1.04754 -24.7917,0.34918 -2.7935,-0.34918 -5.9361,-0.34918 -9.0787,-0.69836 -3.1426,0 -6.2853,0 -9.4279,0.34918 -1.0475,0 -1.7459,0 -2.7934,0.34918 -3.4918,0.34918 -7.3328,0.69836 -10.8246,0.69836 -3.1426,0.34917 -6.6344,0.69835 -9.777,0.69835 0,0 -0.3492,0 -0.3492,-0.34918 1.0475,0 1.7459,-0.34917 2.0951,-1.04753 z m 170.7489,22.69668 0.3492,1.7459 c 0.6983,5.93605 0.3491,12.22129 0,18.15734 0,1.39672 0,2.79344 -0.3492,4.19016 -0.3492,3.4918 -0.3492,6.9836 -0.3492,10.47539 l -0.3492,6.28524 c 0,1.04754 0,1.7459 -0.3492,2.79344 -2.095,15.01472 0,30.02945 1.7459,42.59992 0.3492,3.14262 0.6984,6.28524 0,9.77704 -3.8409,-2.79344 -5.5868,-5.58688 -5.5868,-9.42786 0,-2.44425 0,-4.88851 0,-7.33277 0,-4.53934 0,-9.07867 0,-13.61801 0,-4.19016 0.3491,-8.72949 1.0475,-12.91965 0.3492,-3.14262 0.6984,-6.63442 1.0475,-10.12621 0.3492,-4.88852 0.3492,-10.12622 0.3492,-15.01473 0,-3.14262 0,-5.93606 0.3492,-9.07868 0,-1.74589 0,-3.84097 0.3492,-5.58687 0,-1.39672 0,-2.79344 0.3492,-4.53934 0,-1.04754 0,-2.09508 0,-3.49179 0,-2.44426 -0.3492,-4.88852 -0.3492,-7.33278 -0.3492,-5.2377 -0.6984,-10.82457 -0.3492,-16.41145 0,-3.84097 0.6984,-8.03113 1.3967,-11.87211 0.3492,-1.7459 0.6984,-3.4918 1.0476,-5.58687 v -1.04754 c 0.3491,-1.04754 0.3491,-2.44426 0.3491,-3.84098 0,-3.4918 0,-7.68195 0,-12.22129 0,-1.04754 -0.3491,-1.7459 -0.6983,-2.44426 0,0 0,0 0,0 0.6983,0 1.0475,0 1.7459,0 3.841,0.69836 6.6344,-1.39672 8.7295,-3.142617 2.7934,-2.444259 5.936,-4.888517 9.0786,-6.983595 1.0476,-0.69836 2.0951,-1.745899 3.1427,-2.444258 1.3967,-1.04754 3.1426,-2.095079 4.5393,-3.142618 3.1426,-2.095078 6.2852,-4.539337 9.4279,-6.983595 4.1901,-3.491797 8.3803,-7.332774 12.5704,-11.173752 4.1902,-3.840977 8.7295,-8.031134 13.2689,-11.522931 1.7459,-1.396719 4.1901,-2.444258 6.6344,-3.491797 0.6983,-0.34918 1.0475,-0.34918 1.7459,-0.69836 11.1737,-4.888516 21.6491,-10.475392 31.4261,-16.411448 8.3804,-5.237696 18.1574,-8.729493 25.141,-9.777032 3.841,-0.34918 7.3328,-1.396719 10.8246,-2.095079 h 0.3491 c 6.6345,-1.396719 14.6656,-3.491797 22.3475,-6.634415 3.1427,-1.396719 6.9836,-1.745899 10.4754,-2.095078 1.3968,0 2.4443,-0.34918 3.841,-0.34918 1.3967,-0.34918 2.4443,0 3.841,0 0.3492,0 0.6983,0 0.6983,0 -4.8885,2.095078 -8.3803,5.237696 -12.2212,8.380314 -1.0476,1.047539 -2.4443,2.095078 -3.4918,2.793438 -9.7771,8.031134 -18.8557,16.760627 -27.5852,26.18848 -1.0476,1.396719 -2.4443,2.444258 -3.841,3.491798 -0.6984,0.698359 -1.3967,1.047539 -2.0951,1.745898 -2.7934,2.444258 -5.5869,4.539337 -8.3803,6.983595 -6.2852,5.237696 -12.9197,10.824572 -19.5541,16.062268 -5.936,4.539337 -13.2688,6.634415 -19.9032,8.729494 -9.4279,2.444258 -19.5541,3.840977 -30.7278,4.539336 -2.0951,0 -3.841,0.34918 -5.9361,0.34918 -2.4443,0.34918 -5.2377,0.34918 -7.6819,0.34918 -2.7935,0 -5.5869,0 -8.7295,0 -3.841,0 -7.3328,0.698359 -10.4754,2.095078 -9.0787,4.539336 -14.6656,12.221296 -16.4115,22.696686 -1.3967,8.38031 -1.7459,17.1098 -2.0951,25.14094 -1.7459,4.19016 -1.3967,9.07867 -0.6983,13.26883 z M 1367.7543,10.529257 c -3.4918,1.396719 -7.3327,3.142618 -11.5229,3.142618 -2.4443,0 -4.5393,1.047539 -6.6344,2.095078 -1.0476,0.34918 -2.0951,1.047539 -3.1426,1.396719 l -0.3492,0.34918 c -0.6984,0.34918 -1.3967,0.698359 -2.0951,0.698359 -0.3492,0 -0.3492,0 -0.6984,0 -7.3327,0 -13.9671,2.444259 -19.2048,4.539337 -4.8886,2.095078 -9.7771,4.539337 -13.2689,6.285235 -2.095,1.04754 -4.5393,2.444258 -6.6344,3.840977 -2.4442,1.396719 -5.2377,3.142618 -8.0311,4.190157 -4.5394,2.095079 -9.0787,4.190157 -13.2689,6.285236 -2.7934,1.396719 -5.5868,2.444258 -8.3803,3.840977 -1.0475,0.698359 -2.095,1.396719 -3.1426,2.095078 -3.1426,2.793438 -5.936,5.586876 -8.7295,8.380314 -2.0951,2.095078 -4.5393,4.190157 -6.6344,6.285235 -1.0475,0.69836 -1.7459,1.745899 -2.7934,2.444258 l -0.6984,0.34918 c -3.1426,2.444258 -6.6344,5.237696 -10.1262,8.031134 1.0475,-1.745898 2.4443,-3.491797 3.4918,-5.237696 3.4918,-5.237696 6.9836,-10.824572 10.8246,-15.713088 2.7934,-3.491798 5.5868,-6.983595 8.3803,-10.126213 1.3967,-1.396719 2.7934,-3.142617 4.1901,-4.539336 0.6984,-0.69836 1.0476,-1.396719 1.7459,-2.095079 1.7459,-1.745898 3.1427,-3.840977 4.8886,-5.586876 3.1426,-4.190156 6.9835,-6.983594 12.2212,-8.729493 l 1.7459,-0.698359 c 6.6345,-2.095079 13.2689,-4.190157 20.2525,-4.888517 1.7459,0 3.4918,-0.698359 5.2377,-1.396719 0.6983,-0.34918 1.3967,-0.34918 2.4442,-0.698359 l 2.7935,-0.69836 c 6.9836,-2.095078 13.9672,-4.190157 21.6491,-4.190157 0.6984,0 1.3967,0 2.0951,-0.349179 4.1901,-2.0950788 8.7295,-2.4442586 13.618,-2.4442586 1.3967,0 2.4443,0 3.841,0 3.4918,0 7.3327,0.3491798 10.8245,0.6983596 1.3968,0 2.4443,0 3.841,0.34918 -3.4918,0 -6.2852,1.047539 -8.7295,2.095078 z M 942.80258,209.21253 c 0,-1.04754 0,-2.09508 0,-3.14262 v -5.23769 c 0,-0.34918 0,-0.69836 0,-1.04754 0,-0.34918 -0.34918,-0.69836 -0.34918,-1.04754 0,-0.34918 0,-0.69836 0,-1.39672 v -3.84098 c 0,-0.34918 0,-0.69836 -0.34918,-1.04754 0,-0.34918 0,-1.04754 -0.34918,-1.7459 0,-0.34918 0,-1.04754 0,-1.7459 v -3.84097 c 0,-0.34918 0,-0.69836 -0.34918,-1.04754 -0.34918,-0.69836 -0.34918,-1.04754 -0.34918,-1.7459 v -11.52293 c 0,-2.79344 0,-5.58688 0,-8.38032 v -1.04754 c 0,-0.34917 0,-0.69835 -0.34918,-1.04753 0,-0.34918 0,-0.69836 -0.34918,-1.39672 v -2.79344 c 0,-0.34918 0,-0.69836 -0.34918,-1.04754 0,-0.34918 0,-0.69836 -0.34918,-1.04754 v -1.04754 -0.69836 c 0,-0.34918 0,-1.04754 -0.34917,-1.7459 v -1.04754 c -0.34918,-0.34918 -0.34918,-0.69836 -0.34918,-1.39672 0,0 0,-0.34918 -0.34918,-0.69835 0,-0.34918 0,-0.69836 0,-1.39672 -0.34918,0 -0.34918,-0.34918 -0.34918,-0.69836 0,-0.34918 0,-0.69836 0,-1.04754 0,-0.34918 -0.34918,-0.69836 -0.34918,-0.69836 0,0 0,-0.34918 0,-0.34918 0,-0.34918 0,-0.34918 -0.34918,-0.69836 0,-0.34918 0,-0.69836 0,-1.04754 0,-0.34918 0,-0.69836 -0.34918,-0.69836 0,-0.34918 0,-1.04754 -0.34918,-1.39672 0,-0.34918 0,-0.34918 0,-0.69836 -0.34918,-0.69836 -0.34918,-1.39672 -0.34918,-2.09508 0,0 0,-0.34918 0,-0.34918 0,0 0,-0.34918 0,-0.34918 0.34918,-0.34918 0.34918,-0.69836 0,-1.04754 0,-0.34918 -0.34918,-0.34918 -0.34918,-0.69835 0,-0.69836 -0.34918,-1.39672 -0.34918,-1.7459 l -0.69836,-2.09508 c 0,-0.34918 -0.34918,-0.69836 -0.34918,-1.04754 0,0 0,0 0,0 0,0 -0.34918,0 -0.34918,0 -0.69836,0 -1.39672,0 -2.09508,0 0,0 -0.34918,0 -0.69836,0 h -1.7459 c -0.34918,0 -0.69836,0 -1.04754,0 -0.34918,0 -0.69836,0 -1.04754,0 h -2.09507 c -0.34918,0 -0.69836,0 -1.04754,0 h -0.69836 c -2.09508,0 -4.53934,0 -6.63442,0 0,0 -0.34918,0 -0.69836,0 -0.34918,0 -0.69836,0 -0.69836,0.34918 -0.34918,0.34918 -0.69836,1.04754 -0.69836,1.7459 v 3.14261 c 0,0.69836 0,1.04754 0.34918,1.7459 0,0.34918 0,0.34918 0,0.69836 0,0 0,0.34918 0,0.69836 l 0.69836,2.79344 c 0.34918,1.04754 0.69836,2.44426 0.69836,3.4918 0.34918,0.69836 0.34918,1.39672 0.69836,2.09508 0,0 0,0.34918 0,0.69836 v 0.69836 c 0,3.84097 0,7.68195 0,11.52293 v 7.33277 c 0,1.04754 0,1.04754 -0.34918,2.09508 0,0 -0.34918,0.34918 -0.34918,0.69836 l -0.69836,1.39672 c -0.34918,0.34918 -0.34918,0.69836 -0.69836,0.69836 0,0.34918 -0.34918,0.34918 -0.69836,0.69836 0,0.34918 -0.34918,0.34918 -0.69836,0.69836 -0.69836,0.69836 -1.39672,1.39672 -2.09507,2.09507 l -0.34918,0.34918 c -0.69836,0.34918 -1.39672,0.69836 -2.09508,1.39672 -0.69836,0.34918 -1.39672,0.34918 -2.09508,0.34918 h -0.34918 c -0.34918,0 -0.69836,0 -1.04754,0 0,0 -0.34918,-0.34918 -0.69836,-0.34918 -0.34918,0 -0.34918,-0.34918 -0.34918,-0.34918 l -0.34918,-0.34918 c 0,0 -0.34918,-0.34918 -0.34918,-0.69836 -0.34918,-1.39671 -0.34918,-1.74589 -1.04754,-3.84097 0,-0.69836 -0.34918,-1.39672 -0.34918,-2.09508 0,0 0,-0.34918 0,-0.34918 v -1.04754 c 0,-0.34918 0,-0.69836 -0.34918,-1.04754 v -0.69836 c 0,-0.34918 -0.34918,-1.04754 -0.34918,-1.39672 0,-0.34918 0,-1.04754 -0.34918,-1.7459 v -0.69836 c -0.34918,-0.34918 -0.34918,-0.69836 -0.34918,-1.04753 v -3.4918 c 0,-0.34918 -0.34918,-1.04754 -0.34918,-1.39672 -0.34918,0 -0.34918,-0.34918 -0.34918,-0.69836 0,-0.34918 0,-1.04754 0,-1.39672 v -10.47539 c 0,-2.79344 0,-6.28524 0,-9.42785 v -1.39672 c 0,-0.34918 -0.34918,-0.69836 -0.34918,-1.04754 0,0 0,-0.34918 -0.34918,-0.69836 0,0 -0.34918,-0.34918 -0.34918,-0.69836 -0.34918,-0.34918 -1.04753,-0.69836 -1.74589,-1.39672 -0.69836,-0.34918 -1.7459,-0.69836 -2.79344,-1.39672 -0.69836,0 -1.7459,-0.34918 -2.44426,-0.34918 h -0.34918 c -1.04754,0 -2.09508,0 -3.4918,0 -0.34918,0 -1.04754,0.34918 -1.39672,0.69836 0,0 -0.34918,0.34918 -0.34918,0.69836 v 1.04754 c 0,1.7459 0,3.4918 0,5.23769 0,0.34918 0,0.69836 0,1.39672 v 0.69836 c 0,0.69836 0,1.7459 0,2.44426 v 1.04754 c 0,0.34918 0,0.69836 0,1.04754 0,0.69836 0,1.39672 0,2.44426 v 0.69836 c -0.34918,0.69836 -0.34918,1.39672 0,2.09508 v 4.53933 c 0,0.34918 0,0.69836 0,1.04754 0,0.34918 0,0.69836 0,1.04754 0,0.34918 0,0.69836 0,1.39672 0,0 0,0.34918 0,0.69836 v 0.69836 3.14262 c 0,0.34918 0,0.69836 0,0.69836 0,0.34918 0.34918,1.04754 0.34918,1.39671 v 4.53934 c 0,0.69836 0,1.39672 0.34918,2.44426 v 0.69836 c 0,0.34918 0,0.69836 0,1.04754 v 0.69836 c 0,0.69836 0,1.39672 0.34918,2.09508 v 0.34918 c 0,0.34918 0.34918,0.34918 0.34918,0.69836 0,0.69835 0.34918,1.39671 0.69836,2.09507 0,1.04754 0.34918,1.7459 0.69836,2.79344 0.34918,0.69836 0.69836,1.39672 1.04754,2.09508 l 0.34918,0.69836 c 0.34918,0.34918 0.34918,0.34918 0.69836,0.69836 l 1.39672,0.69836 c 0.34918,0.34918 1.04754,0.34918 1.7459,0.69836 0.34918,0 0.69836,0 1.39672,0.34918 h 0.34918 c 0,0 0.34918,0 0.34918,0 0,0 0.34918,0 0.34918,0 h 0.34918 c 0.34918,0 0.69836,0.34918 1.04754,0.34918 0,0 0.34917,0 0.69835,0 0.69836,0 1.7459,0.34918 2.44426,0 h 0.34918 c 0,0 0.34918,0 0.69836,0.34918 0.34918,0 1.04754,0 1.39672,0 h 2.44426 c 0.34918,0 0.69836,0 0.69836,0 0.34918,0 0.69836,0 1.39672,0 h 1.39672 c 0.34918,0 0.69836,0 1.04754,0 0.34918,0 0.34918,0 0.69836,0 0.69835,0 1.39671,0 1.74589,0.34918 0.34918,0 0.69836,0 1.39672,0 0.69836,0 1.04754,0.34918 1.7459,0.69836 l 1.39672,0.69836 c 0,0 0,0 0,0.34918 0.34918,0.34918 0.34918,0.69836 0.69836,1.04754 0,0.34917 0,0.34917 0,0.69835 v 0.69836 3.14262 c 0,1.7459 0.34918,3.84098 0.34918,5.58688 0,0.34918 0,0.69836 0,1.39672 v 1.04754 c 0.34918,1.74589 0,3.84097 0,5.58687 v 0.69836 c 0,0.34918 0,1.04754 0,1.7459 0,1.39672 0,2.79344 0,4.19016 0,0.34918 0,0.69836 0,1.39672 0,0.34918 0,0.69835 0,1.04753 v 2.79344 c 0,0.34918 0,0.69836 0,1.04754 -0.34918,0.34918 -0.34918,1.04754 0,1.7459 v 1.39672 c 0,0 0,0.34918 0,0.69836 0,0.34918 0,1.04754 0,1.39672 0,0.34918 0,1.04754 0,1.39672 0,0 0,0 0,0 v 1.04754 c -0.34918,0.34918 -0.34918,0.69836 -0.34918,1.39672 v 0 c 0,0.69835 -0.34918,1.74589 -0.34918,2.44425 -0.34918,0.69836 -0.34918,1.7459 -0.69836,2.79344 0,0.69836 -0.34918,1.04754 -0.69836,1.7459 -0.34918,0.34918 -0.69836,1.04754 -1.39672,1.39672 -0.34918,0.34918 -0.34918,0.34918 -0.69836,0.34918 -0.69836,0 -1.7459,-0.34918 -2.44426,-1.04754 l -3.84097,-2.44426 c -0.69836,-0.34918 -1.39672,-1.04754 -2.09508,-1.39672 -0.34918,0 -0.34918,0 -0.34918,0 l -1.39672,-0.69836 c -0.34918,0 -0.69836,-0.34918 -1.39672,-0.69836 l -1.39672,-1.04754 c -0.34918,-0.34918 -0.69836,-0.69836 -0.69836,-1.39671 -0.34918,-1.39672 -0.69836,-2.44426 -0.69836,-4.19016 v -1.39672 c 0,-0.34918 0,-0.69836 0,-1.04754 0,-0.34918 0,-0.69836 0,-1.04754 v -1.04754 c 0,-0.34918 0,-0.69836 0.34918,-1.04754 v -0.34918 c 0,-0.34918 0,-1.04754 0,-1.39672 0,-0.34918 0.34918,-0.69836 0.34918,-1.39672 0,-0.34918 0,-0.69835 0,-1.04753 0,-0.34918 0,-0.34918 0,-0.69836 0,-0.34918 0,-0.69836 0.34918,-0.69836 0,-0.34918 0,-0.69836 0,-1.39672 0,-0.34918 0,-1.04754 0,-1.39672 v -0.34918 c 0,-0.69836 0,-1.7459 0,-2.44426 0,-0.34918 0,-0.34918 -0.34918,-0.69836 0,0 -0.34918,-0.34918 -0.34918,-0.34918 -0.69836,0 -1.39672,0 -2.09508,0.34918 h -0.69835 c -1.04754,0 -1.7459,0.34918 -2.79344,0.69836 -0.69836,0.34918 -1.39672,0.69836 -2.09508,0.69836 -1.39672,0.34918 -2.44426,1.04754 -3.84098,2.09508 -0.34918,0.34918 -1.04754,0.69836 -1.39672,1.04754 v 0 c -0.34918,0.34918 -0.69836,0.69836 -0.69836,1.04754 -0.34918,0.34918 -0.34918,0.69836 -0.34918,1.04754 v 2.44425 c 0,0.34918 0,1.04754 0.34918,1.39672 0,0.34918 0,0.34918 0.34918,0.69836 0,0.69836 0,1.39672 0.34918,1.7459 v 0.34918 c 0,0.69836 0.34918,1.7459 0.69836,2.44426 0.34918,1.39672 0.34918,2.44426 1.04754,3.84098 0.34918,1.39672 1.04754,2.79343 1.39672,4.19015 0,0.34918 0.34918,1.04754 0.69836,1.39672 0.34918,0.69836 0.69836,1.39672 1.04754,2.44426 0.34918,1.04754 1.04754,2.09508 2.09508,3.14262 h 0.34918 c 0,0 0.34918,0 0.34918,0 0.34918,0 1.04754,0 1.39672,0 0,0 0,0 0.34918,0.34918 l 1.39671,1.39672 c 1.04754,1.04754 1.04754,1.04754 2.79344,1.7459 0,0 0,0 0,0 0,0 0.34918,0 0.34918,0 0.34918,0 1.04754,0 1.39672,0 0.34918,0 1.04754,0.34918 1.39672,0.69836 0.34918,0.34917 0.69836,0.69835 1.04754,1.04753 0,0 0.34918,0.34918 0.34918,0.34918 0.34918,0 0.69836,0.34918 1.39672,0.34918 0.34918,0 0.69836,0 1.04754,0 0.69836,0 0.69836,0.34918 1.39672,0.34918 h 0.69836 c 0,0 0.34918,0 0.69836,0 0.34918,0 0.69835,0 1.39671,0 0.34918,0 1.04754,0 1.39672,0 0.34918,0 0.34918,0 0.69836,0 h 5.93606 c 0.69836,0 1.39672,0 2.09508,-0.34918 h 0.34918 c 0.69836,0 1.04754,-0.34918 1.7459,-0.34918 l 1.39671,-0.69836 c 0,0 0.34918,0 0.34918,-0.34918 0.69836,-0.69835 1.39672,-1.39671 1.7459,-2.09507 0.34918,-0.34918 0.69836,-0.69836 1.04754,-0.69836 l 0.69836,-0.34918 c 0,0 0.34918,0 0.69836,-0.34918 l 2.09508,-1.39672 c 0.69836,-0.34918 1.04754,-1.04754 1.7459,-1.39672 l 0.34918,-0.34918 c 0,-0.34918 0.34918,-0.34918 0.34918,-0.69836 l 0.34918,-0.69836 c 0.34918,-0.69836 1.04754,-1.39672 1.39672,-2.44426 0,0 0,-0.34918 0,-0.34918 0,-0.34918 0,-0.69836 0.34918,-0.69836 0,-0.69836 0.34918,-1.39672 0.34918,-2.09507 v -0.34918 c 0,-0.34918 0,-1.04754 0.34918,-1.7459 v -0.69836 c 0,-0.34918 0,-1.04754 0,-1.39672 0,-0.34918 0,-0.69836 0,-1.04754 0,-0.34918 0,-1.04754 0,-1.39672 0,-0.34918 0,-0.69836 0,-0.69836 0,-0.34918 0,-0.69836 0,-1.39672 0,-0.34918 0,-1.04754 0,-1.39672 0.34918,-0.34918 0.34918,-0.34918 0.34918,-0.69836 0,-0.34918 0,-1.04754 0,-1.39672 0,-0.34918 0,-0.69836 0,-1.04754 v -2.44425 c 0,-0.34918 0,-0.69836 0,-1.04754 3.49179,-1.04754 3.49179,-1.7459 3.49179,-2.09508 z m -93.92935,31.77536 c 0,-0.34918 0,-0.34918 -0.34918,-0.69836 -0.34918,-0.34918 -0.69836,-0.69836 -1.04754,-0.69836 h -1.04754 c -1.39671,0 -2.79343,0 -4.19015,0 h -1.04754 c -0.34918,0 -0.69836,0 -1.04754,0 h -1.39672 c -0.34918,0 -0.69836,0 -1.04754,0 -0.34918,0 -0.69836,0 -1.04754,0 -0.69836,0 -1.39672,0 -1.7459,-0.34918 h -0.69836 c -0.69836,0 -1.39672,0 -2.09507,0 -0.34918,0 -0.34918,0 -0.69836,0 -0.69836,0 -1.39672,-0.34918 -2.09508,-0.34918 -0.34918,0 -0.34918,0 -0.34918,0 -0.34918,0 -0.34918,0 -0.69836,0 -0.69836,0 -1.04754,-0.34918 -1.7459,-0.69836 -0.34918,0 -0.34918,-0.34918 -0.69836,-0.69836 -0.34918,-0.34918 -0.69836,-0.69836 -0.69836,-1.39672 l -0.34918,-1.04754 c -0.34918,-0.34918 -0.34918,-1.04754 -0.69836,-1.39672 0,-0.34918 -0.34918,-0.69836 -0.34918,-1.04754 0,-1.39672 0,-3.14262 0,-4.53933 0,-0.34918 0,-0.69836 0,-1.39672 v -1.04754 -5.2377 c 0,-0.34918 0,-0.69836 -0.34918,-1.39672 v -0.34918 c 0,-0.34918 0,-0.69836 0,-1.04754 0,-0.34918 0,-0.69836 0,-1.04754 v -4.88851 c 0,-0.34918 0,-1.04754 0,-1.7459 v -0.69836 c 0,-0.34918 0,-0.69836 0.34918,-1.04754 0,0 0,-0.34918 0,-0.34918 0,-0.34918 -0.34918,-0.69836 -0.34918,-1.04754 v -0.69836 c 0,-1.04754 0,-2.44426 0,-3.4918 0,-0.34918 -0.34918,-0.69836 -0.34918,-0.69836 0,0 0,-0.34918 -0.34918,-0.34918 0,-0.34917 0,-0.69835 0,-1.04753 v -0.69836 c 0,-2.44426 0,-5.2377 0,-7.68196 v -0.34918 c 0,-0.34918 0,-0.69836 0,-0.69836 v -1.39672 c 0,-1.04754 0,-2.09507 0,-3.14261 0,-0.34918 0,-0.69836 0,-1.39672 v -0.69836 c 0,-0.69836 0,-1.39672 0,-2.44426 v -0.69836 c -0.34918,-0.69836 -0.34918,-1.39672 -0.34918,-2.09508 v -0.34918 c 0,-0.34918 0.34918,-1.04754 0.34918,-1.7459 0,-1.39672 0,-2.79343 0,-4.53933 v 0 c 0,-0.34918 0,-0.34918 -0.34918,-0.69836 0,0 0,-0.34918 0,-0.34918 v 0 c 0,0 0,0 0,-0.34918 0,-1.39672 0,-3.14262 0,-4.53934 v -0.69836 c -0.34918,-0.34918 -0.34918,-0.69836 -0.34918,-1.04754 v -1.04754 c 0,-0.69836 0,-1.7459 -0.34918,-2.79343 v -4.19016 c -0.34918,-0.34918 -0.34918,-0.69836 -0.34918,-1.39672 0,-1.04754 0,-2.09508 -0.34918,-3.4918 v -1.04754 c 0,-0.34918 -0.34918,-0.69836 -0.34918,-1.04754 v -8.03113 c 0,-0.34918 0,-1.04754 0,-1.39672 0,-0.34918 0,-0.69836 0,-1.04754 v -1.04754 c 0,-0.34918 0,-1.04754 0,-1.39672 l 0.34918,-1.7459 c 0.34918,-0.34918 0,-0.69836 0.34918,-1.04753 0,0 0,0 0,-0.34918 0,0 0,0 0,-0.34918 -0.34918,0 -0.34918,-0.34918 -0.69836,-0.34918 -1.04754,-0.34918 -2.09507,-1.04754 -3.14261,-1.39672 -0.69836,0 -1.39672,-0.34918 -2.09508,-0.69836 -0.34918,-0.34918 -1.04754,-0.34918 -1.7459,-0.34918 -0.34918,0 -0.69836,-0.34918 -1.04754,-0.34918 -0.34918,0 -0.69836,-0.34918 -1.04754,-0.34918 -0.69836,0 -1.39672,-0.34918 -2.09508,-0.34918 l -2.09508,-0.34918 c 0,0 0,0 -0.34918,0 h -4.19015 c 0,0 -0.34918,0 -0.69836,0 -1.04754,0.34918 -1.04754,0 -1.7459,1.04754 0,0 0,0 0,0 -0.34918,0.34918 -0.69836,0.69836 -0.69836,1.39672 0,0.34918 -0.34918,0.69836 -0.34918,1.04754 v 0 c 0,0.69836 0,1.39672 0,2.09507 v 0.69836 c 0,0 0,0.34918 0,0.69836 v 6.28524 c 0,0.69836 0,1.39672 0,2.09508 0,0 0,0.34918 0,0.34918 0,0.34918 0,1.04754 0,1.39672 v 5.93605 c 0,4.53934 0,8.7295 0,12.91965 0,1.04754 0,2.09508 0,2.79344 v 1.04754 c 0,0.34918 0,0.69836 0,1.39672 0,1.04754 0,2.09508 0,3.4918 0.34918,3.14261 0.34918,6.63441 0,9.77703 v 1.04754 c 0,0.34918 0,0.69836 0,1.04754 0.34918,0 0.34918,0.34918 0.34918,0.69836 0,0 0,0 0,0.34918 0.34918,0 0.34918,0 0.34918,0.34918 0,0.34918 0,0.69836 0,1.04753 0,0 -0.34918,0 -0.34918,0 -0.34918,0 -0.34918,0 -0.69836,0.34918 0,0 0,0 0,0.34918 v 2.44426 c 0,3.4918 0,7.33278 0,10.82457 v 2.09508 c 0,0 0,0.34918 0,0.34918 0,0.34918 0,0.69836 0,1.04754 0,0.34918 0,0.69836 0,1.04754 v 0.69836 c 0,0.34918 0,1.04754 0,1.7459 v 16.41145 c 0,0.34918 0,0.69836 0.34918,1.04754 v 1.04754 c 0,0.34918 0.34918,1.04753 0.34918,1.74589 v 3.14262 c 0,0.34918 0,0.69836 0.34918,1.39672 v 0.69836 1.7459 c 0,0.34918 0,1.04754 0,1.39672 v 1.04754 c 0,1.04754 0,2.44426 0,3.84097 v 0.34918 c 0,0 0,0.34918 0.34918,0.69836 0.34918,0.34918 0.69836,0.69836 1.39672,1.04754 0,0 0.34918,0 0.69836,0.34918 0.34918,0 0.69836,0 1.04754,0 0.69836,0 1.7459,0 2.79343,0 h 16.76063 c 5.2377,0 10.12621,0 14.66555,0 h 5.58688 c 0.34918,0 0.69836,0 1.39672,0 0.34918,0 0.34918,0 0.69836,0 0.69835,0 1.04753,0 1.74589,-0.34918 0,0 0,0 0.34918,0 0.34918,0 0.34918,-0.34918 0.69836,-0.69836 0,0 0.34918,-0.34918 0.34918,-0.69836 0.69836,-1.04754 0.69836,-1.7459 0.34918,-2.44425 z M 765.07009,131.69463 c 0,-0.34918 -0.34917,-0.69836 -0.69835,-1.04754 0,-0.34918 -0.34918,-0.34918 -0.69836,-0.69836 -0.34918,-0.34918 -1.04754,-0.69836 -1.7459,-1.39672 h -0.34918 c 0,0 -0.34918,-0.34918 -0.69836,-0.34918 -0.34918,0 -0.69836,0 -1.04754,0 h -0.69836 c -0.34918,0 -1.04754,0.34918 -1.39672,0.34918 h -2.09508 c -0.34918,0 -0.69836,0 -1.39672,0.34918 h -0.69836 c -1.7459,0 -3.49179,0.34918 -5.23769,0 h -1.04754 c -0.34918,0 -0.69836,0 -1.39672,0 h -1.04754 c -0.34918,0 -0.69836,0 -1.04754,0 -0.34918,0 -0.69836,0 -1.04754,0 h -1.7459 c -0.34918,0 -1.04754,0 -1.39672,0.34918 -0.34918,0 -0.69836,0 -0.69836,0 -0.34918,0 -1.04753,0 -1.74589,0 -0.34918,0 -1.04754,0 -1.39672,0 -0.34918,0 -0.34918,0 -0.69836,0 -0.34918,0 -1.04754,0 -1.39672,0 h -8.03114 c -4.19015,0 -8.38031,0 -12.57047,0 h -1.39672 c -0.34917,0 -0.69835,0 -1.04753,-0.34918 0,0 -0.34918,0 -0.34918,0 0,0 -0.34918,0 -0.69836,0 h -0.69836 c 0,0 -0.34918,0 -0.34918,0 -0.34918,0 -0.34918,0.34918 -0.34918,0.69836 v 1.7459 c 0,0.34918 0,0.69836 0.34918,1.04754 0,0.34918 0,0.69836 0,0.69836 0,0 0,0.34918 0,0.34918 0.34918,0.69836 0.69836,1.39671 1.04754,1.74589 0,0 0.34918,0 0.34918,0 0.69836,0 1.04754,-0.34918 1.74589,-0.34918 h 5.2377 c 1.04754,0 2.44426,0 3.84098,0 h 2.09508 c 0.34918,0 0.34918,0 0.69836,0 0,0 0.34918,0 0.34918,0.34918 v 0.69836 c 0,1.39672 0,2.79344 0,4.19016 v 9.42785 c 0,0.34918 0,0.69836 0.34918,1.39672 0,0.34918 0.34918,0.34918 0.34918,0.69836 0,0.34918 0,0.69836 0,1.39672 v 13.26883 c 0,0.69836 0,1.39672 0.34917,2.09508 0,0 0,0.34918 0,0.69836 v 0.69836 c 0,4.88851 0,9.77703 0,14.66555 v 4.88851 c 0,0.34918 0,0.69836 0.34918,1.04754 0,0.34918 0.34918,1.04754 0.34918,1.39672 v 6.63442 c 0,2.79344 0,5.23769 0,8.03113 v 1.39672 c 0,0 0,0.34918 0.34918,0.69836 v 0.69836 c 0,0 0,0.34918 0,0.34918 0,0.34918 0,0.34918 0,0.69836 v 1.04754 c 0,2.79344 0.34918,5.93605 0.34918,8.72949 v 10.82457 c 0,1.04754 0,2.44426 0,3.84098 v 1.04754 c 0,0.34918 0,0.69836 0.34918,1.39672 0,0.69836 0,1.39672 0.34918,2.09508 v 0.34918 c 0,0.69836 0,1.04754 0.34918,1.7459 0.34918,0.34917 0,0.69835 0,0.69835 0,0.34918 -0.34918,0.69836 -0.34918,1.04754 0,0 0,0.34918 0,0.69836 0,0.34918 0,0.69836 0,0.69836 0,0.34918 0.34918,0.34918 0.34918,0.69836 0.34918,0 0.34918,0 0.34918,0 0.34918,0 1.04754,0 1.7459,0.34918 h 0.34918 c 0,0 0.34918,0 0.34918,0 0.34918,0 0.69836,0 1.04754,0 0.34918,0 1.04754,0 1.39672,0 0.34918,0 1.04754,0 1.39672,-0.34918 h 0.69836 c 0.69836,0 1.7459,0.34918 2.44426,0.34918 h 0.69836 c 0.69835,0 1.04753,0.34918 1.74589,0.34918 h 5.93606 c 0.34918,0 1.04754,-0.34918 1.7459,-0.34918 h 0.69836 c 0.34918,0 0.34918,0 0.69836,0 0.34918,0 0.69836,-0.34918 0.69836,-0.69836 0,-0.34918 0,-1.04754 0,-1.39672 0,-0.34918 -0.34918,-0.69836 -0.34918,-1.04754 -0.69836,-1.74589 -0.34918,-1.39671 -0.69836,-3.14261 v -3.84098 c 0,-0.34918 0,-0.34918 -0.34918,-0.69836 -0.34918,-0.69836 -0.34918,-1.04754 -0.34918,-1.7459 0,-0.34918 -0.34918,-0.34918 -0.34918,-0.69836 -0.34918,-0.34918 -0.34918,-0.69836 -0.34918,-1.04754 0,-0.34918 0,-0.69836 -0.34918,-0.69836 0,-0.34918 0,-1.04754 0,-1.39672 v -1.39671 c 0,-0.34918 0,-0.69836 0,-1.04754 0,-0.69836 0,-1.39672 0,-2.44426 0,0 -0.34918,-0.34918 -0.34918,-0.34918 0,-0.34918 0,-1.04754 0.34918,-1.39672 0,0 0.34918,0 0.34918,-0.34918 v -2.44426 c 0,-0.69836 0,-1.39672 0,-2.09508 0,-0.34918 -0.34918,-1.04754 -0.34918,-1.39672 v -0.69836 c 0,-8.38031 0,-16.76062 0,-25.14094 v -1.39672 c 0,-0.34918 0,-0.69836 -0.34918,-0.69836 v -0.34917 c 0.34918,0 0.34918,-0.34918 0.34918,-0.69836 0,-0.34918 0,-0.69836 -0.34918,-1.04754 v -0.34918 c 0,-0.34918 0,-0.69836 0,-1.04754 0,-0.69836 0,-1.04754 0,-1.7459 v -16.06227 c 0,-0.69836 0,-1.39672 0,-1.7459 0,-0.34918 0,-0.34918 0,-0.69836 v -1.04754 c 0,-3.14261 0,-6.63441 0,-9.77703 v -1.7459 c 0,-0.34918 -0.34918,-0.69836 -0.34918,-1.04754 -0.34918,-0.34918 -0.34918,-0.69836 -0.34918,-1.04754 v -1.7459 c 0,-0.34918 0,-0.69835 -0.34918,-1.04753 0,-0.34918 0,-1.04754 -0.34918,-1.7459 0,-0.34918 0,-0.69836 -0.34918,-1.04754 0,-0.34918 0,-0.69836 0,-1.04754 v -1.04754 c 0,-0.69836 0,-1.04754 0.34918,-1.7459 0,-0.34918 0,-1.04754 0.34918,-1.7459 0.34918,0 0,-0.34918 0,-0.34918 0,-0.34918 -0.34918,-1.04754 -0.34918,-1.39672 0,-0.34918 0,-0.34918 0.34918,-0.69836 0.34918,0 0.34918,0 0.69836,-0.34918 0.34918,0 0.69836,-0.34918 1.39672,-0.34918 h 4.88851 c 0,0 0.34918,0 0.69836,0 0.34918,0 0.69836,0 1.39672,0 h 1.39672 c 0.34918,0 0.69836,0 1.04754,0 0.34918,0 0.34918,0 0.69836,0 h 1.7459 c 0.34918,0 0.34918,0 0.34918,0 0.69836,0 1.7459,-0.34918 2.44426,-0.69836 l 0.34918,-0.34918 c 0,-0.34917 0.34918,-0.34917 0.34918,-0.69835 z m -93.23099,78.91462 v -1.39672 c 0,-0.34918 0,-0.34918 -0.34918,-0.69836 0,0 0,-0.34918 -0.34918,-0.34918 -0.69835,0 -1.39671,0.34918 -2.44425,0 h -0.69836 -0.69836 c 0,0 -0.34918,0 -0.34918,0.34918 0,0.34918 -0.34918,0.34918 -0.34918,1.04754 0,0.69836 -0.34918,1.39672 -0.34918,2.09508 0,0 0,0.34918 0,0.34918 l -0.34918,2.09508 c 0,0.34918 -0.34918,0.69835 -0.34918,1.04753 0,1.04754 0,2.09508 0,3.14262 v 1.39672 c 0,0.34918 0,0.34918 0,0.69836 0,0.34918 0,0.69836 -0.34918,1.04754 0,0.69836 -0.34918,1.39672 -0.69836,2.09508 l -0.34918,1.04754 c -0.34918,0.34918 -1.04754,1.04754 -1.39672,1.7459 0,0 0,0 0,0 l -0.69836,1.04754 c -0.34918,0.34918 -0.69836,0.69836 -1.04754,1.39671 0,0 -0.34918,0.34918 -0.34918,0.34918 l -1.04754,1.04754 c -0.34918,0.34918 -0.69836,0.69836 -1.04754,0.69836 -0.34918,0 -0.69836,0.34918 -0.69836,0.69836 -0.34917,0.34918 -1.04753,0.69836 -1.74589,1.39672 0,0 -0.34918,0.34918 -0.69836,0.34918 -0.34918,0.34918 -1.04754,0.34918 -1.39672,0.69836 -0.34918,0 -0.69836,0 -1.39672,0.34918 -0.34918,0 -0.34918,0 -0.69836,0 h -0.69836 -2.79344 l -1.04754,-0.34918 c -0.34918,0 -0.69836,-0.34918 -1.04754,-0.69836 -0.34918,0 -0.69836,-0.34918 -0.69836,-0.69836 l -1.39672,-1.7459 c -0.34917,-0.69836 -1.04753,-1.7459 -1.74589,-2.79343 0,0 0,-0.34918 0,-0.34918 -0.34918,-0.69836 -0.69836,-1.39672 -1.04754,-2.44426 0,-0.34918 -0.34918,-0.69836 -0.34918,-1.04754 -0.34918,-0.69836 -0.69836,-1.7459 -0.69836,-2.79344 l -1.04754,-3.4918 c 0,-0.34918 0,-0.69836 -0.34918,-1.04754 0,0 0,-0.34918 0,-0.69836 v -0.69836 c 0,-0.34918 0,-0.69836 0,-1.04753 v -1.39672 c -0.34918,-0.34918 -0.34918,-0.69836 -0.34918,-1.39672 0,-0.34918 0,-0.69836 -0.34918,-1.39672 v -0.69836 0 c 0,0 0,-0.34918 0,-0.34918 0,-0.69836 -0.34918,-1.04754 -0.34918,-1.7459 0,-0.34918 0,-0.69836 -0.34918,-1.39672 0,-0.34918 -0.34918,-0.69836 -0.34918,-1.39672 0,-0.34918 0,-1.04754 -0.34918,-1.39672 0,0 0,-0.34918 0,-0.69836 v -1.04754 c 0,-0.34917 -0.34918,-0.69835 -0.34918,-1.39671 0,0 0,-0.34918 0,-0.69836 v -1.39672 c 0,-0.34918 0,-0.69836 0,-1.04754 0,-0.34918 0,-0.34918 0,-0.69836 0,-0.69836 0,-1.39672 0,-2.09508 v -0.69836 c 0,-0.34918 0.34918,-1.04754 0.34918,-1.39672 0,-0.34918 0,-1.04754 0,-1.7459 0,-0.34918 0,-0.69836 0,-1.04754 0,-0.69836 0,-1.39671 0,-2.09507 v -0.69836 c 0,-0.34918 0,-0.69836 0,-1.04754 0,-0.34918 0,-1.04754 0,-1.7459 0,-0.69836 0,-1.04754 0.34918,-1.7459 0,0 0,-0.34918 0,-0.69836 v -0.69836 c 0,-0.34918 0,-0.34918 0,-0.69836 0,-0.69836 0,-1.39672 0,-2.09508 0,-0.34918 0,-0.69836 0,-1.39672 0,-0.34918 0,-0.34918 0,-0.69836 0,-0.69836 0,-1.39671 0,-1.74589 0,0 0,-0.34918 0,-0.69836 v -1.04754 c 0,-0.34918 0,-0.69836 0,-1.04754 0,-0.34918 0,-0.69836 0,-1.04754 0,-0.34918 0,-0.69836 0,-1.39672 v -0.69836 c 0,-0.69836 0,-1.04754 0,-1.7459 0,0 0,-0.34918 0,-0.69836 0,-0.34918 0,-1.04754 0,-1.7459 0,0 0,-0.34918 0,-0.69836 0,-0.69836 0,-1.39672 0,-1.7459 0,-0.34917 0,-0.69835 0,-1.04753 v -0.69836 c 0,-0.34918 0.34918,-1.04754 0.34918,-1.7459 0,-0.34918 0,-0.69836 0,-1.04754 0,-0.34918 0,-0.69836 0,-0.69836 0,-0.34918 0,-1.04754 0,-1.39672 v -0.34918 c 0,-0.69836 0,-1.39672 0.34918,-1.7459 v -1.04754 c 0,-0.34918 0,-0.69836 0,-1.04754 0,-0.34918 0,-1.04754 0,-1.7459 0,-0.34918 0,-0.34918 0,-0.69836 0,-0.34918 0,-0.69835 0,-1.04753 0,-0.34918 0,-0.69836 0,-1.39672 v -0.69836 c 0,-0.34918 0,-0.69836 0,-1.04754 0,-0.34918 0,-0.69836 0,-0.69836 0,-0.69836 0.34918,-1.39672 0.34918,-2.09508 0.34918,-0.69836 0.69836,-1.39672 1.39672,-2.09508 0,0 0.34918,0 0.34918,-0.34918 0.34918,0 0.34918,-0.34918 0.69836,-0.34918 l 0.69836,-0.34918 c 0.69836,-0.34918 1.39672,-0.69836 2.44426,-1.04754 0.34917,-0.34918 1.04753,-0.69836 1.74589,-1.04754 0.69836,-0.34918 1.39672,-0.69836 2.44426,-1.04754 h 0.34918 c 0.69836,0 1.39672,0 2.44426,0 0.34918,0.34918 1.04754,0.34918 1.7459,0.69836 0,0 0.34918,0 0.34918,0.34918 0.34918,0.34918 0.69836,0.69836 1.04754,1.04754 l 0.34918,1.04754 c 0.69836,1.04754 0.69836,1.04754 0.69836,2.79344 0,0.34918 0,1.04754 0,1.39672 0.34918,0.34918 0.34918,0.69836 0.34918,1.04754 v 10.12621 c 0,0.34918 0,0.69836 0,1.04754 0,0.34918 0,0.69836 0,1.04754 v 4.88852 c 0,0.34918 0,0.34918 0,0.69836 0,0.34917 0.34918,0.69835 0.34918,1.04753 0,0.34918 0,1.04754 0.34918,1.7459 0,0.69836 0.34918,1.39672 0.34918,2.09508 l 0.69836,1.7459 c 0,0 0,0 0.34918,0.34918 0,0.34918 0.34917,0.34918 0.69835,0.34918 0.69836,-0.34918 1.39672,-0.34918 2.09508,-0.69836 0,0 0.34918,0 0.69836,0 0,0 0.34918,-0.34918 0.34918,-0.34918 v -1.7459 c 0,-0.34918 0,-0.69836 0,-1.04754 0,-0.34918 0,-0.69836 0,-1.04754 v -1.7459 c 0,-0.34918 0,-0.69835 0,-1.04753 0,-0.34918 0,-0.69836 0,-1.04754 v -8.03114 c 0,-0.34918 0,-0.69836 -0.34918,-1.04754 0,0 0,-0.34918 0,-0.69836 v -1.04754 c 0,-0.34918 0,-0.69836 -0.34918,-1.39671 0,0 0,-0.34918 -0.34918,-0.69836 0,-0.34918 0,-0.69836 0,-1.04754 0,0 0,-0.34918 0,-0.69836 0,-0.69836 -0.34918,-1.39672 -0.34918,-2.44426 -0.34918,-0.34918 -0.34918,-1.04754 -0.34918,-1.7459 0,-0.34918 0,-0.34918 0,-0.69836 0,-0.34918 0,-1.04754 -0.34918,-1.7459 0,0 0,-0.34918 0,-0.34918 l -0.69836,-1.7459 c -0.34918,-1.04754 -1.04753,-2.09507 -1.74589,-3.14261 l -0.69836,-1.04754 c -0.69836,-0.34918 -1.04754,-1.04754 -1.7459,-1.7459 -0.34918,-0.34918 -1.04754,-1.04754 -1.7459,-1.39672 -0.34918,0 -0.69836,-0.34918 -1.04754,-0.34918 l -2.44426,-1.39672 c -1.04754,-0.34918 -2.09508,-0.69836 -3.4918,-1.04754 l -1.74589,-0.34918 c -0.34918,0 -0.69836,0 -1.04754,0 -0.34918,0 -0.69836,0 -1.04754,-0.34918 l -2.09508,-0.34918 c -0.34918,0 -1.04754,0 -1.39672,-0.34918 -0.34918,0 -0.69836,0 -1.04754,0 -0.34918,0 -0.69836,0 -1.04754,0 -0.34918,0 -1.04754,0 -1.7459,0 -0.69836,0 -1.39672,0 -2.09508,0 h -0.69836 c -0.34918,0 -0.69836,0 -1.04753,0.34918 0,0 -0.34918,0 -0.34918,0 -0.69836,0.34918 -1.39672,0.69836 -2.09508,1.04754 l -1.39672,1.04754 c -0.34918,0.34918 -1.04754,0.34918 -1.7459,0.69836 0,0 0,0 -0.34918,0 0,0 -0.34918,0.34918 -0.69836,0.34918 -0.34918,0 -0.69836,0.34918 -1.04754,0.69836 -0.34918,0.34918 -0.34918,0.34918 -0.69836,0.69836 -0.34918,0.34918 -0.69836,0.69836 -0.69836,1.39672 l -0.34918,1.04754 c 0,0.34918 0,0.34918 0,0.69836 -0.34918,0.69836 -1.04754,1.74589 -1.39672,2.44425 -0.69836,1.39672 -1.39672,3.14262 -2.09508,4.53934 0,0 0,0.34918 -0.34918,0.69836 -0.34917,0.34918 -0.34917,1.04754 -0.69835,1.39672 -0.69836,1.04754 -1.39672,2.44426 -1.7459,3.84098 v 0 c -0.34918,0.69836 -0.69836,1.7459 -1.04754,2.79343 v 0 c 0,0 0,0.34918 0,0.34918 v 0.34918 c 0,0.34918 0,0.34918 0,0.69836 0,0 0,0 0,0 0,0 -0.34918,0.34918 -0.34918,0.69836 0,0 0,0.34918 0,0.34918 0,0.34918 -0.34918,0.69836 -0.34918,1.04754 -0.34918,0.69836 -0.34918,1.7459 -0.69836,2.44426 0,0 0,0.34918 0,0.69836 v 1.04754 c 0,0.34918 0,0.34918 0,0.69836 0,0.34918 0,1.04754 0,1.39672 0,0 0,0.34918 0,0.69836 l -0.34918,2.44425 c 0,0.34918 -0.34918,0.69836 -0.34918,1.04754 v 0.34918 c 0,0.69836 -0.34918,1.39672 -0.34918,2.09508 0,0.69836 0,1.39672 -0.34918,2.09508 0,0.34918 0,0.69836 -0.34918,1.04754 0,0.34918 0,1.04754 0,1.39672 0,0.69836 -0.34918,1.39672 -0.34918,2.09508 v 0.34918 c 0,0.34918 0,0.69836 0,1.04754 0,0.34918 0,0.69836 -0.34918,1.39672 0,0.34917 0,1.04753 0,1.39671 0,0.69836 0,1.04754 0,1.7459 0,0.34918 -0.34918,1.04754 -0.34918,1.7459 v 0.34918 c 0,0 0,0.34918 0,0.69836 0,0.34918 0,0.69836 0,1.04754 0,0.34918 0,0.69836 0,1.04754 v 0.69836 c -0.34918,0.69836 -0.34918,1.39672 -0.34918,1.7459 v 6.28523 c 0,2.09508 0,4.19016 0,6.28524 v 1.04754 c 0,0.34918 0,0.69836 0,1.04754 0.34918,0.34918 0.34918,0.69836 0.34918,1.04754 v 2.44425 c 0,0.34918 0,0.69836 0.34918,1.04754 0.34918,0.34918 0.34918,0.69836 0.34918,1.04754 v 1.04754 c 0,0 0,0.34918 0,0.69836 0,0.34918 0,0.69836 0.34918,1.39672 0,0.34918 0,0.69836 0.34918,1.04754 l 0.34918,1.04754 c 0,0.34918 0,0.69836 0,1.04754 0,0.34918 0.34918,0.69836 0.34918,1.39672 v 0.34918 c 0,0.34918 0.34918,1.04754 0.34918,1.39672 0,0 0,0.34917 0.34918,0.69835 0,0.34918 0,0.69836 0,1.04754 0,0 0,0.34918 0,0.69836 l 0.34918,2.09508 c 0,0.34918 0.34918,0.69836 0.34918,1.04754 0.34918,0.34918 0.34918,1.04754 0.34918,1.39672 l 0.34918,1.7459 c 0.34918,1.7459 1.04754,3.14262 1.7459,4.88852 0,0 0,0 0.34918,0 0,0 0,0 0,0 0,0 0,0 0,-0.34918 0,0 0.34918,0 0.34918,0 0.34918,0.34918 0.34918,0.34918 0,0.69835 0,0 -0.34918,0 -0.34918,0 -0.34918,0.34918 -0.34918,0.34918 0,0.69836 0,0.34918 0.34918,0.34918 0.34918,0.69836 0.34918,1.04754 1.04753,2.09508 1.74589,3.14262 0.34918,0.69836 0.69836,1.39672 1.39672,1.7459 l 0.34918,0.34918 c 0.34918,0.34918 0.69836,1.04754 1.39672,1.39672 l 0.69836,0.34918 c 0.34918,0.34918 1.04754,0.69836 1.39672,1.04754 0.34918,0 0.69836,0.34918 1.39672,0.69836 0.69836,0 1.39672,0.34918 2.09508,0.34918 0.69836,0 1.39672,0.34918 2.09508,0.34918 h 0.34918 c 0.34918,0 0.34918,0 0.69836,0 0.34918,0 1.04753,0.34918 1.74589,0.34918 l 1.7459,0.34918 c 1.04754,0 1.7459,0.34918 2.79344,0.69836 0,0 0.34918,0 0.34918,0 0.69836,0 1.04754,0.34918 1.7459,0.69836 l 2.09508,1.04753 c 0.69836,0 0.69836,0.34918 1.7459,0.34918 0.69836,0 1.39672,0 2.09507,0 0,0 0.34918,0 0.34918,0 0.34918,0 0.69836,0 1.39672,0 h 4.53934 c 0.34918,0 0.69836,0 1.04754,0 0,0 0.34918,0 0.69836,0 h 0.69836 c 0.34918,0 0.69836,0 1.04754,0 0,0 0.34918,0 0.69836,0 1.04754,0 1.7459,-0.34918 2.79344,-1.04754 0.69835,-0.34917 1.04753,-0.69835 1.39671,-1.39671 0.34918,-0.69836 0.69836,-1.39672 1.39672,-2.09508 0,0 0,0 0.34918,-0.34918 0,0 0.34918,-0.34918 0.34918,-0.69836 l 1.39672,-2.09508 c 0,0 0,-0.34918 0,-0.34918 v -0.34918 c 0,-0.34918 0,-0.34918 0,-0.69836 0,-0.34918 0,-0.34918 0,-0.69836 0,-0.34918 0.34918,-0.69836 0.34918,-0.69836 l 0.69836,-1.04754 c 0.34918,-0.69836 0.69836,-1.7459 1.04754,-2.44426 l 0.34918,-2.09507 c 0,-0.34918 0.34918,-1.04754 0.34918,-1.7459 0,-0.69836 0,-1.39672 0.34918,-2.09508 v -0.34918 c 0,-0.69836 0,-1.39672 0,-1.7459 v -0.69836 c 0,-0.34918 0,-0.69836 0,-1.39672 0,-1.7459 0,-3.4918 0,-5.58687 v -1.7459 c 0,0 0,-0.34918 0,-0.69836 6.28523,1.04754 6.28523,0.69836 6.28523,0 z m -98.81786,-78.56544 v -0.34918 c 0,-0.69836 -0.34918,-1.04754 -1.04754,-1.39672 l -1.7459,-0.34918 c -0.69836,0 -1.39672,-0.34918 -2.09508,-0.34918 v 0 c -0.69836,-0.34918 -1.39672,-0.34918 -2.09508,-0.34918 0,0 -0.34918,0 -0.69836,0 -0.34918,0 -1.04754,0 -1.39672,0 h -1.39671 c 0,0 -0.34918,0 -0.34918,0 -0.69836,0 -1.04754,0 -1.7459,0 -2.09508,0 -4.19016,0 -6.28524,0 h -6.63441 c -0.34918,0 -1.04754,0 -1.39672,0 -0.34918,0 -0.34918,0 -0.69836,0 h -1.04754 c -3.4918,0 -6.9836,0 -10.82457,0 h -2.09508 c -0.34918,0 -0.34918,0 -0.69836,0 -0.34918,0 -0.69836,0 -1.04754,0 -0.34918,0 -1.04754,0 -1.7459,0 h -0.34918 c -0.69836,0 -1.39672,0.34918 -2.09508,0.34918 0,0 0,0 -0.34918,0 -0.34918,0 -1.04754,0.34918 -1.7459,0.34918 l -0.34917,0.34918 c 0,0 0,0 0,0.34918 -0.69836,0.34918 -0.69836,0.69836 -0.69836,1.7459 0,1.04754 0,1.39672 0.34918,2.79343 0,0.34918 0,0.69836 0.34918,1.04754 l 0.69835,1.04754 c 0.34918,0.34918 0.34918,0.69836 0.69836,1.39672 0.34918,0.34918 0.34918,1.04754 0.34918,1.39672 0,0.34918 0,0.69836 0,1.39672 v 0.34918 c 0,0.34918 0,1.04754 0,1.7459 0,0.34918 0,0.69836 0,1.39672 v 0.34918 c 0,0.69836 0,1.04754 0,1.7459 0,0.69835 0,1.04753 -0.34918,1.74589 v 1.39672 c 0,0.34918 0,0.69836 0,1.04754 0,0.69836 0,1.39672 0,2.09508 0,0.69836 0,1.39672 -0.34918,2.09508 v 0.69836 1.04754 c 0,0.34918 0,0.69836 0,1.39672 0,0.34918 0,0.34918 0,0.69836 v 1.39672 c 0,0 0,0.34918 0,0.69835 0,0.69836 0,1.04754 0,1.7459 v 1.04754 c 0,0.34918 0,0.34918 0,0.69836 0,0.34918 0,0.69836 0,1.39672 v 2.09508 c 0,0.34918 0,0.69836 0,1.39672 v 0.69836 c 0,0.34918 0,0.69836 0,1.39672 0,2.79343 0,5.58687 0,8.03113 v 4.19016 c 0,0.34918 0,0.69836 0,1.39672 0,0.34918 0,0.69836 0,1.04754 v 1.74589 c 0,0.34918 0,0.69836 0,1.04754 v 1.04754 c 0,0.69836 0,1.39672 0,2.44426 0,0.69836 0,1.39672 0,2.09508 v 1.04754 c 0,0.34918 0,1.04754 0,1.39672 0,1.7459 0,3.4918 0,5.23769 0,0.69836 0,1.39672 0,2.09508 v 0.69836 c 0,0.34918 0,1.04754 0,1.39672 0,0.34918 0,0.69836 0,1.39672 v 0.69836 c 0,0.34918 0,1.04754 0,1.39672 0,0.34918 0,0.69836 0,1.39672 0,0 0,0.34918 0,0.69836 v 1.39672 c 0,0.34918 0,0.69836 0,1.04753 0,0.34918 0,0.69836 0,1.04754 v 6.28524 c 0,0.34918 0,0.69836 0,0.69836 0,0.34918 0.34918,1.04754 0.34918,1.39672 0,0.69836 0,1.39672 0,2.09508 v 3.84097 c 0,0.34918 0,0.69836 0,1.04754 0,0.34918 0.34918,1.04754 0.34918,1.39672 v 3.4918 c 0,0.34918 0,0.69836 0.34918,1.04754 v 0.69836 c 0,0.69836 0,1.39672 0.34918,2.09508 0,0.34918 0,0.69836 0.34918,1.04754 0,0.34918 0,0.34918 0,0.69835 0,0 0,0.34918 0.34918,0.34918 0.34918,0 0.69836,0.34918 1.04754,0.34918 0.34918,0 0.69836,0 1.04754,0 0.34918,0 1.04754,0 1.39672,0 0.34918,0 0.69836,0 1.04754,0 0.34918,0 1.04754,0 1.39672,0 h 1.04754 c 0.34918,0 0.69836,0 1.04754,0 0.34918,0 0.69836,0 1.04754,0 h 2.09507 c 0.34918,0 0.69836,0 0.69836,0 0.34918,0 0.69836,0 1.39672,0 0.69836,0 1.39672,0 2.09508,0 h 2.09508 c 0.34918,0 0.34918,0 0.69836,0 0.34918,0 1.04754,0 1.7459,0 2.09508,0 4.19015,0 6.28523,0 h 4.19016 c 0.34918,0 0.69836,0 1.04754,0 0.34918,0 0.69836,0 1.39672,0 h 5.23769 8.7295 c 0.34918,0 1.04754,0 1.39672,0 0,0 0.34918,0 0.34918,0 h 1.39672 c 0.34918,0 0.69836,0 0.69836,-0.34918 0,0 0.34917,-0.34918 0.34917,-0.69835 0,-0.34918 0,-0.34918 0,-0.69836 v -1.7459 c 0,-1.04754 0,-1.04754 0,-2.09508 0,0 0,0 0,0 0,0 -0.34917,-0.34918 -0.69835,-0.34918 -0.34918,0 -0.69836,-0.34918 -1.04754,-0.34918 0,0 -0.34918,0 -0.34918,0 -0.69836,0 -1.04754,0 -1.7459,0 0,0 -0.34918,0 -0.69836,0 h -1.39672 c -0.34918,0 -0.34918,0 -0.69836,0 -0.34918,0 -0.69836,0 -1.04754,0 h -2.44426 c -0.34918,0 -0.69836,0 -1.04754,0 h -1.04754 c -0.34918,0 -0.69836,0 -0.69836,0 -1.39671,0 -3.14261,0 -4.53933,0 h -1.04754 c -0.34918,0 -1.04754,0 -1.7459,0 -1.04754,0 -2.09508,0 -3.14262,0 h -0.69836 c -0.34918,0 -0.34918,0 -0.69836,0 l -0.34918,-0.34918 c -0.34918,-0.34918 -0.69836,-0.69836 -0.69836,-1.39672 l -0.34918,-1.04754 c 0,-0.34918 0,-0.69836 -0.34918,-1.04754 0,-0.34918 -0.34918,-0.69836 -0.34918,-1.39672 0,-0.34918 0,-0.69836 -0.34917,-0.69836 v -1.04754 c 0,-0.69836 0,-1.74589 0,-2.44425 v -0.69836 c 0,-0.69836 0,-1.04754 0,-1.7459 0,0 0,-0.34918 0,-0.69836 0,-0.69836 0,-1.04754 0,-1.7459 0,-0.34918 0,-0.69836 0,-1.04754 0,-0.34918 0,-0.69836 0,-1.39672 v -1.7459 c 0,-0.34918 0,-0.69836 0,-1.39672 0,-0.34918 0,-0.34918 0,-0.69836 v -3.14261 c 0,-0.34918 0,-0.34918 0,-0.69836 -0.34918,-0.34918 -0.34918,-1.04754 -0.34918,-1.39672 0,-0.69836 0,-1.39672 -0.34918,-2.09508 0,0 0,-0.34918 0,-0.69836 0,0 0.34918,-0.34918 0.69836,-0.69836 0,0 0.34917,0 0.69835,0 0.34918,0 1.04754,-0.34918 1.7459,-0.34918 1.7459,-0.34918 3.84098,0 5.93606,0 0.34918,0 0.69836,0 1.04754,0 h 1.04754 c 0.34918,0 0.69836,0 1.04754,0 0.34918,0 0.69836,0 1.04754,0 h 1.04753 c 0.69836,0 1.7459,0 2.44426,0 0.34918,0 0.69836,0 1.39672,0 h 0.69836 c 0.69836,0 1.39672,0 2.44426,0 v 0 c 0,0 0.34918,0 0.34918,0 0.34918,-0.34918 0.69836,-0.69836 0.69836,-1.39672 0,-0.34918 0,-0.34918 0,-0.69836 -0.34918,-0.34918 -0.69836,-1.04754 -1.39672,-1.39672 -0.34918,-0.34918 -0.69836,-0.69836 -1.39672,-1.04754 0,0 0,0 -0.34918,0 -0.69836,0 -1.39672,0 -2.09508,0.34918 -0.34918,0 -1.04754,0 -1.7459,0 -0.34918,0 -0.69836,0 -1.39671,0 -0.34918,0 -0.69836,-0.34918 -1.04754,-0.34918 v 0 c -0.34918,0 -1.04754,0 -1.39672,-0.34918 l -4.19016,-1.04753 c -0.69836,0 -1.7459,-0.34918 -2.44426,-0.34918 0,0 -0.34918,0 -0.69836,0 h -0.69836 c -0.34918,0 -0.69836,0 -1.39672,0 -0.34918,0 -0.69836,0 -0.69836,-0.34918 0,-0.34918 0,-0.69836 -0.34918,-1.39672 0,-0.34918 0,-0.69836 0,-1.04754 0,-0.34918 0,-1.04754 -0.34917,-1.39672 0,-0.69836 0,-1.39672 0,-2.09508 v -4.19016 c 0,-0.34918 0,-0.69836 0,-1.39672 0,-0.34917 0,-0.34917 0,-0.69835 0,-0.34918 0,-0.69836 0,-1.04754 v -3.14262 c 0,-0.34918 0,-0.69836 0,-1.04754 0,-0.34918 0,-0.69836 0,-1.04754 v -3.4918 c 0,-0.34918 0,-0.69836 0,-1.39672 0,-0.34918 0,-0.69836 0,-1.04754 v -1.74589 c 0,-0.34918 0,-0.34918 0,-0.69836 0,-0.34918 0,-1.04754 0,-1.39672 v -1.39672 c 0,-0.34918 0,-1.04754 0,-1.7459 v -0.69836 c 0,-0.34918 0,-1.04754 0,-1.7459 0,-0.34918 0,-0.69836 0,-1.04754 v -1.04754 c 0,-0.34918 0,-0.69836 0,-1.39672 v -0.69836 c 0,-0.34918 0,-1.04753 0,-1.39671 0,-0.34918 0,-1.04754 0,-1.39672 v -0.69836 c 0,-0.34918 0,-0.69836 0,-1.39672 0,-0.69836 0,-1.04754 0,-1.7459 v -1.04754 c 0,-0.34918 0,-0.69836 0,-1.04754 0,-0.34918 0,-1.04754 0,-1.7459 v -4.88851 c 0,-0.69836 0,-1.7459 0.34917,-2.44426 v -0.34918 c 0,-0.34918 0,-0.69836 0,-0.69836 0,-0.34918 0,-0.69836 0,-1.39672 v -0.69836 c 0,-0.34918 0,-0.69836 0,-1.04754 l 0.34918,-1.04754 c 0.34918,-0.34918 0.69836,-0.69836 1.04754,-1.04754 1.04754,-0.34918 2.09508,-1.04754 3.14262,-1.04754 0.34918,0 0.34918,0 0.69836,0 0.34918,0 0.69836,0 1.04754,0 h 3.14262 c 0.34918,0 0.69836,0 1.04754,0 0.34918,0 0.69836,0 1.04754,0 h 1.74589 c 0.34918,0 0.69836,0 1.39672,0 0.34918,0 0.34918,0 0.69836,0 h 1.39672 c 0.34918,0 0.34918,0 0.69836,0 0.34918,0 0.69836,0 1.39672,0 h 1.39672 c 0,0 0.34918,0 0.69836,0 0.69836,0 1.39672,0 2.09508,0 v 0 c 0,0 0.34918,0 0.34918,-0.34918 0,-0.34918 0.34918,-1.04754 0.34918,-1.39672 0,0 0,-0.34918 0,-0.34918 -1.04754,-1.04753 -1.04754,-1.74589 -1.04754,-2.44425 z m -90.08837,-2.44426 c 0,0 0,-0.34918 -0.34918,-0.34918 l -0.34918,-0.34918 c 0,0 -0.34918,-0.34918 -0.34918,-0.34918 v 0 c 0,0 -0.34918,0 -0.34918,-0.34918 h -2.79344 c -0.34918,0 -1.04754,0 -1.39672,0 -0.34918,0 -0.69836,0 -1.04754,0 -1.04754,0 -2.09508,0 -3.14262,0 h -19.20488 c -0.69836,0 -1.04754,0 -1.7459,0 0,0 0,0 -0.34918,0 h -1.04754 c -0.34918,0 -1.04754,0 -1.39672,0 h -2.79344 c 0,0 0,0 0,0 h -5.23769 c -0.34918,0 -1.04754,0 -1.7459,0.34918 h -0.69836 c -0.69836,0 -1.04754,0 -1.7459,0.34918 -0.34918,0 -0.69836,0 -1.04754,0.34918 0,0 -0.34918,0.34918 -0.69836,0.34918 -0.34918,0 -0.69836,0.34918 -0.69836,0.34918 l -1.04754,1.04754 c -0.34918,0.34918 -0.34918,0.69836 -0.34918,1.04754 0,1.04754 0,2.09508 0.34918,3.14261 0,0.34918 0,0.69836 0,1.04754 0,0.34918 0.34918,1.04754 0.34918,1.39672 0,0 0.34918,0.34918 0.34918,0.69836 v 0.69836 c 0,0.34918 0,0.69836 0,1.39672 0,0.34918 0,1.04754 0,1.7459 v 0.69836 c 0,0.34918 0,0.69836 0,1.04754 v 0.69836 c 0,0.34918 0,1.04754 0,1.39672 0,0.34918 0,1.04754 -0.34918,1.74589 v 0.69836 c 0,0.34918 0,0.69836 0,1.04754 v 1.04754 c 0,0.34918 0,0.69836 0,1.04754 0,0.34918 0,1.04754 0,1.7459 v 0.69836 c 0,0.34918 0,1.04754 0,1.39672 0,0.34918 0,1.04754 0,1.39672 v 0.34918 c 0,0.34918 0,1.04754 0,1.7459 v 1.39672 c 0,0.34918 0,0.69836 0,0.69836 0,0.69835 0,1.04753 0,1.74589 v 2.44426 c 0,0.34918 0,0.69836 0,1.04754 0,0.34918 0,0.69836 0,1.39672 0,1.7459 0,3.84098 0,5.58688 v 1.04754 c 0,0 0,0.34917 0,0.34917 0,0 -0.34918,0.34918 -0.69836,0.34918 h -0.34918 c -0.34918,0 -0.69836,0 -1.39672,0.34918 h -0.69836 c 0,0 -0.34918,0 -0.34918,0 0,0 0,0 -0.34918,0.34918 0,0 0,0.34918 0,0.69836 l 0.34918,1.39672 c 0,0 0,0 0,0.34918 0.34918,0.34918 0.34918,0.69836 0.69836,1.04754 l 0.69836,0.34918 c 0,0 0.34918,0.34918 0.69836,0.34918 0,0 0.34918,0 0.69836,0 0,0 0,0 0,0.34918 0,0 0.34918,0.34918 0.34918,0.69836 v 4.19016 c 0,0.34918 0,0.69836 0,1.04754 0,0 0,0.34918 0,0.69836 v 2.09507 c 0,0.34918 0,0.69836 0,1.04754 0,0.34918 0,0.69836 0,1.04754 v 2.09508 c 0,0.34918 0,0.34918 0,0.69836 0,0.34918 0,1.04754 0,1.39672 v 4.19016 c 0,0.34918 0,1.04754 0,1.39672 v 0.69835 c 0,0.34918 0,1.04754 0,1.39672 0,1.04754 0,2.09508 0,3.14262 v 1.04754 c 0,0.34918 0,1.04754 -0.34918,1.39672 0,0.34918 0,0.69836 0,1.04754 v 1.04754 c 0,0.34918 0,0.69836 0,1.04754 0,2.44426 0,5.23769 0,7.68195 0,0.34918 0,1.04754 0.34918,1.39672 0,0 0,0.34918 0,0.69836 v 0.69836 c 0,0.34918 0,1.04754 0.34918,1.39672 0,0 0,0.34918 0,0.69836 v 0.69836 c 0,0.34918 0,0.69836 0.34918,1.39672 0,0.34918 0,0.69836 0,1.04754 0,0.34918 0,0.69836 0.34918,1.04753 0,0.34918 0,0.69836 0.34918,1.39672 0,0.34918 0,1.04754 0.34918,1.39672 0,0.34918 0,0.69836 0,1.04754 0,0.34918 0,0.69836 0,1.04754 0.34918,0.34918 0.34918,0.69836 0.34918,1.39672 v 1.39672 c 0,0.34918 0.34918,1.04754 0.34918,1.39672 v 0.34918 c 0.34918,0.69836 0.34918,1.39672 0.69836,1.7459 0,0.34918 0,0.34918 0.34918,0.69836 l 0.69836,0.69836 c 0.34918,0.69835 1.04754,0.69835 2.09508,1.04753 l 1.7459,0.34918 c 0.69836,0 1.39671,0 1.74589,0 0.69836,0 1.39672,-0.34918 2.44426,-0.34918 0,0 0.34918,0 0.34918,0 0.34918,0 0.69836,0 1.04754,0 h 4.53934 c 0.34918,0 0.34918,0 0.69836,0 0.34918,0 0.69836,0 1.39672,0 h 3.49179 c 0.69836,0 1.39672,0 2.44426,-0.34918 h 0.69836 c 0.34918,0 0.69836,0 1.04754,-0.34917 l 0.34918,-0.34918 c 0,-0.34918 0.34918,-0.69836 0.34918,-1.04754 0,-0.69836 0,-1.7459 0,-2.79344 v -0.34918 c 0,-0.34918 -0.34918,-1.04754 -0.34918,-1.39672 0,-0.34918 0,-0.34918 0,-0.69836 -0.34918,-0.34918 -0.69836,-1.04754 -0.69836,-1.7459 0,-0.34918 -0.34918,-1.04754 -0.34918,-1.39672 0,-0.34918 0,-0.34918 0,-0.69836 0,-0.69836 0,-1.04754 -0.34918,-1.7459 v -1.04753 c 0,-0.34918 0,-0.69836 0,-1.04754 0,-0.34918 0,-0.69836 0,-1.04754 v -1.39672 c 0,-0.34918 0,-1.04754 0,-1.39672 v -0.34918 c 0,-0.69836 0,-1.04754 0.34918,-1.7459 v -0.69836 c 0,-0.34918 0,-0.69836 0,-1.39672 v -0.69836 c 0,-0.69836 0,-1.04754 0,-1.7459 v -3.14261 c 0,-0.69836 0,-1.39672 0,-2.09508 v -0.69836 c 0,-0.34918 0,-1.04754 -0.34918,-1.39672 v -1.04754 c -0.34918,-0.69836 -0.34918,-1.39672 -0.34918,-2.09508 0,-0.34918 0,-0.69836 0.34918,-1.04754 0,-0.69836 0,-1.04754 0,-1.7459 v -0.69836 c 0,-0.34918 0,-0.34918 0,-0.69836 0,-0.34918 0,-0.69835 0,-1.04753 0,-0.34918 0,-0.69836 0,-1.04754 0,0 0,-0.34918 0,-0.34918 v -4.19016 c 0,-0.34918 0,-1.04754 0,-1.39672 0,-0.34918 0,-0.69836 0,-1.04754 v -3.14262 c 0,-0.34918 0,-1.04754 0,-1.39672 0,-0.34917 0,-0.69835 0,-1.04753 v -3.14262 c 0,-0.34918 0,-0.69836 0,-1.39672 0,-0.34918 0,-0.69836 0,-1.04754 v -1.7459 c 0,0 0,-0.34918 0,-0.34918 0,-0.34918 0.34918,-0.34918 0.34918,-0.34918 0,0 0.34918,0 0.34918,0 h 1.39672 c 0,0 0.34918,0 0.34918,0 0.69836,0 1.04754,0 1.7459,-0.34918 0.34918,0 0.69836,0 1.04754,0 0.34918,0 0.69836,0 0.69836,0 0.69836,0 1.39672,0 2.09508,-0.34918 0,0 0.34918,0 0.69836,-0.34918 l 1.74589,-0.34918 c 0.34918,0 0.69836,0 1.04754,0 h 3.14262 c 0.34918,0 0.69836,0 1.04754,0 h 0.69836 c 0.34918,0 0.69836,0 0.69836,-0.34918 0.34918,-0.34918 0.34918,-0.69836 0.34918,-1.04754 l -1.04754,-2.09507 c 0,0 0,0 0,-0.34918 0,0 -0.34918,-0.34918 -0.69836,-0.34918 0,0 -0.34918,0 -0.34918,0 h -2.44426 c -0.34918,0 -0.69836,0 -1.04754,0 -0.34918,0 -0.69836,0 -1.04754,0 h -5.93605 c 0,0 -0.34918,0 -0.69836,0 -0.69836,0 -1.04754,0 -1.7459,0 h -1.39672 c 0,0 -0.34918,0 -0.34918,0 -0.34918,0 -0.34918,0 -0.69836,-0.34918 -0.34918,-0.34918 -0.34918,-0.69836 -0.34918,-1.04754 0,-0.34918 -0.34918,-1.04754 -0.34918,-1.7459 0,-0.34918 0,-0.34918 0,-0.69836 v -2.79344 c 0,-0.34918 0,-0.69836 0,-1.04754 0,-0.34918 0,-0.69836 0,-1.04754 v -2.09508 c 0,0 0,-0.34918 0,-0.69836 0,-0.34918 0,-1.04753 0,-1.39671 v -1.04754 c 0,-0.34918 0,-1.04754 0,-1.39672 0,-0.34918 0,-0.34918 0,-0.69836 v -1.04754 c 0,-0.34918 0,-0.69836 0,-1.04754 0,-0.34918 0,-0.69836 0,-1.39672 0,-0.69836 0,-1.7459 0,-2.44426 v -4.88851 c 0,-0.69836 0,-1.04754 0,-1.7459 0,-0.34918 0,-0.69836 0,-1.04754 v -1.04754 c 0.34918,-0.34918 0.34918,-1.04754 0.34918,-1.7459 0,-0.34918 0,-1.04754 0,-1.39672 v -1.04754 c 0.34918,-1.04754 0.69836,-2.09508 1.7459,-2.79344 v 0 c 0.34918,-0.34918 0.69836,-0.69836 1.39672,-0.69836 0,0 0.34918,0 0.34918,0 0.34918,0 0.69836,-0.34918 1.39672,-0.34918 0.69836,0 1.39672,0 1.7459,0 h 0.34918 c 0.69836,0 1.39672,0 2.09508,0 h 1.39671 c 0.34918,0 0.69836,0 1.39672,0 0.34918,0 0.69836,0 1.04754,0 h 0.69836 c 0.34918,0 0.69836,0 1.39672,0 0.34918,0 0.69836,0 1.04754,0 1.39672,0 2.79344,0 4.19016,0 h 0.34918 c 0.34918,0 1.04754,-0.34918 1.04754,-0.69835 0.34918,-1.04754 0.34918,-1.7459 0.69836,-2.79344 z m -95.67525,76.47036 c 0,-0.34918 0,-0.69836 0,-1.04754 0,0 -0.34918,-0.34918 -0.34918,-0.69836 0,-0.34918 0,-1.04754 -0.34918,-1.7459 0,0 0,0 0,-0.34918 0,-0.34918 -0.34918,-0.69836 -0.34918,-1.39671 l -0.69836,-1.7459 c 0,0 0,-0.34918 -0.34918,-0.69836 -0.34918,-1.04754 -1.04754,-2.44426 -1.7459,-3.4918 -0.34918,0 -0.34918,-0.34918 -0.69836,-0.69836 -0.34918,-0.69836 -0.69836,-1.04754 -1.39672,-1.7459 -0.34918,0 -0.34918,-0.34918 -0.69836,-0.69836 -0.69836,-0.34918 -1.39672,-1.04754 -2.44426,-1.39672 -0.34918,-0.34918 -0.69836,-0.34918 -1.04754,-0.69836 -0.34918,-0.34918 -0.69836,-0.34918 -1.04754,-0.69836 -0.34918,0 -0.34918,0 -0.69835,0 l -0.69836,-0.34918 c -0.34918,0 -0.69836,0 -1.04754,-0.34918 l -1.39672,-0.34917 c -0.34918,0 -0.34918,0 -0.69836,-0.34918 h -0.69836 c -0.69836,0 -1.7459,-0.34918 -2.44426,-0.34918 0,0 0,0 -0.34918,0 h -1.04754 c -0.34918,0 -0.69836,0 -0.69836,0 -0.34918,0 -0.69836,0 -1.04754,0 h -1.39672 c -0.69836,0 -1.39672,0 -2.09507,0 -0.34918,0 -0.69836,0 -1.04754,0 -1.39672,0 -3.14262,0 -4.88852,0 -0.69836,0 -1.04754,0 -1.7459,0.34918 h -0.69836 c 0,0 0,0 0,0 0,0 -0.34918,0 0,-0.34918 0,0 0,-0.34918 0.34918,-0.34918 0.69836,-0.34918 1.39672,-0.34918 2.44426,-0.69836 0.34918,0 0.69836,0 1.04754,0 0.69836,0 1.04754,0 1.7459,0 h 0.69836 c 0.69836,0 1.39672,-0.34918 2.09508,-0.69836 0,0 0.34918,-0.34918 0.34918,-0.34918 1.04753,0 2.09507,-0.34918 2.79343,-0.69836 l 1.39672,-0.34918 c 0.69836,-0.34918 1.39672,-0.69836 2.44426,-0.69836 0.34918,0 0.34918,-0.34918 0.69836,-0.34918 1.39672,-0.69836 2.79344,-1.39672 4.19016,-2.09508 v 0 c 0.69836,-0.34918 1.7459,-0.69836 2.44425,-1.39672 0.69836,-0.34918 1.39672,-1.04754 2.09508,-1.7459 0,0 0.34918,-0.34918 0.34918,-0.34918 l 1.04754,-1.04754 c 0.34918,-0.34918 0.69836,-0.69836 1.04754,-1.04754 l 2.09508,-2.44425 c 0.69836,-1.04754 1.39672,-2.44426 2.09508,-3.84098 0.34918,-0.69836 0.69836,-1.39672 0.69836,-2.09508 0.34918,-0.69836 0.69836,-1.7459 1.04754,-2.44426 l 0.34918,-1.7459 c 0,-0.69836 0,-1.39672 0.34918,-2.09507 v -0.34918 c 0,-0.34918 0,-0.69836 0,-1.39672 0,0 0,-0.34918 0,-0.69836 0,-1.39672 0,-2.79344 0,-4.53934 v -0.69836 c 0,-0.34918 -0.34918,-1.04754 -0.34918,-1.39672 0,-0.34918 0,-1.04754 0,-1.39672 0,0 -0.34918,-0.34918 -0.34918,-0.34918 0,-0.69836 0,-1.39672 -0.34918,-1.7459 -0.34918,-1.39671 -0.69836,-3.14261 -1.39672,-4.53933 -0.34918,-1.04754 -0.69836,-2.09508 -1.04754,-3.14262 -0.34918,-1.04754 -0.69836,-1.7459 -1.04754,-2.79344 -0.34918,-0.69836 -0.69836,-1.04754 -1.39672,-1.7459 l -0.34918,-0.34918 c -0.34918,-0.34918 -1.04754,-0.69836 -1.39672,-1.04754 -0.69836,-0.34917 -1.04754,-0.34917 -1.7459,-0.69835 h -0.69836 c -1.04754,-0.34918 -2.09507,-0.69836 -3.49179,-1.04754 -0.34918,0 -1.04754,0 -1.7459,-0.34918 -0.34918,0 -1.39672,-0.34918 -2.09508,-0.34918 h -0.69836 c -0.34918,0 -0.69836,0 -1.04754,0 -1.04754,0 -2.09508,0 -2.79344,0 h -1.04754 c -0.34918,0 -0.34918,0 -0.69836,0 h -0.69836 c -0.34918,0 -0.34918,0 -0.69835,0 h -1.7459 c -2.79344,0 -5.58688,0.34918 -8.38032,0.34918 h -0.69836 c -0.69836,0.34918 -1.39672,0.34918 -2.09508,0.34918 h -0.69835 c -0.69836,0 -1.04754,-0.34918 -1.7459,-0.34918 -0.34918,0 -0.69836,0 -1.04754,0 h -0.69836 c -0.69836,0 -1.39672,0 -2.09508,0 -0.69836,0 -1.04754,0 -1.7459,0.34918 h -0.69836 c 0,0 -0.34918,0 -0.34918,0 -0.34918,0 -1.04754,0 -1.39672,0.34918 -0.34918,0 -1.04754,0 -1.39672,0.34918 -0.69836,0 -1.04754,0.34918 -1.7459,0.34918 -0.34917,0 -0.69835,0 -1.04753,0 h -2.09508 c 0,0 -0.34918,0 -0.69836,0 -0.34918,0 -1.04754,0.34918 -1.7459,0.34918 0,0 -0.34918,0 -0.69836,0 l -1.7459,0.34917 c -0.34918,0 -0.69836,0.34918 -1.04754,0.69836 v 0 c 0,0.34918 0,0.69836 0,1.04754 0,0.69836 -0.34918,1.39672 0.34918,2.09508 0,0 0,0 0,0.34918 v 0.34918 c 0,0.34918 0,0.69836 -0.34918,1.04754 0,0.34918 0,0.69836 0,1.39672 v 0 c 0,0.34918 0,1.04754 0,1.39672 v 2.09508 c 0,0.34918 0,0.69836 0,1.04754 0,0.34918 0.34918,0.69836 0.34918,1.04754 v 1.39671 c 0,0.34918 0,0.69836 0,1.04754 0,0.34918 0,0.69836 0.34918,1.04754 v 1.04754 c 0,0.34918 0,1.04754 0.34918,1.39672 v 1.04754 c 0,1.04754 0.34918,2.44426 0.34918,3.84098 0,0.34918 0,1.04754 0.34918,1.39672 0,0.34918 0,0.34918 0,0.69836 v 1.04754 c 0,2.44425 0.34918,5.23769 0.34918,7.68195 0,0.34918 0,1.04754 0.34918,1.7459 v 0.69836 c 0,0.34918 0,1.04754 0,1.7459 v 0.69836 c 0,0.34918 0,0.69836 0,1.04753 v 1.04754 c 0,2.09508 0,4.53934 0,6.63442 0,0.69836 0,1.39672 0,2.09508 v 1.04754 c 0,0 0.34918,0 0.34918,0.34918 v 1.04754 c 0,0 0,0.34918 0,0.69836 v 1.04753 c 0,1.39672 0,2.79344 0,4.19016 l 0.34918,1.04754 c 0,0 0,0 0,0.34918 0,0 0,0 0,0.34918 0,0 0,0.34918 0,0.34918 v 0 c 0.34918,0.34918 0.34918,0.34918 0.34918,0.69836 0,0 0,0 0,0.34918 0,0 -0.34918,0 -0.34918,0 v -0.34918 c 0,0 0,-0.34918 0,-0.69836 0,0 0,0 0,0 0,0 0,0 -0.34918,0 v 0 c 0,1.04754 0,1.7459 0,2.79344 v 0.69836 c 0,0.34918 0,1.04754 0.34918,1.39672 0,1.04754 0.34918,2.44425 0.34918,3.49179 v 0.69836 c 0,0.34918 0,0.69836 0.34918,1.04754 0,0 0,-0.34918 0,-0.69836 0,0 0,0 0,0 0,0 0,0 0,0 v 0 c 0,0 0,0 0,0.34918 0,0 0,0 -0.34918,0 0,0.34918 -0.34918,0.69836 -0.34918,1.04754 v 0.34918 c 0,1.7459 0,3.84098 0.34918,5.58688 0,0 0,0.34918 0,0.34918 v 0.69836 c 0,0.34918 0,1.04754 0,1.39672 v 5.23769 c 0,0.34918 0,1.04754 0.34918,1.39672 v 1.04754 c 0,1.04754 0,1.7459 0,2.79344 v 1.04754 c 0,0.34918 0,0.69836 0,1.04754 0,0.34918 0,0.69836 0,1.04754 v 4.53933 c 0,0.34918 0,1.04754 0.34918,1.39672 0,0.34918 0,0.34918 0,0.69836 v 6.63442 c 0,0.34918 0,1.04753 0,1.39671 0,0.34918 0,0.69836 -0.34918,1.04754 0,0.34918 0,0.69836 0.34918,1.04754 0,0.34918 0.34918,0.34918 0.69836,0.34918 l 1.04754,0.34918 c 0.34918,0 0.69836,0 1.04754,0 0.34918,0 1.04754,0 1.39672,0 h 0.69835 c 0.69836,0 1.39672,-0.34918 2.09508,-0.34918 h 0.69836 c 0.34918,0 0.69836,0 1.04754,0 h 5.2377 c 0.34918,0 1.04754,0 1.39672,0 0.34918,0 1.04754,0 1.39672,0 h 0.69836 c 1.39671,0 3.14261,0 4.53933,0 0.34918,0 0.69836,0 1.04754,0 0,0 0,0 0.34918,0 0.34918,0 0.69836,-0.34918 1.04754,-0.34918 0.34918,-0.34918 0.34918,-0.69836 0.34918,-1.04754 0,-0.69836 0,-1.39672 -0.34918,-1.7459 0,-0.34917 -0.34918,-0.69835 -0.34918,-1.04753 l -0.34918,-1.04754 c 0,-0.34918 0,-0.69836 -0.34918,-1.04754 0,-0.34918 0,-0.69836 0,-1.04754 0,-0.34918 0,-1.04754 -0.34918,-1.39672 0,-0.34918 -0.34918,-1.04754 -0.34918,-1.7459 0,-0.34918 0,-0.69836 0,-1.04754 -0.34918,-0.34918 -0.34918,-0.69836 -0.34918,-1.39672 v -1.7459 c 0,-0.34918 0,-0.69836 0,-1.04754 0,-0.34918 -0.34918,-1.04753 -0.34918,-1.39671 0,-1.7459 0,-3.14262 0,-4.88852 v -5.93606 c 0,-0.34918 0,-0.69836 0,-1.04754 0,-0.34918 0,-0.69836 0,-1.04754 0,-1.74589 0,-3.49179 0,-5.23769 v -1.04754 c 0,0 0,-0.34918 -0.34918,-0.69836 0,-0.34918 0,-1.04754 -0.34918,-1.7459 v -2.44426 c 0,-0.34918 0,-0.69836 -0.34918,-1.04754 v -1.04754 c 0,-0.34917 0,-0.69835 -0.34918,-1.04753 0,-0.69836 0,-1.39672 -0.34918,-2.09508 v -0.34918 c 0,-0.34918 0,-0.69836 -0.34918,-1.04754 v -0.69836 c 0,-0.34918 0,-0.69836 0,-1.04754 0,-1.04754 0,-1.7459 0,-2.79344 v -0.34918 c 0,0 0,-0.34918 0.34918,0 0.34918,0 0.69836,0.34918 1.39672,0.34918 h 1.7459 c 0.69836,0 1.39672,0 2.09508,0 0.34918,0 1.04754,0 1.39672,0.34918 2.44426,0.34918 2.44426,0.69836 3.84098,1.39672 0.69836,0.34918 1.04753,0.69836 1.74589,1.04754 0,0 0.34918,0 0.34918,0 0,0 0.34918,0.34918 0.69836,0.69836 0.69836,0.34918 1.04754,1.04754 1.39672,1.7459 0,0 0.34918,0.34918 0.34918,0.69836 0.34918,0.69836 1.04754,1.39672 1.04754,2.09508 l 0.69836,1.39671 c 0,0.69836 0.34918,1.39672 0.69836,2.09508 0,0.69836 0.34918,1.39672 0.34918,2.09508 0,0 0,0.34918 0,0.34918 v 1.04754 c 0,0.34918 0,0.69836 0,1.39672 0.34918,0 0.34918,0.34918 0.34918,0.69836 v 5.58687 c 0,0.34918 0,0.34918 0,0.69836 0,0.34918 0,1.04754 0,1.39672 v 2.09508 c 0,0.34918 0,0.69836 0,1.04754 v 0.69836 c 0,0.69836 0,1.39672 0,2.09508 v 0.69836 c 0,0.34918 0,1.04754 -0.34918,1.39672 0,0.34918 0,0.69836 0,1.04754 v 0.69836 c 0,0.34918 0,0.69836 0,1.39671 0,0.69836 0,1.39672 0,2.09508 v 0.69836 c 0,0.34918 0,0.69836 0,1.39672 v 4.88852 c 0,0.34918 0,0.69836 0,1.04754 v 0.69836 c 0.34918,0.34918 0.34918,1.04754 0.34918,1.39672 v 0.69836 c 0,0.34917 0,0.69835 0.34918,1.39671 l 0.34918,0.69836 c 0.69836,0.69836 1.7459,1.04754 2.79344,1.39672 0,0 0,0 0.34918,0 0.34918,0 1.04754,0.34918 1.39672,0.34918 l 2.44425,0.34918 c 0.34918,0 0.69836,0 1.04754,0.34918 0.34918,0 1.04754,0 1.39672,0 h 0.69836 c 0.34918,0 0.69836,0 0.69836,0 h 3.4918 c 0.69836,0 1.04754,0 1.7459,0 0.34918,0 0.34918,0 0.69836,0 0,0 0.34918,0 0.34918,0 l 1.04754,-0.34918 c 0.34918,-0.34918 0.34918,-0.34918 0.34918,-0.69836 0,-0.34918 0,-0.69836 0,-1.39672 0,-0.34918 -0.34918,-1.04754 -0.34918,-1.7459 -0.34918,-0.69835 -0.34918,-1.39671 -0.34918,-2.09507 v -0.69836 c 0,-0.34918 0,-1.04754 -0.34918,-1.39672 v -0.34918 c 0,-0.34918 0,-0.69836 0,-1.04754 0,-0.34918 0,-1.04754 0,-1.7459 0,-1.04754 0,-2.09508 0,-3.14262 v -1.04754 c 0,-0.34918 0,-0.69836 0,-1.04754 v -1.74589 c 0,0 0,-0.34918 0,-0.69836 v -1.04754 c 0,-0.34918 0,-0.34918 0,-0.69836 0,-0.34918 0,-1.04754 0,-1.39672 0,-0.34918 0,-0.69836 0,-1.04754 0,-0.69836 0,-1.04754 0,-1.7459 0,-0.34918 0,-0.69836 0,-1.04754 0,-0.34918 0,-0.69836 0,-1.04754 v -1.39672 c 0,-0.34918 0,-0.69836 0,-0.69836 0,-0.34918 0,-1.04754 0,-1.39672 0,-1.74589 0,-3.84097 0,-5.58687 z m -38.75895,-26.53766 c -0.34918,0 -0.34918,0 0,0 -0.69836,-1.04754 -0.69836,-1.39672 -0.69836,-2.09508 v -0.34918 c 0,-0.34918 -0.34918,-0.69836 -0.34918,-1.04754 0,-0.34918 0,-0.69836 0,-1.04754 0,-0.34918 0,-0.69835 0,-1.04753 v -0.69836 c 0,-0.34918 0,-0.69836 -0.34918,-1.04754 0,-0.34918 0,-0.69836 0,-1.04754 0,-0.34918 0,-0.69836 0,-1.04754 0,-0.34918 0,-1.04754 0,-1.39672 v -4.53934 c 0,-4.53933 0,-9.07867 0,-13.61801 v -1.7459 c 0,-0.34918 0,-1.04754 0,-1.39671 0,0 0,-0.34918 0,-0.69836 v -1.04754 c 0,-0.34918 0,-0.69836 0,-1.04754 0,0 0,-0.34918 0,-0.69836 0,-0.34918 0,-0.69836 0,-1.04754 l 0.34918,-2.09508 c 0,-0.34918 0.34918,-0.34918 0.34918,-0.69836 0,0 0.34918,0 0.34918,0 l 0.34918,-0.34918 c 0.34917,-0.69836 1.04753,-1.04754 1.39671,-1.7459 l 0.69836,-0.34918 c 0.34918,0 0.69836,-0.34918 1.04754,-0.34918 l 1.04754,-0.34918 c 0.34918,0 0.69836,0 1.04754,0 0.69836,-0.34918 1.39672,-0.34918 2.09508,-0.69836 h 0.34918 c 0.34918,0 0.69836,0 1.39672,-0.34918 0,0 0.34918,0 0.69836,0 h 0.69836 c 0.34918,0 0.69836,0 1.04754,0 0.34918,0 0.69836,0 1.39672,0 0.34918,0 0.69836,0 1.04753,0 0.34918,0 0.34918,0 0.69836,0 0.34918,0 0.69836,0 1.04754,0.34918 0,0 0.34918,0 0.34918,0 0.69836,0.34918 1.39672,0.69836 2.09508,1.39672 0,0 0,0 0,0.34918 0.69836,0.69836 1.39672,1.39672 1.7459,2.09508 0.34918,0.69836 1.04754,1.39672 1.39672,2.09508 0,0.34918 0,0.34918 0.34918,0.69836 0.34918,0.69836 0.69836,1.7459 1.04754,2.79344 v 0.69836 c 0,0.69836 0,1.74589 0,2.44425 v 2.44426 c 0,0.34918 0,0.69836 0,1.39672 0,0.34918 0,0.34918 0,0.69836 v 0.69836 c 0,0.34918 -0.34918,0.69836 -0.34918,1.39672 0,0.34918 0,0.69836 0,1.39672 0,1.04754 -0.34918,2.09508 -0.69836,3.14262 l 2.44426,0.34918 c 0,0 0,0.34918 0,0.69836 0,0 0,0.34917 0,0.69835 -0.34918,1.04754 -0.69836,2.09508 -1.39672,3.14262 0,0.34918 0,0.34918 0,0.69836 l -0.34918,0.69836 c -0.34918,1.04754 -1.04754,2.09508 -1.39672,3.14262 l -2.44426,3.84098 c -0.34918,0.34918 -0.34918,0.34918 -0.69836,0.69836 -0.34918,0.34918 -1.04754,1.04753 -1.39672,1.39671 l -0.34918,0.34918 c -0.34918,0.34918 -0.34918,0.34918 -0.69836,0.69836 -0.69836,0.69836 -1.74589,1.39672 -2.44425,1.7459 0,0 -0.34918,0.34918 -0.34918,0.34918 -0.69836,0.34918 -1.39672,0.69836 -2.09508,0.69836 h -0.34918 c -1.04754,0.34918 -2.09508,0 -3.14262,0.34918 h -0.34918 c -0.34918,0 -0.69836,0 -1.39672,0 0,0 0,0 -0.34918,0 z m 21.64914,15.71309 c 0,0 0,0 0,0 z m -85.89822,-62.50317 v -0.34918 c 0,-0.69836 -0.34918,-1.04754 -1.04754,-1.39672 l -1.74589,-0.34918 c -0.69836,0 -1.39672,-0.34918 -2.09508,-0.34918 v 0 c -0.69836,-0.34918 -1.39672,-0.34918 -2.09508,-0.34918 0,0 -0.34918,0 -0.69836,0 -0.34918,0 -1.04754,0 -1.39672,0 h -1.39672 c 0,0 -0.34918,0 -0.34918,0 -0.69836,0 -1.04754,0 -1.7459,0 -2.09508,0 -4.19015,0 -6.28523,0 h -6.63442 c -0.34918,0 -1.04754,0 -1.39672,0 -0.34918,0 -0.34918,0 -0.69836,0 h -1.04754 c -3.49179,0 -6.98359,0 -10.82457,0 h -2.09508 c -0.34918,0 -0.34918,0 -0.69836,0 -0.34918,0 -0.69836,0 -1.04753,0.34918 -0.34918,0 -1.04754,0 -1.7459,0 h -0.34918 c -0.69836,0 -1.39672,0.34918 -2.09508,0.34918 0,0 0,0 -0.34918,0 -0.34918,0 -1.04754,0.34918 -1.7459,0.34918 l -0.34918,0.34918 c 0,0 0,0 0,0.34918 -0.69836,0.34918 -0.69836,0.69836 -0.69836,1.7459 0,1.04753 0,1.39671 0.34918,2.79343 0,0.34918 0,0.69836 0.34918,1.04754 l 0.69836,1.04754 c 0.34918,0.34918 0.34918,0.69836 0.69836,1.39672 0.34918,0.34918 0.69836,1.04754 0.69836,1.39672 0,0.34918 0,0.69836 0,1.39672 v 0.34918 c 0,0.34918 0,1.04754 0,1.7459 0,0.34918 0,0.69836 0,1.39672 v 0.34918 c 0,0.69836 0,1.04754 0,1.74589 0,0.69836 0,1.04754 -0.34918,1.7459 v 1.39672 c 0,0.34918 0,0.69836 0,1.04754 0,0.69836 0,1.39672 0,2.09508 0,0.69836 0,1.39672 -0.34918,2.09508 v 0.69836 1.04754 c 0,0.34918 0,0.69836 0,1.39672 0,0.34918 0,0.34918 0,0.69836 v 1.39671 c 0,0 0,0.34918 0,0.69836 0,0.69836 0,1.04754 0,1.7459 v 1.04754 c 0,0.34918 0,0.34918 0,0.69836 0,0.34918 0,0.69836 0,1.39672 v 2.09508 c 0,0.34918 0,0.69836 0,1.39672 v 0.69836 c 0,0.34918 0,0.69836 0,1.39672 0,2.79343 0,5.58687 0,8.03113 v 4.19016 c 0,0.34918 0,0.69836 0,1.39672 0,0.34918 0,0.69836 0,1.04754 v 1.74589 c 0,0.34918 0,0.69836 0,1.04754 v 1.04754 c 0,0.69836 0,1.39672 0,2.44426 0,0.69836 0,1.39672 0,2.09508 v 1.04754 c 0,0.34918 0,1.04754 0,1.39672 0,1.7459 0,3.49179 0,5.23769 0,0.69836 0,1.39672 0,2.09508 v 0.69836 c 0,0.34918 0,1.04754 0,1.39672 0,0.34918 0,0.69836 0,1.39672 v 0.69836 c 0,0.34918 0,1.04754 0,1.39672 0,0.34918 0,0.69836 0,1.39672 0,0 0,0.34918 0,0.69836 v 1.39671 c 0,0.34918 0,0.69836 0,1.04754 0,0.34918 0,0.69836 0,1.04754 v 6.28524 c 0,0.34918 0,0.69836 0,0.69836 0,0.34918 0.34918,1.04754 0.34918,1.39672 0,0.69836 0,1.39672 0,2.09508 v 3.84097 c 0,0.34918 0,0.69836 0,1.04754 0,0.34918 0.34918,1.04754 0.34918,1.39672 v 3.4918 c 0,0.34918 0,0.69836 0.34918,1.04754 v 0.69836 c 0,0.69836 0,1.39672 0.34918,2.09508 0,0.34918 0,0.69835 0.34918,1.04753 0,0.34918 0,0.34918 0,0.69836 0,0 0,0.34918 0.34918,0.34918 0.34918,0 0.69836,0.34918 1.04754,0.34918 0.34918,0 0.69836,0 1.04754,0 0.34918,0 1.04754,0 1.39671,0 0.34918,0 0.69836,0 1.04754,0 0.34918,0 1.04754,0 1.39672,0 h 1.04754 c 0.34918,0 0.69836,0 1.04754,0 0.34918,0 0.69836,0 1.04754,0 h 2.09508 c 0.34918,0 0.69836,0 0.69836,0 0.34918,0 0.69836,0 1.39672,0 0.69836,0 1.39672,0 2.09508,0 h 2.09507 c 0.34918,0 0.34918,0 0.69836,0 0.34918,0 1.04754,0 1.7459,0 2.09508,0 4.19016,0 6.28524,0 h 4.19015 c 0.34918,0 0.69836,0 1.04754,0 0.34918,0 0.69836,0 1.39672,-0.34918 h 5.2377 8.72949 c 0.34918,0 1.04754,0 1.39672,0 0,0 0.34918,0 0.34918,0 h 1.39672 c 0.34918,0 0.69836,0 0.69836,-0.34918 0,0 0.34918,-0.34918 0.34918,-0.69836 0,-0.34918 0,-0.34918 0,-0.69835 v -1.7459 c 0,-1.04754 0,-1.04754 0,-2.09508 0,0 0,0 0,0 0,0 -0.34918,-0.34918 -0.69836,-0.34918 -0.34918,0 -0.69836,-0.34918 -1.04754,-0.34918 0,0 -0.34918,0 -0.34918,0 -0.69836,0 -1.04754,0 -1.7459,0 -0.34918,0 -0.34918,0 -0.69836,0 h -1.39672 c -0.34918,0 -0.34918,0 -0.69836,0 -0.34918,0 -0.69835,0 -1.04753,0 h -2.44426 c -0.34918,0 -0.69836,0 -1.04754,0 h -1.04754 c -0.34918,0 -0.69836,0 -0.69836,0 -1.39672,0 -3.14262,0 -4.53934,0 h -1.04754 c -0.34918,0 -1.04754,0 -1.7459,0 -1.04753,0 -2.09507,0 -3.14261,0 h -0.69836 c -0.34918,0 -0.34918,0 -0.69836,0 l -0.34918,-0.34918 c -0.34918,-0.34918 -0.69836,-0.69836 -0.69836,-1.39672 l -0.34918,-1.04754 c 0,-0.34918 0,-0.69836 -0.34918,-1.04754 0,-0.34918 -0.34918,-0.69836 -0.34918,-1.39672 0,-0.34918 0,-0.69836 0,-0.69836 v -1.04754 c 0,-0.69836 0,-1.74589 0,-2.44425 v -0.69836 c 0,-0.69836 0,-1.04754 0,-1.7459 0,0 0,-0.34918 0,-0.69836 0,-0.69836 0,-1.04754 0,-1.7459 0,-0.34918 0,-0.69836 0,-1.04754 0,-0.34918 0,-0.69836 0,-1.39672 v -1.7459 c 0,-0.34918 0,-0.69836 0,-1.39672 0,-0.34918 0,-0.34918 0,-0.69836 v -3.14261 c 0,-0.34918 0,-0.34918 0,-0.69836 -0.34918,-0.34918 -0.34918,-1.04754 -0.34918,-1.39672 0,-0.69836 0,-1.39672 -0.34918,-2.09508 0,0 0,-0.34918 0,-0.69836 0,0 0.34918,-0.34918 0.69836,-0.69836 0,0 0.34918,0 0.69836,0 0.34918,0 1.04754,0 1.7459,-0.34918 1.7459,0 3.84097,0 5.93605,0 0.34918,0 0.69836,0 1.04754,0 h 1.04754 c 0.34918,0 0.69836,0 1.04754,0 0.34918,0 0.69836,0 1.04754,0 h 1.04754 c 0.69836,0 1.7459,0 2.44426,0 0.34918,0 0.69836,0 1.39672,0 h 0.69836 c 0.69836,0 1.39672,0 2.44425,0 v 0 c 0,0 0.34918,0 0.34918,0 0.34918,-0.34918 0.69836,-0.69836 0.69836,-1.39672 0,-0.34918 0,-0.34918 -0.34918,-0.69836 -0.34918,-0.34918 -0.69836,-1.04754 -1.39672,-1.39672 -0.34917,-0.34918 -0.69835,-0.69836 -1.39671,-1.04754 0,0 0,0 -0.34918,0 -0.69836,0 -1.39672,0 -2.09508,0 -0.34918,0 -1.04754,0 -1.7459,0 -0.34918,0 -0.69836,0 -1.39672,0 -0.34918,0 -0.69836,-0.34918 -1.04754,-0.34918 v 0 c -0.34918,0 -1.04754,0 -1.39672,-0.34918 l -4.19016,-1.04753 c -0.69835,0 -1.74589,-0.34918 -2.44425,-0.34918 0,0 -0.34918,0 -0.69836,0 h -0.69836 c -0.34918,0 -0.69836,0 -1.39672,0 -0.34918,0 -0.69836,0 -0.69836,-0.34918 0,-0.34918 0,-0.69836 -0.34918,-1.39672 0,-0.34918 0,-0.69836 0,-1.04754 0,-0.34918 -0.34918,-1.04754 -0.34918,-1.39672 0,-0.69836 0,-1.39672 0,-2.09508 v -4.19016 c 0,-0.34918 0,-0.69836 0,-1.39672 0,-0.34918 0,-0.34918 0,-0.69835 0,-0.34918 0,-0.69836 0,-1.04754 v -3.14262 c 0,-0.34918 0,-0.69836 0,-1.04754 0,-0.34918 0,-0.69836 0,-1.04754 v -3.4918 c 0,-0.34918 0,-0.69836 0,-1.39672 0,-0.34918 0,-0.69836 0,-1.04754 v -1.74589 c 0,-0.34918 0,-0.34918 0,-0.69836 0,-0.34918 0,-1.04754 0,-1.39672 v -1.39672 c 0,-0.34918 0,-1.04754 0,-1.7459 v -0.69836 c 0,-0.34918 0,-1.04754 0,-1.7459 0,-0.34918 0,-0.69836 0,-1.04754 v -1.04754 c 0,-0.34918 0,-0.69836 0,-1.39672 v -0.69836 c 0,-0.34918 0,-1.04753 0,-1.39671 0,-0.34918 0,-1.04754 0,-1.39672 v -0.69836 c 0,-0.34918 0,-0.69836 0,-1.39672 0,-0.69836 0,-1.04754 0,-1.7459 v -1.04754 c 0,-0.34918 0,-0.69836 0,-1.04754 0,-0.34918 0,-1.04754 0,-1.7459 v -4.88851 c 0,-0.69836 0,-1.7459 0.34918,-2.44426 v -0.34918 c 0,-0.34918 0,-0.69836 0,-0.69836 0,-0.34918 0,-0.69836 0,-1.39672 v -0.69836 c 0,-0.34918 0,-0.69836 0,-1.04754 l 0.34918,-1.04754 c 0.34918,-0.34918 0.69836,-0.69836 1.04754,-1.04754 1.04754,-0.34918 2.09508,-1.04754 3.14262,-1.04754 0.34918,0 0.34918,0 0.69836,0 0.34918,0 0.69836,0 1.04753,0 h 3.14262 c 0.34918,0 0.69836,0 1.04754,0 0.34918,0 0.69836,0 1.04754,0 h 1.7459 c 0.34918,0 0.69836,0 1.39672,0 0.34918,0 0.34918,0 0.69836,0 h 1.39672 c 0.34918,0 0.34918,0 0.69836,0 0.34918,0 0.69836,0 1.39672,0 h 1.39671 c 0,0 0.34918,0 0.69836,0 0.69836,0 1.39672,0 2.09508,0 v 0 c 0,0 0.34918,0 0.34918,-0.34918 0,-0.34918 0.34918,-1.04754 0.34918,-1.39672 0,0 0,-0.34918 0,-0.34918 -1.39672,-0.34918 -1.39672,-1.04753 -1.39672,-2.09507 z m -93.92935,16.06226 c 0,-0.34918 0,-0.69836 0,-1.04754 0,-0.34917 0,-0.34917 -0.34918,-0.69835 l -0.69836,-2.79344 c -0.34918,-1.04754 -0.69836,-1.7459 -1.04754,-2.79344 -0.34918,-0.69836 -0.69835,-1.7459 -1.39671,-2.79344 0,0 -0.34918,-0.34918 -0.34918,-0.69836 l -1.39672,-2.44426 c 0,0 0,-0.34918 -0.34918,-0.69836 -0.34918,-0.34918 -0.69836,-0.69835 -1.04754,-1.04753 -0.34918,0 -0.34918,-0.34918 -0.69836,-0.34918 -0.34918,-0.34918 -0.69836,-0.69836 -1.04754,-0.69836 l -0.34918,-0.34918 c 0,0 -0.34918,-0.34918 -0.34918,-0.34918 -0.69836,0 -1.04754,0 -1.7459,-0.34918 -0.69836,-0.34918 -1.39672,-0.34918 -2.09508,-0.69836 -0.34918,-0.34918 -1.04754,-0.34918 -1.39672,-0.34918 0,0 -0.34918,0 -0.34918,0 l -1.39672,-0.34918 c -0.34917,0 -0.69835,0 -1.04753,0 h -0.69836 c -0.34918,0 -0.69836,0 -1.04754,0 -0.34918,0 -0.34918,0 -0.69836,0 h -1.7459 c -0.34918,0 -0.69836,0 -1.04754,0 -0.34918,0 -0.69836,0 -1.39672,0.34918 -1.04754,0 -2.44426,0 -3.4918,0 h -5.23769 c -0.34918,0 -0.69836,0 -1.04754,0 h -1.04754 c -0.34918,0 -1.04754,0 -1.39672,0 h -4.19016 c -1.39672,0 -3.14261,0 -4.53933,0 h -1.39672 c -0.34918,0 -0.69836,0 -1.39672,0 l -1.7459,0.34918 c -0.34918,0 -0.69836,0 -1.04754,0.34918 -0.34918,0 -1.04754,0 -1.39672,0 l -2.09508,0.34918 c -0.34918,0 -1.04754,0.34918 -1.7459,0.34918 0,0 -0.34918,0 -0.34918,0.34918 -0.34918,0.34918 -0.69835,0.69836 -1.04753,1.04754 0,0 -0.34918,0.69836 -0.34918,1.04753 0,1.04754 0,2.44426 0,3.4918 v 1.7459 c 0,0 0,0.34918 0,0.69836 0,0.34918 0,0.69836 0,1.04754 0,0.34918 0,1.04754 0.34918,1.39672 0,0 0,0.34918 0,0.69836 0,0.34918 0,0.69836 0,1.04754 0,0.34918 0.34918,0.69836 0.34918,1.39672 v 7.33277 c 0,0.34918 0,1.04754 0.34917,1.39672 v 0.34918 c 0,0.34918 0,1.04754 0,1.39672 0,0 0,0.34918 0,0.69836 v 2.09508 c 0,0.34918 0,1.04754 0,1.7459 v 0.69835 c 0,0 0,0 0,0.34918 v 0.69836 c 0,0.34918 0,0.69836 0,1.04754 0,1.39672 0,2.44426 0,3.84098 v 3.84098 c 0,0.34918 0,0.69836 0,1.39672 0,0 0,0.34918 0,0.69836 v 1.04753 c 0,3.84098 0,7.68196 0,11.87212 v 0.69836 c 0,0.34918 0,0.69836 0,1.39671 0,0.34918 0,1.04754 0,1.39672 0,0 0,0.34918 0,0.69836 v 0.34918 c 0.34918,0.69836 0.34918,1.7459 0.34918,2.44426 v 6.28524 c 0,0.34918 0,1.04754 0.34918,1.74589 v 0.69836 c 0,1.39672 0.34918,2.44426 0.34918,3.84098 0,0.34918 0,1.04754 0.34918,1.39672 v 1.04754 c 0,1.04754 0.34918,2.09508 0.34918,3.14262 v 1.04754 c 0,0.34918 0,1.04754 0.34918,1.7459 0,1.04753 0.34918,2.09507 0.34918,3.14261 v 1.04754 c 0,0.34918 0,0.69836 0,1.39672 0,1.04754 0,2.09508 0.34918,3.4918 v 1.04754 c 0,0.34918 0.34918,0.69836 0.34918,1.04754 v 3.49179 c 0,0.34918 0,1.04754 0.34918,1.7459 v 0.34918 c 0,0.34918 0,1.04754 0,1.39672 v 5.2377 c 0,0.34918 0,0.69836 0,1.04754 0,0.34918 0.34918,1.04754 0.34918,1.7459 0,0.34918 0,0.69836 0,1.39671 0,0 0,0.34918 0,0.34918 v 2.44426 c 0,0 0,0.34918 0,0.34918 0,0.34918 0.34918,0.69836 0.69836,0.69836 0,0 0,0 0.34918,0 h 2.79344 c 0,0 0.34918,0 0.69836,0 0.34918,0 1.04754,0 1.39672,-0.34918 h 1.04754 c 0.34918,0 0.69836,0 1.04754,0 0.34918,0 0.69836,0 1.04754,-0.34918 h 8.38031 c 0.34918,0 0.69836,0 1.04754,0 0.34918,0 0.69836,0 1.04754,0 1.04754,0 2.44426,0 3.84097,0 h 0.34918 c 0,0 0.34918,-0.34918 0.69836,-0.69836 0,0 0,-0.34918 0,-0.69836 v -2.44425 c 0,-0.69836 0,-1.39672 -0.34918,-2.09508 0,0 0,0 0,0 v -1.39672 c 0,-0.34918 -0.34918,-0.69836 -0.34918,-1.04754 v -0.34918 c 0,-0.34918 0,-0.34918 -0.34918,-0.69836 0,-0.34918 0,-0.69836 0,-1.39672 v -1.39672 c 0,-0.34918 0,-0.69836 0,-1.04754 -0.34918,-0.34918 -0.34918,-0.69836 -0.34918,-1.04754 v -2.09508 c 0,-0.34918 0,-0.69835 0,-1.04753 0,-0.34918 0,-0.69836 -0.34917,-1.39672 v -5.2377 c 0,-0.34918 0,-0.69836 -0.34918,-1.39672 v -1.04754 c 0,-0.34918 0,-1.04754 0,-1.39672 v -7.33277 c 0,-0.34918 0,-1.04754 -0.34918,-1.39672 0,0 0,-0.34918 0,-0.69836 v -1.39672 c -0.34918,-1.04754 -0.34918,-1.7459 -0.34918,-2.79344 0,-0.34918 0,-0.69836 0,-1.04754 v -1.04754 c 0,-0.34917 -0.34918,-1.04753 -0.34918,-1.39671 0,-0.34918 0,-0.69836 -0.34918,-1.39672 v -0.69836 c 0,-0.69836 0,-1.39672 -0.34918,-2.09508 v 0 c 0,-0.34918 0,-0.69836 -0.34918,-1.39672 0,-0.34918 -0.34918,-1.04754 -0.34918,-1.39672 0,-0.34918 0,-0.69836 -0.34918,-1.39672 0,-0.34918 0.34918,-0.34918 0.34918,-0.69836 h 0.69836 c 1.04754,0 2.09508,0 3.14261,0 h 5.58688 c 0.34918,0 0.69836,0 1.04754,0 0.34918,0 0.69836,0 1.04754,0 h 1.04754 c 0.69836,0 1.04754,0 1.7459,-0.34918 0.34918,0 0.34918,0 0.69836,0 0.34918,0 0.69836,0 1.04754,0 l 2.44425,-0.34918 c 1.04754,0 1.7459,-0.34918 2.79344,-0.69836 0,0 0,0 0.34918,0 0.34918,0 0.69836,-0.34918 1.04754,-0.34918 0.34918,0 0.69836,-0.34918 0.69836,-0.69836 1.04754,-0.69835 1.39672,-1.04753 2.09508,-2.44425 0.34918,-0.34918 0.69836,-1.04754 1.04754,-1.39672 1.04754,-2.09508 1.39672,-3.14262 2.44426,-5.93606 0.34918,-0.69836 0.34918,-1.39672 0.69836,-2.09508 l 0.34917,-1.39672 c 0,-0.34918 0,-0.69836 0,-0.69836 0.34918,-0.69835 0.34918,-1.39671 0.69836,-2.44425 l 0.34918,-2.09508 c 0.34918,-0.69836 0.34918,-1.04754 0.34918,-1.7459 l 0.34918,-1.7459 c 0,-0.34918 0,-1.04754 0.34918,-1.7459 0,0 0,-0.34918 0,-0.34918 0,-0.34918 0,-0.69836 0,-1.39672 0,-0.34918 0,-0.69836 0.34918,-1.04754 0,-0.34918 0,-0.69836 0,-1.39671 0,0 0,-0.34918 0,-0.69836 0,0 0,-0.34918 0,-0.34918 0,-1.04754 0.34918,-1.7459 0.34918,-2.79344 0,-0.34918 0,-0.69836 0,-1.39672 0,-0.34918 0,-1.04754 0.34918,-1.39672 v 0 c -0.34918,-2.79344 -0.34918,-4.19016 -0.69836,-5.2377 z m -12.91965,7.33278 -1.7459,7.33277 c 0,0 0,0 0,0 -0.34918,1.04754 -0.34918,2.44426 -1.04754,3.84098 0,0.34918 -0.34918,1.04754 -0.34918,1.39672 l -0.69835,2.44426 c 0,0.69836 -0.34918,1.39672 -0.69836,2.09508 -0.34918,0.69836 -0.69836,1.39671 -0.69836,2.09507 -0.34918,0.69836 -1.04754,1.7459 -1.39672,2.44426 0,0.34918 -0.34918,1.04754 -0.69836,1.39672 -0.34918,0.69836 -0.69836,1.39672 -1.39672,1.7459 -0.34918,0 -0.34918,0.34918 -0.69836,0.69836 0,0.34918 -0.34918,0.34918 -0.69836,0.69836 -0.69836,0.34918 -1.04754,0.69836 -1.7459,1.04754 -0.34918,0 -0.34918,0 -0.69836,0.34918 0,0 -0.34918,0 -0.34918,0 -1.39672,0.34918 -2.44426,0.69836 -3.84097,1.39672 -1.04754,0.34918 -2.09508,0.69836 -3.14262,1.04754 h -0.34918 c -0.34918,0 -0.34918,-0.34918 -0.34918,-0.34918 0,0 0,-0.34918 0,-0.34918 v -1.7459 c 0,-1.7459 0,-3.4918 0,-5.2377 0,-3.14262 0,-6.28523 0,-9.07867 -0.34918,-4.88852 -0.34918,-9.77703 -0.34918,-14.31637 v -2.09508 c 0,-0.34918 0,-0.69836 -0.34918,-1.39672 v -0.69836 c 0,-1.04754 0,-2.09508 0,-3.14262 v -0.69835 c 0,-0.34918 0,-0.69836 0,-1.39672 0,-0.34918 0,-0.69836 0,-1.04754 0,-0.34918 -0.34918,-0.69836 -0.34918,-1.04754 0,-0.34918 -0.34918,-1.04754 -0.34918,-1.39672 v -0.34918 c 0,-0.69836 0.34918,-1.04754 0.34918,-1.7459 l 1.04754,-1.39672 c 0.69836,-0.69836 1.04754,-1.04754 1.7459,-1.7459 0,-0.34918 0.34918,-0.34918 0.69836,-0.34918 0,0 0.34918,0 0.34918,0 0.69836,-0.34918 1.39671,-0.34918 2.09507,-0.69836 0.34918,0 0.69836,0 1.39672,-0.34918 v 0 c 0.69836,0 1.39672,-0.34918 2.09508,-0.34918 h 3.14262 c 0.34918,0 1.04754,0 1.39672,0 1.04754,0 1.04754,0.34918 1.7459,1.04754 0,0 0.34918,0.34918 0.69836,0.69836 0,0 0.34918,0.34918 0.69836,0.69836 0.34918,0.34918 0.34918,0.34918 0.34918,0.69836 0.69836,1.04754 1.39671,2.44426 1.74589,3.84098 0.69836,1.04754 1.04754,2.44426 1.39672,3.84098 0.34918,1.04754 0.69836,2.09507 1.04754,3.14261 v 0.34918 c 0,0.34918 0,0.69836 0.34918,1.39672 v 2.09508 0.69836 c 0,1.04754 0,1.7459 -0.34918,2.44426 z m -32.12453,-1.04754 v 0 c -0.34918,-0.34918 -0.34918,-0.34918 0,0 -0.34918,0 -0.34918,0 0,0 z M 1492.4115,337.01231 c -2.7934,7.68196 -35.6163,98.46869 -26.5377,74.02611 -19.2049,54.12286 -46.4409,65.64579 -52.7261,-0.34918 -2.4443,-26.53766 -5.9361,-53.07532 -6.2852,-79.96216 -0.3492,-30.02946 1.3967,-59.70974 2.4442,-89.73919 0,-11.17376 0.3492,-27.23602 0.6984,-38.0606 18.1573,-2.79343 38.0606,-5.23769 47.4884,-6.63441 11.8721,-2.09508 5.9361,-11.17375 -1.0475,-9.77703 -12.5705,2.09507 -31.7754,3.14261 -46.0917,5.58687 0,-9.42785 0,-13.96719 0,-23.39504 -0.3492,-34.21962 -52.0278,-15.01473 -54.8213,33.52125 -11.5229,1.7459 -32.1245,7.68196 -45.7425,9.77704 -17.1098,2.79343 -16.7606,12.91965 1.3967,10.47539 8.0311,-1.04754 34.918,-6.9836 43.2983,-8.03113 -1.7459,30.72781 1.3967,125.00634 5.2377,158.5276 -10.4754,23.39504 -28.9819,61.10645 -46.0917,74.72446 -9.4279,7.33278 -17.459,3.14262 -19.9033,-9.77703 -5.2377,-29.3311 -5.936,-63.89989 -0.6983,-91.83427 1.3967,-6.9836 7.3327,-17.45899 13.618,-16.06227 8.3803,2.09508 12.9196,16.76063 12.5704,27.5852 -0.3491,16.41145 4.8886,10.12621 6.6345,1.7459 5.936,-34.21962 -13.2689,-55.51958 -42.9492,-46.09173 -18.8557,5.93606 -31.7753,23.39504 -37.013,43.64747 -2.0951,8.72949 -3.4918,17.45899 -4.1902,26.18848 -9.0786,20.25242 -14.3163,33.17207 -24.0934,50.98024 -8.7295,15.71309 -19.554,31.077 -37.7114,36.66387 -17.8081,5.2377 -17.1098,-33.17207 -18.1573,-41.55238 22.6967,-16.06227 40.5048,-39.8065 44.695,-71.58185 0.6983,-5.58688 0.3492,-11.87211 -1.0476,-17.45899 -3.1426,-11.87211 -13.9671,-19.20488 -27.5852,-17.45899 -24.7917,3.14262 -42.2507,27.5852 -52.7261,52.72615 -1.7459,3.84097 -2.7934,7.68195 -4.1901,11.52293 -5.5869,9.77703 -13.6181,17.1098 -19.2049,20.25242 -9.0787,5.2377 -22.3475,9.77703 -47.8377,3.14262 -8.3803,-2.09508 -16.7606,0 -25.1409,0.69836 -6.6344,0.34918 -14.3164,0.69836 -17.1098,8.38031 -2.0951,6.28524 1.0475,14.31637 6.2852,15.36391 58.313,28.98192 62.154,125.35553 17.8082,166.55874 -23.395,10.12621 -33.5213,-26.53766 -36.66388,-53.07532 -4.53934,-36.3147 -1.7459,-73.32775 -0.34918,-109.64244 0.34918,-12.91965 2.44426,-25.8393 3.84096,-40.50485 47.4885,-39.45731 67.0425,-109.64244 80.6605,-166.90792 10.4754,-43.29828 0.6984,-74.37528 -36.6638,-58.66219 -38.0606,16.06226 -69.4868,77.86708 -82.05727,126.40306 -8.7295,34.21962 -14.66555,69.13759 -19.20489,104.05556 -18.15735,34.91798 -34.91797,75.42283 -63.55071,112.78506 3.84098,2.09508 5.93605,3.14262 9.77703,5.2377 5.58688,-8.38032 11.52293,-17.45899 16.41145,-26.88684 11.52293,-21.29997 23.04586,-44.34583 34.21961,-66.69333 0,1.04754 -0.34918,2.09508 -0.34918,3.14261 -3.84097,38.0606 -3.84097,76.81955 4.19016,114.88014 7.68195,36.31469 19.55407,61.45563 46.79009,78.21626 18.50651,11.87211 36.31471,10.12621 53.42451,-3.4918 55.5196,-48.1868 46.7901,-159.22596 -17.459,-194.84229 -3.841,-0.34918 17.8082,-6.63442 26.8868,-4.53934 28.6328,6.28524 43.2983,-1.04754 50.2819,-6.63441 3.1426,-2.09508 6.9836,-5.58688 10.8246,-9.07868 -2.7934,19.90325 0,39.45731 6.9836,59.01138 9.777,26.88684 38.0606,34.21961 60.0589,25.49012 30.7278,-12.22129 45.7425,-48.1868 57.2655,-79.96216 0.6983,8.72949 2.0951,17.45899 3.841,25.8393 7.6819,34.21962 40.1556,53.4245 70.1851,29.68028 9.777,-8.03114 16.4114,-18.85571 21.6491,-28.63274 5.5869,-10.12621 15.7131,-31.42618 24.0934,-48.53598 10.1262,58.31301 39.1082,127.79978 85.1999,82.05723 9.0787,-9.07867 21.3,-32.82289 26.8868,-48.88516 10.4754,-29.3311 23.7443,-72.2802 26.1885,-78.91462 3.4918,-7.68195 -3.4918,-12.91965 -6.6344,-5.2377 z m -316.0077,17.80817 c 4.8885,-13.26883 15.7131,-18.15735 17.1098,-6.98359 1.7459,14.31637 -2.095,28.28355 -9.0786,41.20321 -4.1902,8.72949 -19.9033,34.56879 -20.2525,22.69668 -0.6983,-24.0934 5.9361,-40.15567 12.2213,-56.9163 z m -169.3521,14.31637 c 6.6344,-42.59993 16.7606,-84.5015 29.3311,-125.35553 3.4918,-11.17375 8.0311,-22.3475 12.9196,-32.82289 4.1902,-9.42786 17.1098,-27.23602 23.0459,-24.44258 6.2852,3.14261 5.5868,25.49012 1.0475,43.64746 -12.5705,48.18681 -30.0295,94.27853 -55.8688,137.926 -8.7294,13.26883 -12.9196,13.96719 -10.4753,1.04754 z M 828.62081,526.96609 c -4.19016,-35.26715 23.04586,-119.07029 47.13926,-151.89318 3.4918,-4.53934 6.28524,-9.77704 9.07868,-15.01473 9.07867,-17.45899 -18.85571,-25.14094 -43.29829,-0.34918 -8.7295,8.72949 -18.50653,16.76062 -32.47372,10.47539 5.2377,-13.26883 8.38032,-25.8393 10.47539,-40.50485 11.52294,-74.37529 -50.98024,-86.2474 -54.47204,-19.55407 -1.74589,29.68028 17.10981,60.4081 32.8229,68.09005 -3.4918,8.7295 -8.38031,15.01473 -11.52293,21.29997 0,0 0,0 0,0 -15.71309,26.53766 -22.3475,39.80649 -36.31469,59.70973 -10.4754,15.01473 -22.69669,28.98192 -41.55239,32.47372 -18.50653,3.4918 -13.61801,-34.91798 -13.61801,-43.29829 24.44258,-13.26883 44.34582,-35.26715 52.02778,-66.34415 1.39672,-5.58688 1.7459,-11.87211 0.69836,-17.45899 -1.7459,-12.22129 -11.87211,-20.6016 -25.49012,-20.25242 -25.14094,0.34918 -44.69501,22.69668 -57.96384,46.79008 -2.09508,3.84098 -4.19016,8.03114 -5.58688,12.22129 -3.49179,5.58688 -7.33277,11.17376 -13.61801,12.57048 -8.03113,1.39671 -20.6016,-8.38032 -26.88684,-16.76063 -5.23769,-51.6786 -40.15567,-100.91295 -72.62938,-72.62939 -12.57047,11.17375 -24.44258,34.5688 -30.37864,50.28188 -10.82457,27.5852 -19.55406,56.21794 -30.37864,83.10478 -7.68195,19.55407 -8.38031,4.53934 -8.72949,-2.44426 -0.69836,-18.8557 -2.09508,-37.71141 -4.19016,-56.56711 -0.69836,-7.68196 -3.14261,-15.71309 -6.28523,-22.34751 -7.33278,-14.31637 -24.0934,-14.66555 -32.8229,-1.7459 -4.88851,6.9836 -8.03113,19.90325 -9.77703,33.17208 -9.42785,18.85571 -21.99832,44.69501 -25.14094,50.98024 -8.38032,15.71309 -31.42618,46.79009 -37.01305,31.42618 -11.87212,-35.61634 32.47371,-117.67357 3.84097,-165.86038 -13.96719,-22.69668 -39.45731,-24.79176 -55.86876,-4.19016 -8.72949,11.17376 -16.41144,22.69669 -23.74422,33.87044 -9.07867,13.96719 -17.45898,27.93438 -26.53766,41.55239 -12.22129,18.50652 -7.68195,1.04754 -5.93605,-16.76063 1.7459,-16.41145 3.84097,-35.96551 -4.19016,-49.9327 -6.28524,-10.82457 -27.23602,-10.82457 -37.71141,-1.7459 -17.45899,14.31637 -27.23602,35.61633 -45.04419,66.34415 -2.79344,4.53934 -4.53934,8.72949 -7.33277,13.61801 -3.84098,6.28524 -4.19016,-7.68195 -3.84098,-11.17375 0.34918,-15.36391 1.39672,-30.37864 1.39672,-45.04419 0,-5.93605 -0.69836,-11.87211 -2.44426,-17.10981 -4.53934,-12.22129 -18.15735,-14.66554 -27.93438,-5.93605 -9.07867,8.38031 -11.87211,21.99832 -13.96719,40.85403 -12.221289,15.71309 -29.331096,37.71141 -51.6786,57.61466 -16.411448,14.66554 -25.490121,13.96719 -20.950784,-4.88852 4.190157,-17.10981 8.380314,-34.21962 13.26883,-50.98024 5.936055,-20.95079 11.872111,-41.90157 17.458987,-62.154 6.983595,-24.44258 -7.681954,-42.59992 -26.53766,-31.42617 -11.872112,5.93605 -20.601605,21.64914 -25.490121,33.87043 -27.93438,61.10646 -25.8393009,163.06694 31.775356,137.57682 14.665549,-6.28524 34.568794,-27.93438 60.757272,-62.50317 -1.04754,23.39504 1.7459,46.4409 8.03114,69.48676 5.23769,15.71309 11.17375,25.49013 23.04586,24.44259 13.26883,-1.39672 13.26883,-18.15735 26.53766,-59.01138 7.68195,-24.0934 20.25242,-47.13926 36.31469,-67.04251 10.12622,-13.26883 13.61801,-8.38031 12.57047,4.19016 -0.69836,8.38031 -1.39672,17.1098 -2.09508,25.14094 -1.74589,28.98192 17.45899,62.85235 38.0606,43.29829 5.58687,-5.2377 9.42785,-11.17376 13.26883,-17.45899 35.61633,-56.9163 50.98024,-86.59658 59.36055,-78.91462 8.03114,7.33277 -0.34918,28.28356 -4.53933,54.82122 -3.14262,19.90324 -6.9836,40.15567 -9.77704,59.70973 -3.49179,26.88684 1.04754,53.77368 17.80817,68.09005 21.99832,18.50653 54.47204,-6.63441 67.74087,-29.68028 6.63441,-11.52293 15.36391,-30.37863 23.74422,-48.53598 -2.44426,44.69501 -3.84098,89.73919 -5.23769,134.4342 -1.04754,32.47372 -1.7459,66.69333 3.49179,97.77033 2.79344,17.80816 4.88852,31.77535 21.64915,32.12453 15.01473,0.34918 19.55406,-15.01473 20.6016,-32.12453 2.79344,-37.01306 7.68196,-75.42283 10.12621,-112.78506 1.04754,-16.41145 3.4918,-32.82289 8.7295,-47.83762 2.79344,-8.7295 5.58687,-17.45899 8.72949,-26.18848 11.52293,-31.077 22.69668,-62.85236 34.21962,-94.27853 7.68195,-20.95079 21.29996,-50.63107 34.91797,-45.04419 13.61801,5.93606 19.20489,37.71141 17.45899,52.37696 -0.69836,4.88852 -14.66555,3.14262 -26.88684,15.36391 -17.80817,17.80817 -33.17208,57.61466 -33.17208,92.88181 0,19.55407 15.71309,38.40977 36.31469,32.8229 45.39337,-11.87212 71.23267,-74.02611 67.39169,-120.81619 12.91965,12.22129 24.79177,12.57047 33.52126,7.33277 -4.19016,18.85571 -3.4918,38.06059 1.04754,57.26548 6.98359,27.93438 34.21961,38.06059 56.9163,31.77535 43.99664,-12.22129 62.85235,-72.97856 81.70806,-105.1031 0,0 0,-0.34918 0.34917,-0.34918 4.19016,-6.63441 9.42786,-17.45898 11.52294,-23.04586 2.79343,1.39672 8.72949,2.09508 12.22129,3.14262 -17.80817,40.15567 -27.93438,68.09005 -32.8229,105.1031 -2.09508,14.66555 -0.69836,32.82289 5.2377,47.13926 11.87211,28.98192 45.74254,32.47372 70.18513,15.36391 10.82457,-7.33277 21.99832,-17.45898 32.12453,-31.42617 -3.84098,-2.09508 -5.58687,-3.14262 -9.42785,-5.2377 -1.04754,1.04754 -1.7459,2.44426 -2.79344,3.4918 -17.45899,21.64914 -46.79008,29.68028 -49.58352,6.28523 z m -111.38834,-151.544 c 6.28524,-12.57048 17.45899,-16.41145 17.80817,-4.88852 0.34918,14.31637 -5.2377,27.5852 -13.26883,40.15567 -5.2377,8.03113 -23.39505,32.47371 -22.34751,20.25242 1.7459,-24.0934 9.77704,-39.45731 17.80817,-55.51957 z M 567.08518,477.38257 c -11.17375,35.61633 -39.45731,55.51958 -38.40977,20.95078 1.39672,-45.74254 40.50485,-96.72278 47.13927,-90.08837 3.49179,3.14262 -4.53934,56.56712 -8.7295,69.13759 z M 802.08315,365.29587 C 788.81432,355.16966 779.73564,328.632 782.52908,306.2845 c 5.58688,-41.20321 23.39504,-27.93438 26.88684,-14.31637 5.2377,20.95078 1.39672,49.23434 -7.33277,73.32774 z M 71.249952,249.01902 c 7.332774,-0.34918 14.316369,-6.63442 15.363908,-14.31637 0.34918,-4.53934 -1.047539,-8.72949 -5.237696,-11.87211 -9.427853,-6.63442 -21.998324,4.88852 -22.347503,13.61801 -0.34918,6.98359 5.936055,12.91965 12.221291,12.57047 z" /></svg>