<?xml version="1.0" encoding="UTF-8" standalone="no"?>
<!DOCTYPE svg PUBLIC "-//W3C//DTD SVG 1.1//EN" "http://www.w3.org/Graphics/SVG/1.1/DTD/svg11.dtd">
<svg width="100%" height="100%" viewBox="0 0 234 161" version="1.1" xmlns="http://www.w3.org/2000/svg" xmlns:xlink="http://www.w3.org/1999/xlink" xml:space="preserve" xmlns:serif="http://www.serif.com/" style="fill-rule:evenodd;clip-rule:evenodd;stroke-linejoin:round;stroke-miterlimit:1.41421;">
    <g transform="matrix(1,0,0,1,-219.547,-14.4431)">
        <path d="M369.216,53.133C369.138,53.134 369.138,53.255 369.216,53.253C371.691,53.209 372.859,55.682 372.69,57.865C372.593,59.111 372.06,60.318 371.75,61.519C371.445,62.694 371.221,64.012 371.729,65.164C371.76,65.235 371.864,65.173 371.833,65.103C371.25,63.78 371.661,62.238 372.04,60.917C372.38,59.73 372.845,58.553 372.83,57.3C372.817,56.272 372.516,55.218 371.891,54.393C371.247,53.548 370.269,53.114 369.216,53.133Z" style="fill-rule:nonzero;"/>
        <path d="M396.592,65.483C394.96,66.279 393.695,68.267 393.837,70.102C393.843,70.179 393.964,70.18 393.957,70.102C393.818,68.306 395.056,66.366 396.652,65.586C396.722,65.552 396.661,65.449 396.592,65.483Z" style="fill-rule:nonzero;"/>
        <path d="M445.245,78.196C442.764,78.045 441.712,75.346 440.077,74.229C438.563,73.195 436.191,74.385 434.667,73.508C433.906,72.626 433.145,71.745 432.384,70.863C428.995,66.63 427.673,62.666 425.292,57.279C424.439,55.354 422.708,53.849 422.286,51.509C422.366,50.868 422.446,50.227 422.526,49.586C422.326,49.146 422.126,48.705 421.925,48.263C422.217,46.628 423.258,45.538 422.647,43.335C420.637,42.059 419.637,43.022 417.358,42.493C416.178,41.882 417.516,37.284 416.276,35.281C415.631,34.241 414.354,33.992 413.631,33.117C413.27,32.236 412.909,31.354 412.549,30.473C412.068,30.152 411.586,29.831 411.106,29.511C410.706,28.83 410.305,28.149 409.905,27.468C409.424,27.147 408.943,26.827 408.462,26.506C408.183,25.705 407.901,24.903 407.62,24.102C407.1,23.661 406.579,23.221 406.057,22.779C404.171,20.559 403.037,16.967 400.408,15.567C395.137,12.758 387.667,15.796 384.301,18.331C383.579,19.373 382.859,20.415 382.138,21.457C381.496,21.617 380.855,21.777 380.214,21.938C378.607,23.095 375.476,26.044 374.804,28.068C374.076,30.263 376.262,31.961 376.367,33.718C372.858,35.836 376.533,38.434 376.007,41.652C374.677,42.527 368.718,42.299 366.631,42.974C363.546,44.537 360.46,46.1 357.374,47.662C349.733,50.436 333.353,48.302 333.334,58.24C336.337,61.339 338.703,63.967 344.993,63.889C345.033,64.01 345.073,64.13 345.113,64.25C343.968,66.034 343.809,68.41 342.71,70.26C341.041,73.064 338.481,74.575 337.541,78.314C337.541,78.354 337.541,78.394 337.541,78.435C337.621,78.475 337.701,78.515 337.781,78.555C338.955,78.233 341.142,75.18 341.627,74.107C342.131,73.741 343.19,73.279 343.911,73.506C343.991,73.506 344.071,73.506 344.151,73.506C342.045,76.794 340.891,79.502 339.584,83.843C338.771,85.391 335.401,86.484 333.934,87.449C331.149,89.283 328.762,92.094 326.963,94.902C325.084,97.832 324.347,101.589 322.996,104.999C321.313,108.365 319.63,111.731 317.948,115.097C317.023,117.247 316.509,119.75 315.543,121.709C313.7,125.447 313.911,130.185 310.494,132.286C308.213,133.69 304.595,132.788 301.479,133.368C297.043,134.195 292.6,135.268 288.737,136.854C281.093,139.992 274.001,144.02 266.98,147.792C264.937,148.714 262.892,149.636 260.849,150.557C258.094,152.063 254.793,153.837 251.473,154.645C248.431,155.383 245.596,154.86 242.097,155.486C239.869,155.884 238.627,157.222 236.808,157.77C235.366,157.97 233.923,158.17 232.481,158.371C227.381,159.584 224.574,161.206 222.383,165.344C221.462,167.082 220.914,168.565 221.421,171.114C220.524,171.231 220.29,171.547 219.738,171.955C219.521,172.707 219.405,173.493 219.859,174.12C220.862,175.865 224.84,174.911 226.47,174.36C228.142,173.794 229.351,172.291 230.798,171.594C235.103,169.524 241.036,169.357 245.222,167.507C248.147,165.944 251.073,164.381 253.997,162.819C256.201,162.177 258.405,161.537 260.609,160.895C262.172,160.174 263.734,159.453 265.297,158.732C267.501,158.211 269.705,157.69 271.908,157.169C276.636,156.528 281.365,155.887 286.092,155.246C293.865,153.523 301.64,151.8 309.412,150.077C313.045,149.042 316.609,147.216 319.87,145.87C321.619,145.147 323.35,144.942 324.799,143.947C327.363,141.261 329.928,138.577 332.492,135.892C345.53,137.28 359.2,134.509 369.515,131.324C376.389,129.203 383.43,128.056 388.748,124.472C391.141,122.86 397.716,114.486 393.796,109.808C391.229,106.744 380.721,104.635 375.164,104.518C375.124,104.438 375.084,104.358 375.044,104.278C380.758,99.923 388.804,97.527 394.277,92.979C395.358,92.08 396.959,90.918 397.882,89.854C399.155,88.387 399.771,86.041 401.248,84.805C403.415,82.993 406.967,83.071 409.061,81.68C410.182,80.638 411.305,79.597 412.426,78.555C412.627,77.954 412.827,77.353 413.028,76.752C413.532,76.167 414.313,76.32 414.711,75.55C415.091,74.467 413.974,69.489 414.471,67.617C414.591,67.577 414.711,67.536 414.831,67.496C416.023,68.231 416.525,69.758 417.356,70.862C418.757,72.304 420.161,73.747 421.563,75.189C423.309,77.9 424.577,82.048 427.211,83.844C428.725,84.874 431.314,84.499 433.102,85.286C435.471,86.969 433.551,91.401 433.462,93.701C433.543,93.741 433.623,93.782 433.703,93.821C436.375,92.126 436.473,89.942 436.828,86.128C442.84,86.122 442.043,94.031 446.445,95.744C446.564,95.744 446.685,95.744 446.805,95.744C446.449,91.562 444.253,88.426 442.477,85.526C445.349,87.657 447.065,92.673 448.968,95.744C449.208,95.744 449.429,95.584 449.669,95.584C449.647,92.091 448.284,90.053 447.525,87.209C448.546,88.465 449.52,90.638 449.809,92.498C450.129,92.578 450.45,92.658 450.77,92.738C453.25,90.92 447.366,82.392 446.684,81.198C446.78,80.412 447.387,80.184 447.766,79.395C449.393,79.771 450.444,80.274 452.454,79.996C452.534,79.796 452.614,79.596 452.694,79.395C449.554,78.306 448.768,76.19 445.245,78.196ZM381.616,35.803C381.714,34.174 382.757,32.796 382.892,31.173C382.942,30.572 382.885,29.963 382.891,29.36C382.895,28.871 382.938,28.346 383.248,27.947C383.648,27.431 384.333,27.364 384.92,27.221C385.658,27.041 386.312,26.601 387.037,26.374C387.882,26.109 388.808,26.272 389.677,26.203C390.334,26.15 390.987,25.953 391.571,25.649C392.784,25.016 393.538,23.82 393.872,22.524C393.883,22.52 393.892,22.512 393.899,22.499C393.901,22.496 393.903,22.492 393.905,22.488C393.958,22.514 394.009,22.544 394.055,22.581C394.073,22.596 394.092,22.598 394.11,22.593C395.336,23.217 396.457,23.96 397.328,25.043C397.839,25.678 398.208,26.403 398.665,27.073C399.144,27.777 399.678,28.444 400.077,29.198C400.624,30.23 400.617,31.49 401.467,32.367C402.408,33.34 403.864,33.43 405.128,33.419C405.682,33.414 406.243,33.414 406.782,33.531C406.78,33.546 406.786,33.561 406.802,33.574C406.845,33.608 406.876,33.651 406.904,33.697C406.898,33.712 406.898,33.729 406.909,33.747C407.635,34.987 406.918,36.67 405.638,37.199C405.208,37.376 404.726,37.393 404.303,37.587C403.815,37.811 403.584,38.245 403.456,38.75C403.443,38.799 403.489,38.829 403.527,38.823L403.528,38.823C403.318,39.131 403.292,39.535 403.26,39.92C403.233,40.273 403.192,40.621 403.031,40.941C402.885,41.233 402.59,41.459 402.326,41.639C402.012,41.854 401.596,42.01 401.367,42.327C401.089,42.714 401.21,43.208 401.346,43.627C401.528,44.18 401.912,44.586 402.241,45.041C402.238,45.046 402.235,45.052 402.233,45.061C402.063,46.153 401.079,46.866 400.771,47.905C400.768,47.917 400.768,47.928 400.771,47.937C400.637,48.367 400.223,48.722 399.907,49.012C399.43,49.45 398.911,49.843 398.387,50.223C397.967,50.53 397.545,50.858 397.095,51.118C396.326,51.559 395.483,51.859 394.61,52.008C393.792,52.148 392.944,52.142 392.164,51.837C391.484,51.571 390.908,51.086 390.407,50.566C389.897,50.041 389.462,49.45 389.03,48.861C388.945,48.747 388.859,48.634 388.774,48.521C388.777,48.521 388.781,48.52 388.784,48.519C388.86,48.503 388.828,48.387 388.753,48.403C388.733,48.407 388.714,48.41 388.694,48.414C388.315,47.919 387.921,47.44 387.5,46.976C386.588,45.972 385.581,45.033 384.79,43.927C384.058,42.905 383.434,41.831 383.052,40.627C382.77,39.737 382.736,38.817 382.597,37.901C382.486,37.172 382.29,36.3 381.617,35.887C381.609,35.868 381.605,35.849 381.605,35.829C381.61,35.826 381.616,35.816 381.616,35.803ZM332.287,135.987L324.744,143.884C323.841,144.503 322.829,144.812 321.757,145.139C321.132,145.329 320.486,145.528 319.838,145.794C318.872,146.193 317.897,146.626 316.866,147.084C314.445,148.159 311.941,149.272 309.389,149.998L286.074,155.166L271.896,157.088L265.268,158.654L260.578,160.819L253.965,162.743L245.182,167.434C243.198,168.309 240.862,168.797 238.388,169.313C235.75,169.864 233.021,170.432 230.761,171.52C230.126,171.826 229.551,172.273 228.943,172.747C228.173,173.346 227.378,173.965 226.443,174.281C225.362,174.646 223.725,175.037 222.373,175.037C221.119,175.037 220.298,174.715 219.932,174.078C219.486,173.461 219.619,172.688 219.812,172.007C219.902,171.94 219.984,171.874 220.062,171.813C220.443,171.51 220.719,171.292 221.432,171.199L221.522,171.188L221.504,171.099C220.981,168.469 221.626,166.954 222.458,165.385C224.515,161.5 227.049,159.751 232.501,158.455L236.826,157.854L236.832,157.852C237.618,157.616 238.283,157.242 238.987,156.845C239.903,156.329 240.85,155.796 242.112,155.571C243.763,155.275 245.265,155.238 246.718,155.2C248.346,155.159 249.884,155.12 251.492,154.728C254.922,153.895 258.37,152.01 260.889,150.633L267.014,147.871C268.109,147.282 269.2,146.691 270.294,146.099C276.204,142.895 282.315,139.582 288.768,136.934C292.147,135.546 296.191,134.441 301.494,133.453C302.705,133.227 304.003,133.227 305.257,133.227C307.248,133.227 309.129,133.227 310.538,132.36C312.792,130.973 313.479,128.485 314.205,125.85C314.586,124.47 314.979,123.042 315.618,121.747C316.147,120.674 316.531,119.47 316.938,118.195C317.266,117.168 317.605,116.106 318.024,115.132L323.071,105.038C323.534,103.869 323.929,102.65 324.311,101.473C325.043,99.212 325.8,96.874 327.034,94.949C328.478,92.696 330.856,89.578 333.981,87.521C334.446,87.215 335.11,86.893 335.815,86.551C337.11,85.922 338.552,85.223 339.312,84.373C339.309,84.418 339.307,84.464 339.305,84.51C339.296,84.86 339.325,85.354 339.822,85.262C340.381,85.158 340.883,84.64 341.266,84.251C341.466,84.047 341.674,83.82 341.86,83.572L342.089,83.687L342.21,83.687C341.939,84.413 341.562,85.111 341.439,85.881C341.334,86.546 341.771,87.373 342.544,87.033C343.538,86.596 343.856,85.451 344.244,84.538C344.473,84 344.763,83.51 345.158,83.075C345.424,82.782 345.719,82.515 346.008,82.244L346.451,82.244L346.476,82.234C347.205,81.984 347.917,81.741 348.665,81.536C348.32,82.49 348.272,83.537 348.345,84.55C348.449,86.02 348.809,87.464 349.174,88.886C349.554,90.364 349.859,91.857 350.226,93.337C350.671,95.127 351.193,96.898 351.578,98.702C352.166,101.448 352.308,104.271 351.721,107.029C351.72,107.031 351.719,107.033 351.718,107.035C351.717,107.044 351.715,107.052 351.714,107.06C351.705,107.101 351.697,107.144 351.688,107.185C351.686,107.196 351.686,107.205 351.688,107.213C351.557,107.973 351.292,108.7 351.006,109.414C350.69,110.207 350.369,110.996 350.067,111.795C349.796,112.515 349.486,113.22 349.247,113.951C349.149,114.248 349.054,114.546 348.946,114.84C348.865,115.062 348.781,115.341 348.609,115.513C348.559,115.562 348.622,115.634 348.674,115.61C347.614,116.986 346.707,118.488 345.701,119.901C344.728,121.266 343.476,122.383 342.309,123.576L342.206,123.523L342.162,123.577C341.637,124.244 340.982,124.812 340.349,125.362C339.633,125.984 338.893,126.627 338.315,127.426L338.153,127.649L338.28,127.603C336.952,128.714 336.423,130.538 335.397,131.902C334.356,133.291 333.029,134.434 332.287,135.987ZM341.868,83.485C342.31,80.193 344.481,78.215 345.955,75.912C344.713,78.476 343.47,81.041 342.228,83.605C342.189,83.605 342.148,83.605 342.107,83.605C342.027,83.565 341.947,83.525 341.868,83.485ZM345.835,82.163C346.997,80.28 348.159,78.397 349.321,76.514C350.794,76.86 351.069,79.443 351.484,80.842C351.484,80.882 351.484,80.922 351.484,80.962C349.507,81.108 348.012,81.623 346.436,82.164C346.235,82.163 346.035,82.163 345.835,82.163ZM344.993,125.077C342.79,125.879 340.586,126.68 338.382,127.481C339.471,125.978 341.108,125.056 342.229,123.634C343.149,124.115 344.071,124.596 344.993,125.077ZM375.845,104.628C381.687,104.894 391.333,106.999 393.733,109.863C394.734,111.059 395.112,112.589 394.855,114.41C394.265,118.593 390.48,123.206 388.702,124.405C384.779,127.049 379.962,128.349 374.86,129.727C373.1,130.203 371.281,130.693 369.492,131.246C362.204,133.496 351.109,136.178 339.639,136.178C337.19,136.178 334.79,136.055 332.506,135.812C333.242,134.407 334.454,133.317 335.435,132.053C336.569,130.592 337.082,128.549 338.658,127.47L345.203,125.09L345.144,125.06C345.996,124.79 346.816,124.291 347.555,123.908C348.275,123.535 349.03,123.236 349.757,122.881C350.575,122.482 351.372,122.041 352.151,121.57C353.662,120.656 355.079,119.596 356.584,118.671C358.02,117.787 359.504,116.981 361.04,116.281C363.38,115.216 365.85,114.441 368.389,114.028C371.299,113.554 374.285,113.459 377.23,113.457C377.307,113.457 377.307,113.337 377.23,113.337C373.495,113.34 369.67,113.482 366.032,114.392C362.786,115.205 359.731,116.636 356.873,118.356C354.585,119.731 352.472,121.366 350.089,122.583C349.033,123.123 347.94,123.574 346.89,124.123C346.302,124.429 345.656,124.779 344.985,124.977L342.422,123.64C343.534,122.507 344.725,121.442 345.668,120.159C346.837,118.57 347.835,116.846 349.069,115.305C350.225,113.86 351.465,112.483 352.565,110.992C353.606,109.581 354.803,108.297 356.368,107.461C357.132,107.054 357.991,106.805 358.824,106.58C359.682,106.349 360.557,106.18 361.432,106.033C363.218,105.732 365.016,105.496 366.809,105.239C368.618,104.979 370.449,104.726 372.28,104.711C373.456,104.701 374.669,104.786 375.845,104.628ZM353.889,79.158C353.357,76.244 353.324,72.912 353.769,70.022C353.689,66.857 353.609,63.691 353.529,60.526C356.133,60.125 358.738,59.724 361.342,59.324C363.545,59.404 365.749,59.484 367.952,59.564C368.073,59.605 368.192,59.644 368.313,59.685C368.729,61.887 369.286,68.586 368.553,70.744C367.832,71.826 367.111,72.908 366.389,73.99C365.868,75.593 365.348,77.196 364.826,78.798C363.312,80.277 360.965,80.043 358.695,79.64C356.919,79.322 355.058,79.902 353.889,79.158ZM430.382,84.613C429.196,84.468 428.077,84.331 427.262,83.776C425.49,82.568 424.342,80.285 423.233,78.077C422.701,77.017 422.199,76.017 421.636,75.145L421.631,75.138L417.418,70.805C417.151,70.449 416.908,70.029 416.673,69.622C416.267,68.921 415.849,68.201 415.241,67.69C415.763,65.868 416.239,63.805 417.888,62.66C417.951,62.616 417.891,62.512 417.827,62.556C416.163,63.711 415.666,65.764 415.139,67.607C415.055,67.542 414.969,67.481 414.877,67.424L414.844,67.403L414.403,67.55L414.391,67.594C414.381,67.63 414.373,67.67 414.366,67.708C414.101,66.938 413.827,66.17 413.44,65.453C412.919,64.49 412.144,63.73 411.217,63.155C411.151,63.114 411.09,63.218 411.156,63.259C412.073,63.827 412.81,64.569 413.336,65.513C413.76,66.279 414.039,67.118 414.32,67.948C414.162,69.032 414.343,70.754 414.508,72.294C414.605,73.204 414.698,74.082 414.707,74.719C412.85,72.152 409.594,70.574 406.447,70.105C405.285,69.932 404.101,69.905 402.935,70.043C402.203,70.13 401.484,70.295 400.749,70.377C399.866,70.476 398.989,70.586 398.108,70.705C397.281,70.816 396.481,71.073 395.651,71.164C394.819,71.255 394.071,71.094 393.389,70.605C392.317,69.834 391.721,68.556 391.168,67.398C390.631,66.27 390.109,65.085 389.209,64.193C388.359,63.353 387.142,62.807 386.034,62.405C383.524,61.493 380.682,61.302 378.076,61.885C376.857,62.157 375.672,62.636 374.655,63.368C373.509,64.191 372.584,65.313 371.83,66.495C371.002,67.797 370.41,69.271 369.351,70.411C368.969,70.822 368.549,71.19 368.116,71.544L368.628,70.777L368.632,70.766C369.362,68.61 368.82,61.914 368.394,59.664L368.385,59.615L367.966,59.475L361.335,59.234L353.605,60.423C353.398,60.127 353.178,59.839 352.943,59.56C352.114,58.582 351.142,57.734 350.195,56.874C349.17,55.943 348.082,55.152 346.925,54.393C345.729,53.608 344.53,52.816 343.531,51.783C343.477,51.727 343.391,51.812 343.446,51.867C344.382,52.835 345.492,53.595 346.611,54.331C347.785,55.104 348.926,55.881 349.966,56.83C350.895,57.676 351.842,58.505 352.68,59.444C352.965,59.763 353.229,60.097 353.473,60.444L353.44,60.449L353.682,70.012C353.231,72.945 353.276,76.282 353.803,79.168L353.809,79.204L353.84,79.224C353.895,79.259 353.951,79.29 354.009,79.319C354.028,79.398 354.045,79.475 354.063,79.553C354.174,80.046 354.159,80.568 354.18,81.071C354.221,82.012 354.326,82.949 354.366,83.891C354.405,84.827 354.429,85.76 354.347,86.694C354.306,87.162 354.226,87.625 354.118,88.081C354.069,88.282 353.948,88.861 353.639,88.799C353.444,88.759 353.299,88.496 353.204,88.343C353.057,88.101 352.941,87.838 352.836,87.575C352.596,86.975 352.451,86.351 352.368,85.71C352.172,84.201 352.273,82.652 351.835,81.179C351.726,80.812 351.574,80.461 351.384,80.13C351.364,80.048 351.345,79.965 351.324,79.881C350.988,78.47 350.572,76.716 349.337,76.427L349.278,76.413L345.68,82.243L345.835,82.243C345.302,82.751 344.765,83.247 344.407,83.908C343.939,84.77 343.753,85.806 343.052,86.526C342.724,86.864 342.154,87.204 341.752,86.789C341.395,86.419 341.553,85.793 341.68,85.366C341.89,84.669 342.244,84.014 342.453,83.321L346.026,75.945L345.88,75.863C345.502,76.454 345.086,77.013 344.647,77.603C343.404,79.273 342.119,80.999 341.784,83.454C341.647,83.641 341.497,83.817 341.35,83.98C340.99,84.383 340.559,84.79 340.079,85.044C339.854,85.164 339.497,85.223 339.438,84.901C339.397,84.68 339.42,84.441 339.434,84.218C339.52,84.107 339.594,83.995 339.655,83.88L339.659,83.873L339.662,83.865C341.005,79.404 342.198,76.704 344.221,73.549L344.303,73.419L343.921,73.419C343.789,73.379 343.642,73.359 343.482,73.359C342.813,73.359 342.025,73.71 341.576,74.036L341.558,74.05L341.548,74.07C341.062,75.142 338.937,78.105 337.786,78.462L337.622,78.38L337.622,78.322C338.218,75.961 339.494,74.463 340.729,73.014C341.438,72.181 342.171,71.321 342.779,70.301C343.318,69.394 343.636,68.351 343.945,67.342C344.267,66.289 344.598,65.201 345.181,64.294L345.202,64.26L345.05,63.803L344.988,63.804C344.899,63.805 344.81,63.805 344.721,63.805C338.833,63.805 336.421,61.313 333.628,58.427L333.413,58.204C333.431,55.141 335.042,52.975 338.338,51.58C341.277,50.336 345.139,49.844 348.871,49.367C352.08,48.957 355.109,48.57 357.398,47.739L366.657,43.05C367.592,42.75 369.345,42.628 371.041,42.509C373.23,42.356 375.299,42.212 376.047,41.719L376.079,41.699L376.085,41.662C376.088,41.642 376.09,41.623 376.092,41.603C376.15,41.759 376.158,41.931 376.104,42.131C376.023,42.43 375.873,42.7 375.816,43.007C375.7,43.631 376.122,44.272 376.499,44.726C376.712,44.983 376.972,45.209 377.265,45.368C377.583,45.54 377.958,45.594 378.306,45.669C378.695,45.754 379.065,45.882 379.356,46.164C379.627,46.425 379.794,46.795 379.97,47.122C380.395,47.91 381.368,49.185 382.415,48.73C383.379,48.31 384.266,47.046 385.456,47.573C385.932,47.783 386.267,48.234 386.759,48.413C387.382,48.64 387.986,48.662 388.623,48.547C389.183,49.289 389.729,50.041 390.376,50.71C391.118,51.476 392.024,52.066 393.101,52.192C394.421,52.345 395.818,51.926 396.973,51.318C397.779,50.893 398.529,50.282 399.243,49.721C399.64,49.409 400.029,49.081 400.377,48.714C400.595,48.484 400.831,48.211 400.904,47.894C400.906,47.887 400.905,47.88 400.905,47.874C401.224,46.892 402.129,46.199 402.33,45.17C402.394,45.265 402.455,45.362 402.51,45.464C402.746,45.9 402.639,46.288 402.44,46.711C402.293,47.025 402.23,47.314 402.225,47.661C402.218,48.171 402.362,48.659 402.686,49.056C403.047,49.498 403.608,49.745 404.133,49.931C404.387,50.021 404.65,50.059 404.912,50.11C405.21,50.167 405.424,50.38 405.632,50.585C405.68,50.632 405.721,50.686 405.76,50.74C403.619,52.001 401.292,53.547 400.555,56.049C400.533,56.123 400.649,56.155 400.67,56.081C401.399,53.609 403.709,52.086 405.824,50.841C405.95,51.055 406.035,51.303 406.151,51.515C406.307,51.8 406.565,51.96 406.859,52.079C407.54,52.356 408.339,52.125 408.99,51.877C409.562,51.658 409.978,51.354 410.422,50.938C410.889,50.502 411.333,50.027 411.873,49.682C412.081,49.548 412.332,49.431 412.586,49.468C412.866,49.51 413.047,49.827 413.188,50.041C413.444,50.427 413.848,50.769 414.348,50.666C414.899,50.553 415.477,50.148 415.811,49.695C416.156,49.226 416.349,48.659 416.582,48.13C416.787,47.662 417.037,47.047 417.616,46.983C418.227,46.914 418.869,47.414 419.317,47.767C419.83,48.172 420.282,48.613 420.638,49.163C421.095,49.87 421.41,50.658 421.873,51.364C421.989,51.54 422.121,51.695 422.267,51.837C422.578,53.148 423.287,54.201 423.974,55.222C424.444,55.918 424.887,56.577 425.21,57.308C425.659,58.324 426.069,59.286 426.466,60.216C428.193,64.267 429.558,67.466 432.314,70.91L434.609,73.568L434.623,73.575L434.623,73.576C434.1,73.794 433.63,74.103 433.288,74.638C433.054,75.004 432.934,75.427 432.871,75.857C432.166,76.229 431.563,76.788 431.021,77.366C430.437,77.99 429.898,78.692 429.523,79.463C429.49,79.532 429.593,79.594 429.627,79.524C429.986,78.786 430.495,78.126 431.045,77.52C431.567,76.942 432.164,76.388 432.85,76.008C432.83,76.172 432.819,76.337 432.811,76.499C432.777,77.191 432.812,77.894 432.827,78.587C432.872,80.711 433.282,82.998 432.963,85.138C432.184,84.837 431.269,84.723 430.382,84.613ZM452.397,79.922C452.029,79.971 451.684,79.995 451.346,79.995L451.345,79.995C450.369,79.995 449.627,79.796 448.767,79.565C448.456,79.482 448.136,79.396 447.788,79.316L447.723,79.301L447.694,79.362C447.541,79.681 447.35,79.904 447.165,80.12C446.907,80.422 446.663,80.708 446.604,81.191L446.6,81.219L446.614,81.243C446.699,81.391 446.856,81.64 447.075,81.987C448.493,84.236 452.794,91.055 450.757,92.65L449.888,92.433C449.596,90.627 448.658,88.467 447.595,87.159L447.554,87.18C446.771,85.821 445.896,84.528 444.827,83.363C444.774,83.306 444.689,83.391 444.742,83.448C445.805,84.607 446.673,85.892 447.45,87.243C447.698,88.166 448.011,89.013 448.313,89.831C448.954,91.565 449.559,93.205 449.588,95.507C449.485,95.52 449.389,95.554 449.295,95.586C449.198,95.619 449.107,95.651 449.017,95.66C448.44,94.723 447.884,93.617 447.296,92.447C445.937,89.742 444.531,86.946 442.53,85.461L442.408,85.573C442.583,85.858 442.762,86.146 442.941,86.436C444.551,89.024 446.374,91.955 446.714,95.662L446.462,95.662C444.587,94.924 443.689,93.074 442.739,91.115C441.528,88.622 440.278,86.046 436.836,86.046L436.759,86.046L436.745,86.122L436.704,86.572C436.385,90.03 436.191,92.124 433.698,93.726L433.55,93.652C433.581,93.041 433.738,92.275 433.903,91.464C434.356,89.242 434.921,86.476 433.152,85.22L433.145,85.215L433.137,85.211C433.113,85.201 433.087,85.192 433.064,85.182C433.293,83.616 433.152,81.949 433.044,80.409C432.994,79.693 432.948,78.976 432.942,78.259C432.937,77.562 432.893,76.862 432.954,76.165C432.961,76.089 432.97,76.013 432.98,75.938C433.006,75.918 433.006,75.887 432.991,75.863C433.097,75.2 433.368,74.589 433.887,74.132C434.133,73.915 434.423,73.76 434.733,73.639C435.143,73.846 435.634,73.941 436.308,73.941C436.623,73.941 436.953,73.92 437.271,73.902C437.589,73.882 437.917,73.862 438.234,73.862C439.031,73.862 439.586,73.997 440.028,74.3C440.59,74.684 441.078,75.254 441.595,75.858C442.575,77 443.587,78.18 445.24,78.281L445.263,78.282L445.285,78.269C446.267,77.709 447.069,77.449 447.806,77.449C448.737,77.449 449.491,77.877 450.363,78.374C450.988,78.729 451.693,79.129 452.586,79.449L452.397,79.922Z" style="fill-rule:nonzero;"/>
        <path d="M395.778,56.019C393.208,54.436 390.592,52.665 387.649,51.866C387.575,51.845 387.542,51.961 387.618,51.982C390.552,52.778 393.157,54.546 395.718,56.123C395.783,56.164 395.843,56.06 395.778,56.019Z" style="fill-rule:nonzero;"/>
        <path d="M392.878,64.108C393.429,65.624 393.665,67.414 392.644,68.79C392.597,68.853 392.703,68.913 392.748,68.851C393.787,67.452 393.555,65.621 392.994,64.077C392.968,64.004 392.851,64.035 392.878,64.108Z" style="fill-rule:nonzero;"/>
    </g>
</svg>
