<?xml version="1.0" encoding="UTF-8" standalone="no"?>
<!DOCTYPE svg PUBLIC "-//W3C//DTD SVG 1.1//EN" "http://www.w3.org/Graphics/SVG/1.1/DTD/svg11.dtd">
<svg width="100%" height="100%" viewBox="0 0 308 681" version="1.1" xmlns="http://www.w3.org/2000/svg" xmlns:xlink="http://www.w3.org/1999/xlink" xml:space="preserve" xmlns:serif="http://www.serif.com/" style="fill-rule:evenodd;clip-rule:evenodd;stroke-linejoin:round;stroke-miterlimit:1.41421;">
    <g transform="matrix(1,0,0,1,-411.149,-24.984)">
        <path d="M603.042,24.984C605.072,24.984 607.1,24.984 609.13,24.984C609.992,25.196 611.178,25.785 611.97,25.998C613.998,26.544 615.848,25.507 617.045,25.186C619.412,25.186 621.779,25.186 624.149,25.186C627.223,25.881 631.212,26.207 634.091,27.418C635.197,27.883 636.03,28.847 636.932,29.447C638.025,30.176 639.322,30.332 640.382,31.072C641.838,32.087 642.141,34.313 642.818,36.145C644.313,40.197 644.854,44.814 646.267,49.133C647.891,54.1 650.221,58.608 652.966,62.529C654.402,64.582 656.634,66.679 657.633,69.024C658.537,71.151 659.35,75.641 658.646,78.968C658.394,80.171 657.593,83.396 658.242,85.056C659.125,87.314 660.049,89.972 660.677,92.768C660.677,95.406 660.677,98.045 660.677,100.683C661.824,105.517 663.916,107.799 670.418,107.177C671.501,106.974 672.584,106.772 673.665,106.569C673.665,106.636 673.665,106.704 673.665,106.772C673.597,106.772 673.529,106.772 673.463,106.772C672.031,109.606 667.452,110.331 663.315,109.816C663.315,109.883 663.315,109.951 663.315,110.019C664.467,113.266 665.616,116.514 666.765,119.76C667.76,121.156 671.16,121.923 673.056,122.601C677.302,124.121 681.918,125.248 687.669,125.239C687.669,125.307 687.669,125.374 687.669,125.442C687.601,125.442 687.532,125.442 687.464,125.442C687.464,125.51 687.464,125.577 687.464,125.645C682.817,127.838 674.532,129.096 668.998,126.863C668.998,127.81 668.998,128.758 668.998,129.704C669.589,130.69 669.2,133.379 669.2,134.778C669.2,138.837 669.2,142.897 669.2,146.955C669.099,147.957 668.199,149.578 668.593,150.81C669.339,153.157 671.717,154.847 672.447,157.102C672.718,158.725 672.989,160.349 673.26,161.972C674.708,167.385 675.211,173.606 676.506,179.426C677.394,183.41 676.891,187.793 677.724,191.603C677.791,195.256 677.86,198.91 677.926,202.562C678.67,210.273 679.414,217.987 680.158,225.698C680.295,228.066 680.429,230.434 680.563,232.802C681.241,236.59 681.917,240.379 682.593,244.167C684.871,252.286 686.373,260.857 688.478,269.13C690.154,275.704 690.517,282.473 692.131,288.816C692.73,291.164 692.547,293.175 693.146,295.513C695.149,303.323 695.825,312.026 697.814,319.867C699.376,326.019 698.319,329.415 702.482,333.263C701.94,335.63 701.398,337.998 700.857,340.366C700.836,341.574 703.411,345.592 702.887,346.455C702.465,347.109 700.542,348.985 699.639,349.093C698.943,348.609 692.354,348.299 690.913,348.687C687.458,349.619 683.366,351.85 680.767,353.761C679.57,354.64 678.547,356.197 677.317,357.007C675.954,357.904 674.005,358.134 672.851,359.24C671.793,359.035 667.76,357.506 667.373,356.805C666.501,355.8 666.319,354.258 665.748,352.949C664.478,350.032 661.208,341.226 662.096,337.322C662.096,335.293 662.096,333.262 662.096,331.234C662.377,330.126 663.456,329.655 663.72,328.798C663.839,328.407 662.733,321.215 662.503,320.274C660.399,311.716 659.865,302.873 657.632,294.297C655.94,287.262 654.248,280.224 652.557,273.19C651.95,268.049 651.34,262.907 650.732,257.766C649.788,253.791 649.979,249.022 648.905,244.98C647.897,241.177 646.831,237.05 645.659,233.209C644.981,230.165 644.305,227.12 643.629,224.076C641.581,218.013 638.283,212.049 635.107,207.029C632.957,203.631 628.537,199.423 623.539,199.722C623.539,199.857 623.539,199.993 623.539,200.128C623.387,200.346 623.418,200.32 623.337,200.737C624.814,201.588 626.746,201.711 628.409,202.563C628.972,202.851 631.987,205.114 632.47,205.607C634.277,207.455 635.833,211.45 637.135,213.928C638.82,217.134 640.724,220.958 642.008,224.481C643,227.211 642.988,229.998 643.833,232.802C644.609,235.377 645.694,238.363 645.863,241.326C643.725,243.134 642.028,249.186 640.383,251.879C638.854,254.381 636.876,256.993 635.513,259.591C632.749,264.849 630.799,270.551 628.409,276.029C627.338,278.486 624.868,282.694 625.974,287.192C627.642,293.973 629.428,300.373 631.859,306.269C632.931,308.87 633.227,311.38 634.295,313.982C636.024,318.193 637.845,322.736 638.963,327.376C639.234,330.556 639.504,333.735 639.776,336.915C642.252,347.957 639.657,365.181 637.135,374.867C636.878,375.855 636.434,377.734 636.528,378.52C636.653,379.562 637.784,381.155 637.543,382.376C637.081,384.715 635.684,387.236 635.108,389.682C634.973,389.682 634.837,389.682 634.703,389.682C633.021,388.213 627.896,386.835 625.365,386.232C625.365,386.165 625.365,386.096 625.365,386.029C626.574,384.718 630.238,377.622 630.44,375.476C629.696,374.799 628.952,374.122 628.208,373.447C625.764,371.926 622.96,371.282 620.495,369.793C619.327,369.088 617.773,367.75 616.437,367.357C614.839,366.889 612.807,368.431 611.566,368.778C606.86,370.095 602.042,370.585 597.563,371.822C595.219,372.47 593.211,372.388 590.868,373.04C583.726,375.027 575.882,376.236 568.544,377.91C566.921,377.978 565.299,378.046 563.674,378.113C559.102,379.122 553.649,378.607 549.063,379.534C548.931,379.915 548.87,380.328 548.861,380.955C549.28,381.331 549.86,382.228 549.674,382.578C548.836,384.424 548.511,385.53 545.613,385.419C544.66,384.704 542.395,384.469 541.148,384.201C540.982,381.157 540.402,377.693 539.728,374.866C538.822,371.057 538.922,367.104 538.105,363.501C537.834,355.993 537.563,348.482 537.292,340.973C536.767,338.569 537.451,335.624 536.887,333.058C535.904,328.595 536.489,323.493 535.467,318.851C535.01,316.777 534.288,313.325 534.857,310.733C535.609,307.311 535.864,303.15 535.873,299.368C535.805,299.368 535.736,299.368 535.67,299.368C535.67,299.503 535.67,299.639 535.67,299.773C534.12,300.873 533.133,303.09 532.018,304.644C530.008,307.439 527.162,309.647 525.118,312.356C524.59,313.056 524.148,314.033 523.495,314.588C517.164,319.966 510.883,325.442 504.215,330.418C501.802,332.221 499.732,334.704 497.317,336.506C494.276,338.777 491.652,341.371 488.997,344.016C488.05,344.828 487.103,345.64 486.154,346.452C485.444,347.685 485.504,349.154 484.734,350.308C483.746,351.793 482.199,353.087 481.081,354.569C479.625,356.506 477.549,358.376 475.603,359.846C473.371,362.145 471.138,364.446 468.905,366.746C467.376,368.275 464.688,369.502 464.645,372.429C463.98,373.485 464.7,375.688 464.847,376.488C464.71,377.097 464.576,377.705 464.44,378.314C463.541,378.579 462.581,379.311 462.004,379.938C458.233,379.886 453.935,377.345 451.046,376.082C449.152,375.253 446.934,374.522 445.974,372.834C445.55,372.09 445.983,371.282 445.569,370.398C444.89,369.857 444.215,369.316 443.539,368.775C443.002,367.981 442.942,367.015 442.321,366.339C443.878,361.875 445.432,357.409 446.989,352.944C447.547,352.005 448.587,351.186 449.221,350.306C449.695,349.648 450.018,348.56 450.641,348.073C452.401,346.698 454.62,346.006 456.527,344.826C459.668,342.88 462.733,340.635 465.658,338.534C466.809,337.708 468.65,336.991 469.515,335.896C473.065,331.395 476.438,326.859 479.864,322.298C481.267,320.429 483.671,318.641 485.547,317.224C488.132,315.271 490.87,311.743 492.853,309.106C493.508,308.233 494.632,307.544 495.288,306.67C498.456,302.446 500.76,297.632 503.811,293.275C507.186,288.461 510.732,283.746 514.162,278.866C515.057,277.591 516.41,276.354 517.205,275.01C517.689,274.194 517.48,273.169 517.814,272.169C518.235,270.91 519,269.545 519.639,268.313C520.53,266.602 521.815,264.915 522.684,263.239C523.419,261.821 523.592,260.371 524.307,258.978C524.914,257.798 525.961,256.448 526.337,255.122C526.608,251.943 526.879,248.763 527.15,245.583C529.064,238.103 530.557,229.97 532.831,223.056C533.382,221.389 533.837,219.66 534.253,218.186C534.629,216.848 534.174,215.29 534.86,214.33C534.926,216.3 535.614,218.159 536.078,219.809C537.091,223.412 537.282,227.31 538.108,230.769C538.243,236.18 538.379,241.593 538.513,247.004C538.98,249.155 538.406,251.722 538.918,254.108C540.02,259.235 538.658,269.941 537.498,274.606C536.862,277.162 537.09,279.785 536.28,282.115C532.004,280.191 528.13,277.256 524.104,275.011C523.425,274.633 520.565,272.885 520.249,273.185C518.672,274.499 517.818,277.201 516.596,278.868C515.638,280.173 514.286,281.393 513.349,282.724C509.949,287.548 506.991,292.502 503.811,297.538C500.501,302.783 496.724,307.692 493.055,312.557C492.176,313.368 491.296,314.181 490.417,314.993C487.745,317.664 484.791,320.285 482.502,323.313C481.76,323.99 481.016,324.666 480.272,325.343C478.296,327.954 475.888,330.251 473.979,332.852C472.172,335.314 470.738,337.946 468.298,339.752C465.233,342.02 461.611,343.302 458.353,345.435C456.726,346.499 455.11,348.023 453.483,349.088C452.695,349.604 451.521,349.67 450.845,350.306C448.534,352.474 444.374,362.189 444.352,366.744C445.281,367.428 447.354,369.491 447.395,371.006C447.087,371.474 447.267,372.033 447.597,372.427C449.659,374.534 458.223,377.895 462.21,378.109C462.722,377.385 463.014,377.451 463.021,376.08C461.767,374.279 462.832,371.545 463.021,369.585C465.702,367.807 467.37,364.613 469.921,362.685C473.65,359.867 478.093,355.663 480.879,351.929C481.614,350.944 482.752,349.886 483.315,348.885C484.405,346.942 484.662,344.891 486.36,343.608C488.485,342 489.963,339.69 492.041,338.129C496.237,334.977 500.22,331.743 504.421,328.59C505.748,327.592 506.749,325.938 508.074,324.937C512.097,321.897 515.434,318.001 519.437,314.993C524.706,311.033 528.409,306.206 532.222,300.786C533.171,299.439 535.982,296.719 536.485,295.307C536.959,290.91 537.432,286.512 537.906,282.115C538.791,278.252 539.266,273.867 540.138,269.938C540.203,268.18 540.272,266.42 540.34,264.662C541.021,261.483 541.246,257.17 540.543,253.906C540.026,251.51 540.6,248.945 540.138,246.802C540.001,241.323 539.867,235.843 539.731,230.364C538.495,225.039 538.065,219.198 536.485,213.925C535.472,210.549 532.576,205.429 533.643,200.53C534.155,198.182 534.326,195.982 535.265,194.036C535.98,192.562 537.261,191.317 538.108,189.977C540.122,186.785 541.777,183.631 543.791,180.438C544.901,178.675 548.358,174.851 548.052,172.726C547.697,172.598 547.857,172.686 547.647,172.522C547.29,172.65 547.449,172.561 547.24,172.726C545.822,173.291 545.203,175.558 544.4,176.785C542.163,180.2 539.577,183.64 537.702,187.339C537.636,187.339 537.567,187.339 537.5,187.339C537.5,187.001 537.5,186.662 537.5,186.324C538.025,185.504 537.957,184.244 538.312,183.28C538.941,181.574 539.837,179.544 540.342,177.801C540.679,175.23 541.018,172.659 541.358,170.089C543.333,161.839 543.957,153.403 548.053,147.358C548.616,146.53 551.58,143.859 552.518,143.503C553.736,143.299 554.954,143.097 556.171,142.894C557.773,142.352 559.614,141.398 561.243,140.864C564.614,139.76 567.613,139.685 568.752,136.4C569.903,133.084 568.299,130.733 567.534,128.891C566.719,126.918 565.606,120.52 566.316,117.526C567.113,114.174 568.389,110.666 569.361,107.379C569.932,105.445 569.539,102.866 569.968,100.884C569.968,99.329 569.968,97.773 569.968,96.217C569.968,91.868 569.677,86.664 570.578,83.228C570.578,82.079 570.578,80.929 570.578,79.778C571.021,78.134 571.852,74.631 572.608,73.082C572.87,72.54 573.629,71.841 573.825,71.255C574.24,70.007 573.859,68.942 574.23,67.805C574.827,65.974 575.969,64.244 576.666,62.528C578.726,57.443 579.531,52.367 581.941,47.713C584.579,42.623 587.738,37.952 591.074,33.506C592.171,32.045 593.842,30.949 595.335,29.853C596.192,29.225 596.655,28.017 597.567,27.418C599.146,26.382 601.515,26.05 603.042,24.984ZM620.29,66.588C620.358,66.115 620.427,65.642 620.493,65.168C621.053,64.727 621.403,64.041 622.118,63.747C623.379,63.228 629.526,63.314 630.844,63.747C632.016,64.132 633.177,64.839 634.496,65.168C634.496,64.965 634.496,64.762 634.496,64.559C632.484,61.953 632.096,57.996 631.251,54.209C630.736,51.914 631.429,49.956 630.438,48.323C629.73,47.157 628.374,47.009 627.19,46.293C623.793,44.238 621.167,42.029 615.625,42.031C614.812,42.031 614,42.031 613.187,42.031C611.786,42.427 610.534,43.588 609.129,44.06C606.846,44.829 602.576,45.695 601.823,47.713C600.71,49.378 600.626,52.436 599.793,54.41C598.936,56.45 597.374,58.439 596.953,60.905C597.087,60.905 597.224,60.905 597.358,60.905C599.642,59.335 605.985,62.298 608.723,62.935C609.238,63.749 609.85,64.289 610.143,65.37C609.872,65.37 609.602,65.37 609.33,65.37C607.448,63.719 599.485,62.498 596.14,62.326C594.669,65.316 590.942,65.991 589.849,69.429C589.117,71.736 590.086,75.3 590.459,76.938C590.459,79.17 590.459,81.403 590.459,83.635C590.459,92.81 590.136,101.696 592.895,107.989C594.033,110.59 595.999,112.461 598.17,114.078C600.254,115.631 601.756,117.908 604.055,119.355C607.344,121.426 611.206,122.502 614.404,124.631C617.133,126.448 619.242,129.523 622.117,131.126C623.571,131.938 625.235,132.819 626.785,133.358C627.529,133.618 627.911,133.383 628.407,133.763C628.27,133.763 628.136,133.763 628.002,133.763C626.068,135.045 622.552,133.217 621.305,132.343C619.323,130.953 617.554,129.067 615.624,127.675C612.641,125.526 607.727,123.015 604.056,121.79C604.056,121.857 604.056,121.925 604.056,121.993C606.03,123.346 608.064,126.33 609.536,128.284C611.267,130.588 613.439,132.632 615.217,134.982C615.758,135.698 616.717,136.063 617.247,136.809C616.842,136.809 616.434,136.809 616.029,136.809C615.468,136.4 614.909,136.546 614.201,136.2C613.143,135.681 610.644,133.259 609.738,132.344C609.16,131.76 608.865,130.93 608.316,130.314C607.064,128.908 605.259,127.887 604.055,126.459C603.14,125.375 602.396,124.009 601.212,123.211C601.212,123.414 601.212,123.617 601.212,123.82C602.137,124.784 603.129,126.166 603.853,127.269C603.716,127.269 603.582,127.269 603.446,127.269C602.433,126.558 601.185,126.339 600.198,125.646C597.704,123.894 595.489,121.632 592.895,119.963C592.895,120.165 592.895,120.369 592.895,120.571C593.833,121.524 593.996,123.037 594.72,124.224C595.634,125.727 597.021,126.877 597.967,128.283C597.696,128.283 597.425,128.283 597.154,128.283C596.164,127.323 594.701,126.793 593.907,125.645C592.587,123.737 591.776,120.383 589.444,119.557C589.444,119.692 589.444,119.827 589.444,119.963C588.709,121.175 589.593,123.659 589.239,125.239C588.804,127.19 588.23,128.937 587.211,130.312C585.263,132.939 581.14,133.846 578.483,135.792C577.506,136.508 576.979,137.842 576.253,138.836C575.502,139.863 574.166,140.643 573.41,141.677C570.82,145.231 568.627,149.186 567.12,153.854C571.638,155.212 576.058,157.728 580.716,158.927C583.536,159.653 587.218,158.73 589.849,158.724C597.018,158.521 604.19,158.318 611.361,158.115C613.664,154.625 617.174,153.289 620.492,150.808C623.607,148.48 626.325,145.461 629.22,142.893C630.103,142.109 631.161,141.632 632.061,140.863C632.66,140.353 632.848,139.317 633.481,138.834C635.563,137.247 638.265,135.679 639.366,133.152C632.967,131.528 628.177,125.536 626.583,118.945C626.649,117.254 626.718,115.563 626.786,113.871C626.786,111.436 626.786,109 626.786,106.565C627.878,102.69 632.161,101.108 633.683,97.635C634.6,95.546 634.942,92.89 635.511,90.735C635.752,89.824 635.486,88.951 635.916,88.3C637.668,86.954 639.122,86.524 639.163,83.429C638.205,82.298 637.517,81.514 637.54,79.37C638.144,78.628 639.165,75.576 638.758,74.702C638.228,73.071 636.276,71.073 635.511,69.02C635.11,67.943 635.349,66.817 634.293,66.382C633.228,65.536 625.479,64.969 623.132,65.569C622.086,65.841 621.563,66.452 620.29,66.588ZM608.522,70.038C607.125,69.914 603.606,70.185 602.636,69.43C602.404,69.087 602.42,68.436 602.431,67.806C599.133,67.826 598.365,70.213 595.128,69.632C595.128,69.497 595.128,69.362 595.128,69.227C596.916,68.002 598.688,66.278 601.011,65.574C601.755,65.574 602.499,65.574 603.243,65.574C606.665,65.573 608.502,66.727 608.522,70.038ZM623.538,67.603C627.871,67.457 630.518,68.446 632.264,70.851C632.608,71.323 633.595,71.964 633.279,72.475C632.062,73.315 627.096,71.924 626.584,71.257C626.35,70.901 626.261,69.884 626.177,69.431C625.635,69.243 624.771,69.218 623.945,69.228C623.256,69.708 621.054,70.604 620.292,70.852C620.292,70.649 620.292,70.446 620.292,70.243C620.782,69.679 621.096,68.835 621.715,68.417C622.284,68.027 623.023,68.015 623.538,67.603ZM610.145,88.507C612.143,88.46 612.526,89.088 613.595,89.319C614.781,89.575 615.161,87.969 616.843,88.507C618.288,88.97 619.758,90.256 621.103,90.942C621.871,91.334 623.489,91.237 623.944,91.957C623.689,92.233 623.669,92.316 623.539,92.769C622.367,93.364 620.81,93.849 619.684,94.596C618.649,95.281 617.809,96.451 616.437,96.828L609.741,96.828C608.772,96.554 608.223,95.703 607.509,95.205C606.189,94.285 604.368,93.885 603.246,92.769C602.905,92.429 602.784,91.887 602.433,91.552C602.433,91.417 602.433,91.281 602.433,91.146C604.854,91.219 608.899,89.553 610.145,88.507ZM593.706,100.074C593.87,100.282 593.779,100.13 593.909,100.48C593.841,100.48 593.774,100.48 593.706,100.48C593.706,100.345 593.706,100.21 593.706,100.074ZM593.909,100.48C595.097,101.27 595.649,102.692 596.749,103.524C598.522,104.862 600.591,106.649 602.637,107.583C605.2,108.754 607.901,108.507 610.955,109.207C612.78,109.624 616.296,110.465 618.668,109.816C620.757,109.243 622.512,107.726 624.553,107.177C624.553,107.245 624.553,107.313 624.553,107.38C623.008,108.622 622.43,110.254 620.29,111.033C617.266,112.136 613.146,111.518 610.348,110.83C607.901,110.229 605.846,110.351 603.65,109.612C600.283,108.479 594.471,104.357 593.909,100.48ZM566.512,156.089C566.447,157.577 566.378,159.065 566.31,160.554C568.939,160.625 571.747,160.263 574.023,159.742C574.979,159.523 575.591,160.041 576.053,159.336C572.627,158.937 569.88,156.668 566.512,156.089ZM565.497,163.801C565.574,164.222 565.547,164.191 565.702,164.409C569.421,165.965 573.143,167.521 576.862,169.077C584.099,168.604 591.339,168.13 598.576,167.657C598.954,167.096 599.498,166.864 599.794,166.236C599.657,166.236 599.523,166.236 599.389,166.236C597.495,164.928 594.426,164.963 592.084,164.207C589.58,163.398 586.872,162.851 584.168,161.974C583.395,161.723 582.156,161.079 581.328,160.959C576.053,161.907 570.774,162.854 565.497,163.801ZM587.213,160.959C588.053,161.585 589.293,161.422 590.461,161.771C593.131,162.572 596.31,163.252 598.982,164.004C599.936,164.271 602.408,164.873 602.839,164.612C604.462,163.462 606.087,162.313 607.71,161.162C607.71,161.095 607.71,161.027 607.71,160.959C600.878,160.959 594.045,160.959 587.213,160.959ZM564.687,166.439C564.348,167.589 564.011,168.739 563.672,169.889C564.553,169.889 565.431,169.889 566.31,169.889C567.617,169.105 570.35,170.067 571.587,169.28C569.286,168.333 566.987,167.386 564.687,166.439ZM591.881,169.686C589.992,170.822 584.826,169.294 582.95,170.498C586.506,170.508 589.272,171.647 592.896,171.716C593.417,170.968 594.496,170.31 595.329,169.889C595.329,169.821 595.329,169.754 595.329,169.686C594.18,169.686 593.03,169.686 591.881,169.686ZM575.442,171.31C574.999,171.577 574.297,171.358 573.617,171.513C571.469,172.001 564.407,172.022 563.064,172.934C565.747,173.364 567.893,175.302 570.37,175.978C572.11,176.453 575.008,175.884 576.458,175.572C579.974,175.369 583.494,175.166 587.011,174.963C587.962,174.579 588.675,173.661 589.851,173.339C589.851,173.271 589.851,173.204 589.851,173.136C585.16,172.278 580.652,171.368 575.442,171.31ZM562.049,175.166C561.799,175.981 561.303,176.387 561.034,177.196C561.305,177.196 561.576,177.196 561.847,177.196C562.858,176.588 564.779,177.043 565.702,176.384C564.375,176.056 563.563,175.321 562.049,175.166ZM583.966,176.79C582.427,177.74 578.593,176.633 576.862,177.196C576.862,177.263 576.862,177.331 576.862,177.399C578.752,177.448 580.167,178.16 581.935,178.414C582.586,177.775 583.606,177.517 584.167,176.79C584.103,176.79 584.034,176.79 583.966,176.79ZM559.816,179.834C559.751,180.375 559.679,180.916 559.614,181.457C560.94,182.143 563.601,184.395 564.686,184.704C565.731,185.002 567.365,184.108 568.136,183.893C570.699,183.179 574.463,182.217 577.065,182.066C577.447,181.466 578.126,180.665 578.69,180.239C578.483,180.076 578.632,180.167 578.285,180.036C577.433,179.429 576.162,179.579 575.037,179.224C573.932,178.875 572.351,178.282 571.18,178.006C569.813,177.685 568.287,178.373 567.325,178.615C564.794,179.251 562.286,179.523 559.816,179.834ZM559.209,183.689C558.938,184.568 558.667,185.448 558.396,186.328C558.667,186.328 558.938,186.328 559.209,186.328C560.176,185.715 561.977,186.001 562.859,185.313C561.474,184.97 560.581,184.077 559.209,183.689ZM574.835,184.298C573.697,185.077 570.263,185.59 568.745,185.923C568.745,185.99 568.745,186.059 568.745,186.126C570.449,186.331 571.605,187.168 573.412,187.344C574.022,186.383 575.044,185.619 575.442,184.503C575.51,184.503 575.577,184.503 575.645,184.503C575.645,184.435 575.645,184.367 575.645,184.299C575.377,184.298 575.104,184.298 574.835,184.298ZM570.774,189.169C568.728,188.857 567.106,187.526 565.296,187.14C564.495,186.969 558.514,188.959 557.988,189.372C557.826,189.611 557.833,189.713 557.785,190.184C559.716,191.166 560.987,193.306 563.063,194.04C564.433,192.845 566.786,192.582 568.541,191.807C569.579,191.349 569.961,190.418 570.773,189.778C570.774,189.575 570.774,189.373 570.774,189.169ZM557.179,192.62C557.111,193.905 557.042,195.191 556.977,196.476C557.042,196.476 557.111,196.476 557.179,196.476C558.103,195.769 559.596,195.653 560.427,194.852C559.343,194.107 558.26,193.363 557.179,192.62ZM568.137,194.446C567.448,194.972 566.137,195.124 565.297,195.461C565.362,195.597 565.431,195.732 565.497,195.866C565.961,196.086 566.385,196.33 566.717,196.679C566.852,196.679 566.988,196.679 567.122,196.679C567.413,195.809 568.032,195.513 568.34,194.65C568.408,194.65 568.477,194.65 568.542,194.65C568.542,194.582 568.542,194.514 568.542,194.447C568.408,194.446 568.271,194.446 568.137,194.446ZM562.252,196.679C560.945,197.827 557.225,198.049 556.977,200.129C558.344,201.02 560.14,202.823 561.035,204.188C561.103,204.188 561.169,204.188 561.237,204.188C561.237,204.12 561.237,204.052 561.237,203.985C562.99,202.836 564.307,200.804 564.89,198.505C564.011,197.896 563.13,197.288 562.252,196.679ZM527.347,256.751C527.119,257.175 527.056,257.123 526.942,257.766C527.104,257.974 527.013,257.822 527.145,258.172C529.646,258.5 530.171,260.68 531.813,261.825C532.867,262.561 533.633,262.816 534.855,263.448C535.481,263.772 535.963,264.528 536.683,264.261C537.364,263.993 537.27,263.948 537.29,263.043C534.231,261.565 531.12,259.353 529.172,256.751C528.564,256.751 527.954,256.751 527.347,256.751ZM665.142,331.031C665.019,331.381 664.959,331.671 664.937,332.249C671.164,335.54 681.421,337.346 689.901,334.685C692.431,333.89 695.113,334.171 697.409,333.265C697.53,332.915 697.589,332.625 697.612,332.047C697.229,331.915 696.817,331.854 696.189,331.844C694.716,332.785 691.391,332.471 689.494,333.062C685.552,334.288 678.01,335.015 673.26,333.67C670.526,332.897 668.366,331.078 665.142,331.031ZM470.523,352.747C470.523,352.95 470.523,353.153 470.523,353.356C468.586,353.891 463.994,356.192 463.015,357.617C461.144,360.344 460.616,364.053 458.754,366.75C457.767,368.177 454.653,369.784 452.666,368.374C452.059,368.187 451.583,367.812 451.244,367.359C449.917,365.744 451.114,362.522 451.651,360.865C452.342,358.728 452.539,356.988 453.678,355.386C455.621,352.657 458.697,350.446 459.769,346.863C459.834,346.863 459.903,346.863 459.971,346.863C459.971,347.134 459.971,347.404 459.971,347.674C459.265,348.709 459.559,350.346 458.956,351.53C458.389,352.637 457.049,353.581 456.317,354.574C454.283,357.339 452.242,361.254 452.055,365.736C452.608,366.083 452.562,366.251 453.475,366.345C454.601,367.141 455.901,366.436 456.925,366.142C457.387,364.756 458.798,363.933 459.36,362.692C459.7,361.407 460.036,360.121 460.376,358.836C462.13,355.439 465.669,353.043 470.523,352.747ZM699.031,350.514C699.047,354.105 700.205,353.391 700.856,355.385C701.279,356.673 700.466,358.933 700.249,360.053C698.96,360.485 697.711,361.644 696.394,362.285C696.257,365.262 696.123,368.239 695.989,371.215C697.086,376.628 697.605,382.246 699.032,387.654C699.559,389.65 701.968,396.453 701.467,398.411C701.015,400.183 699.902,401.867 699.235,403.485C697.624,407.403 696.165,411.694 695.177,415.865C691.613,417.884 688.017,419.288 683.812,420.735C682.781,421.089 681.024,422.364 679.348,421.953C678.872,421.682 678.402,421.412 677.926,421.141C677.823,420.098 677.901,419.372 678.131,418.299C678.725,418.178 679.027,418.076 679.348,417.691C678.754,417.318 678.759,417.135 677.724,417.082C677.084,416.679 674.187,416.331 673.26,416.271C672.992,415.883 672.584,415.385 672.243,415.053C672.689,413.882 674.171,410.564 675.288,410.181C675.898,409.83 676.92,410.185 677.318,409.573C677.937,408.567 677.52,405.727 677.52,404.297C677.52,400.085 677.679,396.109 677.52,391.917C677.479,390.848 677.118,389.808 676.913,388.872C676.501,387.006 677.1,380.118 677.52,378.521C678.808,373.64 681.375,372.12 681.375,365.33C681.375,364.18 681.375,363.03 681.375,361.88C680.99,360.25 680.101,358.623 679.347,357.212C683.23,354.713 686.355,351.667 691.523,350.313C693.726,349.734 697.081,350.389 699.031,350.514ZM695.783,353.762C694.693,354.414 693.134,354.281 691.928,354.776C690.563,355.338 688.984,356.301 687.668,356.806C686.38,357.297 685.699,356.68 685.435,358.226C685.977,358.519 686.291,358.63 687.261,358.632C689.206,357.276 694.632,355.444 697.814,355.385C698.062,354.922 698.146,354.928 698.219,354.167C697.978,353.991 697.991,354 697.814,353.762C697.138,353.762 696.459,353.762 695.783,353.762ZM694.565,362.691C690.846,362.488 687.126,362.285 683.405,362.082C683.405,364.247 683.405,366.412 683.405,368.577C682.536,369.729 682.565,371.618 681.985,373.042C681.04,375.357 680.186,378.281 679.549,380.958C679.549,381.836 679.549,382.716 679.549,383.596C679.323,384.627 678.884,386.633 679.142,387.859C679.686,390.429 679.751,393.466 679.751,396.382C679.549,401.117 679.346,405.854 679.142,410.588C679.979,410.854 680.145,411.159 681.374,411.198C681.695,410.782 682.277,410.76 682.592,410.385C683.245,409.608 684.123,407.66 684.419,406.732C685.366,403.747 683.439,396.201 685.839,394.961C686.078,394.798 686.181,394.804 686.652,394.757C687.87,396.003 689.717,396.749 690.305,398.613C690.305,399.426 690.305,400.236 690.305,401.048C690.307,405.807 687.895,407.146 685.027,408.964C684.635,409.213 684.659,409.747 684.42,410.181C683.46,411.913 682.365,412.662 679.55,412.617C678.575,411.604 677.347,411.199 675.492,411.602C675.051,412.83 674.538,413.577 674.474,415.053C677.719,415.912 681.181,417.035 684.217,415.458C685.678,414.697 687.931,412.219 689.492,412.008C689.72,412.431 689.783,412.38 689.899,413.023C689.348,413.393 689.182,414.069 688.679,414.443C687.191,415.55 685.092,416.778 683.404,417.487C681.704,418.202 680.281,418.067 680.156,420.33C680.507,420.452 680.796,420.51 681.374,420.532C682.234,419.683 683.099,419.802 684.419,419.315C686.242,418.641 692.773,415.842 693.755,414.647C694.995,413.13 695.361,408.768 696.188,406.731C697.255,404.104 699.106,401.232 699.843,398.411C700.159,397.194 699.477,395.577 699.233,394.757C698.405,391.965 697.991,389.058 697.206,386.437C695.078,379.337 694.647,372.071 694.565,362.691ZM547.843,386.436C548.248,386.436 548.656,386.436 549.061,386.436C549.997,384.975 551.451,384.082 551.497,381.768C551.167,381.513 551.09,381.341 550.887,380.957C551.16,380.957 551.429,380.957 551.7,380.957C552.971,380.209 555.15,380.911 556.773,380.551C560.473,379.728 564.905,380.43 568.747,379.536C576.794,377.663 585.276,376.43 593.101,374.259C596.63,373.28 599.938,373.213 603.45,372.23C606.392,371.407 609.67,371.152 612.785,370.201C613.705,369.92 615.232,368.877 616.033,369.186C617.152,369.466 618.006,370.281 618.873,370.81C620.929,372.065 623.309,372.982 625.366,374.057C626.623,374.713 628.238,374.986 628.616,376.493C627.802,377.414 627.651,378.856 626.991,379.943C625.657,382.137 624.74,384.748 623.339,387.046C623.036,387.543 622.371,388.128 622.121,388.67C621.254,390.546 620.806,392.477 619.685,394.149C619.355,394.642 618.614,395.077 618.265,395.57C614.615,400.737 611.426,406.177 608.117,411.603C607.039,413.373 606.54,415.34 605.682,417.286C603.898,421.341 601.618,425.581 599.594,429.463C598.449,431.659 597.825,433.859 596.551,435.957C593.861,440.38 591.394,444.986 588.636,449.352C587.131,451.733 585.056,453.844 583.563,456.253C582.826,457.441 582.709,458.93 581.938,460.108C581.367,460.984 580.311,461.686 579.708,462.545C577.73,465.344 576.271,468.356 574.431,471.271C570.978,476.738 566.727,482.935 564.285,489.333C562.546,493.89 562.072,499.271 560.834,504.148C560.632,505.637 560.43,507.126 560.225,508.614C559.212,512.064 558.198,515.514 557.182,518.965C556.335,521.991 556.415,524.846 555.557,527.893C554.319,532.306 553.279,537.036 551.905,541.289C550.778,544.783 550.559,548.083 549.267,551.437C548.648,553.043 547.428,554.773 546.629,556.307C545.022,559.391 543.975,562.68 542.163,565.643C541.059,567.455 539.642,569.331 538.511,571.123C535.282,576.236 532.603,581.441 529.378,586.546C525.827,592.172 521.566,597.564 518.015,603.19C514.086,609.41 510.857,616.026 507.056,622.266C505.591,624.674 504.774,628.063 502.796,629.979C502.796,629.911 502.796,629.842 502.796,629.774C500.855,628.662 499.698,626.541 497.923,625.311C497.093,624.736 496.166,624.628 495.285,624.093C493.735,623.149 492.031,621.888 490.415,621.048C488.003,619.796 484.873,618.634 482.297,617.801C480.552,617.237 478.234,617.362 476.819,616.38C476.585,616.142 476.446,615.805 476.209,615.567C476.96,612.297 479.175,609.163 480.472,606.232C483.132,600.214 485.811,594.263 488.385,588.374C492.27,579.486 494.526,570.138 498.33,561.177C502.356,551.697 507.461,542.195 511.114,532.361C512.24,529.332 512.82,526.13 513.752,523.228C513.82,522.549 513.889,521.874 513.956,521.198C514.931,518.829 515.941,515.82 516.594,513.08C516.594,511.118 516.594,509.156 516.594,507.195C516.931,500.767 517.271,494.341 517.61,487.914C518.036,486.423 519.042,484.659 519.637,483.246C521.112,479.773 522.339,476.25 523.698,472.895C524.897,469.934 524.757,466.693 525.728,463.56C527.023,459.373 529.11,455.163 530.393,450.978C532.319,444.711 533.024,438.18 534.858,432.103C535.129,430.682 535.4,429.262 535.671,427.84C537.328,422.816 539.299,417.439 540.946,412.417C542.333,408.195 542.612,404.063 543.992,399.834C544.29,398.917 544.931,397.883 545.209,396.993C545.849,394.933 545.79,393.206 546.427,391.107C546.871,389.623 547.677,388.217 547.843,386.436ZM619.275,396.989C619.412,396.989 619.546,396.989 619.682,396.989C619.967,399.431 621.796,401.528 622.523,403.685C622.455,403.889 622.388,404.092 622.32,404.295C623.594,408.158 625.04,412.357 626.583,416.066C626.988,417.486 627.394,418.908 627.801,420.329C630.111,426.54 631.533,433.185 634.091,439.406C635.127,441.925 635.796,444.898 636.932,447.524C638.657,451.503 640.705,455.712 642.412,459.7C647.05,470.55 650.585,481.97 654.791,493.187C655.681,495.556 655.453,498.372 656.416,500.898C657.606,504.032 659.579,507.446 661.286,510.233C662.927,512.923 663.71,515.869 665.344,518.556C666.485,520.434 667.913,522.598 668.794,524.644C670.617,528.881 671.491,533.128 673.259,537.43C675.419,542.689 677.515,548.458 679.347,553.868C681.377,559.862 682.489,565.834 684.218,572.336C684.989,575.238 685.128,578.183 685.84,580.859C685.977,581.942 686.111,583.026 686.245,584.107C688.389,590.313 690.761,596.861 693.349,602.778C694.598,605.632 697.313,609.533 697.814,612.723C695.891,613.929 694.08,616.137 691.928,616.984C687.22,618.843 682.477,619.442 677.52,621.044C674.42,622.046 670.165,623.616 666.155,622.872C658.754,603.172 648.639,586.711 640.383,567.871C636.628,559.305 633.469,550.579 629.829,541.692C629.06,539.812 629.095,538.296 628.409,536.212C627.456,533.303 625.569,530.27 624.351,527.483C623.698,525.991 623.543,524.422 622.726,523.02C621.732,521.309 619.56,520.219 618.465,518.555C616.133,515.009 615.02,510.785 612.782,507.19C611.663,505.389 610.04,503.703 608.927,501.912C607.269,499.24 606.354,496.106 605.073,493.186C601.738,485.596 597.383,478.259 593.099,471.47C591.033,468.198 588.923,464.884 586.806,461.525C586,460.244 584.553,458.968 584.574,457.466C587.342,455.227 590.058,449.713 592.085,446.506C596.1,440.152 600.31,433.121 603.448,426.009C604.839,422.86 606.388,419.875 607.711,416.877C608.327,415.478 608.557,414.107 609.333,412.816C611.307,409.541 613.223,406.01 615.421,402.872C616.645,401.129 618.641,399.205 619.275,396.989ZM696.394,615.768C696.976,615.996 696.767,615.804 697.001,616.377C698.06,617.564 698.291,619.557 699.031,621.045C700.817,624.641 704.047,627.795 702.683,633.426C701.828,633.961 700.576,634.733 699.843,635.453C697.558,635.519 693.725,635.037 693.145,633.426C692.885,632.707 693.036,631.344 692.943,630.786C686.925,627.033 681.352,627.938 672.649,628.148C672.062,626.864 671.217,625.717 670.824,624.293C673.482,624.302 675.849,623.349 677.925,622.668C679.577,622.129 680.954,622.192 682.593,621.652C684.846,620.915 687.311,620.018 689.493,619.217C692.256,618.207 694.805,617.861 696.394,615.768ZM476.611,618.202C478.04,618.273 479.162,618.853 480.266,619.218C481.378,619.586 482.235,619.413 483.309,619.827C487.517,621.45 493.145,624.079 496.702,626.525C498.334,627.645 499.479,629.463 501.168,630.583C501.168,630.651 501.168,630.72 501.168,630.786C501.1,630.786 501.033,630.786 500.965,630.786C500.244,631.874 499.156,632.438 498.123,633.221C497.353,633.809 496.89,634.873 496.298,635.659C495.403,636.845 493.91,637.475 492.848,638.5C487.922,638.625 481.716,635.616 479.251,633.222C479.591,631.525 479.386,629.055 479.251,627.337C478.048,626.429 477.226,624.792 475.801,624.091C474.863,623.629 473.894,624.123 473.366,623.278C474.624,622.017 475.794,619.818 476.611,618.202ZM498.936,662.853C490.683,663.192 482.429,663.529 474.179,663.868C471.807,663.106 470.294,660.955 468.495,659.605C463.618,655.946 457.307,649.086 449.622,648.647C449.653,641.688 452.71,637.648 455.71,633.628C456.757,632.225 458.775,630.922 459.565,629.365C460.79,626.953 459.572,623.015 462.812,622.668C466.281,624.957 475.983,623.972 477.423,627.945C478.641,629.592 477.011,633.093 478.033,634.643C479.241,636.475 486.952,639.47 489.598,640.121C490.816,640.121 492.034,640.121 493.253,640.121C496.072,639.22 497.177,636.183 499.341,634.643C499.341,635.25 499.341,635.861 499.341,636.47C498.982,637.036 499.193,638.237 498.934,638.903C498.585,639.802 497.788,641.045 497.513,641.949C497.513,643.437 497.513,644.926 497.513,646.414C496.792,651.221 498.303,655.328 499.136,659.2C499.071,660.417 499.003,661.635 498.936,662.853ZM672.852,659.808C672.898,657.013 673.538,654.576 674.273,652.097C674.482,651.394 675.167,650.094 675.086,649.254C674.701,645.29 673.779,640.745 672.447,637.483C671.887,636.116 670.645,634.086 670.418,632.613C670.62,631.732 670.825,630.854 671.027,629.975C676.066,629.406 683.658,628.468 688.276,630.177C688.43,630.235 691.523,631.8 691.523,631.8C691.523,632.274 691.523,632.749 691.523,633.22C691.622,634.322 692.256,635.161 692.944,635.658C695.839,637.741 700.941,637.233 703.295,635.251C703.884,634.755 704.157,633.768 704.715,633.221C704.647,631.396 704.578,629.569 704.513,627.743C704.074,626.268 703.068,625.297 702.888,623.48C703.37,623.268 703.951,623.018 704.308,622.667C704.665,622.797 704.506,622.708 704.715,622.872C706.09,623.871 708.015,626.665 708.57,628.35C708.57,629.975 708.57,631.598 708.57,633.22C710.072,638.682 713.201,643.25 715.876,647.631C716.466,648.596 718.154,653.043 717.704,654.126C716.577,655.248 714.998,655.862 713.642,656.764C708.779,660 703.023,663.242 696.596,664.882C695.115,665.26 691.917,663.803 690.711,663.462C686.989,662.92 683.271,662.378 679.55,661.837C677.326,661.264 674.738,660.11 672.852,659.808ZM498.732,664.476C498.798,667.798 497.769,673.624 496.297,675.436C496.078,675.588 496.106,675.557 495.687,675.639C494.597,674.792 492.829,674.731 491.426,674.218C488.281,673.065 483.778,670.572 479.048,671.986C476.096,672.867 473.155,674.783 470.32,675.639C469.255,675.961 468.341,675.34 467.479,675.234C466.186,673.306 464.051,671.758 462.204,670.364C456.152,665.796 453.633,662.091 442.721,662.041C442.721,661.975 442.721,661.907 442.721,661.839C445.436,659.14 448.035,654.737 449.014,650.271C449.418,650.271 449.824,650.271 450.231,650.271C452.271,651.793 455.983,651.999 458.145,653.518C461.624,655.962 464.704,658.887 468.087,661.434C469.86,662.767 471.408,664.727 473.771,665.492C476.072,665.426 478.373,665.357 480.671,665.29C486.691,665.017 492.713,664.746 498.732,664.476ZM718.92,667.926C716.576,668.062 714.083,668.963 712.02,669.551C710.26,669.753 708.501,669.955 706.745,670.158C704.737,670.699 702.473,671.53 700.452,672.39C697.689,673.567 695.891,675.401 692.132,675.84C691.315,675.936 689.975,675.239 689.291,675.029C686.779,674.26 684.145,674.037 681.581,673.404C678.658,672.683 673.222,672.786 671.23,671.375C671.066,671.136 671.073,671.033 671.027,670.562C671.501,667.519 671.974,664.474 672.447,661.431C672.65,661.431 672.852,661.431 673.055,661.431C675.54,663.754 682.602,663.552 686.653,664.474C688.556,664.909 695.165,666.905 696.799,666.503C702.925,665.004 708.617,662.074 713.237,658.995C714.771,657.971 716.997,657.183 718.107,655.748C718.173,655.748 718.244,655.748 718.31,655.748C718.31,655.884 718.31,656.019 718.31,656.155C719.523,657.861 718.94,664.967 718.92,667.926ZM441.504,663.665C451.275,663.556 455.416,666.924 460.783,670.971C463.58,673.08 465.111,676.792 469.307,677.466C470.536,677.661 471.751,676.59 472.553,676.248C475.025,675.192 477.68,674.038 480.266,673.405C484.283,672.425 489.553,675.258 492.239,676.248C493.455,676.696 495.305,676.585 495.687,677.871C494.645,679.268 494.52,681.387 493.862,683.148C492.555,686.644 491.317,690.406 490.007,693.904C489.689,694.756 489.632,696.082 489.6,696.136C488.815,697.595 488.367,698.052 485.948,697.961C484.837,697.29 482.009,697.845 480.469,697.759C478.368,697.643 475.274,697.424 473.163,697.354C471.404,697.354 469.644,697.354 467.886,697.354C465.31,696.79 461.739,696.949 458.958,696.949C457.874,696.949 456.793,696.949 455.71,696.949C452.228,696.182 446.251,696.542 442.316,696.542C440.896,696.542 439.476,696.542 438.053,696.542C433.547,695.541 428.631,695.365 424.254,694.31C420.971,693.518 414.286,693.662 412.078,692.078C411.915,691.871 412.006,692.023 411.876,691.673C409.279,687.982 414.291,682.159 416.746,681.119C418.098,681.119 419.452,681.119 420.804,681.119C422.602,679.722 425.535,679.69 427.502,678.481C431.629,675.941 439.988,668.395 441.504,663.665ZM717.703,669.753C718.039,669.753 718.379,669.753 718.716,669.753C718.716,669.821 718.716,669.887 718.716,669.955C717.942,671.217 718.304,673.222 717.905,674.826C717.127,677.964 716.842,681.658 716.078,684.771C715.772,686.011 716.087,687.5 715.47,688.423C714.444,691.165 710.504,691.632 707.959,692.889C703.06,695.31 696.876,696.312 692.131,698.774C688.546,700.636 686.05,703.926 682.188,705.472C679.347,705.472 676.505,705.472 673.665,705.472C665.936,705.474 656.838,705.782 651.139,703.442C650.386,703.132 647.623,702.698 647.284,702.224C647.284,701.006 647.284,699.789 647.284,698.572C648.263,697.52 648.486,695.049 649.72,694.309C652.527,692.627 655.974,692.616 659.258,691.266C660.284,690.843 661.359,689.949 662.301,689.439C662.958,689.084 664.085,688.974 664.533,688.423C666.686,685.785 666.757,681.926 668.186,678.48C668.393,677.982 668.985,677.349 669.201,676.855C669.798,675.495 669.93,673.446 671.636,673.203C673.748,674.619 678.261,674.352 681.175,675.03C684.9,675.895 691.555,678.177 695.38,677.058C696.916,676.61 698.366,675.397 699.641,674.622C701.502,673.496 704.338,672.701 706.339,671.984C707.556,671.85 708.774,671.713 709.991,671.579C711.941,671.117 714.074,670.698 715.877,670.157C716.564,669.951 717.204,670.092 717.703,669.753Z"/>
    </g>
</svg>
