<?xml version="1.0" encoding="UTF-8" standalone="no"?>
<!DOCTYPE svg PUBLIC "-//W3C//DTD SVG 1.1//EN" "http://www.w3.org/Graphics/SVG/1.1/DTD/svg11.dtd">
<svg width="100%" height="100%" viewBox="0 0 54 173" version="1.1" xmlns="http://www.w3.org/2000/svg" xmlns:xlink="http://www.w3.org/1999/xlink" xml:space="preserve" xmlns:serif="http://www.serif.com/" style="fill-rule:evenodd;clip-rule:evenodd;stroke-linejoin:round;stroke-miterlimit:1.41421;">
    <g transform="matrix(1,0,0,1,-18.052,-195.769)">
        <path d="M22.505,273.887C22.595,273.228 22.684,272.568 22.773,271.909C22.782,271.031 22.788,270.151 22.796,269.273C22.595,267.031 22.765,264.611 22.94,262.138C23.129,260.823 23.317,259.505 23.506,258.189C23.548,256.047 23.59,253.905 23.631,251.763C23.785,248.791 23.94,245.823 24.094,242.849C23.691,239.789 22.641,235.689 23.493,232.029C23.797,230.722 23.318,229.67 23.704,228.538C23.88,228.022 24.502,227.766 24.759,227.325C25.016,226.71 25.275,226.094 25.532,225.479C25.986,224.846 26.439,224.212 26.892,223.579C27.872,222.454 29.498,221.921 30.206,220.496C30.207,220.486 30.207,220.475 30.208,220.465C29.432,220.418 29.056,220.288 28.835,219.791C28.853,218.599 28.872,217.411 28.89,216.222C28.695,214.847 28.501,213.471 28.306,212.096C28.326,211.679 28.344,211.261 28.362,210.845C28.372,210.395 28.382,209.945 28.392,209.495C29.119,207.178 30.767,204.993 32.032,203.153C32.755,202.098 33.327,200.844 34.311,200.092C34.644,199.956 34.976,199.819 35.309,199.681C36.001,199.34 36.697,199.011 37.321,198.599C38.815,197.615 40.343,196.07 42.422,195.835C45.755,195.457 47.458,196.758 49.333,198.12C50.144,198.709 50.94,199.26 51.488,200.072C51.796,200.577 52.107,201.082 52.416,201.587C52.85,201.992 53.285,202.398 53.719,202.802C53.86,203.092 54.001,203.379 54.141,203.668C54.208,204.241 54.277,204.814 54.344,205.387C54.938,206.62 56.122,207.606 56.308,209.161C56.215,210.033 56.122,210.907 56.028,211.779C55.892,212.007 55.759,212.233 55.625,212.459C55.483,213.266 55.34,214.07 55.198,214.875C54.82,216.472 55.033,218.234 55.216,219.702C55.285,220.26 55.464,221.305 55.216,222.02C54.843,223.094 54.381,223.205 53.7,223.844C53.727,224.671 53.756,225.5 53.784,226.328C54.064,227.508 55.111,228.488 55.492,229.6C55.793,230.472 55.527,231.529 55.883,232.329C56.441,233.581 57.332,234.343 57.53,236.015C57.684,237.308 56.841,238.037 56.316,238.602C54.613,240.431 52.647,240.236 49.87,239.374C49.099,239.319 48.328,239.267 47.558,239.213C46.834,238.985 45.725,238.906 45.074,238.716C44.85,238.7 44.624,238.687 44.399,238.669C42.974,238.167 41.432,237.47 39.998,236.978C39.719,236.959 39.44,236.939 39.163,236.919C38.875,236.83 38.213,236.732 37.923,236.64C37.474,236.61 37.024,236.577 36.574,236.546C35.193,236.112 33.646,235.934 32.094,235.524C30.906,235.211 29.635,234.975 28.544,234.57C28.027,234.378 27.006,233.61 26.51,233.656C26.495,233.719 26.481,233.781 26.465,233.845C27.72,235.147 31.279,235.492 33.408,236.133C33.833,236.194 34.26,236.254 34.684,236.318C35.647,236.695 36.933,236.756 38.022,237.066C38.641,237.14 39.26,237.217 39.879,237.293C41.336,237.747 42.872,238.495 44.311,238.986C44.548,239.003 44.783,239.018 45.019,239.037C45.82,239.308 47.033,239.497 48.016,239.567C48.604,239.606 49.194,239.649 49.782,239.69C50.302,239.856 50.853,240.016 51.429,240.158C51.416,240.178 51.404,240.2 51.391,240.221C50.349,240.408 49.316,240.254 48.211,240.448C47.139,240.706 46.066,240.965 44.994,241.221C44.651,241.198 44.308,241.172 43.965,241.149C43.203,241.272 42.128,241.199 41.437,241.294C40.977,241.263 40.517,241.231 40.057,241.198C38.788,241.459 36.925,240.956 35.732,241.184C35.014,241.135 34.296,241.085 33.58,241.035C32.624,241.181 31.24,240.968 30.136,240.89C29.718,240.862 29.299,240.831 28.882,240.801C28.509,240.679 26.967,240.334 26.714,240.426C26.709,240.479 26.707,240.531 26.702,240.586C26.733,240.609 26.763,240.635 26.795,240.654C27.594,241.141 30.076,241.208 31.365,241.3C33.073,241.417 35.394,241.647 36.846,241.391C37.447,241.434 38.046,241.474 38.645,241.517C39.948,241.609 41.33,241.671 42.395,241.458C42.748,241.481 43.102,241.506 43.457,241.531C44.182,241.579 45.3,241.585 45.825,241.342C45.79,241.756 45.601,241.996 45.472,242.25C45.33,242.523 45.332,243.122 45.19,243.485C45.044,243.746 44.897,244.004 44.75,244.259C44.238,245.301 43.928,246.295 43.499,247.39C43.176,248.21 42.21,249.202 42.238,250.197C42.278,250.221 42.32,250.247 42.361,250.271C42.857,250.017 43.372,249.546 43.907,249.381C44.396,249.23 44.771,249.395 45.335,249.288C46.17,249.127 47.248,249.005 48.044,248.866C48.472,248.894 48.9,248.927 49.33,248.955C49.494,249.086 49.656,249.214 49.819,249.344C49.728,250.486 51.486,251.843 52.042,252.653C52.257,252.968 52.482,253.534 52.942,253.616C52.966,253.587 52.989,253.556 53.012,253.523C53.016,253.493 53.017,253.461 53.019,253.428C52.663,252.986 52.307,252.543 51.95,252.098C51.679,251.732 51.482,251.264 51.159,250.95C50.719,250.522 50.292,250.231 50.092,249.588C50.105,249.568 50.115,249.547 50.127,249.527C50.78,249.974 51.4,250.594 52.127,250.954C53.048,251.41 54.002,251.765 54.772,252.361C55.089,252.604 56.24,253.586 56.661,253.521C56.73,253.483 56.716,253.491 56.764,253.435C56.758,253.379 56.751,253.324 56.743,253.271C55.81,252.754 54.93,251.894 54.058,251.507C53.181,251.116 52.059,250.664 51.418,250.034C52.831,250.357 52.548,249.832 53.576,249.638C53.627,249.501 53.638,249.459 53.53,249.375C53.134,249.193 52.61,249.686 52.397,249.877C51.27,249.825 50.139,249.422 49.664,248.783C49.976,248.816 50.285,248.835 50.474,248.746C50.946,247.605 51.662,247.443 51.787,245.65C51.81,245.332 51.876,244.91 51.791,244.687C51.736,244.68 51.682,244.677 51.63,244.674C51.606,244.704 51.582,244.734 51.558,244.767C51.506,245.363 51.453,245.959 51.401,246.557C51.149,247.218 50.69,248.07 50.199,248.499C49.257,248.433 48.969,248.637 47.966,248.569C47.967,248.558 47.968,248.546 47.968,248.536C48.717,246.711 50.492,242.744 49.153,240.832C50.094,240.725 51.366,240.405 52.175,240.562C52.293,241.168 52.412,241.779 52.532,242.387C52.837,243.771 52.946,245.038 53.595,246.098C54.28,247.077 54.965,248.06 55.65,249.04C55.875,249.473 55.771,250.096 55.861,250.631C55.951,250.884 56.041,251.137 56.131,251.39C56.397,252.152 57.934,254.577 57.36,255.533C57.045,256.055 56.124,256.322 55.513,256.526C55.251,258.045 53.828,260.013 52.481,260.209C51.663,260.329 50.891,259.909 50.384,259.741C49.613,259.487 48.79,259.422 48.207,259.01C47.912,258.914 47.617,258.819 47.323,258.723C46.78,258.478 46.223,258.08 45.743,257.777C45.612,257.694 45.29,257.636 45.195,257.771C44.598,258.608 44.655,261.38 44.869,262.444C44.825,263.537 44.78,264.629 44.737,265.718C44.905,266.739 44.62,267.904 44.8,268.97C44.884,269.47 45.123,270.417 44.878,271.102C44.711,271.488 44.544,271.872 44.378,272.257C44.106,273.031 44.472,274.13 44.047,274.679C43.899,274.786 43.751,274.894 43.604,275.001C43.318,275.064 42.815,274.798 42.59,274.738C41.968,274.694 41.347,274.651 40.726,274.607C39.995,274.556 39.287,274.413 38.677,274.367C38.084,274.322 36.908,274.422 36.835,273.917C36.847,273.896 36.86,273.875 36.873,273.855C38.244,273.981 40.789,274.525 40.921,273.206C40.156,271.634 37.837,271.446 35.92,270.861C35.31,270.817 34.699,270.776 34.089,270.734C33.683,270.595 33.025,270.482 32.599,270.338C32.128,270.178 31.403,270.244 31.033,270.133C30.448,269.953 28.003,269.881 27.524,269.985C27.345,270.078 27.167,270.174 26.988,270.268C26.94,270.389 26.873,270.533 26.929,270.682C27.137,271.11 27.684,270.945 27.826,271.678C27.991,272.532 27.043,272.843 26.598,273.072C25.295,273.748 24.621,274.054 22.505,273.887ZM40.662,197.031C40.101,197.667 39.541,198.305 38.979,198.942C38.389,199.744 38.085,200.834 37.259,201.363C35.064,202.772 32.404,203.464 31.43,206.263C31.19,206.949 31.344,207.74 31.451,208.261C31.477,208.669 31.502,209.08 31.526,209.49C31.822,210.763 32.523,211.881 32.713,213.304C32.982,215.311 31.051,215.82 31.372,217.716C31.512,218.014 31.652,218.315 31.792,218.612C31.896,218.94 32.033,219.281 32.081,219.565C32.081,219.738 32.08,219.91 32.078,220.082C32.155,220.204 32.234,220.327 32.309,220.45C32.437,220.869 32.068,221.375 32,221.652C31.994,222.348 31.989,223.045 31.982,223.742C31.698,224.546 30.938,225.692 30.268,226.098C29.965,226.283 29.547,226.298 29.302,226.545C29.299,226.589 29.296,226.632 29.293,226.675C29.313,226.696 29.332,226.72 29.353,226.743C33.071,226.979 34.69,225.407 36.013,222.897C36.34,222.276 36.694,221.785 36.923,220.964C37.746,221.103 38.407,221.908 38.856,222.419C38.911,222.411 38.964,222.405 39.019,222.398C39.031,222.377 39.043,222.356 39.055,222.335C38.977,221.86 38.279,220.849 38.484,220.334C38.566,220.253 38.647,220.174 38.729,220.093C39.153,219.537 39.384,219.004 39.454,218.021C39.475,218.034 39.496,218.044 39.516,218.058C39.774,218.704 40.264,219.325 40.373,220.112C40.603,221.762 38.602,223.673 37.735,224.142C37.42,223.972 37.013,223.584 36.535,223.769C36.522,223.8 36.509,223.832 36.496,223.863C36.549,223.935 36.534,223.943 36.615,224.001C37.825,224.553 39.037,225.145 40.244,225.669C40.646,225.845 41.368,226.036 41.583,226.374C40.666,226.511 39.783,227.132 39.168,227.653C39.15,227.835 39.142,227.872 39.243,227.948C39.297,227.953 39.35,227.957 39.405,227.96C39.743,227.42 41.58,226.333 42.751,226.746C43.205,226.906 43.974,227.448 44.588,227.229C44.602,227.175 44.618,227.122 44.631,227.069C44.528,227.009 44.424,226.948 44.32,226.887C44.367,226.564 44.181,226.238 44.327,225.858C44.573,225.437 44.817,225.012 45.062,224.589C45.329,224.297 45.795,224.242 46.164,224.056C46.726,223.771 47.52,223.271 47.931,222.796C47.914,222.73 47.898,222.665 47.879,222.598C47.815,222.606 47.751,222.613 47.686,222.618C47.312,222.773 46.998,223.183 46.662,223.384C46.099,223.722 45.204,223.915 44.783,224.41C44.609,224.753 44.435,225.094 44.259,225.434C44.084,225.772 43.906,226.158 44.046,226.643C43.706,226.55 43.246,226.355 42.88,226.239C42.496,226.182 42.113,226.123 41.73,226.062C41.443,225.946 41.116,225.662 40.863,225.519C40.017,225.046 38.993,224.691 38.107,224.329C38.188,224.25 38.269,224.169 38.348,224.09C38.607,224.012 40.235,222.446 40.452,222.177C40.583,221.985 40.716,221.788 40.848,221.594C40.802,222.188 40.273,223.724 40.459,223.915C40.514,223.897 40.569,223.879 40.624,223.862C40.939,223.007 41.955,222.402 41.691,221.072C41.67,221.061 41.649,221.049 41.629,221.039C41.462,221.061 41.517,221.061 41.426,221.15C41.642,221.935 41.094,222.51 40.874,223.044C40.863,223.043 40.852,223.041 40.842,223.041C40.914,222.399 41.334,221.419 40.999,220.801C40.988,220.8 40.978,220.8 40.967,220.8C40.912,220.817 40.856,220.832 40.802,220.85C40.784,221.283 40.558,221.636 40.315,221.815C41.134,219.515 39.791,218.189 39.06,216.676C38.984,216.681 38.908,216.685 38.833,216.693C38.811,217.373 39.425,217.741 39.141,218.74C38.958,219.389 38.073,220.04 38.193,220.765C38.3,221.072 38.407,221.381 38.514,221.689C38.138,221.397 37.426,220.484 36.707,220.756C35.806,223.689 33.737,226.782 30.075,226.505C30.099,226.475 30.123,226.442 30.146,226.412C30.911,226.196 31.958,224.62 32.232,223.824C32.239,223.256 32.247,222.687 32.253,222.119C32.309,221.362 32.532,220.898 32.592,220.054C32.639,219.387 33.018,217.879 32.814,217.333C32.748,217.349 32.683,217.364 32.617,217.383C32.582,217.987 32.598,219.165 32.332,219.615C32.225,218.63 31.372,218.009 31.725,216.773C32.052,215.619 33.214,214.98 32.971,213.258C32.707,211.386 30.797,208.074 31.837,205.938C33.059,203.423 35.657,202.81 37.745,201.3C38.325,200.879 38.56,200.036 38.974,199.422C39.509,198.627 40.175,197.863 40.87,197.237C40.873,197.194 40.875,197.152 40.879,197.11C40.858,197.086 40.839,197.065 40.818,197.042C40.769,197.037 40.716,197.034 40.662,197.031ZM45.443,198.363C45.216,198.389 44.987,198.417 44.76,198.444C44.202,198.602 43.607,198.949 43.153,199.265C42.15,199.961 41.444,201.414 40.675,202.374C40.06,203.144 39.747,203.129 39.926,204.316C39.959,204.532 39.807,204.559 39.964,204.705C39.995,204.718 40.027,204.73 40.059,204.743C40.507,204.1 40.755,203.503 41.431,203.135C42.038,202.802 45.29,203.123 45.895,203.447C46.131,203.613 46.368,203.779 46.603,203.947C46.881,204.474 46.611,204.748 47.409,204.904C47.863,204.748 48.022,204.341 48.399,204.135C48.779,203.93 49.493,203.734 49.886,203.628C50.295,203.521 50.581,203.809 50.798,203.499C51.21,203.043 50.337,202.379 50.225,202.012C49.571,199.864 48.355,198.552 45.443,198.363ZM42.948,198.96C42.397,199.136 41.848,199.313 41.297,199.49C40.529,200.303 39.763,201.118 38.995,201.933C37.824,202.708 36.16,203.001 35.231,204.051C34.739,204.609 34.263,205.335 34.02,206.155C33.967,206.751 33.915,207.349 33.863,207.946C33.426,209.502 33.381,211.899 33.58,213.364C33.566,214.017 33.553,214.672 33.539,215.323C33.439,215.64 33.012,216.054 33.137,216.486C33.155,216.519 33.174,216.554 33.195,216.588C33.227,216.588 33.259,216.592 33.291,216.593C33.313,216.573 33.334,216.555 33.359,216.535C33.438,215.752 33.981,215.323 33.871,214.286C33.612,211.807 33.706,206.399 35.061,204.652C36.087,203.328 37.855,203.051 39.209,202.11C39.965,201.304 40.719,200.5 41.476,199.695C41.939,199.384 42.841,199.535 43.195,199.107C43.188,199.074 43.178,199.043 43.171,199.009C43.097,198.992 43.022,198.976 42.948,198.96ZM46.793,201.224C46.851,201.302 46.911,201.382 46.969,201.461C46.968,201.473 46.968,201.483 46.967,201.495C46.903,201.49 46.839,201.486 46.775,201.481C46.755,201.457 46.734,201.434 46.715,201.412C46.741,201.35 46.767,201.288 46.793,201.224ZM44.886,201.25C44.918,201.254 44.951,201.256 44.983,201.259C44.98,201.289 44.978,201.323 44.977,201.354C44.923,201.352 44.868,201.348 44.814,201.342C44.817,201.321 44.818,201.301 44.819,201.281C44.841,201.271 44.864,201.261 44.886,201.25ZM43.387,201.47C43.439,201.484 43.491,201.499 43.544,201.512C43.413,201.535 43.282,201.557 43.152,201.58C43.229,201.543 43.308,201.507 43.387,201.47ZM43.088,201.576C43.11,201.577 43.13,201.579 43.152,201.58C43.13,201.58 43.11,201.577 43.088,201.576ZM49.394,202.338C49.58,202.404 49.707,202.693 49.744,202.879C49.579,202.932 49.413,202.984 49.248,203.037C49.338,202.802 49.268,202.591 49.194,202.422C49.261,202.396 49.328,202.367 49.394,202.338ZM40,201.875C39.54,202.441 39.141,203.258 38.55,203.673C37.493,204.413 35.708,204.823 35.212,206.175C34.951,206.883 34.865,208.347 35.008,209.088C35.153,209.83 35.742,210.7 35.47,211.726C35.278,212.448 33.929,214.347 34.256,215.245C34.321,215.228 34.387,215.212 34.453,215.194C34.532,214.394 34.813,213.584 35.123,212.989C35.318,212.615 35.651,212.237 35.727,211.744C35.916,210.497 35.451,209.963 35.27,209.041C35.081,208.072 35.285,206.295 35.762,205.698C36.191,205.16 37.064,204.875 37.683,204.545C38.442,204.141 38.989,203.559 39.54,202.905C39.766,202.638 40.084,202.346 40.186,201.952C40.178,201.931 40.168,201.909 40.16,201.888C40.108,201.883 40.054,201.879 40,201.875ZM46.454,202.841C46.7,202.88 46.944,202.919 47.189,202.958C47.167,202.956 47.146,202.954 47.124,202.953C47.057,203.002 46.989,203.052 46.92,203.099C46.719,203.047 46.557,202.979 46.454,202.841ZM38.352,204.207C37.942,204.662 37.315,204.804 37.011,205.398C36.827,205.757 36.924,206.366 36.783,206.799C36.677,207.126 36.455,207.692 36.596,208.071C36.607,208.075 36.618,208.075 36.629,208.076C36.683,208.066 36.738,208.06 36.793,208.053C36.949,207.196 37.106,206.339 37.263,205.479C37.546,204.985 38.396,204.839 38.512,204.249C38.491,204.248 38.47,204.246 38.447,204.246C38.416,204.232 38.383,204.219 38.352,204.207ZM47.414,206.191C47.296,206.204 47.177,206.217 47.057,206.231C46.844,206.605 46.738,207.118 46.482,207.507C45.903,208.396 44.592,208.854 43.465,209.101C42.921,209.218 42.199,208.889 41.759,209.044C41.757,209.825 42.36,210.228 42.673,210.749C43.52,212.162 44.684,213.223 45.498,214.68C45.838,215.508 46.178,216.336 46.519,217.163C46.87,217.222 47.221,217.277 47.573,217.333C47.717,217.417 47.79,217.664 48.035,217.654C48.056,217.656 48.077,217.66 48.099,217.66C49.183,217.383 50.559,214.763 50.907,213.513C50.956,213.129 51.003,212.747 51.051,212.365C51.154,211.992 51.855,210.232 51.665,210.061C51.129,210.023 50.594,209.984 50.059,209.946C49.158,209.674 48.338,208.784 48.069,207.943C47.91,207.447 48.038,206.773 47.823,206.38C47.685,206.316 47.55,206.254 47.414,206.191ZM40.61,207.003C40.184,207.326 39.8,207.898 39.909,208.723C39.948,209.026 40.345,209.831 40.034,210.148C39.991,210.156 39.947,210.165 39.904,210.17C39.833,209.951 39.763,209.732 39.693,209.512C39.859,209.499 39.843,209.498 39.926,209.399C39.9,209.156 39.772,208.131 39.573,207.991C38.73,207.362 37.062,207.956 37.268,209.086C37.353,209.547 37.723,210.55 38.049,210.847C38.037,210.868 38.025,210.888 38.012,210.909C37.892,210.918 37.932,211.002 37.884,210.9C37.613,210.596 36.938,208.736 36.875,208.707C36.974,208.393 37.195,208.473 37.389,208.293C37.356,208.166 37.394,208.226 37.301,208.156C37.269,208.153 37.237,208.153 37.206,208.149C36.962,208.167 36.8,208.252 36.701,208.435C36.182,209.229 36.799,211.327 37.051,211.743C37.365,212.472 37.681,213.201 37.994,213.931C38.098,214.3 37.994,214.75 38.177,215.039C38.385,215.372 38.697,215.354 39.043,215.582C39.678,215.999 40.227,216.96 40.545,217.65C40.786,218.173 41.483,221.091 41.926,220.963C41.986,220.599 42.199,220.66 42.321,220.41C42.818,219.395 43.362,218.375 44.305,217.879C44.871,217.651 45.435,217.423 46.001,217.195C46.057,215.779 44.411,213.3 43.49,212.449C43.168,212.127 42.847,211.803 42.524,211.481C42.155,210.758 41.786,210.036 41.417,209.312C41.279,208.604 41.54,207.848 41.408,207.154C41.143,207.104 40.875,207.054 40.61,207.003ZM47.275,208.177C47.296,208.198 47.314,208.223 47.336,208.244C47.323,208.254 47.312,208.265 47.3,208.274C47.293,208.242 47.285,208.208 47.275,208.177ZM38.536,208.046C38.611,208.054 38.685,208.058 38.76,208.064C38.715,208.114 38.668,208.165 38.621,208.216C38.492,208.11 38.506,208.154 38.536,208.046ZM52.512,210.375C52.478,210.406 52.443,210.435 52.409,210.465C52.363,211.268 54.037,212.989 54.702,212.749C54.703,212.739 54.704,212.728 54.704,212.717C54.706,212.686 54.708,212.654 54.71,212.621C53.823,212.11 52.787,211.571 52.637,210.419C52.597,210.403 52.556,210.39 52.512,210.375ZM52.128,210.798C51.729,211.653 52.022,213.417 51.749,214.377C51.407,215.58 50.862,216.623 50.207,217.488C49.969,217.801 49.315,218.359 49.372,218.811C49.425,218.814 49.479,218.819 49.532,218.822C50.826,216.96 51.98,215.668 52.205,212.446C52.244,211.901 52.283,211.357 52.32,210.814C52.256,210.808 52.192,210.805 52.128,210.798ZM40.352,210.234C40.401,210.3 40.414,210.362 40.434,210.464C40.423,210.462 40.413,210.462 40.401,210.462C40.349,210.427 40.299,210.39 40.247,210.354C40.282,210.315 40.318,210.274 40.352,210.234ZM37.013,210.45C37.021,210.473 37.031,210.495 37.041,210.515C37.03,210.495 37.021,210.474 37.013,210.45ZM37.041,210.516C37.048,210.55 37.058,210.583 37.065,210.615C37.055,210.615 37.044,210.615 37.033,210.614C37.034,210.581 37.037,210.549 37.041,210.516ZM52.587,212.087C52.33,212.668 52.688,213.723 52.752,214.351C52.671,215.192 52.59,216.033 52.51,216.877C52.262,217.897 51.771,218.862 51.25,219.65C51.031,220.021 50.812,220.392 50.591,220.764C50.665,220.79 50.738,220.817 50.811,220.843C51.902,218.983 53.353,216.89 52.922,213.717C52.854,213.211 52.901,212.535 52.714,212.095C52.672,212.093 52.629,212.089 52.587,212.087ZM53.818,213.877C53.782,213.929 53.745,213.981 53.71,214.032C53.201,215.108 53.718,216.517 53.828,217.418C53.992,218.751 53.335,221.995 52.764,222.492C52.443,222.629 52.12,222.769 51.799,222.907C51.795,222.97 51.79,223.034 51.786,223.098C51.807,223.099 51.828,223.103 51.849,223.105C52.084,223.188 52.273,222.982 52.445,222.886C53.406,222.355 53.37,221.901 53.699,220.658C54.37,218.115 53.657,216.799 53.974,213.952C53.944,213.938 53.912,213.926 53.88,213.914C53.859,213.902 53.838,213.891 53.818,213.877ZM36.368,213.207C36.203,213.499 36.226,213.814 36.103,214.217C35.821,215.136 35.372,215.358 35.853,216.418C35.943,216.616 35.903,216.734 36.081,216.854C36.134,216.868 36.186,216.882 36.24,216.897C36.263,216.877 36.285,216.857 36.309,216.838C36.504,216.106 36.496,215.03 36.417,214.367C36.362,213.898 36.662,213.575 36.53,213.216C36.474,213.212 36.421,213.21 36.368,213.207ZM48.111,215.152C48.191,215.244 48.165,215.458 48.141,215.637C47.975,215.699 47.809,215.764 47.643,215.826C47.638,215.763 47.631,215.696 47.624,215.632C47.917,215.557 47.935,215.347 48.111,215.152ZM36.131,214.733C36.328,214.991 36.225,215.949 36.116,216.341C36.095,216.325 36.075,216.318 36.054,216.304C35.853,215.537 35.917,215.464 36.131,214.733ZM48.249,216.417C48.271,216.418 48.293,216.42 48.314,216.42C48.257,216.45 48.202,216.479 48.147,216.507C48.18,216.478 48.215,216.446 48.249,216.417ZM45.65,216.653C45.681,216.667 45.712,216.678 45.743,216.693C45.768,216.8 45.793,216.909 45.817,217.017C45.796,217.017 45.775,217.015 45.753,217.013C45.545,217.053 45.338,217.092 45.131,217.131C45.156,217.103 45.178,217.068 45.202,217.039C45.454,217.014 45.589,216.896 45.65,216.653ZM35.038,216.071C34.88,216.237 34.595,216.678 34.713,217.014C34.788,217.227 35.26,217.828 35.5,217.779C35.711,217.766 35.764,217.697 35.898,217.613C35.917,217.156 35.503,216.133 35.038,216.071ZM38.138,216.513C37.945,216.785 37.093,220.048 37.14,220.177C37.44,220.288 37.382,220.525 37.756,220.607C38.758,219.83 38.999,217.662 38.299,216.527C38.245,216.523 38.191,216.519 38.138,216.513ZM35.146,216.371C35.302,216.746 35.459,217.121 35.615,217.496C35.594,217.494 35.572,217.494 35.551,217.492C35.507,217.498 35.465,217.507 35.421,217.514C35.262,217.309 35.105,217.107 34.947,216.904C35.013,216.724 35.079,216.548 35.146,216.371ZM38.17,216.967C38.941,217.613 38.263,219.915 37.678,220.313C37.569,220.186 37.459,220.061 37.348,219.934C37.623,218.998 38.077,218.168 38.17,216.967ZM47.144,218.818C46.572,219.097 45.755,219.119 45.166,219.42C44.848,219.58 44.771,219.92 44.505,220.112C44.199,220.334 43.739,220.506 43.489,220.78C42.981,221.345 42.511,222.718 42.698,223.782C42.75,223.808 42.802,223.833 42.853,223.858C42.908,223.851 42.962,223.844 43.017,223.837C43.064,223.649 42.984,223.612 42.982,223.417C42.974,222.774 43.086,222.241 43.291,221.765C43.733,220.743 46.378,218.588 48.215,219.213C48.662,219.367 49.092,219.777 49.565,219.757C49.579,219.707 49.594,219.652 49.608,219.603C49.312,219.063 48.068,218.872 47.144,218.818ZM54.716,220.407C54.612,220.611 54.675,220.953 54.594,221.236C54.396,221.923 54.098,222.686 53.684,223.167C53.431,223.463 52.852,223.479 52.577,223.766C52.584,223.822 52.591,223.875 52.598,223.929C52.609,223.93 52.619,223.93 52.63,223.931C53.821,223.824 55.064,222.024 54.876,220.452C54.823,220.436 54.769,220.422 54.716,220.407ZM45.414,220.949C45.263,221.27 45.11,221.592 44.958,221.914C44.559,222.475 43.303,223.466 43.343,224.246C43.468,224.297 43.531,224.276 43.634,224.235C43.938,223.45 45.883,221.728 45.607,220.963C45.595,220.962 45.585,220.961 45.574,220.961C45.521,220.955 45.468,220.952 45.414,220.949ZM48.177,221.592C48.104,221.646 48.07,221.676 48.005,221.741C48.015,221.774 48.023,221.807 48.031,221.84C48.051,221.862 48.071,221.884 48.092,221.908C48.928,221.954 49.65,222.11 50.15,222.47C50.439,222.677 50.55,223.143 50.864,223.357C50.959,223.308 50.972,223.293 51.035,223.21C50.616,222.193 49.668,221.681 48.177,221.592ZM40.285,221.813C40.315,221.91 40.229,221.998 40.139,222.058C40.188,221.978 40.236,221.896 40.285,221.813ZM35.451,221.699C35.201,221.912 34.956,222.194 34.604,222.283C34.291,222.294 33.978,222.305 33.666,222.315C33.48,222.656 33.294,222.998 33.109,223.337C32.574,224.06 32.014,224.889 31.405,225.566C31.41,225.631 31.415,225.695 31.423,225.76C31.476,225.765 31.53,225.769 31.584,225.772C31.861,225.452 32.035,225.059 32.304,224.695C32.813,224.015 33.517,223.451 33.842,222.551C34.46,222.611 34.756,222.466 35.15,222.321C35.149,222.333 35.149,222.343 35.148,222.352C34.966,222.651 34.784,222.95 34.602,223.248C34.497,223.519 34.393,223.792 34.287,224.063C33.845,224.666 32.704,225.348 31.925,225.538C31.93,225.601 31.938,225.669 31.943,225.734C32.018,225.748 32.092,225.765 32.165,225.779C32.936,225.366 34.053,224.906 34.54,224.175C34.669,223.852 34.799,223.529 34.929,223.207C35.128,222.924 35.69,222.249 35.576,221.803C35.521,221.724 35.543,221.75 35.451,221.699ZM48.907,225.473C48.753,225.546 48.56,225.548 48.442,225.665C48.477,225.783 48.463,225.768 48.56,225.833C49.004,226.011 50.69,225.722 51.391,225.966C51.691,226.072 52.36,226.325 52.643,226.537C53.036,226.834 53.193,227.566 53.757,227.677C53.792,227.637 53.827,227.596 53.863,227.557C53.173,225.886 51.386,225.633 48.907,225.473ZM49.403,226.697C49.367,226.738 49.332,226.778 49.298,226.82C49.296,226.85 49.293,226.883 49.292,226.915C49.397,227.313 49.775,227.185 50.097,227.389C50.822,227.849 51.798,228.291 52.38,228.9C53.097,229.651 53.632,230.761 54.122,231.693C54.392,232.206 54.52,232.774 54.889,233.195C55.035,233.198 55.065,233.183 55.151,233.148C55.153,233.105 55.156,233.064 55.16,233.021C54.401,231.903 53.97,230.561 53.249,229.411C52.504,228.224 50.754,227.339 49.403,226.697ZM44.72,227.174C44.392,227.591 43.729,227.961 43.534,228.443C42.928,229.953 43.681,233.291 44.764,233.483C44.786,233.464 44.809,233.445 44.833,233.425C44.825,233.37 44.818,233.318 44.811,233.262C44.603,233.002 44.397,232.741 44.187,232.478C43.758,231.618 43.303,229.788 43.848,228.562C44.149,228.272 44.449,227.982 44.749,227.691C44.77,227.705 44.79,227.715 44.811,227.729C45.062,228.838 44.382,230.879 44.871,231.946C44.883,231.948 44.892,231.948 44.903,231.948C44.945,231.954 44.989,231.957 45.031,231.959C45.056,231.938 45.077,231.92 45.099,231.899C45.14,231.356 45.049,231.038 44.992,230.67C45.042,229.952 45.092,229.24 45.142,228.524C45.203,228.582 45.263,228.642 45.324,228.697C45.437,229.445 46.313,230.493 46.635,231.172C47.684,233.373 47.516,234.812 50.122,235.79C50.521,235.938 52.127,236.606 52.527,236.473C52.521,236.418 52.514,236.365 52.508,236.31C52.314,235.911 51.919,236.143 51.432,235.979C50.545,235.681 49.263,235.281 48.65,234.69C47.91,233.98 47.767,232.756 47.268,231.826C46.451,230.308 45.702,228.911 45.07,227.232C44.954,227.212 44.837,227.193 44.72,227.174ZM47.177,240.988C47.253,240.995 47.326,240.999 47.401,241.005C47.241,241.332 47.319,241.854 47.214,242.312C47.07,242.935 46.731,244.782 46.373,245.118C46.437,244.026 45.652,242.365 46.286,241.28C46.583,241.184 46.879,241.087 47.177,240.988ZM44.761,247.835C44.803,247.859 44.844,247.883 44.885,247.907C44.873,247.927 44.861,247.948 44.849,247.969C44.806,247.967 44.763,247.965 44.719,247.96C44.734,247.919 44.748,247.879 44.761,247.835ZM46.314,248.716C46.355,248.739 46.396,248.764 46.438,248.787C46.438,248.799 46.438,248.809 46.436,248.82C46.415,248.818 46.393,248.817 46.372,248.816C45.959,248.862 45.548,248.907 45.135,248.953C45.157,248.945 45.179,248.936 45.202,248.926C45.476,248.73 45.976,248.856 46.314,248.716ZM44.781,249.862C42.827,250.446 41.08,251.312 39.361,252.122C38.807,252.383 38.216,252.484 37.731,252.813C37.383,253.05 37.248,253.557 36.979,253.886C36.515,254.377 36.049,254.873 35.583,255.365C35.545,255.62 35.506,255.873 35.465,256.129C35.277,256.606 34.779,256.879 34.661,257.455C34.802,257.694 34.953,257.786 35.143,257.973C36.474,258.073 37.197,256.383 37.551,255.372C37.561,255.372 37.572,255.373 37.584,255.375C37.517,256.681 36.67,257.374 36.1,258.136C35.674,258.705 35.414,259.453 35.031,260.024C34.574,260.704 34.333,261.635 34.908,262.237C35.832,262.286 36.235,261.281 36.569,260.646C37.016,259.799 37.673,259.144 38.211,258.413C38.588,257.896 38.81,257.309 39.168,256.741C39.074,258.16 38.08,258.998 37.434,259.838C36.987,260.536 36.54,261.235 36.092,261.934C35.758,262.432 34.799,263.507 35.758,263.969C36.507,264.304 36.922,262.975 37.21,262.589C37.752,261.862 38.544,261.363 39.055,260.659C39.569,259.95 40.1,258.397 40.732,257.913C40.743,257.914 40.754,257.914 40.764,257.915C40.846,259.108 38.79,261.217 38.16,261.918C37.832,262.281 37.153,262.575 37.226,263.267C38.584,264.116 40.78,260.862 41.465,259.895C41.732,259.518 41.992,258.708 42.49,258.615C42.483,258.723 42.476,258.83 42.469,258.937C41.962,260.284 41.002,261.245 40.233,262.288C40.031,262.561 39.93,263.127 40.224,263.349C40.678,263.692 41.877,262.169 42.134,261.872C43.727,260.045 45.069,257.993 45.977,255.385C46.535,255.24 47.562,255.012 47.875,254.552C49.255,252.536 46.474,250.047 44.781,249.862ZM42.47,251.051C42.503,251.054 42.535,251.058 42.567,251.059C42.567,251.072 42.567,251.08 42.565,251.093C42.511,251.088 42.458,251.084 42.404,251.08C42.427,251.071 42.448,251.062 42.47,251.051ZM42.337,251.107C42.358,251.109 42.381,251.11 42.401,251.113C42.381,251.11 42.359,251.109 42.337,251.107ZM39.841,252.188C39.85,252.22 39.859,252.255 39.866,252.286C39.834,252.285 39.802,252.283 39.77,252.281C39.794,252.248 39.818,252.218 39.841,252.188ZM49.472,259.875C49.895,259.979 50.329,260.167 50.67,260.28C51.215,260.464 51.661,260.343 52.071,260.572C52.295,260.91 52.519,261.246 52.743,261.584C52.919,261.982 53.097,262.382 53.272,262.779C53.583,263.573 53.894,264.368 54.205,265.16C55,266.745 55.727,268.497 56.537,270.118C57.056,271.003 57.576,271.886 58.095,272.768C58.048,272.809 58.003,272.849 57.958,272.888C57.722,273.254 56.853,273.296 56.463,273.492C55.433,274.006 54.268,274.535 53.493,275.344C53.574,275.665 53.735,275.849 53.891,276.112C53.255,277.266 53.574,278.71 53.711,280.058C53.689,280.848 53.665,281.641 53.641,282.436C54.658,282.5 54.797,283.153 55.197,283.734C56.337,285.142 57.475,286.552 58.614,287.96C59.26,288.736 59.905,289.511 60.551,290.285C63.385,294.362 66.567,298.145 69.297,302.318C70.592,304.298 72.451,306.741 71.38,309.93C71.021,310.994 70.496,312.67 69.872,313.492C68.659,315.089 66.642,315.956 64.826,316.871C62.049,318.274 59.108,319.525 56.159,320.769C53.504,321.893 50.646,322.892 47.814,323.792C46.78,324.119 45.772,324.703 44.695,324.989C44.396,324.967 44.095,324.947 43.796,324.926C42.862,325.106 39.294,325.292 38.794,324.447C38.703,324.517 38.611,324.585 38.522,324.652C38.31,321.926 36.939,321.887 34.949,320.799C33.926,320.237 32.733,319.717 31.778,319.066C31.042,318.564 29.5,316.398 29.288,315.419C29.316,315.034 29.343,314.65 29.37,314.265C29.703,314.284 31.004,313.438 31.445,313.219C32.051,312.922 33,313.08 33.606,312.79C35.033,312.108 36.611,310.586 38.387,310.422C38.369,310.6 38.383,310.707 38.424,310.811C38.701,310.787 38.736,310.45 38.85,310.263C39.091,310.237 39.404,310.07 39.759,310.197C40.363,310.417 40.927,311.316 42.087,311.067C42.933,310.887 43.545,309.956 44.257,309.579C44.622,309.433 44.988,309.289 45.354,309.141C45.73,309.063 45.999,309.196 46.324,309.112C46.484,308.983 46.643,308.855 46.802,308.728C47.282,308.482 47.762,308.237 48.243,307.993C48.876,307.776 50.243,307.48 50.635,307.035C50.722,305.698 49.134,305.205 48.317,304.619C47.386,303.95 46.871,303.114 46.123,302.309C45.678,301.833 45.075,301.455 44.735,300.893C44.222,300.044 43.753,299.361 42.98,298.744C42.663,298.368 42.346,297.992 42.026,297.616C41.359,296.849 40.518,296.102 39.999,295.221C39.747,294.794 39.582,294.205 39.222,293.879C37.516,292.333 35.872,290.442 34.557,288.565C33.467,287.012 31.865,285.739 30.898,284.093C30.458,283.152 30.018,282.21 29.578,281.27C29.501,280.822 29.424,280.378 29.349,279.932C29.202,279.247 29.057,278.56 28.911,277.875C28.912,276.611 28.916,275.345 28.918,274.079C27.757,274.051 26.598,274.023 25.437,273.996C25.459,273.996 25.48,273.998 25.501,274.001C26.174,273.43 28.967,272.95 28.022,271.185C27.832,270.83 27.517,270.784 27.23,270.519C27.264,270.488 27.298,270.459 27.332,270.427C27.899,270.287 30.13,270.195 30.946,270.455C31.313,270.573 32.014,270.502 32.482,270.66C32.907,270.803 33.565,270.916 33.972,271.054C34.593,271.098 35.215,271.141 35.834,271.183C37.504,271.748 39.962,271.903 40.593,273.319C40.545,273.391 40.495,273.463 40.447,273.532C40.271,273.608 40.093,273.681 39.916,273.755C38.843,273.691 37.771,273.626 36.7,273.562C36.653,273.613 36.608,273.663 36.56,273.712C36.549,273.872 36.538,274.033 36.527,274.193C36.877,274.698 39.08,274.821 39.965,274.884C40.664,274.932 43.702,275.331 43.812,275.28C44.977,274.736 44.263,273.674 44.692,272.384C44.917,271.704 45.383,271.069 45.275,270.042C45.209,269.409 44.88,266.747 45.161,266.14C45.596,266.469 46.529,266.276 47.102,266.536C47.949,266.895 48.796,267.254 49.643,267.614C50.349,268.084 51.633,269.736 52.703,269.564C53.126,269.085 52.951,268.615 52.707,268.115C52.904,267.897 53.086,267.773 53.146,267.376C52.916,266.909 52.794,266.577 52.179,266.439C52.255,266.126 52.271,265.997 52.129,265.759C51.887,265.699 51.642,265.639 51.4,265.58L51.015,264.17C51.071,263.906 51.238,263.347 51.161,262.99C51.042,262.437 50.395,262.171 50.189,261.665C49.838,260.81 50.058,260.604 49.472,259.875ZM46.115,263.567C46.208,263.626 46.301,263.686 46.393,263.746C46.398,263.834 46.403,263.919 46.408,264.006C46.311,263.999 46.216,263.993 46.119,263.985C46.108,263.985 46.097,263.984 46.087,263.983C46.059,263.917 46.031,263.85 46.004,263.785C46.042,263.71 46.078,263.64 46.115,263.567ZM46.368,265.032C46.506,265.074 46.643,265.115 46.78,265.157C46.779,265.167 46.779,265.179 46.777,265.19C46.606,265.177 46.435,265.165 46.263,265.153C46.297,265.112 46.334,265.073 46.368,265.032ZM45.109,265.041C45.129,265.062 45.148,265.086 45.169,265.107C45.155,265.14 45.143,265.171 45.129,265.204C45.119,265.201 45.109,265.201 45.097,265.201C45.101,265.147 45.104,265.094 45.109,265.041ZM36.977,292.24C38.059,292.605 39.495,294.966 40.076,295.933C40.406,296.298 40.736,296.663 41.065,297.031C41.956,298.052 42.808,299.044 43.83,299.959C44.205,300.293 44.524,301.251 44.969,301.679C45.649,302.333 46.426,302.999 46.884,303.839C47.502,304.976 49.7,305.399 50.362,306.753C50.347,306.808 50.332,306.858 50.317,306.913C49.412,307.235 48.507,307.559 47.604,307.881C47.227,308.097 46.609,308.646 46.249,308.783C45.947,308.796 45.645,308.804 45.342,308.817C45.034,308.922 44.726,309.03 44.417,309.138C43.671,309.494 42.79,310.568 42.012,310.738C40.368,311.101 40.304,309.103 38.433,310.2C38.399,309.468 38.364,308.735 38.329,308.006C38.229,306.505 38.129,305.01 38.029,303.511C37.948,302.197 37.867,300.883 37.789,299.57C37.518,297.127 37.248,294.682 36.977,292.24ZM26.033,313.483C27.062,313.541 28.315,313.783 29.085,314.148C28.59,315.579 29.436,316.489 29.872,317.229C31.265,319.588 33.113,320 35.452,321.446C35.841,321.592 36.229,321.735 36.616,321.883C37.503,322.425 38.239,323.541 38.184,324.855C38.163,324.853 38.141,324.853 38.119,324.849C37.64,324.946 37.16,325.041 36.68,325.134C35.255,325.51 33.828,325.882 32.406,326.254C31.87,326.355 31.336,326.456 30.801,326.559C30.705,326.702 30.61,326.845 30.514,326.989C30.236,327.108 29.958,327.229 29.681,327.348C29.616,327.518 29.55,327.683 29.485,327.851C29.23,328.152 28.283,328.828 27.74,328.792C27.218,329.814 26.694,330.84 26.169,331.865C26.008,332.489 25.846,333.108 25.685,333.731C25.239,335.493 25.972,337.502 25.26,338.881C24.988,339.407 24.227,339.735 23.521,339.754C23.491,339.894 23.459,340.029 23.427,340.165C22.823,340.327 22.417,340.833 22.034,340.231C21.463,339.897 20.804,338.165 20.515,337.488C20.183,336.703 19.851,335.915 19.517,335.133C18.979,333.472 18.907,331.793 18.654,329.924C18.55,329.147 18.305,327.538 18.563,326.603C18.834,325.622 20.043,323.211 19.844,322.125C19.246,321.899 18.65,321.678 18.052,321.452C18.203,319.281 18.133,317.035 18.47,315.014C19.198,314.927 19.925,314.837 20.651,314.748C21.34,314.55 21.974,314.093 22.712,313.892C23.41,313.761 24.108,313.626 24.805,313.495C25.215,313.492 25.625,313.487 26.033,313.483ZM39.224,325.217C40.866,325.357 42.559,325.511 43.87,325.252C44.16,325.271 44.449,325.292 44.738,325.312C45.531,325.156 46.345,324.677 47.06,324.415C47.714,324.171 48.344,324.073 49.037,323.845C50.543,323.346 51.857,322.609 53.572,322.232C53.707,324.978 53.786,327.672 54.073,330.313C54.068,331.296 54.063,332.284 54.059,333.27C53.85,335.809 53.64,338.344 53.431,340.886C53.671,341.433 53.912,341.989 54.153,342.542C54.789,344.033 55.397,345.739 56.224,347.096C56.555,347.638 57.289,347.984 57.667,348.612C57.653,349.016 57.196,349.885 57.018,350.049C56.443,350.285 55.866,350.525 55.289,350.762C54.858,350.966 54.056,351.472 53.669,351.775C53.009,352.296 52.183,353.328 51.672,354.018C51.1,354.79 49.165,356.133 48.266,356.581C47.701,356.859 45.304,357.928 44.497,357.38C44.383,357.167 44.268,356.954 44.153,356.743C44.089,356.128 44.024,355.512 43.96,354.896C43.898,354.253 44.229,353.088 44.122,352.587C43.779,352.115 43.434,351.641 43.09,351.165C42.343,350.056 41.65,349.216 41.503,347.548C41.501,347.278 41.498,347.011 41.496,346.742C41.7,346.446 41.904,346.149 42.108,345.852C41.452,343.984 40.796,342.114 40.143,340.245C40.03,339.399 39.916,338.557 39.803,337.713C39.187,334.159 38.988,329.409 39.224,325.217ZM43.335,366.624C43.397,365.806 43.461,365.226 43.388,364.473C43.438,363.92 43.487,363.364 43.536,362.809C43.45,361.793 43.483,360.503 43.801,359.484C44.035,358.909 44.268,358.337 44.503,357.764C45.704,357.906 46.92,357.559 47.913,357.001C49.068,356.355 50.258,355.905 51.153,354.977C52.683,353.393 54.585,350.834 57.055,350.434C57.005,352.081 56.954,353.731 56.904,355.378C56.829,356.135 56.756,356.892 56.681,357.648C56.827,357.863 56.974,358.077 57.12,358.291C57.141,358.615 57.16,358.938 57.181,359.259C57.19,359.283 57.201,359.305 57.209,359.326C57.333,359.41 57.456,359.493 57.579,359.578C57.892,360.057 58.119,360.796 58.032,361.411C58.572,362.007 59.111,362.603 59.649,363.195C60.432,363.703 61.214,364.211 61.998,364.713C63.024,365.206 64.268,365.333 65.453,365.629C66.11,365.794 66.751,365.783 67.226,366.108C67.692,366.424 67.898,367.876 67.332,368.301C66.866,368.697 64.316,368.319 63.396,368.254C59.725,367.984 56.051,367.719 52.38,367.451C52.185,367.137 51.656,366.41 51.183,366.565C50.995,366.796 50.806,367.031 50.619,367.262C48.19,367.052 45.762,366.837 43.335,366.624Z"/>
    </g>
</svg>
