<?xml version="1.0" encoding="UTF-8" standalone="no"?>
<!DOCTYPE svg PUBLIC "-//W3C//DTD SVG 1.1//EN" "http://www.w3.org/Graphics/SVG/1.1/DTD/svg11.dtd">
<svg width="100%" height="100%" viewBox="0 0 110 123" version="1.1" xmlns="http://www.w3.org/2000/svg" xmlns:xlink="http://www.w3.org/1999/xlink" xml:space="preserve" xmlns:serif="http://www.serif.com/" style="fill-rule:evenodd;clip-rule:evenodd;stroke-linejoin:round;stroke-miterlimit:1.41421;">
    <g transform="matrix(1,0,0,1,-91.6877,-21.4652)">
        <path d="M94.302,113.843C94.432,112.844 95.049,112.329 95.085,111.236L95.998,111.236L95.998,110.714C96.108,110.406 96.319,111.073 96.781,110.844C96.876,110.488 96.521,110.581 96.52,110.323C97.701,109.329 99.254,108.709 100.694,107.974C100.026,107.642 99.073,107.594 98.737,106.93C99.256,107.457 100.6,107.154 100.954,107.844C101.401,107.725 101.762,107.522 102.258,107.452C102.459,106.957 102.785,106.586 102.911,106.017C108.263,104.292 115.957,105.744 121.042,106.8C124.117,107.437 127.805,109.911 130.434,108.235C132.678,106.805 134.18,103.538 135.783,101.06C137.505,98.397 139.21,95.931 141.001,93.756C145.267,97.704 150.793,100.293 151.306,107.061C151.452,108.984 151.305,111.922 151.827,114.105C151.98,114.739 152.241,115.01 152.479,115.931C152.732,116.899 153.755,118.015 154.306,119.192C155.847,122.478 158.03,126.164 158.74,130.019C160.35,130.721 162.886,130.667 164.089,129.628C164.917,129.886 165.363,130.527 165.786,131.193C164.768,132.002 163.412,132.473 162.915,133.801C163.463,133.697 163.521,133.104 164.089,133.019C164.568,133.019 164.59,133.476 164.872,133.671C165.853,133.695 166.48,133.366 166.96,132.889C168.605,133.96 169.245,135.985 170.612,137.324C171.911,138.597 173.812,139.059 175.047,140.455C174.004,141.889 173.108,143.47 170.612,143.455C170.632,142.862 172.321,143.257 172.177,142.934C172.588,142.463 171.485,142.963 171.265,143.063C170.59,142.776 170.726,142.686 170.091,143.063C170.384,142.575 170.886,142.294 171.133,141.759C170.287,141.437 169.862,142.66 169.437,143.195L170.481,143.195C170.682,143.744 169.807,143.216 169.828,143.587L171.525,143.587C173.153,143.119 176.263,142.857 175.568,140.457C175.339,139.665 173.539,138.818 172.697,138.239C170.622,136.805 168.455,133.921 166.959,132.239C166.824,131.896 166.803,131.438 166.829,130.935C166.798,130.325 166.441,131.216 166.045,131.065C165.303,130.503 165.019,129.482 164.088,129.109C162.871,125.023 161.054,121.738 160.696,117.5C160.668,117.156 160.777,116.806 160.696,116.456C160.469,115.462 160.034,115.218 159.915,113.716C159.714,111.236 158.51,108.683 158.739,105.889C158.835,104.753 159.493,103.584 159.523,102.236C159.605,98.423 157.298,95.834 155.608,93.105C153.628,89.904 151.784,86.862 149.869,83.453C148.299,80.657 146.922,78.555 148.042,75.104C148.044,74.715 148.657,74.937 148.825,74.712C149.567,68.41 153.669,65.469 154.957,59.711C155.971,59.864 156.059,61.03 156.651,61.538C158.803,63.381 160.785,61.38 162.913,60.364C162.93,59.88 162.85,59.301 162.95,58.897L169.254,56.062C169.704,55.86 170.035,55.468 170.194,55.027C170.747,54.812 171.325,54.63 171.632,54.569C173.889,54.139 179.413,53.245 180.442,53.812C181.187,54.25 185.448,56.195 191.565,53.416C197.681,50.661 201.745,44.968 201.423,40.176C201.088,35.365 196.256,33.513 189.372,36.504C182.469,39.505 178.931,45.935 178.006,46.955C177.089,47.972 172.517,51.616 171.233,52.314C170.643,52.629 169.948,52.969 169.369,53.204C169.073,53.132 168.737,53.155 168.405,53.305L160.826,56.715L160.827,56.713C160.448,56.347 160.181,56.832 159.916,56.973C160.08,55.789 160.002,54.364 160.567,53.581C160.631,49.717 163.532,46.697 161.088,43.406C159.948,42.107 158.016,42.19 156.393,41.581C156.257,41.53 156.126,41.469 155.997,41.404C156.001,41.404 156.005,41.405 156.007,41.407C155.997,41.387 155.987,41.367 155.979,41.347C155.679,41.177 155.38,41.009 155.082,40.839C154.491,40.429 153.921,40.001 153.283,39.819C153.224,39.785 153.164,39.752 153.104,39.718C153.253,39.322 153.4,38.928 153.549,38.533C154.443,38.848 156.366,39.122 156.925,38.325C157.074,38.114 156.935,37.665 157.044,37.347C157.219,36.838 157.522,36.761 157.845,36.429C157.998,35.874 157.617,35.972 157.725,35.688C157.841,35.4 158.096,35.629 158.259,35.066C158.229,34.907 158.201,34.749 158.171,34.59C158.194,34.145 158.341,34.064 158.437,33.791C158.721,33.749 159.059,33.787 159.03,33.495C159.032,32.866 158.407,31.184 158.407,31.184C158.54,31.042 158.685,30.974 158.97,30.977C158.931,30.917 158.892,30.858 158.852,30.799C158.931,30.78 159.009,30.76 159.088,30.739C159.039,30.483 158.99,30.226 158.94,29.97C159.039,29.87 159.137,29.771 159.237,29.673C158.992,28.531 159.042,27.072 158.763,25.851C158.679,25.484 158.437,25.098 158.319,24.695C158.193,24.266 158.159,23.782 157.904,23.48C157.646,23.352 157.39,23.223 157.133,23.095C156.065,22.474 154.76,21.835 153.4,21.525C153.025,21.505 152.65,21.485 152.275,21.466C149.122,21.423 147.215,23.123 146.131,25.195C145.768,25.52 145.4,25.808 145.035,26.06C143.681,27.1 141.723,27.882 140.159,26.97C140.419,27.361 140.811,27.361 141.072,27.621C140.789,27.557 140.504,27.494 140.217,27.433C139.931,27.37 139.644,27.307 139.36,27.238C138.987,27.091 138.616,26.928 138.245,26.762C135.593,25.404 132.939,27.927 130.331,28.709C132.68,28.448 135.072,25.926 137.288,27.361C133.896,28.144 130.722,29.622 127.46,28.056C126.677,27.665 125.635,27.926 124.896,28.189C124.556,28.301 124.218,28.423 123.884,28.554C123.55,28.684 123.221,28.823 122.894,28.969C123.155,28.905 123.416,28.831 123.677,28.756C123.939,28.68 124.202,28.6 124.466,28.521C124.725,28.437 124.986,28.351 125.247,28.278C126.026,28.056 126.939,28.056 127.723,28.578C126.939,28.317 126.026,28.317 125.266,28.454C124.994,28.51 124.725,28.585 124.466,28.675C123.939,28.824 123.417,28.968 122.895,29.1C123.309,29.013 123.721,28.923 124.135,28.831C124.518,28.767 124.906,28.692 125.293,28.622C125.766,28.578 126.418,28.447 126.939,28.708C129.288,29.491 131.636,30.535 134.115,30.405C133.854,30.665 133.462,30.405 133.201,30.665C134.899,30.795 136.375,28.534 138.072,28.821C138.42,28.893 138.768,28.968 139.116,29.056C138.712,29.095 138.314,29.15 137.921,29.219C136.115,29.578 134.68,31.012 132.984,31.664C130.897,32.447 128.548,32.839 126.329,32.577C127.504,33.099 128.808,32.577 129.982,32.969C129.33,33.099 128.677,32.839 128.026,32.839C129.461,33.49 131.286,32.447 132.591,33.621C132.2,34.012 125.46,36.883 125.198,37.405C128.112,36.187 131.678,34.404 132.069,34.665C131.418,35.187 130.634,35.578 129.842,35.929C129.774,35.959 129.705,35.988 129.639,36.018C129.663,36.01 129.689,36.001 129.714,35.993C130.113,35.872 130.503,35.776 130.896,35.712C130.634,35.84 130.373,35.97 130.12,36.084C129.867,36.199 129.623,36.297 129.394,36.361C128.937,36.557 128.48,36.753 128.025,37.014C128.307,36.905 128.586,36.789 128.861,36.67C129.139,36.551 129.414,36.427 129.687,36.304C129.988,36.189 130.281,36.069 130.569,35.952C131.416,35.578 132.328,35.318 133.242,35.187C132.981,35.447 132.328,35.187 132.198,35.709C134.056,35.382 133.762,34.927 134.545,34.665C133.893,35.839 132.328,35.709 131.281,36.355C130.821,36.522 130.378,36.688 129.934,36.855C126.834,38.027 123.73,39.204 122.543,42.493C124.421,40.092 127.219,38.193 130.267,37.396C130.647,37.295 131.033,37.213 131.42,37.149C131.806,37.085 132.197,37.04 132.59,37.014C132.279,37.127 131.946,37.252 131.603,37.387C129.473,38.228 126.924,39.502 126.689,41.449C126.738,41.384 126.787,41.319 126.837,41.254C127.375,40.55 127.918,39.936 128.667,39.452C129.462,38.94 130.395,38.633 131.266,38.281C132.342,37.847 133.372,37.353 134.314,36.671C134.519,36.523 134.714,36.863 134.512,37.009C133.001,38.103 131.26,38.626 129.586,39.4C128.74,39.791 128.023,40.346 127.457,41.087C127.283,41.316 127.075,41.559 126.884,41.816C128.206,40.888 129.707,40.295 131.275,39.824C132.428,38.949 133.847,38.511 135.067,37.666C134.153,39.102 133.109,40.928 131.152,41.189C131.152,41.104 131.165,41.019 131.183,40.933C130.828,41.234 130.528,41.593 130.22,41.952C130.27,41.956 130.32,41.963 130.369,41.973C131.413,41.973 130.369,43.147 130.239,43.798C130.239,43.929 130.369,44.32 130.499,44.32C130.63,44.32 130.76,44.189 130.891,44.059C130.499,44.58 130.369,45.102 130.605,45.77C130.69,46.022 130.835,46.246 131.043,46.406C131.251,46.565 131.524,46.663 131.867,46.66C131.896,47.176 131.842,47.599 131.746,47.98C131.648,48.361 131.507,48.698 131.366,49.034C131.458,49.644 131.62,49.399 131.455,49.974C131.57,50.605 132.179,51.224 132.152,51.866C132.114,52.784 132.521,53.105 131.63,54.496C131.195,55.176 131.701,56.775 132.072,57.475C132.295,57.891 132.435,58.326 132.553,58.767C132.531,58.803 132.507,58.84 132.486,58.875C132.372,58.402 132.129,57.915 131.868,57.432C131.548,56.837 131.553,56.16 131.325,55.693C131.299,55.639 131.268,55.587 131.233,55.537C131.244,55.526 131.255,55.516 131.264,55.507C131.472,55.283 131.36,54.957 131.472,54.618C131.639,54.372 131.787,53.96 131.956,53.714C132.112,53.154 132.131,51.972 132.005,51.42C131.787,50.936 131.57,50.452 131.353,49.968C131.295,49.74 131.448,49.591 131.413,49.375C131.38,49.171 130.951,48.181 130.819,48.042C129.392,47.755 130.082,50.003 130.109,50.886C130.03,50.886 129.95,50.886 129.872,50.886C128.793,49.435 126.956,48.554 125.665,47.301C125.375,47.02 124.712,46.153 124.065,46.412C123.842,46.547 123.839,46.829 123.947,47.064C123.581,46.907 123.43,46.537 122.969,46.471C122.813,46.548 122.609,46.646 122.526,46.797C122.344,47.269 123.056,47.64 123.177,48.012C122.959,47.992 122.742,47.972 122.526,47.954C122.378,49.061 123.626,49.533 123.888,50.382C123.848,50.363 123.809,50.343 123.77,50.323C123.499,50.179 123.345,50.005 122.94,49.968C122.624,50.5 123.924,52.027 124.214,52.397C124.47,52.732 124.728,53.068 124.985,53.405C125.191,53.898 125.399,54.393 125.606,54.886C125.857,55.228 126.572,55.736 127.404,56.075C127.348,56.125 127.293,56.174 127.238,56.227C127.301,56.302 127.365,56.375 127.429,56.449C126.982,58.933 127.838,62.074 130.298,61.407C133.362,60.576 134.977,54.607 135.907,52.145C136.79,54.519 137.636,56.845 137.473,59.19C137.287,61.858 135.573,64.114 134.603,66.626C134.221,67.613 134.21,68.776 133.819,69.626C131.206,72.302 128.493,74.691 129.386,79.932C129.478,80.482 129.881,81.045 129.907,81.627C129.993,83.599 128.642,85.672 129.124,87.758C129.179,88.372 129.539,87.402 130.037,87.628C128.281,91.828 126.934,96.439 124.689,100.151C122.436,99.793 120.891,98.813 118.689,98.586C115.256,98.232 111.944,99.96 108.645,100.282C107.758,100.368 106.58,100.21 105.515,100.282C104.844,100.326 104.035,100.651 103.557,100.542C103.027,100.422 103.162,100.067 102.776,99.759C102.429,99.484 101.909,99.298 101.471,98.977C100.951,98.596 100.575,98.267 99.906,97.934C98.984,97.474 98.545,96.413 97.296,96.108C95.972,96.531 94.71,97.682 95.21,99.5C94.91,99.678 94.886,100.133 94.688,100.413C94.739,101.145 94.89,101.777 94.818,102.631C95.636,102.224 94.64,103.158 95.471,103.022C95.399,103.311 94.715,103.192 95.08,103.544C95.112,103.963 95.482,103.965 95.791,103.855C95.891,103.791 96,103.731 96.123,103.675C96.044,103.739 95.922,103.807 95.791,103.855C94.273,104.835 95.601,106.685 96.384,107.85C95.888,107.562 95.311,108.628 94.557,107.85C94.6,108.156 94.763,108.339 94.688,108.764C94.435,108.742 93.963,109.01 93.906,109.546C93.011,109.353 93.512,107.766 93.383,106.806C94.222,106.907 95.075,107.604 95.732,107.458C95.523,106.509 94.832,106.561 94.167,106.285C94.225,105.951 94.349,105.684 94.558,105.501C94.195,105.36 93.899,106.404 93.384,106.545C93.208,106.505 93.276,106.218 93.254,106.023C92.377,107.363 91.915,109.12 91.689,111.11L91.689,111.632C91.646,113.204 92.685,114.759 94.302,113.843ZM179.39,47.836L179.635,47.727L179.754,48.387L179.28,48.597C179.3,48.346 179.337,48.093 179.39,47.836ZM179.424,47.655C179.457,47.508 179.498,47.358 179.542,47.208L179.608,47.574L179.424,47.655ZM179.659,46.837L180.596,46.422L180.708,47.086L179.76,47.506L179.649,46.876C179.649,46.862 179.654,46.851 179.659,46.837ZM180.663,52.548L181.567,52.149L181.68,52.811L181.184,53.029C181.001,52.892 180.83,52.742 180.669,52.582L180.663,52.548ZM187.37,53.1L188.243,52.715L188.316,53.397L187.449,53.779L187.37,53.1ZM194.523,50.824L194.582,50.799C194.561,50.814 194.543,50.83 194.523,50.844L194.523,50.824ZM195.416,46.908L196.307,46.514L196.326,47.221L195.439,47.612L195.416,46.908ZM196.307,40.343L197.26,39.921L197.269,40.632L196.323,41.051L196.307,40.343ZM197.431,41.442L197.421,40.73L198.357,40.316L198.361,41.031L197.431,41.442ZM198.362,41.195L198.365,41.913L197.442,42.321L197.433,41.605L198.362,41.195ZM197.419,40.565L197.41,39.854L198.351,39.437L198.356,40.15L197.419,40.565ZM197.408,39.689L197.399,38.977L198.348,38.556L198.351,39.27L197.408,39.689ZM197.398,38.812L197.389,38.1L198.345,37.676L198.348,38.39L197.398,38.812ZM198.37,42.794L197.455,43.198L197.446,42.488L198.367,42.081L198.37,42.794ZM197.385,37.936L197.378,37.225L198.342,36.798L198.344,37.512L197.385,37.936ZM197.376,37.059L197.367,36.348L197.482,36.297C197.787,36.379 198.073,36.482 198.34,36.604L198.34,36.632L197.376,37.059ZM192.168,46.416L192.124,45.721L193.049,45.311L193.087,46.009L192.168,46.416ZM193.096,46.171L193.135,46.87L192.223,47.273L192.179,46.578L193.096,46.171ZM182.854,44.542L183.826,44.11L183.918,44.783L182.95,45.212L182.854,44.542ZM182.919,46.106L181.972,46.526L181.867,45.859L182.822,45.436L182.919,46.106ZM191.968,45.625L191.051,46.03L191,45.338L191.923,44.93L191.968,45.625ZM191.91,42.289L192.865,41.867L192.902,42.566L191.954,42.986L191.91,42.289ZM190.988,45.177L190.938,44.481L191.867,44.068L191.912,44.768L190.988,45.177ZM190.967,46.946L190.048,47.354L189.99,46.665L190.916,46.256L190.967,46.946ZM189.976,46.505L189.918,45.816L190.853,45.404L190.904,46.095L189.976,46.505ZM189.905,45.657L189.848,44.962L190.788,44.546L190.839,45.242L189.905,45.657ZM189.835,44.804L189.778,44.114L190.726,43.695L190.777,44.388L189.835,44.804ZM189.902,47.417L188.992,47.82L188.928,47.133L189.843,46.728L189.902,47.417ZM188.912,46.976L188.849,46.29L189.772,45.881L189.831,46.57L188.912,46.976ZM188.927,48.729L188.012,49.133L187.941,48.451L188.862,48.044L188.927,48.729ZM187.925,48.293L187.853,47.61L188.781,47.199L188.847,47.884L187.925,48.293ZM187.836,47.452L187.766,46.769L188.702,46.356L188.767,47.042L187.836,47.452ZM186.354,45.63L186.432,46.31L185.488,46.727L185.405,46.051L186.354,45.63ZM185.385,45.894L185.301,45.218L186.257,44.794L186.336,45.474L185.385,45.894ZM186.45,46.467L186.528,47.151L185.592,47.566L185.507,46.885L186.45,46.467ZM186.626,47.987L185.696,48.398L185.612,47.722L186.546,47.308L186.626,47.987ZM186.6,46.401L187.531,45.988L187.601,46.676L186.677,47.085L186.6,46.401ZM186.503,45.563L187.442,45.148L187.514,45.831L186.58,46.243L186.503,45.563ZM187.504,44.241L188.462,43.817L188.526,44.502L187.573,44.924L187.504,44.241ZM188.541,44.662L188.606,45.348L187.662,45.765L187.591,45.082L188.541,44.662ZM188.62,45.506L188.685,46.197L187.748,46.611L187.678,45.924L188.62,45.506ZM187.778,48.356L186.869,48.758L186.791,48.079L187.708,47.674L187.778,48.356ZM186.773,47.922L186.694,47.243L187.618,46.835L187.69,47.517L186.773,47.922ZM186.723,48.823L185.8,49.23L185.716,48.555L186.645,48.144L186.723,48.823ZM185.761,50.127L184.856,50.527L184.764,49.855L185.676,49.452L185.761,50.127ZM184.827,51.42L183.917,51.821L183.819,51.152L184.734,50.748L184.827,51.42ZM184.651,49.025L185.571,48.62L185.655,49.297L184.742,49.699L184.651,49.025ZM184.63,48.871L184.538,48.198L185.463,47.789L185.55,48.464L184.63,48.871ZM184.518,48.041L184.427,47.364L185.359,46.951L185.444,47.631L184.518,48.041ZM184.405,47.208L184.315,46.534L185.254,46.118L185.339,46.794L184.405,47.208ZM184.292,46.376L184.202,45.703L185.149,45.284L185.234,45.96L184.292,46.376ZM184.371,48.105L183.433,48.521L183.333,47.845L184.278,47.428L184.371,48.105ZM183.312,47.691L183.214,47.021L184.166,46.6L184.257,47.273L183.312,47.691ZM183.191,46.865L183.094,46.195L184.052,45.771L184.144,46.443L183.191,46.865ZM183.072,46.04L182.974,45.369L183.94,44.941L184.031,45.614L183.072,46.04ZM183.868,43.214L184.837,42.785L184.92,43.462L183.958,43.888L183.868,43.214ZM184.94,43.617L185.025,44.293L184.069,44.716L183.979,44.044L184.94,43.617ZM185.045,44.452L185.128,45.129L184.18,45.549L184.09,44.875L185.045,44.452ZM185.094,43.549L186.065,43.118L186.144,43.797L185.178,44.225L185.094,43.549ZM186.161,43.956L186.238,44.637L185.281,45.061L185.197,44.384L186.161,43.956ZM186.218,43.051L187.179,42.626L187.249,43.308L186.295,43.73L186.218,43.051ZM187.265,43.466L187.337,44.149L186.391,44.569L186.313,43.888L187.265,43.466ZM187.354,44.308L187.425,44.99L186.486,45.406L186.409,44.727L187.354,44.308ZM187.418,43.399L188.382,42.972L188.446,43.658L187.488,44.083L187.418,43.399ZM188.378,41.214L189.344,40.785L189.401,41.475L188.44,41.901L188.378,41.214ZM189.417,41.634L189.473,42.322L188.52,42.746L188.457,42.06L189.417,41.634ZM189.486,42.483L189.544,43.173L188.597,43.591L188.534,42.904L189.486,42.483ZM189.557,43.333L189.615,44.021L188.675,44.437L188.612,43.751L189.557,43.333ZM189.628,44.18L189.686,44.869L188.754,45.282L188.691,44.595L189.628,44.18ZM189.7,45.028L189.758,45.722L188.833,46.132L188.77,45.441L189.7,45.028ZM189.708,43.265L190.663,42.842L190.714,43.534L189.765,43.955L189.708,43.265ZM190.692,41.069L191.651,40.643L191.693,41.337L190.74,41.759L190.692,41.069ZM191.646,38.003L192.636,37.564L192.673,38.264L191.69,38.7L191.646,38.003ZM192.683,38.424L192.718,39.124L191.742,39.558L191.699,38.862L192.683,38.424ZM191.749,42.196L190.802,42.615L190.753,41.922L191.704,41.5L191.749,42.196ZM191.759,42.356L191.802,43.051L190.863,43.467L190.813,42.776L191.759,42.356ZM191.813,43.213L191.857,43.909L190.926,44.321L190.876,43.628L191.813,43.213ZM191.856,41.433L192.817,41.008L192.855,41.706L191.898,42.13L191.856,41.433ZM192.837,38.356L193.809,37.925L193.839,38.627L192.874,39.055L192.837,38.356ZM193.846,38.79L193.877,39.493L192.918,39.917L192.882,39.218L193.846,38.79ZM192.948,43.426L192.005,43.843L191.963,43.148L192.91,42.729L192.948,43.426ZM192.956,43.587L192.995,44.29L192.061,44.703L192.018,44.003L192.956,43.587ZM193.003,44.452L193.041,45.15L192.114,45.56L192.072,44.866L193.003,44.452ZM193.015,41.8L193.957,41.383L193.988,42.083L193.05,42.499L193.015,41.8ZM192.133,48.191L191.238,48.587L191.187,47.896L192.088,47.498L192.133,48.191ZM191.176,47.735L191.124,47.044L192.032,46.642L192.078,47.336L191.176,47.735ZM191.112,46.882L191.062,46.19L191.977,45.785L192.023,46.48L191.112,46.882ZM191.095,48.65L190.189,49.05L190.132,48.362L191.042,47.959L191.095,48.65ZM190.119,48.203L190.061,47.515L190.979,47.109L191.031,47.8L190.119,48.203ZM190.119,49.961L189.23,50.355L189.167,49.669L190.06,49.273L190.119,49.961ZM189.151,49.51L189.085,48.825L189.987,48.426L190.047,49.114L189.151,49.51ZM189.071,48.666L189.006,47.979L189.915,47.578L189.975,48.267L189.071,48.666ZM189.007,49.573L188.1,49.973L188.028,49.291L188.942,48.888L189.007,49.573ZM188.047,50.878L187.157,51.27L187.08,50.591L187.975,50.195L188.047,50.878ZM187.061,50.433L186.982,49.754L187.885,49.355L187.957,50.036L187.061,50.433ZM186.964,49.596L186.886,48.917L187.796,48.515L187.868,49.196L186.964,49.596ZM186.917,50.496L186.01,50.896L185.925,50.221L186.838,49.817L186.917,50.496ZM185.906,50.064L185.821,49.389L186.741,48.982L186.821,49.661L185.906,50.064ZM185.867,50.96L184.969,51.357L184.877,50.684L185.782,50.285L185.867,50.96ZM184.94,52.25L184.039,52.648L183.94,51.978L184.848,51.577L184.94,52.25ZM184.02,53.534L183.137,53.924L183.031,53.257L183.92,52.865L184.02,53.534ZM183.005,53.104L182.901,52.437L183.797,52.041L183.896,52.71L183.005,53.104ZM183.796,50.997L183.697,50.327L184.619,49.919L184.711,50.592L183.796,50.997ZM183.674,50.172L183.576,49.502L184.506,49.09L184.598,49.762L183.674,50.172ZM183.554,49.346L183.456,48.676L184.393,48.262L184.485,48.935L183.554,49.346ZM183.529,50.236L182.617,50.639L182.512,49.972L183.429,49.565L183.529,50.236ZM182.488,49.817L182.382,49.151L183.307,48.741L183.406,49.411L182.488,49.817ZM182.358,48.997L182.252,48.326L183.185,47.912L183.284,48.587L182.358,48.997ZM182.229,48.171L182.124,47.503L183.064,47.087L183.162,47.757L182.229,48.171ZM182.1,47.348L181.996,46.681L182.942,46.261L183.041,46.93L182.1,47.348ZM182.079,48.236L181.133,48.655L181.021,47.99L181.974,47.57L182.079,48.236ZM180.997,47.836L180.887,47.173L181.844,46.748L181.95,47.414L180.997,47.836ZM180.86,47.02L180.75,46.355L181.716,45.927L181.82,46.594L180.86,47.02ZM180.723,46.2L180.611,45.536L181.585,45.105L181.69,45.771L180.723,46.2ZM181.507,43.547C181.574,43.462 181.643,43.376 181.713,43.291L182.459,42.959L182.558,43.629L181.587,44.058L181.507,43.547ZM182.58,43.786L182.679,44.456L181.716,44.883L181.611,44.215L182.58,43.786ZM182.699,44.611L182.798,45.28L181.842,45.703L181.738,45.037L182.699,44.611ZM182.733,43.718L183.714,43.283L183.805,43.956L182.83,44.389L182.733,43.718ZM183.646,41.554L184.629,41.117L184.713,41.793L183.735,42.227L183.646,41.554ZM184.733,41.951L184.816,42.628L183.846,43.058L183.757,42.385L184.733,41.951ZM184.787,41.047L185.78,40.606L185.857,41.286L184.869,41.724L184.787,41.047ZM185.875,41.444L185.953,42.125L184.973,42.56L184.89,41.882L185.875,41.444ZM185.971,42.283L186.047,42.962L185.075,43.394L184.992,42.716L185.971,42.283ZM186.03,41.375L187.005,40.943L187.075,41.626L186.107,42.055L186.03,41.375ZM187.092,41.784L187.162,42.468L186.201,42.894L186.124,42.213L187.092,41.784ZM187.159,40.875L188.146,40.438L188.209,41.124L187.23,41.559L187.159,40.875ZM188.225,41.282L188.288,41.969L187.316,42.4L187.246,41.716L188.225,41.282ZM188.303,42.127L188.367,42.812L187.402,43.241L187.331,42.558L188.303,42.127ZM188.301,40.368L189.276,39.936L189.332,40.626L188.366,41.055L188.301,40.368ZM189.292,38.167L190.291,37.724L190.34,38.417L189.347,38.857L189.292,38.167ZM190.402,39.27L189.417,39.707L189.36,39.018L190.351,38.579L190.402,39.27ZM190.415,39.431L190.464,40.123L189.487,40.557L189.43,39.868L190.415,39.431ZM190.477,40.285L190.526,40.977L189.556,41.408L189.5,40.718L190.477,40.285ZM190.539,41.137L190.589,41.828L189.625,42.254L189.569,41.566L190.539,41.137ZM190.601,41.989L190.651,42.681L189.696,43.105L189.638,42.415L190.601,41.989ZM190.631,40.216L191.597,39.787L191.64,40.483L190.679,40.909L190.631,40.216ZM191.595,37.146L192.594,36.702L192.629,37.403L191.638,37.841L191.595,37.146ZM192.727,39.286L192.763,39.986L191.793,40.416L191.751,39.719L192.727,39.286ZM192.772,40.146L192.809,40.845L191.847,41.271L191.804,40.575L192.772,40.146ZM192.794,37.494L193.773,37.06L193.803,37.762L192.83,38.194L192.794,37.494ZM193.884,39.654L193.913,40.354L192.963,40.776L192.926,40.079L193.884,39.654ZM193.92,40.518L193.95,41.221L193.007,41.639L192.971,40.94L193.92,40.518ZM193.93,36.99L194.92,36.551L194.943,37.257L193.959,37.695L193.93,36.99ZM194.972,38.126L193.994,38.558L193.966,37.856L194.949,37.419L194.972,38.126ZM193.995,42.247L194.027,42.949L193.096,43.36L193.061,42.662L193.995,42.247ZM194.034,43.11L194.065,43.817L193.142,44.225L193.106,43.522L194.034,43.11ZM194.072,43.979L194.104,44.68L193.188,45.085L193.15,44.387L194.072,43.979ZM194.11,44.842L194.141,45.543L193.233,45.945L193.195,45.247L194.11,44.842ZM194.149,45.706L194.18,46.408L193.279,46.806L193.241,46.107L194.149,45.706ZM194.188,46.57L194.219,47.27L193.325,47.666L193.287,46.968L194.188,46.57ZM194.146,42.181L195.093,41.76L195.117,42.466L194.176,42.883L194.146,42.181ZM195.122,42.628L195.146,43.337L194.213,43.751L194.182,43.043L195.122,42.628ZM195.152,43.501L195.176,44.206L194.25,44.616L194.219,43.913L195.152,43.501ZM195.182,44.368L195.207,45.073L194.286,45.479L194.257,44.777L195.182,44.368ZM195.211,45.236L195.237,45.941L194.324,46.344L194.293,45.643L195.211,45.236ZM193.465,50.245L193.426,49.548L194.304,49.159L194.336,49.86L193.465,50.245ZM194.345,50.022L194.377,50.724L193.512,51.104L193.473,50.406L194.345,50.022ZM195.243,46.103L195.267,46.808L194.362,47.208L194.331,46.507L195.243,46.103ZM195.272,46.972L195.297,47.676L194.399,48.072L194.368,47.37L195.272,46.972ZM195.303,47.839L195.328,48.542L194.438,48.935L194.406,48.234L195.303,47.839ZM196.259,44.606L195.351,45.009L195.329,44.304L196.241,43.899L196.259,44.606ZM196.249,37.725L197.224,37.294L197.234,38.005L196.264,38.434L196.249,37.725ZM195.3,43.437L196.22,43.029L196.237,43.737L195.323,44.142L195.3,43.437ZM196.231,36.852L197.212,36.416L197.221,37.126L196.244,37.559L196.231,36.852ZM197.378,47.637L196.488,48.03L196.471,47.323L197.366,46.927L197.378,47.637ZM196.467,47.16L196.449,46.451L197.351,46.052L197.363,46.763L196.467,47.16ZM196.445,46.286L196.428,45.58L197.339,45.178L197.349,45.887L196.445,46.286ZM196.425,45.415L196.408,44.707L197.325,44.303L197.335,45.013L196.425,45.415ZM196.404,44.544L196.387,43.836L197.31,43.428L197.322,44.137L196.404,44.544ZM196.384,43.672L196.367,42.964L197.298,42.552L197.309,43.263L196.384,43.672ZM196.363,42.8L196.346,42.087L197.285,41.671L197.295,42.388L196.363,42.8ZM196.343,41.923L196.326,41.215L197.273,40.796L197.283,41.507L196.343,41.923ZM196.303,40.178L196.287,39.469L197.248,39.044L197.258,39.756L196.303,40.178ZM196.283,39.305L196.267,38.598L197.234,38.169L197.244,38.879L196.283,39.305ZM196.28,45.479L195.381,45.876L195.357,45.172L196.263,44.771L196.28,45.479ZM195.36,49.409L194.476,49.799L194.446,49.098L195.335,48.706L195.36,49.409ZM194.468,50.888C194.166,51.124 193.855,51.353 193.537,51.572L193.521,51.267L194.385,50.886L194.388,50.951C194.415,50.93 194.442,50.908 194.468,50.888ZM193.417,49.385L193.379,48.687L194.264,48.297L194.296,48.998L193.417,49.385ZM193.372,48.526L193.334,47.827L194.226,47.433L194.258,48.134L193.372,48.526ZM193.374,51.166L192.498,51.552L192.454,50.857L193.335,50.468L193.374,51.166ZM192.443,50.696L192.397,50.002L193.286,49.609L193.325,50.307L192.443,50.696ZM192.387,49.84L192.342,49.146L193.239,48.75L193.278,49.447L192.387,49.84ZM192.333,48.984L192.288,48.289L193.192,47.89L193.231,48.588L192.333,48.984ZM192.278,48.128L192.233,47.434L193.144,47.032L193.183,47.729L192.278,48.128ZM192.246,49.902L191.364,50.292L191.314,49.601L192.201,49.209L192.246,49.902ZM191.3,49.44L191.25,48.747L192.145,48.352L192.191,49.047L191.3,49.44ZM191.289,51.206L190.405,51.596L190.347,50.907L191.237,50.514L191.289,51.206ZM190.333,50.747L190.275,50.059L191.171,49.663L191.224,50.354L190.333,50.747ZM190.262,49.899L190.204,49.21L191.108,48.811L191.159,49.502L190.262,49.899ZM190.266,51.657L189.391,52.042L189.326,51.357L190.207,50.968L190.266,51.657ZM189.311,51.199L189.246,50.514L190.133,50.121L190.192,50.809L189.311,51.199ZM189.251,52.104L188.365,52.494L188.293,51.812L189.184,51.418L189.251,52.104ZM188.205,50.972L189.104,50.575L189.169,51.261L188.276,51.655L188.205,50.972ZM188.188,50.814L188.116,50.132L189.023,49.732L189.089,50.417L188.188,50.814ZM188.136,51.717L187.255,52.105L187.175,51.427L188.064,51.035L188.136,51.717ZM187.31,53.841L186.432,54.228L186.348,53.552L187.232,53.163L187.31,53.841ZM186.535,54.286C186.447,54.295 186.361,54.303 186.274,54.309C186.359,54.303 186.447,54.294 186.535,54.286ZM186.326,53.395L186.241,52.72L187.132,52.326L187.212,53.005L186.326,53.395ZM186.221,52.562L186.135,51.888L187.034,51.49L187.113,52.169L186.221,52.562ZM186.115,51.729L186.03,51.053L186.936,50.653L187.015,51.333L186.115,51.729ZM186.079,52.625L185.196,53.015L185.104,52.342L185.994,51.949L186.079,52.625ZM185.082,52.186L184.99,51.514L185.887,51.118L185.974,51.793L185.082,52.186ZM185.056,53.077L184.161,53.473L184.062,52.803L184.963,52.406L185.056,53.077ZM184.122,54.219C183.419,54.107 182.768,53.909 182.185,53.632L182.889,53.32L182.988,53.948C183.08,53.979 183.173,54.007 183.265,54.032L184.043,53.689L184.122,54.219ZM182.875,52.282L182.771,51.616L183.674,51.217L183.773,51.886L182.875,52.282ZM182.747,51.461L182.641,50.794L183.553,50.391L183.652,51.062L182.747,51.461ZM182.733,52.345L181.823,52.747L181.71,52.084L182.627,51.68L182.733,52.345ZM181.686,51.93L181.573,51.267L182.495,50.859L182.601,51.525L181.686,51.93ZM181.547,51.112L181.435,50.448L182.364,50.037L182.471,50.703L181.547,51.112ZM181.409,50.295L181.297,49.631L182.235,49.216L182.341,49.883L181.409,50.295ZM181.272,49.477L181.159,48.81L182.102,48.391L182.209,49.062L181.272,49.477ZM181.262,50.361L180.342,50.768L180.224,50.107L181.149,49.698L181.262,50.361ZM180.197,49.953L180.076,49.287L181.01,48.874L181.124,49.542L180.197,49.953ZM180.05,49.135L179.931,48.474L180.871,48.057L180.984,48.72L180.05,49.135ZM179.905,48.321L179.786,47.66L180.734,47.241L180.846,47.905L179.905,48.321ZM180.109,45.76L180.458,45.605L180.57,46.268L179.731,46.639C179.707,46.705 179.682,46.771 179.659,46.836C179.782,46.48 179.934,46.12 180.109,45.76ZM180.393,45.218L180.432,45.451L180.215,45.549C180.27,45.438 180.331,45.328 180.393,45.218ZM180.521,44.991C180.601,44.857 180.684,44.722 180.771,44.587L181.457,44.283L181.561,44.95L180.586,45.383L180.521,44.991ZM181.432,44.128L180.923,44.356C181.065,44.143 181.213,43.934 181.37,43.725L181.432,44.128ZM181.926,43.029C182.074,42.853 182.233,42.678 182.392,42.505L182.435,42.804L181.926,43.029ZM183.491,41.407C183.482,41.415 183.474,41.424 183.465,41.431L183.471,41.466L183.388,41.503C183.423,41.47 183.457,41.439 183.491,41.407ZM183.581,42.295L182.593,42.734L182.537,42.349C182.708,42.167 182.886,41.987 183.068,41.808L183.491,41.621L183.581,42.295ZM183.603,42.453L183.694,43.127L182.713,43.562L182.615,42.891L183.603,42.453ZM184.552,40.495L184.61,40.96L183.626,41.397L183.612,41.294C183.914,41.022 184.227,40.754 184.552,40.495ZM185.25,39.961L185.686,39.769L185.763,40.449L184.768,40.89L184.705,40.377C184.655,40.415 184.603,40.455 184.554,40.493C184.78,40.313 185.012,40.137 185.25,39.961ZM186.815,39.102L185.869,39.522C186.17,39.315 186.48,39.115 186.797,38.92L186.815,39.102ZM186.902,39.943L185.92,40.379L185.843,39.698L186.831,39.26L186.902,39.943ZM186.917,40.101L186.988,40.785L186.012,41.217L185.936,40.537L186.917,40.101ZM187.975,38.587L186.974,39.031L186.953,38.824C187.276,38.629 187.608,38.44 187.944,38.26L187.975,38.587ZM188.053,39.434L187.058,39.874L186.989,39.19L187.989,38.746L188.053,39.434ZM188.067,39.591L188.131,40.277L187.143,40.716L187.074,40.032L188.067,39.591ZM189.123,38.078L188.134,38.516L188.102,38.175C188.427,38.004 188.756,37.842 189.091,37.686L189.123,38.078ZM189.192,38.926L188.21,39.363L188.147,38.676L189.135,38.237L189.192,38.926ZM189.205,39.086L189.262,39.775L188.286,40.208L188.223,39.521L189.205,39.086ZM190.253,37.188L190.28,37.563L189.28,38.007L189.249,37.613C189.31,37.585 189.368,37.556 189.429,37.53C189.706,37.409 189.979,37.296 190.253,37.188ZM191.427,37.056L190.439,37.494L190.413,37.127C190.749,36.999 191.083,36.878 191.41,36.773L191.427,37.056ZM191.479,37.911L190.498,38.348L190.45,37.653L191.437,37.215L191.479,37.911ZM191.534,38.769L190.559,39.202L190.511,38.509L191.491,38.073L191.534,38.769ZM191.543,38.93L191.586,39.626L190.62,40.055L190.57,39.362L191.543,38.93ZM191.57,36.724C191.912,36.616 192.248,36.525 192.578,36.444L192.584,36.542L191.584,36.985L191.57,36.724ZM193.047,36.335L192.742,36.471L192.738,36.405C192.842,36.381 192.946,36.357 193.047,36.335ZM193.692,36.215C193.706,36.213 193.723,36.211 193.738,36.208L193.766,36.897L192.786,37.332L192.751,36.632L193.692,36.215ZM194.906,36.076L194.915,36.388L193.923,36.828L193.897,36.184C194.243,36.133 194.579,36.095 194.906,36.076ZM195,38.994L194.029,39.424L194.001,38.72L194.977,38.288L195,38.994ZM195.029,39.86L194.065,40.288L194.036,39.587L195.006,39.157L195.029,39.86ZM195.059,40.729L194.103,41.152L194.072,40.45L195.035,40.024L195.059,40.729ZM195.064,40.893L195.087,41.598L194.139,42.017L194.11,41.316L195.064,40.893ZM195.656,36.059L195.073,36.317L195.065,36.068C195.265,36.06 195.462,36.057 195.656,36.059ZM196.071,36.756L195.099,37.187L195.076,36.481L195.999,36.071C196.018,36.072 196.037,36.072 196.055,36.074L196.071,36.756ZM196.092,37.629L195.125,38.057L195.104,37.351L196.076,36.92L196.092,37.629ZM196.111,38.502L195.153,38.926L195.132,38.22L196.096,37.792L196.111,38.502ZM196.131,39.372L195.18,39.794L195.158,39.089L196.116,38.666L196.131,39.372ZM196.152,40.246L195.209,40.663L195.186,39.958L196.135,39.537L196.152,40.246ZM196.174,41.117L195.237,41.531L195.213,40.826L196.156,40.409L196.174,41.117ZM196.194,41.989L195.264,42.4L195.243,41.695L196.176,41.281L196.194,41.989ZM196.199,42.152L196.216,42.865L195.294,43.273L195.27,42.563L196.199,42.152ZM196.214,36.083C196.563,36.111 196.894,36.163 197.21,36.233L197.21,36.25L196.227,36.687L196.214,36.083ZM199.218,37.125L198.497,37.444L198.496,36.729L198.552,36.704C198.791,36.827 199.014,36.967 199.218,37.125ZM198.533,46.413L198.659,46.356C198.618,46.419 198.575,46.48 198.533,46.543L198.533,46.413ZM199.456,38.948L199.451,39.664L198.504,40.084L198.502,39.37L199.456,38.948ZM198.502,39.204L198.5,38.49L199.459,38.065L199.456,38.783L198.502,39.204ZM199.451,39.833L199.448,40.55L198.508,40.965L198.506,40.251L199.451,39.833ZM199.447,40.714L199.444,41.437L198.512,41.849L198.51,41.13L199.447,40.714ZM199.443,41.603L199.441,42.32L198.516,42.73L198.513,42.015L199.443,41.603ZM199.439,42.485L199.437,43.202L198.52,43.607L198.517,42.894L199.439,42.485ZM199.437,43.368L199.434,44.085L198.523,44.488L198.52,43.775L199.437,43.368ZM199.433,44.252L199.431,44.967L198.528,45.366L198.525,44.653L199.433,44.252ZM199.464,37.334L199.461,37.897L198.499,38.322L198.497,37.609L199.347,37.232C199.385,37.267 199.426,37.298 199.464,37.334ZM200.521,40.239L200.512,40.965L199.591,41.372L199.594,40.649L200.521,40.239ZM199.596,40.483L199.6,39.765L200.535,39.352L200.525,40.072L199.596,40.483ZM200.511,41.131L200.499,41.852L199.586,42.256L199.588,41.537L200.511,41.131ZM199.615,37.49C199.69,37.568 199.762,37.649 199.829,37.734L199.613,37.831L199.615,37.49ZM200.273,38.42L199.606,38.715L199.611,37.997L199.928,37.857C200.06,38.032 200.174,38.22 200.273,38.42ZM200.537,39.117L200.536,39.185L199.601,39.599L199.606,38.882L200.333,38.56C200.413,38.737 200.482,38.922 200.537,39.117ZM200.675,39.8C200.683,39.865 200.689,39.931 200.695,39.996L200.672,40.007L200.675,39.8ZM200.639,39.57C200.631,39.535 200.628,39.498 200.619,39.462C200.627,39.498 200.631,39.536 200.639,39.57ZM200.712,40.875L200.658,40.899L200.669,40.173L200.709,40.156C200.719,40.31 200.725,40.469 200.722,40.633C200.722,40.712 200.715,40.795 200.712,40.875ZM200.703,41.045C200.691,41.203 200.672,41.362 200.65,41.521L200.657,41.066L200.703,41.045ZM200.371,42.79L199.582,43.139L199.585,42.422L200.497,42.018L200.494,42.331C200.552,42.091 200.598,41.852 200.635,41.615C200.575,42 200.488,42.394 200.371,42.79ZM200.003,43.834L199.577,44.022L199.581,43.304L200.31,42.982C200.331,42.918 200.351,42.855 200.37,42.789C200.27,43.136 200.144,43.486 200.003,43.834ZM199.574,44.777L199.576,44.189L199.913,44.04C199.809,44.285 199.697,44.531 199.574,44.777ZM199.571,44.784C199.512,44.901 199.451,45.019 199.389,45.134C199.451,45.017 199.512,44.9 199.571,44.784ZM198.811,46.124L198.532,46.247L198.529,45.534L199.376,45.16C199.202,45.481 199.014,45.805 198.811,46.124ZM197.521,47.74L197.723,47.651C197.657,47.734 197.591,47.818 197.524,47.9L197.521,47.74ZM197.507,46.865L198.392,46.474L198.394,46.746C198.241,46.965 198.084,47.183 197.921,47.398L197.517,47.576L197.507,46.865ZM197.495,45.99L198.386,45.596L198.392,46.309L197.505,46.7L197.495,45.99ZM197.482,45.114L198.381,44.716L198.385,45.429L197.492,45.824L197.482,45.114ZM197.47,44.238L198.377,43.837L198.38,44.551L197.479,44.949L197.47,44.238ZM197.467,44.074L197.457,43.362L198.371,42.958L198.374,43.671L197.467,44.074ZM196.735,48.802L196.51,48.902L196.492,48.195L197.38,47.803L197.384,48.066C197.176,48.315 196.96,48.561 196.735,48.802ZM196.383,49.172C196.499,49.053 196.613,48.932 196.726,48.812C196.613,48.933 196.499,49.054 196.383,49.172ZM195.505,49.51L196.376,49.127L196.377,49.178C196.101,49.459 195.817,49.733 195.523,49.999L195.505,49.51ZM195.476,48.643L196.353,48.256L196.373,48.962L195.5,49.347L195.476,48.643ZM195.469,48.48L195.445,47.775L196.33,47.385L196.348,48.091L195.469,48.48ZM195.387,46.041L196.286,45.644L196.305,46.351L195.411,46.745L195.387,46.041ZM195.387,50.124C195.129,50.353 194.865,50.573 194.596,50.789C194.739,50.674 194.88,50.559 195.019,50.441L194.517,50.663L194.485,49.962L195.367,49.572L195.387,50.124ZM192.54,52.211L192.508,51.714L193.382,51.328L193.403,51.664C193.119,51.854 192.833,52.037 192.54,52.211ZM191.504,52.155L192.37,51.775L192.404,52.289C192.124,52.453 191.84,52.611 191.55,52.759L191.504,52.155ZM191.44,51.304L192.312,50.919L192.359,51.613L191.492,51.997L191.44,51.304ZM191.428,51.145L191.377,50.452L192.257,50.064L192.304,50.758L191.428,51.145ZM190.49,52.603L191.366,52.218L191.413,52.828C191.177,52.946 190.941,53.058 190.701,53.165C190.65,53.188 190.597,53.208 190.545,53.231L190.49,52.603ZM190.418,51.755L191.3,51.366L191.352,52.057L190.476,52.443L190.418,51.755ZM189.487,53.045L190.352,52.663L190.407,53.288C190.115,53.409 189.828,53.519 189.542,53.619L189.487,53.045ZM189.406,52.203L190.279,51.817L190.338,52.505L189.471,52.887L189.406,52.203ZM188.472,53.494L189.348,53.107L189.403,53.667C189.106,53.767 188.811,53.855 188.519,53.933L188.472,53.494ZM188.383,52.654L189.267,52.263L189.333,52.948L188.454,53.336L188.383,52.654ZM188.377,53.968C188.078,54.043 187.783,54.105 187.493,54.156L187.468,53.937L188.333,53.555L188.377,53.968ZM187.352,52.943L187.272,52.264L188.153,51.875L188.226,52.556L187.352,52.943ZM187.351,54.183C187.137,54.219 186.925,54.246 186.716,54.268L187.329,53.997L187.351,54.183ZM185.332,54L186.207,53.614L186.293,54.29L186.248,54.31C185.952,54.33 185.661,54.338 185.377,54.332L185.332,54ZM185.31,53.843L185.218,53.172L186.1,52.781L186.186,53.456L185.31,53.843ZM184.68,54.288L185.193,54.06L185.23,54.324C185.042,54.318 184.859,54.306 184.68,54.288ZM184.185,53.626L185.079,53.233L185.171,53.904L184.381,54.254C184.346,54.25 184.311,54.246 184.277,54.241L184.185,53.626ZM181.955,53.517L181.849,52.9L182.757,52.499L182.864,53.166L182.007,53.544C181.99,53.535 181.972,53.527 181.955,53.517ZM181.784,53.424C181.625,53.334 181.474,53.235 181.327,53.132L181.706,52.965L181.784,53.424ZM180.516,51.734L181.429,51.33L181.541,51.994L180.635,52.394L180.516,51.734ZM180.488,51.581L180.369,50.919L181.287,50.513L181.4,51.176L180.488,51.581ZM180.105,51.916L180.369,51.798L180.476,52.391C180.342,52.241 180.221,52.081 180.105,51.916ZM180.016,51.789C179.899,51.607 179.796,51.415 179.704,51.214L180.223,50.985L180.343,51.646L180.016,51.789ZM179.43,50.458L180.076,50.173L180.195,50.833L179.643,51.077C179.56,50.879 179.488,50.673 179.43,50.458ZM179.347,50.091C179.32,49.942 179.3,49.791 179.285,49.638L179.927,49.354L180.049,50.019L179.396,50.308C179.378,50.236 179.36,50.165 179.347,50.091ZM179.27,48.768L179.781,48.541L179.901,49.203L179.273,49.48C179.258,49.246 179.256,49.008 179.27,48.768ZM177.661,49.381C177.865,49.209 178.063,49.03 178.255,48.839C178.102,51.847 178.904,51.975 178.904,51.975C178.783,51.972 178.664,51.98 178.543,51.98C178.531,51.902 178.508,51.835 178.463,51.806C178.367,51.743 178.276,51.656 178.19,51.557L177.661,49.381ZM172.14,53.149C174.037,51.701 175.735,50.864 177.16,49.779C177.102,50.581 177.277,51.419 177.638,52.03C175.702,52.223 173.779,52.868 172.14,53.149ZM134.81,35.203C135.855,34.551 135.333,34.012 136.637,33.751C136.115,34.535 134.387,35.578 133.605,36.1C133.995,35.97 135.138,35.447 135.528,35.318C135.267,35.611 135.047,35.595 134.743,35.801C133.829,36.42 132.742,36.694 131.623,36.909C131.264,36.988 130.904,37.062 130.545,37.138C129.602,37.338 128.665,37.554 127.805,37.951C128.187,37.763 128.556,37.587 128.9,37.435C129.19,37.277 129.484,37.143 129.783,37.024C130.082,36.904 130.387,36.802 130.691,36.708C131.002,36.622 131.319,36.548 131.635,36.477C131.951,36.406 132.268,36.337 132.583,36.258C132.905,36.116 133.227,36.044 133.532,35.962C133.481,35.966 134.864,35.203 134.81,35.203ZM134.158,31.534C133.375,32.186 132.462,32.447 131.402,32.475C131.751,32.352 131.864,32.201 132.208,32.062C132.854,31.794 133.506,31.664 134.158,31.534ZM137.811,30.881C136.245,32.186 134.419,33.49 132.227,33.035C132.704,32.946 133.203,32.82 133.726,32.66C135.202,32.316 136.375,31.272 137.811,30.881ZM154.775,57.635C154.852,57.617 154.915,57.557 154.908,57.452C154.827,56.236 157.853,54.024 158.528,55.295C156.747,55.625 155.783,57.436 155.343,59.27C155.312,59.26 155.282,59.249 155.252,59.24C155.048,58.714 154.888,58.178 154.775,57.635ZM130.26,87.149C130.141,87.095 130.015,87.067 129.887,87.067C129.768,87.067 129.659,87.091 129.56,87.128C129.488,86.239 129.73,85.331 129.984,84.378C130.226,83.473 130.476,82.537 130.434,81.6C130.416,81.183 130.259,80.801 130.119,80.465C130.025,80.239 129.938,80.026 129.907,79.84C129.109,75.158 131.263,72.971 133.757,70.438C133.904,70.288 134.052,70.138 134.199,69.987L134.263,69.922L134.301,69.84C134.531,69.341 134.639,68.765 134.745,68.208C134.836,67.732 134.93,67.24 135.096,66.811C135.41,65.994 135.818,65.183 136.214,64.398C137.027,62.779 137.869,61.105 138,59.222C138.173,56.72 137.274,54.3 136.403,51.961L136.273,51.613C136.503,51.01 136.721,50.405 136.933,49.794C137.184,49.071 137.594,48.729 138.235,48.356C139.415,47.672 140.313,46.822 140.714,45.481C141.01,44.494 141.087,43.47 141.124,42.447C141.138,42.105 141.147,41.763 141.158,41.423C141.204,40.535 141.204,39.621 141.595,38.708C141.986,38.057 142.9,37.795 143.552,38.187C143.813,38.317 143.813,38.708 143.748,38.945C143.732,39.341 143.728,39.738 143.74,40.136C143.765,40.988 143.828,41.848 144.018,42.683C144.378,44.261 145.289,45.603 146.546,46.614C147.654,47.502 148.918,48.167 150.23,48.699C151.272,49.123 152.786,49.589 153.73,48.684C154.703,47.746 154.521,46.142 154.44,44.921C154.347,43.498 154.09,42.17 153.698,40.833C153.939,40.892 154.18,40.952 154.423,41.011C154.48,41.05 154.537,41.089 154.593,41.129C154.958,41.384 155.333,41.646 155.743,41.856C155.759,42.791 155.807,43.726 155.962,44.648C156.109,45.518 156.314,46.272 156.94,46.916C156.841,48.134 156.225,49.287 155.786,50.408C155.271,51.726 154.579,53.079 154.321,54.477C154.026,56.078 154.254,57.665 154.802,59.157L154.557,59.12L154.452,59.596C153.883,62.142 152.764,64.091 151.578,66.153C150.221,68.517 148.818,70.958 148.353,74.323C147.846,74.387 147.57,74.616 147.53,75.004C146.438,78.438 147.695,80.659 149.149,83.229C149.237,83.386 149.327,83.545 149.417,83.706C149.48,83.817 149.542,83.928 149.605,84.037C148.02,84.412 146.495,84.993 144.942,85.487C142.802,86.166 140.667,86.423 138.43,86.515C136.318,86.603 134.134,86.523 132.064,87.003C131.612,87.109 131.163,87.231 130.715,87.356L130.26,87.149ZM101.867,102.886C102.305,102.281 102.635,101.567 102.781,100.668L103.432,100.668C103.353,101.981 103.011,103.029 103.041,104.451C102.56,104.192 102.263,103.994 102.78,103.668C102.457,103.686 102.151,103.688 101.997,103.537C102.278,103.053 102.152,103.297 101.867,102.886ZM100.433,103.277C100.467,102.951 100.922,102.841 100.564,102.495C100.914,102.261 100.814,103.068 100.955,102.625C100.994,102.282 100.449,102.521 100.564,102.103C100.731,101.659 101.211,100.843 101.606,101.059C101.361,101.379 101.066,101.65 100.954,102.103C101.671,101.82 101.768,100.916 102.389,100.537C101.916,101.554 101.525,103.312 100.433,103.277ZM100.171,106.799C100.632,106.729 100.843,106.91 100.954,107.19C100.557,107.198 100.29,107.072 100.171,106.799ZM100.303,103.408C100.22,103.846 100.731,104.359 100.433,104.582C100.378,104.301 99.689,103.516 100.303,103.408ZM98.476,101.321C98.825,101.244 99.14,101.858 98.868,101.973C98.721,101.771 98.443,101.701 98.476,101.321ZM97.954,100.929C97.801,101.125 97.792,101.463 97.562,101.582C97.157,100.421 97.528,98.485 96.258,98.19C96.244,98.916 95.739,99.149 95.345,99.495C95.623,98.253 96.63,97.737 97.17,96.755C98.415,98.168 101.522,98.399 101.475,100.669C101.053,100.831 101.375,100.247 100.953,100.408C101.1,101.12 100.409,100.994 100.17,101.321C100.409,102.345 100.048,102.337 99.648,102.886C99.567,102.532 99.815,101.85 99.518,101.712C99.439,101.982 99.679,102.569 99.387,102.626C99.073,102.114 99.047,101.313 98.604,100.929C98.573,101.234 98.033,101.004 97.954,100.929ZM98.084,106.278C97.685,105.674 96.866,104.803 96.91,104.19C97.266,104.838 98.091,105.703 98.084,106.278ZM95.736,104.452C96.117,105.245 96.993,106.236 97.041,106.93C96.563,106.281 95.134,105.324 95.736,104.452Z"/>
    </g>
</svg>
