<?xml version="1.0" encoding="UTF-8" standalone="no"?>
<!DOCTYPE svg PUBLIC "-//W3C//DTD SVG 1.1//EN" "http://www.w3.org/Graphics/SVG/1.1/DTD/svg11.dtd">
<svg width="100%" height="100%" viewBox="0 0 1000 1122" version="1.1" xmlns="http://www.w3.org/2000/svg" xmlns:xlink="http://www.w3.org/1999/xlink" xml:space="preserve" xmlns:serif="http://www.serif.com/" style="fill-rule:evenodd;clip-rule:evenodd;stroke-linejoin:round;stroke-miterlimit:1.41421;">
    <g transform="matrix(9.34579,0,0,9.34579,-133.776,-135.766)">
        <path d="M120.002,45.988C119.814,45.463 119.402,44.864 119.065,44.348C117.859,42.51 116.297,41.218 114.147,40.424C112.719,40.148 111.191,39.887 109.462,40.073C108.068,40.222 106.835,40.797 105.598,41.303C104.339,41.819 103.237,42.416 102.259,43.118C100.294,44.531 98.407,46.233 97.106,48.27C95.595,50.642 94.688,53.693 93.184,56.293C92.123,58.125 90.762,59.803 89.319,61.387C88.886,61.862 88.147,62.763 87.738,62.792C87.167,62.833 86.843,62.206 86.216,62.149C85.25,62.058 84.076,62.743 83.464,62.675C83.246,62.651 82.705,62.206 82.411,62.03C80.243,60.741 79.111,59.29 77.785,57.287C77.207,56.416 76.428,55.607 76.087,54.653C75.698,53.569 75.669,51.695 75.619,50.085C75.568,48.465 75.403,46.547 75.501,45.05C75.589,43.713 75.869,41.689 76.262,40.599C76.524,39.872 77.128,38.728 76.672,37.847C76.891,37.355 76.913,36.732 76.848,36.149C76.792,35.638 76.725,35.009 76.614,34.567C76.453,33.941 75.784,33.488 75.914,32.946C76.036,32.626 76.377,32.963 76.665,32.859C77.136,32.468 77.046,31.336 76.9,30.721C77.067,30.72 77.254,30.726 77.367,30.644C77.7,30.204 77.494,30.039 77.494,29.747C77.828,29.605 78.08,29.453 78.119,29.023C78.184,28.754 78.051,28.204 78.275,28.057C78.717,27.798 79.385,28.084 79.485,27.481C79.445,26.698 78.65,26.114 78.559,25.393C78.519,25.083 78.789,24.644 78.598,24.396C79.006,24.121 79.181,23.706 79.365,23.208C81.073,23.513 83.128,22.635 83.439,21.566C83.664,20.794 82.206,20.473 81.399,20.199C80.511,19.899 79.788,19.759 79.014,19.342C78.022,18.092 76.817,17.051 75.969,15.654C74.036,14.916 71.789,14.165 69.47,14.718C68.368,14.98 67.292,15.801 66.483,16.416C66.151,16.668 65.702,16.801 65.487,17.001C64.996,17.459 64.926,18.284 64.55,18.816C64.054,18.79 63.696,19.285 63.204,19.461C62.693,19.643 62.113,19.68 61.563,19.871C61.054,20.376 60.528,20.934 60.51,21.685C60.479,22.884 61.452,23.965 61.388,25.316C61.063,25.528 61.009,26.047 60.801,26.311C60.67,26.478 60.408,26.491 60.275,26.662C60.132,26.848 60.132,27.172 59.983,27.366C59.724,27.701 59.188,28.176 58.752,28.42C57.885,28.905 56.835,28.886 56,29.357C55.768,29.488 55.557,29.725 55.298,29.942C55.057,30.143 54.69,30.274 54.536,30.469C54.366,30.69 54.447,31.006 54.303,31.231C54.136,31.491 53.802,31.66 53.601,31.991C53.392,32.336 53.298,32.575 53.191,33.046C53.382,33.303 53.358,33.776 53.601,33.983C52.938,34.532 52.472,35.228 51.961,35.974C51.675,36.39 51.461,36.941 51.2,37.261C51.053,37.441 50.771,37.57 50.614,37.73C50.139,38.212 49.864,38.938 50.146,39.779C49.843,40.297 49.467,40.598 49.268,41.184C49.15,41.531 49.181,41.981 49.033,42.355C48.896,42.704 48.55,42.947 48.331,43.293C48.1,43.661 47.986,44.092 47.805,44.464C47.08,45.946 46.619,47.59 45.697,48.797C45.582,48.955 45.663,49.309 45.637,49.559C45.073,49.891 44.554,50.271 44.29,50.906C43.432,51.003 43.188,51.989 42.534,52.428C42.303,52.583 41.971,52.608 41.715,52.779C41.201,53.124 40.759,53.84 40.309,54.419C39.798,55.076 39.153,55.534 38.904,56.117C38.804,56.351 38.832,56.658 38.729,56.936C38.532,57.469 38.065,57.997 37.91,58.518C37.838,58.755 37.921,59.035 37.85,59.278C37.723,59.726 37.245,60.09 37.382,60.625C36.896,61.116 36.46,61.656 35.861,62.03C35.718,62.377 35.619,62.764 35.391,63.027C35.254,64.374 34.667,65.651 34.221,67.124C33.787,68.554 33.788,70.159 33.459,71.692C33.396,71.985 33.197,72.273 33.108,72.629C33.016,72.996 33.027,73.411 32.933,73.8C32.756,74.53 32.388,75.368 32.465,75.967C32.496,76.213 32.656,76.329 32.875,76.611C33.375,77.258 33.849,77.895 34.514,78.192C33.706,82.912 33.753,88.346 32.758,92.713C32.655,93.166 32.597,93.651 32.466,94.059C31.958,95.633 31.123,96.605 30.24,97.689C29.071,99.128 27.639,100.28 26.609,101.788C25.174,103.89 24.345,106.053 23.33,108.755C22.822,110.53 21.918,111.91 21.516,113.791C21.124,113.927 21.025,114.354 20.521,114.377C21.091,114.949 20.477,115.565 20.111,116.016C20.422,116.771 19.972,117.399 19.583,118.183C19.335,118.684 19.107,119.237 18.881,119.648C18.63,120.103 18.292,120.54 18.06,120.994C17.792,121.521 17.7,122.109 17.416,122.517C17.218,122.801 16.874,122.906 16.655,123.16C16.498,123.344 16.488,123.602 16.362,123.805C16.001,124.396 15.409,124.891 15.191,125.561C14.93,127.057 15.364,129.248 14.314,129.954L14.314,131.476C14.586,131.709 14.816,131.988 15.016,132.295C15.737,132.241 15.829,132.756 16.188,133.057C16.554,133.363 16.896,133.423 17.241,133.701C18.98,133.963 22.008,134.305 23.975,134.052C24.884,133.935 25.469,133.332 26.025,132.998C26.464,131.298 25.518,130.017 24.21,129.544C24.075,129.224 23.946,128.673 24.094,128.255C24.556,128.35 24.687,128.865 25.44,128.782C26.79,128.634 26.437,126.656 25.732,125.796C25.2,125.147 24.631,125.043 24.15,124.566C24.06,124.109 24.574,123.96 24.678,123.513C24.834,122.845 24.564,122.049 24.678,121.23C24.859,120.876 25.119,120.812 25.029,120.293C25.249,119.999 25.812,119.958 25.615,119.415C26.146,119.628 26.292,120.037 26.962,120C27.295,120.016 28.245,121.525 28.66,120.878C28.933,120.452 28.041,119.776 27.606,119.472C27.076,119.103 26.013,118.773 26.085,118.359C26.144,118.007 26.428,118.25 26.669,118.126C26.889,117.74 27.111,117.358 27.314,116.954C27.064,116.168 27.154,116.029 27.606,115.432C28.011,114.897 28.348,114.565 28.66,114.144C28.847,113.894 28.906,113.596 29.069,113.383C29.537,112.774 30.13,112.256 30.592,111.625C31.986,109.726 32.952,107.39 34.047,105.243C35.299,102.761 37.604,101.007 39.141,98.861C39.371,98.537 39.675,98.178 39.843,97.864C40.04,97.499 40.06,97.038 40.254,96.694C40.498,96.259 40.887,95.918 41.132,95.465C41.9,94.039 42.337,92.18 42.713,90.371C43.471,86.723 43.983,83.042 45.407,80.183C46.478,80.319 47.503,80.181 48.568,80.123C49.497,80.074 50.432,80.274 51.321,80.123C51.573,80.081 51.827,79.922 52.081,79.89C52.686,79.812 53.141,79.875 53.78,79.772C54.17,79.71 54.599,79.648 54.95,79.597C55.318,79.544 55.58,79.377 55.888,79.421C56.457,79.504 57.37,80.613 57.937,81.119C60.019,82.977 62.383,84.361 64.436,85.979C66.592,87.678 68.267,89.707 70.116,91.601C70.757,92.257 71.413,92.906 71.813,93.709C71.944,97.449 71.597,100.527 72.167,103.604C72.387,104.793 72.775,105.942 73.162,107.059C73.545,108.17 74.114,109.191 74.509,110.221C75.079,111.705 75.612,113.636 76.09,115.315C76.339,116.189 76.768,117.006 76.383,117.715C76.212,118.03 75.807,118.193 75.68,118.534C75.528,118.949 75.564,119.452 75.446,119.941C75.385,120.189 75.215,120.433 75.153,120.702C75.056,121.121 75.177,121.61 75.094,122.107C75.03,122.491 74.639,122.9 74.51,123.336C74.447,123.544 74.514,123.822 74.45,123.98C74.326,124.289 73.954,124.426 73.865,124.683C73.587,125.478 74.081,126.094 74.45,126.557C75.262,126.774 76.01,126.949 76.909,127.025C78.316,127.144 79.938,126.776 81.418,127.025C81.736,127.079 81.957,127.328 82.297,127.435C83.79,127.905 85.682,127.891 87.391,127.846C89.097,127.798 90.793,127.374 92.369,127.26C92.612,127.054 92.949,126.942 93.13,126.674L93.13,125.445C92.725,124.36 91.737,124.153 90.671,123.688C90.39,123.566 90.13,123.385 89.851,123.278C89.53,123.153 89.186,123.111 88.914,122.985C88.247,122.68 87.914,122.131 87.333,121.814C87.357,121.365 86.94,121.27 86.689,120.994C86.468,120.75 86.31,120.383 86.102,120.116C85.482,119.318 84.959,118.347 84.053,117.949C83.799,117.396 83.941,116.274 83.233,116.134C82.811,116.051 82.508,116.21 82.415,116.72C81.683,115.776 81.629,114.426 81.419,113.206C81.34,112.752 81.405,112.329 81.361,111.859C81.33,111.545 81.164,111.25 81.128,110.922C80.76,107.726 81.024,104.318 80.659,101.202C80.579,100.526 80.32,99.87 80.248,99.211C80.21,98.856 80.289,98.504 80.248,98.157C80.118,97.049 79.789,95.889 79.664,94.644C79.576,93.791 79.876,93.004 79.957,92.185C80.104,90.686 79.97,89.314 79.664,88.378C79.562,88.072 79.285,87.737 79.077,87.383C78.654,86.652 78.306,86.033 77.965,85.333C77.79,84.973 77.52,84.708 77.321,84.397C77.113,84.069 77.003,83.666 76.795,83.342C76.169,82.373 75.523,81.311 74.921,80.414C74.044,79.111 73.248,77.755 72.285,76.666C71.788,76.105 71.306,75.538 70.821,74.968C69.818,73.792 68.582,72.928 68.07,71.339C68.192,71.173 68.391,71.405 68.479,71.456C69.666,72.148 70.697,73.053 71.875,73.682C72.888,74.221 74.139,74.226 74.979,75.028C75.675,74.886 77.354,75.632 78.082,75.087C78.329,74.9 78.278,74.649 78.375,74.384C79.027,74.784 80.369,74.859 80.248,73.974C80.133,73.135 78.22,73.503 78.199,72.626C78.526,72.38 78.979,72.608 79.369,72.744C80.242,73.047 81.131,73.328 81.888,73.739C82.467,74.053 83.617,74.791 83.703,73.739C83.766,72.96 82.707,72.661 82.122,72.393C81.392,72.059 80.732,71.716 80.189,71.339C80.605,70.837 81.188,71.057 81.887,71.398C82.354,71.625 83.392,72.28 83.643,71.573C83.944,70.732 82.715,70.328 82.18,70.11C82.503,69.715 82.932,69.538 83.41,69.232C83.77,69.001 84.281,68.464 84.698,68.411C84.968,68.379 85.31,68.57 85.636,68.587C86.734,68.645 87.143,68.385 87.509,67.709C87.949,67.583 88.217,67.284 88.329,66.831C88.766,67.427 89.921,67.314 90.027,66.598C90.108,66.056 89.349,65.625 89.618,65.308C89.987,64.876 90.829,65.778 91.549,65.718C92.487,65.641 92.813,64.726 92.37,64.138C94.516,63.573 96.58,63.001 98.927,62.791C101.04,62.603 103.494,62.763 105.485,62.616C109.302,62.332 113.159,60.196 115.557,58.165C116.463,57.397 117.452,56.672 118.075,55.823C119.712,53.586 121.366,49.798 120.002,45.988ZM25.73,126.617C25.975,127.871 25.346,128.821 24.559,127.73C24.426,127.546 24.153,127.181 24.092,126.968C23.996,126.645 24.136,126.268 24.092,125.973C24.041,125.637 23.771,125.337 23.798,125.095C24.486,125.558 25.309,125.887 25.73,126.617ZM24.129,123.743C23.966,123.927 23.719,124.206 23.804,124.636L23.813,124.681L23.513,124.478L23.448,125.055C23.422,125.284 23.518,125.486 23.612,125.679C23.668,125.797 23.726,125.92 23.743,126.025C23.754,126.108 23.743,126.228 23.728,126.355C23.706,126.571 23.678,126.817 23.752,127.066C23.822,127.3 24.031,127.602 24.241,127.891L24.273,127.933C24.276,127.936 24.277,127.939 24.281,127.942C24.241,127.929 24.202,127.919 24.16,127.911L23.859,127.85L23.757,128.138C23.579,128.64 23.706,129.264 23.882,129.68L23.942,129.821L24.086,129.873C25.137,130.252 26.028,131.292 25.712,132.776C25.6,132.848 25.49,132.928 25.375,133.01C24.951,133.313 24.512,133.626 23.927,133.702C23.483,133.76 22.952,133.788 22.351,133.788C20.458,133.788 18.306,133.502 17.379,133.366C17.212,133.243 17.053,133.163 16.897,133.085C16.727,133 16.569,132.919 16.409,132.785C16.334,132.723 16.266,132.637 16.195,132.545C16.006,132.301 15.75,131.971 15.198,131.941C15.03,131.702 14.853,131.497 14.661,131.318L14.661,130.124C15.376,129.499 15.405,128.302 15.431,127.143C15.443,126.625 15.454,126.092 15.53,125.647C15.65,125.297 15.898,124.987 16.163,124.661C16.334,124.447 16.512,124.227 16.66,123.988C16.734,123.865 16.776,123.74 16.813,123.63C16.846,123.527 16.875,123.44 16.919,123.389C16.988,123.307 17.092,123.239 17.202,123.166C17.369,123.053 17.557,122.925 17.702,122.717C17.744,122.657 17.782,122.593 17.817,122.529C18.097,122.648 18.379,122.747 18.684,122.709C19.077,122.658 19.282,122.156 19.568,121.936C20.001,121.604 20.524,121.362 21.045,121.209C21.637,121.035 22.123,121.149 22.531,121.618C22.839,121.972 23.04,122.406 23.332,122.771C23.587,123.093 23.922,123.349 24.29,123.537C24.251,123.605 24.193,123.671 24.129,123.743ZM77.769,119.847C78.439,120.032 79.121,119.788 79.684,119.428C80.398,118.972 80.981,118.316 81.517,117.666C81.722,117.418 81.919,117.166 82.114,116.908C82.121,116.918 82.126,116.927 82.135,116.937L82.614,117.556L82.757,116.786C82.816,116.466 82.942,116.466 83.031,116.466C83.07,116.466 83.114,116.471 83.162,116.481C83.385,116.525 83.455,116.851 83.539,117.341C83.583,117.603 83.629,117.876 83.732,118.099L83.788,118.22L83.91,118.273C84.53,118.546 84.962,119.147 85.417,119.783C85.548,119.966 85.683,120.154 85.823,120.334C85.903,120.435 85.977,120.561 86.057,120.696C86.166,120.881 86.28,121.072 86.426,121.232C86.527,121.346 86.641,121.428 86.743,121.502C86.953,121.655 86.984,121.694 86.98,121.798L86.967,122.018L87.162,122.124C87.391,122.249 87.585,122.424 87.79,122.61C88.055,122.847 88.353,123.117 88.766,123.305C88.939,123.386 89.126,123.434 89.308,123.483C89.448,123.52 89.592,123.557 89.723,123.608C89.853,123.657 89.985,123.731 90.125,123.807C90.254,123.878 90.387,123.951 90.528,124.012C90.714,124.093 90.895,124.165 91.07,124.235C91.889,124.563 92.486,124.801 92.777,125.512L92.777,126.552C92.703,126.624 92.598,126.688 92.483,126.759C92.401,126.809 92.318,126.861 92.236,126.921C91.573,126.973 90.907,127.076 90.203,127.184C89.279,127.325 88.324,127.471 87.38,127.497C87.013,127.507 86.53,127.519 86.047,127.519C85.05,127.519 83.587,127.475 82.402,127.103C82.287,127.066 82.181,127.003 82.067,126.933C81.902,126.835 81.715,126.721 81.477,126.682C81.103,126.618 80.693,126.588 80.223,126.588C79.755,126.588 79.293,126.617 78.845,126.645L78.826,126.645C78.379,126.674 77.955,126.7 77.542,126.7C77.322,126.7 77.125,126.693 76.94,126.677C76.136,126.61 75.46,126.463 74.654,126.25C74.327,125.837 73.998,125.372 74.197,124.802C74.211,124.764 74.304,124.682 74.367,124.627C74.507,124.504 74.682,124.351 74.777,124.115C74.835,123.972 74.834,123.821 74.833,123.677C74.832,123.59 74.831,123.493 74.847,123.441C74.895,123.277 75.003,123.098 75.107,122.924C75.251,122.685 75.398,122.437 75.442,122.167C75.488,121.891 75.48,121.623 75.471,121.384C75.463,121.163 75.457,120.953 75.496,120.782C75.521,120.678 75.571,120.569 75.626,120.45C75.688,120.317 75.751,120.178 75.789,120.025C75.846,119.786 75.87,119.555 75.893,119.331C75.917,119.081 75.941,118.847 76.011,118.658C76.026,118.617 76.052,118.577 76.088,118.537C76.515,119.122 77.054,119.651 77.769,119.847ZM63.557,21.278C64.631,20.724 63.643,22.168 63.79,22.918C63.483,22.6 63.563,21.896 63.557,21.278ZM64.318,23.621C64.082,23.736 63.804,23.45 63.849,23.095C64.074,23.201 64.209,23.397 64.318,23.621ZM63.688,23.735C63.694,23.742 63.701,23.752 63.707,23.759C63.841,23.91 64.023,23.998 64.208,23.998C64.25,23.998 64.29,23.994 64.331,23.985L64.366,24.021L64.357,23.978C64.396,23.968 64.434,23.955 64.47,23.937L64.786,23.783L64.633,23.468C64.561,23.318 64.453,23.127 64.279,22.966C64.588,22.718 64.886,22.456 65.216,22.234C65.681,21.918 66.203,21.667 66.694,21.395C67.659,20.86 68.581,20.287 69.478,19.644C69.908,19.335 70.342,19.029 70.797,18.758C71.277,18.474 71.797,18.268 72.318,18.069C72.83,17.873 73.344,17.687 73.851,17.474C74.308,17.283 74.737,17.035 75.168,16.792C75.443,16.639 75.719,16.485 76.002,16.345C76.487,17.038 77.044,17.65 77.588,18.245C77.977,18.67 78.378,19.11 78.739,19.565L78.785,19.621L78.848,19.656C79.423,19.967 79.966,20.13 80.541,20.302C80.779,20.374 81.028,20.448 81.287,20.536C81.401,20.575 81.524,20.613 81.654,20.653C81.889,20.726 82.209,20.827 82.489,20.944C81.669,21.542 80.808,22.084 79.907,22.551C79.711,22.653 79.51,22.75 79.308,22.845L79.14,22.814L79.091,22.943C77.449,23.672 75.641,24.099 73.85,23.829C73.33,23.751 72.836,23.589 72.355,23.383C71.972,23.218 71.614,23.026 71.242,22.84C70.934,22.688 70.67,22.632 70.346,22.771C69.967,22.931 69.635,23.18 69.281,23.383C68.913,23.594 68.503,23.676 68.112,23.824C67.727,23.97 67.468,24.257 67.185,24.544C66.811,24.923 66.41,25.319 65.95,25.598L65.607,25.45C65.606,25.429 65.605,25.407 65.604,25.388C65.595,25.219 65.577,24.903 65.286,24.767L65.263,24.758L65.238,24.75C65.154,24.724 65.059,24.713 64.941,24.713C64.858,24.713 64.774,24.718 64.691,24.724L64.682,24.724C64.609,24.728 64.528,24.734 64.452,24.734C64.346,24.734 64.268,24.722 64.217,24.703L63.859,24.557L63.749,24.927C63.72,25.017 63.689,25.103 63.658,25.187C63.459,24.74 63.493,24.211 63.688,23.735ZM61.857,27.193C63.033,26.903 63.742,26.15 64.083,25.027C64.403,25.158 64.887,25.012 65.137,25.085C65.336,25.177 65.166,25.642 65.371,25.729C64.921,26.2 64.625,26.672 64.903,27.369C65.025,27.676 65.399,27.771 65.429,28.072C65.459,28.373 65.278,28.558 65.196,28.775C64.411,28.789 63.497,28.617 62.97,29.126C62.79,29.17 62.857,28.965 62.677,29.01C62.499,29.008 62.62,29.304 62.444,29.302C61.548,29.093 61.195,27.847 61.857,27.193ZM68.698,73.195C68.525,73.267 68.354,73.35 68.19,73.438C67.658,73.719 67.16,74.069 66.663,74.408C66.194,74.728 65.717,75.013 65.222,75.289C64.49,75.693 63.777,76.136 63.042,76.536C60.978,77.66 58.758,78.452 56.61,79.396C56.378,79.227 56.151,79.107 55.937,79.076C55.886,79.069 55.833,79.065 55.781,79.065C55.582,79.065 55.407,79.117 55.239,79.168C55.124,79.201 55.016,79.235 54.897,79.252L54.642,79.289C54.353,79.332 54.025,79.38 53.722,79.428C53.4,79.48 53.128,79.487 52.84,79.494C52.589,79.5 52.329,79.508 52.034,79.544C51.858,79.565 51.696,79.629 51.553,79.686C51.446,79.727 51.345,79.766 51.259,79.781C51.051,79.815 50.821,79.834 50.552,79.834C50.292,79.834 50.03,79.818 49.752,79.802L49.745,79.801C49.468,79.785 49.181,79.767 48.889,79.767C48.767,79.767 48.656,79.77 48.546,79.777C48.298,79.79 48.049,79.807 47.809,79.825C47.322,79.859 46.863,79.893 46.393,79.893C46.05,79.893 45.741,79.874 45.447,79.837L45.2,79.806L45.087,80.029C45.049,80.105 45.011,80.184 44.975,80.261C41.555,79.912 38.23,78.924 34.882,78.111L34.903,77.984L34.653,77.872C34.093,77.622 33.661,77.064 33.205,76.471L33.149,76.398C33.087,76.319 33.031,76.252 32.982,76.194C32.853,76.043 32.818,75.996 32.809,75.923C32.766,75.58 32.922,75.073 33.073,74.582C33.143,74.352 33.217,74.113 33.272,73.885C33.324,73.666 33.347,73.451 33.369,73.243C33.389,73.055 33.407,72.875 33.447,72.716C33.484,72.567 33.549,72.427 33.614,72.28C33.687,72.118 33.763,71.95 33.802,71.768C33.946,71.098 34.028,70.416 34.106,69.756C34.214,68.863 34.315,68.019 34.556,67.229C34.689,66.785 34.84,66.355 34.982,65.939C35.308,64.998 35.617,64.106 35.728,63.168C35.895,62.94 35.993,62.676 36.088,62.417C36.106,62.365 36.126,62.315 36.144,62.267C36.595,61.964 36.954,61.584 37.302,61.216C37.409,61.103 37.521,60.985 37.63,60.875L37.77,60.734L37.721,60.541C37.672,60.349 37.761,60.188 37.923,59.921C38.023,59.755 38.128,59.583 38.188,59.379C38.237,59.204 38.233,59.037 38.23,58.89C38.228,58.785 38.226,58.686 38.245,58.621C38.315,58.389 38.467,58.137 38.63,57.872C38.79,57.612 38.954,57.343 39.057,57.06C39.122,56.883 39.145,56.713 39.165,56.561C39.18,56.441 39.195,56.33 39.227,56.255C39.353,55.96 39.623,55.681 39.936,55.36C40.152,55.137 40.377,54.906 40.586,54.634C40.696,54.492 40.807,54.342 40.914,54.194C41.237,53.755 41.57,53.299 41.909,53.072C42,53.011 42.123,52.971 42.253,52.928C42.405,52.879 42.576,52.824 42.729,52.72C43.034,52.515 43.247,52.234 43.455,51.961C43.766,51.55 43.975,51.295 44.33,51.255L44.535,51.232L44.616,51.04C44.83,50.522 45.251,50.195 45.816,49.861L45.97,49.77L45.987,49.592C45.997,49.481 45.993,49.368 45.988,49.258C45.984,49.177 45.979,49.043 45.991,48.991C46.619,48.161 47.043,47.134 47.453,46.139C47.663,45.635 47.878,45.112 48.119,44.618C48.197,44.461 48.262,44.296 48.324,44.137C48.416,43.901 48.504,43.676 48.629,43.482C48.705,43.361 48.804,43.25 48.91,43.132C49.081,42.944 49.259,42.747 49.361,42.485C49.456,42.243 49.487,41.986 49.516,41.758C49.537,41.587 49.557,41.425 49.601,41.299C49.707,40.986 49.873,40.766 50.067,40.51C50.193,40.343 50.325,40.171 50.449,39.958L50.53,39.82L50.479,39.668C50.196,38.824 50.599,38.247 50.865,37.978C50.91,37.931 50.995,37.874 51.075,37.818C51.207,37.726 51.359,37.623 51.472,37.485C51.635,37.283 51.769,37.029 51.911,36.76C52.018,36.557 52.131,36.347 52.25,36.173L52.313,36.08C52.783,35.396 53.226,34.748 53.823,34.254L54.145,33.989L54.014,33.877C54.121,33.806 54.229,33.735 54.335,33.668C55.231,33.1 56.249,32.767 57.226,32.369C57.713,32.17 58.204,31.958 58.656,31.687C59.156,31.389 59.653,31.09 60.157,30.799C60.639,30.521 61.115,30.249 61.574,29.933C61.755,29.807 61.934,29.683 62.116,29.56C62.195,29.595 62.277,29.622 62.361,29.642L62.364,29.644C62.649,30.332 62.885,31.04 63.125,31.746C63.426,32.63 63.756,33.501 64.056,34.384C64.349,35.245 64.606,36.104 64.782,36.997C64.956,37.873 65.094,38.757 65.329,39.622C65.6,40.621 65.987,41.804 66.719,42.563C67.014,42.869 67.407,43.037 67.827,42.923C68.273,42.804 68.565,42.297 68.763,41.918C68.987,41.49 69.147,41.029 69.295,40.569C69.482,39.994 69.687,39.423 69.857,38.842C70.047,38.184 70.192,37.52 70.264,36.84C70.342,36.109 70.369,35.374 70.87,34.794C71.286,34.312 71.829,33.856 72.343,33.482C72.838,33.122 73.385,33.073 73.978,33.048C74.498,33.025 75.02,33.028 75.543,33.052C75.529,33.433 75.747,33.757 75.944,34.047C76.084,34.255 76.217,34.453 76.27,34.657C76.371,35.052 76.435,35.642 76.486,36.116L76.494,36.189C76.564,36.81 76.511,37.334 76.347,37.708L76.279,37.86L76.357,38.01C76.668,38.613 76.339,39.44 76.073,40.105C76.02,40.238 75.97,40.363 75.928,40.481C75.856,40.681 75.788,40.913 75.722,41.169C75.111,41.368 74.515,41.666 73.983,41.975C73.215,42.421 72.834,43.444 72.549,44.233C72.141,45.363 71.797,46.489 71.126,47.499C70.736,48.084 70.282,48.62 69.84,49.166C69.8,49.153 69.758,49.146 69.718,49.146C69.686,49.146 69.655,49.15 69.626,49.157L69.507,49.183L69.428,49.277C69.258,49.483 69.086,49.688 68.914,49.893C67.637,51.417 66.316,52.995 65.462,55.022C65.134,55.575 64.745,56.06 64.334,56.572C63.501,57.611 62.643,58.68 62.349,60.325C62.028,60.075 61.722,59.807 61.432,59.526C60.348,58.475 59.561,57.19 59.405,55.671C59.316,54.82 59.339,53.958 59.374,53.104C59.404,52.356 59.414,51.599 59.486,50.854C59.601,49.665 59.954,48.505 60.125,47.323C60.242,46.525 60.312,45.677 60.094,44.889C59.854,44.021 59.134,43.601 58.384,43.194C57.86,42.911 57.32,42.658 56.798,42.372C56.221,42.055 55.681,41.67 55.129,41.313C53.927,40.54 52.729,39.759 51.525,38.988C51.481,38.959 51.421,38.997 51.421,39.047C51.417,39.557 51.362,40.081 51.476,40.573C51.256,41.289 51.197,41.997 51.298,42.74C51.413,43.582 51.671,44.395 51.772,45.241C51.884,46.185 51.942,47.135 52.016,48.083C52.085,48.957 52.225,49.806 52.409,50.663C52.606,51.589 52.779,52.503 52.828,53.453C52.872,54.323 52.895,55.192 53.044,56.054C53.12,56.501 53.246,56.943 53.332,57.389C53.423,57.871 53.507,58.355 53.609,58.834C53.756,59.54 53.918,60.252 54.214,60.912C54.726,62.052 55.678,62.861 56.695,63.544C58.097,64.488 59.43,65.505 60.768,66.538C62.111,67.575 63.482,68.581 64.983,69.382C65.951,69.897 66.867,70.536 67.83,71.073C67.812,71.09 67.795,71.11 67.78,71.13L67.672,71.275L67.728,71.447C67.952,72.138 68.3,72.697 68.698,73.195ZM76.614,73.92C76.839,73.707 77.268,74.214 77.667,74.212C77.269,74.596 76.866,74.063 76.614,73.92ZM71.11,68.18C69.805,67.044 67.868,66.541 66.777,65.194C65.005,64.195 63.931,62.497 62.619,61.038C62.825,58.237 64.668,57.074 65.781,55.183C66.727,52.926 68.255,51.254 69.704,49.502C69.754,49.491 69.759,49.525 69.762,49.561C69.752,49.611 69.786,49.615 69.822,49.619C69.949,53.467 69.392,57.423 71.051,59.574C71.513,60.173 72.218,60.717 72.808,61.273C74.587,62.944 76.867,63.91 79.072,65.254C79.268,65.878 79.71,66.256 80.243,66.542C80.526,66.59 80.358,66.188 80.594,66.191C80.932,66.418 81.43,66.487 81.767,66.718C80.85,67.537 79.678,68.106 78.663,68.825C76.286,68.469 73.056,68.966 71.11,68.18ZM80.38,70.942C80.223,71.168 79.97,71.429 79.667,71.329C79.264,71.196 78.87,71.014 78.458,70.913C78.417,70.904 78.405,70.872 78.409,70.842C78.407,70.841 78.402,70.84 78.399,70.84C78.32,70.829 78.341,70.702 78.417,70.705C78.769,70.712 79.118,70.784 79.47,70.79C79.762,70.796 80.051,70.777 80.338,70.838C80.38,70.85 80.404,70.905 80.38,70.942ZM85.302,67.986C84.963,68.11 84.649,68.097 84.338,68.313C84.076,68.496 83.82,68.684 83.557,68.864C83.29,69.048 83.019,69.229 82.757,69.419C82.539,69.576 82.331,69.761 82.095,69.891C81.932,69.98 81.754,69.923 81.595,69.861C81.317,69.752 81.052,69.611 80.77,69.508C80.157,69.286 79.528,69.217 78.901,69.06C78.818,69.039 78.849,68.915 78.93,68.926C78.934,68.922 78.938,68.918 78.944,68.915C79.723,68.405 80.539,67.957 81.313,67.442C81.728,67.165 82.057,66.856 82.413,66.511C82.772,66.162 83.134,65.803 83.534,65.501C83.679,65.392 83.99,65.118 84.181,65.274C84.227,65.313 84.189,65.394 84.132,65.392C83.595,65.371 83.889,66.233 84.075,66.479C84.456,66.985 85.023,67.328 85.344,67.884C85.367,67.926 85.343,67.97 85.302,67.986ZM118.303,49.033C118.507,48.631 118.942,48.461 119.358,48.271C119.622,48.908 118.593,49.83 118.303,49.033ZM115.2,44.994C115.045,45.267 114.858,45.51 114.439,45.521C114.241,45.104 114.77,44.716 115.142,44.875C115.133,44.943 115.155,44.98 115.2,44.994ZM116.958,47.453C116.82,47.798 116.234,48.247 115.904,47.863C115.862,47.683 115.965,47.649 115.963,47.511C115.817,47.421 115.597,47.407 115.553,47.218C115.625,46.552 116.943,46.385 116.372,47.218C116.661,47.112 116.836,47.243 116.958,47.453ZM99.204,56.858L99.484,56.54L99.282,56.435C99.489,56.433 99.682,56.35 99.798,56.211C99.822,56.183 99.842,56.153 99.857,56.122C99.961,56.166 100.072,56.19 100.19,56.19C100.235,56.19 100.28,56.187 100.324,56.179C100.326,56.329 100.348,56.497 100.461,56.629C100.424,56.679 100.394,56.726 100.372,56.768L100.341,56.821C100.03,56.834 99.781,57.105 99.66,57.268C99.64,57.294 99.618,57.326 99.593,57.363L99.593,57.35L99.468,57.388C99.47,57.371 99.47,57.354 99.47,57.336C99.468,57.155 99.379,56.994 99.204,56.858ZM99.976,51.374C99.801,51.568 99.574,51.715 99.332,51.844C98.391,51.45 99.722,50.464 99.976,51.374ZM98.396,50.614C98.73,50.127 99.445,50.024 99.333,50.673C99.265,51.066 98.442,51.284 98.396,50.614ZM113.796,45.052C113.686,45.39 113.379,45.533 113.093,45.696C112.914,45.658 112.793,45.566 112.8,45.345C112.991,45.116 113.398,44.825 113.737,44.935C113.728,45.002 113.75,45.039 113.796,45.052ZM116.723,49.501C116.693,49.864 116.21,49.828 115.904,50.028C115.898,49.878 115.675,49.945 115.669,49.795C115.866,49.411 116.777,48.824 116.723,49.501ZM117.25,50.204C117.08,50.483 116.822,50.675 116.489,50.789C116.275,50.711 116.171,50.522 116.078,50.321C116.349,50.058 117.059,49.546 117.25,50.204ZM112.507,52.313C112.297,52.302 112.276,52.108 112.155,51.902C112.706,51.08 113.273,52.353 112.507,52.313ZM113.386,52.722C113.328,52.724 113.339,52.794 113.326,52.841C113.085,52.959 112.738,52.9 112.682,52.665C112.683,52.146 113.414,52.278 113.386,52.722ZM100.914,52.78C100.726,52.984 100.465,53.111 100.211,53.248C99.981,53.284 100.061,53.008 99.918,52.956C100.095,52.629 100.707,52.257 100.914,52.78ZM99.801,52.605C99.557,52.596 99.557,52.342 99.45,52.194C99.638,51.806 100.325,51.403 100.387,52.135C100.295,52.396 99.993,52.446 99.801,52.605ZM113.796,49.151C113.889,48.843 114.562,48.446 114.732,48.917C114.562,49.275 114.033,49.643 113.796,49.151ZM115.2,49.561C115.125,49.855 114.842,49.945 114.615,50.087C113.826,49.809 115.036,48.737 115.2,49.561ZM113.503,48.625C113.592,48.358 114.046,47.868 114.263,48.272C114.207,48.576 113.773,48.894 113.503,48.625ZM113.093,48.098C113.108,48.003 113.037,47.996 113.034,47.921C113.15,47.625 113.728,47.229 113.912,47.687C113.796,47.973 113.477,48.261 113.093,48.098ZM110.399,52.195C110.542,52.162 110.524,51.968 110.75,52.019C110.835,52.148 110.928,52.271 110.927,52.487C110.822,52.54 110.776,52.651 110.574,52.606C110.59,52.395 110.399,52.391 110.399,52.195ZM111.745,49.795C111.728,49.378 112.374,49.056 112.448,49.561C112.363,49.793 111.984,50.064 111.745,49.795ZM112.097,50.673C112.012,50.899 111.817,51.017 111.57,51.082C111.538,50.999 111.479,50.939 111.394,50.908C111.351,50.532 111.547,50.396 111.922,50.439C111.981,50.516 111.978,50.656 112.097,50.673ZM111.454,49.326C111.432,49.25 111.35,49.235 111.335,49.151C111.361,48.788 111.913,48.516 112.039,48.917C111.967,49.177 111.807,49.346 111.454,49.326ZM111.57,50.028C111.58,50.444 111.066,50.55 110.927,50.204C110.973,49.954 111.452,49.69 111.57,50.028ZM110.693,49.795C110.436,49.396 111.108,49.065 111.218,49.502C111.122,49.697 110.901,49.88 110.693,49.795ZM110.399,50.908C110.341,50.83 110.302,50.731 110.224,50.674C110.321,50.478 110.403,50.266 110.75,50.322C110.957,50.578 110.855,50.987 110.399,50.908ZM110.106,48.976C110.085,48.744 110.224,48.656 110.457,48.625C111.41,48.494 110.188,49.824 110.106,48.976ZM110.341,49.795C110.339,49.933 110.441,49.968 110.399,50.146C110.321,50.264 110.006,50.322 109.873,50.204C109.851,49.89 110.018,49.764 110.341,49.795ZM105.129,52.722C105.038,52.846 104.913,52.936 104.661,52.898C104.246,52.438 105.078,52.15 105.129,52.722ZM104.25,52.313C103.93,51.8 104.725,51.577 104.719,52.136C104.579,52.211 104.503,52.35 104.25,52.313ZM105.539,53.249C105.573,53.479 105.299,53.399 105.247,53.542C105.125,53.47 105.027,53.371 104.955,53.249C104.96,52.878 105.532,52.878 105.539,53.249ZM105.247,52.079C105.485,51.945 105.791,51.917 105.832,52.254C105.712,52.271 105.717,52.413 105.599,52.43C105.408,52.385 105.292,52.268 105.247,52.079ZM106.183,52.722C106.146,52.9 106.053,53.022 105.832,53.015C105.831,52.958 105.76,52.97 105.715,52.956C105.512,52.673 106.068,52.347 106.183,52.722ZM105.95,51.609C106.041,51.485 106.166,51.398 106.417,51.434C106.612,51.633 106.515,51.975 106.243,52.019C106.032,51.995 105.96,51.833 105.95,51.609ZM106.944,52.371C106.889,52.414 106.855,52.478 106.827,52.547C106.614,52.585 106.514,52.507 106.416,52.43C106.31,51.957 106.978,51.998 106.944,52.371ZM106.709,51.374C106.684,50.55 107.655,51.297 107.003,51.551C106.882,51.517 106.813,51.428 106.709,51.374ZM107.237,53.015C107.099,53.014 107.065,53.115 106.886,53.073C106.569,52.635 107.376,52.379 107.237,53.015ZM107.237,52.136C107.037,51.991 107.081,51.505 107.472,51.609C107.503,51.697 107.558,51.756 107.588,51.844C107.552,52.022 107.458,52.144 107.237,52.136ZM107.999,52.313C108.027,52.555 107.931,52.673 107.765,52.722C107.217,52.66 107.627,51.888 107.999,52.313ZM107.765,51.493C107.767,51.222 107.932,51.113 108.233,51.141C108.396,51.325 108.305,51.45 108.233,51.668C107.981,51.704 107.856,51.616 107.765,51.493ZM108.467,50.438C108.322,50.446 108.184,50.448 108.116,50.38C108.059,50.06 108.591,50.062 108.467,50.438ZM108.642,51.786C108.642,51.941 108.665,52.119 108.584,52.195C108.37,52.234 108.273,52.156 108.174,52.079C108.085,51.748 108.442,51.642 108.642,51.786ZM108.525,51.199C108.224,50.631 109.064,50.407 108.994,51.082C108.846,51.181 108.732,51.313 108.525,51.199ZM109.405,51.668C108.521,51.981 109.304,50.762 109.405,51.668ZM109.286,50.731C109.261,50.679 109.235,50.627 109.17,50.614C109.065,50.224 109.549,50.18 109.696,50.38C109.692,50.628 109.557,50.75 109.286,50.731ZM109.93,51.317C109.713,51.34 109.587,51.27 109.579,51.082C109.695,50.616 110.275,51.015 109.93,51.317ZM109.638,49.736C109.555,49.625 109.416,49.568 109.405,49.383C109.655,48.673 110.388,49.651 109.638,49.736ZM109.286,49.151C109.183,49.097 109.105,49.02 109.052,48.917C109.172,48.087 109.955,48.885 109.286,49.151ZM109.228,50.028C109.102,50.078 109.028,50.18 108.819,50.146C108.434,49.693 109.265,49.374 109.228,50.028ZM108.467,49.561C108.441,49.508 108.416,49.457 108.35,49.444C108.223,48.946 108.794,48.962 108.935,49.211C108.878,49.425 108.771,49.591 108.467,49.561ZM108.116,48.976C107.399,48.223 109.127,48.401 108.116,48.976ZM108.058,50.028C107.765,50.068 107.706,49.873 107.589,49.736C107.676,49.196 108.381,49.547 108.058,50.028ZM107.765,50.497C107.767,50.689 107.932,50.722 107.881,50.966C107.796,50.995 107.734,51.052 107.648,51.082C107.253,51.047 107.283,50.409 107.765,50.497ZM107.003,50.321C106.902,49.842 107.515,49.808 107.53,50.204C107.555,50.499 107.112,50.489 107.003,50.321ZM106.886,49.911C106.696,49.867 106.579,49.749 106.535,49.56C106.703,48.905 107.39,49.613 106.886,49.911ZM106.827,50.731C106.755,50.756 106.707,50.806 106.709,50.908C106.423,50.942 106.278,50.831 106.242,50.615C106.417,50.284 106.801,50.26 106.827,50.731ZM106.417,50.263C106.091,50.316 105.925,50.209 105.833,50.028C105.939,49.665 106.451,49.799 106.477,50.146C106.419,50.148 106.43,50.218 106.417,50.263ZM106.183,51.199C106.083,51.333 105.91,51.397 105.657,51.374C105.7,51.195 105.495,51.262 105.539,51.082C105.645,50.72 106.204,50.726 106.183,51.199ZM105.364,50.848C104.972,50.69 105.334,49.976 105.657,50.38C105.662,50.64 105.587,50.819 105.364,50.848ZM105.364,51.551C105.32,51.741 105.201,51.857 105.012,51.902C104.557,51.653 105.216,50.991 105.364,51.551ZM105.012,51.082C104.09,51.786 104.596,49.931 105.012,51.082ZM104.134,50.673C103.72,50.179 104.572,49.755 104.601,50.438C104.485,50.555 104.371,50.676 104.134,50.673ZM104.25,51.551C104.172,51.609 104.135,51.71 104.017,51.727C103.292,51.536 104.231,50.71 104.25,51.551ZM103.958,52.546C103.904,52.588 103.87,52.653 103.841,52.721C103.587,52.781 103.572,52.601 103.432,52.546C103.448,52.187 103.941,52.187 103.958,52.546ZM103.666,51.902C103.076,52.908 102.792,50.95 103.666,51.902ZM103.139,51.434C103.04,51.512 102.942,51.589 102.729,51.552C102.722,51.402 102.621,51.346 102.553,51.259C102.707,50.917 103.191,50.883 103.139,51.434ZM102.845,52.195C102.881,52.542 102.724,52.698 102.377,52.664C102.141,52.306 102.577,51.871 102.845,52.195ZM103.373,52.957C103.254,53.112 103.171,53.302 102.845,53.249C102.786,53.172 102.749,53.073 102.67,53.016C102.726,52.592 103.258,52.596 103.373,52.957ZM103.666,53.483C103.63,53.722 103.495,53.858 103.256,53.893C102.793,53.594 103.475,52.952 103.666,53.483ZM104.193,54.245C103.946,54.428 103.606,54.578 103.431,54.245C103.505,53.799 104.165,53.699 104.193,54.245ZM103.783,52.898C104.955,52.385 103.99,54.212 103.783,52.898ZM104.72,53.426C104.678,53.585 104.836,53.542 104.836,53.659C104.836,53.874 104.631,53.883 104.544,54.011C104.372,53.969 104.291,53.833 104.193,53.719C104.215,53.466 104.401,53.379 104.72,53.426ZM105.247,54.42C105.029,54.628 104.585,54.544 104.602,54.186C104.866,53.938 105.238,53.898 105.247,54.42ZM105.599,54.889C105.556,55.06 105.416,55.136 105.189,55.123C105.157,55.037 105.101,54.976 105.071,54.889C105.055,54.509 105.617,54.521 105.599,54.889ZM105.599,54.069C105.235,53.989 105.379,53.491 105.773,53.542C105.89,53.701 105.859,54.105 105.599,54.069ZM106.183,54.127C106.283,54.317 106.34,54.476 106.183,54.655C106.086,54.655 105.988,54.655 105.89,54.655C105.705,54.461 105.753,54.026 106.183,54.127ZM106.242,53.6C105.801,53.217 106.678,52.769 106.593,53.484C106.47,53.517 106.426,53.629 106.242,53.6ZM107.003,54.069C106.876,54.117 106.804,54.22 106.593,54.186C106.562,54.101 106.507,54.038 106.476,53.951C106.517,53.563 107.079,53.604 107.003,54.069ZM107.472,54.537C107.418,54.641 107.34,54.719 107.237,54.772C107.011,54.822 107.029,54.628 106.886,54.596C106.904,54.233 107.39,54.242 107.472,54.537ZM107.12,53.426C107.297,53.137 107.682,53.041 107.825,53.426C107.775,53.835 107.147,53.879 107.12,53.426ZM108.116,53.951C108.154,54.184 108.042,54.268 107.939,54.361C107.751,54.317 107.634,54.2 107.588,54.01C107.777,53.902 107.917,53.765 108.116,53.951ZM108.174,53.308C107.291,52.825 108.859,52.524 108.174,53.308ZM108.467,53.367C108.735,53.333 108.74,53.562 108.876,53.659C108.825,53.763 108.746,53.841 108.642,53.893C108.463,53.937 108.529,53.733 108.35,53.777C108.333,53.582 108.34,53.416 108.467,53.367ZM108.76,52.84C108.743,52.72 108.601,52.724 108.584,52.605C108.624,52.218 109.193,52.251 109.17,52.664C109.023,52.712 108.939,52.825 108.76,52.84ZM109.405,52.898C109.471,53.026 109.555,53.137 109.521,53.367C109.434,53.397 109.374,53.452 109.286,53.484C108.914,53.47 108.879,52.766 109.405,52.898ZM109.405,52.371C109.269,52.216 109.269,51.999 109.405,51.844C109.651,51.85 109.755,52.001 109.814,52.195C109.72,52.298 109.636,52.408 109.405,52.371ZM110.224,52.898C110.177,52.948 110.063,52.933 110.047,53.015C109.853,52.995 109.794,52.84 109.696,52.722C109.733,52.29 110.338,52.401 110.224,52.898ZM109.989,51.727C109.963,51.302 110.47,51.317 110.574,51.609C110.553,51.784 110.473,51.899 110.341,51.96C110.12,51.987 110.074,51.838 109.989,51.727ZM111.219,51.082C110.992,52.191 110.218,50.535 111.219,51.082ZM111.745,51.902C111.565,51.974 111.51,52.175 111.219,52.136C110.766,51.604 111.712,51.216 111.745,51.902ZM112.039,52.254C112.193,52.525 111.9,52.817 111.629,52.664C111.456,52.374 111.725,52.057 112.039,52.254ZM111.98,51.668C111.448,51.352 112.336,50.687 112.448,51.317C112.377,51.52 112.219,51.635 111.98,51.668ZM112.332,50.556C111.792,50.22 112.739,49.501 112.858,50.146C112.812,50.411 112.533,50.444 112.332,50.556ZM112.507,49.151C112.564,48.875 112.901,48.88 113.034,48.682C113.203,48.707 113.301,48.805 113.326,48.975C113.287,49.228 112.975,49.21 112.858,49.383C112.684,49.363 112.57,49.283 112.507,49.151ZM112.8,47.569C112.769,47.483 112.713,47.421 112.683,47.336C112.847,47.048 113.329,46.48 113.503,47.043C113.386,47.336 113.183,47.543 112.8,47.569ZM112.917,48.448C112.748,48.678 112.325,48.964 112.156,48.564C112.252,48.208 112.91,47.764 112.917,48.448ZM111.922,48.155C111.508,47.833 112.276,47.244 112.448,47.686C112.424,47.994 112.194,48.098 111.922,48.155ZM111.688,47.569C111.466,47.575 111.373,47.455 111.335,47.277C111.456,47.085 111.656,46.973 111.864,46.866C112.024,46.823 111.981,46.982 112.097,46.983C112.138,47.357 111.82,47.37 111.688,47.569ZM111.219,48.741C111.069,48.658 110.888,48.603 110.868,48.39C111.228,47.651 112.051,48.473 111.219,48.741ZM110.634,48.098C110.639,47.915 110.449,47.93 110.516,47.687C110.74,47.684 110.867,47.379 111.101,47.57C111.144,47.943 110.901,48.031 110.634,48.098ZM110.106,47.336C110.131,47.031 110.439,46.754 110.75,46.925C110.865,47.44 110.284,47.62 110.106,47.336ZM110.399,48.448C110.191,48.605 109.856,48.71 109.755,48.39C109.725,47.894 110.518,47.832 110.399,48.448ZM109.638,47.979C109.466,47.975 109.42,47.845 109.345,47.744C109.341,47.454 109.771,47.357 109.929,47.569C109.945,47.818 109.809,47.917 109.638,47.979ZM109.286,47.393C108.625,47.277 109.353,46.358 109.579,46.983C109.596,47.234 109.409,47.282 109.286,47.393ZM109.17,47.863C109.131,48.075 109.296,48.088 109.286,48.272C109.067,48.509 108.568,48.636 108.584,48.098C108.806,48.045 108.867,47.832 109.17,47.863ZM108.35,47.804C107.977,47.51 108.671,47.097 108.819,47.512C108.815,47.762 108.604,47.802 108.35,47.804ZM107.939,47.218C107.795,46.937 107.661,46.562 108.116,46.515C108.335,46.551 108.298,46.842 108.467,46.925C108.36,47.091 108.236,47.242 107.939,47.218ZM107.969,47.99C108.026,48.106 108.009,48.375 107.821,48.351C107.717,48.337 107.565,48.246 107.552,48.132C107.496,48.13 107.446,48.062 107.502,48.018C107.626,47.922 107.871,47.791 107.969,47.99ZM107.765,49.268C107.589,49.436 107.327,49.365 107.238,49.151C107.275,48.768 107.831,48.813 107.765,49.268ZM107.354,48.682C107.174,48.638 107.241,48.843 107.061,48.799C107.028,48.716 106.97,48.656 106.886,48.625C106.787,48.011 107.446,48.211 107.354,48.682ZM106.827,48.155C105.95,47.896 106.883,46.963 107.003,47.979C106.919,48.011 106.86,48.071 106.827,48.155ZM106.769,49.033C106.661,49.192 106.331,49.296 106.183,49.092C106.066,48.498 106.763,48.66 106.769,49.033ZM106.009,48.625C105.167,48.266 106.278,47.382 106.301,48.448C106.197,48.5 106.129,48.589 106.009,48.625ZM105.729,48.959C105.919,49.192 106.094,49.414 105.89,49.736C105.512,49.795 105.269,49.477 105.411,49.176C105.544,49.182 105.669,49.078 105.729,48.959ZM105.312,49.08C105.124,48.957 104.961,48.81 104.955,48.506C105.083,48.439 105.193,48.355 105.422,48.39C105.436,48.564 105.53,48.71 105.637,48.846C105.52,48.904 105.357,49.005 105.312,49.08ZM104.955,50.204C104.866,50.117 104.778,50.028 104.72,49.911C104.889,49.151 105.757,50.138 104.955,50.204ZM104.602,49.561C104.342,49.548 104.363,49.255 104.194,49.151C104.354,48.369 105.226,49.287 104.602,49.561ZM104.25,49.853C103.93,50.161 103.517,49.95 103.49,49.501C103.558,49.414 103.636,49.335 103.724,49.267C104.016,49.346 104.176,49.557 104.25,49.853ZM103.899,50.966C102.859,51.473 103.602,49.789 103.899,50.966ZM103.196,50.497C102.337,50.196 103.269,49.263 103.431,50.264C103.362,50.349 103.284,50.428 103.196,50.497ZM102.845,50.731C102.718,50.798 102.65,50.927 102.494,50.966C102.24,50.887 102.131,50.666 102.085,50.381C102.141,50.28 102.278,50.263 102.318,50.147C102.581,50.255 102.768,50.438 102.845,50.731ZM102.319,51.493C102.291,51.677 102.498,51.625 102.435,51.844C102.384,51.871 102.331,51.896 102.319,51.96C102.075,52.028 102.091,51.838 101.909,51.844C101.868,51.549 102.031,51.458 102.319,51.493ZM101.968,51.258C101.848,51.277 101.853,51.417 101.734,51.434C100.871,51.089 102.015,50.061 101.968,51.258ZM101.675,52.313C101.594,52.565 101.095,52.643 100.972,52.371C101.063,51.97 101.638,51.693 101.675,52.313ZM100.737,51.902C100.489,51.673 100.539,51.253 100.854,51.141C101.352,51.206 101.411,51.996 100.737,51.902ZM100.386,53.659C100.472,53.22 101.196,52.818 101.264,53.483C100.994,53.636 100.611,54.12 100.386,53.659ZM99.684,55.357C99.208,54.873 99.997,54.47 100.503,54.42C100.731,55.024 100.033,55.142 99.684,55.357ZM101.675,53.951C101.605,54.253 101.329,54.348 101.088,54.477C100.917,54.475 100.871,54.344 100.796,54.244C100.918,53.937 101.474,53.492 101.675,53.951ZM101.616,53.191C101.181,52.799 102.048,52.231 102.144,52.84C102.133,53.121 101.786,53.067 101.616,53.191ZM102.553,53.426C102.512,53.794 101.872,54.023 101.792,53.542C101.864,53.169 102.447,52.966 102.553,53.426ZM102.963,54.011C102.88,54.26 102.697,54.408 102.377,54.421C101.969,54.026 102.791,53.494 102.963,54.011ZM103.08,54.361C103.271,54.404 103.309,54.6 103.314,54.83C103.107,55.006 102.657,55.102 102.553,54.771C102.656,54.563 102.844,54.438 103.08,54.361ZM103.724,55.182C103.647,55.417 103.49,55.572 103.196,55.59C102.734,55.302 103.518,54.621 103.724,55.182ZM104.134,55.767C104.117,56.043 103.893,56.113 103.724,56.235C102.98,56.075 103.883,55.1 104.134,55.767ZM103.783,54.772C103.978,54.578 104.339,54.35 104.485,54.712C104.483,55.096 103.853,55.081 103.783,54.772ZM104.836,55.182C105.146,55.289 104.646,55.625 104.504,55.461C104.344,55.123 104.622,54.934 104.836,55.182ZM104.836,56.235C104.373,55.092 106.087,56.047 104.836,56.235ZM105.832,56.645C105.7,56.766 105.607,56.928 105.305,56.88C105.252,56.776 105.165,56.71 105.129,56.587C105.245,56.188 105.797,56.16 105.832,56.645ZM105.599,55.709C105.567,55.621 105.511,55.562 105.48,55.474C105.513,55.129 105.975,55.129 106.009,55.474C106.006,55.688 105.835,55.731 105.599,55.709ZM106.417,56.118C106.412,56.326 106.224,56.354 106.009,56.352C105.659,55.996 106.333,55.589 106.417,56.118ZM106.769,55.005C106.787,55.238 106.498,55.163 106.476,55.357C105.765,55.187 106.572,54.252 106.769,55.005ZM106.593,55.415C106.894,55.265 107.109,55.315 107.237,55.59C107.238,55.808 107.067,55.851 106.944,55.942C106.721,55.873 106.557,55.746 106.593,55.415ZM107.588,56.41C107.528,56.469 107.47,56.527 107.413,56.587C107.196,56.548 107.105,56.387 107.061,56.176C107.224,55.915 107.648,55.997 107.588,56.41ZM107.237,55.123C107.381,54.774 107.951,54.732 107.881,55.299C107.643,55.529 107.34,55.349 107.237,55.123ZM108.174,56.118C106.997,55.808 108.833,55 108.174,56.118ZM108.058,54.537C108.281,54.318 108.543,54.493 108.642,54.712C108.639,54.884 108.509,54.93 108.409,55.005C108.163,54.978 108.036,54.832 108.058,54.537ZM109.112,55.474C109.004,55.542 108.912,55.627 108.819,55.709C107.994,55.421 109.01,54.524 109.112,55.474ZM109.052,54.596C108.108,54.285 109.379,53.46 109.286,54.304C109.268,54.478 109.218,54.469 109.052,54.596ZM109.755,54.889C109.697,55.293 109.213,55.174 109.17,54.831C109.255,54.549 109.69,54.66 109.755,54.889ZM109.989,53.834C109.999,54 109.823,53.981 109.755,54.069C109.058,53.943 109.863,53.138 109.989,53.834ZM110.282,54.127C110.529,54.356 110.457,54.717 110.164,54.831C110.028,54.791 110.008,54.635 109.872,54.597C109.849,54.279 109.925,54.063 110.282,54.127ZM110.693,53.542C110.644,53.592 110.532,53.576 110.516,53.659C109.553,53.528 110.734,52.447 110.693,53.542ZM111.219,54.127C111.01,54.385 110.662,54.162 110.575,53.951C110.67,53.547 111.231,53.767 111.219,54.127ZM110.984,53.191C110.39,52.787 111.426,52.245 111.454,52.956C111.41,53.148 111.214,53.185 110.984,53.191ZM111.629,53.893C111.414,53.855 111.337,53.678 111.219,53.542C111.367,52.724 112.382,53.675 111.629,53.893ZM112.448,54.304C111.839,55.377 111.596,53.056 112.448,54.304ZM112.273,52.722C112.528,52.707 112.617,52.957 112.683,53.249C112.143,53.849 111.676,52.757 112.273,52.722ZM112.742,51.199C112.709,51.018 112.497,51.014 112.507,50.79C113.011,49.902 113.91,51.157 112.742,51.199ZM113.209,50.028C113.093,49.969 113.076,49.81 112.976,49.736C113.11,49.479 113.268,49.248 113.678,49.267C113.743,49.378 113.753,49.543 113.797,49.676C113.56,49.752 113.474,49.979 113.209,50.028ZM113.386,50.263C113.403,50.032 113.965,49.693 114.204,50.087C114.187,50.671 113.347,50.778 113.386,50.263ZM114.674,50.848C114.656,51.169 113.866,51.522 113.797,50.848C114.042,50.612 114.708,50.262 114.674,50.848ZM115.142,51.609C114.951,51.712 114.849,51.902 114.615,51.96C114.392,51.912 114.333,51.697 114.264,51.493C114.504,51.152 115.101,50.98 115.142,51.609ZM114.732,50.38C114.801,50.078 115.125,50.029 115.376,49.911C115.429,50.015 115.518,50.082 115.552,50.204C115.486,50.535 114.885,50.808 114.732,50.38ZM115.728,50.497C115.885,50.613 116.007,50.764 116.079,50.966C115.918,51.348 115.342,51.53 115.201,51.024C115.238,50.71 115.59,50.71 115.728,50.497ZM115.435,49.443C114.941,49.041 115.951,48.261 116.196,48.798C116.124,49.195 115.766,49.304 115.435,49.443ZM115.786,48.331C115.555,48.491 115.182,48.932 114.849,48.625C114.834,48.122 115.35,48.15 115.552,47.863C115.68,47.969 115.807,48.075 115.786,48.331ZM114.558,48.155C114.121,47.707 115.27,47.058 115.435,47.569C115.228,47.851 114.946,48.056 114.558,48.155ZM114.147,47.569C114.162,47.398 114.014,47.389 114.029,47.217C114.218,46.929 114.929,46.343 115.083,47.042C114.827,47.274 114.57,47.505 114.147,47.569ZM113.854,46.925C113.155,46.586 114.328,45.81 114.615,46.28C114.502,46.636 114.185,46.787 113.854,46.925ZM113.386,46.28C113.36,46.229 113.335,46.176 113.268,46.164C113.29,45.709 113.785,45.443 114.204,45.579C114.229,46.111 113.75,46.139 113.386,46.28ZM113.093,46.398C113.077,46.773 112.7,46.786 112.507,46.982C112.317,46.938 112.201,46.821 112.155,46.632C112.345,46.452 112.864,45.994 113.093,46.398ZM111.98,46.34C111.955,46.228 111.813,46.235 111.864,46.047C112.014,45.726 112.713,45.295 112.742,45.988C112.47,46.087 112.308,46.296 111.98,46.34ZM111.629,45.754C111.541,45.667 111.524,45.507 111.394,45.461C111.517,45.254 111.753,45.156 111.922,44.994C112.142,44.968 112.189,45.117 112.273,45.227C112.182,45.527 111.885,45.622 111.629,45.754ZM111.688,46.574C111.557,46.886 110.906,47.059 110.868,46.692C110.846,46.476 111.584,45.967 111.688,46.574ZM110.693,46.34C110.675,46.221 110.533,46.225 110.516,46.107C110.577,45.777 110.817,45.626 111.16,45.579C111.458,45.94 111.11,46.343 110.693,46.34ZM110.399,45.696C109.487,45.337 110.795,44.298 110.867,45.345C110.741,45.493 110.54,45.562 110.399,45.696ZM110.399,46.458C110.326,46.933 109.691,46.967 109.696,46.574C109.7,46.321 110.229,46.044 110.399,46.458ZM109.989,46.047C109.594,46.293 109.345,46.184 109.17,45.813C109.383,45.319 110.034,45.319 109.989,46.047ZM108.994,45.461C108.162,44.982 109.488,44.141 109.521,45.168C109.372,45.292 109.25,45.443 108.994,45.461ZM109.17,46.574C108.901,46.907 108.376,46.688 108.467,46.164C108.727,45.802 109.241,46.092 109.17,46.574ZM108.291,45.988C108.007,45.793 107.886,45.311 108.291,45.168C108.546,45.227 108.651,45.433 108.702,45.696C108.589,45.817 108.493,45.956 108.291,45.988ZM107.824,45.168C107.569,45.162 107.604,44.932 107.472,44.7C107.947,43.87 108.518,45.188 107.824,45.168ZM107.939,46.223C107.692,46.661 107.161,46.352 107.237,45.812C107.594,45.503 107.932,45.74 107.939,46.223ZM107.706,47.453C107.679,47.66 107.43,47.645 107.238,47.687C107.224,47.506 107.076,47.46 107.004,47.336C107.131,46.782 107.604,47.073 107.706,47.453ZM107.179,46.691C107.123,46.734 107.09,46.798 107.061,46.866C106.687,46.909 106.6,46.665 106.535,46.398C106.716,46.068 107.263,46.25 107.179,46.691ZM106.36,46.164C105.578,45.867 106.663,44.912 106.71,45.872C106.583,45.959 106.574,46.164 106.36,46.164ZM106.476,47.042C106.43,47.232 106.314,47.348 106.125,47.393C106.067,47.198 105.89,47.12 105.832,46.925C105.939,46.447 106.381,46.738 106.476,47.042ZM106.009,46.398C105.913,46.498 105.763,46.544 105.539,46.515C104.968,45.971 106.083,45.541 106.009,46.398ZM105.773,47.744C105.366,47.82 105.293,47.562 105.129,47.393C105.257,46.791 106.036,47.292 105.773,47.744ZM104.955,47.042C104.821,46.941 104.767,46.76 104.602,46.691C104.815,45.973 105.691,46.849 104.955,47.042ZM104.661,47.511C104.939,47.584 104.989,47.886 105.129,48.097C104.972,48.133 104.984,48.341 104.778,48.33C104.494,48.191 104.271,47.675 104.661,47.511ZM104.368,47.453C103.619,47.36 104.382,46.463 104.602,47.159C104.543,47.276 104.501,47.41 104.368,47.453ZM104.368,48.625C104.25,48.642 104.253,48.782 104.135,48.799C103.123,48.506 104.303,47.453 104.368,48.625ZM103.431,47.979C103.205,47.818 103.152,47.22 103.666,47.336C103.844,47.575 103.792,47.974 103.431,47.979ZM103.666,48.917C103.623,49.088 103.488,49.168 103.373,49.268C103.093,49.236 103.082,48.933 102.905,48.799C103.061,48.313 103.555,48.578 103.666,48.917ZM102.845,48.448C102.051,48.215 103.063,47.317 103.08,48.272C103.001,48.331 102.903,48.369 102.845,48.448ZM102.963,49.561C102.816,49.551 102.82,49.693 102.729,49.737C102.447,49.657 102.094,49.259 102.377,48.976C102.792,48.949 102.912,49.222 102.963,49.561ZM102.144,48.917C101.817,48.905 101.684,48.17 102.202,48.271C102.345,48.42 102.391,48.853 102.144,48.917ZM102.202,50.028C102.124,50.088 102.026,50.125 101.968,50.204C101.71,50.112 101.576,49.892 101.558,49.56C101.696,49.541 101.667,49.357 101.851,49.383C102.04,49.526 102.217,49.682 102.202,50.028ZM101.558,50.321C101.533,50.522 101.436,50.635 101.089,50.614C100.194,49.947 101.649,49.594 101.558,50.321ZM100.68,49.911C100.395,49.952 100.168,49.326 100.562,49.21C101.032,49.069 100.939,49.875 100.68,49.911ZM100.503,50.321C100.799,50.655 100.793,51.178 100.27,51.258C100.205,50.991 99.902,50.962 99.918,50.614C100.083,50.487 100.199,50.311 100.503,50.321ZM99.625,53.132C99.963,53.656 99.28,53.883 98.922,54.07C98.194,53.703 99.153,53.191 99.625,53.132ZM100.211,54.069C100.23,54.361 99.482,54.814 99.099,54.537C99.112,53.994 100.173,53.49 100.211,54.069ZM99.567,55.825C99.612,56.08 99.247,56.119 99.157,56.06C99.127,55.819 99.441,55.73 99.567,55.825ZM100.562,57.348C100.379,57.653 100.006,57.768 99.743,57.993C99.662,57.713 100.358,56.793 100.562,57.348ZM99.86,55.709C100.068,55.414 100.786,54.658 101.031,55.299C100.81,55.626 100.239,56.061 99.86,55.709ZM100.68,55.885C100.956,55.682 101.245,55.446 101.44,55.885C101.27,56.124 101.057,56.321 100.737,56.41C100.639,56.314 100.692,56.067 100.68,55.885ZM101.147,54.772C101.32,54.451 102.039,54.022 102.085,54.712C101.889,54.938 101.216,55.423 101.147,54.772ZM102.435,55.123C102.462,55.242 102.435,55.306 102.4,55.359C102.382,55.367 102.362,55.376 102.345,55.389L102.371,55.398C102.362,55.41 102.352,55.421 102.345,55.433C102.162,55.468 101.907,55.621 101.84,55.746C101.838,55.75 101.838,55.752 101.837,55.754C101.718,55.648 101.565,55.575 101.558,55.358C101.793,55.181 102.226,54.639 102.435,55.123ZM101.962,55.862C101.967,55.86 101.973,55.858 101.979,55.856C102.03,55.833 102.075,55.792 102.117,55.756C102.175,55.737 102.229,55.716 102.25,55.661C102.417,55.565 102.598,55.465 102.747,55.621C102.772,55.646 102.799,55.667 102.826,55.682C102.847,55.773 102.862,55.872 102.845,56.002C102.582,56.051 102.464,56.245 102.26,56.353C102.058,56.292 101.922,56.164 101.962,55.862ZM103.256,56.41C103.257,56.666 102.947,56.777 102.553,56.88C101.999,56.546 103.252,55.72 103.256,56.41ZM103.666,56.996C103.555,57.277 103.329,57.44 102.963,57.465C102.539,57.045 103.551,56.378 103.666,56.996ZM104.193,57.642C104.108,57.947 103.784,58.014 103.549,58.168C102.726,57.91 104,56.882 104.193,57.642ZM104.085,56.883C104.043,56.828 103.998,56.774 103.953,56.722C103.937,56.685 103.907,56.648 103.899,56.617C103.878,56.54 103.865,56.447 103.898,56.375C103.91,56.363 103.923,56.35 103.937,56.339L103.927,56.333C103.933,56.328 103.936,56.323 103.942,56.318C104.031,56.24 104.153,56.183 104.251,56.118C104.298,56.087 104.457,56.214 104.486,56.244C104.546,56.307 104.594,56.401 104.619,56.484C104.676,56.68 104.429,56.77 104.271,56.787C104.174,56.797 104.104,56.819 104.085,56.883ZM104.329,57.013C104.396,56.938 104.398,56.837 104.486,56.775C104.548,56.731 104.599,56.732 104.673,56.737C104.77,56.745 104.836,56.746 104.887,56.836C104.922,56.895 104.944,56.962 104.95,57.03C104.962,57.156 104.921,57.288 104.828,57.374C104.78,57.419 104.722,57.449 104.66,57.465C104.63,57.473 104.439,57.5 104.427,57.465C104.374,57.328 104.309,57.206 104.236,57.091C104.265,57.077 104.297,57.05 104.329,57.013ZM105.599,57.7C105.535,58.007 105.286,58.128 105.012,58.227C104.874,58.091 104.719,57.973 104.661,57.758C104.826,57.351 105.43,57.213 105.599,57.7ZM105.539,57.172C105.727,56.778 106.142,56.899 106.242,57.288C106.261,57.522 105.971,57.447 105.95,57.641C105.735,57.563 105.603,57.401 105.539,57.172ZM106.066,57.7C106.661,57.223 107.194,58.404 106.36,58.402C106.204,58.189 105.958,58.014 106.066,57.7ZM106.3,56.703C106.456,56.258 106.984,56.427 107.003,56.88C106.774,57.217 106.417,56.962 106.3,56.703ZM107.472,57.7C106.337,58.106 107.189,56.382 107.472,57.7ZM107.588,57.875C107.824,57.952 107.949,58.138 108.057,58.343C107.797,58.977 106.982,58.13 107.588,57.875ZM107.939,57.465C107.723,57.351 107.587,57.155 107.472,56.938C107.63,56.319 108.184,56.73 108.291,57.115C108.291,57.349 108.017,57.308 107.939,57.465ZM108.233,56.469C108.372,55.801 109.202,56.594 108.702,56.88C108.389,56.899 108.398,56.597 108.233,56.469ZM109.463,57.523C109.333,57.59 109.224,57.675 108.994,57.642C108.943,57.456 108.773,57.393 108.76,57.173C109.028,56.876 109.514,57.025 109.463,57.523ZM109.345,56.469C109.098,56.317 108.84,55.997 109.052,55.709C109.488,55.701 109.727,56.008 109.638,56.353C109.603,56.454 109.36,56.348 109.345,56.469ZM110.165,56.938C110.14,57.108 110.041,57.206 109.873,57.231C109.071,56.918 109.967,56.023 110.165,56.938ZM110.106,56.001C109.803,55.952 109.696,55.709 109.638,55.415C109.954,54.898 110.556,55.765 110.106,56.001ZM110.868,56.469C110.843,56.639 110.745,56.737 110.575,56.763C110.442,56.622 110.328,56.463 110.165,56.353C110.277,55.858 110.792,56.143 110.868,56.469ZM110.75,55.532C109.875,55.456 110.89,54.176 111.101,55.357C110.922,55.438 110.927,55.548 110.75,55.532ZM111.219,56.353C111.02,56.241 110.861,56.088 110.868,55.768C111.277,55.16 111.973,56.283 111.219,56.353ZM111.454,55.123C111.199,55.047 111.135,54.779 111.044,54.538C111.209,54.528 111.117,54.261 111.336,54.305C111.578,54.377 111.626,54.64 111.746,54.831C111.72,54.999 111.622,55.096 111.454,55.123ZM112.273,55.709C112.113,55.666 112.155,55.825 112.039,55.825C111.736,55.796 111.654,55.546 111.629,55.24C111.943,54.967 112.376,55.218 112.273,55.709ZM112.273,55.005C112.391,54.464 112.882,54.734 113.034,55.064C112.871,55.473 112.408,55.349 112.273,55.005ZM112.917,54.127C112.641,54.131 112.584,53.914 112.449,53.777C112.588,53.199 113.054,53.564 113.151,53.951C113.032,53.968 113.036,54.11 112.917,54.127ZM113.209,54.245C113.675,53.998 113.928,54.992 113.386,54.948C113.146,54.928 112.837,54.442 113.209,54.245ZM113.15,53.249C113.213,52.79 113.927,52.951 113.97,53.484C113.689,53.93 113.106,53.591 113.15,53.249ZM113.737,53.834C114.298,53.402 114.712,54.328 114.088,54.477C113.801,54.399 113.642,54.137 113.737,53.834ZM113.913,52.605C113.695,52.491 113.456,52.397 113.387,52.136C113.388,51.923 113.554,51.874 113.62,51.727C113.279,51.924 112.981,51.759 112.917,51.374C113.145,51.198 113.479,50.934 113.738,51.258C113.746,51.403 113.747,51.541 113.678,51.609C114.063,51.645 114.402,51.939 114.264,52.313C114.491,52.458 114.743,52.574 114.791,52.898C114.559,53.452 113.743,53.167 113.913,52.605ZM115.318,53.542C115.176,54.05 114.516,54.023 114.439,53.483C114.726,53.12 115.123,53.056 115.318,53.542ZM115.493,51.844C115.513,52.059 115.725,52.08 115.668,52.371C115.018,53.209 114.333,51.817 115.493,51.844ZM116.196,52.957C116.102,53.175 115.92,53.304 115.728,53.426C115.498,53.381 115.414,53.193 115.318,53.015C115.465,52.561 116.079,52.415 116.196,52.957ZM115.728,51.668C115.828,51.356 116.518,51.143 116.665,51.551C116.625,52.056 115.79,52.298 115.728,51.668ZM117.192,52.313C117.154,52.626 116.802,52.626 116.664,52.84C116.435,52.756 116.279,52.6 116.196,52.37C116.432,52.074 117.029,51.735 117.192,52.313ZM116.958,51.551C116.896,51.338 116.683,51.28 116.723,50.966C117.07,50.807 117.454,50.295 117.719,50.848C117.55,51.167 117.224,51.329 116.958,51.551ZM117.542,50.087C116.679,49.675 118.212,48.665 118.303,49.561C118.148,49.833 117.847,49.962 117.542,50.087ZM117.133,49.326C116.934,49.252 116.758,49.155 116.723,48.917C117.068,48.833 117.606,48.191 117.778,48.799C117.68,49.092 117.343,49.145 117.133,49.326ZM116.665,48.741C116.529,48.642 116.343,48.594 116.372,48.331C116.597,48.043 117.245,47.489 117.426,48.156C117.306,48.485 116.879,48.506 116.665,48.741ZM115.435,46.866C115.258,46.807 115.142,46.691 115.084,46.515C115.203,46.155 115.984,45.748 116.138,46.28C115.989,46.562 115.605,46.607 115.435,46.866ZM115.668,45.696C115.656,45.961 115.24,46.089 114.966,46.223C114.878,46.153 114.8,46.075 114.731,45.988C114.81,45.451 115.697,45.081 115.668,45.696ZM114.088,44.935C113.789,44.521 114.278,44.138 114.732,44.115C115.06,44.589 114.465,44.815 114.088,44.935ZM113.503,43.881C113.757,43.567 114.292,43.282 114.38,43.704C114.466,44.113 113.491,44.67 113.503,43.881ZM113.269,43.646C112.572,43.116 113.907,42.252 114.03,43.177C113.802,43.361 113.614,43.583 113.269,43.646ZM113.503,44.408C113.34,44.753 113.013,44.932 112.623,45.052C112.566,44.992 112.507,44.934 112.448,44.876C112.531,44.397 113.239,43.854 113.503,44.408ZM112.215,44.408C112.101,44.286 112.029,44.123 111.922,43.997C112.141,43.56 112.876,43.124 113.034,43.881C112.738,44.033 112.545,44.289 112.215,44.408ZM112.507,43.062C112.476,43.408 112.046,43.397 111.804,43.647C111.542,43.596 111.468,43.358 111.394,43.12C111.744,42.738 112.57,42.359 112.507,43.062ZM111.688,44.174C111.752,44.344 111.936,44.394 111.922,44.641C111.725,44.835 111.507,45.01 111.219,45.111C110.711,44.761 111.032,44.143 111.688,44.174ZM110.75,44.29C109.953,43.967 111.134,42.924 111.334,43.763C111.24,44.038 111.017,44.186 110.75,44.29ZM110.165,43.47C110.084,43.357 110.01,43.236 109.99,43.061C110.621,42.059 111.424,43.427 110.165,43.47ZM110.399,44.466C110.389,44.733 110.109,44.834 109.755,44.875C109.134,44.187 110.427,43.779 110.399,44.466ZM109.405,44.115C109.164,44.093 109.147,43.91 109.052,43.647C109.74,42.75 110.182,44.189 109.405,44.115ZM108.994,43.412C108.706,43.309 108.57,43.053 108.525,42.71C108.927,42.215 109.355,42.439 109.521,43.002C109.401,43.195 109.149,43.255 108.994,43.412ZM108.819,43.939C109.105,44.198 108.925,44.559 108.584,44.64C108.135,44.517 108.282,43.852 108.819,43.939ZM108.174,43.939C107.879,43.807 107.661,43.478 107.765,43.119C108.338,42.662 108.853,43.822 108.174,43.939ZM107.765,44.056C107.715,44.279 107.535,44.374 107.297,44.409C106.633,43.786 107.483,43.178 107.765,44.056ZM107.12,44.875C107.35,44.919 107.382,45.161 107.531,45.286C107.453,45.481 107.296,45.597 107.12,45.696C106.726,45.61 106.772,44.962 107.12,44.875ZM106.944,44.7C106.887,44.8 106.75,44.818 106.709,44.934C106.424,44.828 106.291,44.572 106.183,44.289C106.395,43.708 106.997,44.183 106.944,44.7ZM106.242,45.168C106.187,45.211 106.153,45.275 106.125,45.345C105.579,45.451 105.194,44.512 105.832,44.467C106.041,44.628 106.21,44.829 106.242,45.168ZM105.539,45.637C105.484,45.68 105.45,45.744 105.422,45.812L105.247,45.812C105.021,45.628 104.775,45.465 104.778,45.051C105.18,44.735 105.422,45.31 105.539,45.637ZM104.896,45.988C104.875,46.203 104.695,46.256 104.545,46.34C104.236,46.277 104.232,45.911 104.018,45.754C104.085,45.529 104.122,45.273 104.486,45.345C104.636,45.545 104.722,45.81 104.896,45.988ZM104.075,46.691C103.915,46.649 103.957,46.807 103.84,46.807C103.507,46.732 103.482,46.347 103.256,46.163C103.485,45.554 104.155,46.128 104.075,46.691ZM103.196,47.277C102.828,47.216 102.766,46.847 102.612,46.574C102.877,45.811 103.815,46.982 103.196,47.277ZM102.67,47.453C102.631,47.609 102.495,47.667 102.377,47.745C101.439,47.289 102.296,46.256 102.67,47.453ZM101.968,47.92C101.964,48.091 101.834,48.137 101.734,48.213C101.424,48.093 101.258,47.829 101.148,47.51C101.48,47.087 101.824,47.632 101.968,47.92ZM101.733,49.21C101.556,49.227 101.525,49.39 101.264,49.325C100.721,48.789 101.757,48.399 101.733,49.21ZM101.031,48.625C100.668,48.578 100.567,48.266 100.503,47.921C100.831,47.317 101.308,48.297 101.031,48.625ZM100.562,48.976C100.208,49.64 99.364,48.371 100.093,48.331C100.317,48.318 100.469,48.605 100.562,48.976ZM100.27,50.087C100.133,50.244 99.976,50.379 99.684,50.38C99.086,49.908 100.226,49.296 100.27,50.087ZM99.332,49.736C98.942,49.717 98.73,48.948 99.274,48.857C99.849,48.762 99.786,49.758 99.332,49.736ZM98.981,50.028C98.726,50.105 98.574,50.285 98.278,50.321C98.087,50.26 98.023,50.07 97.927,49.911C98.02,49.635 98.277,49.519 98.512,49.384C98.702,49.566 98.914,49.725 98.981,50.028ZM98.396,51.374C98.101,51.588 97.809,51.803 97.459,51.96C96.7,51.38 98.324,50.284 98.396,51.374ZM98.865,52.079C98.653,52.374 98.32,52.55 97.986,52.722C97.098,52.169 98.759,50.974 98.865,52.079ZM99.332,52.957C99.038,53.091 98.791,53.274 98.513,53.426C98.263,53.384 98.224,53.129 98.162,52.898C98.535,52.681 99.334,51.929 99.332,52.957ZM98.981,54.889C98.17,55.581 97.121,56.035 96.287,56.703C96.128,56.685 96.182,56.457 96.053,56.41C96.124,56.029 96.723,55.839 97.224,55.532C97.821,55.168 98.505,54.213 98.981,54.889ZM97.751,56.06C98.222,55.752 98.786,55.145 99.273,55.415C98.828,56.243 97.668,56.482 96.989,57.114C96.899,57.197 96.728,57.457 96.405,57.406C96.345,57.328 96.347,57.19 96.287,57.114C96.616,56.698 97.238,56.397 97.751,56.06ZM96.873,57.348C97.676,57.194 97.993,56.556 98.747,56.353C98.816,56.44 98.82,56.592 98.922,56.645C98.366,57.279 97.538,57.642 96.815,58.109C96.537,57.955 96.648,57.47 96.873,57.348ZM98.865,57.056C99.54,57.424 98.695,57.751 98.336,57.992C97.862,58.312 97.343,58.822 96.99,58.636C97.055,57.776 98.326,57.635 98.865,57.056ZM99.274,57.815C99.282,57.925 99.312,58.011 99.39,58.05C98.946,58.38 98.012,59.49 97.341,59.046C97.888,58.539 98.467,58.064 99.274,57.815ZM100.503,57.642C100.801,57.578 100.863,57.749 100.972,57.875C100.817,58.295 100.237,58.548 99.743,58.871C99.117,59.28 98.55,59.988 97.869,59.631C98.523,58.744 99.727,58.405 100.503,57.642ZM100.68,56.938C100.864,56.605 101.575,55.989 101.85,56.469C101.63,56.758 101.28,56.914 100.972,57.115C100.789,57.142 100.817,56.955 100.68,56.938ZM102.202,57.114C102.018,57.416 101.629,57.515 101.382,57.758C100.509,57.465 102.091,56.404 102.202,57.114ZM102.729,57.7C102.529,58.065 102.111,58.214 101.733,58.402C101.177,57.905 102.478,57.044 102.729,57.7ZM103.08,58.342C103.084,58.777 102.596,58.731 102.26,59.046C101.29,58.812 103.07,57.519 103.08,58.342ZM103.666,59.046C103.522,59.43 103.105,59.539 102.786,59.749C102.598,59.705 102.481,59.587 102.435,59.398C102.64,59.021 103.398,58.324 103.666,59.046ZM103.666,58.342C104.48,57.49 104.997,58.579 104.017,58.928C103.84,58.792 103.641,58.68 103.666,58.342ZM105.188,59.222C104.985,59.523 104.305,59.781 104.193,59.222C104.366,58.697 105.088,58.523 105.188,59.222ZM105.657,60.041C105.37,60.105 105.264,60.352 104.955,60.392C104.187,59.785 105.735,58.865 105.657,60.041ZM105.599,58.987C105.087,58.822 105.134,58.161 105.657,58.05C106.078,58.25 106.086,58.875 105.599,58.987ZM106.535,59.397C106.385,59.521 106.263,59.672 106.009,59.689C105.167,59.29 106.551,58.334 106.535,59.397ZM106.593,60.51C106.445,60.326 106.214,60.225 106.183,59.925C106.665,59.068 107.547,60.314 106.593,60.51ZM107.237,58.987C107.19,59.036 107.076,59.023 107.061,59.104C105.96,58.932 107.316,57.709 107.237,58.987ZM107.939,59.631C107.776,60.213 107.115,59.776 107.062,59.398C107.335,58.843 107.735,59.326 107.939,59.631ZM107.824,58.987C108.016,58.114 109.036,59.327 108.291,59.514C107.999,59.475 108.048,59.093 107.824,58.987ZM108.35,58.167C107.658,57.726 108.596,56.996 108.702,57.934C108.604,58.031 108.548,58.17 108.35,58.167ZM109.405,58.753C109.332,58.876 109.234,58.973 109.112,59.046C108.055,58.748 108.982,57.576 109.405,58.753ZM109.286,58.05C109.354,57.845 109.46,57.679 109.755,57.699C109.818,57.927 109.948,58.09 110.047,58.284C110.003,58.472 109.885,58.59 109.696,58.635C109.567,58.433 109.388,58.281 109.286,58.05ZM109.989,57.583C110.023,57.46 110.113,57.394 110.164,57.289C110.555,57.31 110.703,57.571 110.75,57.935C110.672,57.993 110.574,58.031 110.516,58.11C110.328,57.946 110.149,57.775 109.989,57.583ZM110.75,56.996C110.87,56.978 110.865,56.839 110.983,56.822C111.193,57.004 111.422,57.165 111.453,57.523C111.108,57.842 110.733,57.405 110.75,56.996ZM111.335,56.703C111.572,55.734 112.728,56.992 111.864,57.231C111.616,57.125 111.54,56.852 111.335,56.703ZM112.097,56.176C112.258,55.581 112.962,56.056 112.916,56.529C112.832,56.62 112.769,56.733 112.623,56.763C112.35,56.666 112.25,56.395 112.097,56.176ZM112.8,55.767C112.801,55.503 112.946,55.349 113.326,55.357C114.192,56.218 112.796,56.532 112.8,55.767ZM113.503,55.182C113.52,54.985 113.698,54.947 113.853,54.889C114.145,54.988 114.186,55.337 114.38,55.533C114.332,55.74 114.167,55.826 113.912,55.826C113.753,55.634 113.629,55.406 113.503,55.182ZM115.084,55.005C115.046,55.222 114.883,55.313 114.674,55.357C113.78,54.844 114.838,53.938 115.084,55.005ZM114.967,54.186C115.381,53.686 115.807,53.905 115.904,54.537C115.651,55.108 115.032,54.637 114.967,54.186ZM115.844,53.777C115.954,53.515 116.138,53.327 116.431,53.249C116.623,53.388 116.696,53.647 116.84,53.835C116.755,54.081 116.464,54.123 116.313,54.305C116.06,54.226 115.964,53.989 115.844,53.777ZM116.606,53.249C116.753,52.711 117.589,52.566 117.777,53.132C117.646,53.372 117.371,53.468 117.192,53.659C116.882,53.637 116.947,53.24 116.606,53.249ZM117.074,51.668C117.474,51.526 118.022,50.976 118.303,51.551C118.116,52.042 117.18,52.538 117.074,51.668ZM118.07,50.731C117.835,50.731 117.876,50.457 117.719,50.38C117.931,50.156 118.609,49.607 118.773,50.204C118.631,50.473 118.334,50.586 118.07,50.731ZM118.012,48.625C118.054,48.464 117.894,48.505 117.894,48.39C118.155,47.889 118.693,47.665 119.24,47.453C119.387,48.169 118.625,48.47 118.012,48.625ZM117.601,48.098C117.634,47.83 117.38,47.849 117.426,47.57C117.988,47.274 118.381,46.808 119.007,46.574C119.492,47.368 118.032,47.644 117.601,48.098ZM118.538,45.93C118.746,45.9 118.84,45.981 118.889,46.107C118.743,46.388 118.483,46.558 118.187,46.691C117.878,46.909 117.481,47.467 117.074,47.217C117.272,46.498 118.091,46.401 118.538,45.93ZM116.898,46.75C116.765,46.687 116.686,46.572 116.665,46.398C117.184,45.98 117.529,45.387 118.479,45.402C118.282,46.18 117.372,46.248 116.898,46.75ZM118.128,44.7C118.154,45.122 117.606,45.381 117.309,45.579C117.018,45.77 116.591,46.2 116.256,45.93C116.181,45.593 116.627,45.474 116.899,45.286C117.302,45.007 117.527,44.566 118.128,44.7ZM117.719,44.174C117.344,44.833 116.666,45.19 115.904,45.461C115.948,45.281 115.743,45.349 115.787,45.168C116.375,44.844 116.921,43.903 117.719,44.174ZM117.192,43.587C117.313,43.831 116.939,44.021 116.722,44.114C116.337,44.309 115.727,45.146 115.317,44.582C115.812,44.186 116.497,43.398 117.192,43.587ZM116.665,43.062C116.485,43.759 115.684,43.836 115.259,44.29C115.101,44.177 114.94,44.063 114.909,43.822C115.475,43.608 115.896,42.691 116.665,43.062ZM116.02,42.71C115.669,43.062 115.218,43.312 114.791,43.587C114.602,43.543 114.485,43.425 114.439,43.236C114.833,42.977 115.625,42.056 116.02,42.71ZM115.318,42.242C115.005,42.534 114.676,42.808 114.264,43.002C114.181,42.773 113.915,42.728 113.971,42.357C114.368,42.205 114.972,41.773 115.318,42.242ZM114.323,41.714C114.353,41.999 114.073,41.973 114.088,42.242C113.656,42.282 113.465,42.084 113.443,41.714C113.752,41.595 114.015,41.595 114.323,41.714ZM112.683,41.305C113.18,41.68 113.94,42.594 112.916,42.885C112.687,42.842 112.602,42.654 112.507,42.476C112.53,42.284 112.678,42.217 112.742,42.065C112.138,42.44 112.129,41.505 111.745,41.305C111.956,41.261 112.37,41.577 112.683,41.305ZM112.097,42.299C111.901,42.573 111.507,42.646 111.278,42.884C111.096,42.793 111.054,42.561 110.868,42.475C111.073,42.045 111.959,41.485 112.097,42.299ZM111.57,41.479C111.452,41.868 111.051,41.976 110.694,42.124C110.646,41.877 110.408,41.823 110.4,41.538C110.804,41.314 111.244,41.059 111.57,41.479ZM110.458,42.357C110.328,42.558 110.043,42.606 109.874,42.767C109.597,42.693 109.483,42.455 109.406,42.183C109.565,41.992 109.782,41.857 110.049,41.773C110.298,41.855 110.356,42.128 110.458,42.357ZM109.052,41.363C109.35,41.282 109.863,41.223 109.873,41.597C109.612,41.801 108.982,42.025 109.052,41.363ZM108.642,41.479C108.773,41.681 108.99,41.795 108.994,42.124C108.895,42.318 108.625,42.34 108.525,42.534C108.082,42.49 108.081,42.003 107.765,41.83C107.858,41.514 108.201,41.449 108.642,41.479ZM107.706,41.891C107.743,42.264 107.997,42.42 108.058,42.767C107.833,42.797 107.802,43.019 107.589,43.061C107.245,42.86 107.176,42.38 106.887,42.123C106.897,41.782 107.426,41.785 107.706,41.891ZM106.653,42.183C106.833,42.608 107.532,43.226 106.827,43.528C106.522,43.172 106.192,42.838 106.066,42.299C106.225,42.224 106.392,42.156 106.653,42.183ZM105.305,42.767C105.486,41.923 106.361,43.315 106.476,43.646C105.989,44.298 105.227,43.131 105.305,42.767ZM105.012,42.885C105.245,43.316 105.488,43.736 105.657,44.233C105.504,44.255 105.48,44.406 105.305,44.409C104.971,44.041 104.682,43.626 104.428,43.179C104.477,42.936 104.72,42.885 105.012,42.885ZM104.955,44.641C104.811,44.674 104.83,44.868 104.602,44.818C104.209,44.51 104.026,43.989 103.666,43.647C104.256,42.707 104.653,44.214 104.955,44.641ZM103.196,43.822C103.725,43.602 104.682,45.421 103.84,45.345C103.618,45.324 102.642,44.052 103.196,43.822ZM102.786,44.29C102.885,44.876 103.375,45.068 103.49,45.638C103.368,45.672 103.301,45.761 103.196,45.813C102.875,45.51 101.66,44.262 102.786,44.29ZM101.616,45.11C101.747,44.308 102.676,45.577 102.845,45.929C102.811,46.168 102.674,46.305 102.435,46.339C102.245,45.978 101.557,45.476 101.616,45.11ZM101.265,45.286C101.683,45.551 101.796,46.121 102.144,46.457C102.063,46.63 101.893,46.713 101.734,46.807C101.448,46.454 100.452,45.658 101.265,45.286ZM100.562,45.872C100.947,46.092 101.059,46.585 101.324,46.925C101.285,47.141 101.123,47.232 100.914,47.277C100.676,46.968 100.549,46.548 100.211,46.34C100.28,46.136 100.338,45.92 100.562,45.872ZM100.153,46.458C100.233,46.943 100.682,47.061 100.68,47.628C100.591,47.696 100.44,47.7 100.386,47.804C99.972,47.632 99.883,47.136 99.567,46.866C99.673,46.642 99.818,46.454 100.153,46.458ZM99.332,47.159C99.615,47.366 99.847,47.622 99.86,48.098C99.739,48.114 99.744,48.255 99.625,48.272C99.275,48.153 98.958,47.469 99.332,47.159ZM99.216,48.506C99.117,48.702 98.935,48.81 98.631,48.799C98.15,48.11 99.197,47.549 99.216,48.506ZM98.336,48.917C98.358,49.349 98.047,49.446 97.751,49.561C97.63,49.275 97.941,48.682 98.336,48.917ZM97.927,50.497C97.737,50.834 97.414,51.038 96.99,51.142C96.619,50.497 97.632,49.677 97.927,50.497ZM97.05,52.195C96.89,52.33 96.737,52.468 96.522,52.547C96.243,52.03 97.044,51.318 97.05,52.195ZM97.634,52.898C97.278,53.305 96.616,53.71 96.112,53.777C96,53.077 97.346,51.807 97.634,52.898ZM97.869,53.191C98.519,53.914 96.482,54.472 96.112,54.83C95.979,53.798 97.221,53.637 97.869,53.191ZM97.05,54.596C97.559,54.285 97.901,53.848 98.162,53.893C98.529,53.957 98.531,54.404 98.278,54.596C97.968,54.831 97.489,54.994 97.107,55.24C96.735,55.481 96.431,55.853 95.996,55.885C95.737,55.142 96.377,55.004 97.05,54.596ZM92.019,64.203C91.608,64.218 91.258,63.968 90.858,63.968C90.396,63.967 89.872,64.243 90.075,64.779C90.089,64.815 90.06,64.855 90.026,64.863C89.8,64.929 89.539,65.21 89.29,65.187C89.038,65.165 88.833,65.019 88.607,64.915C88.577,64.902 88.569,64.865 88.574,64.836C88.702,64.206 88.482,63.742 88.133,63.231C88.118,63.211 88.118,63.189 88.126,63.173C88.126,63.139 88.147,63.105 88.192,63.108C88.835,63.141 89.427,63.398 90.039,63.569C90.701,63.753 91.38,63.854 92.037,64.066C92.111,64.09 92.097,64.199 92.019,64.203ZM97.517,61.857C95.944,62.059 93.984,62.425 92.482,62.91C91.849,63.116 91.298,63.474 90.783,63.495C90.178,63.522 89.716,63.196 89.202,63.144C90.824,61.461 92.701,59.13 94.062,56.937C94.312,56.534 94.492,55.624 95.116,55.884C95.397,56.242 95.073,56.565 95.116,56.879C95.185,57.384 95.83,57.687 95.7,58.401C95.987,58.836 96.557,58.989 96.578,59.689C97.079,60.027 97.536,60.41 97.809,60.977C98.171,61.081 98.634,61.089 98.804,61.388C98.606,62.049 97.948,61.801 97.517,61.857ZM98.513,60.041C99.201,59.324 100.256,58.973 100.972,58.285C101.247,58.224 101.266,58.42 101.381,58.519C101.1,58.892 100.524,59.308 100.035,59.63C99.621,59.905 98.947,60.543 98.513,60.041ZM99.157,60.568C99.607,60.169 100.78,59.311 101.382,58.928C101.568,58.812 101.875,59.163 101.909,59.338C101.024,59.694 100.267,61.011 99.157,60.568ZM100.211,60.978C100.672,60.346 101.404,59.984 102.144,59.631C102.168,59.742 102.269,59.78 102.26,59.925C101.7,60.386 101.184,61.113 100.211,60.978ZM102.786,61.505C102.619,61.516 102.467,61.512 102.494,61.33C102.662,61.318 102.813,61.322 102.786,61.505ZM101.206,61.154C101.512,61.065 102.076,60.168 102.495,60.217C103.636,60.352 101.957,61.999 101.206,61.154ZM103.196,61.212C103.051,61.352 102.829,61.236 102.904,60.978C103.105,60.954 103.239,60.997 103.196,61.212ZM102.905,60.041C103.13,59.653 103.936,59.057 104.134,59.806C103.978,60.159 103.547,60.236 103.256,60.451C103.028,60.424 103.016,60.184 102.905,60.041ZM103.49,60.861C103.589,60.372 104.548,59.878 104.601,60.451C104.635,60.806 104.102,60.971 103.724,61.095C103.67,60.993 103.509,60.999 103.49,60.861ZM104.017,61.505C104.174,61.007 105.127,60.443 105.129,61.389C104.888,61.549 104.367,61.635 104.017,61.505ZM105.188,60.686C105.356,60.068 106.255,60.094 106.183,60.686C106.132,61.112 105.354,61.236 105.188,60.686ZM106.653,61.272C106.436,61.329 106.048,61.456 105.89,61.388C105.932,61.083 106.374,60.917 106.653,61.037L106.653,61.272ZM106.769,60.803C106.993,60.4 107.619,60.359 107.647,60.978C107.402,61.212 106.804,61.226 106.769,60.803ZM107.706,60.276C107.819,59.641 108.584,60.229 108.584,60.745C108.132,61.125 107.66,60.53 107.706,60.276ZM108.409,59.865C108.472,59.655 108.607,59.518 108.935,59.573C109.021,59.897 109.243,60.085 109.405,60.334C109.062,61.012 108.577,60.223 108.409,59.865ZM110.224,60.159C109.695,60.539 109.12,59.594 109.17,59.339C109.308,58.631 110.272,59.614 110.224,60.159ZM110.575,59.925C110.346,59.567 110.013,59.315 109.873,58.871C110.398,58.258 110.759,59.336 111.043,59.69C111.001,59.882 110.804,59.919 110.575,59.925ZM110.634,58.402C111.132,57.76 111.492,58.987 111.804,59.279C111.309,60.117 110.766,58.653 110.634,58.402ZM112.215,59.163C111.77,58.885 111.532,58.402 111.278,57.934C111.428,57.87 111.495,57.72 111.688,57.7C111.948,58.043 112.887,58.805 112.215,59.163ZM112.039,57.523C112.55,56.786 112.96,57.986 113.268,58.342C112.807,59.235 112.253,57.959 112.039,57.523ZM113.62,58.227C113.218,57.946 113.074,57.406 112.743,57.056C113.067,56.539 113.296,56.903 113.62,57.348C113.94,57.787 114.179,57.982 113.62,58.227ZM114.264,57.7C114.092,57.359 113.358,57.005 113.443,56.587C113.602,55.821 114.555,56.862 114.674,57.348C114.613,57.542 114.512,57.694 114.264,57.7ZM114.967,57.172C114.603,56.949 114.456,56.511 114.204,56.176C114.521,55.367 115.304,56.362 115.318,56.937C115.206,57.021 115.15,57.161 114.967,57.172ZM115.668,56.529C115.305,56.543 115.193,55.921 114.908,55.709C115.299,54.5 116.518,56.496 115.668,56.529ZM116.313,56.001C116.03,55.776 115.876,55.424 115.669,55.122C116.048,54.084 117.224,55.619 116.313,56.001ZM117.017,55.24C116.668,55.139 116.551,54.808 116.372,54.537C116.951,53.683 117.797,54.643 117.017,55.24ZM117.719,54.361C117.47,54.336 117.372,54.162 117.309,53.951C117.492,53.745 117.62,53.482 117.953,53.426C118.163,53.81 117.821,54.099 117.719,54.361ZM118.128,53.367C118.08,53.2 118.211,53.215 118.187,53.073C118.292,53.066 118.311,53.145 118.422,53.132C118.355,53.241 118.351,53.414 118.128,53.367ZM118.713,52.371C118.633,52.701 118.286,52.763 118.128,53.016C117.894,52.897 117.661,52.781 117.659,52.431C118.182,52.231 118.45,51.777 119.006,51.61C118.965,51.921 118.438,51.92 118.713,52.371ZM119.182,50.966C119.148,51.254 118.894,51.301 118.538,51.493C117.668,51.102 119.3,49.981 119.182,50.966ZM119.006,50.087C118.923,49.976 118.784,49.919 118.773,49.736C118.911,49.564 119.181,49.27 119.417,49.383C119.474,49.813 119.279,49.989 119.006,50.087Z" style="fill-rule:nonzero;"/>
    </g>
</svg>
