<?xml version="1.0" encoding="UTF-8" standalone="no"?>
<!DOCTYPE svg PUBLIC "-//W3C//DTD SVG 1.1//EN" "http://www.w3.org/Graphics/SVG/1.1/DTD/svg11.dtd">
<svg width="100%" height="100%" viewBox="0 0 105 126" version="1.1" xmlns="http://www.w3.org/2000/svg" xmlns:xlink="http://www.w3.org/1999/xlink" xml:space="preserve" xmlns:serif="http://www.serif.com/" style="fill-rule:evenodd;clip-rule:evenodd;stroke-linejoin:round;stroke-miterlimit:1.41421;">
    <g transform="matrix(1,0,0,1,-300.794,-13.713)">
        <path d="M355.301,32.918C355.294,32.83 355.286,32.742 355.278,32.653C355.394,32.653 356.246,32.931 356.364,32.966C356.274,32.902 356.186,32.837 356.098,32.773C356.307,32.845 356.515,32.918 356.724,32.99C356.691,32.934 356.66,32.878 356.626,32.822C356.876,32.918 357.124,33.014 357.373,33.111C357.35,33.07 357.326,33.03 357.302,32.99C357.656,33.207 358.009,33.424 358.363,33.64C358.34,33.576 358.316,33.512 358.29,33.448C358.561,33.661 358.846,34.133 359.157,33.858C359.245,34.207 360.384,34.734 360.338,34.966C361.074,35.306 361.278,35.788 361.664,36.58C361.519,36.532 361.374,36.484 361.229,36.435C361.512,36.725 361.792,37.013 362.074,37.303C361.977,37.295 361.882,37.287 361.785,37.279C361.905,37.472 362.026,37.664 362.144,37.857C362.104,37.866 362.066,37.874 362.026,37.881C362.326,38.676 362.503,39.527 362.579,40.604C362.509,40.532 362.434,40.459 362.364,40.387C362.451,40.805 362.539,41.223 362.629,41.64C362.538,41.607 362.482,41.536 362.461,41.423C362.531,42.273 362.72,42.879 362.724,43.785C362.583,43.722 362.495,43.602 362.461,43.423C362.539,44.002 362.619,44.58 362.7,45.159C362.581,45.164 362.494,45.092 362.434,44.942C362.583,45.701 362.854,46.358 362.989,47.038C362.901,46.974 362.814,46.909 362.723,46.846C363.21,48.62 364.97,49.463 366.723,49.328C367.382,49.277 367.804,49.402 368.436,49.569C368.731,49.116 369.082,48.701 369.47,48.327C370.37,47.464 371.481,46.796 372.693,46.488C373.738,46.222 374.815,46.127 375.871,45.918C376.902,45.714 378.333,45.72 379.217,45.241C381.284,44.121 384.042,43.186 385.743,41.544C386.466,40.846 386.929,39.933 387.479,39.104C388.141,38.105 389.046,37.284 389.929,36.485C391.663,34.833 393.443,33.304 395.003,31.482C395.785,30.568 396.421,29.734 396.987,28.677C397.567,27.688 397.94,27.454 397.4,26.417C396.32,24.338 397.688,22.032 398.77,20.292C399.529,19.7 400.017,20.515 399.904,21.231C400.188,21.088 400.786,20.058 401.034,19.761C401.621,19.057 402.077,18.213 402.579,17.448C402.988,16.773 403.2,15.999 403.615,15.327C403.889,14.919 404.539,13.775 405.061,13.713C405.283,13.837 405.386,14.023 405.374,14.272C405.356,14.948 405.323,14.553 405.735,14.87C405.839,15.703 405.242,16.684 405.053,17.486C404.842,18.385 404.748,19.278 404.518,20.172C404.275,21.114 404.501,22.443 404.042,23.268C403.443,24.346 403.222,25.606 402.571,26.718C402.084,27.552 401.741,28.55 401.397,29.472C400.651,30.526 400.164,31.596 399.643,32.773C398.604,35.122 396.895,37.365 395.489,39.518C394.826,40.533 394.143,41.535 393.421,42.508C392.737,43.431 391.795,43.942 391.132,44.918C388.979,46.173 387.139,47.804 385.112,49.275C383.242,50.633 381.616,52.319 379.332,52.926C377.837,53.322 376.062,53.632 375.319,55.158C374.379,57.085 374.397,59.511 374.873,61.528C375.163,62.752 375.545,63.94 375.891,65.153C376.265,66.458 376.253,67.89 376.428,69.237C376.591,70.496 376.753,71.755 376.916,73.014C376.954,74.163 376.886,75.358 377.181,76.472C377.496,77.664 377.393,78.964 377.421,80.195C378.009,81.161 378.367,82.234 378.795,83.159C380.168,84.886 380.385,87.346 381.257,89.369C382.388,91.992 382.301,94.121 381.664,96.846C381.468,97.875 381.726,98.887 381.685,99.914C381.636,101.205 381.573,102.495 381.509,103.786C381.444,105.122 381.334,106.453 381.229,107.786C381.131,108.106 380.772,108.357 380.819,108.726C380.926,109.587 381.038,110.448 381.146,111.309C381.218,111.872 381.191,112.269 381.132,112.822C381.411,113.386 381.466,113.489 381.445,114.171C381.611,114.624 381.745,114.983 382.012,115.388C382.463,116.075 382.262,116.826 382.658,117.536C383.212,118.53 383.324,119.45 383.614,120.533C383.89,121.586 384.924,122.545 384.185,123.541C383.787,124.078 383.371,125.228 384.476,125.09C385.419,124.972 385.885,125.911 386.525,126.563C387.304,127.357 387.344,128.037 386.715,128.906C385.863,130.086 386.126,130.605 386.602,131.931C386.672,131.899 386.747,131.867 386.817,131.835C387.063,133.247 388.494,134.55 388.118,136.032C387.828,137.177 386.707,138.683 385.492,138.968C383.808,138.968 381.923,138.97 380.794,137.499C380.374,136.951 379.935,136.466 380.457,135.836C380.841,135.372 379.837,134.822 380.021,134.004C379.005,134.004 378.384,135.016 377.505,133.99C377.077,133.491 376.731,132.923 376.391,132.363C375.841,131.461 375.678,131.738 374.683,131.539C371.896,130.979 370.516,127.963 369.082,125.836C367.951,124.156 366.726,122.54 365.496,120.932C364.283,119.346 363.688,117.801 362.889,116.005C362.381,111.903 362.164,107.607 361.276,103.571C359.462,104.363 357.563,105 356.018,106.246C354.495,107.475 352.97,108.704 351.445,109.933C348.683,112.16 346.576,115.066 343.691,117.191C342.128,118.344 340.604,119.454 339.203,120.8C338.57,121.387 337.819,121.758 337.85,122.655C337.881,123.619 338.008,124.603 337.797,125.547C337.446,127.12 337.61,128.643 336.335,129.789C335.657,130.398 335.206,130.26 335.591,131.082C335.956,131.864 335.876,132.771 336.264,133.547C335.255,135.63 332.427,135.221 330.476,135.345C328.865,135.447 327.257,135.563 325.649,135.692C323.849,135.838 322.334,135.729 320.552,135.453C319.493,135.29 318.171,135.285 317.274,134.618C316.157,133.787 316.973,132.193 318.077,131.97C321.111,131.357 324.402,129.531 326.747,127.452C326.027,126.798 325.31,125.436 325.685,124.472C326.255,123.009 326.483,121.522 326.77,119.981C327.289,117.192 328.607,114.384 329.515,111.692C330.623,108.843 331.756,106.006 332.786,103.13C333.186,102.007 333.515,99.931 334.408,99.15C334.864,98.752 335.295,98.327 335.733,97.909C336.546,97.778 337.267,97.288 337.999,96.915C340.495,95.641 342.871,94.182 345.241,92.69C346.491,91.904 347.706,91.202 349.047,90.584C349.984,90.152 351.646,89.799 352.141,88.834C352.541,88.054 353.013,87.335 353.863,87.002C354.718,86.666 355.603,86.927 356.508,86.725C357.226,86.565 357.632,85.906 358.255,85.578C358.913,85.232 359.387,85.578 359.609,84.823C359.752,84.342 360.085,84.005 360.386,83.621C359.926,83.454 359.738,80.826 359.67,80.318C359.459,78.738 358.964,77.339 358.224,75.928C357.52,74.587 356.59,73.435 355.661,72.247C354.857,71.043 354.22,69.645 353.034,68.754C352.018,67.989 350.308,66.276 349.006,66.82C347.753,67.342 346.58,68.048 345.307,68.539C342.368,69.669 338.854,69.028 335.749,69.348C334.341,69.494 332.877,70.103 331.506,70.103C329.889,70.103 328.277,70.545 326.677,70.757C323.128,71.224 319.655,70.722 316.129,70.966C314.547,71.074 313.226,70.565 311.739,70.06C310.494,69.638 308.92,69.662 307.963,68.657C307.481,68.151 306.649,68.178 305.975,68.054C305.378,67.832 304.897,67.36 304.379,67.006C303.128,66.153 301.772,66.676 300.794,65.307C301.137,64.181 303.002,65.047 303.76,65.126C305.387,65.297 306.973,65.715 308.603,65.884C308.391,65.353 308.121,65.038 308.748,64.584C309.293,64.58 309.844,64.919 310.297,65.185C311.111,65.662 311.393,65.834 312.354,65.676C313.172,65.542 313.867,66.15 314.58,66.536C314.901,66.927 314.834,67.372 315.431,67.37C316.466,67.367 317.496,67.162 318.52,67.046C319.537,66.931 320.564,66.918 321.507,66.511C322.382,66.134 323.258,65.768 324.167,65.479C325.799,64.96 327.391,64.655 329.095,64.568C330.936,64.476 332.838,64.688 334.491,63.844C336.262,62.94 337.898,62.444 339.83,61.977C340.76,61.752 341.654,61.605 342.604,61.498C343.315,60.901 344.017,60.295 344.778,59.762C346.252,58.73 347.569,58.037 349.302,57.571C350.121,57.35 350.645,57.438 351.452,57.655C352.381,57.906 352.419,57.653 353.099,57.151C354.146,56.379 355.96,54.927 355.669,53.579C355.447,52.559 355.023,50.656 353.778,50.417C352.711,50.211 351.637,50.947 350.598,51.088C349.722,51.207 348.336,50.435 348.876,49.363C348.941,49.234 348.419,48.549 348.456,48.174C347.822,47.953 348.258,46.998 347.628,46.61C346.554,45.948 347.607,44.456 347.638,43.524C347.492,43.621 347.413,43.675 347.251,43.596C347.445,43.53 347.52,43.397 347.614,43.234C347.521,42.774 347.315,42.56 346.843,42.487C346.907,42.446 346.971,42.406 347.035,42.366C346.932,42.287 346.904,42.244 346.937,42.15C347.179,42.014 347.125,40.87 347.163,40.511C347.263,39.587 347.621,38.828 347.782,37.932C347.395,38.151 347.198,38.555 346.866,38.824C346.978,38.361 347.178,37.991 347.395,37.643C347.179,37.683 346.961,37.723 346.746,37.764C346.949,37.578 348.168,36.685 348.168,36.438C348.007,36.462 347.847,36.487 347.685,36.51C348.093,36.022 348.672,35.624 349.156,35.209C348.924,35.306 348.691,35.401 348.457,35.499C348.978,35.065 349.408,34.739 350.024,34.463C349.862,34.479 349.701,34.494 349.542,34.511C349.916,34.511 351.049,33.969 351.421,33.788C351.205,33.764 350.986,33.74 350.771,33.715C350.877,33.709 352.436,33.48 352.481,33.45C352.249,33.378 352.016,33.305 351.784,33.233C352.305,33.233 352.828,33.233 353.349,33.233C353.294,33.144 353.223,33.072 353.133,33.016C353.621,33.009 354.112,33 354.604,32.992C354.449,32.92 354.297,32.847 354.146,32.775C354.53,32.822 354.917,32.87 355.301,32.918M349.494,34.533C349.51,34.533 349.527,34.533 349.543,34.533C349.527,34.533 349.51,34.533 349.494,34.533Z"/>
    </g>
</svg>
