<?xml version="1.0" encoding="UTF-8" standalone="no"?>
<!DOCTYPE svg PUBLIC "-//W3C//DTD SVG 1.1//EN" "http://www.w3.org/Graphics/SVG/1.1/DTD/svg11.dtd">
<svg width="100%" height="100%" viewBox="0 0 79 117" version="1.1" xmlns="http://www.w3.org/2000/svg" xmlns:xlink="http://www.w3.org/1999/xlink" xml:space="preserve" xmlns:serif="http://www.serif.com/" style="fill-rule:evenodd;clip-rule:evenodd;stroke-linejoin:round;stroke-miterlimit:1.41421;">
    <g transform="matrix(1,0,0,1,-384.898,-135.362)">
        <path d="M429.374,135.362C431.465,135.515 433.777,135.726 435.656,136.751C437.44,137.723 437.703,139.21 437.655,141.097C437.634,141.85 437.576,142.61 437.437,143.351C437.272,144.555 437.414,145.911 437.184,147.068C436.929,148.362 436.63,149.657 436.158,150.892C435.724,152.021 434.901,152.52 434.201,153.441C434.853,153.557 435.647,154.141 436.242,154.424C437.082,154.826 437.985,155.062 438.791,155.513C439.352,155.826 439.638,155.71 440.348,155.71C441.596,155.71 442.478,155.894 443.562,156.528C444.342,156.985 444.929,156.506 445.733,156.196C447.065,155.938 448.154,155.703 449.365,155.084C451.604,153.936 454.141,154.537 456.477,153.72C455.827,153.074 455.348,152.266 454.909,151.47C455.159,150.888 455.641,149.857 456.43,149.926C456.612,150.357 456.407,151.621 457.112,151.621C457.821,150.736 457.669,149.81 457.444,148.737C457.197,147.557 456.149,143.905 457.288,142.999C458.074,143.052 458.011,145.249 458.325,145.249C458.32,143.958 458.072,142.7 458.376,141.609C458.992,141.583 459.263,141.683 459.263,142.291C461.07,140.894 460.857,146.943 461.337,146.943C461.384,145.821 460.546,144.479 461.157,143.631C462.117,143.718 462.213,145.237 462.373,145.969C462.611,147.058 463.302,147.975 463.527,149.005C463.895,150.688 463.813,153.468 462.582,154.811C460.862,156.694 458.181,158.063 455.862,159.017C453.308,160.065 449.747,160.27 447.605,161.963C446.387,162.708 445.229,163.727 443.743,163.725C443.006,163.723 442.339,163.33 442.092,164.175C441.929,164.74 441.801,165.317 441.638,165.881C441.412,166.655 441.011,166.94 441.789,167.386C442.312,167.688 442.72,167.761 443.308,167.88C444.657,168.28 445.489,169.699 445.936,170.939C446.203,172.22 446.825,173.086 446.796,174.429C446.796,175.71 446.983,176.911 447.234,178.162C447.506,179.528 447.537,180.955 447.657,182.342C447.369,183.847 446.905,185.315 446.516,186.794C445.322,189.033 444.346,191.737 442.21,193.263C441.11,194.045 439.983,194.494 438.703,194.874C437.31,195.29 436.819,195.934 436.718,197.336C436.304,203.07 437.251,208.854 437.351,214.606C437.404,217.53 438.024,220.489 438.287,223.405C438.55,226.315 439.507,229.415 440.672,232.089C441.198,233.298 441.817,234.468 442.196,235.735C442.678,237.339 442.326,237.362 441.258,238.339C440.781,238.773 440.287,239.071 439.739,239.413C439.791,240.038 439.927,240.655 440.089,241.265C440.243,241.843 440.422,242.417 440.558,243.001C440.773,243.919 441.151,243.415 441.787,243.964C441.798,244.706 442.248,245.349 442.344,246.083C442.399,246.511 442.172,248.079 442.524,248.161C442.949,250.399 440.55,250.337 438.86,250.306C437.741,250.288 436.833,250.017 435.796,250.562C434.504,251.244 432.9,251.289 431.474,251.455C430.413,251.578 426.39,252.381 425.988,250.715C425.544,248.879 428.675,248.815 429.682,248.151C430.62,247.532 431.307,246.618 432.263,246.018C433.357,245.33 434.061,244.678 434.582,243.483C436.056,241.971 433.233,240.102 433.648,238.122C432.844,236.833 432.702,235.542 432.08,234.155C431.675,232.723 431.162,231.436 430.537,230.085C430.357,229.009 429.746,228.333 429.4,227.3C428.938,225.919 429.35,224.374 428.489,223.206C428.26,221.944 427.743,220.796 427.453,219.552C427.204,218.482 426.24,217.152 426.303,216.066C426.347,215.3 426.593,214.562 426.893,213.865C427.135,213.31 426.685,212.609 426.505,212.094C426.081,210.871 426.04,210.742 424.808,210.371C422.275,209.607 422.122,206.268 423.565,204.453C425.008,202.638 422.728,198.763 422.439,196.716C422.275,195.544 422.426,194.249 422.095,193.117C421.759,191.959 421.295,190.895 421.255,189.669C421.209,188.354 421.559,187.783 422.572,187.022C422.795,186.625 422.587,186.112 422.411,185.748C421.957,184.792 422.539,185.04 422.265,184.008C420.732,178.285 419.455,172.326 419.056,166.415C418.95,164.828 419.276,163.269 419.54,161.713C419.801,160.158 419.853,159.2 418.098,159.153C416.434,159.109 414.8,158.794 413.13,158.834C411.159,158.881 409.212,159.223 407.274,159.565C405.821,159.821 404.238,159.712 402.748,159.808C401.254,159.904 399.738,159.877 398.253,159.678C396.825,159.487 394.659,158.757 393.471,159.615C393.096,160.2 392.818,160.296 392.157,160.574C391.869,161.239 391.313,161.481 390.615,161.611C390.771,161.925 392.384,162.272 392.738,162.395C391.717,162.906 390.374,163.578 390.578,164.715C390.905,166.532 391.232,168.347 391.561,170.163C392.174,173.559 392.998,176.913 393.718,180.285C395.138,186.955 398.962,193.337 401.839,199.463C399.065,199.032 396.071,195.604 394.743,193.303C392.893,190.107 392.125,186.378 391.404,182.794C390.579,178.688 390.091,174.505 389.401,170.372C389.1,168.581 388.82,166.793 388.564,164.996C388.446,164.177 388.489,164.075 387.629,163.896C387.373,163.844 384.898,163.425 384.898,163.305C385.345,163.305 386.486,161.994 386.846,161.688C386.576,160.92 386.096,160.244 385.853,159.462C385.55,158.49 385.874,158.025 386.465,157.289C385.877,156.559 384.633,155.549 386.214,155.113C386.568,155.014 387.568,154.689 387.744,155.181C388.185,156.439 387.995,156.393 389.448,156.519C390.754,156.631 391.001,156.128 392.356,155.922C392.93,156.968 395.097,156.2 396.184,155.994C398.622,155.532 401.109,154.758 403.601,154.758C406.385,154.758 409.144,154.515 411.853,153.887C414.291,153.323 416.81,153.249 419.259,152.776C420.53,152.528 421.635,152.632 422.927,152.744C424.127,152.847 425.365,152.274 426.518,152.484C426.521,151.558 426.379,150.643 426.303,149.721C426.261,149.252 426.247,148.783 426.265,148.312C425.814,148.362 425.386,148.28 425.109,147.892C424.611,147.195 423.444,144.802 424.395,144.085C426.098,142.799 424.33,140.882 424.976,139.083C425.656,137.164 427.65,136.123 429.374,135.362M458.323,145.273C458.323,145.29 458.323,145.307 458.323,145.325C458.323,145.307 458.323,145.291 458.323,145.273Z"/>
    </g>
</svg>
