<?xml version="1.0" encoding="UTF-8" standalone="no"?>
<!DOCTYPE svg PUBLIC "-//W3C//DTD SVG 1.1//EN" "http://www.w3.org/Graphics/SVG/1.1/DTD/svg11.dtd">
<svg width="100%" height="100%" viewBox="0 0 115 98" version="1.1" xmlns="http://www.w3.org/2000/svg" xmlns:xlink="http://www.w3.org/1999/xlink" xml:space="preserve" xmlns:serif="http://www.serif.com/" style="fill-rule:evenodd;clip-rule:evenodd;stroke-linejoin:round;stroke-miterlimit:1.41421;">
    <g transform="matrix(1,0,0,1,-450.308,-146.149)">
        <path d="M564.054,175.057C564.143,174.816 564.192,174.342 564.054,173.984C563.573,173.871 563.089,173.769 562.608,173.66C560.477,172.758 559.088,171.283 556.065,171.139C555.917,170.81 555.821,170.412 555.475,170.284C555.133,170.284 554.795,170.284 554.457,170.284C553.297,170.025 552.144,169.439 551.076,169.211C550.236,169.102 549.394,168.998 548.555,168.887C548.017,168.657 547.383,168.147 546.733,167.924C546.052,167.78 545.375,167.637 544.698,167.495C544.151,167.209 543.702,166.492 542.869,166.475C542.535,166.469 542.213,166.799 541.694,166.688C541.116,166.565 540.522,166.25 539.656,166.367C539.245,166.402 538.833,166.439 538.421,166.475C538.136,166.315 537.853,166.153 537.566,165.992C537.009,165.959 536.457,165.921 535.904,165.887C535.472,165.726 535.045,165.565 534.615,165.404C533.81,165.298 533.007,165.19 532.201,165.081C531.828,164.849 531.451,164.617 531.073,164.386C530.785,164.223 530.513,164.342 530.109,164.223C529.679,163.938 529.25,163.65 528.822,163.364C528.34,163.223 527.859,163.079 527.375,162.938C527.158,162.649 526.945,162.364 526.732,162.081C526.15,161.332 524.994,160.29 523.943,160.097C522.83,159.889 521.832,161.208 521.097,161.541C519.656,162.168 518.972,160.435 518.633,159.666C519.354,159.492 521.786,158.136 522.172,157.627C523.075,156.445 524.605,153.904 523.889,151.945C523.622,151.299 523.351,150.654 523.081,150.011C522.507,149.052 521.249,149.109 520.833,147.865C520.722,147.973 520.618,148.08 520.511,148.189C520.212,147.842 520.025,147.298 519.491,147.494C519.436,147.331 519.38,147.17 519.33,147.006C519.038,146.847 518.892,147.032 518.579,146.954C517.833,146.778 517.268,146.207 516.005,146.149C515.649,146.618 515.288,147.079 514.932,147.544C514.075,148.063 513.215,148.236 512.464,148.832C512.11,149.112 512.122,149.627 511.821,149.956C511.243,150.594 509.999,150.252 509.569,151.085C509.549,151.19 509.53,151.299 509.514,151.409C509.674,151.658 509.837,151.909 509.998,152.156C509.734,152.338 509.728,152.669 509.459,152.856C509.549,153.069 509.641,153.284 509.729,153.5C509.018,153.67 508.823,155.723 509.032,156.396C509.612,156.775 511.028,156.906 511.444,157.467C511.716,157.829 511.654,158.25 511.821,158.75C512.565,160.974 511.354,163.119 509.139,163.688C505.811,164.541 505.368,161.925 503.025,161.381C501.483,161.027 498.561,160.508 498.04,159.342C497.985,159.294 497.931,159.237 497.878,159.18C498.47,158.627 499.358,157.329 499.97,156.985C500.665,156.754 501.365,156.521 502.062,156.284C502.886,155.78 504.858,152.959 504.365,151.355C503.85,149.656 502.748,149.994 501.525,149.154C500.619,148.531 499.929,147.645 498.846,147.171C495.876,145.875 493.033,146.856 491.82,149.05C491.618,149.403 491.564,150.12 491.44,150.442C491.187,150.487 491.181,150.425 490.961,150.335C491.045,150.509 491.107,150.596 491.068,150.765C490.877,151.063 490.145,151.307 489.781,151.411C489.511,151.92 489.732,152.405 489.996,152.802C489.641,153.259 489.307,154.556 489.46,155.213C489.162,155.553 488.957,155.592 488.977,156.285C489.211,156.541 489.44,156.787 489.674,157.04C490.523,157.46 491.352,157.165 491.82,157.952C492.113,158.451 492.022,161.54 491.709,162.136C491.474,162.586 490.977,162.97 490.479,163.155C489.239,163.605 485.678,162.336 483.883,162.028C483.06,162.047 482.237,162.063 481.415,162.083C480.877,161.796 480.342,161.511 479.805,161.225C477.875,160.633 475.945,160.042 474.012,159.456C473.012,158.885 472.012,158.31 471.01,157.737C469.063,156.922 467.021,156.636 464.949,155.857C464.449,155.592 463.947,155.324 463.451,155.056C461.928,154.517 460.411,153.983 458.888,153.445C457.657,153.107 456.423,152.768 455.188,152.428C454.513,152.088 453.829,151.744 453.152,151.411C452.594,151.207 451.496,150.666 451.005,150.872C450.971,150.872 450.934,150.872 450.901,150.872C451.002,151.626 452.36,152.173 452.989,152.374C453.01,152.409 453.03,152.443 453.046,152.481C452.218,152.466 451.029,152.492 450.362,152.267C450.347,152.392 450.328,152.516 450.308,152.642C451.793,153.123 453.274,153.607 454.76,154.087C454.797,154.213 454.83,154.339 454.869,154.467C454.029,154.516 453.189,154.571 452.348,154.626C452.259,154.823 452.17,155.021 452.078,155.212C452.078,155.233 452.078,155.253 452.078,155.27C452.767,155.778 453.764,155.387 454.707,155.483C455.309,155.543 455.837,155.751 456.313,155.856C457.384,156.104 458.744,155.607 459.696,156.071C460.285,156.522 460.875,156.967 461.464,157.415C463.413,158.486 465.363,159.559 467.309,160.632C469.141,161.696 471.248,162.05 473.264,162.885C474.808,163.526 476.336,164.328 477.981,165.033C480.055,165.914 483.261,167.632 485.544,167.98C485.603,168.251 485.612,168.532 485.814,168.785C485.796,169.042 485.705,169.042 485.544,169.266C485.946,170.291 485.304,171.326 485.651,172.427C485.753,172.75 486.053,172.972 486.134,173.398C486.134,173.899 486.134,174.4 486.134,174.897C486.291,175.26 486.705,175.277 486.829,175.813C487.029,176.655 486.71,176.833 486.724,177.257C486.737,177.68 487.245,179.176 487.42,179.616C486.013,180.492 485.217,181.804 485.868,183.637C486.867,184.09 489.39,183.886 489.674,185.034C489.906,184.979 490.135,184.928 490.369,184.87C490.441,185.177 490.514,185.479 490.584,185.786C489.34,187.426 488.039,189.101 486.724,190.717C486.082,191.253 485.438,191.79 484.793,192.327C483.207,194.358 481.508,196.289 480.288,198.657C479.6,199.993 478.376,200.42 478.196,202.302C478.554,202.445 478.91,202.588 479.269,202.73C479.318,203.068 479.09,203.472 478.948,203.804C478.948,203.823 478.948,203.841 478.948,203.857C479.197,203.841 479.449,203.823 479.698,203.804C479.843,204.057 479.984,204.304 480.128,204.553C480.278,204.617 481.318,204.662 481.734,204.769C482.089,204.427 482.279,203.975 482.755,203.748C482.859,203.643 482.971,203.535 483.074,203.427C483.185,203.643 483.289,203.857 483.4,204.073C483.416,204.073 483.431,204.073 483.453,204.073C483.683,203.643 483.918,203.216 484.148,202.787C484.36,202.693 484.767,202.795 485.06,202.677C485.273,202.499 485.49,202.323 485.703,202.143C485.756,202.09 485.812,202.036 485.868,201.983C485.94,202.085 486.01,202.195 486.082,202.303C486.082,202.303 487.634,201.704 487.955,201.499C488.154,201.142 488.351,200.784 488.547,200.427C489.011,200.032 489.479,199.64 489.942,199.246C490.087,199.442 490.227,199.64 490.37,199.834C490.541,199.921 490.563,199.455 490.585,199.246C490.765,199.37 490.942,199.499 491.122,199.622C491.372,199.281 491.623,198.943 491.871,198.603C491.871,198.566 491.871,198.532 491.871,198.497C492.013,198.603 492.159,198.711 492.302,198.817C492.407,198.925 492.516,199.036 492.623,199.138C492.802,198.674 492.981,198.205 493.162,197.744C493.336,197.955 493.409,198.473 493.429,198.816C493.466,198.816 493.498,198.816 493.536,198.816C493.785,198.299 494.029,197.907 494.019,197.045C494.177,197.261 494.338,197.476 494.5,197.689C494.553,197.725 494.606,197.76 494.663,197.797C494.881,197.216 495.019,196.638 495.358,196.19C495.377,196.151 495.392,196.117 495.412,196.077C495.463,196.405 495.519,196.722 495.573,197.046C495.929,197.226 496.289,197.408 496.646,197.58C496.931,197.152 497.218,196.722 497.503,196.294C497.538,196.275 497.577,196.264 497.61,196.242C498.207,198.134 499.442,199.309 500.29,200.907C498.343,203.019 497.145,206.126 495.786,208.793C495.073,210.185 494.112,211.583 493.802,213.298C493.402,215.511 494.726,217.387 495.251,218.926C496.362,222.195 496.712,225.918 497.718,229.17C498.118,230.465 499.124,233.802 498.681,235.713C498.368,237.067 497.836,238.378 496.804,239.04C495.714,239.734 492.937,240.429 492.406,241.507C492.39,241.756 492.373,242.003 492.353,242.256C492.353,242.274 492.353,242.289 492.353,242.308C493.21,242.952 494.627,242.585 496.001,242.791C498.72,242.899 501.436,243.003 504.153,243.114C504.456,242.791 504.759,242.468 505.063,242.145C505.659,240.637 504.468,239.108 504.153,238.176C503.973,237.251 503.794,236.322 503.616,235.391C503.636,234.642 503.651,233.888 503.669,233.141C503.616,231.743 503.563,230.35 503.509,228.956C503.745,227.53 504.081,225.477 503.778,223.81C503.155,220.393 501.81,218.04 501.097,215.065C502.197,213.585 504.001,212.987 505.493,211.9C506.154,211.326 506.817,210.757 507.477,210.184C508.03,210.847 508.585,211.508 509.139,212.168C510.346,213.679 511.678,214.789 512.41,216.835C512.73,217.995 513.053,219.157 513.375,220.32C514.574,223.166 516.012,226.026 516.699,229.328C516.752,230.585 516.806,231.829 516.861,233.081C517.251,234.444 517.646,235.802 518.04,237.16C518.417,237.624 518.793,238.09 519.166,238.555C520.307,240.216 521.053,242.323 522.922,243.22C523.85,243.916 525.349,242.548 525.602,242.04C525.248,241.313 525.25,240.267 524.904,239.465C524.405,238.626 523.904,237.786 523.403,236.944C522.94,235.339 523.766,233.879 523.728,232.6C523.288,232.015 522.673,230.901 521.957,230.614C521.632,230.461 521.397,230.635 521.261,230.831C521.029,230.76 520.794,230.686 520.564,230.614C519.966,230.033 520.298,227.995 520.134,227.023C519.866,223.809 519.597,220.585 519.33,217.369C518.128,212.481 514.137,209.806 512.411,205.305C513.354,203.935 515.51,200.81 517.13,200.317C517.983,200.835 518.624,202.259 519.224,203.053C520.419,204.638 521.973,206.425 523.511,207.665C526.097,209.747 528.204,212.303 530.538,214.635C531.8,215.9 533.367,216.839 534.456,218.281C535.79,220.06 536.489,222.313 537.886,224.02C538.421,224.416 538.956,224.808 539.495,225.201C540.655,226.328 541.817,227.453 542.98,228.58C543.57,229.275 544.158,229.974 544.749,230.672C545.387,231.543 545.829,232.651 546.466,233.513C546.177,234.208 546.277,235.471 546.679,236.142C547.075,236.796 548.14,237.043 548.773,237.485C549.503,237.994 549.988,238.932 550.543,239.629C550.897,240.078 551.522,240.277 551.883,240.701C552.278,241.236 552.672,241.773 553.065,242.308C553.919,242.752 556.86,243.332 557.569,242.363C558.077,241.665 557.477,239.278 557.139,238.609C556.241,236.831 554.267,236.119 552.689,235.017C551.682,234.314 551.178,233.021 550.438,232.069C548.698,229.837 547.693,226.952 546.413,224.238C544.7,221.286 542.982,218.337 541.267,215.386C540.242,213.897 538.335,213.266 537.245,211.85C536.316,210.311 535.385,208.771 534.459,207.24C534.028,206.217 533.598,205.198 533.169,204.181C532.203,202.554 531.237,200.924 530.275,199.3C531.056,199.691 531.845,200.085 532.63,200.479C535.687,201.582 539.323,201.383 542.122,202.626C543.247,203.123 543.899,204.32 544.805,204.769C545.128,204.839 545.449,204.913 545.771,204.981C546.541,205.325 547.31,205.664 548.077,206.004C548.885,206.039 549.683,206.073 550.49,206.111C552.317,206.417 557.023,207.431 558.161,206.004C558.635,205.403 558.502,204.122 558.43,203.269C555.991,202.029 553.453,201.48 550.223,200.908C549.192,200.724 548.205,200.894 547.27,201.018C546.469,200.835 545.666,200.66 544.86,200.479C544.272,200.16 543.682,199.833 543.09,199.514C540.194,198.007 537.681,196.116 534.724,194.74C532.87,193.879 530.866,193.451 528.557,192.97C527.344,192.718 525.947,192.849 525.395,191.95C525.142,191.004 524.893,190.054 524.641,189.109C524.696,188.664 524.75,188.215 524.804,187.768C524.393,186.385 522.969,185.496 522.336,184.336C522.316,183.833 522.297,183.333 522.279,182.831C522.037,181.946 521.576,181.566 522.121,180.688C521.467,179.461 521.697,179.486 522.228,178.382C522.49,177.837 522.277,176.819 522.603,176.341C523.282,175.345 524.392,174.756 524.749,173.396C525.12,173.787 525.498,174.183 525.873,174.571C526.43,174.772 526.983,174.967 527.535,175.164C528.37,175.507 528.88,176.334 530.003,176.342C530.696,175.64 529.345,174.813 528.663,174.629C528.556,174.502 528.446,174.378 528.341,174.254C528.783,174.076 529.653,174.227 530.218,174.198C531.124,175.052 532.433,175.592 533.221,176.559C533.4,176.559 533.579,176.559 533.757,176.559C533.864,176.485 533.972,176.414 534.08,176.341C534.08,176.29 534.08,176.239 534.08,176.181C533.452,175.648 532.827,175.11 532.202,174.571C532.202,174.502 532.202,174.43 532.202,174.36C532.931,174.514 533.444,174.893 534.293,174.843C534.386,174.719 534.474,174.592 534.562,174.468C534.115,174.285 533.668,174.112 533.221,173.929C533.293,173.786 533.365,173.643 533.438,173.502C532.826,172.857 531.257,173.122 530.275,172.855C528.726,172.439 527.322,171.301 525.605,170.981C525.517,170.748 525.427,170.517 525.335,170.285C525.68,170.159 526.017,170.031 526.356,169.909C526.906,170.517 528.096,171.032 528.984,171.248C529.573,171.248 530.163,171.248 530.755,171.248C532.036,171.489 533.452,171.942 534.616,172.215C535.576,172.44 537.576,172.32 537.995,171.947C539.245,172.374 540.497,172.803 541.747,173.233C543.178,173.199 544.609,173.161 546.038,173.129C548.173,173.472 551.038,173.354 553.601,173.34C554.066,173.841 554.531,174.343 554.994,174.843C555.478,174.966 555.962,175.093 556.445,175.217C556.89,175.521 557.336,175.824 557.784,176.129C558.162,176.407 558.833,177.212 559.554,176.773C559.724,176.675 559.733,176.624 559.823,176.451C559.411,175.44 558.491,175.005 557.678,174.415C557.742,173.919 557.93,173.661 558.321,173.503C559.733,172.979 562.282,176.076 564.326,175.649C564.382,175.522 564.434,175.399 564.487,175.274C564.341,175.2 564.198,175.127 564.054,175.057ZM502.756,177.74C501.733,177.899 500.829,178.003 499.646,177.951C500.934,176.326 503.307,176.011 505.008,174.787C505.063,174.77 505.115,174.751 505.169,174.733C505.519,175.321 504.99,175.88 505.169,176.608C505.283,177.069 505.67,177.325 505.708,177.951C504.723,177.881 503.74,177.81 502.756,177.74Z"/>
    </g>
</svg>
