<?xml version="1.0" encoding="UTF-8" standalone="no"?>
<!DOCTYPE svg PUBLIC "-//W3C//DTD SVG 1.1//EN" "http://www.w3.org/Graphics/SVG/1.1/DTD/svg11.dtd">
<svg width="100%" height="100%" viewBox="0 0 49 125" version="1.1" xmlns="http://www.w3.org/2000/svg" xmlns:xlink="http://www.w3.org/1999/xlink" xml:space="preserve" xmlns:serif="http://www.serif.com/" style="fill-rule:evenodd;clip-rule:evenodd;stroke-linejoin:round;stroke-miterlimit:1.41421;">
    <g transform="matrix(1,0,0,1,-272.492,-131.896)">
        <path d="M298.279,162.812C297.805,162.794 297.358,162.692 297.036,162.528C296.805,161.182 296.426,159.885 296.114,158.445C296.055,157.95 295.995,157.451 295.936,156.955C295.979,156.687 296.223,156.428 296.292,156.21C296.445,155.718 296.099,155.202 296.184,154.827C296.267,154.684 296.35,154.542 296.433,154.399C296.63,153.823 296.571,153.169 296.788,152.661C297.06,152.259 297.333,151.855 297.605,151.453C297.439,151.325 297.273,151.193 297.107,151.064C297.107,151.028 297.107,150.993 297.107,150.956C298.352,149.837 300.461,149.223 302.539,150.105C302.901,150.259 303.213,150.525 303.639,150.674C303.975,150.79 304.453,150.655 304.881,150.78C305.222,150.878 305.711,151.363 305.91,151.631C306.598,152.55 306.68,153.948 306.797,155.464C306.69,155.808 306.584,156.151 306.478,156.494C306.372,156.967 306.265,157.44 306.159,157.913C305.581,158.952 304.656,159.396 304.418,160.788C304.079,162.775 304.759,165.065 306.264,165.331C307.109,165.48 309.74,163.492 310.275,163.06C311.866,161.776 312.739,159.572 313.292,157.274C313.303,156.944 313.315,156.612 313.326,156.282C313.517,155.914 313.705,155.548 313.895,155.18C313.942,154.767 313.99,154.354 314.038,153.939C314.219,153.217 314.5,152.387 314.677,151.562C314.677,151.028 314.677,150.497 314.677,149.965C315.022,148.714 315.071,147.109 315.28,145.705C315.22,145.279 315.162,144.852 315.102,144.427C315.055,143.777 315.007,143.125 314.96,142.474C314.771,141.569 314.231,140.307 314.677,139.458C313.383,139.473 312.641,138.413 311.553,138.108C311.281,138.108 311.008,138.108 310.736,138.108C310.368,138.002 309.699,137.648 309.564,137.292C309.497,137.118 309.59,136.953 309.672,136.831C310.698,136.419 311.884,137.076 312.831,136.795C312.843,136.512 312.854,136.228 312.866,135.943C312.158,136.172 311.549,136.417 311.164,135.801C310.782,135.932 310.426,135.92 310.239,135.624C310.205,135.518 310.17,135.411 310.134,135.305C310.157,135.258 310.181,135.21 310.205,135.164C310.785,134.88 311.364,134.596 311.944,134.311C311.609,133.765 310.054,132.62 310.382,131.896C310.489,131.896 310.595,131.896 310.701,131.896C311.63,132.325 312.483,133.2 313.327,133.743C313.748,134.013 314.503,134.015 314.925,134.311C316.381,135.332 318.05,137.356 318.547,139.317C319.054,139.424 319.495,139.53 319.717,139.919C320.216,140.789 319.682,144.279 319.893,145.597C320.107,147.36 320.321,149.123 320.532,150.886C320.532,151.254 320.532,151.621 320.532,151.987C320.581,152.71 320.627,153.43 320.675,154.152C320.342,156.025 319.7,157.51 319.184,159.158C318.678,160.773 318.492,162.415 317.871,163.913C317.421,164.694 316.973,165.476 316.523,166.257C316.167,166.966 315.812,167.676 315.458,168.385C314.76,169.508 313.925,170.757 313.682,172.326C313.729,172.539 313.776,172.751 313.824,172.965C313.623,173.793 313.421,174.622 313.22,175.45C313.173,176.029 313.127,176.61 313.078,177.191C313.078,178.313 313.078,179.437 313.078,180.56C312.706,182.718 312.375,184.798 312.014,186.879C312.084,187.445 312.156,188.014 312.226,188.582C312.167,188.927 312.107,189.269 312.049,189.613C312.086,189.873 312.261,190.381 312.156,190.784C311.955,191.069 311.753,191.353 311.552,191.636C311.552,191.99 311.552,192.345 311.552,192.701C311.552,193.768 311.62,194.733 311.447,195.61C310.693,199.401 310.526,204.011 309.778,207.892C309.648,208.885 309.518,209.878 309.388,210.873C308.75,213.882 307.9,216.694 306.619,219.107C306.122,220.042 305.347,220.874 304.986,221.983C304.627,223.087 304.363,224.3 304.133,225.496C304.098,226.785 304.063,228.077 304.028,229.363C303.873,230.134 303.72,230.903 303.567,231.673C303.018,233.856 302.577,236.143 301.792,238.167C300.71,240.964 299.676,243.493 299.059,246.794C299.084,247.194 299.106,247.596 299.13,247.999C299.155,248.508 299.177,249.018 299.202,249.525C299.438,250.176 299.675,250.828 299.911,251.477C300.12,252.252 300.021,252.676 300.372,253.217C300.858,253.96 301.536,254.238 301.651,255.417C300.531,256.279 296.712,256.192 296.149,254.849C295.925,253.537 295.7,252.222 295.475,250.911C295.297,250.756 295.121,250.6 294.942,250.447C294.322,249.821 293.124,248.76 293.417,247.323C293.576,246.535 294.215,246.306 294.587,245.763C295.093,245.024 295.382,243.931 295.617,242.957C296.187,240.588 295.838,237.875 296.254,235.327C296.41,234.381 295.848,233.46 296.078,232.345C296.457,230.506 298.432,226.449 297.639,224.996C297.179,224.738 296.717,224.477 296.254,224.217C295.9,223.897 295.545,223.577 295.19,223.257C294.627,222.554 293.854,222.063 293.309,221.377C292.077,219.818 290.43,218.443 288.731,217.366C286.633,216.034 284.132,215.28 281.951,213.993C280.676,213.241 279.483,212.335 278.296,211.509C277.836,211.19 277.333,211.121 276.769,210.871C275.39,210.259 272.986,208.573 272.546,207.073C272.422,206.651 272.541,205.831 272.617,205.51C273.028,203.769 273.515,202.929 274.675,201.996C274.946,201.713 275.22,201.429 275.492,201.144C278.587,198.733 281.73,197.075 285.857,195.643C287.252,195.418 288.649,195.192 290.045,194.969C289.217,194.748 288.556,194.311 287.951,193.867C287.749,193.703 287.548,193.535 287.347,193.37C286.804,193.153 286.557,193.458 286.034,193.086C285.44,192.665 285.389,192.106 285.005,191.453C284.13,189.97 283.193,188.702 282.627,186.84C282.441,186.224 281.655,183.674 281.776,183.043C281.964,182.049 282.569,180.483 283.053,179.671C283.421,179.15 283.787,178.63 284.153,178.108C284.402,177.445 284.651,176.784 284.899,176.121C285.324,175.565 285.75,175.009 286.177,174.453C286.259,174.191 286.342,173.932 286.426,173.672C286.683,173.282 287.286,172.648 287.738,172.466C287.749,169.125 289.203,168.645 291.998,168.17C292.601,168.181 293.205,168.193 293.808,168.205C295.179,168 297.399,166.9 297.961,165.898C298.343,165.217 298.284,163.83 298.279,162.812ZM292.883,179.316C292.374,180.002 291.864,180.689 291.357,181.375C290.942,181.469 290.529,181.564 290.115,181.66C289.594,181.981 288.179,183.736 287.985,184.356C288.02,184.629 288.056,184.899 288.092,185.173C288.348,186.69 288.45,187.631 289.795,188.011C290.174,187.987 290.552,187.964 290.931,187.939C291.912,188.745 292.895,189.549 293.877,190.354C294.173,189.429 294.468,188.507 294.764,187.584C295.084,187.041 295.403,186.495 295.722,185.951C295.699,185.679 295.675,185.409 295.651,185.134C295.627,184.592 295.604,184.048 295.58,183.503C295.167,182.508 294.753,181.514 294.338,180.521C293.854,180.121 293.369,179.718 292.883,179.316ZM290.967,190C290.923,190.159 290.884,190.163 290.967,190.284C291.219,190.853 292.637,191.989 293.167,192.38C293.19,192.366 293.215,192.356 293.237,192.343C293.497,191.739 293.987,191.337 294.02,190.498C294.007,190.498 293.995,190.498 293.983,190.498C293.983,190.521 293.983,190.544 293.983,190.568C292.657,191.617 292,190.464 290.967,190ZM299.556,202.459C298.309,203.52 297.38,203.508 295.723,204.126C294.848,204.588 293.972,205.05 293.095,205.511C290.85,206.436 288.345,206.782 285.394,207.037C285.43,207.085 285.466,207.133 285.502,207.179C287.461,207.989 289.232,210.484 290.505,212.076C291.578,213.421 293.064,214.408 294.302,215.591C295.59,215.574 297.037,214.194 298.279,214.917C298.48,215.211 298.681,215.51 298.882,215.805C298.882,214.42 298.882,213.036 298.882,211.653C298.835,210.682 298.787,209.713 298.739,208.74C298.943,206.533 299.775,204.594 299.734,202.494C299.674,202.483 299.614,202.471 299.556,202.459Z"/>
    </g>
</svg>
