<?xml version="1.0" encoding="UTF-8" standalone="no"?>
<!DOCTYPE svg PUBLIC "-//W3C//DTD SVG 1.1//EN" "http://www.w3.org/Graphics/SVG/1.1/DTD/svg11.dtd">
<svg width="100%" height="100%" viewBox="0 0 120 154" version="1.1" xmlns="http://www.w3.org/2000/svg" xmlns:xlink="http://www.w3.org/1999/xlink" xml:space="preserve" xmlns:serif="http://www.serif.com/" style="fill-rule:evenodd;clip-rule:evenodd;stroke-linejoin:round;stroke-miterlimit:1.41421;">
    <g transform="matrix(1,0,0,1,-95.3067,-150.725)">
        <path d="M128.695,266.21C128.749,263.252 128.804,260.292 128.861,257.335C127.807,257.514 124.114,258.899 123.261,257.529C122.763,256.593 124.276,252.928 124.608,251.58C125.059,249.982 125.511,248.385 125.962,246.788C126.767,245.942 127.573,245.097 128.378,244.249C130.336,240.636 132.295,237.02 134.255,233.406C133.892,232.69 132.901,232.391 132.376,231.676C131.888,231.012 131.761,230.181 130.831,229.443C129.409,229.687 127.424,230.258 125.924,229.999C125.552,229.804 125.177,229.608 124.806,229.414C124.273,229.565 123.742,229.718 123.209,229.869C122.629,229.724 122.05,229.578 121.469,229.434C119.038,229.291 116.219,229.234 113.786,228.809C112.257,228.54 111.002,227.515 109.38,227.113C109.196,227.378 109.011,227.644 108.827,227.91C107.683,226.768 106.538,225.626 105.393,224.484C105.352,224.303 105.311,224.125 105.269,223.943C104.888,223.722 104.506,223.501 104.124,223.277C103.827,222.421 103.528,221.562 103.23,220.706C102.614,219.591 101.997,218.476 101.381,217.361C101.032,216.431 100.681,215.502 100.331,214.572C99.673,213.752 99.016,212.933 98.359,212.113C98.352,211.477 98.346,210.839 98.34,210.203C97.413,208.067 95.246,204.831 95.308,202.507C95.336,201.457 95.996,200.562 96.388,199.405C97.58,195.877 99.765,192.996 102.01,190.737C102.729,190.014 102.376,189.487 103.039,188.899C103.007,188.656 102.976,188.414 102.945,188.171C102.307,187.703 101.672,187.234 101.032,186.764C99.969,185.769 98.488,183.97 98.365,182.653C98.269,181.612 98.759,180.478 99.072,179.356C100.713,173.479 107.512,172.655 111.572,172.591C112.896,172.569 114.999,172.233 116.273,172.945C116.289,173.133 116.303,173.322 116.317,173.51C115.307,174.228 114.3,174.944 113.291,175.662C113.368,175.905 113.444,176.149 113.52,176.391C113.434,176.642 113.35,176.891 113.264,177.139C113.595,178.631 115.077,180.143 115.088,181.693C115.123,181.757 115.158,181.82 115.193,181.882C115.841,181.498 116.181,180.824 116.935,180.758C118.174,181.538 119.848,185.813 118.241,187.213C117.309,187.088 116.381,186.964 115.451,186.838C114.941,187.923 114.515,188.683 113.663,188.959C113.654,188.977 113.644,188.995 113.634,189.012C113.622,189.165 113.61,189.315 113.599,189.47C114.489,189.843 115.378,190.22 116.268,190.595C116.539,190.941 116.812,191.287 117.083,191.632C118.318,191.404 118.974,191.1 120.41,192.017C121.227,191.872 122.386,191.4 123.347,191.855C123.884,192.109 123.805,192.603 124.514,192.738C125.306,192.885 125.92,192.139 126.594,192.266C127,192.657 127.405,193.05 127.81,193.444C128.03,193.195 128.25,192.949 128.47,192.701C128.755,192.76 129.042,192.82 129.327,192.879C130.854,195.13 134.438,191.573 136.318,191.581C136.762,190.828 136.814,190.518 137.052,189.791C136.643,189.578 136.234,189.364 135.825,189.149C136.422,188.322 137.307,187.061 138.255,187.23C138.396,186.964 138.535,186.697 138.675,186.431C137.927,185.236 137.283,184.599 138.176,182.844C137.529,182.482 136.881,182.121 136.232,181.76C136.218,181.616 136.201,181.471 136.187,181.329C138.252,179.283 140.751,176.226 143.111,174.971C144.839,174.051 147.259,174.089 149.185,173.737C149.826,173.507 150.467,173.276 151.108,173.046C154.064,172.556 156.914,172.129 159.951,171.968C160.069,172.394 160.187,172.816 160.305,173.241C161.784,172.227 163.266,171.215 164.747,170.202C167.112,168.712 169.442,167.258 171.925,166.083C172.899,165.776 173.873,165.472 174.847,165.167C175.417,164.854 175.988,164.542 176.559,164.229C176.972,164.22 177.384,164.21 177.797,164.199C178.675,164.006 179.801,163.119 180.493,162.418C180.768,162.54 181.044,162.662 181.321,162.784C182.838,161.298 184.667,160.74 186.841,162.481C186.537,163.363 186.234,164.248 185.93,165.128C186.468,165.569 187.008,166.01 187.546,166.451C188.965,168.529 189.534,175.202 189.754,177.926C189.916,179.926 190.798,181.822 188.871,183.506C188.783,183.821 188.874,183.944 189.074,184.154C189.372,184.6 191.929,184.851 192.661,185.083C194.722,182.557 193.959,179.308 194.917,176.622C194.728,176.636 194.54,176.65 194.351,176.666C193.951,174.148 193.547,171.628 193.146,169.109C191.701,165.891 186.825,162.004 187.103,158.479C187.238,156.772 191.299,150.999 192.574,150.749C193.317,150.603 193.921,151.157 194.574,151.594C194.258,152.961 196.005,153.496 196.995,154.491C197.157,154.87 197.321,155.252 197.485,155.63C198.449,157.671 199.014,159.749 199.9,161.781C200.088,162.719 200.277,163.654 200.465,164.591C201.176,168.676 201.217,172.919 200.333,177.557C199.819,179.098 199.307,180.641 198.795,182.183C198.432,183.396 198.068,184.609 197.704,185.822C199.024,185.531 198.94,185.491 200.03,186.565C200.302,186.436 200.574,186.305 200.846,186.176C201.243,186.459 200.985,186.513 201.158,186.747C201.569,187.307 203.888,188.014 204.36,188.15C205.375,187.03 206.393,185.91 207.408,184.789C208.263,182.725 209.118,180.661 209.971,178.594C210.219,177.35 209.847,176.312 210.392,174.808C209.548,173.723 209.006,169.968 208.733,168.509C208.635,168.004 208.536,167.501 208.439,166.997C207.184,164.914 203.349,162.211 203.406,159.881C203.45,157.96 207.863,153.054 208.857,153.094C209.815,153.016 211.127,155.425 211.494,155.968C213.386,158.769 214.828,163.702 214.595,167.164C214.325,171.123 214.629,175.449 213.64,179.496C213.117,180.579 212.596,181.666 212.073,182.748C211.861,184.064 211.648,185.376 211.436,186.693C210.913,187.822 210.389,188.952 209.865,190.08C208.594,193.881 205.906,198.565 203.504,200.94C203.153,201.526 202.801,202.112 202.449,202.698C201.12,204.673 199.794,206.65 198.465,208.626C197.808,209.256 196.804,209.343 196.13,209.847C195.952,209.754 195.776,209.662 195.597,209.571C195.548,209.317 195.498,209.065 195.45,208.813C196.45,208.069 197.449,207.324 198.45,206.581C198.701,206.147 198.95,205.712 199.2,205.277C201.019,202.808 201.744,199.789 202.609,197.08C203.43,194.497 204.89,192.983 203.392,191.039C203.225,190.47 202.118,190.999 201.591,191.113C200.096,191.439 197.407,191.762 196.232,192.791C195.594,194.314 194.955,195.836 194.317,197.358C193.577,199.12 192.835,200.88 192.094,202.644C191.64,203.47 191.185,204.295 190.73,205.121C190.171,206.231 189.612,207.343 189.053,208.454C188.124,209.846 187.191,211.237 186.259,212.628C185.713,213.54 185.167,214.454 184.621,215.368C183.65,216.489 182.678,217.611 181.707,218.733C180.517,219.76 179.187,220.476 178.018,221.758C178.237,223.346 178.308,225.04 176.5,226.736C176.558,227.103 176.612,227.472 176.669,227.841C176.793,228.09 177.174,227.904 177.475,227.856C177.812,228.09 177.85,228.302 177.811,228.641C177.741,229.357 176.977,229.577 176.815,230.157C176.85,230.652 176.885,231.146 176.921,231.638C177.242,231.716 177.565,231.794 177.884,231.872C178.113,232.203 178.132,232.478 178.272,232.82C178.243,232.874 178.215,232.927 178.189,232.98C178.007,233.067 177.825,233.153 177.645,233.24C176.668,233.405 177.365,234.976 177.303,235.844C177.499,235.856 177.695,235.869 177.892,235.88C178.214,236.274 178.272,236.586 178.464,236.995C178.39,237.137 178.316,237.279 178.241,237.421C177.952,237.497 177.665,237.571 177.376,237.648C177.335,238.329 177.297,239.01 177.257,239.689C177.554,239.952 177.878,240.141 178.294,240.301C178.327,240.453 178.36,240.607 178.393,240.76C178.265,241.009 178.135,241.258 178.004,241.507C177.767,241.689 177.518,241.737 177.221,241.707C176.73,242.081 176.549,243.641 176.933,244.07C177.235,244.227 177.538,244.385 177.839,244.544C177.844,244.75 177.849,244.955 177.855,245.164C177.364,245.854 176.644,245.696 176.193,246.263C176.086,246.727 175.98,247.192 175.873,247.656C176.147,247.823 176.421,247.989 176.697,248.156C176.75,248.591 176.663,248.927 176.322,249.521C176.012,249.551 175.723,249.517 175.331,249.34C175.112,249.973 174.894,250.607 174.677,251.239C174.906,251.451 175.136,251.66 175.365,251.87C176.02,252.872 174.295,253.593 173.766,253.886C173.618,254.215 173.47,254.545 173.317,254.873C173.555,255.065 173.795,255.258 174.032,255.452C173.992,257.039 172.35,257.138 172.121,258.457C172.555,258.785 172.834,258.973 173.02,259.335C172.887,259.673 172.756,260.012 172.624,260.35C172.311,260.378 171.912,260.211 171.549,260.197C171.515,260.177 171.479,260.159 171.443,260.141C171.255,260.675 171.066,261.209 170.876,261.745C172.425,263.294 170.279,264.019 169.544,265.461C169.693,265.607 169.843,265.753 169.993,265.901C170.028,267.115 168.692,267.886 168.03,268.877C168.196,268.986 168.364,269.099 168.532,269.209C168.41,269.528 168.286,269.851 168.164,270.17C167.617,270.443 167.13,270.574 166.589,270.976C166.795,273.482 167.328,272.928 165.146,274.77C165.277,275.072 165.555,275.317 165.561,275.666C165.37,276.834 164.021,276.843 163.743,277.974C163.747,278.313 164.06,278.572 164.239,278.843C164.095,279.198 163.957,279.556 163.815,279.912C163.304,280.09 162.819,280.173 162.201,280.016C161.708,281.009 162.216,281.605 162.208,282.463C161.777,283.18 161.278,283.363 160.756,283.81C160.5,284.441 160.82,284.645 160.948,285.132C160.546,286.411 159.378,287.136 158.535,287.536C158.43,287.481 158.325,287.425 158.216,287.368C157.95,287.974 157.848,288.643 157.376,289.237C156.832,289.243 156.282,288.942 155.815,289.235C155.891,289.435 155.97,289.632 156.044,289.832C155.385,291.095 153.128,292.889 152.038,292.69C151.368,293.12 151.19,294.543 150.514,295.084C148.568,294.329 147.8,294.083 146.078,294.868C145.704,294.597 145.779,294.362 145.582,294.133C144.918,293.369 142.873,292.818 142.367,291.977C141.954,291.289 142.467,290.696 142.462,289.852C142.378,289.492 142.295,289.132 142.212,288.772C141.841,288.533 141.468,288.291 141.095,288.052C140.37,287.087 141.639,285.903 141.696,284.698C141.588,284.417 141.323,284.405 141.032,284.147C140.123,283.351 140.611,282.444 141.221,281.193C141.018,280.858 140.46,280.444 140.137,280.15C140.057,279.238 140.642,279.066 140.822,278.064C140.792,277.777 140.76,277.489 140.73,277.202C140.361,276.634 139.662,276.406 139.682,275.703C139.717,275.289 140.12,274.975 140.372,274.774C140.302,274.216 140.231,273.66 140.162,273.102C140.135,273.065 140.108,273.03 140.082,272.993C139.286,273.347 138.491,273.699 137.695,274.053C136.207,275.901 134.721,277.746 133.234,279.595C133.252,279.604 133.27,279.613 133.288,279.622C134.403,279.957 135.517,280.291 136.632,280.624C137.05,282.247 137.468,283.869 137.888,285.491C139.259,288.834 140.633,292.179 142.006,295.521C142.005,296.562 142.004,297.602 142.002,298.641C139.961,300.426 137.919,302.209 135.877,303.993C134.933,303.635 133.99,303.277 133.045,302.919C132.337,301.937 131.63,300.955 130.92,299.974C128.877,297.233 127.16,294.65 125.477,291.828C124.64,290.488 123.805,289.144 122.969,287.802C122.568,288.18 122.166,288.56 121.765,288.937C121.719,288.982 121.673,289.025 121.627,289.069C121.192,288.73 120.76,288.389 120.328,288.05C120.953,287.2 121.58,286.35 122.203,285.501C122.075,285.273 121.945,285.047 121.814,284.822C121.76,284.747 121.708,284.676 121.655,284.602C121.517,284.823 121.378,285.046 121.239,285.268C120.435,285.118 119.631,284.969 118.827,284.82C118.809,284.811 118.792,284.8 118.773,284.792C119.233,283.699 119.692,282.603 120.153,281.509C120.557,280.966 120.904,281.001 121.245,280.587C122.667,278.867 123.588,276.374 125.22,275.197C125.579,275.158 125.939,275.121 126.298,275.082C127.535,272.72 128.771,270.355 130.007,267.993C129.36,267.635 128.84,266.753 128.695,266.21ZM107.917,179.839C108.563,179.788 108.491,180.56 108.888,181.096C108.953,181.521 108.992,181.401 108.714,181.818C109.072,182.527 112.644,183.224 113.218,182.681C112.016,182.406 110.489,182.338 109.166,182.122C109.044,181.969 109.101,182.09 109.062,181.932C109.044,181.877 109.028,181.823 109.011,181.769C109.473,181.438 108.784,180.098 108.458,179.714C108.328,179.46 108.261,179.519 108.003,179.545C107.987,179.492 107.969,179.436 107.952,179.383C109.079,178.058 111.295,176.715 112.847,176.512C112.893,176.467 112.94,176.425 112.984,176.381C112.959,176.344 112.933,176.307 112.906,176.272C110.808,176.452 109.608,178.235 107.742,179.136C107.704,179.446 107.782,179.594 107.917,179.839ZM109.793,181.57C110.661,181.728 111.527,181.887 112.395,182.048C113.108,181.596 112.759,180.611 113.321,180.019C113.497,179.834 113.691,179.931 113.919,179.654C113.759,179.042 112.982,178.145 113.152,177.486C112.687,176.958 112.846,177.533 112.396,177.634C112.11,177.62 111.823,177.606 111.536,177.591C110.603,177.764 110.061,178.493 109.249,179.111C109.063,179.885 109.561,180.89 109.793,181.57ZM112.952,179.556C112.757,179.693 112.951,179.637 112.708,179.631C112.727,179.595 112.746,179.561 112.764,179.524C112.827,179.534 112.89,179.545 112.952,179.556ZM105.367,196.904C105.727,197.485 105.756,199.074 105.691,199.789C103.817,199.816 104.212,201.406 102.892,202.672C102.883,202.735 102.872,202.797 102.862,202.859C102.916,202.888 102.969,202.915 103.021,202.944C103.828,202.702 104.434,200.608 105.12,200.102C105.246,200.122 105.37,200.141 105.496,200.163C106.41,200.856 107.369,204.276 107.174,205.388C107.92,206.334 109.155,206.578 109.473,207.609C109.509,207.628 109.544,207.645 109.579,207.664C109.136,207.705 108.696,207.153 108.138,207.046C106.643,206.763 105.984,207.458 104.909,208.548C104.757,208.827 104.698,208.993 104.709,209.189C104.772,209.201 104.834,209.212 104.897,209.221C106.303,207.404 107.197,206.873 109.464,208.148C109.494,208.396 109.449,208.409 109.697,208.609C108.274,211.324 107.563,212.197 105.944,213.707C105.935,213.725 105.924,213.743 105.916,213.761C105.977,213.816 106.04,213.87 106.101,213.924C107.224,213.726 109.728,210.1 110.262,208.567C111.338,208.463 112.174,209.48 112.678,210.307C112.876,210.627 112.7,211.087 112.683,211.462C112.755,211.5 112.825,211.537 112.896,211.575C112.923,211.567 112.951,211.557 112.978,211.548C113.385,210.435 112.851,209.443 111.899,208.811C112.162,208.567 112.428,208.319 112.692,208.073C113.178,208.344 113.666,208.604 114.054,208.583C114.319,208.527 114.304,208.296 114.545,208.161C115.061,207.878 115.372,208.111 115.93,207.595C116.358,207.683 116.785,207.773 117.214,207.863C117.27,207.755 117.327,207.649 117.383,207.543C116.507,206.875 114.521,207.428 114.008,208.152C113.582,207.974 113.154,207.797 112.728,207.618C112.362,207.8 112.139,207.99 111.8,208.353C111.186,208.236 110.54,208.101 110.001,208.16C110.158,207.572 109.743,206.904 109.223,206.531C109.777,205.26 110.329,203.987 110.882,202.714C110.917,202.431 110.013,200.262 109.915,199.763C109.952,199.173 109.991,198.581 110.028,197.99C109.904,196.306 109.119,194.464 109.672,192.576C109.591,192.555 109.511,192.536 109.431,192.518C109.024,193.983 109.757,201.397 110.54,202.331C110.622,203.032 109.513,205.48 109.067,206.313C108.707,205.945 108.286,205.613 107.633,205.292C107.763,204.103 107.283,202.339 106.793,201.321C106.556,200.829 106.143,200.618 106.09,200.071C105.967,198.799 106.491,196.989 105.088,196.152C104.987,196.167 104.889,196.184 104.79,196.199C104.809,196.659 105.127,196.516 105.367,196.904ZM115.308,184.521C116.208,184.803 117.259,184.587 118.263,184.845C118.319,184.783 118.373,184.719 118.426,184.661C118.27,183.813 117.616,182.625 117.08,181.917C116.504,182.454 115.928,182.991 115.355,183.527C115.339,183.858 115.323,184.19 115.308,184.521ZM117.018,182.292C117.037,182.302 117.055,182.312 117.072,182.321C117.41,182.972 117.746,183.625 118.085,184.277C118.101,184.376 118.117,184.475 118.133,184.574C117.243,184.392 116.341,184.365 115.529,184.364C115.542,184.122 115.555,183.88 115.569,183.639C116.051,183.189 116.534,182.741 117.018,182.292ZM100.36,213.091C100.544,214.064 104.596,217.42 106.406,217.75C107.618,217.97 108.993,216.748 110.091,216.416C110.738,216.304 111.386,216.189 112.032,216.075C112.604,215.763 113.175,215.45 113.745,215.137C115.241,214.815 116.734,214.535 118.076,213.737C118.558,213.335 119.042,212.93 119.523,212.526C119.994,212.319 120.463,212.114 120.935,211.907C120.927,211.837 120.918,211.762 120.911,211.69C120.857,211.663 120.806,211.635 120.752,211.608C119.391,212.099 118.29,213.205 116.943,213.824C115.826,214.339 114.467,214.316 113.375,214.81C112.831,215.112 112.288,215.416 111.745,215.72C111.186,215.79 110.63,215.861 110.072,215.932C109.072,216.286 107.592,217.467 106.496,217.319C106.104,217.114 105.714,216.911 105.323,216.707C104.41,216.28 103.607,215.899 102.849,215.208C102.209,214.626 101.248,213.005 100.39,212.902C100.379,212.966 100.369,213.027 100.36,213.091ZM118.333,195.474C118.376,195.519 118.422,195.565 118.465,195.611C118.483,195.621 118.501,195.63 118.517,195.64C119.304,194.983 118.021,192.999 117.774,192.261C117.659,192.223 117.543,192.186 117.426,192.149C117.27,193.258 118.628,194.249 118.333,195.474ZM120.593,192.583C121.161,193.387 121.725,195.291 121.492,196.313C121.555,196.367 121.617,196.422 121.678,196.478C121.696,196.486 121.713,196.497 121.731,196.506C121.805,196.408 121.877,196.31 121.953,196.214C121.705,195.142 121.838,193.04 120.734,192.318C120.687,192.404 120.64,192.493 120.593,192.583ZM116.862,203.734C117.21,204.322 117.558,204.912 117.905,205.503C117.902,206.11 117.901,206.722 117.897,207.331C118.538,207.552 119.071,207.366 119.62,207.282C119.682,207.382 119.744,207.481 119.803,207.581C119.855,207.743 119.905,207.906 119.956,208.069C120.357,207.645 120.76,207.221 121.163,206.799C121.349,206.873 121.536,206.949 121.723,207.024C122.078,206.652 122.327,206.279 122.71,206.045C123.017,205.889 123.085,206.086 123.324,206.299C123.847,205.646 124.371,204.991 124.894,204.337C125.311,203.628 125.727,202.918 126.143,202.208C127.009,201.506 127.874,200.804 128.739,200.104C128.748,200.085 128.759,200.068 128.767,200.049C127.707,199.855 127.162,200.39 125.976,199.677C125.529,199.812 125.291,200.154 124.86,200.382C123.903,200.888 122.869,199.253 122.091,198.798C121.565,199.632 121.038,200.464 120.512,201.297C119.958,201.328 119.872,200.848 119.393,200.712C118.695,200.513 118.324,200.863 117.142,200.213C116.712,201.171 116.498,202.978 116.862,203.734ZM123.916,193.236C124.13,194.338 125.063,195.312 124.742,196.588C124.805,196.642 124.867,196.697 124.929,196.752C124.946,196.762 124.964,196.771 124.982,196.779C125.019,196.752 125.056,196.726 125.091,196.701C125.442,195.838 124.849,193.389 124.001,193.076C123.972,193.129 123.944,193.182 123.916,193.236ZM123.635,199.742C123.705,199.778 123.777,199.814 123.848,199.853C123.903,199.79 123.957,199.728 124.014,199.666C123.961,198.575 123.122,197.642 123.209,196.53C123.076,196.275 123.131,196.288 122.867,196.148C122.468,197.398 123.578,198.57 123.635,199.742ZM136.641,181.629C136.622,181.666 136.605,181.7 136.585,181.735C137.181,181.95 137.689,181.57 138.179,181.417C138.944,181.207 139.711,180.996 140.477,180.785C140.807,180.46 141.135,180.134 141.463,179.809C142.692,178.736 143.912,177.451 145.235,176.623C146.15,176.05 147.671,175.394 148.341,174.445C148.351,174.427 148.361,174.41 148.37,174.392C148.335,174.329 148.3,174.266 148.266,174.202C147.546,174.306 144.62,176.392 144.017,177.003C143.705,176.433 143.393,175.861 143.081,175.292C142.922,175.312 142.896,175.317 142.756,175.393C142.85,175.942 143.291,176.759 143.718,177.186C141.013,179.53 139.997,180.875 136.671,181.442C136.661,181.504 136.651,181.567 136.641,181.629ZM121.591,212.726C123.574,213.251 125.61,213.199 127.549,213.534C128.817,213.836 130.084,214.138 131.353,214.439C131.636,214.586 131.92,214.736 132.206,214.885C132.458,214.79 132.712,214.697 132.964,214.603C134.015,214.596 134.82,215.185 135.805,215.14C136.021,215.028 136.24,214.912 136.457,214.801C136.867,214.97 137.277,215.14 137.686,215.309C138.654,215.499 139.992,215.44 141.095,215.666C141.416,215.51 141.729,215.319 141.729,214.845C141.689,214.427 141.118,214.311 141.045,213.945C141.111,213.818 141.177,213.695 141.242,213.571C140.677,212.573 140.111,211.578 139.548,210.58C139.371,209.674 140.038,207.899 140.369,206.935C140.178,207.22 139.981,207.502 139.788,207.787C139.653,207.738 139.521,207.693 139.388,207.643C138.942,206.361 139.074,203.163 139.173,201.695C137.59,201.567 136.005,201.438 134.42,201.313C132.374,201.569 132.763,207.614 130.587,207.859C129.969,207.982 129.686,207.311 129.15,206.972C128.875,207.191 128.603,207.411 128.33,207.63C128.455,208.171 128.579,208.711 128.704,209.251C128.727,210.555 126.248,212.612 125.385,212.741C125.322,212.258 125.259,211.771 125.197,211.286C125.059,210.983 124.831,210.491 124.27,210.462C123.26,210.358 122.405,211.525 121.398,211.539C121.524,212.045 121.772,212.068 121.591,212.726ZM125.683,206.722C125.884,206.077 126.085,205.437 126.285,204.794C127.015,203.57 127.747,202.346 128.477,201.122C128.469,201.094 128.461,201.067 128.453,201.039C128.416,201.02 128.381,201.002 128.346,200.982C127.214,201.429 126.927,202.898 125.899,203.845C125.382,204.811 125.094,206.11 125.683,206.722ZM127.6,202.021C127.62,201.985 127.638,201.949 127.656,201.915C127.129,202.837 126.6,203.761 126.072,204.684C125.948,205.093 125.824,205.505 125.699,205.916C125.486,205.343 125.785,204.511 126.223,203.745C126.824,203.225 127.047,202.408 127.6,202.021ZM126.735,205.1C126.759,205.27 126.783,205.44 126.807,205.612C126.861,205.639 126.914,205.667 126.968,205.695C127.074,205.707 127.182,205.716 127.289,205.728C128.288,205.255 129.691,203.749 130.412,202.745C130.483,202.738 130.556,202.729 130.627,202.722C131.181,203.056 131.168,203.359 131.523,203.736C131.577,203.718 131.631,203.701 131.685,203.685C131.775,202.754 131.448,202.331 131.375,201.552C131.433,200.939 132.357,199.132 132.586,198.588C132.568,198.534 132.552,198.48 132.535,198.426C132.276,198.359 132.017,198.29 131.759,198.223C130.983,199.016 130.206,199.809 129.428,200.601C128.893,201.409 128.358,202.215 127.822,203.021C127.46,203.713 127.098,204.404 126.735,205.1ZM129.643,200.713C130.373,199.963 131.104,199.215 131.836,198.465C131.988,198.523 132.139,198.578 132.291,198.636C132.134,199.555 131.671,200.516 131.106,201.547C131.23,202.174 131.569,202.531 131.506,203.248C131.214,202.937 131.018,202.701 130.444,202.422C129.569,203.344 128.362,204.123 127.7,205.332C127.492,205.381 127.286,205.431 127.08,205.482C127.06,205.471 127.043,205.462 127.025,205.453C127.011,204.836 127.663,203.803 128.065,203.078C128.591,202.29 129.118,201.5 129.643,200.713ZM138.719,184.144C138.763,184.189 138.807,184.237 138.851,184.281C140.133,184.144 142.126,182.047 143.397,181.431C145.805,180.263 148.889,180.218 151.118,178.478C151.342,178.481 151.593,178.553 151.785,178.759C151.91,178.825 152.033,178.89 152.158,178.954C150.719,180.667 149.278,182.383 147.839,184.096C146.075,186.95 144.309,189.807 142.543,192.661C142.613,192.743 142.683,192.825 142.753,192.908C143.347,192.453 143.633,190.957 144.331,190.542C145.417,189.894 146.282,188.652 147.29,187.609C150.036,184.61 152.782,181.61 155.528,178.611C160.566,175.207 165.608,171.8 170.647,168.396C170.591,168.204 170.625,168.232 170.41,168.068C165.345,171.481 160.276,174.896 155.21,178.31C153.536,180.171 151.859,182.034 150.183,183.895C148.491,185.748 146.796,187.6 145.103,189.451C145.751,188.388 146.398,187.323 147.046,186.259C147.785,185.271 148.184,184.3 148.9,183.495C150.174,181.967 151.449,180.439 152.724,178.911C152.472,178.561 151.922,178.265 151.37,177.998C150.71,178.265 150.051,178.531 149.39,178.797C150.401,177.515 151.412,176.232 152.422,174.95C152.405,174.896 152.388,174.843 152.371,174.789C152.274,174.759 152.176,174.731 152.076,174.703C151.113,175.939 150.148,177.178 149.184,178.417C148.032,178.255 143.85,179.081 143.445,180.302C143.427,180.337 143.408,180.373 143.389,180.409C143.479,180.455 143.567,180.502 143.656,180.548C144.183,180.235 144.708,179.923 145.233,179.609C145.283,179.859 145.332,180.113 145.381,180.364C143.874,181.056 142.209,181.301 140.874,182.623C140.829,182.621 140.784,182.621 140.74,182.621C142.543,180.653 144.687,178.31 146.789,177.028C147.928,176.331 151.503,174.528 152.205,173.549C152.215,173.53 152.225,173.512 152.233,173.496C151.716,173.134 149.562,174.865 148.947,175.237C147.64,176.047 146.334,176.858 145.029,177.669C142.991,179.702 140.953,181.736 138.916,183.772C138.849,183.894 138.784,184.02 138.719,184.144ZM137.562,189.988C137.767,190.117 137.971,190.246 138.173,190.376C138.921,189.727 139.668,189.076 140.415,188.425C140.944,188.436 141.154,189.439 141.221,190.001C141.292,190.039 141.362,190.075 141.433,190.114C141.498,190.033 141.562,189.953 141.625,189.874C141.43,188.561 141.091,187.471 139.725,186.504C139.58,186.519 139.437,186.534 139.293,186.549C138.716,187.693 138.14,188.841 137.562,189.988ZM124.521,215.686C128.907,217.234 133.712,218.892 137.747,222.063C140.917,224.555 143.613,227.51 146.796,230.193C148.485,231.506 150.173,232.82 151.861,234.134C152.399,234.617 152.937,235.104 153.475,235.588C153.529,235.526 153.585,235.466 153.64,235.404C154.132,234.962 154.277,234.777 154.758,234.561C154.814,234.5 154.868,234.439 154.923,234.375C154.923,234.332 154.924,234.287 154.925,234.242C154.8,234.177 154.677,234.111 154.552,234.048C154.145,234.038 153.794,234.314 153.543,234.809C153.516,234.817 153.49,234.826 153.462,234.833C152.039,233.704 150.615,232.576 149.193,231.446C147.92,230.463 146.647,229.479 145.374,228.497C143.029,226.319 140.685,224.142 138.338,221.965C137.454,221.411 136.566,220.857 135.679,220.303C133.11,218.368 127.412,215.556 124.581,215.31C124.563,215.436 124.542,215.56 124.521,215.686ZM137.019,191.673C138.427,192.377 138.21,192.696 139.007,193.323C139.116,193.334 139.222,193.345 139.33,193.358C139.491,193.238 139.6,193.111 139.743,192.826C139.983,192.814 140.088,192.807 140.413,192.972C140.461,193.31 140.484,194.001 140.12,194.312C139.753,194.452 139.791,194.056 139.365,194.325C139.056,194.553 139.439,195.734 139.275,196.314C139.118,196.873 138.472,197.302 138.15,197.558C138.86,197.732 139.788,197.681 140.385,197.437C142.137,195.144 142.478,191.999 141.51,190.354C140.925,190.644 140.514,190.504 139.764,190.323C139.398,190.719 139.032,191.116 138.665,191.514C138.316,191.534 137.698,191.31 137.325,191.219C137.252,191.317 137.179,191.415 137.104,191.512C137.076,191.566 137.047,191.62 137.019,191.673ZM140.562,187.755C140.561,187.8 140.561,187.846 140.56,187.891C139.82,188.294 138.704,189.079 138.155,189.891C138.137,189.882 138.119,189.871 138.102,189.863C138.586,188.894 139.07,187.926 139.555,186.956C139.892,187.223 140.228,187.49 140.562,187.755ZM149.013,178.87C149.14,178.846 149.265,178.82 149.389,178.797C148.749,179.116 148.106,179.437 147.464,179.756C146.931,179.908 146.399,180.06 145.868,180.212C145.829,179.898 145.791,179.582 145.751,179.268C146.838,179.135 147.926,179.002 149.013,178.87ZM152.217,174.435C152.207,174.452 152.196,174.472 152.189,174.489C152.222,174.552 152.257,174.616 152.292,174.678C153.774,174.525 155.256,174.375 156.739,174.222C156.793,174.204 156.847,174.188 156.902,174.172C156.976,174.549 157.048,174.926 157.122,175.305C157.193,175.342 157.266,175.38 157.336,175.417C157.408,175.364 157.481,175.312 157.554,175.261C157.489,174.864 157.425,174.468 157.36,174.073C157.86,173.924 158.733,173.363 159.076,172.867C159.085,172.849 159.095,172.83 159.105,172.813C159.026,172.749 158.946,172.684 158.866,172.622C156.493,174.074 154.947,173.927 152.299,174.275C152.271,174.328 152.243,174.382 152.217,174.435ZM156.668,180.974C157.65,180.221 158.632,179.468 159.615,178.713C159.652,178.688 159.688,178.661 159.725,178.635C159.307,179.864 158.889,181.095 158.472,182.324C158.512,182.741 159.039,183.341 159.498,183.608C160.164,183.129 160.568,182.099 161.152,181.352C162.967,178.748 164.783,176.144 166.597,173.541C170.075,170.745 173.551,167.946 177.029,165.148C177.038,165.129 177.048,165.112 177.057,165.095C176.977,165.031 176.898,164.966 176.819,164.903C175.117,165.547 173.529,167.384 172.042,168.584C170.103,170.125 168.166,171.667 166.228,173.211C163.988,176.452 161.748,179.694 159.51,182.937C159.334,182.753 159.157,182.571 158.982,182.387C159.466,180.899 159.951,179.411 160.437,177.921C160.41,177.747 160.432,177.802 160.307,177.651C159.393,177.841 157.593,179.613 156.761,180.276C155.543,181.177 154.325,182.078 153.106,182.979C151.151,184.611 149.579,186.586 147.811,188.559C147.186,189.321 146.563,190.08 145.938,190.84C146.203,191.069 146.469,191.298 146.732,191.527C146.317,193.663 145.901,195.798 145.483,197.935C145.387,198.542 145.462,199.562 144.984,200.186C143.72,201.695 142.453,203.207 141.189,204.717C141.21,204.94 141.154,204.843 141.371,205.017C141.881,204.667 145.405,200.71 145.634,200.117C145.924,198.437 146.217,196.754 146.505,195.075C146.657,194.244 147.437,191.646 147.09,191.104C146.922,190.993 146.755,190.881 146.585,190.772C149.047,186.813 153.599,183.426 156.668,180.974ZM132.75,227.46C134.102,228.553 135.453,229.644 136.805,230.736C139.956,233.402 143.11,236.072 146.261,238.738C147.395,239.752 148.944,240.609 149.782,241.734C149.899,241.685 150.018,241.632 150.135,241.581C150.137,241.49 150.138,241.401 150.14,241.311C145.928,237.817 141.715,234.324 137.502,230.831C136.723,230.145 133.719,227.342 132.833,227.301C132.806,227.354 132.778,227.408 132.75,227.46ZM133.434,226.934C134.205,228.12 135.922,228.977 137.062,229.988C140.003,232.41 142.944,234.831 145.886,237.253C147.016,238.232 148.83,239.911 150.593,240.056C150.818,240.036 150.721,240.091 150.894,239.875C150.298,239.243 148.946,239.173 148.095,238.478C147.3,237.835 146.504,237.194 145.709,236.549C141.701,233.276 137.688,229.999 133.679,226.724C133.626,226.742 133.571,226.758 133.515,226.776C133.489,226.826 133.461,226.881 133.434,226.934ZM149.326,199.674C149.37,199.719 149.414,199.766 149.458,199.811C150.235,199.735 151.091,198.756 151.745,198.292C153.626,196.945 155.508,195.598 157.389,194.252C158.204,194.337 159.654,195.598 160.393,196.164C162.829,197.777 165.265,199.39 167.7,201.005C168.485,201.607 170.075,203.033 171.025,203.083C171.054,202.985 171.084,202.888 171.111,202.79C167.799,200.558 164.487,198.325 161.175,196.096C160.503,195.58 158.278,193.801 157.533,193.716C156.988,193.75 156.437,194.412 155.98,194.736C154.19,195.996 152.4,197.254 150.611,198.513C150.591,198.549 150.574,198.583 150.555,198.618C150.674,197.647 152.002,196.048 152.582,195.266C154.291,192.518 156.002,189.768 157.711,187.019C157.637,189.105 157.563,191.196 157.487,193.284C157.505,193.294 157.522,193.302 157.541,193.312C157.628,193.358 157.718,193.405 157.806,193.451C158.29,192.74 158.064,191.282 158.077,190.469C158.14,189.009 158.204,187.549 158.266,186.087C158.479,185.724 158.692,185.358 158.905,184.996C158.889,184.897 158.873,184.798 158.856,184.699C158.838,184.689 158.821,184.681 158.803,184.671C157.713,185.169 157.296,187.012 156.396,188.233C154.143,191.806 151.888,195.379 149.634,198.952C149.532,199.193 149.429,199.434 149.326,199.674ZM128.813,243.935C128.866,244.008 128.919,244.081 128.972,244.153C129.778,243.987 130.571,242.863 131.24,242.284C133.173,240.58 135.104,238.876 137.037,237.172C137.239,237.436 137.44,237.699 137.642,237.963C136.593,239.405 135.542,240.849 134.494,242.29C130.908,247.157 127.32,252.025 123.731,256.892C123.776,256.983 123.82,257.073 123.862,257.163C124.62,257.053 126.803,253.392 127.527,252.495C131.085,247.638 134.647,242.778 138.208,237.919C137.945,237.468 137.639,236.906 137.076,236.582C134.368,238.942 131.661,241.307 128.954,243.669C128.905,243.757 128.859,243.844 128.813,243.935ZM134.676,233.898C139.953,237.95 145.232,242.003 150.509,246.053C150.676,245.927 150.696,245.926 150.758,245.708C147.33,242.742 143.258,240.003 139.675,237.057C138.134,235.889 136.598,234.724 135.059,233.555C134.942,233.562 134.825,233.57 134.708,233.576C134.698,233.684 134.687,233.791 134.676,233.898ZM161.114,187.783C164.495,192.56 167.878,197.342 171.26,202.121C171.329,202.158 171.401,202.193 171.473,202.233C171.546,202.179 171.619,202.127 171.69,202.074C171.421,200.748 169.808,199.431 169.071,198.26C166.591,194.743 164.109,191.226 161.628,187.712C161.999,187.09 162.369,186.469 162.738,185.848C166.889,184.965 171.041,184.082 175.189,183.198C175.235,183.109 175.283,183.02 175.329,182.931C175.25,182.868 175.171,182.803 175.091,182.739C170.915,183.586 166.737,184.433 162.561,185.28C162.239,185.768 161.916,186.254 161.594,186.742C161.432,187.088 161.273,187.435 161.114,187.783ZM170.412,176.759C171.872,178.247 173.333,179.738 174.795,181.226C175.376,181.802 175.958,182.377 176.539,182.953C177.271,182.375 177.84,180.585 178.186,179.674C179.531,176.758 180.877,173.841 182.223,170.923C181.197,175.003 180.171,179.084 179.145,183.164C179.582,183.766 180.474,183.734 181.177,183.819C182.523,183.982 186.934,184.544 187.843,184.048C187.65,183.555 186.513,183.697 185.993,183.692C184.883,183.655 183.771,183.616 182.661,183.577C181.685,183.452 180.71,183.327 179.734,183.201C179.715,183.192 179.698,183.183 179.68,183.173C180.522,179.88 181.363,176.584 182.204,173.29C182.695,171.204 182.915,169.014 184.101,166.815C183.845,166.432 182.592,165.504 182.027,165.459C181.804,165.479 181.9,165.424 181.728,165.644C182.051,166.076 182.87,166.528 183.481,166.831C181.237,171.812 178.991,176.794 176.748,181.775C176.665,181.935 176.581,182.095 176.497,182.255C173.998,179.725 171.497,177.194 168.999,174.665C168.909,174.664 168.82,174.661 168.729,174.659C168.544,175.389 169.91,176.224 170.412,176.759ZM169.985,175.109C170.283,175.493 170.581,175.874 170.879,176.258C171.599,176.04 174.956,174.108 175.475,173.57C175.897,172.591 176.319,171.61 176.741,170.633C176.372,170.03 175.659,169.216 174.917,168.797C174.099,169.499 173.276,170.202 172.458,170.902C171.791,172.004 171.126,173.103 170.458,174.203C170.301,174.505 170.143,174.808 169.985,175.109ZM172.828,171.233C173.511,170.664 174.194,170.094 174.877,169.522C175.44,169.681 175.813,170.316 176.228,170.705C175.853,171.549 175.48,172.394 175.104,173.241C173.771,174.058 172.438,174.878 171.104,175.695C170.909,175.506 170.718,175.313 170.523,175.12C170.626,174.925 170.729,174.729 170.83,174.535C171.496,173.434 172.162,172.333 172.828,171.233ZM129.032,256.746C129.05,256.8 129.067,256.854 129.084,256.907C129.182,256.936 129.28,256.966 129.378,256.995C133.18,251.198 136.983,245.403 140.784,239.606C140.723,239.55 140.66,239.497 140.598,239.442C140.58,239.432 140.562,239.423 140.544,239.415C139.391,240.224 138.668,242.254 137.725,243.506C134.931,247.679 132.136,251.853 129.342,256.027C129.238,256.265 129.135,256.506 129.032,256.746ZM175.542,168.512C176.144,168.874 176.747,169.235 177.351,169.596C179.116,168.322 180.334,166.02 181.914,164.377C181.932,164.298 181.952,164.219 181.971,164.136C181.76,163.795 181.346,163.386 180.94,163.122C179.024,164.314 177.505,167.069 175.575,168.19C175.563,168.299 175.552,168.405 175.542,168.512ZM153.565,213.365C153.491,216.314 153.419,219.265 153.346,222.214C151.921,225.112 150.495,228.01 149.069,230.906C149.158,230.953 149.247,231 149.336,231.046C149.804,230.884 151.16,227.692 151.593,226.862C152.337,225.353 153.083,223.841 153.829,222.33C153.895,219.695 153.963,217.059 154.029,214.424C154.711,219.78 155.391,225.14 156.071,230.497C156.142,230.535 156.214,230.572 156.284,230.607C156.321,230.582 156.356,230.555 156.393,230.529C156.813,229.317 155.989,226.281 155.824,225.002C155.257,220.204 154.692,215.404 154.127,210.605C153.917,210.462 153.947,210.478 153.726,210.464C153.337,211.362 153.575,212.507 153.565,213.365ZM179.346,165.004C179.846,164.565 180.348,164.126 180.849,163.686C180.868,163.695 180.884,163.705 180.903,163.714C181.033,163.852 181.167,163.988 181.298,164.125C181.336,164.143 181.37,164.163 181.405,164.182C180.048,165.78 178.691,167.379 177.334,168.976C177.069,168.837 176.803,168.698 176.535,168.558C176.429,168.502 176.323,168.446 176.216,168.391C176.253,168.321 176.291,168.25 176.326,168.178C177.456,167.654 178.397,165.932 179.346,165.004ZM166.655,190.682C166.674,190.692 166.69,190.701 166.709,190.71C166.792,190.638 166.873,190.57 166.955,190.5C166.633,188.89 165.816,188.571 167.583,187.094C167.834,187.062 168.001,187.073 168.309,187.134C168.451,187.209 168.593,187.282 168.735,187.357C167.844,188.113 166.697,189.458 167.357,190.641C167.642,191.152 168.503,191.607 168.776,191.042C168.443,190.811 167.911,190.662 167.74,190.298C167.343,189.448 168.31,188.021 169.104,187.82C169.319,187.763 169.311,187.833 169.559,187.99C169.771,187.823 169.76,187.828 169.782,187.564C170.016,187.594 170.248,187.626 170.48,187.657C170.551,187.694 170.622,187.732 170.694,187.768C169.419,188.94 168.07,190.949 170.292,192.039C170.383,191.952 170.474,191.864 170.565,191.775C169.12,189.988 169.27,189.793 171.036,188.151C171.322,188.186 171.374,188.353 171.754,188.594C171.818,188.513 171.883,188.435 171.947,188.355C171.878,188.229 171.807,188.102 171.739,187.975C172.084,187.908 172.47,188.255 172.698,188.476C170.69,189.98 171.29,190.324 171.444,192.3C171.532,192.347 171.622,192.393 171.709,192.44C171.791,192.371 171.874,192.3 171.957,192.23C171.813,191.554 171.311,188.425 173.251,189.105C173.343,189.019 173.434,188.93 173.525,188.842C172.639,187.275 170.793,187.369 169.28,187.097C168.662,186.985 168.357,186.441 167.759,186.503C167.265,186.555 166.85,187.076 166.425,187.368C165.673,188.705 165.859,189.873 166.655,190.682ZM153.977,214.394C153.995,214.361 154.014,214.324 154.031,214.29C154.013,214.323 153.994,214.36 153.977,214.394ZM121.372,280.982C121.453,281.045 121.533,281.112 121.612,281.173C122.581,281.049 123.552,280.922 124.525,280.797C123.67,281.911 122.815,283.026 121.96,284.139C121.978,284.195 121.996,284.249 122.012,284.303C122.109,284.33 122.208,284.362 122.306,284.389C123.306,283.125 124.308,281.861 125.308,280.597C125.314,280.312 125.377,280.338 125.074,280.135C123.888,280.328 122.7,280.522 121.513,280.715C121.467,280.806 121.419,280.894 121.372,280.982ZM130.259,267.504C130.356,267.577 130.452,267.651 130.55,267.726C131.711,266.642 132.983,263.336 133.837,261.705C136.103,257.461 138.371,253.214 140.637,248.968C141.808,246.732 142.979,244.49 144.152,242.254C144.131,242.029 144.187,242.126 143.968,241.952C143.213,242.551 142.185,244.974 141.633,246.026C139.209,250.574 136.784,255.122 134.359,259.67C132.992,262.281 131.625,264.893 130.259,267.504ZM149.919,231.487C150.898,232.383 151.876,233.281 152.855,234.177C153.016,234.216 153.177,234.254 153.337,234.294C153.779,234.019 154.785,232.69 154.884,232.115C154.999,231.451 154.217,226.142 153.902,225.559C153.725,225.51 153.546,225.463 153.368,225.414C153.15,225.572 152.932,225.728 152.713,225.887C151.782,227.756 150.851,229.621 149.919,231.487ZM126.264,276.956C126.299,277.019 126.334,277.082 126.367,277.145C126.713,277.628 127.182,277.479 127.469,277.247C127.508,277.13 127.545,277.015 127.584,276.898C127.57,276.605 127.305,276.387 127.002,276.323C126.765,276.323 126.714,276.393 126.516,276.475C126.432,276.637 126.348,276.796 126.264,276.956ZM132.861,264.996C132.859,265.041 132.859,265.085 132.858,265.13C133.106,265.369 133.452,265.652 133.817,265.632C134.056,265.644 134.115,265.627 134.305,265.48C134.416,265.312 134.526,265.142 134.637,264.975C134.449,264.714 134.121,264.487 133.707,264.284C133.491,264.398 133.273,264.511 133.057,264.623C132.991,264.746 132.926,264.871 132.861,264.996ZM127.045,276.89C126.973,276.898 126.9,276.905 126.829,276.911C126.848,276.877 126.868,276.841 126.885,276.806C126.938,276.833 126.992,276.861 127.045,276.89ZM134.043,265.07C133.8,265.195 133.629,265.19 133.508,264.926C133.686,264.916 133.784,264.937 134.043,265.07ZM189.119,158.778C191.68,163.283 196.412,167.521 195.471,173.102C195.505,173.166 195.539,173.229 195.574,173.293C196.409,171.71 195.908,170.728 195.835,169.423C195.803,166.802 195.77,164.183 195.74,161.565C195.783,160.335 196.026,158.451 195.467,157.415C194.911,156.876 194.356,156.337 193.8,155.798C193.448,155.046 193.094,154.295 192.74,153.546C192.041,153.689 191.871,154.135 191.265,154.676C190.55,156.042 189.834,157.411 189.119,158.778ZM174.354,188.939C174.346,188.957 174.336,188.976 174.326,188.994C174.972,189.762 175.779,189.837 175.933,190.851C176.021,190.898 176.111,190.945 176.199,190.992C176.273,190.893 176.345,190.798 176.418,190.699C176.294,190.26 176.167,189.974 175.93,189.56C175.894,189.541 175.858,189.523 175.824,189.504C176.463,189.343 177.188,189.7 177.534,190.127C177.605,190.12 177.677,190.113 177.75,190.104C177.788,189.943 177.827,189.783 177.866,189.622C177.072,188.888 175.397,188.778 174.437,188.778C174.411,188.832 174.382,188.886 174.354,188.939ZM193.144,153.552C193.299,153.772 193.459,153.989 193.614,154.207C193.743,154.341 193.787,154.337 193.963,154.321C194.104,154.301 193.996,154.334 194.127,154.269C194.42,154.042 194.464,153.623 194.465,153.361C194.234,153.241 194.003,153.12 193.772,153C193.646,153.024 193.519,153.048 193.394,153.074C193.31,153.233 193.226,153.393 193.144,153.552ZM174.075,193.885C175.977,195.74 177.88,197.596 179.783,199.451C182.224,198.849 184.666,198.25 187.106,197.648C187.347,196.987 187.461,195.812 187.287,195.23C186.141,194.806 185.07,195.317 184.159,194.07C183.939,193.625 184.577,192.425 184.685,191.902C184.64,191.856 184.597,191.809 184.553,191.763C184.275,191.776 183.995,191.789 183.717,191.803C183.395,192.288 183.071,192.777 182.748,193.264C180.87,193.571 178.987,193.876 177.109,194.182C176.133,193.537 175.161,192.891 174.186,192.246C174.104,191.796 174.022,191.345 173.943,190.894C173.835,190.884 173.727,190.873 173.62,190.862C173.506,191.239 173.897,193.592 174.075,193.885ZM193.978,153.513C193.996,153.523 194.014,153.533 194.031,153.541C194.03,153.587 194.029,153.631 194.029,153.677C193.991,153.748 193.954,153.82 193.918,153.888C193.714,153.722 193.684,153.698 193.655,153.482C193.762,153.493 193.871,153.504 193.978,153.513ZM154.035,230.109C154.053,230.075 154.072,230.038 154.089,230.003C154.071,230.038 154.052,230.075 154.035,230.109ZM154.136,230.436C154.144,230.506 154.151,230.579 154.159,230.652C154.136,230.48 154.111,230.309 154.088,230.138C154.103,230.237 154.12,230.336 154.136,230.436ZM154.199,231.35C154.218,231.315 154.236,231.28 154.255,231.244C154.235,231.279 154.217,231.314 154.199,231.35ZM176.887,194.609C178.909,194.287 180.935,193.965 182.958,193.645C183.298,193.166 183.639,192.688 183.979,192.209C184.042,192.219 184.104,192.23 184.167,192.24C183.968,192.837 183.767,193.435 183.568,194.032C184.315,195.316 185.626,195.521 186.849,195.546C186.82,196.119 186.791,196.691 186.763,197.266C184.448,197.842 182.131,198.418 179.817,198.995C178.574,197.583 174.538,194.497 174.362,192.95C175.204,193.501 176.045,194.056 176.887,194.609ZM154.222,231.567C154.24,231.531 154.26,231.494 154.28,231.459C154.259,231.494 154.24,231.531 154.222,231.567ZM154.375,232.054C154.328,232.141 154.281,232.23 154.236,232.321C154.218,232.312 154.2,232.302 154.181,232.293C154.223,232.087 154.262,231.882 154.302,231.676C154.325,231.801 154.35,231.928 154.375,232.054ZM177.535,188.568C177.633,188.641 177.731,188.714 177.827,188.789C178.961,188.206 182.632,186.171 183.357,185.095C183.315,185.005 183.271,184.914 183.227,184.824C182.746,184.952 182.25,185.477 181.838,185.794C180.708,186.663 178.986,187.964 177.647,188.355C177.609,188.425 177.573,188.497 177.535,188.568ZM170.003,205.945C169.989,208.222 169.973,210.501 169.958,212.778C168.799,214.433 167.637,216.091 166.477,217.745C163.899,221.331 161.323,224.915 158.747,228.501C157.618,229.92 156.67,232.113 155.327,232.959C155.6,235.161 155.874,237.363 156.144,239.565C156.188,239.656 156.232,239.747 156.275,239.836C156.373,239.866 156.471,239.895 156.568,239.924C156.633,239.843 156.697,239.764 156.761,239.686C156.467,237.608 156.175,235.53 155.882,233.452C160.734,226.6 165.588,219.748 170.441,212.896C170.442,209.955 170.442,207.011 170.443,204.069C170.328,204.033 170.212,203.993 170.096,203.958C169.832,204.631 170.013,205.318 170.003,205.945ZM150.781,245.923C150.885,246.025 150.992,246.126 151.097,246.226C151.348,245.791 151.598,245.357 151.848,244.923C152.174,244.574 152.561,244.372 152.893,243.703C152.998,243.374 153.103,243.043 153.207,242.714C153.456,242.386 153.905,242.218 154.115,241.626C154.295,241.109 154.474,240.594 154.656,240.076C154.986,239.719 155.426,239.575 155.804,239.048C155.788,238.808 155.824,238.812 155.625,238.614C154.253,239.609 153.883,241.121 152.836,242.384C152.203,243.148 152.394,244.15 151.476,244.593C151.245,245.035 151.013,245.479 150.781,245.923ZM146.36,269.683C148.234,268.776 148.379,264.556 147.334,263.539C146.872,263.342 146.41,263.144 145.946,262.949C145.937,262.966 145.928,262.984 145.918,263.002C145.889,263.145 145.859,263.289 145.83,263.431C146.027,263.488 146.221,263.545 146.42,263.604C147.235,263.852 147.416,264.637 147.52,265.129C147.927,267.034 146.721,269.609 144.749,269.519C143.789,269.474 142.807,268.523 142.084,268.258C142.378,270.004 145.435,270.129 146.36,269.683ZM187.926,188.3C188.013,188.346 188.104,188.394 188.191,188.439C188.832,188.12 189.323,187.207 189.467,186.392C189.263,186.117 188.735,185.854 188.296,185.642C188.144,185.676 187.99,185.709 187.838,185.744C187.213,186.861 187.357,187.561 187.926,188.3ZM185.745,192.728C187.115,192.357 188.484,191.989 189.854,191.618C190.226,190.952 190.597,190.286 190.968,189.62C190.636,189.605 190.304,189.591 189.972,189.576C189.808,189.24 189.644,188.906 189.48,188.572C189.152,189.197 188.666,189.559 188.17,189.65C187.252,189.372 187.313,188.794 186.931,188.255C186.47,189.75 186.757,190.872 185.745,192.728ZM185.259,194.305C185.257,194.35 185.256,194.395 185.256,194.439C185.92,194.977 186.534,195.146 187.184,194.907C187.22,194.925 187.255,194.942 187.291,194.961C186.642,194.689 185.991,194.418 185.343,194.144C185.313,194.199 185.287,194.251 185.259,194.305ZM169.567,226.628C169.327,227.475 169.087,228.321 168.847,229.171C169.055,231.495 169.264,233.824 169.47,236.15C169.572,239.327 169.677,242.504 169.778,245.68C169.603,247.67 169.105,249.73 168.915,251.611C168.571,255.011 166.453,259.227 165.319,262.764C164.276,264.843 163.233,266.923 162.19,269.004C161.057,271.6 159.924,274.2 158.79,276.798C156.528,281.859 154.262,286.921 151.999,291.982C152.124,292.047 152.247,292.112 152.372,292.177C153.195,290.391 154.016,288.603 154.839,286.813C156.204,283.773 157.57,280.729 158.935,277.688C160.619,273.952 162.301,270.215 163.985,266.48C164.581,265.297 165.176,264.117 165.772,262.934C167.805,256.684 169.916,251.273 170.29,245.609C170.136,241.884 169.981,238.159 169.826,234.435C169.631,231.957 169.233,230.116 169.906,227.28C170.231,225.908 170.597,222.692 171.682,221.419C172.691,220.239 174.25,219.478 175.545,219.096C176.081,218.939 176.491,219.056 176.979,218.692C177.293,219.18 177.425,219.717 178.083,220.085C178.146,220.006 178.21,219.926 178.276,219.848C178.113,219.33 177.61,218.485 176.988,218.156C175.943,218.746 174.677,218.694 173.631,219.25C172.858,219.864 172.085,220.479 171.312,221.091C170.252,223.107 170.008,224.788 169.567,226.628ZM190.453,188.401C190.522,188.437 190.594,188.474 190.667,188.512C190.793,188.442 190.92,188.374 191.047,188.304C191.179,187.877 191.313,187.449 191.446,187.021C191.09,186.88 190.733,186.739 190.378,186.598C190,187.348 190.07,187.886 190.453,188.401ZM195.548,179.051C195.793,179.023 195.84,178.921 195.988,178.601C195.892,178.393 195.798,178.185 195.704,177.976C195.307,177.803 195.236,177.861 194.949,177.99C194.659,178.508 194.872,179.048 195.548,179.051ZM188.943,192.838C188.926,192.829 188.908,192.82 188.891,192.81C188.43,193.153 187.716,193.068 187.163,193.129C187.129,193.111 187.091,193.091 187.056,193.073C187.388,193.432 188.006,193.4 188.524,193.638C188.665,193.37 188.804,193.105 188.943,192.838ZM205.108,159.744C204.919,160.834 207.396,163.255 208.198,164.214C210.097,166.487 210.426,167.362 210.833,170.074C210.958,170.616 211.083,171.155 211.207,171.696C211.267,171.839 211.328,171.984 211.388,172.128C212.209,170.936 211.66,168.161 211.511,166.966C211.169,164.239 211.335,161.467 210.829,158.801C210.668,157.963 209.625,157.396 209.175,156.644C208.978,156.319 208.956,155.941 208.844,155.591C208.844,155.545 208.845,155.501 208.845,155.456C207.637,155.372 207.432,156.26 206.502,157.081C206.037,157.969 205.573,158.856 205.108,159.744ZM195.423,178.511C195.398,178.473 195.371,178.435 195.345,178.402C195.372,178.435 195.398,178.473 195.423,178.511ZM186.335,202.881C188.179,202.114 188.027,198.832 187.29,197.947C187.271,197.892 187.255,197.84 187.238,197.786C186.839,198.029 186.439,198.272 186.04,198.515C185.671,199.979 186.388,201.432 186.335,202.881ZM148.716,270.237C148.779,270.608 148.973,270.969 149.343,271.244C149.748,271.115 150.102,270.512 150.388,270.024C150.327,269.791 150.271,269.556 150.212,269.322C149.69,269.392 149.329,269.751 148.855,269.97C148.809,270.06 148.763,270.147 148.716,270.237ZM209.005,155.538C209.048,155.673 209.089,155.809 209.133,155.944C209.66,156.409 210.061,156.307 210.375,155.644C210.265,155.276 210.092,155.042 209.607,154.904C209.472,154.989 209.336,155.077 209.2,155.164C209.135,155.29 209.069,155.414 209.005,155.538ZM188.191,195.704C188.25,195.939 188.309,196.174 188.366,196.408C188.544,196.5 188.721,196.593 188.9,196.688C189.045,196.671 189.189,196.655 189.331,196.641C189.775,196.172 189.927,195.72 189.735,195.222C189.069,194.904 188.753,195.159 188.278,195.41C188.249,195.507 188.222,195.605 188.191,195.704ZM209.893,155.528C209.847,155.616 209.801,155.705 209.754,155.794C209.709,155.794 209.664,155.792 209.618,155.792C209.575,155.746 209.531,155.701 209.487,155.654C209.534,155.566 209.58,155.476 209.627,155.388C209.715,155.435 209.803,155.481 209.893,155.528ZM189.111,195.505C189.172,195.559 189.233,195.615 189.295,195.671C189.331,195.734 189.365,195.797 189.401,195.861C189.317,195.976 189.233,196.09 189.151,196.205C189.115,196.232 189.078,196.257 189.044,196.285C188.91,196.192 188.776,196.101 188.644,196.008C188.636,195.936 188.629,195.864 188.622,195.794C188.65,195.74 188.679,195.686 188.706,195.632C188.84,195.589 188.974,195.547 189.111,195.505ZM151.362,276.985C151.38,276.994 151.397,277.003 151.415,277.01C151.893,276.413 152.306,275.878 152.735,275.393C152.616,274.674 152.494,273.955 152.372,273.236C152.337,273.172 152.303,273.109 152.269,273.047C151.558,273.712 150.556,272.977 149.739,273.08C149.776,273.992 150.788,276.191 151.362,276.985ZM167.249,255.831C168.887,253.723 167.571,250.592 164.962,250.085C163.26,249.755 162.456,250.56 161.167,251.631C158.658,256.178 164.428,259.467 167.249,255.831ZM153.143,268.004C153.282,268.489 153.669,269.118 153.732,269.602C153.68,269.915 153.63,270.229 153.58,270.542C153.671,271.431 154.336,272.188 154.393,273.139C154.453,274.126 154.19,275.927 155.437,276.333C156.318,275.326 157.624,273.016 157.81,271.668C157.868,271.249 157.536,270.9 157.589,270.533C157.907,269.84 158.226,269.146 158.542,268.452C158.66,268.369 158.832,268.555 158.974,268.406C159.106,268.068 159.238,267.729 159.369,267.39C158.701,266.204 158.032,265.015 157.365,263.828C155.855,264.708 154.862,266.83 153.313,267.682C153.254,267.789 153.198,267.896 153.143,268.004ZM150.846,293.144C153.649,290.038 150.74,285.333 146.992,284.815C146.29,284.718 144.804,284.968 144.29,285.439C143.975,285.954 143.662,286.466 143.348,286.982C141.016,291.402 148.261,296.012 150.846,293.144ZM164.273,263.983C165.971,261.795 164.223,258.698 161.554,258.283C159.99,258.04 159.205,258.757 158.003,259.752C155.582,264.148 161.572,267.464 164.273,263.983ZM163.539,252.804C163.975,252.752 164.518,252.806 165.041,253.047C165.197,253.355 165.353,253.661 165.509,253.971C165.394,254.489 165.03,255.332 164.59,255.595C163.351,256.436 162.423,254.314 163.076,253.173C163.229,253.05 163.385,252.927 163.539,252.804ZM160.347,260.979C160.639,260.822 161.152,261.035 161.502,261.108C161.886,261.552 162.156,261.894 162.149,262.465C161.751,263.301 161.128,263.667 160.384,263.374C159.904,263.299 159.409,262.604 159.437,262.2C159.521,261.994 159.606,261.791 159.691,261.586C159.91,261.383 160.129,261.182 160.347,260.979ZM146.956,288.26C147.281,288.261 147.847,288.522 148.021,288.817C148.424,289.334 148.245,290.249 147.659,290.935C146.507,291.065 145.226,290.137 146.004,288.779C146.321,288.605 146.639,288.431 146.956,288.26ZM210.678,175.561C210.667,175.623 210.657,175.686 210.647,175.749C210.842,175.963 210.94,176.104 211.311,176.297C211.382,176.246 211.457,176.193 211.528,176.141C211.611,176.024 211.694,175.91 211.777,175.795C211.708,175.533 211.476,175.186 211.089,175.164C210.99,175.18 210.89,175.195 210.792,175.21C210.753,175.327 210.716,175.444 210.678,175.561ZM204.574,189.95C204.72,190.225 204.846,190.415 205.233,190.635C205.351,190.584 205.469,190.531 205.587,190.48C205.734,190.241 205.882,190.003 206.029,189.764C205.932,189.389 205.905,189.424 205.936,189.036C205.863,188.996 205.791,188.959 205.722,188.923C205.452,189.054 205.179,189.183 204.907,189.312C204.796,189.523 204.685,189.737 204.574,189.95ZM205.387,189.563C205.459,189.555 205.532,189.547 205.603,189.54C205.519,189.7 205.436,189.86 205.352,190.019C205.272,189.998 205.192,189.98 205.111,189.961C205.166,189.854 205.222,189.747 205.278,189.642C205.316,189.614 205.352,189.588 205.387,189.563Z"/>
    </g>
</svg>
