<?xml version="1.0" encoding="UTF-8" standalone="no"?>
<!DOCTYPE svg PUBLIC "-//W3C//DTD SVG 1.1//EN" "http://www.w3.org/Graphics/SVG/1.1/DTD/svg11.dtd">
<svg width="100%" height="100%" viewBox="0 0 35 43" version="1.1" xmlns="http://www.w3.org/2000/svg" xmlns:xlink="http://www.w3.org/1999/xlink" xml:space="preserve" xmlns:serif="http://www.serif.com/" style="fill-rule:evenodd;clip-rule:evenodd;stroke-linejoin:round;stroke-miterlimit:1.41421;">
    <g transform="matrix(1,0,0,1,-97.514,-7.84244)">
        <path d="M114.302,12.712C114.389,12.857 114.931,12.917 114.949,13.2C114.962,13.392 114.602,13.532 114.539,13.751C114.374,14.325 115.011,14.645 115.316,14.941C115.442,15.064 115.595,15.299 115.727,15.492C115.925,15.788 116.081,15.948 116.18,16.28C116.369,16.327 116.359,16.57 116.547,16.62C116.565,16.68 116.572,16.751 116.59,16.81C116.988,17.205 117.24,17.742 117.712,18.064C118.105,18.074 118.323,18.431 118.511,18.742C118.57,18.84 118.646,18.902 118.662,18.977C118.678,19.054 118.63,19.138 118.64,19.21C118.654,19.316 118.818,19.407 118.705,19.506C119.106,20.098 119.512,20.833 119.74,21.609C119.868,22.041 119.979,22.467 120.28,22.756C120.314,22.9 120.373,23.018 120.409,23.159C120.704,23.428 120.951,23.743 121.38,23.881C121.405,23.941 121.405,23.99 121.38,24.051C121.663,24.202 121.882,24.451 122.114,24.688C122.39,24.969 122.811,25.287 123.064,25.623C123.344,25.993 123.577,26.372 123.732,26.79C123.948,27.365 123.986,28.12 124.207,28.765C124.229,29.12 124.457,29.42 124.531,29.784C124.554,29.895 124.532,30.027 124.553,30.145C124.705,30.999 125.012,31.744 125.546,32.226C125.733,32.393 126.158,32.643 126.431,32.843C126.552,32.93 126.623,33.065 126.776,33.055C126.93,33.045 126.972,32.903 127.1,32.822C127.103,32.705 127.102,32.593 127.078,32.502C127.202,32.435 127.231,32.51 127.381,32.502C127.619,32.698 127.481,33.108 127.338,33.331C127.505,33.506 127.858,33.498 128.006,33.692C128.163,34.221 128.467,34.755 128.675,35.285C128.857,35.746 129.163,36.136 129.366,36.58C129.449,36.76 129.468,36.976 129.56,37.154C129.639,37.304 129.787,37.396 129.754,37.641C129.756,37.696 129.835,37.674 129.862,37.705C129.843,37.767 129.829,37.728 129.775,37.726C129.789,38.15 129.538,38.312 129.388,38.575C129.734,38.73 130.129,38.836 130.423,39.043C130.632,39.02 130.858,39.017 131.028,38.958C131.271,39.054 131.402,39.266 131.33,39.615C131.563,39.74 131.941,39.702 132.107,39.933C132.176,40.13 132.167,40.295 132.236,40.466C132.141,40.488 132.166,40.591 132.107,40.699C132.051,40.747 132.007,40.656 131.956,40.634C131.946,40.71 132.043,40.787 131.998,40.826C131.921,40.886 131.865,40.784 131.805,40.762C131.749,40.778 131.91,40.868 131.826,40.911C131.732,40.994 131.678,40.806 131.632,40.805C131.567,40.801 131.53,40.905 131.46,40.911C131.138,40.931 130.983,40.283 131.071,39.976C130.962,39.788 130.753,40.003 130.596,39.976C130.431,39.947 130.464,39.807 130.316,39.742C130.385,39.281 130.054,39.148 129.69,38.999C129.648,38.983 129.57,38.994 129.539,38.978C129.452,38.933 129.297,38.798 129.13,38.809C128.942,38.82 128.735,39.027 128.591,38.787C128.451,38.876 128.215,38.803 128.18,38.659C127.373,38.505 126.333,38.39 125.526,38.427C125.449,38.804 125.463,39.216 125.267,39.53C125.205,39.63 125.093,39.678 125.029,39.764C125.015,39.784 125.029,39.846 124.987,39.912C124.94,39.985 124.875,39.941 124.878,39.997C124.884,40.075 125.258,40.302 125.353,40.421C125.889,41.094 126.389,42.426 125.828,43.373C125.672,43.436 125.587,43.627 125.353,43.691C125.186,43.737 125.019,43.665 124.856,43.691C124.742,43.71 124.655,43.836 124.554,43.841C124.341,43.848 124.243,43.634 124.187,43.502C124.187,43.401 124.279,43.394 124.317,43.332C124.308,43.095 124.068,42.745 124.381,42.673C124.51,42.758 124.624,42.861 124.662,43.034C125.007,42.797 125.185,43.269 125.028,43.544C125.089,43.664 125.233,43.548 125.352,43.544C126.405,42.826 125.705,41.07 125.006,40.401C124.905,40.305 124.655,40.125 124.575,40.125C124.42,40.125 124.328,40.348 124.165,40.317C124.194,41.173 123.773,41.588 123.108,41.761C123.125,42.01 123.412,42.179 123.669,42.187C124.01,42.196 124.283,41.918 124.489,41.804C124.389,42.149 124.139,42.403 124.079,42.738C123.911,43.68 124.566,44.451 125.439,44.46C125.608,44.46 125.752,44.38 125.914,44.502C125.862,44.646 125.703,44.573 125.612,44.587C124.863,44.694 124.194,45.137 124.166,45.88C124.153,46.234 124.235,46.692 124.468,46.943C124.669,46.93 124.796,46.988 124.813,47.156C124.179,47.012 123.774,47.812 124.166,48.303C124.217,48.365 124.314,48.373 124.317,48.471C124.198,48.633 123.991,48.494 123.885,48.409C123.249,48.318 122.946,48.817 123.044,49.449C122.833,49.366 122.623,49.22 122.354,49.259C122.281,49.355 122.179,49.352 122.095,49.407C121.827,49.582 121.777,49.932 121.512,50.108C121.328,49.64 120.894,49.304 120.346,49.363C119.781,49.426 119.556,49.846 119.354,50.277C119.254,50.218 119.224,50.109 119.203,50.022C119.114,49.658 119.051,49.314 118.707,49.193C118.356,49.072 117.971,49.182 117.713,49.363C117.698,49.484 117.662,49.582 117.584,49.64C117.447,49.392 117.537,48.923 117.087,48.982C117.02,48.524 116.692,48.255 116.202,48.28C116.315,47.698 116.257,47.202 115.684,47.113C115.704,46.903 115.884,46.726 115.921,46.476C115.981,46.067 115.802,45.606 116.028,45.286C115.871,45.083 115.748,44.95 115.748,44.586C115.748,44.302 115.957,44.009 115.899,43.842C115.845,43.688 115.601,43.692 115.468,43.798C115.468,43.885 115.615,43.824 115.597,43.926C115.514,43.958 115.383,43.942 115.295,43.969C115.291,44.043 115.396,44.011 115.381,44.095C115.203,44.116 115.139,44.023 114.971,44.032C114.863,44.073 114.962,44.095 114.95,44.2C114.758,44.157 114.723,43.959 114.497,43.947C114.418,43.96 114.547,44.046 114.475,44.052C114.247,44.015 114.368,43.634 114.108,43.628C114.132,43.431 113.998,43.413 114.066,43.225C114.059,43.161 113.975,43.299 113.958,43.225C114.071,42.983 114.281,42.52 113.872,42.438C113.886,42.609 114.023,42.657 114.066,42.8C113.795,42.766 113.797,42.425 113.59,42.29C113.526,42.248 113.443,42.272 113.353,42.248C113.036,42.164 112.755,42.108 112.36,42.185C112.672,42.287 112.914,42.358 113.136,42.524C113.503,42.796 113.53,43.301 113.805,43.67C113.923,43.724 114.077,43.743 114.194,43.796C114.216,43.867 114.127,43.831 114.085,43.84C114.223,44.043 114.408,44.201 114.56,44.391C114.528,44.476 114.394,44.321 114.323,44.306C114.329,44.466 114.458,44.587 114.409,44.73C114.332,44.745 114.346,44.665 114.28,44.667C114.279,44.79 114.357,44.834 114.345,44.966C114.27,45.027 114.237,44.912 114.172,44.902C114.122,44.966 114.15,45.107 114.085,45.157C113.944,45.105 113.849,45.215 113.783,45.347C113.729,45.331 113.715,45.273 113.676,45.242C113.579,45.287 113.658,45.506 113.525,45.517C113.463,45.441 113.553,45.372 113.546,45.284C113.372,45.321 113.39,45.63 113.525,45.837C113.615,45.974 113.865,46.088 113.957,46.282C114.127,46.639 114.08,47.167 113.74,47.386C113.618,47.407 113.543,47.369 113.481,47.469C113.26,47.44 113.008,47.552 112.77,47.619C112.724,47.6 112.719,47.54 112.727,47.469C112.607,47.507 112.498,47.557 112.403,47.619C112.288,47.485 112.064,47.618 111.928,47.576C111.897,47.504 111.865,47.401 111.907,47.32C111.819,47.333 111.78,47.395 111.669,47.385C111.571,47.289 111.462,47.205 111.367,47.109C111.234,47.062 111.329,47.241 111.238,47.234C111.094,47.27 111.113,47.033 111.151,46.961C111.033,46.885 110.973,46.752 110.849,46.683C110.84,46.576 110.859,46.494 110.914,46.451C110.812,46.359 110.714,46.265 110.655,46.131C110.671,46.04 110.738,46.001 110.764,45.919C110.716,45.774 110.716,45.622 110.742,45.452C111.013,45.3 111.128,45.071 111.475,45.049C111.722,45.033 112.13,45.239 112.274,45.007C112.227,45.015 112.148,44.974 112.101,44.921C112.101,44.865 112.101,44.809 112.101,44.753C111.995,44.776 111.973,44.578 111.972,44.433C111.922,44.375 111.849,44.471 111.8,44.412C111.786,44.209 111.962,44.19 111.972,44.01C111.965,43.938 111.878,44.066 111.864,43.989C111.881,43.806 112.002,43.728 112.144,43.67C112.154,43.604 112.078,43.623 112.101,43.543C112.158,43.455 112.394,43.441 112.49,43.457C112.546,43.435 112.534,43.345 112.597,43.331C112.764,43.344 112.922,43.365 113.051,43.417C113.135,43.384 113.198,43.335 113.245,43.267C112.973,42.142 111.149,42.484 110.116,42.482C109.087,42.481 108.095,42.611 107.052,42.524C106.64,42.489 106.27,42.416 105.93,42.355C104.788,42.147 103.74,41.805 102.887,41.272C102.628,41.109 102.43,40.746 102.111,40.592C102.007,40.543 101.87,40.563 101.809,40.466C101.827,40.317 101.721,40.353 101.679,40.232C101.657,40.162 101.746,40.198 101.787,40.19C101.687,39.941 102.011,39.932 102.067,39.764C102.257,39.778 102.196,39.864 102.39,39.806C102.475,39.858 102.503,39.966 102.585,40.019C102.668,40.03 102.69,39.98 102.78,39.998C102.883,40.073 102.873,40.182 102.93,40.295C103.19,40.809 103.816,40.985 104.441,41.251C105.11,41.535 105.729,41.809 106.555,41.654C106.661,41.341 106.917,41.175 107.03,40.869C107.233,40.782 107.381,40.891 107.548,40.869C107.856,40.827 107.845,40.509 108.066,40.359C108.019,40.051 108.189,39.736 108.217,39.402C108.236,39.169 108.21,38.871 108.151,38.638C108.029,38.152 108.003,37.398 108,36.768C107.997,35.495 107.492,34.306 107.375,33.202C107.345,33.139 107.285,33.107 107.245,33.054C107.314,32.855 107.193,32.746 107.138,32.607C106.882,32.501 106.727,32.286 106.512,32.077C106.281,31.853 106.033,31.602 105.886,31.292C105.824,31.161 105.819,30.994 105.757,30.847C105.671,30.643 105.469,30.457 105.325,30.252C105.134,29.98 104.9,29.704 104.872,29.296C104.829,28.671 104.927,28.172 104.721,27.704C104.62,27.473 104.425,27.282 104.29,27.067C104.037,26.664 103.779,26.216 103.642,25.685C103.58,25.449 103.584,25.226 103.426,24.986C103.266,24.726 103.005,24.565 102.822,24.326C102.525,24.219 102.124,24.143 101.7,24.222C101.421,24.274 101.119,24.314 100.858,24.391C100.614,24.464 100.433,24.669 100.168,24.689C100.08,24.694 99.987,24.654 99.887,24.646C99.2,24.589 98.288,25.039 97.924,24.434C97.735,24.393 97.632,24.37 97.514,24.35C97.55,24.264 97.557,24.152 97.578,24.053C98.054,23.778 98.534,23.394 99.046,23.224C99.696,22.823 100.299,22.376 100.665,21.695C100.98,21.449 101.406,21.209 101.787,20.973C102.065,20.801 102.355,20.598 102.65,20.548C102.776,20.527 102.916,20.552 103.039,20.506C103.213,20.438 103.366,20.256 103.557,20.209C103.904,20.191 104.325,20.066 104.528,20.358C104.668,20.56 104.527,20.896 104.765,21.079C104.767,21.346 104.871,21.422 105.045,21.568C105.586,22.019 105.994,22.724 106.405,23.287C106.564,23.504 106.762,23.652 106.923,23.861C107.032,23.786 107.157,23.717 107.289,23.819C107.569,23.642 107.726,23.341 107.957,23.118C108.391,22.914 108.754,22.642 109.36,22.609C109.693,22.321 110.148,22.152 110.353,21.738C110.075,21.81 109.915,21.394 110.18,21.27C110.096,21.055 110.1,20.755 109.9,20.654C109.914,20.3 110.144,19.926 109.9,19.678C110.001,19.358 110.08,18.879 109.986,18.532C109.976,18.436 110.044,18.419 110.073,18.361C109.993,17.8 110.123,17.387 110.18,16.833C110.201,16.634 110.322,16.463 110.353,16.282C110.371,16.175 110.339,16.024 110.353,15.9C110.397,15.476 110.734,15.136 110.957,14.88C111.012,14.817 111.12,14.558 111.086,14.434C111.053,14.31 110.836,14.26 110.784,14.179C110.847,13.98 111.045,13.913 111.194,13.797C110.828,13.663 110.468,13.716 110.439,13.329C110.433,13.249 110.507,13.165 110.482,13.054C110.452,12.922 110.184,12.747 110.439,12.587C110.382,12.488 110.196,12.516 110.137,12.417C110.145,12.283 110.252,12.248 110.266,12.121C110.215,12.013 110.096,12.078 110.029,12.014C109.783,11.561 110.45,11.382 110.482,10.931C110.479,10.87 110.334,10.951 110.331,10.889C110.322,10.789 110.471,10.843 110.482,10.762C110.475,10.633 110.396,10.578 110.396,10.443C110.351,10.536 110.394,10.601 110.417,10.676C110.29,10.665 110.237,10.726 110.136,10.741C110.103,10.644 110.044,10.576 110.006,10.485C109.901,10.531 109.75,10.499 109.66,10.466C109.414,9.952 109.646,9.147 110.179,9.063C110.157,8.979 110.087,8.942 110.05,8.873C110.118,8.529 110.24,8.239 110.546,8.13C110.582,8.06 110.618,7.987 110.653,7.917C110.923,7.792 111.354,7.8 111.387,8.13C111.494,8.051 111.571,7.942 111.69,7.875C111.824,7.862 111.917,7.891 112.034,7.897C112.155,8.16 112.509,8.103 112.725,7.961C112.811,7.94 112.734,8.079 112.811,8.065C113.428,7.938 113.891,8.259 114.17,8.598C114.41,8.637 114.554,8.771 114.753,8.852C114.92,9.054 114.979,9.294 115.142,9.51C115.249,9.652 115.43,9.729 115.53,9.872C115.642,10.03 115.712,10.313 115.725,10.529C115.735,10.703 115.607,10.963 115.811,11.06C115.932,10.959 115.793,10.792 115.768,10.699C115.863,10.67 115.824,10.772 115.897,10.763C115.969,10.713 115.819,10.7 115.854,10.614C116.145,10.742 116.216,11.324 115.833,11.4C115.951,11.715 115.742,11.94 115.488,12.015C115.387,12.263 115.273,12.498 114.884,12.46C114.778,12.668 114.517,12.778 114.302,12.712ZM115.1,19.296C114.974,19.786 114.578,20.584 115.057,20.931C114.989,21.119 115.22,21.1 115.165,21.334C115.904,21.751 116.264,22.544 116.783,23.18C116.739,23.335 116.563,23.362 116.502,23.5C116.549,23.559 116.572,23.643 116.61,23.713C117.416,23.558 118.27,23.317 119.113,23.521C119.159,23.417 119.023,23.372 119.005,23.287C118.999,23.256 119.041,23.192 119.027,23.16C118.98,23.055 118.765,22.968 118.832,22.757C118.532,22.105 117.997,21.637 117.516,21.121C117.397,20.994 117.309,20.829 117.192,20.697C117.002,20.481 116.816,20.333 116.696,20.081C116.549,19.776 116.44,19.372 116.178,19.189C116.144,19.138 116.133,19.064 116.092,19.018C116.042,18.978 115.942,18.983 115.898,18.935C115.802,18.654 115.492,18.583 115.315,18.382C115.273,18.661 115.184,18.97 115.1,19.296ZM111.389,23.521C111.24,23.441 111.157,23.331 111.217,23.097C111.014,22.895 110.968,23.271 110.742,23.245C110.713,23.314 110.71,23.412 110.613,23.415C110.536,23.419 110.495,23.325 110.441,23.372C110.294,23.511 110.201,23.703 109.922,23.713C109.598,24.08 109.202,24.377 108.8,24.667C109.481,24.635 110.214,25.037 110.872,24.943C111.165,24.902 111.383,24.725 111.67,24.731C111.619,24.261 111.472,23.982 111.389,23.521ZM107.095,23.967C107.162,23.977 107.191,23.948 107.181,23.882C107.131,23.89 107.08,23.895 107.095,23.967ZM124.595,36.559C124.508,36.392 124.318,36.177 124.141,35.987C123.974,35.801 123.818,35.572 123.667,35.433C123.351,35.143 122.944,34.917 122.588,34.626C122.23,34.335 121.987,33.938 121.682,33.626C121.494,33.438 121.224,33.304 121.056,33.14C120.814,32.901 120.611,32.585 120.408,32.269C120.204,31.95 120.02,31.604 119.955,31.207C119.79,30.196 119.947,29.124 119.437,28.553C119.294,28.393 118.98,28.241 118.704,28.256C118.359,28.274 118.117,28.517 117.818,28.659C117.538,28.79 117.264,28.894 116.955,28.954C116.793,28.917 116.858,28.655 116.782,28.53C116.555,28.519 116.475,28.654 116.329,28.72C116.259,29.356 116.447,29.889 116.74,30.251C117.329,30.979 118.431,31.504 118.638,32.692C118.67,32.869 118.644,33.046 118.681,33.223C118.756,33.577 118.922,33.937 119.027,34.285C119.276,35.115 119.391,35.848 119.804,36.45C120.014,36.758 120.346,37.033 120.408,37.321C120.465,37.584 120.361,37.794 120.365,38.021C120.922,37.973 121.465,37.971 121.962,38.064C122.241,38.116 122.487,38.259 122.738,38.297C123.475,38.407 124.085,38.099 124.788,38.105C124.802,37.582 124.809,36.968 124.595,36.559ZM114.798,39.616C114.913,39.515 115.072,39.461 115.165,39.383C115.394,39.192 115.534,38.813 115.704,38.554C115.905,38.252 116.126,37.911 116.201,37.664C116.407,36.983 116.125,36.324 115.942,35.751C115.685,34.88 115.276,34.136 115.036,33.246C114.884,32.681 114.8,32.102 114.626,31.527C114.597,31.47 114.535,31.445 114.519,31.378C114.508,30.964 114.204,30.838 113.979,30.635C113.311,31.429 111.914,31.505 110.915,31.971C111.303,33.865 111.884,35.707 112.296,37.536C112.353,37.786 112.53,38.078 112.534,38.322C112.537,38.514 112.444,38.689 112.447,38.894C112.455,39.336 112.583,39.728 112.576,40.17C112.712,40.06 112.932,40.01 112.964,39.829C112.995,39.661 112.792,39.434 112.922,39.255C112.977,39.414 113.024,39.58 113.073,39.744C113.524,39.51 114.069,38.644 113.85,38.067C113.755,38.025 113.565,38.078 113.504,38.003C113.51,37.953 113.579,37.964 113.569,37.897C113.451,37.878 113.342,37.852 113.267,37.791C113.276,37.751 113.314,37.739 113.31,37.685C113.166,37.656 113.07,37.582 113.051,37.43C113.043,37.379 113.149,37.441 113.116,37.366C112.983,37.173 113.064,36.951 113.137,36.75C113.181,36.748 113.238,36.895 113.245,36.791C113.259,36.695 113.282,36.559 113.396,36.624C113.41,36.572 113.369,36.468 113.417,36.453C113.491,36.458 113.461,36.566 113.525,36.581C113.544,36.497 113.544,36.475 113.525,36.391C113.608,36.366 113.602,36.465 113.654,36.412C113.665,36.02 113.219,36.214 112.942,36.134C112.863,36.112 112.666,35.955 112.597,35.902C112.468,35.8 112.327,35.641 112.36,35.477C112.489,35.506 112.488,35.662 112.618,35.689C112.531,35.564 112.453,35.428 112.424,35.243C112.527,35.152 112.531,34.965 112.596,34.839C112.868,34.827 112.864,34.404 113.179,34.564C113.223,34.494 113.253,34.41 113.308,34.351C113.453,34.351 113.596,34.351 113.739,34.351C113.78,34.263 113.846,34.201 113.956,34.181C114.024,34.184 114.019,34.26 114.084,34.265C114.166,34.247 114.176,34.157 114.279,34.159C114.443,34.289 114.616,34.407 114.646,34.67C114.672,34.55 114.599,34.357 114.667,34.33C114.796,34.407 114.866,34.544 115.055,34.564C115.173,34.809 115.332,34.9 115.358,35.159C115.428,35.875 114.42,35.605 114.344,36.155C114.437,36.253 114.468,36.414 114.602,36.474C114.607,36.41 114.533,36.392 114.581,36.347C114.721,36.366 114.725,36.602 114.884,36.538C114.965,36.621 114.973,36.775 115.12,36.791C115.091,36.957 115.101,37.132 115.207,37.218C115.199,37.364 115.097,37.421 115.034,37.514C115.017,37.586 115.121,37.541 115.098,37.621C114.986,37.708 114.885,37.807 114.818,37.938C114.675,37.948 114.594,37.948 114.494,37.96C114.219,38.101 114.268,38.486 114.17,38.767C113.997,39.265 113.629,39.667 113.307,39.998C113.806,40.523 114.467,39.912 114.798,39.616ZM123.041,32.632C122.985,32.655 122.949,32.565 122.956,32.653C123.038,32.946 123.123,33.216 123.279,33.417C123.429,33.611 123.672,33.86 123.883,34.055C124.295,34.428 124.759,34.723 125.351,34.882C125.687,35.132 125.587,35.704 125.588,36.241C125.589,36.878 125.613,37.574 125.61,38.11C126.542,38.104 127.194,38.173 128.048,38.281C128.144,38.155 128.29,38.079 128.329,37.898C128.557,37.815 128.82,37.636 128.825,37.388C128.827,37.319 128.742,37.192 128.696,37.071C128.516,36.597 128.321,36.344 128.049,35.945C127.867,35.68 127.696,35.399 127.488,35.181C127.116,34.791 126.548,34.476 126.15,34.16C125.978,34.271 125.794,34.356 125.568,34.373C124.826,34.427 124.286,34.033 123.928,33.694C123.818,33.59 123.74,33.548 123.669,33.439C123.375,32.985 123.252,32.414 123.022,31.953C122.996,31.95 122.973,31.915 122.958,31.953C123.132,32.176 122.885,32.416 123.041,32.632ZM125.35,33.627C124.954,33.373 124.573,33.105 124.206,32.822C124.333,33.347 124.779,33.601 125.35,33.627ZM111.108,37.748C111.32,37.901 111.518,38.134 111.474,38.429C111.412,38.855 110.795,38.876 110.632,39.193C110.633,39.269 110.686,39.297 110.697,39.363C110.76,39.423 110.753,39.294 110.847,39.321C110.83,39.429 110.87,39.483 110.89,39.555C110.957,39.618 110.947,39.486 111.02,39.49C111.095,39.63 110.982,39.747 110.955,39.852C110.993,39.857 111.063,39.831 111.041,39.894C110.909,39.991 110.853,40.164 110.652,40.192C110.64,40.229 110.679,40.316 110.631,40.318C110.37,40.24 110.233,40.402 110.027,40.488C109.949,40.658 109.802,40.789 109.681,40.934C109.558,41.08 109.399,41.192 109.336,41.337C109.702,41.295 109.966,41.15 110.178,40.953C110.414,41.199 110.865,41.008 111.084,40.87C110.646,40.703 111.008,39.814 111.58,39.934C112.064,39.441 111.599,38.507 111.429,38.002C111.011,37.409 110.914,36.591 110.652,35.857C110.415,35.19 110.022,34.596 109.789,33.968C109.668,33.639 109.548,33.314 109.314,33.055C109.239,33.384 109.25,33.718 109.25,34.054C109.25,35.75 109.093,37.534 109.25,39.255C109.392,39.069 109.569,39.181 109.746,39.044C109.766,38.866 109.692,38.784 109.595,38.725C109.608,38.779 109.586,38.8 109.531,38.788C109.521,38.549 109.208,38.456 109.185,38.216C109.172,38.079 109.257,37.922 109.336,37.79C109.549,37.767 109.638,37.507 109.919,37.621C110.038,37.569 110.054,37.499 110.135,37.472C110.165,37.463 110.174,37.537 110.221,37.537C110.279,37.536 110.293,37.366 110.372,37.452C110.422,37.498 110.364,37.535 110.372,37.6C110.462,37.597 110.468,37.512 110.588,37.537C110.637,37.551 110.567,37.684 110.652,37.664C110.736,37.675 110.807,37.604 110.911,37.579C110.948,37.614 110.929,37.703 110.932,37.771C111.02,37.818 111.016,37.743 111.108,37.748ZM117.517,35.307C117.528,35.487 117.567,35.673 117.582,35.858C117.626,36.426 117.427,37.06 117.711,37.558C118.157,37.308 118.423,36.945 118.337,36.284C118.256,35.658 117.664,34.912 117.452,34.627C117.48,34.829 117.503,35.071 117.517,35.307ZM114.949,34.945C115.033,34.935 114.999,34.707 114.949,34.691C114.928,34.794 115.008,34.871 114.949,34.945ZM119.265,38.491C118.841,38.586 118.427,38.642 118.143,38.831C118.942,38.616 119.81,38.76 120.754,38.703C121.277,38.671 121.832,38.45 122.372,38.449C121.428,38.02 120.182,38.285 119.265,38.491ZM123.322,38.576C123.503,38.803 123.743,38.968 123.905,39.213C124.339,39.108 124.687,38.921 124.746,38.449C124.246,38.467 123.771,38.572 123.322,38.576ZM123.02,38.683C122.764,38.618 122.303,38.831 122.005,38.81C122.473,39.014 123.083,39.079 123.537,39.297C123.562,39.05 123.223,38.732 123.02,38.683ZM118.813,38.959C118.947,39.173 119.367,38.948 119.546,38.917C119.317,38.958 118.987,38.927 118.813,38.959ZM122.221,39.127C121.86,39.039 121.448,38.966 121.099,39.021C120.778,39.074 120.409,39.088 120.171,39.213C120.413,39.567 121.088,39.418 121.315,39.15C121.321,39.643 121.72,39.88 122.113,39.807C122.097,39.972 121.979,40.273 122.156,40.277C122.121,39.854 122.643,39.643 122.933,39.978C123.244,40.011 123.438,40.16 123.43,40.509C123.326,40.689 123.087,40.643 122.825,40.635C122.632,40.918 122.305,40.643 122.2,40.467C122.193,40.946 122.912,41.004 123.344,40.891C123.245,41.105 122.981,41.268 123.064,41.591C123.673,41.476 123.983,41.002 124.013,40.382C123.863,40.325 123.707,40.271 123.668,40.106C123.352,40.091 123.287,39.745 123.453,39.531C123.093,39.417 122.667,39.239 122.221,39.127ZM118.1,39.149C118.125,39.153 118.124,39.182 118.121,39.212C118.27,39.145 118.644,39.191 118.596,39C118.441,39.06 118.196,39.033 118.1,39.149ZM119.2,39.383C119.445,39.466 119.759,39.464 119.869,39.213C119.616,39.241 119.399,39.304 119.2,39.383ZM108.972,39.786C108.891,40.266 108.744,40.794 108.67,41.21C109.225,41.158 109.981,40.456 109.339,40.064C109.345,40.02 109.436,40.057 109.425,39.999C109.361,39.893 109.253,39.83 109.21,39.703C109.194,39.639 109.326,39.539 109.21,39.511C109.221,39.692 109.112,39.755 108.972,39.786ZM112.273,40.721C112.555,40.679 112.768,40.572 112.877,40.36C112.649,40.453 112.491,40.616 112.273,40.721ZM115.23,41.294C115.359,41.251 115.295,41.4 115.38,41.4C115.728,41.404 115.966,41.4 116.33,41.4C116.256,40.928 115.375,40.795 115.23,41.294ZM116.61,41.4C117.09,41.459 117.591,41.497 118.034,41.59C117.945,40.994 116.9,40.961 116.61,41.4ZM113.849,41.549C114.252,41.449 114.861,41.553 115.144,41.337C114.784,41.135 113.978,41.123 113.849,41.549ZM117.021,45.244C117.017,45.18 116.931,45.263 117.021,45.244C117.033,45.296 117.105,45.289 117.086,45.37C116.862,45.378 116.691,45.497 116.46,45.478C116.347,45.576 116.109,45.624 116.223,45.88C116.318,45.97 116.497,45.918 116.611,45.944C116.465,46.13 116.377,46.373 116.547,46.561C116.793,46.832 117.404,46.749 117.648,46.603C117.468,46.794 117.301,47.189 117.561,47.39C117.692,47.49 117.835,47.437 117.971,47.517C117.656,47.825 117.911,48.479 118.295,48.536C118.559,48.575 118.672,48.412 118.878,48.239C119.025,48.453 119.239,48.651 119.547,48.642C119.913,48.631 120.131,48.365 120.237,48.068C120.52,48.521 121.526,48.164 121.273,47.58C121.911,47.484 122.066,46.577 121.596,46.22C121.524,46.168 121.424,46.206 121.38,46.073C122.312,45.839 122.605,44.842 122.287,43.885C121.909,42.75 120.848,41.665 119.503,41.528C118.964,41.475 118.639,41.424 118.273,41.676C119.357,41.969 120.216,42.483 120.409,43.651C120.536,43.816 120.763,43.884 120.949,43.991C120.945,44.024 120.897,44.01 120.863,44.012C120.983,44.19 121.238,44.238 121.294,44.479C121.241,44.507 121.205,44.417 121.186,44.479C121.26,44.652 121.365,45.007 121.316,45.159C121.217,45.155 121.228,45.047 121.144,45.031C121.098,45.207 121.127,45.385 121.1,45.54C121.016,45.533 121.052,45.403 120.971,45.392C120.839,45.433 120.813,45.576 120.712,45.647C120.683,45.62 120.691,45.555 120.691,45.499C120.613,45.495 120.572,45.634 120.519,45.582C120.503,45.525 120.561,45.54 120.561,45.499C120.481,45.51 120.412,45.536 120.41,45.626C120.579,45.831 120.887,45.845 121.058,46.092C121.32,46.471 121.139,47.157 120.799,47.345C120.658,47.357 120.619,47.466 120.497,47.495C120.405,47.499 120.38,47.438 120.281,47.452C120.209,47.532 120.139,47.61 120,47.623C119.909,47.518 119.801,47.539 119.677,47.602C119.565,47.472 119.397,47.525 119.288,47.39C119.051,47.592 118.981,47.223 118.706,47.325C118.585,47.247 118.515,47.117 118.49,46.944C118.221,46.96 118.334,46.602 118.167,46.518C118.074,46.504 117.911,46.558 117.886,46.478C117.95,46.43 118.072,46.468 118.145,46.478C118.139,45.853 118.541,45.565 119.073,45.563C119.297,45.563 119.602,45.641 119.591,45.371C119.574,45.367 119.565,45.355 119.569,45.329C119.465,45.271 119.453,45.318 119.332,45.329C119.259,45.28 119.213,45.207 119.18,45.118C119.094,45.097 119.115,45.182 119.03,45.161C118.97,45.064 118.988,44.891 118.987,44.735C118.997,44.682 118.887,44.786 118.879,44.713C118.781,44.498 119.116,44.391 118.987,44.204C119.029,44.041 119.275,44.077 119.311,43.908C119.578,43.874 119.787,43.782 119.894,43.589C119.911,43.219 119.761,42.903 119.549,42.676C118.867,41.948 117.283,41.799 116.096,41.827C116.156,41.945 116.33,41.951 116.333,42.124C116.246,42.15 116.175,42.067 116.161,42.145C116.238,42.247 116.329,42.334 116.333,42.507C116.286,42.553 116.259,42.489 116.182,42.507C116.194,42.633 116.418,42.659 116.268,42.761C116.684,42.853 116.949,42.279 117.434,42.21C117.614,42.182 118.026,42.204 118.124,42.358C118.214,42.672 118.499,42.796 118.513,43.185C118.505,43.235 118.418,43.206 118.426,43.271C118.548,43.517 118.352,43.705 118.384,43.951C118.346,43.969 118.321,44.001 118.276,44.014C118.218,44.014 118.229,43.945 118.169,43.951C118.188,44.059 118.32,44.056 118.298,44.204C118.297,44.282 118.184,44.249 118.147,44.289C118.424,44.405 118.787,44.762 118.643,45.118C118.56,45.325 118.174,45.378 118.169,45.118C118.164,44.948 118.365,44.91 118.514,44.842C118.459,44.621 118.354,44.448 118.082,44.438C118.088,44.516 118.088,44.585 117.996,44.567C118.084,44.736 117.91,44.799 117.802,44.778C117.816,44.858 117.823,44.978 117.737,45.011C117.646,45.03 117.627,44.913 117.564,44.969C117.525,45.039 117.513,45.088 117.543,45.18C117.382,45.243 117.199,45.38 117.021,45.244ZM111.777,41.782C112.127,41.78 112.458,41.758 112.705,41.655C112.439,41.539 111.895,41.558 111.777,41.782ZM110.72,41.931C110.978,41.917 111.255,41.921 111.432,41.826C111.213,41.746 110.827,41.738 110.72,41.931ZM113.871,42.016C114.06,42.084 114.31,42.065 114.41,41.931C114.204,41.936 114.027,41.966 113.871,42.016Z"/>
    </g>
</svg>
