<?xml version="1.0" encoding="UTF-8" standalone="no"?>
<!DOCTYPE svg PUBLIC "-//W3C//DTD SVG 1.1//EN" "http://www.w3.org/Graphics/SVG/1.1/DTD/svg11.dtd">
<svg width="100%" height="100%" viewBox="0 0 39 43" version="1.1" xmlns="http://www.w3.org/2000/svg" xmlns:xlink="http://www.w3.org/1999/xlink" xml:space="preserve" xmlns:serif="http://www.serif.com/" style="fill-rule:evenodd;clip-rule:evenodd;stroke-linejoin:round;stroke-miterlimit:1.41421;">
    <g transform="matrix(1,0,0,1,-10.186,-145.598)">
        <path d="M13.465,171.169C13.648,171.178 13.436,171.302 13.465,171.395C13.686,171.124 13.768,170.717 13.885,170.343C13.633,170.47 13.742,170.952 13.503,171.094C13.529,170.937 13.55,170.889 13.389,170.945C13.376,170.542 13.389,170.167 13.541,169.929C13.363,170.042 13.394,170.36 13.235,170.492C13.166,170.397 13.318,170.198 13.35,170.079C13.324,169.992 13.224,169.978 13.198,169.891C13.564,169.366 13.766,168.624 13.77,167.939C13.639,168 13.655,167.934 13.579,167.865C13.511,167.973 13.426,168.064 13.426,168.241C13.289,168.077 13.53,167.767 13.388,167.602C13.189,167.652 13.403,168.055 13.312,168.127C13.065,168.446 13.004,168.95 12.739,169.252C12.452,169.045 12.504,168.706 12.472,168.35C12.333,168.434 12.408,168.581 12.357,168.689C12.271,168.487 12.39,168.399 12.357,168.126C12.301,168.158 12.275,168.219 12.281,168.313C12.157,168.139 12.366,167.857 12.243,167.674C12.053,167.663 12.203,167.985 12.014,167.973C12.092,167.726 12.2,167.506 12.167,167.147C12.083,167.067 12.061,167.367 11.9,167.335C11.94,167.139 11.957,167.018 11.824,166.921C12.035,166.35 12.258,165.895 12.587,165.383C12.454,165.404 12.295,165.719 12.168,165.87C12.213,165.514 12.632,165.202 12.703,164.744C12.63,164.64 12.533,164.56 12.474,164.444C12.406,164.476 12.411,164.611 12.321,164.52C12.262,164.279 12.18,164.057 12.131,163.806C12.011,163.814 12.126,164.051 11.978,164.032C11.928,163.868 11.915,163.669 11.902,163.469C11.813,163.679 11.889,164.057 11.673,164.144C11.673,163.981 11.673,163.818 11.673,163.656C11.496,163.645 11.705,164.012 11.521,163.993C11.506,163.734 11.455,163.58 11.521,163.281C11.387,163.386 11.423,163.659 11.369,163.843C11.24,163.649 11.389,163.226 11.369,162.906C11.117,162.932 11.182,163.272 11.101,163.469C10.969,163.098 11.273,162.836 11.216,162.417C11.048,162.566 11.094,162.924 10.987,163.13C10.924,162.5 11.26,162.138 11.331,161.553C11.119,161.708 11.162,162.113 10.95,162.268C11.121,161.751 11.112,161.489 11.37,161.028C10.92,161.224 10.924,161.865 10.569,162.154C10.766,161.623 11.027,161.153 11.293,160.69C11.365,160.695 11.421,160.714 11.446,160.764C11.731,160.408 12.057,160.09 12.247,159.639C12.007,159.716 11.91,159.932 11.827,160.164C11.618,160.061 11.586,160.35 11.483,160.464C11.434,160.299 11.337,160.375 11.216,160.426C11.368,160.137 11.726,160.051 11.826,159.712C11.627,159.73 11.573,159.889 11.445,159.975C11.491,159.733 11.903,159.525 12.055,159.263C11.985,159.172 11.851,159.334 11.788,159.376C11.72,159.195 12.094,159.127 12.094,158.887C11.856,158.867 11.669,159.22 11.446,159.337C11.446,159.087 11.925,158.984 12.018,158.7C11.736,158.742 11.722,159.095 11.37,158.962C11.57,158.671 11.836,158.445 12.018,158.135C11.762,158.146 11.775,158.422 11.561,158.474C11.768,158.279 11.712,157.974 11.942,157.648C12.13,157.38 12.365,157.382 12.323,157.086C12.374,156.924 12.142,157.039 12.171,156.897C12.285,156.771 12.435,156.681 12.514,156.522C12.264,156.467 11.978,156.888 11.713,156.822C11.882,156.525 12.437,156.608 12.552,156.258C12.711,156.431 12.91,156.187 13.01,156.07C12.959,156.011 12.848,156.21 12.705,156.184C12.988,155.798 13.567,155.705 13.849,155.319C13.786,155.269 13.626,155.349 13.467,155.319C14.004,155.172 14.424,154.909 14.956,154.756C15.057,154.669 14.854,154.657 14.956,154.57C15.124,154.619 15.383,154.684 15.566,154.607C15.612,154.407 15.421,154.298 15.527,154.157C15.922,154.131 15.846,154.568 16.176,154.607C16.335,154.614 16.294,154.423 16.481,154.457C16.477,154.551 16.41,154.573 16.481,154.645C16.575,154.538 16.523,154.285 16.595,154.158C16.755,154.376 16.858,154.65 17.016,154.87C17.18,154.813 16.997,154.635 17.053,154.457C17.243,154.306 17.32,153.886 17.625,153.968C17.661,153.903 17.624,153.766 17.739,153.781C17.68,153.97 17.798,154.006 17.739,154.194C17.848,154.249 18.093,153.917 18.197,153.968C18.231,154.099 18.138,154.097 18.083,154.044C18,154.247 17.981,154.524 18.083,154.72C18.295,154.614 18.056,154.242 18.235,154.157C18.355,154.2 18.24,154.292 18.273,154.457C18.445,154.451 18.35,154.183 18.541,154.194C18.524,154.273 18.567,154.292 18.579,154.344C18.689,154.327 18.698,154.212 18.846,154.231C18.916,154.441 18.912,154.498 18.846,154.72C18.95,154.572 19.088,154.457 19.113,154.231C19.263,154.197 19.141,154.429 19.228,154.457C19.299,154.452 19.356,154.432 19.38,154.384C19.552,154.462 19.608,154.659 19.724,154.794C19.9,154.706 19.958,154.501 20.181,154.457C20.093,154.594 19.976,154.706 19.876,154.832C19.954,154.872 20.053,154.815 20.066,154.983C20.375,155.016 20.84,154.928 21.134,155.133C21.252,155.215 21.256,155.42 21.364,155.508C21.791,155.851 22.51,155.424 23.004,155.884C23.245,155.796 23.436,155.658 23.615,155.508C23.562,155.298 23.415,155.179 23.386,154.945C23.615,154.807 23.641,154.47 23.73,154.194C23.979,154.174 23.916,154.462 23.997,154.607C24.099,154.756 24.32,154.79 24.303,155.058C25.79,154.466 26.534,153.221 28.424,152.993C29.244,152.894 30.236,152.743 30.865,152.317C31.288,152.032 31.544,151.587 31.857,151.229C31.894,150.754 31.571,150.437 31.514,149.952C31.469,149.565 31.684,149.217 31.629,148.901C31.594,148.704 31.359,148.585 31.323,148.488C31.146,148.017 31.43,147.416 31.666,147.213C32.027,146.901 32.564,146.782 32.887,146.462C33.053,146.409 32.968,146.607 33.116,146.573C33.218,146.423 32.972,146.292 33.002,146.086C33.341,146.07 33.443,145.819 33.65,145.673C33.8,145.7 33.833,145.842 33.916,145.936C34.138,145.889 33.993,145.713 34.145,145.598C34.234,145.598 34.257,145.664 34.374,145.637C34.432,145.742 34.467,145.871 34.45,146.05C34.564,146.144 34.695,146.026 34.794,146.088C34.856,146.567 35.206,146.758 35.214,147.289C36.252,147.815 37.053,148.769 37.198,150.143C37.316,151.263 36.302,152.189 35.749,152.696C35.724,152.835 35.645,152.919 35.672,153.11C35.491,153.408 35.227,153.505 35.329,154.011C35.639,154.096 35.784,153.978 36.016,154.047C36.535,154.776 36.89,155.476 36.893,156.637C36.894,157.054 36.755,157.366 36.625,157.725C36.29,158.652 35.93,159.648 35.48,160.315C35.463,160.697 35.545,160.978 35.709,161.18C36.254,161.054 36.619,161.333 37.083,161.217C37.458,161.122 37.7,160.647 38.112,160.502C38.589,160.334 38.999,160.524 39.409,160.841C39.83,160.763 39.919,159.442 39.295,159.527C39.273,159.221 39.222,158.792 39.257,158.552C39.019,158.694 39.09,159.139 38.799,159.227C38.655,159.218 38.593,159.129 38.608,158.964C38.709,158.964 38.825,158.979 38.875,158.927C38.98,158.616 39,158.222 39.295,158.1C39.313,157.886 39.254,157.802 39.295,157.65C39.576,157.469 40.423,157.483 40.707,157.65C40.695,157.957 40.758,158.229 41.012,158.439C41.012,158.565 41.012,158.689 41.012,158.815C41.049,158.928 41.235,158.896 41.317,158.964C41.231,159.621 40.682,159.012 40.783,158.589C40.741,158.908 40.762,159.227 40.631,159.527C39.898,159.534 40.171,160.569 40.364,160.879C40.794,160.944 41.282,160.952 41.699,161.029C41.788,161.197 41.617,161.453 41.775,161.593C42.035,161.593 42.206,161.673 42.347,161.517C43.476,161.78 44.902,161.925 46.086,162.269C46.657,162.433 47.415,162.602 47.879,162.793C48.299,162.966 48.608,163.224 48.833,163.581C48.827,163.788 48.859,164.006 48.756,164.145C48.226,164.855 46.814,165.04 45.857,165.195C45.068,165.324 44.174,165.564 43.3,165.646C42.215,165.75 41.182,165.796 40.325,165.871C40.238,166.448 39.859,166.739 39.333,166.885C39.044,167.313 38.635,167.625 37.998,167.711C37.975,167.803 37.943,167.883 37.96,168.012C38.293,168.241 38.688,168.357 38.647,168.801C38.611,169.179 38.219,169.321 37.922,169.513C37.84,170.535 38.684,170.86 39.296,171.427C39.507,171.624 39.762,172.019 39.831,172.292C39.992,172.937 39.713,173.471 39.487,174.02C39.148,174.322 38.789,174.609 38.458,174.92C38.573,175.119 38.759,175.25 38.839,175.483C38.778,175.936 38.092,175.775 38.228,176.422C38.471,176.718 39.083,176.477 39.525,176.458C40.744,176.408 41.507,176.965 42.348,177.51C42.868,178.142 43.292,178.755 43.492,179.761C43.649,180.549 43.747,181.503 44.637,181.751C44.68,181.763 44.857,181.801 44.942,181.788C45.085,181.767 45.228,181.476 45.438,181.487C45.752,181.506 45.752,181.846 45.667,182.276C45.939,182.433 46.242,182.519 46.315,182.8C46.501,183.518 45.62,183.861 45.667,184.528C45.33,184.797 44.975,184.913 44.484,184.716C44.389,184.516 44.177,184.153 44.407,183.963C44.296,183.623 43.856,183.606 43.606,183.401C42.879,183.378 42.653,182.862 42.461,182.312C42.23,182.361 42.088,182.494 41.851,182.538C41.789,182.486 41.73,182.432 41.66,182.386C41.666,181.461 42.002,180.242 41.279,179.684C40.802,179.318 39.875,179.009 39.562,179.684C39.212,179.878 38.81,179.78 38.608,179.535C38.54,179.568 38.49,179.619 38.456,179.684C38.944,180.329 38.495,180.96 37.807,181.15C37.921,181.723 37.394,181.96 37.006,182.163C37.023,182.432 36.86,182.519 36.701,182.613C36.746,183.379 35.645,183.358 35.785,182.539C35.714,182.394 35.505,182.39 35.442,182.238C35.468,182.02 35.489,181.945 35.328,181.863C34.942,182.547 35.336,183.861 35.251,184.603C35.196,185.091 34.946,185.373 34.716,185.767C35.014,186.796 34.113,187.2 33.877,187.944C33.469,188.209 32.724,188.293 32.732,187.607C32.606,187.395 32.357,187.418 32.198,187.231C31.78,186.741 32.094,185.894 32.541,185.617C32.441,185.135 32.611,184.75 32.96,184.603C33.093,184.574 33.107,184.659 33.228,184.641C33.284,184.62 33.324,184.584 33.38,184.565C33.982,184.062 33.568,183.072 33.533,182.087C33.521,181.754 33.595,181.478 33.494,181.224C33.198,181.412 32.926,181.811 32.426,181.674C32.073,182.325 32.814,182.834 33.113,183.214C32.823,183.757 31.653,183.479 31.282,183.214C31.042,182.761 31.054,182.06 30.672,181.75C30.16,181.847 30.101,182.389 29.947,182.838C29.761,182.87 29.694,182.786 29.566,182.762C29.595,182.471 29.861,182.235 29.795,181.863C29.726,181.48 29.189,181.197 29.337,180.472C29.458,179.886 30.108,179.756 30.559,179.346C30.983,178.361 30.958,177.113 31.055,175.855C30.352,176.263 29.577,176.787 28.842,177.32C28.765,177.375 28.696,177.49 28.613,177.544C27.998,177.943 27.116,178.087 26.82,178.784C27.255,179.078 27.322,179.96 26.858,180.285C27.105,180.536 27.164,180.711 27.316,181.149C27.385,181.347 27.5,181.42 27.469,181.75C27.427,182.188 27.112,182.284 26.972,182.688C26.837,183.086 27.062,183.699 26.629,183.7C26.498,183.703 26.428,183.583 26.362,183.513C26.442,183.01 26.43,182.405 26.019,182.275C25.954,182.038 25.989,181.704 25.981,181.411C26.112,181.314 26.251,181.226 26.362,181.111C25.995,180.677 25.95,180.059 26.439,179.722C26.278,179.417 25.97,179.256 25.943,178.821C25.274,178.869 25.193,179.509 24.913,180.022C24.79,180.249 24.618,180.457 24.493,180.699C24.369,180.939 24.285,181.214 24.15,181.449C23.866,181.943 23.423,182.336 23.196,182.8C23.168,183.389 23.263,183.63 23.272,184.19C22.982,184.502 22.5,184.235 22.242,184.078C21.832,184.426 21.708,185.055 21.021,185.129C20.301,184.827 19.317,185.664 18.693,185.992C17.845,186.439 16.897,186.829 15.832,187.006C15.179,187.116 14.73,187.43 14.001,187.457C12.909,187.682 11.225,188.124 10.186,187.569C10.355,187.177 10.848,187.116 11.178,186.931C11.842,186.562 12.33,186.202 12.933,185.73C13.181,185.535 13.622,185.305 13.734,185.054C13.865,184.758 13.887,184.514 14.04,184.303C14.412,183.786 15.063,183.232 15.604,182.8C16.477,182.107 17.528,181.584 18.542,180.924C18.944,180.869 19.081,180.554 19.419,180.435C19.474,180.428 19.432,180.325 19.495,180.324C19.764,180.191 20.076,180.095 20.373,179.91C20.607,178.901 21.101,178.149 21.517,177.321C21.262,176.762 21.98,176.731 21.822,176.045C21.989,175.772 22.375,175.712 22.623,175.518C22.686,175.192 22.709,174.827 22.967,174.693C22.8,174.531 22.399,174.601 22.241,174.43C22.099,174.158 22.235,173.797 22.394,173.605C22.333,173.475 22.209,173.409 22.165,173.266C22.072,173.451 21.955,173.61 21.745,173.68C21.469,173.201 21.78,172.144 21.516,171.653C21.497,172.49 21.321,173.047 21.478,173.868C20.93,173.586 21.529,172.31 21.287,171.615C21.137,172.309 21.175,173.261 21.058,173.942C20.704,173.195 21.301,172.136 20.982,171.465C20.805,171.957 20.894,172.96 20.867,173.68C20.779,173.72 20.574,173.757 20.524,173.716C20.326,173.012 20.602,172.181 20.448,171.39C20.211,171.48 20.363,171.747 20.372,171.915C20.4,172.432 20.328,173.043 20.411,173.566C20.286,173.712 19.918,173.656 19.915,173.454C19.774,173.499 20.007,173.68 19.876,173.715C19.708,173.761 19.602,173.652 19.456,173.605C19.442,172.745 19.396,172.113 19.418,171.352C19.312,171.642 19.355,172.105 19.341,172.553C19.328,172.984 19.414,173.423 19.265,173.68C19.176,173.642 19.142,173.55 19.151,173.416C19.018,173.485 19.106,173.772 18.96,173.829C18.792,173.447 18.943,172.963 18.922,172.591C18.73,172.853 18.935,173.507 18.807,173.829C18.731,173.829 18.654,173.829 18.578,173.829C18.476,173.878 18.514,174.066 18.425,174.131C18.861,174.622 18.545,175.392 18.12,175.669C18.686,176.04 18.249,176.89 17.853,177.17C18.367,177.554 17.981,178.064 17.738,178.483C17.841,178.623 17.788,178.77 17.853,178.897C17.961,179.11 18.211,179.184 18.234,179.421C18.285,179.932 17.832,179.912 17.624,180.21C17.464,180.439 17.583,180.689 17.395,180.924C17.3,180.954 17.192,180.972 17.052,180.961C16.806,180.804 16.936,180.389 16.938,180.06C16.621,179.826 16.526,179.247 16.938,179.048C16.882,178.577 17.057,178.338 17.282,178.146C17.15,177.808 16.996,177.693 17.053,177.358C17.111,177.018 17.605,176.833 17.625,176.607C17.647,176.363 17.248,176.192 17.282,175.856C17.311,175.561 17.639,175.467 17.739,175.144C17.589,174.942 17.441,174.738 17.358,174.468C17.456,174.089 17.898,174.049 18.006,173.68C17.937,173.499 17.721,173.46 17.625,173.304C17.566,172.671 17.996,172.519 18.235,172.178C18.127,172.053 18.014,172.164 17.892,172.065C17.53,171.712 17.819,171.194 18.121,170.976C18.099,170.624 17.875,170.467 17.739,170.226C17.659,169.633 17.837,169.057 17.815,168.499C17.806,168.26 17.677,168.057 17.701,167.862C17.733,167.604 17.955,167.467 18.045,167.26C17.923,166.912 17.307,166.589 17.778,166.209C17.667,165.81 17.317,165.739 17.053,165.57C17.18,166.021 17.113,166.663 17.396,166.959C17.195,166.995 17.186,166.518 16.977,166.434C16.935,166.701 17.072,166.79 17.091,166.997C17.003,167.009 17.049,166.89 16.977,166.885C16.819,167.239 17.321,167.565 17.588,167.75C17.531,167.89 17.525,167.862 17.549,168.049C17.346,168.023 17.305,167.84 17.053,167.862C17.209,168.158 17.406,168.572 17.358,169.138C17.303,169.117 17.265,169.08 17.244,169.025C17.098,169.225 17.106,169.441 17.129,169.74C17.041,169.891 16.84,169.929 16.9,170.226C16.82,170.309 16.777,170.223 16.709,170.189C16.596,170.264 16.605,170.462 16.48,170.526C16.116,170.458 16.158,169.937 16.29,169.664C16.124,169.677 16.201,169.926 16.099,170.001C15.937,169.906 16.122,169.6 16.176,169.476C15.96,169.465 16.166,169.364 16.176,169.175C16.025,169.19 16,169.329 15.908,169.401C15.885,169.537 16.024,169.512 16.023,169.627C15.821,169.866 15.799,170.281 15.603,170.526C15.832,170.903 15.756,171.127 15.908,171.54C15.761,171.573 15.772,171.448 15.679,171.427C15.676,171.744 15.662,172.071 15.756,172.292C15.694,172.302 15.69,172.256 15.641,172.255C15.581,172.578 15.508,173.058 15.183,173.231C15.235,173.383 15.25,173.38 15.221,173.568C15.113,173.675 15.166,173.432 14.992,173.494C14.95,173.597 14.932,173.705 15.107,173.682C15.02,173.98 14.652,173.563 14.611,173.718C14.524,173.656 14.673,173.508 14.649,173.381C14.592,173.322 14.478,173.339 14.497,173.457C14.417,173.425 14.456,173.196 14.497,173.156C14.377,173.093 14.34,173.296 14.306,173.195C14.271,173.022 14.402,173.012 14.383,172.857C14.276,172.85 14.273,172.948 14.268,173.044C14.162,172.887 14.331,172.68 14.345,172.517C14.336,172.471 14.231,172.47 14.23,172.517C14.306,172.055 14.638,171.521 14.688,170.905C14.505,171.187 14.31,171.557 14.383,171.881C14.239,171.936 14.31,171.777 14.193,171.805C14.104,171.844 14.07,171.935 14.078,172.068C14.019,171.936 13.937,172.06 13.774,172.032C13.753,171.886 13.842,171.847 13.812,171.695C13.734,171.73 13.729,171.838 13.735,171.956C13.588,171.833 13.728,171.73 13.697,171.43C13.61,171.508 13.565,171.627 13.583,171.805C13.464,171.739 13.562,171.691 13.544,171.543C13.479,171.542 13.445,171.571 13.429,171.619C13.356,171.537 13.482,171.326 13.465,171.169ZM33.914,146.392C33.978,146.392 34.041,146.392 34.105,146.392C34.122,146.263 34.094,146.179 33.953,146.205C33.92,146.249 33.902,146.305 33.914,146.392ZM34.41,146.617C34.482,146.626 34.494,146.575 34.563,146.579C34.575,146.492 34.557,146.434 34.525,146.391C34.487,146.391 34.448,146.391 34.41,146.391C34.323,146.475 34.348,146.518 34.41,146.617ZM33.838,146.693C33.838,146.717 33.838,146.743 33.838,146.767C33.942,146.764 33.914,146.83 33.99,146.767C33.99,146.743 33.99,146.717 33.99,146.693C33.915,146.631 33.942,146.696 33.838,146.693ZM32.923,154.99C33.12,155.277 33.378,155.744 33.419,156.078C33.479,156.578 33.178,157.233 33.342,157.655C33.5,158.062 33.763,158.422 33.876,158.82C33.957,159.106 33.867,159.406 34.105,159.608C34.949,158.989 35.658,157.469 34.983,156.229C34.629,156.4 34.001,156.745 33.877,156.229C33.745,155.684 34.603,154.854 34.983,154.652C34.983,154.414 34.983,154.177 34.983,153.94C34.519,153.921 34.285,154.493 33.839,154.578C33.302,154.68 33.06,154.194 32.655,153.901C32.312,154.396 32.654,154.599 32.923,154.99ZM35.288,154.464C35.387,154.524 35.668,154.505 35.67,154.352C35.604,154.324 35.28,154.301 35.288,154.464ZM19.15,154.838C19.179,154.789 19.314,154.539 19.15,154.539C19.123,154.631 18.938,154.84 19.15,154.838ZM17.394,154.838C17.382,154.727 17.373,154.611 17.281,154.577C17.281,154.699 17.265,154.843 17.394,154.838ZM19.417,155.103C19.608,155.128 19.655,155.012 19.684,154.876C19.63,154.868 19.62,154.815 19.569,154.8C19.521,154.902 19.399,154.935 19.417,155.103ZM14.648,155.103C14.807,155.045 15.249,155.07 15.182,154.914C15.061,154.943 14.773,154.97 14.648,155.103ZM14.152,155.402C14.176,155.326 14.329,155.378 14.342,155.289C14.229,155.255 14.03,155.328 14.152,155.402ZM35.058,156.078C35.343,156.399 35.481,157.074 35.402,157.806C35.69,157.64 35.783,157.28 35.898,156.942C35.627,156.62 35.484,156.174 35.136,155.929C35.135,156.002 35.031,155.977 35.058,156.078ZM23.957,157.205C23.669,158.102 23.68,159.359 23.69,160.357C24.286,159.617 25.002,158.995 25.216,157.88C24.75,157.7 24.385,157.422 23.957,157.205ZM21.82,158.105C22.122,158.258 21.895,158.869 22.316,158.78C22.34,158.294 22.205,157.964 22.202,157.505C21.779,157.415 21.875,157.834 21.82,158.105ZM12.396,158.218C12.41,158.118 12.657,158.051 12.549,157.954C12.535,158.055 12.29,158.122 12.396,158.218ZM19.951,159.645C19.937,159.883 20.154,159.895 20.142,160.134C20.063,160.243 19.865,160.236 19.799,160.358C19.784,160.671 19.746,160.942 19.951,161.223C20.19,161.547 20.716,161.598 20.752,162.012C20.767,162.173 20.624,162.302 20.637,162.424C20.668,162.705 21.142,162.799 20.981,163.25C21.237,163.202 21.314,162.978 21.477,162.838C21.473,162.528 21.313,162.45 21.286,162.275C21.171,161.537 21.721,161.361 21.782,160.922C21.805,160.755 21.654,160.603 21.705,160.434C21.615,160.31 21.449,160.26 21.362,160.135C21.811,159.434 20.706,159.509 20.636,158.97C20.516,159.3 20.155,159.395 19.951,159.645ZM12.473,159.795C12.572,159.813 12.689,159.663 12.587,159.607C12.554,159.674 12.496,159.716 12.473,159.795ZM30.9,161.598C30.983,161.329 31.205,161.197 31.358,160.996C31.192,160.57 31.489,159.909 31.32,159.607C31.125,159.79 30.973,160.015 30.824,160.244C30.704,160.264 30.69,160.179 30.558,160.207C29.727,160.742 28.818,161.199 28.383,162.122C28.785,162.237 29.078,161.778 29.604,161.784C29.72,161.722 29.768,161.596 29.909,161.558C30.094,161.825 30.523,161.577 30.9,161.598ZM11.634,161.072C11.766,160.987 11.92,160.728 11.863,160.583C11.758,160.719 11.691,160.89 11.634,161.072ZM12.092,161.146C12.116,160.962 12.451,160.709 12.282,160.583C12.279,160.806 11.981,160.937 12.092,161.146ZM37.539,161.222C37.786,161.252 38.048,161.27 38.34,161.258C38.442,161.158 38.453,160.968 38.569,160.883C38.725,160.885 38.882,160.891 38.988,160.846C38.522,160.407 37.811,160.836 37.539,161.222ZM34.982,161.185C35.09,161.23 35.217,161.23 35.326,161.185C35.368,161.031 35.324,160.966 35.287,160.809C35.083,160.833 35,160.976 34.982,161.185ZM11.672,161.559C11.648,161.396 11.858,161.269 11.749,161.146C11.719,161.256 11.589,161.463 11.672,161.559ZM18.196,161.635C17.928,161.772 17.651,161.899 17.661,162.31C17.777,162.448 17.937,162.539 17.967,162.76C17.845,162.892 17.778,163.076 17.586,163.135C17.875,163.422 18.346,163.797 17.929,164.262C18.326,164.406 18.359,165.028 18.005,165.238C18.501,165.335 18.397,165.919 18.159,166.215C18.427,166.365 18.685,166.545 18.654,166.89C18.806,166.914 18.808,166.79 18.959,166.815C18.979,166.553 19.156,166.529 19.188,166.363C19.27,165.944 18.956,165.755 18.806,165.388C18.48,164.584 19.567,164.406 19.302,163.661C18.955,163.669 18.665,163.738 18.54,163.474C18.823,163.212 19.205,162.98 19.15,162.572C19.123,162.37 18.877,162.254 18.73,162.083C18.485,161.797 18.357,161.458 18.196,161.257C18.196,161.385 18.196,161.509 18.196,161.635ZM11.367,162.798C11.581,162.595 11.629,162.029 11.634,161.747C11.542,162.095 11.32,162.313 11.367,162.798ZM11.71,162.536C11.754,162.39 11.912,162.159 11.786,161.972C11.74,162.115 11.604,162.367 11.71,162.536ZM16.937,163.624C16.904,163.269 17.033,162.754 16.784,162.61C16.766,162.873 16.825,163.368 16.937,163.624ZM12.13,163.511C12.114,163.197 12.291,163.069 12.282,162.761C12.21,162.756 12.256,162.636 12.168,162.648C12.12,162.876 12.034,163.267 12.13,163.511ZM12.396,163.325C12.444,163.205 12.519,163.004 12.358,162.949C12.408,163.113 12.261,163.299 12.396,163.325ZM17.166,164.9C17.224,165.129 17.14,165.322 17.394,165.35C17.391,165.173 17.569,165.173 17.586,165.013C17.253,164.758 17.11,164.447 17.433,164.074C17.272,163.995 17.123,163.903 16.975,163.812C16.953,163.878 17.02,164.033 16.937,164.038C16.919,163.941 16.883,163.865 16.823,163.812C16.765,164.21 17.061,164.483 17.166,164.9ZM12.703,164.414C12.707,164.232 12.704,164.06 12.626,163.961C12.666,164.097 12.54,164.396 12.703,164.414ZM17.014,164.787C16.99,164.647 16.967,164.507 16.823,164.488C16.856,164.616 16.903,164.735 17.014,164.787ZM16.517,165.126C16.468,164.955 16.581,164.844 16.403,164.787C16.388,164.829 16.35,165.146 16.517,165.126ZM16.632,166.064C16.709,165.9 16.591,165.639 16.441,165.576C16.411,165.831 16.505,165.962 16.632,166.064ZM12.168,166.403C12.35,166.267 12.55,165.954 12.511,165.728C12.41,165.964 12.262,166.156 12.168,166.403ZM32.35,166.29C32.504,166.57 32.898,166.741 33.152,167.002C33.636,167.504 34.614,168.775 34.678,169.593C34.716,170.066 34.481,170.291 34.411,170.719C34.314,171.302 34.14,171.632 34.105,172.07C34.579,171.097 35.763,170.824 35.937,169.555C35.494,169.404 34.998,169.312 34.946,168.88C34.865,168.227 35.605,168.178 35.861,167.716C35.167,167.524 34.553,167.251 34.297,166.629C34.168,166.594 34.018,166.578 33.878,166.554C33.609,166.407 33.628,165.993 33.611,165.839C33.071,165.771 32.226,165.815 31.627,165.728C31.769,166.01 32.073,166.135 32.35,166.29ZM16.632,167.191C16.694,167.13 16.678,166.954 16.555,166.965C16.556,167.065 16.534,167.187 16.632,167.191ZM13.58,167.528C13.668,167.629 13.682,167.428 13.771,167.528C13.758,167.581 13.717,167.601 13.732,167.679C13.85,167.682 13.846,167.565 13.847,167.453C13.664,167.509 13.811,167.238 13.656,167.266C13.614,167.336 13.607,167.442 13.58,167.528ZM16.25,167.978C16.407,167.907 16.488,167.762 16.518,167.566C16.467,167.566 16.416,167.566 16.365,167.566C16.351,167.727 16.275,167.828 16.25,167.978ZM13.122,168.13C13.174,168.042 13.193,167.725 13.122,167.641C13.13,167.788 13.014,168.008 13.122,168.13ZM13.961,168.204C14.168,168.25 14.194,167.981 14.114,167.867C13.881,167.817 13.9,168.072 13.961,168.204ZM16.021,168.504C16.16,168.527 16.17,168.426 16.174,168.317C16.054,168.31 16.043,168.414 16.021,168.504ZM12.587,168.616C12.758,168.646 12.713,168.384 12.625,168.354C12.573,168.403 12.588,168.519 12.587,168.616ZM13.809,168.581C13.934,168.578 13.954,168.474 13.961,168.354C13.923,168.354 13.885,168.354 13.847,168.354C13.802,168.398 13.803,168.488 13.809,168.581ZM13.847,168.88C13.874,168.682 14.201,168.578 14.114,168.393C14.047,168.553 13.799,168.731 13.847,168.88ZM12.969,168.729C12.968,168.629 12.99,168.508 12.893,168.504C12.916,168.582 12.831,168.766 12.969,168.729ZM14.572,168.88C14.547,168.779 14.556,168.646 14.496,168.581C14.508,168.727 14.39,168.854 14.572,168.88ZM16.174,168.956C16.217,168.986 16.277,169.005 16.363,168.993C16.363,168.904 16.363,168.817 16.363,168.73C16.236,168.741 16.213,168.855 16.174,168.956ZM12.664,169.068C12.785,169.115 12.785,168.757 12.664,168.806C12.664,168.892 12.664,168.979 12.664,169.068ZM16.86,169.218C16.816,169.099 16.83,168.921 16.708,168.88C16.734,169.017 16.7,169.213 16.86,169.218ZM14.038,169.48C14.188,169.464 14.335,169.25 14.228,169.105C14.142,169.207 14.06,169.314 14.038,169.48ZM13.58,169.48C13.628,169.401 13.775,169.224 13.694,169.143C13.668,169.244 13.488,169.388 13.58,169.48ZM14.8,169.782C14.8,169.669 14.804,169.553 14.686,169.555C14.706,169.648 14.685,169.783 14.8,169.782ZM14.038,169.931C14.191,169.979 14.184,169.679 14.114,169.632C14.07,169.713 14.015,169.785 14.038,169.931ZM16.593,170.005C16.576,169.865 16.738,169.667 16.593,169.631C16.563,169.773 16.469,169.9 16.593,170.005ZM14.304,171.059C14.441,171.065 14.513,170.815 14.457,170.757C14.373,170.824 14.28,170.884 14.304,171.059ZM14.954,171.322C15.065,171.341 15.156,171.149 15.068,171.095C15.002,171.144 14.963,171.218 14.954,171.322ZM19.188,171.322C19.179,171.291 19.156,171.278 19.111,171.283C19.039,171.612 19.17,171.951 19.188,171.322ZM19.684,173.46C19.758,172.817 19.714,171.995 19.723,171.395C19.684,171.395 19.646,171.395 19.608,171.395C19.62,172.12 19.581,172.903 19.684,173.46ZM19.875,172.108C20,172.057 20,171.519 19.875,171.47C19.878,171.703 19.953,171.898 19.875,172.108ZM14.648,171.771C14.749,171.8 14.88,171.569 14.724,171.583C14.73,171.678 14.664,171.698 14.648,171.771ZM20.714,172.221C20.645,171.992 20.875,171.693 20.676,171.582C20.633,171.736 20.582,172.125 20.714,172.221ZM20.179,173.46C20.185,173.133 20.242,172.5 20.103,172.259C20.117,172.659 19.962,173.188 20.179,173.46ZM21.896,173.347C21.872,173.209 21.945,172.974 21.858,172.896C21.805,173.051 21.82,173.266 21.896,173.347ZM33.8,173.198C33.637,173.365 33.709,173.604 33.647,173.834C33.412,174.704 32.962,175.802 32.654,176.838C32.447,177.533 32.242,178.424 32.235,179.054C32.233,179.261 32.213,179.59 32.425,179.69C33.008,179.618 32.834,178.855 32.959,178.302C33.103,177.676 33.588,177.143 33.951,176.801C34.311,176.573 34.681,176.493 35.096,176.388C35.367,175.894 34.679,175.725 34.638,175.373C34.598,175.02 34.874,174.914 35.057,174.622C34.903,174.381 34.561,174.202 34.333,173.91C34.15,173.677 34.136,173.353 33.875,173.198C33.85,173.198 33.825,173.198 33.8,173.198Z"/>
    </g>
</svg>
