<?xml version="1.0" encoding="UTF-8" standalone="no"?>
<!DOCTYPE svg PUBLIC "-//W3C//DTD SVG 1.1//EN" "http://www.w3.org/Graphics/SVG/1.1/DTD/svg11.dtd">
<svg width="100%" height="100%" viewBox="0 0 56 32" version="1.1" xmlns="http://www.w3.org/2000/svg" xmlns:xlink="http://www.w3.org/1999/xlink" xml:space="preserve" xmlns:serif="http://www.serif.com/" style="fill-rule:evenodd;clip-rule:evenodd;stroke-linejoin:round;stroke-miterlimit:1.41421;">
    <g transform="matrix(1,0,0,1,-291.972,-102.862)">
        <path d="M304.032,116.212C303.784,115.958 304.189,115.693 304.26,115.444C304.079,115.243 303.754,115.185 303.531,115.023C302.988,115.175 302.534,115.411 302.048,115.618C301.931,115.528 301.923,115.33 301.872,115.173C301.486,115.261 301.071,115.324 300.666,115.394C301.01,116.689 301.22,118.15 301.295,119.623C301.344,120.594 301.357,121.554 301.345,122.49C301.34,122.834 301.235,123.229 301.295,123.629C300.929,123.488 300.444,123.348 300.014,123.356C299.833,123.637 299.778,124.03 299.687,124.419C299.629,124.669 299.428,124.83 299.309,125.086C299.105,125.526 299.083,126.396 299.208,126.966C299.294,127.354 299.313,127.823 299.284,128.177C299.262,128.468 299.336,128.777 299.308,129.092C299.276,129.507 299.181,129.927 299.182,130.353C299.186,131.019 299.189,131.849 299.635,132.184C299.771,132.285 299.97,132.287 300.087,132.382C300.15,132.432 300.157,132.524 300.214,132.579C300.235,132.601 300.303,132.576 300.339,132.603C300.36,132.619 300.344,132.688 300.363,132.704C300.652,132.917 301.021,133.077 301.419,133.172C301.507,133.305 301.538,133.435 301.545,133.593C301.46,133.638 301.314,133.565 301.167,133.593C301.26,133.709 301.396,133.832 301.344,133.989C301.264,134.239 300.654,134.096 300.489,134.014C300.349,134.069 300.142,134.085 300.038,133.989C299.366,134.161 299.332,133.5 298.706,133.544C298.632,133.769 298.805,133.995 298.606,134.113C298.396,134.121 298.22,134.097 298.052,134.063C298.037,134.027 298.013,134.004 297.977,133.989C297.998,133.568 297.695,133.342 297.776,132.95C297.824,132.724 298.056,132.568 298.079,132.356C298.092,132.201 298.05,131.969 298.028,131.738C297.994,131.388 297.882,130.963 297.8,130.551C297.753,130.304 297.745,130.043 297.675,129.858C297.603,129.667 297.437,129.538 297.349,129.364C297.187,129.046 297.023,128.668 296.972,128.325C296.909,127.909 296.98,127.49 297.023,127.039C297.048,126.765 297.044,126.49 297.098,126.224C297.13,126.068 297.308,125.905 297.122,125.754C297.147,125.172 297.035,124.416 296.922,123.727C296.874,123.435 296.816,123.021 296.744,122.911C296.584,122.66 296.149,122.771 295.866,122.712C295.462,122.592 294.429,122.541 293.781,122.614C293.551,122.639 293.193,122.737 293.127,122.442C293.092,122.285 293.255,122.125 293.202,121.971C293.015,121.805 292.665,121.964 292.424,121.971C292.25,121.846 292.298,121.723 292.348,121.502C292.271,121.405 292.058,121.455 291.972,121.428C291.969,121.3 292.009,121.216 292.047,121.131C292.065,121.055 292.003,121.058 292.023,120.983C292.469,119.795 293.057,118.792 293.63,117.769C293.94,117.218 294.192,116.647 294.534,116.137C294.687,115.908 294.895,115.715 295.061,115.494C295.312,115.161 295.496,114.776 295.741,114.455C296.08,114.008 296.485,113.571 296.922,113.169C297.142,112.967 297.395,112.882 297.449,112.551C297.846,112.044 298.109,111.404 298.454,110.844C298.703,109.633 299.286,108.747 299.888,107.88C299.763,107.695 299.501,107.709 299.485,107.433C299.469,107.181 299.714,106.631 299.988,106.445C300.134,106.346 300.303,106.394 300.389,106.272C300.38,106.134 300.201,106.16 300.162,106.05C300.199,105.55 300.432,105.243 300.539,104.814C300.746,104.817 300.759,105.009 300.866,105.109C300.944,104.528 300.925,104.04 301.242,103.576C301.561,103.115 302.405,102.657 303.278,102.959C303.502,103.036 303.859,103.183 303.981,103.306C304.101,103.425 304.109,103.596 304.182,103.749C304.29,103.978 304.665,104.387 304.409,104.79C304.509,105.079 304.619,105.357 304.711,105.656C304.654,105.723 304.505,105.7 304.409,105.729C304.409,105.924 304.332,106.132 304.056,106.051C303.981,106.143 304.146,106.164 304.132,106.273C303.933,106.547 304.13,106.893 303.905,107.089C303.702,107.267 303.389,107.178 303.126,107.312C302.999,107.377 302.306,107.945 302.447,108.25C302.588,108.55 303.286,108.415 303.452,108.746C303.455,108.847 303.458,108.949 303.428,109.017C303.487,109.164 303.596,109.168 303.629,109.288C303.704,109.565 303.389,109.694 303.327,109.955C303.321,110.047 303.405,109.939 303.428,110.03C303.396,110.199 303.449,110.303 303.404,110.451C303.34,110.423 303.414,110.259 303.354,110.229C303.251,110.351 303.049,110.479 303.126,110.698C303.042,110.71 303.052,110.624 303.001,110.599C302.734,110.646 302.803,110.893 302.75,111.119C302.802,111.17 302.912,111.067 302.976,111.045C302.967,111.143 302.82,111.145 302.775,111.292C302.74,111.408 302.853,111.545 302.751,111.639C302.682,111.602 302.806,111.471 302.726,111.416C302.643,111.474 302.629,111.602 302.576,111.688C302.713,111.803 302.885,111.787 303.003,111.614C302.99,111.847 302.717,111.827 302.5,111.861C302.504,111.89 302.495,111.904 302.476,111.911C302.493,112.091 302.583,112.2 302.677,112.306C303.156,112.177 303.624,112.035 303.958,111.763C304.017,111.763 304.075,111.763 304.134,111.763C304.339,111.626 304.402,111.35 304.535,111.145C304.71,111.158 304.716,111.34 304.712,111.466C304.922,111.308 304.96,111.086 305.215,110.945C305.465,110.808 305.778,110.827 305.993,110.651C306.091,110.568 306.103,110.451 306.245,110.429C306.334,110.728 305.946,110.884 305.741,111.046C306.077,111.054 306.498,111.167 306.821,111.193C307.007,111.21 307.321,111.144 307.375,111.292C307.293,111.459 307.002,111.316 306.897,111.416C307.01,111.621 307.319,111.394 307.451,111.589C307.4,111.805 307.089,111.763 307.023,111.96C306.212,111.945 305.677,112.203 305.038,112.356C305.008,112.523 305.057,112.566 305.038,112.678C305.058,112.781 305.167,112.723 305.215,112.752C305.22,112.885 305.138,112.875 305.19,112.999C305.269,113.049 305.329,113.045 305.365,113.172C306.042,113.277 306.547,113.495 307.3,113.47C307.602,113.589 307.878,113.644 308.205,113.544C308.375,113.491 308.561,113.259 308.707,113.248C308.789,113.241 309.363,113.454 309.436,113.518C309.482,113.56 309.494,113.676 309.537,113.716C309.7,113.811 310.005,113.764 310.19,113.841C310.233,114.17 309.897,114.04 309.738,114.064C309.616,114.779 310.471,114.598 310.818,114.93C310.812,115.096 310.964,115.222 310.918,115.349C310.677,115.258 310.421,115.333 310.164,115.224C310.131,115.212 310.099,115.123 310.064,115.102C309.99,115.057 309.888,115.089 309.812,115.051C309.708,115 309.635,114.858 309.537,114.804C309.461,114.762 309.357,114.767 309.285,114.73C308.994,114.576 308.824,114.315 308.631,114.209C308.354,114.056 307.992,114.123 307.929,114.407C307.861,114.708 308.013,115.001 307.702,115.149C307.686,115.363 307.76,115.515 307.677,115.668C307.61,115.685 307.696,115.552 307.628,115.569C307.552,115.586 307.473,115.6 307.452,115.668C307.452,115.784 307.522,115.716 307.602,115.718C307.382,115.972 307.197,116.258 307.098,116.632C306.934,116.718 306.778,116.812 306.671,116.954C306.583,116.942 306.508,116.917 306.395,116.929C306.289,116.745 306.291,116.376 306.069,116.311C305.556,116.163 304.576,116.036 304.032,116.212ZM306.319,116.41C306.23,116.522 306.345,116.817 306.519,116.83C306.519,116.74 306.519,116.648 306.519,116.557C306.575,116.541 306.599,116.628 306.595,116.533C306.571,116.485 306.483,116.497 306.519,116.335C306.435,116.351 306.288,116.303 306.245,116.361C306.283,116.363 306.331,116.356 306.319,116.41ZM302.601,108.499C302.613,108.421 302.58,108.387 302.5,108.399C302.483,108.482 302.542,108.489 302.601,108.499ZM303.38,108.894C303.465,108.675 303.133,108.664 303.003,108.574C303.098,108.709 303.178,108.863 303.38,108.894ZM302.752,109.042C302.64,109.194 302.757,109.479 302.928,109.513C303.025,109.412 302.811,109.307 302.877,109.241C302.953,109.271 302.944,109.388 303.054,109.388C303.192,109.29 302.905,109.171 302.978,109.066C303.051,109.109 303.042,109.234 303.154,109.24C303.122,109.066 303.03,108.949 302.903,108.868C302.825,108.861 302.966,108.939 302.878,108.942C302.808,108.823 302.71,108.728 302.602,108.646C302.618,108.811 302.7,108.913 302.752,109.042ZM303.103,108.968C303.123,108.876 303.076,108.846 303.003,108.845C302.996,108.924 303.032,108.963 303.103,108.968ZM303.054,109.513C303.21,109.442 303.536,109.416 303.43,109.167C303.265,109.242 303.17,109.387 303.054,109.513ZM303.254,109.857C303.384,109.698 303.587,109.608 303.606,109.338C303.434,109.329 302.947,109.627 303.254,109.857ZM303.003,110.057C303.257,110.001 303.115,109.626 302.952,109.561C302.881,109.732 303.091,109.857 303.003,110.057ZM302.853,110.057C302.963,110.077 302.942,109.895 302.853,109.908C302.853,109.956 302.853,110.007 302.853,110.057ZM303.054,110.451C303.199,110.387 303.379,110.108 303.205,109.955C303.06,110.03 303.071,110.255 303.054,110.451ZM302.853,110.576C303.091,110.558 302.948,110.305 303.003,110.131C302.97,110.131 302.936,110.131 302.902,110.131C302.99,110.336 302.743,110.369 302.853,110.576ZM304.535,111.392C304.546,111.344 304.606,111.347 304.587,111.267C304.51,111.238 304.479,111.373 304.535,111.392ZM304.335,111.712C304.429,111.624 304.661,111.67 304.637,111.465C304.605,111.463 304.601,111.433 304.561,111.44C304.556,111.599 304.381,111.593 304.335,111.712ZM306.873,111.663C306.898,111.579 306.684,111.605 306.671,111.639C306.765,111.621 306.779,111.68 306.873,111.663ZM304.485,112.923C304.505,112.929 304.514,112.944 304.509,112.973C304.646,112.991 304.724,112.954 304.812,112.923C304.791,113.074 305.146,113.11 305.113,112.923C305.065,112.825 304.967,112.959 304.912,112.899C304.97,112.853 305.033,112.81 304.987,112.727C304.766,112.738 304.569,112.775 304.485,112.923ZM307.777,114.234C307.773,114.311 307.776,114.384 307.827,114.407C307.849,114.338 307.887,114.284 307.902,114.209C307.845,114.202 307.806,114.212 307.777,114.234ZM307.602,114.976C307.656,115.022 307.779,114.986 307.802,114.928C307.686,114.884 307.86,114.837 307.827,114.729C307.793,114.721 307.779,114.693 307.725,114.703C307.664,114.774 307.677,114.918 307.602,114.976ZM307.424,115.174C307.511,115.165 307.578,115.144 307.576,115.049C307.474,115.039 307.416,115.076 307.424,115.174ZM307.576,115.371C307.584,115.313 307.663,115.326 307.651,115.249C307.617,115.249 307.595,115.238 307.576,115.223C307.541,115.255 307.486,115.355 307.576,115.371ZM307.35,115.371C307.416,115.38 307.433,115.337 307.424,115.274C307.4,115.274 307.375,115.274 307.35,115.274C307.35,115.305 307.35,115.338 307.35,115.371ZM307.476,115.545C307.572,115.54 307.641,115.509 307.652,115.421C307.558,115.373 307.466,115.423 307.476,115.545ZM307.249,115.569C307.356,115.584 307.425,115.561 307.399,115.445C307.293,115.431 307.224,115.454 307.249,115.569ZM307.148,115.742C307.235,115.804 307.392,115.763 307.375,115.644C307.262,115.639 307.145,115.631 307.148,115.742ZM307.048,116.015C307.215,116.038 307.276,115.959 307.299,115.843C307.183,115.778 307.008,115.844 307.048,116.015ZM306.947,116.385C307.05,116.345 307.053,116.21 307.073,116.089C307.042,116.088 307.038,116.059 306.999,116.065C306.977,116.167 306.949,116.262 306.947,116.385ZM307.148,116.212C307.233,116.212 307.2,116.098 307.249,116.064C307.168,116.067 307.138,116.12 307.148,116.212ZM306.671,116.435C306.617,116.552 306.621,116.668 306.671,116.783C306.834,116.794 306.707,116.598 306.797,116.584C306.8,116.613 306.805,116.642 306.848,116.632C306.926,116.548 306.941,116.35 306.873,116.237C306.797,116.3 306.807,116.508 306.671,116.435ZM300.716,133.544C300.695,133.522 300.557,133.492 300.54,133.544C300.595,133.56 300.696,133.637 300.716,133.544Z"/>
        <path d="M303.907,125.583C303.737,125.594 303.717,125.841 303.856,125.903C303.961,125.934 303.901,125.798 303.958,125.781C304.12,126.271 303.4,125.79 303.832,125.508C303.92,125.45 303.967,125.529 304.058,125.433C303.911,125.204 303.536,125.16 303.304,124.939C303.118,124.762 303.015,124.533 302.877,124.321C302.897,124.196 302.947,124.399 303.028,124.371C302.927,123.794 302.878,123.167 302.676,122.689C302.582,122.674 302.585,122.666 302.448,122.664C302.456,122.856 302.594,123.129 302.625,123.382C302.497,123.209 302.485,122.925 302.397,122.712C302.334,122.629 302.126,122.683 302.123,122.541C302.206,122.369 302.477,122.541 302.575,122.515C302.656,122.245 302.448,121.855 302.349,121.601C302.328,121.605 302.323,121.624 302.298,121.624C302.305,121.764 302.474,122.031 302.273,122.169C302.334,122.063 302.312,121.99 302.298,121.849C302.194,121.914 302.214,122.076 302.222,122.194C302.069,122.118 302.222,121.853 302.172,121.65C302.246,121.505 302.353,121.56 302.549,121.55C302.642,121.546 302.727,121.485 302.8,121.477C302.936,121.464 303.062,121.539 303.203,121.477C303.38,121.398 303.522,120.965 303.681,120.81C303.974,120.515 304.39,120.246 304.735,119.92C305.104,119.57 305.322,119.188 305.564,118.807C305.588,118.617 305.655,118.467 305.764,118.362C305.739,118.138 305.854,118.052 305.942,117.941C306.22,117.907 306.332,118.035 306.494,118.113C306.677,118.584 306.181,118.74 306.142,119.152C305.809,119.434 305.731,119.918 305.639,120.587C305.609,120.81 305.438,121.194 305.489,121.354C305.565,121.594 305.933,121.44 306.067,121.601C306.039,121.664 305.945,121.664 305.965,121.775C306.043,121.864 306.111,121.736 306.167,121.725C306.145,121.876 306.036,121.942 306.066,122.145C305.949,122.145 306.066,121.913 305.991,121.874C305.998,121.959 305.888,121.882 305.916,121.874C305.718,121.932 305.665,122.476 305.665,122.69C305.874,122.732 305.795,122.488 305.991,122.516C305.942,122.885 305.82,123.385 305.715,123.777C305.72,123.51 305.808,123.11 305.891,122.839C305.83,122.749 305.7,122.88 305.564,122.863C305.484,123.502 305.179,124.049 305.162,124.669C305.007,124.927 304.766,125.103 304.484,125.237C304.562,125.074 304.799,125.071 304.86,124.892C304.434,124.91 303.981,124.958 303.58,124.99C303.684,125.271 304.262,125.171 304.334,125.46C304.366,125.595 304.252,125.653 304.284,125.856C304.425,125.772 304.425,125.548 304.559,125.46C305.118,125.383 304.708,126.216 304.534,125.83C304.569,125.737 304.722,125.89 304.785,125.756C304.753,125.673 304.739,125.57 304.66,125.533C304.3,125.599 304.42,126.137 304.284,126.423C304.506,127.547 305.19,128.217 305.54,129.218C305.783,127.475 305.801,125.828 306.143,124.273C306.305,123.54 306.544,122.851 306.747,122.147C306.794,121.985 306.768,121.796 306.821,121.578C306.909,121.22 307.089,120.874 307.173,120.516C307.786,120.442 308.634,120.463 309.335,120.442C309.327,120.136 308.922,120.223 308.857,119.971C308.929,119.877 309.001,120.01 309.159,119.971C309.152,119.739 308.951,119.697 308.833,119.576C309.195,119.582 309.481,119.791 309.862,119.7C309.787,119.544 309.576,119.519 309.611,119.255C309.811,119.23 309.885,119.33 310.011,119.377C310.409,119.479 311.204,119.573 311.646,119.305C311.963,119.79 312.799,119.437 313.278,119.305C313.655,119.563 314.318,119.464 314.811,119.377C314.806,119.638 314.523,119.835 314.384,120.045C314.538,120.069 314.715,119.976 314.938,120.119C314.94,120.379 314.547,120.247 314.51,120.466C315.103,120.479 316.098,120.621 316.419,120.194C316.389,120.046 316.41,119.992 316.394,119.823C316.093,119.633 315.781,119.479 315.54,119.229C315.471,119.157 315.434,119.045 315.364,118.982C315.284,118.909 315.154,118.911 315.138,118.784C315.657,118.838 316.33,118.855 316.971,118.784C316.897,118.405 316.786,118.06 316.594,117.796C316.37,117.888 316.295,118.128 316.017,118.167C315.888,117.759 316.24,117.613 316.393,117.401C316.209,117.128 315.972,116.909 315.664,116.758C315.348,116.75 315.249,117.246 315.539,117.3C315.695,117.291 315.602,117.032 315.815,117.077C315.816,117.263 315.884,117.389 315.865,117.597C315.846,117.795 315.945,118.142 315.715,118.14C315.51,117.96 315.666,117.633 315.564,117.424C315.399,117.332 315.24,117.233 315.288,116.93C315.349,116.784 315.542,116.769 315.564,116.585C315.983,116.749 316.171,117.141 316.518,117.375C316.321,117.164 316.101,116.722 316.267,116.312C316.54,116.383 316.483,116.777 316.62,116.979C317.218,116.899 316.228,116.191 316.695,116.039C316.951,115.958 316.991,116.198 317.097,116.362C317.16,116.107 316.759,115.897 316.946,115.595C316.983,115.597 317.018,115.599 317.022,115.57C317.267,115.659 317.356,115.901 317.501,116.09C317.635,115.882 317.314,115.548 317.323,115.224C317.366,115.112 317.458,115.024 317.399,114.879C318.001,114.902 318.114,114.313 318.756,114.459C319.033,114.662 319.086,115.09 319.359,115.299C319.529,115.207 319.657,115.226 319.836,115.151C319.807,114.943 319.734,114.649 319.836,114.459C319.895,114.459 319.954,114.459 320.013,114.459C320.153,114.678 320.054,114.916 320.063,115.126C320.377,115.041 320.461,114.726 320.666,114.532C320.736,114.546 320.798,114.57 320.868,114.583C320.892,114.953 320.644,115.055 320.465,115.224C320.575,115.505 320.799,115.671 320.893,115.966C321.202,115.849 321.276,115.502 321.622,115.423C321.464,115.632 321.499,115.907 321.32,116.114C321.41,116.206 321.508,116.291 321.646,116.337C321.888,115.99 322.083,115.597 322.349,115.275C322.401,115.275 322.451,115.275 322.499,115.275C322.597,115.537 322.409,115.726 322.349,115.916C322.519,115.993 322.764,115.724 322.952,115.892C322.986,116.116 322.82,116.142 322.752,116.263C322.852,116.477 323.124,116.524 323.129,116.832C323.292,116.835 323.303,116.69 323.431,116.659C323.536,116.671 323.551,116.77 323.607,116.832C323.711,116.803 323.755,116.714 323.858,116.684C324.006,116.712 324.098,116.793 324.134,116.931C324.053,116.879 323.985,116.815 323.907,116.759C323.85,116.873 323.763,116.86 323.656,116.883C323.522,117.145 323.263,117.286 323.178,117.599C323.332,117.741 323.772,118.077 323.43,118.317C323.28,118.249 323.204,118.11 323.053,118.044C322.96,118.039 322.901,118.19 322.951,118.243C322.688,118.833 322.471,119.467 322.122,119.973C322.16,120.067 322.315,120.098 322.224,120.245C322.128,120.264 322.127,120.192 322.098,120.147C322.025,120.215 321.939,120.271 321.897,120.369C322.085,120.508 322.381,120.437 322.626,120.445C322.956,120.453 323.315,120.496 323.682,120.419C323.631,120.272 323.469,120.232 323.355,120.148C323.387,120.053 323.458,120.151 323.531,120.099C323.525,119.965 323.427,119.922 323.381,119.827C323.588,119.735 324.12,119.964 324.311,119.827C324.351,119.632 324.101,119.721 324.135,119.531C324.227,119.441 324.354,119.542 324.487,119.555C324.852,119.593 325.291,119.504 325.568,119.506C325.622,119.503 325.622,119.445 325.618,119.381C325.827,119.423 326.05,119.451 326.172,119.58C326.316,119.549 326.544,119.599 326.548,119.432C326.677,119.526 327.013,119.42 327.051,119.604C327.129,119.551 327.22,119.534 327.377,119.531C327.862,119.523 328.468,119.351 328.784,119.63C329.026,119.608 329.549,119.517 329.563,119.802C329.487,119.877 329.264,119.805 329.21,119.9C329.261,120.059 329.583,119.946 329.637,120.099C329.606,120.257 329.377,120.221 329.336,120.37C329.516,120.428 329.732,120.473 329.863,120.446C329.885,120.948 330.171,121.382 330.291,121.829C330.364,122.105 330.339,122.399 330.566,122.596C330.577,122.655 330.521,122.65 330.542,122.719C331.114,124.307 331.619,126.069 332.024,127.74C332.028,127.837 331.985,127.732 331.949,127.79C331.951,127.853 332.047,127.825 332.049,127.888C332.208,129.56 332.524,131.061 332.326,132.71C332.321,132.836 332.424,132.859 332.426,132.982C332.208,133.136 332.187,133.486 331.899,133.576C331.772,133.585 331.788,133.452 331.699,133.427C331.561,133.532 331.443,133.654 331.22,133.674C331.14,133.621 331.089,133.54 331.045,133.452C330.858,133.615 330.572,133.775 330.391,133.5C329.991,133.525 329.856,133.814 329.563,133.947C329.445,133.913 329.379,133.829 329.237,133.823C329.227,133.715 329.232,133.708 329.211,133.649C329.034,133.626 328.928,133.534 328.834,133.427C328.732,133.45 328.7,133.54 328.608,133.576C328.43,133.569 328.367,133.522 328.23,133.525C328.125,133.251 327.778,133.213 327.628,132.983C326.563,133.047 325.523,133.188 324.437,133.279C323.57,133.351 322.705,133.528 321.848,133.525C321.413,133.524 320.993,133.522 320.568,133.525C320.052,133.531 319.543,133.622 319.036,133.624C318.787,133.625 318.565,133.593 318.331,133.6C317.914,133.61 317.499,133.655 317.076,133.649C316.743,133.645 316.391,133.584 316.045,133.577C314.804,133.544 313.607,133.586 312.176,133.428C311.72,133.377 311.228,133.233 310.794,133.204C310.666,133.196 310.534,133.226 310.441,133.179C310.182,133.05 309.89,133.049 309.637,132.983C309.506,132.947 309.379,132.839 309.236,132.907C309.238,132.872 309.24,132.838 309.21,132.834C308.631,132.865 308.264,133.105 307.855,133.303C307.909,133.512 308.268,133.409 308.382,133.327C308.39,133.457 308.068,133.528 307.879,133.475C307.745,133.599 307.816,133.924 307.703,134.068C307.468,134.05 307.354,134.002 307.15,133.994C307.098,133.9 307.139,133.713 307.099,133.672C306.86,133.537 306.609,133.424 306.472,133.252C306.344,133.226 306.327,133.308 306.22,133.302C306.07,133.32 306.035,133.17 305.894,133.252C305.886,133.375 305.979,133.401 305.995,133.499C306.083,133.513 306.057,133.412 306.145,133.426C306.228,133.475 306.082,133.531 306.145,133.549C306.266,133.609 306.409,133.504 306.497,133.451C306.467,133.774 305.973,133.58 305.795,133.451C305.807,133.352 305.807,133.376 305.795,133.278C305.524,132.933 305.515,132.333 305.467,131.769C305.465,131.706 305.43,131.674 305.366,131.67C305.517,131.409 305.418,131.119 305.441,130.805C305.476,130.347 305.615,129.797 305.517,129.371C305.307,128.457 304.545,127.762 304.336,126.923C304.2,127.889 304.349,129.1 304.261,129.965C304.167,129.135 304.221,127.732 304.235,126.824C304.118,126.939 304.082,127.137 304.059,127.342C303.777,128.079 303.313,128.635 303.104,129.445C302.812,129.998 302.817,130.716 302.904,131.448C303.01,131.682 303.194,131.838 303.382,131.991C304.225,132.186 304.425,131.013 304.06,130.608C303.534,130.316 303.261,131.482 303.733,131.473C303.968,131.47 304.019,131.119 303.985,130.953C304.257,131.19 303.841,131.707 303.534,131.498C303.35,131.373 303.403,130.711 303.709,130.558C303.845,130.49 303.997,130.538 304.137,130.534C304.206,130.512 304.22,130.434 304.237,130.36C304.296,130.427 304.248,130.599 304.263,130.707C304.284,130.78 304.343,130.693 304.388,130.707C304.242,131.228 304.243,132.194 304.966,132.017C304.658,132.219 304.372,131.961 304.312,131.696C304.211,131.704 304.3,131.899 304.237,131.943C304.146,131.893 304.216,131.796 304.212,131.696C304.009,131.901 303.741,132.137 303.359,132.043C302.751,131.894 302.685,130.69 302.831,129.99C303.117,128.624 304.246,127.491 304.212,126.133C304.203,125.899 304.095,125.62 303.907,125.583ZM319.461,116.163C319.531,116.217 319.582,116.292 319.712,116.287C320.019,116.019 319.436,115.705 319.461,116.163ZM318.707,116.534C318.808,116.632 319.155,116.619 319.26,116.632C319.192,116.586 319.158,116.501 319.109,116.435C318.92,116.434 318.773,116.479 318.707,116.534ZM317.802,117.003C317.94,117.058 318.034,117.153 318.254,117.127C318.124,116.91 318.007,116.679 317.776,116.558C317.848,116.747 317.826,116.863 317.802,117.003ZM320.817,116.904C321.046,116.885 321.082,117.055 321.244,117.103C321.36,117.003 321.43,116.856 321.445,116.658C321.224,116.632 320.782,116.597 320.817,116.904ZM320.014,117.522C320.074,117.522 320.088,117.566 320.163,117.546C320.162,117.446 320.243,117.427 320.239,117.325C320.079,117.308 319.994,117.364 320.014,117.522ZM323.004,117.745C323.056,117.706 323.063,117.62 323.054,117.522C322.898,117.487 322.891,117.728 323.004,117.745ZM316.671,117.697C316.728,117.846 316.77,118.01 316.872,118.115C316.94,117.99 316.82,117.86 316.822,117.72C316.746,117.728 316.725,117.642 316.671,117.697ZM320.163,117.943C320.188,117.943 320.213,117.943 320.239,117.943C320.247,117.878 320.23,117.837 320.163,117.845C320.163,117.876 320.163,117.909 320.163,117.943ZM322.777,118.215C322.922,118.215 322.897,118.052 322.952,117.967C322.922,117.966 322.918,117.937 322.877,117.943C322.856,118.048 322.744,118.061 322.777,118.215ZM319.887,118.19C320.026,118.246 320.2,118.23 320.34,118.166C320.306,117.865 319.947,118.035 319.887,118.19ZM321.445,118.215C321.597,118.175 321.782,118.315 321.822,118.165C321.688,118.126 321.595,118.162 321.445,118.115C321.445,118.15 321.445,118.181 321.445,118.215ZM315.365,118.908C315.452,118.99 315.486,119.144 315.615,119.228C315.644,119.248 315.732,119.227 315.766,119.254C315.791,119.273 315.793,119.355 315.817,119.376C316.02,119.572 316.279,119.689 316.595,119.723C316.783,119.671 316.919,119.431 317.074,119.427C316.983,119.627 316.755,119.69 316.595,119.822C316.593,120.036 316.629,120.147 316.595,120.341C316.792,120.508 317.418,120.468 317.625,120.341C317.375,119.851 317.098,119.447 316.997,118.858C316.429,118.922 315.944,118.829 315.365,118.908ZM313.18,119.797C313.319,119.846 313.543,119.781 313.631,119.699C313.484,119.537 313.247,119.579 313.18,119.797ZM325.541,119.872C325.658,119.884 325.72,119.895 325.792,119.822C325.682,119.815 325.716,119.666 325.566,119.699C325.558,119.757 325.526,119.791 325.541,119.872ZM327.124,119.723C327.156,119.857 327.472,119.796 327.525,119.723C327.421,119.704 327.224,119.67 327.124,119.723ZM311.37,119.822C311.476,119.865 311.613,119.878 311.772,119.872C311.781,119.685 311.422,119.687 311.37,119.822ZM310.718,119.996C310.792,120.102 311.072,120.074 311.169,119.996C311.12,119.834 310.737,119.813 310.718,119.996ZM316.546,120.192C316.483,120.139 316.58,119.929 316.47,119.921C316.442,119.979 316.474,120.154 316.546,120.192ZM324.837,120.069C324.923,120.062 325.117,120.131 325.189,120.044C325.125,119.992 324.842,119.885 324.837,120.069ZM316.32,120.441C316.384,120.447 316.428,120.431 316.42,120.365C316.354,120.36 316.312,120.375 316.32,120.441ZM304.208,125.657C304.305,125.612 304.3,125.43 304.184,125.409C304.122,125.446 304.095,125.655 304.208,125.657ZM332.25,132.679C332.283,132.647 332.288,132.557 332.224,132.555C332.189,132.587 332.186,132.677 332.25,132.679ZM331.119,133.345C331.077,133.441 331.159,133.529 331.219,133.594C331.397,133.597 331.534,133.431 331.698,133.345C331.782,133.377 331.775,133.5 331.898,133.493C332.073,133.468 332.128,133.326 332.174,133.172C331.833,133.265 331.514,133.279 331.119,133.345ZM328.681,133.396C328.524,133.379 328.325,133.269 328.178,133.321C328.259,133.446 328.59,133.572 328.681,133.396ZM306.771,133.371C306.825,133.473 307.205,133.652 307.2,133.371C307.058,133.336 306.89,133.313 306.771,133.371ZM328.983,133.47C329.026,133.518 329.114,133.523 329.209,133.519C329.215,133.5 329.21,133.47 329.235,133.47C329.245,133.328 328.984,133.352 328.983,133.47ZM329.888,133.421C329.888,133.454 329.888,133.486 329.888,133.519C329.996,133.587 330.104,133.477 330.214,133.47C330.201,133.317 329.998,133.399 329.888,133.421ZM330.466,133.446C330.57,133.634 330.955,133.562 330.919,133.371C330.753,133.383 330.564,133.37 330.466,133.446Z"/>
        <path d="M339.009,108.25C339.487,108.869 340.479,108.981 340.969,109.587C341.122,109.596 341.081,109.416 341.17,109.362C341.236,109.428 341.215,109.581 341.37,109.56C341.381,109.62 341.325,109.614 341.345,109.684C341.547,109.699 341.658,109.806 341.848,109.832C342.057,110.156 342.252,110.683 342.201,111.169C342.16,111.541 341.825,111.704 341.673,111.934C341.731,112.147 341.757,112.247 341.823,112.43C342.806,112.078 343.485,111.426 344.311,110.921C344.584,110.56 344.72,109.987 345.04,109.71C345.187,109.581 345.259,109.656 345.29,109.513C345.332,109.319 344.978,108.615 344.915,108.374C344.738,107.727 344.427,107.062 344.286,106.47C344.446,106.341 344.931,106.15 345.09,106.396C345.324,106.298 345.364,106.447 345.592,106.47C345.672,106.703 345.909,106.784 346.12,106.891C346.152,106.949 346.131,107.061 346.17,107.113C346.371,107.18 346.344,107.47 346.496,107.582C346.472,107.648 346.444,107.712 346.448,107.805C346.432,107.918 346.58,107.871 346.573,107.979C346.513,108.184 346.53,108.272 346.621,108.423C346.453,108.733 346.337,109.099 346.17,109.412C346.278,109.592 346.196,109.771 346.194,109.981C346.115,110.033 345.984,110.038 345.893,110.08C345.727,110.563 345.988,111.081 345.944,111.564C345.896,112.089 346.165,112.641 345.969,113.146C345.872,113.152 345.783,113.147 345.717,113.122C345.659,112.425 345.61,111.656 345.741,110.921C345.621,110.512 345.365,110.865 345.138,111.02C344.957,111.145 344.78,111.203 344.685,111.267C343.917,111.803 343.363,112.83 342.601,113.516C342.302,113.786 341.948,113.911 341.671,114.16C341.418,114.255 341.26,114.15 341.093,114.035C340.797,113.511 340.471,113.016 340.288,112.38C340.156,112.407 340.119,112.375 339.962,112.38C339.84,113.044 339.54,113.66 339.635,114.456C339.472,114.813 339.475,115.325 339.685,115.619C340.178,115.411 340.431,114.928 340.892,114.68C341.07,114.584 341.282,114.593 341.42,114.407C341.486,114.407 341.563,114.417 341.595,114.383C341.722,114.366 341.72,114.226 341.847,114.209C341.924,114.141 341.926,114.297 342.023,114.285C342.992,113.929 344.233,114.148 345.012,114.656C345.115,114.723 345.18,114.857 345.288,114.929C345.647,115.161 346.163,115.641 346.446,116.015C346.729,116.395 346.882,116.874 347.098,117.3C347.143,117.389 347.256,117.41 347.297,117.499C347.186,117.854 347.433,118.089 347.525,118.463C347.543,118.541 347.532,118.632 347.549,118.71C347.615,118.99 347.789,119.194 347.801,119.527C347.816,119.954 347.859,120.294 347.801,120.763C347.784,120.884 347.716,120.992 347.7,121.11C347.611,121.762 347.551,122.453 347.097,122.965C347.05,123.174 346.91,123.292 346.87,123.508C346.614,123.674 346.452,123.927 346.166,124.051C346.052,124.102 345.912,124.084 345.789,124.126C345.608,124.189 345.45,124.329 345.262,124.397C345.197,124.422 345.122,124.397 345.062,124.422C344.948,124.468 344.907,124.558 344.81,124.621C344.472,124.833 344.076,124.961 343.754,125.14C343.594,125.993 343.465,127.282 343.403,128.355C343.387,128.618 343.359,128.891 343.251,129.122C343.122,129.125 343.118,129.006 343,128.997C342.917,129.071 342.899,129.21 342.825,129.294C342.654,129.323 342.449,129.319 342.297,129.368C342.322,129.577 342.308,129.671 342.348,129.862C341.891,129.919 341.305,129.812 340.915,129.814C340.811,130.116 340.487,130.334 340.513,130.653C340.535,130.929 340.951,131.287 340.991,131.643C341.083,131.689 341.142,131.637 341.217,131.667C341.207,131.818 341.306,131.86 341.394,131.914C341.443,132.247 341.213,132.382 341.244,132.657C341.272,132.922 341.576,133.116 341.494,133.424C340.779,133.081 340.65,132.16 340.188,131.57C340.044,131.723 340.118,132.143 340.087,132.336C340.004,132.376 339.991,132.331 339.887,132.336C339.985,131.78 339.618,131.095 339.76,130.556C339.834,130.273 340.033,130.128 340.036,129.815C339.753,129.764 339.256,129.745 338.98,129.863C339.006,130.407 338.901,130.909 339.006,131.347C339.081,131.659 339.326,131.855 339.407,132.114C339.365,132.452 339.313,132.78 339.106,132.954C338.997,133.167 339.123,133.508 338.956,133.621C338.934,133.287 339.002,133.04 339.081,132.805C338.857,132.842 338.684,133.046 338.477,133.175C338.265,133.31 338.034,133.424 337.799,133.522C337.581,133.681 337.173,133.881 336.895,133.819C336.938,133.566 337.248,133.574 337.347,133.374C337.246,133.175 337.466,133.068 337.523,132.929C337.635,132.65 337.585,132.277 337.799,132.089C337.961,132.086 337.965,132.238 338.1,132.261C338.397,132.136 338.37,131.805 338.301,131.446C338.199,130.905 338.035,130.302 337.799,129.938C337.385,129.82 337.049,129.744 336.568,129.789C336.493,129.74 336.505,129.606 336.467,129.518C336.242,129.619 336.033,129.528 335.914,129.394C335.543,128.059 335.1,126.728 334.884,125.314C334.226,125.038 333.56,124.918 332.999,124.598C332.713,124.433 332.397,124.261 332.17,124.004C332.04,123.856 331.935,123.639 331.793,123.46C331.334,122.881 330.97,122.255 330.788,121.433C330.747,121.247 330.661,121.092 330.638,120.937C330.56,120.42 330.62,119.696 330.662,119.157C330.828,118.852 330.827,118.379 331.04,118.118C331.055,117.864 331.202,117.724 331.341,117.525C331.619,117.129 331.88,116.653 332.22,116.338C332.443,116.133 332.726,116.013 332.975,115.845C333.232,115.667 333.397,115.38 333.703,115.324C333.767,115.24 333.747,115.07 333.779,114.954C335.076,114.932 336.249,115.32 337.321,115.72C337.768,114.844 337.24,113.787 336.844,113.148C336.504,113.688 336.236,114.297 335.662,114.607C335.235,114.588 335.04,114.251 334.758,114.014C334.683,113.951 334.582,113.935 334.532,113.891C334.443,113.811 334.378,113.686 334.282,113.594C333.74,113.077 333.114,112.405 332.722,111.764C332.399,111.73 332.199,111.363 331.893,111.194C331.716,111.098 331.477,111.12 331.34,110.997C331.213,110.882 331.153,110.665 331.064,110.528C331.32,110.5 331.334,110.921 331.591,110.973C331.605,110.607 331.248,110.387 331.164,110.033C331.244,110.022 331.253,110.078 331.34,110.059C331.335,109.832 331.163,109.771 331.139,109.563C331.631,109.521 331.832,110.396 332.295,110.528C332.36,110.253 331.982,110.081 332.068,109.786C332.262,109.823 332.262,109.981 332.344,110.107C332.602,110.504 333.049,110.692 333.299,111.098C333.385,111.335 333.408,111.633 333.651,111.715C333.731,111.592 333.562,111.531 333.551,111.419C333.599,111.341 333.67,111.291 333.777,111.271C333.777,111.387 333.777,111.501 333.777,111.618C333.899,111.663 333.987,111.357 334.178,111.47C334.086,111.635 333.919,111.725 333.777,111.841C334.052,112.145 334.519,112.294 334.882,112.532C334.986,112.6 335.126,112.722 335.259,112.681C335.202,112.497 335.325,112.249 335.334,112.063C335.352,111.669 334.957,111.499 334.73,111.247C334.654,110.991 334.577,110.728 334.68,110.432C334.748,110.236 334.986,110.138 335.032,109.986C335.043,109.953 334.953,109.899 334.957,109.837C334.965,109.723 335.149,109.7 335.107,109.592C335.2,109.592 335.293,109.592 335.384,109.592C335.636,109.287 335.934,109.029 336.363,108.898C336.576,108.901 336.72,108.839 336.866,108.774C337.086,108.542 337.076,108.227 337.092,107.785C336.907,107.637 336.818,107.395 336.691,107.192C336.672,107.126 336.743,107.144 336.765,107.117C336.561,106.988 336.362,106.856 336.138,106.746C336.245,106.501 336.25,106.254 336.213,105.98C336.132,105.897 336.025,106.086 335.985,105.929C336.006,105.834 336.17,105.879 336.186,105.781C335.997,105.013 336.253,104.273 336.564,103.779C336.799,103.609 337.163,103.526 337.494,103.384C337.737,103.28 337.907,103.134 338.197,103.161C338.658,103.203 339.307,103.527 339.504,103.877C339.626,104.096 339.637,104.392 339.679,104.693C339.694,104.764 339.742,104.797 339.755,104.867C339.742,105.077 339.802,105.356 339.679,105.46C339.779,106.052 339.346,106.38 339.304,106.967C339.283,107.235 339.393,107.472 339.328,107.71C339.271,107.944 339.116,108.05 339.009,108.25ZM345.993,112.899C345.981,112.757 346.019,112.629 345.943,112.602C345.961,112.701 345.899,112.876 345.993,112.899Z"/>
    </g>
</svg>
