<?xml version="1.0" encoding="UTF-8" standalone="no"?>
<!DOCTYPE svg PUBLIC "-//W3C//DTD SVG 1.1//EN" "http://www.w3.org/Graphics/SVG/1.1/DTD/svg11.dtd">
<svg width="100%" height="100%" viewBox="0 0 53 32" version="1.1" xmlns="http://www.w3.org/2000/svg" xmlns:xlink="http://www.w3.org/1999/xlink" xml:space="preserve" xmlns:serif="http://www.serif.com/" style="fill-rule:evenodd;clip-rule:evenodd;stroke-linejoin:round;stroke-miterlimit:1.41421;">
    <g transform="matrix(1,0,0,1,-402.339,-103.081)">
        <path d="M425.67,119.751C425.423,119.679 425.31,119.488 425.097,119.509C424.875,119.532 424.675,119.886 424.359,119.993C424.147,120.065 423.975,120.018 423.745,120.075C423.259,120.364 423.057,120.931 422.474,121.123C422.546,121.864 421.973,121.976 421.613,122.292C421.799,122.997 422.533,123.163 423.008,123.584C423.392,124 423.765,124.426 424.032,124.956C424.111,125.699 424.54,126.372 424.934,126.934C425.28,127.185 425.729,127.334 426.04,127.619C426.287,128.003 426.076,128.47 425.835,128.709C425.242,128.772 425.078,129.256 424.771,129.596C424.392,129.541 424.275,129.59 424.032,129.717C423.822,129.329 423.072,129.717 422.884,129.314C422.889,128.699 423.4,128.766 423.786,128.589C423.693,127.927 423.235,127.624 422.844,127.256C422.434,126.488 421.647,126.095 421.203,125.36C421.058,125.373 421.103,125.472 420.957,125.402C420.998,125.219 420.863,125.158 420.793,124.957C420.146,124.344 419.527,123.704 418.907,123.061C418.534,123.11 417.945,122.948 417.842,123.262C417.709,123.194 417.597,123.155 417.473,123.262C416.997,122.87 416.259,122.735 415.792,122.336C414.284,122.324 413.598,121.508 412.963,120.641C412.86,120.587 412.793,120.758 412.757,120.641C412.575,120.647 412.777,120.526 412.675,120.479C411.917,120.229 411.017,120.25 410.298,119.913C410.201,119.926 410.143,119.977 410.01,119.955C409.505,119.631 408.632,119.671 408.33,119.147C407.928,119.187 407.771,118.8 407.509,118.703C407.437,118.675 407.333,118.744 407.264,118.703C407.206,118.671 407.195,118.539 407.141,118.501C407.06,118.444 406.875,118.453 406.731,118.38C406.583,118.304 406.495,118.131 406.362,118.058C406.302,118.023 406.174,118.061 406.075,118.017C405.972,117.969 405.843,117.814 405.625,117.814C405.26,117.815 404.878,118.224 404.477,118.177C404.097,118.135 403.908,117.571 403.574,117.534C403.553,117.444 403.654,117.476 403.657,117.411C403.332,116.977 402.829,116.722 402.633,116.161C402.596,116.09 402.557,116.021 402.427,116.041C402.512,115.895 402.323,115.726 402.386,115.475C402.909,114.816 403.442,115.679 404.068,115.917C404.273,115.997 404.487,115.939 404.601,116C404.778,116.09 404.869,116.393 405.01,116.403C405.099,116.409 405.029,116.26 405.051,116.199C405.187,116.19 405.139,116.358 405.257,116.362C405.327,116.309 405.309,116.17 405.421,116.16C406.019,116.208 406.639,116.486 407.307,116.604C407.414,116.621 407.531,116.554 407.634,116.563C407.822,116.579 408.041,116.737 408.249,116.765C408.654,116.818 408.897,116.889 409.233,116.967C409.377,117.001 409.551,116.966 409.684,117.007C409.797,117.043 409.867,117.148 409.971,117.169C410.178,117.213 410.489,117.138 410.751,117.169C410.986,117.196 411.149,117.306 411.364,117.169C411.426,117.094 411.409,116.943 411.487,116.887C411.834,116.54 411.933,115.863 412.594,115.917C412.843,115.938 412.972,116.09 413.168,116.242C413.299,116.249 413.341,116.169 413.495,116.199C413.546,116.513 413.967,116.464 414.11,116.685C414.373,116.378 414.471,115.911 414.561,115.434C414.334,115.173 413.845,115.171 413.658,114.87C412.891,114.983 411.963,114.953 411.076,114.83C410.531,114.756 409.87,114.371 409.599,114.991C410.228,115.369 410.814,115.786 411.527,116.08C411.504,116.213 411.554,116.268 411.568,116.364C410.711,116.726 410.02,115.527 409.149,115.315C408.867,115.247 408.677,115.317 408.453,115.193C408.056,114.976 407.9,114.5 407.919,113.984C407.75,113.826 407.455,113.796 407.305,113.62C406.701,113.649 406.05,113.634 405.542,113.74C405.06,113.845 404.75,114.498 404.024,114.468C403.962,114.465 403.83,114.368 403.696,114.347C403.135,114.256 402.279,114.612 402.342,113.902C402.374,113.554 402.612,113.583 402.999,113.539C403.591,113.476 404.048,113.206 404.311,113.782C404.557,113.622 404.837,113.487 405.131,113.298C405.423,113.111 405.471,113.059 405.992,112.975C406.227,112.938 406.475,112.812 406.648,112.814C407.176,112.819 407.721,113.112 408.246,113.177C408.269,113.275 408.405,113.262 408.37,113.419C408.613,113.133 409.082,113.19 409.353,113.419C409.922,113.194 410.55,113.34 411.157,113.257C411.948,113.149 412.653,112.619 413.412,112.653C413.561,112.6 413.547,112.382 413.617,112.25C413.852,112.077 414.097,111.916 414.56,111.968C414.847,111.699 415.471,111.607 415.831,111.845C416.117,111.765 416.344,111.624 416.57,111.482C416.588,111.331 416.488,111.294 416.446,111.2C415.98,111.2 415.637,111.321 415.339,111.482C414.887,111.403 414.73,111.035 414.52,110.717C414.321,110.655 414.367,110.833 414.233,110.837C414.036,110.552 414.409,110.372 414.437,110.152C414.504,109.66 414.142,109.618 413.782,109.384C413.728,109.265 413.74,109.179 413.824,109.102C413.712,109.017 413.721,109.194 413.578,109.102C413.407,108.578 413.453,107.804 413.658,107.246C413.681,107.064 413.44,107.139 413.454,106.964C413.558,106.238 414.12,105.671 414.931,105.511C414.765,105.231 414.311,105.234 414.111,104.988C413.9,104.971 413.781,105.205 413.619,105.108C413.615,104.848 413.847,104.821 413.947,104.665C414.103,104.605 413.956,104.846 414.111,104.787C414.2,104.579 414.216,104.298 414.399,104.182C414.565,104.141 414.564,104.186 414.766,104.182C415.068,103.888 414.731,103.42 414.562,103.212C415.664,102.661 415.75,103.991 416.121,104.544C416.803,104.736 416.683,103.973 417.063,103.698C417.228,103.577 417.64,103.472 417.883,103.495C418.094,103.515 418.215,103.682 418.374,103.698C418.706,103.73 418.961,103.502 419.481,103.575C419.766,103.743 419.609,104.136 419.4,104.262C418.799,104.334 418.397,104.884 417.841,104.746C417.659,104.89 417.326,104.885 417.267,105.149C418.23,105.534 419.244,105.865 419.767,106.683C419.946,107.36 420.092,107.856 420.179,108.579C420.546,108.711 421.056,108.837 421.449,108.821C422.639,109.453 424.744,108.532 426.041,108.942C426.114,108.953 426.125,108.905 426.083,108.902C426.235,108.972 426.655,109.265 427.024,109.224C427.216,109.203 427.228,109.027 427.394,109.063C427.394,109.158 427.394,109.251 427.394,109.345C427.908,109.291 427.936,109.857 427.599,110.03C426.825,109.892 426.172,109.821 425.549,109.426C425.281,109.488 424.926,109.46 424.688,109.547C425.053,109.875 425.696,109.925 425.959,110.355C425.467,110.569 424.743,110.403 424.441,110.07C424.047,110.085 423.811,109.879 423.499,109.828C423.281,109.795 423.034,109.867 422.802,109.828C422.438,109.77 422.06,109.571 421.572,109.547C420.992,109.519 420.306,109.553 419.727,109.547C419.587,109.64 419.562,109.841 419.522,110.03C419.378,110.39 418.588,110.468 418.702,110.959C418.722,111.045 419.215,111.388 419.481,111.443C419.538,111.457 419.637,111.385 419.686,111.403C419.888,111.476 420.027,111.669 420.219,111.767C420.488,111.902 420.69,111.897 420.874,112.088C421.005,112.223 421.02,112.378 421.162,112.493C421.303,112.461 421.318,112.553 421.448,112.534C421.818,113.108 422.47,113.447 422.883,113.986C422.999,114.135 423.009,114.362 423.13,114.51C423.415,114.866 423.974,115.044 424.072,115.558C424.301,115.829 424.647,115.988 424.728,116.407C424.8,116.442 424.832,116.52 424.974,116.488C425.277,117.132 425.538,117.815 426.286,118.021C426.641,117.807 426.925,117.52 427.229,117.253C427.224,117.075 427.342,117.018 427.311,116.81C427.492,116.651 427.585,116.409 427.763,116.246C427.844,115.371 428.367,114.933 428.499,114.107C428.844,113.587 428.989,112.879 429.318,112.291C429.523,111.929 429.816,111.53 430.139,111.161C430.498,110.75 430.888,110.5 431.409,110.234C431.855,110.007 432.282,109.72 432.969,109.628C433.633,110.038 433.84,109.478 434.281,109.184C434.539,109.013 434.897,108.928 435.141,108.741C435.48,108.485 435.818,108.125 436.248,107.935C437.156,107.039 438.077,106.156 438.872,105.15C442.194,105.404 445.436,105.738 448.671,106.079C448.571,106.498 448.495,107.27 448.262,107.691C448.093,107.714 447.995,107.807 447.81,107.815C447.142,108.529 446.558,109.325 446.006,110.154C445.648,110.269 445.485,110.618 445.227,111C445.135,111.137 445.001,111.25 444.899,111.403C444.685,111.728 444.511,112.237 444.12,112.372C443.888,112.451 443.581,112.307 443.3,112.332C443.004,112.355 442.797,112.322 442.441,112.332C442.4,112.332 442.314,112.414 442.277,112.412C441.978,112.394 441.646,112.259 441.293,112.21C441.071,112.179 440.814,112.207 440.595,112.17C439.783,112.027 438.632,112.027 437.686,112.047C437.35,112.787 438.105,113.413 438.505,113.823C438.618,113.813 438.599,113.673 438.669,113.621C438.896,113.6 438.972,113.727 439.161,113.741C439.269,113.574 439.015,113.351 439.121,113.178C439.373,113.171 439.35,113.435 439.57,113.46C439.678,113.312 439.545,112.923 439.653,112.774C439.943,112.745 439.839,113.103 440.022,113.178C440.208,113.026 440.196,112.678 440.389,112.533C440.725,112.633 440.33,113.105 440.594,113.338C440.769,113.348 440.859,113.276 441.006,113.258C440.991,114.111 440.749,114.779 441.128,115.557C441.186,115.675 441.308,115.695 441.374,115.801C441.512,116.02 441.5,116.394 441.784,116.526C442.015,116.5 442.076,116.642 442.276,116.647C442.74,117.277 443.321,117.797 444.038,118.179C444.306,117.755 443.699,117.455 443.712,117.051C443.721,116.64 444.147,116.464 444.407,116.164C444.504,116.164 444.598,116.164 444.694,116.164C444.936,116.065 445.046,115.835 445.146,115.598C445.413,115.554 445.514,115.344 445.678,115.195C446.411,115.363 447.056,114.783 447.688,114.833C448.334,114.885 448.71,115.539 449.041,116.044C449.357,116.082 449.661,115.912 449.942,116.044C450.017,116.077 450.329,116.34 450.393,116.406C450.438,116.451 450.398,116.556 450.434,116.608C450.528,116.739 450.796,116.913 450.967,117.092C451.238,117.377 451.513,117.558 451.581,118.02C451.563,118.163 451.389,118.152 451.253,118.18C451.486,118.306 451.982,118.556 451.909,118.908C451.86,119.143 451.639,119.174 451.213,119.15C451.071,119.307 451.158,119.688 451.008,119.835C450.805,119.889 450.806,119.738 450.64,119.754C450.374,119.169 450.125,118.567 449.574,118.263C449.327,118.298 449.451,118.502 449.369,118.706C449.265,118.964 448.991,119.226 449,119.432C449.012,119.693 449.309,119.745 449.327,120.038C450.047,120.443 450.5,121.276 451.173,121.894C451.236,121.95 451.365,121.96 451.419,122.015C451.56,122.156 451.624,122.363 451.788,122.499C452.141,122.791 452.505,123.014 452.73,123.468C452.762,123.607 452.685,123.637 452.647,123.708C452.847,123.915 453.142,124.029 453.345,124.234C453.38,124.59 453.193,124.729 453.059,124.919C452.875,124.466 452.399,124.303 452.075,123.99C451.859,124.532 452.536,124.878 452.485,125.524C452.415,125.522 452.38,125.554 452.362,125.606C451.952,125.632 451.88,125.325 451.705,125.121C451.682,124.845 451.679,124.641 451.582,124.395C451.478,124.121 451.18,123.92 451.132,123.668C451.092,123.46 451.237,123.217 451.173,122.982C451.148,122.89 450.83,122.524 450.723,122.418C450.415,122.113 450.024,121.863 449.78,121.53C449.726,121.458 449.758,121.352 449.698,121.287C449.599,121.188 449.14,120.847 448.795,120.602C448.528,120.412 448.235,120.201 447.976,120.159C447.578,120.091 447.082,120.283 446.705,120.24C446.383,120.201 446.098,119.853 445.72,119.916C445.391,120.245 445.765,120.664 445.68,121.086C445.649,121.243 445.451,121.34 445.394,121.489C445.299,121.737 445.278,122.152 445.271,122.377C445.236,123.298 445.6,124.172 446.132,124.919C446.072,125.156 445.901,125.284 445.763,125.445C446.357,126.018 446.921,125.117 447.444,125.322C448.075,125.571 448.599,126.984 447.935,127.541C447.958,127.828 448.096,128.208 447.895,128.39C447.862,128.572 447.544,128.475 447.525,128.672C447.648,128.915 447.879,128.745 448.057,128.753C448.596,128.776 449.37,128.879 449.821,129.075C450.335,129.297 450.751,129.895 451.256,130.124C451.407,130.192 451.665,130.106 451.79,130.325C452.642,130.653 453.458,129.446 454.045,130.286C454.295,130.642 454.09,130.901 454.168,131.415C454.226,131.794 454.799,132.164 454.619,132.666C454.507,132.979 454.154,133.677 453.84,133.715C452.98,133.816 453.588,132.337 452.896,132.182C452.627,132.442 452.959,133.185 452.733,133.553C452.365,133.691 451.976,134.224 451.545,134.119C450.879,133.954 451.842,133.085 451.995,132.787C451.693,132.527 451.477,132.169 451.955,131.94C449.763,131.582 447.349,131.229 445.477,130.689C445.111,130.459 444.731,130.239 444.371,130.004C444.187,130.105 443.858,130.064 443.755,130.246C443.211,130.228 442.075,130.088 441.664,129.842C441.436,129.706 441.313,129.401 441.091,129.237C440.786,129.015 440.471,129.011 440.107,128.834C439.982,128.805 439.958,128.875 439.86,128.875C438.815,128.68 438.489,127.776 437.973,127.059C437.821,127.016 437.91,127.21 437.769,127.18C437.715,127.006 437.592,127.079 437.605,126.898C436.875,126.697 436.106,126.826 435.433,126.777C434.532,126.711 433.879,126.306 433.136,126.132C433.028,125.825 432.655,125.822 432.234,125.566C431.885,125.353 431.669,125.076 431.374,125.042C430.909,124.989 430.36,125.364 429.98,125.123C429.767,124.989 429.605,124.446 429.242,124.075C428.929,123.754 428.567,123.695 428.423,123.471C428.205,123.131 428.276,122.421 428.749,122.38C429.163,122.345 429.278,122.786 429.774,122.743C430.094,122.197 429.707,120.926 430.635,120.887C431.009,121.203 430.585,121.675 430.677,122.098C430.725,122.321 431.027,122.44 431.045,122.623C431.069,122.859 430.857,122.934 430.841,123.106C431.336,123.627 432.482,123.507 433.097,123.914C434.566,124.106 435.818,124.516 437.441,124.559C437.638,124.218 437.721,123.705 438.097,123.671C438.605,123.626 439.064,124.397 439.697,124.318C439.627,123.756 439.892,123.305 440.107,122.905C440.132,122.223 440.279,121.374 440.516,120.686C440.578,120.507 440.763,120.343 440.763,120.162C440.763,119.953 440.437,119.36 440.311,119.112C440.24,118.97 440.084,118.869 440.025,118.749C439.904,118.507 439.945,118.247 439.86,118.023C439.756,117.743 439.533,117.594 439.368,117.296C439.301,117.172 439.178,117.142 439.082,117.013C438.85,116.702 438.64,116.302 438.426,115.964C438.192,115.594 437.94,115.318 437.689,114.996C437.499,114.757 437.339,114.418 437.033,114.27C436.463,114.166 436.271,114.435 435.886,114.512C435.681,114.29 435.917,114.075 436.008,113.906C435.896,113.668 435.384,113.823 435.23,113.624C435.187,113.367 435.415,113.377 435.557,113.302C435.561,113.109 435.399,113.08 435.394,112.899C435.435,112.792 435.511,112.72 435.639,112.696C435.599,112.522 435.411,112.491 435.435,112.254C435.945,112.019 436.978,113.059 437.239,112.134C436.972,111.98 436.61,112.005 436.296,111.972C435.167,111.852 433.875,112.143 432.77,112.174C432.217,112.188 431.714,111.974 431.294,112.134C431.577,112.269 431.707,112.416 432.072,112.294C432.259,112.522 432.371,113.048 432.114,113.262C432.388,113.283 432.584,113.061 432.893,113.101C433.18,113.139 433.378,113.469 433.672,113.463C433.748,113.618 433.834,113.761 433.876,113.946C434.605,113.992 434.827,114.723 434.819,115.359C435.347,115.229 435.696,115.219 435.803,115.684C435.866,115.962 435.753,116.331 435.721,116.611C435.811,116.79 435.959,116.914 436.172,116.974C436.453,117.597 436.611,118.868 435.721,118.79C435.394,118.761 435.097,118.32 434.655,118.387C434.463,118.491 434.516,118.841 434.41,119.032C434.226,119.127 434.071,119.002 433.835,119.032C433.843,119.658 433.645,120.082 433.056,120.123C433.054,120.272 433.122,120.354 433.221,120.405C433.496,120.499 434.038,119.866 434.41,119.839C434.907,119.803 435.214,120.347 434.695,120.567C434.766,120.833 434.732,121.107 434.614,121.292C435.004,121.414 435.142,120.96 435.474,120.93C435.668,120.912 435.841,121.095 436.049,121.091C436.284,121.087 436.362,120.851 436.623,120.93C436.628,121.006 436.648,121.066 436.705,121.091C436.641,121.367 436.509,121.492 436.294,121.535C435.996,121.597 435.686,121.362 435.474,121.374C435.234,121.387 435.093,121.69 434.819,121.738C434.46,121.8 434.304,121.594 433.999,121.535C433.705,121.866 433.45,122.233 433.056,122.464C432.55,122.274 432.388,121.879 432.319,121.334C432.445,121.042 432.732,120.907 433.056,120.81C432.961,120.539 432.556,120.577 432.319,120.447C432.215,120.36 432.166,120.219 432.072,120.125C430.983,120.188 431.368,118.022 432.277,118.47C432.444,118.149 432.556,117.775 433.056,117.783C433.224,117.533 433.469,117.356 433.672,117.138C434.159,117.156 434.335,117.479 434.572,117.742C434.669,117.009 433.857,116.674 433.958,115.926C433.824,115.849 433.677,115.691 433.467,115.807C433.348,115.666 433.19,115.564 433.056,115.442C432.353,115.329 431.972,114.896 431.704,114.353C431.471,114.3 431.3,114.336 431.087,114.394C430.631,114.119 430.412,113.605 430.474,112.82C430.62,112.736 430.581,112.468 430.843,112.498C430.821,112.314 430.914,112.246 430.883,112.053C430.91,111.879 430.676,111.962 430.719,111.773C430.788,111.516 431.108,111.508 431.293,111.368C431.649,111.1 432.021,110.847 432.398,110.601C432.544,110.502 432.634,110.349 432.768,110.239C432.323,109.986 431.982,110.506 431.539,110.522C431.443,110.61 431.554,110.678 431.539,110.803C431.408,110.838 431.412,110.741 431.334,110.723C430.145,111.26 429.839,112.666 429.202,113.747C429.202,113.856 429.202,113.964 429.202,114.072C428.457,115.622 428.097,117.557 426.66,118.428C426.626,119.105 426.227,119.374 425.67,119.751ZM439.568,114.75C439.495,114.442 439.045,114.164 438.749,113.942C438.889,114.186 439.303,114.498 439.568,114.75ZM415.544,115.84C415.855,115.738 415.688,115.365 415.708,115.032C415.636,114.941 415.46,114.953 415.338,114.911C415.471,115.158 415.441,115.563 415.544,115.84ZM424.604,118.34C424.551,118.284 424.41,118.314 424.358,118.26C424.062,117.777 423.486,117.446 423.046,117.089C422.568,116.701 422.072,116.21 421.364,116.243C421.164,117.073 422.164,117.584 421.774,118.501C422.529,118.427 423.545,118.158 423.783,118.945C423.861,119.199 423.779,119.406 423.824,119.59C424.3,119.48 424.608,119.205 424.89,118.905C424.848,118.666 424.709,118.521 424.604,118.34ZM450.967,118.059C451.035,117.857 450.658,117.777 450.475,117.696C450.532,117.921 450.746,117.993 450.967,118.059ZM432.722,118.623C432.903,118.624 432.96,118.508 433.05,118.421C433.019,117.942 432.478,118.393 432.722,118.623Z"/>
    </g>
</svg>
