<?xml version="1.0" encoding="UTF-8" standalone="no"?>
<!DOCTYPE svg PUBLIC "-//W3C//DTD SVG 1.1//EN" "http://www.w3.org/Graphics/SVG/1.1/DTD/svg11.dtd">
<svg width="100%" height="100%" viewBox="0 0 30 45" version="1.1" xmlns="http://www.w3.org/2000/svg" xmlns:xlink="http://www.w3.org/1999/xlink" xml:space="preserve" xmlns:serif="http://www.serif.com/" style="fill-rule:evenodd;clip-rule:evenodd;stroke-linejoin:round;stroke-miterlimit:1.41421;">
    <g transform="matrix(1,0,0,1,-126.213,-143.618)">
        <path d="M152.58,160.566C152.696,161.574 154.104,162.093 154.32,163.28C154.353,163.461 154.285,163.634 154.32,163.813C154.499,164.726 155.374,165.959 154.62,166.944C154.906,167.808 154.924,168.799 155.161,169.72C155.274,170.16 155.524,170.608 155.641,171.079C155.747,171.515 155.967,172.131 155.58,172.497C155.354,172.325 155.539,172.033 155.52,171.789C155.437,170.658 154.747,169.569 154.68,168.363C154.594,169.53 155.083,170.644 155.341,171.67C154.762,171.287 154.699,170.368 154.56,169.603C154.409,168.772 154.348,167.925 154.26,167.181C154.193,166.972 153.765,167.116 153.661,166.945C153.515,166.655 153.374,166.359 153.3,166.001C153.157,167.983 153.888,169.36 153.72,171.73C153.633,171.842 153.327,171.739 153.24,171.848C153.639,173.946 154.627,175.787 155.04,177.931C155.401,179.806 155.791,181.944 155.82,183.958C155.384,184.165 154.848,183.912 154.44,184.018C154.722,184.362 155.361,185.06 154.8,185.731C154.599,185.972 153.996,186.04 153.48,186.203C153.082,186.331 152.627,186.646 152.22,186.735C151.392,186.913 149.659,187.088 149.038,186.735C149.085,185.284 151.476,185.631 151.859,184.313C151.817,184.137 151.514,184.219 151.499,184.018C152.066,181.761 151.311,179.447 150.959,177.343C150.858,176.74 151.064,176.005 150.298,175.864C149.946,176.55 150.382,177.367 150.479,178.287C150.55,178.978 150.377,179.677 150.418,180.474C150.47,181.457 150.937,182.382 150.838,183.249C150.572,183.454 150.467,183.09 150.177,183.131C150.169,183.613 150.496,183.763 150.418,184.313C149.641,184.874 148.39,184.673 147.417,185.081C147.565,185.713 147.883,186.607 147.537,187.208C146.966,187.386 146.241,187.69 145.495,187.502C145.37,186.78 145.117,186.182 144.835,185.613C144.476,185.588 144.441,185.61 144.115,185.553C143.701,185.182 143.934,184.501 144.355,184.313C143.943,182.289 142.971,180.38 142.254,178.464C142.061,177.587 142.25,176.764 141.953,176.159C140.839,176.226 140.069,176.631 139.011,176.751C139.514,179.293 140.097,181.971 140.272,184.845C139.85,185.372 138.931,185.482 138.172,185.374C137.799,184.022 137.75,182.525 137.632,181.004C137.529,179.668 137.083,178.647 137.091,177.164C135.695,177.13 134.887,177.017 133.369,177.164C132.764,180.506 132.692,184.296 132.287,187.562C131.955,188.072 130.87,188.344 130.187,187.977C130.301,185.831 129.98,183.509 130.426,181.773C130.5,181.485 130.681,181.246 130.726,180.947C130.785,180.563 130.689,180.176 130.726,179.824C130.831,178.845 131.329,178.036 131.387,177.107C130.457,176.9 129.658,177.054 128.985,176.458C128.906,174.299 128.305,171.837 128.085,169.546C128.051,169.18 127.858,168.706 127.905,168.483C128.04,167.838 129.004,167.922 129.526,167.713C129.355,167.155 128.886,166.886 128.325,166.709C128.206,166.576 128.422,166.412 128.506,166.296C129.014,166.309 129.101,166.733 129.466,166.886C129.713,166.336 129.162,166.146 128.926,165.882C129.078,165.443 128.749,165.317 128.806,164.819C128.263,163.995 126.964,164.615 126.285,163.991C125.902,162.723 127.13,162.595 127.906,162.277C128.941,162.323 129.09,163.241 129.827,163.578C130.087,163.535 130.172,163.448 130.367,163.46C130.813,163.488 131.184,163.941 131.627,163.991C132.095,164.045 132.64,163.654 133.189,163.636C134.261,163.604 135.187,163.851 136.13,164.111C137.554,163.335 139.503,163.96 140.271,164.996C140.456,164.53 140.258,163.825 139.851,163.518C139.924,163.095 140.561,162.994 140.872,163.281C140.769,163.888 140.501,164.615 140.692,165.231C140.876,165.824 141.766,165.961 142.434,166.058C142.425,164.999 141.957,163.374 142.373,162.162C141.806,160.499 143.154,159.349 143.334,157.848C142.94,157.655 142.515,157.355 142.012,157.081C141.494,156.798 140.945,156.277 140.391,156.431C139.974,156.73 140.348,157.806 139.551,157.731C139.273,157.445 139.247,156.586 139.431,156.194C138.713,155.417 139.235,153.814 139.791,153.124C139.68,152.703 139.731,152.235 139.91,151.942C138.598,150.043 137.825,147.876 136.61,145.798C136.217,145.127 135.703,144.519 135.589,143.731C136.273,143.947 136.51,144.727 136.85,145.268C137.892,146.923 138.673,148.986 139.971,150.465C140.205,149.444 140.151,148.079 140.211,146.803C140.242,146.155 139.976,145.329 140.511,144.972C140.852,146.741 140.488,149.514 140.451,151.292C141.125,151.221 141.813,151.327 142.193,151.825C142.456,152.168 142.312,152.642 142.492,153.064C142.644,153.422 143.709,154.373 144.474,154.187C144.825,154.101 144.868,153.606 145.135,153.183C145.412,152.742 146.145,152.307 146.395,152.002C146.74,151.58 146.86,151.083 147.535,150.938C147.632,150.779 147.574,150.464 147.715,150.348C147.933,150.258 148.185,150.424 148.376,150.23C148.395,149.443 147.377,149.674 147.115,149.166C147.267,148.646 147.374,148.083 147.955,147.983C147.88,147.606 147.353,147.67 147.535,147.04C147.412,146.865 147.053,146.923 147.056,146.626C147.252,146.109 147.877,146.018 148.257,145.68C148.257,145.484 148.257,145.287 148.257,145.089C148.721,144.894 148.796,144.4 149.157,144.083C150.07,143.288 151.195,143.666 152.337,144.083C152.712,144.702 153.188,144.925 153.478,145.68C153.639,146.099 153.783,146.429 153.66,146.981C153.575,147.351 153.128,147.69 153.058,148.102C152.803,149.619 153.828,150.544 154.438,151.47C154.45,151.698 154.441,151.906 154.378,152.059C154.726,152.882 155.131,153.924 154.798,154.836C154.608,155.359 153.932,155.937 153.599,156.491C153.393,156.829 153.405,157.174 153.118,157.376C153.255,158.468 153.182,159.88 152.58,160.566ZM153.96,163.753C153.958,162.891 153.418,162.239 152.878,162.101C153.236,162.656 153.377,163.423 153.96,163.753ZM154.26,165.939C154.396,165.43 154.126,164.055 153.48,163.752C153.511,164.788 153.545,165.816 154.081,166.353C154.148,165.675 153.757,165.138 153.901,164.579C154.105,164.951 154.127,165.5 154.26,165.939ZM154.08,166.825C154.117,166.554 153.813,166.616 153.72,166.471C153.726,166.703 153.793,166.872 154.08,166.825ZM145.136,175.155C144.615,175.255 144.221,175.476 143.755,175.628C143.81,176.223 144.257,176.548 144.476,177.045C144.732,177.63 144.725,178.247 144.896,178.936C144.982,179.289 145.244,179.624 145.376,180C145.64,180.751 145.853,181.465 146.097,182.186C146.202,182.499 146.208,182.985 146.576,183.13C147.082,182.125 146.832,181.051 146.937,179.941C146.974,179.552 146.615,178.713 146.576,178.228C146.529,177.634 146.752,177.021 146.637,176.456C146.574,176.145 146.286,175.852 146.156,175.511C145.97,175.019 145.892,174.357 145.676,174.093C145.373,174.325 145.512,174.993 145.136,175.155Z"/>
    </g>
</svg>
