<?xml version="1.0" encoding="UTF-8" standalone="no"?>
<!DOCTYPE svg PUBLIC "-//W3C//DTD SVG 1.1//EN" "http://www.w3.org/Graphics/SVG/1.1/DTD/svg11.dtd">
<svg width="100%" height="100%" viewBox="0 0 33 54" version="1.1" xmlns="http://www.w3.org/2000/svg" xmlns:xlink="http://www.w3.org/1999/xlink" xml:space="preserve" xmlns:serif="http://www.serif.com/" style="fill-rule:evenodd;clip-rule:evenodd;stroke-linejoin:round;stroke-miterlimit:1.41421;">
    <g transform="matrix(1,0,0,1,-359.424,-247.591)">
        <path d="M391.584,247.591C391.581,249.721 391.688,251.842 391.69,254.024C391.693,255.57 391.668,257.342 391.656,258.873C391.651,259.259 391.747,259.682 391.762,259.999C391.789,260.562 391.675,261.156 391.69,261.756C391.711,262.545 391.724,263.311 391.69,264.075C391.679,264.305 391.752,264.513 391.762,264.743C391.813,265.991 391.69,267.326 391.69,268.608C391.69,268.812 391.727,269.006 391.726,269.206C391.719,270.741 391.613,272.837 391.69,274.548C391.715,275.107 391.622,275.637 391.726,276.129C391.676,277.225 391.611,279.18 391.762,280.102C391.651,280.623 391.688,281.229 391.583,281.613C388.879,281.561 385.461,281.684 382.797,281.613C382.39,281.601 381.998,281.675 381.617,281.754C381.526,282.378 381.094,282.666 380.797,283.089C380.641,283.969 380.29,284.44 379.904,285.092C379.997,285.576 379.861,286.28 379.797,286.674C379.807,286.84 379.991,286.93 379.797,287.025C380.002,287.512 380.113,287.943 380.226,288.467C380.123,288.583 379.974,288.46 379.905,288.571C380.141,289.399 380.118,290.789 380.047,291.98C380.233,292.231 380.184,292.482 380.154,292.79C380.109,293.252 380.258,293.864 380.047,294.159C380.172,294.448 380.057,294.97 380.227,295.214C380.142,295.551 380.306,295.839 380.37,296.163C380.591,297.28 380.423,298.481 380.62,299.571C380.659,299.787 380.625,300.082 380.69,300.308C381.072,300.463 382.075,300.075 382.12,300.519C382.139,300.69 381.627,301.008 381.263,301.118C380.742,301.276 380.169,301.092 379.943,301.471C379.45,301.449 378.867,301.466 378.442,301.294C378.509,301.126 378.797,301.205 378.976,301.258C379.023,301.086 378.888,301.09 378.799,301.047C378.869,300.852 378.799,300.572 378.799,300.415C378.081,300.366 376.769,300.415 376.192,300.344C376.233,300.148 376.513,300.237 376.692,300.24C377.347,300.249 378.192,300.315 378.799,300.24C378.647,299.79 378.724,299.297 378.656,298.764C378.554,297.964 378.335,297.124 378.263,296.338C378.24,296.092 378.302,295.792 378.298,295.6C378.278,294.899 377.874,294.199 377.691,293.527C377.61,293.232 377.644,292.95 377.477,292.683C377.312,292.785 377.353,292.993 377.297,293.14C377.192,293.435 376.973,293.741 376.941,294.019C376.883,294.522 376.876,295.163 376.906,295.671C376.911,295.764 376.988,295.71 377.013,295.811C377.05,295.962 376.971,296.398 376.941,296.656C376.813,297.759 376.43,298.619 376.37,299.749C376.235,299.932 376.071,300.087 376.085,300.416C375.88,300.485 375.558,300.437 375.299,300.451C375.175,300.431 375.227,300.242 375.12,300.205C374.305,300.456 373.26,300.281 372.798,299.784C373.358,299.417 373.911,299.474 374.656,299.326C374.519,298.572 374.832,297.617 374.834,296.656C374.835,296.408 374.77,296.143 374.799,295.881C374.826,295.644 374.93,295.439 374.906,295.215C374.896,295.127 374.83,295.103 374.799,295.005C374.577,294.319 374.952,293.589 374.906,292.896C374.808,291.436 374.885,289.75 375.155,288.328C374.516,288.371 374.55,289.246 373.906,289.171C373.8,289.491 374.014,289.553 373.977,289.804C373.968,289.864 373.773,290.207 373.691,290.296C373.634,290.358 373.311,290.489 373.298,290.542C373.265,290.684 373.642,290.818 373.548,290.998C373.335,291.187 373.053,291.415 372.692,291.35C371.964,292.717 372.416,295.083 371.834,296.586C371.802,297.156 371.912,297.688 371.763,298.097C371.214,298.335 370.394,298.14 369.692,298.063C369.803,297.904 370.348,297.96 370.692,297.993C370.951,298.018 371.181,298.153 371.407,298.133C371.698,297.755 371.347,296.979 371.478,296.622C371.127,296.448 371.299,296.103 371.299,295.709C371.299,295.468 371.169,295.189 371.156,294.9C371.141,294.592 371.223,294.254 371.192,293.986C371.173,293.84 371.126,293.772 371.121,293.565C371.115,293.436 371.077,293.235 371.05,293.072C370.99,292.733 370.904,292.252 370.799,291.914C370.606,291.286 370.512,291.037 369.943,290.859C369.913,290.696 369.79,290.386 369.943,290.261C369.458,290.075 369.735,289.42 370.014,289.171C370.266,289.128 370.428,289.241 370.619,289.171C370.981,289.037 371.129,288.086 371.264,287.764C371.363,287.672 371.44,287.797 371.549,287.801C371.625,287.662 371.506,287.456 371.549,287.238C371.444,287.14 371.362,287.42 371.229,287.308C370.98,286.883 370.678,285.999 371.371,285.761C371.584,285.002 371.524,283.965 371.514,283.267C371.5,283.124 371.665,283.16 371.694,283.057C371.626,282.987 371.621,282.869 371.55,282.811C371.38,282.67 371.133,282.734 370.943,282.635C370.902,282.614 370.909,282.517 370.836,282.458C370.505,282.195 369.965,281.942 369.658,281.649C369.434,281.438 369.326,281.202 369.015,281.051C368.944,281.496 369.036,281.953 369.086,282.388C369.19,283.302 369.295,284.187 369.3,285.093C369.304,285.641 369.245,286.181 369.264,286.71C369.28,287.118 369.33,287.439 369.264,287.8C369.24,287.929 369.144,288.043 369.121,288.187C369.08,288.45 369.147,288.752 369.121,289.064C369.023,290.215 369.086,291.622 369.051,292.86C369.031,293.526 368.892,294.256 369.193,294.83C369.035,295.827 369.426,297.199 369.658,298.167C369.691,298.309 369.748,298.596 369.728,298.73C369.686,299.034 369.393,299.106 369.228,299.327C369.801,299.452 370.446,299.416 370.978,299.294C371.748,299.516 372.47,299.04 373.194,299.187C372.781,299.378 372.248,299.323 371.657,299.399C371.176,299.46 370.761,299.674 370.336,299.751C369.419,299.911 368.572,299.801 367.8,299.82C367.725,299.887 367.799,300.1 367.694,300.137C367.043,300.208 366.544,299.889 365.801,299.89C364.954,299.891 364.703,299.495 364.016,299.117C363.445,298.804 362.803,298.542 362.302,298.239C361.729,298.146 361.155,298.053 360.729,297.817C360.697,297.499 361.146,296.667 361.051,296.34C360.963,296.037 360.191,295.906 360.015,295.638C359.85,295.21 359.315,294.92 359.444,294.267C359.46,294.19 359.405,294.131 359.551,294.127C359.444,294.04 359.5,293.91 359.515,293.739C359.674,293.568 359.985,293.546 360.337,293.564C360.187,293.323 359.658,293.626 359.585,293.352C359.854,293.141 360.498,293.265 360.836,293.141C361.055,293.062 361.066,292.904 361.229,292.791C361.464,292.049 361.886,291.303 361.908,290.471C361.973,290.44 362.02,290.393 362.052,290.33C362.041,289.521 362.378,288.754 362.48,287.939C362.571,287.228 362.312,286.93 362.266,286.394C362.241,286.089 362.208,285.748 362.303,285.479C362.124,285.283 362.228,285.073 362.158,284.847C362.105,284.666 361.934,284.546 361.873,284.389C361.806,284.218 361.882,284.002 361.73,283.898C361.938,283.262 361.988,282.68 362.194,282.21C362.257,282.07 362.425,281.984 362.445,281.824C362.485,281.466 362.141,281.127 362.014,280.841C361.931,280.651 361.892,280.362 361.766,280.104C361.625,279.818 361.328,279.591 361.301,279.365C361.263,279.048 361.574,278.742 361.301,278.487C361.342,278.167 361.646,277.967 361.8,277.678C361.953,277.391 362.032,276.879 362.194,276.518C362.262,276.368 362.384,276.277 362.409,276.131C362.443,275.927 362.334,275.681 362.337,275.429C362.358,273.63 362.486,271.858 362.409,270.263C362.15,270.364 361.934,270.248 361.766,270.158C361.687,269.298 360.798,268.36 361.658,267.698C361.421,267.257 360.853,266.991 360.944,266.327C360.962,266.191 361.17,265.711 361.266,265.588C361.42,265.395 361.691,265.278 361.944,265.201C362.165,265.268 362.218,265.495 362.479,265.518C362.538,265.178 361.976,265.148 361.766,264.955C361.364,264.041 362.016,263.486 362.516,263.022C362.424,261.821 362.469,260.646 362.479,259.296C362.508,259.176 362.446,259.142 362.373,259.12C362.497,259.075 362.54,258.802 362.337,258.805C362.342,258.702 362.489,258.744 362.48,258.629C362.543,258.449 362.326,258.547 362.337,258.419C362.359,258.369 362.474,258.412 362.48,258.35C362.455,258.152 362.226,258.093 362.517,258.031C362.431,257.934 362.492,257.854 362.337,257.787C362.378,257.708 362.478,257.69 362.517,257.611C362.331,257.438 362.44,257.22 362.48,256.978C362.387,255.232 362.505,253.103 362.446,250.581C362.723,250.335 362.903,250.332 363.41,250.301C366.527,250.105 369.731,249.599 372.945,249.353C375.738,249.137 378.509,248.86 381.266,248.579C384.674,248.226 388.131,248.003 391.584,247.591ZM363.833,251.458C363.861,251.773 363.692,252.119 363.869,252.337C363.674,253.447 363.753,254.667 363.762,255.815C363.779,258.031 363.699,260.259 363.762,262.493C364.281,262.399 364.492,262.716 364.869,262.563C365.231,262.845 365.77,263.084 366.048,263.546C365.971,263.569 365.935,263.446 365.941,263.582C366.195,263.861 366.546,264.127 366.585,264.53C366.61,264.801 366.355,265.042 366.371,265.303C366.38,265.458 366.528,265.533 366.548,265.689C366.579,265.919 366.407,266.048 366.514,266.216C367.011,265.835 368.101,266.005 367.978,266.779C367.939,267.025 367.399,267.485 367.084,267.552C367.103,267.675 367.138,267.781 367.12,267.939C367.199,268.037 367.325,267.761 367.441,267.905C367.561,268.085 367.234,268.087 367.263,268.289C367.534,268.479 367.932,268.547 368.047,268.888C367.991,269.019 367.83,269.048 367.727,269.133C367.845,269.328 367.767,269.533 367.834,269.766C367.887,269.953 368.046,270.068 368.012,270.259C367.978,270.448 367.816,270.432 367.619,270.575C367.362,270.763 367.114,271.118 366.619,270.997C366.751,271.289 366.733,271.727 366.869,272.016C367.198,272.114 367.593,272.147 367.904,272.262C368.351,273.108 369.555,273.46 369.549,274.581C369.543,275.191 368.981,275.731 368.904,276.338C368.756,277.558 369.47,278.339 369.87,279.36C370.313,279.685 370.616,280.298 370.833,280.732C372.788,280.798 374.779,280.791 376.726,280.732C376.703,280.472 376.529,280.237 376.763,280.099C376.604,280.03 376.475,279.849 376.618,279.676C376.201,279.473 376.541,279.097 376.834,279.009C376.619,278.688 377.002,278.639 376.977,278.376C376.948,278.075 376.398,278.067 376.37,277.638C376.731,277.422 376.946,277.835 377.264,277.885C377.45,277.587 377.633,277.288 377.763,276.935C377.949,276.789 378.303,276.892 378.514,276.935C378.765,277.338 379.138,277.553 379.584,277.918C379.887,278.165 380.355,278.555 380.334,278.867C380.323,279.039 380.145,279.186 380.013,279.359C379.954,279.438 379.635,279.745 379.621,279.781C379.566,279.923 379.664,280.039 379.621,280.134C379.51,280.369 379.071,280.42 379.12,280.696C379.731,280.627 380.217,280.693 380.763,280.661C381.308,280.424 381.459,279.799 381.943,279.501C382.147,278.578 382.826,278.123 383.264,277.428C383.379,277.389 383.522,277.378 383.585,277.287C383.623,276.763 383.895,276.467 384.228,276.232C384.337,276.388 384.354,276.641 384.299,276.864C384.697,276.701 384.992,275.934 385.515,276.232C385.209,276.539 385.148,276.782 385.157,277.287C385.189,277.383 385.452,277.253 385.443,277.392C385.368,278.026 384.585,277.786 384.263,278.129C384.213,278.343 384.433,278.291 384.406,278.482C383.895,279.127 383.532,279.918 383.121,280.661C385.615,280.717 388.506,280.54 390.551,280.557C390.616,279.051 390.494,277.307 390.585,275.881C390.667,274.614 390.604,273.14 390.585,271.875C390.533,268.064 390.546,264.151 390.551,260.733C390.413,256.783 390.413,253.098 390.37,248.924C381.985,249.644 372.672,250.554 363.833,251.458ZM363.69,271.103C363.855,271.01 364.124,271.013 364.156,270.788C363.971,270.907 363.816,270.83 363.655,270.752C363.664,270.871 363.628,271.036 363.69,271.103ZM364.584,272.191C364.548,271.778 364.05,271.709 363.69,271.666C363.704,272.17 363.627,272.586 363.655,273.105C363.955,272.927 364.626,272.686 364.584,272.191ZM363.726,278.483C363.64,278.595 363.547,278.706 363.406,278.763C363.798,279.165 363.381,279.736 363.691,280.169C363.966,280.116 364.014,279.841 364.191,279.677C364.366,279.515 364.626,279.447 364.798,279.291C365.198,278.931 365.313,278.239 365.263,277.674C365.169,277.659 365.156,277.57 365.047,277.569C364.953,277.626 364.991,277.816 364.762,277.816C364.405,277.664 364.424,277.139 364.12,276.936C363.938,277.475 363.651,277.741 363.726,278.483ZM373.117,281.785C373.101,281.956 373.23,281.982 373.226,282.139C372.947,282.214 372.722,282.346 372.44,282.419C372.37,282.385 372.384,282.265 372.262,282.279C372.274,282.578 372.032,282.243 371.905,282.384C372.003,283.156 372.008,283.936 371.939,284.738C372.132,284.961 372.211,285.234 372.119,285.617C372.224,285.701 372.424,285.694 372.513,285.792C372.578,286.184 372.468,286.772 372.227,287.022C372.098,287.042 372.066,286.868 371.976,286.954C371.976,287.198 371.976,287.445 371.976,287.69C372.529,287.932 372.242,289 372.976,289.06C373.497,287.526 374.164,286.164 374.906,284.738C374.751,284.56 374.958,284.419 374.871,284.213C374.924,284.171 374.971,284.124 375.014,284.071C374.985,283.875 375.093,283.76 375.014,283.614C375.058,283.403 375.227,283.258 375.335,282.982C375.463,282.652 375.359,282.254 375.513,282.031C375.636,281.856 375.87,281.923 375.943,281.716C375.011,281.75 374.086,281.675 373.117,281.785ZM375.013,287.937C375.14,287.921 375.185,287.826 375.191,287.691C375.123,287.676 375.128,287.591 375.013,287.62C374.959,287.677 374.959,287.88 375.013,287.937Z"/>
    </g>
</svg>
