<?xml version="1.0" encoding="UTF-8" standalone="no"?>
<!DOCTYPE svg PUBLIC "-//W3C//DTD SVG 1.1//EN" "http://www.w3.org/Graphics/SVG/1.1/DTD/svg11.dtd">
<svg width="100%" height="100%" viewBox="0 0 123 36" version="1.1" xmlns="http://www.w3.org/2000/svg" xmlns:xlink="http://www.w3.org/1999/xlink" xml:space="preserve" xmlns:serif="http://www.serif.com/" style="fill-rule:evenodd;clip-rule:evenodd;stroke-linejoin:round;stroke-miterlimit:1.41421;">
    <g transform="matrix(1,0,0,1,-174.623,-311.742)">
        <path d="M193.217,325.072C193.365,325.024 193.45,324.912 193.634,324.898C194.103,325.039 194.54,325.212 195.059,325.306C195.521,324.288 195.905,322.702 195.475,321.683C195.637,321.645 195.623,321.436 195.831,321.449C196.051,321.426 195.94,321.731 196.127,321.74C196.291,321.502 196.122,321.202 196.544,321.157C197.062,321.943 196.696,323.892 196.9,325.072C197.29,325.107 197.286,324.751 197.375,324.489C198.22,324.188 198.396,323.231 198.92,322.617C198.835,322.544 198.806,322.417 198.801,322.264C199.466,322.423 199.001,320.85 199.634,320.629C200.087,321.565 199.473,322.187 199.216,323.025C198.481,324.134 197.743,325.239 196.663,326.006C196.595,326.329 196.476,326.605 196.366,326.885C197.778,327.737 198.765,329.004 200.167,329.865C200.303,328.497 200.636,327.324 201.238,326.417C201.312,325.982 201.365,325.528 201.713,325.362C202.295,326.524 201.114,328.353 201.892,329.456C201.869,327.721 202.526,326.122 202.188,324.545C202.457,324.359 202.318,323.777 202.723,323.727C202.872,325.784 202.393,328.17 202.188,329.983C202.625,329.652 202.448,329.051 202.606,328.581C202.677,328.359 202.893,328.169 202.961,327.937C202.998,327.812 202.934,327.656 202.961,327.529C203.114,326.78 203.678,326.01 203.793,325.306C203.917,324.529 203.722,323.562 204.446,323.143C204.86,323.5 204.351,323.964 204.506,324.429C204.479,324.616 204.279,324.636 204.269,324.838C203.739,326.927 203.085,329.13 202.308,330.743C202.502,330.804 202.517,331.041 202.607,331.211C203.218,331.404 203.787,331.893 204.328,331.969C204.657,332.505 205.306,332.693 205.813,333.081C206.535,333.634 207.121,334.495 208.071,334.541C207.903,334.318 207.728,334.098 207.596,333.842C206.701,333.057 205.864,332.25 204.924,331.62C204.412,331.278 203.696,331.022 203.438,330.509C204.008,330.218 204.522,330.897 205.042,331.035C205.582,331.616 206.202,332.115 206.944,332.496C207.394,333.288 208.095,333.872 208.725,334.427C208.54,333.907 208.204,333.534 207.773,333.256C207.498,331.931 206.003,331.805 205.576,330.625C206.569,330.684 207.062,331.734 207.773,332.262C208.008,332.7 208.364,333.314 208.725,333.434C208.598,332.288 208.285,331.33 208.013,330.334C207.366,329.818 206.6,329.422 206.586,328.287C207.46,328.117 207.257,327.427 207.357,326.708C207.47,325.902 207.902,324.911 208.07,323.96C208.195,323.252 208.37,322.996 208.665,322.442C208.878,322.035 208.976,321.565 209.141,321.27C209.684,320.284 210.445,319.788 211.101,318.814C210.994,318.65 210.789,318.577 210.863,318.23C211.004,318.018 211.299,317.957 211.694,317.998C211.868,317.329 212.56,317.058 213.298,317.413C213.448,317.326 213.508,317.15 213.596,317.005C213.2,316.847 212.672,316.824 212.528,316.42C212.865,316.061 213.358,316.026 213.359,315.484C213.359,315.076 212.907,314.642 212.942,314.139C212.984,313.547 213.313,313.439 213.536,312.912C213.335,312.896 213.351,312.664 213.298,312.503C213.589,312.436 213.902,312.395 214.132,312.27C214.196,312.12 213.928,311.967 214.19,311.977C214.93,311.769 216.487,312.015 217.221,311.742C218.043,311.863 218.994,311.965 219.835,312.33C219.892,312.543 220.084,312.629 220.251,312.738C220.498,313.823 222.141,314.083 221.914,315.25C221.272,315.518 220.575,315.726 219.954,315.719C220.007,316.245 219.429,316.339 219.36,316.772C219.298,317.154 219.62,317.415 219.598,317.941C219.159,318.462 218.424,318.696 217.936,319.168C217.958,319.445 217.915,319.656 217.875,319.87C217.134,320.458 216.268,319.679 215.796,319.285C215.532,319.472 215.224,319.618 215.023,319.87C214.977,320.583 215.664,320.886 215.915,321.388C216.197,321.958 216.09,322.699 216.627,323.201C216.795,323.141 216.875,323.141 217.043,323.201C217.125,323.761 217.614,323.979 217.637,324.43C217.645,324.609 217.443,324.794 217.461,325.016C217.497,325.491 218.108,325.942 218.349,326.243C218.64,326.602 218.968,327.112 219.419,327.297C220.146,327.589 221.659,327.689 222.332,327.353C222.875,327.082 223.122,326.426 223.637,326.301C224.002,326.214 224.553,326.401 225.003,326.301C225.302,326.236 225.378,325.969 225.657,326.07C225.945,326.057 225.865,326.41 226.133,326.42C229.12,325.977 231.592,325.518 234.273,324.956C234.722,324.423 235.132,324.521 235.758,324.548C236.58,324.584 237.529,324.021 238.491,323.848C240.545,323.477 242.992,322.671 244.847,322.446C245.993,322.305 247.131,321.692 248.115,321.568C249.685,321.369 250.861,320.829 252.213,320.573C252.31,320.471 252.331,320.3 252.452,320.223C252.746,320.163 252.769,320.378 252.986,320.397C253.284,320.261 253.643,320.188 254.116,320.223C255.17,319.847 256.417,319.473 257.68,319.111C258.519,318.872 259.458,318.844 260.176,318.585C260.526,318.459 260.775,318.196 261.125,318.176C261.714,318.148 262.007,318.361 262.493,318.176C262.593,318.139 262.672,317.986 262.788,317.945C263.287,317.769 263.93,317.706 264.512,317.536C264.911,317.418 265.248,317.174 265.641,317.128C265.858,317.098 266.129,317.167 266.353,317.128C267.251,316.962 268.121,316.396 269.024,316.132C269.846,315.893 270.659,315.893 271.343,315.489C271.536,315.394 271.664,315.462 271.877,315.489C272.12,315.202 272.359,314.911 272.65,314.671C273.66,314.957 274.17,313.861 275.145,313.735C275.758,314.968 273.3,314.676 273.064,315.489C273.007,315.69 273.162,315.89 273.183,316.132C273.292,317.381 273.086,319.458 273.54,320.342C273.536,321.43 273.607,322.13 273.599,322.795C273.596,323.185 273.509,323.502 273.54,323.788C273.61,324.44 273.914,325.101 273.957,325.836C273.964,325.979 273.834,326.155 273.897,326.304C273.992,327.01 274.356,327.697 274.312,328.352C275.115,329.445 274.749,331.344 275.62,332.383C275.607,333.111 275.783,333.89 276.215,334.432C276.248,334.619 276.172,334.703 276.155,334.84C276.458,334.793 276.218,335.283 276.511,335.248C276.791,336.512 277.31,337.542 277.878,338.523C277.684,339.094 278.189,339.106 278.233,339.692C278.366,339.834 278.471,340.002 278.65,340.102C279.007,341.074 279.733,341.685 280.193,342.557C281.464,343.545 282.264,345.003 283.997,345.536C284.063,345.667 284.231,345.694 284.293,345.829C284.926,345.948 285.496,346.124 286.016,346.355C287.147,346.257 288.089,346.433 289.166,346.414C290.697,346.384 292.167,345.54 293.265,344.893C294.227,344.328 294.904,343.384 295.997,342.907C296.129,342.933 296.54,343.188 296.532,343.551C296.471,343.763 296.278,343.846 296.116,343.958C296.262,344.304 296.54,344.516 296.592,344.953C296.403,345.39 296.073,345.69 296.116,346.356C296.377,346.372 296.574,346.45 296.888,346.415C296.957,347.1 296.547,346.98 296.292,346.999C295.864,347.03 295.326,346.869 294.866,346.883C292.076,346.964 288.752,347.034 285.778,346.94C284.524,346.902 283.288,346.983 282.035,347C281.636,347.005 281.234,346.881 280.846,346.884C280.222,346.884 279.505,347.003 279.065,347C276.371,346.974 273.742,347.041 271.164,346.94C269.981,346.895 268.735,347.038 267.6,346.94C265.94,346.799 264.214,346.986 262.55,347C261.827,347.005 261.077,346.967 260.352,346.94C258.406,346.878 256.211,347 254.411,346.94C251.92,346.859 249.078,346.961 246.51,346.883C242.248,346.753 237.902,346.802 233.678,346.706C231.316,346.652 228.807,347.054 226.727,346.706C222.81,347.04 218.791,346.623 215.201,346.883C213.439,346.659 211.363,346.926 209.558,346.65C208.26,346.781 207.14,346.804 205.873,346.765C202.28,346.653 198.578,346.549 194.883,346.765C194.813,346.64 194.48,346.774 194.467,346.59C194.097,346.868 193.707,346.613 193.338,346.59C192.236,346.521 191.048,346.679 189.892,346.706C188.933,346.73 187.958,346.641 186.982,346.649C183.419,346.68 179.989,346.742 176.585,346.649C176.078,346.634 175.581,346.854 175.099,346.532C174.923,345.803 175.019,344.546 174.982,343.609C174.794,339.109 174.696,334.016 174.802,329.577C174.814,329.088 174.789,328.525 174.743,328.056C174.588,326.462 174.818,324.471 174.623,322.794C174.849,322.431 174.981,322.112 175.04,321.86C175.431,322.001 175.664,321.741 176.05,321.86C176.093,321.415 175.94,320.291 176.466,319.873C176.959,319.934 176.955,320.481 177.12,320.867C177.266,320.738 177.135,320.336 177.417,320.341C177.851,320.762 177.736,321.666 177.833,322.154C178.082,322.311 178.113,322.452 178.13,322.737C178.401,322.841 178.684,322.933 178.96,323.029C179.027,323.621 179.722,323.635 180.327,323.849C180.614,323.95 180.845,324.223 181.098,324.316C181.786,324.567 182.891,324.386 183.654,324.082C183.432,323.717 183.135,323.424 183.058,322.915C182.951,322.866 182.802,322.789 182.644,322.681C182.54,322.61 182.267,322.48 182.227,322.448C181.764,322.041 181.394,321.271 181.04,320.692C180.721,320.174 180.107,319.816 180.862,319.465C181.342,319.789 181.143,320.784 181.871,320.868C181.879,320.613 181.704,320.542 181.814,320.342C182.42,320.352 182.48,320.99 182.644,321.335C182.799,321.66 182.948,322.078 183.237,322.388C183.383,322.378 183.523,322.378 183.595,322.448C183.539,322.698 183.614,322.958 183.771,323.148C184.081,323.517 185.219,324.103 185.673,324.027C184.949,322.993 183.727,322.195 183.595,320.925C184.355,321.421 184.625,322.254 185.375,322.855C185.428,323.133 185.657,323.492 185.911,323.381C185.813,322.99 185.501,322.808 185.317,322.507C185.797,321.804 184.629,321.052 185.137,320.049C185.713,321.14 185.925,321.81 186.148,323.089C186.506,323.345 186.184,323.909 186.625,324.082C186.607,323.285 186.354,322.385 186.683,321.744C186.452,321.633 186.388,321.032 186.507,320.634C186.214,320.084 186.1,319.359 185.793,318.82C185.459,318.697 185.21,318.26 185.376,317.827C186.1,317.845 186.167,318.444 186.444,318.938C187.129,320.146 187.742,321.5 187.752,322.971C188.231,323.655 189.153,323.215 189.951,323.381C190.415,323.479 190.788,324.05 191.317,323.907C191.898,324.194 191.983,324.969 192.267,325.544C192.473,325.55 192.547,325.432 192.684,325.367C192.694,325.102 192.713,324.795 192.447,324.958C192.415,324.752 192.656,324.814 192.624,324.609C192.119,323.874 192.199,322.401 191.911,321.628C192.126,321.624 191.925,321.213 192.208,321.275C192.791,322.092 192.601,323.851 193.217,325.072ZM272.647,315.777C272.245,316.106 272.225,316.568 271.935,316.946C270.888,318.313 269.021,318.924 267.181,319.519C265.353,319.578 262.919,319.752 261.657,318.815C261.29,318.944 260.787,318.937 260.467,319.108C259.673,319.813 258.927,320.864 257.736,320.979C258.126,320.704 258.344,320.253 258.924,320.161C258.898,319.94 259.042,319.888 259.102,319.752C259.395,319.692 259.684,319.623 259.815,319.401C259.131,319.303 257.921,319.677 257.261,319.985C255.862,320.212 254.791,320.508 253.519,320.921C253.652,321.249 254.232,321.359 254.587,321.388C255.131,321.436 255.708,321.398 256.428,321.388C256.423,321.543 255.917,321.705 255.716,321.858C254.26,322.001 253.558,321.1 252.329,321.216C252.117,321.75 252.475,321.971 252.209,322.384C251.648,322.228 252.225,321.687 251.735,321.388C251.123,321.443 250.585,321.635 250.011,321.914C249.723,322.06 249.424,322.342 249.121,322.384C248.89,322.417 248.716,322.273 248.467,322.265C247.566,322.244 246.436,322.912 245.438,323.085C245.243,323.117 245.044,323.055 244.844,323.085C244.423,323.15 244.029,323.41 243.596,323.493C242.792,323.653 241.947,323.736 241.161,323.961C239.547,324.425 238.151,324.744 236.645,325.249C236.545,325.344 236.351,325.228 236.229,325.249C235.54,325.37 234.409,325.875 233.614,326.068C232.935,326.229 232.097,326.324 231.299,326.477C230.418,326.644 229.592,326.938 228.921,327.061C228.077,327.214 226.845,327.141 226.307,327.529C226.136,327.651 225.365,329.07 225.416,329.339C225.497,329.752 226.199,329.914 226.604,330.393C226.696,330.5 226.766,330.746 226.902,330.918C227.279,331.4 227.961,332.115 227.852,333.082C227.757,333.922 227.195,335.357 226.366,334.311C226.306,334.026 226.468,333.75 226.366,333.609C226.158,333.735 226.217,334.125 225.891,334.134C225.265,333.975 225.805,333.403 225.831,333.023C225.876,332.371 225.459,332.108 225.059,331.737C224.18,333.55 223.222,335.347 222.147,336.998C221.411,338.132 220.774,339.286 220.126,340.448C220.282,340.803 220.757,340.841 220.899,341.209C220.718,341.659 220.25,341.919 219.711,341.853C218.878,343.004 220.368,344.115 220.958,344.951C221.318,344.884 221.501,344.573 221.85,344.658C222.481,344.815 222.289,346.009 221.552,346.004C222.157,346.464 222.976,346.135 223.632,346.121C224.297,346.104 224.954,346.142 225.652,346.121C226.124,346.106 226.652,346.114 227.138,346.121C233.527,346.186 239.916,346.234 246.386,346.121C246.798,346.111 247.25,346.29 247.695,346.295C248.574,346.31 249.48,346.229 250.487,346.237C251.075,346.245 251.839,346.366 252.151,346.06C252.401,346.316 253.303,346.27 253.815,346.237C254.505,346.19 255.207,346.291 255.895,346.295C258.665,346.318 261.438,346.231 264.033,346.295C267.499,346.383 271.053,346.364 274.31,346.237C275.865,346.176 277.418,346.366 278.946,346.354C280.94,346.338 282.848,346.283 284.411,346.354C284.24,346.074 283.895,345.964 283.52,345.884C280.499,344.005 278.398,341.221 276.926,337.818C276.815,337.732 276.777,337.575 276.628,337.525C276.54,337.104 276.371,336.454 276.153,336.357C276.182,336.115 275.928,335.767 276.034,335.422C275.73,335.234 275.686,334.789 275.441,334.543C275.268,332.949 274.261,331.899 274.31,330.277C273.706,328.167 273.206,326.054 273.301,323.785C272.738,323.255 273.206,322.406 273.124,321.566C273.064,320.969 272.955,320.272 272.767,319.812C272.888,318.683 272.752,316.99 272.647,315.777ZM271.935,315.953C271.61,316.002 271.356,316.125 271.162,316.303C268.003,316.968 265.473,318.018 262.369,318.645C262.724,319.147 263.711,318.94 264.15,319.228C264.814,319.238 265.398,319.069 265.933,319.051C266.28,319.04 266.579,319.211 266.826,319.168C267.078,319.123 267.284,318.807 267.656,318.992C268.351,318.38 269.631,318.649 270.093,317.765C271.107,317.594 271.872,316.867 271.935,315.953ZM181.87,320.979C181.797,321.213 182.214,321.259 182.049,321.387C182.087,321.468 182.175,321.497 182.288,321.505C182.187,321.29 182.17,320.997 181.87,320.979ZM176.702,321.506C176.642,321.506 176.583,321.506 176.523,321.506C176.413,321.984 176.543,322.117 176.345,322.617C176.451,322.777 176.73,322.837 176.938,322.733C177.009,322.131 176.724,321.867 176.702,321.506ZM186.92,321.8C187.034,322.297 186.912,322.972 186.98,323.611C187.702,323.46 187.326,321.909 186.92,321.8ZM175.513,322.209C175.367,322.2 175.226,322.198 175.157,322.265C175.245,322.434 175.281,322.651 175.572,322.618C175.606,322.428 175.532,322.346 175.513,322.209ZM177.415,322.559C177.397,322.712 177.436,322.81 177.593,322.791C177.61,322.642 177.571,322.541 177.415,322.559ZM196.366,322.617C196.307,322.617 196.247,322.617 196.188,322.617C196.05,322.869 195.983,323.503 196.07,323.961C196.445,323.751 196.451,323.123 196.366,322.617ZM196.366,324.664C195.863,325.048 195.791,325.852 195.295,326.242C196.119,326.443 196.482,325.388 196.366,324.664ZM195.831,326.535C195.838,326.682 196.051,326.671 196.127,326.595C196.123,326.443 195.906,326.455 195.831,326.535ZM215.852,327.002C215.652,327.356 215.989,327.63 215.912,328.053C216.068,328.229 216.509,328.381 216.803,328.229C216.549,327.759 216.229,327.352 215.852,327.002ZM201.178,327.762C201.109,327.753 201.072,327.775 201.06,327.82C200.945,328.719 200.115,330.1 200.88,330.685C201.192,330.16 200.83,329.615 200.88,329.106C200.928,328.636 201.439,328.203 201.178,327.762ZM213.654,327.879C213.594,327.879 213.535,327.879 213.477,327.879C213.414,328.031 213.404,328.237 213.416,328.463C213.579,328.498 213.664,328.609 213.832,328.638C213.803,328.356 213.723,328.122 213.654,327.879ZM213.831,329.049C213.641,329.073 213.629,329.274 213.535,329.399C213.603,329.646 213.783,329.777 213.891,329.984C213.766,330.232 213.627,330.463 213.416,330.627C213.755,331.052 214.983,331.014 215.258,330.451C214.311,330.446 213.99,329.828 213.831,329.049ZM201.534,329.926C201.246,330.113 201.409,330.526 201.713,330.626C201.581,330.368 201.795,330.092 201.534,329.926ZM201.237,331.036C201.27,331.217 201.308,331.393 201.533,331.388C201.559,331.146 201.473,331.017 201.237,331.036ZM202.366,331.563C202.261,331.616 202.182,331.694 202.128,331.796C202.328,332.343 202.632,333.088 203.376,332.905C203.2,332.302 202.647,332.064 202.366,331.563ZM203.257,331.97C203.336,332.465 204.057,332.818 204.386,333.257C204.554,333.306 204.542,333.175 204.682,333.198C204.77,333.249 204.812,333.346 204.801,333.491C205.175,333.506 205.483,333.853 205.811,333.724C205.081,333.022 204.168,332.497 203.257,331.97ZM218.408,334.836C217.971,334.991 217.415,335.027 217.1,335.304C217.402,335.194 217.792,335.365 218.227,335.304C218.314,335.174 218.409,335.052 218.408,334.836ZM204.624,335.421C204.59,335.647 204.812,335.623 204.861,335.772C204.877,336.192 204.356,336.297 204.208,335.948C204.217,335.741 204.378,335.685 204.386,335.48C204.289,335.392 204.088,335.531 203.851,335.48C203.895,335.766 203.895,335.834 203.851,336.122C204.334,336.427 204.997,336.556 205.693,336.648C205.942,336.367 206.68,336.569 206.525,335.888C205.903,335.737 205.208,335.247 204.624,335.421ZM203.613,335.479C203.342,335.596 202.982,335.623 202.722,335.479C202.5,335.542 202.296,335.708 202.426,335.947C202.872,335.935 203.189,336.053 203.613,336.061C203.45,335.89 203.501,335.664 203.613,335.479ZM216.15,335.888C215.418,336.045 214.9,336.411 214.189,336.589C214.693,336.969 214.941,337.603 215.318,338.11C215.307,338.873 215.077,339.848 215.318,340.567C215.5,341.106 216.049,341.431 216.447,341.793C217.693,341.362 217.441,339.461 216.565,338.755C216.726,338.029 216.058,336.89 216.15,335.888ZM201.891,337.175C201.841,337.319 201.812,337.488 201.831,337.7C202.532,337.513 203.43,337.521 203.97,337.175C203.383,336.823 202.381,336.945 201.891,337.175ZM294.213,344.833C293.333,345.388 292.242,345.738 291.42,346.353C292.478,346.32 293.097,346.349 294.332,346.293C294.312,346.01 294.284,345.257 294.213,344.833ZM218.408,345.709C218.277,345.717 218.382,345.956 218.346,346.059C218.521,346.045 218.531,346.191 218.703,346.176C218.841,345.985 218.457,345.899 218.408,345.709Z"/>
    </g>
</svg>
