<?xml version="1.0" encoding="UTF-8" standalone="no"?>
<!DOCTYPE svg PUBLIC "-//W3C//DTD SVG 1.1//EN" "http://www.w3.org/Graphics/SVG/1.1/DTD/svg11.dtd">
<svg width="100%" height="100%" viewBox="0 0 52 169" version="1.1" xmlns="http://www.w3.org/2000/svg" xmlns:xlink="http://www.w3.org/1999/xlink" xml:space="preserve" xmlns:serif="http://www.serif.com/" style="fill-rule:evenodd;clip-rule:evenodd;stroke-linejoin:round;stroke-miterlimit:1.41421;">
    <g transform="matrix(1,0,0,1,-582.43,-13.0054)">
        <path d="M628.014,40.233C628.077,40.224 628.139,40.212 628.201,40.202C628.141,40.342 628.078,40.327 628.014,40.449C628.453,41.168 629.539,41.645 630.212,42.148C630.756,42.59 631.303,43.033 631.849,43.476C632.65,43.939 633.23,43.852 633.518,44.835C634.193,47.121 633.511,50.139 633.056,52.091C632.974,52.657 632.891,53.223 632.809,53.789C631.187,60.449 629.493,66.518 626.468,71.699C626.008,72.488 625.712,73.326 625.198,74.045C624.847,74.543 624.263,74.959 623.963,75.466C623.5,76.244 623.399,76.793 622.633,77.258C622.347,77.431 622.002,77.624 621.644,77.69C620.889,77.829 619.096,77.465 618.49,77.319C618.005,77.267 617.52,77.215 617.036,77.165C614.933,76.744 612.528,76.492 610.356,76.021C607.885,75.485 605.373,74.782 603.026,74.076C601.414,73.59 598.557,73.821 597.861,72.471C596.931,70.665 598.268,67.681 599.006,66.511C599.346,65.934 599.687,65.359 600.027,64.782C600.296,64.524 600.562,64.269 600.831,64.009C600.944,63.866 601.058,63.722 601.173,63.578C602.282,63.143 604.51,64.174 605.44,64.413C608.563,65.206 611.771,66.295 614.503,67.531C614.817,67.673 615.026,68.057 615.337,68.24C615.583,68.333 615.832,68.426 616.079,68.517C616.429,68.743 616.524,69.12 617.038,69.229C619.747,69.797 624.306,68.598 623.779,66.233C624.404,66.02 626.798,64.902 626.191,64.009C626.792,63.934 627.222,63.618 627.212,62.93C627.014,62.517 626.549,62.46 626.068,62.343C626.079,62.322 626.088,62.302 626.099,62.28C626.274,62.207 626.415,61.926 626.346,61.725C626.14,60.831 622.987,60.883 621.862,61.107C621.399,61.219 620.935,61.333 620.47,61.446C620.47,61.436 620.47,61.425 620.47,61.416C620.533,61.23 620.595,61.045 620.657,60.859C620.77,60.736 620.883,60.613 620.997,60.489C621.274,59.7 621.252,58.952 621.523,58.235C621.751,57.624 622.183,57.082 622.387,56.505C622.7,55.624 622.991,54.729 623.377,53.851C623.59,53.367 624.384,51.521 624.148,50.979C624.108,50.979 624.067,50.979 624.026,50.979C624.005,51.01 623.984,51.04 623.964,51.07C623.641,51.911 623.548,52.67 623.252,53.51C622.87,54.477 622.49,55.446 622.109,56.413C621.851,57.138 621.373,57.835 621.088,58.636C620.894,59.177 620.961,59.829 620.716,60.396C620.555,60.777 620.207,60.915 620.191,61.54C618.882,61.658 617.408,62.33 616.511,62.961C615.379,63.755 614.346,65.034 612.8,65.399C612.275,65.379 611.748,65.358 611.223,65.339C609.653,65.633 608.601,65.052 607.358,64.657C605.634,64.164 603.914,63.67 602.192,63.176C601.831,62.352 601.47,61.528 601.109,60.705C600.398,58.709 600.372,55.73 599.996,53.511C599.89,52.879 600.022,51.845 600.12,51.288C600.223,50.485 600.325,49.681 600.429,48.878C600.766,47.27 601.164,45.151 600.8,43.198C600.779,43.186 600.759,43.177 600.737,43.167C600.696,43.167 600.655,43.167 600.616,43.167C600.594,43.187 600.573,43.208 600.553,43.228C600.574,44.207 600.594,45.185 600.616,46.161C600.42,47.199 600.3,48.336 600.089,49.405C599.884,50.45 599.805,51.514 599.749,52.772C599.738,53.039 599.728,53.307 599.719,53.575C600.126,55.843 600.099,58.699 600.831,60.768C601.173,61.551 601.512,62.333 601.851,63.116C601.842,63.116 601.831,63.116 601.823,63.116C601.063,62.653 600.351,62.031 599.347,61.85C598.478,61.691 597.647,62.118 597.46,62.653C597.41,62.88 597.357,63.106 597.307,63.332C597.049,63.796 596.791,64.258 596.534,64.722C596.405,65.172 596.66,65.542 596.72,65.832C596.72,66.161 596.72,66.49 596.72,66.82C596.877,67.377 597.504,67.809 597.832,68.241C597.481,69.512 597.142,70.767 597.523,72.163C597.564,72.348 597.604,72.534 597.647,72.719C598.53,73.983 600.702,73.835 602.471,74.231C603.647,74.569 604.822,74.911 605.996,75.25C606.967,75.477 607.935,75.704 608.904,75.929C609.832,76.183 610.909,76.498 611.964,76.578C611.87,77.027 611.833,77.679 611.873,78.245C610.636,78.276 609.141,77.187 608.006,76.826C605.74,76.101 603.027,75.959 600.49,75.466C599.914,75.424 599.337,75.384 598.76,75.342C598.091,75.222 597.501,75.032 596.936,74.818C596.031,74.475 594.9,74.395 594.4,73.646C594.141,73.077 593.883,72.512 593.627,71.947C593.223,71.257 592.693,70.639 592.515,69.723C592.301,68.64 592.867,67.934 593.072,67.221C593.051,66.912 593.029,66.603 593.009,66.295C593.096,65.845 593.345,65.503 593.441,65.121C593.66,63.671 593.876,62.22 594.092,60.767C594.452,59.454 595.116,58.466 595.639,57.278C595.791,56.991 595.948,56.701 596.101,56.415C596.308,55.711 596.096,54.866 596.288,54.223C596.622,53.097 597.297,52.226 597.648,51.196C597.73,50.68 597.812,50.167 597.894,49.651C598.142,48.84 598.389,48.026 598.636,47.213C598.705,46.867 598.568,46.499 598.668,46.162C598.9,45.391 599.445,44.81 599.657,44.003C599.962,42.84 599.887,41.936 600.461,41.131C600.808,40.644 601.429,40.068 602.1,39.925C602.39,39.925 602.677,39.925 602.967,39.925C603.691,39.709 604.496,39.39 605.224,39.06C606.355,38.551 607.144,37.81 608.102,37.148C608.501,36.89 608.906,36.632 609.307,36.375C609.317,36.293 609.328,36.21 609.338,36.129C609.65,35.74 610.484,35.422 610.854,34.954C610.842,34.934 610.833,34.913 610.823,34.893C610.752,34.831 610.677,34.768 610.605,34.708C610.399,34.729 609.942,34.969 609.679,34.831C608.006,33.943 607.243,32.242 606.461,30.476C605.988,29.409 605.224,28.329 605.133,26.894C605.074,26.002 605.463,25.15 605.596,24.362C605.752,23.448 605.433,22.414 605.658,21.429C605.802,21.109 605.946,20.789 606.09,20.47C606.366,19.648 606.506,18.976 606.804,18.185C606.969,17.917 607.134,17.649 607.299,17.382C607.299,17.258 607.299,17.136 607.299,17.012C607.379,16.96 607.462,16.908 607.544,16.857C607.716,16.52 607.746,16.218 607.945,15.9C608.123,15.735 608.297,15.57 608.474,15.407C608.626,15.143 608.789,14.805 609.029,14.634C609.593,14.232 610.353,14.208 611.07,13.955C611.683,13.738 612.403,13.208 613.079,13.059C613.703,12.922 614.158,13.087 614.658,13.12C614.834,13.089 615.008,13.059 615.182,13.029C615.37,13.12 615.555,13.214 615.74,13.307C616.279,13.459 616.896,12.992 617.472,13.244C617.85,13.411 618.001,13.954 618.184,14.14C618.884,14.115 619.163,14.809 619.604,15.128C619.729,15.159 619.854,15.189 619.977,15.221C620.226,15.363 620.824,15.869 621.029,16.084C621.236,16.304 621.267,16.62 621.524,16.794C621.793,16.979 622.149,16.922 622.328,17.195C622.701,17.766 622.838,18.698 623.07,19.388C623.271,19.99 623.016,20.455 623.223,20.994C623.401,21.454 624.062,21.674 624.336,22.075C624.295,22.064 624.255,22.053 624.213,22.043C624.47,22.393 624.729,22.743 624.986,23.093C625.696,24.199 626.462,25.447 626.934,26.736C627.425,28.07 627.627,29.668 627.922,31.029C628.064,31.666 627.651,31.896 627.8,32.386C627.929,32.809 628.169,33.228 628.263,33.714C628.395,34.391 627.844,34.959 627.893,35.411C627.976,36.15 628.188,36.689 628.233,37.543C628.192,37.606 628.151,37.665 628.109,37.728C628.031,38.063 628.277,38.645 628.203,39.116C628.139,39.492 628.076,39.863 628.014,40.233ZM621.396,33.039C620.189,35.378 618.546,37.275 617.096,39.338C616.418,40.302 615.859,41.269 615.148,42.18C614.399,43.138 613.288,43.863 612.644,44.929C612.397,45.336 612.674,46.218 612.55,46.718C612.375,47.068 612.199,47.419 612.027,47.767C611.896,48.211 612.106,48.755 611.933,49.096C611.922,49.096 611.912,49.096 611.902,49.096C611.747,47.684 610.669,47.451 610.263,46.503C610.209,46.029 610.159,45.556 610.106,45.083C610.271,44.589 610.436,44.092 610.601,43.6C610.779,42.735 610.954,41.87 611.128,41.006C611.354,40.246 611.862,39.314 611.685,38.257C611.514,37.253 611.675,35.745 611.037,35.293C610.625,35.529 610.407,35.945 610.045,36.218C608.796,37.164 607.543,38.11 606.15,38.906C605.561,39.194 604.972,39.483 604.387,39.771C604.097,40.007 603.809,40.245 603.519,40.481C603.209,40.691 602.603,40.722 602.405,41.037C602.396,41.069 602.386,41.099 602.376,41.131C602.982,41.542 604.078,41.787 604.91,41.439C604.771,42.228 605.386,42.787 605.777,43.323C606.004,43.735 606.233,44.146 606.458,44.556C606.891,45.083 607.324,45.607 607.758,46.132C608.099,46.556 608.742,46.736 608.84,47.398C608.896,47.773 608.55,48.197 608.437,48.479C608.222,49.22 608.004,49.961 607.79,50.703C607.315,52.648 606.841,54.594 606.367,56.537C606.179,57.351 605.798,58.567 606.025,59.658C606.332,61.111 606.705,62.245 607.419,63.271C607.501,63.26 607.584,63.249 607.666,63.239C608.679,62.454 608.678,61.013 608.964,59.472C609.37,57.296 609.575,55.261 610.14,53.266C610.746,52.452 611.357,51.638 611.963,50.826C613.272,48.691 614.465,46.522 615.954,44.589C616.413,43.991 616.885,43.131 617.561,42.766C619.096,43.085 619.551,45.153 620.902,45.33C621.278,44.803 621.451,42.958 621.673,42.211C622.159,40.574 622.643,38.937 623.128,37.299C623.216,36.892 622.882,36.46 622.786,36.158C622.424,35.003 622.309,33.782 621.551,33.038C621.5,33.039 621.448,33.039 621.396,33.039ZM616.912,41.438C616.932,41.438 616.953,41.438 616.975,41.438C616.953,41.438 616.932,41.438 616.912,41.438ZM615.613,42.271C616.232,42.257 617.088,42.236 617.436,42.519C617.426,42.54 617.415,42.56 617.407,42.581C617.365,42.601 617.323,42.622 617.283,42.642C616.639,42.517 615.776,42.349 615.086,42.611C615.169,42.508 615.252,42.405 615.334,42.301C615.344,42.301 615.355,42.301 615.366,42.301C615.448,42.292 615.53,42.282 615.613,42.271ZM614.562,45.976C614.645,46.021 614.588,45.993 614.562,46.071C614.562,46.039 614.562,46.009 614.562,45.976ZM623.437,61.293C624.364,61.275 625.411,61.262 626.003,61.603C626.044,61.74 626.066,61.817 626.035,61.974C625.511,62.56 623.471,62.335 622.447,62.53C621.665,62.798 620.88,63.064 620.097,63.332C619.438,63.53 618.938,63.328 618.427,63.579C618.427,63.59 618.427,63.6 618.427,63.611C618.454,63.75 618.422,63.703 618.519,63.765C619.093,63.985 620.502,63.479 620.932,63.332C621.406,63.167 621.88,63.003 622.354,62.838C622.962,62.807 623.571,62.775 624.179,62.744C625.209,62.557 625.972,62.411 626.9,62.898C626.927,63.03 626.929,63.153 626.869,63.27C626.612,63.817 625.773,63.756 625.17,63.918C623.757,64.33 622.346,64.74 620.933,65.152C620.415,65.295 619.248,65.272 618.986,65.677C619.014,65.719 619.048,65.76 619.078,65.8C620.687,65.766 622.641,64.913 624.119,64.536C624.538,64.428 625.335,63.998 625.788,64.134C625.871,64.175 625.953,64.217 626.036,64.258C625.89,65.038 625.094,65.199 624.49,65.525C622.966,66.344 621.439,66.933 619.543,67.409C619.53,67.43 619.521,67.45 619.51,67.471C619.521,67.501 619.531,67.533 619.543,67.563C619.562,67.594 619.581,67.624 619.602,67.655C620.706,67.584 621.695,67.182 622.449,66.729C622.657,66.604 623.262,66.334 623.502,66.482C623.552,66.512 623.604,66.544 623.654,66.574C623.58,67.642 622.474,68.122 621.613,68.459C620.424,68.925 619.262,69.249 617.747,68.922C617.49,68.922 617.232,68.922 616.976,68.922C616.592,68.811 616.481,68.405 616.17,68.242C615.924,68.149 615.675,68.057 615.429,67.965C615.195,67.822 615.101,67.555 614.903,67.409C614.048,67.027 613.192,66.647 612.337,66.264C612.374,66.064 612.395,66.001 612.492,65.864C613.513,65.44 614.573,64.9 615.43,64.29C616.331,63.646 617.027,62.869 618.15,62.407C619.346,62.078 620.543,61.748 621.739,61.419C622.303,61.376 622.869,61.334 623.437,61.293ZM598.665,62.126C599.768,62.099 600.962,62.717 601.479,63.27C600.779,63.302 600.663,63.774 600.302,64.133C599.516,64.92 598.909,66 598.323,66.975C598.201,67.292 598.075,67.613 597.952,67.932C597.922,67.911 597.889,67.891 597.859,67.87C597.571,67.499 597.283,67.129 596.994,66.758C596.994,66.428 596.994,66.1 596.994,65.769C596.932,65.606 596.869,65.441 596.807,65.277C596.61,64.506 597.369,63.911 597.58,63.425C597.643,63.167 597.705,62.909 597.765,62.653C597.95,62.35 598.33,62.284 598.665,62.126ZM611.284,65.616C611.623,65.627 611.962,65.637 612.304,65.648C612.171,65.792 612.035,65.934 611.903,66.079C611.533,65.976 611.16,65.874 610.79,65.769C610.8,65.75 610.811,65.728 610.82,65.709C610.975,65.678 611.129,65.648 611.284,65.616ZM599.901,75.714C600.695,75.714 601.508,75.949 602.19,76.084C602.757,76.125 603.324,76.167 603.891,76.209C604.971,76.415 605.997,76.672 606.954,76.918C607.428,77.02 607.901,77.125 608.377,77.228C609.314,77.598 610.826,78.723 612.027,78.525C612.067,78.493 612.108,78.463 612.149,78.432C612.183,77.9 612.137,77.146 612.242,76.641C612.294,76.641 612.345,76.641 612.397,76.641C613.262,76.766 614.127,76.888 614.995,77.013C616.348,77.272 617.893,77.549 619.293,77.816C620.573,78.06 621.901,78.035 622.726,77.537C623.573,77.024 623.781,76.37 624.303,75.53C624.49,75.345 624.675,75.159 624.86,74.974C625.189,74.5 625.519,74.027 625.849,73.554C625.859,73.554 625.87,73.554 625.88,73.554C625.977,74.46 626.566,75.3 626.746,76.086C626.94,76.926 626.469,77.695 626.685,78.494C627.012,79.714 627.583,81.032 627.919,82.353C628.116,83.445 628.313,84.536 628.508,85.628C628.666,86.345 629.402,89.628 629.002,90.322C628.457,90.494 627.876,90.699 627.301,90.846C626.447,90.846 625.589,90.846 624.735,90.846C623.925,91.045 622.632,91.001 621.579,91.001C620.231,91.001 618.881,91.001 617.53,91.001C616.472,90.684 614.913,90.723 613.478,90.723C610.77,90.723 607.474,90.775 606.305,89.21C606.286,88.24 606.493,88.013 606.706,87.418C606.929,86.794 606.998,86.259 607.262,85.658C607.542,85.02 607.92,84.198 608.098,83.495C608.203,83.069 608.091,82.812 608.221,82.384C608.271,82.221 608.455,81.928 608.499,81.768C608.63,81.275 608.459,80.935 608.622,80.471C608.753,80.099 609.267,78.024 609.21,77.876C609.129,77.888 609.045,77.898 608.962,77.907C608.592,78.823 608.509,80.051 608.221,81.056C608.221,81.263 608.221,81.468 608.221,81.675C607.605,83.762 607.002,85.765 606.21,87.603C606.14,87.77 606.059,88.06 606.023,88.191C606.023,88.623 606.023,89.055 606.023,89.488C605.926,89.684 605.722,89.875 605.591,90.043C603.33,90.082 602.238,89.158 600.889,88.315C600.767,88.294 600.642,88.273 600.519,88.252C600.179,88.095 599.771,87.667 599.529,87.388C599.242,87.055 598.365,86.349 598.323,85.874C598.468,85.318 598.611,84.762 598.757,84.206C599.207,83.035 599.7,81.809 600.025,80.44C600.169,79.838 600.568,78.865 600.24,78.093C600.067,78.192 599.758,78.41 599.53,78.339C599.49,78.32 599.447,78.298 599.407,78.277C599.424,77.364 599.882,76.655 599.901,75.714ZM601.788,165.448C602.366,165.484 602.653,166.028 602.932,166.375C603.65,167.267 604.837,168.54 604.449,170.359C604.248,171.298 603.485,172.263 603.026,173.044C602.188,174.47 601.711,176.264 601.356,178.139C601.161,178.292 600.709,178.48 600.397,178.323C600.337,178.281 600.378,178.322 600.334,178.261C600.232,178.075 600.334,177.747 600.334,177.428C600.336,176.335 600.502,174.633 600.025,173.939C599.633,173.369 598.445,173.532 597.922,173.845C597.386,174.17 596.984,174.654 596.499,175.019C595.405,175.846 594.132,176.674 593.314,177.767C593.314,177.799 593.314,177.829 593.314,177.861C593.396,177.829 593.478,177.799 593.561,177.767C593.542,177.915 593.727,178.301 593.716,178.355C593.609,178.833 592.06,179.049 591.488,179.188C588.925,179.813 584.48,179.794 582.642,178.849C582.601,178.683 582.572,178.626 582.642,178.478C582.746,178.405 582.85,178.334 582.953,178.261C582.484,177.606 582.06,176.749 582.953,176.162C583.598,175.737 584.935,175.573 585.705,175.359C585.983,175.369 586.262,175.379 586.541,175.389C587.178,175.352 587.823,175.298 588.303,174.989C588.77,174.686 589.219,173.285 589.571,172.765C589.824,172.392 590.132,172.038 590.375,171.622C590.593,171.128 590.809,170.634 591.025,170.14C591.424,169.473 591.853,168.828 592.17,168.071C592.881,166.362 592.889,164.242 593.222,162.113C593.178,161.021 593.14,159.93 593.097,158.839C593.2,157.478 593.236,155.775 593.034,154.485C592.994,153.693 592.952,152.899 592.911,152.107C592.598,150.185 592.511,148.226 592.17,146.425C591.963,144.655 591.757,142.885 591.551,141.114C591.034,138.061 591.808,133.7 590.562,131.356C590.118,131.269 589.248,131.184 589.109,130.8C589.098,130.774 589.391,128.755 589.418,128.452C589.668,125.605 590.271,123.401 590.871,120.918C591.945,116.502 592.651,111.732 594.089,107.548C594.717,105.719 595.386,103.755 595.944,101.958C596.172,101.221 596.153,100.459 596.376,99.674C596.593,99.211 596.809,98.748 597.025,98.284C597.353,97.514 597.707,96.285 597.922,95.505C598.07,94.97 598.844,92.64 598.726,92.231C598.643,91.933 598.561,91.636 598.478,91.336C597.84,90.251 596.591,89.41 597.737,87.939C598.023,87.573 598.313,87.218 598.726,86.981C599.012,87.198 599.161,87.617 599.436,87.816C600.055,88.261 600.753,88.527 601.417,88.959C601.97,89.318 602.673,89.837 603.364,90.039C604.593,90.4 605.575,90.7 606.27,89.609C606.393,89.73 606.518,89.854 606.642,89.979C607.241,90.161 607.779,90.555 608.406,90.72C609.202,90.929 610.236,90.814 611.003,90.998C612.828,90.998 614.653,90.998 616.479,90.998C617.897,91.371 620.003,91.275 621.829,91.275C622.81,91.275 624.058,91.346 624.797,91.122C625.652,91.122 626.509,91.122 627.363,91.122C627.793,91.018 628.293,90.816 628.694,90.72C628.981,92.211 629.271,93.705 629.56,95.198C629.56,97.122 629.56,99.047 629.56,100.973C629.616,101.565 629.57,102.534 629.528,103.195C629.421,104.944 629.592,106.596 629.345,108.168C629.083,109.8 629.373,111.499 629.126,113.046C629.105,113.9 629.085,114.756 629.064,115.609C628.899,118.213 628.734,120.818 628.569,123.424C628.342,126.809 628.116,130.195 627.889,133.581C627.674,133.909 627.085,133.847 626.805,134.107C627.676,136.499 627.381,140.313 627.023,142.939C626.841,144.283 626.794,145.732 626.466,147.014C625.73,149.915 624.941,152.485 624.116,155.26C623.434,157.551 622.372,159.691 621.796,162.085C621.671,162.969 621.549,163.854 621.425,164.739C621.475,164.883 621.735,165.176 621.827,165.326C622.249,166.022 623.088,167.876 622.878,169.062C622.713,169.992 622.224,170.589 621.951,171.349C621.342,173.039 620.661,174.655 619.972,176.257C619.341,177.726 618.753,179.439 617.496,180.273C616.222,181.116 614.612,181.26 612.952,181.662C611.823,181.934 609.076,181.954 608.343,181.322C608.447,180.762 608.123,180.026 608.343,179.346C608.542,178.731 609.132,178.379 609.427,177.864C609.539,177.565 609.653,177.266 609.767,176.968C609.939,176.733 610.354,176.737 610.539,176.505C610.518,176.392 610.498,176.278 610.478,176.166C610.777,175.796 611.073,175.425 611.374,175.054C612.014,174.155 612.644,173.117 613.073,172.028C613.686,170.482 613.942,168.768 614.436,167.118C614.954,165.385 615.468,163.573 615.827,161.622C616.054,159.666 616.281,157.709 616.508,155.754C616.518,153.943 616.528,152.131 616.538,150.318C616.527,148.63 616.517,146.943 616.508,145.255C616.395,143.937 616.505,142.469 616.693,141.303C616.886,140.114 616.745,138.681 616.755,137.567C616.766,136.665 616.814,134.654 616.509,133.986C614.524,133.983 612.409,133.795 610.571,133.492C610.005,133.471 609.438,133.45 608.871,133.429C607.536,133.183 605.948,133.284 604.477,133.028C603.353,132.894 602.23,132.759 601.106,132.626C601.086,132.647 601.065,132.668 601.043,132.688C601.28,133.451 601.52,134.213 601.756,134.974C602.209,136.316 602.444,137.842 602.715,139.421C602.745,139.945 602.778,140.47 602.806,140.996C602.945,141.853 603.02,143.159 602.869,144.085C602.828,144.906 602.787,145.731 602.746,146.553C602.375,148.685 602.003,150.815 601.633,152.945C601.396,155.168 601.159,157.393 600.922,159.616C600.828,160.182 600.927,160.938 601.015,161.376C601.005,161.745 600.994,162.118 600.983,162.487C601.077,163.033 601.171,163.579 601.262,164.123C601.438,164.562 601.612,165.004 601.788,165.448Z"/>
    </g>
</svg>
