<?xml version="1.0" encoding="UTF-8" standalone="no"?>
<!DOCTYPE svg PUBLIC "-//W3C//DTD SVG 1.1//EN" "http://www.w3.org/Graphics/SVG/1.1/DTD/svg11.dtd">
<svg width="100%" height="100%" viewBox="0 0 151 338" version="1.1" xmlns="http://www.w3.org/2000/svg" xmlns:xlink="http://www.w3.org/1999/xlink" xml:space="preserve" xmlns:serif="http://www.serif.com/" style="fill-rule:evenodd;clip-rule:evenodd;stroke-linejoin:round;stroke-miterlimit:1.41421;">
    <g transform="matrix(1,0,0,1,-324.38,-31.1176)">
        <path d="M473.892,183.331C473.822,183.05 469.764,179.483 469.624,179.276C469.484,179.065 464.8,176.548 464.8,176.548C464.309,176.268 460.697,174.403 460.697,174.403L450.543,164.945C449.803,163.267 446.727,161.879 446.169,161.134C445.609,160.385 444.507,159.288 443.204,158.167C441.897,157.047 440.74,154.493 439.25,153.933C437.756,153.374 435.769,150.332 435.769,150.332C431.717,144.179 427.675,140.942 422.871,133.317C422.158,132.18 411.839,109.883 410.911,108.017C409.976,106.155 409.681,96.406 407.55,93.287C406.563,91.835 401.587,89.558 401.587,89.558C401.587,88.812 401.587,86.573 401.587,86.573C401.587,86.573 402.234,84.418 403.125,84.591C404.196,84.802 407.321,84.989 408.439,84.008C409.562,83.029 409.904,80.325 409.904,80.325C409.904,80.325 410.391,79.309 410.631,79.023C411.165,78.374 412.844,75.98 413.055,75.491C413.265,75.002 413.986,74.507 415.432,70.637C416.727,67.171 417.158,63.545 417.158,63.545L418.837,61.213C418.837,61.213 420.56,59.675 420.42,58.695C420.28,57.715 420.942,53.754 420.942,53.754C420.861,51.614 421.088,51.614 421.088,51.614C421.088,51.614 423.893,49.392 422.426,46.902C420.776,44.099 420.649,37.739 411.936,33.896C405.596,31.097 394.713,28.376 388.538,36.626C386.822,38.92 384.894,45.78 384.661,50.58C384.65,50.779 383.157,50.716 382.873,53.374C382.21,59.718 386.135,63.194 386.135,63.194C386.761,67.74 384.803,71.377 384.803,71.377C383.905,72.888 381.374,75.2 381.374,75.2C381.374,75.2 380.514,75.617 379.695,76.181C379.405,76.38 361.591,86.13 361.591,86.13C360.819,86.552 356.413,90.047 355.573,90.816C354.737,91.585 352.15,93.891 350.471,95.642C348.794,97.388 348.794,102.914 348.723,104.313C348.653,105.71 347.861,106.532 347.473,108.017C346.916,110.163 348.024,116.06 348.024,116.06C347.466,119.348 348.376,122.144 348.162,122.983C347.956,123.821 347.394,128.786 347.116,131.723C346.838,134.662 342.499,156.827 342.499,156.827C339.843,163.049 338.936,167.805 338.443,170.113C337.955,172.42 336.837,178.574 336.837,179.833C336.837,181.092 338.375,183.468 340.542,191.231C342.707,198.994 344.175,198.782 344.175,198.782L345.646,201.999L347.115,217.383L347.534,217.383C347.534,217.383 347.604,218.852 347.466,221.509C347.323,224.167 347.883,227.522 347.883,227.522C347.883,227.522 345.364,230.389 344.738,231.157C344.108,231.929 343.202,237.523 343.202,237.523C343.202,237.523 341.242,237.941 340.61,237.873C339.981,237.802 337.393,238.222 336.348,238.013C335.297,237.803 331.45,237.593 330.757,237.593C330.061,237.593 330.757,239.692 330.757,239.692C328.458,238.993 327.905,240.812 327.834,241.228C327.765,241.648 327.765,244.236 327.765,244.236C326.165,244.657 326.512,245.286 326.512,245.286C326.512,244.937 327.905,245.217 327.905,245.217L328.251,248.012L327.486,247.944C327.486,247.944 326.512,248.012 325.818,247.872C325.116,247.734 325.042,248.853 325.042,248.853L325.26,251.368C325.26,251.368 326.373,251.438 326.303,251.65C326.231,251.858 327.071,256.493 327.071,256.704C327.071,256.916 327.207,258.677 325.187,272.661C323.156,286.647 325.467,290.914 326.582,292.103C327.694,293.295 334.595,296.58 335.154,296.786C335.717,296.996 349.353,302.031 349.353,302.031L345.156,305.039L345.437,306.718C345.437,306.718 343.338,309.446 341.311,310.982C339.284,312.52 338.725,315.878 339.633,317.135C340.543,318.393 345.437,324.617 345.437,324.617L347.605,321.263C347.605,321.263 347.956,321.613 348.376,322.169C348.793,322.731 352.36,326.506 353.479,329.442C354.597,332.38 358.307,335.596 360.893,336.436C363.476,337.271 368.094,338.186 370.401,337.695C372.708,337.203 374.596,335.805 374.596,335.805L374.806,337.134C374.806,338.884 377.045,350.072 377.045,350.072C377.045,350.072 376.623,353.219 376.551,356.994C376.481,360.773 377.182,361.261 378.579,361.82C379.981,362.38 388.719,364.196 388.719,364.196L389.001,360.909C389.001,360.909 392.218,361.957 392.849,362.446C393.478,362.939 400.4,368.392 404.386,368.392C408.372,368.392 423.056,366.294 425.222,365.106C427.392,363.916 427.952,362.03 427.952,361.049C427.952,360.071 426.972,358.604 426.412,358.394C425.855,358.184 420.958,358.041 420.542,357.974C420.121,357.899 416.556,356.715 415.364,356.084C414.177,355.456 408.862,353.147 408.372,352.871C407.883,352.586 405.646,350.908 405.506,350.49C405.365,350.071 402.566,344.055 402.215,342.867C401.866,341.68 400.551,336.626 399.439,330.263C398.318,323.902 397.374,322.2 397.553,319.723C398.025,313.21 398.792,302.867 399.072,300.562C399.351,298.251 400.535,275.385 400.469,273.077C400.399,270.77 399.072,260.91 398.932,257.83C398.791,254.735 399.277,252.906 399.277,251.995C399.277,251.086 401.45,240.317 401.798,238.01C402.147,235.702 403.926,217.871 404.275,216.47C404.622,215.072 405.226,208.97 405.574,206.734C405.673,206.086 407.291,205.871 407.571,204.663C408.247,201.697 408.304,196.959 408.582,195.842C410.922,186.448 410.308,181.927 410.517,180.249C410.725,178.571 411.726,168.361 411.726,168.361L412.563,158.921C412.563,158.921 413.618,158.782 414.455,158.853C415.293,158.921 417.739,160.459 419.069,161.02C420.4,161.579 421.029,163.675 422.219,164.446C423.404,165.216 425.645,165.706 426.622,166.544C427.601,167.384 428.79,168.853 430.539,170.671C432.288,172.486 433.197,171.928 436.55,174.724C439.906,177.523 437.976,175.028 438.763,176.153C439.873,177.723 439.979,177.523 440.119,178.011C440.257,178.501 442.286,179.479 443.406,179.479C444.524,179.479 445.431,180.95 448.649,183.538C451.867,186.124 454.386,186.475 454.386,186.475C456.34,189.55 458.507,189.342 459.35,190.529C460.189,191.717 461.795,192.698 462.003,193.047C462.213,193.399 462.638,194.865 463.684,195.844C464.73,196.825 465.644,195.706 465.713,195.145C465.779,194.585 464.524,192.559 464.454,192.138C464.387,191.718 463.334,189.48 463.334,189.48C463.334,189.48 464.454,189.061 464.596,189.829C464.73,190.6 465.993,192.489 465.993,192.489C465.993,192.489 465.362,193.607 466.552,194.796C467.74,195.985 468.717,194.586 468.859,194.096C469,193.607 468.65,192.138 468.65,192.138C468.65,192.138 468.02,189.969 467.879,189.761C467.741,189.55 466.971,187.521 466.971,187.521C467.671,188.711 469,189.55 469.138,189.761C469.278,189.969 469.561,191.229 469.561,191.229C469.767,192.976 470.328,193.607 470.328,193.607C472.078,194.865 472.849,192.767 472.705,192.067C472.567,191.369 472.077,188.85 472.077,188.85L470.889,186.541L469.417,184.793C469.979,185.284 471.304,185.704 471.304,185.704C471.514,186.334 472.493,187.52 472.493,187.52L472.848,189.27C475.08,190.948 475.361,188.71 475.361,188.71C475.43,186.618 473.892,183.331 473.892,183.331ZM352.707,239.553C352.707,239.553 351.099,235.708 353.613,231.511C353.613,231.511 354.594,231.652 355.015,231.652C355.432,231.652 356.764,232.35 357.041,232.562C357.32,232.772 358.226,232.63 358.581,232.912C358.93,233.191 360.679,235.218 361.166,235.569C361.166,235.569 361.449,242.001 361.449,242.212C361.448,242.42 352.707,239.553 352.707,239.553ZM368.928,328.328C368.928,328.328 366.55,326.162 365.434,325.6C364.315,325.041 372.566,315.6 372.566,315.6C372.566,315.6 374.105,330.355 374.105,330.704L368.928,328.328Z" style="fill-rule:nonzero;"/>
    </g>
</svg>
