<?xml version="1.0" encoding="UTF-8" standalone="no"?>
<!DOCTYPE svg PUBLIC "-//W3C//DTD SVG 1.1//EN" "http://www.w3.org/Graphics/SVG/1.1/DTD/svg11.dtd">
<svg width="100%" height="100%" viewBox="0 0 116 369" version="1.1" xmlns="http://www.w3.org/2000/svg" xmlns:xlink="http://www.w3.org/1999/xlink" xml:space="preserve" xmlns:serif="http://www.serif.com/" style="fill-rule:evenodd;clip-rule:evenodd;stroke-linejoin:round;stroke-miterlimit:1.41421;">
    <g transform="matrix(1,0,0,1,-518.475,-307.914)">
        <path d="M567.408,309.262C568.379,309.517 573.283,314.304 573.725,315.223C574.167,316.14 573.398,317.265 573.63,318.108C574.034,319.581 575.475,320.971 575.927,322.627C576.628,325.193 575.641,328.25 576.12,330.896C576.608,333.606 578.023,335.154 578.415,337.626C579.013,341.398 576.579,343.715 576.215,346.76C576.039,348.217 576.599,349.272 576.789,350.318C577.266,352.953 576.182,355.344 575.927,357.336C575.772,358.55 576.466,360.276 576.692,361.278C577.257,363.769 576.199,366.332 575.161,367.624C575.526,370.193 577.483,371.944 576.309,374.258C575.927,374.354 575.546,374.451 575.161,374.548C575.395,379.511 578.088,380.621 579.276,384.45C579.661,386.533 580.043,388.616 580.424,390.7C580.488,391.693 580.552,392.686 580.616,393.68C581.331,395.889 582.783,398.877 583.392,401.276C585.369,401.948 587.348,402.622 589.325,403.295C593.1,404.006 595.824,400.379 598.608,402.237C598.853,403.118 598.761,403.64 598.322,404.256C598.965,404.925 599.854,405.234 600.426,405.986C600.55,406.78 600.326,407.1 599.852,407.526C601.314,408.288 602.84,409.269 604.255,409.832C604.445,410.057 604.638,410.281 604.829,410.506C603.295,411.096 597.925,409.26 596.503,408.776C596.732,409.863 597.2,411.079 596.12,411.662C596.335,412.834 596.713,413.394 596.215,414.545C595.796,414.945 596.281,415.781 596.215,416.853C593.985,418.508 589.927,419.999 588.942,422.814C597.044,417.495 605.148,412.173 613.252,406.854C615.387,406.822 617.525,406.79 619.664,406.758C621.349,406.135 623.802,405.331 625.693,405.027C626.171,405.027 626.651,405.027 627.13,405.027C628.533,404.547 629.937,404.065 631.34,403.586C631.947,403.746 632.553,403.905 633.158,404.065C632.914,404.778 632.645,405.118 632.106,405.508C632.201,405.924 632.296,406.341 632.394,406.758C632.679,406.899 632.939,406.957 633.445,406.95C633.573,407.302 633.702,407.654 633.83,408.007C632.137,410.265 628.712,411.508 626.269,413.007C623.238,414.962 620.206,416.917 617.175,418.871C615.645,419.801 614.113,420.73 612.581,421.66C612.519,422.141 612.455,422.621 612.391,423.101C611.614,424.477 610.283,425.658 609.328,427.043C608.466,427.909 607.605,428.774 606.744,429.64C606.234,430.473 605.723,431.306 605.214,432.14C604.193,433.357 603.172,434.575 602.15,435.792C601.435,437.014 601.77,439.291 601.194,440.695C600.743,441.794 599.718,442.299 599.184,443.195C598.469,444.396 598.786,445.179 597.654,446.08C596.657,446.87 590.599,449.113 588.56,448.58C586.213,447.964 585.004,446.651 583.296,445.695C582.914,445.632 582.533,445.566 582.148,445.503C581.543,444.927 580.936,444.35 580.33,443.773C579.904,443.544 579.674,443.94 579.469,444.447C579.693,445.055 579.915,445.664 580.138,446.273C580.5,447.928 580.495,449.336 580.809,450.696C580.809,451.369 580.809,452.042 580.809,452.715C581.059,454.587 581.315,456.491 581.67,458.773C581.734,461.305 581.796,463.837 581.86,466.368C581.988,468.9 582.116,471.432 582.244,473.965C582.18,475.406 582.116,476.848 582.052,478.292C582.664,482.175 582.675,486.521 583.295,490.31C583.328,492.265 583.359,494.219 583.393,496.174C583.79,498.537 583.851,502.036 584.255,504.443C584.286,505.468 584.317,506.494 584.35,507.521C585.458,512.592 585.741,518.581 586.647,524.25C586.741,526.268 586.838,528.287 586.934,530.307C587.158,533.382 587.38,536.46 587.603,539.536C587.603,541.523 587.603,543.511 587.603,545.497C587.731,547.101 587.86,548.702 587.987,550.304C582.499,551.556 577.012,552.805 571.526,554.054C570.907,555.113 571.093,556.964 570.759,558.285C570.09,559.951 569.418,561.618 568.748,563.284C567.794,565.089 566.884,567.27 565.783,569.148C564.832,570.767 563.516,572.394 562.911,574.341C562.273,577.994 561.635,581.647 560.996,585.301C559.203,593.594 558.111,601.667 556.498,610.49C555.239,617.381 554.082,627.299 555.542,634.72C556.498,638.309 557.455,641.899 558.411,645.489C559.464,647.283 560.519,649.078 561.57,650.872C562.213,652.583 563.977,657.213 565.207,658.082C566.005,658.308 566.803,658.532 567.599,658.756C570.451,659.863 573.689,660.863 577.17,661.545C579.39,661.979 582.836,662.122 583.582,663.948C584.396,665.934 578.97,666.985 577.744,667.698C580.482,669.261 584.204,668.596 586.071,670.966C586.163,671.478 586.092,671.833 585.976,672.314C581.011,675.462 562.364,678.983 556.211,674.333C552.273,671.357 547.166,662.166 541.09,662.219C539.639,664.523 540.874,670.415 541.09,672.988C540.993,673.051 540.898,673.116 540.802,673.18C540.341,673.431 539.433,673.438 538.983,673.18C538.503,672.822 538.298,668.355 538.314,667.314C537.91,667.089 537.417,666.95 536.783,666.929C535.962,665.139 537.081,662.388 536.496,660.2C535.889,659.303 535.284,658.406 534.676,657.509C534.247,656.419 534.808,654.961 534.388,653.663C534.031,652.553 533.044,651.754 532.763,650.298C532.263,647.718 533.921,644.212 534.963,642.798C535.705,641.794 537.002,641.034 537.74,640.011C539.169,638.027 539.633,632.802 540.133,629.914C540.525,627.644 539.088,623.504 538.601,621.55C537.156,615.731 536.812,610.253 535.73,603.763C535.602,601.808 535.477,599.854 535.348,597.9C536.128,592.561 535.819,587.342 536.973,582.708C538.121,577.837 539.27,572.964 540.418,568.094C540.516,566.875 540.611,565.658 540.706,564.441C540.961,562.228 541.216,560.017 541.472,557.807C538.472,557.148 535.054,556.222 532.476,555.21C531.489,553.824 531.724,552.669 532.381,551.269C532.443,549.443 532.507,547.614 532.571,545.788C532.603,537.489 532.634,529.186 532.667,520.886C532.299,515.033 532.623,508.629 531.422,503.293C530.483,499.126 528.104,494.192 529.03,488.486C529.694,484.387 530.007,481.906 531.134,478.678C531.984,476.247 531.903,473.997 532.954,471.852C533.336,471.371 533.719,470.89 534.1,470.409C534.133,469.673 534.164,468.935 534.197,468.197C534.674,466.564 535.153,464.929 535.632,463.296C535.663,462.431 535.696,461.565 535.727,460.699C536.015,460.345 536.301,459.993 536.589,459.641C537.187,458.245 536.766,456.84 537.45,455.699C538.055,454.834 538.663,453.969 539.268,453.104C539.237,452.238 539.204,451.373 539.173,450.507C539.556,449.801 539.94,449.098 540.322,448.392C540.322,448.263 540.322,448.135 540.322,448.007C538.363,447.748 532.819,447.402 531.517,446.469C530.316,445.61 529.603,443.94 528.741,442.72C527.182,440.513 525.698,438.319 524.721,435.411C524.657,434.387 524.593,433.36 524.529,432.335C523.948,429.621 523.283,426.198 522.712,423.201C522.584,421.567 522.458,419.93 522.329,418.298C521.755,416.534 521.181,414.773 520.606,413.01C519.458,408.828 519.378,399.669 519.937,394.743C520.094,393.351 519.114,392.481 518.884,391.28C518.111,387.233 518.453,381.144 519.746,377.724C520.959,374.513 522.648,372.174 525.296,370.417C528.596,368.227 532.206,367.65 533.049,363.11C533.455,360.922 531.957,358.758 531.612,356.956C531.484,354.713 531.357,352.469 531.231,350.226C530.605,346.276 532.039,340.856 532.666,337.63C532.792,334.394 532.92,331.156 533.049,327.919C533.893,324.277 536.521,318.389 539.173,316.382C541.047,314.965 543.506,314.379 545.49,313.017C548.145,311.196 551.829,307.458 556.592,309.075C558.924,307.678 561.727,307.419 564.153,308.979C564.153,309.171 564.153,309.364 564.153,309.556C565.238,309.455 566.324,309.358 567.408,309.262ZM553.819,328.875C555.142,327.171 558.672,328.1 559.273,324.261C556.475,326.396 554.36,328.052 550.469,329.261C547.621,330.146 544.501,329.984 542.908,332.049C542.587,332.882 542.27,333.716 541.951,334.549C539.995,339.342 540.259,340.663 541.281,346.087C541.72,348.422 541.775,350.599 542.813,352.336C543.684,353.797 545.146,354.94 546.449,355.99C547.152,356.631 547.853,357.272 548.554,357.913C551.325,359.05 554.265,357.502 556.689,357.336C556.786,357.497 556.881,357.657 556.977,357.817C556.946,357.913 556.915,358.009 556.882,358.105C554.372,359.416 550.628,359.346 547.599,358.682C547.439,358.779 547.28,358.875 547.119,358.971C547.119,359.003 547.119,359.035 547.119,359.067C550.241,363.47 563.257,371.4 555.257,378.104C555.539,379.096 556.35,379.749 556.882,380.508C558.176,382.353 559.426,384.061 560.806,385.796C561.955,386.919 563.103,388.04 564.252,389.161C564.729,389.835 565.208,390.507 565.688,391.18C565.239,386.661 564.793,382.143 564.347,377.625C564.026,376.664 563.708,375.702 563.391,374.74C562.975,374.291 562.56,373.843 562.145,373.394C561.627,371.611 562.772,369.148 563.103,367.721C563.452,365.702 563.803,363.683 564.154,361.664C564.857,358.78 565.559,355.895 566.259,353.011C565.36,353.695 564.696,354.556 563.579,355.031C563.548,355.031 563.515,355.031 563.484,355.031C563.451,354.806 563.421,354.582 563.39,354.358C564.346,353.461 565.302,352.563 566.259,351.666C568.655,347.625 569.974,336.06 567.599,331.09C566.803,329.937 566.005,328.783 565.207,327.629C564.952,325.706 564.697,323.783 564.441,321.861C561.459,324.313 560.059,330.434 553.819,328.875ZM546.928,364.066C547.434,365.507 548.304,366.728 548.841,368.007C549.702,370.186 550.564,372.365 551.424,374.546C551.424,374.609 551.424,374.673 551.424,374.738C551.488,373.968 551.552,373.199 551.616,372.43C552.044,370.78 553.699,369.152 555.636,369.257C555.636,369.225 555.636,369.193 555.636,369.16C554.45,367.593 552.769,366.444 551.233,365.219C549.701,363.392 548.17,361.565 546.639,359.738C545.947,360.908 546.499,362.847 546.928,364.066ZM562.91,372.911C565.128,376.02 565.828,379.828 565.972,385.024C568.08,380.467 569.676,378.82 574.109,376.66C573.974,371.96 566.982,368.426 564.539,365.219C563.849,365.881 563.158,371.563 562.91,372.911ZM521.47,376.276C520.962,377.389 518.844,385.019 519.365,386.659C519.703,387.727 519.551,389.252 519.842,390.794C520.125,392.281 521.216,393.188 520.896,395.216C520.216,399.532 520.563,408.851 521.564,412.523C522.108,414.061 522.649,415.601 523.192,417.139C523.35,418.997 523.51,420.856 523.669,422.714C524.241,425.707 524.925,429.136 525.489,431.849C525.553,432.874 525.617,433.9 525.678,434.924C526.653,437.833 528.143,440.026 529.698,442.233C530.465,443.323 531.232,444.413 531.996,445.502C533.234,446.616 541.793,447.246 544.437,447.232C543.927,446.688 543.417,446.142 542.907,445.598C541.489,443.117 540.606,435.434 541.28,431.368C541.577,429.568 542.066,427.889 542.238,426.177C541.765,425.571 540.549,424.993 539.941,424.543C540.181,421.083 543.32,420.417 542.428,415.504C541.806,412.081 540.971,408.918 539.653,406.082C539.143,405.409 538.631,404.736 538.12,404.062C536.837,401.909 537.645,399.08 538.312,397.14C538.535,396.948 538.758,396.755 538.981,396.564C538.76,397.757 537.603,400.127 538.312,402.043C538.951,402.909 539.589,403.773 540.227,404.64C542.113,408.68 546.141,419.393 541.279,422.811C541.248,423.292 541.215,423.773 541.184,424.253C542.606,424.592 542.695,425.695 544.055,425.888C546.478,425.503 548.903,425.118 551.328,424.734C555.028,424.061 558.73,423.388 562.43,422.714C565.334,421.786 568.237,420.856 571.139,419.926C573.695,415.502 573.158,409.36 572.001,403.966C571.841,402.909 571.682,401.851 571.524,400.794C570.635,398.685 568.943,397.081 567.503,395.505C566.196,393.55 564.886,391.595 563.579,389.64C562.241,388.327 560.9,387.012 559.559,385.699C557.741,383.167 555.923,380.635 554.106,378.103C554.921,376.728 556.022,375.207 557.262,374.257C556.944,372.912 556.626,371.566 556.306,370.22C555.765,370.187 555.222,370.155 554.681,370.123C553.925,370.919 552.827,371.422 552.478,372.623C552.351,374.545 552.223,376.469 552.096,378.392C551.745,378.649 551.394,378.904 551.043,379.161C550.259,379.814 550.069,381.165 550.086,382.622C551.509,384.535 554.541,384.042 557.168,383.776C557.168,383.808 557.168,383.84 557.168,383.873C555.485,387.439 551.796,387.043 549.033,384.736C548.49,383.744 547.949,382.751 547.405,381.757C545.684,380.251 543.96,378.743 542.239,377.237C539.515,373.85 536.94,370.229 533.72,367.334C528.978,369.6 523.67,371.462 521.47,376.276ZM582.146,400.985C581.617,399.803 581.424,398.147 580.903,396.755C580.589,395.915 579.906,394.924 579.659,394.159C579.595,393.166 579.531,392.173 579.467,391.178C579.085,389.096 578.7,387.012 578.319,384.93C577.498,382.266 574.706,379.856 574.396,377.719C570.043,379.135 564.584,385.657 566.546,392.429C567.328,395.12 570.228,396.767 571.619,398.968C572.49,400.345 572.369,402.137 572.767,404.062C574.046,410.231 574.28,413.865 572.288,419.447C575.19,418.269 578.374,417.226 579.562,414.35C580.864,411.197 580.708,406.697 583.774,405.314C583.868,405.184 583.965,405.056 584.061,404.928C582.243,404.223 580.423,403.517 578.605,402.813C577.589,402.183 576.94,401.087 575.733,400.601C575.596,400.281 575.637,400.356 575.639,399.831C578.08,399.847 580.203,400.336 582.146,400.985ZM594.686,403.484C594.686,403.517 594.686,403.549 594.686,403.582C595.42,403.742 596.152,403.901 596.886,404.061C597.237,403.805 597.589,403.549 597.94,403.292C597.907,403.164 597.876,403.036 597.845,402.908C597.644,402.591 597.364,402.541 597.079,402.33C596.28,402.717 595.482,403.102 594.686,403.484ZM582.531,406.947C582.338,407.651 582.146,408.356 581.956,409.062C581.154,411.698 580.723,415.397 578.797,416.945C573.922,420.862 565.871,422.104 559.559,424.444C559.026,428.493 559.314,433.583 559.464,437.809C563.802,435.854 568.142,433.899 572.481,431.945C575.937,430.434 579.96,429.256 582.913,427.136C584.603,425.855 586.295,424.572 587.986,423.291C588.048,422.777 588.112,422.265 588.176,421.753C589.621,419.482 592.77,417.559 595.259,416.367C595.131,415.983 595.003,415.598 594.874,415.215C592.898,415.919 590.918,416.624 588.942,417.33C588.58,416.978 588.696,416.793 588.845,416.271C590.773,415.828 594.02,414.798 595.546,413.675C595.419,413.034 595.291,412.393 595.162,411.752C592.237,411.247 590.294,413.492 587.888,413.002C588.236,411.406 593.74,411.047 595.736,410.598C595.672,409.861 595.608,409.124 595.546,408.387C594.429,408.13 593.313,407.873 592.196,407.618C590.058,408.031 587.993,409.193 585.592,409.253C585.465,409.061 585.339,408.868 585.21,408.676C587.919,407.016 593.895,406.185 597.365,407.329C598.608,407.332 598.615,406.924 599.375,406.56C599.406,406.496 599.439,406.431 599.47,406.367C597.151,404.828 594.864,405.158 592.388,403.964C588.535,404.078 584.337,404.725 582.531,406.947ZM603.01,430.406C602.757,430.631 602.5,430.854 602.246,431.079C602.674,429.44 603.484,427.34 602.628,425.792C599.222,426.671 599.363,430.17 597.557,432.617C597.557,432.681 597.557,432.746 597.557,432.81C596.885,431.913 596.216,431.014 595.546,430.118C594.334,430.206 593.72,430.657 592.865,431.079C592.311,433.208 593.719,434.451 594.111,436.656C593.159,435.893 591.902,434.631 591.143,433.675C589.903,433.652 587.991,434.261 588.271,435.598C588.814,436.24 589.357,436.88 589.898,437.521C589.006,437.81 588.111,438.099 587.219,438.387C586.452,438.324 585.688,438.259 584.922,438.195C584.073,438.373 583.426,438.961 582.719,439.253C582.688,439.38 582.655,439.509 582.624,439.637C582.688,439.766 582.752,439.894 582.817,440.022C584.997,440.568 585.951,440.572 588.463,440.503C588.973,440.951 589.484,441.4 589.993,441.849C590.377,442.266 590.76,442.683 591.142,443.099C591.079,443.163 591.016,443.227 590.952,443.291C589.669,443.003 588.702,441.921 587.794,441.176C587.666,441.176 587.538,441.176 587.411,441.176C587.378,441.207 587.347,441.239 587.314,441.271C588.002,445.883 592.83,448.451 597.077,445.406C597.919,444.802 597.702,443.997 598.131,442.907C598.513,441.934 599.783,441.316 600.235,440.216C600.738,438.99 600.473,436.892 601,435.696C601.632,434.262 602.968,433.307 603.871,432.139C605.596,429.912 607.25,427.789 608.85,425.504C609.773,424.18 611.525,423.599 611.529,421.37C607.472,422.43 604.245,426.469 603.01,430.406ZM543.101,426.752C542.875,428.003 542.652,429.252 542.43,430.502C541.688,434.469 542.422,441.677 543.675,444.54C544.153,445.635 546.026,446.381 546.258,447.328C550.904,446.762 554.989,444.384 559.372,443.674C559.051,441.303 558.734,438.932 558.413,436.561C557.762,432.711 558.499,428.583 558.51,424.734C553.373,425.407 548.236,426.08 543.101,426.752ZM594.111,436.848C594.142,436.785 594.175,436.721 594.206,436.657C594.176,436.721 594.143,436.784 594.111,436.848ZM559.56,438.771C559.752,440.182 559.945,441.591 560.134,443.001C560.789,442.292 562.325,438.67 562.431,437.521C561.475,437.938 560.519,438.354 559.56,438.771ZM580.998,442.809C582.527,444.93 587.989,448.05 591.43,447.425C591.43,447.393 591.43,447.361 591.43,447.328C588.299,445.929 587.377,444.677 586.264,441.269C583.043,441.481 583.25,442.01 580.998,442.809ZM566.451,555.492C565.883,556.12 566.151,557.775 565.972,558.761C565.472,561.539 565.168,564.251 564.251,566.645C563.421,568.696 562.59,570.749 561.761,572.799C560.759,574.565 559.361,576.663 558.795,578.759C558.573,581.1 558.347,583.44 558.125,585.779C557.21,590.946 556.49,597.011 556.499,602.605C558.317,593.024 560.135,583.438 561.955,573.856C563.868,567.723 570.147,562.504 570.185,554.82C568.94,555.044 567.694,555.269 566.451,555.492ZM542.429,558.089C542.407,567.795 539.431,577.15 537.547,585.682C536.84,588.894 535.74,596.052 536.399,600.105C536.686,603.149 536.973,606.195 537.26,609.239C538.729,616.578 540.096,623.312 541.377,630.873C542.162,635.513 541.667,644.312 539.558,647.217C543.038,651.894 547.529,655.992 551.617,660.102C553.964,662.46 557.046,665.952 559.945,667.6C562.868,669.265 568.849,669.905 571.14,667.216C571.308,666.562 571.418,665.895 571.045,665.389C570.553,664.523 568.951,664.354 568.173,663.754C566.866,662.12 565.559,660.485 564.251,658.85C562.893,656.744 561.649,654.043 560.613,651.351C559.56,649.557 558.509,647.762 557.455,645.966C556.529,642.57 555.604,639.171 554.681,635.776C553.244,629.161 554.797,621.358 554.87,614.72C554.93,609.292 555.023,601.696 556.018,595.874C557.021,590.011 556.014,583.05 557.836,577.895C559.305,575.041 560.772,572.191 562.241,569.337C563.817,565.46 565.046,560.946 564.92,555.685C557.424,556.485 549.925,557.287 542.429,558.089ZM538.026,641.063C538.243,641.877 538.843,642.021 539.174,642.697C539.367,642.857 539.557,643.017 539.749,643.176C540.533,640.881 540.916,636.789 540.516,633.947C539.44,636.339 539.933,639.563 538.026,641.063ZM567.313,661.542C567.811,661.858 568.254,661.683 568.748,661.253C568.812,661.253 568.876,661.253 568.941,661.253C568.493,659.776 567.061,659.934 565.783,659.33C566.292,660.068 566.803,660.806 567.313,661.542Z"/>
    </g>
</svg>
