<?xml version="1.0" encoding="UTF-8" standalone="no"?>
<!DOCTYPE svg PUBLIC "-//W3C//DTD SVG 1.1//EN" "http://www.w3.org/Graphics/SVG/1.1/DTD/svg11.dtd">
<svg width="100%" height="100%" viewBox="0 0 288 249" version="1.1" xmlns="http://www.w3.org/2000/svg" xmlns:xlink="http://www.w3.org/1999/xlink" xml:space="preserve" xmlns:serif="http://www.serif.com/" style="fill-rule:evenodd;clip-rule:evenodd;stroke-linejoin:round;stroke-miterlimit:1.41421;">
    <g transform="matrix(1,0,0,1,-655.824,-335.34)">
        <path d="M776.845,412.473C776.514,409.256 773.824,405.082 772.889,401.794C771.275,396.11 772.671,388.655 774.471,384.391C776.594,379.364 781.244,375.625 785.35,372.525C786.875,371.374 788.049,369.618 789.703,368.57C792.75,366.636 796.106,365.588 799.395,363.823C801.225,362.841 802.31,360.5 804.339,359.67C806.128,358.939 807.804,358.904 809.68,358.286C813.095,357.161 816.849,355.906 820.362,354.924C822.36,354.365 824.517,354.835 826.691,354.33C830.382,353.539 834.076,352.748 837.767,351.957C840.791,351.234 844.175,351.364 847.658,351.364C848.976,351.364 850.296,351.364 851.614,351.364C854.437,350.755 858.107,351.643 861.108,350.968C865.308,350.024 871.913,348.736 876.932,349.979C881.776,351.178 886.044,352.87 888.603,356.308C889.505,357.521 891.437,361.425 892.955,361.647C893.166,360.127 894.199,359.296 894.537,358.087C894.406,356.373 894.273,354.659 894.141,352.945C894.878,349.438 895.4,346.076 896.12,342.859C896.252,342.859 896.384,342.859 896.516,342.859C896.941,342.575 897.961,342.639 898.692,342.661C898.564,341.008 898.309,339.524 899.483,338.705C900.248,338.138 901.785,338.462 902.647,337.914C902.893,337.504 902.906,336.671 903.043,335.936C903.332,335.768 903.609,335.578 903.834,335.343C907.404,335.269 909.917,336.533 912.537,337.519C921.312,340.819 926.878,345.945 930.34,354.527C932.339,359.485 931.324,370.441 927.768,372.919C926.911,373.616 925.364,373.725 923.812,373.71C923.334,374.53 922.757,376.069 922.032,376.676C921.569,377.064 920.335,377.353 920.054,377.863C920.054,378.39 920.054,378.917 920.054,379.445C919.595,381.17 919.092,383.535 916.889,383.598C916.42,383.075 915.954,382.572 915.109,382.411C914.184,383.865 912.872,384.932 911.351,385.773C910.858,386.046 910.399,385.869 909.966,386.169C909.37,386.582 909.399,387.339 908.977,387.949C908.62,388.467 907.844,388.698 907.395,389.136C906.03,389.151 905.309,388.892 904.23,388.74C903.657,389.663 903.043,389.786 901.461,389.728C900.973,389.335 900.57,389.362 900.273,388.74C899.853,388.085 900.173,386.825 900.076,386.169C897.433,384.887 893.459,383.543 889.79,383.4C887.688,386.654 883.702,383.527 880.493,384.982C879.198,385.569 876.946,387.473 876.34,388.74C875.841,389.781 875.957,390.665 875.351,391.509C873.898,393.529 868.354,396.554 867.834,399.024C870.003,400.573 870.256,403.507 871.197,406.341C873.209,412.404 874.449,420.053 876.932,425.92C877.28,425.795 877.124,425.882 877.328,425.722C878.094,424.935 878.436,423.193 879.504,422.756C879.838,422.53 880.473,422.545 881.086,422.558C881.711,423.138 882.347,423.215 882.669,424.14C883.335,425.018 883.039,427.665 883.263,428.886C883.634,429.016 884.036,429.074 884.648,429.084C885.546,428.171 886.844,427.545 887.615,426.513C888.704,425.056 889.647,423.302 890.583,421.767C891.484,420.287 891.729,417.801 892.956,416.625C893.894,415.726 895.555,416.15 896.714,416.427C897.09,417.083 897.671,417.809 897.902,418.603C898.416,420.374 897.976,422.338 898.495,423.943C899.698,427.665 900.866,431.422 902.648,434.622C903.034,435.314 904.039,436.509 904.825,436.798C906.738,437.502 908.183,436.733 907.198,439.369C906.95,439.497 906.789,439.584 906.605,439.765C900.145,439.577 898.971,430.763 895.132,427.503C894.67,427.635 894.209,427.767 893.747,427.899C891.299,431.917 894.548,435.361 893.945,439.567C893.657,441.574 893.465,443.672 892.757,445.302C892.337,446.269 891.294,447.304 890.977,448.268C890.134,450.838 891.346,453.96 889.79,455.982C889.207,456.739 888.387,456.155 887.811,456.575C887.287,456.96 887.282,458.503 886.426,458.949C885.32,459.525 884.227,458.612 883.064,458.949C882.905,458.995 882.433,459.494 882.273,459.542C881.143,459.878 880.551,458.906 879.703,459.146C879.187,459.291 878.369,460.125 877.131,459.739C876.211,459.452 875.185,459.163 873.57,459.146C873.39,459.36 873.586,459.163 873.373,459.343C873.422,460.486 873.395,461.008 872.582,461.321C871.483,461.981 870.646,460.65 869.614,461.124C869.24,461.296 868.976,462.14 868.426,462.311C867.259,462.675 866.486,461.984 865.262,462.509C865.373,463.014 865.791,463.571 865.856,463.894C866.032,464.779 865.189,464.789 865.46,465.475C865.825,466.745 866.224,466.09 867.24,466.662C868.722,467.496 868.31,469.897 870.602,470.024C872.664,468.56 878.228,468.545 881.284,467.849C886.178,466.735 892.924,467.25 897.305,468.441C899.114,468.933 900.583,468.823 902.249,469.43C909.652,472.128 915.273,474.967 921.041,479.121C930.032,485.597 936.24,494.124 940.228,505.621C941.088,508.102 941.109,510.272 941.81,512.938C942.932,517.204 943.931,525.152 942.799,530.144C942.734,531.396 942.667,532.649 942.602,533.901C941.769,537.212 941.376,540.696 940.228,543.79C934.611,558.919 924.413,569.523 910.558,576.421C906.41,578.486 901.391,579.333 896.514,580.574C895.063,580.639 893.613,580.706 892.162,580.772C885.544,582.192 875.536,579.859 870.997,578.201C868.924,577.443 867.205,577.25 865.261,576.421C854.938,572.021 846.528,565.204 840.932,556.052C838.162,551.522 836.784,546.304 834.998,540.823C832.41,532.89 830.523,519.733 833.217,510.17C836.446,498.707 841.754,490.566 849.041,483.274C851.001,481.314 853.321,479.157 855.568,477.539C856.606,476.792 858.133,476.563 858.338,474.969C857.836,474.409 857.647,473.337 857.349,472.595C857.152,472.531 856.953,472.464 856.755,472.398C855.87,473.474 854.175,473.984 852.997,474.771C851.143,476.011 849.456,477.569 847.656,478.925C845.775,480.341 842.51,484.072 841.129,486.044C840.211,487.354 839.623,488.861 838.36,489.801C834.102,492.965 828.487,494.53 823.92,497.317C820.124,499.632 816.737,502.405 813.239,505.03C812.314,505.723 811.593,506.902 810.667,507.6C806.809,510.512 803.447,514.173 800.58,518.081C799.434,519.643 797.181,521.2 797.019,523.619C802.628,525.88 808.467,533.312 805.92,542.209C805.432,543.91 805.336,545.222 804.535,546.56C803.57,548.168 802.088,550.03 800.579,551.109C799.65,551.773 798.513,551.769 798.205,553.087C798.916,553.466 799.946,553.506 801.172,553.483C801.172,553.548 801.172,553.615 801.172,553.68C801.645,554.406 801.397,556.535 801.37,557.636C801.155,557.816 801.353,557.62 801.172,557.833C799.304,557.819 799.077,558.457 797.612,558.624C796.757,556.62 796.077,556.33 793.061,556.449C792.677,557.12 792.514,557.365 791.479,557.437C791.282,556.975 791.083,556.514 790.885,556.053C787.27,557.279 787.012,554.8 783.765,554.074C781.457,554.008 779.15,553.942 776.842,553.877C773.345,553.112 768.964,553.531 765.369,553.086C757.853,565.135 747.823,573.739 733.721,579.191C730.439,580.46 727.254,580.765 723.634,581.761C716.392,583.754 704.61,584.116 697.524,581.761C677.889,575.235 662.753,559.488 656.974,539.043C655.117,532.473 655.7,517.93 657.37,511.752C658.391,507.975 658.759,504.903 660.14,501.666C666.55,486.632 681.107,473.911 697.524,468.837C711.635,464.476 731.254,467.703 741.832,472.99C744.863,474.505 747.783,475.594 749.941,477.934C750.006,477.934 750.073,477.934 750.139,477.934C750.139,477.868 750.139,477.801 750.139,477.736C752.065,476.989 754.991,472.045 756.271,470.22C758.359,467.244 762.633,463.888 763.788,460.332C764.591,457.856 763.658,453.214 762.997,451.234C762.089,448.52 761.123,445.363 760.425,442.533C760.425,441.083 760.425,439.632 760.425,438.182C759.755,435.699 758.845,432.735 758.052,430.271C757.414,428.291 757.362,426.208 756.469,424.536C754.342,424.981 753.003,424.207 751.326,423.943C749.948,426.711 748.487,427.29 748.359,431.656C747.907,431.898 747.914,431.979 747.172,432.052C746.834,431.513 746.67,431.558 746.578,430.667C745.488,429.004 746.61,426.135 746.776,424.339C747.189,424.117 747.138,424.055 747.764,423.943C748.179,424.411 748.636,424.952 749.347,425.13C749.868,424.266 750.589,423.794 750.732,422.559C749.932,422.209 749.619,422.106 749.544,420.977C750.12,420.745 750.284,420.797 750.533,420.186C750.468,420.186 750.401,420.186 750.336,420.186C749.053,416.026 738.576,417.391 738.27,412.078C741.559,409.94 746.809,411.431 750.534,412.276C751.259,412.276 751.984,412.276 752.71,412.276C756.271,413.053 764.166,412.841 767.742,412.078C770.79,411.428 774.046,412.412 776.845,412.473ZM904.822,336.333C904.822,336.465 904.822,336.597 904.822,336.729C908.869,336.847 911.873,340.556 913.723,343.058C914.516,344.13 915.917,344.74 916.096,346.42C916.272,346.795 916.101,347.111 915.899,347.607C915.767,347.607 915.635,347.607 915.503,347.607C913.57,344.702 909.858,342.891 906.998,340.883C906.046,340.215 905.399,339.172 904.03,338.905C904.03,338.971 904.03,339.037 904.03,339.103C906.871,340.889 909.629,343.03 912.339,345.036C913.606,345.974 914.311,347.843 916.294,348.003C916.294,347.871 916.294,347.739 916.294,347.607C916.817,346.953 916.585,346.386 916.492,345.432C915.178,344.495 914.302,342.773 913.327,341.476C911.958,339.652 907.862,336.415 904.822,336.333ZM914.712,339.3C914.712,339.497 914.712,339.696 914.712,339.893C921.801,344.056 927.26,350.954 929.35,360.065C930.033,363.043 928.357,365.722 928.163,368.173C926.597,367.88 925.378,366.57 924.206,365.8C923.009,365.012 919.709,363.528 919.063,362.438C918.799,361.646 918.536,360.855 918.272,360.064C916.123,355.738 912.523,347.912 908.975,345.231C906.926,343.684 904.98,342.431 902.645,341.078C902.154,340.793 901.105,339.764 900.667,340.089C900.519,340.301 900.549,340.276 900.47,340.682C905.185,342.928 909.578,346.173 912.338,350.373C913.122,351.567 913.367,352.892 914.118,354.13C915.396,356.241 916.873,358.752 917.876,361.051C918.189,361.768 918.073,362.365 918.47,363.029C919.163,364.191 922.724,365.747 924.008,366.589C925.331,367.456 926.659,368.972 928.558,369.16C928.558,369.094 928.558,369.028 928.558,368.962C928.624,368.962 928.69,368.962 928.755,368.962C928.972,366.477 930.809,362.974 930.14,360.063C928.462,352.753 924.644,346.32 919.458,342.462C918.018,341.392 916.875,339.627 914.712,339.3ZM895.921,351.759C895.964,353.038 896.54,354.172 897.503,354.528C898.67,355.513 901.064,354.906 902.844,355.319C906.048,356.062 908.732,357.167 911.745,357.89C914.249,361.678 912.707,363.786 911.151,367.778C909.225,372.719 906.881,377.262 904.228,381.621C903.208,383.297 901.481,385.244 901.063,387.356C901.598,387.937 901.447,388.345 902.448,388.543C902.981,388.131 904.094,387.914 904.822,387.752C906.223,384.766 907.99,381.669 909.766,378.852C910.969,376.946 912.616,375.111 913.524,372.919C914.245,371.184 915.587,365.289 916.887,364.613C918.75,366.912 924.373,368.345 924.997,371.733C924.623,372.092 924.518,372.255 924.403,372.92C924.617,373.1 924.42,372.904 924.601,373.117C924.799,373.052 924.997,372.986 925.194,372.92C925.439,372.149 925.812,372.027 925.985,371.14C924.241,369.472 922.68,367.351 920.644,365.998C920.053,365.604 919.468,365.585 918.864,365.207C918.159,364.764 917.102,363.516 916.293,363.823C914.946,364.66 913.694,370.476 912.931,372.327C911.493,375.813 908.92,378.867 906.997,382.017C906.06,383.552 905.6,385.875 904.227,386.961C903.812,387.314 902.52,387.707 902.248,387.555C902.076,387.408 902.025,387.305 901.852,387.159C905.378,380.871 909.305,374.874 911.941,367.778C912.891,365.216 914.803,362.005 913.522,359.076C912.304,356.288 909.629,357.379 907.787,355.714C908.776,355.648 909.765,355.582 910.754,355.516C911.161,354.905 911.439,354.937 911.545,353.934C912.253,352.645 910.529,350.592 909.765,349.978C908.302,348.803 906.977,347.312 905.413,346.221C903.842,345.123 901.975,344.408 900.666,343.057C900.469,343.122 900.27,343.188 900.073,343.254C900.073,343.386 900.073,343.518 900.073,343.65C900.138,343.65 900.204,343.65 900.27,343.65C901.7,345.557 904.651,346.59 906.6,348.001C907.387,348.57 908.005,349.589 908.776,350.176C909.531,350.751 911.466,352.32 910.952,353.934C910.532,355.251 908.32,354.912 906.6,354.923C903.895,354.94 900.349,354.572 897.699,353.934C897.28,353.211 896.874,352.613 896.512,351.758C896.316,351.759 896.119,351.759 895.921,351.759ZM898.295,345.431C897.68,346.736 898.145,347.76 898.492,348.991C899.206,349.236 900.447,349.203 901.46,349.189C901.716,349.016 901.947,349.012 902.448,348.991C902.67,348.577 902.732,348.629 902.844,348.002C902.242,347.6 900.636,346.013 900.075,345.431C899.481,345.431 898.888,345.431 898.295,345.431ZM898.492,345.826C899.067,345.814 899.574,345.816 899.877,346.023C901.178,346.435 901.467,347.516 902.448,348.199C902.448,348.265 902.448,348.331 902.448,348.397C902.382,348.397 902.316,348.397 902.25,348.397C901.569,348.872 900.242,348.816 899.085,348.793C898.625,348.007 898.318,347.545 898.295,346.222C898.454,346.02 898.365,346.167 898.492,345.826ZM920.053,353.341C919.266,355.646 922.343,358.272 923.218,359.867C923.785,360.903 923.623,362.171 924.998,362.438C925.2,362.279 925.052,362.368 925.394,362.24C925.523,361.869 925.582,361.467 925.591,360.856C924.559,359.471 924.778,356.801 923.613,355.517C923.16,355.017 922.419,354.919 921.833,354.528C921.203,354.107 920.965,353.588 920.053,353.341ZM921.042,354.923C921.856,355.153 922.599,355.665 923.021,356.307C923.655,357.144 924.532,360.134 924.801,361.251C924.735,361.251 924.668,361.251 924.603,361.251C924.603,361.185 924.603,361.119 924.603,361.053C923.34,359.454 921.922,356.796 921.042,354.923ZM882.668,357.691C882.594,357.281 882.62,357.311 882.471,357.098C882.013,356.793 880.867,356.876 880.097,356.9C878.908,356.16 876.622,356.993 875.745,357.296C872.193,358.522 869.5,360.149 867.042,362.438C864.779,364.544 862.571,369.27 861.306,372.326C861.174,372.985 861.042,373.644 860.91,374.304C859.503,377.101 856.948,379.686 855.174,382.215C853.586,384.479 852.343,386.846 850.822,389.137C849.714,390.806 848.037,392.775 847.46,394.872C846.128,399.708 849.737,404.048 851.021,406.54C851.607,407.678 851.674,409.71 852.801,410.298C852.801,410.232 852.801,410.166 852.801,410.1C852.959,409.867 852.953,409.768 852.998,409.309C852.154,408.387 852.029,406.69 851.416,405.551C850.145,403.193 846.834,399.111 848.251,394.872C848.806,393.211 850.15,391.699 851.021,390.323C853.492,386.411 856.244,382.786 858.735,379.05C859.445,377.986 859.817,376.937 860.515,375.886C860.792,375.468 861.494,374.948 861.703,374.502C861.768,373.975 861.834,373.447 861.9,372.92C862.521,371.291 863.777,369.555 864.471,367.976C864.668,367.382 864.867,366.789 865.064,366.196C867.632,362.26 872.138,358.771 877.328,357.494C879.107,357.56 880.888,357.626 882.668,357.691ZM894.141,361.647C894.141,361.845 894.141,362.043 894.141,362.24C892.365,362.818 892.671,365.226 892.756,367.58C892.145,368.393 892.106,369.661 891.569,370.547C890.304,372.633 888.975,374.714 887.613,376.876C886.452,378.718 884.131,380.672 883.657,383.006C883.871,383.186 883.674,382.99 883.854,383.204C883.987,383.204 884.119,383.204 884.25,383.204C885.293,381.396 886.724,379.785 887.81,378.062C888.598,376.813 889.001,375.555 889.789,374.305C891.113,372.204 892.804,370.343 893.547,367.581C893.547,366.263 893.547,364.944 893.547,363.626C894.021,363.318 894.126,363.048 894.735,362.835C894.968,363.655 895.522,364.271 895.724,365.01C896.88,369.254 893.12,377.625 891.767,379.842C891.208,380.757 890.419,381.323 890.185,382.611C890.383,382.611 890.581,382.611 890.779,382.611C892.876,379.007 894.271,376.278 895.724,371.734C896.189,370.28 897.113,367.539 896.515,365.208C896.167,363.855 895.286,362.907 894.932,361.648C894.668,361.647 894.405,361.647 894.141,361.647ZM807.108,390.719C807.108,390.917 807.108,391.115 807.108,391.312C810.462,392.115 813.954,393.649 816.404,395.465C817.791,396.492 818.703,399.007 820.558,399.421C820.624,399.223 820.69,399.025 820.756,398.827C819.983,398.323 817.137,395.437 816.602,394.674C816.8,394.674 816.998,394.674 817.196,394.674C817.126,387.477 812.484,376.612 808.295,373.711C805.606,371.848 800.222,371.002 799.196,367.58C798.882,366.529 799.546,365.842 799.592,364.811C799.182,364.885 799.211,364.859 798.999,365.009C798.548,365.62 798.415,366.552 798.404,367.58C799.342,368.756 799.754,370.067 800.976,370.942C803.202,372.536 806.129,373.125 808.294,374.699C811.948,377.356 816.281,388.056 816.403,394.475C816.271,394.475 816.139,394.475 816.007,394.475C814.859,393.009 809.567,390.851 807.108,390.719ZM916.888,365.998C916.774,367.178 918.326,369.477 919.262,370.349C918.991,370.922 918.307,371.85 918.273,372.524C918.216,373.634 919.328,374.842 919.064,376.084C918.908,376.821 918.501,377.311 918.471,378.458C918.602,378.458 918.734,378.458 918.866,378.458C918.907,377.124 919.755,376.472 919.46,375.096C919.066,373.26 918.61,371.662 919.856,370.152C920.832,371.612 921.891,371.954 922.824,373.909C923.038,373.729 922.841,373.925 923.022,373.711C923.071,373.519 923.176,373.636 923.022,373.513C922.445,371.252 920.453,370.74 919.263,369.162C918.485,368.133 917.906,366.772 916.888,365.998ZM775.064,398.629C775.313,404.953 779.754,407.549 782.581,411.286C787.567,417.878 795.751,424.008 802.559,428.887C805.265,430.826 809.717,435.328 813.833,435.413C813.833,435.216 813.833,435.018 813.833,434.82C809.878,434.342 804.607,429.389 801.768,427.304C799.449,425.603 797.137,424.081 794.844,422.361C792.886,420.89 791.459,418.5 789.504,417.021C787.67,415.634 785.946,414.111 784.56,412.275C783.702,411.484 782.845,410.692 781.988,409.901C779.325,406.372 776.823,403.834 775.659,398.629C775.46,398.629 775.263,398.629 775.064,398.629ZM827.68,399.223C826.321,400.05 823.771,399.871 822.339,400.41C822.339,400.542 822.339,400.674 822.339,400.806C823.234,401.423 823.667,402.312 824.318,403.179C826.412,405.974 828.771,408.545 830.844,411.485C831.78,412.811 833.106,414.089 834.009,415.441C837.289,420.353 840.021,425.346 842.91,430.669C844.431,433.47 845.961,436.208 846.866,439.767C847.466,442.124 846.76,444.294 846.668,446.491C846.8,446.491 846.932,446.491 847.064,446.491C847.632,446.856 848.816,446.482 849.438,446.293C851.905,445.545 852.613,445.174 851.614,442.733C851.211,441.747 851.65,440.813 851.218,439.964C849.73,437.036 847.241,434.229 845.482,431.46C843.044,427.624 840.983,423.834 838.559,419.99C837.323,418.028 835.093,415.774 834.405,413.464C833.798,411.421 835.051,409.552 835.593,408.52C836.728,406.354 837.73,404.61 839.351,402.982C840.287,402.043 842.199,400.857 842.516,399.422C842.216,399.316 842.181,399.289 841.725,399.224C841.132,399.555 838.975,399.224 837.768,399.224C834.405,399.223 831.042,399.223 827.68,399.223ZM853.986,411.089C852.962,412.51 851.316,412.075 849.833,413.067C849.675,413.3 849.681,413.399 849.636,413.858C851.981,414.547 853.009,416.706 854.185,418.604C857.105,423.318 859.751,429.083 861.108,435.216C861.45,435.334 861.732,435.392 862.296,435.413C863.006,434.919 864.61,434.641 865.461,434.425C865.461,434.161 865.461,433.898 865.461,433.634C864.671,432.92 863.861,432.183 863.086,431.458C863.05,430.49 862.757,429.949 863.086,428.887C863.232,428.423 863.875,427.953 863.681,427.108C863.37,425.755 862.175,424.252 861.504,423.153C859.07,419.164 856.616,415.28 854.582,411.09C854.383,411.089 854.185,411.089 853.986,411.089ZM765.569,417.615C764.916,418.005 763.724,417.608 762.8,417.812C761.043,418.201 758.917,418.34 757.459,418.999C757.459,419.131 757.459,419.263 757.459,419.395C760.359,419.395 763.262,419.395 766.162,419.395C767.094,418.599 769.065,418.414 770.118,417.813C770.118,417.748 770.118,417.681 770.118,417.616C768.604,417.615 767.086,417.615 765.569,417.615ZM773.481,417.615C772.785,418.235 771.878,418.206 770.91,418.603C769.396,419.224 767.533,420.299 765.965,420.779C763.197,420.779 760.427,420.779 757.658,420.779C757.486,421.014 757.495,421.001 757.262,421.175C757.386,421.522 757.3,421.366 757.459,421.571C758.108,424.08 760.221,423.613 762.403,424.537C762.675,427.579 763.61,430.869 764.382,433.635C764.775,435.04 764.484,436.199 764.976,437.59C765.401,438.789 766.47,440.001 766.955,441.348C767.646,443.273 767.254,446 769.13,446.688C770.138,447.316 773.04,446.885 774.471,446.885C778.954,446.885 783.439,446.885 787.922,446.885C787.987,446.688 788.054,446.489 788.119,446.291C786.753,444.644 786.868,440.376 786.141,437.985C784.789,433.539 783.164,429.11 781.591,424.932C780.643,422.411 780.246,419.803 779.02,417.616C777.175,417.615 775.328,417.615 773.481,417.615ZM876.734,426.909C876.78,429.127 877.749,431.614 878.514,433.435C878.861,433.311 878.706,433.398 878.91,433.238C879.058,433.025 879.029,433.05 879.107,432.645C878.514,430.733 877.92,428.821 877.327,426.909C877.13,426.909 876.932,426.909 876.734,426.909ZM884.844,433.634C884.462,435.318 887.637,440.831 889.197,441.149C889.321,440.802 889.234,440.958 889.394,440.753C889.092,438.436 889.581,434.492 886.823,434.029C886.35,433.68 885.68,433.635 884.844,433.634ZM854.581,434.228C853.768,434.739 849.964,435.28 850.624,436.403C850.69,436.535 850.757,436.667 850.822,436.799C851.987,435.983 853.407,435.259 855.174,435.02C855.766,436.108 856.15,436.646 857.944,436.602C858.457,436.199 859.404,435.971 860.12,435.811C860.186,435.613 860.252,435.415 860.317,435.217C860.017,435.112 859.982,435.083 859.526,435.02C858.8,435.603 857.346,435.897 856.559,435.811C856.317,435.057 855.836,434.738 855.372,434.229C855.108,434.228 854.845,434.228 854.581,434.228ZM879.503,434.425C879.2,434.912 879.05,434.875 878.91,435.612C881.28,437.047 883.309,439.418 885.24,441.347C886.106,442.213 886.638,443.571 888.206,443.72C888.331,443.373 888.245,443.528 888.404,443.324C888.279,442.977 888.366,443.132 888.206,442.928C887.747,441.597 886.221,440.819 885.437,439.764C884.225,438.131 883.378,436.164 882.272,434.424C881.35,434.425 880.427,434.425 879.503,434.425ZM877.525,435.611C875.695,437.44 872.882,437.957 870.206,438.973C870.331,439.32 870.245,439.164 870.404,439.369C870.637,439.527 870.737,439.521 871.196,439.566C873.384,438.088 877.5,438.182 878.514,435.611C878.185,435.611 877.855,435.611 877.525,435.611ZM815.416,436.402C815.41,438.012 815.228,441.574 815.613,442.73C817.15,441.992 818.53,440.673 820.163,439.961C821.018,439.589 821.915,439.778 822.339,438.973C820.951,438.262 816.955,436.563 815.416,436.402ZM863.68,438.974C863.422,439.452 863.324,439.535 863.284,440.358C863.646,440.796 863.841,441.582 864.272,441.94C865.766,443.179 867.999,443.619 869.613,444.71C870.009,444.977 870.726,446.379 871.196,445.897C871.354,445.695 871.266,445.842 871.393,445.501C870.824,444.609 871.034,443.172 870.602,442.139C869.989,440.67 868.89,439.981 867.832,438.975C866.448,438.974 865.063,438.974 863.68,438.974ZM857.745,441.545C857.789,443.819 859.002,445.918 859.724,447.676C860.914,450.574 861.654,453.586 862.691,456.376C863.291,457.989 863.46,460.695 864.669,461.716C864.669,461.781 864.669,461.848 864.669,461.914C864.735,461.914 864.801,461.914 864.867,461.914C864.867,461.848 864.867,461.781 864.867,461.716C865.025,461.484 865.02,461.384 865.064,460.926C863.849,459.286 863.634,456.611 862.888,454.597C861.912,451.963 861.148,449.264 860.119,446.489C859.625,445.158 858.9,443.995 858.734,442.337C859.505,441.905 860.095,441.077 860.91,440.754C861.437,440.689 861.966,440.622 862.492,440.557C862.492,440.425 862.492,440.293 862.492,440.161C862.542,439.97 862.647,440.086 862.492,439.963C862.26,439.804 862.16,439.811 861.702,439.766C861.702,439.831 861.702,439.898 861.702,439.963C861.107,440.095 860.514,440.227 859.921,440.359C859.598,440.55 858.82,441.701 858.536,441.744C858.354,441.771 858.135,441.544 857.745,441.545ZM814.624,443.521C813.879,444.519 812.036,446.415 810.668,446.686C809.519,445.972 806.142,446.488 804.537,446.488C799.592,446.423 794.645,446.356 789.702,446.29C789.702,446.423 789.702,446.554 789.702,446.686C789.636,446.686 789.569,446.686 789.504,446.686C789.309,446.885 789.698,446.881 789.702,446.883C790.851,447.598 794.229,447.08 795.834,447.08C800.647,447.146 805.46,447.213 810.273,447.278C810.273,447.344 810.273,447.411 810.273,447.476C808.787,448.471 807.002,451.17 805.525,451.827C801.241,451.827 796.954,451.827 792.668,451.827C792.403,452.002 791.592,452.116 791.284,452.223C791.284,452.289 791.284,452.355 791.284,452.421C791.349,452.421 791.416,452.421 791.481,452.421C792.207,452.876 794.152,452.618 795.24,452.618C798.272,452.618 801.306,452.618 804.339,452.618C804.339,452.683 804.339,452.75 804.339,452.816C804.208,452.816 804.075,452.816 803.943,452.816C803.202,453.92 801.924,454.485 800.976,455.386C798.702,457.55 796.723,460.156 794.053,461.912C794.053,461.977 794.053,462.044 794.053,462.11C794.118,462.11 794.185,462.11 794.25,462.11C794.315,462.242 794.382,462.374 794.448,462.506C794.513,462.506 794.58,462.506 794.645,462.506C794.645,462.44 794.645,462.374 794.645,462.308C796.157,461.541 796.942,460.1 798.206,459.144C802.2,456.121 805.499,452.071 809.48,449.058C810.754,448.093 814.702,445.27 815.019,443.718C814.889,443.653 814.757,443.588 814.624,443.521ZM770.91,452.224C770.6,452.58 770.521,452.477 770.317,453.015C769.749,453.882 770.796,457.364 771.108,458.354C772.209,461.848 773.204,465.876 774.273,469.429C774.802,471.19 774.617,473.667 775.658,474.967C776.225,475.3 777.195,474.564 777.636,474.769C778.318,475.086 778.103,475.54 779.416,475.56C780.556,474.538 782.163,473.9 783.372,472.99C785.623,471.295 787.326,468.844 789.306,466.859C790.466,465.698 792.638,464.274 792.867,462.31C793.085,461.86 792.763,460.717 792.471,460.134C791.94,459.074 791.286,457.539 790.888,456.376C790.451,455.096 790.659,453.56 789.9,452.619C789.023,451.867 786.301,452.223 784.757,452.223C780.142,452.224 775.525,452.224 770.91,452.224ZM790.888,504.829C791.011,506.094 791.613,507.552 793.064,507.598C793.997,506.971 795.399,507.664 796.23,507.795C797.449,506.015 799.832,504.732 801.57,503.445C805.35,500.646 808.823,497.389 812.647,494.545C814.055,493.498 815.201,491.845 816.603,490.788C823.432,485.64 829.36,479.512 836.185,474.373C837.671,473.255 838.857,471.536 840.339,470.418C843.091,468.343 849.255,463.778 850.822,460.926C851.493,459.705 852.3,457.226 851.613,455.388C851.114,454.052 849.974,453.515 849.042,452.619C846.273,452.619 843.503,452.619 840.734,452.619C839.713,452.924 838.65,453.917 837.766,454.398C834.911,455.959 832.337,457.509 829.657,459.145C827.313,460.575 824.701,461.263 822.339,462.705C819.656,464.341 817.278,466.568 814.624,468.242C813.24,468.968 811.855,469.692 810.471,470.418C809.626,471.123 809.478,472.813 808.888,473.78C807.342,476.32 805.313,478.678 803.745,481.097C802.431,483.126 802.146,485.988 801.174,488.216C799.827,491.304 797.814,494.272 796.427,497.314C795.753,498.792 794.282,503.921 793.064,504.433C792.612,504.734 791.546,504.796 790.888,504.829ZM852.404,463.496C851.066,464.853 846.873,467.188 846.668,469.231C846.969,469.337 847.003,469.365 847.46,469.428C848.019,468.637 848.976,468.151 849.636,467.45C849.768,467.45 849.9,467.45 850.032,467.45C850.299,468.743 851.147,471.256 852.603,471.405C852.713,471.089 852.761,470.93 852.801,470.417C851.923,469.467 851.392,467.653 850.822,466.461C851.708,465.918 852.93,465.081 852.998,463.693C852.801,463.628 852.603,463.562 852.404,463.496ZM844.295,469.627C842.989,471.284 839.307,472.912 838.559,474.769C838.08,475.563 840.662,480.792 841.921,480.9C843.688,479.038 845.937,477.462 847.856,475.758C847.856,475.626 847.856,475.494 847.856,475.362C847.442,475.139 847.494,475.078 846.867,474.966C846.173,475.96 842.715,478.929 841.526,479.317C841.526,479.185 841.526,479.053 841.526,478.922C841.26,478.588 841.203,478.3 841.13,477.734C842.234,477.191 846.132,473.9 846.273,472.591C845.956,472.482 845.798,472.434 845.285,472.394C844.69,473.296 841.345,476.389 840.34,476.745C840.143,476.219 839.944,475.691 839.746,475.163C841.592,473.581 843.438,471.999 845.285,470.417C845.285,470.285 845.285,470.153 845.285,470.021C845.05,469.85 845.062,469.859 844.889,469.625C844.69,469.627 844.492,469.627 844.295,469.627ZM790.098,489.009C787.394,489.009 784.691,489.009 781.988,489.009C782.053,490.448 782.788,493.004 783.57,493.952C784.33,494.445 786.583,494.177 787.724,494.15C788.381,493.719 790.267,493.926 791.285,493.952C791.167,494.896 791.168,495.579 791.285,496.522C789.637,496.654 787.988,496.787 786.34,496.918C786.387,498.717 787.09,499.825 787.329,501.466C788.822,501.491 790.918,501.664 792.076,501.269C792.076,501.203 792.076,501.136 792.076,501.072C790.626,501.072 789.175,501.072 787.724,501.072C787.724,500.939 787.724,500.807 787.724,500.676C787.169,499.889 786.953,498.344 786.735,497.315C788.318,497.183 789.9,497.051 791.482,496.919C791.482,497.051 791.482,497.183 791.482,497.315C792.141,498.239 792.226,500.445 792.274,501.864C792.684,501.791 792.654,501.815 792.867,501.666C793.026,501.433 793.02,501.333 793.064,500.875C792.75,500.351 793.072,499.456 792.867,498.699C792.654,497.907 792.078,496.545 791.879,495.732C791.944,494.282 792.011,492.832 792.076,491.381C791.712,490.04 790.864,488.814 790.494,487.426C792.52,486.103 791.879,484.754 793.064,483.075C793.255,482.804 793.567,483.07 793.856,482.877C794.841,482.218 795.617,481.066 796.625,480.307C798.728,478.722 800.518,476.393 802.758,474.967C804.256,474.013 808.508,472.345 809.087,470.814C809.021,470.814 808.955,470.814 808.889,470.814C808.889,470.749 808.889,470.682 808.889,470.616C808.543,470.741 808.698,470.654 808.494,470.814C807.24,471.201 806.324,472.162 805.329,472.792C804.213,473.498 803.037,473.825 801.966,474.571C800.045,475.91 798.347,477.684 796.428,479.121C795.05,480.153 794.42,481.998 792.472,482.482C789.942,481.599 787.307,479.691 785.549,477.934C784.588,476.973 783.757,475.256 782.384,474.769C782.384,474.834 782.384,474.901 782.384,474.967C782.319,474.967 782.252,474.967 782.186,474.967C782.311,475.314 782.225,475.158 782.384,475.363C782.754,476.367 786.607,480.276 787.527,480.9C788.855,481.8 791.53,482.043 792.275,483.471C791.9,483.94 791.999,484.456 791.681,485.053C791.149,486.056 789.979,486.306 789.703,487.623C789.955,487.969 790.035,488.459 790.098,489.009ZM870.603,471.209C870.815,472.415 871.842,473.252 872.383,474.176C872.647,474.967 872.91,475.758 873.174,476.548C873.638,477.339 874.466,478.174 874.954,478.923C875.523,479.794 875.54,480.866 876.339,481.492C876.339,481.558 876.339,481.625 876.339,481.69C876.404,481.69 876.471,481.69 876.536,481.69C876.536,481.625 876.536,481.558 876.536,481.492C876.602,481.492 876.668,481.492 876.734,481.492C876.734,481.427 876.734,481.361 876.734,481.295C874.573,479.465 872.742,472.232 870.603,471.209ZM859.13,471.802C859.923,473.557 860.596,475.82 861.702,477.34C863.06,479.209 865.265,480.65 866.645,482.482C867.249,483.284 867.603,484.28 868.425,484.855C868.425,484.657 868.425,484.459 868.425,484.262C866.7,482.527 865.15,480.501 863.679,478.527C863.097,477.746 862.049,477.185 861.502,476.351C860.634,475.023 860.704,472.4 859.13,471.802ZM710.186,472.198C709.139,472.81 707.357,472.274 706.033,472.593C703.791,473.055 701.549,473.516 699.307,473.979C692.183,476.305 686.132,479.293 680.713,483.273C670.992,490.412 664.961,501.201 661.328,514.52C659.463,521.36 660.131,533.14 662.119,539.241C665.191,548.659 669.537,556.54 675.768,562.775C683.041,570.055 692.013,574.372 703.658,577.409C707.384,578.382 714.908,578.731 718.888,577.805C719.877,577.74 720.867,577.673 721.856,577.608C725.222,576.755 728.691,576.292 731.746,575.037C737.423,572.703 742.4,569.753 746.976,566.335C748.304,565.344 749.286,563.843 750.537,562.775C752.759,560.879 757.516,555.769 758.449,552.887C758.235,552.707 758.432,552.902 758.251,552.689C757.904,552.813 758.059,552.727 757.855,552.887C756.905,553.819 756.461,555.135 755.68,556.248C754.567,557.83 753.11,559.224 751.921,560.797C751.066,561.928 749.703,562.9 748.559,563.763C747.377,564.655 746.401,566.041 745.196,566.927C741.435,569.69 737.092,572.161 732.537,574.047C729.12,575.462 725.317,576.068 721.46,577.013C713.306,579.013 701.134,576.634 695.351,574.245C679.634,567.752 670.346,558.514 663.901,542.8C662.702,539.879 662.315,536.524 661.527,533.308C659.803,526.277 661.508,515.615 663.307,510.169C669.506,491.41 681.424,480.462 700.296,474.373C713.13,470.232 730.254,474.366 738.669,479.515C740.855,480.853 743.881,481.877 745.395,483.867C745.46,483.867 745.527,483.867 745.592,483.867C745.592,483.802 745.592,483.735 745.592,483.669C745.724,483.604 745.856,483.538 745.988,483.472C745.988,483.406 745.988,483.34 745.988,483.274C744.695,482.847 743.693,481.613 742.626,480.901C740.243,479.313 737.372,477.706 734.714,476.549C727.729,473.513 720.241,472.349 710.186,472.198ZM884.646,472.989C883.708,473.549 882.092,473.105 880.887,473.384C878.91,473.843 876.567,474.084 874.755,474.769C874.821,474.967 874.888,475.165 874.953,475.363C875.018,475.363 875.085,475.363 875.151,475.363C877.23,473.88 882.145,474.446 885.239,473.781C888.838,473.007 893.925,473.762 896.909,474.571C898.721,475.063 900.174,475.003 901.853,475.56C907.945,477.584 912.846,480.498 917.48,483.867C925.491,489.689 931.447,498.235 934.886,508.588C935.53,510.525 935.537,512.234 936.073,514.322C937.088,518.282 937.775,526.137 936.667,530.737C935.866,534.061 935.524,537.625 934.294,540.625C928.736,554.172 920.066,564.309 906.8,570.093C903.467,571.545 899.705,572.306 895.92,573.257C889.199,574.946 879.908,573.638 874.558,571.872C857.417,566.217 848.342,557.183 841.723,541.02C839.074,534.553 837.098,523.021 839.349,514.322C842.175,503.399 845.406,497.69 851.217,489.998C852.881,487.796 857.015,484.306 859.326,482.68C860.437,481.9 862.457,481.327 863.084,480.11C862.953,480.11 862.821,480.11 862.689,480.11C862.689,480.044 862.689,479.978 862.689,479.913C862.623,479.913 862.557,479.913 862.491,479.913C862.491,479.978 862.491,480.044 862.491,480.11C859.744,481.001 854.08,486.005 852.403,488.218C850.752,490.402 848.479,492.246 846.865,494.546C843.638,499.148 841.454,504.672 839.547,510.566C839.028,512.168 839.177,513.574 838.755,515.312C837.973,518.544 837.274,525.466 838.162,529.353C838.624,531.858 839.085,534.364 839.547,536.869C845.468,555.11 856.095,566.55 874.36,572.467C881.428,574.757 893.13,575.308 900.668,572.863C916.903,567.596 928.038,557.6 934.295,542.407C938.855,531.334 938.415,515.256 933.899,504.634C925.997,486.05 911.146,473.05 884.646,472.989ZM788.91,526.781C790.62,526.719 793.073,526.84 793.855,527.769C794.085,528.434 793.489,530.495 793.657,531.527C794.939,532.213 795.299,533.769 797.02,533.9C797.74,532.864 799.213,532.657 799.394,531.131C797.042,529.602 795.639,527.484 792.47,526.583C791.334,526.259 788.851,526.714 788.514,526.187C787.22,524.505 787.019,522.609 786.338,520.254C785.608,517.725 783.991,515.338 783.568,512.541C783.634,512.541 783.7,512.541 783.766,512.541C784.356,513.077 784.808,512.833 785.744,512.738C785.744,513.134 785.744,513.53 785.744,513.926C787.467,514.739 789.146,516.034 791.085,516.496C792.904,516.93 793.648,515.408 795.239,515.705C796.913,516.018 798.395,516.673 800.382,516.298C800.957,515.329 801.195,514.666 801.173,512.937C800.351,512.29 800.309,511.104 799.591,510.366C799.013,509.771 798.014,509.558 797.415,508.982C797.218,509.047 797.019,509.114 796.821,509.179C796.821,509.311 796.821,509.443 796.821,509.575C796.887,509.575 796.953,509.575 797.019,509.575C798.48,511.035 800.367,511.783 800.58,514.519C799.83,515.451 799.835,515.759 798.008,515.706C795.331,513.868 793.238,516.273 791.085,515.706C789.496,515.287 788.084,514.179 786.536,513.531C786.514,512.514 786.292,512.343 785.942,511.751C785.348,511.883 784.755,512.015 784.162,512.147C783.398,510.959 781.933,510.066 781.393,508.785C780.379,506.381 781.351,504.45 781.393,501.864C780.242,501.073 777.606,498.834 776.843,497.71C776.068,496.567 775.722,494.379 774.073,494.151C771.282,496.131 768.488,493.094 767.347,491.975C767.368,491.033 767.57,490.553 767.743,489.799C765.934,488.954 764.168,489.147 764.183,486.437C764.991,485.145 764.662,482.715 765.37,481.295C766.912,478.196 771.939,477.088 775.261,475.758C775.261,475.56 775.261,475.362 775.261,475.164C771.968,475.384 766.147,478.475 764.778,480.701C764.185,481.665 764.501,483.264 763.789,484.064C763.789,483.998 763.789,483.931 763.789,483.866C762.861,483.112 762.338,481.864 761.613,480.899C760.756,480.108 759.898,479.317 759.041,478.526C758.452,477.938 757.684,476.665 756.865,476.944C756.177,477.26 754.062,479.853 753.898,480.701C755.837,482.017 757.629,483.973 759.041,485.844C759.682,486.692 760.777,487.358 761.415,488.217C763.004,490.359 764.576,492.671 765.964,494.941C769.402,500.565 770.831,507.498 772.69,514.717C773.182,516.627 773.794,523.436 773.284,525.792C773.034,526.943 772.79,529.388 773.086,530.341C773.218,530.276 773.35,530.209 773.482,530.144C774.401,527.796 774.084,522.315 774.076,519.266C777.149,517.361 775.462,516.042 776.252,512.147C777.73,504.861 772.47,500.977 770.911,495.337C771.57,495.337 772.23,495.337 772.89,495.337C773.211,495.121 774.048,495.022 774.472,494.941C774.993,496.834 776.973,499.418 778.428,500.479C779.437,501.214 780.339,501.576 780.802,502.851C778.46,505.39 781.904,510.96 782.582,512.74C784.406,517.527 785.718,522.214 787.725,526.782C788.353,528.211 789.287,529.833 789.901,531.331C790.558,532.935 790.623,534.475 791.286,536.077C791.729,537.148 792.508,537.666 792.67,539.043C792.329,539.386 792.374,539.594 791.88,539.835C791.281,540.246 789.942,539.98 789.308,539.835C789.066,539.384 788.985,539.39 788.912,538.648C789.645,537.672 788.584,535.676 788.121,534.495C787.088,531.854 785.844,528.983 784.759,526.387C784.223,525.104 784.18,523.423 783.176,522.629C783.176,522.564 783.176,522.497 783.176,522.431C782.977,522.236 782.981,522.626 782.979,522.629C782.82,522.862 782.826,522.962 782.781,523.42C783.031,523.689 783.052,523.77 783.177,524.211C781.405,524.401 780.676,525.37 779.222,525.991C779.057,528.18 777.283,527.126 776.848,528.76C777.174,529.114 777.193,529.257 777.244,529.947C776.565,530.196 776.134,530.234 775.859,530.935C775.478,531.552 776.069,532.263 776.057,532.517C775.401,533.176 774.501,533.385 774.277,534.496C774.726,534.786 774.872,534.911 775.068,535.484C774.444,535.869 774.165,536.093 774.079,537.066C774.493,537.443 774.865,537.856 775.068,538.451C774.694,538.81 774.589,538.973 774.474,539.638C774.606,539.638 774.738,539.638 774.87,539.638C774.87,539.506 774.87,539.374 774.87,539.242C775.346,538.876 775.409,538.68 775.464,537.857C774.961,537.519 774.675,537.12 774.475,536.473C775.099,536.088 775.379,535.865 775.464,534.891C775.103,534.657 774.91,534.457 774.673,534.1C775.325,533.79 776.337,533.167 776.651,532.517C776.909,532.098 776.099,531.658 776.255,531.133C776.743,530.262 777.562,530.72 777.838,529.551C777.511,529.197 777.492,529.054 777.442,528.364C779.874,527.854 779.149,526.724 779.815,526.188C780.643,525.522 782.353,524.919 783.376,524.408C784.28,528.811 786.824,533.013 788.321,537.065C788.724,538.157 788.03,539.014 788.518,540.229C789.84,540.863 791.369,540.827 792.87,540.427C793.056,539.68 793.338,539.315 793.464,538.449C791.788,536.124 791.501,533.004 790.299,530.143C789.837,529.054 789.066,528.231 788.91,526.781ZM777.438,476.548C777.099,477.616 777.716,478.634 778.031,479.515C779.907,484.759 779.051,484.653 784.361,486.635C785.567,487.085 788.04,488.513 789.108,487.229C789.042,487.229 788.976,487.229 788.91,487.229C788.52,486.99 787.925,487.2 787.328,487.032C785.384,486.481 782.622,485.567 780.999,484.46C779.193,483.23 778.363,478.957 777.834,476.549C777.702,476.548 777.57,476.548 777.438,476.548ZM831.042,489.206C831.372,489.206 831.701,489.206 832.031,489.206C832.096,489.009 832.163,488.81 832.228,488.612C832.657,488 832.643,486.887 832.624,485.843C833.035,485.77 833.006,485.795 833.218,485.645C835.031,485.044 838.533,481.832 838.559,479.317C838.402,479.124 838.273,478.774 838.163,478.526C837.328,477.986 837.047,477.566 835.592,477.537C834.624,478.516 830.363,480.874 830.054,481.889C829.674,483.134 831.175,484.933 831.438,485.844C831.307,486.965 831.175,488.084 831.042,489.206ZM835.789,478.923C836.118,478.923 836.448,478.923 836.778,478.923C837.063,479.45 837.173,479.757 837.174,480.701C835.601,481.905 834.195,484.15 832.229,484.854C832.229,484.722 832.229,484.59 832.229,484.458C831.821,483.946 831.547,483.051 831.438,482.283C832.771,481.47 834.85,480.158 835.789,478.923ZM769.525,479.12C769.411,480.985 772.643,486.438 773.679,488.414C774.997,490.929 775.698,493.772 777.24,496.128C778.543,498.116 780.851,499.702 782.184,501.665C785.684,506.813 785.895,513.059 793.657,514.124C793.657,514.058 793.657,513.992 793.657,513.927C792.169,513.062 789.914,512.759 788.514,511.751C787.535,511.047 787.492,510.404 786.932,509.18C786.193,507.563 784.686,505.954 783.767,504.434C783.204,503.5 783.182,502.356 782.58,501.467C781.066,499.235 778.208,497.458 777.041,494.941C775.255,491.086 773.534,487.351 771.701,483.669C770.942,482.142 770.642,480.283 769.525,479.12ZM710.383,481.295C708.21,482.575 701.587,481.568 701.482,484.656C702.82,486.524 703.21,492.137 704.054,494.742C705.547,499.347 706.519,504.591 708.01,509.18C708.142,510.037 708.274,510.894 708.406,511.751C709.057,513.419 711.234,514.945 712.362,516.299C712.889,516.167 713.417,516.035 713.944,515.904C714.406,514.915 714.868,513.925 715.329,512.937C715.663,511.82 715.124,510.041 714.933,509.179C714.186,505.792 714.637,502.244 713.944,499.093C713.337,496.327 713.709,493.505 713.153,490.986C712.648,488.697 713.134,482.997 712.164,481.492C712.164,481.427 712.164,481.361 712.164,481.295C711.57,481.295 710.977,481.295 710.383,481.295ZM714.142,481.295C713.662,482.843 714.529,488.166 714.933,489.997C714.999,491.381 715.065,492.765 715.131,494.15C716.116,498.557 715.8,503.706 716.713,508.191C716.872,507.989 716.783,508.136 716.911,507.795C718.566,505.543 718.763,502.002 719.878,499.292C721.276,495.892 722.174,492.174 723.637,488.612C724.39,486.774 725.312,484.744 725.812,482.678C722.178,481.881 718.999,481.33 714.142,481.295ZM885.438,482.877C884.635,483.368 879.32,484.001 878.12,484.262C878.12,484.393 878.12,484.526 878.12,484.657C879.07,485.699 879.335,487.16 880.098,488.415C880.83,489.62 881.92,491.057 882.472,492.371C882.537,492.832 882.604,493.294 882.669,493.755C883.571,496.087 885.208,498.514 886.23,500.875C886.948,502.533 887.122,504.86 888.208,506.214C888.239,503.617 887.924,500.8 887.418,498.502C886.809,495.737 887.184,492.912 886.626,490.394C886.173,488.342 886.794,484.538 885.835,483.077C885.631,482.916 885.779,483.004 885.438,482.877ZM888.009,482.877C887.711,483.302 887.659,483.259 887.613,484.065C888.391,485.35 887.821,488.445 888.206,490.196C888.874,493.219 888.48,496.642 889.196,499.885C889.831,502.763 890.144,506.207 890.184,509.377C890.25,509.377 890.316,509.377 890.382,509.377C890.382,509.312 890.382,509.246 890.382,509.18C891.944,507.05 892.531,502.766 893.546,500.083C895.43,495.105 897.805,489.746 899.084,484.459C898.887,484.393 898.689,484.328 898.491,484.262C896.722,483.015 890.993,482.884 888.009,482.877ZM727.592,483.471C724.067,491.329 721.358,500.029 718.296,508.192C717.802,509.506 715.863,515.337 717.702,516.498C718.778,515.447 720.423,515.021 721.658,514.125C723.192,513.012 724.294,510.924 725.417,509.378C726.783,507.496 728.721,505.836 729.966,503.841C731.58,501.254 732.538,498.534 734.12,495.931C735.453,493.735 737.529,491.196 738.273,488.614C735.068,486.531 732.652,483.9 727.592,483.471ZM766.56,483.471C766.56,483.668 766.56,483.867 766.56,484.065C767.759,484.919 768.452,486.429 769.329,487.624C770.601,489.358 772.456,490.79 773.482,492.766C773.615,492.766 773.747,492.766 773.878,492.766C773.878,492.635 773.878,492.503 773.878,492.371C771.473,490.052 769.155,485.195 766.56,483.471ZM699.108,484.262C697.844,485.201 695.954,485.514 694.559,486.24C692.336,487.395 690.267,488.877 688.229,490.196C688.229,490.261 688.229,490.327 688.229,490.393C688.294,490.393 688.361,490.393 688.427,490.393C689.287,491.722 690.675,492.541 691.591,493.754C694.483,497.577 698.199,500.615 701.086,504.434C702.562,506.386 705.057,507.729 706.229,509.972C706.294,509.972 706.361,509.972 706.426,509.972C706.426,509.774 706.426,509.576 706.426,509.377C705.472,507.937 705.587,505.631 705.041,503.84C703.738,499.559 702.772,494.861 701.48,490.59C700.909,488.698 701.024,485.878 699.898,484.459C699.898,484.393 699.898,484.328 699.898,484.262C699.636,484.262 699.372,484.262 699.108,484.262ZM827.086,484.459C825.79,485.792 821.367,488.319 821.152,490.195C821.807,490.866 822.865,492.654 823.13,493.556C823.423,494.555 822.818,495.225 822.734,496.127C823.034,496.231 823.07,496.26 823.525,496.324C823.727,496.166 823.58,496.254 823.921,496.127C824.191,495.115 824.367,493.975 824.119,492.764C826.145,492.408 827.951,489.87 829.262,488.612C829.376,487.37 829.475,486.452 829.064,485.448C828.411,485.038 828.014,484.678 827.086,484.459ZM901.063,485.053C899.658,486.936 899.27,489.651 898.294,491.975C896.042,497.337 894.012,503.297 891.964,508.785C891.349,510.433 889.483,515.993 891.568,517.289C892.948,515.548 897.683,514.388 898.886,512.74C899.465,511.948 899.559,511.012 900.074,510.17C902.373,506.4 904.241,502.19 906.601,498.304C907.777,496.366 910.769,492.269 911.15,489.998C910.29,489.454 909.617,488.555 908.777,488.02C906.615,486.644 903.808,485.768 901.063,485.053ZM827.284,485.844C830.079,487.269 824.845,491.538 823.525,491.975C823.356,491.241 823.004,490.635 822.537,490.196C822.537,490.063 822.537,489.931 822.537,489.8C824.039,489.05 826.344,487.198 827.284,485.844ZM765.569,521.64C765.767,521.64 765.965,521.64 766.163,521.64C766.446,510.184 760.102,499.582 755.284,492.963C754.008,491.21 751.183,487.145 749.152,486.437C749.152,486.503 749.152,486.569 749.152,486.635C749.087,486.635 749.02,486.635 748.955,486.635C748.955,486.7 748.955,486.767 748.955,486.833C749.02,486.833 749.087,486.833 749.152,486.833C750.701,489.237 753.379,491.039 755.086,493.358C760.124,500.204 765.318,510.255 765.569,521.64ZM867.833,488.414C866.503,489.678 863.366,490.154 862.69,491.975C864.557,493.233 866.837,496.266 868.228,498.105C869.961,500.399 872.626,502.142 874.36,504.434C875.325,505.709 877.631,508.848 879.107,509.377C879.107,509.246 879.107,509.114 879.107,508.982C878.712,508.341 878.79,507.357 878.514,506.609C877.817,504.717 877.168,502.762 876.338,500.874C874.398,496.455 871.08,492.527 868.623,488.414C868.36,488.414 868.097,488.414 867.833,488.414ZM739.855,489.403C739.078,490.786 738.199,492.074 737.481,493.556C737.547,493.556 737.614,493.556 737.68,493.556C738.437,492.297 740.047,491.254 740.25,489.6C740.119,489.535 739.987,489.47 739.855,489.403ZM782.581,489.403C785.152,489.403 787.724,489.403 790.295,489.403C790.956,490.571 791.566,491.982 791.284,493.556C789.899,493.556 788.514,493.556 787.13,493.556C786.541,493.943 784.9,493.78 783.965,493.753C783.342,492.565 782.716,490.976 782.581,489.403ZM912.536,490.59C912.002,492.746 910.263,494.933 909.174,496.721C908.264,498.214 907.903,499.78 906.998,501.27C905.076,504.431 903.184,507.822 901.46,511.158C901.592,511.158 901.724,511.158 901.855,511.158C903.105,509.627 905.488,508.875 907.196,507.796C910.071,505.983 913.041,503.931 915.9,502.063C917.28,501.16 919.925,500.398 920.646,498.898C920.672,498.106 919.374,497.037 918.668,496.327C916.88,494.525 915.191,491.401 912.536,490.59ZM686.449,491.578C684.841,493.961 679.951,496.678 679.328,499.686C686.316,505.223 693.307,510.762 700.296,516.298C702.998,516.694 705.703,517.09 708.405,517.485C708.405,517.42 708.405,517.354 708.405,517.288C707.67,516.22 708.048,514.58 707.417,513.333C706.496,511.517 704.077,510.384 702.867,508.784C699.818,504.756 695.899,501.3 692.383,497.709C690.96,496.256 688.267,492.229 686.449,491.578ZM819.569,491.776C819.24,491.776 818.911,491.776 818.581,491.776C817.59,493.13 815.202,493.649 814.822,495.534C815.164,495.652 815.446,495.71 816.009,495.731C816.334,495.235 816.649,495.02 817.197,494.742C817.526,496.094 818.342,496.896 818.582,498.303C817.6,498.597 816.273,499.582 815.614,500.282C815.267,500.157 815.422,500.243 815.218,500.084C814.397,499.175 814.177,497.481 813.438,496.523C813.091,496.648 813.247,496.562 813.042,496.721C812.681,497.031 812.767,496.895 812.646,497.512C813.055,498.025 813.329,498.92 813.437,499.687C812.051,500.562 808.428,503.217 807.502,504.434C807.437,504.434 807.371,504.434 807.305,504.434C807.128,503.365 806.965,502.371 805.723,502.259C805.613,502.575 805.565,502.734 805.525,503.247C806.466,504.561 806.276,508.018 808.097,508.39C808.226,508.019 808.285,507.616 808.294,507.005C807.98,506.634 807.772,505.852 807.898,505.62C808.86,504.636 812.996,501.282 814.227,500.874C814.485,501.578 814.708,501.617 815.612,501.665C816.968,500.585 821.544,498.496 821.744,496.721C821.428,496.612 821.269,496.563 820.756,496.523C820.444,496.939 820.132,497.139 819.568,497.315C819.24,496.002 818.422,495.152 818.183,493.754C818.645,493.425 819.107,493.095 819.568,492.765C819.569,492.437 819.569,492.106 819.569,491.776ZM743.416,492.963C740.978,496.85 737.464,500.139 734.713,503.84C733.68,505.232 731.777,506.479 731.152,508.192C731.218,508.192 731.284,508.192 731.35,508.192C732.843,506.815 734.929,506.136 736.69,505.028C739.171,503.465 741.728,501.649 744.207,500.084C745.448,499.299 747.63,498.759 748.163,497.315C748.097,497.315 748.031,497.315 747.965,497.315C747.323,495.469 745.237,494.494 744.207,492.963C743.943,492.963 743.68,492.963 743.416,492.963ZM879.107,517.882C879.162,516.142 880.101,513.823 879.107,512.345C878.524,510.675 875.77,508.673 874.558,507.4C871.43,504.115 868.464,500.717 865.261,497.512C864.424,496.674 861.798,493.118 860.909,493.359C859.432,493.878 854.523,499.333 853.985,500.875C855.09,501.583 855.933,502.69 856.953,503.446C860.806,506.3 864.376,509.296 868.227,512.147C871.847,514.824 873.004,517.407 879.107,517.882ZM748.757,499.094C747.345,500.811 742.385,502.895 740.251,504.237C732.582,509.058 726.287,511.786 722.251,520.453C723.636,520.453 725.021,520.453 726.405,520.453C727.739,521.351 731.697,519.522 732.735,519.069C738.025,516.757 743.512,514.251 748.756,511.95C750.306,511.269 754.497,510.358 754.69,508.588C753.794,507.528 753.811,505.679 753.108,504.435C752.021,502.513 750.536,500.861 749.35,499.095C749.152,499.094 748.955,499.094 748.757,499.094ZM921.635,500.281C920.051,501.848 917.633,502.626 915.701,503.84C912.167,506.063 908.542,508.541 905.02,510.762C903.816,511.521 902.586,511.918 901.459,512.74C899.629,514.074 898.529,516.503 897.305,518.475C896.686,519.473 895.867,520.095 895.525,521.442C896.382,521.442 897.239,521.442 898.096,521.442C899.937,522.661 904.511,520.51 906.008,519.86C913.064,516.794 920.609,514.099 927.569,510.762C926.052,507.235 924.695,502.264 921.635,500.281ZM678.142,501.27C677.556,502.457 676.582,503.495 675.966,504.631C675.239,505.971 674.987,507.336 674.383,508.784C674.115,509.429 673.112,511.31 673.395,511.751C675.162,512.884 678.267,512.383 680.516,512.938C683.173,513.593 686.162,513.617 689.021,514.322C691.189,514.857 693.741,515.377 696.142,515.51C696.142,515.444 696.142,515.378 696.142,515.312C693.639,514.05 691.792,511.602 689.615,509.973C686.207,507.424 681.562,504.315 678.736,501.271C678.538,501.27 678.34,501.27 678.142,501.27ZM848.251,512.938C855.568,514.125 862.889,515.311 870.206,516.498C870.206,516.366 870.206,516.234 870.206,516.102C868.815,515.616 867.935,514.15 866.844,513.333C863.457,510.801 860.343,508.149 856.954,505.62C855.663,504.656 854.666,503.019 852.998,502.456C852.998,502.522 852.998,502.588 852.998,502.653C851.291,503.903 848.494,510.195 848.251,512.938ZM803.152,504.236C802.93,504.649 802.868,504.597 802.756,505.224C803.333,505.904 804.523,508.583 803.744,509.773C803.248,511.22 801.863,511.656 801.568,513.333C801.885,513.443 802.045,513.491 802.557,513.531C803.413,512.41 804.272,511.289 805.128,510.169C805.187,507.449 804.426,506.353 803.941,504.434C803.68,504.367 803.416,504.302 803.152,504.236ZM793.263,504.829C794.084,505.237 794.565,505.877 794.844,506.808C794.779,506.808 794.712,506.808 794.647,506.808C794.221,507.111 792.676,507.116 792.471,507.005C791.817,506.689 791.646,506.004 791.482,505.225C791.615,505.225 791.747,505.225 791.878,505.225C792.155,505.05 792.987,505.01 793.263,504.829ZM782.581,521.441C782.407,519.914 781.513,518.864 780.999,517.683C779.815,514.971 778.895,512.334 777.636,509.773C777.288,509.898 777.444,509.811 777.24,509.971C777.092,510.183 777.121,510.158 777.042,510.564C777.806,511.409 777.93,512.585 778.427,513.728C779.513,516.223 780.785,518.965 781.988,521.441C782.185,521.441 782.383,521.441 782.581,521.441ZM755.878,511.355C753.515,511.504 751.244,513.099 749.351,513.926C746.013,515.382 742.813,516.259 739.46,517.683C737.335,518.585 735.138,519.857 732.735,520.452C732.735,520.518 732.735,520.585 732.735,520.65C733.79,520.65 734.844,520.65 735.899,520.65C743.086,520.847 750.273,521.046 757.46,521.243C757.566,520.943 757.594,520.909 757.658,520.452C757.184,519.7 757.527,518.74 757.262,517.683C756.773,515.739 756.165,513.39 755.878,511.355ZM929.745,524.012C929.851,520.491 929.513,517.512 928.756,514.915C928.443,513.84 928.637,512.644 927.767,512.146C925.849,513.791 922.48,514.257 920.053,515.31C916.606,516.805 912.967,518.104 909.371,519.661C907.763,520.358 906.077,521.381 904.228,521.837C904.228,521.903 904.228,521.969 904.228,522.035C904.69,522.035 905.151,522.035 905.613,522.035C913.656,522.693 921.702,523.354 929.745,524.012ZM672.801,513.531C671.477,516.561 671.24,520.757 671.219,525.002C671.35,525.002 671.483,525.002 671.615,525.002C673.072,525.912 677.467,524.961 679.527,525.397C682.633,526.055 686.631,525.99 690.01,525.991C691.46,525.991 692.911,525.991 694.362,525.991C695.728,526.28 699.037,526.646 700.692,526.188C702.142,525.529 703.593,524.87 705.043,524.21C705.109,523.749 705.176,523.287 705.241,522.825C703.324,521.615 701.666,519.058 699.505,518.277C690.604,516.695 681.701,515.113 672.801,513.531ZM846.272,525.792C855.041,526.188 863.812,526.584 872.581,526.98C874.594,527.401 878.791,525.501 878.91,524.012C878.763,523.773 878.883,523.817 878.91,523.222C876.916,522.539 875.752,520.168 873.965,519.266C871.902,518.225 867.405,518.332 864.866,517.684C862.12,516.984 859.138,516.873 856.163,516.102C853.591,515.436 850.565,514.686 847.657,514.52C847.477,514.735 847.673,514.537 847.46,514.717C847.036,518.312 846.312,521.178 846.272,525.792ZM896.91,515.311C896.208,516.18 892.937,518.098 891.766,518.475C891.766,518.608 891.766,518.739 891.766,518.871C893.117,519.022 893.891,519.686 894.931,520.058C895.36,518.292 896.545,516.851 897.305,515.311C897.174,515.311 897.041,515.311 896.91,515.311ZM875.943,518.871C876.659,519.955 878.176,521.167 879.305,521.837C879.305,521.243 879.305,520.65 879.305,520.058C879.406,519.58 879.625,519.815 879.107,519.463C878.436,519.004 876.952,518.9 875.943,518.871ZM704.449,519.266C704.449,519.463 704.449,519.662 704.449,519.86C705.01,520.216 705.314,520.615 706.032,520.848C706.36,520.413 706.593,520.448 706.822,519.86C706.757,519.86 706.69,519.86 706.625,519.86C706.625,519.794 706.625,519.728 706.625,519.662C705.9,519.529 705.175,519.397 704.449,519.266ZM722.251,522.035C722.317,522.364 722.383,522.693 722.449,523.023C722.646,523.023 722.845,523.023 723.042,523.023C723.601,522.592 724.475,522.48 725.021,522.035C724.098,522.035 723.175,522.035 722.251,522.035ZM728.977,522.035C727.94,522.828 725.948,523.466 724.625,523.814C724.625,523.88 724.625,523.946 724.625,524.011C725.152,524.011 725.681,524.011 726.207,524.011C728.087,525.165 732.798,524.615 735.306,525.199C738.832,526.018 742.627,525.713 746.383,526.584C749.664,527.344 753.567,527.908 757.263,527.968C757.263,527.836 757.263,527.703 757.263,527.572C757.865,526.665 757.474,523.607 757.263,522.628C754.56,522.628 751.856,522.628 749.153,522.628C742.428,522.43 735.701,522.232 728.977,522.035ZM788.515,522.232C788.072,522.703 787.887,522.579 787.724,523.419C787.79,523.419 787.856,523.419 787.922,523.419C788.036,523.296 788.489,522.971 788.515,522.825C788.837,522.996 789.056,523.534 789.504,523.617C790.054,523.718 790.561,523.12 790.888,523.023C791.662,522.795 792.001,523.34 792.274,523.419C792.786,523.566 793.351,523.066 793.658,523.023C794.265,522.939 794.554,523.377 795.438,523.419C795.438,523.354 795.438,523.287 795.438,523.222C795.504,523.222 795.571,523.222 795.636,523.222C795.636,523.156 795.636,523.09 795.636,523.024C794.208,522.934 793.788,522.599 792.471,523.024C792.155,522.87 792.084,522.385 791.482,522.43C790.743,522.486 790.219,522.984 789.109,523.024C788.932,522.493 788.905,522.512 788.515,522.232ZM895.327,522.825C895.508,523.566 895.511,523.66 896.316,523.814C896.674,523.522 897.187,523.35 897.701,523.221C897.701,523.155 897.701,523.089 897.701,523.023C896.91,522.957 896.119,522.892 895.327,522.825ZM765.965,523.023C765.393,524.745 765.564,527.571 765.569,529.549C765.635,529.549 765.701,529.549 765.767,529.549C765.767,529.614 765.767,529.681 765.767,529.747C765.899,529.747 766.031,529.747 766.163,529.747C766.163,529.285 766.163,528.823 766.163,528.362C766.785,527.396 766.387,524.417 766.361,523.022C766.229,523.023 766.097,523.023 765.965,523.023ZM929.745,525.396C920.12,524.671 910.491,523.946 900.866,523.221C899.203,523.73 898.253,524.572 896.91,525.199C897.089,525.413 896.894,525.215 897.107,525.396C897.657,526.086 901.95,529.816 902.645,530.143C903.569,530.275 904.492,530.407 905.415,530.538C908.231,531.439 911.392,531.841 914.515,532.714C918.81,533.915 923.645,535.252 928.163,535.878C929.081,532.75 929.714,529.671 929.745,525.396ZM898.888,524.804C899.463,524.792 899.97,524.794 900.273,525.002C899.698,525.013 899.191,525.011 898.888,524.804ZM671.416,526.584C670.669,529.062 672.492,536.142 673.395,538.054C679.015,535.911 684.446,533.365 690.01,530.934C692.03,530.053 694.046,528.731 696.34,528.166C696.34,528.1 696.34,528.033 696.34,527.968C688.033,527.506 679.724,527.045 671.416,526.584ZM846.471,527.177C845.577,529.673 847.399,536.62 848.251,538.449C855.634,535.22 863.021,531.988 870.404,528.759C870.404,528.693 870.404,528.627 870.404,528.561C870.075,528.561 869.745,528.561 869.416,528.561C861.768,528.1 854.118,527.638 846.471,527.177ZM699.504,528.166C698.072,529.381 695.782,529.74 693.966,530.538C689.291,532.592 684.308,534.791 679.724,537.064C678.219,537.811 674.137,538.59 673.988,540.426C675.043,541.626 675.309,543.599 676.164,544.975C677.226,546.684 678.824,548.09 679.923,549.722C683.067,548.309 685.802,545.972 688.626,544.183C693.213,541.28 697.799,538.693 702.274,535.68C703.635,534.763 706.697,530.362 705.241,528.56C704.357,527.997 700.986,528.145 699.504,528.166ZM873.569,528.759C872.31,529.873 870.257,530.214 868.624,530.934C864.145,532.909 859.453,535.299 854.977,537.263C853.378,537.963 848.996,538.971 848.844,540.823C850.666,542.944 852.039,549.273 855.174,549.723C856.415,548.189 858.805,547.437 860.515,546.361C863.951,544.196 867.372,541.604 870.801,539.438C874.435,537.142 878.488,535.424 879.702,530.737C879.765,530.396 879.511,529.604 879.107,529.155C878.618,528.83 877.347,528.933 876.536,528.957C875.98,528.59 874.462,528.733 873.569,528.759ZM721.658,529.352C721.399,529.932 721.1,530.524 720.669,530.934C720.866,537.892 727.513,541.879 730.757,546.163C732.16,548.016 732.685,549.776 736.098,549.724C736.915,550.229 738.534,549.681 739.659,549.921C742.075,550.436 745.378,550.483 747.966,550.514C748.424,549.797 748.966,549.356 749.154,548.339C749.22,548.339 749.286,548.339 749.352,548.339C749.352,548.273 749.352,548.207 749.352,548.141C749.286,548.141 749.22,548.141 749.154,548.141C747.706,546.015 743.067,543.061 740.846,541.417C737.409,538.873 734.246,535.89 730.758,533.309C729.661,532.496 728.717,531.098 727.396,530.539C725.482,530.144 723.57,529.748 721.658,529.352ZM779.614,540.822C780.875,540.707 783.442,540.323 784.361,539.635C783.139,539.53 780.683,539.295 779.811,538.647C779.585,538.313 779.6,537.678 779.614,537.064C780.68,535.403 779.948,532.438 782.581,532.318C783.362,532.837 785.166,532.913 786.142,533.109C786.142,533.044 786.142,532.977 786.142,532.912C785.286,532.017 784.894,529.909 783.57,529.55C783.049,530.196 782.087,530.462 781.592,531.132C780.614,532.457 779.858,534.723 779.219,536.867C778.783,538.326 779.527,539.658 779.614,540.822ZM895.13,529.945C894.669,530.88 894.19,531.113 894.141,532.515C895.037,533.818 894.831,536.018 895.724,537.262C896.446,538.268 897.743,539.034 898.493,540.031C900.834,543.135 903.457,545.847 905.811,548.93C906.296,549.565 907.216,549.765 907.79,550.314C909.488,551.943 912.309,555.226 913.525,557.236C913.873,557.111 913.718,557.199 913.921,557.039C915.807,556.406 921.601,550.4 921.833,548.14C920.376,547.208 919.231,545.783 917.877,544.779C914.215,542.063 910.859,539.184 907.195,536.472C902.953,533.33 902.006,530.859 895.13,529.945ZM732.933,530.144C734.162,531.04 736.239,530.87 737.878,531.331C741.796,532.431 746.223,533.199 750.142,534.297C751.081,534.561 755.472,535.412 755.681,535.286C755.906,534.952 755.891,534.317 755.878,533.704C755.375,533.433 755.185,533.324 754.296,533.308C752.824,532.413 749.331,532.767 747.372,532.319C744.807,531.732 742.027,531.793 739.263,531.132C737.32,530.668 735.23,530.189 732.933,530.144ZM732.34,531.726C733.383,533.248 735.404,534.377 736.889,535.483C740.145,537.907 742.94,541.164 746.186,543.591C746.923,544.144 750.441,546.942 750.538,546.756C752.367,544.918 754.933,539.864 755.682,537.065C755.467,536.885 755.664,537.082 755.483,536.868C747.769,535.153 740.053,533.439 732.34,531.726ZM927.767,537.263C920.318,535.615 912.866,533.967 905.415,532.319C905.415,532.384 905.415,532.451 905.415,532.516C905.481,532.516 905.548,532.516 905.613,532.516C907.109,534.089 909.006,535.354 910.756,536.67C913.271,538.56 915.503,540.874 918.074,542.8C919.63,543.965 921.096,546.502 923.218,546.953C924.66,543.985 927.392,541.162 927.767,537.263ZM708.603,533.308C707.552,534.632 705.254,534.923 704.251,536.274C703.543,537.23 703.303,538.419 702.669,539.438C699.926,543.859 697.527,548.545 694.757,553.084C693.671,554.863 692.726,556.745 691.592,558.621C691.33,559.055 690.488,559.788 690.801,560.203C692.347,562.139 698.223,564.491 701.482,564.752C703.835,558.511 705.833,552.208 708.406,545.964C709.962,542.19 711.705,539.051 711.768,534.296C711.571,534.23 711.372,534.164 711.175,534.099C710.564,533.606 709.634,533.348 708.603,533.308ZM882.668,533.703C881.435,534.987 879.172,535.421 878.119,536.867C877.183,538.153 876.782,539.645 875.943,541.019C873.831,544.48 871.977,548.149 869.81,551.699C868.586,553.706 865.462,557.85 865.063,560.203C865.954,560.436 866.388,560.99 867.042,561.39C869.394,562.827 872.4,564.12 875.547,564.555C876.147,561.715 877.658,558.807 878.712,556.248C880.274,552.457 881.111,548.754 882.668,544.976C884.12,541.452 885.418,539.208 885.438,534.692C885.373,534.692 885.306,534.692 885.241,534.692C885.241,534.627 885.241,534.56 885.241,534.495C884.12,534.356 883.731,533.885 882.668,533.703ZM889.789,566.334C892.668,566.434 900.46,565.619 900.866,563.763C899.643,562.062 899.741,559.013 899.085,556.841C897.597,551.909 896.545,546.382 894.932,541.416C893.646,537.456 894.332,537.442 891.767,534.89C891.162,534.286 891.162,533.812 889.987,533.703C889.675,533.943 889.109,534.049 888.801,534.296C886.876,536.247 886.881,539.291 887.613,542.602C887.613,543.262 887.613,543.921 887.613,544.581C888.288,547.615 887.875,551.001 888.602,554.27C889.417,557.932 889.724,562.324 889.789,566.334ZM764.779,535.087C764.341,539.416 762.521,543.829 760.822,547.15C760.509,547.765 759.148,550.656 759.24,550.71C759.453,550.859 759.428,550.83 759.834,550.908C760.234,549.278 761.389,547.973 762.01,546.557C763.482,543.2 764.992,539.206 765.372,535.086C765.175,535.087 764.977,535.087 764.779,535.087ZM797.219,536.273C797.333,537.669 797.988,539.305 797.416,540.822C796.837,542.356 795.017,542.726 794.844,544.58C795.925,545.393 795.982,547.34 797.615,547.546C798.254,546.582 799.362,545.932 799.988,544.976C801.611,542.495 801.588,539.383 801.57,535.681C801.157,535.459 801.209,535.397 800.582,535.285C799.945,535.842 798.18,536.15 797.219,536.273ZM713.746,536.076C713.623,537.802 713.737,539.27 713.746,541.218C713.878,541.218 714.01,541.218 714.142,541.218C714.53,540.566 715.349,537.959 714.933,537.263C714.801,536.867 714.669,536.472 714.537,536.076C714.273,536.076 714.01,536.076 713.746,536.076ZM719.086,536.273C718.233,537.883 718.012,539.873 717.108,541.613C716.35,543.075 714.516,543.732 714.141,545.568C714.509,546.136 714.519,547.748 714.537,548.535C714.669,548.535 714.801,548.535 714.933,548.535C715.529,548.907 722.408,549.125 723.637,549.128C723.637,548.996 723.637,548.864 723.637,548.733C723.067,547.879 723.183,546.681 722.845,545.568C721.936,542.573 721.366,538.742 719.878,536.273C719.614,536.273 719.35,536.273 719.086,536.273ZM701.087,538.054C699.623,539.817 696.735,540.762 694.757,542.009C690.089,544.954 685.475,548.235 680.713,551.107C680.893,551.321 680.697,551.124 680.911,551.304C682.692,554.766 686.445,556.528 689.02,559.215C689.368,559.09 689.212,559.177 689.416,559.017C691.29,557.096 692.136,554.046 693.569,551.7C696.26,547.295 699.099,542.696 701.48,538.054C701.351,538.054 701.219,538.054 701.087,538.054ZM771.108,538.449C770.85,538.928 770.752,539.01 770.712,539.834C769.77,541.237 769.795,543.358 769.129,544.976C768.231,547.16 766.701,549.301 765.964,551.502C766.559,551.502 767.152,551.502 767.744,551.502C768.522,551.979 770.032,551.469 771.107,551.699C774.54,552.436 778.863,552.091 782.381,552.49C782.381,552.358 782.381,552.226 782.381,552.094C779.564,550.382 776.773,546.962 775.458,543.788C775.059,542.821 775.346,541.807 774.864,540.821C774.464,540 773.226,539.256 772.688,538.448C772.163,538.449 771.636,538.449 771.108,538.449ZM875.152,538.449C873.839,539.733 872.001,540.407 870.404,541.416C867.046,543.536 863.621,545.936 860.316,548.14C859.017,549.007 855.837,549.928 855.569,551.7C857.844,553.32 860.901,558.416 863.877,559.017C866.294,553.793 869.575,548.869 872.383,543.789C872.941,542.777 875.466,539.32 875.152,538.449ZM895.921,539.834C898.03,547.876 900.141,555.919 902.25,563.961C902.448,563.961 902.646,563.961 902.844,563.961C904.25,562.697 906.536,562.409 908.185,561.39C909.053,560.853 909.917,559.974 910.756,559.412C911.418,558.97 912.163,558.967 912.536,558.225C910.973,557.165 909.719,555.185 908.58,553.676C906.287,550.639 902.965,548.21 900.668,545.173C899.331,543.404 897.773,541.058 895.921,539.834ZM723.042,540.229C723.527,541.77 724.669,548.586 725.614,549.128C726.33,549.583 730.161,549.539 731.35,549.524C731.35,549.458 731.35,549.392 731.35,549.326C728.684,546.795 725.972,542.161 723.042,540.229ZM876.734,565.345C880.695,565.465 884.41,566.639 888.602,566.73C888.602,566.598 888.602,566.466 888.602,566.334C887.694,564.817 888.434,562.121 888.008,560.203C887.013,555.729 887.405,550.434 886.425,545.964C886.036,544.187 886.69,541.926 885.832,540.624C885.623,542.312 884.638,543.961 884.052,545.371C882.281,549.627 881.258,553.778 879.502,558.028C878.581,560.26 877.156,562.785 876.734,565.345ZM712.163,541.02C711.966,541.68 711.767,542.339 711.57,542.999C711.785,543.179 711.587,542.983 711.767,543.197C711.965,543.131 712.163,543.065 712.361,542.999C712.361,542.34 712.361,541.681 712.361,541.02C712.295,541.02 712.229,541.02 712.163,541.02ZM793.063,549.128C792.8,547.678 792.537,546.229 792.273,544.778C789.731,545.106 788.053,545.029 786.338,543.789C785.697,543.325 785.568,542.551 784.756,542.207C784.15,543.068 782.746,543.895 781.788,544.382C781.788,544.514 781.788,544.647 781.788,544.778C782.588,545.402 783.002,546.525 783.767,547.15C786.147,549.097 789.251,549.579 793.063,549.128ZM708.999,548.931C708.811,550.541 707.903,551.83 707.417,553.084C706.416,555.659 705.9,558.051 704.845,560.599C704.242,562.056 703.272,563.52 703.065,565.345C703.28,565.525 703.083,565.329 703.263,565.543C706.894,565.773 710.332,566.687 714.736,566.73C714.209,561.259 713.68,555.787 713.153,550.315C711.312,550.119 710.524,549.14 708.999,548.931ZM714.735,550.314C715.262,555.786 715.79,561.258 716.317,566.729C719.029,566.788 727.318,565.845 727.591,563.96C727.151,563.295 727.284,562.471 726.998,561.587C726.163,559.018 725.453,555.851 724.624,553.28C724.342,552.408 724.497,551.546 724.03,550.907C722.788,550.124 716.755,550.302 714.735,550.314ZM726.207,550.908C725.561,552.799 727.981,558.652 728.581,560.598C728.926,561.72 728.741,562.785 729.372,563.565C729.605,563.724 729.704,563.717 730.163,563.762C730.804,563.281 731.503,563.328 732.34,562.972C733.852,562.325 738.758,559.603 739.263,558.225C737.889,557.143 736.763,555.478 735.702,554.072C735.24,553.676 734.778,553.281 734.317,552.886C733.93,552.375 733.507,551.363 732.932,551.106C730.954,551.106 728.976,551.106 726.998,551.106C726.765,550.947 726.666,550.953 726.207,550.908ZM745.987,552.095C742.757,551.831 739.526,551.568 736.296,551.304C736.296,551.37 736.296,551.437 736.296,551.502C736.23,551.502 736.164,551.502 736.098,551.502C736.098,551.634 736.098,551.766 736.098,551.898C737.744,553.03 739.33,556.846 741.241,557.237C741.677,556.669 742.244,556.487 742.823,556.051C744.033,555.142 744.718,553.536 745.988,552.689C745.987,552.49 745.987,552.292 745.987,552.095Z"/>
    </g>
</svg>
