<?xml version="1.0" encoding="UTF-8" standalone="no"?>
<!DOCTYPE svg PUBLIC "-//W3C//DTD SVG 1.1//EN" "http://www.w3.org/Graphics/SVG/1.1/DTD/svg11.dtd">
<svg width="100%" height="100%" viewBox="0 0 9930 8502" version="1.1" xmlns="http://www.w3.org/2000/svg" xmlns:xlink="http://www.w3.org/1999/xlink" xml:space="preserve" xmlns:serif="http://www.serif.com/" style="fill-rule:evenodd;clip-rule:evenodd;stroke-miterlimit:10;">
    <g transform="matrix(1,0,0,1,-47048.2,-3450.53)">
        <g transform="matrix(88.2353,0,0,88.2353,0,0)">
            <g>
                <g>
                    <path d="M557.114,61.233C557.114,61.233 543.529,78.038 549.551,95.543C552.212,99.185 559.914,109.689 586.242,112.349C586.242,108.148 581.9,99.464 577.139,94.984C572.378,90.502 558.094,72.296 557.114,61.233Z" style="fill:rgb(230,33,75);fill-rule:nonzero;"/>
                    <path d="M559.074,58.572C559.074,58.572 561.875,73.837 569.437,80.419C577,87.001 588.203,103.246 587.923,112.209C593.244,111.929 596.885,112.349 596.885,112.349C596.885,112.349 598.846,96.664 596.745,75.798C594.644,54.932 588.482,45.828 588.482,45.828C588.482,45.828 569.999,46.249 559.074,58.572Z" style="fill:rgb(230,33,75);fill-rule:nonzero;"/>
                    <path d="M591.284,46.108C591.284,46.108 598.006,57.732 599.266,80.279C600.666,96.803 599.828,108.427 599.266,111.789C602.908,111.789 607.529,110.668 607.529,110.668C607.529,110.668 610.33,101.005 613.27,93.583C616.21,86.16 626.293,77.898 619.432,59.553C615.371,55.071 605.148,46.528 591.284,46.108Z" style="fill:rgb(230,33,75);fill-rule:nonzero;"/>
                    <path d="M622.795,63.754C622.795,63.754 625.733,71.736 622.093,82.239C616.912,93.442 614.951,97.224 614.951,97.224C614.951,97.224 610.75,106.607 610.189,109.968C614.67,108.988 622.514,105.905 625.174,101.985C627.835,98.064 629.516,79.999 629.516,79.999C629.516,79.999 627.275,68.096 622.795,63.754Z" style="fill:rgb(230,33,75);fill-rule:nonzero;"/>
                    <path d="M627.275,102.965C627.275,102.965 620.272,110.388 609.769,112.769C609.069,116.55 609.489,121.171 614.531,119.491C618.592,115.989 623.774,111.928 627.275,102.965Z" style="fill:rgb(230,33,75);fill-rule:nonzero;"/>
                    <path d="M611.73,122.011C611.73,122.011 602.347,127.473 595.765,128.033C597.585,124.952 598.987,113.749 598.987,113.749L607.109,113.049C607.109,113.049 606.129,121.45 611.73,122.011Z" style="fill:rgb(230,33,75);fill-rule:nonzero;"/>
                    <path d="M596.746,114.028C596.746,114.028 596.605,124.952 592.404,128.313C586.803,128.453 577.139,127.752 573.217,125.372C579.941,125.652 587.502,121.731 588.343,114.169C592.125,114.169 596.746,114.028 596.746,114.028Z" style="fill:rgb(230,33,75);fill-rule:nonzero;"/>
                    <path d="M585.543,114.028C585.543,114.028 583.161,126.772 569.017,123.132C562.156,118.651 554.314,112.489 549.832,99.324C554.313,106.606 565.937,112.208 585.543,114.028Z" style="fill:rgb(230,33,75);fill-rule:nonzero;"/>
                    <path d="M589.044,39.106C562.604,39.106 541.171,60.674 541.171,87.281C541.171,113.886 562.604,135.455 589.044,135.455C615.482,135.455 636.917,113.887 636.917,87.281C636.917,60.675 615.482,39.106 589.044,39.106ZM589.044,131.954C564.525,131.954 544.65,111.954 544.65,87.281C544.65,62.607 564.525,42.607 589.044,42.607C613.562,42.607 633.438,62.607 633.438,87.281C633.438,111.954 613.562,131.954 589.044,131.954Z" style="fill:rgb(50,48,101);fill-rule:nonzero;"/>
                </g>
                <path d="M643.436,88.903C644.854,88.785 645.799,86.657 645.741,85.18C645.681,83.701 645.15,83.879 645.15,83.879L634.511,80.274C634.511,80.274 631.201,79.801 630.198,82.224C629.488,85.357 629.074,89.316 629.665,90.084C630.257,90.853 633.271,93.394 634.394,93.926C635.518,94.458 635.163,97.354 635.163,97.354L635.163,99.187L632.975,98.773L629.843,98.891L624.762,78.087L620.98,77.91L621.156,80.038L614.478,76.551L611.937,76.847L611.877,79.328L600.175,76.314L599.053,76.019C599.053,76.019 597.634,75.487 595.093,78.383C593.438,76.964 581.559,75.25 581.559,75.25L578.604,75.723L567.434,76.551C567.434,76.551 565.838,77.32 563.948,79.861C562.469,78.264 556.914,78.146 556.914,78.146C556.914,78.146 554.726,78.796 554.195,79.033C553.664,79.27 553.604,80.511 553.604,80.687C553.604,80.865 535.162,83.288 535.162,83.288L533.27,84.766C533.27,84.766 532.502,89.08 536.58,89.376C536.521,94.399 536.934,107.52 536.934,107.52C536.934,107.52 545.386,105.274 545.799,105.038C546.212,104.803 546.154,103.679 546.036,103.147C545.918,102.615 546.39,96.172 546.39,96.172C546.39,96.172 551.828,96.173 554.665,92.153C554.665,95.581 554.665,103.146 554.665,103.146L563.471,102.082L563.588,99.955L563.942,98.714L564.417,102.024C564.417,102.024 570.443,101.433 572.453,101.078C574.463,100.724 577.773,99.956 578.246,96.173C578.718,92.391 575.822,83.998 575.527,83.821C575.231,83.643 572.808,82.52 572.808,82.52C572.808,82.52 577.181,82.935 578.422,81.279L578.422,82.462L582.027,82.462L582.381,100.547L591.837,100.606L591.837,98.183L591.72,81.99C591.72,81.99 592.902,81.93 593.906,81.103C593.611,85.122 593.906,95.937 593.906,95.937C593.906,95.937 593.789,100.96 601,101.256C608.21,101.551 610.219,100.842 611.814,98.951C611.814,100.605 611.814,101.314 611.814,101.314C611.814,101.314 618.021,102.023 620.385,102.497C622.749,102.97 628.128,104.151 630.491,104.564C632.855,104.979 636.932,105.924 637.701,106.101C638.47,106.279 643.789,107.342 644.202,103.442C644.616,99.542 643.611,92.39 643.611,92.39L639.651,88.43C639.652,88.431 642.018,89.021 643.436,88.903ZM568.969,94.932L566.546,95.228L563.531,95.76L563.708,86.836C563.708,87.071 565.127,90.027 569.027,90.086C569.087,92.331 568.969,94.932 568.969,94.932Z" style="fill:rgb(50,48,101);fill-rule:nonzero;"/>
                <g>
                    <path d="M555.027,83.3C555.027,83.272 555.025,83.243 555.023,83.217C554.835,80.566 552.857,79.064 550.067,79.512C547.891,79.863 536.441,82.741 535.955,82.863C535.482,82.981 535.135,83.381 535.081,83.865C534.962,84.938 535.153,85.783 535.649,86.376C536.17,86.999 536.811,87.087 537.006,87.1L538.334,87.176L538.334,104.321C538.334,104.683 538.503,105.025 538.791,105.246C538.997,105.404 539.246,105.486 539.5,105.486C539.602,105.486 539.702,105.474 539.803,105.447L545.213,103.99C545.714,103.855 546.066,103.406 546.076,102.887C546.077,102.826 546.187,97.437 546.398,94.835C550.737,93.992 553.487,92.626 554.58,90.77C555.166,89.771 555.111,88.921 555.026,88.501L555.026,83.3L555.027,83.3ZM547.207,85.424L547.207,88.943C547.207,89.147 547.203,89.279 547.199,89.362C547.143,89.419 547.08,89.484 547.01,89.564C546.864,89.647 546.531,89.756 546.125,89.862L546.125,85.649C546.468,85.533 546.846,85.425 547.112,85.402L547.123,85.401C547.147,85.4 547.176,85.409 547.207,85.424Z" style="fill:rgb(0,158,212);fill-rule:nonzero;"/>
                    <path d="M562.646,77.025L557.337,78.011C556.786,78.113 556.387,78.593 556.385,79.153L556.308,100.466C556.307,100.811 556.458,101.137 556.72,101.361C556.932,101.541 557.199,101.637 557.474,101.637C557.538,101.637 557.604,101.631 557.668,101.62L563.054,100.71C563.616,100.615 564.026,100.13 564.026,99.561L564.026,78.171C564.026,77.824 563.872,77.496 563.605,77.275C563.338,77.055 562.987,76.963 562.646,77.025Z" style="fill:rgb(0,158,212);fill-rule:nonzero;"/>
                    <path d="M578.592,75.565C578.34,75.575 572.391,75.796 569.591,76.023C566.857,76.246 565.41,77.775 565.41,80.447L565.41,84.012C565.41,84.167 565.468,87.62 570.285,88.642C570.311,90.5 570.29,93.262 570.275,94.738L567.039,95.142C566.454,95.215 566.017,95.711 566.017,96.299L566.017,99.106C566.017,99.444 566.164,99.766 566.42,99.988C566.633,100.173 566.904,100.272 567.183,100.272C567.239,100.272 567.295,100.268 567.352,100.259L574.06,99.28C575.612,99.158 578.504,98.085 578.664,94.84C578.81,91.827 578.68,87.239 578.665,86.744C578.686,85.826 578.154,84.124 576.02,83.304C574.77,82.823 573.591,82.406 572.876,82.158C572.847,81.871 572.823,81.55 572.823,81.282C572.823,81.218 572.824,81.155 572.826,81.095C575.966,80.904 576.221,80.846 576.309,80.825C576.428,80.799 576.548,80.775 576.666,80.751C577.91,80.501 579.994,80.081 579.799,76.663C579.764,76.031 579.25,75.542 578.592,75.565Z" style="fill:rgb(0,158,212);fill-rule:nonzero;"/>
                    <path d="M595.771,75.615C595.548,75.344 595.217,75.185 594.866,75.185L581.972,75.185C581.658,75.185 581.357,75.312 581.137,75.536C580.918,75.761 580.799,76.064 580.806,76.378L580.882,79.641C580.896,80.274 581.414,80.779 582.047,80.779L584.294,80.779L584.294,97.817C584.294,98.44 584.784,98.953 585.405,98.982L591.056,99.248C591.075,99.249 591.092,99.249 591.111,99.249C591.41,99.249 591.699,99.134 591.916,98.927C592.146,98.707 592.277,98.403 592.277,98.083L592.277,80.826C594.621,80.231 595.732,77.902 596.007,76.59C596.079,76.246 595.991,75.888 595.771,75.615Z" style="fill:rgb(0,158,212);fill-rule:nonzero;"/>
                    <path d="M606.993,75.574C606.944,75.567 606.897,75.564 606.847,75.564L600.856,75.564C597.277,75.564 595.904,79.165 595.679,81.068C595.675,81.093 595.673,81.119 595.671,81.144C595.656,81.434 595.302,88.3 595.442,92.846C595.588,97.507 599.23,99.043 601.135,99.205C601.158,99.207 601.18,99.208 601.202,99.209C601.231,99.209 604.062,99.285 607.378,99.285C610.802,99.285 612.157,96.511 612.397,95.045C612.408,94.983 612.412,94.921 612.412,94.857C612.412,94.751 612.411,84.185 612.337,80.724C612.261,77.169 608.808,75.801 606.993,75.574ZM604.545,81.889L604.545,92.681C603.989,92.45 603.765,92.126 603.688,91.982C603.607,87.753 603.561,83.126 603.598,81.066C604.272,81.243 604.54,81.553 604.548,81.803C604.538,81.866 604.545,81.824 604.545,81.889Z" style="fill:rgb(0,158,212);fill-rule:nonzero;"/>
                    <path d="M629.627,79.404L624.696,77.963C624.355,77.862 623.986,77.925 623.696,78.13C623.405,78.335 623.224,78.662 623.205,79.018L623.018,82.409C621.527,79.499 618.988,76.637 614.759,76.553C614.451,76.543 614.144,76.666 613.92,76.885C613.695,77.105 613.57,77.405 613.57,77.718L613.57,99.108C613.57,99.675 613.978,100.161 614.539,100.257L619.848,101.166C620.181,101.225 620.521,101.134 620.782,100.922C621.045,100.708 621.2,100.394 621.212,100.056L621.335,96.359L623.216,100.918C623.359,101.263 623.657,101.519 624.02,101.606L628.722,102.744C628.813,102.765 628.905,102.777 628.996,102.777C629.252,102.777 629.504,102.692 629.711,102.532C629.991,102.315 630.157,101.982 630.162,101.628L630.466,80.542C630.473,80.016 630.13,79.552 629.627,79.404Z" style="fill:rgb(0,158,212);fill-rule:nonzero;"/>
                    <path d="M641.519,87.368C641.648,87.385 641.786,87.409 641.928,87.433C642.282,87.495 642.684,87.565 643.102,87.565C643.885,87.565 644.509,87.312 644.962,86.815C645.542,86.176 645.761,85.199 645.63,83.825C645.584,83.341 645.241,82.936 644.772,82.809L635.414,80.299C635.339,80.28 635.07,80.224 634.706,80.224C633.474,80.224 632.077,80.926 631.859,82.897C631.627,84.985 631.623,87.181 631.623,87.274C631.623,87.503 631.662,89.554 633,90.557C633.703,91.084 635.697,92.514 636.63,93.182L636.63,99.054L633.773,98.492C633.427,98.423 633.067,98.516 632.795,98.746C632.525,98.975 632.374,99.314 632.383,99.668L632.459,102.399C632.473,102.891 632.794,103.321 633.262,103.474C633.446,103.535 637.781,104.951 639.534,105.19C640.009,105.254 640.567,105.321 641.124,105.321C642.307,105.321 643.175,105.018 643.778,104.395C644.339,103.817 644.605,103.019 644.574,102.026C644.5,99.719 644.499,93.103 644.499,93.037C644.499,92.841 644.449,92.647 644.354,92.474C644.254,92.294 643.353,90.694 642.175,89.878C641.513,89.419 639.85,88.024 638.929,87.239L638.883,86.475L638.901,86.486C639.723,86.936 640.217,87.206 641.519,87.368Z" style="fill:rgb(0,158,212);fill-rule:nonzero;"/>
                </g>
                <g>
                    <path d="M553.861,83.3C553.722,81.358 552.403,80.317 550.253,80.662C548.103,81.01 536.24,83.993 536.24,83.993C536.031,85.865 537.072,85.934 537.072,85.934L539.501,86.074L539.501,104.319L544.911,102.862C544.911,102.862 545.05,95.924 545.328,93.843C555.11,92.178 553.861,88.64 553.861,88.64L553.861,83.3ZM548.372,88.942C548.372,90.08 548.296,89.852 547.841,90.382C547.387,90.914 544.959,91.293 544.959,91.293L544.959,84.846C544.959,84.846 546.173,84.315 547.006,84.24C547.841,84.164 548.372,84.922 548.372,84.922C548.372,84.922 548.372,87.805 548.372,88.942Z" style="fill:white;fill-rule:nonzero;"/>
                    <path d="M557.474,100.472L562.858,99.562L562.858,78.172L557.55,79.157L557.474,100.472Z" style="fill:white;fill-rule:nonzero;"/>
                    <path d="M569.686,77.186C567.357,77.375 566.577,78.552 566.577,80.448C566.577,82.344 566.577,84.013 566.577,84.013C566.577,84.013 566.576,87.047 571.431,87.654C571.507,90.005 571.431,95.769 571.431,95.769L567.184,96.3L567.184,99.107L573.935,98.121C573.935,98.121 577.347,97.893 577.499,94.783C577.65,91.675 577.499,86.744 577.499,86.744C577.499,86.744 577.574,85.151 575.603,84.392C573.63,83.633 571.81,83.027 571.81,83.027C571.81,83.027 571.659,82.041 571.659,81.283C571.659,80.524 571.735,79.993 571.735,79.993C571.735,79.993 575.753,79.758 576.058,79.69C577.423,79.386 578.788,79.386 578.636,76.731C578.635,76.73 572.492,76.958 569.686,77.186Z" style="fill:white;fill-rule:nonzero;"/>
                    <path d="M582.047,79.613L585.46,79.613L585.46,97.816L591.111,98.082L591.111,79.803C594.145,79.803 594.865,76.352 594.865,76.352L581.971,76.352L582.047,79.613Z" style="fill:white;fill-rule:nonzero;"/>
                    <path d="M606.848,76.73C606.848,76.73 604.346,76.73 600.857,76.73C597.368,76.73 596.837,81.206 596.837,81.206C596.837,81.206 596.467,88.262 596.609,92.81C596.76,97.664 601.236,98.043 601.236,98.043C601.236,98.043 604.042,98.119 607.38,98.119C610.717,98.119 611.247,94.857 611.247,94.857C611.247,94.857 611.247,84.239 611.172,80.749C611.096,77.262 606.848,76.73 606.848,76.73ZM605.711,81.889L605.711,94.101C602.981,93.949 602.525,92.205 602.525,92.205C602.525,92.205 602.286,79.761 602.525,79.766C605.863,79.841 605.711,81.889 605.711,81.889Z" style="fill:white;fill-rule:nonzero;"/>
                    <path d="M623.839,88.715C623.839,88.715 622.322,77.868 614.737,77.717L614.737,99.107L620.046,100.017L620.35,90.914L624.294,100.472L628.996,101.61L629.3,80.524L624.369,79.083L623.839,88.715Z" style="fill:white;fill-rule:nonzero;"/>
                    <path d="M639.16,85.302C640.146,85.833 640.449,86.061 641.663,86.212C642.877,86.363 644.772,87.121 644.47,83.936L635.141,81.434C635.141,81.434 633.245,80.979 633.016,83.027C632.788,85.075 632.788,87.275 632.788,87.275C632.788,87.275 632.788,88.943 633.699,89.626C634.608,90.309 637.794,92.584 637.794,92.584L637.794,100.473L633.548,99.639L633.623,102.368C633.623,102.368 638.022,103.809 639.691,104.037C641.359,104.266 643.483,104.417 643.407,102.065C643.332,99.713 643.332,93.039 643.332,93.039C643.332,93.039 642.498,91.521 641.512,90.84C640.526,90.156 637.794,87.806 637.794,87.806L637.643,85.303C637.643,85.302 638.174,84.771 639.16,85.302Z" style="fill:white;fill-rule:nonzero;"/>
                </g>
                <g>
                    <g>
                        <path d="M572.265,63.429C570.461,63.369 567.359,63.44 565.739,63.792C565.315,63.885 564.073,64.719 564.073,64.719L564.302,65.628L565.741,65.933L565.438,73.821C565.438,73.821 567.182,73.745 568.927,73.442C572.492,72.758 573.93,70.411 573.93,70.411C573.93,70.411 572.492,66.159 572.265,63.429ZM568.32,71.772L568.32,65.476C569.383,65.325 569.988,65.856 569.988,65.856C569.988,65.856 570.064,68.738 570.064,70.407C570.064,72.076 568.32,71.772 568.32,71.772Z" style="fill:rgb(50,48,101);fill-rule:nonzero;"/>
                        <path d="M573.875,63.098L573.846,72.586L579.669,72.029L581.467,71.216L576.932,70.553L576.932,68.991L580.61,67.147L578.781,66.526L576.996,66.526L576.996,64.571L581.124,63.251L579.496,63.086L576.058,62.225L573.875,63.098Z" style="fill:rgb(50,48,101);fill-rule:nonzero;"/>
                        <path d="M581.215,63.67L583.097,63.67L583.194,71.688L585.759,71.688L587.517,70.899L587.09,63.54L582.824,61.515L581.215,62.469L581.215,63.67Z" style="fill:rgb(50,48,101);fill-rule:nonzero;"/>
                        <path d="M609.585,64.287L609.585,65.488L611.534,65.619L611.218,73.042L614.184,73.507L616.001,72.755L615.67,65.801L617.406,65.156L611.308,63.424L609.585,64.287Z" style="fill:rgb(50,48,101);fill-rule:nonzero;"/>
                        <path d="M594.848,67.469C595.692,67.306 595.887,65.715 595.887,65.001C595.887,64.287 593.503,61.427 590.355,61.46L588.647,62.372L588.647,71.722L591.504,71.722L593.246,70.954C593.246,70.954 592.737,67.273 593.127,68.475C593.516,69.676 593.939,71.722 593.939,71.722L596.049,71.786C596.049,71.786 597.798,71.289 597.776,71.009C597.699,70.033 595.681,68.099 594.848,67.469ZM591.504,66.495L591.504,63.702C591.504,63.702 592.9,63.638 592.9,65.065C592.9,66.495 591.504,66.495 591.504,66.495Z" style="fill:rgb(50,48,101);fill-rule:nonzero;"/>
                        <path d="M600.667,62.169C600.667,62.169 597.315,62.696 597.315,64.741C597.315,66.786 597.315,70.228 597.315,70.228C597.315,70.228 596.892,72.337 600.853,72.337C600.853,72.337 605.632,72.428 605.632,70.025C605.632,67.622 604.001,64.61 604.001,64.61C604.001,64.61 604.465,62.169 600.667,62.169ZM601.405,69.578C601.405,70.098 601.243,70.553 600.592,70.553C599.944,70.553 599.684,69.612 599.684,69.612L599.684,64.84C599.684,64.84 599.783,64.084 600.659,64.125C601.34,64.158 601.405,64.905 601.405,64.905C601.405,64.905 601.405,69.059 601.405,69.578Z" style="fill:rgb(50,48,101);fill-rule:nonzero;"/>
                        <path d="M605.722,72.63L607.993,72.63L609.686,72.01L607.434,62.66L605.722,63.572L605.722,72.63Z" style="fill:rgb(50,48,101);fill-rule:nonzero;"/>
                    </g>
                    <path d="M573.934,62.622C571.658,62.546 565.742,63.911 565.742,63.911L565.971,64.821L567.411,65.125L567.107,73.014C567.107,73.014 568.851,72.938 570.596,72.634C574.161,71.951 573.934,69.676 573.934,69.676C573.934,69.676 574.161,65.353 573.934,62.622ZM569.989,70.966L569.989,64.67C571.052,64.519 571.657,65.049 571.657,65.049C571.657,65.049 571.733,67.932 571.733,69.6C571.733,71.269 569.989,70.966 569.989,70.966Z" style="fill:white;fill-rule:nonzero;stroke:rgb(0,157,200);stroke-width:0.29px;"/>
                    <path d="M575.91,62.326L575.858,71.473L581.402,71.129L581.291,69.328L578.692,69.477L578.613,67.106L580.467,67.013L580.376,65.331L578.621,65.412L578.542,63.125L580.934,63.028L580.877,62.124L576.209,62.301L575.91,62.326Z" style="fill:white;fill-rule:nonzero;stroke:rgb(0,157,200);stroke-width:0.3px;"/>
                    <path d="M582.884,62.863L584.766,62.863L584.863,70.882L587.428,70.882L587.428,62.733L588.759,62.733L588.759,61.662L582.884,61.662L582.884,62.863Z" style="fill:white;fill-rule:nonzero;stroke:rgb(0,157,200);stroke-width:0.29px;"/>
                    <path d="M611.414,63.382L611.373,64.582L613.558,64.718L613.188,72.504L615.692,72.755L615.963,64.925L617.238,65.057L617.273,64.038L611.414,63.382Z" style="fill:white;fill-rule:nonzero;stroke:rgb(0,157,200);stroke-width:0.29px;"/>
                    <path d="M596.518,66.661C597.361,66.5 597.556,64.908 597.556,64.194C597.556,63.479 597.492,61.402 594.341,61.435L590.316,61.564L590.316,70.914L593.174,70.914L593.174,66.921C593.174,66.921 594.406,66.466 594.796,67.667C595.185,68.869 595.608,70.914 595.608,70.914L597.718,70.979C597.718,70.979 597.588,67.473 596.518,66.661ZM593.174,65.688L593.174,62.897C593.174,62.897 594.57,62.832 594.57,64.259C594.569,65.688 593.174,65.688 593.174,65.688Z" style="fill:white;fill-rule:nonzero;stroke:rgb(0,157,200);stroke-width:0.29px;"/>
                    <path d="M601.938,61.856C601.938,61.856 598.985,61.889 598.985,63.934C598.985,65.979 598.985,69.42 598.985,69.42C598.985,69.42 598.562,71.53 602.524,71.53C602.524,71.53 605.671,71.822 605.671,69.42C605.671,67.018 605.671,63.804 605.671,63.804C605.671,63.804 605.735,61.856 601.938,61.856ZM603.074,68.771C603.074,69.291 602.912,69.745 602.261,69.745C601.613,69.745 601.353,68.804 601.353,68.804L601.353,64.033C601.353,64.033 601.452,63.277 602.328,63.318C603.009,63.351 603.074,64.097 603.074,64.097C603.074,64.097 603.074,68.252 603.074,68.771Z" style="fill:white;fill-rule:nonzero;stroke:rgb(0,157,200);stroke-width:0.29px;"/>
                    <g transform="matrix(-0.9998,-0.0215,0.0215,-0.9998,1215.47,147.647)">
                        <rect x="607.39" y="62.767" width="2.273" height="9.057" style="fill:white;stroke:rgb(0,157,200);stroke-width:0.29px;"/>
                    </g>
                </g>
            </g>
        </g>
    </g>
</svg>
