<?xml version="1.0" encoding="UTF-8" standalone="no"?>
<!DOCTYPE svg PUBLIC "-//W3C//DTD SVG 1.1//EN" "http://www.w3.org/Graphics/SVG/1.1/DTD/svg11.dtd">
<svg width="100%" height="100%" viewBox="0 0 8753 4622" version="1.1" xmlns="http://www.w3.org/2000/svg" xmlns:xlink="http://www.w3.org/1999/xlink" xml:space="preserve" xmlns:serif="http://www.serif.com/" style="fill-rule:evenodd;clip-rule:evenodd;stroke-linejoin:round;stroke-miterlimit:1.41421;">
    <g transform="matrix(1,0,0,1,-4470.51,-18265.7)">
        <g transform="matrix(118.78,0,0,118.78,0,0)">
            <g>
                <path d="M45.306,170.916C45.306,170.916 44.832,170.427 43.526,171.179C43.526,171.179 43.455,173.734 46.321,174.11C46.321,174.109 44.629,172.933 45.306,170.916Z" style="fill:white;fill-rule:nonzero;"/>
                <path d="M42.23,182.06C41.959,181.997 41.341,181.942 40.698,182.501C40.855,182.853 41.342,183.791 42.213,184.146C42.635,184.318 43.098,184.332 43.595,184.187C43.027,183.898 42.231,183.275 42.23,182.06Z" style="fill:white;fill-rule:nonzero;"/>
                <path d="M104.813,171.179C103.507,170.428 103.033,170.916 103.033,170.916C103.71,172.933 102.017,174.109 102.017,174.109C104.883,173.733 104.813,171.179 104.813,171.179Z" style="fill:white;fill-rule:nonzero;"/>
                <path d="M44.037,174.725C43.845,174.61 43.036,174.21 41.963,174.779C41.97,175.131 42.129,177.338 45.065,177.555C44.624,177.18 43.608,176.134 44.037,174.725Z" style="fill:white;fill-rule:nonzero;"/>
                <path d="M106.374,174.778C105.303,174.209 104.495,174.61 104.302,174.724C104.73,176.134 103.715,177.18 103.274,177.554C106.209,177.337 106.369,175.13 106.374,174.778Z" style="fill:white;fill-rule:nonzero;"/>
                <path d="M42.948,178.3C42.707,178.198 42.009,177.998 41.187,178.571C41.285,179.029 41.851,180.989 44.204,180.892C43.658,180.495 42.743,179.615 42.948,178.3Z" style="fill:white;fill-rule:nonzero;"/>
                <path d="M107.152,178.571C106.328,177.998 105.632,178.198 105.391,178.3C105.595,179.615 104.681,180.495 104.135,180.892C106.489,180.989 107.053,179.029 107.152,178.571Z" style="fill:white;fill-rule:nonzero;"/>
                <path d="M106.1,182.064C106.1,182.064 106.218,183.504 104.727,184.181C104.727,184.181 106.539,184.927 107.641,182.504C107.641,182.504 107.117,181.895 106.1,182.064Z" style="fill:white;fill-rule:nonzero;"/>
                <path d="M84.546,163.648C84.546,163.648 84.519,164.017 84.392,164.559C87.502,165.755 89.065,167.885 89.528,168.616C89.563,168.607 89.598,168.598 89.633,168.59L89.588,168.31C88.862,165.54 84.546,163.648 84.546,163.648Z" style="fill:white;fill-rule:nonzero;"/>
                <path d="M71.952,167.23C71.968,167.229 71.935,167.236 71.952,167.23C71.645,167.25 70.555,167.302 69.358,167.211C69.92,167.567 70.65,167.787 71.45,167.792C72.429,167.8 72.933,167.63 73.535,167.134C71.93,166.008 71.335,164.974 71.151,164.584C69.902,164.369 68.948,163.821 68.88,163.78C68.69,163.954 68.546,164.161 68.443,164.386C69.52,164.699 70.457,164.898 70.677,164.943C70.779,164.971 70.856,165.059 70.856,165.171C70.856,165.303 70.724,165.404 70.591,165.404C70.609,165.409 70.573,165.404 70.591,165.404C70.309,165.341 69.361,165.119 68.317,164.746C68.263,164.957 68.236,165.177 68.233,165.389C68.233,165.442 68.235,165.497 68.239,165.549C69.63,165.768 70.966,165.837 71.237,165.851C71.343,165.862 71.432,165.938 71.45,166.048C71.47,166.178 71.355,166.299 71.224,166.319C71.241,166.321 71.206,166.323 71.224,166.319C70.886,166.299 69.609,166.204 68.307,165.911C68.405,166.248 68.601,166.559 68.873,166.828C70.288,166.878 71.634,166.783 71.906,166.761C72.012,166.76 72.111,166.824 72.141,166.931C72.179,167.06 72.079,167.194 71.952,167.23Z" style="fill:white;fill-rule:nonzero;"/>
                <path d="M80.069,164.758C80.068,164.755 80.068,164.752 80.067,164.747C79.032,165.114 78.095,165.335 77.815,165.397C77.833,165.397 77.798,165.401 77.815,165.397C77.683,165.397 77.55,165.295 77.55,165.163C77.55,165.052 77.625,164.963 77.729,164.935C77.946,164.89 78.871,164.696 79.935,164.386C79.773,164.04 79.535,163.799 79.262,163.626C78.574,164.176 77.556,164.524 77.04,164.673C76.831,165.09 76.218,166.073 74.712,167.158C75.298,167.557 76.087,167.8 76.95,167.791C77.757,167.786 78.493,167.562 79.056,167.201C77.856,167.293 76.762,167.241 76.454,167.222C76.471,167.228 76.437,167.221 76.454,167.222C76.326,167.185 76.227,167.051 76.265,166.923C76.295,166.816 76.393,166.752 76.498,166.754C76.771,166.776 78.12,166.871 79.535,166.821C79.806,166.553 79.998,166.241 80.097,165.904C78.794,166.197 77.519,166.293 77.182,166.313C77.2,166.316 77.165,166.314 77.182,166.313C77.051,166.292 76.936,166.17 76.956,166.04C76.973,165.93 77.064,165.854 77.169,165.843C77.44,165.829 78.773,165.762 80.162,165.544C80.165,165.492 80.168,165.441 80.168,165.39C80.165,165.211 80.146,165.03 80.107,164.85L80.069,164.758Z" style="fill:white;fill-rule:nonzero;"/>
                <path d="M85.397,156.309C85.002,157.496 84.095,157.989 84.095,157.989L84.178,157.282C83.75,157.627 83.106,158.732 83.106,158.732C83.322,158.945 83.437,159.323 83.437,159.323C85.53,157.857 85.397,156.309 85.397,156.309Z" style="fill:white;fill-rule:nonzero;"/>
                <path d="M64.163,157.282L64.245,157.989C64.245,157.989 63.339,157.496 62.944,156.309C62.944,156.309 62.812,157.857 64.904,159.323C64.904,159.323 65.02,158.946 65.234,158.732C65.234,158.732 64.592,157.627 64.163,157.282Z" style="fill:white;fill-rule:nonzero;"/>
                <path d="M58.723,168.31L58.63,168.789C58.64,168.791 58.649,168.793 58.658,168.795C58.728,168.677 58.885,168.428 59.134,168.102C59.275,167.917 59.447,167.707 59.65,167.483C60.49,166.55 61.875,165.351 63.92,164.559C63.795,164.017 63.767,163.649 63.767,163.649C63.767,163.649 59.448,165.54 58.723,168.31Z" style="fill:white;fill-rule:nonzero;"/>
                <path d="M77.634,161.505C77.634,161.495 77.636,161.486 77.638,161.475L76.89,162.183C77.348,162.409 77.765,162.493 78.137,162.487C77.803,162.294 77.592,161.917 77.634,161.505Z" style="fill:white;fill-rule:nonzero;"/>
                <path d="M79.582,161.225L79.144,161.428L78.65,161.658L79.193,161.598L79.653,161.546C79.658,161.602 79.658,161.654 79.652,161.71C79.644,161.792 79.625,161.87 79.599,161.946C80.094,161.558 80.355,161.106 80.355,161.106L79.317,160.851C79.432,160.953 79.522,161.081 79.582,161.225Z" style="fill:white;fill-rule:nonzero;"/>
                <path d="M70.883,161.475C70.884,161.486 70.886,161.495 70.887,161.505C70.929,161.917 70.719,162.294 70.382,162.486C70.755,162.492 71.171,162.408 71.629,162.182L70.883,161.475Z" style="fill:white;fill-rule:nonzero;"/>
                <path d="M68.923,161.945C68.896,161.869 68.877,161.791 68.869,161.709C68.863,161.654 68.864,161.601 68.867,161.545L69.328,161.597L69.872,161.657L69.377,161.427L68.94,161.224C68.999,161.08 69.089,160.953 69.204,160.849L68.165,161.104C68.165,161.105 68.427,161.557 68.923,161.945Z" style="fill:white;fill-rule:nonzero;"/>
                <path d="M75.364,163.762C75.364,163.762 74.079,162.807 73.057,163.828C73.057,163.828 73.881,163.465 75.364,163.762Z" style="fill:white;fill-rule:nonzero;"/>
                <path d="M74.146,173.709L74.163,173.722L74.18,173.709L74.146,173.709Z" style="fill:white;fill-rule:nonzero;"/>
                <path d="M75.399,174.01L74.977,173.69L74.607,174.072L74.162,173.722L73.717,174.072L73.347,173.69L72.925,174.01C72.387,173.641 72.034,172.586 72.034,172.586C71.454,173.707 72.026,174.324 72.026,174.324C72.026,174.324 72.66,175.202 74.146,175.202C75.631,175.202 76.3,174.324 76.3,174.324C76.3,174.324 76.872,173.707 76.292,172.586C76.291,172.585 75.938,173.641 75.399,174.01Z" style="fill:white;fill-rule:nonzero;"/>
                <path d="M74.205,167.359C72.591,168.726 70.478,168.359 70.478,168.359L70.478,168.352C70.46,168.771 70.609,169.667 71.904,170.654C71.904,170.654 71.758,169.498 71.977,168.636L72.741,169.111L73.363,168.502L74.141,169.079L74.917,168.502L75.54,169.111L76.305,168.619C76.543,169.486 76.376,170.655 76.376,170.655C77.657,169.679 77.776,168.8 77.764,168.375C75.499,168.555 74.205,167.359 74.205,167.359Z" style="fill:white;fill-rule:nonzero;"/>
            </g>
        </g>
        <g transform="matrix(118.78,0,0,118.78,0,0)">
            <g>
                <path d="M43.563,181.885C43.493,182.139 43.354,182.654 43.324,182.761C43.637,183.602 44.312,183.709 44.619,183.709C44.682,183.457 44.982,182.267 45.105,181.778C44.324,181.906 43.828,181.904 43.563,181.885Z" style="fill:rgb(205,184,125);fill-rule:nonzero;"/>
                <path d="M44.535,178.428C44.467,178.673 44.292,179.301 44.251,179.448C44.629,180.059 45.163,180.398 45.469,180.552C45.575,180.17 45.944,178.847 46.073,178.382C45.438,178.425 44.832,178.43 44.535,178.428Z" style="fill:rgb(205,184,125);fill-rule:nonzero;"/>
                <path d="M50.931,175.715C50.968,175.577 53.081,167.72 53.083,167.715C53.084,167.71 53.199,167.292 52.98,166.922C52.817,166.649 52.507,166.457 52.058,166.355C51.814,166.308 47.961,165.575 45.783,164.959C46.493,165.729 47.791,167.138 47.791,167.138L47.291,168.904L48.406,170.166C48.83,168.666 49.228,167.257 49.228,167.257L51.669,167.739L49.468,175.621L46.871,175.621C46.871,175.621 47.002,175.186 47.037,175.075C46.637,175.08 45.993,175.07 45.555,174.963C45.457,175.299 45.197,176.203 45.149,176.371C45.287,176.555 45.681,177.012 46.391,177.374C46.411,177.305 46.484,177.04 46.484,177.04L49.353,177.04C49.4,177.039 50.534,177.013 50.931,175.715Z" style="fill:rgb(205,184,125);fill-rule:nonzero;"/>
                <path d="M47.418,173.662C47.493,173.393 47.896,171.968 48.303,170.53L47.074,169.666L46.525,171.604C46.521,171.634 46.515,171.709 46.515,171.824C46.514,172.234 46.621,173.087 47.418,173.662Z" style="fill:rgb(205,184,125);fill-rule:nonzero;"/>
                <path d="M42.492,185.628C42.414,185.91 42.21,186.645 42.074,187.134C42.603,186.956 43.586,186.631 43.761,186.572C43.802,186.424 43.92,186 44.024,185.624C43.659,185.694 43.1,185.748 42.492,185.628Z" style="fill:rgb(205,184,125);fill-rule:nonzero;"/>
                <path d="M58.146,171.363C58.14,171.363 54.502,170.927 54.12,170.881C54.052,171.144 52.661,176.465 51.706,180.12L53.01,181.038L54.578,174.942L53.597,174.252L54.654,174.646L55.237,172.376L57.868,172.644L56.778,177.168L54.048,177.168C54.183,177.659 55.793,183.503 55.894,183.869C56.077,183.847 56.489,183.795 56.859,183.747L55.785,182.992L57.363,183.581L56.227,179.698L54.599,178.555L56.079,179.193L55.88,178.516L56.254,178.566C56.32,178.574 57.891,178.76 58.304,177.083L59.357,172.723L59.358,172.718C59.359,172.714 59.483,172.28 59.247,171.914C59.06,171.624 58.688,171.438 58.146,171.363Z" style="fill:rgb(205,184,125);fill-rule:nonzero;"/>
                <path d="M52.93,181.348L51.552,180.708C51.124,182.348 50.815,183.527 50.815,183.527L47.584,185.544C49.202,185.178 51.905,184.564 52.116,184.515L52.93,181.348Z" style="fill:rgb(205,184,125);fill-rule:nonzero;"/>
                <path d="M65.216,182.427L64.193,181.708L65.408,182.162C65.531,181.948 65.624,181.685 65.661,181.355L66.318,175.99L65.238,175.231L66.359,175.65L66.644,173.321C66.645,173.316 66.732,172.848 66.463,172.483C66.272,172.225 65.942,172.069 65.481,172.018L62.428,171.726C62.293,171.71 61.098,171.605 60.854,173.256L60.547,175.535L61.86,176.457L62.282,173.219L65.203,173.394L64.552,178.35L65.504,179.019L64.528,178.525L64.127,181.576L61.16,181.838L61.771,177.135L60.422,176.454L59.689,181.908C59.688,181.915 59.551,182.585 59.901,182.97C60.118,183.209 60.493,183.302 61.025,183.244L63.84,183.026C63.888,183.024 64.687,183.021 65.216,182.427Z" style="fill:rgb(205,184,125);fill-rule:nonzero;"/>
                <path d="M74.649,181.791L73.72,181.139L74.706,181.506C74.976,180.174 75.397,178.098 75.486,177.654C75.048,177.747 74.29,177.862 73.433,177.784C71.668,177.619 70.354,176.707 69.633,175.138L69.624,175.114C69.613,175.081 69.355,174.3 69.394,173.785C69.416,173.515 69.241,172.881 69.1,172.449C68.87,172.445 68.108,172.43 67.729,172.423C67.787,172.706 68.306,175.26 68.811,177.74L70.834,179.164L68.92,178.279C69.363,180.463 69.769,182.459 69.803,182.624C70.059,182.624 70.646,182.624 70.876,182.624C70.978,182.32 72.318,178.301 72.318,178.301C72.318,178.301 73.336,182.291 73.421,182.624C73.662,182.624 74.227,182.624 74.479,182.624C74.498,182.54 74.561,182.225 74.649,181.791Z" style="fill:rgb(205,184,125);fill-rule:nonzero;"/>
                <path d="M79.818,181.325C79.818,181.325 79.233,172.78 79.203,172.345C79.191,172.345 79.191,172.345 79.181,172.345C79.068,172.736 78.891,173.438 78.916,173.788C78.95,174.309 78.663,175.792 77.981,176.382C77.994,176.543 78.184,179.023 78.322,180.826L80.563,182.401L78.375,181.505C78.421,182.12 78.456,182.572 78.463,182.674C78.838,182.693 82.876,182.91 83.366,182.937C83.332,182.58 83.259,181.816 83.232,181.543C82.866,181.52 79.818,181.325 79.818,181.325Z" style="fill:rgb(205,184,125);fill-rule:nonzero;"/>
                <path d="M86.256,179.2L85.998,177.62C85.998,177.62 88.287,177.62 88.731,177.62C88.692,177.278 88.606,176.543 88.572,176.261C88.202,176.261 85.866,176.261 85.866,176.261L85.307,173.251C85.307,173.251 87.751,173.096 88.185,173.068C88.141,172.733 88.037,171.968 87.996,171.67C87.605,171.698 84.151,171.934 83.703,171.963C83.742,172.223 84.181,175.213 84.595,178.033L86.256,179.2Z" style="fill:rgb(205,184,125);fill-rule:nonzero;"/>
                <path d="M89.697,182.15C89.149,182.09 86.693,181.874 86.693,181.874L86.365,179.872L84.709,178.81C85.034,181.026 85.319,182.959 85.341,183.115C85.63,183.139 86.215,183.187 86.922,183.247L86.448,182.915L87.465,183.293C88.253,183.361 89.125,183.437 89.884,183.504C89.832,183.131 89.731,182.4 89.697,182.15Z" style="fill:rgb(205,184,125);fill-rule:nonzero;"/>
                <path d="M95.368,178.055C95.376,178.055 96.087,178.088 96.446,177.663C96.662,177.405 96.717,177.016 96.603,176.504L95.619,171.867C95.618,171.851 95.581,171.512 95.254,171.249C94.913,170.976 94.383,170.88 93.686,170.962C93.686,170.962 90.336,171.441 89.883,171.507C89.918,171.674 90.226,173.168 90.619,175.065L92.356,176.287L91.578,172.648L94.165,172.336L95.194,176.578L92.878,176.652L94.594,177.858L90.838,176.121C91.552,179.572 92.408,183.717 92.446,183.896C92.554,183.917 92.828,183.975 93.133,184.038L92.724,183.75L93.944,184.205C93.972,184.21 93.998,184.216 94.025,184.221C93.886,183.566 92.682,177.888 92.682,177.888L93.176,177.888C93.176,177.888 97.112,184.68 97.219,184.866C97.372,184.897 98.427,185.113 99.045,185.241L94.922,178.034L95.368,178.055Z" style="fill:rgb(205,184,125);fill-rule:nonzero;"/>
                <path d="M96.061,167.925L96.9,171.609C97.2,172.977 97.559,173.376 97.56,173.376C97.56,173.376 101.384,177.199 101.588,177.403C102.113,177.201 102.509,176.73 102.69,176.482C102.461,176.26 101.457,175.278 101.323,175.147C100.566,175.221 99.521,174.997 99.474,174.986L99.47,174.507C99.802,174.43 100.103,174.227 100.289,174.082C99.983,173.784 98.617,172.443 98.617,172.443L97.411,167.618L99.272,167.325C99.272,167.325 100.635,172.47 100.73,172.825C100.928,172.818 101.17,172.807 101.328,172.801C101.574,172.278 101.644,171.725 101.644,171.274C101.644,170.72 101.54,170.318 101.539,170.309L100.707,167.024C100.707,167.024 101.956,165.683 102.665,164.924C100.875,165.425 97.675,166.102 97.514,166.136C96.78,166.297 96.304,166.58 96.097,166.98C95.863,167.429 96.054,167.898 96.056,167.903L96.061,167.925Z" style="fill:rgb(205,184,125);fill-rule:nonzero;"/>
                <path d="M102.069,178.467C102.192,178.95 102.484,180.103 102.587,180.51C103.001,180.273 103.61,179.854 103.833,179.427C103.8,179.291 103.65,178.688 103.582,178.422C103.192,178.458 102.538,178.505 102.069,178.467Z" style="fill:rgb(205,184,125);fill-rule:nonzero;"/>
                <path d="M103.542,184.175L103.6,184.172C103.606,184.172 104.233,184.09 104.611,182.425C104.588,182.346 104.51,182.076 104.455,181.884C104.123,181.886 103.458,181.873 102.949,181.774C103.083,182.313 103.409,183.64 103.542,184.175Z" style="fill:rgb(205,184,125);fill-rule:nonzero;"/>
                <path d="M103.688,184.764C103.716,184.88 103.746,184.998 103.746,184.998L101.646,184.411C101.646,184.411 99.867,177.742 99.773,177.39C99.518,177.395 98.741,177.409 98.355,177.416L99.346,181.199L100.56,182.051L99.474,181.692L100.095,184.061C100.101,184.116 100.257,185.407 101.839,185.825C101.839,185.825 104.575,186.582 104.589,186.586C104.607,186.59 104.997,186.671 105.215,186.445C105.404,186.25 105.441,185.858 105.324,185.304C105.018,185.335 104.476,185.272 103.688,184.764Z" style="fill:rgb(205,184,125);fill-rule:nonzero;"/>
                <path d="M53.461,186.375L53.461,186.373L51.751,186.744C51.434,186.813 51.074,186.976 51.015,187.227L50.45,189.622C50.427,189.718 50.451,189.814 50.518,189.882C50.631,189.997 50.843,190.022 51.148,189.956L52.857,189.586C53.139,189.525 53.522,189.409 53.593,189.11L53.955,187.579L52.204,187.957L52.041,188.645C52.041,188.645 52.416,188.566 52.516,188.543C52.467,188.751 52.426,188.922 52.401,189.029C52.28,189.055 52.016,189.111 51.767,189.166C51.86,188.772 52.167,187.47 52.208,187.3C52.329,187.272 52.594,187.217 52.842,187.163C52.809,187.303 52.712,187.714 52.712,187.714L53.988,187.439L54.161,186.705C54.185,186.601 54.162,186.505 54.094,186.437C53.984,186.325 53.784,186.305 53.461,186.375ZM53.991,186.664L53.843,187.291L52.947,187.483L53.077,186.932L52.063,187.151L51.532,189.396L52.546,189.177L52.75,188.313L52.275,188.416L52.349,188.105L53.721,187.809L53.422,189.069C53.386,189.22 53.195,189.332 52.82,189.413C52.19,189.549 51.741,189.645 51.112,189.782C50.783,189.853 50.587,189.803 50.619,189.66C50.843,188.718 50.964,188.205 51.186,187.266C51.216,187.137 51.451,186.986 51.789,186.914C52.419,186.778 52.868,186.681 53.499,186.545C53.854,186.469 54.026,186.513 53.991,186.664Z" style="fill:rgb(205,184,125);fill-rule:nonzero;"/>
                <path d="M58.375,185.457L56.054,185.795L55.496,189.101L56.711,188.923C56.711,188.923 56.851,188.09 56.97,187.391C57.073,187.635 57.57,188.796 57.57,188.796L58.893,188.605C58.893,188.605 58.436,187.647 58.296,187.358C58.534,187.305 58.881,187.186 58.928,186.903L59.112,185.82C59.128,185.721 59.1,185.632 59.033,185.561C58.917,185.443 58.702,185.409 58.375,185.457ZM58.939,185.792C58.871,186.199 58.825,186.465 58.756,186.873C58.728,187.041 58.453,187.161 58.142,187.206L58.038,187.222L58.632,188.465L57.678,188.604L57.065,187.168L57.232,187.028L57.917,186.927L58.076,185.989L57.001,186.145L56.558,188.765L55.709,188.891L56.205,185.951L58.4,185.631C58.808,185.57 58.963,185.657 58.939,185.792ZM57.043,186.96C57.089,186.684 57.144,186.361 57.153,186.3C57.3,186.279 57.619,186.233 57.863,186.197C57.827,186.414 57.789,186.639 57.766,186.773C57.599,186.797 57.159,186.863 57.159,186.863C57.159,186.863 57.082,186.927 57.043,186.96Z" style="fill:rgb(205,184,125);fill-rule:nonzero;"/>
                <path d="M60.535,188.373L63.051,188.138L63.121,187.47C63.121,187.47 62.111,187.563 61.811,187.591C61.833,187.374 61.864,187.098 61.88,186.939C62.103,186.917 63.086,186.827 63.086,186.827L63.156,186.152C63.156,186.152 62.239,186.237 61.951,186.264C61.972,186.059 61.995,185.831 62.012,185.68C62.239,185.659 63.295,185.56 63.295,185.56L63.366,184.891L60.877,185.122L60.535,188.373ZM63.169,185.084L63.136,185.397L61.852,185.518L61.754,186.458L62.959,186.346L62.927,186.664L61.72,186.776L61.614,187.784L62.924,187.663L62.892,187.977L60.731,188.177L61.036,185.281L63.169,185.084Z" style="fill:rgb(205,184,125);fill-rule:nonzero;"/>
                <path d="M64.917,187.96L67.431,187.861L67.497,187.195C67.497,187.195 66.475,187.236 66.187,187.247C66.208,187.039 66.235,186.765 66.252,186.598C66.485,186.589 67.458,186.552 67.458,186.552L67.524,185.882C67.524,185.882 66.598,185.919 66.319,185.93C66.338,185.733 66.362,185.506 66.377,185.347C66.614,185.338 67.661,185.297 67.661,185.297L67.726,184.633L65.24,184.73L64.917,187.96ZM67.531,184.814L67.5,185.128L66.216,185.178L66.123,186.112L67.329,186.066L67.298,186.381L66.092,186.428L65.992,187.431L67.302,187.379L67.271,187.692L65.111,187.776L65.397,184.898L67.531,184.814Z" style="fill:rgb(205,184,125);fill-rule:nonzero;"/>
                <path d="M71.403,185.825C71.042,185.431 70.194,184.505 70.194,184.505L69.51,184.505L69.303,187.724L70.444,187.724C70.444,187.724 70.498,186.881 70.526,186.447C70.885,186.83 71.721,187.724 71.721,187.724L72.421,187.724L72.629,184.505L71.489,184.505C71.489,184.505 71.432,185.378 71.403,185.825ZM71.653,184.68L72.442,184.68L72.256,187.549L71.798,187.549L70.377,186.031L70.28,187.549L69.49,187.549L69.674,184.68L70.116,184.68L71.551,186.248L71.653,184.68Z" style="fill:rgb(205,184,125);fill-rule:nonzero;"/>
                <path d="M76.479,184.505L75.075,184.505C74.671,184.505 74.378,184.676 74.378,184.913L74.378,185.524C74.378,185.694 74.53,185.797 74.621,185.858C74.624,185.86 75.085,186.143 75.479,186.389C75.442,186.389 74.378,186.389 74.378,186.389L74.378,187.311C74.378,187.557 74.659,187.724 75.075,187.724L76.479,187.724C76.959,187.724 77.176,187.514 77.176,187.308L77.176,186.559C77.176,186.38 77.008,186.266 76.873,186.174L76.871,186.171C76.871,186.171 76.451,185.915 76.064,185.679C76.107,185.679 77.176,185.679 77.176,185.679L77.176,184.92C77.176,184.718 76.993,184.505 76.479,184.505ZM77,185.505L76.15,185.505L76.15,184.991L75.422,184.991L75.422,185.493L76.775,186.32C76.896,186.403 77,186.477 77,186.559C77,186.879 77,186.986 77,187.308C77,187.438 76.8,187.548 76.479,187.548C75.967,187.548 75.586,187.548 75.075,187.548C74.805,187.548 74.553,187.461 74.553,187.311L74.553,186.563L75.404,186.563L75.404,187.236L76.133,187.236L76.133,186.586L74.718,185.712C74.623,185.647 74.552,185.592 74.552,185.523C74.552,185.28 74.552,185.167 74.552,184.912C74.552,184.791 74.77,184.679 75.074,184.679C75.585,184.679 75.966,184.679 76.478,184.679C76.808,184.679 76.999,184.78 76.999,184.921L76.999,185.505L77,185.505ZM75.975,185.167C75.975,185.319 75.975,185.576 75.975,185.625C75.806,185.523 75.642,185.423 75.598,185.396C75.598,185.325 75.598,185.271 75.598,185.167C75.736,185.167 75.837,185.167 75.975,185.167ZM75.581,187.062L75.581,186.451C75.738,186.55 75.875,186.633 75.959,186.685C75.959,186.782 75.959,186.913 75.959,187.062C75.82,187.062 75.718,187.062 75.581,187.062Z" style="fill:rgb(205,184,125);fill-rule:nonzero;"/>
                <path d="M80.671,186.321L80.062,186.283L80.117,187.292L81.101,187.352L81.052,186.456L80.671,186.321ZM80.284,187.127C80.275,186.954 80.259,186.676 80.247,186.469C80.417,186.48 80.604,186.49 80.634,186.493C80.663,186.504 80.78,186.546 80.883,186.581C80.89,186.713 80.903,186.965 80.914,187.165C80.713,187.153 80.452,187.136 80.284,187.127Z" style="fill:rgb(205,184,125);fill-rule:nonzero;"/>
                <path d="M81.824,186.192C81.916,186.148 82.012,186.057 82.001,185.869L81.956,185.069C81.944,184.825 81.667,184.661 81.215,184.633L78.938,184.492L79.117,187.714L81.361,187.851C81.691,187.873 81.919,187.821 82.039,187.702C82.104,187.637 82.138,187.55 82.134,187.459L82.082,186.514C82.073,186.379 81.985,186.274 81.824,186.192ZM81.371,187.675L79.281,187.549L79.123,184.68L81.204,184.809C81.542,184.83 81.774,184.937 81.782,185.08C81.8,185.397 81.809,185.568 81.826,185.879C81.83,185.954 81.816,186.024 81.697,186.055L81.235,186.168L81.625,186.3C81.8,186.358 81.901,186.429 81.906,186.525C81.923,186.858 81.937,187.098 81.958,187.471C81.966,187.619 81.753,187.699 81.371,187.675Z" style="fill:rgb(205,184,125);fill-rule:nonzero;"/>
                <path d="M80.975,185.86L80.932,185.098L79.993,185.041L80.04,185.908L80.676,185.946L80.975,185.86ZM80.208,185.742C80.2,185.59 80.189,185.408 80.18,185.228C80.374,185.239 80.604,185.252 80.767,185.263C80.775,185.414 80.786,185.59 80.794,185.729C80.726,185.748 80.682,185.762 80.658,185.769C80.616,185.768 80.374,185.75 80.208,185.742Z" style="fill:rgb(205,184,125);fill-rule:nonzero;"/>
                <path d="M86.571,185L84.696,184.849C84.505,184.832 84.23,184.864 84.091,185C84.028,185.061 83.996,185.14 84.002,185.225L84.148,187.64C84.165,187.923 84.574,188.058 84.844,188.08L86.716,188.232C86.908,188.248 87.182,188.218 87.322,188.081C87.385,188.018 87.417,187.939 87.411,187.855L87.266,185.441C87.25,185.159 86.841,185.022 86.571,185ZM86.729,188.057C86.036,188.001 85.55,187.96 84.857,187.905C84.641,187.886 84.332,187.78 84.322,187.629C84.265,186.68 84.233,186.16 84.177,185.214C84.168,185.064 84.466,185.006 84.683,185.023C85.378,185.081 85.863,185.119 86.557,185.176C86.773,185.192 87.083,185.302 87.09,185.452C87.148,186.398 87.179,186.919 87.237,187.866C87.246,188.018 86.948,188.075 86.729,188.057Z" style="fill:rgb(205,184,125);fill-rule:nonzero;"/>
                <path d="M85.033,185.362L85.168,187.618L86.382,187.717L86.245,185.462L85.033,185.362ZM85.334,187.456C85.318,187.218 85.238,185.864 85.218,185.554C85.456,185.574 85.89,185.61 86.079,185.625C86.094,185.865 86.176,187.218 86.194,187.527C85.957,187.506 85.521,187.471 85.334,187.456Z" style="fill:rgb(205,184,125);fill-rule:nonzero;"/>
                <path d="M92.376,187.562C92.443,187.495 92.471,187.404 92.452,187.305L92.262,186.252C92.237,186.116 92.103,185.874 91.475,185.772L88.97,185.365L89.552,188.599L90.796,188.801C90.796,188.801 90.647,187.969 90.542,187.391C90.748,187.681 91.631,188.937 91.631,188.937L93.112,189.178C93.112,189.178 92.293,188.074 92.004,187.683C92.175,187.678 92.299,187.639 92.376,187.562ZM92.715,188.934L91.732,188.774L90.556,187.105L90.686,187.012L91.391,187.127L91.225,186.211L90.118,186.03L90.578,188.588L89.703,188.444L89.186,185.576L91.446,185.945C91.866,186.013 92.064,186.15 92.088,186.282C92.159,186.679 92.207,186.939 92.278,187.336C92.307,187.502 92.054,187.537 91.732,187.485L91.625,187.466L92.715,188.934ZM90.464,186.954C90.403,186.622 90.358,186.367 90.335,186.245C90.59,186.286 90.93,186.341 91.076,186.365C91.098,186.491 91.136,186.7 91.175,186.913C90.967,186.88 90.644,186.829 90.644,186.829C90.644,186.829 90.479,186.943 90.464,186.954Z" style="fill:rgb(205,184,125);fill-rule:nonzero;"/>
                <path d="M95.049,186.792L95.488,189.137L96.702,189.411L96.264,187.068L95.049,186.792ZM95.64,188.992C95.606,188.811 95.344,187.414 95.271,187.022C95.555,187.087 95.972,187.181 96.113,187.214C96.148,187.395 96.408,188.792 96.482,189.182C96.198,189.12 95.781,189.023 95.64,188.992Z" style="fill:rgb(205,184,125);fill-rule:nonzero;"/>
                <path d="M97.74,189.657L97.27,187.149C97.215,186.856 96.747,186.687 96.57,186.648L94.696,186.22C94.626,186.205 94.264,186.133 94.089,186.301C94.022,186.365 93.993,186.456 94.01,186.55L94.48,189.06C94.535,189.351 95.002,189.519 95.179,189.559L97.052,189.986C97.123,190.003 97.487,190.074 97.661,189.904C97.73,189.841 97.758,189.75 97.74,189.657ZM97.094,189.813C96.398,189.657 95.913,189.546 95.219,189.388C95.003,189.339 94.683,189.183 94.653,189.026C94.469,188.043 94.368,187.5 94.183,186.516C94.154,186.36 94.441,186.344 94.658,186.393C95.351,186.55 95.838,186.661 96.532,186.82C96.748,186.867 97.069,187.023 97.098,187.181C97.282,188.165 97.383,188.706 97.568,189.69C97.597,189.845 97.31,189.862 97.094,189.813Z" style="fill:rgb(205,184,125);fill-rule:nonzero;"/>
                <path d="M42.266,177.324C42.266,177.324 41.328,175.923 41.112,174.271C41.112,174.271 42.835,173.578 44.16,173.935C44.16,173.935 42.618,172.637 42.818,170.708C42.818,170.708 43.699,169.51 45.362,170.125C45.362,170.125 45.765,169.225 45.975,168.861C45.142,168.642 44.809,168.672 44.809,168.672C44.809,168.672 41.725,168.25 41.714,171.175C41.714,171.175 41.474,172.148 42.627,173.233C42.627,173.233 41.672,172.93 41.114,172.093C41.114,172.093 39.503,172.35 40.138,174.508C40.138,174.508 40.186,175.667 41.314,176.78C41.314,176.78 40.528,176.75 39.625,174.958C39.625,174.958 38.473,176.541 39.314,178.372C39.314,178.372 39.448,179.348 40.577,180.408C40.577,180.408 39.997,180.167 39.21,179.209C39.21,179.209 38.463,180.748 39.706,181.955C39.706,181.955 40.373,181.056 42.043,181.209C42.043,181.209 40.556,180.066 40.241,178.116C40.242,178.114 41.175,177.192 42.266,177.324Z" style="fill:rgb(205,184,125);fill-rule:nonzero;"/>
                <path d="M109.128,179.207C108.34,180.165 107.759,180.406 107.759,180.406C108.888,179.346 109.022,178.37 109.022,178.37C109.865,176.539 108.712,174.956 108.712,174.956C107.81,176.748 107.023,176.778 107.023,176.778C108.152,175.665 108.2,174.506 108.2,174.506C108.834,172.349 107.223,172.091 107.223,172.091C106.665,172.928 105.71,173.231 105.71,173.231C106.864,172.146 106.624,171.173 106.624,171.173C106.613,168.248 103.528,168.67 103.528,168.67C103.528,168.67 103.195,168.641 102.362,168.859C102.572,169.222 102.975,170.123 102.975,170.123C104.639,169.509 105.52,170.706 105.52,170.706C105.719,172.635 104.178,173.933 104.178,173.933C105.504,173.576 107.226,174.269 107.226,174.269C107.009,175.921 106.072,177.322 106.072,177.322C107.162,177.19 108.096,178.112 108.096,178.112C107.781,180.062 106.294,181.205 106.294,181.205C107.964,181.052 108.631,181.951 108.631,181.951C109.875,180.746 109.128,179.207 109.128,179.207Z" style="fill:rgb(205,184,125);fill-rule:nonzero;"/>
                <path d="M66.05,168.11C64.714,167.125 64.151,165.55 63.919,164.558C61.875,165.35 60.489,166.549 59.649,167.482C61.224,167.838 65.429,168.928 67.32,170.697C64.843,169.246 60.02,168.272 59.133,168.101C58.884,168.427 58.728,168.677 58.657,168.794C60.034,169.129 61.527,169.63 62.452,170.362C60.245,169.317 56.01,168.893 55.437,168.838C55.3,168.817 55.187,168.714 55.17,168.573C55.148,168.403 55.305,168.255 55.476,168.236C55.455,168.233 55.499,168.233 55.476,168.236C55.861,168.277 57.179,168.438 58.63,168.789L58.723,168.31C58.723,168.31 58.697,167.296 58.905,166.803C58.905,166.803 55.242,168.001 54.3,168.4L54.009,169.453C54.009,169.453 61.262,170.753 68.77,170.935C68.77,170.935 68.117,169.633 66.05,168.11ZM61.882,166.594C61.799,166.559 61.759,166.471 61.794,166.373C61.835,166.255 61.984,166.178 62.103,166.191C62.089,166.186 62.117,166.193 62.103,166.191C62.563,166.361 65.197,167.39 65.95,168.705C64.852,167.658 62.236,166.72 61.882,166.594Z" style="fill:rgb(205,184,125);fill-rule:nonzero;"/>
                <path d="M84.392,164.56C84.16,165.551 83.597,167.125 82.261,168.11C80.194,169.633 79.542,170.935 79.542,170.935C87.049,170.753 95.001,169.344 95.001,169.344L94.845,168.653C93.903,168.255 89.405,166.803 89.405,166.803C89.613,167.296 89.588,168.31 89.588,168.31L89.633,168.59C90.972,168.263 92.154,168.102 92.513,168.058C92.49,168.055 92.534,168.055 92.513,168.058C92.684,168.073 92.842,168.219 92.824,168.39C92.808,168.533 92.698,168.636 92.561,168.661C91.988,168.724 87.76,169.209 85.568,170.286C86.525,169.508 88.105,168.971 89.528,168.616C89.065,167.885 87.501,165.755 84.392,164.56ZM86.831,166.172C86.814,166.172 86.844,166.167 86.831,166.172C86.949,166.167 87.091,166.256 87.122,166.377C87.147,166.479 87.101,166.564 87.015,166.591C86.651,166.686 83.965,167.4 82.786,168.351C83.646,167.106 86.357,166.303 86.831,166.172ZM87.84,168.249C87.28,168.384 83.148,169.404 81.111,170.752C82.785,168.989 86.985,167.844 87.715,167.656C87.692,167.657 87.736,167.652 87.715,167.656C87.888,167.651 88.064,167.775 88.066,167.945C88.07,168.09 87.974,168.208 87.84,168.249Z" style="fill:rgb(205,184,125);fill-rule:nonzero;"/>
                <path d="M65.727,158.566L66.716,158.038C66.716,158.038 66.504,158.318 66.265,158.661C67.369,158.835 69.192,159.087 71.231,159.23C71.49,158.54 72.035,157.968 72.035,157.968C71.845,158.345 71.75,158.82 71.706,159.261C72.513,159.31 73.348,159.34 74.18,159.34C75.12,159.34 76.055,159.302 76.947,159.241C76.912,159.02 76.846,158.789 76.731,158.559C76.731,158.559 76.984,158.784 77.188,159.224C79.475,159.057 81.441,158.751 82.399,158.587C82.145,158.192 81.829,157.822 81.441,157.56C81.441,157.56 82.021,157.724 82.718,158.349C83.965,156.387 85.414,155.569 85.414,155.569C82.597,155.321 80.64,156.129 80.64,156.129C77.921,154.895 74.927,155.068 74.927,155.068L74.154,155.992L73.381,155.068C73.381,155.068 70.387,154.895 67.668,156.129C67.668,156.129 65.711,155.321 62.894,155.569C62.892,155.568 64.542,156.625 65.727,158.566ZM83.172,156.435C81.763,156.847 79.727,158.441 79.453,158.66C79.385,158.708 79.292,158.704 79.223,158.638C79.142,158.559 79.149,158.417 79.216,158.335C79.579,158.055 81.699,156.481 83.172,156.435ZM75.355,157.813C75.706,157.496 77.754,155.713 79.266,155.777C77.85,156.171 75.891,157.988 75.626,158.238C75.56,158.29 75.463,158.278 75.388,158.191C75.299,158.087 75.293,157.911 75.355,157.813ZM73.479,157.82C73.528,157.909 73.521,158.06 73.448,158.142C73.388,158.212 73.311,158.216 73.259,158.166C73.052,157.933 71.522,156.239 70.405,155.802C71.602,155.852 73.206,157.523 73.479,157.82ZM70.862,158.525C70.922,158.612 70.918,158.755 70.831,158.828C70.759,158.887 70.666,158.886 70.601,158.832C70.343,158.595 68.431,156.854 67.055,156.341C68.522,156.496 70.52,158.219 70.862,158.525Z" style="fill:rgb(205,184,125);fill-rule:nonzero;"/>
                <path d="M79.262,163.626C79.215,163.596 79.17,163.564 79.122,163.54C76.15,164.57 74.18,162.699 74.18,162.699C74.18,162.699 73.273,163.559 71.761,163.791C71.703,163.936 71.68,164.133 71.799,164.366C72.251,164.538 73.378,164.898 74.089,164.898C75.177,164.898 76.774,164.316 76.774,164.316L77.136,164.464C77.136,164.464 77.11,164.539 77.042,164.673C77.556,164.525 78.574,164.177 79.262,163.626ZM73.057,163.828C74.078,162.807 75.364,163.762 75.364,163.762C73.881,163.465 73.057,163.828 73.057,163.828Z" style="fill:rgb(205,184,125);fill-rule:nonzero;"/>
                <path d="M81.027,168.028C84.548,165.655 83.754,162.221 83.109,160.603C81.884,161.993 80.73,162.839 79.684,163.314C80.106,163.582 80.386,163.884 80.566,164.192C81.429,163.916 82.313,163.571 82.942,163.18C82.413,163.711 81.569,164.154 80.714,164.501C80.84,164.827 80.872,165.145 80.861,165.419C81.495,165.294 82.106,165.134 82.594,164.927C82.134,165.263 81.502,165.52 80.831,165.715C80.826,165.758 80.817,165.797 80.81,165.836C80.781,166.164 80.669,166.475 80.496,166.762C81.04,166.711 81.56,166.63 81.995,166.507C81.532,166.764 80.929,166.938 80.291,167.05C79.954,167.464 79.475,167.806 78.901,168.042C78.825,168.519 78.49,169.138 78.011,170.053C77.109,171.78 77.122,173.29 77.122,173.29C77.122,173.29 77.254,175.639 74.206,175.668C71.161,175.639 71.292,173.29 71.292,173.29C71.292,173.29 71.203,171.582 70.402,170.053C69.93,169.151 69.582,168.527 69.503,168.05C68.932,167.815 68.45,167.472 68.113,167.058C67.475,166.946 66.872,166.773 66.409,166.516C66.843,166.639 67.363,166.719 67.907,166.769C67.71,166.448 67.593,166.097 67.578,165.727C66.906,165.529 66.271,165.274 65.81,164.936C66.31,165.147 66.939,165.312 67.591,165.439C67.63,165.135 67.755,164.861 67.939,164.609C67.001,164.249 66.043,163.773 65.461,163.189C66.178,163.636 67.222,164.019 68.191,164.313C68.414,164.086 68.684,163.88 68.976,163.693C68.941,163.72 68.91,163.752 68.877,163.781C68.945,163.822 69.899,164.369 71.148,164.585C71.098,164.478 71.077,164.417 71.077,164.417C71.031,164.147 71.034,163.982 71.055,163.851C69.505,163.866 67.477,163.158 65.21,160.565C64.563,162.164 63.724,165.638 67.275,168.03C70.053,169.904 70.515,173.33 70.473,173.724C70.473,173.724 70.353,175.132 71.651,176.03C72.109,176.268 73.189,176.72 74.24,176.344L74.069,176.741C74.097,176.741 74.121,176.745 74.149,176.746C78.071,176.563 77.825,173.723 77.825,173.723C77.787,173.328 78.249,169.902 81.027,168.028Z" style="fill:rgb(205,184,125);fill-rule:nonzero;"/>
            </g>
        </g>
        <g transform="matrix(118.78,0,0,118.78,0,0)">
            <g>
                <path d="M109.654,174.382C109.952,172.47 108.678,171.207 107.758,170.684C107.721,169.376 107.287,168.385 106.466,167.732C106.096,167.436 105.678,167.241 105.251,167.111C104.852,166.988 104.444,166.926 104.061,166.903C103.8,166.886 103.549,166.886 103.318,166.896L107.972,161.741L108.421,161.244C103.142,163.059 96.672,164.447 96.672,164.447C94.933,164.822 94.345,165.973 94.234,166.897C94.231,166.918 94.228,166.938 94.226,166.958C92.639,166.423 90.175,165.703 89.642,165.548C88.315,164.3 87.118,163.496 86.2,162.989C86.652,163.129 87.034,163.146 87.354,163.042C87.787,162.898 87.927,162.582 87.952,162.52L88.139,162.031C88.464,162.022 88.734,161.951 88.955,161.822C89.345,161.589 89.415,161.25 89.424,161.184L89.478,160.828L89.539,160.414L88.834,160.696C88.823,160.698 88.796,160.702 88.757,160.704C88.615,160.71 88.29,160.682 87.778,160.386C87.425,160.183 87.096,160.041 86.785,159.945C86.263,159.784 85.803,159.75 85.409,159.792C84.986,159.837 84.64,159.962 84.382,160.094C84.375,160.074 84.369,160.058 84.361,160.039C87.346,157.526 86.655,154.781 86.623,154.661L86.564,154.441L86.546,154.374L86.251,154.335C83.574,153.982 81.616,154.46 80.88,154.689C80.83,154.705 80.784,154.72 80.745,154.732C80.487,154.626 79.953,154.422 79.192,154.233C78.081,153.954 76.481,153.699 74.516,153.8L74.325,153.809L74.218,153.934L74.167,153.992L74.114,153.93L74.01,153.809L73.821,153.8C70.594,153.635 68.347,154.422 67.649,154.71C67.629,154.717 67.607,154.727 67.592,154.731C67.477,154.693 67.307,154.641 67.092,154.584C66.178,154.345 64.401,154.028 62.086,154.334L61.791,154.373L61.713,154.66C61.682,154.78 60.991,157.525 63.975,160.038C63.805,160.476 63.524,161.325 63.405,162.37C62.531,162.704 60.758,163.562 58.65,165.546C58.224,165.661 56.65,166.092 55.301,166.527C55.13,166.582 54.961,166.637 54.799,166.692C54.59,166.059 54.035,165.059 52.598,164.629C52.299,164.54 51.967,164.473 51.586,164.442C51.558,164.437 51.424,164.409 51.205,164.36C49.804,164.047 44.834,162.885 40.524,161.45C40.286,161.372 40.047,161.29 39.813,161.209L45.009,166.897C44.082,166.856 42.821,166.976 41.871,167.733C41.05,168.385 40.616,169.377 40.577,170.685C39.658,171.208 38.384,172.472 38.682,174.383C37.974,175.102 37.142,176.662 38.005,178.565C37.693,179.306 36.956,181.751 39.754,183.55C39.852,183.88 40.126,184.527 40.821,185.04L39.444,189.907C39.444,189.907 39.721,189.797 40.182,189.627C41.703,189.062 45.243,187.796 47.593,187.382L47.501,187.667L46.749,189.986L49.874,192.543L50.137,192.403C50.137,192.403 50.141,192.401 50.145,192.398C50.407,192.268 56.295,189.438 74.152,189.119C84.224,189.298 90.485,190.28 94.077,191.123C96.965,191.8 98.129,192.39 98.153,192.403L98.414,192.54C98.414,192.54 98.461,192.504 98.54,192.439C99.124,191.961 101.537,189.986 101.537,189.986L100.675,187.278L101.302,187.442L104.365,188.24C104.435,188.253 104.503,188.262 104.571,188.272C105.298,188.376 105.889,188.223 106.325,187.809C107.064,187.11 107.092,185.907 107.054,185.314L107.202,185.244L107.218,185.235C108.135,184.704 108.469,183.922 108.581,183.549C111.378,181.75 110.641,179.304 110.329,178.564C111.194,176.661 110.363,175.101 109.654,174.382ZM108.194,183.27C108.194,183.27 108.042,184.246 106.998,184.85L106.583,185.046C106.583,185.046 107.066,188.333 104.455,187.802L100.007,186.644L101.023,189.832L98.364,192.008C98.364,192.008 92.723,189.005 74.146,188.673C55.569,189.005 49.929,192.008 49.929,192.008L47.268,189.832L48.241,186.833C45.075,187.222 40.119,189.164 40.119,189.164L41.34,184.85C40.296,184.246 40.144,183.27 40.144,183.27C36.939,181.331 38.499,178.56 38.499,178.56C37.258,176.125 39.166,174.542 39.166,174.542C38.607,172.052 41.021,170.955 41.021,170.955C40.958,166.215 46.154,167.494 46.154,167.494L41.271,162.125C45.961,163.915 51.522,164.882 51.522,164.882C54.334,165.1 54.48,167.275 54.48,167.275C56.076,166.695 58.873,165.945 58.873,165.945C61.217,163.716 63.133,162.924 63.821,162.693C63.948,161.1 64.513,159.901 64.513,159.901C61.418,157.484 62.143,154.775 62.143,154.775C65.431,154.341 67.607,155.211 67.607,155.211C67.607,155.211 70.025,154.052 73.797,154.243L74.167,154.674L74.538,154.243C78.309,154.052 80.728,155.211 80.728,155.211C80.728,155.211 82.903,154.341 86.191,154.775C86.191,154.775 86.917,157.484 83.822,159.901C83.822,159.901 83.968,160.214 84.129,160.727C84.157,160.73 84.182,160.73 84.21,160.732C84.554,160.455 85.723,159.723 87.547,160.779C88.484,161.321 88.975,161.124 88.975,161.124C88.975,161.124 88.827,162.108 86.366,161.222C85.771,161.006 85.343,160.933 85.034,160.943C85.399,161.096 85.795,161.341 86.208,161.722C87.003,162.453 87.527,162.366 87.527,162.366C87.527,162.366 87.169,163.295 84.959,161.897C84.73,161.752 84.529,161.643 84.346,161.555C84.42,161.904 84.483,162.292 84.516,162.708C85.244,162.96 87.124,163.768 89.415,165.945C89.415,165.945 93.089,167.008 94.686,167.59C94.686,167.59 94.299,165.413 96.766,164.882C96.766,164.882 102.327,163.914 107.016,162.125L102.181,167.494C102.181,167.494 107.377,166.216 107.315,170.955C107.315,170.955 109.729,172.052 109.169,174.542C109.169,174.542 111.078,176.125 109.836,178.56C109.838,178.56 111.399,181.331 108.194,183.27Z" style="fill:rgb(0,96,169);fill-rule:nonzero;"/>
                <path d="M53.393,181.563L52.93,181.349L52.116,184.516C51.905,184.564 49.201,185.179 47.584,185.545L50.815,183.528C50.815,183.528 51.124,182.348 51.552,180.709L51.099,180.498C50.694,182.049 50.404,183.161 50.389,183.215C50.23,183.315 44.807,186.697 44.807,186.697L52.515,184.929C52.516,184.928 52.965,183.202 53.393,181.563Z" style="fill:rgb(0,96,169);fill-rule:nonzero;"/>
                <path d="M95.192,176.579L94.163,172.337L91.576,172.649L92.354,176.288L92.875,176.653L95.192,176.579ZM92.169,173.073C92.528,173.03 93.49,172.914 93.789,172.877C93.874,173.224 94.459,175.639 94.573,176.108C94.168,176.121 93.12,176.154 92.831,176.162C92.761,175.833 92.259,173.495 92.169,173.073Z" style="fill:rgb(0,96,169);fill-rule:nonzero;"/>
                <path d="M56.858,183.747C56.487,183.795 56.075,183.847 55.893,183.869C55.792,183.503 54.182,177.659 54.047,177.168L56.777,177.168L57.867,172.644L55.236,172.376L54.653,174.646L55.122,174.822C55.342,173.956 55.562,173.087 55.608,172.909C55.9,172.939 56.882,173.038 57.257,173.076C57.148,173.529 56.466,176.36 56.39,176.678C56.116,176.678 55.07,176.678 54.65,176.678C54.701,176.479 54.848,175.898 55.013,175.25L54.577,174.943L53.009,181.039L53.447,181.345C53.694,180.4 53.926,179.51 54.051,179.032C54.405,180.322 55.532,184.412 55.532,184.412L57.454,184.167L56.858,183.747Z" style="fill:rgb(0,96,169);fill-rule:nonzero;"/>
                <path d="M65.203,173.393L62.282,173.218L61.86,176.456L62.315,176.775C62.512,175.263 62.687,173.914 62.71,173.735C63.041,173.754 64.274,173.829 64.648,173.851C64.614,174.111 64.343,176.166 64.1,178.029L64.553,178.348L65.203,173.393Z" style="fill:rgb(0,96,169);fill-rule:nonzero;"/>
                <path d="M42.382,185.099L42.147,185.036L41.354,187.892L44.164,186.954L44.734,184.908L44.294,185.055C44.285,185.06 43.356,185.365 42.382,185.099ZM43.76,186.572C43.585,186.631 42.602,186.956 42.073,187.134C42.209,186.645 42.413,185.909 42.491,185.628C43.099,185.748 43.658,185.694 44.023,185.625C43.919,186 43.801,186.424 43.76,186.572Z" style="fill:rgb(0,96,169);fill-rule:nonzero;"/>
                <path d="M51.706,180.12C52.661,176.465 54.051,171.144 54.12,170.881C54.503,170.927 58.141,171.362 58.146,171.363C58.689,171.438 59.061,171.624 59.248,171.914C59.483,172.279 59.36,172.714 59.359,172.718L59.358,172.723L58.305,177.083C57.892,178.76 56.322,178.574 56.255,178.566L55.881,178.516L56.08,179.193L56.664,179.445C56.611,179.264 56.573,179.13 56.551,179.059C57.169,179.029 58.396,178.766 58.781,177.198C58.781,177.198 59.793,173.009 59.832,172.851C59.854,172.77 60.003,172.184 59.665,171.653C59.396,171.233 58.908,170.97 58.213,170.875L53.753,170.342C53.753,170.342 52.273,176.004 51.277,179.818L51.706,180.12Z" style="fill:rgb(0,96,169);fill-rule:nonzero;"/>
                <path d="M96.818,177.982C97.141,177.601 97.231,177.069 97.081,176.398L97.081,176.401C97.081,176.401 96.108,171.824 96.104,171.804C96.093,171.705 96.015,171.24 95.571,170.875C95.122,170.509 94.466,170.375 93.62,170.477C93.614,170.477 89.294,171.095 89.294,171.095L90.029,174.654L90.617,175.066C90.223,173.17 89.916,171.675 89.881,171.508C90.334,171.443 93.684,170.963 93.684,170.963C94.381,170.881 94.911,170.977 95.252,171.25C95.579,171.513 95.616,171.853 95.617,171.868L96.601,176.505C96.715,177.017 96.661,177.406 96.444,177.664C96.085,178.088 95.374,178.056 95.366,178.056L94.918,178.035L99.041,185.242C98.422,185.114 97.368,184.898 97.215,184.867C97.108,184.681 93.172,177.889 93.172,177.889L92.678,177.889C92.678,177.889 93.882,183.568 94.021,184.222C93.995,184.217 93.969,184.212 93.94,184.206L94.568,184.439C94.358,183.441 93.816,180.876 93.517,179.463C94.533,181.215 96.9,185.301 96.9,185.301L100.007,185.94C100.007,185.94 96.112,179.134 95.761,178.519C96.083,178.469 96.517,178.338 96.818,177.982Z" style="fill:rgb(0,96,169);fill-rule:nonzero;"/>
                <path d="M83.703,171.963C84.151,171.933 87.605,171.697 87.996,171.67C88.037,171.968 88.141,172.733 88.185,173.068C87.751,173.095 85.307,173.251 85.307,173.251L85.866,176.261C85.866,176.261 88.202,176.261 88.572,176.261C88.606,176.543 88.692,177.278 88.731,177.62C88.287,177.62 85.998,177.62 85.998,177.62L86.256,179.2L86.819,179.596C86.713,178.943 86.61,178.319 86.575,178.111C87.037,178.111 89.283,178.111 89.283,178.111L89.007,175.77C89.007,175.77 86.623,175.77 86.273,175.77C86.217,175.468 85.963,174.101 85.89,173.705C86.34,173.676 88.741,173.525 88.741,173.525L88.422,171.149L83.139,171.508L84.04,177.644L84.594,178.033C84.181,175.213 83.742,172.223 83.703,171.963Z" style="fill:rgb(0,96,169);fill-rule:nonzero;"/>
                <path d="M92.443,183.896C92.405,183.716 91.549,179.571 90.835,176.121L90.28,175.866L92.027,184.311L94.141,184.748L93.13,184.039C92.825,183.975 92.552,183.917 92.443,183.896Z" style="fill:rgb(0,96,169);fill-rule:nonzero;"/>
                <path d="M65.621,182.712L65.216,182.427C64.687,183.022 63.888,183.025 63.841,183.025L61.026,183.243C60.494,183.301 60.119,183.208 59.902,182.969C59.552,182.584 59.689,181.914 59.69,181.907L60.423,176.453L59.96,176.219C59.629,178.679 59.217,181.75 59.208,181.819C59.2,181.858 59.172,182.007 59.172,182.216C59.172,182.531 59.236,182.966 59.535,183.296C59.865,183.661 60.381,183.806 61.073,183.733C61.065,183.733 63.792,183.522 63.852,183.516C63.979,183.514 64.977,183.471 65.621,182.712Z" style="fill:rgb(0,96,169);fill-rule:nonzero;"/>
                <path d="M44.853,184.187L45.013,184.161L46.857,177.532C47.18,177.532 49.355,177.532 49.355,177.532C49.886,177.532 50.998,177.182 51.402,175.859L53.557,167.848C53.563,167.829 53.733,167.236 53.407,166.68C53.174,166.281 52.756,166.012 52.165,165.877L52.156,165.876C52.102,165.865 46.787,164.856 45.062,164.218L44.188,163.943C44.188,163.943 47.07,167.082 47.243,167.271C47.219,167.354 47.079,167.846 46.904,168.466L47.291,168.905L47.791,167.139C47.791,167.139 46.493,165.73 45.783,164.96C47.961,165.576 51.814,166.31 52.058,166.356C52.507,166.458 52.817,166.649 52.98,166.923C53.199,167.293 53.084,167.711 53.083,167.716C53.081,167.721 50.968,175.578 50.931,175.716C50.534,177.013 49.4,177.04 49.352,177.04L46.483,177.04C46.483,177.04 46.41,177.305 46.39,177.374C45.68,177.012 45.286,176.555 45.148,176.371C45.196,176.203 45.456,175.299 45.554,174.963C45.992,175.07 46.636,175.081 47.036,175.075C47.002,175.187 46.87,175.621 46.87,175.621L49.467,175.621L51.668,167.739L49.227,167.257C49.227,167.257 48.83,168.666 48.405,170.166L48.792,170.604C49.176,169.245 49.527,168.001 49.576,167.826C49.873,167.886 50.712,168.05 51.053,168.119C50.923,168.582 49.186,174.801 49.095,175.13C48.84,175.13 47.952,175.13 47.532,175.13C47.569,175.014 47.706,174.559 47.706,174.559L47.358,174.576C46.803,174.601 45.808,174.588 45.497,174.432L45.233,174.3L44.614,176.451L44.669,176.543C44.69,176.577 45.163,177.34 46.287,177.873C45.348,177.957 44.363,177.936 44.352,177.936L44.162,177.93L43.721,179.519L43.773,179.607C44.417,180.741 45.507,181.107 45.554,181.123L45.694,181.167L45.389,181.228C44.008,181.499 43.444,181.377 43.438,181.375L43.208,181.323L43.144,181.551L42.811,182.782L42.834,182.853C43.25,184.099 44.336,184.271 44.853,184.187ZM45.469,180.551C45.163,180.397 44.629,180.059 44.251,179.447C44.292,179.3 44.466,178.672 44.535,178.427C44.832,178.429 45.438,178.425 46.073,178.381C45.943,178.846 45.575,180.169 45.469,180.551ZM43.563,181.885C43.827,181.904 44.324,181.906 45.105,181.778C44.981,182.267 44.682,183.457 44.619,183.709C44.312,183.709 43.637,183.602 43.324,182.761C43.354,182.654 43.493,182.139 43.563,181.885Z" style="fill:rgb(0,96,169);fill-rule:nonzero;"/>
                <path d="M57.362,183.581L57.937,183.795C57.732,183.097 57.216,181.333 56.87,180.15L56.227,179.698L57.362,183.581Z" style="fill:rgb(0,96,169);fill-rule:nonzero;"/>
                <path d="M105.669,184.658C105.669,184.658 105.415,184.784 105.401,184.791C105.396,184.792 104.982,184.959 104.119,184.454C104.442,184.205 104.845,183.661 105.104,182.473L105.118,182.411L104.822,181.389L104.633,181.391C104.067,181.405 103.047,181.366 102.718,181.2L102.523,181.103L102.534,181.099C102.592,181.068 103.963,180.395 104.321,179.559L104.353,179.484L103.955,177.89L103.743,177.912C102.974,177.997 102.032,178.03 101.848,177.937L101.726,177.877C102.633,177.548 103.192,176.619 103.217,176.578L103.316,176.413L101.495,174.633L101.375,174.652C101.079,174.695 100.696,174.674 100.361,174.635C100.631,174.457 100.81,174.282 100.823,174.271L100.999,174.095C100.999,174.095 99.152,172.284 99.058,172.192C99.027,172.069 98.128,168.476 98.015,168.021C98.293,167.978 98.671,167.917 98.91,167.881C99.014,168.276 100.354,173.332 100.354,173.332L101.635,173.283L101.702,173.158C102.428,171.784 102.029,170.253 102.012,170.186C102.012,170.189 101.397,167.758 101.247,167.165C101.416,166.982 104.327,163.86 104.327,163.86L103.389,164.183C102.226,164.642 97.456,165.648 97.408,165.659C96.521,165.852 95.93,166.223 95.654,166.763C95.526,167.012 95.486,167.262 95.486,167.475C95.486,167.771 95.563,168.001 95.591,168.074C95.6,168.108 96.421,171.719 96.421,171.719L96.421,171.717C96.754,173.23 97.167,173.679 97.213,173.723C97.213,173.723 101.141,177.652 101.433,177.943L103.067,184.297C102.674,184.188 102.178,184.05 102.049,184.014C101.979,183.754 100.149,176.892 100.149,176.892L97.723,176.938C97.723,176.938 98.234,178.889 98.724,180.761L99.347,181.2L98.356,177.417C98.743,177.41 99.519,177.396 99.774,177.391C99.868,177.744 101.647,184.412 101.647,184.412L103.747,184.999C103.747,184.999 103.718,184.881 103.689,184.765C104.477,185.273 105.019,185.336 105.326,185.305C105.443,185.859 105.406,186.251 105.217,186.446C104.999,186.673 104.608,186.592 104.591,186.587C104.576,186.583 101.841,185.826 101.841,185.826C100.258,185.408 100.103,184.117 100.097,184.062L99.476,181.693L98.92,181.507C99.293,182.931 99.609,184.138 99.613,184.151C99.638,184.348 99.884,185.815 101.713,186.3L104.472,187.062L104.476,187.063C104.503,187.069 105.15,187.217 105.568,186.79C105.917,186.435 105.977,185.814 105.749,184.948L105.669,184.658ZM97.559,173.376C97.558,173.376 97.2,172.977 96.899,171.609L96.06,167.925L96.052,167.904C96.05,167.899 95.859,167.43 96.093,166.981C96.301,166.581 96.777,166.298 97.51,166.137C97.671,166.103 100.871,165.427 102.661,164.925C101.953,165.684 100.703,167.025 100.703,167.025L101.535,170.31C101.536,170.319 101.64,170.721 101.64,171.275C101.64,171.726 101.57,172.279 101.324,172.802C101.166,172.808 100.924,172.819 100.726,172.826C100.631,172.471 99.268,167.326 99.268,167.326L97.407,167.619L98.613,172.444C98.613,172.444 99.98,173.784 100.285,174.083C100.099,174.229 99.798,174.432 99.466,174.508L99.47,174.987C99.517,174.998 100.561,175.222 101.319,175.148C101.453,175.279 102.458,176.261 102.686,176.483C102.506,176.732 102.109,177.202 101.584,177.404C101.383,177.2 97.559,173.376 97.559,173.376ZM103.582,178.422C103.65,178.689 103.8,179.292 103.833,179.427C103.611,179.853 103.001,180.273 102.587,180.51C102.484,180.103 102.192,178.95 102.069,178.467C102.538,178.505 103.192,178.458 103.582,178.422ZM103.6,184.172L103.542,184.175C103.409,183.64 103.082,182.313 102.949,181.774C103.458,181.873 104.123,181.886 104.455,181.884C104.51,182.075 104.588,182.346 104.611,182.425C104.233,184.091 103.606,184.172 103.6,184.172Z" style="fill:rgb(0,96,169);fill-rule:nonzero;"/>
                <path d="M75.088,182.098L74.65,181.791C74.562,182.225 74.498,182.54 74.48,182.624C74.228,182.624 73.663,182.624 73.422,182.624C73.337,182.291 72.319,178.301 72.319,178.301C72.319,178.301 70.979,182.32 70.877,182.624C70.647,182.624 70.06,182.624 69.804,182.624C69.77,182.459 69.365,180.463 68.921,178.279L68.367,178.023L69.403,183.117L71.232,183.117C71.232,183.117 71.93,181.021 72.256,180.043C72.508,181.031 73.04,183.117 73.04,183.117L74.882,183.117L75.088,182.098Z" style="fill:rgb(0,96,169);fill-rule:nonzero;"/>
                <path d="M89.203,183.943L90.454,184.049L90.132,181.706C90.132,181.706 88.021,181.463 87.115,181.403C87.094,181.274 87.014,180.79 86.922,180.225L86.365,179.87L86.693,181.872C86.693,181.872 89.149,182.088 89.697,182.148C89.731,182.398 89.831,183.129 89.884,183.502C89.125,183.435 88.253,183.358 87.465,183.291L89.203,183.943Z" style="fill:rgb(0,96,169);fill-rule:nonzero;"/>
                <path d="M67.729,172.423C68.108,172.43 68.87,172.445 69.1,172.449C69.242,172.881 69.416,173.515 69.394,173.785C69.355,174.3 69.614,175.081 69.624,175.114L69.633,175.138C70.354,176.706 71.668,177.618 73.433,177.784C74.289,177.862 75.048,177.747 75.486,177.654C75.397,178.097 74.976,180.174 74.706,181.506L75.172,181.678L76.128,176.963L75.732,177.087C75.721,177.09 74.681,177.408 73.465,177.293C71.873,177.143 70.737,176.351 70.087,174.945C70.018,174.736 69.859,174.16 69.885,173.822C69.925,173.314 69.552,172.244 69.509,172.124L69.453,171.965L67.127,171.919L68.226,177.329L68.812,177.74C68.306,175.26 67.787,172.706 67.729,172.423Z" style="fill:rgb(0,96,169);fill-rule:nonzero;"/>
                <path d="M60.853,173.255C61.097,171.604 62.292,171.709 62.427,171.725L65.48,172.017C65.941,172.068 66.272,172.224 66.462,172.482C66.731,172.848 66.644,173.315 66.643,173.32L66.358,175.649L66.83,175.825C66.992,174.498 67.121,173.447 67.126,173.404C67.132,173.372 67.148,173.273 67.148,173.134C67.148,172.887 67.099,172.522 66.86,172.196C66.587,171.82 66.139,171.595 65.531,171.527L62.491,171.24C62.474,171.237 60.687,171.012 60.365,173.187C60.365,173.188 60.249,174.043 60.092,175.215L60.545,175.534L60.853,173.255Z" style="fill:rgb(0,96,169);fill-rule:nonzero;"/>
                <path d="M47.448,174.262L47.717,174.408C47.717,174.408 48.237,172.566 48.728,170.828L48.303,170.53C47.896,171.968 47.493,173.393 47.418,173.662C46.621,173.087 46.514,172.234 46.514,171.824C46.514,171.71 46.52,171.635 46.524,171.604L47.073,169.666L46.647,169.366C46.345,170.433 46.042,171.502 46.042,171.502L46.04,171.518C46.037,171.539 45.793,173.368 47.448,174.262Z" style="fill:rgb(0,96,169);fill-rule:nonzero;"/>
                <path d="M85.341,183.114C85.319,182.958 85.034,181.025 84.709,178.809L84.161,178.458L84.911,183.57L87.728,183.813L86.921,183.246C86.215,183.186 85.63,183.139 85.341,183.114Z" style="fill:rgb(0,96,169);fill-rule:nonzero;"/>
                <path d="M65.66,181.354C65.623,181.684 65.53,181.947 65.407,182.161L65.877,182.337C66.008,182.085 66.106,181.782 66.148,181.411C66.148,181.411 66.492,178.601 66.773,176.31L66.317,175.989L65.66,181.354Z" style="fill:rgb(0,96,169);fill-rule:nonzero;"/>
                <path d="M61.771,177.133L61.16,181.836L64.127,181.574L64.528,178.523L64.064,178.29C63.876,179.714 63.712,180.967 63.691,181.118C63.403,181.144 62.151,181.255 61.726,181.291C61.762,181.014 62.001,179.166 62.236,177.367L61.771,177.133Z" style="fill:rgb(0,96,169);fill-rule:nonzero;"/>
                <path d="M80.278,180.862C80.251,180.454 79.661,171.854 79.661,171.854L78.817,171.854L78.763,172.026C78.724,172.15 78.388,173.246 78.426,173.82C78.462,174.359 78.126,175.71 77.592,176.066L77.472,176.146L77.803,180.459L78.323,180.826C78.185,179.022 77.994,176.542 77.982,176.382C78.664,175.792 78.95,174.31 78.917,173.788C78.893,173.438 79.069,172.736 79.182,172.345C79.192,172.345 79.192,172.345 79.204,172.345C79.234,172.78 79.819,181.325 79.819,181.325C79.819,181.325 82.867,181.52 83.234,181.543C83.261,181.815 83.334,182.58 83.368,182.937C82.877,182.91 78.84,182.693 78.465,182.674C78.457,182.572 78.423,182.12 78.377,181.505L77.868,181.297L78.009,183.139L83.911,183.456L83.683,181.078C83.682,181.079 80.657,180.887 80.278,180.862Z" style="fill:rgb(0,96,169);fill-rule:nonzero;"/>
                <path d="M53.499,186.546C52.868,186.681 52.419,186.778 51.789,186.915C51.451,186.987 51.216,187.138 51.186,187.267C50.964,188.206 50.843,188.719 50.619,189.661C50.586,189.804 50.783,189.854 51.112,189.783C51.742,189.646 52.19,189.55 52.82,189.414C53.195,189.333 53.386,189.221 53.422,189.07L53.721,187.81L52.349,188.106L52.275,188.417L52.75,188.314L52.546,189.178L51.532,189.397L52.063,187.152L53.077,186.933L52.947,187.484L53.843,187.292L53.991,186.665C54.026,186.513 53.854,186.469 53.499,186.546Z" style="fill:rgb(0,96,169);fill-rule:nonzero;"/>
                <path d="M58.4,185.631L56.205,185.951L55.709,188.891L56.558,188.765L57.001,186.145L58.076,185.989L57.917,186.927L57.232,187.028L57.065,187.168L57.678,188.604L58.632,188.465L58.038,187.222L58.142,187.206C58.454,187.161 58.728,187.041 58.756,186.873C58.824,186.465 58.87,186.199 58.939,185.792C58.963,185.657 58.808,185.57 58.4,185.631Z" style="fill:rgb(0,96,169);fill-rule:nonzero;"/>
                <path d="M60.731,188.178L62.892,187.978L62.924,187.664L61.614,187.785L61.721,186.776L62.927,186.664L62.959,186.346L61.754,186.458L61.853,185.518L63.136,185.397L63.169,185.084L61.036,185.283L60.731,188.178Z" style="fill:rgb(0,96,169);fill-rule:nonzero;"/>
                <path d="M65.111,187.776L67.271,187.692L67.302,187.379L65.992,187.431L66.092,186.428L67.298,186.381L67.33,186.066L66.124,186.112L66.217,185.178L67.5,185.128L67.531,184.814L65.397,184.897L65.111,187.776Z" style="fill:rgb(0,96,169);fill-rule:nonzero;"/>
                <path d="M71.552,186.248L70.117,184.68L69.674,184.68L69.491,187.548L70.28,187.548L70.377,186.031L71.798,187.548L72.257,187.548L72.442,184.68L71.653,184.68L71.552,186.248Z" style="fill:rgb(0,96,169);fill-rule:nonzero;"/>
                <path d="M76.479,184.68C75.967,184.68 75.586,184.68 75.075,184.68C74.771,184.68 74.553,184.792 74.553,184.913C74.553,185.168 74.553,185.281 74.553,185.524C74.553,185.593 74.624,185.648 74.719,185.713L76.134,186.587L76.134,187.237L75.405,187.237L75.405,186.564L74.554,186.564L74.554,187.312C74.554,187.462 74.806,187.549 75.076,187.549C75.587,187.549 75.968,187.549 76.48,187.549C76.801,187.549 77.001,187.439 77.001,187.309C77.001,186.988 77.001,186.88 77.001,186.56C77.001,186.478 76.897,186.404 76.776,186.321L75.423,185.494L75.423,184.992L76.151,184.992L76.151,185.506L77,185.506L77,184.922C77,184.781 76.809,184.68 76.479,184.68Z" style="fill:rgb(0,96,169);fill-rule:nonzero;"/>
                <path d="M81.625,186.299L81.235,186.167L81.697,186.054C81.816,186.023 81.83,185.953 81.826,185.878C81.809,185.567 81.8,185.397 81.782,185.079C81.774,184.936 81.542,184.829 81.204,184.808L79.123,184.679L79.281,187.548L81.371,187.674C81.753,187.698 81.966,187.618 81.957,187.469C81.936,187.096 81.922,186.857 81.905,186.523C81.9,186.428 81.8,186.357 81.625,186.299ZM79.993,185.041L80.932,185.098L80.975,185.86L80.676,185.946L80.04,185.908L79.993,185.041ZM80.117,187.292L80.062,186.283L80.671,186.321L81.051,186.456L81.1,187.352L80.117,187.292Z" style="fill:rgb(0,96,169);fill-rule:nonzero;"/>
                <path d="M86.557,185.176C85.863,185.118 85.378,185.08 84.683,185.023C84.466,185.006 84.168,185.064 84.177,185.214C84.233,186.16 84.265,186.68 84.322,187.629C84.332,187.78 84.641,187.886 84.857,187.905C85.55,187.96 86.036,188.001 86.729,188.057C86.948,188.075 87.245,188.017 87.237,187.866C87.179,186.919 87.148,186.398 87.09,185.452C87.083,185.302 86.773,185.192 86.557,185.176ZM85.168,187.618L85.033,185.362L86.245,185.461L86.382,187.716L85.168,187.618Z" style="fill:rgb(0,96,169);fill-rule:nonzero;"/>
                <path d="M91.734,187.486C92.056,187.538 92.309,187.503 92.28,187.337C92.208,186.94 92.161,186.68 92.09,186.283C92.066,186.151 91.868,186.014 91.448,185.946L89.188,185.577L89.705,188.445L90.58,188.589L90.12,186.031L91.227,186.212L91.393,187.128L90.688,187.013L90.558,187.106L91.734,188.775L92.717,188.935L91.629,187.468L91.734,187.486Z" style="fill:rgb(0,96,169);fill-rule:nonzero;"/>
                <path d="M96.532,186.819C95.839,186.66 95.352,186.549 94.658,186.392C94.441,186.343 94.154,186.359 94.183,186.515C94.368,187.499 94.469,188.042 94.653,189.025C94.683,189.182 95.003,189.338 95.219,189.387C95.913,189.546 96.398,189.656 97.094,189.812C97.31,189.861 97.597,189.844 97.568,189.688C97.383,188.704 97.282,188.163 97.098,187.179C97.069,187.022 96.749,186.867 96.532,186.819ZM95.488,189.138L95.049,186.793L96.264,187.07L96.702,189.413L95.488,189.138Z" style="fill:rgb(0,96,169);fill-rule:nonzero;"/>
                <path d="M78.595,162.203C78.896,162.234 79.165,162.015 79.196,161.714C79.199,161.674 79.198,161.636 79.194,161.598L78.651,161.658L79.145,161.428C79.067,161.259 78.905,161.134 78.706,161.113C78.404,161.082 78.136,161.302 78.106,161.603C78.074,161.904 78.293,162.172 78.595,162.203Z" style="fill:rgb(0,96,169);fill-rule:nonzero;"/>
                <path d="M69.927,162.203C70.228,162.172 70.448,161.904 70.417,161.602C70.387,161.302 70.119,161.081 69.817,161.112C69.617,161.133 69.456,161.258 69.377,161.427L69.872,161.657L69.328,161.597C69.324,161.635 69.322,161.673 69.327,161.713C69.357,162.015 69.626,162.234 69.927,162.203Z" style="fill:rgb(0,96,169);fill-rule:nonzero;"/>
                <path d="M72.439,171.275C72.341,171.275 72.114,171.179 71.98,171.118C71.994,171.174 72.005,171.229 72.02,171.287C72.092,171.587 72.166,171.897 72.172,172.225C72.216,172.314 72.64,173.166 73.006,173.38C73.193,173.306 74.279,172.908 75.334,173.359C75.461,173.245 76.072,172.672 76.073,172.182C76.074,171.891 76.158,171.631 76.238,171.381C76.271,171.275 76.301,171.174 76.328,171.072L75.819,171.174C75.797,171.179 75.776,171.17 75.762,171.152C75.749,171.132 75.748,171.108 75.761,171.09C76.038,170.652 75.951,169.841 75.929,169.671C75.482,169.507 75.012,169.404 74.532,169.369C74.425,169.646 74.392,169.934 74.438,170.227C74.57,171.063 74.124,171.691 74.105,171.718C74.089,171.74 74.057,171.748 74.033,171.734C74.009,171.718 73.998,171.688 74.01,171.663C74.042,171.59 74.032,171.1 73.836,170.568C73.699,170.197 73.784,169.68 73.859,169.362C73.112,169.403 72.556,169.592 72.365,169.668C72.222,170.176 72.493,171.192 72.495,171.204C72.5,171.22 72.496,171.24 72.486,171.253C72.473,171.267 72.457,171.275 72.439,171.275Z" style="fill:rgb(0,96,169);fill-rule:nonzero;"/>
            </g>
        </g>
        <g transform="matrix(118.78,0,0,118.78,0,0)">
            <g>
                <path d="M87.779,160.384C88.29,160.68 88.615,160.708 88.758,160.702C88.65,160.659 88.532,160.602 88.4,160.526C87.802,160.179 87.261,160.006 86.787,159.943C87.097,160.039 87.426,160.181 87.779,160.384Z" style="fill-rule:nonzero;"/>
                <path d="M84.362,160.037C84.37,160.056 84.376,160.072 84.383,160.092C84.641,159.96 84.987,159.836 85.41,159.79C87.895,157.391 87.274,154.915 87.244,154.801L87.167,154.514L86.872,154.474C86.768,154.46 86.668,154.451 86.565,154.439L86.624,154.659C86.656,154.779 87.347,157.523 84.362,160.037Z" style="fill-rule:nonzero;"/>
                <path d="M51.206,164.358C49.167,163.886 44.406,162.724 40.434,161.348L40.526,161.448C44.835,162.884 49.805,164.045 51.206,164.358Z" style="fill-rule:nonzero;"/>
                <path d="M104.062,166.903L109.042,161.384C108.69,161.504 108.334,161.624 107.973,161.74L103.319,166.895C103.549,166.887 103.8,166.887 104.062,166.903Z" style="fill-rule:nonzero;"/>
                <path d="M88.139,162.029L87.952,162.518C87.927,162.58 87.787,162.896 87.354,163.04C87.034,163.144 86.652,163.127 86.2,162.987C87.118,163.494 88.315,164.298 89.642,165.546C90.176,165.701 92.64,166.421 94.226,166.956C94.228,166.936 94.231,166.916 94.234,166.895C92.689,166.396 90.73,165.824 90.262,165.686C88.934,164.436 87.736,163.634 86.818,163.13C87.271,163.268 87.654,163.285 87.972,163.179C88.405,163.036 88.545,162.72 88.569,162.658L88.757,162.169C89.082,162.159 89.353,162.09 89.572,161.959C89.964,161.727 90.032,161.387 90.042,161.32L90.157,160.552L89.476,160.824L89.422,161.18C89.413,161.246 89.343,161.585 88.953,161.818C88.733,161.949 88.464,162.02 88.139,162.029Z" style="fill-rule:nonzero;"/>
                <path d="M80.881,154.687C80.483,154.546 79.913,154.377 79.193,154.231C79.954,154.42 80.488,154.624 80.746,154.73C80.785,154.718 80.831,154.703 80.881,154.687Z" style="fill-rule:nonzero;"/>
                <path d="M47.594,187.382C45.244,187.796 41.704,189.061 40.183,189.627L40.065,190.046C40.065,190.046 44.425,188.347 47.502,187.667L47.594,187.382Z" style="fill-rule:nonzero;"/>
                <path d="M50.146,192.397L50.496,192.682L50.758,192.542C50.812,192.515 56.584,189.584 74.774,189.259C84.289,189.428 90.404,190.314 94.079,191.122C90.487,190.279 84.226,189.297 74.154,189.118C56.295,189.438 50.408,192.267 50.146,192.397Z" style="fill-rule:nonzero;"/>
                <path d="M100.677,187.278L101.539,189.986C101.539,189.986 99.126,191.962 98.542,192.439C98.693,192.504 98.769,192.54 98.774,192.545L99.035,192.683C99.037,192.683 102.159,190.129 102.159,190.129L101.304,187.443L100.677,187.278Z" style="fill-rule:nonzero;"/>
                <path d="M110.275,174.522C110.573,172.611 109.299,171.346 108.379,170.823C108.341,169.515 107.907,168.523 107.086,167.871C106.537,167.434 105.884,167.214 105.252,167.11C105.679,167.24 106.097,167.434 106.467,167.731C107.288,168.383 107.722,169.375 107.759,170.683C108.678,171.206 109.953,172.47 109.655,174.381C110.363,175.1 111.195,176.66 110.332,178.563C110.645,179.304 111.382,181.749 108.584,183.548C108.472,183.921 108.139,184.703 107.221,185.234L107.205,185.243L107.057,185.313C107.095,185.906 107.066,187.109 106.328,187.808C105.892,188.222 105.301,188.375 104.574,188.271L104.988,188.378C105.811,188.546 106.47,188.402 106.948,187.951C107.687,187.252 107.716,186.046 107.677,185.454L107.825,185.383L107.841,185.374C108.758,184.845 109.092,184.061 109.203,183.688C112,181.889 111.263,179.446 110.951,178.703C111.814,176.8 110.983,175.243 110.275,174.522Z" style="fill-rule:nonzero;"/>
                <path d="M54.799,166.69C54.961,166.635 55.13,166.581 55.301,166.525C54.982,165.815 54.253,164.882 52.598,164.626C54.035,165.057 54.59,166.057 54.799,166.69Z" style="fill-rule:nonzero;"/>
                <path d="M67.649,154.708C67.487,154.667 67.301,154.624 67.092,154.582C67.307,154.639 67.476,154.691 67.592,154.729C67.607,154.725 67.63,154.715 67.649,154.708Z" style="fill-rule:nonzero;"/>
                <path d="M74.219,153.932C74.185,153.931 74.15,153.93 74.115,153.928L74.168,153.99L74.219,153.932Z" style="fill-rule:nonzero;"/>
                <path d="M80.793,185.729C80.785,185.589 80.774,185.414 80.766,185.263C80.603,185.252 80.373,185.239 80.179,185.228C80.188,185.407 80.199,185.59 80.207,185.742C80.373,185.751 80.616,185.768 80.656,185.769C80.681,185.763 80.725,185.748 80.793,185.729Z" style="fill-rule:nonzero;"/>
                <path d="M57.043,186.96C57.082,186.926 57.159,186.863 57.159,186.863C57.159,186.863 57.599,186.798 57.766,186.773C57.788,186.639 57.827,186.414 57.863,186.197C57.619,186.233 57.3,186.28 57.153,186.3C57.144,186.362 57.089,186.684 57.043,186.96Z" style="fill-rule:nonzero;"/>
                <path d="M75.598,185.395C75.642,185.422 75.806,185.522 75.975,185.624C75.975,185.575 75.975,185.318 75.975,185.166C75.837,185.166 75.736,185.166 75.598,185.166C75.598,185.27 75.598,185.324 75.598,185.395Z" style="fill-rule:nonzero;"/>
                <path d="M100.007,186.644L104.455,187.802C107.067,188.333 106.583,185.046 106.583,185.046L106.998,184.85C108.041,184.246 108.194,183.27 108.194,183.27C111.399,181.331 109.838,178.56 109.838,178.56C111.081,176.125 109.171,174.542 109.171,174.542C109.73,172.052 107.317,170.955 107.317,170.955C107.379,166.215 102.183,167.494 102.183,167.494L107.018,162.125C102.328,163.915 96.768,164.882 96.768,164.882C94.301,165.413 94.688,167.59 94.688,167.59C93.092,167.009 89.417,165.945 89.417,165.945C87.126,163.768 85.246,162.961 84.518,162.708C84.485,162.291 84.422,161.904 84.348,161.555C84.531,161.643 84.731,161.752 84.961,161.897C87.171,163.295 87.529,162.366 87.529,162.366C87.529,162.366 87.006,162.453 86.21,161.722C85.797,161.341 85.4,161.096 85.036,160.943C85.345,160.933 85.773,161.006 86.368,161.222C88.829,162.109 88.977,161.124 88.977,161.124C88.977,161.124 88.485,161.321 87.549,160.779C85.724,159.723 84.556,160.455 84.212,160.732C84.184,160.73 84.159,160.73 84.131,160.727C83.97,160.213 83.824,159.901 83.824,159.901C86.919,157.484 86.193,154.775 86.193,154.775C82.905,154.341 80.73,155.211 80.73,155.211C80.73,155.211 78.311,154.052 74.54,154.243L74.169,154.674L73.799,154.243C70.028,154.052 67.609,155.211 67.609,155.211C67.609,155.211 65.433,154.341 62.145,154.775C62.145,154.775 61.42,157.484 64.515,159.901C64.515,159.901 63.95,161.1 63.823,162.693C63.135,162.925 61.219,163.717 58.875,165.945C58.875,165.945 56.078,166.695 54.482,167.275C54.482,167.275 54.336,165.101 51.524,164.882C51.524,164.882 45.963,163.914 41.273,162.125L46.156,167.494C46.156,167.494 40.96,166.216 41.023,170.955C41.023,170.955 38.609,172.052 39.168,174.542C39.168,174.542 37.26,176.125 38.501,178.56C38.501,178.56 36.94,181.331 40.146,183.27C40.146,183.27 40.298,184.246 41.342,184.85L40.121,189.164C40.121,189.164 45.078,187.223 48.243,186.833L47.27,189.832L49.931,192.008C49.931,192.008 55.571,189.005 74.148,188.673C92.725,189.005 98.366,192.008 98.366,192.008L101.025,189.832L100.007,186.644ZM104.727,184.181C106.217,183.505 106.1,182.064 106.1,182.064C107.117,181.895 107.641,182.504 107.641,182.504C106.539,184.926 104.727,184.181 104.727,184.181ZM104.302,174.725C104.494,174.61 105.303,174.21 106.374,174.779C106.369,175.131 106.209,177.338 103.274,177.555C103.715,177.18 104.73,176.134 104.302,174.725ZM105.391,178.3C105.632,178.198 106.328,177.998 107.152,178.571C107.053,179.029 106.489,180.989 104.135,180.892C104.681,180.495 105.595,179.615 105.391,178.3ZM103.528,168.671C103.528,168.671 106.612,168.249 106.624,171.174C106.624,171.174 106.864,172.147 105.71,173.232C105.71,173.232 106.665,172.929 107.223,172.092C107.223,172.092 108.834,172.349 108.2,174.507C108.2,174.507 108.152,175.666 107.023,176.779C107.023,176.779 107.81,176.749 108.712,174.957C108.712,174.957 109.865,176.54 109.022,178.371C109.022,178.371 108.888,179.347 107.759,180.407C107.759,180.407 108.34,180.166 109.128,179.208C109.128,179.208 109.875,180.747 108.632,181.954C108.632,181.954 107.965,181.055 106.295,181.208C106.295,181.208 107.781,180.065 108.097,178.115C108.097,178.115 107.163,177.194 106.073,177.325C106.073,177.325 107.01,175.924 107.227,174.272C107.227,174.272 105.505,173.579 104.179,173.936C104.179,173.936 105.72,172.638 105.521,170.709C105.521,170.709 104.64,169.511 102.976,170.126C102.976,170.126 102.573,169.226 102.363,168.862C103.195,168.642 103.528,168.671 103.528,168.671ZM103.033,170.916C103.033,170.916 103.507,170.427 104.813,171.179C104.813,171.179 104.884,173.734 102.018,174.11C102.017,174.109 103.71,172.933 103.033,170.916ZM95.653,166.762C95.929,166.222 96.52,165.851 97.407,165.658C97.455,165.647 102.225,164.641 103.388,164.182L104.326,163.859C104.326,163.859 101.416,166.982 101.246,167.164C101.396,167.757 102.011,170.188 102.011,170.185C102.028,170.251 102.427,171.783 101.701,173.157L101.634,173.282L100.353,173.331C100.353,173.331 99.013,168.274 98.909,167.88C98.67,167.916 98.292,167.976 98.014,168.02C98.127,168.475 99.026,172.068 99.057,172.191C99.152,172.283 100.998,174.094 100.998,174.094L100.822,174.27C100.809,174.281 100.629,174.456 100.36,174.634C100.695,174.673 101.078,174.695 101.374,174.651L101.494,174.632L103.315,176.412L103.216,176.577C103.191,176.618 102.633,177.548 101.725,177.876L101.847,177.936C102.031,178.029 102.972,177.996 103.742,177.911L103.954,177.889L104.352,179.483L104.32,179.558C103.962,180.394 102.591,181.067 102.533,181.098L102.522,181.102L102.717,181.199C103.046,181.366 104.066,181.405 104.632,181.39L104.821,181.388L105.117,182.41L105.103,182.472C104.844,183.66 104.441,184.204 104.118,184.453C104.981,184.958 105.394,184.791 105.4,184.79C105.414,184.784 105.668,184.657 105.668,184.657L105.745,184.947C105.973,185.813 105.912,186.433 105.564,186.789C105.146,187.217 104.499,187.069 104.472,187.062L104.468,187.061L101.709,186.299C99.881,185.814 99.635,184.347 99.609,184.15C99.606,184.137 99.289,182.931 98.916,181.506L99.472,181.692L100.558,182.051L99.344,181.199L98.721,180.76C98.231,178.888 97.72,176.937 97.72,176.937L100.146,176.891C100.146,176.891 101.976,183.753 102.046,184.013C102.175,184.049 102.671,184.186 103.064,184.296L101.43,177.942C101.138,177.65 97.21,173.722 97.21,173.722C97.164,173.678 96.751,173.229 96.418,171.716L96.418,171.718C96.418,171.718 95.597,168.107 95.588,168.073C95.56,168 95.483,167.77 95.483,167.474C95.485,167.26 95.525,167.011 95.653,166.762ZM84.392,164.56C84.519,164.018 84.546,163.649 84.546,163.649C84.546,163.649 88.862,165.54 89.588,168.311C89.588,168.311 89.613,167.297 89.405,166.804C89.405,166.804 93.903,168.256 94.845,168.654L95.001,169.345C95.001,169.345 87.048,170.754 79.542,170.936C79.542,170.936 80.194,169.634 82.261,168.111C83.596,167.125 84.159,165.55 84.392,164.56ZM86.819,179.596L86.256,179.2L84.595,178.034L84.041,177.645L83.14,171.509L88.423,171.15L88.742,173.526C88.742,173.526 86.341,173.677 85.891,173.706C85.964,174.102 86.218,175.469 86.274,175.771C86.624,175.771 89.008,175.771 89.008,175.771L89.284,178.112C89.284,178.112 87.038,178.112 86.576,178.112C86.61,178.319 86.712,178.943 86.819,179.596ZM77.829,173.722C77.829,173.722 78.075,176.562 74.153,176.745C74.125,176.744 74.101,176.74 74.073,176.74L74.244,176.343C73.193,176.719 72.114,176.267 71.655,176.029C70.357,175.131 70.477,173.723 70.477,173.723C70.519,173.329 70.057,169.903 67.279,168.029C63.728,165.637 64.566,162.163 65.214,160.564C67.481,163.156 69.509,163.865 71.059,163.85C71.038,163.981 71.035,164.147 71.081,164.416C71.081,164.416 71.102,164.477 71.152,164.584C71.336,164.975 71.931,166.008 73.536,167.134C72.934,167.631 72.429,167.801 71.451,167.792C70.651,167.787 69.92,167.567 69.359,167.211C70.555,167.302 71.646,167.25 71.953,167.23C72.08,167.194 72.181,167.06 72.143,166.932C72.112,166.825 72.014,166.761 71.908,166.762C71.636,166.784 70.289,166.88 68.875,166.829C68.603,166.56 68.407,166.249 68.309,165.912C69.612,166.205 70.888,166.3 71.226,166.32C71.357,166.3 71.472,166.178 71.452,166.049C71.434,165.939 71.345,165.862 71.239,165.852C70.968,165.838 69.632,165.769 68.241,165.55C68.237,165.498 68.235,165.443 68.235,165.39C68.238,165.178 68.265,164.958 68.319,164.747C69.363,165.12 70.312,165.342 70.593,165.405C70.725,165.405 70.858,165.303 70.858,165.172C70.858,165.06 70.781,164.972 70.679,164.944C70.459,164.899 69.522,164.7 68.445,164.387C68.548,164.161 68.692,163.955 68.882,163.781C68.915,163.751 68.945,163.719 68.981,163.693C68.689,163.88 68.419,164.086 68.196,164.313C67.226,164.019 66.182,163.636 65.466,163.189C66.047,163.773 67.005,164.249 67.944,164.609C67.759,164.861 67.635,165.135 67.596,165.439C66.944,165.312 66.315,165.147 65.815,164.936C66.276,165.274 66.911,165.529 67.583,165.727C67.598,166.097 67.714,166.449 67.912,166.769C67.368,166.718 66.849,166.639 66.414,166.516C66.877,166.773 67.48,166.946 68.118,167.058C68.455,167.472 68.937,167.814 69.508,168.05C69.587,168.527 69.935,169.152 70.407,170.053C71.207,171.582 71.297,173.29 71.297,173.29C71.297,173.29 71.166,175.639 74.211,175.668C77.258,175.639 77.127,173.29 77.127,173.29C77.127,173.29 77.114,171.78 78.016,170.053C78.495,169.138 78.83,168.518 78.906,168.042C79.48,167.806 79.959,167.464 80.296,167.05C80.934,166.938 81.537,166.764 82,166.507C81.565,166.631 81.045,166.712 80.501,166.762C80.675,166.474 80.786,166.163 80.815,165.836C80.822,165.797 80.83,165.758 80.836,165.715C81.507,165.521 82.138,165.264 82.599,164.927C82.111,165.135 81.5,165.294 80.866,165.419C80.877,165.145 80.845,164.827 80.719,164.501C81.574,164.154 82.418,163.711 82.947,163.18C82.317,163.571 81.434,163.916 80.571,164.192C80.391,163.884 80.112,163.581 79.689,163.314C80.735,162.839 81.889,161.993 83.114,160.603C83.759,162.221 84.552,165.655 81.032,168.028C78.249,169.902 77.787,173.328 77.829,173.722ZM69.376,161.427C69.456,161.258 69.616,161.133 69.816,161.112C70.118,161.081 70.386,161.301 70.416,161.602C70.447,161.904 70.227,162.172 69.926,162.203C69.625,162.234 69.356,162.015 69.325,161.714C69.321,161.674 69.322,161.636 69.326,161.598L68.865,161.546C68.862,161.602 68.861,161.654 68.867,161.71C68.875,161.792 68.894,161.87 68.921,161.946C68.425,161.558 68.163,161.106 68.163,161.106L69.202,160.851C69.087,160.954 68.996,161.081 68.938,161.226L69.376,161.427ZM70.887,161.505C70.886,161.495 70.884,161.486 70.883,161.475L71.63,162.183C71.172,162.409 70.756,162.493 70.383,162.487C70.719,162.294 70.93,161.917 70.887,161.505ZM78.138,162.486C77.766,162.492 77.349,162.408 76.891,162.182L77.639,161.474C77.637,161.485 77.635,161.494 77.635,161.504C77.592,161.917 77.803,162.294 78.138,162.486ZM79.317,160.85L80.355,161.105C80.355,161.105 80.094,161.557 79.599,161.945C79.625,161.869 79.644,161.791 79.652,161.709C79.658,161.654 79.658,161.601 79.653,161.545L79.193,161.597C79.197,161.635 79.198,161.673 79.195,161.713C79.165,162.014 78.895,162.233 78.594,162.202C78.293,162.171 78.073,161.903 78.104,161.601C78.134,161.301 78.402,161.08 78.704,161.111C78.904,161.132 79.066,161.257 79.143,161.426L79.581,161.223C79.522,161.081 79.432,160.953 79.317,160.85ZM79.122,163.54C79.17,163.564 79.215,163.596 79.262,163.626C79.534,163.798 79.773,164.04 79.935,164.386C78.871,164.696 77.946,164.89 77.729,164.935C77.625,164.962 77.55,165.052 77.55,165.163C77.55,165.296 77.682,165.397 77.815,165.397C78.095,165.335 79.032,165.114 80.067,164.747C80.067,164.752 80.068,164.755 80.069,164.758L80.108,164.85C80.146,165.03 80.166,165.211 80.169,165.39C80.169,165.441 80.166,165.493 80.163,165.544C78.775,165.762 77.441,165.829 77.17,165.843C77.065,165.854 76.973,165.93 76.957,166.04C76.937,166.17 77.051,166.292 77.183,166.313C77.52,166.292 78.795,166.197 80.098,165.904C80,166.24 79.807,166.552 79.536,166.821C78.121,166.871 76.773,166.776 76.499,166.754C76.394,166.753 76.296,166.817 76.266,166.923C76.228,167.051 76.328,167.185 76.455,167.222C76.763,167.241 77.857,167.293 79.057,167.201C78.494,167.563 77.757,167.786 76.951,167.791C76.088,167.799 75.3,167.557 74.713,167.158C76.219,166.073 76.832,165.089 77.041,164.673C77.108,164.539 77.135,164.464 77.135,164.464L76.773,164.316C76.773,164.316 75.176,164.898 74.088,164.898C73.377,164.898 72.251,164.538 71.798,164.366C71.679,164.134 71.702,163.936 71.76,163.791C73.272,163.559 74.179,162.699 74.179,162.699C74.179,162.699 76.15,164.57 79.122,163.54ZM72.363,169.668C72.554,169.592 73.111,169.403 73.857,169.362C73.782,169.68 73.697,170.197 73.834,170.568C74.03,171.099 74.04,171.59 74.008,171.663C73.997,171.688 74.007,171.718 74.031,171.734C74.055,171.748 74.087,171.74 74.103,171.718C74.123,171.691 74.569,171.064 74.436,170.227C74.39,169.935 74.423,169.646 74.53,169.369C75.011,169.404 75.48,169.507 75.927,169.671C75.949,169.841 76.036,170.652 75.759,171.09C75.746,171.107 75.747,171.132 75.76,171.152C75.773,171.17 75.794,171.179 75.817,171.174L76.326,171.072C76.3,171.174 76.269,171.274 76.236,171.381C76.156,171.631 76.072,171.892 76.071,172.182C76.07,172.673 75.459,173.245 75.332,173.359C74.277,172.908 73.191,173.305 73.004,173.38C72.638,173.166 72.213,172.314 72.17,172.225C72.164,171.897 72.09,171.587 72.018,171.287C72.003,171.228 71.992,171.174 71.978,171.118C72.112,171.179 72.339,171.275 72.437,171.275C72.454,171.275 72.471,171.267 72.481,171.254C72.491,171.241 72.495,171.221 72.49,171.205C72.492,171.193 72.221,170.176 72.363,169.668ZM72.034,172.585C72.034,172.585 72.388,173.64 72.925,174.009L73.347,173.689L73.717,174.071L74.162,173.721L74.145,173.708L74.179,173.708L74.162,173.721L74.607,174.071L74.977,173.689L75.399,174.009C75.938,173.64 76.291,172.585 76.291,172.585C76.871,173.706 76.299,174.323 76.299,174.323C76.299,174.323 75.63,175.201 74.145,175.201C72.66,175.201 72.025,174.323 72.025,174.323C72.025,174.323 71.454,173.707 72.034,172.585ZM76.376,170.653C76.376,170.653 76.543,169.484 76.305,168.617L75.54,169.109L74.917,168.5L74.141,169.077L73.363,168.5L72.741,169.109L71.977,168.634C71.757,169.496 71.904,170.652 71.904,170.652C70.609,169.665 70.46,168.769 70.478,168.35L70.478,168.357C70.478,168.357 72.591,168.724 74.205,167.357C74.205,167.357 75.498,168.553 77.764,168.371C77.777,168.798 77.657,169.677 76.376,170.653ZM83.438,159.323C83.438,159.323 83.323,158.946 83.107,158.732C83.107,158.732 83.751,157.627 84.179,157.282L84.096,157.989C84.096,157.989 85.003,157.496 85.398,156.309C85.397,156.309 85.53,157.857 83.438,159.323ZM67.667,156.128C70.386,154.894 73.38,155.067 73.38,155.067L74.153,155.991L74.926,155.067C74.926,155.067 77.92,154.894 80.639,156.128C80.639,156.128 82.596,155.32 85.413,155.568C85.413,155.568 83.963,156.386 82.717,158.348C82.02,157.723 81.44,157.559 81.44,157.559C81.828,157.822 82.144,158.191 82.398,158.586C81.44,158.751 79.474,159.056 77.187,159.223C76.983,158.783 76.73,158.558 76.73,158.558C76.845,158.788 76.911,159.019 76.946,159.24C76.054,159.302 75.119,159.339 74.179,159.339C73.347,159.339 72.512,159.309 71.705,159.26C71.749,158.819 71.844,158.344 72.034,157.967C72.034,157.967 71.489,158.539 71.23,159.229C69.191,159.086 67.368,158.834 66.264,158.66C66.503,158.317 66.715,158.037 66.715,158.037L65.726,158.565C64.541,156.624 62.892,155.567 62.892,155.567C65.709,155.32 67.667,156.128 67.667,156.128ZM62.944,156.309C63.339,157.496 64.245,157.989 64.245,157.989L64.163,157.282C64.592,157.627 65.234,158.732 65.234,158.732C65.02,158.945 64.904,159.323 64.904,159.323C62.813,157.857 62.944,156.309 62.944,156.309ZM54.299,168.399C55.242,168 58.904,166.802 58.904,166.802C58.696,167.295 58.722,168.309 58.722,168.309C59.447,165.538 63.764,163.647 63.764,163.647C63.764,163.647 63.792,164.014 63.917,164.557C64.148,165.549 64.712,167.124 66.048,168.109C68.115,169.632 68.768,170.934 68.768,170.934C61.26,170.752 54.007,169.452 54.007,169.452L54.299,168.399ZM53.752,170.342L58.212,170.875C58.906,170.971 59.395,171.233 59.664,171.653C60.002,172.184 59.853,172.77 59.831,172.851C59.792,173.009 58.78,177.198 58.78,177.198C58.395,178.766 57.167,179.029 56.55,179.059C56.571,179.13 56.61,179.264 56.663,179.445L56.079,179.193L54.599,178.555L56.227,179.698L56.87,180.15C57.216,181.333 57.732,183.097 57.937,183.795L57.362,183.581L55.784,182.992L56.858,183.747L57.455,184.167L55.533,184.412C55.533,184.412 54.407,180.322 54.052,179.032C53.927,179.509 53.695,180.4 53.448,181.345L53.01,181.039L51.706,180.121L51.277,179.819C52.272,176.004 53.752,170.342 53.752,170.342ZM44.188,163.94L45.062,164.215C46.787,164.853 52.102,165.862 52.156,165.873L52.165,165.874C52.755,166.009 53.174,166.278 53.407,166.677C53.733,167.234 53.563,167.827 53.557,167.845L51.402,175.856C50.998,177.179 49.886,177.529 49.355,177.529C49.355,177.529 47.181,177.529 46.857,177.529L45.013,184.158L44.853,184.184C44.336,184.268 43.249,184.096 42.834,182.85L42.811,182.779L43.144,181.548L43.208,181.32L43.438,181.372C43.444,181.374 44.008,181.496 45.389,181.225L45.694,181.164L45.554,181.12C45.507,181.104 44.416,180.738 43.773,179.604L43.721,179.516L44.162,177.927L44.352,177.933C44.363,177.933 45.348,177.954 46.287,177.87C45.162,177.337 44.689,176.574 44.669,176.54L44.614,176.448L45.233,174.297L45.497,174.429C45.808,174.585 46.803,174.598 47.358,174.573L47.706,174.556C47.706,174.556 47.568,175.011 47.532,175.127C47.952,175.127 48.84,175.127 49.095,175.127C49.186,174.798 50.923,168.579 51.053,168.116C50.712,168.047 49.873,167.883 49.576,167.823C49.527,167.998 49.176,169.242 48.792,170.601L48.405,170.163L47.29,168.901L46.903,168.462C47.078,167.841 47.218,167.35 47.242,167.267C47.07,167.08 44.188,163.94 44.188,163.94ZM45.064,177.554C42.128,177.337 41.969,175.13 41.962,174.778C43.034,174.209 43.843,174.61 44.036,174.724C43.608,176.134 44.624,177.18 45.064,177.554ZM46.321,174.109C43.455,173.733 43.526,171.178 43.526,171.178C44.832,170.427 45.306,170.915 45.306,170.915C44.629,172.933 46.321,174.109 46.321,174.109ZM42.948,178.3C42.743,179.615 43.658,180.495 44.204,180.892C41.85,180.989 41.285,179.029 41.187,178.571C42.009,177.998 42.707,178.198 42.948,178.3ZM46.04,171.519L46.042,171.503C46.042,171.503 46.346,170.434 46.647,169.367L47.073,169.667L48.302,170.531L48.727,170.829C48.236,172.567 47.716,174.409 47.716,174.409L47.447,174.263C45.793,173.368 46.037,171.539 46.04,171.519ZM39.707,181.953C38.464,180.746 39.211,179.207 39.211,179.207C39.998,180.165 40.578,180.406 40.578,180.406C39.45,179.346 39.315,178.37 39.315,178.37C38.473,176.539 39.626,174.956 39.626,174.956C40.529,176.748 41.315,176.778 41.315,176.778C40.187,175.665 40.139,174.506 40.139,174.506C39.504,172.349 41.115,172.091 41.115,172.091C41.673,172.928 42.628,173.231 42.628,173.231C41.475,172.146 41.715,171.173 41.715,171.173C41.726,168.248 44.81,168.67 44.81,168.67C44.81,168.67 45.143,168.641 45.976,168.859C45.766,169.222 45.363,170.123 45.363,170.123C43.7,169.509 42.819,170.706 42.819,170.706C42.618,172.635 44.161,173.933 44.161,173.933C42.835,173.576 41.113,174.269 41.113,174.269C41.33,175.921 42.267,177.322 42.267,177.322C41.176,177.19 40.243,178.112 40.243,178.112C40.558,180.062 42.045,181.205 42.045,181.205C40.373,181.054 39.707,181.953 39.707,181.953ZM40.698,182.5C41.341,181.941 41.959,181.996 42.23,182.059C42.231,183.275 43.027,183.897 43.595,184.186C43.098,184.331 42.636,184.317 42.213,184.145C41.342,183.791 40.855,182.852 40.698,182.5ZM44.163,186.954L41.353,187.892L42.146,185.036L42.381,185.099C43.356,185.365 44.284,185.059 44.293,185.055L44.733,184.908L44.163,186.954ZM44.807,186.696C44.807,186.696 50.229,183.314 50.389,183.214C50.404,183.16 50.694,182.048 51.099,180.497L51.552,180.708L52.93,181.348L53.393,181.562C52.965,183.201 52.516,184.928 52.516,184.928L44.807,186.696ZM54.162,186.705L53.989,187.439L52.713,187.714C52.713,187.714 52.81,187.302 52.843,187.163C52.595,187.217 52.33,187.272 52.209,187.3C52.168,187.47 51.861,188.772 51.768,189.166C52.018,189.111 52.281,189.056 52.402,189.029C52.426,188.922 52.467,188.752 52.517,188.543C52.417,188.565 52.042,188.645 52.042,188.645L52.205,187.957L53.956,187.579L53.594,189.11C53.523,189.409 53.14,189.525 52.858,189.586L51.149,189.956C50.843,190.022 50.631,189.998 50.519,189.882C50.452,189.814 50.427,189.717 50.451,189.622L51.016,187.227C51.075,186.977 51.434,186.813 51.752,186.744L53.462,186.373L53.462,186.375C53.785,186.305 53.985,186.325 54.095,186.438C54.163,186.505 54.186,186.601 54.162,186.705ZM59.113,185.82L58.929,186.903C58.882,187.186 58.534,187.305 58.297,187.358C58.437,187.647 58.894,188.605 58.894,188.605L57.571,188.796C57.571,188.796 57.074,187.635 56.971,187.391C56.852,188.09 56.712,188.923 56.712,188.923L55.497,189.101L56.055,185.795L58.376,185.457C58.704,185.409 58.919,185.443 59.035,185.561C59.101,185.631 59.129,185.721 59.113,185.82ZM63.295,185.559C63.295,185.559 62.239,185.658 62.012,185.679C61.995,185.831 61.972,186.058 61.951,186.263C62.239,186.236 63.156,186.151 63.156,186.151L63.086,186.826C63.086,186.826 62.103,186.916 61.88,186.938C61.864,187.097 61.833,187.373 61.811,187.59C62.111,187.563 63.121,187.469 63.121,187.469L63.051,188.137L60.535,188.372L60.878,185.12L63.367,184.889L63.295,185.559ZM61.072,183.731C60.38,183.805 59.864,183.66 59.534,183.294C59.236,182.963 59.171,182.529 59.171,182.214C59.171,182.004 59.198,181.855 59.207,181.817C59.216,181.748 59.628,178.678 59.959,176.217L60.422,176.451L61.771,177.132L62.236,177.367C62.002,179.167 61.762,181.014 61.726,181.291C62.151,181.255 63.403,181.144 63.691,181.118C63.712,180.967 63.876,179.714 64.064,178.29L64.528,178.523L65.504,179.017L64.552,178.348L64.099,178.029C64.342,176.166 64.614,174.111 64.647,173.851C64.273,173.829 63.04,173.754 62.709,173.735C62.687,173.913 62.511,175.262 62.314,176.775L61.859,176.456L60.546,175.534L60.093,175.215C60.25,174.043 60.366,173.188 60.366,173.187C60.688,171.012 62.475,171.237 62.492,171.24L65.532,171.527C66.139,171.595 66.587,171.819 66.861,172.196C67.1,172.522 67.149,172.887 67.149,173.134C67.149,173.273 67.133,173.371 67.127,173.404C67.122,173.446 66.993,174.498 66.831,175.825L66.359,175.649L65.238,175.23L66.318,175.989L66.774,176.31C66.493,178.602 66.149,181.411 66.149,181.411C66.107,181.782 66.009,182.084 65.878,182.337L65.408,182.161L64.193,181.707L65.216,182.426L65.621,182.711C64.977,183.47 63.98,183.513 63.851,183.513C63.791,183.52 61.064,183.731 61.072,183.731ZM67.66,185.296C67.66,185.296 66.614,185.337 66.376,185.346C66.361,185.505 66.337,185.732 66.318,185.929C66.597,185.918 67.523,185.881 67.523,185.881L67.457,186.551C67.457,186.551 66.484,186.588 66.251,186.597C66.234,186.764 66.207,187.038 66.186,187.246C66.474,187.235 67.496,187.194 67.496,187.194L67.43,187.86L64.916,187.959L65.238,184.728L67.724,184.631L67.66,185.296ZM72.421,187.724L71.721,187.724C71.721,187.724 70.885,186.83 70.526,186.447C70.498,186.881 70.444,187.724 70.444,187.724L69.303,187.724L69.51,184.505L70.194,184.505C70.194,184.505 71.043,185.431 71.403,185.825C71.432,185.379 71.489,184.505 71.489,184.505L72.629,184.505L72.421,187.724ZM73.04,183.117C73.04,183.117 72.509,181.031 72.256,180.043C71.929,181.021 71.232,183.117 71.232,183.117L69.403,183.117L68.367,178.023L68.921,178.279L70.835,179.164L68.812,177.74L68.226,177.329L67.127,171.919L69.453,171.965L69.509,172.124C69.551,172.244 69.925,173.313 69.885,173.822C69.859,174.16 70.018,174.735 70.087,174.945C70.738,176.351 71.874,177.143 73.465,177.293C74.681,177.408 75.721,177.09 75.732,177.087L76.128,176.963L75.172,181.678L74.706,181.506L73.72,181.139L74.649,181.791L75.087,182.098L74.881,183.117L73.04,183.117ZM77.176,185.68C77.176,185.68 76.107,185.68 76.064,185.68C76.451,185.916 76.871,186.172 76.871,186.172L76.873,186.175C77.008,186.267 77.176,186.381 77.176,186.56L77.176,187.309C77.176,187.514 76.959,187.725 76.479,187.725L75.075,187.725C74.659,187.725 74.378,187.558 74.378,187.312L74.378,186.39C74.378,186.39 75.442,186.39 75.479,186.39C75.084,186.144 74.624,185.861 74.621,185.859C74.53,185.798 74.378,185.695 74.378,185.525L74.378,184.914C74.378,184.677 74.671,184.506 75.075,184.506L76.479,184.506C76.992,184.506 77.176,184.719 77.176,184.923L77.176,185.68ZM82.038,187.701C81.918,187.82 81.69,187.872 81.36,187.85L79.116,187.713L78.937,184.491L81.214,184.632C81.666,184.66 81.943,184.824 81.955,185.068L82,185.868C82.011,186.056 81.915,186.147 81.823,186.191C81.984,186.273 82.072,186.378 82.08,186.512L82.132,187.457C82.137,187.549 82.104,187.636 82.038,187.701ZM78.008,183.139L77.867,181.297L78.376,181.505L80.564,182.401L78.323,180.826L77.803,180.459L77.472,176.146L77.592,176.066C78.126,175.71 78.462,174.358 78.426,173.82C78.388,173.246 78.725,172.15 78.763,172.026L78.817,171.854L79.661,171.854C79.661,171.854 80.251,180.454 80.278,180.862C80.656,180.887 83.682,181.079 83.682,181.079L83.91,183.457L78.008,183.139ZM87.322,188.081C87.182,188.218 86.908,188.248 86.716,188.232L84.844,188.08C84.573,188.058 84.165,187.923 84.148,187.64L84.002,185.225C83.997,185.141 84.028,185.061 84.091,185C84.23,184.863 84.505,184.832 84.696,184.849L86.571,185C86.841,185.022 87.25,185.159 87.266,185.441L87.411,187.855C87.417,187.938 87.385,188.018 87.322,188.081ZM84.912,183.57L84.162,178.458L84.71,178.809L86.366,179.871L86.923,180.226C87.015,180.79 87.094,181.274 87.116,181.404C88.021,181.464 90.133,181.707 90.133,181.707L90.455,184.05L89.204,183.944L87.466,183.294L86.449,182.916L86.923,183.248L87.73,183.815L84.912,183.57ZM91.632,188.936C91.632,188.936 90.748,187.68 90.543,187.39C90.647,187.968 90.797,188.8 90.797,188.8L89.553,188.598L88.971,185.364L91.476,185.771C92.104,185.873 92.238,186.115 92.263,186.251L92.453,187.304C92.472,187.403 92.444,187.494 92.377,187.561C92.3,187.639 92.176,187.677 92.005,187.682C92.294,188.073 93.113,189.177 93.113,189.177L91.632,188.936ZM97.663,189.904C97.489,190.073 97.125,190.002 97.054,189.986L95.181,189.559C95.004,189.519 94.537,189.351 94.482,189.06L94.012,186.55C93.994,186.456 94.023,186.365 94.091,186.301C94.266,186.133 94.628,186.205 94.698,186.22L96.572,186.648C96.748,186.688 97.217,186.856 97.272,187.149L97.742,189.657C97.758,189.75 97.73,189.841 97.663,189.904ZM96.901,185.302C96.901,185.302 94.534,181.216 93.518,179.464C93.817,180.877 94.358,183.442 94.569,184.44L93.941,184.207L92.721,183.752L93.13,184.04L94.141,184.749L92.027,184.312L90.28,175.867L90.835,176.122L94.591,177.859L92.875,176.653L92.354,176.288L90.617,175.066L90.029,174.654L89.294,171.095C89.294,171.095 93.614,170.478 93.62,170.477C94.466,170.376 95.122,170.51 95.571,170.875C96.015,171.24 96.093,171.705 96.104,171.804C96.108,171.824 97.081,176.401 97.081,176.401L97.081,176.398C97.231,177.069 97.141,177.602 96.818,177.982C96.517,178.338 96.083,178.469 95.762,178.519C96.114,179.134 100.008,185.94 100.008,185.94L96.901,185.302Z" style="fill-rule:nonzero;"/>
                <path d="M75.581,187.062C75.719,187.062 75.82,187.062 75.959,187.062C75.959,186.912 75.959,186.781 75.959,186.685C75.875,186.633 75.738,186.55 75.581,186.451L75.581,187.062Z" style="fill-rule:nonzero;"/>
                <path d="M80.635,186.494C80.605,186.491 80.418,186.481 80.248,186.47C80.259,186.677 80.275,186.954 80.285,187.128C80.452,187.137 80.714,187.154 80.915,187.167C80.904,186.966 80.891,186.714 80.884,186.583C80.781,186.546 80.664,186.504 80.635,186.494Z" style="fill-rule:nonzero;"/>
                <path d="M85.219,185.553C85.239,185.864 85.319,187.217 85.335,187.455C85.522,187.471 85.957,187.506 86.195,187.525C86.177,187.216 86.095,185.863 86.08,185.623C85.891,185.609 85.457,185.573 85.219,185.553Z" style="fill-rule:nonzero;"/>
                <path d="M95.271,187.022C95.344,187.414 95.606,188.811 95.64,188.992C95.782,189.023 96.198,189.119 96.482,189.183C96.408,188.792 96.148,187.395 96.113,187.215C95.972,187.182 95.555,187.088 95.271,187.022Z" style="fill-rule:nonzero;"/>
                <path d="M92.169,173.073C92.259,173.495 92.761,175.834 92.831,176.162C93.121,176.154 94.168,176.12 94.573,176.108C94.459,175.639 93.874,173.224 93.789,172.877C93.49,172.914 92.528,173.03 92.169,173.073Z" style="fill-rule:nonzero;"/>
                <path d="M90.335,186.245C90.357,186.367 90.403,186.622 90.464,186.954C90.479,186.944 90.644,186.829 90.644,186.829C90.644,186.829 90.967,186.881 91.175,186.913C91.136,186.7 91.098,186.491 91.076,186.365C90.93,186.34 90.591,186.286 90.335,186.245Z" style="fill-rule:nonzero;"/>
                <path d="M55.013,175.249C54.848,175.897 54.701,176.478 54.65,176.677C55.07,176.677 56.116,176.677 56.39,176.677C56.467,176.36 57.148,173.528 57.257,173.075C56.882,173.037 55.9,172.938 55.608,172.908C55.562,173.086 55.341,173.955 55.122,174.821L54.653,174.645L53.596,174.251L54.577,174.941L55.013,175.249Z" style="fill-rule:nonzero;"/>
                <path d="M77.815,165.397C77.798,165.401 77.833,165.397 77.815,165.397Z" style="fill-rule:nonzero;"/>
                <path d="M77.182,166.313C77.166,166.315 77.2,166.317 77.182,166.313Z" style="fill-rule:nonzero;"/>
                <path d="M76.455,167.222C76.438,167.221 76.472,167.228 76.455,167.222Z" style="fill-rule:nonzero;"/>
                <path d="M70.592,165.405C70.574,165.405 70.609,165.41 70.592,165.405Z" style="fill-rule:nonzero;"/>
                <path d="M71.225,166.321C71.207,166.325 71.242,166.323 71.225,166.321Z" style="fill-rule:nonzero;"/>
                <path d="M71.952,167.23C71.935,167.236 71.968,167.229 71.952,167.23Z" style="fill-rule:nonzero;"/>
                <path d="M75.626,158.238C75.891,157.988 77.85,156.171 79.266,155.777C77.755,155.713 75.706,157.495 75.355,157.813C75.292,157.911 75.299,158.087 75.388,158.191C75.463,158.278 75.56,158.291 75.626,158.238Z" style="fill-rule:nonzero;"/>
                <path d="M79.222,158.637C79.291,158.703 79.384,158.707 79.452,158.659C79.726,158.441 81.763,156.846 83.171,156.434C81.698,156.481 79.578,158.054 79.214,158.334C79.148,158.417 79.141,158.559 79.222,158.637Z" style="fill-rule:nonzero;"/>
                <path d="M73.259,158.167C73.311,158.217 73.388,158.212 73.448,158.143C73.52,158.06 73.528,157.91 73.479,157.821C73.206,157.524 71.603,155.852 70.405,155.804C71.521,156.24 73.052,157.934 73.259,158.167Z" style="fill-rule:nonzero;"/>
                <path d="M70.832,158.828C70.919,158.756 70.922,158.613 70.863,158.525C70.52,158.219 68.523,156.496 67.056,156.341C68.431,156.854 70.344,158.595 70.602,158.832C70.667,158.886 70.76,158.887 70.832,158.828Z" style="fill-rule:nonzero;"/>
                <path d="M92.561,168.661C92.698,168.636 92.809,168.532 92.824,168.39C92.842,168.22 92.684,168.074 92.513,168.058C92.153,168.101 90.971,168.263 89.633,168.59C89.598,168.598 89.563,168.608 89.528,168.616C88.105,168.97 86.525,169.508 85.568,170.286C87.76,169.209 91.988,168.724 92.561,168.661Z" style="fill-rule:nonzero;"/>
                <path d="M92.513,168.058C92.535,168.055 92.49,168.055 92.513,168.058Z" style="fill-rule:nonzero;"/>
                <path d="M87.84,168.249C87.973,168.208 88.069,168.09 88.066,167.946C88.064,167.776 87.889,167.652 87.715,167.657C86.985,167.845 82.786,168.99 81.111,170.753C83.148,169.404 87.28,168.384 87.84,168.249Z" style="fill-rule:nonzero;"/>
                <path d="M87.715,167.657C87.736,167.653 87.692,167.658 87.715,167.657Z" style="fill-rule:nonzero;"/>
                <path d="M55.477,168.236C55.5,168.233 55.456,168.233 55.477,168.236Z" style="fill-rule:nonzero;"/>
                <path d="M59.134,168.102C60.02,168.272 64.844,169.247 67.321,170.698C65.43,168.929 61.225,167.84 59.65,167.483C59.446,167.707 59.275,167.917 59.134,168.102Z" style="fill-rule:nonzero;"/>
                <path d="M62.103,166.191C62.117,166.194 62.088,166.186 62.103,166.191Z" style="fill-rule:nonzero;"/>
                <path d="M61.882,166.594C62.236,166.719 64.852,167.657 65.95,168.705C65.197,167.39 62.563,166.362 62.103,166.191C61.985,166.178 61.835,166.254 61.794,166.373C61.759,166.471 61.798,166.559 61.882,166.594Z" style="fill-rule:nonzero;"/>
                <path d="M86.831,166.172C86.844,166.167 86.814,166.172 86.831,166.172Z" style="fill-rule:nonzero;"/>
                <path d="M87.122,166.377C87.091,166.256 86.949,166.167 86.831,166.172C86.357,166.303 83.646,167.106 82.786,168.351C83.965,167.4 86.651,166.686 87.015,166.591C87.1,166.564 87.146,166.479 87.122,166.377Z" style="fill-rule:nonzero;"/>
                <path d="M58.63,168.789C57.179,168.438 55.861,168.277 55.476,168.236C55.306,168.255 55.148,168.403 55.17,168.573C55.187,168.714 55.3,168.817 55.437,168.838C56.01,168.894 60.245,169.317 62.452,170.362C61.527,169.63 60.034,169.129 58.657,168.794C58.649,168.793 58.641,168.791 58.63,168.789Z" style="fill-rule:nonzero;"/>
                <path d="M103.024,189.741L103.442,189.741L103.442,191.003L103.594,191.003L103.594,189.741L104.034,189.741L104.034,189.59L103.024,189.59L103.024,189.741Z" style="fill-rule:nonzero;"/>
                <path d="M104.843,190.74L104.479,189.59L104.236,189.59L104.236,191.003L104.388,191.003L104.388,189.802L104.768,191.003L104.918,191.003L105.297,189.802L105.297,191.003L105.448,191.003L105.448,189.59L105.207,189.59L104.843,190.74Z" style="fill-rule:nonzero;"/>
            </g>
        </g>
    </g>
</svg>
