<?xml version="1.0" encoding="UTF-8" standalone="no"?>
<!DOCTYPE svg PUBLIC "-//W3C//DTD SVG 1.1//EN" "http://www.w3.org/Graphics/SVG/1.1/DTD/svg11.dtd">
<svg width="100%" height="100%" viewBox="0 0 496 434" version="1.1" xmlns="http://www.w3.org/2000/svg" xmlns:xlink="http://www.w3.org/1999/xlink" xml:space="preserve" xmlns:serif="http://www.serif.com/" style="fill-rule:evenodd;clip-rule:evenodd;stroke-linejoin:round;stroke-miterlimit:1.41421;">
    <g transform="matrix(1,0,0,1,-30.2018,-616.65)">
        <g transform="matrix(4.16667,0,0,4.16667,0,0)">
            <path d="M106.317,156.402C106.317,156.402 106.863,156.995 107.409,157.588C107.969,158.168 108.464,158.806 108.464,158.806C108.464,158.806 108.654,158.059 108.843,157.312C109.002,156.566 109.16,155.819 109.16,155.819C109.351,154.872 109.275,153.867 108.963,152.896C108.624,151.954 108.032,151.063 107.258,150.314C107.258,150.314 107.098,150.163 106.859,149.936C106.609,149.72 106.276,149.432 105.943,149.144C105.276,148.57 104.609,147.996 104.609,147.996C104.609,147.996 104.57,148.782 104.531,149.569C104.477,150.342 104.422,151.116 104.422,151.116C104.351,152.074 104.496,153.036 104.804,153.954C105.111,154.873 105.668,155.658 106.317,156.402Z" style="fill:rgb(34,30,31);fill-rule:nonzero;"/>
        </g>
        <g transform="matrix(4.16667,0,0,4.16667,0,0)">
            <path d="M99.448,158.072C99.642,158.258 99.771,158.382 99.771,158.382C100.398,158.994 101.174,159.407 102.025,159.643C102.847,159.905 103.761,159.975 104.693,159.833C104.693,159.833 105.441,159.727 106.189,159.621C106.931,159.546 107.674,159.471 107.674,159.471C107.674,159.471 107.19,158.845 106.639,158.276C106.104,157.694 105.568,157.112 105.568,157.112C104.932,156.382 104.05,155.934 103.178,155.663C102.303,155.393 101.353,155.389 100.44,155.647C100.44,155.647 99.725,155.853 99.011,156.058C98.313,156.276 97.615,156.494 97.615,156.494C97.615,156.494 98.157,156.962 98.7,157.43C98.972,157.664 99.244,157.897 99.448,158.072Z" style="fill:rgb(34,30,31);fill-rule:nonzero;"/>
        </g>
        <g transform="matrix(4.16667,0,0,4.16667,0,0)">
            <path d="M111.869,163.288C112.304,163.966 112.739,164.645 112.739,164.645C112.739,164.645 113.021,163.933 113.304,163.222C113.574,162.493 113.845,161.765 113.845,161.765C114.452,159.965 114.079,157.714 112.671,156.072C112.671,156.072 112.121,155.384 111.544,154.72C110.949,154.071 110.353,153.423 110.353,153.423C110.353,153.423 110.216,154.192 110.078,154.961C109.927,155.715 109.776,156.469 109.776,156.469C109.323,158.406 109.814,160.359 110.931,161.977C110.931,161.977 111.415,162.622 111.869,163.288Z" style="fill:rgb(34,30,31);fill-rule:nonzero;"/>
        </g>
        <g transform="matrix(4.16667,0,0,4.16667,0,0)">
            <path d="M108.883,165.147C108.883,165.147 109.624,165.151 110.364,165.155C111.116,165.177 111.868,165.198 111.868,165.198C111.868,165.198 111.442,164.532 111.015,163.867C110.569,163.214 110.095,162.581 110.095,162.581C108.991,160.981 107.04,160.207 105.226,160.43C105.226,160.43 104.485,160.544 103.744,160.658C103.017,160.786 102.29,160.914 102.29,160.914C102.29,160.914 102.776,161.441 103.262,161.968C103.731,162.509 104.177,163.071 104.177,163.071C105.32,164.392 106.964,165.196 108.883,165.147Z" style="fill:rgb(34,30,31);fill-rule:nonzero;"/>
        </g>
        <g transform="matrix(4.16667,0,0,4.16667,0,0)">
            <path d="M113.922,165.26C113.994,166.218 114.241,167.17 114.728,168.027C114.728,168.027 114.827,168.203 114.975,168.466C115.108,168.738 115.285,169.099 115.463,169.461C115.816,170.186 116.168,170.911 116.168,170.911C116.168,170.911 116.536,170.246 116.904,169.581C117.262,168.898 117.621,168.214 117.621,168.214C118.079,167.337 118.266,166.351 118.184,165.351C118.102,164.353 117.83,163.299 117.227,162.405C117.227,162.405 116.751,161.664 116.276,160.922C116.04,160.55 115.8,160.182 115.599,159.919C115.406,159.652 115.276,159.473 115.276,159.473C115.276,159.473 115.045,160.213 114.813,160.953C114.55,161.69 114.288,162.427 114.288,162.427C113.948,163.346 113.828,164.317 113.922,165.26Z" style="fill:rgb(34,30,31);fill-rule:nonzero;"/>
        </g>
        <g transform="matrix(4.16667,0,0,4.16667,0,0)">
            <path d="M114.061,168.946C113.916,168.687 113.819,168.515 113.819,168.515C113.341,167.674 112.691,166.963 111.904,166.482C111.094,166.015 110.185,165.758 109.255,165.754C109.255,165.754 108.52,165.761 107.784,165.767C107.041,165.803 106.298,165.838 106.298,165.838C106.298,165.838 106.403,165.983 106.562,166.2C106.727,166.412 106.922,166.713 107.111,167.017C107.498,167.62 107.884,168.223 107.884,168.223C108.38,168.946 108.955,169.586 109.715,170.036C110.475,170.485 111.343,170.789 112.255,170.91C112.255,170.91 112.995,171.009 113.735,171.109C114.483,171.226 115.232,171.344 115.232,171.344C115.232,171.344 114.886,170.633 114.54,169.922C114.366,169.567 114.192,169.212 114.061,168.946Z" style="fill:rgb(34,30,31);fill-rule:nonzero;"/>
        </g>
        <g transform="matrix(4.16667,0,0,4.16667,0,0)">
            <path d="M117.719,174.618C117.719,174.618 117.984,175.379 118.248,176.141C118.38,176.522 118.512,176.903 118.611,177.188C118.71,177.474 118.756,177.671 118.756,177.671C118.756,177.671 119.236,177.065 119.671,176.45C120.112,175.823 120.552,175.197 120.552,175.197C121.094,174.4 121.45,173.433 121.511,172.429C121.563,171.429 121.378,170.371 120.961,169.377L119.423,166.207C119.423,166.207 119.078,166.917 118.734,167.628C118.38,168.321 118.026,169.013 118.026,169.013C117.157,170.728 117.001,172.79 117.719,174.618Z" style="fill:rgb(34,30,31);fill-rule:nonzero;"/>
        </g>
        <g transform="matrix(4.16667,0,0,4.16667,0,0)">
            <path d="M117.271,176.473C117.012,175.726 116.753,174.979 116.753,174.979C116.043,173.173 114.479,171.862 112.593,171.635C112.593,171.635 111.858,171.546 111.123,171.456C110.398,171.384 109.672,171.312 109.672,171.312L110.922,173.887C111.255,174.697 111.795,175.384 112.489,175.931C113.174,176.481 113.955,176.913 114.872,177.145C114.872,177.145 115.599,177.341 116.325,177.536C117.063,177.738 117.77,177.973 117.77,177.973C117.77,177.973 117.725,177.78 117.628,177.5C117.531,177.22 117.401,176.846 117.271,176.473Z" style="fill:rgb(34,30,31);fill-rule:nonzero;"/>
        </g>
        <g transform="matrix(4.16667,0,0,4.16667,0,0)">
            <path d="M119.704,178.586C119.52,179.529 119.571,180.496 119.757,181.465C119.757,181.465 119.928,182.253 120.099,183.04C120.192,183.433 120.262,183.829 120.302,184.129C120.348,184.428 120.379,184.627 120.379,184.627C120.379,184.627 120.923,184.081 121.468,183.536C122.003,182.982 122.506,182.412 122.506,182.412C123.151,181.694 123.595,180.791 123.817,179.797C124.036,178.805 123.948,177.744 123.664,176.703C123.664,176.703 123.445,175.849 123.138,175.022C122.849,174.19 122.56,173.357 122.56,173.357C122.56,173.357 122.13,174.014 121.701,174.67C121.264,175.308 120.827,175.946 120.827,175.946C120.29,176.731 119.884,177.646 119.704,178.586Z" style="fill:rgb(34,30,31);fill-rule:nonzero;"/>
        </g>
        <g transform="matrix(4.16667,0,0,4.16667,0,0)">
            <path d="M113.648,177.452C112.933,177.286 112.218,177.121 112.218,177.121C112.218,177.121 112.452,177.797 112.687,178.473C112.942,179.142 113.114,179.838 113.114,179.838C113.339,180.683 113.828,181.424 114.409,182.067C114.986,182.71 115.741,183.234 116.617,183.586C116.617,183.586 117.324,183.863 118.007,184.167C118.684,184.482 119.361,184.796 119.361,184.796C119.361,184.796 119.331,184.601 119.286,184.308C119.247,184.013 119.178,183.624 119.086,183.239C118.919,182.467 118.751,181.694 118.751,181.694C118.569,180.743 118.066,179.901 117.434,179.23C116.797,178.559 116.023,178.06 115.093,177.821C115.093,177.821 114.37,177.637 113.648,177.452Z" style="fill:rgb(34,30,31);fill-rule:nonzero;"/>
        </g>
        <g transform="matrix(4.16667,0,0,4.16667,0,0)">
            <path d="M122.701,183.286C121.321,184.722 120.754,186.651 120.883,188.613C120.883,188.613 120.955,189.416 121.026,190.219C121.051,191.024 121.076,191.83 121.076,191.83C121.076,191.83 121.683,191.362 122.291,190.894C122.896,190.417 123.499,189.918 123.499,189.918C124.931,188.68 125.775,186.554 125.393,184.422C125.393,184.422 125.257,183.552 125.122,182.682C124.936,181.821 124.75,180.959 124.75,180.959C124.75,180.959 124.242,181.551 123.734,182.142C123.225,182.724 122.701,183.286 122.701,183.286Z" style="fill:rgb(34,30,31);fill-rule:nonzero;"/>
        </g>
        <g transform="matrix(4.16667,0,0,4.16667,0,0)">
            <path d="M119.996,190.281C119.926,189.493 119.856,188.706 119.856,188.706C119.728,186.765 118.438,185.105 116.767,184.372C116.767,184.372 116.076,184.08 115.38,183.812C114.687,183.553 113.995,183.293 113.995,183.293C113.995,183.293 114.148,183.992 114.301,184.692C114.409,185.399 114.517,186.107 114.517,186.107C114.834,187.824 115.822,189.357 117.506,190.294C117.506,190.294 118.141,190.665 118.776,191.057C119.411,191.459 120.045,191.861 120.045,191.861C120.045,191.861 120.021,191.071 119.996,190.281Z" style="fill:rgb(34,30,31);fill-rule:nonzero;"/>
        </g>
        <g transform="matrix(4.16667,0,0,4.16667,0,0)">
            <path d="M123.543,190.713C122.78,191.329 122.178,192.103 121.775,192.962C121.388,193.822 121.044,194.766 121.014,195.751L120.851,198.971C120.851,198.971 121.492,198.584 122.134,198.198C122.777,197.791 123.421,197.385 123.421,197.385C124.23,196.862 124.895,196.108 125.369,195.208C125.85,194.31 126.138,193.267 126.076,192.191C126.076,192.191 126.049,191.312 126.021,190.433C126.016,189.993 125.982,189.555 125.947,189.226C125.917,188.897 125.897,188.678 125.897,188.678C125.897,188.678 125.32,189.196 124.743,189.714C124.161,190.224 123.543,190.713 123.543,190.713Z" style="fill:rgb(34,30,31);fill-rule:nonzero;"/>
        </g>
        <g transform="matrix(4.16667,0,0,4.16667,0,0)">
            <path d="M119.983,195.708C120.013,194.742 119.888,193.8 119.415,192.985C118.96,192.17 118.313,191.485 117.517,191.006C117.517,191.006 116.896,190.624 116.241,190.266C115.584,189.917 114.927,189.569 114.927,189.569C114.927,189.569 114.944,189.747 114.969,190.015C115,190.282 115.029,190.639 115.03,190.998C115.052,191.715 115.073,192.432 115.073,192.432C115.131,193.309 115.313,194.153 115.695,194.927C116.084,195.701 116.675,196.405 117.43,196.976C117.43,196.976 118.029,197.439 118.628,197.901C119.226,198.384 119.824,198.867 119.824,198.867L119.983,195.708Z" style="fill:rgb(34,30,31);fill-rule:nonzero;"/>
        </g>
        <g transform="matrix(4.16667,0,0,4.16667,0,0)">
            <path d="M123.388,198.28C122.983,198.536 122.617,198.837 122.289,199.174C121.928,199.507 121.606,199.876 121.328,200.273C120.773,201.066 120.398,201.97 120.249,202.945C120.249,202.945 120.144,203.745 119.988,204.535C119.788,205.316 119.587,206.096 119.587,206.096C119.587,206.096 120.304,205.806 121.02,205.515C121.74,205.204 122.46,204.894 122.46,204.894C124.174,204.075 125.408,202.22 125.726,200.082C125.726,200.082 125.759,199.864 125.807,199.537C125.825,199.208 125.85,198.769 125.874,198.33C125.92,197.451 125.966,196.573 125.966,196.573C125.966,196.573 125.321,197.009 124.676,197.446C124.032,197.863 123.388,198.28 123.388,198.28Z" style="fill:rgb(34,30,31);fill-rule:nonzero;"/>
        </g>
        <g transform="matrix(4.16667,0,0,4.16667,0,0)">
            <path d="M118.978,204.325C119.131,203.55 119.233,202.765 119.233,202.765C119.379,201.808 119.289,200.844 118.986,199.982C118.835,199.551 118.631,199.145 118.377,198.775C118.09,198.402 117.753,198.065 117.377,197.774C117.377,197.774 116.776,197.322 116.176,196.869C115.575,196.437 114.975,196.004 114.975,196.004C114.975,196.004 114.94,196.72 114.905,197.437C114.888,197.795 114.871,198.153 114.858,198.421C114.816,198.687 114.788,198.863 114.788,198.863C114.515,200.586 115.205,202.343 116.578,203.687C116.578,203.687 117.082,204.219 117.585,204.751C118.085,205.304 118.584,205.856 118.584,205.856C118.584,205.856 118.781,205.09 118.978,204.325Z" style="fill:rgb(34,30,31);fill-rule:nonzero;"/>
        </g>
        <g transform="matrix(4.16667,0,0,4.16667,0,0)">
            <path d="M122.277,205.669C120.446,206.458 119.134,208.006 118.574,209.887L117.466,212.915C117.466,212.915 118.201,212.717 118.935,212.519C119.677,212.302 120.418,212.084 120.418,212.084C121.342,211.795 122.245,211.263 122.911,210.511C123.553,209.753 124.042,208.802 124.31,207.757C124.31,207.757 124.527,206.903 124.745,206.049C124.862,205.624 124.958,205.194 124.996,204.865C125.047,204.539 125.081,204.322 125.081,204.322C125.081,204.322 124.397,204.672 123.714,205.023C123.007,205.36 122.277,205.669 122.277,205.669Z" style="fill:rgb(34,30,31);fill-rule:nonzero;"/>
        </g>
        <g transform="matrix(4.16667,0,0,4.16667,0,0)">
            <path d="M116.504,212.543L117.591,209.574C118.144,207.715 117.64,205.695 116.385,204.373C116.385,204.373 115.89,203.842 115.365,203.329C114.813,202.819 114.26,202.31 114.26,202.31C114.26,202.31 114.234,202.487 114.195,202.752C114.169,203.021 114.089,203.369 113.99,203.713C113.81,204.406 113.63,205.098 113.63,205.098C113.411,205.945 113.429,206.824 113.654,207.688C113.855,208.543 114.176,209.358 114.749,210.105C114.749,210.105 115.191,210.705 115.633,211.305C116.068,211.924 116.504,212.543 116.504,212.543Z" style="fill:rgb(34,30,31);fill-rule:nonzero;"/>
        </g>
        <g transform="matrix(4.16667,0,0,4.16667,0,0)">
            <path d="M120.123,212.931C119.19,213.205 118.347,213.688 117.655,214.328C116.967,214.969 116.283,215.705 115.873,216.601C115.873,216.601 115.523,217.327 115.173,218.053C114.998,218.416 114.823,218.779 114.692,219.052C114.564,219.326 114.445,219.49 114.445,219.49C114.445,219.49 115.221,219.418 115.953,219.296C116.703,219.173 117.452,219.051 117.452,219.051C118.4,218.885 119.305,218.45 120.091,217.805C120.878,217.162 121.566,216.319 121.904,215.293L123.115,211.982C123.115,211.982 122.364,212.229 121.613,212.476C120.868,212.703 120.123,212.931 120.123,212.931Z" style="fill:rgb(34,30,31);fill-rule:nonzero;"/>
        </g>
        <g transform="matrix(4.16667,0,0,4.16667,0,0)">
            <path d="M113.541,218.992C113.541,218.992 113.659,218.831 113.784,218.562C113.912,218.295 114.084,217.939 114.255,217.582C114.598,216.87 114.941,216.158 114.941,216.158C115.344,215.279 115.595,214.361 115.475,213.426C115.358,212.493 115.017,211.605 114.46,210.851C114.46,210.851 114.015,210.261 113.569,209.671C113.117,209.1 112.665,208.53 112.665,208.53L111.681,211.217C111.418,212.054 111.242,212.895 111.299,213.76C111.358,214.624 111.629,215.504 112.102,216.325C112.102,216.325 112.473,216.987 112.845,217.648C113.226,218.325 113.541,218.992 113.541,218.992Z" style="fill:rgb(34,30,31);fill-rule:nonzero;"/>
        </g>
        <g transform="matrix(4.16667,0,0,4.16667,0,0)">
            <path d="M117.118,219.775C116.199,219.945 115.243,220.281 114.428,220.797C113.612,221.314 112.919,222.003 112.407,222.845C112.407,222.845 112.303,223.017 112.146,223.275C112,223.541 111.764,223.867 111.517,224.187C111.034,224.832 110.552,225.478 110.552,225.478C110.552,225.478 111.321,225.487 112.09,225.496C112.87,225.489 113.651,225.482 113.651,225.482C115.619,225.447 117.412,224.177 118.547,222.338C118.547,222.338 119.03,221.599 119.387,220.792C119.77,219.998 120.154,219.205 120.154,219.205C120.154,219.205 119.391,219.357 118.627,219.508C117.872,219.642 117.118,219.775 117.118,219.775Z" style="fill:rgb(34,30,31);fill-rule:nonzero;"/>
        </g>
        <g transform="matrix(4.16667,0,0,4.16667,0,0)">
            <path d="M109.226,223.452C109.474,224.158 109.722,224.865 109.722,224.865C109.722,224.865 110.196,224.232 110.669,223.599C110.911,223.286 111.143,222.966 111.286,222.705C111.44,222.451 111.542,222.282 111.542,222.282C112.045,221.455 112.333,220.529 112.386,219.614C112.44,218.699 112.275,217.804 111.781,216.961C111.781,216.961 111.404,216.309 111.027,215.658C110.642,215.026 110.256,214.393 110.256,214.393C110.256,214.393 109.033,216.982 108.955,216.941C108.025,218.415 108.041,220.347 108.708,222.073C108.708,222.073 108.967,222.762 109.226,223.452Z" style="fill:rgb(34,30,31);fill-rule:nonzero;"/>
        </g>
        <g transform="matrix(4.16667,0,0,4.16667,0,0)">
            <path d="M113.127,226.208C112.145,226.218 111.19,226.451 110.338,226.873C109.486,227.296 108.754,227.923 108.063,228.629L105.894,231.015C105.894,231.015 106.643,231.115 107.392,231.215C108.154,231.301 108.916,231.386 108.916,231.386C109.884,231.485 110.882,231.315 111.824,230.913C112.768,230.515 113.533,229.786 114.193,228.935C114.193,228.935 114.72,228.23 115.247,227.524C115.509,227.171 115.771,226.818 115.968,226.553C116.16,226.285 116.266,226.09 116.266,226.09C116.266,226.09 115.505,226.162 114.701,226.176C113.914,226.192 113.127,226.208 113.127,226.208Z" style="fill:rgb(34,30,31);fill-rule:nonzero;"/>
        </g>
        <g transform="matrix(4.16667,0,0,4.16667,0,0)">
            <path d="M104.826,228.807C104.99,229.552 105.153,230.296 105.153,230.296L107.28,227.956C107.96,227.264 108.323,226.347 108.472,225.428C108.623,224.508 108.543,223.571 108.216,222.705C108.216,222.705 107.951,222.023 107.685,221.342C107.428,220.677 107.103,219.993 107.103,219.993C107.103,219.993 107.02,220.153 106.863,220.371C106.701,220.585 106.485,220.871 106.269,221.157C105.84,221.73 105.41,222.304 105.41,222.304C104.871,222.993 104.6,223.856 104.41,224.691C104.225,225.529 104.242,226.44 104.472,227.348C104.472,227.348 104.649,228.078 104.826,228.807Z" style="fill:rgb(34,30,31);fill-rule:nonzero;"/>
        </g>
        <g transform="matrix(4.16667,0,0,4.16667,0,0)">
            <path d="M108.391,231.985C107.421,231.87 106.492,232.023 105.574,232.309C104.638,232.58 103.775,233.048 103.046,233.711C103.046,233.711 102.449,234.253 101.853,234.795C101.564,235.078 101.237,235.314 100.994,235.494C100.752,235.675 100.591,235.796 100.591,235.796C100.591,235.796 101.336,236.014 102.081,236.232C102.463,236.344 102.827,236.428 103.103,236.491C103.38,236.555 103.565,236.597 103.565,236.597C105.414,237.011 107.585,236.376 109.127,234.865L111.498,232.263C111.498,232.263 110.715,232.201 109.931,232.139C109.161,232.062 108.391,231.985 108.391,231.985Z" style="fill:rgb(34,30,31);fill-rule:nonzero;"/>
        </g>
        <g transform="matrix(4.16667,0,0,4.16667,0,0)">
            <path d="M103.218,225.012L101.293,227.136C100.042,228.35 99.44,230.101 99.69,232.009C99.69,232.009 99.714,232.198 99.749,232.481C99.785,232.765 99.832,233.147 99.854,233.507C99.902,234.247 99.95,234.986 99.95,234.986C99.95,234.986 100.109,234.868 100.347,234.69C100.585,234.514 100.906,234.283 101.189,234.005C101.774,233.473 102.359,232.941 102.359,232.941C103.075,232.29 103.61,231.487 103.915,230.632C104.204,229.759 104.199,228.773 103.983,227.866C103.983,227.866 103.799,227.145 103.614,226.424C103.416,225.718 103.218,225.012 103.218,225.012Z" style="fill:rgb(34,30,31);fill-rule:nonzero;"/>
        </g>
        <g transform="matrix(4.16667,0,0,4.16667,0,0)">
            <path d="M103.371,237.315C103.086,237.241 102.896,237.191 102.896,237.191C100.974,236.68 98.944,237.026 97.371,238.202L94.617,239.879C94.617,239.879 95.318,240.18 96.019,240.482C96.737,240.772 97.456,241.063 97.456,241.063C99.314,241.841 101.461,241.376 103.19,240.078C103.19,240.078 103.893,239.549 104.597,239.02C105.253,238.433 105.909,237.847 105.909,237.847C105.909,237.847 105.151,237.694 104.394,237.541C104.022,237.459 103.65,237.377 103.371,237.315Z" style="fill:rgb(34,30,31);fill-rule:nonzero;"/>
        </g>
        <g transform="matrix(4.16667,0,0,4.16667,0,0)">
            <path d="M99.076,232.521C99.076,232.521 99.058,232.339 99.032,232.066C98.994,231.785 98.944,231.41 98.894,231.035C98.781,230.296 98.668,229.558 98.668,229.558C98.668,229.558 98.137,230.039 97.605,230.52C97.03,230.947 96.455,231.374 96.455,231.374C95.055,232.416 94.316,234.196 94.228,235.999C94.228,235.999 94.203,236.742 94.177,237.484C94.134,238.238 94.091,238.991 94.091,238.991L96.793,237.348C98.348,236.184 99.244,234.343 99.076,232.521Z" style="fill:rgb(34,30,31);fill-rule:nonzero;"/>
        </g>
        <g transform="matrix(4.16667,0,0,4.16667,0,0)">
            <path d="M96.782,241.489C94.954,240.746 92.981,240.969 91.174,241.753L88.268,243.152C88.268,243.152 88.917,243.53 89.565,243.907C90.232,244.276 90.899,244.645 90.899,244.645C91.749,245.104 92.732,245.325 93.751,245.309C94.258,245.297 94.782,245.241 95.285,245.102C95.775,244.938 96.258,244.715 96.719,244.436L99.728,242.604C99.728,242.604 98.983,242.331 98.238,242.058C97.51,241.774 96.782,241.489 96.782,241.489Z" style="fill:rgb(34,30,31);fill-rule:nonzero;"/>
        </g>
        <g transform="matrix(4.16667,0,0,4.16667,0,0)">
            <path d="M90.714,240.829C92.501,240.056 93.548,238.2 93.612,236.356C93.612,236.356 93.628,235.62 93.644,234.884C93.643,234.159 93.642,233.434 93.642,233.434L91.193,234.918C90.819,235.146 90.481,235.422 90.179,235.739C89.865,236.031 89.574,236.34 89.33,236.699C88.84,237.41 88.508,238.264 88.371,239.198C88.371,239.198 88.254,239.945 88.136,240.692C88.001,241.447 87.865,242.202 87.865,242.202L90.714,240.829Z" style="fill:rgb(34,30,31);fill-rule:nonzero;"/>
        </g>
        <g transform="matrix(4.16667,0,0,4.16667,0,0)">
            <path d="M90.097,245.046C89.677,244.814 89.236,244.636 88.783,244.512C88.319,244.361 87.839,244.252 87.358,244.201C86.395,244.097 85.423,244.203 84.497,244.542C84.497,244.542 84.308,244.611 84.024,244.715C83.736,244.808 83.369,244.982 82.975,245.07C82.194,245.271 81.414,245.472 81.414,245.472C81.414,245.472 82.013,245.96 82.612,246.447C83.23,246.929 83.849,247.41 83.849,247.41C85.396,248.536 87.612,248.711 89.643,247.965C89.643,247.965 89.849,247.887 90.158,247.771C90.456,247.628 90.854,247.439 91.251,247.249C92.045,246.868 92.84,246.486 92.84,246.486C92.84,246.486 92.145,246.131 91.45,245.775C90.774,245.41 90.097,245.046 90.097,245.046Z" style="fill:rgb(34,30,31);fill-rule:nonzero;"/>
        </g>
        <g transform="matrix(4.16667,0,0,4.16667,0,0)">
            <path d="M81.63,243.069C81.386,243.773 81.142,244.477 81.142,244.477C81.142,244.477 81.908,244.28 82.673,244.084C83.06,243.998 83.42,243.825 83.702,243.735C83.98,243.633 84.166,243.565 84.166,243.565C85.074,243.232 85.876,242.689 86.486,242.009C86.791,241.668 87.05,241.297 87.249,240.891C87.438,240.459 87.572,240.003 87.645,239.534C87.645,239.534 87.753,238.791 87.86,238.049C87.95,237.316 88.039,236.582 88.039,236.582C88.039,236.582 87.395,236.894 86.751,237.205C86.429,237.362 86.107,237.519 85.866,237.636C85.614,237.729 85.446,237.79 85.446,237.79C83.805,238.376 82.602,239.84 82.079,241.672C82.079,241.672 81.854,242.37 81.63,243.069Z" style="fill:rgb(34,30,31);fill-rule:nonzero;"/>
        </g>
        <g transform="matrix(4.16667,0,0,4.16667,0,0)">
            <path d="M83.081,247.624C81.509,246.395 79.524,246.006 77.602,246.403L74.415,246.89C74.415,246.89 74.942,247.439 75.469,247.987C76.016,248.532 76.563,249.077 76.563,249.077C77.261,249.752 78.159,250.275 79.142,250.515C80.115,250.712 81.184,250.681 82.228,250.412C82.228,250.412 83.081,250.191 83.934,249.97C84.361,249.859 84.79,249.755 85.096,249.628C85.406,249.516 85.613,249.441 85.613,249.441C85.613,249.441 84.977,249.01 84.341,248.58C83.711,248.102 83.081,247.624 83.081,247.624Z" style="fill:rgb(34,30,31);fill-rule:nonzero;"/>
        </g>
        <g transform="matrix(4.16667,0,0,4.16667,0,0)">
            <path d="M74.945,244.508C74.611,245.188 74.278,245.868 74.278,245.868L77.404,245.391C79.304,244.998 80.829,243.568 81.385,241.834C81.385,241.834 81.598,241.139 81.811,240.445C81.993,239.715 82.174,238.986 82.174,238.986C82.174,238.986 82.006,239.049 81.755,239.142C81.508,239.25 81.158,239.329 80.811,239.416C80.118,239.593 79.424,239.769 79.424,239.769C78.577,239.987 77.816,240.427 77.167,241.041C76.509,241.611 75.952,242.298 75.572,243.155C75.572,243.155 75.258,243.832 74.945,244.508Z" style="fill:rgb(34,30,31);fill-rule:nonzero;"/>
        </g>
        <g transform="matrix(4.16667,0,0,4.16667,0,0)">
            <path d="M75.68,249.227C74.991,248.541 74.161,248.035 73.268,247.736C72.375,247.45 71.401,247.195 70.418,247.266L67.198,247.428C67.198,247.428 67.647,248.027 68.096,248.627C68.565,249.226 69.034,249.825 69.034,249.825C69.635,250.578 70.452,251.163 71.395,251.544C72.337,251.931 73.404,252.123 74.467,251.925L77.95,251.393C77.95,251.393 77.372,250.853 76.795,250.314C76.237,249.77 75.68,249.227 75.68,249.227Z" style="fill:rgb(34,30,31);fill-rule:nonzero;"/>
        </g>
        <g transform="matrix(4.16667,0,0,4.16667,0,0)">
            <path d="M73.008,245.391C73.771,244.839 74.385,244.113 74.779,243.262C74.779,243.262 75.082,242.587 75.385,241.912C75.668,241.241 75.951,240.57 75.951,240.57L73.12,241.002C72.259,241.175 71.436,241.431 70.704,241.891C69.974,242.356 69.332,243.015 68.84,243.823C68.84,243.823 68.44,244.466 68.039,245.109C67.619,245.753 67.198,246.396 67.198,246.396L70.357,246.236C71.322,246.166 72.248,245.955 73.008,245.391Z" style="fill:rgb(34,30,31);fill-rule:nonzero;"/>
        </g>
        <g transform="matrix(4.16667,0,0,4.16667,0,0)">
            <path d="M100.234,153.312C101.142,154.12 102.4,154.518 103.7,154.527C103.663,153.175 102.951,152.028 101.99,151.178C100.998,150.367 99.672,149.969 98.383,150.132C98.597,151.467 99.292,152.544 100.234,153.312Z" style="fill:rgb(34,30,31);fill-rule:nonzero;"/>
        </g>
        <g transform="matrix(4.16667,0,0,4.16667,0,0)">
            <path d="M27.016,156.402C27.016,156.402 26.47,156.995 25.924,157.588C25.364,158.168 24.869,158.806 24.869,158.806C24.869,158.806 24.679,158.059 24.489,157.312C24.331,156.566 24.173,155.819 24.173,155.819C23.982,154.872 24.057,153.867 24.37,152.896C24.708,151.954 25.301,151.063 26.075,150.314C26.075,150.314 26.234,150.163 26.474,149.936C26.723,149.72 27.056,149.432 27.389,149.144C28.057,148.57 28.724,147.996 28.724,147.996C28.724,147.996 28.763,148.782 28.801,149.569C28.856,150.342 28.911,151.116 28.911,151.116C28.982,152.074 28.837,153.036 28.529,153.954C28.222,154.873 27.664,155.658 27.016,156.402Z" style="fill:rgb(34,30,31);fill-rule:nonzero;"/>
        </g>
        <g transform="matrix(4.16667,0,0,4.16667,0,0)">
            <path d="M33.885,158.072C33.691,158.258 33.561,158.382 33.561,158.382C32.935,158.994 32.159,159.407 31.308,159.643C30.486,159.905 29.572,159.975 28.64,159.833C28.64,159.833 27.892,159.727 27.144,159.621C26.401,159.546 25.659,159.471 25.659,159.471C25.659,159.471 26.143,158.845 26.693,158.276C27.229,157.694 27.765,157.112 27.765,157.112C28.401,156.382 29.283,155.934 30.155,155.663C31.03,155.393 31.979,155.389 32.893,155.647C32.893,155.647 33.607,155.853 34.321,156.058C35.019,156.276 35.718,156.494 35.718,156.494C35.718,156.494 35.175,156.962 34.633,157.43C34.361,157.664 34.089,157.897 33.885,158.072Z" style="fill:rgb(34,30,31);fill-rule:nonzero;"/>
        </g>
        <g transform="matrix(4.16667,0,0,4.16667,0,0)">
            <path d="M21.464,163.288C21.029,163.966 20.593,164.645 20.593,164.645C20.593,164.645 20.311,163.933 20.029,163.222C19.759,162.493 19.488,161.765 19.488,161.765C18.881,159.965 19.254,157.714 20.662,156.072C20.662,156.072 21.212,155.384 21.789,154.72C22.384,154.071 22.98,153.423 22.98,153.423C22.98,153.423 23.117,154.192 23.254,154.961C23.406,155.715 23.557,156.469 23.557,156.469C24.01,158.406 23.519,160.359 22.402,161.977C22.402,161.977 21.918,162.622 21.464,163.288Z" style="fill:rgb(34,30,31);fill-rule:nonzero;"/>
        </g>
        <g transform="matrix(4.16667,0,0,4.16667,0,0)">
            <path d="M24.45,165.147C24.45,165.147 23.709,165.151 22.968,165.155C22.216,165.177 21.465,165.198 21.465,165.198C21.465,165.198 21.891,164.532 22.318,163.867C22.764,163.214 23.238,162.581 23.238,162.581C24.342,160.981 26.293,160.207 28.107,160.43C28.107,160.43 28.848,160.544 29.589,160.658C30.316,160.786 31.043,160.914 31.043,160.914C31.043,160.914 30.557,161.441 30.071,161.968C29.602,162.509 29.156,163.071 29.156,163.071C28.013,164.392 26.369,165.196 24.45,165.147Z" style="fill:rgb(34,30,31);fill-rule:nonzero;"/>
        </g>
        <g transform="matrix(4.16667,0,0,4.16667,0,0)">
            <path d="M19.411,165.26C19.339,166.218 19.092,167.17 18.605,168.027C18.605,168.027 18.506,168.203 18.358,168.466C18.225,168.738 18.047,169.099 17.87,169.461C17.517,170.186 17.164,170.911 17.164,170.911C17.164,170.911 16.797,170.246 16.429,169.581C16.07,168.898 15.712,168.214 15.712,168.214C15.254,167.337 15.067,166.351 15.149,165.351C15.23,164.353 15.503,163.299 16.106,162.405C16.106,162.405 16.582,161.664 17.057,160.922C17.292,160.55 17.533,160.182 17.734,159.919C17.927,159.652 18.056,159.473 18.056,159.473C18.056,159.473 18.288,160.213 18.519,160.953C18.782,161.69 19.045,162.427 19.045,162.427C19.385,163.346 19.504,164.317 19.411,165.26Z" style="fill:rgb(34,30,31);fill-rule:nonzero;"/>
        </g>
        <g transform="matrix(4.16667,0,0,4.16667,0,0)">
            <path d="M19.272,168.946C19.417,168.687 19.514,168.515 19.514,168.515C19.992,167.674 20.642,166.963 21.429,166.482C22.239,166.015 23.147,165.758 24.078,165.754C24.078,165.754 24.813,165.761 25.549,165.767C26.292,165.803 27.035,165.838 27.035,165.838C27.035,165.838 26.93,165.983 26.771,166.2C26.606,166.412 26.411,166.713 26.221,167.017C25.835,167.62 25.449,168.223 25.449,168.223C24.952,168.946 24.378,169.586 23.618,170.036C22.858,170.485 21.989,170.789 21.077,170.91C21.077,170.91 20.338,171.009 19.598,171.109C18.85,171.226 18.101,171.344 18.101,171.344C18.101,171.344 18.447,170.633 18.793,169.922C18.967,169.567 19.141,169.212 19.272,168.946Z" style="fill:rgb(34,30,31);fill-rule:nonzero;"/>
        </g>
        <g transform="matrix(4.16667,0,0,4.16667,0,0)">
            <path d="M15.614,174.618C15.614,174.618 15.349,175.379 15.085,176.141C14.953,176.522 14.821,176.903 14.721,177.188C14.623,177.474 14.577,177.671 14.577,177.671C14.577,177.671 14.096,177.065 13.662,176.45C13.221,175.823 12.781,175.197 12.781,175.197C12.239,174.4 11.883,173.433 11.822,172.429C11.77,171.429 11.955,170.371 12.372,169.377L13.91,166.207C13.91,166.207 14.255,166.917 14.599,167.628C14.953,168.321 15.307,169.013 15.307,169.013C16.176,170.728 16.332,172.79 15.614,174.618Z" style="fill:rgb(34,30,31);fill-rule:nonzero;"/>
        </g>
        <g transform="matrix(4.16667,0,0,4.16667,0,0)">
            <path d="M16.062,176.473C16.321,175.726 16.58,174.979 16.58,174.979C17.29,173.173 18.853,171.862 20.74,171.635C20.74,171.635 21.475,171.546 22.21,171.456C22.935,171.384 23.66,171.312 23.66,171.312L22.411,173.887C22.078,174.697 21.538,175.384 20.844,175.931C20.159,176.481 19.378,176.913 18.46,177.145C18.46,177.145 17.734,177.341 17.008,177.536C16.27,177.738 15.563,177.973 15.563,177.973C15.563,177.973 15.608,177.78 15.705,177.5C15.802,177.22 15.932,176.846 16.062,176.473Z" style="fill:rgb(34,30,31);fill-rule:nonzero;"/>
        </g>
        <g transform="matrix(4.16667,0,0,4.16667,0,0)">
            <path d="M13.629,178.586C13.813,179.529 13.762,180.496 13.576,181.465C13.576,181.465 13.405,182.253 13.234,183.04C13.141,183.433 13.07,183.829 13.031,184.129C12.985,184.428 12.954,184.627 12.954,184.627C12.954,184.627 12.41,184.081 11.865,183.536C11.33,182.982 10.827,182.412 10.827,182.412C10.182,181.694 9.737,180.791 9.515,179.797C9.297,178.805 9.385,177.744 9.669,176.703C9.669,176.703 9.888,175.849 10.195,175.022C10.484,174.19 10.773,173.357 10.773,173.357C10.773,173.357 11.203,174.014 11.632,174.67C12.069,175.308 12.506,175.946 12.506,175.946C13.043,176.731 13.449,177.646 13.629,178.586Z" style="fill:rgb(34,30,31);fill-rule:nonzero;"/>
        </g>
        <g transform="matrix(4.16667,0,0,4.16667,0,0)">
            <path d="M19.685,177.452C20.4,177.286 21.115,177.121 21.115,177.121C21.115,177.121 20.881,177.797 20.646,178.473C20.391,179.142 20.219,179.838 20.219,179.838C19.994,180.683 19.505,181.424 18.924,182.067C18.346,182.71 17.592,183.234 16.715,183.586C16.715,183.586 16.009,183.863 15.326,184.167C14.649,184.482 13.972,184.796 13.972,184.796C13.972,184.796 14.002,184.601 14.047,184.308C14.086,184.013 14.155,183.624 14.247,183.239C14.414,182.467 14.582,181.694 14.582,181.694C14.764,180.743 15.266,179.901 15.899,179.23C16.536,178.559 17.31,178.06 18.24,177.821C18.24,177.821 18.962,177.637 19.685,177.452Z" style="fill:rgb(34,30,31);fill-rule:nonzero;"/>
        </g>
        <g transform="matrix(4.16667,0,0,4.16667,0,0)">
            <path d="M10.632,183.286C12.012,184.722 12.579,186.651 12.45,188.613C12.45,188.613 12.378,189.416 12.306,190.219C12.282,191.024 12.257,191.83 12.257,191.83C12.257,191.83 11.649,191.362 11.042,190.894C10.437,190.417 9.834,189.918 9.834,189.918C8.402,188.68 7.558,186.554 7.94,184.422C7.94,184.422 8.076,183.552 8.211,182.682C8.397,181.821 8.583,180.959 8.583,180.959C8.583,180.959 9.091,181.551 9.599,182.142C10.108,182.724 10.632,183.286 10.632,183.286Z" style="fill:rgb(34,30,31);fill-rule:nonzero;"/>
        </g>
        <g transform="matrix(4.16667,0,0,4.16667,0,0)">
            <path d="M13.336,190.281C13.407,189.493 13.477,188.706 13.477,188.706C13.605,186.765 14.895,185.105 16.566,184.372C16.566,184.372 17.257,184.08 17.953,183.812C18.645,183.553 19.338,183.293 19.338,183.293C19.338,183.293 19.185,183.992 19.032,184.692C18.924,185.399 18.816,186.107 18.816,186.107C18.499,187.824 17.511,189.357 15.827,190.294C15.827,190.294 15.192,190.665 14.556,191.057C13.922,191.459 13.288,191.861 13.288,191.861C13.288,191.861 13.312,191.071 13.336,190.281Z" style="fill:rgb(34,30,31);fill-rule:nonzero;"/>
        </g>
        <g transform="matrix(4.16667,0,0,4.16667,0,0)">
            <path d="M9.79,190.713C10.553,191.329 11.154,192.103 11.558,192.962C11.945,193.822 12.288,194.766 12.319,195.751L12.482,198.971C12.482,198.971 11.84,198.584 11.199,198.198C10.556,197.791 9.912,197.385 9.912,197.385C9.103,196.862 8.438,196.108 7.964,195.208C7.483,194.31 7.194,193.267 7.257,192.191C7.257,192.191 7.284,191.312 7.311,190.433C7.317,189.993 7.351,189.555 7.386,189.226C7.416,188.897 7.436,188.678 7.436,188.678C7.436,188.678 8.013,189.196 8.59,189.714C9.172,190.224 9.79,190.713 9.79,190.713Z" style="fill:rgb(34,30,31);fill-rule:nonzero;"/>
        </g>
        <g transform="matrix(4.16667,0,0,4.16667,0,0)">
            <path d="M13.35,195.708C13.32,194.742 13.445,193.8 13.918,192.985C14.373,192.17 15.019,191.485 15.816,191.006C15.816,191.006 16.437,190.624 17.092,190.266C17.748,189.917 18.405,189.569 18.405,189.569C18.405,189.569 18.389,189.747 18.364,190.015C18.333,190.282 18.304,190.639 18.303,190.998C18.281,191.715 18.26,192.432 18.26,192.432C18.202,193.309 18.02,194.153 17.638,194.927C17.249,195.701 16.658,196.405 15.903,196.976C15.903,196.976 15.304,197.439 14.705,197.901C14.107,198.384 13.509,198.867 13.509,198.867L13.35,195.708Z" style="fill:rgb(34,30,31);fill-rule:nonzero;"/>
        </g>
        <g transform="matrix(4.16667,0,0,4.16667,0,0)">
            <path d="M9.945,198.28C10.35,198.536 10.716,198.837 11.044,199.174C11.405,199.507 11.727,199.876 12.005,200.273C12.56,201.066 12.935,201.97 13.084,202.945C13.084,202.945 13.189,203.745 13.344,204.535C13.545,205.316 13.745,206.096 13.745,206.096C13.745,206.096 13.029,205.806 12.313,205.515C11.593,205.204 10.873,204.894 10.873,204.894C9.159,204.075 7.925,202.22 7.607,200.082C7.607,200.082 7.574,199.864 7.526,199.537C7.507,199.208 7.483,198.769 7.458,198.33C7.413,197.451 7.367,196.573 7.367,196.573C7.367,196.573 8.012,197.009 8.657,197.446C9.301,197.863 9.945,198.28 9.945,198.28Z" style="fill:rgb(34,30,31);fill-rule:nonzero;"/>
        </g>
        <g transform="matrix(4.16667,0,0,4.16667,0,0)">
            <path d="M14.355,204.325C14.202,203.55 14.1,202.765 14.1,202.765C13.954,201.808 14.044,200.844 14.346,199.982C14.498,199.551 14.702,199.145 14.956,198.775C15.242,198.402 15.58,198.065 15.956,197.774C15.956,197.774 16.556,197.322 17.156,196.869C17.757,196.437 18.358,196.004 18.358,196.004C18.358,196.004 18.393,196.72 18.428,197.437C18.445,197.795 18.462,198.153 18.475,198.421C18.517,198.687 18.545,198.863 18.545,198.863C18.818,200.586 18.127,202.343 16.755,203.687C16.755,203.687 16.251,204.219 15.748,204.751C15.248,205.304 14.749,205.856 14.749,205.856C14.749,205.856 14.552,205.09 14.355,204.325Z" style="fill:rgb(34,30,31);fill-rule:nonzero;"/>
        </g>
        <g transform="matrix(4.16667,0,0,4.16667,0,0)">
            <path d="M11.056,205.669C12.887,206.458 14.199,208.006 14.759,209.887L15.867,212.915C15.867,212.915 15.132,212.717 14.398,212.519C13.656,212.302 12.915,212.084 12.915,212.084C11.991,211.795 11.088,211.263 10.422,210.511C9.78,209.753 9.291,208.802 9.023,207.757C9.023,207.757 8.806,206.903 8.588,206.049C8.471,205.624 8.375,205.194 8.337,204.865C8.286,204.539 8.252,204.322 8.252,204.322C8.252,204.322 8.935,204.672 9.619,205.023C10.326,205.36 11.056,205.669 11.056,205.669Z" style="fill:rgb(34,30,31);fill-rule:nonzero;"/>
        </g>
        <g transform="matrix(4.16667,0,0,4.16667,0,0)">
            <path d="M16.829,212.543L15.742,209.574C15.189,207.715 15.693,205.695 16.948,204.373C16.948,204.373 17.443,203.842 17.968,203.329C18.52,202.819 19.072,202.31 19.072,202.31C19.072,202.31 19.099,202.487 19.138,202.752C19.164,203.021 19.244,203.369 19.343,203.713C19.523,204.406 19.703,205.098 19.703,205.098C19.922,205.945 19.904,206.824 19.679,207.688C19.478,208.543 19.157,209.358 18.584,210.105C18.584,210.105 18.142,210.705 17.7,211.305C17.264,211.924 16.829,212.543 16.829,212.543Z" style="fill:rgb(34,30,31);fill-rule:nonzero;"/>
        </g>
        <g transform="matrix(4.16667,0,0,4.16667,0,0)">
            <path d="M13.209,212.931C14.142,213.205 14.986,213.688 15.678,214.328C16.366,214.969 17.05,215.705 17.46,216.601C17.46,216.601 17.81,217.327 18.159,218.053C18.334,218.416 18.51,218.779 18.641,219.052C18.769,219.326 18.888,219.49 18.888,219.49C18.888,219.49 18.112,219.418 17.379,219.296C16.63,219.173 15.881,219.051 15.881,219.051C14.933,218.885 14.028,218.45 13.242,217.805C12.455,217.162 11.767,216.319 11.429,215.293L10.217,211.982C10.217,211.982 10.969,212.229 11.72,212.476C12.465,212.703 13.209,212.931 13.209,212.931Z" style="fill:rgb(34,30,31);fill-rule:nonzero;"/>
        </g>
        <g transform="matrix(4.16667,0,0,4.16667,0,0)">
            <path d="M19.791,218.992C19.791,218.992 19.674,218.831 19.549,218.562C19.42,218.295 19.249,217.939 19.078,217.582C18.735,216.87 18.391,216.158 18.391,216.158C17.989,215.279 17.738,214.361 17.858,213.426C17.974,212.493 18.316,211.605 18.873,210.851C18.873,210.851 19.318,210.261 19.764,209.671C20.216,209.1 20.668,208.53 20.668,208.53L21.652,211.217C21.915,212.054 22.091,212.895 22.034,213.76C21.975,214.624 21.704,215.504 21.231,216.325C21.231,216.325 20.86,216.987 20.488,217.648C20.107,218.325 19.791,218.992 19.791,218.992Z" style="fill:rgb(34,30,31);fill-rule:nonzero;"/>
        </g>
        <g transform="matrix(4.16667,0,0,4.16667,0,0)">
            <path d="M16.215,219.775C17.134,219.945 18.09,220.281 18.905,220.797C19.721,221.314 20.414,222.003 20.926,222.845C20.926,222.845 21.03,223.017 21.187,223.275C21.333,223.541 21.569,223.867 21.816,224.187C22.298,224.832 22.781,225.478 22.781,225.478C22.781,225.478 22.012,225.487 21.243,225.496C20.462,225.489 19.682,225.482 19.682,225.482C17.714,225.447 15.92,224.177 14.786,222.338C14.786,222.338 14.303,221.599 13.946,220.792C13.563,219.998 13.179,219.205 13.179,219.205C13.179,219.205 13.942,219.357 14.706,219.508C15.46,219.642 16.215,219.775 16.215,219.775Z" style="fill:rgb(34,30,31);fill-rule:nonzero;"/>
        </g>
        <g transform="matrix(4.16667,0,0,4.16667,0,0)">
            <path d="M24.106,223.452C23.859,224.158 23.611,224.865 23.611,224.865C23.611,224.865 23.137,224.232 22.664,223.599C22.421,223.286 22.19,222.966 22.047,222.705C21.893,222.451 21.791,222.282 21.791,222.282C21.288,221.455 21,220.529 20.946,219.614C20.893,218.699 21.058,217.804 21.552,216.961C21.552,216.961 21.929,216.309 22.306,215.658C22.691,215.026 23.077,214.393 23.077,214.393C23.077,214.393 24.3,216.982 24.377,216.941C25.308,218.415 25.292,220.347 24.625,222.073C24.625,222.073 24.366,222.762 24.106,223.452Z" style="fill:rgb(34,30,31);fill-rule:nonzero;"/>
        </g>
        <g transform="matrix(4.16667,0,0,4.16667,0,0)">
            <path d="M20.205,226.208C21.188,226.218 22.143,226.451 22.995,226.873C23.847,227.296 24.579,227.923 25.27,228.629L27.439,231.015C27.439,231.015 26.69,231.115 25.941,231.215C25.179,231.301 24.416,231.386 24.416,231.386C23.449,231.485 22.45,231.315 21.509,230.913C20.565,230.515 19.799,229.786 19.139,228.935C19.139,228.935 18.613,228.23 18.086,227.524C17.824,227.171 17.562,226.818 17.365,226.553C17.172,226.285 17.067,226.09 17.067,226.09C17.067,226.09 17.828,226.162 18.632,226.176C19.419,226.192 20.205,226.208 20.205,226.208Z" style="fill:rgb(34,30,31);fill-rule:nonzero;"/>
        </g>
        <g transform="matrix(4.16667,0,0,4.16667,0,0)">
            <path d="M28.506,228.807C28.343,229.552 28.18,230.296 28.18,230.296L26.053,227.956C25.373,227.264 25.01,226.347 24.86,225.428C24.71,224.508 24.79,223.571 25.117,222.705C25.117,222.705 25.382,222.023 25.647,221.342C25.904,220.677 26.23,219.993 26.23,219.993C26.23,219.993 26.312,220.153 26.47,220.371C26.632,220.585 26.848,220.871 27.063,221.157C27.493,221.73 27.923,222.304 27.923,222.304C28.461,222.993 28.733,223.856 28.923,224.691C29.108,225.529 29.091,226.44 28.861,227.348C28.861,227.348 28.683,228.078 28.506,228.807Z" style="fill:rgb(34,30,31);fill-rule:nonzero;"/>
        </g>
        <g transform="matrix(4.16667,0,0,4.16667,0,0)">
            <path d="M24.942,231.985C25.912,231.87 26.841,232.023 27.759,232.309C28.694,232.58 29.558,233.048 30.287,233.711C30.287,233.711 30.884,234.253 31.48,234.795C31.769,235.078 32.096,235.314 32.339,235.494C32.581,235.675 32.742,235.796 32.742,235.796C32.742,235.796 31.997,236.014 31.252,236.232C30.87,236.344 30.506,236.428 30.23,236.491C29.953,236.555 29.768,236.597 29.768,236.597C27.919,237.011 25.748,236.376 24.206,234.865L21.835,232.263C21.835,232.263 22.618,232.201 23.402,232.139C24.172,232.062 24.942,231.985 24.942,231.985Z" style="fill:rgb(34,30,31);fill-rule:nonzero;"/>
        </g>
        <g transform="matrix(4.16667,0,0,4.16667,0,0)">
            <path d="M30.115,225.012L32.04,227.136C33.291,228.35 33.893,230.101 33.643,232.009C33.643,232.009 33.619,232.198 33.583,232.481C33.547,232.765 33.501,233.147 33.478,233.507C33.43,234.247 33.382,234.986 33.382,234.986C33.382,234.986 33.224,234.868 32.986,234.69C32.748,234.514 32.427,234.283 32.144,234.005C31.559,233.473 30.974,232.941 30.974,232.941C30.258,232.29 29.722,231.487 29.418,230.632C29.129,229.759 29.134,228.773 29.35,227.866C29.35,227.866 29.534,227.145 29.719,226.424C29.917,225.718 30.115,225.012 30.115,225.012Z" style="fill:rgb(34,30,31);fill-rule:nonzero;"/>
        </g>
        <g transform="matrix(4.16667,0,0,4.16667,0,0)">
            <path d="M29.962,237.315C30.247,237.241 30.437,237.191 30.437,237.191C32.359,236.68 34.388,237.026 35.961,238.202L38.715,239.879C38.715,239.879 38.014,240.18 37.313,240.482C36.595,240.772 35.877,241.063 35.877,241.063C34.018,241.841 31.872,241.376 30.143,240.078C30.143,240.078 29.44,239.549 28.736,239.02C28.08,238.433 27.424,237.847 27.424,237.847C27.424,237.847 28.181,237.694 28.939,237.541C29.311,237.459 29.683,237.377 29.962,237.315Z" style="fill:rgb(34,30,31);fill-rule:nonzero;"/>
        </g>
        <g transform="matrix(4.16667,0,0,4.16667,0,0)">
            <path d="M34.257,232.521C34.257,232.521 34.274,232.339 34.301,232.066C34.338,231.785 34.388,231.41 34.439,231.035C34.552,230.296 34.665,229.558 34.665,229.558C34.665,229.558 35.196,230.039 35.727,230.52C36.302,230.947 36.878,231.374 36.878,231.374C38.277,232.416 39.016,234.196 39.104,235.999C39.104,235.999 39.13,236.742 39.156,237.484C39.198,238.238 39.241,238.991 39.241,238.991L36.539,237.348C34.984,236.184 34.089,234.343 34.257,232.521Z" style="fill:rgb(34,30,31);fill-rule:nonzero;"/>
        </g>
        <g transform="matrix(4.16667,0,0,4.16667,0,0)">
            <path d="M36.55,241.489C38.378,240.746 40.352,240.969 42.159,241.753L45.064,243.152C45.064,243.152 44.416,243.53 43.767,243.907C43.1,244.276 42.434,244.645 42.434,244.645C41.584,245.104 40.601,245.325 39.582,245.309C39.074,245.297 38.551,245.241 38.047,245.102C37.557,244.938 37.074,244.715 36.613,244.436L33.605,242.604C33.605,242.604 34.349,242.331 35.094,242.058C35.822,241.774 36.55,241.489 36.55,241.489Z" style="fill:rgb(34,30,31);fill-rule:nonzero;"/>
        </g>
        <g transform="matrix(4.16667,0,0,4.16667,0,0)">
            <path d="M42.619,240.829C40.832,240.056 39.784,238.2 39.72,236.356C39.72,236.356 39.704,235.62 39.689,234.884C39.689,234.159 39.69,233.434 39.69,233.434L42.14,234.918C42.514,235.146 42.852,235.422 43.153,235.739C43.468,236.031 43.759,236.34 44.002,236.699C44.492,237.41 44.825,238.264 44.961,239.198C44.961,239.198 45.079,239.945 45.196,240.692C45.332,241.447 45.468,242.202 45.468,242.202L42.619,240.829Z" style="fill:rgb(34,30,31);fill-rule:nonzero;"/>
        </g>
        <g transform="matrix(4.16667,0,0,4.16667,0,0)">
            <path d="M43.235,245.046C43.655,244.814 44.097,244.636 44.549,244.512C45.013,244.361 45.493,244.252 45.974,244.201C46.937,244.097 47.91,244.203 48.835,244.542C48.835,244.542 49.025,244.611 49.309,244.715C49.596,244.808 49.963,244.982 50.357,245.07C51.138,245.271 51.919,245.472 51.919,245.472C51.919,245.472 51.32,245.96 50.721,246.447C50.102,246.929 49.484,247.41 49.484,247.41C47.937,248.536 45.72,248.711 43.69,247.965C43.69,247.965 43.484,247.887 43.174,247.771C42.876,247.628 42.479,247.439 42.081,247.249C41.287,246.868 40.493,246.486 40.493,246.486C40.493,246.486 41.188,246.131 41.882,245.775C42.559,245.41 43.235,245.046 43.235,245.046Z" style="fill:rgb(34,30,31);fill-rule:nonzero;"/>
        </g>
        <g transform="matrix(4.16667,0,0,4.16667,0,0)">
            <path d="M51.703,243.069C51.947,243.773 52.191,244.477 52.191,244.477C52.191,244.477 51.425,244.28 50.659,244.084C50.272,243.998 49.912,243.825 49.631,243.735C49.352,243.633 49.167,243.565 49.167,243.565C48.258,243.232 47.456,242.689 46.846,242.009C46.542,241.668 46.282,241.297 46.083,240.891C45.895,240.459 45.761,240.003 45.687,239.534C45.687,239.534 45.58,238.791 45.472,238.049C45.382,237.316 45.293,236.582 45.293,236.582C45.293,236.582 45.937,236.894 46.582,237.205C46.903,237.362 47.225,237.519 47.467,237.636C47.718,237.729 47.886,237.79 47.886,237.79C49.528,238.376 50.73,239.84 51.254,241.672C51.254,241.672 51.478,242.37 51.703,243.069Z" style="fill:rgb(34,30,31);fill-rule:nonzero;"/>
        </g>
        <g transform="matrix(4.16667,0,0,4.16667,0,0)">
            <path d="M50.251,247.624C51.824,246.395 53.809,246.006 55.73,246.403L58.917,246.89C58.917,246.89 58.39,247.439 57.863,247.987C57.316,248.532 56.769,249.077 56.769,249.077C56.071,249.752 55.173,250.275 54.19,250.515C53.217,250.712 52.148,250.681 51.104,250.412C51.104,250.412 50.251,250.191 49.398,249.97C48.972,249.859 48.543,249.755 48.237,249.628C47.926,249.516 47.719,249.441 47.719,249.441C47.719,249.441 48.355,249.01 48.992,248.58C49.621,248.102 50.251,247.624 50.251,247.624Z" style="fill:rgb(34,30,31);fill-rule:nonzero;"/>
        </g>
        <g transform="matrix(4.16667,0,0,4.16667,0,0)">
            <path d="M58.388,244.508C58.721,245.188 59.055,245.868 59.055,245.868L55.928,245.391C54.029,244.998 52.504,243.568 51.948,241.834C51.948,241.834 51.734,241.139 51.521,240.445C51.34,239.715 51.159,238.986 51.159,238.986C51.159,238.986 51.326,239.049 51.578,239.142C51.825,239.25 52.175,239.329 52.521,239.416C53.215,239.593 53.908,239.769 53.908,239.769C54.756,239.987 55.517,240.427 56.166,241.041C56.823,241.611 57.38,242.298 57.761,243.155C57.761,243.155 58.074,243.832 58.388,244.508Z" style="fill:rgb(34,30,31);fill-rule:nonzero;"/>
        </g>
        <g transform="matrix(4.16667,0,0,4.16667,0,0)">
            <path d="M57.653,249.227C58.342,248.541 59.171,248.035 60.064,247.736C60.957,247.45 61.932,247.195 62.914,247.266L66.134,247.428C66.134,247.428 65.685,248.027 65.236,248.627C64.767,249.226 64.299,249.825 64.299,249.825C63.697,250.578 62.88,251.163 61.938,251.544C60.996,251.931 59.928,252.123 58.866,251.925L55.383,251.393C55.383,251.393 55.96,250.853 56.538,250.314C57.095,249.77 57.653,249.227 57.653,249.227Z" style="fill:rgb(34,30,31);fill-rule:nonzero;"/>
        </g>
        <g transform="matrix(4.16667,0,0,4.16667,0,0)">
            <path d="M60.324,245.391C59.561,244.839 58.947,244.113 58.554,243.262C58.554,243.262 58.251,242.587 57.948,241.912C57.665,241.241 57.382,240.57 57.382,240.57L60.213,241.002C61.073,241.175 61.896,241.431 62.628,241.891C63.358,242.356 64,243.015 64.492,243.823C64.492,243.823 64.892,244.466 65.293,245.109C65.713,245.753 66.134,246.396 66.134,246.396L62.975,246.236C62.011,246.166 61.084,245.955 60.324,245.391Z" style="fill:rgb(34,30,31);fill-rule:nonzero;"/>
        </g>
        <g transform="matrix(4.16667,0,0,4.16667,0,0)">
            <path d="M33.099,153.312C32.19,154.12 30.932,154.518 29.633,154.527C29.67,153.175 30.382,152.028 31.342,151.178C32.335,150.367 33.66,149.969 34.949,150.132C34.735,151.467 34.04,152.544 33.099,153.312Z" style="fill:rgb(34,30,31);fill-rule:nonzero;"/>
        </g>
        <g transform="matrix(4.16667,0,0,4.16667,0,0)">
            <path d="M111.867,193.766C111.867,218.544 91.943,238.657 67.247,238.962C67.058,238.97 66.86,238.97 66.67,238.97C41.702,238.97 21.466,218.734 21.466,193.766C21.466,168.806 41.702,148.57 66.67,148.57C66.86,148.57 67.058,148.57 67.247,148.578C91.943,148.883 111.867,168.996 111.867,193.766Z" style="fill:rgb(34,30,31);fill-rule:nonzero;"/>
        </g>
        <g transform="matrix(4.16667,0,0,4.16667,0,0)">
            <path d="M106.192,199.849C103.266,219.047 86.681,233.752 66.667,233.752C46.653,233.752 30.068,219.047 27.142,199.849L43.117,199.849C45.812,210.334 55.341,218.083 66.667,218.083C77.993,218.083 87.522,210.334 90.217,199.849L106.192,199.849Z" style="fill:rgb(34,30,31);fill-rule:nonzero;"/>
        </g>
        <g transform="matrix(4.16667,0,0,4.16667,0,0)">
            <path d="M28.324,200.849C31.682,219.118 47.961,232.752 66.667,232.752C85.374,232.752 101.653,219.118 105.01,200.849L90.981,200.849C87.856,211.625 77.969,219.083 66.667,219.083C55.365,219.083 45.478,211.625 42.354,200.849L28.324,200.849ZM66.667,234.752C46.59,234.752 29.173,219.812 26.153,200L25.978,198.849L43.893,198.849L44.086,199.6C46.732,209.894 56.018,217.083 66.667,217.083C77.316,217.083 86.602,209.894 89.249,199.6L89.442,198.849L107.356,198.849L107.181,200C104.161,219.812 86.744,234.752 66.667,234.752Z" style="fill:white;fill-rule:nonzero;"/>
        </g>
        <g transform="matrix(4.16667,0,0,4.16667,0,0)">
            <path d="M106.192,187.691L90.217,187.691C87.522,177.206 77.993,169.457 66.667,169.457C55.341,169.457 45.812,177.206 43.117,187.691L27.142,187.691C30.068,168.493 46.645,153.788 66.667,153.788C86.689,153.788 103.266,168.493 106.192,187.691Z" style="fill:rgb(34,30,31);fill-rule:nonzero;"/>
        </g>
        <g transform="matrix(4.16667,0,0,4.16667,0,0)">
            <path d="M90.981,186.691L105.01,186.691C101.653,168.422 85.374,154.788 66.667,154.788C47.961,154.788 31.682,168.422 28.324,186.691L42.354,186.691C45.478,175.916 55.365,168.458 66.667,168.458C77.969,168.458 87.856,175.916 90.981,186.691ZM107.356,188.691L89.442,188.691L89.249,187.94C86.602,177.646 77.316,170.458 66.667,170.458C56.018,170.458 46.732,177.646 44.086,187.94L43.893,188.691L25.978,188.691L26.153,187.54C29.173,167.728 46.59,152.788 66.667,152.788C86.744,152.788 104.161,167.728 107.181,187.54L107.356,188.691Z" style="fill:white;fill-rule:nonzero;"/>
        </g>
        <g transform="matrix(4.16667,0,0,4.16667,0,0)">
            <path d="M98.406,189.562L99.541,192.43L102.619,192.622L100.242,194.587L101.01,197.574L98.406,195.921L95.803,197.574L96.571,194.587L94.195,192.622L97.272,192.43L98.406,189.562Z" style="fill:white;fill-rule:nonzero;"/>
        </g>
        <g transform="matrix(4.16667,0,0,4.16667,0,0)">
            <path d="M34.928,189.562L36.062,192.43L39.14,192.622L36.763,194.587L37.531,197.574L34.928,195.921L32.325,197.574L33.092,194.587L30.716,192.622L33.793,192.43L34.928,189.562Z" style="fill:white;fill-rule:nonzero;"/>
        </g>
        <g transform="matrix(4.16667,0,0,4.16667,0,0)">
            <path d="M79.063,206.054C79.063,206.813 78.45,207.426 77.695,207.426L56.803,207.426C56.045,207.426 55.431,206.813 55.431,206.054C55.431,205.675 55.586,205.332 55.834,205.085C56.081,204.837 56.424,204.682 56.803,204.682L77.695,204.682C78.074,204.682 78.414,204.837 78.661,205.085C78.912,205.332 79.063,205.675 79.063,206.054Z" style="fill:white;fill-rule:nonzero;"/>
        </g>
        <g transform="matrix(4.16667,0,0,4.16667,0,0)">
            <path d="M82.609,184.451L77.909,203.498L56.586,203.498L51.886,184.451L58.73,189.81C58.73,189.81 53.947,189.398 55.679,193.273C57.41,197.149 57.575,200.117 62.687,200.117C67.8,200.117 66.068,191.542 66.068,191.542C66.068,191.542 65.738,188.656 62.687,190.717L67.249,181.812L71.807,190.717C68.756,188.656 68.427,191.542 68.427,191.542C68.427,191.542 66.695,200.117 71.807,200.117C76.92,200.117 77.085,197.149 78.816,193.273C80.548,189.398 75.765,189.81 75.765,189.81L82.609,184.451Z" style="fill:white;fill-rule:nonzero;"/>
        </g>
        <g transform="matrix(4.16667,0,0,4.16667,0,0)">
            <path d="M50.558,218.284L47.512,222.764C47.475,222.818 47.461,222.879 47.471,222.946C47.481,223.013 47.513,223.064 47.567,223.102L48.215,223.542C48.27,223.579 48.33,223.59 48.396,223.574C48.461,223.56 48.512,223.524 48.55,223.47L51.596,218.989C51.633,218.935 51.647,218.874 51.637,218.808C51.627,218.74 51.595,218.688 51.54,218.651L50.893,218.211C50.838,218.174 50.778,218.163 50.712,218.179C50.647,218.194 50.595,218.229 50.558,218.284ZM52.564,217.92C53.413,218.497 53.53,219.238 52.916,220.143L50.1,224.283C49.485,225.188 48.753,225.351 47.904,224.772L47.883,224.759L47.534,225.272C47.464,225.375 47.481,225.462 47.583,225.531L47.912,225.755L47.228,226.762L46.621,226.35C46.286,226.121 46.092,225.842 46.041,225.513C45.99,225.182 46.051,224.891 46.223,224.637L46.691,223.948L46.537,223.844C45.688,223.267 45.571,222.525 46.186,221.621L49.001,217.48C49.616,216.576 50.348,216.413 51.197,216.99L52.564,217.92Z" style="fill:white;fill-rule:nonzero;"/>
        </g>
        <g transform="matrix(4.16667,0,0,4.16667,0,0)">
            <path d="M57.798,220.595L59.424,221.214L57.106,227.311C56.717,228.332 56.043,228.661 55.083,228.296L53.643,227.748C52.683,227.383 52.397,226.689 52.786,225.668L55.104,219.57L56.73,220.188L54.358,226.425C54.335,226.487 54.336,226.55 54.36,226.612C54.385,226.675 54.429,226.718 54.491,226.741L55.118,226.979C55.18,227.004 55.241,227 55.301,226.97C55.361,226.939 55.403,226.894 55.427,226.831L57.798,220.595Z" style="fill:white;fill-rule:nonzero;"/>
        </g>
        <g transform="matrix(4.16667,0,0,4.16667,0,0)">
            <path d="M62.105,225.775L63.349,225.935L63.691,223.261C63.7,223.195 63.684,223.135 63.646,223.079C63.606,223.024 63.554,222.992 63.489,222.984L62.712,222.885C62.647,222.876 62.588,222.894 62.536,222.938C62.485,222.98 62.455,223.035 62.446,223.102L62.105,225.775ZM64.07,221.868C65.088,221.999 65.528,222.606 65.39,223.69L64.562,230.161L62.837,229.94L63.179,227.266L61.934,227.106L61.592,229.781L59.867,229.561L60.694,223.09C60.833,222.006 61.412,221.528 62.431,221.659L64.07,221.868Z" style="fill:white;fill-rule:nonzero;"/>
        </g>
        <g transform="matrix(4.16667,0,0,4.16667,0,0)">
            <path d="M69.529,228.556L71.423,228.401L71.543,229.862L67.915,230.158L67.26,222.146L68.994,222.005L69.529,228.556Z" style="fill:white;fill-rule:nonzero;"/>
        </g>
        <g transform="matrix(4.16667,0,0,4.16667,0,0)">
            <path d="M73.902,221.122L75.839,228.925L74.151,229.344L72.214,221.542L73.902,221.122Z" style="fill:white;fill-rule:nonzero;"/>
        </g>
        <g transform="matrix(4.16667,0,0,4.16667,0,0)">
            <path d="M75.797,222.155L75.209,220.799L79.198,219.067L79.787,220.424L78.59,220.943L81.201,226.962L79.605,227.653L76.994,221.636L75.797,222.155Z" style="fill:white;fill-rule:nonzero;"/>
        </g>
        <g transform="matrix(4.16667,0,0,4.16667,0,0)">
            <path d="M84.054,215.776L85.591,220.943L87.283,223.338L85.862,224.342L84.17,221.947L79.813,218.773L81.152,217.827L83.869,220.015L82.715,216.723L84.054,215.776Z" style="fill:white;fill-rule:nonzero;"/>
        </g>
        <g transform="matrix(4.16667,0,0,4.16667,0,0)">
            <path d="M48.508,170.761L45.136,166.521C45.095,166.47 45.041,166.438 44.974,166.428C44.908,166.417 44.848,166.433 44.796,166.474L44.184,166.961C44.132,167.002 44.104,167.057 44.099,167.124C44.094,167.191 44.113,167.251 44.154,167.303L47.526,171.542C47.568,171.594 47.622,171.625 47.689,171.636C47.755,171.646 47.814,171.631 47.866,171.589L48.479,171.102C48.53,171.061 48.559,171.007 48.564,170.939C48.568,170.872 48.55,170.813 48.508,170.761ZM46.629,165.604L49.746,169.521C50.427,170.378 50.365,171.125 49.562,171.765L48.268,172.793C47.464,173.433 46.722,173.324 46.042,172.469L42.924,168.551C42.244,167.695 42.305,166.947 43.109,166.308L44.402,165.279C45.206,164.64 45.948,164.748 46.629,165.604Z" style="fill:white;fill-rule:nonzero;"/>
        </g>
        <g transform="matrix(4.16667,0,0,4.16667,0,0)">
            <path d="M50.857,162.801L51.874,164.917L52.703,164.52C52.762,164.491 52.802,164.444 52.821,164.38C52.841,164.315 52.836,164.253 52.808,164.193L52.007,162.524C51.978,162.465 51.932,162.422 51.87,162.397C51.807,162.372 51.746,162.374 51.687,162.402L50.857,162.801ZM52.4,166.015L53.825,168.983L52.257,169.736L48.778,162.489L51.567,161.15C52.493,160.706 53.193,160.977 53.666,161.962L54.069,162.802C54.356,163.399 54.326,163.883 53.98,164.251C54.418,164.206 54.751,164.423 54.981,164.9L56.357,167.769L54.789,168.521L53.471,165.776C53.4,165.627 53.293,165.587 53.151,165.655L52.4,166.015Z" style="fill:white;fill-rule:nonzero;"/>
        </g>
        <g transform="matrix(4.16667,0,0,4.16667,0,0)">
            <path d="M57.664,159.021L59.812,166.768L58.135,167.232L55.987,159.486L57.664,159.021Z" style="fill:white;fill-rule:nonzero;"/>
        </g>
        <g transform="matrix(4.16667,0,0,4.16667,0,0)">
            <path d="M63.734,162.896L63.611,161.621L65.899,161.4L66.184,164.344C66.289,165.432 65.83,166.025 64.808,166.124L63.25,166.274C62.228,166.374 61.664,165.879 61.558,164.791L61.076,159.807C60.971,158.719 61.429,158.125 62.452,158.026L64.01,157.875C65.032,157.776 65.596,158.271 65.701,159.359L65.774,160.114L64.129,160.273L64.036,159.309C64.03,159.242 64.002,159.187 63.952,159.142C63.901,159.097 63.843,159.077 63.777,159.084L62.998,159.159C62.932,159.166 62.879,159.195 62.838,159.25C62.798,159.304 62.781,159.363 62.787,159.43L63.309,164.821C63.315,164.888 63.343,164.942 63.394,164.987C63.443,165.033 63.502,165.052 63.568,165.046L64.347,164.971C64.413,164.964 64.466,164.934 64.507,164.88C64.547,164.826 64.565,164.767 64.558,164.7L64.377,162.833L63.734,162.896Z" style="fill:white;fill-rule:nonzero;"/>
        </g>
        <g transform="matrix(4.16667,0,0,4.16667,0,0)">
            <path d="M70.265,158.082L69.668,166.099L67.934,165.969L68.531,157.952L70.265,158.082Z" style="fill:white;fill-rule:nonzero;"/>
        </g>
        <g transform="matrix(4.16667,0,0,4.16667,0,0)">
            <path d="M76.072,167.434L74.387,167.002L76.044,160.539C76.061,160.475 76.053,160.413 76.021,160.354C75.989,160.294 75.941,160.256 75.877,160.239L75.227,160.073C75.163,160.057 75.103,160.066 75.046,160.104C74.99,160.141 74.953,160.191 74.937,160.255L73.28,166.718L71.595,166.286L73.215,159.968C73.486,158.908 74.12,158.506 75.114,158.762L76.607,159.145C77.602,159.399 77.963,160.057 77.692,161.115L76.072,167.434Z" style="fill:white;fill-rule:nonzero;"/>
        </g>
        <g transform="matrix(4.16667,0,0,4.16667,0,0)">
            <path d="M81.077,165.252L82.191,165.828L83.429,163.434C83.46,163.375 83.466,163.313 83.449,163.247C83.431,163.183 83.393,163.135 83.334,163.104L82.639,162.745C82.58,162.714 82.519,162.711 82.455,162.734C82.392,162.757 82.345,162.798 82.315,162.857L81.077,165.252ZM84.262,162.256C85.174,162.728 85.38,163.448 84.877,164.42L81.882,170.214L80.337,169.415L81.575,167.021L80.46,166.444L79.222,168.839L77.677,168.04L80.672,162.246C81.175,161.274 81.882,161.024 82.794,161.496L84.262,162.256Z" style="fill:white;fill-rule:nonzero;"/>
        </g>
        <g transform="matrix(4.16667,0,0,4.16667,0,0)">
            <path d="M85.709,171.274L87.186,172.471L86.263,173.609L83.434,171.318L88.495,165.072L89.847,166.167L85.709,171.274Z" style="fill:white;fill-rule:nonzero;"/>
        </g>
    </g>
</svg>
