<?xml version="1.0" encoding="UTF-8" standalone="no"?>
<!-- Created with Inkscape (http://www.inkscape.org/) -->

<svg
   xmlns:dc="http://purl.org/dc/elements/1.1/"
   xmlns:cc="http://creativecommons.org/ns#"
   xmlns:rdf="http://www.w3.org/1999/02/22-rdf-syntax-ns#"
   xmlns:svg="http://www.w3.org/2000/svg"
   xmlns="http://www.w3.org/2000/svg"
   xmlns:sodipodi="http://sodipodi.sourceforge.net/DTD/sodipodi-0.dtd"
   xmlns:inkscape="http://www.inkscape.org/namespaces/inkscape"
   width="1399.9999mm"
   height="1850.4576mm"
   viewBox="0 0 1399.9999 1850.4576"
   version="1.1"
   id="svg9245"
   inkscape:version="0.92.3 (2405546, 2018-03-11)"
   sodipodi:docname="9507.svg">
  <defs
     id="defs9239" />
  <sodipodi:namedview
     id="base"
     pagecolor="#ffffff"
     bordercolor="#666666"
     borderopacity="1.0"
     inkscape:pageopacity="0.0"
     inkscape:pageshadow="2"
     inkscape:zoom="0.021875"
     inkscape:cx="14189.744"
     inkscape:cy="3559.6746"
     inkscape:document-units="mm"
     inkscape:current-layer="layer1"
     showgrid="false"
     fit-margin-top="0"
     fit-margin-left="0"
     fit-margin-right="0"
     fit-margin-bottom="0"
     inkscape:window-width="1280"
     inkscape:window-height="657"
     inkscape:window-x="-8"
     inkscape:window-y="-8"
     inkscape:window-maximized="1" />
  <metadata
     id="metadata9242">
    <rdf:RDF>
      <cc:Work
         rdf:about="">
        <dc:format>image/svg+xml</dc:format>
        <dc:type
           rdf:resource="http://purl.org/dc/dcmitype/StillImage" />
        <dc:title></dc:title>
      </cc:Work>
    </rdf:RDF>
  </metadata>
  <g
     inkscape:label="Layer 1"
     inkscape:groupmode="layer"
     id="layer1"
     transform="translate(2299.5012,-1072.2313)">
    <path
       style="clip-rule:evenodd;fill:#3e3a49;fill-rule:nonzero;stroke-width:1.37650919;image-rendering:optimizeQuality;shape-rendering:geometricPrecision;text-rendering:geometricPrecision"
       inkscape:connector-curvature="0"
       id="path2829"
       d="m -1960.4947,2597.8359 c -12.3887,101.8624 20.6478,211.984 17.8947,306.9583 34.413,-27.5249 66.0729,-88.0917 72.9555,-119.7517 6.8826,50.9312 44.0486,97.7329 71.579,137.6465 35.7895,-104.61 12.3887,-214.7315 38.5426,-322.1 z"
       class="fil9" />
    <path
       style="clip-rule:evenodd;fill:#ff6648;fill-rule:nonzero;stroke-width:1.37650919;image-rendering:optimizeQuality;shape-rendering:geometricPrecision;text-rendering:geometricPrecision"
       inkscape:connector-curvature="0"
       id="path2831"
       d="m -995.56045,2622.6133 c -26.15375,-459.7573 -26.15375,-1320.0708 -26.15375,-1320.0708 -33.0365,-9.6357 -34.413,-39.9191 -24.7774,-57.8138 16.5183,-28.9069 72.95545,-15.1417 96.35635,-9.6357 -31.66,194.0838 22.0243,1245.7388 9.6356,1393.0264 -22.0243,-11.0122 -39.9191,-11.0122 -55.0608,-5.5061 z M -2143.5717,1195.174 c -57.8138,-11.0122 -108.745,-31.6599 -89.4738,-71.579 5.5061,-13.7652 38.5426,-19.2712 86.7207,-13.7652 261.5386,26.1539 1065.4203,111.4981 1065.4203,111.4981 -17.8948,27.5303 -15.1417,53.6842 -2.7639,74.332 -286.316,-44.0486 -1014.489,-90.8503 -1061.2907,-100.4859 z m 1238.85615,35.7895 v 0 c 1.3548,-9.6356 -2.7639,-15.1417 -16.5183,-20.6478 -41.2901,-17.8947 -1142.49975,-126.6397 -1226.46745,-134.8988 -64.6964,-6.8826 -121.1337,-4.1188 -137.6519,23.4008 -20.6478,31.6599 19.2713,664.8532 9.6357,806.6346 -8.2592,123.8868 -23.4009,613.9221 -13.7652,730.9262 56.4372,5.5061 112.8745,13.7652 170.6883,23.4008 239.5143,38.5425 1080.5619,177.5709 1108.0923,75.7085 4.1187,-13.7651 6.8826,-38.5425 11.01215,-71.5789 17.8947,-6.8826 46.8016,-4.1188 72.9555,11.0121 34.4075,6.8826 27.5249,-123.8867 24.7719,-309.7168 -6.8826,-498.2944 -9.6356,-1102.5808 -4.1187,-1131.4877 z"
       class="fil12" />
    <path
       style="clip-rule:evenodd;fill:#3e3a49;fill-rule:nonzero;stroke-width:1.37650919;image-rendering:optimizeQuality;shape-rendering:geometricPrecision;text-rendering:geometricPrecision"
       inkscape:connector-curvature="0"
       id="path2833"
       d="m -2120.1709,2659.7793 c -56.4373,-9.6356 -114.2511,-17.8947 -170.6884,-23.4008 -11.0121,-117.0041 -11.0121,-607.0394 -2.7638,-730.9262 8.2591,-141.7814 -15.1417,-774.9747 5.506,-806.6346 17.8948,-27.5304 74.3321,-28.9069 137.6519,-23.4008 l 1.3549,34.4129 c -48.1782,-2.7639 -81.2146,0 -86.7207,13.7652 -19.2713,39.9191 30.2834,60.5668 89.4737,71.579 1.3549,375.7843 50.9312,1256.7509 24.7774,1464.6053 z"
       class="fil9" />
    <path
       style="clip-rule:evenodd;fill:#ffffff;fill-rule:nonzero;stroke-width:1.37650919;image-rendering:optimizeQuality;shape-rendering:geometricPrecision;text-rendering:geometricPrecision"
       inkscape:connector-curvature="0"
       id="path2835"
       d="m -1899.9279,1857.2742 c 0,-16.5182 -4.1187,-28.9069 -11.0121,-37.166 -6.8826,-8.2591 -17.8948,-12.3887 -31.66,-12.3887 -13.7652,0 -24.7773,4.1187 -33.0364,13.7652 -8.2591,9.6356 -13.7652,22.0243 -15.1417,37.166 h 92.2267 z m 27.5304,8.2591 v 13.7652 h -121.1337 v 1.3548 c 0,19.2713 5.5061,33.0365 15.1417,42.6721 9.6357,9.6356 23.4009,15.1417 41.2956,15.1417 9.6356,0 17.8948,-1.3548 27.5304,-4.1187 9.6356,-2.7639 20.6478,-6.8826 31.6599,-12.3887 v 27.5304 c -11.0121,4.1187 -20.6478,8.2591 -30.2834,9.6356 -9.6356,2.7639 -19.2713,2.7639 -28.9069,2.7639 -26.1539,0 -46.8016,-8.2591 -61.9433,-23.4008 -15.1418,-16.5182 -22.0243,-38.5425 -22.0243,-66.0729 0,-27.5304 6.8825,-49.5547 22.0243,-66.0729 15.1417,-16.5182 34.4129,-24.7774 59.1903,-24.7774 22.0243,0 38.5425,6.8826 50.9312,22.0243 12.3886,15.1418 19.2712,34.413 19.2712,60.5669 z"
       class="fil0" />
    <polygon
       transform="matrix(1.3765092,0,0,1.3765092,-14011.832,-2224.0773)"
       style="clip-rule:evenodd;fill:#ffffff;fill-rule:nonzero;image-rendering:optimizeQuality;shape-rendering:geometricPrecision;text-rendering:geometricPrecision"
       id="polygon2837"
       points="8938,2926 8959,2926 8915,3050 8888,3050 8844,2926 8865,2926 8901,3030 "
       class="fil0" />
    <path
       style="clip-rule:evenodd;fill:#ffffff;fill-rule:nonzero;stroke-width:1.37650919;image-rendering:optimizeQuality;shape-rendering:geometricPrecision;text-rendering:geometricPrecision"
       inkscape:connector-curvature="0"
       id="path2839"
       d="m -1522.7671,1888.9341 c 0,-16.5182 -4.1187,-28.9069 -11.0122,-37.166 -6.8826,-8.2591 -17.8947,-12.3887 -31.6599,-12.3887 -13.7652,0 -24.7773,4.1188 -33.0365,13.7652 -8.2591,9.6357 -13.7651,22.0243 -15.1417,37.166 h 92.2268 z m 27.5304,8.2591 v 13.7652 h -121.1337 v 1.3549 c 0,19.2712 5.5061,33.0364 15.1417,42.6721 9.6356,9.6356 23.4008,15.1417 41.2956,15.1417 9.6356,0 17.8947,-1.3549 27.5304,-4.1188 9.6356,-2.7638 20.6477,-6.8826 31.6599,-12.3886 v 27.5304 c -11.0122,4.1187 -20.6478,8.2591 -30.2834,9.6356 -9.6357,2.7639 -19.2713,2.7639 -28.9069,2.7639 -26.1539,0 -46.8017,-8.2592 -61.9434,-23.4009 -15.1417,-16.5182 -22.0243,-38.5425 -22.0243,-66.0729 0,-27.5303 6.8826,-49.5547 22.0243,-66.0729 15.1417,-16.5182 34.413,-24.7773 59.1903,-24.7773 22.0243,0 38.5426,6.8826 50.9312,22.0243 12.3887,15.1417 19.2713,34.413 19.2713,60.5668 z"
       class="fil0" />
    <path
       style="clip-rule:evenodd;fill:#ffffff;fill-rule:nonzero;stroke-width:1.37650919;image-rendering:optimizeQuality;shape-rendering:geometricPrecision;text-rendering:geometricPrecision"
       inkscape:connector-curvature="0"
       id="path2841"
       d="m -1299.771,1869.6629 c -5.5061,-4.1188 -12.3887,-8.2592 -17.8948,-9.6357 -6.8826,-2.7639 -12.3887,-2.7639 -20.6478,-2.7639 -17.8947,0 -30.2834,5.5061 -39.919,16.5183 -9.6357,11.0121 -13.7652,27.5304 -13.7652,48.1781 v 85.3442 h -28.9069 v -170.6883 h 28.9069 v 33.0364 c 4.1187,-12.3887 12.3887,-22.0243 22.0243,-27.5304 9.6356,-6.8826 20.6478,-9.6356 34.413,-9.6356 6.8826,0 13.7651,1.3548 19.2712,2.7639 5.5061,1.3548 12.3887,4.1187 17.8948,8.2591 v 28.9069 z"
       class="fil0" />
    <path
       style="clip-rule:evenodd;fill:#ffffff;fill-rule:nonzero;stroke-width:1.37650919;image-rendering:optimizeQuality;shape-rendering:geometricPrecision;text-rendering:geometricPrecision"
       inkscape:connector-curvature="0"
       id="path2843"
       d="m -1156.6131,1967.3957 c -4.1187,12.3887 -11.0121,27.5304 -17.8947,46.8016 -9.6357,27.5304 -16.5183,42.6721 -20.6478,49.5547 -4.1187,8.2591 -11.0122,13.7652 -17.8948,17.8948 -6.8826,4.1187 -15.1417,5.506 -24.7773,5.506 h -22.0243 v -23.4008 h 16.5182 c 8.2591,0 15.1417,-2.7639 19.2713,-6.8826 4.1187,-4.1187 11.0121,-16.5182 17.8947,-37.166 l -66.0729,-167.9353 h 30.2834 l 50.9312,133.5223 49.5547,-133.5223 h 30.2834 z"
       class="fil0" />
    <path
       style="clip-rule:evenodd;fill:#3e3a49;fill-rule:nonzero;stroke-width:1.37650919;image-rendering:optimizeQuality;shape-rendering:geometricPrecision;text-rendering:geometricPrecision"
       inkscape:connector-curvature="0"
       id="path2845"
       d="m -1961.8712,1496.6262 c 44.0486,-20.6478 78.4615,-56.4372 78.4615,-78.4615 0,-28.9015 -17.8947,-41.2902 -37.166,-41.2902 -12.3886,0 -26.1538,2.7639 -41.2955,6.8826 0,37.1606 0,74.3266 0,111.4926 z m -66.0729,151.4171 c 4.1187,-72.9555 5.506,-147.2875 5.506,-220.243 0,-26.1539 0,-52.3023 0,-78.4562 31.66,-15.1417 68.826,-23.4008 101.8624,-23.4008 48.1782,0 92.2268,31.6599 92.2268,94.9744 0,39.919 -34.413,74.332 -74.332,100.4859 27.5304,34.4129 56.4373,72.9555 82.5911,111.498 l -42.6721,31.6599 c -26.1538,-39.919 -61.9433,-86.7207 -100.4859,-137.6519 -1.3548,41.2956 -2.7638,85.3442 -4.1187,128.0163 z"
       class="fil9" />
    <path
       style="clip-rule:evenodd;fill:#3e3a49;fill-rule:nonzero;stroke-width:1.37650919;image-rendering:optimizeQuality;shape-rendering:geometricPrecision;text-rendering:geometricPrecision"
       inkscape:connector-curvature="0"
       id="path2847"
       d="m -1608.1113,1650.7963 c -20.6478,9.6357 -48.1781,17.8948 -89.4683,17.8948 l -67.4494,-6.8826 c -1.3549,-34.413 -1.3549,-70.2025 -1.3549,-111.498 0,-52.3078 4.1188,-132.1458 6.8826,-183.0716 60.5669,-9.6357 110.1161,-11.0122 147.2821,-11.0122 v 55.0554 c -28.9069,0 -61.9433,1.3548 -92.2213,2.7638 -1.3549,24.7774 -1.3549,50.9312 -2.7639,75.7086 26.1539,-4.1187 50.9258,-5.5061 79.8327,-5.5061 l 8.2591,48.1782 c -26.1539,0 -63.3145,4.1187 -89.4683,6.8826 0,31.6599 0,53.6842 0,77.085 34.4075,-2.7639 67.444,-8.2591 92.2213,-13.7652 l 6.8826,48.1782 z"
       class="fil9" />
    <path
       style="clip-rule:evenodd;fill:#3e3a49;fill-rule:nonzero;stroke-width:1.37650919;image-rendering:optimizeQuality;shape-rendering:geometricPrecision;text-rendering:geometricPrecision"
       inkscape:connector-curvature="0"
       id="path2849"
       d="m -1486.9776,1565.4522 49.5547,-1.3549 -22.0243,-136.2753 z m 56.4373,44.0486 -66.073,2.7639 -16.5182,82.5911 -61.9433,-5.5061 79.8381,-320.7235 81.2146,6.8826 57.8138,300.0757 -64.6964,-5.506 -9.6356,-61.9434 z"
       class="fil9" />
    <path
       style="clip-rule:evenodd;fill:#3e3a49;fill-rule:nonzero;stroke-width:1.37650919;image-rendering:optimizeQuality;shape-rendering:geometricPrecision;text-rendering:geometricPrecision"
       inkscape:connector-curvature="0"
       id="path2851"
       d="m -1217.1799,1434.6829 c -6.8826,0 -12.3887,1.3548 -19.2713,4.1187 1.3549,33.0364 1.3549,66.0729 1.3549,99.1094 0,35.7894 -1.3549,70.2024 -2.7639,103.2389 2.7639,2.7639 5.5061,4.1187 8.2591,4.1187 26.1539,0 60.5668,-56.4373 60.5668,-114.2511 0,-56.4373 -23.4008,-94.9798 -48.1781,-94.9798 z m -2.7639,-53.6788 c 72.9555,0 107.3685,67.444 107.3685,139.023 0,86.7206 -44.0486,177.5709 -129.3928,177.5709 -4.1187,0 -41.2956,-4.1187 -60.5668,-6.8826 4.1187,-55.0608 6.8826,-115.6276 6.8826,-166.5588 0,-46.8016 -1.3549,-86.7207 -4.1187,-129.3928 24.7773,-8.2537 53.6842,-15.1363 78.4615,-15.1363 z"
       class="fil9" />
    <path
       style="clip-rule:evenodd;fill:#ffffff;fill-rule:nonzero;stroke-width:1.37650919;image-rendering:optimizeQuality;shape-rendering:geometricPrecision;text-rendering:geometricPrecision"
       inkscape:connector-curvature="0"
       id="path2853"
       d="m -1840.7376,2306.0139 c 0,6.8826 -6.8826,23.4009 -6.8826,27.5304 -2.7638,6.8826 -13.7652,30.2834 -16.5182,33.0365 l -30.2834,30.2834 c 0,0 -9.6356,6.8826 -13.7652,6.8826 -6.8826,2.7639 -23.4008,9.6356 -23.4008,9.6356 h -20.6478 c -2.7639,0 -13.7652,-6.8826 -13.7652,-6.8826 0,0 -2.7639,-6.8826 -2.7639,-9.6356 v -88.0972 c 0,-2.7639 2.7639,-30.2834 2.7639,-34.413 v -70.2025 c 0,-2.7638 -2.7639,-13.7652 -2.7639,-16.5182 v -30.2834 l 2.7639,-2.7639 c 2.7639,0 9.6356,-2.7639 13.7652,-2.7639 h 39.919 l 20.6478,9.6357 c 2.7639,2.7638 16.5183,9.6356 16.5183,9.6356 2.7638,0 9.6356,9.6356 13.7651,13.7652 0,0 6.8826,6.8826 6.8826,9.6356 0,2.7639 6.8826,13.7652 6.8826,13.7652 0,2.7639 6.8826,23.4008 6.8826,27.5304 0,6.8826 2.7639,33.0364 2.7639,39.919 0,2.7639 -2.7639,24.7774 -2.7639,30.2835 z m 13.7652,-108.745 c 0,-2.7638 -2.7639,-13.7651 -2.7639,-13.7651 0,-2.7639 -9.6356,-13.7652 -9.6356,-16.5183 -6.8826,-6.8826 -27.5304,-27.5249 -30.2834,-31.6545 0,0 -13.7652,-6.8826 -16.5182,-6.8826 l -13.7652,-2.7639 -2.7639,-2.7638 h -60.5668 c -6.8826,0 -30.2834,6.8826 -33.0365,6.8826 v 55.0553 c 0,2.7639 -2.7639,30.2834 -2.7639,33.0364 0,13.7652 -2.7638,57.8138 -2.7638,64.6964 v 178.9475 l 2.7638,6.8826 h 30.2835 c 0,0 6.8826,-2.7639 9.6356,-2.7639 l 6.8826,-2.7639 c 2.7639,0 20.6478,-9.6356 23.4008,-9.6356 6.8826,-2.7639 23.4008,-13.7652 27.5304,-13.7652 2.7639,-2.7639 16.5182,-9.6356 20.6478,-13.7652 2.7638,-4.1187 23.4008,-24.7773 30.2834,-30.2834 l 9.6356,-13.7652 2.7639,-2.7639 c 2.7639,-2.7638 9.6356,-16.5182 9.6356,-20.6477 2.7639,-6.8826 9.6357,-23.4009 9.6357,-27.5304 0,-4.1187 2.7638,-20.6478 2.7638,-27.5304 v -16.5182 c 0,-24.7774 -2.7638,-48.1782 -6.8826,-71.579 0,-2.7639 -2.7638,-13.7652 -2.7638,-16.5182 z"
       class="fil0" />
    <path
       style="clip-rule:evenodd;fill:#ffffff;fill-rule:nonzero;stroke-width:1.37650919;image-rendering:optimizeQuality;shape-rendering:geometricPrecision;text-rendering:geometricPrecision"
       inkscape:connector-curvature="0"
       id="path2855"
       d="m -1553.0505,2380.346 -2.7639,6.8826 h -2.7639 c -2.7639,0 -6.8826,-2.7639 -9.6356,-6.8826 h -23.4008 c -2.7639,0 -27.5304,2.7638 -30.2835,2.7638 h -27.5303 l -6.8826,-2.7638 v -20.6478 c 0,-2.7639 2.7638,-16.5183 2.7638,-20.6478 2.7639,-16.5182 13.7652,-60.5668 13.7652,-63.3199 0,-2.7639 6.8826,-13.7652 6.8826,-16.5182 0,-2.7639 9.6357,-27.5304 9.6357,-30.2834 l 2.7638,-6.8826 c 0,-2.7639 6.8826,-9.6357 6.8826,-9.6357 0,-2.7638 6.8826,-6.8825 6.8826,-6.8825 0,0 9.6357,2.7638 13.7652,6.8825 l 6.8826,6.8826 c 0,2.7639 2.7639,27.5304 2.7639,30.2835 0,2.7638 6.8826,20.6477 6.8826,27.5303 l 2.7639,9.6357 c 0,2.7638 6.8826,33.0364 6.8826,37.166 0,2.7639 9.6356,20.6478 9.6356,23.4008 0,2.7639 2.7639,13.7652 2.7639,16.5182 v 16.5183 z m 53.6842,83.9676 c 0,0 -2.7639,-16.5182 -2.7639,-23.4008 0,-2.7639 -4.1187,-23.4008 -4.1187,-27.5304 l -2.7639,-6.8826 c 0,0 -6.8826,-27.5304 -9.6356,-37.166 l -2.7639,-13.7652 -2.7638,-9.6356 c 0,0 -4.1188,-13.7652 -4.1188,-16.5182 0,-2.7639 -2.7638,-16.5183 -2.7638,-20.6478 0,-2.7639 -6.8826,-30.2834 -6.8826,-33.0365 0,-6.8826 -9.6357,-53.6842 -9.6357,-60.5668 0,-2.7639 -9.6356,-23.4008 -13.7652,-30.2834 l -2.7638,-2.7639 h -33.0365 c -2.7639,0 -20.6478,2.7639 -23.4008,2.7639 l -9.6356,2.7638 c -2.7639,13.7652 -2.7639,34.413 -9.6357,46.8017 l -2.7639,6.8826 c 0,2.7639 -2.7638,20.6478 -2.7638,23.4008 0,2.7639 -9.6357,23.4008 -9.6357,27.5304 l -2.7638,16.5182 c 0,2.7639 -6.8826,20.6478 -6.8826,23.4008 0,6.8826 -13.7598,46.8017 -13.7598,53.6843 0,2.7638 -6.8826,20.6478 -6.8826,23.4008 l -2.7639,13.7652 -2.7639,9.6356 c 0,2.7639 -6.8825,23.4008 -6.8825,27.5304 0,2.7639 -6.8826,20.6478 -6.8826,23.4008 l -2.7639,6.8826 c 0,2.7639 -6.8826,23.4008 -6.8826,27.5304 h 9.6356 c 2.7639,0 23.4008,-6.8826 27.5304,-6.8826 l 2.7639,-2.7639 2.7639,-6.8826 c 0,0 2.7638,-13.7652 2.7638,-16.5182 0,-2.7639 2.7639,-16.5182 2.7639,-20.6478 0,-2.7639 2.7639,-9.6356 2.7639,-13.7652 l 2.7639,-9.6356 c 0,-2.7639 2.7638,-13.7652 2.7638,-16.5182 9.6357,0 57.8138,-6.8826 67.4495,-9.6357 l 9.6356,-2.7638 h 27.5304 c 0,0 6.8826,2.7638 9.6356,6.8825 l 2.7639,2.7639 c 0,6.8826 6.8826,30.2834 6.8826,33.0365 2.7639,13.7652 13.7652,46.8016 13.7652,46.8016 h 37.166 v -2.7639 l -2.7639,-9.6356 c 0,-2.7639 -9.6356,-20.6478 -9.6356,-23.4008 z"
       class="fil0" />
    <path
       style="clip-rule:evenodd;fill:#ffffff;fill-rule:nonzero;stroke-width:1.37650919;image-rendering:optimizeQuality;shape-rendering:geometricPrecision;text-rendering:geometricPrecision"
       inkscape:connector-curvature="0"
       id="path2857"
       d="m -1180.0139,2222.0463 c -4.1187,0 -11.0122,-2.7639 -13.7652,-2.7639 h -6.8826 c 0,0 -2.7639,2.7639 -2.7639,6.8826 l -2.7638,13.7652 c 0,2.7639 -9.6357,20.6478 -9.6357,23.4008 0,2.7639 -9.6356,26.1539 -9.6356,30.2834 0,2.7639 -6.8826,13.7652 -6.8826,16.5183 0,2.7638 -6.8826,16.5182 -6.8826,20.6477 0,2.7639 -6.8826,23.4009 -6.8826,27.5304 l -9.6356,6.8826 h -2.7639 l -13.7652,-13.7652 c -2.7639,-6.8826 -20.6478,-46.8016 -23.4008,-53.6842 0,-2.7639 -6.8826,-20.6478 -9.6356,-27.5304 l -2.7639,-9.6356 -2.7639,-6.8826 c 0,-2.7639 -6.8826,-20.6478 -6.8826,-23.4008 0,-2.7639 -6.8826,-13.7652 -6.8826,-13.7652 h -30.2834 v 6.8826 c 2.7639,2.7638 16.5182,27.5303 20.6478,30.2834 l 2.7639,6.8826 c 0,2.7638 13.7652,19.2712 13.7652,23.4008 l 4.1187,6.8826 c 0,2.7639 9.6356,27.5304 9.6356,30.2834 0,2.7639 9.6356,13.7652 9.6356,16.5182 2.7639,2.7639 9.6357,16.5183 9.6357,20.6478 0,2.7639 6.8826,20.6478 6.8826,23.4008 0,0 6.8826,6.8826 6.8826,9.6357 l 6.8825,6.8826 v 126.6397 l 2.7639,16.5182 h 13.7652 l 6.8826,-2.7638 2.7639,-6.8826 2.7639,-2.7639 c 0,-2.7639 2.7638,-9.6356 2.7638,-13.7652 0,-6.8826 2.7639,-49.5547 2.7639,-60.5668 v -60.5669 c 0,0 2.7639,-16.5182 2.7639,-20.6478 0,-6.8825 6.8826,-27.5303 6.8826,-30.2834 l 6.8826,-13.7652 2.7639,-16.5182 c 0,-2.7639 6.8826,-13.7652 6.8826,-16.5182 2.7638,-2.7639 20.6477,-46.8017 24.7773,-49.5547 0,-2.7639 6.8826,-13.7652 6.8826,-16.5182 v -2.7639 l -6.8826,-2.7639 z"
       class="fil0" />
    <path
       style="clip-rule:evenodd;fill:#3e3a49;fill-rule:nonzero;stroke-width:1.37650919;image-rendering:optimizeQuality;shape-rendering:geometricPrecision;text-rendering:geometricPrecision"
       inkscape:connector-curvature="0"
       id="path2859"
       d="m -1853.1262,2246.8236 c 0,16.5182 -2.7639,34.413 -9.6357,50.9312 l -2.7638,6.8826 c -2.7639,2.7639 -13.7652,16.5182 -16.5183,20.6478 l -9.6356,9.6356 c -2.7639,0 -9.6356,6.8826 -13.7652,6.8826 h -6.8826 v -37.166 c 0,-4.1187 2.7639,-27.5304 2.7639,-30.2834 v -50.9312 c 0,-2.7639 -2.7639,-46.8016 -2.7639,-50.9312 v -6.8826 c 0,-2.7639 2.7639,-6.8826 2.7639,-6.8826 0,0 6.8826,2.7639 9.6356,2.7639 2.7639,0 13.7652,6.8826 13.7652,6.8826 l 9.6356,9.6356 c 2.7639,2.7639 9.6357,13.7652 9.6357,13.7652 0,2.7639 6.8826,20.6478 6.8826,23.4008 l 2.7638,6.8826 c 0,2.7639 2.7639,13.7652 2.7639,13.7652 v 9.6356 z m 13.7652,-53.6842 c 0,0 -6.8826,-9.6356 -6.8826,-13.7652 0,-2.7639 -6.8826,-9.6356 -6.8826,-9.6356 -2.7639,-2.7639 -9.6357,-13.7652 -13.7652,-13.7652 0,0 -13.7652,-6.8826 -16.5183,-9.6357 l -20.6477,-9.6302 h -39.9191 c -2.7639,0 -9.6356,2.7639 -13.7652,2.7639 l -2.7639,2.7639 v 30.278 c 0,2.7639 2.7639,13.7652 2.7639,16.5182 v 70.2025 c 0,2.7638 -2.7639,30.2834 -2.7639,34.4129 v 88.0973 c 0,2.7638 2.7639,9.6356 2.7639,9.6356 0,0 9.6357,6.8826 13.7652,6.8826 h 20.6478 c 0,0 16.5182,-6.8826 23.4008,-9.6357 2.7639,0 13.7652,-6.8825 13.7652,-6.8825 l 30.2834,-30.2835 c 2.7639,-2.7638 13.7652,-27.5303 16.5183,-33.0364 0,-2.7639 6.8825,-20.6478 6.8825,-27.5304 0,-6.8826 2.7639,-27.5304 2.7639,-30.2834 0,-6.8826 -2.7639,-33.0365 -2.7639,-39.9191 0,-2.7638 -6.8825,-23.4008 -6.8825,-27.5303 z"
       class="fil9" />
    <path
       style="clip-rule:evenodd;fill:#3e3a49;fill-rule:nonzero;stroke-width:1.37650919;image-rendering:optimizeQuality;shape-rendering:geometricPrecision;text-rendering:geometricPrecision"
       inkscape:connector-curvature="0"
       id="path2861"
       d="m -1809.0776,2286.7427 c 0,6.8826 -2.7639,23.4008 -2.7639,27.5303 0,2.7639 -6.8826,20.6478 -9.6356,27.5304 0,2.7639 -6.8826,16.5183 -9.6357,20.6478 l -2.7638,2.7639 -9.6357,13.7652 c -6.8826,6.8826 -27.5304,27.5304 -30.2834,30.2834 -2.7639,2.7639 -16.5182,9.6356 -20.6478,13.7652 -2.7639,0 -20.6478,9.6356 -27.5304,13.7652 -2.7638,0 -20.6477,9.6356 -23.4008,9.6356 l -6.8826,2.7639 c -2.7639,0 -9.6356,2.7639 -9.6356,2.7639 h -30.2834 l -2.7639,-6.8826 v -178.9475 c 0,-6.8826 2.7639,-50.9312 2.7639,-64.6964 0,-2.7639 2.7639,-30.2834 2.7639,-33.0364 v -55.0554 c 2.7638,0 27.5303,-6.8826 33.0364,-6.8826 h 60.5668 l 2.7639,2.7639 13.7652,2.7639 c 2.7639,0 16.5182,6.8826 16.5182,6.8826 2.7639,4.1187 23.4009,24.7773 30.2834,31.6545 0,2.7639 9.6357,13.7652 9.6357,16.5182 0,0 2.7639,9.6357 2.7639,13.7652 0,2.7639 2.7638,13.7652 2.7638,16.5182 2.7639,23.4009 6.8826,46.8017 6.8826,71.579 v 16.5182 z m 23.4008,-122.5102 -2.7639,-13.7652 c 0,0 -6.8826,-13.7598 -9.6356,-16.5128 0,-2.7639 -6.8826,-9.6356 -6.8826,-9.6356 0,-4.1188 -9.6356,-13.7652 -13.7652,-17.8948 l -2.7639,-2.7639 -27.5304,-23.4008 -2.7638,-2.7639 -9.6357,-2.7638 -9.6356,-6.8826 c 0,0 -16.5182,-6.8826 -20.6478,-6.8826 -2.7639,0 -13.7652,-2.7639 -13.7652,-2.7639 -2.7638,0 -27.5304,-2.7639 -30.2834,-2.7639 h -20.6478 c 0,0 -13.7652,2.7639 -16.5182,6.8826 l -6.8826,2.7639 c -2.7639,2.7639 -13.7652,9.6356 -13.7652,9.6356 l -20.6478,20.6478 v 97.7274 c 0,6.8826 -2.7638,74.3321 -2.7638,81.2146 v 176.1945 l -2.7639,9.6356 v 6.8826 l 2.7639,6.8826 2.7638,2.7639 6.8826,2.7638 h 23.4008 l 13.7652,-2.7638 c 2.7639,0 16.5183,-2.7639 20.6478,-2.7639 2.7639,0 13.7652,-6.8826 16.5182,-6.8826 6.8826,-2.7639 37.1661,-16.5182 39.9191,-20.6478 2.7639,-2.7639 27.5304,-16.5182 33.0365,-20.6478 l 2.7638,-2.7638 13.7652,-9.6357 30.2834,-30.2834 c 0,0 13.7652,-16.5182 16.5183,-20.6478 2.7638,-2.7639 9.6356,-13.7652 9.6356,-13.7652 l 4.1187,-13.7652 2.7639,-6.8826 c 0,0 2.7639,-9.6356 2.7639,-13.7651 2.7638,-9.6357 6.8826,-34.413 6.8826,-34.413 v -44.0486 c 0,-6.8826 -6.8826,-37.166 -6.8826,-44.0486 0,-2.7639 -9.6357,-23.4008 -9.6357,-27.5304 z"
       class="fil9" />
    <path
       style="clip-rule:evenodd;fill:#3e3a49;fill-rule:nonzero;stroke-width:1.37650919;image-rendering:optimizeQuality;shape-rendering:geometricPrecision;text-rendering:geometricPrecision"
       inkscape:connector-curvature="0"
       id="path2863"
       d="m -1579.2044,2323.9087 h -23.4008 v -13.7652 c 0,-2.7639 6.8826,-20.6478 6.8826,-23.4008 l 2.7639,-6.8826 2.7638,-9.6357 2.7639,2.7639 c 0,0 2.7639,9.6357 2.7639,13.7652 0,2.7639 2.7639,20.6478 2.7639,23.4008 l 2.7638,9.6357 -2.7638,2.7638 z m 20.6478,-16.5182 c 0,-2.7639 -6.8826,-33.0365 -6.8826,-37.1661 l -2.7639,-9.6356 c 0,-6.8826 -6.8826,-23.4008 -6.8826,-27.5304 0,-2.7638 -2.7638,-27.5303 -2.7638,-30.2834 l -6.8826,-6.8826 c -2.7639,-2.7639 -13.7652,-6.8826 -13.7652,-6.8826 0,0 -6.8826,2.7639 -6.8826,6.8826 0,0 -6.8826,6.8826 -6.8826,9.6357 l -2.7639,6.8825 c 0,2.7639 -9.6356,27.5304 -9.6356,30.2835 0,2.7638 -6.8826,13.7652 -6.8826,16.5182 0,2.7639 -9.6357,46.8016 -13.7652,63.3199 0,2.7638 -2.7639,16.5182 -2.7639,20.6477 v 20.6478 l 6.8826,2.7639 h 27.5304 c 2.7639,0 27.5304,-2.7639 30.2834,-2.7639 h 23.4008 c 2.7639,2.7639 6.8826,6.8826 9.6357,6.8826 h 2.7638 l 2.7639,-6.8826 v -16.5182 c 0,-2.7639 -2.7639,-13.7652 -2.7639,-16.5182 0,-2.7639 -9.6356,-20.6478 -9.6356,-23.4008 z"
       class="fil9" />
    <path
       style="clip-rule:evenodd;fill:#3e3a49;fill-rule:nonzero;stroke-width:1.37650919;image-rendering:optimizeQuality;shape-rendering:geometricPrecision;text-rendering:geometricPrecision"
       inkscape:connector-curvature="0"
       id="path2865"
       d="m -1477.342,2484.9614 h -37.166 c 0,0 -9.6356,-33.0365 -13.7652,-46.8016 0,-2.7639 -6.8826,-27.5304 -6.8826,-33.0365 l -2.7639,-2.7639 c -2.7638,-2.7639 -9.6356,-6.8826 -9.6356,-6.8826 h -27.5304 l -9.6356,2.7639 c -9.6356,2.7639 -57.8138,9.6356 -67.4494,9.6356 0,2.7639 -2.7639,13.7652 -2.7639,16.5183 l -2.7639,9.6356 c 0,2.7639 -2.7639,9.6356 -2.7639,13.7652 0,2.7639 -2.7638,16.5182 -2.7638,20.6478 0,2.7638 -2.7639,16.5182 -2.7639,16.5182 l -2.7639,6.8826 -2.7639,2.7639 c -2.7638,0 -23.3954,6.8826 -27.5249,6.8826 h -9.6357 c 0,-2.7639 6.8826,-23.4009 6.8826,-27.5304 l 2.7639,-6.8826 c 0,-2.7639 6.8826,-20.6478 6.8826,-23.4008 0,-2.7639 6.8826,-23.4009 6.8826,-27.5304 l 2.7639,-9.6356 2.7639,-13.7652 c 0,-2.7639 6.8771,-20.6478 6.8771,-23.4009 0,-6.8825 13.7652,-46.8016 13.7652,-53.6842 0,-2.7639 6.8826,-20.6478 6.8826,-23.4008 l 2.7639,-16.5182 c 0,-2.7639 9.6356,-23.4009 9.6356,-27.5304 0,-2.7639 2.7639,-20.6478 2.7639,-23.4008 l 2.7639,-6.8826 c 6.8826,-13.7652 6.8826,-33.0365 9.6356,-46.8017 l 9.6356,-2.7639 c 2.7639,0 20.6478,-2.7638 23.4009,-2.7638 h 33.0364 l 2.7639,2.7638 c 2.7639,6.8826 13.7652,27.5304 13.7652,30.2835 0,6.8826 9.6356,53.6842 9.6356,60.5668 0,2.7639 6.8826,30.2834 6.8826,33.0364 0,2.7639 2.7639,16.5183 2.7639,20.6478 0,2.7639 4.1187,16.5183 4.1187,16.5183 l 2.7639,9.6356 2.7639,13.7652 c 2.7638,9.6356 9.6356,37.166 9.6356,37.166 l 2.7639,6.8826 c 0,2.7639 4.1187,23.4008 4.1187,27.5304 0,6.8826 2.7639,23.4008 2.7639,23.4008 0,2.7639 9.6356,20.6478 9.6356,23.4008 l 2.7639,9.6356 v 2.7639 z m 23.4008,-111.498 c 0,-2.7639 -6.8826,-27.5304 -6.8826,-30.2835 l -2.7638,-9.6356 c 0,-2.7639 -2.7639,-13.7652 -2.7639,-13.7652 0,-2.7639 -2.7639,-16.5182 -2.7639,-20.6478 0,-2.7638 -2.7639,-9.6356 -2.7639,-13.7651 l -2.7638,-9.6357 c 0,-2.7639 -6.8826,-27.5304 -6.8826,-33.0364 0,-2.7639 -2.7639,-20.6478 -2.7639,-23.4009 0,0 -2.7639,-6.8826 -2.7639,-9.6356 l -2.7639,-6.8826 c 0,-2.7639 -6.8826,-30.2834 -6.8826,-34.413 0,-2.7638 -6.8826,-16.5182 -6.8826,-20.6477 l -2.7638,-13.7598 -6.8826,-6.8826 c -4.1187,0 -16.5183,-6.8826 -20.6478,-6.8826 h -13.7652 l -6.8826,-2.7639 h -2.7639 c -9.6356,0 -39.919,2.7639 -39.919,2.7639 -2.7639,0 -16.5183,9.6356 -20.6478,13.7652 -2.7639,2.7639 -20.6478,16.5128 -20.6478,20.6424 0,2.7638 -2.7639,16.5182 -2.7639,20.6477 0,2.7639 -2.7638,16.5183 -2.7638,16.5183 0,2.7638 -9.6357,27.5303 -9.6357,30.2834 0,2.7639 -2.7639,16.5182 -2.7639,20.6478 l -2.7638,9.6356 c -2.7639,6.8826 -9.6357,30.2834 -9.6357,33.0365 l -2.7638,13.7651 -2.7639,9.6357 -2.7639,16.5182 c 0,2.7639 -6.8826,13.7652 -6.8826,16.5182 0,6.8826 -13.7652,46.8017 -13.7652,53.6843 l -2.7639,9.6356 c 0,2.7639 -2.7638,13.7652 -2.7638,13.7652 0,2.7639 -2.7639,20.6478 -2.7639,23.4008 l -2.7639,6.8826 c 0,2.7639 -9.6356,33.0365 -9.6356,37.166 l -2.7639,9.6356 v 27.5304 h 23.4008 l 13.7652,-2.7639 c 2.7639,0 16.5128,-2.7638 20.6424,-2.7638 2.7639,0 16.5182,-2.7639 16.5182,-2.7639 l 6.8826,-6.8826 9.6356,-2.7639 16.5183,-16.5182 c 0,-2.7639 6.8826,-9.6356 6.8826,-13.7652 2.7638,-6.8826 9.6356,-44.0486 9.6356,-50.9312 l 2.7639,-2.7639 c 0,0 16.5182,-2.7638 20.6478,-2.7638 2.7638,0 23.4008,-2.7639 27.5303,-2.7639 h 2.7639 c 0,6.8826 6.8826,30.2834 6.8826,37.166 0,2.7639 13.7652,27.5304 13.7652,30.2834 0,2.7639 2.7639,16.5182 2.7639,20.6478 l 2.7638,2.7639 h 70.2025 c 0,-2.7639 2.7639,-13.7652 2.7639,-16.5183 l 2.7639,-9.6356 c 0,-2.7639 2.7638,-16.5182 2.7638,-20.6478 l 2.7639,-9.6356 c 0,-2.7639 2.7639,-16.5182 2.7639,-16.5182 v -16.5183 c 0,-2.7638 -6.8826,-13.7652 -6.8826,-16.5182 0,-2.7639 -6.8826,-20.6478 -6.8826,-23.4008 z"
       class="fil9" />
    <path
       style="clip-rule:evenodd;fill:#3e3a49;fill-rule:nonzero;stroke-width:1.37650919;image-rendering:optimizeQuality;shape-rendering:geometricPrecision;text-rendering:geometricPrecision"
       inkscape:connector-curvature="0"
       id="path2867"
       d="m -1164.8722,2212.4106 c 0,2.7639 -6.8826,13.7652 -6.8826,16.5183 -4.1187,2.7639 -20.6478,46.8016 -24.7773,49.5547 0,2.7638 -6.8826,13.7651 -6.8826,16.5182 l -2.7639,16.5182 -6.8826,13.7652 c 0,2.7639 -6.8826,23.4008 -6.8826,30.2834 0,2.7639 -2.7639,20.6478 -2.7639,20.6478 v 60.5668 c 0,9.6357 -2.7638,53.6843 -2.7638,60.5669 0,2.7638 -2.7639,9.6356 -2.7639,13.7652 l -2.7639,2.7638 -2.7639,6.8826 -6.8826,2.7639 h -13.7652 l -2.7638,-16.5182 v -126.6398 l -6.8826,-6.8826 c 0,-2.7638 -6.8826,-9.6356 -6.8826,-9.6356 0,-2.7639 -6.8826,-20.6478 -6.8826,-23.4008 0,-2.7639 -6.8826,-16.5182 -9.6356,-20.6478 0,-2.7639 -9.6357,-13.7652 -9.6357,-16.5182 0,-2.7639 -9.6356,-27.5304 -9.6356,-30.2834 l -4.1187,-6.8826 c 0,-2.7639 -13.7652,-19.2713 -13.7652,-23.4009 l -2.7639,-6.8826 c -2.7639,-2.7638 -16.5182,-27.5249 -20.6478,-30.2779 v -6.8826 h 30.2834 c 0,0 6.8826,9.6356 6.8826,13.7651 0,2.7639 6.8826,20.6424 6.8826,23.3954 l 2.7639,6.8826 2.7639,9.6357 c 2.7639,6.8826 9.6356,23.4008 9.6356,27.5304 2.7639,6.8825 20.6478,46.8016 23.4008,53.6842 l 13.7652,13.7652 h 2.7639 l 9.6356,-6.8826 c 0,-2.7639 6.8826,-23.4008 6.8826,-27.5304 0,-2.7639 6.8826,-16.5182 6.8826,-20.6478 0,-2.7639 6.8826,-13.7652 6.8826,-16.5182 0,-2.7639 9.6356,-27.5304 9.6356,-30.2834 0,-2.7639 9.6357,-20.6478 9.6357,-23.4008 l 2.7639,-13.7598 c 0,-2.7639 2.7638,-6.8826 2.7638,-6.8826 h 6.8826 c 2.7639,0 9.6357,2.7639 13.7652,2.7639 l 6.8826,2.7638 v 2.7639 z m 57.8138,-46.8016 -6.8826,-2.7639 c -2.7639,0 -20.6478,-6.8826 -23.4008,-6.8826 -2.7639,0 -20.6478,-2.7638 -23.4008,-2.7638 h -9.6357 l -11.0121,9.6356 c -2.7639,2.7639 -16.5182,9.6356 -20.6478,13.7652 h -2.7639 l -2.7639,2.7639 -2.7638,6.8826 -2.7639,16.5182 c 0,0 -2.7639,6.8826 -2.7639,9.6356 0,0 -6.8826,13.7652 -6.8826,16.5182 0,2.7639 -6.8826,16.5183 -6.8826,19.2713 l -9.6356,-9.6356 -2.7639,-6.8826 -2.7639,-2.7639 c 0,0 -2.7638,-2.7639 -2.7638,-6.8826 -2.7639,-2.7639 -20.6478,-46.8016 -23.4009,-50.9312 l -2.7638,-6.8826 c 0,-2.7639 -6.8826,-9.6356 -6.8826,-9.6356 l -2.7639,-2.7639 c -2.7639,0 -13.7652,-2.7639 -16.5182,-2.7639 h -37.166 l -6.8826,2.7639 c 0,0 -13.7652,9.6356 -16.5183,13.7652 l -2.7638,2.7639 c -2.7639,2.7638 -9.6357,13.7652 -9.6357,13.7652 v 13.7651 l 6.8826,6.8826 6.8826,13.7652 6.8826,9.6357 c 2.7639,6.8826 16.5182,23.4008 16.5182,26.1538 l 2.7639,6.8826 c 2.7639,2.7639 16.5182,39.9191 20.6478,44.0486 2.7639,2.7639 17.8947,37.166 20.6478,39.9191 0,2.7638 9.6356,23.4008 9.6356,27.5303 0,2.7639 9.6356,16.5183 13.7652,20.6478 v 151.4171 c 0,0 9.6356,2.7639 13.7652,2.7639 h 27.5304 c 2.7638,0 16.5182,-2.7639 20.6478,-2.7639 l 2.7638,-6.8826 20.6478,-20.6478 c 0,0 6.8826,-6.8826 6.8826,-9.6356 l 2.7639,-6.8826 c 0,-6.8826 2.7639,-46.8016 2.7639,-53.6842 v -53.6843 c 0,-6.8826 2.7638,-30.2834 2.7638,-33.0364 l 6.8826,-13.7652 c 0,-2.7639 6.8826,-13.7652 6.8826,-16.5182 2.7639,-2.7639 6.8826,-20.6478 6.8826,-20.6478 0,-2.7639 4.1187,-23.4008 4.1187,-27.5304 0,-2.7639 16.5183,-30.2834 16.5183,-33.0365 0,-2.7638 9.6356,-20.6477 9.6356,-23.4008 l 6.8826,-13.7652 c 0,-2.7638 6.8826,-20.6477 6.8826,-23.4008 l 6.8826,-9.6356 v -6.8826 l -2.7639,-2.7639 z"
       class="fil9" />
  </g>
</svg>
