<?xml version="1.0" encoding="UTF-8" standalone="no"?>
<!-- Created with Inkscape (http://www.inkscape.org/) -->

<svg
   xmlns:dc="http://purl.org/dc/elements/1.1/"
   xmlns:cc="http://creativecommons.org/ns#"
   xmlns:rdf="http://www.w3.org/1999/02/22-rdf-syntax-ns#"
   xmlns:svg="http://www.w3.org/2000/svg"
   xmlns="http://www.w3.org/2000/svg"
   xmlns:sodipodi="http://sodipodi.sourceforge.net/DTD/sodipodi-0.dtd"
   xmlns:inkscape="http://www.inkscape.org/namespaces/inkscape"
   width="1400mm"
   height="799.81604mm"
   viewBox="0 0 1400.0001 799.81588"
   version="1.1"
   id="svg9245"
   inkscape:version="0.92.3 (2405546, 2018-03-11)"
   sodipodi:docname="95024.svg">
  <defs
     id="defs9239" />
  <sodipodi:namedview
     id="base"
     pagecolor="#ffffff"
     bordercolor="#666666"
     borderopacity="1.0"
     inkscape:pageopacity="0.0"
     inkscape:pageshadow="2"
     inkscape:zoom="0.021875"
     inkscape:cx="12746.039"
     inkscape:cy="428.6276"
     inkscape:document-units="mm"
     inkscape:current-layer="layer1"
     showgrid="false"
     fit-margin-top="0"
     fit-margin-left="0"
     fit-margin-right="0"
     fit-margin-bottom="0"
     inkscape:window-width="1280"
     inkscape:window-height="657"
     inkscape:window-x="-8"
     inkscape:window-y="-8"
     inkscape:window-maximized="1" />
  <metadata
     id="metadata9242">
    <rdf:RDF>
      <cc:Work
         rdf:about="">
        <dc:format>image/svg+xml</dc:format>
        <dc:type
           rdf:resource="http://purl.org/dc/dcmitype/StillImage" />
        <dc:title></dc:title>
      </cc:Work>
    </rdf:RDF>
  </metadata>
  <g
     inkscape:label="Layer 1"
     inkscape:groupmode="layer"
     id="layer1"
     transform="translate(8459.116,21019.358)">
    <path
       style="clip-rule:evenodd;fill:#ffea71;fill-rule:nonzero;stroke-width:0.84279871;image-rendering:optimizeQuality;shape-rendering:geometricPrecision;text-rendering:geometricPrecision"
       inkscape:connector-curvature="0"
       id="path1467"
       d="m -8082.3856,-20858.396 c 124.7317,-15.993 230.9251,-127.25 53.9395,-132.294 -70.7956,-1.659 -276.44,13.472 -318.5802,78.374 -12.6421,19.378 -21.0701,25.284 -20.2273,49.706 31.1838,15.197 69.11,13.505 104.5078,16.026 -133.1632,19.378 -136.5344,96.923 4.214,99.445 68.2672,1.659 251.9986,41.31 306.7776,-0.996 61.5247,-47.217 -10.9565,-141.584 -37.9229,-182.065 l -91.8657,70.808 z"
       class="fil5" />
    <path
       style="clip-rule:evenodd;fill:#ffffff;fill-rule:nonzero;stroke-width:0.84279871;image-rendering:optimizeQuality;shape-rendering:geometricPrecision;text-rendering:geometricPrecision"
       inkscape:connector-curvature="0"
       id="path1469"
       d="m -8214.706,-20756.397 c -4.214,0 -6.7424,-2.654 -6.7424,-8.428 0,-32.02 -0.8295,-61.518 -2.5218,-88.494 -4.214,-0.996 -8.428,-0.996 -12.642,-0.996 -4.2141,0 -7.5853,0.996 -10.1137,1.659 0,9.291 0.8295,23.592 1.6922,42.141 1.6923,18.548 1.6923,32.882 1.6923,43.002 0,1.66 -0.8295,3.352 -1.6923,4.214 -0.8295,1.66 -2.5217,1.66 -4.214,1.66 -4.214,0 -7.5852,-14.302 -10.1136,-42.97 -2.5218,-38.756 -4.2141,-85.973 -4.2141,-141.585 0,-3.384 1.6923,-4.214 4.2141,-4.214 1.6922,0 3.3712,0.996 5.0568,1.659 1.6922,0.664 3.3712,1.659 4.214,2.655 -0.8295,5.906 -0.8295,12.642 -0.8295,18.548 l 1.6922,51.398 v 9.258 c 0,2.654 0,4.214 0.8296,6.769 l 24.4413,-1.66 -0.8295,-82.588 v -6.769 c 6.7424,0 10.1136,2.655 11.7992,8.428 0.8296,2.655 0.8296,10.121 0.8296,21.07 0,10.983 0.8295,35.405 2.5217,72.502 1.6923,37.063 2.5218,64.039 2.5218,82.588 0,2.654 -0.8295,4.214 -1.6922,5.906 -1.6923,1.659 -3.3712,2.655 -5.0569,2.655 z"
       class="fil0" />
    <path
       style="clip-rule:evenodd;fill:#ffffff;fill-rule:nonzero;stroke-width:0.84279871;image-rendering:optimizeQuality;shape-rendering:geometricPrecision;text-rendering:geometricPrecision"
       inkscape:connector-curvature="0"
       id="path1471"
       d="m -8164.1377,-20851.627 h -5.8996 c -2.5218,0 -4.214,0.995 -5.0568,1.659 v 77.545 c 8.428,-0.664 13.4848,-0.664 14.3276,-0.664 9.2709,0 14.3277,2.655 14.3277,6.736 v 0.995 c -0.8295,2.655 -3.3712,4.214 -5.8996,5.077 -2.5218,0.995 -5.0568,1.659 -7.5853,1.659 -2.5217,0 -5.0568,0 -8.428,0 h -7.5852 c -5.8997,0 -10.1137,-0.995 -11.7993,-3.384 -0.8295,-0.664 -0.8295,-2.655 -0.8295,-4.214 v -145.799 c 0,-2.655 -0.8296,-6.736 -1.6923,-12.642 -0.8295,-5.906 -1.6922,-10.12 -1.6922,-12.642 v -0.996 c 2.5217,-4.214 5.0568,-7.565 5.8996,-8.428 l 18.5417,-2.654 c 2.5218,0 5.0568,0.995 7.5852,2.654 2.5218,1.659 4.2141,3.385 4.2141,5.907 0,5.076 -4.2141,7.598 -11.7993,7.598 h -7.5852 c -0.8296,0 -2.5218,0 -2.5218,0 l 1.6922,41.278 c 0,3.384 0,8.428 -0.8295,14.334 0,6.736 -0.8295,10.95 -0.8295,14.334 0.8295,0 2.5217,-0.995 3.3712,-0.995 3.3712,-0.996 5.8996,-1.659 8.428,-1.659 1.6923,0 3.3712,0.995 5.0569,1.659 1.6922,1.659 2.5217,3.351 2.5217,5.043 0,1.659 -0.8295,3.385 -1.6922,5.044 -0.8295,1.659 -2.5218,2.654 -5.0568,2.654 z"
       class="fil0" />
    <path
       style="clip-rule:evenodd;fill:#ffffff;fill-rule:nonzero;stroke-width:0.84279871;image-rendering:optimizeQuality;shape-rendering:geometricPrecision;text-rendering:geometricPrecision"
       inkscape:connector-curvature="0"
       id="path1473"
       d="m -8121.1546,-20855.012 v 7.599 0.664 c 0.8295,14.334 0.8295,36.234 0.8295,65.732 v 6.735 h 19.3845 c 3.3712,2.655 5.0568,5.077 5.0568,6.769 0,2.655 -0.8295,4.214 -1.6922,5.044 -0.8296,1.659 -2.5218,2.655 -4.214,2.655 -1.6923,0 -2.5218,0 -4.2141,-0.996 -1.6922,0 -3.3712,0.996 -5.0568,0.996 h -8.428 c -1.6923,1.659 -4.2141,3.384 -6.7425,3.384 -2.5218,0 -5.0568,-0.995 -6.7424,-2.654 -1.6923,-1.66 -2.5218,-3.385 -2.5218,-5.907 l 1.6923,-10.95 c 0,-19.411 -0.8296,-47.217 -2.5218,-85.143 -1.6923,-37.926 -2.5218,-66.561 -2.5218,-85.11 0,-1.659 0.8295,-2.654 1.6922,-3.384 0.8296,-0.996 2.5218,-1.659 4.2141,-1.659 1.6922,0 3.3712,0.995 5.0568,1.659 1.6922,1.659 2.5218,3.384 2.5218,5.076 l 2.5217,90.154 z"
       class="fil0" />
    <path
       style="clip-rule:evenodd;fill:#ffffff;fill-rule:nonzero;stroke-width:0.84279871;image-rendering:optimizeQuality;shape-rendering:geometricPrecision;text-rendering:geometricPrecision"
       inkscape:connector-curvature="0"
       id="path1475"
       d="m -8068.0579,-20855.012 v 7.599 0.664 c 0.8295,14.334 0.8295,36.234 0.8295,65.732 v 6.735 h 19.3845 c 3.3712,2.655 5.0568,5.077 5.0568,6.769 0,2.655 -0.8295,4.214 -1.6922,5.044 -0.8296,1.659 -2.5218,2.655 -4.214,2.655 -1.6923,0 -2.5218,0 -4.2141,-0.996 -1.6922,0 -3.3712,0.996 -5.0568,0.996 h -8.428 c -1.6923,1.659 -4.2141,3.384 -6.7425,3.384 -2.5218,0 -5.0568,-0.995 -6.7424,-2.654 -1.6923,-1.66 -2.5218,-3.385 -2.5218,-5.907 l 1.6922,-10.95 c 0,-19.411 -0.8295,-47.217 -2.5217,-85.143 -1.6923,-37.926 -2.5218,-66.561 -2.5218,-85.11 0,-1.659 0.8295,-2.654 1.6922,-3.384 0.8296,-0.996 2.5218,-1.659 4.2141,-1.659 1.6922,0 3.3712,0.995 5.0568,1.659 1.6922,1.659 2.5218,3.384 2.5218,5.076 l 2.5217,90.154 z"
       class="fil0" />
    <path
       style="clip-rule:evenodd;fill:#ffffff;fill-rule:nonzero;stroke-width:0.84279871;image-rendering:optimizeQuality;shape-rendering:geometricPrecision;text-rendering:geometricPrecision"
       inkscape:connector-curvature="0"
       id="path1477"
       d="m -7990.5199,-20927.48 c -1.6923,-4.214 -3.3712,-7.598 -5.8996,-10.12 -2.5218,-2.654 -5.0569,-3.384 -7.5853,-3.384 -2.5218,0 -4.214,0.995 -5.8996,2.654 -1.6923,1.659 -2.5218,4.214 -4.214,7.599 -0.8296,3.384 -1.6923,6.736 -2.5218,10.12 -0.8296,3.351 -1.6923,7.565 -1.6923,12.642 -0.8295,5.044 -0.8295,9.258 -0.8295,12.642 0,3.351 -0.8295,7.565 -0.8295,12.642 0,7.566 0,13.472 0,17.686 v 0.995 c 0,10.95 0.8295,23.592 2.5217,36.234 1.6923,12.642 3.3713,23.592 5.0569,32.02 1.6922,8.428 4.214,15.164 7.5852,21.07 3.3712,5.907 6.7425,8.428 10.1137,8.428 3.3712,0 5.8996,-3.384 8.428,-9.257 2.5218,-6.769 4.214,-14.335 5.0568,-23.625 1.6923,-16.856 2.5218,-28.636 2.5218,-35.372 0,-6.769 0,-11.812 0,-14.334 0,-3.384 0,-7.598 0,-13.505 0,-5.873 -0.8295,-11.779 -0.8295,-16.856 -0.8295,-5.043 -0.8295,-10.95 -1.6923,-16.856 -0.8295,-5.873 -1.6922,-11.779 -3.3712,-16.856 -1.6922,-5.043 -2.5218,-9.258 -4.214,-13.472 z m 21.9096,91.846 -2.5218,32.02 v 0.996 c -0.8295,5.043 -1.6922,9.257 -1.6922,15.164 0,5.043 -0.8296,10.949 -2.5218,16.026 -1.6923,5.044 -5.0535,9.258 -8.4247,13.472 -4.2141,4.214 -8.4281,5.906 -12.6421,5.906 -4.214,0 -8.4281,-1.659 -12.6421,-5.077 -3.3712,-3.351 -6.7424,-6.736 -9.2708,-11.779 -2.5218,-5.077 -4.2141,-10.95 -6.7425,-17.719 -1.6922,-6.736 -3.3712,-13.472 -4.214,-19.378 -0.8295,-6.736 -1.6922,-13.471 -2.5218,-20.207 -0.8295,-10.983 -1.6922,-19.411 -1.6922,-25.284 0,-5.907 0,-10.983 0,-15.197 0,-4.214 0,-8.428 0,-11.78 0,-1.659 0,-3.384 0,-5.906 0,-1.659 0,-4.214 0,-6.736 0,-5.077 0,-9.291 0.8295,-12.642 0,-4.214 0.8295,-7.598 0.8295,-12.642 0.8296,-4.214 0.8296,-8.428 1.6923,-11.812 0.8295,-3.352 1.6922,-6.736 3.3712,-10.121 1.6923,-3.351 3.3712,-5.873 5.0568,-8.428 4.2141,-5.043 8.4281,-6.736 14.3277,-6.736 5.0568,0 10.1137,0.996 13.4849,2.655 3.3712,1.659 6.7424,5.077 9.2708,9.291 2.5218,4.214 5.0569,8.428 6.7425,12.642 1.6922,4.214 3.3679,9.257 4.2107,16.856 0.8295,6.736 1.6922,12.642 2.5218,17.685 0.8295,4.214 0.8295,10.95 1.6922,19.378 0,10.983 0.8295,20.241 0.8295,26.147 v 14.334 z"
       class="fil0" />
    <path
       style="clip-rule:evenodd;fill:#f46c8d;fill-rule:nonzero;stroke-width:0.84279871;image-rendering:optimizeQuality;shape-rendering:geometricPrecision;text-rendering:geometricPrecision"
       inkscape:connector-curvature="0"
       id="path1479"
       d="m -7469.6733,-20880.296 c 0,-3.384 -1.6922,-21.07 -0.8295,-24.454 0,-1.659 -0.8295,-6.736 -0.8295,-8.428 0,-1.659 -0.8296,-5.044 -0.8296,-5.044 h -3.3712 c -3.3712,0 -15.1705,0 -16.8561,0 l -0.8295,5.044 c 0,0 0.8295,8.428 0.8295,11.812 0,1.659 0.8296,8.428 0.8296,10.12 l 0.8295,6.736 c 0,1.659 0.8295,8.428 0.8295,10.121 0,1.659 0,16.856 0,18.548 0,1.659 0.8296,8.428 0.8296,10.087 0,1.659 0,19.411 0,21.07 0,1.659 0.8295,6.769 0.8295,8.428 l -1.6923,16.856 -3.3712,1.659 h -3.3712 l -3.3712,-3.351 -1.6923,-3.384 c 0,0 -3.3712,-5.044 -4.214,-7.599 l -1.6922,-1.659 -4.214,-7.599 -1.6923,-1.659 c -1.6922,-1.659 -7.5852,-14.334 -8.428,-15.993 l -1.6923,-1.659 -3.3712,-5.077 -1.6922,-3.351 -1.6923,-1.659 -2.5218,-6.736 c 0,-1.659 -5.8996,-10.95 -5.8996,-12.642 l -2.5218,-6.736 c 0,-1.659 -4.214,-7.598 -4.214,-9.291 l -4.214,-7.565 c -1.6923,-1.659 -5.8997,-9.291 -5.8997,-10.983 l -2.5217,-6.736 -1.6923,-1.659 -1.6922,-3.351 -1.6923,-1.659 -8.428,-0.664 c -1.6923,0 -6.7425,0.664 -6.7425,0.664 l -0.8295,5.043 c 0,1.659 0.8295,8.428 0.8295,8.428 0,3.385 0.8296,10.121 0.8296,11.813 l -0.8296,10.12 1.6923,3.352 v 1.659 c 0,1.659 0.8295,10.12 0.8295,11.812 0,3.351 -0.8295,29.498 -1.6922,32.85 0,3.384 0.8295,26.146 0.8295,29.498 -0.8295,5.077 -0.8295,27.839 -1.6922,32.882 l 0.8295,5.044 c 0,0 6.7424,2.654 10.1136,2.654 l 13.4849,0.664 v -3.384 c 0,-1.659 -0.8295,-8.428 -0.8295,-10.087 l -0.8295,-5.077 c 0,-1.659 -2.5218,-12.642 -1.6923,-15.994 0,-3.384 -4.214,-31.19 -3.3712,-34.575 0,-1.659 -3.3712,-17.685 -3.3712,-19.377 0,-1.659 -0.8296,-6.736 -0.8296,-6.736 0,-1.659 -0.8295,-8.428 -0.8295,-8.428 l 0.8295,-5.077 3.3713,-3.351 h 3.3712 l 1.6922,1.659 c 3.3712,3.351 11.7993,18.515 13.4849,20.207 5.0568,5.906 9.2709,12.642 11.7993,20.241 1.6922,1.659 5.8996,12.642 7.5852,14.334 l 3.3712,3.351 c 1.6923,1.659 5.8997,14.335 6.7425,16.027 l 4.2107,7.565 c 1.6922,1.659 7.5852,14.335 8.428,16.027 l 1.6923,1.659 4.214,9.258 c 0,1.659 3.3712,5.076 3.3712,5.076 0,1.659 3.3712,3.352 3.3712,3.352 h 16.8561 l 1.6923,-15.164 c 0,-1.659 -0.8296,-13.472 0,-15.164 l 0.8295,-11.813 c 0,-1.659 0,-16.856 0,-22.762 0,-1.659 -0.8295,-13.472 0,-15.164 l 0.8295,-5.043 c 0,-3.385 0,-21.071 0.8296,-24.455 0,-1.659 -0.8296,-13.472 0,-15.164 z"
       class="fil6" />
    <path
       style="clip-rule:evenodd;fill:#f46c8d;fill-rule:nonzero;stroke-width:0.84279871;image-rendering:optimizeQuality;shape-rendering:geometricPrecision;text-rendering:geometricPrecision"
       inkscape:connector-curvature="0"
       id="path1481"
       d="m -7639.0737,-20788.417 -3.3712,-130.634 h -10.1137 c -1.6922,0 -6.7424,1.659 -8.428,1.659 v 21.932 c 0,1.659 0.8295,15.164 0.8295,16.857 0,11.779 2.5218,49.705 2.5218,54.782 v 26.114 c 0,5.076 1.6923,29.498 1.6923,34.574 0,1.659 1.6922,11.78 1.6922,13.472 h 13.4849 c 1.6922,0 5.0568,-3.384 5.0568,-3.384 v -24.422 l -1.6922,-5.077 c 0,-1.659 -1.6923,-6.735 -1.6923,-6.735 z"
       class="fil6" />
    <path
       style="clip-rule:evenodd;fill:#f46c8d;fill-rule:nonzero;stroke-width:0.84279871;image-rendering:optimizeQuality;shape-rendering:geometricPrecision;text-rendering:geometricPrecision"
       inkscape:connector-curvature="0"
       id="path1483"
       d="m -7737.6818,-20913.178 -1.6923,1.659 c 0,0 -6.7424,19.378 -9.2708,26.147 0,1.659 -1.6923,8.428 -1.6923,10.087 0,1.659 -3.3712,10.12 -3.3712,11.812 0,1.659 -5.0568,20.241 -5.0568,21.9 0,1.659 -1.6923,6.769 -1.6923,6.769 0,1.659 -3.3712,6.736 -3.3712,8.428 0,1.659 -1.6922,11.779 -1.6922,13.471 l -1.6923,6.736 v 8.428 l -1.6922,3.385 v 5.043 l -1.6923,1.659 c 0,1.659 -1.6922,8.428 -1.6922,10.121 l -1.6923,3.351 -1.6922,1.659 h -3.3712 l -3.3712,-3.351 -1.6923,-3.385 -1.6922,-8.428 -1.6923,-5.043 c 0,-3.385 -3.3712,-16.027 -3.3712,-17.719 0,-1.659 -1.6922,-11.779 -1.6922,-13.472 0,0 -3.3713,-15.164 -5.0569,-22.762 l -1.6922,-6.736 c 0,-1.659 -1.6923,-10.12 -1.6923,-11.812 0,-1.659 -1.6922,-6.736 -1.6922,-8.428 l -1.6923,-5.044 c -1.6922,-5.077 -3.3712,-11.813 -3.3712,-16.856 v -3.385 l -1.6922,-5.043 c 0,-1.659 -1.6923,-8.428 -1.6923,-10.12 0,-1.66 -1.6922,-6.736 -1.6922,-6.736 l -1.6923,-1.659 h -8.428 c -1.6922,0 -8.428,1.659 -10.1137,1.659 0,1.659 -5.0568,13.471 -5.0568,15.164 l -1.6922,3.384 c 0,0 -1.6923,5.044 -1.6923,7.565 l -1.6922,8.428 c 0,1.66 -5.0568,13.505 -5.0568,15.164 l -1.6923,8.428 c 0,1.659 -3.3712,8.428 -3.3712,10.121 l -1.6923,3.384 c 0,1.659 -5.0568,11.78 -5.0568,13.472 0,1.659 -6.7424,15.164 -6.7424,16.856 0,0 -1.6923,5.077 -1.6923,6.736 0,1.659 -1.6922,8.428 -1.6922,10.12 l -1.6923,3.384 -1.6922,1.659 -5.0568,3.352 -1.6923,-1.659 c -1.6922,-1.659 -3.3712,-5.873 -3.3712,-5.873 v -5.077 c 0,-1.659 -5.0568,-13.472 -5.0568,-15.164 0,-1.659 -1.6923,-5.043 -1.6923,-6.736 0,-1.659 -1.6922,-10.12 -1.6922,-11.812 0,-1.659 -3.3712,-13.472 -3.3712,-15.164 0,-1.659 -3.3713,-16.856 -3.3713,-18.548 0,-1.66 -3.3712,-10.121 -3.3712,-11.78 0,-1.659 -3.3712,-12.642 -3.3712,-14.334 0,0 -3.3712,-8.428 -5.0568,-11.813 0,-1.659 -1.6923,-3.351 -1.6923,-3.351 h -1.6922 c -1.6923,0 -10.1137,3.351 -11.7993,3.351 h -8.428 v 3.385 c 0,1.659 3.3712,14.334 5.0568,17.685 l 1.6922,3.385 c 0,0 1.6923,5.043 1.6923,6.736 l 1.6922,8.428 c 0,0 3.3713,8.428 5.0569,11.812 l 1.6922,3.352 1.6923,5.076 c 0,1.659 3.3712,6.736 3.3712,8.428 l 1.6922,3.352 c 0,1.659 3.3712,11.812 3.3712,13.505 l 1.6923,3.351 c 0,1.659 3.3712,10.12 3.3712,11.812 0,1.659 3.3712,8.428 3.3712,8.428 l 1.6923,5.044 1.6922,4.214 c 0,1.659 5.0568,18.548 5.0568,21.07 0,1.659 3.3713,8.428 3.3713,10.12 l 1.6922,1.659 h 21.9129 l 1.6923,-1.659 1.6922,-3.384 1.6923,-5.044 1.6922,-3.384 c 0,-1.659 3.3712,-8.428 3.3712,-8.428 0,-1.659 5.0569,-17.686 6.7425,-22.729 l 1.6922,-6.769 c 0,-1.659 3.3712,-8.428 3.3712,-10.087 l 1.6923,-6.769 c 0,-1.66 3.3712,-8.428 3.3712,-10.088 0,0 1.6922,-6.769 1.6922,-8.428 v -1.659 c 0,-1.659 6.7425,-13.504 6.7425,-15.164 l 1.6922,-8.428 1.6923,-1.659 h 3.3712 l 1.6922,1.659 c 0,0 1.6923,3.352 1.6923,5.044 v 1.659 l 3.3712,5.044 c 0,1.659 1.6922,10.12 1.6922,11.812 l 1.6923,1.659 v 20.208 c 0,1.659 1.6922,8.428 1.6922,10.12 l 1.6923,5.043 c 0,1.66 1.6922,8.429 1.6922,10.121 l 1.6923,9.291 c 0,1.659 1.6922,8.428 1.6922,10.087 0,1.659 3.3712,8.428 3.3712,11.812 0,1.659 3.3713,8.428 3.3713,10.12 0,1.66 1.6922,3.352 1.6922,3.352 h 1.6922 c 6.7425,0 13.4849,-1.659 20.2274,-3.352 1.6922,0 8.428,-1.659 10.1136,-1.659 l 1.6923,-1.659 1.6922,-5.043 c 0,-1.659 5.0568,-11.813 5.0568,-13.505 0,-1.659 3.3713,-8.428 3.3713,-10.087 1.6922,-3.385 10.9564,-29.498 12.642,-32.883 l 1.6923,-5.043 3.3712,-6.769 1.6922,-6.736 1.6923,-3.351 c 0,-1.659 3.3712,-6.769 3.3712,-8.428 l 10.9565,-31.191 v -1.659 c 0,-1.659 1.6922,-9.258 1.6922,-10.95 v -13.505 l -1.6922,-1.659 h -21.913 z"
       class="fil6" />
    <path
       style="clip-rule:evenodd;fill:#f46c8d;fill-rule:nonzero;stroke-width:0.84279871;image-rendering:optimizeQuality;shape-rendering:geometricPrecision;text-rendering:geometricPrecision"
       inkscape:connector-curvature="0"
       id="path1485"
       d="m -7326.3965,-20770.731 -34.555,-2.655 c 0,0 -3.3712,1.659 -5.0568,1.659 l -6.7424,3.352 h -5.0568 l -3.3713,-3.352 c 0,0 -1.6922,-6.769 -0.8295,-8.428 0,-1.659 -0.8295,-16.856 -0.8295,-18.548 0,-1.659 -0.8296,-10.12 -0.8296,-11.812 l 0.8296,-16.857 1.6922,-1.659 h 5.0568 l 6.7425,-1.659 c 1.6922,0 13.4849,-0.995 15.1705,-0.995 1.6922,0 6.7424,-1.659 6.7424,-1.659 l 1.6922,-1.659 0.8296,-6.769 c 0,-1.659 -3.3712,-5.044 -5.0568,-5.044 l -23.5986,-1.659 -3.3712,-1.659 c -1.6922,-1.659 -3.3712,-3.351 -3.3712,-5.043 l -1.6923,-6.736 -1.6922,-5.077 c 0,-1.659 -1.6923,-6.736 -1.6923,-6.736 0,-1.659 -0.8295,-10.12 -0.8295,-11.779 l 0.8295,-16.856 c 1.6923,0 5.0569,-1.659 6.7425,-1.659 h 1.6922 c 3.3712,0 11.7993,-0.996 13.4849,-0.996 l 6.7424,-1.659 c 1.6923,0 16.8561,-0.995 19.3845,-0.995 l 3.3713,-1.659 v -5.044 l -1.6923,-3.384 c 0,0 -3.3712,-1.659 -5.0568,-1.659 -18.5417,0.663 -37.9262,-0.996 -56.4679,1.659 l -1.6923,20.24 c -0.8295,11.813 -2.5217,63.211 -3.3712,75.853 0,1.659 1.6923,5.043 1.6923,6.735 0,3.385 1.6922,29.499 0.8295,37.927 v 5.076 c 0,3.352 0.8295,18.516 0,22.73 l 18.5417,0.995 c 1.6922,0 8.428,-0.995 10.1137,-0.995 1.6922,0 10.1136,-2.655 11.7992,-2.655 0,0 8.4281,-0.995 10.1137,-0.995 1.6922,0 10.1136,-0.996 11.7992,-0.996 1.6923,0 6.7425,-1.659 6.7425,-1.659 l 1.6922,-1.659 0.8296,-6.736 -1.6923,-3.384 -1.6922,-1.659 z"
       class="fil6" />
    <path
       style="clip-rule:evenodd;fill:#49918a;fill-rule:nonzero;stroke-width:0.84279871;image-rendering:optimizeQuality;shape-rendering:geometricPrecision;text-rendering:geometricPrecision"
       inkscape:connector-curvature="0"
       id="path1487"
       d="m -8459.116,-20637.575 c 4.214,-54.782 11.7993,-83.417 59.8358,-97.752 -2.5218,-54.782 -7.5852,-136.541 -4.214,-220.821 -33.7122,-1.659 -41.2941,-20.241 -6.7424,-36.234 5.0568,-2.655 10.9564,-4.214 17.6989,-5.077 -0.8296,-5.873 -0.8296,-12.642 -0.8296,-18.515 12.6421,-0.995 25.2842,-3.384 37.9262,-3.384 0,6.735 -0.8295,13.471 -2.5217,20.24 14.3276,0.996 26.9697,4.214 34.5549,9.258 -5.0568,12.642 -15.1704,22.762 -26.1269,27.806 9.2709,90.186 13.4849,166.039 13.4849,225.035 112.9358,7.599 52.2539,14.334 75.0096,469.449 0.8295,21.07 -15.1705,41.277 -36.2406,42.97 -32.0266,2.654 -63.2104,3.384 -95.2369,4.214 -21.0702,0.663 -40.4547,-16.027 -42.1403,-37.097 -3.3712,-49.706 -24.438,-369.971 -23.5952,-379.229 z"
       class="fil8" />
    <path
       style="clip-rule:evenodd;fill:#49918a;fill-rule:nonzero;stroke-width:0.84279871;image-rendering:optimizeQuality;shape-rendering:geometricPrecision;text-rendering:geometricPrecision"
       inkscape:connector-curvature="0"
       id="path1489"
       d="m -7253.9153,-20598.786 c 5.8997,54.749 14.3277,83.418 63.2104,95.231 -0.8295,54.782 -3.3712,136.507 2.5218,220.788 -33.7122,2.654 -41.2975,21.07 -5.8997,36.267 5.0569,1.659 10.9565,3.351 17.6989,4.214 0,5.873 -0.8295,12.642 -0.8295,18.515 12.6421,0.996 25.2841,2.655 37.9262,2.655 0,-6.769 -1.6922,-13.505 -3.3712,-20.241 13.4849,-1.659 26.9697,-5.043 34.555,-10.12 -5.8996,-12.642 -16.0133,-22.763 -26.9698,-26.977 6.7425,-91.016 8.4281,-166.868 6.7425,-225.002 112.9325,-10.983 51.4111,-16.026 60.6819,-471.141 0.8295,-21.07 -16.0133,-40.448 -37.9262,-42.14 -32.0266,-1.659 -64.0532,-1.659 -95.2369,-1.659 -21.0701,0 -40.4547,17.719 -41.2975,38.789 -2.5217,49.705 -13.4848,370.834 -11.7992,380.091 z"
       class="fil8" />
    <path
       style="clip-rule:evenodd;fill:#414f49;fill-rule:nonzero;stroke-width:0.84279871;image-rendering:optimizeQuality;shape-rendering:geometricPrecision;text-rendering:geometricPrecision"
       inkscape:connector-curvature="0"
       id="path1491"
       d="m -8229.0336,-20756.397 c -4.2141,0 -6.7425,-2.654 -6.7425,-8.428 0,-32.02 -0.8295,-61.518 -2.5218,-88.494 -4.214,-0.996 -8.428,-0.996 -12.642,-0.996 -4.214,0 -7.5853,0.996 -10.1137,1.659 0,9.291 0.8296,23.592 1.6923,42.141 1.6922,18.548 1.6922,32.882 1.6922,43.002 0,1.66 -0.8295,3.352 -1.6922,4.214 -0.8296,1.66 -2.5218,1.66 -4.2141,1.66 -4.214,0 -7.5852,-14.302 -10.1136,-42.97 -2.5218,-38.756 -4.214,-85.973 -4.214,-141.585 0,-3.384 1.6922,-4.214 4.214,-4.214 1.6922,0 3.3712,0.996 5.0568,1.659 1.6923,0.664 3.3712,1.659 4.214,2.655 -0.8295,5.906 -0.8295,12.642 -0.8295,18.548 l 1.6922,51.398 v 9.258 c 0,2.654 0,4.214 0.8296,6.769 l 24.4413,-1.66 -0.8295,-82.588 v -6.769 c 6.7424,0 10.1136,2.655 11.7993,8.428 0.8295,2.655 0.8295,10.121 0.8295,21.07 0,10.983 0.8295,35.405 2.5218,72.502 1.6922,37.063 2.5217,64.039 2.5217,82.588 0,2.654 -0.8295,4.214 -1.6922,5.906 -1.6923,1.659 -3.3712,2.655 -5.0568,2.655 z"
       class="fil7" />
    <path
       style="clip-rule:evenodd;fill:#414f49;fill-rule:nonzero;stroke-width:0.84279871;image-rendering:optimizeQuality;shape-rendering:geometricPrecision;text-rendering:geometricPrecision"
       inkscape:connector-curvature="0"
       id="path1493"
       d="m -8178.4654,-20851.627 h -5.8996 c -2.5218,0 -4.214,0.995 -5.0568,1.659 v 77.545 c 8.428,-0.664 13.4849,-0.664 14.3277,-0.664 9.2708,0 14.3276,2.655 14.3276,6.736 v 0.995 c -0.8295,2.655 -3.3712,4.214 -5.8996,5.077 -2.5218,0.995 -5.0568,1.659 -7.5852,1.659 -2.5218,0 -5.0569,0 -8.4281,0 h -7.5852 c -5.8997,0 -10.1137,-0.995 -11.7993,-3.384 -0.8295,-0.664 -0.8295,-2.655 -0.8295,-4.214 v -145.799 c 0,-2.655 -0.8296,-6.736 -1.6923,-12.642 -0.8295,-5.906 -1.6922,-10.12 -1.6922,-12.642 v -0.996 c 2.5218,-4.214 5.0568,-7.565 5.8996,-8.428 l 18.5417,-2.654 c 2.5218,0 5.0569,0.995 7.5853,2.654 2.5217,1.659 4.214,3.385 4.214,5.907 0,5.076 -4.214,7.598 -11.7993,7.598 h -7.5852 c -0.8296,0 -2.5218,0 -2.5218,0 l 1.6922,41.278 c 0,3.384 0,8.428 -0.8295,14.334 0,6.736 -0.8295,10.95 -0.8295,14.334 0.8295,0 2.5218,-0.995 3.3712,-0.995 3.3712,-0.996 5.8996,-1.659 8.428,-1.659 1.6923,0 3.3713,0.995 5.0569,1.659 1.6922,1.659 2.5218,3.351 2.5218,5.043 0,1.659 -0.8296,3.385 -1.6923,5.044 -0.8295,1.659 -2.5218,2.654 -5.0568,2.654 z"
       class="fil7" />
    <path
       style="clip-rule:evenodd;fill:#414f49;fill-rule:nonzero;stroke-width:0.84279871;image-rendering:optimizeQuality;shape-rendering:geometricPrecision;text-rendering:geometricPrecision"
       inkscape:connector-curvature="0"
       id="path1495"
       d="m -8134.6395,-20855.012 v 7.599 0.664 c 0.8295,14.334 0.8295,36.234 0.8295,65.732 v 6.735 h 19.3845 c 3.3712,2.655 5.0569,5.077 5.0569,6.769 0,2.655 -0.8296,4.214 -1.6923,5.044 -0.8295,1.659 -2.5218,2.655 -4.214,2.655 -1.6923,0 -2.5218,0 -4.214,-0.996 -1.6923,0 -3.3713,0.996 -5.0569,0.996 h -8.428 c -1.6923,1.659 -4.214,3.384 -6.7425,3.384 -2.5217,0 -5.0568,-0.995 -6.7424,-2.654 -1.6922,-1.66 -2.5218,-3.385 -2.5218,-5.907 l 1.6923,-10.95 c 0,-19.411 -0.8296,-47.217 -2.5218,-85.143 -1.6922,-37.926 -2.5218,-66.561 -2.5218,-85.11 0,-1.659 0.8296,-2.654 1.6923,-3.384 0.8295,-0.996 2.5217,-1.659 4.214,-1.659 1.6922,0 3.3712,0.995 5.0568,1.659 1.6923,1.659 2.5218,3.384 2.5218,5.076 l 2.5218,90.154 z"
       class="fil7" />
    <path
       style="clip-rule:evenodd;fill:#414f49;fill-rule:nonzero;stroke-width:0.84279871;image-rendering:optimizeQuality;shape-rendering:geometricPrecision;text-rendering:geometricPrecision"
       inkscape:connector-curvature="0"
       id="path1497"
       d="m -8082.3856,-20855.012 v 7.599 0.664 c 0.8295,14.334 0.8295,36.234 0.8295,65.732 v 6.735 h 19.3845 c 3.3712,2.655 5.0568,5.077 5.0568,6.769 0,2.655 -0.8295,4.214 -1.6922,5.044 -0.8295,1.659 -2.5218,2.655 -4.214,2.655 -1.6923,0 -2.5218,0 -4.214,-0.996 -1.6923,0 -3.3713,0.996 -5.0569,0.996 h -8.428 c -1.6923,1.659 -4.214,3.384 -6.7425,3.384 -2.5217,0 -5.0568,-0.995 -6.7424,-2.654 -1.6922,-1.66 -2.5218,-3.385 -2.5218,-5.907 l 1.6923,-10.95 c 0,-19.411 -0.8296,-47.217 -2.5218,-85.143 -1.6923,-37.926 -2.5218,-66.561 -2.5218,-85.11 0,-1.659 0.8295,-2.654 1.6923,-3.384 0.8295,-0.996 2.5217,-1.659 4.214,-1.659 1.6922,0 3.3712,0.995 5.0568,1.659 1.6923,1.659 2.5218,3.384 2.5218,5.076 l 2.5218,90.154 z"
       class="fil7" />
    <path
       style="clip-rule:evenodd;fill:#414f49;fill-rule:nonzero;stroke-width:0.84279871;image-rendering:optimizeQuality;shape-rendering:geometricPrecision;text-rendering:geometricPrecision"
       inkscape:connector-curvature="0"
       id="path1499"
       d="m -8004.0048,-20927.48 c -1.6922,-4.214 -3.3712,-7.598 -5.8996,-10.12 -2.5218,-2.654 -5.0569,-3.384 -7.5853,-3.384 -2.5217,0 -4.214,0.995 -5.8996,2.654 -1.6922,1.659 -2.5218,4.214 -4.214,7.599 -0.8296,3.384 -1.6923,6.736 -2.5218,10.12 -0.8295,3.351 -1.6922,7.565 -1.6922,12.642 -0.8296,5.044 -0.8296,9.258 -0.8296,12.642 0,3.351 -0.8295,7.565 -0.8295,12.642 0,7.566 0,13.472 0,17.686 v 0.995 c 0,10.95 0.8295,23.592 2.5218,36.234 1.6922,12.642 3.3712,23.592 5.0568,32.02 1.6922,8.428 4.214,15.164 7.5852,21.07 3.3713,5.907 6.7425,8.428 10.1137,8.428 3.3712,0 5.8996,-3.384 8.428,-9.257 2.5218,-6.769 4.2141,-14.335 5.0569,-23.625 1.6922,-16.856 2.5217,-28.636 2.5217,-35.372 0,-6.769 0,-11.812 0,-14.334 0,-3.384 0,-7.598 0,-13.505 0,-5.873 -0.8295,-11.779 -0.8295,-16.856 -0.8295,-5.043 -0.8295,-10.95 -1.6922,-16.856 -0.8296,-5.873 -1.6923,-11.779 -3.3712,-16.856 -1.6923,-5.043 -2.5218,-9.258 -4.2141,-13.472 z m 21.9129,91.846 -2.5217,32.02 v 0.996 c -0.8296,5.043 -1.6923,9.257 -1.6923,15.164 0,5.043 -0.8295,10.949 -2.5218,16.026 -1.6922,5.044 -5.0568,9.258 -8.428,13.472 -4.214,4.214 -8.4281,5.906 -12.6421,5.906 -4.214,0 -8.428,-1.659 -12.6421,-5.077 -3.3712,-3.351 -6.7424,-6.736 -9.2708,-11.779 -2.5218,-5.077 -4.214,-10.95 -6.7424,-17.719 -1.6923,-6.736 -3.3713,-13.472 -4.2141,-19.378 -0.8295,-6.736 -1.6922,-13.471 -2.5217,-20.207 -0.8296,-10.983 -1.6923,-19.411 -1.6923,-25.284 0,-5.907 0,-10.983 0,-15.197 0,-4.214 0,-8.428 0,-11.78 0,-1.659 0,-3.384 0,-5.906 0,-1.659 0,-4.214 0,-6.736 0,-5.077 0,-9.291 0.8295,-12.642 0,-4.214 0.8296,-7.598 0.8296,-12.642 0.8295,-4.214 0.8295,-8.428 1.6922,-11.812 0.8295,-3.352 1.6923,-6.736 3.3712,-10.121 1.6923,-3.351 3.3713,-5.873 5.0569,-8.428 4.214,-5.043 8.428,-6.736 14.3276,-6.736 5.0569,0 10.1137,0.996 13.4849,2.655 3.3712,1.659 6.7425,5.077 9.2709,9.291 2.5217,4.214 5.0568,8.428 6.7424,12.642 1.6923,4.214 3.3712,9.257 4.214,16.856 0.8296,6.736 1.6923,12.642 2.5218,17.685 0.8295,4.214 0.8295,10.95 1.6923,19.378 0,10.983 0.8295,20.241 0.8295,26.147 v 14.334 z"
       class="fil7" />
    <path
       style="clip-rule:evenodd;fill:#f46c8d;fill-rule:nonzero;stroke-width:0.84279871;image-rendering:optimizeQuality;shape-rendering:geometricPrecision;text-rendering:geometricPrecision"
       inkscape:connector-curvature="0"
       id="path1501"
       d="m -7527.8235,-20819.607 c -1.6922,0 -1.6922,3.351 0,3.351 1.6923,0 1.6923,-3.351 0,-3.351 z"
       class="fil6" />
    <path
       style="clip-rule:evenodd;fill:#414f49;fill-rule:nonzero;stroke-width:0.84279871;image-rendering:optimizeQuality;shape-rendering:geometricPrecision;text-rendering:geometricPrecision"
       inkscape:connector-curvature="0"
       id="path1503"
       d="m -7709.0265,-20907.272 c 0,1.659 -1.6922,9.291 -1.6922,10.95 v 1.659 l -10.9565,31.19 c 0,1.659 -3.3712,6.736 -3.3712,8.428 l -1.6922,3.385 -1.6923,6.736 -3.3712,6.735 -1.6923,5.044 c -1.6922,3.384 -10.9564,28.669 -12.642,32.883 0,1.659 -3.3712,8.428 -3.3712,10.12 0,1.659 -5.0569,11.779 -5.0569,13.471 l -1.6922,5.077 -1.6923,1.659 c -1.6922,0 -8.428,1.659 -10.1136,1.659 -6.7425,1.659 -13.4849,3.385 -20.2273,3.385 h -1.6923 c 0,0 -1.6922,-1.659 -1.6922,-3.385 0,-1.659 -3.3712,-8.428 -3.3712,-10.12 0,-3.351 -3.3713,-10.087 -3.3713,-11.779 0,-1.659 -1.6922,-8.428 -1.6922,-10.121 l -1.6922,-9.257 c 0,-1.659 -1.6923,-8.428 -1.6923,-10.121 l -1.6922,-5.076 c 0,-1.659 -1.6923,-8.428 -1.6923,-10.087 v -20.241 l -1.6922,-1.659 c 0,-1.659 -1.6923,-10.12 -1.6923,-11.779 l -3.3712,-5.077 v -1.659 c 0,-1.659 -1.6922,-5.044 -1.6922,-5.044 l -1.6923,-1.659 h -3.3712 l -1.6922,1.659 -1.6923,8.428 c 0,1.659 -6.7424,13.472 -6.7424,15.164 v 1.659 c 0,1.659 -1.6923,8.428 -1.6923,8.428 0,1.659 -3.3712,8.428 -3.3712,10.121 l -1.6922,6.735 c 0,1.659 -3.3713,8.428 -3.3713,10.121 l -1.6922,6.735 c -1.6923,5.044 -6.7424,21.071 -6.7424,22.763 0,0 -3.3713,6.736 -3.3713,8.428 l -1.6922,3.351 -1.6923,5.077 -1.6922,3.351 -1.6922,1.659 h -21.913 l -1.6922,-1.659 c 0,-1.659 -3.3712,-8.428 -3.3712,-10.087 0,-1.659 -5.0569,-18.548 -5.0569,-21.07 l -1.6922,-4.214 -1.6923,-5.077 c 0,0 -3.3712,-6.736 -3.3712,-8.428 0,-1.659 -3.3712,-10.12 -3.3712,-11.779 l -1.6922,-3.385 c 0,-1.659 -3.3713,-11.812 -3.3713,-13.471 l -1.6922,-3.385 c 0,-1.659 -3.3712,-6.736 -3.3712,-8.428 l -1.6923,-5.043 -1.6922,-3.385 c -1.6923,-3.384 -5.0568,-11.812 -5.0568,-11.812 l -1.6923,-8.428 c 0,-1.659 -1.6922,-6.736 -1.6922,-6.736 l -1.6923,-3.352 c -1.6922,-3.384 -5.0568,-16.026 -5.0568,-17.718 v -3.352 h 8.428 c 1.6923,0 10.1137,-3.384 11.7993,-3.384 h 1.6923 c 0,0 1.6922,1.659 1.6922,3.384 1.6922,3.352 5.0568,11.78 5.0568,11.78 0,1.659 3.3712,12.642 3.3712,14.334 0,1.659 3.3713,10.12 3.3713,11.813 0,1.659 3.3712,16.856 3.3712,18.515 0,1.659 3.3712,13.505 3.3712,15.197 0,1.659 1.6923,10.087 1.6923,11.779 0,1.659 1.6922,5.077 1.6922,6.736 0,1.659 5.0568,13.505 5.0568,15.197 v 5.043 c 0,0 1.6923,3.385 3.3712,5.907 l 1.6923,1.659 5.0568,-3.385 1.6923,-1.659 1.6922,-3.351 c 0,-1.659 1.6923,-8.428 1.6923,-10.12 0,-1.659 1.6922,-6.736 1.6922,-6.736 0,-1.659 6.7424,-15.197 6.7424,-16.856 0,-1.659 5.0569,-11.813 5.0569,-13.505 l 1.6922,-3.351 c 0,-1.659 3.3712,-8.428 3.3712,-10.121 l 1.6923,-8.428 c 0,-1.659 5.0568,-13.504 5.0568,-15.164 l 1.6922,-8.428 c 0,-1.659 1.6923,-7.598 1.6923,-7.598 l 1.6922,-3.385 c 0,-1.659 5.0569,-13.471 5.0569,-15.163 1.6922,0 8.428,-1.659 10.1136,-1.659 h 8.4281 l 1.6922,1.659 c 0,0 1.6923,5.076 1.6923,6.735 0,1.659 1.6922,8.428 1.6922,10.121 l 1.6923,5.076 v 3.352 c 0,5.076 1.6922,11.812 3.3712,16.856 l 1.6922,5.077 c 0,1.659 1.6923,6.735 1.6923,8.428 0,1.659 1.6922,10.087 1.6922,11.779 l 1.6923,6.736 c 1.6922,6.769 5.0568,22.762 5.0568,22.762 0,1.659 1.6922,11.813 1.6922,13.505 0,1.659 3.3712,13.472 3.3712,17.686 l 1.6923,5.043 1.6922,8.428 1.6923,3.385 3.3712,3.384 h 3.3712 l 1.6923,-1.659 1.6922,-3.384 c 0,-1.659 1.6923,-8.428 1.6923,-10.121 l 1.6922,-1.659 v -5.077 l 1.6922,-3.351 v -8.428 l 1.6923,-6.769 c 0,-1.659 1.6922,-11.779 1.6922,-13.471 0,-1.66 3.3713,-6.736 3.3713,-8.429 0,0 1.6922,-5.043 1.6922,-6.735 0,-1.659 5.0568,-20.241 5.0568,-21.933 0,-1.659 3.3713,-10.087 3.3713,-11.779 0,-1.66 1.6922,-8.429 1.6922,-10.121 1.6922,-6.736 9.2708,-26.113 9.2708,-26.113 l 1.6923,-1.66 h 21.9129 l 1.6923,1.66 v 13.471 z m 21.0701,-37.926 h -6.7424 c -1.6922,0 -15.1705,-3.352 -16.8561,-3.352 h -5.0568 c -1.6923,0 -8.4281,3.352 -10.1137,3.352 0,0 -5.0568,3.384 -6.7424,3.384 -1.6923,0 -5.0568,3.351 -5.0568,3.351 -1.6923,0 -3.3713,3.385 -3.3713,3.385 l -1.6922,8.428 c 0,0 -1.6922,3.385 -1.6922,5.044 0,1.659 -5.0569,11.812 -5.0569,13.504 0,1.659 -1.6922,9.258 -1.6922,10.95 0,1.659 -3.3712,16.856 -5.0568,20.241 l -1.6923,5.043 -1.6922,8.428 c 0,1.659 -3.3713,8.428 -3.3713,10.121 l -1.6922,3.351 -1.6922,-5.044 c 0,-1.659 -3.3713,-22.762 -3.3713,-24.454 l -1.6922,-5.044 c 0,-1.659 -1.6923,-10.12 -1.6923,-11.812 0,-1.659 -3.3712,-12.642 -3.3712,-14.301 0,-1.659 -3.3712,-13.505 -3.3712,-16.857 0,-1.659 -1.6922,-8.428 -1.6922,-10.12 0,-1.659 -1.6923,-6.736 -1.6923,-6.736 l -5.0568,-10.12 c 0,0 -6.7425,-1.659 -8.4281,-1.659 h -15.1704 c 0,0 -6.7425,1.659 -8.4281,3.385 -3.3712,1.659 -8.428,3.351 -11.7993,6.735 l -3.3712,3.352 c 0,0 -1.6922,5.076 -1.6922,6.769 0,1.659 -1.6923,8.428 -1.6923,10.087 0,1.659 -5.0568,13.505 -5.0568,15.197 l -1.6922,7.565 c 0,1.659 -5.0569,13.505 -5.0569,15.164 l -1.6922,6.769 c 0,0 -1.6923,3.351 -1.6923,5.043 -1.6922,3.385 -5.0568,13.472 -5.0568,13.472 l -1.6922,1.659 c -1.6923,-3.351 -3.3713,-6.736 -3.3713,-10.12 0,-3.351 -3.3712,-13.472 -3.3712,-15.164 0,-1.659 -1.6922,-8.428 -1.6922,-10.12 0,-1.659 -3.3712,-8.428 -3.3712,-10.95 0,-1.659 -3.3713,-10.12 -3.3713,-11.779 0,-1.66 -5.0568,-8.429 -5.0568,-10.121 l -1.6922,-5.076 c 0,-1.66 -5.0569,-8.429 -5.0569,-10.088 l -1.6922,-1.659 -3.3712,-1.659 h -29.4982 c 0,0 -1.6922,1.659 -3.3712,1.659 -1.6922,0 -6.7424,5.044 -8.428,5.044 l -6.7425,3.384 -1.6922,1.659 v 8.428 c 0,1.66 3.3712,8.429 3.3712,10.088 1.6922,5.076 10.1136,48.909 11.7993,53.952 0,1.659 1.6922,6.736 1.6922,6.736 l 3.3712,3.385 1.6923,5.043 1.6922,3.385 1.6923,5.043 c 0,1.659 8.428,19.378 8.428,21.07 0,0 3.3712,8.428 3.3712,10.121 0,1.659 5.0568,16.026 5.0568,17.685 0,1.659 6.7425,19.411 6.7425,21.07 0,1.659 1.6922,6.769 1.6922,8.428 v 3.385 l 3.3712,3.384 3.3713,1.66 h 5.0568 l 3.3712,-1.66 h 27.8126 c 0,0 5.0568,-1.659 6.7424,-3.384 1.6923,0 5.0568,-3.385 5.0568,-3.385 1.6923,-1.659 10.1137,-8.428 11.7993,-10.087 l 3.3712,-3.384 c 0,-1.659 3.3712,-5.044 3.3712,-5.044 v -3.384 c 0,-1.659 1.6923,-6.736 1.6923,-8.428 0,-1.659 3.3712,-8.428 3.3712,-10.121 0,-1.659 0.8295,-5.043 1.6922,-6.735 0,2.654 3.3713,11.812 3.3713,13.471 l 1.6922,5.077 c 0,1.659 3.3712,15.164 3.3712,16.856 0,0 3.3712,10.12 5.0569,13.472 0,1.659 1.6922,3.384 3.3712,5.076 l 3.3712,1.66 h 1.6922 c 5.0569,0 18.5417,-1.66 20.2274,-1.66 1.6922,0 6.7424,-1.659 8.428,-1.659 h 13.4849 l 3.3712,-1.659 11.7993,-11.812 v -6.736 l 11.7992,-11.779 c 0,0 1.6923,-1.659 1.6923,-3.385 l 3.3712,-8.428 1.6922,-3.384 v -8.428 l 1.6923,-1.66 1.6922,-3.384 c 0,-1.659 1.6923,-5.044 1.6923,-5.044 0,-1.659 1.6922,-8.428 1.6922,-10.12 l 1.6923,-1.659 c 1.6922,-3.384 5.0568,-23.592 7.5852,-27.806 l 1.6923,-8.428 c 0,-1.659 3.3712,-6.736 3.3712,-8.428 1.6922,-1.659 3.3712,-10.12 3.3712,-10.12 0,-1.659 1.6922,-11.813 1.6922,-13.472 l 1.6923,-7.598 c 0,-1.659 1.6922,-8.428 1.6922,-8.428 0,-1.659 1.6923,-13.472 1.6923,-15.164 l 1.6922,-5.077 -1.6922,-3.351 -3.3712,-1.659 z"
       class="fil7" />
    <path
       style="clip-rule:evenodd;fill:#414f49;fill-rule:nonzero;stroke-width:0.84279871;image-rendering:optimizeQuality;shape-rendering:geometricPrecision;text-rendering:geometricPrecision"
       inkscape:connector-curvature="0"
       id="path1505"
       d="m -7631.4884,-20761.474 c 0,0 -3.3713,3.385 -5.0569,3.385 h -13.4848 c 0,-1.659 -1.6923,-11.813 -1.6923,-13.472 0,-5.076 -1.6922,-29.498 -1.6922,-34.575 v -26.113 c 0,-5.077 -3.3713,-43.003 -2.5218,-54.783 0,-1.659 -0.8295,-15.163 -0.8295,-16.856 v -21.932 c 1.6922,0 6.7424,-1.66 8.428,-1.66 h 10.1137 l 3.3712,130.635 c 0,0 1.6922,5.044 1.6922,6.736 l 1.6923,5.044 v 24.454 z m 19.3845,-41.277 c 0,-1.659 -1.6923,-11.813 -1.6923,-13.505 0,-3.351 -1.6922,-21.899 -1.6922,-26.114 v -15.163 c 0,-24.455 -0.8296,-80.93 -0.8296,-80.93 l -6.7424,-11.779 h -1.6922 c -1.6923,0 -15.1705,-1.659 -16.8561,-1.659 h -3.3712 c -1.6923,0 -5.0569,3.385 -6.7425,3.385 l -6.7424,5.043 -3.3712,1.659 c -3.3713,1.659 -6.7425,3.351 -8.4281,6.736 v 16.856 c 0,1.659 1.6923,15.164 1.6923,16.856 0,1.659 1.6922,22.763 1.6922,24.455 0,1.659 1.6922,15.164 1.6922,16.856 0,8.428 2.5218,79.204 2.5218,87.632 0,3.384 1.6923,18.548 1.6923,21.932 l 1.6922,1.66 3.3712,1.659 27.8126,-1.659 3.3712,-1.66 1.6923,-1.659 14.3276,-26.976 v -1.659 c 0,-1.659 -1.6922,-11.779 -1.6922,-13.472 v -8.428 z"
       class="fil7" />
    <path
       style="clip-rule:evenodd;fill:#414f49;fill-rule:nonzero;stroke-width:0.84279871;image-rendering:optimizeQuality;shape-rendering:geometricPrecision;text-rendering:geometricPrecision"
       inkscape:connector-curvature="0"
       id="path1507"
       d="m -7464.6164,-20874.389 c 0,3.351 0,21.07 -0.8296,24.421 l -0.8295,5.077 c 0,1.659 0.8295,13.471 0,15.164 -0.8295,5.043 0,21.07 0,22.762 l -0.8295,11.779 c 0,1.659 0.8295,13.505 0,15.197 l -1.6923,15.164 h -16.8561 c 0,0 -3.3712,-1.659 -3.3712,-3.384 0,0 -3.3712,-3.352 -2.5218,-5.044 l -4.214,-9.291 -1.6922,-1.659 c -1.6923,-1.659 -7.5853,-14.334 -8.4281,-16.026 l -4.214,-7.599 c -1.6922,-1.659 -5.8963,-14.301 -6.7391,-15.993 l -3.3712,-3.385 c -1.6923,-1.659 -5.8997,-12.642 -7.5853,-14.334 -2.5218,-6.736 -7.5852,-14.301 -11.7992,-20.207 -1.6923,-1.659 -10.9565,-16.856 -13.4849,-20.241 l -1.6923,-1.659 h -3.3712 l -3.3712,3.384 -0.8295,5.044 c 0,0 0.8295,6.769 0.8295,8.428 0,0 0.8295,5.077 0.8295,6.769 0,1.659 3.3712,17.686 3.3712,19.378 0,3.351 4.2141,31.19 3.3713,34.542 0,3.384 2.5217,14.334 1.6922,16.026 l 0.8295,5.044 c 0,1.659 0.8296,8.428 0.8296,10.12 v 3.385 l -13.4849,-0.996 c -3.3712,0 -10.1137,-2.654 -10.1137,-2.654 l -0.8295,-5.044 c 0.8295,-5.077 0.8295,-27.839 1.6923,-32.883 0,-3.384 -0.8296,-26.113 -0.8296,-29.498 0,-3.384 0.8296,-29.498 1.6923,-32.882 0,-1.659 -0.8296,-10.088 -0.8296,-11.78 v -1.659 l -1.6922,-3.384 0.8295,-10.087 c 0,-1.66 -0.8295,-8.429 -0.8295,-11.813 0,0 -0.8295,-6.736 -0.8295,-8.428 l 0.8295,-5.044 c 0,0 5.0568,-0.995 6.7424,-0.995 l 8.4281,0.995 1.6922,1.659 1.6923,3.385 1.6922,1.659 2.5218,6.736 c 0,1.659 4.214,9.257 5.8996,10.95 l 4.214,7.598 c 0,1.659 4.2141,7.565 4.2141,9.258 l 2.5217,6.736 c 0,1.659 5.8997,10.983 5.8997,12.642 l 2.5218,6.769 1.6922,1.659 1.6923,3.384 3.3712,5.044 1.6922,1.659 c 1.6923,1.659 7.5819,14.334 8.4247,16.026 l 1.6923,1.659 4.214,7.566 1.6923,1.659 c 1.6922,1.659 4.214,7.598 4.214,7.598 l 1.6922,3.352 3.3712,3.384 h 3.3713 l 3.3712,-1.659 1.6922,-16.856 c 0,-1.659 -0.8295,-6.736 -0.8295,-8.428 0,-1.659 0,-18.548 0,-21.07 0,-1.659 -0.8295,-8.428 -0.8295,-10.121 0,-1.659 0,-16.856 0,-18.548 0,-1.659 -0.8296,-8.428 -0.8296,-10.087 l -0.8295,-6.769 c 0,-1.659 -0.8295,-8.428 -0.8295,-10.087 0,-3.385 -0.8296,-11.813 -0.8296,-11.813 l 0.8296,-5.043 c 1.6922,0 13.4848,-0.996 16.8561,0 h 3.3712 c 0,0 1.6922,3.351 0.8295,5.043 0,1.659 0.8295,6.736 0.8295,8.428 0,3.385 1.6923,21.071 0.8296,24.455 0,1.659 0.8295,13.472 0,15.164 z m -63.2071,58.133 c -1.6922,0 -1.6922,-3.351 0,-3.351 1.6923,0 1.6923,3.351 0,3.351 z m 90.1768,10.12 c 0,-1.659 -0.8295,-8.428 -0.8295,-10.12 0,-3.351 0.8295,-24.421 0.8295,-27.806 0,-1.659 -0.8295,-13.471 0,-15.164 l -0.8295,-8.428 c 0,-1.659 -0.8295,-11.812 -0.8295,-13.471 l 0.8295,-6.769 c 0,-1.659 -0.8295,-10.087 -0.8295,-11.78 0,-1.659 -0.8296,-11.812 -0.8296,-13.504 l -0.8295,-6.736 c 0,-1.659 0,-16.856 0,-18.549 0,0 -1.6923,-3.351 -0.8295,-5.043 l -1.6923,-3.385 c -1.6922,0 -11.7993,-2.654 -13.4849,-3.351 l -18.5417,-1.659 -3.3712,1.659 -1.6922,1.659 -5.0569,3.352 -13.4848,10.949 -1.6923,16.856 0.8296,5.077 c 0,1.659 0.8295,8.428 0.8295,10.12 2.5218,14.302 2.5218,27.806 2.5218,42.97 l -0.8296,6.736 c -1.6922,-1.659 -4.214,-12.642 -5.8996,-14.334 l -3.3712,-5.044 c -1.6923,-3.384 -5.8963,-12.642 -5.8963,-12.642 0,-1.659 -5.0569,-16.026 -5.0569,-17.686 -4.214,-12.642 -8.428,-25.284 -13.4848,-37.096 0,0 -3.3713,-3.385 -3.3713,-5.044 l -1.6922,-1.659 -28.6554,-2.654 -3.3712,1.659 c -1.6922,0 -9.2708,5.906 -10.9564,5.906 l -6.7425,2.654 c -1.6922,1.66 -7.5852,4.215 -7.5852,5.907 v 3.384 l 5.0568,4.214 c 0,0 1.6923,3.352 0.8295,5.044 0,1.659 0,21.07 0,22.762 0,3.385 0.8296,27.806 0.8296,31.191 0,1.659 0,16.856 0,22.762 v 1.659 c 0.8295,8.428 1.6922,16.027 0.8295,24.455 -0.8295,5.043 0,22.762 -0.8295,24.454 0,1.659 0.8295,13.472 0,15.164 v 1.659 c 0,3.351 2.5218,12.642 2.5218,14.301 l 1.6922,3.385 c 1.6922,1.659 3.3712,3.384 5.0568,4.214 h 1.6923 c 0,0 5.0568,-0.996 5.0568,-2.655 l 32.0266,3.352 1.6922,-1.659 c 0,-1.66 4.214,-6.769 4.214,-6.769 l 2.5218,-6.736 c 0,-1.659 5.8997,-8.428 5.8997,-10.121 v -3.351 c 0,-1.659 -2.5218,-10.95 -2.5218,-12.642 0,-1.659 -0.8296,-6.736 -0.8296,-6.736 l 0.8296,-10.12 1.6922,3.351 c 0,1.659 4.214,7.599 4.214,9.291 1.6923,1.659 5.8997,9.258 5.8997,10.95 0,1.659 5.8963,7.598 5.8963,9.257 0,1.66 4.214,9.291 5.8996,10.983 0,1.66 4.2141,7.566 4.2141,9.258 l 1.6922,3.385 5.8996,7.565 6.7425,-0.996 8.428,0.996 c 1.6923,0 13.4849,-0.996 15.1705,0 5.8996,-5.044 9.2708,-10.95 15.1705,-15.994 l 1.6922,-1.659 c 1.6923,-1.659 5.8997,-8.428 5.8997,-8.428 v -3.384 l -0.8296,-8.428 c 0,-1.659 -0.8295,-13.472 0,-15.164 z"
       class="fil7" />
    <path
       style="clip-rule:evenodd;fill:#414f49;fill-rule:nonzero;stroke-width:0.84279871;image-rendering:optimizeQuality;shape-rendering:geometricPrecision;text-rendering:geometricPrecision"
       inkscape:connector-curvature="0"
       id="path1509"
       d="m -7318.8112,-20768.209 -1.6923,1.659 c 0,0 -5.0568,1.659 -6.7424,1.659 -1.6922,0 -10.1137,0.995 -11.7993,0.995 -1.6922,0 -10.1136,0.996 -10.1136,0.996 -1.6923,0 -10.1137,2.654 -11.7993,2.654 -1.6922,0 -8.428,0.996 -10.1136,0.996 l -18.5417,-0.996 c 0,-3.384 -0.8296,-18.548 0,-22.762 v -5.044 c 0.8295,-8.428 -0.8296,-34.575 -0.8296,-37.926 0,-1.659 -1.6922,-5.077 -1.6922,-6.769 0.8295,-11.779 2.5218,-63.21 3.3712,-75.852 l 1.6922,-20.208 c 19.3845,-2.654 37.9262,-0.995 56.468,-1.659 1.6922,0 5.0568,1.659 5.0568,1.659 l 1.6922,3.352 v 5.076 l -3.3712,1.659 c -1.6922,0 -16.8561,0.664 -19.3845,0.664 l -6.7424,1.659 c -1.6923,0 -10.1137,0.664 -13.4849,0.664 h -1.6923 c -1.6922,0 -5.0568,1.659 -6.7424,1.659 l -0.8295,16.856 c 0,1.659 0.8295,10.12 0.8295,11.812 0,0 1.6922,5.044 1.6922,6.736 l 1.6923,5.044 1.6922,6.736 c 0,1.659 1.6923,3.384 3.3713,5.076 l 3.3712,1.659 23.5985,1.659 c 1.6923,0 5.0568,3.385 5.0568,5.077 l -0.8295,6.736 -1.6922,1.659 c 0,0 -5.0569,1.659 -6.7425,1.659 -1.6922,0 -13.4849,0.664 -15.1705,0.664 l -6.7424,1.659 h -5.0568 l -1.6923,1.659 -0.8295,16.856 c 0,1.659 0.8295,10.087 0.8295,11.779 0,1.659 0.8296,16.856 0.8296,18.549 0,1.659 0.8295,8.428 0.8295,8.428 l 3.3712,3.384 h 5.0568 l 6.7425,-3.384 c 1.6922,0 5.0568,-1.659 5.0568,-1.659 l 34.555,2.654 1.6922,1.659 1.6923,3.385 -0.8295,6.735 z m 26.1269,-34.542 -3.3712,-1.659 -18.5417,-0.664 c -1.6922,0 -10.1137,0.664 -11.7993,0.664 l -25.2841,-1.659 c 0,-1.659 -0.8295,-10.12 -0.8295,-11.78 l 0.8295,-8.428 c 1.6922,0 8.428,-2.654 10.1137,-2.654 1.6922,0 10.1136,-0.996 11.7992,-0.996 1.6923,0 8.4281,-2.654 10.1137,-2.654 l 3.3712,-3.385 1.6922,-3.351 c 0,-1.659 2.5218,-10.12 2.5218,-11.812 l 1.6923,-27.806 -3.3713,-1.659 -15.1704,-0.664 c -1.6923,0 -13.4849,0.664 -15.1705,0.664 l -8.4281,-0.664 -1.6922,-5.077 0.8295,-15.164 c 5.0568,-1.659 10.1137,-2.654 16.0133,-2.654 1.6923,0 11.7993,-0.996 13.4849,-0.996 3.3712,0 10.1136,-0.995 10.1136,-0.995 1.6923,0 7.5853,-6.736 7.5853,-6.736 1.6922,0 6.7424,-3.384 8.428,-2.654 v -5.077 c 0,-3.351 -0.8295,-11.779 -0.8295,-13.472 l -1.6923,-5.076 c -1.6922,-1.659 -4.214,-12.642 -5.8996,-14.301 l -1.6922,-1.66 -41.2975,-2.654 c -3.3712,0 -22.7557,0 -26.1269,0 -1.6923,0 -8.4281,2.654 -10.9565,4.214 0,0 -5.0568,3.351 -7.5852,5.044 l -1.6923,1.659 -1.6922,3.351 c 0,0 -3.3712,5.077 -5.0568,5.077 l -3.3712,54.782 c 0,1.659 0.8295,10.12 0.8295,11.779 0.8295,15.197 1.6922,60.689 0.8295,64.073 v 5.044 c 0,5.077 0,27.806 0,32.883 l -0.8295,15.163 1.6922,3.385 c 1.6923,1.659 3.3712,3.351 5.0569,3.351 l 21.9129,1.659 c 0,0 6.7424,-1.659 10.1136,-0.995 1.6923,0 6.7425,-1.659 8.4281,-0.996 1.6922,0 11.7992,-2.654 14.3277,-2.654 1.6922,0 11.7992,-0.996 13.4848,-0.996 5.0569,0 17.6989,-2.654 17.6989,-2.654 l 9.2709,-8.428 c 1.6922,-1.659 7.5852,-6.736 7.5852,-8.428 0,0 1.6923,-3.351 1.6923,-5.044 0,-1.659 2.5218,-8.428 2.5218,-8.428 l 0.8295,-8.428 c 0,-1.659 -1.6923,-5.043 -1.6923,-6.736 l -1.6922,-1.659 z"
       class="fil7" />
    <path
       style="clip-rule:evenodd;fill:#414f49;fill-rule:nonzero;stroke-width:0.84279871;image-rendering:optimizeQuality;shape-rendering:geometricPrecision;text-rendering:geometricPrecision"
       inkscape:connector-curvature="0"
       id="path1511"
       d="m -8159.9237,-20369.569 -14.3276,-94.401 -5.8997,-5.044 -20.2273,5.907 15.1705,100.273 23.5985,-4.214 c 1.6923,0 1.6923,-0.663 1.6923,-2.654 z m -25.2841,-114.609 16.0133,-2.654 c 5.0568,-0.995 13.4849,0 14.3277,5.873 l 21.0701,112.12 -9.2709,24.421 -39.6118,10.12 13.4849,111.257 -25.2841,3.352 -28.6554,-250.287 c -0.8295,-5.077 23.5985,-11.812 37.9262,-14.334 z"
       class="fil7" />
    <path
       style="clip-rule:evenodd;fill:#414f49;fill-rule:nonzero;stroke-width:0.84279871;image-rendering:optimizeQuality;shape-rendering:geometricPrecision;text-rendering:geometricPrecision"
       inkscape:connector-curvature="0"
       id="path1513"
       d="m -8061.3155,-20361.141 19.3845,-1.659 c 1.6922,0 2.5218,-0.996 1.6922,-2.655 l -6.7424,-92.708 c -0.8295,-5.044 -2.5218,-11.78 -25.2841,-9.258 -2.5218,1.659 -4.2141,3.351 -4.2141,5.044 l 10.1137,99.444 c 0,0.995 2.5218,2.654 5.0568,2.654 z m -16.8561,139.925 -24.4413,-244.413 -8.4281,-3.385 -0.8295,-10.949 57.3107,-5.907 c 18.5417,-1.659 33.7122,5.044 34.555,14.335 l 6.7424,101.136 c 0,3.351 -0.8295,19.378 -20.2273,26.976 l 25.2842,37.927 15.1704,74.16 -26.9697,3.351 -12.6421,-70.775 -24.4413,-41.311 -10.9565,0.995 10.9565,113.779 -21.0701,2.654 z"
       class="fil7" />
    <path
       style="clip-rule:evenodd;fill:#414f49;fill-rule:nonzero;stroke-width:0.84279871;image-rendering:optimizeQuality;shape-rendering:geometricPrecision;text-rendering:geometricPrecision"
       inkscape:connector-curvature="0"
       id="path1515"
       d="m -7907.0856,-20248.192 -4.214,-209.872 c 0,-0.995 -0.8295,-1.659 -3.3712,-2.654 l -22.7557,-0.996 -3.3713,2.655 4.2141,211.53 26.1269,1.659 3.3712,-3.384 z m -53.0967,5.043 -6.7424,-230.908 c 10.1137,-5.906 26.1269,-9.291 55.6251,-10.121 13.4849,0 22.7557,6.736 22.7557,16.857 l 5.0569,242.721 -48.8827,1.659 c -20.2273,0.995 -26.9698,-5.077 -27.8126,-19.378 z"
       class="fil7" />
    <path
       style="clip-rule:evenodd;fill:#414f49;fill-rule:nonzero;stroke-width:0.84279871;image-rendering:optimizeQuality;shape-rendering:geometricPrecision;text-rendering:geometricPrecision"
       inkscape:connector-curvature="0"
       id="path1517"
       d="m -7778.9793,-20264.219 c 0,-1.659 0,-2.654 -0.8295,-2.654 v -75.023 c 0.8295,0 0.8295,-0.664 0.8295,-0.664 0,-0.995 -0.8295,-0.995 -2.5217,-0.995 l -27.8126,-3.385 c -1.6922,0 -4.214,1.659 -4.214,2.655 v 99.444 l 4.214,0.996 c 29.4982,-10.95 30.341,-16.857 30.341,-20.241 z m -34.5549,-105.35 h 26.1269 c 0.8295,0 1.6922,0 2.5218,-1.659 0,0 0,-0.664 0.8295,-1.659 l 3.3712,-87.665 c 0,-0.996 -1.6922,-1.66 -5.0568,-1.66 l -32.0266,1.66 v 88.494 c 0,1.659 1.6923,2.655 4.214,2.655 z m 64.8959,42.14 -7.5852,92.708 c 0,10.95 -31.1838,10.95 -34.555,10.95 h -49.7255 v -260.407 h 48.8827 c 15.1705,0 36.2406,8.429 36.2406,22.763 v 74.16 l -15.1705,30.328 c 7.5852,1.659 22.7557,11.812 22.7557,30.361 z"
       class="fil7" />
    <polygon
       transform="matrix(0.84279871,0,0,0.84279871,-10222.253,-24632.436)"
       style="clip-rule:evenodd;fill:#414f49;fill-rule:nonzero;image-rendering:optimizeQuality;shape-rendering:geometricPrecision;text-rendering:geometricPrecision"
       id="polygon1519"
       points="3067,5203 3067,5231 2985,5231 2985,4922 3027,4922 3018,5195 "
       class="fil7" />
    <polygon
       transform="matrix(0.84279871,0,0,0.84279871,-10222.253,-24632.436)"
       style="clip-rule:evenodd;fill:#414f49;fill-rule:nonzero;image-rendering:optimizeQuality;shape-rendering:geometricPrecision;text-rendering:geometricPrecision"
       id="polygon1521"
       points="3205,5178 3210,5222 3108,5222 3118,4922 3206,4922 3206,4956 3144,4956 3144,5045 3192,5045 3192,5067 3146,5075 3146,5186 "
       class="fil7" />
    <polygon
       transform="matrix(0.84279871,0,0,0.84279871,-10222.253,-24632.436)"
       style="clip-rule:evenodd;fill:#414f49;fill-rule:nonzero;image-rendering:optimizeQuality;shape-rendering:geometricPrecision;text-rendering:geometricPrecision"
       id="polygon1523"
       points="3319,5162 3304,5164 3291,4971 3289,4971 3266,5226 3243,5224 3271,4916 3303,4919 3317,5110 3321,5111 3367,4925 3392,4927 3374,5236 3346,5234 3367,5001 3364,5001 "
       class="fil7" />
    <path
       style="clip-rule:evenodd;fill:#414f49;fill-rule:nonzero;stroke-width:0.84279871;image-rendering:optimizeQuality;shape-rendering:geometricPrecision;text-rendering:geometricPrecision"
       inkscape:connector-curvature="0"
       id="path1525"
       d="m -7252.2297,-20366.185 -1.6922,120.515 c 0,10.12 -13.4849,21.899 -23.5985,21.899 l -52.2539,-0.663 v -25.285 l 51.4111,0.996 -7.5853,-98.582 -42.1402,-11.812 0.8295,-108.735 c 0,-7.566 6.7425,-16.856 15.1705,-16.856 l 61.5248,0.995 v 17.686 l -52.2539,6.735 5.0568,80.93 46.3542,12.642 z"
       class="fil7" />
    <path
       style="clip-rule:evenodd;fill:#f46c8d;fill-rule:nonzero;stroke-width:0.84279871;image-rendering:optimizeQuality;shape-rendering:geometricPrecision;text-rendering:geometricPrecision"
       inkscape:connector-curvature="0"
       id="path1527"
       d="m -8147.2816,-20545.696 v 4.214 l 3.3712,-2.654 -3.3712,-2.655 z m 0,-127.283 c 0.8295,3.384 2.5218,5.906 5.0568,8.428 -0.8295,-3.351 -2.5217,-5.873 -5.0568,-8.428 z m -3.3712,-33.712 1.6922,6.769 1.6923,-6.769 z m -14.3277,2.654 v 8.428 l 5.0568,-6.769 -5.0568,-2.654 z m -10.9564,2.655 c 0.8295,1.659 2.5217,3.351 5.0568,4.214 -0.8295,-1.659 -2.5218,-3.385 -5.0568,-4.214 z m -9.2709,150.842 c 0.8295,1.659 2.5218,3.384 5.0568,4.214 z m -10.9565,-76.682 3.3713,6.736 c 0,-2.655 -1.6923,-5.044 -3.3713,-6.736 z m -1.6922,-25.284 c 1.6922,3.384 5.0568,5.906 9.2708,6.736 -2.5217,-3.352 -5.0568,-5.044 -9.2708,-6.736 z m -1.6922,-19.378 c 0.8295,5.906 2.5217,10.95 6.7424,16.856 -0.8295,-5.906 -3.3712,-11.813 -6.7424,-16.856 z m -1.6923,-21.07 v -4.214 h -1.6922 z m -10.1137,23.592 c 0.8296,3.384 2.5218,5.043 5.0569,6.736 z m 32.0266,-53.09 30.341,4.214 16.0133,19.378 c 2.5218,8.428 4.214,17.685 5.0568,27.805 l 1.6923,25.285 -5.0569,2.654 -1.6922,-2.654 -26.127,2.654 -8.428,-2.654 1.6922,-25.285 c -0.8295,-5.906 -2.5217,-12.642 -5.0568,-19.377 -4.214,5.043 -7.5852,11.812 -10.9565,19.377 l 1.6923,27.806 -3.3712,53.124 1.6922,6.735 v 6.736 l -1.6922,15.164 1.6922,4.214 c 1.6923,0.664 4.214,1.659 6.7425,2.655 5.0568,-4.214 10.1136,-15.164 15.1704,-32.85 l -13.4848,-0.995 -1.6923,-29.498 46.3543,-6.736 3.3712,6.736 -1.6922,29.498 1.6922,16.856 -1.6922,4.214 v 6.769 l -5.0569,2.654 c 2.5218,6.736 4.214,15.164 5.0569,23.592 l 1.6922,10.95 -16.0133,2.655 c -5.8996,-2.655 -10.1136,-5.907 -11.7993,-10.95 -13.4848,9.257 -25.2841,14.334 -34.5549,15.164 -7.5853,-2.655 -15.1705,-6.736 -22.7558,-12.643 -4.214,-7.565 -8.428,-15.993 -10.9564,-25.284 l -1.6923,-58.996 1.6923,-4.214 -1.6923,-32.02 c 0,-7.565 1.6923,-14.334 5.0568,-21.07 l -3.3712,-15.164 c 1.6923,-0.664 2.5218,-3.384 3.3712,-6.736 4.2141,-6.736 10.1137,-12.642 16.0133,-19.378 l 22.7558,-6.769 z"
       class="fil6" />
    <path
       style="clip-rule:evenodd;fill:#414f49;fill-rule:nonzero;stroke-width:0.84279871;image-rendering:optimizeQuality;shape-rendering:geometricPrecision;text-rendering:geometricPrecision"
       inkscape:connector-curvature="0"
       id="path1529"
       d="m -7952.597,-20706.691 5.0568,8.428 c -2.5218,-1.659 -4.214,-4.214 -5.0568,-8.428 z m -19.3845,179.511 c 3.3712,2.654 5.0568,5.906 5.8996,10.983 z m -42.1369,-150.843 c 2.5217,3.385 6.7424,5.044 10.9564,5.044 1.6923,-3.351 3.3712,-5.044 5.0568,-5.044 l 5.0569,10.95 c -2.5218,-8.428 -6.7425,-15.993 -10.9565,-21.899 -1.6922,5.906 -5.0568,9.257 -10.9565,10.949 z m -31.1838,0.996 c -10.1137,5.906 -20.2273,14.334 -30.341,24.454 -3.3712,13.472 -5.0568,27.806 -5.0568,43.833 3.3712,12.642 8.428,25.284 16.0133,37.926 12.642,6.736 27.8125,10.12 43.8258,10.95 9.2709,-6.736 18.5417,-15.164 26.9698,-24.455 3.3712,-13.471 5.0568,-30.327 5.0568,-48.876 -5.0568,-11.779 -10.9565,-23.592 -19.3845,-35.404 l -37.9262,-8.428 z m -44.6687,85.143 10.9565,-2.654 -13.4849,-2.655 z m 41.2975,-112.086 c 11.7992,0.995 22.7557,2.654 35.3978,5.043 9.2708,3.385 17.6989,7.599 26.9697,13.472 7.5853,6.769 13.4816,15.197 19.3812,24.454 2.5218,10.121 4.214,20.241 5.0568,32.883 l 2.5218,26.943 -2.5218,8.428 c -2.5218,9.291 -5.8996,19.411 -10.9564,30.361 l -24.4381,19.378 -26.9697,10.95 -32.8694,-2.655 c -9.2708,-3.384 -17.6989,-7.598 -26.9697,-13.504 l -19.3845,-24.422 -8.4281,-30.328 2.5218,-41.31 10.9564,-30.328 21.913,-19.411 26.9697,-10.95 z"
       class="fil7" />
    <path
       style="clip-rule:evenodd;fill:#49918a;fill-rule:nonzero;stroke-width:0.84279871;image-rendering:optimizeQuality;shape-rendering:geometricPrecision;text-rendering:geometricPrecision"
       inkscape:connector-curvature="0"
       id="path1531"
       d="m -7788.2501,-20706.691 5.0568,8.428 c -2.5218,-1.659 -4.214,-4.214 -5.0568,-8.428 z m -19.3845,179.511 c 3.3712,2.654 5.0568,5.906 5.8996,10.983 z m -42.1403,-150.843 c 2.5218,3.385 6.7425,5.044 10.9565,5.044 1.6923,-3.351 3.3712,-5.044 5.0568,-5.044 l 5.0569,10.95 c -2.5218,-8.428 -6.7425,-15.993 -10.9565,-21.899 -1.6922,5.906 -5.0568,9.257 -10.9565,10.949 z m -31.1837,0.996 c -10.1137,5.906 -20.2273,14.334 -30.341,24.454 -3.3712,13.472 -5.0568,27.806 -5.0568,43.833 3.3712,12.642 8.428,25.284 16.0133,37.926 12.642,6.736 27.8125,10.12 43.8258,10.95 9.2709,-6.736 18.5417,-15.164 26.9698,-24.455 3.3712,-13.471 5.0568,-30.327 5.0568,-48.876 -5.0568,-11.779 -10.9565,-23.592 -19.3845,-35.404 l -37.9262,-8.428 z m -44.6687,85.143 10.9565,-2.654 -13.4849,-2.655 z m 41.2975,-112.086 c 11.7992,0.995 23.5985,2.654 35.3978,5.043 9.2708,3.385 17.6989,7.599 26.9697,13.472 7.5852,6.769 13.4849,15.197 19.3845,24.454 2.5218,10.121 4.214,20.241 5.0568,32.883 l 2.5218,26.943 -2.5218,8.428 c -2.5217,9.291 -5.8996,19.411 -10.9564,30.361 l -24.4414,19.378 -26.9697,10.95 -32.8694,-2.655 c -9.2708,-3.384 -17.6989,-7.598 -26.9697,-13.504 l -19.3845,-24.422 -8.4281,-30.328 2.5218,-41.31 10.9564,-30.328 21.913,-19.411 26.9697,-10.95 z"
       class="fil8" />
    <path
       style="clip-rule:evenodd;fill:#f46c8d;fill-rule:nonzero;stroke-width:0.84279871;image-rendering:optimizeQuality;shape-rendering:geometricPrecision;text-rendering:geometricPrecision"
       inkscape:connector-curvature="0"
       id="path1533"
       d="m -7749.4811,-20651.909 -2.5218,27.839 2.5218,23.592 -2.5218,22.762 c 4.2141,4.214 10.1137,6.736 16.0133,6.736 l 6.7425,-21.07 -2.5218,-18.548 2.5218,-6.736 c -0.8296,-10.12 -2.5218,-21.07 -5.0569,-32.02 l -16.0133,-2.654 z m -27.8125,-22.729 48.8826,2.654 c 12.6421,5.907 21.0701,16.856 25.2842,32.02 l 4.214,39.619 -2.5218,9.257 c -0.8295,14.335 -6.7424,26.977 -16.0133,39.619 -15.1705,2.654 -32.0266,4.214 -50.5683,4.214 l -9.2708,2.654 c 0,-1.659 -1.6923,-3.384 -4.214,-4.214 l 4.214,-23.592 -2.5218,-6.735 2.5218,-22.763 -2.5218,-6.736 v -55.645 h -2.5218 l 4.2141,-9.257 z"
       class="fil6" />
    <path
       style="clip-rule:evenodd;fill:#414f49;fill-rule:nonzero;stroke-width:0.84279871;image-rendering:optimizeQuality;shape-rendering:geometricPrecision;text-rendering:geometricPrecision"
       inkscape:connector-curvature="0"
       id="path1535"
       d="m -7645.8161,-20608.076 -3.3712,45.524 30.3409,6.736 9.2709,-3.384 11.7992,-24.422 -5.8996,-14.334 z m -3.3712,-66.562 c -1.6923,7.565 -2.5218,16.856 -2.5218,27.806 l 2.5218,10.12 c 6.7424,1.659 15.1704,2.655 23.5985,3.351 l 9.2708,-3.351 5.8997,-10.12 -5.8997,-24.455 z m -36.2406,-35.405 32.8693,3.352 h 9.2709 v -3.352 l 26.9697,3.352 c 9.2709,1.659 19.3846,5.077 29.4982,10.12 5.0568,10.95 9.2709,22.762 11.7993,35.404 -4.214,10.95 -10.1137,21.9 -17.6989,32.02 l 17.6989,21.071 c 5.0568,9.29 7.5852,19.377 9.2708,31.19 -1.6922,10.12 -5.0568,21.07 -9.2708,31.19 l -26.9698,17.686 -63.2103,3.384 -7.5853,-7.598 -1.6922,7.598 c -6.7425,-2.654 -11.7993,-8.428 -15.1705,-17.718 l 2.5218,-45.492 -0.8296,-29.498 -1.6922,-37.097 2.5218,-6.736 -2.5218,-3.384 2.5218,-45.492 z"
       class="fil7" />
    <path
       style="clip-rule:evenodd;fill:#49918a;fill-rule:nonzero;stroke-width:0.84279871;image-rendering:optimizeQuality;shape-rendering:geometricPrecision;text-rendering:geometricPrecision"
       inkscape:connector-curvature="0"
       id="path1537"
       d="m -7482.3153,-20575.194 c 0.8295,2.655 2.5217,5.044 5.8996,5.906 -0.8295,-2.654 -2.5218,-5.076 -5.8996,-5.906 z m 0,-64.902 v -5.907 h -3.3712 z m -24.4414,76.682 v -5.874 h -3.3712 z m 9.2709,-107.873 c -5.0568,14.335 -7.5853,30.361 -9.2709,49.739 l -3.3712,37.063 21.0701,-1.659 c -2.5217,-5.906 -3.3712,-16.856 -4.214,-32.882 l -5.0568,-51.398 z m -31.1805,-23.592 9.2709,-13.471 38.7657,-0.996 8.428,16.027 16.0133,101.136 4.214,20.208 9.2709,45.525 c -5.8996,2.654 -12.6421,3.351 -20.2273,4.214 -8.4281,0.663 -15.1705,0 -20.2273,-2.655 l -4.2141,-28.669 -10.1136,0.996 h -9.2709 l -5.8963,31.19 -32.0266,0.996 -8.428,-5.907 4.214,-25.284 21.0701,-141.584 z"
       class="fil8" />
    <path
       style="clip-rule:evenodd;fill:#f46c8d;fill-rule:nonzero;stroke-width:0.84279871;image-rendering:optimizeQuality;shape-rendering:geometricPrecision;text-rendering:geometricPrecision"
       inkscape:connector-curvature="0"
       id="path1539"
       d="m -7294.3699,-20614.812 c 2.5218,0 5.0568,2.654 6.7425,5.906 z m -19.3845,36.234 c 3.3712,1.659 5.0568,4.214 6.7424,8.428 z m 1.6923,-110.394 -3.3713,8.428 10.1137,-2.655 z m -1.6923,163.484 c 0,3.384 -2.5218,6.736 -6.7424,8.428 z m -61.5247,-11.78 3.3712,-2.654 13.4849,2.654 -6.7425,-22.762 z m -57.3108,-174.467 c 13.4849,0.664 28.6554,4.214 43.8259,10.121 l 16.0133,33.712 c 3.3712,8.428 10.1136,14.334 20.2273,16.856 l 16.0133,-37.097 c 6.7424,-10.12 17.6989,-17.686 32.0266,-23.592 l 20.2273,3.385 -48.0399,91.016 -8.428,43.832 4.214,33.679 -4.214,10.121 -27.8126,6.736 -11.7993,-3.352 -4.214,-26.976 4.214,-10.12 v -47.184 l -39.6118,-67.425 -11.7992,-33.712 z"
       class="fil6" />
  </g>
</svg>
