<?xml version="1.0" encoding="UTF-8" standalone="no"?>
<!-- Created with Inkscape (http://www.inkscape.org/) -->

<svg
   xmlns:dc="http://purl.org/dc/elements/1.1/"
   xmlns:cc="http://creativecommons.org/ns#"
   xmlns:rdf="http://www.w3.org/1999/02/22-rdf-syntax-ns#"
   xmlns:svg="http://www.w3.org/2000/svg"
   xmlns="http://www.w3.org/2000/svg"
   xmlns:sodipodi="http://sodipodi.sourceforge.net/DTD/sodipodi-0.dtd"
   xmlns:inkscape="http://www.inkscape.org/namespaces/inkscape"
   width="1400mm"
   height="767.04382mm"
   viewBox="0 0 1400.0001 767.0437"
   version="1.1"
   id="svg9245"
   inkscape:version="0.92.3 (2405546, 2018-03-11)"
   sodipodi:docname="95020.svg">
  <defs
     id="defs9239" />
  <sodipodi:namedview
     id="base"
     pagecolor="#ffffff"
     bordercolor="#666666"
     borderopacity="1.0"
     inkscape:pageopacity="0.0"
     inkscape:pageshadow="2"
     inkscape:zoom="0.021875"
     inkscape:cx="20790.186"
     inkscape:cy="-6690.4117"
     inkscape:document-units="mm"
     inkscape:current-layer="layer1"
     showgrid="false"
     fit-margin-top="0"
     fit-margin-left="0"
     fit-margin-right="0"
     fit-margin-bottom="0"
     inkscape:window-width="1280"
     inkscape:window-height="657"
     inkscape:window-x="-8"
     inkscape:window-y="-8"
     inkscape:window-maximized="1" />
  <metadata
     id="metadata9242">
    <rdf:RDF>
      <cc:Work
         rdf:about="">
        <dc:format>image/svg+xml</dc:format>
        <dc:type
           rdf:resource="http://purl.org/dc/dcmitype/StillImage" />
        <dc:title></dc:title>
      </cc:Work>
    </rdf:RDF>
  </metadata>
  <g
     inkscape:label="Layer 1"
     inkscape:groupmode="layer"
     id="layer1"
     transform="translate(10587.464,18032.07)">
    <path
       style="clip-rule:evenodd;fill:#2c2c2c;fill-rule:nonzero;stroke-width:0.62354326;image-rendering:optimizeQuality;shape-rendering:geometricPrecision;text-rendering:geometricPrecision"
       inkscape:connector-curvature="0"
       id="path2869"
       d="m -9645.771,-17365.512 c 7.4874,-47.994 8.1012,-100.382 -34.2952,-130.945 -48.6318,-34.295 -106.0031,-11.219 -113.4905,44.286 -20.5722,-26.193 -85.4064,-84.178 -97.2637,-18.092 -33.0431,-23.076 -92.9184,-51.136 -117.2216,3.117 -47.405,-39.892 -57.985,-16.84 -100.406,-7.487 -24.942,5.622 -89.776,-29.925 -104.113,1.964 -26.194,-31.177 -64.859,-3.118 -92.305,1.227 -38.64,6.874 -61.716,-18.706 -63.582,44.901 -0.491,24.942 11.833,79.195 21.186,103.523 3.756,10.581 17.454,38.641 26.807,43.649 23.077,12.471 28.698,-5.008 45.539,-3.118 1.964,0 14.951,-6.874 16.203,-8.126 48.018,57.371 72.321,1.228 117.86,-4.983 44.876,-6.236 71.708,38.665 122.819,-1.964 34.9335,35.547 112.877,36.161 149.0378,9.353 22.4379,29.925 40.5306,6.235 64.8588,5.622 24.3036,-0.737 46.7661,9.353 72.9354,9.967 61.7411,0.491 83.5652,-36.799 86.0447,-92.919 v 0 z"
       class="fil16" />
    <path
       style="clip-rule:evenodd;fill:#2c2c2c;fill-rule:nonzero;stroke-width:0.62354326;image-rendering:optimizeQuality;shape-rendering:geometricPrecision;text-rendering:geometricPrecision"
       inkscape:connector-curvature="0"
       id="path2871"
       d="m -10144.609,-17893.637 c -25.556,-59.237 -42.396,-29.312 -79.196,-23.077 -19.934,3.118 -49.883,-2.504 -74.825,-1.963 -9.354,0 -25.556,18.706 -37.413,18.068 -6.236,-0.491 -13.085,-16.203 -21.186,-17.455 -21.824,-2.479 -24.328,-13.084 -47.404,-5.597 -42.397,13.698 -36.161,54.229 -51.112,84.793 -3.117,6.849 -4.369,17.454 -4.369,20.572 0,-81.061 -92.919,-132.811 -117.861,-41.144 -16.202,60.489 -19.32,160.87 54.254,163.374 42.396,1.227 63.607,-1.964 106.617,4.345 33.067,4.984 70.48,8.101 91.666,-14.95 38.665,22.438 106.003,1.964 141.55,-17.455 37.413,31.178 99.154,44.876 140.298,24.942 122.206,-58.623 -4.983,-303.059 -100.381,-195.19 z"
       class="fil16" />
    <path
       style="clip-rule:evenodd;fill:#2c2c2c;fill-rule:nonzero;stroke-width:0.62354326;image-rendering:optimizeQuality;shape-rendering:geometricPrecision;text-rendering:geometricPrecision"
       inkscape:connector-curvature="0"
       id="path2873"
       d="m -9753.0261,-17571.897 c 0,0 0,0 0,0 0,0 0,0 0,0 0,0.491 0,0.491 0,0 z"
       class="fil16" />
    <path
       style="clip-rule:evenodd;fill:#2c2c2c;fill-rule:nonzero;stroke-width:0.62354326;image-rendering:optimizeQuality;shape-rendering:geometricPrecision;text-rendering:geometricPrecision"
       inkscape:connector-curvature="0"
       id="path2875"
       d="m -9502.9688,-17532.618 c -11.2435,29.312 -28.0597,69.842 -45.5386,107.869 -4.9835,-6.236 -9.967,-12.471 -13.6984,-19.934 -16.227,-28.06 -29.95,-61.127 -43.0346,-91.666 -27.446,-63.607 -53.6153,-126.576 -91.6665,-182.695 -21.1858,-31.177 -37.4128,-62.993 -49.8838,-96.65 12.471,9.353 18.7065,27.421 24.9419,43.648 6.8738,-6.873 10.6053,-5.621 13.1093,-16.227 9.3532,23.715 19.3201,48.019 28.6733,71.708 5.6218,-6.849 11.219,-9.967 14.975,-18.706 3.7315,18.093 4.9835,20.597 9.9669,39.303 0,20.572 -3.1177,25.556 0,20.572 14.3367,-9.991 34.9089,-24.328 51.7496,-27.446 -2.4795,6.236 -1.9639,12.471 -3.1177,18.093 12.4709,-19.958 35.5471,-19.345 52.3878,-29.925 -1.2275,6.235 0,12.471 -0.491,18.706 14.9504,-16.227 38.0266,-19.345 55.481,-28.698 -3.7315,5.622 -6.2355,11.219 -8.1012,16.841 -46.7661,19.32 -83.5407,66.724 -89.7761,107.869 14.9504,-17.455 25.5556,-39.279 41.1443,-54.868 0,3.118 0.491,8.102 0.491,12.471 11.2189,-13.109 23.0761,-33.043 39.9168,-44.286 0,4.37 2.4795,9.991 3.7315,13.723 -29.3116,38.665 -46.1523,92.918 -40.5306,132.197 4.3697,-16.841 11.219,-33.043 18.0927,-48.018 1.2275,10.605 2.4795,21.21 3.7315,31.815 11.2189,-19.344 15.5887,-44.9 26.8076,-65.472 4.9835,5.597 11.219,10.581 12.471,20.572 5.6217,-31.816 19.3447,-52.388 33.6814,-79.195 0.7364,2.504 3.7314,16.84 3.7314,20.572 -14.9504,43.034 -33.6568,86.044 -49.8838,128.465 z m -141.5502,-346.683 c 31.1773,3.118 53.6152,19.32 81.6749,26.808 -6.8492,-9.967 -16.2024,-18.068 -22.4379,-28.06 24.3036,1.964 48.0181,17.455 69.204,29.312 -8.1012,-7.488 -15.5887,-14.975 -22.4379,-23.076 20.5721,3.118 38.0266,14.336 56.733,22.462 0,0 0.7365,0.737 0.7365,0.737 -7.4875,-1.228 -13.723,1.964 -19.9585,1.227 11.8572,8.715 20.5967,21.186 29.9499,31.178 -6.8737,-1.228 -18.7064,-3.756 -24.3281,-4.37 -0.491,0.491 -0.491,0 -0.491,0.491 11.8572,13.723 21.2104,27.446 28.0596,41.169 -23.0761,-31.178 -60.489,-48.632 -110.9865,-52.388 -18.7065,-1.228 -31.1774,1.227 -45.5141,8.101 -16.227,-13.698 -33.6814,-23.69 -53.6398,-31.177 0,0 0.4909,0 0.4909,0 -7.4874,-7.463 -22.4379,-13.699 -33.0431,-21.186 34.2952,-0.737 61.1028,19.958 91.6664,24.303 -9.3532,-8.101 -20.5721,-16.202 -26.1939,-26.169 z m -6.2355,135.315 c -15.5887,-48.632 -39.9169,-82.313 -74.212,-100.406 0,0 0,-0.491 0,-0.491 26.8076,10.605 48.6318,23.69 70.456,42.397 0,-4.37 1.9639,-9.354 1.9639,-13.723 18.7064,16.84 46.1523,26.193 56.7576,51.774 0,-5.622 2.4794,-11.244 1.9639,-17.479 8.1012,13.109 16.2024,29.95 17.4544,44.9 0,-20.572 -10.6052,-44.262 -25.5556,-63.607 -5.008,-6.235 -9.9915,-11.832 -14.975,-17.454 11.219,0 21.8242,0 32.4294,-0.491 -7.4875,4.983 -8.7395,11.219 -13.7229,17.454 23.0761,3.118 46.766,6.849 69.8422,9.967 0.491,0 0.491,0 0,0 -12.471,3.118 -14.975,12.471 -14.975,12.471 16.8407,2.504 39.2786,6.236 49.8838,17.479 -3.7314,0.737 -7.4874,1.964 -10.6052,2.48 1.2275,3.117 2.504,5.621 4.3698,8.739 -44.2621,0 -95.3979,19.959 -118.4741,33.657 -8.7149,5.008 -23.6899,13.109 -31.1774,23.714 4.3698,-16.84 4.9835,-33.067 -0.4909,-51.774 z m 417.1386,9.353 c 14.3613,4.984 32.4294,11.219 46.1524,15.589 -3.7315,-4.984 -10.6052,-11.219 -16.2024,-15.589 -36.1854,-27.446 -171.4756,-39.278 -217.628,0.491 13.723,-18.706 34.2951,-35.547 50.4976,-48.018 -13.6985,1.964 -31.1774,4.37 -42.3964,5.622 19.9585,-14.337 38.0512,-27.446 61.7411,-34.295 -7.4875,-0.491 -13.1093,-3.732 -21.8242,-2.504 18.0681,-15.589 41.1443,-18.068 66.0862,-21.824 -8.1012,-3.118 -18.0681,-8.715 -26.1939,-11.833 25.5802,-3.756 51.7741,-5.622 76.0777,-7.488 -8.7149,-3.731 -18.0681,-8.739 -27.4213,-12.47 16.8161,-1.964 33.6568,-4.37 50.4975,-6.85 -21.8242,-13.109 -48.0181,-11.243 -73.5737,-7.487 -54.2536,8.715 -94.7842,48.018 -115.3563,96.65 3.7314,-24.942 6.8492,-50.522 8.7149,-76.692 -3.1177,9.967 -9.3532,19.32 -16.2024,27.422 -5.6218,-14.337 -8.7395,-33.043 -12.471,-48.632 -2.504,6.235 -9.3532,13.723 -11.2189,19.958 -6.8738,-20.572 -9.9915,-38.665 -27.4459,-52.388 0,8.74 -0.491,18.093 0.7365,26.194 -3.7315,-13.723 -15.5887,-29.925 -28.6734,-34.908 10.6052,13.698 21.8241,28.673 24.9419,45.514 -9.9915,-3.118 -15.5887,0 -23.6899,1.963 -22.4625,-15.588 -45.5386,-23.076 -81.0612,-25.555 -36.1854,-2.504 -102.8854,-14.361 -148.424,0 14.975,-10.605 31.1774,-19.959 41.7826,-29.312 -15.5887,-0.736 -19.9584,-0.736 -35.5471,-1.227 26.1939,-13.085 46.7661,-19.959 75.464,-22.438 -6.8738,-2.504 -12.471,-5.622 -21.2105,-6.236 18.0927,-9.991 34.2952,-18.706 55.5056,-20.596 -5.6217,-5.598 -11.8572,-10.581 -20.5722,-13.085 24.9419,0.736 50.4976,6.235 74.1875,12.471 -6.8492,-6.849 -14.3367,-14.337 -19.3202,-22.438 19.3202,4.345 36.1609,11.833 54.8673,18.068 -26.1939,-36.161 -79.8092,-46.128 -119.726,-24.942 -48.0181,25.58 -87.2967,72.347 -117.8358,117.861 -5.6218,-29.312 -31.1774,-61.741 -52.3878,-76.078 0,7.487 -1.2275,16.202 2.504,24.328 -7.4875,-21.21 -26.1939,-43.035 -48.6318,-54.253 -1.964,8.101 -6.8738,13.722 -6.2355,21.185 -8.7395,-15.588 -26.1939,-31.791 -44.2866,-39.278 0,1.964 0,8.101 0,8.739 -20.5722,-8.101 -43.6484,-20.572 -64.8343,-23.076 15.5887,13.723 32.4049,29.312 54.8673,38.027 -8.1012,1.964 -17.4544,8.739 -26.1939,9.353 21.8242,11.243 43.6484,22.462 67.9765,32.429 -7.4875,0.737 -18.7064,5.622 -26.1939,6.236 19.9585,11.219 39.2786,23.076 61.7165,31.177 -7.4629,-2.479 -20.5722,-2.479 -31.7911,-2.479 1.2275,1.964 3.1177,3.731 4.9835,5.597 -36.7746,-7.488 -75.4395,-8.715 -106.0031,-3.732 -38.027,6.236 -76.691,21.825 -102.247,48.019 15.589,-3.756 33.657,-11.244 47.38,-19.345 -6.85,5.622 -10.606,13.109 -13.723,19.958 24.942,-11.219 47.404,-19.958 74.2117,-27.446 -3.756,5.622 -3.1177,9.992 -5.6217,14.975 24.3281,-13.084 50.5221,-19.958 76.6914,-18.706 -3.7314,3.731 -6.8492,11.857 -10.5807,16.202 28.0597,-1.227 62.9685,-2.479 90.4145,4.37 -6.8738,2.504 -12.471,6.874 -17.479,11.219 -47.3798,0 -91.6419,13.109 -127.8273,48.018 -18.0681,17.454 -31.7909,39.279 -34.9089,59.237 3.732,-14.337 14.3368,-29.925 23.69,-41.783 -1.2275,5.622 0.4909,11.858 -0.491,17.479 14.3367,-23.714 43.0346,-29.311 63.6068,-43.034 -0.491,4.37 0.4909,9.353 0,13.723 23.6899,-15.589 48.018,-25.58 76.0777,-31.816 -0.491,3.118 -0.491,6.236 -0.491,9.353 -36.7991,27.446 -62.993,79.196 -72.96,115.357 -4.3697,14.975 -4.3697,30.563 -4.9835,46.766 9.967,-18.707 14.9505,-42.397 22.4379,-61.717 0.491,5.597 4.3698,12.471 6.2355,18.707 0.7365,0 1.2275,0 1.9639,0 0,-0.737 0,-0.737 0,-1.228 7.4875,-4.369 11.219,-10.605 18.0927,-14.975 -3.756,22.463 -18.7064,47.405 -16.2269,69.843 9.9915,-16.203 18.0927,-32.43 21.8241,-51.75 7.4875,4.37 11.2435,13.085 14.975,21.824 8.1012,-16.202 14.975,-31.791 16.2024,-51.749 2.504,4.983 8.1258,8.715 10.6052,13.723 9.3533,-19.345 16.8407,-44.287 18.0927,-67.977 3.7315,8.101 7.4875,16.841 9.967,26.194 0,6.235 0,11.219 0,15.589 11.8572,-1.228 17.4544,-13.11 24.3282,-21.825 -1.964,19.321 -3.1178,51.136 -8.7395,71.708 3.1177,-8.739 8.7395,-16.227 16.2269,-23.076 1.2275,23.076 0,46.128 0.491,69.204 2.4795,-3.117 8.1012,-4.983 10.5807,-8.101 0.491,20.572 -4.9835,38.665 -10.5807,57.371 9.3532,-3.756 17.4545,-11.857 22.4379,-20.572 -1.9639,18.707 -6.2355,36.775 -9.3532,55.481 33.0431,-36.161 34.9089,-91.666 27.4214,-142.777 6.2355,9.353 13.1092,18.706 18.7064,27.421 32.4294,55.505 59.237,125.961 79.1955,190.182 14.3367,47.404 23.0761,87.297 21.2104,138.432 -9.3532,31.792 21.8242,51.75 51.1358,55.506 31.7911,5.597 63.5822,-6.236 55.481,-35.547 -6.8492,-28.06 14.3367,-162.761 33.0431,-239.452 8.7395,-36.161 25.5802,-70.456 30.5637,-106.003 3.1177,23.69 7.4875,49.27 17.4544,61.741 2.504,-8.102 5.6218,-18.093 4.9835,-24.329 2.504,19.345 8.1258,38.052 13.1092,56.758 2.4795,-5.622 9.3532,-11.857 11.8327,-16.841 3.1177,21.186 7.4875,41.783 12.471,61.717 3.1177,-6.236 10.6052,-11.219 14.3612,-16.203 2.4795,19.959 12.4709,38.027 20.5722,54.868 3.1177,-16.841 -2.5041,-38.665 -4.9835,-56.733 0.491,0 5.5972,2.479 8.1012,3.117 -2.504,-15.588 -12.471,-34.933 -23.6899,-46.766 6.2355,3.732 12.4709,1.964 19.9339,3.732 -4.9835,-20.572 -19.3202,-43.01 -36.1609,-56.119 6.2355,5.621 14.3367,8.101 20.5722,10.605 -6.8492,-18.707 -24.9419,-45.514 -46.1278,-61.717 6.2355,0.737 11.8327,1.964 17.4544,3.118 -8.1012,-3.118 -14.9749,-8.739 -23.0762,-12.471 18.7065,-3.756 36.1609,2.48 54.8673,3.732 -4.9834,-3.732 -8.1012,-9.354 -14.3367,-12.471 0.491,-0.737 -1.9639,-3.118 -1.9639,-3.118 19.9584,-3.732 36.7991,6.235 55.5056,9.353 -6.2355,-3.731 -9.9915,-8.739 -16.227,-11.857 23.7145,-4.345 46.1523,4.37 66.7245,15.588 -5.5972,-4.345 -10.6052,-13.698 -14.9504,-18.706 24.3036,0.737 41.1443,19.959 62.3548,21.824 -5.0081,-5.597 -11.8573,-16.816 -15.5887,-20.572 z"
       class="fil16" />
    <path
       style="clip-rule:evenodd;fill:#2c2c2c;fill-rule:nonzero;stroke-width:0.62354326;image-rendering:optimizeQuality;shape-rendering:geometricPrecision;text-rendering:geometricPrecision"
       inkscape:connector-curvature="0"
       id="path2877"
       d="m -9370.1581,-17782.037 c 0,0 0,0 0,0 0,0 0,0 0,0 1.2275,0 1.2275,0 0,0 z"
       class="fil16" />
    <path
       style="clip-rule:evenodd;fill:#ff5043;fill-rule:nonzero;stroke-width:0.62354326;image-rendering:optimizeQuality;shape-rendering:geometricPrecision;text-rendering:geometricPrecision"
       inkscape:connector-curvature="0"
       id="path2879"
       d="m -10519.965,-17511.408 c -1.228,-23.689 -2.504,-49.883 -2.504,-74.825 0,-18.093 0,-28.698 1.227,-54.868 -14.975,1.964 -27.446,3.732 -27.446,3.732 l -4.983,-26.194 c 0,0 21.824,-3.731 43.648,-5.597 20.572,-1.964 41.783,-2.504 41.783,-2.504 l 4.37,24.942 c 0,0 -12.471,0.736 -27.446,1.964 -0.491,21.21 -1.228,37.412 -1.228,58.623 0,26.808 0.491,52.363 0.491,77.305 z"
       class="fil17" />
    <path
       style="clip-rule:evenodd;fill:#ff5043;fill-rule:nonzero;stroke-width:0.62354326;image-rendering:optimizeQuality;shape-rendering:geometricPrecision;text-rendering:geometricPrecision"
       inkscape:connector-curvature="0"
       id="path2881"
       d="m -10404.633,-17586.233 c 22.462,-10.606 39.916,-28.06 39.916,-39.279 0,-14.361 -9.353,-20.597 -18.706,-20.597 -6.235,0 -13.085,1.228 -20.572,3.756 0,18.707 0,38.027 0,56.12 z m -33.044,76.691 c 1.964,-36.799 3.118,-74.212 3.118,-110.986 0,-13.11 0,-26.194 0,-39.279 16.227,-7.487 34.934,-11.857 51.136,-11.857 24.328,0 46.152,16.202 46.152,48.018 0,19.958 -17.479,38.026 -37.413,50.497 14.337,17.455 28.674,36.8 41.759,56.12 l -21.186,15.588 c -13.11,-19.958 -31.178,-43.648 -50.522,-69.204 -0.491,20.573 -1.228,43.649 -1.964,64.835 l -30.539,-3.118 z"
       class="fil17" />
    <path
       style="clip-rule:evenodd;fill:#ff5043;fill-rule:nonzero;stroke-width:0.62354326;image-rendering:optimizeQuality;shape-rendering:geometricPrecision;text-rendering:geometricPrecision"
       inkscape:connector-curvature="0"
       id="path2883"
       d="m -10264.335,-17568.165 24.942,-0.737 -11.219,-68.59 -14.337,69.204 z m 28.698,22.462 -33.043,1.228 -8.74,41.758 -31.177,-2.48 39.917,-162.122 41.144,3.731 29.312,151.518 -32.43,-2.48 z"
       class="fil17" />
    <path
       style="clip-rule:evenodd;fill:#ff5043;fill-rule:nonzero;stroke-width:0.62354326;image-rendering:optimizeQuality;shape-rendering:geometricPrecision;text-rendering:geometricPrecision"
       inkscape:connector-curvature="0"
       id="path2885"
       d="m -10153.962,-17661.059 c 4.369,27.421 11.219,65.472 21.21,107.255 h 0.737 c 9.966,-38.051 18.706,-79.195 24.941,-117.247 l 29.312,2.505 c -9.353,49.27 -26.832,109.734 -44.287,159.004 l -25.555,-2.504 c -14.337,-49.884 -26.194,-98.515 -35.547,-150.879 l 28.673,2.48 z"
       class="fil17" />
    <path
       style="clip-rule:evenodd;fill:#ff5043;fill-rule:nonzero;stroke-width:0.62354326;image-rendering:optimizeQuality;shape-rendering:geometricPrecision;text-rendering:geometricPrecision"
       inkscape:connector-curvature="0"
       id="path2887"
       d="m -9970.6295,-17517.029 c -9.9915,4.983 -24.3282,8.739 -44.9005,8.739 l -34.295,-3.118 c -0.491,-17.454 -0.491,-35.547 -0.491,-56.757 0,-26.17 1.964,-66.7 3.731,-92.28 30.564,-4.984 56.1198,-5.597 74.8262,-5.597 v 27.421 c -14.9504,0 -31.7912,0.736 -46.7662,1.964 -0.491,12.471 -0.491,26.194 -1.227,38.665 13.723,-1.964 25.5798,-2.48 40.5303,-3.118 l 4.3697,24.328 c -13.0847,0 -31.791,1.964 -44.9,3.118 0,15.589 0,26.807 0,38.665 17.479,-1.228 33.6811,-4.37 46.7657,-6.874 l 3.7561,24.328 z"
       class="fil17" />
    <path
       style="clip-rule:evenodd;fill:#ff5043;fill-rule:nonzero;stroke-width:0.62354326;image-rendering:optimizeQuality;shape-rendering:geometricPrecision;text-rendering:geometricPrecision"
       inkscape:connector-curvature="0"
       id="path2889"
       d="m -9933.855,-17513.273 c -1.9639,-28.698 -3.1177,-56.758 -3.1177,-84.818 0,-23.076 0.491,-46.766 2.504,-69.203 l 29.9254,2.479 c -2.4795,25.58 -3.1178,51.136 -3.1178,75.464 0,16.202 0,33.043 1.2275,49.884 12.471,-1.964 26.8076,-3.118 39.2786,-4.37 l 4.3697,26.194 c -13.7229,1.964 -27.4213,3.731 -47.3798,6.849 l -23.6899,-1.964 z"
       class="fil17" />
    <path
       style="clip-rule:evenodd;fill:#2c2c2c;fill-rule:nonzero;stroke-width:0.62354326;image-rendering:optimizeQuality;shape-rendering:geometricPrecision;text-rendering:geometricPrecision"
       inkscape:connector-curvature="0"
       id="path2891"
       d="m -10531.822,-17306.889 -0.491,-17.454 c 0,0 0,-2.504 0.491,-8.101 -0.491,-1.964 -1.964,-19.345 -3.732,-52.388 -1.964,-33.043 -3.118,-53.002 -3.118,-59.851 0,0 -0.491,0 -0.491,0 -12.471,0 -18.706,-2.504 -18.706,-6.874 0,-1.227 0.736,-2.479 2.479,-3.731 1.964,-1.228 3.118,-1.228 4.984,-1.228 l 31.177,1.964 h 3.756 c 4.984,0 7.488,1.964 7.488,5.622 0,1.964 -0.491,3.118 -2.504,4.37 -1.964,1.227 -3.118,1.964 -5.622,1.964 l -10.581,-1.964 -0.491,2.479 c 0,14.337 1.228,36.161 3.732,65.473 2.504,29.311 3.731,51.135 3.731,65.472 0,1.964 -0.491,3.118 -2.479,4.984 -1.964,1.227 -3.756,1.964 -5.622,1.964 l -4.37,-3.118 z"
       class="fil16" />
    <path
       style="clip-rule:evenodd;fill:#2c2c2c;fill-rule:nonzero;stroke-width:0.62354326;image-rendering:optimizeQuality;shape-rendering:geometricPrecision;text-rendering:geometricPrecision"
       inkscape:connector-curvature="0"
       id="path2893"
       d="m -10483.804,-17442.204 -0.491,57.372 c 2.479,0.491 6.849,1.227 12.471,1.227 h 8.101 c 0.491,-0.736 0.491,-3.118 0.491,-7.487 0,-4.37 -0.491,-13.723 -1.228,-28.06 -1.227,-14.337 -1.227,-25.556 -1.227,-33.043 0,-1.964 0.491,-3.118 1.964,-4.37 1.227,-1.227 2.504,-1.964 3.731,-1.964 1.228,0 2.504,0 3.118,0.491 0.491,0 1.964,0.737 2.504,0.737 0.737,0.491 1.964,0.491 1.964,0.491 0,19.958 0.491,49.27 2.504,87.91 1.227,38.665 2.479,58.623 2.479,59.875 0,1.228 -0.491,2.48 -2.479,3.732 -1.964,1.227 -3.118,1.964 -5.622,1.964 -1.964,0 -3.731,-1.228 -4.983,-4.345 -1.228,-3.118 -1.964,-7.488 -2.504,-13.11 -0.491,-5.597 -0.491,-10.605 -0.491,-14.95 0,-1.964 0,-3.756 0,-6.236 0,-3.117 0,-6.873 0,-10.605 0,-6.874 0,-11.219 0,-12.471 v -0.736 l 0.491,-6.849 -1.228,-1.964 v 0 c -1.227,0 -2.479,0.491 -4.369,0.491 l -14.951,-1.964 v 26.807 l 1.228,38.051 c 0,2.48 -0.491,4.346 -1.964,5.598 -1.228,1.964 -2.504,2.504 -4.984,2.504 -3.118,0 -5.008,-2.504 -6.235,-8.102 -1.228,-5.621 -1.964,-13.109 -1.964,-23.076 l 0.491,-34.933 c 0,-7.463 0,-11.219 -0.491,-11.833 v -1.227 c 0.491,-8.101 0.491,-12.471 0.491,-13.723 l -1.964,-52.363 c 0,-1.964 0.736,-3.118 1.964,-5.008 1.227,-1.228 3.118,-1.964 4.345,-1.964 5.008,0 7.487,4.369 7.487,13.723 z"
       class="fil16" />
    <path
       style="clip-rule:evenodd;fill:#2c2c2c;fill-rule:nonzero;stroke-width:0.62354326;image-rendering:optimizeQuality;shape-rendering:geometricPrecision;text-rendering:geometricPrecision"
       inkscape:connector-curvature="0"
       id="path2895"
       d="m -10431.441,-17419.741 -1.228,-19.345 c 0,-10.605 3.118,-16.202 9.992,-16.202 4.345,0 9.967,1.227 16.816,3.117 6.874,1.964 10.605,4.37 10.605,7.488 0,3.118 -2.479,5.597 -6.849,7.463 -6.874,-2.48 -13.109,-3.732 -17.454,-4.345 0,3.117 0.491,6.849 0.491,9.967 l -1.228,33.043 c 0,0 0,1.227 0.491,3.756 l 8.101,-0.737 c 7.488,0 11.219,1.964 11.219,6.236 0,1.964 -0.491,3.117 -1.964,4.369 -1.227,1.228 -3.117,1.964 -4.983,1.964 -1.964,0 -4.37,0 -6.874,-0.736 h -5.597 c 0.491,5.597 0.491,11.833 0.491,17.454 l -1.227,41.783 c 0,8.715 0,13.085 0.491,13.085 l 16.84,-0.737 c 5.597,0 8.715,1.964 8.715,5.597 0,2.504 -1.227,3.756 -3.118,5.008 -1.964,1.228 -4.369,1.964 -6.849,1.964 h -19.32 c -1.964,0 -3.756,-0.736 -5.622,-1.964 -1.964,-1.227 -2.504,-3.117 -2.504,-5.008 v -6.235 l -1.227,-39.279 1.964,-67.338 z"
       class="fil16" />
    <path
       style="clip-rule:evenodd;fill:#ff5043;fill-rule:nonzero;stroke-width:0.62354326;image-rendering:optimizeQuality;shape-rendering:geometricPrecision;text-rendering:geometricPrecision"
       inkscape:connector-curvature="0"
       id="path2897"
       d="m -10113.432,-17720.91 h 14.975 c 0,0 5.597,-1.227 8.101,-2.504 l 2.504,-1.227 c 1.228,-1.228 6.85,-4.37 6.85,-4.37 1.227,-1.227 5.621,-4.345 5.621,-4.345 0,0 4.346,-4.37 4.346,-5.622 0,-1.227 3.117,-4.37 3.117,-5.622 v -20.572 c 0,-1.227 -1.964,-4.37 -1.964,-5.597 -1.227,-2.504 -5.597,-12.471 -6.849,-13.723 0,-1.227 -5.622,-5.622 -5.622,-6.874 l -2.479,-4.345 c 0,0 -4.37,-2.504 -5.622,-4.37 -1.227,0 -4.37,-2.504 -4.37,-2.504 -2.479,-1.227 -6.849,-2.479 -9.353,-4.369 -1.227,-1.228 -5.597,-4.346 -5.597,-4.346 0,0 -5.622,-6.873 -6.874,-8.125 -2.479,-4.346 -5.597,-8.102 -6.849,-13.699 0,-1.227 -1.227,-5.622 -1.227,-5.622 v -6.849 c 0,-1.227 2.504,-9.353 2.504,-11.243 0,0 1.227,-2.48 2.479,-2.48 1.228,-1.227 8.101,-5.621 8.101,-5.621 0,0 6.874,-1.228 8.126,-1.228 h 4.345 c 1.228,0 6.874,1.228 6.874,1.228 l 2.479,2.504 c 0,0 2.504,5.597 4.37,6.849 0,1.227 2.504,4.37 2.504,5.622 0,1.227 1.228,4.369 1.228,4.369 0,2.48 1.227,11.833 1.227,14.951 h 9.353 c 1.964,0 5.598,-1.228 6.85,-1.228 v -9.353 c 0,-1.227 -1.228,-10.581 -1.228,-11.833 0,0 -1.227,-2.504 -1.227,-4.369 l -1.228,-2.504 c 0,-1.228 -3.118,-4.346 -3.118,-4.346 -1.227,-1.227 -2.479,-2.504 -4.369,-2.504 h -1.228 l -4.345,-2.504 -8.101,-4.345 h -23.076 c 0,0 -2.504,1.228 -4.37,1.228 l -5.622,4.369 -5.597,1.228 -6.874,6.849 -4.345,5.622 -1.227,1.227 c 0,1.228 -2.504,4.37 -2.504,5.597 -1.228,2.504 -4.37,10.606 -4.37,10.606 v 9.353 l 1.227,4.37 c 0,1.227 5.622,6.849 5.622,8.101 l 1.227,2.504 2.48,4.37 1.227,1.227 2.504,1.227 1.228,1.228 c 2.504,1.227 9.967,6.849 11.219,8.101 0,0 5.622,2.504 6.874,4.37 1.227,0 8.101,5.622 9.353,5.622 1.227,1.227 6.849,5.597 8.101,5.597 0,0 4.37,2.504 4.37,4.37 l 2.479,4.369 c 0,0 1.228,2.48 1.228,4.37 0,1.228 2.504,8.101 2.504,9.353 v 1.228 l -1.228,3.756 -1.227,5.597 c 0,1.227 -1.228,4.37 -1.228,4.37 0,1.227 -2.504,4.369 -2.504,4.369 0,0 -4.369,2.504 -5.597,2.504 l -4.37,1.228 -5.621,2.504 h -2.48 c -2.504,0 -9.353,-1.228 -9.353,-1.228 -1.228,0 -4.37,-2.479 -5.622,-2.479 l -2.504,-2.504 c -1.964,-1.227 -5.597,-8.101 -5.597,-8.101 0,0 -1.227,-6.874 -1.227,-9.353 v -4.37 h -12.471 c 0,1.227 1.227,9.353 1.227,10.605 0,0 1.227,5.597 2.479,6.849 0,1.228 2.504,4.37 2.504,5.622 0,1.227 2.504,4.37 2.504,4.37 l 5.598,5.597 c 1.227,1.227 8.739,4.37 9.991,5.622 1.228,0 4.345,1.227 5.597,1.227 z"
       class="fil17" />
    <path
       style="clip-rule:evenodd;fill:#ff5043;fill-rule:nonzero;stroke-width:0.62354326;image-rendering:optimizeQuality;shape-rendering:geometricPrecision;text-rendering:geometricPrecision"
       inkscape:connector-curvature="0"
       id="path2899"
       d="m -10055.447,-17374.227 c 0,0 -1.227,6.849 -1.227,8.101 0,1.228 -2.48,8.101 -2.48,9.353 -1.227,2.504 -4.369,11.219 -4.369,12.471 0,1.228 -2.504,5.622 -2.504,5.622 0,0 -5.598,4.345 -6.85,5.597 -1.227,1.228 -4.369,2.504 -4.369,2.504 h -5.598 c -1.227,0 -4.369,-1.227 -5.621,-1.227 -1.228,0 -5.622,-2.504 -5.622,-2.504 -1.228,0 -4.345,-4.345 -4.345,-5.597 l -1.228,-5.622 c 0,-1.228 -2.504,-8.101 -2.504,-9.353 0,-1.228 -1.227,-5.598 -1.227,-6.85 0,-2.504 -1.228,-8.101 -1.228,-9.353 v -9.353 c 0,-2.504 1.228,-16.227 1.228,-19.345 0,-1.227 1.227,-5.597 1.227,-6.849 l 1.228,-4.37 c 0,-1.227 2.504,-8.101 2.504,-9.353 l 1.227,-2.479 c 0,-1.228 5.597,-6.874 5.597,-8.126 l 1.228,-2.48 c 1.227,-1.227 4.37,-4.369 5.622,-4.369 0,0 8.101,-2.504 11.219,-2.504 h 1.227 l 4.37,1.227 c 1.227,0 5.597,2.504 5.597,2.504 0,0 2.504,5.597 4.37,6.849 l 1.227,2.504 c 0,1.228 1.228,5.598 1.228,5.598 v 48.018 z m 14.975,-60.489 c 0,-1.228 -2.504,-6.849 -2.504,-6.849 0,-1.228 -4.345,-5.622 -5.597,-6.874 l -5.622,-4.37 -1.227,-1.227 c -1.228,0 -5.597,-1.228 -6.849,-1.228 h -6.874 l -2.48,1.228 h -8.101 c 0,0 -4.37,1.227 -5.622,2.479 -1.227,1.228 -8.101,5.622 -9.353,5.622 l -1.227,1.227 c -1.228,2.48 -8.101,11.219 -9.353,12.471 l -1.228,2.48 -1.227,1.227 c 0,1.228 -2.504,6.849 -2.504,8.101 -1.228,6.874 -6.85,27.446 -6.85,28.698 v 29.926 c 0,0 1.228,5.597 1.228,6.849 l 1.227,5.622 1.228,6.849 c 0,1.227 2.504,6.874 2.504,8.101 0,1.228 2.479,5.622 2.479,5.622 l 14.975,13.723 c 0,0 4.37,1.227 5.597,1.227 h 20.597 c 1.228,0 4.345,-2.504 5.597,-4.369 l 13.723,-13.723 c 0,0 2.504,-5.622 4.37,-6.85 l 1.227,-2.504 1.228,-5.621 c 0,-1.228 2.479,-6.85 2.479,-8.102 0,-1.227 1.228,-6.849 1.228,-8.101 v -59.237 c 0,0 -1.228,-6.849 -1.228,-8.101 0,-1.227 -1.227,-5.622 -1.227,-5.622 z"
       class="fil17" />
    <path
       style="clip-rule:evenodd;fill:#ff5043;fill-rule:nonzero;stroke-width:0.62354326;image-rendering:optimizeQuality;shape-rendering:geometricPrecision;text-rendering:geometricPrecision"
       inkscape:connector-curvature="0"
       id="path2901"
       d="m -10323.572,-17845.006 c 0,1.228 1.227,5.622 1.227,5.622 h 24.942 c 0,0 1.228,2.48 1.228,4.345 0,1.228 1.227,6.874 1.227,8.126 0,2.48 1.227,20.572 1.227,23.052 0,1.227 1.228,21.824 1.228,23.076 0,8.101 2.504,43.648 2.504,52.388 l 1.227,5.597 h 9.354 c 1.227,0 4.369,-1.228 4.369,-1.228 v -1.227 c 0,-1.227 -1.227,-9.353 -1.227,-11.219 v -66.724 c 0,-1.228 -1.228,-13.723 -1.228,-18.093 0,-1.228 -1.227,-12.471 -1.227,-13.723 v -6.849 l 1.227,-1.228 5.598,-1.227 c 1.227,0 6.873,-2.48 8.125,-2.48 2.48,0 15.589,-1.227 18.069,-1.227 v -12.471 c 0,-1.228 -1.228,-4.37 -1.228,-4.37 h -5.597 c -1.228,0 -13.723,1.228 -14.975,1.228 -1.228,0 -18.093,1.227 -19.32,1.227 -1.228,0 -6.874,1.228 -6.874,1.228 -2.479,0 -15.589,2.479 -16.841,2.479 -1.227,0 -9.353,1.227 -11.219,1.227 -1.227,0 -4.369,1.228 -5.597,1.228 v 1.227 c 0,1.228 1.228,6.85 1.228,6.85 l 1.227,2.504 z"
       class="fil17" />
    <path
       style="clip-rule:evenodd;fill:#ff5043;fill-rule:nonzero;stroke-width:0.62354326;image-rendering:optimizeQuality;shape-rendering:geometricPrecision;text-rendering:geometricPrecision"
       inkscape:connector-curvature="0"
       id="path2903"
       d="m -10477.569,-17750.221 c -1.227,0 -12.471,1.227 -13.723,1.227 -2.504,0 -14.975,1.227 -18.093,1.227 h -4.345 c -1.227,0 -4.369,-1.227 -4.369,-1.227 l -2.504,-2.504 c 0,-2.504 -1.228,-16.202 -1.228,-19.32 v -35.547 c 0,-1.228 -1.227,-11.219 -1.227,-12.471 0,-2.504 -1.228,-26.194 -1.228,-28.698 0,-1.228 -1.227,-6.849 -1.227,-6.849 l -4.37,-4.37 -2.48,-1.228 h -9.353 l -1.227,1.228 v 18.093 c 0,6.849 1.227,28.673 1.227,33.043 0,1.227 1.228,6.849 1.228,8.101 0,1.227 1.227,11.219 1.227,12.471 v 2.504 c 0,8.101 4.37,43.648 4.37,52.363 0,1.228 1.227,2.504 2.479,4.37 h 19.345 c 1.228,0 6.849,-1.228 8.101,-1.228 h 2.48 c 1.227,0 14.975,-2.479 16.227,-2.479 h 1.227 c 1.228,0 5.597,-1.227 5.597,-1.227 l 2.504,-1.228 4.37,-1.227 v -6.85 c 0,-1.227 -1.227,-5.621 -1.227,-6.849 h -4.37 z"
       class="fil17" />
    <path
       style="clip-rule:evenodd;fill:#ff5043;fill-rule:nonzero;stroke-width:0.62354326;image-rendering:optimizeQuality;shape-rendering:geometricPrecision;text-rendering:geometricPrecision"
       inkscape:connector-curvature="0"
       id="path2905"
       d="m -10176.4,-17440.338 -1.228,1.228 c 0,0 -5.621,15.588 -6.873,20.572 0,1.227 -1.228,6.873 -1.228,8.126 0,1.227 -2.479,8.101 -2.479,9.353 0,1.227 -4.37,16.202 -4.37,18.068 0,1.227 -1.228,5.622 -1.228,5.622 0,1.227 -2.504,5.597 -2.504,6.849 0,1.227 -1.227,9.353 -1.227,11.219 l -1.228,5.622 v 6.849 l -1.227,3.117 v 4.37 l -1.227,1.228 c 0,1.227 -1.228,6.849 -1.228,8.101 l -1.227,2.504 -1.228,1.227 h -2.479 l -2.504,-2.504 -1.228,-2.504 -1.227,-6.849 -1.228,-4.37 c 0,-3.117 -2.479,-12.471 -2.479,-13.723 0,-1.227 -1.228,-9.353 -1.228,-11.219 0,0 -2.504,-12.47 -4.369,-18.068 l -1.228,-5.621 c 0,-1.228 -1.227,-8.102 -1.227,-9.354 0,-1.227 -1.228,-5.621 -1.228,-6.849 l -1.227,-4.37 c -1.228,-4.369 -2.504,-9.353 -2.504,-13.723 v -3.117 l -1.228,-4.37 c 0,-1.227 -1.227,-6.849 -1.227,-8.101 0,-1.228 -1.227,-5.622 -1.227,-5.622 l -1.228,-1.227 h -6.849 c -1.228,0 -6.874,1.227 -8.101,1.227 0,1.227 -4.37,11.243 -4.37,12.471 l -1.228,2.504 c 0,0 -1.227,4.37 -1.227,5.622 l -1.227,6.849 c 0,1.227 -4.37,11.219 -4.37,12.471 l -1.228,6.849 c 0,1.228 -2.504,6.874 -2.504,8.126 l -1.227,2.479 c 0,1.228 -4.345,9.354 -4.345,11.219 0,1.228 -5.622,12.471 -5.622,13.723 0,0 -1.228,4.37 -1.228,5.622 0,1.227 -1.227,6.849 -1.227,8.101 l -1.227,2.504 -1.228,1.228 -4.37,3.117 -1.227,-1.227 c -1.228,-1.964 -2.48,-4.37 -2.48,-4.37 v -4.37 c 0,-1.227 -4.369,-11.219 -4.369,-12.471 0,-1.227 -1.228,-4.369 -1.228,-5.621 0,-1.228 -1.227,-8.101 -1.227,-9.353 0,-1.228 -2.504,-11.219 -2.504,-12.471 0,-1.228 -2.48,-13.699 -2.48,-14.951 0,-1.227 -2.504,-8.101 -2.504,-9.353 0,-1.228 -2.504,-9.992 -2.504,-11.219 0,0 -2.479,-6.874 -4.345,-9.353 0,-1.228 -1.227,-2.504 -1.227,-2.504 h -1.228 c -1.227,0 -8.126,2.504 -9.353,2.504 h -6.874 v 2.479 c 0,1.228 2.504,11.219 4.37,13.723 l 1.227,2.504 c 0,0 1.228,4.345 1.228,5.597 l 1.227,6.874 c 0,0 2.504,6.849 4.37,9.353 l 1.228,2.48 1.227,4.37 c 0,1.227 2.479,5.621 2.479,6.849 l 1.228,2.504 c 0,1.227 2.504,9.353 2.504,11.219 l 1.227,2.504 c 0,1.227 2.504,8.101 2.504,9.353 0,1.227 2.48,6.849 2.48,6.849 l 1.227,4.37 1.228,3.118 c 0,1.227 4.369,14.975 4.369,16.202 0,1.228 2.504,6.874 2.504,8.126 l 1.228,1.227 h 18.068 l 1.228,-1.227 1.227,-2.504 1.227,-4.37 1.228,-2.479 c 0,-1.228 2.504,-6.874 2.504,-6.874 0,-1.228 4.37,-13.723 5.597,-18.068 l 1.228,-5.622 c 0,-1.228 2.504,-6.849 2.504,-8.101 l 1.227,-5.622 c 0,-1.227 2.504,-6.849 2.504,-8.101 0,0 1.228,-5.622 1.228,-6.849 v -1.228 c 0,-1.227 5.597,-11.219 5.597,-12.471 l 1.227,-6.874 1.228,-1.227 h 2.504 l 1.227,1.227 c 0,0 1.228,2.504 1.228,4.37 v 1.228 l 2.479,4.369 c 0,1.228 1.227,8.102 1.227,9.354 l 1.228,1.227 v 16.202 c 0,1.228 1.227,6.85 1.227,8.102 l 1.228,4.369 c 0,1.228 1.227,6.85 1.227,8.102 l 1.228,6.873 c 0,1.228 1.227,6.85 1.227,8.102 0,1.227 2.504,6.849 2.504,9.353 0,1.227 2.504,6.849 2.504,8.101 0,1.227 1.228,2.504 1.228,2.504 h 1.227 c 5.597,0 11.219,-1.227 16.203,-2.504 1.227,0 6.849,-1.227 8.101,-1.227 l 1.227,-1.228 1.228,-4.345 c 0,-1.228 4.369,-9.353 4.369,-11.244 0,-1.227 2.504,-6.849 2.504,-8.101 1.228,-3.118 8.102,-23.69 9.354,-26.194 l 1.227,-4.345 2.48,-5.622 1.227,-5.621 1.227,-2.48 c 0,-1.227 2.504,-5.622 2.504,-6.874 l 8.102,-24.942 v -1.227 c 0,-1.227 1.227,-6.874 1.227,-8.739 v -11.219 l -1.227,-1.228 h -18.093 z"
       class="fil17" />
    <path
       style="clip-rule:evenodd;fill:#ff5043;fill-rule:nonzero;stroke-width:0.62354326;image-rendering:optimizeQuality;shape-rendering:geometricPrecision;text-rendering:geometricPrecision"
       inkscape:connector-curvature="0"
       id="path2907"
       d="m -10382.171,-17739.616 c -1.227,0 -11.857,1.227 -13.723,1.227 h -6.849 l -1.228,-1.227 c 0,-4.37 -2.504,-20.597 -2.504,-24.942 v -14.975 l 2.504,-2.504 2.48,-1.228 c 0,0 6.874,-1.227 9.353,-1.227 1.228,0 9.353,-1.227 10.605,-1.227 v -13.723 l -1.227,-1.228 h -8.101 c -1.228,0 -8.102,3.118 -9.354,3.118 h -2.504 c -1.227,0 -4.369,-1.964 -4.369,-1.964 0,0 -1.228,-5.597 -1.228,-6.849 0,-1.228 -1.227,-11.219 -1.227,-12.471 l -1.228,-5.622 c 0,0 -1.227,-12.471 -1.227,-16.202 v -1.228 c 0,-1.227 1.227,-4.37 1.227,-4.37 0,0 2.504,-1.227 4.37,-1.227 1.227,0 6.874,-1.227 8.101,-1.227 1.228,0 14.975,-1.228 16.227,-1.228 2.48,0 13.723,-2.504 16.203,-2.504 v -4.37 c 0,-1.227 -1.228,-5.597 -1.228,-5.597 h -5.597 c -6.874,0 -32.429,2.48 -36.799,2.48 0,0 -5.622,1.227 -6.849,1.227 -2.504,0 -5.008,1.227 -6.874,2.504 v 55.481 c 0,1.227 1.227,19.345 1.227,20.597 v 51.111 l -1.227,2.504 c 0,1.227 1.227,4.37 1.227,4.37 h 3.756 c 1.228,0 16.203,-2.504 20.573,-4.37 l 5.597,-1.227 c 2.504,0 11.857,-1.228 14.975,-1.228 h 12.471 l 1.227,-2.479 v -5.622 l -1.227,-1.228 h -18.093 z"
       class="fil17" />
    <path
       style="clip-rule:evenodd;fill:#ff5043;fill-rule:nonzero;stroke-width:0.62354326;image-rendering:optimizeQuality;shape-rendering:geometricPrecision;text-rendering:geometricPrecision"
       inkscape:connector-curvature="0"
       id="path2909"
       d="m -9802.91,-17336.201 c -1.2274,0 -12.4709,1.228 -13.6984,1.228 -2.504,0 -14.9749,1.227 -18.0927,1.227 h -4.3697 c -1.2275,0 -4.3698,-1.227 -4.3698,-1.227 l -2.4794,-2.504 c 0,-2.48 -1.2275,-16.202 -1.2275,-19.32 v -35.547 c 0,-1.228 -1.2274,-11.219 -1.2274,-12.471 0,-2.48 -1.2275,-26.194 -1.2275,-28.674 0,-1.227 -1.2274,-6.873 -1.2274,-6.873 l -4.3698,-4.346 -2.504,-1.227 h -9.3532 l -1.2275,1.227 v 18.069 c 0,6.873 1.2275,28.697 1.2275,33.043 0,1.227 1.2274,6.873 1.2274,8.125 0,1.228 1.2275,11.219 1.2275,12.471 v 2.48 c 0,8.101 4.3697,43.648 4.3697,52.388 0,1.227 1.2275,2.479 2.5041,4.369 h 19.3201 c 1.2275,0 6.8738,-1.227 8.1012,-1.227 h 2.504 c 1.2275,0 14.975,-2.504 16.2025,-2.504 h 1.2274 c 1.2275,0 5.6218,-1.228 5.6218,-1.228 l 2.504,-1.227 4.3452,-1.227 v -6.874 c 0,-1.228 -1.2275,-5.597 -1.2275,-6.849 h -4.3452 z"
       class="fil17" />
    <path
       style="clip-rule:evenodd;fill:#ff5043;fill-rule:nonzero;stroke-width:0.62354326;image-rendering:optimizeQuality;shape-rendering:geometricPrecision;text-rendering:geometricPrecision"
       inkscape:connector-curvature="0"
       id="path2911"
       d="m -10194.493,-17828.165 1.227,1.228 h 8.102 l 1.227,-1.228 1.964,-2.504 c 0,-1.227 1.228,-5.597 1.228,-5.597 0,-1.964 1.227,-19.345 1.227,-20.597 0,0 1.227,-6.849 1.227,-9.353 0,-2.479 1.228,-8.101 1.228,-8.101 l 1.227,-1.228 v -1.227 l -1.227,-1.964 h -11.219 c -1.227,0 -8.101,1.964 -9.353,1.964 v 4.345 c 0,4.37 1.227,21.824 1.227,26.194 0,2.504 1.228,16.841 1.228,19.345 z"
       class="fil17" />
    <path
       style="clip-rule:evenodd;fill:#ff5043;fill-rule:nonzero;stroke-width:0.62354326;image-rendering:optimizeQuality;shape-rendering:geometricPrecision;text-rendering:geometricPrecision"
       inkscape:connector-curvature="0"
       id="path2913"
       d="m -9682.5702,-17375.479 c 0,2.504 -2.4794,9.353 -2.4794,11.219 -1.2275,2.504 -5.6218,12.471 -6.8738,13.723 l -12.4709,12.471 c 0,0 -4.3452,2.504 -5.5972,2.504 -2.504,1.227 -9.3533,4.345 -9.3533,4.345 h -8.1012 c -1.2274,0 -5.6217,-2.479 -5.6217,-2.479 0,0 -1.2275,-2.505 -1.2275,-4.37 v -35.547 c 0,-1.228 1.2275,-12.471 1.2275,-13.723 v -28.674 c 0,-1.227 -1.2275,-5.621 -1.2275,-6.849 v -12.471 l 1.2275,-1.227 c 1.2274,0 4.3697,-1.228 5.6217,-1.228 h 16.2025 l 8.1012,4.37 c 1.2274,1.227 6.8737,4.37 6.8737,4.37 1.2275,0 4.3452,4.345 5.5972,5.597 0,0 2.504,2.504 2.504,4.37 0,1.227 2.4795,5.621 2.4795,5.621 0,1.228 2.504,9.354 2.504,11.219 0,2.48 1.2275,13.723 1.2275,16.203 0,1.227 -1.2275,9.991 -1.2275,12.471 z m 5.6218,-44.262 c 0,-1.228 -1.2275,-5.622 -1.2275,-5.622 0,-1.227 -4.3697,-5.622 -4.3697,-6.849 -2.4795,-2.504 -11.219,-11.244 -12.471,-12.471 0,0 -5.5972,-2.504 -6.8492,-2.504 l -5.6217,-1.228 -1.2275,-1.227 h -24.9419 c -2.4795,0 -12.4709,2.504 -13.6984,2.504 v 22.438 c 0,1.227 -1.2275,12.471 -1.2275,13.723 0,5.622 -1.2274,23.076 -1.2274,26.194 v 72.96 l 1.2274,2.479 h 12.4464 c 0,0 2.5041,-1.227 4.3698,-1.227 l 2.504,-1.228 c 1.2275,0 8.1012,-4.369 9.3532,-4.369 2.4795,-1.228 9.3532,-5.622 11.219,-5.622 1.2274,-1.228 6.8492,-4.345 8.1012,-5.597 1.2274,-1.964 9.3532,-9.992 12.4709,-12.471 l 4.3698,-5.622 1.2274,-1.228 c 1.2275,-1.227 4.3698,-6.849 4.3698,-8.101 1.2274,-2.479 4.3697,-9.353 4.3697,-11.219 0,-1.227 1.2275,-8.101 1.2275,-11.219 v -6.873 c 0,-9.967 -1.2275,-19.321 -2.504,-29.287 0,-1.228 -1.2275,-5.622 -1.2275,-6.874 z"
       class="fil17" />
    <path
       style="clip-rule:evenodd;fill:#ff5043;fill-rule:nonzero;stroke-width:0.62354326;image-rendering:optimizeQuality;shape-rendering:geometricPrecision;text-rendering:geometricPrecision"
       inkscape:connector-curvature="0"
       id="path2915"
       d="m -9927.6195,-17402.925 c 0,0 -1.2274,4.37 -1.2274,5.622 l -1.2275,2.504 -1.2275,1.227 c 0,1.228 -5.5972,6.874 -5.5972,8.126 l -1.2274,1.227 c -1.2275,0 -4.3698,2.504 -5.6218,2.504 0,0 -4.3697,1.228 -5.5972,1.228 -1.2274,0 -8.1257,1.227 -9.3532,1.227 h -5.6217 c -1.2275,0 -5.6218,-1.227 -5.6218,-1.227 l -2.4794,-2.504 c 0,0 -1.2275,-5.597 -1.2275,-6.849 v -5.622 c 0,-6.849 1.2275,-27.421 1.2275,-29.925 0,-1.228 1.2274,-11.219 1.2274,-12.471 l 1.2275,-1.228 c 1.2274,0 6.8492,-1.227 8.7149,-1.227 h 6.8738 l 5.5972,1.227 6.8737,1.228 c 1.2275,0 4.3698,1.227 4.3698,1.227 1.2274,0 5.5972,2.48 5.5972,4.37 1.2274,0 4.3697,4.345 4.3697,5.597 l 1.2275,4.37 v 19.32 z m 9.9915,-34.295 c 0,-1.228 -4.3697,-5.597 -4.3697,-5.597 -1.2275,-1.228 -5.6218,-6.874 -6.8492,-6.874 -1.2275,0 -4.3698,-2.48 -5.6218,-2.48 -1.2274,0 -8.1012,-1.227 -9.3532,-1.227 h -18.0927 c -1.2275,0 -11.219,1.227 -13.6984,2.504 -1.2275,0 -4.3698,1.227 -4.3698,1.227 l -4.3697,4.37 v 8.101 c 0,4.37 -1.2275,33.068 -1.2275,36.8 v 9.353 c 0,12.471 1.2275,69.842 1.2275,82.313 h 2.504 c 1.2275,0 6.8492,-1.228 8.1012,-1.228 l 2.4795,-1.227 v -19.32 c 0,-1.228 -1.2275,-14.975 -1.2275,-16.227 v -19.32 c 2.504,0 13.723,-2.504 16.8407,-2.504 h 5.6218 l 2.4794,1.227 1.2275,2.504 c 0,1.228 4.3697,14.951 4.3697,16.203 1.2275,2.504 4.3698,14.975 5.6218,16.227 0,1.227 6.8492,12.471 6.8492,13.698 l 1.2274,5.622 1.2275,2.504 c 2.504,0 12.4709,-1.228 13.723,-1.228 l 2.504,-1.227 -8.1258,-24.942 c 0,-1.228 -4.3452,-6.849 -4.3452,-8.101 0,-1.228 -4.3697,-11.219 -4.3697,-12.471 l -1.2275,-1.228 -1.2274,-2.504 c 0,-1.227 -5.6218,-6.849 -5.6218,-8.101 v -4.37 l 1.2275,-1.227 c 1.2274,-1.228 11.2189,-6.874 12.4709,-8.126 l 1.2275,-1.227 c 1.9639,-2.504 6.8737,-9.354 6.8737,-11.244 0,-1.227 1.2275,-4.345 1.2275,-5.597 v -19.345 c 0,-1.227 -1.2275,-8.101 -2.504,-9.353 0,0 -2.504,-5.597 -4.3698,-6.849 z"
       class="fil17" />
    <path
       style="clip-rule:evenodd;fill:#ffffff;fill-rule:nonzero;stroke-width:0.62354326;image-rendering:optimizeQuality;shape-rendering:geometricPrecision;text-rendering:geometricPrecision"
       inkscape:connector-curvature="0"
       id="path2917"
       d="m -10471.972,-17736.498 -4.345,1.227 -2.504,1.227 c 0,0 -4.37,1.228 -5.622,1.228 h -1.227 c -1.228,0 -14.95,2.504 -16.202,2.504 h -2.505 c -1.227,0 -6.849,1.227 -8.101,1.227 h -19.32 c -1.227,-1.227 -2.504,-2.479 -2.504,-4.345 0,-8.126 -4.37,-43.648 -4.37,-52.388 v -2.504 c 0,-1.227 -1.227,-11.219 -1.227,-12.471 0,-1.227 -1.228,-6.849 -1.228,-8.101 0,-4.37 -1.227,-26.194 -1.227,-33.043 v -18.093 l 1.227,-1.227 h 9.354 l 2.504,1.227 4.369,4.37 c 0,0 1.228,5.622 1.228,6.874 0,2.479 1.227,26.169 1.227,28.673 0,1.228 1.228,11.219 1.228,12.471 v 35.547 c 0,2.48 1.227,16.203 1.227,19.32 l 2.48,2.504 c 0,0 2.504,1.228 4.369,1.228 h 4.37 c 2.504,0 14.975,-1.228 18.093,-1.228 1.227,0 12.471,-1.227 13.698,-1.227 h 4.37 c 0,1.227 1.228,5.622 1.228,6.849 v 6.874 z m 20.597,-33.068 -2.504,-2.48 h -4.37 l -5.597,1.228 c -1.227,0 -9.353,1.227 -11.243,1.227 h -4.346 c -1.227,0 -5.621,1.228 -6.873,1.228 h -9.354 c 0,-1.228 -1.227,-11.219 -1.227,-12.471 0,-4.37 -1.227,-14.951 -1.227,-16.203 v -9.353 c 0,-1.227 -1.228,-16.227 -1.228,-18.093 v -9.353 c 0,-1.227 -1.227,-5.597 -1.227,-6.849 0,-1.227 -1.228,-18.093 -1.228,-19.345 0,-1.227 -1.227,-6.849 -2.479,-9.353 0,-1.227 -2.504,-5.597 -2.504,-6.849 0,-1.228 -2.504,-4.37 -2.504,-4.37 0,0 -4.346,-1.227 -5.598,-1.227 h -16.227 c -1.227,0 -4.345,2.504 -5.597,2.504 l -1.227,1.227 -5.622,2.48 -6.849,6.873 v 50.498 c 0,1.227 1.227,8.101 1.227,9.353 v 2.504 c 0,2.48 2.48,20.572 2.48,23.076 1.227,8.102 4.37,42.397 4.37,50.498 0,1.227 2.504,9.353 2.504,11.219 l 1.227,1.227 h 6.849 c 1.228,0 12.471,-1.227 13.723,-1.227 h 6.849 c 1.228,0 6.874,-1.228 8.126,-1.228 1.228,0 11.219,-1.227 12.471,-1.227 l 6.849,-1.228 h 2.504 l 4.346,-1.227 6.873,-1.227 c 1.228,0 4.37,-1.228 5.597,-1.228 1.228,-2.479 11.244,-12.471 12.471,-14.95 l 4.37,-4.37 1.228,-2.504 v -1.228 c 0,-1.227 -1.228,-5.621 -1.228,-6.873 0,-2.48 -2.479,-11.219 -2.479,-11.219 z"
       class="fil0" />
    <path
       style="clip-rule:evenodd;fill:#ffffff;fill-rule:nonzero;stroke-width:0.62354326;image-rendering:optimizeQuality;shape-rendering:geometricPrecision;text-rendering:geometricPrecision"
       inkscape:connector-curvature="0"
       id="path2919"
       d="m -10362.851,-17732.767 -1.227,2.504 h -12.471 c -2.48,0 -12.471,1.227 -14.951,1.227 l -5.621,1.228 c -4.37,1.227 -19.321,4.37 -20.573,4.37 h -3.756 c 0,0 -1.227,-2.504 -1.227,-4.37 l 1.227,-2.48 v -51.135 c 0,-1.228 -1.227,-19.345 -1.227,-20.573 v -55.505 c 1.227,-1.228 3.756,-2.504 6.874,-2.504 1.227,0 6.849,-1.228 6.849,-1.228 4.37,0 29.925,-2.504 36.799,-2.504 h 5.597 c 0,0 1.228,4.37 1.228,5.622 v 4.345 c -2.48,0 -13.699,2.504 -16.203,2.504 -1.227,0 -14.975,1.228 -16.202,1.228 -1.228,0 -6.874,1.227 -8.126,1.227 -1.227,0 -4.345,1.228 -4.345,1.228 0,0 -1.228,2.504 -1.228,4.37 v 1.227 c 0,4.37 1.228,16.202 1.228,16.202 l 1.227,5.622 c 0,1.228 1.228,11.219 1.228,12.471 0,1.228 1.227,6.849 1.227,6.849 0,0 2.48,1.964 4.345,1.964 h 2.504 c 1.228,0 8.102,-3.118 9.354,-3.118 h 8.101 l 1.227,1.228 v 13.723 c -1.227,0 -9.353,1.227 -10.605,1.227 -2.479,0 -9.353,1.228 -9.353,1.228 l -2.48,1.227 -2.504,2.48 v 14.975 c 0,4.369 2.504,20.572 2.504,24.942 l 1.228,1.227 h 6.849 c 1.228,0 11.857,-1.227 13.723,-1.227 h 18.093 l 1.227,1.227 v 5.597 z m 18.707,2.504 v -22.462 c 0,0 -1.228,-2.48 -2.48,-2.48 l -2.504,-1.227 c -1.227,0 -4.37,-1.228 -4.37,-1.228 h -18.706 c -1.228,0 -6.849,1.228 -8.101,1.228 h -1.228 c -1.227,-1.228 -2.504,-4.37 -2.504,-4.37 v -12.471 c 0,0 -1.227,-2.504 -1.227,-4.37 h 12.471 c 0,0 2.504,-4.37 2.504,-5.597 l 4.37,-2.504 c 1.227,-1.227 5.597,-6.849 6.849,-8.101 l 1.227,-1.228 1.228,-2.504 v -18.068 l -1.228,-2.504 c -1.227,0 -6.849,-4.37 -8.101,-4.37 h -1.227 c -2.504,0 -4.37,1.228 -6.85,1.228 h -1.227 c -1.228,0 -11.244,-1.228 -12.471,-1.228 l -1.228,-4.345 v -13.723 c 2.48,0 11.833,-1.227 13.699,-1.227 l 2.504,-1.228 c 1.227,0 12.471,-1.227 13.723,-1.227 l 2.479,-1.228 1.228,-1.227 2.504,-4.37 c 0,-1.227 4.369,-8.739 5.622,-9.967 l 1.227,-2.504 v -2.504 c 0,-2.479 -2.504,-12.471 -2.504,-13.698 l -2.504,-2.504 -2.48,-1.228 h -25.58 c -4.345,0 -24.303,1.228 -28.673,1.228 -1.228,0 -4.37,2.504 -5.622,2.504 0,0 -10.58,9.353 -14.95,13.698 l -4.37,4.37 v 2.504 c 0,2.48 2.504,27.421 2.504,30.539 v 30.564 c 0,1.227 1.227,18.093 1.227,23.076 0,1.227 1.228,16.202 1.228,18.068 v 5.622 c 0,8.101 -1.228,16.841 -1.228,24.942 v 4.37 c 0,1.227 1.228,5.597 1.228,5.597 0,1.227 4.345,4.369 4.345,4.369 h 8.126 c 1.227,0 6.849,-2.479 8.101,-2.479 1.228,0 14.951,-2.504 20.572,-4.37 2.504,0 8.101,-1.227 8.101,-1.227 h 23.077 c 1.227,0 6.849,-2.504 8.101,-2.504 1.227,0 2.504,-1.228 2.504,-1.228 l 1.227,-4.369 z"
       class="fil0" />
    <path
       style="clip-rule:evenodd;fill:#ffffff;fill-rule:nonzero;stroke-width:0.62354326;image-rendering:optimizeQuality;shape-rendering:geometricPrecision;text-rendering:geometricPrecision"
       inkscape:connector-curvature="0"
       id="path2921"
       d="m -10326.052,-17856.225 c 1.228,0 4.37,-1.227 5.597,-1.227 1.228,0 9.354,-1.227 11.244,-1.227 1.227,0 13.698,-2.48 16.816,-2.48 0,0 5.622,-1.227 6.874,-1.227 1.227,0 18.068,-1.228 19.32,-1.228 1.228,0 13.723,-1.227 14.975,-1.227 h 5.597 c 0,0 1.228,2.504 1.228,4.369 v 12.471 c -2.48,0 -15.589,1.228 -18.068,1.228 -1.228,0 -6.874,2.479 -8.102,2.479 l -5.621,1.228 -1.228,1.227 v 6.849 c 0,1.228 1.228,12.471 1.228,13.723 0,4.37 1.227,16.227 1.227,18.093 v 66.725 c 0,1.227 1.227,9.353 1.227,11.219 v 1.227 c 0,0 -2.504,1.227 -4.369,1.227 h -9.353 l -1.228,-5.597 c 0,-8.101 -2.479,-43.648 -2.479,-52.388 0,-1.227 -1.228,-21.824 -1.228,-23.076 0,-2.479 -1.227,-20.572 -1.227,-23.051 0,-1.228 -1.228,-6.874 -1.228,-8.126 0,-1.228 -1.227,-4.345 -1.227,-4.345 h -24.942 c 0,0 -1.228,-4.37 -1.228,-5.622 l -1.227,-2.504 c 0,0 -1.228,-5.597 -1.228,-6.849 v -1.228 z m -5.621,23.077 1.227,1.227 2.504,1.228 h 21.824 c 0,0 1.964,4.369 1.964,6.873 v 8.102 c 0,4.369 1.228,25.555 1.228,27.421 0,1.227 2.479,12.471 2.479,13.723 v 1.227 c 0,2.504 1.227,19.32 1.227,21.824 v 13.723 c 0,2.48 1.228,13.723 1.228,16.203 0,1.227 1.227,4.37 1.227,4.37 l 2.504,2.504 h 16.203 c 1.227,0 6.874,-1.228 8.126,-1.228 1.227,0 4.345,-1.227 4.345,-1.227 l 2.504,-4.37 1.227,-1.228 4.37,-5.597 5.597,-5.621 1.964,-2.48 v -5.622 c 0,-4.369 -3.118,-31.791 -3.118,-35.547 v -61.716 l 1.228,-1.228 c 3.118,0 12.471,-2.504 13.723,-2.504 l 4.37,-2.479 1.227,-2.504 1.227,-1.228 1.228,-2.479 2.504,-2.504 c 1.227,-1.228 4.345,-5.622 4.345,-5.622 v -2.479 c 0,-1.228 -4.345,-6.874 -4.345,-8.102 -1.228,-1.227 -4.37,-11.243 -5.622,-13.723 h -4.37 l -4.369,1.228 h -19.32 c -2.504,0 -21.825,2.479 -24.942,2.479 h -2.504 c -1.228,0 -14.951,2.504 -18.069,2.504 -1.963,0 -6.873,1.228 -6.873,1.228 l -4.345,2.479 h -2.505 l -2.504,1.228 c -1.227,0 -5.597,2.504 -6.849,4.37 -1.227,0 -4.369,2.479 -4.369,2.479 l -1.228,1.227 v 1.228 c 0,2.504 1.228,20.572 1.228,23.076 v 6.849 z"
       class="fil0" />
    <path
       style="clip-rule:evenodd;fill:#ffffff;fill-rule:nonzero;stroke-width:0.62354326;image-rendering:optimizeQuality;shape-rendering:geometricPrecision;text-rendering:geometricPrecision"
       inkscape:connector-curvature="0"
       id="path2923"
       d="m -10196.972,-17877.435 c 1.227,0 8.101,-1.964 9.353,-1.964 h 11.219 l 1.227,1.964 v 1.227 l -1.227,1.228 c 0,0 -1.228,5.597 -1.228,8.101 0,2.504 -1.227,9.353 -1.227,9.353 0,1.228 -1.228,19.321 -1.228,20.573 0,0 -1.227,4.369 -1.227,5.621 l -1.964,2.48 -1.227,1.227 h -8.102 l -1.227,-1.227 c 0,-2.48 -1.228,-16.816 -1.228,-19.32 0,-4.37 -1.227,-21.825 -1.227,-26.194 v -4.37 z m -8.74,12.471 c 0,2.504 1.228,26.194 1.228,29.312 0,1.227 1.227,9.353 1.227,11.219 0,1.227 1.227,4.369 1.227,5.621 l 1.964,2.48 h 11.219 c 1.228,0 11.219,-1.228 12.471,-1.228 0,-1.227 2.504,-4.369 2.504,-5.621 l 1.228,-4.37 2.479,-4.37 c 0,-1.227 2.504,-5.597 2.504,-6.849 0,-1.228 1.964,-4.37 1.964,-5.622 0,-1.227 1.228,-8.101 1.228,-9.353 0,-1.228 4.369,-11.219 4.369,-12.471 0,0 1.228,-5.597 1.228,-8.101 0,-2.48 1.227,-9.967 1.227,-9.967 v -6.874 l -4.369,-4.345 -4.37,-2.504 c -4.37,0 -23.69,-1.228 -28.06,-1.228 h -4.37 l -2.479,1.228 c 0,0 -4.37,2.504 -4.37,4.37 0,1.227 -2.504,4.369 -2.504,4.369 -1.227,1.228 -2.479,8.102 -2.479,8.102 0,1.227 2.479,6.849 2.479,8.715 0,1.227 1.228,6.873 1.228,8.125 z"
       class="fil0" />
    <path
       style="clip-rule:evenodd;fill:#ffffff;fill-rule:nonzero;stroke-width:0.62354326;image-rendering:optimizeQuality;shape-rendering:geometricPrecision;text-rendering:geometricPrecision"
       inkscape:connector-curvature="0"
       id="path2925"
       d="m -10134.618,-17733.381 c 0,0 -2.504,-2.504 -2.504,-4.369 0,-1.228 -2.504,-4.37 -2.504,-5.622 -1.227,-1.228 -2.479,-6.849 -2.479,-6.849 0,-1.228 -1.228,-9.354 -1.228,-10.606 h 12.471 v 4.37 c 0,2.48 1.228,9.353 1.228,9.353 0,0 4.37,6.85 5.597,8.102 l 2.504,2.504 c 1.227,0 4.37,2.479 5.622,2.479 0,0 6.849,1.227 9.353,1.227 h 2.479 l 5.622,-2.504 4.37,-1.227 c 1.227,0 5.597,-2.504 5.597,-2.504 0,0 2.504,-2.504 2.504,-4.37 0,0 1.228,-2.479 1.228,-4.37 l 1.227,-5.597 1.228,-3.756 v -1.227 c 0,-1.228 -2.505,-8.126 -2.505,-9.353 0,-1.228 -1.227,-4.37 -1.227,-4.37 l -2.479,-4.37 c 0,-1.227 -4.37,-4.37 -4.37,-4.37 -1.228,0 -6.849,-4.369 -8.101,-5.597 -1.228,0 -8.102,-5.622 -9.354,-5.622 -1.227,-1.227 -6.873,-4.369 -6.873,-4.369 -1.228,-1.228 -8.715,-6.85 -11.219,-8.102 l -1.228,-1.227 -2.479,-1.227 -1.228,-1.228 -2.504,-4.37 -1.227,-2.504 c 0,-1.227 -5.622,-6.849 -5.622,-8.101 l -1.227,-4.37 v -9.353 c 0,0 2.504,-8.101 4.369,-10.605 0,-1.227 2.504,-4.345 2.504,-5.597 l 1.228,-1.228 4.37,-5.621 6.849,-6.85 5.622,-1.227 5.597,-4.37 c 1.227,0 4.37,-1.227 4.37,-1.227 h 23.076 l 8.101,4.345 4.37,2.504 h 1.227 c 1.228,0 2.48,1.227 4.345,2.504 0,0 3.118,2.479 3.118,4.345 l 1.227,2.504 c 0,1.228 1.228,4.37 1.228,4.37 0,1.227 1.227,10.605 1.227,11.833 v 9.353 c -1.227,0 -5.597,1.227 -6.849,1.227 h -9.353 c 0,-2.479 -1.227,-12.471 -1.227,-14.95 0,0 -1.228,-2.504 -1.228,-4.37 0,-1.227 -2.504,-4.37 -2.504,-5.622 -1.227,-1.227 -4.345,-6.849 -4.345,-6.849 l -2.504,-2.504 c 0,0 -5.597,-1.227 -6.849,-1.227 h -4.37 c -1.228,0 -8.101,1.227 -8.101,1.227 0,0 -6.874,4.37 -8.102,5.622 -1.227,0 -2.504,2.479 -2.504,2.479 0,1.228 -2.504,9.354 -2.504,11.244 v 6.849 c 0,0 1.228,4.37 1.228,5.622 1.227,5.597 4.37,9.353 6.874,13.698 1.227,1.228 6.849,8.126 6.849,8.126 0,0 4.37,2.479 5.622,4.345 2.479,1.228 6.849,2.504 9.353,4.37 0,0 2.479,2.504 4.37,2.504 1.227,1.227 5.597,4.37 5.597,4.37 l 2.504,4.345 c 0,1.227 5.597,5.622 5.597,6.874 1.227,1.227 5.622,11.219 6.874,13.723 0,1.227 1.964,4.345 1.964,5.597 v 20.572 c 0,1.227 -3.118,4.37 -3.118,5.622 0,1.227 -4.37,5.621 -4.37,5.621 0,0 -4.37,2.48 -5.622,4.346 0,0 -5.597,2.504 -6.849,4.369 l -2.504,1.228 c -2.479,1.227 -8.101,2.504 -8.101,2.504 h -14.95 c -1.228,0 -4.37,-1.228 -5.622,-1.228 -1.228,-1.227 -8.74,-4.369 -9.967,-5.621 l -5.622,-5.598 z m 44.262,-91.666 c 0,1.227 -1.227,4.37 -1.227,5.597 l -2.504,-1.227 -1.228,-2.504 c -1.227,-1.228 -4.345,-6.85 -4.345,-6.85 l -1.227,-1.227 c 0,-1.228 -2.504,-5.622 -2.504,-5.622 0,-1.227 -1.228,-6.849 -1.228,-8.101 v -6.849 c 0,0 5.622,-1.228 6.85,-1.228 h 2.504 l 1.227,1.228 c 0,1.227 2.504,5.597 2.504,5.597 0,1.227 1.227,6.874 1.227,8.101 v 13.723 z m -34.295,110.986 1.228,1.228 4.369,1.227 c 1.228,0 8.102,1.228 9.354,1.228 h 2.479 c 1.228,0 11.244,-1.228 12.471,-1.228 h 5.622 c 1.227,0 8.101,-2.504 9.353,-4.369 1.228,0 5.622,-5.622 6.849,-5.622 l 5.622,-2.48 c 1.227,0 4.37,-2.504 4.37,-2.504 1.227,-1.227 5.597,-4.369 5.597,-5.621 l 1.227,-2.48 1.228,-4.37 2.504,-4.369 c 0,0 2.504,-6.85 2.504,-8.102 0,-1.227 1.227,-4.983 1.227,-4.983 v -14.975 c -1.227,-1.227 -4.369,-4.37 -4.369,-5.597 l -2.504,-5.622 -2.48,-4.37 c 0,-1.227 -5.622,-5.597 -5.622,-6.849 l -2.504,-4.37 -2.479,-2.504 c -3.118,-2.479 -12.471,-11.219 -12.471,-11.219 l -6.874,-4.369 -2.479,-2.48 c 1.227,0 9.353,-1.227 11.219,-1.227 2.504,0 19.32,-1.228 22.438,-1.228 1.227,0 4.369,-1.227 4.369,-1.227 l 12.471,-13.699 v -10.605 c 0,-2.504 -1.227,-12.471 -1.227,-13.723 0,-1.227 -2.48,-6.849 -4.37,-8.101 -1.227,-2.504 -5.597,-8.101 -6.849,-9.353 0,0 -4.37,-2.504 -5.622,-2.504 -1.227,0 -5.597,-2.48 -6.849,-2.48 0,0 -4.37,-1.227 -5.622,-1.227 l -6.849,-1.228 -4.37,-1.227 h -2.479 c -4.37,0 -16.227,1.227 -16.227,1.227 -2.48,0 -13.723,2.504 -16.203,4.37 0,0 -6.873,2.48 -8.739,4.37 -1.228,0 -4.37,2.479 -4.37,2.479 l -9.353,9.354 c 0,0 -2.48,4.369 -4.345,5.621 -1.228,1.228 -4.37,6.85 -5.622,8.102 -1.227,1.227 -2.504,4.369 -2.504,6.849 0,1.227 -1.227,5.008 -1.227,5.008 v 13.698 c 0,1.228 1.227,6.874 2.504,8.126 0,1.227 2.504,6.849 4.369,8.101 l 1.228,1.228 c 0,0 2.479,2.479 2.479,4.345 l 1.228,2.504 4.369,4.37 c 2.504,1.227 13.723,9.353 16.841,12.471 l 2.504,1.227 1.228,1.227 c 1.227,0 9.353,5.622 12.471,6.874 l 2.479,1.228 c 1.227,0 4.37,2.479 4.37,2.479 l 1.227,1.228 v 1.227 c 0,1.228 2.504,5.597 2.504,6.849 v 8.101 c 0,0 -1.227,2.504 -2.504,4.37 0,1.228 -2.504,2.504 -2.504,2.504 h -4.345 l -2.504,-1.227 c -1.227,0 -4.37,-4.37 -4.37,-4.37 0,-1.227 -4.37,-4.983 -4.37,-6.849 0,0 -1.227,-2.504 -1.227,-4.37 0,-1.227 -2.479,-9.353 -2.479,-11.219 l -1.228,-2.504 -1.227,-1.227 c -1.228,0 -6.874,-1.228 -8.74,-1.228 h -9.353 l -1.228,1.228 c -1.227,0 -8.101,4.369 -9.353,5.621 0,0 -2.479,4.37 -2.479,5.622 0,1.228 -1.228,6.849 -1.228,8.101 0,0 1.228,4.984 1.228,6.85 0,1.227 1.227,5.621 1.227,5.621 0,1.228 2.48,6.85 2.48,8.102 v 2.504 c 1.227,1.227 5.621,8.101 6.873,9.353 0,0 5.598,5.597 8.102,6.849 1.227,1.227 5.597,4.37 5.597,4.37 l 3.118,1.227 z"
       class="fil0" />
    <path
       style="clip-rule:evenodd;fill:#ffffff;fill-rule:nonzero;stroke-width:0.62354326;image-rendering:optimizeQuality;shape-rendering:geometricPrecision;text-rendering:geometricPrecision"
       inkscape:connector-curvature="0"
       id="path2927"
       d="m -9936.3344,-17415.396 c 0,1.227 -1.2275,6.874 -1.2275,8.126 l -1.2274,2.479 c 0,0 -2.504,4.37 -4.3698,4.37 l -2.504,1.227 c -4.3452,1.228 -6.8492,2.48 -11.2189,2.48 h -2.4795 v -1.228 c 0,0 1.2275,-5.621 1.2275,-6.873 0,-4.37 2.4794,-19.32 2.4794,-23.076 l 2.504,-1.228 h 5.5972 c 0,0 5.6218,2.48 6.8738,4.345 l 1.2274,1.228 c 0,1.227 2.4795,5.621 2.4795,5.621 v 2.48 z m 2.4794,-16.202 c 0,-1.228 -4.3452,-4.37 -5.5972,-4.37 0,0 -2.504,-1.228 -4.3697,-1.228 l -6.8492,-1.227 -5.6218,-1.228 h -6.8492 c -1.2274,0 -6.8737,1.228 -8.7394,1.228 l -1.2275,1.227 c 0,1.228 -1.2275,11.244 -1.2275,12.471 0,2.504 -1.2274,23.077 -1.2274,29.95 v 5.597 c 0,1.228 1.2274,6.874 1.2274,6.874 l 2.504,2.48 c 0,0 4.3452,1.227 5.5972,1.227 h 5.6218 c 1.2275,0 8.1012,-1.227 9.3532,-1.227 1.2275,0 5.5972,-1.228 5.5972,-1.228 1.2275,0 4.3698,-2.479 5.6218,-2.479 l 1.2274,-1.228 c 0,-1.227 5.6218,-6.849 5.6218,-8.101 l 1.2274,-1.227 1.2275,-2.504 c 0,-1.228 1.2274,-5.598 1.2274,-5.598 v -19.344 l -1.2274,-4.345 c 0,-1.228 -2.504,-5.622 -4.3698,-5.622 z"
       class="fil0" />
    <path
       style="clip-rule:evenodd;fill:#ffffff;fill-rule:nonzero;stroke-width:0.62354326;image-rendering:optimizeQuality;shape-rendering:geometricPrecision;text-rendering:geometricPrecision"
       inkscape:connector-curvature="0"
       id="path2929"
       d="m -10157.694,-17427.867 c 0,1.228 -1.227,6.874 -1.227,8.74 v 1.227 l -8.102,24.942 c 0,1.227 -2.504,5.597 -2.504,6.849 l -1.227,2.504 -1.227,5.597 -2.504,5.622 -1.228,4.37 c -1.227,2.479 -8.101,23.076 -9.353,26.194 0,1.227 -2.48,6.849 -2.48,8.101 0,1.227 -4.369,9.353 -4.369,11.219 l -1.228,4.37 -1.227,1.227 c -1.228,0 -6.849,1.228 -8.101,1.228 -5.622,1.227 -11.219,2.504 -16.227,2.504 h -1.228 c 0,0 -1.227,-1.228 -1.227,-2.504 0,-1.228 -2.48,-6.85 -2.48,-8.102 0,-2.479 -2.504,-8.101 -2.504,-9.353 0,-1.227 -1.227,-6.849 -1.227,-8.101 l -1.228,-6.849 c 0,-1.228 -1.227,-6.874 -1.227,-8.126 l -1.228,-4.345 c 0,-1.228 -1.227,-6.874 -1.227,-8.126 v -16.202 l -1.228,-1.228 c 0,-1.227 -1.227,-8.101 -1.227,-9.353 l -2.479,-4.37 v -1.227 c 0,-1.228 -1.228,-4.37 -1.228,-4.37 l -1.227,-1.227 h -2.504 l -1.228,1.227 -1.227,6.849 c 0,1.228 -5.622,11.219 -5.622,12.471 v 1.228 c 0,1.227 -1.227,6.849 -1.227,6.849 0,1.227 -2.48,6.874 -2.48,8.126 l -1.227,5.597 c 0,1.227 -2.504,6.874 -2.504,8.101 l -1.228,5.622 c -1.227,4.369 -5.597,16.84 -5.597,18.092 0,0 -2.504,5.598 -2.504,6.85 l -1.228,2.504 -1.227,4.345 -1.227,2.504 -1.228,1.227 h -18.093 l -1.227,-1.227 c 0,-1.228 -2.48,-6.849 -2.48,-8.101 0,-1.228 -4.369,-14.975 -4.369,-16.227 l -1.228,-3.118 -1.227,-4.345 c 0,0 -2.504,-5.622 -2.504,-6.874 0,-1.227 -2.48,-8.101 -2.48,-9.353 l -1.227,-2.48 c 0,-1.227 -2.504,-9.353 -2.504,-11.243 l -1.228,-2.48 c 0,-1.227 -2.479,-5.621 -2.479,-6.873 l -1.227,-4.346 -1.228,-2.504 c -1.227,-2.504 -4.37,-9.353 -4.37,-9.353 l -1.227,-6.849 c 0,-1.228 -1.228,-5.622 -1.228,-5.622 l -1.227,-2.504 c -1.228,-2.479 -4.37,-12.471 -4.37,-13.698 v -2.504 h 6.849 c 1.228,0 8.126,-2.504 9.354,-2.504 h 1.227 c 0,0 1.228,1.227 1.228,2.504 1.227,2.504 4.369,9.353 4.369,9.353 0,1.227 2.504,9.967 2.504,11.219 0,1.227 2.48,8.101 2.48,9.353 0,1.228 2.504,13.723 2.504,14.975 0,1.228 2.504,11.219 2.504,12.471 0,1.228 1.227,8.101 1.227,9.353 0,1.228 1.228,4.37 1.228,5.597 0,1.228 4.345,11.244 4.345,12.471 v 4.37 c 0,0 1.227,2.504 2.504,4.37 l 1.227,1.227 4.37,-3.117 1.228,-1.228 1.227,-2.504 c 0,-1.227 1.227,-6.849 1.227,-8.101 0,-1.227 1.228,-5.597 1.228,-5.597 0,-1.228 5.597,-12.471 5.597,-13.723 0,-1.228 4.37,-9.353 4.37,-11.219 l 1.227,-2.504 c 0,-1.228 2.504,-6.849 2.504,-8.101 l 1.228,-6.874 c 0,-1.228 4.37,-11.219 4.37,-12.471 l 1.227,-6.849 c 0,-1.964 1.227,-5.622 1.227,-5.622 l 1.228,-2.479 c 0,-1.228 4.345,-11.219 4.345,-12.471 1.228,0 6.874,-1.228 8.126,-1.228 h 6.849 l 1.228,1.228 c 0,0 1.227,4.369 1.227,5.597 0,1.227 1.227,6.874 1.227,8.126 l 1.228,4.345 v 3.117 c 0,4.37 1.227,9.354 2.504,13.723 l 1.227,4.37 c 0,1.228 1.228,5.622 1.228,6.849 0,1.228 1.227,8.126 1.227,9.354 l 1.228,5.621 c 1.227,5.622 4.345,18.093 4.345,18.093 0,1.227 1.227,9.353 1.227,11.219 0,1.227 2.504,11.219 2.504,13.723 l 1.228,4.345 1.227,6.874 1.228,2.479 2.504,2.504 h 2.479 l 1.228,-1.227 1.227,-2.48 c 0,-1.227 1.228,-6.873 1.228,-8.125 l 1.227,-1.228 v -4.37 l 1.227,-3.117 v -6.874 l 1.228,-5.597 c 0,-1.228 1.227,-9.353 1.227,-11.219 0,-1.228 2.504,-5.622 2.504,-6.874 0,0 1.228,-4.37 1.228,-5.597 0,-1.228 4.37,-16.227 4.37,-18.093 0,-1.227 2.479,-8.101 2.479,-9.353 0,-1.227 1.228,-6.849 1.228,-8.101 1.227,-5.622 6.873,-20.572 6.873,-20.572 l 1.228,-1.228 h 18.068 l 1.227,1.228 v 11.219 z m 16.203,-29.925 h -5.598 c -1.227,0 -12.471,-2.48 -13.723,-2.48 h -4.369 c -1.228,0 -6.85,2.48 -8.102,2.48 0,0 -4.369,2.504 -5.621,2.504 -1.228,0 -4.37,2.479 -4.37,2.479 -1.227,0 -2.479,2.504 -2.479,2.504 l -1.228,6.849 c 0,0 -1.227,2.504 -1.227,4.37 0,1.228 -4.37,9.353 -4.37,11.219 0,1.228 -1.228,6.874 -1.228,8.74 0,1.227 -2.504,13.723 -4.369,16.202 l -1.228,4.37 -1.227,6.873 c 0,1.228 -2.48,6.85 -2.48,8.102 l -1.227,2.479 -1.228,-4.345 c 0,-1.228 -2.504,-18.093 -2.504,-19.345 l -1.227,-4.369 c 0,-1.228 -1.228,-8.102 -1.228,-9.354 0,-1.227 -2.504,-9.967 -2.504,-11.219 0,-1.227 -2.479,-11.219 -2.479,-13.723 0,-1.227 -1.227,-6.849 -1.227,-8.101 0,-1.227 -1.228,-5.597 -1.228,-5.597 l -4.37,-8.126 c 0,0 -5.621,-1.227 -6.849,-1.227 h -12.471 c 0,0 -5.008,1.227 -6.874,2.479 -2.479,1.228 -6.849,2.504 -9.353,5.622 l -2.479,2.479 c 0,0 -1.228,4.37 -1.228,5.622 0,1.228 -1.227,6.849 -1.227,8.101 0,1.228 -4.37,11.219 -4.37,12.471 l -1.227,5.622 c 0,1.228 -4.37,11.219 -4.37,12.471 l -1.228,5.597 c 0,0 -1.227,2.504 -1.227,4.37 -1.227,2.504 -4.37,11.219 -4.37,11.219 l -1.227,1.227 c -1.228,-2.479 -2.48,-5.597 -2.48,-8.101 0,-2.504 -2.504,-11.219 -2.504,-12.471 0,-1.227 -1.227,-6.849 -1.227,-8.101 0,-1.227 -2.504,-6.874 -2.504,-8.739 0,-1.228 -2.48,-8.102 -2.48,-9.354 0,-1.227 -4.369,-6.849 -4.369,-8.101 l -1.228,-4.37 c 0,-1.227 -4.37,-6.849 -4.37,-8.101 l -1.227,-1.227 -2.479,-1.228 h -23.077 c 0,0 -1.227,1.228 -2.504,1.228 -1.227,0 -5.597,4.369 -6.849,4.369 l -5.622,2.504 -1.227,1.228 v 6.874 c 0,1.227 2.504,6.849 2.504,8.101 1.227,4.37 8.101,38.665 9.353,43.034 0,1.228 1.228,5.598 1.228,5.598 l 2.479,2.504 1.228,4.369 1.227,2.48 1.227,4.37 c 0,1.227 6.874,14.975 6.874,16.202 0,0 2.48,6.874 2.48,8.126 0,1.227 4.369,12.471 4.369,13.698 0,1.228 5.622,14.975 5.622,16.227 0,1.228 1.228,5.597 1.228,6.849 v 2.504 l 2.479,2.48 2.504,1.227 h 4.37 l 2.479,-1.227 h 21.824 c 0,0 4.37,-1.228 5.622,-2.48 1.228,0 4.37,-2.504 4.37,-2.504 1.227,-1.227 8.101,-6.849 9.353,-8.101 l 2.48,-2.504 c 0,-1.227 2.504,-4.345 2.504,-4.345 v -2.504 c 0,-1.227 1.227,-5.622 1.227,-6.849 0,-1.228 2.504,-6.874 2.504,-8.126 0,-1.227 0.491,-3.731 1.228,-4.983 0,2.504 2.479,9.353 2.479,10.605 l 1.227,4.37 c 0,1.227 2.504,12.47 2.504,13.722 0,0 2.48,8.102 4.37,11.219 0,1.228 1.228,2.48 2.48,4.37 l 2.504,1.228 h 1.227 c 4.37,0 14.951,-1.228 16.203,-1.228 1.227,0 5.621,-1.227 6.873,-1.227 h 11.219 l 2.48,-1.228 9.353,-9.353 v -5.622 l 9.353,-9.353 c 0,0 1.228,-1.227 1.228,-2.479 l 2.504,-6.874 1.227,-3.118 v -6.849 l 1.228,-1.228 1.227,-2.479 c 0,-1.227 1.227,-4.37 1.227,-4.37 0,-1.227 1.228,-6.874 1.228,-8.101 l 1.227,-1.227 c 1.228,-2.504 4.37,-19.345 5.622,-21.825 l 1.228,-6.873 c 0,-1.228 2.479,-5.598 2.479,-6.85 1.227,-1.227 2.504,-8.101 2.504,-8.101 0,-1.227 1.227,-9.353 1.227,-11.219 l 1.228,-5.621 c 0,-1.228 1.227,-6.85 1.227,-6.85 0,-1.227 1.228,-11.243 1.228,-12.471 l 1.227,-4.369 -1.227,-2.504 -2.504,-1.228 z"
       class="fil0" />
    <path
       style="clip-rule:evenodd;fill:#ffffff;fill-rule:nonzero;stroke-width:0.62354326;image-rendering:optimizeQuality;shape-rendering:geometricPrecision;text-rendering:geometricPrecision"
       inkscape:connector-curvature="0"
       id="path2931"
       d="m -10037.968,-17361.756 c 0,1.227 -1.227,6.849 -1.227,8.101 0,1.228 -2.504,6.849 -2.504,8.101 l -1.228,5.622 -1.227,2.479 c -1.228,1.228 -4.37,6.874 -4.37,6.874 l -13.723,13.723 c -1.227,1.228 -4.345,4.345 -5.597,4.345 h -20.572 c -1.228,0 -5.622,-1.227 -5.622,-1.227 l -14.975,-13.723 c 0,0 -2.479,-4.37 -2.479,-5.622 0,-1.227 -2.504,-6.849 -2.504,-8.101 l -1.228,-6.849 -1.227,-5.622 c 0,-1.227 -1.228,-6.849 -1.228,-6.849 v -29.95 c 0,-1.228 5.622,-21.824 6.874,-28.673 0,-1.228 2.479,-6.85 2.479,-8.102 l 1.228,-1.227 1.227,-2.504 c 1.228,-1.228 8.102,-9.353 9.354,-12.471 l 1.227,-1.228 c 1.227,0 8.101,-4.369 9.353,-5.621 1.228,-1.228 5.622,-2.504 5.622,-2.504 h 8.101 l 2.504,-1.228 h 6.849 c 1.228,0 5.622,1.228 6.85,1.228 l 1.227,1.227 5.622,4.37 c 1.227,1.227 5.622,5.622 5.622,6.849 0,0 2.479,5.622 2.479,6.874 0,0 1.227,4.37 1.227,5.597 0,1.228 1.228,8.126 1.228,8.126 v 59.237 z m 19.32,-79.809 c 0,-1.228 -5.621,-11.244 -6.849,-13.723 0,-1.228 -2.504,-4.37 -2.504,-4.37 l -4.37,-4.37 c 0,0 -5.597,-2.479 -6.849,-2.479 -2.504,-1.228 -11.857,-4.37 -11.857,-4.37 h -13.723 c -1.227,0 -5.597,1.227 -6.849,1.227 -1.228,0 -6.849,2.48 -8.101,2.48 l -2.504,1.227 c -1.228,0 -8.102,5.622 -9.354,5.622 l -4.369,1.228 -11.833,12.471 c -1.227,1.227 -4.37,6.873 -5.622,8.125 -1.227,1.228 -4.37,9.354 -5.597,11.219 0,1.228 -2.504,6.849 -2.504,8.101 0,1.228 -2.504,9.354 -2.504,11.219 l -1.227,1.228 v 6.849 c 0,1.228 -1.228,4.37 -1.228,5.622 v 33.043 c 0,0 1.228,9.353 2.504,13.723 0,2.504 2.504,12.471 2.504,12.471 0,1.227 2.48,5.622 2.48,6.849 0,0 2.504,2.504 2.504,4.37 l 2.479,2.504 9.353,11.219 1.228,1.227 c 0,0 5.008,2.48 6.873,2.48 1.228,1.227 8.102,2.504 8.102,2.504 1.227,0 9.353,1.227 12.471,1.227 h 6.849 l 5.622,-1.227 c 1.227,0 9.353,-1.228 11.219,-1.228 0,0 2.504,-1.227 4.369,-2.479 l 1.228,-1.228 4.369,-1.227 c 1.228,0 4.984,-5.622 6.85,-6.849 l 1.227,-2.504 c 0,-1.228 6.874,-5.622 6.874,-6.85 0,0 2.479,-4.369 2.479,-5.621 5.622,-11.219 6.874,-23.076 9.354,-34.295 0,-1.228 2.504,-11.219 2.504,-12.471 0,-1.228 1.227,-6.85 1.227,-6.85 v -24.941 c 0,-2.505 -2.504,-14.975 -2.504,-18.093 0,-2.504 -2.479,-12.471 -4.37,-13.723 z"
       class="fil0" />
    <path
       style="clip-rule:evenodd;fill:#ffffff;fill-rule:nonzero;stroke-width:0.62354326;image-rendering:optimizeQuality;shape-rendering:geometricPrecision;text-rendering:geometricPrecision"
       inkscape:connector-curvature="0"
       id="path2933"
       d="m -10064.8,-17372.361 c 0,0 -2.479,12.471 -4.345,16.202 0,1.228 -1.228,4.37 -1.228,4.37 0,1.227 -2.504,5.622 -2.504,5.622 0,1.227 -2.504,2.479 -2.504,2.479 l -2.479,-1.227 c 0,0 -2.504,-4.37 -2.504,-5.622 0,-1.228 -1.228,-4.37 -1.228,-5.622 0,-2.479 -1.227,-12.471 -1.227,-13.698 v -19.345 l 1.227,-4.37 c 0,-1.227 1.228,-4.345 1.228,-5.597 0,-1.227 2.504,-12.471 2.504,-13.723 0,0 2.479,-6.849 4.37,-9.353 0,-1.228 2.479,-5.622 2.479,-5.622 l 2.504,-1.227 1.228,1.227 c 1.227,1.228 2.479,6.874 2.479,6.874 v 48.018 z m 6.874,-57.372 c -1.228,-1.227 -4.37,-6.849 -4.37,-6.849 0,0 -4.37,-2.504 -5.622,-2.504 l -4.345,-1.227 h -1.227 c -2.504,0 -11.244,2.504 -11.244,2.504 -1.227,0 -4.345,2.504 -5.597,4.369 l -1.228,2.48 c 0,1.227 -5.621,6.874 -5.621,8.126 l -1.228,2.479 c 0,1.228 -2.479,8.101 -2.479,9.353 l -1.228,4.37 c 0,1.228 -1.227,5.622 -1.227,6.849 0,2.504 -1.228,16.227 -1.228,19.345 v 9.353 c 0,1.228 1.228,6.849 1.228,9.353 0,1.228 1.227,5.598 1.227,6.85 0,1.227 2.48,8.101 2.48,9.353 l 1.227,5.622 c 0,1.227 2.504,5.597 4.37,5.597 0,0 4.37,2.504 5.622,2.504 1.227,0 4.345,1.227 5.597,1.227 h 5.622 c 0,0 2.479,-1.227 4.369,-2.504 1.228,-1.227 6.85,-5.597 6.85,-5.597 0,0 2.504,-4.37 2.504,-5.622 0,-1.227 2.479,-9.353 4.345,-12.471 0,-1.227 2.504,-8.101 2.504,-9.353 0,-1.227 1.227,-8.101 1.227,-8.101 v -48.018 c 0,0 -1.227,-4.37 -1.227,-5.622 l -1.228,-2.479 z"
       class="fil0" />
    <path
       style="clip-rule:evenodd;fill:#ffffff;fill-rule:nonzero;stroke-width:0.62354326;image-rendering:optimizeQuality;shape-rendering:geometricPrecision;text-rendering:geometricPrecision"
       inkscape:connector-curvature="0"
       id="path2935"
       d="m -9911.3925,-17401.673 c 0,1.227 -1.2275,4.37 -1.2275,5.622 0,1.227 -5.6217,8.101 -6.8737,11.219 l -1.2275,1.227 c -1.2274,1.228 -11.2189,6.849 -12.4709,8.101 l -1.2275,1.228 v 4.37 c 0,1.227 5.6218,6.849 5.6218,8.101 l 1.2274,2.479 1.2275,1.228 c 0,1.227 4.3697,11.219 4.3697,12.471 0,1.227 4.3698,6.873 4.3698,8.101 l 8.1012,24.942 -2.504,1.227 c -1.2275,0 -11.219,1.228 -13.723,1.228 l -1.2275,-2.504 -1.2274,-5.598 c 0,-1.227 -6.8492,-12.471 -6.8492,-13.723 -1.2275,-1.227 -4.3698,-13.722 -5.6218,-16.202 0,-1.227 -4.3452,-14.975 -4.3452,-16.227 l -1.2274,-2.479 -2.504,-1.228 h -5.6218 c -2.4794,0 -13.6984,2.48 -16.8161,2.48 v 19.344 c 0,1.228 1.2274,14.951 1.2274,16.203 v 19.344 l -2.504,1.228 c -1.2274,0 -6.8492,1.227 -8.1012,1.227 h -2.504 c 0,-12.471 -1.2275,-69.842 -1.2275,-82.313 v -9.353 c 0,-4.345 1.2275,-33.043 1.2275,-36.775 v -8.101 l 4.3697,-4.37 c 0,0 2.5041,-1.227 4.3698,-1.227 2.4794,-1.227 12.4709,-2.504 13.7229,-2.504 h 18.0682 c 1.2275,0 8.1012,1.227 9.3532,1.227 1.2275,0 4.3698,2.504 5.6218,2.504 1.2274,0 5.5972,5.598 6.8492,6.85 0,0 4.3697,4.369 4.3697,5.621 1.2275,1.228 4.3698,6.85 4.3698,6.85 1.2274,1.227 2.4794,8.101 2.4794,9.353 v 19.345 z m 14.9504,-29.925 c 0,0 -1.2275,-2.504 -1.2275,-4.37 -1.2274,-2.48 -5.5972,-13.723 -6.8492,-14.951 l -1.2274,-1.227 -5.6218,-6.874 c -1.2274,-1.227 -4.3452,-2.479 -5.5972,-4.345 -1.2274,-1.227 -6.8737,-4.37 -8.7395,-4.37 -2.4794,-1.227 -11.2189,-4.369 -12.4709,-4.369 h -18.0682 l -4.3697,1.227 h -6.8738 c 0,0 -3.1177,1.227 -4.3452,1.227 l -2.504,1.228 -4.3697,2.504 -2.4795,1.227 c -4.3697,2.48 -6.8737,5.598 -11.2435,8.102 l -1.2274,1.227 -1.2275,2.48 v 149.651 l 1.2275,2.504 h 4.3697 c 1.2275,0 11.219,-1.227 12.471,-1.227 4.3697,0 6.8737,-1.228 11.2189,-2.48 1.2275,0 2.504,-1.227 2.504,-1.227 l 2.504,-4.37 v -2.504 c 1.2275,-1.228 5.5972,-6.849 6.8492,-8.101 v -33.657 c 0,1.227 1.2275,3.731 1.2275,4.983 0,1.228 1.2275,6.849 1.2275,8.101 l 1.2274,1.228 c 0,1.227 2.504,6.849 2.504,8.101 0,1.228 6.8492,13.723 6.8492,14.975 0,0 1.2275,4.345 1.2275,5.597 l 1.2274,6.874 1.2275,1.228 2.504,1.227 h 4.3452 c 2.504,0 12.471,-1.227 13.723,-1.227 0,0 4.3697,-1.228 5.6217,-1.228 1.2275,0 4.3698,-1.227 4.3698,-1.227 1.2274,0 4.3451,-2.504 4.3451,-2.504 l 1.2275,-2.48 c 1.2275,-4.37 5.6218,-14.975 5.6218,-16.227 v -4.37 c 0,0 -1.2275,-2.479 -1.2275,-4.345 0,-1.227 -5.6218,-11.243 -5.6218,-12.471 l -2.4794,-6.873 -2.504,-5.598 -1.2275,-4.369 -1.2274,-1.228 c 0,-1.227 -2.4795,-5.622 -2.4795,-5.622 v -4.345 l 5.5972,-5.622 c 1.2275,-2.504 6.8738,-12.471 8.1012,-13.723 l 1.2275,-6.849 1.2274,-5.621 c 0,-1.228 1.2275,-6.85 1.2275,-8.102 v -2.504 l -1.2275,-5.597 c 0,-1.227 -1.2274,-8.101 -1.2274,-9.353 z"
       class="fil0" />
    <path
       style="clip-rule:evenodd;fill:#ffffff;fill-rule:nonzero;stroke-width:0.62354326;image-rendering:optimizeQuality;shape-rendering:geometricPrecision;text-rendering:geometricPrecision"
       inkscape:connector-curvature="0"
       id="path2937"
       d="m -9797.2882,-17322.478 -4.3698,1.228 -2.4794,1.227 c 0,0 -4.3698,1.228 -5.6218,1.228 h -1.2274 c -1.2275,0 -14.975,2.504 -16.2024,2.504 h -2.504 c -1.2275,0 -6.8493,1.227 -8.1013,1.227 h -19.3447 c -1.2274,-1.227 -2.4794,-2.504 -2.4794,-4.369 0,-8.102 -4.3698,-43.649 -4.3698,-52.388 v -2.48 c 0,-1.227 -1.2274,-11.219 -1.2274,-12.471 0,-1.227 -1.2275,-6.873 -1.2275,-8.101 0,-4.37 -1.2274,-26.194 -1.2274,-33.068 v -18.068 l 1.2274,-1.227 h 9.3532 l 2.504,1.227 4.3452,4.37 c 0,0 1.2275,5.597 1.2275,6.849 0,2.504 1.2275,26.194 1.2275,28.674 0,1.227 1.2274,11.243 1.2274,12.471 v 35.547 c 0,2.504 1.2275,16.227 1.2275,19.344 l 2.504,2.48 c 0,0 2.504,1.227 4.3697,1.227 h 4.3698 c 2.4794,0 14.9504,-1.227 18.0681,-1.227 1.2275,0 12.471,-1.228 13.723,-1.228 h 4.3697 c 0,1.228 1.2275,5.622 1.2275,6.874 v 6.849 z m 20.5722,-33.043 -2.4795,-2.504 h -4.3698 l -5.6217,1.228 c -1.2275,0 -9.3532,1.227 -11.2189,1.227 h -4.3698 c -1.2274,0 -5.5972,1.228 -6.8492,1.228 h -9.3532 c 0,-1.228 -1.2275,-11.244 -1.2275,-12.471 0,-4.37 -1.2274,-14.975 -1.2274,-16.227 v -9.353 c 0,-1.228 -1.2275,-16.203 -1.2275,-18.069 v -9.353 c 0,-1.227 -1.2274,-5.622 -1.2274,-6.874 0,-1.227 -1.2275,-18.068 -1.2275,-19.32 0,-1.227 -1.2274,-6.873 -2.504,-9.353 0,-1.227 -2.4795,-5.622 -2.4795,-6.874 0,-1.227 -2.504,-4.345 -2.504,-4.345 0,0 -4.3697,-1.227 -5.6217,-1.227 h -16.2024 c -1.2275,0 -4.3698,2.479 -5.6218,2.479 l -1.2274,1.228 -5.5972,2.504 -6.8738,6.849 v 50.522 c 0,1.227 1.2275,8.101 1.2275,9.353 v 2.48 c 0,2.504 2.504,20.572 2.504,23.076 1.2274,8.101 4.3697,42.396 4.3697,50.497 0,1.228 2.4795,9.353 2.4795,11.244 l 1.2274,1.227 h 6.8738 c 1.2274,0 12.4709,-1.227 13.7229,-1.227 h 6.8492 c 1.2275,0 6.8493,-1.228 8.1013,-1.228 1.2274,0 11.2189,-1.227 12.4709,-1.227 l 6.8738,-1.228 h 2.4794 l 4.3698,-1.227 6.8492,-1.228 c 1.2274,0 4.3697,-1.227 5.6217,-1.227 1.2275,-2.504 11.219,-12.471 12.471,-14.975 l 4.3697,-4.37 1.2275,-2.479 v -1.228 c 0,-1.227 -1.2275,-5.621 -1.2275,-6.849 0,-2.504 -2.504,-11.243 -2.504,-11.243 z"
       class="fil0" />
    <path
       style="clip-rule:evenodd;fill:#ffffff;fill-rule:nonzero;stroke-width:0.62354326;image-rendering:optimizeQuality;shape-rendering:geometricPrecision;text-rendering:geometricPrecision"
       inkscape:connector-curvature="0"
       id="path2939"
       d="m -9673.217,-17376.731 c 0,2.504 -1.2274,9.353 -1.2274,11.219 0,1.227 -2.4795,8.126 -4.3452,11.243 0,1.228 -2.504,6.85 -4.3698,8.102 l -1.2274,1.227 -4.3697,5.597 c -2.5041,2.504 -11.219,11.219 -12.471,12.471 -1.2275,1.228 -6.8492,4.37 -8.1012,5.622 -1.2275,0 -8.1012,4.37 -11.219,5.597 -1.2274,0 -8.1257,4.37 -9.3532,4.37 l -2.504,1.227 c -1.2274,0 -4.3697,1.228 -4.3697,1.228 h -12.471 l -1.2274,-2.504 v -72.96 c 0,-3.118 1.2274,-20.572 1.2274,-26.17 0,-1.227 1.2275,-12.471 1.2275,-13.723 v -22.462 c 1.2274,0 11.2189,-2.479 13.7229,-2.479 h 24.9419 l 1.2275,1.227 5.6217,1.227 c 1.2275,0 6.8492,2.504 6.8492,2.504 1.2275,1.964 9.3533,9.967 12.471,12.471 0,1.228 4.3697,5.622 4.3697,6.85 0,0 1.2275,4.369 1.2275,5.621 0,1.228 1.2275,5.622 1.2275,6.85 1.2274,9.353 2.4794,19.344 2.4794,29.311 v 6.874 z m 9.3533,-49.884 -1.2275,-5.597 c 0,0 -2.4795,-5.622 -4.3452,-6.874 0,-1.227 -2.504,-4.37 -2.504,-4.37 0,-1.964 -4.3697,-5.597 -5.6218,-6.849 l -1.2274,-1.227 -11.219,-9.353 -1.2274,-1.228 -4.3698,-1.227 -4.3451,-2.504 c 0,0 -6.8738,-2.504 -8.1258,-2.504 -1.2275,0 -5.5972,-1.228 -5.5972,-1.228 -1.2275,0 -11.219,-1.227 -12.471,-1.227 h -8.1012 c 0,0 -5.6217,1.227 -6.8737,2.479 l -2.4795,1.228 c -1.2274,1.227 -5.6217,4.369 -5.6217,4.369 l -8.1012,8.102 v 39.916 c 0,2.48 -1.2275,30.54 -1.2275,33.044 v 71.707 l -1.2275,4.37 v 2.48 l 1.2275,2.504 1.2275,1.227 2.504,1.228 h 9.3532 l 5.5972,-1.228 c 1.2274,0 6.8492,-1.227 8.1012,-1.227 1.2274,0 5.6217,-2.504 6.8737,-2.504 2.4795,-1.228 14.9505,-6.85 16.2025,-8.102 1.2274,-1.227 11.2189,-6.849 13.7229,-8.101 l 1.2275,-1.227 5.5972,-4.37 12.4709,-12.471 c 0,0 5.6218,-6.849 6.8738,-8.101 1.2274,-1.228 4.3697,-5.597 4.3697,-5.597 l 1.2275,-5.622 1.2274,-2.504 c 0,0 1.2275,-4.345 1.2275,-5.597 1.2275,-4.37 2.4795,-13.723 2.4795,-13.723 v -18.093 c 0,-2.479 -2.4795,-14.95 -2.4795,-18.068 0,-1.228 -4.3697,-9.353 -4.3697,-11.219 z"
       class="fil0" />
    <path
       style="clip-rule:evenodd;fill:#ffffff;fill-rule:nonzero;stroke-width:0.62354326;image-rendering:optimizeQuality;shape-rendering:geometricPrecision;text-rendering:geometricPrecision"
       inkscape:connector-curvature="0"
       id="path2941"
       d="m -9690.6714,-17393.572 c 0,6.874 -1.2274,13.723 -4.3697,20.597 l -1.2275,2.479 c -1.2274,1.228 -5.5972,6.874 -6.8492,8.102 l -4.3697,4.369 c -1.2275,0 -4.3698,2.504 -5.5972,2.504 h -2.504 v -14.975 c 0,-1.227 1.2274,-11.219 1.2274,-12.471 v -20.572 c 0,-1.227 -1.2274,-19.32 -1.2274,-20.572 v -2.504 c 0,-1.227 1.2274,-2.479 1.2274,-2.479 0,0 2.504,1.227 4.3698,1.227 1.2274,0 5.5972,2.504 5.5972,2.504 l 4.3697,4.37 c 1.2275,1.227 4.3697,5.597 4.3697,5.597 0,1.227 2.5041,8.126 2.5041,9.353 l 1.2274,2.504 c 0,1.228 1.2275,5.622 1.2275,5.622 z m 5.6218,-21.824 c 0,0 -2.504,-4.345 -2.504,-5.597 0,-1.228 -2.4795,-4.37 -2.4795,-4.37 -1.2275,-1.227 -4.3697,-5.622 -5.6218,-5.622 0,0 -5.6217,-2.479 -6.8492,-4.345 l -8.1257,-4.37 h -16.2024 c -1.2275,0 -4.3698,1.228 -5.6218,1.228 l -1.2274,1.227 v 12.471 c 0,1.228 1.2274,5.622 1.2274,6.874 v 28.673 c 0,1.228 -1.2274,12.471 -1.2274,13.723 v 35.547 c 0,1.228 1.2274,4.37 1.2274,4.37 0,0 4.3698,2.48 5.6218,2.48 h 8.1012 c 0,0 6.8737,-2.48 9.3532,-4.37 1.2274,0 5.6217,-2.48 5.6217,-2.48 l 12.471,-12.47 c 1.2274,-1.228 5.5972,-11.219 6.8492,-13.723 0,-1.228 2.504,-8.102 2.504,-11.219 0,-2.504 1.2275,-11.219 1.2275,-12.471 0,-2.504 -1.2275,-13.723 -1.2275,-16.227 0,-1.228 -2.504,-9.354 -2.504,-11.219 z"
       class="fil0" />
  </g>
</svg>
