<?xml version="1.0" encoding="UTF-8" standalone="no"?>
<!-- Generator: Adobe Illustrator 21.0.0, SVG Export Plug-In . SVG Version: 6.00 Build 0)  -->

<svg
   xmlns:dc="http://purl.org/dc/elements/1.1/"
   xmlns:cc="http://creativecommons.org/ns#"
   xmlns:rdf="http://www.w3.org/1999/02/22-rdf-syntax-ns#"
   xmlns:svg="http://www.w3.org/2000/svg"
   xmlns="http://www.w3.org/2000/svg"
   xmlns:sodipodi="http://sodipodi.sourceforge.net/DTD/sodipodi-0.dtd"
   xmlns:inkscape="http://www.inkscape.org/namespaces/inkscape"
   version="1.1"
   id="Layer_1"
   x="0px"
   y="0px"
   viewBox="0 0 792 413.20175"
   xml:space="preserve"
   sodipodi:docname="8004.svg"
   width="792"
   height="413.20175"
   inkscape:version="0.92.3 (2405546, 2018-03-11)"><metadata
   id="metadata25"><rdf:RDF><cc:Work
       rdf:about=""><dc:format>image/svg+xml</dc:format><dc:type
         rdf:resource="http://purl.org/dc/dcmitype/StillImage" /><dc:title></dc:title></cc:Work></rdf:RDF></metadata><defs
   id="defs23" /><sodipodi:namedview
   pagecolor="#ffffff"
   bordercolor="#666666"
   borderopacity="1"
   objecttolerance="10"
   gridtolerance="10"
   guidetolerance="10"
   inkscape:pageopacity="0"
   inkscape:pageshadow="2"
   inkscape:window-width="640"
   inkscape:window-height="480"
   id="namedview21"
   showgrid="false"
   fit-margin-top="0"
   fit-margin-left="0"
   fit-margin-right="0"
   fit-margin-bottom="0"
   inkscape:zoom="0.27314815"
   inkscape:cx="396"
   inkscape:cy="206.8"
   inkscape:window-x="0"
   inkscape:window-y="0"
   inkscape:window-maximized="0"
   inkscape:current-layer="Layer_1" />
<style
   type="text/css"
   id="style2">
	.st0{fill:#FFFFFF;}
</style>
<g
   id="g18"
   transform="translate(-36,-225.59825)">
	<path
   d="m 126.6,508.8 c 6.1,-5.3 10.1,-12.7 10.1,-21.4 0,-17.9 -17.3,-30.2 -34.3,-30.2 H 41.9 c -3.1,0.4 -4.6,3.1 -4.6,5.5 0,2.6 1.5,5 4.6,5.7 h 7 c 2,0 3.3,1.5 3.3,3.5 V 582 c 0,1.8 -1.1,3.1 -2.8,3.3 h -7.7 c -3.7,0 -5.7,2.8 -5.7,5.7 0,2.8 2,5.7 5.7,5.7 h 63.9 c 25.8,0 51.4,-18.6 51.4,-45.9 0,-19.7 -13.4,-35 -30.4,-42 z M 95.7,585.2 H 78.2 V 468.3 h 15.3 c 10.5,0 19.3,8.5 19.3,19 0,10.1 -7.9,19.3 -17.9,19.3 h -5.3 c -3.9,0 -5.9,2.6 -5.9,5.5 0,2.8 2,5.7 5.9,5.7 h 10.3 c 19.3,0 31.7,15.1 31.7,33.5 -1.1,18.5 -17.5,33.9 -35.9,33.9 z"
   id="path4"
   inkscape:connector-curvature="0" />
	<path
   d="m 288.7,585.4 h -3.5 c -2.8,0 -6.1,-2.6 -7,-5.3 L 235.8,456.3 c -0.9,-2.6 -3.3,-3.5 -5.7,-3.5 -2,0 -3.9,1.1 -4.8,3.3 L 173,577.9 c -4.4,9.8 -19,4.6 -19,12.9 0,2.8 2,5.7 5.9,5.7 h 33.5 c 3.9,0 5.9,-2.8 5.9,-5.7 0,-2.8 -2,-5.5 -5.9,-5.5 h -5.7 c -2,0 -3.7,-1.3 -3.7,-3.5 0,-0.4 0,-1.1 0.2,-1.5 L 203.7,535 h 31.5 l 16.8,50.3 h -8.1 c -3.9,0 -5.9,2.6 -5.9,5.5 0,2.8 2,5.7 5.9,5.7 h 44.9 c 3.7,0 5.7,-2.8 5.7,-5.7 -0.1,-2.8 -2.1,-5.4 -5.8,-5.4 z m -80.3,-61.5 12.9,-30 10.1,30 z"
   id="path6"
   inkscape:connector-curvature="0" />
	<path
   d="m 503.3,610.5 c -1.3,0 -2.8,0.4 -4.2,2 -8.5,9.2 -20.1,14.9 -32.4,14.9 -40.5,0 -70.5,-66.9 -91,-100.2 L 412,468.3 h 16.4 c 3.9,0 5.9,-2.8 5.9,-5.7 0,-2.8 -2,-5.5 -5.9,-5.5 h -39.6 c -3.9,0 -5.9,2.6 -5.9,5.5 0,2.8 2,5.7 5.9,5.7 h 7.4 l -49.7,80.1 v -76.6 c 0,-2 1.5,-3.5 3.5,-3.5 h 6.3 c 3.9,0 5.9,-2.8 5.9,-5.7 0,-2.8 -2,-5.5 -5.9,-5.5 h -45.7 c -3.9,0 -5.9,2.6 -5.9,5.5 0,2.8 2,5.7 5.9,5.7 h 6.3 c 2,0 3.5,1.5 3.5,3.5 v 110.1 c 0,2 -1.5,3.5 -3.5,3.5 h -6.3 c -3.9,0 -5.9,2.6 -5.9,5.5 0,2.8 2,5.7 5.9,5.7 h 45.7 c 3.9,0 5.9,-2.8 5.9,-5.7 0,-2.8 -2,-5.5 -5.9,-5.5 H 350 c -2,0 -3.5,-1.5 -3.5,-3.5 V 574 l 13.1,-21 c 21.9,37.4 56.2,85.8 102.4,85.8 17.5,0 33,-5.3 45.1,-18.6 1.3,-1.3 1.8,-2.8 1.8,-4.2 0.1,-3.1 -2.5,-5.5 -5.6,-5.5 z"
   id="path8"
   inkscape:connector-curvature="0" />
	<path
   d="m 541.6,558.2 c -2.8,0 -5.7,2 -5.7,5.9 0,17.9 -14.2,21.2 -29.5,21.2 H 493 c -2,0 -3.5,-1.5 -3.5,-3.5 v -40.7 h 24.3 v 9.8 c 0,3.9 2.8,5.9 5.7,5.9 2.8,0 5.5,-2 5.5,-5.9 v -26.7 c 0,-3.9 -2.6,-5.9 -5.5,-5.9 -2.8,0 -5.7,2 -5.7,5.9 v 5.5 h -24.3 v -58 c 0,-1.8 1.8,-3.5 3.5,-3.5 0,0 17.1,0.4 24.3,3.1 10.5,3.9 10.7,10.9 10.7,19.3 0,3.9 2.8,5.9 5.5,5.9 2.8,0 5.7,-2 5.7,-5.9 v -28 c 0,-2.8 -2.8,-5.5 -5.7,-5.5 H 451 c -3.9,0 -5.9,2.6 -5.9,5.5 0,2.8 2,5.7 5.9,5.7 h 9.2 c 1.8,0 3.3,1.5 3.3,3.5 v 110.1 c 0,2 -1.5,3.5 -3.3,3.5 H 451 c -3.9,0 -5.9,2.6 -5.9,5.5 0,2.8 2,5.7 5.9,5.7 h 90.6 c 2.8,0 5.5,-2.8 5.5,-5.7 v -26.7 c 0,-4 -2.6,-6 -5.5,-6 z"
   id="path10"
   inkscape:connector-curvature="0" />
	<path
   d="m 703.3,562.4 c -1.5,0 -3.3,0.9 -4.6,2.8 -6.6,10.3 -17.1,16.6 -29.3,16.6 -19.3,0 -29.3,-19.7 -30.4,-36.3 23.6,-1.8 51.2,-17.5 51.2,-44.2 0,-28.9 -31.5,-44.2 -56.7,-44.2 h -70 c -3.9,0 -5.9,2.6 -5.9,5.5 0,2.8 2,5.7 5.9,5.7 h 6.3 c 2,0 3.5,1.5 3.5,3.5 v 110.1 c 0,2 -1.5,3.5 -3.5,3.5 h -6.3 c -3.9,0 -5.9,2.6 -5.9,5.5 0,2.8 2,5.7 5.9,5.7 h 45.7 c 3.9,0 5.9,-2.8 5.9,-5.7 0,-2.8 -2,-5.5 -5.9,-5.5 h -6.3 c -2,0 -3.5,-1.5 -3.5,-3.5 V 471.8 c 0,-2 1.5,-3.5 3.5,-3.5 h 23.2 c 17.9,0 38.3,12 38.3,32.4 0,19.9 -19.7,32.4 -37.9,32.4 -5.7,0 -10.9,-1.3 -16.4,-2.6 0,33 15.8,66.1 53.4,66.1 18.2,0 35,-9.8 44.6,-25.2 0.7,-1.1 1.1,-2.4 1.1,-3.3 0,-3.1 -2.8,-5.7 -5.9,-5.7 z"
   id="path12"
   inkscape:connector-curvature="0" />
	<path
   d="m 822.1,457.2 h -38.9 c -3.9,0 -5.9,2.6 -5.9,5.5 0,2.8 2,5.7 5.9,5.7 h 7 c 1.5,0 2.4,1.3 2.4,2.6 0,0.9 -0.2,1.5 -0.7,2.2 l -22.1,35.7 -25.4,-36.1 c -0.4,-0.7 -0.7,-1.3 -0.7,-2 0,-1.3 0.9,-2.4 2.8,-2.4 h 5.5 c 3.9,0 5.9,-2.8 5.9,-5.7 0,-2.8 -2,-5.5 -5.9,-5.5 h -53.6 c -3.9,0 -5.9,2.6 -5.9,5.5 0,2.8 2,5.7 5.9,5.7 h 8.1 c 4.2,0 5.9,0.7 8.5,4.4 l 36.1,51 V 582 c 0,2 -1.5,3.5 -3.5,3.5 h -6.3 c -3.9,0 -5.9,2.6 -5.9,5.5 0,2.8 2,5.7 5.9,5.7 H 787 c 3.9,0 5.9,-2.8 5.9,-5.7 0,-2.8 -2,-5.5 -5.9,-5.5 h -6.3 c -2,0 -3.5,-1.5 -3.5,-3.5 V 521.8 L 806.3,473 c 2.4,-3.9 4.4,-4.6 8.8,-4.6 h 7 c 3.9,0 5.9,-2.8 5.9,-5.7 0,-2.9 -2,-5.5 -5.9,-5.5 z"
   id="path14"
   inkscape:connector-curvature="0" />
	<path
   d="m 153.9,429.4 c 9.6,0.6 17.7,1.1 17.8,1.2 v 0 c 0.2,0.1 117.8,0.5 261.5,0.8 286,0.6 273.2,1 292.1,-10 11.5,-6.8 14.1,-9.2 25.4,-24.1 13,-17.2 15.8,-25.1 15.8,-45 0,-14.8 -0.5,-17 -7.4,-31.3 -8.3,-17.2 -15.8,-25.9 -31.3,-36.4 -16.3,-11.1 -44.5,-24.7 -45.4,-21.9 -0.4,1.3 -1.2,13.5 -1.7,27.2 -0.6,13.7 -2.2,29.7 -3.6,35.5 -2.5,10.1 -9.8,23.5 -12.8,23.5 -0.8,0 -1.2,-15.1 -0.9,-33.6 0.4,-28 0,-36 -3,-47.9 -1.2,-4.7 -0.1,-10.7 -3.5,-14.2 -2.3,-2.3 -6.3,-1.8 -9.4,-2.6 -26.5,-7.4 -62.9,-13.3 -64.7,-10.4 -0.6,1 0.1,10.4 1.6,20.8 3.4,23.9 1.6,57.5 -3.5,65.4 -3.1,4.7 -3.4,4.8 -4.7,1.4 -0.8,-2 -1.5,-10.3 -1.6,-18.4 -0.3,-32.6 -8.8,-64.1 -19.5,-72.5 -3.2,-2.5 -10,-4 -25.3,-5.6 -33.2,-3.4 -76.3,-4.8 -77.7,-2.6 -0.6,1.1 1.2,7.2 4.2,13.7 7.6,16.8 10,31.3 9,55.5 -0.8,21.2 -4.6,33.9 -9.4,32.3 -2.7,-0.9 -4,-6.3 -7.7,-33.3 -3.3,-24 -7.4,-36.9 -17.2,-54 -8.6,-15.1 -12.7,-17.3 -33,-17.3 -28.8,-0.1 -84.4,4.1 -87,6.5 -2,1.8 -1.4,3.7 3.2,10.3 3.1,4.4 8.7,16.4 12.4,26.5 5.3,14.8 6.9,22 7.6,36.2 1.1,20.3 -0.4,31.1 -4.1,31.1 -3.1,0 -3.8,-2.2 -7.4,-22.6 -6.3,-36.2 -23.3,-66 -43.3,-76.1 -5.1,-2.6 -9,-3 -20.2,-2 -23.4,2 -59.4,8.9 -60.4,11.6 -0.5,1.4 1.1,5.2 3.6,8.5 15.8,20.9 26.9,61.5 22.8,83.2 -1.9,10.3 -5.5,8 -9.1,-5.8 -6.1,-23.2 -23.1,-55.1 -36.7,-69 -9.4,-9.7 -17,-13.2 -25.1,-11.6 -26.2,4.9 -65.9,31 -81.4,53.5 -7.5,10.8 -13,28.7 -13.4,43 -0.5,17.1 5.6,29.7 23,47.7 20.3,20.7 42.9,31.2 71.4,32.8 z"
   id="path16"
   inkscape:connector-curvature="0" />
</g>
</svg>