<?xml version="1.0" encoding="UTF-8" standalone="no"?>
<!-- Creator: CorelDRAW X6 -->

<svg
   xmlns:dc="http://purl.org/dc/elements/1.1/"
   xmlns:cc="http://creativecommons.org/ns#"
   xmlns:rdf="http://www.w3.org/1999/02/22-rdf-syntax-ns#"
   xmlns:svg="http://www.w3.org/2000/svg"
   xmlns="http://www.w3.org/2000/svg"
   xmlns:sodipodi="http://sodipodi.sourceforge.net/DTD/sodipodi-0.dtd"
   xmlns:inkscape="http://www.inkscape.org/namespaces/inkscape"
   xml:space="preserve"
   width="2.5018754in"
   height="2.4917836in"
   version="1.1"
   style="clip-rule:evenodd;fill-rule:evenodd;image-rendering:optimizeQuality;shape-rendering:geometricPrecision;text-rendering:geometricPrecision"
   viewBox="0 0 2501.8754 2491.7836"
   id="svg4122"
   sodipodi:docname="9561.svg"
   inkscape:version="0.92.3 (2405546, 2018-03-11)"><metadata
   id="metadata4126"><rdf:RDF><cc:Work
       rdf:about=""><dc:format>image/svg+xml</dc:format><dc:type
         rdf:resource="http://purl.org/dc/dcmitype/StillImage" /><dc:title></dc:title></cc:Work></rdf:RDF></metadata><sodipodi:namedview
   pagecolor="#ffffff"
   bordercolor="#666666"
   borderopacity="1"
   objecttolerance="10"
   gridtolerance="10"
   guidetolerance="10"
   inkscape:pageopacity="0"
   inkscape:pageshadow="2"
   inkscape:window-width="1068"
   inkscape:window-height="576"
   id="namedview4124"
   showgrid="false"
   inkscape:zoom="0.40901275"
   inkscape:cx="967.8558"
   inkscape:cy="-44.831436"
   inkscape:window-x="6"
   inkscape:window-y="6"
   inkscape:window-maximized="0"
   inkscape:current-layer="svg4122"
   fit-margin-top="0"
   fit-margin-left="0"
   fit-margin-right="0"
   fit-margin-bottom="0" />
 <defs
   id="defs4">
  <style
   type="text/css"
   id="style2">
   <![CDATA[
    .fil1 {fill:#353538}
    .fil0 {fill:#FEFEFE}
    .fil2 {fill:#353538;fill-rule:nonzero}
    .fil3 {fill:#FEFEFE;fill-rule:nonzero}
   ]]>
  </style>
 
  
  
  
  
  
  
  
  
  
  
  
  
  
  
  
  
  
  
  
  
  
  
  
  
  
  
  
  
  
  
  
  
  
  
  
  
  
  
  
  
  
  
  
  
  
  
  
  
  
  
  
  
  
  
  
  
  
  
  
  
  
  
  
  
  
  
  
  
  
  
  
  
  
  
  
  
  
  
  
  
  
  
  
  
  
  
  
  
  
  
  
  
  
  
  
  
  
  
  
  
  
  
  
  
  
  
  
  
  
  
  
  
  
  
  
  
  
  
  
  
  
  
  
  
  
  
  
  
  
  
  
  
  
  
  
  
  
  
  
  
  
  
  
  
  
  
  
  
  
  
  
  
  
  
  
  
  
  
  
  
  
  
  
  
  
  
  
  
  
  
  
  
  
  
  
  
  
  
  
  
  
  
  
  
  
  
  
  
  
  
  
  
  
  
  
  
  
  
  
  
  
  
  
  
  
  
  
  
  
  
  
  
  
  
  
  
  
  
  
  
  
  
  
  
  
  
  
  
  
  
  
  
  
  
  
  
  
  
  
  
  
  
  
  
  
  
  
  
  
  
  
  
  
  
  
  
  
  
  
  
  
  
  
  
  
  
  
  
  
  
  
  
  
  
  
  
  
  
  
  
  
  
  
  
  
  
  
  
  
  
  
  
  
  
  
  
  
  
  
  
  
  
  
  
  
  
  
  
  
  
  
  
  
  
  
  
  
  
  
  
  
  
  
  
  
  
  
  
  
  
  
  
  
  
  
  
  
  
  
  
  
  
  
  
  
  
  
  
  
  
  
  
  
  
  
  
  
  
  
  
  
  
  
  
  
  
  
  
  
  
  
  
  
  
  
  
  
  
  
  
  
  
  
  
  
  
  
  
  
  
  
  
  
  
  
  
  
  
  
  
  
  
  
  
  
  
  
  
  
  
  
  
  
  
  
  
  
  
  
  
  
  
  
  
  
  
  
  
  
  
  
  
  
  
  
  
  
  
  
  
  
  
  
  
  
  
  
  
  
  
  
  
  
  
  
  
  
  
  
  
  
  
  
  
  
  
  
  
  
  
  
  
  
  
  
  
  
  
  
  
  
  
  
  
  
  
  
  
  
  
  
  
  
  
  
  
  
  
  
  
  
  
  
  
  
  
  
  
  
  
  
  
  
  
  
  
  
  
  
  
  
  
  
  
  
  
  
  
  
  
  
  
  
  
  
  
  
  
  
  
  
  
  
  
  
  
  
  
  
  
  
  
  
  
  
  
  
  
  
  
  
  
  
  
  
  
  
  
  
  
  
  
  
  
  
  
  
  
  
  
  
  
  
  
  
  
  
  
  
  
  
  
  
  
  
  
  
  
  
  
  
  
  
  
  
  
  
  
  
  
  
  
  
  
  
  
  
  
  
  
  
  
  
  
  
  
  
  
  
  
  
  
  
  
  
  
  
  
  
  
  
  
  
  
  
  
  
  
  
  
  
  
  
  
  
  
  
  
  
  
  
  
  
  
  
  
  
  
  
  
  
  
  
  
  
  
  
  
  
  
  
  
  
  
  
  
  
  
  
  
  
  
  
  
  
  
  
  
  
  
  
  
  
  
  
  
  
  
  
  
  
  
  
  
  
  
  
  
  
  
  
  
  
  
  
  
  
  
  
  
  
  
  
  
  
  
  
  
  
  
  
  
  
  
  
  
  
  
  
  
  
  
  
  
  
  
  
  
  
  
  
  
  
  
  
  
  
  
  
  
  
  
  
  
  
  
  
  
  
  
  
  
  
  
  
  
  
  
  
  
  
  
  
  
  
  
  
  
  
  
  
  
  
  
  
  
  
  
  
  
  
  
  
  
  
  
  
  
  
  
  
  
  
  
  
  
  
  
  
  
  
  
  
  
  
  
  
  
  
  
  
  
  
  
  
  
  
  
  
  
  
  
  
  
  
  
  
  
  
  
  
  
  
  
  
  
  
  
  
  
  
  
  
  
  
  
  
  
  
  
  
  
  
  
  
  
  
  
  
  
  
  
  
  
  
  
  
  
  
  
  
  
  
  
  
  
  
  
  
  
  
  
  
  
  
  
  
  
  
  
  
  
  
  
  
  
  
  
  
  
  
  
  
  
  
  
  
  
  
  
  
  
  
  
  
  
  
  
  
  
  
  
  
  
  
  
  
  
  
  
  
  
  
  
  
  
  
  
  
  
  
  
  
  
  
  
  
  
  
  
  
  
  
  
  
  
  
  
  
  
  
  
  
  
  
  
  
  
  
  
  
  
  
  
  
  
  
  
  
  
  
  
  
  
  
  
  
  
  
  
  
  
  
  
  
  
  
  
  
  
  
  
  
  
  
  
  
  
  
  
  
  
  
  
  
  
  
  
  
  
  
  
  
  
  
  
  
  
  
  
  
  
  
  
  
  
  
  
  
  
  
  
  
  
  
  
  
  
  
  
  
  
  
  
  
  
  
  
  
  
  
  
  
  
  
  
  
  
  
  
  
  
  
  
  
  
  
  
  
  
  
  
  
  
  
  
  
  
  
  
  
  
  
  
  
  
  
  
  
  
  
  
  
  
  
  
  
  
  
  
  
  
  
  
  
  
  
  
  
  
  
  
  
  
  
  
  
  
  
  
  
  
  
  
  
  
  
  
  
  
  
  
  
  
  
  
  
  
  
  
  
  
  
  
  
  
  
  
  
  
  
  
  
  
  
  
  
  
  
  
  
  
  
  
  
  
  
  
  
  
  
  
  
  
  
  
  
  
  
  
  
  
  
  
  
  
  
  
  
  
  
  
  
  
  
  
  
  
  
  
  
  
  
  
  
  
  
  
  
  
  
  
  
  
  
  
  
  
  
  
  
  
  
  
  
  
  
  
  
  
  
  
  
  
  
  
  
  
  
  
  
  
  
  
  
  
  
  
  
  
  
  
  
  
  
  
  
  
  
  
  
  
  
  
  
  
  
  
  
  
  
  
  
  
  
  
  
  
  
  
  
  
  
  
  
  
  
  
  
  
  
  
  
  
  
  
  
  
  
  
  
  
  
  
  
  
  
  
  
  
  
  
  
  
  
  
  
  
  
  
  
  
  
  
  
  
  
  
  
  
  
  
  
  
  
  
  
  
  
  
  
  
  
  
  
  
  
  
  
  
  
  
  
  
  
  
  
  
  
  
  
  
  
  
  
  
  
  
  
  
  
  
  
  
  
  
  
  
  
  
  
  
  
  
  
  
  
  
  
  
  
  
  
  
  
  
  
  
  
  
  
  
  
  
  
  
  
  
  
  
  
  
  
  
  
  
  
  
  
  
  
  
  
  
  
  
  
  
  
  
  
  
  
  
  
  
  
  
  
  
  
  
  
  
  
  
  
  
  
  
  
  
  
  
  
  
  
  
  
  
  
  
  
  
  
  
  
  
  
  
  
  
  
  
  
  
  
  
  
  
  
  
  
  
  
  
  
  
  
  
  
  
  
  
  
  
  
  
  
  
  
  
  
  
  
  
  
  
  
  
  
  
  
  
  
  
  
  
  
  
  
  
  
  
  
  
  
  
  
  
  
  
  
  
  
  
  
  
  
  
  
  
  
  
  
  
  
  
  
  
  
  
  
  
  
  
  
  
  
  
  
  
  
  
  
  
  
  
  
  
  
  
  
  
  
  
  
  
  
  
  
  
  
  
  
  
  
  
  
  
  
  
  
  
  
  
  
  
  
  
  
  
  
  
  
  
  
  
  
  
  
  
  
  
  
  
  
  
  
  
  
  
  
  
  
  
  
  
  
  
  
  
  
  
  
  
  
  
  
  
  
  
  
  
  
  
  
  
  
  
  
  
  
  
  
  
  
  
  
  
  
  
  
  
  
  
  
  
  
  
  
  
  
  
  
  
  
  
  
  
  
  
  
  
  
  
  
  
  
  
  
  
  
  
  
  
  
  
  
  
  
  
  
  
  
  
  
  
  
  
  
  
  
  
  
  
  
  
  
  
  
  
  
  
  
  
  
  
  
  
  
  
  
  
  
  
  
  
  
  
  
  
  
  
  
  
  
  
  
  
  
  
  
  
  
  
  
  
  
  
  
  
  
  
  
  
  
  
  
  
  
  
  
  
  
  
  
  
  
  
  
  
  
  
  
  
  
  
  
  
  
  
  
  
  
  
  
  
  
  
  
  
  
  
  
  
  
  
  
  
  
  
  
  
  
  
  
  
  
  
  
  
  
  
  
  
  
  
  
  
  
  
  
  
  
  
  
  
  
  
  
  
  
  
  
  
  
  
  
  
  
  
  
  
  
  
  
  
  
  
  
  
  
  
  
  
  
  
  
  
  
  
  
  
  
  
  
  
  
  
  
  
  
  
  
  
  
  
  
  
  
  
  
  
  
  
  
  
  
  
  
  
  
  
  
  
  
  
  
  
  
  
  
  
  
  
  
  
  
  
  
  
  
  
  
  
  
  
  
  
  
  
  
  
  
  
  
  
  
  
  
  
  
  
  
  
  
  
  
  
  
  
  
  
  
  
  
  
  
  
  
  
  
  
  
  
  
  
  
  
  
  
  
  
  
  
  
  
  
  
  
  
  
  
  
  
  
  
  
  
  
  
  
  
  
  
  
  
  
  
  
  
  
  
  
  
  
  
  
  
  
  
  
  
  
  
  
  
 </defs>
 <path
   style="fill:#353538"
   inkscape:connector-curvature="0"
   id="path3951"
   d="m 2056,410.78363 c 2,-7 9,-30 13,-35 11,-15 8,-38 17,-56 4,-10 7,-19 7,-30 -1,-26 14,-115 15,-166 63,16 131,81 102,188 -17,64 -58,94 -154,100 z m -1557,-144 c 0,0 0,0 0,-1 l 1,1 c 0,0 0,0 -1,0 z m 156,221 c -1,-19 -2,-39 -5,-58 -1,-8 -4,-17 -4,-25 0,-9 2,-16 -1,-25 -4,-12 -1,-48 -23,-111 -3,-7 -1,-17 -3,-22 -6,-16 -21,-95 -30,-101 -12,-7 1,-41 6,-51.000002 7,-15 -11,-20 -22,-17 -50,17 -64,12 -104,27.000002 -5,2 9,50 10,55 2,17 3,73 5,81 4,16 12,31 14,48 2,18 7,36 11,53 2,6 21,10 13,19 -4,4 -5,-1 -8,-4 0,23 14,81 18,119 -45,-48 -180,-235 -204,-270 -5,-8 -18,-17 -24,-24 -15,-16 -23,-17 -43,-9 -35,14 -71,38 -91,71 -6,10 -6,9 3,16 9,7 14,-9 20,-12 13,-6 57,-32 66,-35 58,173 103,452 -31,491 -72,21 -26,-69 -59,-98 -16,-14 -49,28 -39,61 17,58 51,81 108,65 163,-45 111,-323 67,-499 22,32 203,282 204,282 7,1 4,7 7,11 20,27 26,35 37,49 12,-9 54,-6 63,-15 11,-10 39,31 30,-27 -3,-21 10,-14 9,-48 v 0 z M 1499,14.783625 c -11,-2 -21,-7.0000004 -33,-6.0000004 -25,2.0000004 -50,-14 -76,-7 -9,2 -55,0 -38,14.0000004 1,1 23,5 15,20.000003 -24,49 -21,41 -39,99.000002 -16,50 -60,155 -66,190 -7,37 -6,22 -13,46 -4,13 -4,31 -13,41 -3,-8 0,-10 -2,-18 -9,-49 -74,-319.000002 -69,-343.000002 2,-11 2,-23 12,-31.000003 4,-3 0,-11.0000004 -5,-12.0000004 -9,-1 -44,0 -51,6.0000004 -7,8 -26,4 -39,7 -2,0 -4,4.000003 -6,5.000003 27,24 26,-29.0000034 55,88.000002 29,126 62,249 91,374 5,23 16,1 79,6 14,1 13,-1 22,-11 16,-19 33,-106 46,-136 9,-22 13,-47 27,-67 4,-6 6,-26 10,-35 21,-45 21,-81 50,-117 5,-7 -1,-12 9,-29.000002 6,-11 -2,-20 11,-36 14,-19 40,-43.000003 25,-45.000003 v 0 z m 370,47.000003 c 9,2 13,12 18,18 4,5 -17,12 -30,6 -9,-4 -100,-20 -106,-19 -13,3 -14,17 -13,28 2,17.000002 -10,30.000002 -17,63.000002 -3,14 -8,21 -13,45 -4,23 -8,31 -14,47 19,-5 76,3 95,5 30,3 -6,32 -9,33 -25,1 -74,-7 -91,-7 -3,18 -21,79 -20,109 0,9 -4,17 -3,25 2,27 -23,46 0,48 50,5 42,1 88,16 16,5 42,4 46,24 4,19 -32,9 -43,11 -3,1 -162,-26 -181,-26 -14,0 -23,7 -41,7 -9,0 -5,-27 -1,-31 3,-4 14,-74 17,-86 4,-17 9,-33 13,-50 7,-31 23,-156 28,-190 2,-10 5,-20 7,-30 2,-12.000002 2,-25.000002 3,-37.000002 0,-5 3,-12 -3,-15 -7,-3 -9,-22 1,-17 8,4 52,-6 75,-1 7,1 14,0 21,1 56,6 122,11 176,24 v 0 z M 1052,488.78363 c -4,-13 -29,-10 -41,-11 -29,-3 -56,-3 -84,3 -8,2 -14,-3 -12,-10 5,-15 -9,-31 -4,-45 6,-21 -14,-30 -11,-46 3,-16 -5,-33 -7,-49 -1,-10 0,-21 0,-31 0,-6 7,-7 12,-7 6,0 87,-14 73,-34 -8,-11 -18,0 -48,1 -49,1 -43,9 -46,-29 -3,-37 0,-20 -6,-58 -3,-17 10,-32 3,-50 -2,-5 4,-27.000002 -6,-46.000002 -10,-19 57,-8 96,-25 12,-5 6,-26 -17,-25 -30,2 -59,5 -89,7 -20,2 -42,-2 -60,9 -17,11 -35,-3 -46,20 -4,9 1,17 3,26 1,5 1,10 3,15.000002 8,26 18,51 21,78 3,30 4,59 7,89 5,47 13,101 19,149 3,21 11,41 6,63 -1,6 7,37 9,44 6,26 30,1 72,1 11,0 21,-17 80,-11 27,3 83,0 73,-28 z m 1431,154 c -1,-40 -6,-31 -43,-31 -6,0 7,89 -66,89 -65,0 -214,-230 -254,-264 78,-8 122,-78 134,-147 18,-109 -75,-191.000002 -177,-217.000002 -13,-3 -27,2 -39,-5 -1,-1 -48,1 -53,3 -4,2 -5,8 0,10 l 14,4 c -10,16.000002 -12,25.000002 -16,48.000002 -4,21 -5,42 -13,63 -8,23 -5,52 -17,86 -3,9 -2,18 -4,28 -3,12 -6,23 -9,34 l -12,69 c 2,29 -12,58 -19,86 -4,15 -4,30 -15,43 -7,9 6,17 10,23 4,7 9,9 17,7 13,-2 -2,-31 24,-23 42,13 38,29 62,27 7,0 15,6 16,-4 2,-19 -7,0 10,-43 5,-14 16,-65 16,-78 108,10 194,279 335,279 38,0 98,-44 97,-86 v 0 z"
   class="fil1" /><path
   style="fill:#353538"
   inkscape:connector-curvature="0"
   id="path3953"
   d="m 2212,2019.7836 c 21,-15 24,-45 12,-54 -2,-48 52,-130 124,-90 -16,22 -57,120 -63,149 -52,53 -83,17 -72,-5 z m 2,-106 c 0,0 1,1 1,1 -2,1 -3,1 -1,-1 z m 144,-54 c 1,0 1,1 3,2 h -4 c 0,-1 1,-1 1,-1 v 0 z m -168,489 c -1,8 -5,15 -2,24 1,3 -14,17 -3,15 5,-1 7,-1 11,2 -6,8 -18,0 -19,10 -3,20 -5,74 -36,71 -52,-6 -26,-153 83,-234 -4,21 -33,99 -35,113 v 0 z m 5,102 c -3,3 -7,5 -10,7 l -7,-3 c 5,-3 8,-1 11,-6 1,-3 8,-4 11,-5 -2,3 -3,5 -6,7 v 0 z m -96,9 c -2,-3 -4,-3 -3,-6 2,3 4,3 3,6 z m -1,-11 c 0,0 0,0 1,0 0,0 0,1 0,1 0,0 0,0 -1,0 0,0 0,-1 0,-1 z m -687,-477 c -37,24 -106,83 -123,81 -12,-44 116,-298 167,-378 29,1 88,2 100,0 -18,49 -120,250 -144,296 v 0 z m 45,78 c 1,-5 0,-9 3,-13 1,4 -1,8 -3,13 z m 340,236 c 0,0 0,0 1,0 0,0 0,0 0,1 v -1 0 z m -928,126 c -23,1 -15,-36 -10,-42 31,-50 80,-84 134,-107 -27,77 -77,146 -124,148 v 0 z m -23,2 c 0,0 0,0 0,-1 h 1 c 0,0 -1,0 -1,1 z m -310,-536 c -57,23 -96,49 -167,70 60,-87 166,-247 258,-328 -18,65 -82,233 -91,258 z m -334,-26 c 1,0 3,1 4,1 0,1 0,1 0,2 -5,3 -5,4 -10,1 2,-1 3,-3 5,-4 v 0 z m 832,-6 c 4,8 -42,65 -54,75 0,-1 28,-58 54,-75 z m 875,-120 c 11,7 14,33 11,40 -19,35 -43,14 -71,7 -20,-5 -20,-29 -11,-47 18,-37 38,-22 71,0 z m -464,372 c 10,-26 64,-166 95,-207 32,-22 124,-30 118,-14 -30,75 -99,186 -73,221 30,40 83,-50 114,-64 -1,9 8,43 37,46 83,9 25,10 90,-21 16,-8 27,-12 41,-23 -3,15 1,43 30,50 12,3 39,2 46,-9 8,-41 7,-89 58,-167 24,-19 112,-52 133,-58 6,0 8,2 7,7 -8,53 -106,213 -71,224 33,11 92,-20 113,-45 14,42 64,45 94,21 -5,19 -31,111 -46,149 -50,40 -131,127 -142,197 -7,43 10,87 53,87 29,0 60,-23 73,-42 63,-94 72,-180 106,-281 14,-4 87,-31 89,-43 -17,-6 -65,16 -83,24 7,-24 77,-225 86,-241 3,-5 22,-35 25,-34 38,12 -36,-102 -76,-29 -96,-53 -194,81 -183,168 -18,18 -67,55 -77,40 -11,-15 41,-130 48,-143 12,-20 32,-72 7,-81 -20,-7 -28,-3 -47,2 -11,3 -98,33 -103,30 19,-32 30,-47 -10,-53 0,0 -8,-15 -30,10 -30,33 -87,141 -96,185 -21,16 -96,67 -94,48 6,-68 53,-182 96,-217 9,-7 -28,-17 -51,-33 -7,-5 -16,-6 -22,2 -26,36 -50,82 -71,122 -17,33 -20,49 -31,81 -10,6 -52,38 -75,56 -28,-41 123,-207 54,-223 -36,-8 -83,-6 -122,11 18,-45 62,-123 88,-175 77,0 216,1 243,4 l 65,3 c 5,0 10,-1 15,-1 32,3 63,6 95,6 2,0 10,-5 12,-3 4,4 45,6 49,2 l 12,2 c 9,1 19,2 28,1 13,-1 3,-6 21,0 l 102,4 c 3,0 7,-4 10,-4 3,0 6,4 9,4 57,7 114,10 171,16 6,1 12,-1 18,4 8,7 16,-2 3,-6 -3,-1 -5,-2 -5,-7 1,-11 -8,-17 -18,-14 -14,5 -28,-5 -30,-3 -8,7 -16,0 -23,-1 -3,0 -5,-7 -8,-8 -4,-1 -9,1 -12,-1 -15,-11 -59,-5 -74,-1 -7,2 -20,-11 -37,-5 -15,5 -27,-7 -40,1 -3,2 -10,-6 -19,-6 -45,3 -45,-4 -82,-3 -21,0 -16,-4 -24,-5 -147,-10 -317,-21 -464,-26 14,-14 23,-47 21,-68 0,-5 -27,-26 -31,-30 -15,-13 -69,80 -79,95 -19,0 -70,-5 -94,-5 5,-8 11,-11 12,-21 0,-4 7,-13 6,-15 -6,-36 -9,-41 -44,-65 -10,-6 -17,4 -22,12 l -52,89 c -62,0 -349,-8 -375,-9 -61,-1 -45,5 -65,15 -15,7 -57,58 -71,82 149,-32 318,-42 492,-39 -16,35 -131,254 -136,293 -37,19 -49,47 -78,65 7,-38 50,-140 67,-189 2,-6 -1,-14 -7,-15 -22,-3 -39,-39 -53,-18 -31,55 -56,144 -76,203 -35,36 -116,78 -97,-39 20,-31 74,-91 80,-144 3,-21 -21,-30 -40,-13 -27,25 -52,62 -70,139 -12,19 -50,92 -75,92 -21,0 43,-119 53,-134 15,-22 7,-39 -4,-61 -19,-36 -90,-6 -120,4 6,-15 20,-30 5,-36 -67,-28 -50,-30 -72,12 -6,11 -8,24 -18,33 -12,10 -41,103 -49,130 -38,14 -62,34 -76,38 39,-179 139,-427 149,-451 9,-19 -3,-22 -9,-37 -3,-7 -8,-11 -16,-10 -81,1 -55,-13 -112,41 -123,117 -329,534 -475,525 -49,-3 -91,-42 -91,-112 0,-86 134,-132 199,-137 9,-1 -8,-9 -9,-18 -2,-19 1,-44 -9,-61 -13,-22 -4,-36 -20,-28 -119,58 -198,129 -198,259 0,72 59,127 124,127 105,0 159,-75 220,-142 13,2 167,-73 175,-69 0,0 -20,122 -22,131 -3,17 -1,34 -6,51 -1,2 2,5 3,8 9,-4 16,-16 25,-13 11,3 21,2 30,-5 9,-7 21,-8 28,-18 2,-3 8,0 12,-10 3,-9 19,-9 28,-16 11,-9 33,-17 45,-25 -6,24 -12,90 11,75 12,-8 16,-20 33,-11 8,4 6,-21 17,-13 27,-56 54,-150 74,-183 5,-4 100,-37 103,-14 4,33 -41,92 -56,133 -8,23 -3,87 29,76 39,-13 49,-54 74,-85 -10,62 42,120 122,52 -16,49 -45,126 -61,170 -79,30 -180,124 -175,176 2,18 24,32 39,32 96,0 170,-95 195,-180 175,-25 457,22 612,67 5,1 11,7 17,5 7,-2 12,9 16,4 7,-7 23,10 29,12 7,2 53,22 56,19 7,-7 15,15 40,29 69,38 58,2 72,1 17,0 1,-30 15,-25 36,13 13,-15 31,-18 13,-2 24,-9 35,-15 12,-7 -11,-20 -17,-25 -31,-25 -51,-25 -91,-35 -10,-2 -20,-3 -29,-7 l -28,-9 c -18,-18 -45,-10 -66,-21 -9,-5 -33,-4 -46,-7 -8,-2 -16,-5 -25,-7 -170,-32 -436,-45 -605,-14 12,-28 34,-104 49,-120 18,-20 65,-66 87,-73 -3,31 11,77 54,81 36,3 85,-56 120,-85 -12,26 -32,63 -27,85 17,-5 51,-4 77,5 v 0 z"
   class="fil1" /><path
   style="fill:#353538"
   inkscape:connector-curvature="0"
   id="path3955"
   d="m 1447,1227.7836 c 4,-62 3,-111 4,-177 1,-49 2,-63.99997 -17,-107.99997 47,-2 175,41 174,141.99997 -1,102 -62,130 -162,143 z m -1242,-34 c 2,-30 -10,-210.99997 -15,-247.99997 91,-15 176,53 148,148.99997 -18,61 -67,118 -132,99 v 0 z m 232,245 c -86,-77 -76,-169 -151,-225 37,-24 70,-66 81,-129 20,-108.99997 -73,-183.99997 -181,-169.99997 -29,4 -43,-28 -97,-9 -13,4 2,39 0,72 -3,52.99997 -8,106.99997 -11,159.99997 -1,18 0,36 0,54 -1,35 -5,69 -3,104 0,4 1,8 1,12 -2,19 9,40 5,58 -1,6 4,9 5,14 h 12 c 23,2 29,0 52,-6 13,-3 21,7 26,-1 7,-11 23,-18 19,-32 l 3,-25 c 0,-12 5,-85 6,-88 17,3 42,2 50,-1 90,49 105,249 201,251 9,2 10,-5 22,-19 -14,-6 -30,-9 -42,-19 v 0 z m 770,-8 c 3,-18 -8,-33 -5,-38 6,-11 -8,-19 -2,-30 3,-5 -2,-14 -3,-19 -1,-15 -1,-30 -3,-45 -5,-36 8,-64 7,-82 -14,-17 -94,-16 -113,-13 -14,3 -14,2 -14,17 0,3 1,9 4,9 35,-2 37,-1 72,2 -1,9 -4,65 -8,69 -24,26 -69,57 -107,60 -20,1 -55,-8 -59,-25 14,-10 15,-90 9,-103 -6,-12 7,-15 2,-27 -6,-12 4,-18 -1,-41 -9,-47 -9,-78 -11,-126 -2,-44.99997 -7,-43.99997 -2,-99.99997 28,-22 76,-26 107,-10 24,12 40,27 47,55 9,32.99997 15,16.99997 24,15 34,-9 19,-9 -8,-59 -6,-11 -23,-29 -35,-34 -41,-15 -40,-19 -82,-15 -35,4 -39,6 -73,20 -81,32 -91,122.99997 -95,198.99997 -6,128 5,279 175,279 27,0 86,-20 111,-47 2,11 10,80 13,88 3,10 9,19 14,28 5,10 19,1 27,-1 18,-6 5,-14 7,-25 v 0 z m 1101,-116 c 0,0 1,1 2,1 -2,2 -2,2 -4,0 1,-1 1,-1 2,-2 v 0 z m 6,-124 c 2,1 4,3 7,5 -2,2 -3,3 -4,5 -2,-2 -4,-4 -6,-7 1,-1 2,-3 3,-2 v 0 z m -2,-27 c 0,0 0,0 0,0 0,0 0,0 0,0 0,0 0,0 1,0 v 0 z m 143,-246.99997 c 0,-15 -16,-9 -40,-5 l -65,9 c -61,6 -76,10 -136,8 -13,-1 -27,0 -40,-3 -17,-4 -34,-4 -51,-6 -5,0 -49,5 -37,15 32,26 21,10 39,14 39,10 18,9 66,11 0,55.99997 2,150.99997 -4,203.99997 -2,22 -7,46 -7,68 1,15 4,30 5,45 1,8 0,112 16,102 5,-3 5,11 13,3 9,-9 15,6 29,-1 4,-2 9,-9 15,-4 l 9,-3 c 30,-3 12,-28 31,-36 13,-6 20,18 23,5 4,-17 7,-70 -2,-82 -12,-16 1,-43 2,-54 0,-13 8,-19 -3,-31 -9,-10 22,-13 -9,-31 -9,-5 1,-11 0,-19 -3,-28 0,-141.99997 0,-165.99997 19,-3 79,-4 98,-11 11,-4 47,5 47,-11 0,-7 0,-13 0,-20 v 0 z m -430,436.99997 c 10,1 11,28 1,24 -13,-5 -26,-2 -38,-3 -20,-1 -66,-9 -84,-1 -20,9 -41,-4 -62,2 -9,2 -19,1 -28,1 -13,0 -47,3 -54,-9 -4,-7 5,-8 10,-10 23,-6 -7,-36 -6,-46 1,-15 -7,-29 -9,-43 l 2,-126 c 1,-7 -2,-14 -2,-21 1,-26 -4,-50 5,-75 2,-7 -3,-15 -2,-21 3,-19 11,-61.99997 1,-78.99997 -3,-5 0,-8 0,-14 4,-28 33,-11 57,-11 11,0 24,9 35,5 26,-8 93,2 124,4 15,1 22,28 9,27 -9,-1 -78,-8 -106,-5 5,12 -10,30 -3,47.99997 16,46 1,48 9,58 4,6 -4,49 -2,67 20,1 70,2 91,10 10,4 8,30 -9,27 -12,-2 -65,-4 -81,-1 0,51 -3,158 -3,183 16,0 71,-1 86,0 37,3 35,6 61,9 v 0 z m -1410,-30 c 1,0 2,1 3,2 -2,2 -4,3 -6,5 -3,-2 -5,-3 -6,-4 3,-1 6,-2 9,-3 z m -2,-13 c 2,4 3,3 0,6 -3,-3 -2,-2 0,-6 z m 9,19 c 1,0 2,1 4,2 -4,2 -4,3 -7,0 1,-1 2,-2 3,-2 z M 753,915.78363 c -23,-7 -44,-11 -68,-10 -27,2 -56,-7 -82,-1 -11,2 -40,1 -51,-2 -50,-10 -34,-2 -37,53 -3,53.99997 -6,84.99997 -5,139.99997 v 106 c 0,37 4,61 5,97 1,35 -17,76 6,72 20,-3 35,7 55,2 26,-6 62,-6 66,-7 34,-10 71,1 105,5 17,2 18,0 13,-17 -2,-5 -5,-9 -10,-9 l -103,-11 c -20,-2 6,-22 -13,-38 -10,-8 3,-8 5,-30 1,-16 0,-22 -7,-37 -7,-14 5,-24 -7,-39 -2,-2 -4,-6 -3,-8 10,-27 -25,-52 18,-55 l 60,-7 c 0,0 0,1 0,1 6,0 21,3 21,-5 0,-14 -4,-14 -26,-16 -20,-2 -41,0 -61,2 -17,2 -10,-5 -16,-31 -3,-10 -2,-17 -4,-27 -3,-14 -11,-52.99997 -16,-61.99997 -1,-2 5,-13 1,-23 -20,-54 71,-26 102,-29 8,-1 31,1 38,4 19,8 26,18 28,-1 1,-13 1,-13 -12,-17 v 0 z m 1057,620.99997 c -122,12 -193,-246 -267,-295 26,-12 101,-53 95,-161 -5,-104.99997 -128,-173.99997 -240,-170.99997 -32,1 -52,2 -82,15 -4,2 -1,11 -7,16 -11,7 8,26 8,58 0,13.99997 6,47.99997 3,53.99997 -1,3 -1,51 -2,61 -5,34 -4,83 -3,118 1,15 -3,30 3,45 1,3 -5,24 -1,35 2,5 3,11 1,16 -3,8 6,35 11,44 3,6 9,-2 14,7 3,5 9,15 15,16 23,2 17,-6 28,-8 12,-2 34,0 40,-13 4,-10 9,0 14,5 2,-4 4,-7 4,-11 l 3,-106 c 17,0 50,-6 62,-10 94,103 118,299 291,311 14,1 17,-2 19,-16 1,-8 -1,-10 -9,-9 v 0 z"
   class="fil1" /><path
   style="fill:#353538"
   inkscape:connector-curvature="0"
   id="path3957"
   d="m 1690,621.78363 c -30,8 -44,52 -41,67 10,-5 42,-44 41,-67 z m -235,-13 c -22,5 -47,42 -40,61 18,-8 44,-50 40,-61 z m 109,5 c -19,8 -34,34 -33,65 15,-10 46,-55 33,-65 z m -11,165 c 11,-47 -6,-68 -20,-81 -3,25 0,63 20,81 z m 123,22 c -6,-35 13,-44 -24,-83 -21,-22 -2,59 24,83 z m -254,-33 c 15,-37 12,-66 -6,-75 -15,14 -10,59 6,75 z m 419,-39 c -44,-19 -78,-37 -118,-19 27,22 67,27 118,19 z m -217,-21 c -13,-4 -47,-7 -64,-9 10,26 23,51 0,104 -72,-29 -45,-90 -51,-109 -17,0 -58,-5 -74,-4 25,21 15,72 -15,98 -35,-37 -29,-81 -28,-100 -6,0 -48,-1 -55,-1 -25,1 -34,-17 4,-19 15,-1 40,0 54,1 9,-33 25,-71 67,-84 16,5 8,66 -19,86 11,-1 48,3 67,4 1,-31 31,-98 74,-86 1,11 7,33 2,43 -6,-7 -7,2 -1,7 -6,20 -21,30 -34,40 13,2 58,5 71,6 1,-59 60,-82 77,-108 36,71 -23,93 -22,115 115,-63 187,13 246,47 -163,60 -226,-30 -253,-27 40,45 17,80 37,105 -35,3 -96,-16 -84,-111 v 0 z"
   class="fil1" /><path
   style="fill:#353538"
   inkscape:connector-curvature="0"
   id="path3959"
   d="m 842,621.78363 c 30,8 44,52 41,67 -10,-5 -42,-44 -41,-67 z m 235,-13 c 22,5 47,42 40,61 -18,-8 -44,-50 -40,-61 z m -109,5 c 19,8 34,34 33,65 -15,-10 -46,-55 -33,-65 z m 11,165 c -11,-47 6,-68 20,-81 3,25 0,63 -20,81 z m -123,22 c 6,-35 -13,-44 24,-83 21,-22 2,59 -24,83 z m 254,-33 c -15,-37 -12,-66 6,-75 15,14 10,59 -6,75 z m -419,-39 c 44,-19 78,-37 118,-19 -27,22 -67,27 -118,19 z m 217,-21 c 13,-4 47,-7 64,-9 -10,26 -23,51 0,104 72,-29 45,-90 51,-109 17,0 58,-5 74,-4 -25,21 -15,72 15,98 35,-37 29,-81 28,-100 6,0 48,-1 55,-1 25,1 34,-17 -4,-19 -15,-1 -40,0 -54,1 -9,-33 -25,-71 -67,-84 -16,5 -8,66 19,86 -11,-1 -48,3 -67,4 -1,-31 -31,-98 -74,-86 -1,11 -7,33 -2,43 6,-7 7,2 1,7 6,20 21,30 34,40 -13,2 -58,5 -71,6 -1,-59 -60,-82 -77,-108 -36,71 23,93 22,115 -115,-63 -187,13 -246,47 163,60 226,-30 253,-27 -40,45 -17,80 -37,105 35,3 96,-16 84,-111 v 0 z"
   class="fil1" />
</svg>