<?xml version="1.0" encoding="UTF-8" standalone="no"?>
<!DOCTYPE svg PUBLIC "-//W3C//DTD SVG 1.1//EN" "http://www.w3.org/Graphics/SVG/1.1/DTD/svg11.dtd">
<svg width="100%" height="100%" viewBox="0 0 62 66" version="1.1" xmlns="http://www.w3.org/2000/svg" xmlns:xlink="http://www.w3.org/1999/xlink" xml:space="preserve" xmlns:serif="http://www.serif.com/" style="fill-rule:evenodd;clip-rule:evenodd;stroke-linejoin:round;stroke-miterlimit:1.41421;">
    <g transform="matrix(1,0,0,1,-411.36,-91.0951)">
        <path d="M455.898,107.313C455.789,105.188 454.337,103.334 455.242,101.171C455.103,101.501 455.451,102.261 455.683,102.495C455.767,102.862 455.558,103.177 455.638,103.491C455.857,104.366 455.913,106.117 457.275,105.789C456.964,105.578 456.615,105.446 456.31,105.217C456.501,105.316 456.812,105.412 457.025,105.338C456.816,105.413 456.382,104.801 456.312,104.663C456.154,104.348 456.847,103.623 456.914,103.194C457.029,102.442 458.666,99.752 457.988,99.147C457.666,98.857 457.738,98.714 457.724,98.273C457.706,97.601 456.826,97.444 456.812,97.27C456.701,95.801 455.746,94.514 454.261,94.17C452.419,93.743 450.337,94.456 449.724,96.451C449.31,97.797 449.23,99.459 449.23,100.852C449.23,101.514 449.56,102.259 449.521,102.866C449.505,103.102 448.113,103.349 447.851,103.415C447.742,102.748 447.689,101.83 447.095,101.386C448.021,101.175 448.732,99.37 448.732,98.486C448.783,98.387 449.08,98.364 449.16,98.242C449.332,97.979 449.101,97.565 449.01,97.319C448.69,96.472 449.436,96.559 449.416,95.802C449.393,94.948 449.623,94.854 450.123,94.225C450.773,93.41 449.603,92.698 448.992,92.413C447.299,91.623 445.367,90.552 443.453,91.415C442.076,92.036 441.658,93.619 441.592,95.002C441.533,96.21 442.504,98.687 441.223,99.325C440.489,99.691 439.631,99.817 438.873,100.151C437.754,100.645 436.664,101.22 435.56,101.744C434.839,102.086 434.921,102.799 434.337,101.827C434.003,101.273 434.015,100.189 433.585,99.813C434.271,99.854 433.802,100.885 434.214,101.139C434.564,101.36 435.255,100.511 435.433,100.305C435.933,99.72 436.41,98.406 435.792,97.741C435.503,97.427 435.056,97.036 434.679,96.768C433.839,96.169 433.341,96.684 432.607,97.114C431.875,97.543 431.099,97.808 430.392,98.305C429.677,98.809 429.339,99.526 428.937,100.277C428.037,101.965 423.406,107.718 426.267,109.303C427.335,109.895 428.773,109.947 429.955,110.208C431.918,110.642 433.09,109.541 434.871,109.082C434.861,109.084 434.853,111.248 434.838,111.478C434.77,112.386 434.729,113.341 434.494,114.225C434.394,114.6 434.265,114.967 434.197,115.35C434.09,115.959 434.429,116.156 434.517,116.699C434.628,117.39 434.259,117.963 434.689,118.605C435.175,119.331 434.669,120.053 434.216,120.633C432.982,122.209 432.23,124.302 431.362,126.101C430.577,127.727 429.522,129.444 429.346,131.259C429.309,131.647 429.151,131.914 428.805,132.098C428.373,132.328 428.364,132.702 428.194,133.109C427.895,133.83 426.774,134.188 426.288,134.823C425.265,136.161 424.55,137.674 423.659,139.086C423.165,139.872 422.579,140.599 422.122,141.408C421.698,142.153 421.507,143.022 420.849,143.612C419.599,144.733 418.749,146.016 418.007,147.531C417.693,148.171 417.486,148.977 416.905,149.44C416.184,150.014 415.253,150.199 414.503,150.72C413.355,151.516 412.19,153.131 411.536,154.366C410.651,156.04 413.349,156.151 414.337,155.919C416.019,155.523 417.163,154.121 418.48,153.095C419.148,152.57 419.882,152.089 420.66,151.742C421.351,151.433 421.375,151.633 422.072,151.845C422.508,151.983 423.465,152.636 423.787,151.966C424.074,151.37 424.041,150.895 424.484,150.31C425.711,148.689 426.986,147.091 428.238,145.489C430.623,142.438 432.801,139.314 434.959,136.105C435.832,134.806 437.068,133.849 437.908,132.516C438.373,131.778 438.769,131.007 439.535,130.539C439.849,130.346 440.721,129.276 441.082,129.421C441.264,130.687 441.293,131.968 441.43,133.239C441.575,134.591 441.328,135.305 440.897,136.563C440.467,137.818 440.184,138.913 439.295,139.941C438.529,140.825 437.844,141.697 437.322,142.751C436.326,144.782 434.476,146.2 433.467,148.223C432.942,149.277 432.686,150.371 433.11,151.506C433.339,152.118 433.501,152.649 434.169,152.799C434.819,152.945 435.489,152.996 436.155,152.99C436.167,152.921 436.202,152.546 436.116,152.525C436.85,152.636 437.313,153.04 437.938,153.396C438.645,153.807 439.608,153.899 440.409,153.915C441.514,153.936 443.862,153.096 441.901,152.075C441.206,151.712 439.739,151.413 439.745,150.519C439.755,148.206 441.501,148.417 442.597,146.91C443.658,145.443 444.523,143.495 445.249,141.834C446.032,140.04 447.007,138.259 447.468,136.348C447.835,134.832 448.482,133.29 449.148,131.884C449.519,131.102 450.632,132.409 451.099,132.76C452.462,133.784 454.208,133.976 455.214,135.414C455.677,136.076 456.157,136.725 456.712,137.313C457.245,137.878 458.021,138.069 458.536,138.643C459.696,139.93 460.093,142.015 460.891,143.535C461.344,144.395 461.891,145.202 462.332,146.068C462.875,147.133 462.904,148.11 463.16,149.239C463.447,150.533 464.291,152.097 464.142,153.45C464.05,154.286 461.513,154.945 462.279,155.879C462.842,156.565 464.933,156.12 465.658,155.958C468.121,155.405 466.453,153.17 467.892,151.865C467.742,152.003 468.837,153.325 468.927,153.526C468.9,153.466 469.546,153.026 469.622,152.965C468.86,152.331 468.683,151.444 468.704,150.501C470.618,154.336 471.559,149.384 471.427,149.322C471.96,149.566 472.306,150.159 472.593,149.368C472.745,148.95 471.734,148.686 471.482,148.475C470.88,147.967 470.476,147.264 469.847,146.785C469.187,146.285 468.521,145.845 468.105,145.106C467.111,143.338 466.599,141.367 465.746,139.538C464.967,137.867 463.496,136.631 462.705,135.011C462.359,134.302 462.174,133.878 461.607,133.324C460.994,132.724 460.921,131.612 460.646,130.841C459.957,128.919 459.47,127.02 458.896,125.064C458.382,123.317 457.853,121.522 456.806,120.008C455.618,118.288 454.232,116.788 453.001,115.116C453.593,114.95 454.659,114.965 454.929,114.283C455.3,113.341 455.499,112.403 455.009,111.465C454.659,110.792 455.001,110.341 455.32,109.673C455.678,108.915 455.939,108.168 455.898,107.313" style="fill-rule:nonzero;"/>
    </g>
</svg>
