<?xml version="1.0" encoding="UTF-8" standalone="no"?>
<!DOCTYPE svg PUBLIC "-//W3C//DTD SVG 1.1//EN" "http://www.w3.org/Graphics/SVG/1.1/DTD/svg11.dtd">
<svg width="100%" height="100%" viewBox="0 0 64 78" version="1.1" xmlns="http://www.w3.org/2000/svg" xmlns:xlink="http://www.w3.org/1999/xlink" xml:space="preserve" xmlns:serif="http://www.serif.com/" style="fill-rule:evenodd;clip-rule:evenodd;stroke-linejoin:round;stroke-miterlimit:1.41421;">
    <g transform="matrix(1,0,0,1,-4.87948,-319.864)">
        <path d="M4.974,342.926C5.373,343.048 5.133,343.805 5.985,343.637C6.241,343.587 7.481,343.121 7.556,343.349C7.653,343.642 7.732,343.93 7.815,344.226C8.025,344.978 8.394,344.373 8.394,343.9C8.394,344.516 9.512,344.916 9.37,343.979C9.247,343.18 10.193,343.518 10.412,342.842C10.602,342.254 12.158,341.863 12.706,342.116C13.142,342.316 13.583,342.383 14.026,342.553C14.486,342.731 14.555,343.226 14.978,343.434C15.591,343.736 17.078,343.587 17.687,343.369C18.599,343.042 19.567,342.839 20.573,343.226C21.44,343.562 21.098,345.013 21.118,345.72C21.156,347.017 22.075,348.019 22.339,349.268C22.605,350.523 22.851,351.83 23.012,353.103C23.121,353.967 23.529,355.86 22.997,356.634C22.501,357.345 22.569,358.501 22.633,359.334C22.743,360.652 22.75,361.947 22.861,363.269C22.968,364.547 22.436,365.412 22.253,366.621C22.062,367.882 21.776,369.084 21.484,370.323C21.323,371.012 21.597,372.104 21.844,372.782C22.193,373.734 23.32,372.803 23.142,372.321C23.481,373.463 23.609,374.802 24.26,375.826C24.461,376.143 26.278,377.002 26.289,376.12C26.289,377.427 27.422,378.013 27.331,379.36C27.25,380.543 27.375,382.233 26.846,383.288C26.153,384.669 25.484,385.56 25.252,387.138C25.141,387.89 23.845,390.889 24.362,391.433C24.917,392.017 26.454,391.67 27.071,391.385C28.254,390.842 27.609,389.655 27.575,388.672C27.523,387.292 28.275,385.467 28.821,384.221C28.938,383.954 30.114,381.88 29.705,381.541C30.572,382.263 28.928,387.637 31.233,386.351C32.29,385.76 32.322,384.424 32.34,383.363C32.347,382.956 32.797,381.137 32.525,380.891C32.777,381.128 33.032,381.359 33.285,381.594C33.385,380.975 33.094,379.966 32.882,379.351C32.691,378.797 32.03,378.472 31.608,378.12C31.289,377.854 31.97,375.949 31.973,375.397C31.977,374.818 31.811,374.239 32.015,373.672C32.095,373.451 32.437,372.808 32.24,372.579C32.703,373.122 33.454,372.375 33.709,372.818C33.951,373.237 33.984,373.752 34.214,374.167C34.401,374.472 35.375,375.558 35.734,375.55C36.781,375.53 36.586,373.997 36.31,373.437C35.491,371.774 36.017,369.333 36.355,367.584C36.579,366.442 36.668,365.437 36.629,364.273C36.589,363.106 35.994,362.095 36.066,360.937C36.182,359.039 36.635,357.083 35.483,355.389C34.932,354.578 34.4,353.839 34.012,352.929C33.529,351.793 33.586,351.052 33.659,349.87C33.729,348.936 33.547,348.151 34.142,347.344C34.641,346.668 35.333,346.18 35.895,345.563C36.49,344.925 38.621,342.026 39.027,344.078C39.358,345.748 39.511,347.673 39.536,349.37C39.547,350.189 39.363,351.1 39.857,351.826C40.521,352.802 40.372,353.29 40.296,354.472C40.146,356.826 40.825,358.815 41.426,361.045C42.018,363.243 43.059,365.084 43.917,367.155C44.329,368.148 44.052,369.125 43.933,370.15C43.804,371.271 43.856,372.323 43.961,373.441C44.169,375.658 44.578,377.916 44.271,380.114C44.134,381.093 44.243,382.086 44.039,383.057C43.813,384.134 43.329,385.133 43.098,386.206C42.704,388.05 42.678,390.329 41.788,392.019C41.724,392.125 41.66,392.233 41.595,392.34C41.653,392.344 42.043,392.419 42.068,392.39C41.287,393.365 40.421,393.872 39.491,394.656C38.588,395.418 38.533,396.759 39.837,397.029C40.89,397.247 42.005,397.153 42.992,396.721C43.284,396.594 45.423,395.451 45.323,394.937C45.438,396.198 47.015,393.658 47.149,393.374C47.469,392.696 47.385,391.929 47.615,391.229C47.758,390.793 48.957,390.568 49.361,390.149C49.77,389.724 50.694,389.139 51.185,389.838C51.631,390.532 51.786,390.324 52.611,390.126C53.312,389.957 53.152,389.884 53.243,389.244C53.83,389.151 53.668,388.845 53.731,388.307C53.849,387.296 53.539,386.345 53.293,385.376C52.803,383.447 52.408,381.665 52.24,379.679C52.15,378.595 51.916,377.528 51.851,376.44C51.795,375.503 51.961,374.528 51.682,373.614C51.14,371.793 50.32,370.218 50.234,368.286C50.188,367.258 50.05,366.069 50.221,365.053C50.389,364.051 50.783,363.067 51.003,362.068C51.453,360.022 52.016,358.143 51.97,356.024C51.946,354.872 51.848,353.703 51.574,352.581C51.336,351.601 50.741,350.779 51.212,349.774C52.017,348.06 51.318,346.264 51.888,344.477C52.445,342.728 51.813,340.75 52.407,339.068C52.861,337.78 55.593,337.684 56.665,337.713C58.552,337.762 60.58,337.234 62.408,337.859C64.171,338.461 63.084,340.119 63.413,341.493C63.507,341.888 63.641,342.305 63.592,342.718C63.551,343.056 63.122,343.24 63.175,343.606C63.282,344.376 64.054,343.667 64.312,343.413C64.27,343.93 64.406,344.285 64.934,344.142C65.393,344.018 66.002,345.021 66.359,344.131C66.487,343.805 66.037,343.431 66.368,343.164C66.803,342.815 67.282,342.49 67.688,342.109C68.156,341.67 68.265,341.132 68.173,340.511C68.021,339.459 67.424,339.402 66.923,338.594C65.931,337.052 65.222,335.574 63.562,334.594C61.849,333.581 59.879,334.016 58.024,333.558C55.993,333.056 54.144,332.371 52.051,332.085C51.447,332.002 50.796,331.906 50.295,331.529C49.755,331.125 49.745,330.414 49.267,329.99C48.749,329.53 48.032,329.752 47.479,329.231C46.852,328.64 46.556,330.177 46.571,330.556C45.698,329.806 46.275,328.098 46.48,327.119C46.801,325.583 47.027,324.171 46.251,322.72C45.042,320.456 41.526,319.449 39.144,320.022C37.686,320.373 36.743,321.566 36.03,322.806C35.299,324.079 35.417,324.725 36.493,325.605C37.097,326.1 36.631,327.184 36.84,328.013C37.128,329.146 35.403,330.409 37.446,330.417C37.139,331.149 37.995,331.889 37.923,332.577C37.774,334.018 40.02,332.741 40.567,332.64C40.799,334.164 37.636,334.654 36.651,335.114C35.418,335.686 33.839,335.251 32.747,336.039C31.685,336.805 31.175,337.408 29.759,337.228C29.759,336.235 30.747,336.974 31.357,336.383C31.781,335.975 31.55,334.206 31.512,333.59C31.483,333.111 31.675,332.652 31.657,332.183C31.526,331.467 31.173,330.911 30.947,330.236C30.731,329.587 30.988,328.541 30.633,327.985C30.421,327.654 29.934,327.857 29.689,328.014C29.197,328.328 28.719,328.209 28.231,328.471C27.122,329.084 25.695,328.858 24.703,329.653C23.427,330.674 24.104,332.127 24.312,333.437C24.543,334.891 25.113,336.18 25.407,337.602C23.525,338.749 21.252,338.802 19.147,339.217C16.775,339.676 14.207,339.365 11.794,339.553C10.781,339.631 9.686,339.608 8.703,339.886C7.62,340.195 6.629,340.186 5.54,340.381C4.869,340.516 4.514,341.028 5.441,341.152C6.001,341.225 6.578,341.181 7.143,341.238C6.872,341.482 4.511,342.689 4.974,342.926M33.803,342.171C33.754,341.195 34.28,339.865 35.311,340.026C35.142,340.784 34.515,341.812 33.803,342.171" style="fill-rule:nonzero;"/>
    </g>
</svg>
