<?xml version="1.0" encoding="UTF-8" standalone="no"?>
<!DOCTYPE svg PUBLIC "-//W3C//DTD SVG 1.1//EN" "http://www.w3.org/Graphics/SVG/1.1/DTD/svg11.dtd">
<svg width="100%" height="100%" viewBox="0 0 454 594" version="1.1" xmlns="http://www.w3.org/2000/svg" xmlns:xlink="http://www.w3.org/1999/xlink" xml:space="preserve" xmlns:serif="http://www.serif.com/" style="fill-rule:evenodd;clip-rule:evenodd;stroke-linejoin:round;stroke-miterlimit:1.41421;">
    <g transform="matrix(1,0,0,1,-297.861,-595.801)">
        <path d="M550.694,892.864C559.082,891.894 565.039,893.175 565.039,893.175C557.172,895.646 552.945,901.757 548.74,907.895C539.341,912.78 533.005,902.012 539.802,896.331C539.801,896.33 542.306,893.836 550.694,892.864Z" style="fill:rgb(56,57,56);"/>
        <path d="M671.848,1145.88L652.256,1146.59C652.256,1146.59 651.363,1153.93 654.495,1154.99C657.628,1156.05 661.079,1158 666.809,1156.07C672.542,1154.14 671.848,1145.88 671.848,1145.88Z" style="fill:rgb(40,40,41);fill-rule:nonzero;"/>
        <path d="M530.041,1145.86L510.431,1146.52C510.431,1146.52 510.207,1153.92 513.423,1154.68C516.637,1155.44 520.252,1157.08 525.785,1154.64C531.317,1152.2 530.041,1145.86 530.041,1145.86Z" style="fill:rgb(40,40,41);fill-rule:nonzero;"/>
        <path d="M672.968,1133.76C672.968,1133.76 674.848,1130.2 668.849,1124.2C667.289,1122.64 656.453,1122.99 641.273,1122.58C598.086,1121.4 519.722,1122.62 519.722,1122.62C519.722,1122.62 511.42,1122.95 509.567,1124.8C507.716,1126.66 508.407,1133.76 508.407,1133.76L672.968,1133.76Z" style="fill:rgb(40,40,41);fill-rule:nonzero;"/>
        <path d="M590.784,672.673L587.506,669.635L555.279,688.975L551.07,708.156L552.125,720.876L590.784,672.673Z" style="fill:white;"/>
        <path d="M459.924,854.935L462.962,852.907L472.703,854.225L469.895,880.83L466,884.725L464.148,884.725L459.924,854.935Z" style="fill:white;"/>
        <path d="M499.92,646.346C499.326,646.427 499.494,647.269 499.414,647.863C495.085,643.424 498.435,635.158 498.907,630.652C500.418,629.974 502.913,626.792 504.985,625.084C503.363,625.318 503.198,627.012 501.439,627.108L501.692,626.347L500.932,626.095C501.312,624.832 505.758,621.323 502.452,622.552L502.197,621.793L501.439,622.045C504.971,615.954 508.969,610.335 516.628,608.373C516.403,607.175 518.785,606.365 519.158,604.325C524.592,602.667 528.201,596.492 535.867,598.755C538.12,595.013 546.138,594.997 549.537,597.743C553.904,597.256 556.425,598.617 559.153,599.767C563.785,598.387 568.955,600.277 571.306,602.807L570.546,603.06L570.294,603.82C567.954,604.089 572.096,605.401 573.332,605.338L574.092,605.59L574.345,604.833C583.216,610.473 585.762,622.44 589.533,633.183C590.32,634.986 587.814,633.49 588.014,634.704C590.103,641.392 591.561,648.707 592.57,656.474C591.549,657.309 592.217,659.834 590.039,659.511C591.407,662.799 591.054,667.247 590.039,670.649C589.862,673.076 588.523,669.568 587.508,669.637C573.944,681.049 556.347,688.429 551.057,708.113C545.642,706.609 541.518,703.815 539.917,698.495C531.925,700.154 516.274,704.873 519.666,691.408C519.437,689.275 517.37,688.982 516.121,687.863C516.424,686.816 515.496,684.536 516.629,684.319C515.575,683.684 514.494,683.079 513.592,682.294C513.643,680.22 513.691,678.147 513.085,676.727C510,678.177 507.02,676.363 505.997,674.196C507.37,668.817 509.318,664.015 510.048,657.995C509.375,656.306 507.749,655.565 506.504,654.451C505.071,650.383 505.518,645.063 505.998,640.273C504.118,640.26 502.406,644.776 500.935,646.854L500.683,646.094L499.92,646.346Z"/>
        <path d="M355.125,1131.36C355.222,1131.77 355.632,1131.87 355.631,1132.38C357.545,1132.27 358.09,1130.78 359.681,1130.35C361.973,1129.41 360.562,1132.17 361.705,1132.38C362.092,1128.81 357.949,1126.05 357.657,1122.25C357.299,1117.63 361.293,1109.77 363.223,1104.53C365.706,1097.8 366.103,1090.75 367.276,1085.29C368.551,1079.35 370.887,1073.08 372.845,1067.57C375.019,1061.44 376.707,1055.57 378.412,1049.85C381.782,1038.57 386.395,1026.78 389.045,1013.9C391.796,1000.55 395.626,987.606 395.119,973.403C394.858,966.048 393.238,956.823 395.119,948.596C396.574,942.237 400.454,935.409 404.232,930.875C412.061,921.479 425.878,916.013 439.166,912.144C446.184,910.097 452.675,907.469 458.91,905.563C489.317,896.255 515.627,889.721 541.434,881.259C542.346,878.627 542.656,875.394 542.951,872.147C537.486,872.688 532.184,874.393 526.751,875.691C521.076,877.045 515.299,877.775 509.54,879.236C503.536,880.757 497.849,884.101 491.819,885.818C485.225,887.694 469.759,892.273 467.354,889.868C464.429,886.943 465.525,880.885 465.998,879.236C464.322,885.069 454.748,886.913 448.279,888.856C445.071,889.816 413.344,898.882 413.344,894.928C413.344,890.981 422.521,889.085 427.52,887.839C419.499,887.33 408.853,890.997 400.688,890.374C399.832,889.408 397.775,887.97 399.169,886.321C395.867,886.926 394.69,885.401 393.599,883.791C395.121,881.095 398.583,880.334 401.7,879.235C402.736,878 398.387,877.845 399.169,875.184C413.024,873.019 427.145,865.145 441.697,862.022C447.301,860.816 458.664,860.723 459.923,854.934C467.264,857.718 466.067,869.041 465.999,879.235C467.341,876.357 470.047,874.332 470.047,870.628C470.047,866.925 468.803,853.753 462.962,852.906C463.864,850.812 466.708,850.451 468.533,849.87C478.846,846.589 490.308,843.168 499.92,838.226C506.62,834.781 512.228,829.156 521.689,827.591C527.438,816.208 530.571,802.581 534.348,788.104C535.605,783.288 538.143,778.375 538.905,773.926C539.205,772.169 538.717,770.134 538.905,768.361C539.46,763.049 541.941,757.182 543.461,751.143C544.87,745.552 546.805,739.771 548.016,734.439C548.537,732.158 548.369,729.995 549.031,727.856C550.705,722.435 554.547,717.05 557.129,711.656C558.4,709.01 559.728,706.174 561.183,703.556C562.805,700.637 563.904,697.3 565.232,695.453C566.74,693.358 570.015,691.092 572.318,688.871C574.648,686.632 576.734,684.263 578.902,682.29C583.548,678.059 588.452,672.796 594.595,671.152C598.165,673.66 600.276,677.624 601.177,682.798C602.386,685.639 605.167,686.907 606.24,689.883C612.582,694.307 618.99,698.767 624.466,704.567C636.588,717.405 641.29,738.95 647.248,759.246C648.937,765.001 651.263,770.956 652.311,776.46C653.337,781.841 653.301,788.356 653.832,794.687C654.553,803.344 655.78,811.212 655.351,821.012C654.239,846.283 650.955,871.297 649.781,897.966C648.975,916.309 646.259,935.72 645.731,953.656C639.372,957.464 632.143,961.921 624.973,966.313C622.734,967.687 619.874,970.425 617.379,970.871C611.69,971.891 604.445,973.069 597.13,974.416C590.283,975.675 582.719,977.558 576.875,977.452C574.666,977.417 572.478,976.451 570.295,976.439C563.878,976.409 557.536,980.002 551.056,979.476C549.242,976.224 548.277,972.131 547.007,968.338C525.652,966.294 511.789,975.937 494.352,979.476C496.852,989.73 500.097,1000.48 502.96,1011.88C505.691,1022.77 507.307,1034.28 509.542,1046.31C511.586,1057.32 511.84,1069.71 514.604,1082.25C515.731,1087.37 516.773,1093.43 517.64,1099.47C518.955,1108.6 520.8,1118.22 516.629,1123.77C519.893,1131.13 520.016,1141.64 521.69,1150.6C513.541,1155.61 501.481,1156.71 491.821,1160.22C488.877,1158.95 485.476,1158.13 482.706,1156.67C477.685,1157.18 473.719,1161.59 468.026,1162.75C465.237,1163.32 461.644,1162.9 458.407,1163.26C455.479,1163.58 452.553,1164.58 449.799,1164.78C440.07,1165.47 429.867,1163.19 420.436,1162.76C420.436,1164.78 420.436,1166.8 420.436,1168.83C411.623,1175.03 396.171,1174.6 382.97,1176.42C381.312,1176.22 381.738,1173.94 381.453,1172.37C361.671,1174.74 343.544,1182.76 318.673,1180.98C311.137,1180.44 303.61,1178.83 298.927,1174.4C300.173,1170.68 297.449,1167.31 297.915,1164.27C298.492,1160.49 305.13,1156.26 308.549,1154.65C313.134,1152.49 319.563,1150.53 325.255,1148.07C333.039,1144.7 338.736,1142.3 343.48,1138.45L343.733,1139.21L344.493,1138.96C347.223,1138.48 349.246,1137.3 350.062,1134.9L350.315,1134.4L350.062,1133.89C350.513,1133.5 351.205,1133.35 352.087,1133.38C352.183,1132.98 352.594,1132.88 352.592,1132.38L353.354,1132.12L353.1,1131.36C353.437,1131.36 353.774,1131.36 354.113,1131.36L354.618,1131.61L355.125,1131.36ZM403.222,885.31C405.429,885.158 407.42,884.787 408.789,883.791C406.153,883.519 404.675,884.402 403.222,885.31ZM454.356,1128.83C454.356,1128.66 454.356,1128.49 454.356,1128.33L455.114,1128.58L455.366,1127.82C456.783,1126.44 459.654,1127.89 459.923,1129.34C462.437,1126.11 465.346,1123.28 467.012,1119.21C461.597,1119.82 455.658,1118.72 454.86,1113.14C454.632,1111.54 455.655,1110.22 455.873,1108.58C457.129,1099.05 454.028,1091.06 452.328,1084.28C449.928,1074.69 448.647,1062.37 446.254,1052.89C442.479,1067.91 436.384,1082.33 431.572,1097.44C426.7,1112.73 425.855,1129.65 420.434,1145.54C428.809,1143.79 440.255,1145.11 444.734,1139.46C445.246,1140.63 446.615,1140.65 447.266,1139.46L447.518,1138.96L447.266,1138.45C447.94,1138.45 448.615,1138.45 449.291,1138.45C449.077,1135.71 451.566,1135.67 451.822,1133.39L452.582,1133.64L452.835,1132.88C453.632,1132.46 455.854,1130.89 454.355,1129.84L454.607,1129.34L454.356,1128.83Z"/>
        <path d="M501.458,626C500.995,626.313 500.735,626.737 500.519,627.112C500.304,627.493 500.123,627.835 499.878,628.075C499.714,628.235 499.712,628.503 499.875,628.668C500.04,628.835 500.303,628.835 500.47,628.671C500.84,628.305 501.045,627.885 501.249,627.53C501.451,627.173 501.644,626.884 501.927,626.694C502.119,626.566 502.171,626.304 502.039,626.113C501.911,625.92 501.65,625.87 501.458,626Z" style="fill-rule:nonzero;"/>
        <path d="M501.035,624.166C501.675,623.506 502.138,622.762 502.611,622.074C502.765,621.845 502.706,621.536 502.478,621.38C502.252,621.229 501.943,621.284 501.789,621.513C501.304,622.226 500.87,622.913 500.325,623.47C500.134,623.667 500.137,623.982 500.333,624.173C500.53,624.365 500.844,624.361 501.035,624.166Z" style="fill-rule:nonzero;"/>
        <path d="M501.057,646.802L501.013,646.839L501.065,646.812L501.057,646.802L501.013,646.839L501.065,646.812L501.049,646.821L501.065,646.814L501.065,646.812L501.049,646.821L501.065,646.814L501.059,646.753C501.058,646.649 501.104,646.436 501.156,646.187C501.209,645.925 501.036,645.669 500.776,645.619C500.513,645.566 500.258,645.738 500.206,645.998C500.165,646.217 500.093,646.461 500.092,646.754C500.091,646.951 500.134,647.2 500.303,647.408C500.472,647.618 500.778,647.651 500.986,647.482C501.194,647.315 501.228,647.009 501.06,646.802L501.057,646.802Z" style="fill-rule:nonzero;"/>
        <path d="M574.657,605.391C574.493,604.909 574.189,604.532 573.848,604.253C573.336,603.836 572.754,603.608 572.233,603.376C571.709,603.147 571.255,602.923 570.97,602.635C570.736,602.401 570.356,602.401 570.121,602.636C569.888,602.869 569.888,603.25 570.122,603.485C570.451,603.81 570.828,604.038 571.2,604.222C571.755,604.499 572.307,604.699 572.72,604.937C572.931,605.055 573.101,605.178 573.232,605.316C573.361,605.453 573.457,605.597 573.523,605.787C573.632,606.104 573.976,606.269 574.287,606.162C574.6,606.051 574.766,605.708 574.657,605.391Z" style="fill-rule:nonzero;"/>
        <path d="M353.747,1131.84C353.484,1131.47 353.122,1131.25 352.781,1131.13C352.263,1130.95 351.773,1130.92 351.422,1130.82C351.247,1130.77 351.113,1130.7 351.01,1130.62C350.907,1130.54 350.818,1130.43 350.742,1130.24L350.292,1130.42L350.776,1130.39C350.773,1130.34 350.772,1130.29 350.772,1130.24C350.771,1129.15 351.201,1128.03 351.912,1127.26L351.554,1126.94L351.725,1127.39C351.835,1127.35 351.942,1127.33 352.055,1127.33C352.299,1127.33 352.589,1127.43 352.888,1127.59C353.187,1127.75 353.487,1127.98 353.773,1128.18L354.06,1127.79L353.671,1128.08C353.868,1128.34 353.983,1128.62 354.053,1128.93C354.125,1129.25 354.145,1129.59 354.144,1129.96C354.145,1130.35 354.123,1130.76 354.121,1131.18C354.121,1131.33 354.124,1131.49 354.134,1131.64C354.149,1131.91 354.378,1132.12 354.646,1132.1C354.914,1132.08 355.118,1131.85 355.103,1131.59C355.094,1131.45 355.092,1131.32 355.092,1131.18C355.092,1130.8 355.114,1130.38 355.114,1129.96C355.114,1129.56 355.093,1129.14 355.002,1128.72C354.907,1128.3 354.735,1127.88 354.444,1127.5L354.4,1127.44L354.343,1127.4C354.062,1127.2 353.731,1126.95 353.353,1126.74C352.974,1126.53 352.54,1126.36 352.054,1126.36C351.832,1126.36 351.605,1126.4 351.383,1126.48L351.275,1126.52L351.196,1126.61C350.309,1127.57 349.803,1128.9 349.8,1130.24C349.8,1130.3 349.801,1130.37 349.805,1130.43L349.809,1130.51L349.836,1130.59C350.005,1131.04 350.315,1131.36 350.652,1131.55C351.157,1131.82 351.671,1131.85 352.08,1131.94C352.286,1131.98 352.463,1132.03 352.605,1132.1C352.749,1132.17 352.855,1132.26 352.958,1132.4C353.114,1132.62 353.417,1132.67 353.634,1132.51C353.853,1132.36 353.903,1132.06 353.747,1131.84Z" style="fill-rule:nonzero;"/>
        <path d="M450.977,1132.74C451.179,1132.61 451.357,1132.52 451.56,1132.44C451.758,1132.36 451.984,1132.29 452.245,1132.18C452.624,1132.01 452.799,1131.57 452.635,1131.19C452.472,1130.81 452.033,1130.64 451.654,1130.8C451.477,1130.88 451.264,1130.95 451.006,1131.05C450.748,1131.15 450.451,1131.29 450.139,1131.5C449.796,1131.73 449.707,1132.2 449.938,1132.54C450.17,1132.88 450.634,1132.97 450.977,1132.74Z" style="fill-rule:nonzero;"/>
        <path d="M452.375,1131.89C452.771,1131.47 453.152,1131.05 453.549,1130.69C453.947,1130.34 454.357,1130.05 454.815,1129.88C455.116,1129.77 455.267,1129.43 455.154,1129.13C455.041,1128.83 454.703,1128.68 454.402,1128.79C453.765,1129.03 453.237,1129.41 452.777,1129.82C452.314,1130.23 451.912,1130.68 451.526,1131.09C451.306,1131.32 451.318,1131.69 451.551,1131.91C451.785,1132.13 452.154,1132.12 452.375,1131.89Z" style="fill-rule:nonzero;"/>
        <path d="M447.612,1138.62C447.523,1138.6 447.439,1138.58 447.351,1138.56L447.262,1138.89L447.375,1138.56C447.197,1138.5 447.013,1138.39 446.81,1138.27L446.631,1138.57L446.938,1138.41C446.834,1138.2 446.781,1138.04 446.725,1137.85L446.395,1137.96L446.73,1138.03C446.986,1136.89 447.639,1135.97 448.427,1135.08C449.214,1134.18 450.126,1133.33 450.841,1132.32C450.95,1132.17 450.913,1131.95 450.758,1131.84C450.602,1131.73 450.388,1131.77 450.277,1131.93L450.145,1132.11L450.277,1131.93C449.62,1132.86 448.728,1133.7 447.909,1134.62C447.096,1135.54 446.353,1136.57 446.058,1137.88L446.037,1137.97L446.065,1138.06C446.124,1138.25 446.193,1138.46 446.324,1138.72L446.37,1138.81L446.454,1138.86C446.66,1138.99 446.884,1139.12 447.149,1139.21L447.16,1139.22L447.171,1139.22C447.257,1139.24 447.343,1139.27 447.429,1139.29C447.612,1139.34 447.801,1139.23 447.851,1139.05C447.903,1138.87 447.796,1138.67 447.612,1138.62Z" style="fill-rule:nonzero;"/>
        <path d="M450.577,1131.74C450.26,1131.72 449.886,1131.56 449.476,1131.26L449.247,1131.56L449.604,1131.42C449.488,1131.13 449.439,1130.86 449.439,1130.62C449.441,1130.21 449.575,1129.87 449.819,1129.54C450.182,1129.06 450.811,1128.64 451.51,1128.33C452.211,1128.02 452.982,1127.81 453.607,1127.69L453.536,1127.31L453.353,1127.65C453.877,1127.93 454.405,1128.46 454.858,1128.87C455.016,1129.01 455.26,1128.99 455.401,1128.84C455.542,1128.68 455.529,1128.43 455.369,1128.29C454.946,1127.92 454.392,1127.34 453.718,1126.97L453.598,1126.91L453.464,1126.93C452.563,1127.1 451.41,1127.44 450.446,1128.01C449.965,1128.3 449.527,1128.65 449.201,1129.08C448.877,1129.51 448.667,1130.03 448.668,1130.62C448.668,1130.96 448.738,1131.33 448.886,1131.7L448.927,1131.81L449.012,1131.87C449.493,1132.23 449.998,1132.48 450.538,1132.51C450.749,1132.52 450.931,1132.36 450.94,1132.14C450.955,1131.93 450.79,1131.75 450.577,1131.74Z" style="fill-rule:nonzero;"/>
        <path d="M451.5,1131.51C451.538,1132.19 451.705,1133.1 452.204,1133.88C452.337,1134.09 452.617,1134.15 452.824,1134.02C453.034,1133.89 453.095,1133.61 452.963,1133.4C452.584,1132.81 452.428,1132.04 452.399,1131.47C452.387,1131.22 452.174,1131.03 451.926,1131.04C451.676,1131.05 451.486,1131.27 451.5,1131.51Z" style="fill-rule:nonzero;"/>
        <path d="M350.161,1133.94C348.868,1134.37 347.51,1134.96 346.293,1135.79C345.075,1136.61 344,1137.65 343.3,1138.98C343.177,1139.22 343.268,1139.52 343.508,1139.64C343.745,1139.77 344.041,1139.67 344.166,1139.43C344.768,1138.29 345.718,1137.35 346.84,1136.6C347.959,1135.84 349.24,1135.27 350.469,1134.86C350.723,1134.78 350.865,1134.5 350.78,1134.24C350.695,1133.99 350.417,1133.85 350.161,1133.94Z" style="fill-rule:nonzero;"/>
        <path d="M743.374,831.066L740.573,843.262L736.096,842.701L737.658,834.866C737.658,834.866 719.755,832.364 712.029,830.386C713.008,820.454 714.903,810.048 716.507,799.602C718.303,787.89 721.262,771.321 718.745,761.541C706.304,755.304 686.35,758.574 680.123,768.259C668.741,795.312 663.483,828.486 657.739,861.171C654.526,861.463 649.518,859.386 645.98,858.934C638.361,857.961 629.591,858.8 620.235,858.374C602.172,857.554 581.488,857.984 563.142,856.694C550.996,855.84 539.993,857.784 531.238,862.85C525.188,866.353 511.874,879.423 512.766,886.36C513.348,890.876 518.798,893.698 525.079,891.958C529.345,890.774 531.472,885.229 534.33,881.319C535.783,879.328 539.633,877.405 539.633,877.405C539.633,877.405 544.992,874.884 551.781,873.874C556.435,873.182 566.498,874.046 566.498,874.046C566.498,874.046 567.602,877.047 569.298,877.405C570.632,899.203 572.197,920.777 573.216,942.893C541.996,943.289 475.133,934.521 472.466,962.8C470.481,983.853 502.092,988.962 520.922,991.028C524.612,996.856 528.998,1009.5 528.998,1009.5L537.394,1010.62C537.394,1010.62 535.8,1018.72 535.717,1023.49C541.925,1024.93 547.908,1026.6 555.867,1026.29C556.863,1022.44 558.105,1013.98 558.105,1013.98L556.985,1010.62L580.492,1011.98C580.492,1011.98 580.681,1045.88 581.053,1061.56C581.03,1063.58 577.078,1061.68 577.696,1064.36C577.321,1083.75 578.441,1106.9 577.135,1125.37C566.36,1125.61 493,1133.76 483.635,1134.9C474.354,1136.03 462.323,1138.21 455.677,1142.72C455.677,1145.7 455.677,1148.69 455.677,1151.67C456.285,1153.11 459.289,1152.16 460.152,1153.35C460.152,1155.03 460.152,1156.71 460.152,1158.39L460.264,1158.36C460.286,1158.22 460.304,1158.07 460.329,1157.93C460.426,1157.46 460.883,1157.16 461.351,1157.26C461.82,1157.36 462.122,1157.82 462.027,1158.28C461.984,1158.49 460.379,1173.01 464.631,1175.74C468.88,1175.14 473.623,1174.76 477.501,1174.06C480.704,1170.25 480.157,1161.78 477.501,1157.83C476.302,1155.48 471.656,1157.08 471.345,1153.85C471.004,1152.35 475.823,1152.23 475.823,1152.23C475.823,1152.23 475.131,1148.55 476.382,1148.31C488.559,1148.17 500.6,1147.9 512.207,1147.19C527.614,1147.19 566.381,1144.67 582.73,1146.08C582.995,1149.68 585.147,1154.13 586.09,1159.5C586.332,1160.9 585.781,1162.5 586.09,1163.99C586.285,1164.93 587.118,1165.83 587.209,1166.79C588.021,1175.45 586.236,1184.35 591.127,1188.06C594.866,1190.89 600.577,1188.37 606.798,1187.5C611.219,1182.42 610.717,1174.9 606.24,1170.14C604.09,1168.93 599.725,1169.94 598.962,1167.34C598.212,1164.54 602.206,1166.48 601.202,1163.42C601.325,1157.02 601.61,1150.77 603.44,1146.07C619.643,1145.07 636.239,1147.28 653.254,1147.19C680.641,1147.19 697.29,1149.62 710.347,1149.43C710.347,1150.74 710.347,1153.35 710.347,1153.35L717.063,1153.47C717.063,1153.47 716.653,1172.74 722.104,1175.74C725.341,1177.52 733.458,1176.63 736.656,1174.06C738.656,1172.45 740.012,1171.04 740.012,1166.22C740.012,1161.4 737.03,1159.07 736.094,1158.39C733.075,1156.18 730.558,1159.08 728.261,1155.03C727.844,1152.75 731.057,1152.23 731.057,1152.23C731.057,1152.23 730.79,1147.15 730.498,1143.84C727.285,1141.24 722.593,1140.65 718.183,1139.92C703.957,1137.53 628.196,1126.48 606.24,1125.67C606.24,1105.9 606.24,1083.57 606.24,1063.8C606.567,1061.79 602.456,1061.56 602.456,1061.56L602.312,1012.86C602.312,1012.86 625.139,1013.55 634.784,1014.54C639.228,1010.77 641.442,1004.78 645.42,1000.55C653.966,1001.35 663.159,1001.4 672.287,1001.11C683.146,1000.75 703.965,1001.24 706.987,993.829C707.539,992.484 706.877,990.624 707.549,988.793C708.365,986.573 709.918,985.213 710.348,983.195C711.371,978.413 709.284,975.457 709.23,971.439C709.197,969.134 711.082,966.994 710.964,964.929C710.818,962.377 708.67,959.94 708.67,957.449C708.67,955.608 710.764,953.378 710.874,951.203C711.033,948.05 709.229,945.015 709.229,943.454C709.229,941.936 711.458,939.079 711.885,936.036C712.2,933.79 710.697,931.443 710.906,929.46C711.158,927.093 712.958,924.663 713.143,922.187C713.301,920.108 712.296,917.936 712.583,916.029C712.963,913.529 715.025,910.969 715.384,908.193C715.639,906.203 714.991,903.874 715.384,902.036C715.809,900.043 718.167,898.232 718.764,895.812C719.495,892.845 717.495,891.788 718.263,888.563C719.031,885.338 721.087,885.025 721.759,882.84C722.478,880.502 722.121,876.963 722.99,874.308C724.332,870.211 728.561,867.258 727.139,861.734C729.315,862.172 732.323,862.707 732.323,862.707L733.831,855.074C733.831,855.074 735.935,855.634 738.332,856.258C737.969,860.189 736.774,867.688 736.774,867.688L744.488,869.011L751.205,832.069L743.374,831.066ZM595.167,1176.86C591.633,1177.03 590.258,1175.05 589.011,1172.94C590.645,1171.6 593.491,1170.75 595.167,1172.38C595.167,1173.87 595.167,1175.37 595.167,1176.86ZM599.641,1175.74C599.059,1178.34 600.675,1180.59 599.641,1181.89C598.534,1180.02 598.676,1176.89 597.406,1175.18C597.892,1173.53 598.243,1176.48 599.641,1175.74ZM727.18,1161.09C727.237,1160.92 727.296,1160.77 727.347,1160.63C727.497,1160.22 727.958,1160 728.374,1160.15C728.791,1160.31 729.002,1160.76 728.854,1161.18C728.765,1161.41 728.683,1161.64 728.604,1161.87C731.439,1163.44 730.853,1165.34 731.177,1169.58C729.811,1167.78 729.71,1164.7 728.378,1162.86L728.37,1162.87C728.358,1162.96 728.344,1163.06 728.339,1163.16C728.333,1163.6 727.966,1163.95 727.526,1163.94C727.081,1163.94 726.73,1163.57 726.737,1163.13C726.74,1163.04 726.756,1162.97 726.762,1162.89L726.7,1162.87C726.262,1162.99 726.05,1163.33 726.141,1163.98C722.658,1165.05 721.934,1162.93 718.863,1162.3C719.791,1159.43 725.248,1158.56 727.18,1161.09ZM714.947,859.492C714.947,859.492 712.86,862.62 712.146,865.09C711.546,867.184 712.236,869.672 711.586,871.807C710.664,874.87 707.85,877.114 707.109,880.205C706.725,881.809 707.38,883.522 707.109,885.24C706.695,887.898 704.297,889.969 703.75,892.516C703.308,894.607 704.054,897.144 703.75,899.235C703.287,902.45 700.741,905.238 700.394,908.749C700.212,910.588 701.253,912.999 700.953,914.908C700.575,917.339 698.465,919.22 698.155,921.624C697.855,923.948 698.912,926.511 698.715,928.9C698.557,930.847 696.333,932.43 696.127,934.939C695.845,938.379 697.597,942.68 697.597,944.012C697.597,946.315 695.338,949.226 695.357,952.408C695.371,954.772 697.062,956.447 697.036,958.565C697.003,961.167 695.317,963.853 695.357,966.402C695.391,968.631 696.9,970.747 697.036,973.12C697.319,977.97 695.027,981.135 697.036,985.432C698.053,987.61 699.768,988.199 700.395,990.47C695.978,991.908 690.703,992.239 685.281,992.709C678.483,993.301 671.539,993.727 665.132,993.268C673.42,989.8 683.413,988.04 686.403,979.276C687.855,976.922 685.505,976.926 685.281,974.797C687.792,967.446 685.879,958.669 683.045,954.649C673.112,940.559 637.211,947.483 615.875,944.572C618.268,922.709 621.282,901.468 623.713,879.645C623.15,877.963 624.959,878.654 625.952,878.525C625.975,876.684 626.898,875.739 626.514,873.489C636.427,873.256 649.531,875.244 657.297,873.489C658.568,885.999 658.492,894.848 666.253,901.474C673.537,907.696 684.122,911.051 695.357,909.869C699.908,903.703 700.581,894.639 702.074,885.804C703.547,877.095 706.552,858.03 706.552,858.03C706.552,858.03 707.798,858.506 708.791,858.377C709.932,850.189 711.433,842.362 712.707,834.31C714.029,834.299 716.066,834.87 716.066,834.87L712.147,858.95L714.947,859.492Z" style="fill:url(#_Linear1);fill-rule:nonzero;"/>
        <path d="M603.125,1063.69C603.125,1063.69 601.679,1064.69 591.346,1064.69C581.013,1064.69 579.179,1063.69 579.179,1063.69L579.179,1013.95L603.125,1013.95L603.125,1063.69Z" style="fill:url(#_Linear2);fill-rule:nonzero;"/>
        <ellipse cx="464.112" cy="1166.58" rx="5.417" ry="9.042" style="fill:url(#_Linear3);"/>
        <path d="M732.817,1167.69C732.817,1172.4 729.178,1176.23 724.69,1176.23C720.203,1176.23 716.566,1172.4 716.566,1167.69C716.566,1162.97 720.203,1159.15 724.69,1159.15C729.178,1159.15 732.817,1162.97 732.817,1167.69Z" style="fill:url(#_Linear4);fill-rule:nonzero;"/>
        <ellipse cx="593.507" cy="1179.88" rx="6.963" ry="9.633" style="fill:url(#_Linear5);"/>
    </g>
    <defs>
        <linearGradient id="_Linear1" x1="0" y1="0" x2="1" y2="0" gradientUnits="userSpaceOnUse" gradientTransform="matrix(2.63916e-14,431.008,-431.008,2.63916e-14,603.443,758.354)"><stop offset="0" style="stop-color:rgb(115,115,115);stop-opacity:1"/><stop offset="0.01" style="stop-color:rgb(115,115,115);stop-opacity:1"/><stop offset="0.05" style="stop-color:rgb(127,128,128);stop-opacity:1"/><stop offset="0.09" style="stop-color:rgb(113,113,113);stop-opacity:1"/><stop offset="0.18" style="stop-color:rgb(89,90,90);stop-opacity:1"/><stop offset="0.25" style="stop-color:rgb(76,76,76);stop-opacity:1"/><stop offset="0.3" style="stop-color:rgb(71,72,72);stop-opacity:1"/><stop offset="0.38" style="stop-color:rgb(127,128,128);stop-opacity:1"/><stop offset="0.45" style="stop-color:rgb(126,126,126);stop-opacity:1"/><stop offset="0.48" style="stop-color:rgb(121,121,121);stop-opacity:1"/><stop offset="0.5" style="stop-color:rgb(112,112,112);stop-opacity:1"/><stop offset="0.52" style="stop-color:rgb(99,100,100);stop-opacity:1"/><stop offset="0.53" style="stop-color:rgb(84,84,85);stop-opacity:1"/><stop offset="0.54" style="stop-color:rgb(71,72,72);stop-opacity:1"/><stop offset="1" style="stop-color:rgb(49,49,49);stop-opacity:1"/></linearGradient>
        <linearGradient id="_Linear2" x1="0" y1="0" x2="1" y2="0" gradientUnits="userSpaceOnUse" gradientTransform="matrix(23.9463,0,0,23.9463,579.178,1039.32)"><stop offset="0" style="stop-color:rgb(127,128,128);stop-opacity:1"/><stop offset="0.25" style="stop-color:rgb(226,225,225);stop-opacity:1"/><stop offset="1" style="stop-color:black;stop-opacity:1"/></linearGradient>
        <linearGradient id="_Linear3" x1="0" y1="0" x2="1" y2="0" gradientUnits="userSpaceOnUse" gradientTransform="matrix(10.9427,-9.182,9.182,10.9427,458.642,1171.17)"><stop offset="0" style="stop-color:rgb(71,72,72);stop-opacity:1"/><stop offset="0.01" style="stop-color:rgb(74,75,75);stop-opacity:1"/><stop offset="0.07" style="stop-color:rgb(103,102,102);stop-opacity:1"/><stop offset="0.13" style="stop-color:rgb(128,128,127);stop-opacity:1"/><stop offset="0.2" style="stop-color:rgb(149,149,149);stop-opacity:1"/><stop offset="0.27" style="stop-color:rgb(165,165,165);stop-opacity:1"/><stop offset="0.36" style="stop-color:rgb(175,175,175);stop-opacity:1"/><stop offset="0.47" style="stop-color:rgb(179,178,178);stop-opacity:1"/><stop offset="0.65" style="stop-color:rgb(226,225,225);stop-opacity:1"/><stop offset="0.72" style="stop-color:rgb(223,222,222);stop-opacity:1"/><stop offset="0.77" style="stop-color:rgb(214,213,213);stop-opacity:1"/><stop offset="0.81" style="stop-color:rgb(198,197,197);stop-opacity:1"/><stop offset="0.85" style="stop-color:rgb(176,175,175);stop-opacity:1"/><stop offset="0.89" style="stop-color:rgb(147,146,146);stop-opacity:1"/><stop offset="0.92" style="stop-color:rgb(111,111,111);stop-opacity:1"/><stop offset="0.96" style="stop-color:rgb(69,69,69);stop-opacity:1"/><stop offset="0.99" style="stop-color:rgb(22,22,22);stop-opacity:1"/><stop offset="1" style="stop-color:black;stop-opacity:1"/></linearGradient>
        <linearGradient id="_Linear4" x1="0" y1="0" x2="1" y2="0" gradientUnits="userSpaceOnUse" gradientTransform="matrix(12.7136,-10.6679,10.6679,12.7136,718.333,1173.02)"><stop offset="0" style="stop-color:rgb(127,128,128);stop-opacity:1"/><stop offset="0.02" style="stop-color:rgb(143,143,143);stop-opacity:1"/><stop offset="0.06" style="stop-color:rgb(162,162,162);stop-opacity:1"/><stop offset="0.11" style="stop-color:rgb(175,175,174);stop-opacity:1"/><stop offset="0.17" style="stop-color:rgb(179,178,178);stop-opacity:1"/><stop offset="0.3" style="stop-color:rgb(179,178,178);stop-opacity:1"/><stop offset="0.65" style="stop-color:rgb(226,225,225);stop-opacity:1"/><stop offset="0.72" style="stop-color:rgb(223,222,222);stop-opacity:1"/><stop offset="0.77" style="stop-color:rgb(214,213,213);stop-opacity:1"/><stop offset="0.81" style="stop-color:rgb(198,197,197);stop-opacity:1"/><stop offset="0.85" style="stop-color:rgb(176,175,175);stop-opacity:1"/><stop offset="0.89" style="stop-color:rgb(147,146,146);stop-opacity:1"/><stop offset="0.92" style="stop-color:rgb(111,111,111);stop-opacity:1"/><stop offset="0.96" style="stop-color:rgb(69,69,69);stop-opacity:1"/><stop offset="0.99" style="stop-color:rgb(22,22,22);stop-opacity:1"/><stop offset="1" style="stop-color:black;stop-opacity:1"/></linearGradient>
        <linearGradient id="_Linear5" x1="0" y1="0" x2="1" y2="0" gradientUnits="userSpaceOnUse" gradientTransform="matrix(12.5226,-10.5077,10.5077,12.5226,587.246,1185.14)"><stop offset="0" style="stop-color:rgb(127,128,128);stop-opacity:1"/><stop offset="0.01" style="stop-color:rgb(138,138,138);stop-opacity:1"/><stop offset="0.03" style="stop-color:rgb(168,167,167);stop-opacity:1"/><stop offset="0.06" style="stop-color:rgb(193,192,192);stop-opacity:1"/><stop offset="0.09" style="stop-color:rgb(211,210,210);stop-opacity:1"/><stop offset="0.12" style="stop-color:rgb(222,222,221);stop-opacity:1"/><stop offset="0.17" style="stop-color:rgb(226,225,225);stop-opacity:1"/><stop offset="0.3" style="stop-color:rgb(179,178,178);stop-opacity:1"/><stop offset="0.65" style="stop-color:rgb(226,225,225);stop-opacity:1"/><stop offset="0.72" style="stop-color:rgb(223,222,222);stop-opacity:1"/><stop offset="0.77" style="stop-color:rgb(214,213,213);stop-opacity:1"/><stop offset="0.81" style="stop-color:rgb(198,197,197);stop-opacity:1"/><stop offset="0.85" style="stop-color:rgb(176,175,175);stop-opacity:1"/><stop offset="0.89" style="stop-color:rgb(147,146,146);stop-opacity:1"/><stop offset="0.92" style="stop-color:rgb(111,111,111);stop-opacity:1"/><stop offset="0.96" style="stop-color:rgb(69,69,69);stop-opacity:1"/><stop offset="0.99" style="stop-color:rgb(22,22,22);stop-opacity:1"/><stop offset="1" style="stop-color:black;stop-opacity:1"/></linearGradient>
    </defs>
</svg>
