<?xml version="1.0" encoding="UTF-8" standalone="no"?>
<!DOCTYPE svg PUBLIC "-//W3C//DTD SVG 1.1//EN" "http://www.w3.org/Graphics/SVG/1.1/DTD/svg11.dtd">
<svg width="100%" height="100%" viewBox="0 0 94 113" version="1.1" xmlns="http://www.w3.org/2000/svg" xmlns:xlink="http://www.w3.org/1999/xlink" xml:space="preserve" xmlns:serif="http://www.serif.com/" style="fill-rule:evenodd;clip-rule:evenodd;stroke-linejoin:round;stroke-miterlimit:1.41421;">
    <g transform="matrix(1,0,0,1,-467.318,-120.394)">
        <path d="M503.658,120.394C505.508,121.01 506.823,121.764 507.975,123.401C508.83,124.616 508.724,125.917 508.811,127.346C508.939,129.535 508.414,132.02 507.506,134.011C507.249,134.575 506.266,135.398 506.266,135.868C506.744,136.608 508.679,136.611 509.463,136.791C512.757,137.545 516.218,137.635 519.394,138.789C521.093,139.405 522.353,140.391 523.766,141.49C524.901,142.376 526.476,142.621 527.867,142.905C529.384,143.214 530.922,143.445 532.462,143.604C534.267,143.789 536.15,143.07 537.972,143.047C539.862,143.023 541.755,142.998 543.647,142.973C544.561,142.961 545.462,142.864 546.373,142.781C546.938,142.601 547.352,142.173 547.974,142.14C549.95,142.352 551.374,141.168 553.293,140.978C554.68,140.84 556.23,140.298 557.588,140.309C557.603,140.446 557.618,140.584 557.634,140.722C558.254,140.498 560.29,139.664 560.746,140.356C560.651,141.678 558.644,142.183 557.661,142.594C556.439,143.105 555.175,143.631 554.163,144.508C551.81,146.547 556.982,145.371 555.848,147.543C555.319,147.636 554.879,147.4 554.441,147.143C553.225,146.427 551.946,147.144 550.72,146.627C549.83,146.252 549.191,145.214 548.111,145.345C545.893,145.616 543.659,147.449 541.556,148.215C539.071,149.12 536.138,149.497 533.512,149.188C532.445,149.062 531.468,148.607 530.409,148.462C529.089,148.281 527.71,148.358 526.38,148.27C523.64,148.086 521.318,147.529 518.81,146.467C516.283,145.4 515.35,147.862 515.08,149.89C514.333,155.479 513.424,160.947 513.777,166.587C513.828,167.415 513.64,168.1 514.464,168.51C514.42,169.029 514.51,169.519 514.678,170.009C515.077,171.188 515.075,172.401 515.323,173.614C515.858,176.239 515.829,179.125 515.427,181.786C515.082,188.052 514.804,194.319 514.4,200.578C514.198,203.722 514.296,207.071 513.598,210.145C512.995,212.791 512.03,215.337 510.912,217.804C509.733,220.403 508.386,222.923 507.108,225.474C506.698,226.298 506.967,228.158 506.1,228.626C505.454,228.976 504.682,228.68 503.982,229.029C504.372,229.923 505.082,230.557 505.97,230.937C506.71,231.254 508.534,231.261 508.697,232.006C507.878,233.293 505.465,232.588 504.29,232.391C503.147,232.202 502.115,232.263 500.97,232.378C498.988,232.579 496.008,232.659 497.345,229.807C497.588,229.395 497.832,228.983 498.077,228.572C497.285,228.222 494.935,227.634 494.724,226.766C494.516,225.92 494.689,224.964 494.873,224.132C495.33,222.027 495.207,219.828 495.291,217.688C495.471,213.011 496.395,208.425 497.187,203.819C498.024,198.955 498.832,194.006 500.121,189.244C500.774,186.827 499.916,185.961 498.643,184.127C497.992,183.191 496.354,184.112 495.425,184.44C493.739,185.036 492.05,185.575 490.338,186.088C489.548,186.537 489.054,187.363 488.485,188.039C487.977,188.651 487.279,189.095 486.822,189.754C485.895,191.097 487.587,194.119 488.071,195.556C488.814,197.762 489.168,199.604 488.975,201.929C488.89,202.94 488.055,203.283 487.051,203.333C486.107,203.38 485.773,202.715 484.98,202.568C484.342,202.568 485.461,203.919 485.686,204.04C486.362,204.402 486.845,204.757 486.665,205.615C486.367,207.029 484.695,208.093 483.454,208.594C482.596,208.939 482.678,212.962 482.115,214.016C481.618,214.947 481.123,215.482 481.136,216.623C480.138,217.279 480.378,216.086 479.546,215.92C478.994,215.81 479.26,214.182 478.982,213.566C478.452,212.395 478.973,211.546 478.882,210.369C478.77,208.895 478.469,207.356 478.818,205.899C478.929,205.429 479.066,204.94 478.99,204.452C478.886,203.768 478.441,203.919 477.915,203.671C476.226,202.871 475.894,201.011 475.749,199.326C475.283,193.985 474.611,188.468 475.015,183.111C475.228,180.293 475.645,177.513 475.827,174.691C476.004,171.956 476.649,170.796 479.222,169.942C482.042,169.006 484.783,168.889 487.72,168.595C489.149,168.451 490.518,168.447 491.957,168.479C492.557,168.492 493.179,168.623 493.731,168.352C494.179,168.132 494.588,167.965 495.098,167.96C495.305,167.315 495.637,167.034 495.694,166.327C495.743,165.711 495.815,165.113 495.89,164.501C496.038,163.286 495.952,162.061 495.693,160.866C495.226,158.707 494.295,156.685 493.824,154.523C493.43,152.712 493.113,150.305 491.782,148.902C490.471,147.52 489.561,151.044 489.104,151.869C487.909,154.022 485.572,155.245 483.914,156.974C482.581,158.363 481.386,159.315 479.351,159.262C476.852,156.947 476.458,152.115 476.366,148.943C476.306,146.888 476.238,144.704 475.921,142.671C475.681,141.125 475.114,140.483 473.945,139.544C473.065,138.836 472.104,137.984 471.065,137.516C470.044,137.297 469.687,136.321 468.82,135.753C468.315,135.422 467.341,134.387 467.319,133.709C467.252,131.601 470.166,134.007 470.846,134.562C472.009,135.514 473.534,136.843 475.139,136.83C474.683,136.274 473.876,135.635 474.406,134.861C475.702,134.943 475.921,136.333 476.788,137.013C478.233,138.15 478.411,138.707 478.413,140.516C478.413,142.289 479.408,144.395 479.917,146.086C480.465,147.922 481.041,149.752 481.641,151.572C482.456,151.179 482.888,150.195 483.366,149.482C483.951,148.612 484.821,148.025 485.535,147.277C486.388,146.385 486.563,145.178 487.098,144.102C487.645,142.999 488.328,141.948 489.143,141.021C490.529,139.442 492.268,139.293 494.137,138.752C495.599,137.946 498.255,137.614 499.31,136.28C499.549,134.925 499.523,133.004 499.072,131.696C498.843,131.029 497.736,130.479 497.413,129.65C497.087,128.812 497.18,128.237 497.671,127.522C498.622,126.138 497.828,124.106 498.88,122.563C499.951,120.988 501.819,120.376 503.658,120.394"/>
    </g>
</svg>
