<?xml version="1.0" encoding="UTF-8" standalone="no"?>
<!DOCTYPE svg PUBLIC "-//W3C//DTD SVG 1.1//EN" "http://www.w3.org/Graphics/SVG/1.1/DTD/svg11.dtd">
<svg width="100%" height="100%" viewBox="0 0 76 109" version="1.1" xmlns="http://www.w3.org/2000/svg" xmlns:xlink="http://www.w3.org/1999/xlink" xml:space="preserve" xmlns:serif="http://www.serif.com/" style="fill-rule:evenodd;clip-rule:evenodd;stroke-linejoin:round;stroke-miterlimit:1.41421;">
    <g transform="matrix(1,0,0,1,-286.906,-289.015)">
        <path d="M329.743,393.614C329.701,394.699 329.738,395.764 330.035,396.813C330.294,397.731 331.442,397.631 332.261,397.59C333.297,397.539 333.86,397.204 334.412,396.29C334.89,395.501 334.97,394.562 334.53,393.738C336.265,393.341 336.431,392.293 336.647,390.713C336.723,390.143 336.838,389.58 336.953,389.014C337.13,388.129 337.048,387.928 336.586,387.144C335.941,386.047 335.297,384.952 334.652,383.858C334.937,382.424 335.219,380.993 335.505,379.559C335.746,378.34 336.201,377.002 336.096,375.76C335.982,374.413 335.867,373.068 335.754,371.722C335.668,370.705 335.862,368.901 335.357,368.016C334.868,367.157 334.561,366.633 334.584,365.539C334.605,364.432 334.936,363.378 335.258,362.33C335.667,360.998 335.585,359.699 335.585,358.316C335.585,357.689 335.815,357.16 335.852,356.544C335.881,356.038 335.63,355.844 335.916,355.427C336.468,354.622 336.169,353.444 336.395,352.537C336.654,351.667 337.46,350.127 337.277,349.227C337.178,348.743 336.861,348.642 336.909,348.119C336.966,347.529 337.05,346.943 337.136,346.358C337.257,345.514 337.245,344.298 337.638,343.527C337.788,343.227 338.155,343.124 338.259,342.78C338.307,342.208 338.277,342.087 338.671,341.622C339.37,340.8 340.069,339.976 340.769,339.153C341.268,338.564 340.962,338.166 341.232,337.503C341.381,337.138 341.545,336.774 341.616,336.381C341.616,335.131 341.531,334.447 342.278,333.419C342.872,332.6 343.316,331.675 343.801,330.788C344.28,329.909 345.013,329.16 345.644,328.384C347.057,326.65 347.699,324.371 348.157,322.227C348.482,320.698 349.574,319.4 350.331,318.059C350.793,317.237 351.181,316.373 351.399,315.454C351.535,314.884 351.438,312.741 352.428,313.58C353.55,314.53 354.508,315.202 355.995,315.357C357.587,315.526 362.231,315.551 362.557,313.264C362.684,312.375 361.792,311.593 361.394,310.891C360.994,310.185 360.791,309.353 360.437,308.623C359.887,307.482 359.15,306.51 358.213,305.662C357.571,305.084 356.89,304.548 356.219,304.004C355.558,303.141 354.896,302.391 354.106,301.643C352.895,300.499 352.112,299.196 351.008,297.989C349.759,296.62 348.237,297.573 347.028,298.509C346.404,298.993 347.12,301.219 347.332,301.894C348.075,302.063 348.354,301.483 349,301.922C349.323,302.142 349.679,302.298 350.042,302.438C350.834,302.742 351.512,303.016 352.069,303.672C353.138,304.925 353.823,306.454 354.665,307.858C353.608,307.494 352.742,306.734 351.692,306.35C351.085,306.128 350.44,306.067 349.808,306.229C349.187,306.387 349.107,306.101 348.554,305.817C346.845,304.937 344.021,304.806 343.395,302.619C343.039,301.37 343.498,300.037 343.852,298.845C344.204,297.662 344.396,296.427 344.34,295.192C344.236,292.97 343.203,290.883 341.147,289.88C340.125,289.387 338.854,288.986 337.714,289.017C336.501,289.048 335.313,289.81 334.164,290.151C333.386,290.38 332.903,290.237 332.638,291.113C332.477,291.642 332.442,292.206 332.411,292.756C332.357,293.687 332.063,294.44 331.706,295.296C331.518,295.751 331.231,296.156 331.334,296.661C331.412,297.043 331.836,297.261 331.616,297.616C331.142,298.382 330.448,299.339 330.577,300.295C330.657,300.882 331.081,301.102 331.611,301.211C331.793,301.573 331.963,301.951 332.107,302.331C331.879,303.243 332.608,302.816 332.64,303.556C332.658,303.952 332.545,304.36 332.603,304.752C333.963,305.422 336.314,303.641 336.705,305.81C335.558,307.093 333.693,307.31 332.134,306.872C330.52,306.414 329.244,307.15 327.835,307.862C327.207,308.179 326.535,308.562 325.832,308.669C324.939,308.346 324.418,308.178 323.47,308.296C322.063,308.473 320.863,309.519 319.429,309.415C319.483,308.719 319.755,308.089 319.953,307.428C320.189,306.639 320.071,305.801 320.29,305.004C321.12,301.984 322.748,300.357 325.525,299.025C326.103,298.747 326.899,298.679 327.302,298.211C328.085,297.303 326.711,296.962 327.165,296.055C327.932,294.524 325.001,293.794 323.841,293.88C323.198,295.437 321.909,296.766 320.806,298.009C319.571,299.401 318.839,301.118 317.603,302.545C315.346,305.153 313.978,308.447 312.829,311.699C312.547,312.497 311.994,314.035 312.928,314.622C313.659,315.081 314.632,315.22 315.468,315.354C318.144,315.793 320.928,315.903 323.633,315.746C324.977,315.668 326.135,315.411 327.406,314.947C328.347,314.605 329.35,314.268 330.365,314.447C330.741,315.221 331.335,316.083 331.492,316.928C331.834,318.752 330.96,323.716 328.503,323.956C327.812,323.264 327.676,323.287 326.7,323.394C326.14,323.457 325.582,323.519 325.02,323.582C324.276,323.665 323.53,323.749 322.783,323.831C322.317,323.629 321.852,323.426 321.386,323.225C320.384,322.79 319.25,323.182 318.196,322.941C317.369,322.752 316.543,322.555 315.714,322.373C313.833,321.968 311.873,321.573 309.938,321.686C309.368,321.719 308.922,321.054 308.248,320.934C307.6,320.821 306.926,320.859 306.278,320.946C304.932,321.124 303.571,321.565 302.277,321.962C301.713,322.134 301.41,322.283 301.128,322.805C300.83,323.36 300.545,323.306 299.958,323.458C299.186,323.662 298.185,324.354 297.779,325.079C297.365,325.815 297.265,326.559 296.52,327.041C296.032,327.358 295.824,327.485 295.505,327.996C295.094,328.654 294.929,328.509 294.199,328.555C293.407,328.906 293.073,330.139 293.417,330.847C293.783,331.599 294.553,332.163 295.381,332.285C294.636,333.573 293.159,334.291 292.099,335.284C291.09,336.223 290.721,337.812 289.442,338.458C288.672,338.847 289.036,339.44 288.497,340.016C288.071,340.468 287.703,340.992 287.461,341.567C287.16,342.286 287.095,343.108 287.55,343.782C286.979,344.12 286.846,344.639 286.929,345.271C288.231,346.315 290.221,346.055 290.533,344.216C292.089,343.746 292.685,342.554 293.426,341.241C294.375,339.56 295.718,339.468 297.505,339.536C298.928,339.588 301.611,339.173 300.911,337.007C301.408,337.016 301.865,337.473 302.353,337.348C302.902,337.205 303.362,336.748 303.762,336.373C304.257,335.907 304.753,335.305 305.385,335.019C305.662,334.322 305.346,334.015 306.299,333.915C307.031,333.837 307.599,334.819 307.904,335.405C308.103,335.785 308.244,336.195 308.317,336.618C308.219,337.107 308.415,337.245 308.902,337.033C309.635,336.982 310.805,336.635 311.355,337.165C311.857,337.648 312.283,338.214 312.848,338.631C313.638,339.217 314.619,339.328 315.482,339.753C316.202,340.106 316.738,340.902 317.278,341.482C317.936,342.187 318.813,342.462 319.658,342.889C320.439,343.282 321.041,343.891 321.691,344.466C322.053,344.785 322.526,345.041 322.644,345.532C322.682,345.694 322.661,345.943 322.771,346.082C323.154,346.567 323.269,345.945 323.147,346.851C323.103,347.185 323.059,347.52 323.015,347.854C322.794,349.567 322.473,351.279 322.473,353.003C322.473,355.111 322.519,357.124 322.145,359.198C321.787,361.168 321.585,363.168 321.555,365.169C321.495,369.035 322.283,372.824 322.45,376.677C322.538,378.696 323.031,380.747 323.344,382.744C323.759,383.705 324.151,384.457 324.151,385.509C324.151,386.41 324.379,387.094 324.664,387.948C325.202,389.562 324.642,390.931 326.139,392.099C327.143,392.878 328.456,393.52 329.743,393.614"/>
    </g>
</svg>
