<?xml version="1.0" encoding="UTF-8" standalone="no"?>
<!DOCTYPE svg PUBLIC "-//W3C//DTD SVG 1.1//EN" "http://www.w3.org/Graphics/SVG/1.1/DTD/svg11.dtd">
<svg width="100%" height="100%" viewBox="0 0 106 121" version="1.1" xmlns="http://www.w3.org/2000/svg" xmlns:xlink="http://www.w3.org/1999/xlink" xml:space="preserve" xmlns:serif="http://www.serif.com/" style="fill-rule:evenodd;clip-rule:evenodd;stroke-linejoin:round;stroke-miterlimit:1.41421;">
    <g transform="matrix(1,0,0,1,-67.119,-278.902)">
        <path d="M101.61,331.189L101.507,331.089C101.579,331.183 101.513,331.12 101.61,331.189ZM92.412,347.086L92.462,347.086L92.412,346.936L92.412,347.086ZM98.809,353.383L98.86,353.383C98.843,353.333 98.827,353.284 98.809,353.235L98.809,353.383ZM110.057,349.084C110.075,349.152 110.091,349.218 110.108,349.284L110.158,349.284C110.11,349.104 110.16,349.183 110.057,349.084ZM102.458,353.434L102.509,353.434C102.493,353.383 102.474,353.333 102.458,353.285L102.458,353.434ZM96.11,337.036L96.26,337.036C96.21,337.004 96.161,336.972 96.11,336.937L96.11,337.036ZM97.46,337.987L97.56,338.089L97.71,338.089C97.612,338.008 97.643,338.02 97.46,337.987ZM119.156,319.693C119.138,319.643 119.121,319.591 119.105,319.543L119.105,319.693L119.156,319.693ZM115.706,321.394C115.673,321.342 115.64,321.292 115.606,321.244C115.589,321.274 115.573,321.308 115.557,321.343C115.606,321.359 115.656,321.376 115.706,321.394ZM97.059,337.787L97.411,337.936C97.304,337.812 97.284,337.813 97.059,337.787ZM93.362,345.087L93.412,345.087C93.395,345.037 93.377,344.985 93.362,344.935L93.362,345.087ZM171.741,392.522C171.46,392.09 171.174,391.656 170.891,391.224L170.592,390.371C170.34,390.171 170.092,389.974 169.842,389.773C169.323,389.084 169.013,388.284 168.492,387.623L167.191,386.174C167.126,385.893 167.06,385.607 166.992,385.325C166.153,383.994 165.16,382.807 164.49,381.226C163.226,378.217 162.378,375.064 160.944,372.275C160.044,370.812 159.146,369.344 158.245,367.879L157.745,365.777C157.164,364.381 155.973,362.982 155.646,361.428C155.47,360.589 155.818,359.592 155.646,358.68C155.226,356.481 154.748,354.261 153.945,352.332C153.231,350.608 152.02,349.412 151.096,347.933C150.198,346.116 149.297,344.299 148.399,342.481C147.871,341.23 147.113,338.899 147,337.484C146.972,337.141 147.377,337.097 147.249,336.686C147.128,336.304 146.645,334.921 146.4,334.536C146.234,334.37 146.066,334.204 145.899,334.035C145.607,333.421 145.47,332.715 145.199,332.186C145.492,331.838 145.211,331.325 145.298,330.987C145.449,330.737 145.6,330.486 145.748,330.236C145.716,330.022 145.684,329.804 145.651,329.586C145.746,328.989 145.874,328.663 145.849,327.937C147.375,327.325 146.859,325.076 148.147,324.639C148.906,325.312 149.326,326.56 150.299,326.989C152.976,328.174 155.869,326.531 156.298,324.088C156.361,323.716 156.023,323.354 155.945,323.091C155.881,322.506 155.813,321.923 155.746,321.341C154.78,318.932 152.415,317.331 151.648,314.691C151.378,314.478 151.28,314.201 150.85,314.14C150.806,313.721 148.721,310.496 148.498,310.443C148.626,309.422 149.195,308.526 149.398,307.597C149.364,307.179 149.331,306.76 149.297,306.343C149.316,305.146 150.304,302.929 150.849,302.095C150.819,301.644 150.584,301.645 150.198,301.696C150.684,299.623 151.674,299.646 152.852,299.418C154.351,299.501 154.954,298.951 155.189,298.402C155.191,298.4 155.193,298.4 155.195,298.398C155.203,298.384 155.203,298.368 155.207,298.356C155.258,298.228 155.29,298.102 155.308,297.986C155.31,297.972 155.312,297.961 155.315,297.946C155.357,297.633 155.312,297.393 155.312,297.393L155.306,297.392C155.195,296.294 154.629,294.843 154.845,293.699C155.225,291.691 157.679,288.81 157.296,286.902C156.959,286.679 156.269,286.233 155.696,286.449C155.108,286.672 153.258,289.202 152.948,289.849C152.048,290.848 151.147,291.848 150.248,292.849C149.446,294.063 148.14,296.395 147.578,297.936C147.48,298.206 147.335,298.563 147.225,298.832C147.219,298.836 147.209,298.838 147.199,298.847C147.172,298.926 147.146,299.008 147.121,299.088C147.092,299.151 147.076,299.194 147.076,299.194L147.083,299.191C146.99,299.477 146.893,299.761 146.799,300.045C146.5,300.467 146.069,300.959 145.848,301.445L145.697,301.445L145.697,301.346C145.591,301.193 145.653,301.283 145.747,301.096C145.043,300.704 144.764,299.512 144.098,299.093C143.832,299.077 143.564,299.061 143.298,299.049C142.805,298.826 142.002,298.079 141.2,297.847L141.2,297.546C141.184,297.645 141.167,297.744 141.15,297.847C141.084,297.83 141.02,297.812 140.949,297.796C140.049,296.123 138.797,296.961 137.401,297.444C137.374,297.616 137.387,297.504 137.452,297.644C136.907,298.05 134.843,300.42 134.851,301.394C134.338,301.606 133.49,302.056 133.352,302.643C133.602,302.994 133.852,303.342 134.102,303.694C133.936,304.532 133.076,307.442 133.553,308.09C133.79,308.464 135.577,308.915 136.052,309.193C136.139,309.714 135.957,310.369 135.801,310.793C135.568,311.424 135.535,312.169 135.001,312.491C133.461,313.419 131.262,310.751 129.503,311.991C129.406,311.932 129.328,311.924 129.252,311.841C129.106,311.634 129.281,311.405 129.152,311.142C129.003,310.831 128.184,310.15 127.603,310.342C125.364,311.093 125.332,313.335 124.155,315.141C123.28,316.482 122.056,317.844 121.105,318.939C121.105,318.939 120.222,319.281 119.955,319.39C119.457,319.889 118.956,320.39 118.456,320.89C118.223,320.924 117.99,320.954 117.755,320.989C117.689,321.141 117.623,321.291 117.555,321.44C116.801,321.544 116.63,321.358 116.006,321.242C116.076,321.335 116.008,321.27 116.106,321.341C115.808,321.944 114.75,322.246 114.157,322.341C114.062,321.956 113.839,321.782 113.757,321.441C113.708,320.739 113.659,320.043 113.606,319.341C113.232,318.646 112.693,317.839 112.258,317.191C111.954,316.741 112.032,313.029 112.258,312.294C112.682,310.924 114.297,309.292 115.109,308.145C116.73,305.848 118.086,303.41 119.606,300.998C119.986,300.394 120.578,299.914 120.957,299.35C121.155,298.866 121.357,298.383 121.555,297.898C123.543,294.578 124.863,290.701 126.354,286.801C127.587,286.269 128.821,285.735 130.053,285.203C130.806,284.998 131.874,285.273 132.452,284.899C132.549,284.831 132.484,284.896 132.552,284.8C132.627,284.632 132.598,284.517 132.502,284.4C132.05,283.62 130.51,284.19 129.703,284.252C129.919,283.616 130.253,282.948 130.453,282.401C131.51,282.306 134.374,281.132 134.452,280.252C134.403,280.202 134.351,280.15 134.303,280.102C133.543,280.325 132.968,280.9 132.052,281.002L132.052,280.952C132.385,280.569 132.719,280.186 133.051,279.802C133.209,279.484 133.109,279.026 132.853,278.902C130.93,280.352 129.038,281.827 127.205,283.354C126.34,284.071 125.238,284.616 124.555,285.501C123.522,286.842 122.985,288.518 122.104,290.001C120.739,292.019 119.372,294.034 118.006,296.049C117.606,296.965 117.206,297.883 116.808,298.798C116.191,299.481 115.574,300.166 114.956,300.847C113.957,302.177 113.093,304.059 111.807,305.096C110.097,306.478 108.122,307.517 106.912,309.391C106.728,309.872 106.329,310.258 105.939,310.591C105.359,311.092 104.846,311.446 104.1,311.664C103.99,311.695 103.895,311.687 103.808,311.663L103.808,311.695L103.759,311.695C103.252,311.406 103.161,310.943 102.907,310.394C101.9,308.189 104.055,307.706 104.757,306.395C104.757,305.612 103.556,303.874 103.058,303.546C103.065,303.109 103.149,302.92 103.258,302.596C102.989,301.976 101.676,301.873 100.909,301.796C100.683,300.758 99.457,300.116 98.51,299.849C98.21,299.798 97.911,299.746 97.609,299.698C97.341,299.551 97.289,299.193 96.91,299.095C95.605,298.769 94.19,300.039 93.661,300.597C93.337,300.937 92.985,301.146 92.562,301.397C91.723,301.893 90.922,304.196 90.713,305.395C90.575,306.176 91.134,306.836 91.212,307.295C91.146,307.963 91.079,308.628 91.011,309.296C91.278,310.427 93.011,311.066 94.412,311.045C94.751,311.607 95.312,311.978 95.61,312.493C96.088,312.366 96.403,312.463 96.91,312.595C97.79,312.407 96.376,314.726 96.36,314.741L96.36,314.843C96.003,315.204 94.695,316.597 94.284,316.779C93.872,317.147 93.226,317.342 92.783,317.599C91.992,318.054 91.366,318.603 90.731,319.21C90.443,319.738 90.047,320.197 89.762,320.841C89.095,322.391 88.429,323.941 87.763,325.49C86.845,326.739 85.93,327.988 85.012,329.239C84.547,330.073 84.081,330.905 83.613,331.74C82.547,332.788 81.48,333.839 80.415,334.888C78.212,337.728 75.903,340.322 73.617,343.036C72.467,344.85 71.318,346.668 70.167,348.484C69.151,349.633 68.134,350.784 67.119,351.934C67.134,351.981 67.152,352.033 67.168,352.08C67.295,352.151 67.868,352.032 67.868,352.032C67.904,352.246 67.82,352.262 68.069,352.384C68.17,352.398 68.268,352.416 68.369,352.43C69.218,351.716 70.068,350.999 70.918,350.283L70.967,350.283C70.918,350.415 70.869,350.55 70.818,350.683L70.818,350.732L71.169,350.884C71.58,350.542 72.048,350.098 72.269,349.582C72.318,349.55 72.368,349.514 72.418,349.482C72.584,350.466 72.247,351.5 73.169,351.882C74.047,351.44 73.265,349.867 73.469,349.033C74.084,347.932 74.701,346.831 75.317,345.732C75.479,345.33 75.438,344.935 75.667,344.63C76.301,344.15 76.935,343.666 77.566,343.182C78.616,342.266 79.667,341.35 80.716,340.434C81.6,339.433 82.482,338.434 83.364,337.433C84.098,336.717 84.831,335.997 85.563,335.285C85.698,335.003 85.832,334.72 85.964,334.435C87.097,333.218 88.231,332 89.363,330.786C90.079,329.886 90.796,328.986 91.512,328.089C92.276,326.888 92.775,325.11 94.063,324.437C94.512,324.442 94.951,324.571 95.31,324.755C97.354,325.29 98.802,327.761 100.185,329.17C100.294,329.179 100.403,329.224 100.499,329.336C100.709,329.581 100.92,329.819 101.146,330.049C101.23,330.137 101.266,330.232 101.282,330.326C101.54,330.528 101.8,330.731 102.057,330.936L102.057,331.186L101.609,331.186L101.609,331.236C101.706,331.34 101.691,331.272 101.758,331.434C101.725,331.518 101.692,331.602 101.66,331.685C101.419,331.624 101.395,331.601 101.309,331.385C101.109,331.486 101.223,331.364 101.209,331.635C100.987,331.567 101.107,331.67 101.008,331.486L100.958,331.486C101.036,331.923 101.086,332.294 101.209,332.636C101.192,332.667 101.176,332.699 101.16,332.736C100.778,332.69 100.07,332.443 99.711,332.284C99.692,332.369 99.676,332.453 99.658,332.536C99.302,332.485 99.276,332.396 98.91,332.437C98.891,332.518 98.876,332.603 98.86,332.685C99.189,333.19 99.441,333.865 100.11,334.034C99.975,334.586 98.153,334.274 97.61,334.334C97.577,334.352 97.545,334.369 97.51,334.385C97.61,334.569 97.71,334.754 97.81,334.935L97.81,335.386C97.523,335.323 97.503,335.2 97.411,335.535C97.119,335.484 97.15,335.467 97.11,335.187L96.761,335.187C96.725,335.201 96.693,335.218 96.66,335.235C96.77,335.611 96.698,335.824 96.91,335.934C96.838,336.169 96.867,336.063 96.71,336.184C97.087,336.324 98.569,337.071 98.659,337.033C98.854,337.133 98.924,337.393 98.909,337.735C98.669,337.868 98.365,338.012 98.158,338.134C98.09,338.255 98.365,338.295 98.509,338.332L98.509,338.484C98.351,338.677 97.98,338.973 97.758,339.083C97.842,339.116 97.925,339.149 98.009,339.182C97.939,339.474 97.922,339.345 97.91,339.634L96.41,339.481C96.725,339.583 97.043,339.684 97.358,339.783C97.273,340.013 97.18,340.055 97.109,340.335C96.921,340.265 97.005,340.336 96.909,340.184C96.478,340.355 96.327,340.667 96.409,341.086C96.227,341.117 96.04,341.149 95.858,341.184C95.795,341.332 95.859,341.243 95.757,341.333C95.909,341.368 96.057,341.4 96.207,341.434C96.116,341.659 96.057,341.59 96.009,341.885C95.824,341.916 95.641,341.951 95.459,341.985C95.617,342.162 95.864,342.183 96.009,342.384C96.026,342.468 96.042,342.551 96.056,342.632C95.801,342.799 95.73,343.019 95.408,343.134C95.304,343.205 95.344,343.251 95.207,343.183C95.158,343.149 95.108,343.118 95.059,343.082L95.059,342.883C95.142,342.899 95.226,342.916 95.308,342.934C95.273,342.779 95.189,342.757 95.059,342.581L95.059,342.435C95.242,342.468 95.424,342.501 95.608,342.533C95.627,342.502 95.642,342.469 95.657,342.435C95.401,342.365 95.419,342.283 95.208,342.183C95.133,342.28 95.12,342.273 95.01,342.334C94.911,342.734 94.808,343.134 94.71,343.532C94.293,343.733 93.876,343.932 93.459,344.133C93.483,344.478 93.562,344.533 93.761,344.682C93.716,344.956 93.678,345.034 93.459,345.133C94.218,346.432 93.659,345.814 93.459,346.831L93.16,346.831C93.09,347.3 92.779,347.435 92.612,347.882L92.612,348.034C92.728,348 92.844,347.967 92.962,347.932C92.938,348.525 92.733,349.284 92.663,349.732C92.696,349.748 92.728,349.764 92.762,349.779C92.826,349.472 92.955,349.372 93.064,349.131L93.213,349.131C93.266,349.42 93.311,349.718 93.112,349.881C93.193,350.099 93.163,350.078 93.412,350.132C93.319,350.602 93.063,350.356 92.862,350.731C93.631,350.679 93.816,350.216 94.412,350.033C94.401,350.273 94.389,350.369 94.261,350.482C94.345,350.532 94.429,350.584 94.512,350.631L94.512,350.531C94.634,350.481 94.566,350.18 94.562,349.931C94.661,349.914 94.761,349.897 94.862,349.88L94.862,349.981C95.016,350.148 94.906,350.263 95.112,350.43C95.13,350.462 95.146,350.497 95.162,350.531C95.272,350.401 95.22,350.408 95.211,350.182C95.649,350.155 95.605,350.1 96.061,350.079C96.032,350.502 95.902,350.574 95.612,350.729C95.682,350.823 95.661,350.814 95.761,350.881L95.761,350.978C96.211,350.685 96.682,350.439 97.06,350.079L97.262,350.079C97.199,350.531 96.784,350.691 96.762,351.029C96.753,351.149 97.114,351.732 97.013,351.931C96.868,352.205 96.682,352.511 96.611,352.928C96.776,352.826 96.723,352.788 96.962,352.729C96.878,353.08 96.796,353.429 96.711,353.778C96.83,354.247 97.218,354.126 97.31,354.678C97.62,354.617 97.888,354.545 98.06,354.678C98.157,353.95 98.42,353.722 98.51,352.977C98.715,352.95 98.772,352.96 98.959,353.028C99.042,352.831 99.125,352.632 99.209,352.427L99.41,352.427C99.363,352.829 99.464,353.014 99.41,353.378C99.753,353.466 100.114,353.716 100.309,353.328C100.493,353.429 100.418,353.329 100.458,353.577C100.609,353.595 100.757,353.613 100.909,353.63C101.042,353.771 100.985,353.837 100.958,354.08C101.008,353.997 101.059,353.911 101.109,353.829C101.293,353.928 101.216,353.831 101.258,354.08L102.156,352.778C102.398,352.807 102.28,352.832 102.558,352.83C102.544,352.962 102.525,353.096 102.509,353.229L103.158,352.38C103.336,352.322 103.262,352.309 103.358,352.478C103.842,352.166 104.169,351.655 104.808,351.977C104.856,351.879 104.908,351.778 104.957,351.679C105.206,351.732 105.128,351.66 105.208,351.879C105.52,351.515 105.266,350.763 105.807,350.628C105.839,350.694 105.875,350.761 105.907,350.829C106.238,350.355 106.413,350.355 107.007,350.478L107.007,350.779C107.091,350.561 107.174,350.343 107.257,350.129C107.444,350.06 107.503,350.049 107.706,350.077C107.769,349.774 107.842,349.556 108.106,349.578C108.181,349.347 108.108,349.542 108.058,349.227C108.208,349.163 108.356,349.095 108.508,349.03C108.641,349.146 108.773,349.262 108.906,349.379C109.199,348.926 109.69,348.927 110.255,348.879C110.354,349.021 110.372,348.982 110.407,349.228C110.698,349.197 110.88,349.011 111.207,348.93C111.146,349.273 110.958,349.501 110.807,349.777C110.855,349.796 110.905,349.812 110.955,349.829C110.972,349.746 110.989,349.662 111.005,349.579L111.305,349.579C111.356,349.819 111.309,350.148 111.354,350.23C111.37,350.262 111.388,350.295 111.405,350.328C111.56,349.84 111.624,349.183 111.756,348.579C111.955,348.61 111.905,348.575 112.004,348.68C112.285,348.804 112.174,349.104 112.104,349.429C112.864,349.565 112.954,350.947 113.155,351.578C113.809,353.64 114.149,356.297 115.005,358.33C115.454,359.227 115.903,360.127 116.353,361.025L117.705,366.724C118.037,368.468 117.627,370.33 118.054,371.923C119.02,375.421 119.986,378.92 120.954,382.42C121.252,383.37 121.552,384.319 121.854,385.269L121.854,386.919C122.036,387.653 122.217,388.386 122.403,389.119C122.584,389.996 122.413,391.058 122.352,391.867C122.208,393.815 122.805,396.837 123.552,397.965C123.835,398.284 124.118,398.6 124.403,398.917C125.966,399.617 130.772,399.021 132.55,398.389C132.593,398.337 132.654,398.293 132.731,398.259C133.548,397.887 133.689,397.159 133.806,396.339C133.808,396.33 133.814,396.327 133.814,396.319C133.808,396.319 133.804,396.319 133.798,396.318C133.931,395.357 133.58,394.316 133.551,393.418C133.635,392.901 133.716,392.383 133.798,391.867C133.677,391.139 133.342,390.614 133.5,389.669C134.078,386.253 135.11,382.964 135.649,379.721C136.021,377.484 134.856,375.606 135.35,373.523C135.785,371.686 136.72,370.292 137.1,368.375C137.232,366.008 137.365,363.642 137.5,361.276C137.867,359.827 138.232,358.38 138.599,356.927C138.732,355.66 138.866,354.394 139,353.129C139.124,352.366 139.173,351.149 139.05,350.479C139.286,350.432 139.181,350.405 139.2,350.279C141.669,351.717 142.597,355.07 144.097,357.478C145.396,359.276 146.697,361.077 147.995,362.876C148.992,364.453 149.689,366.236 150.696,367.875C151.295,368.606 151.895,369.34 152.495,370.074C153.686,372.012 153.789,375.028 155.096,376.97C155.606,377.735 156.603,378.006 157.145,378.721C158.228,380.368 159.312,382.022 160.393,383.67C160.738,384.222 161.866,385.922 161.694,386.82C161.612,387.245 161.015,387.438 160.893,387.968C160.443,389.917 162.695,390.639 164.041,390.867C164.791,390.991 165.614,390.746 166.142,391.067C167.898,392.133 168.88,397.034 172.191,396.115C172.307,396.051 172.424,395.981 172.542,395.914C172.191,395.095 172.183,393.54 171.741,392.522ZM130.103,370.278C129.695,372.723 128.923,374.237 128.703,376.778C128.539,378.654 128.849,380.409 129.102,381.977C129.219,383.442 129.336,384.908 129.452,386.374C129.848,388.433 130.24,390.961 129.752,393.172C129.564,394.025 128.64,394.628 128.105,395.173C127.701,395.579 127.491,395.982 126.954,396.273C126.903,394.491 126.853,392.707 126.803,390.924C127.152,390.155 127.505,389.392 127.851,388.623C127.829,388.144 127.568,387.937 127.554,387.374C126.776,386.831 125.462,386.033 125.153,385.075C124.602,383.35 124.856,379.936 124.856,377.677C124.837,376.843 124.821,376.009 124.804,375.178C124.934,374.429 125.308,373.607 125.153,372.679C124.74,370.18 123.747,368.57 123.356,366.23L123.356,362.881C122.971,360.931 122.59,358.98 122.204,357.032C122.156,354.599 122.104,352.166 122.057,349.734C121.75,347.865 121.908,345.961 121.555,344.236C121.399,343.464 121.045,342.3 121.357,341.537C121.457,341.434 121.445,341.45 121.656,341.435C121.656,341.435 122.554,339.638 122.708,339.536C122.838,339.553 122.972,339.569 123.105,339.585L123.105,339.286L123.855,339.286C123.781,338.985 123.79,338.83 123.805,338.437C123.974,338.36 124.846,337.554 124.856,337.537C125.049,337.623 124.996,337.64 125.104,337.786C125.308,337.375 125.563,337.571 125.354,337.035C125.542,336.595 127.379,334.7 127.953,334.687C127.812,334.42 127.853,334.465 127.906,334.137C128.321,334.164 128.717,334.127 129.055,334.236L129.154,334.236C129.494,335.714 128.384,337.778 129.705,338.487C129.588,339.517 129.471,340.551 129.354,341.586C129.388,342.686 129.421,343.786 129.454,344.886C129.321,345.652 129.187,346.417 129.055,347.185L129.055,349.684C128.781,351.432 128.518,353.66 128.805,355.481C129.005,357.4 129.205,359.316 129.405,361.232C129.822,363.426 130.458,365.661 130.055,368.279C130.07,368.946 130.086,369.613 130.103,370.278ZM143.649,314.643L143.649,314.544C144.049,314.026 144.45,313.509 144.85,312.992C144.991,313.18 144.94,313.442 145.049,313.692C145.242,314.14 145.632,314.416 146,314.691L146,314.842C145.982,314.876 145.964,314.907 145.948,314.942C145.604,315.177 144.055,314.855 143.649,314.643ZM96.11,336.887L96.11,336.838C96.012,336.819 95.912,336.805 95.81,336.789C95.914,336.871 95.91,336.868 96.11,336.887Z"/>
    </g>
</svg>
