<?xml version="1.0" encoding="UTF-8" standalone="no"?>
<!DOCTYPE svg PUBLIC "-//W3C//DTD SVG 1.1//EN" "http://www.w3.org/Graphics/SVG/1.1/DTD/svg11.dtd">
<svg width="100%" height="100%" viewBox="0 0 127 146" version="1.1" xmlns="http://www.w3.org/2000/svg" xmlns:xlink="http://www.w3.org/1999/xlink" xml:space="preserve" xmlns:serif="http://www.serif.com/" style="fill-rule:evenodd;clip-rule:evenodd;stroke-linejoin:round;stroke-miterlimit:1.41421;">
    <g transform="matrix(1,0,0,1,-520.665,-250.67)">
        <path d="M522.627,279.689C525.195,280.095 528.481,282.607 529.835,284.29L531.1,285.554C532.167,286.872 533.299,288.158 535.031,288.809C537.496,289.739 540.299,290.545 543.021,291.1C544.786,291.313 546.555,291.528 548.322,291.745C549.374,291.878 550.419,292.013 551.469,292.146C553.538,292.594 555.614,293.042 557.683,293.492C559.245,294.083 560.804,294.675 562.366,295.268C563.2,295.445 564.036,295.625 564.865,295.806C565.247,295.903 565.628,295.998 566.008,296.094C569.745,299.143 575.395,299.754 580.567,299.931C585.128,301.489 589.556,303.164 594.4,303.616C595.276,303.698 595.961,303.469 596.461,303.057C596.861,303.057 597.241,303.078 597.53,303.123C599.27,303.131 601.009,303.142 602.75,303.148C603.217,302.773 603.682,302.397 604.147,302.019C604.168,300.817 604.376,298.765 604.123,297.66C603.809,296.521 603.495,295.383 603.181,294.244C602.913,293.196 602.67,292.269 602.32,291.364C602.228,291.087 602.144,290.81 602.053,290.533C601.182,289.715 600.311,288.898 599.442,288.086C599.076,287.725 598.706,287.366 598.339,287.008C596.562,285.445 594.787,283.885 593.012,282.324C592.329,281.636 591.646,280.945 590.965,280.256C589.691,279.008 588.421,277.761 587.145,276.515C586.519,275.895 585.889,275.277 585.264,274.659C583.883,273.789 582.5,272.921 581.118,272.048C580.411,271.396 579.702,270.737 578.995,270.087C577.693,269.034 576.463,267.847 575.281,266.668C574.735,266.122 574.203,265.595 573.634,265.089C572.595,264.313 571.56,263.525 570.506,262.739C568.979,262.981 567.452,263.22 565.921,263.468C565.063,263.732 564.195,264.656 563.405,264.654C563.268,264.642 563.372,264.664 563.245,264.617C563.071,264.499 563.027,264.37 563.05,264.198C563.006,263.163 564.854,262.766 565.676,262.326C565.074,261.843 564.339,261.397 563.809,260.988C562.723,261.551 559.213,262.174 558.596,261.363C558.615,261.285 558.63,261.205 558.65,261.129C559.523,260.877 560.439,261.077 561.389,260.613L561.359,260.566C560.801,260.4 560.238,260.232 559.678,260.064C559.33,259.851 559.144,259.345 559.321,259.064C562.082,259.285 564.827,259.556 567.555,259.909C568.835,260.076 570.243,259.927 571.454,260.369C572.647,260.801 573.732,261.506 574.833,262.193C574.833,262.192 574.836,262.192 574.84,262.192C574.863,262.207 574.879,262.221 574.9,262.234C575.071,262.339 575.236,262.447 575.41,262.55C575.401,262.562 575.394,262.575 575.386,262.587C576.436,263.345 577.49,264.105 578.538,264.866C580.609,266.112 582.682,267.358 584.751,268.606C585.588,269.08 586.42,269.555 587.254,270.03C588.09,270.991 588.925,271.95 589.757,272.909C591.863,274.634 593.912,276.485 596.133,278.075L598.501,279.824C599.105,280.101 599.701,280.382 600.303,280.658C601.608,281.232 602.97,281.919 604.179,282.622C604.968,283.034 605.759,283.447 606.546,283.859C607.038,284.298 607.533,284.739 608.025,285.178C608.348,285.455 608.673,285.733 608.995,286.013C609.05,285.957 609.103,285.905 609.156,285.85C609.677,285.601 610.231,284.924 610.527,284.426C610.357,284.155 610.186,283.885 610.017,283.618C609.685,283.516 609.356,283.421 609.022,283.32C608.427,283.026 607.838,282.726 607.245,282.433C606.7,282.097 606.197,281.595 605.552,281.356C605.118,281.195 603.787,281.443 603.507,281.195C602.701,280.506 601.673,278.552 601.356,277.373C601.365,276.947 601.372,276.515 601.381,276.084C601.694,275.787 602.009,275.492 602.322,275.195C602.585,274.826 602.541,274.382 602.698,273.879C602.898,273.331 603.093,272.783 603.29,272.236C603.471,271.986 603.649,271.734 603.829,271.482C604.84,270.051 605.919,269.025 607.543,268.201C607.839,268.049 608.135,267.896 608.428,267.744C608.543,267.733 608.656,267.721 608.77,267.709C610.634,266.854 612.428,266.973 613.397,267.148C614.181,267.267 615.046,267.535 615.422,268.13C615.539,268.23 615.648,268.337 615.727,268.459C615.936,268.764 616.089,269.087 616.173,269.409C616.228,269.608 616.258,269.847 616.252,270.051C616.251,270.142 616.202,270.263 616.22,270.353C616.241,270.451 616.398,270.544 616.479,270.642C616.589,270.782 616.802,271.127 616.925,271.212C616.937,271.208 616.949,271.207 616.963,271.204C617.06,271.153 617.259,271.023 617.316,270.897C617.343,270.83 617.338,270.691 617.415,270.655C617.51,270.726 617.482,271.077 617.43,271.18C617.376,271.281 617.291,271.365 617.207,271.44C617.207,271.45 617.21,271.461 617.21,271.472C617.375,271.533 617.568,271.528 617.738,271.549C617.889,271.565 618.022,271.616 618.167,271.627C618.397,271.643 618.631,271.653 618.858,271.676C618.985,271.686 619.397,271.653 619.491,271.823C619.563,271.951 619.594,272.115 619.579,272.25C619.549,272.543 619.292,272.596 619.501,272.903C619.641,273.109 619.871,272.92 620.023,272.969C620.109,272.999 620.193,273.115 620.222,273.173C620.366,273.46 620.184,273.735 619.967,274.044L619.983,274.058C619.988,274.061 619.993,274.061 619.998,274.062C620.079,274.007 620.169,273.976 620.25,273.958C620.327,273.94 620.387,273.931 620.456,273.931C620.571,273.926 620.691,274.091 620.72,274.179C620.804,274.476 620.472,274.661 620.676,275.007C620.781,275.196 621.053,275.249 621.206,275.335C621.277,275.38 621.441,275.572 621.519,275.693C621.521,275.702 621.524,275.704 621.53,275.71C621.546,275.738 621.561,275.767 621.567,275.778C621.567,275.78 621.566,275.782 621.566,275.786C621.605,275.884 621.622,276.032 621.566,276.218C621.513,276.468 621.323,276.745 621.047,276.968C620.737,277.213 620.443,277.474 620.136,277.715C620.128,277.734 620.121,277.752 620.101,277.767C619.967,277.865 619.613,278.162 619.325,278.404C619.303,278.406 619.283,278.422 619.263,278.425C618.86,278.838 617.478,280.362 617.451,281.571C617.511,281.949 617.573,282.324 617.631,282.699C617.917,284.173 617.998,285.729 618.628,286.896C618.672,286.914 618.715,286.934 618.759,286.953C619.358,286.753 620.453,284.93 621.124,283.81C621.123,283.809 621.106,283.806 621.106,283.806C621.851,282.718 623.995,278.954 624.216,278.567C624.612,277.453 625.011,276.336 625.406,275.22L626.321,271.213C626.706,270.116 627.092,269.023 627.479,267.929L628.958,265.831C629.334,265.005 629.713,264.18 630.088,263.355L632.431,258.672C632.69,258.164 632.908,257.582 633.148,257.009C633.389,256.524 634.622,255.6 634.622,255.6C635.339,255.047 636.055,254.491 636.762,253.91C637.764,253.464 638.759,253.013 639.755,252.565C640.334,252.275 640.854,251.756 641.405,251.467C642.656,251.953 644.13,251.301 644.767,250.67C644.829,250.752 644.887,250.834 644.953,250.913L644.953,250.978C644.811,251.161 644.665,251.343 644.526,251.527L644.526,251.59C645.133,251.444 645.744,251.302 646.356,251.161L646.356,251.59C645.84,251.857 645.267,251.977 644.648,252.26C644.687,252.276 644.729,252.301 644.767,252.323C645.202,252.63 645.833,252.704 646.603,252.688C646.64,252.79 646.683,252.893 646.722,252.995C646.64,253.058 646.561,253.117 646.48,253.176C645.379,253.769 643.531,252.353 642.631,252.872C642.178,253.138 641.734,253.402 641.286,253.669L641.286,253.971C642.322,253.938 643.433,253.71 643.912,254.339C643.851,254.482 643.791,254.624 643.729,254.766C643.036,254.929 642.242,254.694 641.404,254.888C640.876,255.074 640.347,255.257 639.82,255.441C639.389,255.399 638.962,255.359 638.531,255.32C637.818,255.465 637.22,256.133 636.684,256.849C636.685,256.864 636.685,256.881 636.689,256.898C636.676,256.899 636.666,256.899 636.652,256.9C636.238,257.777 635.826,258.658 635.413,259.535C634.96,261.353 634.5,263.177 634.044,264.997C633.076,268.141 631.928,271.027 630.786,273.957C629.713,277.114 628.634,280.27 627.558,283.428C627.227,284.064 626.894,284.701 626.563,285.337L625.324,287.867C624.646,289.198 623.904,290.592 623.335,292.01C622.866,293.178 623.485,295.006 623.687,296.019C623.71,296.52 623.738,297.022 623.765,297.526C623.965,298.77 623.834,299.94 623.605,301.022C623.549,301.383 623.497,301.741 623.444,302.1L622.608,304.009C621.982,304.69 621.352,305.371 620.724,306.054C619.728,307.401 618.735,308.744 617.739,310.09C616.652,311.211 615.568,312.332 614.481,313.453C613.701,314.422 612.683,315.387 611.711,316.172C611.654,316.227 611.598,316.282 611.541,316.338C606.398,319.215 602.659,324.396 601.795,330.404C601.712,330.355 601.628,330.307 601.543,330.263C601.461,332.802 601.377,335.341 601.301,337.88C600.673,340.123 600.045,342.365 599.414,344.609C599.363,344.598 599.309,344.589 599.254,344.58C599.121,345.405 598.983,346.231 598.851,347.057C598.608,348.608 598.369,350.161 598.125,351.712C597.73,353.199 597.334,354.688 596.941,356.177L597.746,363.575C597.83,364.535 597.909,365.495 597.992,366.454C598.406,368.891 598.45,371.296 598.905,373.611C599.014,374.438 599.121,375.261 599.226,376.085C599.846,378.392 600.464,380.697 601.085,383.002C601.278,383.933 601.166,384.891 601.166,385.905L601.136,387.44C600.65,389.753 599.951,392.263 598.905,394.059C598.707,394.451 598.51,394.847 598.311,395.243L597.073,396.077C596.697,395.997 596.321,395.916 595.946,395.836C595.846,395.673 595.746,395.512 595.649,395.351C594.602,393.763 595.437,391.038 595.729,389.108C595.685,388.831 595.64,388.553 595.598,388.276C595.394,387.299 595.31,386.64 594.84,385.987C594.467,385.674 594.087,385.36 593.714,385.046C593.361,384.764 592.157,382.922 592.342,382.195C592.429,382.068 592.518,381.94 592.609,381.819C593.262,380.777 595.137,380.003 594.709,377.967C594.33,376.813 593.956,375.655 593.58,374.497C592.144,370.434 590.444,366.577 589.541,362.099C589.557,360.877 589.578,359.657 589.598,358.437L589.598,356.203C589.684,354.894 589.775,353.588 589.863,352.276C590.091,351.27 590.316,350.267 590.539,349.263C590.239,345.06 589.945,340.852 589.65,336.644C589.616,333.918 589.579,331.192 589.542,328.465C589.276,326.956 589.09,325.463 588.844,323.892L588.823,323.21C586.307,321.708 583.74,320.304 580.99,319.207C581.015,319.054 581.048,318.898 581.073,318.743C580.589,318.347 580.102,317.949 579.617,317.555L578.962,317.478C578.514,317.325 578.259,316.778 577.984,316.487C577.399,316.589 576.81,316.69 576.222,316.794L575.834,316.11C575.606,315.94 575.258,316.115 574.823,315.797C574.928,314.728 574.198,313.743 574.078,312.734C573.989,312.015 574.201,311.177 574.312,310.373C573.597,310.026 572.879,309.682 572.162,309.336C571.337,308.872 570.513,308.404 569.687,307.938C567.23,307.042 564.772,306.148 562.313,305.248C561.04,304.522 559.767,303.797 558.496,303.068C557.085,302.506 555.506,302.073 553.925,301.672C552.793,301.386 551.677,301.229 550.668,300.812C549.867,300.398 549.071,299.986 548.273,299.573C546.05,298.44 543.893,297.342 541.813,296.05C540.604,295.287 539.391,294.524 538.182,293.764C535.696,292.691 532.403,292.438 529.922,291.342C528.993,290.932 528.321,290.233 527.578,289.648C526.631,288.867 525.68,288.088 524.729,287.305C524.208,286.957 523.689,286.606 523.169,286.256C522.951,285.934 522.738,285.61 522.523,285.287C521.82,284.291 520.796,283.223 520.665,281.709C521.204,280.796 521.652,280.177 522.627,279.689Z" style="fill-rule:nonzero;"/>
        <path d="M593.611,351.398C592.946,350.855 594.493,348.484 595.045,347.577C592.887,349.363 591.117,355.939 588.834,360C587.233,362.842 587.986,362.454 589.79,357.609C591.531,352.933 592.754,347.616 596.001,342.322C596.911,346.696 595.589,346.783 593.611,351.398Z"/>
        <path d="M576.412,353.31C576.898,353.621 576.906,354.41 577.846,354.265C577.846,354.584 577.846,354.903 577.846,355.222C577.461,355.473 577.07,355.719 576.412,355.701C576.665,355.316 576.91,354.925 576.89,354.265C575.38,354.03 576.713,356.636 574.979,356.177C575.17,354.936 576.404,354.736 576.412,353.31Z"/>
        <path d="M581.189,342.799C581.099,345.423 577.327,348.488 575.456,350.922C575.439,350.032 579.52,345.168 581.189,342.799Z"/>
        <path d="M584.056,330.377C585.178,325.606 588.758,323.293 591.702,320.344C591.145,323.296 586.67,326.457 584.535,329.422C585.359,330.058 587.056,327.504 587.88,326.556C588.088,327.422 586.393,330.469 584.056,330.377Z"/>
        <path d="M595.523,326.077C594.006,330.294 590.678,332.699 588.834,336.589C589.495,333.422 592.381,328.354 595.523,326.077Z"/>
        <path d="M595.045,336.589C593.729,337.183 593.664,339.029 592.656,339.932C592,338.62 594.618,336.494 595.045,334.677C596.722,334.809 593.846,336.457 595.524,336.589C595.433,337.129 595.043,336.854 595.045,336.589Z"/>
        <path d="M594.566,338.021C595.224,338.034 591.848,341.881 591.701,344.231C590.675,342.077 593.408,339.58 594.566,338.021Z"/>
        <path d="M587.401,338.021C586.861,340.671 584.593,345.72 581.189,347.099C583.533,344.346 585.095,340.813 587.401,338.021Z"/>
        <path d="M591.224,347.577C589.089,350.857 588.725,355.908 585.968,358.564C586.633,355.723 588.63,350.085 591.224,347.577Z"/>
        <path d="M581.668,351.877C582.913,351.771 579.849,354.981 579.278,356.177C578.485,355.041 581.215,353.354 581.668,351.877Z"/>
        <path d="M587.401,357.133C588.425,356.204 586.898,359.821 586.445,360.477C585.246,359.705 587.294,358.179 587.401,357.133Z"/>
        <path d="M593.611,351.398C592.946,350.855 594.493,348.484 595.045,347.577C592.887,349.363 591.117,355.939 588.834,360C587.233,362.842 587.986,362.454 589.79,357.609C591.531,352.933 592.754,347.616 596.001,342.322C596.911,346.696 595.589,346.783 593.611,351.398Z" style="fill:white;"/>
        <path d="M576.412,353.31C576.898,353.621 576.906,354.41 577.846,354.265C577.846,354.584 577.846,354.903 577.846,355.222C577.461,355.473 577.07,355.719 576.412,355.701C576.665,355.316 576.91,354.925 576.89,354.265C575.38,354.03 576.713,356.636 574.979,356.177C575.17,354.936 576.404,354.736 576.412,353.31Z" style="fill:white;"/>
        <path d="M581.189,342.799C581.099,345.423 577.327,348.488 575.456,350.922C575.439,350.032 579.52,345.168 581.189,342.799Z" style="fill:white;"/>
        <path d="M584.056,330.377C585.178,325.606 588.758,323.293 591.702,320.344C591.145,323.296 586.67,326.457 584.535,329.422C585.359,330.058 587.056,327.504 587.88,326.556C588.088,327.422 586.393,330.469 584.056,330.377Z" style="fill:white;"/>
        <path d="M606.034,348.533C606.395,349.828 604.526,357.895 604.123,355.7C604.193,352.743 605.84,351.365 606.034,348.533Z"/>
        <path d="M564.467,305.055C566.507,305.405 566.551,307.75 569.723,306.967C567.945,308.842 565.691,306.465 564.467,305.055Z"/>
        <path d="M595.523,326.077C594.006,330.294 590.678,332.699 588.834,336.589C589.495,333.422 592.381,328.354 595.523,326.077Z" style="fill:white;"/>
        <path d="M578.323,330.855C577.662,332.264 576.116,332.789 575.456,334.198C574.791,333.348 576.752,331.055 578.323,330.855Z"/>
        <path d="M595.045,336.589C593.729,337.183 593.664,339.029 592.656,339.932C592,338.62 594.618,336.494 595.045,334.677C596.722,334.809 593.846,336.457 595.524,336.589C595.433,337.129 595.043,336.854 595.045,336.589Z" style="fill:white;"/>
        <path d="M594.566,338.021C595.224,338.034 591.848,341.881 591.701,344.231C590.675,342.077 593.408,339.58 594.566,338.021Z" style="fill:white;"/>
        <path d="M579.756,336.589C579.752,338.187 577.786,341.936 575.456,342.799C575.537,343.994 574.723,344.294 574.022,344.71C574.084,345.892 573.437,345.523 573.544,344.71C576.045,342.431 577.908,339.518 579.756,336.589Z"/>
        <path d="M587.401,338.021C586.861,340.671 584.593,345.72 581.189,347.099C583.533,344.346 585.095,340.813 587.401,338.021Z" style="fill:white;"/>
        <path d="M591.224,347.577C589.089,350.857 588.725,355.908 585.968,358.564C586.633,355.723 588.63,350.085 591.224,347.577Z" style="fill:white;"/>
        <path d="M581.668,351.877C582.913,351.771 579.849,354.981 579.278,356.177C578.485,355.041 581.215,353.354 581.668,351.877Z" style="fill:white;"/>
        <path d="M587.401,357.133C588.425,356.204 586.898,359.821 586.445,360.477C585.246,359.705 587.294,358.179 587.401,357.133Z" style="fill:white;"/>
        <path d="M587.95,308.644C582.078,312.446 578.023,318.107 572.066,321.823C575.445,317.225 582.952,314.514 584.086,309.083C583.887,309.401 580.539,309.224 580.223,308.205C582.239,307.753 583.767,309.515 584.086,307.326C583.491,306.831 582.85,306.382 582.181,305.963C583.557,305.972 584.955,305.724 586.394,305.091C586.891,304.871 587.237,304.466 587.462,303.988C588.07,303.833 588.686,303.71 589.218,303.649C591.1,303.436 592.991,303.333 594.883,303.27C598.075,303.165 601.372,303.377 604.545,302.965C604.644,302.951 604.741,302.936 604.836,302.916C607.173,306.616 609.959,310.01 612.841,313.332C612.551,313.667 612.266,314.006 611.991,314.354C612.006,320.52 609.651,324.26 609.414,330.168C608.652,331.34 609.101,327.595 608.985,326.655C608.253,330.461 603.171,337.941 602.55,345.682C602.549,345.702 602.548,345.721 602.547,345.742C599.824,347.3 597.799,349.588 595.794,352.357C595.523,352.731 595.271,353.123 595.032,353.525C594.24,349.014 594.953,344.845 595.507,341.686C595.58,341.366 595.64,341.041 595.677,340.712C595.624,341.022 595.565,341.351 595.507,341.686C594.509,346.04 590.474,349.605 591.384,353.012C591.275,352.605 591.941,352.697 591.813,353.012C591.592,353.558 590.517,353.021 590.525,353.012C589.626,354.117 589.986,358.14 587.95,358.284C589.135,354.221 592.357,349.911 592.672,346.422C590.701,349.97 589.656,354.466 587.091,357.405C585.806,355.33 584.375,356.107 582.8,354.329C584.091,347.45 590.086,343.044 590.526,336.757C589.439,339.451 588.463,342.261 586.664,344.227C588.95,339.332 591.319,334.903 592.243,330.167C589.661,334.592 589.945,335.762 585.805,341.59C586.543,341.764 586.906,340.939 587.092,341.59C583.514,343.767 584.232,346.45 582.37,349.059C581.811,347.967 583.63,347.236 582.37,346.861C582.204,348.064 580.389,348.735 581.512,349.937C584.448,350.307 584.015,347.227 585.805,346.422C584.799,348.029 584.185,350.036 582.37,350.815C580.768,350.61 579.851,349.707 579.794,349.059C579.064,349.922 578.792,351.253 577.648,351.695C577.82,350.553 578.929,350.369 578.935,349.059C575.843,349.728 576.943,348.104 576.36,346.861C576.382,347.619 576.03,347.988 575.501,348.18C573.806,345.381 578.433,342.339 578.507,340.272C576.475,341.707 575.669,344.397 572.497,344.666C575.748,340.546 581.123,336.456 583.379,332.437C583.514,332.309 583.617,332.15 583.658,331.926C583.574,332.096 583.474,332.265 583.379,332.437C583.218,332.591 583.009,332.697 582.801,332.804C586.539,328.284 591.389,322.56 593.103,317.429C592.183,318.081 591.922,321.124 590.957,319.186C589.148,322.168 587.211,325.018 584.518,327.094C584.893,326.319 585.956,325.734 584.518,325.336C582.764,327.349 580.89,329.237 579.367,331.485C583.069,323.852 587.966,317.44 592.675,310.839C588.436,312.944 585.845,319.076 581.084,319.186C584.528,318.464 585.733,315.449 588.382,313.914C587.286,313.576 586.408,315.634 585.807,314.354C587.684,313.199 589.019,311.49 590.529,309.96C589.534,309.82 588.882,310.031 588.383,310.399C589.24,309.506 588.491,309.23 587.95,308.644Z"/>
        <path d="M590.225,362.156C590.225,362.156 590.004,360.44 586.602,358.613C583.201,356.786 580.764,357.835 580.764,357.835L584.743,348.75L578.435,358.213C578.435,358.213 579.04,356.457 574.318,350.184C569.597,343.908 568.034,345.842 568.034,345.842L576.007,336.563L567.526,343.876C567.526,343.876 570.677,340.538 569.005,334.514C567.332,328.49 564.132,327.981 564.132,327.981L572.609,320.537L563.629,326.147C563.629,326.147 565.036,323.823 564.675,319.195C564.312,314.567 561.461,312.715 561.461,312.715L571.177,310.917L560.833,311.153C560.833,311.153 560.259,308.833 558.418,306.889C556.975,305.366 554.122,304.297 554.374,303.236C554.948,300.819 572.275,296.53 572.275,296.53C572.275,296.53 579.111,298.911 585.421,300.009C589.889,300.784 593.987,300.205 595.679,300.839C599.756,302.366 601.185,303.36 601.185,303.36C601.185,303.36 594.833,306.189 598.873,312.63C602.912,319.071 612.713,315.234 612.713,315.234C612.713,315.234 608.63,322.158 612.641,332.757C616.653,343.357 611.299,355.428 611.299,355.428L599.261,357.739L597.582,351.581L590.225,362.156Z" style="fill:rgb(153,153,153);fill-opacity:0.7;"/>
    </g>
</svg>
