<?xml version="1.0" encoding="UTF-8" standalone="no"?>
<!DOCTYPE svg PUBLIC "-//W3C//DTD SVG 1.1//EN" "http://www.w3.org/Graphics/SVG/1.1/DTD/svg11.dtd">
<svg width="100%" height="100%" viewBox="0 0 101 198" version="1.1" xmlns="http://www.w3.org/2000/svg" xmlns:xlink="http://www.w3.org/1999/xlink" xml:space="preserve" xmlns:serif="http://www.serif.com/" style="fill-rule:evenodd;clip-rule:evenodd;stroke-linejoin:round;stroke-miterlimit:1.41421;">
    <g transform="matrix(1,0,0,1,-542.178,-199.413)">
        <path d="M607.397,385.314C605.793,385.417 604.188,385.519 602.584,385.624C599.098,386.254 594.127,387.518 590.162,386.712C588.85,386.445 586.814,385.9 586.904,384.383C587.109,383.838 587.317,383.297 587.524,382.751C590.137,382.365 592.751,381.976 595.365,381.588C595.85,380.678 596.602,380.245 597.46,379.726C596.65,375.064 597.839,371.409 599.323,367.695C599.738,366.661 600.15,365.624 600.566,364.59C599.452,362.726 598.338,360.862 597.227,359C596.813,357.63 596.4,356.259 595.986,354.888C592.441,345.755 589.804,335.032 587.524,324.77C587.189,322.313 586.85,319.853 586.515,317.395C586.334,315.636 586.153,313.874 585.972,312.116C585.997,310.928 586.024,309.736 586.05,308.546C585.79,307.794 585.531,307.045 585.274,306.297C585.196,304.148 585.119,302.001 585.041,299.853C585.041,296.826 585.041,293.797 585.041,290.771C584.794,290.403 584.242,290.064 584.109,289.528C584.162,288.754 584.214,287.976 584.264,287.202C584.004,286.658 583.746,286.116 583.489,285.572C583.54,284.819 583.592,284.069 583.643,283.321C583.263,281.642 583.238,279.047 583.255,276.799C582.158,277.708 581.513,278.923 579.763,279.204C579.763,279.151 579.763,279.102 579.763,279.049C579.284,278.262 579.557,275.25 579.53,274.005C579.445,270.312 582.415,267.455 583.643,264.535C583.136,262.137 574.279,262.292 571.69,261.273C571.135,260.916 571.099,259.964 571.145,259.023C570.887,258.868 570.629,258.711 570.371,258.558C570.327,256.815 570.702,255.562 571.223,254.209C571.025,253.968 570.992,253.817 570.682,253.666C570.586,253.56 566.002,252.036 565.479,251.804C563.791,251.059 563.589,249.546 562.375,248.778C561.6,248.284 560.393,247.871 559.659,247.535C559.658,246.843 559.763,246.469 559.891,245.983C559.634,245.88 559.374,245.777 559.115,245.672C558.812,244.616 558.881,244.089 559.348,243.187C559.043,242.961 558.881,242.876 558.726,242.49C558.366,242.026 558.858,241.413 559.115,241.092C558.588,240.98 558.367,240.848 558.184,240.394C558.158,240.215 558.133,240.032 558.107,239.85C558.34,239.645 558.573,239.438 558.804,239.229C554.747,229.524 550.272,219.898 546.075,210.354C545.042,208.05 544.006,205.749 542.97,203.447C542.661,202.802 541.917,201.51 542.271,201.041C548.015,213.642 553.761,226.243 559.505,238.843C559.984,239.265 562.051,238.21 563.151,238.456C565.094,238.888 566.87,239.866 568.586,240.63C569.771,239.954 570.482,238.187 571.535,237.29C571.501,235.508 570.033,234.172 569.285,232.942C568.106,231.017 566.314,226.634 566.412,223.938C566.516,223.886 566.618,223.836 566.723,223.783C567.011,223.62 567.095,223.747 567.421,223.938C567.03,222.642 566.152,222.049 566.179,220.368C566.205,220.316 566.23,220.264 566.257,220.212C566.559,220 566.618,219.903 567.19,219.903C567.447,220.136 567.708,220.368 567.966,220.599C567.699,219.867 566.881,219.044 567.344,218.116C567.397,218.038 567.447,217.962 567.498,217.885C568.525,217.948 568.786,218.708 569.285,218.116C571.727,218.678 572.529,222.548 573.708,224.482C574.305,225.46 575.301,226.028 575.571,227.353C576.063,227.378 576.554,227.407 577.047,227.429C577.561,225.063 577.795,223.448 580.073,222.774C580.255,222.929 580.438,223.086 580.618,223.241C579.425,226.223 578.861,230.056 577.744,233.099C578.365,233.823 578.988,234.544 579.608,235.271C580.177,236.308 580.747,237.343 581.317,238.375C582.169,239.284 583.022,240.19 583.876,241.093C584.163,241.689 584.446,242.284 584.731,242.878C585.146,243.061 585.558,243.24 585.973,243.423C586.206,244.095 586.437,244.769 586.67,245.442C587.964,245.668 589.483,246.275 590.162,247.149C590.475,247.122 590.784,247.096 591.097,247.071C591.778,245.021 593.232,243.823 594.358,242.258C594.951,241.25 595.546,240.242 596.142,239.231C597.215,237.876 599.009,237.49 599.791,235.74C600.547,234.91 598.903,234.033 598.625,233.488C598.546,233.101 598.469,232.712 598.392,232.324C598.392,232.299 598.392,232.272 598.392,232.246C600.84,231.984 601.79,230.944 603.285,229.84C602.701,226.858 600.636,224.569 599.014,222.544C598.169,221.486 596.581,221.023 596.297,219.439C596.59,218.841 597.176,218.228 597.385,217.732C597.638,217.12 597.42,216.228 597.538,215.869C597.817,215.758 597.745,215.776 598.083,215.869C598.107,215.869 598.135,215.869 598.16,215.869C598.02,214.309 598.984,214.224 599.014,212.687C597.068,209.915 600.638,209.857 602.43,208.416C603.063,207.909 603.1,206.624 603.749,206.088C605.328,204.925 606.904,203.76 608.483,202.597C608.638,201.845 608.793,201.096 608.951,200.345C609.26,200.034 609.57,199.722 609.882,199.413C611.909,199.418 612.707,199.89 613.918,200.345C614.541,200.577 615.612,200.38 616.247,200.577C616.298,200.913 616.351,201.25 616.401,201.587C621.197,201.539 627.569,208.9 626.026,214.706C624.616,220.019 621.391,223.909 617.567,226.816C617.896,227.195 618.338,227.506 618.886,227.67C619.093,228.678 619.299,229.689 619.506,230.695C619.514,230.998 619.101,231.335 619.195,231.782C619.763,232.738 620.333,233.697 620.901,234.652C623.195,238.491 624.095,240.92 625.016,246.296C625.092,247.309 625.17,248.316 625.25,249.328C624.369,254.166 622.5,257.406 620.9,261.278C620.228,263.35 619.556,265.419 618.884,267.49C618.418,268.679 617.952,269.869 617.488,271.06C617.488,271.863 617.488,272.665 617.488,273.466C617.305,274.784 617.126,276.107 616.943,277.426C616.504,278.227 616.065,279.03 615.625,279.831C615.728,280.916 615.831,282.003 615.934,283.091C615.909,284.177 615.882,285.266 615.857,286.352C616.318,288.589 617.408,290.315 617.954,292.171C618.211,293.855 618.47,295.537 618.727,297.22C618.676,300.166 618.625,303.118 618.574,306.068C618.522,310.311 618.47,314.555 618.42,318.797C617.637,323.086 616.928,328.868 617.566,333.703C616.839,333.727 616.117,333.755 615.392,333.78C615.884,335.928 617.091,338.167 617.254,340.764C618.03,341.285 618.805,341.801 619.582,342.321C622.614,346.001 625.014,352.231 626.88,356.988C627.422,358.722 627.965,360.455 628.509,362.189C629.878,365.438 632.203,369.73 634.33,372.358C635.338,373.469 636.35,374.584 637.357,375.696C637.719,376.396 638.083,377.094 638.446,377.793C638.806,377.871 639.171,377.947 639.53,378.026C640.823,378.653 642.362,380.498 642.093,381.983C642.658,382.058 642.775,382.185 643.102,382.45C642.911,384.94 638.702,388.216 636.892,389.357C636.71,389.149 636.53,388.944 636.349,388.739C636.296,388.739 636.244,388.739 636.192,388.739C632.539,392.082 629.863,397.777 622.455,396.576C621.548,396.5 620.642,396.422 619.736,396.345C618.754,395.801 617.77,395.259 616.787,394.714C616.684,394.275 616.582,393.835 616.476,393.396C616.83,392.943 617.141,392.642 617.253,391.92C618.107,391.894 618.961,391.869 619.813,391.841C620.823,391.61 621.832,391.375 622.842,391.145C623.905,389.064 624.897,386.757 625.792,384.467C624.497,384.777 623.203,385.088 621.911,385.4C620.021,381.546 618.132,377.687 616.244,373.834C616.193,373.807 616.141,373.781 616.089,373.757C616.193,375.853 616.295,377.948 616.399,380.045C616.245,380.251 616.089,380.46 615.933,380.665C616.036,381.156 616.142,381.648 616.245,382.14C616.09,382.452 615.933,382.76 615.778,383.072C615.684,383.92 616.194,384.124 615.856,385.401C615.262,385.633 614.666,385.867 614.07,386.098C611.872,386.625 609.811,386.413 607.395,386.332C607.397,385.985 607.397,385.648 607.397,385.314ZM604.991,229.446C604.09,229.976 603.217,231.164 602.508,231.931C604.784,231.353 606.765,229.742 608.951,228.826C609.97,228.397 611.432,228.337 612.133,227.584C609.816,228.277 606.961,228.287 604.991,229.446ZM606.466,232.24C605.484,232.758 604.5,233.275 603.517,233.794C603.864,234.315 604.328,234.69 604.371,235.501C603.487,236.397 602.424,235.674 601.187,235.501C600.591,236.019 599.997,236.537 599.401,237.054C598.967,237.992 599.509,238.157 598.704,239.226C595.558,243.401 593.183,248.039 590.941,253.201C591.562,253.381 592.182,253.561 592.804,253.743C593.968,251.544 595.132,249.347 596.296,247.145C598.609,243.322 601.519,239.78 604.37,236.434C605.875,234.666 609.135,232.443 611.2,231.233C612.597,230.482 613.993,229.73 615.392,228.981C612.376,229.446 608.787,230.884 606.466,232.24ZM601.342,231.619C601.29,231.695 601.239,231.774 601.188,231.851C601.368,232.007 601.55,232.164 601.731,232.318C602.336,231.884 602.658,231.523 602.818,230.609C602.325,230.948 601.834,231.284 601.342,231.619ZM598.782,232.475C598.756,232.527 598.729,232.576 598.704,232.627C599.047,232.841 599.683,232.958 600.179,233.019C600.201,232.375 600.352,232.333 600.645,232.008C599.845,232.05 599.371,232.283 598.782,232.475ZM573.942,246.679C573.504,245.83 572.414,245.601 571.923,244.739C571.705,245.878 572.943,246.42 573.942,246.679ZM573.087,249.239C572.152,251.881 571.6,255.144 570.683,258.011C571.123,258.216 571.562,258.423 572.001,258.632C572.518,256.38 573.035,254.131 573.555,251.88C573.786,250.302 574.02,248.724 574.252,247.144C574.124,247.091 573.994,247.04 573.863,246.989C573.605,247.74 573.348,248.491 573.087,249.239ZM583.49,275.166C584.319,274.537 587.425,267.092 587.602,265.619C587.215,265.358 586.828,265.1 586.437,264.845C584.741,266.528 583.723,272.01 583.49,275.166Z" style="fill:rgb(4,4,4);"/>
    </g>
</svg>
