<?xml version="1.0" encoding="UTF-8" standalone="no"?>
<!DOCTYPE svg PUBLIC "-//W3C//DTD SVG 1.1//EN" "http://www.w3.org/Graphics/SVG/1.1/DTD/svg11.dtd">
<svg width="100%" height="100%" viewBox="0 0 25 42" version="1.1" xmlns="http://www.w3.org/2000/svg" xmlns:xlink="http://www.w3.org/1999/xlink" xml:space="preserve" xmlns:serif="http://www.serif.com/" style="fill-rule:evenodd;clip-rule:evenodd;stroke-linejoin:round;stroke-miterlimit:1.41421;">
    <g transform="matrix(1,0,0,1,-465.672,-198.554)">
        <path d="M489.243,238.68C489.129,238.725 488.9,238.657 488.81,238.726C488.782,239.308 488.78,239.893 488.779,240.442C487.354,240.512 485.939,240.419 484.527,240.473C483.114,240.526 481.581,240.473 479.955,240.456C479.569,240.548 479.103,240.444 478.771,240.473C478.735,240.476 478.667,240.443 478.66,240.519C477.837,240.437 477.009,240.488 476.054,240.488C474.431,240.488 472.776,240.493 471.227,240.457C471.212,240.343 471.28,240.221 471.244,240.096C471.215,239.992 471.057,239.946 471.083,239.828C470.939,239.784 470.895,239.637 470.749,239.592C470.699,239.324 470.621,239.102 470.541,238.821C470.519,238.745 470.469,238.604 470.478,238.554C470.497,238.433 470.752,238.305 470.844,238.239C470.999,238.128 471.109,238.041 471.213,237.926C471.22,237.606 471.214,237.326 471.213,236.982C471.213,236.787 471.292,236.501 471.196,236.336C471.169,236.289 471.011,236.178 470.94,236.148C470.8,236.087 470.586,236.073 470.413,236.038C469.913,235.934 469.316,235.812 468.863,235.707C468.779,235.406 468.707,235.094 468.639,234.779C468.158,234.622 467.61,234.533 467.072,234.432C466.866,233.975 466.702,233.476 466.497,233.017C466.545,232.916 466.643,232.961 466.704,232.892C466.73,232.863 466.749,232.764 466.784,232.703C466.819,232.642 466.894,232.601 466.928,232.545C466.953,232.506 466.957,232.419 466.992,232.357C467.034,232.282 467.078,232.259 467.088,232.215C467.177,231.842 466.939,231.457 467.185,231.177C466.928,230.901 467.461,230.622 467.152,230.391C467.152,230.285 467.274,230.3 467.297,230.217C467.264,229.999 467.287,229.684 467.297,229.368C467.332,228.228 467.215,226.748 467.249,225.704C467.252,225.61 467.277,225.531 467.267,225.451C467.241,225.303 467.036,225.203 467.217,225.058C467.192,224.979 467.114,224.973 467.153,224.87C467.127,224.79 466.98,224.708 466.977,224.617C466.975,224.458 467.267,224.354 467.281,224.161C467.321,223.628 467.237,222.937 467.233,222.259C467.231,221.603 467.261,220.952 467.217,220.434C467.029,220.398 466.77,220.434 466.61,220.372C466.545,220.255 466.706,220.267 466.706,220.166C466.651,220.101 466.496,220.132 466.467,220.04C466.466,219.919 466.59,219.923 466.675,219.852C466.745,219.792 466.784,219.653 466.882,219.616C467.01,219.566 467.258,219.61 467.443,219.616C467.629,219.623 467.81,219.638 467.954,219.616C468.018,218.718 467.997,217.878 468.002,216.894C467.47,216.678 466.964,216.44 466.42,216.234C466.324,217.825 466.41,219.58 466.356,221.252C466.349,221.48 466.303,221.706 466.325,221.912C466.342,222.084 466.417,222.308 466.421,222.542C466.426,222.757 466.461,223.062 466.389,223.202C466.361,223.257 466.295,223.254 466.213,223.313C466.149,223.358 466.124,223.428 466.053,223.436C465.934,223.454 465.795,223.372 465.685,223.342C465.623,222.945 465.804,222.503 465.846,222.164C465.945,221.359 465.674,220.464 465.75,219.426C465.77,219.154 465.81,218.884 465.798,218.577C465.77,217.873 465.862,217.078 465.814,216.359C465.796,216.106 465.673,215.671 465.862,215.603C465.911,215.586 466.181,215.689 466.26,215.746C466.307,215.777 466.323,215.849 466.374,215.887C466.503,215.991 466.676,216.012 466.772,216.075C466.854,216.059 466.749,215.957 466.82,215.934C467.345,215.885 467.937,215.769 468.419,215.934C468.507,214.767 468.412,212.977 468.498,211.734C468.514,211.516 468.466,211.281 468.466,211.042C468.466,210.507 468.466,209.987 468.466,209.453C468.466,209.16 468.443,208.846 468.483,208.573C468.489,208.532 468.471,208.494 468.531,208.463C468.524,208.433 468.459,208.462 468.483,208.4C468.535,206.989 468.847,205.843 469.394,204.862C469.94,203.881 470.697,203.11 471.457,202.361C471.837,201.987 472.241,201.612 472.672,201.292C473.956,200.332 475.349,199.357 476.78,198.554C477.759,199.135 478.627,199.781 479.497,200.458C479.67,200.591 479.879,200.698 480.041,200.835C480.369,201.115 480.678,201.427 481.016,201.7C481.342,201.962 481.698,202.237 482.007,202.564C482.867,203.474 483.933,204.421 484.469,205.617C485.078,206.974 484.945,209.077 484.948,210.744C484.951,211.87 484.969,213.162 484.932,214.457C484.91,215.225 484.878,216.021 484.884,216.784C484.89,217.53 484.939,218.334 484.9,219.018C484.83,220.228 484.914,221.587 484.851,222.667C484.45,222.506 484.131,222.264 483.765,222.069C483.765,221.995 483.765,221.923 483.765,221.847C483.7,221.864 483.749,221.99 483.701,222.021C483.597,221.971 483.459,221.955 483.397,221.864C483.357,221.246 483.431,220.671 483.414,220.086C483.342,220.037 483.205,220.051 483.094,220.039C483.025,220.102 483.085,220.227 483.094,220.308C482.903,220.338 482.683,220.342 482.454,220.338C482.382,220.729 482.464,221.135 482.423,221.503C482.889,221.731 483.364,221.915 483.814,222.149C484.032,222.259 484.252,222.392 484.469,222.509C485.127,222.865 485.69,223.297 486.243,223.783C486.603,224.099 486.977,224.4 487.313,224.743C487.967,225.412 488.59,226.183 489.087,227.023C489.633,227.946 489.979,228.961 489.983,230.357C489.986,230.961 489.893,231.493 489.823,232.009C489.795,232.219 489.718,232.419 489.695,232.638C489.65,233.107 489.729,233.648 489.727,234.18C489.723,235.935 489.768,238.447 489.759,240.188C489.759,240.287 489.784,240.389 489.774,240.487C489.669,240.524 489.51,240.489 489.424,240.456C489.432,238.009 489.371,236.269 489.424,233.804C489.291,233.982 489.279,234.213 489.215,234.416C489.086,234.822 488.953,235.229 488.816,235.643C488.749,235.847 488.641,236.038 488.608,236.242C488.516,236.812 488.641,237.338 488.593,237.989C488.653,238.068 488.763,238.148 488.88,238.083C488.748,238.171 489.114,238.269 489.103,238.288C489.147,238.35 489.242,238.36 489.28,238.429C489.271,238.519 489.289,238.631 489.243,238.68ZM477.317,206.669C477.642,205.856 478.077,205.207 478.564,204.547C478.96,204.011 479.441,203.513 479.955,203.052C480.086,202.936 480.358,202.608 480.483,202.612C480.534,202.615 480.708,202.774 480.802,202.864C481.561,203.595 482.37,204.385 482.959,205.144C482.602,204.554 482.063,204.106 481.616,203.586C481.178,203.078 480.63,202.611 480.098,202.203C479.827,201.995 479.584,201.749 479.314,201.542C479.036,201.329 478.748,201.138 478.467,200.929C477.913,200.511 477.373,200.07 476.74,199.748C475.381,200.589 473.995,201.431 472.808,202.454C472.657,202.584 472.51,202.709 472.36,202.832C472.055,203.082 471.79,203.371 471.528,203.649C470.854,204.369 470.247,205.156 469.915,206.181C470.598,204.557 471.698,203.342 473.032,202.36C474.061,203.164 474.888,204.172 475.654,205.238C475.296,204.68 474.911,204.142 474.469,203.665C474.252,203.43 474.033,203.178 473.798,202.957C473.559,202.732 473.279,202.546 473.079,202.282C474.038,201.473 475.178,200.798 476.26,200.094C476.391,200.009 476.659,199.822 476.772,199.826C476.876,199.831 477.153,200.049 477.268,200.125C478.095,200.686 478.838,201.217 479.553,201.824C479.841,202.069 480.181,202.259 480.401,202.579C479.675,203.206 478.974,203.881 478.403,204.655C477.829,205.434 477.329,206.321 477.06,207.392C477.146,207.144 477.23,206.888 477.317,206.669ZM475,201.919C475.103,201.925 475.177,201.821 475.287,201.777C475.402,201.731 475.526,201.718 475.656,201.683C475.715,201.55 475.688,201.401 475.735,201.274C475.777,201.16 475.891,201.091 475.88,200.99C475.464,201.18 475.17,201.489 475,201.919ZM477.669,201.069C477.762,201.265 477.863,201.452 477.845,201.714C477.95,201.797 478.095,201.781 478.213,201.841C478.325,201.898 478.389,202.031 478.501,202.029C478.363,201.582 478.063,201.211 477.669,201.069ZM477.286,201.982C477.675,201.137 476.324,200.82 476.15,201.509C476.085,201.77 476.226,201.948 476.246,202.169C476.049,202.081 475.697,202.002 475.478,202.154C475.298,202.281 475.24,202.539 475.271,202.767C475.314,203.084 475.568,203.278 475.879,203.286C475.98,203.291 476.072,203.22 476.183,203.271C476.081,203.528 476.006,203.861 476.15,204.12C476.493,204.552 477.299,204.412 477.286,203.758C477.281,203.579 477.163,203.424 477.158,203.256C477.287,203.285 477.341,203.339 477.462,203.35C478.38,203.435 478.369,202.167 477.638,202.139C477.454,202.132 477.284,202.233 477.11,202.248C477.134,202.099 477.239,202.082 477.286,201.982ZM474.09,202.062C473.979,202.142 473.766,202.3 473.769,202.392C473.775,202.488 473.998,202.651 474.072,202.723C474.186,202.83 474.311,202.958 474.425,202.989C474.398,202.561 474.43,202.187 474.537,201.857C474.534,201.839 474.52,201.834 474.505,201.826C474.396,201.9 474.238,201.953 474.09,202.062ZM479.045,203.146C479.177,203.108 479.285,202.97 479.397,202.863C479.509,202.755 479.639,202.647 479.716,202.517C479.514,202.326 479.29,202.159 479.045,202.012C479.076,202.339 479.112,202.776 479.045,203.146ZM473.833,204.688C473.844,204.591 473.856,204.469 473.85,204.374C473.82,203.993 473.577,203.751 473.434,203.478C473.264,203.46 473.147,203.172 472.987,203.227C472.654,203.339 472.288,203.84 472.251,204.342C472.229,204.661 472.381,204.931 472.299,205.208C471.583,204.911 470.483,205.074 470.734,206.011C470.81,206.296 471.024,206.493 471.197,206.718C470.95,206.854 470.678,206.939 470.478,207.126C470.215,207.374 470.038,207.721 470.031,208.164C470.576,208.198 471.214,208.172 471.757,208.182C471.927,208.185 472.111,208.171 472.252,208.244C472.209,208.452 471.962,208.386 471.805,208.387C471.242,208.39 470.643,208.392 469.983,208.402C469.952,209.506 469.942,210.822 469.983,212.067C470.994,212.115 471.883,212.07 472.909,212.099C473.076,212.104 473.257,212.145 473.341,212.131C473.285,211.939 473.119,211.634 473.325,211.5C473.277,211.386 473.29,211.267 473.292,211.171C473.141,211.115 472.906,211.141 472.701,211.06C472.635,211.035 472.586,210.971 472.525,210.951C472.444,210.924 472.365,210.951 472.3,210.919C472.116,210.831 472.154,210.594 472.268,210.479C472.253,210.375 472.145,210.361 472.125,210.26C472.144,210.116 472.14,209.972 472.125,209.772C471.996,209.72 471.82,209.745 471.772,209.629C471.649,209.335 472.133,209.197 472.173,208.984C472.187,208.904 472.126,208.814 472.124,208.734C472.12,208.561 472.26,208.356 472.315,208.245C472.369,208.141 472.385,208.031 472.427,207.962C472.543,207.774 472.728,207.659 472.906,207.554C473.081,207.45 473.234,207.425 473.433,207.365C473.617,207.311 473.888,207.242 474.153,207.271C474.851,207.345 475.501,207.621 475.718,208.262C475.787,208.177 476.006,208.241 476.117,208.199C476.07,207.683 475.804,207.207 475.415,206.941C475.278,206.848 475.076,206.733 474.903,206.689C474.818,206.668 474.701,206.706 474.631,206.626C474.933,206.406 475.269,206.074 475.238,205.619C475.214,205.24 474.605,205.053 474.231,205.1C474.04,205.123 473.895,205.242 473.736,205.272C473.671,205.094 473.81,204.898 473.833,204.688ZM474.983,203.336C475.008,203.551 475.116,203.752 475.239,203.902C475.357,204.046 475.499,204.21 475.656,204.231C475.586,204.059 475.544,203.799 475.607,203.585C475.376,203.535 475.145,203.403 474.983,203.336ZM480.467,203.366C480.058,203.625 479.642,204.22 479.716,204.845C479.733,204.997 479.813,205.15 479.779,205.318C479.349,205.185 478.646,205.223 478.389,205.506C478.15,205.767 478.413,206.277 478.596,206.482C478.685,206.581 478.825,206.622 478.868,206.748C478.004,206.873 477.527,207.381 477.348,208.182C479.426,208.222 481.556,208.171 483.408,208.182C483.322,207.59 483.021,207.049 482.466,206.861C482.333,206.815 482.123,206.861 482.017,206.734C482.297,206.585 482.647,206.376 482.753,206.058C482.934,205.511 482.448,205.147 481.905,205.162C481.634,205.168 481.384,205.271 481.17,205.303C481.325,204.493 480.984,203.713 480.467,203.366ZM477.701,203.775C477.74,204.003 477.681,204.16 477.653,204.357C478.025,204.162 478.266,203.838 478.422,203.429C478.219,203.583 477.967,203.684 477.701,203.775ZM471.803,204.075C471.784,204.074 471.781,204.054 471.755,204.057C471.602,204.268 471.329,204.446 471.26,204.687C471.432,204.658 471.667,204.691 471.835,204.656C471.813,204.475 471.793,204.289 471.803,204.075ZM474.232,204.688C474.419,204.705 474.672,204.735 474.824,204.735C474.676,204.483 474.521,204.236 474.297,204.058C474.269,204.261 474.259,204.483 474.232,204.688ZM479.269,204.263C479.248,204.263 479.246,204.243 479.219,204.246C479.067,204.441 478.893,204.617 478.788,204.861C478.911,204.865 479.142,204.844 479.284,204.812C479.287,204.602 479.263,204.493 479.269,204.263ZM481.601,204.829C481.743,204.783 481.934,204.789 482.082,204.751C481.93,204.569 481.811,204.356 481.586,204.246C481.628,204.436 481.567,204.658 481.601,204.829ZM472.058,204.688C472.067,204.733 472.093,204.76 472.14,204.766C472.14,204.735 472.182,204.746 472.172,204.703C472.136,204.691 472.08,204.666 472.058,204.688ZM476.455,205.033C476.353,204.981 476.224,204.958 476.071,204.955C476.198,205.307 476.481,205.645 476.631,206.041C476.684,206.183 476.68,206.356 476.822,206.449C477.004,205.878 477.293,205.414 477.557,204.924C477.25,204.957 476.838,205.073 476.455,205.033ZM483.217,205.49C483.15,205.414 483.121,205.3 483.041,205.238C483.088,205.323 483.149,205.477 483.217,205.49ZM476.423,206.952C476.281,206.333 476.028,205.82 475.719,205.363C475.986,205.862 476.217,206.395 476.423,206.952ZM483.775,206.891C483.715,206.38 483.504,205.916 483.247,205.553C483.472,205.95 483.618,206.427 483.775,206.891ZM475.416,206.465C475.585,206.547 475.768,206.694 475.91,206.747C475.847,206.478 475.799,206.198 475.639,206.025C475.6,206.205 475.487,206.315 475.416,206.465ZM477.941,206.071C477.827,206.316 477.651,206.583 477.637,206.875C477.822,206.769 477.995,206.651 478.196,206.56C478.131,206.393 478.044,206.249 477.989,206.072C477.974,206.071 477.957,206.071 477.941,206.071ZM470.236,206.797C470.328,206.699 470.546,206.691 470.572,206.56C470.594,206.448 470.451,206.294 470.381,206.198C470.316,206.372 470.214,206.59 470.236,206.797ZM469.756,206.905C469.76,206.698 469.919,206.478 469.868,206.324C469.854,206.521 469.697,206.74 469.756,206.905ZM482.912,206.654C483.052,206.758 483.191,206.861 483.328,206.968C483.314,206.693 483.268,206.449 483.103,206.323C483.056,206.448 482.95,206.519 482.912,206.654ZM483.808,207.046C483.806,206.992 483.82,206.92 483.76,206.921C483.769,206.97 483.755,207.042 483.808,207.046ZM476.503,207.361C476.478,207.229 476.49,207.059 476.406,206.983C476.427,207.122 476.439,207.267 476.503,207.361ZM469.678,207.237C469.683,207.201 469.75,207.09 469.678,207.078C469.696,207.141 469.628,207.197 469.678,207.237ZM483.791,207.158C483.841,207.181 483.841,207.054 483.791,207.078C483.791,207.105 483.791,207.132 483.791,207.158ZM483.855,207.394C483.852,207.329 483.868,207.245 483.807,207.238C483.824,207.288 483.8,207.381 483.855,207.394ZM476.966,208.95C476.976,208.427 477.03,207.879 477.078,207.44C477.074,207.428 477.063,207.421 477.046,207.423C476.997,207.93 476.901,208.465 476.966,208.95ZM469.565,208.022C469.619,207.921 469.645,207.632 469.596,207.536C469.595,207.706 469.561,207.845 469.565,208.022ZM476.598,208.636C476.596,208.373 476.575,208.045 476.568,207.787C476.547,207.786 476.545,207.766 476.519,207.77C476.567,208.028 476.497,208.384 476.598,208.636ZM483.92,208.306C483.903,208.253 483.955,208.134 483.888,208.133C483.903,208.185 483.853,208.304 483.92,208.306ZM469.548,208.259C469.526,208.63 469.517,209.043 469.517,209.47C469.517,209.859 469.482,210.266 469.566,210.618C469.545,209.801 469.559,209.081 469.581,208.226C469.579,208.214 469.569,208.208 469.549,208.211C469.548,208.227 469.548,208.242 469.548,208.259ZM481.154,208.385C479.938,208.39 478.654,208.4 477.334,208.416C477.205,209.232 477.304,210.003 477.271,210.837C477.253,211.243 477.172,211.651 477.239,212.065C478.862,212.082 480.227,212.085 481.618,212.082C482.21,212.081 482.847,212.073 483.505,212.05C483.535,211.653 483.498,211.239 483.505,210.777C483.519,209.915 483.589,209.058 483.473,208.371C482.674,208.408 481.953,208.381 481.154,208.385ZM483.92,208.525C483.903,208.477 483.953,208.366 483.888,208.369C483.902,208.416 483.853,208.528 483.92,208.525ZM475.527,210.492C475.711,210.825 476.139,211.067 476.04,211.577C476.217,211.869 476.378,212.177 476.581,212.441C476.586,212.366 476.554,212.324 476.567,212.237C476.517,212.258 476.505,212.249 476.47,212.222C476.398,212.045 476.249,211.947 476.183,211.765C476.128,210.529 476.243,209.466 476.118,208.415C476.023,208.411 475.885,208.405 475.8,208.415C475.838,208.692 475.809,208.964 475.767,209.265C475.752,209.374 475.724,209.553 475.689,209.625C475.59,209.821 475.348,209.884 475.32,210.097C475.299,210.253 475.381,210.334 475.4,210.459C475.432,210.481 475.49,210.476 475.527,210.492ZM476.598,208.872C476.581,208.811 476.637,208.678 476.568,208.668C476.584,208.729 476.529,208.861 476.598,208.872ZM476.614,209.392C476.567,209.28 476.643,209.048 476.567,208.967C476.587,209.104 476.519,209.327 476.614,209.392ZM476.614,209.596C476.614,209.554 476.614,209.511 476.614,209.47C476.537,209.459 476.562,209.596 476.614,209.596ZM483.92,209.674C483.898,209.603 483.948,209.553 483.888,209.532C483.902,209.575 483.854,209.68 483.92,209.674ZM476.95,210.271C476.928,210.029 477.016,209.748 476.934,209.547C476.919,209.748 476.887,210.098 476.95,210.271ZM476.598,209.815C476.614,209.785 476.645,209.629 476.581,209.626C476.592,209.686 476.562,209.782 476.598,209.815ZM476.581,210.304C476.637,210.228 476.637,209.939 476.581,209.864C476.569,210.031 476.579,210.127 476.581,210.304ZM483.888,210.208C483.938,210.229 483.938,210.078 483.888,210.098C483.888,210.137 483.888,210.173 483.888,210.208ZM483.888,210.413C483.898,210.413 483.909,210.413 483.92,210.413C483.92,210.372 483.92,210.329 483.92,210.287C483.855,210.278 483.901,210.374 483.888,210.413ZM483.888,210.807C483.94,210.771 483.94,210.528 483.888,210.493C483.88,210.603 483.897,210.741 483.888,210.807ZM476.567,210.664C476.578,210.664 476.587,210.664 476.597,210.664C476.597,210.622 476.597,210.581 476.597,210.538C476.536,210.529 476.579,210.625 476.567,210.664ZM476.598,210.901C476.59,210.842 476.619,210.745 476.581,210.712C476.567,210.742 476.536,210.898 476.598,210.901ZM476.902,211.136C476.953,211.139 476.953,210.946 476.902,210.948C476.899,211.043 476.915,211.058 476.902,211.136ZM469.517,211.625C469.564,211.469 469.584,211.136 469.517,211.012C469.517,211.215 469.517,211.419 469.517,211.625ZM476.567,212.19C476.61,211.846 476.592,211.485 476.597,211.057C476.595,211.045 476.583,211.039 476.567,211.041C476.537,211.451 476.524,211.805 476.567,212.19ZM476.902,211.797C476.955,211.666 476.955,211.317 476.902,211.184C476.902,211.389 476.902,211.593 476.902,211.797ZM469.501,213.607C469.59,213.36 469.548,213.034 469.548,212.725C469.548,212.404 469.555,212.08 469.566,211.796C469.562,211.779 469.547,211.773 469.533,211.765C469.501,212.389 469.505,213.023 469.501,213.607ZM476.919,212.663C476.892,212.377 476.999,212.062 476.887,211.83C476.913,212.107 476.832,212.479 476.919,212.663ZM473.178,212.223C473.144,212.242 473.116,212.266 473.082,212.286C472.173,212.347 471.023,212.304 469.996,212.301C469.901,213.496 470.03,214.822 469.917,215.95C469.789,215.965 469.586,216.02 469.501,215.934C469.48,216.046 469.362,216.14 469.342,216.203C469.456,216.169 469.482,216.054 469.597,216.028C469.767,215.992 469.963,216.033 470.141,215.998C470.348,215.954 470.532,215.806 470.716,215.762C471.048,215.684 471.263,215.89 471.579,215.793C471.667,215.479 471.725,215.164 471.818,214.865C471.918,214.55 471.987,214.22 472.106,213.935C472.225,213.655 472.433,213.465 472.554,213.228C472.6,213.138 472.609,213.013 472.665,212.929C472.699,212.879 472.776,212.851 472.81,212.803C472.847,212.749 472.853,212.665 472.889,212.614C472.977,212.492 473.118,212.422 473.146,212.253C473.165,212.24 473.288,212.201 473.209,212.19C473.191,212.193 473.185,212.207 473.178,212.223ZM483.888,212.332C483.937,212.355 483.937,212.229 483.888,212.253C483.888,212.279 483.888,212.307 483.888,212.332ZM477.238,212.316C477.172,212.607 477.227,212.992 477.174,213.323C477.109,213.335 477.145,213.248 477.078,213.26C477.605,213.913 477.396,215.129 477.685,215.998C479.499,215.951 481.641,216.054 483.456,215.981C483.505,214.703 483.505,213.663 483.504,212.3C481.41,212.237 479.457,212.311 477.286,212.269C477.262,212.278 477.248,212.293 477.238,212.316ZM483.872,212.614C483.92,212.639 483.92,212.512 483.872,212.536C483.872,212.564 483.872,212.589 483.872,212.614ZM483.872,212.757C483.92,212.781 483.92,212.654 483.872,212.679C483.872,212.705 483.872,212.731 483.872,212.757ZM476.789,212.788C476.814,212.842 476.844,212.893 476.902,212.913C476.903,212.862 476.928,212.836 476.919,212.772C476.861,212.781 476.847,212.819 476.789,212.788ZM483.872,212.992C483.922,213.013 483.922,212.862 483.872,212.882C483.872,212.92 483.872,212.957 483.872,212.992ZM483.872,213.229C483.883,213.229 483.893,213.229 483.903,213.229C483.903,213.188 483.903,213.145 483.903,213.103C483.839,213.094 483.885,213.189 483.872,213.229ZM483.903,213.403C483.888,213.357 483.935,213.254 483.872,213.259C483.885,213.303 483.839,213.408 483.903,213.403ZM483.855,214.519C483.928,214.459 483.917,214.309 483.919,214.237C483.924,214.046 483.891,213.871 483.902,213.637C483.899,213.625 483.89,213.619 483.871,213.622C483.872,214.004 483.853,214.146 483.855,214.519ZM469.501,214.063C469.55,214.087 469.55,213.96 469.501,213.985C469.501,214.01 469.501,214.037 469.501,214.063ZM469.501,215.037C469.499,215.11 469.44,215.218 469.532,215.259C469.543,214.848 469.568,214.501 469.516,214.125C469.486,214.393 469.508,214.752 469.501,215.037ZM483.824,216.154C483.92,215.903 483.872,215.541 483.887,215.21C483.893,215.054 483.927,214.905 483.887,214.771C483.882,214.758 483.872,214.752 483.855,214.754C483.861,215.231 483.848,215.759 483.824,216.154ZM469.532,215.714C469.54,215.645 469.511,215.636 469.532,215.588C469.481,215.571 469.481,215.731 469.532,215.714ZM469.277,216.139C469.214,216.117 469.177,216.07 469.1,216.061C469.126,216.11 469.228,216.166 469.277,216.139ZM477.717,216.186C477.825,216.973 478.157,217.624 478.372,218.309C478.516,218.766 478.502,219.247 478.724,219.599C479.878,219.54 481.244,219.622 482.193,219.583C482.388,219.575 482.612,219.548 482.737,219.599C482.87,219.653 482.938,219.856 483.073,219.882C483.2,219.907 483.303,219.833 483.409,219.836C483.398,218.74 483.454,217.196 483.439,216.203C481.422,216.174 479.598,216.234 477.75,216.139C477.729,216.146 477.717,216.159 477.717,216.186ZM483.791,217.9C483.866,217.769 483.848,217.61 483.855,217.46C483.873,217.039 483.884,216.614 483.855,216.218C483.852,216.205 483.841,216.2 483.824,216.203C483.817,216.761 483.816,217.338 483.791,217.9ZM468.302,217.004C468.281,217.779 468.299,218.723 468.285,219.599C469.014,219.662 469.905,219.626 470.62,219.616C470.66,219.499 470.654,219.334 470.683,219.207C470.501,219.134 470.447,218.936 470.38,218.751C470.206,218.76 470.107,218.693 469.947,218.687C469.942,219.037 469.978,219.266 469.931,219.569C469.852,219.577 469.66,219.608 469.564,219.554C469.56,219.484 469.531,219.425 469.564,219.366C469.461,219.364 469.558,219.56 469.484,219.585C469.143,219.589 468.789,219.478 468.46,219.569C468.463,218.698 468.48,217.951 468.46,217.084C468.5,217.049 468.539,217.1 468.588,217.1C468.545,217.018 468.396,216.939 468.302,217.004ZM469.31,217.539C469.323,217.557 469.331,217.58 469.326,217.617C469.371,217.615 469.435,217.63 469.438,217.587C469.208,217.461 468.943,217.286 468.718,217.209C468.892,217.342 469.108,217.433 469.31,217.539ZM469.198,218.121C469.162,218.017 469.105,217.929 469.134,217.821C469.151,217.759 469.258,217.727 469.198,217.68C469.086,217.774 469.032,218.041 469.198,218.121ZM483.824,218.011C483.817,217.963 483.865,217.93 483.807,217.916C483.786,217.936 483.779,218.011 483.824,218.011ZM483.791,218.388C483.855,218.324 483.856,218.151 483.791,218.074C483.805,218.199 483.792,218.254 483.791,218.388ZM483.808,218.546C483.822,218.532 483.852,218.423 483.791,218.436C483.801,218.469 483.771,218.538 483.808,218.546ZM469.532,218.686C469.525,218.932 469.519,219.072 469.516,219.317C469.608,219.182 469.539,218.889 469.579,218.671C469.601,218.634 469.689,218.664 469.691,218.609C469.595,218.618 469.535,218.594 469.452,218.591C469.411,218.56 469.401,218.492 469.373,218.45C469.305,218.589 469.487,218.609 469.532,218.686ZM483.775,218.798C483.827,218.804 483.827,218.617 483.775,218.624C483.787,218.702 483.775,218.707 483.775,218.798ZM483.76,219.426C483.813,219.381 483.813,219.126 483.76,219.08C483.754,219.199 483.769,219.353 483.76,219.426ZM483.791,219.931C483.764,219.847 483.833,219.596 483.775,219.537C483.766,219.633 483.724,219.858 483.791,219.931ZM483.775,220.229C483.774,220.137 483.772,220.048 483.791,219.977C483.733,219.992 483.715,220.198 483.775,220.229ZM483.76,221.142C483.766,220.9 483.811,220.508 483.744,220.276C483.748,220.582 483.696,220.891 483.76,221.142ZM483.728,221.439C483.783,221.419 483.796,221.277 483.728,221.266C483.728,221.324 483.728,221.382 483.728,221.439ZM483.728,221.816C483.781,221.771 483.781,221.516 483.728,221.47C483.728,221.587 483.728,221.702 483.728,221.816ZM482.593,230.767C482.61,230.936 482.574,231.054 482.529,231.162C482.774,231.377 482.593,231.843 482.64,232.168C482.815,232.178 483.045,232.251 483.169,232.136C483.124,232.203 483.217,232.209 483.232,232.23C483.376,232.436 483.151,232.533 483.041,232.64C483.081,233.259 483.018,233.763 483.072,234.338C483.752,234.459 484.548,234.522 485.181,234.637C485.298,234.658 485.405,234.726 485.517,234.685C485.463,232.595 485.53,230.274 485.469,228.079C485.433,226.723 485.47,225.573 485.485,224.178C485.224,223.955 484.95,223.741 484.67,223.549C484.575,223.485 484.467,223.415 484.366,223.361C483.748,223.014 483.158,222.58 482.448,222.384C482.389,222.846 482.403,223.488 482.4,223.91C482.658,223.942 483.024,223.922 483.312,223.926C483.372,223.581 483.299,223.195 483.375,222.856C483.524,222.903 483.65,222.973 483.743,223.077C483.753,223.912 483.662,224.865 483.759,225.641C483.784,224.754 483.728,223.877 483.823,223.109C484.011,223.177 484.164,223.307 484.349,223.422C484.494,223.512 484.817,223.63 484.861,223.769C484.9,223.894 484.861,224.169 484.861,224.367C484.861,226.043 484.869,227.866 484.844,229.321C484.059,229.358 483.266,229.342 482.431,229.339C482.369,229.324 482.437,229.185 482.368,229.181C482.367,229.566 482.397,229.829 482.368,230.187C482.393,230.278 482.519,230.268 482.545,230.36C482.517,230.445 482.468,230.506 482.465,230.612C482.537,230.635 482.521,230.689 482.593,230.767ZM482.433,224.13C482.43,224.351 482.67,224.465 482.658,224.649C482.647,224.795 482.464,224.859 482.433,225.026C482.559,225.18 482.427,225.286 482.401,225.421C482.37,225.593 482.391,225.818 482.385,226.033C482.368,226.67 482.397,227.365 482.385,228C482.635,227.97 482.974,227.985 483.295,227.984C483.35,226.734 483.35,225.361 483.328,224.146C483.018,224.133 482.672,224.094 482.433,224.13ZM488.027,235.36C488.113,235.122 488.247,234.872 488.283,234.635C488.324,234.362 488.268,234.043 488.268,233.739C488.263,231.62 488.205,229.298 488.218,227.087C487.921,226.687 487.617,226.194 487.291,225.829C487.265,225.799 487.22,225.795 487.195,225.765C487.172,225.737 487.173,225.687 487.146,225.656C486.97,225.443 486.746,225.228 486.54,225.01C486.326,224.785 486.053,224.524 485.837,224.398C485.794,224.747 485.805,225.166 485.805,225.562C485.805,227.488 485.827,229.338 485.821,231.066C485.817,232.34 485.887,233.52 485.886,234.809C486.069,234.871 486.324,234.862 486.492,234.935C486.521,234.994 486.513,235.128 486.492,235.187C486.385,235.283 486.177,235.277 486.092,235.392C486.065,235.98 486.07,236.61 486.092,237.138C486.452,237.26 486.851,237.345 487.228,237.452C487.525,236.812 487.775,236.059 488.027,235.36ZM483.728,226.284C483.728,226.409 483.655,226.568 483.76,226.646C483.74,226.333 483.798,225.88 483.728,225.669C483.682,225.857 483.728,226.085 483.728,226.284ZM483.695,227.7C483.796,227.436 483.734,227.129 483.744,226.787C483.739,226.775 483.729,226.769 483.712,226.772C483.707,227.064 483.722,227.394 483.695,227.7ZM488.618,233.332C488.712,233.236 488.713,233.084 488.747,232.955C488.843,232.584 488.951,232.154 489.019,231.726C489.248,230.273 489.17,228.722 488.555,227.714C488.553,227.705 488.552,227.696 488.538,227.699C488.586,229.549 488.599,231.419 488.618,233.332ZM483.728,228.234C483.707,228.052 483.792,227.895 483.712,227.747C483.742,227.915 483.643,228.117 483.728,228.234ZM482.4,228.597C482.436,228.55 482.381,228.488 482.4,228.409C482.426,228.382 482.466,228.369 482.528,228.378C482.474,228.341 482.411,228.315 482.384,228.251C482.402,228.377 482.328,228.512 482.4,228.597ZM483.456,228.329C483.258,228.332 482.96,228.29 482.815,228.377C483.123,228.396 483.406,228.341 483.663,228.36C483.644,228.288 483.537,228.328 483.456,228.329ZM482.625,228.377C482.667,228.376 482.719,228.385 482.72,228.345C482.688,228.354 482.61,228.32 482.625,228.377ZM482.369,228.801C482.417,228.787 482.443,228.633 482.385,228.613C482.354,228.65 482.375,228.739 482.369,228.801ZM488.06,237.768C488.112,237.794 488.155,237.831 488.236,237.831C488.298,237.707 488.27,237.427 488.219,237.312C488.139,237.437 488.078,237.58 488.06,237.768Z"/>
    </g>
</svg>
