<?xml version="1.0" encoding="UTF-8" standalone="no"?>
<!DOCTYPE svg PUBLIC "-//W3C//DTD SVG 1.1//EN" "http://www.w3.org/Graphics/SVG/1.1/DTD/svg11.dtd">
<svg width="100%" height="100%" viewBox="0 0 39 41" version="1.1" xmlns="http://www.w3.org/2000/svg" xmlns:xlink="http://www.w3.org/1999/xlink" xml:space="preserve" xmlns:serif="http://www.serif.com/" style="fill-rule:evenodd;clip-rule:evenodd;stroke-linejoin:round;stroke-miterlimit:1.41421;">
    <g transform="matrix(1,0,0,1,-128.444,-308.422)">
        <path d="M150.536,312.449C150.254,312.383 150.087,312.201 149.784,312.155C149.587,312.29 149.579,312.609 149.635,312.819C150.869,312.535 151.067,313.757 151.698,314.294C151.708,314.42 151.759,314.507 151.735,314.664C151.897,314.818 152.05,314.954 152.298,315.033C152.628,315.139 153.097,315.044 153.423,315.144C153.71,315.231 153.751,315.581 154.024,315.623C154.728,316.505 155.667,317.188 156.423,318.06C156.609,318.273 156.752,318.526 156.949,318.725C157.126,318.904 157.414,318.994 157.473,319.317C158,319.659 158.351,320.176 158.749,320.645C159.358,321.78 160.064,322.819 160.55,324.079C160.804,323.983 160.867,323.63 161.112,323.636C161.669,322.792 162.553,322.271 163.138,321.456C163.217,321.425 163.247,321.345 163.362,321.347C163.603,320.962 164.008,320.681 164.338,320.351C164.644,320.044 164.927,319.57 165.39,319.538C165.318,319.849 165.053,319.971 164.826,320.128C164.358,320.788 163.603,321.163 163.176,321.862C162.634,322.147 162.163,322.874 161.676,323.302C161.43,323.518 161.197,323.617 161.075,323.966C161.502,323.639 161.927,323.321 162.388,322.97C162.621,322.792 162.802,322.542 163.027,322.379C163.263,322.207 163.569,322.102 163.813,321.936C164.15,321.707 164.448,321.397 164.79,321.161C165.116,320.936 165.416,320.606 165.841,320.571C165.764,320.925 165.349,320.991 165.09,321.161C164.825,321.336 164.615,321.563 164.416,321.789C164.299,321.785 164.235,321.833 164.151,321.862C163.787,322.265 163.172,322.425 162.876,322.896C162.272,323.272 161.685,323.667 161.227,324.187C160.998,324.288 160.666,324.467 160.815,324.816C161.801,324.458 162.753,323.98 163.739,323.598C164.921,323.139 166.057,322.572 167.266,322.269C167.134,322.485 166.606,322.71 166.328,322.821C165.836,323.019 165.306,323.176 164.79,323.377C164.542,323.472 164.299,323.58 164.04,323.673C163.018,324.034 161.89,324.653 160.889,325.038C160.756,325.274 160.618,325.509 160.587,325.849C160.393,325.977 160.186,326.093 160.064,326.292C160.256,326.559 160.347,326.925 160.364,327.362C160.918,327.704 161.916,327.608 162.466,327.954C162.527,328.204 162.84,328.361 162.916,328.618C162.959,328.768 162.913,328.94 162.952,329.098C163.05,329.494 163.244,329.9 163.364,330.315C163.455,330.625 163.513,330.926 163.591,331.239C163.627,331.387 163.741,331.534 163.779,331.681C163.902,332.166 163.919,332.618 164.153,333.009C164.184,333.137 164.098,333.152 164.116,333.269C164.426,333.749 164.289,334.798 164.604,335.372C164.625,336.216 164.84,336.932 164.828,337.772C164.824,338.122 164.538,338.542 164.191,338.621C163.862,338.695 163.372,338.549 162.953,338.548C161.52,338.538 159.518,338.558 158.001,338.4C157.836,338.384 157.599,338.382 157.44,338.362C156.16,338.22 154.665,338.725 154.289,337.957C153.972,338.088 153.537,338.105 153.238,338.254C153.343,339.333 153.635,340.296 153.801,341.279C153.833,341.471 153.943,341.617 153.989,341.796C154.062,342.082 154.018,342.396 154.064,342.684C154.085,342.817 154.189,342.951 154.214,343.089C154.238,343.232 154.187,343.402 154.214,343.568C154.23,343.664 154.317,343.769 154.325,343.863C154.336,343.965 154.272,344.058 154.289,344.16C154.363,344.609 154.672,344.957 154.701,345.414C154.711,345.568 154.617,345.725 154.626,345.893C154.647,346.297 154.959,346.691 154.926,347.113C154.826,347.259 154.763,347.443 154.663,347.591C154.832,347.988 154.849,348.807 154.551,349.069C153.907,349.048 153.583,349.117 152.976,349.106C152.86,349.088 152.871,349.198 152.826,349.252C152.74,348.51 153.68,347.947 153.689,347.076C153.694,346.709 153.498,346.397 153.464,345.967C152.984,345.83 152.276,346.092 151.887,345.931C151.942,345.17 151.781,344.342 151.587,343.569C151.555,343.434 151.453,343.298 151.438,343.163C151.426,343.076 151.492,342.977 151.476,342.905C151.443,342.757 151.347,342.54 151.288,342.277C151.019,341.098 150.674,339.899 150.311,338.77C149.935,338.852 149.683,338.515 149.336,338.586C149.054,338.641 148.676,339.579 148.586,339.84C148.287,340.717 147.844,341.686 147.686,342.461C147.435,342.84 147.408,343.441 147.123,343.789C147.197,343.99 146.976,344.135 147.123,344.307C146.622,344.651 146.725,345.587 146.485,346.188C146.285,346.299 146.115,346.326 145.884,346.337C145.786,347.525 146.377,348.389 146.859,349.216C146.496,349.265 146.053,349.239 145.51,349.252C145.21,349.141 145.243,348.702 144.834,348.699C144.864,348.657 144.883,348.6 144.872,348.513C144.598,348.402 144.363,348.25 144.234,347.997C144.297,347.727 144.408,347.503 144.497,347.258C144.339,346.897 143.922,346.79 143.558,346.631C143.499,346.343 143.64,346.124 143.709,345.893C143.771,345.685 143.922,345.359 143.897,345.156C143.859,344.85 143.23,344.568 143.747,344.232C144.15,343.361 144.495,342.434 144.985,341.648C145.325,340.42 146.086,339.607 146.559,338.51C146.448,338.304 146.217,338.447 146.035,338.436C144.936,338.374 143.669,338.159 142.847,337.773C142.494,339.052 142.976,341.27 142.246,342.498C141.084,342.508 140.363,342.439 139.208,342.313C138.922,342.578 138.87,343.212 138.833,343.605C138.525,344.544 138.349,345.613 138.121,346.631C138.036,347.543 138.412,348.363 138.721,349.105C138.334,349.031 138.212,349.289 137.708,349.179C137.435,348.968 137.306,348.615 137.07,348.366C136.88,348.509 137.075,349.023 136.995,349.179C136.598,349.261 136.528,348.865 136.395,348.478C136.266,348.101 136.002,347.828 136.131,347.37C136.203,347.115 136.465,346.976 136.507,346.743C136.595,346.693 136.72,346.681 136.808,346.632C137.292,345.33 137.338,343.556 137.07,342.092C136.1,342.02 135.435,341.711 134.594,341.428C133.897,342.032 133.713,343.146 132.98,343.716C132.575,344.733 131.959,345.54 131.743,346.743C131.515,347.096 131.468,347.63 131.218,347.961C131.276,348.43 131.148,348.758 131.256,349.18C130.957,349.144 130.583,349.117 130.243,349.032C130.16,348.636 130.168,348.186 130.094,347.629C129.901,347.71 129.845,347.925 129.68,348.035C129.236,347.821 129.566,347.528 129.68,347.186C129.861,346.652 129.592,345.979 129.68,345.377C130.524,345.656 131.026,345.084 131.407,344.676C131.499,344.237 131.623,343.928 131.707,343.385C131.869,342.328 132.414,341.457 132.72,340.653C132.354,340.385 131.962,340.143 131.52,339.952C131.358,339.454 131.751,339.234 131.745,338.77C130.839,338.127 129.306,338.202 128.444,337.515C128.935,335.416 129.619,333.502 130.208,331.498C130.775,330.507 130.991,329.168 131.596,328.213C131.539,327.974 131.735,327.85 131.821,327.658C132.086,327.069 132.303,326.424 132.571,325.887C133.004,325.02 133.472,324.108 133.997,323.268C134.337,322.72 134.581,322.11 134.785,321.457C134.851,321.243 134.829,321.009 134.897,320.793C135.124,320.08 135.269,319.373 135.421,318.506C135.376,318.439 135.414,318.291 135.347,318.247C135.539,317.426 135.803,316.678 136.51,316.363C136.74,315.826 136.573,314.9 136.96,314.518C136.93,314.314 136.777,314.115 136.885,313.891C137.034,313.779 137.317,313.799 137.448,313.668C137.526,313.347 137.225,313.192 137.186,312.93C137.151,312.72 137.22,312.298 137.259,312.081C137.422,311.194 138.081,310.607 138.947,310.458C139.503,310.36 139.967,310.625 140.523,310.862C140.58,311.086 140.798,311.274 140.973,311.491C141.14,311.697 141.237,311.928 141.384,312.118C141.561,312.343 141.933,312.534 141.947,312.82C141.967,313.194 141.63,313.165 141.46,313.409C141.359,313.555 141.416,313.733 141.31,313.927C141.65,314.282 141.945,314.681 142.248,315.072C142.052,315.609 142.157,316.03 142.136,316.696C142.121,317.117 141.934,317.55 141.987,317.841C142.026,318.057 142.24,318.158 142.438,318.321C142.586,318.443 142.78,318.726 142.962,318.726C143.103,318.727 143.299,318.507 143.374,318.393C143.793,317.766 144.17,317.021 144.461,316.29C145.072,315.511 145.923,314.972 146.638,314.295C146.418,314.081 145.825,314.232 145.55,314.074C145.62,313.839 145.432,313.634 145.4,313.373C145.32,312.726 145.628,312.004 145.663,311.38C145.312,311.061 144.478,311.217 144.575,310.458C144.833,310.202 145.267,310.319 145.738,310.31C145.98,309.892 146.347,309.456 146.225,308.796C146.675,308.345 147.457,308.38 148.1,308.501C148.428,308.564 148.799,308.658 149.039,308.796C149.289,308.939 149.697,309.144 149.977,309.275C150.08,309.657 150.588,309.636 150.614,310.014C150.643,310.442 149.853,310.654 149.902,311.194C149.942,311.701 150.735,311.706 150.536,312.449ZM153.911,321.861C154.064,323.029 154.075,324.182 154.024,325.443C154.008,325.81 154.036,326.216 154.061,326.587C154.157,327.947 154.529,329.366 154.699,330.758C154.778,331.412 154.848,332.012 154.887,332.529C154.924,333.034 154.745,333.554 154.962,334.043C155.594,332.395 156.002,330.559 156.424,328.838C155.986,328.901 155.777,329.698 155.261,329.687C155.316,329.321 155.704,329.204 155.937,328.986C156.758,328.221 157.591,327.395 158.188,326.549C157.495,327.098 156.738,327.582 156.087,328.175C155.554,328.376 155.254,329.002 154.624,328.986C154.666,328.802 154.826,328.705 154.962,328.618C155.777,328.098 156.609,327.514 157.362,326.956C157.613,326.77 157.896,326.587 158.037,326.329C157.716,326.38 157.6,326.638 157.213,326.625C157.093,326.728 157.012,326.869 156.762,326.846C156.597,327.02 156.337,327.153 156.087,327.251C155.588,327.45 155.079,327.769 154.624,327.733C154.812,327.309 155.329,327.307 155.675,327.139C156.278,326.853 156.775,326.593 157.363,326.366C157.699,326.237 158.053,326.13 158.338,325.923C158.264,325.764 158.283,325.513 158.227,325.333C157.637,325.348 157.313,324.816 156.952,324.373C155.884,323.064 154.833,321.56 153.725,320.313C153.675,320.768 153.845,321.355 153.911,321.861ZM141.983,322.896C142.117,325.41 142.464,327.871 142.657,330.131C142.93,329.495 142.915,328.74 143.033,328.063C143.408,325.909 143.798,323.78 144.196,321.678C144.172,321.678 144.146,321.678 144.12,321.678C143.367,322.044 142.757,322.549 141.983,322.896ZM158.602,326.438C158.318,326.85 157.971,327.198 157.664,327.583C157.988,327.765 158.357,327.46 158.714,327.437C158.671,327.15 158.941,326.732 158.752,326.439C158.7,326.438 158.651,326.438 158.602,326.438ZM159.163,327.361C159.331,327.519 159.81,327.553 160.101,327.473C160.116,327.038 159.933,326.8 159.764,326.548C159.207,326.469 159.189,326.921 159.163,327.361ZM158.9,327.361C159.093,327.249 159.105,326.802 159.012,326.624C158.926,326.803 158.851,327.168 158.9,327.361Z"/>
    </g>
</svg>
