<?xml version="1.0" encoding="UTF-8" standalone="no"?>
<!DOCTYPE svg PUBLIC "-//W3C//DTD SVG 1.1//EN" "http://www.w3.org/Graphics/SVG/1.1/DTD/svg11.dtd">
<svg width="100%" height="100%" viewBox="0 0 117 338" version="1.1" xmlns="http://www.w3.org/2000/svg" xmlns:xlink="http://www.w3.org/1999/xlink" xml:space="preserve" xmlns:serif="http://www.serif.com/" style="fill-rule:evenodd;clip-rule:evenodd;stroke-linejoin:round;stroke-miterlimit:1.41421;">
    <g transform="matrix(1,0,0,1,-1020.1,-41.8969)">
        <path d="M1135.93,157.422C1135.95,155.23 1134.92,154.681 1135.04,153.497C1135.15,152.311 1134.37,150.539 1133.8,148.289C1133.21,146.04 1131.69,143.045 1131.69,143.045C1131.71,130.484 1127.15,116.91 1127.15,116.91C1123.63,101.813 1119.21,102.181 1119.21,102.181L1110.98,98.593C1105.38,88.481 1097.76,88.938 1097.76,88.938C1092.31,81.43 1089.98,82.801 1089.98,82.801L1088.46,81.719C1089.93,78.975 1090.94,74.927 1090.94,74.927L1091.06,74.467C1091.34,74.607 1092.84,75.296 1093.53,73.899C1094.29,72.355 1094.19,72.012 1094.84,70.464C1095.49,68.917 1097.16,65.048 1094.97,63.805C1094.97,63.805 1094.43,63.651 1093.96,63.701C1096.4,53 1092.23,50.014 1092.23,50.014C1092.23,50.014 1092.4,49.338 1088.45,45.67C1084.5,42.003 1079.14,41.1 1072.99,42.566C1066.84,44.033 1064.81,49.224 1064.81,49.224C1064.81,49.224 1063.23,50.747 1062.56,52.779C1061.88,54.809 1062.67,64.061 1062.67,64.061C1062.27,63.555 1061.09,63.837 1061.09,63.837C1058.83,64.964 1060.3,68.914 1060.86,70.492C1061.43,72.072 1061.31,72.41 1061.99,73.991C1062.67,75.568 1064.47,74.667 1064.47,74.667C1064.47,76.7 1065.71,80.309 1065.71,80.309L1065.86,82.818C1065.2,83.794 1064.25,84.698 1063.87,84.662C1063.09,84.585 1055.87,89.07 1055.87,89.07C1050.89,88.987 1044.14,96.908 1044.14,96.908C1044.14,96.908 1041.25,98.024 1038.34,99.138C1035.44,100.252 1033.5,105.848 1032.9,107.983C1032.3,110.118 1024.86,133.326 1024.85,135.518C1024.84,137.71 1024.67,140.268 1023.19,141.121C1021.71,141.976 1022.28,145.638 1022.28,145.638C1022.28,145.638 1022.46,147.849 1021.91,149.392C1021.36,150.934 1020.59,151.271 1020.22,153.029C1019.85,154.788 1020.45,156.229 1020.93,157.471C1021.41,158.715 1021.33,159.505 1021.83,160.549C1022.33,161.595 1022.61,161.773 1022.4,163.945C1022.19,166.117 1022.52,165.801 1023.91,167.929C1025.29,170.057 1024.3,168.332 1025.58,170.891C1026.77,173.272 1026.65,172.582 1026.5,174.162C1026.34,175.741 1026.91,175.997 1027.25,176.627C1027.59,177.26 1027.75,177.675 1028.07,178.502C1028.38,179.33 1029.91,182.071 1030.71,184.142C1031.51,186.214 1033.25,186.781 1034.04,186.857C1034.83,186.933 1035.16,187.566 1036.26,188.667C1037.35,189.771 1036.26,188.667 1037.88,190.421C1039.51,192.171 1039.96,191.619 1039.96,191.619L1042.69,194.277L1042,205.573C1042,205.573 1045.22,209.276 1045.78,209.727C1046.34,210.18 1044.65,219.39 1045.1,225.018C1045.55,230.645 1049.3,249.551 1050.16,253.025C1051.02,256.497 1055.3,284.399 1056.3,290.479C1057.31,296.559 1056.96,306.294 1056.92,310.876C1056.88,315.461 1060.63,328.186 1061.69,331.68C1062.75,335.169 1063.93,355.826 1063.93,355.826L1065.7,356.195L1065.53,359.967C1065.53,359.967 1062.28,362.64 1059.4,363.559C1056.52,364.479 1055.38,367.957 1060.64,369.263C1065.9,370.568 1072.45,368.812 1072.45,368.812L1072.61,375.409C1072.61,375.409 1072.26,376.967 1073.94,378.129C1075.62,379.288 1080.64,379.202 1083.82,379.085C1084.84,379.049 1086.7,378.166 1086.7,378.166C1086.7,378.166 1091.23,376.616 1092.28,374.121C1093.31,371.628 1092.06,368.12 1092.06,368.12L1097.09,367.612C1100.94,352.629 1106.48,295.338 1105.52,288.862C1104.54,282.387 1107.5,260.173 1107.5,260.173L1112.89,204.462L1117.92,199.965C1117.92,199.965 1119.17,196.85 1121.44,196.072C1123.71,195.294 1127.4,190.513 1127.71,189.349C1128.03,188.182 1130.54,185.976 1130.54,185.976C1132.53,183.973 1132.74,180.609 1132.95,178.435C1133.16,176.263 1134.65,175.083 1135.22,173.345C1135.79,171.605 1134.7,169.158 1135.84,167.673C1136.98,166.191 1135.92,159.614 1135.93,157.422ZM1081,257C1077.97,253.316 1079.03,240.259 1079.03,240.259C1081.07,247.108 1081,257 1081,257Z" style="fill-rule:nonzero;"/>
    </g>
</svg>
