<?xml version="1.0" encoding="UTF-8" standalone="no"?>
<!DOCTYPE svg PUBLIC "-//W3C//DTD SVG 1.1//EN" "http://www.w3.org/Graphics/SVG/1.1/DTD/svg11.dtd">
<svg width="100%" height="100%" viewBox="0 0 101 177" version="1.1" xmlns="http://www.w3.org/2000/svg" xmlns:xlink="http://www.w3.org/1999/xlink" xml:space="preserve" xmlns:serif="http://www.serif.com/" style="fill-rule:evenodd;clip-rule:evenodd;stroke-linejoin:round;stroke-miterlimit:1.41421;">
    <g transform="matrix(1,0,0,1,-79.6175,-13.3987)">
        <path d="M177.575,171.021C177.575,171.336 177.575,171.652 177.575,171.967C177.712,172.132 177.846,172.297 177.981,172.464C178.814,172.438 179.004,172.664 179.422,173.003C179.408,173.545 179.392,174.084 179.377,174.624C178.892,174.988 178.199,175.744 177.981,176.337C177.966,176.696 177.951,177.057 177.937,177.417C177.775,177.814 177.206,178.301 177.395,179.084C177.575,179.505 177.755,179.926 177.937,180.345C177.952,181.126 177.966,181.907 177.981,182.688C178.206,183.348 178.432,184.009 178.657,184.67C179.201,186.213 179.615,188.474 178.206,189.443C177.454,189.96 176.419,190.074 175.143,190.074C172.702,190.074 169.047,189.934 169.513,187.281C169.687,186.289 170.454,184.494 170.098,183.271C169.892,182.563 169.077,182.06 169.378,180.84C169.598,179.948 170.608,178.846 170.098,177.552C169.914,177.643 169.654,177.787 169.467,177.731C168.615,177.431 168.932,176.442 168.612,175.615C168.222,174.49 167.832,173.363 167.441,172.236C167.441,171.05 167.441,169.863 167.441,168.677C167.094,168.483 166.75,168.287 166.404,168.093C166.165,167.477 165.925,166.862 165.684,166.246C165.158,164.906 164.39,163.502 164.152,161.966C164.183,161.681 164.212,161.397 164.242,161.111C164.167,161.007 164.092,160.901 164.016,160.795C164.016,160.075 164.016,159.354 164.016,158.634C163.896,158.379 163.776,158.122 163.656,157.868C163.656,157.582 163.656,157.297 163.656,157.011C163.28,156.216 162.905,155.42 162.53,154.624C162.53,154.324 162.53,154.023 162.53,153.722C162.05,152.792 161.569,151.861 161.088,150.93C160.774,150.015 160.458,149.097 160.143,148.181C159.678,147.237 159.212,146.29 158.746,145.344C158.701,144.969 158.656,144.594 158.611,144.219C158.281,143.512 157.951,142.807 157.62,142.102C157.606,141.846 157.591,141.591 157.576,141.337C157.231,140.601 156.885,139.864 156.54,139.129C156.124,138.107 155.918,136.579 155.188,135.842C154.738,136.036 154.288,136.232 153.837,136.426C153.596,135.781 153.356,135.135 153.116,134.49C153.642,134.34 154.168,134.19 154.692,134.038C154.692,134.023 154.692,134.008 154.692,133.993C154.407,133.243 154.122,132.492 153.837,131.742C153.581,130.556 153.326,129.369 153.071,128.183C152.56,127.193 152.05,126.201 151.539,125.211C151.268,124.579 150.999,123.95 150.728,123.319C150.397,122.809 150.067,122.298 149.736,121.786C149.008,119.815 148.79,117.889 148.025,116.066C147.56,115.361 147.093,114.655 146.629,113.949C146.077,112.911 146.049,111.738 145.143,111.067C144.677,112.237 144.211,113.41 143.747,114.581C143.072,115.662 142.395,116.742 141.72,117.824C139.43,122.997 136.828,127.779 135.054,133.455C134.775,134.345 134.29,134.993 133.973,135.752C133.702,136.639 133.432,137.523 133.162,138.409C132.994,138.889 132.473,139.871 132.576,140.346C133.178,141.111 133.778,141.878 134.379,142.644C134.379,142.673 134.379,142.703 134.379,142.733C134.064,143.034 133.748,143.335 133.432,143.635C132.892,143.169 132.351,142.703 131.81,142.238C131.78,142.253 131.75,142.268 131.72,142.282C131.54,142.748 131.359,143.214 131.179,143.68C130.804,144.684 130.428,145.692 130.053,146.698C129.663,147.433 129.272,148.169 128.882,148.906C128.597,150.107 128.312,151.308 128.027,152.509C127.501,153.5 126.976,154.491 126.45,155.482C126.375,156.728 126.3,157.974 126.225,159.219C125.999,159.476 125.774,159.731 125.549,159.986C124.753,163.153 123.958,166.323 123.162,169.49C122.501,169.849 121.841,170.211 121.18,170.572C120.983,172.803 120.836,175.036 120.91,177.418C120.61,177.463 120.309,177.509 120.009,177.554C120.758,179.166 121.215,180.893 121.947,182.644C122.811,184.712 124.428,185.828 124.469,188.86C122.106,189.5 118.973,189.314 116.496,188.77C115.641,188.621 114.785,188.47 113.929,188.32C113.763,188.065 113.598,187.81 113.433,187.555C112.227,185.865 111.693,184.017 111.181,181.564C111.001,180.828 110.82,180.091 110.64,179.356C110.872,178.053 111.361,178.013 111.992,177.239C111.679,176.723 111.026,174.856 111.226,173.951C111.392,173.455 111.556,172.96 111.723,172.466C111.723,171.549 111.723,170.633 111.723,169.718C111.948,168.907 112.173,168.096 112.398,167.285C110.639,167.258 109.818,167.865 108.479,168.005C108.344,167.9 108.209,167.795 108.074,167.691C109.182,165.374 110.736,166.43 113.299,165.754C113.494,164.958 113.69,164.162 113.884,163.366C112.205,163.431 111.143,163.933 109.604,163.906C109.5,163.666 109.395,163.427 109.29,163.185C110.309,161.831 111.871,161.553 114.289,161.564C114.721,159.877 115.477,157.998 116.136,156.473C116.136,156.459 116.136,156.444 116.136,156.429C115.806,156.414 115.475,156.399 115.146,156.384C115.03,154.937 114.393,154.312 113.434,153.726C113.465,153.682 113.495,153.637 113.524,153.593C113.659,153.502 113.794,153.412 113.93,153.321C113.99,153.351 114.05,153.381 114.109,153.412C114.53,153.726 114.95,154.042 115.371,154.359C115.386,154.359 115.401,154.359 115.416,154.359C115.79,153.566 116.104,153.622 116.182,152.332C115.472,151.811 115.263,150.622 115.101,149.584C115.777,149.584 116.453,149.584 117.128,149.584C117.128,149.553 117.128,149.523 117.128,149.494C117.399,148.517 117.669,147.541 117.938,146.566C118.194,145.98 118.449,145.395 118.705,144.81C118.9,143.878 119.095,142.947 119.291,142.017C119.651,141.206 120.011,140.395 120.372,139.584C120.732,139.074 121.093,138.564 121.453,138.052C121.754,137.047 122.055,136.04 122.354,135.034C122.715,134.133 123.074,133.232 123.435,132.331C123.54,130.23 123.645,128.127 123.75,126.024C124.081,123.638 124.411,121.251 124.741,118.863C124.771,117.332 124.802,115.8 124.831,114.268C125.132,113.097 125.432,111.925 125.732,110.755C125.852,109.944 125.972,109.133 126.092,108.322C126.407,107.691 126.722,107.061 127.038,106.43C127.023,105.694 127.008,104.958 126.993,104.222C127.324,103.456 127.654,102.691 127.984,101.925C127.984,101.91 127.984,101.895 127.984,101.88C127.803,101.88 127.623,101.88 127.443,101.88C127.427,101.219 127.412,100.558 127.398,99.899C127.578,99.748 127.758,99.599 127.939,99.448C127.173,97.028 127.539,95.158 128.074,92.601C129.202,92.614 130.253,91.976 130.823,91.385C130.868,89.749 130.913,88.113 130.958,86.475C131.093,85.559 131.228,84.642 131.363,83.727C130.748,80.664 130.132,77.601 129.517,74.537C128.871,73.232 128.225,71.926 127.58,70.619C126.451,68.065 125.209,65.576 123.842,63.233C122.944,61.693 122.164,60.088 121.454,58.413C121.079,57.437 120.703,56.461 120.329,55.485C119.518,55.049 118.707,54.614 117.896,54.178C117.401,53.668 116.905,53.157 116.41,52.647C116.29,52.227 116.169,51.806 116.05,51.386C115.705,51.176 115.36,50.966 115.014,50.755C114.173,50.185 113.332,49.614 112.492,49.044C111.861,48.683 111.23,48.323 110.6,47.962C110.555,47.992 110.51,48.022 110.464,48.052C110.359,48.217 110.254,48.382 110.149,48.547C108.425,48.164 108.331,46.415 107.941,44.718C107.881,44.343 107.821,43.968 107.761,43.592C107.477,43.015 104.646,41.243 103.932,40.8C102.895,40.154 101.86,39.508 100.824,38.863C99.157,37.527 97.491,36.191 95.824,34.854C95.569,34.914 95.313,34.975 95.058,35.034C94.368,34.193 93.677,33.352 92.986,32.511C92.686,32.616 92.385,32.722 92.085,32.827C89.83,31.688 88.872,29.53 87.445,27.556C86.009,27.563 85.933,26.534 85.373,25.665C85.133,25.409 84.893,25.154 84.653,24.899C84.442,24.37 84.715,23.744 84.382,23.368C84.217,23.293 84.052,23.217 83.887,23.142C83.536,22.709 83.306,21.918 82.806,21.656C82.374,21.43 81.631,21.628 81.229,21.431C79.917,20.788 79.159,18.654 79.922,17.062C80.124,16.642 80.603,16.558 80.914,16.25C81.448,15.721 81.365,15.38 82.175,14.989C82.043,14.418 81.889,14.158 82.04,13.503C82.774,13.18 83.17,13.695 83.707,13.864C84.262,13.939 84.818,14.014 85.374,14.089C85.749,14.495 86.125,14.9 86.5,15.305C86.861,15.613 87.645,15.711 87.896,16.116C87.986,16.611 88.076,17.107 88.167,17.603C88.332,17.963 88.497,18.323 88.662,18.684C88.677,19.044 88.692,19.404 88.707,19.765C88.779,20.026 88.967,20.267 89.022,20.621C90.417,21.134 90.802,22.351 91.454,23.594C92.93,23.752 92.393,24.455 93.121,24.99C93.376,25.08 93.631,25.171 93.887,25.26C94.638,25.745 95.083,26.63 95.869,27.107C96.407,27.434 97.278,26.73 97.805,27.197C98.076,27.557 98.346,27.918 98.616,28.279C99.459,29.326 100.469,30.235 101.319,31.297C102.129,32.309 104.489,33.996 105.643,34.72C108.301,36.282 110.959,37.843 113.616,39.405C114.006,39.405 114.396,39.405 114.787,39.405C115.253,39.495 115.718,39.585 116.183,39.676C117.116,40.021 117.698,40.957 118.435,41.523C118.463,41.983 118.277,42.271 118.3,42.559C119.426,43.054 120.552,43.55 121.678,44.045C124.857,45.436 128.134,46.844 130.957,48.64C131.812,48.4 132.669,48.16 133.524,47.919C133.48,47.859 133.434,47.798 133.389,47.738C132.942,47.536 132.329,46.641 132.037,46.252C132.048,44.893 132.005,43.637 131.633,42.648C131.242,42.003 130.852,41.357 130.462,40.711C130.298,40.254 130.653,39.927 130.687,39.675C130.612,39.45 130.537,39.224 130.462,38.999C130.291,38.253 130.573,37.194 130.642,36.657C130.412,36.627 130.151,36.559 130.012,36.432C130.056,36.372 130.102,36.312 130.146,36.252C130.026,36.327 129.906,36.402 129.786,36.477C130.285,35.501 130.225,35.166 130.282,33.774C130.403,33.714 130.523,33.654 130.642,33.594C131.115,32.632 130.995,31.333 131.318,30.216C131.493,29.609 131.885,29.295 132.218,28.865C132.242,28.263 132.196,27.827 131.948,27.514C131.753,27.544 131.558,27.574 131.362,27.604C131.347,27.634 131.332,27.664 131.318,27.694C131.362,27.874 131.408,28.055 131.453,28.235C131.393,28.235 131.332,28.235 131.272,28.235C131.197,28.175 131.122,28.115 131.047,28.055C131.032,28.025 131.017,27.995 131.002,27.965C130.964,27.059 131.892,26.464 132.624,26.929C132.414,26.303 132.657,25.977 132.939,25.623C132.636,25.161 131.742,24.2 132.084,23.371C132.248,22.993 132.604,22.774 133.165,22.786C133.134,22.83 133.104,22.876 133.075,22.921C132.748,22.986 132.489,23.084 132.264,23.236C132.118,23.688 132.174,24.122 132.489,24.362C132.505,24.362 132.519,24.362 132.534,24.362C132.695,23.257 133.935,23.386 134.697,22.876C135.329,22.452 135.481,21.629 136.273,21.299C137.69,20.711 138.749,21.908 140.102,21.705C140.523,21.63 140.943,21.555 141.364,21.479C141.909,21.254 142.279,20.738 142.985,20.668C143,20.683 143.015,20.698 143.03,20.713C143.015,20.758 143,20.803 142.985,20.848C142.19,21.399 140.489,22.204 139.112,21.884C138.379,21.714 137.329,21.158 136.409,21.388C135.564,21.599 135.385,22.465 134.787,22.92C134.141,23.411 133.307,23.533 133.301,24.677C133.436,24.887 133.571,25.098 133.706,25.307C133.736,25.292 133.767,25.277 133.796,25.262C133.934,24.892 134.34,24.817 134.472,24.541C134.502,24.255 134.532,23.971 134.562,23.685C134.816,23.293 135.395,23.191 135.778,22.919C136.566,22.359 136.377,21.628 137.986,21.838C138.002,21.898 138.016,21.958 138.031,22.018C138.002,22.018 137.971,22.018 137.941,22.018C137.55,22.047 137.16,22.078 136.77,22.108C136.755,22.123 136.74,22.138 136.726,22.153C136.339,22.351 136.326,22.853 136.004,23.099C135.616,23.397 135.223,23.425 134.969,23.865C135.02,24.175 135.17,24.384 135.374,24.54C136.487,23.952 137.512,21.96 139.428,22.693C139.893,22.979 140.359,23.263 140.824,23.549C140.839,23.549 140.854,23.549 140.869,23.549C140.94,22.369 143.294,21.609 143.481,22.964C143.466,22.964 143.451,22.964 143.437,22.964C143.331,22.859 143.227,22.754 143.122,22.649C142.549,22.49 142.006,22.496 141.59,22.785C141.5,23.07 141.411,23.355 141.32,23.64C141.965,23.683 142.524,23.296 143.257,23.46C143.707,23.56 143.954,23.9 144.294,24.091C144.973,24.472 146.461,24.647 146.366,25.577C146.321,25.607 146.276,25.638 146.23,25.668C146.156,25.607 146.081,25.547 146.005,25.487C145.946,25.159 145.803,24.952 145.554,24.811C145.539,24.811 145.524,24.811 145.51,24.811C145.51,24.826 145.51,24.841 145.51,24.856C146.04,26.395 148.193,25.912 149.518,26.613C149.887,27.934 150.403,27.769 150.149,29.405C150.164,29.42 150.179,29.435 150.194,29.449C150.94,29.455 151.259,29.86 151.815,29.99C152.281,29.99 152.747,29.99 153.212,29.99C153.497,30.215 153.783,30.44 154.068,30.666C154.068,30.681 154.068,30.696 154.068,30.711C154.007,30.711 153.948,30.711 153.887,30.711C152.961,30.08 152.564,30.437 151.274,30.17C150.889,30.091 150.734,29.907 150.193,29.9C150.402,30.161 150.681,30.284 150.779,30.665C152.051,30.619 152.188,31.219 152.355,32.332C152.385,32.586 152.415,32.842 152.446,33.097C152.446,33.067 152.446,33.037 152.446,33.007C151.961,32.044 152.366,30.996 150.869,31.025C151.078,31.725 151.486,31.703 151.77,32.196C151.885,32.396 151.795,32.717 151.86,32.872C152.297,32.999 152.546,33.203 152.805,33.502C152.806,34.083 152.555,34.304 152.309,34.629C152.391,35.284 152.735,35.547 152.894,36.07C152.909,36.265 152.924,36.46 152.939,36.655C153.105,36.791 153.27,36.925 153.435,37.061C153.435,37.287 153.435,37.511 153.435,37.736C153.55,38.044 153.981,38.227 154.155,38.547C156.444,37.9 159.19,37.723 158.525,40.799C159.667,41.242 161.686,41.813 161.273,43.636C161.121,44.308 160.72,44.622 160.102,44.807C160.253,44.999 160.497,45.292 160.328,45.663C160.195,45.955 159.936,46.027 159.742,46.248C159.95,46.513 160.101,46.644 160.238,47.014C160.223,47.029 160.208,47.044 160.193,47.059C159.748,46.988 159.415,46.695 159.292,47.239C159.523,47.359 159.652,47.519 159.563,47.825C158.816,47.646 157.59,47.137 156.995,47.96C161.273,49.103 162.691,50.796 163.481,55.438C163.421,56.608 163.361,57.781 163.301,58.952C164.116,59.556 164.711,60.362 165.643,60.888C166.779,61.529 167.903,61.561 168.616,62.601C169.32,63.623 169.718,66.699 169.201,68.366C169.021,68.952 168.841,69.537 168.659,70.122C168.014,70.829 167.369,71.534 166.723,72.239C165.691,73.527 164.658,74.833 163.705,76.203C164.665,80.904 166.194,85.457 167.804,89.492C168.993,92.471 170.039,95.361 171.543,97.915C172.364,99.311 173.144,100.695 173.976,102.014C174.306,102.524 174.636,103.035 174.967,103.547C174.952,103.576 174.936,103.607 174.921,103.636C173.57,104.327 172.218,105.017 170.866,105.708C170.131,105.859 169.396,106.009 168.658,106.158C167.143,106.564 165.626,106.97 164.11,107.375C164.765,108.727 164.372,109.456 164.651,111.203C164.897,112.738 165.055,114.33 164.832,115.798C165.743,116.558 165.873,117.891 165.868,119.581C165.657,119.821 165.447,120.062 165.237,120.302C165.539,121.781 166.096,123.431 166.318,124.761C166.243,125.241 166.169,125.722 166.093,126.202C166.322,127.74 166.495,128.978 166.454,130.481C167.342,131.223 167.763,132.353 168.03,133.725C168.03,134.34 168.03,134.956 168.03,135.572C168.345,136.882 169.099,138.184 169.516,139.581C169.591,140.287 169.667,140.994 169.741,141.698C170.042,142.163 170.342,142.629 170.642,143.094C170.837,143.636 171.033,144.175 171.228,144.716C171.627,145.937 171.497,147.568 172.309,148.365C172.707,148.168 173.49,147.929 173.976,147.868C174.05,147.959 174.126,148.05 174.201,148.139C174.192,149.706 172.308,152.355 173.93,153.409C174.358,153.217 174.916,152.837 175.417,153.139C175.447,153.184 175.477,153.229 175.507,153.274C175.536,154.714 174.676,155.756 174.066,156.608C174.076,158.08 175.1,158.119 175.417,159.219C175.417,159.565 175.417,159.91 175.417,160.257C175.531,160.893 175.577,161.54 175.732,162.283C176.085,163.971 177.715,166.248 178.795,167.239C178.706,167.69 178.614,168.14 178.525,168.59C179.121,169.027 180.279,169.716 180.371,170.617C180.204,170.888 180.098,171 179.876,171.202C179.107,171.141 178.341,171.08 177.575,171.021ZM138.117,23.005C137.579,23.262 137.316,23.276 136.991,23.725C137.071,23.887 137.167,23.946 137.306,24.041C138.192,24.056 139.628,23.795 140.234,23.591C139.778,23.136 139.044,22.992 138.117,23.005ZM147.576,26.383C148.09,26.686 148.627,26.826 148.972,27.284C149.35,27.785 149.51,28.302 150.008,28.681C150.023,28.681 150.037,28.681 150.052,28.681C149.963,28.09 149.447,26.84 148.971,26.609C148.507,26.534 148.042,26.458 147.576,26.383ZM151.766,33.05C151.745,33.622 151.901,33.946 152.216,34.176C152.231,34.176 152.246,34.176 152.261,34.176C152.291,34.132 152.321,34.086 152.351,34.041C152.366,33.906 152.381,33.77 152.396,33.635C152.246,33.375 152.009,33.213 151.766,33.05ZM152.306,35.527C152.299,35.998 152.469,36.299 152.757,36.473C152.703,36.13 152.517,35.73 152.306,35.527ZM156.405,38.59C155.961,38.835 155.439,38.983 154.829,39.041C154.844,39.085 154.858,39.13 154.873,39.175C155.068,39.4 155.263,39.626 155.458,39.851C155.893,40.037 156.916,39.733 157.26,40.031C157.436,40.182 157.455,40.354 157.439,40.706C157.695,40.646 157.95,40.586 158.205,40.526C158.365,39.7 158.267,38.957 157.619,38.679C157.354,38.542 156.809,38.58 156.405,38.59ZM153.882,38.905C153.838,38.936 153.792,38.966 153.747,38.995C153.911,39.349 154.118,39.853 154.467,40.032C154.543,40.001 154.617,39.971 154.692,39.942C154.701,39.358 154.449,38.93 153.882,38.905ZM161.36,93.499C161.352,94.463 161.24,95.749 161.675,96.473C162.096,96.757 162.516,97.042 162.936,97.328C163.207,97.838 163.477,98.349 163.747,98.86C164.164,100.214 163.501,100.95 163.251,101.833C163.221,102.329 163.191,102.824 163.161,103.318C163.056,104.034 163.554,104.263 163.702,104.716C163.914,105.363 163.698,106.01 163.522,106.516C163.672,106.652 163.821,106.787 163.972,106.922C166.179,106.367 168.386,105.812 170.594,105.255C171.795,104.64 172.997,104.025 174.197,103.409C174.153,103.364 174.107,103.318 174.062,103.274C173.296,102.208 172.531,101.142 171.765,100.076C171.268,99.054 170.774,98.033 170.277,97.013C168.6,93.717 167.067,90.055 165.683,86.518C165.398,85.271 165.112,84.025 164.828,82.779C164.318,80.902 163.807,79.026 163.296,77.149C163.326,76.593 163.356,76.037 163.386,75.482C163.251,74.521 163.116,73.561 162.981,72.599C162.621,70.986 161.22,70.222 161.134,68.229C160.255,68.348 159.144,68.125 158.206,68.365C157.591,68.604 156.975,68.846 156.359,69.085C156.149,68.861 155.938,68.634 155.729,68.41C155.969,67.428 157.578,67.118 158.206,66.292C158.23,66.046 158.288,65.886 158.161,65.752C157.389,65.381 155.541,65.609 154.513,65.616C154.137,66.382 153.762,67.148 153.387,67.913C152.324,69.99 151.273,71.862 150.099,73.725C148.243,76.667 146.482,79.593 144.648,82.599C143.898,83.859 143.146,85.121 142.396,86.381C142.366,86.381 142.336,86.381 142.306,86.381C141.885,85.406 141.465,84.429 141.045,83.455C140.365,81.231 140.506,78.908 140.099,76.473C139.994,75.421 139.889,74.371 139.784,73.319C140.129,70.782 140.475,68.243 140.82,65.707C141.18,64.266 141.541,62.824 141.901,61.383C142.295,59.342 142,57.107 141.541,55.481C140.919,53.278 139.982,52.3 141.541,50.166C141.496,50.031 141.451,49.895 141.406,49.76C140.139,50.344 139.779,50.423 138.522,49.895C138.462,49.429 138.402,48.964 138.342,48.499C138.132,48.378 137.922,48.258 137.711,48.138C137.073,48.401 135.086,49.354 134.378,48.949C134.197,48.769 134.017,48.589 133.837,48.409C132.966,48.708 132.095,49.009 131.224,49.309C130.116,49.203 129.124,48.397 128.296,47.913C126.195,46.862 124.092,45.811 121.99,44.76C121.014,44.34 120.038,43.919 119.062,43.499C118.477,43.273 117.891,43.048 117.306,42.823C117.442,42.448 117.576,42.073 117.711,41.698C117.243,41.085 115.303,39.556 114.107,40.166C113.973,40.332 113.837,40.497 113.702,40.662C113.162,41.113 112.621,41.563 112.08,42.014C110.831,42.704 109.162,42.493 108.342,43.59C108.503,45.001 108.913,46.819 109.919,47.553C110.294,47.463 110.669,47.373 111.045,47.283C112.367,48.123 113.688,48.965 115.009,49.805C115.549,50.135 116.09,50.466 116.631,50.796C116.841,51.442 117.052,52.088 117.261,52.733C118.387,53.468 119.514,54.205 120.64,54.94C121.69,57.342 122.742,59.745 123.792,62.148C125.774,65.931 127.756,69.716 129.738,73.499C130.474,76.861 131.21,80.226 131.945,83.588C132.756,84.174 133.567,84.759 134.378,85.345C135.102,85.619 136.057,85.377 136.675,85.614C137.351,85.885 138.026,86.156 138.702,86.426C139.107,86.651 139.512,86.876 139.918,87.102C140.398,87.132 140.88,87.161 141.36,87.191C142.644,87.394 144.231,87.542 145.594,87.327C146.705,87.296 147.817,87.266 148.928,87.237C152.617,86.368 155.783,84.603 158.747,83.003C159.295,85.14 159.62,86.675 159.603,89.355C160.669,90.128 160.55,92.013 160.188,93.452C160.579,93.469 160.969,93.484 161.36,93.499ZM155.594,40.211C155.714,40.317 155.834,40.422 155.954,40.527C156.352,40.645 156.768,40.59 157.171,40.527C157.171,40.467 157.171,40.407 157.171,40.347C157.141,40.302 157.11,40.257 157.081,40.211C156.585,40.211 156.09,40.211 155.594,40.211ZM156.27,41.158C155.907,41.304 155.681,41.294 155.459,41.564C155.459,41.579 155.459,41.594 155.459,41.609C156.026,41.652 156.626,41.697 157.171,41.744C157.186,41.729 157.201,41.715 157.215,41.7C157.231,41.52 157.246,41.339 157.261,41.159C156.93,41.158 156.601,41.158 156.27,41.158ZM158.973,41.699C158.793,41.774 158.612,41.848 158.432,41.924C158.478,41.969 158.522,42.015 158.568,42.059C158.783,42.564 159.06,42.912 159.243,43.501C159.808,43.557 160.242,43.896 160.459,44.312C160.519,44.266 160.579,44.221 160.639,44.176C160.815,43.748 161.111,43.43 160.999,42.824C160.552,42.194 160.078,41.684 158.973,41.699ZM155.594,42.644C156.36,42.657 156.673,42.957 157.035,43.365C157.186,43.335 157.335,43.304 157.486,43.275C157.486,43.215 157.486,43.155 157.486,43.095C157.278,42.498 157.007,42.328 156.585,41.969C156.224,41.984 155.864,42 155.504,42.014C155.534,42.225 155.564,42.434 155.594,42.644ZM157.846,42.059C157.681,42.074 157.515,42.089 157.351,42.105C157.501,42.54 157.651,42.975 157.802,43.411C158.092,43.257 158.281,43.144 158.747,43.14C158.732,43.095 158.717,43.05 158.702,43.005C158.437,42.793 158.135,42.467 158.072,42.059C157.997,42.059 157.921,42.059 157.846,42.059ZM155.954,43.14C155.971,43.322 156.088,43.536 156.27,43.681C156.39,43.636 156.51,43.591 156.63,43.546C156.724,43.454 156.704,43.466 156.72,43.275C156.69,43.26 156.66,43.245 156.63,43.23C156.405,43.201 156.18,43.17 155.954,43.14ZM147.036,43.41C147.411,44.611 147.787,45.812 148.162,47.014C148.837,47.269 149.513,47.525 150.189,47.78C150.564,48.35 150.939,48.921 151.315,49.492C152.786,51.703 153.629,54.691 154.333,57.645C156.349,57.88 157.55,58.532 159.018,59.267C159.048,58.816 159.078,58.367 159.108,57.915C158.027,57.037 157.404,55.292 157.215,53.546C157.366,53.351 157.515,53.155 157.665,52.96C157.95,52.929 158.362,52.818 158.521,52.96C158.895,53.716 159.087,54.205 159.558,54.807C159.993,55.227 160.429,55.648 160.864,56.068C160.984,56.368 161.104,56.669 161.225,56.969C161.795,57.359 162.365,57.749 162.936,58.14C162.931,55.506 162.732,52.549 161.585,50.978C160.389,49.339 156.401,48.686 154.468,47.645C152.958,46.832 151.71,45.778 150.324,44.897C149.228,44.401 148.132,43.906 147.036,43.41ZM158.837,43.59C158.642,43.619 158.447,43.65 158.252,43.68C158.237,43.71 158.222,43.74 158.207,43.771C158.222,43.831 158.237,43.891 158.252,43.951C158.388,44.026 158.523,44.101 158.657,44.176C158.717,44.131 158.778,44.086 158.837,44.041C158.837,43.891 158.837,43.74 158.837,43.59ZM159.018,44.582C159.41,44.58 159.686,44.472 159.874,44.266C159.733,44.061 159.515,43.849 159.288,43.861C159.197,44.101 159.108,44.341 159.018,44.582ZM158.387,45.212C157.873,45.174 157.661,44.826 157.351,44.582C156.783,44.615 155.705,44.805 155.414,45.167C155.459,45.227 155.504,45.287 155.549,45.347C156.449,45.436 157.817,46.678 158.342,45.572C158.357,45.452 158.372,45.332 158.387,45.212ZM159.648,44.716C159.468,44.776 159.287,44.836 159.108,44.896C159.123,44.941 159.138,44.986 159.153,45.031C159.333,45.241 159.513,45.451 159.693,45.662C159.813,45.617 159.933,45.572 160.054,45.527C160.069,45.421 160.084,45.316 160.099,45.211C160.009,45.046 159.919,44.881 159.828,44.715C159.769,44.716 159.708,44.716 159.648,44.716ZM158.657,45.978C158.583,46.053 158.507,46.128 158.432,46.204C158.881,46.287 158.994,46.439 159.243,46.699C159.333,46.669 159.423,46.639 159.514,46.609C159.484,46.579 159.454,46.549 159.423,46.519C159.302,46.26 159.081,46.156 158.882,45.978C158.807,45.978 158.732,45.978 158.657,45.978ZM156.495,46.518C156.299,46.605 156.174,46.599 156.045,46.744C156.09,46.938 156.135,47.134 156.18,47.329C156.846,46.924 158.021,46.922 158.837,47.148C158.793,46.969 158.747,46.789 158.702,46.608C157.966,46.578 157.231,46.548 156.495,46.518ZM154.963,61.518C155.955,61.506 156.924,61.471 157.936,61.473C157.892,61.428 157.846,61.384 157.801,61.338C157.264,60.115 156.027,59.801 154.738,59.311C154.814,60.047 154.889,60.782 154.963,61.518ZM154.693,64.175C155.669,64.102 156.645,64.026 157.621,63.95C157.607,63.711 157.592,63.47 157.577,63.23C156.631,63.08 155.685,62.93 154.739,62.779C154.723,63.245 154.708,63.71 154.693,64.175Z"/>
    </g>
</svg>
