<?xml version="1.0" encoding="UTF-8" standalone="no"?>
<!DOCTYPE svg PUBLIC "-//W3C//DTD SVG 1.1//EN" "http://www.w3.org/Graphics/SVG/1.1/DTD/svg11.dtd">
<svg width="100%" height="100%" viewBox="0 0 130 259" version="1.1" xmlns="http://www.w3.org/2000/svg" xmlns:xlink="http://www.w3.org/1999/xlink" xml:space="preserve" xmlns:serif="http://www.serif.com/" style="fill-rule:evenodd;clip-rule:evenodd;stroke-linejoin:round;stroke-miterlimit:1.41421;">
    <g transform="matrix(1,0,0,1,-517.496,-29.62)">
        <path d="M545.685,287.858C545.093,287.858 544.594,287.791 544.2,287.659C543.694,287.49 543.247,287.171 542.815,286.863C542.664,286.756 542.518,286.651 542.374,286.557C542.252,286.477 542.126,286.407 542.002,286.338C541.68,286.159 541.376,285.99 541.206,285.668C540.748,284.797 540.818,283.388 540.886,282.024C540.951,280.717 541.012,279.483 540.655,278.631C540.206,277.557 539.6,276.704 538.959,275.801C538.751,275.507 538.541,275.211 538.335,274.906C538.252,274.782 538.155,274.663 538.056,274.54C537.838,274.272 537.613,273.994 537.516,273.637C537.174,272.38 537.67,271.272 538.15,270.2C538.614,269.163 539.052,268.184 538.716,267.144C538.483,266.422 537.956,265.853 537.446,265.304C537.013,264.837 536.604,264.395 536.402,263.893L535.669,253.727C535.437,252.657 535.39,251.478 535.344,250.338C535.299,249.195 535.251,248.013 535.02,246.948L534.93,244.648C534.741,243.773 534.723,242.856 534.706,241.886C534.688,240.916 534.67,239.914 534.465,238.977C534.355,238.474 534.347,237.937 534.339,237.369C534.33,236.773 534.321,236.156 534.189,235.547C533.98,234.59 533.859,233.293 533.821,231.581L533.82,231.519L533.763,231.493C532.654,230.977 532.759,228.898 532.851,227.064C532.871,226.669 532.89,226.286 532.896,225.932C531.87,224.544 531.947,222.226 532.023,219.984C532.044,219.367 532.065,218.748 532.065,218.145C532.065,216.417 532.065,214.268 531.692,212.562L531.694,210.544C531.694,209.149 531.694,207.413 531.414,206.166L531.324,202.478C531.302,202.386 531.242,202.296 531.154,202.167C531.113,202.106 531.05,202.015 531.042,201.988L530.954,199.048C530.831,198.556 530.718,198.092 530.607,197.633C530.246,196.143 529.904,194.737 529.376,193.362C529.009,192.406 528.439,191.525 527.888,190.673C527.25,189.687 526.648,188.756 526.328,187.715C526.104,186.989 526.154,185.962 526.203,184.968C526.222,184.576 526.241,184.196 526.241,183.851C526.241,183.73 526.267,183.531 526.294,183.325C526.355,182.849 526.378,182.613 526.322,182.507C526.294,182.455 526.237,182.431 526.111,182.382C526.059,182.362 525.964,182.325 525.943,182.306C525.663,181.888 525.41,181.024 525.314,180.673L525.317,179.773C525.15,179.034 525.065,178.211 524.983,177.415C524.888,176.504 524.791,175.562 524.575,174.743L524.485,173.095L524.236,172.088C523.321,168.413 522.284,164.247 521.059,160.832C520.524,159.339 520.192,157.194 520.233,155.493C520.239,155.227 520.318,154.846 520.403,154.442C520.566,153.66 520.75,152.774 520.499,152.293C520.354,151.876 520.057,151.535 519.769,151.206C519.477,150.871 519.174,150.524 519.026,150.083C518.598,148.806 519.074,144.135 519.481,143.397L519.564,143.397L519.703,143.351C519.913,143.015 519.722,142.451 519.582,142.038C519.541,141.918 519.507,141.817 519.491,141.75C519.315,140.991 519.201,138.714 519.399,137.809C519.565,137.052 519.698,136.253 519.832,135.459C520.023,134.32 520.22,133.143 520.507,132.161L520.492,131.945L520.233,129.343L520.233,124.44C520.147,124.038 520.072,123.62 519.996,123.2C519.874,122.523 519.748,121.823 519.582,121.261L519.586,119.806C519.515,119.48 519.464,119.019 519.416,118.573C519.36,118.059 519.303,117.528 519.213,117.186L519.216,115.914C519.124,115.478 519.058,114.978 518.992,114.487C518.918,113.934 518.849,113.412 518.75,113.016L518.753,111.094C518.615,110.522 518.394,109.99 518.159,109.427C517.93,108.879 517.694,108.312 517.548,107.733C517.392,107.115 517.627,106.232 517.727,105.855L517.919,103.316C518.001,103.026 518.103,102.619 518.207,102.203C518.33,101.711 518.457,101.205 518.563,100.833C518.713,100.309 518.78,99.815 518.844,99.338C518.893,98.978 518.942,98.615 519.027,98.232L519.121,96.548L519.703,94.615C520.352,92.452 521.023,90.216 521.615,88.042C521.808,87.333 521.834,86.575 521.86,85.842C521.889,85.009 521.917,84.223 522.167,83.507C522.655,82.114 523.151,80.595 523.635,79.116C523.89,78.335 524.142,77.566 524.386,76.832C524.579,76.252 524.719,75.676 524.853,75.12C525.069,74.226 525.272,73.383 525.674,72.582C526.016,71.901 526.456,71.224 526.882,70.569C527.07,70.279 527.255,69.995 527.427,69.717C527.668,69.327 527.851,68.923 528.029,68.532C528.237,68.072 528.435,67.637 528.719,67.218L530.74,65.287C531.379,64.442 532.667,62.892 534.238,61.87C534.586,61.643 534.984,61.532 535.405,61.415C535.689,61.336 535.977,61.255 536.257,61.137C538.277,60.284 540.777,59.566 543.178,58.917L545.463,58.92C545.945,58.92 546.443,58.927 546.946,58.934C547.461,58.941 547.982,58.949 548.496,58.949C549.642,58.949 550.478,58.911 551.206,58.826L551.265,58.819L551.287,58.764C551.435,58.398 551.808,58.131 552.169,57.873C552.341,57.749 552.509,57.629 552.648,57.502C553.178,57.018 553.781,55.891 553.874,54.938C554.314,54.973 554.8,55.192 555.232,55.388C555.602,55.555 555.92,55.699 556.151,55.699C556.214,55.699 556.27,55.688 556.318,55.667C556.608,55.327 556.572,54.868 556.535,54.381C556.509,54.037 556.481,53.681 556.559,53.376C556.642,53.052 556.833,52.808 557.017,52.573C557.163,52.386 557.301,52.21 557.387,51.999C557.578,51.529 557.569,51.023 557.559,50.487C557.551,50.032 557.542,49.562 557.668,49.114C557.749,48.826 557.887,48.497 558.028,48.162C558.17,47.826 558.314,47.483 558.406,47.169C558.622,46.441 558.607,45.67 558.592,44.924C558.576,44.169 558.562,43.456 558.776,42.816C558.91,42.416 559.086,42.008 559.263,41.596C559.497,41.053 559.739,40.49 559.887,39.937C560.016,39.452 560.078,38.967 560.137,38.499C560.218,37.863 560.294,37.261 560.529,36.706C560.662,36.393 560.902,36.145 561.133,35.907C561.358,35.675 561.59,35.436 561.73,35.133C561.889,34.788 561.998,34.413 562.104,34.05C562.266,33.493 562.418,32.967 562.735,32.558C562.933,32.302 563.57,32.074 564.133,31.873C564.517,31.736 564.88,31.606 565.11,31.47C565.436,31.277 565.746,31.028 566.073,30.764C566.603,30.337 567.152,29.896 567.767,29.719C567.995,29.654 568.297,29.62 568.663,29.62C570.338,29.62 572.848,30.307 573.323,30.632C573.478,30.738 573.659,30.97 573.82,31.174C573.901,31.278 573.977,31.375 574.045,31.451L575.44,31.438L576.804,31.391C577.304,32.228 578.188,32.465 579.211,32.739C579.555,32.831 579.914,32.927 580.281,33.054C580.7,33.2 581.043,33.491 581.375,33.773C581.739,34.083 582.115,34.403 582.598,34.538C582.89,34.62 583.197,34.66 583.537,34.66C584.02,34.66 584.497,34.58 584.959,34.502C585.383,34.431 585.784,34.363 586.175,34.357C586.212,34.413 586.257,34.473 586.304,34.535C586.385,34.64 586.475,34.76 586.506,34.847C586.545,34.957 586.538,35.069 586.531,35.178C586.522,35.324 586.513,35.475 586.612,35.614C586.746,35.802 587,35.902 587.245,35.999C587.401,36.061 587.548,36.119 587.652,36.193L588.096,36.732C588.305,36.879 588.546,36.971 588.802,37.069C589.189,37.217 589.59,37.37 589.75,37.646C589.832,37.764 589.884,37.888 589.934,38.007C589.998,38.16 590.064,38.319 590.185,38.454C590.137,38.586 590.071,38.718 590.004,38.852C589.898,39.064 589.789,39.285 589.739,39.52C589.661,39.889 589.754,40.228 589.853,40.586C589.925,40.847 589.999,41.116 590.012,41.418L589.944,41.443C589.229,41.703 588.251,42.059 588.166,42.961C587.866,43.336 588.088,44.271 588.283,45.095C588.351,45.384 588.415,45.651 588.444,45.857C588.473,46.065 588.408,46.319 588.339,46.588C588.236,46.989 588.119,47.444 588.263,47.911C588.346,48.18 588.49,48.47 588.643,48.777C589.013,49.52 589.433,50.362 589.186,51.285C589.152,51.411 589.095,51.517 589.034,51.629C588.948,51.787 588.851,51.966 588.813,52.223L588.804,52.287L588.859,52.322C589.236,52.563 589.612,52.837 589.864,53.055L589.908,53.093L589.963,53.073C590.091,53.031 590.104,53.026 590.138,52.996C590.245,52.89 591.129,51.621 591.306,51.368L591.324,50.57C591.478,50.114 591.891,49.245 592.229,48.775C592.599,48.261 593.161,47.851 593.704,47.455C594.385,46.958 595.089,46.445 595.473,45.704C595.692,45.281 595.559,44.931 595.43,44.593C595.325,44.315 595.224,44.052 595.297,43.734C595.48,42.929 596.491,41.306 597.091,41.022C597.57,40.795 598.067,40.68 598.549,40.568C599.045,40.453 599.557,40.335 600.051,40.094C600.291,39.977 600.542,39.812 600.798,39.643C601.128,39.425 601.468,39.2 601.798,39.079L603.157,38.992C603.337,39.058 603.546,39.223 603.766,39.398C603.969,39.56 604.18,39.727 604.406,39.819C604.77,39.967 605.258,40.038 605.687,40.099C605.902,40.13 606.104,40.159 606.271,40.195C606.371,40.216 606.497,40.227 606.647,40.227C607.401,40.227 608.628,39.963 609.218,39.836C609.59,39.756 609.975,39.721 610.418,39.721C612.276,39.721 614.703,40.329 615.387,40.827C615.713,41.064 615.903,41.548 616.085,42.016C616.263,42.471 616.446,42.941 616.765,43.229C617.185,43.608 617.826,43.812 618.445,44.011C619.161,44.24 619.901,44.476 620.264,44.975C620.555,45.373 620.724,45.825 620.903,46.303C621.037,46.658 621.174,47.026 621.367,47.375C621.473,47.567 621.598,47.763 621.727,47.965C622.011,48.412 622.305,48.874 622.468,49.395L622.556,52.797C622.666,53.199 622.925,53.446 623.176,53.685C623.334,53.835 623.484,53.977 623.589,54.145C623.732,54.374 623.778,54.643 623.829,54.928C623.874,55.189 623.922,55.458 624.046,55.712L624.234,56.079C624.429,56.454 624.672,56.921 624.779,57.273C624.892,57.644 624.856,58.071 624.822,58.484C624.786,58.917 624.752,59.325 624.872,59.686C625.112,60.405 625.491,60.969 625.858,61.515C626.299,62.173 626.717,62.794 626.903,63.661C627.029,64.253 626.746,65.839 626.626,66.4C626.428,67.325 626.581,68.206 626.73,69.059C626.87,69.859 627.001,70.615 626.812,71.308C626.722,71.639 626.589,71.912 626.46,72.176C626.226,72.659 625.982,73.159 625.978,74.022C626.316,74.311 626.556,74.622 626.79,74.923C627.03,75.234 627.278,75.555 627.593,75.772C627.738,75.873 627.915,75.929 628.087,75.984C628.286,76.047 628.474,76.107 628.597,76.225C628.691,76.314 628.747,76.458 628.809,76.611C628.873,76.772 628.94,76.939 629.058,77.058C629.017,77.368 628.897,77.722 628.77,78.098C628.582,78.652 628.389,79.224 628.57,79.887C628.62,80.07 628.714,80.217 628.805,80.36C628.876,80.472 628.945,80.579 628.994,80.704C628.383,80.79 627.728,81.055 627.242,81.252L627.114,81.304L627.202,81.409L627.229,81.473L627.324,81.497C627.805,82.287 628.622,82.803 629.412,83.303C629.969,83.655 630.545,84.019 630.999,84.474C631.806,85.283 632.175,86.453 632.565,87.693C632.731,88.22 632.899,88.752 633.103,89.26C633.333,89.833 633.631,90.397 633.919,90.944C634.35,91.76 634.794,92.604 635.04,93.512L635.037,95.34L634.852,99.599L634.772,99.916C634.493,101.035 634.073,102.726 634.391,104.166C634.435,104.366 634.453,104.624 634.472,104.896C634.503,105.336 634.536,105.791 634.673,106.129C635.188,107.397 635.657,108.778 636.112,110.113L636.427,111.035C636.619,111.593 636.702,112.264 636.783,112.912C636.838,113.356 636.892,113.79 636.978,114.176L636.976,124.72C636.997,124.818 637.025,124.911 637.056,125.014C637.134,125.275 637.231,125.598 637.253,125.841L637.346,133.526C638.202,137.124 637.746,142.839 635.898,144.574L635.852,144.616L635.871,144.676C636.114,145.458 636.38,146.261 636.644,147.063C636.989,148.11 637.333,149.155 637.627,150.143C637.748,150.552 637.815,150.954 637.879,151.341C637.97,151.885 638.055,152.4 638.276,152.933C639.665,156.272 640.923,159.864 641.972,162.937C642.111,163.342 642.112,163.86 642.112,164.361C642.113,164.862 642.114,165.38 642.249,165.808C642.394,166.266 642.569,166.888 642.737,167.486C642.859,167.92 642.978,168.341 643.08,168.68C643.159,168.943 643.164,169.162 643.169,169.394C643.174,169.63 643.179,169.873 643.267,170.164C643.608,171.297 644.094,172.555 644.523,173.664L644.748,174.248C644.969,174.823 645.082,175.391 645.191,175.939C645.292,176.439 645.395,176.956 645.579,177.489C645.685,177.796 645.802,178.068 645.916,178.334C646.205,179.007 646.479,179.645 646.498,180.717C646.233,180.798 645.989,180.932 645.753,181.063C645.488,181.209 645.214,181.36 644.91,181.438L640.96,181.435C639.894,181.702 637.455,182.321 636.813,183.142C636.378,183.735 636.185,184.64 635.999,185.515C635.885,186.052 635.767,186.606 635.596,187.061C635.23,188.042 634.539,189.961 634.022,191.796L634.019,192.75C633.952,193.024 633.876,193.385 633.801,193.751C633.69,194.293 633.574,194.849 633.468,195.225L633.187,198.209L633.187,199.608C632.858,200.823 632.689,202.797 633.005,204.172L633.003,208.043C633.931,210.467 633.929,213.952 633.927,217.322L633.927,217.774C633.927,219.555 633.996,221.404 634.065,223.192C634.133,225.005 634.205,226.88 634.205,228.711L634.112,234.27C634.245,234.714 634.397,235.397 634.531,235.999L634.669,236.612L634.667,239.093C634.701,239.217 634.768,239.33 634.839,239.451C634.919,239.587 635.01,239.741 635.04,239.858L635.129,244.284C635.052,244.597 635.054,245.036 635.055,245.502C635.057,246.029 635.059,246.574 634.948,247.04C634.623,248.402 634.522,250.087 634.426,251.716C634.331,253.302 634.234,254.942 633.931,256.31L633.929,258.649C633.818,259.137 633.747,259.769 633.744,260.317L633.744,261.707C633.738,261.711 633.683,261.81 633.64,261.888C633.567,262.018 633.493,262.152 633.47,262.238L633.282,265.038C632.639,267.333 631.973,270.095 631.528,271.972C631.196,273.368 631.681,275.128 632.035,276.413C632.126,276.743 632.209,277.043 632.267,277.301C632.472,278.199 632.205,278.96 631.949,279.695C631.816,280.074 631.69,280.433 631.631,280.801C631.024,280.863 630.496,280.892 630.019,280.919C628.627,280.996 627.623,281.052 626.306,281.827C626.205,281.887 626.087,281.923 625.963,281.961C625.78,282.017 625.592,282.075 625.454,282.213C625.173,282.494 625.063,282.946 624.958,283.384C624.851,283.832 624.738,284.296 624.445,284.522C624.052,284.828 623.547,284.842 622.962,284.859C622.591,284.87 622.207,284.881 621.806,284.966C621.286,285.077 619.819,285.158 618.315,285.158C616.923,285.158 615.863,285.087 615.477,284.968C615.16,284.871 614.915,284.644 614.679,284.424C614.425,284.187 614.162,283.943 613.807,283.856C613.361,284.223 612.921,284.488 612.496,284.744C612.222,284.91 611.947,285.075 611.69,285.262C611.518,285.387 611.35,285.514 611.183,285.64C610.099,286.46 609.076,287.235 607.216,287.282C607.003,287.287 606.741,287.313 606.458,287.34C606.081,287.377 605.666,287.417 605.282,287.417C604.783,287.417 604.437,287.348 604.222,287.207C603.846,287.075 603.665,286.817 603.475,286.543C603.37,286.394 603.263,286.242 603.127,286.106C603.043,284.553 603.662,283.285 604.261,282.06C604.57,281.427 604.889,280.773 605.095,280.088C605.324,279.328 605.224,278.7 605.127,278.092C605.019,277.403 604.915,276.751 605.275,275.928C605.473,275.476 605.92,275.087 606.352,274.711C606.944,274.195 607.556,273.662 607.594,272.928C607.371,272.696 606.618,271.582 606.549,270.836C606.53,270.638 606.563,270.489 606.646,270.392C606.782,270.233 606.918,270.168 607.063,270.1C607.316,269.98 607.578,269.855 607.774,269.246L607.779,265.692L608.052,264.795C607.968,264.503 607.792,264.278 607.622,264.061C607.5,263.905 607.38,263.753 607.306,263.608L606.11,260.099C605.818,259.149 605.724,258.08 605.633,257.047C605.556,256.178 605.477,255.28 605.28,254.455L605.282,253.273C605.18,252.899 605.007,252.544 604.84,252.199C604.694,251.9 604.543,251.591 604.445,251.295L604.265,249.556C604.102,249.047 603.908,248.519 603.713,247.991C603.473,247.34 603.233,246.688 603.059,246.107C602.889,245.538 602.879,244.951 602.871,244.384C602.861,243.825 602.851,243.247 602.69,242.679C602.512,242.054 602.295,241.428 602.075,240.792C601.839,240.109 601.598,239.415 601.396,238.693L601.399,237.516C601.253,236.88 601.142,236.15 601.035,235.444C600.924,234.713 600.809,233.957 600.657,233.321L600.753,231.124C600.572,230.31 600.41,229.494 600.246,228.668C599.96,227.231 599.665,225.745 599.269,224.327L599.198,224.072C598.916,223.063 598.597,221.923 598.453,220.826C599.009,220.741 599.377,220.491 599.735,220.249C600.071,220.021 600.389,219.807 600.855,219.726L600.947,219.71L600.937,219.617C600.753,217.917 599.834,215.883 599.163,214.397L599.079,214.21L598.902,213.214C598.607,212.495 598.324,211.651 598.05,210.836C597.838,210.202 597.627,209.576 597.417,209.025L597.239,202.199C596.654,199.939 595.806,197.658 595.198,196.139L595.113,194.964C594.968,194.397 594.853,193.751 594.731,193.068C594.62,192.445 594.507,191.812 594.371,191.241L594.281,190.144C594.166,189.884 593.949,189.66 593.74,189.444C593.587,189.286 593.437,189.132 593.341,188.985C593.154,188.698 593.004,188.38 592.859,188.071C592.72,187.775 592.583,187.485 592.418,187.225L592.373,187.155L592.296,187.186C591.58,187.477 590.546,187.658 589.598,187.658C588.887,187.658 588.246,187.558 587.746,187.37C587.49,187.274 587.21,187.057 586.939,186.848C586.74,186.694 586.547,186.546 586.372,186.45C586.077,186.287 585.689,186.212 585.153,186.212C584.786,186.212 584.39,186.247 583.992,186.282C583.597,186.317 583.2,186.353 582.829,186.353C581.992,186.353 581.499,186.165 581.23,185.743C580.581,184.724 580.589,183.125 580.597,181.431L580.599,180.884C580.6,179.281 580.785,177.902 580.964,176.569C581.148,175.195 581.339,173.775 581.339,172.079C581.339,171.798 581.353,171.486 581.366,171.162C581.403,170.312 581.445,169.349 581.241,168.712L581.219,168.642L580.961,168.642C580.501,169.328 579.873,169.859 579.266,170.372C579.094,170.517 578.926,170.659 578.769,170.799C578.68,170.879 578.626,170.989 578.575,171.095C578.525,171.199 578.478,171.296 578.406,171.35C578.269,171.451 578.102,171.528 577.926,171.611C577.649,171.74 577.362,171.873 577.184,172.112C576.853,172.554 576.604,173.091 576.364,173.611C576.057,174.275 575.739,174.961 575.253,175.437C576.115,179.509 575.246,182.354 574.24,185.648L574.118,186.045C573.771,187.184 573.524,188.349 573.285,189.475C573.091,190.388 572.891,191.331 572.638,192.258L572.635,195.436C572.635,195.873 572.632,196.318 572.628,196.767C572.61,199.025 572.592,201.36 573.008,203.152L573.005,204.983C573.005,207.256 572.618,208.823 572.208,210.481C572.072,211.033 571.933,211.593 571.806,212.191C571.679,212.788 571.871,213.456 572.076,214.163C572.316,214.994 572.564,215.853 572.361,216.732C572.118,217.786 571.659,218.584 571.215,219.355C570.937,219.838 570.65,220.338 570.425,220.887C570.285,221.227 570.242,221.574 570.201,221.908C570.157,222.264 570.115,222.6 569.965,222.921C569.428,224.07 569.088,225.267 568.728,226.533C568.538,227.201 568.343,227.886 568.112,228.587C567.943,229.098 567.753,229.623 567.56,230.156C567.229,231.067 566.888,232.009 566.631,232.947L566.628,234.643C566.628,235.097 566.641,235.562 566.654,236.029C566.692,237.373 566.731,238.763 566.446,239.901C566.307,240.458 566.165,241.112 566.029,241.734C565.949,242.102 565.872,242.458 565.799,242.776L565.797,244.003C565.747,244.214 565.701,244.524 565.652,244.854C565.573,245.392 565.483,246 565.341,246.379C565.104,247.013 564.858,247.694 564.614,248.368C564.389,248.993 564.166,249.61 563.954,250.178C563.852,250.45 563.804,250.686 563.757,250.912C563.7,251.188 563.646,251.449 563.496,251.743C562.583,253.54 560.516,254.995 558.817,256.061L558.751,256.103L558.869,256.455C559.897,257.005 562.994,258.897 563.407,259.624C563.77,260.264 563.771,261.739 563.41,262.301C562.994,262.946 561.581,264.383 560.937,264.871C560.873,264.919 560.801,264.97 560.726,265.022C560.437,265.222 560.11,265.449 559.982,265.746L559.974,266.989C560.367,267.571 560.559,268.263 560.745,268.932C560.891,269.455 561.041,269.995 561.278,270.464C561.484,270.87 561.795,271.09 562.096,271.303C562.263,271.421 562.433,271.54 562.591,271.696C562.676,271.779 562.737,271.908 562.8,272.045C562.89,272.238 562.984,272.438 563.165,272.544C563.661,272.837 564.331,272.861 565.093,272.861L565.412,272.861C565.98,272.861 566.527,272.873 566.975,273.018L567.156,273.076C567.857,273.3 568.917,273.637 569.442,274.024C569.733,274.238 569.929,274.625 570.118,275C570.22,275.203 570.322,275.403 570.435,275.575C570.54,275.733 570.652,275.895 570.767,276.062C571.498,277.123 572.327,278.325 572.36,279.878C572.16,280.02 571.938,280.241 571.717,280.461C570.759,281.415 569.854,282.316 568.364,282.746L567.744,282.742C566.755,283.016 565.425,283.141 563.53,283.141C562.546,283.141 561.53,283.108 560.552,283.077C559.645,283.048 558.771,283.019 557.988,283.019L557.916,283.019L557.851,283.087C557.734,283.428 557.744,283.979 557.751,284.464L557.753,284.603C558.111,285.173 558.131,286.021 558.123,286.917C557.282,287.413 555.715,287.49 554.299,287.49C553.917,287.49 553.532,287.485 553.153,287.479C552.783,287.473 552.418,287.468 552.067,287.468C551.386,287.468 550.857,287.57 550.526,287.656L547.593,287.653C546.975,287.785 546.289,287.858 545.685,287.858ZM589.231,179.412C588.977,179.412 588.653,179.433 588.396,179.598C587.539,179.885 586.947,180.809 586.424,181.624C586.267,181.869 586.116,182.105 585.966,182.31C585.887,182.418 585.773,182.489 585.652,182.564C585.489,182.666 585.32,182.77 585.218,182.973C585.017,183.265 585.192,183.893 585.425,184.38C585.66,184.872 586.042,185.407 586.409,185.436C586.451,185.483 586.473,185.49 586.588,185.511L586.672,185.526L586.789,185.462C586.843,185.311 586.858,185.268 586.886,185.072L586.896,185.001L586.713,184.913C586.556,184.841 586.393,184.767 586.319,184.638C586.091,184.322 585.877,183.761 585.789,183.269C586.42,183.006 586.971,182.132 587.418,181.424C587.554,181.209 587.679,181.01 587.792,180.852C587.894,180.71 588.082,180.585 588.264,180.465C588.424,180.359 588.589,180.249 588.708,180.12L592.43,179.967C592.763,180.074 593.06,180.258 593.373,180.451C593.852,180.747 594.348,181.054 595.102,181.078C595.359,180.907 595.586,180.816 595.826,180.72C596.038,180.635 596.258,180.547 596.456,180.413C596.631,180.294 596.81,180.142 596.995,179.985C597.369,179.668 597.755,179.34 598.183,179.22C598.28,179.193 598.373,179.18 598.467,179.18C598.671,179.18 598.847,179.243 599.035,179.308C599.234,179.379 599.44,179.452 599.689,179.452C599.803,179.452 599.915,179.437 600.031,179.406C600.41,179.305 600.795,179.124 601.167,178.948C601.485,178.798 601.786,178.656 602.068,178.571C602.181,178.536 602.294,178.52 602.411,178.52C602.721,178.52 603.01,178.638 603.316,178.764C603.637,178.895 603.969,179.031 604.348,179.039C604.573,179.043 604.788,179.047 604.996,179.047C605.56,179.047 606.168,179.023 606.78,178.849C606.856,178.828 606.946,178.798 607.046,178.765C607.378,178.655 607.832,178.505 608.281,178.505C608.453,178.505 608.614,178.527 608.759,178.571C609.057,178.661 609.472,178.738 609.912,178.819C610.59,178.944 611.357,179.085 611.793,179.306C611.986,179.404 612.169,179.588 612.345,179.766C612.521,179.943 612.702,180.126 612.902,180.232C613.014,180.292 613.148,180.32 613.321,180.32C613.412,180.32 613.508,180.313 613.605,180.305C613.7,180.297 613.797,180.289 613.894,180.289C614.019,180.289 614.121,180.302 614.211,180.331C614.363,180.38 614.549,180.51 614.728,180.636C614.873,180.738 615.009,180.834 615.125,180.884C615.571,181.075 616.149,181.1 616.604,181.1C616.852,181.1 617.107,181.092 617.363,181.083C617.615,181.075 617.868,181.067 618.112,181.067C618.534,181.067 619.07,181.088 619.472,181.255C619.958,181.457 620.322,181.769 620.705,182.098C621.201,182.523 621.713,182.962 622.532,183.205C623.594,183.519 624.563,183.58 625.982,183.58L627.831,183.58C628.394,183.723 628.954,183.964 629.495,184.199C629.992,184.414 630.507,184.637 631.039,184.782C631.182,184.821 631.352,184.84 631.547,184.84C632.749,184.84 634.84,184.048 635.043,183.516L635.095,183.38L634.672,183.38C634.461,183.499 634.211,183.53 633.97,183.561C633.785,183.584 633.594,183.608 633.437,183.665C632.77,183.906 632.19,184.023 631.666,184.023C630.904,184.023 630.308,183.78 629.617,183.498C629.144,183.306 628.609,183.087 627.948,182.92L624.594,182.917C624.336,182.849 624.031,182.786 623.721,182.721C622.884,182.546 622.018,182.366 621.409,182.005L620.978,181.385C620.581,181.016 619.879,180.685 619.355,180.513C618.492,180.23 617.594,180.23 616.643,180.23L615.349,180.23C615.261,180.194 615.119,180.1 614.968,180.001C614.772,179.871 614.569,179.737 614.359,179.678L613.137,179.582C612.947,179.485 612.736,179.309 612.512,179.122C612.209,178.868 611.896,178.606 611.497,178.474L609.905,178.285C609.228,178.09 608.661,178.002 608.083,178.002C607.519,178.002 606.938,178.085 606.08,178.287C605.765,178.361 605.452,178.397 605.127,178.397C604.529,178.397 603.979,178.272 603.445,178.151C602.933,178.035 602.405,177.916 601.851,177.912C601.473,178.223 600.336,178.768 599.595,178.768C599.516,178.768 599.442,178.762 599.374,178.748C599.307,178.734 599.223,178.707 599.128,178.677C598.896,178.603 598.606,178.511 598.305,178.511C598.174,178.511 598.05,178.529 597.937,178.565C597.384,178.742 596.942,179.094 596.515,179.434C595.977,179.862 595.42,180.306 594.625,180.414C593.991,179.743 592.779,179.292 591.62,179.292C591.288,179.292 590.96,179.327 590.642,179.396C590.499,179.427 590.338,179.442 590.136,179.442C589.984,179.442 589.828,179.434 589.676,179.425C589.528,179.419 589.377,179.412 589.231,179.412ZM567.726,181.137C567.451,181.351 567.439,181.725 567.457,182.28C568.287,182.894 568.637,183.081 569.48,183.081C569.759,183.081 570.095,183.06 570.524,183.025C570.667,182.879 570.765,182.789 570.87,182.694C571.021,182.557 571.177,182.415 571.255,182.222C571.497,181.623 571.614,181.018 571.727,180.433C571.837,179.864 571.95,179.276 572.18,178.699C572.243,178.542 572.394,178.428 572.555,178.308C572.687,178.209 572.823,178.107 572.91,177.975C573.102,177.684 573.823,175.446 573.85,175.054L573.858,174.947L573.304,174.947L573.284,175.023C573.229,175.241 573.109,175.412 572.993,175.578C572.895,175.718 572.795,175.862 572.733,176.033C572.654,176.248 572.631,176.483 572.608,176.71C572.582,176.968 572.558,177.212 572.459,177.414L572.222,177.612L571.744,178.031C571.556,178.314 571.4,178.858 571.297,179.218L571.252,179.376C571.168,179.659 571.106,179.99 571.044,180.331C570.898,181.129 570.746,181.954 570.273,182.289C570.072,182.46 569.79,182.551 569.471,182.551C568.827,182.551 568.13,182.179 568.119,181.627C568.578,181.386 568.906,180.838 568.951,180.246L568.957,180.169L568.884,180.144C568.723,180.088 568.64,180.065 568.397,180.046C567.743,180.664 566.603,180.787 565.748,180.787C565.75,180.766 565.714,180.718 565.682,180.675C565.608,180.576 565.567,180.522 565.539,180.304L565.737,180.228C567.568,179.534 569.846,178.67 569.876,176.254L569.876,176.193L569.711,176.097C569.645,176.055 569.593,176.022 569.436,175.971L569.305,175.929L569.305,176.066C569.13,176.361 569.01,176.666 568.894,176.961C568.778,177.254 568.668,177.532 568.493,177.768C568.168,178.204 567.403,178.444 566.336,178.444C565.829,178.444 565.285,178.388 564.803,178.286C564.757,178.15 564.616,177.973 564.482,177.847C564.509,177.376 564.548,176.886 564.586,176.411L564.606,176.166C564.615,176.171 564.628,176.173 564.645,176.173C564.708,176.173 564.819,176.136 564.935,176.097C565.283,175.98 565.677,175.848 565.801,175.547C566.196,174.974 565.99,173.691 565.691,172.773C565.599,172.49 565.271,171.558 564.911,171.43L564.777,171.383L564.777,171.525C564.597,171.81 564.641,172.237 564.692,172.732C564.734,173.137 564.776,173.556 564.687,173.911L564.438,174.577L563.675,174.577C563.687,174.511 563.59,174.422 563.495,174.335C563.378,174.227 563.267,174.126 563.213,173.991C563.096,173.702 563.101,173.388 563.108,173.055C563.113,172.741 563.119,172.416 563.033,172.058C562.975,171.817 562.89,171.573 562.804,171.326C562.718,171.077 562.63,170.826 562.571,170.576C562.514,170.335 562.496,170.036 562.476,169.72C562.434,169.054 562.392,168.366 561.972,168.104L561.819,168.009L561.819,168.189C561.708,168.417 561.717,168.772 561.726,169.086C561.766,169.218 561.759,169.242 561.739,169.305C561.714,169.386 561.68,169.497 561.729,169.696C561.795,169.961 561.888,170.486 561.998,171.105C562.339,173.034 562.647,174.653 562.962,174.937C563.265,175.21 563.764,175.248 564.258,175.248C564.4,175.248 564.545,175.245 564.691,175.241L564.988,174.899C564.988,174.899 565.239,174.544 565.24,174.54L565.24,175.25C565.13,175.279 565.027,175.298 564.931,175.316C564.623,175.374 564.356,175.424 564.148,175.733C563.732,176.259 563.834,177.453 563.947,178.305L564.348,178.69L564.72,179.016L565.158,179.033C565.414,179.026 565.726,179.018 566.029,179.018C566.391,179.018 566.64,179.03 566.811,179.048C566.175,179.272 564.963,179.76 564.882,179.914L564.871,180.83L564.925,180.897L564.97,181.014C565.178,181.168 565.34,181.297 565.453,181.419L565.683,181.452C566.531,181.451 567.12,181.302 567.726,181.137ZM567.644,173.826C567.59,174.159 567.69,174.545 567.795,174.955C567.938,175.512 568.1,176.142 567.923,176.782C567.873,176.964 567.784,177.057 567.681,177.165C567.562,177.29 567.428,177.431 567.368,177.715L567.349,177.801L567.432,177.83C567.581,177.884 567.624,177.899 567.821,177.928C567.978,177.812 568.039,177.769 568.098,177.728C568.213,177.648 568.321,177.573 568.394,177.298C568.756,176.836 568.706,175.88 568.532,175.151C568.397,174.585 568.131,173.921 567.786,173.753L567.665,173.694L567.644,173.826ZM568.012,171.339C568.679,172.042 569.464,174.165 569.491,175.327L569.493,175.425L570.048,175.425L570.06,175.338C570.241,173.981 569.199,171.319 568.143,170.966L568.011,170.922L568.011,171.339L568.012,171.339ZM570.601,169.877L570.601,170.049L570.701,170.141C570.953,170.467 571.283,170.795 571.601,171.113C571.996,171.507 572.405,171.915 572.644,172.403L572.72,173.227L572.825,174.286L572.886,174.307C573.037,174.359 573.12,174.385 573.373,174.404L573.483,174.413L573.481,174.302C573.424,171.917 572.712,171.281 571.634,170.321C571.449,170.155 571.252,169.98 571.046,169.784L571.003,169.742L570.601,169.877ZM571.898,165.477C571.8,165.879 572.001,166.369 572.177,166.8C572.248,166.973 572.316,167.139 572.361,167.29C572.461,167.626 572.429,168.015 572.398,168.392C572.364,168.801 572.332,169.188 572.455,169.521C572.602,169.918 572.898,170.622 573.23,170.865L573.634,170.974C573.908,171.246 574.148,171.657 574.381,172.054C574.509,172.274 574.638,172.493 574.779,172.695C574.92,172.897 575.133,173.037 575.341,173.174C575.475,173.262 575.609,173.349 575.717,173.452L575.762,173.494L575.82,173.473L575.994,173.396C576.134,173.223 576.141,173.153 576.157,172.983L576.164,172.915L576.108,172.826C575.424,172.486 573.228,169.765 573.017,168.996L573.021,167.725C573.01,166.752 572.622,165.826 572.055,165.42L571.935,165.334L571.898,165.477ZM552.401,82.959C551.34,84.817 551.684,87.312 552.017,89.725C552.137,90.594 552.25,91.415 552.296,92.191C552.4,93.95 552.199,96.034 551.744,97.908L551.649,99.408C551.38,100.569 551.317,101.514 551.467,102.126C551.586,102.607 551.776,103.124 551.961,103.623C552.168,104.184 552.382,104.764 552.483,105.273C552.517,105.443 552.476,105.681 552.433,105.933C552.378,106.254 552.315,106.618 552.391,106.944C552.478,107.321 552.616,107.737 552.753,108.149C552.901,108.597 553.055,109.059 553.13,109.443C553.168,109.638 553.126,109.91 553.08,110.198C553.025,110.551 552.962,110.95 553.038,111.299C553.525,113.545 552.996,115.315 552.436,117.189L552.301,117.646L552.297,119.343C552.191,119.821 552.109,120.37 552.026,120.923C551.942,121.486 551.858,122.051 551.744,122.566L551.649,124.807C551.494,125.543 551.261,128.545 551.467,129.468C551.555,129.863 551.545,130.39 551.534,130.948C551.521,131.6 551.507,132.275 551.653,132.809C551.766,133.223 551.968,133.673 552.163,134.109C552.324,134.468 552.481,134.818 552.58,135.13L552.575,137.509C552.689,137.975 552.876,138.445 553.057,138.899C553.191,139.235 553.321,139.561 553.411,139.856L553.407,141.588C553.521,142.076 553.663,142.611 553.799,143.125C553.892,143.476 553.982,143.816 554.057,144.115L554.054,145.017L554.425,146.89C554.415,146.936 554.4,147.035 554.383,147.146C554.317,147.577 554.217,148.229 554.335,148.657C554.457,149.1 554.677,149.556 554.89,149.997C555.073,150.376 555.246,150.734 555.353,151.071L555.348,152.894C555.46,153.231 555.724,153.465 555.98,153.691C556.186,153.874 556.381,154.046 556.466,154.233L556.457,156.323C556.555,156.65 556.753,156.986 556.944,157.31C557.182,157.713 557.427,158.129 557.475,158.468C557.492,158.589 557.459,158.796 557.424,159.014C557.369,159.357 557.307,159.746 557.384,160.054C557.595,160.89 557.899,161.771 558.194,162.623C558.445,163.349 558.682,164.035 558.864,164.691L558.86,165.869C559.002,166.278 559.498,166.6 559.896,166.86C560.008,166.933 560.112,167.001 560.196,167.062C561.164,167.77 562.481,168.144 564.005,168.144C566.522,168.144 568.979,167.182 570.297,166.228C570.425,166.135 570.582,166.038 570.749,165.935C571.327,165.577 572.046,165.131 572.186,164.5C572.032,164.228 571.903,161.688 572.093,160.983C572.419,159.768 572.925,157.448 572.65,155.566L572.744,153.454C572.579,152.771 572.354,152 572.136,151.252C571.988,150.745 571.844,150.25 571.724,149.808L571.727,145.849C571.684,145.641 571.67,145.422 571.656,145.188C571.638,144.896 571.617,144.563 571.539,144.25C571.492,144.063 571.413,143.873 571.329,143.672C571.131,143.2 570.907,142.666 571.077,141.981C571.148,141.695 571.27,141.334 571.386,140.989C571.481,140.707 571.573,140.436 571.631,140.222L571.634,137.879C571.689,137.652 571.746,137.342 571.806,137.022C571.896,136.536 571.99,136.034 572.093,135.683C572.291,135.007 572.101,134.465 571.934,133.988C571.833,133.701 571.739,133.43 571.727,133.148L571.693,132.375C571.581,129.815 571.474,127.398 572.092,125.303L572.096,123.885C572.19,123.557 572.378,123.153 572.56,122.762C572.658,122.551 572.753,122.346 572.828,122.161C573.151,121.366 573.372,120.509 573.586,119.68C573.726,119.137 573.865,118.597 574.032,118.076L574.129,116.942C574.315,116.188 574.395,115.348 574.472,114.536C574.555,113.66 574.642,112.753 574.866,111.955C575.088,111.163 575.242,110.362 575.407,109.514C575.57,108.673 575.738,107.803 575.976,106.95C576.236,106.02 576.559,104.863 576.627,103.592L576.632,103.487L576.172,103.487L575.321,106.806C575.036,107.803 574.841,108.824 574.653,109.812C574.465,110.797 574.288,111.728 574.028,112.643C573.912,113.051 573.924,113.483 573.936,113.941C573.948,114.396 573.961,114.867 573.843,115.333C573.762,115.651 573.68,116.054 573.596,116.46C573.524,116.812 573.452,117.165 573.38,117.467L573.377,118.323C573.127,119.095 572.808,119.925 572.5,120.727C572.113,121.735 571.713,122.777 571.439,123.765L571.435,125.646C571.39,125.8 571.321,126.024 571.248,126.257C571.148,126.58 571.042,126.922 570.976,127.197L571.066,133.154L571.134,133.39C571.344,134.072 571.663,135.103 571.438,136.001C571.383,136.222 571.31,136.494 571.234,136.773C571.141,137.117 571.046,137.473 570.975,137.763L570.972,140.567C570.927,140.692 570.838,140.872 570.744,141.062C570.617,141.319 570.485,141.586 570.421,141.84C570.209,142.675 570.586,143.618 570.862,144.307C570.945,144.513 571.019,144.7 571.069,144.86L571.065,149.372C571.314,150.313 571.539,151.268 571.761,152.206C571.869,152.666 571.977,153.121 572.085,153.565C572.321,154.539 572.105,157.488 571.9,158.338L571.897,160.123C571.875,160.164 571.786,160.287 571.7,160.405C571.592,160.555 571.479,160.71 571.439,160.833C571.23,161.479 571.342,162.506 571.442,163.412C571.496,163.904 571.546,164.37 571.531,164.68C570.849,164.885 570.382,165.337 569.929,165.773C569.676,166.018 569.438,166.248 569.166,166.435L568.659,166.54L567.536,166.79C566.774,167.069 565.841,167.411 564.946,167.624C564.899,167.635 564.846,167.641 564.792,167.641C564.595,167.641 564.389,167.571 564.207,167.509C564.121,167.48 564.042,167.453 563.976,167.438L562.474,167.435C561.224,167.115 559.53,166.504 559.523,164.939C559.335,164.677 559.302,164.385 559.267,164.076C559.242,163.861 559.216,163.638 559.148,163.427C559.043,163.099 558.928,162.757 558.81,162.406C558.53,161.573 558.24,160.711 558.041,159.911L558.044,158.452C557.927,158.059 557.742,157.66 557.564,157.276C557.385,156.891 557.217,156.527 557.116,156.198L557.12,154.281C557.001,153.986 556.781,153.732 556.568,153.486C556.336,153.218 556.097,152.942 556.005,152.673L556.01,151.315C555.882,150.886 555.706,150.446 555.529,150.003C555.325,149.493 555.113,148.965 554.99,148.508C554.836,147.94 554.863,147.294 554.889,146.67C554.914,146.069 554.94,145.448 554.805,144.896C554.67,144.345 554.534,143.686 554.401,143.035C554.288,142.484 554.176,141.939 554.066,141.468L554.069,140.101C553.975,139.775 553.867,139.445 553.755,139.105C553.562,138.517 553.362,137.91 553.234,137.389L553.237,135.374C553.118,134.96 552.959,134.533 552.799,134.103C552.616,133.609 552.426,133.099 552.309,132.661L552.22,129.348C552.099,128.779 551.943,127.391 552.033,126.866C552.066,126.674 552.1,126.418 552.136,126.146C552.188,125.75 552.245,125.321 552.31,125.016L552.22,123.321C552.334,122.807 552.446,122.176 552.561,121.533C552.688,120.82 552.818,120.091 552.958,119.455C553.033,119.115 552.972,118.711 552.918,118.355C552.879,118.096 552.842,117.852 552.867,117.687C552.935,117.222 553.133,116.767 553.343,116.286C553.733,115.391 554.175,114.376 553.883,113.017C553.777,112.523 553.793,111.977 553.81,111.4C553.828,110.766 553.848,110.11 553.698,109.492L553.496,108.658C553.342,108.026 553.181,107.363 553.051,106.805L553.054,105.344L552.986,105.052C552.576,103.366 552.221,101.911 552.037,99.866C552.009,99.548 552.174,99.053 552.321,98.616C552.392,98.405 552.458,98.206 552.497,98.044C552.672,97.323 552.716,96.557 552.758,95.815C552.796,95.148 552.832,94.518 552.96,93.964C553.161,93.089 552.87,91.391 552.59,90.12C552.459,89.523 552.45,88.87 552.443,88.237C552.435,87.619 552.428,87.034 552.313,86.506C552.095,85.499 552.312,84.941 552.54,84.35C552.682,83.982 552.83,83.601 552.87,83.105L552.879,82.997L552.778,82.997L552.678,82.904L552.435,82.904L552.401,82.959ZM601.017,103.864L601.017,103.956C600.635,104.547 600.679,105.664 600.721,106.746C600.752,107.527 600.784,108.335 600.649,108.94C600.506,109.584 600.487,110.354 600.469,111.099C600.455,111.692 600.441,112.252 600.37,112.747C600.336,112.985 600.381,113.235 600.42,113.455C600.448,113.613 600.475,113.761 600.462,113.86C600.373,114.55 600.133,115.601 599.91,116.538C599.822,116.906 599.832,117.284 599.841,117.617C599.848,117.87 599.855,118.11 599.816,118.302C599.669,119.039 599.404,119.896 599.149,120.725C598.955,121.353 598.762,121.98 598.615,122.561L598.612,124.161C598.501,124.394 598.279,124.664 598.045,124.95C597.755,125.303 597.456,125.668 597.323,126.076L597.318,127.868C597.166,128.226 596.894,128.613 596.607,129.022C596.271,129.5 595.923,129.995 595.751,130.525L595.746,132.317C595.636,132.567 595.406,132.845 595.162,133.14C594.88,133.483 594.587,133.837 594.457,134.232L594.452,135.653C594.421,135.734 594.32,135.896 594.222,136.052C594.132,136.196 594.044,136.338 593.998,136.449C593.84,136.834 593.752,137.214 593.668,137.581C593.586,137.938 593.501,138.307 593.351,138.674L593.151,139.154C592.926,139.689 592.671,140.295 592.516,140.815L592.512,141.4C592.372,141.792 592.22,142.213 592.065,142.636C591.34,144.629 590.591,146.69 590.57,149.37C589.369,150.036 588.409,151.375 587.985,152.96L587.982,154.283C587.92,154.406 587.739,154.578 587.565,154.744C587.363,154.936 587.154,155.135 587.065,155.358L587.058,158.824C584.746,160.167 584.067,161.913 583.128,164.329C582.999,164.661 582.865,165.006 582.72,165.367C582.625,165.605 582.488,165.796 582.343,165.999C582.09,166.352 581.828,166.717 581.789,167.345L581.782,167.451L582.323,167.451L582.349,167.392C582.561,166.926 582.776,166.441 582.992,165.951C583.496,164.809 584.018,163.629 584.565,162.576C584.663,162.387 584.711,162.157 584.758,161.934C584.814,161.665 584.872,161.388 585.018,161.201C585.06,161.147 585.17,161.108 585.277,161.07C585.376,161.035 585.478,160.999 585.554,160.942C585.932,160.657 587.469,159.306 587.624,158.758C587.87,158.357 587.789,157.756 587.703,157.12C587.63,156.579 587.555,156.021 587.714,155.616C587.794,155.412 587.974,155.19 588.148,154.976C588.347,154.731 588.552,154.478 588.64,154.221L588.645,153.076L588.673,152.984C588.755,152.672 589.005,151.725 589.096,151.546C589.233,151.279 589.664,150.923 590.081,150.579C590.564,150.18 591.064,149.768 591.225,149.41L591.234,147.979C591.405,147.732 591.415,147.389 591.424,147.025C591.431,146.77 591.438,146.506 591.507,146.243C591.644,145.725 591.821,145.198 592.011,144.634L592.153,144.211C592.542,143.039 592.948,141.866 593.353,140.698C593.829,139.326 594.302,137.961 594.742,136.61C594.836,136.322 594.923,136.032 594.999,135.777L595.112,135.404L595.116,134.447C595.238,134.093 595.506,133.679 595.765,133.28C595.964,132.974 596.169,132.658 596.308,132.358C596.425,132.105 596.4,131.804 596.372,131.486C596.349,131.209 596.324,130.923 596.404,130.679C596.557,130.216 596.848,129.756 597.157,129.269C597.476,128.766 597.805,128.246 597.976,127.711L597.981,126.198C598.102,125.913 598.329,125.584 598.57,125.236C598.845,124.838 599.129,124.426 599.27,124.006L599.275,122.676L599.548,121.575C599.846,120.356 600.155,119.096 600.472,117.976C600.724,117.088 600.759,116.143 600.792,115.228C600.821,114.421 600.852,113.586 601.029,112.779C601.152,112.215 601.134,111.616 601.117,110.983C601.098,110.348 601.079,109.692 601.214,109.071C601.489,107.802 601.643,104.888 601.305,103.829L601.283,103.759L601.11,103.759L601.017,103.864ZM521.048,152.065C521.115,153.51 523.715,154.118 525.435,154.52L526.024,154.661C526.27,154.722 526.542,154.724 526.805,154.724C527.132,154.726 527.441,154.727 527.669,154.838C527.861,154.932 528.013,155.142 528.173,155.364C528.366,155.632 528.567,155.908 528.874,156.045C529.665,156.396 530.537,156.424 531.595,156.424L532.797,156.424C532.841,156.453 532.931,156.541 533.027,156.635C533.162,156.767 533.316,156.917 533.508,156.976C533.878,157.089 534.23,157.095 534.57,157.101C534.937,157.107 535.283,157.113 535.626,157.251C536.019,157.409 536.441,157.612 536.876,157.821C537.504,158.122 538.153,158.434 538.775,158.643C539.239,158.799 539.694,158.818 540.134,158.836C540.565,158.854 540.972,158.871 541.361,159.012C541.653,159.118 542.019,159.21 542.399,159.305C542.915,159.434 543.448,159.567 543.85,159.751C543.989,159.815 544.125,159.929 544.27,160.051C544.429,160.185 544.594,160.323 544.776,160.401C546.152,160.989 547.885,161.33 549.53,161.336C549.92,162.016 550.876,162.735 551.719,162.999L554.707,163.004C554.863,163.057 555.106,163.189 555.387,163.342C555.953,163.651 556.658,164.035 557.34,164.035C557.692,164.035 558.008,163.931 558.281,163.724C558.368,163.608 558.374,163.588 558.395,163.47L558.41,163.386L558.345,163.271C558.194,163.219 558.111,163.193 557.858,163.174C557.629,163.298 557.458,163.351 557.271,163.351C556.834,163.351 556.408,163.054 556.096,162.837C555.969,162.748 555.857,162.671 555.768,162.628C555.443,162.468 555.04,162.394 554.503,162.394C554.226,162.394 553.94,162.413 553.653,162.432C553.372,162.45 553.091,162.469 552.82,162.469C552.429,162.469 552.128,162.43 551.872,162.345C551.43,162.199 550.612,161.695 550.348,161.36C550.302,161.3 550.258,161.23 550.213,161.159C550.096,160.973 549.964,160.762 549.751,160.679L548.605,160.672C548.337,160.599 547.976,160.535 547.599,160.468C547.056,160.372 546.495,160.273 546.048,160.121C545.604,159.97 545.192,159.729 544.793,159.496C544.404,159.268 544.037,159.053 543.645,158.917L542.698,158.819C542.415,158.726 542.082,158.611 541.747,158.496C541.317,158.349 540.883,158.199 540.498,158.081L538.996,157.985C538.439,157.801 537.849,157.513 537.278,157.234C536.695,156.949 536.145,156.681 535.599,156.506C535.363,156.431 535.102,156.421 534.877,156.421L534.388,156.427C534.152,156.427 533.883,156.415 533.666,156.324C533.59,156.292 533.496,156.171 533.413,156.064C533.314,155.937 533.221,155.817 533.113,155.769C532.931,155.687 532.689,155.649 532.349,155.649C532.08,155.649 531.784,155.673 531.487,155.697C531.197,155.721 530.908,155.744 530.648,155.744C530.392,155.744 530.197,155.721 530.053,155.672C529.973,155.645 529.869,155.614 529.753,155.58C529.436,155.486 529.001,155.358 528.781,155.219C528.635,155.126 528.539,154.964 528.439,154.793C528.303,154.562 528.149,154.299 527.836,154.189L527.155,154.183C526.639,154.017 526.005,153.907 525.334,153.79C524.369,153.622 523.372,153.449 522.671,153.082C522.451,152.967 522.302,152.794 522.144,152.61C521.906,152.334 521.66,152.048 521.163,151.959L521.04,151.937L521.048,152.065ZM579.753,127.22C579.33,127.821 579.215,128.732 579.105,129.614C579.039,130.142 578.97,130.689 578.833,131.179C578.328,132.977 578.053,135.106 577.787,137.165C577.531,139.144 577.266,141.192 576.798,142.951L576.702,145.104C576.674,145.179 576.592,145.303 576.504,145.433C576.398,145.591 576.289,145.755 576.244,145.915L576.24,147.239C576.218,147.287 576.128,147.387 576.041,147.485C575.935,147.604 575.825,147.727 575.783,147.857L575.778,149.278C575.742,149.379 575.654,149.549 575.566,149.723C575.468,149.915 575.369,150.112 575.32,150.268L575.316,150.761C575.176,151.148 574.929,151.603 574.668,152.086C574.239,152.878 573.796,153.696 573.745,154.461L573.738,154.568L574.293,154.568L574.312,154.492C574.491,153.78 574.876,153.003 575.249,152.251C575.549,151.646 575.859,151.02 576.066,150.422C576.157,150.157 576.233,149.84 576.302,149.553C576.349,149.355 576.393,149.171 576.437,149.029L576.441,147.887C576.469,147.814 576.582,147.658 576.681,147.521C576.773,147.394 576.859,147.274 576.895,147.182L576.902,146.034C576.947,145.883 577.049,145.639 577.148,145.405C577.233,145.2 577.316,145.002 577.36,144.859L577.364,143.625C577.63,142.534 577.79,141.262 577.944,140.033C578.105,138.752 578.272,137.427 578.563,136.235L578.658,134.362C579.16,132.761 580.104,129.736 580.137,127.129L580.138,127.027L579.752,127.027L579.752,127.22L579.753,127.22ZM578.553,79.49C578.553,80.322 578.245,80.806 577.92,81.318C577.712,81.645 577.497,81.983 577.355,82.423C576.976,83.601 577.223,86.775 577.445,87.758L577.443,90.517C577.469,90.633 577.529,90.781 577.59,90.928C577.646,91.064 577.702,91.199 577.723,91.283L577.72,93.019C577.85,93.534 578.102,93.999 578.345,94.45C578.533,94.797 578.71,95.125 578.836,95.464C579.068,96.091 579.124,96.772 579.184,97.493C579.227,98.013 579.271,98.55 579.387,99.066C579.549,99.782 579.415,101.087 579.295,101.617C579,102.914 579,105.187 579.295,106.481L579.293,108.313C579.42,108.821 579.545,109.362 579.673,109.916C579.904,110.915 580.144,111.949 580.406,112.792L580.494,116.286C580.632,116.921 580.614,117.767 580.597,118.586C580.592,118.847 580.586,119.103 580.586,119.342L580.586,125.281L580.786,125.281L580.879,125.181C581.107,124.737 581.2,124.134 581.29,123.55C581.351,123.157 581.413,122.751 581.52,122.432L581.784,121.647C582.351,119.956 582.959,118.143 583.554,116.502L583.744,115.185C583.833,114.938 584.007,114.528 584.163,114.162C584.247,113.962 584.327,113.776 584.385,113.633C584.578,113.155 584.644,112.534 584.707,111.934C584.787,111.18 584.87,110.401 585.205,109.948C585.262,109.912 585.334,109.879 585.402,109.847C585.521,109.792 585.644,109.735 585.76,109.576C586.016,109.225 586.061,108.311 586.105,107.427C586.133,106.862 586.159,106.328 586.238,106.02C586.278,105.864 586.327,105.691 586.381,105.505C586.672,104.483 587.071,103.082 586.698,101.978C586.618,101.741 586.472,101.52 586.317,101.285C586.135,101.01 585.947,100.726 585.868,100.41C585.6,99.341 585.883,98.625 586.181,97.868C586.449,97.191 586.725,96.49 586.61,95.51C586.583,95.28 586.542,95.02 586.498,94.742C586.342,93.76 586.148,92.536 586.422,91.563C586.839,90.085 587.466,88.675 588.072,87.312C588.36,86.665 588.647,86.018 588.914,85.363L589.105,84.23C589.375,83.462 590.324,81.203 590.84,80.569C591.307,79.996 592.043,79.663 592.756,79.341C593.524,78.994 594.318,78.636 594.818,77.97C594.922,77.833 595.074,77.722 595.221,77.616C595.381,77.501 595.545,77.382 595.653,77.225C595.793,77.021 595.852,76.789 595.909,76.564C595.981,76.282 596.049,76.015 596.275,75.86C596.426,75.756 596.653,75.666 596.893,75.569C597.661,75.262 598.712,74.841 598.255,73.52C598.098,73.066 597.696,72.661 597.308,72.269C597.06,72.019 596.827,71.783 596.672,71.551C596.567,71.392 596.512,71.214 596.455,71.025C596.396,70.828 596.334,70.624 596.209,70.439C595.717,69.712 594.501,69.034 593.655,68.822C593.466,68.775 593.231,68.752 592.936,68.752C592.546,68.752 592.101,68.792 591.655,68.832C591.214,68.872 590.772,68.912 590.383,68.912C589.931,68.912 589.619,68.856 589.429,68.741C589.149,68.636 589.063,68.459 588.955,68.236C588.891,68.104 588.824,67.967 588.714,67.836C588.607,67.707 588.451,67.614 588.301,67.524C588.134,67.425 587.976,67.331 587.89,67.196C587.348,66.355 587.508,65.558 587.695,64.635C587.794,64.147 587.895,63.642 587.906,63.082L587.907,63.009L587.56,62.892C587.477,62.832 587.351,62.797 587.198,62.797C587.062,62.797 586.918,62.825 586.777,62.853L586.503,62.901L586.503,63.172C586.26,63.414 586.194,63.854 586.131,64.28C586.09,64.552 586.048,64.834 585.955,65.083C585.539,66.196 584.466,67.132 583.154,67.525C582.49,67.724 581.152,67.874 580.042,67.874C579.345,67.874 578.778,67.817 578.403,67.71C578.218,67.657 577.939,67.539 577.611,67.401C576.855,67.084 575.82,66.649 575.093,66.649C574.964,66.649 574.847,66.663 574.745,66.69C574.383,66.785 573.95,67.065 573.567,67.312C573.383,67.431 573.209,67.544 573.058,67.625C572.926,67.697 572.781,67.767 572.632,67.84C571.933,68.181 571.14,68.567 570.974,69.361C571.161,69.66 571.264,69.919 571.373,70.192C571.472,70.44 571.574,70.695 571.729,70.921C571.874,71.132 572.096,71.278 572.31,71.419C572.478,71.53 572.637,71.635 572.754,71.765C573.01,72.05 573.275,72.641 573.53,73.214C573.708,73.612 573.876,73.988 574.037,74.254C575.42,76.518 576.658,78.173 577.934,79.462L578.553,79.49ZM597.128,80.676C597.867,80.676 599.595,81.018 600.07,81.158C600.303,81.227 600.559,81.294 600.824,81.363C601.611,81.568 602.501,81.801 603.096,82.167C603.277,82.278 603.458,82.411 603.645,82.546C603.972,82.784 604.311,83.03 604.68,83.193C605.252,83.446 605.801,83.682 606.336,83.911C607.592,84.45 608.778,84.958 610.037,85.6C610.318,85.744 610.604,85.922 610.896,86.104C611.309,86.361 611.736,86.626 612.169,86.809C612.794,87.071 613.495,87.234 614.173,87.392C614.635,87.5 615.089,87.605 615.505,87.739L617.194,87.836C618.298,88.13 620.074,88.448 621.692,88.448C623.466,88.448 624.626,88.072 625.138,87.329C626.162,85.851 626.006,82.664 625.643,80.796C625.685,80.797 625.728,80.797 625.772,80.797C626.658,80.797 627.21,80.581 627.369,80.172C627.817,79.503 627.432,78.3 627.201,77.581C627.169,77.482 627.14,77.394 627.119,77.32L627.147,77.308C627.404,77.202 627.509,77.142 627.561,76.718L627.57,76.639L627.495,76.612C627.345,76.558 627.302,76.542 627.105,76.514C626.323,77.194 624.038,77.487 622.084,77.487C621.041,77.487 620.102,77.405 619.438,77.258C618.692,77.091 618.01,76.978 617.106,76.977L615.257,76.977C614.356,76.736 613.371,76.578 612.419,76.424C611.469,76.271 610.485,76.112 609.55,75.868L606.937,75.865C606.552,75.745 606.158,75.62 605.77,75.496C604.023,74.938 602.372,74.412 599.819,74.382L599.718,74.381L599.718,74.859L599.817,74.86C601.88,74.876 603.624,75.475 605.31,76.055C605.787,76.219 606.255,76.38 606.722,76.524L611.276,76.806C611.875,76.961 612.535,77.091 613.2,77.222C613.853,77.35 614.512,77.48 615.139,77.638L617.937,77.641C618.201,77.709 618.603,77.769 619.007,77.83C619.381,77.887 619.757,77.943 620.042,78.009L621.728,78.011C622.123,78.1 622.912,78.199 623.66,78.199C624.092,78.199 624.445,78.166 624.711,78.101C624.958,78.041 625.199,77.957 625.444,77.872C625.817,77.742 626.201,77.608 626.621,77.559L626.621,77.634C626.876,78.037 626.844,78.861 626.818,79.522L626.805,79.851L626.713,79.951C624.294,80.264 621.381,80.606 618.533,80.606C616.452,80.606 614.674,80.416 613.248,80.04L612.113,80.037C611.672,79.933 611.191,79.884 610.682,79.832C610.126,79.776 609.551,79.718 608.994,79.577C608.519,79.457 608.014,79.34 607.498,79.222C606.496,78.991 605.461,78.752 604.563,78.467C604.317,78.389 604.121,78.382 603.931,78.374C603.745,78.367 603.571,78.359 603.366,78.283C603.024,78.158 602.679,78.019 602.329,77.878C600.939,77.32 599.503,76.744 597.786,76.701C597.636,76.834 597.636,76.834 597.556,76.894L597.498,76.937L597.504,77.018L597.619,77.364L597.692,77.364C599.352,77.364 600.768,77.942 602.137,78.501C602.689,78.727 603.228,78.946 603.762,79.12C604.257,79.281 604.722,79.32 605.172,79.359C605.609,79.396 606.059,79.434 606.536,79.584C607.468,79.876 608.585,80.072 609.666,80.262C610.429,80.396 611.193,80.531 611.904,80.698L613.13,80.701C614.553,81.079 616.089,81.257 617.937,81.257C618.348,81.257 618.784,81.264 619.231,81.271C619.706,81.278 620.193,81.286 620.68,81.286C622.168,81.286 623.83,81.221 624.968,80.747C624.992,81.003 625.022,81.268 625.051,81.541C625.257,83.433 625.489,85.577 624.605,86.845C624.17,87.468 623.185,87.784 621.675,87.784C619.871,87.784 617.882,87.319 617.316,87.176L615.726,87.081C615.33,86.959 614.884,86.848 614.433,86.735C613.585,86.524 612.709,86.305 611.968,85.977C611.173,85.623 610.369,85.15 609.592,84.692C608.799,84.225 607.98,83.742 607.161,83.381C606.746,83.198 606.328,83.057 605.914,82.917C605.352,82.728 604.822,82.548 604.302,82.272C604.119,82.175 603.925,82.011 603.738,81.852C603.556,81.698 603.375,81.545 603.197,81.44C602.773,81.192 602.142,81.01 601.585,80.85C601.39,80.794 601.207,80.741 601.052,80.69C599.952,80.332 598.716,80.143 597.478,80.143C595.76,80.143 594.113,80.504 592.84,81.16C592.723,81.22 592.596,81.279 592.465,81.339C591.808,81.641 590.991,82.017 590.937,82.911L590.93,83.017L591.465,83.017L591.494,82.966C592.195,81.712 594.122,81.299 595.822,80.935C596.187,80.857 596.546,80.78 596.885,80.697C596.941,80.683 597.022,80.676 597.128,80.676ZM555.718,55.927C555.707,55.993 555.695,56.019 555.687,56.036C555.653,56.112 555.669,56.147 555.719,56.25C556.46,57.041 557.46,57.461 558.427,57.868C559.131,58.164 559.859,58.47 560.474,58.9C561.837,59.853 562.97,61.085 564.066,62.277C565.091,63.392 566.152,64.545 567.406,65.479C567.6,65.624 567.831,65.837 568.084,66.07C568.7,66.638 569.467,67.345 570.132,67.445L570.215,67.457L570.347,67.06L570.239,66.967C570.08,66.618 568.725,65.605 567.351,64.601C567.064,64.392 566.83,64.22 566.695,64.115C566.043,63.605 565.507,62.898 564.989,62.213C564.467,61.523 563.927,60.81 563.274,60.314C562.909,60.037 562.551,59.727 562.192,59.415C561.647,58.941 561.083,58.452 560.491,58.084C560.13,57.859 559.741,57.73 559.364,57.604C559.062,57.503 558.749,57.399 558.451,57.246C558.126,57.079 557.811,56.895 557.494,56.71C556.979,56.41 556.446,56.099 555.855,55.852L555.74,55.804L555.718,55.927Z" style="fill-rule:nonzero;"/>
    </g>
</svg>
