<?xml version="1.0" encoding="UTF-8" standalone="no"?>
<!DOCTYPE svg PUBLIC "-//W3C//DTD SVG 1.1//EN" "http://www.w3.org/Graphics/SVG/1.1/DTD/svg11.dtd">
<svg width="100%" height="100%" viewBox="0 0 137 278" version="1.1" xmlns="http://www.w3.org/2000/svg" xmlns:xlink="http://www.w3.org/1999/xlink" xml:space="preserve" xmlns:serif="http://www.serif.com/" style="fill-rule:evenodd;clip-rule:evenodd;stroke-linejoin:round;stroke-miterlimit:1.41421;">
    <g transform="matrix(1,0,0,1,-1134.02,-13.028)">
        <path d="M1228.8,221.833C1228.83,217.616 1228.86,213.397 1228.89,209.178C1228.89,206.013 1228.71,202.736 1229.31,200.067C1229.42,198.548 1229.53,197.03 1229.65,195.511C1230,193.912 1229.78,192.01 1230.15,190.365C1230.3,189.711 1230.11,188.808 1230.24,188.256C1230.24,187.553 1230.24,186.85 1230.24,186.147C1230.5,184.938 1230.33,183.525 1230.4,182.182C1230.43,181.765 1230.61,181.107 1230.49,180.579C1229.7,177.212 1229.54,173.485 1228.72,170.117C1228.55,168.88 1228.38,167.642 1228.21,166.405C1227.62,164.096 1226.85,161.768 1226.28,159.488C1226.3,158.504 1226.33,157.519 1226.36,156.535C1226.39,155.073 1226.42,153.61 1226.44,152.148C1226.96,150.263 1227.64,148.41 1228.13,146.411C1228.42,145.195 1228.58,143.516 1228.3,142.277C1228.21,141.897 1227.85,140.487 1227.96,140.083C1228.58,138.93 1229.2,137.777 1229.81,136.624C1229.9,135.921 1229.98,135.218 1230.07,134.515C1230.15,134.141 1230.43,133.368 1230.32,132.912C1230.19,132.4 1229.86,131.737 1229.65,131.224C1228.5,131.674 1227.34,132.124 1226.19,132.574C1226.19,132.771 1226.19,132.968 1226.19,133.165C1225.84,133.754 1226.13,135.843 1225.94,136.708C1225.44,138.968 1225.84,141.626 1225.35,143.879C1225.35,144.301 1225.35,144.723 1225.35,145.145C1224.9,148.941 1224.45,152.738 1224,156.535C1223.76,157.625 1223.98,158.873 1223.75,159.91C1223.75,160.332 1223.75,160.754 1223.75,161.176C1223.39,162.829 1223.69,164.841 1223.33,166.491C1223.33,166.941 1223.33,167.391 1223.33,167.841C1222.79,170.303 1223.28,173.223 1222.74,175.687C1222.71,178.359 1222.68,181.031 1222.65,183.702C1222.34,185.092 1222.04,186.348 1221.64,187.583C1220.99,189.607 1220.61,191.651 1220.04,193.657C1219.85,194.346 1219.79,195.973 1219.37,196.357C1218.96,196.638 1218.38,196.606 1217.85,196.778C1216.87,197.101 1215.74,197.545 1214.65,197.706C1214.59,198.371 1214.25,199.006 1214.06,199.562C1213.5,201.213 1213.08,202.882 1212.54,204.456C1211.17,208.502 1210.33,212.592 1208.75,216.436C1207.84,218.664 1206.66,221.076 1205.97,223.438C1205.95,224.9 1205.92,226.362 1205.89,227.826C1205.32,230.379 1205.98,233.633 1205.38,236.178C1205.36,237.303 1205.33,238.428 1205.3,239.553C1203.99,244.723 1203.29,250.241 1201.93,255.413C1201.82,256.342 1201.71,257.269 1201.59,258.197C1201.09,260.314 1200.99,262.735 1200.5,264.862C1200.32,265.632 1200.91,267.494 1201.09,268.153C1201.87,270.988 1202.27,273.937 1203.7,276.084C1203.83,276.279 1203.87,276.605 1204.04,276.759C1204.35,276.871 1204.65,276.984 1204.96,277.097C1205.42,277.378 1205.93,277.853 1206.48,278.025C1207.28,278.275 1208.06,278.08 1208.84,278.361C1209.43,278.575 1210.11,279.175 1210.61,279.543C1210.87,279.738 1211.75,281.239 1211.62,281.398C1211.36,281.786 1210.92,281.994 1210.61,282.327C1208.09,282.281 1206.47,282.893 1204.63,283.423C1203.23,283.826 1201.75,283.942 1200.42,284.267C1199.27,284.295 1198.11,284.323 1196.96,284.351C1195.05,284.778 1192.55,284.514 1190.39,284.519C1189.61,283.704 1188.82,282.888 1188.03,282.073C1188,281.163 1187.5,279.876 1187.61,279.12C1187.76,278.108 1188.58,276.563 1188.88,275.492C1189.8,272.192 1189.55,267.633 1189.55,263.428C1189.55,261.657 1189.55,259.884 1189.55,258.113C1189.2,256.464 1189.32,254.53 1188.96,252.881C1188.93,252.319 1188.9,251.756 1188.88,251.194C1188.46,249.276 1188.62,247.04 1188.2,245.119C1188.06,244.463 1188.24,243.561 1188.12,243.011C1188.12,242.195 1188.12,241.379 1188.12,240.564C1187.77,238.884 1187.86,235.449 1188.2,233.898C1188.26,233.026 1188.32,232.154 1188.37,231.282C1188.74,229.957 1189.37,228.54 1189.8,227.232C1190.09,226.365 1190.17,225.512 1190.48,224.701C1190.45,224.701 1190.42,224.701 1190.39,224.701C1190.04,225.233 1189.39,225.664 1188.88,226.052C1188.13,226.617 1187.54,227.409 1186.77,227.991C1186.49,228.301 1186.21,228.611 1185.93,228.92C1184.27,230.178 1182.96,231.797 1181.3,233.053C1180.49,233.66 1179.91,234.64 1179.11,235.247C1177.18,236.709 1175.65,238.593 1173.71,240.056C1173.23,240.425 1172.86,241.036 1172.37,241.406C1170.97,242.468 1169.79,243.819 1168.41,244.866C1166.33,246.435 1164.16,248.271 1162.6,250.348C1161.67,251.248 1160.74,252.148 1159.82,253.049C1158.09,255.35 1156.24,257.401 1154.68,259.883C1154.07,260.851 1153.41,261.88 1152.74,262.835C1152.35,263.395 1151.65,263.943 1151.39,264.607C1151.1,265.372 1151.14,266.096 1150.89,266.885C1150.57,267.881 1150.22,269.063 1149.96,270.092C1149.9,270.906 1149.85,271.723 1149.79,272.538C1149.58,273.507 1149.69,274.62 1149.45,275.66C1149.37,276.017 1149.17,276.84 1149.29,277.094C1149.96,277.824 1150.63,278.556 1151.31,279.287C1151.7,279.571 1152.27,279.683 1152.49,280.13C1152.17,280.467 1152.13,281.06 1151.81,281.396C1151.43,281.8 1150.7,281.943 1150.21,282.24C1148.73,283.145 1147.25,283.804 1144.91,283.674C1144.4,283.674 1143.89,283.674 1143.39,283.674C1142.41,283.36 1141.58,282.445 1140.53,282.155C1140.42,281.322 1139.96,280.609 1139.77,279.877C1139.52,278.963 1139.79,277.714 1139.6,276.84C1139.54,275.321 1139.49,273.803 1139.43,272.284C1139.4,271.693 1139.37,271.103 1139.35,270.512C1138.78,268.741 1137.33,266.467 1136.31,265.028C1135.25,263.522 1133.86,261.676 1134.04,259.206C1134.72,258.665 1134.85,257.421 1135.56,256.928C1137.18,255.795 1139.67,255.395 1141.71,254.735C1142.21,254.623 1142.72,254.509 1143.22,254.397C1143.64,254.226 1143.85,253.689 1144.15,253.385C1144.85,252.795 1145.55,252.204 1146.25,251.613C1147.71,249.615 1148.88,247.483 1150.3,245.455C1152.71,242.011 1155.2,238.48 1157.46,234.909C1158.32,233.549 1159.05,232.16 1159.98,230.859C1160.31,230.413 1160.83,230.036 1161.16,229.594C1162.26,228.119 1163.43,226.767 1164.53,225.292C1165.43,224.092 1166.78,223.311 1167.99,222.423C1169.64,221.206 1171.19,219.726 1172.87,218.542C1173.67,217.977 1174.45,217.401 1175.23,216.854C1175.56,216.625 1176.01,216.494 1176.24,216.18C1178.12,213.651 1179.86,210.336 1181.04,207.153C1181.35,205.466 1181.66,203.778 1181.97,202.09C1181.91,202.09 1181.86,202.09 1181.8,202.09C1181.16,202.684 1180.21,202.887 1179.44,203.356C1178.33,204.031 1177.11,204.481 1175.82,205.043C1175.27,205.284 1174.73,205.686 1174.05,205.802C1173.37,205.214 1171.51,204.83 1170.6,204.452C1171.38,202.371 1172.17,200.289 1172.96,198.209C1172.93,198.209 1172.9,198.209 1172.87,198.209C1172.11,199.173 1170.63,199.562 1169.92,200.571C1169.9,200.571 1169.87,200.571 1169.84,200.571C1169.84,200.543 1169.84,200.515 1169.84,200.486C1169,199.949 1168.5,199.045 1167.73,198.462C1167.35,198.172 1166.99,197.938 1166.72,197.534C1168.73,197.045 1170.35,195.517 1172.37,195.003C1172.37,194.975 1172.37,194.947 1172.37,194.919C1170.85,195.256 1169.34,195.594 1167.82,195.932C1167.53,195.866 1167.08,195.542 1166.81,195.426C1165.8,195 1164.8,194.646 1163.86,194.245C1163.25,193.987 1161.46,193.585 1161.25,193.064C1162.05,192.526 1162.69,191.472 1163.27,190.702C1164.44,189.147 1166.06,187.866 1167.14,186.23C1167.12,186.23 1167.09,186.23 1167.06,186.23C1166.27,187.066 1165.21,187.731 1164.28,188.424C1163.79,188.787 1163.3,189.504 1162.76,189.774C1161.5,189.915 1160.24,190.055 1158.97,190.196C1158.97,190.14 1158.97,190.083 1158.97,190.027C1159.38,189.559 1159.47,188.785 1159.73,188.171C1160.08,187.357 1160.73,186.337 1160.91,185.471C1161.05,184.832 1160.74,183.842 1160.74,183.109C1161.7,182.459 1162.81,180.93 1163.52,179.987C1164.38,178.857 1165.52,177.932 1166.38,176.781C1166.61,176.584 1166.84,176.387 1167.06,176.19C1167.41,175.677 1167.53,175.056 1167.82,174.503C1168.62,172.959 1169.36,171.358 1170.18,169.779C1172.36,165.568 1174.53,161.336 1176.49,156.871C1177.14,155.395 1178.06,153.906 1178.68,152.399C1179.15,151.265 1179.3,150.125 1179.69,148.94C1180.96,145.146 1182.1,141.113 1183.82,137.804C1185.8,133.986 1187.78,130.213 1189.55,126.161C1189.94,125.268 1191.37,123.434 1191.07,122.111C1190.94,121.571 1191.09,120.628 1190.9,120.086C1190.48,118.912 1189.7,117.717 1189.13,116.627C1188.13,114.719 1187.36,112.777 1186.27,110.974C1185.7,110.047 1184.94,109.022 1184.5,108.021C1184.09,107.094 1183.96,106.197 1183.57,105.237C1183.25,104.45 1182.43,103.776 1181.8,103.297C1181.6,103.149 1181.23,103.011 1181.13,102.791C1181.13,102.116 1181.13,101.441 1181.13,100.766C1181.01,100.562 1181.13,100.22 1181.04,99.922C1180.89,99.38 1180.67,98.742 1180.45,98.15C1180.1,97.193 1179.64,96.091 1179.36,95.113C1179.24,93.988 1179.13,92.863 1179.02,91.738C1178.71,90.488 1178.36,89.263 1178.18,87.857C1176.8,87.966 1175.3,87.857 1173.88,87.857C1173.36,87.857 1172.38,87.995 1172.03,87.773C1172.08,87.773 1172.14,87.773 1172.19,87.773C1172.53,87.486 1175.03,86.652 1175.56,86.507C1175.56,86.479 1175.56,86.451 1175.56,86.423C1175.24,86.436 1174.75,86.468 1174.55,86.339C1176.1,86.256 1176.81,85.241 1177.75,84.568C1177.75,84.54 1177.75,84.512 1177.75,84.484C1177.7,84.484 1177.64,84.484 1177.59,84.484C1177.35,84.636 1175.34,84.971 1175.23,84.906C1175.28,84.906 1175.34,84.906 1175.4,84.906C1175.74,84.587 1176.28,84.509 1176.66,84.231C1177.12,83.898 1177.35,83.278 1177.76,82.881C1177.74,81.662 1177.97,80.828 1178.01,79.759C1177.98,79.759 1177.95,79.759 1177.92,79.759C1177.92,79.815 1177.92,79.871 1177.92,79.927C1177.5,80.341 1177.24,80.942 1176.74,81.278C1176.74,81.193 1176.74,81.109 1176.74,81.025C1177.15,80.44 1177.57,78.819 1177.67,77.988C1177.64,77.988 1177.62,77.988 1177.59,77.988C1177.48,78.837 1176.94,79.491 1176.58,80.097C1176.29,80.57 1176.19,81.072 1175.9,81.532C1175.33,82.437 1174.57,83.363 1174.05,84.316C1173.59,85.155 1173.34,85.96 1172.11,86.004C1172.11,85.976 1172.11,85.948 1172.11,85.92C1172.14,85.92 1172.17,85.92 1172.19,85.92C1172.57,85.558 1173.16,85.424 1173.46,84.992C1175.08,82.667 1176.09,79.822 1177.25,77.061C1177.22,77.061 1177.19,77.061 1177.16,77.061C1176.61,77.613 1175.79,77.865 1175.14,78.327C1173.98,79.159 1172.93,80.177 1171.6,80.858C1171.6,80.802 1171.6,80.745 1171.6,80.689C1172.06,80.379 1172.37,79.949 1172.7,79.508C1173.27,78.745 1174.03,78.07 1174.55,77.23C1174.94,76.598 1175.05,75.896 1175.4,75.205C1175.81,74.37 1176.48,73.417 1176.58,72.336C1176.39,72.19 1176.34,71.975 1176.15,71.83C1176.08,71.739 1176.16,71.823 1176.07,71.746C1175.92,72.78 1175.15,73.496 1174.64,74.192C1173.6,75.609 1172.5,76.6 1171.1,77.651C1170.44,78.148 1169.94,78.865 1169.16,79.254C1169.16,79.198 1169.16,79.141 1169.16,79.085C1170.57,78.067 1172.52,74.951 1173.04,73.011C1173.01,73.011 1172.98,73.011 1172.95,73.011C1172.95,73.038 1172.95,73.067 1172.95,73.095C1172.39,73.663 1172,74.476 1171.52,75.12C1171.08,75.711 1170.36,76.14 1169.92,76.723C1169.6,77.152 1169.32,77.563 1168.82,77.82C1168.82,77.764 1168.82,77.708 1168.82,77.652C1169.35,77.286 1169.51,76.616 1169.92,76.133C1170.77,75.136 1171.88,74 1172.28,72.59C1172.25,72.59 1172.22,72.59 1172.19,72.59C1171.95,72.965 1171.62,73.163 1171.27,73.433C1170.99,73.643 1170.86,74.066 1170.59,74.277C1169.55,75.102 1169.06,75.295 1167.64,75.796C1167.2,75.953 1165.93,76.453 1165.29,76.049C1165.34,76.049 1165.4,76.049 1165.46,76.049C1165.86,75.693 1166.59,75.665 1167.06,75.375C1167.95,74.815 1168.63,73.728 1169.67,73.35C1169.67,73.322 1169.67,73.294 1169.67,73.266C1169.38,73.347 1169,73.619 1168.82,73.519C1168.8,73.519 1168.77,73.519 1168.74,73.519C1168.74,73.49 1168.74,73.462 1168.74,73.434C1169.66,73.097 1171.07,70.424 1171.52,69.469C1171.49,69.469 1171.46,69.469 1171.43,69.469C1170.6,70.733 1169.25,71.305 1167.64,71.831C1167.25,71.962 1166.39,72.482 1165.96,72.253C1166.02,72.253 1166.07,72.253 1166.13,72.253C1166.38,72.074 1166.64,72.129 1166.97,72C1167.83,71.667 1168.82,71.054 1169.5,70.481C1170.38,69.735 1170.85,68.496 1171.77,67.781C1171.77,67.753 1171.77,67.725 1171.77,67.697C1171.71,67.697 1171.66,67.697 1171.6,67.697C1171.12,68.133 1168.73,68.89 1167.98,69.131C1167.65,69.237 1167.13,69.357 1166.89,69.215C1166.94,69.215 1167,69.215 1167.05,69.215C1167.7,68.601 1168.82,68.348 1169.58,67.865C1170.84,67.069 1171.98,66.09 1172.87,64.912C1173.17,64.631 1173.48,64.349 1173.79,64.068C1174.02,62.324 1174.24,60.581 1174.47,58.838C1174.44,58.838 1174.41,58.838 1174.38,58.838C1174.38,58.866 1174.38,58.894 1174.38,58.922C1172.24,60.909 1170.45,63.244 1167.9,64.828C1167.41,65.128 1166.83,65.174 1166.3,65.419C1165.75,65.668 1165.31,66.148 1164.61,66.263C1164.61,66.235 1164.61,66.206 1164.61,66.179C1164.64,66.179 1164.67,66.179 1164.69,66.179C1165.31,65.558 1166.35,65.265 1167.05,64.745C1169.08,63.243 1171.01,61.455 1172.53,59.43C1173.1,58.667 1174.26,57.912 1174.72,57.068C1174.91,56.196 1175.11,55.324 1175.31,54.453C1175.28,54.453 1175.25,54.453 1175.22,54.453C1174.17,55.73 1172.45,56.247 1170.93,57.068C1169.91,57.618 1168.75,58.299 1167.56,58.671C1167.08,58.819 1164.54,59.277 1164.36,59.177C1164.89,59.139 1165.3,58.891 1165.71,58.755C1166.54,58.475 1167.25,58.469 1168.06,58.165C1169.74,57.543 1171.42,56.671 1172.7,55.634C1172.87,55.494 1173.11,55.508 1173.29,55.381C1173.74,55.067 1175.5,53.594 1175.73,53.188C1175.79,52.879 1175.84,52.569 1175.9,52.26C1176.25,51.164 1176.44,49.979 1176.82,48.801C1177.04,48.149 1177.13,47.322 1177.41,46.607C1177.9,45.398 1178.94,44.105 1179.44,42.895C1179.64,42.392 1179.5,41.522 1179.69,41.039C1179.73,40.938 1179.97,40.738 1180.03,40.617C1180.26,40.058 1180.3,39.564 1180.62,39.098C1180.91,38.662 1181.44,38.393 1181.88,38.085C1183.38,37.039 1184.51,36.849 1186.85,37.242C1187.37,37.328 1188.05,37.093 1188.7,37.242C1189.22,37.359 1190.87,37.785 1191.4,37.664C1191.82,37.467 1192.24,37.27 1192.66,37.073C1193.21,36.914 1193.93,37.013 1194.43,36.905C1195.27,36.722 1195.91,37.38 1196.62,37.242C1197.08,37.153 1197.89,36.566 1198.31,36.736C1199.51,37.123 1200.41,38.081 1201.34,38.761C1204.87,41.356 1206.67,44.418 1207.82,49.391C1207.99,50.109 1207.68,50.65 1207.65,51.247C1208.07,51.537 1208.24,52.066 1208.58,52.428C1209.49,53.388 1211.11,54.172 1211.11,55.971C1210.93,56.086 1210.92,56.28 1210.77,56.393C1210.28,56.771 1209.59,56.694 1209.51,57.49C1210.16,57.9 1210.46,58.291 1210.43,59.43C1210.21,59.664 1209.95,60.22 1209.84,60.527C1210.21,60.764 1210.28,61.078 1210.27,61.708C1209.82,62.156 1209.33,62.832 1209.34,63.733C1209.89,64.552 1209.44,65.983 1209.17,66.602C1208.65,66.855 1208.01,67.19 1207.4,67.361C1206.72,67.551 1205.92,67.48 1205.3,67.614C1204.73,67.735 1203.97,67.54 1203.53,67.445C1202.84,67.299 1201.96,67.499 1201.51,67.614C1200.99,68.728 1200.34,69.439 1200.33,71.072C1204.45,73.074 1212,71.864 1215.99,70.65C1217.29,70.257 1218.5,70.007 1219.61,69.553C1221.07,68.957 1222.16,68.799 1223.32,67.95C1224.18,67.324 1224.95,66.188 1225.6,65.335C1225.96,64.998 1226.32,64.66 1226.69,64.323C1227.48,63.508 1228.26,62.691 1229.05,61.876C1230.36,60.559 1231.71,59.243 1232.84,57.742C1233.26,57.178 1234.02,56.783 1234.27,56.055C1234.12,55.974 1234.13,55.949 1233.93,55.886C1233.58,56.163 1233.06,56.137 1232.59,56.308C1230.74,56.972 1229.14,57.197 1228.04,55.549C1227.52,54.774 1227.68,53.573 1227.28,52.765C1226.74,51.691 1225.68,52.441 1225.68,50.74C1225.4,50.768 1225.12,50.797 1224.84,50.824C1224.6,50.448 1224.57,49.992 1224.58,49.305C1224.44,49.152 1224.34,48.916 1224.25,48.714C1223.58,49.028 1223.22,49.381 1222.22,49.389C1221.78,49.01 1221.25,49.115 1221.21,48.292C1220.99,47.921 1221.21,46.856 1221.3,46.436C1221.54,45.292 1221.3,44.31 1221.55,43.229C1221.65,42.766 1221.96,41.983 1221.8,41.373C1221.78,41.28 1221.45,40.141 1221.38,40.023C1221.18,39.654 1220.57,39.38 1220.37,39.01C1219.85,38.057 1220.03,35.646 1220.03,34.201C1218.84,33.601 1218.83,32.15 1218.85,30.32C1218.83,30.32 1218.8,30.32 1218.77,30.32C1218.77,30.376 1218.77,30.432 1218.77,30.489C1218.44,30.85 1218.63,31.474 1218.35,31.923C1218.33,31.396 1218.19,30.426 1217.93,30.067C1217.91,30.552 1217.75,31.205 1217.51,31.501C1217.5,31.223 1217.46,30.988 1217.34,30.826C1217.34,30.882 1217.34,30.938 1217.34,30.995C1217.04,31.234 1216.85,31.744 1216.75,32.176C1216.72,32.176 1216.69,32.176 1216.66,32.176C1216.66,32.008 1216.66,31.839 1216.66,31.67C1217.15,31.033 1217.37,29.46 1217.42,28.38C1217.39,28.38 1217.36,28.38 1217.34,28.38C1217.08,28.705 1216.65,28.789 1216.49,29.224C1216.47,29.224 1216.44,29.224 1216.41,29.224C1216.41,29.055 1216.41,28.887 1216.41,28.718C1216.59,28.488 1216.58,28.129 1216.75,27.875C1217.09,27.345 1217.78,26.987 1218.01,26.356C1217.39,26.356 1216.78,26.356 1216.16,26.356C1216.16,26.328 1216.16,26.3 1216.16,26.272C1216.18,26.272 1216.21,26.272 1216.24,26.272C1216.83,25.824 1217.78,25.92 1218.43,25.513C1218.71,25.339 1218.93,24.948 1219.19,24.754C1219.8,24.298 1220.43,23.946 1221.04,23.488C1221.32,23.178 1221.61,22.869 1221.88,22.56C1222.83,21.845 1223.88,20.892 1224.58,19.945C1225.15,19.17 1225.73,18.211 1226.52,17.667C1226.84,17.442 1227.21,17.385 1227.53,17.161C1228.02,16.816 1228.47,16.23 1229.04,15.98C1229.57,15.755 1230.36,15.796 1230.82,15.474C1230.38,15.472 1229.59,15.426 1229.3,15.221C1229.21,15.144 1229.29,15.228 1229.21,15.136C1229.99,15.047 1230.69,14.661 1231.4,14.461C1232.61,14.264 1233.82,14.067 1235.03,13.871C1235.03,13.843 1235.03,13.815 1235.03,13.787C1234.5,13.669 1233.64,13.354 1233.26,13.028C1234.79,13.106 1236.42,13.547 1237.81,13.872C1238.37,13.872 1238.93,13.872 1239.49,13.872C1240.04,14.011 1240.75,14.151 1241.34,14.378C1242.09,14.665 1242.74,15.301 1243.45,15.56C1243.45,15.504 1243.45,15.447 1243.45,15.391C1243.22,15.148 1243.08,14.695 1243.03,14.294C1243.06,14.294 1243.08,14.294 1243.11,14.294C1243.81,14.969 1244.88,15.193 1245.47,15.981C1245.72,16.317 1245.77,17.04 1246.23,17.162C1246.82,16.965 1247.41,16.768 1248,16.572C1248,16.628 1248,16.684 1248,16.74C1247.71,17.006 1247.07,18.051 1247.49,18.681C1247.75,19.538 1248.56,20.308 1249.01,21.043C1249.63,22.06 1249.78,23.221 1250.27,24.418C1250.7,25.454 1251.15,26.578 1251.45,27.793C1251.48,28.44 1251.51,29.087 1251.54,29.734C1251.88,31.269 1251.74,32.933 1251.37,34.121C1251.37,34.993 1251.37,35.865 1251.37,36.736C1251.29,36.976 1251.02,37.324 1250.95,37.579C1250.95,38.142 1250.95,38.704 1250.95,39.267C1250.71,40.13 1250.53,41.074 1250.53,42.304C1250.55,42.304 1250.58,42.304 1250.61,42.304C1250.61,42.333 1250.61,42.361 1250.61,42.389C1250.78,42.417 1250.95,42.445 1251.12,42.473C1251.37,42.231 1251.84,42.168 1252.04,41.883C1253.06,40.454 1253.31,38.934 1255.07,38.171C1256.56,37.529 1258.37,38.078 1259.37,38.761C1259.68,39.098 1259.99,39.436 1260.3,39.773C1260.81,40.119 1261.47,40.113 1261.81,40.617C1262,40.896 1262,41.4 1262.24,41.629C1262.38,41.657 1262.52,41.685 1262.65,41.713C1263.29,42 1264.14,42.347 1264.42,42.979C1264.79,43.788 1264.9,45.31 1264.93,46.27C1264.51,46.663 1264.09,47.057 1263.67,47.451C1263.67,47.479 1263.67,47.508 1263.67,47.535C1263.69,47.535 1263.72,47.535 1263.75,47.535C1264.1,48.011 1264.36,47.947 1264.34,48.885C1264.16,49.026 1264.08,49.234 1263.92,49.391C1264.15,50.569 1264.49,52.274 1264.68,53.525C1264.58,53.598 1264.58,53.594 1264.51,53.694C1264.27,53.603 1263.94,53.512 1263.75,53.356C1263.24,52.783 1262.77,51.052 1262.15,50.741C1261.8,52.201 1260.31,52.149 1258.78,52.007C1258.78,52.035 1258.78,52.063 1258.78,52.091C1259.88,52.815 1260.77,53.848 1261.81,54.622C1262.27,54.959 1262.99,55.276 1263.33,55.719C1264.43,57.147 1265.08,58.867 1265.94,60.528C1267.26,63.081 1268.66,65.849 1269.48,68.881C1270.01,70.833 1269.96,72.94 1270.4,74.871C1270.43,76.193 1270.46,77.515 1270.49,78.836C1270.83,80.416 1271.13,83.746 1270.74,85.501C1270.74,86.204 1270.74,86.907 1270.74,87.61C1270.13,89.815 1269.42,92.178 1268.8,94.528C1268.75,95.118 1268.69,95.709 1268.63,96.299C1268.18,98.205 1268.15,100.391 1267.71,102.289C1267.71,102.598 1267.71,102.908 1267.71,103.217C1267.54,104.96 1267.37,106.704 1267.2,108.447C1266.84,110.02 1266.99,111.757 1266.61,113.425C1266.41,114.309 1266.5,115.311 1266.28,116.294C1265.52,119.646 1265.62,123.211 1264.93,126.671C1264.73,127.694 1265.76,128.788 1266.02,129.708C1266.02,130.186 1266.02,130.664 1266.02,131.143C1266.19,131.748 1266.58,132.393 1266.78,132.999C1267.75,135.945 1268.23,139.118 1268.97,142.195C1269,143.094 1269.03,143.995 1269.06,144.894C1269.23,145.71 1269.03,146.686 1269.22,147.594C1269.33,148.101 1269.54,149.11 1269.39,149.703C1268.65,152.792 1268.05,155.881 1267.12,158.73C1266.79,159.728 1266.75,160.729 1266.36,161.683C1265.33,164.198 1264.1,166.638 1262.99,169.191C1262.73,169.792 1262.26,170.502 1262.07,171.132C1262.07,171.413 1262.07,171.695 1262.07,171.976C1261.86,172.887 1261.76,175.266 1261.98,176.279C1262.09,176.784 1262.3,177.89 1262.15,178.472C1261.84,179.633 1261.37,180.943 1261.05,182.1C1261.05,182.915 1261.05,183.731 1261.05,184.547C1260.71,186.151 1260.99,188.439 1261.31,189.862C1261.59,191.109 1261.39,192.421 1261.64,193.574C1261.84,194.452 1261.27,196.829 1261.14,197.708C1261,198.637 1261.44,201.164 1261.64,202.011C1261.84,203.755 1262.04,205.498 1262.23,207.242C1262.55,208.493 1263.28,209.545 1263.67,210.7C1264.09,211.976 1263.95,213.394 1264.26,214.75C1264.26,215.088 1264.26,215.426 1264.26,215.762C1264.43,216.315 1264.87,216.928 1265.1,217.45C1265.41,218.17 1265.47,218.899 1265.77,219.643C1266.11,220.463 1266.52,221.476 1266.78,222.342C1266.95,223.383 1267.12,224.423 1267.29,225.464C1267.63,226.6 1268.01,227.947 1268.3,229.176C1268.49,229.974 1268.37,232.205 1268.22,232.888C1268.22,234.407 1268.22,235.926 1268.22,237.444C1268.08,238.033 1267.93,238.8 1267.79,239.384C1267.82,240.48 1267.85,241.578 1267.88,242.675C1267.15,245.812 1266.52,248.765 1265.77,251.871C1265.75,252.996 1265.72,254.121 1265.69,255.246C1265.35,256.734 1265.27,258.482 1264.93,259.971C1264.99,260.983 1265.04,261.996 1265.1,263.008C1264.93,263.69 1264.6,264.523 1264.42,265.202C1264.24,265.895 1264.31,266.683 1264.17,267.311C1264.2,268.294 1264.23,269.28 1264.26,270.263C1264.26,272.183 1264.24,274.037 1264.59,275.578C1264.65,276.197 1264.71,276.816 1264.76,277.434C1265.1,278.59 1265.53,279.936 1266.03,281.061C1266.19,281.441 1266.57,281.923 1266.7,282.327C1266.67,282.89 1266.64,283.452 1266.62,284.014C1266.15,284.389 1265.99,285.281 1265.44,285.533C1264.21,286.091 1261.65,286.128 1260.13,285.786C1258.85,285.497 1257.74,285.661 1256.51,285.365C1254.51,284.999 1252.52,284.634 1250.53,284.268C1250.53,284.324 1250.53,284.381 1250.53,284.436C1250.84,284.871 1250.77,285.562 1250.95,286.124C1251.12,286.678 1251.44,287.473 1251.54,288.064C1251.66,288.827 1250.38,290.4 1249.94,290.68C1249.29,291.089 1248.18,291.016 1247.16,291.016C1245.65,291.017 1243.92,291.036 1242.44,291.016C1237.13,290.949 1232.51,290.23 1228.54,288.908C1227.98,288.72 1225.7,288.142 1225.51,287.811C1225.37,287.569 1225.65,287.292 1225.6,287.136C1225.48,287.052 1225.37,286.967 1225.26,286.883C1224.85,286.448 1224.51,285.944 1224.5,285.111C1224.71,284.841 1224.76,284.509 1225.09,284.352C1225.66,283.997 1226.97,284.414 1227.53,284.52C1228.17,284.259 1228.55,283.517 1229.47,283.339C1230.37,283.163 1231.31,284.217 1232,283.929C1235.23,283.035 1236.98,278.687 1238.48,275.915C1239.25,274.492 1240.14,272.825 1240.67,271.189C1240.84,269.896 1241.01,268.602 1241.18,267.309C1242.03,263.666 1241.93,259.158 1241.93,254.653C1241.93,250.716 1241.93,246.778 1241.93,242.842C1242.28,241.217 1241.66,238.966 1242.02,237.273C1242.32,235.877 1242.22,234.187 1242.53,232.801C1242.55,232.182 1242.58,231.564 1242.61,230.946C1242.72,230.419 1243.07,228.191 1242.95,227.655C1242.48,225.669 1241.87,223.615 1241.43,221.58C1241.35,221.58 1241.26,221.58 1241.18,221.58C1240.55,221.984 1239.44,221.809 1238.65,222.002C1235.8,222.695 1231.98,221.854 1228.8,221.833ZM1185,37.406C1184.43,37.771 1183.51,37.728 1182.9,37.997C1181.33,38.689 1180.33,40.265 1179.86,42.047C1179.89,42.047 1179.92,42.047 1179.95,42.047C1180.24,41.636 1180.72,41.341 1181.13,41.034C1181.58,40.689 1181.93,40.112 1182.39,39.768C1183.64,38.839 1184.87,38.143 1186.44,37.49C1186.44,37.462 1186.44,37.433 1186.44,37.406C1185.96,37.406 1185.48,37.406 1185,37.406ZM1164.03,59.257C1164.22,59.274 1164.27,59.274 1164.37,59.341C1164.09,59.371 1163.98,59.466 1163.78,59.341C1163.95,59.31 1163.94,59.321 1164.03,59.257ZM1163.52,59.426C1163.7,59.458 1163.68,59.447 1163.78,59.51C1163.72,59.51 1163.66,59.51 1163.61,59.51C1163.33,59.734 1161.19,60.491 1160.83,60.269C1161.45,60.212 1163.13,59.749 1163.52,59.426ZM1165.71,72.334C1165.89,72.365 1165.88,72.355 1165.97,72.418C1165.79,72.387 1165.8,72.398 1165.71,72.334ZM1165.46,72.418C1165.63,72.449 1165.62,72.438 1165.71,72.502C1165.54,72.471 1165.55,72.482 1165.46,72.418ZM1231.16,84.483C1230.91,84.483 1230.66,84.483 1230.4,84.483C1229.58,85.511 1228.17,86.125 1227.03,86.845C1226.19,87.378 1225.35,88.092 1224.51,88.617C1224.02,88.919 1223.46,88.973 1222.91,89.207C1222.05,89.572 1221.08,90.038 1220.21,90.388C1217.86,91.339 1215.27,91.55 1212.97,92.497C1212.88,92.689 1212.78,92.865 1212.63,93.003C1212.71,93.256 1212.8,93.509 1212.88,93.762C1213.71,94.412 1214.74,94.75 1215.58,95.365C1216.49,96.03 1217.6,97.456 1218.27,98.403C1218.38,98.559 1218.7,98.741 1218.78,98.909C1218.81,99.134 1218.84,99.359 1218.86,99.584C1219.25,100.78 1219.85,102.326 1219.71,103.971C1219.6,105.218 1218.86,106.493 1218.61,107.599C1218.52,108.01 1218.7,109.27 1218.69,109.876C1220.34,110.951 1221.21,112.921 1222.23,114.601C1222.58,115.175 1222.82,116.322 1223.41,116.626C1223.75,116.309 1224.29,116.228 1224.68,115.951C1225.81,115.137 1226.7,113.831 1227.96,113.167C1228.15,111.362 1228.25,108.969 1227.88,107.346C1227.7,106.583 1227.07,104.984 1227.29,104.056C1228.06,100.756 1228.62,97.541 1229.48,94.438C1229.83,93.148 1229.81,91.966 1230.15,90.642C1230.64,88.708 1231.13,86.791 1231.16,84.483ZM1171.94,86.001C1172,86.001 1172.06,86.001 1172.12,86.001C1172.12,86.029 1172.12,86.057 1172.12,86.085C1171.97,86.033 1172.03,86.069 1171.94,86.001Z" style="fill-rule:nonzero;"/>
    </g>
</svg>
