<?xml version="1.0" encoding="UTF-8" standalone="no"?>
<!DOCTYPE svg PUBLIC "-//W3C//DTD SVG 1.1//EN" "http://www.w3.org/Graphics/SVG/1.1/DTD/svg11.dtd">
<svg width="100%" height="100%" viewBox="0 0 317 867" version="1.1" xmlns="http://www.w3.org/2000/svg" xmlns:xlink="http://www.w3.org/1999/xlink" xml:space="preserve" xmlns:serif="http://www.serif.com/" style="fill-rule:evenodd;clip-rule:evenodd;stroke-linejoin:round;stroke-miterlimit:1.41421;">
    <g transform="matrix(1,0,0,1,-2178.22,-66.4854)">
        <path d="M2478.8,832.083C2482.54,815.233 2486.77,798.483 2490.7,781.673C2493.31,766.113 2495.84,750.293 2494.28,734.474C2493.02,718.814 2487.79,703.873 2483.48,688.873C2480.78,681.483 2480.87,673.543 2479.99,665.823C2479.44,656.182 2477.3,646.602 2478.06,636.913C2478.64,624.753 2481.38,612.813 2481.97,600.653C2482.9,584.833 2485.11,569.133 2486.48,553.363C2488.5,540.923 2490.06,528.352 2489.71,515.733C2490,502.763 2487.02,490.093 2485.31,477.323C2483.23,462.223 2482.84,446.783 2478.37,432.103C2477.2,425.853 2473.93,420.344 2472.11,414.313C2469.56,404.663 2465.18,395.613 2460.64,386.763C2455.45,378.223 2449.39,370.054 2446.22,360.473C2445.06,354.743 2444.66,348.663 2446.24,342.973C2448.77,334.094 2447.84,324.753 2448.04,315.643C2449.27,303.523 2450.35,291.203 2454.62,279.703C2457.92,273.163 2460.11,266.163 2462.03,259.113C2464.14,252.173 2463.06,244.773 2464.86,237.763C2466.8,230.543 2464.54,223.153 2461.93,216.433C2459.7,210.693 2454.19,207.233 2448.94,204.563C2445.82,202.913 2442.18,202.844 2438.96,201.483C2435.06,198.063 2431.77,193.903 2427.22,191.254C2419.71,186.604 2414.41,179.364 2407.54,173.934C2402.81,170.174 2398.51,165.354 2397.02,159.354C2396.09,155.754 2395.24,152.132 2394.31,148.533C2393.66,146.05 2391.92,142.972 2392.09,140.391C2392.21,140.498 2392.36,140.596 2392.48,140.703C2392.42,140.42 2392.38,139.249 2392.2,139.046C2392.31,139.175 2392.43,139.303 2392.54,139.429C2392.48,138.868 2392.3,138.319 2392.2,137.764C2392.33,137.813 2392.51,137.877 2392.63,137.926C2392.63,137.697 2392.51,135.876 2392.4,135.837C2392.55,135.888 2392.71,135.921 2392.85,135.971C2392.68,135.506 2392.47,135 2392.4,134.501C2392.62,134.718 2392.98,134.998 2393.22,135.253C2392.97,134.742 2392.8,134.104 2392.6,133.508C2392.92,133.657 2393.22,133.818 2393.51,134.021C2393.07,133.063 2392.29,131.752 2392.41,130.694C2392.79,130.915 2393.16,131.229 2393.51,131.524C2393.41,131.184 2393.13,129.375 2392.9,129.212C2393.21,129.433 2393.58,129.632 2393.85,129.928C2393.13,128.436 2392.89,126.679 2392.23,125.216C2392.69,125.796 2393.88,129.241 2394.65,129.211C2394.39,129.221 2392.88,122.35 2392.43,119.224C2393.28,121.082 2393.96,122.553 2393.98,122.544C2393.93,122.548 2392.08,111.704 2391.79,110.883C2391.66,110.49 2390.7,107.876 2390.45,106.822C2391.42,109.135 2392.15,111.112 2391.98,111.211C2392.39,111.22 2390.85,102.209 2389.8,99.126C2391.01,101.081 2391.93,102.576 2391.98,102.544C2391.91,102.575 2390.99,99.984 2389.89,97.027C2389.95,97.126 2389.99,97.197 2389.98,97.211C2390.05,97.195 2389.68,96.268 2389.11,94.961C2388.92,94.45 2388.72,93.942 2388.53,93.45C2389.85,94.721 2390.77,95.713 2390.65,95.877C2390.86,95.776 2389.95,94.272 2388.65,92.395C2388.54,92.04 2387.9,91.093 2387.02,89.93C2386.69,89.248 2386.41,88.777 2386.22,88.634C2386.21,88.621 2386.2,88.612 2386.19,88.6C2387.61,89.339 2388.64,89.882 2388.65,89.878C2388.64,89.891 2384.21,85.777 2383.92,85.677C2383.6,85.399 2383.28,85.124 2382.97,84.855C2384.21,85.231 2385.33,85.689 2385.31,85.878C2385.51,85.819 2384.56,84.733 2383.35,83.672C2383.33,83.65 2383.31,83.627 2383.29,83.604C2384.85,84.114 2385.98,84.506 2385.98,84.544C2386.02,84.509 2383.93,83.16 2381.58,81.73C2381.54,81.697 2383.34,82.385 2383.31,82.544C2383.61,82.338 2380.36,79.563 2378.27,78.209C2380.81,79.222 2382.64,80.567 2382.65,80.544C2382.64,80.59 2380.07,77.755 2376.4,76.125C2374.21,75.041 2371.84,74.301 2370.2,73.866C2370.01,73.767 2369.82,73.669 2369.62,73.57C2371.81,73.876 2373.97,74.315 2373.98,74.544C2374.09,74.425 2373.16,73.829 2371.87,73.131C2371.36,72.707 2368.94,70.674 2365.67,69.958C2364.55,69.645 2363.39,69.467 2362.32,69.373C2365.11,69.352 2367.31,69.892 2367.31,69.878C2367.34,69.91 2363.67,68.242 2359.46,68.189C2357.75,68.097 2356.03,68.153 2354.55,68.255C2356.13,67.92 2357.26,67.75 2357.31,67.878C2357.38,67.635 2353.75,67.572 2350.13,67.789C2349.03,67.574 2346.27,67.085 2343.32,67.431C2343.15,67.44 2342.99,67.458 2342.82,67.474C2344.24,66.794 2345.22,66.4 2345.31,66.545C2345.23,66.068 2337.34,68.553 2332.6,70.451C2336.45,68.332 2339.99,67.223 2339.98,67.212C2340,67.227 2334.53,68.179 2329.34,70.77C2327.92,71.408 2326.55,72.141 2325.27,72.881C2323.8,73.413 2322.16,74.075 2320.55,74.878C2320.12,75.068 2319.69,75.275 2319.27,75.489C2321.27,74.109 2322.66,73.229 2322.64,73.212C2322.66,73.253 2317.31,75.756 2312.07,79.058C2309.72,80.452 2307.51,82.142 2305.7,83.664C2305.61,83.746 2305.51,83.827 2305.42,83.911C2304.77,84.468 2304.18,85 2303.66,85.48C2304.11,84.482 2304.49,83.831 2304.64,83.878C2304.05,83.698 2301.66,87.019 2301.2,87.495C2299.9,88.84 2299.38,90.534 2298.82,92.29C2298.49,93.331 2298.06,98.562 2296.95,98.747C2295.91,98.921 2287.62,91.481 2285.56,89.981C2283.1,88.188 2279.94,86.378 2276.18,85.361C2272.18,83.925 2267.96,83.406 2264.39,83.296C2267.23,82.989 2270.37,82.907 2273.52,83.349C2282.96,84.165 2290.09,90.597 2289.98,90.545C2290.1,90.635 2283.5,83.58 2273.75,81.953C2269.63,81.049 2265.33,80.979 2261.14,81.391C2257.39,81.76 2253.57,82.181 2249.88,82.993C2247.48,83.521 2245.09,81.577 2242.74,81.381C2235.72,80.793 2227.09,84.437 2221.62,88.505C2212.5,94.238 2208.38,103.902 2208.64,103.877C2208.39,103.851 2213.18,94.606 2222.38,89.7C2222.6,89.556 2222.83,89.431 2223.06,89.295C2219.97,91.792 2216.88,95.14 2214.86,99.264C2209.2,108.788 2207.33,119.263 2207.31,119.211C2207.31,119.267 2209.94,108.917 2216.05,100.021C2217.17,98.129 2218.48,96.459 2219.87,94.998C2214.97,101.668 2209.91,113.233 2209.98,113.211C2209.92,113.22 2207.02,122.088 2206.66,131.245C2205.61,144.111 2207.9,156.297 2207.98,157.157C2207.98,156.602 2206.81,147.63 2207.49,137.183C2207.77,139.662 2208.22,142.397 2208.87,144.997C2210.68,152.178 2209.49,159.241 2209.31,159.21C2209.44,159.289 2210.63,155.021 2210.62,149.619C2211.09,151.137 2211.82,152.419 2212.28,157.059C2212.62,160.453 2211.33,163.653 2211.37,163.652C2211.31,163.661 2213.03,161.162 2213.59,157.868C2213.63,158.034 2213.68,158.216 2213.71,158.375C2213.76,162.74 2212.84,166.353 2212.67,167.066C2211.95,168.82 2211.28,169.887 2211.31,169.876C2211.22,169.916 2213.91,166.629 2215.17,161.806C2215.24,166.51 2213.26,170.551 2213.31,170.543C2213.23,170.569 2216.18,166.314 2216.54,160.955C2216.58,160.644 2216.61,160.331 2216.64,160.019C2216.73,160.8 2216.79,161.601 2216.8,162.408C2217.13,167.322 2215.25,171.883 2215.31,171.877C2215.24,171.889 2217.8,167.642 2218.21,162.473C2218.33,161.586 2218.39,160.695 2218.4,159.82C2218.63,160.576 2218.82,161.377 2218.93,162.204C2219.75,166.164 2217.9,169.892 2217.98,169.877C2217.91,169.897 2218.94,168.519 2219.66,166.373C2219.74,170.357 2218.57,173.879 2218.64,173.877C2218.55,173.875 2220.67,169.915 2221.02,165.213C2221.03,165.08 2221.04,164.946 2221.05,164.814C2221.08,165.069 2221.11,165.327 2221.14,165.587C2221.41,169.186 2219.92,172.551 2219.98,172.544C2219.92,172.544 2220.96,171.083 2221.76,168.873C2222.17,171.658 2222.55,173.905 2222.64,173.878C2222.58,173.869 2222.59,172.88 2222.64,171.414C2223.62,174.338 2224.68,176.531 2224.64,176.545C2224.69,176.545 2223.56,172.561 2223.2,168.4C2223.16,168.084 2223.13,167.77 2223.1,167.458C2224.48,171.862 2226.39,176.697 2226.64,176.545C2226.44,176.562 2225.93,174.206 2225.44,171.303C2226.35,173.011 2227.36,174.523 2228.12,175.592C2224.72,179.56 2223.19,184.859 2219.87,188.934C2219.46,186.904 2219.34,184.774 2218.52,182.854C2217.68,180.854 2214.42,181.714 2214.51,183.845C2213.06,191.814 2213.3,199.964 2211.89,207.934C2211.4,211.845 2208.48,214.894 2207.96,218.805C2207.18,223.214 2205.88,227.595 2203.24,231.284C2199.14,237.194 2197.42,245.184 2200.63,251.854C2204.31,256.774 2209.84,260.294 2212.72,265.774C2209.42,274.284 2204.37,282.044 2201.48,290.734C2195.23,309.394 2187.63,327.564 2181.08,346.114C2178.35,353.964 2177.63,362.464 2178.69,370.684C2179.5,376.544 2185.07,380.664 2190.64,381.544C2197.28,382.954 2203.97,381.044 2210.57,380.294C2222.93,378.774 2235.37,377.474 2247.51,374.584C2252.97,373.154 2258.35,371.414 2263.81,369.974C2265.26,378.024 2265.59,386.364 2264.24,394.464C2259.2,417.654 2241.29,435.654 2236.91,459.084C2233.69,475.194 2236.34,492.534 2244.66,506.744C2248.35,513.194 2254.88,517.864 2257.05,525.194C2260.75,538.294 2261.4,551.965 2262.91,565.423C2265.01,586.384 2269.06,607.163 2275.15,627.333C2276.83,634.363 2279.4,641.134 2281.37,648.083C2283.77,656.394 2281.01,665.833 2274.71,671.714C2267.52,678.203 2259.13,683.484 2253.14,691.224C2248.05,697.494 2244.22,704.673 2240.82,711.974C2236.4,721.714 2232.91,732.003 2231.94,742.724C2231.36,750.384 2228.93,757.714 2227.15,765.144C2223.06,781.103 2220.17,797.484 2213.7,812.723C2211.44,818.303 2208.16,823.393 2205.86,828.944C2204.14,833.024 2203.76,837.624 2201.33,841.414C2198.28,846.294 2197.8,852.214 2197.1,857.804C2196.53,863.744 2196.75,870.695 2201.26,875.174C2205.83,878.004 2211.47,878.355 2216.71,878.454C2224.18,878.624 2231.25,875.515 2238.71,875.564C2243.57,875.564 2248.51,875.324 2253.3,876.274C2267.2,881.01 2277.81,889.753 2292.57,881.12C2295.81,879.221 2301.77,877.612 2303.14,873.715C2306.53,864.103 2285.83,867.064 2281.47,865.573C2275.73,863.61 2270.31,859.339 2264.7,856.684C2258.59,853.824 2253.41,849.423 2248.28,845.143C2245.14,842.484 2242.95,838.293 2244.3,834.154C2250.77,812.794 2260.66,792.715 2269.1,772.093C2275.51,756.194 2284.75,741.683 2292.56,726.474C2296.07,720.433 2299.65,714.413 2303.94,708.894C2305.59,714.074 2305.7,719.554 2306.52,724.904C2307.67,734.603 2309.68,744.174 2311.76,753.704C2313.99,763.514 2318.34,772.664 2320.88,782.385C2327,805.595 2332.16,829.655 2329.54,853.775C2329.58,863.659 2323.27,872.368 2315.16,877.582C2313.4,880.063 2310.78,882.409 2309.19,883.625C2306.86,885.41 2304.32,886.986 2301.66,888.176C2298.91,890.395 2295.78,892.053 2292.62,893.606C2287.1,896.327 2279.95,895.378 2274.8,898.71C2270.17,901.702 2268.29,907.618 2264.45,911.396C2261.8,913.994 2259.18,915.397 2259.73,919.838C2260.82,928.733 2271.86,923.942 2277.31,922.416C2280.98,921.267 2284.89,922.666 2288.6,921.626C2293.09,920.506 2297.96,919.666 2301.61,916.616C2307.24,911.876 2313.85,908.406 2320.7,905.796C2330.84,903.097 2341.37,905.006 2351.69,904.706C2358,904.836 2365.03,904.336 2370.05,900.066C2372.83,897.846 2372.77,893.876 2372.66,890.656C2371.59,879.296 2367.16,868.486 2367.06,857.006C2365.34,840.317 2365.07,823.527 2365.41,806.767C2365.97,788.376 2370.32,770.126 2368.35,751.676C2366.21,736.346 2362.53,721.176 2356.56,706.866C2353.37,698.765 2349.26,691.025 2346.68,682.696C2346.42,678.265 2347.6,673.906 2348.48,669.595C2350.37,660.675 2355.07,652.745 2358.3,644.306C2361.36,636.616 2365.4,629.375 2368.86,621.875C2371.7,615.915 2373.86,609.665 2376.86,603.785C2385.64,610.235 2393.93,617.375 2403.14,623.235C2407.85,626.365 2413.19,629.985 2414.58,635.835C2415.71,642.125 2411.1,647.216 2408.14,652.245C2402.83,659.854 2398.04,667.985 2395.79,677.075C2391.78,692.524 2389.82,709.014 2393.44,724.735C2395.23,733.555 2394.37,742.594 2395.1,751.524C2396.45,773.225 2398.88,795.555 2392.44,816.735C2391.6,820.644 2388.62,823.495 2387.05,827.075C2384.75,832.135 2381.17,836.925 2381.13,842.715C2381.18,846.305 2381.13,850.715 2384.33,853.106C2390.1,857.545 2397.03,860.196 2403.92,862.395C2415.41,865.635 2425.66,872.085 2435.5,878.635C2429.83,888.505 2423.35,898.305 2414.27,905.356C2410.02,908.895 2407.17,913.746 2404.51,918.496C2402.42,921.986 2403.86,927.267 2407.92,928.526C2410.9,929.755 2413.92,928.016 2416.72,927.076C2417.7,928.597 2418.28,930.645 2420.05,931.496C2421.99,932.196 2423.86,931.076 2425.48,930.106C2426.66,931.346 2427.82,932.946 2429.68,933.156C2431.57,932.885 2432.93,931.426 2434.21,930.156C2435.12,931.416 2435.91,933.135 2437.73,933.206C2439.97,933.776 2440.99,931.406 2442.03,929.936C2443.33,931.005 2444.68,932.596 2446.54,932.395C2448.75,931.996 2449.97,929.895 2451.38,928.366C2453.88,925.136 2457.74,923.436 2460.7,920.706C2465,916.847 2467.08,911.236 2471.03,907.086C2474.01,903.946 2478.32,902.517 2481.32,899.416C2482.63,897.306 2482.73,894.386 2485.12,893.076C2487.13,891.656 2490.45,889.876 2488.76,886.916C2486.21,883.576 2480.95,883.376 2478.96,879.456C2477.64,876.746 2475.95,873.936 2476.43,870.816C2477.18,864.206 2475.19,857.645 2475.96,851.045C2476.71,844.694 2477.28,838.303 2478.8,832.083ZM2228.61,339.344C2230.26,335.813 2232.3,332.473 2233.84,328.873C2236.76,322.143 2238.74,315.043 2241.77,308.353C2248.78,317.633 2253.39,328.453 2256.54,339.583C2247.23,339.394 2237.92,339.184 2228.61,339.344ZM2307.9,137.834C2305.04,135.454 2302.09,132.634 2301.67,128.724C2304.38,131.273 2306.29,134.504 2307.9,137.834ZM2297.6,103.306C2298.26,104.56 2297.87,105.287 2297.76,105.999C2297.21,104.917 2296.51,103.671 2295.67,102.436C2295.37,101.428 2294.83,100.478 2294.19,99.637C2295.24,100.699 2296.46,102.022 2297.6,103.306ZM2296.3,105.005C2296.8,105.64 2297.25,106.252 2297.64,106.804C2297.58,107.228 2297.52,107.652 2297.45,108.074C2297.39,107.969 2297.33,107.858 2297.26,107.752C2297.15,107.413 2296.85,106.37 2296.3,105.005ZM2282.92,89.199C2282.5,89.108 2282.08,89.028 2281.65,88.962L2280.88,89.021C2280.1,88.678 2279.34,88.356 2278.6,88.066C2277.69,87.614 2276.76,87.164 2275.84,86.733C2278.46,87.228 2280.84,88.147 2282.92,89.199ZM2356.59,203.404C2353.62,205.554 2349.9,206.634 2347.02,209.014C2341.22,212.964 2338.18,219.744 2337.11,226.494C2336.79,229.234 2334.65,231.114 2333.04,233.154C2328.14,238.894 2324.23,245.384 2320.67,252.014C2313.73,246.595 2307.41,240.434 2301.1,234.314C2298.1,231.514 2296.1,227.924 2293.87,224.534C2291.15,220.055 2284.3,221.334 2281.82,216.604C2277.01,210.464 2277.46,202.124 2278.9,194.894C2279.91,191.91 2281.27,188.178 2284.07,186.501C2284.65,187.008 2285.29,187.489 2286,187.872C2288.48,189.621 2291.42,189.682 2291.31,189.878C2291.42,189.696 2288.65,188.885 2286.88,186.757C2286.73,186.622 2286.61,186.477 2286.47,186.336C2287.28,186.911 2288.23,187.436 2289.26,187.717C2291.99,188.657 2294.66,188.49 2294.65,188.544C2294.68,188.505 2292.03,187.911 2289.87,186.44C2289.33,186.112 2288.88,185.736 2288.48,185.351C2294.24,184.67 2301.08,185.977 2306.08,182.281C2309.99,179.391 2307.4,175.149 2306.83,171.293C2306.7,170.361 2306.61,169.193 2307.33,168.368C2308.05,167.556 2309.1,167.866 2309.72,167.281C2311.08,165.987 2310.2,162.595 2308.67,161.642C2310.05,160.164 2311.15,159.006 2310.15,157.087C2309.71,156.234 2307.6,154.208 2308.64,153.306C2309.23,152.8 2313.57,154.063 2314.4,154.172C2315.22,156.752 2315.64,159.432 2316.55,161.992C2318.14,165.472 2321.01,168.242 2322.48,171.782C2323.55,175.202 2323.51,179.362 2326.62,181.752C2328.74,184.092 2332.26,183.952 2335.01,182.961C2339.18,181.441 2342.95,179.071 2346.74,176.792C2348.27,180.231 2348.99,184.052 2351.22,187.172C2354.35,191.974 2357.7,197.384 2356.59,203.404ZM2406.63,526.064C2408.3,525.013 2409.87,523.814 2411.45,522.614C2411.55,526.013 2411.77,529.414 2411.79,532.824C2409.82,530.763 2408.01,528.554 2406.63,526.064ZM2448.34,829.614C2447.49,834.164 2447.19,838.954 2445.01,843.124C2440.56,834.454 2434.51,826.334 2432.81,816.524C2431.4,810.374 2432.09,804.034 2432.48,797.814C2433.18,779.584 2436.87,761.664 2439.31,743.634C2440.09,752.493 2440.27,761.464 2441.97,770.203C2447.07,789.494 2451.29,809.614 2448.34,829.614Z" style="fill:rgb(18,16,11);fill-rule:nonzero;"/>
    </g>
</svg>
