<?xml version="1.0" encoding="UTF-8" standalone="no"?>
<!DOCTYPE svg PUBLIC "-//W3C//DTD SVG 1.1//EN" "http://www.w3.org/Graphics/SVG/1.1/DTD/svg11.dtd">
<svg width="100%" height="100%" viewBox="0 0 699 436" version="1.1" xmlns="http://www.w3.org/2000/svg" xmlns:xlink="http://www.w3.org/1999/xlink" xml:space="preserve" xmlns:serif="http://www.serif.com/" style="fill-rule:evenodd;clip-rule:evenodd;stroke-linejoin:round;stroke-miterlimit:1.41421;">
    <g transform="matrix(1,0,0,1,-2552.46,-1001.35)">
        <path d="M2600.87,1382.75C2602.97,1382.9 2605.65,1382.33 2607.04,1384.39C2604.89,1384.24 2602.76,1383.79 2600.87,1382.75Z" style="fill:rgb(18,16,11);fill-rule:nonzero;"/>
        <path d="M3149.02,1217.91C3149.01,1217.92 3149.68,1218.34 3150.66,1218.92C3148.08,1218.74 3145.25,1218.49 3145.24,1218.55C3145.25,1218.49 3147.56,1219.43 3149.89,1220.29C3149.66,1220.31 3149.41,1220.33 3149.14,1220.36C3148.81,1220.1 3147.25,1220.32 3146.47,1220.55C3142.7,1220.82 3138.22,1221.16 3138.32,1221.69C3138.34,1221.34 3140.16,1221.47 3142.47,1221.75C3139.73,1222.57 3136.99,1223.42 3137.06,1223.58C3137.06,1223.45 3138.75,1223.33 3140.83,1223.23C3137.41,1224.45 3133.01,1226.26 3133.28,1226.73C3133.22,1226.37 3135.37,1225.92 3137.87,1225.53C3134.47,1227.83 3130.5,1230.9 3130.76,1231.14C3130.7,1230.95 3132.07,1230.19 3133.94,1229.28C3131.91,1231.31 3130.85,1233.75 3130.76,1233.66C3130.83,1233.72 3131.75,1232.55 3133.19,1231.35C3131.46,1233.95 3129.86,1236.7 3130.13,1236.81C3130.05,1236.71 3130.45,1236.19 3131.11,1235.48C3129.75,1238.03 3128.66,1240.55 3128.87,1240.58C3128.77,1240.48 3129.52,1239.44 3130.58,1238.13C3129.19,1241.25 3127.9,1244.95 3128.24,1244.99C3128.12,1244.88 3128.55,1244.07 3129.24,1242.98C3129.18,1243.16 3129.12,1243.34 3129.07,1243.53C3128.14,1246.16 3128.38,1248.81 3128.24,1248.77C3128.3,1248.79 3128.41,1248.33 3128.64,1247.63C3128.24,1249.67 3128.33,1252.26 3127.6,1254.15C3126.39,1253.69 3125.22,1252.77 3123.84,1252.91C3121.88,1253.11 3122.3,1255.37 3122.29,1256.78C3122.29,1258.4 3122.34,1260.04 3122.23,1261.66C3122.12,1263.13 3121.7,1264.67 3122.45,1266.01C3122.76,1266.56 3123.58,1267.23 3122.97,1267.88C3121.68,1269.28 3115.31,1263.22 3114.14,1262.31C3111.09,1259.94 3107.78,1257.75 3103.88,1257.15C3099.11,1256.35 3094.73,1254.12 3090,1253.19C3084.88,1252.3 3079.66,1252.95 3074.5,1252.68C3071.4,1251.64 3069.04,1249.11 3066.06,1247.8C3058.75,1245.18 3050.94,1244.83 3043.28,1244.72C3039.88,1245.3 3036.59,1247.01 3033.11,1246.78C3029.62,1245.86 3026.16,1244.76 3022.52,1245.02C3006.31,1243.85 2991.08,1237.64 2975.55,1233.39C2971.04,1232.59 2966.76,1230.93 2962.54,1229.18C2963.08,1208.69 2956.15,1188.9 2955.92,1168.45C2955.81,1162.14 2953.86,1155.93 2954.52,1149.61C2955.14,1144.54 2953.85,1139.53 2954.08,1134.46C2954.09,1134.34 2954.09,1134.21 2954.09,1134.09C2954.68,1135.35 2955.06,1136.06 2955.06,1136.05C2955.05,1136.07 2954.55,1134.06 2954.03,1130.88C2953.93,1129.57 2953.75,1128.26 2953.47,1126.97C2953.25,1125.17 2953.06,1123.2 2952.95,1121.12C2953.66,1122.53 2954.29,1123.58 2954.43,1123.45C2954.14,1123.45 2953.61,1120.53 2953.34,1118.02C2955.67,1124.31 2958.28,1129.09 2958.21,1129.12C2958.26,1129.13 2957.88,1126.69 2957.57,1123.16C2958.75,1125.48 2959.89,1127.39 2960.1,1127.23C2959.51,1127.32 2956.82,1116.3 2957.29,1115.35C2957.26,1115.22 2957.22,1115.1 2957.18,1114.98C2957.18,1114.84 2957.17,1114.69 2957.17,1114.54C2957.27,1114.77 2957.36,1114.99 2957.45,1115.21C2959.76,1121.58 2964.56,1126.01 2964.51,1125.97C2964.53,1125.99 2960.28,1121.11 2958.71,1114.74C2961.3,1119.33 2964.53,1122.82 2964.51,1122.82C2964.53,1122.83 2961.37,1118.39 2959.41,1113.24C2959.2,1112.77 2959.03,1112.29 2958.86,1111.82C2960.85,1114.63 2963.28,1116.51 2963.25,1116.53C2963.28,1116.52 2960.93,1113.82 2959.57,1110.5C2958.6,1108.41 2958.15,1106.2 2957.95,1104.75C2958.19,1103.37 2958.46,1102.1 2958.72,1101.01C2959.15,1101.33 2959.57,1101.65 2960,1101.98C2960.79,1103.61 2961.97,1105.6 2963.53,1107.29C2966.42,1110.93 2970.91,1111.51 2970.8,1111.49C2970.84,1111.51 2966.66,1110.22 2964.59,1106.46C2964.14,1105.8 2963.74,1105.09 2963.4,1104.39C2964.05,1104.8 2964.7,1105.2 2965.39,1105.55C2970.82,1106.84 2974.61,1105.16 2976.16,1099.67C2977.09,1096.37 2977.24,1097.61 2979.97,1097C2981.5,1096.67 2983.76,1095.4 2982.17,1093.61C2985.6,1093.82 2984.2,1091.29 2985.83,1089.61C2988.11,1087.29 2991.92,1090.66 2994.28,1088.41C2996.23,1086.56 2993.97,1082.9 2993.69,1080.7C2993.12,1076.28 2994.01,1071.84 2997.21,1068.58C2999.72,1065.92 3001.86,1062.91 3003.21,1059.49C3003.39,1059.04 3003.57,1058.58 3003.75,1058.12C3003.44,1060.49 3003.12,1062.38 3002.92,1062.37C3003.27,1062.55 3005.7,1055.41 3006.72,1051.54C3006.86,1052.72 3006.95,1054 3006.93,1055.28C3007.05,1059.62 3005.37,1063.63 3005.44,1063.63C3005.36,1063.63 3007.68,1059.93 3008.27,1055.39C3008.41,1054.56 3008.5,1053.71 3008.56,1052.89C3008.76,1054.04 3008.92,1055.16 3009,1056.21C3009.45,1061.78 3008.48,1065.52 3008.59,1065.52C3008.47,1065.5 3010.11,1062.04 3010.67,1056.21C3011.26,1050.41 3010.37,1042.42 3007.64,1034.73C3002.83,1018.83 2988.17,1006.85 2985.43,1006.2C2984.11,1005.55 2982.8,1005.19 2981.58,1005.07C2980.22,1004.64 2978.83,1004.25 2977.41,1003.88C2972.98,1002.25 2967.97,1001.47 2963.08,1001.53C2950.2,1000.61 2937.11,1003.08 2929.01,1011.86L2928.61,1011.99C2928.47,1012.25 2928.33,1012.51 2928.18,1012.77C2925.87,1015.52 2924.03,1018.85 2922.78,1022.83C2921.28,1025.8 2920.27,1030.59 2919.59,1035.3C2918.47,1040.45 2917.91,1045.7 2918.11,1050.89C2917.55,1056.84 2916.41,1063.02 2914.45,1068.88C2909.93,1071.03 2905.19,1072.59 2900.64,1074.63C2892.75,1078.17 2883.73,1081.5 2876.87,1086.88C2862.82,1097.92 2855.25,1118.98 2855.05,1136.45C2855.09,1142.47 2853.51,1148.33 2853.25,1154.34C2853.06,1158.64 2852.98,1162.96 2852.35,1167.23C2851.5,1173.01 2852.08,1179.05 2849.97,1184.61C2846.43,1196.03 2842.84,1207.44 2838.51,1218.59C2837.13,1223.87 2832.46,1227.31 2828.02,1229.98C2819.57,1234.15 2811.65,1239.34 2804.48,1245.46C2799.16,1242.94 2793.65,1240.82 2788.17,1238.66C2773.13,1233.25 2756.8,1235.4 2741.37,1237.69C2728.05,1238.85 2714.73,1239.96 2701.37,1240.57C2695.86,1240.24 2694.93,1234.1 2692.39,1230.36C2690.46,1226.69 2687.39,1222.07 2682.55,1223.12C2677.42,1225.21 2674.13,1230.18 2671.26,1234.72C2667.76,1240.23 2668.89,1247.7 2664.67,1252.76C2653.03,1254.16 2641.26,1253.47 2629.62,1254.49C2630.72,1250.41 2632.05,1246.05 2630.84,1241.85C2628.67,1237.61 2624.03,1234.95 2619.24,1235.64C2610.62,1236.74 2604.22,1243.25 2596.78,1247.12C2589.1,1251.52 2580.28,1253.43 2572.72,1258.07C2566.32,1262 2560.11,1266.28 2555.63,1272.49C2554.89,1273.51 2553.67,1274.29 2553.39,1275.61C2553.22,1276.43 2553.32,1277.12 2552.97,1277.91C2552.45,1279.11 2551.91,1281.1 2553.64,1281.83C2552.49,1283.17 2551.76,1285.25 2553.73,1286.2C2552.66,1287.81 2552.95,1289.73 2554.88,1290.32C2554.94,1291.35 2554.85,1292.04 2555.64,1292.76C2555.92,1293.02 2556.44,1293.1 2556.65,1293.42C2556.91,1293.83 2556.71,1294.35 2556.77,1294.82C2556.97,1296.21 2557.87,1297.75 2559.26,1298.22C2560.9,1298.77 2561.98,1297.01 2563.22,1296.19C2564.49,1295.36 2565.73,1294.54 2567.14,1293.96C2570.86,1292.51 2573.2,1289.01 2576.76,1287.31C2587.42,1286.32 2598.21,1282.23 2608.88,1285.4C2613.85,1287.04 2619.25,1285.21 2624.16,1287.13C2628.3,1288.69 2632.81,1287.95 2637.13,1288.07C2644.43,1288.33 2651.62,1286.37 2658.92,1287.27C2669.03,1289.15 2679.56,1289.76 2689.1,1293.95C2700.24,1299.03 2712.71,1299.72 2724.76,1300.56C2732.98,1301.64 2741.73,1302.28 2748.85,1306.98C2758.12,1311.65 2767.38,1316.9 2777.75,1318.58C2780.51,1320.61 2782.09,1323.98 2783.96,1326.82C2790.31,1339.88 2801.58,1350.04 2814.3,1356.74C2819.66,1359.63 2825.64,1360.96 2831.31,1363.11C2828.36,1364.91 2825.1,1366.11 2822.02,1367.63C2820.11,1368.45 2818.13,1369.85 2815.95,1369.16C2812.43,1368.43 2808.86,1367.78 2805.26,1368.13C2801.8,1368.31 2798.4,1369.76 2794.92,1369.07C2789.93,1368.12 2784.67,1367.53 2779.69,1368.84C2777.04,1369.49 2774.93,1371.67 2772.24,1372.03C2768.57,1371.17 2764.81,1370.24 2761.02,1370.89C2759.22,1371.49 2757.78,1372.82 2756.07,1373.61C2752.08,1373.94 2748.05,1373.36 2744.08,1373.96C2739.07,1374.55 2734.88,1378.08 2729.74,1378.11C2725.44,1378.22 2720.58,1380.55 2719.35,1384.98C2718.59,1387.7 2720.2,1390.24 2721.9,1392.22C2721.03,1393.85 2720.04,1395.69 2720.68,1397.6C2721.41,1398.74 2722.59,1399.44 2723.69,1400.18C2724.19,1400.52 2723.95,1402.81 2724.3,1403.38C2725.03,1404.57 2726.3,1405.15 2727.64,1405.38C2727.17,1407.77 2729.66,1408.41 2731.35,1409.17C2730.76,1410.52 2729.14,1411.3 2728.43,1412.79C2728.23,1413.22 2727.78,1417.62 2728.24,1417.39C2726.32,1418.39 2724.75,1420.22 2725.29,1422.54C2726.13,1426.14 2723.01,1429.11 2723.66,1432.74C2723.44,1434.95 2725.66,1436.77 2727.78,1436.04C2734.15,1434.66 2738.86,1429.96 2744.3,1426.75C2750.01,1423.18 2755.35,1418.77 2761.95,1416.94C2774.75,1413.53 2788.04,1411.59 2800.21,1406.16C2811.41,1401.64 2823,1398.14 2834.71,1395.24C2838.07,1394.29 2841.5,1395.33 2844.89,1395.59C2858.81,1395.83 2872.55,1398.91 2886.51,1398.52C2895.39,1398.33 2904.3,1399.01 2913.17,1398.38C2918.12,1397.43 2923.16,1397.76 2928.17,1397.55C2931.62,1397.5 2934.99,1396.58 2938.46,1396.74C2944.43,1396.59 2950.48,1397.27 2956.39,1396.05C2961.12,1395.12 2965.81,1396.67 2970.55,1396.61C2976.55,1396.68 2982.57,1396.99 2988.57,1396.61C2996.73,1395.77 3003.63,1390.25 3008.03,1383.58C3009.76,1380.63 3010.3,1377.2 3011.01,1373.91C3020.15,1377.44 3030.06,1375.26 3039.57,1376.1C3046.09,1377.46 3052.81,1376.75 3059.43,1376.85C3065.93,1376.18 3073.18,1374.33 3079.07,1378.19C3085.08,1387.02 3089.54,1397.01 3097.14,1404.66C3104.1,1411.46 3109.37,1419.71 3114.88,1427.67C3117.75,1431.73 3122.23,1434.51 3127.07,1435.6C3130.39,1436.49 3134.13,1436.93 3137.33,1435.29C3150.25,1429.41 3162.37,1419.56 3167.23,1405.82C3169,1402.07 3171.39,1398.65 3173.47,1395.08C3176.39,1390.39 3178.74,1385.35 3182,1380.88C3187.45,1389.09 3191.93,1398.92 3201.18,1403.55C3206.98,1406.69 3210.05,1413.09 3215.76,1416.31C3218.93,1418.16 3222.71,1417.37 3225.96,1416.2C3228.87,1415.09 3232.47,1415.22 3234.7,1412.8C3237.34,1410.07 3239.63,1407.03 3241.91,1404.01C3245.22,1399.62 3245.96,1394.02 3247.6,1388.91C3249.21,1384.11 3248.98,1379 3249.77,1374.05C3250.85,1367.31 3250.63,1360.46 3250.8,1353.66C3250.99,1342.89 3248.86,1332.27 3248.81,1321.52C3248.55,1307.98 3248.22,1294.42 3249.41,1280.92C3249.54,1275.02 3248.63,1268.51 3244.28,1264.15C3237.05,1256.58 3228.59,1250.22 3222.01,1242.04C3220.02,1239.66 3217.06,1238.64 3214.06,1238.33C3212.52,1238.17 3210.99,1238.18 3209.46,1238.17C3208.24,1238.16 3206.42,1238.55 3205.44,1237.71C3204.32,1236.75 3203.79,1234.77 3203.26,1233.44C3201.95,1233.38 3200.86,1234.57 3200.32,1235.7C3199.88,1236.62 3199.97,1236.76 3198.83,1236.56C3197.34,1236.3 3195.98,1235.99 3194.52,1235.55C3193.78,1235.32 3190.59,1234.37 3190.47,1233.43C3190.28,1231.89 3188.77,1226.2 3188.69,1226.26C3188.73,1226.28 3188.6,1227.59 3188.43,1229.1C3188.42,1229.08 3188.41,1229.06 3188.4,1229.03C3188.28,1228.51 3188.21,1228.15 3188.22,1228.15C3188.22,1228.15 3188.2,1228.19 3188.19,1228.26C3188.19,1228.21 3188.2,1228.17 3188.22,1228.15C3188.18,1228.12 3188.13,1228.17 3188.07,1228.27C3188.01,1226.41 3188.09,1223.49 3188.22,1223.43C3188.16,1223.36 3187.49,1224.63 3186.83,1226.04C3186.43,1224.93 3185.86,1223.43 3185.86,1223.43C3185.86,1223.43 3185.62,1224.06 3185.34,1224.81C3184.82,1223.56 3184.01,1221.93 3183.97,1222.01C3184,1222.05 3183.92,1222.56 3183.79,1223.2C3183.15,1222.58 3182.09,1221.95 3182.08,1222.01C3182.11,1222.02 3182.1,1222.26 3182.06,1222.58C3179.54,1220.34 3176.27,1217.61 3176.1,1217.92C3176.32,1217.79 3177.7,1219.58 3179.17,1221.63C3179.15,1221.64 3179.1,1221.74 3179.04,1221.89C3177.91,1221.01 3176.28,1219.39 3176.41,1219.18C3176.28,1219.16 3176.37,1219.79 3176.58,1220.61C3176.24,1220.43 3175.96,1220.28 3175.76,1220.19C3174.23,1219.02 3172.9,1218 3172.95,1217.92C3172.88,1217.95 3173.43,1218.77 3174.18,1219.86C3172.48,1219.05 3171.05,1218.47 3171.06,1218.55C3171.12,1218.51 3172.12,1219.32 3173.33,1220.39C3170.26,1219.16 3165.4,1217.7 3165.39,1217.92C3165.47,1217.83 3168.51,1219.93 3168.61,1220.13C3168.52,1220.11 3168.28,1220.07 3168.27,1220.06C3168.11,1219.79 3163.45,1217.42 3163.5,1217.29C3163.42,1217.34 3164.09,1218.06 3165.06,1219.02C3162.93,1218.2 3160.29,1216.88 3160.35,1216.66C3160.19,1216.73 3161.56,1218.24 3163.15,1219.67C3162.19,1220 3157.77,1217.4 3156.77,1216.37C3157.04,1216.96 3157.61,1218.23 3158.63,1219.32C3156.45,1218.54 3153.38,1216.91 3153.43,1216.66C3153.32,1217.26 3155.7,1219.42 3156.11,1219.96C3155.4,1219.42 3154.63,1219.69 3153.84,1219.5C3153.28,1219.36 3152.89,1219.03 3152.37,1218.81C3151.58,1218.45 3149.88,1217.67 3149.02,1217.91ZM2729.98,1390.62C2730.2,1390.3 2730.66,1389.66 2730.89,1389.34C2734.4,1388.54 2730.83,1393.82 2729.98,1390.62ZM2926.26,1255.79C2918.7,1255.4 2911.19,1256.56 2903.66,1257.09C2904.97,1253.34 2906.41,1249.66 2908.12,1246.08C2915.6,1250.88 2924.95,1251.02 2932.95,1254.52L2933.71,1255.52C2931.29,1256.33 2928.74,1255.86 2926.26,1255.79ZM2932.17,1105.21C2932.43,1103.62 2933.24,1102.11 2934.62,1101.25C2934.95,1101.03 2935.3,1100.82 2935.64,1100.62C2936.33,1101.94 2937.21,1103.41 2938.29,1104.73C2940.29,1107.42 2942.91,1108.89 2943.93,1109.39C2945.32,1111.19 2946.81,1112.86 2946.88,1112.75C2946.69,1112.78 2944.94,1108.42 2944.28,1106.08C2945.61,1109.47 2946.91,1112.08 2946.88,1112.12C2946.89,1112.13 2946.94,1111.88 2947.03,1111.45C2947.18,1112.33 2947.36,1113.2 2947.58,1114.06C2947.77,1115.1 2947.98,1116.12 2948.21,1117.12C2943.12,1112.8 2936.14,1110.78 2932.17,1105.21ZM3012.15,1276.76C3005.96,1273.35 2999.55,1269.86 2994.7,1264.65C2999.89,1264.61 3005.32,1263.65 3010.3,1265.57C3014.2,1266.89 3018.11,1268.22 3022.02,1269.54C3019.54,1272.91 3015.46,1274.41 3012.15,1276.76ZM3143.79,1373.82C3139.99,1376.05 3137.36,1379.65 3134.07,1382.47C3132.54,1376.97 3131.56,1371.33 3129.72,1365.93C3137.74,1362.58 3146.2,1360.33 3154.05,1356.56C3156.32,1355.71 3157.51,1353.48 3158.49,1351.42C3159.5,1353.17 3160.57,1354.89 3161.77,1356.52C3157.34,1363.71 3150.84,1369.3 3143.79,1373.82ZM3224.52,1312.58C3222.66,1322.71 3217.89,1332.07 3216.06,1342.21C3213.57,1341.59 3211.01,1341.58 3208.46,1341.52C3207.38,1334.83 3208.03,1327.67 3204.84,1321.47C3200.64,1312.95 3193.29,1306.55 3185.93,1300.82C3191.22,1291.43 3191.87,1280.45 3194.79,1270.26C3197.12,1263.83 3195.77,1256.93 3196.07,1250.25C3199.24,1250.4 3202.78,1249.78 3205.46,1251.93C3212.72,1256.69 3214.19,1266.28 3220.29,1272.08C3223.13,1275.4 3227.92,1276.86 3229.84,1280.92C3227.39,1291.34 3226.91,1302.12 3224.52,1312.58Z" style="fill:rgb(18,16,11);fill-rule:nonzero;"/>
    </g>
</svg>
