<?xml version="1.0" encoding="UTF-8" standalone="no"?>
<!DOCTYPE svg PUBLIC "-//W3C//DTD SVG 1.1//EN" "http://www.w3.org/Graphics/SVG/1.1/DTD/svg11.dtd">
<svg width="100%" height="100%" viewBox="0 0 46 66" version="1.1" xmlns="http://www.w3.org/2000/svg" xmlns:xlink="http://www.w3.org/1999/xlink" xml:space="preserve" xmlns:serif="http://www.serif.com/" style="fill-rule:evenodd;clip-rule:evenodd;stroke-linejoin:round;stroke-miterlimit:1.41421;">
    <g transform="matrix(1,0,0,1,-600.938,-245.072)">
        <path d="M646.698,309C646.802,308.135 645.93,306.766 645.379,306.144C644.801,305.49 645.37,303.393 645.231,302.502C645.012,301.12 644.071,300.288 644.026,298.873C643.978,297.368 643.679,295.972 643.174,294.56C642.778,293.456 642.583,291.974 641.935,290.997C641.428,290.254 641.127,289.9 641.122,288.937C641.119,288.209 640.969,287.565 640.803,286.86C640.483,285.476 640.084,284.007 639.991,282.592C639.888,281.074 639.243,279.69 639.386,278.152C639.52,276.716 638.889,275.143 638.665,273.713C638.537,272.892 638.457,272.058 638.178,271.269C638.005,270.774 637.798,270.25 637.887,269.713C637.961,269.245 638.156,268.425 638.671,268.302C639.19,268.179 639.374,267.68 639.5,267.217C639.66,266.622 639.91,266.057 640.063,265.466C640.196,264.958 640.053,264.457 640.138,263.95C640.345,262.57 640.929,261.284 640.955,259.869C640.965,259.311 640.998,258.606 640.342,258.418C639.811,258.265 639.6,257.954 639.413,257.44C638.995,256.294 637.786,255.711 637.495,254.521C637.247,253.512 637.024,252.582 637.093,251.543C637.86,252.274 638.209,250.219 637.986,249.812C637.529,248.974 638.05,248.171 638.005,247.222C637.881,244.691 633.95,244.662 632.473,245.763C631.554,246.448 631.532,247.915 631.64,248.963C631.728,249.81 631.189,250.77 631.838,251.577C633.002,253.022 629.593,253.378 628.743,253.257C628.959,252.772 628.346,251.699 628.135,251.12C627.833,250.295 627.967,249.249 627.256,248.634C626.448,247.937 625.969,249.051 625.383,248.445C624.768,247.81 624.003,247.752 623.227,248.135C622.401,248.544 621.34,249.367 620.913,250.208C620.53,250.961 620.788,252.278 620.796,253.108C620.812,254.494 620.942,255.856 620.778,257.234C620.753,257.446 620.536,258.575 620.814,258.727C621.032,258.843 621.193,258.465 621.212,258.326C620.69,259.917 620.651,262.902 622.316,263.892C622.788,264.174 623.41,264.122 623.931,264.07C624.07,264.174 624.17,264.639 624.235,264.796C624.57,265.592 624.959,266.364 625.293,267.159C626.117,269.135 625.353,272.263 624.474,274.124C623.372,276.454 623.266,278.805 622.8,281.294C622.41,283.423 621.593,285.756 619.448,286.588C618.871,286.814 618.288,287.035 617.677,287.153C617.13,287.255 616.678,286.943 616.175,287.017C615.643,287.096 615.184,287.425 614.62,287.484C614.194,287.53 613.766,287.484 613.337,287.51C612.081,287.585 611.165,288.098 610.197,288.864C609.78,289.197 608.966,291.166 608.256,290.51C607.33,289.655 606.705,289.528 605.431,289.693C604.565,289.805 603.893,289.636 603.063,289.45C603.031,289.704 602.993,289.958 602.97,290.21C602.992,290.075 604.908,290.353 605.101,290.447C605.78,290.801 604.128,291.602 604.007,291.673C603.411,292.021 602.779,292.33 602.276,292.811C601.763,293.294 600.517,295.936 601.081,296.562C601.535,297.065 602.716,296.112 602.997,295.764C603.506,295.14 603.73,294.896 604.535,294.674C606.277,294.195 608.014,294.166 609.751,293.518C610.849,293.109 612.494,291.886 612.856,293.678C612.923,294.015 612.705,294.328 612.789,294.661C612.884,295.061 613.256,295.361 613.404,295.746C613.62,296.306 613.289,297.07 613.554,297.559C613.906,298.207 614.859,298.186 615.11,299.034C615.316,299.712 615.654,299.985 616.149,300.464C616.7,300.997 617.368,301.823 617.692,302.522C617.993,303.168 617.953,302.729 618.561,302.951C619.169,303.173 619.033,304.3 619.935,304.021C620.623,303.809 621.362,303.958 622.071,303.965C624.096,303.988 622.509,305.318 622.634,306.449C622.718,307.209 622.967,307.797 622.967,308.582C622.967,308.754 622.857,309.476 622.967,309.592C624.631,309.812 622.939,308.635 623.566,307.925C624.485,306.882 625.221,308.038 625.609,308.774C626.142,309.786 628.329,309.566 629.256,309.291C630.733,308.853 629.645,308.319 628.939,307.842C629.323,308.11 630.835,307.786 631.22,307.623C631.82,307.367 632.167,306.688 632.789,306.574C633.72,306.406 633.281,306.788 633.822,307.138C634.03,307.275 635.462,307.208 635.665,307.004C635.96,306.687 635.613,305.408 635.663,304.989C635.733,304.407 635.072,303.383 635.35,302.932C635.646,302.454 636.381,302.491 636.78,302.131C637.302,301.659 637.661,300.706 638.417,300.537C638.82,300.451 638.336,301.743 638.473,301.997C638.73,302.482 639.142,302.45 639.402,302.997C639.766,303.802 639.944,304.685 640.254,305.514C640.565,306.342 640.871,306.332 641.681,306.172C642.817,305.946 642.952,309.003 643.224,309.591C643.965,311.151 646.486,310.669 646.698,309M627.83,257.314C627.564,256.413 629.237,256.135 629.744,255.712C629.402,255.997 629.556,256.785 629.284,257.178C629.011,257.574 628.67,257.854 628.325,258.18C628.324,258.181 627.858,257.411 627.83,257.314M630.074,305.38C629.576,306.238 628.362,306.536 627.469,306.705C627.396,305.887 626.637,305.461 626.606,304.555C626.577,303.611 626.838,303.534 627.715,303.8C628.092,303.914 628.525,304.104 628.677,304.497C628.722,304.612 628.791,304.901 628.921,304.962C628.94,304.97 629.286,304.283 629.317,304.238C629.867,304.671 630.486,304.612 630.074,305.38" style="fill-rule:nonzero;"/>
    </g>
</svg>
