<?xml version="1.0" encoding="UTF-8" standalone="no"?>
<!DOCTYPE svg PUBLIC "-//W3C//DTD SVG 1.1//EN" "http://www.w3.org/Graphics/SVG/1.1/DTD/svg11.dtd">
<svg width="100%" height="100%" viewBox="0 0 1587 1609" version="1.1" xmlns="http://www.w3.org/2000/svg" xmlns:xlink="http://www.w3.org/1999/xlink" xml:space="preserve" xmlns:serif="http://www.serif.com/" style="fill-rule:evenodd;clip-rule:evenodd;stroke-linejoin:round;stroke-miterlimit:1.41421;">
    <g transform="matrix(1,0,0,1,-0.000152826,-2514.46)">
        <g transform="matrix(4.16667,0,0,4.16667,-141.684,-4340.7)">
            <path d="M409.019,1984.16C405.921,1981.95 400.316,1975.9 400.316,1975.9L406.069,1975.02L406.069,1972.36C406.069,1972.36 403.857,1972.36 401.201,1972.36C398.546,1972.36 396.481,1970.88 394.417,1968.67C392.351,1966.46 388.37,1966.9 388.37,1966.9L382.912,1962.18C377.454,1957.46 364.623,1948.61 364.623,1948.61C364.623,1948.61 354.74,1933.86 346.333,1923.09C337.924,1912.33 325.386,1897.14 315.21,1886.37C311.625,1881.2 307.253,1876.43 302.752,1872.2C302.96,1871.93 303.185,1871.73 303.41,1871.62C304,1871.32 303.115,1866.45 302.967,1865.57C302.82,1864.68 303.705,1862.33 304.147,1860.41C304.59,1858.49 302.279,1855.05 302.574,1854.46C302.869,1853.87 302.771,1852.39 302.771,1851.9C302.771,1851.41 303.951,1848.17 303.951,1848.17L304.442,1848.66C304.934,1849.15 306.41,1850.23 306.41,1850.53C306.41,1850.82 305.918,1851.41 305.131,1851.41C304.344,1851.41 304.836,1852.49 304.836,1852.49C304.836,1852.49 306.212,1852.49 307.194,1851.9C308.179,1851.31 308.277,1849.84 308.376,1849.15C308.473,1848.46 308.081,1844.53 307.294,1843.74C306.508,1842.95 305.721,1842.37 305.819,1841.38C305.918,1840.4 305.623,1839.42 305.033,1839.02C304.442,1838.63 304.246,1836.96 304.442,1835.48C304.639,1834.01 308.277,1828.99 308.277,1828.99C308.277,1828.99 309.457,1829.78 310.145,1830.66C310.834,1831.55 314.963,1838.63 315.259,1838.73C315.554,1838.82 317.717,1839.91 318.209,1840.2C318.7,1840.5 320.766,1841.48 321.552,1841.78C322.339,1842.07 322.929,1840.5 322.732,1840C322.536,1839.51 320.864,1837.54 320.668,1836.56C320.471,1835.58 321.257,1835.48 320.962,1835.18C320.668,1834.89 317.225,1832.53 316.538,1831.75C315.85,1830.96 316.538,1829.58 316.538,1829.19C316.538,1828.8 313.194,1825.85 312.998,1825.45C312.801,1825.06 313.391,1822.21 313.784,1820.63C314.178,1819.06 311.325,1816.21 311.424,1815.91C311.522,1815.62 312.112,1815.13 312.506,1814.83C312.899,1814.54 312.801,1813.36 313.293,1812.17C313.784,1811 315.946,1810.51 315.946,1810.51C315.946,1810.51 314.276,1808.44 309.26,1804.41C304.246,1800.38 298.346,1801.26 298.346,1801.26L299.034,1799.92L301.001,1796.93L301.885,1796.93C301.885,1796.93 302.869,1797.43 303.557,1797.43C304.246,1797.43 304.344,1796.44 304.934,1796.25C305.524,1796.05 305.819,1798.41 306.311,1799.2C306.802,1799.98 308.277,1799.59 308.571,1799.39C308.868,1799.2 309.653,1798.21 310.342,1798.51C311.03,1798.8 311.719,1799.79 311.719,1799.79L312.309,1799C312.899,1798.21 311.424,1795.76 310.932,1793.59C310.441,1791.43 306.311,1788.77 306.311,1788.77L307.687,1783.37L315.161,1783.17L315.554,1784.25C315.554,1784.25 315.85,1785.82 315.85,1786.12C315.85,1786.41 316.439,1787.89 319.291,1790.35C322.143,1792.8 325.977,1792.71 325.977,1792.71C325.977,1792.71 327.059,1793.39 328.632,1794.08C330.206,1794.77 334.139,1796.05 334.139,1796.05C334.139,1796.05 334.728,1796.35 335.81,1797.92C336.892,1799.49 342.89,1800.48 345.544,1799.59C348.2,1798.7 350.756,1794.57 350.756,1794.57C350.756,1794.57 352.625,1793.39 354.592,1791.92C356.56,1790.44 356.854,1784.54 357.344,1776.58C357.837,1768.62 354.198,1767.63 354.198,1767.63C354.198,1767.63 351.838,1765.08 349.479,1763.11C347.119,1761.14 342.595,1758.98 341.316,1758.58C340.04,1758.19 338.269,1755.63 335.613,1754.46C332.959,1753.28 319.782,1752.49 318.209,1752.69C316.635,1752.88 314.178,1756.13 314.178,1756.13C314.178,1756.13 310.539,1756.42 306.212,1756.82C301.885,1757.21 296.969,1758.58 296.969,1758.58C296.969,1758.58 295.199,1755.83 294.314,1754.16C293.43,1752.49 292.741,1750.03 291.659,1745.7C290.578,1741.38 288.709,1740.89 284.776,1737.35C280.843,1733.81 279.564,1731.25 277.007,1727.61C274.452,1723.97 270.911,1718.46 270.026,1716.01C269.142,1713.55 266.878,1709.03 264.127,1704.11C261.372,1699.19 253.014,1688.77 249.082,1684.35C245.147,1679.92 237.969,1670.97 236.889,1669C235.808,1667.04 236.102,1659.07 235.904,1657.99C235.708,1656.91 235.216,1651.11 234.135,1650.32C233.054,1649.54 230.202,1647.37 229.022,1646.68C227.841,1645.99 225.383,1646.88 225.383,1646.88C225.383,1646.88 223.613,1645.5 223.023,1645.5C222.433,1645.5 221.351,1644.91 221.253,1645.5C221.154,1646.09 222.04,1648.65 222.04,1648.65C222.04,1648.65 220.27,1647.96 219.777,1648.65C219.288,1649.34 220.663,1651.01 220.663,1651.01C219.385,1651.6 215.747,1656.03 215.354,1657.11C214.961,1658.19 216.632,1659.27 216.632,1659.27C216.632,1659.27 215.648,1663.3 215.55,1664.58C215.452,1665.86 216.73,1665.96 216.73,1665.96L218.303,1667.14C218.303,1667.14 218.5,1667.53 218.205,1668.22C217.911,1668.91 214.665,1672.94 214.665,1672.94C214.665,1672.94 213.584,1672.74 212.896,1673.04C212.207,1673.33 207.093,1673.53 206.11,1674.02C205.127,1674.51 195.785,1676.77 194.9,1677.36C194.016,1677.95 192.54,1677.86 191.459,1678.35C190.377,1678.84 189.295,1679.43 188.312,1679.43C187.329,1679.43 186.247,1679.72 184.871,1680.61C183.494,1681.49 178.773,1684.25 176.217,1685.62C173.66,1687 164.81,1693.49 163.04,1695.16C161.271,1696.83 161.763,1700.08 161.763,1700.08L160.68,1699.29C160.68,1699.29 160.09,1698.6 159.304,1698.31C158.518,1698.01 155.862,1697.03 154.683,1696.73C153.503,1696.44 151.143,1694.86 150.454,1694.37C149.765,1693.88 148.192,1692.7 146.325,1692.61C144.456,1692.51 139.932,1693 134.721,1696.24C129.509,1699.49 125.183,1707.16 123.904,1711.98C122.626,1716.79 125.084,1721.71 126.855,1723.78C128.624,1725.84 140.129,1734.49 140.129,1734.49C140.129,1734.49 139.932,1734.99 140.325,1735.97C140.719,1736.95 142.981,1738.53 144.849,1739.61C146.718,1740.69 152.028,1740.89 152.028,1740.89L155.617,1744.77L156.06,1747.57L157.534,1749.49L157.386,1750.82C157.386,1750.82 157.681,1755.54 158.124,1759.67C158.566,1763.8 160.336,1770.88 162.401,1778.1C164.466,1785.33 172.432,1800.38 172.726,1802.29C173.021,1804.21 176.856,1815.57 176.709,1817.19C176.562,1818.81 175.677,1819.26 174.644,1821.32C173.611,1823.39 173.316,1824.13 173.168,1825.75C173.021,1827.37 171.103,1829.88 168.745,1832.38C166.384,1834.89 164.613,1839.46 163.729,1843.59C162.844,1847.72 158.714,1857.16 156.06,1861.44C153.404,1865.72 146.619,1881.35 146.472,1884.3C146.325,1887.25 143.079,1893.6 142.194,1895.37C141.309,1897.14 137.769,1904.95 137.769,1905.54C137.769,1906.13 134.967,1909.23 134.23,1909.53C133.492,1909.82 132.016,1911 131.131,1912.33C130.246,1913.66 130.395,1915.87 130.395,1915.87C130.395,1915.87 128.624,1916.75 125.527,1918.08C122.429,1919.41 120.659,1920.88 118.742,1922.5C116.824,1924.13 112.548,1925.75 107.384,1927.67C102.222,1929.59 100.6,1931.8 96.322,1935.19C92.044,1938.58 82.162,1952.01 78.328,1957.46C74.492,1962.92 69.772,1966.9 68.445,1968.08C67.117,1969.26 64.168,1973.84 63.577,1974.42C62.987,1975.02 60.333,1976.34 58.267,1977.38C56.202,1978.41 56.202,1980.18 55.023,1980.77C53.843,1981.36 48.975,1984.9 48.975,1984.9C48.975,1984.9 47.205,1985.93 45.583,1987.11C43.96,1988.29 41.747,1991.39 41.747,1991.39L37.765,1995.08L37.618,2000.53L39.388,2002.6C39.388,2002.6 36.29,2008.2 35.553,2009.97C34.815,2011.74 34.372,2014.54 34.077,2018.23C33.783,2021.92 34.372,2025.9 35.995,2027.52C37.618,2029.15 47.353,2031.65 49.122,2031.36C50.892,2031.06 51.335,2029 52.515,2025.9C53.695,2022.8 55.466,2017.2 57.383,2013.81C59.3,2010.42 65.052,2000.83 65.052,2000.83C65.052,2000.83 66.674,2001.12 68.887,2002.75C71.1,2004.37 79.507,2010.42 82.015,2011.89C84.522,2013.36 88.947,2016.61 88.947,2016.61C88.947,2016.61 91.307,2013.81 95.585,2008.94C99.862,2004.07 107.089,1991.83 112.694,1984.6C118.299,1977.38 130.688,1961.89 136.737,1955.84C142.784,1949.79 152.961,1936.81 155.321,1933.72C156.102,1932.69 156.961,1931.98 157.764,1931.48C157.514,1932.51 156.588,1936.34 156.206,1937.99C155.763,1939.91 152.519,1948.91 150.454,1954.36C148.389,1959.82 145.291,1968.82 145.144,1972.21C144.997,1975.61 139.097,1986.67 138.801,1987.26C138.506,1987.85 139.244,1989.91 139.54,1990.5C139.834,1991.09 141.899,1991.24 141.899,1991.24C141.899,1991.24 141.309,1992.86 141.162,1993.6C141.014,1994.34 142.637,1994.34 142.932,1994.78C143.227,1995.22 142.784,1996.26 142.047,1996.85C141.309,1997.43 142.047,1999.35 142.932,2000.68C143.817,2002.01 141.162,2005.69 140.719,2007.02C140.276,2008.35 140.129,2008.5 140.719,2009.38C141.309,2010.27 141.752,2010.71 142.047,2011.15C142.342,2011.59 141.604,2013.22 142.047,2014.4C142.489,2015.58 144.26,2014.69 145.439,2014.25C146.619,2013.81 149.274,2014.1 149.274,2014.1L151.93,2017.2L153.7,2015.14C153.7,2015.14 154.878,2016.02 155.763,2016.46C156.648,2016.9 158.714,2014.69 159.157,2014.54C159.599,2014.4 164.023,2017.35 164.761,2016.9C165.499,2016.46 168.302,2011.15 168.302,2011.15C168.302,2011.15 169.924,2011.89 170.366,2011.89C170.809,2011.89 171.251,2010.42 171.251,2010.42C171.251,2010.42 173.168,2009.82 177.004,2009.38C180.838,2008.94 197.653,2014.99 198.539,2015.43C199.424,2015.87 203.111,2016.17 204.438,2016.17C205.766,2016.17 203.996,2014.1 204.438,2013.95C204.88,2013.81 208.42,2013.51 209.897,2013.66C211.371,2013.81 210.337,2015.28 210.633,2017.05C210.928,2018.82 215.943,2017.79 217.272,2017.79C218.599,2017.79 222.876,2021.48 223.761,2023.1C224.646,2024.72 227.301,2022.51 229.218,2022.07C231.136,2021.63 236.74,2022.66 238.806,2024.23C240.871,2025.8 247.656,2024.28 249.573,2024.23C251.49,2024.18 259.603,2020.3 260.192,2020.3C260.783,2020.3 263.733,2021.48 265.946,2021.33C268.158,2021.18 276.859,2019.41 277.302,2019.56C277.745,2019.71 279.22,2022.36 281.286,2022.66C283.35,2022.95 287.038,2023.39 287.922,2024.13C288.808,2024.87 295.445,2021.18 296.478,2021.49C297.51,2021.79 301.639,2021.33 302.967,2021.48C304.295,2021.63 308.277,2020 309.31,2020C310.342,2020 313.293,2019.12 314.473,2018.67C315.652,2018.23 313.44,2015.58 313.44,2015.58C313.44,2015.58 316.39,2013.22 317.232,2013.07C318.074,2012.92 320.815,2012.33 322.88,2011.89C324.944,2011.44 327.304,2009.53 330.992,2008.64C334.679,2007.76 341.316,2004.51 344.562,2003.34C347.807,2002.15 349.577,1999.94 353.117,1999.21C356.656,1998.47 364.327,1994.92 365.212,1993.89C366.096,1992.86 371.112,1991.68 372.586,1990.94C374.061,1990.21 373.767,1987.4 373.767,1987.4C373.767,1987.4 377.012,1989.62 380.404,1991.24C383.797,1992.86 398.988,1999.35 398.988,1999.35C398.988,1999.35 402.824,2002.89 403.562,2004.07C404.299,2005.25 404.151,2008.05 404.151,2008.05C404.151,2008.05 404.594,2009.38 405.921,2009.53C407.248,2009.67 409.461,2009.23 410.937,2007.32C412.411,2005.4 414.477,2001.42 414.771,1996.85C415.066,1992.27 412.117,1986.37 409.019,1984.16ZM249.672,1761.24C243.771,1763.21 243.182,1766.55 240.035,1770.29C237.109,1773.76 230.11,1782.84 229.138,1784.1C228.618,1782.88 228.007,1781.5 227.448,1780.32C226.122,1777.51 222.876,1771.17 220.81,1766.3C218.747,1761.43 210.78,1751.85 207.536,1748.61C204.291,1745.36 196.326,1740.49 194.852,1739.46C193.376,1738.43 187.035,1731.79 187.035,1731.79C187.035,1731.79 187.477,1729.28 187.477,1727.95C187.477,1726.63 184.084,1723.53 184.084,1723.53C184.084,1723.53 183.642,1720.88 183.494,1719.69C183.346,1718.52 180.986,1705.24 180.986,1705.24C180.986,1705.24 182.314,1703.32 184.084,1702.14C185.854,1700.96 192.491,1698.16 195.736,1696.98C198.981,1695.8 212.845,1689.9 212.845,1689.9L212.699,1688.42L219.189,1684.74L219.631,1683.56C219.631,1683.56 223.318,1680.9 225.679,1679.43C228.039,1677.95 229.808,1674.86 229.808,1674.86C229.808,1674.86 233.496,1679.28 235.562,1682.38C237.625,1685.48 242.198,1696.98 245.295,1704.5C248.393,1712.03 255.375,1722.5 257.733,1726.82C260.095,1731.15 271.304,1749.83 271.304,1749.83C271.304,1749.83 267.173,1752.59 265.208,1754.16C263.241,1755.73 260.487,1758.09 260.487,1758.09C260.487,1758.09 255.571,1759.28 249.672,1761.24ZM276.271,1852.59C276.271,1852.59 275.829,1851.41 275.09,1850.38C274.353,1849.35 266.831,1841.53 265.502,1840.35C264.175,1839.17 263.733,1831.79 263.733,1831.79L266.388,1833.71L271.255,1833.12L270.96,1831.5C270.96,1831.5 275.385,1831.5 276.123,1831.79C276.859,1832.09 278.188,1831.2 278.188,1831.2L279.072,1824.86C279.072,1824.86 280.843,1824.71 282.761,1824.86C284.678,1825.01 288.532,1820.59 288.532,1820.59L289.693,1828.99C289.693,1828.99 288.955,1830.61 288.532,1831.35C288.108,1832.09 286.742,1835.18 284.382,1839.02C282.022,1842.86 281.581,1845.43 281.581,1845.43L281.872,1856.01C278.448,1853.8 276.271,1852.59 276.271,1852.59ZM282.049,1856.13C282.606,1856.1 284.401,1855.94 285.267,1854.95C286.3,1853.77 289.693,1852.44 289.839,1853.03C289.988,1853.62 292.495,1854.66 293.085,1855.39C293.674,1856.13 293.674,1858.34 293.97,1858.79C294.265,1859.23 295.592,1861.59 295.887,1863.51C296.129,1865.08 297.755,1867.44 298.335,1868.24C292.207,1863 286.231,1858.83 282.049,1856.13Z" style="fill:rgb(17,21,23);fill-rule:nonzero;"/>
        </g>
    </g>
</svg>
