<?xml version="1.0" encoding="UTF-8" standalone="no"?>
<!DOCTYPE svg PUBLIC "-//W3C//DTD SVG 1.1//EN" "http://www.w3.org/Graphics/SVG/1.1/DTD/svg11.dtd">
<svg width="100%" height="100%" viewBox="0 0 194 276" version="1.1" xmlns="http://www.w3.org/2000/svg" xmlns:xlink="http://www.w3.org/1999/xlink" xml:space="preserve" xmlns:serif="http://www.serif.com/" style="fill-rule:evenodd;clip-rule:evenodd;stroke-linejoin:round;stroke-miterlimit:1.41421;">
    <g transform="matrix(1,0,0,1,-302.81,-18.017)">
        <path d="M474.213,277.482C473.475,277.481 472.424,277.431 471.807,277.214C471.807,277.347 471.807,277.482 471.807,277.615C472.358,278.32 473.663,282.287 473.812,283.36C473.886,283.885 473.56,284.559 473.546,285.23C473.812,285.23 474.08,285.23 474.347,285.23C474.484,285.434 474.548,285.493 474.749,285.631C474.57,287.057 474.392,288.483 474.214,289.906C473.858,290.174 473.501,290.44 473.144,290.709C469.472,290.772 461.257,291.573 459.507,289.105C459.389,288.917 459.362,288.355 459.239,288.169C457.397,286.26 455.379,287.973 452.421,287.235C451.775,287.072 451.286,286.679 450.548,286.566C450.822,288.301 451.948,290.781 449.212,290.709C448.384,291.236 445.949,290.817 444.799,290.843C441.405,290.912 436.806,291.174 433.969,290.174C433.974,289.73 433.931,289.377 433.835,289.106C433.604,289.026 433.414,288.986 433.033,288.973C431.702,288.187 429.475,289.669 428.087,289.507C427.045,289.386 425.612,288.973 424.61,288.705C421.64,287.909 417.378,287.797 417.39,284.164C418.113,283.166 418.267,281.089 419.261,280.288C420.178,279.55 424.365,278.781 425.813,278.418C426.57,278.373 427.328,278.329 428.086,278.284C430.305,277.564 432.294,275.821 434.236,274.677C434.236,274.632 434.236,274.588 434.236,274.544C434.192,274.544 434.147,274.544 434.102,274.544C433.708,273.029 432.646,271.751 432.097,270.402C431.672,269.36 431.815,268.244 431.696,266.928C431.665,266.587 431.463,266.22 431.563,265.726C431.888,264.108 431.421,261.943 431.831,260.247C432.216,258.648 432.549,256.876 433.034,255.171C433.192,254.615 433.723,253.589 433.569,252.899C433.23,251.386 432.275,249.816 431.832,248.223C430.95,245.055 430.827,241.508 430.094,238.203C430.138,236.154 430.183,234.104 430.227,232.057C429.97,231.221 429.237,230.254 429.024,229.385C428.752,228.278 429.49,226.543 429.692,225.644C429.999,224.284 429.123,223.376 428.89,222.438C428.433,220.596 429.527,219.156 429.158,217.494C428.188,213.12 428.938,207.499 427.955,202.931C427.657,201.543 428.64,200.42 428.356,199.323C428.167,198.593 427.507,197.67 427.286,196.918C426.974,193.846 426.662,190.772 426.35,187.699C425.919,185.776 426.143,183.616 425.681,181.553C424.899,178.058 424.785,173.649 424.745,169.662C423.943,169.618 423.141,169.573 422.339,169.528C422.339,165.477 422.339,161.423 422.339,157.371C422.559,156.43 422.875,155.345 423.007,154.297C422.074,153.696 419.18,151.163 418.595,150.289C418.261,149.789 418.195,149.25 418.194,148.418C418.439,148.261 418.569,148.126 418.729,147.883C418.685,147.883 418.64,147.883 418.595,147.883C417.16,146.752 414.37,146.125 412.578,145.345C411.23,144.757 410.045,143.579 408.701,143.073C407.669,142.684 405.791,142.475 405.225,141.737C404.957,141.025 404.69,140.312 404.422,139.599C403.929,138.907 402.56,138.59 402.15,137.862C401.843,137.32 401.946,136.53 401.615,135.991C400.793,134.657 399.441,133.325 398.941,131.716C398.4,129.972 398.257,128.245 397.872,126.506C397.586,125.217 397.976,123.684 397.337,122.765C397.122,124.387 396.174,126.041 395.599,127.441C395.109,129.267 394.619,131.093 394.128,132.919C393.563,135.156 394.289,137.68 394.396,139.6C394.414,139.921 394.084,141.076 393.995,141.471C393.636,143.055 393.912,144.726 393.593,146.147C393.638,147.662 393.682,149.176 393.727,150.69C393.495,151.696 393.168,153.003 392.924,153.896C392.551,155.266 392.827,157.22 392.524,158.573C392.524,159.33 392.524,160.087 392.524,160.844C391.968,163.349 392.283,167.223 392.657,169.661C392.77,170.391 392.411,171.798 392.257,172.468C391.706,174.859 391.955,177.345 391.455,179.549C391.41,180.974 391.366,182.4 391.321,183.824C390.678,186.331 389.743,188.865 389.048,191.305C388.443,193.429 388.468,195.518 387.711,197.585C387.203,198.975 386.456,200.592 385.973,201.995C385.572,204.266 385.171,206.538 384.77,208.808C383.97,211.646 383.271,214.219 382.497,217.225C381.734,220.191 381.847,223.29 381.16,226.311C381.116,227.202 381.071,228.093 381.026,228.983C380.531,231.126 380.473,233.705 379.956,235.93C379.912,236.642 379.867,237.356 379.823,238.068C379.195,240.748 379.338,243.858 378.619,246.619C377.85,249.572 377.297,252.902 376.48,255.838C376.063,257.337 376.347,259.581 376.346,261.317C376.345,263.825 376.308,266.725 375.811,268.932C375.766,269.823 375.722,270.714 375.677,271.604C375.243,273.391 375.002,275.311 374.474,277.215C374.339,277.701 373.89,278.49 374.073,279.22C374.896,282.494 380.547,285.989 377.549,290.576C377.238,291.052 377.028,291.808 376.613,292.179C375.989,292.357 375.366,292.535 374.741,292.713C374.282,292.88 373.608,293.256 373.137,293.38C372.151,293.641 370.482,293.171 369.661,292.98C367.471,292.47 365.158,292.659 363.11,292.179C362.041,292.09 360.97,292.001 359.901,291.911C357.993,291.459 355.861,291.185 354.018,290.709C353.35,290.62 352.681,290.53 352.012,290.44C350.849,290.014 349.644,289.192 348.536,288.703C347.854,288.404 347.316,288.387 346.663,288.036C345.874,287.612 345.272,286.655 344.524,286.165C342.475,284.824 339.815,284.473 337.438,283.493C335.838,282.835 334.24,281.823 332.491,281.355C331.867,282.959 331.243,284.562 330.619,286.165C330.131,286.311 329.812,286.739 329.416,286.833C328.075,287.151 323.86,285.37 322.864,284.963C322.257,284.715 321.631,284.77 321.126,284.428C320.112,283.742 319.809,282.25 318.987,281.355C319.367,279.499 320.381,278.173 321.126,276.68C321.081,276.68 321.037,276.68 320.992,276.68C320.263,277.204 319.02,277.228 317.784,277.214C317.784,277.171 317.784,277.126 317.784,277.081C320.015,274.863 321.109,272.228 322.063,268.663C322.286,267.016 322.508,265.367 322.732,263.72C322.995,262.824 323.542,261.693 323.8,260.78C323.934,259.533 324.068,258.286 324.202,257.04C325.151,253.076 325.134,248.575 326.073,244.614C326.598,242.406 326.248,240.245 326.875,238.068C328.421,232.7 330.028,226.79 332.089,221.767C333.006,219.535 333.312,217.32 334.229,215.087C335.169,212.798 335.803,210.378 336.636,207.873C337.282,205.929 338.155,203.965 338.641,201.86C338.774,199.322 338.909,196.783 339.042,194.244C339.986,189.981 339.58,185.225 340.513,181.018C340.841,179.538 340.489,177.937 340.78,176.608C340.78,175.851 340.78,175.094 340.78,174.337C341.089,172.95 340.878,171.043 341.182,169.661C341.226,168.192 341.271,166.722 341.315,165.252C341.716,161.867 342.117,158.482 342.519,155.098C343.778,151.221 345.144,147.427 347.065,144.275C347.585,143.422 347.721,142.438 348.268,141.604C348.937,140.583 349.959,139.657 350.674,138.665C352.337,136.361 353.894,134.109 355.487,131.717C355.943,131.033 356.723,130.308 357.091,129.58C357.315,128.555 357.537,127.531 357.76,126.507C358.161,125.697 359.348,125.296 359.632,124.369C359.676,122.989 359.721,121.608 359.766,120.228C359.766,117.179 359.641,113.997 359.632,111.143C359.588,111.143 359.543,111.143 359.499,111.143C359.499,111.232 359.499,111.321 359.499,111.411C358.859,112.128 358.812,113.217 358.295,114.082C357.943,114.672 357.25,115.326 356.958,115.953C356.437,117.072 356.486,118.211 356.022,119.294C355.564,120.361 354.595,121.207 354.15,122.233C353.778,123.091 353.808,123.994 353.348,124.772C351.128,128.516 347.748,131.432 345.46,135.06C345.059,136.083 344.657,137.109 344.256,138.132C343.664,139.097 342.765,140.015 342.117,140.938C340.536,143.186 339.016,145.509 337.036,147.351C336.903,148.599 336.768,149.846 336.635,151.092C336.679,151.092 336.724,151.092 336.768,151.092C336.768,151.048 336.768,151.004 336.768,150.959C337.496,150.244 338.562,148.743 338.908,147.753C339.015,147.889 338.955,147.79 339.041,148.02C339.212,148.253 339.266,148.584 339.309,148.955C338.327,150.026 336.636,153.83 336.233,155.502C336.509,155.665 336.623,155.722 336.768,156.036C335.833,157.047 335.106,158.779 334.495,160.044C334.451,160.044 334.406,160.044 334.362,160.044C334.362,159.911 334.362,159.777 334.362,159.644C334.86,158.936 335.119,157.322 335.165,156.303C334.758,156.294 334.797,156.202 334.63,156.303C333.976,157.258 334.156,158.939 333.828,160.178C333.473,161.521 333.315,163.036 332.892,164.453C332.801,164.759 332.344,165.626 332.491,166.057C332.669,166.191 332.847,166.325 333.026,166.458C333.511,167.572 333.197,169.021 333.16,170.199C333.652,170.455 333.923,170.501 333.963,171.268C333.756,171.581 333.885,171.84 333.963,172.204C334.368,172.406 334.436,172.543 335.032,172.604C335.077,172.471 335.122,172.337 335.166,172.204C335.437,171.867 335.446,171.374 335.434,170.735C335.096,170.5 335.081,170.488 335.032,169.933C335.14,169.796 335.08,169.896 335.166,169.665C335.299,169.665 335.434,169.665 335.567,169.665C336.306,170.861 336.727,172.762 337.439,173.941C338.08,173.501 339.226,173.37 338.775,174.608C339.155,174.566 339.052,174.467 339.31,174.608C339.667,175.139 339.693,178.586 339.444,179.685C338.819,182.44 339.146,185.75 338.507,188.503C338.463,189.394 338.418,190.285 338.374,191.176C338.083,192.231 337.521,193.559 337.304,194.649C337.167,195.34 337.777,195.572 337.839,195.985C337.839,196.074 337.839,196.163 337.839,196.252C337.706,196.297 337.572,196.341 337.439,196.386C337.296,196.717 337.708,196.882 337.572,197.188C337.438,197.28 337.037,197.36 336.904,197.455C337.163,197.666 337.277,197.924 337.172,198.122C336.915,198.36 336.752,198.376 336.235,198.39C336.041,198.056 336.157,198.102 335.701,197.99C335.579,198.134 335.712,198.001 335.567,198.123C336.096,199.563 335.086,200.182 335.434,201.197C335.66,201.857 336.358,201.65 336.503,202.533C335.532,203.517 336.695,204.274 336.905,205.205C336.815,205.205 336.726,205.205 336.637,205.205C336.447,205.333 336.199,205.335 335.835,205.338C335.562,204.905 335.436,204.799 335.434,204.002C335.759,203.673 335.923,203.287 335.968,202.667C335.584,202.289 335.304,201.824 334.899,201.465C334.898,200.429 335.205,200.308 335.3,199.461C335.03,199.25 334.919,198.983 334.765,198.659C333.672,199.29 332.593,199.738 330.888,199.861C330.903,201.261 330.46,201.528 330.353,202.668C331.218,203.054 331.975,203.346 331.957,204.672C331.232,204.968 330.862,205.037 330.887,206.142C331.123,206.461 331.154,206.914 331.155,207.478C330.881,207.573 330.53,207.611 330.086,207.611C329.908,207.256 329.73,206.899 329.551,206.542C329.34,206.681 329.006,207.161 328.882,206.942C328.692,206.735 328.599,206.425 328.481,206.141C328.262,206.34 328.013,206.59 327.813,206.809C327.359,206.545 327.36,206.269 326.743,206.141C326.574,206.686 326.16,207.103 325.539,207.209C325.286,206.938 325.156,206.96 325.005,206.541C325.794,206.098 327.127,205.882 327.144,204.671C326.425,204.555 325.384,204.361 325.139,203.736C325.032,203.578 325.036,203.511 325.006,203.201C325.622,202.991 326.716,203.057 327.546,203.067C327.546,203.023 327.546,202.978 327.546,202.934C326.773,202.619 326.112,202.416 326.075,201.33C326.43,201.243 327.751,200.973 327.948,200.662C328.055,200.525 327.995,200.625 328.082,200.394C326.805,200.412 326.4,200.015 325.408,199.859C325.399,200.43 325.298,200.683 325.14,201.062C324.804,201.04 324.577,201.158 323.937,201.196C323.892,201.062 323.848,200.928 323.803,200.795C323.686,200.622 323.684,200.465 323.67,200.127C323.057,200.213 322.942,200.426 322.333,200.528C322.391,200.057 322.601,200.123 322.2,199.859C321.786,200.263 321.19,200.283 320.327,200.261C320.252,200.046 320.22,199.94 320.194,199.593C320.518,199.23 320.757,198.536 320.996,198.123C320.907,198.123 320.817,198.123 320.729,198.123C320.586,198.022 320.603,198.042 320.328,197.99C320.284,198.123 320.239,198.257 320.195,198.39C319.301,199.523 320.562,200.26 320.863,200.929C321.136,201.534 321.208,202.233 321.264,202.933C321.13,202.977 320.996,203.022 320.863,203.066C320.44,203.341 320.082,203.053 319.66,202.933C319.527,202.577 319.393,202.22 319.259,201.864C318.843,201.977 318.897,202.125 318.591,201.998C317.646,200.838 319.029,198.763 319.259,197.321C318.86,197.124 317.904,196.496 317.654,196.653C316.61,198.215 317.751,200.695 317.788,202.666C317.508,202.815 317.543,202.857 317.119,202.933C317.119,202.844 317.119,202.755 317.119,202.666C316.964,202.421 316.468,197.428 316.585,197.054C316.681,196.744 316.905,196.6 316.985,196.118C316.666,196.006 316.766,196.065 316.585,195.851C316.54,195.851 316.495,195.851 316.451,195.851C316.302,196.683 315.774,197.313 315.515,197.989C315.349,198.42 315.457,199.522 315.247,199.859C315.077,200.132 314.88,200.043 314.712,199.993C314.351,199.78 314.415,199.358 314.444,198.79C315.188,197.998 315.396,196.738 315.647,195.45C315.38,195.316 315.112,195.182 314.846,195.049C314.846,195.138 314.846,195.227 314.846,195.317C314.253,195.993 314.752,197.028 314.444,197.989C314.4,197.989 314.355,197.989 314.311,197.989C314.311,197.945 314.311,197.9 314.311,197.855C314.103,197.511 314.257,196.592 314.043,196.251C314.007,196.825 313.92,197.749 313.508,197.988C313.477,197.59 313.446,196.557 313.24,196.251C313.279,196.986 313.294,197.725 312.839,197.988C312.839,197.052 312.839,196.117 312.839,195.182C312.991,194.956 312.981,194.528 312.973,194.114C312.928,194.114 312.884,194.114 312.839,194.114C312.643,194.41 310.918,196.495 310.7,196.652C310.352,196.902 309.817,196.938 309.63,197.32C309.63,197.587 309.63,197.855 309.63,198.121C309.476,198.501 308.933,198.706 308.694,199.056C308.605,199.056 308.516,199.056 308.426,199.056C307.907,198.445 307.283,198.595 307.223,197.453C307.661,197.335 308.592,197.139 308.827,196.785C309.063,196.43 308.87,195.812 309.228,195.583C309.674,195.494 310.119,195.405 310.565,195.316C311.136,194.99 312.278,192.733 312.437,192.109C312.393,192.109 312.348,192.109 312.304,192.109C312.304,192.198 312.304,192.287 312.304,192.377C311.099,193.084 310.005,194.392 308.292,194.514C308.342,194.237 308.325,194.258 308.426,194.114C308.615,193.558 309.067,193.257 309.363,192.778C308.971,192.892 308.806,193.043 308.56,192.645C308.771,192.441 308.856,192.305 308.961,191.976C308.917,191.976 308.872,191.976 308.827,191.976C308.587,192.197 308.492,192.21 308.025,192.244C308.025,192.2 308.025,192.155 308.025,192.111C308.272,191.808 308.451,191.328 308.56,190.909C308.471,190.909 308.382,190.909 308.292,190.909C307.972,191.212 307.582,191.295 306.956,191.309C306.956,191.221 306.956,191.131 306.956,191.042C307.291,190.751 307.223,190.343 307.491,189.973C307.731,189.641 308.212,189.677 308.56,189.439C308.873,189.083 309.185,188.727 309.497,188.37C309.497,188.281 309.497,188.192 309.497,188.103C309.452,188.103 309.408,188.103 309.363,188.103C309.032,188.532 308.39,188.92 307.892,189.172C307.772,188.514 307.717,189.155 307.625,188.37C307.871,188.013 307.713,187.419 307.625,187.034C307.58,187.034 307.535,187.034 307.491,187.034C307.491,187.079 307.491,187.124 307.491,187.168C307.114,187.549 306.99,188.623 306.554,188.905C306.554,188.861 306.554,188.816 306.554,188.771C306.373,188.567 306.32,188.196 306.153,187.97C306.153,188.015 306.153,188.059 306.153,188.104C305.834,188.446 305.865,188.718 305.352,188.906C305.351,188.493 305.306,188.22 305.218,187.97C304.984,188.054 305.088,187.996 304.951,188.104C304.718,188.397 304.789,188.583 304.416,188.771C303.935,187.929 303.483,186.94 303.479,185.699C303.753,185.603 304.104,185.566 304.549,185.565C304.692,185.669 305.043,185.764 305.217,185.832C305.217,185.743 305.217,185.654 305.217,185.565C304.502,185.344 303.721,184.82 303.211,184.363C303.326,184.161 303.592,184.263 303.345,184.095C303.168,183.574 302.92,183.536 302.81,182.892C302.854,182.892 302.899,182.892 302.943,182.892C303.32,183.21 303.919,183.537 304.415,183.694C304.415,183.65 304.415,183.605 304.415,183.56C303.837,183.184 303.428,182.557 303.078,181.957C303.427,181.852 303.825,181.867 304.014,181.556C303.888,181.358 303.997,181.063 303.881,180.755C303.614,180.399 303.346,180.042 303.079,179.686C303.212,179.686 303.347,179.686 303.48,179.686C303.809,180.01 304.736,180.229 304.951,180.621C304.951,180.844 304.951,181.067 304.951,181.289C305.085,181.56 305.35,181.558 305.485,181.957C305.53,181.957 305.575,181.957 305.619,181.957C305.619,181.913 305.619,181.868 305.619,181.824C305.759,181.708 305.903,181.563 306.019,181.423C305.567,181.197 305.417,180.938 305.084,180.621C305.084,180.532 305.084,180.443 305.084,180.355C305.128,180.355 305.173,180.355 305.217,180.355C305.217,180.31 305.217,180.265 305.217,180.221C305.581,180.222 305.832,180.216 306.019,180.088C305.213,179.849 304.41,179.156 304.014,178.484C304.237,178.484 304.46,178.484 304.683,178.484C304.917,178.712 305.199,178.685 305.485,178.884C306.228,179.404 306.156,180.342 307.224,180.621C307.224,180.577 307.224,180.532 307.224,180.488C306.917,180.155 306.796,179.543 306.689,179.019C306.734,179.019 306.778,179.019 306.823,179.019C306.823,179.063 306.823,179.108 306.823,179.152C307.255,179.62 307.242,180.345 307.626,180.889C307.78,181.109 308.117,181.194 308.293,181.423C308.338,181.423 308.382,181.423 308.427,181.423C308.427,181.29 308.427,181.156 308.427,181.023C307.474,180.3 306.364,178.373 306.689,176.747C306.734,176.747 306.778,176.747 306.823,176.747C306.823,176.791 306.823,176.836 306.823,176.881C307.093,177.092 307.204,177.359 307.358,177.683C307.561,177.612 307.585,177.593 307.892,177.55C307.895,177.072 307.955,176.826 308.026,176.481C308.07,176.481 308.115,176.481 308.159,176.481C308.335,176.629 308.631,176.771 308.828,176.882C308.35,175.955 307.568,175.559 307.492,174.21C307.797,174.046 307.792,173.991 308.293,173.943C308.674,174.618 309.008,175.637 309.23,176.481C309.274,176.481 309.319,176.481 309.364,176.481C309.3,176.151 309.248,175.988 309.23,175.546C309.643,175.546 309.917,175.591 310.166,175.679C310.083,174.971 309.823,174.145 310.434,173.809C310.434,173.809 310.457,173.82 310.568,173.542C310.301,173.117 310.647,172.584 310.835,172.206C311.07,172.29 310.965,172.231 311.103,172.339C311.78,173.008 312.271,173.828 312.975,174.476C312.949,174.979 312.852,175.198 312.707,175.546C312.752,175.546 312.796,175.546 312.841,175.546C313.277,174.927 314.061,174.869 314.177,173.942C313.929,173.593 314.085,172.89 314.311,172.606C314.311,172.695 314.311,172.784 314.311,172.873C314.601,173.313 314.48,173.82 314.979,174.076C315.273,173.797 315.473,173.847 315.647,173.408C315.196,172.784 315.481,171.917 315.647,171.27C315.85,171.198 315.874,171.179 316.182,171.136C316.421,171.681 316.709,172.35 317.118,172.739C317.825,172.025 319.256,171.572 319.391,170.334C320.048,169.407 319.713,168.397 319.525,167.529C319.358,166.761 320.166,166.542 320.06,165.926C320.025,165.722 319.615,165.414 319.525,165.258C319.18,164.661 319.136,163.88 319.124,162.986C319.748,162.43 320.566,161.862 320.595,160.715C319.753,159.506 321.489,157.098 322.2,156.44C321.931,155.245 320.863,153.359 322.2,152.966C322.38,153.691 322.8,154.118 323.001,154.837C323.046,154.837 323.09,154.837 323.135,154.837C323.135,154.614 323.135,154.392 323.135,154.169C322.807,153.635 323.042,152.901 322.867,152.165C322.511,150.562 322.155,148.958 321.798,147.355C322.021,147.177 322.243,146.999 322.467,146.821C322.607,147.945 323.246,149.049 323.67,150.028C323.714,150.028 323.759,150.028 323.803,150.028C323.803,149.805 323.803,149.582 323.803,149.359C323.374,148.683 323.655,144.883 323.67,143.748C323.938,143.704 324.205,143.659 324.473,143.614C324.444,146.211 324.657,149.485 325.141,151.898C325.23,151.898 325.319,151.898 325.409,151.898C325.409,151.854 325.409,151.809 325.409,151.765C325.883,151.015 325.557,146.61 325.542,145.352C325.944,145.308 326.345,145.262 326.746,145.218C326.924,146.865 327.102,148.514 327.281,150.161C327.637,150.161 327.993,150.161 328.35,150.161C327.993,147.578 327.637,144.994 327.281,142.411C327.548,142.366 327.816,142.322 328.083,142.278C328.083,142.366 328.083,142.456 328.083,142.545C328.878,143.785 328.751,146.641 329.286,148.157C329.42,148.157 329.554,148.157 329.687,148.157C329.598,146.598 329.508,145.04 329.419,143.481C329.865,143.481 330.311,143.481 330.756,143.481C330.878,143.626 330.746,143.492 330.89,143.614C330.874,144.224 330.898,144.982 331.158,145.351C331.631,140.333 333.713,136.442 335.437,132.524C335.884,131.506 336.584,130.477 336.908,129.317C336.614,129.089 336.575,128.993 336.506,128.515C337.207,127.748 337.419,126.627 337.976,125.709C339.183,123.727 340.179,122.016 340.784,119.296C341.764,118.96 342.502,118.342 342.79,117.291C342.834,116.846 342.879,116.401 342.924,115.955C343.278,115.194 344.332,114.587 344.661,113.817C344.706,112.749 344.75,111.68 344.795,110.61C345.277,109.127 346.746,108.069 347.336,106.735C347.998,105.234 348.018,103.635 348.539,102.059C349.204,100.046 349.614,97.741 350.411,95.646C350.747,94.762 351.402,93.73 351.747,92.84C352.3,91.42 351.019,89.819 351.479,88.164C351.798,87.018 352.975,84.17 353.619,83.22C354.23,82.318 355.268,81.609 355.892,80.681C355.847,80.681 355.803,80.681 355.759,80.681C355.384,81.04 354.716,81.336 354.155,81.482C354.155,81.439 354.155,81.394 354.155,81.349C354.199,81.349 354.244,81.349 354.289,81.349C355.321,79.877 357.176,78.87 358.166,77.341C359.026,76.012 358.934,74.3 359.637,72.799C360.333,71.312 361.884,71.299 361.91,69.058C361.322,68.117 361.888,65.854 361.509,64.648C361.191,63.635 360.326,62.488 360.039,61.441C359.61,59.888 360.267,54.915 360.706,53.558C360.985,52.696 361.498,51.886 361.642,50.886C361.598,50.886 361.553,50.886 361.509,50.886C361.07,51.543 360.323,51.951 360.039,52.756C359.994,52.756 359.949,52.756 359.905,52.756C359.905,52.578 359.905,52.4 359.905,52.222C360.204,51.769 360.025,50.995 360.307,50.485C361.12,49.011 364.605,47.226 366.055,46.076C367.313,45.078 368.359,42.764 369.799,41.801C372.043,40.3 377.46,39.54 380.362,40.999C381.519,41.581 382.027,42.655 382.768,43.671C383.98,45.332 386.204,46.281 387.447,47.946C387.569,48.109 388.237,49.675 388.25,49.683C389.453,49.683 390.656,49.683 391.86,49.683C391.77,47.992 391.685,46.802 392.261,45.274C390.985,45.023 390.407,43.759 390.256,42.469C390.75,42.168 391.029,41.934 391.058,41.132C390.837,40.794 391.011,40.184 390.924,39.662C390.776,38.771 391.241,37.378 391.459,36.456C391.459,35.565 391.459,34.674 391.459,33.784C391.545,33.467 391.765,32.992 391.86,32.581C391.815,32.581 391.77,32.581 391.726,32.581C391.317,33.103 390.768,33.336 390.523,34.051C390.478,34.051 390.434,34.051 390.389,34.051C390.389,33.828 390.389,33.606 390.389,33.383C390.56,33.138 390.617,32.681 390.657,32.314C390.613,32.314 390.568,32.314 390.524,32.314C390.128,32.916 389.31,33.194 388.384,33.25C388.384,33.205 388.384,33.161 388.384,33.116C388.919,32.448 389.454,31.78 389.988,31.112C389.632,30.988 389.061,30.971 388.518,30.978C388.277,30.86 388.275,30.938 387.849,30.978C387.849,30.933 387.849,30.889 387.849,30.844C388.294,30.265 388.741,29.686 389.186,29.107C388.918,29.107 388.651,29.107 388.384,29.107C388.15,29.266 387.949,29.259 387.716,29.107C387.805,29.107 387.895,29.107 387.984,29.107C389.646,27.463 392.622,26.419 394.803,25.366C394.803,25.321 394.803,25.277 394.803,25.232C394.357,25.232 393.912,25.232 393.466,25.232C393.363,25.141 393.168,25.057 393.065,24.965C394.91,24.861 396.401,23.905 398.012,23.495C398.012,23.451 398.012,23.406 398.012,23.361C397.62,23.281 397.42,23.215 397.209,22.96C398.11,22.838 398.787,22.329 399.482,22.025C400.639,21.519 401.775,21.337 402.959,20.823C403.696,20.502 404.563,19.847 405.365,19.62C407.103,19.576 408.841,19.531 410.579,19.487C410.783,19.004 411.04,18.249 411.515,18.017C411.655,18.562 411.949,18.883 412.183,19.353C412.516,19.218 412.731,19.095 412.985,19.219C413.212,19.468 413.197,19.709 413.52,19.887C413.965,19.571 414.902,19.427 415.525,19.353C415.525,19.397 415.525,19.442 415.525,19.486C415.033,19.804 414.632,20.326 414.322,20.822C417.149,21.051 420.026,22.867 420.874,25.097C421.21,25.982 421.187,26.702 421.541,27.501C421.954,28.429 422.803,29.038 423.146,30.174C423.324,31.332 423.502,32.489 423.681,33.648C424.177,34.917 424.679,36.809 425.018,38.19C425.018,39.081 425.018,39.972 425.018,40.861C425.207,41.339 425.976,41.876 425.821,42.732C425.712,43.328 425.202,43.924 425.018,44.469C425.821,44.647 426.623,44.825 427.424,45.003C428.405,45.623 428.152,46.681 429.832,46.74C431.64,45.546 435.119,47.95 436.516,48.344C438.789,48.433 441.062,48.522 443.335,48.612C445.141,49.012 447.326,48.661 449.218,49.147C452.77,50.055 456.539,51.08 459.111,53.021C460.982,54.433 462.201,56.377 463.524,58.365C466.145,62.304 468.263,66.466 470.21,71.192C471.475,74.266 471.894,77.487 473.15,80.545C474.919,84.846 476.206,89.447 478.097,93.772C478.52,94.738 479.528,95.251 480.102,96.043C480.836,97.054 481.67,98.646 482.108,99.784C483.089,102.335 483.221,105.01 484.247,107.533C485.883,111.553 487.623,115.892 489.06,120.226C490.074,123.281 490.512,126.165 491.466,129.311C491.806,130.431 492.344,131.901 492.536,133.052C492.599,133.437 492.321,133.637 492.268,133.853C492.041,134.784 492.646,135.606 492.803,136.258C492.758,136.793 492.715,137.327 492.67,137.862C493.348,140.003 496.154,141.807 496.28,144.676C495.969,145.078 495.871,145.834 495.477,146.145C495.209,146.234 494.942,146.324 494.674,146.413C494.241,146.871 494.418,147.944 494.14,148.551C493.82,149.247 491.992,150.166 490.797,150.154C490.639,149.91 490.504,149.779 490.263,149.619C490.218,149.887 490.174,150.154 490.129,150.421C489.62,150.489 489.567,150.608 489.059,150.689C488.889,150.502 488.508,150.115 488.391,150.288C488.215,150.47 488.108,150.713 487.99,150.955C487.603,150.885 485.953,151.096 485.717,150.955C485.629,150.903 485.569,150.49 485.45,150.421C484.998,150.159 484.564,150.281 484.113,150.021C482.99,149.37 483.718,148.326 481.84,148.284C481.216,148.462 480.592,148.64 479.968,148.819C479.464,149.619 478.827,150.491 478.498,151.49C477.92,153.24 478.098,155.948 477.695,157.636C477.323,159.199 477.765,160.646 477.428,162.045C476.765,164.79 476.789,167.851 475.958,170.596C475.081,173.488 474.388,176.202 474.754,180.216C474.987,182.766 474.376,185.783 474.887,188.099C475.332,190.114 474.613,192.663 475.021,194.512C475.199,202.127 475.377,209.744 475.556,217.358C476.38,221.136 475.255,226.012 476.09,229.785C476.09,231.076 476.09,232.367 476.09,233.659C476.49,235.504 475.933,237.887 476.357,239.805C476.898,242.243 476.818,247.402 476.224,250.093C476.045,253.745 475.868,257.397 475.689,261.049C475.148,263.497 475.589,266.362 475.021,268.932C474.446,271.504 474.297,274.75 474.213,277.482ZM394.261,51.553C394.172,52.13 393.673,52.827 393.859,53.156C394.261,53.29 394.661,53.424 395.063,53.557C395.097,52.627 395.465,52.394 395.597,51.553C395.163,51.708 394.713,51.649 394.261,51.553ZM396.934,55.962C396.915,57.032 396.498,57.245 396.399,58.233C397.207,58.96 398.003,59.472 398.004,61.038C397.659,61.403 397.556,62.018 397.201,62.374C396.437,63.14 395.276,63.458 394.393,64.111C393.896,64.477 392.069,66.625 391.719,67.184C391.016,68.305 390.545,69.872 390.115,71.192C389.217,73.942 389.817,78.516 391.318,80.545C391.943,81.39 393.505,81.825 394.393,82.415C395.234,82.974 396.076,83.755 396.933,84.286C399.377,85.796 402.385,86.714 404.821,88.161C404.821,87.893 404.821,87.626 404.821,87.359C404.487,86.818 404.303,84.51 404.019,83.752C403.352,81.978 400.458,77.257 401.612,74.4C402.133,73.107 403.603,71.474 404.553,70.525C404.921,70.158 405.572,69.997 405.89,69.59C407.18,67.943 408.032,65.95 409.233,64.245C409.508,63.854 410.051,63.067 410.436,62.775C411.183,62.208 412.492,61.841 412.843,60.904C411.322,60.178 407.963,58.414 405.758,59.033C403.96,59.537 402.671,60.982 400.543,61.037C400.312,60.845 399.997,60.822 399.741,60.637C398.747,59.915 398.71,58.161 398.403,56.762C398.029,56.549 397.62,56.268 397.334,55.961C397.202,55.962 397.068,55.962 396.934,55.962ZM469.667,86.558C469.657,88.501 470.037,90.749 470.469,92.437C471.08,94.821 471.075,97.023 471.806,99.251C472.989,102.851 474.178,106.378 475.55,109.673C478.638,117.088 480.899,124.57 483.973,131.985C485.003,134.472 485.958,137.025 487.047,139.6C487.569,140.833 488.56,141.764 488.708,143.272C487.981,143.513 487.039,144.737 486.647,145.345C486.691,145.345 486.736,145.345 486.781,145.345C487.389,144.591 488.827,144.289 489.053,143.207C488.759,141.891 488.115,140.582 487.582,139.332C486.158,135.99 485.014,132.527 483.571,129.044C481.527,124.113 479.901,118.954 477.822,113.946C476.113,109.829 474.323,105.603 472.875,101.254C471.779,97.962 471.398,94.405 470.468,90.966C470.113,89.647 470.381,87.607 469.667,86.558ZM423.006,88.161C423.588,89.429 424.118,90.757 424.477,92.303C424.477,93.772 424.477,95.242 424.477,96.712C424.677,97.58 424.803,98.851 425.012,99.786C425.012,101.077 425.012,102.369 425.012,103.66C424.927,104.038 424.554,104.859 424.611,105.264C424.693,105.853 425.222,106.808 425.413,107.402C425.636,108.559 425.859,109.718 426.082,110.876C426.487,112.663 425.85,114.579 425.814,116.087C426.734,116.669 429.01,119.141 428.488,121.031C428.236,121.944 427.432,122.697 427.15,123.436C427.195,124.459 427.24,125.484 427.284,126.509C426.674,129.021 425.906,131.516 425.144,133.857C424.672,135.312 424.442,136.844 424.075,138.266C423.906,138.925 424.167,139.55 423.674,139.87C422.874,138.712 421.305,138.171 420.466,137.064C419.293,135.517 417.868,133.684 416.321,132.522C415.082,131.59 413.005,130.597 412.978,128.514C412.053,127.127 413.033,124.535 412.577,123.704C412.371,123.113 410.933,121.889 410.438,121.433C410.438,120.32 410.438,119.206 410.438,118.092C410.533,117.724 411.053,116.949 410.973,116.489C410.904,116.096 410.292,115.64 410.17,115.286C410.17,114.841 410.17,114.396 410.17,113.95C409.731,112.337 409.504,110.032 409.101,108.206C409.012,106.202 408.922,104.197 408.833,102.193C408.993,101.523 409.493,100.541 409.502,99.789C409.509,99.158 408.17,97.358 407.897,96.715C406.888,94.342 406.679,91.111 405.357,88.966C405.123,89.05 405.227,88.991 405.089,89.099C404.797,89.219 404.897,89.214 404.688,89.366C405.18,91.904 405.985,94.699 406.961,96.981C407.323,97.829 408.173,98.774 408.432,99.653C408.824,100.986 407.439,102.022 407.763,103.528C408.247,105.765 408.074,108.593 408.566,110.742C408.566,111.232 408.566,111.722 408.566,112.212C408.724,112.842 409.073,113.721 409.234,114.35C409.234,114.751 409.234,115.152 409.234,115.552C409.334,115.853 409.82,116.2 409.902,116.488C410.086,117.126 408.889,119.81 409.368,121.431C409.855,123.082 411.612,122.946 411.64,125.172C411.108,126.028 411.751,127.529 411.908,128.111C411.908,128.645 411.908,129.179 411.908,129.714C412.072,130.176 412.702,130.419 412.977,130.783C414.318,132.557 416.269,133.729 417.79,135.325C418.783,136.367 419.582,137.799 420.732,138.665C421.675,139.376 423.577,140.253 423.673,141.738C423.281,142.347 423.586,143.297 423.405,144.143C423.215,145.038 422.731,150.043 423.138,150.69C423.129,149.068 423.338,147.178 423.673,145.746C424.233,143.347 423.883,140.941 424.475,138.665C425.378,135.198 426.358,131.773 427.416,128.511C427.742,127.506 427.816,126.53 427.818,125.305C427.818,124.725 427.818,124.146 427.818,123.568C428.098,122.881 428.791,122.184 429.021,121.297C429.894,117.936 426.517,117.231 426.481,114.751C427.033,113.895 426.444,109.454 426.213,108.605C425.924,107.543 425.308,106.233 425.143,105.265C425.066,104.806 425.431,103.492 425.545,102.994C425.969,101.14 425.21,97.875 424.876,96.447C424.921,95.468 424.966,94.488 425.01,93.508C424.58,91.614 424.322,89.171 423.006,88.161ZM396.266,102.858C396.091,103.181 396.025,103.236 395.998,103.793C396.573,104.603 397.644,109.408 397.068,111.275C396.322,113.687 395.41,115.092 396.131,118.088C396.444,119.389 396.245,120.679 396.933,121.563C397.033,121.679 397.101,121.714 397.201,121.83C397.435,121.746 397.331,121.805 397.469,121.697C397.75,121.455 397.737,121.307 397.737,120.761C397.084,120.019 397.357,118.843 397.069,117.688C396.336,114.757 397.347,113.962 398.005,111.542C398.59,109.387 397.497,103.896 396.801,102.991C396.801,102.947 396.801,102.902 396.801,102.858C396.622,102.858 396.444,102.858 396.266,102.858ZM359.766,128.911C361.067,130.07 363.423,130.315 365.247,130.914C370.703,132.708 378.405,132.921 383.978,134.61C385.722,135.138 387.608,135.246 389.207,135.701C389.824,135.877 392.373,136.29 392.752,136.11C391.683,135.71 389.044,135.056 387.975,134.655C385.034,133.943 382.092,133.23 379.151,132.517C375.736,131.661 371.736,131.556 368.426,130.629C366.911,130.204 365.293,129.938 363.746,129.426C362.552,129.031 361.147,129.113 359.766,128.911ZM444.665,131.851C445.769,134.344 447.421,136.678 448.81,138.932C451.304,142.979 453.551,147.114 456.03,151.09C456.92,152.518 457.712,153.991 458.571,155.366C459.021,156.087 458.928,156.876 460.041,156.969C460.928,156.277 462.302,156.105 463.383,155.634C465.235,154.826 467.289,153.733 468.864,152.561C469.377,152.18 470.097,151.319 470.335,150.691C470.545,150.134 470.408,149.219 470.87,148.954C471.049,148.954 471.227,148.954 471.405,148.954C471.869,149.432 474.055,148.692 474.881,148.419C476.351,147.93 477.823,147.439 479.293,146.95C480.629,146.365 483.893,144.909 485.401,144.481C485.401,144.438 485.401,144.393 485.401,144.348C483.593,144.557 479.703,146.292 478.09,146.951C476.893,147.439 475.74,147.472 474.48,147.886C473.83,148.099 472.743,148.582 472.073,148.688C471.589,148.765 471.215,148.408 470.469,148.555C470.261,149.21 469.941,150.482 469.533,151.093C468.373,152.829 462.26,155.718 459.773,156.304C456.43,150.209 452.913,144.01 449.218,138.16C448.209,136.56 446.02,132.797 444.665,131.851ZM460.576,157.77C459.763,158.248 458.474,158.027 457.5,158.305C455.11,158.988 452.553,159.503 450.28,160.443C448.96,160.989 447.366,161.562 446.135,162.314C445.204,162.882 444.21,163.73 443.194,164.185C441.236,165.06 439.114,165.768 437.044,166.456C434.911,167.164 432.616,167.46 430.492,168.059C429.404,168.367 427.949,168.243 427.149,168.861C429.222,168.838 431.445,168.285 433.166,167.792C436.669,166.788 439.878,166.321 442.926,164.986C445.495,163.861 447.707,162.103 450.413,160.978C452.863,159.96 455.613,159.414 458.167,158.574C459.107,158.264 460.278,158.322 460.975,157.772C460.843,157.77 460.709,157.77 460.576,157.77ZM322.731,169.394C323.012,170.632 324.028,170.194 323.666,172.066C323.393,172.161 323.041,172.199 322.596,172.2C322.34,171.919 321.623,171.541 321.393,171.665C321.276,171.838 321.273,171.995 321.259,172.333C321.805,173.026 321.423,174.486 321.393,175.54C322.38,176.186 326.831,178.553 328.346,177.544C330.263,176.899 329.693,175.237 330.218,173.135C330.722,171.115 331.972,169.326 332.089,167.122C332.045,167.122 332.001,167.122 331.956,167.122C331.956,167.078 331.956,167.033 331.956,166.989C328.372,167.813 326.904,167.491 324.335,165.787C324.372,166.633 324.314,167.168 323.533,167.256C323.26,167.032 322.822,166.833 322.464,166.722C322.464,166.855 322.464,166.989 322.464,167.122C322.57,167.259 322.511,167.159 322.597,167.39C323.533,167.701 324.47,168.013 325.405,168.325C325.505,168.469 325.486,168.451 325.538,168.726C325.431,168.862 325.491,168.762 325.405,168.993C324.604,169.199 323.928,169.395 322.731,169.394ZM338.374,175.005C338.243,175.526 337.998,175.73 337.839,176.208C337.972,176.208 338.107,176.208 338.24,176.208C338.578,175.861 338.791,175.89 338.909,175.273C338.73,175.184 338.552,175.095 338.374,175.005ZM311.5,175.407C311.5,175.763 311.5,176.119 311.5,176.475C311.679,176.475 311.857,176.475 312.035,176.475C312.122,176.225 312.162,175.953 312.168,175.54C312.124,175.54 312.079,175.54 312.035,175.54C312.035,175.495 312.035,175.451 312.035,175.406C311.856,175.407 311.678,175.407 311.5,175.407ZM452.286,175.541C452.063,177.451 450.851,179.192 450.281,180.885C450.013,182.132 449.746,183.379 449.478,184.626C448.754,187.005 448.083,189.699 447.473,192.108C447.607,197.318 447.74,202.53 447.874,207.74C447.067,211.407 447.057,217.486 447.874,221.101C447.874,222.08 447.874,223.06 447.874,224.039C447.963,227.202 448.053,230.364 448.142,233.526C449.21,238.273 449.708,243.089 450.816,247.688C450.816,248.489 450.816,249.291 450.816,250.093C451.304,252.306 450.85,255.097 451.351,257.307C451.395,258.91 451.44,260.515 451.484,262.117C452.087,264.871 451.42,267.941 450.816,270.401C450.727,271.201 450.638,272.004 450.548,272.806C449.85,275.305 449.062,277.473 449.612,280.287C449.79,280.287 449.968,280.287 450.147,280.287C450.672,279.879 451.57,280.009 452.153,279.619C452.736,279.229 453.194,278.187 453.623,277.616C454.462,276.501 455.843,275.617 456.564,274.409C457.287,273.198 457.567,271.464 457.901,270C458.246,268.488 457.675,266.684 458.035,265.325C458.647,263.008 459.03,260.702 459.773,258.376C460.147,257.206 460.806,255.594 460.976,254.369C461.097,253.495 460.51,251.95 460.308,251.162C460.174,250.138 460.04,249.114 459.907,248.089C459.378,246.134 458.813,243.829 458.303,241.676C458.303,240.875 458.303,240.073 458.303,239.27C458.303,236.628 458.19,234.138 458.703,231.79C458.845,231.141 459.198,230.021 458.97,229.117C458.576,227.544 457.931,225.992 457.5,224.575C457.277,222.928 457.054,221.279 456.832,219.631C456.51,218.388 455.957,217.101 455.629,215.891C455.272,214.573 455.259,213.183 454.961,212.016C454.547,210.401 454.806,208.51 454.426,206.806C454.426,206.049 454.426,205.291 454.426,204.535C454.103,203.543 453.145,202.453 452.822,201.463C452.689,199.592 452.554,197.721 452.421,195.851C452.133,194.555 452.342,193.037 452.019,191.575C451.528,189.351 451.222,185.847 451.751,183.425C452.116,181.763 452.237,179.577 452.286,177.814C452.307,177.073 452.636,176.112 452.286,175.541ZM336.101,175.808C335.789,175.808 335.477,175.808 335.165,175.808C335.051,176.002 334.922,176.19 334.763,176.342C334.848,176.576 334.789,176.472 334.897,176.61C335.105,176.751 335.443,176.747 335.833,176.743C335.876,176.61 335.921,176.476 335.966,176.342C336.074,176.184 336.071,176.117 336.101,175.808ZM303.879,176.609C304.938,176.879 305.459,177.742 306.419,178.212C306.464,178.435 306.508,178.658 306.553,178.88C306.509,178.88 306.464,178.88 306.419,178.88C305.622,178.122 303.955,178.076 303.879,176.609ZM308.692,177.277C308.692,177.723 308.692,178.167 308.692,178.613C308.781,178.613 308.871,178.613 308.96,178.613C309.167,178.707 308.978,178.63 309.361,178.613C309.406,178.39 309.45,178.167 309.495,177.945C309.227,177.723 308.959,177.5 308.692,177.277ZM309.762,177.277C309.94,177.589 310.118,177.9 310.297,178.212C310.6,178.016 310.699,177.932 310.831,177.545C310.231,177.543 310.098,177.459 309.762,177.277ZM308.023,178.88C308.201,179.548 308.379,180.216 308.558,180.884C308.666,180.747 308.605,180.847 308.692,180.616C308.942,180.359 309.028,180.146 309.093,179.681C308.579,179.507 308.428,179.153 308.023,178.88ZM306.954,181.019C307.184,181.6 307.454,181.9 307.756,182.354C307.376,182.311 307.48,182.213 307.222,182.354C307.451,182.585 307.422,182.726 307.756,182.888C307.8,182.711 307.845,182.533 307.89,182.354C308.077,182.194 307.242,181.21 306.954,181.019ZM310.029,181.418C310.078,181.696 310.062,181.675 310.162,181.819C310.162,181.685 310.162,181.551 310.162,181.418C310.118,181.418 310.073,181.418 310.029,181.418ZM304.414,181.953C304.545,182.26 304.594,182.959 304.815,183.289C305.171,183.467 305.528,183.645 305.884,183.823C306.506,184.283 306.803,185.114 307.489,185.56C307.489,185.248 307.489,184.936 307.489,184.624C306.822,184.305 306.226,183.8 306.017,183.021C306.062,183.021 306.106,183.021 306.151,183.021C306.483,183.522 306.927,183.794 307.221,184.357C307.265,184.357 307.31,184.357 307.355,184.357C307.345,183.698 307.44,183.415 307.623,183.021C306.433,182.906 305.316,182.399 304.414,181.953ZM305.884,182.755C305.992,182.891 305.931,182.791 306.017,183.022C305.973,183.022 305.928,183.022 305.884,183.022C305.884,182.933 305.884,182.844 305.884,182.755ZM308.692,183.022C308.684,183.41 308.686,183.752 308.826,183.957C308.834,183.569 308.832,183.227 308.692,183.022ZM308.692,184.625C308.584,185.062 308.475,185.145 308.424,185.694C308.469,185.694 308.514,185.694 308.558,185.694C308.558,185.738 308.558,185.783 308.558,185.827C308.781,185.871 309.004,185.917 309.227,185.961C309.227,185.783 309.227,185.604 309.227,185.426C309,185.126 309.048,184.825 308.692,184.625ZM305.483,184.759C305.566,185.297 305.963,186.321 306.285,186.763C306.285,186.674 306.285,186.585 306.285,186.496C306.622,186.18 306.774,185.925 306.82,185.293C306.585,185.148 306.336,184.958 306.151,184.759C305.929,184.759 305.707,184.759 305.483,184.759ZM312.436,189.702C312.495,189.01 312.698,189.065 312.837,188.499C312.792,188.499 312.748,188.499 312.703,188.499C312.703,188.544 312.703,188.588 312.703,188.633C311.816,189.38 310.48,189.877 309.495,190.503C309.495,190.592 309.495,190.681 309.495,190.77C309.539,190.77 309.583,190.77 309.628,190.77C310.342,190.236 311.369,189.838 312.436,189.702ZM314.308,193.31C314.264,193.622 314.219,193.934 314.174,194.245C314.592,194.2 314.802,194.106 315.11,193.978C315.232,193.833 315.1,193.967 315.244,193.845C315.244,193.622 315.244,193.399 315.244,193.177C314.932,193.221 314.62,193.266 314.308,193.31ZM335.298,195.715C335.254,195.849 335.209,195.983 335.165,196.115C335.209,196.115 335.254,196.115 335.298,196.115C335.298,196.026 335.298,195.937 335.298,195.848C335.342,195.848 335.387,195.848 335.432,195.848C335.432,195.803 335.432,195.759 335.432,195.714C335.388,195.715 335.343,195.715 335.298,195.715ZM336.234,195.715C336.234,195.983 336.234,196.249 336.234,196.516C336.279,196.516 336.323,196.516 336.368,196.516C336.368,196.56 336.368,196.605 336.368,196.649C336.457,196.649 336.546,196.649 336.636,196.649C336.751,196.491 336.745,196.499 336.904,196.382C336.904,196.159 336.904,195.937 336.904,195.714C336.68,195.715 336.457,195.715 336.234,195.715ZM326.34,197.051C326.27,197.539 326.075,197.969 326.207,198.254C326.38,198.584 326.149,198.345 326.475,198.521C326.724,198.295 326.964,198.309 327.143,197.987C326.834,197.652 326.79,197.264 326.34,197.051ZM335.165,197.318C335.165,197.407 335.165,197.496 335.165,197.585C335.209,197.585 335.254,197.585 335.298,197.585C335.298,197.496 335.298,197.407 335.298,197.318C335.254,197.318 335.209,197.318 335.165,197.318ZM321.795,197.452C321.795,197.541 321.795,197.631 321.795,197.72C321.839,197.72 321.884,197.72 321.929,197.72C321.929,197.631 321.929,197.541 321.929,197.452C321.884,197.452 321.839,197.452 321.795,197.452ZM323.131,199.054C323.354,199.054 323.577,199.054 323.799,199.054C323.921,198.91 323.789,199.043 323.933,198.921C323.977,198.476 324.022,198.03 324.066,197.585C324.022,197.585 323.977,197.585 323.933,197.585C323.933,197.541 323.933,197.496 323.933,197.452C323.844,197.452 323.754,197.452 323.665,197.452C323.621,197.541 323.576,197.631 323.531,197.72C323.287,198.029 323.187,198.564 323.131,199.054ZM332.223,197.719C332.051,197.964 331.96,197.947 331.822,198.253C331.778,198.253 331.733,198.253 331.688,198.253C331.688,198.297 331.688,198.341 331.688,198.386C331.733,198.386 331.777,198.386 331.822,198.386C332.079,198.756 332.32,198.854 332.891,198.921C332.936,198.787 332.98,198.653 333.025,198.52C333.212,198.221 333.098,198.083 333.025,197.719C332.758,197.719 332.491,197.719 332.223,197.719ZM321.394,197.853C321.244,198.132 321.202,198.097 321.126,198.52C321.17,198.52 321.215,198.52 321.26,198.52C321.396,198.413 321.298,198.473 321.528,198.387C321.612,198.153 321.553,198.258 321.662,198.119C321.662,198.031 321.662,197.942 321.662,197.852C321.572,197.853 321.482,197.853 321.394,197.853ZM330.752,198.119C330.403,198.098 330.299,198.062 330.084,197.986C330.084,198.119 330.084,198.253 330.084,198.386C330.206,198.51 330.262,198.621 330.351,198.787C330.44,198.742 330.529,198.698 330.618,198.653C330.691,198.451 330.708,198.428 330.752,198.119ZM328.747,198.253C328.595,198.413 328.407,198.536 328.212,198.653C328.296,198.887 328.238,198.783 328.346,198.921C328.39,199.054 328.435,199.188 328.479,199.321C328.568,199.321 328.657,199.321 328.747,199.321C328.931,198.982 329.003,198.854 329.014,198.253C328.925,198.253 328.836,198.253 328.747,198.253ZM330.485,200.525C329.995,200.613 329.504,200.703 329.014,200.792C329.014,200.926 329.014,201.059 329.014,201.193C329.314,201.297 329.741,201.329 330.218,201.326C330.334,201.167 330.327,201.176 330.485,201.058C330.485,200.881 330.485,200.703 330.485,200.525ZM328.212,202.261C328.064,202.691 328.045,202.845 328.479,203.063C328.668,203.191 328.917,203.194 329.281,203.197C329.326,203.108 329.37,203.019 329.415,202.93C328.956,202.696 328.761,202.419 328.212,202.261ZM329.282,204.132C329.332,204.409 329.315,204.389 329.416,204.533C329.688,204.784 329.929,204.801 330.486,204.801C330.486,204.712 330.486,204.623 330.486,204.533C330.286,204.325 330.382,204.287 330.085,204.132C329.862,204.243 329.738,204.164 329.282,204.132Z" style="fill-rule:nonzero;"/>
    </g>
</svg>
