<?xml version="1.0" encoding="UTF-8" standalone="no"?>
<!DOCTYPE svg PUBLIC "-//W3C//DTD SVG 1.1//EN" "http://www.w3.org/Graphics/SVG/1.1/DTD/svg11.dtd">
<svg width="100%" height="100%" viewBox="0 0 41 111" version="1.1" xmlns="http://www.w3.org/2000/svg" xmlns:xlink="http://www.w3.org/1999/xlink" xml:space="preserve" xmlns:serif="http://www.serif.com/" style="fill-rule:evenodd;clip-rule:evenodd;stroke-linejoin:round;stroke-miterlimit:1.41421;">
    <g transform="matrix(1,0,0,1,-20.534,-11.002)">
        <path d="M40.51,114.188C40.184,114.167 39.857,114.147 39.531,114.126C39.804,114.641 39.836,114.65 39.5,115.075C39.384,115.095 39.354,115.107 39.287,115.167C39.328,115.36 39.369,115.554 39.41,115.748C39.118,115.968 38.888,116.152 38.522,116.329C38.593,116.401 38.664,116.472 38.736,116.543C39.179,117.446 40.702,118.592 41.613,119.083C41.975,119.278 42.431,119.277 42.743,119.511C43.154,119.82 43.421,120.369 43.63,120.888C43.24,120.993 43.101,121.221 42.835,121.347C42.538,121.488 42.161,121.299 41.856,121.377C41.59,121.52 41.326,121.663 41.062,121.805C40.253,121.978 38.208,121.015 37.758,120.704C37.382,120.446 37.175,119.93 36.687,119.787C36.213,119.649 35.639,119.746 35.126,119.818C34.192,119.948 33.198,119.457 32.893,118.9C32.16,117.56 33.551,115.844 33.995,114.8C33.833,114.514 33.669,114.229 33.507,113.944C34.11,113.143 35.547,111.486 35.371,110.181C35.086,109.997 34.801,109.813 34.515,109.63C34.577,109.558 34.639,109.487 34.7,109.416C34.953,109.436 35.208,109.457 35.464,109.477C35.97,107.129 34.61,107.486 33.322,106.602C33.018,106.393 32.787,106.001 32.587,105.685C32.827,105.182 33.145,104.779 33.26,104.155C33.025,103.758 32.791,103.36 32.557,102.962C30.894,100.841 29.231,98.72 27.57,96.599C26.999,95.701 26.428,94.804 25.857,93.906C25.276,93.733 24.695,93.559 24.113,93.386C23.036,93.046 21.705,92.27 21.389,91.183C21.421,90.602 21.451,90.02 21.481,89.439C21.594,88.44 21.705,87.44 21.819,86.441C21.991,85.982 22.166,85.523 22.338,85.064C23.177,82.909 24.001,80.887 25.183,79.068C25.764,78.282 26.346,77.497 26.926,76.713C27.304,76.009 27.682,75.305 28.058,74.602C28.63,73.959 29.2,73.317 29.772,72.674C29.792,72.307 29.812,71.94 29.833,71.572C29.906,71.151 30.161,70.883 30.261,70.533C30.282,69.758 30.302,68.983 30.322,68.208C30.511,67.31 30.788,66.296 30.965,65.271C30.954,64.69 30.945,64.108 30.935,63.528C31.064,62.891 31.49,61.507 31.362,60.836C31.004,58.923 30.578,57.007 29.957,55.268C29.529,54.289 29.101,53.31 28.672,52.332C28.457,51.435 28.243,50.536 28.029,49.639C27.958,49.16 27.887,48.68 27.814,48.201C27.081,47.161 26.346,46.121 25.612,45.08C25.296,44.489 24.98,43.898 24.665,43.306C24.588,43.041 24.714,42.819 24.633,42.633C23.528,42.124 22.768,38.692 22.309,37.341C21.826,35.924 21.451,34.457 21.024,32.905C20.86,32.283 20.697,31.661 20.534,31.039C20.592,29.896 22.69,28.54 23.472,27.95C25.02,26.78 26.554,25.576 28.275,24.554C30.232,23.388 32.475,22.484 33.964,20.853C33.972,19.541 33.893,18.266 33.781,17.181C34.436,16.57 34.901,15.71 35.126,14.673C35.388,13.477 34.986,12.014 35.371,11.002C35.402,11.012 35.434,11.023 35.464,11.033C36.039,11.703 36.066,12.679 36.076,13.909C36.279,13.674 36.483,13.44 36.688,13.205C36.688,13.226 36.688,13.246 36.688,13.267C37.16,13.743 36.697,14.508 36.811,15.072C37.785,15.217 38.648,15.972 39.136,16.632C39.125,16.653 39.114,16.673 39.105,16.694C38.846,16.8 38.705,16.882 38.279,16.878C37.942,16.41 37.368,15.819 36.473,16.112C36.371,16.367 36.269,16.622 36.167,16.878C36.712,17.586 36.163,18.003 36.352,18.805C36.577,19.386 36.8,19.968 37.023,20.549C37.268,21.697 35.788,22.818 35.218,23.272C34.424,23.985 33.628,24.7 32.833,25.414C31.127,26.782 29.522,28.334 28.152,30.033C27.356,30.89 26.561,31.747 25.765,32.602C25.585,33.363 27.605,34.997 27.937,35.479C28.51,36.651 29.079,37.824 29.651,38.997C30.838,40.56 32.978,41.734 33.811,43.586C36.133,42.181 35.11,40.209 33.964,38.446C32.714,38.468 32.834,36.946 33.078,35.968C32.933,35.754 32.791,35.54 32.648,35.326C32.639,35.06 32.627,34.795 32.617,34.53C32.434,34.306 32.251,34.081 32.067,33.858C32.178,33.357 32.145,32.914 32.097,32.297C32.199,32.186 32.301,32.073 32.404,31.96C32.147,30.118 33.426,29.302 34.423,28.504C34.626,28.31 34.83,28.116 35.035,27.923C35.437,27.785 35.874,27.908 36.226,27.77C36.95,27.487 37.675,26.854 38.705,27.066C40.501,27.436 41.926,28.604 42.805,29.91C43.113,30.368 43.87,32.067 43.63,32.877C43.559,33.01 43.487,33.142 43.416,33.275C43.223,33.921 43.471,34.066 43.08,34.529C43.327,35.621 43.098,35.332 42.835,36.059C42.589,36.738 43,37.648 42.682,38.169C42.458,38.21 42.234,38.252 42.009,38.292C41.959,38.537 41.907,38.781 41.857,39.026C41.765,39.398 41.544,39.726 41.459,40.036C41.479,40.719 41.5,41.403 41.521,42.085C41.989,42.33 42.459,42.575 42.926,42.82C43.477,43.033 44.029,43.247 44.579,43.462C45.303,43.595 46.026,43.727 46.751,43.859C47.21,43.87 47.669,43.88 48.128,43.89C48.536,44.124 48.942,44.359 49.352,44.594C49.964,44.91 50.576,45.226 51.186,45.543C51.87,46.205 52.554,46.868 53.235,47.531C53.634,47.938 54.031,48.347 54.429,48.754C54.694,48.959 54.96,49.163 55.225,49.366C55.788,50.063 56.369,50.738 56.936,51.447C58.145,52.955 60.326,54.515 60.822,56.617C61.051,57.589 60.407,58.619 60.15,59.248C59.352,61.196 58.603,63.094 57.794,64.969C57.137,66.492 56.355,67.843 55.531,69.192C55.131,69.844 54.823,70.583 54.217,71.026C53.177,71.047 52.135,71.068 51.096,71.088C51.951,73.448 52.952,75.914 53.542,78.43C53.542,78.95 53.542,79.47 53.542,79.99C53.542,80.884 53.607,81.584 53.756,82.377C54.061,84.446 54.369,86.517 54.674,88.586C54.877,89.616 55.08,90.647 55.286,91.676C55.266,91.676 55.244,91.676 55.225,91.676C54.459,91.84 53.695,92.003 52.93,92.166C53.277,92.573 53.624,92.982 53.97,93.39C54.617,93.762 55.457,93.741 56.235,93.972C56.562,94.135 56.887,94.298 57.214,94.461C58.636,95.087 59.07,95.195 59.784,96.572C59.956,96.906 60.17,97.191 60.242,97.643C60.17,97.694 60.1,97.744 60.029,97.795C57.448,97.555 55.069,96.806 52.166,96.786C51.379,96.781 50.486,96.492 49.72,96.694C49.555,97.083 49.392,97.469 49.23,97.857C48.586,99.373 47.827,100.86 46.904,102.14C46.599,102.497 46.293,102.854 45.987,103.211C45.589,104.038 45.191,104.863 44.794,105.69C43.988,107.158 43.183,108.627 42.377,110.095C41.929,110.921 41.479,111.746 41.031,112.573C40.613,112.552 40.196,112.532 39.776,112.511C40.063,113.043 40.489,113.39 40.51,114.188ZM48.463,51.719C48.36,52.698 48.26,53.677 48.156,54.656C48.127,55.757 48.095,56.859 48.065,57.961C48.035,58.674 48.003,59.388 47.973,60.102C48.369,62.251 49.052,64.251 49.533,66.435C50.353,66.604 51.539,67.611 52.103,67.537C53.109,67.404 53.359,66.303 53.785,65.579C54.396,64.544 54.959,63.287 55.315,62C55.737,60.477 55.891,59.054 56.418,57.686C55.728,56.791 54.65,56.175 53.725,55.515C51.971,54.248 50.217,52.982 48.463,51.719ZM50.574,89.806C50.31,89.888 50.043,89.969 49.779,90.051C49.473,90.398 49.168,90.745 48.861,91.091C48.443,91.357 48.026,91.622 47.606,91.887C47.606,91.896 47.606,91.907 47.606,91.918C48.147,92.183 48.689,92.448 49.229,92.712C48.964,93.813 48.699,94.914 48.433,96.016C48.433,96.026 48.433,96.037 48.433,96.047C49.178,96.138 49.923,96.231 50.667,96.323C51.768,96.353 52.871,96.383 53.97,96.414C55.878,96.741 57.785,97.067 59.691,97.393C59.691,97.383 59.691,97.372 59.691,97.362C59.496,96.86 59.394,96.124 58.987,95.832C58.722,95.721 58.457,95.608 58.192,95.496C56.944,94.897 55.389,94.411 54.216,93.721C54.001,93.598 53.786,93.476 53.573,93.354C52.825,92.413 51.818,90.086 50.574,89.806Z" style="fill-rule:nonzero;"/>
    </g>
</svg>
