<?xml version="1.0" encoding="UTF-8" standalone="no"?>
<!DOCTYPE svg PUBLIC "-//W3C//DTD SVG 1.1//EN" "http://www.w3.org/Graphics/SVG/1.1/DTD/svg11.dtd">
<svg width="100%" height="100%" viewBox="0 0 57 108" version="1.1" xmlns="http://www.w3.org/2000/svg" xmlns:xlink="http://www.w3.org/1999/xlink" xml:space="preserve" xmlns:serif="http://www.serif.com/" style="fill-rule:evenodd;clip-rule:evenodd;stroke-linejoin:round;stroke-miterlimit:1.41421;">
    <g transform="matrix(1,0,0,1,-112.788,-15.818)">
        <path d="M152.061,116.859C152.054,118.162 151.735,119.212 151.533,120.214C151.533,120.686 151.533,121.157 151.533,121.627C151.24,122.281 149.175,122.983 148.294,122.334C147.441,122.735 147.067,122.622 146.057,122.394C145.979,120.699 147.085,119.859 147.529,118.538C147.578,118.056 147.626,117.576 147.675,117.095C147.716,116.692 147.754,116.29 147.793,115.888C146.919,115.706 146.063,115.139 145.291,114.799C144.869,114.612 144.447,114.425 144.025,114.239C143.72,113.748 143.417,113.257 143.112,112.767C142.218,111.343 141.737,109.479 141.082,107.82C140.768,107.026 140.453,106.231 140.139,105.435C140.238,104.199 140.336,102.961 140.433,101.726C140.483,100.431 140.532,99.135 140.582,97.84C141.15,95.848 141.718,93.855 142.289,91.862C142.826,90.115 142.927,87.993 143.791,86.563C144.35,86.003 144.909,85.444 145.469,84.884C145.389,84.403 145.312,83.923 145.232,83.442C145.292,83.088 145.352,82.735 145.409,82.382C145.605,81.428 145.586,80.398 145.939,79.555C146.106,79.281 146.272,79.006 146.44,78.732C146.547,78.407 146.656,78.084 146.764,77.759C146.597,77.426 146.429,77.092 146.264,76.759C146.134,76.786 146.136,76.821 146.058,76.759C145.783,75.934 145.509,75.111 145.232,74.285C144.231,73.294 143.231,72.303 142.23,71.311C141.419,70.272 140.745,68.867 139.697,68.073C139.697,68.092 139.697,68.112 139.697,68.132C139.52,69.153 139.343,70.174 139.168,71.195C138.457,73.532 137.385,75.948 136.428,78.113C136.165,78.712 135.899,79.311 135.634,79.91C133.504,83.246 130.53,85.531 127.126,87.594C125.379,88.419 123.632,89.242 121.885,90.068C121.032,90.646 120.333,91.561 119.794,92.453C119.648,92.786 119.501,93.12 119.354,93.453C118.961,93.718 118.569,93.983 118.177,94.248C117.836,94.359 116.146,93.967 115.849,93.894C115.732,93.639 115.614,93.384 115.497,93.129C115.457,93.168 115.418,93.207 115.379,93.247C114.737,93.539 113.79,94.882 112.934,94.69C112.886,94.533 112.838,94.377 112.788,94.219C112.833,93.646 115.121,92 115.585,91.393C115.111,91.488 114.968,91.63 114.553,91.422C114.886,90.878 115.281,89.19 115.703,88.861C116.29,88.403 117.125,88.304 117.998,88.124C118.293,88.076 118.587,88.026 118.881,87.977C120.531,86.986 122.179,85.995 123.828,85.004C125.202,83.865 126.577,82.726 127.95,81.589C128.951,80.833 129.952,80.077 130.952,79.322C131.448,78.514 131.428,77.447 131.806,76.495C132.287,75.514 132.768,74.533 133.249,73.551C133.749,72.07 134.249,70.587 134.751,69.105C135.3,66.976 135.85,64.845 136.4,62.716C136.98,61.517 137.99,60.589 138.754,59.565C138.656,59.389 138.559,59.212 138.46,59.036C137.875,59.318 135.562,60.8 134.721,60.507C134.099,60.292 134.016,59.728 133.66,59.241C133.514,59.135 133.367,59.026 133.219,58.918C133.172,58.771 133.122,58.623 133.073,58.477C132.916,58.417 132.759,58.359 132.601,58.3C132.521,58.134 132.444,57.967 132.364,57.8C132.188,57.839 132.011,57.878 131.836,57.917C131.688,57.76 131.54,57.604 131.395,57.446C131.551,56.63 131.751,55.84 132.042,55.12C131.825,54.914 131.609,54.708 131.395,54.502C130.851,53.647 131.356,52.498 131.365,51.263C131.198,51.263 131.032,51.263 130.863,51.263C130.893,51.233 130.924,51.203 130.952,51.174C131.12,50.929 131.287,50.683 131.453,50.438C131.296,50.438 131.14,50.438 130.982,50.438C130.993,50.409 131.001,50.379 131.012,50.35C131.275,49.908 131.54,49.467 131.806,49.026C132.95,48.132 134.3,47.553 135.723,46.935C136.075,46.768 136.428,46.601 136.783,46.434C137.381,46.552 137.979,46.67 138.579,46.787C138.479,46.925 138.382,47.063 138.285,47.2C139.087,47.395 139.877,47.628 140.816,47.73C140.679,47.887 140.542,48.044 140.404,48.202C141.215,48.306 141.982,48.468 142.878,48.496C142.78,48.751 142.681,49.006 142.583,49.262C142.996,49.497 143.407,49.733 143.82,49.969C143.693,50.107 143.566,50.244 143.438,50.381C143.605,50.519 143.771,50.657 143.938,50.794C144.421,50.794 144.901,50.794 145.381,50.794C145.782,48.428 147.614,46.625 148.708,44.876C149.326,43.375 149.946,41.873 150.563,40.372C150.905,39.734 151.249,39.096 151.593,38.458C151.474,37.683 151.358,36.908 151.241,36.133C151.053,35.162 151.171,33.878 151.328,32.835C151.608,30.975 151.323,27.825 151.004,26.123C150.902,25.583 150.671,24.255 150.356,24.002C149.966,23.815 149.462,23.845 149.178,23.561C149.235,22.926 149.157,22.79 148.882,22.412C149.158,21.048 150.129,20.475 150.827,19.527C150.767,19.056 150.71,18.585 150.65,18.114C150.758,17.702 150.865,17.29 150.973,16.877C151.003,16.564 151.034,16.25 151.062,15.936C151.18,15.897 151.297,15.858 151.416,15.818C151.533,16.064 151.651,16.309 151.768,16.554C151.728,16.956 151.69,17.36 151.651,17.761C151.543,18.477 152.047,19.312 152.388,19.646C152.846,19.658 153.251,19.724 153.476,19.97C153.397,20.156 153.319,20.342 153.24,20.53C153.379,20.667 153.515,20.804 153.653,20.941C153.555,21.164 153.265,21.647 153.358,21.824C153.457,21.971 153.556,22.118 153.653,22.266C153.585,22.746 153.515,23.227 153.446,23.708C153.308,24.611 153.416,26.004 153.594,26.83C154.255,29.911 155.337,32.751 155.448,36.339C155.458,36.86 155.468,37.379 155.478,37.9C155.517,38.204 155.558,38.509 155.596,38.813C155.37,39.392 155.145,39.971 154.92,40.551C154.761,41.375 154.606,42.199 154.447,43.024C154.202,43.848 153.957,44.673 153.711,45.497C153.594,45.939 153.475,46.38 153.357,46.822C153.103,47.254 152.847,47.686 152.592,48.117C152.357,49.138 152.122,50.159 151.885,51.179C151.827,51.474 151.767,51.768 151.709,52.062C151.868,53.298 152.588,54.16 153.123,55.065C154.196,56.881 155.209,58.669 156.302,60.424C157.116,61.896 157.931,63.368 158.745,64.84C159.559,67.166 160.374,69.492 161.188,71.818C161.502,71.641 161.817,71.465 162.13,71.288C162.103,72.629 162.521,73.237 162.895,74.144C163.004,74.438 163.112,74.732 163.218,75.026C163.661,75.291 164.102,75.556 164.544,75.821C164.809,76.655 165.075,77.489 165.339,78.323C166.137,80.596 166.875,82.749 166.898,85.802C166.665,85.566 166.428,85.33 166.192,85.095C166.969,87.239 167.376,89.555 168.047,91.808C168.488,93.555 168.929,95.302 169.371,97.048C168.96,98.589 168.548,100.131 168.136,101.671C167.349,104.464 166.401,107.06 165.456,109.738C164.945,111.269 164.436,112.8 163.925,114.331C163.598,114.404 162.971,114.719 162.571,114.625C161.813,114.448 161.008,113.651 160.156,113.447C159.46,113.467 158.762,113.486 158.066,113.506C158.871,114.32 159.675,115.135 160.481,115.949C161.373,116.989 162.266,118.03 163.159,119.07C163.568,119.577 164.793,120.3 164.719,121.19C164.597,122.69 163.12,122.443 161.688,122.662C160.756,122.701 159.823,122.741 158.891,122.78C157.222,123.035 155.412,122.947 153.828,123.221C153.139,123.341 150.802,123.677 150.441,123.428C150.358,123.267 150.261,123.274 150.38,123.134C150.757,122.324 151.639,122.305 152.471,121.955C153.86,121.373 156.286,120.666 157.064,119.512C156.321,118.518 155.427,117.59 154.415,116.862C153.614,116.855 152.826,116.833 152.061,116.859ZM154.388,97.162C153.924,98.642 152.933,99.861 152.122,101.018C151.808,101.548 151.493,102.079 151.179,102.608C150.689,103.03 150.198,103.453 149.707,103.875C150.237,105.516 151.45,106.536 152.387,107.761C152.404,107.752 152.425,107.741 152.445,107.732C152.643,105.827 153.586,103.99 154.007,102.255C154.064,101.519 154.125,100.783 154.183,100.047C154.25,99.085 154.318,98.124 154.388,97.162Z" style="fill-rule:nonzero;"/>
    </g>
</svg>
