<?xml version="1.0" encoding="UTF-8" standalone="no"?>
<!DOCTYPE svg PUBLIC "-//W3C//DTD SVG 1.1//EN" "http://www.w3.org/Graphics/SVG/1.1/DTD/svg11.dtd">
<svg width="100%" height="100%" viewBox="0 0 55 109" version="1.1" xmlns="http://www.w3.org/2000/svg" xmlns:xlink="http://www.w3.org/1999/xlink" xml:space="preserve" xmlns:serif="http://www.serif.com/" style="fill-rule:evenodd;clip-rule:evenodd;stroke-linejoin:round;stroke-miterlimit:1.41421;">
    <g transform="matrix(1,0,0,1,-185.532,-17.516)">
        <path d="M190.049,17.626C190.204,17.808 190.362,17.989 190.517,18.171C190.496,18.859 190.326,19.447 190.257,20.015C190.686,20.798 191.469,20.745 192.439,21.001C192.647,21.079 192.854,21.157 193.061,21.234C193.1,21.415 193.005,21.609 192.931,21.755C192.439,21.719 191.945,21.685 191.451,21.651C191.668,22.039 191.885,22.429 192.101,22.818C193.088,22.486 194.05,23.065 194.048,24.116C193.679,24.23 193.322,23.975 192.93,24.116C192.485,24.277 192.123,24.802 191.763,25.078C191.716,26.535 192.26,27.345 192.697,28.376C193.456,30.167 194.269,31.679 195.191,33.258C195.89,34.453 196.439,35.775 196.88,37.205C197.07,37.924 197.26,38.642 197.451,39.361C197.823,39.889 198.196,40.417 198.567,40.945C199.095,41.793 199.493,42.738 200.075,43.568C200.334,43.793 200.594,44.019 200.853,44.243C201.001,44.624 201.147,45.004 201.294,45.386C201.485,45.542 201.675,45.698 201.866,45.853C202.369,46.254 202.899,46.783 203.112,47.463C203.129,47.463 203.146,47.463 203.163,47.463C203.354,47.169 203.544,46.875 203.735,46.58C203.828,46.336 203.627,46.091 203.684,45.853C203.795,45.663 203.907,45.473 204.021,45.281C204.618,44.27 205.19,43.537 206.201,42.944C209.302,41.127 213.731,44.047 214.459,46.321C214.681,47.009 214.281,47.525 214.148,47.905C214.105,48.19 214.061,48.475 214.018,48.761C213.922,48.866 213.828,48.969 213.731,49.073C213.576,49.465 213.586,49.871 213.42,50.191C213.229,50.56 212.947,50.614 212.875,51.151C212.771,51.194 212.667,51.237 212.564,51.281C212.667,51.498 212.771,51.714 212.875,51.93C213.03,52.713 211.814,54.052 211.602,54.657C212.055,55.255 212.75,55.65 213.343,56.11C214.83,57.268 216.488,58.537 217.446,60.214C218.109,61.374 218.308,62.945 218.718,64.318C219.099,65.297 219.48,66.274 219.863,67.253C220.346,68.266 220.831,69.278 221.316,70.292C222.272,71.765 223.731,72.804 224.743,74.239C225.168,74.949 225.593,75.659 226.016,76.368C227.623,78.947 229.298,81.739 231.858,83.354C232.654,83.855 232.823,83.317 233.52,83.199C233.884,83.137 234.455,83.465 234.716,83.589C235.104,83.279 235.177,83.011 235.78,83.147C235.805,83.527 235.728,83.764 235.676,84.082C235.279,84.351 234.631,84.364 234.351,84.757C235.064,85.696 236.168,86.417 236.794,87.432C236.959,87.873 237.122,88.315 237.286,88.757C237.748,89.528 238.438,90.345 238.662,91.302C238.602,91.388 238.541,91.475 238.48,91.562C238.48,91.579 238.48,91.596 238.48,91.613C237.146,90.856 236.501,89.296 235.078,88.601C234.44,88.289 233.032,88.473 232.482,88.16C231.059,87.351 230.124,86.046 228.87,85.069C227.117,83.703 225.472,82.263 223.911,80.707C223.461,80.273 223.01,79.841 222.56,79.408C221.246,77.711 219.928,76.014 218.613,74.317C217.505,72.932 216.397,71.547 215.289,70.162C214.478,69.125 213.501,68.162 213.134,66.683C213.117,66.674 213.1,66.665 213.081,66.657C212.45,67.808 211.819,68.96 211.187,70.111C210.918,70.491 210.65,70.873 210.382,71.254C210.282,71.524 210.446,72.079 210.511,72.266C210.65,72.673 210.789,73.08 210.928,73.487C211.11,74.268 210.911,74.988 211.188,75.59C211.309,75.737 211.429,75.884 211.551,76.032C211.949,76.775 212.347,77.52 212.747,78.264C213.332,79.627 213.666,81.109 214.019,82.705C214.139,83.245 214.225,84.504 214.123,85.12C214.106,85.518 214.088,85.916 214.07,86.314C214.176,86.912 214.279,87.509 214.383,88.106C214.417,88.348 214.451,88.591 214.487,88.833C214.615,89.006 214.746,89.18 214.877,89.353C215.483,90.255 215.919,90.677 216.772,91.326C217.041,91.673 217.309,92.019 217.578,92.366C217.767,92.582 217.959,92.798 218.148,93.015C218.218,93.794 218.287,94.573 218.356,95.352C218.944,95.828 219.534,96.304 220.121,96.78C220.485,97.55 220.849,98.321 221.212,99.092C221.801,99.273 222.39,99.455 222.977,99.636C223.497,100.164 224.016,100.693 224.536,101.22C224.899,101.506 225.263,101.792 225.627,102.077C226.172,102.882 226.718,103.687 227.262,104.492C227.86,105.279 228.458,106.068 229.054,106.856C229.733,107.807 230.414,108.648 231.314,109.375C231.497,109.548 231.677,109.721 231.858,109.895C232.024,110.068 232.188,110.241 232.353,110.414C232.171,110.596 231.989,110.778 231.808,110.96C232.329,111.591 232.846,112.224 233.366,112.856C233.895,113.22 234.422,113.583 234.95,113.947C235.21,114.137 235.469,114.328 235.73,114.518C236.342,114.726 237.522,114.274 237.988,114.44C238.118,114.544 238.249,114.648 238.379,114.752C238.507,114.839 238.638,114.925 238.769,115.012C239.061,115.48 239.358,116.94 239.208,117.79C239.149,118.214 239.087,118.639 239.027,119.062C239.291,120.244 240.098,121.307 240.403,122.412C240.403,122.923 240.403,123.433 240.403,123.945C240.173,124.57 238.727,125.872 237.729,125.685C237.256,125.595 236.88,125.386 236.534,125.216C236.462,125.062 236.476,124.75 236.483,124.515C236.843,124.038 237.824,124.149 238.093,123.606C238.127,123.572 238.163,123.537 238.197,123.502C237.729,122.957 237.261,122.411 236.796,121.866C235.929,121.035 235.064,120.204 234.197,119.373C233.403,118.395 232.605,117.416 231.809,116.438C230.866,115.459 229.921,114.481 228.979,113.503C228.84,113.373 228.701,113.243 228.562,113.113C228.217,113.551 227.541,114.141 226.979,114.334C226.633,114.394 226.287,114.455 225.941,114.516C225.003,114.737 224.136,114.89 223.109,114.698C222.919,114.681 222.728,114.663 222.538,114.646C221.611,113.954 220.684,113.261 219.758,112.568C218.964,111.92 218.165,111.27 217.37,110.62C216.684,110.094 215.856,109.602 215.423,108.828C214.756,106.733 214.089,104.638 213.423,102.543C212.885,102.093 212.349,101.643 211.813,101.193C210.749,100.162 209.683,99.132 208.619,98.103C207.737,96.995 206.853,95.886 205.971,94.778C204.777,95.676 203.695,97.09 202.802,98.311C202.481,98.726 202.161,99.142 201.841,99.557C201.651,100.051 201.461,100.544 201.269,101.037C201.131,101.357 200.993,101.678 200.854,101.998C201.036,102.803 201.218,103.608 201.399,104.413C201.589,105.244 201.78,106.076 201.97,106.906C201.97,107.823 201.97,108.742 201.97,109.659C201.658,109.814 201.348,109.971 201.035,110.127C200.54,110.29 200.048,110.456 199.556,110.619C199.075,111.006 199.395,111.527 198.516,111.711C198.672,112.282 198.829,112.853 198.984,113.425C199.019,114.152 199.053,114.878 199.088,115.606C199.347,116.125 199.607,116.645 199.866,117.164C199.919,117.761 199.97,118.358 200.021,118.956C200.177,119.353 200.334,119.752 200.489,120.15C200.715,120.463 200.94,120.774 201.165,121.085C201.505,121.831 202.076,123.669 201.528,124.565C201.148,125.186 199.402,125.244 198.438,125.084C198.065,125.058 197.694,125.032 197.321,125.006C195.175,125.373 192.82,125.748 190.621,125.292C190.395,125.283 190.17,125.275 189.947,125.266C189.504,125.085 189.376,124.635 188.777,124.539C188.683,124.297 188.587,124.054 188.491,123.811C188.849,123.248 189.66,123.35 190.31,123.084C191.719,122.506 193.003,121.891 194.205,121.136C194.551,120.928 194.897,120.72 195.243,120.512C195.795,119.626 195.242,116.613 195.243,115.293C194.008,115.08 192.693,114.733 191.842,114.099C191.548,114.22 191.252,114.341 190.958,114.462C190.793,114.263 190.628,114.064 190.465,113.865C189.882,113.899 188.469,114.378 187.919,114.228C187.694,114.115 187.47,114.003 187.244,113.89C187.063,113.942 186.881,113.994 186.699,114.046C186.193,114.003 185.875,113.675 185.532,113.474C185.557,112.548 185.583,111.621 185.61,110.695C186.017,109.424 186.423,108.15 186.83,106.878C186.952,106.263 187.074,105.649 187.194,105.034C187.41,104.324 187.628,103.614 187.843,102.904C188.191,101.76 187.931,100.135 188.284,99.009C188.466,98.637 188.648,98.264 188.829,97.892C189.388,96.622 190.088,95.447 190.621,94.204C191.341,92.529 191.716,90.942 192.698,89.557C193.279,88.968 193.86,88.379 194.44,87.79C194.664,87.462 194.889,87.132 195.115,86.804C195.141,86.466 195.166,86.129 195.192,85.791C195.453,85.488 195.711,85.185 195.971,84.882C195.99,84.649 196.007,84.415 196.024,84.181C196.229,82.958 196.397,82.89 197.685,82.909C197.486,82.433 197.288,81.957 197.088,81.48C197.088,81.143 197.088,80.805 197.088,80.468C197.029,79.525 197.039,78.448 197.192,77.534C197.228,77.16 197.261,76.788 197.296,76.416C197.122,75.906 196.949,75.395 196.775,74.884C196.758,74.287 196.741,73.69 196.725,73.092C196.589,72.27 196.59,70.842 196.725,70.001C196.733,69.326 196.741,68.651 196.75,67.976C197.184,65.466 197.257,62.811 197.866,60.419C198.237,59.276 198.61,58.134 198.983,56.99C199.328,55.811 199.415,54.287 199.399,52.861C198.905,52.274 198.411,51.685 197.919,51.096C197.59,50.499 197.261,49.901 196.932,49.304C196.785,48.811 196.637,48.317 196.491,47.824C196.145,47.261 195.798,46.699 195.452,46.136C195.01,44.681 194.568,43.228 194.127,41.774C192.634,38.028 191.153,34.323 190.023,30.243C189.676,28.91 189.331,27.576 188.984,26.243C188.941,25.611 188.899,24.979 188.855,24.347C188.651,23.112 188.669,21.834 189.114,20.945C188.777,20.79 188.439,20.633 188.102,20.477C188.128,20.365 188.155,20.252 188.181,20.14C188.307,20.015 188.818,20.015 189.038,20.01C188.846,19.172 188.67,18.659 188.777,17.828C188.882,17.82 188.985,17.81 189.089,17.802C189.167,17.993 189.246,18.182 189.322,18.373L189.374,18.373C189.412,18.134 189.503,17.658 189.66,17.516C189.791,17.557 189.92,17.592 190.049,17.626Z" style="fill-rule:nonzero;"/>
    </g>
</svg>
