<?xml version="1.0" encoding="UTF-8" standalone="no"?>
<!DOCTYPE svg PUBLIC "-//W3C//DTD SVG 1.1//EN" "http://www.w3.org/Graphics/SVG/1.1/DTD/svg11.dtd">
<svg width="100%" height="100%" viewBox="0 0 48 90" version="1.1" xmlns="http://www.w3.org/2000/svg" xmlns:xlink="http://www.w3.org/1999/xlink" xml:space="preserve" xmlns:serif="http://www.serif.com/" style="fill-rule:evenodd;clip-rule:evenodd;stroke-linejoin:round;stroke-miterlimit:1.41421;">
    <g transform="matrix(1,0,0,1,-467.832,-139.821)">
        <path d="M499.945,141.814C499.784,141.833 499.624,141.851 499.464,141.87C499.539,142.05 499.614,142.229 499.689,142.41C499.633,142.835 499.578,143.262 499.521,143.686C499.317,144.206 498.822,144.335 498.754,144.991C498.613,145.001 498.472,145.01 498.329,145.019C498.377,145.555 498.267,145.693 498.073,146.07C498.3,146.466 498.526,146.863 498.754,147.26C499.198,147.383 499.644,147.506 500.086,147.629C500.966,148.185 502.626,150.036 502.386,151.6C502.386,151.846 502.386,152.092 502.386,152.338C502.119,152.64 501.856,152.943 501.592,153.245C501.368,153.631 501.497,154.189 501.307,154.606C500.908,154.737 501.015,154.98 500.769,155.23C500.493,155.419 500.219,155.609 499.946,155.798C499.948,156.709 499.618,157.232 499.094,157.613C498.933,157.583 498.906,157.559 498.783,157.613C498.679,157.83 498.575,158.048 498.471,158.265C498.337,158.265 498.205,158.265 498.073,158.265C498.065,158.388 498.054,158.511 498.046,158.634C497.884,158.634 497.724,158.634 497.563,158.634C497.45,158.955 497.336,159.277 497.224,159.598C497.017,159.664 496.806,159.731 496.598,159.797C495.913,159.732 495.272,159.077 494.728,159.059C494.624,159.258 494.518,159.457 494.415,159.655C493.778,161.744 496.12,162.722 497.081,163.683C500.135,166.736 503.477,169.506 506.581,172.503C507.395,172.501 507.347,171.86 507.575,171.312C508.021,170.237 508.437,169.267 508.54,167.767C508.397,167.615 508.256,167.465 508.114,167.313C508.107,166.862 507.974,166.175 508.142,165.81C508.499,165.583 508.861,165.356 509.22,165.13C509.285,164.543 509.352,163.957 509.418,163.37C509.285,163.059 509.153,162.746 509.022,162.435C508.87,162.275 508.719,162.113 508.567,161.952C508.33,161.436 508.343,160.77 508.34,160.052C507.65,159.547 507.122,158.952 506.326,158.52C506.298,158.397 506.268,158.274 506.241,158.151C506.241,158.142 506.241,158.132 506.241,158.123C506.506,158.094 506.77,158.066 507.035,158.038C507.018,157.896 506.998,157.754 506.978,157.612C506.988,157.612 506.998,157.612 507.005,157.612C507.626,157.769 508.051,157.512 508.51,157.414C509.158,157.274 510.181,157.559 510.58,157.754C510.522,157.272 510.467,156.79 510.408,156.307C510.503,155.925 510.928,155.117 511.231,154.918C511.402,154.842 511.573,154.767 511.743,154.691C511.771,154.71 511.8,154.729 511.827,154.749C511.902,154.881 511.979,155.014 512.055,155.146C511.969,155.667 511.611,155.883 511.347,156.223C511.429,156.655 511.536,157.079 511.687,157.443C511.724,157.415 511.761,157.386 511.8,157.358C512.199,156.527 513.19,155.981 513.842,155.373C514.012,155.411 514.182,155.448 514.353,155.487C514.353,155.515 514.353,155.543 514.353,155.571C514.056,156.365 513.534,156.703 513.075,157.301C512.773,157.887 512.472,158.473 512.169,159.059C512.178,159.059 512.189,159.059 512.196,159.059C513.087,158.682 513.975,158.303 514.863,157.925C515.022,158.085 515.183,158.246 515.345,158.407C514.381,158.936 513.416,159.465 512.453,159.995C512.376,160.212 512.3,160.43 512.225,160.647C511.73,161.895 511.399,163.549 511.175,165.071C511.334,165.09 511.496,165.109 511.657,165.129C511.721,165.748 511.959,166.2 511.969,166.915C511.714,167.076 511.458,167.236 511.204,167.397C511.138,168.257 511.07,169.117 511.004,169.978C510.957,170.725 510.91,171.472 510.861,172.219C510.719,173.164 510.579,174.11 510.437,175.055C510.324,175.953 510.209,176.852 510.096,177.75C509.709,177.834 509.32,177.92 508.932,178.004C508.629,177.891 508.329,177.778 508.026,177.665C506.813,177.236 505.919,176.922 504.934,176.332C503.074,175.216 501.277,174.13 499.517,172.956C498.604,172.347 496.952,171.973 496.482,170.943C496.453,170.962 496.424,170.981 496.397,171C495.673,172.743 493.701,173.292 492.17,174.233C491.726,174.555 491.282,174.876 490.838,175.197C490.768,175.797 490.85,177.776 491.092,178.345C491.284,178.798 491.827,179.108 492.03,179.593C492.114,180.321 492.2,181.049 492.285,181.777C492.444,182.051 492.606,182.325 492.764,182.599C494.482,182.968 495.455,183.796 496.68,184.613C497.857,185.4 498.949,186.248 500.055,187.11C500.443,187.478 500.829,187.847 501.218,188.216C501.661,188.613 502.107,189.01 502.551,189.407C502.786,189.775 503.024,190.144 503.259,190.513C503.563,190.767 503.865,191.023 504.167,191.278C505.216,192.117 506.379,193.075 507.174,194.172C507.88,195.142 510.074,197.608 509.84,199.248C509.437,202.082 508.205,204.061 507.003,206.112C506.343,207.358 505.681,208.607 505.018,209.855C504.43,210.831 503.548,211.715 503.231,212.918C502.504,212.986 501.776,213.051 501.048,213.117C500.603,213.694 500.159,214.272 499.714,214.848C499.677,215.452 499.64,216.058 499.601,216.662C499.742,217.607 499.992,218.59 499.629,219.442C499.366,220.063 497.969,220.012 497.842,220.293C497.805,220.906 497.767,221.522 497.73,222.138C497.532,223.744 497.333,225.351 497.134,226.958C497.387,227.144 497.629,227.387 497.815,227.641C497.805,227.8 497.796,227.96 497.786,228.121C497.664,228.235 497.54,228.349 497.418,228.462C497.1,228.47 495.929,228.548 495.802,228.432C495.24,227.861 494.761,226.732 494.554,225.853C494.554,225.199 494.554,224.547 494.554,223.896C494.046,221.767 492.283,220.884 492.059,218.507C492.286,218.278 492.512,218.052 492.74,217.825C493.041,217.656 493.345,217.484 493.646,217.313C493.536,216.991 493.264,216.243 493.362,215.981C494.271,215.692 495.858,214.777 496.114,213.882C496.076,213.428 496.04,212.973 496,212.521C496.145,211.844 496.402,211.114 496.454,210.28C496.189,210.366 495.925,210.451 495.661,210.536C495.293,210.752 494.924,210.97 494.555,211.187C494.356,211.215 494.159,211.245 493.959,211.273C493.619,211.5 493.278,211.727 492.938,211.955C492.615,211.963 492.294,211.974 491.973,211.981C491.67,212.17 491.368,212.36 491.064,212.549C489.649,213.045 488.168,212.725 486.555,212.719C486.992,214.847 487.425,216.974 487.86,219.101C488.133,219.337 488.41,219.575 488.683,219.811C488.767,220.245 488.853,220.681 488.938,221.115C488.948,221.371 488.958,221.626 488.966,221.88C489.163,222.221 489.993,222.966 489.958,223.5C489.894,224.488 488.859,225.047 488.711,225.767C488.758,226.031 488.804,226.297 488.853,226.561C489.005,227.327 488.977,228.162 488.654,228.716C487.907,228.716 487.162,228.716 486.415,228.716C485.428,228.889 484.536,229.154 483.436,228.972C482.663,228.845 481.729,228.99 481.282,228.546C481.415,228.254 481.545,227.96 481.678,227.669C483.043,227.54 484.52,226.891 484.713,225.54C484.439,225.426 484.165,225.312 483.891,225.198C483.797,224.812 483.703,224.424 483.606,224.036C484.439,223.414 484.855,222.058 483.75,221.342C483.013,221.077 482.276,220.814 481.537,220.549C481.349,220.35 481.159,220.151 480.97,219.954C480.48,219.463 479.981,218.971 479.411,218.563C476.765,216.672 474.652,214.82 472.774,212.152C472.309,211.509 471.846,210.866 471.382,210.223C471.005,208.947 470.626,207.67 470.247,206.393C470.22,204.673 470.191,202.952 470.163,201.232C469.817,199.133 469.567,197.209 469.567,194.737C469.567,194.102 469.567,193.47 469.567,192.837C469.833,191.89 470.096,190.946 470.361,190C470.915,188.153 471.337,186.284 471.893,184.498C472.421,182.57 472.953,180.641 473.48,178.712C473.86,178.202 474.238,177.691 474.616,177.18C474.341,177.227 474.067,177.274 473.793,177.322C474.106,176.877 474.416,176.433 474.73,175.989C475.108,175.743 475.486,175.497 475.865,175.251C476.488,174.306 477.113,173.36 477.736,172.415C477.842,172.236 478.019,171.94 478.077,171.791C478.077,171.214 478.077,170.637 478.077,170.061C478.314,169.532 478.551,169.002 478.786,168.472C479.249,166.441 479.713,164.407 480.177,162.375C480.369,161.594 480.797,160.203 480.743,159.425C479.792,159.139 478.636,158.285 477.794,157.78C476.566,157.043 475.343,156.405 474.19,155.596C472.778,154.601 471.402,153.485 469.965,152.504C469.379,152.105 467.388,150.055 467.922,148.902C468.526,148.609 469.132,148.316 469.738,148.023C471.145,147.514 472.732,147.419 474.388,147.114C475.284,146.951 476.434,147.058 477.422,147.058C477.706,147.058 477.99,147.058 478.275,147.058C478.351,146.963 478.424,146.869 478.502,146.773C479.069,146.745 479.637,146.716 480.203,146.689C480.203,146.708 480.203,146.726 480.203,146.745C480.223,146.849 480.242,146.954 480.26,147.058C481.279,146.993 482.419,146.57 483.663,146.802C485.016,147.055 486.191,147.485 487.293,147.937C488.151,148.288 489.107,148.605 489.592,149.326C489.545,149.449 489.497,149.573 489.449,149.695C488.817,149.525 488.313,149.121 487.55,149.043C487.531,149.138 487.513,149.232 487.493,149.326C487.125,149.383 486.756,149.44 486.387,149.497C486.397,149.516 486.406,149.534 486.416,149.553C486.527,149.648 486.642,149.743 486.756,149.837C486.509,150.864 486.286,151.237 485.31,151.567C485.111,151.623 484.913,151.68 484.713,151.737C484.317,151.529 483.919,151.321 483.522,151.113C483.238,151.208 482.956,151.302 482.672,151.397C482.531,151.321 482.388,151.246 482.246,151.17C481.802,150.762 481.787,149.928 481.366,149.497C480.801,149.682 480.524,149.532 480.459,150.262C479.882,150.329 479.304,150.394 478.73,150.461C478.569,150.31 478.408,150.158 478.248,150.007C477.359,150.117 476.432,150.331 475.667,150.546C475.676,150.564 475.685,150.584 475.696,150.603C476.12,150.886 476.545,151.17 476.97,151.454C479.353,152.418 481.736,153.382 484.118,154.348C485.304,155.021 486.217,155.967 487.266,156.758C487.964,156.749 488.664,156.739 489.365,156.729C489.636,156.628 490.983,155.406 491.18,155.142C491.188,154.653 491.117,154.169 490.924,153.865C490.914,153.865 490.905,153.865 490.895,153.865C490.791,154.045 490.688,154.224 490.584,154.405C490.555,154.659 490.526,154.915 490.499,155.17C490.224,153.251 490.601,153.256 491.265,152.079C490.995,152.08 490.635,152.059 490.442,151.965C490.395,151.456 490.347,150.944 490.3,150.434C490.769,147.595 491.418,144.976 493.703,143.967C494.607,143.568 495.715,143.91 496.626,144.052C496.875,143.563 497.162,143.13 497.476,142.719C497.448,142.464 497.419,142.208 497.392,141.953C497.534,141.953 497.675,141.953 497.817,141.953C497.902,141.944 497.988,141.934 498.072,141.925C498.065,141.784 498.064,141.677 498.129,141.612C498.309,141.479 498.488,141.347 498.668,141.216C498.612,140.979 498.556,140.742 498.497,140.507C498.752,140.259 499.531,139.763 499.972,139.826C500.049,139.958 500.123,140.091 500.2,140.223C500.04,140.945 499.973,140.574 500.143,141.301C500.068,141.358 499.992,141.415 499.915,141.471C499.928,141.587 499.936,141.701 499.945,141.814ZM508.795,158.35C508.549,158.378 508.302,158.408 508.057,158.435C508.057,158.445 508.057,158.454 508.057,158.463C508.094,158.501 508.134,158.539 508.171,158.576C508.314,158.756 508.455,158.935 508.596,159.116C509.35,159.181 509.62,158.866 510.042,158.549C510.042,158.539 510.042,158.53 510.042,158.52C510.033,158.511 510.024,158.501 510.014,158.491C509.607,158.445 509.201,158.397 508.795,158.35Z" style="fill-rule:nonzero;"/>
    </g>
</svg>
