<?xml version="1.0" encoding="UTF-8" standalone="no"?>
<!DOCTYPE svg PUBLIC "-//W3C//DTD SVG 1.1//EN" "http://www.w3.org/Graphics/SVG/1.1/DTD/svg11.dtd">
<svg width="100%" height="100%" viewBox="0 0 49 109" version="1.1" xmlns="http://www.w3.org/2000/svg" xmlns:xlink="http://www.w3.org/1999/xlink" xml:space="preserve" xmlns:serif="http://www.serif.com/" style="fill-rule:evenodd;clip-rule:evenodd;stroke-linejoin:round;stroke-miterlimit:1.41421;">
    <g transform="matrix(1,0,0,1,-585.128,-130.265)">
        <path d="M599.383,154.177C599.282,154.401 599.332,155.393 599.383,155.711C599.568,156.871 599.562,157.957 599.792,159.025C599.833,159.27 599.874,159.516 599.915,159.761C600.254,160.362 602.773,160.794 603.596,161.05C604.58,161.336 605.562,161.623 606.543,161.909C606.734,161.992 606.81,162.234 607.034,162.298C607.813,162.517 608.719,162.475 609.571,162.625C610.752,162.833 611.766,162.97 612.967,163.157C613.315,163.115 613.661,163.075 614.007,163.034C614.323,163.075 614.636,163.115 614.949,163.157C615.011,162.967 615.072,162.775 615.135,162.584C614.998,162.387 614.864,162.188 614.725,161.991C614.399,161.658 614.071,161.323 613.746,160.989C613.317,161.012 612.538,161.336 612.087,161.195C611.875,161.051 611.664,160.908 611.453,160.765C610.568,160.242 609.632,159.847 609.141,158.944C609.074,158.624 609.005,158.303 608.936,157.983C608.773,157.812 608.61,157.642 608.445,157.471C608,156.872 607.598,156.109 607.404,155.283C607.154,154.24 607.701,152.158 608.055,151.62C608.262,151.396 608.466,151.171 608.671,150.946C608.848,150.715 609.024,150.482 609.202,150.251C609.906,149.721 610.76,149.654 611.698,149.31C612.146,149.144 612.53,148.668 613.272,148.798C613.744,148.881 614.082,149.081 614.439,149.228C615.936,149.844 616.874,150.56 617.526,152.01C617.753,152.303 617.977,152.596 618.203,152.89C618.557,153.48 618.85,154.897 618.367,155.53C618.435,155.962 618.907,156.393 619.123,156.736C619.686,157.628 620.268,158.476 620.881,159.293C621.061,159.519 621.238,159.744 621.413,159.968C621.923,159.805 622.432,159.781 622.765,159.456C622.903,159.327 622.888,158.917 622.99,158.761C623.518,157.959 623.979,157.081 624.524,156.266C624.982,155.659 625.437,155.052 625.894,154.445C626.059,154.075 626.222,153.708 626.386,153.34C626.803,152.393 627.231,151.487 627.633,150.476C627.804,150.046 627.974,149.617 628.145,149.187C628.178,148.88 628.213,148.573 628.248,148.267C628.274,148.062 628.302,147.857 628.33,147.653C628.232,147.144 628.029,146.684 627.94,146.119C627.785,145.13 627.904,144.137 627.756,143.214C627.743,142.996 627.729,142.778 627.715,142.56C627.575,142.248 627.149,142.015 627.04,141.638C626.911,141.193 627.296,140.287 627.347,139.88C627.39,139.53 626.977,138.436 626.814,138.223C626.205,137.421 625.03,138.007 624.156,137.609C624.012,137.486 623.87,137.364 623.726,137.241C623.338,137.023 622.949,136.804 622.559,136.585C622.195,135.871 623.06,135.22 622.765,134.214C622.423,133.525 622.084,132.835 621.742,132.148C621.599,131.869 621.408,131.673 621.414,131.248C621.523,131.145 621.632,131.043 621.742,130.941C621.751,130.812 621.756,130.682 621.763,130.552C621.832,130.456 621.9,130.362 621.969,130.265C622.085,130.265 622.199,130.265 622.316,130.265C622.391,130.334 622.466,130.402 622.541,130.47C622.771,130.402 622.856,130.299 623.218,130.306C623.659,130.61 624.072,131.019 624.382,131.452C624.604,131.431 624.85,131.297 625.141,131.37C625.911,131.568 626.382,132.088 626.94,132.495C627.199,132.659 627.458,132.823 627.717,132.986C628.321,133.459 628.68,134.279 629.088,134.949C629.274,135.249 629.457,135.55 629.64,135.849C629.844,136.429 630.049,137.009 630.253,137.588C630.319,137.895 630.389,138.202 630.458,138.509C630.682,138.707 630.908,138.904 631.133,139.102C631.269,139.402 631.406,139.702 631.544,140.002C631.784,140.775 631.562,141.834 631.828,142.518C632.223,143.524 632.496,144.633 632.83,145.75C632.927,146.065 633.164,146.953 633.036,147.427C632.905,147.72 632.777,148.014 632.646,148.307C632.183,149.998 631.72,151.688 631.254,153.38C630.995,154.512 630.736,155.644 630.478,156.775C630.279,157.029 630.082,157.28 629.883,157.532C629.788,158.473 629.694,159.414 629.598,160.354C629.598,161.064 629.598,161.774 629.598,162.482C629.817,162.96 630.035,163.437 630.252,163.914C630.777,165.059 631.302,166.206 631.827,167.351C631.889,167.657 631.949,167.964 632.012,168.271C632.15,168.85 632.286,169.431 632.422,170.01C632.469,170.508 632.516,171.006 632.565,171.503C632.722,172.901 632.878,174.299 633.036,175.697C632.784,177.335 632.475,178.964 632.053,180.401C631.95,180.817 631.849,181.233 631.746,181.649C631.037,182.787 630.329,183.926 629.619,185.066C629.681,185.277 629.743,185.489 629.804,185.7C629.804,186.6 629.804,187.5 629.804,188.399C629.577,188.959 629.354,189.518 629.128,190.077C629.128,190.337 629.128,190.595 629.128,190.854C629.055,191.413 628.978,191.973 628.902,192.532C628.427,193.815 627.949,195.096 627.471,196.378C627.121,196.732 626.775,197.087 626.426,197.442C627.805,201.901 629.183,206.359 630.56,210.819C631.262,214.331 631.965,217.842 632.665,221.355C632.973,223.066 633.28,224.776 633.587,226.489C633.872,227.801 634.167,229.09 634.099,230.539C632.571,230.848 631.042,231.153 629.516,231.46C629.087,231.5 628.657,231.542 628.227,231.583C627.498,231.665 626.767,231.747 626.039,231.828C625.854,231.7 625.669,231.569 625.485,231.44C624.817,230.995 624.109,230.451 623.132,230.335C623.133,230.95 622.695,231.334 622.724,231.645C622.831,232.191 622.942,232.735 623.05,233.281C623.071,233.731 623.092,234.179 623.113,234.633C623.26,235.561 623.235,236.529 623.176,237.394C622.983,237.496 622.793,237.599 622.601,237.702C622.417,237.735 622.236,237.77 622.05,237.803C621.158,238.229 620.763,239.018 619.513,238.644C619.213,238.551 619.058,238.541 618.961,238.254C618.946,238.246 618.935,238.241 618.92,238.233C618.811,238.347 618.702,238.465 618.592,238.583C617.242,238.587 617.105,238.587 616.343,238.01C616.478,237.019 617.762,236.72 618.428,236.209C618.688,235.806 618.947,235.404 619.206,235.001C619.262,234.627 619.315,234.253 619.368,233.877C619.477,233.203 618.955,231.763 618.634,231.503C618.265,231.196 617.898,230.89 617.528,230.583C617.38,229.192 617.23,227.802 617.08,226.411C616.917,226.138 616.752,225.865 616.589,225.592C616.563,225.376 616.534,225.155 616.508,224.938C616.195,224.091 615.881,223.247 615.567,222.402C615.552,222.225 615.539,222.048 615.525,221.87C615.375,221.544 615.224,221.217 615.075,220.891C615.048,220.357 615.021,219.825 614.994,219.294C614.858,218.998 614.721,218.708 614.585,218.414C614.571,217.519 614.558,216.626 614.543,215.734C614.373,215.373 614.203,215.01 614.032,214.649C613.772,213.668 613.514,212.686 613.255,211.702C613.242,211.696 613.229,211.691 613.215,211.683C612.604,212.805 611.723,213.644 610.718,214.383C610.361,214.647 610.11,214.941 609.616,215.078C609.086,215.225 608.283,215.52 607.61,215.263C607.25,215.017 606.887,214.772 606.526,214.526C606.029,214.197 605.077,213.648 604.725,213.218C603.425,211.623 602.397,209.776 601.165,208.122C600.599,207.469 600.032,206.812 599.466,206.158C598.612,205.481 597.642,204.823 597.012,203.929C596.693,203.391 596.371,202.853 596.051,202.313C596.235,201.891 596.418,201.468 596.604,201.044C596.63,200.689 596.658,200.336 596.684,199.981C596.902,199.559 597.122,199.135 597.34,198.712C597.061,198.311 596.779,197.909 596.501,197.507C595.914,196.805 595.329,196.101 594.742,195.399C594.257,194.72 593.767,193.914 593.125,193.395C592.492,192.979 591.857,192.562 591.221,192.148C590.338,191.465 589.451,190.783 588.564,190.101C588.189,189.815 587.814,189.528 587.44,189.242C586.647,188.624 586.276,187.958 585.128,187.626C585.441,186.96 585.738,186.452 586.661,186.398C586.736,186.289 586.811,186.18 586.887,186.071C586.976,185.986 587.222,186.04 587.358,186.05C587.471,186.16 587.59,186.269 587.706,186.378C587.718,186.378 587.731,186.378 587.748,186.378C587.801,186.324 587.856,186.27 587.911,186.216C588.122,186.27 588.333,186.324 588.545,186.378C588.626,186.31 588.709,186.242 588.79,186.174C589.856,186.341 590.99,186.492 591.796,186.951C592.497,187.348 593.17,187.993 594.006,188.24C594.352,188.294 594.703,188.349 595.051,188.403C595.235,188.322 595.417,188.24 595.602,188.158C596.084,188.044 597.178,188.113 597.524,188.281C598.139,188.575 598.464,189.828 598.284,190.878C598.208,191.287 598.133,191.696 598.056,192.106C598.329,192.74 598.602,193.374 598.874,194.009C599.128,194.26 599.381,194.512 599.631,194.765C600.453,195.586 601.34,196.347 602.249,197.078C603.377,198.155 604.5,199.233 605.626,200.31C606.261,200.822 607.372,201.983 607.712,202.745C607.733,202.758 607.752,202.771 607.772,202.785C608.028,202.386 608.835,200.288 608.755,199.676C608.687,199.307 608.619,198.939 608.552,198.571C608.427,198.326 608.305,198.08 608.182,197.835C608.058,197.323 607.938,196.812 607.815,196.3C607.488,195.22 607.076,193.944 606.955,192.72C606.457,192.534 606.059,192.504 605.851,192.024C605.799,191.747 606.17,191.171 606.281,190.9C606.677,189.931 606.992,188.906 607.488,188.057C608.005,187.095 608.523,186.133 609.043,185.172C609.232,184.974 609.425,184.776 609.617,184.579C610.062,184.021 610.572,183.473 611.129,183.025C611.375,182.779 611.62,182.533 611.866,182.288C612.492,181.954 613.121,181.62 613.749,181.285C614.402,180.767 615.056,180.249 615.711,179.731C616.864,179.02 617.883,179.115 618.533,177.808C618.302,177.623 618.069,177.44 617.839,177.255C617.736,176.942 617.634,176.628 617.53,176.315C617.218,175.772 616.763,175.385 616.406,174.904C616.227,174.661 616.184,174.32 615.999,174.065C615.799,173.956 615.603,173.848 615.403,173.738C615.335,173.561 615.267,173.384 615.199,173.206C615.084,173.042 614.793,173.074 614.628,172.961C614.524,172.804 614.421,172.647 614.32,172.49C613.962,172.083 613.51,171.952 613.276,171.365C613.107,171.278 612.798,171.243 612.559,171.242C611.979,169.416 610.123,169.151 608.448,168.419C607.772,168.119 607.099,167.818 606.424,167.52C605.749,167.376 605.073,167.233 604.4,167.089C603.793,166.803 603.185,166.516 602.579,166.231C601.186,165.618 599.874,164.981 598.61,164.246C598.352,164.11 598.092,163.974 597.833,163.837C597.41,163.53 596.987,163.223 596.565,162.917C596.164,162.684 595.597,162.579 595.377,162.18C595.168,161.797 595.254,160.399 595.335,159.848C595.323,158.675 595.311,157.502 595.296,156.328C595.372,155.626 595.447,154.924 595.52,154.222C595.452,154.194 595.385,154.167 595.317,154.14C595.315,153.732 595.417,153.649 595.52,153.404C595.283,153.096 595.326,152.704 595.335,152.155C595.439,152.134 595.542,152.114 595.644,152.093C596.069,151.028 596.299,149.644 596.503,148.431C596.538,147.887 596.571,147.341 596.606,146.795C596.599,146.482 596.591,146.168 596.585,145.854C596.701,145.121 596.985,144.391 597.361,143.891C597.289,143.449 596.861,142.816 597.178,142.275C597.28,142.192 597.382,142.111 597.484,142.029C597.764,141.625 597.636,141.542 598.139,141.313C598.202,141.354 598.262,141.395 598.324,141.437C598.431,141.191 598.542,140.946 598.649,140.7C598.828,140.652 599.005,140.604 599.182,140.557C599.577,140.64 600.009,141.193 600.145,141.539C600.164,141.552 600.185,141.566 600.206,141.58C600.787,140.794 600.848,139.544 601.372,138.696C601.46,138.621 601.549,138.546 601.637,138.472C601.741,138.478 601.842,138.484 601.945,138.492C602.246,138.893 602.032,139.256 601.945,139.78C601.784,140.747 601.758,141.843 601.759,142.89C603.044,142.87 604.377,142.86 604.358,144.117C604.291,144.191 604.223,144.267 604.154,144.342C603.935,144.233 603.718,144.124 603.5,144.014C603.33,144.035 603.16,144.056 602.987,144.076C602.198,144.197 601.71,144.2 601.186,144.526C600.504,144.953 599.813,145.685 599.552,146.51C599.503,147.097 599.456,147.683 599.407,148.27C599.205,149.586 599.177,151.15 599.182,152.545C599.407,152.552 599.631,152.559 599.856,152.566C599.869,153.327 599.925,153.96 599.383,154.177Z" style="fill-rule:nonzero;"/>
    </g>
</svg>
