<?xml version="1.0" encoding="UTF-8" standalone="no"?>
<!DOCTYPE svg PUBLIC "-//W3C//DTD SVG 1.1//EN" "http://www.w3.org/Graphics/SVG/1.1/DTD/svg11.dtd">
<svg width="100%" height="100%" viewBox="0 0 76 90" version="1.1" xmlns="http://www.w3.org/2000/svg" xmlns:xlink="http://www.w3.org/1999/xlink" xml:space="preserve" xmlns:serif="http://www.serif.com/" style="fill-rule:evenodd;clip-rule:evenodd;stroke-linejoin:round;stroke-miterlimit:1.41421;">
    <g transform="matrix(1,0,0,1,-138.587,-223.554)">
        <path d="M183.01,223.684C183.157,223.788 183.305,223.891 183.451,223.996C183.761,224.106 184.373,223.942 184.721,224.021C185.304,224.155 185.091,224.475 186.043,224.461C186.393,224.726 186.602,225.13 186.899,225.447C187.124,225.585 187.348,225.723 187.573,225.861C187.961,226.38 188.351,226.898 188.74,227.417C188.748,227.711 188.758,228.006 188.765,228.3C188.859,228.653 189.17,229.182 189.077,229.698C188.941,230.444 188.564,231.05 188.429,231.749C188.534,231.895 188.637,232.042 188.741,232.19C188.625,232.603 188.463,232.65 188.3,232.941C188.136,233.33 187.972,233.717 187.807,234.107C187.419,234.705 186.843,235.229 186.408,235.819C185.883,236.528 185.938,236.425 185.734,237.504C185.708,237.66 185.682,237.816 185.655,237.972C185.94,238.473 186.226,238.974 186.511,239.475C187.476,239.728 189.151,239.48 189.908,239.969C191.74,241.151 192.736,243.565 193.901,245.414C194.291,245.904 194.678,246.397 195.068,246.893C195.311,247.219 195.553,247.549 195.795,247.876C196.355,248.379 197.187,248.26 198.05,248.498C198.855,248.776 199.659,249.052 200.463,249.329C201.283,249.458 202.105,249.589 202.925,249.718C203.711,249.752 204.498,249.786 205.285,249.821C206.122,249.839 205.42,249.255 205.596,248.602C205.726,248.12 206.224,247.731 206.348,247.204C206.271,246.736 206.193,246.27 206.116,245.803C207.314,245.759 207.483,246.692 207.335,247.774C207.437,247.809 207.542,247.842 207.646,247.878C208.403,247.215 209.485,247.121 210.523,246.712C211.077,246.453 211.629,246.193 212.184,245.934C212.705,245.705 213.257,245.52 213.712,245.778C213.816,245.692 213.92,245.605 214.023,245.52C214.163,245.563 214.3,245.605 214.439,245.648C214.481,245.982 214.303,246.048 214.258,246.272C214.3,246.428 214.344,246.583 214.387,246.738C214.269,247.281 213.76,247.662 213.584,248.137C213.558,248.311 213.532,248.484 213.504,248.657C213.167,248.959 212.831,249.261 212.495,249.565C212.01,249.798 211.526,250.032 211.042,250.264C209.734,251.108 208.576,252.09 206.894,252.598C205.809,252.924 204.602,252.702 203.315,252.91C202.735,252.928 202.157,252.945 201.578,252.962C200.738,253.098 199.821,252.984 199.063,252.858C197.438,252.587 196.09,252.577 194.733,252.08C192.949,251.428 191.799,249.833 190.169,248.97C189.161,251.006 188.109,253.369 187.524,255.789C187.455,256.592 187.384,257.395 187.316,258.199C187.022,259.968 187.1,262.606 187.86,264.085C188.179,264.707 188.923,265.395 189.519,265.745C190.047,265.979 190.574,266.213 191.102,266.446C192.053,267.265 193.004,268.088 193.954,268.909C194.654,269.703 195.355,270.499 196.054,271.294C196.876,272.132 197.698,272.971 198.517,273.81C199.176,274.646 200.029,276.142 200.359,277.233C200.428,278.599 200.496,279.964 200.566,281.33C200.471,281.642 200.377,281.952 200.281,282.265C200.402,282.766 200.523,283.267 200.646,283.769C200.646,284.486 200.646,285.204 200.646,285.919C200.646,287.223 200.783,288.693 200.593,289.912C200.369,291.344 200.489,292.928 200.489,294.476C200.489,295.098 200.489,295.721 200.489,296.343C200.127,296.853 199.764,297.363 199.4,297.873C199.019,297.751 198.641,297.631 198.26,297.509C198.286,297.708 198.312,297.908 198.338,298.106C197.768,298.714 195.196,298.563 193.956,298.546C193.956,298.556 193.956,298.565 193.956,298.573C194.112,298.649 194.268,298.728 194.423,298.804C194.986,298.927 195.547,299.046 196.109,299.169C196.446,299.351 196.783,299.531 197.121,299.712C197.432,299.746 197.742,299.782 198.053,299.817C198.322,299.886 198.589,299.953 198.858,300.024C198.865,300.384 198.932,300.775 198.806,301.06C198.472,301.585 196.585,301.45 195.694,301.45C193.075,301.431 190.456,301.415 187.838,301.397C187.465,301.32 187.095,301.241 186.722,301.165C186.574,300.768 186.429,300.369 186.281,299.971C186.179,299.911 186.073,299.852 185.97,299.791C185.737,299.297 185.502,298.804 185.271,298.313C184.881,298.278 184.493,298.244 184.104,298.209C183.992,297.57 183.805,297.021 183.792,296.238C182.902,296.083 182.127,295.275 181.433,294.839C181.138,294.656 180.844,294.475 180.551,294.293C180.318,293.892 180.422,293.418 180.447,292.92C180.292,292.789 180.136,292.66 179.981,292.529C180.051,292.331 180.119,292.132 180.188,291.932C179.768,291.621 179.279,291.073 179.151,290.482C179.118,290.135 179.082,289.791 179.047,289.444C178.973,289.296 178.734,289.12 178.581,289.055C178.307,288.599 178.701,287.482 178.865,287.005C178.467,286.548 178.072,286.09 177.674,285.631C177.526,285.329 177.38,285.027 177.233,284.724C176.765,284.421 176.299,284.119 175.833,283.818C175.758,283.739 175.781,283.468 175.755,283.35C175.487,283.239 175.219,283.126 174.951,283.013C175.072,281.648 175.192,280.282 175.315,278.915C175.202,278.837 175.089,278.76 174.978,278.682C174.862,278.604 174.314,278.681 174.147,278.76C173.911,278.896 173.764,279.241 173.603,279.46C173.301,279.849 172.999,280.237 172.696,280.627C172.402,281.206 172.108,281.786 171.815,282.363C171.516,282.877 171.088,283.186 170.751,283.634C170.137,284.602 169.523,285.571 168.91,286.537C168.677,286.745 168.444,286.953 168.209,287.16C167.432,288.233 166.655,289.305 165.876,290.376C165.132,291.11 164.39,291.846 163.647,292.58C163.318,293.219 162.991,293.859 162.661,294.498C161.762,295.605 160.863,296.711 159.966,297.818C159.43,298.657 158.894,299.494 158.358,300.333C157.773,301.26 157.117,302.14 156.464,303.003C156.153,303.409 155.843,303.816 155.532,304.223C155.293,304.349 155.268,303.979 155.037,304.041C154.9,304.135 154.761,304.232 154.622,304.326C154.5,304.186 154.379,304.051 154.259,303.91C154.224,303.886 154.19,303.859 154.155,303.834C153.791,304.179 153.429,304.525 153.066,304.871C152.801,305.262 152.818,305.816 152.495,306.142C152.244,306.229 151.994,306.315 151.744,306.401C151.553,306.755 151.363,307.11 151.173,307.464C151.233,307.794 151.295,308.122 151.355,308.451C151.413,308.779 151.146,310.111 151.018,310.343C150.589,311.122 149.514,311.108 148.452,311.276C148.158,311.285 147.864,311.294 147.57,311.302C146.54,311.55 145.939,312.266 145.132,312.623C144.83,312.678 144.528,312.729 144.225,312.78C143.288,312.992 142.132,313.199 141.141,312.963C140.942,312.866 140.743,312.772 140.543,312.678C140.008,312.548 139.26,313.28 138.754,312.703C138.415,312.316 138.656,311.731 138.909,311.432C139.199,311.09 140.4,310.939 140.907,310.758C141.26,310.498 141.615,310.239 141.97,309.981C142.826,309.334 143.436,308.484 144.225,307.854C145.205,307.072 146.374,306.284 147,305.158C147.373,304.486 147.025,303.344 147.285,302.563C147.501,301.916 149.147,300.334 149.776,300.153C149.956,300.196 150.138,300.24 150.319,300.283C150.578,299.642 150.837,299.005 151.097,298.363C151.374,297.872 151.649,297.38 151.925,296.885C152.488,295.752 153.049,294.62 153.613,293.489C154.061,292.469 154.511,291.45 154.961,290.429C155.64,289.233 157.015,288.239 157.735,287.11C157.978,286.357 158.219,285.607 158.461,284.854C158.645,284.665 158.825,284.473 159.006,284.284C159.221,283.903 159.438,283.523 159.654,283.143C158.79,282.122 157.925,281.103 157.061,280.082C157.122,279.781 157.396,279.555 157.554,279.33C158.029,278.648 158.505,277.965 158.98,277.282C160.648,274.88 162.317,272.476 163.985,270.073C164.575,269.08 165.242,266.489 166.215,266.08C166.287,265.908 166.224,265.553 166.189,265.329C166.136,264.991 166.305,264.56 166.422,264.317C166.596,264.014 166.767,263.712 166.941,263.41C167.227,262.692 167.512,261.975 167.796,261.257C168.169,260.765 168.54,260.272 168.911,259.779C169.111,259.33 169.31,258.881 169.508,258.431C170.163,257.346 170.883,256.435 171.868,255.681C171.79,255.091 171.763,254.487 171.972,253.997C172.118,253.745 172.265,253.494 172.412,253.243C172.343,252.604 172.273,251.965 172.204,251.324C172.143,249.908 172.083,248.49 172.022,247.072C171.219,247.772 170.414,248.472 169.611,249.173C168.505,249.95 167.398,250.728 166.292,251.507C165.462,252.234 164.631,252.959 163.802,253.684C162.982,253.97 162.16,254.256 161.339,254.54C160.455,254.851 157.622,255.935 156.542,255.447C155.575,255.011 154.889,254.147 154.467,253.166C154.285,252.752 154.105,252.336 153.924,251.922C153.621,251.645 153.318,251.369 153.017,251.093C152.546,250.49 152.25,249.956 151.953,249.148C151.953,249.061 151.953,248.974 151.953,248.888C152.254,248.938 152.454,249.036 152.681,249.148C152.304,248.565 151.565,248.007 151.461,247.228C151.591,247.168 151.721,247.108 151.85,247.047C151.997,247.108 152.145,247.168 152.291,247.228C152.853,247.677 153.415,248.127 153.976,248.577C153.347,247.738 152.13,246.813 151.771,245.803C151.867,245.699 151.961,245.596 152.057,245.491C152.161,245.491 152.264,245.491 152.368,245.491C153.164,246.287 153.959,247.083 154.755,247.877C155.039,248.207 155.325,248.534 155.609,248.863C155.584,247.425 153.664,247.006 153.484,245.751C153.527,245.682 153.57,245.614 153.615,245.544C154.17,245.304 154.763,246.175 155.039,246.452C155.795,247.205 156.521,247.999 157.193,248.837C157.668,249.33 158.144,249.821 158.618,250.316C158.808,250.316 158.998,250.316 159.189,250.316C159.867,249.849 159.93,249.038 160.381,248.343C160.614,248.093 160.848,247.842 161.081,247.593C161.288,247.584 161.496,247.575 161.702,247.567C161.772,247.653 161.842,247.74 161.91,247.826C161.728,248.224 161.546,248.622 161.365,249.019C162.455,248.786 163.265,248.079 164.036,247.515C164.261,247.36 164.486,247.204 164.711,247.048C165.09,246.503 165.471,245.958 165.851,245.415C166.934,243.888 168.131,242.451 169.274,241.006C169.854,240.276 170.725,239.303 171.53,238.827C172.217,238.424 173.184,238.003 174.019,237.843C174.837,237.684 175.896,238.481 176.431,238.542C176.828,238.413 177.227,238.282 177.623,238.152C178.96,237.686 179.667,237.659 179.828,235.976C179.542,235.706 179.257,235.439 178.972,235.171C178.739,234.688 178.504,234.203 178.271,233.718C178.264,233.036 178.254,232.353 178.245,231.67C178.37,231.208 178.642,230.816 178.739,230.271C178.739,229.787 178.739,229.303 178.739,228.818C178.79,228.317 178.842,227.815 178.894,227.314C178.825,226.922 178.739,226.566 178.739,226.045C179.016,225.87 179.291,225.698 179.568,225.524C179.889,225.162 180.21,224.797 180.527,224.436C180.709,224.357 180.891,224.28 181.071,224.202C181.55,223.866 181.238,223.779 182.032,223.554C182.352,223.597 182.681,223.641 183.01,223.684Z" style="fill-rule:nonzero;"/>
    </g>
</svg>
