<?xml version="1.0" encoding="UTF-8" standalone="no"?>
<!DOCTYPE svg PUBLIC "-//W3C//DTD SVG 1.1//EN" "http://www.w3.org/Graphics/SVG/1.1/DTD/svg11.dtd">
<svg width="100%" height="100%" viewBox="0 0 39 127" version="1.1" xmlns="http://www.w3.org/2000/svg" xmlns:xlink="http://www.w3.org/1999/xlink" xml:space="preserve" xmlns:serif="http://www.serif.com/" style="fill-rule:evenodd;clip-rule:evenodd;stroke-linejoin:round;stroke-miterlimit:1.41421;">
    <g transform="matrix(1,0,0,1,-588.845,-3.82074)">
        <path d="M611.566,129.057C611.515,128.507 611.464,127.958 611.414,127.407C610.632,127.458 609.851,127.51 609.071,127.56C608.47,128.046 607.869,128.533 607.267,129.018C605.932,129.863 599.776,130.418 598.325,129.326C597.694,128.852 598.179,128.241 598.134,127.56C598.099,127.051 597.839,126.563 597.786,125.948C597.8,125.935 597.812,125.923 597.825,125.909C598.594,125.82 599.361,125.73 600.128,125.639C600.154,124.719 600.18,123.798 600.205,122.877C600.333,122.314 600.462,121.752 600.589,121.188C599.068,112.681 597.545,104.171 596.023,95.664C595.062,92.326 594.103,88.986 593.144,85.647C592.76,83.077 592.376,80.503 591.992,77.933C591.263,75.771 590.533,73.608 589.804,71.446C589.485,70.013 589.164,68.581 588.845,67.148C588.87,64.716 588.897,62.286 588.923,59.855C588.935,58.052 588.947,56.247 588.959,54.443C589.616,51.053 590.984,48.089 591.762,44.847C592.004,43.184 592.248,41.52 592.491,39.858C593.023,37.444 593.959,34.855 595.216,33.064C596.368,31.422 597.836,29.611 599.477,28.458C600.449,27.857 601.421,27.256 602.394,26.655C602.777,26.476 603.161,26.296 603.545,26.118C604.34,25.512 604.757,21.991 603.967,21.013C602.988,21.403 601.63,22.571 600.436,21.704C600.391,21.299 600.212,19.638 600.014,19.438C599.776,19.311 599.376,19.297 599.284,19.016C599.31,18.85 599.336,18.683 599.362,18.518C598.562,18.17 599.186,17.273 598.9,16.944C598.482,16.735 597.997,16.7 597.672,16.406C596.595,15.428 599.204,13.724 598.977,12.606C598.921,12.331 598.582,12.164 598.708,11.685C598.799,11.442 598.888,11.199 598.977,10.956C598.823,10.444 598.67,9.933 598.517,9.421C598.213,7.819 599.825,6.233 600.667,5.697C602.375,4.614 607.249,3.031 609.955,4.278C611.319,4.905 612.283,6.562 613.141,7.733C614.16,9.122 614.265,10.211 614.37,12.569C614.37,12.991 614.37,13.413 614.37,13.835C613.876,14.615 613.149,15.056 612.834,16.099C612.783,16.855 612.732,17.609 612.682,18.364C610.889,18.466 612.188,22.116 612.49,23.278C613.953,23.738 614.272,25.132 614.984,26.347C615.841,27.883 616.699,29.418 617.556,30.953C618.041,31.951 618.529,32.949 619.014,33.947C619.359,34.28 619.705,34.612 620.051,34.946C620.523,35.573 620.997,36.2 621.47,36.827C622.558,38.515 623.647,40.205 624.732,41.892C625.536,43.104 626.531,44.284 626.998,45.808C627.362,46.996 626.967,48.455 626.768,49.569C626.602,51.092 626.435,52.615 626.269,54.136C626.217,54.802 626.166,55.468 626.116,56.132C626.116,56.503 626.116,56.874 626.116,57.246C625.846,58.151 624.538,58.338 624.235,59.126C624.223,59.74 624.21,60.354 624.197,60.968C623.979,61.364 623.761,61.76 623.545,62.157C623.404,63.104 623.263,64.051 623.122,64.997C622.815,65.432 622.508,65.867 622.2,66.302C621.928,66.291 621.637,66.299 621.471,66.378C620.596,69.081 618.617,71.214 617.25,73.556C616.682,74.526 616.696,76.071 615.791,76.703C615.612,76.652 615.433,76.6 615.254,76.549C614.953,76.158 615.039,74.713 615.138,74.131C615.502,71.996 615.997,69.547 615.292,67.376C615.112,67.325 614.933,67.274 614.755,67.222C613.761,67.733 614.004,68.724 613.642,69.87C613.485,70.367 613.099,70.591 612.874,70.984C612.27,72.036 612.4,72.79 611.416,73.517C611.13,73.525 611.022,73.491 610.916,73.326C609.965,71.684 611.083,68.664 610.646,66.532C610.526,65.944 609.953,64.612 609.61,64.191C608.924,63.35 607.087,64.657 606.654,64.345C606.546,64.242 606.521,64.208 606.502,63.999C606.609,63.665 606.72,63.411 606.886,63.154C608.896,62.723 610.841,61.798 612.374,60.814C612.54,59.893 612.708,58.971 612.874,58.051C612.988,56.886 613.103,55.722 613.219,54.558C613.168,53.765 613.117,52.972 613.066,52.179C612.749,50.142 612.867,47.902 612.337,46.038C612.167,45.438 611.387,44.449 611.069,43.696C611.044,43.709 611.018,43.722 610.994,43.735C610.661,44.183 610.329,44.63 609.997,45.078C608.615,46.965 606.857,48.629 604.968,49.992C604.405,49.953 603.842,49.915 603.279,49.877C603.229,50.989 603.177,52.103 603.127,53.215C603.02,53.769 602.746,54.548 602.974,55.211C603.725,57.406 605.755,58.338 606.313,60.892C606.794,63.098 606.04,65.455 605.622,67.224C605.494,68.069 605.366,68.913 605.238,69.757C605.153,70.038 604.915,70.101 604.855,70.449C604.978,70.657 605.23,70.944 605.124,71.138C604.843,71.498 604.561,71.856 604.279,72.215C604.279,72.495 604.279,72.777 604.279,73.058C604.272,74.766 605.27,74.713 605.546,75.899C605.47,76.36 605.392,76.821 605.316,77.28C605.507,77.856 605.7,78.432 605.892,79.007C606.275,80.338 606.658,81.67 607.043,82.999C607.466,84.969 607.888,86.939 608.309,88.91C608.323,89.908 608.335,90.907 608.348,91.905C608.757,92.979 609.165,94.054 609.577,95.129C609.923,96.28 610.268,97.432 610.612,98.584C611.738,103.458 612.865,108.333 613.991,113.208C614.8,116.441 615.35,119.797 616.218,122.88C616.324,123.266 617.033,125.912 616.792,126.335C616.14,126.603 615.487,126.873 614.834,127.141C614.86,127.614 614.886,128.088 614.912,128.561C613.792,128.725 612.681,128.891 611.566,129.057ZM615.903,61.697C615.908,63.155 615.472,63.986 615.174,65.037C615.698,64.908 616.224,64.78 616.747,64.652C618.466,63.965 618.714,62.087 619.434,60.393C619.661,59.861 620.205,59.484 620.316,58.895C620.176,58.614 620.037,58.332 619.894,58.051C619.985,57.858 620.075,57.667 620.164,57.476C620.089,56.555 620.012,55.633 619.934,54.712C619.908,53.791 619.881,52.868 619.858,51.948C619.845,51.232 619.833,50.515 619.819,49.799C619.411,49.108 619,48.416 618.591,47.726C618.539,48.666 618.178,49.52 617.976,50.336C617.811,51.654 617.645,52.972 617.478,54.29C616.977,56.692 616.609,59.045 616.249,61.697C616.134,61.697 616.019,61.697 615.903,61.697Z"/>
    </g>
</svg>
