<?xml version="1.0" encoding="UTF-8" standalone="no"?>
<!DOCTYPE svg PUBLIC "-//W3C//DTD SVG 1.1//EN" "http://www.w3.org/Graphics/SVG/1.1/DTD/svg11.dtd">
<svg width="100%" height="100%" viewBox="0 0 158 160" version="1.1" xmlns="http://www.w3.org/2000/svg" xmlns:xlink="http://www.w3.org/1999/xlink" xml:space="preserve" xmlns:serif="http://www.serif.com/" style="fill-rule:evenodd;clip-rule:evenodd;stroke-linejoin:round;stroke-miterlimit:1.41421;">
    <g transform="matrix(1,0,0,1,-390.487,-475.828)">
        <path d="M428.917,493.94C429.451,493.939 430.098,493.626 430.423,493.724C430.643,493.792 430.709,493.927 431.068,493.94C431.11,493.387 431.502,492.797 431.928,492.651C432.143,492.651 432.359,492.651 432.574,492.651C432.663,492.623 432.809,492.463 432.897,492.436C433.286,492.312 433.672,492.519 433.865,492.22C433.618,492.21 433.561,492.194 433.489,492.006C433.297,491.687 433.36,491.044 433.167,490.716C433.023,490.474 432.647,490.318 432.521,490.071C432.408,489.85 432.48,489.614 432.36,489.425C432.251,489.255 432.009,489.087 431.929,488.889C431.494,487.805 431.613,486.07 431.606,484.59C431.121,484.601 431.079,484.486 430.854,484.267C430.862,482.097 432.806,481.348 433.919,480.237C434.239,479.918 434.554,479.575 434.887,479.271C435.042,479.129 435.267,479.088 435.425,478.948C435.657,478.741 435.845,478.342 436.124,478.196C436.284,478.113 436.418,478.173 436.555,478.089C436.663,478.023 436.773,477.819 436.878,477.766C437.022,477.749 437.165,477.731 437.309,477.712C437.94,477.475 438.633,477.086 439.245,476.853C439.37,476.835 439.495,476.817 439.62,476.799C441.176,476.086 443.752,475.562 445.912,476.1C446.542,476.257 447.375,476.083 447.956,476.316C448.127,476.384 448.283,476.613 448.44,476.693C448.891,476.919 449.411,476.937 449.892,477.122C450.663,477.418 451.259,478.07 451.883,478.519C452.193,478.743 452.583,478.897 452.85,479.164C453.084,479.397 453.206,479.739 453.441,479.971C453.422,480.114 453.405,480.256 453.387,480.4C453.063,480.635 452.869,481.089 452.58,481.367C452.58,481.475 452.58,481.583 452.58,481.69C453.113,482.209 453.827,482.861 454.086,483.625C454.359,484.429 454.192,485.345 454.409,486.204C454.5,486.568 454.807,487.238 454.624,487.816C454.429,488.431 453.763,489.394 454.14,490.395C454.223,490.612 454.462,490.75 454.571,490.932C454.607,491.076 454.642,491.219 454.678,491.362C455.015,491.925 455.57,492.472 455.862,493.082C455.984,493.338 456.009,494.452 455.862,494.693C455.779,494.975 455.5,495.255 455.162,495.286C454.897,495.45 454.073,495.336 453.764,495.393C453.625,495.689 453.326,495.928 453.226,496.198C453.166,496.36 453.251,496.506 453.173,496.628C453.056,496.809 452.752,496.875 452.581,497.005C452.219,497.278 451.937,498.005 451.883,498.563C452.155,498.7 452.271,498.903 452.473,499.1C452.463,499.3 452.437,499.746 452.366,499.959C452.337,500.046 452.175,500.195 452.15,500.282C452.048,500.657 452.429,501.27 452.258,501.786C452.102,502.261 451.66,502.863 451.075,502.915C450.652,503.161 449.974,502.634 449.677,502.539C448.996,502.539 448.314,502.539 447.633,502.539C447.421,502.488 447.016,502.348 446.665,502.432C445.865,502.624 445.208,502.795 444.62,503.185C443.815,503.717 443.561,504.364 442.147,504.366C442.134,505.316 442.86,506.279 443.115,507.053C443.115,507.305 443.115,507.556 443.115,507.806C443.392,508.895 443.764,510.423 443.491,511.89C443.438,511.908 443.385,511.925 443.329,511.944C442.95,512.199 441.705,511.393 441.555,511.192C441.501,511.21 441.447,511.227 441.393,511.245C441.393,511.567 441.393,511.891 441.393,512.213C441.639,512.565 441.49,513.123 441.609,513.61C442.132,515.764 441.153,517.076 440.157,518.07C439.926,518.299 439.751,518.602 439.512,518.822C439.15,519.153 438.696,519.354 438.328,519.681C438.162,519.828 438.061,520.069 437.898,520.218C437.743,520.361 437.519,520.4 437.36,520.54C437.271,520.619 437.234,520.785 437.145,520.862C436.872,521.099 436.337,521.056 436.069,521.292C435.757,521.567 435.523,521.926 435.154,522.152C435.011,522.241 434.748,522.378 434.617,522.421C434.437,522.439 434.259,522.456 434.078,522.475C433.3,522.926 432.565,523.602 431.82,524.087C431.07,524.573 430.235,524.748 429.4,525.162C429.296,525.214 429.146,525.388 429.024,525.432C428.859,525.488 428.719,525.411 428.594,525.486C428.476,525.554 428.422,525.718 428.325,525.806C427.963,526.134 427.554,526.399 427.195,526.72C427.229,526.815 427.205,526.772 427.249,526.827C427.391,527.229 428.443,527.987 428.809,528.224C429.146,528.445 429.562,528.488 429.884,528.707C430.141,528.882 430.371,529.186 430.637,529.352C431.598,529.953 432.573,530.379 433.541,530.964C433.645,531.027 433.718,531.209 433.811,531.286C434.078,531.51 434.534,531.532 434.832,531.716C434.962,531.796 435.106,531.987 435.263,532.038C435.73,532.191 436.343,531.964 436.769,532.092C437.463,532.302 438.274,532.581 438.974,532.79C439.152,532.809 439.332,532.825 439.512,532.844C439.818,532.948 440.227,533.217 440.533,533.275C440.764,533.319 440.966,533.112 441.124,533.06C441.431,532.96 441.999,532.969 442.307,533.06C442.809,533.209 444.32,533.495 444.619,533.812C444.656,533.919 444.692,534.027 444.728,534.135C444.854,534.315 446.004,535.233 446.233,535.262C446.605,535.033 447.247,535.312 447.631,535.317C448.903,535.317 450.177,535.317 451.45,535.317C451.968,535.317 452.534,535.297 452.902,535.21C454.802,535.21 456.702,535.21 458.603,535.21C459.938,535.21 461.651,535.379 462.798,535.102C463.766,535.102 464.734,535.102 465.701,535.102C466.586,534.881 466.532,534.107 467.045,533.544C467.247,533.323 467.639,533.148 467.745,532.845C467.745,532.667 467.745,532.487 467.745,532.309C467.814,532.112 468.492,531.272 468.659,531.073C468.873,530.818 468.868,530.358 469.089,530.105C469.268,529.902 469.554,529.771 469.735,529.569C470.177,529.069 470.282,528.259 470.542,527.58C470.576,527.491 470.728,527.349 470.756,527.258C470.756,526.362 470.756,525.468 470.756,524.571C470.893,524.193 471.968,524.052 472.262,523.604C472.387,523.317 472.512,523.031 472.638,522.744C472.711,522.63 472.891,522.539 472.961,522.422C473.077,522.229 473.041,521.993 473.176,521.831C473.337,521.638 473.579,521.456 473.714,521.239C473.867,520.995 473.887,520.738 474.037,520.487C474.13,520.334 474.368,520.214 474.467,520.058C474.663,519.75 474.702,519.401 474.897,519.09C475.016,518.902 475.26,518.739 475.38,518.552C475.493,518.38 475.441,518.218 475.542,518.016C475.59,517.92 475.771,517.814 475.811,517.693C476.038,516.995 475.507,516.481 475.38,516.081C475.268,515.726 475.413,515.196 475.435,514.899C475.697,514.729 475.862,514.338 476.134,514.2C476.367,514.165 476.6,514.129 476.833,514.094C477.137,513.955 477.558,513.724 477.855,513.611C477.98,513.592 478.105,513.576 478.231,513.557C478.334,513.505 478.486,513.327 478.607,513.287C479.146,513.113 479.882,513.361 480.437,513.18C480.739,513.082 481.018,512.74 481.296,512.643C481.475,512.643 481.655,512.643 481.834,512.643C482.601,512.391 483.347,511.966 484.147,511.73C485.162,511.429 485.984,511.247 486.997,510.978C487.591,510.82 488.153,510.88 488.449,510.44C488.611,510.217 488.514,509.772 488.611,509.474C488.86,508.697 489.547,507.495 489.579,506.625C489.444,506.482 489.415,506.203 489.257,506.088C489.149,506.052 489.043,506.016 488.935,505.98C488.446,505.681 487.899,505.309 487.321,505.121C486.855,505.014 486.389,504.906 485.923,504.799C485.856,504.764 485.792,504.613 485.708,504.584C485.565,504.584 485.421,504.584 485.277,504.584C484.586,504.395 483.814,504.063 483.825,503.134C483.953,502.973 483.924,502.73 484.04,502.542C484.398,501.964 484.702,502.133 484.632,501.145C484.393,500.966 484.251,500.707 484.04,500.501C484.043,500.076 484.139,499.748 484.201,499.372C484.259,499.033 483.999,498.988 483.933,498.781C483.795,498.345 484.084,498.033 484.094,497.598C483.57,497.264 482.453,496.492 482.427,495.717C482.47,495.654 482.468,495.626 482.481,495.502C483.348,494.914 484.426,494.164 484.847,493.138C485.026,492.702 484.795,491.878 485.009,491.418C485.175,491.062 485.602,490.816 485.762,490.397C486.201,489.251 486.4,488.107 486.999,487.12C487.2,486.786 487.747,486.134 487.858,485.829C487.972,485.639 487.788,484.808 487.913,484.487C487.996,484.269 488.23,484.129 488.343,483.948C488.397,483.77 488.45,483.591 488.505,483.412C488.663,483.105 489.293,482.349 489.58,482.177C490.054,481.894 491.072,482.016 491.786,482.015C491.983,482.015 492.18,482.015 492.376,482.015C492.579,481.942 492.711,481.656 492.915,481.585C493.363,481.43 493.7,482.052 494.206,481.746C494.531,481.642 494.639,481.365 494.852,481.155C494.825,480.837 494.747,480.687 494.796,480.402C494.892,480.343 494.992,480.267 495.067,480.187C495.569,480.18 497.35,480.051 497.648,480.241C498.092,480.389 498.148,480.83 498.455,481.101C498.72,481.335 499.372,481.188 499.638,481.422C499.939,481.691 499.98,482.23 500.284,482.497C500.461,482.652 500.753,482.665 500.93,482.82C501.124,482.99 501.256,483.316 501.522,483.411C501.7,483.429 501.88,483.446 502.059,483.465C502.295,483.602 502.434,483.956 502.705,484.056C502.885,484.075 503.063,484.092 503.244,484.111C503.794,484.387 504.212,485.035 504.642,485.454C504.636,486.286 504.566,486.792 504.695,487.39C504.876,487.465 505.05,487.518 505.126,487.71C505.622,488.41 504.617,489.167 504.91,489.86C505.034,490.237 505.618,490.689 505.879,490.987C506.117,491.262 506.215,491.58 506.416,491.901C506.558,492.127 506.812,492.319 506.954,492.547C507.052,492.702 507.052,492.897 507.17,493.03C507.28,493.156 507.489,493.225 507.6,493.352C507.758,493.533 507.684,493.827 507.815,494.05C507.996,494.359 508.382,494.6 508.567,494.91C508.684,495.102 508.645,495.342 508.783,495.501C508.867,495.599 509.037,495.653 509.104,495.77C509.141,495.966 509.176,496.164 509.212,496.36C509.384,496.719 509.736,497.218 510.019,497.49C509.96,497.7 509.819,497.732 509.751,497.867C509.626,498.104 509.865,498.536 509.912,498.673C510.165,499.385 510.594,499.839 511.149,500.231C511.301,500.338 511.503,500.372 511.633,500.501C512.243,501.1 512.625,502.136 512.817,503.134C512.983,504.004 511.941,504.861 511.741,505.605C511.518,506.438 512.241,506.846 512.011,507.754C511.67,509.094 510.741,510.108 510.504,511.622C510.606,511.657 510.715,511.674 510.881,511.677C511.154,511.413 511.923,511.404 512.495,511.461C513.537,511.567 514.741,511.747 515.83,511.838C515.96,512.035 516.195,512.265 516.367,512.429C516.395,513.645 516.097,514.026 515.507,514.578C515.507,514.771 515.532,514.868 515.561,515.008C515.7,515.069 515.847,515.043 516.045,515.115C516.19,515.169 516.327,515.388 516.474,515.438C516.915,515.586 517.316,515.342 517.604,515.598C517.838,515.807 517.827,516.22 518.034,516.457C518.147,516.587 518.343,516.657 518.465,516.779C518.647,516.966 518.72,517.229 518.895,517.425C519.076,517.627 519.356,517.761 519.54,517.961C520.093,518.566 520.432,519.354 521.046,519.897C521.287,520.11 521.49,520.041 521.852,520.165C522.434,520.365 523.028,520.874 523.412,521.293C523.578,521.474 523.928,521.884 524.005,522.101C524.005,522.244 524.005,522.386 524.005,522.531C524.048,522.653 524.281,522.927 524.382,523.013C524.74,523.193 525.097,523.371 525.457,523.55C525.66,523.73 525.79,524.017 525.994,524.196C526.309,524.473 526.829,524.55 527.069,524.894C527.105,525.001 527.14,525.11 527.177,525.217C527.255,525.337 527.704,525.813 527.822,525.915C528.06,526.122 528.481,526.167 528.737,526.345C529.513,526.884 530.346,527.547 530.996,528.226C532.349,528.216 533.645,526.547 534.383,525.807C534.613,525.578 534.922,525.405 535.137,525.163C535.464,524.796 535.665,524.343 535.997,523.979C536.352,523.592 536.834,523.299 537.181,522.906C537.349,522.716 537.359,522.425 537.504,522.207C537.641,522.002 537.783,521.805 537.934,521.562C538.205,521.125 538.649,520.713 538.902,520.273C539.031,520.046 538.958,519.754 539.116,519.574C539.327,519.331 539.658,519.171 539.869,518.929C540.008,518.771 539.97,518.53 540.085,518.338C540.153,518.222 540.334,518.129 540.406,518.016C540.561,517.767 540.543,517.421 540.729,517.209C540.859,517.063 541.075,516.975 541.212,516.832C541.32,516.832 541.426,516.832 541.535,516.832C541.553,516.725 541.571,516.618 541.588,516.51C541.978,516.342 542.511,516.045 542.556,515.544C542.407,515.338 542.497,515.145 542.556,514.898C542.729,514.798 543.119,514.669 543.202,514.468C543.44,514.076 542.971,513.868 543.04,513.5C543.111,513.138 543.409,512.98 543.471,512.587C543.145,512.159 543.085,511.58 542.878,511.029C542.514,510.057 541.432,507.906 541.749,506.462C541.854,505.987 541.824,505.445 541.965,504.957C542.024,504.752 542.207,504.455 542.234,504.205C542.267,503.899 541.839,503.478 541.749,503.184C541.526,502.448 541.522,500.834 541.803,500.174C542.019,499.669 542.51,499.601 542.878,499.26C543.295,499.424 543.214,500.117 543.471,500.444C543.471,500.424 543.471,500.407 543.471,500.389C543.489,500.389 543.506,500.389 543.525,500.389C543.711,499.858 543.847,499.175 544.331,498.937C545.136,498.543 545.395,499.327 545.247,500.012C545.264,500.012 545.283,500.012 545.3,500.012C545.3,499.994 545.3,499.977 545.3,499.958C545.467,499.795 545.465,499.668 545.783,499.637C545.916,499.548 546.067,499.604 546.214,499.637C546.595,500.472 546.343,501.926 546.699,502.807C547.095,502.728 547.467,502.722 547.882,502.753C548.034,503.053 547.989,503.635 547.989,504.097L547.989,517.476C547.887,517.53 546.896,518.228 546.859,518.281C546.554,518.716 546.438,519.224 546.16,519.678C545.347,521.014 544.676,522.454 543.847,523.815C542.56,525.93 541.424,528.205 540.136,530.318C539.685,531.057 539.42,531.846 538.954,532.575C538.731,532.923 538.071,532.961 537.878,533.22C537.669,533.501 537.617,534.04 537.393,534.293C537.317,534.382 537.149,534.422 537.071,534.509C536.914,534.687 536.9,534.973 536.749,535.155C536.714,535.155 536.676,535.155 536.641,535.155C536.502,535.318 536.461,535.535 536.318,535.692C536.275,535.741 536.147,535.75 536.103,535.799C535.948,535.975 535.937,536.268 535.781,536.444C535.55,536.705 535.218,536.892 534.974,537.142C533.879,537.17 533.274,536.945 532.501,536.713C532.285,536.694 532.07,536.677 531.855,536.658C531.762,536.613 531.652,536.431 531.533,536.389C531.354,536.371 531.174,536.354 530.996,536.335C530.156,535.973 529.189,535.767 528.306,535.421C527.901,535.264 527.609,534.88 527.231,534.723C526.998,534.705 526.766,534.688 526.532,534.669C526.316,534.609 526.18,534.41 525.994,534.347C525.85,534.347 525.707,534.347 525.563,534.347C525.321,534.263 525.209,534.001 525.025,533.864C524.673,533.603 524.224,533.518 523.842,533.273C523.774,533.228 523.715,533.091 523.627,533.058C523.26,532.921 522.901,533.023 522.606,532.842C521.813,532.362 521.027,531.808 520.24,531.284C519.896,531.056 519.632,530.677 519.109,530.638C518.825,530.834 518.434,530.832 518.088,530.961C517.65,531.126 517.121,531.374 516.69,531.553C516.462,531.646 516.033,531.826 515.884,531.766C515.31,531.561 514.407,530.209 514.055,529.672C513.374,529.009 512.693,528.346 512.012,527.683C511.868,527.683 511.725,527.683 511.582,527.683C511.273,527.984 510.208,528.941 511.311,529.08C511.307,529.701 511.182,530.604 510.989,531.122C510.823,531.569 510.357,532.162 510.721,532.68C510.79,532.728 510.855,532.73 510.989,532.734C511.064,533.577 511.205,534.426 511.205,535.474C511.205,535.744 511.205,536.012 511.205,536.282C511.172,536.401 511.024,536.54 510.989,536.657C510.887,536.999 511,537.235 510.882,537.571C510.797,537.811 510.522,538.07 510.397,538.269C510.362,538.43 510.327,538.592 510.29,538.752C510.165,538.956 509.894,539.147 509.753,539.344C509.537,539.643 509.414,539.948 509.161,540.203C508.859,540.506 508.4,540.785 508.354,541.331C508.514,541.416 509.018,541.539 509.106,541.707C509.199,541.838 509.199,542.383 509.106,542.513C508.994,542.831 508.128,543.808 507.816,543.911C507.517,544.008 507.169,543.79 507.009,544.017C507.405,544.314 507.346,544.857 507.6,545.307C507.747,545.566 508.083,545.928 508.191,546.22C508.331,546.599 508.251,546.835 508.406,547.188C508.576,547.575 508.924,547.909 509.051,548.37C509.22,548.982 509.016,549.78 509.213,550.358C509.411,550.937 509.778,551.626 509.967,552.185C509.967,552.471 509.967,552.758 509.967,553.043C510.199,554.129 509.782,555.62 510.02,556.751C510.156,557.394 510.164,558.636 510.02,559.276C509.874,559.937 510.089,560.623 509.913,561.264C509.707,562.015 509.53,563.056 509.267,563.789C509.136,564.16 509.224,564.52 509.105,564.918C508.989,565.313 508.784,565.875 508.676,566.263C508.574,566.621 508.682,566.899 508.567,567.228C507.781,569.512 507.149,571.833 506.255,574C506.055,574.486 506.09,575.066 505.879,575.558C505.502,576.426 505.221,577.591 504.91,578.513C504.631,579.343 504.556,579.981 503.996,580.5C503.602,580.866 503.356,581.419 502.598,581.413C502.465,581.295 502.274,581.298 502.113,581.2C501.815,581.014 501.539,580.694 501.253,580.5C500.957,580.301 500.354,580.119 500.017,580.018C499.838,579.999 499.658,579.982 499.479,579.964C499.442,579.949 499.318,579.818 499.262,579.802C499.119,579.802 498.975,579.802 498.833,579.802C498.595,579.717 498.248,579.235 497.757,579.533C497.174,579.729 496.901,580.406 496.519,580.823C496.336,581.024 496.055,581.156 495.875,581.359C495.514,581.765 495.272,582.25 494.907,582.65C494.595,582.991 494.138,583.272 493.831,583.617C493.539,583.946 493.375,584.368 493.079,584.692C492.824,584.968 492.484,585.177 492.217,585.444C491.916,585.746 491.672,586.124 491.357,586.411C491.202,586.553 490.977,586.592 490.819,586.733C490.615,586.914 490.483,587.195 490.282,587.378C489.789,587.829 489.167,588.117 488.668,588.561C488.518,588.695 488.388,588.966 488.237,589.099C488.003,589.304 487.612,589.323 487.378,589.528C486.978,589.879 486.497,590.144 486.087,590.496C485.904,590.651 485.714,590.923 485.494,591.032C485.292,591.136 485.129,591.082 484.957,591.194C484.743,591.333 484.554,591.631 484.311,591.732C483.97,591.873 483.648,591.886 483.396,592.107C482.641,592.772 481.957,593.545 481.245,594.256C480.606,594.895 479.824,595.611 479.685,596.728C480.038,596.837 480.267,597.134 480.546,597.319C480.861,597.529 481.21,597.637 481.514,597.858C482.211,598.361 482.787,599.089 483.45,599.63C483.557,599.665 483.665,599.7 483.773,599.736C483.889,599.811 483.943,599.971 484.042,600.058C484.218,600.214 484.511,600.226 484.688,600.381C484.968,600.628 485.178,600.975 485.441,601.241C485.741,601.542 486.127,601.783 486.409,602.1C486.566,602.275 486.577,602.568 486.732,602.745C486.81,602.834 486.977,602.872 487.054,602.96C487.214,603.14 487.189,603.449 487.323,603.658C488.165,604.968 488.859,606.585 489.527,608.064C489.701,608.446 489.645,608.836 489.797,609.247C489.912,609.558 490.257,609.883 490.389,610.215C490.503,610.5 490.468,610.756 490.603,611.021C490.657,611.125 490.828,611.275 490.873,611.397C490.873,611.503 490.873,611.611 490.873,611.719C490.991,612.056 491.317,612.394 491.464,612.686C491.652,613.057 491.634,613.583 491.787,613.976C492.183,614.994 492.746,616.113 493.185,617.092C493.202,617.235 493.22,617.378 493.239,617.522C493.433,618.029 494.011,618.178 494.26,618.596C494.36,618.765 494.241,619.02 494.313,619.242C494.415,619.547 494.745,619.823 494.853,620.101C494.853,620.208 494.853,620.316 494.853,620.424C495.002,620.854 495.292,621.346 495.551,621.713C495.69,621.911 495.926,621.853 496.144,621.982C496.455,622.168 496.85,622.551 497.003,622.896C497.618,624.272 497.984,625.863 498.401,627.463C498.584,628.164 497.83,630.093 497.648,630.632C497.547,630.93 497.663,631.255 497.541,631.6C497.274,632.349 494.824,632.943 493.561,632.621C493.329,632.561 492.475,632.203 492.216,632.299C492.191,632.308 492.094,632.448 492.054,632.46C491.817,632.535 491.694,632.36 491.57,632.46C491.093,632.702 490.88,633.092 490.55,633.481C490.277,633.802 489.726,634.118 489.366,634.34C488.907,634.625 488.476,634.731 487.914,634.932C487.66,635.021 487.262,635.185 486.999,635.253C486.604,635.253 486.21,635.253 485.816,635.253C484.647,635.503 483.197,635.414 481.836,635.414C481.173,635.396 480.509,635.379 479.847,635.361C479.438,635.246 479.038,634.884 478.717,634.662C478.409,634.449 477.965,634.204 477.857,633.803C477.776,633.504 477.952,633.213 478.019,633.051C478.405,632.113 478.825,632.307 479.578,631.814C480.339,631.318 481.12,630.841 481.783,630.256C481.918,630.138 482.16,630.132 482.267,629.988C482.353,629.873 482.336,629.717 482.429,629.612C482.584,629.437 482.837,629.328 482.968,629.128C483.068,628.973 483.064,628.779 483.182,628.645C483.294,628.519 483.501,628.449 483.612,628.323C483.767,628.147 483.777,627.852 483.935,627.677C484.176,627.41 484.654,627.462 484.796,627.087C484.942,626.849 484.839,626.476 485.01,626.28C485.413,625.818 486.104,625.485 486.194,624.72C485.979,624.525 485.918,624.289 485.925,623.861C485.813,623.882 485.821,623.876 485.763,623.915C485.543,624.011 484.827,624.732 484.634,624.936C484.455,624.917 484.276,624.901 484.096,624.882C484.078,624.828 484.059,624.775 484.042,624.72C483.991,624.646 483.99,624.544 483.989,624.4C484.229,624.167 484.354,623.84 484.58,623.592C485.248,622.864 486.058,622.276 486.785,621.605C486.785,621.247 486.785,620.888 486.785,620.53C486.708,620.31 486.398,620.18 486.302,619.994C486.265,619.813 486.23,619.636 486.195,619.455C486.125,619.339 485.957,619.285 485.872,619.188C485.717,619.009 485.705,618.718 485.549,618.542C485.47,618.453 485.307,618.415 485.227,618.327C485.085,618.173 485.045,617.948 484.904,617.79C484.757,617.624 484.516,617.523 484.365,617.361C484.224,617.206 484.184,616.979 484.042,616.822C483.61,616.339 483.104,615.885 482.645,615.426C481.981,614.763 481.372,614.046 480.709,613.383C480.368,613.043 479.974,612.757 479.633,612.416C479.449,612.232 479.297,611.688 479.202,611.609C478.855,611.325 478.474,611.137 478.126,610.857C477.657,610.479 477.256,609.891 476.889,609.406C476.674,609.21 476.459,609.012 476.244,608.815C475.194,607.379 474.187,605.937 473.124,604.516C472.83,604.124 472.289,603.897 471.942,603.549C471.616,603.225 471.41,602.797 471.135,602.421C470.83,602.152 470.526,601.883 470.22,601.615C469.103,600.497 468.597,598.871 467.962,597.261C467.653,596.48 467.955,595.531 466.832,595.542C466.718,595.444 466.401,595.376 466.241,595.488C466.032,595.566 466.018,595.711 465.865,595.81C465.683,595.926 465.443,595.906 465.273,596.026C465.142,596.117 465.063,596.343 464.897,596.401C464.539,596.401 464.18,596.401 463.821,596.401C463.56,596.401 463.13,596.454 462.961,596.347C462.454,596.163 462.272,595.652 461.994,595.218C461.624,594.647 460.808,594.172 460.487,593.659C460.418,593.548 460.491,593.429 460.434,593.284C460.272,593.105 460.111,592.926 459.95,592.747C459.036,591.833 458.121,590.92 457.207,590.006C457.01,589.81 456.781,589.523 456.561,589.361C456.42,589.258 456.229,589.234 456.131,589.093C455.997,588.899 456.031,588.672 455.917,588.447C455.665,587.959 454.825,586.771 454.411,586.46C453.563,585.823 452.736,585.134 451.884,584.526C451.425,584.199 450.881,583.998 450.485,583.612C450.088,583.745 449.963,584.175 449.679,584.419C449.457,584.605 449.031,584.789 448.764,584.902C448.098,585.183 447.449,585.247 446.775,585.492C445.856,585.828 444.867,586.333 443.871,586.621C443.441,586.656 443.01,586.693 442.579,586.728C441.924,586.91 441.131,587.073 440.482,587.266C439.878,587.446 439.308,587.354 438.653,587.535C438.331,587.623 437.876,587.804 437.578,587.911C437.267,588.024 436.716,587.976 436.556,588.233C436.213,588.755 436.258,589.627 436.072,590.274C435.649,591.749 435.434,593.311 434.996,594.841C434.489,596.616 434.227,598.491 433.705,600.322C432.905,603.129 432.293,606.133 431.607,608.972C431.387,609.888 431.85,610.831 431.554,611.767C431.403,612.244 431.178,612.851 431.016,613.378C430.828,613.995 430.994,614.567 430.801,615.151C430.572,615.847 430.276,616.631 430.049,617.301C429.801,618.028 429.689,618.707 429.296,619.288C429.057,619.642 428.518,620.081 428.005,620.148C427.597,620.2 426.952,619.875 426.606,619.771C425.506,619.438 423.38,619.273 422.357,619.717C422.415,620.04 422.493,620.701 422.68,620.952C423.049,621.171 423.569,621.036 424.024,621.167C424.5,621.305 425.118,621.411 425.637,621.598C425.873,621.683 426.059,621.938 426.282,622.028C426.769,622.226 427.336,622.311 427.788,622.458C428.321,622.633 428.933,622.569 429.401,622.836C429.51,622.896 429.528,623.073 429.617,623.156C429.822,623.35 430.471,623.569 430.746,623.64C431.068,623.64 431.391,623.64 431.713,623.64C432.479,623.831 433.28,624.086 434.079,624.285C434.438,624.285 434.796,624.285 435.155,624.285C435.646,624.395 436.116,624.384 436.553,624.554C437.059,624.75 437.476,625.322 437.844,625.682C437.855,626.074 438.107,626.645 437.898,626.973C437.625,627.752 435.878,628.634 435.048,628.907C434.528,629.077 434.019,628.87 433.434,629.013C433.146,629.085 432.836,629.267 432.574,629.336C432.36,629.355 432.144,629.372 431.928,629.39C431.801,629.438 431.628,629.618 431.498,629.66C431.009,629.817 430.611,629.637 430.1,629.766C429.937,629.807 429.724,629.941 429.562,629.982C429.118,630.092 428.879,629.786 428.486,629.874C427.629,630.065 426.345,629.982 425.313,629.982C423.901,629.982 422.64,630.088 421.334,630.088C420.587,630.088 419.678,630.016 419.022,630.142C418.824,630.459 418.527,630.828 418.484,631.271C417.756,631.295 417.56,631.725 417.085,631.916C416.662,632.086 416.121,632.134 415.688,632.239C414.761,632.461 414.343,631.849 413.752,631.7C413.214,631.7 412.676,631.7 412.139,631.7C411.866,631.636 411.269,631.489 410.848,631.594C410.357,631.715 409.758,631.916 409.127,631.7C408.744,631.571 408.529,631.203 408.266,630.949C408.26,630.338 408.309,629.592 408.212,629.067C408.23,628.871 408.248,628.673 408.266,628.477C408.176,628.067 408.168,627.491 408.266,627.081C408.403,626.511 408.004,626.093 408.159,625.47C408.367,624.628 408.742,623.95 409.073,623.266C409.11,622.961 409.146,622.657 409.18,622.352C409.465,621.863 409.995,621.976 410.365,621.654C410.574,621.47 411.516,620.138 411.601,619.881C411.601,619.594 411.601,619.308 411.601,619.022C411.638,618.879 411.779,618.719 411.816,618.591C411.816,618.413 411.816,618.233 411.816,618.055C411.941,617.549 412.025,616.801 412.139,616.335C412.139,616.084 412.139,615.834 412.139,615.582C412.221,615.248 412.222,614.578 412.301,614.185C412.481,614.072 412.896,613.966 413.053,613.81C413.233,613.63 413.143,613.365 413.268,613.111C413.383,612.879 413.664,612.528 413.752,612.252C413.752,612.073 413.752,611.894 413.752,611.715C413.872,611.231 413.847,610.265 413.967,609.779C413.967,609.529 413.967,609.278 413.967,609.027C414.183,608.164 414.177,606.693 414.398,605.804C414.398,605.623 414.398,605.446 414.398,605.265C414.708,604.031 415.044,602.685 415.365,601.504C415.365,601.272 415.365,601.039 415.365,600.806C415.393,600.721 415.552,600.623 415.579,600.538C415.579,600.376 415.579,600.215 415.579,600.053C415.609,599.968 415.766,599.87 415.795,599.785C415.858,599.6 415.766,599.378 415.849,599.247C415.906,599.207 415.9,599.215 416.011,599.193C416.116,599.282 416.262,599.327 416.387,599.247C415.973,599.147 415.69,598.88 415.366,598.711C415.083,598.564 414.82,598.549 414.559,598.388C414.049,598.072 413.723,597.63 413.322,597.206C413.322,597.044 413.322,596.884 413.322,596.722C413.747,596.337 414.28,595.895 414.29,595.111C413.755,594.508 413.095,593.706 412.301,593.392C411.982,593.265 411.436,593.379 411.117,593.284C410.234,593.019 409.232,592.687 408.374,592.425C408.033,592.425 407.692,592.425 407.352,592.425C407.099,592.355 406.901,592.146 406.707,592.048C406.528,592.03 406.347,592.013 406.169,591.995C405.862,591.882 405.619,591.472 405.361,591.296C404.702,590.845 404.303,590.339 403.802,589.738C403.727,589.649 403.575,589.647 403.479,589.576C403.128,589.317 402.879,588.913 402.618,588.555C402.477,588.362 402.118,587.987 401.919,587.857C401.811,587.839 401.704,587.821 401.596,587.803C401.442,587.675 401.41,587.248 401.326,587.051C401.159,586.649 400.626,585.965 400.842,585.278C400.902,585.088 401.128,585.003 401.219,584.848C401.291,584.722 401.212,584.579 401.272,584.418C401.36,584.18 401.644,584.049 401.81,583.88C402.271,583.842 403.242,583.583 403.746,583.826C404.242,584.065 404.599,584.555 405.037,584.847C405.634,585.246 406.191,585.471 406.866,585.813C407.003,585.883 407.152,586.089 407.297,586.136C407.591,586.23 407.848,586.034 408.157,586.029C408.175,586.136 408.193,586.244 408.211,586.352C408.406,586.444 408.494,586.505 408.802,586.512C409.203,585.974 409.758,585.784 410.523,585.598C410.774,585.598 411.025,585.598 411.276,585.598C411.422,585.549 411.56,585.327 411.706,585.277C412.1,585.277 412.495,585.277 412.889,585.277C413.14,585.215 413.406,585.126 413.75,585.115C413.752,584.96 413.752,584.821 413.696,584.739C413.487,584.104 412.749,584.009 412.298,583.611C412.055,583.398 411.893,583.073 411.653,582.858C411.577,582.791 411.466,582.812 411.383,582.752C411.072,582.524 410.847,582.164 410.577,581.893C410.453,581.768 410.236,581.664 410.146,581.516C409.798,580.937 409.608,580.221 409.339,579.582C409.248,579.365 408.956,579.233 408.855,579.044C408.685,578.72 408.697,578.445 408.532,578.131C408.478,578.025 408.313,577.876 408.264,577.754C408.246,577.647 408.228,577.54 408.21,577.433C408.118,577.28 407.86,577.156 407.779,577.003C407.68,576.814 407.752,576.666 407.672,576.465C407.588,576.254 407.333,576.104 407.241,575.928C407.137,575.728 407.19,575.562 407.08,575.39C406.916,575.135 406.65,574.881 406.488,574.638C406.244,574.272 406.187,573.826 405.95,573.455C405.851,573.3 405.612,573.18 405.52,573.026C405.38,572.79 405.397,572.497 405.251,572.273C404.857,571.669 404.268,571.071 403.906,570.447C403.293,569.389 402.709,568.348 402.077,567.33C401.952,567.044 401.826,566.757 401.701,566.47C401.509,566.175 401.187,565.903 401.001,565.611C400.924,565.489 400.968,565.373 400.894,565.235C400.773,565.008 400.518,564.881 400.356,564.698C400.213,564.535 400.209,564.294 400.088,564.107C399.925,563.858 399.658,563.604 399.496,563.355C399.385,563.185 399.391,562.989 399.281,562.818C399.061,562.475 398.662,562.186 398.42,561.849C397.899,561.124 397.573,560.352 397.076,559.593C396.962,559.419 396.685,559.235 396.592,559.056C396.474,558.828 396.529,558.638 396.376,558.464C396.13,558.185 395.768,557.987 395.517,557.712C395.374,557.557 395.333,557.337 395.194,557.176C394.999,556.947 394.713,556.733 394.548,556.476C394.446,556.321 394.45,556.13 394.333,555.993C394.108,555.728 393.777,555.474 393.58,555.187C392.11,553.051 391.33,550.466 390.622,547.557C390.622,547.306 390.622,547.054 390.622,546.805C390.404,545.892 390.515,544.51 390.515,543.419C390.515,542.334 390.524,541.305 390.729,540.464C390.729,540.034 390.729,539.603 390.729,539.174C390.801,538.89 390.875,538.278 390.945,537.992C390.945,537.705 390.945,537.42 390.945,537.132C391.208,536.076 391.434,534.731 391.698,533.694C391.698,533.479 391.698,533.264 391.698,533.049C392.138,531.695 392.74,530.253 393.096,528.858C393.131,528.501 393.168,528.142 393.204,527.784C393.232,527.695 393.39,527.55 393.418,527.461C393.565,527.001 393.385,526.581 393.526,526.171C393.556,526.083 393.711,525.939 393.741,525.85C393.758,525.599 393.776,525.348 393.795,525.098C394.001,524.627 394.426,524.126 394.602,523.593C394.711,523.263 394.621,523.082 394.763,522.842C394.886,522.634 395.171,522.419 395.247,522.196C395.362,521.859 395.116,521.511 395.193,521.336C395.271,521.089 395.896,520.443 396.108,520.316C396.165,520.28 396.376,520.316 396.376,520.316C396.376,520.262 396.376,520.208 396.376,520.154C396.462,520.002 396.588,519.828 396.699,519.671C397.008,519.236 397.412,518.817 397.721,518.381C399.967,515.204 402.25,512.103 404.496,508.924C405.246,507.864 406.064,506.84 406.809,505.755C407.097,505.336 407.61,505.037 407.616,504.357C407.18,504.337 406.826,504.148 406.486,504.036C405.503,503.711 404.535,503.508 403.637,503.177C402.652,502.811 401.786,502.653 400.84,502.262C400.348,502.06 399.79,501.71 399.281,501.564C399.119,501.564 398.958,501.564 398.797,501.564C398.477,501.458 398.223,501.169 397.991,500.973C397.824,500.832 397.591,500.824 397.4,500.704C397.049,500.487 396.663,500.208 396.323,499.951C395.498,499.328 395.423,497.795 396,496.836C396.638,495.777 397.507,495.088 398.474,494.363C399.23,493.798 399.91,493.113 400.679,492.537C400.934,492.347 401.152,491.995 401.432,491.838C401.86,491.599 402.333,491.55 402.777,491.355C403.861,490.88 405.043,490.367 406.166,489.905C407.457,489.371 408.911,488.99 410.2,488.508C410.775,488.292 411.389,488.27 411.759,487.863C411.944,487.659 412.026,487.389 412.189,487.165C412.38,486.899 412.7,486.742 412.834,486.413C412.985,486.042 412.835,485.617 412.942,485.177C413.033,484.797 413.22,484.448 413.318,484.103C413.336,483.816 413.354,483.53 413.372,483.242C413.572,482.547 414.29,481.925 414.502,481.308C414.538,480.662 414.573,480.019 414.609,479.374C415.057,477.765 416.563,475.876 418.536,475.828C418.745,476.186 418.836,476.517 418.803,477.009C418.087,477.564 417.575,478.322 417.082,479.105C417.119,479.105 417.154,479.105 417.19,479.105C417.371,478.918 417.638,478.847 417.835,478.675C418.626,477.986 418.934,477.548 420.31,477.868C420.31,477.958 420.31,478.049 420.31,478.138C420.184,478.299 420.058,478.46 419.934,478.621C419.68,478.808 419.353,478.832 419.234,479.158C419.612,479.146 420.243,479.157 420.417,479.374C420.557,479.54 420.713,480.33 420.524,480.608C420.309,481.216 419.289,481.535 419.019,482.381C418.811,483.027 419.223,483.872 419.019,484.639C418.895,485.101 418.601,485.538 418.481,485.982C418.481,486.269 418.481,486.555 418.481,486.841C418.44,487.004 418.306,487.216 418.266,487.38C418.266,487.558 418.266,487.736 418.266,487.916C418.047,488.594 417.269,489.513 416.814,490.012C416.282,490.593 415.597,490.895 414.878,491.301C414.607,491.454 414.453,491.744 414.233,491.946C413.879,492.269 413.285,492.561 412.888,492.806C412.029,493.337 410.695,493.642 410.253,494.579C410.306,494.579 410.361,494.579 410.414,494.579C410.605,494.436 410.858,494.456 411.113,494.363C411.823,494.105 412.701,493.828 413.426,493.61C413.588,493.593 413.749,493.575 413.91,493.557C414.777,493.211 415.784,492.703 416.652,492.375C417.263,492.145 417.758,492.161 418.374,491.944C419.063,491.701 419.618,491.356 420.579,491.353C421.528,491.353 422.479,491.353 423.429,491.353C423.652,491.43 423.776,491.726 423.967,491.836C424.136,491.934 424.393,491.813 424.613,491.89C424.816,491.962 424.949,492.245 425.151,492.321C425.719,492.528 426.586,492.232 427.195,492.428C427.53,492.535 427.786,492.857 428.055,493.019C428.248,493.134 428.49,493.094 428.648,493.234C428.756,493.332 428.81,493.507 428.917,493.609C428.917,493.725 428.917,493.833 428.917,493.94ZM483.986,551.435C483.958,551.157 483.761,550.733 483.932,550.467C484.046,550.163 484.35,550.21 484.47,549.931C484.592,549.73 484.523,549.207 484.523,548.91C484.523,548.3 484.831,547.362 484.631,546.762C484.562,546.554 484.235,546.12 484.47,545.741C484.565,545.443 485.154,544.885 485.384,544.667C485.384,544.108 485.269,544.211 485.169,543.915C485.169,543.538 485.169,543.161 485.169,542.786C484.82,542.564 484.432,542.197 484.309,541.765C484.169,541.277 484.494,540.489 484.255,540.1C484.184,539.902 483.566,539.241 483.394,539.132C483.215,539.078 483.036,539.025 482.857,538.971C482.637,538.825 482.48,538.475 482.212,538.38C482.032,538.361 481.853,538.345 481.674,538.326C481.598,537.895 481.394,537.719 481.243,537.412C481.171,537.108 481.099,536.804 481.028,536.499C480.905,536.257 480.628,535.987 480.49,535.747C480.253,535.336 480.365,534.852 479.738,534.834C479.03,535.91 477.391,535.62 475.973,535.478C474.72,536.552 473.696,537.863 472.532,539.025C472.245,539.33 471.958,539.633 471.671,539.938C470.749,540.626 469.832,541.339 468.874,541.981C468.634,542.141 468.274,542.092 468.014,542.249C467.776,542.394 467.302,542.754 467.046,542.841C466.902,542.841 466.76,542.841 466.616,542.841C466.47,542.893 466.345,543.111 466.186,543.162C464.625,543.162 463.066,543.162 461.508,543.162C459.416,543.164 457.907,542.829 456.29,542.41C456.111,542.41 455.932,542.41 455.753,542.41C455.59,542.368 455.377,542.238 455.215,542.195C455.035,542.195 454.856,542.195 454.677,542.195C454.413,542.109 453.973,541.852 453.709,541.765C453.565,541.765 453.421,541.765 453.279,541.765C453.099,541.718 452.813,541.595 452.633,541.551C452.383,541.551 452.131,541.551 451.882,541.551C451.647,541.489 451.433,541.293 451.236,541.229C450.813,541.088 450.446,541.208 450.052,541.067C448.911,540.658 446.823,539.714 445.321,539.992C445.057,540.459 444.892,540.942 444.459,541.229C444.302,541.333 444.116,541.234 443.922,541.335C443.737,541.432 443.62,541.8 443.438,541.927C443.313,542.012 443.182,542.003 443.061,542.088C442.773,542.289 442.207,542.772 441.877,542.733C440.505,542.565 438.969,542.853 438.113,543.27C437.813,543.416 437.444,543.389 437.36,543.754C437.521,543.932 437.682,544.111 437.843,544.291C438.786,544.935 440.156,545.027 441.231,545.526C441.371,545.59 441.437,545.774 441.554,545.848C441.661,545.866 441.768,545.884 441.876,545.902C442.181,546.027 442.607,546.328 442.952,546.44C443.37,546.575 443.888,546.448 444.296,546.601C444.827,546.798 445.153,547.22 445.641,547.407C446.214,547.625 446.801,547.72 447.361,547.89C447.577,547.926 447.792,547.962 448.007,547.997C448.448,548.187 448.957,548.477 449.405,548.642C449.62,548.661 449.835,548.678 450.05,548.696C450.484,548.841 450.898,549.208 451.288,549.395C451.61,549.55 451.873,549.533 452.202,549.663C452.458,549.765 453.036,550.13 453.278,550.309C453.42,550.469 453.564,550.631 453.708,550.792C453.852,550.847 453.995,550.9 454.138,550.954C454.925,551.487 455.493,552.857 456.021,553.693C457.304,555.728 458.661,557.787 459.947,559.82C460.405,560.544 460.846,561.265 461.291,561.967C461.485,562.274 461.605,562.776 461.937,562.935C462.317,562.509 462.958,562.46 463.497,562.183C464.031,561.91 464.407,561.492 464.895,561.162C464.931,561.108 464.966,561.055 465.003,561.001C465.11,561.02 465.218,561.038 465.325,561.055C465.446,561.018 465.553,560.834 465.648,560.787C465.851,560.683 466.012,560.735 466.186,560.626C467.819,559.584 469.655,558.398 471.564,557.67C472.151,557.446 472.7,556.924 473.285,556.702C473.778,556.515 474.273,556.614 474.737,556.38C474.83,556.334 474.921,556.166 475.006,556.112C475.258,556.022 475.508,555.932 475.759,555.842C475.949,555.716 476.053,555.443 476.297,555.36C476.494,555.341 476.691,555.324 476.888,555.306C477.108,555.202 477.353,554.964 477.587,554.874C478.003,554.717 478.359,554.763 478.771,554.607C478.86,554.572 479.003,554.42 479.093,554.391C479.236,554.391 479.38,554.391 479.523,554.391C480.13,554.184 480.65,553.412 481.137,553.1C481.353,552.963 481.665,553.123 481.943,552.994C482.295,552.83 482.391,552.205 482.643,551.92C482.84,551.696 483.135,551.544 483.342,551.328C483.556,551.363 483.771,551.399 483.986,551.435ZM430.207,566.267C430.492,566.632 431.038,566.748 431.282,567.178C431.661,567.845 431.832,568.549 432.142,569.275C432.817,570.851 433.726,572.394 434.508,573.896C434.655,574.176 434.678,574.46 434.831,574.756C435.079,575.23 435.496,575.721 435.746,576.205C435.889,576.483 435.86,576.862 436.122,577.013C437.395,576.386 438.668,575.758 439.94,575.131C440.26,574.965 441.194,574.708 441.285,574.379C440.884,573.966 440.608,573.392 440.264,572.929C439.888,572.423 439.259,572.032 438.812,571.585C438.117,570.89 437.48,569.991 436.661,569.436C436.279,569.177 435.852,569.059 435.477,568.792C435.306,568.668 435.167,568.432 434.994,568.307C434.552,567.993 434.069,567.847 433.595,567.555C433.494,567.493 433.387,567.339 433.274,567.286C432.33,566.853 431.201,566.677 430.207,566.267ZM478.663,575.292C478.434,575.482 478.059,575.445 477.748,575.562C477.358,575.705 476.933,575.972 476.511,576.098C476.083,576.229 475.528,576.221 475.113,576.314C474.7,576.314 474.288,576.314 473.876,576.314C472.742,576.314 471.445,576.249 470.542,576.475C470.012,576.608 468.989,576.537 468.605,576.797C468.927,577.008 469.114,577.378 469.412,577.603C469.961,578.018 470.486,578.516 470.972,579C471.152,579.196 471.33,579.394 471.51,579.592C472.202,580.113 472.782,580.76 473.393,581.363C473.603,581.572 473.87,581.701 474.039,581.956C474.057,581.956 474.074,581.956 474.092,581.956C474.092,581.937 474.092,581.92 474.092,581.902C474.329,581.741 474.43,581.498 474.631,581.31C474.702,581.243 474.819,581.261 474.9,581.204C475.248,580.946 475.497,580.532 475.76,580.182C476.108,579.72 476.673,579.379 476.997,578.893C477.181,578.618 477.212,578.344 477.374,578.033C477.841,577.137 478.367,576.169 478.88,575.293C478.806,575.292 478.733,575.292 478.663,575.292ZM482.373,630.207C482.328,630.033 482.399,630.125 482.265,630.046C482.247,630.1 482.23,630.153 482.212,630.207C482.265,630.207 482.319,630.207 482.373,630.207Z"/>
    </g>
</svg>
