<?xml version="1.0" encoding="UTF-8" standalone="no"?>
<!DOCTYPE svg PUBLIC "-//W3C//DTD SVG 1.1//EN" "http://www.w3.org/Graphics/SVG/1.1/DTD/svg11.dtd">
<svg width="100%" height="100%" viewBox="0 0 394 263" version="1.1" xmlns="http://www.w3.org/2000/svg" xmlns:xlink="http://www.w3.org/1999/xlink" xml:space="preserve" xmlns:serif="http://www.serif.com/" style="fill-rule:evenodd;clip-rule:evenodd;stroke-linejoin:round;stroke-miterlimit:1.41421;">
    <g transform="matrix(1,0,0,1,-16.494,-521.103)">
        <g>
            <path d="M154.977,524.128C153.163,525.082 151.204,526.235 149.411,527.4C147.002,528.963 144.287,531.059 141.93,532.851C140.525,533.921 139.492,535.924 138.451,537.397C137.704,538.45 136.618,539.261 136.015,540.486L135.667,540.486C134.879,539.298 133.47,538.27 132.361,537.397C131.484,536.705 130.814,535.548 129.925,534.852C129.148,534.242 127.59,533.575 127.141,532.67C128.204,532.348 128.978,531.458 129.925,531.033C130.949,530.573 131.888,530.581 132.882,530.125C136.181,528.614 139.534,526.559 142.973,525.219C145.598,524.195 148.464,523.548 150.975,522.675C151.892,522.355 153.009,522.47 153.759,521.947L157.934,521.947L157.934,522.309L157.76,522.309C157.305,523.641 156.118,523.529 154.977,524.128Z"/>
            <path d="M131.665,538.306C132.7,539.383 134.508,540.332 135.144,541.76C134.418,542.375 134.126,543.306 133.578,544.121C132.129,546.275 130.788,548.303 129.403,550.664C126.193,556.136 123.142,562.035 119.661,567.204C118.761,568.541 116.926,572.213 115.833,573.02C114.644,573.898 113.416,574.386 112.18,575.201C108.989,577.301 105.053,581.358 99.654,579.381C95.185,577.745 94.96,574.637 93.216,570.295C91.595,566.254 90.259,563.065 90.259,557.39C90.317,556.177 90.375,554.966 90.432,553.753C90.866,552.256 91.94,548.684 92.694,547.393C93.086,546.722 93.77,545.989 94.086,545.213C95.375,542.036 96.819,537.914 99.305,536.123C101.787,534.338 104.942,533.025 107.83,531.762C108.866,531.31 110.411,531.329 111.309,530.672C116.87,530.545 120.505,531.731 124.184,533.398C125.093,533.809 126.143,533.578 126.793,533.944C128.585,534.952 130.249,536.834 131.665,538.306Z"/>
            <path d="M293.634,557.39C294.956,556.423 296.141,555.035 297.462,554.119C297.404,553.331 297.346,552.543 297.288,551.755C296.535,550.289 292.054,548.692 290.155,548.302C290.064,543.984 289.041,540.085 288.068,536.671C287.508,534.706 287.477,532.73 286.502,531.217C285.006,528.899 281.79,528.042 279.195,526.855C277.914,526.27 276.477,525.256 275.194,524.675C272.221,523.327 269.418,522.821 265.973,521.949C264.653,521.613 262.428,520.8 260.754,521.221C258.743,521.726 256.313,522.422 254.316,523.037C252.495,523.601 250.265,523.537 248.749,524.492C247.247,525.439 243.653,527.716 242.833,529.217C241.856,531.007 241.736,533.182 241.093,535.215C240.591,536.805 239.86,538.686 239.354,540.305C238.861,541.88 238.93,543.216 238.484,544.848C238.257,545.676 237.852,546.299 237.788,547.393C235.813,547.898 233.975,548.977 232.222,549.756C231.612,550.027 231.024,549.926 230.482,550.3C230.081,550.578 229.903,551.258 229.439,551.573C229.501,552.41 229.738,553.07 230.135,553.572C230.685,555.024 235.632,557.177 237.616,557.389C237.689,558.573 238.515,559.929 238.137,561.205C237.559,563.165 233.527,567.343 234.31,569.929C234.439,570.354 234.843,570.683 235.006,571.202C236.388,571.376 237.59,571.395 239.181,571.202C239.173,572.716 239.228,574.802 239.703,575.927C239.891,576.374 240.776,576.792 240.92,577.2C241.164,577.881 240.6,579.272 241.269,580.289C241.694,580.936 242.669,581.151 243.008,581.925C243.944,584.058 243.74,587.546 245.444,588.831C246.661,589.747 249.977,590.707 251.533,589.559C251.936,589.6 252.024,589.594 252.229,589.741C252.45,590.058 252.539,590.706 252.577,591.195C260.145,589.427 267.124,587.202 274.498,585.379L277.107,585.379C280.223,585.379 282.41,585.744 285.458,585.742L287.72,585.742C289.503,585.246 291.957,584.166 293.635,583.924C292.637,581.697 291.549,579.666 290.504,577.565C290.014,576.578 289.792,575.437 289.112,574.657C288.689,574.291 287.809,574.051 287.199,573.93C287.204,569.959 288.373,566.949 289.287,563.75C289.625,562.562 289.472,560.67 290.156,559.752C290.801,558.887 292.706,558.068 293.634,557.39Z"/>
            <path d="M238.311,563.569L238.311,563.387C239.08,564.216 239.09,565.441 239.703,566.476C240.175,567.275 240.954,567.685 241.616,568.293C244.258,568.331 245.064,567.497 245.617,565.386C245.889,564.344 245.456,563.499 245.965,562.841C247.481,561.57 251.298,561.866 253.968,561.933C254.237,561.578 254.459,561.297 254.663,560.843C255.138,560.837 255.461,560.834 255.707,560.659C260.397,562.542 266.445,563.022 272.756,563.022C274.28,563.022 278.635,563.263 279.541,562.659L288.239,562.659C287.441,566.284 286.336,569.49 285.977,573.563C280.853,574.834 274.998,575.426 270.145,576.834C268.225,577.393 266.408,577.211 264.578,577.925C263.233,578.449 261.721,579.504 260.402,580.107C256.612,581.838 253.037,584.069 251.878,588.466C249.789,588.603 247.871,589.092 246.311,587.922C244.707,586.719 244.878,583.252 244.049,581.196C243.671,580.258 242.299,579.992 241.961,579.016L241.961,576.833C241.775,576.284 240.965,575.895 240.743,575.379C240.467,574.737 240.701,574.065 240.395,573.562C240.423,572.041 240.373,570.949 239.873,570.109C238.682,570.144 236.699,570.681 235.872,570.109C234.699,569.298 237.523,564.201 238.311,563.569Z" style="fill:white;"/>
            <path d="M290.154,550.483L289.98,550.483C288.891,551.242 287.091,550.832 285.63,551.211C282.689,551.969 278.917,551.938 275.192,551.936C266.626,551.934 258.622,551.157 252.053,549.21C250.466,548.74 249.065,548.846 247.53,548.301C245.062,547.428 242.677,545.676 240.049,545.03C239.997,544.381 239.991,544.539 240.223,543.94C242.879,544.225 245.249,546.153 247.53,547.03C248.783,547.512 249.861,547.366 251.184,547.759C253.82,548.538 256.791,549.269 259.535,549.939L264.232,550.12C267.26,550.834 271.166,550.848 274.322,550.666L282.673,550.666C284.935,550.129 287.957,549.467 290.154,549.576L290.154,550.483Z" style="fill:white;"/>
            <path d="M291.72,556.844C291.401,558.39 289.652,558.061 288.241,558.481C286.596,558.967 284.544,559.506 282.847,559.935C280.296,559.995 277.744,560.055 275.193,560.116C270.824,561.144 265.596,559.589 261.449,559.753C254.249,560.038 246.093,558.647 240.223,556.663C238.3,556.015 234.56,555.659 233.091,554.665C232.627,554.119 232.163,553.573 231.699,553.028C231.739,552.606 231.733,552.515 231.873,552.301C232.088,550.2 235.008,550.316 236.222,549.21L237.265,549.21L237.265,549.391L237.44,549.391C237.31,550.515 233.871,551.776 232.916,552.301C233.503,554.061 235.365,553.892 237.092,554.481C239.678,555.364 242.128,555.872 245.095,556.663C247.68,557.351 250.786,557.665 253.446,558.3C256.808,558.421 260.173,558.541 263.536,558.662C265.597,559.136 270.273,559.454 272.235,559.026C275.888,558.903 279.543,558.783 283.195,558.662C285.743,558.005 288.69,557.089 291.198,556.481C291.359,556.645 291.502,556.725 291.72,556.844Z" style="fill:white;"/>
            <path d="M318.164,596.647C318.729,598.628 319.123,601.023 319.556,603.007L316.598,603.007C313.452,600.765 304.119,602.181 300.941,603.191L298.854,603.191C297.268,603.566 295.091,603.995 293.634,604.462C291.605,604.523 289.575,604.583 287.545,604.644C281.032,606.664 272.874,603.181 264.928,605.734C262.783,605.797 260.636,605.857 258.491,605.918C255.554,606.854 253.288,608.597 250.314,609.553C248.031,610.285 244.534,609.014 242.312,609.735C241.281,610.067 239.047,611.6 238.311,611.37C237.249,609.943 237.067,608.173 236.223,606.463C235.117,604.222 232.889,602.38 232.048,599.921C232.931,599.581 233.406,598.603 234.135,598.104C235.618,597.085 237.936,596.425 239.528,595.741C240.33,595.396 244.173,594.666 245.096,594.832C245.486,594.902 246.342,595.491 246.835,595.379C248.486,594.992 250.49,592.5 252.402,592.107C253.289,591.923 254.248,592.264 255.36,591.925C261.276,590.117 267.429,588.493 273.279,586.836C277.443,585.654 282.66,587.387 286.327,587.018C287.929,586.856 290.682,586.485 292.416,585.745C293.14,585.436 294.102,584.682 294.852,584.474C295.969,584.163 300.234,585.591 301.289,585.928C305.87,587.391 310.774,588.43 316.599,588.471C316.615,590.57 317.497,591.827 317.992,593.379C318.048,594.466 318.106,595.558 318.164,596.647Z"/>
            <path d="M232.743,730.963L231.874,730.963C231.986,731.276 231.908,731.141 232.048,731.325C232.107,733.494 233.683,734.086 235.006,734.962C236.887,736.204 238.985,737.84 241.095,738.778C242.497,739.402 243.861,739.445 245.27,740.049C250.058,742.103 255.784,742.662 261.45,744.049C263.996,744.67 267.186,743.867 269.626,744.411C271.83,744.291 274.034,744.17 276.237,744.049C281.166,744.11 286.096,744.17 291.025,744.231C297.168,742.698 303.67,741.456 308.249,738.233C308.48,737.93 308.713,737.628 308.945,737.324C310.132,736.399 311.898,735.462 312.773,734.235C313.749,732.864 314.325,731.332 315.209,729.874C315.745,728.986 316.655,728.09 317.123,727.147C318.363,724.649 318.417,721.649 319.559,718.967C319.956,718.035 320.987,717.036 321.299,716.059L321.299,713.334C321.822,711.65 322.994,709.683 323.56,707.879C324.472,704.979 324.598,701.258 325.3,698.428C325.582,697.293 325.314,696.03 325.822,695.158L325.822,694.066L325.996,694.066C326.379,695.512 327.204,696.792 327.736,698.065C329.418,702.105 331.169,706.048 332.781,709.879C337.068,720.064 342.086,729.556 346.351,739.686C347.01,741.251 348.128,742.847 348.787,744.411C350.861,749.344 352.71,754.32 354.702,759.133C355.471,760.993 355.927,762.653 356.964,764.223C357.485,764.708 358.007,765.192 358.529,765.677C358.831,766.131 358.832,766.793 359.225,767.132C360.643,768.355 368.878,770.483 372.273,769.677C373.439,769.4 375.16,768.76 376.796,769.131C377.654,769.326 379.218,769.199 380.101,769.493C382.031,770.139 383.824,771.408 385.668,772.221C386.997,772.805 388.6,772.985 389.669,773.856L390.018,773.856C389.803,773.53 389.567,773.405 389.322,773.129L389.148,773.129L389.148,772.946C390.602,773.451 393.886,772.924 395.063,773.674C396.164,773.578 396.628,773.512 396.628,774.22C398.14,774.214 399.756,774.409 400.629,775.129L400.978,775.129C400.861,774.902 400.789,774.752 400.629,774.582L400.629,774.4L405.674,774.4L405.674,774.947C405.975,775.064 405.845,774.982 406.023,775.129C407.468,775.174 408.327,775.147 408.981,774.4C409.121,774.213 409.045,774.356 409.154,774.039C408.853,773.723 408.557,773.28 408.285,772.946L408.111,772.946C408.536,772.631 409.409,772.422 409.851,772.22C409.599,770.619 408.457,770.778 407.415,770.038C406.042,769.065 404.803,767.661 403.414,766.585C401.272,764.923 399.19,763.192 396.804,761.677C395.013,760.542 392.807,760.173 391.063,758.95C390.501,758.559 390.053,757.706 389.498,757.315C387.226,755.715 384.234,755.282 381.495,754.226C380.244,753.742 378.752,752.955 377.494,752.589C373.65,751.479 370.191,756.158 367.578,752.589C364.172,747.939 363.105,741.149 360.967,735.141C357.088,724.242 354.601,711.67 351.398,699.881C349.977,694.651 349.688,689.236 348.44,684.068C348.15,681.826 347.86,679.586 347.57,677.343C346.816,674.902 345.445,672.646 344.264,670.617C343.924,670.032 343.935,669.365 343.568,668.8C342.954,667.855 341.684,667.251 341.306,666.073C340.434,664.537 341.538,661.802 341.828,660.803C342.479,658.559 341.995,655.373 342.698,653.168C343.157,651.725 344.283,650.37 344.96,649.171C345.675,647.901 345.884,645.812 344.96,644.809C344.311,643.577 342.361,643.633 340.785,643.717C340.776,641.582 340.607,639.889 340.263,638.266C340.321,635.297 340.379,632.328 340.436,629.36C339.889,626.696 340.705,623.229 340.088,620.454C339.24,616.638 338.732,612.152 337.305,608.822C336.375,606.653 334.076,604.907 332.782,603.005C331.427,601.019 330.496,598.919 329.128,597.008C328.301,595.853 326.764,594.976 325.649,594.101C324.101,592.886 322.771,591.014 321.126,589.919C320.283,589.36 319.098,589.446 318.343,588.829L317.647,588.829C318.227,590.647 318.807,592.464 319.387,594.282L319.387,596.464C319.885,598.441 320.14,600.853 320.779,602.643C321.124,602.89 321.127,604.097 321.127,604.097C321.476,606.463 322.664,608.439 323.389,610.277C324.349,612.709 325.096,615.668 325.825,618.092C326.389,619.972 326.347,622.011 326.346,624.452L326.346,627.179C326.758,629.022 326.766,634.277 326.172,635.904C325.061,638.947 324.472,642.515 323.041,645.355C322.479,646.466 321.405,647.376 320.779,648.445C319.841,650.045 319.604,651.924 318.865,653.716C317.413,657.239 315.43,660.392 315.56,665.711C315.938,666.083 317.65,667.614 317.821,667.892C318.111,668.982 318.402,670.074 318.692,671.163C318.982,671.405 319.272,671.649 319.562,671.891C320.503,673.435 319.46,675.949 319.04,677.162C318.676,678.213 319.197,678.895 318.519,679.525L318.519,681.342C319.209,682.954 323.738,684.466 322.172,686.613L322.172,686.795L321.998,686.795C321.412,685.854 320.611,684.524 319.737,683.887C318.873,683.258 318.03,683.01 317.649,681.887C316.069,679.479 319.742,675.507 318.693,672.801C318.565,672.473 318.018,672.319 317.822,672.072C317.157,671.234 317.404,669.881 316.953,668.801C316.869,668.6 314.961,666.836 314.691,666.621L314.691,666.437L314.517,666.437C313.682,668.249 312.533,669.929 311.907,672.072C311.485,673.521 312.373,674.65 312.603,675.525C312.893,676.626 312.744,677.109 313.125,678.07C313.757,679.664 315,680.767 315.561,682.978C315.619,684.068 315.677,685.158 315.735,686.249C316.156,687.703 316.604,689.371 316.953,690.976L316.953,697.336C317.737,700.016 319.58,703.725 318.519,707.515C317.944,709.569 316.782,711.67 316.082,713.694C315.598,715.098 315.711,716.356 315.039,717.51C312.839,721.287 310.035,724.92 307.558,728.416C306.346,730.128 305.02,732.628 303.383,733.868C302.079,734.856 300.595,735.33 299.207,736.231C297.728,737.193 296.152,738.571 294.51,739.322C286.945,742.773 276.815,739.912 268.588,738.594C265.635,738.12 263.481,740.163 261.629,740.774L255.193,740.774C254.022,740.429 252.785,739.449 251.714,738.957C248.211,737.354 245.296,735.695 242.146,733.687C241.594,733.335 240.868,732.666 240.231,732.416C237.73,731.932 235.236,731.446 232.743,730.963ZM323.906,686.797C326.339,685.588 330.441,686.479 333.475,685.707C334.947,685.332 336.956,684.839 338.52,684.434C340.26,683.983 342.081,684.547 343.565,683.889C344.979,683.264 345.706,681.967 346.871,681.162C347.359,682.632 347.17,684.26 347.567,685.889C348.727,690.648 349.034,695.743 350.351,700.61C353.593,712.604 356.153,725.316 360.093,736.415C361.943,741.626 363.872,751.793 367.749,754.409C371.246,756.77 374.044,752.855 376.969,753.682C377.656,753.877 378.585,754.498 379.231,754.772C380.681,755.197 382.13,755.62 383.58,756.045C385.122,756.703 387.177,757.289 388.625,758.225C389.433,758.749 390.035,759.732 390.887,760.225C393.946,761.996 397.34,763.055 400.107,765.131C402.443,766.887 404.426,769.365 406.893,770.948L406.893,771.129C404.667,771.025 404.494,769.75 403.24,768.768C401.362,767.293 395.687,762.445 393.323,762.225L393.323,762.952C396.41,764.907 399.332,766.955 402.196,769.132C403.73,770.298 404.165,772.054 406.893,772.038L406.893,772.222L407.067,772.222C407.071,772.751 407.075,773.212 406.893,773.493L406.893,773.856C404.447,772.99 401.83,772.389 399.934,770.949C398.344,769.739 397.316,767.702 395.585,766.587C392.73,764.748 389.047,764.36 386.538,762.226C386.137,762.284 386.105,762.309 385.842,762.407C386.168,764.017 388.742,764.447 390.018,765.133C392.088,766.25 394.643,766.992 396.454,768.405C398.499,770.002 399.398,772.383 402.37,773.131C400.911,774.063 398.293,773.005 397.325,772.586C396.013,772.018 394.465,772.607 393.324,771.858C392.498,771.318 391.852,770.265 391.062,769.678C390.524,769.276 389.832,769.202 389.322,768.769C388.686,768.227 388.411,767.347 387.582,766.95C385.29,765.852 381.702,765.742 379.927,764.043C379.475,764.08 379.336,764.123 379.057,764.225L379.057,764.409C380.873,765.329 383.208,766.122 385.146,766.951C385.958,767.195 386.771,767.436 387.582,767.679C388.198,768.066 388.439,768.89 388.974,769.315C389.504,769.736 390.171,769.818 390.714,770.224C391.455,770.779 391.908,771.581 392.802,772.04L392.802,772.224C391.414,772.125 389.703,772.11 388.452,772.04C388.227,772.028 387.462,771.413 387.235,771.315C384.598,770.165 382.178,768.756 379.405,768.044C376.949,767.409 373.365,768.168 371.576,768.587C369.019,769.187 361.518,767.274 360.268,766.407C359.843,766.112 359.872,765.581 359.572,765.134C359.05,764.652 358.528,764.165 358.006,763.682C357.048,762.206 356.629,760.675 355.918,758.954C353.931,754.14 352.072,749.169 350.003,744.233C348.324,740.229 345.931,736.379 344.261,732.42C339.925,722.125 335.071,712.49 330.691,702.066C329.982,700.378 328.966,698.49 328.255,696.795C327.794,695.691 327.669,694.481 327.037,693.523C326.85,693.241 326.378,693.221 326.167,692.978C325.104,691.754 324.224,688.807 323.906,686.797Z"/>
            <path d="M16.494,768.584L16.494,768.768C19.277,768.645 22.061,768.525 24.845,768.404C27.585,767.772 31.858,767.784 34.587,768.404L37.023,768.404C40.155,769.01 43.286,769.617 46.418,770.221C48.446,769.957 51.043,769.29 53.029,768.768C56.225,767.926 59.493,767.801 62.424,766.949C65.489,766.058 68.509,766.144 71.471,765.132C73.443,764.46 75.69,763.531 77.734,762.952C82.272,761.665 87.341,761.854 91.999,760.77L95.827,760.77C100.47,760.772 104.499,761.095 108.527,761.678C109.207,761.778 111.013,761.463 111.659,761.315L114.268,761.315C116.738,760.749 119.783,760.794 121.923,760.225C124.684,759.493 127.451,759.749 130.099,758.771C132.105,758.03 135.977,755.183 136.884,753.319C137.175,751.864 137.465,750.411 137.755,748.958C138.271,747.31 139.017,745.353 139.147,743.322C140.067,743.889 139.992,745.979 140.364,747.139C141.156,749.604 142.636,752.835 142.974,755.498C143.113,756.6 141.891,757.287 142.278,758.951C142.836,761.355 144.074,762.887 144.887,764.949C145.628,766.826 146.031,770.101 146.975,771.676C147.606,772.727 148.697,773.373 149.563,774.201C149.584,774.275 149.617,774.35 149.671,774.428C150.086,775.008 150.108,775.795 150.695,776.268C151.063,776.564 151.46,776.77 151.87,776.963C151.787,777.186 151.716,777.422 151.661,777.68C151.413,778.826 151.472,779.928 151.97,780.844C152.033,781.003 152.105,781.158 152.194,781.308C152.223,781.315 152.257,781.319 152.286,781.325C152.527,781.632 152.827,781.91 153.198,782.153C153.647,782.448 154.077,782.174 154.229,781.786C154.25,781.776 154.271,781.77 154.292,781.759C155.225,781.238 156.039,780.53 156.959,779.98C157.112,779.889 157.233,779.734 157.331,779.65C157.398,779.684 157.47,779.705 157.542,779.713C157.554,779.747 157.564,779.786 157.574,779.838C157.641,780.188 157.732,780.53 157.865,780.86C158.064,781.872 158.55,782.706 159.305,783.196C159.932,783.832 160.72,784.214 161.695,783.946C162.552,783.71 163.049,782.561 163.679,782.02C164.313,781.477 167.21,779.403 167.987,780.233C168.367,780.638 168.735,780.969 169.197,781.169C169.211,781.213 169.225,781.259 169.242,781.309C169.364,781.308 169.48,781.305 169.597,781.302C169.602,781.304 169.606,781.305 169.61,781.306C169.749,781.434 169.934,781.514 170.12,781.514C170.293,781.514 170.443,781.456 170.562,781.361C170.954,781.329 171.32,781.238 171.682,781.129C172.343,781.027 172.944,780.879 173.523,780.676C173.525,780.676 173.527,780.676 173.528,780.675C173.688,780.66 173.818,780.604 173.924,780.526C174.277,780.384 174.626,780.223 174.983,780.04C175.496,779.772 176.184,779.131 176.723,778.948C178.054,778.499 179.234,779.153 180.206,779.497C180.234,779.767 180.382,780.028 180.692,780.155C181.769,780.595 183.084,780.27 183.686,779.242C184.297,778.2 183.316,776.907 184.327,776.061C184.396,776.004 184.444,775.942 184.483,775.879C185.948,775.471 187.412,775.479 189.074,774.949C192.908,773.724 197.905,772.185 200.731,770.404C201.345,770.017 202.502,767.355 202.992,766.588C205.185,763.154 206.967,759.567 208.907,755.682C213.046,747.399 219.053,739.023 223.648,731.205C225.095,728.742 226.376,726.246 227.823,723.935C227.897,723.818 227.947,723.688 228.004,723.561C229.179,725.148 229.902,727.207 231.524,728.419C231.582,728.843 231.64,729.267 231.698,729.69C234.1,729.881 238.767,730.473 240.744,731.326C245.666,733.452 249.844,737.673 255.184,739.506L261.62,739.506C263.583,738.841 265.938,736.671 269.45,737.505C273.403,738.447 277.558,738.284 281.627,739.325C283.636,739.838 287.891,740.473 290.326,739.687C293.622,738.624 296.375,736.678 299.025,734.962C300.291,734.141 301.684,733.711 302.853,732.779C304.04,731.836 305.39,729.371 306.332,728.054C308.873,724.503 311.739,720.823 313.987,716.968C314.681,715.778 314.454,714.37 315.031,712.968C315.95,710.732 316.978,708.435 317.64,705.88C318.195,703.739 316.162,698.992 315.726,697.337L315.726,690.612C315.423,689.29 314.828,687.655 314.508,686.432C313.987,684.442 314.563,682.725 313.812,681.161C313.456,680.417 312.648,679.7 312.247,678.98C311.796,678.172 310.286,673.198 310.681,671.892C311.383,669.573 312.495,667.309 313.639,665.348C313.734,665.186 314.261,665.11 314.334,664.985L314.334,663.349C314.624,662.363 314.589,660.452 315.031,659.35C316.374,655.995 317.691,652.91 319.032,649.355C319.741,647.473 321.311,646.151 322.164,644.447C322.581,643.614 322.456,642.796 322.859,641.903C324.53,638.215 326.052,633.04 325.295,627.546L325.295,620.819C324.636,618.563 323.785,615.884 323.034,613.731C322.975,613.246 322.918,612.762 322.859,612.277C322.194,610.678 321.172,608.885 320.597,607.188C320.235,606.117 320.434,605.257 319.902,604.461L319.902,604.1C316.451,604.097 314.06,603.689 311.377,603.008C310.2,602.71 308.875,603.223 307.724,603.192C307.442,603.182 306.866,602.876 306.332,603.008C302.557,603.945 297.919,604.381 294.153,605.553L290.152,605.553C288.416,606.004 286.024,606.199 284.237,606.645C282.336,607.118 279.669,606.467 278.496,606.1L273.277,606.1C272.779,605.977 271.43,605.698 270.667,605.918C270.214,606.049 268.989,606.327 268.405,606.462L265.796,606.462C264.946,606.734 262.572,607.217 261.62,607.19C260.726,607.165 259.912,606.879 259.359,607.008C256.143,607.754 253.935,609.653 250.835,610.643L244.398,610.643C242.268,611.173 240.665,611.815 239.004,612.641C239.294,614.818 240.127,616.694 240.57,618.639L240.57,621.549C240.614,621.707 241.097,622.404 241.091,622.639C241.083,622.984 240.633,623.177 240.57,623.366C240.456,623.706 241.252,630.96 241.266,631.001C242.134,633.572 244.097,635.802 244.919,638.271C245.319,639.472 245.074,640.462 245.441,641.724C245.902,643.311 246.704,645.208 247.181,646.813C247.238,647.722 247.297,648.63 247.354,649.539C248.222,652.474 248.573,655.855 248.572,659.899L248.572,662.988C248.331,664.072 247.765,665.076 247.528,666.078C246.771,669.285 248.785,671.506 248.05,674.803C247.196,678.631 245.136,681.265 243.353,684.073C242.962,684.688 242.906,685.46 242.483,686.072C241.964,686.821 241.114,687.682 240.743,688.617C239.58,691.54 239.494,694.999 238.482,698.068C238.424,699.885 238.366,701.703 238.308,703.52C237.907,704.84 236.958,706.207 236.568,707.519C235.582,707.64 234.596,707.76 233.61,707.881C233.676,707.051 233.757,707.326 233.436,706.791C233.887,706.637 235.119,706.691 235.523,706.429C237.308,705.444 236.869,701.795 237.263,699.158C237.595,696.947 238.221,692.264 239.177,689.345C240.916,684.031 245.471,680.796 246.832,674.986C247.621,671.617 245.644,668.771 246.484,665.353C246.729,664.363 247.277,663.39 247.528,662.264C248.106,659.673 247.364,654.868 246.832,653.175C246.774,652.267 246.716,651.359 246.658,650.449C245.924,647.881 245.241,644.901 244.397,642.634C243.898,641.296 244.152,639.761 243.701,638.453C242.86,636.016 240.859,633.764 240.047,631.183C239.989,629.366 239.931,627.549 239.873,625.729C239.668,625.034 239.267,623.844 239.177,622.823C239.009,620.915 239.854,619.897 239.351,618.279C238.107,614.28 236.872,610.589 235.175,607.01C234.207,604.968 232.397,603.418 231.522,601.194C229.55,601.648 229.29,604.624 228.564,606.465C226.878,610.747 225.894,615.517 224.389,620.278C222.261,627.01 220.753,635.325 219.17,642.452C218.912,643.614 219.636,644.776 219.866,645.541C220.225,646.739 221.07,653.887 220.562,655.538C220.27,656.486 219.291,657.498 218.997,658.446C218.881,660.567 218.765,662.686 218.648,664.807C218.452,665.305 217.716,665.824 217.431,666.26C216.979,666.953 216.427,668.405 216.213,669.17C216.387,671.168 216.561,673.167 216.735,675.167C216.477,676.059 215.764,677.092 215.517,678.074L215.343,680.801C214.756,682.635 213.091,684.408 212.211,686.072C211.934,686.596 212.148,687.755 211.863,688.255C211.821,689.748 212.089,690.255 212.906,690.799C212.848,691.464 212.79,692.13 212.733,692.798L212.559,692.798C212.357,692.38 212.176,692.194 212.037,691.708C211.169,692.239 210.728,695.913 210.297,697.159C209.222,700.273 208.219,703.763 207.339,706.973C206.734,709.184 206.721,711.115 206.121,713.336C204.9,717.856 203.808,722.764 202.468,726.965C201.942,728.613 201.885,730.112 201.25,731.692C199.646,735.678 197.518,739.74 195.856,743.688C194.181,747.67 192.38,753.667 189.942,756.774C188.906,758.092 181.739,758.8 179.155,758.045C178.754,757.928 177.951,757.434 177.589,757.318L171.152,757.318C170.264,757.07 168.913,756.068 167.673,756.409C165.967,756.879 164.868,759.096 163.497,760.045C162.735,760.572 161.522,760.43 160.54,760.772C160.516,760.827 160.492,760.888 160.466,760.952C159.627,760.884 158.839,760.022 158.405,759.405C158.288,759.239 158.137,759.145 157.977,759.104C157.891,758.955 157.814,758.791 157.755,758.592L157.755,757.319C157.538,756.411 157.104,755.291 156.884,754.411C156.138,751.404 156.275,748.206 155.667,745.325L155.667,739.87C155.216,737.7 155.989,734.636 155.493,732.237C154.998,729.854 155.193,725.964 155.144,723.512C155.105,721.571 155.312,719.157 154.97,717.514L154.97,710.608C154.556,708.609 154.968,706.191 154.97,704.066L154.97,699.522C155.214,698.346 155.469,695.707 155.144,694.251C154.568,691.666 154.421,688.85 153.753,686.071C152.866,682.386 151.956,677.529 152.882,672.985C152.94,670.804 152.999,668.623 153.057,666.441C154.308,660.425 153.031,653.019 154.275,646.994L154.275,643.541C154.474,642.584 154.202,640.909 154.448,639.726C154.947,637.33 155.133,632.219 154.622,629.729L154.622,625.548C154.593,621.612 154.714,616.194 153.23,613.551C151.053,609.678 147.998,607.973 143.139,606.828C139.66,606.707 136.18,606.584 132.701,606.464C129.395,605.011 126.089,603.557 122.784,602.102C122.294,599.971 121.756,597.584 121.219,595.196C120.924,593.887 121.289,592.221 120.697,591.198C120.68,584.827 132.405,590.266 136.007,587.38C136.857,587.063 137.866,585.521 137.572,584.109C137.497,583.751 137.079,583.257 137.225,582.657C137.496,581.533 138.914,581.196 139.312,580.294L139.312,577.931C139.512,577.295 140.35,576.721 140.53,576.114C140.817,575.141 140.044,574.259 140.008,573.025C141.217,571.826 142.661,571.012 144.183,570.116C144.383,569.326 144.554,568.577 144.531,567.389C143.299,566.153 142.147,564.562 140.703,563.574C140.747,560.577 141.98,558.141 140.877,555.577C140.494,555.411 140.229,555.29 139.759,555.236C139.852,555.087 139.882,554.895 139.804,554.671C139.616,554.126 139.198,553.847 138.74,553.539C138.534,553.401 138.371,553.099 138.182,552.821C139.206,551.692 140.222,550.553 141.225,549.395C142.047,548.45 143.291,547.699 144.009,546.67C145.07,545.147 145.792,543.512 146.793,541.944C149.1,538.327 151.623,534.656 153.926,531.038C155.174,529.08 156.198,526.137 157.927,524.678C157.671,524.226 157.969,524.465 157.405,524.313C156.729,524.979 155.619,525.065 154.796,525.587C153.233,526.577 151.546,527.441 149.924,528.494C144.733,531.869 140.226,536.097 136.702,541.217C130.673,549.977 125.771,560.168 119.827,569.026C119.152,570.032 118.358,571.457 117.518,572.858C117.48,572.862 117.443,572.866 117.403,572.876C116.296,573.165 115.584,574.087 114.778,574.834C114.358,575.223 113.908,575.578 113.455,575.93C112.48,576.386 111.801,577.199 110.955,577.75C108.779,579.165 106.436,580.497 103.648,581.203C101.933,581.638 99.523,580.417 98.429,579.932C97.488,579.514 96.439,579.436 95.645,578.84C94.852,578.244 94.549,576.511 94.079,575.569C92.67,572.745 91.845,569.653 90.6,566.481C90.318,565.763 89.849,565.063 89.73,564.118C87.316,564.775 85.341,567.524 83.989,569.39C82.677,571.198 80.578,572.491 79.291,574.296C77.257,577.152 75.916,580.056 74.246,583.385C73.489,584.892 72.243,586.528 71.985,588.472L71.114,588.291C70.213,589.24 68.826,589.64 67.808,590.473C66.162,591.819 65.954,594.32 64.85,596.289C64.242,597.371 62.901,598.097 62.415,599.196C61.097,602.174 59.783,610.73 60.849,614.463C61.475,616.654 62.766,618.899 63.459,621.006C63.574,622.217 63.691,623.43 63.807,624.641C64.582,627.965 64.669,631.318 65.547,634.639C66.147,636.907 66.218,639.499 66.939,641.909C67.759,644.649 69.395,647.405 70.592,649.905C71.004,650.764 72.48,653.861 71.636,655.176C71.658,659.001 70.785,656.659 69.201,658.085C68.263,658.929 67.769,660.386 66.765,661.173C65.442,662.213 64.114,663.068 62.764,664.083C59.229,666.741 55.722,669.536 52.151,672.261C51.687,672.808 51.223,673.353 50.759,673.898C48.539,675.65 46.673,677.719 44.496,679.533C43.925,680.007 43.552,680.91 43.104,681.531C42.582,682.015 42.06,682.501 41.538,682.986C41.053,683.657 40.702,684.392 40.146,684.985C39.516,685.658 38.515,685.946 37.884,686.621C37.255,686.459 37.352,686.51 37.188,685.894C35.24,685.64 34.735,686.306 33.535,687.165C33.138,688.771 32.949,690.344 34.231,691.164L34.231,691.527C32.732,691.201 30.54,691.279 29.186,690.619C27.651,689.87 25.391,685.551 22.053,688.074C19.438,688.068 20.626,688.555 19.443,689.528C18.972,689.916 18.181,690.142 17.703,690.437C17.704,691.928 18.389,693.071 18.225,693.89C18.05,694.763 17.336,695.908 17.703,697.343C18.4,700.07 20.226,701.69 21.53,703.704C22.245,704.809 22.36,706.215 23.096,707.34C23.618,707.763 24.14,708.189 24.662,708.611C26.295,710.936 27.197,711.378 30.229,712.246C31.196,712.522 32.871,713.224 34.405,712.792C36,712.346 37.95,711.008 38.58,709.521C39.081,708.339 39.256,706.474 40.146,705.705C40.746,705.184 41.367,705.27 42.233,704.977C47.047,703.347 49.071,706.342 51.976,708.249C51.57,709.822 51.164,711.397 50.758,712.974C50.642,714.429 50.526,715.883 50.41,717.335C49.99,718.585 48.812,720.192 48.149,721.335C47.538,722.386 47.377,723.56 46.756,724.606C45.581,726.589 44.117,728.629 42.929,730.604C41.83,732.429 41.503,734.606 40.493,736.6C39.496,738.572 37.976,740.646 36.84,742.598C34.088,747.327 33.274,752.955 29.881,757.139C29.051,758.162 27.472,758.72 26.402,759.502C23.54,761.59 21.228,764.123 18.747,766.59C18.038,767.296 17.208,767.707 16.659,768.588L16.494,768.588L16.494,768.584Z"/>
            <path d="M37.37,687.887C36.525,688.511 36.142,689.634 35.283,690.25L35.283,690.432C34.814,690.264 34.773,690.119 34.413,689.887C34.3,689.574 34.378,689.708 34.239,689.523C34.292,688.427 34.596,688.083 34.935,687.343C35.305,687.249 35.564,687.179 35.805,686.979C36.646,687.166 36.525,687.534 37.37,687.706L37.37,687.887Z" style="fill:white;"/>
            <path d="M74.601,602.465C72.893,606.709 70.168,610.479 68.512,614.642C67.847,616.313 67.686,618.616 67.294,620.276C67.131,620.967 67.383,622.047 67.468,622.458C67.409,623.123 67.352,623.79 67.294,624.456C67.626,626.272 68.361,628.679 68.859,630.273C69.614,632.682 69.651,634.986 70.425,637.361C70.912,638.854 71.944,640.268 72.687,641.542C73.367,642.708 73.57,644.011 74.252,645.177C75.131,646.679 77.852,650.907 77.905,652.811C77.408,652.745 77.154,652.692 76.861,652.447L72.86,652.447C72.456,652.15 71.423,648.804 71.121,648.085C70.278,646.082 68.91,643.981 68.164,641.906C67.815,639.845 67.468,637.785 67.12,635.726C66.361,632.765 65.904,629.503 65.206,626.455C65.032,624.638 64.857,622.821 64.684,621.003C64.048,618.632 62.62,616.243 61.901,613.915C61.1,611.323 61.909,605.047 62.596,602.646C62.822,601.856 63.168,600.143 63.64,599.374C64.141,598.561 65.218,598.049 65.728,597.194C66.468,595.95 66.893,594.276 67.468,593.014L67.642,593.014L67.642,592.832C68.082,593.494 67.874,594.291 68.164,595.193C69.245,598.563 70.478,602.35 74.601,602.465Z" style="fill:white;"/>
            <path d="M130.794,606.826C130.53,608.657 129.487,609.927 128.88,611.369C127.688,614.203 126.311,616.802 125.227,619.547C124.042,622.549 122.924,625.957 122.095,628.998C121.055,632.811 121.024,637.031 120.182,640.813C120.123,641.842 120.066,642.873 120.007,643.902C119.116,647.885 118.519,652.928 118.615,657.533C116.046,657.52 113.354,657.681 111.135,657.172L103.479,657.172C100.267,656.863 96.435,656.768 93.563,656.082C91.911,655.686 90.618,656.157 88.866,655.717C87.531,655.381 85.857,655.187 84.517,654.627C83.404,654.162 82.17,653.414 80.689,653.354C80.529,652.09 79.746,652.088 79.297,651.174C78.314,649.169 77.504,646.942 76.688,644.994C73.842,638.201 70.956,632.264 69.208,624.455C68.854,622.878 69.306,620.748 69.555,619.547C69.904,617.877 69.531,616.549 70.077,615.186C71.638,611.293 75.275,606.93 76.166,602.646C80.089,602.781 84.195,600.985 87.474,599.739C91.053,598.378 94.748,597.744 97.739,595.74C102.525,592.53 106.728,588.578 111.135,585.016C111.599,584.411 112.062,583.803 112.526,583.198C114.286,581.803 115.721,579.964 117.164,578.2C118.25,577.296 119.287,576.337 120.182,575.226C120.629,574.67 121.075,574.09 121.425,573.462C121.648,573.231 121.863,572.991 122.068,572.744C123.662,570.818 125.096,568.76 126.638,566.792C127.641,565.512 128.503,564.2 128.951,562.685C129.603,561.983 130.231,561.258 130.794,560.479C131.896,559.389 132.998,558.299 134.099,557.208C135.136,556.126 136.157,555.033 137.17,553.932C137.306,554.156 137.433,554.386 137.638,554.548C137.807,554.681 137.98,554.801 138.159,554.921C138.174,554.931 138.201,554.952 138.232,554.977C138.19,554.994 138.148,555.012 138.1,555.028C138.318,555.465 138.808,555.777 138.97,556.119C139.518,557.284 138.819,559.965 138.795,561.57C136.517,561.621 133.504,562.584 131.663,562.117C131.504,562.611 131.287,562.896 130.967,563.206L130.967,563.571C133.519,563.266 136.07,562.965 138.621,562.662L138.621,562.844L138.795,562.844C138.379,564.86 137.588,567.865 137.925,569.75L138.447,569.932C138.575,569.774 138.666,569.727 138.794,569.569C139.681,568.381 139.231,565.951 140.012,564.662L140.012,564.481L140.186,564.481C140.774,565.411 141.602,565.985 142.447,566.661C142.897,567.021 143.096,567.694 143.491,568.115C143.451,568.536 143.457,568.628 143.317,568.843C142.736,570.421 139.859,570.448 139.142,572.478C138.6,573.201 138.683,574.873 139.316,575.385C139.136,576.341 138.505,576.504 138.272,577.204L138.272,579.565C137.882,580.479 136.516,580.874 136.185,581.928C136.243,583.018 136.301,584.11 136.358,585.199C136.264,585.521 135.832,585.977 135.663,586.289C133.935,587.021 131.716,587.791 129.225,587.198C127.888,586.881 125.557,586.161 123.659,586.652C121.977,587.089 120.753,588.165 119.483,589.015C119.502,590.746 120.116,597.494 120.701,598.466L120.701,599.012C117.333,597.546 112.922,596.869 109.392,595.741C107.72,595.205 105.136,595.462 103.825,594.468C102.419,594.433 103.085,594.256 102.607,593.197C100.885,593.546 100.128,595.646 99.301,597.013C97.054,600.731 95.252,601.973 97.735,607.192C98.036,607.309 97.906,607.227 98.083,607.374C99.258,607.395 99.573,607.186 99.997,606.465L100.345,606.465C99.83,607.816 97.891,613.449 98.953,614.826L98.953,615.188C99.856,615.397 100.802,615.42 101.389,614.826L101.563,614.826C101.077,616.05 100.61,618.076 99.649,618.825C98.891,619.414 97.777,619.485 97.387,620.46C97.247,620.647 97.323,620.504 97.213,620.823C97.484,621.03 97.354,621.024 97.734,621.186C99.083,621.775 101.158,618.891 101.735,617.733C103.853,613.492 104.503,609.067 105.736,603.739C106.195,601.758 105.778,598.053 105.04,597.013L105.04,596.287C105.926,596.616 107.017,596.527 107.998,596.83C110.6,597.641 113.712,598.35 116.349,599.194C117.847,599.673 119.809,599.695 120.872,600.648C121.707,601.185 121.598,602.794 122.438,603.375C124.67,604.919 128.364,605.151 130.44,606.828L130.794,606.828L130.794,606.826Z" style="fill:white;"/>
            <path d="M103.829,598.465L103.829,598.283L104.177,598.283C104.253,601.62 104.454,608.23 103.133,610.461C102.843,610.643 102.553,610.823 102.263,611.007C102.054,611.461 102.288,612.131 102.09,612.46C101.856,613.158 101.208,613.54 100.524,613.732C100.337,613.869 100.363,613.845 100.003,613.914C100.066,609.794 101.875,606.559 102.787,603.191C103.29,601.324 102.798,599.654 103.829,598.465Z" style="fill:white;"/>
            <path d="M100.871,603.373L100.871,603.736C99.517,602.859 101.874,596.887 101.915,595.193C102.575,595.444 102.523,595.767 103.307,595.92C103.152,597.551 102.144,598.336 101.741,599.738C101.332,601.158 101.7,602.478 100.871,603.373Z" style="fill:white;"/>
            <path d="M99.653,604.645C99.511,605.403 99.277,605.411 98.957,605.918L98.608,605.918C97.205,602.773 98.032,601.337 99.478,598.828C100.222,600.29 98.265,603.09 99.653,604.645Z" style="fill:white;"/>
            <path d="M163.677,761.76C162.961,762.075 162.324,762.41 161.935,762.77C160.99,762.764 160.69,762.643 160.562,762.451C161.009,762.436 161.389,762.231 161.849,762.138C162.47,762.01 163.073,761.944 163.677,761.76Z" style="fill:white;"/>
            <path d="M224.218,702.79C223.076,702.318 221.552,702.043 220.565,701.338C220.031,700.955 219.777,700.206 219.347,699.701C217.039,696.995 214.664,694.902 213.084,691.34C215.28,691.98 216.384,694.194 217.607,695.883C218.232,696.748 219.198,697.227 220.043,697.884C221.5,699.015 223.281,701.135 224.218,702.79Z" style="fill:white;"/>
            <path d="M229.786,705.699C228.65,706.285 224.936,703.672 224.393,702.79C224.909,703.098 225.638,703.67 226.132,703.883L227.35,704.064C228.187,704.502 228.769,705.381 229.786,705.699Z" style="fill:white;"/>
            <path d="M232.917,706.607C232.618,706.769 232.694,706.767 232.395,706.607L232.917,706.607Z" style="fill:white;"/>
            <path d="M151.02,773.793C151.271,773.445 151.239,772.992 151.498,772.584C152.006,771.778 153.243,771.555 153.76,770.766C154.272,769.985 154.322,769.028 154.804,768.223C155.616,767.314 156.428,766.405 157.239,765.496C159.928,763.391 162.537,763.207 165.938,761.678C166.907,761.243 167.828,760.379 168.895,760.043C168.953,759.86 169.011,759.68 169.069,759.498L168.895,759.498C168.862,759.434 167.751,759.993 167.33,760.225C166.537,760.663 165.196,761.118 164.003,761.621C164.27,761.434 164.35,761.116 164.288,760.831C165.623,759.839 167.146,758.284 167.852,757.5C168.795,757.635 169.478,758.021 170.287,758.226L176.55,758.226C177.236,758.412 178.138,758.943 178.812,759.134C180.884,759.726 188.434,758.989 189.598,758.409C192.426,756.995 194.805,749.018 196.21,745.685C198.104,741.192 200.483,736.606 202.299,732.053C202.867,730.627 202.871,729.35 203.342,727.872C204.31,724.844 205.235,721.496 206.126,718.239C206.731,716.027 206.74,714.097 207.344,711.879C208.37,708.111 209.344,704.142 210.476,700.609C211.161,698.474 211.429,694.982 212.564,693.34C213.345,693.519 213.848,695.448 214.478,696.429C215.608,698.19 217.619,699.303 218.827,700.972C219.14,701.406 219.282,701.943 219.697,702.245C221.624,703.641 224.615,704.037 226.83,705.152C227.966,705.723 228.992,707.032 230.309,707.515C231.068,707.791 231.823,707.501 232.396,707.877L232.57,707.877C232.407,708.179 232.253,708.531 232.101,708.9C232.258,709.074 232.386,709.267 232.488,709.476C232.761,709.064 233.027,708.691 233.265,708.423L233.265,708.241L233.44,708.241C233.166,710.049 232.145,711.481 231.526,712.966C230.275,715.967 229.085,718.879 227.952,721.863C227.329,722.613 226.707,723.362 226.085,724.112C220.589,733.146 214.041,742.784 209.257,752.407C207.024,756.897 205.02,761.307 202.472,765.311C202.006,766.04 200.679,768.911 200.21,769.308C197.921,771.252 191.32,773.083 188.031,774.036C186.872,774.156 185.712,774.277 184.552,774.397C184.282,774.489 184.042,774.647 183.816,774.829C183.637,774.817 183.45,774.866 183.28,775.009C182.483,775.675 182.295,776.519 182.376,777.519C182.398,777.806 182.545,778.39 182.306,778.641C180.665,778.14 177.891,777.324 176.375,777.852C175.909,778.014 174.871,778.627 173.753,779.204C173.684,779.189 173.611,779.182 173.528,779.189C172.645,779.267 171.547,779.851 170.579,779.896C170.491,779.76 170.389,779.633 170.288,779.521C170.286,779.519 170.283,779.516 170.281,779.513C173.742,777.214 176.496,774.289 180.029,772.034C179.959,771.662 179.985,771.686 179.855,771.491C178.836,772.52 177.195,772.79 176.027,773.671C173.849,775.318 171.914,777.432 169.484,778.899C169.401,778.863 169.317,778.836 169.231,778.82C169.175,778.81 169.119,778.806 169.064,778.806C168.93,778.695 168.851,778.597 168.722,778.398L166.634,778.398C166.186,778.814 165.437,778.785 164.894,779.124C163.599,779.938 161.833,781.113 160.868,782.375C159.938,782.199 159.253,779.939 158.653,778.77C159.087,778.217 159.506,777.682 159.974,777.189C160.624,776.697 161.307,776.165 162.015,775.635C163.622,774.76 165.415,773.956 167.108,773.283C167.498,773.129 167.638,772.76 167.596,772.428C167.624,772.42 167.652,772.409 167.679,772.401C167.489,772.035 167.668,772.186 167.492,772.116C167.347,771.864 167.074,771.713 166.714,771.856C164.846,772.596 162.748,773.439 161.033,774.483C159.439,775.452 158.489,776.643 157.375,778.02C157.111,778.084 156.855,778.222 156.631,778.374C156.602,778.382 156.574,778.393 156.545,778.399C156.55,778.408 156.557,778.415 156.562,778.422C156.487,778.476 156.416,778.529 156.35,778.582C156.264,778.652 156.172,778.723 156.08,778.794C155.048,778.959 154.401,779.657 153.84,780.306C153.788,780.336 153.737,780.366 153.687,780.395C153.583,780.389 153.494,780.385 153.414,780.379C152.959,779.784 152.907,779.02 153.054,778.268C153.23,778.029 153.47,777.858 153.762,777.672C153.765,777.281 153.767,776.932 153.697,776.66C154.314,775.8 155.287,775.384 156.221,774.79C156.6,774.549 156.633,774.139 156.479,773.823C157.479,773.201 158.546,772.649 159.33,772.035C160.827,770.864 161.522,768.218 163.331,767.13C164.691,766.311 168.789,765.029 169.594,764.039L169.768,764.039C169.539,763.599 169.849,763.91 169.42,763.677C167.541,765.231 164.464,765.178 162.461,766.584C161.079,767.555 160.163,769.372 159.155,770.764C158.692,771.405 157.304,772.459 155.96,773.404C155.809,773.378 155.643,773.403 155.473,773.51C154.35,774.225 153.321,774.809 152.592,775.701C152.228,775.552 151.865,775.38 151.629,775.108C151.319,774.758 151.261,774.21 151.02,773.793Z" style="fill:white;"/>
            <path d="M134.274,690.432C134.042,687.948 133.81,685.463 133.578,682.981C133.68,682.449 134.139,681.365 134.274,680.799C134.332,678.982 134.39,677.164 134.448,675.347C134.694,674.236 134.903,672.643 135.144,671.53C135.086,668.259 135.028,664.987 134.97,661.716C136.256,656.406 137.596,651.23 139.493,646.448C140.604,643.649 142.197,640.45 142.799,637.361C142.528,637.154 142.657,637.161 142.277,636.999C142.098,636.851 142.234,636.931 141.929,636.815C140.416,638.629 140.094,641.696 139.146,644.086C137.599,647.982 136.441,651.697 135.145,656.082C134.822,657.172 134.333,658.379 134.275,659.717C131.208,659.676 128.973,659.362 126.794,658.808C125.925,658.747 125.054,658.687 124.185,658.624C123.236,658.348 122.093,657.853 120.879,657.716C122.216,653.777 121.688,648.842 122.793,644.448C124.332,638.336 125.427,631.556 127.143,625.726C127.607,623.546 128.071,621.365 128.535,619.185C129.379,616.871 130.892,614.52 131.84,612.278C132.436,610.871 132.815,609.007 133.58,607.734C133.259,607.52 132.338,607.576 132.014,607.371L131.666,607.371L131.666,607.189C137.536,607.884 145.134,607.489 149.063,610.279C150.976,611.636 152.566,614.569 153.239,617.186C153.297,620.033 153.355,622.88 153.413,625.726C154.02,628.671 153.998,635.775 153.413,638.631C152.913,641.071 153.517,643.696 153.065,645.902C152.948,649.173 152.833,652.447 152.717,655.716C152.327,657.608 152.582,660.196 152.195,662.077L152.195,665.348C151.787,667.328 152.299,669.692 151.846,671.892C150.819,676.885 151.747,682.748 152.717,686.795C153.383,689.573 153.534,692.389 154.109,694.973C154.294,695.805 154.047,697.151 153.935,697.702C153.503,699.811 154.146,702.541 153.761,704.425C153.392,706.227 153.617,710.706 153.935,712.24L153.935,715.693C153.935,718.837 153.686,723.352 154.283,726.235L154.283,734.415C154.915,737.473 153.979,741.45 154.631,744.593C155.641,749.466 155.227,755.201 157.067,759.316C157.089,759.341 157.11,759.367 157.132,759.392C156.976,759.595 156.935,759.869 157.133,760.15C157.678,760.925 158.363,761.614 159.196,762.046C159.276,762.175 159.373,762.296 159.503,762.404C159.175,763.325 155.841,765.497 154.98,766.403C154.104,767.325 153.874,768.653 153.241,769.856C152.834,770.629 151.982,770.78 151.327,771.311C150.819,771.721 150.691,772.602 150.284,773.127C149.896,773.508 149.203,772.365 148.891,772.035C147.428,770.492 147.1,767.91 146.282,765.675C145.414,763.307 143.956,761.369 143.324,758.949C142.977,757.62 144.306,756.724 144.02,756.043C142.555,752.545 140.561,746.156 140.193,741.865C139.892,741.983 140.023,741.901 139.845,742.048C138.811,740.637 139.259,737.617 138.801,735.686C137.791,731.421 137.693,726.566 136.714,722.237C136.598,720.843 136.483,719.451 136.366,718.057C135.578,714.577 135.806,710.641 134.974,706.969C133.809,701.844 133.249,695.718 134.274,690.432Z" style="fill:white;"/>
            <path d="M71.992,685.525C72.019,685.328 72.968,682.846 73.523,681.488C73.593,681.51 73.665,681.525 73.741,681.525C74.15,681.525 74.474,681.189 74.482,680.785C74.482,680.755 74.494,680.68 74.498,680.65C74.503,680.625 74.508,680.601 74.515,680.578C74.519,680.566 74.526,680.551 74.533,680.534C74.541,680.517 74.552,680.503 74.561,680.486C74.584,680.488 74.607,680.486 74.631,680.488C74.73,680.498 74.824,680.479 74.912,680.442C74.983,680.505 75.054,680.564 75.124,680.617C74.909,681.282 74.239,682.554 73.732,682.98C74.428,684.979 75.124,686.978 75.82,688.976C76.458,689.951 78.011,690.47 78.951,691.158C81.438,692.98 84.892,694.129 88.346,694.974C90.201,695.158 92.058,695.339 93.913,695.52C96.328,696.093 100.999,696.291 103.656,695.702L108.353,695.702C111.774,695.461 115.196,695.219 118.617,694.974C119.795,694.706 121.253,694.931 122.618,694.611C124.59,694.249 126.561,693.884 128.533,693.521C129.568,693.379 131.567,692.675 132.361,693.157C132.711,692.693 132.701,691.607 132.882,690.977L133.056,690.977C132.83,691.624 132.652,693.81 133.056,694.43C132.999,694.611 132.941,694.792 132.882,694.974C132.582,695.093 132.712,695.011 132.534,695.158C132.402,694.961 132.424,694.988 132.36,694.611C128.881,695.218 125.401,695.822 121.922,696.429L119.834,696.429C117.377,696.99 114.298,696.774 111.831,697.337L107.83,697.337C106.025,697.745 103.484,697.4 101.393,697.519C95.396,697.867 89.101,697.244 84.518,695.52C82.894,695.035 81.27,694.55 79.646,694.066C79.001,693.668 74.713,690.519 74.427,690.068C73.542,688.674 73.653,686.617 72.688,685.341C72.42,685.347 72.532,685.388 72.166,685.706C72.006,685.51 72.18,685.689 71.992,685.525Z" style="fill:white;"/>
            <path d="M61.379,675.527C61.108,675.321 61.238,675.327 60.857,675.165C60.679,675.018 60.815,675.098 60.509,674.982C60.33,675.13 60.467,675.05 60.162,675.165C59.188,679.394 57.789,683.829 56.508,687.887C55.792,690.155 55.655,692.185 54.942,694.431C53.805,698.011 52.395,702.475 52.332,706.971C51.021,706.158 49.28,704.179 47.983,703.7C45.757,702.879 41.266,703.395 39.806,704.427C38.227,705.542 38.278,708.032 37.196,709.698C35.853,711.766 32.144,712.048 29.542,710.97C25.438,709.272 24.838,706.637 22.583,703.155C21.378,701.296 19.687,699.708 18.929,697.339C18.358,695.555 20.149,693.229 18.755,691.706C19.002,690.62 20.45,690.118 21.017,689.161C22.671,689.153 24.228,688.332 25.714,688.977C27.037,689.554 27.597,691.262 29.019,691.886C30.156,692.383 32.317,691.928 33.368,692.614C35.466,692.579 36.101,690.804 37.022,689.523C38.672,687.228 41.034,685.737 42.763,683.344C44.373,681.117 46.712,679.036 48.853,677.346C50.182,676.297 51.168,674.569 52.506,673.53C54.938,671.638 57.382,669.683 59.812,667.895C63.254,665.364 67.621,662.885 69.903,659.17C70.425,659.049 70.947,658.929 71.469,658.808C71.873,661.684 73.311,664.116 74.078,666.805C74.136,668.803 74.194,670.803 74.252,672.803C74.71,674.432 75.074,677.475 74.142,679.051C73.429,679.252 73.012,680.043 72.998,680.785C72.994,680.985 73.079,681.169 73.214,681.304C71.8,684.075 70.063,686.584 68.511,689.16C67.783,690.365 67.376,691.633 66.597,692.795C66.178,693.42 65.421,693.955 65.032,694.611C63.662,696.928 63.036,699.391 61.552,701.518C60.683,702.367 59.812,703.214 58.944,704.063C58.528,704.794 58.523,705.417 58.073,706.062C57.392,707.039 56.375,707.777 55.638,708.788C55.02,709.637 53.821,709.944 53.202,710.789L53.027,710.789C54.138,701.62 56.072,693.278 58.594,685.342C59.576,682.258 60.793,678.854 61.379,675.527Z" style="fill:white;"/>
        </g>
    </g>
</svg>
