<?xml version="1.0" encoding="UTF-8" standalone="no"?>
<!DOCTYPE svg PUBLIC "-//W3C//DTD SVG 1.1//EN" "http://www.w3.org/Graphics/SVG/1.1/DTD/svg11.dtd">
<svg width="100%" height="100%" viewBox="0 0 150 164" version="1.1" xmlns="http://www.w3.org/2000/svg" xmlns:xlink="http://www.w3.org/1999/xlink" xml:space="preserve" xmlns:serif="http://www.serif.com/" style="fill-rule:evenodd;clip-rule:evenodd;stroke-linejoin:round;stroke-miterlimit:1.41421;">
    <g transform="matrix(1,0,0,1,-351.791,-516.011)">
        <path d="M454.4,520.8C454.4,520.8 454.1,517.1 455.1,516.4C456.1,515.7 456.6,516.1 456.6,516.4C456.6,516.7 455.7,517.9 455.7,518.7C455.7,519.5 455.8,521.3 455.8,521.3L457.3,522.2C457.3,522.2 458,521.4 458.1,520.7C458.2,520.1 459.1,520.6 459.1,521.4C459.1,522.2 458.3,523.6 458.6,524.6C458.9,525.6 459.4,526.6 459.3,529C459.2,531.4 459.3,536.2 460,539.7C460.7,543.2 460.1,545.1 461.3,546.3C462.5,547.5 463.9,548 466.4,549C468.9,550 471.5,551.4 472.3,551.7C473.1,552.1 474,552.1 474.3,552.1C474.6,552.1 476.2,551.7 476.2,551.7C476.2,551.7 477.3,547.4 476.8,546.5C476.3,545.6 474.6,544.7 474.5,544.1C474.4,543.5 475.1,541.8 475.3,541C475.5,540.2 475.2,539.7 475.5,539.2C475.8,538.7 476,538.2 476,538.2C476,538.2 475.7,537.6 476.2,537.2C476.7,536.8 477.7,536.2 477.8,535.7C478,535.2 478.3,533.7 479,533C479.7,532.3 481.2,530.5 484,531.3C486.8,532.1 490.2,534 491.2,536.5C492.2,539 491.7,542.3 491.7,542.3C491.7,542.3 494.2,544.2 492.6,546.9C491,549.6 488.3,548.5 488.2,547.8C488,547.1 487,545.4 487,545.4C487,545.4 486.5,545.3 485.9,546.9C485.3,548.4 484.4,550.5 484.4,551.3C484.5,552 486.8,553.3 487.4,555.9C487.4,555.9 487.5,562.2 487.9,562.9C488.4,563.6 490.2,568.5 491.7,571.2C493.2,573.7 494.4,578 494.5,578.3L490.2,571L492.7,578.1L490.2,572.6L491.4,577.3L489.6,573L491.5,579.2L489.1,574C489.1,574.2 490,578.1 490,580.9C490,583.8 489.9,585 490.3,586.2C490.7,587.4 493.9,590.4 493.6,595.5C493.2,600.6 491.6,602.6 492.3,605.5C493,608.4 494,609.3 495.3,610.5C496.5,611.6 499.5,614.5 499.7,614.8C499.4,614.6 494.5,611.3 493.7,610.1C492.9,608.9 491.3,606.6 491.2,606.4C491.3,606.6 492.2,609.9 493.2,611.2C494.2,612.5 497.2,614.9 497.4,615C497.2,614.9 493.5,613.1 492.7,612C491.9,610.9 490.3,607.5 490.2,607.3C490.3,607.6 491.3,611.9 492.4,612.8C493.4,613.8 494,615.1 494,615.2C493.9,615.1 491.7,612.9 491.1,611.6C490.5,610.3 489.2,608.3 489.1,608.2C489.2,608.4 490.3,612 491,613.2C491.7,614.3 493.2,617 493.3,617.2C493.2,617.1 491.2,615.5 490.5,614C489.8,612.5 488.3,610.1 488.3,610.1L489.7,615.1C489.6,614.9 487.8,611 487.8,611.5C487.8,612 488.4,614.8 488.4,614.8L486.8,611.7L487.3,615.6L486.5,614.4C486.5,614.4 485.9,620.7 486.2,621.8C486.6,623 488.2,625.4 489.1,626.7C490,628 494.6,635 495.5,639.4C496.4,643.8 499.1,652 499.4,652.9C499.7,653.8 501.2,654.8 501.4,655.8C501.6,656.8 500.5,657.9 500.5,658.4C500.5,658.9 501.2,662.7 501.2,662.7L500.3,663L499.4,659C499.4,659 498.8,658.4 497.9,659.5C497,660.7 496.5,662.9 495.6,663.9C494.7,664.9 493.3,665.8 491,665.7C488.6,665.6 486.7,665.8 487.1,665C487.5,664.2 487.9,663 488.6,663.3C489.2,663.6 489.2,663.6 490.4,662.9C491.6,662.3 493.3,659.7 492.9,656.2C492.5,652.7 492.5,651.5 491.3,648.8C490,646.1 486,638.7 484,634.2C481.9,629.7 478,627 477.3,623.6C476.6,620.2 476.3,614.3 477,612.4C477.6,610.7 477.6,609.3 477.9,608.7C477.7,609.1 478.3,609.3 474.7,610.9C470.2,612.9 467.9,614.2 465.2,615.5C462.5,616.9 459.9,619.5 460.2,620.4C460.5,621.3 462.5,624.1 463.2,630.6C463.9,637 464.4,646.1 464.4,646.1C464.4,646.1 465.3,646.6 465.9,647.9C466.4,649.2 468.5,649.7 468.3,651.4C468.1,653.1 467.1,653.1 467,654.9C466.9,656.7 467.3,658.3 467.3,658.3L466.2,658.5L465.4,655C465.4,655 463.5,655.7 463,656.8C462.5,657.9 462.2,659.6 459.9,660.9C457.6,662.2 453.5,663.1 453,663.2C452.5,663.3 451.4,662.6 452.1,661.6C452.8,660.6 454.3,660.2 455.3,658.1C456.3,655.9 457.9,650.8 457.9,650.1C457.9,649.5 457,641 455.3,635.5C453.6,630 449.8,618.2 450.3,616.9C450.8,615.6 453,611.5 454.7,609.8C456.3,608.1 463.3,602.3 465.5,600.3C467.7,598.3 471.1,593.6 471.1,592.2C471.1,590.8 470.9,589.1 470.9,589.1C470.9,589.1 470.1,591.7 469.4,592.8C468.7,593.9 466.5,595.5 466.3,595.6C466.4,595.5 467.8,593.8 468.5,592.8C469.2,591.7 469.9,589 469.9,589C469.9,589 468.5,590.5 467.8,592.2C467.1,593.9 465,596.1 464.9,596.3C465,596.1 466.1,593.3 466.9,591.9C467.7,590.5 468.8,588.7 469,588.5C468.8,588.7 467,590.5 466.1,591.8C465.2,593.1 464.2,594.4 464.1,594.5C464.2,594.3 465.5,590.9 466.4,590.1C467.3,589.2 467.9,587.7 467.9,587.7L462.9,593.3L467.1,587.2L464.1,589.6C464.1,589.6 470.9,582 470.3,579.6C469.7,577.2 470,573 469.3,571C468.6,569 467.4,565.7 468.3,563.8C469.2,561.9 471.9,559.4 471.9,559.4C471.9,559.4 465.2,556.9 462,554.6C458.8,552.3 456.4,550.2 455.8,549.2C455.3,548.1 455.3,539.1 455.5,535.8C455.8,532.4 456.7,530.5 456.2,529.5C455.7,528.5 455,528 454.3,527.4C453.6,526.9 453.7,526 451.7,526C449.7,526 448.4,526.1 448.4,526.1C448.4,526.1 447.9,524.8 448.9,524.7C449.8,524.6 454,524.6 454,524.2C454,523.8 451.5,523.8 450.5,523.7C449.6,523.6 449.4,522.5 450,522.5C450.6,522.5 452.1,522.5 452.1,522.5C452.1,522.5 451.7,522 451.5,521.3C451.2,520.6 451.4,519.8 452,520.4C452.6,520.9 453,521.7 453.6,521.8C454,521.3 454.4,520.8 454.4,520.8Z" style="fill:rgb(35,31,32);fill-rule:nonzero;"/>
        <path d="M448.5,559.5C448.5,559.5 448.6,560.7 449.1,561.8C449.6,562.9 449.9,564 450,564.5C450.1,565 450.2,566.6 450.2,566.6C450.2,566.6 450.7,566.1 452,566.3C453.3,566.5 452.5,568 451.8,568.1C451.1,568.2 450.4,568.3 449.4,568.8C448.4,569.3 447.5,570.3 447.5,570.3C447.5,570.3 448,571.7 448,572.5C448.1,573.3 447.8,575.9 447.8,575.9C447.8,575.9 443.4,574.1 442.7,574.7C442.1,575.3 441.6,576.2 440.9,576.1C440.2,576 440.2,574.3 438.6,575.5C437.1,576.7 439.1,576.2 434.9,577.2C430.7,578.2 429.4,579.2 426.7,578.9C424.1,578.6 421.2,577.1 419.1,576C417,574.9 416.4,573.5 414,573.4C411.6,573.2 409.8,572.4 408.6,573.6C407.4,574.8 402.2,586.9 401.9,591.5C401.6,596 401.4,600.2 402.7,603.6C404,607 406.1,615.1 408,621.7C409.9,628.3 409.5,631 410.3,632.9C411,634.7 414,642 415.3,645.8C416.6,649.6 419.2,654.1 420.8,660.3C422.4,666.5 422,669.1 422.2,670.4C422.4,671.7 422.5,674.2 422.5,674.2C422.5,674.2 424,674.3 423.5,675.5C423,676.7 421.9,676.8 419.4,677.7C417,678.6 416.3,679.4 414.8,679.2C413.3,679 412.4,678.6 412.6,677.8C412.8,677.1 413.1,676.4 413,676.2C412.9,675.9 411.1,669.5 409.6,664.6C408.1,659.7 403.2,644.1 402,640.8C400.8,637.5 397.1,626.6 394.7,621.3C392.3,616 390,612 388.3,612C386.7,611.9 383.9,620.6 382.2,627.5C380.5,634.4 377.3,643.5 376.4,647.9C375.5,652.3 373.3,662.1 372.8,665.5C372.3,668.9 371.7,671.2 371.5,673.9C371.3,676.5 371,678.5 371,678.5L368.6,678.1L368.5,679.5L364.1,679C364.1,679 363.6,677.4 362.6,677.2C361.5,677 360.6,678.7 359.3,678.6C358,678.4 354.2,678.3 352.8,677.7C351.4,677.1 351.3,674 353.5,674.2C355.8,674.4 358.7,672.8 359.4,670.8C360.1,668.7 362.1,660.5 362.6,658.6C363.1,656.8 366.4,635.6 367,631.1C367.6,626.7 369.4,616.2 370.8,611.4C372.3,606.6 374.7,599.6 374.7,599.6L370.2,602L370,596.6C370,596.6 369.7,597.3 368.7,597.6C367.7,597.9 366.1,598 366.1,598C366.1,598 367.5,597.1 368,596.3C368.5,595.5 368.4,594.6 368.4,594.6C368.4,594.6 366.7,594.5 366.7,591.9C366.7,589.3 367.1,588.6 367,585.9C366.9,583.2 367.7,580.6 367.7,580.3C367.7,579.9 374,571.9 375.8,568.4C377.6,564.9 379.4,560.6 382,559.8C384.5,559 387.1,558.2 388.4,557.5C389.7,556.9 390.3,556.7 391.8,555.6C393.2,554.5 394.2,553.6 394.6,552.2C395.1,550.7 395.6,548.6 395.4,547.5C395.2,546.4 392.4,543.3 393.6,538C394.8,532.6 397,530.4 402.8,531.3C408.5,532.2 410,535.4 410,536.7C410,538.1 409,539 409,539.8C409,540.6 409,541.2 409,542.2C409,543.1 408.5,544.1 408.5,544.9C408.5,545.7 408.9,545.8 408.2,547.4C407.6,549 406.6,550.8 406.1,551.8C405.6,552.8 405.4,553.3 405.1,553.6C404.8,554 403.6,554 403.6,554C403.6,554 403.6,554.5 403.6,555.3C403.6,556.1 404.1,557.1 404.6,557.5C405.1,557.9 409.9,558.2 413.1,561.4C416.4,564.6 421.4,569.5 424.4,570.6C427.4,571.7 429.3,571.1 432,571.5C434.7,571.9 435.9,572 437.6,571.9C439.3,571.8 441,571.3 441.9,570.4C442.8,569.5 443.8,568.1 444.4,567.9C444.9,567.6 445.6,567.4 445.6,567.4C445.6,567.4 445.7,567.5 446.1,566.1C446.6,564.7 445.9,562.7 446.1,562.2C446.3,561.7 447.1,561.6 447.1,561.6C447.1,561.6 446.9,560.5 447.6,559.8C448.2,558.5 448.5,559.5 448.5,559.5ZM382.8,580.8C383.3,578 382.6,571.3 382.6,571.3C382.6,571.3 381.1,573.1 380.2,573.9C379.4,574.6 379,576.7 378,577.6C377,578.5 376.8,580.6 376.2,582.1C375.6,583.6 375,584.3 374.3,585.8C373.6,587.2 374.3,588.8 374.4,591C374.5,593.2 376.4,594.4 376.4,594.4C376.4,594.4 378.3,589.7 380.2,587C382.1,584.3 382.3,583.6 382.8,580.8Z" style="fill:rgb(35,31,32);fill-rule:nonzero;"/>
    </g>
</svg>
