<?xml version="1.0" encoding="UTF-8" standalone="no"?>
<!DOCTYPE svg PUBLIC "-//W3C//DTD SVG 1.1//EN" "http://www.w3.org/Graphics/SVG/1.1/DTD/svg11.dtd">
<svg width="100%" height="100%" viewBox="0 0 61 17" version="1.1" xmlns="http://www.w3.org/2000/svg" xmlns:xlink="http://www.w3.org/1999/xlink" xml:space="preserve" xmlns:serif="http://www.serif.com/" style="fill-rule:evenodd;clip-rule:evenodd;stroke-linejoin:round;stroke-miterlimit:1.41421;">
    <g transform="matrix(1,0,0,1,-85.4676,-222.714)">
        <path d="M116.557,230.897C116.952,231.113 117.341,231.333 117.736,231.551C117.942,231.665 118.153,231.779 118.344,231.918C118.516,232.045 118.708,232.32 118.945,232.33C119.161,232.341 119.19,231.953 119.331,231.83C119.612,231.572 119.987,231.463 120.198,231.126C120.481,230.677 120.577,230.127 120.729,229.627C121.12,228.353 121.598,227.108 122,225.838C122.086,225.557 122.178,225.273 122.241,224.985C122.28,224.798 122.286,224.526 122.456,224.4C122.6,224.294 122.767,224.357 122.9,224.449C122.95,224.485 123.255,224.718 123.252,224.76L122.321,233.538C122.321,233.538 143.479,233.491 143.519,233.491C143.54,233.491 143.641,233.363 143.678,233.346C143.874,233.244 144.194,233.309 144.412,233.249C144.958,233.098 145.202,232.432 145.389,231.961C145.532,231.609 145.645,231.243 145.771,230.884C145.825,230.728 145.87,230.551 145.954,230.411C146.024,230.291 146.151,230.22 146.265,230.145C146.38,230.253 146.28,230.437 146.233,230.548C146.1,230.854 145.989,231.169 145.87,231.48C145.807,231.639 145.745,231.801 145.682,231.964C145.584,232.218 145.461,232.47 145.372,232.731C145.249,233.078 145.118,233.542 144.793,233.758C144.725,233.802 144.623,233.817 144.564,233.875C144.551,233.891 144.46,234.067 144.499,234.068L144.018,234.054L143.954,233.893C143.932,233.837 142.872,233.965 142.805,233.969C141.81,234.036 140.816,234.099 139.825,234.17C139.011,234.226 138.2,234.288 137.387,234.336C137.264,234.341 137.143,234.351 137.022,234.359L137.038,234.475L137.171,234.499L137.122,234.8L134.677,234.92C134.701,235.41 134.737,235.902 134.747,236.395C134.745,236.303 134.407,236.216 134.336,236.183C134.108,236.078 133.915,235.918 133.795,235.693C133.692,235.494 133.619,235.26 133.379,235.188C133.081,235.1 132.782,235.228 132.487,235.28C132.168,235.338 131.845,235.343 131.522,235.367C130.293,235.458 129.065,235.559 127.836,235.665C127.633,235.683 127.551,235.653 127.569,235.854C127.58,235.982 127.584,236.113 127.588,236.243C127.588,236.285 127.622,236.831 127.552,236.82C126.949,236.747 126.659,236.273 126.336,235.81C126.321,235.786 126.034,235.842 126.008,235.844C125.739,235.872 125.47,235.9 125.201,235.926C124.571,235.967 123.93,236.048 123.302,236.124C123.253,236.129 123.249,236.39 123.239,236.436C123.168,236.811 122.72,236.973 122.418,237.112C122.327,237.152 121.696,237.37 121.702,237.46L121.725,237.857C121.725,237.857 121.415,237.893 121.415,237.857C121.415,237.821 121.342,237.591 121.342,237.64C121.342,237.703 121.11,237.821 121.071,237.847C120.721,238.081 120.366,238.317 119.956,238.43C119.514,238.551 119.116,238.475 118.696,238.312C118.372,238.622 117.905,238.686 117.478,238.699C117.319,238.702 115.991,238.644 115.984,238.687C115.965,238.837 116.045,239.311 115.825,239.277C115.516,239.225 115.7,238.638 115.554,238.448C115.188,237.969 114.47,237.944 113.926,237.916C112.856,237.86 111.783,237.937 110.715,237.828C110.278,237.784 109.84,237.706 109.418,237.58C109.361,237.562 108.945,237.464 108.945,237.398C108.945,237.398 108.86,237.603 108.813,237.603C108.558,237.603 108.279,237.658 108.029,237.625C107.918,237.612 107.885,237.534 107.761,237.506C106.722,237.285 105.575,237.641 104.587,237.154C104.358,237.04 104.159,236.862 104.004,236.658C103.762,236.341 103.617,235.999 103.432,235.65C103.364,235.519 103.26,235.4 103.217,235.258C103.215,235.594 103.252,235.935 103.239,236.269C103.235,236.319 102.924,236.09 102.895,236.062C102.788,235.965 102.679,235.869 102.574,235.771C102.456,235.663 102.229,235.326 102.078,235.449C101.995,235.518 101.94,235.616 101.853,235.685C101.756,235.76 101.643,235.801 101.54,235.86C101.247,236.031 101.279,236.576 101.118,236.845C100.918,237.179 100.647,237.441 100.315,237.643C100.127,237.759 99.922,237.85 99.713,237.92C99.522,237.983 99.172,238.102 98.971,238.055C98.786,238.01 98.645,237.867 98.473,237.791C98.204,237.671 97.903,237.678 97.624,237.594C97.333,237.506 97.084,237.326 96.838,237.156C96.442,236.883 96.005,236.629 95.782,236.182C95.618,235.855 95.573,235.485 95.579,235.121C95.579,235.045 95.618,234.207 95.682,234.209L94.634,234.174L94.598,235.52C94.404,235.49 94.196,235.449 94.03,235.338C93.466,234.954 93.268,234.191 92.655,233.873C91.604,233.327 90.454,233.236 89.292,233.147C88.954,233.123 88.616,233.098 88.279,233.065C87.961,233.035 87.643,233.008 87.325,232.99C87.061,232.976 86.801,232.944 86.536,232.923C86.301,232.905 86.042,232.936 85.808,232.883C85.554,232.826 85.364,232.497 85.53,232.278C85.687,232.067 85.932,231.993 86.043,231.739C86.16,231.476 86.178,231.182 86.254,230.911C86.352,230.574 86.431,230.234 86.502,229.892C86.526,229.776 86.63,229.373 86.85,229.491C86.936,229.537 86.875,229.81 86.871,229.888C86.856,230.185 86.807,230.481 86.784,230.778C86.749,231.235 86.716,231.692 86.682,232.149C86.674,232.274 86.663,232.401 86.655,232.524C87.381,232.567 88.106,232.61 88.83,232.654C89.995,232.722 91.162,232.799 92.329,232.861C92.667,232.879 93.004,232.894 93.346,232.905C94.413,232.941 95.482,232.979 96.549,233.016C96.805,233.024 97.065,233.027 97.323,233.04C97.44,233.046 97.567,233.063 97.682,233.025C97.793,232.991 97.874,232.902 97.981,232.858C98.08,232.816 98.19,232.797 98.297,232.787C98.797,232.742 99.376,232.773 99.831,233.001C100.27,233.221 100.809,233.123 101.288,233.144C101.664,233.164 102.086,233.229 102.46,233.18C102.09,232.904 101.619,232.718 101.202,232.526C100.721,232.306 100.229,232.112 99.738,231.91C99.459,231.795 99.18,231.678 98.907,231.549C98.927,231.56 98.877,231.865 98.867,231.906C98.812,231.899 98.631,231.876 98.598,231.833C98.565,231.79 98.592,231.671 98.577,231.617C98.471,231.228 97.811,231.072 97.497,230.917C96.51,230.431 95.526,229.932 94.729,229.157C94.446,228.88 94.149,228.561 94.004,228.185C93.613,227.176 94.091,226.127 94.71,225.332C95.055,224.886 95.429,224.462 95.776,224.017C96.684,222.845 98.415,222.613 99.798,222.748C100.71,222.84 101.58,223.152 102.402,223.549C102.954,223.818 103.475,224.151 104.012,224.448C105.348,225.187 106.74,225.837 108.108,226.508C109.307,227.096 110.46,227.759 111.643,228.372C113.1,229.125 114.571,229.849 116.022,230.612C116.204,230.704 116.38,230.799 116.557,230.897Z" style="fill-rule:nonzero;"/>
    </g>
</svg>
