<?xml version="1.0" encoding="UTF-8" standalone="no"?>
<!DOCTYPE svg PUBLIC "-//W3C//DTD SVG 1.1//EN" "http://www.w3.org/Graphics/SVG/1.1/DTD/svg11.dtd">
<svg width="100%" height="100%" viewBox="0 0 71 34" version="1.1" xmlns="http://www.w3.org/2000/svg" xmlns:xlink="http://www.w3.org/1999/xlink" xml:space="preserve" xmlns:serif="http://www.serif.com/" style="fill-rule:evenodd;clip-rule:evenodd;stroke-linejoin:round;stroke-miterlimit:1.41421;">
    <g transform="matrix(1,0,0,1,-320.113,-206.078)">
        <path d="M320.224,227.602L320.936,227.844L320.869,228.209L327.216,229.275C327.227,229.275 327.234,229.606 327.241,229.642C327.272,229.824 327.358,229.993 327.419,230.166L327.869,229.731L328.216,229.326L331.555,229.863C331.547,230.122 331.516,230.395 331.591,230.65C331.603,230.693 331.715,230.909 331.685,230.938C331.861,230.765 332.052,230.603 332.198,230.399C332.292,230.268 332.378,230.13 332.47,229.997L334.981,230.321C334.975,230.542 334.924,230.797 335.029,231.001C335.076,231.094 335.113,231.201 335.179,231.284C335.339,231.205 335.428,231.003 335.512,230.856C335.596,230.711 335.691,230.571 335.781,230.432L339.323,230.862C339.354,231.075 339.357,231.281 339.469,231.474C339.492,231.507 339.733,231.79 339.736,231.783C339.788,231.658 339.86,231.541 339.918,231.42C339.996,231.263 340.042,231.104 340.091,230.939L343.367,231.359L343.437,232.146C343.437,232.177 343.248,232.271 343.215,232.289C343.086,232.371 342.961,232.462 342.847,232.564C342.564,232.816 342.378,233.133 342.243,233.484C341.898,234.381 342.356,235.394 343.042,235.999C343.689,236.573 344.628,236.699 345.419,236.358C346.013,236.104 346.335,235.503 346.449,234.895C346.582,234.166 346.344,233.443 345.863,232.891C345.608,232.602 345.279,232.362 344.922,232.222C344.797,232.173 344.674,232.135 344.543,232.107C344.508,232.099 344.267,232.066 344.263,232.008C344.254,231.795 344.245,231.582 344.237,231.373C344.294,231.374 344.353,231.388 344.412,231.394C344.508,231.405 344.603,231.409 344.7,231.423C344.74,231.429 344.856,231.421 344.888,231.44C344.959,231.482 345.01,231.69 345.041,231.769C345.095,231.774 345.152,231.779 345.207,231.784C345.601,231.817 345.997,231.851 346.39,231.884C346.395,231.97 346.476,232.918 346.453,232.923C346.716,232.933 346.874,232.665 346.949,232.45C346.972,232.391 347.125,231.873 347.058,231.858L348.221,232.084C348.226,232.186 348.23,232.286 348.237,232.387C348.26,232.837 348.273,233.285 348.301,233.732C348.323,234.107 348.253,234.604 348.508,234.912C348.649,235.081 348.652,235.325 348.689,235.532C348.711,235.687 348.739,235.843 348.766,235.998L348.614,236.026C348.639,236.021 348.42,235.653 348.391,235.626C348.265,235.515 348.104,235.489 347.965,235.587C347.811,235.696 347.805,235.977 347.802,236.145C347.795,236.381 347.828,236.618 347.862,236.852C347.899,237.098 347.897,237.408 348.075,237.603C348.194,237.74 348.403,237.867 348.587,237.761C348.77,237.659 348.689,237.216 348.677,237.046L349.212,237.05L349.373,237.306C349.502,237.514 349.593,237.701 349.871,237.695C350.188,237.689 350.162,237.052 350.158,236.847C350.148,236.68 350.135,236.516 350.121,236.347C350.09,236.149 350.105,235.925 349.997,235.744C349.878,235.545 349.406,235.478 349.339,235.755C349.329,235.802 349.329,235.855 349.324,235.904C349.315,235.966 349.292,236.028 349.214,236C349.127,235.97 349.166,235.815 349.164,235.735C349.159,235.288 349.243,234.834 349.272,234.388C349.279,234.295 349.398,234.152 349.46,234.085C349.522,234.016 349.596,233.957 349.66,233.888C349.96,233.562 350.256,233.23 350.561,232.905C350.732,232.722 350.899,232.536 351.069,232.352L351.555,232.306L351.742,231.758L352.529,231.739C352.8,232.31 353.044,232.906 353.377,233.447C353.751,234.046 354.264,234.566 354.868,234.935C355.132,235.1 355.421,235.216 355.719,235.291C355.801,235.311 356.386,235.374 356.394,235.453C356.389,235.609 356.42,235.774 356.431,235.931C356.434,235.982 356.421,236.09 356.448,236.134C356.469,236.175 356.687,236.273 356.687,236.222C356.687,236.215 356.692,235.832 356.692,235.832C356.693,235.816 357.061,236.001 357.098,236.039C357.223,236.161 357.266,236.33 357.283,236.498C357.287,236.542 357.307,236.624 357.293,236.667C357.266,236.75 357.16,236.728 357.086,236.737C356.955,236.748 356.823,236.755 356.692,236.768L356.696,236.935L357.24,236.978C357.268,236.98 357.356,237.37 357.366,237.405C357.434,237.645 357.47,237.866 357.501,238.111L357.343,238.15C357.354,238.146 357.33,237.912 357.326,237.894C357.313,237.803 357.29,237.773 357.195,237.765C357.003,237.746 356.913,237.811 356.877,237.996C356.838,238.18 356.851,238.357 356.862,238.544C356.875,238.717 356.878,238.895 356.937,239.057C357.002,239.224 357.203,239.36 357.37,239.221C357.466,239.142 357.45,239.029 357.448,238.916C357.443,238.803 357.45,238.69 357.45,238.577C357.492,238.583 357.791,238.616 357.793,238.635C357.831,238.772 357.841,238.977 357.915,239.095C357.979,239.197 358.21,239.228 358.302,239.159C358.438,239.061 358.384,238.788 358.39,238.646C358.401,238.396 358.438,238.077 358.359,237.837C358.297,237.656 358.088,237.623 357.947,237.741C357.885,237.794 357.869,237.853 357.858,237.93C357.856,237.942 357.845,238.134 357.845,238.134L357.691,238.142C357.691,238.142 357.704,237.893 357.707,237.852C357.715,237.76 357.746,236.926 357.825,236.919L358.336,236.883L358.342,236.714C358.23,236.704 358.119,236.696 358.006,236.68C357.964,236.672 357.654,236.614 357.658,236.558C357.661,236.445 357.65,236.319 357.67,236.205C357.684,236.11 357.739,236.071 357.807,236.007C357.897,235.92 357.993,235.832 358.084,235.744C358.108,235.72 358.241,235.624 358.239,235.597C358.239,235.598 358.297,236.111 358.297,236.111L358.5,236.086L358.508,235.495C358.769,235.364 359.023,235.224 359.26,235.054C359.776,234.688 360.171,234.207 360.549,233.705C360.733,233.46 360.916,233.217 361.046,232.94C361.165,232.676 361.252,232.396 361.383,232.138C361.425,232.055 361.596,231.832 361.485,231.742L363.484,233.318L363.661,234.895L363.493,234.972C363.455,234.875 363.433,234.695 363.354,234.618C363.29,234.555 363.197,234.589 363.115,234.602C362.882,234.638 362.752,234.715 362.725,234.968C362.703,235.142 362.718,235.339 362.738,235.512C362.731,235.665 362.762,235.842 362.791,235.99C362.809,236.104 362.848,236.215 362.893,236.321C362.939,236.433 362.942,236.573 363.064,236.631C363.185,236.69 363.433,236.706 363.551,236.647C363.715,236.564 363.602,236.292 363.606,236.157C363.611,235.936 364.006,235.866 364.163,235.931C364.336,236.005 364.408,236.335 364.485,236.49C364.568,236.667 364.823,236.543 364.972,236.515C365.011,236.506 365.102,236.055 365.106,236.005C365.14,235.67 365.116,235.315 365.011,234.993C364.957,234.838 364.918,234.585 364.76,234.497C364.556,234.382 364.32,234.557 364.249,234.738C364.223,234.805 364.225,234.88 364.209,234.949C363.986,234.565 364.075,234.079 364.075,233.655C364.075,233.627 364.159,233.538 364.174,233.503C364.196,233.45 364.212,233.398 364.218,233.34C364.233,233.238 364.247,233.082 364.215,232.984C364.196,232.93 364.146,232.893 364.119,232.844C363.984,232.593 364.07,232.231 364.062,231.959C364.052,231.595 364.052,231.23 364.04,230.865L364.95,230.662C365,230.849 365.043,231.03 365.138,231.199C365.19,231.292 365.252,231.381 365.319,231.468C365.343,231.504 365.505,231.664 365.497,231.703C365.524,231.533 365.562,231.359 365.55,231.186C365.536,230.952 365.463,230.726 365.422,230.496L366.926,230.066L367.035,229.886L368.447,229.586L368.599,230.494C368.608,230.567 368.253,230.689 368.2,230.718C367.669,231.004 367.288,231.482 367.084,232.045C366.997,232.295 366.96,232.61 366.97,232.873C366.987,233.317 367.18,233.731 367.448,234.079C367.549,234.208 367.668,234.335 367.793,234.442C367.947,234.571 368.143,234.678 368.323,234.764C368.494,234.843 368.693,234.9 368.879,234.923C369.022,234.941 369.172,234.941 369.314,234.923C369.48,234.902 369.649,234.857 369.803,234.8C369.981,234.736 370.163,234.637 370.305,234.516C370.569,234.301 370.729,233.997 370.857,233.692C370.93,233.51 370.997,233.32 371.044,233.131C371.095,232.918 371.113,232.676 371.103,232.458C371.094,232.244 371.04,232.013 370.98,231.809C370.763,231.082 370.178,230.579 369.466,230.362C369.418,230.347 369.115,230.291 369.108,230.246L369.019,229.522L371.851,228.823C371.903,229.018 371.933,229.245 372.053,229.41C372.106,229.478 372.155,229.571 372.222,229.627C372.306,229.485 372.335,229.303 372.364,229.143C372.373,229.086 372.398,228.634 372.427,228.626L376.106,227.573C376.157,227.778 376.179,228.012 376.295,228.193C376.356,228.286 376.426,228.378 376.491,228.473C376.563,228.263 376.624,228.058 376.656,227.837C376.66,227.802 376.673,227.515 376.693,227.511C376.779,227.486 376.868,227.464 376.954,227.442C377.355,227.333 377.759,227.226 378.159,227.118C378.498,227.027 378.833,226.935 379.173,226.85C379.234,226.969 379.276,227.101 379.326,227.225C379.377,227.35 379.438,227.471 379.544,227.556C379.589,227.594 379.743,227.67 379.744,227.736C379.735,227.394 379.714,227.055 379.68,226.715L383.145,225.62C383.159,225.615 383.456,225.998 383.517,226.043C383.562,226.075 383.795,226.198 383.792,226.262C383.806,226.09 383.835,225.945 383.824,225.771C383.824,225.751 383.797,225.438 383.787,225.441C383.792,225.44 390.257,223.502 390.257,223.502L390.005,223.041L390.515,222.777L390.467,222.29L390.097,222.343L390.076,222.543C390.058,222.547 390.042,222.551 390.024,222.555C389.96,222.572 389.898,222.586 389.835,222.603C389.706,222.637 389.575,222.668 389.442,222.701C389.244,222.748 389.047,222.799 388.848,222.848C388.601,222.911 388.353,222.972 388.105,223.035C387.815,223.107 387.525,223.179 387.235,223.25C386.907,223.334 386.578,223.416 386.247,223.498C385.88,223.59 385.518,223.681 385.151,223.772C384.763,223.867 384.377,223.966 383.988,224.061C383.584,224.164 383.177,224.265 382.772,224.366C382.348,224.472 381.926,224.578 381.505,224.682C381.074,224.79 380.644,224.898 380.211,225.004C379.789,225.11 379.364,225.217 378.938,225.322C378.523,225.426 378.11,225.529 377.696,225.633C377.291,225.734 376.884,225.835 376.479,225.936C375.722,226.127 374.96,226.3 374.205,226.506C373.898,226.582 373.586,226.661 373.276,226.737C373.002,226.805 372.725,226.873 372.45,226.944C372.169,227.012 371.892,227.08 371.617,227.151C371.294,227.23 370.974,227.312 370.649,227.381C369.981,227.521 369.296,227.581 368.63,227.737C368.549,227.758 368.468,227.778 368.387,227.795C368.002,227.887 367.617,227.978 367.232,228.069C366.786,228.174 366.335,228.286 365.886,228.387C365.394,228.497 364.903,228.603 364.41,228.712C364.26,228.707 364.068,228.785 363.921,228.819C363.752,228.856 363.583,228.894 363.415,228.931C363.093,229.001 362.771,229.071 362.449,229.143C362.325,229.169 360.596,229.599 360.578,229.555C360.549,229.475 360.533,229.394 360.506,229.312C360.405,228.963 360.3,228.611 360.198,228.261C360.063,227.808 359.9,227.377 359.724,226.94C359.618,226.672 359.516,226.403 359.402,226.139C359.259,225.804 359.101,225.477 358.929,225.154C358.645,224.614 358.337,224.083 358.049,223.541C358.007,223.462 357.682,222.778 357.629,222.797L366.859,219.385L366.842,218.499L356.14,220.971L355.65,220.686C355.396,220.54 355.002,220.399 354.882,220.109C354.792,219.887 354.798,219.636 354.781,219.401C354.762,219.142 354.72,218.884 354.688,218.629C354.628,218.138 354.57,217.649 354.506,217.159C354.434,216.583 354.36,216.008 354.289,215.434C354.207,214.802 354.129,214.17 354.054,213.536C353.975,212.9 353.9,212.264 353.82,211.628C353.743,211.028 353.658,210.428 353.584,209.829C353.516,209.314 353.46,208.8 353.404,208.284C353.361,207.899 353.322,207.511 353.258,207.129C353.213,206.867 353.18,206.55 353.075,206.305C353.051,206.249 352.948,206.058 352.869,206.08C352.724,206.12 352.664,206.353 352.651,206.48C352.634,206.644 352.662,206.807 352.672,206.969C352.692,207.36 352.72,207.749 352.744,208.138C352.774,208.604 352.802,209.069 352.83,209.531C352.865,210.047 352.895,210.562 352.926,211.078C352.963,211.652 352.997,212.228 353.034,212.802C353.069,213.38 353.107,213.962 353.14,214.539C353.175,215.085 353.21,215.628 353.243,216.172C353.272,216.661 353.302,217.149 353.332,217.639C353.359,218.03 353.382,218.421 353.408,218.814C353.419,219.012 353.424,219.211 353.444,219.408C353.464,219.593 353.503,219.766 353.435,219.948C353.372,220.107 353.254,220.238 353.129,220.354C352.817,220.644 352.549,220.969 352.286,221.301L340.543,220.228L340.877,221.126L351.613,223.266C351.532,223.834 351.371,224.389 351.236,224.948C351.142,225.333 351.046,225.72 350.981,226.113C350.906,226.563 350.868,227.023 350.91,227.478C350.951,227.92 351.078,228.347 351.214,228.766L351.651,230.102L320.623,227.182L320.563,227.029L320.113,226.996L320.224,227.602ZM346.586,232.059L346.871,230.564L347.38,231.303L346.586,232.059ZM347.639,231.094L347.206,230.578L348.031,230.842L347.639,231.094ZM359.889,233.208L359.512,232.707L360.654,232.565L359.928,233.256L359.889,233.208ZM360.966,234.113L360.69,234.271L360.087,233.429L361.174,232.483L360.966,234.113Z" style="fill-rule:nonzero;"/>
    </g>
</svg>
