<?xml version="1.0" encoding="UTF-8" standalone="no"?>
<!DOCTYPE svg PUBLIC "-//W3C//DTD SVG 1.1//EN" "http://www.w3.org/Graphics/SVG/1.1/DTD/svg11.dtd">
<svg width="100%" height="100%" viewBox="0 0 68 19" version="1.1" xmlns="http://www.w3.org/2000/svg" xmlns:xlink="http://www.w3.org/1999/xlink" xml:space="preserve" xmlns:serif="http://www.serif.com/" style="fill-rule:evenodd;clip-rule:evenodd;stroke-linejoin:round;stroke-miterlimit:1.41421;">
    <g transform="matrix(1,0,0,1,-165.391,-260.707)">
        <path d="M200.484,277.152C199.843,277.598 199.032,277.805 198.264,277.614C197.384,277.392 196.934,276.66 196.243,276.151C195.939,275.926 195.588,275.819 195.245,275.668C194.992,275.555 194.615,275.335 194.446,275.687C194.403,275.778 194.316,276.385 194.461,276.41C194.325,276.386 192.844,276.098 192.854,276.053C192.789,276.4 192.731,276.752 192.665,277.102C192.635,277.256 192.594,277.529 192.844,277.483C192.871,277.155 192.913,276.543 193.367,276.535C193.678,276.528 193.796,276.832 193.838,277.088C193.907,277.493 193.932,278.582 193.379,278.715C192.911,278.826 192.846,278.01 192.807,277.723C192.581,277.733 192.253,277.717 192.108,277.926C191.987,278.101 192.055,278.352 191.946,278.536C191.616,279.112 191.112,278.432 191.109,278.029C191.105,277.643 191.083,276.979 191.268,276.637C191.596,276.033 191.926,276.588 192.053,276.967C192.092,277.084 192.167,277.426 192.323,277.274C192.551,277.047 192.251,276.098 192.024,275.93C191.717,275.706 191.317,275.79 190.971,275.692C190.594,275.584 190.501,275.303 190.452,274.944C190.469,275.067 190.292,275.335 190.251,275.469C190.188,275.68 190.151,276.186 189.879,276.241C189.51,276.319 189.643,275.047 189.64,274.863C189.641,274.947 189.055,275.138 188.976,275.169C188.664,275.292 188.334,275.404 187.994,275.373C187.658,275.344 187.362,275.152 187.063,274.999C186.704,274.813 186.377,274.792 185.989,274.717C186.021,274.723 185.879,275.905 185.688,275.985C185.279,276.155 185.374,275.296 185.385,275.128C185.45,274.346 184.573,274.512 184.03,274.446C183.76,274.414 180.983,273.823 180.961,273.913C180.865,274.306 180.86,274.748 180.731,275.13C180.487,275.853 180.335,274.842 180.302,274.62C180.264,274.345 180.293,274.047 180.227,273.778C180.208,273.691 178.603,273.612 178.452,273.586C178.44,273.448 178.414,273.309 178.39,273.171C178.335,273.163 177.829,273.086 177.829,273.069C177.829,272.747 177.87,272.532 177.996,272.236C177.891,272.475 176.34,272.104 176.13,272.073C175.126,271.933 174.114,271.854 173.103,271.761C172.553,271.711 172.001,271.663 171.452,271.608C170.801,271.541 170.151,271.477 169.504,271.409C168.423,271.297 167.336,271.202 166.258,271.071C166.112,271.052 165.275,271.09 165.404,270.755C165.452,270.625 165.76,270.481 165.883,270.426C166.918,269.962 168.285,270.435 169.345,270.581C170.446,270.731 171.561,270.782 172.668,270.832C174.567,270.918 176.464,271 178.361,271.045C180.287,271.09 182.21,271.133 184.137,271.198C184.686,271.217 185.238,271.241 185.786,271.285C186.043,271.304 186.2,271.291 186.377,271.114C186.873,270.605 187.574,270.334 188.277,270.346C188.643,270.353 188.962,270.456 189.243,270.698C189.331,270.776 189.788,271.428 189.87,271.42C190.7,271.354 191.53,271.272 192.36,271.194C192.823,271.151 193.288,271.175 193.752,271.127C193.995,271.104 194.312,271.079 194.425,270.825C194.59,270.449 194.344,270.036 194.234,269.683C193.835,268.405 193.667,266.762 194.189,265.494C194.626,264.44 195.401,263.427 196.539,263.1C197.127,262.932 197.737,263.086 198.293,263.278C198.723,263.42 199.406,263.555 199.661,263.968C199.903,263.588 199.757,262.991 199.782,262.563C199.799,262.307 199.745,260.717 200.079,260.707C200.413,260.696 200.225,261.311 200.191,261.477C200.077,262.022 200.058,262.59 200.043,263.146C200.032,263.565 199.811,264.295 200.102,264.655C200.473,265.114 200.826,265.444 201.043,266.016C201.36,266.842 201.497,267.737 201.592,268.612C201.67,269.325 201.622,270.387 202.083,270.992C202.35,271.338 202.829,271.244 203.209,271.246C203.983,271.248 204.726,271.512 205.498,271.516C206.229,271.518 206.713,270.815 207.426,270.776C208.277,270.728 208.86,271.135 209.323,271.821C209.36,271.873 210.088,271.791 210.196,271.79C212.555,271.745 214.915,271.696 217.273,271.645C219.545,271.597 221.818,271.545 224.091,271.502C224.744,271.491 225.4,271.48 226.053,271.467C226.998,271.452 227.937,271.382 228.882,271.385C229.684,271.387 230.549,271.217 231.345,271.321C231.676,271.364 232.868,271.748 232.274,272.212C232.592,271.739 231.723,271.883 231.489,271.895C229.615,271.997 227.744,272.183 225.87,272.333C224.835,272.417 223.799,272.49 222.762,272.528C221.524,272.573 220.277,272.584 219.055,272.803C219.229,272.774 219.435,273.327 219.465,273.444C219.574,273.866 219.099,273.745 218.834,273.766C218.81,273.879 218.818,274.165 218.726,274.239C218.589,274.352 218.261,274.319 218.096,274.321C217.765,274.33 217.436,274.311 217.106,274.306C216.68,274.299 216.729,274.643 216.74,274.993C216.745,275.181 216.867,275.776 216.689,275.922C216.505,276.08 216.376,275.788 216.337,275.643C216.25,275.325 216.293,274.479 215.845,274.445C215.354,274.405 214.756,274.596 214.265,274.647C213.681,274.71 213.099,274.786 212.518,274.861C212.229,274.899 211.639,274.825 211.508,275.158C211.398,275.436 211.477,275.805 211.451,276.098C211.437,276.275 211.377,276.709 211.17,276.386C211.071,276.233 211.045,275.969 210.996,275.794C210.96,275.676 210.977,275.358 210.905,275.272C210.602,274.918 210.016,275.434 209.635,275.084C209.253,274.737 209.048,274.963 208.806,275.311C208.517,275.726 207.91,276.077 207.423,275.703C207.308,275.616 207.279,275.456 207.16,275.594C206.955,275.831 207.28,276.323 206.997,276.506C206.759,276.298 206.689,275.991 206.669,275.687C206.66,275.518 206.528,275.013 206.376,275.376C206.291,275.581 206.346,275.834 206.158,275.977C205.771,276.271 205.267,276.006 204.845,276.033C204.401,276.059 204.14,276.418 204.1,276.844C204.087,276.975 204.052,277.504 204.273,277.338C204.457,277.202 204.394,276.898 204.562,276.749C204.888,276.461 205.168,277.013 205.235,277.233C205.309,277.479 205.349,277.737 205.338,277.995C205.323,278.421 205.142,278.964 204.609,278.85C204.263,278.776 204.213,278.254 204.122,277.976C204.116,277.951 203.675,277.992 203.622,277.992C203.758,278.09 203.442,278.705 203.333,278.782C202.608,279.302 202.561,278.015 202.575,277.647C202.582,277.379 202.54,277 202.786,276.817C203.035,276.627 203.335,276.778 203.425,277.045C203.53,277.345 203.47,277.559 203.876,277.508C203.816,277.516 203.711,276.827 203.698,276.734C203.667,276.535 203.638,276.464 203.433,276.42C203.068,276.346 202.721,276.475 202.36,276.454C202.315,276.298 202.308,276.1 202.311,275.942C202.374,275.954 202.453,275.932 202.508,275.936C202.5,275.831 202.495,275.723 202.48,275.619C202.372,275.598 202.256,275.594 202.151,275.567C202.162,275.512 202.155,275.454 202.127,275.413C202.011,275.225 201.168,276.473 201.077,276.592C200.912,276.805 200.71,276.993 200.484,277.152Z" style="fill-rule:nonzero;"/>
    </g>
</svg>
