<?xml version="1.0" encoding="UTF-8" standalone="no"?>
<!DOCTYPE svg PUBLIC "-//W3C//DTD SVG 1.1//EN" "http://www.w3.org/Graphics/SVG/1.1/DTD/svg11.dtd">
<svg width="100%" height="100%" viewBox="0 0 174 100" version="1.1" xmlns="http://www.w3.org/2000/svg" xmlns:xlink="http://www.w3.org/1999/xlink" xml:space="preserve" xmlns:serif="http://www.serif.com/" style="fill-rule:evenodd;clip-rule:evenodd;stroke-linejoin:round;stroke-miterlimit:1.41421;">
    <g transform="matrix(1,0,0,1,-264.786,-232.673)">
        <path d="M264.946,314.726L265.027,315.462L265.411,316.194C265.682,318.247 265.087,320.229 265.224,322.276C265.324,323.736 265.086,325.824 265.682,327.199C266.099,328.16 266.391,329.887 267.315,330.479C268.17,331.016 269.53,330.296 270.038,329.589C270.798,328.532 270.204,326.847 270.474,325.606C270.54,325.337 270.86,322.134 271.312,322.218C271.982,322.372 272.098,322.239 272.576,321.753C273.611,322.987 274.72,320.921 274.944,320.143C275.177,319.276 275.711,318.444 275.837,317.547C276.011,316.193 275.509,316.849 274.571,316.243C274.571,316.243 274.899,315.657 275.294,315.317C277.016,313.879 278.707,312.411 280.45,310.993C281.049,310.512 281.807,310.261 282.311,309.718C282.569,309.442 282.557,309.131 282.817,308.87C283.262,308.404 284.1,308.087 284.701,307.763C286.028,307.05 287.373,306.374 288.613,305.513C289.417,304.953 290.24,304.467 290.966,303.813C291.781,303.064 292.343,302.958 293.292,302.506C294.079,302.131 294.636,301.673 295.525,301.504C296.774,301.273 299.118,301.653 299.913,300.34C300.103,299.995 301.243,298.809 301.243,298.809C301.941,298.062 308.306,295.374 308.136,294.689C308.154,294.725 308.399,295.226 308.399,295.226C308.399,295.226 308.852,295.092 309.121,294.958C310.082,294.478 310.972,293.06 311.84,292.375C313.049,291.408 314.275,290.491 315.374,289.392C315.368,289.399 315.286,289.392 315.265,289.37C315.558,289.151 315.906,288.961 316.223,288.785C316.845,289.322 318.047,289.497 318.82,289.83C319.737,290.252 320.83,291.042 321.858,290.633C322.962,290.195 322.983,289.393 324.37,289.695C325.118,289.864 325.795,289.985 326.595,290.049C327.725,290.149 328.867,290.697 329.929,290.754C330.462,290.867 331.058,290.966 331.587,290.896C331.954,293.357 330.507,296.166 330.149,298.586C329.767,301.14 329.847,303.729 330.43,306.232C330.43,306.232 330.955,307.898 330.955,308.096C330.955,308.858 331.238,309.66 331.156,310.395C331.111,310.82 330.941,310.902 330.853,311.298C330.656,312.138 330.74,312.659 330.955,313.472C331.405,315.17 331.617,316.941 331.59,318.705C331.587,319.658 331.696,322.064 331.156,322.755C329.118,325.485 330.737,327.75 330.701,330.785C330.677,332.668 335.406,331.94 336.475,331.171C336.927,330.849 336.531,331.044 336.927,330.849C337.327,330.656 337.388,330.586 337.802,330.586C339.725,330.586 341.72,331.107 343.636,330.785C344.521,330.629 345.403,330.39 346.282,330.184C347.59,329.578 348.803,328.829 350.095,328.215C351.282,327.65 353.197,327.198 352.719,325.527L352.057,324.814C350.857,323.545 348.777,324.651 347.372,324.602C346.512,324.582 345.562,324.483 344.74,324.188C343.537,323.763 343.75,323.142 342.961,322.353C342.376,321.782 342.242,321.181 341.477,320.814C340.821,320.497 340.042,320.533 339.438,320.095C338.292,319.29 338.655,317.046 338.387,315.791L338.188,314.134C338.188,312.826 338.123,311.544 338.023,310.253C337.802,307.05 338.36,303.91 338.625,300.75C338.929,297.32 339.119,294.042 340.445,290.78C341.29,288.747 341.521,286.617 340.043,284.841C338.23,282.681 336.365,280.762 334.052,279.133C333.051,278.42 331.954,277.828 330.917,277.199C330.577,277.01 327.12,274.616 326.93,274.745C329.501,273.003 332.219,271.399 335.182,270.426C338.189,269.453 341.337,269.094 344.395,268.296C345.708,267.937 346.971,267.781 348.367,267.761C350.149,267.731 352.125,267.787 353.656,268.831C354.343,269.306 354.715,269.883 355.206,270.519C356.166,271.78 357.525,270.688 358.846,270.722C360.549,270.779 362.355,272.16 363.773,273.016C365.399,273.995 366.993,275.013 368.672,275.888C370.912,277.035 373.024,278.526 375.418,279.315C377.633,280.042 379.867,280.396 381.826,281.657C383.6,282.788 386.27,284.248 388.412,284.366C388.391,284.148 388.577,283.917 388.563,283.713C389.363,283.917 388.836,284.924 389.209,285.539C389.611,286.168 390.452,286.393 391.052,286.814C391.616,287.217 393.499,289.765 394.244,288.19C394.641,288.742 395.606,289.023 395.745,288.148C396.388,287.866 397.023,287.583 397.673,287.324C404.7,284.529 410.615,287.478 417.034,290.484C422.994,293.263 431.96,296.72 436.303,289.525C439.704,283.903 437.481,275.775 430.383,275.005C426.263,274.552 422.07,276.042 418.294,277.493C414.113,279.075 410.075,281.021 405.831,282.412C402.942,283.345 399.726,284.147 396.696,283.414C394.444,282.863 392.699,281.425 390.995,279.901C391.992,278.398 386.651,276.79 385.879,276.352C385.482,276.119 385.055,275.738 384.591,275.646C384.119,275.553 383.988,275.808 383.534,275.758C382.436,275.653 381.774,274.673 380.899,274.115C380.143,273.636 379.191,273.486 378.447,273.014C377.667,272.527 376.99,271.707 376.259,271.144C373.195,268.815 369.484,268.491 366.26,266.565C366.303,266.453 366.33,266.333 366.391,266.233C364.732,264.561 362.876,263.284 360.923,262.001C360.264,261.579 360.067,261.465 359.84,260.866C359.65,260.357 359.806,259.863 359.375,259.453C358.988,259.08 358.349,259.278 357.899,258.932C357.559,258.662 356.499,257.606 356.3,257.267C355.719,256.279 354.618,255.192 353.8,254.388C352.801,253.42 351.249,252.342 350.002,251.764C348.516,251.037 345.853,250.852 346.574,248.497C346.904,247.362 347.168,246.099 347.616,244.998L347.874,244.334C348.121,244.334 348.36,244.334 348.6,244.348C348.621,244.257 349.115,242.479 349.277,242.74C349.062,242.402 349.133,242.091 349.41,241.815C349.134,241.646 348.953,241.372 348.679,241.215C348.721,240.616 349.25,240.441 349.607,240.029C348.492,239.283 348.327,237.78 348.037,236.602C347.659,235.098 347.212,234.605 345.78,234.061C344.856,233.701 344.061,232.883 343.074,232.743C340.704,232.439 337.093,233.101 335.735,235.317C335.084,236.389 334.56,237.475 334.287,238.726C334.124,239.458 333.349,241.962 333.621,242.535L333.885,243.14L334.017,244.333L334.161,245.258L332.947,244.601C331.222,243.981 329.44,243.584 327.642,243.466L326.579,243.403L325.19,242.669C324.904,242.521 322.159,241.913 322.074,242.211C322.082,242.19 322.121,242.007 321.686,242.007C319.894,242.007 318.093,241.944 316.3,241.944C313.778,241.944 311.979,242.585 309.796,243.805C309.722,243.855 308.261,244.667 308.261,244.667C307.781,245.039 307.32,245.243 306.836,245.533C306.47,245.745 306.156,245.801 305.965,246.21C305.904,246.344 305.866,247.383 306.009,247.383C303.435,247.283 300.861,247.869 298.306,248.096C295.73,248.321 293.039,248.448 290.559,249.039C290.468,249.067 288.36,249.574 288.36,249.574C288.065,249.668 285.322,250.45 285.322,250.438C285.322,250.311 285.256,250.175 285.242,250.048C284.028,250.612 282.988,250.592 281.719,250.923C280.657,251.212 279.463,251.311 278.522,251.946C278.149,252.2 277.524,253.16 276.956,253.024C274.811,252.567 272.899,252.877 270.86,253.624C270.261,253.829 269.942,254.471 270.257,255.022C269.73,255.168 269.967,255.712 269.7,255.988C269.406,256.277 269.396,256.178 268.993,256.341C267.876,256.794 267.776,258.174 266.68,258.562C266.309,258.698 265.843,258.499 265.473,258.598C264.598,258.825 264.598,259.58 265.251,260.032C266.082,260.617 267.571,260.053 268.471,259.926L268.929,259.799L269.848,259.664C270.632,259.962 271.5,259.92 272.307,259.989L272.641,259.926C271.725,260.11 270.774,261.498 270.944,262.395C271.332,264.316 272.264,262.354 272.69,261.874C273.276,261.245 274.104,261.041 274.824,260.611C275.575,260.131 276.194,259.468 276.891,258.911C277.734,258.234 278.842,257.96 279.806,257.479C279.741,257.506 281.036,257.656 281.204,257.612C282.037,257.485 282.824,257.125 283.635,256.88C284.426,256.617 286.944,256.61 286.704,255.347C288.328,254.685 289.809,255.009 291.533,255.025C294.892,255.052 298.254,254.537 301.591,254.199C303.602,253.988 305.589,253.895 307.607,253.895L308.076,253.755C308.7,254.657 310.922,253.705 311.93,253.811C312.361,253.845 313.991,253.91 314.366,254.156C314.576,254.29 315.497,254.552 315.497,254.552L314.833,255.348C314.724,255.604 314.614,255.872 314.506,256.154C313.885,256.197 313.507,256.592 313.278,257.156C313.171,257.401 313.347,257.848 313.171,258.073C312.894,258.356 312.432,258.107 312.181,258.314C311.386,258.913 311.386,260.077 310.448,260.725C309.645,261.276 309.204,261.833 308.685,262.66C308.114,263.561 307.581,264.522 306.77,265.275C306.006,265.981 305.225,266.497 304.659,267.408C302.654,270.525 301.15,274.263 302.109,278.018C302.268,278.645 302.789,279.132 302.768,279.717C302.734,281.205 300.532,282.137 299.765,283.273C299.082,284.346 298.383,285.439 297.456,286.336C297.053,286.744 296.941,286.632 296.609,287.338C296.366,287.89 296.137,288.439 295.939,289.018C295.542,290.131 295.219,290.281 294.267,290.957C293.476,291.528 293.285,292.447 292.573,292.974C291.45,293.815 289.485,294.012 288.173,294.569C286.885,295.099 285.795,295.706 284.719,296.594C283.356,297.717 282.352,299.02 281.394,300.476C280.812,301.342 280.238,301.787 279.572,302.528C279.135,303.007 278.465,305.004 277.554,304.122C276.925,304.792 276.398,305.519 275.848,306.253C274.506,308.002 272.036,308.102 270.036,308.024C269.394,308.002 265.485,307.544 265.485,308.757C265.471,309.583 265.006,310.492 264.914,311.367C264.907,311.417 264.907,311.474 264.907,311.537C264.821,312.596 264.857,313.668 264.946,314.726ZM417.188,283.938C417.121,281.222 418.792,279.26 420.881,277.738C422.319,276.686 424.297,276.044 426.079,275.74C427.847,275.437 430.98,275.669 432.595,276.517C432.642,276.538 434.134,277.305 434.134,277.305L435.181,278.37C436.282,279.817 437.867,282.971 437.704,284.798C437.607,285.92 437.35,287.338 436.894,288.361C436.236,289.829 434.213,291.189 432.806,291.782C428.389,293.659 421.984,292.467 418.911,288.672C417.89,287.38 417.236,285.801 417.188,283.938ZM411.884,283.904C413.279,283.479 414.189,282.223 415.488,281.625C415.512,281.618 416.362,281.223 416.362,281.223C415.819,281.469 415.852,283.38 415.857,283.796C415.918,285.336 416.208,287.162 417.409,288.255C416.873,287.945 416.362,287.598 415.819,287.325C414.329,286.583 411.128,286.802 410.051,285.306C409.067,283.945 411.092,284.149 411.884,283.904ZM274.166,317.846C274.445,317.783 274.721,317.739 275.009,317.698C274.988,317.81 274.732,318.968 274.641,318.982C274.499,318.982 274.362,318.912 274.263,318.812C273.973,318.508 273.862,317.923 274.166,317.846ZM272.946,321.387C272.883,321.022 273.341,319.326 273.936,319.785C274.477,320.202 273.795,320.751 273.311,321.083C273.115,321.253 272.938,321.344 272.946,321.387Z" style="fill-rule:nonzero;"/>
    </g>
</svg>
