<?xml version="1.0" encoding="UTF-8" standalone="no"?>
<!DOCTYPE svg PUBLIC "-//W3C//DTD SVG 1.1//EN" "http://www.w3.org/Graphics/SVG/1.1/DTD/svg11.dtd">
<svg width="100%" height="100%" viewBox="0 0 47 161" version="1.1" xmlns="http://www.w3.org/2000/svg" xmlns:xlink="http://www.w3.org/1999/xlink" xml:space="preserve" xmlns:serif="http://www.serif.com/" style="fill-rule:evenodd;clip-rule:evenodd;stroke-linejoin:round;stroke-miterlimit:1.41421;">
    <g transform="matrix(1,0,0,1,-159.261,-70.8429)">
        <path d="M199.358,110.141C199.45,110.012 199.408,110.042 199.422,109.948C199.401,110.012 199.38,110.076 199.358,110.141ZM200.07,156.797C199.984,154.597 198.801,152.401 199.228,149.679C199.687,146.758 198.825,143.633 198.646,140.749C198.389,136.615 199.618,132.385 198.905,128.131C198.43,126.534 197.956,124.938 197.481,123.342C197.632,119.569 197.783,115.793 197.934,112.018C198.279,111.543 198.624,111.069 198.969,110.595C198.71,110.897 198.451,111.199 198.193,111.5C197.221,111.951 194.121,111.893 192.823,111.889C192.758,112.795 192.693,113.701 192.628,114.607C192.649,114.542 192.672,114.477 192.693,114.413L192.757,114.413C192.758,117.851 192.57,121.72 193.08,124.895C193.016,125.93 192.951,126.965 192.887,128.001C193.771,132.186 194.656,136.371 195.539,140.555C196.182,143.459 197.437,148.629 195.539,151.037L195.539,151.167C194.687,150.068 194.888,143.015 194.504,141.008C193.883,137.758 193.283,134.729 192.368,131.754C191.889,130.193 190.994,128.729 190.751,126.965C190.795,126.319 190.837,125.672 190.881,125.025C191.194,122.983 191.021,121.225 191.463,119.331C191.852,117.757 192.24,116.182 192.627,114.607L192.563,114.607C192.131,116.29 191.701,117.971 191.27,119.654C191.096,121.272 190.924,122.889 190.751,124.507C190.708,125.435 190.664,126.362 190.621,127.29C191.463,129.942 192.304,132.597 193.144,135.249C194.003,138.112 194.165,141.155 194.698,144.308C194.741,145.754 194.785,147.2 194.828,148.644C194.957,149.421 195.086,150.199 195.217,150.974C194.957,151.449 194.698,151.923 194.44,152.398C193.884,154.293 194.21,158.583 194.699,160.099C195.184,160.37 195.621,160.375 196.187,160.292C196.514,161.301 195.301,162.169 194.699,162.687C194.742,162.923 194.786,163.161 194.829,163.398C195.063,163.543 195.157,163.63 195.54,163.658C195.583,164.176 195.627,164.693 195.669,165.211C195.886,165.254 196.101,165.297 196.317,165.34C196.985,164.977 197.143,164.09 197.61,163.527C197.632,163.485 197.654,163.441 197.675,163.398C198.106,165.211 198.537,167.023 198.969,168.834C199.594,171.287 199.998,173.818 200.586,176.471C200.846,177.872 201.105,179.275 201.363,180.676C201.449,180.655 201.535,180.633 201.622,180.612C201.126,178.003 200.63,175.392 200.134,172.782C199.358,169.462 198.581,166.138 197.805,162.817C199.125,161.616 199.041,160.135 199.617,158.093C199.769,157.66 199.919,157.229 200.07,156.797ZM199.164,110.271C199.099,110.378 199.034,110.486 198.97,110.594C199.153,110.442 199.143,110.424 199.164,110.271ZM164.222,153.367L164.222,153.238C164.316,153.013 164.391,152.086 164.433,151.067C164.339,151.847 164.263,152.607 164.197,153.345C164.205,153.353 164.212,153.36 164.222,153.367ZM205.376,224.158C204.628,220.849 203.645,218.287 203.047,214.776C202.982,212.727 202.917,210.677 202.853,208.629C202.357,203.69 201.861,198.749 201.365,193.811C200.447,189.504 198.16,185.916 198.064,180.998C199.056,180.912 200.048,180.825 201.042,180.738L189.459,180.738C183.389,179.672 176.106,181.045 170.887,181.968C170.219,181.947 169.55,181.925 168.881,181.904C166.034,181.666 163.186,181.429 160.34,181.191C160.319,181.17 160.297,181.148 160.276,181.127C161.116,176.9 161.958,172.672 162.799,168.445C162.975,167.697 163.801,164.271 163.511,163.525C163.37,163.166 163.042,162.722 162.864,162.232C162.885,162.146 162.907,162.06 162.928,161.972C163.144,161.994 163.36,162.016 163.575,162.036C164.326,161.274 163.554,158.036 163.834,156.407C164.011,155.378 164.105,154.372 164.197,153.344C162.538,152.086 163.296,149.682 163.963,147.8C164.093,147.844 164.223,147.887 164.352,147.93C164.481,148.03 164.492,149.637 164.434,151.066C164.485,150.631 164.537,150.198 164.612,149.743C164.654,149.16 164.698,148.577 164.74,147.995C164.567,147.845 164.395,147.693 164.223,147.542C164.287,145.386 164.352,143.228 164.416,141.071C164.893,138.415 165.151,135.415 166.1,133.048C167.371,130.503 168.645,127.957 169.916,125.411C170.715,123.686 171.514,121.96 172.311,120.235L172.311,119.975C171.622,119.48 170.93,118.983 170.241,118.487C169.86,117.689 169.753,114.623 169.723,113.634C168.235,113.828 166.746,114.022 165.258,114.217C164.934,113.785 164.611,113.354 164.287,112.922C164.304,112.336 164.321,111.727 164.342,111.109C164.237,111.757 164.133,112.404 164.028,113.05C164.438,113.525 164.848,113.999 165.258,114.474C165.256,117.334 165.416,120.007 164.999,122.627C164.977,123.36 164.955,124.094 164.934,124.827C164.459,126.186 163.985,127.546 163.511,128.904C163.187,130.737 162.864,132.571 162.539,134.404C161.934,137.313 162.352,140.626 161.764,143.721C161.332,145.791 160.901,147.864 160.469,149.934L160.469,152.004C160.239,153.221 159.014,157.608 159.305,158.734C159.44,159.255 160.071,159.32 160.34,159.705C161.379,161.184 161.545,162.789 163.252,163.588C163.599,164.455 162.838,167.764 162.605,168.764C161.786,172.927 160.965,177.09 160.146,181.252C163.532,181.619 166.918,181.986 170.305,182.354C170.311,187.905 170.856,192.392 171.793,196.913C172.117,198.941 172.439,200.968 172.764,202.997C173.606,206.446 174.447,209.898 175.287,213.349C175.541,214.807 175.258,217.85 175.028,219.303C174.505,222.617 174.636,226.123 174.769,229.139C176.568,230.18 177.807,231.543 180.14,230.239C180.55,230.024 180.96,229.807 181.369,229.593C181.962,228.833 181.738,227.161 181.629,226.033C181.262,223.424 180.897,220.812 180.529,218.204C180.011,216.607 179.493,215.012 178.976,213.415C178.716,211.193 178.458,208.971 178.199,206.75C178.242,205.975 178.285,205.197 178.328,204.42C178.349,201.918 178.372,199.416 178.392,196.914L178.392,194.391C178.349,193.313 178.306,192.234 178.263,191.156C177.695,187.915 177.345,184.46 177.681,180.932C181.535,180.438 186.128,180.682 189.653,180.868C190.609,183.36 191.434,185.597 192.111,188.308C192.694,191.285 193.276,194.262 193.858,197.239C195.456,201.924 198.166,205.969 199.229,211.216C199.696,213.518 199.26,216.126 198.906,218.399C198.581,220.484 199.189,223.656 199.488,225.582C199.726,227.112 199.245,229.097 199.812,230.37C200.093,230.747 202.751,231.991 203.565,231.794C204.175,231.647 205.783,230.717 206.023,230.176C206.454,229.211 205.61,225.193 205.376,224.158ZM170.175,118.748C170.8,119.136 171.426,119.523 172.05,119.912C172.2,121.064 170.327,123.206 170.045,124.506C170.001,124.527 169.958,124.55 169.915,124.572C170.001,122.631 170.089,120.689 170.175,118.748ZM162.345,158.932C162.195,158.911 162.043,158.889 161.892,158.868C161.849,158.847 161.806,158.825 161.763,158.804C161.679,158.229 161.761,157.77 161.892,157.316C162.15,157.402 162.41,157.488 162.668,157.574C162.675,158.258 162.554,158.518 162.345,158.932ZM164.354,110.684C164.349,110.827 164.344,110.97 164.34,111.112L164.35,111.048C164.353,110.926 164.354,110.805 164.354,110.684ZM165.267,101.588C165.282,101.589 165.306,101.578 165.316,101.586C165.319,101.619 165.347,102.026 165.347,102.026C165.361,102.01 165.37,101.998 165.382,101.982L165.411,101.986C165.419,102.012 165.426,102.041 165.43,102.068C165.408,102.076 165.383,102.088 165.361,102.099C165.361,102.109 165.363,102.12 165.363,102.13C165.377,102.138 165.386,102.144 165.398,102.147C165.426,102.114 165.44,102.107 165.472,102.135C165.501,102.382 165.908,102.8 166.056,102.986C166.083,103.022 166.052,103.049 166.074,103.091C166.075,103.096 166.081,103.101 166.084,103.103C166.13,103.144 166.172,103.189 166.216,103.229C166.246,103.279 166.229,103.348 166.262,103.394L166.276,103.394C166.313,103.35 166.305,103.298 166.33,103.216C166.389,103.013 166.244,102.96 166.14,102.872C166.146,102.854 166.151,102.834 166.155,102.816C165.861,102.726 165.431,102.047 165.467,101.653C165.495,101.606 165.522,101.586 165.567,101.569C165.573,101.571 165.578,101.575 165.581,101.579C165.562,101.646 165.581,101.77 165.616,101.817C165.624,101.813 165.633,101.805 165.639,101.802C165.653,101.785 165.664,101.77 165.676,101.748L165.693,101.754C165.746,101.86 165.854,101.964 165.833,102.133C165.821,102.122 165.806,102.118 165.792,102.112C165.787,102.041 165.75,102 165.735,101.922L165.685,101.912C165.684,102.035 165.831,102.371 165.892,102.459L165.921,102.464C165.93,102.453 165.939,102.443 165.947,102.434L165.949,102.409C165.891,102.348 165.828,102.275 165.844,102.149C165.921,102.179 165.925,102.267 165.971,102.327C165.987,102.327 166.002,102.329 166.02,102.327C166.03,102.294 166.036,102.261 166.041,102.229C165.912,102.04 165.816,101.793 165.715,101.585C165.745,101.513 165.748,101.543 165.748,101.453C165.809,101.432 165.83,101.405 165.875,101.363C165.933,101.388 165.949,101.42 165.983,101.461C166.018,101.465 166.031,101.457 166.052,101.44C166.031,101.384 166.029,101.336 166.066,101.288C166.115,101.286 166.129,101.267 166.16,101.239C166.181,101.247 166.203,101.257 166.224,101.266C166.23,101.284 166.238,101.303 166.245,101.32C166.255,101.317 166.265,101.314 166.274,101.311C166.3,101.193 166.313,101.194 166.379,101.139C166.39,101.145 166.402,101.151 166.416,101.155L166.414,101.162C166.396,101.266 166.398,101.345 166.312,101.358C166.296,101.475 166.311,101.538 166.311,101.633C166.312,101.824 166.201,101.932 166.257,102.096C166.268,102.088 166.278,102.079 166.288,102.075C166.308,102.025 166.31,101.903 166.333,101.85C166.353,101.84 166.372,101.825 166.391,101.81C166.396,101.704 166.4,101.596 166.408,101.487C166.464,101.325 166.527,101.126 166.651,101.042C166.696,101.016 166.728,101.057 166.777,101.05C166.838,101.038 166.879,100.953 166.966,101.021C166.966,101.22 166.868,101.468 166.956,101.578C166.983,101.573 166.975,101.562 166.995,101.584C167.018,101.756 166.835,101.908 166.843,102.1C166.857,102.432 166.904,102.721 166.955,103.03C166.968,103.057 166.981,103.085 166.995,103.116C167.024,103.329 167.055,103.534 167.091,103.735C167.075,103.729 167.059,103.725 167.046,103.721C167.023,103.715 167.003,103.706 166.982,103.7C166.966,103.723 166.951,103.749 166.933,103.774C166.96,103.794 166.988,103.815 167.016,103.835C167.048,103.847 167.083,103.859 167.117,103.873C167.133,103.952 167.152,104.032 167.172,104.107C167.186,104.155 167.195,104.219 167.207,104.295C167.131,104.247 167.056,104.202 166.984,104.168C166.976,104.17 166.972,104.17 166.966,104.174C167.023,104.283 167.119,104.35 167.225,104.412C167.255,104.593 167.296,104.773 167.385,104.797C167.396,104.768 167.405,104.735 167.409,104.699C167.507,104.71 167.596,104.666 167.68,104.697C167.695,104.71 167.709,104.722 167.723,104.734C167.661,104.779 167.594,104.785 167.545,104.869C167.506,104.857 167.506,104.855 167.477,104.865C167.472,104.883 167.463,104.896 167.456,104.914L167.473,104.916C167.544,104.977 167.658,104.887 167.737,104.877C167.738,104.882 167.74,104.89 167.741,104.895C167.59,105.176 167.306,105.446 167.004,105.484C166.9,105.471 166.799,105.458 166.696,105.444C166.588,105.468 166.496,105.56 166.371,105.559L166.367,105.577L166.381,105.581C166.458,105.624 166.78,105.612 166.876,105.605C167.004,105.6 167.084,105.631 167.2,105.613C167.346,105.591 167.508,105.446 167.619,105.356C167.642,105.313 167.666,105.272 167.69,105.229C167.726,105.198 167.761,105.168 167.798,105.137C167.835,105.05 167.874,104.961 167.912,104.878C167.961,104.906 168.006,104.934 168.055,104.961C168.029,105.012 168.005,105.061 167.992,105.086C167.955,105.141 167.943,105.256 167.941,105.326C167.941,105.406 167.905,105.457 167.921,105.529C168.003,105.871 168.394,106.105 168.696,106.261C168.79,106.296 168.881,106.325 168.973,106.36C169.03,106.371 169.083,106.377 169.141,106.384C169.219,106.433 169.246,106.55 169.331,106.614C169.33,106.589 169.329,106.562 169.325,106.536C169.298,106.515 169.267,106.497 169.24,106.477L169.242,106.459C169.244,106.455 169.248,106.451 169.251,106.444C169.484,106.446 169.705,106.636 169.915,106.574C169.914,106.566 169.912,106.561 169.908,106.556C169.631,106.423 169.209,106.37 169.123,106.072C169.128,106.062 169.135,106.055 169.141,106.049C169.216,106.055 169.258,106.033 169.317,106.029C169.306,106.095 169.323,106.127 169.356,106.164C169.403,106.144 169.405,106.114 169.471,106.117C169.516,106.219 169.7,106.295 169.803,106.296C169.809,106.283 169.813,106.268 169.819,106.256C169.669,106.176 169.368,105.957 169.268,105.83C169.224,105.839 169.181,105.85 169.136,105.857C169.131,105.849 169.123,105.837 169.117,105.828C169.121,105.747 169.135,105.603 169.19,105.578C169.201,105.576 169.213,105.576 169.226,105.575C169.361,105.908 169.796,106.106 170.092,106.296C170.099,106.298 170.105,106.299 170.113,106.3C170.152,106.344 170.191,106.383 170.226,106.414C170.23,106.377 170.236,106.34 170.24,106.303C170.215,106.239 170.195,106.174 170.16,106.117C170.074,106.04 169.986,105.961 169.901,105.885C169.736,105.656 169.683,105.338 169.703,105.055C169.737,105.024 169.769,104.991 169.805,104.957C169.832,105.021 169.866,105.087 169.922,105.1L169.936,105.109C169.942,105.09 169.946,105.079 169.952,105.06C169.934,105.028 169.933,105.028 169.899,105.004C169.908,104.954 169.899,104.914 169.887,104.879C169.965,104.807 170.042,104.733 170.116,104.65C170.12,104.686 170.13,104.721 170.147,104.754C170.159,104.752 170.17,104.748 170.184,104.742C170.194,104.732 170.205,104.724 170.213,104.713C170.205,104.67 170.198,104.609 170.195,104.547C170.22,104.514 170.25,104.481 170.273,104.443C170.318,104.577 170.358,104.71 170.398,104.843C170.351,104.873 170.306,104.911 170.27,104.96C170.23,104.946 170.202,104.93 170.165,104.938C170.111,104.988 170.086,105.042 170.068,105.089C170.142,105.144 170.276,105.071 170.408,104.984C170.404,105.058 170.404,105.146 170.4,105.22C170.42,105.122 170.433,105.024 170.455,104.926C170.689,103.683 171.467,102.671 172.215,101.808C172.591,101.373 173.031,101.042 173.506,100.779C174.658,103.53 176.685,105.86 178.197,108.263C179.168,109.729 180.138,111.197 181.109,112.662C181.13,112.705 181.152,112.748 181.173,112.792C182.058,110.872 182.943,108.952 183.826,107.032C184.422,105.68 185.141,104.321 185.847,102.919C186.363,103.071 186.89,103.193 187.449,103.232C189.724,103.389 191.24,104.211 192.949,105.819C192.951,105.814 192.955,105.812 192.959,105.806C193.053,105.668 193.08,105.43 193.105,105.275C193.1,105.259 193.098,105.242 193.093,105.226C193.184,105.302 193.279,105.359 193.341,105.489C193.268,105.633 193.133,105.748 192.986,105.853C193.06,105.923 193.132,105.986 193.207,106.058C193.314,106.163 193.394,106.276 193.481,106.385C193.482,106.384 193.482,106.382 193.484,106.382C193.541,106.374 193.595,106.368 193.652,106.358C193.745,106.324 193.836,106.295 193.927,106.259C194.231,106.103 194.621,105.868 194.704,105.527C194.72,105.455 194.684,105.404 194.683,105.324C194.683,105.254 194.671,105.138 194.636,105.084C194.62,105.059 194.595,105.01 194.571,104.959C194.619,104.932 194.666,104.904 194.713,104.876C194.752,104.959 194.791,105.048 194.828,105.135C194.863,105.166 194.9,105.196 194.936,105.227C194.96,105.27 194.984,105.311 195.005,105.354C195.117,105.444 195.28,105.588 195.425,105.611C195.54,105.63 195.622,105.598 195.751,105.603C195.845,105.61 196.168,105.622 196.245,105.579L196.257,105.575L196.255,105.557C196.129,105.558 196.037,105.466 195.931,105.442C195.827,105.456 195.724,105.469 195.622,105.482C195.319,105.444 195.036,105.174 194.884,104.893C194.887,104.888 194.887,104.88 194.89,104.875C194.966,104.885 195.08,104.975 195.153,104.914L195.17,104.912C195.162,104.894 195.153,104.881 195.149,104.863C195.119,104.853 195.119,104.855 195.082,104.867C195.031,104.783 194.966,104.777 194.903,104.732C194.917,104.72 194.93,104.708 194.946,104.695C195.03,104.664 195.119,104.708 195.217,104.697C195.221,104.733 195.231,104.765 195.242,104.795C195.33,104.772 195.371,104.591 195.4,104.41C195.505,104.347 195.605,104.281 195.658,104.172C195.654,104.168 195.649,104.168 195.641,104.166C195.572,104.2 195.495,104.245 195.417,104.293C195.431,104.217 195.44,104.152 195.454,104.105C195.474,104.03 195.491,103.95 195.507,103.871C195.542,103.857 195.576,103.845 195.609,103.833C195.636,103.813 195.666,103.792 195.693,103.772C195.675,103.747 195.66,103.721 195.642,103.698C195.622,103.705 195.602,103.714 195.579,103.719C195.565,103.723 195.548,103.727 195.534,103.733C195.571,103.532 195.6,103.327 195.63,103.114C195.642,103.083 195.657,103.055 195.671,103.028C195.722,102.719 195.769,102.43 195.782,102.098C195.79,101.907 195.606,101.754 195.63,101.582C195.651,101.561 195.641,101.571 195.668,101.576C195.756,101.467 195.659,101.219 195.659,101.019C195.748,100.952 195.788,101.037 195.847,101.048C195.897,101.055 195.931,101.014 195.975,101.04C196.097,101.124 196.162,101.323 196.218,101.485C196.226,101.594 196.229,101.702 196.234,101.808C196.252,101.823 196.271,101.838 196.293,101.848C196.316,101.901 196.318,102.023 196.337,102.073C196.348,102.078 196.359,102.087 196.367,102.094C196.426,101.93 196.312,101.823 196.314,101.631C196.314,101.535 196.33,101.473 196.314,101.356C196.226,101.342 196.228,101.264 196.212,101.16L196.21,101.153C196.222,101.149 196.235,101.143 196.247,101.137C196.313,101.192 196.325,101.191 196.351,101.309C196.361,101.312 196.371,101.315 196.38,101.318C196.389,101.301 196.398,101.282 196.405,101.264C196.424,101.254 196.445,101.244 196.466,101.237C196.497,101.264 196.513,101.284 196.562,101.286C196.599,101.335 196.597,101.383 196.576,101.438C196.597,101.456 196.609,101.463 196.644,101.459C196.678,101.418 196.695,101.387 196.752,101.361C196.798,101.403 196.819,101.43 196.882,101.451C196.879,101.541 196.883,101.511 196.913,101.583C196.811,101.791 196.716,102.037 196.587,102.227C196.592,102.258 196.599,102.291 196.608,102.325C196.625,102.327 196.642,102.325 196.658,102.325C196.703,102.265 196.707,102.178 196.783,102.147C196.801,102.273 196.736,102.346 196.679,102.407L196.682,102.432C196.691,102.442 196.701,102.452 196.707,102.462L196.736,102.457C196.797,102.369 196.945,102.033 196.943,101.91L196.894,101.92C196.879,101.998 196.841,102.039 196.837,102.11C196.822,102.116 196.809,102.12 196.796,102.131C196.774,101.962 196.883,101.859 196.937,101.752L196.952,101.746C196.965,101.767 196.976,101.783 196.989,101.8C196.996,101.803 197.006,101.811 197.013,101.815C197.046,101.768 197.066,101.644 197.047,101.577C197.051,101.573 197.054,101.569 197.06,101.567C197.107,101.584 197.132,101.604 197.16,101.651C197.197,102.046 196.765,102.724 196.472,102.814C196.478,102.832 196.482,102.852 196.486,102.87C196.383,102.958 196.24,103.011 196.297,103.214C196.322,103.296 196.313,103.348 196.352,103.392L196.366,103.392C196.4,103.346 196.382,103.277 196.411,103.227C196.455,103.187 196.497,103.142 196.543,103.101C196.546,103.099 196.552,103.094 196.556,103.089C196.576,103.046 196.543,103.02 196.572,102.984C196.72,102.798 197.127,102.38 197.155,102.133C197.188,102.105 197.201,102.112 197.229,102.145C197.24,102.142 197.253,102.136 197.264,102.128C197.264,102.118 197.267,102.107 197.267,102.097C197.244,102.085 197.219,102.074 197.197,102.066C197.203,102.039 197.209,102.01 197.215,101.984L197.244,101.98C197.256,101.996 197.267,102.008 197.281,102.024C197.281,102.024 197.308,101.617 197.31,101.584C197.376,101.535 197.547,101.627 197.636,101.643C197.646,101.639 197.654,101.635 197.661,101.63C197.669,101.621 197.671,101.609 197.675,101.602C197.624,101.565 197.603,101.547 197.529,101.569C197.521,101.531 197.513,101.493 197.506,101.454L197.623,101.433C197.629,101.418 197.633,101.409 197.641,101.395C197.606,101.348 197.532,101.317 197.483,101.293L197.483,101.276C197.499,101.255 197.5,101.252 197.53,101.24L197.525,101.192C197.491,101.15 197.399,101.15 197.358,101.119C197.368,101.017 197.454,100.93 197.467,100.832C197.461,100.766 197.454,100.697 197.447,100.631C197.398,100.272 197.172,100.393 197.022,100.219C196.986,100.184 197.021,100.129 196.994,100.071C196.973,100.017 196.872,99.935 196.826,99.919C196.803,99.921 196.781,99.923 196.76,99.923C196.739,99.788 196.68,99.8 196.651,99.711C196.649,99.63 196.647,99.544 196.647,99.463C196.598,99.294 196.551,99.126 196.504,98.956C196.598,98.784 196.693,98.609 196.788,98.435C196.918,98.095 196.978,97.483 196.807,97.022C197.14,97.189 197.473,97.356 197.807,97.523C198.267,98.707 198.203,100.343 198.518,101.793C198.971,104.317 199.424,106.842 199.877,109.365L200.006,109.429C199.418,105.466 198.685,101.285 198,97.457C197.594,97.292 197.188,97.126 196.783,96.96C196.762,96.913 196.753,96.858 196.726,96.815C196.74,96.772 196.749,96.731 196.761,96.688C196.731,96.663 196.676,96.676 196.644,96.633C196.47,96.41 196.396,96.104 196.252,95.836C196.085,95.518 195.86,95.164 195.657,94.879C195.58,94.774 195.452,94.385 195.344,94.369C195.291,94.279 195.297,93.422 195.297,93.254C195.297,93.12 195.219,93.025 195.188,92.938C195.104,92.711 195.012,92.459 195.006,92.262C194.883,92.122 194.762,91.964 194.686,91.75C194.664,91.625 194.641,91.497 194.622,91.369C194.602,91.314 194.554,91.281 194.536,91.237C194.399,90.898 194.268,90.55 194.13,90.197L194.122,90.146L194.151,90.14C194.224,90.23 194.298,90.32 194.372,90.409C194.438,90.548 194.436,90.73 194.508,90.865C194.54,90.929 194.619,91.051 194.645,91.115C194.677,91.189 194.658,91.257 194.689,91.33C194.714,91.376 194.741,91.42 194.766,91.463C194.779,91.535 194.791,91.608 194.804,91.678C194.833,91.758 194.898,91.873 194.937,91.948C195.044,92.163 195.051,92.393 195.151,92.614C195.222,92.768 195.336,92.948 195.413,93.106C195.601,93.503 195.809,94.002 196.108,94.207C196.111,94.201 196.117,94.194 196.121,94.186C196.063,94.03 195.944,93.96 195.867,93.846C195.808,93.762 195.815,93.708 195.767,93.6C195.747,93.556 195.648,93.442 195.618,93.387C195.553,93.256 195.557,93.147 195.496,93.022C195.31,92.639 195.133,92.178 194.971,91.761C194.955,91.68 194.939,91.594 194.922,91.512C194.817,91.237 194.707,90.911 194.581,90.637L194.576,90.594C194.674,90.612 194.964,90.987 195.043,91.088C195.232,91.326 195.465,91.578 195.615,91.875C195.816,92.264 195.984,92.659 196.254,92.936L196.278,92.942C196.283,92.934 196.287,92.929 196.29,92.921C196.253,92.689 195.987,92.357 195.894,92.169C195.814,92.018 195.789,91.87 195.701,91.733C195.59,91.561 195.449,91.367 195.345,91.184C195.274,91.063 195.223,90.94 195.137,90.84C194.974,90.648 194.805,90.462 194.637,90.276C194.551,90.179 194.437,90.13 194.366,90.008C194.354,89.965 194.345,89.92 194.333,89.875C194.298,89.786 194.22,89.645 194.185,89.551C194.064,89.233 194.171,89.074 194.257,88.861C194.415,88.462 194.593,88.065 194.705,87.632C194.701,87.589 194.698,87.55 194.694,87.505C194.701,87.22 194.554,87.149 194.313,87.194C194.284,87.116 194.36,86.79 194.407,86.751L194.382,86.564C194.263,86.321 193.618,86.327 193.39,86.177C193.312,86.127 193.311,85.975 193.316,85.856C193.336,85.485 193.123,85.272 193.125,84.932C193.148,84.918 193.173,84.909 193.195,84.901C193.209,84.856 193.184,84.807 193.197,84.748C193.219,84.636 193.324,84.517 193.336,84.345C193.354,84.08 193.022,83.835 192.906,83.743C192.851,83.7 192.713,83.675 192.687,83.595C192.685,83.556 192.685,83.519 192.685,83.484C192.537,83.392 192.416,83.236 192.279,83.101C192.25,83.111 192.258,83.113 192.222,83.13L192.216,83.13C192.211,83.114 192.205,83.099 192.202,83.083L192.159,83.091C192.018,82.943 191.872,82.739 191.773,82.54C191.731,82.444 191.691,82.346 191.651,82.247C191.575,82.112 191.458,81.908 191.399,81.757C191.379,81.639 191.358,81.521 191.337,81.4C191.291,81.285 191.242,81.16 191.197,81.033C190.593,78.035 189.795,74.476 187.523,73.314C187.302,73.025 187.08,72.737 186.859,72.447C186.386,72.183 185.915,71.92 185.441,71.653C185.087,71.574 184.734,71.497 184.38,71.416C184.118,71.35 183.858,71.282 183.599,71.214C183.481,71.128 183.363,71.043 183.245,70.959C183.018,70.949 182.791,70.938 182.562,70.929C182.553,70.926 182.542,70.923 182.534,70.921C182.174,70.817 181.752,70.836 181.314,70.869C180.876,70.836 180.454,70.817 180.094,70.921C180.083,70.923 180.074,70.925 180.064,70.929C179.837,70.938 179.611,70.949 179.382,70.959C179.265,71.043 179.147,71.128 179.028,71.214C178.769,71.282 178.508,71.35 178.247,71.416C177.894,71.497 177.541,71.574 177.187,71.653C176.714,71.92 176.241,72.183 175.769,72.447C175.546,72.737 175.324,73.025 175.104,73.314C172.833,74.476 172.035,78.035 171.431,81.033C171.384,81.16 171.337,81.285 171.29,81.4C171.27,81.521 171.249,81.639 171.228,81.757C171.169,81.908 171.052,82.112 170.979,82.247C170.936,82.346 170.895,82.444 170.855,82.54C170.756,82.739 170.609,82.942 170.469,83.091L170.426,83.083C170.422,83.099 170.416,83.114 170.412,83.13L170.404,83.13C170.371,83.112 170.377,83.11 170.35,83.101C170.21,83.236 170.091,83.392 169.941,83.484C169.943,83.519 169.942,83.556 169.941,83.595C169.916,83.675 169.777,83.7 169.722,83.743C169.607,83.835 169.275,84.08 169.292,84.345C169.304,84.517 169.407,84.636 169.431,84.748C169.444,84.808 169.419,84.856 169.432,84.901C169.454,84.909 169.478,84.919 169.502,84.932C169.505,85.272 169.291,85.485 169.312,85.856C169.316,85.975 169.316,86.127 169.238,86.177C169.009,86.326 168.363,86.321 168.245,86.564L168.221,86.751C168.266,86.79 168.345,87.116 168.315,87.194C168.074,87.148 167.926,87.219 167.933,87.505C167.93,87.55 167.928,87.589 167.924,87.632C168.034,88.066 168.213,88.462 168.372,88.861C168.457,89.075 168.562,89.233 168.442,89.551C168.407,89.645 168.33,89.786 168.295,89.875C168.284,89.92 168.274,89.965 168.262,90.008C168.192,90.13 168.074,90.179 167.991,90.276C167.823,90.463 167.655,90.648 167.491,90.84C167.404,90.94 167.353,91.063 167.282,91.184C167.177,91.367 167.037,91.561 166.927,91.733C166.838,91.87 166.814,92.017 166.734,92.169C166.641,92.357 166.375,92.689 166.338,92.921C166.342,92.93 166.345,92.935 166.351,92.942L166.373,92.936C166.643,92.66 166.811,92.264 167.013,91.875C167.164,91.578 167.397,91.326 167.584,91.088C167.665,90.986 167.954,90.611 168.053,90.594L168.047,90.637C167.921,90.911 167.813,91.237 167.707,91.512C167.69,91.594 167.674,91.68 167.656,91.761C167.495,92.178 167.318,92.639 167.133,93.022C167.072,93.147 167.076,93.256 167.01,93.387C166.982,93.442 166.881,93.556 166.862,93.6C166.814,93.708 166.821,93.762 166.762,93.846C166.684,93.96 166.565,94.03 166.508,94.186C166.512,94.194 166.516,94.201 166.521,94.207C166.821,94.003 167.026,93.504 167.215,93.106C167.293,92.948 167.404,92.768 167.477,92.614C167.579,92.393 167.582,92.163 167.693,91.948C167.731,91.874 167.797,91.759 167.825,91.678C167.837,91.608 167.848,91.535 167.862,91.463C167.887,91.42 167.914,91.376 167.938,91.33C167.971,91.257 167.952,91.189 167.983,91.115C168.008,91.051 168.087,90.929 168.12,90.865C168.19,90.73 168.188,90.548 168.255,90.409C168.331,90.32 168.403,90.23 168.478,90.14L168.505,90.146L168.499,90.197C168.36,90.551 168.228,90.898 168.091,91.237C168.075,91.281 168.027,91.314 168.007,91.369C167.986,91.497 167.964,91.625 167.942,91.75C167.867,91.964 167.744,92.122 167.623,92.262C167.616,92.459 167.525,92.711 167.441,92.938C167.408,93.026 167.332,93.121 167.332,93.254C167.332,93.422 167.337,94.279 167.285,94.369C167.176,94.385 167.049,94.773 166.972,94.879C166.769,95.164 166.544,95.518 166.376,95.836C166.233,96.104 166.159,96.41 165.985,96.633C165.952,96.676 165.897,96.662 165.868,96.688C165.881,96.731 165.89,96.772 165.903,96.815C165.614,97.277 165.692,98.044 165.84,98.434C165.934,98.609 166.03,98.784 166.125,98.955C166.078,99.125 166.03,99.293 165.982,99.462C165.982,99.464 165.982,99.465 165.982,99.467C165.914,99.509 165.844,99.551 165.775,99.592C165.589,99.815 165.488,100.066 165.41,100.334C165.306,100.371 165.211,100.412 165.181,100.631C165.173,100.697 165.166,100.766 165.161,100.832C165.173,100.908 165.219,100.978 165.247,101.055C165.241,101.08 165.235,101.108 165.231,101.134C165.185,101.151 165.128,101.16 165.102,101.193L165.097,101.241C165.127,101.253 165.129,101.256 165.144,101.277L165.143,101.294C165.094,101.317 165.021,101.349 164.987,101.396C164.993,101.41 164.999,101.419 165.006,101.434L165.122,101.455C165.113,101.494 165.106,101.532 165.097,101.57C165.024,101.549 165.003,101.566 164.951,101.603C164.956,101.61 164.958,101.623 164.964,101.631C164.974,101.636 164.983,101.64 164.991,101.644C165.029,101.637 165.086,101.615 165.139,101.597C165.135,101.62 165.131,101.641 165.126,101.664C164.889,102.807 164.651,103.95 164.414,105.093C164.393,106.956 164.374,108.82 164.353,110.683C164.457,107.638 164.642,104.376 165.191,101.988C165.216,101.854 165.241,101.721 165.267,101.588ZM195.204,103.518L195.319,103.497C195.354,103.58 195.403,103.605 195.426,103.674C195.438,103.711 195.434,103.741 195.428,103.769C195.246,103.829 195.048,103.907 194.86,103.948C194.968,103.799 195.101,103.668 195.204,103.518ZM169.53,105.229C169.526,105.245 169.524,105.262 169.52,105.278C169.545,105.433 169.571,105.672 169.666,105.809C169.722,105.889 169.779,105.936 169.842,105.997C169.619,105.856 169.389,105.701 169.283,105.492C169.346,105.361 169.441,105.305 169.53,105.229ZM167.199,103.674C167.222,103.606 167.272,103.58 167.307,103.497L167.42,103.518C167.525,103.668 167.657,103.799 167.767,103.948C167.577,103.907 167.379,103.829 167.199,103.769C167.191,103.741 167.188,103.711 167.199,103.674ZM165.979,99.68C165.978,99.692 165.978,99.701 165.978,99.712C165.947,99.801 165.888,99.789 165.868,99.924C165.845,99.924 165.823,99.922 165.802,99.92C165.767,99.933 165.712,99.981 165.671,100.026C165.763,99.91 165.862,99.794 165.979,99.68ZM165.515,100.24C165.549,100.186 165.593,100.134 165.632,100.08C165.612,100.135 165.64,100.187 165.605,100.221C165.575,100.256 165.541,100.274 165.506,100.291C165.509,100.274 165.513,100.258 165.515,100.24Z" style="fill-rule:nonzero;"/>
    </g>
</svg>
