<?xml version="1.0" encoding="UTF-8" standalone="no"?>
<!DOCTYPE svg PUBLIC "-//W3C//DTD SVG 1.1//EN" "http://www.w3.org/Graphics/SVG/1.1/DTD/svg11.dtd">
<svg width="100%" height="100%" viewBox="0 0 1863 3411" version="1.1" xmlns="http://www.w3.org/2000/svg" xmlns:xlink="http://www.w3.org/1999/xlink" xml:space="preserve" xmlns:serif="http://www.serif.com/" style="fill-rule:evenodd;clip-rule:evenodd;stroke-linejoin:round;stroke-miterlimit:1.41421;">
    <g transform="matrix(1,0,0,1,-286.5,-3876.87)">
        <path d="M708.9,7200.9C647.3,7200.9 597.3,7150.8 597.3,7089.2L597.3,6931C597.3,6869.4 647.4,6819.4 708.9,6819.4L780.1,6819.4L780.1,6758.7C780.1,6723.7 808.6,6695.2 843.6,6695.2L1024,6695.2C1054.8,6695.2 1080.5,6717.2 1086.3,6746.3C1107.2,6676.6 1122.3,6612.8 1126.4,6564.6C1143.9,6357.9 1087.5,6264.7 1063.1,6160.9C1050.9,6070.2 1048.6,5956.7 1086.4,5809.8C1116.7,5691.9 1355.9,5111.5 1355.9,5111.5C1355.9,5111.5 1264.7,5216.4 1045,5250.6C825.2,5284.8 640.4,5277.1 640.4,5277.1C640.4,5277.1 903.4,5733.1 805,5880.7C719.9,6008.4 546,6041.8 470.7,6208.3C389.5,6354.9 401.8,6447.9 401.2,6511.8C399.5,6697.1 523.7,7287.7 523.7,7287.7L877.7,7287.7C877.7,7287.7 892.8,7254.3 915.5,7201.1L708.9,7201.1L708.9,7200.9Z" style="fill-rule:nonzero;"/>
        <path d="M1024.1,6709.2L843.7,6709.2C816.5,6709.2 794.3,6731.4 794.3,6758.6L794.3,6819.3L1020.6,6819.3C1034.7,6819.3 1048.2,6822 1060.6,6826.8C1065,6813.6 1069.3,6800.6 1073.5,6787.6L1073.5,6758.6C1073.5,6731.4 1051.3,6709.2 1024.1,6709.2Z" style="fill-rule:nonzero;"/>
        <path d="M843.7,6899.6L1024.1,6899.6C1028.1,6899.6 1032,6899.1 1035.7,6898.2C1041.1,6883.3 1046.4,6868.4 1051.5,6853.5C1041.9,6849.7 1031.5,6847.5 1020.6,6847.5L794.2,6847.5L794.2,6850.1C794.2,6877.5 816.4,6899.6 843.7,6899.6Z" style="fill-rule:nonzero;"/>
        <path d="M708.9,6847.6C662.9,6847.6 625.5,6885 625.5,6931L625.5,7089.3C625.5,7135.3 662.9,7172.7 708.9,7172.7L927.6,7172.7C956.9,7103.1 995,7009.5 1030.1,6913.5C1028.1,6913.7 1026.1,6913.8 1024.1,6913.8L843.7,6913.8C808.7,6913.8 780.2,6885.3 780.2,6850.3L780.2,6847.7L708.9,6847.7L708.9,6847.6Z" style="fill-rule:nonzero;"/>
        <path d="M514.7,4849C514.7,4849 553.7,4709.5 550.2,4709.2C546.7,4708.9 317.5,4659.2 317.5,4659.2L286.5,4805.4L514.7,4849Z" style="fill-rule:nonzero;"/>
        <g>
            <path d="M1665,6343.8L1675.5,6387.5C1675.1,6387.6 1674.7,6387.7 1674.3,6387.8L1664.4,6344.4L1665,6343.8Z" style="fill-rule:nonzero;"/>
            <path d="M2015.5,5650.5L2015.6,5650.6L2014.1,5651.9L2015.5,5650.5Z" style="fill-rule:nonzero;"/>
            <path d="M1453.7,5793L1330.8,5904.7L1313,5820.6L1312.7,5820.5L1315,5818.1L1406,5736.8L1416.1,5738.9L1442.9,5746.2L1453.7,5793Z" style="fill-rule:nonzero;"/>
            <path d="M1416.1,5738.9L1442.6,5744.6L1442.9,5746.2L1416.1,5738.9Z" style="fill-rule:nonzero;"/>
            <path d="M1453.7,5793L1442.9,5746.2L1445.2,5746.8L1455.3,5791.5L1453.7,5793Z" style="fill-rule:nonzero;"/>
            <path d="M1445.2,5746.8L1442.9,5746.2L1442.6,5744.6L1444.9,5745.1L1445.2,5746.8Z" style="fill-rule:nonzero;"/>
            <path d="M1312.7,5820.5L1313,5820.6L1312.5,5820.7L1312.7,5820.5Z" style="fill-rule:nonzero;"/>
            <path d="M1507.7,5726.9L1526.5,5712.1L1508,5728.4L1507.7,5726.9Z" style="fill-rule:nonzero;"/>
            <path d="M1507.5,5728.8L1508,5728.4L1518.4,5773.7L1518.3,5773.7L1507.5,5728.8Z" style="fill-rule:nonzero;"/>
            <path d="M1507.5,5728.8L1507.1,5727.4L1507.7,5726.9L1508,5728.4L1507.5,5728.8Z" style="fill-rule:nonzero;"/>
            <path d="M1265.6,5506.8L1260.9,5487.1C1262.3,5486.4 1263.8,5485.8 1265.2,5485.1L1270.5,5508.1L1265.6,5506.8Z" style="fill-rule:nonzero;"/>
            <path d="M1423.4,5391.1L1435.4,5443.3L1498.1,5387.3L1539.5,5398.5L1549,5440.6L1475.2,5505.4L1455.8,5520.6L1456.2,5522.1L1455.5,5522.7L1425.8,5548.8L1414.1,5502.8L1406.1,5471.4L1403,5470.4L1369.8,5459.4L1363.4,5431.4C1385,5418 1405,5404.4 1423.4,5391.1Z" style="fill-rule:nonzero;"/>
            <path d="M1307.6,5665.7L1326.4,5651L1308,5667.2L1307.6,5665.7Z" style="fill-rule:nonzero;"/>
            <path d="M1353.7,5530.7L1270.4,5508.2L1265.1,5485.2C1289.1,5473.9 1311.9,5461.8 1333.5,5449.3L1369.8,5459.4L1403,5470.4L1406.1,5471.4L1414.1,5502.8L1425.8,5548.8L1455.5,5522.7L1485.6,5650.9L1552.2,5591.5L1578.1,5597L1591.3,5600.6L1601.6,5646.2L1526.7,5712.1L1507.7,5728.8L1518.4,5773.6L1518.6,5773.6L1537.5,5855.9L1529,5864.8L1511.3,5880.6L1471.4,5869.5L1453.8,5792.8L1455.5,5791.3L1445.4,5746.6L1445,5744.8L1442.7,5744.3L1416.2,5738.7L1318.5,5712.3L1308.1,5667L1326.6,5650.8L1338.5,5641.4L1418.9,5663.8L1400.9,5585.4L1401.6,5584.8L1391.7,5540.7L1353.7,5530.7Z" style="fill-rule:nonzero;"/>
            <path d="M1391.5,5540.9L1390.4,5540.6L1389.9,5538.3L1390.9,5538.6L1391.5,5540.9Z" style="fill-rule:nonzero;"/>
            <path d="M1209.7,5512.8L1208.9,5509.5C1226.8,5502.5 1244.1,5495.1 1260.9,5487.2L1265.6,5506.9L1270.4,5508.2L1289.1,5586.7L1352.1,5530.4L1353.8,5530.8L1394.7,5539.8L1402.4,5585.5L1326.4,5651.1L1307.6,5665.9L1307.4,5667.8L1318.1,5712.6L1318.3,5712.7L1340.8,5804.4L1312.3,5820.6L1271.2,5809.1L1252.4,5727.1L1223.4,5603.1L1222.8,5602.9L1203.4,5518.3L1209.7,5512.8Z" style="fill-rule:nonzero;"/>
            <path d="M1307.4,5667.6L1308,5667.2L1318.4,5712.5L1318.2,5712.4L1307.4,5667.6Z" style="fill-rule:nonzero;"/>
            <path d="M1315,5818.1L1312.7,5820.5L1312.4,5820.4L1315,5818.1Z" style="fill-rule:nonzero;"/>
            <path d="M1312.1,5820.8L1312.1,5820.7L1312.4,5820.4L1312.7,5820.5L1312.5,5820.7L1312.1,5820.8Z" style="fill-rule:nonzero;"/>
            <path d="M1307.4,5667.6L1307.1,5666.1L1307.6,5665.7L1308,5667.2L1307.4,5667.6Z" style="fill-rule:nonzero;"/>
            <path d="M1455.8,5520.7L1475.2,5505.4L1456.2,5522.2L1455.8,5520.7Z" style="fill-rule:nonzero;"/>
            <path d="M1508,5728.4L1526.5,5712.1L1538.4,5702.8L1637.1,5730.3L1658.7,5736.3L1677.7,5719.3L1751.1,5653.8L1792,5664.9L1801.6,5707.4L1708.1,5789.6L1737.4,5917.2L1712.5,5943.3L1679.8,5934.2L1671.5,5931.4L1653.4,5852.5L1560.6,5934L1546.6,5872.8L1514,5880.4L1528.8,5864.9L1604.7,5797.2L1606.3,5797.5L1518.4,5773.7L1508,5728.4Z" style="fill-rule:nonzero;"/>
            <path d="M1475.2,5505.4L1487.1,5496.1L1567.1,5518.4L1607.4,5529.7L1633.5,5506.3L1696.8,5449.8L1740.2,5461.6L1749.4,5501.5L1656.9,5582.9L1686.1,5710.5L1677.7,5719.3L1658.7,5736.3L1637.1,5730.3L1620.1,5724.7L1591.7,5600.7L1591.2,5600.6L1578.1,5597L1466.9,5567L1456.2,5522.2L1475.2,5505.4Z" style="fill-rule:nonzero;"/>
            <path d="M1418.9,6229.3L1444.9,6206.1L1423.4,6228.6L1419.5,6229.5L1418.9,6229.3Z" style="fill-rule:nonzero;"/>
            <path d="M1418.6,6229.7L1418.6,6229.6L1418.9,6229.3L1419.5,6229.5L1418.6,6229.7Z" style="fill-rule:nonzero;"/>
            <path d="M1419.5,6229.5L1423.4,6228.6L1420.4,6231.7L1420,6229.6L1419.5,6229.5Z" style="fill-rule:nonzero;"/>
            <path d="M1419.3,6232.6L1413.8,6230.8L1418.6,6229.7L1419.3,6232.6Z" style="fill-rule:nonzero;"/>
            <path d="M1419.5,6232.7L1420.4,6231.7L1426.9,6262.7L1419.3,6232.6L1419.5,6232.7Z" style="fill-rule:nonzero;"/>
            <path d="M1419.5,6229.5L1420,6229.6L1420.4,6231.7L1419.5,6232.7L1419.3,6232.6L1418.6,6229.7L1419.5,6229.5Z" style="fill-rule:nonzero;"/>
            <path d="M1439.9,6056.9L1416.4,6077.6L1416,6075.8L1439.9,6056.9Z" style="fill-rule:nonzero;"/>
            <path d="M1496.2,6258.1L1578.7,6281.1L1611.9,6292.2L1584.5,6298.5L1598.6,6360L1562.5,6352.3L1479.2,6329.7L1468.4,6282.6L1496.2,6258.1Z" style="fill-rule:nonzero;"/>
            <path d="M1467.5,6278.8L1468.4,6282.6L1464.3,6286.2L1463.3,6282.1L1467.5,6278.8Z" style="fill-rule:nonzero;"/>
            <path d="M1497.7,6410.2L1491.8,6416.4C1490.7,6416.5 1489.5,6416.6 1488.4,6416.7L1497.4,6408.7L1497.7,6410.2Z" style="fill-rule:nonzero;"/>
            <path d="M1459.2,5942L1372.2,5918.5L1361.9,5873.7L1391.7,5847.5L1471.3,5869.7L1528.9,5865L1546.7,5872.9L1560.7,5934.1L1590,6061.8L1643.8,6115.7L1726.9,6138.9L1761,6150.3L1757.8,6262.4L1706.9,6209.1L1626.4,6187.3L1652.7,6293.8L1652.7,6293.9L1664.3,6344.5L1674.2,6387.9C1653.2,6392.6 1629.5,6397.2 1608,6401C1607.7,6401.1 1607.4,6401.1 1607,6401.2C1606.7,6401.2 1606.3,6401.3 1606,6401.4C1568,6407.9 1529.6,6412.9 1491.7,6416.6L1497.6,6410.4L1497.3,6408.9L1560.9,6352.1L1597.4,6359.9L1585.5,6303.3L1560.4,6201.8L1550.2,6157.3L1511.5,6146.8L1426.9,6123.9L1416.4,6077.8L1439.9,6057.1L1445.6,6052.7L1523.5,6074.4L1506.2,5998.8L1459.2,5942Z" style="fill-rule:nonzero;"/>
            <path d="M1347,6402L1418.1,6421.8C1387,6423.4 1356.5,6424.1 1326.8,6424.1L1325.6,6418.9L1347,6402Z" style="fill-rule:nonzero;"/>
            <path d="M1842.3,6327.9L1905.5,6271.4L1949,6283.2L1949,6283.3C1913.4,6305 1874.4,6323.8 1833.1,6340L1842.8,6329.9L1842.3,6327.9Z" style="fill-rule:nonzero;"/>
            <path d="M1842.7,6330L1833,6340.1C1830.4,6341.1 1827.8,6342.1 1825.2,6343.1L1842.2,6328L1842.7,6330Z" style="fill-rule:nonzero;"/>
            <path d="M1644.2,6264.9L1706.9,6208.9L1738.2,6239L1757.8,6262.2L1710.3,6321.7L1775.9,6340L1776.8,6344.1L1800.7,6352C1760.5,6366 1718.5,6377.8 1675.6,6387.4L1665.3,6344.2L1664.4,6344.3L1644.2,6264.9Z" style="fill-rule:nonzero;"/>
            <path d="M1775.8,6340L1808.7,6349.2C1806,6350.2 1803.3,6351.1 1800.6,6352.1L1776.7,6344.2L1775.8,6340Z" style="fill-rule:nonzero;"/>
            <path d="M967.1,5739L986,5724.1L967.4,5740.4L967.1,5739Z" style="fill-rule:nonzero;"/>
            <path d="M977.8,5785.7L977.7,5785.7L966.9,5740.9L967.4,5740.4L977.8,5785.7Z" style="fill-rule:nonzero;"/>
            <path d="M966.9,5740.9L966.5,5739.4L967.1,5739L967.4,5740.4L966.9,5740.9Z" style="fill-rule:nonzero;"/>
            <path d="M970.2,5893.2L970.2,5893.1L970.5,5892.8L971.1,5893L970.2,5893.2Z" style="fill-rule:nonzero;"/>
            <path d="M1203.5,5518.2L1202.1,5512.1C1204.4,5511.2 1206.6,5510.3 1208.9,5509.5L1209.7,5512.8L1203.5,5518.2Z" style="fill-rule:nonzero;"/>
            <path d="M1050.4,5611.8L1050.6,5612.6L1037.4,5609.1L1050.4,5611.8Z" style="fill-rule:nonzero;"/>
            <path d="M1107,5604.9L1116.8,5597.2L1129.9,5654.4L1118.1,5651.2L1107,5604.9Z" style="fill-rule:nonzero;"/>
            <path d="M986,5724.1L997.8,5714.8L1091.2,5740.9L1096.5,5717.5L1153.5,5740.5L1186.5,5785L1271.3,5809L1322.6,5821.8L1330.3,5900.6L1303.9,5897.2L1181,5860.1L1204.9,5937.6L1175,5963L1130.9,5943.4L1112.7,5864.5L1102.4,5819.5L1065.8,5809.5L977.8,5785.7L967.4,5740.4L986,5724.1Z" style="fill-rule:nonzero;"/>
            <path d="M1103.4,5583.5L1123.3,5574.6L1247.9,5607.4L1236.5,5623.7L1242.8,5685L1252.5,5727L1167.5,5801.6L1153.5,5740.5L1121.3,5748L1137,5731.4L1192.5,5671.4L1129.9,5654.4L1103.4,5583.5Z" style="fill-rule:nonzero;"/>
            <path d="M1037.8,5554.7C1048.1,5553.3 1058.3,5551.6 1068.4,5549.8L1069.4,5549.6C1081.1,5547.4 1092.7,5545 1104.1,5542.3C1138.2,5534.3 1170.9,5524 1202.1,5512.1L1203.5,5518.2L1116.3,5594.9L1116.8,5597.2L1129.9,5654.4L1145.5,5722.5L1121.6,5757.2L1077.5,5740L1051,5612.7L1050.5,5612.6L1050.3,5611.8L1037.2,5609L926.2,5578.9L921.8,5560.5C961.7,5562.1 1000.4,5559.8 1037.8,5554.7Z" style="fill-rule:nonzero;"/>
            <path d="M1068.4,5549.7C1068.7,5549.6 1069.1,5549.6 1069.4,5549.5L1068.4,5549.7Z" style="fill-rule:nonzero;"/>
            <path d="M1246.8,5988L1324.5,6012.6L1306.8,5935.2L1287,5873.6L1361.7,5856.2L1370.7,5918.1L1372.1,5918.5L1392.4,6001.6L1459.2,5942L1495.5,5951.8L1506.2,5998.7L1439.9,6056.9L1418.5,6074.9L1426.9,6123.8L1445.7,6205.3L1421.5,6230.6L1379.4,6218.3L1360.8,6137.1L1358.5,6097.4L1309.6,6084.2L1235.5,6064.1L1223,6009.5L1246.8,5988Z" style="fill-rule:nonzero;"/>
            <path d="M1223.1,6161.5L1223,6161.4L1223.4,6161.1L1224,6161.3L1223.1,6161.5Z" style="fill-rule:nonzero;"/>
            <path d="M1041.9,5918.2L1173.4,5955.7L1257.3,5880.8L1309.1,5894.8L1316.3,5926.8L1306.8,5935.2L1222.9,6009L1235.5,6064.1L1251.9,6135.7L1223.4,6161.1L1186.2,6150.8L1167.6,6069.7L1168.2,6069.2L1117.3,6015.9L1033,5993L1018.9,5945.1L1041.9,5918.2Z" style="fill-rule:nonzero;"/>
            <path d="M1074.4,6150.1L1090.2,6137.8L1074.7,6151.3L1074.4,6150.1Z" style="fill-rule:nonzero;"/>
            <path d="M1025.8,6098.2L1025.8,6098.3L1025.8,6098.2Z" style="fill-rule:nonzero;"/>
            <path d="M1074.4,6150.1L1074.7,6151.3L1072.2,6153.6L1071.9,6152.1L1074.4,6150.1Z" style="fill-rule:nonzero;"/>
            <path d="M912.8,5559.2C916.4,5559.4 920,5559.5 923.6,5559.7L947.6,5662.3L1014.4,5602.7L1040.2,5608.2L1053.4,5611.8L1063.7,5657.5L988.8,5723.4L969.9,5738.2L969.4,5738.6L969.8,5740.1L980.6,5784.9L980.8,5784.9L1003.2,5863.7L1064.3,5809.1L1066,5809.4L1102.7,5819.3L1113,5864.3L1022.7,5943.6L1023,5945L1051.4,6068.8L1117.5,6015.6L1157.9,6026.5L1167.7,6069.4L1090.3,6137.4L1078.9,6146.4L1080.6,6151L1078.1,6151.8L1088.7,6198.1L1108.7,6272.3L1166.4,6220.8L1207.8,6232L1217.3,6274.1L1143.6,6338.9L1126.1,6352.7L1126.7,6355.5L1139.3,6410.4C1113.2,6406.6 1089.2,6402.1 1067.9,6397C1067.6,6396.9 1067.3,6396.8 1066.9,6396.7L1061.5,6373.2L1047.7,6312.9L1022.8,6212.6L1013.5,6171.8L986,6085.2L968.7,6009.7L957.9,5962.8L957,5959L947.1,5915.9L893.8,5707.1L870.8,5630.2C875.4,5585.2 888.2,5557.9 912.8,5559.2Z" style="fill-rule:nonzero;"/>
            <path d="M1273.2,6215.8L1298.6,6195.8L1379.4,6218.3L1444.8,6206.1L1511.5,6146.6L1550.2,6157.1L1560.4,6201.6L1496.2,6258L1468.3,6282.5L1479.1,6329.7L1497.2,6408.7L1488.2,6416.7C1468.9,6418.5 1449.8,6420 1430.8,6421.1L1412.1,6339.8L1403.1,6300.4L1359.2,6288.5L1285.1,6268.5L1278.4,6266.7L1267.3,6220.4L1273.2,6215.8Z" style="fill-rule:nonzero;"/>
            <path d="M1143.4,6339.1L1124.4,6355.8L1124,6354.3L1143.4,6339.1Z" style="fill-rule:nonzero;"/>
            <path d="M1325.5,6418.9L1318.9,6424.1C1318.1,6424.1 1317.3,6424.1 1316.5,6424.1L1325,6416.6L1325.5,6418.9Z" style="fill-rule:nonzero;"/>
            <path d="M1326.7,6424.1C1324.1,6424.1 1321.5,6424.1 1318.9,6424.1L1325.5,6418.9L1326.7,6424.1Z" style="fill-rule:nonzero;"/>
            <path d="M1207.7,6232.2L1166.3,6221L1085.7,6199.2L1074.7,6151.4L1090.2,6137.8L1103.1,6127.6L1186.1,6150.7L1211.9,6157.9L1251.8,6135.6L1309.5,6084.1L1358.4,6097.3L1366.2,6132.1L1360.7,6136.9L1272.7,6214.2L1278.4,6266.5L1285.1,6268.3L1301.5,6339.8L1359.2,6288.3L1403.1,6300.2L1412.1,6339.6L1324.8,6416.3L1316.3,6423.8C1307.5,6423.7 1298.8,6423.6 1290.2,6423.4C1289.8,6423.4 1289.4,6423.4 1289,6423.4C1278.2,6423.1 1267.5,6422.7 1256.9,6422.3C1238.1,6421.4 1219.9,6420.2 1202.3,6418.7L1134.9,6400.5L1124.1,6355.7L1143.1,6339L1154.9,6329.7L1234.9,6352L1207.7,6232.2Z" style="fill-rule:nonzero;"/>
            <path d="M1515.7,5316.4L1555.2,5327.4L1595.3,5291.6C1611.7,5301.9 1642,5320.6 1667.3,5337.8L1604.7,5380.6L1604.8,5381.1L1615.5,5427.8L1633.5,5506.3L1607.4,5529.6L1567.1,5518.4L1539.6,5398.5L1539.5,5398.5L1498.1,5387.3L1447.1,5373.5C1474.6,5352.5 1497.6,5332.8 1515.7,5316.4Z" style="fill-rule:nonzero;"/>
            <path d="M1635.6,5357L1700.5,5375.1L1691.2,5355C1696.4,5358.8 1723.6,5379 1729,5383C1729.7,5383.5 1730.3,5384 1731,5384.5C1735.1,5387.5 1739.3,5390.6 1743.4,5393.8C1748.7,5397.8 1754.1,5401.9 1759.5,5406.1C1759.8,5406.3 1760.1,5406.6 1760.4,5406.8C1774.7,5417.8 1789.2,5429.3 1804,5441.3C1804.4,5441.6 1804.7,5441.9 1805.1,5442.2C1805.5,5442.5 1805.9,5442.8 1806.3,5443.1C1830.2,5462.6 1854.5,5483.5 1878.6,5505.6L1815.8,5488.6L1834.8,5571.5L1825.4,5581.3L1810.5,5594.6L1768.1,5582.8L1749.5,5501.6L1740.4,5461.7L1696.9,5449.9L1615.6,5427.9L1604.9,5381.2L1635.6,5357Z" style="fill-rule:nonzero;"/>
            <path d="M1960.2,6059L1978.8,6042.6L1990.6,6033.4L2071,6055.8L2071.1,6056.3L2106.7,6068.2L2080.6,6074.3L2094.8,6136.3L2068.4,6130.7L1970.6,6104.3L1960.2,6059Z" style="fill-rule:nonzero;"/>
            <path d="M2119.3,6102.1L2119.3,6102.2L2118.9,6100.3L2119.3,6102.1Z" style="fill-rule:nonzero;"/>
            <path d="M1965.2,6212.3L1964.9,6212.2L1967.2,6209.8L2058.2,6128.5L2068.3,6130.6L2095.1,6137.9L2096.5,6144.2C2073.4,6180.7 2043.5,6213 2008.5,6241.4L1999.9,6204.2L1965.2,6212.3Z" style="fill-rule:nonzero;"/>
            <path d="M1923.5,6200.7L1961.2,6213.3L1934.4,6219.5L1947.3,6275.6L1909.8,6267.7L1905.5,6271.5L1824.3,6249.5L1810.9,6201.5L1841.6,6177.6L1923.5,6200.7Z" style="fill-rule:nonzero;"/>
            <path d="M1726.8,6138.7L1792.5,6123.6L1856.6,6066.3L1895,6076.7L1905.3,6121.5L1813.4,6202.3L1813.5,6202.8L1824.2,6249.5L1842.2,6328L1825.2,6343.1C1819.7,6345.2 1814.2,6347.3 1808.6,6349.2L1775.7,6340L1748.2,6220.1L1733.6,6156.4L1726.8,6138.7Z" style="fill-rule:nonzero;"/>
            <path d="M1947.3,6275.6L1949,6283.2L1905.5,6271.5L1909.8,6267.7L1947.3,6275.6Z" style="fill-rule:nonzero;"/>
            <path d="M1964.9,6212.3L1965.2,6212.3L1964.8,6212.5L1964.9,6212.3Z" style="fill-rule:nonzero;"/>
            <path d="M1977.6,6264.8C1977.4,6264.9 1977.1,6265.1 1976.9,6265.3L1972.7,6245.6L1977.6,6264.8Z" style="fill-rule:nonzero;"/>
            <path d="M1949.1,6283.3L1949,6283.4L1949,6283.3L1949.1,6283.3Z" style="fill-rule:nonzero;"/>
            <path d="M1965.7,6212.5L1965.2,6212.4L2000.1,6204.3L2008.7,6241.5C1998.8,6249.6 1988.4,6257.3 1977.6,6264.8L1972.7,6245.6L1965.7,6212.5Z" style="fill-rule:nonzero;"/>
            <path d="M1947.3,6275.6L1934.4,6219.5L1961.2,6213.3L1963.3,6214L1964.4,6212.8L1972.7,6245.6L1976.9,6265.3C1968.2,6271.3 1959.3,6277.1 1950.2,6282.7L1948.7,6276L1947.3,6275.6Z" style="fill-rule:nonzero;"/>
            <path d="M1947.3,6275.6L1948.7,6275.9L1950.2,6282.6C1949.9,6282.8 1949.5,6283 1949.2,6283.2L1949.1,6283.2L1947.3,6275.6Z" style="fill-rule:nonzero;"/>
            <path d="M1965.2,6212.3L1965.7,6212.5L1972.7,6245.6L1964.4,6212.8L1964.8,6212.5L1965.2,6212.3Z" style="fill-rule:nonzero;"/>
            <path d="M2009.9,5656.3L2014.1,5651.8L2015.6,5650.5C2016.6,5651.7 2017.5,5653 2018.5,5654.3L2009.9,5656.3Z" style="fill-rule:nonzero;"/>
            <path d="M2014.1,5651.9L2009.9,5656.3L2009.3,5656.2L2014.1,5651.9Z" style="fill-rule:nonzero;"/>
            <path d="M2009.9,5656.3L2009.9,5656.4L2009.9,5656.3Z" style="fill-rule:nonzero;"/>
            <path d="M2009,5656.6L2009,5656.5L2009.3,5656.2L2009.9,5656.3L2009.9,5656.4L2009,5656.6Z" style="fill-rule:nonzero;"/>
            <path d="M1690.1,5561L1768,5582.7L1810.4,5594.5L1825.3,5581.2L1894,5519.9C1911.8,5536.6 1929.3,5553.9 1946.5,5571.7L1883.5,5627.1L1889.2,5622.6L1967.2,5644.3L1951.8,5577.2C1974.1,5600.7 1995.6,5625.2 2015.7,5650.4L2014.3,5651.8L2009.5,5656.1L2009.2,5656.4L2009.2,5656.5L2009.3,5657L2017.6,5689.5L2027.5,5736.2L1995.9,5727.7L1995.1,5724L1993.1,5723.6L1956.2,5715.8L1955.2,5716.7L1870.7,5693.8L1889.4,5775.3L1888.6,5776.1L1862.6,5799.3L1823.2,5788.3L1795,5665.4L1792.3,5664.7L1751.4,5653.6L1670.3,5631.7L1659.2,5585.4L1690.1,5561Z" style="fill-rule:nonzero;"/>
            <path d="M2009.9,5656.4L2009.9,5656.3L2010.4,5656.5L2017.4,5689.6L2009.1,5657.1L2009.9,5656.4Z" style="fill-rule:nonzero;"/>
            <path d="M2009.9,5656.4L2009.1,5657.1L2009,5656.6L2009.9,5656.4Z" style="fill-rule:nonzero;"/>
            <path d="M1710.8,5790.5L1742.1,5765.9L1822.9,5788.5L1862.4,5799.5L1888.4,5776.3L1955,5716.8L1956,5715.8L1992.9,5723.7L1994.8,5724.1L1995.7,5727.8L2005.3,5770.6L2003.9,5771.8L1939.7,5828.2L1911.8,5852.7L1922.7,5899.9L1940.8,5978.8L1910.7,6005.7L1898.7,6002.3L1875.2,5994.5L1856.9,5914.8L1791.4,5972.4L1790.5,5972.2L1762.8,5993.9L1749.4,5935.8L1714.6,5943.9L1714,5943.7L1807.6,5860.1L1810,5860.6L1722,5836.8L1710.8,5790.5Z" style="fill-rule:nonzero;"/>
            <path d="M2071,6055.8L2110.9,6066.9L2140.2,6040.8C2138.5,6047.9 2136.6,6054.9 2134.5,6061.8C2130.3,6075.7 2125.2,6089.2 2119.4,6102.1C2119.4,6102.1 2107.1,6127.3 2099.8,6139.2C2099.3,6140 2098.8,6140.8 2098.3,6141.7C2097.8,6142.6 2097.2,6143.4 2096.7,6144.3L2068.4,6130.7L2071,6055.8Z" style="fill-rule:nonzero;"/>
            <path d="M1978.8,6042.6L1960.2,6059L1959.9,6057.5L1978.8,6042.6Z" style="fill-rule:nonzero;"/>
            <path d="M1910.7,6005.7L1940.8,5978.8L1941.1,5980.4L1918.3,6004.2L1911.3,6005.9L1910.7,6005.7Z" style="fill-rule:nonzero;"/>
            <path d="M2091,5763L2115.6,5814.1L2066.5,5859.7L2061.9,5864.5L2059.8,5863.8L2066.3,5894.6L2076.2,5941.4L2043.7,5932.6L2053.7,5976.8L2053,5977.4L1978.8,6042.6L1959.9,6057.5L1946.2,5997.8L1918.3,6004.2L1941.1,5980.4L1940.8,5978.8L2004.3,5922.1L2006,5922.4L1922.7,5899.9L1911.8,5852.7L1939.7,5828.2L2022.1,5851.2L2003.9,5771.8L2005.3,5770.6L1995.7,5727.8L2027.3,5736.3L2017.4,5689.6L2010.4,5656.5L2009.9,5656.3L2018.5,5654.4L2091,5763Z" style="fill-rule:nonzero;"/>
            <path d="M1562.5,5934.7L1593.7,5910.2L1679.8,5934.2L1712.5,5943.3L1714,5943.7L1714.6,5943.9L1749.4,5935.8L1762.8,5993.9L1790.5,5972.2L1791.4,5972.4L1898.7,6002.3L1910.1,6006.2L1880.5,6013L1894.3,6073.3L1857.6,6065.5L1856.6,6066.4L1774.3,6044.1L1792.5,6123.6L1764,6149.1L1726.8,6138.7L1708.2,6057.7L1630.8,6125.7L1615.1,6138.1L1601.3,6078.1L1566.5,6086.2L1566.4,6086.2L1570.7,6081.7L1657.9,6003.8L1573.6,5981L1562.5,5934.7Z" style="fill-rule:nonzero;"/>
            <path d="M1894.3,6073.3L1895.1,6076.8L1856.6,6066.4L1857.6,6065.5L1894.3,6073.3Z" style="fill-rule:nonzero;"/>
            <path d="M1910.4,6006L1910.4,6006.1L1910.1,6006.2L1898.7,6002.3L1910.7,6005.7L1910.4,6006Z" style="fill-rule:nonzero;"/>
            <path d="M1910.4,6006.1L1910.4,6006L1910.7,6005.7L1911.3,6005.9L1910.4,6006.1Z" style="fill-rule:nonzero;"/>
            <path d="M1923.5,6200.7L1905.4,6121.6L1906.9,6120.2L1897.3,6077.4L1928.7,6085.8L1918.8,6039L1930.5,6085.1L1959.7,6059.4L1970.4,6104.2L1970.6,6104.3L1989.5,6186.6L1967.2,6209.9L1964.6,6212.2L1923.5,6200.7Z" style="fill-rule:nonzero;"/>
            <path d="M1906.9,6120.2L1905.4,6121.6L1895.1,6076.8L1897.3,6077.4L1906.9,6120.2Z" style="fill-rule:nonzero;"/>
            <path d="M1970.6,6104.3L1970.4,6104.2L1959.7,6059.4L1960.2,6059L1970.6,6104.3Z" style="fill-rule:nonzero;"/>
            <path d="M1967.2,6209.9L1964.9,6212.3L1964.6,6212.2L1967.2,6209.9Z" style="fill-rule:nonzero;"/>
            <path d="M1923.5,6200.7L1964.6,6212.2L1964.3,6212.5L1964.3,6212.6L1961.2,6213.3L1923.5,6200.7Z" style="fill-rule:nonzero;"/>
            <path d="M1964.3,6212.6L1964.3,6212.5L1964.6,6212.2L1964.9,6212.3L1964.8,6212.5L1964.3,6212.6Z" style="fill-rule:nonzero;"/>
            <path d="M1964.4,6212.8L1963.3,6214L1961.2,6213.3L1964.3,6212.6L1964.4,6212.8Z" style="fill-rule:nonzero;"/>
            <path d="M1964.8,6212.5L1964.4,6212.8L1964.3,6212.6L1964.8,6212.5Z" style="fill-rule:nonzero;"/>
            <path d="M1915,6007.8L1918.3,6004.2L1946.2,5997.8L1959.9,6057.5L1959.3,6057.9L1959.7,6059.4L1930.5,6085.1L1918.8,6039L1912,6006.8L1915,6007.8Z" style="fill-rule:nonzero;"/>
            <path d="M1959.9,6057.5L1960.2,6059L1959.7,6059.4L1959.3,6057.9L1959.9,6057.5Z" style="fill-rule:nonzero;"/>
            <path d="M1911.3,6005.9L1918.3,6004.2L1915,6007.8L1912,6006.8L1911.8,6006L1911.3,6005.9Z" style="fill-rule:nonzero;"/>
            <path d="M1894.3,6073.3L1880.5,6013L1910.1,6006.2L1910.5,6006.3L1918.8,6039L1928.7,6085.8L1897.3,6077.4L1896.5,6073.7L1894.3,6073.3Z" style="fill-rule:nonzero;"/>
            <path d="M1896.5,6073.7L1897.3,6077.4L1895.1,6076.8L1894.3,6073.3L1896.5,6073.7Z" style="fill-rule:nonzero;"/>
            <path d="M1910.5,6006.3L1910.1,6006.2L1910.4,6006.1L1910.5,6006.3Z" style="fill-rule:nonzero;"/>
            <path d="M1912,6006.8L1918.8,6039L1910.5,6006.3L1912,6006.8Z" style="fill-rule:nonzero;"/>
            <path d="M1911.3,6005.9L1911.8,6006L1912,6006.8L1910.5,6006.3L1910.4,6006.1L1911.3,6005.9Z" style="fill-rule:nonzero;"/>
            <path d="M2076.2,5941.4L2066.3,5894.5L2059.8,5863.7L2061.9,5864.4L2066.5,5859.6L2088.1,5837L2087.6,5835L2114.4,5811.1C2125,5836 2133.4,5861.3 2139.3,5886.8C2139.4,5887.2 2139.4,5887.6 2139.5,5887.9C2145.4,5914 2148.7,5940.3 2148.7,5966.7L2140.1,6040.8L2110.8,6066.9L2070.9,6055.8L2052.9,5977.4L2053.6,5976.8L2043.7,5932.7L2076.2,5941.4Z" style="fill-rule:nonzero;"/>
        </g>
        <path d="M1631,5314.6L1494.8,5347.1C1494.8,5347.1 1470.2,5247.7 1447.1,5145.6C1435.2,5092.9 1396,4988.1 1396,4988.1L1363.5,4944.1C1363.5,4944.1 1406.3,4953.4 1497.2,5093.8C1565.6,5199.3 1631,5314.6 1631,5314.6Z" style="fill-rule:nonzero;"/>
        <g>
            <path d="M1756.7,5998.5C1762.1,5979.3 1750.9,5959.3 1731.6,5953.9C1712.4,5948.5 1692.4,5959.7 1687,5978.9C1681.6,5998.1 1692.8,6018.1 1712,6023.5C1731.3,6028.9 1751.3,6017.7 1756.7,5998.5Z" style="fill:rgb(249,250,251);fill-rule:nonzero;"/>
            <path d="M1556.4,5935.9C1561.8,5916.7 1550.6,5896.7 1531.3,5891.3C1512.1,5885.9 1492.1,5897.1 1486.7,5916.3C1481.3,5935.5 1492.5,5955.5 1511.8,5960.9C1531,5966.3 1551,5955.1 1556.4,5935.9Z" style="fill:rgb(249,250,251);fill-rule:nonzero;"/>
            <path d="M1916,5855.2C1921.4,5836 1910.2,5816 1890.9,5810.6C1871.7,5805.2 1851.7,5816.4 1846.3,5835.6C1840.9,5854.8 1852.1,5874.8 1871.3,5880.2C1890.6,5885.6 1910.6,5874.4 1916,5855.2Z" style="fill:rgb(249,250,251);fill-rule:nonzero;"/>
            <path d="M1702.5,5788.7C1707.9,5769.5 1696.7,5749.5 1677.4,5744.1C1658.2,5738.7 1638.2,5749.9 1632.8,5769.1C1627.4,5788.3 1638.6,5808.3 1657.8,5813.7C1677.1,5819.2 1697.1,5808 1702.5,5788.7Z" style="fill:rgb(249,250,251);fill-rule:nonzero;"/>
            <path d="M1503.2,5725.6C1508.6,5706.4 1497.4,5686.4 1478.1,5681C1458.9,5675.6 1438.9,5686.8 1433.5,5706C1428.1,5725.2 1439.3,5745.2 1458.5,5750.6C1477.8,5756.1 1497.8,5744.9 1503.2,5725.6Z" style="fill:rgb(249,250,251);fill-rule:nonzero;"/>
            <path d="M1360.4,5870.6C1365.8,5851.4 1354.6,5831.4 1335.3,5826C1316.1,5820.6 1296.1,5831.8 1290.7,5851C1285.3,5870.3 1296.5,5890.2 1315.7,5895.6C1335,5901 1355,5889.8 1360.4,5870.6Z" style="fill:rgb(249,250,251);fill-rule:nonzero;"/>
            <path d="M1452.5,5512.9C1457.9,5493.7 1446.7,5473.7 1427.4,5468.3C1408.2,5462.9 1388.2,5474.1 1382.8,5493.3C1377.4,5512.5 1388.6,5532.5 1407.8,5537.9C1427.1,5543.4 1447.1,5532.2 1452.5,5512.9Z" style="fill:rgb(249,250,251);fill-rule:nonzero;"/>
            <path d="M1592,5372.9C1597.4,5353.7 1586.2,5333.7 1566.9,5328.3C1547.7,5322.9 1527.7,5334.1 1522.3,5353.3C1516.9,5372.5 1528.1,5392.5 1547.3,5397.9C1566.6,5403.3 1586.6,5392.1 1592,5372.9Z" style="fill:rgb(249,250,251);fill-rule:nonzero;"/>
            <path d="M1860.2,5644.5C1865.6,5625.3 1854.4,5605.3 1835.1,5599.9C1815.9,5594.5 1795.9,5605.7 1790.5,5624.9C1785.1,5644.2 1796.3,5664.1 1815.5,5669.5C1834.8,5674.9 1854.8,5663.7 1860.2,5644.5Z" style="fill:rgb(249,250,251);fill-rule:nonzero;"/>
            <path d="M1617.7,6131.6C1623.1,6112.4 1611.9,6092.4 1592.6,6087C1573.4,6081.6 1553.4,6092.8 1548,6112C1542.6,6131.3 1553.8,6151.2 1573,6156.6C1592.3,6162 1612.3,6150.8 1617.7,6131.6Z" style="fill:rgb(249,250,251);fill-rule:nonzero;"/>
            <path d="M1818.1,6203.5C1823.5,6184.3 1812.3,6164.3 1793,6158.9C1773.8,6153.5 1753.8,6164.7 1748.4,6183.9C1743,6203.1 1754.2,6223.1 1773.4,6228.5C1792.7,6234 1812.7,6222.8 1818.1,6203.5Z" style="fill:rgb(249,250,251);fill-rule:nonzero;"/>
            <path d="M1689.4,6341.2C1694.8,6322 1683.6,6302 1664.3,6296.6C1645,6291.2 1625.1,6302.4 1619.7,6321.6C1614.3,6340.8 1625.5,6360.8 1644.7,6366.2C1664,6371.7 1684,6360.5 1689.4,6341.2Z" style="fill:rgb(249,250,251);fill-rule:nonzero;"/>
            <path d="M1416.3,6064C1421.7,6044.8 1410.5,6024.8 1391.2,6019.4C1372,6014 1352,6025.2 1346.6,6044.4C1341.2,6063.6 1352.4,6083.6 1371.6,6089C1390.9,6094.4 1410.9,6083.2 1416.3,6064Z" style="fill:rgb(249,250,251);fill-rule:nonzero;"/>
            <path d="M1487.9,6284.6C1493.3,6265.4 1482.1,6245.4 1462.8,6240C1443.6,6234.6 1423.6,6245.8 1418.2,6265C1412.8,6284.2 1424,6304.2 1443.3,6309.6C1462.5,6315 1482.5,6303.8 1487.9,6284.6Z" style="fill:rgb(249,250,251);fill-rule:nonzero;"/>
            <path d="M1652.8,5571.5C1658.2,5552.3 1647,5532.3 1627.7,5526.9C1608.5,5521.5 1588.5,5532.7 1583.1,5551.9C1577.7,5571.1 1588.9,5591.1 1608.1,5596.5C1627.3,5601.9 1647.3,5590.7 1652.8,5571.5Z" style="fill:rgb(249,250,251);fill-rule:nonzero;"/>
            <path d="M1965.6,6064.5C1971,6045.3 1959.8,6025.3 1940.5,6019.9C1921.3,6014.5 1901.3,6025.7 1895.9,6044.9C1890.5,6064.2 1901.7,6084.1 1920.9,6089.5C1940.2,6095 1960.2,6083.8 1965.6,6064.5Z" style="fill:rgb(249,250,251);fill-rule:nonzero;"/>
        </g>
        <path d="M837,4937.8C830.5,4977.7 602.1,5001.8 576.2,5014.3C546.8,5028.4 523,5077.7 566.7,5164.3C610.4,5250.9 797.2,5503.1 797.2,5503.1L1217.4,5423.6C1217.4,5423.6 1405.2,5170.3 1393.6,4984.6C1386.5,4871 1103.7,4946.3 1028.7,4887.9C997,4863.2 853.7,4835 837,4937.8Z" style="fill-rule:nonzero;"/>
        <path d="M726.8,4587.2C726.8,4587.2 813.6,4731.4 833,4881.5C836.9,4911.6 822.5,4945.2 798,4961.5C762.9,4985 640.5,5001.1 640.5,5001.1C640.5,5001.1 702.6,5278.7 868.1,5245.5C1175.2,5183.9 1180.7,4916.5 1180.7,4916.5C1180.7,4916.5 1069.7,4906 1030.3,4854C968.3,4772.2 952.9,4646.6 952.9,4646.6L726.8,4587.2Z" style="fill-rule:nonzero;"/>
        <path d="M885.1,4751C859.2,4743.3 824.3,4720.2 824.3,4720.2C824.3,4720.2 833.7,4765.1 851.3,4901.7C854.8,4929.1 841.8,4959.6 819.5,4974.5C787.6,4995.8 676.1,5010.6 676.1,5010.6C676.1,5010.6 730.2,5246.6 883.3,5233C1243.6,5201.1 1167.8,4933.5 1167.8,4933.5C1167.8,4933.5 1094.8,4940 1059,4892.7C1002.6,4818.2 959.2,4674.6 959.2,4674.6C959.2,4674.6 945.1,4768.8 885.1,4751Z" style="fill:rgb(249,250,251);fill-rule:nonzero;"/>
        <path d="M1160,4640.8C1122.4,4519.1 1057.3,4525.6 1057.3,4525.6C1057.3,4525.6 961.6,4515.4 977.4,4671.4C993.3,4827.3 1091.2,4864.4 1126.4,4851.8C1161.7,4839.3 1197.6,4762.6 1160,4640.8ZM1116.1,4817.2C1086,4827.9 1002.5,4796.4 989,4663.3C975.5,4530.3 1053.7,4529.6 1053.7,4529.6C1053.7,4529.6 1112.7,4533.3 1144.8,4637.2C1176.8,4741.1 1146.2,4806.5 1116.1,4817.2Z" style="fill-rule:nonzero;"/>
        <path d="M1069,4363.8C1032.5,4201.3 878.5,4211.1 878.5,4211.1C878.5,4211.1 715.2,4218.8 678.5,4366.5C663.5,4426.7 670,4497.9 711.7,4562.9C749.8,4622.3 817,4695.4 873.5,4695C935.1,4694.6 1001.4,4623.3 1030.3,4574.6C1059.9,4524.7 1082.6,4424.3 1069,4363.8Z" style="fill:rgb(249,250,251);fill-rule:nonzero;"/>
        <path d="M641,4409.6C637.6,4397.9 614.5,4413.7 609.3,4416.6C600,4421.8 639,4341.4 582,4371.9C587.2,4347.4 619,4302.9 621.7,4300.6C604.4,4292.5 586.1,4298 584,4305.7C587.9,4277.3 608.1,4248.5 619.9,4227.3L581.5,4256L614.7,4209.1L559.1,4224.5L602.6,4187.3L550.4,4180.1L626.8,4148L588.8,4061.5L633.1,4089.5C623.2,4021 641,3973 641,3973C641,3973 647.4,4005.6 669.8,4026.5C670.6,4003.6 680,3975 680,3975C680,3975 690.3,3997.7 705.3,4023.7C703.9,4003.9 707,3975.2 733.6,3955.8C769,3929.9 790.7,3935.4 790.7,3935.4C790.7,3935.4 775.2,3940.1 762.3,3959.6C754.5,3971.3 762.9,3989.8 773.6,3989C778.8,3988.6 825.6,3901.6 902.1,3876.9C906.2,3875.6 879.6,3916.2 899.4,3939.4C918.7,3914.1 930.8,3891.8 930.8,3891.8C930.8,3891.8 934,3907.9 932,3963.2C932.5,3963 955.2,3905.5 955.2,3905.5C955.2,3905.5 971.3,3924.8 976.7,3939.7C996.3,3940 1030.3,3893.9 1030.3,3893.9C1030.3,3893.9 1007,3940 1025.2,3960.7C1028.8,3964.9 1075.6,3936.7 1080.4,3936.1C1083.3,3935.8 1055.7,3971.8 1072.6,3966.1C1085.2,3961.9 1118.7,3935.2 1127,3930.2C1129.9,3928.4 1091.1,3982.4 1111.5,3995.4C1121.6,3992.8 1132.8,3969.3 1132.8,3969.3C1132.8,3969.3 1141.5,4003.7 1120.8,4019.5C1151.5,4017.5 1200,4051.9 1200,4051.9C1200,4051.9 1175,4046.9 1157.3,4051.1C1139.3,4055.3 1140.2,4066.1 1140.2,4066.1C1140.2,4066.1 1229.7,4149.4 1219.3,4239.9C1219,4242.6 1215.1,4206.6 1191.4,4212.3C1174.5,4216.3 1173.8,4242.6 1179.5,4253.4C1219.8,4329.2 1168.8,4374.9 1168.8,4374.9C1168.8,4374.9 1167,4324.7 1152.7,4326.2C1157,4351.3 1156.5,4387 1127.9,4425.9C1127.9,4425.9 1117.1,4379.2 1117.6,4393.5C1119,4438.6 1058.7,4471.3 1052,4477.9C1049.6,4480.3 1088.2,4360 1003.5,4312.3C1005.6,4358.9 969.9,4373.3 957.7,4381.7C954.4,4383.9 977.5,4341.7 954,4311.1C949.8,4323.9 908.9,4390.7 909.1,4388.2C910.7,4369 929.5,4332.3 909.2,4289.4C920.6,4368.4 865.6,4421 865.9,4426.2C866,4427.7 886.6,4336.9 876.2,4299.4C864.4,4326.3 858.9,4387.6 858.9,4387.6C858.9,4387.6 829.4,4330.2 832.2,4277.2C828.7,4287.5 820.9,4303 806.8,4319.9C790.3,4339.6 767.1,4347.2 746.6,4352.2C746.6,4352.2 761.7,4331.5 769.9,4314.7C778.1,4297.9 774.1,4280.1 774.1,4280.1C752.3,4281.8 732.7,4345.9 734.1,4382.6C736,4431.9 753.6,4461.9 753.6,4461.9C753.6,4461.9 708.1,4454 698.2,4432.1C695.1,4425.2 692.1,4445.9 701.7,4492.4C710.3,4534.2 725.3,4564 725.3,4564C725.3,4564 671.2,4513 641,4409.6Z" style="fill-rule:nonzero;"/>
        <path d="M893.7,4122.7C893.7,4122.7 966.7,4128 974,4202C980.4,4266 927.6,4312.6 927.6,4312.6C927.6,4312.6 952.2,4263.4 948.2,4211.2C942.4,4135.3 893.7,4122.7 893.7,4122.7Z" style="fill-rule:nonzero;"/>
        <path d="M887.9,4217.2C898.1,4174.1 887.9,4127.4 887.9,4127.4C887.9,4127.4 909.1,4164.6 899.1,4213.8C890.2,4257.7 846.3,4300.2 846.3,4300.2C846.3,4300.2 878.2,4258.4 887.9,4217.2Z" style="fill-rule:nonzero;"/>
        <path d="M868.1,4132C868.1,4132 778.3,4168.7 741.5,4220.4C711.5,4262.6 705.5,4295.8 705.5,4295.8C705.5,4295.8 701.7,4215.2 745.6,4174.2C785,4137.5 868.1,4132 868.1,4132Z" style="fill-rule:nonzero;"/>
        <path d="M910.1,5015.6C910.1,5015.6 886.3,4994.1 851.7,4994.1C817.2,4994.1 705.3,5025.1 705.3,5025.1L910.1,5015.6Z" style="fill-rule:nonzero;"/>
        <path d="M959.2,5006.4C959.2,5006.4 969.3,4974.3 998.9,4967.2C1025.5,4960.8 1128.4,4963.5 1128.4,4963.5L959.2,5006.4Z" style="fill-rule:nonzero;"/>
        <g>
            <path d="M1632,6945.2C1632,6945.2 1606.1,6935.5 1611,6867.7C1612.6,6845.7 1531.2,6817.6 1531.2,6817.6L1564,6800.6C1564,6800.6 1632.7,6843.7 1636.5,6851.5C1639,6856.6 1632,6945.2 1632,6945.2Z" style="fill:rgb(249,250,251);fill-rule:nonzero;"/>
            <path d="M1662.6,6930C1662.6,6930 1626.4,6926.5 1633.6,6852.2C1634.7,6840.6 1529.1,6819.7 1529.1,6819.7L1591.9,6789.9C1591.9,6789.9 1648.7,6826.5 1650.7,6831.4C1656.5,6845.6 1662.6,6930 1662.6,6930Z" style="fill:rgb(249,250,251);fill-rule:nonzero;"/>
            <path d="M1582.2,6898.5C1581.1,6900.7 1540.5,6926.5 1540.5,6926.5C1540.5,6926.5 1544.3,6901.3 1559.7,6894.7C1572.2,6889.4 1565.4,6870.7 1571.3,6852.8C1574.2,6843.8 1519.6,6843.8 1457.5,6858.2C1456.4,6858.4 1524.2,6804.4 1524.2,6804.4C1524.2,6804.4 1596.3,6833.2 1598.4,6841.9C1599.8,6847.9 1595.3,6872.8 1582.2,6898.5Z" style="fill:rgb(249,250,251);fill-rule:nonzero;"/>
        </g>
        <path d="M1306.7,6833.2C1293,6803.3 1131.1,6313.1 1126.7,6106C1124.2,5985.4 1141.9,5901 1149.6,5818.5C1160.4,5714.4 1192,5418.4 1198.3,5336.8C1198.3,5336.8 1200.6,5101.7 1238.7,5006.3C1277.9,4908.2 1384.3,4916.8 1396,4995.4C1424.9,5189.1 1333.4,5298.7 1244,5791C1239.8,5872.3 1268.4,5973.1 1274.7,6117.8C1286.7,6388.4 1319.1,6722.3 1363.4,6795.1L1306.7,6833.2Z" style="fill:rgb(249,250,251);fill-rule:nonzero;"/>
        <g>
            <path d="M1621.2,6999.7C1621.2,6999.7 1595.3,6990 1600.2,6922.2C1601.8,6900.2 1520.4,6872.1 1520.4,6872.1L1553.2,6855.1C1553.2,6855.1 1621.9,6898.2 1625.6,6906C1628.2,6911.2 1621.2,6999.7 1621.2,6999.7Z" style="fill-rule:nonzero;"/>
            <path d="M1651.9,6984.5C1651.9,6984.5 1615.7,6981 1622.9,6906.7C1624,6895.1 1518.4,6874.2 1518.4,6874.2L1581.2,6844.4C1581.2,6844.4 1638,6881 1640,6885.9C1645.7,6900.1 1651.9,6984.5 1651.9,6984.5Z" style="fill-rule:nonzero;"/>
            <path d="M1582.2,6959.5C1581.1,6961.7 1540.5,6987.5 1540.5,6987.5C1540.5,6987.5 1544.3,6962.3 1559.7,6955.7C1572.2,6950.4 1565.4,6931.7 1571.3,6913.8C1574.2,6904.8 1519.6,6904.8 1457.5,6919.2C1456.4,6919.4 1524.2,6865.4 1524.2,6865.4C1524.2,6865.4 1596.3,6894.2 1598.4,6902.9C1599.8,6909 1595.3,6933.8 1582.2,6959.5Z" style="fill-rule:nonzero;"/>
        </g>
        <path d="M1352.7,6849.8C1378.6,6892.4 1596.2,6826.4 1596.2,6826.4L1699.4,6908.7C1699.4,6908.7 1692.9,6924 1661.4,6909.8C1636.9,6898.8 1596.5,6857.4 1589.8,6856.3C1571.3,6853.2 1520.3,6878.3 1503,6889.3C1469.6,6910.5 1457.4,6919 1472.1,6931.7C1492.9,6949.7 1565.7,6924.3 1561.6,6966.7C1561.2,6970.6 1478.8,6962.2 1399.5,6960.7C1385.8,6960.5 1361.9,6953.4 1349.2,6949C1328.6,6941 1310,6918.9 1295.8,6887.9L1352.7,6849.8Z" style="fill-rule:nonzero;"/>
        <path d="M1352.7,6840.8C1378.6,6883.4 1596.2,6817.4 1596.2,6817.4L1702.6,6907.6C1702.6,6907.6 1692.9,6915 1661.4,6900.8C1636.9,6889.8 1596.5,6848.4 1589.8,6847.3C1571.3,6844.2 1520.3,6869.3 1503,6880.3C1469.6,6901.5 1457.4,6910 1472.1,6922.7C1492.9,6940.7 1543.9,6936.5 1551.6,6957.8C1552.9,6961.5 1478.8,6953.1 1399.6,6951.7C1385.9,6951.4 1362,6944.4 1349.3,6940C1328.7,6932 1310.1,6909.9 1295.9,6878.9L1352.7,6840.8Z" style="fill:rgb(249,250,251);fill-rule:nonzero;"/>
        <path d="M544.2,5098.3C544.2,5098.3 701.6,5254.6 945.9,5228.7C1190.2,5202.8 1391.5,5010.6 1391.5,5010.6L1376.3,5205.2C1376.3,5205.2 1117.8,5331.7 910.1,5360C673.9,5392.2 558.7,5246 558.7,5246L544.2,5098.3Z" style="fill:rgb(249,250,251);fill-rule:nonzero;"/>
        <path d="M770.4,4712.5C768.1,4585.6 704.2,4573 704.2,4573C704.2,4573 625.7,4562.2 599,4689.7C567.1,4842.1 643.2,4905.5 680.3,4903.8C717.5,4902.1 772.7,4839.4 770.4,4712.5ZM680,4867.9C648.4,4869.4 585.1,4815.7 609.6,4685.2C631.6,4568 699.6,4575.8 699.6,4575.8C699.6,4575.8 754.8,4596.4 756.8,4704.7C758.8,4812.9 711.7,4866.4 680,4867.9Z" style="fill-rule:nonzero;"/>
        <path d="M499.6,4808.1L400,4910.9C400,4910.9 542.8,4965.1 584.4,4987.5C647.7,5021.5 508.9,5479.5 505.6,5638.6C502.3,5795.8 598.2,5866.9 618,5838.2C719.2,5691.1 636.8,4969 628.6,4944.7C620.4,4920.4 609,4884.8 568.1,4901.1C527.3,4917.4 473.2,4896.7 482.4,4883C491.6,4869.3 504,4845 504,4845C504,4845 532.2,4871.9 544.1,4874.3C557,4877 560.5,4871.9 560.5,4871.9L499.6,4808.1Z" style="fill-rule:nonzero;"/>
        <path d="M400.7,4909.8L451.9,4775.8L551.9,4784.5C551.9,4784.5 551.3,4794.9 533.9,4798.7C521,4801.5 495.2,4798.5 472.1,4796.4C461,4795.4 450.9,4858.3 450.9,4858.3L400.7,4909.8Z" style="fill:rgb(249,250,251);fill-rule:nonzero;"/>
        <path d="M399.9,4910.9L404.8,4788.2L471.4,4712.8C471.4,4712.8 479.7,4723.1 471.3,4739.1C461.7,4757.3 428,4790.9 427.7,4794.2C427.4,4797.5 432.8,4876.9 432.8,4876.9L399.9,4910.9Z" style="fill:rgb(249,250,251);fill-rule:nonzero;"/>
        <path d="M1270.4,4916.5C1270.4,4916.5 1209.6,5001.2 1199.5,5291.6C1192.2,5500.3 1167.6,5625.8 1167.6,5625.8L1086.5,5809.5C1086.5,5809.5 1087.5,5500.6 1137.8,5183.8C1180.2,4916.5 1270.4,4916.5 1270.4,4916.5Z" style="fill-rule:nonzero;"/>
        <path d="M1398.1,5010.5C1398.1,5010.5 1260.9,5672.9 1261.3,5701.2C1261.6,5729.5 1376.5,5296.9 1394.2,5170.2C1411.3,5046.9 1398.1,5010.5 1398.1,5010.5Z" style="fill-rule:nonzero;"/>
        <path d="M1271.5,6905.2C1290.3,6888 1370,6835.8 1389,6825.1C1408,6814.5 1397.2,6733.3 1336.4,6754.1C1314.8,6761.5 1232.2,6795.9 1222.7,6803.1C1155.3,6854 1238.7,6935.2 1271.5,6905.2Z" style="fill-rule:nonzero;"/>
        <path d="M1238.4,6787.8C1256.3,6777.2 1329.2,6748.4 1346.3,6742.9C1363.4,6737.5 1367,6671.6 1314.4,6678.4C1295.7,6680.8 1223.2,6695.1 1214.3,6699.3C1151.6,6729 1207.1,6806.4 1238.4,6787.8Z" style="fill-rule:nonzero;"/>
        <path d="M1260.9,6789.8L1177.9,6413.1L1243.5,6804.4L1260.9,6789.8Z" style="fill-rule:nonzero;"/>
        <path d="M784.6,6156.3L499.9,6156.4C495.8,6163.1 489,6172.6 482.5,6184.7L784.6,6184.6C830.6,6184.6 868,6222 868,6268L868,6426.3C868,6472.3 830.6,6509.7 784.6,6509.7L473,6509.7C444.2,6509.7 418.8,6495 403.8,6472.8C402.9,6487.2 402.3,6500.6 401.9,6512.3C421.2,6528.3 446,6538 473,6538L784.6,6538C846.2,6538 896.2,6487.9 896.2,6426.4L896.2,6268.1C896.2,6206.3 846.2,6156.3 784.6,6156.3Z" style="fill:white;fill-rule:nonzero;"/>
        <path d="M571.2,6112.2L534.8,6112.2C531.3,6116.2 527.3,6120.9 522.9,6126.3L571.2,6126.3C598.4,6126.3 620.6,6148.5 620.6,6175.7L620.6,6267.3C620.6,6294.5 598.4,6316.7 571.2,6316.7L423,6316.7C421.2,6322.2 419.8,6326.9 418.7,6330.8L571.2,6330.8C606.2,6330.8 634.7,6302.3 634.7,6267.3L634.7,6175.7C634.7,6140.8 606.2,6112.2 571.2,6112.2Z" style="fill:white;fill-rule:nonzero;"/>
        <path d="M939.4,5443.1L759,5443.1C748,5443.1 737.6,5445.9 728.6,5450.9C730.1,5454.3 732.1,5458.7 734.4,5463.9C741.7,5459.7 750,5457.3 759,5457.3L939.4,5457.3C966.6,5457.3 988.8,5479.5 988.8,5506.7L988.8,5598.3C988.8,5625.6 966.6,5647.7 939.4,5647.7L802.6,5647.7C804.4,5653.7 805.9,5658.5 806.9,5661.8L939.4,5661.8C974.4,5661.8 1002.9,5633.3 1002.9,5598.3L1002.9,5506.7C1003,5471.6 974.5,5443.1 939.4,5443.1Z" style="fill:white;fill-rule:nonzero;"/>
    </g>
</svg>
