<?xml version="1.0" encoding="UTF-8" standalone="no"?>
<!DOCTYPE svg PUBLIC "-//W3C//DTD SVG 1.1//EN" "http://www.w3.org/Graphics/SVG/1.1/DTD/svg11.dtd">
<svg width="100%" height="100%" viewBox="0 0 602 1303" version="1.1" xmlns="http://www.w3.org/2000/svg" xmlns:xlink="http://www.w3.org/1999/xlink" xml:space="preserve" xmlns:serif="http://www.serif.com/" style="fill-rule:evenodd;clip-rule:evenodd;stroke-linejoin:round;stroke-miterlimit:1.41421;">
    <g transform="matrix(1,0,0,1,-1929.66,-1447.85)">
        <g transform="matrix(4.16667,0,0,4.16667,0,0)">
            <path d="M599.329,405.985C599.431,405.985 599.481,405.985 599.532,405.985L599.684,405.935C599.684,405.833 599.736,405.782 599.736,405.732L599.684,405.58C598.315,404.006 596.995,402.432 595.726,400.91L598.01,393.601C602.832,379.032 599.177,367.359 587.045,358.577C585.066,357.156 582.883,355.785 580.499,354.517C578.113,353.298 575.472,352.131 572.682,351.014C572.021,350.659 571.311,350.354 570.652,350.101C565.829,348.07 561.616,347.208 557.809,347.563C554.51,347.817 551.566,349.035 549.029,351.116C546.44,353.196 544.257,356.192 542.479,360.151L542.43,360.252C542.479,361.622 542.631,363.043 542.734,364.363C538.369,363.399 534.156,363.856 530.196,365.683L530.146,365.683C527.506,367.155 525.221,369.033 523.445,371.317C519.029,376.901 517.101,384.972 517.812,395.428C517.812,395.529 517.861,395.529 517.861,395.58C517.913,395.631 517.963,395.681 518.064,395.681L518.218,395.631L518.318,395.529C519.383,391.367 521.263,387.509 523.852,383.905C525.679,381.367 527.913,378.982 530.501,376.748C527.404,382.433 526.745,389.895 528.521,399.031L528.623,399.183L528.775,399.235C528.875,399.235 528.927,399.183 528.978,399.133C529.03,399.133 529.03,399.083 529.03,398.98C529.74,391.621 532.734,385.225 538.014,379.844C537.1,383.754 537.252,387.814 538.521,392.078C539.942,396.239 540.196,400.199 539.486,403.955C539.434,404.31 539.383,404.615 539.283,404.92C535.832,414.31 541.058,422.939 554.966,430.807L555.119,430.807C556.185,430.756 557.2,430.654 558.165,430.552L558.114,430.857L552.529,433.903L552.48,434.005L552.377,434.106L551.87,437.709L540.958,439.69C539.434,439.943 537.912,440.908 536.591,442.684C535.577,443.902 534.664,445.527 533.8,447.557C533.243,448.775 532.734,450.145 532.226,451.719C531.972,452.379 531.77,453.14 531.516,453.851C530.298,452.227 528.013,451.161 524.714,450.603L524.663,450.603C524.308,450.603 523.953,450.603 523.597,450.653C521.873,450.958 520.653,452.683 519.994,455.78L508.32,454.764C505.528,454.257 503.498,454.257 502.229,454.663C500.858,455.171 500.35,456.084 500.756,457.505L500.756,457.556C502.38,460.856 506.949,462.631 514.461,463.038C514.562,465.12 515.122,466.642 516.085,467.606C516.948,468.52 518.218,468.875 519.841,468.672C519.334,471.922 520.604,473.749 523.597,474.306L523.649,474.306C523.953,474.358 524.359,474.408 524.714,474.459C524.968,474.814 525.221,475.118 525.527,475.373L520.805,486.235C511.162,481.311 501.721,474.763 492.583,466.541C492.228,460.5 491.062,457.455 488.929,457.353L482.94,457.353C481.165,457.353 479.945,457.86 479.133,458.977L468.575,457.963C466.494,457.708 464.972,457.911 464.109,458.47C463.194,459.079 462.89,460.145 463.296,461.566C463.803,463.19 465.885,464.053 469.54,464.206L471.215,464.206C469.895,464.967 469.336,466.033 469.388,467.353C469.133,468.977 469.895,470.145 471.722,470.805C471.063,471.26 470.757,472.073 470.91,473.241C471.215,474.713 472.18,475.626 473.905,476.134C473.5,477.657 473.601,478.875 474.159,479.737C474.717,480.652 475.884,481.158 477.508,481.311L481.824,481.311C483.599,480.753 484.463,479.789 484.513,478.52C486.494,479.789 488.574,479.737 490.707,478.52C492.635,482.326 494.666,485.676 496.796,488.672C502.836,496.894 509.792,501.818 517.607,503.34C519.284,503.798 520.653,503.29 521.77,501.919C521.567,503.391 521.364,504.761 521.111,506.031L521.111,506.082C521.06,506.437 521.008,506.842 521.008,507.248C520.908,508.365 520.856,509.736 520.856,511.411C520.805,513.086 520.856,515.168 520.908,517.553C521.161,524.559 521.82,531.461 522.887,538.314C523.393,552.475 521.414,564.556 517.101,574.606C517.05,574.656 517.05,574.706 517.101,574.809L519.334,580.341L510.706,623.842L505.325,626.735C503.547,626.176 501.619,625.923 499.488,625.974C489.997,626.481 484.616,631.506 483.346,641.099C483.092,642.724 483.041,644.602 483.041,646.531C483.041,646.632 483.092,646.683 483.092,646.734C483.143,646.784 483.195,646.784 483.295,646.784C499.488,648.256 515.578,648.002 531.464,646.073C531.567,646.023 531.567,646.023 531.667,645.972C531.667,645.921 531.719,645.921 531.719,645.819L531.719,640.795L532.278,640.998L532.429,640.998L532.582,640.896L532.582,640.795L534.308,628.409C534.308,628.308 534.308,628.257 534.256,628.206L531.161,622.725C534.359,617.547 536.694,611.508 538.166,604.553C539.586,598.157 539.841,592.878 539.028,588.717L536.033,576.382C541.21,562.881 544.103,549.176 544.713,535.318C551.007,549.481 555.779,564.15 558.976,579.225L557.707,582.525L557.658,582.677L557.707,582.828L563.139,587.803L564.256,630.287L561.109,634.349C561.057,634.45 561.006,634.5 561.006,634.552L562.022,646.023L562.022,646.175L562.174,646.226L562.327,646.226L563.139,646.023L563.139,648.967C563.139,649.068 563.139,649.119 563.189,649.17C563.24,649.221 563.292,649.221 563.392,649.221L571.006,649.271C570.652,650.845 570.397,652.57 570.245,654.448L570.296,654.551L570.397,654.652C582.68,661.707 595.015,661.759 607.298,654.855L607.4,654.804L607.451,654.601C607.298,652.875 607.095,651.251 606.792,649.728C604.761,638.816 599.38,633.282 590.65,633.181L588.822,628.054L588.772,627.953L583.747,622.166C582.732,615.568 582.274,607.7 582.326,598.715C582.426,589.528 583.087,581.407 584.204,574.199L584.204,574.098C575.981,558.465 572.885,540.293 574.916,519.584L576.234,509.889L576.234,509.786C575.575,507.959 575.016,506.487 574.61,505.27C574.001,503.543 573.645,502.377 573.493,501.818C573.392,501.36 573.341,500.854 573.29,500.295L573.29,500.244C573.189,498.975 573.189,497.503 573.29,495.778C573.341,495.067 573.442,494.305 573.493,493.545C573.951,493.595 574.458,493.748 574.965,493.797L575.117,493.748C575.168,493.748 575.219,493.748 575.219,493.645L584.153,478.824L589.381,481.717C589.431,481.768 589.431,481.768 589.534,481.768L589.634,481.717L589.685,481.616C590.751,479.382 591.716,477.251 592.529,475.221C593.747,472.073 594.711,469.13 595.319,466.388C596.284,462.277 596.639,458.521 596.385,455.222C595.777,448.622 592.629,443.75 586.996,440.501L581.108,437.456C581.311,437.1 581.564,436.695 581.818,436.339L581.818,436.187L580.346,426.238C580.294,426.136 580.294,426.086 580.294,426.035C580.194,425.984 580.143,425.984 580.091,425.984L578.214,426.086L578.519,423.193C582.883,419.487 585.522,414.564 586.335,408.27C588.113,408.219 589.381,407.712 590.193,406.595C590.955,405.528 591.361,404.057 591.31,402.077C593.847,403.447 596.537,404.768 599.329,405.985Z" style="fill:rgb(35,31,32);fill-rule:nonzero;"/>
        </g>
        <g transform="matrix(4.16667,0,0,4.16667,0,0)">
            <path d="M599.436,405.785C598.042,404.187 596.699,402.589 595.403,400.991L597.739,393.558C601.747,381.356 599.792,371.207 591.876,363.115C597.052,368.721 598.929,376.611 597.484,386.734L595.301,400.864C595.049,400.534 594.794,400.23 594.541,399.9C597.052,384.907 594.516,371.207 586.879,358.853C586.449,358.523 585.993,358.218 585.509,357.914C592.588,370.345 594.998,383.562 592.74,397.566C591.394,395.79 590.127,394.014 588.884,392.214C587.236,380.543 584.392,368.088 580.334,354.819C579.625,354.438 578.888,354.083 578.153,353.703L587.133,389.575C579.041,377.119 573.485,364.053 570.517,350.379C569.705,350.049 568.918,349.745 568.131,349.466C568.056,361.465 572.723,374.303 582.085,387.977L594.009,403.249C595.759,404.137 597.561,405 599.436,405.785Z" style="fill:rgb(114,87,73);fill-rule:nonzero;"/>
        </g>
        <g transform="matrix(4.16667,0,0,4.16667,0,0)">
            <path d="M594.541,399.9C594.794,400.23 595.049,400.534 595.301,400.864L597.484,386.734C598.929,376.611 597.052,368.722 591.877,363.115C590.406,361.617 588.73,360.197 586.879,358.853C594.516,371.207 597.052,384.907 594.541,399.9Z" style="fill:rgb(162,120,101);fill-rule:nonzero;"/>
        </g>
        <g transform="matrix(4.16667,0,0,4.16667,0,0)">
            <path d="M578.153,353.703C576.402,352.865 574.525,352.054 572.572,351.293C571.886,350.963 571.202,350.659 570.517,350.379C573.485,364.053 579.041,377.119 587.133,389.575L578.153,353.703Z" style="fill:rgb(162,120,101);fill-rule:nonzero;"/>
        </g>
        <g transform="matrix(4.16667,0,0,4.16667,0,0)">
            <path d="M585.509,357.914C583.911,356.823 582.186,355.809 580.334,354.819C584.394,368.088 587.236,380.543 588.884,392.214C590.127,394.014 591.394,395.79 592.74,397.566C594.998,383.562 592.588,370.345 585.509,357.914Z" style="fill:rgb(162,120,101);fill-rule:nonzero;"/>
        </g>
        <g transform="matrix(4.16667,0,0,4.16667,0,0)">
            <path d="M557.832,347.868C556.816,347.943 555.827,348.121 554.889,348.401C554.813,358.777 559.633,371.106 569.299,385.389L577.72,396.755C578.432,397.262 579.167,397.769 579.903,398.276L576.554,391.122C565.088,380.137 558.846,365.702 557.832,347.868Z" style="fill:rgb(114,87,73);fill-rule:nonzero;"/>
        </g>
        <g transform="matrix(4.16667,0,0,4.16667,0,0)">
            <path d="M568.131,349.466C564.352,348.121 560.926,347.589 557.832,347.868C558.846,365.702 565.088,380.137 576.554,391.122C580.689,395.08 585.509,398.58 591.013,401.651C592.004,402.208 592.993,402.741 594.009,403.249L582.085,387.977C572.723,374.303 568.056,361.465 568.131,349.466ZM558.643,348.579C559.176,348.553 559.734,348.579 560.292,348.604C560.8,357.102 563.387,366.134 568.056,375.724C573.307,384.424 580.233,391.781 588.783,397.795L591.216,400.889C585.839,397.871 581.121,394.445 577.086,390.589C565.925,379.858 559.786,365.855 558.643,348.579Z" style="fill:rgb(162,120,101);fill-rule:nonzero;"/>
        </g>
        <g transform="matrix(4.16667,0,0,4.16667,0,0)">
            <path d="M560.292,348.604C559.734,348.579 559.176,348.553 558.643,348.579C559.786,365.855 565.925,379.858 577.086,390.589C581.121,394.445 585.839,397.871 591.216,400.889L588.783,397.795C580.233,391.781 573.307,384.424 568.056,375.724C563.387,366.134 560.8,357.102 560.292,348.604Z" style="fill:rgb(189,150,135);fill-rule:nonzero;"/>
        </g>
        <g transform="matrix(4.16667,0,0,4.16667,0,0)">
            <path d="M549.18,351.344C548.446,351.927 547.761,352.611 547.1,353.348C547.278,366.514 549.917,380.442 555.016,395.182C556.259,396.78 557.603,398.302 559.049,399.773C556.107,389.879 553.747,379.985 551.945,370.117C550.804,363.85 549.867,357.61 549.18,351.344Z" style="fill:rgb(114,87,73);fill-rule:nonzero;"/>
        </g>
        <g transform="matrix(4.16667,0,0,4.16667,0,0)">
            <path d="M549.791,350.887C549.586,351.014 549.383,351.166 549.18,351.344C549.867,357.61 550.804,363.85 551.945,370.117C557.35,379.402 565.925,388.281 577.72,396.755L569.299,385.389C559.633,371.106 554.813,358.777 554.889,348.401C553.039,348.883 551.337,349.72 549.791,350.887ZM551.463,350.685L554.56,368.975C558.872,376.154 564.757,383.359 572.191,390.564L574.016,393.025C564.478,385.592 557.375,377.88 552.681,369.862C551.591,364.003 550.729,358.117 550.07,352.257L549.967,351.699L549.994,351.699C550.475,351.318 550.957,350.988 551.463,350.684L551.463,350.685Z" style="fill:rgb(162,120,101);fill-rule:nonzero;"/>
        </g>
        <g transform="matrix(4.16667,0,0,4.16667,0,0)">
            <path d="M554.56,368.975L551.463,350.685C550.957,350.988 550.475,351.318 549.994,351.699C550.017,351.877 550.042,352.079 550.07,352.257C550.729,358.117 551.591,364.003 552.681,369.862C557.375,377.88 564.478,385.592 574.016,393.025L572.191,390.564C564.757,383.359 558.872,376.154 554.56,368.975Z" style="fill:rgb(189,150,135);fill-rule:nonzero;"/>
        </g>
        <g transform="matrix(4.16667,0,0,4.16667,0,0)">
            <path d="M543.042,364.713C543.092,365.195 543.143,365.652 543.218,366.134C543.576,368.874 544.082,371.537 544.742,374.1C546.746,381.989 550.17,389.017 555.016,395.182C549.917,380.442 547.278,366.514 547.1,353.348C545.426,355.2 543.955,357.509 542.686,360.299C542.762,361.795 542.889,363.267 543.042,364.713ZM543.98,366.032C543.904,365.576 543.854,365.118 543.802,364.637C543.651,363.241 543.548,361.846 543.473,360.451C544.335,358.548 545.3,356.873 546.39,355.428C546.416,356.544 546.491,357.661 546.568,358.801L544.564,361.821C545.401,369.762 547.406,376.89 550.576,383.156C550.601,383.284 550.626,383.384 550.678,383.511C551.286,385.871 551.972,388.23 552.733,390.641C549.458,385.592 547.025,380.01 545.478,373.922C544.842,371.36 544.335,368.747 543.98,366.032Z" style="fill:rgb(162,120,101);fill-rule:nonzero;"/>
        </g>
        <g transform="matrix(4.16667,0,0,4.16667,0,0)">
            <path d="M543.98,366.032C544.335,368.747 544.842,371.36 545.478,373.922C547.025,380.01 549.458,385.592 552.733,390.641C551.972,388.23 551.286,385.871 550.678,383.511C550.626,383.384 550.601,383.284 550.576,383.156C547.406,376.89 545.401,369.762 544.564,361.821L546.568,358.801C546.491,357.661 546.416,356.544 546.39,355.428C545.3,356.873 544.335,358.548 543.473,360.451C543.548,361.846 543.651,363.241 543.802,364.637C543.854,365.118 543.904,365.576 543.98,366.032Z" style="fill:rgb(189,150,135);fill-rule:nonzero;"/>
        </g>
        <g transform="matrix(4.16667,0,0,4.16667,0,0)">
            <path d="M543.218,366.134C543.143,365.652 543.092,365.195 543.042,364.713C542.129,364.51 541.215,364.358 540.328,364.281C529.925,369.381 522.466,378.337 517.953,391.097C517.925,392.492 517.978,393.964 518.078,395.46C519.168,391.325 521.046,387.444 523.659,383.816C525.765,380.898 528.378,378.159 531.449,375.571C533.91,371.639 537.664,368.569 542.661,366.387C542.837,366.311 543.042,366.21 543.218,366.134Z" style="fill:rgb(114,87,73);fill-rule:nonzero;"/>
        </g>
        <g transform="matrix(4.16667,0,0,4.16667,0,0)">
            <path d="M543.218,366.134C543.042,366.21 542.837,366.311 542.661,366.387C537.664,368.569 533.91,371.639 531.449,375.571C528.785,379.782 527.591,385.008 527.845,391.223C527.871,391.859 527.897,392.492 527.946,393.127C532.234,380.798 536.827,374.175 541.749,373.263L543.218,366.134ZM541.774,367.631C541.9,367.554 542.052,367.504 542.178,367.427L541.824,369.127L533.882,375.394C531.575,378.311 530.281,381.812 529.951,385.897C529.596,386.657 529.241,387.469 528.911,388.332L528.708,388.839L528.582,389.194C528.659,384.019 529.825,379.605 532.108,375.976C534.289,372.476 537.511,369.685 541.774,367.631Z" style="fill:rgb(162,120,101);fill-rule:nonzero;"/>
        </g>
        <g transform="matrix(4.16667,0,0,4.16667,0,0)">
            <path d="M542.178,367.427C542.052,367.504 541.9,367.554 541.774,367.631C537.511,369.685 534.289,372.476 532.108,375.977C529.825,379.605 528.659,384.019 528.582,389.194C528.607,389.067 528.659,388.965 528.708,388.839L528.911,388.332C529.241,387.469 529.596,386.657 529.951,385.897C530.281,381.812 531.575,378.311 533.882,375.394L541.824,369.127L542.178,367.427Z" style="fill:rgb(189,150,135);fill-rule:nonzero;"/>
        </g>
        <g transform="matrix(4.16667,0,0,4.16667,0,0)">
            <path d="M538.677,364.18C535.787,364.13 532.996,364.713 530.281,365.956C527.667,367.402 525.459,369.279 523.659,371.537C520.336,375.724 518.459,381.33 518.028,388.332C517.978,389.22 517.953,390.158 517.953,391.097C522.466,378.337 529.925,369.381 540.328,364.281C539.769,364.206 539.21,364.18 538.677,364.18ZM526.805,371.233C523.99,374.403 522.188,377.854 521.351,381.609C521.172,381.964 520.969,382.319 520.792,382.674C520.208,383.714 519.677,384.805 519.193,385.947C519.119,386.125 519.018,386.302 518.94,386.48C519.549,380.518 521.326,375.698 524.268,372.02C525.968,369.837 528.1,368.036 530.61,366.641L530.61,366.667C532.589,365.753 534.619,365.195 536.7,365.018C536.927,364.992 537.182,364.992 537.409,364.966C536.116,365.702 534.898,366.514 533.707,367.402L533.579,367.479L526.805,371.233Z" style="fill:rgb(162,120,101);fill-rule:nonzero;"/>
        </g>
        <g transform="matrix(4.16667,0,0,4.16667,0,0)">
            <path d="M521.351,381.609C522.188,377.854 523.99,374.403 526.805,371.233L533.579,367.479L533.707,367.402C534.898,366.514 536.116,365.702 537.409,364.966C537.182,364.992 536.927,364.992 536.7,365.018C534.619,365.195 532.589,365.754 530.61,366.667L530.61,366.641C528.1,368.036 525.968,369.837 524.268,372.02C521.326,375.698 519.549,380.518 518.94,386.48C519.018,386.302 519.119,386.125 519.193,385.947C519.677,384.805 520.208,383.714 520.792,382.674C520.969,382.319 521.172,381.964 521.351,381.609Z" style="fill:rgb(189,150,135);fill-rule:nonzero;"/>
        </g>
        <g transform="matrix(4.16667,0,0,4.16667,0,0)">
            <path d="M544.742,374.1C542.408,375.647 540.328,377.297 538.5,379.072C537.967,380.924 537.689,382.852 537.689,384.805L543.169,380.543C544.158,389.981 550.856,397.946 563.31,404.441L558.112,385.262C564.352,391.757 572.723,397.667 583.251,403.02L581.983,399.24L587.97,404.111C588.249,407.003 586.524,407.891 582.77,406.8C581.273,417.735 571.607,425.421 553.824,429.861C554.254,430.114 554.661,430.368 555.091,430.597C556.259,430.52 557.4,430.42 558.491,430.292C567.041,429.303 573.612,426.893 578.229,423.063C582.667,419.384 585.281,414.36 586.093,408.044C589.62,408.068 591.268,405.938 591.013,401.651C585.509,398.58 580.689,395.08 576.554,391.122L579.903,398.276C579.167,397.769 578.432,397.262 577.72,396.755C565.925,388.281 557.35,379.402 551.945,370.117C553.747,379.985 556.107,389.879 559.049,399.773C557.603,398.302 556.259,396.78 555.016,395.182C550.17,389.017 546.746,381.989 544.742,374.1Z" style="fill:rgb(211,159,130);fill-rule:nonzero;"/>
        </g>
        <g transform="matrix(4.16667,0,0,4.16667,0,0)">
            <path d="M538.5,379.072C540.328,377.297 542.408,375.647 544.742,374.1C544.082,371.537 543.576,368.874 543.218,366.134L541.749,373.263C536.827,374.175 532.234,380.798 527.946,393.127C528.1,395.004 528.378,396.957 528.785,399.012C529.521,391.275 532.767,384.628 538.5,379.072Z" style="fill:rgb(114,87,73);fill-rule:nonzero;"/>
        </g>
        <g transform="matrix(4.16667,0,0,4.16667,0,0)">
            <path d="M537.689,384.805C537.664,387.165 538.018,389.575 538.754,392.061C540.175,396.247 540.505,400.256 539.744,404.06C539.668,404.39 539.591,404.695 539.514,405.025C536.243,414.03 541.012,422.326 553.824,429.861C571.607,425.421 581.273,417.735 582.77,406.8C586.524,407.891 588.249,407.003 587.97,404.111L581.983,399.24L583.251,403.02C572.723,397.667 564.352,391.756 558.112,385.262L563.31,404.441C550.856,397.946 544.158,389.981 543.169,380.543L537.689,384.805ZM541.975,394.471C542.052,394.674 542.155,394.877 542.23,395.08C542.333,395.334 542.433,395.587 542.51,395.841C543.625,399.114 543.702,402.564 542.762,406.217C542.585,406.851 542.382,407.511 542.155,408.196C542.129,408.348 542.078,408.501 542.052,408.678C541.113,414.69 545.756,421.312 555.954,428.542C555.294,428.719 554.635,428.871 553.95,429.049C541.774,421.794 537.208,413.878 540.226,405.278L540.25,405.228C540.328,404.898 540.428,404.543 540.505,404.213C541.292,400.281 540.935,396.171 539.491,391.833L539.491,391.859C538.806,389.549 538.474,387.318 538.449,385.161L540.505,383.562C539.947,386.962 540.428,390.589 541.975,394.471Z" style="fill:rgb(245,215,190);fill-rule:nonzero;"/>
        </g>
        <g transform="matrix(4.16667,0,0,4.16667,0,0)">
            <path d="M542.23,395.08C542.155,394.877 542.052,394.674 541.975,394.471C540.428,390.589 539.947,386.962 540.505,383.562L538.449,385.161C538.474,387.318 538.806,389.549 539.491,391.859L539.491,391.833C540.935,396.171 541.292,400.281 540.505,404.213C540.428,404.543 540.328,404.897 540.25,405.228L540.226,405.278C537.208,413.878 541.774,421.794 553.95,429.049C554.635,428.871 555.294,428.719 555.954,428.542C545.756,421.312 541.113,414.69 542.052,408.678C542.078,408.501 542.129,408.348 542.155,408.195C542.382,407.511 542.585,406.851 542.762,406.217C543.702,402.564 543.625,399.113 542.51,395.841C542.433,395.587 542.333,395.334 542.23,395.08Z" style="fill:rgb(247,240,232);fill-rule:nonzero;"/>
        </g>
        <g transform="matrix(4.16667,0,0,4.16667,0,0)">
            <path d="M558.059,432.22L558.314,431.079L552.658,434.149L552.074,437.928L551.363,442.419L550.957,444.879L552.605,442.723L556.969,436.989L558.059,432.22Z" style="fill:rgb(249,251,252);fill-rule:nonzero;"/>
        </g>
        <g transform="matrix(4.16667,0,0,4.16667,0,0)">
            <path d="M558.314,431.079L558.059,432.22C563.261,432.043 568.437,430.723 573.637,428.212C575.083,427.527 576.502,426.741 577.949,425.853L578.229,423.063C573.612,426.893 567.041,429.303 558.491,430.292L558.314,431.079Z" style="fill:rgb(179,132,108);fill-rule:nonzero;"/>
        </g>
        <g transform="matrix(4.16667,0,0,4.16667,0,0)">
            <path d="M580.081,426.258L577.874,426.41L577.519,429.785C578.888,428.516 579.75,427.349 580.081,426.258Z" style="fill:rgb(209,211,212);fill-rule:nonzero;"/>
        </g>
        <g transform="matrix(4.16667,0,0,4.16667,0,0)">
            <path d="M580.081,426.258C579.75,427.349 578.888,428.516 577.519,429.785C574.55,432.55 569.121,435.746 561.282,439.424C562.678,441.176 563.616,443.281 564.097,445.767C564.377,447.214 564.504,448.812 564.478,450.511C567.244,449.066 569.73,447.594 571.938,446.047C573.993,444.601 575.768,443.129 577.316,441.607C578.609,440.313 579.75,438.968 580.714,437.599C581.02,437.142 581.298,436.685 581.577,436.229L580.081,426.258Z" style="fill:rgb(249,251,252);fill-rule:nonzero;"/>
        </g>
        <g transform="matrix(4.16667,0,0,4.16667,0,0)">
            <path d="M577.949,425.853C576.502,426.741 575.083,427.527 573.637,428.212L573.637,430.216L559.836,437.751L555.954,443.738L554.914,450.511L558.11,444.956L561.282,439.425C569.121,435.746 574.55,432.55 577.519,429.785L577.874,426.41L577.949,425.853Z" style="fill:rgb(211,159,130);fill-rule:nonzero;"/>
        </g>
        <g transform="matrix(4.16667,0,0,4.16667,0,0)">
            <path d="M573.637,430.216L573.637,428.212C568.437,430.723 563.261,432.043 558.059,432.22L556.969,436.989L555.954,443.738L559.836,437.751L573.637,430.216Z" style="fill:rgb(245,215,190);fill-rule:nonzero;"/>
        </g>
        <g transform="matrix(4.16667,0,0,4.16667,0,0)">
            <path d="M583.251,442.469C583.988,441.632 584.75,440.82 585.509,440.06L583.378,438.968L580.665,442.089L583.251,442.469Z" style="fill:rgb(203,217,224);fill-rule:nonzero;"/>
        </g>
        <g transform="matrix(4.16667,0,0,4.16667,0,0)">
            <path d="M585.509,440.06C584.75,440.82 583.988,441.632 583.251,442.469C582.085,443.814 580.917,445.26 579.777,446.859C579.649,447.036 579.547,447.188 579.421,447.365C583.86,447.162 588.021,448.483 591.852,451.349C590.761,447.162 588.655,443.409 585.509,440.06Z" style="fill:rgb(249,251,252);fill-rule:nonzero;"/>
        </g>
        <g transform="matrix(4.16667,0,0,4.16667,0,0)">
            <path d="M583.378,438.968L582.77,438.665L578.837,441.835L580.665,442.089L583.378,438.968Z" style="fill:rgb(249,251,252);fill-rule:nonzero;"/>
        </g>
        <g transform="matrix(4.16667,0,0,4.16667,0,0)">
            <path d="M586.855,440.745L585.509,440.06C588.655,443.409 590.761,447.162 591.852,451.349C593.298,452.439 594.719,453.734 596.089,455.256C595.505,448.786 592.411,443.941 586.855,440.745Z" style="fill:rgb(203,217,224);fill-rule:nonzero;"/>
        </g>
        <g transform="matrix(4.16667,0,0,4.16667,0,0)">
            <path d="M580.714,437.599C579.75,438.968 578.609,440.313 577.316,441.607L578.812,441.836L578.837,441.836L582.77,438.665L580.714,437.599Z" style="fill:rgb(203,217,224);fill-rule:nonzero;"/>
        </g>
        <g transform="matrix(4.16667,0,0,4.16667,0,0)">
            <path d="M578.837,441.836L578.812,441.836L577.316,441.607C575.768,443.129 573.993,444.601 571.938,446.047L574.043,446.275L574.068,446.275L576.808,446.554L580.665,442.089L578.837,441.836Z" style="fill:rgb(109,133,149);fill-rule:nonzero;"/>
        </g>
        <g transform="matrix(4.16667,0,0,4.16667,0,0)">
            <path d="M576.402,451.906C577.392,450.308 578.405,448.786 579.421,447.365C579.547,447.188 579.649,447.036 579.777,446.859L576.808,446.554L571.785,452.363C573.282,452.236 574.83,452.084 576.402,451.906Z" style="fill:rgb(203,217,224);fill-rule:nonzero;"/>
        </g>
        <g transform="matrix(4.16667,0,0,4.16667,0,0)">
            <path d="M579.421,447.365C578.405,448.786 577.392,450.308 576.402,451.906C576.173,452.287 575.946,452.668 575.717,453.049C581.654,454.19 587.183,457.539 592.333,463.145C592.969,458.908 592.792,454.977 591.852,451.349C588.021,448.483 583.86,447.162 579.421,447.365Z" style="fill:rgb(109,133,149);fill-rule:nonzero;"/>
        </g>
        <g transform="matrix(4.16667,0,0,4.16667,0,0)">
            <path d="M576.808,446.554L579.777,446.859C580.917,445.26 582.085,443.814 583.251,442.469L580.665,442.089L576.808,446.554Z" style="fill:rgb(76,96,102);fill-rule:nonzero;"/>
        </g>
        <g transform="matrix(4.16667,0,0,4.16667,0,0)">
            <path d="M574.068,446.275L574.043,446.275L563.869,452.515C566.381,452.591 569.019,452.541 571.785,452.363L576.808,446.554L574.068,446.275Z" style="fill:rgb(249,251,252);fill-rule:nonzero;"/>
        </g>
        <g transform="matrix(4.16667,0,0,4.16667,0,0)">
            <path d="M574.043,446.275L571.938,446.047C569.73,447.594 567.244,449.066 564.478,450.511C564.504,448.812 564.377,447.214 564.097,445.767L558.112,444.956L554.914,450.511L555.954,443.738L552.606,442.723L550.957,444.879L551.363,442.419L550.042,442.063L549.664,447.29L553.773,445.285L553.773,451.323C554.585,451.501 555.422,451.653 556.285,451.806L561.205,445.97L563.869,452.515L574.043,446.275Z" style="fill:rgb(203,217,224);fill-rule:nonzero;"/>
        </g>
        <g transform="matrix(4.16667,0,0,4.16667,0,0)">
            <path d="M573.053,457.742C573.941,456.092 574.83,454.545 575.717,453.049C575.946,452.668 576.173,452.287 576.402,451.906C574.83,452.084 573.282,452.236 571.785,452.363L568.081,457.92C569.73,457.894 571.379,457.818 573.053,457.742Z" style="fill:rgb(76,96,102);fill-rule:nonzero;"/>
        </g>
        <g transform="matrix(4.16667,0,0,4.16667,0,0)">
            <path d="M575.717,453.049C574.83,454.545 573.941,456.092 573.053,457.742C572.672,458.427 572.292,459.137 571.938,459.873C579.471,460.355 585.586,464.236 590.228,471.542C591.244,468.625 591.953,465.809 592.333,463.145C587.183,457.539 581.654,454.19 575.717,453.049Z" style="fill:rgb(249,251,252);fill-rule:nonzero;"/>
        </g>
        <g transform="matrix(4.16667,0,0,4.16667,0,0)">
            <path d="M571.785,452.363C569.019,452.541 566.381,452.591 563.869,452.515C561.207,452.439 558.694,452.186 556.285,451.806L553.773,454.748L553.773,451.323C549.13,450.334 544.995,448.711 541.316,446.503L539.668,449.852L537.917,453.327C546.897,456.499 556.944,458.046 568.081,457.92L571.785,452.363Z" style="fill:rgb(109,133,149);fill-rule:nonzero;"/>
        </g>
        <g transform="matrix(4.16667,0,0,4.16667,0,0)">
            <path d="M564.097,445.767C563.616,443.281 562.678,441.176 561.282,439.424L558.11,444.956L564.097,445.767Z" style="fill:rgb(76,96,102);fill-rule:nonzero;"/>
        </g>
        <g transform="matrix(4.16667,0,0,4.16667,0,0)">
            <path d="M552.074,437.928L550.297,438.258L550.042,442.064L551.363,442.419L552.074,437.928Z" style="fill:rgb(76,96,102);fill-rule:nonzero;"/>
        </g>
        <g transform="matrix(4.16667,0,0,4.16667,0,0)">
            <path d="M556.969,436.989L552.606,442.723L555.954,443.738L556.969,436.989Z" style="fill:rgb(76,96,102);fill-rule:nonzero;"/>
        </g>
        <g transform="matrix(4.16667,0,0,4.16667,0,0)">
            <path d="M556.285,451.806C555.422,451.653 554.585,451.501 553.773,451.323L553.773,454.748L556.285,451.806Z" style="fill:rgb(76,96,102);fill-rule:nonzero;"/>
        </g>
        <g transform="matrix(4.16667,0,0,4.16667,0,0)">
            <path d="M563.869,452.515L561.205,445.97L556.285,451.806C558.694,452.186 561.205,452.439 563.869,452.515Z" style="fill:rgb(249,251,252);fill-rule:nonzero;"/>
        </g>
        <g transform="matrix(4.16667,0,0,4.16667,0,0)">
            <path d="M553.773,451.323L553.773,445.285L549.664,447.29L550.042,442.063L543.218,440.16L541.9,445.057L541.749,445.641L541.316,446.503C544.995,448.711 549.13,450.334 553.773,451.323Z" style="fill:rgb(249,251,252);fill-rule:nonzero;"/>
        </g>
        <g transform="matrix(4.16667,0,0,4.16667,0,0)">
            <path d="M567.878,472.988L570.44,468.524L571.202,467.179C570.415,466.849 569.629,466.57 568.816,466.291C557.325,465.733 546.263,463.932 535.583,460.913C535.988,461.243 536.42,461.547 536.877,461.852C538.628,462.993 540.834,463.957 543.448,464.794C554.432,466.088 562.576,468.803 567.878,472.988Z" style="fill:rgb(76,96,102);fill-rule:nonzero;"/>
        </g>
        <g transform="matrix(4.16667,0,0,4.16667,0,0)">
            <path d="M570.44,468.524L567.878,472.988C570.389,474.993 572.267,477.352 573.509,480.016L574.144,482.07C563.997,473.318 554.406,468.726 545.375,468.244L537.841,465.733C531.017,461.902 527.083,457.031 526.043,451.171C525.614,451.069 525.131,450.968 524.65,450.892C524.293,450.866 523.963,450.866 523.659,450.943C522.314,451.196 521.326,452.363 520.64,454.419L523.331,456.321L520.208,456.068L508.312,455.027C502.781,454.089 500.345,454.9 500.979,457.463C505.978,460.203 513.435,461.496 523.379,461.318L521.07,462.714C518.763,462.841 516.632,462.841 514.705,462.764C514.932,467.078 516.758,468.955 520.133,468.371C519.854,469.969 519.981,471.264 520.565,472.202C521.502,473.065 523.279,473.522 525.866,473.597C528.785,474.84 532.463,474.485 536.877,472.482C539.846,476.109 543.143,479.28 546.771,482.02C550.145,484.557 553.824,486.713 557.781,488.489C561.485,490.138 565.443,491.483 569.655,492.472C569.781,492.497 569.881,492.548 570.008,492.573L570.211,492.624C574.093,488.134 577.086,482.578 579.167,475.931L570.44,468.524ZM523.279,457.082L524.419,458.148L503.187,457.691C502.655,457.463 502.147,457.209 501.664,456.955C501.588,456.321 501.893,455.89 502.578,455.662C503.72,455.307 505.571,455.357 508.184,455.788L508.261,455.788L523.279,457.082ZM520.818,468.041C520.742,467.889 520.615,467.789 520.489,467.712C520.336,467.636 520.184,467.61 520.005,467.636C518.612,467.864 517.544,467.61 516.784,466.875C516.125,466.165 515.718,465.048 515.542,463.551C516.151,463.576 516.784,463.576 517.417,463.576C517.216,464.997 519.068,465.961 522.95,466.468C521.857,469.107 522.391,471.213 524.574,472.76C522.974,472.608 521.833,472.253 521.148,471.694C520.716,470.908 520.64,469.843 520.893,468.524C520.919,468.345 520.893,468.193 520.818,468.041ZM547.228,481.411C543.651,478.722 540.428,475.627 537.537,472.101C547.353,480.142 558.517,486.307 570.973,490.544C570.643,490.95 570.289,491.356 569.958,491.762L569.858,491.736L569.833,491.736C565.67,490.748 561.763,489.453 558.112,487.804C554.179,486.054 550.551,483.923 547.228,481.411Z" style="fill:rgb(245,215,190);fill-rule:nonzero;"/>
        </g>
        <g transform="matrix(4.16667,0,0,4.16667,0,0)">
            <path d="M524.419,458.148L523.279,457.082L508.261,455.788L508.184,455.788C505.571,455.357 503.72,455.307 502.578,455.662C501.893,455.89 501.588,456.321 501.664,456.955C502.147,457.209 502.655,457.463 503.187,457.691L524.419,458.148Z" style="fill:rgb(247,240,232);fill-rule:nonzero;"/>
        </g>
        <g transform="matrix(4.16667,0,0,4.16667,0,0)">
            <path d="M520.489,467.712C520.615,467.789 520.742,467.889 520.818,468.041C520.893,468.193 520.919,468.345 520.893,468.524C520.64,469.843 520.716,470.908 521.148,471.694C521.833,472.253 522.974,472.608 524.574,472.76C522.391,471.213 521.857,469.107 522.95,466.468C519.068,465.961 517.216,464.997 517.419,463.576C516.784,463.576 516.151,463.576 515.542,463.551C515.718,465.048 516.125,466.165 516.784,466.875C517.546,467.61 518.612,467.864 520.005,467.636C520.184,467.61 520.336,467.636 520.489,467.712Z" style="fill:rgb(247,240,232);fill-rule:nonzero;"/>
        </g>
        <g transform="matrix(4.16667,0,0,4.16667,0,0)">
            <path d="M537.537,472.101C540.428,475.627 543.651,478.722 547.228,481.411C550.551,483.923 554.179,486.054 558.112,487.804C561.763,489.453 565.67,490.748 569.833,491.736L569.858,491.736L569.958,491.762C570.289,491.356 570.643,490.95 570.973,490.544C558.517,486.307 547.353,480.142 537.537,472.101Z" style="fill:rgb(247,240,232);fill-rule:nonzero;"/>
        </g>
        <g transform="matrix(4.16667,0,0,4.16667,0,0)">
            <path d="M571.963,467.508C571.709,467.382 571.455,467.28 571.202,467.179L570.44,468.524L579.167,475.931C577.086,482.578 574.093,488.134 570.211,492.624C571.202,492.853 572.216,493.056 573.256,493.233C573.84,493.335 574.422,493.436 575.006,493.538L584.038,478.494L585.256,476.464C581.527,472.685 577.113,469.691 571.961,467.508L571.963,467.508Z" style="fill:rgb(211,159,130);fill-rule:nonzero;"/>
        </g>
        <g transform="matrix(4.16667,0,0,4.16667,0,0)">
            <path d="M571.202,467.179C571.455,467.28 571.709,467.382 571.963,467.508C579.498,467.483 585.053,470.224 588.629,475.677C589.239,474.282 589.772,472.887 590.228,471.542C585.586,464.236 579.471,460.355 571.938,459.873C570.898,461.902 569.858,464.033 568.816,466.291C569.629,466.57 570.415,466.849 571.202,467.179Z" style="fill:rgb(109,133,149);fill-rule:nonzero;"/>
        </g>
        <g transform="matrix(4.16667,0,0,4.16667,0,0)">
            <path d="M574.144,482.07L573.51,480.016C572.267,477.352 570.389,474.993 567.878,472.988C562.576,468.803 554.432,466.088 543.448,464.794C540.834,463.957 538.628,462.993 536.877,461.852C536.42,461.547 535.988,461.243 535.583,460.913C535.228,460.634 534.898,460.329 534.569,460.025C532.919,458.401 531.93,456.55 531.599,454.444C530.636,452.896 528.785,451.806 526.043,451.171C527.083,457.031 531.017,461.902 537.841,465.733L545.375,468.244C554.406,468.726 563.997,473.318 574.144,482.07Z" style="fill:rgb(211,159,130);fill-rule:nonzero;"/>
        </g>
        <g transform="matrix(4.16667,0,0,4.16667,0,0)">
            <path d="M585.256,476.464L584.038,478.494L589.466,481.512C588.173,479.687 586.778,478.011 585.256,476.464Z" style="fill:rgb(35,31,32);fill-rule:nonzero;"/>
        </g>
        <g transform="matrix(4.16667,0,0,4.16667,0,0)">
            <path d="M585.256,476.464C586.778,478.012 588.173,479.687 589.466,481.512C590.508,479.306 591.446,477.174 592.256,475.12C591.624,473.851 590.938,472.659 590.228,471.542C589.772,472.887 589.239,474.282 588.629,475.677C585.053,470.224 579.498,467.483 571.963,467.508C577.113,469.691 581.527,472.685 585.256,476.464Z" style="fill:rgb(76,96,102);fill-rule:nonzero;"/>
        </g>
        <g transform="matrix(4.16667,0,0,4.16667,0,0)">
            <path d="M568.816,466.291C569.858,464.033 570.898,461.902 571.938,459.873C572.292,459.137 572.672,458.427 573.053,457.742C571.379,457.818 569.73,457.894 568.081,457.92L563.793,464.313C554.534,463.704 544.792,462.283 534.569,460.025C534.898,460.329 535.228,460.634 535.583,460.913C546.263,463.932 557.325,465.733 568.816,466.291Z" style="fill:rgb(203,217,224);fill-rule:nonzero;"/>
        </g>
        <g transform="matrix(4.16667,0,0,4.16667,0,0)">
            <path d="M563.793,464.313L568.081,457.92C556.944,458.046 546.897,456.499 537.917,453.327L537.13,454.926L534.569,460.025C544.792,462.283 554.534,463.704 563.793,464.313Z" style="fill:rgb(249,251,252);fill-rule:nonzero;"/>
        </g>
        <g transform="matrix(4.16667,0,0,4.16667,0,0)">
            <path d="M543.218,440.16L543.373,439.552L541.722,439.857L539.769,444.144L541.9,445.057L543.218,440.16Z" style="fill:rgb(203,217,224);fill-rule:nonzero;"/>
        </g>
        <g transform="matrix(4.16667,0,0,4.16667,0,0)">
            <path d="M543.373,439.552L543.218,440.16L550.042,442.063L550.297,438.258L543.373,439.552Z" style="fill:rgb(109,133,149);fill-rule:nonzero;"/>
        </g>
        <g transform="matrix(4.16667,0,0,4.16667,0,0)">
            <path d="M541.749,445.641L541.9,445.057L539.769,444.144L537.562,449.04L539.668,449.852L541.316,446.503L541.749,445.641Z" style="fill:rgb(76,96,102);fill-rule:nonzero;"/>
        </g>
        <g transform="matrix(4.16667,0,0,4.16667,0,0)">
            <path d="M541.722,439.857L541.012,439.983C539.514,440.186 538.093,441.15 536.775,442.85L539.769,444.144L541.722,439.857Z" style="fill:rgb(249,251,252);fill-rule:nonzero;"/>
        </g>
        <g transform="matrix(4.16667,0,0,4.16667,0,0)">
            <path d="M539.769,444.144L536.775,442.85C535.812,444.068 534.898,445.666 534.01,447.645L537.562,449.041L539.769,444.144Z" style="fill:rgb(109,133,149);fill-rule:nonzero;"/>
        </g>
        <g transform="matrix(4.16667,0,0,4.16667,0,0)">
            <path d="M539.668,449.852L537.562,449.041L535.431,453.784L537.13,454.926L537.917,453.327L539.668,449.852Z" style="fill:rgb(203,217,224);fill-rule:nonzero;"/>
        </g>
        <g transform="matrix(4.16667,0,0,4.16667,0,0)">
            <path d="M534.01,447.645C533.478,448.888 532.945,450.257 532.438,451.806L535.431,453.784L537.562,449.04L534.01,447.645Z" style="fill:rgb(249,251,252);fill-rule:nonzero;"/>
        </g>
        <g transform="matrix(4.16667,0,0,4.16667,0,0)">
            <path d="M534.085,456.752L531.98,453.226C531.853,453.607 531.727,454.012 531.599,454.444C531.93,456.55 532.919,458.401 534.569,460.025L537.13,454.926L535.431,453.784L534.085,456.752Z" style="fill:rgb(76,96,102);fill-rule:nonzero;"/>
        </g>
        <g transform="matrix(4.16667,0,0,4.16667,0,0)">
            <path d="M531.98,453.226L534.085,456.752L535.431,453.784L532.438,451.806C532.286,452.262 532.133,452.744 531.98,453.226Z" style="fill:rgb(109,133,149);fill-rule:nonzero;"/>
        </g>
        <g transform="matrix(4.16667,0,0,4.16667,0,0)">
            <path d="M523.331,456.321L520.64,454.419C520.461,454.9 520.336,455.459 520.208,456.068L523.331,456.321Z" style="fill:rgb(211,159,130);fill-rule:nonzero;"/>
        </g>
        <g transform="matrix(4.16667,0,0,4.16667,0,0)">
            <path d="M521.07,462.714L523.379,461.318C513.435,461.496 505.978,460.203 500.979,457.463C502.655,460.684 507.219,462.435 514.705,462.764C516.632,462.841 518.763,462.841 521.07,462.714Z" style="fill:rgb(211,159,130);fill-rule:nonzero;"/>
        </g>
        <g transform="matrix(4.16667,0,0,4.16667,0,0)">
            <path d="M525.866,473.597C523.279,473.522 521.502,473.065 520.565,472.202C521.148,473.166 522.164,473.775 523.659,474.054C524.039,474.13 524.419,474.155 524.852,474.181C525.131,474.637 525.461,475.018 525.84,475.298C526.221,475.576 526.679,475.779 527.161,475.905C529.318,476.388 532.564,475.246 536.877,472.482C532.463,474.485 528.785,474.84 525.866,473.597Z" style="fill:rgb(211,159,130);fill-rule:nonzero;"/>
        </g>
        <g transform="matrix(4.16667,0,0,4.16667,0,0)">
            <path d="M526.703,477.504C526.831,476.971 526.983,476.438 527.161,475.905C523.379,483.034 520.64,490.011 518.991,496.836C517.849,500.21 515.973,501.884 513.36,501.858C514.755,502.391 516.201,502.823 517.698,503.102C519.549,503.583 521.021,502.848 522.136,500.869C522.417,498.307 522.797,495.744 523.229,493.183L523.253,493.03C523.379,492.244 523.507,491.432 523.659,490.645C523.786,489.91 523.938,489.199 524.091,488.489C524.242,487.703 524.396,486.916 524.574,486.13C525.131,483.491 525.765,480.879 526.501,478.266C526.577,478.012 526.627,477.758 526.703,477.504Z" style="fill:rgb(211,159,130);fill-rule:nonzero;"/>
        </g>
        <g transform="matrix(4.16667,0,0,4.16667,0,0)">
            <path d="M527.161,475.905C526.983,476.438 526.831,476.971 526.703,477.504C530.534,477.783 533.807,477.301 536.471,476.058L542.864,481.31L546.771,482.02C543.143,479.28 539.846,476.109 536.877,472.482C532.564,475.246 529.318,476.388 527.161,475.905Z" style="fill:rgb(203,217,224);fill-rule:nonzero;"/>
        </g>
        <g transform="matrix(4.16667,0,0,4.16667,0,0)">
            <path d="M526.703,477.504C526.627,477.758 526.577,478.011 526.501,478.266L542.864,481.31L536.471,476.058C533.807,477.301 530.534,477.783 526.703,477.504Z" style="fill:rgb(249,251,252);fill-rule:nonzero;"/>
        </g>
        <g transform="matrix(4.16667,0,0,4.16667,0,0)">
            <path d="M527.161,475.905C526.679,475.779 526.221,475.576 525.84,475.298L520.893,486.561C519.296,487.906 517.495,488.134 515.515,487.246C505.547,484.126 497.097,477.504 490.222,467.433C491.365,464.667 490.528,461.395 487.711,457.64L482.942,457.64C481.243,457.615 480,458.148 479.263,459.238C478.807,459.873 478.527,460.735 478.426,461.776L477.31,468.169C476.955,469.437 476.929,470.426 477.235,471.137C477.411,471.568 477.691,471.872 478.097,472.101C480.862,471.416 483.399,468.296 485.758,462.714L485.225,464.819C485.884,468.904 487.508,471.416 490.122,472.38C486.494,472.024 484.692,470.198 484.692,466.925L484.058,469.284C483.881,470.071 483.577,470.731 483.196,471.238C483.652,473.039 483.577,474.333 482.942,475.17C483.727,476.261 484.16,477.226 484.262,478.063C486.342,479.534 488.523,479.559 490.832,478.113C492.786,482.02 494.841,485.471 497.047,488.489C501.893,495.136 507.322,499.601 513.36,501.858C515.973,501.884 517.849,500.21 518.991,496.836C520.64,490.011 523.379,483.034 527.161,475.905ZM515.515,500.54C514.908,500.895 514.222,501.072 513.487,501.097C507.625,498.84 502.375,494.501 497.681,488.058L497.656,488.058C495.5,485.064 493.445,481.639 491.516,477.783L491.542,477.733L493.902,479.204C498.951,488.971 506.155,496.1 515.515,500.54ZM482.942,458.401L487.331,458.401C487.661,458.858 487.94,459.315 488.218,459.746C484.463,459.67 482.03,460.278 480.937,461.521L479.263,470.781C478.908,470.985 478.553,471.137 478.223,471.264C478.097,471.137 478.02,471.009 477.945,470.858L477.945,470.832C477.716,470.249 477.742,469.412 478.045,468.371L478.071,468.296L479.188,461.902L479.188,461.852C479.263,460.964 479.516,460.228 479.897,459.695L479.897,459.67C480.506,458.807 481.521,458.376 482.942,458.401Z" style="fill:rgb(245,215,190);fill-rule:nonzero;"/>
        </g>
        <g transform="matrix(4.16667,0,0,4.16667,0,0)">
            <path d="M513.487,501.097C514.222,501.072 514.908,500.895 515.515,500.54C506.155,496.1 498.951,488.971 493.902,479.204L491.542,477.733L491.516,477.783C493.445,481.639 495.5,485.064 497.656,488.058L497.681,488.058C502.375,494.501 507.625,498.84 513.487,501.097Z" style="fill:rgb(247,240,232);fill-rule:nonzero;"/>
        </g>
        <g transform="matrix(4.16667,0,0,4.16667,0,0)">
            <path d="M487.331,458.401L482.942,458.401C481.521,458.376 480.506,458.807 479.897,459.67L479.897,459.695C479.516,460.228 479.263,460.964 479.188,461.852L479.188,461.902L478.071,468.296L478.045,468.371C477.742,469.412 477.716,470.249 477.945,470.832L477.945,470.858C478.02,471.009 478.097,471.137 478.223,471.264C478.553,471.137 478.908,470.985 479.263,470.781L480.937,461.521C482.03,460.278 484.463,459.67 488.218,459.746C487.94,459.315 487.661,458.858 487.331,458.401Z" style="fill:rgb(247,240,232);fill-rule:nonzero;"/>
        </g>
        <g transform="matrix(4.16667,0,0,4.16667,0,0)">
            <path d="M546.771,482.02L542.864,481.31L549.891,487.069L559.811,492.447C563.083,492.573 566.355,492.573 569.655,492.472C565.443,491.483 561.485,490.138 557.781,488.489C553.824,486.713 550.145,484.557 546.771,482.02Z" style="fill:rgb(76,96,102);fill-rule:nonzero;"/>
        </g>
        <g transform="matrix(4.16667,0,0,4.16667,0,0)">
            <path d="M542.864,481.31L526.501,478.266C525.765,480.879 525.131,483.491 524.574,486.13C527.313,487.018 530.052,487.804 532.818,488.489C541.722,490.748 550.702,492.066 559.811,492.447L549.891,487.069L542.864,481.31Z" style="fill:rgb(109,133,149);fill-rule:nonzero;"/>
        </g>
        <g transform="matrix(4.16667,0,0,4.16667,0,0)">
            <path d="M523.659,493.233L523.229,493.183C522.797,495.744 522.417,498.307 522.136,500.869C537.231,504.674 552.555,506.273 568.106,505.69L567.117,500.59C552.936,501.022 540.581,499.398 530.002,495.744C527.794,494.984 525.689,494.146 523.659,493.233Z" style="fill:rgb(109,133,149);fill-rule:nonzero;"/>
        </g>
        <g transform="matrix(4.16667,0,0,4.16667,0,0)">
            <path d="M523.229,493.183L523.659,493.233C523.534,493.157 523.379,493.106 523.253,493.03L523.229,493.183Z" style="fill:rgb(209,211,212);fill-rule:nonzero;"/>
        </g>
        <g transform="matrix(4.16667,0,0,4.16667,0,0)">
            <path d="M523.253,493.03C523.379,493.106 523.534,493.157 523.659,493.233C525.689,494.146 527.794,494.984 530.002,495.744C540.581,499.398 552.936,501.022 567.117,500.59L566.229,495.897L559.811,492.447C550.702,492.066 541.722,490.748 532.818,488.489C530.052,487.804 527.313,487.018 524.574,486.13C524.396,486.916 524.242,487.703 524.091,488.489C523.938,489.199 523.786,489.91 523.659,490.645C523.507,491.432 523.379,492.244 523.253,493.03Z" style="fill:rgb(249,251,252);fill-rule:nonzero;"/>
        </g>
        <g transform="matrix(4.16667,0,0,4.16667,0,0)">
            <path d="M522.136,500.869C521.909,502.772 521.655,504.497 521.375,506.095C521.326,506.45 521.274,506.857 521.25,507.287C536.497,512.235 552.326,513.504 568.765,511.118L568.765,509.215L568.106,505.69C552.555,506.273 537.231,504.674 522.136,500.869Z" style="fill:rgb(249,251,252);fill-rule:nonzero;"/>
        </g>
        <g transform="matrix(4.16667,0,0,4.16667,0,0)">
            <path d="M515.515,487.246C517.495,488.134 519.296,487.906 520.893,486.561C511.126,481.639 501.615,474.993 492.328,466.646C492.049,460.735 490.909,457.742 488.955,457.64L487.711,457.64C490.528,461.395 491.365,464.667 490.222,467.433C497.097,477.504 505.547,484.126 515.515,487.246Z" style="fill:rgb(211,159,130);fill-rule:nonzero;"/>
        </g>
        <g transform="matrix(4.16667,0,0,4.16667,0,0)">
            <path d="M521.124,509.901C521.096,510.383 521.096,510.891 521.096,511.422L522.669,511.981L524.242,512.514L527.415,513.504C528.607,513.834 529.774,514.162 530.94,514.467C531.524,514.594 532.083,514.746 532.667,514.873C537.537,516.04 542.356,516.801 547.1,517.157C548.065,517.233 549.029,517.283 549.994,517.309C553.189,517.435 556.36,517.386 559.533,517.157C560.318,517.079 561.129,517.004 561.917,516.928C563.109,516.801 564.427,516.649 565.848,516.42C567.853,516.116 569.933,515.709 572.064,515.23C573.104,514.974 574.169,514.696 575.259,514.417L575.946,509.851C573.535,510.332 571.151,510.764 568.765,511.118L568.765,513.579C560.926,515.204 551.819,515.558 541.417,514.67L521.124,509.901Z" style="fill:rgb(76,96,102);fill-rule:nonzero;"/>
        </g>
        <g transform="matrix(4.16667,0,0,4.16667,0,0)">
            <path d="M522.669,511.981L521.096,511.422C521.073,512.615 521.096,513.959 521.148,515.508L522.669,515.508L522.669,511.981Z" style="fill:rgb(132,101,95);fill-rule:nonzero;"/>
        </g>
        <g transform="matrix(4.16667,0,0,4.16667,0,0)">
            <path d="M524.242,512.514L522.669,511.981L522.669,515.508L521.148,515.508C521.172,516.142 521.172,516.826 521.198,517.537L524.242,518.805L524.242,512.514Z" style="fill:rgb(102,79,76);fill-rule:nonzero;"/>
        </g>
        <g transform="matrix(4.16667,0,0,4.16667,0,0)">
            <path d="M524.242,518.805L521.198,517.537C521.224,518.071 521.25,518.577 521.274,519.084L533.807,524.108L536.343,532.099C535.253,531.972 534.188,531.87 533.097,531.845L540.328,536.081C540.886,551.354 537.74,563.886 530.89,573.704C537.562,590.244 535.66,606.431 525.207,622.235L528.124,628.044L526.906,633.728L513.36,630.329C512.117,628.121 509.808,626.826 506.434,626.396L505.344,626.98C508.717,628.121 511.304,630.582 513.054,634.311L531.473,640.374L532.361,640.678L534.036,628.273L530.865,622.641C534.085,617.466 536.446,611.402 537.917,604.477C539.288,598.058 539.566,592.807 538.754,588.722L535.735,576.318C541.089,562.466 544.005,548.437 544.488,534.205L544.488,534.179L544.513,534.179L544.488,534.205C544.995,535.32 545.478,536.437 545.959,537.553L554.534,540.115C551.819,537.958 549.08,536.259 546.365,534.99L544.639,526.771C552.808,528.876 560.978,529.004 569.173,527.126C568.69,544.326 572.216,560.665 579.777,576.14C576.325,592.579 575.794,608.586 578.178,624.163L583.048,629.745L583.048,632.105L582.972,632.18C576.53,637.203 569.501,640.425 561.917,641.871L562.247,645.93L563.363,645.625L573.866,642.633C576.63,638.167 581.095,635.249 587.208,633.905C588.249,633.676 589.314,633.475 590.431,633.347L588.529,628.069L583.455,622.235C582.466,615.589 582.008,607.724 582.085,598.642C582.161,589.484 582.794,581.315 583.937,574.136C575.692,558.483 572.597,540.293 574.652,519.54C571.81,520.581 568.968,521.443 566.128,522.129C564.986,522.408 563.716,522.662 562.322,522.915C558.314,523.651 554.357,523.981 550.423,523.955C548.192,523.955 546.035,523.855 543.955,523.625C541.671,523.397 539.262,523.042 536.7,522.535C535.05,522.179 533.655,521.85 532.489,521.52C530.586,520.986 528.809,520.454 527.186,519.896L524.242,518.805ZM538.248,532.377L537.13,525.172L541.545,526.162L543.345,533.747C541.646,533.139 539.947,532.683 538.248,532.377Z" style="fill:rgb(171,151,124);fill-rule:nonzero;"/>
        </g>
        <g transform="matrix(4.16667,0,0,4.16667,0,0)">
            <path d="M537.13,525.172L538.248,532.377C539.947,532.683 541.646,533.139 543.345,533.747L541.545,526.162L537.13,525.172Z" style="fill:rgb(203,183,158);fill-rule:nonzero;"/>
        </g>
        <g transform="matrix(4.16667,0,0,4.16667,0,0)">
            <path d="M527.186,519.896L527.238,518.322L527.415,513.504L524.242,512.514L524.242,518.805L527.186,519.896Z" style="fill:rgb(203,183,158);fill-rule:nonzero;"/>
        </g>
        <g transform="matrix(4.16667,0,0,4.16667,0,0)">
            <path d="M527.238,518.322L527.186,519.896C528.809,520.454 530.586,520.986 532.489,521.52L532.564,519.262L532.667,514.873C532.083,514.746 531.524,514.594 530.94,514.467L530.281,519.136L527.238,518.322Z" style="fill:rgb(102,79,76);fill-rule:nonzero;"/>
        </g>
        <g transform="matrix(4.16667,0,0,4.16667,0,0)">
            <path d="M527.415,513.504L527.238,518.322L530.281,519.136L530.94,514.467C529.774,514.162 528.607,513.834 527.415,513.504Z" style="fill:rgb(132,101,95);fill-rule:nonzero;"/>
        </g>
        <g transform="matrix(4.16667,0,0,4.16667,0,0)">
            <path d="M549.994,517.309C549.029,517.283 548.065,517.233 547.1,517.157L547.1,521.443L532.564,519.262L532.489,521.52C533.655,521.85 535.05,522.179 536.7,522.535C539.262,523.042 541.671,523.397 543.955,523.625C546.035,523.855 548.192,523.955 550.423,523.955L550.297,521.901L549.994,517.309Z" style="fill:rgb(208,161,54);fill-rule:nonzero;"/>
        </g>
        <g transform="matrix(4.16667,0,0,4.16667,0,0)">
            <path d="M532.667,514.873L532.564,519.262L547.1,521.443L547.1,517.157C542.356,516.801 537.537,516.04 532.667,514.873Z" style="fill:rgb(242,205,110);fill-rule:nonzero;"/>
        </g>
        <g transform="matrix(4.16667,0,0,4.16667,0,0)">
            <path d="M536.345,532.099L533.807,524.108L521.274,519.084C521.554,525.527 522.164,531.921 523.153,538.238C523.633,552.445 521.706,564.571 517.317,574.643L519.575,580.275L510.925,623.96L506.434,626.396C509.808,626.826 512.117,628.121 513.36,630.329L526.906,633.728L528.124,628.044L525.207,622.235C535.66,606.431 537.562,590.244 530.89,573.704C537.74,563.886 540.886,551.354 540.328,536.081L533.097,531.845C534.188,531.87 535.253,531.972 536.345,532.099ZM522.086,520.227L524.193,521.089L526.043,536.335C527.542,551.101 526.018,563.608 521.452,573.831L523.406,580.249L514.197,625.127L510.974,626.98C510.29,626.6 509.528,626.294 508.693,626.066L511.304,624.645L511.533,624.417C511.608,624.34 511.661,624.239 511.685,624.112L520.336,580.427C520.362,580.275 520.336,580.123 520.286,579.995L518.156,574.668C522.492,564.546 524.396,552.394 523.913,538.213L523.913,538.136C522.974,532.226 522.366,526.238 522.086,520.227Z" style="fill:rgb(203,183,158);fill-rule:nonzero;"/>
        </g>
        <g transform="matrix(4.16667,0,0,4.16667,0,0)">
            <path d="M524.193,521.089L522.086,520.227C522.367,526.238 522.974,532.226 523.914,538.136L523.914,538.213C524.396,552.394 522.492,564.546 518.156,574.668L520.286,579.995C520.336,580.123 520.362,580.275 520.336,580.427L511.685,624.112C511.661,624.239 511.608,624.34 511.533,624.417L511.304,624.645L508.693,626.066C509.528,626.294 510.29,626.6 510.974,626.98L514.197,625.127L523.406,580.249L521.452,573.83C526.018,563.608 527.542,551.101 526.043,536.335L524.193,521.089Z" style="fill:rgb(223,213,202);fill-rule:nonzero;"/>
        </g>
        <g transform="matrix(4.16667,0,0,4.16667,0,0)">
            <path d="M521.124,509.901L541.417,514.67C551.819,515.558 560.926,515.204 568.765,513.579L568.765,511.118C552.326,513.504 536.497,512.235 521.25,507.287C521.198,508.024 521.148,508.911 521.124,509.901Z" style="fill:rgb(109,133,149);fill-rule:nonzero;"/>
        </g>
        <g transform="matrix(4.16667,0,0,4.16667,0,0)">
            <path d="M573.028,495.744C573.079,494.958 573.154,494.121 573.256,493.233C572.216,493.056 571.202,492.853 570.211,492.624L570.008,492.573C569.881,492.548 569.781,492.497 569.655,492.472C566.355,492.573 563.083,492.573 559.811,492.447L566.229,495.897L567.117,500.59C569.071,500.514 571.024,500.413 573.028,500.285C572.901,498.992 572.901,497.495 573.028,495.744Z" style="fill:rgb(203,217,224);fill-rule:nonzero;"/>
        </g>
        <g transform="matrix(4.16667,0,0,4.16667,0,0)">
            <path d="M574.322,505.334C573.738,503.609 573.357,502.443 573.231,501.858C573.13,501.377 573.053,500.869 573.028,500.285C571.024,500.413 569.071,500.514 567.117,500.59L568.106,505.69C570.162,505.613 572.242,505.486 574.322,505.334Z" style="fill:rgb(76,96,102);fill-rule:nonzero;"/>
        </g>
        <g transform="matrix(4.16667,0,0,4.16667,0,0)">
            <path d="M565.848,516.42C564.427,516.649 563.109,516.801 561.917,516.928L562.322,522.915C563.716,522.662 564.986,522.408 566.128,522.129L566.027,520.099L565.848,516.42Z" style="fill:rgb(203,183,158);fill-rule:nonzero;"/>
        </g>
        <g transform="matrix(4.16667,0,0,4.16667,0,0)">
            <path d="M568.765,509.215L568.765,511.118C571.151,510.764 573.535,510.332 575.946,509.851C575.287,508.049 574.752,506.552 574.322,505.334C572.242,505.486 570.162,505.613 568.106,505.69L568.765,509.215Z" style="fill:rgb(203,217,224);fill-rule:nonzero;"/>
        </g>
        <g transform="matrix(4.16667,0,0,4.16667,0,0)">
            <path d="M565.848,516.42L566.027,520.099L572.064,518.298L572.064,515.23C569.933,515.709 567.853,516.116 565.848,516.42Z" style="fill:rgb(132,101,95);fill-rule:nonzero;"/>
        </g>
        <g transform="matrix(4.16667,0,0,4.16667,0,0)">
            <path d="M560.165,521.317L550.297,521.901L550.423,523.955C554.357,523.981 558.314,523.651 562.322,522.915L561.917,516.928C561.129,517.004 560.318,517.079 559.533,517.157L560.165,521.317Z" style="fill:rgb(102,79,76);fill-rule:nonzero;"/>
        </g>
        <g transform="matrix(4.16667,0,0,4.16667,0,0)">
            <path d="M550.297,521.901L560.165,521.317L559.533,517.157C556.36,517.386 553.189,517.435 549.994,517.309L550.297,521.901Z" style="fill:rgb(132,101,95);fill-rule:nonzero;"/>
        </g>
        <g transform="matrix(4.16667,0,0,4.16667,0,0)">
            <path d="M566.027,520.099L566.128,522.129C568.968,521.443 571.81,520.581 574.652,519.54L575.259,514.417C574.169,514.696 573.104,514.974 572.064,515.23L572.064,518.298L566.027,520.099Z" style="fill:rgb(102,79,76);fill-rule:nonzero;"/>
        </g>
        <g transform="matrix(4.16667,0,0,4.16667,0,0)">
            <path d="M569.173,527.126C560.978,529.004 552.808,528.876 544.639,526.771L546.365,534.99C549.08,536.259 551.819,537.958 554.534,540.115L545.959,537.553C551.769,551.049 556.184,564.927 559.227,579.209L557.909,582.584L563.363,587.657L564.478,630.329L561.282,634.464L561.917,641.871C569.501,640.425 576.53,637.203 582.972,632.18L583.048,632.105L583.048,629.745L578.178,624.163C575.794,608.586 576.325,592.579 579.777,576.14C572.216,560.665 568.69,544.326 569.173,527.126ZM558.821,582.38L559.937,579.488C559.989,579.335 560.014,579.184 559.989,579.057C557.021,565.256 552.808,551.81 547.303,538.745L550.804,539.785L562.957,579.285L561.257,582.051L566.229,586.77L567.194,631.673L564.53,634.083L565.315,640.297C564.427,640.527 563.513,640.755 562.602,640.958L562.069,634.692L565.088,630.811C565.189,630.657 565.24,630.481 565.24,630.303L564.124,587.632C564.124,587.403 564.048,587.226 563.894,587.099L558.821,582.38Z" style="fill:rgb(203,183,158);fill-rule:nonzero;"/>
        </g>
        <g transform="matrix(4.16667,0,0,4.16667,0,0)">
            <path d="M559.937,579.488L558.821,582.38L563.894,587.099C564.046,587.226 564.124,587.403 564.124,587.632L565.24,630.303C565.24,630.481 565.189,630.657 565.088,630.811L562.069,634.692L562.602,640.958C563.513,640.755 564.427,640.527 565.315,640.297L564.53,634.083L567.194,631.673L566.229,586.77L561.257,582.051L562.957,579.285L550.804,539.785L547.303,538.745C552.808,551.81 557.021,565.256 559.989,579.057C560.014,579.184 559.989,579.335 559.937,579.488Z" style="fill:rgb(223,213,202);fill-rule:nonzero;"/>
        </g>
        <g transform="matrix(4.16667,0,0,4.16667,0,0)">
            <path d="M596.089,455.256C594.719,453.734 593.298,452.439 591.852,451.349C592.792,454.976 592.969,458.908 592.333,463.145C593.248,464.135 594.161,465.2 595.049,466.342C596.038,462.207 596.368,458.528 596.089,455.256Z" style="fill:rgb(76,96,102);fill-rule:nonzero;"/>
        </g>
        <g transform="matrix(4.16667,0,0,4.16667,0,0)">
            <path d="M595.049,466.342C594.161,465.2 593.248,464.135 592.333,463.145C591.953,465.809 591.244,468.625 590.228,471.542C590.938,472.659 591.624,473.851 592.256,475.12C593.476,471.999 594.414,469.056 595.049,466.342Z" style="fill:rgb(203,217,224);fill-rule:nonzero;"/>
        </g>
        <g transform="matrix(4.16667,0,0,4.16667,0,0)">
            <path d="M478.426,461.776C478.527,460.735 478.807,459.873 479.263,459.238L476.905,459.01L475.889,462.105L463.509,461.318L463.559,461.521C463.635,461.776 463.762,462.004 463.94,462.207C464.778,463.247 466.655,463.83 469.572,463.957L476.168,463.957L475.611,469.488L469.953,469.183C470.384,469.919 471.196,470.426 472.439,470.756C473.429,471.009 474.697,471.137 476.244,471.161C476.195,472.253 477.31,473.115 479.569,473.75C481.622,474.967 479.06,475.246 471.88,474.612C472.389,475.246 473.175,475.703 474.241,475.957C474.977,476.134 475.889,476.236 476.929,476.236L480.532,476.236C481.065,476.21 481.521,476.109 481.902,475.957C484.311,478.874 481.775,480.042 474.292,479.432C474.823,480.371 475.915,480.93 477.564,481.082L481.775,481.082C483.601,480.472 484.439,479.458 484.262,478.063C484.16,477.226 483.727,476.261 482.942,475.17C483.577,474.334 483.652,473.039 483.196,471.238C483.577,470.731 483.881,470.071 484.058,469.284L484.692,466.925C484.692,470.198 486.494,472.025 490.122,472.38C487.508,471.416 485.884,468.904 485.225,464.819L485.758,462.714C483.399,468.296 480.862,471.416 478.097,472.101C477.691,471.872 477.411,471.568 477.235,471.137C476.929,470.426 476.955,469.437 477.31,468.169L478.426,461.776Z" style="fill:rgb(211,159,130);fill-rule:nonzero;"/>
        </g>
        <g transform="matrix(4.16667,0,0,4.16667,0,0)">
            <path d="M475.889,462.105L476.905,459.01L468.583,458.198C466.249,457.97 464.702,458.223 463.94,459.01C463.409,459.543 463.281,460.303 463.509,461.318L475.889,462.105Z" style="fill:rgb(245,215,190);fill-rule:nonzero;"/>
        </g>
        <g transform="matrix(4.16667,0,0,4.16667,0,0)">
            <path d="M469.674,467.357C469.547,468.067 469.649,468.676 469.953,469.183L475.611,469.488L476.168,463.957L472.261,463.957C470.459,464.744 469.597,465.885 469.674,467.357Z" style="fill:rgb(245,215,190);fill-rule:nonzero;"/>
        </g>
        <g transform="matrix(4.16667,0,0,4.16667,0,0)">
            <path d="M476.929,476.236C475.889,476.236 474.977,476.134 474.241,475.957C473.809,477.428 473.834,478.595 474.292,479.432C481.775,480.042 484.311,478.874 481.902,475.957C481.521,476.109 481.065,476.21 480.532,476.236L476.929,476.236Z" style="fill:rgb(245,215,190);fill-rule:nonzero;"/>
        </g>
        <g transform="matrix(4.16667,0,0,4.16667,0,0)">
            <path d="M471.196,473.192C471.324,473.725 471.551,474.206 471.88,474.612C479.06,475.246 481.622,474.967 479.569,473.75C477.31,473.115 476.195,472.253 476.244,471.161C474.697,471.137 473.429,471.009 472.439,470.756C471.451,471.112 471.018,471.923 471.196,473.192Z" style="fill:rgb(245,215,190);fill-rule:nonzero;"/>
        </g>
        <g transform="matrix(4.16667,0,0,4.16667,0,0)">
            <path d="M505.344,626.98C503.592,626.37 501.64,626.117 499.483,626.193C499.102,626.219 498.747,626.244 498.392,626.269C503.999,627.004 507.55,630.582 508.997,636.975L483.932,639.234C483.804,639.816 483.704,640.4 483.626,641.033L515.059,641.059C514.78,639.359 514.4,637.813 513.917,636.443L524.597,639.765L523.76,641.059L531.473,641.059L531.473,640.374L513.054,634.311C511.304,630.582 508.717,628.121 505.344,626.98Z" style="fill:rgb(112,87,83);fill-rule:nonzero;"/>
        </g>
        <g transform="matrix(4.16667,0,0,4.16667,0,0)">
            <path d="M483.626,641.033C483.399,642.708 483.297,644.535 483.323,646.487C499.508,647.935 515.542,647.681 531.449,645.752L531.473,641.059L523.76,641.059L515.059,641.059L483.626,641.033Z" style="fill:rgb(77,61,58);fill-rule:nonzero;"/>
        </g>
        <g transform="matrix(4.16667,0,0,4.16667,0,0)">
            <path d="M483.932,639.234L508.997,636.975C507.55,630.582 503.999,627.004 498.392,626.269C490.35,627.004 485.529,631.343 483.932,639.234ZM498.417,627.029C499.203,627.157 499.964,627.334 500.675,627.563C493.799,629.11 489.538,632.636 487.94,638.116L484.921,638.369C486.646,631.495 491.137,627.715 498.417,627.029Z" style="fill:rgb(132,101,95);fill-rule:nonzero;"/>
        </g>
        <g transform="matrix(4.16667,0,0,4.16667,0,0)">
            <path d="M500.675,627.563C499.964,627.334 499.203,627.157 498.417,627.029C491.137,627.715 486.646,631.495 484.921,638.369L487.94,638.116C489.538,632.636 493.799,629.11 500.675,627.563Z" style="fill:rgb(170,128,125);fill-rule:nonzero;"/>
        </g>
        <g transform="matrix(4.16667,0,0,4.16667,0,0)">
            <path d="M544.488,534.179L544.488,534.205L544.513,534.179L544.488,534.179Z" style="fill:rgb(209,211,212);fill-rule:nonzero;"/>
        </g>
        <g transform="matrix(4.16667,0,0,4.16667,0,0)">
            <path d="M590.431,633.347C589.314,633.475 588.249,633.676 587.208,633.905C592.308,637.229 595.353,641.743 596.341,647.402C588.757,650.877 580.511,651.055 571.557,647.985C571.48,648.316 571.379,648.619 571.302,648.948C583.048,654.201 594.769,654.453 606.515,649.735C604.511,638.853 599.132,633.398 590.431,633.347Z" style="fill:rgb(112,87,83);fill-rule:nonzero;"/>
        </g>
        <g transform="matrix(4.16667,0,0,4.16667,0,0)">
            <path d="M571.302,648.948C571.379,648.619 571.48,648.316 571.557,647.985C572.114,646.006 572.875,644.231 573.866,642.633L563.363,645.625L563.363,648.924L571.302,648.948Z" style="fill:rgb(77,61,58);fill-rule:nonzero;"/>
        </g>
        <g transform="matrix(4.16667,0,0,4.16667,0,0)">
            <path d="M573.866,642.633C572.875,644.231 572.114,646.006 571.557,647.985C580.511,651.055 588.757,650.877 596.341,647.402C595.353,641.743 592.308,637.229 587.208,633.905C581.095,635.249 576.63,638.167 573.866,642.633ZM587.057,634.742C587.514,635.046 587.945,635.351 588.376,635.681C581.551,637.939 577.061,642.099 574.88,648.189C574.093,647.985 573.282,647.757 572.495,647.503C573.028,645.854 573.688,644.382 574.525,643.038C577.138,638.827 581.324,636.062 587.057,634.742Z" style="fill:rgb(132,101,95);fill-rule:nonzero;"/>
        </g>
        <g transform="matrix(4.16667,0,0,4.16667,0,0)">
            <path d="M588.376,635.681C587.945,635.351 587.514,635.046 587.057,634.742C581.324,636.062 577.138,638.827 574.525,643.038C573.688,644.382 573.028,645.854 572.495,647.503C573.282,647.757 574.093,647.985 574.88,648.189C577.061,642.099 581.551,637.939 588.376,635.681Z" style="fill:rgb(170,128,125);fill-rule:nonzero;"/>
        </g>
        <g transform="matrix(4.16667,0,0,4.16667,0,0)">
            <path d="M571.302,648.948C570.871,650.623 570.618,652.424 570.492,654.378C582.719,661.379 594.947,661.456 607.148,654.581C606.998,652.856 606.794,651.232 606.515,649.735C594.769,654.453 583.048,654.2 571.302,648.948Z" style="fill:rgb(77,61,58);fill-rule:nonzero;"/>
        </g>
        <g transform="matrix(4.16667,0,0,4.16667,0,0)">
            <path d="M523.76,641.059L524.597,639.765L513.917,636.443C514.4,637.813 514.78,639.359 515.059,641.059L523.76,641.059Z" style="fill:rgb(132,101,95);fill-rule:nonzero;"/>
        </g>
        <g transform="matrix(4.16667,0,0,4.16667,0,0)">
            <path d="M564.261,391.999C565.403,391.821 566.443,391.847 567.382,392.075C567.687,392.1 567.965,392.177 568.217,392.277C568.042,392.405 567.888,392.582 567.71,392.811C567.177,393.495 566.925,394.282 566.925,395.221C566.925,396.159 567.177,396.971 567.71,397.606C568.192,398.265 568.828,398.595 569.613,398.595C570.351,398.595 570.984,398.265 571.517,397.606C571.948,396.997 572.202,396.286 572.277,395.449C572.81,396.109 573.266,396.895 573.672,397.835C573.266,396.515 572.76,395.399 572.176,394.46C571.541,393.369 570.806,392.506 569.97,391.872C569.538,391.542 569.054,391.263 568.549,391.06C566.949,390.375 565.097,390.274 562.941,390.807L562.941,392.252C563.424,392.126 563.856,392.049 564.261,391.999ZM568.091,395.5C567.813,395.119 567.661,394.688 567.661,394.155C567.661,393.673 567.813,393.217 568.091,392.811C568.245,392.633 568.395,392.506 568.549,392.43C569.285,392.71 569.97,393.115 570.578,393.648C570.655,393.826 570.705,393.978 570.705,394.155C570.705,394.688 570.552,395.119 570.222,395.5C569.917,395.855 569.563,396.033 569.157,396.033C568.75,396.033 568.395,395.855 568.091,395.5Z" style="fill:rgb(35,31,32);fill-rule:nonzero;"/>
        </g>
        <g transform="matrix(4.16667,0,0,4.16667,0,0)">
            <path d="M567.661,394.155C567.661,394.688 567.813,395.119 568.091,395.5C568.395,395.855 568.75,396.033 569.157,396.033C569.563,396.033 569.918,395.855 570.222,395.5C570.552,395.119 570.705,394.688 570.705,394.155C570.705,393.978 570.655,393.826 570.578,393.648C569.97,393.115 569.285,392.71 568.549,392.43C568.395,392.506 568.245,392.633 568.091,392.811C567.813,393.217 567.661,393.673 567.661,394.155Z" style="fill:white;fill-rule:nonzero;"/>
        </g>
        <g transform="matrix(4.16667,0,0,4.16667,0,0)">
            <path d="M567.382,392.075C566.443,391.847 565.403,391.821 564.261,391.999C563.221,394.866 563.144,397.555 564.006,400.117C565.682,400.803 567.382,400.929 569.082,400.472C568.447,400.244 567.864,399.812 567.382,399.179C566.595,398.189 566.214,397.022 566.214,395.652C566.214,394.257 566.595,393.089 567.382,392.1L567.382,392.075Z" style="fill:white;fill-rule:nonzero;"/>
        </g>
        <g transform="matrix(4.16667,0,0,4.16667,0,0)">
            <path d="M567.382,392.1C566.595,393.089 566.214,394.257 566.214,395.652C566.214,397.022 566.595,398.189 567.382,399.179C567.864,399.812 568.447,400.244 569.082,400.472C570.629,400.067 572.151,399.179 573.672,397.835C573.266,396.895 572.81,396.109 572.277,395.449C572.202,396.286 571.948,396.997 571.517,397.606C570.984,398.265 570.349,398.595 569.613,398.595C568.828,398.595 568.192,398.265 567.71,397.606C567.177,396.971 566.925,396.159 566.925,395.221C566.925,394.282 567.177,393.495 567.71,392.811C567.888,392.582 568.042,392.405 568.217,392.277C567.965,392.177 567.687,392.1 567.382,392.075L567.382,392.1Z" style="fill:rgb(0,129,180);fill-rule:nonzero;"/>
        </g>
        <g transform="matrix(4.16667,0,0,4.16667,0,0)">
            <path d="M569.082,400.472C567.382,400.929 565.682,400.803 564.006,400.117C563.475,399.889 562.966,399.61 562.485,399.279L562.485,400.446C566.29,402.223 569.334,402.223 571.592,400.422C572.379,399.762 573.09,398.9 573.672,397.835C572.151,399.179 570.629,400.067 569.082,400.472Z" style="fill:rgb(179,132,108);fill-rule:nonzero;"/>
        </g>
        <g transform="matrix(4.16667,0,0,4.16667,0,0)">
            <path d="M562.637,383.018L562.637,385.783C567.355,385.15 571.669,386.671 575.575,390.375C572.226,383.677 567.914,381.216 562.637,383.018Z" style="fill:rgb(35,31,32);fill-rule:nonzero;"/>
        </g>
        <g transform="matrix(4.16667,0,0,4.16667,0,0)">
            <path d="M545.183,393.927L545.183,395.119C545.513,395.043 545.817,394.967 546.122,394.891C546.882,394.764 547.593,394.815 548.278,394.993C548.456,395.043 548.633,395.094 548.811,395.145C548.708,395.271 548.583,395.423 548.456,395.601C548.126,396.159 547.949,396.844 547.949,397.631C547.949,398.417 548.126,399.102 548.456,399.66C548.836,400.244 549.267,400.548 549.776,400.548C550.308,400.548 550.739,400.244 551.094,399.66C551.222,399.483 551.323,399.305 551.398,399.128C551.373,398.849 551.323,398.57 551.272,398.291C551.246,398.088 551.222,397.91 551.17,397.758C551.145,397.504 551.12,397.276 551.069,397.048C551.044,396.87 551.044,396.743 551.017,396.616C550.942,396.337 550.891,396.033 550.814,395.728C550.561,395.399 550.283,395.094 550.004,394.815C549.724,394.536 549.42,394.282 549.04,394.105C547.949,393.547 546.679,393.495 545.183,393.927ZM548.761,395.601C548.836,395.475 548.939,395.374 549.04,395.246C549.573,395.526 550.054,395.881 550.46,396.311C550.486,396.439 550.486,396.591 550.486,396.768C550.486,397.199 550.41,397.555 550.232,397.884C550.004,398.189 549.776,398.342 549.496,398.342C549.192,398.342 548.939,398.189 548.761,397.884C548.533,397.555 548.43,397.199 548.43,396.768C548.43,396.311 548.533,395.93 548.761,395.601Z" style="fill:rgb(35,31,32);fill-rule:nonzero;"/>
        </g>
        <g transform="matrix(4.16667,0,0,4.16667,0,0)">
            <path d="M549.04,395.246C548.939,395.374 548.836,395.475 548.761,395.601C548.533,395.931 548.43,396.311 548.43,396.768C548.43,397.199 548.533,397.555 548.761,397.884C548.939,398.189 549.192,398.342 549.496,398.342C549.776,398.342 550.004,398.189 550.232,397.884C550.41,397.555 550.486,397.199 550.486,396.768C550.486,396.591 550.486,396.439 550.46,396.311C550.054,395.881 549.573,395.526 549.04,395.246Z" style="fill:white;fill-rule:nonzero;"/>
        </g>
        <g transform="matrix(4.16667,0,0,4.16667,0,0)">
            <path d="M548.456,395.601C548.583,395.423 548.708,395.271 548.811,395.145C548.633,395.094 548.456,395.043 548.278,394.993L548.278,395.019C547.746,395.855 547.466,396.844 547.466,397.986C547.466,399.179 547.746,400.193 548.278,401.03C548.608,401.563 548.989,401.918 549.42,402.121C550.105,401.893 550.814,401.487 551.526,400.929L551.526,400.903C551.5,400.295 551.475,399.712 551.398,399.128C551.323,399.305 551.222,399.483 551.094,399.66C550.739,400.244 550.308,400.548 549.776,400.548C549.267,400.548 548.836,400.244 548.456,399.66C548.126,399.103 547.949,398.417 547.949,397.631C547.949,396.844 548.126,396.159 548.456,395.601Z" style="fill:rgb(0,129,180);fill-rule:nonzero;"/>
        </g>
        <g transform="matrix(4.16667,0,0,4.16667,0,0)">
            <path d="M549.166,390.097C549.876,391.999 550.435,393.876 550.814,395.728C550.891,396.033 550.942,396.337 551.017,396.616C551.044,396.743 551.044,396.87 551.069,397.048C551.12,397.276 551.145,397.504 551.17,397.758C551.222,397.91 551.246,398.088 551.272,398.291C551.323,398.57 551.373,398.849 551.398,399.128C551.475,399.712 551.5,400.295 551.526,400.903L551.526,400.929C550.814,401.487 550.105,401.893 549.42,402.121C548.227,402.502 547.06,402.376 545.919,401.792C545.539,401.614 545.209,401.385 544.877,401.132L544.877,402.095C547.466,403.568 549.546,403.568 551.094,402.121C549.571,404.608 548.633,406.839 548.278,408.819C549.496,410.95 550.841,412.193 552.288,412.573C551.145,411.483 550.308,410.214 549.801,408.819L552.438,401.74C552.438,401.284 552.415,400.827 552.363,400.371L552.363,400.345L552.337,400.244L552.337,400.143C552.312,399.889 552.288,399.634 552.26,399.406C552.235,399.255 552.235,399.128 552.21,399.001L552.21,398.9C552.185,398.697 552.134,398.494 552.084,398.316C551.626,395.601 550.664,392.861 549.166,390.097Z" style="fill:rgb(179,132,108);fill-rule:nonzero;"/>
        </g>
        <g transform="matrix(4.16667,0,0,4.16667,0,0)">
            <path d="M548.278,395.019L548.278,394.993C547.593,394.815 546.882,394.764 546.122,394.891C545.386,397.326 545.31,399.634 545.919,401.792C547.06,402.376 548.227,402.502 549.42,402.121C548.989,401.918 548.608,401.563 548.278,401.03C547.746,400.193 547.466,399.179 547.466,397.986C547.466,396.844 547.746,395.855 548.278,395.019Z" style="fill:white;fill-rule:nonzero;"/>
        </g>
        <g transform="matrix(4.16667,0,0,4.16667,0,0)">
            <path d="M549.166,390.097C548.355,388.573 547.39,387.052 546.298,385.556C543.001,385.428 540.591,386.925 539.095,390.097C542.444,388.346 545.793,388.346 549.166,390.097Z" style="fill:rgb(35,31,32);fill-rule:nonzero;"/>
        </g>
        <g transform="matrix(4.16667,0,0,4.16667,0,0)">
            <path d="M555.102,420.717C555.28,420.742 555.483,420.768 555.686,420.793C555.864,420.793 556.042,420.793 556.269,420.818C559.136,420.843 562.054,419.626 564.971,417.14C565.403,416.759 565.808,416.354 566.214,415.947C566.645,417.216 566.798,418.333 566.67,419.27C566.645,419.499 566.595,419.702 566.544,419.905C566.011,421.808 564.109,423.076 560.861,423.711C559.618,423.939 558.199,424.117 556.574,424.192C556.446,424.192 556.295,424.192 556.167,424.192L556.32,424.751C565.528,424.928 568.979,421.859 566.645,415.517C566.771,415.389 566.874,415.288 566.974,415.161C567.507,414.603 568.042,413.993 568.573,413.334C568.904,413.512 569.234,413.766 569.538,414.045C569.36,411.685 568.192,411.128 566.037,412.396C566.57,412.472 567.077,412.598 567.584,412.827C562.459,419.753 556.042,421.275 548.33,417.394C550.561,419.296 552.819,420.413 555.102,420.717Z" style="fill:rgb(179,132,108);fill-rule:nonzero;"/>
        </g>
        <g transform="matrix(4.16667,0,0,4.16667,0,0)">
            <path d="M556.269,420.818C556.042,420.793 555.864,420.793 555.686,420.793L556.574,424.192C558.199,424.117 559.618,423.939 560.861,423.711C562.155,421.808 564.083,420.311 566.67,419.27C566.798,418.333 566.645,417.216 566.214,415.947C565.808,416.354 565.403,416.759 564.971,417.14C565.453,417.775 564.946,418.713 563.45,420.006C562.003,421.275 560.024,421.985 557.563,422.138L556.269,420.818Z" style="fill:rgb(35,31,32);fill-rule:nonzero;"/>
        </g>
        <g transform="matrix(4.16667,0,0,4.16667,0,0)">
            <path d="M563.45,420.006C564.946,418.713 565.453,417.775 564.971,417.14C562.054,419.626 559.136,420.843 556.269,420.818L557.563,422.138C560.026,421.985 562.003,421.275 563.45,420.006Z" style="fill:white;fill-rule:nonzero;"/>
        </g>
        <g transform="matrix(4.16667,0,0,4.16667,0,0)">
            <path d="M566.544,419.905C566.595,419.702 566.645,419.499 566.67,419.27C564.083,420.311 562.155,421.808 560.861,423.711C564.109,423.076 566.011,421.808 566.544,419.905Z" style="fill:rgb(179,41,46);fill-rule:nonzero;"/>
        </g>
        <g transform="matrix(4.16667,0,0,4.16667,0,0)">
            <path d="M558.579,411.28C557.867,411.813 556.981,412.091 555.941,412.168C557.159,412.548 558.375,412.548 559.592,412.168C559.72,410.645 559.136,409.352 557.843,408.286C558.248,409.097 558.502,410.088 558.579,411.28Z" style="fill:rgb(179,132,108);fill-rule:nonzero;"/>
        </g>
    </g>
</svg>
