<?xml version="1.0" encoding="UTF-8" standalone="no"?>
<!DOCTYPE svg PUBLIC "-//W3C//DTD SVG 1.1//EN" "http://www.w3.org/Graphics/SVG/1.1/DTD/svg11.dtd">
<svg width="100%" height="100%" viewBox="0 0 488 1343" version="1.1" xmlns="http://www.w3.org/2000/svg" xmlns:xlink="http://www.w3.org/1999/xlink" xml:space="preserve" xmlns:serif="http://www.serif.com/" style="fill-rule:evenodd;clip-rule:evenodd;stroke-linejoin:round;stroke-miterlimit:1.41421;">
    <g transform="matrix(1,0,0,1,-859.408,-2912.89)">
        <g transform="matrix(4.16667,0,0,4.16667,0,0)">
            <path d="M256.153,702.189C256.103,702.189 256.052,702.189 255.951,702.189C251.18,703.66 247.981,705.641 246.458,708.076C246.408,705.184 245.951,702.239 245.189,699.346C245.189,699.244 245.139,699.194 245.139,699.143C245.088,699.143 245.037,699.093 244.936,699.093L244.834,699.143C244.784,699.194 244.733,699.194 244.682,699.296C242.5,705.284 238.896,709.092 233.921,710.767C234.936,707.67 236.053,704.524 237.322,701.376C237.322,701.376 237.322,701.326 237.322,701.225L237.221,701.123L237.069,701.071L236.917,701.123C231.739,704.777 227.779,708.584 225.089,712.594C225.647,710.818 226.257,708.99 227.017,707.214L227.017,707.011L226.917,706.909L226.765,706.859C226.662,706.859 226.612,706.909 226.561,706.96C224.531,708.787 222.704,710.767 221.08,712.848C216.916,718.178 214.227,724.066 213.11,730.563C212.908,729.293 212.703,728.075 212.551,726.859C212.551,726.756 212.551,726.756 212.451,726.705L212.348,726.604C212.247,726.604 212.196,726.654 212.146,726.705L212.095,726.807C210.268,733.659 210.217,740.461 211.892,747.313L206.613,743.456L206.461,743.354L206.308,743.456L206.258,743.557L206.258,743.76C209.151,751.12 214.378,757.211 221.942,762.033C222.603,765.586 223.872,768.784 225.596,771.626C227.017,774.012 228.795,776.093 230.978,777.972L232.094,788.935C231.078,789.036 230.113,789.239 229.201,789.493C223.11,789.493 219.15,793.452 217.374,801.219L217.323,801.27L212.348,837.613C212.095,848.068 213.465,858.525 216.612,868.931C217.628,872.434 218.794,875.936 220.267,879.387L220.369,879.488C220.418,879.539 220.47,879.59 220.572,879.539L222.806,878.828C223.161,883.041 223.972,886.087 225.141,887.914C226.409,889.793 228.033,890.452 230.165,889.895C230.978,892.279 232.347,893.548 234.073,893.701L235.394,901.062L231.637,900.451C231.536,900.402 231.484,900.451 231.434,900.451C231.384,900.503 231.333,900.553 231.333,900.654C228.389,916.339 227.017,932.176 227.12,948.165L227.171,948.267L227.323,948.419L227.424,948.419L231.23,947.403C230.978,956.134 232.347,965.271 235.342,974.763L235.952,981.666L229.81,993.746L229.76,993.848L231.029,1003.19C231.029,1003.19 231.078,1003.24 231.129,1003.34L231.23,1003.39C231.739,1003.49 232.195,1003.64 232.704,1003.75L232.704,1014.66L232.753,1014.76C232.753,1014.86 232.753,1014.86 232.856,1014.86L232.957,1014.91C241.079,1014.35 250.164,1015.88 260.265,1019.33C273.564,1022.47 285.796,1021.97 296.862,1017.76L296.963,1017.65C297.014,1017.55 297.065,1017.5 297.014,1017.45C296.659,1016.08 296.304,1014.76 295.846,1013.54C291.888,1002.48 284.579,997.148 273.868,997.553C269.198,997.604 265.391,998.924 262.397,1001.46L257.626,1000.95C258.588,1000.4 259.454,999.786 260.316,999.076L260.417,998.975L260.417,998.822L257.879,985.27L257.829,985.168L254.834,981.818C252.804,965.423 253.107,949.028 255.799,932.684C256.965,930.856 257.93,928.876 258.64,926.796L287.472,917.507C294.68,916.694 299.146,914.664 300.872,911.466C302.648,908.319 301.583,903.954 297.725,898.422L297.725,898.371L267.371,866.443C268.438,865.48 268.539,864.312 267.727,862.992C266.965,861.622 265.138,860.099 262.397,858.373C262.042,857.155 261.788,855.887 261.584,854.464C267.118,853.348 272.295,851.724 277.116,849.643C280.721,848.068 284.172,846.242 287.42,844.11C287.42,844.059 287.472,844.059 287.523,843.958L287.523,843.806L286.051,837.257L289.553,835.735L292.649,835.735C301.379,833.197 309.654,832.233 317.624,832.892C319.449,833.603 320.82,833.907 321.734,833.704C322.799,833.552 323.358,832.842 323.358,831.674L323.358,831.522C323.003,830.76 322.395,830.05 321.582,829.491C321.785,828.781 321.683,828.223 321.328,827.715C321.023,827.207 320.414,826.852 319.5,826.599C319.145,826.446 318.739,826.345 318.383,826.294C318.18,826.193 318.028,826.193 317.827,826.141C317.47,823.401 312.698,822.132 303.562,822.233C299.096,820.355 296.963,816.903 297.167,811.878L297.167,811.827C297.218,809.34 295.694,807.767 292.598,807.057L292.547,807.057C290.264,807.259 288.792,807.767 288.233,808.681C287.523,809.543 287.725,810.761 288.841,812.335L288.841,812.386C291.888,814.568 293.005,816.7 292.192,818.883C289.096,820.102 287.32,822.537 286.862,826.294L283.563,827.512L282.193,825.278C282.142,825.177 282.091,825.177 282.091,825.177C281.99,825.126 281.99,825.126 281.939,825.126L281.787,825.177C278.284,827.867 274.681,829.948 271.076,831.42C268.132,832.638 265.188,833.4 262.194,833.806C262.295,833.45 262.346,833.045 262.397,832.638C264.935,825.075 265.594,817.918 264.376,811.219L265.138,801.879L265.138,801.929C265.747,799.29 265.291,797.209 263.716,795.585C262.143,793.961 259.502,792.793 255.748,792.133L245.85,790.153L244.834,784.823C246.916,785.433 249.149,785.839 251.483,786.194L251.586,786.194L251.687,786.144C257.32,780.915 261.178,776.093 263.361,771.626C265.594,766.957 266.102,762.744 264.833,758.836C263.716,755.943 263.208,753.1 263.412,750.207C269.198,745.892 273.614,739.598 276.711,731.323L276.66,731.12L276.558,731.02L276.356,731.02L273.564,732.187C275.492,729.751 277.016,727.365 278.132,725.081L278.182,724.929C278.132,724.827 278.132,724.777 278.081,724.777C278.081,724.725 278.03,724.725 277.929,724.725L277.827,724.725L270.975,727.975C273.258,723.456 274.02,718.482 273.258,713C273.106,712.29 273.006,711.579 272.854,710.919L272.803,710.767C272.751,710.767 272.7,710.717 272.599,710.717L272.497,710.767L272.345,710.869C272.092,711.579 271.838,712.29 271.534,712.9C270.721,714.422 269.807,715.64 268.742,716.605C269.148,715.386 269.401,714.27 269.604,713.051C269.91,711.275 270.062,709.448 269.959,707.569C269.959,707.467 269.959,707.467 269.91,707.417L269.807,707.316L269.655,707.316C269.554,707.316 269.554,707.366 269.503,707.417C267.625,710.108 265.391,711.883 262.854,712.797C261.686,713.152 260.519,713.305 259.25,713.356L259.199,713.356L259.097,713.356C259.148,713.305 259.148,713.203 259.199,713.102C260.367,710.869 261.635,708.687 263.005,706.452L263.057,706.249L262.954,706.149C262.905,706.046 262.854,706.046 262.802,706.046C258.743,705.895 255.748,706.808 253.818,708.787C254.58,706.706 255.341,704.625 256.255,702.544C256.306,702.443 256.306,702.392 256.306,702.392C256.255,702.29 256.204,702.239 256.153,702.189ZM273.462,899.64C273.258,899.64 273.057,899.691 272.854,899.792L260.062,902.177L259.808,891.518L273.462,899.64Z" style="fill:rgb(35,31,32);fill-rule:nonzero;"/>
        </g>
        <g transform="matrix(4.16667,0,0,4.16667,0,0)">
            <path d="M269.716,707.612C269.083,708.527 268.397,709.338 267.687,710.048C267.306,713.524 266.038,717.176 263.908,720.957C262.868,722.809 261.599,724.687 260.153,726.613L260.049,726.767L262.74,726.767C264.39,724.737 265.759,722.656 266.825,720.551C267.357,719.485 267.839,718.419 268.22,717.33C268.727,715.934 269.108,714.487 269.361,713.042C269.667,711.266 269.793,709.465 269.716,707.612Z" style="fill:rgb(152,89,68);fill-rule:nonzero;"/>
        </g>
        <g transform="matrix(4.16667,0,0,4.16667,0,0)">
            <path d="M272.609,711.013C272.532,711.214 272.456,711.418 272.38,711.621L272.228,711.976C272.71,714.487 272.609,717.127 271.898,719.892C271.314,722.098 270.351,724.406 268.981,726.767L271.289,726.767C272.278,724.56 272.913,722.2 273.167,719.714C273.395,717.582 273.319,715.351 272.99,713.042C272.887,712.357 272.761,711.697 272.609,711.013Z" style="fill:rgb(152,89,68);fill-rule:nonzero;"/>
        </g>
        <g transform="matrix(4.16667,0,0,4.16667,0,0)">
            <path d="M256.042,702.488C255.839,702.564 255.636,702.614 255.434,702.691C252.567,706.674 250.437,711.85 248.991,718.216C248.635,719.764 248.332,721.389 248.051,723.087C247.874,724.28 247.696,725.497 247.57,726.767L249.421,726.767C249.573,725.422 249.776,724.103 250.005,722.809C250.183,721.667 250.41,720.551 250.639,719.459C251.096,717.304 251.627,715.148 252.237,713.042C252.516,712.053 252.847,711.063 253.176,710.073C254.013,707.51 254.953,705 256.042,702.488Z" style="fill:rgb(152,89,68);fill-rule:nonzero;"/>
        </g>
        <g transform="matrix(4.16667,0,0,4.16667,0,0)">
            <path d="M262.791,706.344C262.004,706.319 261.243,706.319 260.532,706.395C257.564,711.367 255.205,716.415 253.429,721.539C253.329,721.819 253.226,722.123 253.125,722.402C252.644,723.849 252.186,725.295 251.805,726.767L253.607,726.767C253.988,725.37 254.394,724.001 254.875,722.631C254.927,722.454 254.977,722.301 255.053,722.15C256.042,719.308 257.26,716.466 258.681,713.651L258.756,713.524C258.834,713.346 258.909,713.193 258.984,713.042C260.127,710.81 261.396,708.576 262.791,706.344Z" style="fill:rgb(152,89,68);fill-rule:nonzero;"/>
        </g>
        <g transform="matrix(4.16667,0,0,4.16667,0,0)">
            <path d="M245.54,701.955C245.362,701.118 245.184,700.256 244.956,699.418C244.982,700.56 244.956,701.701 244.906,702.843C244.752,706.624 244.271,710.352 243.485,714.03C242.749,717.405 241.76,720.754 240.517,724.077C240.313,724.61 240.11,725.117 239.882,725.651C239.731,726.03 239.578,726.386 239.426,726.767L241.81,726.767C241.912,726.538 242.013,726.335 242.115,726.132C242.496,725.32 242.877,724.508 243.205,723.722C244.322,721.058 245.133,718.37 245.642,715.654C245.794,714.792 245.92,713.929 246.022,713.042C246.175,711.748 246.25,710.429 246.25,709.109C246.25,706.725 246.022,704.341 245.54,701.955Z" style="fill:rgb(152,89,68);fill-rule:nonzero;"/>
        </g>
        <g transform="matrix(4.16667,0,0,4.16667,0,0)">
            <path d="M237.067,701.347C236.077,702.031 235.165,702.741 234.277,703.452C233.921,704.416 233.59,705.381 233.261,706.344C231.307,712.077 229.811,717.735 228.795,723.291C228.645,724.077 228.517,724.889 228.39,725.7C228.365,725.854 228.339,726.005 228.313,726.183C228.29,726.36 228.264,726.564 228.238,726.767L229.785,726.767C229.811,726.589 229.836,726.411 229.86,726.235C229.912,725.98 229.963,725.727 229.989,725.497C230.115,724.864 230.217,724.255 230.344,723.621C230.369,723.468 230.419,723.317 230.444,723.19C231.131,719.815 231.968,716.441 232.982,713.042C233.16,712.407 233.337,711.798 233.541,711.19C233.921,709.947 234.352,708.73 234.784,707.486C235.469,705.431 236.229,703.402 237.067,701.347Z" style="fill:rgb(152,89,68);fill-rule:nonzero;"/>
        </g>
        <g transform="matrix(4.16667,0,0,4.16667,0,0)">
            <path d="M226.766,707.156L226.564,707.333L226.564,707.36C224.179,711.9 222.328,716.669 221.007,721.616C220.83,722.175 220.678,722.733 220.551,723.317C220.425,724.458 220.323,725.624 220.248,726.767L221.921,726.767L221.921,726.564C222.073,725.016 222.276,723.494 222.555,721.946C222.987,719.384 223.571,716.821 224.331,714.259C224.433,713.854 224.56,713.447 224.686,713.042L224.711,712.94L224.737,712.915C225.321,711.013 226.006,709.084 226.766,707.156Z" style="fill:rgb(152,89,68);fill-rule:nonzero;"/>
        </g>
        <g transform="matrix(4.16667,0,0,4.16667,0,0)">
            <path d="M247.57,726.767C247.544,726.943 247.519,727.121 247.493,727.299C247.442,727.679 247.392,728.085 247.367,728.491L245.109,726.918L240.922,728.39C241.227,727.857 241.531,727.299 241.81,726.767L239.426,726.767C238.995,727.756 238.563,728.719 238.082,729.709L228.848,733.591C229.075,731.307 229.379,729.024 229.785,726.767L228.238,726.767C228.136,727.375 228.035,727.984 227.958,728.593C227.68,730.876 227.451,733.16 227.325,735.417L224.534,737.802L226.26,742.571L223.443,746.631C222.758,743.891 222.25,741.126 221.972,738.335C221.896,737.65 221.819,736.965 221.795,736.279C221.769,736.001 221.744,735.696 221.744,735.417C221.566,732.55 221.641,729.684 221.921,726.767L220.248,726.767L220.248,726.791C220.019,730.368 220.019,733.921 220.297,737.446C220.323,737.65 220.323,737.853 220.348,738.081L220.374,738.335C220.678,741.759 221.211,745.184 221.996,748.559L220.678,751.172C221.262,751.958 221.896,752.947 222.581,754.088C222.606,752.237 223.113,750.485 224.052,748.837C225.118,746.985 226.766,745.26 229.025,743.662L225.649,738.817C225.829,738.639 225.98,738.486 226.158,738.335C226.919,737.599 227.731,736.914 228.593,736.253C231.739,733.844 235.443,731.916 239.68,730.521C241.405,729.939 243.205,729.43 245.109,729.024L253.784,735.443L258.479,731.129C260.583,732.779 262.13,734.631 263.121,736.736C263.35,737.27 263.577,737.802 263.754,738.335C264.034,739.324 264.236,740.338 264.313,741.43C264.465,743.688 264.109,746.123 263.272,748.786C263.222,749.218 263.172,749.674 263.146,750.106C267.154,747.137 270.529,743.206 273.243,738.335C273.471,737.903 273.724,737.446 273.953,737.015C274.537,735.823 275.12,734.606 275.654,733.337C275.932,732.652 276.185,731.967 276.465,731.257C276.084,731.916 275.704,732.576 275.323,733.262C274.689,734.327 274.004,735.417 273.268,736.508C272.889,737.116 272.481,737.726 272.05,738.335C270.199,740.998 268.143,743.764 265.836,746.579L265.074,740.745C265.962,739.933 266.825,739.121 267.636,738.335C268.854,737.142 269.996,735.949 271.036,734.809C271.619,734.148 272.177,733.488 272.71,732.855L272.812,732.727C274.486,730.698 275.881,728.719 276.998,726.767L276.339,726.767L265.302,738.994L263.932,736.103C265.353,734.909 266.622,733.642 267.738,732.322C267.891,732.145 268.042,731.942 268.22,731.738C269.031,730.698 269.742,729.608 270.375,728.518C270.707,727.934 271.01,727.35 271.289,726.767L268.981,726.767C268.143,728.187 267.18,729.633 266.089,731.105L265.962,731.257C265.277,732.195 264.516,733.134 263.705,734.072L259.364,730.318L260.228,729.506C260.762,728.974 261.293,728.415 261.802,727.857C262.13,727.476 262.436,727.121 262.74,726.767L260.049,726.767C259.364,727.653 258.604,728.568 257.818,729.506C256.729,730.801 255.535,732.094 254.268,733.412L252.211,732.855C252.466,731.408 252.77,729.962 253.125,728.518C253.277,727.934 253.429,727.35 253.607,726.767L251.805,726.767C251.679,727.223 251.578,727.679 251.45,728.137C251.171,729.227 250.919,730.343 250.69,731.435L249.041,730.42C249.117,729.506 249.194,728.593 249.295,727.679C249.32,727.375 249.372,727.07 249.421,726.767L247.57,726.767Z" style="fill:rgb(152,89,68);fill-rule:nonzero;"/>
        </g>
        <g transform="matrix(4.16667,0,0,4.16667,0,0)">
            <path d="M276.339,726.767L276.998,726.767C277.328,726.183 277.631,725.573 277.91,724.99L276.339,726.767Z" style="fill:rgb(152,89,68);fill-rule:nonzero;"/>
        </g>
        <g transform="matrix(4.16667,0,0,4.16667,0,0)">
            <path d="M244.906,702.843C244.956,701.701 244.982,700.56 244.956,699.418C243.256,704.035 240.744,707.384 237.395,709.465C236.205,710.2 234.936,710.759 233.541,711.19C233.337,711.798 233.16,712.407 232.982,713.042C231.968,716.441 231.131,719.815 230.444,723.19C230.419,723.317 230.369,723.468 230.344,723.621C230.217,724.254 230.115,724.864 229.989,725.497C229.963,725.727 229.912,725.98 229.86,726.233C229.43,728.694 229.075,731.129 228.848,733.591L238.082,729.709C238.715,728.364 239.325,727.02 239.882,725.651C240.11,725.117 240.313,724.61 240.517,724.077C241.76,720.754 242.749,717.405 243.485,714.03C244.271,710.352 244.752,706.624 244.906,702.843ZM244.12,703.148C244.093,703.426 244.093,703.731 244.069,704.01C244.018,704.923 243.942,705.837 243.866,706.75C242.8,708.603 241.506,710.174 239.984,711.418C239.299,711.976 238.538,712.484 237.752,712.915C237.067,713.295 236.331,713.624 235.569,713.904L231.307,731.738L229.734,732.399C229.963,730.394 230.269,728.364 230.622,726.36C230.673,726.03 230.725,725.727 230.8,725.397C230.876,724.864 230.978,724.306 231.104,723.773C231.232,723.037 231.384,722.326 231.562,721.616C232.144,718.852 232.88,716.061 233.718,713.27L233.718,713.245C233.845,712.762 233.997,712.28 234.148,711.798C235.544,711.342 236.864,710.733 238.056,709.971C240.517,708.373 242.546,706.09 244.12,703.148Z" style="fill:rgb(187,110,81);fill-rule:nonzero;"/>
        </g>
        <g transform="matrix(4.16667,0,0,4.16667,0,0)">
            <path d="M244.069,704.01C244.093,703.731 244.093,703.426 244.12,703.148C242.546,706.09 240.517,708.373 238.056,709.971C236.864,710.733 235.544,711.342 234.148,711.798C233.997,712.28 233.845,712.762 233.718,713.245L233.718,713.27C232.88,716.061 232.144,718.852 231.562,721.616C231.384,722.326 231.232,723.037 231.104,723.773C230.978,724.306 230.876,724.864 230.8,725.397C230.725,725.727 230.673,726.03 230.622,726.36C230.269,728.364 229.963,730.394 229.734,732.399L231.307,731.738L235.569,713.904C236.331,713.624 237.067,713.295 237.752,712.915C238.538,712.484 239.299,711.976 239.984,711.418C241.506,710.174 242.8,708.603 243.866,706.75C243.942,705.837 244.018,704.923 244.069,704.01Z" style="fill:rgb(209,136,115);fill-rule:nonzero;"/>
        </g>
        <g transform="matrix(4.16667,0,0,4.16667,0,0)">
            <path d="M246.25,709.109C246.25,710.429 246.173,711.748 246.022,713.042C245.92,713.929 245.794,714.792 245.642,715.654C245.133,718.37 244.322,721.058 243.205,723.722C242.877,724.508 242.496,725.32 242.115,726.132C241.734,726.894 241.354,727.654 240.922,728.39L245.109,726.918L247.367,728.491C247.392,728.085 247.442,727.679 247.493,727.299C247.645,725.854 247.823,724.433 248.051,723.087C248.332,721.389 248.635,719.764 248.991,718.216C250.437,711.85 252.567,706.674 255.434,702.691C250.538,704.288 247.493,706.444 246.25,709.109ZM246.783,713.143C246.935,711.85 247.011,710.581 247.011,709.312C248.051,707.283 250.207,705.582 253.532,704.213C253.024,705.05 252.541,705.912 252.085,706.825L248.101,709.997C247.925,712.28 247.645,714.564 247.239,716.872C246.834,719.029 246.327,721.211 245.691,723.392C245.413,724.33 245.133,725.295 244.805,726.235L242.521,727.02C242.597,726.843 242.699,726.64 242.8,726.462C243.256,725.524 243.688,724.56 244.069,723.621C245.058,721.135 245.818,718.649 246.327,716.188C246.504,715.172 246.656,714.158 246.783,713.143Z" style="fill:rgb(187,110,81);fill-rule:nonzero;"/>
        </g>
        <g transform="matrix(4.16667,0,0,4.16667,0,0)">
            <path d="M247.011,709.312C247.011,710.581 246.935,711.85 246.783,713.143C246.656,714.158 246.504,715.172 246.327,716.188C245.818,718.649 245.058,721.135 244.069,723.621C243.688,724.56 243.256,725.524 242.8,726.462C242.699,726.64 242.597,726.843 242.521,727.02L244.805,726.233C245.133,725.295 245.413,724.33 245.691,723.392C246.327,721.211 246.834,719.029 247.239,716.872C247.645,714.564 247.925,712.28 248.101,709.997L252.085,706.825C252.541,705.912 253.024,705.05 253.532,704.213C250.207,705.582 248.051,707.283 247.011,709.312Z" style="fill:rgb(209,136,115);fill-rule:nonzero;"/>
        </g>
        <g transform="matrix(4.16667,0,0,4.16667,0,0)">
            <path d="M258.984,713.651C258.884,713.651 258.782,713.651 258.681,713.651C257.26,716.466 256.042,719.309 255.053,722.15C254.977,722.301 254.927,722.454 254.875,722.631C254.191,724.584 253.607,726.564 253.125,728.518C252.77,729.962 252.466,731.408 252.211,732.855L254.268,733.412C255.535,732.094 256.729,730.801 257.818,729.506C258.657,728.518 259.417,727.553 260.153,726.613C261.599,724.687 262.868,722.809 263.908,720.957C266.038,717.176 267.306,713.524 267.687,710.048C266.241,711.443 264.668,712.458 262.917,713.042C261.7,713.447 260.405,713.651 259.036,713.651L258.984,713.651ZM255.509,723.113C255.636,722.759 255.764,722.402 255.89,722.023C256.829,719.485 257.92,716.949 259.161,714.411C260.558,714.386 261.903,714.183 263.172,713.777C264.364,713.346 265.505,712.762 266.596,711.976C266.418,712.838 266.164,713.701 265.886,714.589L259.669,716.34L254.064,732.55L254.039,732.576L253.1,732.297C253.303,731.105 253.556,729.886 253.861,728.694C254.317,726.843 254.875,724.965 255.509,723.113Z" style="fill:rgb(187,110,81);fill-rule:nonzero;"/>
        </g>
        <g transform="matrix(4.16667,0,0,4.16667,0,0)">
            <path d="M255.89,722.023C255.764,722.402 255.636,722.759 255.509,723.113C254.875,724.965 254.317,726.843 253.861,728.694C253.556,729.886 253.303,731.105 253.1,732.297L254.039,732.576L254.064,732.55L259.669,716.339L265.886,714.589C266.164,713.701 266.418,712.838 266.596,711.976C265.505,712.762 264.364,713.346 263.172,713.777C261.903,714.183 260.558,714.386 259.161,714.411C257.92,716.949 256.829,719.485 255.89,722.023Z" style="fill:rgb(209,136,115);fill-rule:nonzero;"/>
        </g>
        <g transform="matrix(4.16667,0,0,4.16667,0,0)">
            <path d="M253.176,710.073C252.847,711.063 252.516,712.053 252.237,713.042C251.627,715.148 251.096,717.304 250.639,719.459C250.41,720.551 250.183,721.667 250.005,722.809C249.725,724.406 249.472,726.03 249.295,727.679C249.194,728.593 249.117,729.506 249.041,730.42L250.69,731.435C250.919,730.343 251.171,729.227 251.45,728.137C251.933,726.208 252.49,724.306 253.125,722.402C253.226,722.123 253.329,721.819 253.429,721.539C255.205,716.415 257.564,711.367 260.532,706.395C257.108,706.648 254.647,707.867 253.176,710.073ZM259.087,707.333C258.631,708.12 258.199,708.931 257.794,709.719L254.418,711.95L251.705,724.381C251.653,724.508 251.604,724.635 251.578,724.762C251.247,725.802 250.968,726.867 250.715,727.959C250.512,728.694 250.334,729.455 250.183,730.242L249.828,730.039C249.903,729.277 249.979,728.518 250.056,727.78C250.258,726.081 250.512,724.381 250.791,722.707C250.943,721.769 251.12,720.855 251.324,719.968C251.781,717.709 252.339,715.477 252.973,713.27C253.251,712.306 253.556,711.342 253.887,710.403C255.028,708.805 256.752,707.765 259.087,707.333Z" style="fill:rgb(187,110,81);fill-rule:nonzero;"/>
        </g>
        <g transform="matrix(4.16667,0,0,4.16667,0,0)">
            <path d="M257.794,709.719C258.199,708.931 258.631,708.12 259.087,707.333C256.752,707.765 255.028,708.805 253.887,710.403C253.556,711.342 253.251,712.306 252.973,713.27C252.339,715.477 251.781,717.709 251.324,719.968C251.12,720.855 250.943,721.769 250.791,722.707C250.512,724.381 250.258,726.081 250.056,727.78C249.979,728.518 249.903,729.277 249.828,730.039L250.183,730.242C250.334,729.455 250.512,728.694 250.715,727.959C250.968,726.867 251.247,725.802 251.578,724.762C251.604,724.635 251.653,724.508 251.705,724.381L254.418,711.95L257.794,709.719Z" style="fill:rgb(209,136,115);fill-rule:nonzero;"/>
        </g>
        <g transform="matrix(4.16667,0,0,4.16667,0,0)">
            <path d="M225.118,713.042L225.067,713.143L224.99,713.245C224.763,713.574 224.534,713.929 224.331,714.259C223.571,716.821 222.987,719.384 222.555,721.946C222.276,723.494 222.073,725.016 221.921,726.564C221.641,729.531 221.566,732.5 221.744,735.417C221.744,735.696 221.769,736.001 221.795,736.279C221.819,736.965 221.896,737.65 221.972,738.335C222.25,741.126 222.758,743.891 223.443,746.631L226.26,742.571L224.534,737.802L227.325,735.417C227.451,733.16 227.68,730.876 227.958,728.593C228.061,727.807 228.187,726.994 228.313,726.183C228.339,726.005 228.365,725.854 228.39,725.7C228.517,724.889 228.645,724.077 228.795,723.291C229.811,717.735 231.307,712.077 233.261,706.344C233.59,705.381 233.921,704.416 234.277,703.452C230.395,706.547 227.325,709.743 225.118,713.042ZM225.041,714.538C225.219,714.259 225.396,713.955 225.6,713.676L225.625,713.676L225.649,713.651L225.726,713.524L225.751,713.498L225.751,713.473C227.502,710.86 229.811,708.298 232.627,705.811C232.197,707.08 231.763,708.349 231.384,709.592L226.588,715.375C225.6,718.902 224.915,722.504 224.483,726.235C224.255,728.187 224.127,730.14 224.052,732.145C224.001,733.819 224.001,735.519 224.052,737.218C223.924,737.319 223.824,737.446 223.798,737.624C223.774,737.751 223.774,737.903 223.824,738.055L225.422,742.47L223.798,744.804C223.316,742.648 222.961,740.465 222.734,738.258C222.657,737.573 222.581,736.914 222.555,736.23C222.503,735.62 222.479,735.012 222.454,734.428C222.353,731.789 222.428,729.125 222.708,726.462C222.835,725.016 223.038,723.544 223.291,722.073C223.723,719.561 224.305,717.05 225.041,714.538Z" style="fill:rgb(187,110,81);fill-rule:nonzero;"/>
        </g>
        <g transform="matrix(4.16667,0,0,4.16667,0,0)">
            <path d="M225.6,713.676C225.396,713.955 225.219,714.259 225.041,714.538C224.305,717.05 223.723,719.561 223.291,722.073C223.038,723.544 222.835,725.016 222.708,726.462C222.428,729.125 222.353,731.789 222.454,734.428C222.479,735.012 222.503,735.62 222.555,736.23C222.581,736.914 222.657,737.573 222.734,738.258C222.961,740.465 223.316,742.648 223.798,744.804L225.422,742.47L223.824,738.055C223.774,737.903 223.774,737.751 223.798,737.624C223.824,737.446 223.924,737.319 224.052,737.218C224.001,735.519 224.001,733.819 224.052,732.145C224.127,730.14 224.255,728.187 224.483,726.233C224.915,722.504 225.6,718.902 226.588,715.375L231.384,709.592C231.763,708.349 232.197,707.08 232.627,705.811C229.811,708.298 227.502,710.86 225.751,713.473L225.751,713.498L225.726,713.524L225.649,713.651L225.625,713.676L225.6,713.676Z" style="fill:rgb(209,136,115);fill-rule:nonzero;"/>
        </g>
        <g transform="matrix(4.16667,0,0,4.16667,0,0)">
            <path d="M226.564,707.36C224.611,709.16 222.884,711.063 221.337,713.042C219.435,715.451 217.862,718.013 216.593,720.677C215.502,722.91 214.665,725.219 214.057,727.629C213.676,729.075 213.372,730.571 213.143,732.068C213.575,734.174 214.108,736.253 214.767,738.335C215.249,739.882 215.782,741.404 216.39,742.951L216.39,742.978C217.279,745.285 218.319,747.543 219.511,749.801C219.867,750.182 220.248,750.639 220.678,751.172L221.996,748.559C221.211,745.184 220.678,741.759 220.374,738.335L220.348,738.081C220.323,737.853 220.323,737.65 220.297,737.446C220.019,733.921 220.019,730.368 220.248,726.791C220.323,725.651 220.425,724.484 220.551,723.317C220.678,722.733 220.83,722.175 221.007,721.616C222.328,716.669 224.179,711.9 226.564,707.36ZM221.947,713.524C222.555,712.737 223.19,711.95 223.875,711.214C222.987,713.193 222.2,715.197 221.515,717.253C219.612,720.273 218.142,723.595 217.076,727.223C216.593,728.846 216.187,730.521 215.882,732.271L221.185,748.33L221.211,748.457L220.526,749.777C220.398,749.623 220.271,749.472 220.145,749.345C219.004,747.137 217.988,744.931 217.102,742.697C217.025,742.52 216.974,742.369 216.922,742.216C216.39,740.846 215.908,739.476 215.478,738.107C214.842,736.103 214.335,734.072 213.931,732.044C214.158,730.496 214.462,728.999 214.868,727.527C215.452,725.27 216.263,723.113 217.279,721.008C218.522,718.394 220.094,715.883 221.947,713.524Z" style="fill:rgb(187,110,81);fill-rule:nonzero;"/>
        </g>
        <g transform="matrix(4.16667,0,0,4.16667,0,0)">
            <path d="M223.875,711.214C223.19,711.95 222.555,712.737 221.947,713.524C220.094,715.883 218.522,718.394 217.279,721.008C216.263,723.113 215.452,725.27 214.868,727.527C214.462,728.999 214.158,730.496 213.931,732.044C214.335,734.072 214.842,736.103 215.478,738.107C215.908,739.476 216.39,740.846 216.922,742.216C216.974,742.369 217.025,742.52 217.102,742.697C217.988,744.931 219.004,747.137 220.145,749.345C220.271,749.472 220.398,749.623 220.526,749.777L221.211,748.457L221.185,748.33L215.882,732.271C216.187,730.521 216.593,728.846 217.076,727.223C218.142,723.595 219.612,720.273 221.515,717.253C222.2,715.197 222.987,713.193 223.875,711.214Z" style="fill:rgb(209,136,115);fill-rule:nonzero;"/>
        </g>
        <g transform="matrix(4.16667,0,0,4.16667,0,0)">
            <path d="M226.158,738.335C225.98,738.486 225.827,738.639 225.649,738.817L229.025,743.662C226.766,745.26 225.118,746.985 224.052,748.837C223.113,750.485 222.606,752.237 222.581,754.088C221.896,752.947 221.262,751.958 220.678,751.172C220.248,750.639 219.867,750.182 219.511,749.801C217.913,748.178 216.822,748.305 216.187,750.207C216.137,750.335 216.086,750.485 216.06,750.639C217.735,750.866 220.145,753.048 223.265,757.235C225.219,751.628 228.491,747.468 233.083,744.778L231.206,739.933L245.235,733.084L253.784,738.994L257.996,735.112C258.858,736.152 259.543,737.218 260.077,738.335C261.522,741.481 261.625,745.032 260.431,748.964C260.405,749.242 260.381,749.496 260.355,749.777C260,753.734 260.457,757.565 261.751,761.269C262.461,767.28 258.884,774.485 251.02,782.882C242.546,782.705 234.427,779.357 226.665,772.812C227.933,774.662 229.456,776.337 231.206,777.835C234.707,780.803 239.147,783.009 244.5,784.506C246.682,785.115 249.016,785.598 251.527,785.952C257.082,780.803 260.963,775.983 263.146,771.492C265.353,766.951 265.811,762.766 264.567,758.935C263.45,755.991 262.969,753.048 263.146,750.106C263.172,749.674 263.222,749.218 263.272,748.786C264.109,746.123 264.465,743.688 264.313,741.43C264.236,740.338 264.034,739.324 263.754,738.335C263.577,737.802 263.35,737.27 263.121,736.736C262.13,734.631 260.583,732.779 258.478,731.129L253.784,735.443L245.109,729.024C243.205,729.43 241.405,729.939 239.678,730.521C235.443,731.916 231.739,733.844 228.593,736.253C227.731,736.914 226.919,737.599 226.158,738.335Z" style="fill:rgb(211,159,130);fill-rule:nonzero;"/>
        </g>
        <g transform="matrix(4.16667,0,0,4.16667,0,0)">
            <path d="M260.228,729.506L259.364,730.318L263.705,734.072C264.516,733.134 265.277,732.195 265.961,731.257L266.089,731.105C269.031,727.172 270.959,723.418 271.898,719.892C272.609,717.127 272.71,714.487 272.228,711.976C272.076,712.357 271.924,712.712 271.747,713.042C270.783,714.944 269.615,716.365 268.22,717.33C267.839,718.419 267.357,719.485 266.825,720.551C265.556,723.063 263.882,725.497 261.802,727.857C261.293,728.415 260.762,728.974 260.228,729.506Z" style="fill:rgb(187,110,81);fill-rule:nonzero;"/>
        </g>
        <g transform="matrix(4.16667,0,0,4.16667,0,0)">
            <path d="M260.077,738.335C259.543,737.218 258.858,736.152 257.996,735.112L253.784,738.994L245.235,733.084L231.206,739.933L233.083,744.778C228.491,747.468 225.219,751.628 223.265,757.235C220.145,753.048 217.735,750.866 216.06,750.639C215.985,750.943 215.908,751.298 215.833,751.679C216.011,755.408 217.988,758.021 221.769,759.568C221.896,760.38 222.022,761.167 222.175,761.928C222.884,765.505 224.102,768.676 225.803,771.492C226.081,771.948 226.361,772.379 226.665,772.812C234.427,779.357 242.546,782.705 251.02,782.882C258.884,774.485 262.461,767.28 261.751,761.269C260.457,757.565 260,753.734 260.355,749.777C260.381,749.496 260.405,749.242 260.431,748.964C261.625,745.032 261.522,741.481 260.077,738.335ZM216.593,751.73L216.619,751.603C217.151,751.831 217.761,752.263 218.446,752.871C218.395,754.927 220.044,756.803 223.368,758.528C225.448,766.19 228.365,771.999 232.094,775.932C230.444,774.84 228.795,773.622 227.198,772.278C226.944,771.898 226.691,771.492 226.462,771.112C224.787,768.371 223.621,765.252 222.936,761.776C222.784,761.04 222.657,760.253 222.531,759.467C222.503,759.34 222.454,759.213 222.377,759.111C222.302,758.985 222.2,758.908 222.073,758.859C218.598,757.462 216.771,755.078 216.593,751.73Z" style="fill:rgb(245,215,190);fill-rule:nonzero;"/>
        </g>
        <g transform="matrix(4.16667,0,0,4.16667,0,0)">
            <path d="M216.619,751.603L216.593,751.73C216.771,755.078 218.598,757.464 222.073,758.859C222.2,758.908 222.302,758.985 222.377,759.111C222.454,759.213 222.503,759.34 222.531,759.467C222.657,760.253 222.784,761.04 222.936,761.776C223.621,765.252 224.787,768.371 226.462,771.112C226.691,771.492 226.944,771.898 227.198,772.278C228.795,773.622 230.444,774.84 232.094,775.932C228.365,771.999 225.448,766.19 223.368,758.528C220.044,756.803 218.395,754.927 218.446,752.871C217.761,752.263 217.151,751.831 216.619,751.603Z" style="fill:rgb(247,240,232);fill-rule:nonzero;"/>
        </g>
        <g transform="matrix(4.16667,0,0,4.16667,0,0)">
            <path d="M271.036,734.809C269.996,735.949 268.854,737.142 267.636,738.335C266.825,739.121 265.961,739.933 265.074,740.745L265.836,746.579C268.143,743.764 270.199,740.998 272.05,738.335C272.481,737.726 272.889,737.117 273.268,736.508C274.004,735.417 274.689,734.327 275.323,733.262C275.704,732.576 276.084,731.916 276.465,731.257L272.71,732.855C272.177,733.488 271.619,734.148 271.036,734.809Z" style="fill:rgb(187,110,81);fill-rule:nonzero;"/>
        </g>
        <g transform="matrix(4.16667,0,0,4.16667,0,0)">
            <path d="M263.932,736.103L265.302,738.994L277.91,724.99L270.375,728.518C269.742,729.608 269.031,730.698 268.22,731.738C268.042,731.942 267.891,732.145 267.738,732.322C266.622,733.642 265.353,734.909 263.932,736.103Z" style="fill:rgb(187,110,81);fill-rule:nonzero;"/>
        </g>
        <g transform="matrix(4.16667,0,0,4.16667,0,0)">
            <path d="M212.458,727.832C212.407,727.527 212.356,727.223 212.332,726.918C212.255,727.248 212.178,727.553 212.103,727.882C211.9,728.719 211.723,729.531 211.596,730.368C212.002,733.134 212.585,735.772 213.347,738.335C213.931,740.338 214.639,742.292 215.427,744.169L215.452,744.245C215.934,745.337 216.441,746.428 216.974,747.493L216.187,750.207C216.822,748.305 217.913,748.178 219.511,749.801C218.319,747.543 217.279,745.285 216.39,742.978L216.39,742.951C215.782,741.404 215.249,739.882 214.767,738.335C214.108,736.253 213.575,734.174 213.143,732.068C212.865,730.673 212.636,729.252 212.458,727.832Z" style="fill:rgb(152,89,68);fill-rule:nonzero;"/>
        </g>
        <g transform="matrix(4.16667,0,0,4.16667,0,0)">
            <path d="M213.347,738.335C212.585,735.772 212.002,733.134 211.596,730.368C211.113,733.032 210.911,735.671 210.986,738.335C211.063,741.53 211.494,744.728 212.332,747.924L216.06,750.639C216.086,750.485 216.137,750.335 216.187,750.207L216.974,747.493C216.441,746.428 215.934,745.337 215.452,744.245L215.427,744.169C214.639,742.292 213.931,740.338 213.347,738.335ZM212.61,738.563C212.713,738.893 212.813,739.197 212.915,739.527L212.94,739.578L213.931,746.377L216.011,747.264C216.06,747.366 216.111,747.468 216.163,747.568L215.63,749.396L213.017,747.468C212.229,744.423 211.798,741.379 211.748,738.335C211.723,737.346 211.723,736.381 211.773,735.391C212.028,736.457 212.307,737.523 212.61,738.563Z" style="fill:rgb(187,110,81);fill-rule:nonzero;"/>
        </g>
        <g transform="matrix(4.16667,0,0,4.16667,0,0)">
            <path d="M212.915,739.527C212.813,739.197 212.713,738.893 212.61,738.563C212.307,737.523 212.028,736.457 211.773,735.391C211.723,736.381 211.723,737.346 211.748,738.335C211.798,741.379 212.229,744.423 213.017,747.468L215.63,749.396L216.163,747.569C216.111,747.468 216.06,747.366 216.011,747.264L213.931,746.377L212.94,739.578L212.915,739.527Z" style="fill:rgb(209,136,115);fill-rule:nonzero;"/>
        </g>
        <g transform="matrix(4.16667,0,0,4.16667,0,0)">
            <path d="M210.227,750.663C210.327,750.817 210.43,750.969 210.556,751.146C212.229,753.505 214.234,755.687 216.543,757.717C214.971,755.434 214.412,753.303 214.842,751.349L206.497,743.662C207.485,746.123 208.729,748.457 210.227,750.663Z" style="fill:rgb(187,110,81);fill-rule:nonzero;"/>
        </g>
        <g transform="matrix(4.16667,0,0,4.16667,0,0)">
            <path d="M215.833,751.679C215.908,751.298 215.985,750.943 216.06,750.639L212.332,747.924L206.497,743.662L214.842,751.349C214.412,753.303 214.971,755.434 216.543,757.717C218.243,759.213 220.12,760.61 222.175,761.928C222.022,761.167 221.896,760.38 221.769,759.568C217.988,758.021 216.011,755.408 215.833,751.679Z" style="fill:rgb(152,89,68);fill-rule:nonzero;"/>
        </g>
        <g transform="matrix(4.16667,0,0,4.16667,0,0)">
            <path d="M217.607,801.301L212.61,837.605C212.382,846.941 213.524,856.277 215.985,865.637C219.409,861.781 224.406,858.787 231.029,856.656L228.872,843.997C226.716,844.682 225.067,845.672 223.875,846.941C224.814,842.779 227.705,840.877 232.55,841.256L232.55,839.583L228.949,834.357C227.857,832.962 226.919,831.414 226.132,829.715L230.521,831.972C231.281,824.082 234.099,816.953 238.995,810.561C235.824,819.897 233.693,829.055 232.55,838.035C233.083,838.442 233.618,838.822 234.174,839.203L234.174,842.906C233.387,842.983 232.653,843.11 231.968,843.235C232.374,848.589 233.363,853.637 234.936,858.33C236.027,861.552 237.371,864.597 238.995,867.515L238.538,868.123C243.712,869.493 249.269,868.606 255.205,865.435L260.101,862.694L258.122,860.512C256.879,851.253 257.285,841.765 259.316,832.1C262.461,819.415 261.851,807.364 257.488,795.923C260.228,799.804 262.183,803.838 263.374,808.074L262.385,798.232C261.7,796.557 260.431,795.314 258.528,794.502L249.954,792.447C252.289,797.14 253.353,801.681 253.151,806.045C252.415,805.943 251.705,805.818 250.994,805.664C242.216,803.762 234.985,798.46 229.278,789.733C223.291,789.783 219.409,793.64 217.607,801.301ZM213.372,837.629L218.345,801.479C219.993,794.426 223.52,790.773 228.897,790.519C229.201,790.976 229.507,791.432 229.836,791.889C224.382,793.537 220.652,799.423 218.699,809.521L214.842,838.872C215.174,846.863 216.34,854.677 218.319,862.339C217.633,862.898 216.974,863.481 216.366,864.114C214.158,855.286 213.143,846.457 213.372,837.629Z" style="fill:rgb(243,165,43);fill-rule:nonzero;"/>
        </g>
        <g transform="matrix(4.16667,0,0,4.16667,0,0)">
            <path d="M218.343,801.479L213.372,837.629C213.143,846.457 214.158,855.286 216.364,864.114C216.974,863.481 217.633,862.898 218.319,862.339C216.34,854.677 215.174,846.863 214.842,838.872L218.699,809.521C220.652,799.423 224.382,793.537 229.836,791.889C229.507,791.432 229.201,790.976 228.897,790.519C223.52,790.773 219.993,794.426 218.343,801.479Z" style="fill:rgb(245,200,138);fill-rule:nonzero;"/>
        </g>
        <g transform="matrix(4.16667,0,0,4.16667,0,0)">
            <path d="M215.985,865.637C216.263,866.702 216.543,867.769 216.873,868.859C220.704,864.47 225.523,861.299 231.333,859.346C232.5,858.965 233.693,858.61 234.936,858.33C233.363,853.637 232.374,848.589 231.968,843.235C232.653,843.11 233.387,842.983 234.174,842.906L234.174,839.203C233.618,838.822 233.083,838.442 232.55,838.035C233.693,829.055 235.824,819.897 238.995,810.561C234.099,816.953 231.281,824.082 230.521,831.972L226.132,829.715C226.919,831.414 227.857,832.962 228.949,834.357L232.55,839.583L232.55,841.256C227.705,840.877 224.814,842.779 223.875,846.941C225.067,845.672 226.716,844.682 228.872,843.997L231.029,856.656C224.406,858.787 219.409,861.781 215.985,865.637Z" style="fill:rgb(182,128,46);fill-rule:nonzero;"/>
        </g>
        <g transform="matrix(4.16667,0,0,4.16667,0,0)">
            <path d="M216.873,868.859C217.558,871.168 218.319,873.476 219.156,875.784C219.689,875.252 220.248,874.719 220.806,874.213C224.433,870.964 228.745,868.25 233.693,866.094L231.333,859.346C225.523,861.299 220.704,864.47 216.873,868.859ZM219.486,874.414C218.851,872.613 218.268,870.837 217.735,869.036C221.262,865.078 225.625,862.161 230.876,860.309L231.484,862.11C227.021,863.684 223.165,866.17 219.891,869.544L220.652,873.35C220.248,873.679 219.867,874.033 219.486,874.414Z" style="fill:rgb(187,110,81);fill-rule:nonzero;"/>
        </g>
        <g transform="matrix(4.16667,0,0,4.16667,0,0)">
            <path d="M217.735,869.036C218.268,870.837 218.851,872.613 219.486,874.414C219.867,874.033 220.248,873.679 220.652,873.349L219.891,869.544C223.165,866.17 227.021,863.684 231.484,862.11L230.876,860.309C225.625,862.161 221.262,865.078 217.735,869.036Z" style="fill:rgb(211,139,120);fill-rule:nonzero;"/>
        </g>
        <g transform="matrix(4.16667,0,0,4.16667,0,0)">
            <path d="M317.969,827.507L321.369,828.344C321.19,827.659 320.531,827.152 319.416,826.822C319.035,826.695 318.679,826.595 318.299,826.518C318.044,826.442 317.792,826.391 317.563,826.315C313.833,825.376 309.901,825.021 305.741,825.198C309.293,824.312 313.148,824.387 317.31,825.427C316.169,823.372 311.577,822.383 303.483,822.458L301.783,822.637C298.613,821.394 296.43,818.831 295.187,814.899C293.918,810.485 291.99,808.201 289.429,808.024C287.779,808.81 287.627,810.181 289.022,812.185C292.193,814.492 293.31,816.776 292.396,819.085C289.302,820.251 287.526,822.712 287.094,826.492L283.467,827.812C283.187,830.068 283.696,832.225 284.939,834.23C294.147,831.313 303.33,829.993 312.515,830.298L323.12,831.643C322.739,830.857 322.129,830.146 321.267,829.563C320.43,828.979 319.39,828.471 318.121,828.091L305.741,826.974C299.169,822.383 294.451,823.499 291.584,830.349C292.067,824.235 295.491,822.002 301.911,823.652L305.944,826.391L317.969,827.507ZM288.845,809.723C288.921,809.344 289.15,809.038 289.581,808.81C289.529,809.521 289.833,810.231 290.518,810.915L293.741,814.416C294.629,816.471 294.781,818.349 294.198,820.048C290.824,821.723 289.048,824.412 288.896,828.116L284.177,829.409C284.152,829.055 284.177,828.7 284.203,828.369L287.373,827.203C287.5,827.152 287.603,827.076 287.704,826.974C287.779,826.847 287.83,826.721 287.856,826.595C288.262,823.143 289.859,820.886 292.677,819.795L292.93,819.643C293.005,819.567 293.082,819.465 293.107,819.363C294.198,816.751 293.03,814.189 289.581,811.651C289.073,810.891 288.819,810.256 288.845,809.723Z" style="fill:rgb(245,215,190);fill-rule:nonzero;"/>
        </g>
        <g transform="matrix(4.16667,0,0,4.16667,0,0)">
            <path d="M289.581,808.81C289.15,809.038 288.921,809.344 288.845,809.723C288.819,810.256 289.073,810.891 289.581,811.651C293.03,814.189 294.198,816.751 293.107,819.363C293.082,819.465 293.005,819.567 292.93,819.643L292.677,819.795C289.859,820.886 288.262,823.143 287.856,826.595C287.83,826.721 287.779,826.847 287.704,826.974C287.603,827.076 287.5,827.152 287.373,827.203L284.203,828.369C284.177,828.7 284.152,829.055 284.177,829.409L288.896,828.116C289.048,824.412 290.824,821.723 294.198,820.048C294.781,818.349 294.629,816.471 293.741,814.417L290.518,810.915C289.833,810.231 289.529,809.521 289.581,808.81Z" style="fill:rgb(247,240,232);fill-rule:nonzero;"/>
        </g>
        <g transform="matrix(4.16667,0,0,4.16667,0,0)">
            <path d="M321.369,828.344L317.969,827.507L305.944,826.391L301.911,823.652C295.491,822.002 292.067,824.235 291.584,830.349C294.451,823.499 299.171,822.383 305.741,826.974L318.121,828.091C319.39,828.471 320.43,828.979 321.267,829.563C321.42,829.106 321.444,828.7 321.369,828.344Z" style="fill:rgb(211,159,130);fill-rule:nonzero;"/>
        </g>
        <g transform="matrix(4.16667,0,0,4.16667,0,0)">
            <path d="M317.563,826.315C317.537,825.985 317.436,825.705 317.31,825.427C313.148,824.387 309.293,824.312 305.741,825.198C309.901,825.021 313.833,825.376 317.563,826.315Z" style="fill:rgb(211,159,130);fill-rule:nonzero;"/>
        </g>
        <g transform="matrix(4.16667,0,0,4.16667,0,0)">
            <path d="M323.12,831.643L312.515,830.298C303.33,829.993 294.147,831.313 284.939,834.23C283.696,832.227 283.187,830.068 283.467,827.812L281.665,828.471C281.488,832.227 281.971,835.473 283.137,838.213L285.75,837.097C287.272,836.26 289.529,835.727 292.549,835.499C301.327,832.937 309.598,832.124 317.335,833.064C321.115,834.18 323.042,833.697 323.12,831.643Z" style="fill:rgb(211,159,130);fill-rule:nonzero;"/>
        </g>
        <g transform="matrix(4.16667,0,0,4.16667,0,0)">
            <path d="M231.206,777.835L231.459,780.27C234.833,782.401 238.182,784.125 241.557,785.42C242.674,785.851 243.789,786.231 244.906,786.562L244.5,784.506C239.147,783.009 234.707,780.803 231.206,777.835Z" style="fill:rgb(179,132,108);fill-rule:nonzero;"/>
        </g>
        <g transform="matrix(4.16667,0,0,4.16667,0,0)">
            <path d="M233.742,790.95C233.261,790.366 232.83,789.783 232.398,789.175C231.917,789.226 231.435,789.276 231.003,789.352C232.449,793.537 237.067,797.749 244.854,801.935L250.41,802.365C243.181,799.525 237.625,795.72 233.742,790.95Z" style="fill:rgb(141,83,63);fill-rule:nonzero;"/>
        </g>
        <g transform="matrix(4.16667,0,0,4.16667,0,0)">
            <path d="M232.398,789.175C232.83,789.783 233.261,790.366 233.742,790.95C239.07,795.187 243.637,797.851 247.416,798.967L243.205,791.813L241.557,785.42C238.182,784.125 234.833,782.401 231.459,780.27L232.398,789.175ZM233.134,788.921L232.398,781.741C233.134,782.198 233.896,782.629 234.656,783.035L235.723,791.534C235.24,791.153 234.758,790.797 234.277,790.418C233.87,789.935 233.489,789.429 233.134,788.921Z" style="fill:rgb(245,215,190);fill-rule:nonzero;"/>
        </g>
        <g transform="matrix(4.16667,0,0,4.16667,0,0)">
            <path d="M232.398,781.741L233.134,788.921C233.489,789.429 233.87,789.935 234.277,790.418C234.758,790.797 235.24,791.153 235.722,791.534L234.656,783.035C233.896,782.628 233.134,782.197 232.398,781.741Z" style="fill:rgb(247,240,232);fill-rule:nonzero;"/>
        </g>
        <g transform="matrix(4.16667,0,0,4.16667,0,0)">
            <path d="M231.003,789.352C230.395,789.453 229.811,789.58 229.278,789.733C234.985,798.46 242.216,803.762 250.994,805.664C251.856,805.08 252.109,804.193 251.755,803C251.247,798.154 250.056,794.147 248.178,790.925L245.946,790.469L245.845,790.925C248.837,795.568 250.36,799.398 250.41,802.365L244.854,801.935C237.067,797.749 232.449,793.537 231.003,789.352Z" style="fill:rgb(187,110,81);fill-rule:nonzero;"/>
        </g>
        <g transform="matrix(4.16667,0,0,4.16667,0,0)">
            <path d="M244.906,786.562C243.789,786.231 242.674,785.851 241.557,785.42L243.205,791.813L247.416,798.967C243.637,797.851 239.07,795.187 233.742,790.95C237.625,795.72 243.181,799.525 250.41,802.365C250.36,799.398 248.837,795.568 245.845,790.925L245.642,790.392L244.906,786.562Z" style="fill:rgb(211,159,130);fill-rule:nonzero;"/>
        </g>
        <g transform="matrix(4.16667,0,0,4.16667,0,0)">
            <path d="M245.946,790.469L245.642,790.392L245.845,790.925L245.946,790.469Z" style="fill:rgb(209,211,212);fill-rule:nonzero;"/>
        </g>
        <g transform="matrix(4.16667,0,0,4.16667,0,0)">
            <path d="M249.269,791.128L248.178,790.925C250.056,794.147 251.247,798.154 251.755,803C252.109,804.193 251.856,805.08 250.994,805.664C251.705,805.818 252.415,805.943 253.151,806.045C253.353,801.681 252.289,797.14 249.954,792.447C249.725,792.016 249.498,791.559 249.269,791.128Z" style="fill:rgb(141,83,63);fill-rule:nonzero;"/>
        </g>
        <g transform="matrix(4.16667,0,0,4.16667,0,0)">
            <path d="M249.269,791.128C249.498,791.559 249.725,792.016 249.954,792.447L258.528,794.502C260.431,795.314 261.7,796.557 262.385,798.232L263.374,808.074C263.653,809.114 263.908,810.181 264.109,811.246L264.896,801.86C266.114,796.86 263.045,793.715 255.712,792.397L249.269,791.128Z" style="fill:rgb(217,148,51);fill-rule:nonzero;"/>
        </g>
        <g transform="matrix(4.16667,0,0,4.16667,0,0)">
            <path d="M257.488,795.923C261.851,807.364 262.461,819.415 259.316,832.1C257.285,841.765 256.879,851.253 258.122,860.512L260.101,862.694L255.205,865.435C249.269,868.606 243.712,869.493 238.538,868.123L236.914,870.255C237.523,870.787 238.005,871.573 238.334,872.589C238.869,872.715 239.375,872.842 239.907,872.917C245.642,873.907 250.943,872.664 255.839,869.163C256.729,868.528 257.591,867.818 258.453,867.032C258.909,866.753 259.39,866.526 259.872,866.348C261.903,865.586 264.262,865.612 266.977,866.398C269.31,864.597 267.713,861.958 262.156,858.508C261.802,857.214 261.522,855.794 261.293,854.272C266.9,853.13 272.127,851.506 276.998,849.401C276.11,848.64 275.323,847.828 274.638,846.991C271.34,842.931 270.172,837.832 271.163,831.668C270.172,832.048 269.209,832.403 268.22,832.733C267.51,838.264 268.346,843.489 270.756,848.412L261.04,851.887C260.66,846.991 260.963,841.079 261.928,834.129C262.004,833.621 262.081,833.113 262.156,832.581C264.668,825.046 265.327,817.943 264.109,811.246C263.908,810.181 263.653,809.114 263.374,808.074C262.183,803.838 260.228,799.804 257.488,795.923Z" style="fill:rgb(182,128,46);fill-rule:nonzero;"/>
        </g>
        <g transform="matrix(4.16667,0,0,4.16667,0,0)">
            <path d="M296.912,811.855C296.938,809.495 295.465,807.998 292.549,807.339C291.205,807.44 290.165,807.669 289.429,808.024C291.99,808.201 293.918,810.485 295.187,814.899C296.43,818.831 298.613,821.394 301.783,822.637L303.483,822.458C298.891,820.607 296.685,817.055 296.912,811.855Z" style="fill:rgb(211,159,130);fill-rule:nonzero;"/>
        </g>
        <g transform="matrix(4.16667,0,0,4.16667,0,0)">
            <path d="M281.945,825.376C281.817,826.442 281.716,827.482 281.665,828.471L283.467,827.812L281.945,825.376Z" style="fill:rgb(35,31,32);fill-rule:nonzero;"/>
        </g>
        <g transform="matrix(4.16667,0,0,4.16667,0,0)">
            <path d="M281.665,828.471C281.716,827.482 281.817,826.442 281.945,825.376C281.056,826.061 280.169,826.695 279.281,827.304C278.418,832.86 279.635,838.264 282.959,843.515L274.638,846.991C275.323,847.828 276.11,848.64 276.998,849.401C280.625,847.828 284.023,845.976 287.246,843.87C285.444,842.322 284.077,840.42 283.137,838.213C281.971,835.473 281.488,832.227 281.665,828.471Z" style="fill:rgb(141,83,63);fill-rule:nonzero;"/>
        </g>
        <g transform="matrix(4.16667,0,0,4.16667,0,0)">
            <path d="M268.22,832.733C266.14,833.393 264.034,833.849 261.928,834.129C260.963,841.079 260.66,846.991 261.04,851.887L270.756,848.412C268.346,843.489 267.51,838.264 268.22,832.733Z" style="fill:rgb(243,165,43);fill-rule:nonzero;"/>
        </g>
        <g transform="matrix(4.16667,0,0,4.16667,0,0)">
            <path d="M279.281,827.304C276.617,829.106 273.902,830.552 271.163,831.668C270.172,837.832 271.34,842.931 274.638,846.991L282.959,843.515C279.635,838.264 278.418,832.86 279.281,827.304ZM278.291,831.846L273.268,833.824C273.04,837.756 273.979,841.663 276.035,845.57L274.892,846.052C272.076,842.322 271.062,837.731 271.847,832.227C274.03,831.287 276.185,830.171 278.342,828.825C278.267,829.841 278.241,830.857 278.291,831.846Z" style="fill:rgb(187,110,81);fill-rule:nonzero;"/>
        </g>
        <g transform="matrix(4.16667,0,0,4.16667,0,0)">
            <path d="M273.268,833.824L278.291,831.846C278.241,830.857 278.267,829.841 278.342,828.825C276.185,830.171 274.03,831.287 271.847,832.227C271.062,837.731 272.076,842.322 274.892,846.052L276.035,845.57C273.979,841.663 273.04,837.756 273.268,833.824Z" style="fill:rgb(211,139,120);fill-rule:nonzero;"/>
        </g>
        <g transform="matrix(4.16667,0,0,4.16667,0,0)">
            <path d="M283.137,838.213C284.077,840.42 285.444,842.322 287.246,843.87L285.75,837.097L283.137,838.213Z" style="fill:rgb(35,31,32);fill-rule:nonzero;"/>
        </g>
        <g transform="matrix(4.16667,0,0,4.16667,0,0)">
            <path d="M258.453,867.032C257.591,867.818 256.729,868.528 255.839,869.163C250.943,872.664 245.642,873.907 239.907,872.917C239.375,872.842 238.869,872.715 238.334,872.589C238.461,873.02 238.589,873.476 238.664,873.958C239.07,876.038 239.958,878.118 241.302,880.174L240.313,875.023C245.438,875.48 250.08,874.795 254.215,872.994L257.108,880.199L257.691,916.807C257.133,922.616 255.839,926.903 253.784,929.669L247.899,941.364L251.477,937.127C251.908,936.722 252.339,936.316 252.77,935.909C251.197,952.172 250.968,968.332 252.109,984.39L255.688,988.475L257.463,996.517C253.226,1000.96 247.215,1003.24 239.477,1003.37L237.776,991.874L240.44,983.478C238.792,964.019 239.882,947.782 243.663,934.743L242.368,929.288L246.885,918.988L243.13,895.8C241.328,896.309 239.426,895.294 237.395,892.782C236.254,893.315 235.214,893.543 234.301,893.467L234.682,895.522L237.042,894.837C238.461,896.334 239.882,897.247 241.278,897.552L244.247,918.684L240.11,928.756L241.405,934.895C237.802,947.96 236.813,964.044 238.437,983.147L235.848,991.088L237.395,1001.23L231.155,1001.87L231.307,1003.06C231.865,1003.21 232.424,1003.37 232.957,1003.49C233.618,1003.67 234.277,1003.82 234.91,1003.95C236.533,1004.28 238.107,1004.51 239.654,1004.63C242.699,1004.89 245.59,1004.76 248.304,1004.26C250.005,1003.92 251.627,1003.47 253.202,1002.86C254.039,1002.53 254.85,1002.15 255.661,1001.74C256.068,1001.51 256.474,1001.31 256.879,1001.08C258.021,1000.4 259.113,999.637 260.178,998.8L257.64,985.252L254.596,981.878C252.543,965.414 252.871,948.976 255.535,932.51C256.778,930.683 257.741,928.704 258.479,926.548L287.4,917.212C301.656,915.588 305.031,909.373 297.547,898.54L266.977,866.398C264.262,865.612 261.903,865.586 259.872,866.348C259.39,866.526 258.909,866.753 258.453,867.032ZM259.29,879.083L256.523,871.092L259.568,869.214L259.341,881.139L259.29,879.083ZM259.543,891.006L259.417,884.892C261.116,879.793 261.497,874.567 260.532,869.214L265.479,868.15L294.045,898.49C299.88,906.583 297.571,912.113 287.094,915.132L259.29,923.707C259.772,921.526 260.049,919.192 260.077,916.731L259.797,902.422L259.543,891.006Z" style="fill:rgb(35,31,32);fill-rule:nonzero;"/>
        </g>
        <g transform="matrix(4.16667,0,0,4.16667,0,0)">
            <path d="M256.523,871.092L259.29,879.083L259.341,881.139L259.568,869.214L256.523,871.092Z" style="fill:rgb(88,89,91);fill-rule:nonzero;"/>
        </g>
        <g transform="matrix(4.16667,0,0,4.16667,0,0)">
            <path d="M259.417,884.892L259.543,891.006L274.055,899.657C278.671,898.211 283.112,897.881 287.4,898.718C282.656,899.099 278.749,899.708 275.678,900.545C279.307,901.433 282.78,902.955 286.129,905.162C280.321,902.803 274.486,901.332 268.676,900.799L259.797,902.422L260.077,916.731C260.049,919.192 259.772,921.526 259.29,923.707L287.094,915.132C297.571,912.113 299.88,906.583 294.045,898.49L265.479,868.15L260.532,869.214C261.497,874.567 261.116,879.793 259.417,884.892ZM260.305,890.574L260.278,889.281L276.262,898.287C275.577,898.44 274.867,898.617 274.182,898.845L260.305,890.574ZM260.608,905.238L260.583,903.057L268.702,901.585C269.894,901.686 271.111,901.839 272.305,902.042L260.608,905.238Z" style="fill:rgb(88,89,91);fill-rule:nonzero;"/>
        </g>
        <g transform="matrix(4.16667,0,0,4.16667,0,0)">
            <path d="M260.278,889.281L260.305,890.574L274.182,898.845C274.867,898.617 275.577,898.44 276.262,898.287L260.278,889.281Z" style="fill:rgb(128,130,133);fill-rule:nonzero;"/>
        </g>
        <g transform="matrix(4.16667,0,0,4.16667,0,0)">
            <path d="M260.583,903.057L260.608,905.238L272.305,902.041C271.111,901.839 269.894,901.686 268.702,901.585L260.583,903.057Z" style="fill:rgb(128,130,133);fill-rule:nonzero;"/>
        </g>
        <g transform="matrix(4.16667,0,0,4.16667,0,0)">
            <path d="M274.055,899.657C273.674,899.758 273.319,899.885 272.938,900.012L268.676,900.799C274.486,901.332 280.321,902.803 286.129,905.162C282.782,902.955 279.307,901.433 275.678,900.545C278.749,899.708 282.656,899.099 287.4,898.718C283.112,897.881 278.671,898.211 274.055,899.657Z" style="fill:rgb(35,31,32);fill-rule:nonzero;"/>
        </g>
        <g transform="matrix(4.16667,0,0,4.16667,0,0)">
            <path d="M238.995,867.515C237.091,868.072 235.342,868.707 233.693,869.393C235.011,869.214 236.077,869.518 236.914,870.255L238.538,868.123L238.995,867.515Z" style="fill:rgb(35,31,32);fill-rule:nonzero;"/>
        </g>
        <g transform="matrix(4.16667,0,0,4.16667,0,0)">
            <path d="M233.693,869.391C235.342,868.707 237.091,868.072 238.995,867.515C237.371,864.597 236.027,861.552 234.936,858.33C233.693,858.61 232.5,858.965 231.333,859.346L233.693,866.094C228.745,868.25 224.433,870.964 220.806,874.213C220.248,874.719 219.689,875.252 219.156,875.784C219.586,876.926 220.019,878.094 220.5,879.26C221.211,878.221 222.022,877.256 222.936,876.318C225.625,873.552 229.201,871.243 233.693,869.391Z" style="fill:rgb(141,83,63);fill-rule:nonzero;"/>
        </g>
        <g transform="matrix(4.16667,0,0,4.16667,0,0)">
            <path d="M238.334,872.589C238.005,871.573 237.523,870.787 236.914,870.255C236.077,869.518 235.011,869.214 233.693,869.393C229.201,871.243 225.625,873.552 222.936,876.318C222.961,877.054 222.987,877.763 223.062,878.448C225.574,875.379 229.304,873.401 234.301,872.512L237.574,876.876L243.434,888.596C245.59,887.759 245.667,885.983 243.663,883.294C242.749,882.254 241.963,881.214 241.302,880.174C239.958,878.118 239.07,876.038 238.664,873.958C238.589,873.476 238.461,873.02 238.334,872.589Z" style="fill:rgb(211,159,130);fill-rule:nonzero;"/>
        </g>
        <g transform="matrix(4.16667,0,0,4.16667,0,0)">
            <path d="M237.574,876.876L234.301,872.512C229.304,873.401 225.574,875.379 223.062,878.448C223.747,887.125 226.158,890.829 230.318,889.56C230.521,890.144 230.75,890.652 231.003,891.082C233.438,892.579 235.165,892.402 236.179,890.574C239.807,892.832 241.76,893.238 242.09,891.818L237.878,887.632L236.736,878.144L240.11,887.632L242.267,888.927C242.699,888.85 243.104,888.724 243.434,888.596L237.574,876.876ZM223.849,878.702C224.281,878.221 224.737,877.763 225.219,877.332C225.649,884.715 227.68,888.114 231.333,887.581L233.059,891.209C232.602,891.082 232.094,890.854 231.562,890.549C231.384,890.168 231.206,889.763 231.054,889.306C230.978,889.128 230.851,888.977 230.673,888.874C230.496,888.799 230.292,888.774 230.115,888.85C228.39,889.358 227.021,888.85 226.03,887.327C224.915,885.577 224.179,882.71 223.849,878.702Z" style="fill:rgb(245,215,190);fill-rule:nonzero;"/>
        </g>
        <g transform="matrix(4.16667,0,0,4.16667,0,0)">
            <path d="M225.219,877.332C224.737,877.763 224.281,878.221 223.849,878.702C224.179,882.71 224.915,885.577 226.03,887.328C227.021,888.85 228.39,889.358 230.115,888.85C230.292,888.774 230.496,888.799 230.673,888.874C230.851,888.977 230.978,889.128 231.054,889.307C231.206,889.763 231.384,890.17 231.562,890.549C232.094,890.855 232.602,891.082 233.059,891.209L231.333,887.581C227.68,888.114 225.649,884.715 225.219,877.332Z" style="fill:rgb(247,240,232);fill-rule:nonzero;"/>
        </g>
        <g transform="matrix(4.16667,0,0,4.16667,0,0)">
            <path d="M223.062,878.448C222.987,877.763 222.961,877.054 222.936,876.318C222.022,877.256 221.211,878.221 220.5,879.26L223.062,878.448Z" style="fill:rgb(35,31,32);fill-rule:nonzero;"/>
        </g>
        <g transform="matrix(4.16667,0,0,4.16667,0,0)">
            <path d="M236.179,890.574C235.165,892.402 233.438,892.579 231.003,891.082C231.84,892.554 232.931,893.34 234.301,893.467C235.214,893.543 236.254,893.315 237.395,892.782C239.426,895.294 241.328,896.309 243.13,895.8C243.763,895.623 244.373,895.242 244.956,894.71C246.301,892.554 245.743,890.854 243.333,889.56L242.267,888.927L240.11,887.631L236.736,878.144L237.878,887.631L242.09,891.818C241.76,893.238 239.807,892.832 236.179,890.574Z" style="fill:rgb(211,159,130);fill-rule:nonzero;"/>
        </g>
        <g transform="matrix(4.16667,0,0,4.16667,0,0)">
            <path d="M257.108,880.199L254.215,872.994C250.08,874.795 245.438,875.48 240.313,875.023L241.302,880.174C241.963,881.214 242.749,882.254 243.663,883.294C245.667,885.983 245.59,887.759 243.434,888.596C243.104,888.724 242.699,888.85 242.267,888.927L243.333,889.56C245.743,890.854 246.301,892.554 244.956,894.71C244.373,895.242 243.763,895.623 243.13,895.8L246.885,918.988L242.368,929.288L243.663,934.743C239.882,947.782 238.792,964.019 240.44,983.478L237.776,991.874L239.477,1003.37C247.215,1003.24 253.226,1000.96 257.463,996.517L255.688,988.475L252.109,984.39C250.968,968.332 251.197,952.172 252.77,935.909C252.339,936.316 251.908,936.722 251.477,937.127L247.899,941.364L253.784,929.669C255.839,926.903 257.133,922.616 257.691,916.807L257.108,880.199Z" style="fill:rgb(88,89,91);fill-rule:nonzero;"/>
        </g>
        <g transform="matrix(4.16667,0,0,4.16667,0,0)">
            <path d="M244.247,918.684L241.278,897.552C239.882,897.247 238.461,896.334 237.042,894.837L234.682,895.522L235.722,901.332L237.498,911.352L238.842,918.836C237.598,921.322 236.509,923.834 235.569,926.397C233.693,931.495 232.475,936.746 231.891,942.151C231.713,943.749 231.587,945.372 231.536,947.021C231.206,955.875 232.576,965.084 235.621,974.649L236.205,981.625L230.038,993.752L231.155,1001.87L237.395,1001.24L235.848,991.088L238.437,983.147C236.813,964.044 237.802,947.96 241.405,934.895L240.11,928.756L244.247,918.684ZM235.544,896.054L236.813,895.699L241.176,919.166C236.762,927.564 234.427,935.706 234.2,943.597C233.489,956.002 234.427,965.566 237.016,972.263C237.143,975.739 237.346,979.342 237.675,983.07L232.424,993.777L233.693,1000.86L231.79,1001.03L230.825,993.878L236.89,981.981C236.965,981.853 236.99,981.7 236.965,981.574L236.382,974.597L236.355,974.42C233.337,964.933 231.968,955.799 232.297,947.047C232.347,945.423 232.475,943.825 232.653,942.251L232.653,942.227C233.209,936.9 234.427,931.724 236.28,926.675C237.219,924.138 238.285,921.652 239.528,919.192C239.603,919.014 239.629,918.861 239.603,918.709L235.544,896.054Z" style="fill:rgb(88,89,91);fill-rule:nonzero;"/>
        </g>
        <g transform="matrix(4.16667,0,0,4.16667,0,0)">
            <path d="M236.813,895.699L235.544,896.054L239.603,918.709C239.629,918.861 239.603,919.014 239.528,919.192C238.285,921.652 237.219,924.138 236.28,926.675C234.427,931.724 233.209,936.9 232.653,942.227L232.653,942.251C232.475,943.825 232.347,945.423 232.297,947.047C231.968,955.799 233.337,964.933 236.355,974.42L236.382,974.597L236.965,981.574C236.99,981.7 236.965,981.853 236.89,981.981L230.825,993.877L231.79,1001.03L233.693,1000.86L232.424,993.777L237.675,983.07C237.346,979.342 237.143,975.739 237.016,972.263C234.427,965.566 233.489,956.002 234.2,943.597C234.427,935.706 236.762,927.564 241.176,919.166L236.813,895.699Z" style="fill:rgb(128,130,133);fill-rule:nonzero;"/>
        </g>
        <g transform="matrix(4.16667,0,0,4.16667,0,0)">
            <path d="M235.722,901.332L234.733,901.179C233.945,905.061 233.286,908.943 232.805,912.823C233.921,913.104 234.91,913.077 235.773,912.747C236.406,912.469 236.99,912.011 237.498,911.352L235.722,901.332Z" style="fill:rgb(237,238,239);fill-rule:nonzero;"/>
        </g>
        <g transform="matrix(4.16667,0,0,4.16667,0,0)">
            <path d="M234.733,901.179L231.587,900.646C228.67,916.325 227.273,932.129 227.401,948.087L231.536,947.021C231.587,945.372 231.713,943.749 231.891,942.151C231.484,936.188 231.435,930.252 231.763,924.291C231.942,920.46 232.297,916.653 232.805,912.823C233.286,908.943 233.945,905.061 234.733,901.18L234.733,901.179Z" style="fill:rgb(209,211,212);fill-rule:nonzero;"/>
        </g>
        <g transform="matrix(4.16667,0,0,4.16667,0,0)">
            <path d="M235.773,912.747C234.91,913.077 233.921,913.104 232.805,912.823C232.297,916.653 231.942,920.46 231.763,924.291L233.618,925.331L236.864,917.771L235.773,912.747Z" style="fill:rgb(187,110,81);fill-rule:nonzero;"/>
        </g>
        <g transform="matrix(4.16667,0,0,4.16667,0,0)">
            <path d="M238.842,918.836L237.498,911.352C236.99,912.011 236.406,912.469 235.773,912.747L236.864,917.771L233.618,925.331L235.569,926.397C236.509,923.834 237.598,921.322 238.842,918.836Z" style="fill:rgb(141,83,63);fill-rule:nonzero;"/>
        </g>
        <g transform="matrix(4.16667,0,0,4.16667,0,0)">
            <path d="M233.618,925.331L231.763,924.291C231.435,930.252 231.484,936.188 231.891,942.151C232.475,936.746 233.693,931.495 235.569,926.397L233.618,925.331Z" style="fill:rgb(237,238,239);fill-rule:nonzero;"/>
        </g>
        <g transform="matrix(4.16667,0,0,4.16667,0,0)">
            <path d="M255.661,1001.74C254.85,1002.15 254.039,1002.53 253.202,1002.86L249.421,1008.59L245.818,1007.81L248.304,1004.26C245.59,1004.76 242.699,1004.89 239.654,1004.63C238.107,1004.51 236.533,1004.28 234.91,1003.95C236.128,1004.43 237.067,1005.01 237.727,1005.7L245.818,1006.54L244.17,1010.75L256.551,1011.74C258.047,1007.15 260.023,1003.77 262.487,1001.64L259.669,1001.36L254.495,1009.68L251.247,1008.97L255.661,1001.74Z" style="fill:rgb(141,83,63);fill-rule:nonzero;"/>
        </g>
        <g transform="matrix(4.16667,0,0,4.16667,0,0)">
            <path d="M256.879,1001.08C256.474,1001.31 256.068,1001.51 255.661,1001.74L251.247,1008.97L254.495,1009.68L259.669,1001.36L256.879,1001.08Z" style="fill:rgb(237,238,239);fill-rule:nonzero;"/>
        </g>
        <g transform="matrix(4.16667,0,0,4.16667,0,0)">
            <path d="M245.818,1007.81L249.421,1008.59L253.202,1002.86C251.627,1003.47 250.005,1003.92 248.304,1004.26L245.818,1007.81Z" style="fill:rgb(237,238,239);fill-rule:nonzero;"/>
        </g>
        <g transform="matrix(4.16667,0,0,4.16667,0,0)">
            <path d="M258.047,1012.17C257.54,1012.04 257.032,1011.89 256.551,1011.74L244.17,1010.75L238.715,1010.32L232.957,1009.86L232.957,1014.58C241.101,1014.05 250.207,1015.52 260.329,1018.99C273.572,1022.16 285.725,1021.63 296.76,1017.42C296.405,1016.08 296.024,1014.78 295.592,1013.56C283.086,1016.13 270.553,1015.65 258.047,1012.17Z" style="fill:rgb(209,211,212);fill-rule:nonzero;"/>
        </g>
        <g transform="matrix(4.16667,0,0,4.16667,0,0)">
            <path d="M256.551,1011.74C257.032,1011.89 257.54,1012.04 258.047,1012.17C268.473,1014.27 278.622,1014.05 288.515,1011.46C286.206,1003.57 281.335,999.003 273.902,997.811L273.902,997.708C273.724,997.708 273.572,997.708 273.42,997.735C268.956,997.887 265.302,999.181 262.487,1001.64C260.023,1003.77 258.047,1007.15 256.551,1011.74Z" style="fill:rgb(237,238,239);fill-rule:nonzero;"/>
        </g>
        <g transform="matrix(4.16667,0,0,4.16667,0,0)">
            <path d="M244.17,1010.75L245.818,1006.54L237.727,1005.7C238.869,1006.92 239.197,1008.47 238.715,1010.32L244.17,1010.75Z" style="fill:rgb(187,110,81);fill-rule:nonzero;"/>
        </g>
        <g transform="matrix(4.16667,0,0,4.16667,0,0)">
            <path d="M234.91,1003.95C234.277,1003.82 233.618,1003.67 232.957,1003.49L232.957,1009.86L238.715,1010.32C239.197,1008.47 238.869,1006.92 237.727,1005.7C237.067,1005.01 236.128,1004.43 234.91,1003.95Z" style="fill:rgb(237,238,239);fill-rule:nonzero;"/>
        </g>
        <g transform="matrix(4.16667,0,0,4.16667,0,0)">
            <path d="M273.902,997.709L273.902,997.811C281.335,999.003 286.206,1003.57 288.515,1011.46C278.622,1014.05 268.473,1014.27 258.047,1012.17C270.553,1015.65 283.086,1016.13 295.592,1013.56C291.686,1002.58 284.456,997.303 273.902,997.709Z" style="fill:rgb(220,221,222);fill-rule:nonzero;"/>
        </g>
        <g transform="matrix(4.16667,0,0,4.16667,0,0)">
            <path d="M238.752,748.228C238.93,748.329 239.083,748.482 239.208,748.684C239.691,749.268 239.92,750.003 239.92,750.84C239.92,751.703 239.691,752.413 239.208,752.997C238.778,753.606 238.219,753.91 237.534,753.91C236.85,753.91 236.291,753.606 235.81,752.997C235.377,752.464 235.15,751.805 235.099,751.069C234.618,751.652 234.211,752.362 233.856,753.199C235.226,754.418 236.597,755.203 237.99,755.584C238.574,755.381 239.058,755 239.488,754.418C240.198,753.53 240.554,752.464 240.554,751.221C240.554,750.003 240.198,748.938 239.488,748.025L239.488,747.999C239.233,748.051 238.981,748.126 238.752,748.228Z" style="fill:rgb(119,34,33);fill-rule:nonzero;"/>
        </g>
        <g transform="matrix(4.16667,0,0,4.16667,0,0)">
            <path d="M239.208,748.684C239.083,748.482 238.93,748.329 238.752,748.228C238.981,748.126 239.233,748.051 239.488,747.999C240.351,747.821 241.29,747.796 242.304,747.948C242.71,747.974 243.115,748.075 243.522,748.202L243.522,746.883C241.594,746.427 239.92,746.503 238.499,747.086C238.018,747.289 237.585,747.543 237.205,747.847C236.419,748.405 235.758,749.167 235.176,750.156C234.642,750.992 234.211,752.008 233.856,753.199C234.211,752.362 234.618,751.652 235.099,751.069C235.15,751.805 235.377,752.464 235.81,752.997C236.291,753.606 236.85,753.91 237.534,753.91C238.219,753.91 238.778,753.606 239.208,752.997C239.691,752.413 239.92,751.703 239.92,750.84C239.92,750.003 239.691,749.268 239.208,748.684ZM238.499,748.329C238.625,748.405 238.752,748.532 238.88,748.684C239.133,749.014 239.261,749.419 239.261,749.902C239.261,750.384 239.133,750.765 238.88,751.094C238.625,751.424 238.296,751.576 237.915,751.576C237.534,751.576 237.23,751.424 236.952,751.094C236.672,750.765 236.545,750.384 236.545,749.902C236.545,749.725 236.571,749.572 236.621,749.445C237.179,748.963 237.814,748.583 238.499,748.329Z" style="fill:rgb(35,31,32);fill-rule:nonzero;"/>
        </g>
        <g transform="matrix(4.16667,0,0,4.16667,0,0)">
            <path d="M238.88,748.684C238.752,748.532 238.625,748.405 238.499,748.329C237.814,748.583 237.179,748.963 236.621,749.445C236.571,749.572 236.545,749.725 236.545,749.902C236.545,750.384 236.672,750.765 236.952,751.094C237.23,751.424 237.534,751.576 237.915,751.576C238.296,751.576 238.625,751.424 238.88,751.094C239.133,750.765 239.261,750.384 239.261,749.902C239.261,749.419 239.133,749.014 238.88,748.684Z" style="fill:white;fill-rule:nonzero;"/>
        </g>
        <g transform="matrix(4.16667,0,0,4.16667,0,0)">
            <path d="M239.488,747.999L239.488,748.025C240.198,748.938 240.554,750.003 240.554,751.221C240.554,752.464 240.198,753.53 239.488,754.418C239.058,755 238.574,755.381 237.99,755.584C239.539,755.99 241.061,755.89 242.583,755.255C243.344,752.946 243.242,750.511 242.304,747.948C241.29,747.796 240.351,747.821 239.488,747.999Z" style="fill:white;fill-rule:nonzero;"/>
        </g>
        <g transform="matrix(4.16667,0,0,4.16667,0,0)">
            <path d="M233.856,753.199C234.389,754.164 235.022,754.925 235.708,755.509C237.763,757.157 240.477,757.157 243.902,755.534L243.902,754.544C243.472,754.823 243.04,755.052 242.583,755.255C241.061,755.89 239.539,755.99 237.99,755.584C236.597,755.203 235.226,754.418 233.856,753.199Z" style="fill:rgb(179,132,108);fill-rule:nonzero;"/>
        </g>
        <g transform="matrix(4.16667,0,0,4.16667,0,0)">
            <path d="M243.776,742.368L243.776,739.881C239.03,738.283 235.15,740.464 232.182,746.477C235.682,743.153 239.539,741.783 243.776,742.368Z" style="fill:rgb(35,31,32);fill-rule:nonzero;"/>
        </g>
        <g transform="matrix(4.16667,0,0,4.16667,0,0)">
            <path d="M260.292,748.988C260.57,749.039 260.9,749.114 261.229,749.192L261.229,747.999C259.733,747.568 258.463,747.644 257.374,748.202C256.993,748.379 256.663,748.583 256.384,748.861C256.104,749.141 255.826,749.471 255.572,749.826C255.497,750.105 255.445,750.384 255.419,750.663C255.369,750.789 255.344,750.942 255.319,751.119C255.268,751.348 255.242,751.576 255.218,751.831C255.191,751.982 255.141,752.159 255.116,752.362C255.09,752.641 255.039,752.921 255.015,753.199C255.09,753.378 255.165,753.58 255.293,753.758C255.674,754.316 256.104,754.596 256.637,754.596C257.144,754.596 257.577,754.316 257.932,753.758C258.26,753.199 258.439,752.515 258.439,751.729C258.439,750.942 258.26,750.257 257.932,749.673C257.805,749.495 257.677,749.344 257.577,749.217C257.754,749.167 257.932,749.114 258.161,749.065C258.794,748.887 259.504,748.861 260.292,748.989L260.292,748.988ZM257.374,749.344C257.449,749.419 257.551,749.546 257.652,749.673C257.855,750.003 257.958,750.409 257.958,750.841C257.958,751.273 257.855,751.628 257.652,751.956C257.474,752.262 257.221,752.413 256.892,752.413C256.612,752.413 256.384,752.262 256.156,751.956C255.978,751.628 255.903,751.273 255.903,750.841C255.903,750.689 255.903,750.535 255.927,750.384C256.333,749.953 256.815,749.623 257.374,749.344Z" style="fill:rgb(35,31,32);fill-rule:nonzero;"/>
        </g>
        <g transform="matrix(4.16667,0,0,4.16667,0,0)">
            <path d="M257.652,749.673C257.551,749.546 257.449,749.42 257.374,749.344C256.815,749.623 256.333,749.953 255.927,750.384C255.903,750.535 255.903,750.689 255.903,750.841C255.903,751.273 255.978,751.628 256.156,751.957C256.384,752.262 256.612,752.413 256.892,752.413C257.221,752.413 257.474,752.262 257.652,751.957C257.855,751.628 257.958,751.273 257.958,750.841C257.958,750.41 257.855,750.003 257.652,749.673Z" style="fill:white;fill-rule:nonzero;"/>
        </g>
        <g transform="matrix(4.16667,0,0,4.16667,0,0)">
            <path d="M257.577,749.217C257.677,749.344 257.805,749.495 257.932,749.673C258.26,750.257 258.439,750.942 258.439,751.729C258.439,752.515 258.26,753.199 257.932,753.758C257.577,754.316 257.144,754.596 256.637,754.596C256.104,754.596 255.674,754.316 255.293,753.758C255.165,753.58 255.09,753.377 255.015,753.199C254.938,753.783 254.887,754.366 254.861,754.95L254.861,755C255.572,755.559 256.282,755.965 256.993,756.193C257.398,755.99 257.78,755.636 258.161,755.103C258.668,754.265 258.92,753.251 258.92,752.059C258.92,750.916 258.668,749.927 258.161,749.09L258.161,749.065C257.932,749.114 257.754,749.167 257.577,749.217Z" style="fill:rgb(119,34,33);fill-rule:nonzero;"/>
        </g>
        <g transform="matrix(4.16667,0,0,4.16667,0,0)">
            <path d="M258.161,749.065L258.161,749.09C258.668,749.927 258.92,750.916 258.92,752.059C258.92,753.251 258.668,754.265 258.161,755.103C257.78,755.636 257.398,755.99 256.993,756.193C258.186,756.549 259.327,756.446 260.469,755.863C261.078,753.707 261.026,751.398 260.292,748.988C259.504,748.861 258.794,748.887 258.161,749.065Z" style="fill:white;fill-rule:nonzero;"/>
        </g>
        <g transform="matrix(4.16667,0,0,4.16667,0,0)">
            <path d="M255.572,749.826C255.953,747.974 256.51,746.096 257.221,744.168C255.75,746.908 254.786,749.649 254.329,752.388C254.279,752.566 254.253,752.769 254.228,752.997L254.228,753.072C254.176,753.199 254.151,753.353 254.125,753.479C254.101,753.707 254.076,753.961 254.05,754.215L254.05,754.316L254.024,754.418L254.024,754.469C253.999,754.9 253.975,755.356 253.975,755.787L256.612,762.891C256.104,764.286 255.268,765.555 254.101,766.671C255.546,766.29 256.917,765.022 258.161,762.891C257.78,760.912 256.815,758.68 255.293,756.193C256.866,757.664 258.946,757.64 261.509,756.143L261.509,755.178C261.178,755.458 260.849,755.686 260.469,755.863C259.327,756.446 258.186,756.549 256.993,756.193C256.282,755.965 255.572,755.559 254.861,755L254.861,754.95C254.887,754.366 254.938,753.783 255.015,753.199C255.039,752.921 255.09,752.641 255.116,752.362C255.141,752.159 255.191,751.982 255.218,751.829C255.242,751.576 255.268,751.348 255.319,751.119C255.344,750.942 255.369,750.789 255.419,750.663C255.445,750.384 255.497,750.105 255.572,749.826Z" style="fill:rgb(179,132,108);fill-rule:nonzero;"/>
        </g>
        <g transform="matrix(4.16667,0,0,4.16667,0,0)">
            <path d="M260.088,739.628C258.996,741.15 258.032,742.672 257.221,744.168C260.596,742.418 263.943,742.418 267.317,744.168C265.822,740.997 263.412,739.501 260.088,739.628Z" style="fill:rgb(35,31,32);fill-rule:nonzero;"/>
        </g>
        <g transform="matrix(4.16667,0,0,4.16667,0,0)">
            <path d="M248.976,764.818C249.077,763.627 249.332,762.638 249.712,761.825C248.418,762.916 247.834,764.209 247.962,765.733C249.18,766.062 250.397,766.062 251.615,765.733C250.575,765.656 249.687,765.352 248.976,764.818Z" style="fill:rgb(179,132,108);fill-rule:nonzero;"/>
        </g>
        <g transform="matrix(4.16667,0,0,4.16667,0,0)">
            <path d="M244.334,776.742C245.476,777.579 246.871,777.884 248.52,777.63C247.1,776.971 246.06,776.387 245.424,775.855L244.334,776.742Z" style="fill:rgb(179,132,108);fill-rule:nonzero;"/>
        </g>
        <g transform="matrix(4.16667,0,0,4.16667,0,0)">
            <path d="M238.854,766.9C239.336,766.67 239.843,766.545 240.376,766.468C238.195,765.199 237.027,765.758 236.85,768.116C237.179,767.838 237.483,767.585 237.814,767.407C244.663,775.753 250.575,777.529 255.546,772.759C249.509,775.777 243.954,773.825 238.854,766.9Z" style="fill:rgb(179,132,108);fill-rule:nonzero;"/>
        </g>
    </g>
</svg>
