<?xml version="1.0" encoding="UTF-8" standalone="no"?>
<!DOCTYPE svg PUBLIC "-//W3C//DTD SVG 1.1//EN" "http://www.w3.org/Graphics/SVG/1.1/DTD/svg11.dtd">
<svg width="100%" height="100%" viewBox="0 0 455 917" version="1.1" xmlns="http://www.w3.org/2000/svg" xmlns:xlink="http://www.w3.org/1999/xlink" xml:space="preserve" xmlns:serif="http://www.serif.com/" style="fill-rule:evenodd;clip-rule:evenodd;stroke-linejoin:round;stroke-miterlimit:1.41421;">
    <g transform="matrix(1,0,0,1,-46.3958,-1273.89)">
        <g transform="matrix(4.16667,0,0,4.16667,0,0)">
            <path d="M90.964,335.353C89.952,323.007 83.96,317.015 72.95,317.42C71.938,317.42 70.926,317.501 69.914,317.663C69.752,317.096 69.549,316.53 69.266,315.963C68.902,315.153 68.416,314.303 67.809,313.453C67.687,313.331 67.647,313.251 67.566,313.129C66.311,311.712 65.056,310.457 63.76,309.446C55.543,303.009 45.706,304.952 34.21,315.194L34.21,315.234C22.389,330.212 20.567,348.186 28.704,368.993C32.105,376.644 37.124,381.704 43.803,384.214C42.265,385.104 40.686,386.279 39.067,387.776L22.429,400.447L22.389,400.487C17.491,406.479 21.255,415.223 33.602,426.679C33.399,427.205 33.399,427.852 33.643,428.541C32.347,430.363 32.023,431.86 32.671,433.074C33.238,434.289 34.736,435.221 37.124,435.827C36.112,440.766 35.748,447.242 36.031,455.299L36.031,455.42L36.112,455.461C38.743,457.08 41.496,458.295 44.33,459.104C44.208,460.237 44.127,461.371 44.046,462.504C42.954,477.725 42.71,493.069 43.358,508.491L42.548,509.301C38.217,503.552 32.793,501.285 26.235,502.58C18.3,502.945 13.442,508.451 11.742,519.057C11.459,520.554 11.297,522.134 11.135,523.873L11.216,523.994L11.297,524.077C22.753,527.518 34.21,525.614 45.666,518.369L45.706,518.327C48.377,515.778 51.414,514.199 54.774,513.632L54.896,513.551L54.936,513.431C54.814,512.619 54.652,511.85 54.41,511.122C53.6,508.815 52.183,506.67 50.078,504.645C50.199,491.084 50.888,477.483 52.102,463.922C52.223,462.747 52.304,461.655 52.426,460.522C55.584,460.684 58.862,460.399 62.182,459.671C62.627,461.776 63.153,463.961 63.639,466.067C66.716,478.738 70.845,491.651 75.986,504.727C75.338,506.467 74.934,508.207 74.69,509.949C74.529,511 74.448,512.012 74.448,513.065L74.488,513.187L74.65,513.268L83.475,513.916C93.069,524.28 105.254,526.828 120.07,521.486L120.151,521.405L120.192,521.283C120.313,519.583 120.313,517.963 120.192,516.426C119.503,509.301 115.739,503.916 108.897,500.355C101.489,497.237 94.243,499.18 87.118,506.103L84.811,505.01C79.508,492.379 75.055,479.83 71.533,467.322C70.642,464.082 69.793,460.844 69.023,457.647C70.076,457.201 71.128,456.715 72.221,456.231L72.302,456.108L72.342,456.028C70.723,450.28 69.428,444.491 68.294,438.661C70.602,438.135 72.019,437.366 72.585,436.313C73.152,435.221 72.91,433.965 71.816,432.387L81.572,427.367C87.887,423.076 89.588,418.623 86.632,414.049L78.091,398.828C83.637,398.908 88.009,397.37 91.166,394.172C93.757,391.581 95.579,387.938 96.55,383.202C97.117,380.449 97.4,377.332 97.441,373.891L97.4,373.77L97.319,373.689L97.198,373.689L97.077,373.77C92.988,380.004 88.293,382.797 83.03,382.15C79.427,380.854 77.524,378.465 77.16,374.904C76.877,371.26 78.172,366.403 81.168,360.451L81.168,360.411L81.249,360.128L81.289,360.128C82.625,358.469 83.799,356.767 84.852,355.108C86.106,353.084 87.199,351.019 88.09,348.955C89.061,346.567 89.831,344.138 90.316,341.709C90.721,339.644 90.923,337.499 90.964,335.353ZM65.42,409.191C65.663,407.531 66.028,406.155 66.433,405.102C67.647,404.373 68.659,403.605 69.469,402.714L78.212,416.437C76.998,417.326 75.905,418.582 74.853,420.12L69.833,425.141C69.549,424.047 69.023,423.319 68.213,422.914C68.254,420.364 68.011,418.703 67.525,417.975C67.242,417.489 66.877,417.368 66.433,417.489C66.149,417.612 65.825,417.813 65.42,418.218C65.42,417.975 65.38,417.651 65.38,417.408C65.218,415.992 65.137,414.534 65.016,413.036C65.097,411.619 65.218,410.324 65.42,409.191ZM41.698,397.937C41.698,398.14 41.779,398.301 41.779,398.504L41.82,398.545C42.184,399.962 42.913,401.419 44.006,402.835C44.654,403.564 45.382,404.293 46.232,405.062C46.354,405.75 46.435,406.479 46.475,407.167C46.597,408.705 46.637,410.122 46.556,411.579C46.475,412.834 46.313,414.13 46.111,415.344C45.949,415.992 45.828,416.639 45.625,417.326C45.341,416.842 45.099,416.518 44.815,416.356C44.411,416.073 44.046,416.155 43.682,416.518C43.075,417.084 42.508,418.582 41.982,421.012C40.686,420.12 39.553,419.918 38.703,420.405C37.853,420.85 37.286,421.862 36.921,423.44L32.347,412.389L32.307,412.348C31.78,410.203 31.011,408.381 30.081,406.884L41.698,397.937Z" style="fill:rgb(35,31,32);fill-rule:nonzero;"/>
        </g>
        <g transform="matrix(4.16667,0,0,4.16667,0,0)">
            <path d="M87.362,324.033C85.805,321.665 83.761,319.966 81.191,318.913C83.255,320.269 85.016,322.292 86.452,325.003C88.01,327.897 89.204,331.579 90.033,336.01L89.547,339.166C88.415,334.493 86.715,330.487 84.449,327.148C81.556,322.879 77.711,319.702 72.937,317.639C77.165,319.905 80.746,323.365 83.68,327.998C85.602,331.053 87.241,334.614 88.597,338.7C88.9,339.915 88.9,341.027 88.597,342.019L87.403,346.106C86.168,339.814 84.227,334.533 81.576,330.244C78.622,325.489 74.778,321.948 70.064,319.662C74.13,322.272 77.61,326.177 80.503,331.397C83.033,336.031 85.117,341.715 86.715,348.413L85.097,352.317L86.23,352.317C86.836,351.164 87.383,350.011 87.868,348.858C88.859,346.491 89.588,344.103 90.074,341.696C90.499,339.611 90.721,337.508 90.761,335.383C90.377,330.648 89.244,326.865 87.362,324.033Z" style="fill:rgb(35,31,32);fill-rule:nonzero;"/>
        </g>
        <g transform="matrix(4.16667,0,0,4.16667,0,0)">
            <path d="M63.71,311.023C63.974,311.326 64.257,311.65 64.52,311.994C64.581,312.095 64.662,312.197 64.743,312.297C65.208,313.006 65.612,313.734 65.937,314.442C65.997,314.543 66.038,314.664 66.098,314.786C63.893,314.685 61.769,314.765 59.745,315.029C51.551,316.02 44.814,319.743 39.492,326.197C36.316,330.061 33.645,334.917 31.481,340.724C31.055,341.877 30.651,343.051 30.266,344.265C30.246,347.036 30.489,349.707 31.015,352.317L32.391,352.317C31.966,350.112 31.763,347.866 31.743,345.559C34.03,338.316 37.105,332.408 40.929,327.816C47.828,319.541 57.216,315.616 69.093,316.081C68.85,315.534 68.546,315.009 68.202,314.463C68.02,314.159 67.838,313.875 67.636,313.593C67.535,313.491 67.454,313.39 67.373,313.289C66.159,311.852 64.904,310.638 63.609,309.627C60.716,307.381 57.641,306.167 54.343,306.005C56.245,306.43 58.086,307.24 59.846,308.433C60.231,308.696 60.635,308.999 61.02,309.303C49.467,310.193 40.747,314.078 34.859,320.957C34.03,321.908 33.281,322.94 32.573,324.012C28.952,329.515 26.766,336.556 26.038,345.114C26.179,347.603 26.463,349.991 26.867,352.317L28.587,352.317C28.203,350.112 27.919,347.805 27.778,345.438C28.607,335.747 31.359,328.018 35.992,322.252C41.819,314.988 50.661,310.82 62.497,309.728C62.901,310.133 63.306,310.557 63.71,311.023Z" style="fill:rgb(35,31,32);fill-rule:nonzero;"/>
        </g>
        <g transform="matrix(4.16667,0,0,4.16667,0,0)">
            <path d="M69.396,318.185C69.093,318.448 68.789,318.691 68.465,318.954C64.803,321.908 59.705,325.145 53.21,328.666C50.195,329.96 47.545,331.336 45.279,332.773C40.12,336.071 36.923,339.713 35.689,343.739C35.102,345.6 34.96,347.542 35.223,349.546C35.122,349.848 35.062,350.152 35.042,350.456C34.96,351.063 34.981,351.69 35.082,352.317L38.44,352.317C38.319,352.216 38.198,352.115 38.096,351.994C37.793,351.67 37.489,351.265 37.206,350.8C37.226,350.496 37.267,350.213 37.348,349.909C38.703,347.968 40.261,346.126 42.022,344.386C44.308,342.12 46.958,340.016 49.973,338.094C53.109,336.091 56.649,334.27 60.575,332.632C65.127,329.859 68.04,326.966 69.335,323.971C70.954,327.775 73.24,331.802 76.174,336.031C77.165,337.447 78.238,338.883 79.371,340.36C82.163,343.516 83.68,347.502 83.923,352.317L84.813,352.317C84.854,346.673 83.073,341.857 79.452,337.871C78.622,336.941 77.833,336.01 77.085,335.059C73.847,331.033 71.379,327.027 69.699,323C70.023,321.887 70.145,320.775 70.064,319.662C70.023,319.075 69.922,318.489 69.76,317.902C69.618,317.396 69.437,316.87 69.214,316.364L69.173,316.364C69.315,316.951 69.376,317.558 69.396,318.185ZM68.121,321.22L68.081,321.382C67.98,321.705 67.858,322.029 67.716,322.353C66.422,325.347 63.508,328.241 58.956,331.012C55.092,332.611 51.591,334.411 48.476,336.394C45.42,338.337 42.73,340.461 40.403,342.767C39.23,343.921 38.157,345.135 37.166,346.369C37.57,341.757 40.626,337.609 46.311,333.946C48.577,332.47 51.268,331.094 54.363,329.779C60.089,326.703 64.682,323.85 68.121,321.22Z" style="fill:rgb(35,31,32);fill-rule:nonzero;"/>
        </g>
        <g transform="matrix(4.16667,0,0,4.16667,0,0)">
            <path d="M78.136,350.658C78.319,351.205 78.481,351.771 78.602,352.317L81.798,352.317C81.616,351.164 81.293,349.991 80.827,348.837C80.483,349.788 79.856,350.355 78.966,350.577C78.703,350.637 78.44,350.658 78.136,350.658Z" style="fill:rgb(35,31,32);fill-rule:nonzero;"/>
        </g>
        <g transform="matrix(4.16667,0,0,4.16667,0,0)">
            <path d="M84.813,352.317L83.923,352.317C83.963,353.046 83.963,353.794 83.943,354.563L81.718,357.821C82.082,356 82.102,354.158 81.798,352.317L78.602,352.317C79.998,358.387 77.711,363.425 71.743,367.431C70.206,368.524 68.688,369.434 67.191,370.142C65.39,371.012 63.589,371.598 61.829,371.902L61.809,373.258L61.688,382.706C61.91,383.01 62.213,383.253 62.638,383.434C62.901,383.556 63.225,383.658 63.569,383.738C64.075,383.839 64.641,383.921 65.289,383.941L65.491,383.921C68.91,383.475 71.419,385.559 72.997,390.152L77.731,398.609C83.397,398.751 87.828,397.234 91.024,394.036C93.574,391.468 95.334,387.845 96.325,383.172C96.872,380.44 97.175,377.345 97.215,373.885C96.69,374.674 96.164,375.423 95.617,376.111C95.476,379.126 94.788,381.351 93.574,382.828C90.296,385.033 86.29,385.66 81.556,384.669C80.726,384.487 79.876,384.265 79.006,384.001C78.663,383.779 78.298,383.556 77.954,383.333C76.599,381.938 75.526,380.461 74.697,378.923C73.058,375.929 72.39,372.712 72.694,369.252L76.761,365.549C75.79,369.333 75.526,372.894 75.972,376.273C76.153,376.819 76.397,377.324 76.741,377.83C77.61,379.166 79.027,380.36 80.949,381.432C79.29,380.44 78.136,379.105 77.509,377.406C76.073,373.562 77.206,367.876 80.949,360.35C80.989,360.228 81.03,360.106 81.09,360.006C82.405,358.346 83.599,356.688 84.651,355.009C85.218,354.118 85.744,353.228 86.23,352.317L85.097,352.317L84.793,353.005C84.813,352.783 84.813,352.54 84.813,352.317ZM67.393,372.105L71.318,370.425C70.974,373.562 71.703,376.617 73.543,379.55C74.757,381.512 76.457,383.434 78.663,385.297C79.532,385.822 80.524,386.206 81.596,386.47C83.356,386.854 85.4,386.875 87.727,386.531C89.567,386.47 91.389,386.004 93.189,385.135L89.082,392.783C86.573,393.167 84.105,392.742 81.657,391.528C78.562,389.991 75.546,387.178 72.573,383.071C72.066,382.322 71.581,381.594 71.136,380.866C69.417,378.012 68.162,375.079 67.393,372.105Z" style="fill:rgb(35,31,32);fill-rule:nonzero;"/>
        </g>
        <g transform="matrix(4.16667,0,0,4.16667,0,0)">
            <path d="M28.587,352.317L26.867,352.317C29.093,365.003 35.122,375.058 44.955,382.484C44.611,382.605 44.247,382.747 43.903,382.909C43.499,383.091 43.074,383.293 42.648,383.516C43.175,383.738 43.701,383.961 44.247,384.143C44.875,383.779 45.481,383.475 46.068,383.233C46.432,383.071 46.796,382.929 47.161,382.807C48.152,382.484 49.103,382.302 50.014,382.261C50.539,382.241 51.045,382.282 51.551,382.363C51.915,382.403 52.279,382.484 52.624,382.585L53.271,372.792L53.372,371.195C52.664,370.931 51.956,370.628 51.247,370.284C50.034,369.434 48.921,368.585 47.909,367.755C43.6,364.214 41.05,360.855 40.281,357.679L40.241,357.517C39.877,355.878 39.978,354.3 40.565,352.762C40.14,352.864 39.735,352.884 39.351,352.783C39.027,352.702 38.724,352.54 38.44,352.317L35.082,352.317C35.345,353.956 36.235,355.656 37.752,357.416L37.793,357.598C38.42,360.876 40.788,364.355 44.935,368.038C45.906,368.908 46.979,369.778 48.152,370.648C48.84,371.012 49.528,371.336 50.236,371.598L49.528,378.134L44.288,373.137C37.813,366.925 33.848,359.986 32.391,352.317L31.015,352.317C32.452,359.46 36.032,365.974 41.718,371.842L49.588,379.894L49.487,381.29C49.386,381.27 49.285,381.229 49.184,381.21C48.86,381.128 48.536,381.067 48.192,381.027C47.808,380.966 47.403,380.947 46.999,380.966C46.412,380.987 45.785,381.088 45.157,381.27C36.174,373.926 30.651,364.275 28.587,352.317Z" style="fill:rgb(35,31,32);fill-rule:nonzero;"/>
        </g>
        <g transform="matrix(4.16667,0,0,4.16667,0,0)">
            <path d="M63.71,311.023C63.306,310.557 62.901,310.133 62.497,309.728C50.661,310.82 41.819,314.988 35.992,322.252C31.359,328.018 28.607,335.747 27.778,345.438C28.729,360.633 34.515,372.59 45.157,381.27C45.785,381.088 46.412,380.987 46.999,380.966C47.403,380.947 47.808,380.966 48.192,381.027C48.536,381.067 48.86,381.128 49.184,381.21C49.285,381.229 49.386,381.27 49.487,381.29L49.588,379.894L41.718,371.842C33.969,363.85 30.145,354.664 30.266,344.265C30.651,343.051 31.055,341.877 31.481,340.724C33.645,334.917 36.316,330.061 39.492,326.197C44.814,319.743 51.551,316.02 59.745,315.029C61.769,314.765 63.893,314.685 66.098,314.786C66.038,314.664 65.997,314.543 65.937,314.442C65.612,313.734 65.208,313.006 64.743,312.297C64.662,312.197 64.581,312.095 64.52,311.994C64.257,311.65 63.974,311.326 63.71,311.023ZM28.385,345.499L28.385,345.458L28.385,345.438C29.214,335.97 31.885,328.402 36.417,322.737C42.102,315.616 50.722,311.488 62.274,310.355C62.537,310.638 62.82,310.922 63.084,311.225C56.71,311.468 50.742,313.39 45.178,316.971C42.183,318.57 39.553,320.835 37.307,323.729C34.839,326.865 32.816,330.749 31.217,335.403C30.064,338.681 29.457,341.797 29.356,344.77C29.052,347.158 29.194,349.909 29.821,353.026C30.53,356.445 31.683,359.844 33.281,363.262C34.677,366.359 36.68,369.596 39.331,372.975L45.926,380.481C45.724,380.501 45.522,380.542 45.319,380.602C34.981,372.064 29.335,360.37 28.385,345.499Z" style="fill:rgb(88,89,91);fill-rule:nonzero;"/>
        </g>
        <g transform="matrix(4.16667,0,0,4.16667,0,0)">
            <path d="M28.385,345.458L28.385,345.499C29.335,360.37 34.981,372.064 45.319,380.602C45.522,380.542 45.724,380.501 45.926,380.481L39.331,372.975C36.68,369.596 34.677,366.359 33.281,363.262C31.683,359.844 30.53,356.445 29.821,353.026C29.194,349.909 29.052,347.158 29.356,344.77C29.457,341.797 30.064,338.681 31.217,335.403C32.816,330.749 34.839,326.865 37.307,323.729C39.553,320.835 42.183,318.57 45.178,316.971C50.742,313.39 56.71,311.468 63.084,311.225C62.82,310.922 62.537,310.638 62.274,310.355C50.722,311.488 42.102,315.616 36.417,322.737C31.885,328.402 29.214,335.97 28.385,345.438L28.385,345.458Z" style="fill:rgb(128,130,133);fill-rule:nonzero;"/>
        </g>
        <g transform="matrix(4.16667,0,0,4.16667,0,0)">
            <path d="M93.189,385.135C91.389,386.004 89.567,386.47 87.727,386.531C85.4,386.875 83.356,386.854 81.596,386.47C80.524,386.206 79.532,385.822 78.663,385.297C76.457,383.434 74.757,381.512 73.543,379.55C71.703,376.617 70.974,373.562 71.318,370.425L67.393,372.105C68.162,375.079 69.417,378.012 71.136,380.866C71.581,381.594 72.066,382.322 72.573,383.071C75.546,387.178 78.562,389.991 81.657,391.528C84.105,392.742 86.573,393.167 89.082,392.783L93.189,385.135Z" style="fill:rgb(88,89,91);fill-rule:nonzero;"/>
        </g>
        <g transform="matrix(4.16667,0,0,4.16667,0,0)">
            <path d="M68.081,321.382L68.121,321.22C64.682,323.85 60.089,326.703 54.363,329.779C51.268,331.094 48.577,332.47 46.311,333.946C40.626,337.609 37.57,341.757 37.166,346.369C38.157,345.135 39.23,343.921 40.403,342.767C42.73,340.461 45.42,338.337 48.476,336.394C51.591,334.411 55.092,332.611 58.956,331.012C63.508,328.241 66.422,325.347 67.716,322.353C67.858,322.029 67.98,321.705 68.081,321.382ZM54.606,330.345L54.647,330.324C59.482,327.715 63.508,325.287 66.726,323.021C66.341,323.688 65.876,324.356 65.329,325.024C59.502,327.937 53.554,331.357 47.504,335.282C45.946,336.293 44.368,337.325 42.79,338.398L39.391,342.929L39.371,342.949C38.987,343.354 38.602,343.759 38.218,344.183C39.29,340.623 42.123,337.366 46.715,334.411C48.941,332.975 51.571,331.619 54.606,330.345Z" style="fill:rgb(88,89,91);fill-rule:nonzero;"/>
        </g>
        <g transform="matrix(4.16667,0,0,4.16667,0,0)">
            <path d="M54.647,330.324L54.606,330.345C51.571,331.619 48.941,332.975 46.715,334.411C42.123,337.366 39.29,340.623 38.218,344.183C38.602,343.759 38.987,343.354 39.371,342.949L39.391,342.929L42.79,338.398C44.368,337.325 45.946,336.293 47.504,335.282C53.554,331.357 59.502,327.937 65.329,325.024C65.876,324.356 66.341,323.688 66.726,323.021C63.508,325.287 59.482,327.715 54.647,330.324Z" style="fill:rgb(128,130,133);fill-rule:nonzero;"/>
        </g>
        <g transform="matrix(4.16667,0,0,4.16667,0,0)">
            <path d="M61.02,309.303C60.635,308.999 60.231,308.696 59.846,308.433C58.086,307.24 56.245,306.43 54.343,306.005C48.355,305.681 41.698,308.797 34.354,315.373C33.645,316.283 32.978,317.194 32.351,318.104C22.437,332.489 21.283,349.424 28.891,368.908C32.067,376.03 36.64,380.906 42.648,383.516C43.074,383.293 43.499,383.091 43.903,382.909C44.247,382.747 44.611,382.605 44.955,382.484C33.321,373.703 27.029,361.24 26.038,345.114C26.766,336.556 28.952,329.515 32.573,324.012C33.281,322.94 34.03,321.908 34.859,320.957C40.747,314.078 49.467,310.193 61.02,309.303ZM54.242,306.612C54.869,306.754 55.476,306.936 56.083,307.158C50.924,308.069 45.825,310.031 40.788,313.046C38.076,314.24 35.608,316.324 33.362,319.257C32.532,320.35 31.723,321.564 30.954,322.899C28.506,327.128 26.746,332.227 25.633,338.195C25.168,340.542 25.107,342.788 25.451,344.953L25.431,345.156L25.431,345.216L25.451,345.317C25.552,346.854 25.694,348.352 25.876,349.829L26.22,355.413C27.374,361.422 29.457,367.249 32.472,372.894C35.486,376.86 38.865,380.177 42.628,382.848C36.902,380.259 32.512,375.544 29.457,368.685L29.457,368.665C21.951,349.445 23.064,332.753 32.755,318.57C33.382,317.639 34.07,316.728 34.778,315.818C41.92,309.425 48.415,306.349 54.242,306.612Z" style="fill:rgb(88,89,91);fill-rule:nonzero;"/>
        </g>
        <g transform="matrix(4.16667,0,0,4.16667,0,0)">
            <path d="M56.083,307.158C55.476,306.936 54.869,306.754 54.242,306.612C48.415,306.349 41.92,309.425 34.778,315.818C34.07,316.728 33.382,317.639 32.755,318.57C23.064,332.753 21.951,349.445 29.457,368.665L29.457,368.685C32.512,375.544 36.902,380.259 42.628,382.848C38.865,380.177 35.486,376.86 32.472,372.894C29.457,367.249 27.374,361.422 26.22,355.413L25.876,349.829C25.694,348.352 25.552,346.854 25.451,345.317L25.431,345.216L25.431,345.156L25.431,345.074L25.451,344.953C25.107,342.788 25.168,340.542 25.633,338.195C26.746,332.227 28.506,327.128 30.954,322.899C31.723,321.564 32.532,320.35 33.362,319.257C35.608,316.324 38.076,314.24 40.788,313.046C45.825,310.031 50.924,308.069 56.083,307.158Z" style="fill:rgb(128,130,133);fill-rule:nonzero;"/>
        </g>
        <g transform="matrix(4.16667,0,0,4.16667,0,0)">
            <path d="M89.547,339.166L90.033,336.01C89.204,331.579 88.01,327.897 86.452,325.003C85.016,322.292 83.255,320.269 81.191,318.913C78.865,317.963 76.113,317.538 72.937,317.639C77.711,319.702 81.556,322.879 84.449,327.148C86.715,330.487 88.415,334.493 89.547,339.166Z" style="fill:rgb(88,89,91);fill-rule:nonzero;"/>
        </g>
        <g transform="matrix(4.16667,0,0,4.16667,0,0)">
            <path d="M87.403,346.106L88.597,342.019C88.9,341.027 88.9,339.915 88.597,338.7C87.241,334.614 85.602,331.053 83.68,327.998C80.746,323.365 77.165,319.905 72.937,317.639C71.905,317.659 70.853,317.76 69.76,317.902C69.922,318.489 70.023,319.075 70.064,319.662C74.778,321.948 78.622,325.489 81.576,330.244C84.227,334.533 86.168,339.814 87.403,346.106Z" style="fill:rgb(88,89,91);fill-rule:nonzero;"/>
        </g>
        <g transform="matrix(4.16667,0,0,4.16667,0,0)">
            <path d="M93.574,382.828C94.788,381.351 95.476,379.126 95.617,376.111C91.875,380.866 87.646,382.949 82.931,382.343C82.507,382.2 82.122,382.039 81.738,381.856L81.515,381.736C81.313,381.634 81.131,381.533 80.949,381.432C79.027,380.36 77.61,379.166 76.741,377.83C76.396,377.324 76.153,376.819 75.972,376.273C75.526,372.894 75.79,369.333 76.761,365.549L72.694,369.252C72.39,372.712 73.058,375.929 74.697,378.923C75.526,380.461 76.599,381.938 77.954,383.333C78.298,383.556 78.663,383.779 79.006,384.001C79.876,384.265 80.726,384.487 81.556,384.669C86.29,385.66 90.296,385.033 93.574,382.828Z" style="fill:rgb(88,89,91);fill-rule:nonzero;"/>
        </g>
        <g transform="matrix(4.16667,0,0,4.16667,0,0)">
            <path d="M69.214,316.364L69.133,316.162L69.093,316.081C57.216,315.616 47.828,319.541 40.929,327.816C37.105,332.408 34.03,338.316 31.743,345.559C31.784,355.96 35.972,365.144 44.288,373.137L49.528,378.134L50.236,371.598C49.528,371.336 48.84,371.012 48.152,370.648C46.979,369.778 45.906,368.908 44.935,368.038C40.788,364.355 38.42,360.876 37.793,357.598L37.752,357.416C35.648,354.968 34.738,352.661 35.042,350.456C35.062,350.152 35.122,349.848 35.223,349.546C34.96,347.542 35.102,345.6 35.689,343.739C36.923,339.713 40.12,336.071 45.279,332.773C47.545,331.336 50.195,329.96 53.21,328.666C59.705,325.145 64.803,321.908 68.465,318.954C68.789,318.691 69.093,318.448 69.396,318.185C69.376,317.558 69.315,316.951 69.173,316.364L69.214,316.364ZM68.627,316.688C68.688,316.951 68.728,317.214 68.749,317.477C59.948,318.448 52.279,321.463 45.785,326.541C44.55,327.391 43.397,328.342 42.325,329.414C38.906,332.813 36.174,337.366 34.151,343.051L33.14,347.3C33.2,349.707 33.503,352.135 34.009,354.543C35.163,358.408 37.064,362.11 39.735,365.651L49.002,376.819L44.712,372.712C36.539,364.862 32.411,355.838 32.351,345.641C34.596,338.559 37.59,332.773 41.334,328.301C48.051,320.229 57.155,316.344 68.627,316.688ZM34.434,350.416L34.434,350.375L34.454,350.375L34.434,350.416Z" style="fill:rgb(88,89,91);fill-rule:nonzero;"/>
        </g>
        <g transform="matrix(4.16667,0,0,4.16667,0,0)">
            <path d="M68.749,317.477C68.728,317.214 68.688,316.951 68.627,316.688C57.155,316.344 48.051,320.229 41.334,328.301C37.59,332.773 34.596,338.559 32.351,345.641C32.411,355.838 36.539,364.862 44.712,372.712L49.002,376.819L39.735,365.651C37.064,362.11 35.163,358.408 34.009,354.543C33.503,352.135 33.2,349.707 33.14,347.3L34.151,343.051C36.174,337.366 38.906,332.813 42.325,329.414C43.397,328.342 44.55,327.391 45.785,326.541C52.279,321.463 59.948,318.448 68.749,317.477Z" style="fill:rgb(128,130,133);fill-rule:nonzero;"/>
        </g>
        <g transform="matrix(4.16667,0,0,4.16667,0,0)">
            <path d="M70.064,319.662C70.145,320.775 70.023,321.887 69.699,323C71.379,327.027 73.847,331.033 77.085,335.059C77.833,336.01 78.622,336.941 79.452,337.871C83.215,342.019 84.995,347.057 84.793,353.005L86.715,348.413C85.117,341.715 83.033,336.031 80.503,331.397C77.61,326.177 74.13,322.272 70.064,319.662Z" style="fill:rgb(88,89,91);fill-rule:nonzero;"/>
        </g>
        <g transform="matrix(4.16667,0,0,4.16667,0,0)">
            <path d="M75.749,340.886C75.81,340.987 75.891,341.068 75.992,341.169L76.113,341.311C76.234,341.453 76.356,341.595 76.477,341.736C76.579,341.877 76.7,342.019 76.821,342.16C78.622,344.407 79.957,346.632 80.827,348.837C82.021,351.872 82.304,354.867 81.718,357.821L83.943,354.563C84.125,348.736 82.587,344.002 79.371,340.36C78.238,338.883 77.165,337.447 76.174,336.031C73.24,331.802 70.954,327.775 69.335,323.971C69.153,329.131 70.65,333.966 73.867,338.499C74.434,339.308 75.061,340.097 75.749,340.886Z" style="fill:rgb(88,89,91);fill-rule:nonzero;"/>
        </g>
        <g transform="matrix(4.16667,0,0,4.16667,0,0)">
            <path d="M75.992,341.169C75.891,341.068 75.81,340.987 75.749,340.886C75.061,340.097 74.434,339.308 73.867,338.499C70.65,333.966 69.153,329.131 69.335,323.971C68.04,326.966 65.127,329.859 60.575,332.632C56.649,334.27 53.109,336.091 49.973,338.094C46.958,340.016 44.308,342.12 42.022,344.386C42.204,345.114 42.325,345.843 42.366,346.572C45.502,344.325 48.759,342.302 52.138,340.542C55.901,338.579 59.826,336.9 63.933,335.525C65.612,338.984 68.728,341.675 73.281,343.577L76.113,352.803C77.165,361.988 71.055,367.755 57.803,370.122C57.661,370.142 57.54,370.142 57.418,370.163C53.817,370.526 50.641,369.718 47.909,367.755C48.921,368.585 50.034,369.434 51.247,370.284C51.956,370.628 52.664,370.931 53.372,371.195C56.144,372.165 58.956,372.408 61.829,371.902C63.589,371.598 65.39,371.012 67.191,370.142C68.688,369.434 70.206,368.524 71.743,367.431C78.238,363.061 80.382,357.477 78.136,350.658L78.096,350.536C76.983,347.178 76.335,344.103 76.113,341.311L75.992,341.169Z" style="fill:rgb(190,134,99);fill-rule:nonzero;"/>
        </g>
        <g transform="matrix(4.16667,0,0,4.16667,0,0)">
            <path d="M76.113,341.311C76.335,344.103 76.983,347.178 78.096,350.536L78.136,350.658C78.44,350.658 78.703,350.637 78.966,350.577C78.096,348.736 77.509,346.915 77.165,345.074C76.983,344.103 76.862,343.132 76.821,342.16C76.7,342.019 76.579,341.877 76.477,341.736C76.356,341.595 76.234,341.453 76.113,341.311Z" style="fill:rgb(126,94,78);fill-rule:nonzero;"/>
        </g>
        <g transform="matrix(4.16667,0,0,4.16667,0,0)">
            <path d="M76.821,342.16C76.862,343.132 76.983,344.103 77.165,345.074L79.633,349.019L78.966,350.577C79.856,350.355 80.483,349.788 80.827,348.837C79.957,346.632 78.622,344.407 76.821,342.16Z" style="fill:rgb(190,134,99);fill-rule:nonzero;"/>
        </g>
        <g transform="matrix(4.16667,0,0,4.16667,0,0)">
            <path d="M78.966,350.577L79.633,349.019L77.165,345.074C77.509,346.915 78.096,348.736 78.966,350.577Z" style="fill:rgb(211,159,130);fill-rule:nonzero;"/>
        </g>
        <g transform="matrix(4.16667,0,0,4.16667,0,0)">
            <path d="M73.281,343.577C68.728,341.675 65.612,338.984 63.933,335.525C59.826,336.9 55.901,338.579 52.138,340.542C48.759,342.302 45.502,344.325 42.366,346.572C42.466,348.696 41.88,350.76 40.565,352.762C39.978,354.3 39.877,355.878 40.241,357.517L40.281,357.679C41.05,360.855 43.599,364.214 47.909,367.755C50.641,369.718 53.817,370.526 57.418,370.163C57.54,370.142 57.661,370.142 57.803,370.122C71.055,367.755 77.165,361.988 76.113,352.803L73.281,343.577ZM40.888,357.557L40.848,357.395C40.504,355.899 40.605,354.442 41.111,353.046C41.253,352.823 41.394,352.58 41.536,352.358C40.929,358.893 44.895,364.598 53.433,369.434C51.551,369.11 49.831,368.382 48.273,367.269L48.293,367.289C44.106,363.85 41.617,360.593 40.868,357.538L40.888,357.557Z" style="fill:rgb(211,159,130);fill-rule:nonzero;"/>
        </g>
        <g transform="matrix(4.16667,0,0,4.16667,0,0)">
            <path d="M40.848,357.395L40.888,357.557L40.868,357.538C41.617,360.593 44.106,363.85 48.293,367.289L48.273,367.269C49.831,368.382 51.551,369.11 53.433,369.434C44.895,364.598 40.929,358.893 41.536,352.358C41.394,352.58 41.253,352.823 41.111,353.046C40.605,354.442 40.504,355.899 40.848,357.395Z" style="fill:rgb(245,215,190);fill-rule:nonzero;"/>
        </g>
        <g transform="matrix(4.16667,0,0,4.16667,0,0)">
            <path d="M37.348,349.909C37.267,350.213 37.226,350.496 37.206,350.8C37.489,351.265 37.793,351.67 38.096,351.994L41.718,347.199C41.859,346.329 41.961,345.398 42.022,344.386C40.261,346.126 38.703,347.968 37.348,349.909Z" style="fill:rgb(190,134,99);fill-rule:nonzero;"/>
        </g>
        <g transform="matrix(4.16667,0,0,4.16667,0,0)">
            <path d="M42.022,344.386C41.961,345.398 41.859,346.329 41.718,347.199C41.293,349.606 40.504,351.468 39.351,352.783C39.735,352.884 40.14,352.864 40.565,352.762C41.88,350.76 42.466,348.696 42.366,346.572C42.325,345.843 42.204,345.114 42.022,344.386Z" style="fill:rgb(126,94,78);fill-rule:nonzero;"/>
        </g>
        <g transform="matrix(4.16667,0,0,4.16667,0,0)">
            <path d="M38.096,351.994C38.481,352.398 38.906,352.661 39.351,352.783C40.504,351.468 41.293,349.606 41.718,347.199L38.096,351.994Z" style="fill:rgb(211,159,130);fill-rule:nonzero;"/>
        </g>
        <g transform="matrix(4.16667,0,0,4.16667,0,0)">
            <path d="M44.247,384.143C42.648,385.054 40.969,386.328 39.21,387.926L22.558,400.593C17.985,406.237 21.162,414.35 32.067,424.891L34.05,422.848L33.342,420.116L27.272,403.829C27.859,404.011 28.425,404.315 28.972,404.739L39.168,397.8C38.845,395.716 39.432,393.511 40.929,391.184L46.068,383.233C45.481,383.475 44.875,383.779 44.247,384.143ZM39.634,388.371C41.273,386.875 42.831,385.681 44.328,384.811L42.547,387.562L24.864,401.037C22.194,403.202 21.749,406.762 23.549,411.72C25.754,415.786 28.729,419.732 32.512,423.556L32.047,424.021C21.829,414.026 18.815,406.359 23.003,401.017L39.573,388.412L39.634,388.371Z" style="fill:rgb(211,159,130);fill-rule:nonzero;"/>
        </g>
        <g transform="matrix(4.16667,0,0,4.16667,0,0)">
            <path d="M44.328,384.811C42.831,385.681 41.273,386.875 39.634,388.371L39.573,388.412L23.003,401.017C18.815,406.359 21.829,414.026 32.047,424.021L32.512,423.556C28.729,419.732 25.754,415.786 23.549,411.72C21.749,406.762 22.194,403.202 24.864,401.037L42.547,387.562L44.328,384.811Z" style="fill:rgb(245,215,190);fill-rule:nonzero;"/>
        </g>
        <g transform="matrix(4.16667,0,0,4.16667,0,0)">
            <path d="M44.672,389.687C44.935,389.343 45.238,389.019 45.542,388.675L47.403,386.004L50.013,382.261C49.103,382.302 48.152,382.484 47.161,382.807C46.796,382.929 46.432,383.071 46.068,383.233L40.929,391.184C39.432,393.511 38.845,395.716 39.168,397.8L28.972,404.739C29.498,405.144 30.003,405.65 30.509,406.258L41.839,397.536C41.698,396.465 41.799,395.372 42.123,394.28C42.547,392.762 43.397,391.244 44.672,389.687Z" style="fill:rgb(190,134,99);fill-rule:nonzero;"/>
        </g>
        <g transform="matrix(4.16667,0,0,4.16667,0,0)">
            <path d="M45.542,388.675C45.238,389.019 44.935,389.343 44.672,389.687L45.603,389.869L48.091,386.146L47.403,386.004L45.542,388.675Z" style="fill:rgb(251,229,193);fill-rule:nonzero;"/>
        </g>
        <g transform="matrix(4.16667,0,0,4.16667,0,0)">
            <path d="M52.624,382.585C52.279,382.484 51.915,382.403 51.551,382.363L51.045,386.773L52.036,386.976C52.158,385.62 52.36,384.163 52.624,382.585Z" style="fill:rgb(219,164,53);fill-rule:nonzero;"/>
        </g>
        <g transform="matrix(4.16667,0,0,4.16667,0,0)">
            <path d="M51.551,382.363C51.045,382.282 50.539,382.241 50.013,382.261L47.403,386.004L48.091,386.146L50.135,383.091L48.496,386.227L51.045,386.773L51.551,382.363Z" style="fill:rgb(252,204,81);fill-rule:nonzero;"/>
        </g>
        <g transform="matrix(4.16667,0,0,4.16667,0,0)">
            <path d="M48.091,386.146L48.496,386.227L50.135,383.091L48.091,386.146Z" style="fill:rgb(250,221,166);fill-rule:nonzero;"/>
        </g>
        <g transform="matrix(4.16667,0,0,4.16667,0,0)">
            <path d="M48.496,386.227L48.091,386.146L45.603,389.869L46.513,390.031L48.496,386.227Z" style="fill:rgb(248,241,226);fill-rule:nonzero;"/>
        </g>
        <g transform="matrix(4.16667,0,0,4.16667,0,0)">
            <path d="M46.513,390.031L45.603,389.869L43.863,392.418C43.539,393.106 43.296,393.794 43.134,394.462L44.106,394.624L46.513,390.031Z" style="fill:rgb(250,221,166);fill-rule:nonzero;"/>
        </g>
        <g transform="matrix(4.16667,0,0,4.16667,0,0)">
            <path d="M52.036,386.976C51.895,388.453 51.835,389.808 51.875,391.002C51.936,392.479 52.117,393.753 52.461,394.785C58.228,397.82 60.98,394.968 60.676,386.227L58.652,383.314L59.118,373.541C57.095,373.602 55.152,373.359 53.271,372.792L52.624,382.585C52.36,384.163 52.158,385.62 52.036,386.976ZM53.23,382.686L53.23,382.626L53.837,373.581C54.1,373.642 54.383,373.703 54.647,373.764L54.1,383.152L52.866,385.012C52.967,384.265 53.089,383.495 53.23,382.686Z" style="fill:rgb(211,159,130);fill-rule:nonzero;"/>
        </g>
        <g transform="matrix(4.16667,0,0,4.16667,0,0)">
            <path d="M53.23,382.626L53.23,382.686C53.089,383.495 52.967,384.265 52.866,385.012L54.1,383.152L54.647,373.764C54.383,373.703 54.1,373.642 53.837,373.581L53.23,382.626Z" style="fill:rgb(245,215,190);fill-rule:nonzero;"/>
        </g>
        <g transform="matrix(4.16667,0,0,4.16667,0,0)">
            <path d="M51.875,391.002C51.835,389.808 51.895,388.453 52.036,386.976L51.045,386.773L50.56,390.759L51.875,391.002Z" style="fill:rgb(248,215,153);fill-rule:nonzero;"/>
        </g>
        <g transform="matrix(4.16667,0,0,4.16667,0,0)">
            <path d="M50.56,390.759L51.045,386.773L48.496,386.227L46.513,390.031L50.56,390.759Z" style="fill:rgb(251,229,193);fill-rule:nonzero;"/>
        </g>
        <g transform="matrix(4.16667,0,0,4.16667,0,0)">
            <path d="M51.875,391.002L50.56,390.759C50.377,392.458 50.62,394.158 51.268,395.878L53.068,396.181C52.825,395.777 52.624,395.312 52.461,394.785C52.117,393.753 51.935,392.479 51.875,391.002Z" style="fill:rgb(219,164,53);fill-rule:nonzero;"/>
        </g>
        <g transform="matrix(4.16667,0,0,4.16667,0,0)">
            <path d="M50.56,390.759L46.513,390.031L44.106,394.624L51.268,395.878C50.62,394.158 50.377,392.458 50.56,390.759Z" style="fill:rgb(252,204,81);fill-rule:nonzero;"/>
        </g>
        <g transform="matrix(4.16667,0,0,4.16667,0,0)">
            <path d="M45.603,389.869L44.672,389.687C43.397,391.244 42.547,392.762 42.123,394.28L43.134,394.462C43.296,393.794 43.539,393.106 43.863,392.418L45.603,389.869Z" style="fill:rgb(252,204,81);fill-rule:nonzero;"/>
        </g>
        <g transform="matrix(4.16667,0,0,4.16667,0,0)">
            <path d="M53.372,371.195L53.271,372.792C55.152,373.359 57.095,373.602 59.118,373.541C59.988,373.501 60.898,373.4 61.809,373.258L61.829,371.902C58.956,372.408 56.144,372.165 53.372,371.195Z" style="fill:rgb(126,94,78);fill-rule:nonzero;"/>
        </g>
        <g transform="matrix(4.16667,0,0,4.16667,0,0)">
            <path d="M61.809,373.258C60.898,373.4 59.988,373.501 59.118,373.541L58.652,383.314L60.676,386.227C60.98,394.968 58.228,397.82 52.461,394.785C52.624,395.312 52.825,395.777 53.068,396.181C53.938,397.679 55.273,398.427 57.074,398.448C58.754,398.144 60.109,397.496 61.121,396.465C62.193,395.352 62.881,393.835 63.185,391.892C63.387,390.556 63.407,389.019 63.245,387.299C63.124,386.105 62.921,384.831 62.638,383.434C62.213,383.253 61.91,383.01 61.688,382.706L61.809,373.258Z" style="fill:rgb(190,134,99);fill-rule:nonzero;"/>
        </g>
        <g transform="matrix(4.16667,0,0,4.16667,0,0)">
            <path d="M63.569,383.738C63.225,383.658 62.901,383.556 62.638,383.434C62.921,384.831 63.124,386.105 63.245,387.299L65.268,387.279L63.569,383.738Z" style="fill:rgb(252,204,81);fill-rule:nonzero;"/>
        </g>
        <g transform="matrix(4.16667,0,0,4.16667,0,0)">
            <path d="M65.491,383.921L65.289,383.941L67.818,387.259L68.405,388.048C69.153,389.262 69.78,390.435 70.266,391.548C70.914,393.046 71.298,394.441 71.439,395.757C71.642,397.618 71.338,399.297 70.529,400.794C70.226,401.34 69.882,401.846 69.457,402.352L69.78,402.878C71.5,401.118 72.33,398.791 72.309,395.858L71.257,391.082L84.186,414.815C84.388,414.876 84.59,414.938 84.793,415.018C84.57,414.977 84.328,414.938 84.105,414.916C84.651,420.157 80.848,424.547 72.694,428.128C73.281,428.755 73.2,429.99 72.431,431.811L81.434,427.177C87.646,422.949 89.305,418.598 86.411,414.128L77.731,398.609L72.997,390.152C71.419,385.559 68.91,383.475 65.491,383.921Z" style="fill:rgb(190,134,99);fill-rule:nonzero;"/>
        </g>
        <g transform="matrix(4.16667,0,0,4.16667,0,0)">
            <path d="M65.289,383.941C64.641,383.921 64.075,383.839 63.569,383.738L65.268,387.279L67.818,387.259L65.289,383.941Z" style="fill:rgb(219,164,53);fill-rule:nonzero;"/>
        </g>
        <g transform="matrix(4.16667,0,0,4.16667,0,0)">
            <path d="M65.268,387.279L63.245,387.299C63.407,389.019 63.387,390.556 63.185,391.892L67.373,391.69L65.268,387.279Z" style="fill:rgb(251,229,193);fill-rule:nonzero;"/>
        </g>
        <g transform="matrix(4.16667,0,0,4.16667,0,0)">
            <path d="M68.405,388.048L67.818,387.259L65.268,387.279L67.373,391.69L70.266,391.548C69.78,390.435 69.153,389.262 68.405,388.048Z" style="fill:rgb(248,215,153);fill-rule:nonzero;"/>
        </g>
        <g transform="matrix(4.16667,0,0,4.16667,0,0)">
            <path d="M71.439,395.757C71.298,394.441 70.914,393.046 70.266,391.548L67.373,391.69L68.263,395.817L68.223,395.979L71.439,395.757Z" style="fill:rgb(219,164,53);fill-rule:nonzero;"/>
        </g>
        <g transform="matrix(4.16667,0,0,4.16667,0,0)">
            <path d="M70.529,400.794C71.338,399.297 71.642,397.618 71.439,395.757L68.223,395.979L67.029,401.118C68.202,401.037 69.376,400.936 70.529,400.794Z" style="fill:rgb(248,215,153);fill-rule:nonzero;"/>
        </g>
        <g transform="matrix(4.16667,0,0,4.16667,0,0)">
            <path d="M68.263,395.817L67.373,391.69L63.185,391.892C62.881,393.835 62.193,395.352 61.121,396.465L68.223,395.979L68.263,395.817Z" style="fill:rgb(252,204,81);fill-rule:nonzero;"/>
        </g>
        <g transform="matrix(4.16667,0,0,4.16667,0,0)">
            <path d="M67.029,401.118L68.223,395.979L61.121,396.465C60.109,397.496 58.754,398.144 57.074,398.448L57.216,398.973C54.019,398.973 52.036,397.941 51.268,395.878L44.106,394.624L44.065,394.684C43.782,396.202 43.842,397.637 44.227,399.034C51.915,400.936 59.522,401.624 67.029,401.118Z" style="fill:rgb(251,229,193);fill-rule:nonzero;"/>
        </g>
        <g transform="matrix(4.16667,0,0,4.16667,0,0)">
            <path d="M57.216,398.973L57.074,398.448C55.273,398.427 53.938,397.679 53.068,396.181L51.268,395.878C52.036,397.941 54.019,398.973 57.216,398.973Z" style="fill:rgb(248,215,153);fill-rule:nonzero;"/>
        </g>
        <g transform="matrix(4.16667,0,0,4.16667,0,0)">
            <path d="M65.208,409.13C64.257,409.211 63.326,409.272 62.375,409.312L62.375,413.339C63.185,413.258 63.994,413.157 64.803,413.015C64.884,411.578 65.026,410.283 65.208,409.13Z" style="fill:rgb(219,164,53);fill-rule:nonzero;"/>
        </g>
        <g transform="matrix(4.16667,0,0,4.16667,0,0)">
            <path d="M62.375,409.312C63.326,409.272 64.257,409.211 65.208,409.13C65.471,407.43 65.815,406.034 66.28,404.942C65.249,405.165 64.196,405.327 63.165,405.448L62.375,409.312Z" style="fill:rgb(248,215,153);fill-rule:nonzero;"/>
        </g>
        <g transform="matrix(4.16667,0,0,4.16667,0,0)">
            <path d="M63.165,405.448C64.196,405.327 65.249,405.165 66.28,404.942C67.595,404.153 68.647,403.303 69.457,402.352C69.882,401.846 70.226,401.34 70.529,400.794C69.376,400.936 68.202,401.037 67.029,401.118L63.165,405.448Z" style="fill:rgb(219,164,53);fill-rule:nonzero;"/>
        </g>
        <g transform="matrix(4.16667,0,0,4.16667,0,0)">
            <path d="M62.375,409.312L63.165,405.448C57.823,406.075 52.481,405.509 47.12,403.749C47.524,404.153 47.97,404.557 48.435,404.942C48.516,405.893 48.577,406.803 48.597,407.694C53.19,408.908 57.782,409.454 62.375,409.312Z" style="fill:rgb(251,229,193);fill-rule:nonzero;"/>
        </g>
        <g transform="matrix(4.16667,0,0,4.16667,0,0)">
            <path d="M63.165,405.448L67.029,401.118C59.522,401.624 51.915,400.936 44.227,399.034C44.692,400.713 45.664,402.272 47.12,403.749C52.481,405.509 57.823,406.075 63.165,405.448Z" style="fill:rgb(252,204,81);fill-rule:nonzero;"/>
        </g>
        <g transform="matrix(4.16667,0,0,4.16667,0,0)">
            <path d="M62.375,417.789L62.375,413.339C57.702,413.824 53.089,413.419 48.577,412.125C48.516,413.52 48.375,414.836 48.172,416.071C52.825,417.688 57.56,418.254 62.375,417.789Z" style="fill:rgb(251,229,193);fill-rule:nonzero;"/>
        </g>
        <g transform="matrix(4.16667,0,0,4.16667,0,0)">
            <path d="M62.375,413.339L62.375,417.789C63.286,417.688 64.216,417.567 65.147,417.406C65.005,415.949 64.904,414.492 64.803,413.015C63.994,413.157 63.185,413.258 62.375,413.339Z" style="fill:rgb(248,215,153);fill-rule:nonzero;"/>
        </g>
        <g transform="matrix(4.16667,0,0,4.16667,0,0)">
            <path d="M65.511,421.127C65.43,420.319 65.349,419.51 65.268,418.699C65.228,418.276 65.188,417.83 65.147,417.406C64.216,417.567 63.286,417.688 62.375,417.789L62.375,418.376L62.76,422.403C63.67,422.059 64.581,421.634 65.511,421.127Z" style="fill:rgb(219,164,53);fill-rule:nonzero;"/>
        </g>
        <g transform="matrix(4.16667,0,0,4.16667,0,0)">
            <path d="M65.268,418.699C65.35,419.51 65.43,420.319 65.511,421.127C65.532,421.41 65.572,421.695 65.612,421.978L67.292,422.261L66.503,417.688C66.159,417.789 65.734,418.114 65.268,418.699Z" style="fill:rgb(211,159,130);fill-rule:nonzero;"/>
        </g>
        <g transform="matrix(4.16667,0,0,4.16667,0,0)">
            <path d="M62.375,418.376L62.375,417.789C57.56,418.254 52.825,417.688 48.172,416.071C47.869,417.77 47.464,419.307 46.938,420.703C51.956,423.961 57.236,424.527 62.76,422.403L62.375,418.376Z" style="fill:rgb(252,204,81);fill-rule:nonzero;"/>
        </g>
        <g transform="matrix(4.16667,0,0,4.16667,0,0)">
            <path d="M68,423.03C68,422.807 68,422.584 68,422.362L67.292,422.261L65.612,421.978C65.633,422.282 65.673,422.565 65.714,422.867C66.017,422.807 66.321,422.787 66.584,422.787C67.13,422.767 67.595,422.848 68,423.03Z" style="fill:rgb(126,94,78);fill-rule:nonzero;"/>
        </g>
        <g transform="matrix(4.16667,0,0,4.16667,0,0)">
            <path d="M68,423.03C67.595,422.848 67.13,422.767 66.584,422.787C67.939,424.203 68.627,425.923 68.607,427.947C69.962,429.241 70.306,430.799 69.679,432.619C70.893,434.623 70.529,436.039 68.607,436.848L65.815,423.657C65.835,423.9 65.876,424.143 65.896,424.385C65.977,425.094 66.058,425.801 66.159,426.51C66.665,430.516 67.312,434.502 68.061,438.487C72.673,437.476 73.827,435.412 71.5,432.276C73.139,429.99 72.552,428.311 69.74,427.239C69.76,426.612 69.74,426.044 69.659,425.539C69.457,424.264 68.91,423.414 68,423.03Z" style="fill:rgb(190,134,99);fill-rule:nonzero;"/>
        </g>
        <g transform="matrix(4.16667,0,0,4.16667,0,0)">
            <path d="M67.292,422.261L68,422.362C67.98,418.963 67.474,417.406 66.503,417.688L67.292,422.261Z" style="fill:rgb(190,134,99);fill-rule:nonzero;"/>
        </g>
        <g transform="matrix(4.16667,0,0,4.16667,0,0)">
            <path d="M70.064,425.134L69.659,425.539C69.74,426.044 69.76,426.612 69.74,427.239C72.552,428.311 73.139,429.99 71.5,432.276L72.431,431.811C73.2,429.99 73.281,428.755 72.694,428.128L70.488,426.894L70.064,425.134Z" style="fill:rgb(126,94,78);fill-rule:nonzero;"/>
        </g>
        <g transform="matrix(4.16667,0,0,4.16667,0,0)">
            <path d="M62.76,422.403L63.124,426.267C64.034,425.721 64.965,425.094 65.896,424.385C65.876,424.143 65.835,423.9 65.815,423.657L65.794,423.516C65.774,423.293 65.734,423.09 65.714,422.867C65.673,422.565 65.633,422.282 65.612,421.978C65.572,421.695 65.532,421.41 65.511,421.127C64.581,421.634 63.67,422.059 62.76,422.403Z" style="fill:rgb(248,215,153);fill-rule:nonzero;"/>
        </g>
        <g transform="matrix(4.16667,0,0,4.16667,0,0)">
            <path d="M63.124,426.267L62.76,422.403C57.236,424.527 51.956,423.961 46.938,420.703C46.513,421.776 46.027,422.767 45.461,423.637C50.701,429.221 56.589,430.09 63.124,426.267Z" style="fill:rgb(251,229,193);fill-rule:nonzero;"/>
        </g>
        <g transform="matrix(4.16667,0,0,4.16667,0,0)">
            <path d="M65.714,422.867C65.734,423.09 65.774,423.293 65.794,423.516L65.815,423.657L68.607,436.848C70.529,436.039 70.893,434.623 69.679,432.619C70.306,430.799 69.962,429.241 68.607,427.947C68.627,425.923 67.939,424.203 66.584,422.787C66.321,422.787 66.017,422.807 65.714,422.867Z" style="fill:rgb(211,159,130);fill-rule:nonzero;"/>
        </g>
        <g transform="matrix(4.16667,0,0,4.16667,0,0)">
            <path d="M65.896,424.385C64.965,425.094 64.034,425.721 63.124,426.267L63.124,427.885C60.595,429.949 57.843,431.041 54.849,431.143C50.215,431.184 46.453,429.727 43.539,426.752C51.692,435.675 59.239,435.594 66.159,426.51C66.058,425.801 65.977,425.094 65.896,424.385Z" style="fill:rgb(219,164,53);fill-rule:nonzero;"/>
        </g>
        <g transform="matrix(4.16667,0,0,4.16667,0,0)">
            <path d="M63.124,427.885L63.124,426.267C56.589,430.09 50.701,429.221 45.461,423.637C44.915,424.487 44.288,425.255 43.6,425.923L42.891,425.155C43.559,424.407 44.146,423.617 44.672,422.767C44.49,422.524 44.288,422.282 44.085,422.039C43.984,422.261 43.863,422.484 43.761,422.705C43.316,423.576 42.811,424.446 42.264,425.296C42.689,425.801 43.114,426.287 43.539,426.752C46.453,429.727 50.215,431.184 54.849,431.143C57.843,431.041 60.595,429.949 63.124,427.885Z" style="fill:rgb(252,204,81);fill-rule:nonzero;"/>
        </g>
        <g transform="matrix(4.16667,0,0,4.16667,0,0)">
            <path d="M84.105,414.916C84.328,414.938 84.57,414.977 84.793,415.018C84.59,414.938 84.388,414.876 84.186,414.815C81.981,414.148 79.917,414.451 77.975,415.727L78.46,416.475C80.2,415.22 82.082,414.694 84.105,414.916Z" style="fill:rgb(126,94,78);fill-rule:nonzero;"/>
        </g>
        <g transform="matrix(4.16667,0,0,4.16667,0,0)">
            <path d="M84.105,414.916C82.082,414.694 80.2,415.22 78.46,416.475C77.226,417.344 76.073,418.598 74.98,420.217L70.064,425.134L70.488,426.894L72.694,428.128C80.848,424.547 84.651,420.157 84.105,414.916ZM78.824,416.981C80.281,415.908 81.859,415.422 83.539,415.483C83.539,415.847 83.519,416.211 83.498,416.575C82.021,415.705 77.813,418.822 70.873,425.903L70.731,425.316L75.405,420.643L75.486,420.562C76.538,419.003 77.651,417.809 78.824,416.981Z" style="fill:rgb(211,159,130);fill-rule:nonzero;"/>
        </g>
        <g transform="matrix(4.16667,0,0,4.16667,0,0)">
            <path d="M83.539,415.483C81.859,415.422 80.281,415.908 78.824,416.981C77.651,417.809 76.538,419.003 75.486,420.562L75.405,420.643L70.731,425.316L70.873,425.903C77.813,418.822 82.021,415.705 83.498,416.575C83.519,416.211 83.539,415.847 83.539,415.483Z" style="fill:rgb(245,215,190);fill-rule:nonzero;"/>
        </g>
        <g transform="matrix(4.16667,0,0,4.16667,0,0)">
            <path d="M77.975,415.727C79.917,414.451 81.981,414.148 84.186,414.815L71.257,391.082L72.309,395.858C72.33,398.791 71.5,401.118 69.78,402.878L77.975,415.727ZM70.549,402.939C70.853,402.595 71.116,402.251 71.358,401.867L79.168,414.41C78.824,414.552 78.501,414.714 78.177,414.897L70.549,402.939Z" style="fill:rgb(211,159,130);fill-rule:nonzero;"/>
        </g>
        <g transform="matrix(4.16667,0,0,4.16667,0,0)">
            <path d="M71.358,401.867C71.116,402.251 70.853,402.595 70.549,402.939L78.177,414.896C78.501,414.714 78.824,414.552 79.168,414.41L71.358,401.867Z" style="fill:rgb(245,215,190);fill-rule:nonzero;"/>
        </g>
        <g transform="matrix(4.16667,0,0,4.16667,0,0)">
            <path d="M62.375,413.339L62.375,409.312C57.782,409.454 53.19,408.908 48.597,407.694C48.658,409.252 48.637,410.728 48.577,412.125C53.089,413.419 57.702,413.824 62.375,413.339Z" style="fill:rgb(252,204,81);fill-rule:nonzero;"/>
        </g>
        <g transform="matrix(4.16667,0,0,4.16667,0,0)">
            <path d="M44.065,394.684L44.106,394.624L43.134,394.462C42.77,395.918 42.77,397.355 43.114,398.751C43.499,398.852 43.863,398.933 44.227,399.034C43.842,397.637 43.782,396.202 44.065,394.684Z" style="fill:rgb(248,241,226);fill-rule:nonzero;"/>
        </g>
        <g transform="matrix(4.16667,0,0,4.16667,0,0)">
            <path d="M43.134,394.462L42.123,394.28C41.799,395.372 41.698,396.465 41.839,397.536C41.88,397.84 41.94,398.144 42.001,398.448C42.386,398.549 42.75,398.65 43.114,398.751C42.77,397.355 42.77,395.918 43.134,394.462Z" style="fill:rgb(251,229,193);fill-rule:nonzero;"/>
        </g>
        <g transform="matrix(4.16667,0,0,4.16667,0,0)">
            <path d="M43.114,398.751C42.75,398.65 42.386,398.549 42.001,398.448C42.345,399.864 43.074,401.26 44.187,402.656C44.611,402.838 45.056,403 45.481,403.161C44.288,401.725 43.499,400.268 43.114,398.751Z" style="fill:rgb(252,204,81);fill-rule:nonzero;"/>
        </g>
        <g transform="matrix(4.16667,0,0,4.16667,0,0)">
            <path d="M44.227,399.034C43.863,398.933 43.499,398.852 43.114,398.751C43.499,400.268 44.288,401.725 45.481,403.161C46.027,403.364 46.574,403.566 47.12,403.749C45.664,402.271 44.692,400.713 44.227,399.034Z" style="fill:rgb(250,221,166);fill-rule:nonzero;"/>
        </g>
        <g transform="matrix(4.16667,0,0,4.16667,0,0)">
            <path d="M45.481,403.161C45.056,403 44.611,402.838 44.187,402.656C44.814,403.425 45.542,404.194 46.412,404.942C46.513,405.69 46.614,406.419 46.675,407.148C46.979,407.249 47.282,407.329 47.585,407.41C47.524,406.641 47.423,405.852 47.323,405.063C46.614,404.436 46.007,403.809 45.481,403.161Z" style="fill:rgb(251,229,193);fill-rule:nonzero;"/>
        </g>
        <g transform="matrix(4.16667,0,0,4.16667,0,0)">
            <path d="M47.585,407.41C47.282,407.329 46.978,407.249 46.675,407.148C46.796,408.665 46.816,410.121 46.735,411.558C47.039,411.659 47.363,411.76 47.687,411.862C47.747,410.446 47.707,408.969 47.585,407.41Z" style="fill:rgb(252,204,81);fill-rule:nonzero;"/>
        </g>
        <g transform="matrix(4.16667,0,0,4.16667,0,0)">
            <path d="M47.323,405.063C47.423,405.852 47.524,406.641 47.585,407.41C47.929,407.512 48.253,407.593 48.597,407.694C48.577,406.803 48.516,405.893 48.435,404.942C47.97,404.557 47.524,404.153 47.12,403.749C46.574,403.566 46.027,403.364 45.481,403.161C46.007,403.809 46.614,404.436 47.323,405.063Z" style="fill:rgb(248,241,226);fill-rule:nonzero;"/>
        </g>
        <g transform="matrix(4.16667,0,0,4.16667,0,0)">
            <path d="M48.597,407.694C48.253,407.593 47.929,407.512 47.585,407.41C47.707,408.969 47.747,410.446 47.687,411.862C47.99,411.963 48.273,412.043 48.577,412.125C48.637,410.728 48.658,409.252 48.597,407.694Z" style="fill:rgb(250,221,166);fill-rule:nonzero;"/>
        </g>
        <g transform="matrix(4.16667,0,0,4.16667,0,0)">
            <path d="M28.972,404.739C28.425,404.315 27.859,404.011 27.272,403.829C28.223,404.638 29.073,405.63 29.801,406.783L30.509,406.258C30.003,405.65 29.498,405.144 28.972,404.739Z" style="fill:rgb(126,94,78);fill-rule:nonzero;"/>
        </g>
        <g transform="matrix(4.16667,0,0,4.16667,0,0)">
            <path d="M29.801,406.783C29.073,405.63 28.223,404.639 27.272,403.829L33.342,420.116L34.05,422.848L32.067,424.891C32.411,425.215 32.755,425.559 33.119,425.903C34.03,424.305 35.183,423.414 36.599,423.212L32.128,412.408C31.562,410.222 30.793,408.341 29.801,406.783Z" style="fill:rgb(190,134,99);fill-rule:nonzero;"/>
        </g>
        <g transform="matrix(4.16667,0,0,4.16667,0,0)">
            <path d="M36.963,424.082L36.599,423.212C35.183,423.414 34.03,424.305 33.119,425.903C33.362,426.125 33.605,426.348 33.848,426.571C34.211,425.539 35.243,424.709 36.963,424.082Z" style="fill:rgb(126,94,78);fill-rule:nonzero;"/>
        </g>
        <g transform="matrix(4.16667,0,0,4.16667,0,0)">
            <path d="M33.848,426.571C33.625,427.158 33.625,427.824 33.868,428.553C31.663,431.568 32.209,433.752 35.507,435.088C35.689,432.297 36.963,429.301 39.351,426.085C41.435,423.981 41.435,422.078 39.351,420.379C38.177,420.562 37.388,421.795 36.963,424.082C35.243,424.709 34.211,425.539 33.848,426.571ZM34.414,426.793L34.434,426.774C34.778,425.903 35.689,425.196 37.166,424.649C37.267,424.608 37.368,424.547 37.429,424.487C37.489,424.385 37.55,424.305 37.57,424.203C37.894,422.443 38.44,421.391 39.21,421.047C39.411,421.229 39.594,421.432 39.735,421.614L38.096,425.134C35.729,425.721 34.819,426.914 35.365,428.736C34.313,430.172 33.807,431.709 33.868,433.348C33.544,433.025 33.321,432.681 33.22,432.297C33.018,431.346 33.402,430.233 34.374,428.917C34.434,428.836 34.454,428.755 34.475,428.655C34.495,428.553 34.475,428.452 34.454,428.371C34.252,427.784 34.232,427.258 34.414,426.793Z" style="fill:rgb(211,159,130);fill-rule:nonzero;"/>
        </g>
        <g transform="matrix(4.16667,0,0,4.16667,0,0)">
            <path d="M34.434,426.774L34.414,426.793C34.232,427.258 34.252,427.784 34.454,428.371C34.475,428.452 34.495,428.553 34.475,428.655C34.454,428.756 34.434,428.836 34.374,428.917C33.402,430.233 33.018,431.346 33.22,432.297C33.321,432.681 33.544,433.025 33.868,433.348C33.807,431.709 34.313,430.172 35.365,428.736C34.819,426.914 35.729,425.721 38.096,425.134L39.735,421.614C39.594,421.432 39.411,421.229 39.21,421.047C38.44,421.391 37.894,422.444 37.57,424.203C37.55,424.305 37.489,424.385 37.429,424.487C37.368,424.547 37.267,424.608 37.166,424.649C35.689,425.196 34.778,425.903 34.434,426.774Z" style="fill:rgb(245,215,190);fill-rule:nonzero;"/>
        </g>
        <g transform="matrix(4.16667,0,0,4.16667,0,0)">
            <path d="M48.577,412.125C48.273,412.043 47.99,411.963 47.687,411.862C47.626,413.218 47.484,414.512 47.262,415.746C47.565,415.847 47.869,415.969 48.172,416.071C48.375,414.836 48.516,413.52 48.577,412.125Z" style="fill:rgb(248,241,226);fill-rule:nonzero;"/>
        </g>
        <g transform="matrix(4.16667,0,0,4.16667,0,0)">
            <path d="M47.687,411.862C47.363,411.76 47.039,411.659 46.735,411.558C46.675,412.853 46.513,414.128 46.291,415.362C46.614,415.503 46.938,415.625 47.262,415.746C47.484,414.512 47.626,413.218 47.687,411.862Z" style="fill:rgb(251,229,193);fill-rule:nonzero;"/>
        </g>
        <g transform="matrix(4.16667,0,0,4.16667,0,0)">
            <path d="M48.172,416.071C47.869,415.969 47.565,415.847 47.262,415.746C46.979,417.305 46.574,418.741 46.027,420.075C46.331,420.299 46.634,420.5 46.938,420.703C47.464,419.307 47.869,417.77 48.172,416.071Z" style="fill:rgb(250,221,166);fill-rule:nonzero;"/>
        </g>
        <g transform="matrix(4.16667,0,0,4.16667,0,0)">
            <path d="M47.262,415.746C46.938,415.625 46.614,415.503 46.291,415.362C46.128,416.192 45.926,417.02 45.684,417.85C45.542,418.376 45.36,418.903 45.178,419.428C45.461,419.651 45.744,419.873 46.027,420.075C46.574,418.741 46.978,417.305 47.262,415.746Z" style="fill:rgb(252,204,81);fill-rule:nonzero;"/>
        </g>
        <g transform="matrix(4.16667,0,0,4.16667,0,0)">
            <path d="M46.938,420.703C46.634,420.5 46.331,420.299 46.027,420.075C45.643,421.027 45.198,421.916 44.672,422.767C44.935,423.071 45.198,423.354 45.461,423.637C46.027,422.767 46.513,421.776 46.938,420.703Z" style="fill:rgb(248,241,226);fill-rule:nonzero;"/>
        </g>
        <g transform="matrix(4.16667,0,0,4.16667,0,0)">
            <path d="M43.235,421.229L44.187,416.393C43.499,416.575 42.871,417.992 42.285,420.643L43.235,421.229Z" style="fill:rgb(211,159,130);fill-rule:nonzero;"/>
        </g>
        <g transform="matrix(4.16667,0,0,4.16667,0,0)">
            <path d="M44.187,416.393L43.235,421.229L44.207,421.816C44.571,421.027 44.895,420.217 45.178,419.428C45.36,418.903 45.542,418.376 45.684,417.85C45.157,416.758 44.652,416.272 44.187,416.393Z" style="fill:rgb(190,134,99);fill-rule:nonzero;"/>
        </g>
        <g transform="matrix(4.16667,0,0,4.16667,0,0)">
            <path d="M43.235,421.229L42.285,420.643C42.244,420.865 42.204,421.088 42.143,421.33C42.648,421.695 43.175,422.159 43.761,422.705C43.863,422.484 43.984,422.261 44.085,422.039L44.207,421.816L43.235,421.229Z" style="fill:rgb(126,94,78);fill-rule:nonzero;"/>
        </g>
        <g transform="matrix(4.16667,0,0,4.16667,0,0)">
            <path d="M45.461,423.637C45.198,423.354 44.935,423.071 44.672,422.767C44.146,423.617 43.559,424.407 42.891,425.155L43.6,425.923C44.288,425.255 44.915,424.487 45.461,423.637Z" style="fill:rgb(250,221,166);fill-rule:nonzero;"/>
        </g>
        <g transform="matrix(4.16667,0,0,4.16667,0,0)">
            <path d="M44.085,422.039C44.288,422.282 44.49,422.524 44.672,422.767C45.198,421.916 45.643,421.027 46.027,420.075C45.744,419.873 45.461,419.651 45.178,419.428C44.895,420.217 44.571,421.027 44.207,421.816L44.085,422.039Z" style="fill:rgb(251,229,193);fill-rule:nonzero;"/>
        </g>
        <g transform="matrix(4.16667,0,0,4.16667,0,0)">
            <path d="M43.761,422.705C43.175,422.159 42.648,421.695 42.143,421.33C41.05,420.562 40.12,420.238 39.351,420.379C41.435,422.078 41.435,423.981 39.351,426.085C36.963,429.301 35.689,432.297 35.507,435.088C36.053,435.311 36.68,435.492 37.388,435.675C38.056,432.579 38.966,430.112 40.14,428.27C40.362,427.926 40.585,427.602 40.828,427.299C40.909,427.178 40.989,427.056 41.091,426.955C41.496,426.408 41.88,425.862 42.264,425.296C42.811,424.446 43.316,423.576 43.761,422.705Z" style="fill:rgb(190,134,99);fill-rule:nonzero;"/>
        </g>
        <g transform="matrix(4.16667,0,0,4.16667,0,0)">
            <path d="M40.828,427.299C40.585,427.602 40.362,427.926 40.14,428.27C42.993,434.016 47.403,436.788 53.413,436.586L63.528,435.048L65.815,453.378C56.447,456.918 46.574,457.223 36.194,454.329C36.194,454.633 36.194,454.956 36.215,455.26C38.906,456.859 41.678,458.093 44.51,458.922C47.019,459.671 49.588,460.136 52.219,460.278C55.517,460.46 58.875,460.157 62.335,459.387C64.439,458.922 66.584,458.275 68.749,457.446C69.861,457.02 70.995,456.534 72.127,456.008C70.529,450.202 69.173,444.375 68.061,438.487C67.312,434.502 66.665,430.516 66.159,426.51C59.239,435.594 51.692,435.675 43.539,426.752C43.114,426.287 42.689,425.801 42.264,425.296C41.88,425.862 41.496,426.408 41.091,426.955C40.989,427.056 40.909,427.177 40.828,427.299Z" style="fill:rgb(35,31,32);fill-rule:nonzero;"/>
        </g>
        <g transform="matrix(4.16667,0,0,4.16667,0,0)">
            <path d="M44.51,458.922C44.469,459.387 44.429,459.853 44.409,460.319L49.649,462.341L47.889,505.375C47.869,507.864 46.432,508.836 43.559,508.33L43.559,508.533C46.534,510.009 48.456,510.049 49.366,508.653C49.892,507.824 50.074,506.509 49.892,504.688C50.013,489.877 50.782,475.067 52.219,460.278C49.588,460.136 47.019,459.671 44.51,458.922Z" style="fill:rgb(190,134,99);fill-rule:nonzero;"/>
        </g>
        <g transform="matrix(4.16667,0,0,4.16667,0,0)">
            <path d="M49.649,462.341L44.409,460.319C43.175,476.2 42.891,492.205 43.559,508.33C46.432,508.836 47.869,507.864 47.889,505.375L49.649,462.341ZM44.955,461.188L46.007,461.593C45.016,476.908 44.672,492.326 44.976,507.844C44.712,507.844 44.449,507.824 44.146,507.804C43.519,492.144 43.802,476.606 44.955,461.188Z" style="fill:rgb(211,159,130);fill-rule:nonzero;"/>
        </g>
        <g transform="matrix(4.16667,0,0,4.16667,0,0)">
            <path d="M46.007,461.593L44.955,461.188C43.802,476.606 43.519,492.144 44.146,507.804C44.449,507.824 44.712,507.844 44.976,507.844C44.672,492.326 45.016,476.908 46.007,461.593Z" style="fill:rgb(245,215,190);fill-rule:nonzero;"/>
        </g>
        <g transform="matrix(4.16667,0,0,4.16667,0,0)">
            <path d="M37.388,435.675C36.397,440.43 35.992,446.641 36.194,454.329C46.574,457.223 56.447,456.918 65.815,453.378L63.528,435.048L53.413,436.586C47.403,436.788 42.993,434.016 40.14,428.27C38.966,430.112 38.056,432.579 37.388,435.675ZM40.12,429.525C40.443,430.112 40.788,430.678 41.151,431.184C38.906,435.696 37.854,443.364 37.995,454.188C37.59,454.086 37.186,453.965 36.781,453.864C36.62,446.439 37.024,440.409 37.995,435.797C38.521,433.268 39.23,431.184 40.12,429.525Z" style="fill:rgb(88,89,91);fill-rule:nonzero;"/>
        </g>
        <g transform="matrix(4.16667,0,0,4.16667,0,0)">
            <path d="M41.151,431.184C40.788,430.678 40.443,430.112 40.12,429.525C39.23,431.184 38.521,433.268 37.995,435.797C37.024,440.409 36.62,446.439 36.781,453.864C37.186,453.965 37.59,454.086 37.995,454.188C37.854,443.364 38.906,435.696 41.151,431.184Z" style="fill:rgb(128,130,133);fill-rule:nonzero;"/>
        </g>
        <g transform="matrix(4.16667,0,0,4.16667,0,0)">
            <path d="M68.749,457.446C66.584,458.275 64.439,458.922 62.335,459.387C62.477,460.055 62.618,460.703 62.76,461.37L67.636,459.974C71.541,475.168 76.335,490.141 82.021,504.85C80.301,505.922 78.359,505.862 76.214,504.688C78.663,507.804 81.454,507.925 84.631,505.073C77.894,489.129 72.593,473.246 68.749,457.446Z" style="fill:rgb(190,134,99);fill-rule:nonzero;"/>
        </g>
        <g transform="matrix(4.16667,0,0,4.16667,0,0)">
            <path d="M67.636,459.974L62.76,461.37C65.896,475.553 70.387,489.979 76.214,504.688C78.359,505.862 80.301,505.922 82.021,504.85C76.335,490.141 71.541,475.168 67.636,459.974ZM63.488,461.795L64.54,461.492C68.081,475.634 72.532,490.059 77.934,504.769C77.53,504.648 77.125,504.486 76.7,504.263C71.015,489.838 66.604,475.696 63.488,461.795Z" style="fill:rgb(211,159,130);fill-rule:nonzero;"/>
        </g>
        <g transform="matrix(4.16667,0,0,4.16667,0,0)">
            <path d="M64.54,461.492L63.488,461.795C66.604,475.696 71.015,489.838 76.7,504.263C77.125,504.486 77.53,504.648 77.934,504.769C72.532,490.059 68.081,475.634 64.54,461.492Z" style="fill:rgb(245,215,190);fill-rule:nonzero;"/>
        </g>
        <g transform="matrix(4.16667,0,0,4.16667,0,0)">
            <path d="M75.041,508.897C74.98,509.241 74.919,509.584 74.859,509.928L84.55,511.891C92.461,519.559 104.277,521.056 119.958,516.384C119.27,509.322 115.547,504.02 108.769,500.459C105.673,499.184 102.598,498.781 99.543,499.285C109.012,502.219 113.038,507.602 111.622,515.41C101.91,517.617 93.311,515.897 85.825,510.252L75.041,508.897Z" style="fill:rgb(219,164,53);fill-rule:nonzero;"/>
        </g>
        <g transform="matrix(4.16667,0,0,4.16667,0,0)">
            <path d="M76.214,504.688C75.688,506.084 75.304,507.48 75.041,508.897L85.825,510.252C93.311,515.897 101.91,517.617 111.622,515.41C113.038,507.602 109.012,502.219 99.543,499.285C95.375,499.953 91.247,502.301 87.16,506.307L84.631,505.073C81.454,507.925 78.663,507.804 76.214,504.688ZM99.502,499.893C100.292,500.157 101.06,500.418 101.789,500.702C97.175,502.098 92.42,504.121 87.524,506.813L87.585,506.752C91.51,502.887 95.476,500.602 99.502,499.893Z" style="fill:rgb(252,204,81);fill-rule:nonzero;"/>
        </g>
        <g transform="matrix(4.16667,0,0,4.16667,0,0)">
            <path d="M101.789,500.702C101.06,500.418 100.292,500.157 99.502,499.893C95.476,500.602 91.51,502.887 87.585,506.752L87.524,506.813C92.42,504.121 97.175,502.098 101.789,500.702Z" style="fill:rgb(249,218,159);fill-rule:nonzero;"/>
        </g>
        <g transform="matrix(4.16667,0,0,4.16667,0,0)">
            <path d="M26.281,502.705C25.046,502.766 23.893,502.948 22.821,503.252C29.093,502.785 36.134,505.598 43.923,511.649C43.458,510.9 42.993,510.211 42.527,509.565C38.218,503.717 32.795,501.43 26.281,502.705Z" style="fill:rgb(219,164,53);fill-rule:nonzero;"/>
        </g>
        <g transform="matrix(4.16667,0,0,4.16667,0,0)">
            <path d="M43.559,508.533L42.527,509.565C42.993,510.211 43.458,510.9 43.923,511.649C36.134,505.598 29.093,502.785 22.821,503.252C17.378,504.809 13.837,509.543 12.219,517.455C12.806,517.637 13.413,517.819 14,518.001C22.74,520.408 32.613,518.992 43.64,513.733L49.993,511.203L49.366,508.653C48.456,510.049 46.534,510.009 43.559,508.533ZM22.942,503.859C23.772,503.797 24.601,503.797 25.451,503.859C20.211,505.658 16.528,510.192 14.424,517.475C13.918,517.332 13.433,517.192 12.927,517.051C14.526,509.746 17.864,505.356 22.942,503.859Z" style="fill:rgb(252,204,81);fill-rule:nonzero;"/>
        </g>
        <g transform="matrix(4.16667,0,0,4.16667,0,0)">
            <path d="M25.451,503.859C24.601,503.797 23.772,503.797 22.942,503.859C17.864,505.356 14.526,509.746 12.927,517.051C13.433,517.192 13.918,517.332 14.424,517.475C16.528,510.192 20.211,505.658 25.451,503.859Z" style="fill:rgb(249,218,159);fill-rule:nonzero;"/>
        </g>
        <g transform="matrix(4.16667,0,0,4.16667,0,0)">
            <path d="M49.892,504.688C50.074,506.509 49.892,507.824 49.366,508.653L49.993,511.203L43.64,513.733C32.613,518.992 22.74,520.408 14,518.001C13.413,517.819 12.806,517.637 12.219,517.455C12.118,517.962 12.037,518.466 11.936,519.012C22.457,523.707 33.746,522.209 45.785,514.501L54.181,511.102C53.392,508.815 51.976,506.671 49.892,504.688Z" style="fill:rgb(219,164,53);fill-rule:nonzero;"/>
        </g>
        <g transform="matrix(4.16667,0,0,4.16667,0,0)">
            <path d="M74.616,513.004L83.559,513.631C93.068,524.01 105.208,526.539 119.958,521.218C120.099,519.518 120.099,517.9 119.958,516.384C104.277,521.056 92.461,519.559 84.55,511.891L74.859,509.928C74.717,510.96 74.636,511.971 74.616,513.004Z" style="fill:rgb(86,72,28);fill-rule:nonzero;"/>
        </g>
        <g transform="matrix(4.16667,0,0,4.16667,0,0)">
            <path d="M54.181,511.102L45.785,514.501C33.746,522.209 22.457,523.707 11.936,519.012C11.672,520.51 11.491,522.109 11.37,523.807C22.76,527.246 34.151,525.346 45.542,518.103C48.273,515.512 51.349,513.934 54.728,513.387C54.606,512.598 54.424,511.85 54.181,511.102Z" style="fill:rgb(86,72,28);fill-rule:nonzero;"/>
        </g>
        <g transform="matrix(4.16667,0,0,4.16667,0,0)">
            <path d="M54.748,336.152C55.881,335.828 57.054,335.747 58.248,335.909C54.484,333.177 51.369,334.594 48.921,340.137C49.872,339.045 50.863,338.155 51.875,337.487C52.805,336.86 53.756,336.415 54.748,336.152Z" style="fill:rgb(35,31,32);fill-rule:nonzero;"/>
        </g>
        <g transform="matrix(4.16667,0,0,4.16667,0,0)">
            <path d="M51.308,338.297C50.438,339.753 49.973,341.513 49.872,343.577C49.791,345.641 50.135,347.401 50.883,348.858L50.944,348.959C51.692,350.355 52.644,351.043 53.776,351.043C54.93,351.043 55.941,350.314 56.812,348.858C57.682,347.401 58.167,345.641 58.248,343.577C58.349,341.513 58.005,339.753 57.236,338.297C56.852,337.548 56.427,337.001 55.941,336.637C55.557,336.374 55.172,336.212 54.748,336.152C53.756,336.415 52.805,336.86 51.875,337.487C51.672,337.73 51.49,337.993 51.308,338.297ZM50.377,343.637C50.458,341.736 50.883,340.117 51.652,338.762C52.441,337.426 53.332,336.759 54.363,336.759C54.849,336.759 55.294,336.9 55.699,337.204C56.144,337.548 56.548,338.053 56.892,338.762C57.56,340.117 57.863,341.736 57.782,343.637C57.702,345.54 57.277,347.158 56.488,348.514C55.719,349.869 54.829,350.537 53.797,350.537C52.765,350.537 51.915,349.869 51.247,348.514L51.187,348.372C50.56,347.057 50.296,345.479 50.377,343.637Z" style="fill:rgb(167,169,172);fill-rule:nonzero;"/>
        </g>
        <g transform="matrix(4.16667,0,0,4.16667,0,0)">
            <path d="M51.652,338.762C50.883,340.117 50.458,341.736 50.377,343.637C50.296,345.479 50.56,347.057 51.187,348.372C54.991,348.251 56.488,344.528 55.699,337.204C55.294,336.9 54.849,336.759 54.363,336.759C53.332,336.759 52.441,337.426 51.652,338.762Z" style="fill:white;fill-rule:nonzero;"/>
        </g>
        <g transform="matrix(4.16667,0,0,4.16667,0,0)">
            <path d="M51.187,348.372L51.247,348.514C51.915,349.869 52.765,350.537 53.797,350.537C54.829,350.537 55.719,349.869 56.488,348.514C57.277,347.158 57.702,345.54 57.782,343.637C57.863,341.736 57.56,340.117 56.893,338.762C56.548,338.053 56.144,337.548 55.699,337.204C56.488,344.528 54.991,348.251 51.187,348.372Z" style="fill:rgb(209,211,212);fill-rule:nonzero;"/>
        </g>
        <g transform="matrix(4.16667,0,0,4.16667,0,0)">
            <path d="M41.577,350.881L41.92,349.93C40.362,348.372 39.168,348.069 38.339,348.999C39.513,348.858 40.585,349.485 41.577,350.881Z" style="fill:rgb(126,94,78);fill-rule:nonzero;"/>
        </g>
        <g transform="matrix(4.16667,0,0,4.16667,0,0)">
            <path d="M47.201,354.3C48.112,353.916 49.123,353.694 50.236,353.633C47.161,351.791 45.137,352.783 44.146,356.647C44.814,355.798 45.603,355.129 46.513,354.644C49.426,359.844 52.947,362.616 57.054,363C63.104,363.587 67.676,360.775 70.792,354.563C71.48,355.272 71.985,356.182 72.33,357.294C72.754,353.855 71.46,352.479 68.445,353.167C69.113,353.39 69.72,353.694 70.226,354.078C66.867,359.783 62.598,362.454 57.439,362.09C53.372,361.483 49.973,358.893 47.201,354.3Z" style="fill:rgb(126,94,78);fill-rule:nonzero;"/>
        </g>
        <g transform="matrix(4.16667,0,0,4.16667,0,0)">
            <path d="M70.043,338.135C69.699,337.467 69.315,336.961 68.89,336.596C68.384,336.172 67.797,335.949 67.17,335.949C66.017,335.949 64.985,336.678 64.115,338.135C63.245,339.591 62.78,341.351 62.679,343.415C62.598,345.479 62.942,347.239 63.69,348.696L63.812,348.918C64.56,350.234 65.491,350.881 66.584,350.881C67.737,350.881 68.749,350.152 69.618,348.696C70.488,347.239 70.974,345.479 71.055,343.415C71.156,341.351 70.812,339.591 70.043,338.135ZM67.17,336.596C67.717,336.596 68.202,336.779 68.647,337.163C69.032,337.508 69.396,337.972 69.699,338.6C70.367,339.955 70.671,341.574 70.59,343.476C70.509,345.378 70.084,346.996 69.295,348.352C68.526,349.707 67.636,350.375 66.604,350.375C65.572,350.375 64.722,349.707 64.055,348.352C63.387,346.996 63.104,345.378 63.185,343.476C63.266,341.574 63.69,339.955 64.46,338.6C65.249,337.264 66.139,336.596 67.17,336.596Z" style="fill:rgb(167,169,172);fill-rule:nonzero;"/>
        </g>
        <g transform="matrix(4.16667,0,0,4.16667,0,0)">
            <path d="M68.647,337.163C68.202,336.779 67.717,336.596 67.17,336.596C66.139,336.596 65.249,337.264 64.46,338.6C63.69,339.955 63.266,341.574 63.185,343.476C63.104,345.378 63.387,346.996 64.055,348.352C67.777,348.716 69.315,344.993 68.647,337.163Z" style="fill:white;fill-rule:nonzero;"/>
        </g>
        <g transform="matrix(4.16667,0,0,4.16667,0,0)">
            <path d="M70.59,343.476C70.671,341.574 70.367,339.955 69.699,338.6C69.396,337.972 69.032,337.508 68.647,337.163C69.315,344.993 67.777,348.716 64.055,348.352C64.722,349.707 65.572,350.375 66.604,350.375C67.636,350.375 68.526,349.707 69.295,348.352C70.084,346.996 70.509,345.378 70.59,343.476Z" style="fill:rgb(209,211,212);fill-rule:nonzero;"/>
        </g>
        <g transform="matrix(4.16667,0,0,4.16667,0,0)">
            <path d="M61.647,354.483C59.017,355.352 56.548,355.19 54.262,354.017C56.589,356.789 59.037,356.95 61.647,354.483Z" style="fill:rgb(126,94,78);fill-rule:nonzero;"/>
        </g>
        <g transform="matrix(4.16667,0,0,4.16667,0,0)">
            <path d="M79.816,347.3C79.249,346.369 78.44,346.673 77.368,348.23L77.61,349.181C78.278,347.785 79.027,347.158 79.816,347.3Z" style="fill:rgb(126,94,78);fill-rule:nonzero;"/>
        </g>
        <g transform="matrix(4.16667,0,0,4.16667,0,0)">
            <path d="M63.974,332.085C67.757,332.085 70.488,333.339 72.168,335.828C70.934,331.498 68.202,330.244 63.974,332.085Z" style="fill:rgb(35,31,32);fill-rule:nonzero;"/>
        </g>
        <g transform="matrix(4.16667,0,0,4.16667,0,0)">
            <path d="M52.785,380.278C52.461,380.259 52.219,380.36 52.057,380.542L54.829,386.894L54.019,387.765L54.019,387.805C54.161,388.069 54.323,388.311 54.464,388.574C54.606,388.189 54.788,387.845 55.051,387.522C55.273,387.259 55.496,387.036 55.739,386.854C55.597,386.632 55.436,386.409 55.294,386.166C54.343,384.609 53.514,382.645 52.785,380.278Z" style="fill:rgb(209,211,212);fill-rule:nonzero;"/>
        </g>
        <g transform="matrix(4.16667,0,0,4.16667,0,0)">
            <path d="M52.057,380.542C51.753,380.866 51.713,381.493 51.895,382.423C52.502,384.487 53.21,386.267 54.019,387.765L54.829,386.894L52.057,380.542Z" style="fill:rgb(232,233,234);fill-rule:nonzero;"/>
        </g>
        <g transform="matrix(4.16667,0,0,4.16667,0,0)">
            <path d="M62.638,383.434C62.76,382.99 62.739,382.645 62.578,382.403C61.91,384.851 60.959,386.733 59.705,388.069C59.846,388.331 59.948,388.595 60.048,388.877C61.485,387.582 62.355,385.762 62.638,383.434Z" style="fill:rgb(209,211,212);fill-rule:nonzero;"/>
        </g>
        <g transform="matrix(4.16667,0,0,4.16667,0,0)">
            <path d="M59.179,387.34L59.017,387.158C58.491,386.652 57.884,386.389 57.196,386.389C56.649,386.389 56.164,386.551 55.739,386.854C55.496,387.036 55.273,387.259 55.051,387.522C54.788,387.845 54.606,388.189 54.464,388.574C54.262,389.08 54.161,389.647 54.161,390.274C54.161,391.143 54.363,391.892 54.748,392.559C55.294,393.187 55.961,393.491 56.71,393.491C57.54,393.491 58.268,393.106 58.855,392.358C59.441,391.609 59.745,390.678 59.745,389.606C59.745,389.1 59.684,388.635 59.563,388.21C59.462,387.926 59.36,387.664 59.219,387.4L59.239,387.4L59.179,387.34ZM58.976,388.371L58.997,388.412C59.098,388.776 59.138,389.181 59.138,389.606C59.138,389.909 59.118,390.213 59.057,390.496C59.078,390.314 59.098,390.112 59.098,389.929C59.098,389.262 58.936,388.715 58.632,388.25L58.612,388.25C58.471,388.048 58.329,387.886 58.187,387.765C57.884,387.542 57.56,387.421 57.196,387.421C56.629,387.4 56.164,387.683 55.78,388.23L55.759,388.25C55.456,388.715 55.294,389.282 55.294,389.929C55.294,390.395 55.375,390.82 55.537,391.184C55.597,391.325 55.678,391.468 55.759,391.609C56.144,392.196 56.629,392.458 57.196,392.438C57.762,392.458 58.228,392.175 58.612,391.589L58.632,391.589L58.774,391.345C58.673,391.569 58.531,391.791 58.39,391.993C57.924,392.58 57.358,392.863 56.71,392.884C56.144,392.884 55.658,392.66 55.233,392.196C54.93,391.649 54.768,391.002 54.768,390.274C54.768,389.727 54.849,389.242 55.031,388.797L55.051,388.776C55.152,388.472 55.314,388.169 55.537,387.907C55.719,387.683 55.901,387.502 56.104,387.36C56.427,387.117 56.792,386.995 57.196,386.995C57.722,386.995 58.187,387.198 58.592,387.603L58.592,387.582L58.693,387.683C58.794,387.907 58.895,388.129 58.976,388.371ZM57.196,388.027C57.418,388.027 57.621,388.109 57.803,388.25C57.904,388.331 58.005,388.432 58.106,388.574C58.37,388.958 58.491,389.403 58.491,389.929C58.491,390.455 58.37,390.901 58.106,391.265C57.863,391.649 57.56,391.831 57.196,391.831C56.832,391.831 56.528,391.649 56.265,391.265C56.204,391.164 56.144,391.063 56.104,390.941C55.961,390.637 55.901,390.314 55.901,389.929C55.901,389.403 56.022,388.958 56.265,388.574C56.528,388.21 56.832,388.027 57.196,388.027Z" style="fill:rgb(252,204,81);fill-rule:nonzero;"/>
        </g>
        <g transform="matrix(4.16667,0,0,4.16667,0,0)">
            <path d="M58.612,388.25L58.612,388.23L58.632,388.25C58.936,388.715 59.098,389.262 59.098,389.929C59.098,390.112 59.078,390.314 59.057,390.496C59.118,390.213 59.138,389.909 59.138,389.606C59.138,389.181 59.098,388.776 58.997,388.412L58.976,388.371C58.895,388.129 58.794,387.907 58.693,387.683L58.592,387.582L58.592,387.603C58.187,387.198 57.722,386.995 57.196,386.995C56.792,386.995 56.427,387.117 56.104,387.36C55.901,387.502 55.719,387.683 55.537,387.907C55.314,388.169 55.152,388.472 55.051,388.776L55.031,388.797C54.849,389.242 54.768,389.727 54.768,390.274C54.768,391.002 54.93,391.649 55.233,392.196C55.658,392.66 56.144,392.884 56.71,392.884C57.358,392.863 57.924,392.58 58.39,391.993C58.531,391.791 58.673,391.569 58.774,391.345L58.632,391.589L58.612,391.629L58.612,391.589C58.228,392.175 57.762,392.458 57.196,392.438C56.629,392.458 56.144,392.196 55.759,391.609C55.678,391.468 55.597,391.325 55.537,391.184C55.375,390.82 55.294,390.395 55.294,389.929C55.294,389.282 55.456,388.715 55.759,388.25L55.78,388.23C56.164,387.683 56.629,387.4 57.196,387.421C57.56,387.421 57.884,387.542 58.187,387.765C58.329,387.886 58.471,388.048 58.612,388.25Z" style="fill:rgb(249,216,152);fill-rule:nonzero;"/>
        </g>
        <g transform="matrix(4.16667,0,0,4.16667,0,0)">
            <path d="M57.803,388.25C57.621,388.109 57.418,388.027 57.196,388.027C56.832,388.027 56.528,388.21 56.265,388.574C56.022,388.958 55.901,389.403 55.901,389.929C55.901,390.314 55.961,390.637 56.103,390.941C56.285,391.082 56.488,391.164 56.71,391.164C57.074,391.164 57.378,390.981 57.621,390.597C57.884,390.233 58.005,389.788 58.005,389.262C58.005,388.877 57.944,388.554 57.803,388.25Z" style="fill:rgb(232,233,234);fill-rule:nonzero;"/>
        </g>
        <g transform="matrix(4.16667,0,0,4.16667,0,0)">
            <path d="M58.106,388.574C58.005,388.432 57.904,388.331 57.803,388.25C57.944,388.554 58.005,388.877 58.005,389.262C58.005,389.788 57.884,390.233 57.621,390.597C57.378,390.981 57.074,391.164 56.71,391.164C56.488,391.164 56.285,391.082 56.103,390.941C56.144,391.063 56.204,391.164 56.265,391.265C56.528,391.649 56.832,391.831 57.196,391.831C57.56,391.831 57.863,391.649 58.106,391.265C58.37,390.901 58.491,390.455 58.491,389.929C58.491,389.403 58.37,388.958 58.106,388.574Z" style="fill:rgb(209,211,212);fill-rule:nonzero;"/>
        </g>
        <g transform="matrix(4.16667,0,0,4.16667,0,0)">
            <path d="M59.017,387.158L59.179,387.34L59.239,387.4L59.34,387.522C59.482,387.704 59.604,387.886 59.705,388.069C60.959,386.733 61.91,384.851 62.578,382.403C62.416,382.16 62.112,382.018 61.688,381.978C61.161,383.9 60.292,385.6 59.057,387.117L59.017,387.158Z" style="fill:rgb(232,233,234);fill-rule:nonzero;"/>
        </g>
        <g transform="matrix(4.16667,0,0,4.16667,0,0)">
            <path d="M59.239,387.4L59.219,387.4C59.36,387.664 59.462,387.926 59.563,388.21C59.684,388.635 59.745,389.1 59.745,389.606C59.745,390.678 59.441,391.609 58.855,392.358C58.268,393.106 57.54,393.491 56.71,393.491C55.961,393.491 55.294,393.187 54.748,392.559C54.829,392.721 54.93,392.884 55.051,393.025C55.638,393.774 56.366,394.158 57.196,394.158C58.025,394.158 58.754,393.774 59.34,393.025C59.927,392.276 60.231,391.345 60.231,390.274C60.231,389.767 60.17,389.302 60.048,388.877C59.948,388.595 59.846,388.331 59.705,388.069C59.604,387.886 59.482,387.704 59.34,387.522L59.239,387.4Z" style="fill:rgb(219,164,53);fill-rule:nonzero;"/>
        </g>
        <g transform="matrix(4.16667,0,0,4.16667,0,0)">
            <path d="M70.59,424.649L70.61,424.668L70.65,424.649L71.156,424.143L71.176,424.102C71.116,422.807 71.277,422.099 71.642,421.998C71.864,421.938 72.168,422.18 72.512,422.727C72.674,422.969 72.856,423.293 73.038,423.698C73.625,424.932 74.151,426.469 74.596,428.33C74.778,429.1 74.94,429.848 75.082,430.557C75.223,431.508 75.324,432.377 75.364,433.187C75.385,434.522 75.243,435.25 74.899,435.352C74.515,435.453 74.049,434.886 73.503,433.692C73.22,433.106 72.957,432.438 72.694,431.709L72.674,431.69L72.653,431.69L72.613,431.69L72.229,431.892L72.208,431.892L72.168,431.892L72.168,431.973L72.188,431.992C72.573,433.065 73.018,434.035 73.523,434.886C74.474,436.424 75.324,437.091 76.073,436.908C76.821,436.687 77.246,435.675 77.347,433.834C77.408,432.559 77.307,431.143 77.044,429.606C77.489,430.698 77.975,431.69 78.481,432.559C79.472,434.198 80.301,434.926 80.969,434.703C81.616,434.481 81.879,433.389 81.778,431.426C81.677,429.504 81.252,427.278 80.503,424.75C79.735,422.221 78.865,420.116 77.874,418.477C76.902,416.798 76.093,416.071 75.425,416.313C74.757,416.516 74.474,417.608 74.575,419.59C74.575,419.894 74.596,420.198 74.656,420.541L74.676,420.562L74.697,420.581L74.737,420.562L75.183,420.176L75.203,420.157L75.203,420.137C75.163,419.348 75.264,418.922 75.486,418.841C75.688,418.782 75.972,419.043 76.315,419.63C76.498,419.894 76.68,420.238 76.902,420.662C77.57,421.957 78.177,423.596 78.764,425.579C79.006,426.408 79.229,427.198 79.432,427.947C79.654,428.957 79.816,429.889 79.937,430.758C80.119,432.196 80.059,432.944 79.755,433.045L79.735,433.045C79.432,433.146 78.966,432.559 78.359,431.284L78.339,431.284C78.015,430.658 77.711,429.949 77.428,429.18L77.408,429.16L77.368,429.16L77.347,429.16L77.023,429.363L77.003,429.363C76.902,428.776 76.761,428.168 76.619,427.541C76.032,425.155 75.264,423.192 74.353,421.654C73.442,420.055 72.613,419.387 71.864,419.611C71.116,419.792 70.671,420.824 70.549,422.686C70.509,423.293 70.509,423.94 70.569,424.608L70.59,424.649ZM75.465,418.741L75.445,418.741C75.163,418.822 75.041,419.287 75.102,420.116L74.737,420.42C74.697,420.137 74.676,419.854 74.676,419.59C74.596,417.668 74.859,416.596 75.465,416.414C76.073,416.211 76.841,416.92 77.793,418.538C78.784,420.176 79.654,422.241 80.402,424.77C81.151,427.278 81.576,429.504 81.677,431.426C81.778,433.328 81.515,434.379 80.929,434.603C80.321,434.785 79.532,434.076 78.562,432.498C78.015,431.588 77.53,430.576 77.085,429.423L77.347,429.282C77.63,430.031 77.934,430.698 78.258,431.324C78.905,432.681 79.411,433.287 79.775,433.146C80.14,433.045 80.22,432.236 80.038,430.739C79.937,429.889 79.755,428.957 79.532,427.926C79.351,427.178 79.128,426.389 78.865,425.559C78.278,423.556 77.651,421.916 76.983,420.621C76.761,420.198 76.579,419.832 76.396,419.571C76.012,418.922 75.688,418.639 75.465,418.741ZM72.593,422.666C72.208,422.078 71.885,421.816 71.622,421.897C71.217,421.998 71.035,422.727 71.075,424.082L70.65,424.507C70.63,423.86 70.63,423.252 70.65,422.686C70.752,420.885 71.176,419.894 71.884,419.711C72.593,419.53 73.382,420.198 74.272,421.715C75.183,423.232 75.931,425.196 76.518,427.563C77.085,429.93 77.327,432.012 77.246,433.834C77.145,435.614 76.761,436.606 76.052,436.808C75.344,436.991 74.515,436.323 73.605,434.824C73.119,433.976 72.673,433.025 72.289,431.952L72.613,431.811C72.856,432.519 73.119,433.146 73.402,433.733C73.989,435.008 74.495,435.574 74.919,435.453C75.324,435.352 75.506,434.603 75.465,433.187C75.445,432.377 75.344,431.487 75.183,430.535C75.041,429.828 74.879,429.1 74.697,428.311C74.252,426.429 73.726,424.891 73.139,423.657C72.937,423.252 72.754,422.929 72.593,422.666Z" style="fill:rgb(209,211,212);fill-rule:nonzero;"/>
        </g>
        <g transform="matrix(4.16667,0,0,4.16667,0,0)">
            <path d="M75.445,418.741L75.465,418.741C75.688,418.639 76.012,418.922 76.397,419.571C76.579,419.832 76.761,420.198 76.983,420.621C77.651,421.916 78.278,423.556 78.865,425.559C79.128,426.388 79.351,427.178 79.532,427.926C79.755,428.957 79.937,429.889 80.038,430.739C80.22,432.236 80.14,433.045 79.775,433.146C79.411,433.287 78.905,432.681 78.258,431.324C77.934,430.698 77.63,430.031 77.347,429.282L77.085,429.423C77.53,430.576 78.015,431.588 78.562,432.498C79.532,434.076 80.321,434.785 80.929,434.603C81.515,434.379 81.778,433.328 81.677,431.426C81.576,429.504 81.151,427.278 80.402,424.77C79.654,422.241 78.784,420.176 77.793,418.538C76.841,416.919 76.073,416.211 75.465,416.414C74.859,416.596 74.596,417.668 74.676,419.59C74.676,419.854 74.697,420.137 74.737,420.42L75.102,420.116C75.041,419.286 75.163,418.822 75.445,418.741ZM79.391,425.377C78.804,423.354 78.157,421.695 77.489,420.379L77.489,420.36C77.266,419.914 77.044,419.549 76.862,419.266L76.882,419.266C76.275,418.316 75.749,417.951 75.284,418.214L75.263,418.214L75.223,418.235C75.284,417.487 75.405,417.061 75.627,416.94L75.648,416.94C75.992,416.899 76.558,417.527 77.307,418.801L77.327,418.822C78.278,420.42 79.128,422.463 79.876,424.932C80.605,427.401 81.009,429.585 81.11,431.467C81.191,432.985 81.07,433.854 80.746,434.076C80.564,434.076 80.321,433.936 80.059,433.652C80.645,433.43 80.807,432.438 80.585,430.658C80.483,429.787 80.301,428.836 80.079,427.805L80.059,427.784C79.876,427.035 79.654,426.227 79.391,425.377Z" style="fill:rgb(232,233,234);fill-rule:nonzero;"/>
        </g>
        <g transform="matrix(4.16667,0,0,4.16667,0,0)">
            <path d="M79.391,425.377L79.391,425.397L79.391,425.377C79.654,426.227 79.876,427.035 80.059,427.784L80.079,427.805C80.301,428.836 80.483,429.787 80.585,430.658C80.807,432.438 80.645,433.43 80.059,433.652C80.321,433.936 80.564,434.076 80.746,434.076C81.07,433.854 81.191,432.985 81.11,431.467C81.009,429.585 80.605,427.401 79.876,424.932C79.128,422.463 78.278,420.42 77.327,418.822L77.307,418.801C76.558,417.527 75.992,416.899 75.648,416.94L75.627,416.94C75.405,417.061 75.284,417.487 75.223,418.235L75.263,418.214L75.284,418.214C75.749,417.951 76.275,418.316 76.882,419.266L76.862,419.266C77.044,419.549 77.266,419.914 77.489,420.36L77.489,420.379C78.157,421.695 78.804,423.354 79.391,425.377Z" style="fill:white;fill-rule:nonzero;"/>
        </g>
        <g transform="matrix(4.16667,0,0,4.16667,0,0)">
            <path d="M71.622,421.897C71.884,421.816 72.208,422.078 72.593,422.666C72.754,422.929 72.937,423.252 73.139,423.657C73.726,424.891 74.252,426.429 74.697,428.311C74.879,429.1 75.041,429.828 75.183,430.535C75.344,431.487 75.445,432.377 75.465,433.187C75.506,434.603 75.324,435.352 74.919,435.453C74.495,435.574 73.989,435.008 73.402,433.733C73.119,433.146 72.856,432.519 72.613,431.811L72.289,431.952C72.674,433.025 73.119,433.976 73.605,434.824C74.515,436.323 75.344,436.991 76.052,436.808C76.761,436.606 77.145,435.614 77.246,433.834C77.327,432.012 77.085,429.93 76.518,427.563C75.931,425.196 75.183,423.232 74.272,421.715C73.382,420.198 72.593,419.53 71.885,419.711C71.176,419.894 70.752,420.885 70.65,422.686C70.63,423.252 70.63,423.86 70.65,424.507L71.075,424.082C71.035,422.727 71.217,421.998 71.622,421.897ZM72.026,420.238C72.492,420.176 73.078,420.764 73.786,421.978L73.786,421.998C74.676,423.475 75.405,425.377 75.972,427.683C76.538,429.99 76.781,432.033 76.68,433.814C76.599,435.25 76.335,436.059 75.891,436.262C75.668,436.282 75.445,436.181 75.183,435.957C75.79,435.776 76.073,434.846 76.012,433.166C75.992,432.336 75.891,431.426 75.729,430.434C75.587,429.727 75.405,428.957 75.223,428.168C74.757,426.246 74.231,424.668 73.625,423.414L73.625,423.434C73.422,422.989 73.24,422.625 73.078,422.362L73.058,422.362C72.492,421.472 71.965,421.127 71.48,421.351L71.46,421.351L71.379,421.37C71.52,420.743 71.723,420.36 72.026,420.238Z" style="fill:rgb(232,233,234);fill-rule:nonzero;"/>
        </g>
        <g transform="matrix(4.16667,0,0,4.16667,0,0)">
            <path d="M72.026,420.238C71.723,420.36 71.52,420.743 71.379,421.37L71.46,421.351L71.48,421.351C71.965,421.127 72.492,421.472 73.058,422.362L73.078,422.362C73.24,422.625 73.422,422.989 73.625,423.434L73.625,423.414C74.231,424.668 74.757,426.246 75.223,428.168C75.405,428.957 75.587,429.727 75.729,430.434C75.891,431.426 75.992,432.336 76.012,433.166C76.073,434.846 75.79,435.776 75.183,435.957C75.445,436.181 75.668,436.282 75.891,436.262C76.335,436.059 76.599,435.25 76.68,433.814C76.781,432.033 76.538,429.99 75.972,427.683C75.405,425.377 74.676,423.475 73.786,421.998L73.786,421.978C73.078,420.764 72.492,420.176 72.026,420.238Z" style="fill:white;fill-rule:nonzero;"/>
        </g>
        <g transform="matrix(4.16667,0,0,4.16667,0,0)">
            <path d="M68.02,346.936C68.02,346.288 67.899,345.742 67.656,345.297C67.434,344.831 67.15,344.609 66.806,344.609C66.462,344.609 66.179,344.831 65.957,345.297C65.714,345.742 65.592,346.288 65.592,346.936C65.592,347.583 65.714,348.129 65.957,348.574C66.179,349.04 66.462,349.262 66.806,349.262C67.15,349.262 67.434,349.04 67.656,348.574C67.899,348.129 68.02,347.583 68.02,346.936Z" style="fill:rgb(35,31,32);fill-rule:nonzero;"/>
        </g>
        <g transform="matrix(4.16667,0,0,4.16667,0,0)">
            <path d="M67.434,346.106C67.434,345.783 67.373,345.519 67.231,345.317C67.11,345.095 66.948,344.972 66.746,344.972C66.564,344.972 66.422,345.095 66.28,345.317C66.138,345.519 66.078,345.783 66.078,346.106C66.078,346.409 66.138,346.673 66.28,346.895C66.422,347.097 66.564,347.199 66.746,347.199C66.948,347.199 67.11,347.097 67.231,346.895C67.373,346.673 67.434,346.409 67.434,346.106Z" style="fill:white;fill-rule:nonzero;"/>
        </g>
        <g transform="matrix(4.16667,0,0,4.16667,0,0)">
            <path d="M55.213,347.097C55.213,346.449 55.092,345.903 54.849,345.458C54.626,344.993 54.343,344.77 53.999,344.77C53.655,344.77 53.372,344.993 53.149,345.458C52.906,345.903 52.785,346.449 52.785,347.097C52.785,347.745 52.906,348.291 53.149,348.736C53.372,349.202 53.655,349.424 53.999,349.424C54.343,349.424 54.626,349.202 54.849,348.736C55.092,348.291 55.213,347.745 55.213,347.097Z" style="fill:rgb(35,31,32);fill-rule:nonzero;"/>
        </g>
        <g transform="matrix(4.16667,0,0,4.16667,0,0)">
            <path d="M54.626,346.268C54.626,345.945 54.565,345.681 54.424,345.479C54.303,345.257 54.141,345.135 53.938,345.135C53.756,345.135 53.614,345.257 53.473,345.479C53.332,345.681 53.271,345.945 53.271,346.268C53.271,346.572 53.332,346.835 53.473,347.057C53.614,347.259 53.756,347.361 53.938,347.361C54.141,347.361 54.303,347.259 54.424,347.057C54.565,346.835 54.626,346.572 54.626,346.268Z" style="fill:white;fill-rule:nonzero;"/>
        </g>
    </g>
</svg>
