<?xml version="1.0" encoding="UTF-8" standalone="no"?>
<!DOCTYPE svg PUBLIC "-//W3C//DTD SVG 1.1//EN" "http://www.w3.org/Graphics/SVG/1.1/DTD/svg11.dtd">
<svg width="100%" height="100%" viewBox="0 0 582 1671" version="1.1" xmlns="http://www.w3.org/2000/svg" xmlns:xlink="http://www.w3.org/1999/xlink" xml:space="preserve" xmlns:serif="http://www.serif.com/" style="fill-rule:evenodd;clip-rule:evenodd;stroke-linejoin:round;stroke-miterlimit:1.41421;">
    <g transform="matrix(1,0,0,1,-2769.66,-3.52503)">
        <g transform="matrix(4.16667,0,0,4.16667,0,0)">
            <path d="M744.813,5.608C744.105,5.216 743.321,4.876 742.457,4.614C739.082,4.666 736.31,5.53 734.139,7.23L739.317,8.983L735.498,9.82C739.082,13.248 741.672,16.885 743.268,20.782L741.751,27.899L742.771,32.294L741.463,34.963C741.699,35.722 741.882,36.507 742.039,37.318L742.432,33.995C743.085,32.923 743.66,32.242 744.132,31.902C744.053,28.318 744.551,24.733 745.598,21.149C744.969,17.303 742.85,13.745 739.266,10.501C740.705,10.134 742.692,9.951 745.283,9.977C743.164,8.224 740.73,7.335 737.983,7.361C739.554,6.471 741.83,5.896 744.813,5.608Z" style="fill:rgb(90,70,63);fill-rule:nonzero;"/>
        </g>
        <g transform="matrix(4.16667,0,0,4.16667,0,0)">
            <path d="M735.498,9.82L739.317,8.983L734.139,7.23C736.31,5.53 739.082,4.666 742.457,4.614C738.664,3.489 733.588,3.803 727.204,5.608C728.225,4.117 729.978,2.547 732.437,0.846C726.969,0.925 721.578,4.483 716.269,11.469C716.504,8.591 717.445,5.608 719.119,2.521C716.217,3.044 714.176,6.158 712.998,11.861C711.01,12.751 709.519,14.137 708.498,15.995C707.164,14.896 706.221,13.326 705.646,11.311C705.123,14.556 705.438,17.565 706.588,20.338L704.05,17.879C703.658,22.405 704.207,26.722 705.672,30.882C705.803,30.175 706.013,29.914 706.3,30.149C706.326,30.149 706.326,30.175 706.352,30.201L708.629,32.137L709.701,31.091L709.701,22.012C711.898,18.82 714.253,16.335 716.792,14.556L718.23,14.791C721.971,17.748 725.635,19.449 729.219,19.867C727.152,18.585 725.738,16.989 725.007,15.053C728.513,15.446 732.594,15.21 737.277,14.399C736.414,15.498 734.896,16.414 732.673,17.146C734.922,18.585 737.303,20.521 739.815,22.954L737.826,27.48C739.371,29.574 740.574,31.98 741.385,34.676C741.411,34.754 741.438,34.858 741.463,34.963L742.771,32.294L741.751,27.899L743.268,20.783C741.672,16.885 739.082,13.248 735.498,9.82ZM734.398,17.355C734.844,17.146 735.263,16.937 735.655,16.727L741.699,22.196L740.338,26.722L740.992,28.03L741.019,28.056L740.992,28.082L741.961,32.19L741.62,32.896C740.861,30.882 739.92,29.051 738.742,27.402L740.547,23.268C740.6,23.137 740.626,22.981 740.6,22.824C740.574,22.64 740.495,22.51 740.364,22.405C738.297,20.39 736.31,18.69 734.398,17.355ZM716.792,12.071C716.817,12.044 716.869,11.992 716.896,11.94C721.057,6.419 725.294,3.123 729.559,2.05C728.538,2.861 727.728,3.672 727.1,4.483C723.332,7.021 720.402,9.533 718.309,12.071L716.792,12.071ZM715.482,11.416C715.457,11.547 715.482,11.678 715.563,11.809L714.803,12.986C712.736,14.216 711.376,15.419 710.722,16.649L708.969,16.649C709.047,16.571 709.126,16.492 709.205,16.387C710.119,14.66 711.506,13.405 713.338,12.594C713.442,12.541 713.547,12.463 713.625,12.358C713.704,12.254 713.756,12.149 713.783,12.018C714.594,8.12 715.797,5.53 717.393,4.221C716.294,6.681 715.666,9.088 715.482,11.416ZM706.195,14.53C706.535,15.079 706.902,15.55 707.347,15.995L708.498,20.076C708.184,21.673 707.295,22.379 705.855,22.196L707.347,30.018L706.875,29.599C706.85,29.574 706.823,29.548 706.797,29.521L706.771,29.521C706.482,29.286 706.195,29.207 705.959,29.233C705.045,26.12 704.625,22.928 704.756,19.657L706.038,20.913C706.169,21.044 706.352,21.097 706.535,21.123C706.719,21.149 706.875,21.097 707.033,20.992C707.189,20.887 707.295,20.757 707.347,20.573C707.398,20.39 707.398,20.207 707.32,20.05C706.588,18.297 706.221,16.466 706.195,14.53Z" style="fill:rgb(122,96,85);fill-rule:nonzero;"/>
        </g>
        <g transform="matrix(4.16667,0,0,4.16667,0,0)">
            <path d="M735.655,16.727C735.263,16.937 734.844,17.146 734.398,17.355C736.31,18.69 738.297,20.39 740.364,22.405C740.495,22.51 740.574,22.64 740.6,22.824C740.626,22.981 740.6,23.137 740.547,23.268L738.742,27.402C739.92,29.051 740.861,30.882 741.62,32.896L741.961,32.19L740.992,28.082C740.992,28.056 740.992,28.056 740.992,28.03L740.338,26.722L741.699,22.196L735.655,16.727Z" style="fill:rgb(175,135,126);fill-rule:nonzero;"/>
        </g>
        <g transform="matrix(4.16667,0,0,4.16667,0,0)">
            <path d="M716.896,11.94C716.869,11.992 716.817,12.044 716.792,12.071L718.309,12.071C720.402,9.533 723.332,7.021 727.1,4.483C727.728,3.672 728.538,2.861 729.559,2.05C725.294,3.123 721.057,6.419 716.896,11.94Z" style="fill:rgb(175,135,126);fill-rule:nonzero;"/>
        </g>
        <g transform="matrix(4.16667,0,0,4.16667,0,0)">
            <path d="M715.563,11.809C715.482,11.678 715.457,11.547 715.482,11.416C715.666,9.088 716.294,6.681 717.393,4.221C715.797,5.53 714.594,8.12 713.783,12.018C713.756,12.149 713.704,12.254 713.625,12.358C713.547,12.463 713.442,12.541 713.338,12.594C711.506,13.405 710.119,14.66 709.205,16.387C709.126,16.492 709.047,16.571 708.969,16.649L710.722,16.649C711.375,15.419 712.736,14.216 714.803,12.986L715.563,11.809Z" style="fill:rgb(175,135,126);fill-rule:nonzero;"/>
        </g>
        <g transform="matrix(4.16667,0,0,4.16667,0,0)">
            <path d="M707.347,15.995C706.902,15.55 706.535,15.079 706.195,14.53C706.221,16.466 706.588,18.297 707.32,20.05C707.398,20.207 707.398,20.39 707.347,20.574C707.295,20.757 707.189,20.887 707.033,20.992C706.875,21.097 706.719,21.149 706.535,21.123C706.352,21.097 706.169,21.044 706.038,20.913L704.756,19.657C704.625,22.928 705.045,26.12 705.959,29.234C706.195,29.207 706.482,29.286 706.771,29.521L706.797,29.521C706.823,29.548 706.85,29.574 706.875,29.599L707.347,30.018L705.855,22.196C707.295,22.379 708.184,21.673 708.498,20.076L707.347,15.995Z" style="fill:rgb(175,135,126);fill-rule:nonzero;"/>
        </g>
        <g transform="matrix(4.16667,0,0,4.16667,0,0)">
            <path d="M731.6,16.492C731.939,16.701 732.306,16.91 732.673,17.146C734.896,16.414 736.414,15.498 737.277,14.399C735.576,15.419 733.666,16.126 731.6,16.492Z" style="fill:rgb(74,58,54);fill-rule:nonzero;"/>
        </g>
        <g transform="matrix(4.16667,0,0,4.16667,0,0)">
            <path d="M732.673,17.146C732.306,16.91 731.939,16.701 731.6,16.492C730.24,16.727 728.8,16.832 727.283,16.78L731.967,19.946C731.103,19.998 730.213,19.971 729.323,19.893C729.271,19.867 729.244,19.867 729.219,19.867C725.635,19.449 721.971,17.748 718.23,14.791C714.908,16.701 712.58,19.344 711.271,22.719L711.35,32.425L709.257,36.245L712.814,33.551L713.704,22.693L717.943,18.611C722.6,21.41 728.303,22.876 735.053,22.954L734.347,26.774C736.938,29.417 739.03,32.033 740.626,34.676C741.149,35.565 741.62,36.454 742.039,37.318C741.882,36.507 741.699,35.722 741.463,34.963C741.438,34.858 741.411,34.754 741.385,34.676C740.574,31.98 739.371,29.574 737.826,27.48L739.815,22.954C737.303,20.521 734.922,18.585 732.673,17.146Z" style="fill:rgb(207,147,121);fill-rule:nonzero;"/>
        </g>
        <g transform="matrix(4.16667,0,0,4.16667,0,0)">
            <path d="M731.6,16.492C733.666,16.126 735.576,15.419 737.277,14.399C732.594,15.21 728.513,15.446 725.007,15.053C725.738,16.989 727.152,18.585 729.219,19.867C729.244,19.867 729.271,19.867 729.323,19.893C730.213,19.971 731.103,19.998 731.967,19.946L727.283,16.78C728.8,16.832 730.24,16.727 731.6,16.492Z" style="fill:rgb(90,70,63);fill-rule:nonzero;"/>
        </g>
        <g transform="matrix(4.16667,0,0,4.16667,0,0)">
            <path d="M718.23,14.791L716.792,14.556C714.253,16.335 711.898,18.82 709.701,22.012L709.701,31.091L708.629,32.137L706.352,30.201C706.797,30.62 707.424,32.112 708.236,34.676C708.42,35.277 708.603,35.905 708.813,36.611L709.257,36.245L711.35,32.425L711.271,22.719C712.58,19.344 714.908,16.701 718.23,14.791Z" style="fill:rgb(90,70,63);fill-rule:nonzero;"/>
        </g>
        <g transform="matrix(4.16667,0,0,4.16667,0,0)">
            <path d="M709.257,36.245L708.813,36.612C708.838,36.716 708.864,36.821 708.89,36.926L709.257,36.245Z" style="fill:rgb(122,96,85);fill-rule:nonzero;"/>
        </g>
        <g transform="matrix(4.16667,0,0,4.16667,0,0)">
            <path d="M709.257,36.245L708.89,36.926L708.89,38.469C707.555,34.701 706.404,32.975 705.489,33.315C705.489,33.393 705.489,33.498 705.489,33.602C705.489,33.969 705.489,34.335 705.515,34.676C705.672,39.149 706.562,41.451 708.184,41.609L708.969,39.856L708.969,45.821C708.969,46.004 708.969,46.161 708.995,46.318C709.126,48.228 709.857,50.033 711.191,51.76L713.914,55.475L715.955,58.248C724.326,62.931 731.313,60.525 736.938,51.027C738.795,48.28 740.051,45.533 740.678,42.786L742.117,39.201C742.117,39.176 742.117,39.176 742.117,39.149L742.274,39.96C744.184,40.143 745.23,37.579 745.414,32.294C745.126,31.614 744.707,31.483 744.132,31.902C743.66,32.242 743.085,32.923 742.432,33.995L742.039,37.318C741.62,36.454 741.149,35.565 740.626,34.676C739.03,32.033 736.938,29.417 734.347,26.774L735.053,22.954C728.303,22.876 722.6,21.41 717.943,18.611L713.704,22.693L712.814,33.551L709.257,36.245ZM716.817,57.882C712.396,53.643 710.067,49.615 709.832,45.768L709.832,39.777L711.898,45.533C711.637,49.143 713.286,53.251 716.817,57.882Z" style="fill:rgb(244,202,179);fill-rule:nonzero;"/>
        </g>
        <g transform="matrix(4.16667,0,0,4.16667,0,0)">
            <path d="M709.832,45.768C710.067,49.615 712.396,53.643 716.817,57.882C713.286,53.251 711.637,49.144 711.898,45.533L709.832,39.777L709.832,45.768Z" style="fill:rgb(241,217,206);fill-rule:nonzero;"/>
        </g>
        <g transform="matrix(4.16667,0,0,4.16667,0,0)">
            <path d="M708.813,36.612C708.603,35.905 708.42,35.277 708.236,34.676C707.424,32.112 706.797,30.62 706.352,30.201C706.326,30.175 706.326,30.149 706.3,30.149C706.013,29.914 705.803,30.175 705.672,30.882C705.568,31.431 705.515,32.242 705.489,33.315C706.404,32.975 707.555,34.701 708.89,38.469L708.89,36.926C708.864,36.821 708.838,36.716 708.813,36.612Z" style="fill:rgb(207,147,121);fill-rule:nonzero;"/>
        </g>
        <g transform="matrix(4.16667,0,0,4.16667,0,0)">
            <path d="M708.969,39.856L708.184,41.609C708.42,41.635 708.682,41.609 708.969,41.53L708.969,39.856Z" style="fill:rgb(194,136,115);fill-rule:nonzero;"/>
        </g>
        <g transform="matrix(4.16667,0,0,4.16667,0,0)">
            <path d="M745.807,34.676C745.754,33.602 745.623,32.792 745.414,32.294C745.23,37.579 744.184,40.143 742.274,39.96L742.615,41.635C744.473,41.74 745.545,39.987 745.832,36.376C745.859,35.748 745.832,35.173 745.807,34.676Z" style="fill:rgb(207,147,121);fill-rule:nonzero;"/>
        </g>
        <g transform="matrix(4.16667,0,0,4.16667,0,0)">
            <path d="M742.117,39.201L740.678,42.786C740.051,45.533 738.795,48.28 736.938,51.027C731.313,60.525 724.326,62.931 715.955,58.248C718.988,61.362 722.207,62.696 725.607,62.225C730.448,62.513 733.745,60.969 735.445,57.542L739.292,50.897L739.579,50.399C740.364,49.222 740.967,47.862 741.385,46.318C741.777,44.879 742.013,43.309 742.092,41.556C742.117,40.798 742.144,40.012 742.117,39.201Z" style="fill:rgb(207,147,121);fill-rule:nonzero;"/>
        </g>
        <g transform="matrix(4.16667,0,0,4.16667,0,0)">
            <path d="M742.274,39.96L742.117,39.149C742.117,39.176 742.117,39.176 742.117,39.201C742.144,40.012 742.117,40.798 742.092,41.556C742.274,41.582 742.432,41.609 742.615,41.635L742.274,39.96Z" style="fill:rgb(194,136,115);fill-rule:nonzero;"/>
        </g>
        <g transform="matrix(4.16667,0,0,4.16667,0,0)">
            <path d="M739.292,50.897L735.445,57.542C733.745,60.969 730.448,62.513 725.607,62.225C722.207,62.696 718.988,61.362 715.955,58.248L713.914,55.475L713.861,56.417L714.332,57.045L715.955,59.164C718.988,62.278 722.207,63.612 725.607,63.141C730.448,63.428 733.745,61.885 735.445,58.458L735.942,57.62L739.371,51.865L739.292,50.897Z" style="fill:rgb(194,136,115);fill-rule:nonzero;"/>
        </g>
        <g transform="matrix(4.16667,0,0,4.16667,0,0)">
            <path d="M735.942,68.059L735.942,57.62L735.445,58.458C733.745,61.885 730.448,63.428 725.607,63.141C722.207,63.612 718.988,62.278 715.955,59.164L715.745,72.036L713.835,70.205L714.332,57.045L713.861,56.417L713.312,66.15L713.102,69.891C713.887,70.911 714.725,71.906 715.588,72.873C727.127,83.261 733.928,81.638 735.942,68.059Z" style="fill:rgb(244,202,179);fill-rule:nonzero;"/>
        </g>
        <g transform="matrix(4.16667,0,0,4.16667,0,0)">
            <path d="M735.942,57.62L735.942,68.059C733.928,81.638 727.127,83.261 715.588,72.873C719.539,77.243 724.432,81.141 730.317,84.569C735.367,81.115 738.795,75.699 740.6,68.295L740.416,65.626L739.371,51.865L735.942,57.62Z" style="fill:rgb(207,147,121);fill-rule:nonzero;"/>
        </g>
        <g transform="matrix(4.16667,0,0,4.16667,0,0)">
            <path d="M744.314,67.536C743.87,66.045 742.588,65.391 740.416,65.626L740.6,68.295C738.795,75.699 735.367,81.115 730.317,84.569C724.432,81.141 719.538,77.243 715.588,72.873C714.725,71.906 713.887,70.911 713.102,69.891L713.312,66.15C711.768,66.281 710.748,66.908 710.198,68.033C709.806,69.211 709.988,70.493 710.722,71.906C715.09,78.734 721.632,84.49 730.317,89.121C737.251,85.144 741.908,77.949 744.314,67.536Z" style="fill:rgb(35,31,32);fill-rule:nonzero;"/>
        </g>
        <g transform="matrix(4.16667,0,0,4.16667,0,0)">
            <path d="M714.332,57.045L713.835,70.205L715.745,72.036L715.955,59.164L714.332,57.045Z" style="fill:rgb(241,217,206);fill-rule:nonzero;"/>
        </g>
        <g transform="matrix(4.16667,0,0,4.16667,0,0)">
            <path d="M744.314,67.536C741.908,77.949 737.251,85.144 730.317,89.121C721.632,84.49 715.09,78.734 710.722,71.906C709.988,70.493 709.806,69.211 710.198,68.033L671.843,91.005C669.122,100.737 667.213,110.417 666.088,120.019C673.544,120.019 680.137,121.432 685.893,124.231C688.535,121.066 691.152,115.31 693.768,106.99C693.611,113.4 692.459,120.019 690.34,126.795C689.975,127.92 689.582,129.045 689.189,130.17C689.006,130.72 688.797,131.295 688.588,131.845L694.735,148.092C697.326,150.263 699.602,154.79 701.564,161.644C701.932,164.209 702.166,166.825 702.245,169.493L700.309,172.633L702.114,176.217C702.035,177.185 701.957,178.179 701.853,179.174L699.523,191.68L696.41,196.755C697.012,197.305 697.641,197.828 698.295,198.325L698.557,196.912L717.603,197.149C727.779,201.621 734.373,200.915 737.408,195.029L750.595,187.101C749.076,173.444 749.6,158.4 752.19,141.97C760.039,130.092 763.859,112.746 763.623,89.958C766.108,98.985 767.104,107.879 766.553,116.617C767.521,116.069 768.463,115.624 769.432,115.231C772.833,113.818 776.233,113.269 779.635,113.556L778.039,96.839L744.314,67.536ZM764.436,90.874L767.757,94.719L769.406,114.682C768.646,114.97 767.888,115.336 767.129,115.728C767.521,107.565 766.632,99.272 764.436,90.874ZM675.141,94.38L675.375,94.04L675.323,94.275L675.141,94.38ZM709.492,69.08C709.439,69.891 709.596,70.728 709.988,71.618L675.113,93.019L669.725,119.627C668.729,119.548 667.709,119.522 666.689,119.496C667.814,110.156 669.671,100.789 672.314,91.344L709.492,69.08ZM689.137,131.845C689.32,131.348 689.503,130.85 689.688,130.353C689.765,130.092 689.869,129.83 689.947,129.595L696.619,146.261L701.329,154.162C704.285,160.206 705.148,165.543 703.972,170.2L702.663,172.659L704.73,176.427L701.539,193.982L697.954,195.238L699.969,191.968C699.994,191.889 700.021,191.837 700.047,191.784L702.376,179.279C702.376,179.252 702.376,179.252 702.376,179.226C702.48,178.232 702.559,177.238 702.637,176.27C702.637,176.165 702.611,176.06 702.584,175.982L700.91,172.659L702.689,169.782C702.742,169.677 702.768,169.572 702.768,169.493C702.689,166.799 702.453,164.156 702.088,161.566C702.088,161.54 702.088,161.54 702.063,161.514C700.073,154.581 697.771,150.002 695.18,147.778L689.137,131.845Z" style="fill:rgb(76,76,78);fill-rule:nonzero;"/>
        </g>
        <g transform="matrix(4.16667,0,0,4.16667,0,0)">
            <path d="M767.757,94.719L764.436,90.874C766.632,99.272 767.521,107.565 767.129,115.728C767.888,115.336 768.647,114.97 769.406,114.682L767.757,94.719Z" style="fill:rgb(125,127,130);fill-rule:nonzero;"/>
        </g>
        <g transform="matrix(4.16667,0,0,4.16667,0,0)">
            <path d="M709.988,71.618C709.596,70.728 709.439,69.891 709.492,69.08L672.314,91.344C669.671,100.789 667.814,110.156 666.689,119.496C667.709,119.522 668.729,119.548 669.725,119.627L675.113,93.019L709.988,71.618Z" style="fill:rgb(125,127,130);fill-rule:nonzero;"/>
        </g>
        <g transform="matrix(4.16667,0,0,4.16667,0,0)">
            <path d="M689.688,130.353C689.503,130.85 689.32,131.348 689.137,131.845L695.18,147.778C697.771,150.002 700.073,154.581 702.063,161.514C702.088,161.54 702.088,161.54 702.088,161.566C702.453,164.156 702.689,166.799 702.769,169.493C702.769,169.572 702.742,169.677 702.689,169.782L700.91,172.659L702.584,175.982C702.611,176.06 702.638,176.165 702.638,176.27C702.559,177.238 702.48,178.232 702.376,179.226C702.376,179.252 702.376,179.252 702.376,179.279L700.047,191.784C700.021,191.837 699.994,191.889 699.969,191.968L697.954,195.238L701.539,193.982L704.73,176.427L702.663,172.659L703.972,170.2C705.148,165.543 704.285,160.206 701.329,154.162L696.619,146.261L689.949,129.595C689.869,129.83 689.765,130.092 689.688,130.353Z" style="fill:rgb(125,127,130);fill-rule:nonzero;"/>
        </g>
        <g transform="matrix(4.16667,0,0,4.16667,0,0)">
            <path d="M682.701,131.688C679.353,128.103 673.648,125.984 665.564,125.33C664.962,132.106 664.779,138.83 665.014,145.554C663.026,164.104 671.059,183.779 689.084,204.526C691.622,208.581 692.904,212.297 692.931,215.672C697.928,212.035 701.355,207.979 703.16,203.532C711.191,205.337 716.138,204.526 718.047,201.125L701.878,199.921L701.853,200.078L695.73,200.078C688.797,193.276 685.003,186.29 684.323,179.096C683.879,167.715 681.287,156.857 676.553,146.522L682.701,131.688ZM666.271,126.194C667.16,126.272 668.023,126.377 668.835,126.508C667.631,133.362 667.264,140.165 667.762,146.888C667.082,159.107 671.215,172.659 680.163,187.598C687.332,195.84 692.381,204.211 695.311,212.742C694.762,213.212 694.213,213.683 693.611,214.155C693.271,211.067 691.989,207.717 689.765,204.108C689.738,204.08 689.713,204.055 689.688,204.029C671.817,183.465 663.838,163.999 665.799,145.633C665.799,145.607 665.799,145.554 665.799,145.528C665.59,139.118 665.747,132.656 666.271,126.194Z" style="fill:rgb(244,202,179);fill-rule:nonzero;"/>
        </g>
        <g transform="matrix(4.16667,0,0,4.16667,0,0)">
            <path d="M668.835,126.508C668.023,126.377 667.16,126.272 666.271,126.194C665.747,132.656 665.59,139.118 665.799,145.528C665.799,145.554 665.799,145.607 665.799,145.633C663.838,163.999 671.817,183.465 689.688,204.029C689.713,204.055 689.738,204.08 689.765,204.108C691.989,207.717 693.271,211.067 693.611,214.155C694.213,213.683 694.762,213.212 695.311,212.742C692.381,204.211 687.332,195.84 680.163,187.598C671.215,172.659 667.082,159.107 667.762,146.888C667.264,140.165 667.631,133.362 668.835,126.508Z" style="fill:rgb(241,217,206);fill-rule:nonzero;"/>
        </g>
        <g transform="matrix(4.16667,0,0,4.16667,0,0)">
            <path d="M665.564,125.33C673.648,125.984 679.353,128.103 682.701,131.688L676.553,146.522C681.287,156.857 683.879,167.715 684.323,179.096C685.003,186.29 688.797,193.276 695.73,200.078L701.853,200.078L701.878,199.921L700.806,199.843C699.916,199.399 699.078,198.901 698.295,198.325C697.641,197.828 697.012,197.305 696.41,196.755C691.099,191.706 688.247,183.098 687.803,170.88C687.385,161.488 685.475,153.116 682.047,145.763C684.662,141.028 686.834,136.397 688.588,131.845C688.797,131.295 689.006,130.72 689.189,130.17C680.843,125.775 672.969,124.153 665.564,125.33Z" style="fill:rgb(207,147,121);fill-rule:nonzero;"/>
        </g>
        <g transform="matrix(4.16667,0,0,4.16667,0,0)">
            <path d="M689.189,130.17C689.582,129.045 689.975,127.92 690.34,126.795C692.459,120.019 693.611,113.4 693.768,106.99C691.152,115.309 688.535,121.066 685.893,124.231C680.137,121.432 673.544,120.019 666.088,120.019C665.878,121.798 665.695,123.577 665.564,125.33C672.969,124.153 680.843,125.775 689.189,130.17Z" style="fill:rgb(35,31,32);fill-rule:nonzero;"/>
        </g>
        <g transform="matrix(4.16667,0,0,4.16667,0,0)">
            <path d="M698.295,198.325C699.078,198.901 699.916,199.398 700.806,199.843L701.878,199.921L718.047,201.125C718.545,203.034 718.047,204.421 716.504,205.285C721.475,208.006 726.105,209.262 730.422,209.026C733.091,208.869 735.629,208.162 738.035,206.907C740.338,205.677 742.536,203.95 744.604,201.727C743.688,201.308 742.929,200.654 742.274,199.764C742.144,199.581 742.039,199.371 741.908,199.189L751.902,194.505C754.467,192.046 757.527,190.555 761.059,190.032C761.609,189.273 762.105,188.462 762.551,187.624L760.354,175.432L758.104,170.959C757.606,162.822 758.076,154.502 759.516,146.025L760.799,144.089L760.799,141.342C761.792,138.909 762.654,136.45 763.414,134.016C764.723,129.673 765.639,125.304 766.162,120.909C772.23,116.827 778.039,116.095 783.612,118.711C783.561,117.193 783.481,115.702 783.402,114.237C783.01,107.095 782.356,100.371 781.467,94.066C770.269,83.261 757.894,74.417 744.314,67.536L778.039,96.839L779.635,113.556C776.234,113.269 772.833,113.818 769.432,115.231C768.463,115.624 767.521,116.069 766.553,116.617C767.104,107.879 766.108,98.985 763.623,89.958C763.859,112.746 760.039,130.092 752.19,141.97C749.6,158.4 749.076,173.444 750.595,187.101L737.408,195.029C734.373,200.915 727.779,201.621 717.603,197.149L698.557,196.912L698.295,198.325Z" style="fill:rgb(35,31,32);fill-rule:nonzero;"/>
        </g>
        <g transform="matrix(4.16667,0,0,4.16667,0,0)">
            <path d="M741.908,199.189C742.039,199.371 742.144,199.581 742.274,199.764C746.383,201.412 750.071,200.836 753.289,198.09L756.166,199.189L753.395,203.244C758.129,204.866 762.002,205.442 765.063,204.971C766.291,196.364 769.117,187.965 773.564,179.828C780.682,167.95 782.67,156.307 779.531,144.9L780.63,123.159C776.626,122.034 772.44,122.583 768.045,124.859C767.313,128.836 765.9,132.394 763.781,135.508C764.749,138.726 766.684,141.918 769.614,145.136L771.289,144.9C770.949,145.214 770.635,145.554 770.348,145.921C766.188,150.918 764.564,160.886 765.533,175.773C765.298,180.325 764.305,184.276 762.551,187.624C762.105,188.462 761.609,189.273 761.059,190.032C757.527,190.555 754.467,192.046 751.902,194.505L741.908,199.189ZM747.01,199.869C745.859,199.895 744.655,199.739 743.426,199.346L752.242,195.212C752.32,195.186 752.373,195.134 752.451,195.081C754.885,192.726 757.814,191.314 761.189,190.817C761.269,190.79 761.373,190.764 761.479,190.712C761.557,190.633 761.635,190.581 761.713,190.502C764.461,186.604 766.004,181.712 766.318,175.825C766.318,175.799 766.318,175.746 766.318,175.721C765.377,161.095 766.92,151.336 770.949,146.418C771.236,146.077 771.524,145.763 771.838,145.476L771.891,145.502C768.411,154.083 767.156,163.476 768.124,173.68C767.992,180.718 766.188,186.63 762.708,191.418C758.652,192.046 755.381,193.668 752.923,196.284L747.01,199.869ZM769.928,144.298C767.338,141.394 765.585,138.516 764.644,135.638C764.984,135.089 765.324,134.539 765.664,133.964L771.655,144.22C771.498,144.141 771.342,144.116 771.186,144.141L769.928,144.298Z" style="fill:rgb(244,202,179);fill-rule:nonzero;"/>
        </g>
        <g transform="matrix(4.16667,0,0,4.16667,0,0)">
            <path d="M743.426,199.346C744.655,199.739 745.859,199.895 747.01,199.869L752.923,196.284C755.383,193.668 758.652,192.046 762.708,191.418C766.188,186.63 767.992,180.718 768.124,173.68C767.156,163.476 768.411,154.083 771.891,145.502L771.838,145.476C771.524,145.763 771.236,146.077 770.949,146.418C766.92,151.336 765.377,161.095 766.318,175.721C766.318,175.746 766.318,175.799 766.318,175.825C766.004,181.712 764.461,186.604 761.713,190.502C761.635,190.581 761.557,190.633 761.479,190.712C761.374,190.764 761.269,190.79 761.189,190.817C757.814,191.314 754.885,192.726 752.451,195.081C752.373,195.134 752.32,195.186 752.242,195.212L743.426,199.346Z" style="fill:rgb(241,217,206);fill-rule:nonzero;"/>
        </g>
        <g transform="matrix(4.16667,0,0,4.16667,0,0)">
            <path d="M764.644,135.638C765.586,138.516 767.338,141.394 769.928,144.298L771.186,144.141C771.342,144.116 771.498,144.141 771.655,144.22L765.664,133.964C765.324,134.539 764.984,135.089 764.644,135.638Z" style="fill:rgb(241,217,206);fill-rule:nonzero;"/>
        </g>
        <g transform="matrix(4.16667,0,0,4.16667,0,0)">
            <path d="M769.614,145.136C769.851,145.397 770.112,145.659 770.348,145.921C770.635,145.554 770.949,145.214 771.289,144.9L769.614,145.136Z" style="fill:rgb(207,147,121);fill-rule:nonzero;"/>
        </g>
        <g transform="matrix(4.16667,0,0,4.16667,0,0)">
            <path d="M763.414,134.016C763.492,134.513 763.623,135.011 763.781,135.508C765.9,132.394 767.313,128.836 768.045,124.859C772.44,122.583 776.626,122.034 780.63,123.159L779.531,144.9C782.67,156.307 780.682,167.95 773.564,179.828C769.117,187.965 766.291,196.364 765.063,204.971C762.002,205.442 758.129,204.866 753.395,203.244C758.469,206.593 763.807,208.581 769.379,209.209C769.275,208.53 769.196,207.848 769.145,207.168C768.517,200.104 770.295,192.831 774.48,185.348C783.874,168.97 786.908,155.627 783.638,145.319C783.951,135.926 783.951,127.057 783.612,118.711C778.039,116.095 772.23,116.827 766.16,120.909C765.639,125.304 764.723,129.673 763.414,134.016Z" style="fill:rgb(207,147,121);fill-rule:nonzero;"/>
        </g>
        <g transform="matrix(4.16667,0,0,4.16667,0,0)">
            <path d="M756.166,199.189L753.289,198.09C750.071,200.836 746.383,201.412 742.274,199.764C742.929,200.654 743.688,201.308 744.603,201.727C747.297,202.983 751.144,202.145 756.166,199.189Z" style="fill:rgb(207,147,121);fill-rule:nonzero;"/>
        </g>
        <g transform="matrix(4.16667,0,0,4.16667,0,0)">
            <path d="M771.709,213.893L771.709,210.073L769.145,207.168C769.196,207.848 769.275,208.53 769.379,209.209C763.807,208.581 758.469,206.593 753.395,203.244L756.166,199.189C751.144,202.145 747.297,202.983 744.604,201.727C742.536,203.95 740.338,205.677 738.037,206.907C735.629,208.162 733.091,208.869 730.422,209.026C726.105,209.262 721.475,208.006 716.504,205.285C714.358,206.462 710.25,206.645 704.207,205.808C701.512,210.752 697.719,214.729 692.773,217.791C692.066,218.209 691.335,218.627 690.576,219.02C694.291,218.627 698.922,215.592 704.442,209.915C709.361,210.465 713.024,210.151 715.432,208.974L728.172,211.564L730.266,228.44L718.676,258.553L718.832,275.035C717.289,282.649 714.41,288.248 710.172,291.859C713.704,290.184 716.163,287.672 717.576,284.324L715.51,293.481L721.475,311.01C717.472,329.559 719.854,348.188 728.564,366.947L728.564,371.42C721.919,371.448 716.086,372.336 711.061,374.037C710.067,374.351 709.1,374.717 708.184,375.11L709.1,376.627C709.701,376.47 710.277,376.339 710.879,376.235C711.584,376.078 712.266,375.948 712.973,375.842C716.923,375.241 721.004,375.215 725.163,375.789C727.545,376.13 729.978,376.653 732.437,377.36C732.829,377.464 733.195,377.569 733.588,377.7L736.571,365.325C724.98,356.35 721.736,338.586 726.785,312.082L720.167,290.576L724.432,283.329L720.82,273.753C723.018,258.84 726.916,243.718 732.542,228.387L730.579,210.465L736.571,209.68L734.818,226.739L735.551,226.215C736.779,221.715 737.592,216.143 737.932,209.497L745.283,204.84C746.853,205.285 748.423,205.389 749.992,205.155L750.02,205.155C755.617,209.105 760.902,211.198 765.9,211.459C773.723,238.172 779.139,263.759 782.173,288.248C778.275,292.381 772.729,290.734 765.533,283.329C771.367,292.068 777.019,294.528 782.461,290.682L778.929,297.379C778.223,317.813 779.766,337.826 783.612,357.371L779.766,368.909C773.984,375.241 767.182,378.93 759.385,379.976C758.417,380.107 757.449,380.186 756.455,380.238L756.586,383.43C757.031,383.404 757.501,383.404 757.945,383.377C759.071,383.299 760.195,383.194 761.269,383.063C766.214,382.461 770.662,381.258 774.639,379.453C775.633,378.982 776.601,378.485 777.542,377.961C779.504,376.836 781.361,375.555 783.063,374.089C783.561,373.67 784.03,373.226 784.502,372.782L788.111,361.505C784.423,342.248 783.377,319.985 784.973,294.684C787.197,290.891 787.693,285.84 786.412,279.484L771.709,213.893Z" style="fill:rgb(164,150,128);fill-rule:nonzero;"/>
        </g>
        <g transform="matrix(4.16667,0,0,4.16667,0,0)">
            <path d="M765.9,211.459C760.902,211.198 755.617,209.105 750.02,205.155L749.992,205.155C748.423,205.389 746.853,205.285 745.283,204.84L737.932,209.497C737.591,216.143 736.779,221.715 735.55,226.215L734.818,226.739C745.492,244.268 753.472,262.765 758.73,282.256L758.73,294.606L761.923,297.274L765.115,299.943L761.949,299.943C761.923,317.028 760.354,333.379 757.239,348.946C759.018,351.223 760.327,353.473 761.189,355.748C761.844,357.528 762.236,359.307 762.341,361.086L759.986,357.58L755.748,364.069L756.455,380.238C757.449,380.186 758.417,380.107 759.385,379.976C767.182,378.93 773.984,375.241 779.766,368.909L783.612,357.371C779.766,337.826 778.223,317.813 778.929,297.379L782.461,290.682C777.019,294.528 771.367,292.068 765.533,283.329C772.729,290.734 778.275,292.381 782.173,288.248C779.139,263.759 773.723,238.172 765.9,211.459ZM759.516,282.256C759.516,282.178 759.516,282.125 759.49,282.047C754.257,262.713 746.383,244.346 735.865,226.948L736.021,226.843C736.152,226.739 736.256,226.608 736.31,226.424C736.44,225.901 736.597,225.378 736.728,224.828C748.03,241.678 756.324,260.881 761.582,282.465L761.582,293.088L765.611,299.341L759.516,294.24L759.516,282.256ZM762.733,300.728L765.115,300.728C765.821,319.696 764.277,335.498 760.458,348.11C762.158,349.967 763.336,352.95 763.99,357.057L763.127,360.93C762.996,359.098 762.603,357.293 761.923,355.487C761.059,353.237 759.777,350.987 758.076,348.764C761.112,333.484 762.654,317.472 762.733,300.728ZM756.56,364.278L760.014,358.992L761.688,361.532L758.967,364.88L759.359,379.164C758.652,379.27 757.92,379.348 757.188,379.401L756.56,364.278Z" style="fill:rgb(194,183,163);fill-rule:nonzero;"/>
        </g>
        <g transform="matrix(4.16667,0,0,4.16667,0,0)">
            <path d="M759.49,282.047C759.516,282.125 759.516,282.178 759.516,282.256L759.516,294.24L765.611,299.341L761.582,293.088L761.582,282.465C756.324,260.881 748.03,241.678 736.728,224.828C736.597,225.378 736.439,225.901 736.31,226.424C736.256,226.608 736.152,226.739 736.021,226.843L735.865,226.948C746.383,244.346 754.257,262.713 759.49,282.047Z" style="fill:rgb(217,210,201);fill-rule:nonzero;"/>
        </g>
        <g transform="matrix(4.16667,0,0,4.16667,0,0)">
            <path d="M765.115,300.728L762.733,300.728C762.654,317.472 761.112,333.484 758.076,348.764C759.777,350.987 761.059,353.237 761.923,355.487C762.603,357.293 762.996,359.098 763.127,360.93L763.99,357.057C763.336,352.95 762.158,349.967 760.458,348.11C764.277,335.498 765.821,319.696 765.115,300.728Z" style="fill:rgb(217,210,201);fill-rule:nonzero;"/>
        </g>
        <g transform="matrix(4.16667,0,0,4.16667,0,0)">
            <path d="M760.014,358.992L756.56,364.278L757.188,379.401C757.92,379.348 758.652,379.27 759.359,379.164L758.967,364.88L761.688,361.532L760.014,358.992Z" style="fill:rgb(217,210,201);fill-rule:nonzero;"/>
        </g>
        <g transform="matrix(4.16667,0,0,4.16667,0,0)">
            <path d="M761.923,297.274C761.923,298.164 761.923,299.053 761.949,299.943L765.115,299.943L761.923,297.274Z" style="fill:rgb(164,150,128);fill-rule:nonzero;"/>
        </g>
        <g transform="matrix(4.16667,0,0,4.16667,0,0)">
            <path d="M736.57,209.68L730.579,210.465L732.542,228.387L734.818,226.739L736.57,209.68Z" style="fill:rgb(194,183,163);fill-rule:nonzero;"/>
        </g>
        <g transform="matrix(4.16667,0,0,4.16667,0,0)">
            <path d="M716.504,205.285C718.047,204.421 718.545,203.034 718.047,201.125C716.138,204.526 711.191,205.337 703.16,203.532C701.355,207.979 697.928,212.035 692.931,215.672C692.931,216.378 692.879,217.084 692.773,217.79C697.719,214.729 701.512,210.752 704.207,205.808C710.25,206.645 714.358,206.462 716.504,205.285Z" style="fill:rgb(207,147,121);fill-rule:nonzero;"/>
        </g>
        <g transform="matrix(4.16667,0,0,4.16667,0,0)">
            <path d="M728.172,211.564L715.432,208.974C713.024,210.151 709.361,210.465 704.442,209.915C698.922,215.592 694.291,218.627 690.576,219.02C697.012,240.186 699.209,261.327 697.169,282.465L700.151,286.102L703.135,289.713L699.732,288.012C698.033,295.966 697.117,303.919 696.96,311.873C705.725,337.33 708.131,356.194 704.207,368.517L708.184,375.11C709.1,374.717 710.067,374.351 711.061,374.037C716.086,372.336 721.919,371.448 728.564,371.42L728.564,366.947C719.854,348.188 717.472,329.559 721.475,311.01L715.51,293.481L717.576,284.324C716.163,287.672 713.704,290.184 710.172,291.859C714.41,288.248 717.289,282.649 718.832,275.035L718.676,258.553L730.266,228.44L728.172,211.564ZM691.597,219.674C692.303,219.518 693.01,219.282 693.768,218.994C699.654,237.649 701.747,258.187 700.047,280.582L703.238,288.614L697.98,282.231C699.942,261.379 697.823,240.526 691.597,219.674ZM700.309,289.19L702.794,290.42C700.988,296.568 700.282,303.553 700.675,311.428C707.975,328.2 710.434,347.089 708.053,368.045L710.695,373.305C709.937,373.566 709.205,373.854 708.498,374.141L705.07,368.412C708.916,356.01 706.457,337.12 697.744,311.742C697.902,304.234 698.765,296.699 700.309,289.19Z" style="fill:rgb(194,183,163);fill-rule:nonzero;"/>
        </g>
        <g transform="matrix(4.16667,0,0,4.16667,0,0)">
            <path d="M693.768,218.994C693.009,219.282 692.303,219.518 691.597,219.674C697.823,240.526 699.942,261.379 697.98,282.231L703.238,288.614L700.047,280.582C701.747,258.187 699.654,237.649 693.768,218.994Z" style="fill:rgb(217,210,201);fill-rule:nonzero;"/>
        </g>
        <g transform="matrix(4.16667,0,0,4.16667,0,0)">
            <path d="M702.794,290.42L700.309,289.19C698.765,296.699 697.902,304.234 697.744,311.742C706.457,337.12 708.916,356.01 705.07,368.412L708.498,374.141C709.205,373.854 709.937,373.566 710.695,373.305L708.053,368.045C710.434,347.089 707.975,328.2 700.675,311.428C700.282,303.553 700.988,296.568 702.794,290.42Z" style="fill:rgb(217,210,201);fill-rule:nonzero;"/>
        </g>
        <g transform="matrix(4.16667,0,0,4.16667,0,0)">
            <path d="M703.135,289.713L700.152,286.102C700.021,286.731 699.863,287.359 699.732,288.012L703.135,289.713Z" style="fill:rgb(164,150,128);fill-rule:nonzero;"/>
        </g>
        <g transform="matrix(4.16667,0,0,4.16667,0,0)">
            <path d="M702.507,388.767C702.48,388.793 702.48,388.845 702.48,388.898C708.314,391.488 714.148,392.639 719.984,392.299L727.833,381.101L724.301,378.825L724.273,378.955L723.908,380.264L723.541,381.493L723.229,382.617L722.887,383.823L722.313,385.784L720.429,385.601L708.682,384.502L712.973,375.842C712.266,375.948 711.584,376.078 710.879,376.235L702.507,388.767Z" style="fill:rgb(88,89,91);fill-rule:nonzero;"/>
        </g>
        <g transform="matrix(4.16667,0,0,4.16667,0,0)">
            <path d="M702.48,388.898C702.191,389.657 701.983,390.415 701.826,391.174C709.57,396.38 716.817,397.061 723.594,393.241L732.437,377.36C729.978,376.654 727.545,376.13 725.163,375.789L724.588,377.883L724.301,378.825L727.832,381.101L719.982,392.299C714.148,392.639 708.314,391.488 702.48,388.898Z" style="fill:rgb(35,31,32);fill-rule:nonzero;"/>
        </g>
        <g transform="matrix(4.16667,0,0,4.16667,0,0)">
            <path d="M701.826,391.174C701.225,394.077 701.46,396.956 702.507,399.834C709.675,402.477 716.844,402.477 724.012,399.834L733.588,377.7C733.195,377.569 732.829,377.464 732.437,377.36L723.594,393.241C716.817,397.061 709.57,396.38 701.826,391.174Z" style="fill:rgb(220,221,222);fill-rule:nonzero;"/>
        </g>
        <g transform="matrix(4.16667,0,0,4.16667,0,0)">
            <path d="M720.898,378.799L720.795,380.368L723.908,380.264L724.273,378.955L720.898,378.799Z" style="fill:rgb(220,221,222);fill-rule:nonzero;"/>
        </g>
        <g transform="matrix(4.16667,0,0,4.16667,0,0)">
            <path d="M720.795,380.368L720.898,378.799L712.973,378.432L720.167,378.092L712.973,375.842L708.682,384.502L720.429,385.601L720.585,383.586L710.486,382.617L720.637,382.617L720.742,381.232L713.338,380.577L720.795,380.368Z" style="fill:white;fill-rule:nonzero;"/>
        </g>
        <g transform="matrix(4.16667,0,0,4.16667,0,0)">
            <path d="M724.588,377.883L725.163,375.789C721.004,375.215 716.923,375.241 712.971,375.842L720.167,378.092L724.588,377.883Z" style="fill:rgb(220,221,222);fill-rule:nonzero;"/>
        </g>
        <g transform="matrix(4.16667,0,0,4.16667,0,0)">
            <path d="M724.301,378.825L724.588,377.883L720.167,378.092L712.971,378.432L720.898,378.799L724.273,378.955L724.301,378.825Z" style="fill:rgb(181,183,185);fill-rule:nonzero;"/>
        </g>
        <g transform="matrix(4.16667,0,0,4.16667,0,0)">
            <path d="M723.908,380.264L720.795,380.368L713.338,380.577L720.742,381.232L723.541,381.493L723.908,380.264Z" style="fill:rgb(181,183,185);fill-rule:nonzero;"/>
        </g>
        <g transform="matrix(4.16667,0,0,4.16667,0,0)">
            <path d="M720.585,383.586L722.887,383.823L723.229,382.617L720.637,382.617L710.486,382.617L720.585,383.586Z" style="fill:rgb(181,183,185);fill-rule:nonzero;"/>
        </g>
        <g transform="matrix(4.16667,0,0,4.16667,0,0)">
            <path d="M722.887,383.823L720.585,383.586L720.429,385.601L722.313,385.784L722.887,383.823Z" style="fill:rgb(220,221,222);fill-rule:nonzero;"/>
        </g>
        <g transform="matrix(4.16667,0,0,4.16667,0,0)">
            <path d="M720.637,382.617L723.229,382.617L723.541,381.493L720.742,381.232L720.637,382.617Z" style="fill:rgb(220,221,222);fill-rule:nonzero;"/>
        </g>
        <g transform="matrix(4.16667,0,0,4.16667,0,0)">
            <path d="M775.998,380.499L776.077,380.577L777.045,380.159L775.998,380.499Z" style="fill:white;fill-rule:nonzero;"/>
        </g>
        <g transform="matrix(4.16667,0,0,4.16667,0,0)">
            <path d="M776.077,380.577L775.998,380.499L774.639,379.453C770.662,381.258 766.214,382.461 761.269,383.063C762.079,383.352 762.865,383.639 763.65,383.926L776.129,383.926L786.02,390.624L795.15,389.683L798.315,394.811C800.017,394.261 801.69,393.529 803.365,392.613L802.816,390.258C800.539,388.741 798.342,387.197 796.249,385.653L793.842,386.439L786.621,388.767L785.731,388.086L784.554,387.171L783.455,386.308L782.304,385.418L779.976,383.613L778.693,382.618L777.176,381.441L776.077,380.578L776.077,380.577Z" style="fill:rgb(35,31,32);fill-rule:nonzero;"/>
        </g>
        <g transform="matrix(4.16667,0,0,4.16667,0,0)">
            <path d="M775.998,380.499L777.045,380.159L784.502,376.836L781.754,378.563L783.586,377.935L784.815,378.955L786.281,378.092L785.077,379.164L787.563,381.232L788.583,380.395L787.746,381.389L790.336,383.534L791.355,382.88L790.52,383.665L793.842,386.439L796.249,385.653C791.278,381.912 786.883,378.066 783.063,374.089C781.361,375.555 779.504,376.836 777.542,377.961C776.601,378.485 775.633,378.982 774.639,379.453L775.998,380.499Z" style="fill:rgb(220,221,222);fill-rule:nonzero;"/>
        </g>
        <g transform="matrix(4.16667,0,0,4.16667,0,0)">
            <path d="M777.045,380.159L776.077,380.577L777.176,381.441L781.754,378.563L784.502,376.836L777.045,380.159Z" style="fill:rgb(181,183,185);fill-rule:nonzero;"/>
        </g>
        <g transform="matrix(4.16667,0,0,4.16667,0,0)">
            <path d="M787.563,381.232L785.077,379.164L779.976,383.613L782.304,385.418L787.563,381.232Z" style="fill:white;fill-rule:nonzero;"/>
        </g>
        <g transform="matrix(4.16667,0,0,4.16667,0,0)">
            <path d="M784.815,378.955L783.586,377.935L781.754,378.563L777.176,381.441L778.693,382.617L784.815,378.955Z" style="fill:white;fill-rule:nonzero;"/>
        </g>
        <g transform="matrix(4.16667,0,0,4.16667,0,0)">
            <path d="M786.281,378.092L784.815,378.955L778.693,382.617L779.976,383.613L785.077,379.164L786.281,378.092Z" style="fill:rgb(181,183,185);fill-rule:nonzero;"/>
        </g>
        <g transform="matrix(4.16667,0,0,4.16667,0,0)">
            <path d="M788.583,380.395L787.563,381.232L782.304,385.418L783.455,386.308L787.746,381.389L788.583,380.395Z" style="fill:rgb(181,183,185);fill-rule:nonzero;"/>
        </g>
        <g transform="matrix(4.16667,0,0,4.16667,0,0)">
            <path d="M762.341,361.086C762.236,359.307 761.844,357.528 761.189,355.748L759.986,357.58L762.341,361.086Z" style="fill:rgb(164,150,128);fill-rule:nonzero;"/>
        </g>
        <g transform="matrix(4.16667,0,0,4.16667,0,0)">
            <path d="M763.65,383.926C762.865,383.639 762.079,383.352 761.269,383.063C760.195,383.194 759.071,383.299 757.945,383.377L757.945,388.323C763.701,388.871 770.269,391.723 777.673,396.851C785.731,401.979 793.449,402.686 800.854,398.945C802.031,398.342 803.182,397.662 804.307,396.851L803.365,392.613C801.69,393.529 800.017,394.261 798.315,394.811C793.424,396.407 788.4,396.433 783.22,394.942C777.908,390.52 771.394,386.83 763.65,383.927L763.65,383.926Z" style="fill:rgb(220,221,222);fill-rule:nonzero;"/>
        </g>
        <g transform="matrix(4.16667,0,0,4.16667,0,0)">
            <path d="M790.52,383.665L791.355,382.88L790.336,383.534L784.554,387.171L785.731,388.086L790.52,383.665Z" style="fill:rgb(181,183,185);fill-rule:nonzero;"/>
        </g>
        <g transform="matrix(4.16667,0,0,4.16667,0,0)">
            <path d="M790.336,383.534L787.746,381.389L783.455,386.308L784.554,387.171L790.336,383.534Z" style="fill:white;fill-rule:nonzero;"/>
        </g>
        <g transform="matrix(4.16667,0,0,4.16667,0,0)">
            <path d="M785.731,388.086L786.621,388.767L793.842,386.439L790.52,383.665L785.731,388.086Z" style="fill:white;fill-rule:nonzero;"/>
        </g>
        <g transform="matrix(4.16667,0,0,4.16667,0,0)">
            <path d="M786.02,390.624L776.129,383.926L763.65,383.926C771.394,386.83 777.908,390.52 783.22,394.942C788.4,396.433 793.424,396.407 798.315,394.811L795.15,389.683L786.02,390.624Z" style="fill:rgb(88,89,91);fill-rule:nonzero;"/>
        </g>
        <g transform="matrix(4.16667,0,0,4.16667,0,0)">
            <path d="M712.266,29.835C711.584,30.123 711.584,30.515 712.266,30.96C715.273,30.515 718.178,30.856 721.004,32.033C721.998,31.667 721.449,31.091 719.355,30.332C717.262,29.548 715.719,29.207 714.751,29.286C713.783,29.364 712.973,29.548 712.266,29.835Z" style="fill:rgb(35,31,32);fill-rule:nonzero;"/>
        </g>
        <g transform="matrix(4.16667,0,0,4.16667,0,0)">
            <path d="M708.262,40.484L708.785,39.646C708.184,37.789 707.347,36.637 706.221,36.193C707.295,37.265 707.975,38.678 708.262,40.484Z" style="fill:rgb(194,136,115);fill-rule:nonzero;"/>
        </g>
        <g transform="matrix(4.16667,0,0,4.16667,0,0)">
            <path d="M727.885,44.512C726.053,44.487 724.457,43.885 723.098,42.707C723.018,40.954 723.541,38.207 724.666,34.466L723.621,30.568L724.091,34.676C722.547,37.789 721.632,40.771 721.291,43.623C723.359,45.376 725.556,45.69 727.885,44.512Z" style="fill:rgb(194,136,115);fill-rule:nonzero;"/>
        </g>
        <g transform="matrix(4.16667,0,0,4.16667,0,0)">
            <path d="M713.363,33.969C713.939,33.681 714.541,33.472 715.17,33.367L715.535,33.393C715.588,33.89 715.876,34.309 716.373,34.597C716.661,34.701 717,34.676 717.367,34.545C717.759,34.414 718.021,34.1 718.151,33.602L718.754,33.733C718.91,33.786 719.068,33.838 719.225,33.917C719.434,34.257 719.564,34.623 719.617,35.068L719.695,35.303L719.723,35.329L719.723,33.21C716.479,32.294 714.253,32.609 713.024,34.152C713.129,34.074 713.232,34.021 713.363,33.969Z" style="fill:rgb(35,31,32);fill-rule:nonzero;"/>
        </g>
        <g transform="matrix(4.16667,0,0,4.16667,0,0)">
            <path d="M715.17,33.367C714.541,33.472 713.939,33.681 713.363,33.969C715.09,35.591 717.184,35.957 719.617,35.068C719.564,34.623 719.434,34.257 719.225,33.917C719.068,33.838 718.91,33.786 718.754,33.733C718.361,34.754 717.785,35.303 717.027,35.329C716.217,35.355 715.613,34.701 715.17,33.367Z" style="fill:white;fill-rule:nonzero;"/>
        </g>
        <g transform="matrix(4.16667,0,0,4.16667,0,0)">
            <path d="M713.363,33.969C713.232,34.021 713.129,34.074 713.024,34.152C714.986,35.826 717.21,36.219 719.695,35.303L719.617,35.068C717.184,35.957 715.09,35.591 713.363,33.969Z" style="fill:rgb(194,136,115);fill-rule:nonzero;"/>
        </g>
        <g transform="matrix(4.16667,0,0,4.16667,0,0)">
            <path d="M715.17,33.367C715.613,34.701 716.217,35.355 717.027,35.329C717.785,35.303 718.361,34.754 718.754,33.733L718.151,33.602C718.021,34.1 717.759,34.414 717.367,34.545C717,34.676 716.661,34.701 716.373,34.597C715.876,34.309 715.588,33.89 715.535,33.393L715.17,33.367Z" style="fill:rgb(118,79,35);fill-rule:nonzero;"/>
        </g>
        <g transform="matrix(4.16667,0,0,4.16667,0,0)">
            <path d="M738.324,30.96C739.004,30.515 739.004,30.123 738.324,29.835C737.617,29.548 736.807,29.364 735.838,29.286C734.87,29.207 733.326,29.548 731.233,30.332C729.141,31.091 728.592,31.667 729.585,32.033C732.411,30.856 735.314,30.515 738.324,30.96Z" style="fill:rgb(35,31,32);fill-rule:nonzero;"/>
        </g>
        <g transform="matrix(4.16667,0,0,4.16667,0,0)">
            <path d="M735.053,33.393L735.42,33.367C736.048,33.472 736.648,33.681 737.225,33.969C737.355,34.021 737.461,34.074 737.564,34.152C736.335,32.609 734.111,32.294 730.867,33.21L730.867,35.329L730.893,35.303L730.972,35.068C731.023,34.623 731.154,34.257 731.364,33.917C731.521,33.838 731.678,33.786 731.836,33.733L732.437,33.602C732.567,34.1 732.829,34.414 733.222,34.545C733.588,34.676 733.928,34.701 734.216,34.597C734.713,34.309 735.001,33.89 735.053,33.393Z" style="fill:rgb(35,31,32);fill-rule:nonzero;"/>
        </g>
        <g transform="matrix(4.16667,0,0,4.16667,0,0)">
            <path d="M735.42,33.367L735.053,33.393C735.001,33.89 734.713,34.309 734.216,34.597C733.928,34.701 733.588,34.676 733.222,34.545C732.829,34.414 732.567,34.1 732.437,33.602L731.836,33.733C732.229,34.754 732.804,35.303 733.563,35.329C734.373,35.355 734.975,34.701 735.419,33.367L735.42,33.367Z" style="fill:rgb(118,79,35);fill-rule:nonzero;"/>
        </g>
        <g transform="matrix(4.16667,0,0,4.16667,0,0)">
            <path d="M737.225,33.969C736.648,33.681 736.048,33.472 735.42,33.367C734.975,34.701 734.373,35.355 733.563,35.329C732.804,35.303 732.229,34.754 731.836,33.733C731.678,33.786 731.521,33.838 731.364,33.917C731.154,34.257 731.023,34.623 730.972,35.068C733.404,35.957 735.498,35.591 737.225,33.969Z" style="fill:white;fill-rule:nonzero;"/>
        </g>
        <g transform="matrix(4.16667,0,0,4.16667,0,0)">
            <path d="M737.564,34.152C737.46,34.074 737.355,34.021 737.225,33.969C735.498,35.591 733.404,35.957 730.972,35.068L730.893,35.303C733.379,36.219 735.604,35.826 737.564,34.152Z" style="fill:rgb(194,136,115);fill-rule:nonzero;"/>
        </g>
        <g transform="matrix(4.16667,0,0,4.16667,0,0)">
            <path d="M742.929,39.149C743.216,37.344 743.896,35.931 744.969,34.859C743.844,35.303 743.008,36.454 742.405,38.312L742.929,39.149Z" style="fill:rgb(194,136,115);fill-rule:nonzero;"/>
        </g>
        <g transform="matrix(4.16667,0,0,4.16667,0,0)">
            <path d="M734.478,48.149L729.533,49.327C726.393,49.824 723.332,49.824 720.375,49.327L715.432,48.149L720.375,53.643C723.359,54.403 726.42,54.403 729.533,53.643L734.478,48.149ZM732.488,49.248L729.036,52.806C726.342,53.512 723.621,53.512 720.873,52.806L717.42,49.248L721.475,50.086C723.855,50.478 726.158,50.478 728.434,50.086L732.488,49.248Z" style="fill:rgb(194,136,115);fill-rule:nonzero;"/>
        </g>
        <g transform="matrix(4.16667,0,0,4.16667,0,0)">
            <path d="M729.036,52.806L732.488,49.248L728.434,50.086C726.158,50.478 723.855,50.478 721.475,50.086L717.42,49.248L720.873,52.806C723.621,53.512 726.342,53.512 729.036,52.806Z" style="fill:white;fill-rule:nonzero;"/>
        </g>
        <g transform="matrix(4.16667,0,0,4.16667,0,0)">
            <path d="M724.535,56.155C724.195,56.862 724.353,58.065 725.007,59.766L725.163,55.527L724.535,56.155Z" style="fill:rgb(194,136,115);fill-rule:nonzero;"/>
        </g>
        <g transform="matrix(4.16667,0,0,4.16667,0,0)">
            <path d="M734.347,34.047C734.216,34.178 734.059,34.257 733.876,34.257C733.719,34.257 733.563,34.178 733.432,34.047C733.301,33.917 733.248,33.786 733.248,33.629C733.248,33.55 733.248,33.472 733.273,33.393C733.353,33.367 733.404,33.367 733.483,33.367C733.823,33.341 734.139,33.367 734.478,33.393L734.478,33.42C734.504,33.472 734.529,33.55 734.529,33.629C734.529,33.786 734.478,33.917 734.347,34.047Z" style="fill:white;fill-rule:nonzero;"/>
        </g>
        <g transform="matrix(4.16667,0,0,4.16667,0,0)">
            <path d="M716.217,33.42C716.189,33.472 716.163,33.551 716.163,33.629C716.163,33.786 716.217,33.917 716.348,34.048C716.479,34.178 716.635,34.257 716.817,34.257C716.975,34.257 717.131,34.178 717.262,34.048C717.393,33.917 717.445,33.786 717.445,33.629C717.445,33.551 717.445,33.472 717.42,33.393C717.341,33.367 717.289,33.367 717.21,33.367C716.869,33.341 716.556,33.367 716.217,33.393L716.217,33.42Z" style="fill:white;fill-rule:nonzero;"/>
        </g>
    </g>
</svg>
