<?xml version="1.0" encoding="UTF-8" standalone="no"?>
<!DOCTYPE svg PUBLIC "-//W3C//DTD SVG 1.1//EN" "http://www.w3.org/Graphics/SVG/1.1/DTD/svg11.dtd">
<svg width="100%" height="100%" viewBox="0 0 164 728" version="1.1" xmlns="http://www.w3.org/2000/svg" xmlns:xlink="http://www.w3.org/1999/xlink" xml:space="preserve" xmlns:serif="http://www.serif.com/" style="fill-rule:evenodd;clip-rule:evenodd;stroke-linejoin:round;stroke-miterlimit:1.41421;">
    <g transform="matrix(1,0,0,1,-1740.14,-18.7125)">
        <g transform="matrix(4.16667,0,0,4.16667,0,0)">
            <path d="M441.974,5.03C442.423,5.181 442.823,5.38 443.223,5.53C439.225,5.58 436.375,6.93 434.626,9.579L431.827,20.175C430.978,24.373 431.277,27.921 432.827,30.82C432.477,30.57 432.177,30.32 431.827,30.07C430.078,27.921 429.778,25.022 430.828,21.474C430.828,21.424 430.828,21.424 430.878,21.424L432.327,13.527C432.877,10.179 433.977,7.829 435.626,6.43C437.225,5.08 439.324,4.581 441.974,5.03ZM443.673,5.28C443.173,5.08 442.623,4.881 442.073,4.681C436.525,3.681 433.177,6.63 431.927,13.478L430.527,21.324C429.378,25.072 429.729,28.071 431.577,30.32C432.077,30.67 432.577,31.07 433.077,31.47C435.525,30.221 435.976,26.722 434.326,20.924C433.927,20.574 433.826,19.524 434.076,17.825C434.076,17.676 434.076,17.575 434.076,17.476C434.126,17.426 434.126,17.325 434.126,17.275C435.176,12.128 438.625,9.278 444.372,8.629C444.473,8.679 444.572,8.679 444.722,8.729C446.121,8.629 446.571,7.98 446.121,6.78C445.372,6.231 444.522,5.731 443.673,5.28Z" style="fill:rgb(92,49,13);fill-rule:nonzero;"/>
        </g>
        <g transform="matrix(4.16667,0,0,4.16667,0,0)">
            <path d="M443.223,5.53C442.823,5.38 442.423,5.181 441.974,5.03C439.324,4.581 437.225,5.08 435.626,6.43C433.977,7.829 432.877,10.179 432.327,13.527L430.878,21.424C430.828,21.424 430.828,21.424 430.828,21.474C429.778,25.022 430.078,27.921 431.827,30.07C432.177,30.32 432.477,30.57 432.827,30.82C431.277,27.921 430.978,24.373 431.827,20.175L434.626,9.579C436.375,6.93 439.225,5.58 443.223,5.53Z" style="fill:rgb(173,94,37);fill-rule:nonzero;"/>
        </g>
        <g transform="matrix(4.16667,0,0,4.16667,0,0)">
            <path d="M444.622,9.879C446.472,11.078 447.371,12.628 447.221,14.526C447.921,18.525 447.471,21.874 445.872,24.522C443.522,26.922 440.224,26.072 435.976,22.023C437.825,25.372 440.224,27.071 443.123,27.071L442.673,35.368C445.821,39.767 446.521,41.866 444.672,41.716C446.921,43.016 448.421,43.165 449.271,42.216L444.772,35.068L445.972,26.072C447.321,25.022 448.271,23.123 448.771,20.425C449.12,19.075 449.12,17.476 448.771,15.676L448.371,14.577C448.57,11.528 447.371,9.579 444.722,8.73C444.572,8.679 444.473,8.679 444.372,8.629C438.625,9.279 435.176,12.128 434.126,17.275C434.126,17.325 434.126,17.426 434.076,17.476C434.076,17.575 434.076,17.676 434.076,17.825C436.825,12.027 440.374,9.379 444.622,9.879Z" style="fill:rgb(156,106,72);fill-rule:nonzero;"/>
        </g>
        <g transform="matrix(4.16667,0,0,4.16667,0,0)">
            <path d="M435.825,20.624C434.227,20.674 433.776,19.824 434.526,18.075C436.275,20.624 438.925,23.073 442.373,25.522C439.124,24.272 436.976,22.674 435.825,20.624ZM447.221,14.526C447.371,12.628 446.472,11.078 444.622,9.879C440.374,9.379 436.825,12.027 434.076,17.825C433.826,19.524 433.927,20.574 434.326,20.924C434.576,21.174 434.976,21.174 435.426,20.975C435.576,21.324 435.775,21.674 435.976,22.023C440.224,26.072 443.522,26.922 445.872,24.522C447.471,21.874 447.921,18.525 447.221,14.526Z" style="fill:rgb(214,159,110);fill-rule:nonzero;"/>
        </g>
        <g transform="matrix(4.16667,0,0,4.16667,0,0)">
            <path d="M434.526,18.075C433.776,19.824 434.227,20.674 435.825,20.624C436.976,22.674 439.124,24.272 442.373,25.522C438.925,23.073 436.275,20.624 434.526,18.075Z" style="fill:rgb(239,213,198);fill-rule:nonzero;"/>
        </g>
        <g transform="matrix(4.16667,0,0,4.16667,0,0)">
            <path d="M446.121,6.78C446.571,7.98 446.121,8.629 444.722,8.73C447.371,9.579 448.57,11.528 448.371,14.577L448.771,15.676C449.12,17.476 449.12,19.075 448.771,20.425C448.271,23.123 447.321,25.022 445.972,26.072L444.772,35.068L449.271,42.216C450.42,45.015 451.919,47.714 453.818,50.313C452.169,46.014 451.319,41.466 451.17,36.668C451.42,31.87 451.42,26.872 451.17,21.624L450.32,14.427C449.92,11.128 448.521,8.579 446.121,6.779L446.121,6.78Z" style="fill:rgb(49,25,10);fill-rule:nonzero;"/>
        </g>
        <g transform="matrix(4.16667,0,0,4.16667,0,0)">
            <path d="M435.426,20.975C434.976,21.174 434.576,21.174 434.326,20.924C435.976,26.722 435.525,30.221 433.077,31.47C437.225,34.719 440.374,38.967 442.523,44.115C442.573,43.465 442.573,42.815 442.573,42.216C442.573,41.565 442.573,40.966 442.523,40.316C442.173,34.969 440.224,30.271 436.575,26.122L435.976,22.023C435.775,21.674 435.576,21.324 435.426,20.975Z" style="fill:rgb(49,25,10);fill-rule:nonzero;"/>
        </g>
        <g transform="matrix(4.16667,0,0,4.16667,0,0)">
            <path d="M435.976,22.023L436.575,26.122C440.224,30.271 442.173,34.969 442.523,40.316C443.272,40.866 444.022,41.366 444.672,41.716C446.521,41.866 445.821,39.767 442.673,35.368L443.123,27.071C440.224,27.071 437.825,25.372 435.976,22.023Z" style="fill:rgb(214,159,110);fill-rule:nonzero;"/>
        </g>
        <g transform="matrix(4.16667,0,0,4.16667,0,0)">
            <path d="M427.429,64.106L433.177,48.913L434.227,50.063L428.979,63.607L433.526,83.1L432.477,83.799L427.429,64.106ZM431.577,30.32L427.679,33.219C434.626,35.668 436.075,41.116 432.027,49.663L426.629,63.857C426.829,66.256 427.179,68.655 427.629,71.054C428.578,75.702 430.078,80.351 432.027,84.998C443.272,85.599 448.221,83.449 446.871,78.602L445.172,67.655L447.621,62.907C450.02,59.759 450.97,56.061 450.42,51.812L447.771,44.715C446.621,44.515 445.521,44.115 444.422,43.465C443.772,43.115 443.173,42.665 442.573,42.216C442.573,42.815 442.573,43.465 442.523,44.115C440.374,38.967 437.225,34.719 433.077,31.47C432.577,31.07 432.077,30.67 431.577,30.32Z" style="fill:rgb(155,186,102);fill-rule:nonzero;"/>
        </g>
        <g transform="matrix(4.16667,0,0,4.16667,0,0)">
            <path d="M433.177,48.913L427.429,64.106L432.477,83.799L433.526,83.1L428.979,63.607L434.227,50.063L433.177,48.913Z" style="fill:rgb(222,228,196);fill-rule:nonzero;"/>
        </g>
        <g transform="matrix(4.16667,0,0,4.16667,0,0)">
            <path d="M427.529,33.819C427.679,34.119 427.779,34.469 427.929,34.868C424.73,39.616 422.831,45.114 422.281,51.462L420.832,63.407L422.781,71.754C422.381,71.903 421.981,72.054 421.631,72.304C420.882,69.455 420.332,66.656 419.982,63.857L420.432,59.509L420.432,59.459C420.481,46.514 422.831,37.968 427.529,33.819ZM420.032,59.459L419.632,63.857C419.982,66.855 420.582,69.855 421.432,72.903C422.631,72.054 424.03,71.504 425.58,71.254L424.03,63.257C429.328,49.813 430.527,39.767 427.679,33.22C422.631,37.317 420.082,46.064 420.032,59.459Z" style="fill:rgb(155,186,102);fill-rule:nonzero;"/>
        </g>
        <g transform="matrix(4.16667,0,0,4.16667,0,0)">
            <path d="M427.929,34.868C427.779,34.469 427.679,34.119 427.529,33.819C422.831,37.968 420.481,46.514 420.432,59.459L420.432,59.509L419.982,63.857C420.332,66.656 420.882,69.455 421.631,72.304C421.981,72.054 422.381,71.903 422.781,71.754L420.832,63.407L422.281,51.462C422.831,45.114 424.73,39.616 427.929,34.868Z" style="fill:rgb(222,228,196);fill-rule:nonzero;"/>
        </g>
        <g transform="matrix(4.16667,0,0,4.16667,0,0)">
            <path d="M426.629,63.857L432.027,49.663C436.075,41.116 434.626,35.668 427.679,33.219C430.527,39.767 429.328,49.813 424.03,63.257L425.58,71.254C426.229,71.105 426.93,71.054 427.629,71.054C427.179,68.655 426.829,66.256 426.629,63.856L426.629,63.857Z" style="fill:rgb(109,129,64);fill-rule:nonzero;"/>
        </g>
        <g transform="matrix(4.16667,0,0,4.16667,0,0)">
            <path d="M427.629,71.054C426.93,71.054 426.229,71.105 425.58,71.254L430.777,87.197L437.425,88.348C435.976,89.446 435.525,90.546 436.075,91.596L442.023,98.593C442.173,98.443 442.273,98.293 442.223,98.043C442.173,97.594 441.823,97.044 441.224,96.294C437.575,93.146 436.275,91.046 437.375,89.897C437.675,89.547 438.225,89.247 438.975,89.097L437.975,86.998L435.825,86.647L432.477,85.998C432.327,85.648 432.177,85.349 432.027,84.998C430.078,80.351 428.578,75.702 427.629,71.054Z" style="fill:rgb(156,106,72);fill-rule:nonzero;"/>
        </g>
        <g transform="matrix(4.16667,0,0,4.16667,0,0)">
            <path d="M421.831,73.054C422.181,72.804 422.581,72.604 422.98,72.403L432.377,96.943L432.228,97.243C432.177,97.294 432.177,97.394 432.228,97.493L433.227,100.492C432.727,99.843 432.327,99.143 432.027,98.293L432.027,98.243L429.378,92.495L428.629,89.996C428.578,89.996 428.578,89.996 428.578,89.946C428.528,89.797 428.429,89.696 428.379,89.597C427.429,87.697 426.579,85.849 425.729,83.999C424.13,80.301 422.831,76.652 421.831,73.054ZM425.38,84.148C426.229,85.998 427.129,87.848 428.079,89.747C428.129,89.897 428.229,89.996 428.278,90.097L429.028,92.646L431.678,98.394C432.177,99.843 432.977,100.942 434.026,101.691L432.577,97.394L432.977,96.544L434.626,98.293L438.524,101.492C438.774,101.442 438.925,101.391 439.024,101.292L434.776,96.943L434.776,95.744L437.425,98.643L437.825,98.993L439.774,100.442C439.974,100.592 440.174,100.692 440.324,100.742C440.773,100.892 441.023,100.842 441.073,100.592L436.676,96.444L436.575,94.295L441.474,98.493L441.724,98.693C441.873,98.643 441.974,98.643 442.023,98.593L436.075,91.596C435.525,90.546 435.976,89.446 437.425,88.347L430.777,87.197L425.58,71.254C424.03,71.504 422.631,72.054 421.432,72.903C422.431,76.602 423.73,80.351 425.38,84.148Z" style="fill:rgb(214,159,110);fill-rule:nonzero;"/>
        </g>
        <g transform="matrix(4.16667,0,0,4.16667,0,0)">
            <path d="M422.98,72.403C422.581,72.604 422.181,72.804 421.831,73.054C422.831,76.652 424.13,80.301 425.729,83.999C426.579,85.849 427.429,87.697 428.379,89.597C428.429,89.696 428.528,89.797 428.578,89.946C428.578,89.996 428.578,89.996 428.629,89.996L429.378,92.495L432.027,98.243L432.027,98.293C432.327,99.143 432.727,99.843 433.227,100.492L432.228,97.493C432.177,97.394 432.177,97.294 432.228,97.243L432.377,96.943L422.98,72.403Z" style="fill:rgb(239,213,198);fill-rule:nonzero;"/>
        </g>
        <g transform="matrix(4.16667,0,0,4.16667,0,0)">
            <path d="M428.079,89.747C427.129,87.848 426.229,85.998 425.38,84.148L424.78,90.996L425.33,90.796L428.079,89.747Z" style="fill:rgb(155,186,102);fill-rule:nonzero;"/>
        </g>
        <g transform="matrix(4.16667,0,0,4.16667,0,0)">
            <path d="M432.027,84.998C432.177,85.349 432.327,85.648 432.477,85.998L435.825,86.647C441.974,85.948 447.971,86.298 453.818,87.697C453.769,86.798 453.719,85.898 453.618,85.049C453.618,84.999 453.618,84.999 453.618,84.948C453.068,79.4 451.969,73.803 450.22,68.205L452.969,60.358C455.218,56.81 455.468,53.461 453.818,50.313C451.919,47.714 450.42,45.015 449.271,42.216C448.421,43.165 446.921,43.016 444.672,41.716C444.022,41.366 443.272,40.866 442.523,40.316C442.573,40.966 442.573,41.566 442.573,42.216C443.173,42.665 443.772,43.115 444.422,43.465C445.521,44.115 446.621,44.515 447.771,44.715L450.42,51.812C450.97,56.061 450.02,59.759 447.621,62.907L445.172,67.655L446.871,78.602C448.221,83.449 443.272,85.599 432.027,84.998Z" style="fill:rgb(109,129,64);fill-rule:nonzero;"/>
        </g>
        <g transform="matrix(4.16667,0,0,4.16667,0,0)">
            <path d="M437.975,86.998L438.975,89.097C438.225,89.247 437.675,89.547 437.375,89.897L450.92,92.146L444.022,113.037L441.974,129.53L440.674,134.278L439.924,149.323L438.075,155.22L440.924,160.618L438.824,169.014L448.07,165.816L447.271,159.419L443.973,156.469L445.972,151.322L444.172,133.928L444.172,130.929L444.972,129.78L448.371,117.785C449.47,115.286 450.42,112.737 451.22,110.088C451.47,109.438 451.669,108.739 451.869,107.989C452.02,107.339 452.169,106.639 452.319,105.99C452.869,103.541 453.269,101.091 453.568,98.643C453.918,95.294 454.019,91.896 453.868,88.447C453.868,88.197 453.868,87.947 453.818,87.697C447.971,86.298 441.974,85.948 435.825,86.647L437.975,86.998Z" style="fill:rgb(34,44,21);fill-rule:nonzero;"/>
        </g>
        <g transform="matrix(4.16667,0,0,4.16667,0,0)">
            <path d="M453.818,87.697C453.868,87.947 453.868,88.197 453.868,88.447L455.218,95.844L454.618,104.19L451.869,107.989C451.669,108.739 451.47,109.438 451.22,110.088C451.669,110.338 452.119,109.789 452.519,108.489C452.869,108.439 453.269,108.189 453.719,107.789L456.917,102.141L456.317,96.894L456.367,96.394C456.067,92.146 455.168,88.348 453.618,85.049C453.719,85.898 453.769,86.798 453.818,87.697Z" style="fill:rgb(156,106,72);fill-rule:nonzero;"/>
        </g>
        <g transform="matrix(4.16667,0,0,4.16667,0,0)">
            <path d="M454.618,104.19L455.218,95.844L453.868,88.447C454.019,91.896 453.918,95.294 453.568,98.644L454.068,103.041C454.118,103.391 454.219,103.64 454.318,103.84L452.319,105.99C452.169,106.639 452.02,107.339 451.869,107.989L454.618,104.19Z" style="fill:rgb(214,159,110);fill-rule:nonzero;"/>
        </g>
        <g transform="matrix(4.16667,0,0,4.16667,0,0)">
            <path d="M437.774,99.093L437.425,98.643L434.776,95.744L434.776,96.943L439.024,101.292C439.524,100.892 439.124,100.143 437.774,99.093Z" style="fill:rgb(156,106,72);fill-rule:nonzero;"/>
        </g>
        <g transform="matrix(4.16667,0,0,4.16667,0,0)">
            <path d="M425.729,91.046L426.779,90.647C426.279,99.093 427.029,108.439 429.078,118.684L429.078,123.833L428.528,129.18C425.38,135.378 423.58,141.576 423.081,147.723C423.081,147.773 423.081,147.873 423.081,147.923L422.531,160.618L419.482,164.917L419.632,170.614C419.082,170.914 418.532,171.314 418.083,171.864L418.583,164.066L420.932,160.068C420.932,160.018 420.932,159.919 420.932,159.868C420.481,149.123 422.231,139.077 426.18,129.78L427.229,128.281C427.279,128.231 427.329,128.181 427.329,128.13C427.279,125.582 427.479,123.682 428.028,122.433C428.079,122.383 428.079,122.334 428.079,122.283L428.079,119.184C426.029,109.888 425.229,100.492 425.729,91.046ZM437.825,98.993L437.774,99.093C439.124,100.143 439.524,100.892 439.024,101.292C438.925,101.391 438.774,101.442 438.524,101.492L434.626,98.293L432.977,96.544C433.026,97.394 433.326,98.293 433.826,99.192C434.776,100.542 434.926,101.391 434.227,101.841C434.126,101.792 434.076,101.742 434.026,101.691C432.977,100.942 432.177,99.843 431.678,98.394L429.028,92.646L428.278,90.097C428.229,89.996 428.129,89.897 428.079,89.747L425.33,90.796C424.83,100.343 425.63,109.838 427.729,119.234L427.679,122.283C427.179,123.533 426.93,125.482 426.979,128.13L425.88,129.581C421.932,138.926 420.132,149.022 420.582,159.868L418.232,163.966L417.633,173.063C418.232,172.113 418.883,171.463 419.632,171.064C420.432,170.514 421.331,170.314 422.281,170.364L427.429,153.071L430.828,136.927L434.076,130.23L433.576,125.182L440.324,100.742C440.174,100.692 439.974,100.592 439.774,100.442L437.825,98.993Z" style="fill:rgb(72,86,41);fill-rule:nonzero;"/>
        </g>
        <g transform="matrix(4.16667,0,0,4.16667,0,0)">
            <path d="M426.779,90.647L425.729,91.046C425.229,100.492 426.029,109.888 428.079,119.184L428.079,122.283C428.079,122.334 428.079,122.383 428.028,122.433C427.479,123.682 427.279,125.582 427.329,128.13C427.329,128.181 427.279,128.231 427.229,128.281L426.18,129.78C422.231,139.077 420.481,149.123 420.932,159.868C420.932,159.919 420.932,160.018 420.932,160.068L418.583,164.066L418.083,171.864C418.532,171.314 419.082,170.914 419.632,170.614L419.482,164.917L422.531,160.618L423.081,147.923C423.081,147.873 423.081,147.773 423.081,147.723C423.58,141.576 425.38,135.378 428.528,129.18L429.078,123.833L429.078,118.684C427.029,108.439 426.279,99.093 426.779,90.647Z" style="fill:rgb(115,135,66);fill-rule:nonzero;"/>
        </g>
        <g transform="matrix(4.16667,0,0,4.16667,0,0)">
            <path d="M434.026,101.691C434.076,101.742 434.126,101.792 434.227,101.841C434.926,101.391 434.776,100.542 433.826,99.192C433.326,98.293 433.026,97.394 432.977,96.544L432.577,97.394L434.026,101.691Z" style="fill:rgb(156,106,72);fill-rule:nonzero;"/>
        </g>
        <g transform="matrix(4.16667,0,0,4.16667,0,0)">
            <path d="M442.023,98.593C441.974,98.643 441.873,98.643 441.724,98.693L441.474,98.493L440.874,99.293C441.073,99.893 441.123,100.343 441.073,100.593C441.023,100.842 440.773,100.892 440.324,100.742L433.576,125.182L434.076,130.23L430.828,136.927L427.429,153.071L422.281,170.364C423.881,170.414 425.68,171.213 427.729,172.763C427.879,172.863 427.979,172.962 428.129,173.063C429.278,169.764 429.578,166.366 429.078,162.867L431.478,154.87L431.927,153.97L434.426,149.073L435.726,138.127C437.575,135.678 438.574,133.179 438.725,130.73L439.924,120.584L444.072,95.994L442.223,98.043C442.273,98.293 442.173,98.443 442.023,98.593Z" style="fill:rgb(34,44,21);fill-rule:nonzero;"/>
        </g>
        <g transform="matrix(4.16667,0,0,4.16667,0,0)">
            <path d="M441.073,100.593C441.123,100.343 441.073,99.893 440.874,99.293L439.524,98.043L436.575,94.295L436.676,96.444L441.073,100.592L441.073,100.593Z" style="fill:rgb(156,106,72);fill-rule:nonzero;"/>
        </g>
        <g transform="matrix(4.16667,0,0,4.16667,0,0)">
            <path d="M440.874,99.293L441.474,98.493L436.575,94.295L439.524,98.043L440.874,99.293Z" style="fill:rgb(72,86,41);fill-rule:nonzero;"/>
        </g>
        <g transform="matrix(4.16667,0,0,4.16667,0,0)">
            <path d="M436.075,138.277C436.525,137.727 436.875,137.128 437.225,136.578L436.726,144.325L434.276,156.219C433.927,157.969 434.376,159.619 435.726,161.118L434.276,167.964L435.226,169.914L433.677,170.463C433.677,170.414 433.677,170.414 433.627,170.414L433.127,169.464L434.076,161.618C434.126,161.568 434.126,161.467 434.076,161.418C434.076,161.368 434.076,161.318 434.026,161.267C432.477,160.118 431.927,157.719 432.277,154.071L434.776,149.222C434.776,149.172 434.776,149.172 434.776,149.123L436.075,138.277ZM441.224,96.294C441.823,97.044 442.173,97.594 442.223,98.043L444.072,95.994L439.924,120.584L438.725,130.73C438.574,133.179 437.575,135.678 435.726,138.127L434.426,149.073L431.927,153.97C431.527,157.819 432.127,160.318 433.776,161.567L432.727,169.514L433.326,170.564L433.326,170.963L438.824,169.014L440.924,160.618L438.075,155.22L439.924,149.323L440.674,134.278L441.974,129.53L444.022,113.037L450.92,92.146L437.375,89.897C436.275,91.046 437.575,93.146 441.224,96.294Z" style="fill:rgb(72,86,41);fill-rule:nonzero;"/>
        </g>
        <g transform="matrix(4.16667,0,0,4.16667,0,0)">
            <path d="M437.225,136.578C436.875,137.128 436.525,137.727 436.075,138.277L434.776,149.123C434.776,149.172 434.776,149.172 434.776,149.222L432.277,154.071C431.927,157.719 432.477,160.118 434.026,161.267C434.076,161.318 434.076,161.368 434.076,161.418C434.126,161.467 434.126,161.568 434.076,161.618L433.127,169.464L433.627,170.414C433.677,170.414 433.677,170.414 433.677,170.463L435.226,169.914L434.276,167.964L435.726,161.118C434.376,159.618 433.927,157.969 434.276,156.219L436.726,144.325L437.225,136.578Z" style="fill:rgb(115,135,66);fill-rule:nonzero;"/>
        </g>
        <g transform="matrix(4.16667,0,0,4.16667,0,0)">
            <path d="M454.068,103.041L453.568,98.643C453.269,101.091 452.869,103.541 452.319,105.99L454.318,103.84C454.219,103.64 454.118,103.391 454.068,103.041Z" style="fill:rgb(156,106,72);fill-rule:nonzero;"/>
        </g>
        <g transform="matrix(4.16667,0,0,4.16667,0,0)">
            <path d="M433.326,170.963L433.326,172.363L442.323,172.962C448.771,175.112 453.618,174.612 456.917,171.414L448.07,165.816L438.824,169.014L433.326,170.963Z" style="fill:rgb(35,31,32);fill-rule:nonzero;"/>
        </g>
        <g transform="matrix(4.16667,0,0,4.16667,0,0)">
            <path d="M419.632,171.064C418.883,171.463 418.232,172.113 417.633,173.063L417.633,177.711C421.432,179.36 424.88,179.56 428.028,178.411L427.729,172.763C425.68,171.213 423.881,170.414 422.281,170.364C421.331,170.314 420.432,170.514 419.632,171.064Z" style="fill:rgb(35,31,32);fill-rule:nonzero;"/>
        </g>
    </g>
</svg>
