<?xml version="1.0" encoding="UTF-8" standalone="no"?>
<!DOCTYPE svg PUBLIC "-//W3C//DTD SVG 1.1//EN" "http://www.w3.org/Graphics/SVG/1.1/DTD/svg11.dtd">
<svg width="100%" height="100%" viewBox="0 0 257 734" version="1.1" xmlns="http://www.w3.org/2000/svg" xmlns:xlink="http://www.w3.org/1999/xlink" xml:space="preserve" xmlns:serif="http://www.serif.com/" style="fill-rule:evenodd;clip-rule:evenodd;stroke-linejoin:round;stroke-miterlimit:1.41421;">
    <g transform="matrix(1,0,0,1,-2012.03,-10.195)">
        <g transform="matrix(4.16667,0,0,4.16667,0,0)">
            <path d="M508.746,10.179L508.547,15.376L507.896,10.179C507.747,5.681 510.896,3.281 517.343,2.932C511.545,3.981 508.696,6.38 508.746,10.179ZM519.442,2.682C518.992,2.632 518.492,2.581 517.992,2.531C511.046,1.932 507.497,4.53 507.347,10.278L508.196,16.176L509.296,16.176L510.846,8.979C512.895,7.279 515.393,6.43 518.293,6.43L523.44,7.829L519.442,2.682Z" style="fill:rgb(88,89,91);fill-rule:nonzero;"/>
        </g>
        <g transform="matrix(4.16667,0,0,4.16667,0,0)">
            <path d="M508.547,15.376L508.746,10.179C508.696,6.38 511.545,3.981 517.343,2.932C510.896,3.281 507.747,5.681 507.896,10.179L508.547,15.376Z" style="fill:rgb(167,169,172);fill-rule:nonzero;"/>
        </g>
        <g transform="matrix(4.16667,0,0,4.16667,0,0)">
            <path d="M512.844,23.723C511.195,23.373 510.196,21.224 509.796,17.275L510.695,16.376C510.796,19.524 511.495,21.974 512.844,23.723ZM524.99,14.677C524.69,14.577 524.391,14.826 524.09,15.427L522.741,15.576L520.991,8.879L518.093,7.63L512.044,9.528L509.296,16.176L508.196,16.176C507.847,18.175 508.097,19.625 508.996,20.475L509.296,17.226C509.396,18.675 509.646,19.975 509.996,21.124C510.346,22.174 510.796,23.023 511.346,23.773C517.393,26.772 521.19,25.223 522.741,19.175C524.29,18.825 525.189,17.625 525.34,15.676C525.29,15.427 525.29,15.177 525.29,14.927C525.189,14.826 525.09,14.727 524.99,14.677Z" style="fill:rgb(214,159,110);fill-rule:nonzero;"/>
        </g>
        <g transform="matrix(4.16667,0,0,4.16667,0,0)">
            <path d="M509.796,17.275C510.196,21.224 511.195,23.373 512.844,23.723C511.495,21.974 510.796,19.524 510.695,16.376L509.796,17.275Z" style="fill:rgb(239,213,198);fill-rule:nonzero;"/>
        </g>
        <g transform="matrix(4.16667,0,0,4.16667,0,0)">
            <path d="M524.09,15.427C524.391,14.826 524.69,14.577 524.99,14.677L524.99,9.828C524.89,5.63 523.041,3.231 519.442,2.682L523.44,7.829L518.293,6.43L522.091,8.48L524.09,15.427Z" style="fill:rgb(35,31,32);fill-rule:nonzero;"/>
        </g>
        <g transform="matrix(4.16667,0,0,4.16667,0,0)">
            <path d="M522.741,15.576L524.09,15.427L522.091,8.48L518.293,6.43C515.393,6.43 512.895,7.279 510.846,8.979L509.296,16.176L512.044,9.528L518.093,7.63L520.991,8.879L522.741,15.576Z" style="fill:rgb(156,106,72);fill-rule:nonzero;"/>
        </g>
        <g transform="matrix(4.16667,0,0,4.16667,0,0)">
            <path d="M522.541,27.522L522.541,23.523C523.141,22.573 523.541,21.374 523.789,19.925C524.89,20.124 525.39,18.725 525.34,15.676C525.189,17.625 524.29,18.825 522.741,19.175C521.19,25.223 517.393,26.772 511.346,23.773C512.344,25.122 513.693,25.922 515.443,26.172C516.793,26.422 517.942,26.422 518.992,26.172L519.542,28.921C517.343,31.37 514.344,31.97 510.596,30.72C514.395,34.868 519.341,34.269 525.39,28.921L522.541,27.522Z" style="fill:rgb(156,106,72);fill-rule:nonzero;"/>
        </g>
        <g transform="matrix(4.16667,0,0,4.16667,0,0)">
            <path d="M512.044,25.622L513.044,25.822L513.044,29.57L510.346,29.57L512.044,28.921L512.044,25.622ZM518.992,26.172C517.942,26.422 516.793,26.422 515.443,26.172C513.693,25.922 512.344,25.122 511.346,23.773L511.346,28.471L509.396,29.221C509.746,29.771 510.146,30.271 510.596,30.721C514.344,31.97 517.343,31.37 519.542,28.921L518.992,26.172Z" style="fill:rgb(214,159,110);fill-rule:nonzero;"/>
        </g>
        <g transform="matrix(4.16667,0,0,4.16667,0,0)">
            <path d="M513.044,25.822L512.044,25.622L512.044,28.921L510.346,29.57L513.044,29.57L513.044,25.822Z" style="fill:rgb(239,213,198);fill-rule:nonzero;"/>
        </g>
        <g transform="matrix(4.16667,0,0,4.16667,0,0)">
            <path d="M527.289,29.971L525.39,28.921C519.341,34.269 514.395,34.868 510.596,30.72C510.146,30.271 509.746,29.771 509.396,29.221C509.347,29.121 509.296,29.021 509.246,28.921L507.397,29.87L508.146,30.271L508.396,30.12L509.296,30.82L509.296,30.87L510.246,31.62L509.896,31.77C511.146,33.419 512.995,34.369 515.494,34.618C518.942,34.269 522.891,32.72 527.289,29.971Z" style="fill:rgb(35,31,32);fill-rule:nonzero;"/>
        </g>
        <g transform="matrix(4.16667,0,0,4.16667,0,0)">
            <path d="M527.289,29.971C522.891,32.72 518.942,34.269 515.494,34.619C512.995,34.369 511.146,33.419 509.896,31.77L496.852,36.718L502.049,54.561L501.249,70.355C499.85,72.804 499.7,75.152 500.8,77.302L497.9,88.597L496.151,88.797L498.501,78.601C498.501,78.551 498.501,78.501 498.501,78.451C498.301,77.151 498.201,75.952 498.251,74.853C498.351,72.703 498.851,70.954 499.75,69.605C499.8,69.555 499.8,69.505 499.8,69.455L500.399,54.411L496.002,35.918L508.146,30.271L507.397,29.87L495.602,35.769L500.05,54.461L499.45,69.404C498.501,70.804 498.001,72.604 497.951,74.853C497.9,75.952 498.001,77.151 498.15,78.501L495.702,89.197L514.443,86.748L514.443,84.599L529.788,72.453L529.788,65.156C529.788,65.106 529.788,65.057 529.788,65.007C529.188,57.26 529.938,49.563 531.987,41.916L537.935,35.769L527.289,29.971Z" style="fill:rgb(88,89,91);fill-rule:nonzero;"/>
        </g>
        <g transform="matrix(4.16667,0,0,4.16667,0,0)">
            <path d="M538.935,36.318L537.935,35.769L531.987,41.916C529.938,49.563 529.188,57.26 529.788,65.007L529.788,72.453L514.443,84.599L514.443,86.748L495.701,89.197C495.901,89.247 496.102,89.297 496.352,89.347C508.196,91.996 516.393,91.945 521.041,89.197L523.44,86.748C523.391,86.398 523.341,85.998 523.391,85.548C521.392,87.147 519.742,87.248 518.393,85.798L518.492,85.748L524.44,81.7L527.289,79.551L528.238,79.551L532.787,74.353L534.836,65.356C532.986,63.157 532.387,59.858 533.037,55.511L534.686,43.615C535.636,40.566 537.085,38.167 538.935,36.318Z" style="fill:rgb(35,31,32);fill-rule:nonzero;"/>
        </g>
        <g transform="matrix(4.16667,0,0,4.16667,0,0)">
            <path d="M509.296,17.226L508.996,20.475C509.246,20.725 509.596,20.975 509.996,21.124C509.646,19.975 509.396,18.675 509.296,17.226Z" style="fill:rgb(156,106,72);fill-rule:nonzero;"/>
        </g>
        <g transform="matrix(4.16667,0,0,4.16667,0,0)">
            <path d="M508.396,30.12L508.146,30.271L496.002,35.918L500.399,54.411L499.8,69.455C499.8,69.505 499.8,69.555 499.75,69.605C498.851,70.954 498.351,72.703 498.251,74.853C498.201,75.952 498.301,77.151 498.501,78.451C498.501,78.501 498.501,78.551 498.501,78.601L496.151,88.797L497.9,88.597L500.8,77.302C499.7,75.152 499.85,72.804 501.249,70.355L502.049,54.561L496.852,36.718L509.896,31.77L510.246,31.62L509.296,30.87L509.296,30.82L508.396,30.12Z" style="fill:rgb(167,169,172);fill-rule:nonzero;"/>
        </g>
        <g transform="matrix(4.16667,0,0,4.16667,0,0)">
            <path d="M494.402,72.854L491.403,78.001L491.604,92.596C492.553,92.745 493.402,93.195 494.103,94.045C494.202,94.195 494.303,94.295 494.353,94.395C495.202,90.696 495.701,86.198 495.752,80.95L497.951,74.853C498.001,72.604 498.501,70.804 499.45,69.404L500.05,54.461L495.602,35.769L496.951,57.909L494.402,72.854Z" style="fill:rgb(35,31,32);fill-rule:nonzero;"/>
        </g>
        <g transform="matrix(4.16667,0,0,4.16667,0,0)">
            <path d="M495.352,37.317L495.452,39.066L488.505,78.901L488.354,92.945C487.904,93.195 487.455,93.445 486.955,93.745L487.505,78.451L491.004,56.21C491.753,49.263 493.203,42.965 495.352,37.317ZM491.403,78.001L494.402,72.854L496.951,57.909L495.602,35.769C493.152,41.716 491.503,48.513 490.653,56.16L487.155,78.451L486.605,94.395C486.705,94.345 486.806,94.295 486.855,94.245C488.704,92.995 490.254,92.445 491.604,92.596L491.403,78.001Z" style="fill:rgb(88,89,91);fill-rule:nonzero;"/>
        </g>
        <g transform="matrix(4.16667,0,0,4.16667,0,0)">
            <path d="M495.452,39.066L495.352,37.317C493.203,42.965 491.753,49.263 491.004,56.21L487.505,78.451L486.955,93.745C487.455,93.445 487.904,93.195 488.354,92.945L488.505,78.901L495.452,39.067L495.452,39.066Z" style="fill:rgb(167,169,172);fill-rule:nonzero;"/>
        </g>
        <g transform="matrix(4.16667,0,0,4.16667,0,0)">
            <path d="M538.635,37.117L538.784,39.717L535.886,43.815C534.187,51.362 534.437,58.409 536.636,64.856L534.336,74.853L525.79,83.499C525.439,82.949 525.14,82.399 524.89,81.85L527.389,79.9L528.238,79.9C528.289,79.9 528.339,79.9 528.389,79.851C528.438,79.851 528.438,79.851 528.488,79.801L533.037,74.603C533.087,74.553 533.087,74.453 533.087,74.402L535.186,65.456C535.236,65.406 535.236,65.307 535.186,65.257C535.186,65.206 535.186,65.156 535.136,65.106C533.387,62.957 532.787,59.809 533.387,55.561L534.986,43.665C535.836,41.017 537.085,38.867 538.635,37.118L538.635,37.117ZM534.687,43.615L533.037,55.511C532.387,59.858 532.986,63.157 534.836,65.356L532.787,74.353L528.238,79.551L527.289,79.551L524.44,81.7C524.94,82.749 525.54,83.799 526.239,84.849C526.689,85.498 527.239,86.198 527.839,86.848L539.234,73.303L540.534,62.607L538.935,36.318C537.085,38.167 535.636,40.566 534.687,43.615Z" style="fill:rgb(88,89,91);fill-rule:nonzero;"/>
        </g>
        <g transform="matrix(4.16667,0,0,4.16667,0,0)">
            <path d="M538.784,39.717L538.635,37.117C537.085,38.867 535.836,41.017 534.986,43.665L533.387,55.561C532.787,59.809 533.387,62.957 535.136,65.106C535.186,65.156 535.186,65.206 535.186,65.257C535.236,65.307 535.236,65.406 535.186,65.456L533.087,74.402C533.087,74.453 533.087,74.553 533.037,74.603L528.488,79.801C528.438,79.851 528.438,79.851 528.389,79.851C528.339,79.9 528.289,79.9 528.238,79.9L527.389,79.9L524.89,81.85C525.14,82.399 525.439,82.949 525.79,83.499L534.336,74.853L536.635,64.856C534.437,58.409 534.187,51.362 535.886,43.815L538.784,39.717Z" style="fill:rgb(167,169,172);fill-rule:nonzero;"/>
        </g>
        <g transform="matrix(4.16667,0,0,4.16667,0,0)">
            <path d="M518.492,85.748C520.591,85.798 522.591,85.198 524.54,83.949C524.039,86.848 524.54,87.997 526.09,87.447C527.039,87.548 527.089,86.698 526.239,84.849C525.54,83.799 524.94,82.749 524.44,81.7L518.492,85.748Z" style="fill:rgb(214,159,110);fill-rule:nonzero;"/>
        </g>
        <g transform="matrix(4.16667,0,0,4.16667,0,0)">
            <path d="M524.54,83.949C522.591,85.198 520.591,85.798 518.492,85.748L518.393,85.798C519.742,87.248 521.392,87.147 523.391,85.548C523.341,85.998 523.391,86.398 523.44,86.748C523.891,88.997 526.09,89.797 530.088,89.097C529.238,88.347 528.488,87.598 527.839,86.848C527.239,86.198 526.689,85.498 526.239,84.849C527.089,86.698 527.039,87.548 526.09,87.447C524.54,87.997 524.039,86.848 524.54,83.949Z" style="fill:rgb(156,106,72);fill-rule:nonzero;"/>
        </g>
        <g transform="matrix(4.16667,0,0,4.16667,0,0)">
            <path d="M523.44,86.748L521.042,89.197C516.393,91.945 508.196,91.996 496.352,89.347L495.802,90.946C496.552,91.246 497.301,91.496 498.051,91.746C507.098,94.895 516.943,96.244 527.589,95.694L525.739,144.024L523.44,162.667L526.189,166.616L522.141,170.864C524.34,169.964 526.689,170.564 529.139,172.613L530.838,167.365L529.638,163.516L531.388,148.172C532.387,126.931 532.387,106.839 531.388,87.997L530.088,89.097C526.09,89.797 523.891,88.997 523.44,86.748Z" style="fill:rgb(47,95,112);fill-rule:nonzero;"/>
        </g>
        <g transform="matrix(4.16667,0,0,4.16667,0,0)">
            <path d="M527.839,86.848C528.488,87.598 529.238,88.348 530.088,89.097L531.388,87.997L532.087,87.298C533.986,86.848 535.485,85.049 536.535,81.899C540.983,77.352 543.582,71.654 544.382,64.807C543.982,53.562 542.184,44.064 538.935,36.318L540.534,62.607L539.234,73.303L527.839,86.848Z" style="fill:rgb(35,31,32);fill-rule:nonzero;"/>
        </g>
        <g transform="matrix(4.16667,0,0,4.16667,0,0)">
            <path d="M512.146,103.64L512.094,103.59L513.744,102.641L519.792,124.682C520.642,132.479 520.642,139.926 519.792,147.073L521.94,157.42L521.94,164.066L519.393,166.616L521.841,170.414C521.091,170.713 520.392,171.164 519.692,171.763L516.893,166.515L520.392,163.667C520.44,163.617 520.492,163.567 520.542,163.517C520.591,163.417 520.591,163.317 520.591,163.267L520.591,160.418C520.591,160.368 520.591,160.368 520.591,160.318L518.393,149.073L518.393,136.427C517.443,122.084 515.393,111.137 512.146,103.64ZM495.002,98.743C495.002,98.693 495.002,98.643 495.002,98.593L494.752,95.794L496.151,91.646C496.701,91.846 497.301,92.046 497.9,92.246L496.552,96.994L497.551,100.292L496.401,103.991C494.603,115.586 494.002,126.981 494.603,138.127L494.603,156.67L495.802,162.517L495.252,169.614C494.902,169.564 494.502,169.514 494.152,169.415C493.702,169.165 493.303,168.865 492.853,168.565L493.952,164.367C494.002,164.316 494.002,164.266 494.002,164.216L494.002,162.567C494.002,162.517 494.002,162.467 493.952,162.418L492.553,156.519L493.503,129.98C493.203,119.035 493.702,108.588 495.002,98.743ZM498.051,91.746C497.301,91.496 496.552,91.246 495.802,90.946L494.252,95.744L494.452,98.643C493.152,108.588 492.653,119.035 493.003,129.98L492.053,156.57L493.452,162.567L493.452,164.216L492.253,168.764C492.803,169.165 493.402,169.564 493.952,169.914C499.351,171.114 501.799,168.265 501.35,161.318L500.399,130.68C501.85,115.885 505.598,106.939 511.646,103.84C514.895,111.288 516.943,122.183 517.893,136.477L517.893,149.123L520.042,160.418L520.042,163.267L516.193,166.366L519.341,172.113L519.591,172.613C520.392,171.763 521.241,171.213 522.141,170.864L526.189,166.616L523.44,162.667L525.739,144.025L527.589,95.694C516.943,96.244 507.097,94.895 498.051,91.746Z" style="fill:rgb(68,130,158);fill-rule:nonzero;"/>
        </g>
        <g transform="matrix(4.16667,0,0,4.16667,0,0)">
            <path d="M495.002,98.593C495.002,98.643 495.002,98.693 495.002,98.743C493.702,108.588 493.203,119.035 493.503,129.98L492.553,156.519L493.952,162.418C494.002,162.467 494.002,162.517 494.002,162.567L494.002,164.216C494.002,164.266 494.002,164.316 493.952,164.367L492.853,168.565C493.303,168.865 493.702,169.165 494.152,169.415C494.502,169.514 494.902,169.564 495.252,169.614L495.802,162.517L494.603,156.67L494.603,138.127C494.002,126.981 494.603,115.586 496.401,103.991L497.551,100.292L496.552,96.994L497.9,92.246C497.301,92.046 496.701,91.846 496.151,91.646L494.752,95.794L495.002,98.593Z" style="fill:rgb(120,178,198);fill-rule:nonzero;"/>
        </g>
        <g transform="matrix(4.16667,0,0,4.16667,0,0)">
            <path d="M512.094,103.59L512.146,103.64C515.393,111.137 517.443,122.084 518.393,136.427L518.393,149.073L520.591,160.318L520.591,163.267C520.591,163.317 520.591,163.417 520.542,163.517C520.492,163.567 520.44,163.617 520.392,163.667L516.893,166.515L519.692,171.763C520.392,171.164 521.091,170.713 521.841,170.414L519.393,166.616L521.94,164.067L521.94,157.42L519.792,147.073C520.642,139.926 520.642,132.479 519.792,124.682L513.744,102.641L512.094,103.59Z" style="fill:rgb(120,178,198);fill-rule:nonzero;"/>
        </g>
        <g transform="matrix(4.16667,0,0,4.16667,0,0)">
            <path d="M494.252,95.744L494.103,94.045C493.402,93.195 492.553,92.745 491.604,92.596C490.254,92.445 488.704,92.995 486.855,94.245C488.954,93.495 491.004,93.396 493.003,93.945L493.452,98.743C493.753,98.793 494.103,98.793 494.452,98.643L494.252,95.744Z" style="fill:rgb(156,106,72);fill-rule:nonzero;"/>
        </g>
        <g transform="matrix(4.16667,0,0,4.16667,0,0)">
            <path d="M490.653,95.895L491.804,94.395L489.754,95.345L490.354,99.093L491.703,101.742L489.654,99.893L488.604,95.895L488.604,97.644L489.504,100.292L492.753,103.941C493.003,103.84 493.053,103.491 492.953,102.891C493.353,102.042 492.953,100.942 491.703,99.692L490.653,95.895Z" style="fill:rgb(156,106,72);fill-rule:nonzero;"/>
        </g>
        <g transform="matrix(4.16667,0,0,4.16667,0,0)">
            <path d="M489.754,95.345L491.803,94.395C491.953,96.994 492.503,98.443 493.452,98.743L493.003,93.945C491.004,93.396 488.954,93.495 486.855,94.245L487.755,98.043L487.655,96.494L488.904,100.093L491.304,102.941L492.104,103.84C492.354,103.991 492.603,103.991 492.753,103.941L489.504,100.292L488.604,97.644L488.604,95.895L489.654,99.893L491.703,101.742L490.354,99.093L489.754,95.345Z" style="fill:rgb(214,159,110);fill-rule:nonzero;"/>
        </g>
        <g transform="matrix(4.16667,0,0,4.16667,0,0)">
            <path d="M487.755,98.043L488.205,99.992L491.304,102.941L488.904,100.093L487.655,96.494L487.755,98.043Z" style="fill:rgb(156,106,72);fill-rule:nonzero;"/>
        </g>
        <g transform="matrix(4.16667,0,0,4.16667,0,0)">
            <path d="M505.697,132.129C505.897,119.784 507.896,110.388 511.646,103.84C505.598,106.939 501.85,115.885 500.399,130.68L501.35,161.318C501.799,168.265 499.351,171.114 493.952,169.914C498.45,172.713 502.749,173.762 506.897,173.113L506.897,169.764C508.047,167.115 508.047,164.516 506.897,161.868L505.697,132.129Z" style="fill:rgb(47,95,112);fill-rule:nonzero;"/>
        </g>
        <g transform="matrix(4.16667,0,0,4.16667,0,0)">
            <path d="M487.955,171.863C484.206,172.164 482.507,173.263 482.957,175.212C487.105,177.611 492.303,177.961 498.551,176.211L506.598,174.862L506.897,173.113C502.749,173.762 498.45,172.713 493.952,169.914C493.402,169.564 492.803,169.165 492.253,168.764L487.955,171.863Z" style="fill:rgb(35,31,32);fill-rule:nonzero;"/>
        </g>
        <g transform="matrix(4.16667,0,0,4.16667,0,0)">
            <path d="M529.038,175.711L529.139,172.613C526.689,170.564 524.34,169.964 522.141,170.864C521.241,171.213 520.392,171.763 519.591,172.613L519.341,172.113L519.341,176.112C518.343,177.911 519.892,178.711 524.039,178.561C527.439,178.76 529.088,177.811 529.038,175.711Z" style="fill:rgb(35,31,32);fill-rule:nonzero;"/>
        </g>
    </g>
</svg>
