<?xml version="1.0" encoding="UTF-8" standalone="no"?>
<!DOCTYPE svg PUBLIC "-//W3C//DTD SVG 1.1//EN" "http://www.w3.org/Graphics/SVG/1.1/DTD/svg11.dtd">
<svg width="100%" height="100%" viewBox="0 0 176 718" version="1.1" xmlns="http://www.w3.org/2000/svg" xmlns:xlink="http://www.w3.org/1999/xlink" xml:space="preserve" xmlns:serif="http://www.serif.com/" style="fill-rule:evenodd;clip-rule:evenodd;stroke-linejoin:round;stroke-miterlimit:1.41421;">
    <g transform="matrix(1,0,0,1,-1393.82,-1673.67)">
        <g transform="matrix(4.16667,0,0,4.16667,0,0)">
            <path d="M362.505,405.37C361.655,403.97 360.706,402.97 359.706,402.371C362.255,405.719 361.855,406.819 358.507,405.62C359.806,406.269 360.756,407.419 361.405,408.968C362.355,410.268 362.855,412.267 362.855,415.016L363.854,415.016C363.854,415.416 363.805,415.765 363.754,416.065C363.604,417.015 363.104,417.615 362.355,417.815C362.105,418.714 361.755,419.564 361.306,420.314L361.306,427.161L364.454,428.911C365.504,425.662 365.654,420.713 364.904,414.066C364.954,413.866 364.954,413.667 364.954,413.417C365.104,410.368 364.254,407.669 362.505,405.37Z" style="fill:rgb(191,158,114);fill-rule:nonzero;"/>
        </g>
        <g transform="matrix(4.16667,0,0,4.16667,0,0)">
            <path d="M361.405,408.968C360.756,407.419 359.806,406.269 358.507,405.62C358.157,405.42 357.757,405.27 357.357,405.12C354.408,405.67 352.109,406.67 350.36,408.119C349.51,409.818 348.96,411.867 348.811,414.316L351.109,408.869C353.309,407.569 355.558,406.92 357.907,406.969C359.956,408.518 361.206,411.617 361.755,416.166C359.706,423.712 356.107,425.662 351.01,421.913C351.16,422.212 351.359,422.513 351.609,422.813C353.958,425.312 356.058,425.761 357.957,424.212L357.957,428.711C358.307,437.607 355.908,440.656 350.71,437.857C353.109,442.405 355.808,442.905 358.856,439.256C361.306,436.307 363.155,432.859 364.454,428.911L361.306,427.161L361.306,420.314C361.755,419.564 362.105,418.714 362.355,417.815C363.105,417.615 363.604,417.015 363.754,416.065C363.805,415.765 363.854,415.416 363.854,415.016L362.855,415.016C362.855,412.267 362.355,410.268 361.405,408.968Z" style="fill:rgb(156,106,72);fill-rule:nonzero;"/>
        </g>
        <g transform="matrix(4.16667,0,0,4.16667,0,0)">
            <path d="M358.507,405.62C361.855,406.819 362.255,405.719 359.706,402.371C358.057,401.321 356.208,401.471 354.208,402.821C350.46,402.871 348.311,404.92 347.661,408.919L347.811,412.817C347.161,418.415 347.611,423.663 349.16,428.61L348.46,417.115C348.111,416.265 348.061,415.066 348.361,413.566L348.811,414.316C348.96,411.867 349.51,409.818 350.36,408.119C352.109,406.67 354.408,405.67 357.357,405.12C357.757,405.27 358.157,405.42 358.507,405.62Z" style="fill:rgb(227,210,150);fill-rule:nonzero;"/>
        </g>
        <g transform="matrix(4.16667,0,0,4.16667,0,0)">
            <path d="M352.459,424.662L352.559,428.56L349.11,431.759L348.361,430.41L351.659,427.861L351.659,423.663L352.459,424.662ZM357.957,428.711L357.957,424.212C356.058,425.761 353.958,425.312 351.609,422.813C351.359,422.513 351.16,422.213 351.01,421.913L350.959,427.161L349.16,428.61L347.361,430.01L349.81,435.908C350.06,436.607 350.36,437.257 350.71,437.857C355.908,440.656 358.307,437.607 357.957,428.711Z" style="fill:rgb(214,159,110);fill-rule:nonzero;"/>
        </g>
        <g transform="matrix(4.16667,0,0,4.16667,0,0)">
            <path d="M352.559,428.56L352.459,424.662L351.659,423.663L351.659,427.861L348.361,430.41L349.11,431.759L352.559,428.56Z" style="fill:rgb(239,213,198);fill-rule:nonzero;"/>
        </g>
        <g transform="matrix(4.16667,0,0,4.16667,0,0)">
            <path d="M371.352,431.16L364.454,428.911C363.155,432.859 361.306,436.307 358.856,439.256C355.808,442.905 353.109,442.405 350.71,437.857C350.36,437.257 350.06,436.607 349.81,435.908L347.361,430.01L346.262,430.31C347.211,436.357 349.41,440.706 352.859,443.405C356.708,444.804 359.656,443.155 361.655,438.457L366.253,431.059C370.702,433.758 373.301,437.657 374,442.705L372.701,460.998C373.9,460.998 375.15,461.447 376.5,462.397L376.5,449.102C376.799,440.456 375.1,434.508 371.352,431.16Z" style="fill:rgb(203,49,146);fill-rule:nonzero;"/>
        </g>
        <g transform="matrix(4.16667,0,0,4.16667,0,0)">
            <path d="M349.51,414.316L350.31,412.966C350.46,418.214 351.709,421.513 354.158,422.962C351.109,422.013 349.56,419.165 349.51,414.316ZM361.755,416.166C361.206,411.617 359.956,408.518 357.907,406.969C355.558,406.92 353.309,407.569 351.109,408.869L348.811,414.316L348.361,413.566C348.061,415.066 348.111,416.265 348.46,417.115C348.661,417.665 348.96,418.065 349.41,418.365C349.76,419.614 350.31,420.813 351.01,421.913C356.107,425.662 359.706,423.712 361.755,416.166Z" style="fill:rgb(214,159,110);fill-rule:nonzero;"/>
        </g>
        <g transform="matrix(4.16667,0,0,4.16667,0,0)">
            <path d="M350.31,412.966L349.51,414.316C349.56,419.165 351.109,422.013 354.158,422.962C351.709,421.513 350.46,418.214 350.31,412.966Z" style="fill:rgb(239,213,198);fill-rule:nonzero;"/>
        </g>
        <g transform="matrix(4.16667,0,0,4.16667,0,0)">
            <path d="M349.41,418.365C348.96,418.065 348.661,417.665 348.46,417.115L349.16,428.61L350.959,427.161L351.01,421.913C350.31,420.813 349.76,419.614 349.41,418.365Z" style="fill:rgb(191,158,114);fill-rule:nonzero;"/>
        </g>
        <g transform="matrix(4.16667,0,0,4.16667,0,0)">
            <path d="M369.302,439.506C369.302,439.456 369.302,439.406 369.302,439.356L371.052,441.456C371.202,444.604 371.001,447.753 370.552,450.801L370.552,460.897C370.252,460.998 369.952,461.147 369.702,461.347L369.702,450.301C370.252,446.803 370.102,443.205 369.302,439.506ZM344.162,454.1C343.663,453.001 343.263,451.901 342.963,450.851C341.913,447.353 341.763,443.955 342.463,440.656C342.613,445.404 343.612,449.802 345.512,453.95C345.662,459.098 345.012,463.646 343.462,467.594C343.313,467.245 343.213,466.945 343.063,466.645C344.362,462.497 344.762,458.398 344.212,454.251C344.162,454.2 344.162,454.15 344.162,454.1ZM345.812,431.009C345.862,431.46 345.961,431.96 346.062,432.409L341.264,433.808C338.765,435.658 337.415,439.056 337.265,444.054C337.265,444.104 337.265,444.154 337.265,444.204L336.116,461.947C335.766,462.047 335.466,462.197 335.166,462.447L336.065,446.053C336.416,438.606 338.265,433.959 341.663,432.109L345.812,431.009ZM346.262,430.31L341.414,431.609C337.815,433.459 335.866,438.306 335.516,446.053L334.516,463.796C335.316,462.796 336.266,462.296 337.365,462.296L340.114,451.351C339.064,445.604 339.664,442.005 341.913,440.505C341.164,443.904 341.363,447.403 342.413,451.002C342.763,452.101 343.163,453.201 343.663,454.3C344.212,458.449 343.813,462.546 342.463,466.695C343.363,468.644 344.112,470.944 344.712,473.543C352.759,472.343 359.556,469.594 365.104,465.345L363.955,460.748L363.955,453.1C366.703,449.552 368.303,445.053 368.752,439.606C369.552,443.254 369.702,446.803 369.152,450.252L369.152,462.397C370.302,461.447 371.451,460.998 372.701,460.998L374,442.705C373.301,437.657 370.702,433.758 366.253,431.059L361.655,438.457C359.656,443.155 356.708,444.804 352.859,443.405C349.41,440.706 347.211,436.357 346.262,430.31Z" style="fill:rgb(213,106,169);fill-rule:nonzero;"/>
        </g>
        <g transform="matrix(4.16667,0,0,4.16667,0,0)">
            <path d="M346.062,432.409C345.961,431.96 345.862,431.46 345.812,431.009L341.663,432.109C338.265,433.959 336.416,438.606 336.065,446.053L335.166,462.447C335.466,462.197 335.766,462.047 336.116,461.947L337.265,444.204C337.265,444.154 337.265,444.104 337.265,444.054C337.415,439.056 338.765,435.658 341.264,433.808L346.062,432.409Z" style="fill:rgb(237,173,206);fill-rule:nonzero;"/>
        </g>
        <g transform="matrix(4.16667,0,0,4.16667,0,0)">
            <path d="M342.963,450.851C343.263,451.901 343.663,453.001 344.162,454.1C344.162,454.15 344.162,454.2 344.212,454.251C344.762,458.398 344.362,462.497 343.063,466.645C343.213,466.945 343.313,467.245 343.462,467.594C345.012,463.646 345.662,459.098 345.512,453.95C343.612,449.802 342.613,445.404 342.463,440.656C341.763,443.955 341.913,447.353 342.963,450.851Z" style="fill:rgb(237,173,206);fill-rule:nonzero;"/>
        </g>
        <g transform="matrix(4.16667,0,0,4.16667,0,0)">
            <path d="M369.302,439.356C369.302,439.406 369.302,439.456 369.302,439.506C370.102,443.205 370.252,446.803 369.702,450.301L369.702,461.347C369.952,461.147 370.252,460.998 370.552,460.897L370.552,450.801C371.001,447.753 371.202,444.604 371.052,441.456L369.302,439.356Z" style="fill:rgb(237,173,206);fill-rule:nonzero;"/>
        </g>
        <g transform="matrix(4.16667,0,0,4.16667,0,0)">
            <path d="M341.913,440.505C339.664,442.005 339.064,445.604 340.114,451.351L337.365,462.296C338.415,462.347 339.614,462.846 340.964,463.796L342.413,451.002C341.363,447.403 341.164,443.904 341.913,440.505Z" style="fill:rgb(203,49,146);fill-rule:nonzero;"/>
        </g>
        <g transform="matrix(4.16667,0,0,4.16667,0,0)">
            <path d="M353.758,487.537L354.408,488.086L355.308,488.086L353.458,488.836L352.109,488.436L353.758,487.537ZM370.652,462.047L370.652,463.946C368.953,467.295 366.703,472.693 363.955,480.089C363.955,480.14 363.955,480.14 363.955,480.19L363.904,480.19C363.955,480.14 363.955,480.14 363.955,480.089L357.407,482.789C357.507,482.739 357.607,482.639 357.657,482.539C357.707,482.439 357.707,482.338 357.707,482.189C357.657,482.089 357.607,481.989 357.557,481.889L357.507,481.839L357.707,481.889C357.807,481.889 357.907,481.889 357.957,481.839C358.057,481.789 358.157,481.739 358.207,481.689C358.856,480.889 359.856,480.49 361.105,480.54C362.305,480.839 363.305,480.29 364.104,478.89C364.104,478.84 364.104,478.791 364.154,478.741C364.504,477.491 364.854,476.292 365.254,475.091C366.454,471.244 367.753,467.745 369.202,464.696L369.252,464.696C369.352,464.446 369.502,464.146 369.652,463.846C369.702,463.796 369.702,463.696 369.702,463.596L369.702,462.697C370.052,462.447 370.352,462.197 370.652,462.047ZM344.762,478.39L347.211,479.39C347.261,479.44 347.261,479.44 347.311,479.44L350.56,479.99L353.208,480.939L350.56,480.389C350.41,480.339 350.31,480.389 350.21,480.44C350.06,480.49 350.01,480.54 349.96,480.69C349.91,480.79 349.86,480.889 349.91,480.99C349.91,481.139 349.96,481.239 350.06,481.339L344.762,479.64L344.762,478.39ZM335.166,463.946C335.416,463.646 335.716,463.396 336.016,463.247C337.365,467.545 339.214,471.643 341.463,475.492L344.313,481.139C343.813,480.589 343.363,479.99 342.913,479.39C342.063,478.241 341.264,477.091 340.514,475.941C338.065,472.043 336.315,468.045 335.166,463.946ZM337.365,462.296C336.266,462.296 335.316,462.796 334.516,463.796C335.666,468.045 337.515,472.193 340.064,476.242C340.813,477.391 341.613,478.59 342.463,479.74C342.913,480.339 343.363,480.939 343.862,481.54C346.761,483.938 349.41,485.387 351.809,485.937L353.109,487.037C352.109,487.086 351.41,487.187 351.06,487.437C351.01,487.487 351.01,487.487 350.959,487.537C350.41,487.537 350.06,487.637 349.81,487.787L353.509,489.836L354.008,488.886L359.106,489.336C358.957,488.886 358.507,488.436 357.857,488.086L359.106,488.086L353.708,486.187L350.41,480.939L357.157,482.289L356.208,482.789L353.209,484.388L354.308,485.587L357.807,484.438L356.058,486.038C359.456,485.887 362.255,484.039 364.404,480.49C367.953,474.492 370.752,467.995 372.701,460.998C371.451,460.998 370.302,461.447 369.152,462.397L369.152,463.596C369.002,463.896 368.853,464.196 368.703,464.496C367.253,467.545 365.954,471.044 364.704,474.942C364.354,476.141 363.955,477.34 363.604,478.59C362.955,479.74 362.155,480.24 361.156,479.99C359.706,479.94 358.557,480.389 357.757,481.339L354.408,480.74L350.76,479.44L347.411,478.89L344.762,477.791C342.413,471.544 339.964,466.345 337.365,462.296Z" style="fill:rgb(214,159,110);fill-rule:nonzero;"/>
        </g>
        <g transform="matrix(4.16667,0,0,4.16667,0,0)">
            <path d="M336.016,463.247C335.716,463.396 335.416,463.646 335.166,463.946C336.315,468.045 338.065,472.043 340.514,475.942C341.264,477.091 342.063,478.241 342.913,479.39C343.363,479.99 343.813,480.589 344.313,481.139L341.463,475.492C339.214,471.643 337.365,467.545 336.016,463.247Z" style="fill:rgb(239,213,198);fill-rule:nonzero;"/>
        </g>
        <g transform="matrix(4.16667,0,0,4.16667,0,0)">
            <path d="M347.211,479.39L344.762,478.39L344.762,479.64L350.06,481.339C349.96,481.239 349.91,481.139 349.91,480.99C349.86,480.889 349.91,480.79 349.96,480.69C350.01,480.54 350.06,480.49 350.21,480.44C350.31,480.389 350.41,480.339 350.56,480.389L353.208,480.939L350.56,479.99L347.311,479.44C347.261,479.44 347.261,479.44 347.211,479.39Z" style="fill:rgb(239,213,198);fill-rule:nonzero;"/>
        </g>
        <g transform="matrix(4.16667,0,0,4.16667,0,0)">
            <path d="M370.652,463.946L370.652,462.047C370.352,462.197 370.052,462.447 369.702,462.697L369.702,463.596C369.702,463.696 369.702,463.796 369.652,463.846C369.502,464.146 369.352,464.446 369.252,464.696L369.202,464.696C367.753,467.745 366.454,471.244 365.254,475.091C364.854,476.292 364.504,477.491 364.154,478.741C364.104,478.791 364.104,478.84 364.104,478.89C363.305,480.29 362.305,480.839 361.105,480.54C359.856,480.49 358.856,480.889 358.207,481.689C358.157,481.739 358.057,481.789 357.957,481.839C357.907,481.889 357.807,481.889 357.707,481.889L357.507,481.839L357.557,481.889C357.607,481.989 357.657,482.089 357.707,482.189C357.707,482.338 357.707,482.439 357.657,482.539C357.607,482.639 357.507,482.739 357.407,482.789L363.955,480.089C366.703,472.693 368.953,467.295 370.652,463.946Z" style="fill:rgb(239,213,198);fill-rule:nonzero;"/>
        </g>
        <g transform="matrix(4.16667,0,0,4.16667,0,0)">
            <path d="M354.408,488.086L353.758,487.537L352.109,488.436L353.458,488.836L355.308,488.086L354.408,488.086Z" style="fill:rgb(156,106,72);fill-rule:nonzero;"/>
        </g>
        <g transform="matrix(4.16667,0,0,4.16667,0,0)">
            <path d="M340.963,463.796C339.614,462.846 338.415,462.347 337.365,462.296C339.964,466.345 342.413,471.544 344.762,477.791L347.411,478.89C346.412,478.14 345.612,476.792 345.012,474.842C344.912,474.392 344.812,473.993 344.712,473.543C344.112,470.944 343.363,468.644 342.463,466.695C342.013,465.645 341.513,464.646 340.963,463.796Z" style="fill:rgb(156,106,72);fill-rule:nonzero;"/>
        </g>
        <g transform="matrix(4.16667,0,0,4.16667,0,0)">
            <path d="M355.458,493.235L358.307,495.284L363.604,525.272C363.005,534.967 363.705,544.014 365.704,552.461C365.404,557.809 366.204,562.756 368.103,567.305C367.403,567.405 366.703,567.555 366.003,567.804C363.604,563.157 362.855,558.109 363.705,552.711C363.705,552.661 363.705,552.561 363.654,552.51C361.955,545.064 361.306,536.368 361.755,526.421C361.755,526.321 361.755,526.221 361.755,526.171C361.705,526.122 361.655,526.072 361.605,526.021C361.006,525.372 360.606,524.022 360.406,522.023C359.207,509.578 357.557,499.982 355.458,493.235ZM340.264,477.541C340.813,478.39 341.363,479.19 342.013,480.04C340.714,485.238 340.714,491.086 342.013,497.583C341.613,515.725 341.613,532.519 342.013,548.063L341.763,567.855L341.713,567.855C340.614,567.905 339.514,567.955 338.365,567.955C340.114,561.857 340.464,554.86 339.464,547.013C339.464,546.963 339.464,546.963 339.464,546.913C338.314,542.665 338.314,537.966 339.464,532.769L339.464,532.718L340.464,521.773C340.464,521.724 340.464,521.724 340.464,521.673L339.464,497.433C338.615,489.286 338.915,482.689 340.264,477.541ZM342.463,479.74C341.613,478.59 340.813,477.391 340.064,476.242C338.415,481.54 338.015,488.636 338.915,497.533L339.914,521.724L338.915,532.619C337.765,537.917 337.765,542.714 338.915,547.063C339.964,555.16 339.514,562.307 337.665,568.455C339.064,568.504 340.414,568.504 341.713,568.455C342.763,568.405 343.813,568.254 344.762,568.104L347.661,538.117L347.661,504.629L354.708,492.685C356.857,499.432 358.606,509.228 359.856,522.073C360.106,524.272 360.556,525.721 361.206,526.372C360.756,536.418 361.405,545.164 363.155,552.611C362.255,558.258 363.105,563.556 365.704,568.455C367.753,567.804 369.752,567.555 371.651,567.754L368.003,528.42L368.003,500.232L364.304,484.338C362.855,485.738 361.156,486.987 359.106,488.086L357.857,488.086C358.507,488.436 358.957,488.886 359.106,489.336C359.156,489.486 359.156,489.686 359.156,489.836L353.509,489.836L349.61,488.336C349.61,488.086 349.66,487.936 349.81,487.787C350.06,487.636 350.41,487.537 350.959,487.537L351.01,487.437C348.261,485.837 345.912,483.888 343.862,481.54C343.363,480.939 342.913,480.339 342.463,479.74Z" style="fill:rgb(25,0,27);fill-rule:nonzero;"/>
        </g>
        <g transform="matrix(4.16667,0,0,4.16667,0,0)">
            <path d="M342.013,480.04C341.363,479.19 340.813,478.39 340.264,477.541C338.915,482.689 338.615,489.286 339.464,497.433L340.464,521.673C340.464,521.724 340.464,521.724 340.464,521.773L339.464,532.718L339.464,532.769C338.314,537.966 338.314,542.665 339.464,546.913C339.464,546.963 339.464,546.963 339.464,547.013C340.464,554.86 340.114,561.857 338.365,567.955C339.514,567.955 340.614,567.905 341.713,567.855L341.763,567.855L342.013,548.063C341.613,532.519 341.613,515.725 342.013,497.583C340.714,491.086 340.714,485.238 342.013,480.04Z" style="fill:rgb(119,26,97);fill-rule:nonzero;"/>
        </g>
        <g transform="matrix(4.16667,0,0,4.16667,0,0)">
            <path d="M358.307,495.284L355.458,493.235C357.557,499.982 359.207,509.578 360.406,522.023C360.606,524.022 361.006,525.372 361.605,526.021C361.655,526.072 361.705,526.122 361.755,526.171C361.755,526.221 361.755,526.321 361.755,526.421C361.306,536.368 361.955,545.064 363.654,552.51C363.705,552.561 363.705,552.661 363.705,552.711C362.855,558.109 363.604,563.157 366.003,567.804C366.703,567.555 367.403,567.405 368.103,567.305C366.204,562.756 365.404,557.809 365.704,552.461C363.705,544.014 363.005,534.967 363.604,525.272L358.307,495.284Z" style="fill:rgb(119,26,97);fill-rule:nonzero;"/>
        </g>
        <g transform="matrix(4.16667,0,0,4.16667,0,0)">
            <path d="M345.012,474.842C345.612,476.792 346.412,478.14 347.411,478.89L350.76,479.44L354.408,480.74L357.757,481.339C358.557,480.389 359.706,479.94 361.156,479.99C362.155,480.24 362.955,479.74 363.604,478.59C363.955,477.34 364.354,476.141 364.704,474.942C358.057,473.642 351.359,473.193 344.712,473.543C344.812,473.992 344.912,474.392 345.012,474.842Z" style="fill:rgb(25,0,27);fill-rule:nonzero;"/>
        </g>
        <g transform="matrix(4.16667,0,0,4.16667,0,0)">
            <path d="M363.955,453.1L363.955,460.748L365.104,465.345C359.556,469.594 352.759,472.343 344.712,473.543C351.359,473.193 358.057,473.642 364.704,474.942C365.954,471.044 367.253,467.545 368.703,464.496L367.403,461.248L368.303,453.85C368.652,452.701 368.953,451.502 369.152,450.252C369.702,446.803 369.552,443.254 368.752,439.606C368.303,445.054 366.703,449.552 363.955,453.1Z" style="fill:rgb(203,49,146);fill-rule:nonzero;"/>
        </g>
        <g transform="matrix(4.16667,0,0,4.16667,0,0)">
            <path d="M354.308,485.587L353.208,484.388L352.059,482.588L356.208,482.789L357.157,482.289L350.41,480.939L353.708,486.187L359.106,488.086C361.155,486.987 362.855,485.738 364.304,484.338C365.354,483.338 366.204,482.239 366.903,481.089C368.502,478.741 369.952,476.441 371.202,474.092C373.351,470.144 375.15,466.246 376.5,462.397C375.15,461.447 373.9,460.998 372.701,460.998C370.751,467.995 367.953,474.492 364.404,480.49C362.255,484.039 359.456,485.887 356.058,486.038C355.508,485.887 354.958,485.738 354.308,485.587Z" style="fill:rgb(156,106,72);fill-rule:nonzero;"/>
        </g>
        <g transform="matrix(4.16667,0,0,4.16667,0,0)">
            <path d="M353.208,484.388L356.208,482.789L352.059,482.588L353.208,484.388Z" style="fill:rgb(25,0,27);fill-rule:nonzero;"/>
        </g>
        <g transform="matrix(4.16667,0,0,4.16667,0,0)">
            <path d="M357.807,484.438L354.308,485.587C354.958,485.738 355.508,485.887 356.058,486.038L357.807,484.438Z" style="fill:rgb(25,0,27);fill-rule:nonzero;"/>
        </g>
        <g transform="matrix(4.16667,0,0,4.16667,0,0)">
            <path d="M366.903,481.089C366.204,482.239 365.354,483.338 364.304,484.338L368.003,500.232L368.003,528.42L371.651,567.754C372.651,567.855 373.601,568.105 374.55,568.455L374.55,550.211C375.5,547.263 375.35,543.115 374.101,537.867L372.701,523.922C371.801,519.175 371.801,513.128 372.701,505.679C373.051,494.734 372.551,484.238 371.202,474.092C369.952,476.441 368.502,478.741 366.903,481.089Z" style="fill:rgb(35,31,32);fill-rule:nonzero;"/>
        </g>
        <g transform="matrix(4.16667,0,0,4.16667,0,0)">
            <path d="M359.156,489.836C359.156,489.686 359.156,489.486 359.106,489.336L354.008,488.886L353.509,489.836L359.156,489.836Z" style="fill:rgb(156,106,72);fill-rule:nonzero;"/>
        </g>
        <g transform="matrix(4.16667,0,0,4.16667,0,0)">
            <path d="M351.01,487.437L350.959,487.537C351.01,487.487 351.01,487.487 351.06,487.437L351.01,487.437Z" style="fill:rgb(88,89,91);fill-rule:nonzero;"/>
        </g>
        <g transform="matrix(4.16667,0,0,4.16667,0,0)">
            <path d="M351.01,487.437L351.06,487.437C351.409,487.187 352.109,487.086 353.109,487.037L351.809,485.937C349.41,485.387 346.761,483.938 343.862,481.54C345.912,483.888 348.261,485.837 351.01,487.437Z" style="fill:rgb(156,106,72);fill-rule:nonzero;"/>
        </g>
        <g transform="matrix(4.16667,0,0,4.16667,0,0)">
            <path d="M349.81,487.787C349.66,487.937 349.61,488.086 349.61,488.336L353.509,489.836L349.81,487.787Z" style="fill:rgb(156,106,72);fill-rule:nonzero;"/>
        </g>
        <g transform="matrix(4.16667,0,0,4.16667,0,0)">
            <path d="M350.46,530.27C351.759,523.823 352.459,516.975 352.559,509.728L354.708,492.685L347.661,504.629L347.661,538.117L344.762,568.104C346.412,567.855 347.961,567.504 349.41,567.005C349.76,566.855 350.06,566.755 350.41,566.605C352.259,563.056 352.259,558.308 350.41,552.461C351.709,546.313 351.709,538.917 350.46,530.27Z" style="fill:rgb(35,31,32);fill-rule:nonzero;"/>
        </g>
        <g transform="matrix(4.16667,0,0,4.16667,0,0)">
            <path d="M344.662,569.254C346.211,569.204 347.761,569.304 349.31,569.554L349.41,567.005C347.961,567.504 346.412,567.855 344.762,568.105C343.813,568.254 342.763,568.405 341.713,568.455C341.663,568.854 341.613,569.204 341.563,569.554C342.613,569.404 343.612,569.304 344.662,569.254Z" style="fill:rgb(214,159,110);fill-rule:nonzero;"/>
        </g>
        <g transform="matrix(4.16667,0,0,4.16667,0,0)">
            <path d="M349.31,569.554C347.761,569.304 346.211,569.204 344.662,569.254C343.612,569.304 342.613,569.404 341.563,569.554C341.363,572.503 342.863,573.852 346.111,573.552C348.46,573.302 349.51,572.003 349.31,569.554Z" style="fill:rgb(35,31,32);fill-rule:nonzero;"/>
        </g>
        <g transform="matrix(4.16667,0,0,4.16667,0,0)">
            <path d="M365.704,568.455C365.754,568.904 365.854,569.304 365.954,569.704C367.803,569.154 369.752,568.955 371.801,569.204C372.651,569.354 373.5,569.504 374.4,569.753C374.45,569.354 374.5,568.904 374.55,568.455C373.601,568.104 372.651,567.855 371.651,567.754C369.752,567.555 367.753,567.804 365.704,568.455Z" style="fill:rgb(214,159,110);fill-rule:nonzero;"/>
        </g>
        <g transform="matrix(4.16667,0,0,4.16667,0,0)">
            <path d="M370.252,573.753C371.001,573.802 371.651,573.753 372.201,573.503C373.351,572.953 374.101,571.703 374.4,569.753C373.5,569.504 372.651,569.354 371.801,569.204C369.752,568.955 367.803,569.154 365.954,569.704C366.604,572.153 368.053,573.503 370.252,573.753Z" style="fill:rgb(35,31,32);fill-rule:nonzero;"/>
        </g>
    </g>
</svg>
