<?xml version="1.0" encoding="UTF-8" standalone="no"?>
<!DOCTYPE svg PUBLIC "-//W3C//DTD SVG 1.1//EN" "http://www.w3.org/Graphics/SVG/1.1/DTD/svg11.dtd">
<svg width="100%" height="100%" viewBox="0 0 11329 8403" version="1.1" xmlns="http://www.w3.org/2000/svg" xmlns:xlink="http://www.w3.org/1999/xlink" xml:space="preserve" xmlns:serif="http://www.serif.com/" style="fill-rule:evenodd;clip-rule:evenodd;stroke-linejoin:round;stroke-miterlimit:1.41421;">
    <g transform="matrix(1,0,0,1,-45772.9,-14651.4)">
        <g transform="matrix(88.2353,0,0,88.2353,0,0)">
            <g>
                <path d="M646.508,206.072C645.474,204.83 643.487,204.748 640.972,204.642C640.827,204.636 640.67,204.629 640.508,204.622C642.26,202.123 644.796,198.475 645.338,197.527C645.965,196.428 647.272,194.144 644.56,192.337C644.465,192.274 644.366,192.22 644.26,192.175C642.081,191.241 638.144,190.769 632.557,190.769C632,190.769 631.476,190.773 630.998,190.781C622.615,175.496 606.725,166.049 589.247,166.049C562.992,166.049 541.633,187.408 541.633,213.662C541.633,217.124 542.012,220.577 542.762,223.962C542.414,223.875 542.176,223.805 542.058,223.756C541.615,223.58 541.041,223.505 540.141,223.505C537.683,223.505 532.956,224.096 529.609,225.053C525.616,226.194 520.226,227.543 520.171,227.557C519.475,227.732 518.939,228.291 518.797,228.996C518.654,229.701 518.93,230.425 519.505,230.855C519.54,230.882 523.022,233.595 521.973,236.481C521.318,238.286 519.323,243.774 521.912,248.665C523.729,252.097 527.394,254.546 532.809,255.947C533.418,256.202 535.28,256.86 538.211,256.86C541.715,256.86 545.456,255.939 549.328,254.121C553.852,251.997 556.763,250.768 558.567,250.063C567.149,257.302 577.999,261.276 589.247,261.276C613.153,261.276 633.211,243.686 636.414,220.158C637.31,219.904 638.396,219.601 639.363,219.337C641.824,218.667 642.729,217.016 643.458,215.691C643.61,215.414 643.765,215.128 643.943,214.843L644.321,214.252C646.468,210.915 648.113,207.997 646.508,206.072Z" style="fill:white;fill-rule:nonzero;"/>
                <path d="M645.076,207.266C644.107,206.103 638.098,206.878 637.323,205.909C637.323,205.909 642.944,197.961 643.719,196.604C644.494,195.247 644.688,194.665 643.525,193.889C640.374,192.538 633.045,192.582 629.892,192.671C622.283,177.968 606.943,167.912 589.246,167.912C563.978,167.912 543.495,188.395 543.495,213.662C543.495,218.084 544.136,222.354 545.306,226.398C544.453,226.242 542.149,225.801 541.365,225.487C540.396,225.099 534.192,225.681 530.121,226.844C526.05,228.007 520.622,229.365 520.622,229.365C520.622,229.365 525.273,232.853 523.723,237.118C522.174,241.383 519.654,250.688 533.416,254.178C533.416,254.178 539.038,256.893 548.536,252.434C554.119,249.813 557.278,248.538 558.945,247.927C567.016,255.07 577.621,259.412 589.247,259.412C612.81,259.412 632.205,241.597 634.715,218.7C635.657,218.432 637.403,217.939 638.873,217.539C641.005,216.958 641.394,215.406 642.362,213.856C643.332,212.306 646.046,208.429 645.076,207.266Z" style="fill:rgb(44,43,91);fill-rule:nonzero;"/>
                <path d="M561.715,194.662C561.715,194.662 570.903,179.886 591.89,181.004C612.874,182.123 618.463,197.892 618.463,197.892L611.011,195.161L584.565,196.029C584.564,196.028 569.662,192.924 561.715,194.662Z" style="fill:rgb(248,168,0);fill-rule:nonzero;"/>
                <path d="M622.588,218.728C622.588,219.194 618.859,239.116 601.852,246.223C590.729,250.869 573.891,248.902 564.689,237.368L569.814,232.359L622.588,218.728Z" style="fill:rgb(254,250,252);fill-rule:nonzero;"/>
                <g>
                    <path d="M566.669,238.184C566.669,238.184 574.124,244.475 582.278,241.33C590.433,238.184 597.423,231.077 604.879,231.194C605.112,227.116 604.065,224.088 604.065,224.088L596.493,226.885L587.756,230.613L583.444,229.68L581.697,227.35L574.592,228.865L566.669,238.184Z" style="fill:rgb(2,77,44);fill-rule:nonzero;"/>
                    <path d="M577.735,244.358C577.316,244.369 589.619,247.969 596.258,245.406C599.869,242.961 604.064,237.018 603.947,233.291C602.315,233.523 596.607,234.688 592.646,237.951C588.687,241.213 581.929,244.242 577.735,244.358Z" style="fill:rgb(2,77,44);fill-rule:nonzero;"/>
                    <path d="M606.511,233.407C606.511,233.407 610.356,234.221 611.521,236.319C610.239,238.416 604.997,242.61 601.036,243.891C603.481,242.144 606.395,235.388 606.511,233.407Z" style="fill:rgb(2,77,44);fill-rule:nonzero;"/>
                    <path d="M606.395,223.038C606.395,223.038 607.444,228.747 606.745,230.727C609.774,231.193 613.152,234.571 613.152,234.571C613.152,234.571 618.86,227.582 619.909,220.475L606.395,223.038Z" style="fill:rgb(2,77,44);fill-rule:nonzero;"/>
                </g>
                <path d="M564.322,194.662L570.406,195.16L573.511,195.656C573.511,195.656 576.864,196.402 577.236,196.898C577.609,197.394 576.244,201.99 576.244,201.99L598.098,199.257L607.039,198.14L614.363,196.029L612.131,189.946L610.889,189.946L609.273,191.56L606.045,187.337L603.315,189.571L598.098,181.501L593.008,185.848L588.288,174.919L577.609,187.834L575.373,183.612L569.166,191.061L568.047,190.441C568.047,190.441 565.068,193.299 564.322,194.662Z" style="fill:rgb(2,77,44);fill-rule:nonzero;"/>
                <path d="M611.509,188.703L609.522,190.814L606.543,186.591L604.058,188.826L597.973,180.506L594.87,184.109L588.04,173.801L578.23,186.342L575.498,181.872C575.498,181.872 569.662,189.819 569.29,189.944C568.917,190.067 568.047,188.951 568.047,188.951C568.047,188.951 563.205,194.414 562.957,194.785L564.322,194.661L568.047,190.44L567.799,194.785L572.271,195.407C572.271,195.407 570.035,191.806 569.663,192.055C569.291,192.303 575.252,184.479 575.252,184.479L575.374,188.578L576.741,189.447L573.512,195.655L577.237,196.897L571.897,202.486L576.245,201.989L582.204,195.655L583.57,197.518L587.173,195.407L589.282,189.944L595.615,199.381L598.098,199.256L594,193.546L594.746,185.723L597.85,182.37L597.725,186.964L599.961,190.317L596.98,193.919C596.98,193.919 598.098,196.403 598.098,196.774C598.098,197.147 600.706,194.166 600.706,194.166L605.425,198.141L615.234,197.646L618.463,197.893L611.509,188.703ZM587.667,188.703L582.949,192.924L578.478,188.082L587.666,176.534L586.3,188.456L587.667,188.703ZM604.058,194.415L605.922,188.456L607.659,197.146L604.058,194.415ZM609.895,192.305L611.384,190.691C611.384,190.691 612.502,194.663 612.502,195.037C612.502,195.408 610.268,192.677 609.895,192.305Z" style="fill:rgb(254,250,252);fill-rule:nonzero;"/>
                <g>
                    <path d="M565.949,177.692L563.874,179.26L566.253,182.499C566.253,182.499 566.859,183.41 566.151,183.968C565.443,184.525 564.429,185.131 564.429,185.131C564.429,185.131 563.771,185.535 563.063,184.878C562.354,184.221 560.632,182.044 560.632,182.044L558.609,184.119L562.18,187.413C562.18,187.413 563.436,188.4 564.872,187.233C566.309,186.065 568.912,184 568.912,184C568.912,184 569.946,182.803 568.933,181.64C567.923,180.476 565.949,177.692 565.949,177.692Z" style="fill:rgb(176,205,218);fill-rule:nonzero;"/>
                    <path d="M574.452,172.982C574.452,172.982 574.707,173.794 575.01,174.551C576.023,174.146 578.605,173.64 578.605,173.64L579.82,178.5L581.996,178.045C581.996,178.045 581.44,175.209 580.984,173.235C581.694,172.932 584.225,172.526 584.225,172.526C584.225,172.526 584.274,172.424 583.971,170.907C580.781,171.061 574.656,172.982 574.452,172.982Z" style="fill:rgb(176,205,218);fill-rule:nonzero;"/>
                    <path d="M601.537,172.477C601.183,172.376 599.106,171.566 596.981,171.262C594.854,170.96 594.398,172.782 594.398,172.782L593.234,177.388L595.512,177.895L596.222,176.224L599.057,177.135L598.498,178.704L600.776,179.563C600.776,179.563 601.839,177.235 602.397,175.412C602.955,173.591 601.891,172.578 601.537,172.477ZM600.068,174.806C600.018,174.957 599.562,175.82 599.562,175.82L596.474,174.909C596.474,174.909 596.777,173.997 596.981,173.388C597.184,172.782 597.994,173.187 597.994,173.187C597.994,173.187 599.209,173.439 599.765,173.693C600.321,173.946 600.12,174.654 600.068,174.806Z" style="fill:rgb(176,205,218);fill-rule:nonzero;"/>
                    <path d="M617.585,181.285L615.307,183.259L612.826,181.031L614.346,178.905L612.017,177.135L607.611,182.652L609.839,184.373L611.712,181.942L614.648,184.272L612.775,186.652L614.648,188.321L619.457,183.108L617.585,181.285Z" style="fill:rgb(176,205,218);fill-rule:nonzero;"/>
                </g>
                <g>
                    <g>
                        <path d="M564.441,223.106C565.521,222.492 566.126,221.269 565.933,220.015C565.796,219.121 565.963,216.713 566.763,214.158C566.954,213.541 567.159,212.812 567.394,211.979C568.35,208.571 569.95,202.864 572.506,201.038C573.582,200.268 574.033,198.906 573.629,197.648C573.226,196.389 572.066,195.544 570.744,195.544C567.798,195.544 561.162,195.704 558.445,195.774L558.314,195.777C556.81,195.818 555.573,196.918 555.374,198.39C555.205,199.636 555.804,200.818 556.845,201.416C556.848,201.7 556.784,202.286 556.389,203.296C555.803,204.798 555.09,206.702 554.345,208.692C553.159,211.861 551.175,217.165 550.691,217.954C550.011,219.058 549.41,219.823 549.197,220.063C548.062,220.936 547.424,222.628 548.589,224.482C547.965,226.442 544.285,237.421 542.7,242.144L542.63,242.353C542.524,242.582 542.096,243.32 540.986,243.573C541.015,243.026 541.152,242.099 541.539,240.525L541.657,240.04C542.04,238.411 544.004,234.145 545.605,232.166C546.502,231.059 546.5,229.451 545.598,228.345C544.713,227.261 543.088,226.928 541.86,227.569C539.528,228.776 533.678,229.847 530.589,230.291C529.341,230.47 528.324,231.418 528.059,232.648C527.878,233.475 528.062,234.334 528.531,235.013C528.511,235.529 528.363,236.864 527.524,239.795C527.147,241.111 526.109,245.695 528.55,249.418C530.097,251.777 532.597,253.203 535.981,253.649C537.392,253.836 538.755,253.93 540.033,253.93C545.969,253.93 549.165,251.907 550.884,250.818L551.148,250.652C552.234,249.973 554.594,249.311 555.684,249.057C556.512,248.87 557.229,248.341 557.648,247.605C558.069,246.873 558.162,245.988 557.909,245.195C557.902,245.172 557.193,242.695 558.284,239.242C562.381,226.264 564.029,223.616 564.441,223.106Z" style="fill:rgb(44,43,91);fill-rule:nonzero;"/>
                        <path d="M642.892,209.007C641.972,207.99 640.354,207.732 639.175,208.391C638.287,208.884 637.238,209.261 636.191,209.547C637.018,209.132 637.612,208.359 637.795,207.42C637.913,206.812 637.842,206.198 637.606,205.649C638.06,204.535 639.669,201.828 642.204,198.763C643.007,197.793 643.123,196.409 642.494,195.317C641.868,194.234 640.564,193.635 639.368,193.845L622.849,196.623C622.059,196.754 621.34,197.205 620.878,197.855L618.141,201.709C617.248,202.962 617.438,204.685 618.582,205.718C619.672,206.697 621.443,206.724 622.555,205.786C622.917,205.596 623.982,205.413 624.617,205.313C624.221,205.662 623.765,205.957 623.342,206.124C622.492,206.459 621.847,207.149 621.57,208.019C621.339,208.738 621.385,209.505 621.69,210.179L618.004,216.015C617.87,215.814 617.721,215.621 617.536,215.452C616.54,214.533 614.949,214.403 613.822,215.146C612.778,215.831 611.479,216.302 610.257,216.627C610.392,216.157 610.506,215.764 610.578,215.52C610.693,215.14 611.212,214.464 611.481,214.282C612.544,213.954 613.358,213.049 613.565,211.956C613.669,211.409 613.62,210.85 613.431,210.337C613.728,209.134 615.125,205.752 617.096,202.115C617.646,201.102 617.579,199.886 616.922,198.943C616.357,198.127 615.424,197.641 614.425,197.641C614.295,197.641 614.163,197.649 614.013,197.669L598.282,199.883C597.364,200.013 596.567,200.546 596.097,201.344L593.464,205.809C593.507,205.66 593.551,205.52 593.596,205.406C594.037,204.303 593.792,203.037 592.968,202.182C592.161,201.34 590.865,201.038 589.772,201.426C587.23,202.327 580.019,203.516 576.142,204.078C574.913,204.254 573.901,205.185 573.622,206.386C573.551,206.684 572.885,209.392 571.454,212.768C570.486,215.047 569.286,215.687 569.123,215.765C568.363,216.043 567.741,216.619 567.406,217.357C567.071,218.095 567.047,218.944 567.338,219.701C567.406,220.339 566.751,222.302 566.433,223.257L566.359,223.478C565.925,224.779 562.252,232.118 559.783,236.913C559.205,238.036 559.389,239.415 560.238,240.343C560.81,240.97 561.626,241.329 562.475,241.329C562.869,241.329 563.253,241.253 563.619,241.104L573.055,237.26C573.755,236.975 574.32,236.443 574.644,235.763L576.762,231.344L579.231,230.547L579.253,231.499C579.277,232.475 579.772,233.383 580.573,233.927C581.375,234.476 582.43,234.602 583.328,234.268L589.968,231.822C591.139,231.391 591.916,230.307 591.949,229.053L591.955,228.848C591.962,228.552 591.971,228.232 591.977,227.903C592.095,228.281 592.283,228.639 592.549,228.955C593.126,229.637 593.969,230.029 594.862,230.029C595.162,230.029 595.46,229.983 595.758,229.891L614.17,224.182C614.713,224.011 615.197,223.694 615.565,223.266C615.701,223.109 616.086,222.622 616.754,221.542C616.763,221.556 616.77,221.569 616.777,221.581C617.346,222.348 618.256,222.805 619.209,222.805C619.488,222.805 619.764,222.766 620.022,222.694L638.698,217.496C639.214,217.355 639.683,217.076 640.069,216.682C640.277,216.467 641.397,215.267 643.132,212.77C643.941,211.606 643.843,210.059 642.892,209.007ZM592.159,225.633C592.104,225.739 592.063,225.85 592.023,225.959C592.099,222.696 592.18,218.947 592.18,217.796C592.18,217.608 592.22,217.499 592.244,217.452C592.91,216.9 593.313,216.075 593.337,215.201C593.36,214.429 593.081,213.676 592.574,213.102C592.586,212.947 592.598,212.775 592.613,212.589C592.675,211.71 592.819,209.722 593.051,207.995C593.187,208.697 593.568,209.354 594.169,209.822C595.338,210.727 597.143,210.594 598.141,209.59C598.418,209.387 599.456,209.237 599.903,209.174C600.165,209.138 600.406,209.1 600.622,209.062C600.563,209.179 600.514,209.278 600.472,209.355C599.96,210.296 599.593,210.581 599.054,210.806C598.267,211.132 597.651,211.79 597.365,212.609C597.118,213.316 597.144,214.092 597.432,214.784C597.435,214.89 597.431,215.052 597.414,215.232L592.159,225.633Z" style="fill:rgb(44,43,91);fill-rule:nonzero;"/>
                    </g>
                    <g>
                        <path d="M563.393,221.55C563.885,221.342 564.173,220.826 564.092,220.298C563.895,219.019 564.139,216.308 564.985,213.6C565.174,212.993 565.378,212.272 565.6,211.477C566.689,207.596 568.334,201.729 571.423,199.522C571.835,199.228 572.01,198.701 571.856,198.217C571.701,197.737 571.252,197.409 570.746,197.409C567.276,197.409 558.455,197.64 558.366,197.641C557.797,197.657 557.301,198.077 557.223,198.643C557.145,199.209 557.471,199.742 558.017,199.908C558.564,200.124 559.201,201.224 558.127,203.975C557.539,205.48 556.825,207.39 556.092,209.347C554.652,213.199 552.858,217.991 552.279,218.932C551.386,220.381 550.593,221.337 550.41,221.486C550.158,221.655 549.394,222.3 550.188,223.527C550.415,223.877 550.628,224.207 550.41,224.904C549.84,226.735 544.416,242.892 544.373,243.02C544.364,243.045 543.445,245.431 540.336,245.524C539.703,245.524 539.526,245.298 539.46,245.213C538.704,244.249 539.422,241.331 539.728,240.084L539.843,239.614C540.273,237.789 542.319,233.265 544.157,230.993C544.504,230.565 544.504,229.952 544.154,229.524C543.805,229.097 543.206,228.97 542.716,229.225C539.56,230.857 531.736,232.01 530.854,232.135C530.372,232.205 529.984,232.568 529.88,233.043C529.784,233.483 529.953,233.936 530.303,234.207C530.431,234.504 530.628,235.715 529.316,240.308C528.995,241.432 528.103,245.337 530.11,248.396C531.346,250.283 533.405,251.429 536.225,251.802C537.554,251.978 538.835,252.067 540.033,252.067C545.429,252.067 548.22,250.301 549.886,249.246L550.16,249.072C551.832,248.026 555.242,247.248 555.274,247.24C555.593,247.168 555.868,246.966 556.03,246.681C556.192,246.399 556.226,246.058 556.127,245.747C556.117,245.717 555.207,242.791 556.505,238.681C560.922,224.697 562.729,221.939 563.393,221.55Z" style="fill:rgb(248,168,0);fill-rule:nonzero;"/>
                        <path d="M590.394,203.185C586.934,204.413 576.511,205.91 576.406,205.925C575.93,205.993 575.545,206.348 575.436,206.816C575.429,206.845 574.736,209.802 573.168,213.497C571.792,216.741 569.859,217.483 569.795,217.507C569.487,217.61 569.236,217.835 569.103,218.13C568.97,218.425 568.964,218.762 569.088,219.06C569.483,220.007 568.771,222.139 568.199,223.851L568.126,224.069C567.576,225.719 563.112,234.517 561.438,237.768C561.215,238.202 561.285,238.728 561.615,239.087C561.84,239.334 562.154,239.466 562.473,239.466C562.621,239.466 562.771,239.438 562.913,239.38L572.35,235.534C572.618,235.425 572.835,235.221 572.959,234.96L575.424,229.819L581.033,228.007L581.113,231.454C581.122,231.83 581.311,232.179 581.622,232.39C581.934,232.603 582.329,232.652 582.682,232.52L589.323,230.074C589.77,229.909 590.071,229.487 590.085,229.01C590.094,228.628 590.317,219.655 590.317,217.797C590.317,216.606 590.978,216.078 590.985,216.072C591.287,215.861 591.464,215.513 591.474,215.146C591.486,214.778 591.316,214.421 591.028,214.193C590.864,214.064 590.638,213.781 590.658,213.631C590.681,213.432 590.714,213.014 590.754,212.456C590.885,210.644 591.19,206.403 591.864,204.715C592.035,204.289 591.94,203.805 591.623,203.475C591.305,203.144 590.823,203.031 590.394,203.185ZM581.435,215.83L581.252,222.55L577.56,223.82L581.435,215.83Z" style="fill:rgb(248,168,0);fill-rule:nonzero;"/>
                        <path d="M614.843,216.705C612.601,218.177 609.502,218.789 607.63,219.036C608.031,217.618 608.582,215.686 608.792,214.985C609.065,214.073 610.109,212.726 610.895,212.512C611.325,212.395 611.65,212.042 611.733,211.606C611.796,211.274 611.712,210.935 611.511,210.675C611.453,209.48 613.463,204.904 615.456,201.225C615.667,200.838 615.641,200.367 615.39,200.005C615.14,199.646 614.705,199.458 614.272,199.515L598.544,201.729C598.191,201.779 597.882,201.987 597.701,202.292L595.022,206.836C594.724,207.342 594.849,207.989 595.312,208.349C595.775,208.706 596.434,208.667 596.849,208.251C597.46,207.641 598.719,207.461 599.639,207.33C600.025,207.274 600.365,207.224 600.618,207.16C601.037,207.056 602.372,206.847 603.723,206.65C603.149,208.016 602.46,209.603 602.109,210.248C601.446,211.463 600.791,212.102 599.772,212.526C599.465,212.654 599.234,212.913 599.125,213.225C599.016,213.537 599.048,213.889 599.208,214.18C599.324,214.39 599.327,215.143 599.221,215.789L593.822,226.474C593.611,226.891 593.671,227.394 593.97,227.75C594.198,228.017 594.525,228.163 594.862,228.163C594.977,228.163 595.092,228.145 595.207,228.111L613.613,222.403C613.823,222.337 614.01,222.215 614.153,222.048C614.233,221.955 614.976,221.058 616.506,218.234C616.761,217.764 616.663,217.182 616.271,216.822C615.876,216.459 615.287,216.413 614.843,216.705Z" style="fill:rgb(248,168,0);fill-rule:nonzero;"/>
                        <path d="M641.51,210.259C641.146,209.856 640.555,209.755 640.08,210.021C637.622,211.385 634.255,211.947 632.197,212.174C632.54,211.344 632.915,210.433 633.103,209.96C633.418,209.18 634.236,208.216 635.131,207.968C635.556,207.851 635.879,207.5 635.963,207.067C636.039,206.676 635.909,206.278 635.627,206.005C635.51,204.959 637.866,201.082 640.765,197.575C641.076,197.2 641.12,196.671 640.877,196.25C640.635,195.829 640.157,195.6 639.675,195.685L623.154,198.462C622.847,198.512 622.576,198.684 622.397,198.936L619.657,202.792C619.315,203.273 619.388,203.936 619.827,204.332C620.267,204.728 620.933,204.732 621.377,204.341C621.96,203.828 623.656,203.573 624.672,203.421C625.197,203.342 625.612,203.279 625.929,203.191C626.283,203.093 627.347,202.941 628.469,202.799C627.888,203.876 627.246,205.028 626.908,205.527C626.245,206.513 625.113,207.429 624.024,207.859C623.699,207.988 623.449,208.255 623.341,208.588C623.236,208.921 623.283,209.285 623.475,209.577C623.588,209.753 623.675,210.127 623.719,210.452L618.224,219.155C617.966,219.562 617.986,220.086 618.274,220.472C618.498,220.773 618.846,220.942 619.209,220.942C619.313,220.942 619.419,220.928 619.522,220.9L638.203,215.699C638.401,215.645 638.581,215.539 638.724,215.391C638.769,215.344 639.842,214.237 641.602,211.703C641.911,211.259 641.872,210.659 641.51,210.259Z" style="fill:rgb(248,168,0);fill-rule:nonzero;"/>
                    </g>
                    <g>
                        <path d="M558.396,198.807C558.396,198.807 561.076,199.622 559.211,204.399C557.346,209.176 554.202,218.029 553.27,219.545C552.338,221.06 551.406,222.224 551.057,222.457C550.706,222.689 552.105,223.389 551.523,225.253C550.941,227.116 545.464,243.427 545.464,243.427C545.464,243.427 544.3,246.573 540.454,246.689C536.61,246.805 538.241,241.331 538.707,239.35C539.173,237.369 541.27,232.709 543.251,230.263C539.872,232.01 531.834,233.175 531.019,233.292C532.3,234.106 530.902,239 530.436,240.631C529.97,242.262 528.456,249.601 536.377,250.65C544.3,251.699 547.678,249.252 549.542,248.087C551.405,246.922 555.018,246.106 555.018,246.106C555.018,246.106 553.969,242.844 555.367,238.418C556.765,233.992 560.726,221.409 562.94,220.478C562.708,218.963 562.993,216.068 563.872,213.255C565.037,209.526 566.669,201.487 570.745,198.576C567.25,198.574 558.396,198.807 558.396,198.807Z" style="fill:rgb(254,250,252);fill-rule:nonzero;"/>
                        <path d="M589.502,213.485C589.619,212.553 589.852,206.612 590.783,204.282C587.172,205.563 576.57,207.079 576.57,207.079C576.57,207.079 575.872,210.106 574.24,213.952C572.609,217.796 570.163,218.611 570.163,218.611C570.745,220.009 569.931,222.339 569.23,224.436C568.531,226.533 562.473,238.299 562.473,238.299L571.91,234.455L574.591,228.862L582.163,226.416L582.278,231.426L588.919,228.98C588.919,228.98 589.152,219.66 589.152,217.795C589.152,215.93 590.317,215.116 590.317,215.116C590.317,215.116 589.385,214.417 589.502,213.485ZM582.396,223.388L575.29,225.834L582.746,210.456L582.396,223.388Z" style="fill:rgb(254,250,252);fill-rule:nonzero;"/>
                        <path d="M596.025,207.427L598.706,202.884L614.433,200.671C614.433,200.671 609.19,210.341 610.588,211.388C609.308,211.739 608.025,213.486 607.676,214.651C607.327,215.816 606.045,220.359 606.045,220.359C606.045,220.359 611.754,220.127 615.482,217.68C613.967,220.476 613.269,221.29 613.269,221.29L594.862,226.999L600.338,216.165C600.338,216.165 600.687,214.417 600.221,213.602C601.618,213.019 602.435,212.087 603.133,210.806C603.832,209.524 605.58,205.213 605.58,205.213C605.58,205.213 601.269,205.795 600.338,206.029C599.404,206.262 597.19,206.262 596.025,207.427Z" style="fill:rgb(254,250,252);fill-rule:nonzero;"/>
                        <path d="M620.607,203.466L623.347,199.611L639.868,196.833C639.868,196.833 632.839,205.332 634.819,206.846C633.477,207.219 632.426,208.527 632.022,209.526C631.622,210.525 630.392,213.487 630.392,213.487C630.392,213.487 636.575,213.298 640.644,211.041C638.918,213.523 637.888,214.578 637.888,214.578L619.207,219.778L624.913,210.742C624.913,210.742 624.87,209.591 624.45,208.943C625.841,208.394 627.135,207.276 627.873,206.177C628.62,205.075 630.535,201.386 630.535,201.386C630.535,201.386 626.531,201.816 625.614,202.07C624.703,202.323 621.762,202.449 620.607,203.466Z" style="fill:rgb(254,250,252);fill-rule:nonzero;"/>
                    </g>
                </g>
            </g>
        </g>
    </g>
</svg>
