<?xml version="1.0" encoding="UTF-8" standalone="no"?>
<!DOCTYPE svg PUBLIC "-//W3C//DTD SVG 1.1//EN" "http://www.w3.org/Graphics/SVG/1.1/DTD/svg11.dtd">
<svg width="100%" height="100%" viewBox="0 0 7853 6029" version="1.1" xmlns="http://www.w3.org/2000/svg" xmlns:xlink="http://www.w3.org/1999/xlink" xml:space="preserve" xmlns:serif="http://www.serif.com/" style="fill-rule:evenodd;clip-rule:evenodd;">
    <g transform="matrix(1,0,0,1,-2784.78,-2917.47)">
        <g transform="matrix(95.0243,0,0,95.0243,0,0)">
            <path d="M47.313,85.537L47.443,85.666L47.177,85.94L47.933,86.695L47.79,86.843L47.034,86.087L46.77,86.362L46.64,86.233L47.313,85.537Z" style="fill-rule:nonzero;"/>
        </g>
        <g transform="matrix(95.0243,0,0,95.0243,0,0)">
            <path d="M46.539,86.339L47.424,87.224L47.291,87.362L46.56,86.631L47.081,87.581L46.942,87.726L45.997,87.216L46.728,87.947L46.591,88.088L45.706,87.203L45.914,86.987L46.832,87.477L46.331,86.555L46.539,86.339Z" style="fill-rule:nonzero;"/>
        </g>
        <g transform="matrix(95.0243,0,0,95.0243,0,0)">
            <path d="M87.5,47.197C80.642,33.608 62.372,28.952 49.358,35.238C28.862,44.145 27.997,63.979 35.652,80.734C37.368,83.154 38.86,84.654 40.121,86.037C39.945,86.841 40.691,87.419 41.497,87.134C42.648,86.735 45.87,86.055 47.419,87.21C51.952,90.387 58.21,93.279 64.999,91.92C70.005,90.728 76.056,86.319 73.436,77.859C71.955,73.311 68.301,64.791 75.675,60.271C77.174,59.068 78.325,58.439 83.387,57.765C84.249,57.652 85.003,55.641 84.144,54.374L82.832,50.805C82.832,50.805 81.747,48.444 83.242,48.334L84.564,48.338L86.867,47.194L87.5,47.197Z" style="fill:rgb(40,61,119);fill-rule:nonzero;"/>
        </g>
        <g transform="matrix(95.0243,0,0,95.0243,0,0)">
            <g transform="matrix(-0.0032,1,-1,-0.0032,146.786,27.425)">
                <rect x="58.804" y="85.492" width="1.839" height="2.76" style="fill:rgb(40,61,119);"/>
            </g>
        </g>
        <g transform="matrix(95.0243,0,0,95.0243,0,0)">
            <path d="M86.756,45.354C86.756,45.354 88.402,47.926 88.528,48.636L86.525,45.525L86.756,45.354Z" style="fill-rule:nonzero;"/>
        </g>
        <g transform="matrix(95.0243,0,0,95.0243,0,0)">
            <path d="M91.565,54.719L89.649,48.618C88.041,48.355 84.964,48.338 83.297,48.333C82.665,48.446 82.089,48.789 82.659,50.458L84.311,55.006C84.711,55.985 84.359,58.111 81.83,58.047C80.968,58.044 77.286,58.78 76.247,59.87L89.184,59.966C91.37,59.8 92.992,57.943 91.565,54.719Z" style="fill:white;fill-rule:nonzero;"/>
        </g>
        <g transform="matrix(95.0243,0,0,95.0243,0,0)">
            <path d="M84.591,48.422C84.159,48.623 83.841,49.11 84.412,50.636L85.438,53.542C85.438,53.542 86.013,53.372 86.445,53.372C87.279,53.087 88.511,54.558 86.813,55.185C86.813,55.185 86.267,55.27 86.094,55.327C86.437,56.162 87.012,56.222 87.5,56.194C87.5,56.194 88.565,56.14 89.082,56.171C90.434,55.916 91.068,55.17 90.785,53.963L88.616,48.695C88.045,47.428 87.126,46.965 86.636,47.366L84.591,48.422Z" style="fill:white;fill-rule:nonzero;"/>
        </g>
        <g transform="matrix(95.0243,0,0,95.0243,0,0)">
            <path d="M92.097,47.584L89.649,48.618L91.217,53.072C92.108,53.075 93.688,53.396 93.919,53.483C94.723,53.715 94.948,55.268 93.597,55.293C93.252,55.149 92.419,55.002 91.902,55.058C92.444,56.21 93.88,56.818 95.119,55.931C95.839,55.358 95.871,54.18 95.299,53.459L92.097,47.584Z" style="fill:white;fill-rule:nonzero;"/>
        </g>
        <g transform="matrix(95.0243,0,0,95.0243,0,0)">
            <path d="M78.655,58.548C81.072,57.716 83.688,57.43 83.69,57.429C83.916,57.369 81.178,50.21 81.011,49.831C79.081,45.424 72.782,37.294 62.715,36.175C57.832,35.633 43.278,36.594 36.533,51.763C27.408,72.282 42.548,82.422 47.67,85.057C50.429,86.476 55.09,87.352 58.157,86.684C58.158,86.684 71.898,83.694 67.168,72.099C67.168,72.099 64.996,65.644 56.815,65.762C56.815,65.762 52.085,66.002 50.807,68.632C50.807,68.632 56.495,67.975 59.052,70.128C59.052,70.128 66.503,75.566 59.06,80.966C59.06,80.966 48.94,87.243 44.414,72.447C44.414,72.447 40.325,57.872 53.365,52.732C53.365,52.732 66.723,48.41 75.16,60.366C75.16,60.365 76.923,59.144 78.655,58.548Z" style="fill:rgb(216,183,57);fill-rule:nonzero;"/>
        </g>
        <g transform="matrix(95.0243,0,0,95.0243,0,0)">
            <path d="M62.56,70.508C61.958,70.132 61.367,70.446 61.05,70.949L59.316,73.66C59.013,74.061 59.399,74.896 59.757,75.17L64.448,78.088C65.725,78.738 66.576,78.007 66.98,77.621C68.09,76.59 68.915,74.637 67.423,73.742L64.339,71.691L64.036,72.165C63.617,72.753 61.837,71.727 62.3,70.952L62.56,70.508Z" style="fill:rgb(18,82,142);fill-rule:nonzero;"/>
        </g>
        <g transform="matrix(95.0243,0,0,95.0243,0,0)">
            <path d="M35.935,81.251C35.93,83.091 37.074,85.049 37.986,87.237C37.579,88.845 38.897,90.286 40.68,90.119C42.059,90.297 46.491,88.988 48.391,87.786C46.956,86.862 44.545,85.819 42.242,86.962C41.148,87.534 39.886,86.898 40.117,86.037C38.97,85.284 35.763,81.078 35.935,81.251Z" style="fill:white;fill-rule:nonzero;"/>
        </g>
        <g transform="matrix(95.0243,0,0,95.0243,0,0)">
            <path d="M93.737,56.357C93.737,56.357 93.217,57.161 92.125,57.272C92.271,56.626 91.93,55.23 91.744,54.985L91.845,54.985C92.072,55.59 92.774,56.253 93.737,56.357Z" style="fill:rgb(0,54,29);fill-rule:nonzero;stroke:black;stroke-width:0.73px;"/>
        </g>
        <g transform="matrix(95.0243,0,0,95.0243,0,0)">
            <path d="M89.299,59.851C84.866,61.562 85.357,70.533 85.87,71.972C88.319,79.684 86.341,87.67 77.139,88.275C77.139,88.275 74.062,88.51 71.908,87.929C74.332,85.004 74.216,80.636 73.66,78.95C73.148,77.397 70.64,69.915 71.112,66.122C71.548,62.619 76.191,59.87 76.191,59.87L89.299,59.851Z" style="fill-rule:nonzero;"/>
        </g>
        <g transform="matrix(95.0243,0,0,95.0243,0,0)">
            <path d="M74.227,81.539C76.761,80.282 78.727,76.321 78.619,74.366C78.679,73.618 78.567,72.698 78.397,71.778C77.601,69.13 82.724,66.904 84.55,71.221C87.009,76.947 86.689,86.636 77.717,87.299C77.717,87.299 74.956,87.693 72.658,87.111C74.593,84.113 74.227,81.539 74.227,81.539Z" style="fill:white;fill-rule:nonzero;"/>
        </g>
        <g transform="matrix(95.0243,0,0,95.0243,0,0)">
            <path d="M87.563,47.225L87.7,47.296C81.193,34.301 61.83,26.976 44.749,37.636C33.59,43.567 25.828,60.364 35.936,81.193C35.936,81.193 38.398,84.736 40.177,86.036C40.177,86.036 39.626,87.673 42.186,86.961C44.373,86.278 46.213,86.283 48.393,87.785C54.312,91.676 60.844,93.571 66.552,91.405C71.387,89.808 74.906,85.623 74.059,80.273C73.667,76.822 68.976,68.988 72.385,63.594C75.504,59.234 78.15,58.437 82.867,57.876C84.363,57.65 84.942,56.157 84.142,54.429L82.617,50.227C82.617,50.227 81.875,48.342 83.419,48.35L84.535,48.322L86.723,47.207C87.081,47.064 87.436,47.14 87.563,47.225Z" style="fill:none;stroke:black;stroke-width:0.73px;stroke-linecap:round;stroke-linejoin:round;"/>
        </g>
        <g transform="matrix(95.0243,0,0,95.0243,0,0)">
            <path d="M47.071,87.322C50.945,89.575 57.629,94.253 65.743,91.977C70.003,90.553 73.689,88.063 74.338,82.862" style="fill:none;stroke:black;stroke-width:0.37px;"/>
        </g>
        <g transform="matrix(95.0243,0,0,95.0243,0,0)">
            <path d="M61.15,70.833L59.417,73.531C58.956,74.104 59.355,74.968 59.872,75.257L64.392,78.059C66.387,79.273 68.551,76.577 66.672,75.134L61.55,71.985C60.23,71.234 61.671,69.858 62.589,70.551L67.596,73.9C68.973,74.81 67.959,77.165 66.275,78.165C67.47,77.623 68.555,75.441 67.192,74.489L63.878,72.309" style="fill:none;stroke:black;stroke-width:0.55px;"/>
        </g>
        <g transform="matrix(95.0243,0,0,95.0243,0,0)">
            <path d="M70.014,67.785C70.169,74.284 72.69,76.533 73.136,81.191C73.605,86.085 68.389,91.757 60.227,91.213C57.007,91.088 53.332,89.467 51.208,88.312C50.233,87.657 47.478,86.115 46.156,85.824C47.306,85.885 50.176,87.388 51.382,88.081C53.851,89.355 57.297,90.571 60.229,90.696C65.689,91.229 72.657,87.686 72.562,81.188C72.06,75.897 69.708,73.936 70.014,67.785" style="fill-rule:nonzero;"/>
        </g>
        <g transform="matrix(95.0243,0,0,95.0243,0,0)">
            <path d="M84.504,48.48L86.462,47.451C86.462,47.451 87.416,46.602 88.471,48.492L90.754,53.904C91.195,55.329 90.173,56.087 89.08,56.156L87.183,56.208C87.183,56.208 86.32,56.407 85.922,54.925L84.211,50.091C84.211,50.09 83.856,48.737 84.504,48.48" style="fill:none;stroke:black;stroke-width:0.55px;"/>
        </g>
        <g transform="matrix(95.0243,0,0,95.0243,0,0)">
            <path d="M104.562,70.476C105.884,70.365 106.572,71.057 106.857,71.806C108.12,75.107 109.935,80.669 110.432,87.399C110.432,87.399 110.513,89.354 109.332,89.925C109.332,89.925 106.573,89.572 107.9,88.138C107.9,88.138 108.476,87.91 108.421,86.932C108.197,84.977 107.574,81.698 107.235,79.856C108.214,79.629 108.624,76.928 106.151,77.323C106.151,77.323 106.613,76.692 106.384,76.174C106.155,75.656 105.186,73.008 104.785,72.432C105.707,72.262 105.769,70.479 104.562,70.476Z" style="fill:rgb(40,61,119);fill-rule:nonzero;stroke:black;stroke-width:0.73px;stroke-linecap:round;"/>
        </g>
        <g transform="matrix(95.0243,0,0,95.0243,0,0)">
            <path d="M85.948,65.303C87.19,67.178 89.903,69.225 91.051,69.976C94.48,71.822 102.491,70.585 104.101,70.59C105.957,70.595 96.046,72.52 92.423,72.51C88.574,71.348 86.169,68.351 85.481,67.487C85.481,67.486 85.49,64.611 85.948,65.303Z" style="fill:rgb(40,61,119);fill-rule:nonzero;stroke:black;stroke-width:0.73px;stroke-linecap:round;"/>
        </g>
        <g transform="matrix(95.0243,0,0,95.0243,0,0)">
            <path d="M103.208,80.736C103.208,80.736 102.923,79.264 102.754,78.808C102.754,78.808 98.093,79.829 95.736,79.937L86.713,78.415C86.713,78.415 86.546,76.748 86.605,76.574L94.938,78.036C94.938,78.036 102.18,78.576 106.612,77.209C108.108,77.098 108.503,79.458 107.179,79.855C107.179,79.855 104.402,80.571 103.266,80.763" style="fill:rgb(40,61,119);fill-rule:nonzero;stroke:black;stroke-width:0.73px;stroke-linecap:round;"/>
        </g>
        <g transform="matrix(95.0243,0,0,95.0243,0,0)">
            <path d="M76.19,59.869L89.471,59.966C91.484,59.628 92.812,57.82 91.728,55.028" style="fill:none;stroke:black;stroke-width:0.73px;"/>
        </g>
        <g transform="matrix(95.0243,0,0,95.0243,0,0)">
            <path d="M83.417,48.351C82.592,48.33 83.234,49.943 83.234,49.943L85.286,55.699C85.742,57.309 84.876,58.285 82.863,58.509C81.943,58.564 79.873,58.5 77.802,59.011" style="fill:none;stroke:black;stroke-width:0.55px;"/>
        </g>
        <g transform="matrix(95.0243,0,0,95.0243,0,0)">
            <path d="M88.471,48.492L89.649,48.617L91.045,52.898L91.729,55.027C92.644,56.812 95.016,56.805 95.639,55.126C95.639,55.126 95.886,54.407 95.213,53.284L92.097,47.583L89.534,48.617" style="fill:none;stroke:black;stroke-width:0.73px;"/>
        </g>
        <g transform="matrix(95.0243,0,0,95.0243,0,0)">
            <path d="M90.604,48.253L92.74,53.264" style="fill:none;stroke:black;stroke-width:0.46px;"/>
        </g>
        <g transform="matrix(95.0243,0,0,95.0243,0,0)">
            <path d="M90.556,53.041C90.875,53.041 93.129,53.222 93.947,53.497C94.766,53.615 94.977,55.325 93.597,55.278C93.597,55.278 92.561,54.93 90.895,55.04C91.157,54.455 90.758,53.6 90.556,53.041Z" style="fill:rgb(26,83,143);fill-rule:nonzero;stroke:black;stroke-width:0.73px;stroke-linecap:square;"/>
        </g>
        <g transform="matrix(95.0243,0,0,95.0243,0,0)">
            <path d="M90.984,54.278C90.984,54.278 93.244,54.3 94.49,54.749" style="fill:none;stroke:black;stroke-width:0.55px;"/>
        </g>
        <g transform="matrix(95.0243,0,0,95.0243,0,0)">
            <path d="M85.786,61.911C84.805,63.23 84.392,66.678 84.445,68.001" style="fill:none;stroke:white;stroke-width:1.1px;stroke-linecap:round;"/>
        </g>
        <g transform="matrix(95.0243,0,0,95.0243,0,0)">
            <path d="M64.771,75.167C64.765,74.319 63.843,73.947 63.34,73.979C62.567,74.03 62.102,74.63 62.164,75.25C62.235,75.965 62.829,76.66 63.837,76.34" style="fill:none;stroke:black;stroke-width:0.37px;stroke-linecap:square;"/>
        </g>
        <g transform="matrix(95.0243,0,0,95.0243,0,0)">
            <path d="M88.129,49.915L88.129,49.805C88.188,48.757 87.503,47.922 87.113,47.952C86.451,48.005 86.778,49.221 87.549,49.886C87.519,50.796 88.04,51.902 88.591,51.876C89.268,51.845 88.845,50.415 88.129,49.915Z" style="fill:rgb(0,54,29);fill-rule:nonzero;stroke:black;stroke-width:0.44px;stroke-linecap:square;"/>
        </g>
        <g transform="matrix(95.0243,0,0,95.0243,0,0)">
            <path d="M88.227,51.696C88.594,51.104 88.265,50.33 87.603,50.287C87.521,50.108 87.548,49.969 87.548,49.969C87.992,49.419 87.471,48.34 86.863,48.504L86.78,48.421C86.728,47.427 88.161,48.149 88.059,49.875C89.396,50.719 89.004,52.568 88.227,51.696Z" style="fill-rule:nonzero;"/>
        </g>
        <g transform="matrix(95.0243,0,0,95.0243,0,0)">
            <path d="M86.982,56.178C88.049,56.265 88.853,55.379 88.412,54.041L86.3,48.917C86.058,48.341 86.06,47.378 86.923,47.267" style="fill:none;stroke:black;stroke-width:0.55px;stroke-linecap:square;"/>
        </g>
        <g transform="matrix(95.0243,0,0,95.0243,0,0)">
            <path d="M86.444,53.287L85.361,50.351C85.361,50.351 84.533,48.393 85.498,47.922" style="fill:none;stroke:black;stroke-width:0.55px;stroke-linecap:square;"/>
        </g>
        <g transform="matrix(95.0243,0,0,95.0243,0,0)">
            <path d="M62.357,70.866C62.357,70.866 67.731,62.085 68.655,60.708C70.328,58.413 71.77,57.44 73.957,56.527C76.646,55.401 82.069,54.06 86.501,53.345C87.709,53.176 88.178,54.96 86.725,55.185C83.087,55.913 78.758,56.758 75.217,58.198C73.441,58.838 71.415,60.313 69.914,62.667L64.02,72.193C63.387,72.767 61.78,71.555 62.357,70.866Z" style="fill:rgb(40,61,119);fill-rule:nonzero;stroke:black;stroke-width:0.73px;stroke-linecap:square;"/>
        </g>
        <g transform="matrix(95.0243,0,0,95.0243,0,0)">
            <path d="M87.591,54.268C84.621,54.706 77.85,56.191 75.45,57.279C72.399,58.363 70.323,60.311 69.11,62.435L63.158,72.134" style="fill:none;stroke:black;stroke-width:0.55px;"/>
        </g>
        <g transform="matrix(95.0243,0,0,95.0243,0,0)">
            <path d="M35.935,81.251C35.935,81.251 35.933,82.171 36.102,82.631C36.102,82.631 37.756,87.006 37.986,87.236C37.466,88.442 38.552,90.214 40.68,90.118C43.353,90.113 46.203,88.985 48.219,87.784L47.33,87.22C45.356,88.422 43.127,88.933 42.178,89.146C41.257,89.43 40.439,89.254 41.777,88.799C42.798,88.413 42.815,87.666 42.76,86.848C42.76,86.848 42.3,86.96 41.436,87.131C40.703,87.275 40.085,87.084 40.16,86.078C40.17,85.954 37.622,83.929 36.106,81.423L35.935,81.251Z" style="fill:white;fill-rule:nonzero;stroke:black;stroke-width:0.73px;"/>
        </g>
        <g transform="matrix(95.0243,0,0,95.0243,0,0)">
            <path d="M41.955,87.133C42.182,88.284 39.306,88.678 39.369,86.78" style="fill:none;stroke:black;stroke-width:0.73px;stroke-linecap:round;"/>
        </g>
        <g transform="matrix(95.0243,0,0,95.0243,0,0)">
            <path d="M47.373,87.193C45.709,86.182 43.436,86.577 42.818,86.806C42.859,87.711 42.827,88.467 41.993,88.773C41.1,89.1 40.739,89.717 42.222,89.161C42.221,89.161 45.433,88.46 47.373,87.193Z" style="fill-rule:nonzero;"/>
        </g>
        <g transform="matrix(95.0243,0,0,95.0243,0,0)">
            <path d="M58.202,75.971L55.776,79.729C53.303,80.039 49.975,78.103 51.078,74.34C51.921,71.697 55.4,71.477 57.06,73.465C57.06,73.466 57.891,74.159 58.202,75.971Z" style="fill-rule:nonzero;"/>
        </g>
        <g transform="matrix(95.0243,0,0,95.0243,0,0)">
            <path d="M56.948,72.402C55.056,70.787 52.266,71.123 50.881,73.131" style="fill:none;stroke:black;stroke-width:0.55px;stroke-linecap:round;"/>
        </g>
        <g transform="matrix(95.0243,0,0,95.0243,0,0)">
            <path d="M55.515,80.448C54.537,80.531 52.842,80.267 52.241,79.605" style="fill:none;stroke:black;stroke-width:0.55px;stroke-linecap:round;"/>
        </g>
        <g transform="matrix(95.0243,0,0,95.0243,0,0)">
            <path d="M59.574,69.277C55.617,65.527 48.685,66.944 47.345,72.632" style="fill:none;stroke:black;stroke-width:0.55px;stroke-linecap:round;"/>
        </g>
        <g transform="matrix(95.0243,0,0,95.0243,0,0)">
            <circle cx="65.323" cy="83.496" r="1.444" style="fill:white;stroke:black;stroke-width:0.46px;stroke-linecap:round;"/>
        </g>
        <g transform="matrix(95.0243,0,0,95.0243,0,0)">
            <path d="M65.303,84.852C65.832,84.854 66.326,84.504 66.377,83.703C66.423,82.98 65.802,82.549 65.31,82.548C64.855,82.547 64.194,82.927 64.181,83.651C64.166,84.374 64.811,84.849 65.303,84.852Z" style="fill-rule:nonzero;stroke:black;stroke-width:0.1px;stroke-linecap:round;"/>
        </g>
        <g transform="matrix(95.0243,0,0,95.0243,0,0)">
            <ellipse cx="65.187" cy="84.238" rx="0.959" ry="0.979" style="fill:white;stroke:black;stroke-width:0.29px;stroke-linecap:round;"/>
        </g>
        <g transform="matrix(95.0243,0,0,95.0243,0,0)">
            <ellipse cx="65.192" cy="84.229" rx="0.679" ry="0.686"/>
        </g>
        <g transform="matrix(95.0243,0,0,95.0243,0,0)">
            <path d="M64.676,84.239C64.624,84.635 65.377,85.045 65.706,84.396C65.706,84.396 65.708,84.234 65.627,84.352C65.467,84.582 64.942,84.559 64.755,84.261C64.734,84.195 64.695,84.15 64.676,84.239Z" style="fill:white;fill-rule:nonzero;"/>
        </g>
        <g transform="matrix(95.0243,0,0,95.0243,0,0)">
            <path d="M66.082,83.152C66.238,83.384 65.999,83.484 65.879,83.301C65.656,83.051 65.096,82.978 64.772,83.195C64.627,83.281 64.478,83.165 64.663,82.976C65.024,82.662 65.771,82.693 66.082,83.152Z" style="fill:white;fill-rule:nonzero;"/>
        </g>
        <g transform="matrix(95.0243,0,0,95.0243,0,0)">
            <path d="M60.913,82.908C57.512,85.801 51.997,84.29 50.222,81.897" style="fill:none;stroke:black;stroke-width:0.55px;stroke-linecap:round;"/>
        </g>
        <g transform="matrix(95.0243,0,0,95.0243,0,0)">
            <path d="M100.016,71.555C100.016,71.555 104.215,70.82 104.561,70.476C105.941,70.25 105.994,72.205 104.785,72.432C104.142,72.698 101.211,73.148 100.873,73.283C100.874,73.282 100.417,72.246 100.016,71.555Z" style="fill:rgb(40,61,119);fill-rule:nonzero;stroke:black;stroke-width:0.73px;stroke-linecap:round;"/>
        </g>
        <g transform="matrix(95.0243,0,0,95.0243,0,0)">
            <path d="M106.288,88.996C102.566,88.769 98.421,85.868 96.02,80.973L87.514,60.996C87.514,60.996 88.322,59.907 89.127,60.023L97.404,79.77C98.911,83.419 102.783,86.763 107.5,87.505C107.5,87.505 109.585,87.598 109.854,88.835C109.854,88.835 109.909,89.726 109.333,89.925C109.333,89.925 108.872,90.383 104.067,91.475C104.067,91.475 104.413,91.176 104.361,89.392C105.396,89.237 106.993,88.954 106.922,88.509" style="fill:rgb(40,61,119);fill-rule:nonzero;stroke:black;stroke-width:0.73px;stroke-linecap:round;"/>
        </g>
        <g transform="matrix(95.0243,0,0,95.0243,0,0)">
            <path d="M105.362,72.031C105.362,72.031 107.075,76.056 107.074,76.463C107.072,76.923 107.013,77.21 107.013,77.21" style="fill:none;stroke:black;stroke-width:0.46px;stroke-linecap:round;"/>
        </g>
        <g transform="matrix(95.0243,0,0,95.0243,0,0)">
            <path d="M107.812,79.513C107.812,79.513 109.113,86.416 109.054,87.221L108.937,87.853" style="fill:none;stroke:black;stroke-width:0.46px;stroke-linecap:round;"/>
        </g>
        <g transform="matrix(95.0243,0,0,95.0243,0,0)">
            <path d="M104.615,71.799C103.292,72.14 101.048,72.593 100.646,72.592" style="fill:none;stroke:black;stroke-width:0.55px;stroke-linecap:round;"/>
        </g>
        <g transform="matrix(95.0243,0,0,95.0243,0,0)">
            <path d="M103.153,79.901C103.9,79.789 106.893,79.108 107.353,78.937" style="fill:none;stroke:black;stroke-width:0.55px;stroke-linecap:round;"/>
        </g>
        <g transform="matrix(95.0243,0,0,95.0243,0,0)">
            <path d="M106.071,89.283L106.489,88.982C106.489,88.982 107.784,88.439 105.601,87.958C107.555,88.223 108.473,88.773 106.071,89.283Z" style="fill-rule:nonzero;"/>
        </g>
        <g transform="matrix(95.0243,0,0,95.0243,0,0)">
            <path d="M107.974,87.621C107.974,87.621 111.406,88.665 105.882,89.913L105.94,89.971C105.94,89.971 106.946,89.916 108.587,89.232C108.587,89.232 109.164,88.774 109.249,89.205C109.249,89.205 110.371,88.576 109.592,89.781C109.592,89.781 110.212,89.28 109.782,88.503C109.782,88.503 109.109,87.739 107.974,87.621Z" style="fill-rule:nonzero;"/>
        </g>
        <g transform="matrix(95.0243,0,0,95.0243,0,0)">
            <path d="M102.888,91.644C95.809,93.751 84.944,93.071 81.695,83.862C81.695,83.862 83.305,83.809 83.651,83.81C86.792,90.776 95.443,91.607 101.916,89.846C101.916,89.846 102.377,89.617 102.379,88.927C102.379,88.927 102.163,84.213 101.48,81.795C101.48,81.795 101.425,81.048 100.792,81.219C95.677,82.437 87.102,83.487 82.845,83.867C82.845,83.867 80.143,83.744 78.419,83.509L58.708,80.229C57.788,80.111 57.966,78.099 59.576,78.335L78.886,81.555L80.782,81.791L78.328,75.977L80.34,75.925L82.852,81.683C89.581,81.359 94.873,80.281 100.224,79.321C100.224,79.321 100.915,79.093 100.686,78.403C100.686,78.403 99.604,75.41 99.146,74.258C99.146,74.258 98.919,73.452 98.055,73.737C92.763,74.697 82.639,75.99 78.73,75.921C75.107,76.14 72.12,75.211 69.197,72.04C69.197,72.04 66.044,69.04 64.783,67.657C64.038,66.62 65.422,65.36 66.167,66.224C66.683,66.915 69.72,70.03 71.325,71.529C73.103,72.914 74.884,73.84 77.298,73.904L70.614,59.395C69.985,58.272 71.713,57.299 72.114,58.02L79.368,73.911C82.702,73.92 94.379,72.634 97.83,71.954L98.175,71.84C98.234,71.38 99.327,71.095 100.016,71.558C102.102,75.56 104.607,83.847 104.328,90.717C104.296,91.636 103.404,92.008 102.745,91.575" style="fill:rgb(40,61,119);fill-rule:nonzero;stroke:black;stroke-width:0.73px;stroke-linecap:round;"/>
        </g>
        <g transform="matrix(95.0243,0,0,95.0243,0,0)">
            <path d="M82.557,83.922C84.493,89.964 92.561,93.496 101.653,91.195" style="fill:none;stroke:black;stroke-width:0.55px;stroke-linecap:round;"/>
        </g>
        <g transform="matrix(95.0243,0,0,95.0243,0,0)">
            <path d="M59.974,79.713L78.537,82.787C80.318,83.023 81.64,83.17 82.791,83.059C87.564,82.786 95.387,81.717 100.162,80.639" style="fill:none;stroke:black;stroke-width:0.55px;stroke-linecap:round;"/>
        </g>
        <g transform="matrix(95.0243,0,0,95.0243,0,0)">
            <path d="M65.588,67.254C67.134,69.156 70.632,72.271 71.55,73.079C72.755,74.003 74.304,74.87 76.661,75.107C77.926,75.227 79.651,75.174 81.146,75.063C85.948,74.877 94.547,73.551 97.769,73.044" style="fill:none;stroke:black;stroke-width:0.55px;stroke-linecap:round;"/>
        </g>
        <g transform="matrix(95.0243,0,0,95.0243,0,0)">
            <path d="M100.938,90.115C100.606,90.1 102.39,89.932 102.775,90.653C102.775,90.653 102.938,89.158 101.987,89.845L100.938,90.115Z" style="fill-rule:nonzero;"/>
        </g>
        <g transform="matrix(95.0243,0,0,95.0243,0,0)">
            <path d="M102.202,80.732C103.48,85.737 103.352,89.992 103.352,89.992C103.183,88.928 102.953,89.042 102.953,89.042C102.954,88.466 102.927,88.294 102.927,88.294C102.823,85.678 102.567,83.521 101.999,81.45C101.999,81.451 102.201,81.164 102.202,80.732Z" style="fill-rule:nonzero;"/>
        </g>
        <g transform="matrix(95.0243,0,0,95.0243,0,0)">
            <path d="M101.166,81.246C101.166,81.246 101.541,80.96 101.514,80.299C101.225,80.672 100.995,80.989 99.239,81.559C99.238,81.559 100.734,81.159 101.166,81.246Z" style="fill-rule:nonzero;"/>
        </g>
        <g transform="matrix(95.0243,0,0,95.0243,0,0)">
            <path d="M99.606,73.911C99.606,73.911 99.292,73.307 99.062,73.363C99.062,73.363 99.408,73.106 99.123,72.242C100.065,74.114 101.35,77.251 101.832,79.38C101.832,79.38 101.518,78.69 101.172,78.803C101.172,78.803 101.375,78.458 101.146,77.94C101.146,77.94 100.234,75.35 99.606,73.911Z" style="fill-rule:nonzero;"/>
        </g>
        <g transform="matrix(95.0243,0,0,95.0243,0,0)">
            <path d="M98.256,73.706C98.256,73.706 98.486,73.534 98.574,72.902C97.824,73.935 97.192,73.76 96.185,74.044L98.256,73.706Z" style="fill-rule:nonzero;"/>
        </g>
        <g transform="matrix(95.0243,0,0,95.0243,0,0)">
            <path d="M97.858,71.951C97.858,71.951 98.434,71.694 98.432,72.47C98.432,72.47 98.261,71.895 96.19,72.233L97.858,71.951Z" style="fill-rule:nonzero;"/>
        </g>
        <g transform="matrix(95.0243,0,0,95.0243,0,0)">
            <path d="M97.605,79.769C100.367,79.375 100.682,79.434 101.457,79.896C101.229,79.234 100.769,78.888 100.569,79.088C100.569,79.088 98.834,79.594 97.605,79.769Z" style="fill-rule:nonzero;"/>
        </g>
        <g transform="matrix(95.0243,0,0,95.0243,0,0)">
            <path d="M59.614,75.083L57.072,78.871C56.38,79.846 58.273,80.887 58.909,79.911L61.393,76.239L59.614,75.083Z" style="fill:rgb(18,82,142);fill-rule:nonzero;stroke:black;stroke-width:0.73px;stroke-linecap:round;"/>
        </g>
        <g transform="matrix(95.0243,0,0,95.0243,0,0)">
            <path d="M60.675,75.863L58.191,79.593" style="fill:none;stroke:black;stroke-width:0.55px;stroke-linecap:round;"/>
        </g>
        <g transform="matrix(95.0243,0,0,95.0243,0,0)">
            <path d="M90.712,53.76C91.062,54.64 90.679,55.255 90.578,55.341C90.276,55.297 88.537,55.421 88.393,55.464C88.595,55.106 88.583,54.257 88.297,53.768C88.829,53.74 90.684,53.688 90.712,53.76Z" style="fill:white;fill-rule:nonzero;"/>
        </g>
        <g transform="matrix(95.0243,0,0,95.0243,0,0)">
            <path d="M76.305,59.869C77.916,59.413 82.116,59.024 83.381,58.913C85.623,58.574 88.269,58.525 88.269,58.525C91.317,58.247 90.336,59.567 88.899,59.332C88.899,59.332 89.762,58.932 88.326,58.927C87.406,58.925 83.955,59.202 83.322,59.258C82.795,59.304 79.182,59.591 77.413,59.858" style="fill-rule:nonzero;"/>
        </g>
        <g transform="matrix(95.0243,0,0,95.0243,0,0)">
            <path d="M71.19,59.048L71.592,59.222L78.447,74.134L78.102,74.133L71.19,59.048Z" style="fill-rule:nonzero;"/>
        </g>
        <g transform="matrix(95.0243,0,0,95.0243,0,0)">
            <path d="M78.902,75.918L79.218,75.919L81.931,82.021L81.528,82.021L78.902,75.918Z" style="fill-rule:nonzero;"/>
        </g>
        <g transform="matrix(95.0243,0,0,95.0243,0,0)">
            <path d="M78.24,75.945L80.31,75.951C80.31,75.951 78.642,76.234 78.783,76.924L78.24,75.945Z" style="fill-rule:nonzero;"/>
        </g>
        <g transform="matrix(95.0243,0,0,95.0243,0,0)">
            <path d="M83.679,83.868C83.679,83.868 82.068,83.978 82.094,84.869L81.696,83.804L83.679,83.868Z" style="fill-rule:nonzero;"/>
        </g>
        <g transform="matrix(95.0243,0,0,95.0243,0,0)">
            <path d="M60.004,78.362C60.004,78.362 58.878,80.141 58.676,80.141L59.797,80.345C59.223,79.826 59.196,79.337 60.004,78.362Z" style="fill-rule:nonzero;stroke:black;stroke-width:0.73px;"/>
        </g>
        <g transform="matrix(95.0243,0,0,95.0243,0,0)">
            <path d="M102.888,91.4C102.888,91.4 102.558,91.284 102.545,91.083C102.559,91.27 102.515,91.515 102.529,91.644C102.548,91.822 102.888,91.4 102.888,91.4Z" style="fill-rule:nonzero;"/>
        </g>
        <g transform="matrix(95.0243,0,0,95.0243,0,0)">
            <path d="M63.837,76.34C63.945,76.889 64.351,77.37 65.055,77.51C66.086,77.716 66.551,76.931 66.432,76.298C66.296,75.578 65.436,74.987 64.771,75.168" style="fill:rgb(0,54,29);fill-rule:nonzero;stroke:black;stroke-width:0.37px;stroke-linecap:square;"/>
        </g>
        <g transform="matrix(95.0243,0,0,95.0243,0,0)">
            <path d="M62.667,74.203C62.171,75.12 62.977,76.114 64.058,76.018C64.659,75.965 64.876,75.583 64.932,75.229" style="fill:none;stroke:black;stroke-width:0.35px;"/>
        </g>
        <g transform="matrix(95.0243,0,0,95.0243,0,0)">
            <path d="M63.57,73.989C63.195,74.434 63.22,75.656 63.421,75.929L63.736,76.002C63.523,75.44 63.598,74.594 63.886,74.09L63.57,73.989Z" style="fill-rule:nonzero;"/>
        </g>
        <g transform="matrix(95.0243,0,0,95.0243,0,0)">
            <path d="M64.501,75.872C64.39,76.554 64.882,77.372 66.19,77.108" style="fill:none;stroke:black;stroke-width:0.35px;stroke-linecap:round;"/>
        </g>
        <g transform="matrix(95.0243,0,0,95.0243,0,0)">
            <path d="M64.024,75.262C64.024,75.262 63.992,75.386 63.997,75.45C63.551,75.47 63.207,75.196 63.078,74.97L63.079,74.771C63.379,75.096 63.696,75.239 64.024,75.262Z" style="fill-rule:nonzero;"/>
        </g>
        <g transform="matrix(95.0243,0,0,95.0243,0,0)">
            <path d="M35.935,81.251C26.623,61.272 31.617,44.957 45.669,37.065C57.998,29.282 78.691,31.07 87.383,46.965" style="fill:none;stroke:black;stroke-width:0.91px;"/>
        </g>
        <g transform="matrix(95.0243,0,0,95.0243,0,0)">
            <path d="M102.711,78.635L102.711,78.693C104.25,78.439 105.228,78.241 106.235,77.928C106.235,77.928 106.637,78.002 106.737,78.187C105.5,78.529 104.061,78.842 102.796,79.052L102.711,78.635Z" style="fill-rule:nonzero;"/>
        </g>
        <g transform="matrix(95.0243,0,0,95.0243,0,0)">
            <path d="M52.91,86.936C53.479,86.462 53.505,85.532 52.981,84.789C52.457,84.045 51.545,83.786 50.944,84.209C50.343,84.632 50.241,85.691 50.765,86.434C51.289,87.178 52.345,87.407 52.91,86.936Z" style="fill-rule:nonzero;"/>
        </g>
        <g transform="matrix(95.0243,0,0,95.0243,0,0)">
            <path d="M52.392,85.43C52.309,85.296 51.975,85.013 51.762,84.94C51.532,84.86 51.457,85.171 51.65,85.21C51.84,85.247 52.182,85.536 52.286,85.761C52.377,85.956 52.604,85.779 52.392,85.43Z" style="fill:white;fill-rule:nonzero;"/>
        </g>
        <g transform="matrix(95.0243,0,0,95.0243,0,0)">
            <path d="M52.075,87.038C52.429,86.738 52.399,86.139 52.008,85.699C51.616,85.26 51.011,85.146 50.657,85.448C50.303,85.749 50.334,86.348 50.725,86.788C51.116,87.226 51.721,87.338 52.075,87.038Z" style="fill:white;fill-rule:nonzero;stroke:black;stroke-width:0.31px;"/>
        </g>
        <g transform="matrix(95.0243,0,0,95.0243,0,0)">
            <path d="M51.885,86.877C52.164,86.668 51.98,86.126 51.763,85.878C51.497,85.574 51.054,85.425 50.806,85.664C50.582,85.879 50.609,86.338 50.933,86.634C51.234,86.911 51.643,87.059 51.885,86.877Z" style="fill-rule:nonzero;"/>
        </g>
        <g transform="matrix(95.0243,0,0,95.0243,0,0)">
            <path d="M50.937,85.913C50.753,86.181 51.198,86.784 51.695,86.737C51.843,86.712 51.821,86.603 51.749,86.584C51.454,86.507 51.141,86.198 51.098,85.902C51.072,85.729 50.937,85.913 50.937,85.913Z" style="fill:white;fill-rule:nonzero;"/>
        </g>
        <g transform="matrix(95.0243,0,0,95.0243,0,0)">
            <path d="M50.716,85.161C51.395,83.022 54.238,85.904 52.533,86.869C53.594,85.491 51.492,83.903 50.716,85.161Z" style="fill:white;fill-rule:nonzero;"/>
        </g>
    </g>
</svg>
