<?xml version="1.0" encoding="UTF-8" standalone="no"?>
<!DOCTYPE svg PUBLIC "-//W3C//DTD SVG 1.1//EN" "http://www.w3.org/Graphics/SVG/1.1/DTD/svg11.dtd">
<svg width="100%" height="100%" viewBox="0 0 9012 5177" version="1.1" xmlns="http://www.w3.org/2000/svg" xmlns:xlink="http://www.w3.org/1999/xlink" xml:space="preserve" xmlns:serif="http://www.serif.com/" style="fill-rule:evenodd;clip-rule:evenodd;">
    <g transform="matrix(1,0,0,1,-22200.4,-2831.3)">
        <g transform="matrix(118.78,0,0,118.78,0,0)">
            <path d="M258.622,48.725C258.455,47.765 257.442,46.976 257.442,46.976C257.442,46.976 257.841,45.749 257.442,44.942C257.008,44.064 255.774,43.599 255.774,43.599C255.774,43.599 255.977,41.466 254.675,40.507C253.709,39.795 251.136,40.181 251.136,40.181L255.57,35.218C255.57,35.218 253.315,36.032 250.769,36.723C248.376,37.373 245.684,37.903 245.684,37.903C245.684,37.903 244.453,38.162 243.934,38.839C243.531,39.364 243.812,40.344 243.812,40.344C243.812,40.344 242.464,39.843 241.412,39.531C240.094,39.139 239.012,38.921 239.012,38.921L238.958,38.95L238.942,38.943L239.012,38.921C239.012,38.921 238.188,37.955 237.141,37.254C235.978,36.474 234.578,35.951 234.578,35.951C234.578,35.951 234.686,35.76 234.66,35.544C234.626,35.277 234.456,34.975 234.456,34.975C234.456,34.975 234.654,35.256 235.026,35.504C235.386,35.743 235.922,35.952 235.922,35.952C235.922,35.952 236.699,36.148 237.102,36.034C237.393,35.951 237.346,35.545 237.346,35.545C236.385,35.811 236.139,34.432 235.317,34.441C236.354,34.415 238.634,35.983 238.811,34.243C237.768,34.781 236.886,33.742 235.937,33.497C235.57,33.403 234.338,33.384 234.173,33.877C234.173,33.876 234.21,33.766 234.132,33.632C234.069,33.525 233.888,33.388 233.888,33.388C233.888,33.388 235.389,32.309 235.963,30.987C236.462,29.84 236.045,28.424 236.045,28.424C236.045,28.424 233.928,28.295 232.587,28.424C231.394,28.539 230.96,28.911 230.96,28.911C230.96,28.911 230.09,28.344 228.804,28.139C227.197,27.883 225.102,27.976 225.102,27.976L224.857,28.465L224.532,27.976C224.532,27.976 222.569,27.903 221.033,28.139C219.67,28.349 218.714,28.871 218.714,28.871C218.714,28.871 217.984,28.476 216.802,28.384C215.434,28.275 213.588,28.465 213.588,28.465C213.588,28.465 213.196,29.823 213.71,31.028C214.253,32.302 215.704,33.428 215.704,33.428C215.704,33.428 215.452,33.963 215.297,34.527C215.109,35.213 215.012,35.951 215.012,35.951C215.012,35.951 213.715,36.426 212.571,37.172C211.5,37.869 210.578,38.84 210.578,38.84C210.578,38.84 209.364,39.042 208.279,39.389C207.378,39.677 206.571,40.121 206.571,40.121C206.571,40.121 206.701,39.292 206.144,38.718C205.636,38.195 204.435,37.925 204.435,37.925C204.435,37.925 201.452,37.458 198.76,36.765C196.24,36.117 194,35.24 194,35.24L198.455,40.305C198.455,40.305 196.333,39.565 195.038,40.487C194.561,40.829 194.216,41.514 194.011,42.16C193.755,42.966 193.878,43.661 193.878,43.661C193.878,43.661 192.753,44.053 192.292,44.943C191.905,45.688 192.17,46.957 192.17,46.957C192.17,46.957 191.244,47.634 191.071,48.604C190.908,49.523 191.499,50.74 191.499,50.74C191.499,50.74 190.757,52.067 191.132,53.12C191.549,54.288 193.085,55.195 193.085,55.195C193.085,55.195 193.092,55.534 193.33,55.867C193.599,56.243 194.103,56.619 194.103,56.619L193.085,60.769L200.53,58.532L199.676,61.216L202.239,63.251C202.239,63.251 204.617,62.089 209.488,61.356C213.562,60.744 218.882,60.289 224.005,60.28C230.154,60.27 236.008,60.802 240.38,61.475C244.965,62.183 247.317,63.291 247.317,63.291L249.921,61.175L248.985,58.328L253.134,59.426C253.134,59.426 254.372,59.688 254.843,59.06C255.347,58.388 255.087,56.823 255.087,56.823C255.087,56.823 255.827,56.584 256.226,56.131C256.577,55.733 256.592,55.113 256.592,55.113C256.592,55.113 258.12,54.281 258.504,53.161C258.872,52.084 258.097,50.72 258.097,50.72C258.097,50.72 258.779,49.634 258.622,48.725Z" style="fill-rule:nonzero;stroke:rgb(235,45,46);stroke-width:2px;"/>
        </g>
        <g transform="matrix(118.78,0,0,118.78,0,0)">
            <path d="M215.131,36.886C215.131,36.886 213.365,37.469 212.121,38.595C211.014,39.597 210.413,41.158 210.413,41.158L210.413,39.897C210.413,39.897 209.225,40.392 208.135,40.751C207.203,41.058 206.345,41.24 206.345,41.24L206.1,42.094C206.1,42.094 208.854,42.706 211.999,43.03C215.579,43.396 219.606,43.477 219.606,43.477C219.606,43.477 219.203,42.831 218.548,42.176C217.88,41.508 216.961,40.833 216.961,40.833C216.961,40.833 216.072,40.121 215.659,39.287C215.164,38.286 215.13,37.131 215.13,37.131" style="fill:rgb(245,183,41);fill-rule:nonzero;"/>
        </g>
        <g transform="matrix(118.78,0,0,118.78,0,0)">
            <path d="M234.455,37.089C234.455,37.089 234.475,38.143 234.089,39.002C233.663,39.949 232.828,40.71 232.828,40.71C232.828,40.71 231.764,41.426 231.078,42.094C230.324,42.827 229.939,43.517 229.939,43.517C229.939,43.517 234.028,43.4 238.116,42.988C240.805,42.718 244.096,42.094 244.096,42.094L243.933,41.565C243.933,41.565 243.282,41.253 242.265,40.914C240.942,40.473 239.173,39.978 239.173,39.978L239.173,41.239C239.173,41.239 238.695,39.739 237.587,38.717C236.344,37.57 234.454,36.886 234.454,36.886" style="fill:rgb(245,183,41);fill-rule:nonzero;"/>
        </g>
        <g transform="matrix(118.78,0,0,118.78,0,0)">
            <path d="M224.732,48.969C224.732,48.969 226.645,48.907 227.498,48.156C228.353,47.402 228.149,45.958 228.149,45.958C228.149,45.958 228.409,44.188 229.248,42.826C230.035,41.547 231.404,40.67 231.404,40.67C231.404,40.67 233.239,39.292 233.641,37.741C234.091,36.006 233.112,34.079 233.112,34.079C233.112,34.079 230.783,36.754 228.434,37.293C226.712,37.688 224.772,35.992 224.772,35.992C224.772,35.992 222.954,37.744 221.029,37.293C218.806,36.772 216.432,34.038 216.432,34.038C216.432,34.038 215.469,36.102 215.985,37.904C216.418,39.412 218.345,40.711 218.345,40.711C218.345,40.711 219.755,41.76 220.623,43.233C221.267,44.326 221.436,45.959 221.436,45.959C221.436,45.959 221.514,47.657 222.44,48.336C222.698,48.525 223.023,48.633 223.349,48.685C224.174,48.818 224.935,48.564 224.935,48.564" style="fill:rgb(245,183,41);fill-rule:nonzero;"/>
        </g>
        <g transform="matrix(118.78,0,0,118.78,0,0)">
            <path d="M217.572,32.086C217.572,32.086 218.031,32.249 218.873,32.371C220.168,32.559 222.047,32.737 222.047,32.737L222.779,31.638L222.454,32.737L227.377,32.737L227.133,32.127L227.662,32.696C227.662,32.696 228.998,32.623 230.062,32.492C231.154,32.359 231.974,32.166 231.974,32.166L231.649,31.678L231.69,31.475L230.754,30.865C230.754,30.865 231.321,30.884 231.853,31.15C232.288,31.367 232.707,31.841 232.707,31.841C232.707,31.841 233.063,31.168 233.602,30.58C234.199,29.929 234.985,29.36 234.985,29.36C234.985,29.36 233.699,29.268 232.625,29.4C231.563,29.531 230.713,29.889 230.713,29.889C230.713,29.889 229.794,29.373 228.597,29.156C227.222,28.907 225.546,28.953 225.546,28.953L224.773,29.726L224.081,28.994C224.081,28.994 222.552,28.866 221.071,29.116C219.962,29.304 218.792,29.889 218.792,29.889C218.792,29.889 217.916,29.493 216.839,29.36C215.78,29.229 214.52,29.36 214.52,29.36C214.52,29.36 215.357,29.972 215.984,30.661C216.598,31.336 217.001,32.085 217.001,32.085L217.978,31.515" style="fill:rgb(245,183,41);fill-rule:nonzero;"/>
        </g>
        <g transform="matrix(118.78,0,0,118.78,0,0)">
            <path d="M251.664,42.745C251.664,42.745 252.861,42.553 253.536,42.907C254.036,43.17 254.065,44.006 254.065,44.006C254.065,44.006 254.035,44.683 253.821,45.145C253.521,45.791 253.008,46.284 253.008,46.284C253.008,46.284 253.856,46.202 254.594,46.326C255.179,46.423 255.693,46.733 255.693,46.733C255.693,46.733 255.587,47.457 255.327,48.157C255.058,48.88 254.636,49.58 254.636,49.58C254.636,49.58 255.208,49.464 255.653,49.662C256.082,49.851 256.386,50.353 256.386,50.353C256.386,50.353 256.321,51.228 255.938,51.94C255.59,52.588 254.921,53.079 254.921,53.079C254.921,53.079 255.703,53.055 256.223,53.242C256.719,53.421 256.956,53.811 256.956,53.811C256.956,53.811 257.449,53.171 257.525,52.55C257.59,52.019 257.24,51.492 257.24,51.492C257.24,51.492 256.914,52.001 256.589,52.225C256.264,52.449 255.939,52.387 255.939,52.387C255.939,52.387 256.529,52.048 256.997,51.126C257.203,50.721 257.384,50.217 257.477,49.71C257.652,48.759 256.956,47.504 256.956,47.504C256.956,47.504 256.46,48.437 256.06,48.806C255.666,49.17 255.368,48.969 255.368,48.969C255.368,48.969 256.083,48.344 256.386,47.301C256.53,46.805 256.564,46.193 256.527,45.712C256.468,44.958 255.572,44.778 255.572,44.778C255.572,44.778 255.305,45.265 254.921,45.511C254.574,45.732 254.107,45.715 254.107,45.715C254.107,45.715 254.889,45.049 255.002,44.087C255.089,43.351 254.514,42.256 254.514,42.256C254.514,42.256 254.07,41.71 253.497,41.605C252.517,41.426 251.178,41.646 251.178,41.646" style="fill:rgb(245,183,41);fill-rule:nonzero;"/>
        </g>
        <g transform="matrix(118.78,0,0,118.78,0,0)">
            <path d="M198.003,42.786C198.003,42.786 197.07,42.496 196.376,42.704C195.886,42.851 195.563,43.517 195.563,43.517C195.563,43.517 195.465,44.291 195.726,44.982C195.994,45.693 196.621,46.325 196.621,46.325C196.621,46.325 195.858,46.176 195.156,46.283C194.542,46.378 193.976,46.731 193.976,46.731C193.976,46.731 194.034,47.569 194.301,48.317C194.541,48.989 194.993,49.578 194.993,49.578C194.993,49.578 194.675,49.323 194.22,49.497C193.721,49.688 193.081,50.31 193.081,50.31C193.081,50.31 193.374,51.283 193.814,52.059C194.156,52.664 194.668,53.117 194.668,53.117C194.668,53.117 194.054,53.023 193.529,53.199C193.085,53.347 192.716,53.769 192.716,53.769C192.716,53.769 192.257,53.387 192.146,52.833C192.033,52.269 192.268,51.531 192.268,51.531C192.268,51.531 192.626,51.945 192.959,52.182C193.253,52.39 193.529,52.427 193.529,52.427C193.529,52.427 192.423,50.997 192.146,49.538C192.005,48.796 192.594,47.504 192.594,47.504C192.594,47.504 192.972,48.294 193.367,48.643C193.84,49.061 194.343,49.05 194.343,49.05C194.343,49.05 193.696,48.551 193.326,47.545C193.12,46.982 193.003,46.257 193.005,45.717C193.007,45.136 194.018,44.778 194.018,44.778C194.018,44.778 194.222,45.177 194.547,45.388C194.963,45.659 195.523,45.754 195.523,45.754C195.523,45.754 194.905,45.17 194.669,44.412C194.521,43.938 194.71,43.151 194.71,43.151C194.71,43.151 194.819,42.502 195.158,42.134C195.53,41.731 196.134,41.605 196.134,41.605L198.494,41.687" style="fill:rgb(245,183,41);fill-rule:nonzero;"/>
        </g>
        <g transform="matrix(118.78,0,0,118.78,0,0)">
            <path d="M233.998,31.119C233.998,31.119 233.804,31.51 233.571,31.821C233.404,32.045 233.175,32.218 233.175,32.218L233.541,32.737C233.541,32.737 234.407,32.078 234.823,31.486C235.197,30.953 235.128,30.479 235.128,30.479C235.128,30.479 234.847,31.091 234.517,31.395C234.285,31.609 233.968,31.547 233.968,31.547" style="fill:white;fill-rule:nonzero;"/>
        </g>
        <g transform="matrix(118.78,0,0,118.78,0,0)">
            <path d="M215.599,31.15C215.599,31.15 215.958,31.529 216.179,31.82C216.385,32.092 216.453,32.278 216.453,32.278C216.453,32.278 216.388,32.355 216.314,32.443C216.221,32.552 216.117,32.676 216.117,32.676C216.117,32.676 215.339,32.122 214.957,31.608C214.518,31.014 214.469,30.449 214.469,30.449C214.469,30.449 214.712,30.958 215.049,31.303C215.264,31.523 215.629,31.638 215.629,31.638" style="fill:white;fill-rule:nonzero;"/>
        </g>
        <g transform="matrix(118.78,0,0,118.78,0,0)">
            <path d="M228.109,34.812C228.109,34.812 227.916,34.903 227.763,35.036C227.542,35.227 227.336,35.483 227.336,35.483C227.336,35.483 227.638,35.649 227.926,35.728C228.237,35.812 228.536,35.809 228.536,35.809C228.536,35.809 228.291,35.657 228.19,35.464C228.07,35.233 228.088,34.955 228.088,34.955" style="fill:white;fill-rule:nonzero;"/>
        </g>
        <g transform="matrix(118.78,0,0,118.78,0,0)">
            <ellipse cx="228.984" cy="34.974" rx="0.529" ry="0.489" style="fill:rgb(235,45,46);"/>
        </g>
        <g transform="matrix(118.78,0,0,118.78,0,0)">
            <ellipse cx="220.816" cy="34.994" rx="0.539" ry="0.489" style="fill:rgb(235,45,46);"/>
        </g>
        <g transform="matrix(118.78,0,0,118.78,0,0)">
            <path d="M229.126,34.893L229.899,34.608L229.655,34.282C229.655,34.282 229.948,34.279 230.204,34.343C230.434,34.401 230.631,34.527 230.631,34.527C230.631,34.527 230.525,34.746 230.367,34.933C230.157,35.183 229.879,35.422 229.879,35.422L229.94,34.873" style="fill:white;fill-rule:nonzero;"/>
        </g>
        <g transform="matrix(118.78,0,0,118.78,0,0)">
            <path d="M220.623,34.914L219.911,34.548L220.114,34.323C220.114,34.323 219.894,34.287 219.667,34.323C219.457,34.358 219.24,34.466 219.24,34.466C219.24,34.466 219.334,34.757 219.524,34.994C219.699,35.214 219.972,35.381 219.972,35.381C219.972,35.381 219.946,35.257 219.921,35.135C219.896,35.014 219.87,34.893 219.87,34.893" style="fill:white;fill-rule:nonzero;"/>
        </g>
        <g transform="matrix(118.78,0,0,118.78,0,0)">
            <path d="M221.763,34.812C221.763,34.812 222.012,34.939 222.19,35.118C222.368,35.295 222.475,35.524 222.475,35.524C222.475,35.524 222.231,35.658 221.926,35.728C221.612,35.799 221.235,35.809 221.235,35.809C221.235,35.809 221.534,35.658 221.662,35.443C221.788,35.231 221.744,34.955 221.744,34.955" style="fill:white;fill-rule:nonzero;"/>
        </g>
        <g transform="matrix(118.78,0,0,118.78,0,0)">
            <path d="M230.184,37.049L229.615,36.723C229.615,36.723 229.05,37.239 228.313,37.577C227.711,37.853 226.909,37.963 226.909,37.963L224.936,39.692C224.936,39.692 225.314,40.604 226.238,40.912C227.08,41.192 228.476,40.871 228.476,40.871L230.47,39.488L230.511,37.372" style="fill:white;fill-rule:nonzero;"/>
        </g>
        <g transform="matrix(118.78,0,0,118.78,0,0)">
            <path d="M219.037,38.676C219.037,38.676 218.966,38.252 219.173,37.801C219.398,37.314 219.886,36.855 219.886,36.855C219.886,36.855 220.359,37.102 221.012,37.439C221.751,37.819 222.698,38.229 222.698,38.229L224.733,40.02L222.78,41.036L220.34,40.59L219.078,39.206" style="fill:white;fill-rule:nonzero;"/>
        </g>
        <g transform="matrix(118.78,0,0,118.78,0,0)">
            <path d="M231.002,37.995C230.974,37.798 230.762,37.125 230.49,36.808C230.49,36.808 230.489,36.807 230.489,36.806C230.325,36.568 230.047,36.352 230.047,36.352L229.422,36.611C229.422,36.611 229.551,36.642 229.704,36.71C229.651,36.718 229.616,36.723 229.616,36.723C229.616,36.723 230.123,37.057 230.307,37.699C230.421,38.097 230.453,38.578 230.365,39.011C230.233,39.658 229.249,40.222 229.249,40.222C229.249,40.222 228.94,40.485 228.232,40.628C227.904,40.695 227.514,40.737 227.157,40.722C226.064,40.674 225.425,40.059 225.425,40.059C225.425,40.059 226.216,39.525 226.768,38.92C227.249,38.392 227.5,37.781 227.5,37.781C227.5,37.781 227.534,37.648 227.418,37.578C227.335,37.529 227.093,37.537 227.093,37.537C227.093,37.537 225.708,38.094 224.571,38.024C223.352,37.951 222.374,37.253 222.374,37.253L221.926,37.253C221.926,37.253 221.912,37.884 222.536,38.675C223.037,39.31 224.204,40.14 224.204,40.14C224.204,40.14 223.954,40.378 223.391,40.547C223.117,40.63 222.785,40.694 222.415,40.707C221.592,40.734 220.38,40.263 220.38,40.263C220.38,40.263 219.44,39.614 219.281,38.758C219.135,37.969 219.769,36.968 219.769,36.968C219.769,36.968 219.265,37.265 218.956,37.74C218.464,38.494 218.691,39.46 219.248,40.112C219.461,40.361 219.725,40.568 220.007,40.733C220.054,40.76 220.452,40.909 220.462,40.954C220.462,40.954 220.572,41.461 220.828,42.011C221.081,42.558 221.478,43.151 221.478,43.151C221.478,43.151 221.799,43.701 221.967,44.371C222.1,44.906 222.089,45.592 222.089,45.592C222.089,45.592 222.074,46.251 222.252,46.772C222.364,47.101 222.699,47.382 222.699,47.382C222.699,47.382 223.659,47.931 224.652,47.992C225.632,48.052 226.645,47.626 226.645,47.626C226.645,47.626 227.1,47.584 227.337,47.015C227.567,46.464 227.581,45.388 227.581,45.388C227.581,45.388 227.646,44.695 227.785,44.127C227.883,43.728 228.07,43.395 228.07,43.395C228.07,43.395 228.595,42.555 228.924,41.85C229.139,41.389 229.209,40.954 229.209,40.954C230.426,40.402 231.198,39.384 231.002,37.995Z" style="fill-rule:nonzero;"/>
        </g>
        <g transform="matrix(118.78,0,0,118.78,0,0)">
            <path d="M222.657,37.944C222.657,37.944 223.803,38.325 224.895,38.33C225.927,38.336 226.909,37.964 226.909,37.964C226.909,37.964 226.709,38.347 226.38,38.595C226.048,38.845 225.587,38.96 225.587,38.96L225.811,39.042C225.811,39.042 225.745,39.27 225.526,39.449C225.252,39.672 224.814,39.856 224.814,39.856C224.814,39.856 224.419,39.718 224.163,39.551C223.872,39.363 223.716,39.145 223.716,39.145L223.899,39.084C223.899,39.084 223.394,38.833 223.147,38.615C222.825,38.333 222.74,38.066 222.74,38.066" style="fill:rgb(235,45,46);fill-rule:nonzero;"/>
        </g>
        <g transform="matrix(118.78,0,0,118.78,0,0)">
            <path d="M224.112,45.705L223.777,45.949C223.777,45.949 223.33,45.683 223.106,45.186C222.845,44.607 222.801,43.782 222.801,43.782L223.259,43.934C223.259,43.934 223.132,43.428 223.107,43.019C223.088,42.71 223.168,42.47 223.168,42.47C223.168,42.47 223.292,42.257 223.626,42.196C223.963,42.134 224.511,42.226 224.511,42.226C224.511,42.226 224.378,42.433 224.389,42.654C224.407,43.019 224.572,43.477 224.572,43.477C224.572,43.477 224.698,43.6 224.725,43.752C224.77,44.013 224.725,44.362 224.725,44.362C224.725,44.362 224.96,44.114 225.061,43.813C225.141,43.572 225.091,43.263 225.091,43.263C225.091,43.263 225.005,42.942 225.03,42.654C225.051,42.413 225.182,42.196 225.182,42.196C225.182,42.196 225.624,42.167 225.975,42.257C226.276,42.334 226.494,42.532 226.494,42.532C226.494,42.532 226.577,42.833 226.524,43.142C226.469,43.473 226.28,43.813 226.28,43.813L226.799,43.751C226.799,43.751 226.722,44.633 226.494,45.124C226.223,45.709 225.792,45.917 225.792,45.917L225.67,45.704L224.267,45.673" style="fill:rgb(235,45,46);fill-rule:nonzero;"/>
        </g>
        <g transform="matrix(118.78,0,0,118.78,0,0)">
            <path d="M223.918,36.886C223.918,36.886 224.353,36.764 224.813,36.764C225.247,36.764 225.708,36.886 225.708,36.886L225.138,36.561L224.366,36.561" style="fill:white;fill-rule:nonzero;"/>
        </g>
        <g transform="matrix(118.78,0,0,118.78,0,0)">
            <path d="M222.779,41.443C222.779,41.443 222.566,41.808 222.535,42.256C222.505,42.703 222.657,43.232 222.657,43.232C222.657,43.232 222.076,42.872 221.803,42.419C221.489,41.9 221.477,41.28 221.477,41.28C221.477,41.28 222.532,41.402 223.39,41.157C224.241,40.914 224.895,40.303 224.895,40.303C224.895,40.303 225.253,40.856 226.034,41.116C226.84,41.385 228.068,41.361 228.068,41.361C228.068,41.361 228.003,42.038 227.702,42.5C227.436,42.909 226.929,43.11 226.929,43.11C226.929,43.11 227.07,42.732 227.051,42.337C227.03,41.901 226.847,41.442 226.847,41.442L226.074,41.89L225.464,41.32L224.733,41.768L224.041,41.28L223.553,41.849" style="fill:white;fill-rule:nonzero;"/>
        </g>
        <g transform="matrix(118.78,0,0,118.78,0,0)">
            <path d="M223.634,46.528C223.634,46.528 223.433,46.496 223.227,46.243C222.988,45.95 222.739,45.43 222.739,45.43C222.739,45.43 222.456,46.066 222.739,46.61C222.982,47.077 223.796,47.464 223.796,47.464L225.668,47.464C225.668,47.464 226.6,47.109 226.848,46.651C227.145,46.101 226.767,45.431 226.767,45.431C226.767,45.431 226.64,45.896 226.4,46.203C226.222,46.432 225.912,46.528 225.912,46.528L225.546,46.284L225.22,46.61L224.773,46.284L224.366,46.61L224,46.284" style="fill:white;fill-rule:nonzero;"/>
        </g>
        <g transform="matrix(118.78,0,0,118.78,0,0)">
            <path d="M227.972,38.106C227.972,38.106 229.41,37.875 230.687,37.435C231.911,37.014 232.976,36.383 232.976,36.383C232.976,36.383 232.319,36.993 231.115,37.528C229.963,38.039 228.262,38.474 228.262,38.474C228.262,38.474 228.103,38.467 228.033,38.398C227.958,38.323 227.972,38.184 227.972,38.184" style="fill-rule:nonzero;"/>
        </g>
        <g transform="matrix(118.78,0,0,118.78,0,0)">
            <path d="M227.483,38.931C227.483,38.931 227.379,39.025 227.391,39.114C227.402,39.193 227.529,39.266 227.529,39.266C227.529,39.266 229.42,39.185 230.779,38.854C231.899,38.581 232.533,38.045 232.533,38.045C232.533,38.045 231.578,38.506 230.336,38.702C229.1,38.896 227.575,38.824 227.575,38.824" style="fill-rule:nonzero;"/>
        </g>
        <g transform="matrix(118.78,0,0,118.78,0,0)">
            <path d="M226.858,39.724C226.858,39.724 228.447,39.891 229.817,39.847C230.995,39.807 231.984,39.556 231.984,39.556C231.984,39.556 231.253,39.906 230.199,40.029C228.77,40.197 226.903,40.152 226.903,40.152C226.903,40.152 226.818,40.109 226.797,40.029C226.773,39.941 226.813,39.816 226.813,39.816" style="fill-rule:nonzero;"/>
        </g>
        <g transform="matrix(118.78,0,0,118.78,0,0)">
            <path d="M221.671,38.077C221.671,38.077 220.404,37.932 219.245,37.528C217.968,37.08 216.788,36.368 216.788,36.368C216.788,36.368 217.571,37.121 218.71,37.635C219.903,38.173 221.456,38.474 221.456,38.474C221.456,38.474 221.621,38.462 221.685,38.383C221.75,38.302 221.715,38.154 221.715,38.154" style="fill-rule:nonzero;"/>
        </g>
        <g transform="matrix(118.78,0,0,118.78,0,0)">
            <path d="M222.189,38.96C222.189,38.96 220.881,38.945 219.626,38.717C218.326,38.481 217.079,38.03 217.079,38.03C217.079,38.03 218.283,38.655 219.611,38.976C220.8,39.264 222.128,39.251 222.128,39.251C222.128,39.251 222.22,39.24 222.25,39.189C222.288,39.126 222.265,39.022 222.265,39.022" style="fill-rule:nonzero;"/>
        </g>
        <g transform="matrix(118.78,0,0,118.78,0,0)">
            <path d="M222.83,39.755C222.83,39.755 221.814,39.929 220.541,39.861C219.243,39.791 217.688,39.48 217.688,39.48C217.688,39.48 218.694,39.944 220.037,40.12C221.241,40.279 222.799,40.151 222.799,40.151C222.799,40.151 222.896,40.089 222.921,39.984C222.941,39.902 222.89,39.77 222.89,39.77" style="fill-rule:nonzero;"/>
        </g>
        <g transform="matrix(118.78,0,0,118.78,0,0)">
            <path d="M234.374,36.845C234.374,36.845 236.298,37.535 237.588,38.717C238.681,39.717 239.174,41.239 239.174,41.239C239.174,41.239 238.407,39.841 237.262,38.96C236.04,38.022 234.434,37.598 234.434,37.598" style="fill:white;fill-rule:nonzero;"/>
        </g>
        <g transform="matrix(118.78,0,0,118.78,0,0)">
            <path d="M215.212,36.866C215.212,36.866 213.359,37.489 212.238,38.491C210.968,39.626 210.412,41.158 210.412,41.158C210.412,41.158 211.418,39.672 212.69,38.656C213.771,37.792 215.151,37.374 215.151,37.374" style="fill:white;fill-rule:nonzero;"/>
        </g>
        <g transform="matrix(118.78,0,0,118.78,0,0)">
            <path d="M251.787,43.538C251.787,43.538 252.043,44.508 251.848,45.308C251.7,45.916 251.085,46.407 251.085,46.407C251.085,46.407 252.279,46.169 252.825,45.521C253.347,44.902 253.221,43.874 253.221,43.874C253.221,43.874 253.019,43.654 252.702,43.569C252.393,43.486 251.97,43.538 251.97,43.538" style="fill:white;fill-rule:nonzero;"/>
        </g>
        <g transform="matrix(118.78,0,0,118.78,0,0)">
            <path d="M252.885,47.077C252.885,47.077 253.177,47.833 252.946,48.542C252.753,49.135 252.03,49.701 252.03,49.701C252.03,49.701 253.368,49.675 253.983,49.121C254.742,48.437 254.808,47.198 254.808,47.198C254.808,47.198 254.423,46.97 253.983,46.924C253.553,46.879 253.068,47.015 253.068,47.015" style="fill:white;fill-rule:nonzero;"/>
        </g>
        <g transform="matrix(118.78,0,0,118.78,0,0)">
            <path d="M253.831,50.402C253.831,50.402 254.006,51.26 253.648,51.959C253.402,52.439 252.58,52.844 252.58,52.844C252.58,52.844 253.762,53.142 254.542,52.594C254.783,52.425 254.986,52.182 255.143,51.928C255.517,51.325 255.57,50.678 255.57,50.678C255.57,50.678 255.333,50.425 254.96,50.342C254.57,50.257 254.044,50.342 254.044,50.342" style="fill:white;fill-rule:nonzero;"/>
        </g>
        <g transform="matrix(118.78,0,0,118.78,0,0)">
            <path d="M254.593,54.096C254.593,54.096 254.637,54.714 254.349,55.194C254.089,55.627 253.495,55.927 253.495,55.927C253.495,55.927 254.144,56.215 254.715,55.866C255.318,55.498 255.844,54.492 255.844,54.492C255.844,54.492 255.833,54.25 255.6,54.156C255.306,54.039 254.776,54.065 254.776,54.065" style="fill:white;fill-rule:nonzero;"/>
        </g>
        <g transform="matrix(118.78,0,0,118.78,0,0)">
            <path d="M197.872,43.629C197.872,43.629 197.556,44.447 197.719,45.155C197.876,45.835 198.512,46.406 198.512,46.406C198.512,46.406 197.517,46.322 196.956,45.673C196.436,45.073 196.346,43.904 196.346,43.904C196.346,43.904 196.651,43.642 197.017,43.569C197.333,43.506 197.719,43.63 197.719,43.63" style="fill:white;fill-rule:nonzero;"/>
        </g>
        <g transform="matrix(118.78,0,0,118.78,0,0)">
            <path d="M196.772,47.138C196.772,47.138 196.507,47.89 196.711,48.542C196.919,49.203 197.596,49.763 197.596,49.763C197.596,49.763 196.193,49.63 195.551,49.03C194.825,48.353 194.849,47.199 194.849,47.199C194.849,47.199 195.192,46.939 195.612,46.894C196.061,46.848 196.589,47.016 196.589,47.016" style="fill:white;fill-rule:nonzero;"/>
        </g>
        <g transform="matrix(118.78,0,0,118.78,0,0)">
            <path d="M195.797,50.434C195.797,50.434 195.638,51.207 195.949,51.837C196.248,52.441 197.017,52.904 197.017,52.904C197.017,52.904 195.871,53.134 195.125,52.599C194.362,52.051 193.996,50.738 193.996,50.738C193.996,50.738 194.272,50.363 194.637,50.281C195.074,50.181 195.614,50.372 195.614,50.372" style="fill:white;fill-rule:nonzero;"/>
        </g>
        <g transform="matrix(118.78,0,0,118.78,0,0)">
            <path d="M195.217,53.851C195.217,53.851 195.135,54.656 195.491,55.224C195.803,55.72 196.559,55.987 196.559,55.987C196.559,55.987 195.525,56.408 194.789,56.018C194.001,55.601 193.508,54.37 193.508,54.37C193.508,54.37 193.755,54.003 194.118,53.882C194.53,53.745 195.064,53.851 195.064,53.851" style="fill:white;fill-rule:nonzero;"/>
        </g>
        <g transform="matrix(118.78,0,0,118.78,0,0)">
            <path d="M233.357,44.392L234.211,50.128L236.286,51.471L236.164,50.312L238.666,50.189L238.422,48.298L235.92,48.298L235.554,46.101L238.117,45.857L237.934,44.147L233.357,44.392Z" style="fill:rgb(49,151,206);fill-rule:nonzero;"/>
        </g>
        <g transform="matrix(118.78,0,0,118.78,0,0)">
            <path d="M234.272,50.8L234.882,55.316L237.019,55.376L236.286,54.705L238.3,55.56L239.704,55.56L239.398,53.851L236.652,53.546L236.408,52.204L234.272,50.8Z" style="fill:rgb(49,151,206);fill-rule:nonzero;"/>
        </g>
        <g transform="matrix(118.78,0,0,118.78,0,0)">
            <path d="M228.536,54.95L233.662,55.194L233.418,53.302L230.306,53.059L229.818,44.759L229.147,44.698C229.147,44.698 228.994,44.957 228.933,45.247C228.872,45.537 228.903,45.857 228.903,45.857C228.903,45.857 229.052,46.644 228.842,47.322C228.625,48.018 228.049,48.603 228.049,48.603L228.415,52.691L230.612,54.278L228.537,53.485L228.537,54.95L228.536,54.95Z" style="fill:rgb(49,151,206);fill-rule:nonzero;"/>
        </g>
        <g transform="matrix(118.78,0,0,118.78,0,0)">
            <path d="M224.529,53.119L225.587,53.526L226.4,49.539C226.4,49.539 224.216,50.212 222.901,49.62C221.978,49.205 220.915,48.027 220.715,47.006C220.563,46.23 220.632,45.545 220.338,44.778L218.507,44.778L219.443,49.701L221.681,51.247L219.565,50.351L220.541,54.867L221.884,54.908L223.024,51.654L223.959,54.786L225.302,54.908L225.464,53.891" style="fill:rgb(49,151,206);fill-rule:nonzero;"/>
        </g>
        <g transform="matrix(118.78,0,0,118.78,0,0)">
            <path d="M197.678,37.578L204.595,39.205C204.595,39.205 205.27,39.342 205.49,39.815C205.646,40.152 205.368,40.873 205.368,40.873L203.293,48.481C203.293,48.481 203.251,48.857 202.968,49.131C202.662,49.425 202.113,49.619 202.113,49.619L199.266,49.619L199.143,50.026L197.516,48.846L197.964,47.056L199.917,47.178L199.795,47.667L201.626,47.707L203.538,40.914L201.829,40.466L201.056,43.111L199.592,41.402L199.958,40.101" style="fill:rgb(49,151,206);fill-rule:nonzero;"/>
        </g>
        <g transform="matrix(118.78,0,0,118.78,0,0)">
            <path d="M200.974,43.477L199.346,42.297L198.858,43.924C198.858,43.924 198.678,44.895 198.939,45.47C199.262,46.181 200.038,46.527 200.038,46.527" style="fill:rgb(49,151,206);fill-rule:nonzero;"/>
        </g>
        <g transform="matrix(118.78,0,0,118.78,0,0)">
            <path d="M199.021,50.312C199.021,50.312 198.749,50.383 198.208,50.394C197.761,50.403 197.028,50.353 197.028,50.353L196.703,51.655C196.703,51.655 196.896,52.125 197.313,52.468C197.709,52.796 198.33,52.997 198.33,52.997" style="fill:rgb(49,151,206);fill-rule:nonzero;"/>
        </g>
        <g transform="matrix(118.78,0,0,118.78,0,0)">
            <path d="M198.125,53.444C198.125,53.444 197.761,53.576 197.271,53.607C196.784,53.638 196.172,53.566 196.172,53.566L195.846,54.705C195.846,54.705 196.095,55.331 196.538,55.641C196.901,55.895 197.474,55.845 197.474,55.845" style="fill:rgb(49,151,206);fill-rule:nonzero;"/>
        </g>
        <g transform="matrix(118.78,0,0,118.78,0,0)">
            <path d="M197.109,56.902C197.109,56.902 196.606,57.156 196.132,57.147C195.631,57.135 195.156,56.861 195.156,56.861L194.505,59.18L196.661,58.447" style="fill:rgb(49,151,206);fill-rule:nonzero;"/>
        </g>
        <g transform="matrix(118.78,0,0,118.78,0,0)">
            <path d="M203.455,52.6L202.753,55.163L198.756,57.696L204.462,56.537L205.286,53.515" style="fill:rgb(49,151,206);fill-rule:nonzero;"/>
        </g>
        <g transform="matrix(118.78,0,0,118.78,0,0)">
            <path d="M203.638,51.959L205.926,43.384L210.412,43.812C210.412,43.812 211.037,43.985 211.297,44.391C211.483,44.683 211.328,45.245 211.328,45.245L210.168,49.913C210.168,49.913 210.041,50.351 209.741,50.615C209.403,50.914 208.887,51.043 208.887,51.043L208.216,51.043L208.308,51.47L206.63,50.677L208.491,52.111L209.437,55.498L207.728,54.765L209.071,55.803L207.575,55.955L206.08,50.585L205.348,53.209" style="fill:rgb(49,151,206);fill-rule:nonzero;"/>
        </g>
        <g transform="matrix(118.78,0,0,118.78,0,0)">
            <path d="M211.785,48.664L211.053,53.882C211.053,53.882 210.956,54.596 211.236,55.011C211.451,55.331 212.06,55.377 212.06,55.377L215.752,55.103C215.752,55.103 216.145,55.04 216.393,54.889C216.648,54.735 216.758,54.493 216.758,54.493L215.569,53.578L217.003,54.097L217.705,48.452L216.515,47.536L217.858,48.054L218.102,45.491C218.102,45.491 218.156,45.002 217.919,44.759C217.627,44.459 217.034,44.393 217.034,44.393L213.372,44.088C213.372,44.088 212.955,44.109 212.701,44.363C212.396,44.669 212.243,45.217 212.243,45.217L211.938,47.78L213.616,48.909L213.951,46.132L216.148,46.224L215.629,50.251L216.819,51.166L215.568,50.647L215.172,53.272L213.006,53.333L213.464,49.549" style="fill:rgb(49,151,206);fill-rule:nonzero;"/>
        </g>
        <g transform="matrix(118.78,0,0,118.78,0,0)">
            <path d="M243.762,50.037L239.765,47.23L239.094,43.995L243.732,43.355C243.732,43.355 244.327,43.369 244.648,43.568C244.968,43.765 245.014,44.147 245.014,44.147L246.051,49.396C246.051,49.396 245.999,50.012 245.655,50.281C245.298,50.559 244.648,50.494 244.648,50.494L248.462,57.328L246.082,56.901L242.42,50.586L243.549,56.231L242.176,55.529L242.908,56.2L241.535,56.017L240.039,48.389" style="fill:rgb(49,151,206);fill-rule:nonzero;"/>
        </g>
        <g transform="matrix(118.78,0,0,118.78,0,0)">
            <path d="M252.03,37.558L245.867,39.022C245.867,39.022 245.162,39.247 244.891,39.663C244.614,40.086 244.768,40.701 244.768,40.701L246.354,41.678L245.104,41.556L245.928,45.187C245.928,45.187 246.03,45.598 246.263,45.95C246.451,46.231 246.782,46.469 246.782,46.469L250.261,50.008L251.664,48.817L250.2,47.26C250.2,47.26 249.693,47.323 249.284,47.29C248.934,47.263 248.674,47.138 248.674,47.138C248.674,47.138 249.061,46.974 249.284,46.802C249.449,46.676 249.468,46.528 249.468,46.528L247.79,44.882L246.783,40.823L247.973,40.578L249.316,45.704L250.232,45.643C250.232,45.643 250.534,45.179 250.628,44.666C250.745,44.032 250.659,43.323 250.659,43.323L249.835,39.967" style="fill:rgb(49,151,206);fill-rule:nonzero;"/>
        </g>
        <g transform="matrix(118.78,0,0,118.78,0,0)">
            <path d="M250.444,50.282L251.115,52.905C251.115,52.905 251.682,52.71 252.092,52.386C252.474,52.084 252.702,51.654 252.702,51.654L252.427,50.341" style="fill:rgb(49,151,206);fill-rule:nonzero;"/>
        </g>
        <g transform="matrix(118.78,0,0,118.78,0,0)">
            <path d="M251.207,53.393C251.207,53.393 251.695,53.518 252.153,53.546C252.682,53.579 253.191,53.515 253.191,53.515C253.191,53.515 253.497,54.297 253.283,55.041C253.123,55.596 252.428,56.17 252.428,56.17C252.428,56.17 252.728,56.544 253.099,56.689C253.545,56.861 254.076,56.811 254.076,56.811L254.137,57.94C254.137,57.94 254.045,58.315 253.771,58.428C253.454,58.558 252.947,58.428 252.947,58.428L250.17,57.665C250.17,57.665 249.506,57.445 249.164,57.055C248.75,56.584 248.644,55.927 248.644,55.927L248.034,53.577L249.377,53.912L247.912,52.997L246.996,49.397L248.827,49.366L250.566,55.866L251.878,56.293" style="fill:rgb(49,151,206);fill-rule:nonzero;"/>
        </g>
        <g transform="matrix(118.78,0,0,118.78,0,0)">
            <path d="M205.652,46.65L206.954,47.179L207.36,45.308L209.313,45.471L208.419,49.051L206.425,49.091L206.751,47.586" style="fill-rule:nonzero;"/>
        </g>
        <g transform="matrix(118.78,0,0,118.78,0,0)">
            <path d="M241.372,45.471L242.022,48.684L243.976,48.521L243.243,45.308L241.372,45.471Z" style="fill-rule:nonzero;"/>
        </g>
        <g transform="matrix(118.78,0,0,118.78,0,0)">
            <path d="M204.513,59.587L205.733,59.343L205.489,60.442L205.164,60.768L202.886,61.174L203.374,58.896L203.862,58.489L206.059,58.123L205.855,58.937L205.164,58.937L205.123,58.53L204.228,58.692L203.78,60.726L204.716,60.483L204.879,59.832L204.513,59.873" style="fill:white;fill-rule:nonzero;"/>
        </g>
        <g transform="matrix(118.78,0,0,118.78,0,0)">
            <path d="M207.604,60.279L208.134,57.594L210.615,57.309L210.453,58.489L210.25,58.692L209.802,58.732L210.453,59.913L209.558,60.116L208.907,58.692L209.68,58.53L209.761,57.675L208.866,57.756L208.459,60.279L207.604,60.279Z" style="fill:white;fill-rule:nonzero;"/>
        </g>
        <g transform="matrix(118.78,0,0,118.78,0,0)">
            <path d="M214.521,56.821L212.609,56.943L212.324,59.709L214.317,59.547L214.317,59.221L213.138,59.14L213.178,58.367L214.277,58.286L214.317,57.919L213.3,57.96L213.382,57.228L214.521,57.187L214.521,56.821Z" style="fill:white;fill-rule:nonzero;"/>
        </g>
        <g transform="matrix(118.78,0,0,118.78,0,0)">
            <path d="M216.718,56.577L216.433,59.262L218.426,59.303L218.426,58.977L217.246,58.855L217.328,58.123L218.426,58.082L218.467,57.756L217.409,57.675L217.409,56.902L218.589,56.943L218.67,56.537L216.799,56.618" style="fill:white;fill-rule:nonzero;"/>
        </g>
        <g transform="matrix(118.78,0,0,118.78,0,0)">
            <path d="M220.623,56.455L220.501,59.058L221.233,59.058L221.355,57.716L222.657,59.058L223.024,59.099L223.186,56.496L222.495,56.455L222.413,57.878L221.071,56.414L220.623,56.455Z" style="fill:white;fill-rule:nonzero;"/>
        </g>
        <g transform="matrix(118.78,0,0,118.78,0,0)">
            <path d="M226.706,57.147L226.675,56.719L226.003,56.689L225.912,57.115L227.438,58.123L227.407,59.007L227.194,59.069L225.424,59.069L225.18,58.977L225.149,58.214L225.942,58.245L225.973,58.732L226.614,58.793L226.614,58.214L225.241,57.299L225.18,56.537L225.332,56.414L227.315,56.414L227.438,56.567L227.438,57.177L226.706,57.147Z" style="fill:white;fill-rule:nonzero;"/>
        </g>
        <g transform="matrix(118.78,0,0,118.78,0,0)">
            <path d="M229.482,56.444L229.543,59.161L231.984,59.251L232.045,59.099L231.954,58.031L231.435,57.787L231.954,57.635L231.831,56.658L231.648,56.567L229.482,56.444Z" style="fill:white;fill-rule:nonzero;"/>
        </g>
        <g transform="matrix(118.78,0,0,118.78,0,0)">
            <path d="M234.15,56.811L234.272,59.099L234.516,59.375L236.896,59.556L236.988,59.404L236.835,57.177L236.622,56.902L234.15,56.811Z" style="fill:white;fill-rule:nonzero;"/>
        </g>
        <g transform="matrix(118.78,0,0,118.78,0,0)">
            <path d="M238.788,57.299L239.246,59.893L240.039,60.045L239.673,57.696L240.71,57.94L240.802,58.703L240.1,58.641L241.198,60.29L242.053,60.351L241.077,59.007L241.595,59.007L241.473,57.849L241.321,57.696L238.788,57.299Z" style="fill:white;fill-rule:nonzero;"/>
        </g>
        <g transform="matrix(118.78,0,0,118.78,0,0)">
            <path d="M243.456,58.001L243.854,60.472L244.006,60.655L246.386,61.205L246.629,61.082L246.142,58.703L245.928,58.458L243.64,57.94L243.456,58.001Z" style="fill:white;fill-rule:nonzero;"/>
        </g>
        <g transform="matrix(118.78,0,0,118.78,0,0)">
            <path d="M244.311,58.398L244.646,60.503L245.745,60.716L245.409,58.703L244.311,58.398Z" style="fill-rule:nonzero;"/>
        </g>
        <g transform="matrix(118.78,0,0,118.78,0,0)">
            <path d="M234.943,57.055C234.913,57.147 235.096,59.099 235.096,59.099L236.164,59.221L236.012,57.147L234.943,57.055Z" style="fill-rule:nonzero;"/>
        </g>
        <g transform="matrix(118.78,0,0,118.78,0,0)">
            <path d="M230.336,57.91L230.397,58.732L231.282,58.793L231.16,58.123L230.336,57.91Z" style="fill-rule:nonzero;"/>
        </g>
        <g transform="matrix(118.78,0,0,118.78,0,0)">
            <path d="M230.214,56.781L230.245,57.513L231.191,57.543L231.16,56.841L230.214,56.781Z" style="fill-rule:nonzero;"/>
        </g>
    </g>
</svg>
