<?xml version="1.0" encoding="UTF-8" standalone="no"?>
<!DOCTYPE svg PUBLIC "-//W3C//DTD SVG 1.1//EN" "http://www.w3.org/Graphics/SVG/1.1/DTD/svg11.dtd">
<svg width="100%" height="100%" viewBox="0 0 6891 4209" version="1.1" xmlns="http://www.w3.org/2000/svg" xmlns:xlink="http://www.w3.org/1999/xlink" xml:space="preserve" xmlns:serif="http://www.serif.com/" style="fill-rule:evenodd;clip-rule:evenodd;stroke-linejoin:round;stroke-miterlimit:1.41421;">
    <g transform="matrix(1,0,0,1,-38983.5,-25706.4)">
        <g transform="matrix(118.78,0,0,118.78,0,0)">
            <g>
                <path d="M384.017,232.118C383.405,232.118 383.41,231.997 383.177,231.997C383.069,231.997 382.95,232.017 382.844,232.044C382.837,232.083 382.833,232.122 382.833,232.161C382.833,232.567 383.162,232.894 383.565,232.894C383.968,232.894 384.297,232.566 384.297,232.161C384.297,232.142 384.294,232.123 384.293,232.102C384.224,232.111 384.135,232.118 384.017,232.118Z" style="fill:white;fill-rule:nonzero;"/>
                <path d="M385.392,233.663C385.241,233.605 385.148,233.666 385.115,233.696C385.13,233.738 385.157,233.836 385.157,234.015C385.157,234.342 385.013,234.674 384.902,234.878C385.123,234.626 385.382,234.139 385.392,233.663Z" style="fill:white;fill-rule:nonzero;"/>
                <path d="M383.447,236.357C383.466,236.37 383.482,236.383 383.498,236.395C383.514,236.357 383.518,236.308 383.512,236.257C383.497,236.298 383.477,236.332 383.447,236.357Z" style="fill:white;fill-rule:nonzero;"/>
            </g>
        </g>
        <g transform="matrix(118.78,0,0,118.78,0,0)">
            <g>
                <path d="M384.973,233.525L385.029,233.549L385.052,233.559L385.052,233.582C385.052,233.603 385.063,233.624 385.073,233.639C385.123,233.596 385.245,233.527 385.425,233.601C385.446,233.588 385.476,233.559 385.453,233.505L385.438,233.468L385.475,233.456C385.48,233.456 385.578,233.423 385.585,233.291C385.389,233.39 385.184,233.466 384.973,233.525Z" style="fill:rgb(193,131,185);fill-rule:nonzero;"/>
                <path d="M382.097,233.49C381.635,233.906 381.195,233.957 380.941,233.942C381.419,234.441 381.777,234.878 382.071,235.241C381.995,235.024 381.844,234.678 381.582,234.392C381.57,234.381 381.512,234.324 381.533,234.268C381.554,234.213 381.63,234.207 381.686,234.207C382.141,234.207 382.335,233.867 382.345,233.852L382.353,233.836L382.371,233.834C382.373,233.834 382.621,233.799 382.879,233.632C382.488,233.585 382.199,233.518 382.097,233.49Z" style="fill:rgb(193,131,185);fill-rule:nonzero;"/>
                <path d="M382.744,236.032C383.003,236.299 383.259,236.483 383.591,236.582C383.542,236.479 383.106,236.2 382.744,236.032Z" style="fill:rgb(193,131,185);fill-rule:nonzero;"/>
            </g>
        </g>
        <g transform="matrix(118.78,0,0,118.78,0,0)">
            <g>
                <path d="M343.099,249.271L346.815,249.271L346.915,248.892C346.951,248.767 349.255,240.493 352.526,231.245C352.757,230.595 352.991,229.939 353.231,229.282L353.239,229.317C353.243,229.33 353.504,230.55 353.504,232.376L353.504,245.351C353.504,247.384 353.256,248.783 353.253,248.796L353.107,249.578L355.722,248.297L355.68,248.144C355.677,248.135 355.414,247.167 355.414,245.506L355.414,232.4C355.414,231.37 355.688,230.141 355.69,230.129L355.724,229.978C355.724,229.978 353.914,229.118 353.382,228.866C353.4,228.816 353.418,228.765 353.437,228.717C354.897,224.736 356.51,220.696 358.178,217.149L358.368,216.741L352.316,216.741L352.379,217.079C352.38,217.09 352.576,218.139 352.576,218.81C352.576,222.95 346.874,240.513 346.129,242.79C344.235,234.115 339.777,218.979 339.731,218.827C339.378,217.572 339.144,216.74 338.24,216.74L333.97,216.741L334.139,217.137C334.178,217.227 338.071,226.51 343.009,248.877L343.099,249.271ZM355.127,230.084C355.127,230.084 354.851,231.32 354.851,232.375L354.851,245.35C354.851,247.047 355.12,248.013 355.12,248.013L353.441,248.829C353.441,248.829 353.695,247.427 353.695,245.35L353.695,232.375C353.695,230.503 353.425,229.274 353.425,229.274L355.127,230.084ZM338.012,217.025C338.685,217.025 338.871,217.631 339.231,218.907C339.231,218.907 343.738,234.184 345.64,242.934C345.64,242.934 345.734,243.455 346.021,243.455C346.25,243.455 346.38,242.936 346.38,242.936C347.317,240.076 352.861,222.977 352.861,218.809C352.861,218.102 352.659,217.026 352.659,217.026L357.691,217.026C351.67,229.84 346.411,248.816 346.411,248.816L343.287,248.816C338.284,226.153 334.401,217.026 334.401,217.026L338.012,217.025Z" style="fill:rgb(142,142,145);fill-rule:nonzero;"/>
                <path d="M369.398,233.388L369.398,238.375C370.002,238.533 371.844,238.652 371.844,235.687C371.844,232.945 370.371,233.523 369.398,233.388ZM370.883,237.948C370.55,238.204 370.167,238.257 369.876,238.249L369.876,233.857C370.811,233.852 371.655,233.781 371.655,235.688C371.655,236.792 371.395,237.553 370.883,237.948Z" style="fill:rgb(142,142,145);fill-rule:nonzero;"/>
                <path d="M356.351,230.686C356.354,230.698 356.631,231.97 356.631,233.167L356.631,244.436C356.631,246.044 356.362,247.351 356.36,247.364L356.202,248.079L358.872,247.129L358.824,246.956C358.821,246.944 358.505,245.781 358.505,244.626L358.505,239.997C358.667,240.115 359.034,240.334 359.554,240.334C360.267,240.334 362.376,239.875 362.376,235.737C362.376,231.267 359.777,231.014 358.509,230.807C357.241,230.601 356.226,230.173 356.226,230.173L356.351,230.686ZM358.523,231.108C359.759,231.278 361.825,231.763 361.825,235.695C361.825,239.436 359.986,239.881 359.351,239.881C358.718,239.881 358.321,239.372 358.321,239.372C358.892,239.279 360.517,239.247 360.517,235.695C360.517,231.922 358.977,232.365 357.959,231.919L357.959,244.435C357.959,245.618 358.282,246.792 358.282,246.792L356.546,247.402C356.546,247.402 356.82,246.083 356.82,244.434L356.82,233.165C356.82,231.931 356.534,230.641 356.534,230.641C356.534,230.641 357.288,230.939 358.523,231.108ZM358.505,239.152L358.505,232.503L358.507,232.503C359.402,232.732 360.327,232.756 360.327,235.695C360.328,238.714 359.162,239.049 358.505,239.152Z" style="fill:rgb(142,142,145);fill-rule:nonzero;"/>
                <path d="M376.714,233.76C376.752,233.756 376.786,233.748 376.824,233.744C376.789,233.748 376.752,233.754 376.714,233.76Z" style="fill:rgb(142,142,145);fill-rule:nonzero;"/>
                <path d="M376.714,233.76C375.271,233.966 374.851,235.423 374.851,236.213C374.851,240.441 378.593,240.293 378.593,245.259C378.593,249.128 376.733,250.628 375.538,250.628C373.954,250.628 370.449,247.759 366.375,247.759C365.124,247.759 363.759,247.988 363.268,248.325C361.599,249.507 358.782,250.644 352.885,250.644C350.205,250.644 348.25,250.523 348.25,250.523C364.474,250.137 360.7,246.822 366.376,246.822C371.069,246.822 373.621,249.539 375.539,249.539C376.11,249.539 377.368,249.137 377.368,246.062C377.368,241.729 373.605,241.856 373.605,236.909C373.605,232.285 375.888,232.033 377.933,232.033C379.99,232.033 380.841,232.349 381.571,232.323C381.571,232.323 380.717,232.124 379.686,231.982C379.117,231.903 378.496,231.843 377.934,231.843C375.697,231.843 373.971,232.356 373.527,235.275C373.527,235.264 373.528,235.254 373.528,235.241C373.528,234.581 373.405,234.07 373.216,233.672C372.714,232.611 371.727,232.365 371.214,232.365C369.776,232.365 368.751,232.577 367.631,232.451L367.824,232.844C367.826,232.847 368.08,233.389 368.08,234.9L368.08,242.118L367.279,243.233C367.254,243.274 366.669,244.259 365.217,244.406L364.371,244.488L364.371,239.648C366.956,239.636 367.147,238.649 367.515,237.799C367.502,237.8 365.631,237.996 364.371,237.993L364.371,233.737C365.913,233.798 366.637,234.207 367.048,234.884L367.408,235.476L367.408,232.454L367.223,232.447C365.126,232.353 362.798,231.936 362.775,231.932L362.082,231.808L362.248,232.239C362.25,232.245 362.509,232.931 362.509,234.716L362.509,243.283C362.509,244.939 362.208,245.725 362.205,245.732L361.957,246.373L367.478,245.675L370.232,245.603L370.138,245.35C370.135,245.343 369.878,244.623 369.878,243.339L369.878,239.535C370.177,239.838 370.5,240.548 371.183,242.096L372.123,244.2C372.37,244.745 372.78,245.57 373.758,245.57L375.159,245.57L374.899,245.254C374.087,244.26 372.086,239.812 371.689,238.921C371.881,238.795 372.222,238.536 372.558,238.125C372.918,237.682 373.271,237.059 373.434,236.225C373.422,236.445 373.415,236.674 373.415,236.915C373.415,241.941 377.177,241.892 377.177,246.068C377.177,249.177 375.924,249.265 375.539,249.265C374.013,249.265 371.446,246.554 366.531,246.554C364.343,246.554 363.362,247.124 362.315,247.742C360.626,248.736 358.312,250.099 348.246,250.338L340.321,250.338C340.321,250.338 346.818,251.156 352.885,251.156C357.846,251.156 361.24,250.39 363.562,248.744C363.56,248.746 363.557,248.747 363.555,248.749C363.89,248.52 365.065,248.271 366.376,248.271C370.357,248.271 373.697,251.141 375.539,251.141C377.06,251.141 379.101,249.387 379.101,245.265C379.101,240.192 375.361,240.128 375.361,236.219C375.36,234.323 376.151,233.867 376.714,233.76ZM367.22,245.166L362.38,245.8C362.38,245.8 362.698,245.004 362.698,243.28C362.698,241.558 362.698,234.713 362.698,234.713C362.698,232.851 362.423,232.166 362.423,232.166C362.423,232.166 364.716,232.578 366.809,232.673L366.809,234.23C366.264,233.335 365.242,233.405 363.831,233.239L363.831,238.173C365.325,238.225 366.78,238.057 366.78,238.057C366.78,238.057 366.466,239.347 363.831,239.171L363.831,244.729L365.235,244.595C366.811,244.436 367.443,243.325 367.443,243.325L367.22,245.166ZM368.079,242.883L368.079,243.114C368.079,243.804 367.987,244.328 367.901,244.669L368.079,242.883ZM371.124,238.708C371.124,238.708 373.457,244.003 374.365,245.112L373.393,245.112C373.034,245.112 372.683,244.971 372.293,244.119C370.433,240.029 370.259,239.14 369.397,239.14L369.397,243.114C369.397,244.43 369.664,245.15 369.664,245.15L367.928,245.198C367.928,245.198 368.27,244.461 368.27,243.114L368.27,234.9C368.27,233.304 367.992,232.758 367.992,232.758C369.332,232.758 370.481,232.636 370.894,232.636C371.599,232.636 372.978,232.945 372.978,235.18C372.979,237.73 371.124,238.708 371.124,238.708Z" style="fill:rgb(142,142,145);fill-rule:nonzero;"/>
                <path d="M376.059,232.979L377.613,233.292L377.002,233.415C377.002,233.415 379.489,233.698 380.853,235.443L381.835,236.013C381.833,236.013 380.387,232.884 376.059,232.979Z" style="fill:rgb(142,142,145);fill-rule:nonzero;"/>
            </g>
        </g>
        <g transform="matrix(118.78,0,0,118.78,0,0)">
            <g>
                <path d="M352.66,217.026C352.66,217.026 352.862,218.103 352.862,218.809C352.862,222.977 347.318,240.077 346.381,242.936C346.381,242.936 346.251,243.455 346.022,243.455C345.735,243.455 345.641,242.934 345.641,242.934C343.739,234.184 339.232,218.907 339.232,218.907C338.872,217.631 338.686,217.025 338.013,217.025L334.402,217.025C334.402,217.025 338.285,226.152 343.288,248.815L346.412,248.815C346.412,248.815 351.671,229.839 357.692,217.025L352.66,217.025L352.66,217.026Z" style="fill:rgb(36,147,60);fill-rule:nonzero;"/>
                <path d="M355.127,230.084L353.424,229.274C353.424,229.274 353.694,230.503 353.694,232.375L353.694,245.35C353.694,247.427 353.44,248.829 353.44,248.829L355.119,248.013C355.119,248.013 354.85,247.047 354.85,245.35L354.85,232.375C354.851,231.32 355.127,230.084 355.127,230.084Z" style="fill:rgb(36,147,60);fill-rule:nonzero;"/>
                <path d="M362.38,245.8L367.22,245.166L367.443,243.325C367.443,243.325 366.811,244.436 365.235,244.595L363.831,244.729L363.831,239.171C366.466,239.347 366.78,238.057 366.78,238.057C366.78,238.057 365.325,238.225 363.831,238.173L363.831,233.239C365.242,233.405 366.264,233.335 366.809,234.23L366.809,232.673C364.716,232.578 362.423,232.166 362.423,232.166C362.423,232.166 362.698,232.852 362.698,234.713C362.698,234.713 362.698,241.558 362.698,243.28C362.698,245.003 362.38,245.8 362.38,245.8Z" style="fill:rgb(36,147,60);fill-rule:nonzero;"/>
                <path d="M367.929,245.199L369.665,245.151C369.665,245.151 369.398,244.431 369.398,243.115L369.398,239.141C370.26,239.141 370.434,240.029 372.294,244.12C372.683,244.973 373.034,245.113 373.394,245.113L374.366,245.113C373.457,244.004 371.125,238.709 371.125,238.709C371.125,238.709 372.979,237.731 372.979,235.181C372.979,232.946 371.6,232.637 370.895,232.637C370.482,232.637 369.333,232.759 367.993,232.759C367.993,232.759 368.271,233.305 368.271,234.901L368.271,243.116C368.271,244.462 367.929,245.199 367.929,245.199ZM369.398,233.388C370.371,233.523 371.844,232.945 371.844,235.687C371.844,238.651 370.002,238.532 369.398,238.375L369.398,233.388Z" style="fill:rgb(36,147,60);fill-rule:nonzero;"/>
                <path d="M356.822,233.167L356.822,244.436C356.822,246.085 356.548,247.404 356.548,247.404L358.284,246.794C358.284,246.794 357.961,245.62 357.961,244.437L357.961,231.921C358.979,232.367 360.519,231.923 360.519,235.697C360.519,239.249 358.894,239.28 358.323,239.374C358.323,239.374 358.72,239.883 359.353,239.883C359.987,239.883 361.827,239.439 361.827,235.697C361.827,231.765 359.761,231.28 358.525,231.11C357.289,230.942 356.538,230.645 356.538,230.645C356.538,230.645 356.822,231.933 356.822,233.167Z" style="fill:rgb(36,147,60);fill-rule:nonzero;"/>
                <path d="M382.077,233.413C382.077,233.413 384.528,234.079 385.978,232.961C386.168,232.795 386.138,232.525 386.138,232.081C383.886,231.932 383.021,231.63 383.021,231.63C382.641,231.708 382.46,231.892 382.46,231.892C382.46,231.892 382.319,232.042 381.646,232.005C380.911,231.964 380.262,231.968 379.685,231.983C380.716,232.126 381.57,232.324 381.57,232.324C380.841,232.35 379.989,232.034 377.932,232.034C375.887,232.034 373.604,232.287 373.604,236.91C373.604,241.857 377.367,241.729 377.367,246.063C377.367,249.138 376.109,249.54 375.538,249.54C373.62,249.54 371.068,246.823 366.375,246.823C360.699,246.823 364.473,250.137 348.249,250.524C348.249,250.524 350.205,250.645 352.884,250.645C358.781,250.645 361.598,249.508 363.267,248.326C363.758,247.99 365.123,247.76 366.374,247.76C370.448,247.76 373.953,250.629 375.537,250.629C376.731,250.629 378.592,249.129 378.592,245.26C378.592,240.293 374.85,240.441 374.85,236.214C374.85,235.404 375.29,233.888 376.823,233.745C376.901,233.738 376.977,233.731 377.058,233.731C379.421,233.731 381.324,236.79 383.702,236.79L383.702,236.688C382.63,236.447 382.344,235.464 380.737,233.836C380.738,233.835 381.389,234.055 382.077,233.413ZM385.324,232.921C385.53,232.921 385.696,232.755 385.696,232.549C385.696,232.501 385.687,232.456 385.67,232.414C385.735,232.482 385.776,232.572 385.776,232.673C385.776,232.878 385.608,233.044 385.403,233.044C385.245,233.044 385.111,232.947 385.057,232.808C385.126,232.878 385.22,232.921 385.324,232.921ZM383.049,231.906C383.434,231.906 383.371,232.049 384.011,232.049C384.26,232.049 384.334,232.012 384.486,232.012C384.576,232.012 384.719,232.166 384.719,232.166C384.619,232.108 384.557,232.089 384.491,232.087C384.486,232.556 384.235,232.668 384.169,232.69C384.023,232.859 383.806,232.966 383.565,232.966C383.12,232.966 382.761,232.607 382.761,232.161C382.761,232.13 382.764,232.097 382.768,232.064C382.595,232.115 382.463,232.176 382.463,232.176C382.463,232.176 382.663,231.906 383.049,231.906ZM381.833,236.013L380.851,235.443C379.488,233.698 377,233.415 377,233.415L377.611,233.292L376.057,232.979C380.387,232.884 381.833,236.013 381.833,236.013Z" style="fill:rgb(36,147,60);fill-rule:nonzero;"/>
            </g>
        </g>
        <g transform="matrix(118.78,0,0,118.78,0,0)">
            <g>
                <path d="M360.328,235.695C360.328,232.756 359.402,232.732 358.508,232.503L358.506,232.503L358.506,239.152C359.162,239.049 360.328,238.714 360.328,235.695ZM358.648,238.589L358.648,233.433C358.831,233.489 359.407,233.829 359.407,235.927C359.407,238.14 358.816,238.524 358.648,238.589Z" style="fill-rule:nonzero;"/>
                <path d="M369.876,233.857L369.876,238.249C370.167,238.256 370.551,238.204 370.883,237.948C371.394,237.553 371.655,236.793 371.655,235.688C371.655,233.781 370.811,233.852 369.876,233.857ZM370.018,237.809L370.018,234.643C370.429,234.643 370.724,234.669 370.724,235.967C370.723,237.549 370.16,237.776 370.018,237.809Z" style="fill-rule:nonzero;"/>
                <path d="M368.079,243.115L368.079,242.884L367.901,244.671C367.987,244.329 368.079,243.805 368.079,243.115Z" style="fill-rule:nonzero;"/>
                <path d="M386.208,232.248L386.208,232.081C386.208,232.044 386.179,232.013 386.142,232.01C383.93,231.862 383.054,231.565 383.045,231.562C383.033,231.559 383.02,231.557 383.007,231.56C382.662,231.631 382.473,231.785 382.423,231.829C382.423,231.829 382.262,231.967 381.651,231.933C380.172,231.933 379.15,231.529 377.152,231.529C374.53,231.529 373.592,232.844 373.287,233.497C373.172,233.28 373.032,233.083 372.864,232.915C372.223,232.272 371.445,232.043 370.843,232.043C370.017,232.043 368.956,232.154 367.704,232.154C365.341,232.154 362.988,231.772 360.886,231.256L360.924,231.489C360.165,230.926 359.292,230.786 358.665,230.687L358.532,230.665C357.298,230.465 356.293,230.045 356.283,230.041C356.283,230.041 354.606,229.287 353.722,228.856C355.182,224.874 356.797,220.829 358.465,217.281L358.867,216.422L351.327,216.42L351.468,217.077C351.471,217.088 351.668,218.137 351.668,218.808C351.668,222.266 347.689,235.09 345.943,240.547C343.863,231.727 340.077,218.875 340.037,218.735C339.674,217.445 339.385,216.422 338.241,216.422L332.923,216.42L333.229,217.136C333.269,217.226 337.162,226.509 342.1,248.876L342.362,250.049L328.198,250.384C328.263,250.391 346.842,251.849 352.885,251.849C357.985,251.849 361.501,251.045 363.947,249.32L363.948,249.32C363.947,249.321 363.945,249.321 363.945,249.321C364.117,249.215 365.061,248.963 366.376,248.963C369.693,248.963 373.173,251.832 375.539,251.832C377.607,251.832 379.299,249.274 379.299,245.258C379.299,242.531 378.121,241.261 377.102,240.033C376.244,238.994 375.43,238.013 375.43,236.211C375.43,235.474 375.9,233.944 377.06,233.944C378.216,233.944 379.291,234.568 380.33,235.311C381.392,236.072 382.49,236.857 383.704,236.857C383.743,236.857 383.774,236.826 383.774,236.786L383.774,236.684C383.774,236.65 383.751,236.621 383.719,236.614C383.701,236.609 383.684,236.605 383.667,236.6C383.667,236.595 383.667,236.591 383.667,236.584C383.658,236.545 383.615,236.492 383.548,236.433C383.639,236.256 383.486,235.949 383.486,235.949C383.486,235.949 383.502,236.249 383.393,236.314C383.172,236.163 382.861,235.998 382.627,235.905C382.492,235.756 382.351,235.584 382.194,235.391C382.156,235.248 382.003,234.743 381.633,234.339C381.613,234.321 381.599,234.298 381.6,234.292C381.602,234.29 381.616,234.276 381.686,234.276C382.135,234.276 382.351,233.973 382.398,233.901C382.466,233.89 382.728,233.835 382.987,233.642C383.514,233.699 384.199,233.714 384.861,233.552L384.982,233.604C384.991,233.655 385.028,233.693 385.044,233.707C385.052,233.728 385.086,233.82 385.086,234.012C385.086,234.589 384.615,235.208 384.615,235.208C384.803,235.127 385.463,234.506 385.463,233.66C385.505,233.632 385.545,233.581 385.529,233.508C385.578,233.481 385.663,233.408 385.655,233.252C385.78,233.184 385.903,233.106 386.02,233.017C386.214,232.849 386.212,232.609 386.208,232.248ZM356.351,230.686L356.227,230.174C356.227,230.174 357.242,230.602 358.51,230.808C359.778,231.015 362.377,231.268 362.377,235.738C362.377,239.876 360.269,240.335 359.555,240.335C359.035,240.335 358.667,240.115 358.506,239.998L358.506,244.627C358.506,245.781 358.822,246.944 358.825,246.957L358.873,247.13L356.203,248.08L356.361,247.365C356.363,247.351 356.632,246.045 356.632,244.437L356.632,233.168C356.631,231.969 356.354,230.698 356.351,230.686ZM363.032,246.914C360.844,247.713 359.471,249.149 354.251,249.675C355.963,248.667 359.207,247.712 359.207,247.712C359.203,247.7 358.648,246.412 358.648,244.627L358.648,241.014C360.571,241.446 361.586,239.722 361.586,239.722L361.586,243.209C361.586,245.788 360.844,247.247 360.844,247.247L363.032,246.914ZM370.27,245.297C370.268,245.292 370.018,244.582 370.018,243.335L370.018,241.996C370.133,242.25 370.26,242.536 370.401,242.859L371.342,244.962C371.589,245.508 371.997,246.332 372.977,246.332L375.942,246.332L375.008,245.159C374.302,244.299 372.668,240.747 372.021,239.313C372.117,239.233 372.384,238.996 372.589,238.715C372.959,242.232 376.231,242.923 376.231,246.154C376.231,248.406 375.692,248.961 375.376,248.961C374.206,248.961 371.784,246.802 367.753,246.419L370.668,246.353L370.27,245.297ZM334.14,217.137L333.971,216.741L338.241,216.74C339.144,216.74 339.379,217.572 339.732,218.827C339.778,218.979 344.236,234.115 346.13,242.79C346.875,240.513 352.577,222.95 352.577,218.81C352.577,218.139 352.382,217.09 352.38,217.079L352.317,216.741L358.369,216.741L358.179,217.149C356.511,220.695 354.898,224.735 353.438,228.717C353.419,228.765 353.401,228.816 353.383,228.866C353.915,229.118 355.725,229.978 355.725,229.978L355.691,230.129C355.69,230.142 355.415,231.37 355.415,232.4L355.415,245.506C355.415,247.167 355.678,248.135 355.681,248.144L355.723,248.297L353.108,249.578L353.254,248.796C353.257,248.783 353.505,247.384 353.505,245.351L353.505,232.376C353.505,230.55 353.244,229.33 353.24,229.317L353.232,229.282C352.993,229.939 352.758,230.595 352.527,231.245C349.256,240.493 346.952,248.768 346.916,248.892L346.816,249.271L343.1,249.271L343.01,248.877C338.072,226.51 334.179,217.228 334.14,217.137ZM355.72,233.326L355.72,244.595C355.72,245.36 355.659,246.055 355.596,246.577C355.572,246.263 355.556,245.904 355.556,245.505L355.556,232.399C355.556,232.172 355.569,231.939 355.591,231.709C355.657,232.169 355.72,232.756 355.72,233.326ZM347.221,248.974C347.255,248.854 349.441,241.008 352.571,232.066C352.579,232.275 352.584,232.494 352.584,232.723L352.584,245.7C352.584,247.733 352.336,249.132 352.333,249.145L352.208,249.819L346.937,249.944L347.221,248.974ZM383.512,236.257C383.517,236.307 383.514,236.357 383.498,236.395C383.482,236.383 383.466,236.371 383.447,236.357C383.477,236.332 383.497,236.298 383.512,236.257ZM383.591,236.583C383.259,236.483 383.003,236.3 382.744,236.033C383.106,236.2 383.542,236.479 383.591,236.583ZM382.372,233.835L382.354,233.837L382.346,233.853C382.337,233.869 382.142,234.208 381.687,234.208C381.631,234.208 381.555,234.214 381.534,234.269C381.513,234.324 381.571,234.381 381.583,234.393C381.845,234.679 381.996,235.025 382.072,235.242C381.778,234.878 381.42,234.442 380.942,233.943C381.196,233.958 381.635,233.907 382.098,233.491C382.2,233.518 382.489,233.586 382.88,233.634C382.622,233.8 382.374,233.835 382.372,233.835ZM384.902,234.877C385.013,234.673 385.157,234.341 385.157,234.014C385.157,233.835 385.129,233.737 385.115,233.695C385.148,233.665 385.241,233.605 385.392,233.662C385.382,234.139 385.123,234.626 384.902,234.877ZM385.476,233.456L385.439,233.468L385.454,233.505C385.476,233.56 385.447,233.588 385.426,233.601C385.246,233.526 385.124,233.596 385.074,233.639C385.063,233.625 385.053,233.604 385.053,233.582L385.053,233.559L385.03,233.549L384.974,233.525C385.185,233.466 385.39,233.39 385.588,233.291C385.579,233.423 385.481,233.455 385.476,233.456ZM385.978,232.96C384.528,234.078 382.077,233.412 382.077,233.412C381.389,234.055 380.739,233.835 380.739,233.835C382.346,235.462 382.632,236.445 383.704,236.687L383.704,236.789C381.327,236.789 379.423,233.73 377.06,233.73C376.978,233.73 376.902,233.737 376.825,233.744C376.264,233.812 375.361,234.195 375.361,236.213C375.361,240.122 379.101,240.186 379.101,245.259C379.101,249.382 377.06,251.135 375.539,251.135C373.697,251.135 370.357,248.265 366.376,248.265C365.065,248.265 363.891,248.513 363.555,248.743C363.557,248.742 363.56,248.74 363.562,248.738C361.24,250.384 357.847,251.15 352.885,251.15C346.817,251.15 340.321,250.332 340.321,250.332L348.246,250.332C358.312,250.094 360.626,248.73 362.315,247.736C363.361,247.118 364.342,246.548 366.531,246.548C371.446,246.548 374.013,249.259 375.539,249.259C375.923,249.259 377.177,249.172 377.177,246.062C377.177,241.886 373.415,241.935 373.415,236.909C373.415,236.668 373.422,236.439 373.434,236.219C373.271,237.053 372.917,237.677 372.558,238.119C372.222,238.531 371.881,238.789 371.689,238.915C372.086,239.806 374.087,244.255 374.899,245.248L375.159,245.564L373.758,245.564C372.779,245.564 372.37,244.739 372.123,244.194L371.183,242.09C370.5,240.542 370.177,239.832 369.878,239.529L369.878,243.333C369.878,244.617 370.135,245.337 370.138,245.344L370.232,245.597L367.478,245.669L361.957,246.367L362.205,245.726C362.208,245.719 362.509,244.933 362.509,243.277L362.509,234.71C362.509,232.925 362.25,232.239 362.248,232.233L362.082,231.802L362.775,231.926C362.798,231.93 365.126,232.346 367.223,232.441L367.408,232.448L367.408,235.47L367.048,234.878C366.637,234.201 365.914,233.792 364.371,233.731L364.371,237.987C365.631,237.99 367.502,237.794 367.515,237.793C367.148,238.644 366.956,239.63 364.371,239.642L364.371,244.482L365.217,244.4C366.669,244.253 367.254,243.268 367.279,243.227L368.08,242.112L368.08,234.9C368.08,233.39 367.826,232.847 367.824,232.844L367.631,232.451C368.752,232.577 369.776,232.365 371.214,232.365C371.727,232.365 372.714,232.611 373.216,233.672C373.404,234.07 373.528,234.581 373.528,235.241C373.528,235.253 373.527,235.263 373.527,235.275C373.971,232.356 375.697,231.843 377.934,231.843C378.497,231.843 379.118,231.904 379.686,231.982C380.264,231.967 380.912,231.963 381.647,232.004C382.32,232.041 382.461,231.891 382.461,231.891C382.461,231.891 382.642,231.707 383.022,231.629C383.022,231.629 383.887,231.931 386.139,232.08C386.138,232.525 386.168,232.794 385.978,232.96ZM367.142,236.744L367.142,237.434C366.561,237.488 365.414,237.584 364.513,237.59L364.513,234.565C365.856,234.583 365.939,235.101 367.142,236.744ZM367.142,239.238L367.142,242.19C366.073,243.913 365.686,243.941 364.513,244.049L364.513,240.39C366.24,240.343 366.818,239.832 367.142,239.238Z" style="fill-rule:nonzero;"/>
                <path d="M385.695,232.549C385.695,232.756 385.529,232.921 385.323,232.921C385.219,232.921 385.126,232.878 385.057,232.808C385.111,232.947 385.245,233.044 385.403,233.044C385.607,233.044 385.776,232.877 385.776,232.673C385.776,232.572 385.734,232.482 385.67,232.414C385.686,232.456 385.695,232.501 385.695,232.549Z" style="fill-rule:nonzero;"/>
                <path d="M384.486,232.012C384.334,232.012 384.259,232.049 384.011,232.049C383.371,232.049 383.434,231.906 383.049,231.906C382.663,231.906 382.463,232.176 382.463,232.176C382.463,232.176 382.594,232.115 382.768,232.064C382.764,232.097 382.761,232.13 382.761,232.161C382.761,232.606 383.12,232.966 383.565,232.966C383.807,232.966 384.023,232.859 384.169,232.69C384.235,232.669 384.486,232.557 384.491,232.087C384.557,232.089 384.619,232.108 384.719,232.166C384.719,232.166 384.577,232.012 384.486,232.012ZM383.565,232.895C383.161,232.895 382.833,232.567 382.833,232.162C382.833,232.122 382.836,232.084 382.844,232.045C382.95,232.018 383.069,231.998 383.177,231.998C383.41,231.998 383.405,232.119 384.017,232.119C384.136,232.119 384.225,232.112 384.294,232.104C384.295,232.125 384.298,232.144 384.298,232.163C384.297,232.567 383.968,232.895 383.565,232.895Z" style="fill-rule:nonzero;"/>
                <path d="M379.845,250.426L380.317,250.426L380.317,251.85L380.487,251.85L380.487,250.426L380.984,250.426L380.984,250.255L379.845,250.255L379.845,250.426Z" style="fill-rule:nonzero;"/>
                <path d="M381.895,251.553L381.485,250.255L381.211,250.255L381.211,251.85L381.383,251.85L381.383,250.496L381.809,251.85L381.979,251.85L382.407,250.496L382.407,251.85L382.578,251.85L382.578,250.255L382.304,250.255L381.895,251.553Z" style="fill-rule:nonzero;"/>
            </g>
        </g>
    </g>
</svg>
