<?xml version="1.0" encoding="UTF-8" standalone="no"?>
<!DOCTYPE svg PUBLIC "-//W3C//DTD SVG 1.1//EN" "http://www.w3.org/Graphics/SVG/1.1/DTD/svg11.dtd">
<svg width="100%" height="100%" viewBox="0 0 6737 6192" version="1.1" xmlns="http://www.w3.org/2000/svg" xmlns:xlink="http://www.w3.org/1999/xlink" xml:space="preserve" xmlns:serif="http://www.serif.com/" style="fill-rule:evenodd;clip-rule:evenodd;stroke-linejoin:round;stroke-miterlimit:1.41421;">
    <g transform="matrix(1,0,0,1,-51841.8,-3321.05)">
        <g transform="matrix(118.78,0,0,118.78,0,0)">
            <path d="M475.777,36.856C475.777,36.855 474.89,35.686 474.256,34.848C474.12,32.674 473.769,30.171 472.795,28.613C459.852,25.418 452.88,34.888 451.741,36.595C451.272,36.606 450.374,36.644 449.208,36.767C446.69,37.035 444.466,37.63 443.684,38.608C442.988,39.479 442.3,41.94 442.982,42.992C442.222,42.123 440.703,37.468 440.703,37.468L440.496,42.304C440.451,42.603 440.431,42.896 440.431,43.182C440.431,43.597 440.479,43.997 440.561,44.386C439.764,42.924 439.399,41.092 439.389,41.063L438.687,37.907C437.898,38.959 437.226,41.384 437.226,42.7C437.226,45.113 437.937,47.118 438.967,48.758C437.284,48.516 436.495,45.71 436.495,45.71C436.474,45.921 436.407,47.902 436.495,49.129C436.687,51.827 438.213,55.287 441.229,57.284C440.226,58.434 439.125,61.685 439.125,63.333C439.125,64.985 439.452,68.271 440.265,69.997C440.29,70.052 443.224,75.606 444.65,76.398C445.024,76.606 445.722,76.423 446.088,76.214C446.816,75.796 446.832,75.015 446.87,73.131C446.906,71.365 446.98,67.689 448.113,66.839C450.564,65 454.639,62.655 456.187,62.19C461.416,60.622 467.017,58.52 471.128,54.827C475.326,51.061 479.842,42.221 475.777,36.856Z" style="fill:rgb(126,126,126);fill-rule:nonzero;"/>
        </g>
        <g transform="matrix(118.78,0,0,118.78,0,0)">
            <path d="M474.461,37.294C474.198,40.538 473.748,43.909 464.641,44.747C457.977,45.361 448.033,43.218 447.193,40.977C446.93,40.275 449.21,38.522 452.279,38.171C452.279,38.171 446.404,37.996 445.001,39.75C443.598,41.503 444.438,42.982 445.79,45.011C446.667,46.326 447.257,46.912 447.544,47.729C447.611,47.921 449.911,49.395 452.191,49.57C452.2,49.57 445.088,50.183 441.581,42.467C440.968,46.589 445.906,49.612 447.991,50.571C447.863,51.035 447.658,51.517 447.336,51.995C440.864,49.944 438.337,42.117 438.337,42.117C438.001,48.7 443.428,52.142 445.985,53.395C445.295,53.938 444.729,54.549 444.256,55.139C439.574,53.135 438.074,49.132 438.074,49.132C437.732,52.817 440.912,55.292 443.201,56.581C442.914,56.993 442.673,57.334 442.458,57.55C441.756,58.251 440.528,61.846 440.528,63.425C440.528,65.003 441.142,67.985 441.843,69.475C442.544,70.965 444.65,74.824 445.438,75.262C446.228,75.701 445,67.809 447.455,65.968C449.91,64.127 454.119,61.672 455.873,61.145C457.626,60.619 470.129,56.272 473.409,50.01C474.374,48.167 477.618,42.116 474.461,37.294Z" style="fill-rule:nonzero;"/>
        </g>
        <g transform="matrix(118.78,0,0,118.78,0,0)">
            <path d="M487.252,58.426C487.106,58.427 472.373,58.724 456.546,61.768L455.051,62.056C455.051,62.056 457.016,63.333 457.533,63.669C457.037,64.338 455.98,65.76 455.781,66.027C455.351,66.12 446.386,68.047 446.386,68.047L444.912,69.911C444.912,69.911 447.095,71.211 447.711,71.614C447.277,72.472 443.428,80.085 443.428,80.085L444.843,79.612C445.011,79.556 461.781,74.016 483.812,72.013C489.779,71.47 490.5,69.035 491.263,66.456C491.263,66.456 491.302,66.328 491.33,66.235C491.979,65.298 492.83,62.856 492.928,62.57L493.167,61.875L492.441,61.764C491.886,61.679 489.297,61.332 487.905,61.993C487.687,61.857 487.417,61.729 487.071,61.683C487.37,60.732 488.104,58.41 488.104,58.41L487.252,58.426Z" style="fill:rgb(77,142,201);fill-rule:nonzero;"/>
        </g>
        <g transform="matrix(118.78,0,0,118.78,0,0)">
            <path d="M487.877,62.722C487.526,62.459 487.088,62.108 486.211,62.371L487.263,59.039C487.263,59.039 472.619,59.302 456.662,62.371L458.415,63.512L456.135,66.58L446.754,68.598L445.965,69.738L448.507,71.404L444.651,79.032C444.651,79.032 446.936,78.269 450.947,77.202L454.032,70.878L452.677,76.752C455.081,76.14 457.964,75.457 461.236,74.776L461.924,73.859L461.924,74.636C468.074,73.381 475.534,72.152 483.757,71.404C489.544,70.878 489.982,68.599 490.772,65.967C491.386,65.178 492.35,62.372 492.35,62.372C492.35,62.372 488.929,61.845 487.877,62.722Z" style="fill-rule:nonzero;"/>
        </g>
        <g transform="matrix(118.78,0,0,118.78,0,0)">
            <path d="M448.629,69.021L450.609,70.293L447.357,76.657L450.468,75.667L453.438,69.728L455.275,69.304L455.982,67.607L448.629,69.021Z" style="fill:white;fill-rule:nonzero;"/>
        </g>
        <g transform="matrix(118.78,0,0,118.78,0,0)">
            <path d="M459.236,66.899L455.982,67.607L456.407,68.455L454.568,74.677L456.832,74.253L459.378,70.859L458.67,73.688L460.65,73.405L466.655,65.642L463.338,66.193L464.045,67.183L462.343,69.474L463.338,66.193L459.895,66.866L460.533,67.771L458.403,70.592L459.236,66.899Z" style="fill:white;fill-rule:nonzero;"/>
        </g>
        <g transform="matrix(118.78,0,0,118.78,0,0)">
            <path d="M466.655,65.642L469.955,65.056L466.495,72.296L464.047,72.722L467.133,66.6L466.655,65.642Z" style="fill:white;fill-rule:nonzero;"/>
        </g>
        <g transform="matrix(118.78,0,0,118.78,0,0)">
            <path d="M474.055,64.577C474.055,64.577 471.979,64.577 470.754,65.535C469.529,66.493 468.998,67.239 468.998,67.878C468.998,68.516 470.062,69.315 470.062,69.634C470.062,69.954 469.902,70.486 469.263,70.592C468.624,70.699 468.091,70.805 467.878,70.805L467.08,72.03C467.08,72.03 470.168,71.604 470.7,71.231C471.232,70.858 472.61,70.384 472.663,69.693C472.716,69.001 472.466,68.026 471.874,67.719C470.329,66.921 472.563,65.695 472.829,65.695C473.096,65.695 474.001,65.588 474.001,65.588L474.055,64.577Z" style="fill:white;fill-rule:nonzero;"/>
        </g>
        <g transform="matrix(118.78,0,0,118.78,0,0)">
            <path d="M478.846,63.991L478.262,65.375L477.09,65.428L474.641,70.806L472.512,71.071L475.066,65.695L474.055,64.577L478.846,63.991Z" style="fill:white;fill-rule:nonzero;"/>
        </g>
        <g transform="matrix(118.78,0,0,118.78,0,0)">
            <path d="M483.266,63.619L482.573,65.109L481.668,65.216L481.828,64.842L480.922,64.842L480.55,65.908L481.668,65.908L481.082,66.759L479.857,67.079L478.953,69.208L479.965,69.155L480.018,68.356L481.082,68.41L480.444,69.9L476.664,70.432L479.326,64.949L479.006,63.991L483.266,63.619Z" style="fill:white;fill-rule:nonzero;"/>
        </g>
        <g transform="matrix(118.78,0,0,118.78,0,0)">
            <path d="M486.46,63.406C486.46,63.406 487.578,63.672 487.098,64.736C486.619,65.801 485.501,66.973 485.235,67.132C484.969,67.292 485.662,67.558 485.502,68.143C485.343,68.728 485.075,69.474 485.075,69.474L483.585,69.474L483.905,68.41C483.905,68.41 483.692,67.878 483.479,67.878C483.266,67.878 482.626,69.687 482.626,69.687L481.029,69.794L483.478,64.522L483.265,63.618L486.46,63.406Z" style="fill:white;fill-rule:nonzero;"/>
        </g>
        <g transform="matrix(118.78,0,0,118.78,0,0)">
            <path d="M490.771,63.246C490.771,63.246 489.334,63.192 488.324,63.778C487.311,64.364 486.833,65.322 486.833,65.748C486.833,66.174 487.524,67.505 487.472,67.718C487.419,67.93 487.099,68.516 486.354,68.516L485.609,68.463L485.396,69.421C485.396,69.421 487.312,69.527 487.898,69.049C488.484,68.569 489.175,68.41 489.283,67.771C489.389,67.132 489.176,65.908 488.856,65.482C488.539,65.056 489.069,64.151 489.709,64.151C490.348,64.151 490.561,64.151 490.561,64.151L490.771,63.246Z" style="fill:white;fill-rule:nonzero;"/>
        </g>
        <g transform="matrix(118.78,0,0,118.78,0,0)">
            <path d="M453.08,51.342C455.75,52.36 459.916,53.638 464.115,53.69C460.992,54.393 454.115,54.609 450.541,53.904C452.078,54.71 454.871,55.715 458.941,55.444C455.873,56.3 452.457,56.633 449.07,56.02C451.004,56.752 454.31,57.81 456.924,57.636C454.474,58.779 451.187,59.313 446.993,58.886C449.431,59.597 452.54,59.74 452.54,59.74C449.248,61.321 446.056,60.725 444.669,60.33C446.247,61.397 448.944,61.756 448.944,61.756C448.452,62.359 446.145,62.447 444.483,62.431C445.336,62.918 446.261,63.271 447.015,63.422C446.396,63.979 444.422,63.968 443.314,63.913C444.059,64.438 444.915,64.922 445.701,65C445.598,65.205 444.185,65.558 443.025,65.817C443.161,68.109 444.122,69.033 444.122,69.033C444.122,69.033 444.692,64.456 448.944,62.633C450.786,61.843 456.923,58.599 459.379,57.81C465.98,55.689 470.34,51.234 470.34,51.234C470.34,51.234 464.674,53.676 453.08,51.342Z" style="fill:rgb(77,142,201);fill-rule:nonzero;"/>
        </g>
        <g transform="matrix(118.78,0,0,118.78,0,0)">
            <path d="M457.539,45.799C457.539,45.799 464.379,46.15 467.184,45.799C469.991,45.448 473.234,44.134 474.024,43.081C473.234,45.011 469.727,46.326 467.711,46.589C465.692,46.851 459.292,46.326 457.539,45.799Z" style="fill:rgb(77,142,201);fill-rule:nonzero;"/>
        </g>
        <g transform="matrix(118.78,0,0,118.78,0,0)">
            <path d="M462.099,49.131C462.078,49.116 462.058,49.101 462.037,49.086C461.772,49.535 461.31,49.833 460.783,49.833C459.959,49.833 459.292,49.107 459.292,48.211C459.292,47.948 459.352,47.699 459.455,47.478C457.8,46.701 457.188,47.028 457.188,47.028C457.889,47.028 458.678,47.73 459.204,48.606C459.731,49.483 459.643,50.184 460.695,50.623C462.154,51.231 463.15,50.185 464.64,49.658C464.202,49.657 463.15,49.92 462.099,49.131Z" style="fill:white;fill-rule:nonzero;"/>
        </g>
        <g transform="matrix(118.78,0,0,118.78,0,0)">
            <path d="M469.666,48.167C469.814,48.366 469.902,48.607 469.902,48.868C469.902,49.545 469.312,50.095 468.587,50.095C468.152,50.095 467.77,49.899 467.53,49.596C467.037,49.805 466.657,49.92 466.657,49.92C467.359,50.271 468.937,50.972 469.464,50.621C469.991,50.27 470.341,50.183 470.516,49.219C470.692,48.254 471.393,47.817 472.094,47.378C471.339,47.076 470.457,47.488 469.666,48.167Z" style="fill:white;fill-rule:nonzero;"/>
        </g>
        <g transform="matrix(118.78,0,0,118.78,0,0)">
            <path d="M472.54,34.799C471.884,36.885 470.426,40.015 467.207,43.315C468.283,43.097 469.238,42.767 469.99,42.292C472.541,39.918 473.205,35.498 473.043,32.724C472.944,33.309 472.789,34.008 472.54,34.799Z" style="fill:rgb(158,51,87);fill-rule:nonzero;"/>
        </g>
        <g transform="matrix(118.78,0,0,118.78,0,0)">
            <path d="M472.717,30.817C472.613,30.535 472.49,30.346 472.358,30.28C472.358,30.28 472.26,30.229 472.076,30.149C470.918,30.215 468.403,30.779 467.432,31.016L467.286,30.421C467.398,30.393 469.244,29.943 470.771,29.693C468.591,29.077 464.378,28.522 459.467,31.156C452.278,35.015 451.575,40.714 451.312,41.503C451.251,41.686 451.951,41.995 453.119,42.322C453.681,41.285 454.615,39.637 455.014,39.398L455.33,39.924L455.332,39.923C455.12,40.069 454.393,41.274 453.73,42.483C455.848,43.016 459.068,43.554 462.203,43.651C464.191,42.388 467.633,39.807 470.165,35.802C470.165,35.802 467.447,41.94 464.026,43.606C463.992,43.624 463.958,43.64 463.922,43.657C464.76,43.635 465.574,43.572 466.342,43.463L466.267,43.387C469.741,40.002 471.272,36.767 471.943,34.649C472.672,32.356 472.578,30.842 472.578,30.826L472.717,30.817Z" style="fill:rgb(158,51,87);fill-rule:nonzero;"/>
        </g>
        <g transform="matrix(118.78,0,0,118.78,0,0)">
            <path d="M465.431,32.296L466.571,31.858L466.153,31.658C466.255,31.616 466.307,31.595 466.307,31.595L465.255,31.069C465.184,31.083 465.11,31.102 465.034,31.124L464.553,30.894L463.501,31.245L464.039,31.539C463.805,31.659 463.558,31.799 463.301,31.954L462.711,31.596L461.748,32.21L462.353,32.563C462.155,32.698 461.953,32.839 461.75,32.984L461.046,32.561L460.168,33.175L460.875,33.627C460.582,33.849 460.288,34.075 459.998,34.306L459.291,33.877L458.414,34.578L459.122,35.008C458.907,35.184 458.694,35.359 458.488,35.531L457.713,35.104L456.837,35.981L457.483,36.382C457.247,36.585 457.022,36.779 456.814,36.963L456.222,36.595L455.345,37.56L455.789,37.871C455.398,38.224 455.17,38.436 455.17,38.436L456.66,39.312C456.805,39.134 456.947,38.958 457.091,38.787L457.712,39.225L458.764,38.172L458.034,37.719C458.232,37.504 458.43,37.295 458.629,37.093L459.379,37.56L460.256,36.507L459.602,36.145C459.79,35.971 459.976,35.801 460.161,35.638L460.871,36.069L461.748,35.367L461.008,34.918C461.297,34.683 461.58,34.461 461.856,34.253L462.361,34.577L463.239,33.876L462.768,33.594C462.985,33.444 463.195,33.304 463.399,33.173L463.852,33.438L464.729,32.825L464.345,32.591C464.643,32.419 464.912,32.271 465.149,32.145L465.431,32.296Z" style="fill:white;fill-rule:nonzero;"/>
        </g>
        <g transform="matrix(118.78,0,0,118.78,0,0)">
            <path d="M485.158,64.387C485.158,64.387 485.685,64.563 485.422,65.264C485.159,65.965 484.281,66.404 484.281,66.404L485.158,64.387Z" style="fill-rule:nonzero;"/>
        </g>
        <g transform="matrix(118.78,0,0,118.78,0,0)">
            <path d="M462.078,65.028L461.748,62.634L460.169,62.809L459.994,63.335L460.545,63.183L458.24,65.848L459.058,65.674C459.058,65.674 459.324,65.403 459.679,65.035L459.681,65.054L461.274,64.9C461.29,65.053 461.298,65.15 461.298,65.15L462.078,65.028ZM460.148,64.545C460.491,64.185 460.846,63.804 461.103,63.511C461.148,63.793 461.191,64.139 461.225,64.44L460.148,64.545Z" style="fill:rgb(126,126,126);fill-rule:nonzero;"/>
        </g>
        <g transform="matrix(118.78,0,0,118.78,0,0)">
            <path d="M466.834,62.419C466.73,62.122 466.315,61.907 466.142,61.828L466.065,61.793L465.981,61.804L464.295,61.998C464.295,61.998 463.778,62.956 463.443,63.628C463.492,63.634 463.102,63.699 463.099,63.7L462.857,64.213C462.857,64.213 463.207,64.164 463.212,64.164C463.117,64.352 462.916,65.09 462.916,65.09L463.481,64.993C463.481,64.993 463.734,64.489 463.954,64.052C464.169,64.019 464.417,63.981 464.69,63.936L465.198,64.768L466.071,64.623L465.405,63.799C466.292,63.563 466.667,63.067 466.813,62.772C466.844,62.71 466.86,62.643 466.86,62.576C466.861,62.523 466.853,62.471 466.834,62.419ZM464.971,63.267C464.729,63.308 464.502,63.343 464.291,63.378C464.479,62.999 464.65,62.657 464.695,62.57C464.939,62.541 465.815,62.44 465.958,62.424C466.059,62.476 466.156,62.538 466.215,62.588C466.066,62.817 465.729,63.141 464.971,63.267Z" style="fill:rgb(126,126,126);fill-rule:nonzero;"/>
        </g>
        <g transform="matrix(118.78,0,0,118.78,0,0)">
            <path d="M470.925,61.348L469.932,61.582L468.177,62.784L468.58,61.755L467.943,61.874L467.61,62.828L467.088,62.938L466.957,63.351L467.371,63.243L466.892,64.504L467.527,64.385L468.002,63.102L468.504,63.133L469.072,64.058L469.639,63.979L468.939,62.719L470.925,61.348Z" style="fill:rgb(126,126,126);fill-rule:nonzero;"/>
        </g>
        <g transform="matrix(118.78,0,0,118.78,0,0)">
            <path d="M473.037,63.59L472.928,61.15L471.555,61.259L471.317,61.789L471.786,61.649L469.821,64.098L470.518,63.937C470.518,63.937 470.746,63.688 471.048,63.35L471.05,63.368L472.407,63.226C472.42,63.367 472.427,63.678 472.427,63.678L473.037,63.59Z" style="fill:rgb(126,126,126);fill-rule:nonzero;"/>
        </g>
        <g transform="matrix(118.78,0,0,118.78,0,0)">
            <path d="M471.643,62.903L472.404,62.806L472.491,61.89L471.643,62.903Z" style="fill-rule:nonzero;"/>
        </g>
        <g transform="matrix(118.78,0,0,118.78,0,0)">
            <path d="M473.582,63.503L474.759,60.91L476.131,62.304L476.785,60.714L477.33,60.714L476.176,63.308L474.846,61.782L474.192,63.482L473.582,63.503Z" style="fill:rgb(126,126,126);fill-rule:nonzero;"/>
        </g>
        <g transform="matrix(118.78,0,0,118.78,0,0)">
            <path d="M481.188,60.388L482.408,60.278L482.43,62.741L481.885,62.719L481.885,62.13L480.73,62.153L480.163,62.872L479.356,62.938L481.732,60.692L481.035,60.736L481.188,60.388Z" style="fill:rgb(126,126,126);fill-rule:nonzero;"/>
        </g>
        <g transform="matrix(118.78,0,0,118.78,0,0)">
            <path d="M480.926,61.869L481.906,60.997L481.885,61.804L480.926,61.869Z" style="fill-rule:nonzero;"/>
        </g>
        <g transform="matrix(118.78,0,0,118.78,0,0)">
            <path d="M482.73,62.284L483.421,61.972C483.475,62.078 483.571,62.152 483.711,62.195C483.851,62.238 484.028,62.247 484.245,62.222C484.433,62.201 484.577,62.158 484.682,62.092C484.786,62.027 484.839,61.949 484.835,61.856C484.833,61.735 484.641,61.651 484.261,61.607C484.132,61.593 484.033,61.581 483.964,61.57C483.574,61.514 483.3,61.444 483.143,61.358C482.987,61.273 482.907,61.156 482.903,61.008C482.897,60.806 483.02,60.628 483.271,60.473C483.521,60.318 483.857,60.217 484.275,60.169C484.556,60.137 484.798,60.142 485,60.184C485.203,60.226 485.352,60.302 485.446,60.411L484.86,60.726C484.815,60.661 484.738,60.615 484.629,60.585C484.52,60.557 484.393,60.55 484.25,60.566C484.092,60.585 483.965,60.622 483.87,60.679C483.777,60.737 483.73,60.804 483.732,60.881C483.734,60.998 483.951,61.081 484.383,61.128C484.519,61.142 484.624,61.155 484.698,61.165C485.036,61.209 485.278,61.275 485.426,61.364C485.573,61.451 485.65,61.572 485.654,61.729C485.661,61.955 485.534,62.146 485.273,62.305C485.011,62.463 484.65,62.57 484.187,62.622C483.83,62.663 483.533,62.655 483.293,62.6C483.057,62.545 482.869,62.44 482.73,62.284Z" style="fill:rgb(126,126,126);fill-rule:nonzero;"/>
        </g>
        <g transform="matrix(118.78,0,0,118.78,0,0)">
            <path d="M478.996,60.452C478.503,60.478 478.057,60.718 477.859,61.064C477.746,61.261 477.731,61.463 477.816,61.633C477.913,61.824 478.117,61.946 478.394,61.978L478.525,61.993C478.953,62.038 479.173,62.095 479.183,62.162C479.195,62.246 479.169,62.334 479.111,62.412C479.021,62.529 478.866,62.608 478.675,62.632L478.575,62.645C478.123,62.706 477.796,62.749 477.44,62.478L477.173,62.827C477.674,63.208 478.162,63.141 478.635,63.079L478.73,63.066C479.04,63.026 479.298,62.888 479.459,62.676C479.589,62.505 479.645,62.3 479.615,62.099C479.552,61.659 478.985,61.599 478.57,61.555L478.444,61.542C478.3,61.525 478.226,61.473 478.207,61.435C478.184,61.388 478.217,61.318 478.237,61.28C478.36,61.065 478.675,60.907 479.017,60.889C479.371,60.871 479.804,61.064 479.808,61.066L479.99,60.667C479.971,60.657 479.459,60.427 478.996,60.452Z" style="fill:rgb(126,126,126);fill-rule:nonzero;"/>
        </g>
    </g>
</svg>
