<?xml version="1.0" encoding="UTF-8" standalone="no"?>
<!DOCTYPE svg PUBLIC "-//W3C//DTD SVG 1.1//EN" "http://www.w3.org/Graphics/SVG/1.1/DTD/svg11.dtd">
<svg width="100%" height="100%" viewBox="0 0 5909 4915" version="1.1" xmlns="http://www.w3.org/2000/svg" xmlns:xlink="http://www.w3.org/1999/xlink" xml:space="preserve" xmlns:serif="http://www.serif.com/" style="fill-rule:evenodd;clip-rule:evenodd;stroke-linejoin:round;stroke-miterlimit:1.41421;">
    <g transform="matrix(1,0,0,1,-80218.9,-3321.22)">
        <g transform="matrix(118.78,0,0,118.78,0,0)">
            <g>
                <path d="M684.942,39.896C684.846,39.903 684.762,39.913 684.667,39.925L684.705,39.796C684.968,38.938 685.336,38.047 685.503,37.608C685.556,37.483 685.493,37.463 685.42,37.43C685.344,37.4 685.196,37.354 685.1,37.354C685.004,37.354 684.943,37.357 684.935,37.414C684.853,37.649 684.479,38.86 684.22,39.754L684.152,39.994C683.455,40.086 682.872,40.206 682.094,40.334C682.12,40.211 682.163,40.086 682.191,39.963C682.43,39.118 682.797,38.217 682.963,37.776C683.005,37.657 682.954,37.626 682.868,37.593C682.795,37.57 682.646,37.529 682.548,37.521C682.464,37.516 682.404,37.525 682.383,37.581C682.301,37.811 681.977,39.019 681.706,39.92C681.655,40.081 681.604,40.247 681.555,40.414C681.436,40.433 681.317,40.452 681.195,40.468C680.969,40.493 680.897,40.528 681.009,40.569C681.109,40.605 681.264,40.607 681.469,40.576L681.504,40.569C681.372,40.989 681.24,41.397 681.188,41.691C681.178,41.76 681.241,41.778 681.351,41.809C681.45,41.832 681.546,41.857 681.632,41.876C681.731,41.895 681.79,41.885 681.798,41.819C681.86,41.439 681.929,40.986 682.055,40.481C682.724,40.361 683.226,40.251 684.09,40.168C683.927,40.663 683.753,41.176 683.676,41.525C683.658,41.592 683.72,41.632 683.831,41.662C683.941,41.692 684.014,41.706 684.112,41.723C684.211,41.743 684.281,41.731 684.289,41.66C684.359,41.219 684.449,40.711 684.618,40.118C684.847,40.099 684.928,40.068 685.07,40.013C685.317,39.911 685.183,39.875 684.942,39.896Z" style="fill:white;fill-rule:nonzero;"/>
                <path d="M686.755,40.495C686.777,40.45 686.814,40.46 686.792,40.499C686.664,40.789 686.588,41.123 686.517,41.339C686.497,41.412 686.523,41.429 686.633,41.459C686.743,41.49 686.817,41.501 686.903,41.527C686.99,41.559 687.074,41.535 687.08,41.474C687.142,40.876 687.331,40.235 687.683,39.467C687.714,39.394 687.653,39.374 687.558,39.385C687.402,39.406 687.342,39.415 687.235,39.433C687.115,39.454 687.083,39.502 687.06,39.56C686.797,40.17 686.331,40.858 685.991,41.194C685.875,41.299 685.827,41.307 685.765,41.276C685.59,41.188 685.504,40.764 685.773,40.202C686.081,39.527 686.661,39.148 686.853,39.135C687.058,39.118 687.138,39.239 687.18,39.326C687.209,39.392 687.268,39.4 687.324,39.318C687.371,39.26 687.352,39.208 687.291,39.15C687.163,39.031 686.865,38.953 686.543,38.985C686.266,39.007 685.61,39.339 685.203,40.176C684.955,40.664 685.026,41.035 685.099,41.23C685.172,41.438 685.407,41.52 685.71,41.557C685.869,41.578 685.915,41.555 686.021,41.477C686.227,41.309 686.524,40.897 686.755,40.495Z" style="fill:white;fill-rule:nonzero;"/>
                <path d="M690.566,41.2C691.348,40.752 691.891,39.767 692.041,39.224C692.101,39.026 692.118,38.929 691.992,38.82C691.827,38.692 691.708,38.73 691.702,38.833C691.676,39.592 691.212,40.493 690.714,40.869C690.497,41.04 690.342,41.08 690.192,40.976C689.774,40.655 690.451,39.51 690.663,38.989C690.713,38.845 690.64,38.833 690.566,38.819C690.479,38.801 690.346,38.77 690.259,38.752C690.174,38.74 690.103,38.757 690.08,38.813C689.783,39.655 689.228,40.646 688.625,41.053C688.52,41.126 688.425,41.121 688.382,41.026C688.133,40.515 688.736,39.706 688.953,39.118C688.995,39.006 688.957,38.973 688.857,38.943C688.758,38.919 688.711,38.909 688.601,38.88C688.49,38.851 688.418,38.884 688.387,38.947C688.154,39.515 687.507,40.564 687.809,41.145C687.864,41.283 687.993,41.377 688.211,41.419C688.444,41.466 688.56,41.391 688.687,41.288C688.965,41.069 689.166,40.846 689.389,40.541C689.423,40.503 689.459,40.494 689.463,40.537C689.374,40.87 689.44,41.18 689.885,41.299C690.155,41.37 690.367,41.315 690.566,41.2Z" style="fill:white;fill-rule:nonzero;"/>
                <path d="M692.017,40.807C692.091,41.016 692.325,41.098 692.63,41.133C692.786,41.153 692.834,41.132 692.941,41.054C693.146,40.884 693.448,40.471 693.674,40.07C693.696,40.026 693.734,40.037 693.711,40.072C693.583,40.365 693.509,40.697 693.436,40.914C693.417,40.988 693.443,41.005 693.554,41.034C693.662,41.064 693.738,41.077 693.823,41.102C693.909,41.132 693.995,41.108 694.001,41.047C694.062,40.451 694.252,39.809 694.603,39.041C694.635,38.968 694.575,38.947 694.477,38.958C694.322,38.981 694.263,38.991 694.155,39.008C694.036,39.027 694.002,39.079 693.981,39.133C693.716,39.744 693.252,40.433 692.91,40.769C692.796,40.873 692.748,40.882 692.684,40.848C692.511,40.764 692.423,40.339 692.692,39.777C693.003,39.102 693.582,38.721 693.774,38.709C693.979,38.691 694.058,38.813 694.099,38.902C694.126,38.968 694.189,38.973 694.245,38.893C694.289,38.836 694.273,38.782 694.211,38.726C694.083,38.606 693.788,38.527 693.464,38.56C693.187,38.582 692.531,38.914 692.123,39.75C691.873,40.242 691.945,40.611 692.017,40.807Z" style="fill:white;fill-rule:nonzero;"/>
                <path d="M695.644,38.125C695.857,38.209 695.982,38.086 696.017,37.89C696.056,37.713 696.024,37.586 695.889,37.558C695.754,37.537 695.606,37.685 695.554,37.803C695.5,37.916 695.458,38.045 695.644,38.125Z" style="fill:white;fill-rule:nonzero;"/>
                <path d="M695.752,38.5C695.679,38.473 695.52,38.453 695.445,38.44C695.373,38.432 695.314,38.429 695.293,38.496C695.175,38.917 695.079,39.334 694.989,39.637C694.809,40.242 694.744,40.39 694.652,40.84C694.632,40.914 694.705,40.94 694.829,40.962C694.94,40.992 695.013,41.005 695.098,41.031C695.199,41.054 695.269,41.045 695.276,40.972C695.294,40.65 695.361,40.189 695.507,39.623C695.574,39.341 695.721,38.98 695.845,38.622C695.864,38.547 695.826,38.518 695.752,38.5Z" style="fill:white;fill-rule:nonzero;"/>
                <path d="M696.813,38.052C697.021,38.135 697.149,38.012 697.184,37.818C697.222,37.641 697.19,37.516 697.053,37.487C696.922,37.466 696.774,37.613 696.721,37.73C696.667,37.844 696.625,37.974 696.813,38.052Z" style="fill:white;fill-rule:nonzero;"/>
                <path d="M696.443,40.898C696.459,40.576 696.528,40.118 696.673,39.55C696.741,39.268 696.887,38.907 697.011,38.549C697.03,38.474 696.992,38.446 696.917,38.427C696.846,38.401 696.686,38.381 696.613,38.366C696.54,38.36 696.479,38.357 696.458,38.423C696.34,38.843 696.245,39.261 696.155,39.565C695.975,40.169 695.911,40.318 695.818,40.768C695.797,40.842 695.873,40.866 695.995,40.888C696.105,40.92 696.179,40.933 696.265,40.958C696.362,40.982 696.435,40.972 696.443,40.898Z" style="fill:white;fill-rule:nonzero;"/>
                <path d="M697.154,40.491C697.23,40.699 697.463,40.783 697.766,40.819C697.925,40.838 697.97,40.819 698.076,40.739C698.283,40.569 698.584,40.155 698.811,39.754C698.834,39.711 698.871,39.721 698.85,39.759C698.722,40.05 698.647,40.383 698.577,40.599C698.555,40.673 698.58,40.689 698.692,40.72C698.801,40.749 698.874,40.762 698.96,40.787C699.046,40.819 699.131,40.796 699.139,40.734C699.201,40.136 699.388,39.494 699.741,38.729C699.771,38.652 699.711,38.634 699.616,38.646C699.46,38.667 699.4,38.675 699.292,38.695C699.173,38.714 699.14,38.765 699.118,38.821C698.854,39.431 698.389,40.119 698.049,40.454C697.934,40.559 697.886,40.569 697.822,40.536C697.649,40.451 697.561,40.026 697.829,39.464C698.139,38.789 698.718,38.408 698.912,38.397C699.116,38.378 699.196,38.501 699.237,38.588C699.266,38.654 699.328,38.662 699.382,38.579C699.428,38.522 699.411,38.47 699.348,38.413C699.22,38.293 698.925,38.215 698.602,38.246C698.324,38.269 697.667,38.601 697.26,39.439C697.012,39.924 697.081,40.297 697.154,40.491Z" style="fill:white;fill-rule:nonzero;"/>
                <path d="M702.72,38.248C702.764,38.185 702.762,38.147 702.664,38.123C702.578,38.098 702.393,38.049 702.295,38.019C702.207,37.988 702.124,37.987 702.079,38.062C701.84,38.477 700.964,39.386 700.647,39.72C700.614,39.765 700.564,39.767 700.574,39.714C700.647,39.332 701.014,38.607 701.17,38.379C701.213,38.305 701.213,38.281 701.087,38.239C700.964,38.199 700.915,38.197 700.842,38.176C700.756,38.157 700.646,38.139 700.606,38.233C700.295,38.913 699.959,39.895 699.827,40.481C699.806,40.573 699.843,40.607 699.943,40.641C700.043,40.674 700.08,40.682 700.175,40.701C700.274,40.723 700.37,40.721 700.402,40.631C700.568,40.186 701.148,39.412 701.536,39.024C701.569,38.992 701.606,39.003 701.597,39.033C701.3,39.53 701.134,40.158 701.283,40.415C701.337,40.521 701.378,40.562 701.524,40.594C701.66,40.628 701.781,40.653 701.914,40.674C702.037,40.696 702.059,40.646 702.006,40.571C701.758,40.287 701.848,39.409 702.72,38.248Z" style="fill:white;fill-rule:nonzero;"/>
                <path d="M682.293,50.067C681.894,49.71 681.655,49.374 681.563,49.036C681.476,48.728 681.436,48.3 681.436,47.687C681.436,47.198 681.474,46.849 681.554,46.584C681.662,46.245 681.845,46.058 682.099,46.029C682.221,46.016 682.518,46.031 682.661,46.428C682.702,46.551 682.756,46.807 682.757,47.617C682.757,47.617 682.757,48.173 682.757,48.528C683.166,48.453 684.055,48.291 684.357,48.236C684.357,48.054 684.357,47.844 684.357,47.844C684.354,46.611 684.29,45.763 684.159,45.261C684.03,44.787 683.791,44.418 683.411,44.101C683.014,43.778 682.585,43.629 682.055,43.633C681.56,43.642 681.172,43.799 680.837,44.127C680.485,44.475 680.233,44.954 680.066,45.584C679.898,46.26 679.813,47.255 679.813,48.631C679.815,49.59 679.874,50.335 679.991,50.904C680.108,51.465 680.249,51.869 680.418,52.143C680.556,52.359 680.858,52.754 681.521,53.407C682.168,54.037 682.495,54.407 682.652,54.686L682.657,54.696C682.822,55.021 682.897,55.659 682.898,56.773C682.897,57.289 682.858,57.674 682.776,57.989C682.711,58.224 682.588,58.554 682.285,58.705C682.135,58.776 681.995,58.788 681.867,58.736C681.736,58.682 681.642,58.572 681.583,58.403C681.537,58.269 681.478,57.98 681.477,57.01C681.477,57.01 681.477,55.732 681.477,55.204C680.931,55.399 680.401,55.592 679.878,55.787C679.878,56.062 679.878,56.857 679.878,56.857C679.88,58.348 679.944,59.448 680.076,60.215C680.209,60.939 680.45,61.403 680.81,61.632C681.039,61.774 681.394,61.877 682.102,61.424C682.623,61.084 683.084,60.603 683.506,59.951C683.926,59.297 684.187,58.706 684.329,58.093C684.475,57.44 684.545,56.569 684.546,55.43C684.543,53.862 684.421,52.846 684.17,52.238C683.92,51.672 683.359,51.023 682.293,50.067Z" style="fill:white;fill-rule:nonzero;"/>
                <path d="M676.754,64.771C677.349,64.302 677.93,63.858 678.518,63.429C678.518,63.159 678.518,44.617 678.518,44.081C678.144,44.085 677.119,44.1 676.754,44.105C676.754,44.619 676.754,63.707 676.754,64.771Z" style="fill:white;fill-rule:nonzero;"/>
                <path d="M723.359,41.661C723.154,40.962 722.664,39.905 721.496,38.833C721.081,38.455 720.855,38.132 720.767,37.789C720.683,37.471 720.641,37.005 720.639,36.361C720.641,35.865 720.678,35.499 720.758,35.206C720.85,34.872 720.987,34.659 721.191,34.531C721.331,34.448 721.463,34.425 721.587,34.467C721.67,34.493 721.784,34.564 721.859,34.743C721.912,34.875 721.961,35.117 721.961,35.986C721.961,35.986 721.961,36.544 721.961,36.965C722.487,36.699 723.017,36.427 723.56,36.139C723.56,35.923 723.56,35.464 723.56,35.464C723.557,33.844 723.495,32.868 723.365,32.4C723.239,31.974 723.043,31.886 722.792,31.884C722.454,31.889 722.017,32.096 721.416,32.539C720.872,32.944 720.441,33.364 720.065,33.854C719.675,34.374 719.428,34.851 719.267,35.399C719.095,36.003 719.018,36.831 719.016,38.084C719.018,38.999 719.078,39.727 719.194,40.309C719.316,40.893 719.457,41.323 719.626,41.615C719.81,41.928 720.189,42.419 720.748,43.134C721.308,43.842 721.695,44.447 721.872,44.889C722.024,45.31 722.1,46.164 722.101,47.5C722.099,48.122 722.06,48.564 721.978,48.897C721.938,49.053 721.813,49.526 721.391,49.571C721.221,49.587 720.912,49.541 720.778,49.064C720.711,48.808 720.678,48.301 720.676,47.469C720.676,47.469 720.676,45.705 720.676,45.181C720.253,45.28 719.364,45.49 719.079,45.559C719.079,45.861 719.079,46.665 719.079,46.665C719.08,48.188 719.144,49.26 719.278,50.037C719.411,50.766 719.664,51.316 720.07,51.765C720.467,52.194 720.908,52.393 721.452,52.396C721.969,52.39 722.365,52.207 722.735,51.8C723.134,51.353 723.387,50.811 723.532,50.099C723.676,49.338 723.748,48.17 723.749,46.526C723.743,44.184 723.616,42.591 723.359,41.661Z" style="fill:white;fill-rule:nonzero;"/>
                <path d="M687.591,43.794C687.011,43.828 686.429,43.857 685.829,43.883C685.829,44.375 685.829,58.038 685.829,58.875C686.869,58.334 687.91,57.834 688.994,57.359C688.994,57.089 688.994,55.594 688.994,55.053C688.595,55.195 687.591,55.551 687.591,55.551C687.591,55.551 687.591,44.346 687.591,43.794Z" style="fill:white;fill-rule:nonzero;"/>
                <path d="M693.882,43.245C692.949,43.36 692.008,43.458 691.024,43.546C690.642,47.741 690.282,52.231 689.901,56.974C690.512,56.719 691.115,56.478 691.723,56.249L691.852,53.797L693.211,53.379C693.211,53.379 693.309,55.163 693.337,55.675C693.935,55.471 694.535,55.279 695.15,55.092C694.96,53.391 694.771,51.566 694.588,49.793C694.359,47.566 694.121,45.27 693.882,43.245ZM691.805,51.973L691.826,51.592C691.905,50.175 692.061,48.142 692.268,45.866L692.411,45.868C692.414,45.852 692.414,45.838 692.416,45.823C692.416,45.838 692.418,45.853 692.419,45.868L692.816,45.874C692.952,48.287 693.059,49.983 693.16,51.373L693.177,51.6L691.805,51.973Z" style="fill:white;fill-rule:nonzero;"/>
                <path d="M706.664,40.96C706.571,40.882 706.398,40.784 705.969,40.814C705.596,40.844 704.875,41.03 703.752,41.338C703.217,41.486 702.725,41.616 702.223,41.741C702.223,42.144 702.223,52.808 702.223,53.417C703.073,53.267 703.927,53.13 704.827,53.005C705.38,52.926 705.753,52.84 705.998,52.732C706.234,52.629 706.42,52.48 706.58,52.271C706.744,52.048 706.853,51.762 706.923,51.373C706.994,50.943 707.032,50.085 707.032,48.82L707.032,43.828C707.032,42.62 707.008,41.9 706.958,41.569C706.914,41.292 706.823,41.104 706.664,40.96ZM705.269,49.024C705.267,50.286 705.2,50.651 705.14,50.83L705.136,50.839C705.018,51.155 704.747,51.348 704.312,51.429L703.987,51.49L703.987,42.362L704.184,42.302C704.514,42.208 704.722,42.193 704.888,42.259C705.066,42.335 705.181,42.489 705.226,42.723C705.256,42.887 705.269,43.217 705.269,43.789L705.269,49.024Z" style="fill:white;fill-rule:nonzero;"/>
                <path d="M710.216,46.035C710.216,46.035 711.375,45.75 711.669,45.676C711.669,45.355 711.669,43.792 711.669,43.259C711.26,43.393 710.216,43.732 710.216,43.732L710.216,40.789L710.218,40.601C710.218,40.601 711.498,40.1 711.769,39.993C711.769,39.72 711.772,38.667 711.772,38.441C710.674,38.937 709.584,39.39 708.454,39.814C708.454,40.172 708.454,52.014 708.454,52.581C709.584,52.473 710.725,52.382 711.923,52.308C711.923,51.922 711.923,50.241 711.923,49.774C711.504,49.838 710.217,50.033 710.217,50.033L710.217,46.035L710.216,46.035Z" style="fill:white;fill-rule:nonzero;"/>
                <path d="M699.354,47.312L698.813,47.375C698.334,45.373 697.953,43.921 697.585,42.707C697.072,42.794 696.595,42.872 696.119,42.944C696.119,43.385 696.119,54.14 696.119,54.809C696.588,54.677 697.049,54.553 697.504,54.436C697.504,54.043 697.504,48.864 697.504,48.864L697.652,48.85C697.652,48.833 697.652,48.816 697.652,48.798C697.655,48.815 697.659,48.832 697.663,48.849L698.048,48.807C698.048,48.807 698.876,52.709 699.186,54.03C699.708,53.911 700.223,53.801 700.739,53.697C700.739,53.279 700.739,42.721 700.739,42.087C700.284,42.189 699.825,42.286 699.355,42.379C699.354,42.74 699.354,47.312 699.354,47.312Z" style="fill:white;fill-rule:nonzero;"/>
                <path d="M717.698,44.526C717.66,44.199 717.569,43.877 717.426,43.544C717.298,43.26 717.074,43.101 716.7,43.029L715.929,42.882L716.624,42.516C717.069,42.282 717.35,41.94 717.508,41.444C717.666,40.904 717.753,39.932 717.754,38.636C717.751,37.294 717.65,36.516 717.437,36.187C717.268,35.939 717.102,35.884 716.803,35.975C716.422,36.101 715.631,36.518 714.626,37.044C714.143,37.3 713.648,37.548 713.135,37.8C713.135,38.127 713.135,51.688 713.135,52.238C713.725,52.206 714.31,52.178 714.898,52.155C714.898,51.663 714.898,44.305 714.898,44.305L715.102,44.251C715.729,44.081 715.95,44.398 716.028,44.613C716.083,44.775 716.156,45.147 716.157,46.501C716.157,46.501 716.158,51.653 716.158,52.108C716.525,52.096 717.408,52.071 717.755,52.061C717.755,51.583 717.755,47.391 717.755,47.391C717.754,45.465 717.724,44.769 717.698,44.526ZM715.267,42.072L714.898,42.206L714.898,38.27L715.058,38.196C715.213,38.123 715.626,37.933 715.909,38.179L715.916,38.185C716.088,38.344 716.156,38.634 716.157,39.221L716.157,40.074C716.156,41.091 716.052,41.397 715.958,41.556C715.814,41.788 715.588,41.957 715.267,42.072Z" style="fill:white;fill-rule:nonzero;"/>
            </g>
        </g>
        <g transform="matrix(118.78,0,0,118.78,0,0)">
            <g>
                <path d="M711.568,49.002C711.593,48.998 711.656,48.989 711.738,48.977L711.738,47.637C711.654,47.658 711.593,47.673 711.568,47.679C711.568,48.173 711.568,48.386 711.568,49.002Z" style="fill:rgb(255,223,28);fill-rule:nonzero;"/>
                <path d="M693.033,39.932C692.974,40.056 692.941,40.162 692.921,40.253C693.135,39.982 693.378,39.613 693.566,39.24C693.395,39.382 693.183,39.608 693.033,39.932Z" style="fill:rgb(255,223,28);fill-rule:nonzero;"/>
                <path d="M715.193,54.085C714.339,54.119 713.609,54.152 712.898,54.193L712.24,54.231C710.806,54.317 709.544,54.418 708.263,54.544L707.055,54.666L707.055,54.255C706.893,54.373 706.719,54.475 706.527,54.559C706.155,54.722 705.684,54.836 704.996,54.934C704.029,55.07 703.091,55.22 702.122,55.396L701.624,55.486L701.206,55.57C700.534,55.702 699.88,55.842 699.203,55.997C699.203,55.997 698.905,56.066 698.614,56.133C698.371,56.194 698.027,56.28 698.027,56.28C697.386,56.443 696.766,56.611 696.129,56.796L695.741,56.91C694.947,57.146 694.187,57.391 693.42,57.658C693.42,57.658 693.107,57.767 692.799,57.873C692.598,57.948 692.349,58.041 692.349,58.041C691.555,58.335 690.787,58.643 689.999,58.978L689.685,59.113C688.957,59.43 688.247,59.759 687.539,60.106C690.685,63.607 695.244,65.814 700.31,65.814C700.735,65.814 701.157,65.797 701.575,65.768C708.019,64.732 713.274,60.147 715.276,54.081C715.226,54.084 715.193,54.085 715.193,54.085Z" style="fill:rgb(255,223,28);fill-rule:nonzero;"/>
                <path d="M684.431,50.831L684.431,50.184C684.243,50.219 684.027,50.258 683.902,50.281C684.098,50.473 684.274,50.656 684.431,50.831Z" style="fill:rgb(255,223,28);fill-rule:nonzero;"/>
                <path d="M686.115,40.358C686.054,40.482 686.02,40.587 686.002,40.676C686.217,40.406 686.457,40.036 686.647,39.664C686.474,39.805 686.262,40.032 686.115,40.358Z" style="fill:rgb(255,223,28);fill-rule:nonzero;"/>
                <path d="M711.738,42.044C711.681,42.066 711.625,42.088 711.568,42.111C711.568,42.236 711.568,42.264 711.568,42.407C711.568,42.407 711.635,42.386 711.738,42.351L711.738,42.044Z" style="fill:rgb(255,223,28);fill-rule:nonzero;"/>
                <path d="M688.943,42.906C688.943,42.906 688.943,48.557 688.943,52.046C689.173,49.216 689.734,42.846 689.734,42.846L690.65,42.765C691.831,42.661 692.884,42.552 693.967,42.418L694.821,42.312L695.661,42.187C696.287,42.095 696.893,41.998 697.565,41.88C697.565,41.88 697.869,41.827 698.146,41.779C698.379,41.734 698.846,41.643 698.846,41.643C699.476,41.521 700.097,41.389 700.746,41.241L701.306,41.114L701.661,41.028C701.695,41.019 701.729,41.011 701.764,41.002L701.467,40.942C701.232,40.889 701.103,40.79 700.996,40.588C700.966,40.536 700.942,40.478 700.926,40.418C700.85,40.544 700.791,40.66 700.757,40.754C700.689,40.944 700.482,41.134 700.121,41.048C700.101,41.043 699.86,40.983 699.86,40.983C699.848,40.978 699.854,40.982 699.842,40.976C699.654,40.909 699.565,40.803 699.522,40.694C699.515,40.747 699.511,40.777 699.51,40.784C699.493,40.909 699.418,41.02 699.309,41.087C699.187,41.164 699.029,41.177 698.878,41.128C698.88,41.128 698.88,41.128 698.884,41.129L698.622,41.063C698.519,41.035 698.445,40.998 698.388,40.954C698.366,40.975 698.344,40.996 698.322,41.015C698.318,41.017 698.314,41.02 698.312,41.022C698.15,41.145 698.012,41.204 697.748,41.171C697.564,41.149 697.011,41.085 696.847,40.617C696.832,40.727 696.823,40.827 696.819,40.921C696.819,40.925 696.817,40.933 696.817,40.938C696.804,41.065 696.741,41.172 696.639,41.245C696.523,41.328 696.376,41.347 696.203,41.305L695.938,41.237C695.854,41.222 695.729,41.195 695.628,41.105C695.599,41.191 695.545,41.265 695.472,41.317C695.355,41.399 695.208,41.419 695.035,41.376L694.77,41.309C694.662,41.29 694.482,41.249 694.379,41.084C694.377,41.082 694.375,41.078 694.374,41.076C694.372,41.083 694.372,41.091 694.37,41.099C694.355,41.227 694.281,41.337 694.17,41.404C694.043,41.482 693.878,41.494 693.723,41.438C693.735,41.442 693.734,41.442 693.744,41.444L693.481,41.38C693.378,41.352 693.305,41.314 693.248,41.272C693.205,41.312 693.179,41.334 693.173,41.339C693.01,41.462 692.873,41.523 692.608,41.487C692.426,41.466 691.87,41.403 691.706,40.933C691.683,40.872 691.662,40.804 691.648,40.727C691.402,41.03 691.107,41.31 690.765,41.507C690.454,41.686 690.143,41.73 689.815,41.638C689.562,41.572 689.374,41.443 689.252,41.274C689.15,41.375 689.046,41.469 688.933,41.558C688.75,41.708 688.532,41.839 688.168,41.767C687.772,41.692 687.594,41.479 687.514,41.306C687.504,41.287 687.496,41.267 687.489,41.248C687.473,41.337 687.462,41.426 687.452,41.511C687.452,41.515 687.452,41.52 687.452,41.524C687.434,41.65 687.36,41.762 687.25,41.83C687.121,41.905 686.96,41.918 686.805,41.861C686.808,41.863 686.811,41.866 686.814,41.866L686.562,41.802C686.461,41.775 686.386,41.737 686.329,41.693C686.308,41.714 686.286,41.737 686.265,41.755C686.26,41.759 686.257,41.759 686.254,41.763C686.093,41.888 685.953,41.947 685.69,41.911C685.506,41.89 684.952,41.826 684.788,41.357C684.786,41.35 684.783,41.34 684.779,41.333C684.752,41.393 684.721,41.455 684.693,41.516C684.682,41.583 684.671,41.65 684.662,41.716C684.663,41.71 684.663,41.702 684.664,41.697C684.651,41.82 684.592,41.925 684.495,41.996C684.489,42 684.483,42.004 684.476,42.008C684.287,42.461 684.117,42.922 683.964,43.391C684.063,43.457 684.159,43.527 684.254,43.604L684.263,43.612C684.322,43.661 684.376,43.709 684.429,43.759L684.429,43.136L685.481,43.091C686.311,43.055 687.042,43.017 687.777,42.974L688.943,42.906Z" style="fill:rgb(255,223,28);fill-rule:nonzero;"/>
                <path d="M687.546,38.891C687.6,38.938 687.637,38.987 687.666,39.037C687.789,39.046 687.875,39.09 687.936,39.14C687.936,39.14 688.085,38.81 688.098,38.787C688.209,38.567 688.454,38.47 688.717,38.539L688.985,38.605C689.044,38.623 689.217,38.677 689.304,38.851C689.359,38.967 689.36,39.101 689.309,39.241C689.241,39.427 689.145,39.616 689.044,39.817C688.94,40.027 688.813,40.282 688.746,40.501C689.168,40.053 689.551,39.32 689.775,38.691C689.836,38.529 690.018,38.356 690.338,38.405C690.353,38.407 690.662,38.475 690.662,38.475C690.735,38.488 690.903,38.525 690.999,38.693C691.068,38.814 691.074,38.954 691.017,39.111C691.014,39.12 691.017,39.114 691.014,39.122L690.835,39.517C690.727,39.748 690.417,40.412 690.43,40.657C690.454,40.642 690.485,40.623 690.526,40.59C690.917,40.296 691.349,39.515 691.375,38.816C691.383,38.646 691.483,38.497 691.634,38.43C691.721,38.392 691.952,38.325 692.235,38.549C692.238,38.549 692.241,38.551 692.245,38.555C692.33,38.626 692.384,38.701 692.418,38.777C692.797,38.405 693.201,38.235 693.453,38.214C693.866,38.174 694.259,38.271 694.468,38.467C694.522,38.515 694.558,38.563 694.588,38.613C694.734,38.623 694.83,38.682 694.889,38.746C694.932,38.582 694.979,38.404 694.981,38.4C695.002,38.33 695.061,38.198 695.21,38.131C695.135,37.92 695.224,37.728 695.256,37.662C695.372,37.406 695.66,37.164 695.971,37.213C695.977,37.213 695.981,37.215 695.986,37.215C696.128,37.245 696.245,37.324 696.321,37.439C696.359,37.501 696.386,37.569 696.399,37.644C696.41,37.622 696.419,37.603 696.423,37.59C696.539,37.334 696.827,37.09 697.139,37.142C697.144,37.142 697.15,37.143 697.153,37.144C697.294,37.174 697.413,37.252 697.487,37.365C697.578,37.506 697.602,37.681 697.558,37.886C697.527,38.058 697.449,38.201 697.334,38.298C697.401,38.405 697.41,38.53 697.379,38.645C697.377,38.649 697.377,38.651 697.376,38.653C697.803,38.149 698.299,37.922 698.591,37.899C699.007,37.858 699.399,37.956 699.609,38.152C699.661,38.198 699.699,38.245 699.725,38.297C699.892,38.31 699.996,38.383 700.048,38.456C700.074,38.49 700.093,38.527 700.106,38.565C700.175,38.396 700.243,38.235 700.309,38.089C700.357,37.98 700.518,37.739 700.946,37.834C700.959,37.835 701.225,37.905 701.225,37.905C701.301,37.93 701.48,37.99 701.549,38.177C701.555,38.191 701.555,38.205 701.56,38.219C701.665,38.091 701.75,37.974 701.802,37.888C701.894,37.724 702.119,37.575 702.441,37.689C702.431,37.684 702.774,37.783 702.774,37.783C702.983,37.834 703.067,37.955 703.101,38.049C703.135,38.142 703.152,38.286 703.034,38.452C703.034,38.455 703.03,38.458 703.027,38.46C702.224,39.537 702.21,40.223 702.297,40.341C702.305,40.345 702.315,40.361 702.32,40.37C702.485,40.603 702.383,40.797 702.348,40.849C702.346,40.85 702.346,40.852 702.346,40.854C702.688,40.765 703.026,40.676 703.367,40.581C704.624,40.235 705.35,40.053 705.837,40.012L705.85,40.012C706.318,39.979 706.717,40.036 707.059,40.186L707.059,39.427L707.777,39.16C709.08,38.677 710.318,38.161 711.564,37.584L711.953,37.406L711.995,37.385C709.384,34.327 705.726,32.189 701.577,31.523C701.161,31.493 700.739,31.477 700.314,31.477C694.564,31.477 689.464,34.32 686.348,38.673C686.414,38.653 686.479,38.641 686.535,38.636C686.945,38.597 687.338,38.696 687.546,38.891Z" style="fill:rgb(255,223,28);fill-rule:nonzero;"/>
                <path d="M698.172,39.618C698.113,39.739 698.08,39.846 698.061,39.936C698.275,39.666 698.515,39.296 698.705,38.922C698.532,39.065 698.319,39.292 698.172,39.618Z" style="fill:rgb(255,223,28);fill-rule:nonzero;"/>
            </g>
        </g>
        <g transform="matrix(118.78,0,0,118.78,0,0)">
            <g>
                <path d="M685.852,37.75C685.855,37.74 685.719,38.089 685.719,38.089C685.595,38.408 685.444,38.803 685.295,39.221C687.518,35.692 690.949,32.999 695.004,31.724C693.888,31.973 692.814,32.328 691.792,32.78C694.456,31.26 697.54,30.391 700.826,30.391C706.126,30.391 710.896,32.65 714.232,36.256C714.618,36.054 714.948,35.881 715.233,35.737C711.615,31.557 706.27,28.916 700.31,28.916C692.558,28.916 685.853,33.386 682.626,39.888C682.724,39.872 682.845,39.851 682.845,39.851C683.197,39.788 683.539,39.729 683.897,39.679C683.898,39.676 683.906,39.655 683.906,39.655C684.151,38.805 684.522,37.598 684.618,37.313C684.658,37.162 684.779,37.001 685.125,37.003C685.29,37.003 685.491,37.068 685.589,37.11C685.922,37.254 685.943,37.534 685.852,37.75Z" style="fill:rgb(238,53,36);fill-rule:nonzero;"/>
                <path d="M719.102,53.965C719.102,53.965 718.756,53.976 718.289,53.989C716.005,61.466 709.051,66.903 700.827,66.903C697.541,66.903 694.457,66.032 691.793,64.513C692.814,64.964 693.891,65.321 695.005,65.569C691.881,64.589 689.13,62.765 687.015,60.366C686.693,60.529 686.37,60.695 686.047,60.866L685.191,61.32C688.811,65.633 694.241,68.378 700.312,68.378C709.493,68.378 717.208,62.107 719.411,53.616C719.307,53.53 719.205,53.436 719.105,53.335L719.102,53.965Z" style="fill:rgb(238,53,36);fill-rule:nonzero;"/>
                <path d="M718.524,43.049C718.5,43.094 718.475,43.139 718.449,43.181C718.536,43.306 718.605,43.432 718.659,43.55L718.665,43.565C718.833,43.958 718.948,44.341 719.011,44.727C719.243,44.672 719.461,44.621 719.622,44.583C719.617,44.555 719.609,44.527 719.603,44.498C719.116,43.876 718.759,43.413 718.524,43.049Z" style="fill:rgb(238,53,36);fill-rule:nonzero;"/>
                <path d="M682.017,42.827C682.535,42.823 683.018,42.92 683.461,43.115C683.581,42.746 683.715,42.383 683.858,42.028L683.762,42.007C683.647,41.976 683.486,41.919 683.397,41.759C683.341,41.659 683.329,41.541 683.361,41.427C683.359,41.437 683.356,41.447 683.355,41.454C683.407,41.214 683.501,40.905 683.604,40.583C683.195,40.636 682.862,40.697 682.496,40.765C682.496,40.765 682.427,40.778 682.369,40.788C682.288,41.151 682.232,41.486 682.185,41.785L682.172,41.867C682.173,41.865 682.173,41.863 682.173,41.861C682.171,41.866 682.17,41.87 682.17,41.875L682.172,41.867C682.153,41.985 682.096,42.086 682.005,42.155C681.876,42.248 681.732,42.246 681.645,42.235C681.572,42.45 681.502,42.666 681.435,42.885C681.619,42.851 681.808,42.831 682.005,42.827L682.017,42.827Z" style="fill:rgb(238,53,36);fill-rule:nonzero;"/>
                <path d="M678.666,63.499C677.97,64.008 677.296,64.52 676.602,65.075C676.602,65.242 676.602,65.409 676.602,65.58C677.388,64.949 678.136,64.375 678.915,63.806C678.915,55.813 678.915,50.701 678.915,44.04C678.831,44.04 678.748,44.043 678.666,44.045C678.666,50.555 678.666,55.631 678.666,63.499Z" style="fill:rgb(238,53,36);fill-rule:nonzero;"/>
                <path d="M682.605,48.745C682.605,48.862 682.605,48.979 682.605,49.095C683.334,48.964 684.03,48.837 684.753,48.702C684.753,48.493 684.753,48.291 684.753,48.081C684.75,46.808 684.681,45.954 684.546,45.426C684.43,45.003 684.234,44.653 683.942,44.347C684.1,44.577 684.216,44.83 684.298,45.118C684.432,45.647 684.501,46.503 684.501,47.776C684.501,47.985 684.501,48.186 684.501,48.398C683.862,48.517 683.244,48.629 682.605,48.745Z" style="fill:rgb(238,53,36);fill-rule:nonzero;"/>
                <path d="M681.451,53.842C681.753,54.136 681.99,54.378 682.17,54.581C681.987,54.331 681.672,53.994 681.201,53.536C680.91,53.248 680.671,52.994 680.482,52.774C680.693,53.053 681.011,53.411 681.451,53.842Z" style="fill:rgb(238,53,36);fill-rule:nonzero;"/>
                <path d="M682.252,46.541C682.269,46.54 682.281,46.543 682.298,46.544C682.289,46.507 682.281,46.474 682.274,46.448C682.218,46.293 682.131,46.223 682.003,46.235C681.864,46.253 681.765,46.368 681.69,46.602C681.62,46.836 681.586,47.165 681.585,47.621C681.585,48.204 681.624,48.616 681.701,48.895C681.763,49.114 681.905,49.343 682.141,49.589C682.048,49.455 681.986,49.326 681.951,49.202C681.873,48.922 681.835,48.51 681.834,47.926C681.835,47.47 681.869,47.142 681.94,46.908C682.015,46.676 682.112,46.559 682.252,46.541Z" style="fill:rgb(238,53,36);fill-rule:nonzero;"/>
                <path d="M683.851,51.338C684.046,51.591 684.194,51.83 684.293,52.06C684.56,52.701 684.689,53.738 684.692,55.362C684.69,56.538 684.616,57.423 684.469,58.082C684.316,58.738 684.039,59.358 683.61,60.031C683.178,60.696 682.699,61.21 682.124,61.585C681.497,61.987 680.986,62.073 680.538,61.801C680.462,61.751 680.392,61.692 680.326,61.629C680.453,61.83 680.606,61.988 680.787,62.105C681.235,62.378 681.747,62.294 682.375,61.891C682.948,61.517 683.428,61.001 683.86,60.336C684.29,59.664 684.567,59.043 684.719,58.389C684.865,57.729 684.94,56.844 684.942,55.668C684.938,54.043 684.808,53.005 684.543,52.365C684.404,52.047 684.176,51.711 683.851,51.338Z" style="fill:rgb(238,53,36);fill-rule:nonzero;"/>
                <path d="M681.622,55.139C681.622,55.731 681.622,56.319 681.622,56.942C681.623,57.639 681.653,58.067 681.713,58.245C681.761,58.377 681.832,58.434 681.932,58.422C681.893,58.201 681.872,57.814 681.872,57.247C681.872,56.486 681.871,55.777 681.871,55.05C681.788,55.08 681.704,55.109 681.622,55.139Z" style="fill:rgb(238,53,36);fill-rule:nonzero;"/>
                <path d="M687.74,43.756C687.74,47.517 687.74,51.16 687.74,55.094C687.825,55.065 687.905,55.034 687.991,55.005C687.991,51.111 687.991,47.491 687.991,43.742C687.905,43.746 687.824,43.751 687.74,43.756Z" style="fill:rgb(238,53,36);fill-rule:nonzero;"/>
                <path d="M685.677,59.566C686.939,58.899 688.141,58.321 689.394,57.774C689.394,56.801 689.394,55.871 689.394,54.902C689.309,54.932 689.228,54.959 689.145,54.989C689.145,55.817 689.145,56.628 689.145,57.468C687.973,57.979 686.848,58.518 685.677,59.131C685.677,59.276 685.677,59.42 685.677,59.566Z" style="fill:rgb(238,53,36);fill-rule:nonzero;"/>
                <path d="M692.525,47.721C692.489,47.131 692.455,46.516 692.419,45.868C692.418,45.853 692.416,45.838 692.416,45.823C692.414,45.838 692.414,45.852 692.411,45.868C692.184,48.393 692.043,50.308 691.973,51.541C692.065,51.516 692.156,51.49 692.245,51.466C692.304,50.529 692.395,49.273 692.525,47.721Z" style="fill:rgb(238,53,36);fill-rule:nonzero;"/>
                <path d="M693.205,56.289C694.008,56.011 694.774,55.766 695.572,55.527C695.123,51.536 694.694,46.924 694.249,43.179C694.178,43.188 694.108,43.196 694.037,43.204C694.469,46.887 694.886,51.345 695.322,55.219C694.601,55.435 693.904,55.658 693.184,55.904C693.191,56.033 693.198,56.161 693.205,56.289Z" style="fill:rgb(238,53,36);fill-rule:nonzero;"/>
                <path d="M689.747,57.213C689.737,57.356 689.725,57.496 689.714,57.637C690.528,57.291 691.305,56.981 692.113,56.68C692.156,55.861 692.197,55.072 692.24,54.242C692.446,54.176 692.648,54.115 692.851,54.054C692.844,53.929 692.837,53.804 692.831,53.677C692.546,53.762 692.274,53.845 691.99,53.936C691.946,54.766 691.905,55.557 691.862,56.375C691.149,56.641 690.459,56.915 689.747,57.213Z" style="fill:rgb(238,53,36);fill-rule:nonzero;"/>
                <path d="M698.955,46.521C698.601,45.085 698.257,43.782 697.901,42.634C697.851,42.643 697.801,42.652 697.754,42.659C698.156,44.002 698.547,45.535 698.955,47.244C698.955,47 698.955,46.759 698.955,46.521Z" style="fill:rgb(238,53,36);fill-rule:nonzero;"/>
                <path d="M697.652,48.798L697.652,54.58C697.083,54.725 696.534,54.872 695.967,55.034C695.967,55.159 695.967,55.287 695.967,55.412C696.622,55.221 697.249,55.051 697.901,54.888C697.901,53.33 697.901,51.672 697.901,49.974C697.823,49.601 697.744,49.225 697.663,48.849C697.659,48.832 697.655,48.815 697.652,48.798Z" style="fill:rgb(238,53,36);fill-rule:nonzero;"/>
                <path d="M700.889,42.04C700.889,45.097 700.889,50.003 700.889,53.854C700.258,53.979 699.652,54.108 699.022,54.252C699.049,54.366 699.077,54.483 699.103,54.596C699.793,54.437 700.452,54.295 701.139,54.161C701.139,50.151 701.139,45.002 701.139,41.985C701.054,42.002 700.971,42.022 700.889,42.04Z" style="fill:rgb(238,53,36);fill-rule:nonzero;"/>
                <path d="M704.834,42.735C704.832,42.726 704.832,42.713 704.828,42.705C704.803,42.566 704.747,42.484 704.653,42.443C704.559,42.407 704.394,42.424 704.136,42.501C704.136,44.914 704.136,48.105 704.136,51.092C704.229,51.075 704.311,51.051 704.384,51.021C704.384,48.146 704.384,45.12 704.384,42.806C704.59,42.747 704.736,42.725 704.834,42.735Z" style="fill:rgb(238,53,36);fill-rule:nonzero;"/>
                <path d="M702.071,53.983C703.062,53.803 704.006,53.652 704.99,53.514C705.553,53.436 705.953,53.342 706.232,53.224C706.511,53.098 706.736,52.923 706.924,52.67C707.112,52.416 707.237,52.091 707.317,51.656C707.39,51.218 707.429,50.386 707.43,49.057C707.43,47.319 707.43,45.633 707.43,44.064C707.429,42.788 707.403,42.104 707.352,41.763C707.298,41.421 707.174,41.176 706.968,40.991C706.96,40.984 706.951,40.979 706.944,40.972C707.02,41.109 707.073,41.266 707.103,41.457C707.154,41.798 707.18,42.48 707.181,43.758C707.181,45.326 707.181,47.013 707.181,48.75C707.18,50.08 707.141,50.912 707.067,51.351C706.991,51.785 706.863,52.11 706.675,52.364C706.485,52.617 706.263,52.793 705.983,52.916C705.705,53.036 705.304,53.128 704.74,53.208C703.84,53.333 702.97,53.474 702.071,53.632C702.071,53.751 702.071,53.869 702.071,53.983Z" style="fill:rgb(238,53,36);fill-rule:nonzero;"/>
                <path d="M710.365,49.645C710.449,49.633 710.53,49.62 710.615,49.607C710.615,48.568 710.615,47.537 710.615,46.489C711.106,46.367 711.577,46.253 712.066,46.13C712.066,45.078 712.066,44.09 712.066,43.12C711.982,43.148 711.901,43.174 711.818,43.203C711.818,44.049 711.818,44.911 711.818,45.824C711.328,45.946 710.855,46.062 710.365,46.182C710.365,47.347 710.365,48.487 710.365,49.645Z" style="fill:rgb(238,53,36);fill-rule:nonzero;"/>
                <path d="M708.303,53.123C709.665,52.987 710.965,52.885 712.321,52.804C712.32,51.813 712.32,50.79 712.32,49.694C712.236,49.706 712.155,49.717 712.071,49.73C712.071,50.697 712.071,51.611 712.071,52.5C710.8,52.577 709.574,52.669 708.303,52.792C708.303,52.902 708.303,53.012 708.303,53.123Z" style="fill:rgb(238,53,36);fill-rule:nonzero;"/>
                <path d="M712.167,40.417C712.167,39.559 712.169,38.842 712.169,38.253C712.085,38.292 712.003,38.328 711.918,38.366C711.918,38.868 711.918,39.446 711.918,40.112C711.396,40.324 710.893,40.521 710.365,40.722C710.365,41.505 710.365,42.347 710.365,43.285C710.447,43.258 710.53,43.231 710.615,43.205C710.615,42.42 710.615,41.699 710.615,41.027C711.141,40.829 711.644,40.63 712.167,40.417Z" style="fill:rgb(238,53,36);fill-rule:nonzero;"/>
                <path d="M717.896,41.76C718.065,41.19 718.151,40.197 718.154,38.874C718.15,37.423 718.032,36.647 717.789,36.272C717.725,36.177 717.657,36.104 717.586,36.046C717.798,36.447 717.9,37.213 717.904,38.568C717.903,39.889 717.815,40.883 717.646,41.454C717.467,42.017 717.14,42.42 716.628,42.691C716.811,42.727 716.969,42.782 717.102,42.859C717.486,42.596 717.743,42.236 717.896,41.76Z" style="fill:rgb(238,53,36);fill-rule:nonzero;"/>
                <path d="M715.047,41.747C715.144,41.711 715.224,41.672 715.297,41.627C715.297,40.548 715.297,39.574 715.297,38.684C715.477,38.601 715.61,38.567 715.713,38.575C715.689,38.448 715.651,38.364 715.604,38.318C715.5,38.23 715.322,38.251 715.047,38.378C715.047,39.384 715.047,40.497 715.047,41.747Z" style="fill:rgb(238,53,36);fill-rule:nonzero;"/>
                <path d="M715.047,44.449C715.047,47.161 715.047,49.907 715.047,52.352C714.351,52.378 713.68,52.41 712.984,52.446C712.984,52.552 712.984,52.66 712.984,52.765C713.767,52.721 714.517,52.688 715.297,52.657C715.297,50.212 715.297,47.466 715.297,44.754C715.45,44.713 715.573,44.706 715.668,44.73C715.659,44.692 715.651,44.66 715.644,44.632C715.563,44.419 715.374,44.362 715.047,44.449Z" style="fill:rgb(238,53,36);fill-rule:nonzero;"/>
                <path d="M718.153,47.63C718.152,46.021 718.132,45.078 718.094,44.731C718.052,44.386 717.96,44.04 717.8,43.67C717.729,43.509 717.628,43.38 717.504,43.274C717.52,43.304 717.536,43.333 717.551,43.363C717.71,43.732 717.803,44.08 717.845,44.426C717.883,44.772 717.903,45.713 717.903,47.325C717.903,49.07 717.903,50.707 717.903,52.263C717.263,52.279 716.643,52.296 716.006,52.317C716.006,52.42 716.006,52.527 716.006,52.63C716.734,52.607 717.429,52.585 718.153,52.566C718.153,51.013 718.153,49.374 718.153,47.63Z" style="fill:rgb(238,53,36);fill-rule:nonzero;"/>
                <path d="M721.344,38.356C721.252,38.22 721.188,38.09 721.156,37.956C721.079,37.66 721.04,37.214 721.038,36.601C721.04,36.123 721.074,35.783 721.145,35.519C721.218,35.255 721.319,35.091 721.458,35.006C721.48,34.991 721.501,34.983 721.522,34.977C721.51,34.887 721.496,34.819 721.479,34.775C721.423,34.644 721.337,34.621 721.208,34.699C721.068,34.786 720.969,34.949 720.897,35.212C720.824,35.475 720.791,35.816 720.79,36.295C720.791,36.906 720.829,37.354 720.907,37.65C720.967,37.881 721.11,38.108 721.344,38.356Z" style="fill:rgb(238,53,36);fill-rule:nonzero;"/>
                <path d="M723.958,35.702C723.956,34.008 723.888,33.054 723.752,32.561C723.673,32.296 723.557,32.112 723.399,31.995C723.437,32.072 723.474,32.156 723.502,32.255C723.639,32.746 723.706,33.702 723.709,35.396C723.709,35.677 723.709,35.947 723.709,36.237C723.067,36.577 722.449,36.897 721.808,37.219C721.808,37.359 721.808,37.505 721.808,37.65C722.539,37.287 723.233,36.93 723.958,36.543C723.958,36.253 723.958,35.982 723.958,35.702Z" style="fill:rgb(238,53,36);fill-rule:nonzero;"/>
                <path d="M720.826,45.134C720.826,45.897 720.826,46.64 720.826,47.406C720.828,48.219 720.859,48.703 720.92,48.929C720.971,49.112 721.049,49.208 721.167,49.228C721.107,49.002 721.077,48.517 721.075,47.711C721.075,46.825 721.075,45.966 721.075,45.074C720.993,45.093 720.91,45.115 720.826,45.134Z" style="fill:rgb(238,53,36);fill-rule:nonzero;"/>
                <path d="M723.748,41.824C723.532,41.088 723.106,40.295 722.447,39.532C722.964,40.2 723.31,40.881 723.498,41.519C723.763,42.477 723.894,44.113 723.899,46.46C723.897,48.158 723.822,49.316 723.675,50.086C723.522,50.846 723.244,51.435 722.815,51.919C722.381,52.392 721.903,52.6 721.33,52.604C720.713,52.604 720.209,52.377 719.765,51.909C719.836,52.007 719.911,52.102 719.993,52.193C720.441,52.677 720.952,52.911 721.58,52.913C722.155,52.906 722.633,52.699 723.066,52.226C723.497,51.743 723.772,51.153 723.924,50.393C724.071,49.626 724.146,48.466 724.149,46.768C724.143,44.418 724.013,42.784 723.748,41.824Z" style="fill:rgb(238,53,36);fill-rule:nonzero;"/>
            </g>
        </g>
        <g transform="matrix(118.78,0,0,118.78,0,0)">
            <g>
                <path d="M722.216,55.608L722.714,55.608L722.714,57.111L722.894,57.111L722.894,55.608L723.418,55.608L723.418,55.428L722.216,55.428L722.216,55.608Z" style="fill-rule:nonzero;"/>
                <path d="M724.381,56.798L723.948,55.428L723.659,55.428L723.659,57.111L723.839,57.111L723.839,55.681L724.291,57.111L724.471,57.111L724.921,55.681L724.921,57.111L725.102,57.111L725.102,55.428L724.813,55.428L724.381,56.798Z" style="fill-rule:nonzero;"/>
                <path d="M682.174,41.861C682.174,41.863 682.174,41.865 682.173,41.867L682.171,41.875C682.171,41.871 682.172,41.867 682.174,41.861Z" style="fill-rule:nonzero;"/>
                <path d="M723.738,53.286C724.299,52.658 724.664,51.888 724.856,50.938L724.859,50.925C725.02,50.073 725.098,48.857 725.101,47.097C725.094,44.591 724.955,42.929 724.662,41.862L724.657,41.845C724.326,40.72 723.654,39.636 722.706,38.684C723.242,38.413 724.91,37.535 724.91,37.535L724.91,36.034C724.908,34.237 724.836,33.21 724.664,32.598L724.66,32.58C724.38,31.629 723.69,31.083 722.769,31.08L722.753,31.08C721.921,31.089 721.153,31.579 720.577,32.003C719.924,32.491 719.393,33.008 718.947,33.592C718.497,34.193 718.186,34.775 717.978,35.414C717.521,35.117 716.962,35.05 716.367,35.234L716.351,35.239C716.282,35.261 716.208,35.289 716.13,35.321C712.335,30.821 706.656,27.961 700.309,27.961C693.086,27.961 686.729,31.663 683.029,37.275C683.022,37.272 683.016,37.268 683.008,37.266C682.928,37.239 682.742,37.184 682.594,37.175C682.233,37.146 682.109,37.366 682.075,37.464C682.028,37.59 681.941,37.9 681.787,38.442L681.389,39.821C681.389,39.821 681.344,39.968 681.303,40.101C681.246,40.11 681.179,40.12 681.179,40.12C680.999,40.14 680.666,40.178 680.628,40.492C680.622,40.541 680.607,40.791 680.907,40.903C680.947,40.921 680.996,40.927 681.043,40.936C680.979,41.145 680.923,41.343 680.885,41.519C680.666,42.113 680.474,42.722 680.312,43.341C680.157,43.445 680.007,43.564 679.868,43.697L679.868,43.256L675.357,43.32L675.355,68.205L677.143,66.767C677.9,66.158 678.643,65.59 679.415,65.026L679.867,64.697L679.867,63.235C679.926,63.281 679.986,63.325 680.049,63.364L680.065,63.374C680.625,63.716 681.556,63.956 682.819,63.149L682.829,63.144C683.372,62.788 683.855,62.328 684.298,61.745C688.092,66.378 693.856,69.335 700.31,69.335C709.839,69.335 717.863,62.89 720.263,54.124C720.626,54.267 721.016,54.34 721.43,54.342L721.442,54.342C722.336,54.333 723.105,53.982 723.729,53.297L723.738,53.286ZM676.754,44.105C677.118,44.099 678.144,44.084 678.518,44.081C678.518,44.617 678.518,63.16 678.518,63.429C677.93,63.859 677.349,64.302 676.754,64.771C676.754,63.707 676.754,44.619 676.754,44.105ZM678.915,63.806C678.136,64.375 677.388,64.949 676.602,65.58C676.602,65.409 676.602,65.242 676.602,65.075C677.296,64.521 677.97,64.009 678.666,63.499C678.666,55.631 678.666,50.556 678.666,44.045C678.748,44.043 678.831,44.04 678.915,44.04C678.915,50.7 678.915,55.813 678.915,63.806ZM723.752,32.561C723.888,33.054 723.956,34.008 723.958,35.702C723.958,35.982 723.958,36.253 723.958,36.544C723.232,36.931 722.539,37.288 721.808,37.651C721.808,37.506 721.808,37.36 721.808,37.22C722.45,36.898 723.068,36.577 723.709,36.238C723.709,35.948 723.709,35.677 723.709,35.397C723.706,33.703 723.639,32.747 723.502,32.256C723.475,32.157 723.438,32.072 723.399,31.996C723.557,32.112 723.673,32.295 723.752,32.561ZM719.267,35.4C719.428,34.852 719.675,34.375 720.065,33.855C720.441,33.365 720.872,32.945 721.416,32.54C722.017,32.097 722.454,31.89 722.792,31.885C723.043,31.886 723.239,31.975 723.365,32.401C723.495,32.869 723.557,33.845 723.56,35.465C723.56,35.465 723.56,35.924 723.56,36.14C723.017,36.428 722.488,36.7 721.961,36.966C721.961,36.545 721.961,35.987 721.961,35.987C721.961,35.117 721.912,34.876 721.859,34.744C721.784,34.565 721.67,34.494 721.587,34.468C721.463,34.426 721.33,34.449 721.191,34.532C720.987,34.66 720.85,34.872 720.758,35.207C720.678,35.5 720.641,35.866 720.639,36.362C720.641,37.006 720.683,37.471 720.767,37.79C720.856,38.133 721.081,38.456 721.496,38.834C722.664,39.906 723.154,40.963 723.359,41.662C723.616,42.592 723.743,44.185 723.749,46.529C723.748,48.173 723.676,49.341 723.532,50.102C723.387,50.814 723.135,51.356 722.735,51.803C722.365,52.209 721.968,52.392 721.452,52.399C720.908,52.396 720.468,52.196 720.07,51.768C719.664,51.32 719.411,50.77 719.278,50.04C719.144,49.264 719.08,48.192 719.079,46.668C719.079,46.668 719.079,45.864 719.079,45.562C719.364,45.493 720.253,45.283 720.676,45.184C720.676,45.708 720.676,47.472 720.676,47.472C720.678,48.304 720.71,48.811 720.778,49.067C720.913,49.544 721.221,49.59 721.391,49.574C721.813,49.529 721.938,49.056 721.978,48.9C722.06,48.567 722.099,48.124 722.101,47.503C722.099,46.167 722.024,45.313 721.872,44.892C721.695,44.45 721.308,43.845 720.748,43.137C720.189,42.422 719.81,41.931 719.626,41.618C719.457,41.326 719.316,40.896 719.194,40.312C719.078,39.729 719.018,39.001 719.016,38.087C719.018,36.832 719.095,36.004 719.267,35.4ZM721.155,37.956C721.187,38.09 721.252,38.22 721.343,38.356C721.11,38.108 720.966,37.881 720.905,37.65C720.827,37.354 720.789,36.906 720.788,36.295C720.789,35.816 720.822,35.475 720.895,35.212C720.966,34.949 721.066,34.786 721.206,34.699C721.336,34.621 721.422,34.644 721.477,34.775C721.494,34.818 721.508,34.886 721.52,34.977C721.499,34.983 721.478,34.991 721.456,35.006C721.317,35.091 721.217,35.255 721.143,35.519C721.072,35.783 721.038,36.123 721.036,36.601C721.039,37.214 721.078,37.66 721.155,37.956ZM721.167,49.228C721.049,49.208 720.971,49.112 720.92,48.929C720.859,48.703 720.828,48.219 720.826,47.406C720.826,46.64 720.826,45.897 720.826,45.134C720.91,45.115 720.993,45.093 721.075,45.074C721.075,45.966 721.075,46.824 721.075,47.711C721.077,48.517 721.107,49.002 721.167,49.228ZM718.524,43.049C718.758,43.412 719.116,43.876 719.603,44.498C719.609,44.527 719.617,44.555 719.622,44.583C719.461,44.621 719.243,44.672 719.011,44.727C718.948,44.341 718.833,43.957 718.665,43.565L718.659,43.55C718.605,43.432 718.536,43.306 718.449,43.181C718.476,43.139 718.5,43.095 718.524,43.049ZM717.788,36.272C718.031,36.647 718.149,37.423 718.153,38.874C718.15,40.196 718.064,41.189 717.895,41.76C717.743,42.236 717.486,42.596 717.101,42.86C716.968,42.782 716.81,42.727 716.627,42.692C717.139,42.421 717.466,42.018 717.645,41.455C717.814,40.884 717.902,39.891 717.903,38.569C717.899,37.214 717.797,36.448 717.585,36.047C717.656,36.104 717.724,36.178 717.788,36.272ZM700.311,65.814C695.245,65.814 690.685,63.606 687.54,60.106C688.247,59.759 688.958,59.43 689.686,59.113L690,58.978C690.788,58.643 691.556,58.335 692.35,58.041C692.35,58.041 692.599,57.948 692.8,57.873C693.109,57.768 693.421,57.658 693.421,57.658C694.189,57.391 694.948,57.146 695.742,56.91L696.13,56.796C696.768,56.611 697.388,56.442 698.028,56.28C698.028,56.28 698.372,56.193 698.615,56.133C698.906,56.066 699.204,55.997 699.204,55.997C699.881,55.842 700.535,55.702 701.207,55.57L701.625,55.486L702.123,55.396C703.092,55.22 704.03,55.07 704.997,54.934C705.685,54.837 706.156,54.723 706.528,54.559C706.72,54.475 706.894,54.373 707.056,54.255L707.056,54.666L708.264,54.544C709.544,54.418 710.807,54.317 712.241,54.231L712.899,54.193C713.61,54.151 714.339,54.118 715.194,54.085C715.194,54.085 715.226,54.085 715.277,54.082C713.275,60.148 708.02,64.732 701.576,65.769C701.157,65.798 700.735,65.814 700.311,65.814ZM682.605,49.095C682.605,48.979 682.605,48.862 682.605,48.745C683.244,48.629 683.862,48.516 684.501,48.398C684.501,48.187 684.501,47.986 684.501,47.776C684.501,46.503 684.432,45.647 684.298,45.118C684.216,44.831 684.1,44.577 683.942,44.347C684.235,44.652 684.43,45.002 684.546,45.426C684.681,45.953 684.75,46.808 684.753,48.081C684.753,48.29 684.753,48.493 684.753,48.702C684.03,48.837 683.334,48.964 682.605,49.095ZM684.431,50.183L684.431,50.83C684.275,50.656 684.098,50.473 683.902,50.279C684.026,50.257 684.242,50.218 684.431,50.183ZM684.431,43.136L684.431,43.759C684.378,43.709 684.324,43.661 684.265,43.612L684.256,43.604C684.161,43.527 684.065,43.458 683.966,43.391C684.118,42.922 684.288,42.461 684.478,42.008C684.485,42.004 684.491,42 684.497,41.996C684.594,41.925 684.653,41.82 684.666,41.697C684.665,41.702 684.665,41.71 684.664,41.716C684.673,41.65 684.685,41.584 684.695,41.516C684.723,41.454 684.754,41.393 684.781,41.333C684.785,41.34 684.788,41.35 684.79,41.357C684.954,41.826 685.509,41.89 685.692,41.911C685.956,41.947 686.095,41.888 686.256,41.763C686.259,41.759 686.262,41.759 686.267,41.755C686.288,41.737 686.31,41.714 686.331,41.693C686.389,41.737 686.464,41.776 686.564,41.802L686.816,41.866C686.813,41.866 686.81,41.863 686.807,41.861C686.962,41.919 687.123,41.905 687.252,41.83C687.362,41.762 687.437,41.65 687.454,41.524C687.454,41.52 687.454,41.515 687.454,41.511C687.464,41.426 687.475,41.337 687.491,41.248C687.499,41.267 687.507,41.287 687.516,41.306C687.596,41.479 687.774,41.692 688.17,41.767C688.533,41.839 688.752,41.708 688.935,41.558C689.048,41.469 689.153,41.374 689.254,41.274C689.375,41.443 689.564,41.572 689.817,41.638C690.145,41.729 690.457,41.686 690.767,41.507C691.109,41.31 691.404,41.03 691.65,40.727C691.664,40.804 691.684,40.872 691.708,40.933C691.872,41.402 692.429,41.466 692.61,41.487C692.876,41.522 693.012,41.461 693.175,41.339C693.181,41.334 693.207,41.312 693.25,41.272C693.308,41.314 693.381,41.352 693.483,41.38L693.746,41.444C693.735,41.442 693.736,41.442 693.725,41.438C693.88,41.494 694.045,41.482 694.172,41.404C694.283,41.337 694.358,41.227 694.372,41.099C694.374,41.091 694.374,41.083 694.376,41.076C694.377,41.078 694.379,41.082 694.381,41.084C694.484,41.249 694.663,41.29 694.772,41.309L695.037,41.376C695.21,41.419 695.356,41.399 695.474,41.317C695.547,41.264 695.601,41.191 695.63,41.105C695.731,41.195 695.856,41.223 695.94,41.237L696.205,41.305C696.378,41.347 696.524,41.328 696.641,41.245C696.743,41.172 696.806,41.065 696.819,40.938C696.819,40.933 696.821,40.925 696.821,40.921C696.825,40.827 696.835,40.727 696.849,40.617C697.013,41.085 697.567,41.149 697.75,41.171C698.015,41.204 698.152,41.145 698.314,41.022C698.316,41.02 698.32,41.017 698.324,41.015C698.346,40.996 698.368,40.975 698.39,40.954C698.448,40.998 698.522,41.035 698.624,41.063L698.886,41.129C698.882,41.128 698.882,41.128 698.88,41.128C699.03,41.177 699.189,41.164 699.311,41.087C699.42,41.02 699.496,40.909 699.512,40.784C699.513,40.776 699.517,40.746 699.524,40.694C699.567,40.802 699.656,40.908 699.844,40.976C699.856,40.981 699.85,40.978 699.862,40.983C699.862,40.983 700.103,41.044 700.123,41.048C700.483,41.133 700.69,40.944 700.759,40.754C700.793,40.66 700.852,40.544 700.928,40.418C700.945,40.478 700.968,40.536 700.998,40.588C701.104,40.79 701.233,40.889 701.469,40.942L701.766,41.002C701.732,41.011 701.698,41.019 701.663,41.028L701.308,41.114L700.748,41.241C700.099,41.389 699.477,41.521 698.848,41.643C698.848,41.643 698.381,41.734 698.148,41.779C697.871,41.827 697.567,41.88 697.567,41.88C696.895,41.998 696.289,42.095 695.663,42.187L694.823,42.312L693.969,42.418C692.886,42.552 691.832,42.662 690.652,42.765L689.736,42.846C689.736,42.846 689.175,49.216 688.945,52.046C688.945,48.557 688.945,42.906 688.945,42.906L687.78,42.975C687.045,43.018 686.314,43.056 685.484,43.092L684.431,43.136ZM700.311,31.478C700.736,31.478 701.158,31.495 701.574,31.524C705.723,32.19 709.381,34.328 711.992,37.386L711.95,37.407L711.561,37.585C710.315,38.162 709.077,38.678 707.774,39.161L707.056,39.428L707.056,40.187C706.714,40.038 706.315,39.98 705.847,40.013L705.834,40.013C705.348,40.054 704.621,40.236 703.364,40.582C703.023,40.677 702.685,40.766 702.343,40.855C702.343,40.853 702.343,40.852 702.345,40.85C702.38,40.797 702.482,40.604 702.317,40.371C702.311,40.361 702.301,40.346 702.294,40.342C702.207,40.224 702.222,39.538 703.024,38.461C703.027,38.459 703.031,38.456 703.031,38.453C703.149,38.286 703.133,38.142 703.098,38.05C703.064,37.957 702.98,37.835 702.771,37.784C702.771,37.784 702.428,37.684 702.438,37.69C702.117,37.575 701.891,37.725 701.799,37.889C701.747,37.975 701.662,38.091 701.557,38.22C701.552,38.206 701.552,38.192 701.546,38.178C701.477,37.991 701.298,37.931 701.222,37.906C701.222,37.906 700.955,37.836 700.943,37.835C700.515,37.74 700.354,37.981 700.306,38.09C700.24,38.236 700.172,38.397 700.103,38.566C700.09,38.528 700.072,38.49 700.045,38.457C699.992,38.384 699.889,38.311 699.722,38.298C699.696,38.247 699.658,38.2 699.606,38.153C699.396,37.956 699.004,37.859 698.588,37.9C698.296,37.922 697.8,38.15 697.373,38.654C697.374,38.652 697.374,38.65 697.376,38.646C697.407,38.531 697.398,38.406 697.331,38.299C697.445,38.202 697.523,38.059 697.555,37.887C697.599,37.683 697.575,37.508 697.484,37.366C697.41,37.253 697.291,37.175 697.15,37.145C697.147,37.144 697.141,37.143 697.136,37.143C696.824,37.091 696.536,37.335 696.42,37.591C696.415,37.605 696.406,37.623 696.396,37.645C696.383,37.57 696.356,37.502 696.318,37.44C696.242,37.325 696.125,37.246 695.983,37.216C695.978,37.216 695.974,37.214 695.968,37.214C695.657,37.165 695.369,37.407 695.253,37.663C695.221,37.729 695.132,37.921 695.207,38.132C695.058,38.199 694.998,38.331 694.978,38.401C694.976,38.404 694.929,38.583 694.886,38.747C694.827,38.684 694.731,38.624 694.585,38.614C694.555,38.564 694.519,38.516 694.465,38.468C694.256,38.272 693.863,38.175 693.45,38.215C693.198,38.236 692.794,38.406 692.415,38.778C692.381,38.703 692.327,38.627 692.242,38.556C692.238,38.552 692.235,38.55 692.232,38.55C691.95,38.326 691.718,38.393 691.631,38.431C691.481,38.498 691.38,38.647 691.372,38.817C691.347,39.516 690.914,40.297 690.523,40.591C690.482,40.625 690.452,40.644 690.427,40.658C690.414,40.412 690.724,39.749 690.832,39.518L691.011,39.123C691.014,39.115 691.011,39.121 691.014,39.112C691.072,38.955 691.066,38.815 690.996,38.694C690.9,38.527 690.732,38.489 690.659,38.476C690.659,38.476 690.349,38.409 690.335,38.406C690.016,38.357 689.833,38.53 689.772,38.692C689.547,39.321 689.165,40.054 688.743,40.502C688.809,40.283 688.936,40.028 689.041,39.818C689.142,39.617 689.237,39.428 689.306,39.242C689.357,39.101 689.356,38.968 689.301,38.852C689.214,38.678 689.04,38.624 688.982,38.606L688.714,38.54C688.451,38.471 688.206,38.568 688.095,38.788C688.082,38.81 687.933,39.141 687.933,39.141C687.872,39.091 687.787,39.047 687.663,39.038C687.634,38.988 687.597,38.939 687.543,38.892C687.335,38.698 686.942,38.598 686.528,38.638C686.472,38.643 686.408,38.655 686.341,38.675C689.461,34.32 694.561,31.478 700.311,31.478ZM712.984,52.446C713.679,52.409 714.35,52.378 715.047,52.352C715.047,49.907 715.047,47.161 715.047,44.449C715.374,44.362 715.563,44.419 715.644,44.633C715.652,44.661 715.66,44.693 715.668,44.731C715.573,44.707 715.45,44.714 715.297,44.755C715.297,47.467 715.297,50.213 715.297,52.658C714.518,52.689 713.768,52.722 712.984,52.766C712.984,52.661 712.984,52.552 712.984,52.446ZM710.615,46.489C710.615,47.537 710.615,48.568 710.615,49.607C710.53,49.62 710.449,49.632 710.365,49.645C710.365,48.487 710.365,47.348 710.365,46.182C710.855,46.062 711.328,45.946 711.818,45.824C711.818,44.911 711.818,44.049 711.818,43.203C711.901,43.174 711.982,43.148 712.066,43.12C712.066,44.09 712.066,45.078 712.066,46.13C711.577,46.252 711.106,46.367 710.615,46.489ZM711.738,47.637L711.738,48.977C711.656,48.989 711.593,48.998 711.568,49.002C711.568,48.386 711.568,48.173 711.568,47.679C711.594,47.673 711.654,47.658 711.738,47.637ZM711.738,42.351C711.635,42.386 711.568,42.407 711.568,42.407C711.568,42.264 711.568,42.236 711.568,42.111C711.625,42.088 711.681,42.066 711.738,42.044L711.738,42.351ZM710.615,41.029C710.615,41.701 710.615,42.422 710.615,43.207C710.53,43.232 710.447,43.26 710.365,43.287C710.365,42.349 710.365,41.507 710.365,40.724C710.892,40.523 711.395,40.326 711.918,40.114C711.918,39.447 711.918,38.87 711.918,38.368C712.003,38.33 712.085,38.294 712.169,38.255C712.169,38.844 712.167,39.56 712.167,40.419C711.644,40.63 711.141,40.829 710.615,41.029ZM711.769,39.993C711.498,40.1 710.218,40.601 710.218,40.601L710.216,40.789L710.216,43.732C710.216,43.732 711.26,43.393 711.669,43.259C711.669,43.791 711.669,45.354 711.669,45.676C711.375,45.75 710.216,46.035 710.216,46.035L710.216,50.034C710.216,50.034 711.503,49.839 711.922,49.775C711.922,50.242 711.922,51.923 711.922,52.309C710.725,52.383 709.583,52.474 708.453,52.582C708.453,52.015 708.453,40.173 708.453,39.815C709.583,39.391 710.674,38.938 711.771,38.442C711.771,38.667 711.769,39.72 711.769,39.993ZM712.07,52.499C712.07,51.611 712.07,50.696 712.07,49.729C712.154,49.716 712.235,49.705 712.319,49.693C712.319,50.789 712.319,51.812 712.32,52.803C710.965,52.885 709.665,52.987 708.302,53.122C708.302,53.012 708.302,52.902 708.302,52.791C709.573,52.668 710.799,52.576 712.07,52.499ZM701.535,39.022C701.147,39.41 700.567,40.184 700.401,40.629C700.37,40.719 700.273,40.722 700.174,40.699C700.078,40.679 700.041,40.672 699.942,40.639C699.841,40.605 699.805,40.571 699.826,40.479C699.958,39.893 700.295,38.911 700.605,38.231C700.645,38.137 700.755,38.155 700.841,38.174C700.914,38.195 700.963,38.197 701.086,38.237C701.212,38.279 701.212,38.303 701.169,38.377C701.014,38.606 700.647,39.331 700.573,39.712C700.563,39.765 700.613,39.763 700.646,39.718C700.962,39.384 701.838,38.475 702.078,38.06C702.123,37.985 702.206,37.986 702.294,38.017C702.392,38.047 702.577,38.096 702.663,38.121C702.761,38.145 702.763,38.183 702.719,38.246C701.847,39.407 701.757,40.286 702.003,40.569C702.056,40.644 702.034,40.694 701.911,40.672C701.778,40.651 701.657,40.626 701.521,40.592C701.375,40.56 701.333,40.519 701.28,40.413C701.132,40.156 701.298,39.528 701.594,39.031C701.605,39.001 701.568,38.99 701.535,39.022ZM702.223,41.741C702.725,41.616 703.217,41.487 703.752,41.338C704.875,41.029 705.596,40.844 705.969,40.814C706.399,40.784 706.572,40.883 706.664,40.96C706.823,41.104 706.914,41.291 706.958,41.568C707.008,41.899 707.032,42.619 707.032,43.827L707.032,48.819C707.032,50.084 706.994,50.942 706.923,51.372C706.854,51.761 706.744,52.047 706.58,52.27C706.42,52.479 706.234,52.629 705.998,52.731C705.753,52.839 705.38,52.926 704.827,53.004C703.927,53.129 703.072,53.266 702.223,53.416C702.223,52.809 702.223,42.145 702.223,41.741ZM702.071,53.633C702.97,53.475 703.84,53.335 704.74,53.209C705.304,53.129 705.705,53.037 705.983,52.917C706.263,52.793 706.485,52.618 706.675,52.365C706.863,52.112 706.99,51.786 707.067,51.352C707.141,50.914 707.18,50.081 707.181,48.751C707.181,47.014 707.181,45.327 707.181,43.759C707.18,42.481 707.154,41.8 707.103,41.458C707.073,41.268 707.02,41.11 706.944,40.973C706.952,40.979 706.961,40.984 706.968,40.992C707.174,41.177 707.298,41.423 707.352,41.764C707.403,42.105 707.429,42.788 707.43,44.065C707.43,45.633 707.43,47.32 707.43,49.058C707.429,50.387 707.39,51.219 707.317,51.657C707.238,52.092 707.113,52.416 706.924,52.671C706.736,52.923 706.511,53.099 706.232,53.225C705.953,53.343 705.552,53.437 704.99,53.515C704.006,53.653 703.062,53.804 702.071,53.984C702.071,53.869 702.071,53.751 702.071,53.633ZM698.812,39.753C698.584,40.154 698.284,40.568 698.077,40.738C697.972,40.818 697.927,40.837 697.767,40.818C697.463,40.782 697.231,40.698 697.155,40.49C697.082,40.296 697.012,39.923 697.259,39.437C697.666,38.6 698.322,38.268 698.601,38.244C698.924,38.213 699.219,38.292 699.347,38.411C699.41,38.468 699.427,38.52 699.381,38.577C699.327,38.66 699.266,38.652 699.236,38.586C699.195,38.499 699.115,38.376 698.911,38.395C698.717,38.406 698.138,38.787 697.828,39.462C697.56,40.024 697.648,40.448 697.821,40.534C697.884,40.567 697.932,40.557 698.048,40.452C698.388,40.117 698.854,39.429 699.117,38.819C699.138,38.762 699.172,38.712 699.291,38.693C699.399,38.673 699.459,38.666 699.615,38.644C699.71,38.632 699.77,38.65 699.74,38.727C699.387,39.492 699.2,40.135 699.138,40.732C699.13,40.794 699.045,40.817 698.959,40.785C698.873,40.76 698.801,40.747 698.691,40.718C698.579,40.687 698.553,40.671 698.576,40.597C698.646,40.381 698.722,40.048 698.849,39.757C698.871,39.72 698.835,39.71 698.812,39.753ZM695.752,38.5C695.826,38.518 695.864,38.547 695.845,38.622C695.721,38.98 695.574,39.341 695.507,39.623C695.361,40.189 695.293,40.65 695.276,40.972C695.269,41.045 695.199,41.055 695.098,41.031C695.013,41.006 694.941,40.992 694.829,40.962C694.705,40.94 694.633,40.915 694.652,40.84C694.744,40.39 694.809,40.242 694.989,39.637C695.079,39.334 695.175,38.917 695.293,38.496C695.314,38.429 695.373,38.432 695.445,38.44C695.52,38.453 695.679,38.473 695.752,38.5ZM695.554,37.802C695.606,37.684 695.754,37.535 695.889,37.557C696.024,37.585 696.056,37.712 696.017,37.889C695.982,38.085 695.857,38.208 695.644,38.124C695.458,38.045 695.5,37.916 695.554,37.802ZM695.819,40.769C695.912,40.32 695.976,40.17 696.156,39.566C696.246,39.262 696.341,38.845 696.459,38.424C696.48,38.358 696.541,38.361 696.614,38.367C696.686,38.381 696.846,38.402 696.918,38.428C696.993,38.447 697.03,38.475 697.012,38.55C696.888,38.908 696.742,39.269 696.674,39.551C696.528,40.118 696.459,40.577 696.444,40.899C696.435,40.972 696.363,40.983 696.266,40.959C696.18,40.934 696.107,40.921 695.996,40.889C695.874,40.867 695.799,40.842 695.819,40.769ZM696.813,38.052C696.625,37.974 696.667,37.844 696.721,37.73C696.774,37.613 696.922,37.465 697.053,37.487C697.19,37.516 697.222,37.641 697.184,37.818C697.148,38.013 697.021,38.136 696.813,38.052ZM698.704,38.923C698.515,39.297 698.274,39.667 698.06,39.937C698.08,39.847 698.113,39.739 698.171,39.619C698.319,39.292 698.532,39.065 698.704,38.923ZM693.674,40.07C693.447,40.471 693.146,40.884 692.941,41.054C692.835,41.132 692.787,41.153 692.63,41.133C692.324,41.098 692.091,41.016 692.017,40.807C691.946,40.611 691.873,40.242 692.121,39.752C692.529,38.916 693.184,38.584 693.462,38.562C693.786,38.529 694.081,38.608 694.209,38.728C694.272,38.784 694.287,38.838 694.243,38.895C694.187,38.976 694.125,38.97 694.097,38.904C694.056,38.815 693.977,38.693 693.772,38.711C693.58,38.723 693.001,39.105 692.69,39.779C692.421,40.341 692.509,40.765 692.682,40.85C692.745,40.884 692.793,40.875 692.908,40.771C693.251,40.435 693.715,39.746 693.979,39.135C694,39.08 694.034,39.029 694.153,39.01C694.261,38.992 694.32,38.983 694.475,38.96C694.573,38.949 694.633,38.969 694.601,39.043C694.25,39.811 694.06,40.453 693.999,41.049C693.993,41.11 693.907,41.134 693.821,41.104C693.736,41.079 693.661,41.066 693.552,41.036C693.441,41.007 693.415,40.99 693.434,40.916C693.507,40.699 693.581,40.367 693.709,40.074C693.733,40.037 693.696,40.025 693.674,40.07ZM689.39,40.539C689.167,40.844 688.966,41.067 688.688,41.286C688.561,41.39 688.446,41.464 688.212,41.417C687.993,41.375 687.864,41.281 687.81,41.143C687.508,40.562 688.155,39.513 688.388,38.945C688.419,38.882 688.491,38.849 688.602,38.878C688.711,38.907 688.759,38.917 688.858,38.941C688.958,38.971 688.996,39.004 688.954,39.116C688.736,39.704 688.134,40.513 688.383,41.024C688.426,41.119 688.521,41.125 688.626,41.051C689.23,40.644 689.784,39.653 690.081,38.811C690.103,38.755 690.175,38.738 690.26,38.75C690.347,38.769 690.48,38.8 690.567,38.817C690.64,38.831 690.713,38.843 690.664,38.987C690.452,39.508 689.775,40.653 690.193,40.974C690.343,41.078 690.499,41.038 690.715,40.867C691.213,40.491 691.677,39.59 691.703,38.831C691.709,38.728 691.828,38.69 691.993,38.818C692.119,38.927 692.101,39.024 692.042,39.222C691.893,39.764 691.35,40.749 690.567,41.198C690.368,41.313 690.156,41.368 689.886,41.294C689.441,41.175 689.375,40.865 689.464,40.532C689.46,40.491 689.424,40.501 689.39,40.539ZM693.565,39.239C693.377,39.612 693.134,39.982 692.92,40.252C692.941,40.161 692.974,40.055 693.032,39.931C693.183,39.608 693.395,39.382 693.565,39.239ZM686.541,38.987C686.863,38.955 687.161,39.033 687.289,39.152C687.351,39.21 687.369,39.262 687.322,39.32C687.266,39.403 687.208,39.394 687.178,39.328C687.136,39.241 687.056,39.12 686.851,39.137C686.659,39.15 686.079,39.529 685.771,40.204C685.502,40.766 685.588,41.189 685.763,41.278C685.825,41.309 685.872,41.301 685.989,41.196C686.33,40.86 686.796,40.172 687.058,39.562C687.08,39.504 687.113,39.456 687.233,39.435C687.34,39.417 687.4,39.407 687.556,39.387C687.651,39.376 687.712,39.395 687.681,39.469C687.329,40.237 687.14,40.878 687.078,41.476C687.072,41.537 686.988,41.561 686.901,41.529C686.815,41.504 686.742,41.492 686.631,41.461C686.521,41.431 686.495,41.415 686.515,41.341C686.586,41.124 686.662,40.791 686.79,40.501C686.811,40.462 686.775,40.452 686.753,40.497C686.523,40.899 686.225,41.311 686.017,41.481C685.912,41.559 685.866,41.583 685.706,41.561C685.402,41.524 685.168,41.442 685.095,41.234C685.023,41.039 684.951,40.668 685.199,40.18C685.608,39.34 686.264,39.009 686.541,38.987ZM686.646,39.665C686.457,40.037 686.216,40.408 686.001,40.677C686.02,40.588 686.054,40.482 686.114,40.359C686.262,40.032 686.474,39.805 686.646,39.665ZM701.139,54.162C700.451,54.295 699.793,54.437 699.103,54.597C699.077,54.484 699.049,54.368 699.022,54.253C699.652,54.109 700.258,53.98 700.889,53.855C700.889,50.003 700.889,45.097 700.889,42.041C700.971,42.023 701.054,42.003 701.139,41.987C701.139,45.003 701.139,50.152 701.139,54.162ZM697.901,49.973C697.901,51.67 697.901,53.328 697.901,54.887C697.25,55.051 696.623,55.22 695.967,55.411C695.967,55.286 695.967,55.158 695.967,55.033C696.533,54.871 697.082,54.724 697.652,54.579C697.652,52.772 697.652,50.832 697.652,48.849L697.504,48.863C697.504,48.863 697.504,54.043 697.504,54.435C697.049,54.552 696.588,54.676 696.119,54.808C696.119,54.14 696.119,43.384 696.119,42.943C696.595,42.871 697.072,42.794 697.585,42.706C697.952,43.92 698.334,45.372 698.813,47.374L699.354,47.311C699.354,47.311 699.355,42.739 699.355,42.378C699.825,42.285 700.284,42.188 700.739,42.086C700.739,42.72 700.739,53.278 700.739,53.696C700.223,53.8 699.709,53.911 699.186,54.029C698.876,52.708 698.048,48.806 698.048,48.806L697.663,48.848C697.744,49.225 697.823,49.6 697.901,49.973ZM697.754,42.659C697.802,42.652 697.852,42.643 697.901,42.634C698.256,43.782 698.601,45.085 698.955,46.521C698.955,46.759 698.955,47 698.955,47.244C698.547,45.535 698.156,44.001 697.754,42.659ZM691.852,53.797L691.723,56.249C691.115,56.478 690.512,56.719 689.901,56.974C690.282,52.231 690.642,47.741 691.024,43.546C692.008,43.458 692.95,43.359 693.882,43.245C694.121,45.27 694.36,47.567 694.589,49.793C694.772,51.566 694.96,53.392 695.151,55.092C694.536,55.28 693.935,55.471 693.338,55.675C693.31,55.163 693.212,53.379 693.212,53.379L691.852,53.797ZM692.852,54.054C692.649,54.115 692.447,54.176 692.241,54.242C692.198,55.073 692.157,55.862 692.114,56.68C691.305,56.981 690.529,57.29 689.715,57.637C689.726,57.495 689.738,57.356 689.748,57.213C690.46,56.915 691.15,56.641 691.864,56.376C691.907,55.557 691.948,54.766 691.992,53.937C692.276,53.846 692.548,53.763 692.833,53.678C692.838,53.804 692.845,53.929 692.852,54.054ZM695.322,55.22C694.885,51.345 694.468,46.888 694.037,43.205C694.108,43.197 694.178,43.188 694.249,43.18C694.694,46.925 695.123,51.537 695.572,55.528C694.774,55.766 694.008,56.012 693.205,56.29C693.198,56.163 693.191,56.035 693.184,55.906C693.904,55.659 694.602,55.436 695.322,55.22ZM688.994,55.054C688.994,55.595 688.994,57.09 688.994,57.36C687.91,57.835 686.869,58.335 685.829,58.876C685.829,58.039 685.829,44.376 685.829,43.884C686.429,43.858 687.011,43.828 687.591,43.795C687.591,44.347 687.591,55.553 687.591,55.553C687.591,55.553 688.595,55.196 688.994,55.054ZM687.74,55.095C687.74,51.161 687.74,47.518 687.74,43.757C687.824,43.752 687.905,43.746 687.991,43.743C687.991,47.492 687.991,51.112 687.991,55.006C687.905,55.035 687.825,55.066 687.74,55.095ZM685.677,59.132C686.848,58.519 687.973,57.981 689.145,57.469C689.145,56.629 689.145,55.818 689.145,54.99C689.228,54.96 689.309,54.933 689.394,54.903C689.394,55.872 689.394,56.801 689.394,57.775C688.141,58.321 686.939,58.899 685.677,59.567C685.677,59.42 685.677,59.276 685.677,59.132ZM717.846,44.426C717.804,44.081 717.711,43.733 717.552,43.363C717.537,43.333 717.521,43.304 717.505,43.274C717.629,43.379 717.73,43.509 717.801,43.67C717.961,44.04 718.053,44.386 718.095,44.731C718.133,45.078 718.153,46.021 718.154,47.63C718.154,49.374 718.154,51.013 718.154,52.567C717.429,52.586 716.734,52.608 716.007,52.631C716.007,52.527 716.007,52.421 716.007,52.318C716.645,52.297 717.265,52.279 717.904,52.264C717.904,50.708 717.904,49.071 717.904,47.326C717.903,45.713 717.884,44.772 717.846,44.426ZM716.803,35.975C717.102,35.884 717.268,35.939 717.437,36.187C717.65,36.516 717.751,37.294 717.754,38.636C717.753,39.931 717.666,40.904 717.508,41.444C717.35,41.94 717.07,42.282 716.624,42.516L715.929,42.882L716.7,43.029C717.074,43.1 717.298,43.259 717.426,43.544C717.57,43.877 717.66,44.199 717.698,44.526C717.723,44.769 717.754,45.465 717.754,47.392C717.754,47.392 717.754,51.585 717.754,52.062C717.407,52.073 716.525,52.098 716.157,52.109C716.157,51.653 716.156,46.502 716.156,46.502C716.155,45.148 716.082,44.775 716.027,44.614C715.949,44.4 715.728,44.082 715.101,44.252L714.897,44.306C714.897,44.306 714.897,51.663 714.897,52.156C714.309,52.179 713.724,52.207 713.134,52.239C713.134,51.689 713.134,38.128 713.134,37.801C713.648,37.55 714.142,37.301 714.625,37.045C715.631,36.518 716.422,36.101 716.803,35.975ZM700.311,28.917C706.271,28.917 711.616,31.558 715.234,35.738C714.949,35.882 714.619,36.054 714.233,36.257C710.897,32.651 706.127,30.392 700.827,30.392C697.541,30.392 694.457,31.261 691.793,32.781C692.814,32.329 693.889,31.973 695.005,31.725C690.95,33 687.519,35.693 685.296,39.222C685.444,38.804 685.596,38.409 685.72,38.09C685.72,38.09 685.856,37.741 685.853,37.751C685.945,37.536 685.923,37.256 685.59,37.113C685.492,37.071 685.291,37.006 685.126,37.006C684.78,37.004 684.659,37.165 684.619,37.316C684.523,37.602 684.152,38.809 683.907,39.658C683.907,39.658 683.899,39.679 683.898,39.682C683.541,39.732 683.198,39.791 682.846,39.854C682.846,39.854 682.725,39.875 682.627,39.891C685.854,33.387 692.559,28.917 700.311,28.917ZM681.009,40.568C680.897,40.527 680.969,40.492 681.195,40.467C681.317,40.451 681.436,40.432 681.555,40.413C681.605,40.246 681.656,40.08 681.706,39.919C681.977,39.018 682.301,37.811 682.383,37.58C682.404,37.525 682.464,37.516 682.548,37.52C682.647,37.528 682.795,37.569 682.868,37.592C682.954,37.625 683.005,37.656 682.963,37.775C682.797,38.216 682.43,39.117 682.191,39.962C682.164,40.085 682.121,40.21 682.094,40.333C682.871,40.205 683.454,40.085 684.152,39.993L684.22,39.753C684.479,38.859 684.853,37.648 684.935,37.413C684.943,37.356 685.003,37.353 685.1,37.353C685.197,37.353 685.344,37.399 685.42,37.429C685.493,37.463 685.556,37.483 685.503,37.607C685.336,38.047 684.968,38.937 684.705,39.795L684.667,39.924C684.763,39.912 684.847,39.902 684.942,39.895C685.182,39.874 685.317,39.91 685.07,40.01C684.927,40.066 684.846,40.096 684.618,40.115C684.449,40.708 684.359,41.216 684.289,41.657C684.281,41.729 684.211,41.74 684.112,41.72C684.013,41.703 683.941,41.689 683.831,41.659C683.72,41.63 683.658,41.59 683.676,41.522C683.753,41.172 683.927,40.659 684.09,40.165C683.226,40.248 682.724,40.357 682.055,40.478C681.929,40.982 681.86,41.436 681.798,41.816C681.79,41.881 681.731,41.892 681.632,41.873C681.546,41.854 681.449,41.83 681.351,41.806C681.241,41.775 681.178,41.757 681.188,41.688C681.241,41.394 681.373,40.987 681.504,40.566L681.469,40.573C681.264,40.606 681.108,40.604 681.009,40.568ZM681.646,42.235C681.733,42.246 681.877,42.248 682.006,42.155C682.097,42.087 682.154,41.986 682.173,41.867L682.186,41.785C682.233,41.486 682.289,41.151 682.37,40.788C682.428,40.777 682.497,40.765 682.497,40.765C682.863,40.697 683.196,40.636 683.605,40.583C683.501,40.905 683.408,41.214 683.356,41.454C683.357,41.447 683.36,41.437 683.362,41.427C683.33,41.541 683.342,41.658 683.398,41.759C683.487,41.918 683.648,41.976 683.763,42.007L683.859,42.028C683.715,42.383 683.582,42.747 683.462,43.115C683.019,42.92 682.535,42.823 682.018,42.827L682.007,42.827C681.81,42.831 681.62,42.85 681.437,42.885C681.503,42.666 681.572,42.45 681.646,42.235ZM679.874,56.856C679.874,56.856 679.874,56.061 679.874,55.786C680.396,55.591 680.927,55.397 681.473,55.203C681.473,55.731 681.473,57.009 681.473,57.009C681.474,57.979 681.534,58.268 681.579,58.402C681.639,58.57 681.732,58.681 681.863,58.735C681.991,58.787 682.131,58.776 682.281,58.704C682.585,58.553 682.707,58.223 682.772,57.988C682.854,57.673 682.893,57.288 682.894,56.772C682.893,55.659 682.818,55.02 682.653,54.695L682.648,54.685C682.491,54.406 682.165,54.037 681.517,53.406C680.855,52.753 680.552,52.358 680.414,52.142C680.245,51.869 680.104,51.464 679.987,50.903C679.87,50.334 679.811,49.59 679.809,48.63C679.809,47.254 679.894,46.259 680.062,45.583C680.229,44.954 680.482,44.474 680.833,44.126C681.168,43.797 681.556,43.641 682.051,43.632C682.581,43.628 683.01,43.778 683.407,44.1C683.787,44.417 684.026,44.787 684.155,45.26C684.286,45.762 684.35,46.61 684.353,47.843C684.353,47.843 684.353,48.052 684.353,48.235C684.051,48.291 683.163,48.452 682.753,48.527C682.753,48.172 682.753,47.616 682.753,47.616C682.752,46.806 682.698,46.55 682.657,46.427C682.514,46.031 682.218,46.015 682.095,46.028C681.841,46.057 681.658,46.244 681.55,46.583C681.47,46.847 681.432,47.196 681.432,47.686C681.432,48.299 681.472,48.728 681.559,49.035C681.652,49.372 681.89,49.709 682.289,50.066C683.355,51.022 683.916,51.671 684.163,52.237C684.414,52.845 684.536,53.861 684.539,55.429C684.538,56.568 684.468,57.439 684.322,58.092C684.179,58.705 683.919,59.296 683.499,59.95C683.077,60.602 682.616,61.083 682.095,61.423C681.387,61.876 681.032,61.774 680.803,61.631C680.443,61.402 680.201,60.938 680.069,60.214C679.94,59.448 679.876,58.348 679.874,56.856ZM679.869,54.883L679.869,54.257C680.001,54.405 680.146,54.56 680.306,54.722C680.157,54.775 680.012,54.829 679.869,54.883ZM681.451,53.842C681.011,53.411 680.693,53.053 680.482,52.775C680.67,52.995 680.91,53.249 681.201,53.537C681.672,53.995 681.987,54.332 682.17,54.582C681.99,54.378 681.753,54.137 681.451,53.842ZM681.932,58.422C681.832,58.434 681.761,58.378 681.713,58.245C681.653,58.067 681.623,57.639 681.622,56.942C681.622,56.318 681.622,55.731 681.622,55.139C681.704,55.109 681.788,55.079 681.871,55.05C681.871,55.777 681.872,56.487 681.872,57.247C681.872,57.814 681.893,58.202 681.932,58.422ZM681.95,49.201C681.985,49.325 682.048,49.454 682.14,49.588C681.904,49.342 681.761,49.113 681.7,48.894C681.623,48.615 681.584,48.203 681.584,47.62C681.586,47.164 681.619,46.836 681.689,46.601C681.763,46.368 681.863,46.252 682.002,46.234C682.131,46.222 682.218,46.292 682.273,46.447C682.281,46.473 682.289,46.506 682.297,46.543C682.28,46.542 682.268,46.539 682.251,46.54C682.111,46.558 682.014,46.675 681.938,46.906C681.867,47.14 681.833,47.469 681.832,47.924C681.834,48.508 681.872,48.921 681.95,49.201ZM683.86,60.336C683.427,61.002 682.948,61.517 682.375,61.891C681.747,62.294 681.235,62.378 680.787,62.105C680.606,61.988 680.453,61.83 680.326,61.629C680.392,61.692 680.462,61.751 680.538,61.801C680.986,62.073 681.497,61.987 682.124,61.585C682.699,61.21 683.179,60.696 683.61,60.031C684.04,59.358 684.316,58.738 684.469,58.082C684.615,57.423 684.69,56.538 684.692,55.362C684.689,53.737 684.559,52.701 684.293,52.06C684.193,51.831 684.046,51.592 683.851,51.338C684.176,51.711 684.405,52.046 684.543,52.364C684.809,53.005 684.939,54.043 684.942,55.667C684.94,56.843 684.866,57.728 684.719,58.388C684.567,59.043 684.29,59.664 683.86,60.336ZM700.311,68.378C694.24,68.378 688.81,65.633 685.19,61.32L686.046,60.866C686.369,60.695 686.692,60.529 687.014,60.366C689.129,62.764 691.88,64.589 695.004,65.569C693.89,65.321 692.814,64.964 691.792,64.513C694.456,66.032 697.54,66.903 700.826,66.903C709.05,66.903 716.004,61.465 718.288,53.989C718.756,53.976 719.101,53.965 719.101,53.965L719.103,53.335C719.203,53.437 719.305,53.53 719.409,53.616C717.207,62.107 709.491,68.378 700.311,68.378ZM723.065,52.224C722.631,52.697 722.154,52.904 721.579,52.911C720.951,52.91 720.44,52.675 719.992,52.191C719.91,52.1 719.836,52.005 719.764,51.907C720.208,52.375 720.712,52.602 721.329,52.602C721.902,52.598 722.381,52.391 722.814,51.917C723.244,51.434 723.521,50.845 723.674,50.084C723.82,49.314 723.896,48.156 723.898,46.458C723.892,44.111 723.761,42.476 723.497,41.517C723.309,40.879 722.963,40.198 722.446,39.53C723.105,40.293 723.531,41.086 723.747,41.822C724.012,42.782 724.142,44.416 724.147,46.764C724.144,48.462 724.07,49.622 723.922,50.389C723.771,51.151 723.496,51.74 723.065,52.224Z" style="fill-rule:nonzero;"/>
                <path d="M715.957,41.557C716.051,41.397 716.155,41.091 716.156,40.075L716.156,39.222C716.155,38.635 716.087,38.345 715.915,38.186L715.908,38.18C715.626,37.934 715.213,38.124 715.057,38.197L714.897,38.271L714.897,42.207L715.266,42.073C715.588,41.957 715.814,41.788 715.957,41.557ZM715.047,38.377C715.321,38.25 715.5,38.229 715.604,38.317C715.652,38.363 715.689,38.446 715.713,38.574C715.61,38.566 715.477,38.6 715.297,38.683C715.297,39.573 715.297,40.547 715.297,41.626C715.224,41.671 715.144,41.71 715.047,41.746C715.047,40.497 715.047,39.384 715.047,38.377Z" style="fill-rule:nonzero;"/>
                <path d="M692.816,45.874L692.419,45.868C692.455,46.516 692.489,47.131 692.525,47.721C692.394,49.273 692.303,50.529 692.246,51.466C692.156,51.49 692.065,51.515 691.974,51.541C692.043,50.308 692.185,48.393 692.412,45.868L692.269,45.866C692.062,48.141 691.906,50.175 691.827,51.592L691.806,51.973L693.178,51.599L693.161,51.372C693.06,49.983 692.952,48.287 692.816,45.874Z" style="fill-rule:nonzero;"/>
                <path d="M705.136,50.839L705.14,50.83C705.2,50.652 705.267,50.286 705.269,49.024L705.269,43.79C705.269,43.217 705.256,42.888 705.226,42.724C705.181,42.49 705.066,42.335 704.888,42.26C704.722,42.195 704.514,42.209 704.184,42.303L703.987,42.363L703.987,51.491L704.312,51.43C704.747,51.348 705.018,51.155 705.136,50.839ZM704.385,42.806C704.385,45.119 704.385,48.145 704.385,51.021C704.312,51.051 704.23,51.075 704.137,51.092C704.137,48.106 704.137,44.914 704.137,42.501C704.395,42.425 704.56,42.408 704.654,42.443C704.748,42.484 704.803,42.566 704.829,42.705C704.833,42.713 704.833,42.726 704.835,42.735C704.736,42.725 704.59,42.747 704.385,42.806Z" style="fill-rule:nonzero;"/>
            </g>
        </g>
    </g>
</svg>
