<?xml version="1.0" encoding="UTF-8" standalone="no"?>
<!DOCTYPE svg PUBLIC "-//W3C//DTD SVG 1.1//EN" "http://www.w3.org/Graphics/SVG/1.1/DTD/svg11.dtd">
<svg width="100%" height="100%" viewBox="0 0 786 668" version="1.1" xmlns="http://www.w3.org/2000/svg" xmlns:xlink="http://www.w3.org/1999/xlink" xml:space="preserve" xmlns:serif="http://www.serif.com/" style="fill-rule:evenodd;clip-rule:evenodd;stroke-linejoin:round;stroke-miterlimit:1.41421;">
    <g transform="matrix(1,0,0,1,-1077.22,-1119.5)">
        <g transform="matrix(4.16667,0,0,4.16667,0,0)">
            <path d="M352.818,273.754C395.627,273.754 430.331,308.456 430.331,351.266C430.331,394.073 395.627,428.778 352.818,428.778C310.01,428.778 275.307,394.073 275.307,351.266C275.307,308.456 310.01,273.754 352.818,273.754Z" style="fill:rgb(64,63,65);"/>
        </g>
        <g transform="matrix(4.16667,0,0,4.16667,0,0)">
            <path d="M352.818,277.659C373.143,277.659 391.547,285.898 404.865,299.218C418.185,312.538 426.425,330.941 426.425,351.266C426.425,371.59 418.185,389.993 404.865,403.312C391.547,416.633 373.143,424.871 352.818,424.871C332.494,424.871 314.091,416.633 300.772,403.312C287.452,389.993 279.212,371.59 279.212,351.266C279.212,330.941 287.452,312.538 300.772,299.218C314.091,285.898 332.494,277.659 352.818,277.659ZM402.94,301.145C390.114,288.317 372.392,280.382 352.818,280.382C333.245,280.382 315.524,288.317 302.696,301.145C289.87,313.97 281.937,331.692 281.937,351.266C281.937,370.839 289.87,388.561 302.696,401.388C315.524,414.213 333.245,422.149 352.818,422.149C372.392,422.149 390.114,414.213 402.94,401.388C415.768,388.561 423.701,370.839 423.701,351.266C423.701,331.692 415.768,313.97 402.94,301.145Z" style="fill:white;fill-rule:nonzero;"/>
        </g>
        <g transform="matrix(4.16667,0,0,4.16667,0,0)">
            <path d="M411.456,348.239C411.592,351.709 410.135,355.201 407.223,357.519C403.892,360.313 387.055,374.992 373.739,358.246C350.944,329.577 328.149,300.908 305.354,272.239C306.845,271.052 308.338,269.865 309.831,268.679C332.463,297.143 355.095,325.605 377.726,354.069C380.018,348.351 392.794,340.634 401.716,339.753C407.72,339.159 411.218,342.17 411.456,348.239Z" style="fill:white;"/>
        </g>
        <g transform="matrix(4.16667,0,0,4.16667,0,0)">
            <path d="M294.183,348.239C294.046,351.709 295.503,355.201 298.415,357.519C301.747,360.313 318.583,374.992 331.898,358.246C354.694,329.577 377.488,300.908 400.284,272.239C398.793,271.052 397.299,269.865 395.807,268.679C373.176,297.143 350.544,325.605 327.913,354.069C325.62,348.351 312.844,340.634 303.922,339.753C297.918,339.159 294.419,342.17 294.183,348.239Z" style="fill:white;"/>
        </g>
        <g transform="matrix(4.16667,0,0,4.16667,0,0)">
            <path d="M352.819,288.248C367.168,288.248 378.797,299.88 378.797,314.227C378.797,328.576 367.168,340.207 352.819,340.207C338.472,340.207 326.84,328.576 326.84,314.227C326.84,299.88 338.472,288.248 352.819,288.248Z" style="fill:rgb(64,63,65);"/>
        </g>
        <g transform="matrix(4.16667,0,0,4.16667,0,0)">
            <path d="M352.819,292.238C364.963,292.238 374.809,302.083 374.809,314.227C374.809,326.372 364.963,336.217 352.819,336.217C340.675,336.217 330.83,326.372 330.83,314.227C330.83,302.083 340.675,292.238 352.819,292.238Z" style="fill:white;"/>
        </g>
        <g transform="matrix(4.16667,0,0,4.16667,0,0)">
            <path d="M362.545,333.761C360.318,333.761 358.515,331.959 358.515,329.733C358.515,327.507 360.318,325.703 362.545,325.703C362.699,325.703 362.853,325.713 363.004,325.73C361.453,325.93 360.253,327.257 360.253,328.864C360.253,330.609 361.667,332.023 363.413,332.023C365.02,332.023 366.346,330.824 366.547,329.273C366.563,329.423 366.572,329.577 366.572,329.733C366.572,331.959 364.769,333.761 362.545,333.761ZM344.75,306.597C342.825,307.552 340.491,306.765 339.536,304.841C338.58,302.915 339.367,300.58 341.293,299.625C341.428,299.558 341.564,299.499 341.702,299.451C340.445,300.291 339.977,301.953 340.667,303.342C341.416,304.853 343.247,305.469 344.757,304.719C346.147,304.03 346.78,302.424 346.288,300.995C346.367,301.118 346.44,301.248 346.508,301.382C347.463,303.307 346.676,305.642 344.75,306.597ZM355.026,310.082C353.101,311.037 350.765,310.251 349.81,308.325C348.855,306.401 349.642,304.066 351.567,303.11C351.702,303.044 351.838,302.986 351.977,302.935C350.719,303.775 350.251,305.438 350.941,306.828C351.69,308.337 353.521,308.954 355.031,308.206C356.422,307.516 357.055,305.909 356.562,304.481C356.642,304.604 356.716,304.732 356.782,304.867C357.737,306.792 356.951,309.127 355.026,310.082ZM365.104,311.756C363.505,313.193 361.046,313.061 359.609,311.461C358.173,309.862 358.307,307.403 359.905,305.966C360.017,305.867 360.133,305.774 360.253,305.689C359.267,306.834 359.261,308.562 360.297,309.715C361.423,310.969 363.354,311.073 364.606,309.948C365.762,308.911 365.941,307.192 365.084,305.949C365.194,306.045 365.299,306.15 365.4,306.262C366.836,307.861 366.704,310.322 365.104,311.756ZM337.15,312.826C335.024,313.136 333.05,311.662 332.741,309.535C332.433,307.407 333.907,305.434 336.034,305.124C336.183,305.104 336.33,305.09 336.477,305.086C335.021,305.493 334.059,306.927 334.282,308.463C334.524,310.131 336.072,311.287 337.74,311.046C339.276,310.821 340.377,309.493 340.354,307.981C340.392,308.123 340.422,308.268 340.443,308.418C340.751,310.545 339.278,312.518 337.15,312.826ZM346.901,318.512C344.339,318.884 341.959,317.108 341.588,314.544C341.216,311.982 342.992,309.604 345.555,309.232C345.735,309.206 345.913,309.191 346.09,309.185C344.336,309.675 343.177,311.403 343.444,313.254C343.737,315.264 345.603,316.657 347.611,316.365C349.462,316.096 350.79,314.494 350.762,312.673C350.806,312.845 350.843,313.019 350.869,313.199C351.24,315.76 349.465,318.14 346.901,318.512ZM359.8,323.95C356.993,325.236 353.677,324.003 352.393,321.197C351.107,318.393 352.34,315.077 355.146,313.791C355.342,313.701 355.541,313.624 355.741,313.558C353.9,314.707 353.154,317.072 354.082,319.099C355.09,321.298 357.69,322.265 359.891,321.257C361.917,320.329 362.897,318.051 362.253,315.979C362.363,316.159 362.462,316.347 362.553,316.544C363.838,319.35 362.604,322.666 359.8,323.95ZM371.096,326.007C368.687,327.111 365.838,326.052 364.734,323.643C363.629,321.233 364.689,318.384 367.099,317.28C367.268,317.203 367.438,317.136 367.61,317.081C366.028,318.068 365.388,320.098 366.185,321.838C367.051,323.729 369.284,324.559 371.175,323.694C372.914,322.897 373.756,320.94 373.203,319.159C373.298,319.316 373.384,319.476 373.461,319.645C374.564,322.054 373.507,324.903 371.096,326.007ZM357.003,338.052C355.456,339.226 353.25,338.923 352.078,337.375C350.905,335.827 351.209,333.622 352.756,332.45C352.864,332.367 352.975,332.293 353.09,332.226C352.116,333.182 351.981,334.737 352.829,335.853C353.748,337.067 355.479,337.306 356.691,336.385C357.808,335.54 358.098,334.006 357.42,332.82C357.513,332.918 357.6,333.019 357.682,333.128C358.854,334.676 358.551,336.88 357.003,338.052ZM337.49,330.862C335.547,330.862 333.973,329.288 333.973,327.346C333.973,325.405 335.547,323.831 337.49,323.831C337.625,323.831 337.758,323.839 337.89,323.854C336.537,324.028 335.491,325.187 335.491,326.588C335.491,328.11 336.724,329.345 338.248,329.345C339.649,329.345 340.807,328.298 340.981,326.945C340.997,327.076 341.005,327.21 341.005,327.346C341.005,329.288 339.431,330.862 337.49,330.862ZM345.818,336.312C343.875,336.312 342.302,334.738 342.302,332.798C342.302,330.856 343.875,329.282 345.818,329.282C345.954,329.282 346.087,329.29 346.22,329.305C344.865,329.48 343.819,330.637 343.819,332.039C343.819,333.563 345.053,334.797 346.576,334.797C347.978,334.797 349.135,333.75 349.31,332.396C349.325,332.528 349.333,332.662 349.333,332.798C349.333,334.738 347.759,336.312 345.818,336.312ZM335.769,321.68C333.544,321.68 331.74,319.876 331.74,317.651C331.74,315.426 333.544,313.622 335.769,313.622C335.924,313.622 336.078,313.631 336.229,313.648C334.677,313.848 333.478,315.176 333.478,316.782C333.478,318.527 334.893,319.943 336.638,319.943C338.245,319.943 339.571,318.743 339.771,317.191C339.789,317.343 339.798,317.495 339.798,317.651C339.798,319.876 337.994,321.68 335.769,321.68ZM344.004,327.2C341.778,327.2 339.976,325.396 339.976,323.171C339.976,320.946 341.778,319.141 344.004,319.141C344.16,319.141 344.314,319.152 344.464,319.168C342.913,319.368 341.713,320.695 341.713,322.302C341.713,324.047 343.128,325.462 344.873,325.462C346.48,325.462 347.807,324.262 348.007,322.71C348.023,322.862 348.034,323.016 348.034,323.171C348.034,325.396 346.229,327.2 344.004,327.2ZM352.858,331.782C350.632,331.782 348.829,329.98 348.829,327.754C348.829,325.528 350.632,323.725 352.858,323.725C353.013,323.725 353.167,323.734 353.317,323.752C351.765,323.951 350.566,325.278 350.566,326.884C350.566,328.63 351.98,330.044 353.727,330.044C355.334,330.044 356.659,328.845 356.86,327.294C356.877,327.444 356.887,327.598 356.887,327.754C356.887,329.98 355.082,331.782 352.858,331.782Z" style="fill:rgb(64,63,65);"/>
        </g>
        <g transform="matrix(4.16667,0,0,4.16667,0,0)">
            <path d="M341.337,332.731C349.068,332.731 356.798,332.731 364.529,332.731C366.479,332.731 368.226,332.598 369.747,334.17C371.06,335.525 371.082,336.974 371.077,338.691C371.073,339.745 371.077,338.805 371.077,339.859L371.077,343.849L367.086,343.849C366.368,343.849 365.708,343.988 365.084,344.351C361.771,346.271 360.022,354.141 359.241,357.595C358.418,361.235 357.727,364.978 356.631,368.543L352.816,380.957L349.002,368.543C347.907,364.978 347.216,361.235 346.393,357.595C345.61,354.141 343.864,346.271 340.549,344.351C339.925,343.988 339.265,343.849 338.547,343.849L334.557,343.849L334.557,339.859C334.557,338.672 334.557,339.479 334.557,338.293C334.557,336.7 334.852,335.267 336.057,334.105C337.623,332.593 339.379,332.731 341.337,332.731Z" style="fill:rgb(64,63,65);"/>
        </g>
        <g transform="matrix(4.16667,0,0,4.16667,0,0)">
            <path d="M341.337,334.727C349.068,334.727 356.799,334.727 364.529,334.727C367.203,334.727 367.1,334.516 367.086,336.683C367.086,337.638 367.086,338.388 367.086,339.859C356.622,339.859 355.928,357.247 352.817,367.371C349.707,357.247 349.012,339.859 338.547,339.859C338.547,338.197 338.547,337.453 338.547,336.298C338.547,334.538 338.888,334.727 341.337,334.727Z" style="fill:rgb(147,149,152);"/>
        </g>
        <g transform="matrix(4.16667,0,0,4.16667,0,0)">
            <path d="M340.896,339.823L365.26,340.051L346.019,341.64C346.019,341.64 344.752,340.207 340.896,339.823Z" style="fill:rgb(64,63,65);"/>
        </g>
        <g transform="matrix(4.16667,0,0,4.16667,0,0)">
            <path d="M428.365,388.344L446.146,414.026L437.324,412.255C432.869,411.362 428.246,410.694 423.751,410.069C411.583,408.378 399.304,407.213 387.044,406.454C347.604,404.016 307.305,405.784 268.359,412.538L260.353,413.926L276.459,388.155L258.532,369.612L264.794,368.168C269.696,367.039 274.806,366.163 279.765,365.348C292.801,363.209 305.984,361.68 319.156,360.666C359.442,357.572 401.148,359.252 440.677,367.893L447.104,369.297L428.365,388.344Z" style="fill:white;"/>
        </g>
        <g transform="matrix(4.16667,0,0,4.16667,0,0)">
            <path d="M265.61,371.706C265.61,371.706 351.026,352.015 439.9,371.441L423.669,387.94L438.039,408.694C438.039,408.694 359.807,392.995 267.739,408.958L281.044,387.672L265.61,371.706Z" style="fill:rgb(64,63,65);"/>
        </g>
        <g transform="matrix(4.16667,0,0,4.16667,0,0)">
            <path d="M322.919,381.795L313.08,382.654L313.488,387.32L317.564,386.964L318.048,392.491C317.816,392.617 317.444,392.729 316.946,392.837C316.443,392.949 315.852,393.04 315.178,393.099C313.95,393.206 312.809,393.109 311.757,392.818C310.704,392.523 309.773,392.037 308.97,391.362C308.161,390.691 307.507,389.84 307.007,388.804C306.509,387.774 306.201,386.575 306.074,385.203C305.954,383.759 306.065,382.479 306.415,381.362C306.759,380.246 307.302,379.303 308.031,378.521C308.766,377.74 309.647,377.129 310.681,376.685C311.708,376.238 312.856,375.959 314.104,375.851C315.064,375.767 315.925,375.743 316.671,375.772C317.418,375.804 318.089,375.883 318.681,376.004C319.276,376.122 319.823,376.272 320.319,376.459L321.147,371.483C320.7,371.33 320.11,371.197 319.38,371.069C318.652,370.949 317.815,370.865 316.857,370.823C315.899,370.788 314.855,370.815 313.711,370.908C311.535,371.099 309.557,371.582 307.787,372.355C306.012,373.129 304.496,374.163 303.247,375.464C301.998,376.765 301.072,378.301 300.47,380.079C299.869,381.863 299.656,383.857 299.829,386.068C299.942,387.361 300.194,388.582 300.59,389.726C300.98,390.871 301.493,391.919 302.136,392.87C302.772,393.815 303.529,394.644 304.394,395.345C305.704,396.397 307.27,397.148 309.099,397.586C310.922,398.028 313.04,398.145 315.443,397.934C316.62,397.825 317.755,397.639 318.853,397.386C319.949,397.131 320.951,396.854 321.859,396.542C322.773,396.233 323.531,395.942 324.134,395.672L322.919,381.795ZM343.652,369.444C341.698,369.484 339.94,369.87 338.365,370.586C336.797,371.309 335.457,372.302 334.35,373.568C333.237,374.841 332.391,376.323 331.811,378.02C331.236,379.715 330.961,381.558 330.989,383.557C331.016,385.079 331.225,386.519 331.609,387.868C331.993,389.221 332.545,390.459 333.268,391.568C333.982,392.676 334.851,393.631 335.882,394.434C336.907,395.236 338.071,395.844 339.384,396.267C340.69,396.697 342.13,396.897 343.699,396.874C345.652,396.833 347.423,396.487 349.006,395.824C350.589,395.166 351.943,394.226 353.069,392.998C354.196,391.778 355.049,390.3 355.643,388.565C356.229,386.83 356.509,384.869 356.478,382.681C356.451,381.203 356.25,379.798 355.879,378.467C355.501,377.135 354.962,375.911 354.254,374.8C353.546,373.692 352.677,372.729 351.646,371.922C350.621,371.112 349.437,370.491 348.104,370.063C346.765,369.625 345.285,369.42 343.652,369.444ZM343.617,374.206C344.654,374.196 345.569,374.414 346.37,374.873C347.173,375.324 347.845,375.955 348.397,376.767C348.956,377.576 349.38,378.513 349.673,379.577C349.968,380.642 350.125,381.781 350.146,382.986C350.169,384.279 350.045,385.481 349.782,386.575C349.52,387.674 349.123,388.633 348.593,389.454C348.063,390.273 347.405,390.913 346.626,391.379C345.84,391.838 344.946,392.085 343.93,392.11C342.926,392.119 342.017,391.919 341.216,391.5C340.416,391.088 339.729,390.488 339.151,389.706C338.581,388.928 338.138,387.998 337.83,386.921C337.516,385.838 337.344,384.642 337.322,383.328C337.299,382.029 337.423,380.834 337.691,379.741C337.961,378.641 338.364,377.684 338.901,376.86C339.438,376.036 340.102,375.396 340.894,374.936C341.687,374.477 342.594,374.23 343.617,374.206ZM364.111,396.383L380.629,396.959L380.806,391.925L370.266,391.558L371.014,370.084L365.037,369.876L364.111,396.383ZM387.633,397.307L393.592,397.829L394.521,387.204L404.007,388.034L404.433,383.173L394.946,382.343L395.475,376.306L405.628,377.194L406.056,372.294L389.943,370.885L387.633,397.307Z" style="fill:white;fill-rule:nonzero;"/>
        </g>
    </g>
</svg>
