<?xml version="1.0" encoding="UTF-8" standalone="no"?>
<!DOCTYPE svg PUBLIC "-//W3C//DTD SVG 1.1//EN" "http://www.w3.org/Graphics/SVG/1.1/DTD/svg11.dtd">
<svg width="100%" height="100%" viewBox="0 0 256 205" version="1.1" xmlns="http://www.w3.org/2000/svg" xmlns:xlink="http://www.w3.org/1999/xlink" xml:space="preserve" xmlns:serif="http://www.serif.com/" style="fill-rule:evenodd;clip-rule:evenodd;stroke-linejoin:round;stroke-miterlimit:1.41421;">
    <g transform="matrix(1,0,0,1,-325.345,-52.397)">
        <path d="M385,82.454L383.647,83.298L378.272,74.684L379.626,73.839L381.929,77.531L383.467,76.571L381.164,72.88L382.542,72.02L387.917,80.633L386.539,81.493L384.236,77.802L382.697,78.762L385,82.454Z" style="fill:white;fill-rule:nonzero;"/>
        <path d="M389.222,76.18L390.567,75.435L387.405,71.316L389.222,76.18ZM393.967,77.233L392.559,78.013L391.425,76.535L389.712,77.484L390.364,79.229L389.082,79.939L385.583,70.27L387.626,69.138L393.967,77.233Z" style="fill:white;fill-rule:nonzero;"/>
        <path d="M396.165,74.048L393.593,66.081L394.907,65.433L397.995,75.232L395.861,76.285L389.964,67.872L391.407,67.159L396.165,74.048Z" style="fill:white;fill-rule:nonzero;"/>
        <path d="M399.753,67.962L401.761,67.09L402.339,68.42L400.33,69.293L401.515,72.02L404.043,70.921L404.621,72.252L400.629,73.986L396.583,64.674L400.575,62.94L401.152,64.27L398.625,65.368L399.753,67.962Z" style="fill:white;fill-rule:nonzero;"/>
        <path d="M409.182,67.058L410.633,66.548L408.204,61.959L409.182,67.058ZM413.685,68.888L412.167,69.422L411.295,67.776L409.447,68.425L409.799,70.255L408.417,70.741L406.58,60.623L408.783,59.849L413.685,68.888Z" style="fill:white;fill-rule:nonzero;"/>
        <path d="M419.587,65.204L418.597,56.892L420.01,56.508L421.155,66.718L418.858,67.34L414.691,57.95L416.245,57.529L419.587,65.204Z" style="fill:white;fill-rule:nonzero;"/>
        <path d="M424.281,59.923L426.42,59.454L426.731,60.87L424.591,61.34L425.229,64.244L427.921,63.653L428.232,65.07L423.982,66.003L421.804,56.086L426.054,55.152L426.365,56.569L423.674,57.161L424.281,59.923Z" style="fill:white;fill-rule:nonzero;"/>
        <path d="M429.911,55.918L430.433,58.993L431.047,58.889C431.343,58.839 431.561,58.723 431.703,58.543C431.843,58.362 431.88,58.071 431.812,57.671L431.645,56.684C431.583,56.322 431.475,56.071 431.319,55.93C431.163,55.79 430.946,55.743 430.67,55.79L429.911,55.918ZM433.081,64.209C433.05,64.146 433.021,64.087 432.993,64.033C432.963,63.979 432.934,63.91 432.906,63.826C432.877,63.743 432.848,63.635 432.821,63.502C432.794,63.37 432.764,63.203 432.729,63.003L432.462,61.43C432.384,60.963 432.247,60.648 432.053,60.484C431.859,60.322 431.58,60.27 431.218,60.332L430.675,60.423L431.364,64.5L429.792,64.766L428.096,54.755L430.47,54.353C431.29,54.214 431.916,54.304 432.348,54.623C432.779,54.943 433.06,55.488 433.191,56.26L433.325,57.047C433.499,58.077 433.27,58.812 432.639,59.252C433.066,59.347 433.386,59.565 433.595,59.907C433.805,60.249 433.955,60.682 434.043,61.207L434.305,62.751C434.347,62.999 434.393,63.214 434.443,63.397C434.495,63.58 434.575,63.76 434.683,63.938L433.081,64.209Z" style="fill:white;fill-rule:nonzero;"/>
        <path d="M437.098,60.235L434.291,53.734L435.948,53.536L437.706,57.986L438.367,53.247L439.88,53.066L438.683,60.046L439.082,63.388L437.497,63.577L437.098,60.235Z" style="fill:white;fill-rule:nonzero;"/>
        <path d="M446.832,62.744L445.239,62.816L444.778,52.673L446.371,52.601L446.569,56.948L448.381,56.865L448.182,52.518L449.806,52.444L450.268,62.587L448.644,62.661L448.446,58.314L446.635,58.397L446.832,62.744Z" style="fill:white;fill-rule:nonzero;"/>
        <path d="M453.577,59.335L455.114,59.36L454.428,54.214L453.577,59.335ZM457.166,62.614L455.555,62.588L455.31,60.741L453.352,60.71L453.045,62.547L451.582,62.523L453.371,52.397L455.705,52.436L457.166,62.614Z" style="fill:white;fill-rule:nonzero;"/>
        <path d="M460.594,54.032L460.409,57.464L461.162,57.506C461.413,57.519 461.61,57.462 461.753,57.334C461.894,57.206 461.975,56.959 461.996,56.591L462.078,55.071C462.097,54.704 462.043,54.449 461.916,54.307C461.787,54.164 461.598,54.086 461.346,54.073L460.594,54.032ZM461.425,52.624C462.227,52.667 462.812,52.912 463.18,53.358C463.548,53.804 463.71,54.437 463.666,55.258L463.594,56.576C463.55,57.396 463.321,58.009 462.907,58.413C462.494,58.817 461.885,58.997 461.084,58.954L460.33,58.913L460.126,62.723L458.532,62.636L459.079,52.498L461.425,52.624Z" style="fill:white;fill-rule:nonzero;"/>
        <path d="M467.121,54.511L466.773,57.931L467.524,58.007C467.774,58.033 467.973,57.985 468.122,57.864C468.269,57.743 468.362,57.5 468.399,57.134L468.554,55.619C468.591,55.253 468.548,54.996 468.428,54.848C468.306,54.699 468.121,54.612 467.87,54.587L467.121,54.511ZM468.018,53.144C468.816,53.225 469.389,53.497 469.736,53.96C470.082,54.423 470.213,55.063 470.131,55.881L469.998,57.194C469.914,58.012 469.656,58.613 469.224,58.996C468.791,59.38 468.175,59.532 467.377,59.45L466.627,59.375L466.241,63.169L464.654,63.008L465.68,52.907L468.018,53.144Z" style="fill:white;fill-rule:nonzero;"/>
        <path d="M472.725,60.563L471.744,53.55L473.394,53.798L473.908,58.556L475.803,54.161L477.309,54.388L474.304,60.8L473.801,64.128L472.224,63.89L472.725,60.563Z" style="fill:white;fill-rule:nonzero;"/>
        <path d="M481.423,65.563L479.868,65.209L482.12,55.309L483.676,55.662L482.711,59.905L484.478,60.308L485.444,56.064L487.029,56.425L484.775,66.325L483.191,65.965L484.157,61.722L482.389,61.32L481.423,65.563Z" style="fill:white;fill-rule:nonzero;"/>
        <path d="M488.539,64.921C488.439,65.275 488.441,65.544 488.545,65.729C488.649,65.914 488.821,66.041 489.063,66.109C489.305,66.178 489.518,66.16 489.704,66.056C489.889,65.953 490.03,65.725 490.13,65.371L491.622,60.095C491.722,59.741 491.719,59.472 491.616,59.286C491.512,59.102 491.339,58.975 491.098,58.906C490.856,58.838 490.642,58.856 490.458,58.959C490.272,59.063 490.13,59.291 490.03,59.645L488.539,64.921ZM488.468,59.309C488.69,58.518 489.062,57.967 489.582,57.657C490.102,57.346 490.739,57.298 491.492,57.51C492.246,57.724 492.763,58.098 493.044,58.635C493.324,59.171 493.352,59.835 493.13,60.626L491.694,65.706C491.47,66.498 491.099,67.048 490.579,67.359C490.059,67.67 489.423,67.718 488.669,67.505C487.915,67.292 487.398,66.917 487.117,66.381C486.837,65.844 486.808,65.181 487.032,64.39L488.468,59.309Z" style="fill:white;fill-rule:nonzero;"/>
        <path d="M495.819,58.918L497.333,59.423L494.578,67.679L497.069,68.51L496.61,69.886L492.605,68.55L495.819,58.918Z" style="fill:white;fill-rule:nonzero;"/>
        <path d="M501.409,60.843L502.904,61.401L499.355,70.914L497.86,70.356L501.409,60.843Z" style="fill:white;fill-rule:nonzero;"/>
        <path d="M505.842,64.122L503.045,70.814L503.875,71.161C504.106,71.258 504.317,71.268 504.507,71.189C504.697,71.112 504.862,70.904 505.004,70.564L507.041,65.693C507.183,65.354 507.214,65.09 507.136,64.9C507.059,64.71 506.904,64.567 506.672,64.47L505.842,64.122ZM504.929,62.169L507.258,63.143C507.999,63.452 508.467,63.879 508.664,64.422C508.861,64.966 508.802,65.617 508.485,66.375L506.504,71.113C506.187,71.871 505.767,72.371 505.241,72.612C504.715,72.854 504.082,72.82 503.341,72.511L501.013,71.537L504.929,62.169Z" style="fill:white;fill-rule:nonzero;"/>
        <path d="M509.757,71.839L511.144,72.503L512.669,67.54L509.757,71.839ZM511.65,76.315L510.198,75.62L510.744,73.839L508.979,72.993L507.934,74.535L506.613,73.903L512.465,65.448L514.57,66.456L511.65,76.315Z" style="fill:white;fill-rule:nonzero;"/>
        <path d="M515.773,74.7L517.237,67.771L518.705,68.567L517.568,73.215L520.846,69.729L522.185,70.455L517.175,75.461L515.57,78.419L514.169,77.658L515.773,74.7Z" style="fill:white;fill-rule:nonzero;"/>
        <path d="M522.148,73.255C522.573,72.551 523.068,72.114 523.63,71.94C524.193,71.767 524.81,71.883 525.48,72.288C526.151,72.694 526.539,73.186 526.646,73.766C526.753,74.345 526.593,74.986 526.167,75.689L526.003,75.962L524.712,75.18L524.93,74.821C525.12,74.507 525.194,74.249 525.152,74.048C525.109,73.847 524.981,73.682 524.766,73.552C524.551,73.421 524.345,73.384 524.146,73.439C523.948,73.495 523.755,73.68 523.565,73.994C523.385,74.292 523.292,74.595 523.287,74.902C523.281,75.21 523.317,75.525 523.392,75.848C523.468,76.171 523.559,76.503 523.663,76.843C523.767,77.184 523.847,77.534 523.9,77.894C523.953,78.254 523.953,78.627 523.9,79.013C523.847,79.399 523.695,79.8 523.445,80.213C523.018,80.916 522.521,81.352 521.948,81.52C521.379,81.689 520.758,81.57 520.088,81.165C519.418,80.759 519.025,80.264 518.909,79.679C518.794,79.096 518.95,78.452 519.375,77.748L519.698,77.215L520.989,77.996L520.612,78.617C520.422,78.931 520.354,79.189 520.408,79.391C520.46,79.592 520.594,79.759 520.81,79.889C521.025,80.019 521.234,80.061 521.437,80.015C521.641,79.968 521.836,79.788 522.028,79.473C522.208,79.175 522.301,78.873 522.307,78.565C522.31,78.258 522.276,77.943 522.201,77.619C522.124,77.296 522.034,76.965 521.93,76.625C521.825,76.284 521.745,75.934 521.693,75.574C521.64,75.214 521.64,74.841 521.692,74.454C521.745,74.069 521.896,73.668 522.148,73.255Z" style="fill:white;fill-rule:nonzero;"/>
        <path d="M452.96,69.834L452.947,71.447L451.96,69.899C451.789,69.628 451.267,69.892 451.44,70.162L452.936,72.513L452.927,73.598L451.073,70.941C450.791,70.54 449.941,70.926 450.221,71.332L452.816,75.044C452.846,75.087 452.879,75.12 452.914,75.146L452.905,76.061L451.918,74.748C451.91,74.738 451.901,74.727 451.892,74.719C451.894,74.702 451.895,74.683 451.893,74.668C451.897,74.039 451.396,73.527 450.77,73.522C450.143,73.514 449.628,74.017 449.623,74.646C449.62,75.085 449.864,75.468 450.226,75.66C450.229,75.672 450.232,75.682 450.238,75.692L450.856,77.221L450.065,76.756C450.06,76.709 450.049,76.665 450.029,76.617L448.182,72.479C447.984,72.03 447.212,72.557 447.412,73.006L448.735,75.97L447.801,75.421L446.553,72.919C446.412,72.632 445.917,72.943 446.059,73.23L446.884,74.88L445.488,74.057C445.549,73.656 445.366,73.24 444.996,73.022C444.509,72.735 443.88,72.896 443.593,73.385C443.305,73.871 443.469,74.499 443.956,74.786C444.322,75.002 444.77,74.965 445.09,74.724L446.478,75.543L444.65,75.618C444.332,75.633 444.298,76.213 444.618,76.201L447.394,76.082L448.329,76.633L445.108,76.909C444.62,76.951 444.532,77.883 445.021,77.841L449.536,77.452C449.584,77.447 449.626,77.436 449.665,77.42L450.45,77.882L448.826,78.082L448.817,78.084C448.644,77.974 448.439,77.908 448.22,77.907C447.591,77.901 447.079,78.404 447.074,79.03C447.067,79.657 447.571,80.172 448.197,80.178C448.418,80.18 448.623,80.119 448.799,80.013L448.805,80.013L450.433,80.243L449.637,80.692C449.596,80.673 449.551,80.66 449.502,80.656L444.996,80.186C444.505,80.134 444.578,81.066 445.067,81.118L448.289,81.455L447.344,81.989L444.561,81.817C444.242,81.797 444.265,82.382 444.583,82.399L446.417,82.511L445.012,83.306C444.695,83.056 444.244,83.007 443.873,83.218C443.381,83.497 443.207,84.122 443.484,84.614C443.764,85.107 444.39,85.279 444.881,85.003C445.253,84.791 445.444,84.382 445.392,83.98L446.797,83.187L445.951,84.815C445.801,85.099 446.287,85.417 446.436,85.136L447.725,82.661L448.67,82.128L447.296,85.062C447.09,85.508 447.852,86.048 448.058,85.604L449.98,81.499C449.999,81.456 450.012,81.411 450.017,81.367L450.814,80.918L450.178,82.409C449.782,82.585 449.503,82.979 449.5,83.44C449.494,84.068 449.997,84.579 450.623,84.585C451.248,84.59 451.761,84.093 451.77,83.469C451.793,83.456 451.814,83.439 451.831,83.416L452.849,82.111L452.841,83.031C452.803,83.058 452.768,83.09 452.737,83.132L450.076,86.8C449.788,87.198 450.63,87.601 450.919,87.204L452.828,84.576L452.818,85.659L451.274,87.992C451.096,88.259 451.611,88.529 451.787,88.263L452.806,86.723L452.793,88.344C452.413,88.492 452.147,88.858 452.142,89.287C452.137,89.854 452.593,90.316 453.156,90.322C453.723,90.328 454.186,89.871 454.192,89.308C454.194,88.881 453.937,88.514 453.568,88.355L453.581,86.746L454.563,88.29C454.735,88.559 455.256,88.298 455.085,88.026L453.593,85.682L453.603,84.598L455.451,87.246C455.732,87.648 456.583,87.258 456.301,86.856L453.705,83.14C453.679,83.103 453.649,83.072 453.617,83.045L453.624,82.134L454.607,83.44L454.609,83.443C454.607,83.464 454.606,83.487 454.605,83.509C454.601,84.137 455.103,84.648 455.73,84.653C456.357,84.66 456.871,84.157 456.878,83.529C456.881,83.105 456.649,82.729 456.304,82.533C456.3,82.518 456.299,82.506 456.292,82.495L455.673,80.961L456.462,81.429C456.466,81.472 456.48,81.522 456.5,81.569L458.346,85.707C458.546,86.156 459.318,85.629 459.117,85.18L457.795,82.212L458.724,82.763L459.977,85.268C460.118,85.555 460.612,85.244 460.468,84.956L459.645,83.302L461.04,84.128C460.981,84.53 461.16,84.944 461.533,85.165C462.02,85.452 462.648,85.288 462.935,84.799C463.222,84.312 463.062,83.685 462.574,83.396C462.206,83.181 461.758,83.22 461.44,83.46L460.053,82.646L461.877,82.565C462.198,82.552 462.231,81.971 461.91,81.984L459.135,82.103L458.201,81.554L461.419,81.275C461.908,81.233 461.996,80.302 461.506,80.345L456.992,80.733C456.946,80.738 456.902,80.749 456.863,80.764L456.079,80.303L457.7,80.105C457.732,80.101 457.763,80.091 457.787,80.074C457.941,80.156 458.115,80.201 458.302,80.204C458.929,80.21 459.442,79.705 459.447,79.078C459.453,78.452 458.95,77.939 458.324,77.933C458.067,77.93 457.831,78.012 457.639,78.153L456.089,77.936L456.887,77.485C456.927,77.504 456.975,77.517 457.027,77.521L461.535,77.994C462.021,78.044 461.95,77.112 461.462,77.061L458.233,76.724L459.176,76.191L461.968,76.361C462.29,76.383 462.264,75.798 461.944,75.78L460.101,75.666L461.512,74.869C461.829,75.122 462.281,75.174 462.657,74.96C463.15,74.682 463.323,74.058 463.045,73.565C462.765,73.072 462.141,72.899 461.648,73.177C461.276,73.387 461.086,73.794 461.133,74.192L459.736,74.983L460.581,73.363C460.728,73.08 460.24,72.761 460.09,73.044L458.807,75.509L457.863,76.041L459.231,73.116C459.439,72.671 458.679,72.13 458.47,72.574L456.552,76.681C456.53,76.722 456.519,76.763 456.512,76.804L455.72,77.254L456.343,75.788C456.718,75.603 456.973,75.222 456.979,74.779C456.983,74.151 456.478,73.638 455.852,73.633C455.227,73.627 454.715,74.129 454.707,74.754C454.703,74.759 454.697,74.765 454.691,74.773L453.679,76.068L453.689,75.153C453.724,75.127 453.756,75.094 453.785,75.055L456.448,71.387C456.736,70.99 455.894,70.588 455.606,70.984L453.701,73.605L453.71,72.52L455.25,70.194C455.427,69.928 454.91,69.657 454.734,69.924L453.721,71.455L453.737,69.842C454.111,69.691 454.377,69.328 454.38,68.898C454.387,68.333 453.932,67.872 453.367,67.865C452.803,67.862 452.339,68.315 452.334,68.881C452.329,69.308 452.59,69.679 452.96,69.834Z" style="fill:rgb(229,185,95);"/>
        <path d="M476.89,73.002L476.881,74.063L476.232,73.044C476.12,72.866 475.776,73.04 475.889,73.217L476.874,74.764L476.868,75.478L475.648,73.73C475.463,73.466 474.904,73.72 475.088,73.987L476.795,76.43C476.815,76.458 476.836,76.48 476.86,76.496L476.853,77.099L476.204,76.234C476.199,76.228 476.193,76.221 476.187,76.216C476.188,76.204 476.189,76.192 476.188,76.182C476.191,75.768 475.861,75.431 475.449,75.428C475.036,75.423 474.697,75.754 474.694,76.168C474.692,76.456 474.853,76.709 475.091,76.835C475.093,76.842 475.095,76.849 475.099,76.856L475.506,77.862L474.985,77.556C474.982,77.525 474.975,77.496 474.961,77.464L473.747,74.742C473.616,74.446 473.108,74.793 473.24,75.089L474.11,77.039L473.496,76.677L472.675,75.031C472.582,74.842 472.256,75.047 472.35,75.236L472.892,76.321L471.974,75.78C472.014,75.516 471.894,75.242 471.65,75.099C471.33,74.911 470.916,75.017 470.727,75.338C470.537,75.658 470.646,76.071 470.966,76.26C471.207,76.402 471.501,76.378 471.712,76.219L472.625,76.757L471.422,76.807C471.213,76.817 471.191,77.199 471.401,77.191L473.228,77.112L473.843,77.475L471.724,77.657C471.403,77.684 471.345,78.297 471.667,78.27L474.637,78.014C474.669,78.01 474.697,78.003 474.722,77.993L475.239,78.297L474.17,78.428L474.164,78.429C474.05,78.357 473.915,78.314 473.772,78.313C473.358,78.309 473.021,78.64 473.017,79.052C473.013,79.465 473.344,79.803 473.756,79.807C473.901,79.809 474.037,79.768 474.152,79.699L474.156,79.698L475.228,79.85L474.704,80.145C474.677,80.133 474.647,80.125 474.615,80.121L471.65,79.812C471.327,79.778 471.375,80.392 471.697,80.425L473.817,80.647L473.195,80.998L471.364,80.886C471.154,80.873 471.169,81.257 471.379,81.268L472.585,81.342L471.661,81.865C471.452,81.701 471.155,81.668 470.911,81.808C470.587,81.991 470.474,82.402 470.655,82.725C470.84,83.05 471.251,83.163 471.574,82.982C471.819,82.842 471.945,82.573 471.911,82.309L472.835,81.787L472.279,82.858C472.18,83.045 472.499,83.254 472.598,83.069L473.446,81.441L474.067,81.09L473.163,83.021C473.028,83.314 473.529,83.669 473.665,83.377L474.929,80.676C474.942,80.648 474.95,80.619 474.953,80.59L475.478,80.294L475.06,81.275C474.799,81.391 474.615,81.65 474.614,81.953C474.609,82.366 474.94,82.703 475.352,82.707C475.764,82.71 476.101,82.383 476.107,81.973C476.122,81.964 476.136,81.953 476.147,81.937L476.817,81.079L476.812,81.684C476.787,81.702 476.764,81.723 476.743,81.751L474.993,84.164C474.803,84.426 475.357,84.691 475.547,84.43L476.803,82.701L476.796,83.413L475.781,84.948C475.664,85.124 476.002,85.301 476.118,85.126L476.789,84.113L476.78,85.18C476.53,85.277 476.355,85.518 476.352,85.8C476.348,86.173 476.648,86.477 477.019,86.481C477.392,86.485 477.696,86.184 477.7,85.814C477.702,85.533 477.533,85.291 477.29,85.187L477.298,84.129L477.944,85.144C478.057,85.321 478.4,85.149 478.288,84.971L477.306,83.429L477.313,82.715L478.528,84.457C478.714,84.722 479.273,84.465 479.088,84.201L477.38,81.756C477.363,81.731 477.343,81.711 477.322,81.694L477.326,81.094L477.973,81.953L477.975,81.955C477.973,81.969 477.973,81.984 477.972,81.998C477.969,82.412 478.299,82.748 478.712,82.752C479.125,82.756 479.463,82.425 479.468,82.012C479.47,81.733 479.317,81.486 479.09,81.357C479.087,81.347 479.086,81.339 479.082,81.332L478.675,80.322L479.194,80.63C479.196,80.659 479.206,80.692 479.219,80.722L480.433,83.445C480.565,83.74 481.073,83.393 480.941,83.098L480.071,81.145L480.682,81.508L481.507,83.156C481.599,83.345 481.924,83.14 481.829,82.951L481.288,81.862L482.206,82.406C482.167,82.67 482.285,82.943 482.53,83.088C482.851,83.277 483.263,83.169 483.452,82.847C483.641,82.527 483.536,82.114 483.215,81.925C482.973,81.783 482.678,81.808 482.469,81.966L481.557,81.431L482.757,81.378C482.968,81.369 482.99,80.987 482.778,80.995L480.953,81.074L480.338,80.712L482.455,80.529C482.777,80.501 482.835,79.889 482.513,79.917L479.543,80.173C479.512,80.176 479.484,80.183 479.458,80.193L478.942,79.889L480.008,79.759C480.029,79.756 480.05,79.75 480.066,79.739C480.167,79.792 480.281,79.822 480.404,79.824C480.817,79.828 481.154,79.496 481.158,79.083C481.162,78.672 480.83,78.334 480.419,78.33C480.25,78.328 480.095,78.382 479.968,78.475L478.948,78.332L479.473,78.035C479.5,78.048 479.531,78.057 479.565,78.059L482.531,78.37C482.851,78.403 482.804,77.79 482.483,77.757L480.359,77.535L480.98,77.184L482.816,77.296C483.028,77.31 483.011,76.925 482.801,76.913L481.588,76.839L482.516,76.315C482.725,76.481 483.022,76.515 483.269,76.374C483.594,76.191 483.708,75.78 483.525,75.456C483.34,75.132 482.93,75.018 482.605,75.201C482.361,75.339 482.236,75.607 482.267,75.869L481.348,76.39L481.903,75.324C482,75.137 481.679,74.927 481.581,75.114L480.737,76.735L480.116,77.085L481.016,75.161C481.153,74.868 480.652,74.513 480.515,74.804L479.253,77.506C479.239,77.533 479.232,77.56 479.226,77.588L478.706,77.884L479.115,76.919C479.362,76.797 479.53,76.547 479.534,76.255C479.536,75.842 479.204,75.504 478.793,75.501C478.381,75.497 478.045,75.828 478.039,76.239C478.037,76.242 478.032,76.246 478.029,76.251L477.363,77.103L477.369,76.501C477.392,76.484 477.413,76.463 477.432,76.437L479.185,74.024C479.374,73.762 478.82,73.498 478.631,73.758L477.377,75.482L477.384,74.769L478.397,73.239C478.513,73.063 478.173,72.885 478.057,73.061L477.39,74.068L477.401,73.007C477.647,72.908 477.822,72.669 477.824,72.386C477.829,72.014 477.53,71.711 477.158,71.706C476.786,71.705 476.481,72.002 476.478,72.374C476.474,72.656 476.646,72.9 476.89,73.002Z" style="fill:rgb(229,185,95);"/>
        <path d="M429.239,73.002L429.23,74.063L428.581,73.044C428.469,72.866 428.125,73.04 428.238,73.217L429.223,74.764L429.217,75.478L427.997,73.73C427.812,73.466 427.253,73.72 427.437,73.987L429.144,76.43C429.164,76.458 429.185,76.48 429.209,76.496L429.202,77.099L428.553,76.234C428.548,76.228 428.542,76.221 428.536,76.216C428.537,76.204 428.538,76.192 428.537,76.182C428.54,75.768 428.21,75.431 427.798,75.428C427.385,75.423 427.046,75.754 427.043,76.168C427.041,76.456 427.202,76.709 427.44,76.835C427.442,76.842 427.444,76.849 427.448,76.856L427.855,77.862L427.334,77.556C427.331,77.525 427.324,77.496 427.31,77.464L426.095,74.742C425.965,74.446 425.457,74.793 425.589,75.089L426.459,77.039L425.845,76.677L425.023,75.031C424.931,74.842 424.605,75.047 424.699,75.236L425.241,76.321L424.323,75.78C424.363,75.516 424.243,75.242 423.999,75.099C423.679,74.911 423.265,75.017 423.076,75.338C422.886,75.658 422.995,76.071 423.315,76.26C423.556,76.402 423.85,76.378 424.061,76.219L424.974,76.757L423.772,76.807C423.562,76.817 423.54,77.199 423.75,77.191L425.577,77.112L426.192,77.475L424.073,77.657C423.751,77.684 423.694,78.297 424.016,78.27L426.986,78.014C427.018,78.01 427.046,78.003 427.071,77.993L427.588,78.297L426.519,78.428L426.513,78.429C426.399,78.357 426.264,78.314 426.12,78.313C425.707,78.309 425.37,78.64 425.366,79.052C425.362,79.465 425.693,79.803 426.105,79.807C426.25,79.809 426.386,79.768 426.501,79.699L426.505,79.698L427.577,79.85L427.053,80.145C427.026,80.133 426.996,80.125 426.964,80.121L423.999,79.812C423.676,79.778 423.724,80.392 424.046,80.425L426.166,80.647L425.544,80.998L423.713,80.886C423.503,80.873 423.518,81.257 423.728,81.268L424.934,81.342L424.01,81.865C423.801,81.701 423.504,81.668 423.26,81.808C422.936,81.991 422.823,82.402 423.004,82.725C423.189,83.05 423.6,83.163 423.923,82.982C424.168,82.842 424.294,82.573 424.26,82.309L425.184,81.787L424.628,82.858C424.529,83.045 424.848,83.254 424.947,83.069L425.795,81.441L426.416,81.09L425.512,83.021C425.377,83.314 425.878,83.669 426.014,83.377L427.278,80.676C427.291,80.648 427.299,80.619 427.302,80.59L427.827,80.294L427.409,81.275C427.148,81.391 426.965,81.65 426.963,81.953C426.958,82.366 427.289,82.703 427.701,82.707C428.113,82.71 428.45,82.383 428.456,81.973C428.471,81.964 428.485,81.953 428.496,81.937L429.166,81.079L429.161,81.684C429.136,81.702 429.113,81.723 429.092,81.751L427.342,84.164C427.152,84.426 427.706,84.691 427.896,84.43L429.152,82.701L429.145,83.413L428.13,84.948C428.013,85.124 428.351,85.301 428.467,85.126L429.138,84.113L429.129,85.18C428.879,85.277 428.704,85.518 428.701,85.8C428.697,86.173 428.997,86.477 429.368,86.481C429.741,86.485 430.045,86.184 430.049,85.814C430.051,85.533 429.881,85.291 429.639,85.187L429.647,84.129L430.293,85.144C430.406,85.321 430.749,85.149 430.637,84.971L429.655,83.429L429.661,82.715L430.877,84.457C431.063,84.722 431.622,84.465 431.437,84.201L429.729,81.756C429.712,81.731 429.692,81.711 429.671,81.694L429.675,81.094L430.322,81.953L430.324,81.955C430.322,81.969 430.322,81.984 430.321,81.998C430.318,82.412 430.648,82.748 431.061,82.752C431.474,82.756 431.812,82.425 431.816,82.012C431.819,81.733 431.666,81.486 431.439,81.357C431.436,81.347 431.435,81.339 431.431,81.332L431.024,80.322L431.543,80.63C431.545,80.659 431.554,80.692 431.568,80.722L432.782,83.445C432.914,83.74 433.422,83.393 433.29,83.098L432.42,81.145L433.031,81.508L433.856,83.156C433.948,83.345 434.273,83.14 434.178,82.951L433.637,81.862L434.555,82.406C434.516,82.67 434.634,82.943 434.879,83.088C435.2,83.277 435.612,83.169 435.801,82.847C435.99,82.527 435.885,82.114 435.564,81.925C435.322,81.783 435.027,81.808 434.818,81.966L433.906,81.431L435.106,81.378C435.317,81.369 435.339,80.987 435.127,80.995L433.301,81.074L432.687,80.712L434.804,80.529C435.126,80.501 435.184,79.889 434.861,79.917L431.892,80.173C431.861,80.176 431.832,80.183 431.807,80.193L431.291,79.889L432.357,79.759C432.378,79.756 432.398,79.75 432.415,79.739C432.516,79.792 432.63,79.822 432.753,79.824C433.166,79.828 433.503,79.496 433.507,79.083C433.511,78.672 433.179,78.334 432.768,78.33C432.599,78.328 432.444,78.382 432.317,78.475L431.297,78.332L431.822,78.035C431.848,78.048 431.88,78.057 431.914,78.059L434.88,78.37C435.2,78.403 435.153,77.79 434.833,77.757L432.708,77.535L433.328,77.184L435.165,77.296C435.377,77.31 435.36,76.925 435.15,76.913L433.937,76.839L434.865,76.315C435.074,76.481 435.371,76.515 435.618,76.374C435.943,76.191 436.056,75.78 435.874,75.456C435.689,75.132 435.279,75.018 434.955,75.201C434.71,75.339 434.585,75.607 434.616,75.869L433.697,76.39L434.252,75.324C434.349,75.137 434.028,74.927 433.93,75.114L433.086,76.735L432.464,77.085L433.365,75.161C433.502,74.868 433.001,74.513 432.864,74.804L431.602,77.506C431.588,77.533 431.58,77.56 431.575,77.588L431.055,77.884L431.464,76.919C431.711,76.797 431.879,76.547 431.883,76.255C431.885,75.842 431.553,75.504 431.142,75.501C430.73,75.497 430.394,75.828 430.388,76.239C430.386,76.242 430.381,76.246 430.378,76.251L429.712,77.103L429.718,76.501C429.741,76.484 429.762,76.463 429.781,76.437L431.534,74.024C431.723,73.762 431.169,73.498 430.98,73.758L429.727,75.482L429.732,74.769L430.745,73.239C430.862,73.063 430.522,72.885 430.406,73.061L429.739,74.068L429.75,73.007C429.996,72.908 430.171,72.669 430.173,72.386C430.178,72.014 429.878,71.711 429.507,71.706C429.136,71.705 428.83,72.002 428.827,72.374C428.823,72.656 428.995,72.9 429.239,73.002Z" style="fill:rgb(229,185,95);"/>
        <path d="M346.991,200.823L347.398,201.541L346.565,201.107C346.42,201.031 346.255,201.281 346.401,201.356L347.666,202.016L347.94,202.5L346.437,201.797C346.21,201.69 345.933,202.079 346.16,202.188L348.26,203.17C348.285,203.181 348.307,203.186 348.329,203.189L348.56,203.597L347.786,203.267C347.78,203.265 347.773,203.262 347.768,203.261C347.764,203.253 347.76,203.246 347.754,203.238C347.597,202.958 347.242,202.859 346.964,203.018C346.683,203.175 346.584,203.53 346.742,203.81C346.854,204.005 347.06,204.112 347.27,204.105C347.274,204.109 347.278,204.113 347.282,204.116L347.949,204.636L347.478,204.632C347.465,204.613 347.449,204.595 347.427,204.579L345.55,203.217C345.346,203.069 345.14,203.501 345.343,203.648L346.688,204.624L346.134,204.619L344.94,203.829C344.804,203.738 344.664,204.002 344.801,204.093L345.588,204.614L344.76,204.607C344.683,204.413 344.497,204.275 344.277,204.274C343.987,204.271 343.749,204.503 343.747,204.793C343.745,205.082 343.977,205.319 344.267,205.322C344.485,205.324 344.673,205.193 344.754,205.003L345.577,205.011L344.787,205.513C344.649,205.601 344.783,205.867 344.922,205.78L346.122,205.017L346.677,205.021L345.321,205.968C345.116,206.111 345.315,206.547 345.521,206.404L347.422,205.075C347.442,205.061 347.458,205.046 347.471,205.029L347.938,205.033L347.269,205.535L347.265,205.539C347.16,205.535 347.053,205.558 346.955,205.613C346.675,205.772 346.576,206.126 346.735,206.405C346.893,206.685 347.248,206.783 347.527,206.626C347.624,206.571 347.7,206.491 347.75,206.4L347.753,206.398L348.534,206.083L348.296,206.487C348.273,206.489 348.25,206.494 348.227,206.504L346.108,207.449C345.879,207.551 346.15,207.946 346.379,207.843L347.893,207.169L347.611,207.647L346.334,208.284C346.187,208.357 346.347,208.61 346.493,208.536L347.334,208.117L346.914,208.828C346.71,208.798 346.499,208.892 346.387,209.08C346.24,209.329 346.324,209.652 346.572,209.798C346.822,209.945 347.143,209.862 347.29,209.613C347.401,209.425 347.381,209.194 347.256,209.03L347.676,208.318L347.717,209.256C347.722,209.42 348.02,209.438 348.015,209.275L347.952,207.849L348.234,207.37L348.376,209.022C348.399,209.272 348.875,209.317 348.853,209.067L348.654,206.757C348.652,206.731 348.645,206.708 348.638,206.688L348.875,206.284L348.976,207.109C348.844,207.287 348.821,207.533 348.938,207.739C349.096,208.019 349.451,208.117 349.73,207.959C350.008,207.802 350.107,207.45 349.952,207.172C349.959,207.159 349.964,207.146 349.966,207.131L350.083,206.293L350.315,206.703C350.305,206.724 350.297,206.748 350.294,206.774L350.053,209.081C350.027,209.331 350.504,209.295 350.53,209.045L350.704,207.392L350.977,207.874L350.889,209.304C350.878,209.467 351.177,209.454 351.187,209.291L351.245,208.349L351.653,209.07C351.523,209.233 351.497,209.463 351.605,209.656C351.748,209.908 352.069,209.996 352.32,209.854C352.572,209.712 352.66,209.392 352.519,209.14C352.411,208.949 352.203,208.852 352,208.877L351.594,208.16L352.424,208.593C352.568,208.669 352.733,208.42 352.587,208.343L351.326,207.686L351.053,207.202L352.55,207.904C352.777,208.01 353.055,207.619 352.827,207.514L350.725,206.53C350.705,206.52 350.683,206.514 350.662,206.511L350.432,206.105L351.202,206.432L351.203,206.433C351.208,206.443 351.213,206.453 351.219,206.463C351.377,206.743 351.732,206.841 352.012,206.683C352.291,206.525 352.389,206.171 352.231,205.891C352.124,205.702 351.926,205.595 351.722,205.597C351.717,205.59 351.712,205.586 351.708,205.583L351.041,205.061L351.51,205.066C351.524,205.085 351.541,205.103 351.562,205.119L353.439,206.481C353.643,206.629 353.85,206.197 353.647,206.049L352.301,205.072L352.854,205.078L354.049,205.869C354.186,205.959 354.325,205.695 354.188,205.605L353.4,205.082L354.23,205.091C354.306,205.284 354.493,205.422 354.713,205.424C355.003,205.427 355.239,205.194 355.242,204.904C355.245,204.616 355.013,204.377 354.722,204.375C354.504,204.373 354.315,204.505 354.236,204.694L353.413,204.687L354.201,204.185C354.34,204.096 354.206,203.831 354.067,203.919L352.867,204.682L352.312,204.676L353.669,203.73C353.875,203.586 353.674,203.151 353.469,203.295L351.567,204.623C351.547,204.637 351.532,204.652 351.518,204.669L351.051,204.665L351.72,204.162C351.733,204.153 351.743,204.14 351.751,204.127C351.84,204.123 351.929,204.099 352.013,204.053C352.292,203.894 352.389,203.54 352.231,203.26C352.074,202.982 351.72,202.883 351.441,203.04C351.326,203.105 351.243,203.202 351.193,203.313L350.45,203.613L350.689,203.209C350.711,203.207 350.736,203.201 350.762,203.19L352.879,202.246C353.109,202.145 352.838,201.748 352.609,201.851L351.091,202.528L351.373,202.051L352.653,201.411C352.802,201.338 352.641,201.086 352.495,201.159L351.649,201.581L352.07,200.867C352.277,200.897 352.489,200.804 352.601,200.615C352.747,200.365 352.665,200.043 352.416,199.896C352.165,199.749 351.844,199.832 351.698,200.082C351.587,200.27 351.606,200.499 351.73,200.663L351.312,201.372L351.272,200.438C351.264,200.275 350.967,200.257 350.974,200.421L351.035,201.842L350.753,202.32L350.611,200.673C350.589,200.422 350.113,200.377 350.135,200.627L350.335,202.938C350.336,202.962 350.342,202.984 350.349,203.004L350.112,203.405L350.014,202.596C350.133,202.419 350.149,202.184 350.037,201.987C349.879,201.707 349.524,201.608 349.245,201.766C348.967,201.924 348.868,202.278 349.024,202.556C349.024,202.561 349.023,202.565 349.022,202.57L348.905,203.401L348.675,202.994C348.685,202.974 348.69,202.951 348.694,202.926L348.934,200.619C348.961,200.368 348.484,200.406 348.458,200.655L348.285,202.304L348.012,201.821L348.098,200.397C348.109,200.233 347.81,200.245 347.801,200.408L347.743,201.346L347.337,200.627C347.465,200.464 347.49,200.235 347.381,200.044C347.239,199.793 346.92,199.703 346.667,199.846C346.417,199.989 346.326,200.308 346.469,200.56C346.576,200.751 346.786,200.848 346.991,200.823Z" style="fill:white;"/>
        <path d="M555.848,200.823L556.255,201.541L555.422,201.107C555.277,201.031 555.112,201.281 555.258,201.356L556.523,202.016L556.797,202.5L555.294,201.797C555.067,201.69 554.79,202.079 555.017,202.188L557.117,203.17C557.142,203.181 557.164,203.186 557.186,203.189L557.417,203.597L556.643,203.267C556.637,203.265 556.63,203.262 556.625,203.261C556.621,203.253 556.617,203.246 556.611,203.238C556.454,202.958 556.099,202.859 555.82,203.018C555.54,203.175 555.441,203.53 555.599,203.81C555.71,204.005 555.917,204.112 556.127,204.105C556.131,204.109 556.134,204.113 556.139,204.116L556.806,204.636L556.335,204.632C556.322,204.613 556.306,204.595 556.284,204.579L554.407,203.217C554.203,203.069 553.997,203.501 554.2,203.648L555.545,204.624L554.991,204.619L553.797,203.829C553.661,203.738 553.521,204.002 553.658,204.093L554.445,204.614L553.617,204.607C553.54,204.413 553.354,204.275 553.134,204.274C552.844,204.271 552.606,204.503 552.604,204.793C552.602,205.082 552.834,205.319 553.124,205.322C553.342,205.324 553.53,205.193 553.611,205.003L554.434,205.011L553.644,205.513C553.506,205.601 553.64,205.867 553.779,205.78L554.979,205.017L555.534,205.021L554.178,205.968C553.973,206.111 554.172,206.547 554.378,206.404L556.279,205.075C556.299,205.061 556.315,205.046 556.328,205.029L556.795,205.033L556.126,205.535L556.122,205.539C556.017,205.535 555.91,205.558 555.812,205.613C555.532,205.772 555.433,206.126 555.592,206.405C555.75,206.685 556.105,206.783 556.384,206.626C556.481,206.571 556.557,206.491 556.607,206.4L556.61,206.398L557.391,206.083L557.153,206.487C557.13,206.489 557.107,206.494 557.084,206.504L554.965,207.449C554.736,207.551 555.007,207.946 555.236,207.843L556.75,207.169L556.468,207.647L555.191,208.284C555.044,208.357 555.204,208.61 555.35,208.536L556.191,208.117L555.771,208.828C555.567,208.798 555.356,208.892 555.244,209.08C555.097,209.329 555.181,209.652 555.429,209.798C555.679,209.945 556,209.862 556.147,209.613C556.258,209.425 556.238,209.194 556.113,209.03L556.533,208.318L556.574,209.256C556.579,209.42 556.877,209.438 556.872,209.275L556.809,207.849L557.091,207.37L557.233,209.022C557.256,209.272 557.732,209.317 557.71,209.067L557.511,206.757C557.509,206.731 557.502,206.708 557.495,206.688L557.732,206.284L557.833,207.109C557.701,207.287 557.678,207.533 557.795,207.739C557.953,208.019 558.307,208.117 558.587,207.959C558.865,207.802 558.964,207.45 558.809,207.172C558.816,207.159 558.82,207.146 558.823,207.131L558.94,206.293L559.172,206.703C559.162,206.724 559.154,206.748 559.151,206.774L558.911,209.081C558.884,209.331 559.361,209.295 559.387,209.045L559.561,207.392L559.834,207.874L559.746,209.304C559.735,209.467 560.034,209.454 560.044,209.291L560.102,208.349L560.51,209.07C560.38,209.233 560.354,209.463 560.462,209.656C560.605,209.908 560.926,209.996 561.177,209.854C561.429,209.712 561.517,209.392 561.376,209.14C561.268,208.949 561.06,208.852 560.857,208.877L560.451,208.16L561.281,208.593C561.425,208.669 561.59,208.42 561.444,208.343L560.183,207.686L559.91,207.202L561.407,207.904C561.634,208.01 561.912,207.619 561.684,207.514L559.582,206.53C559.562,206.52 559.54,206.514 559.519,206.511L559.289,206.105L560.059,206.432L560.06,206.433C560.065,206.443 560.07,206.453 560.076,206.463C560.234,206.743 560.589,206.841 560.869,206.683C561.148,206.525 561.246,206.171 561.088,205.891C560.981,205.702 560.783,205.595 560.579,205.597C560.574,205.59 560.569,205.586 560.565,205.583L559.898,205.061L560.367,205.066C560.381,205.085 560.398,205.103 560.419,205.119L562.296,206.481C562.5,206.629 562.707,206.197 562.504,206.049L561.158,205.072L561.711,205.078L562.906,205.869C563.043,205.959 563.182,205.695 563.045,205.605L562.257,205.082L563.087,205.091C563.163,205.284 563.35,205.422 563.57,205.424C563.86,205.427 564.096,205.194 564.099,204.904C564.102,204.616 563.869,204.377 563.579,204.375C563.361,204.373 563.172,204.505 563.093,204.694L562.27,204.687L563.058,204.185C563.197,204.096 563.063,203.831 562.924,203.919L561.724,204.682L561.169,204.676L562.526,203.73C562.732,203.586 562.531,203.151 562.326,203.295L560.424,204.623C560.404,204.637 560.389,204.652 560.375,204.669L559.908,204.665L560.577,204.162C560.59,204.153 560.6,204.14 560.608,204.127C560.697,204.123 560.786,204.099 560.87,204.053C561.149,203.894 561.246,203.54 561.088,203.26C560.931,202.982 560.577,202.883 560.298,203.04C560.183,203.105 560.1,203.202 560.05,203.313L559.307,203.613L559.546,203.209C559.568,203.207 559.593,203.201 559.619,203.19L561.736,202.246C561.966,202.145 561.695,201.748 561.466,201.851L559.948,202.528L560.23,202.051L561.51,201.411C561.659,201.338 561.498,201.086 561.352,201.159L560.506,201.581L560.927,200.867C561.134,200.897 561.346,200.804 561.458,200.615C561.604,200.365 561.522,200.043 561.273,199.896C561.022,199.749 560.701,199.832 560.555,200.082C560.444,200.27 560.463,200.499 560.587,200.663L560.169,201.372L560.129,200.438C560.121,200.275 559.824,200.257 559.831,200.421L559.892,201.842L559.61,202.32L559.468,200.673C559.446,200.422 558.97,200.377 558.992,200.627L559.192,202.938C559.193,202.962 559.199,202.984 559.206,203.004L558.969,203.405L558.871,202.596C558.99,202.419 559.006,202.184 558.894,201.987C558.736,201.707 558.381,201.608 558.102,201.766C557.824,201.924 557.725,202.278 557.881,202.556C557.881,202.561 557.88,202.565 557.879,202.57L557.761,203.401L557.532,202.994C557.542,202.974 557.547,202.951 557.55,202.926L557.791,200.619C557.818,200.368 557.341,200.406 557.315,200.655L557.142,202.304L556.869,201.821L556.955,200.397C556.966,200.233 556.667,200.245 556.658,200.408L556.6,201.346L556.194,200.627C556.322,200.464 556.346,200.235 556.238,200.044C556.096,199.793 555.777,199.703 555.524,199.846C555.274,199.989 555.183,200.308 555.326,200.56C555.433,200.751 555.643,200.848 555.848,200.823Z" style="fill:white;"/>
        <path d="M550.634,205.181L357.355,205.181L357.355,205.402L550.634,205.402L550.634,205.181ZM550.634,204.812L357.355,204.812L357.355,204.298L550.634,204.298L550.634,204.812Z" style="fill:white;"/>
        <path d="M371.746,194.023C377.073,192.341 380.601,192.226 385.69,194.023L385.69,191.365C384.472,191.365 382.607,190.942 382.604,188.879L382.592,154.628C382.592,152.532 384.472,152.144 385.69,152.144L385.69,149.484C380.601,150.904 377.075,150.85 371.746,149.484L371.746,152.144C373.148,152.144 374.847,152.462 374.847,154.365L374.847,170.424L364.999,170.424L364.999,154.628C364.999,152.398 366.82,152.144 368.095,152.144L368.095,149.484C363.102,150.671 359.613,150.85 354.152,149.484L354.152,152.144C355.434,152.144 357.25,152.462 357.25,154.366L357.25,189.141C357.25,190.741 355.363,191.365 354.152,191.365L354.152,194.023C359.598,192.394 363.116,192.406 368.095,194.023L368.095,191.365C366.924,191.365 365.012,190.87 365.011,188.879L364.999,173.084L374.847,173.084L374.847,189.142C374.847,190.765 373.148,191.365 371.746,191.365L371.746,194.023Z" style="fill:white;"/>
        <path d="M400.395,154.628L400.385,170.424L402.273,170.424C404.862,170.424 407.969,166.51 407.969,159.917C407.969,153.322 404.835,152.144 402.996,152.144C401.157,152.144 400.396,152.532 400.395,154.628ZM389.537,149.484C395.429,150.816 398.877,150.612 404.085,149.484C407.85,148.667 415.451,149.484 415.717,159.917C415.942,168.718 410.817,171.707 406.354,172.664C417.336,174.853 412.39,191.365 418.087,191.365L418.087,194.023C413.945,194.023 411.382,193.131 410.298,191.365C406.197,184.666 410.88,176.117 400.385,173.084L400.385,188.879C400.385,190.664 402.356,191.365 403.481,191.365L403.481,194.023C398.506,192.024 394.98,192.08 389.537,194.023L389.537,191.365C390.847,191.365 392.636,190.566 392.636,189.141L392.636,154.366C392.636,152.438 390.674,152.144 389.537,152.144L389.537,149.484Z" style="fill:white;"/>
        <path d="M420.165,194.023C425.497,192.46 429.011,192.572 434.107,194.023L434.107,191.365C433.019,191.365 431.022,190.956 431.02,188.879L431.009,154.628C431.018,152.502 432.267,152.144 434.107,152.144L434.107,149.484C429.005,150.462 425.501,150.595 420.165,149.484L420.165,152.144C421.223,152.144 423.261,152.384 423.261,154.366L423.261,189.141C423.261,191.047 421.26,191.365 420.165,191.365L420.165,194.023Z" style="fill:white;"/>
        <path d="M457.198,151.38C456.181,150.452 453.496,148.618 449.128,148.618C442.298,148.618 437.828,154.53 437.828,161.734C437.828,168.382 442.157,172.162 446.554,175.702C450.074,178.533 451.947,181.242 451.947,185.193C451.947,189.348 450.167,192.228 447.396,192.189C443.171,192.126 441.663,187.861 440.495,183.611L437.847,183.611L438.418,192.126C439.16,192.542 440.752,193.542 442.054,194.057C443.373,194.579 444.871,194.889 446.506,194.889C455.659,194.889 457.785,188.934 457.785,181.382C457.785,174.524 453.594,171.27 448.885,167.611C445.033,164.619 444.132,161.919 444.132,157.97C444.132,153.952 446.061,151.25 448.385,151.25C452.146,151.25 454.097,155.603 455.137,159.896L457.785,159.896L457.198,151.38Z" style="fill:white;"/>
        <path d="M460.645,160.788L461.172,148.764L463.241,148.764C463.571,149.42 464.634,149.76 465.788,149.932C471.054,150.708 476.264,150.939 481.7,149.932C482.933,149.704 483.38,149.488 483.537,148.764L485.607,148.764L486.132,160.788L483.475,160.788C483.199,159.593 482.86,152.598 480.2,152.592L477.252,152.592L477.252,188.879C477.252,190.751 478.894,191.365 480.346,191.365L480.346,194.023C475.257,192.478 471.732,192.553 466.405,194.023L466.405,191.365C467.557,191.365 469.505,190.781 469.505,189.007L469.505,152.592L466.602,152.592C463.944,152.598 463.591,159.545 463.305,160.788L460.645,160.788Z" style="fill:white;"/>
        <path d="M502.194,149.484L502.194,152.144C500.935,152.144 499.689,153.285 500.32,155.402L507.163,178.364L513.047,154.688C513.456,153.045 512.727,152.144 511.88,152.144L511.88,149.484C516.976,150.904 520.492,150.914 525.823,149.484L525.823,152.144C524.765,152.144 522.726,151.838 522.737,154.628L522.726,188.879C522.726,189.88 523.043,191.365 525.823,191.365L525.823,194.023C520.735,192.432 517.208,192.526 511.88,194.023L511.88,191.365C513.021,191.365 514.977,191.527 514.977,189.151L514.977,158.722L505.857,194.023L503.495,194.023L494.016,162.395L494.016,188.879C494.016,191.671 495.953,191.365 497.104,191.365L497.104,194.023C493.941,192.949 491.341,192.961 488.254,194.023L488.254,191.365C489.31,191.365 491.36,191.536 491.36,188.879L491.36,154.628C491.351,151.972 489.458,152.144 488.254,152.144L488.254,149.484C493.586,150.941 497.102,150.88 502.194,149.484Z" style="fill:white;"/>
        <path d="M580.009,151.38C578.995,150.452 576.309,148.618 571.941,148.618C565.114,148.618 560.642,154.53 560.642,161.734C560.642,168.382 564.97,172.162 569.367,175.702C572.885,178.533 574.759,181.242 574.759,185.193C574.759,189.348 572.98,192.228 570.208,192.189C565.982,192.126 564.474,187.861 563.308,183.611L560.66,183.611L561.23,192.126C561.971,192.542 563.565,193.542 564.865,194.057C566.187,194.579 567.686,194.889 569.319,194.889C578.473,194.889 580.6,188.934 580.6,181.382C580.6,174.524 576.405,171.27 571.694,167.611C567.845,164.619 566.942,161.919 566.942,157.97C566.942,153.952 568.871,151.25 571.197,151.25C574.957,151.25 576.91,155.603 577.947,159.896L580.6,159.896L580.009,151.38Z" style="fill:white;"/>
        <path d="M535.736,149.484C540.926,151.019 544.255,150.802 549.679,149.484L549.679,152.144C548.392,152.144 547.361,153.26 547.856,155.658L554.724,188.879C555.111,190.765 556.966,191.365 557.956,191.365L557.956,194.023C552.573,192.568 549.409,192.629 544.016,194.023L544.016,191.365C545.265,191.365 547.337,190.627 546.824,188.149L545.461,181.556L535.403,181.556L533.972,189.466C533.63,191.361 536.096,191.365 537.022,191.365L537.022,194.023C533.972,193.039 531.387,192.873 528.172,194.023L528.172,191.365C529.505,191.365 531.15,190.355 531.418,188.879L537.373,155.97C537.944,152.805 536.457,152.144 535.736,152.144L535.736,149.484ZM535.884,178.895L544.91,178.895L540.098,155.603L535.884,178.895Z" style="fill:white;"/>
        <path d="M350.26,151.38C349.243,150.452 344.716,148.618 340.345,148.618C326.327,148.618 325.393,161.779 325.346,172.574C325.301,183.351 326.458,194.889 340.345,194.889C344.716,194.889 349.243,193.057 350.26,192.126L350.848,183.611L348.198,183.611C347.159,187.905 344.121,192.258 340.363,192.258C333.514,192.258 333.033,177.38 333.077,172.27C333.128,166.422 332.941,151.25 340.363,151.25C344.121,151.25 347.159,155.603 348.198,159.896L350.848,159.896L350.26,151.38Z" style="fill:white;"/>
        <path d="M501.024,134.367C505.605,132.982 508.633,132.961 513.012,134.367L513.012,132.082C511.95,132.082 510.361,131.794 510.359,129.946L510.35,118.806L516.104,100.496C516.373,99.646 517.992,98.359 519.185,98.359L519.185,96.071C516.469,97.115 514.229,97.027 511.577,96.071L511.577,98.359C513.077,98.359 514.283,99.014 513.818,100.496L509.191,115.219L509.044,115.219L504.599,100.496C504.318,99.568 504.605,98.359 506.839,98.359L506.839,96.071C502.546,97.19 499.544,97.348 494.853,96.071L494.853,98.359C496.911,98.359 497.686,99.663 497.937,100.496L503.688,119.549L503.688,130.17C503.688,131.723 502.022,132.082 501.024,132.082L501.024,134.367Z" style="fill:rgb(229,185,95);"/>
        <path d="M442.781,125.034L442.326,135.758L440.549,135.758C440.415,135.133 440.033,134.547 438.969,134.367C433.469,133.44 427.921,133.101 422.106,134.367L422.106,132.082C423.084,132.082 424.769,131.667 424.769,130.17L424.769,100.271C424.769,98.558 423.133,98.359 422.106,98.359L422.106,96.071C427.73,97.484 433.229,97.142 438.969,96.071C440.029,95.874 440.415,95.308 440.549,94.684L442.326,94.684L442.781,105.407L440.493,105.407C440.255,104.378 439.964,98.366 437.681,98.359L434.095,98.359C433.091,98.359 431.441,98.526 431.441,100.496L431.43,114.076L434.01,114.076C435.731,114.076 436.148,112.308 436.148,111.424L438.433,111.424C437.33,114.042 437.443,116.289 438.433,119.034L436.148,119.034C436.148,118.067 435.827,116.363 434.01,116.363L431.43,116.363L431.43,129.946C431.43,131.815 433.042,132.082 434.095,132.082L437.681,132.082C439.964,132.075 440.255,126.061 440.493,125.034L442.781,125.034Z" style="fill:rgb(229,185,95);"/>
        <path d="M454.287,100.496L454.275,114.076L455.901,114.076C458.126,114.076 460.797,110.712 460.797,105.041C460.797,99.373 458.103,98.359 456.521,98.359C454.938,98.359 454.289,98.692 454.287,100.496ZM444.95,96.071C449.879,97.122 452.846,97.018 457.458,96.071C460.701,95.406 467.231,96.071 467.458,105.041C467.653,112.609 463.245,115.179 459.412,116.003C468.852,117.885 464.6,132.082 469.497,132.082L469.497,134.367C465.937,134.367 463.731,133.6 462.801,132.082C459.275,126.322 463.301,118.973 454.275,116.363L454.275,129.946C454.275,131.48 455.972,132.082 456.938,132.082L456.938,134.367C452.649,133.236 449.645,133.107 444.95,134.367L444.95,132.082C446.077,132.082 447.615,131.396 447.615,130.17L447.615,100.271C447.615,98.613 445.926,98.359 444.95,98.359L444.95,96.071Z" style="fill:rgb(229,185,95);"/>
        <path d="M480.661,100.496L480.652,114.076L482.277,114.076C484.505,114.076 487.173,110.712 487.173,105.041C487.173,99.373 484.478,98.359 482.896,98.359C481.315,98.359 480.663,98.692 480.661,100.496ZM471.325,96.071C476.044,96.863 479.032,97.08 483.833,96.071C487.075,95.393 493.604,96.071 493.835,105.041C494.029,112.609 489.622,115.179 485.786,116.003C495.228,117.885 490.975,132.082 495.873,132.082L495.873,134.367C492.313,134.367 490.106,133.6 489.176,132.082C485.648,126.322 489.675,118.973 480.652,116.363L480.652,129.946C480.652,131.48 482.347,132.082 483.315,132.082L483.315,134.367C478.836,133.292 475.81,133.249 471.325,134.367L471.325,132.082C472.451,132.082 473.989,131.396 473.989,130.17L473.989,100.271C473.989,98.613 472.3,98.359 471.325,98.359L471.325,96.071Z" style="fill:rgb(229,185,95);"/>
        <path d="M398.749,96.071L398.749,98.359C397.664,98.359 396.594,99.341 397.136,101.159L403.021,120.904L408.081,100.548C408.43,99.134 407.805,98.359 407.078,98.359L407.078,96.071C411.455,97.294 414.481,97.301 419.064,96.071L419.064,98.359C418.155,98.359 416.4,98.096 416.411,100.496L416.4,129.946C416.4,130.805 416.673,132.082 419.064,132.082L419.064,134.367C414.691,133.001 411.657,133.08 407.078,134.367L407.078,132.082C408.056,132.082 409.74,132.222 409.74,130.177L409.74,104.014L401.896,134.367L399.867,134.367L391.717,107.173L391.717,129.946C391.717,132.344 393.382,132.082 394.371,132.082L394.371,134.367C391.653,133.444 389.416,133.455 386.76,134.367L386.76,132.082C387.669,132.082 389.43,132.229 389.43,129.946L389.43,100.496C389.423,98.211 387.798,98.359 386.76,98.359L386.76,96.071C391.347,97.324 394.369,97.273 398.749,96.071Z" style="fill:rgb(229,185,95);"/>
        <path d="M469.049,242.741L469.044,248.216L469.713,248.216C470.63,248.216 471.729,246.86 471.729,244.574C471.729,242.29 470.62,241.881 469.969,241.881C469.318,241.881 469.05,242.014 469.049,242.741ZM465.206,240.959C467.292,241.421 468.511,241.349 470.355,240.959C471.686,240.676 474.377,240.959 474.471,244.574C474.551,247.626 472.737,248.661 471.158,248.993C475.044,249.751 473.294,255.473 475.31,255.473L475.31,256.395C473.844,256.395 472.937,256.086 472.553,255.473C471.102,253.152 472.759,250.19 469.044,249.138L469.044,254.613C469.044,255.232 469.743,255.473 470.141,255.473L470.141,256.395C468.38,255.702 467.133,255.722 465.206,256.395L465.206,255.473C465.67,255.473 466.304,255.198 466.304,254.703L466.304,242.652C466.304,241.983 465.609,241.881 465.206,241.881L465.206,240.959Z" style="fill:rgb(229,185,95);"/>
        <path d="M455.994,240.958C457.829,241.491 459.007,241.416 460.927,240.958L460.927,241.881C460.471,241.881 460.107,242.268 460.282,243.098L462.711,254.613C462.85,255.266 463.506,255.473 463.857,255.473L463.857,256.395C461.951,255.892 460.831,255.911 458.923,256.395L458.923,255.473C459.365,255.473 460.098,255.218 459.917,254.359L459.435,252.074L455.874,252.074L455.368,254.815C455.246,255.473 456.12,255.473 456.448,255.473L456.448,256.395C455.368,256.055 454.455,255.995 453.316,256.395L453.316,255.473C453.788,255.473 454.369,255.124 454.464,254.613L456.572,243.207C456.775,242.109 456.248,241.881 455.994,241.881L455.994,240.958ZM456.045,251.153L459.241,251.153L457.537,243.079L456.045,251.153Z" style="fill:rgb(229,185,95);"/>
        <path d="M435.219,256.396C437.105,255.837 438.35,255.828 440.152,256.396L440.152,255.473C439.716,255.473 439.061,255.359 439.06,254.613L439.056,250.123L441.426,242.741C441.535,242.4 442.202,241.881 442.693,241.881L442.693,240.959C441.575,241.378 440.653,241.343 439.561,240.959L439.561,241.881C440.18,241.881 440.676,242.145 440.486,242.741L438.58,248.678L438.52,248.678L436.69,242.741C436.574,242.367 436.692,241.881 437.612,241.881L437.612,240.959C435.845,241.411 434.61,241.474 432.678,240.959L432.678,241.881C433.525,241.881 433.844,242.407 433.948,242.741L436.315,250.422L436.315,254.703C436.315,255.33 435.63,255.473 435.219,255.473L435.219,256.396Z" style="fill:rgb(229,185,95);"/>
        <path d="M452.284,252.645L452.096,256.969L451.364,256.969C451.309,256.716 451.152,256.48 450.715,256.408C448.451,256.036 446.168,255.899 443.775,256.408L443.775,255.487C444.177,255.487 444.871,255.32 444.871,254.717L444.871,242.665C444.871,241.973 444.197,241.894 443.775,241.894L443.775,240.973C446.087,241.541 448.351,241.404 450.715,240.973C451.151,240.892 451.309,240.664 451.364,240.412L452.096,240.412L452.284,244.736L451.342,244.736C451.245,244.32 451.124,241.897 450.184,241.894L448.708,241.894C448.294,241.894 447.617,241.962 447.616,242.755L447.612,248.229L448.673,248.229C449.382,248.229 449.552,247.517 449.552,247.16L450.494,247.16C450.039,248.216 450.086,249.121 450.494,250.228L449.552,250.228C449.552,249.839 449.422,249.151 448.673,249.151L447.612,249.151L447.612,254.626C447.612,255.379 448.275,255.487 448.708,255.487L450.184,255.487C451.124,255.484 451.245,253.06 451.342,252.645L452.284,252.645Z" style="fill:rgb(229,185,95);"/>
        <path d="M432.103,233.782C433.987,233.199 435.237,233.16 437.036,233.782L437.036,232.86C436.606,232.86 435.944,232.714 435.944,232L435.941,220.128C435.941,219.401 436.606,219.268 437.036,219.268L437.036,218.345C435.236,218.838 433.987,218.819 432.103,218.345L432.103,219.268C432.598,219.268 433.198,219.378 433.198,220.037L433.198,225.604L429.715,225.604L429.715,220.128C429.715,219.357 430.359,219.268 430.811,219.268L430.811,218.345C429.044,218.756 427.809,218.82 425.877,218.345L425.877,219.268C426.33,219.268 426.973,219.378 426.973,220.039L426.973,232.09C426.973,232.645 426.306,232.86 425.877,232.86L425.877,233.782C427.803,233.218 429.049,233.222 430.811,233.782L430.811,232.86C430.396,232.86 429.719,232.688 429.719,232L429.715,226.525L433.198,226.525L433.198,232.092C433.198,232.653 432.598,232.86 432.103,232.86L432.103,233.782Z" style="fill:rgb(229,185,95);"/>
        <path d="M491.802,233.782C493.686,233.199 494.935,233.16 496.735,233.782L496.735,232.86C496.306,232.86 495.643,232.714 495.643,232L495.639,220.128C495.639,219.401 496.306,219.268 496.735,219.268L496.735,218.345C494.934,218.838 493.686,218.819 491.802,218.345L491.802,219.268C492.297,219.268 492.898,219.378 492.898,220.037L492.898,229.458L489.413,220.128C489.413,219.357 490.058,219.268 490.51,219.268L490.51,218.345C488.743,218.756 487.508,218.82 485.577,218.345L485.577,219.268C486.03,219.268 486.672,219.378 486.672,220.039L486.672,232.09C486.672,232.645 486.003,232.86 485.577,232.86L485.577,233.782C487.502,233.218 488.749,233.222 490.51,233.782L490.51,232.86C490.095,232.86 489.418,232.688 489.418,232L489.413,222.741L492.898,231.769L492.898,232.092C492.898,232.653 492.297,232.86 491.802,232.86L491.802,233.782Z" style="fill:rgb(229,185,95);"/>
        <path d="M512.833,233.835L515.895,223.772L518.388,233.863L521.129,233.862L522.754,220.128C522.754,219.783 522.867,219.268 523.851,219.268L523.851,218.346C522.05,218.897 520.802,218.865 518.918,218.346L518.918,219.268C519.32,219.268 520.013,219.211 520.013,220.035L518.659,230.582L515.432,218.346L514.596,218.346L511.243,229.309L510.119,220.128C510.119,219.162 510.803,219.268 511.21,219.268L511.21,218.346C510.092,218.719 509.171,218.714 508.078,218.346L508.078,219.268C508.453,219.268 509.178,219.209 509.178,220.128L510.795,233.835L512.833,233.835Z" style="fill:rgb(229,185,95);"/>
        <path d="M441.057,218.345C442.893,218.878 444.072,218.803 445.99,218.345L445.99,219.268C445.535,219.268 445.172,219.655 445.346,220.485L447.776,232C447.915,232.653 448.57,232.86 448.921,232.86L448.921,233.782C447.015,233.279 445.894,233.298 443.987,233.782L443.987,232.86C444.428,232.86 445.163,232.606 444.982,231.746L444.498,229.461L440.94,229.461L440.433,232.202C440.311,232.86 441.184,232.86 441.513,232.86L441.513,233.782C440.433,233.442 439.519,233.382 438.381,233.782L438.381,232.86C438.853,232.86 439.434,232.511 439.529,232L441.636,220.594C441.839,219.496 441.313,219.268 441.057,219.268L441.057,218.345ZM441.109,228.54L444.304,228.54L442.601,220.466L441.109,228.54Z" style="fill:rgb(229,185,95);"/>
        <path d="M401.8,233.782C403.683,233.199 404.931,233.16 406.733,233.782L406.733,232.86C406.302,232.86 405.641,232.714 405.641,232L405.636,220.128C405.636,219.401 406.302,219.268 406.733,219.268L406.733,218.345C404.931,218.838 403.684,218.819 401.8,218.345L401.8,219.268C402.294,219.268 402.895,219.378 402.895,220.037L402.895,229.458L399.409,220.128C399.409,219.357 400.054,219.268 400.505,219.268L400.505,218.345C398.74,218.756 397.505,218.82 395.573,218.345L395.573,219.268C396.026,219.268 396.669,219.378 396.669,220.039L396.669,232.09C396.669,232.645 396.001,232.86 395.573,232.86L395.573,233.782C397.499,233.218 398.745,233.222 400.505,233.782L400.505,232.86C400.092,232.86 399.415,232.688 399.413,232L399.409,222.741L402.895,231.769L402.895,232.092C402.895,232.653 402.294,232.86 401.8,232.86L401.8,233.782Z" style="fill:rgb(229,185,95);"/>
        <path d="M386.815,218.345C388.651,218.878 389.829,218.803 391.749,218.345L391.749,219.268C391.294,219.268 390.928,219.655 391.103,220.485L393.534,232C393.671,232.653 394.328,232.86 394.678,232.86L394.678,233.782C392.773,233.279 391.653,233.298 389.744,233.782L389.744,232.86C390.186,232.86 390.919,232.606 390.738,231.746L390.256,229.461L386.697,229.461L386.19,232.202C386.069,232.86 386.942,232.86 387.27,232.86L387.27,233.782C386.19,233.442 385.276,233.382 384.138,233.782L384.138,232.86C384.611,232.86 385.192,232.511 385.287,232L387.393,220.594C387.596,219.496 387.07,219.268 386.815,219.268L386.815,218.345ZM386.867,228.54L390.061,228.54L388.358,220.466L386.867,228.54Z" style="fill:rgb(229,185,95);"/>
        <path d="M472.131,233.782C474.017,233.224 475.264,233.215 477.065,233.782L477.065,232.86C476.629,232.86 475.974,232.746 475.974,232L475.97,227.51L478.338,220.128C478.447,219.787 479.115,219.268 479.606,219.268L479.606,218.345C478.487,218.765 477.566,218.73 476.474,218.345L476.474,219.268C477.093,219.268 477.589,219.532 477.397,220.128L475.491,226.064L475.431,226.064L473.602,220.128C473.488,219.754 473.605,219.268 474.525,219.268L474.525,218.345C472.757,218.798 471.523,218.86 469.59,218.345L469.59,219.268C470.439,219.268 470.757,219.794 470.861,220.128L473.226,227.809L473.226,232.09C473.226,232.717 472.542,232.86 472.131,232.86L472.131,233.782Z" style="fill:rgb(229,185,95);"/>
        <path d="M506.966,230.032L506.78,234.356L506.048,234.356C505.991,234.103 505.835,233.868 505.397,233.796C503.134,233.423 500.85,233.286 498.457,233.796L498.457,232.874C498.861,232.874 499.554,232.707 499.554,232.104L499.554,220.052C499.554,219.36 498.88,219.281 498.457,219.281L498.457,218.36C500.771,218.928 503.034,218.791 505.397,218.36C505.834,218.279 505.991,218.051 506.048,217.799L506.78,217.799L506.966,222.123L506.025,222.123C505.928,221.707 505.809,219.284 504.867,219.281L503.392,219.281C502.979,219.281 502.3,219.349 502.3,220.142L502.295,225.616L503.356,225.616C504.065,225.616 504.236,224.904 504.236,224.547L505.177,224.547C504.723,225.604 504.769,226.508 505.177,227.615L504.236,227.615C504.236,227.226 504.105,226.538 503.356,226.538L502.295,226.538L502.295,232.013C502.295,232.767 502.959,232.874 503.392,232.874L504.867,232.874C505.809,232.871 505.928,230.447 506.025,230.032L506.966,230.032Z" style="fill:rgb(229,185,95);"/>
        <path d="M453.705,220.128L453.7,225.604L454.368,225.604C455.286,225.604 456.386,224.247 456.386,221.961C456.386,219.677 455.276,219.268 454.624,219.268C453.974,219.268 453.705,219.401 453.705,220.128ZM449.863,218.346C451.89,218.769 453.113,218.728 455.01,218.346C456.345,218.078 459.033,218.346 459.126,221.961C459.207,225.013 457.402,226.093 455.814,226.38C454.878,226.549 454.211,226.556 453.7,226.525L453.7,232C453.7,232.619 454.398,232.86 454.797,232.86L454.797,233.782C453.031,233.326 451.793,233.275 449.863,233.782L449.863,232.86C450.326,232.86 450.958,232.585 450.958,232.09L450.958,220.039C450.958,219.37 450.265,219.268 449.863,219.268L449.863,218.346Z" style="fill:rgb(229,185,95);"/>
        <path d="M463.85,220.128L463.844,225.604L464.513,225.604C465.43,225.604 466.53,224.247 466.53,221.961C466.53,219.677 465.42,219.268 464.769,219.268C464.118,219.268 463.85,219.401 463.85,220.128ZM460.008,218.346C462.035,218.769 463.257,218.728 465.154,218.346C466.49,218.078 469.177,218.346 469.272,221.961C469.351,225.013 467.547,226.093 465.957,226.38C465.022,226.549 464.355,226.556 463.844,226.525L463.844,232C463.844,232.619 464.544,232.86 464.942,232.86L464.942,233.782C463.175,233.326 461.938,233.275 460.008,233.782L460.008,232.86C460.47,232.86 461.104,232.585 461.104,232.09L461.104,220.039C461.104,219.37 460.409,219.268 460.008,219.268L460.008,218.346Z" style="fill:rgb(229,185,95);"/>
        <path d="M412.89,232.836C412.24,232.836 411.971,232.701 411.971,231.974L411.969,230.657L411.966,230.657L411.966,226.525C411.968,226.232 411.966,225.604 411.966,225.604L411.971,220.128C411.971,219.401 412.24,219.268 412.89,219.268C413.363,219.268 414.248,219.441 414.434,220.479C414.908,223.139 414.904,228.603 414.532,231.277C414.35,232.589 413.414,232.836 412.89,232.836ZM417.165,220.479C416.805,218.201 414.399,218.121 413.276,218.346C411.378,218.728 410.158,218.769 408.129,218.346L408.129,219.268C408.53,219.268 409.224,219.37 409.224,220.039L409.224,232.065C409.224,232.734 408.53,232.836 408.129,232.836L408.129,233.757C410.158,233.335 411.378,233.376 413.276,233.757C414.468,233.996 416.957,233.841 417.277,231.184C417.599,228.527 417.583,223.125 417.165,220.479Z" style="fill:rgb(229,185,95);"/>
        <path d="M558.523,93.867C557.462,95.337 554.72,93.511 553.739,92.849C553.301,92.554 552.203,91.927 551.228,91.18C552.865,91.94 554.958,92.446 557.129,92.081C557.488,92.02 557.972,91.909 558.489,91.777C558.674,92.499 558.85,93.412 558.523,93.867ZM578.076,95.02C576.938,94.235 575.428,98.408 568.158,98.064C567.798,98.047 565.524,97.942 565.598,97.446C565.769,96.32 568.339,97.504 569.732,97.042C571.086,96.593 571.911,96.25 572.38,94.957C572.633,94.723 572.289,92.827 570.557,95.199C570.106,95.815 569.11,97.536 567.571,96.218C566.945,95.322 568.926,94.191 567.881,94C567.058,93.849 567.461,96.939 565.685,95.495C565.047,94.978 565.284,91.953 564.345,92.414C563.474,92.844 565.477,94.934 565.388,96.295C565.251,98.368 557.13,96.066 559.2,94.75C560.447,93.956 563.643,95.342 563.668,94.101C563.685,93.243 560.924,94.434 560.439,94.063C559.132,93.067 561.608,92.563 561.045,91.94C560.651,91.503 559.818,93.516 559.402,93.058C559.282,92.925 559.249,92.177 559.222,91.587C560.252,91.311 561.239,91.024 561.476,90.979C562.53,90.773 565.324,91.137 566.374,91.257C568.373,91.485 569.465,91.163 571.194,90.748C572.605,90.41 574.167,88.777 573.999,88.242C573.631,87.08 571.678,90.385 570.685,90.265C568.917,90.049 570.764,87.712 570.206,87.73C569.269,87.762 569.823,89.12 569.166,89.829C568.343,90.718 564.306,91.294 563.206,89.891C562.149,88.54 566.151,86.983 566.935,86.802C568.007,86.555 569.341,84.439 568.779,83.538C568.525,83.133 568.03,83.976 567.77,84.381C567.198,85.272 566.239,87.027 565.015,86.861C562.911,86.576 565.43,83.962 566.004,83.413C567.938,81.56 565.988,81.823 565.07,82.972C564.079,84.211 564.325,85.711 563.348,85.387C562.357,85.059 562.925,83.341 563.287,82.364C563.595,81.533 564.739,78.987 563.394,79.954C562.591,80.531 561.579,83.521 562.534,85.499C563.933,88.397 562.454,88.815 560.832,90.144C560.415,90.485 559.839,90.767 559.187,90.991C559.178,90.924 559.169,90.876 559.159,90.855C558.599,89.775 558.074,90.136 558.305,91.082C558.318,91.13 558.332,91.183 558.347,91.239C556.983,91.586 555.472,91.718 554.455,91.659C552.452,91.545 550.93,90.702 549.87,89.882C549.318,89.134 549.234,88.383 550.233,87.793C551.271,87.178 553.838,88.06 553.852,87.047C553.874,85.576 550.036,87.932 549.464,87.177C548.827,86.334 554.594,86.226 554.6,85.161C554.605,83.777 552.299,84.543 551.302,85.1C550.42,85.592 549.398,86.233 548.736,86.585C547.177,87.413 547.027,86.267 547.975,84.595C548.68,83.35 550.109,83.111 549.717,82.35C549.264,81.471 547.53,83.561 547.212,84.211C546.343,85.991 547.68,87.126 546.562,87.548C546.457,87.588 546.352,87.617 546.246,87.636C546.259,87.437 546.232,87.26 546.135,87.121C545.876,86.756 545.484,87.031 545.082,87.474C544.479,87.219 543.883,86.726 543.318,86.148C542.399,85.206 544.102,84.474 543.721,83.974C543.026,83.065 542.824,86.393 542.157,85.277C541.82,84.713 541.317,81.318 540.763,81.259C539.625,81.138 542.21,84.379 541.208,85.1C540.609,85.533 539.233,83.777 538.954,83.466C537.467,81.813 537.398,83.204 538.546,84.153C540,85.35 543.037,86.973 544.83,87.769C544.374,88.327 543.939,88.977 543.707,89.023C543.146,89.135 542.153,89.225 541.775,88.867C541.011,88.143 539.849,89.022 538.867,88.951C538.149,88.899 536.523,89.029 535.966,88.653C535.484,88.327 533.311,88.187 533.747,89.236C533.774,89.3 533.709,89.262 533.789,89.367C533.479,90.131 532.869,89.807 533.679,90.707C534.006,91.074 533.466,91.573 533.804,92.119C534.205,92.772 534.877,92.425 535.534,92.574C535.486,92.689 535.444,92.805 535.405,92.922C535.687,92.955 535.949,93.101 536.099,93.358C536.114,93.21 536.13,93.059 536.146,92.9C536.956,93.552 537.107,94.105 538.066,94.879C538.95,95.591 540.513,95.743 541.413,95.769C541.264,97.19 540.509,98.509 539.835,99.736C539.602,100.159 539.346,100.574 539.104,100.993C538.607,101.859 538.114,102.731 537.708,103.644C535.878,103.031 533.704,102.271 532.62,101.824C532.146,101.517 531.687,101.5 531.23,101.577C530.905,101.616 530.632,101.681 530.307,101.75C530.023,101.812 529.669,101.927 529.414,102.224C529.182,102.494 529.091,102.714 528.842,102.855C527.996,103.336 527.173,103.857 526.336,104.354C525.844,104.644 525.492,104.99 525.295,105.409C524.954,106.149 524.093,106.875 523.661,107.152C523.37,107.338 522.857,108.184 522.335,108.765C522.25,108.94 522.25,109.072 522.424,109.119C523.424,109.167 524.328,109.28 525.188,108.955C525.919,108.68 525.968,108.014 525.719,107.596C525.559,107.33 525.702,106.846 526.142,106.858C526.436,106.866 526.592,106.852 526.801,106.553C527.005,106.263 527.226,106.502 527.627,105.853C528.099,105.092 528.991,104.582 529.719,104.059C530.265,103.666 530.878,103.604 531.53,103.87C532.251,104.164 533.083,104.905 533.901,105.595C534.323,105.95 535.527,106.541 536.604,107.066C536.617,107.791 536.802,108.548 537.192,109.335C536.045,109.529 534.713,109.727 533.993,109.91C532.882,110.021 532.774,110.478 532.627,110.963C532.392,111.731 532.355,112.261 532.81,112.834C533.668,114.046 534.917,114.905 535.689,116.123C536.416,116.901 537.257,117.513 538.125,118.109C538.557,118.406 539.107,119.006 539.481,119.174C539.919,119.373 540.826,119.847 541.543,120.056C541.946,120.174 542.154,119.833 542.101,119.505C541.877,118.136 541.049,116.595 540.672,116.372C540.241,116.116 539.645,116.725 539.302,117.112C539.145,117.287 538.806,117.117 538.727,116.628C538.633,116.028 538.097,115.252 537.194,114.94C536.266,114.155 535.401,113.322 534.893,112.357C534.779,112.084 534.945,111.94 535.277,112.033C536.241,112.207 538.308,112.433 539.761,112.474C540.268,112.917 540.84,113.368 541.488,113.824C543.839,117.375 548.146,120.109 549.329,120.781C550.955,121.707 553.804,123.117 556.961,123.05C557.582,122.988 558.122,122.983 558.594,123.023C559.055,124.045 559.335,125.243 559.554,126.499C559.631,127.402 560.251,128.288 561.197,129.165C562.28,130.731 563.318,132.355 564.101,134.123C564.287,134.543 564.364,135.052 564.536,135.462C564.708,135.87 564.974,136.181 565.112,136.571C565.556,137.843 565.743,139.222 565.5,140.581C565.342,141.47 565.347,142.336 565.808,143.058C566.064,143.458 566.248,143.918 566.314,144.465C566.094,144.831 566.587,145.677 566.861,146.375C567.073,146.908 567.557,147.143 567.834,146.661C568.315,145.821 568.672,145 568.638,143.971C568.62,143.468 568.094,143.58 567.643,143.683C567.58,143.697 567.517,143.712 567.461,143.724C567.035,143.843 566.934,143.46 567.45,142.741C567.731,142.348 567.557,142.218 567.386,141.722C566.618,139.473 566.683,137.079 567.146,134.772C567.259,134.21 566.953,133.756 566.481,133.135C565.645,132.033 565.327,130.68 565.191,129.297C566.378,129.624 567.545,129.817 568.008,129.841C568.99,129.89 569.695,130.147 569.917,131.155C570.075,131.861 570.476,132.346 570.5,133.044C570.53,133.872 570.459,134.829 570.534,135.655C570.601,136.379 570.872,136.67 571.303,137.025C571.524,137.206 571.623,137.419 571.734,137.648C571.925,138.04 572.209,138.382 572.419,138.765C572.561,139.024 572.737,139.207 572.955,139.349C573.448,139.673 573.9,140.067 574.422,140.344C574.694,140.488 574.986,140.372 575.058,140.001C575.262,138.925 574.936,138.033 574.453,137.248C574.181,136.807 573.738,136.665 573.372,136.882C573.091,137.048 572.63,137.077 572.803,136.658C573.005,136.17 572.774,136.073 572.79,135.57C572.818,134.659 572.114,134.388 571.777,133.059C571.494,131.946 571.32,130.803 571.426,129.654C571.509,128.729 570.978,128.148 570.125,127.849C569.807,127.737 569.475,127.658 569.152,127.558C568.76,127.435 568.406,127.23 568.024,127.08C567.292,126.793 566.654,126.478 566.26,125.86C566.561,125.478 566.762,125.046 567.02,124.638C567.245,124.281 567.449,123.959 567.598,123.551C567.755,123.127 567.865,122.685 567.92,122.237C567.934,122.118 567.946,120.833 567.903,120.845C569.212,120.5 570.297,119.895 570.116,119.183C569.941,118.483 567.887,118.874 566.98,117.946C565.786,115.568 563.452,114.342 560.884,112.751C557.999,110.966 556.185,109.376 555.414,106.948C554.973,105.556 553.816,103.778 552.621,103.225C551.569,102.74 550.492,102.315 549.475,101.759C548.56,101.257 548.198,100.433 547.952,99.449C547.802,98.854 547.823,98.299 547.785,97.69C547.679,95.926 547.717,94.155 547.51,92.383C547.852,92.153 548.1,92.102 548.476,91.991C549.654,91.645 550.514,90.814 549.037,90.841C548.417,90.852 547.959,90.983 547.548,91.024C548.382,90.235 549.081,90.137 550.22,91.011C551.674,92.129 552.275,92.854 553.823,93.911C556.798,95.942 561.412,98.067 568.707,98.563C569.887,98.643 575.076,98.023 576.826,96.932C578.247,96.047 578.594,95.377 578.076,95.02Z" style="fill:white;fill-rule:nonzero;"/>
        <path d="M347.867,93.867C348.926,95.337 351.669,93.511 352.65,92.849C353.087,92.554 354.187,91.927 355.161,91.18C353.525,91.94 351.431,92.446 349.258,92.081C348.9,92.02 348.417,91.909 347.899,91.777C347.715,92.499 347.538,93.412 347.867,93.867ZM328.313,95.02C329.45,94.235 330.961,98.408 338.23,98.064C338.59,98.047 340.864,97.942 340.79,97.446C340.62,96.32 338.05,97.504 336.655,97.042C335.302,96.593 334.477,96.25 334.008,94.957C333.754,94.723 334.099,92.827 335.832,95.199C336.283,95.815 337.278,97.536 338.817,96.218C339.443,95.322 337.463,94.191 338.506,94C339.331,93.849 338.928,96.939 340.703,95.495C341.341,94.978 341.103,91.953 342.042,92.414C342.914,92.844 340.912,94.934 341.001,96.295C341.137,98.368 349.257,96.066 347.189,94.75C345.942,93.956 342.745,95.342 342.721,94.101C342.704,93.243 345.463,94.434 345.949,94.063C347.257,93.067 344.779,92.563 345.342,91.94C345.738,91.503 346.571,93.516 346.987,93.058C347.107,92.925 347.14,92.177 347.164,91.587C346.134,91.311 345.15,91.024 344.912,90.979C343.857,90.773 341.065,91.137 340.014,91.257C338.015,91.485 336.923,91.163 335.193,90.748C333.784,90.41 332.222,88.777 332.391,88.242C332.757,87.08 334.712,90.385 335.702,90.265C337.471,90.049 335.625,87.712 336.183,87.73C337.121,87.762 336.566,89.12 337.222,89.829C338.045,90.718 342.082,91.294 343.181,89.891C344.241,88.54 340.238,86.983 339.453,86.802C338.382,86.555 337.046,84.439 337.61,83.538C337.864,83.133 338.357,83.976 338.616,84.381C339.19,85.272 340.15,87.027 341.372,86.861C343.477,86.576 340.958,83.962 340.386,83.413C338.45,81.56 340.401,81.823 341.319,82.972C342.308,84.211 342.063,85.711 343.041,85.387C344.032,85.059 343.462,83.341 343.1,82.364C342.794,81.533 341.651,78.987 342.996,79.954C343.798,80.531 344.809,83.521 343.853,85.499C342.455,88.397 343.935,88.815 345.558,90.144C345.971,90.485 346.551,90.767 347.202,90.991C347.211,90.924 347.22,90.876 347.23,90.855C347.789,89.775 348.315,90.136 348.081,91.082C348.069,91.13 348.057,91.183 348.043,91.239C349.404,91.586 350.916,91.718 351.935,91.659C353.937,91.545 355.458,90.702 356.518,89.882C357.071,89.134 357.153,88.383 356.156,87.793C355.118,87.178 352.549,88.06 352.535,87.047C352.515,85.576 356.351,87.932 356.925,87.177C357.562,86.334 351.795,86.226 351.79,85.161C351.782,83.777 354.09,84.543 355.086,85.1C355.968,85.592 356.991,86.233 357.652,86.585C359.212,87.413 359.362,86.267 358.414,84.595C357.709,83.35 356.281,83.111 356.672,82.35C357.124,81.471 358.856,83.561 359.176,84.211C360.045,85.991 358.708,87.126 359.827,87.548C359.93,87.588 360.036,87.617 360.142,87.636C360.13,87.437 360.155,87.26 360.255,87.121C360.512,86.756 360.904,87.031 361.307,87.474C361.91,87.219 362.506,86.726 363.069,86.148C363.989,85.206 362.284,84.474 362.666,83.974C363.363,83.065 363.564,86.393 364.231,85.277C364.568,84.713 365.073,81.318 365.627,81.259C366.763,81.138 364.179,84.379 365.179,85.1C365.781,85.533 367.155,83.777 367.434,83.466C368.922,81.813 368.99,83.204 367.842,84.153C366.39,85.35 363.351,86.973 361.559,87.769C362.013,88.327 362.449,88.977 362.681,89.023C363.242,89.135 364.234,89.225 364.614,88.867C365.377,88.143 366.54,89.022 367.521,88.951C368.24,88.899 369.866,89.029 370.421,88.653C370.905,88.327 373.077,88.187 372.64,89.236C372.615,89.3 372.679,89.262 372.601,89.367C372.91,90.131 373.52,89.807 372.71,90.707C372.38,91.074 372.922,91.573 372.586,92.119C372.184,92.772 371.512,92.425 370.855,92.574C370.903,92.689 370.943,92.805 370.983,92.922C370.7,92.955 370.438,93.101 370.288,93.358C370.276,93.21 370.259,93.059 370.242,92.9C369.432,93.552 369.282,94.105 368.322,94.879C367.439,95.591 365.877,95.743 364.976,95.769C365.124,97.19 365.88,98.509 366.555,99.736C366.786,100.159 367.043,100.574 367.283,100.993C367.782,101.859 368.275,102.731 368.682,103.644C370.511,103.031 372.685,102.271 373.768,101.824C374.241,101.517 374.703,101.5 375.157,101.577C375.485,101.616 375.757,101.681 376.079,101.75C376.365,101.812 376.717,101.927 376.975,102.224C377.206,102.494 377.298,102.714 377.545,102.855C378.393,103.336 379.215,103.857 380.053,104.354C380.543,104.644 380.898,104.99 381.091,105.409C381.435,106.149 382.296,106.875 382.727,107.152C383.018,107.338 383.53,108.184 384.054,108.765C384.139,108.94 384.139,109.072 383.963,109.119C382.965,109.167 382.061,109.28 381.199,108.955C380.47,108.68 380.419,108.014 380.669,107.596C380.827,107.33 380.686,106.846 380.247,106.858C379.952,106.866 379.797,106.852 379.588,106.553C379.382,106.263 379.162,106.502 378.762,105.853C378.29,105.092 377.396,104.582 376.671,104.059C376.124,103.666 375.512,103.604 374.86,103.87C374.137,104.164 373.305,104.905 372.487,105.595C372.067,105.95 370.861,106.541 369.784,107.066C369.769,107.791 369.586,108.548 369.197,109.335C370.344,109.529 371.676,109.727 372.395,109.91C373.506,110.021 373.614,110.478 373.762,110.963C373.996,111.731 374.034,112.261 373.578,112.834C372.721,114.046 371.471,114.905 370.697,116.123C369.974,116.901 369.131,117.513 368.264,118.109C367.832,118.406 367.28,119.006 366.908,119.174C366.468,119.373 365.561,119.847 364.846,120.056C364.443,120.174 364.234,119.833 364.288,119.505C364.51,118.136 365.339,116.595 365.717,116.372C366.148,116.116 366.742,116.725 367.087,117.112C367.243,117.287 367.583,117.117 367.659,116.628C367.756,116.028 368.292,115.252 369.195,114.94C370.123,114.155 370.988,113.322 371.495,112.357C371.609,112.084 371.444,111.94 371.112,112.033C370.148,112.207 368.079,112.433 366.626,112.474C366.121,112.917 365.548,113.368 364.9,113.824C362.548,117.375 358.243,120.109 357.059,120.781C355.432,121.707 352.585,123.117 349.427,123.05C348.806,122.988 348.267,122.983 347.794,123.023C347.334,124.045 347.053,125.243 346.834,126.499C346.756,127.402 346.137,128.288 345.189,129.165C344.109,130.731 343.069,132.355 342.287,134.123C342.102,134.543 342.024,135.052 341.853,135.462C341.681,135.87 341.414,136.181 341.277,136.571C340.831,137.843 340.645,139.222 340.889,140.581C341.047,141.47 341.042,142.336 340.578,143.058C340.322,143.458 340.141,143.918 340.075,144.465C340.295,144.831 339.8,145.677 339.526,146.375C339.315,146.908 338.832,147.143 338.555,146.661C338.071,145.821 337.714,145 337.751,143.971C337.769,143.468 338.295,143.58 338.745,143.683C338.808,143.697 338.869,143.712 338.928,143.724C339.353,143.843 339.455,143.46 338.939,142.741C338.658,142.348 338.832,142.218 339.001,141.722C339.769,139.473 339.706,137.079 339.242,134.772C339.128,134.21 339.436,133.756 339.907,133.135C340.741,132.033 341.061,130.68 341.198,129.297C340.011,129.624 338.842,129.817 338.381,129.841C337.397,129.89 336.694,130.147 336.472,131.155C336.314,131.861 335.913,132.346 335.888,133.044C335.857,133.872 335.93,134.829 335.853,135.655C335.788,136.379 335.517,136.67 335.084,137.025C334.866,137.206 334.765,137.419 334.653,137.648C334.464,138.04 334.18,138.382 333.97,138.765C333.828,139.024 333.651,139.207 333.434,139.349C332.94,139.673 332.489,140.067 331.966,140.344C331.694,140.488 331.402,140.372 331.33,140.001C331.125,138.925 331.453,138.033 331.936,137.248C332.208,136.807 332.65,136.665 333.017,136.882C333.298,137.048 333.757,137.077 333.585,136.658C333.384,136.17 333.612,136.073 333.598,135.57C333.57,134.659 334.273,134.388 334.612,133.059C334.894,131.946 335.067,130.803 334.963,129.654C334.88,128.729 335.411,128.148 336.262,127.849C336.582,127.737 336.912,127.658 337.237,127.558C337.629,127.435 337.983,127.23 338.365,127.08C339.096,126.793 339.735,126.478 340.129,125.86C339.827,125.478 339.626,125.046 339.368,124.638C339.142,124.281 338.94,123.959 338.79,123.551C338.633,123.127 338.523,122.685 338.467,122.237C338.453,122.118 338.443,120.833 338.484,120.845C337.175,120.5 336.091,119.895 336.271,119.183C336.448,118.483 338.502,118.874 339.407,117.946C340.601,115.568 342.934,114.342 345.505,112.751C348.39,110.966 350.202,109.376 350.973,106.948C351.416,105.556 352.572,103.778 353.768,103.225C354.819,102.74 355.897,102.315 356.911,101.759C357.828,101.257 358.189,100.433 358.436,99.449C358.585,98.854 358.566,98.299 358.602,97.69C358.708,95.926 358.672,94.155 358.879,92.383C358.537,92.153 358.29,92.102 357.911,91.991C356.735,91.645 355.874,90.814 357.352,90.841C357.973,90.852 358.43,90.983 358.839,91.024C358.007,90.235 357.307,90.137 356.17,91.011C354.716,92.129 354.112,92.854 352.566,93.911C349.59,95.942 344.977,98.067 337.68,98.563C336.501,98.643 331.312,98.023 329.561,96.932C328.142,96.047 327.795,95.377 328.313,95.02Z" style="fill:white;fill-rule:nonzero;"/>
    </g>
</svg>
