<?xml version="1.0" encoding="UTF-8" standalone="no"?>
<!DOCTYPE svg PUBLIC "-//W3C//DTD SVG 1.1//EN" "http://www.w3.org/Graphics/SVG/1.1/DTD/svg11.dtd">
<svg width="100%" height="100%" viewBox="0 0 390 1281" version="1.1" xmlns="http://www.w3.org/2000/svg" xmlns:xlink="http://www.w3.org/1999/xlink" xml:space="preserve" xmlns:serif="http://www.serif.com/" style="fill-rule:evenodd;clip-rule:evenodd;stroke-linejoin:round;stroke-miterlimit:1.41421;">
    <g transform="matrix(1,0,0,1,-177.49,-1186.79)">
        <g transform="matrix(1,0,0,1,283.32,2383.6)">
            <path d="M0,-1131.91C-34.09,-1088.28 -53.214,-1033.92 -68.344,-981.281C-74.335,-960.439 -79.835,-939.251 -79.098,-917.388C-78.457,-898.375 -72.047,-880.517 -62.603,-864.165C-49.06,-840.726 -30.299,-820.845 -11.826,-801.267C9.929,-778.209 32.786,-756.195 56.366,-735.012C79.359,-714.36 103.681,-695.334 127.026,-675.101C148.807,-656.223 169.05,-635.058 180.506,-608.201C192.004,-581.241 192.418,-549.881 191.335,-521.037C190.791,-506.532 189.422,-492.064 187.722,-477.648C186.073,-463.671 184.638,-449.352 181.784,-435.563C171.044,-383.661 135.871,-341.31 118.693,-291.794C110.99,-269.583 107.632,-245.989 110.107,-222.565C112.465,-200.249 120.288,-178.89 130.263,-158.926C150.984,-117.444 181.094,-81.579 205.112,-42.086C213.363,-28.522 220.83,-14.462 226.796,0.26C226.834,0.354 227.244,-0.086 227.185,-0.23C209.857,-42.994 180.486,-79.407 155.294,-117.626C129.913,-156.131 107.56,-198.8 109.818,-246.236C112.38,-300.016 145.491,-344.397 167.058,-391.758C172.226,-403.1 176.652,-414.777 179.957,-426.805C183.468,-439.593 184.841,-452.951 186.593,-466.072C190.358,-494.206 192.889,-522.602 191.729,-551.007C191.143,-565.374 189.722,-579.976 186,-593.895C182.47,-607.097 176.428,-619.481 168.929,-630.86C153.083,-654.904 130.274,-673.566 108.279,-691.71C59.653,-731.819 13.055,-774.013 -29.11,-820.967C-45.334,-839.035 -60.742,-858.312 -70.366,-880.821C-78.156,-899.041 -80.07,-918.573 -77.805,-938.147C-74.829,-963.89 -66.156,-989.321 -58.058,-1013.82C-48.475,-1042.82 -37.017,-1071.34 -22.139,-1098.05C-15.598,-1109.79 -8.238,-1121.08 0.038,-1131.67C0.188,-1131.87 0.276,-1132.27 0,-1131.91" style="fill:rgb(102,102,102);fill-rule:nonzero;"/>
        </g>
        <g transform="matrix(1,0,0,1,481.577,1241.38)">
            <path d="M0,1155.99C-26.878,1104.53 -60.696,1055.6 -80.219,1000.6C-88.452,977.417 -92.996,953.013 -91.907,928.362C-90.606,898.916 -80.284,871.277 -67.138,845.209C-54.765,820.673 -39.031,798.11 -25.513,774.227C-12.2,750.712 -3.175,726.623 0.407,699.775C7.573,646.075 2.15,583.72 -31.202,539.055C-49.5,514.555 -74.717,496.742 -99.388,479.238C-125.318,460.842 -150.871,441.801 -173.633,419.516C-195.128,398.467 -213.426,374.336 -228.68,348.441C-240.773,327.912 -251.481,306.257 -255.952,282.685C-263.938,240.593 -249.049,198.639 -236.826,158.929C-228.555,132.061 -220.448,105.14 -211.486,78.492C-202.516,51.83 -193.627,24.469 -179.772,-0.128C-179.58,-0.47 -179.938,-0.727 -180.136,-0.375C-195.238,26.434 -204.678,56.47 -214.327,85.565C-223.918,114.485 -232.666,143.689 -241.584,172.822C-248.62,195.813 -255.574,218.934 -257.961,242.957C-259.96,263.063 -257.764,283.091 -251.449,302.275C-243.648,325.968 -230.425,348.258 -216.558,368.843C-199.804,393.713 -179.642,415.916 -157.1,435.64C-133.078,456.662 -106.651,474.387 -80.986,493.269C-55.643,511.915 -32.196,533.314 -17.777,561.747C-4.757,587.417 0.58,617.801 2.153,646.289C3.768,675.583 1.574,706.811 -7.747,734.761C-16.42,760.759 -31.604,784.059 -45.922,807.208C-60.574,830.898 -74.356,855.356 -83.386,881.815C-90.744,903.378 -93.754,926.157 -92.149,948.881C-90.579,971.135 -84.288,992.783 -75.999,1013.4C-55.871,1063.45 -25.354,1108.76 -0.45,1156.44C-0.302,1156.72 0.129,1156.24 0,1155.99" style="fill:rgb(102,102,102);fill-rule:nonzero;"/>
        </g>
        <g transform="matrix(1,0,0,1,453.974,1230.65)">
            <path d="M0,1180.57C-15.98,1155.86 -29.966,1129.89 -41.923,1103.01C-52.767,1078.63 -62.134,1053.22 -67.411,1027.01C-72.215,1003.16 -72.708,978.664 -68.49,954.695C-63.504,926.37 -51.538,900.348 -37.341,875.552C-24.086,852.401 -8.526,830.992 6.37,808.907C20.411,788.085 33.338,766.011 39.453,741.439C52.374,689.514 38.515,632.91 7.894,589.698C-9.369,565.338 -33.065,547.002 -58.077,531.224C-84.26,514.71 -111.121,499.504 -135.477,480.264C-158.673,461.942 -178.165,440.231 -191.77,413.882C-203.212,391.722 -210.683,366.792 -214.1,342.111C-220.868,293.236 -203.958,245.861 -188.753,200.211C-179.115,171.278 -170.599,142.034 -162.767,112.563C-158.738,97.404 -154.793,82.215 -151.011,66.991C-147.383,52.378 -144.398,37.615 -140.393,23.096C-138.201,15.156 -135.591,7.345 -132.479,-0.281C-132.317,-0.677 -132.813,-0.729 -132.949,-0.391C-144.096,26.913 -148.834,56.647 -156.13,85.118C-164.092,116.184 -172.335,147.194 -181.975,177.789C-196.539,224.011 -216.341,270.558 -216.216,319.819C-216.157,342.516 -211.166,365.003 -203.954,386.435C-195.635,411.156 -182.681,434.002 -165.36,453.528C-145.505,475.915 -120.248,493.411 -95.083,509.272C-69.531,525.376 -42.575,539.665 -19.966,559.943C22.818,598.314 47.089,656.233 43.233,713.703C41.272,742.965 30.671,769.174 15.48,793.953C1.924,816.067 -14.252,836.441 -27.841,858.533C-42.402,882.201 -55.889,906.753 -63.934,933.469C-70.635,955.726 -73.079,979.023 -71.401,1002.19C-69.634,1026.6 -62.932,1050.31 -54.623,1073.22C-44.959,1099.87 -32.704,1125.6 -18.92,1150.35C-13.113,1160.78 -6.937,1171 -0.457,1181.02C-0.273,1181.3 0.163,1180.82 0,1180.57" style="fill:rgb(102,102,102);fill-rule:nonzero;"/>
        </g>
        <g transform="matrix(1,0,0,1,426.361,1219.76)">
            <path d="M0,1205.31C-17.343,1183.1 -30.23,1157.74 -39.891,1131.35C-48.975,1106.53 -55.278,1080.26 -56.924,1053.84C-60.206,1001.22 -39.656,952.678 -11.334,909.46C3.069,887.484 18.466,866.505 34.606,845.791C49.865,826.208 64.893,806.076 75.021,783.269C85.365,759.976 88.476,734.088 84.25,708.985C80.06,684.092 67.967,661.352 52.963,641.34C36.137,618.9 15.051,599.903 -8.366,584.529C-33.356,568.124 -61.186,556.465 -87.117,541.683C-113.061,526.894 -138.905,509.172 -156.752,484.823C-171.43,464.797 -178.863,440.763 -181.192,416.247C-185.948,366.183 -170.797,318.586 -153.503,272.319C-143.545,245.673 -133.222,219.169 -124.621,192.04C-115.439,163.075 -108.353,133.459 -102.466,103.661C-99.154,86.902 -96.353,70.115 -94.37,53.146C-92.269,35.167 -90.313,17.14 -85.225,-0.293C-85.104,-0.702 -85.624,-0.502 -85.707,-0.224C-93.716,27.215 -94.353,56.156 -99.298,84.188C-104.573,114.099 -111.139,143.8 -119.395,173.034C-134.458,226.365 -158.805,276.598 -173.263,330.069C-184.828,372.846 -188.277,421.845 -169.929,463.276C-145.995,517.317 -86.452,542.912 -37.286,568.663C11.901,594.428 57.974,633.39 77.727,686.839C87.529,713.355 88.066,742.48 79.774,769.451C72.077,794.488 56.465,816.488 40.779,837.107C9.097,878.754 -24.588,920.419 -43.731,969.705C-51.92,990.79 -56.759,1013.06 -57.646,1035.66C-58.606,1060.15 -54.386,1084.61 -47.915,1108.14C-38.319,1143.05 -22.793,1177.15 -0.442,1205.76C-0.25,1206.01 0.164,1205.52 0,1205.31" style="fill:rgb(102,102,102);fill-rule:nonzero;"/>
        </g>
        <g transform="matrix(1,0,0,1,398.717,1208.93)">
            <path d="M0,1229.95C-35.648,1191.47 -51.232,1133.94 -48.651,1082.32C-46.016,1029.64 -18.11,982.986 13.059,942.072C29.34,920.702 45.863,899.462 63.474,879.171C79.444,860.774 95.594,842.359 108.396,821.544C120.666,801.599 129.208,778.633 128.304,754.921C127.357,730.057 117.393,707.603 102.188,688.187C86.112,667.662 65.229,650.806 43.688,636.365C19.867,620.392 -5.584,608.618 -31.929,597.49C-80.806,576.849 -141.209,550.488 -155.696,494.003C-161.164,472.677 -159.062,450.146 -154.446,428.882C-148.84,403.047 -139.384,378.177 -128.977,353.939C-106.338,301.219 -80.317,250.281 -64.363,194.92C-55.163,162.986 -48.94,130.207 -44.973,97.225C-41.08,64.872 -44.418,31.742 -37.965,-0.285C-37.88,-0.703 -38.354,-0.452 -38.408,-0.191C-43.773,26.43 -41.791,53.657 -43.716,80.59C-45.811,109.915 -51.109,139.309 -57.766,167.91C-71.224,225.735 -95.675,279.165 -120.092,332.972C-130.963,356.929 -141.314,381.165 -148.962,406.368C-155.231,427.024 -159.838,448.536 -159.355,470.223C-158.871,491.816 -152.108,512.499 -139.12,529.802C-122.254,552.271 -96.492,567.682 -71.834,580.163C-45.495,593.494 -17.487,603.146 8.861,616.442C33.82,629.036 57.469,645.28 78.262,663.939C96.876,680.645 113.295,700.416 121.951,724.148C131.634,750.69 128.626,779.377 117.022,804.76C106.331,828.147 89.519,848.372 72.893,867.734C56.857,886.411 41.418,905.307 26.188,924.647C-5.25,964.554 -35.901,1007.15 -46.053,1057.96C-51.916,1087.31 -49.639,1117.91 -42.713,1146.87C-35.402,1177.41 -21.856,1207.29 -0.367,1230.49C-0.212,1230.65 0.178,1230.14 0,1229.95" style="fill:rgb(102,102,102);fill-rule:nonzero;"/>
        </g>
        <g transform="matrix(1,0,0,1,371.11,1198.11)">
            <path d="M0,1254.62C-37.9,1219.67 -49.358,1161.74 -42.8,1112.31C-35.667,1058.56 -0.781,1014.14 34.243,974.961C44.425,963.572 54.92,952.472 65.129,941.111C73.193,932.137 80.914,922.887 89.173,914.088C105.198,897.015 121.847,880.52 136.547,862.255C150.938,844.37 163.473,824.411 168.62,801.796C173.925,778.484 168.377,754.481 155.488,734.647C142.247,714.269 122.177,698.981 101.934,686.092C78.717,671.309 53.615,658.589 28.051,648.382C0.434,637.357 -28.312,629.516 -55.601,617.608C-80.88,606.58 -106.83,591.936 -123.948,569.741C-152.926,532.171 -138.137,484.173 -119.99,445.514C-95.157,392.611 -62.497,343.818 -37.821,290.815C-16.496,245.009 -1.843,196.442 5.401,146.436C8.91,122.198 11.093,97.541 10.134,73.043C9.175,48.565 6.143,24.11 9.304,-0.337C9.354,-0.717 8.841,-0.367 8.81,-0.118C5.38,26.42 9.159,53.02 9.846,79.601C10.565,107.438 7.054,135.737 2.278,163.112C-7.852,221.183 -29.226,275.898 -56.784,327.809C-70.442,353.534 -85.254,378.626 -99.233,404.171C-111.341,426.297 -123.533,448.931 -131.945,472.777C-138.498,491.353 -142.639,510.99 -140.381,530.739C-137.884,552.585 -126.187,571.039 -109.965,585.414C-66.325,624.085 -6.025,632.881 45.444,656.619C70.637,668.235 95.442,681.307 117.867,697.73C138.171,712.601 156.545,731.397 165.266,755.439C184.264,807.811 144.572,854.938 111.102,890.481C103.158,898.917 95.051,907.197 87.138,915.661C78.685,924.7 70.791,934.228 62.501,943.417C43.698,964.259 24.309,984.537 6.948,1006.63C-21.274,1042.55 -42.629,1083.11 -44.801,1129.49C-46.896,1174.21 -34.169,1223.98 -0.365,1255.16C-0.169,1255.34 0.209,1254.81 0,1254.62" style="fill:rgb(102,102,102);fill-rule:nonzero;"/>
        </g>
        <g transform="matrix(1,0,0,1,343.502,1187.27)">
            <path d="M0,1279.31C-39.376,1247.98 -48.911,1191.07 -39.603,1144C-29.956,1095.23 0.996,1056.95 35.622,1022.95C52.785,1006.09 70.836,990.18 88.324,973.667C103.004,959.808 116.747,945.024 131.373,931.105C159.736,904.119 191.679,876.085 206.654,838.922C213.703,821.429 214.874,802.665 208.943,784.673C202.585,765.383 188.28,749.956 172.433,737.837C154.5,724.124 133.826,714.2 113.095,705.51C94.277,697.624 74.921,689.885 55.405,683.914C6.919,669.072 -46.131,660.818 -88.019,630.297C-106.028,617.174 -120.021,599.658 -123.372,577.176C-126.421,556.741 -120.2,535.933 -111.996,517.424C-102.237,495.402 -88.458,475.626 -74.942,455.804C-59.284,432.84 -43.33,410.079 -28.103,386.826C1.718,341.289 27.531,293.564 44.036,241.51C56.386,202.566 61.86,161.678 63.698,120.966C64.583,101.351 62.932,82.394 60.438,62.946C57.744,41.957 55.048,20.884 56.543,-0.316C56.569,-0.698 56.075,-0.331 56.06,-0.09C54.227,25.909 58.707,51.628 61.7,77.361C64.831,104.284 63.313,131.196 60.462,158.092C54.577,213.606 38.103,266.791 12.866,316.536C-12.514,366.565 -45.648,412.1 -77.141,458.345C-99.661,491.413 -126.841,529.763 -124.422,571.894C-121.759,618.302 -74.627,643.337 -36.094,657.563C-11.86,666.51 13.293,672.663 38.151,679.565C58.931,685.339 79.08,692.782 99.177,700.587C138.771,715.969 185.867,736.465 205.27,777.088C225.208,818.828 199.021,860.108 171.451,890.672C157.72,905.893 142.624,919.804 127.809,933.948C112.974,948.114 99.004,963.121 84.029,977.152C49.418,1009.58 12.156,1040.57 -14.035,1080.63C-33.698,1110.7 -44.154,1146.33 -43.296,1182.29C-42.433,1218.61 -29.533,1256.64 -0.366,1279.85C-0.16,1280.01 0.213,1279.48 0,1279.31" style="fill:rgb(102,102,102);fill-rule:nonzero;"/>
        </g>
        <g transform="matrix(1,0,0,1,311.154,1308.32)">
            <path d="M0,-38.737L-4.036,-48.333L-7.53,-56.64L-11.404,-65.853L-13.913,-71.816L-15.584,-75.803L-60.351,-41.637L-60.35,-41.633L-60.357,-41.63L-57.561,-34.981L-56.593,-32.674L-56.591,-32.676L-56.488,-32.43L-52.637,-23.274L-49.23,-15.174L-45.157,-5.49L-36.901,14.14C-40.393,13.458 -44.983,14.725 -48.983,17.813C-54.933,22.406 -57.321,29.284 -54.317,33.175C-51.313,37.066 -44.055,36.496 -38.105,31.903C-32.769,27.783 -30.301,21.828 -32.014,17.836C-32.023,17.814 -32.727,16.133 -32.736,16.111L-42.284,-6.591L-46.32,-16.187L-49.814,-24.495L-53.688,-33.707L-54.064,-34.603L-14.341,-64.902L-14.204,-64.575L-10.353,-55.42L-6.946,-47.319L-2.874,-37.636L5.383,-18.006C1.89,-18.687 -2.699,-17.421 -6.699,-14.333C-12.649,-9.739 -15.037,-2.861 -12.033,1.03C-9.029,4.92 -1.771,4.35 4.179,-0.243C9.514,-4.362 11.983,-10.318 10.269,-14.309C10.26,-14.331 9.557,-16.013 9.548,-16.035L0,-38.737Z" style="fill:rgb(102,102,102);fill-rule:nonzero;"/>
        </g>
        <g transform="matrix(1,0,0,1,250.419,1621.69)">
            <path d="M0,-37.189L-0.198,-38.15L45.093,-60.412L45.165,-60.061L46.32,-54.463L1.031,-32.187L0,-37.189ZM54.19,-31.677L52.067,-41.976L50.228,-50.892L48.189,-60.78L46.87,-67.18L45.993,-71.458L-5.053,-46.35L-5.052,-46.346L-5.06,-46.345L-3.589,-39.209L-3.081,-36.733L-3.078,-36.734L-3.024,-36.47L-1.849,-30.771L-1.858,-30.766L0.114,-21.149L0.133,-21.158L0.795,-17.95L2.938,-7.557L7.282,13.512C3.954,12.153 -0.842,12.511 -5.41,14.789C-12.204,18.178 -15.915,24.528 -13.699,28.971C-11.483,33.414 -4.178,34.269 2.616,30.88C8.71,27.84 12.32,22.421 11.402,18.13C11.398,18.107 11.029,16.303 11.025,16.279L6.001,-8.086L3.877,-18.386L3.014,-22.574L48.305,-44.836L48.984,-41.541L51.127,-31.147L55.472,-10.079C52.144,-11.438 47.348,-11.08 42.78,-8.802C35.985,-5.412 32.274,0.937 34.49,5.38C36.706,9.823 44.011,10.678 50.806,7.289C56.899,4.25 60.509,-1.17 59.592,-5.461C59.587,-5.484 59.219,-7.288 59.214,-7.312L54.19,-31.677Z" style="fill:rgb(102,102,102);fill-rule:nonzero;"/>
        </g>
        <g transform="matrix(1,0,0,1,345.015,1728.43)">
            <path d="M0,-30.951L0.143,-31.858L47.14,-36.442L47.088,-36.111L46.255,-30.828L-0.744,-26.231L0,-30.951ZM2.576,-47.246L49.574,-51.831L48.577,-45.528L1.573,-40.93L2.576,-47.246ZM45.646,-8.28L47.177,-18L48.503,-26.413L49.973,-35.745L50.924,-41.784L51.565,-45.82L51.561,-45.819L52.562,-52.122L52.565,-52.122L54.007,-61.209L1.033,-56.027L-0.407,-46.955L-0.405,-46.955L-1.407,-40.638L-1.409,-40.638L-2.849,-31.566L-2.846,-31.566L-2.885,-31.317L-3.733,-25.938L-3.742,-25.937L-5.182,-16.865L-5.162,-16.867L-5.639,-13.839L-7.184,-4.031L-10.316,15.852C-12.784,13.566 -17.102,12.3 -21.853,12.792C-28.92,13.523 -34.261,17.862 -33.783,22.483C-33.304,27.104 -27.188,30.258 -20.122,29.527C-13.784,28.871 -8.838,25.314 -8.229,21.253C-8.225,21.231 -7.953,19.53 -7.95,19.508L-4.327,-3.486L-2.796,-13.206L-2.173,-17.158L44.824,-21.743L44.334,-18.633L42.789,-8.825L39.657,11.058C37.19,8.772 32.871,7.506 28.12,7.998C21.053,8.729 15.712,13.068 16.19,17.689C16.669,22.31 22.785,25.464 29.852,24.733C36.189,24.077 41.135,20.52 41.745,16.459C41.748,16.437 42.02,14.736 42.023,14.714L45.646,-8.28Z" style="fill:rgb(102,102,102);fill-rule:nonzero;"/>
        </g>
        <g transform="matrix(1,0,0,1,389.151,1427.79)">
            <path d="M0,-77.312L-4.735,-85.935L-8.833,-93.401L-13.379,-101.68L-16.322,-107.039L-18.284,-110.622L-54.795,-76.204L-54.837,-76.282L-93.562,-39.777L-93.561,-39.774L-93.567,-39.77L-90.286,-33.795L-89.151,-31.721L-89.149,-31.723L-89.027,-31.502L-84.51,-23.275L-80.513,-15.995L-75.735,-7.293L-66.049,10.348C-69.398,10.049 -73.588,11.69 -77.044,14.985C-82.186,19.886 -83.756,26.585 -80.551,29.948C-77.345,33.31 -70.579,32.062 -65.438,27.161C-60.827,22.766 -59.091,16.926 -61.093,13.342C-61.104,13.323 -61.93,11.811 -61.941,11.792L-73.142,-8.61L-77.877,-17.233L-81.976,-24.698L-86.522,-32.978L-86.964,-33.782L-52.634,-66.127L-52.598,-66.061L-52.596,-66.063L-52.474,-65.842L-47.957,-57.614L-43.96,-50.335L-39.181,-41.632L-29.509,-24.018C-32.014,-24.226 -34.981,-23.358 -37.759,-21.528C-38.7,-20.912 -39.619,-20.186 -40.491,-19.355C-45.633,-14.453 -47.203,-7.754 -43.997,-4.392C-41.388,-1.654 -36.417,-1.973 -31.885,-4.832C-30.839,-5.489 -29.815,-6.281 -28.849,-7.201C-24.238,-11.597 -22.502,-17.436 -24.504,-21.02C-24.515,-21.04 -25.341,-22.551 -25.351,-22.571L-36.553,-42.973L-41.288,-51.596L-45.387,-59.061L-49.933,-67.34L-50.378,-68.152L-16.047,-100.498L-15.885,-100.205L-11.368,-91.977L-7.371,-84.697L-2.592,-75.995L7.094,-58.355C3.744,-58.653 -0.446,-57.012 -3.902,-53.717C-9.044,-48.816 -10.614,-42.117 -7.408,-38.755C-4.203,-35.392 2.563,-36.64 7.705,-41.541C12.315,-45.936 14.051,-51.776 12.049,-55.36C12.039,-55.38 11.212,-56.891 11.202,-56.911L0,-77.312Z" style="fill:rgb(102,102,102);fill-rule:nonzero;"/>
        </g>
        <g transform="matrix(1,0,0,1,336.916,2276.24)">
            <path d="M0,-35.68L-2.058,-38.518L-2.453,-39.064L19.6,-65.787L19.745,-65.588L22.048,-62.411L0,-35.68ZM-23.518,-7.313L-25.576,-10.151L-25.971,-10.697L-3.918,-37.42L-3.773,-37.221L-1.47,-34.044L-23.518,-7.313ZM33.41,-50.376L29.171,-56.221L25.503,-61.281L21.434,-66.892L18.801,-70.524L17.043,-72.953L-6.418,-44.508L-6.475,-44.586L-31.326,-14.457L-31.324,-14.455L-31.329,-14.451L-28.392,-10.401L-27.375,-8.996L-27.374,-8.997L-27.266,-8.847L-24.92,-5.613L-24.925,-5.607L-20.974,-0.146L-20.965,-0.157L-19.645,1.663L-15.367,7.562L-6.698,19.519C-9.165,19.609 -12.065,21.187 -14.28,23.903C-17.574,27.943 -18.103,32.965 -15.461,35.119C-12.819,37.273 -8.007,35.745 -4.712,31.705C-1.758,28.082 -1.029,23.671 -2.816,21.245C-2.825,21.232 -3.565,20.207 -3.575,20.194L-13.601,6.365L-17.839,0.521L-19.562,-1.857L2.492,-28.58L3.847,-26.71L8.124,-20.812L16.794,-8.855C14.327,-8.765 11.427,-7.187 9.212,-4.471C5.918,-0.431 5.389,4.591 8.031,6.745C8.529,7.152 9.105,7.427 9.733,7.579C12.437,8.25 16.124,6.626 18.806,3.338C21.76,-0.285 22.489,-4.696 20.702,-7.122C20.693,-7.135 19.953,-8.16 19.944,-8.174L9.917,-22.002L5.68,-27.847L3.956,-30.224L26.01,-56.948L27.366,-55.078L31.642,-49.179L40.312,-37.222C37.846,-37.133 34.945,-35.554 32.73,-32.838C29.436,-28.798 28.907,-23.776 31.549,-21.622C34.191,-19.468 39.003,-20.996 42.298,-25.036C45.252,-28.659 45.981,-33.07 44.194,-35.496C44.185,-35.509 43.445,-36.534 43.435,-36.547L33.41,-50.376Z" style="fill:rgb(102,102,102);fill-rule:nonzero;"/>
        </g>
        <g transform="matrix(1,0,0,1,284.754,1495.7)">
            <path d="M0,27.216C0.95,35.545 -1.106,42.619 -4.593,43.017C-8.079,43.415 -11.675,36.985 -12.625,28.656C-13.575,20.327 -11.519,13.252 -8.033,12.855C-4.546,12.457 -0.95,18.887 0,27.216M-36.364,-1.688L-49.437,-6.199L-60.754,-10.104L-73.304,-14.435L-85.722,-18.721L-85.722,-18.723L-87.055,-14.858L-74.521,-10.533L-62.048,-6.229L-51.013,-2.421L-37.821,2.131L-11.079,11.359C-14.849,14.21 -17.664,19.874 -18.153,26.57C-18.881,36.528 -14.191,44.987 -7.679,45.463C-1.166,45.939 4.703,38.252 5.43,28.293C6.083,19.362 2.378,11.642 -3.091,9.799C-3.12,9.789 -5.408,8.995 -5.438,8.984L-36.364,-1.688Z" style="fill:rgb(102,102,102);fill-rule:nonzero;"/>
        </g>
        <g transform="matrix(1,0,0,1,298.047,1810.48)">
            <path d="M0,-15.005C9.893,-19.91 19.576,-20.531 21.63,-16.39C23.683,-12.249 17.328,-4.915 7.436,-0.01C-2.456,4.896 -12.14,5.516 -14.194,1.375C-16.247,-2.766 -9.893,-10.099 0,-15.005M-19.49,-1.092C-17.121,7.353 -4.968,11.329 7.655,7.789C20.278,4.248 28.591,-5.468 26.222,-13.913C23.854,-22.358 11.701,-26.334 -0.922,-22.794C-13.546,-19.253 -21.858,-9.537 -19.49,-1.092" style="fill:rgb(102,102,102);fill-rule:nonzero;"/>
        </g>
        <g transform="matrix(1,0,0,1,209.08,1448)">
            <path d="M0,-69.281C-14.546,-73.642 -22.643,-67.367 -29.319,-69.69L-29.439,-69.791L-29.438,-69.793L-29.478,-69.746L-29.478,-69.745L-31.59,-67.24L-23.312,-60.256L-15.075,-53.306L-7.786,-47.158L0.927,-39.807L18.589,-24.906C14.877,-23.842 11.065,-20.355 8.722,-15.397C5.237,-8.022 6.322,-0.197 11.144,2.082C15.967,4.361 22.701,0.23 26.186,-7.144C29.311,-13.758 28.76,-20.731 25.135,-23.744C25.115,-23.76 23.606,-25.039 23.587,-25.056L3.16,-42.288L-5.474,-49.573L-12.948,-55.879L-17.106,-59.387C-14.154,-61.639 -13.12,-66.408 -0.458,-66.259C8.236,-64.823 11.584,-57.672 13.788,-53.54C15.738,-49.884 16.428,-50.494 11.709,-60.385C9.974,-64.021 5.126,-67.744 0,-69.281" style="fill:rgb(102,102,102);fill-rule:nonzero;"/>
        </g>
        <g transform="matrix(1,0,0,1,259.563,1699.04)">
            <path d="M0,87.696L10.298,48.542L14.65,31.992L18.418,17.665L22.597,1.776L26.732,-13.946L26.735,-13.945L21.842,-15.231L17.669,0.637L13.516,16.427L9.842,30.397L5.45,47.099L-3.454,80.955C-7.323,76.567 -14.574,73.62 -22.881,73.638C-35.237,73.665 -45.239,80.237 -45.222,88.318C-45.204,96.398 -35.173,102.927 -22.817,102.899C-11.736,102.875 -2.554,97.586 -0.788,90.667C-0.778,90.63 -0.01,87.733 0,87.696" style="fill:rgb(102,102,102);fill-rule:nonzero;"/>
        </g>
        <g transform="matrix(1,0,0,1,515.03,1930.72)">
            <path d="M0,-44.155L0.038,-44.519L0.681,-50.725C4.732,-49.579 10.109,-53.584 18.116,-41.513C21.769,-33.629 18.99,-28.123 16.559,-23.715C10.872,-35.34 1.896,-37.373 0,-44.155M17.156,-22.43C18.056,-23.816 19.19,-25.662 20.583,-28.048C22.905,-32.029 23.114,-37.188 21.269,-43.025C16.033,-59.59 4.667,-61.116 2.564,-68.892L2.583,-69.069L2.585,-69.07L2.514,-69.077L-1.215,-69.463L-2.493,-57.139L-3.764,-44.875L-4.888,-34.025L-6.233,-21.054L-8.959,5.241C-12.354,2.414 -18.105,1.055 -24.302,2.029C-33.52,3.48 -40.223,9.542 -39.275,15.569C-38.326,21.597 -30.086,25.308 -20.868,23.858C-12.602,22.557 -6.362,17.548 -5.845,12.18C-5.842,12.151 -5.604,9.901 -5.602,9.871L-2.448,-20.538L-1.876,-26.057C2.171,-24.935 7.542,-28.896 15.532,-16.851C19.768,-7.706 15.351,-1.759 12.861,2.984C10.658,7.181 11.68,7.442 17.998,-3.387C20.32,-7.368 20.53,-12.527 18.685,-18.363C18.22,-19.833 17.706,-21.182 17.156,-22.43" style="fill:rgb(102,102,102);fill-rule:nonzero;"/>
        </g>
        <g transform="matrix(1,0,0,1,422.993,1856.61)">
            <path d="M0,-102.267C-0.028,-105.11 0.496,-120.024 0.695,-123.005C0.907,-126.078 1.733,-131.339 2.369,-134.941C3.113,-138.904 3.892,-141.599 4.925,-145.481C6.064,-149.764 7.223,-153.32 8.696,-157.442C9.677,-160.181 10.819,-162.915 11.9,-165.882C13.159,-169.34 14.443,-172.302 15.827,-175.366C16.654,-177.196 17.886,-179.786 18.754,-181.26C20.409,-184.049 21.772,-186.951 24.16,-190.359C28.075,-195.946 29.597,-197.051 31.216,-199.212C34.023,-202.958 38.319,-205.799 38.873,-206.132C45.567,-210.146 51.955,-207.184 53.58,-205.936C60.035,-200.979 59.774,-194.118 55.16,-178.865C53.1,-172.06 48.228,-155.325 41.722,-144.383C36.539,-135.668 31.418,-128.64 26.532,-122.98C16.011,-110.794 6.584,-104.951 0,-102.267M-6.04,-20.97L-4.412,47.721C-11.075,49.467 -14.163,50.246 -18.574,49.974C-20.698,49.843 -23.129,49.469 -26.413,48.842C-31.281,47.913 -36.974,44.584 -42.098,40.915C-43.288,40.063 -44.447,39.192 -45.558,38.329C-47.835,36.554 -50.122,34.742 -52.414,32.486C-54.706,30.229 -57.002,27.529 -59.297,23.976C-63.265,17.827 -66.248,10.725 -67.954,3.48C-69.624,-3.756 -68.736,-12.922 -67.415,-20.089C-62.588,-46.044 -47.378,-59.577 -7.489,-76.551L-6.381,-38.868C-11.215,-38.67 -9.298,-38.805 -13.973,-37.875C-18.576,-36.961 -19.583,-36.815 -25.537,-33.473C-30.209,-30.851 -33.799,-27.28 -36.589,-23.456C-39.316,-19.719 -41.891,-15.456 -42.57,-8.625C-44.084,6.616 -37.024,17.151 -26.812,25.032C-23.718,27.42 -23.876,24.616 -24.229,24.045C-32.283,10.997 -33.356,8.883 -31.51,-1.116C-30.23,-7.917 -26.917,-13.854 -21.381,-17.169C-19.646,-18.195 -18.214,-19.052 -16.827,-19.712C-13.865,-21.121 -11.108,-21.634 -6.04,-20.97M4.895,-19.628C11.576,-17.587 17.605,-14.115 20.578,-10.291C23.761,-6.196 26.855,0.333 27.031,5.992C27.315,15.095 25.039,22.54 25.039,22.54C22.787,29.023 19.925,33.841 15.092,37.824C11.94,40.421 7.95,42.664 2.744,44.781L0.907,-20.403C2.01,-20.211 3.864,-19.942 4.895,-19.628M61.051,-152.052C69.219,-175.349 86.774,-222.246 58.04,-230.874C55.398,-231.667 52.123,-232.233 47.54,-231.578C42.284,-230.828 34.641,-224.341 29.843,-219.327C25.052,-214.27 18.181,-201.99 14.365,-195.413C10.502,-188.783 5.912,-177.781 3.045,-169.744C0.204,-161.773 -1.806,-151.368 -3.445,-142.592C-5.757,-130.076 -8.281,-111.809 -7.59,-99.62C-22.053,-91.591 -33.657,-85.508 -43.062,-80.047C-49.512,-76.303 -54.928,-72.851 -59.525,-69.265C-70.204,-60.936 -76.46,-51.886 -80.976,-36.769C-83.725,-27.567 -83.44,-11.235 -80.928,-1.73C-78.432,7.8 -74.828,15.569 -69.312,23.679C-63.798,31.813 -58.824,36.563 -50.76,42.701C-42.736,48.829 -34.271,53.048 -24.143,54.773C-24.143,54.773 -15.28,56.79 -4.429,54.183C-4.429,54.183 -3.707,91.994 -3.889,93.809C-4.544,100.306 -6.736,105.998 -9.564,109.651C-12.361,113.28 -16.115,117.144 -19.461,118.772C-25.223,121.577 -27.873,122.29 -32.859,121.534C-38.258,120.715 -43.293,114.893 -42.34,114.933C-41.463,115.118 -43.113,114.869 -42.199,114.944C-29.788,115.945 -18.864,106.042 -17.797,92.824C-16.731,79.606 -25.926,68.08 -38.336,67.079C-50.746,66.077 -61.671,75.98 -62.737,89.198C-62.743,89.267 -62.744,89.335 -62.749,89.403C-62.75,89.417 -62.755,89.432 -62.756,89.446C-62.759,89.511 -62.759,89.572 -62.762,89.637C-62.797,90.182 -62.815,90.723 -62.815,91.262C-63.043,102.017 -60.464,108.524 -58.154,112.087C-55.732,115.851 -52.639,119.16 -48.961,121.923C-45.32,124.648 -41.361,126.659 -36.769,127.777C-27.78,129.966 -20.473,127.233 -16.188,124.554C-11.619,121.698 -7.763,118.153 -4.365,113.617C-0.994,109.072 1.667,104.817 2.957,96.763C3.03,96.306 3.076,86.34 3.103,76.027C3.133,64.801 3.14,53.164 3.136,52.934C13.582,50.513 23.064,45.496 29.749,38.198C36.999,30.282 39.136,26.301 41.002,16.263C42.32,9.176 42.728,3.683 41.114,-2.788C39.452,-9.451 38.339,-12.903 34.901,-18.221C31.328,-23.749 28.349,-25.899 23.479,-29.724C18.631,-33.556 13.56,-35.881 6.224,-37.286C5.943,-37.34 1.04,-38.142 1.04,-38.142L-0.438,-78.55C7.232,-82.839 14.263,-87.783 20.651,-93.22C30.41,-101.524 38.666,-110.974 45.405,-120.978C52.144,-130.98 57.364,-141.536 61.051,-152.052" style="fill:rgb(102,102,102);fill-rule:nonzero;"/>
        </g>
        <g transform="matrix(1,0,0,1,554.116,1991.16)">
            <path d="M0,13.038L3.315,6.583L6.185,0.994L9.367,-5.204L11.427,-9.215L12.807,-11.895L-25.499,-20.485L-25.5,-20.483L-25.506,-20.486L-27.802,-16.013L-28.601,-14.462L-28.599,-14.462L-28.684,-14.296L-31.846,-8.137L-34.645,-2.687L-37.99,3.827L-44.771,17.033C-45.972,14.863 -48.705,12.98 -52.147,12.228C-57.266,11.11 -62.009,12.917 -62.74,16.265C-63.471,19.613 -59.914,23.233 -54.795,24.351C-50.204,25.354 -45.918,24.003 -44.555,21.299C-44.547,21.284 -43.964,20.155 -43.957,20.141L-36.114,4.868L-32.799,-1.588L-29.93,-7.176L-26.747,-13.374L-26.437,-13.976L7.543,-6.346L7.43,-6.126L4.268,0.033L1.469,5.483L-1.876,11.997L-8.657,25.203C-9.858,23.033 -12.591,21.15 -16.033,20.398C-21.152,19.28 -25.895,21.088 -26.626,24.435C-27.357,27.783 -23.8,31.403 -18.681,32.521C-14.09,33.524 -9.804,32.173 -8.44,29.469C-8.433,29.454 -7.85,28.325 -7.843,28.311L0,13.038Z" style="fill:rgb(102,102,102);fill-rule:nonzero;"/>
        </g>
        <g transform="matrix(1,0,0,1,414.128,2093.68)">
            <path d="M0,40.709L-12.658,15.195L-18.008,4.41L-22.64,-4.926L-27.777,-15.28L-32.86,-25.525L-32.858,-25.526L-36.046,-23.944L-30.916,-13.604L-25.811,-3.314L-21.294,5.789L-15.895,16.673L-4.949,38.735C-9.03,38.199 -14.236,39.992 -18.63,43.845C-25.166,49.576 -27.426,57.687 -23.678,61.961C-19.93,66.235 -11.594,65.054 -5.058,59.323C0.803,54.184 3.222,47.132 0.957,42.648C0.945,42.623 0.012,40.733 0,40.709" style="fill:rgb(102,102,102);fill-rule:nonzero;"/>
        </g>
        <g transform="matrix(1,0,0,1,504.822,2069.33)">
            <path d="M0,0.503L1.347,-5.743L2.513,-11.15L3.807,-17.147L4.644,-21.028L5.206,-23.621L-27.354,-22.275L-27.342,-22.331L-61.878,-20.903L-61.878,-20.9L-61.883,-20.901L-62.816,-16.574L-63.142,-15.073L-63.14,-15.073L-63.175,-14.913L-64.46,-8.954L-65.597,-3.681L-66.957,2.622L-69.713,15.399C-71.229,13.827 -73.983,12.849 -77.081,12.994C-81.689,13.211 -85.311,15.829 -85.169,18.843C-85.028,21.856 -81.177,24.124 -76.569,23.908C-72.436,23.714 -69.099,21.587 -68.556,18.977C-68.553,18.963 -68.315,17.87 -68.312,17.856L-65.124,3.079L-63.777,-3.167L-62.611,-8.574L-61.317,-14.57L-61.191,-15.153L-30.583,-16.41L-30.594,-16.363L-30.592,-16.363L-30.626,-16.203L-31.912,-10.244L-33.049,-4.971L-34.408,1.332L-37.16,14.09C-38.3,12.922 -40.126,12.085 -42.267,11.8C-42.991,11.703 -43.751,11.667 -44.533,11.704C-49.141,11.92 -52.762,14.539 -52.621,17.553C-52.506,20.006 -49.931,21.965 -46.491,22.492C-45.698,22.615 -44.859,22.662 -43.993,22.622C-39.86,22.428 -36.523,20.302 -35.98,17.691C-35.977,17.677 -35.739,16.584 -35.736,16.57L-32.548,1.793L-31.201,-4.453L-30.035,-9.86L-28.742,-15.856L-28.615,-16.444L1.995,-17.702L1.949,-17.489L0.664,-11.53L-0.473,-6.257L-1.833,0.046L-4.588,12.823C-6.105,11.251 -8.859,10.273 -11.957,10.418C-16.565,10.634 -20.187,13.253 -20.045,16.266C-19.904,19.28 -16.053,21.548 -11.445,21.332C-7.312,21.138 -3.975,19.011 -3.432,16.401C-3.429,16.387 -3.191,15.294 -3.188,15.279L0,0.503Z" style="fill:rgb(102,102,102);fill-rule:nonzero;"/>
        </g>
        <g transform="matrix(1,0,0,1,426.182,2302.49)">
            <path d="M0,-29.319L0.135,-30.178L44.654,-34.52L44.604,-34.207L43.816,-29.203L-0.704,-24.848L0,-29.319ZM2.44,-44.755L46.96,-49.097L46.015,-43.127L1.49,-38.772L2.44,-44.755ZM43.239,-7.844L44.689,-17.051L45.945,-25.021L47.337,-33.86L48.239,-39.581L48.845,-43.404L48.842,-43.403L49.79,-49.374L49.793,-49.374L51.159,-57.981L0.979,-53.073L-0.385,-44.479L-0.384,-44.479L-1.333,-38.496L-1.335,-38.496L-2.699,-29.901L-2.696,-29.902L-2.733,-29.666L-3.536,-24.571L-3.545,-24.57L-4.908,-15.976L-4.889,-15.978L-5.341,-13.11L-6.805,-3.819L-9.772,15.015C-12.109,12.85 -16.2,11.651 -20.7,12.117C-27.394,12.809 -32.454,16.919 -32.001,21.297C-31.548,25.674 -25.754,28.662 -19.06,27.969C-13.057,27.348 -8.372,23.978 -7.794,20.132C-7.791,20.111 -7.534,18.5 -7.531,18.479L-4.099,-3.303L-2.648,-12.509L-2.058,-16.254L42.46,-20.596L41.996,-17.651L40.533,-8.359L37.565,10.475C35.228,8.309 31.138,7.11 26.637,7.576C19.943,8.268 14.884,12.378 15.337,16.756C15.79,21.133 21.583,24.121 28.277,23.428C34.28,22.807 38.966,19.437 39.543,15.591C39.546,15.57 39.804,13.958 39.807,13.938L43.239,-7.844Z" style="fill:rgb(102,102,102);fill-rule:nonzero;"/>
        </g>
        <g transform="matrix(1,0,0,1,361.221,2426.39)">
            <path d="M0,-84.303C-17.7,-89.61 -27.553,-81.974 -35.676,-84.801L-35.822,-84.924L-35.82,-84.926L-35.869,-84.868L-35.87,-84.868L-35.869,-84.868L-38.44,-81.82L-28.367,-73.321L-18.343,-64.864L-9.475,-57.382L1.128,-48.438L22.62,-30.306C18.103,-29.012 13.465,-24.768 10.614,-18.735C6.373,-9.761 7.693,-0.239 13.561,2.534C19.429,5.307 27.624,0.281 31.864,-8.693C35.667,-16.74 34.996,-25.225 30.585,-28.892C30.561,-28.912 28.725,-30.467 28.701,-30.488L3.846,-51.457L-6.66,-60.321L-15.755,-67.994L-20.815,-72.263C-17.223,-75.004 -15.964,-80.807 -0.557,-80.625C10.021,-78.878 14.096,-70.177 16.778,-65.148C19.15,-60.699 19.991,-61.442 14.248,-73.478C12.137,-77.902 6.237,-82.433 0,-84.303" style="fill:rgb(102,102,102);fill-rule:nonzero;"/>
        </g>
    </g>
</svg>
