<?xml version="1.0" encoding="UTF-8" standalone="no"?>
<!DOCTYPE svg PUBLIC "-//W3C//DTD SVG 1.1//EN" "http://www.w3.org/Graphics/SVG/1.1/DTD/svg11.dtd">
<svg width="100%" height="100%" viewBox="0 0 438 448" version="1.1" xmlns="http://www.w3.org/2000/svg" xmlns:xlink="http://www.w3.org/1999/xlink" xml:space="preserve" xmlns:serif="http://www.serif.com/" style="fill-rule:evenodd;clip-rule:evenodd;stroke-linejoin:round;stroke-miterlimit:1.41421;">
    <g transform="matrix(1,0,0,1,-6110.75,-1801.52)">
        <g transform="matrix(4.16667,0,0,4.16667,0,0)">
            <path d="M1514.18,447.795C1514.22,446.573 1514.78,445.988 1515.13,445.287C1517.37,443.954 1517.8,442.022 1520.91,440.064C1520.91,440.729 1520.83,441.399 1520.83,442.083C1520.83,443.695 1521.42,444.402 1521.42,448.076C1521.42,449.487 1521.32,450.886 1521.19,452.283C1520.68,452.265 1520.19,452.257 1519.68,452.257C1518.97,452.257 1518.26,452.269 1517.55,452.288C1517.13,451.901 1516.66,451.544 1516.34,451.066C1515.6,449.947 1514.89,448.871 1514.18,447.795ZM1466.58,534.97C1468.62,536.868 1471.53,537.243 1474.33,537.314C1476.32,536.703 1477.36,536.089 1478.57,535.723C1479.82,536.109 1481.1,536.341 1482.37,536.341C1483.93,536.341 1484.91,536.129 1485.58,535.814C1486.34,534.584 1486.97,533.451 1484.92,529.213C1484.92,529.213 1484.26,528.898 1483.47,528.287C1485.67,525.779 1491.58,522.338 1493.72,520.52C1494.91,519.507 1495.61,518.216 1496.06,516.813C1496.29,516.84 1496.5,516.864 1496.7,516.864C1497.61,516.864 1497.83,516.033 1497.83,515.124C1497.83,514.971 1497.83,514.819 1497.82,514.663C1497.94,514.674 1498.06,514.679 1498.18,514.679C1498.72,514.679 1499.09,514.562 1499.09,514.022C1499.09,513.765 1499,513.5 1499,513.294C1499,513.236 1499.01,512.711 1499.03,512.028C1500.44,510.883 1503.8,508.292 1507.54,506.405C1509.19,508.073 1511.27,509.259 1512.68,511.3C1512.79,511.459 1517.38,518.671 1519.38,518.671C1519.62,518.671 1519.91,518.598 1520.22,518.49C1520.29,518.52 1520.36,518.549 1520.43,518.582C1520.86,518.91 1521.05,519.601 1521.49,519.601C1521.63,519.601 1521.79,519.528 1521.97,519.429C1522.22,520.354 1523.64,520.182 1524.99,520.731C1525.09,520.775 1525.19,520.793 1525.29,520.793C1525.46,520.793 1525.61,520.721 1525.74,520.609C1533.53,524.705 1536.16,524.14 1542.21,528.34C1541.82,528.675 1541.35,528.894 1541.35,528.91C1541.35,529.256 1542.61,530.089 1542.79,530.578C1542.8,530.578 1543.71,533.425 1543.71,533.425C1543.71,533.756 1543.47,534.126 1543.47,534.501C1543.47,534.867 1543.79,535.016 1543.79,535.289C1543.79,535.294 1543.79,535.301 1543.79,535.314C1540.3,537.187 1539.51,537.482 1539.47,539.563C1540.08,539.765 1541.14,539.843 1543.09,539.843C1545.67,539.843 1547.45,539.762 1549.33,539.143C1549.83,538.366 1550.54,537.418 1550.76,536.334C1550.88,535.681 1550.93,535.032 1550.99,534.393C1552.06,532.847 1554.11,530.672 1554.47,526.185C1553.5,524.417 1551.17,524.953 1549.81,523.294C1548.75,523.445 1547.69,523.65 1546.63,523.856C1539.02,521.257 1541.76,515.491 1530.28,512.846C1530.37,512.62 1530.44,512.407 1530.44,512.235C1530.44,511.367 1528.15,511.758 1526.97,511.351C1526.91,511.329 1526.84,511.32 1526.77,511.32C1526.46,511.32 1526.12,511.49 1525.76,511.49C1525.76,511.49 1525.41,511.398 1524.85,511.273C1523.31,508.417 1523.98,504.531 1521.48,499.175C1522.34,495.936 1524.2,493.284 1524.2,489.237C1524.2,487.581 1523.82,485.966 1523.23,484.412C1523.21,484.077 1523.2,483.747 1523.18,483.414C1523.72,482.885 1524.25,482.35 1524.25,481.645C1524.25,481.598 1523.84,480.243 1523.84,479.061C1523.84,478.508 1523.88,477.954 1523.88,477.389C1523.88,477.141 1523.87,476.916 1523.86,476.71C1525.82,472.93 1526.93,471.315 1526.93,468.806C1526.93,467.676 1526.73,466.307 1526.61,464.958C1527.3,464.545 1528.15,464.442 1528.55,463.636C1529.43,461.853 1530.08,459.975 1530.08,458.017C1530.08,456.207 1529.53,454.735 1528.61,453.308C1528.64,453.076 1528.67,452.844 1528.67,452.618C1528.67,452.216 1528.59,451.834 1528.39,451.486C1526.31,447.956 1525.24,441.307 1525.24,441.151C1525.24,440.017 1526.48,439.908 1526.85,438.72C1528.11,438.728 1528.93,439.228 1530.34,439.228C1532.54,439.228 1533.88,438.324 1533.87,437.206C1536.05,437.31 1537.93,437.413 1538.81,437.472C1541.53,437.654 1552.37,439.242 1558.69,439.307C1565.01,439.365 1569.92,439.664 1570.72,439.307C1571.52,438.947 1571.6,437.529 1571.61,437.279C1571.62,437.027 1571.61,435.598 1570.83,435.193C1570.05,434.796 1565.13,434.83 1558.82,434.555C1552.51,434.278 1541.6,435.287 1538.86,435.325C1537.94,435.339 1535.88,435.341 1533.54,435.33C1532.51,433.794 1530.84,432.467 1530.33,432.467C1530.04,432.467 1529.74,432.59 1529.44,432.746C1529.14,432.516 1528.81,432.364 1528.49,432.364C1527.79,432.364 1527.02,433.074 1526.34,433.86C1526,433.655 1525.63,433.516 1525.22,433.516C1524.96,433.516 1524.75,433.546 1524.57,433.728C1524.09,434.2 1523.37,433.68 1522.94,434.41C1522.91,434.468 1522.83,434.483 1522.74,434.483C1522.61,434.483 1522.43,434.45 1522.28,434.45C1522.12,434.45 1522,434.515 1521.92,434.624C1521.43,434.336 1520.99,434.057 1520.84,434.184C1520.63,434.374 1520.68,435.915 1520.68,435.915C1520.68,435.915 1520.68,435.96 1520.68,436.036C1517.84,436.467 1515.08,437.228 1512.5,438.483C1511.24,436.727 1509.16,436.031 1506.68,436.031C1504.36,436.031 1497.43,437.869 1497.43,442.09C1497.43,442.893 1497.61,443.728 1497.86,444.553C1496.96,445.631 1495.52,446.346 1495.52,448.05C1495.52,448.284 1495.55,448.518 1495.6,448.753C1496.54,449.27 1497.6,449.561 1498.65,449.561C1498.84,449.561 1499.03,449.55 1499.22,449.53C1498.92,450.162 1498.41,450.704 1498.06,451.325C1497.78,451.839 1497.83,452.444 1497.59,452.899C1496.69,454.59 1496.02,456.343 1495.67,458.151C1495.69,460.813 1495.95,461.341 1498.38,468.875C1498.64,469.691 1498.99,470.446 1499.38,471.179C1499.4,471.57 1499.41,471.963 1499.41,472.358C1499.41,473.513 1499.35,474.669 1499.35,475.83C1499.35,482.88 1501.13,483.398 1502.74,483.525C1502.34,485.238 1502.7,486.019 1503.16,486.77C1503.14,486.808 1503.12,486.852 1503.09,486.89C1502.07,488.626 1501.68,490.428 1501.57,492.259C1500.99,492.647 1500.32,493.135 1499.69,494.067C1497.97,496.587 1496.36,498.739 1494.92,501.348C1494.16,502.727 1492.01,502.797 1490.89,507.006C1490.73,507.596 1490.63,508.193 1490.49,508.774C1490.26,508.894 1490.01,508.977 1489.73,508.993C1489.73,509.739 1488.65,509.473 1488.65,510.907C1488.65,511.226 1488.71,511.568 1488.81,511.916C1487.26,514.75 1480.95,522.403 1477.78,525.623C1476.47,525.88 1475.7,525.611 1475.7,526.375L1475.7,526.442C1475.7,531.661 1467.72,530.307 1466.58,534.97Z" style="fill:rgb(3,4,4);fill-rule:nonzero;"/>
        </g>
    </g>
</svg>
