<?xml version="1.0" encoding="UTF-8" standalone="no"?>
<!DOCTYPE svg PUBLIC "-//W3C//DTD SVG 1.1//EN" "http://www.w3.org/Graphics/SVG/1.1/DTD/svg11.dtd">
<svg width="100%" height="100%" viewBox="0 0 777 350" version="1.1" xmlns="http://www.w3.org/2000/svg" xmlns:xlink="http://www.w3.org/1999/xlink" xml:space="preserve" xmlns:serif="http://www.serif.com/" style="fill-rule:evenodd;clip-rule:evenodd;stroke-linejoin:round;stroke-miterlimit:1.41421;">
    <g transform="matrix(1,0,0,1,-2782.65,-1896.91)">
        <g transform="matrix(4.16667,0,0,4.16667,0,0)">
            <path d="M714.569,463.629C716.379,463.982 718.237,464.611 720.073,464.873C719.675,465.972 720.047,467.091 719.857,468.178C719.683,469.163 718.474,470.39 718.952,470.994C719.108,471.19 719.447,471.159 719.811,471.107C719.537,472.209 720.073,473.45 719.977,475.011C719.953,475.354 720.115,475.63 720.316,475.884C720.457,476.06 720.615,476.225 720.755,476.393C719.564,477.025 718.395,477.775 717.122,478.263C716.837,478.372 716.564,478.528 716.313,478.731C715.737,479.186 715.246,480.033 715.233,480.044C714.914,480.299 714.274,480.16 713.87,480.482C713.688,480.627 713.569,480.852 713.48,481.118C713.111,481.265 712.767,481.422 712.379,481.27C705.478,478.519 701.972,482.768 694.761,483.152C688.914,483.456 687.111,483.228 685.573,482.81C684.341,481.833 682.771,481.27 682.116,480.446C681.637,479.846 681.392,479.07 680.904,478.457C680.68,478.173 680.412,477.952 680.078,477.532C678.657,475.743 678.481,474.004 677.771,473.11C676.764,471.843 674.837,471.345 673.181,472.137C672.55,472.44 671.304,471.619 670.584,472.19C667.72,474.469 667.023,482.02 668.834,484.296C669.935,485.681 671.837,486.109 672.604,487.074C673.334,487.991 673.046,488.458 673.789,489.393C675.113,491.057 677.425,490.993 679.534,491.481C681.089,491.031 682.551,490.311 684.002,489.557C686.646,489.428 689.149,488.558 691.873,488.59C699.167,488.677 708.894,490.774 714.675,488.487C715.6,488.454 716.53,487.779 717.239,487.219C717.312,487.158 717.381,487.102 717.45,487.047C718.736,486.996 720.066,487.083 721.162,487.873C723.102,487.221 724.977,487.518 726.75,487.871C726.419,489.012 726.545,490.249 726.87,491.388C727.069,492.066 726.228,492.681 726.23,493.279C726.231,494.133 726.742,494.793 726.018,495.519C726.179,495.626 725.991,495.776 726.064,495.87C726.202,496.061 726.344,496.249 726.494,496.439C726.636,496.615 726.777,496.792 726.93,496.957C721.657,505.213 721.935,515.9 717.215,524.955C715.327,526.451 714.133,527.279 714.133,527.279C713.034,528.157 712.021,529.148 710.927,530.019C710.595,530.285 710.252,530.542 709.898,530.776C709.951,531.245 710.106,531.725 710.398,532.09C710.505,532.225 710.629,532.344 710.775,532.444C712.067,532.302 713.149,531.64 714.318,531.071C714.253,532.024 713.932,532.978 713.764,533.976C713.722,534.23 713.825,534.454 713.77,534.664C713.565,535.455 712.999,536.538 713.296,536.913C713.44,537.094 713.932,537.185 714.246,537.482C714.854,537.286 715.379,536.962 715.867,536.573C716.341,536.196 716.78,535.756 717.218,535.323C718.075,534.95 718.98,534.641 719.733,534.046C723.05,531.408 722.153,529.926 721.785,527.963C722.352,526.73 723.814,524.573 725.804,519.486C727.764,514.499 729.525,509.529 732.696,505.302C733.068,504.393 733.452,503.471 733.778,502.479C734.432,500.454 735.083,498.487 736.104,496.756C736.863,496.776 737.556,496.941 738.171,497.712C738.542,498.177 738.815,498.739 739.165,499.179C739.978,500.202 741.485,500.005 743.319,501.646C743.665,501.95 744.222,501.865 744.478,502.189C744.676,502.439 744.718,502.83 744.868,503.017C745.066,503.267 745.726,503.252 746.476,503.134C746.863,503.505 747.209,503.906 747.548,504.331C747.807,504.661 748.061,504.998 748.329,505.338C749,506.184 751.538,505.133 754.716,506.322C755.381,505.851 756.042,505.371 756.701,504.882C757.858,505.014 759.048,505.048 760.22,504.925C763.924,508.388 763.776,511.202 768.854,511.353C769.961,511.387 770.935,511.428 771.863,511.409C773.441,512.629 776.246,512.817 779.665,513.658C784.358,514.804 784.615,514.179 787.62,514.56C788.641,515.39 789.881,515.934 790.867,516.934C791.556,517.629 793.134,516.856 793.772,517.66C793.984,517.926 794.159,518.348 794.352,518.591C794.686,519.013 800.036,518.679 800.612,518.624C801.213,518.57 801.782,518.439 802.332,518.249C804.9,519.538 805.713,519.057 812.624,521.853C813.229,522.098 813.984,521.883 814.578,522.143C816.798,523.101 818.99,523.361 821.059,524.351C821.972,524.792 822.798,525.488 823.771,525.882C824.242,526.071 824.709,526.069 825.185,526C825.625,526.29 826.064,526.581 826.386,526.984C826.906,527.641 827.25,529.45 828.273,530.736C828.552,531.087 828.874,531.392 829.273,531.642C832.239,533.505 834.021,536.394 836.377,538.543C837.158,539.262 838.333,539.311 839.576,539.123C840.994,536.044 838.522,531.549 838.326,526.515C838.264,525.118 836.926,524.091 836.479,521.88C836.077,519.892 835.721,517.882 835.312,515.871C833.73,514.762 831.618,514.205 829.805,513.49C828.943,513.142 828.608,512.141 827.771,511.652C826.145,510.704 824.622,510.137 823.084,509.699C828.164,508.223 835.356,506.394 838.46,507.868C839.527,508.377 840.803,508.169 842.103,507.809C842.462,507.922 842.821,508.044 843.16,508.256C845.729,509.9 847.973,512.117 851.343,511.862C852.316,511.791 853.209,511.532 854.071,511.213C854.484,509.395 853.395,507.559 852.388,506.121C851.253,504.505 850.617,502.667 849.411,501.153C848.601,500.133 847.714,499.581 846.785,499.139C846.381,497.705 845.925,495.816 844.896,494.518C843.533,492.806 841.231,491.993 839.13,491.45C838.34,491.727 837.576,492.066 836.948,492.564C836.187,493.168 835.695,494.088 834.981,495.39C834.152,495.034 833.3,494.432 832.406,494.608C831.781,494.73 831.292,495.204 830.768,495.603C829.4,495.432 828.104,494.983 826.719,494.987C818.479,495.001 811.418,497.991 804.002,500.805C800.577,500.097 797.627,498.156 794.541,496.511C793.371,495.888 792.104,495.617 790.816,495.434C785.534,491.165 781.12,485.611 773.052,486.429C770.3,486.71 767.661,487.288 765.039,487.371C763.215,486.918 761.517,486.92 760.069,485.099C759.906,484.898 759.75,484.689 759.592,484.49C757.426,481.765 746.724,478.332 739.4,471.623C738.355,470.661 737.122,470.064 735.838,469.241C735.421,468.428 735.126,467.544 735.112,466.516C735.103,466.133 734.815,465.641 734.809,465.262C734.762,463.002 736.005,461.356 733.649,458.394C731.756,456.013 728.456,454.614 725.586,455.553C724.693,455.847 723.859,456.332 723.035,456.87C722.232,458.149 721.285,459.317 720.665,460.675C718.808,461.046 716.539,461.077 715.369,462.006C714.902,462.379 714.599,462.892 714.569,463.629Z" style="fill:rgb(3,4,4);fill-rule:nonzero;"/>
        </g>
    </g>
</svg>
