<?xml version="1.0" encoding="UTF-8" standalone="no"?>
<!DOCTYPE svg PUBLIC "-//W3C//DTD SVG 1.1//EN" "http://www.w3.org/Graphics/SVG/1.1/DTD/svg11.dtd">
<svg width="100%" height="100%" viewBox="0 0 270 518" version="1.1" xmlns="http://www.w3.org/2000/svg" xmlns:xlink="http://www.w3.org/1999/xlink" xml:space="preserve" xmlns:serif="http://www.serif.com/" style="fill-rule:evenodd;clip-rule:evenodd;stroke-linejoin:round;stroke-miterlimit:1.41421;">
    <g transform="matrix(1,0,0,1,-2391.9,-1770.51)">
        <g transform="matrix(4.16667,0,0,4.16667,0,0)">
            <path d="M625.289,433.539C625.86,434.53 626.348,435.589 627.052,436.502C627.15,436.63 627.436,436.797 627.436,436.949C627.436,437.123 627.013,437.237 626.735,437.237C626.735,437.237 625.58,437.015 624.08,436.806C623.69,438.572 624.283,439.912 622.419,442.815C622.139,443.248 621.921,443.699 621.742,444.164C622.377,444.445 622.997,444.766 623.638,445.075C631.767,448.982 631.197,445.599 634.583,457.587C636.105,462.974 638.06,463.142 638.748,466.77C637.834,467.731 636.923,467.7 635.539,467.624C636.295,469.106 637.612,470.337 637.612,472.101C637.612,474.564 633.215,475.656 631.282,475.83C631.271,475.833 631.264,475.835 631.259,475.835C630.994,475.835 631.113,475.394 630.875,475.312C629.927,474.977 628.397,475.837 627.865,472.646C627.803,472.298 627.2,472.246 627.169,471.951C626.986,470.245 626.258,468.613 625.13,467.374C624.826,467.976 624.389,468.523 624.273,469.227C623.232,475.471 622.11,478.313 620.848,479.711C620.545,481.824 619.243,483.65 617.615,485.098C617.689,485.953 617.803,486.806 617.803,487.659C617.803,489.039 617.628,489.468 617.152,489.733C616.934,491.879 617.152,495.688 615.526,499.118C615.076,500.067 614.592,500.963 614.132,501.867C614.769,503.424 615.103,505.145 615.103,506.841C615.103,510.098 613.975,512.896 610.949,515.739C610.305,516.343 609.538,516.739 608.707,517.028C607.156,519.388 603.375,521.288 600.471,525.83C600.569,527.375 601.189,529.421 601.189,529.441C601.189,529.548 599.881,532.089 599.881,533.874C599.881,536.021 601.882,539.244 601.882,542.566C601.882,544.425 601.358,545.726 599.998,546.282C600.146,546.723 600.297,547.155 600.297,547.618C600.297,548.719 598.839,549.149 597.779,549.149C593.824,549.149 592.739,546.695 590.309,541.988C589.401,541.587 588.181,541.173 587.551,540.416C586.491,539.141 584.485,536.901 584.485,536.059C584.485,535.211 587.01,532.026 590.389,530.473C590.333,530.053 590.293,529.629 590.293,529.211C590.293,527.579 591.251,526.185 592.503,525.096C592.519,524.91 592.527,524.71 592.527,524.492C592.527,523.74 592.442,522.992 592.442,522.237C592.442,519.457 594.089,516.848 596.122,514.929C596.479,514.591 596.481,514.015 596.815,513.713C597.159,513.405 597.594,513.966 598.325,512.832C598.153,512.112 597.551,511.923 597.551,511.515C597.551,511.44 597.833,510.529 597.833,509.645C597.833,509.118 597.79,508.602 597.79,508.073C597.79,508.073 598.089,506.251 598.346,502.91C598.208,502.651 598.065,502.388 597.917,502.127C596.074,498.893 591.029,488.976 591.029,485.075C591.029,483.612 591.365,482.14 592.125,480.754C592.89,479.36 591.702,478.89 593.311,477.335C593.025,476.55 592.739,475.772 592.739,474.962C592.739,473.329 593.975,471.732 594.153,470.038C594.317,468.459 594.396,466.869 594.396,465.279C594.396,462.45 594.147,459.618 593.679,456.839C592.924,456.544 592.178,456.178 591.368,456.178C590.187,456.178 590.521,456.745 587.63,456.745C585.3,456.745 585.431,456.865 584.39,457.013C583.516,460.89 581.269,462.959 580.308,466.798C579.858,468.613 579.725,470.408 579.574,472.195C580.827,473.495 581.42,475.216 581.42,476.991C581.42,478.086 580.818,480.816 580.773,480.87C580.562,481.118 580.208,481.261 579.863,481.261C579.746,481.261 579.632,481.245 579.524,481.214C580.173,482.432 582.102,483.597 580.644,483.597C580.562,483.597 580.488,483.581 580.424,483.536C579.344,482.751 578.039,483.088 577.182,482.435C575.803,481.384 574.056,480.051 574.056,478.177C574.056,477.508 574.256,477.007 574.486,476.529C574.55,473.644 575.548,472.765 575.548,471.679C575.548,470.996 575.326,470.261 575.326,469.594C575.326,469.594 575.378,468.497 575.378,467.18C575.378,464.967 575.262,462.773 575.262,460.565C575.262,455.398 575.686,451.066 579.956,449.43C579.845,448.775 579.651,448.13 579.45,447.488C582.415,444.398 592.249,443.942 593.806,443.451C596.236,442.687 598.785,442.323 600.024,442.323C601.245,442.323 602.449,442.576 603.691,442.576C605.138,442.576 606.6,442.12 608.104,441.939C609.475,440.455 610,440.14 610.319,438.47C609.658,437.331 608.766,436.08 608.766,434.589C608.766,433.57 609.165,433.36 609.733,430.304C610.314,427.19 613.306,424.922 616.993,424.922C620.842,424.922 625.596,427.362 625.596,430.913C625.596,431.397 625.411,432.272 625.289,433.539Z" style="fill:rgb(3,4,4);fill-rule:nonzero;"/>
        </g>
    </g>
</svg>
