<?xml version="1.0" encoding="UTF-8" standalone="no"?>
<!DOCTYPE svg PUBLIC "-//W3C//DTD SVG 1.1//EN" "http://www.w3.org/Graphics/SVG/1.1/DTD/svg11.dtd">
<svg width="100%" height="100%" viewBox="0 0 347 290" version="1.1" xmlns="http://www.w3.org/2000/svg" xmlns:xlink="http://www.w3.org/1999/xlink" xml:space="preserve" xmlns:serif="http://www.serif.com/" style="fill-rule:evenodd;clip-rule:evenodd;stroke-linejoin:round;stroke-miterlimit:2;">
    <g transform="matrix(1,0,0,1,-34.54,-1122.64)">
        <g transform="matrix(4.16667,0,0,4.16667,-1014.44,-829.515)">
            <g transform="matrix(1,0,0,1,287.378,514.804)">
                <path d="M0,-20.973C-0.247,-21.244 -0.418,-21.367 -0.739,-21.638C-0.96,-22.525 -0.862,-23.582 -0.837,-24.469C-0.518,-24.199 -0.418,-24 -0.247,-23.631C0.099,-23.016 0.64,-22.475 1.034,-21.811C0.812,-21.466 0.419,-21.022 0,-20.973M8.075,-24.542C7.952,-24.641 7.853,-24.837 7.952,-24.986L8.567,-24.986C8.37,-24.813 8.296,-24.591 8.075,-24.542M31.88,23.089C37.001,22.596 42.614,23.483 47.464,22.03C48.007,20.873 47.045,19.667 46.356,18.559C45.421,17.353 44.78,15.925 43.747,14.867C43.401,14.695 43.501,14.498 43.23,14.203C40.325,10.067 37.715,5.907 35.45,1.402C32.077,-4.013 28.483,-9.207 25.332,-14.745C24.84,-16.075 23.658,-16.74 24.077,-18.142C24.397,-18.979 24.692,-19.521 25.185,-20.16C25.825,-20.973 26.563,-21.687 27.081,-22.425C28.262,-23.385 28.877,-24.69 30.01,-25.675C30.306,-26.142 30.552,-26.462 30.97,-26.856C33.013,-28.776 34.884,-30.499 36.878,-32.444C38.06,-33.232 38.726,-34.388 39.832,-35.275C41.335,-36.579 42.713,-38.13 44.067,-39.583C44.461,-40.518 45.126,-41.749 44.584,-42.561C44.387,-42.808 44.189,-42.808 43.969,-43.004C43.132,-43.153 42.294,-43.153 41.457,-43.349C38.602,-43.645 35.771,-43.545 32.915,-43.545C29.024,-43.399 25.013,-44.235 21.147,-43.25C20.827,-43.078 20.556,-43.153 20.335,-42.856C19.99,-42.561 19.497,-42.364 19.128,-42.192C18.833,-42.808 19.104,-43.914 18.267,-44.383C17.503,-44.456 16.938,-43.866 16.765,-43.3C16.494,-42.561 16.272,-41.675 16.052,-41.109C15.78,-40.518 15.829,-39.854 15.485,-39.508C13.885,-39.854 12.481,-39.459 11.005,-39.459C9.97,-40.641 9.207,-42.315 7.582,-42.462C7.163,-42.462 6.844,-42.315 6.721,-41.946C6.598,-41.577 6.647,-41.133 6.45,-41.036C6.229,-41.256 5.933,-41.256 5.589,-41.577C5.096,-41.848 4.604,-42.167 4.136,-41.871C3.644,-41.625 3.151,-41.355 3.003,-40.863C2.929,-39.681 3.2,-38.401 3.766,-37.416L1.92,-36.284C1.551,-37.834 0.936,-39.583 0.099,-41.01C-0.197,-41.355 -0.518,-42.02 -1.083,-41.848C-1.576,-42.586 -2.143,-43.153 -3.028,-43.472C-4.382,-43.841 -5.663,-44.235 -6.819,-44.333C-10.217,-44.087 -13.466,-44.259 -16.79,-44.013C-17.455,-43.841 -18.07,-43.841 -18.71,-43.841C-19.128,-43.029 -20.237,-42.906 -20.507,-41.848C-20.926,-41.036 -20.901,-39.903 -21.222,-39.09C-21.246,-35.226 -21.64,-31.484 -21.764,-27.595C-21.64,-25.133 -21.96,-22.647 -21.738,-20.235C-22.477,-20.53 -23.19,-21.244 -23.979,-21.638C-25.356,-22.525 -26.145,-23.657 -27.204,-24.69C-28.952,-26.586 -30.995,-28.21 -32.251,-30.327L-34.762,-33.355C-34.935,-33.502 -35.254,-33.429 -35.401,-33.232C-35.623,-32.74 -35.451,-32.272 -35.623,-31.877C-35.401,-31.385 -35.327,-30.819 -35.181,-30.425C-34.171,-26.043 -31.216,-23.041 -28.533,-19.817C-28.04,-19.521 -27.696,-18.979 -27.277,-18.586C-25.923,-17.035 -24.373,-16.05 -22.797,-14.844C-22.354,-14.647 -21.984,-14.524 -21.984,-14.007C-22.526,-11.102 -21.296,-7.608 -23.068,-5.244C-24.422,-3.644 -25.702,-1.97 -26.76,-0.173C-27.647,1.329 -28.435,2.732 -29.321,4.183C-29.543,4.923 -29.888,5.512 -30.256,6.129C-30.354,6.472 -30.822,6.842 -30.577,7.236L-30.207,7.285L-29.543,6.4C-29.271,5.144 -28.804,3.692 -27.918,2.412C-27.425,1.722 -26.981,1.156 -26.515,0.492C-25.8,-0.444 -25.21,-1.354 -24.472,-2.289C-23.732,-3.447 -22.97,-4.408 -22.182,-5.367C-21.688,-2.118 -21.468,1.649 -21.688,4.996C-22.896,6.35 -24.077,7.581 -24.987,9.23C-26.735,11.741 -28.606,13.931 -29.765,16.812C-29.739,17.156 -30.157,17.379 -29.936,17.722C-28.804,16.738 -28.484,14.744 -27.253,13.366C-25.923,11.346 -24.52,9.476 -23.142,7.531L-21.517,5.562C-21.688,9.747 -21.517,13.931 -21.688,18.116C-21.861,19.495 -21.147,20.923 -20.311,21.784C-17.282,23.089 -14.181,22.375 -11.152,22.547C-10.487,22.547 -9.774,22.671 -9.257,22.768C-9.035,22.941 -8.665,22.621 -8.519,22.867C-7.091,22.793 -5.859,22.596 -4.53,22.547C-4.136,22.375 -3.742,22.104 -3.373,21.834C-1.748,20.578 -1.379,18.263 -1.256,16.369C-0.764,13.636 -0.911,10.978 -0.542,8.295C-0.469,7.458 -0.296,6.695 0,6.006C0.419,4.873 1.132,3.938 1.821,3.051C2.265,2.509 2.536,1.943 2.88,1.451C3.692,0.319 4.776,-0.591 5.933,-1.329C6.327,-1.354 6.45,-1.502 6.721,-1.625C7.46,-2.069 8.346,-2.069 9.084,-1.97C10.389,-1.429 10.856,-0.124 11.718,0.934C12.53,2.509 13.318,3.888 14.007,5.217C14.771,6.571 15.682,8.122 16.371,9.575C16.765,10.584 17.553,11.642 17.677,12.529C18.833,13.661 19.399,15.655 20.581,16.984C22.28,19.273 24.421,21.046 27.007,22.276C27.696,22.177 28.04,22.498 28.632,22.596C29.788,22.892 30.773,22.892 31.88,23.089" style="fill:rgb(35,31,32);fill-rule:nonzero;"/>
            </g>
        </g>
        <g transform="matrix(4.16667,0,0,4.16667,-1014.44,-829.515)">
            <g transform="matrix(1,0,0,1,323.69,471.899)">
                <path d="M0,65.181C2.142,65.082 4.432,65.181 6.574,65.058C7.805,65.058 8.962,64.959 10.094,64.787C10.439,64.566 10.857,64.221 10.783,63.901C9.897,62.67 8.912,61.391 8.075,60.184C7.73,58.51 6.253,57.329 5.466,56.049C4.924,54.965 4.063,53.833 3.398,52.726C1.084,48.763 -1.501,45.317 -3.84,41.28C-4.111,40.246 -4.924,39.458 -5.219,38.497C-5.908,37.291 -6.598,36.209 -7.336,35.077C-7.557,34.756 -7.631,34.51 -7.828,34.24C-8.074,33.797 -8.346,33.526 -8.615,33.181C-10.02,31.064 -11.742,29.168 -12.653,26.953C-13.343,22.941 -9.625,19.742 -7.459,17.034C-5.884,16.024 -4.85,14.768 -3.396,13.439C-0.049,9.131 5.982,6.104 7.928,0.885C6.426,-0.124 4.727,0.197 3.127,-0.001C-1.551,-0.222 -6.228,-0.173 -10.782,-0.124C-12.358,-0.025 -13.811,-0.124 -15.484,0.541C-16.593,1.108 -17.75,1.673 -17.773,2.904C-17.823,3.446 -18.365,3.618 -18.267,4.061C-17.65,4.652 -17.134,5.119 -16.691,5.785C-15.805,7.162 -15.854,8.713 -16.593,10.018C-16.986,10.731 -17.65,11.077 -18.094,11.766C-18.932,12.455 -19.227,13.637 -19.99,14.251C-19.916,14.843 -19.94,15.36 -20.039,16.024C-20.384,17.501 -21.27,18.929 -21.713,20.578C-22.205,21.439 -22.377,22.326 -22.821,23.211C-22.821,23.334 -22.771,23.434 -22.771,23.434C-22.082,23.876 -21.369,24.197 -20.654,24.566C-19.99,24.935 -19.301,25.28 -18.586,25.772C-17.257,27.002 -14.82,27.84 -14.696,29.785C-14.869,30.129 -15.115,30.276 -15.459,30.326C-15.952,30.227 -16.469,29.833 -17.035,29.735C-17.75,29.514 -18.365,29.021 -19.005,28.898C-18.759,29.391 -18.316,29.833 -18.094,30.351C-17.527,31.237 -16.912,32.024 -16.321,32.935C-16.101,33.403 -16.002,33.822 -15.879,34.24C-15.756,34.682 -15.583,35.224 -15.977,35.47C-17.553,35.839 -18.389,34.288 -19.325,33.403C-19.842,32.787 -20.31,32.245 -20.826,31.778C-20.654,32.787 -20.334,33.822 -20.211,34.905C-20.138,35.569 -20.334,36.283 -20.752,36.676C-21.245,36.799 -21.663,36.578 -21.885,36.086C-23.338,33.181 -23.56,28.775 -26.439,26.953C-26.514,26.953 -26.611,26.929 -26.611,26.929C-26.611,27.323 -26.76,27.543 -26.908,28.061C-27.498,28.8 -26.785,29.391 -26.686,30.055C-26.193,30.793 -26.07,31.532 -25.923,32.369C-25.652,32.935 -25.947,33.526 -25.85,34.117C-25.553,34.609 -25.947,35.347 -25.923,36.086C-26.07,36.702 -26.292,37.144 -26.439,37.735C-26.98,38.646 -27.523,39.285 -28.163,40.246C-26.883,40.122 -25.455,40.862 -24.987,42.166C-23.535,44.307 -22.082,46.868 -20.975,49.452C-20.433,50.486 -19.694,51.643 -19.227,52.8C-18.242,54.597 -17.307,56.492 -16.247,58.166C-14.918,60.381 -13.195,62.178 -11.053,63.532C-10.143,64 -9.281,64.246 -8.518,64.616C-7.853,64.787 -7.139,64.836 -6.523,64.959C-4.332,65.403 -2.067,64.739 0,65.181" style="fill:rgb(249,162,89);fill-rule:nonzero;"/>
            </g>
        </g>
        <g transform="matrix(4.16667,0,0,4.16667,-1014.44,-829.515)">
            <g transform="matrix(1,0,0,1,270.637,501.067)">
                <path d="M0,35.767L4.58,35.668C3.964,35.225 4.111,34.364 3.619,33.896C3.127,32.542 3.201,31.213 3.521,29.786C3.004,29.538 2.24,30.278 1.625,29.538C0.96,28.826 0.346,28.013 0.271,26.979C-1.059,23.878 -0.221,20.062 0.296,16.788C0.492,15.608 0.738,14.574 1.035,13.441C1.133,12.998 1.354,12.383 1.502,11.89C1.674,11.324 1.945,10.733 2.117,10.166C2.856,8.149 4.234,6.352 6.426,5.786C5.294,5.022 3.496,4.9 2.117,4.013C0.394,3.349 -1.156,2.069 -2.855,1.183C-3.348,0.788 -4.11,0.469 -4.555,0L-4.604,6.621L-3.791,6.179L-3.569,6.524C-5.662,8.444 -3.938,11.694 -4.382,14.303C-4.332,15.508 -4.283,16.591 -4.258,17.748C-4.012,17.748 -3.84,17.429 -3.644,17.281C-3.176,16.74 -2.807,15.977 -2.092,16.025C-1.895,16.075 -1.723,16.346 -1.895,16.371C-2.609,16.837 -3.052,17.305 -3.717,17.896C-4.997,20.481 -3.791,23.705 -4.283,26.635C-4.283,29.046 -4.775,31.435 -4.012,33.847C-3.102,35.3 -1.551,35.694 0,35.767" style="fill:rgb(249,162,89);fill-rule:nonzero;"/>
            </g>
        </g>
        <g transform="matrix(4.16667,0,0,4.16667,-1014.44,-829.515)">
            <g transform="matrix(1,0,0,1,277.826,511.997)">
                <path d="M0,24.837C0.492,24.837 0.984,24.641 1.502,24.468C1.944,24.345 2.166,24.149 2.461,23.926C3.396,23.188 3.914,21.957 4.529,21.07C6.351,17.624 7.409,13.933 7.976,10.338C8.197,7.926 8.369,5.515 8.075,3.249C8.1,3.028 8.469,2.856 8.566,3.028L10.954,1.083C10.708,1.083 10.881,0.69 10.635,0.764C10.044,0.837 9.625,0.861 9.182,0.69C8.788,0.641 8.469,0.468 8.173,0.468C7.854,0.345 7.483,0.024 7.188,0C7.188,0.295 6.917,0.641 6.868,0.984C6.203,1.846 6.523,2.757 5.711,3.52C4.111,4.037 3.273,5.539 2.24,6.745C2.289,8.049 2.166,9.428 1.944,10.584C1.821,11.274 1.821,11.791 1.525,12.554C1.329,12.899 1.329,13.193 1.133,13.612C0.664,15.385 -0.346,16.443 -1.601,17.576C-2.389,18.068 -3.324,18.561 -3.226,19.668C-3.348,20.456 -3.151,21.12 -3.151,21.834C-3.078,21.907 -3.053,21.982 -3.053,22.129C-2.34,21.761 -2.02,20.849 -1.478,20.186C-0.566,18.904 0.344,17.87 1.133,16.566C1.452,16.099 1.674,15.508 1.944,15.065C2.215,14.449 2.584,13.735 2.732,13.12C2.732,12.948 2.732,12.628 2.904,12.702C3.2,12.628 3.273,13.047 3.348,13.243C2.854,14.277 2.561,15.286 1.895,16.246C1.846,16.665 1.625,16.837 1.502,17.059C0.984,18.068 0.146,18.953 -0.443,19.89C-0.984,20.529 -1.404,21.12 -1.773,21.735C-1.995,22.229 -2.314,22.449 -2.609,22.818C-2.512,23.41 -2.167,24.149 -1.675,24.345C-0.05,23.976 0.763,22.572 1.748,21.366C2.461,20.186 3.127,19.053 3.667,17.87C4.037,16.738 4.233,15.631 4.726,14.548C4.825,14.326 4.973,14.326 5.17,14.399C5.366,15.016 4.85,15.631 4.751,16.319C3.914,18.757 2.782,21.219 1.133,22.966L-0.665,24.738L0,24.837Z" style="fill:rgb(194,157,5);fill-rule:nonzero;"/>
            </g>
        </g>
        <g transform="matrix(4.16667,0,0,4.16667,-1014.44,-829.515)">
            <g transform="matrix(1,0,0,1,280.779,526.176)">
                <path d="M0,10.559C1.306,10.781 2.561,10.338 3.324,9.205C3.57,8.713 3.792,8.344 4.014,7.875C4.186,7.507 4.407,7.039 4.506,6.669C4.728,6.006 4.678,5.267 4.776,4.774C4.851,3.052 4.776,1.427 5.022,-0.222C4.801,-0.124 4.9,0.369 4.678,0.59C3.693,3.691 2.856,6.006 1.158,8.639C0.666,9.329 0.124,9.944 -0.393,10.461L0,10.559Z" style="fill:rgb(249,162,89);fill-rule:nonzero;"/>
            </g>
        </g>
        <g transform="matrix(4.16667,0,0,4.16667,-1014.44,-829.515)">
            <g transform="matrix(1,0,0,1,272.977,482.828)">
                <path d="M0,47.409C1.082,47.31 2.018,46.547 2.683,45.612C3.249,44.405 3.741,43.568 3.963,42.412C4.75,39.753 4.308,37.218 4.431,34.535C4.529,34.462 4.677,34.535 4.8,34.485C5.292,37.981 5.193,41.501 3.667,45.07C4.135,44.554 4.627,43.668 5.021,43.003C5.465,42.043 5.883,41.107 6.179,40.123C6.475,38.326 6.352,36.602 6.204,34.83C5.982,33.132 6.031,31.385 5.687,29.71C5.612,29.07 5.465,28.405 5.514,27.668C5.514,27.815 5.342,27.815 5.366,27.963C5.342,28.11 5.145,28.11 4.996,28.11C4.701,27.544 5.243,27.052 5.342,26.585C5.736,25.895 6.204,25.378 6.671,24.714C7.09,24.221 7.582,23.803 8.024,23.359C8.764,22.843 9.675,22.473 10.536,22.522C10.659,22.695 10.635,22.868 10.438,23.089C9.97,23.138 9.478,23.359 9.256,23.68C9.921,26.117 11.472,28.529 14.105,29.317C15.313,29.513 16.666,29.169 17.33,28.11C17.627,27.422 17.699,26.805 17.946,26.117C18.094,24.763 18.167,23.581 17.896,22.153C17.848,21.685 17.699,21.292 17.553,20.874C17.381,20.578 17.479,20.356 17.257,20.086C16.765,18.682 16.075,17.575 15.313,16.122C15.041,15.803 14.771,15.359 14.771,15.014C14.869,14.867 15.041,14.744 15.189,14.793L16.148,16.197C16.543,14.448 17.207,12.897 18.167,11.346C18.832,10.117 20.063,8.96 21.393,8.393C21.664,8.393 21.935,8.393 21.935,8.098C21.885,7.753 21.836,7.286 21.467,7.187C19.768,6.843 18.955,8.122 17.602,8.664C17.725,9.009 18.167,9.157 18.315,9.501C18.217,9.649 18.167,9.673 18.119,9.772C18.217,9.895 18.537,9.993 18.341,10.263C18.241,10.412 17.946,10.559 17.848,10.412C17.553,9.993 17.011,9.722 16.986,9.329C16.271,8.664 15.804,7.901 15.213,7.138C15.189,6.572 14.623,6.425 14.5,5.98C14.401,5.883 14.377,5.808 14.377,5.808C13.762,4.874 13.022,4.036 12.21,3.2C11.595,2.362 10.979,1.033 10.413,0C9.675,2.165 10.142,4.602 9.478,7.039C9.354,7.555 9.305,8.393 8.738,8.492C8.469,8.345 8.738,8 8.689,7.753C8.346,7.433 7.977,7.555 7.533,7.286C5.021,6.843 2.51,6.104 -0.05,6.498C-0.148,6.94 0.442,7.138 0.787,7.335C1.771,7.605 2.535,8.049 3.471,8.27C4.431,8.516 5.834,8.122 6.671,8.714C5.342,9.205 3.372,8.714 1.797,9.009C0.344,9.157 -0.985,9.058 -2.34,9.575C-2.438,9.722 -2.487,9.944 -2.34,10.043C0.172,10.954 2.608,10.731 5.047,10.559C5.539,10.658 6.204,10.338 6.475,10.731C6.598,10.954 6.475,11.027 6.352,11.126C5.342,10.904 4.406,11.126 3.471,11.101C3.126,11.175 2.608,11.249 2.142,11.396C1.182,11.519 0.319,11.864 -0.369,12.578C0.073,13.292 1.23,13.169 1.846,13.193C2.142,13.07 2.412,13.12 2.683,13.021C3.225,13.021 3.594,12.8 4.086,12.701C5.243,12.554 6.302,11.963 7.36,11.815C10.043,10.658 11.891,12.947 14.254,13.488C14.598,13.292 14.943,12.8 14.894,12.505C14.623,11.963 14.154,12.012 14.057,11.396C12.925,10.658 11.988,9.551 10.635,9.23C10.191,9.353 10.266,8.812 10.02,8.714C9.97,8.492 10.043,8.393 10.093,8.27C10.216,8.319 10.363,8.221 10.314,8.049C10.659,7.335 10.314,6.572 10.659,5.834C10.708,5.169 11.2,4.282 10.708,3.938C10.536,3.815 10.363,3.815 10.314,3.642C10.635,3.421 10.266,3.003 10.512,2.83C11.127,2.756 10.881,3.544 11.472,3.593C11.496,4.331 12.186,4.751 12.53,5.389C13.318,6.498 14.105,7.385 15.041,8.172C15.115,8.122 14.82,8.516 14.869,8.27C14.992,8.664 15.337,8.737 15.533,9.23C16.025,9.772 16.271,10.338 16.716,10.88C16.888,11.126 16.789,11.396 16.666,11.519C16.174,11.519 16.223,10.781 15.804,10.83C15.484,11.101 15.189,11.223 14.992,11.519C15.558,12.11 15.656,12.848 15.238,13.562C14.82,13.907 14.254,14.03 13.859,14.104C13.096,13.907 12.383,13.415 11.767,13.169C10.536,12.848 9.527,13.858 8.689,14.621C8.469,15.163 8.123,15.507 7.902,16.122C7.41,17.255 7.09,18.51 7.41,19.618C8.517,19.618 9.601,18.805 10.659,18.904C10.807,19.076 10.807,19.2 10.708,19.396C10.413,19.298 10.314,19.618 10.191,19.741C9.724,19.765 9.527,20.086 8.961,20.233C8.148,20.528 7.213,20.528 6.375,20.701C5.76,20.676 5.243,20.751 4.677,20.8C4.627,22.646 4.996,24.443 4.012,26.313C3.865,26.388 3.84,26.437 3.791,26.485C3.594,26.485 3.471,26.117 3.471,26.043C3.741,25.747 3.791,25.28 3.865,24.934C1.674,25.132 0.861,27.544 0,29.317C-0.148,29.784 -0.223,30.252 -0.469,30.622C-0.838,32.097 -1.108,33.698 -1.551,35.151C-1.946,38.203 -2.536,41.28 -1.921,44.11C-1.602,44.381 -1.305,44.332 -1.01,44.184C1.058,41.428 1.771,37.981 2.289,34.757C2.289,34.141 2.289,33.526 2.51,33.034L2.904,33.206C3.027,34.708 2.51,36.282 2.289,37.834C1.994,38.448 1.994,39.138 1.698,39.827C1.402,40.664 1.304,41.452 0.861,42.362C0.689,43.224 0.023,43.741 -0.492,44.554C-0.715,44.874 -1.01,44.997 -1.33,44.947C-1.33,45.292 -1.158,45.513 -1.084,45.858C-0.838,46.449 -0.616,47.285 0,47.409" style="fill:rgb(194,157,5);fill-rule:nonzero;"/>
            </g>
        </g>
        <g transform="matrix(4.16667,0,0,4.16667,-1014.44,-829.515)">
            <g transform="matrix(1,0,0,1,286.738,512.982)">
                <path d="M0,7.656C0.222,7.459 0.171,7.213 0.393,6.941C0.222,6.203 1.059,5.834 1.451,5.268C2.683,3.84 3.249,2.363 4.579,0.985C4.479,0.812 4.332,0.885 4.062,0.763C2.88,0 1.944,0.985 1.009,1.552C-0.346,2.314 0.171,3.816 0.098,4.948C0.295,5.883 0,6.745 0,7.656" style="fill:rgb(249,162,89);fill-rule:nonzero;"/>
            </g>
        </g>
        <g transform="matrix(4.16667,0,0,4.16667,-1014.44,-829.515)">
            <g transform="matrix(1,0,0,1,280.041,506.704)">
                <path d="M0,11.2C1.206,9.477 3.57,8.493 3.988,6.277C4.21,5.81 4.284,5.441 4.481,5.071C3.373,3.57 2.117,1.871 1.674,0C1.354,0.099 0.912,0.346 0.64,0.567C-0.099,1.281 -0.984,1.994 -1.082,3.151C-0.763,4.16 -1.033,5.49 -0.615,6.524C-0.369,8.148 -0.467,9.65 0,11.2" style="fill:rgb(249,162,89);fill-rule:nonzero;"/>
            </g>
        </g>
        <g transform="matrix(4.16667,0,0,4.16667,-1014.44,-829.515)">
            <g transform="matrix(1,0,0,1,321.648,514.705)">
                <path d="M0,0.443L-0.173,0C-0.395,0.099 0,0.296 0,0.443" style="fill:white;fill-rule:nonzero;"/>
            </g>
        </g>
        <g transform="matrix(4.16667,0,0,4.16667,-1014.44,-829.515)">
            <g transform="matrix(1,0,0,1,261.109,513.696)">
                <path d="M0,0.738L0.517,0L0,0.738Z" style="fill:white;fill-rule:nonzero;"/>
            </g>
        </g>
        <g transform="matrix(4.16667,0,0,4.16667,-1014.44,-829.515)">
            <g transform="matrix(1,0,0,1,261.701,511.579)">
                <path d="M0,2.018L1.452,0L0,2.018Z" style="fill:white;fill-rule:nonzero;"/>
            </g>
        </g>
        <g transform="matrix(4.16667,0,0,4.16667,-1014.44,-829.515)">
            <g transform="matrix(1,0,0,1,291.685,501.462)">
                <path d="M0,11.667C0.961,11.667 1.748,11.003 2.832,10.684C4.407,9.501 5.096,7.262 5.393,5.464C5.662,4.332 5.49,3.175 5.244,2.166C5.023,1.354 5.023,0.615 4.506,0C4.161,0.615 3.645,1.551 3.152,2.215C2.363,3.225 1.183,4.209 -0.098,4.505C0.074,5.734 -0.098,7.016 -0.32,8.296C-0.394,8.688 -0.542,8.91 -0.714,9.305C-1.082,10.166 -1.821,10.684 -2.561,11.15L0,11.667Z" style="fill:rgb(194,157,5);fill-rule:nonzero;"/>
            </g>
        </g>
        <g transform="matrix(4.16667,0,0,4.16667,-1014.44,-829.515)">
            <g transform="matrix(1,0,0,1,263.522,510.963)">
                <path d="M0,0.123C0,0.099 0.05,0.05 0.099,0C0.099,0.05 0.05,0.099 0,0.123" style="fill:white;fill-rule:nonzero;"/>
            </g>
        </g>
        <g transform="matrix(4.16667,0,0,4.16667,-1014.44,-829.515)">
            <g transform="matrix(1,0,0,1,264.285,509.978)">
                <path d="M0,0.172C0,0.074 0.173,0.123 0.123,0C0.074,0 0,0.074 0,0.172" style="fill:white;fill-rule:nonzero;"/>
            </g>
        </g>
        <g transform="matrix(4.16667,0,0,4.16667,-1014.44,-829.515)">
            <g transform="matrix(1,0,0,1,264.482,509.536)">
                <path d="M0,0.246C0.073,0.222 0.099,0.172 0.147,0.122C0.073,0 0,0.172 0,0.246" style="fill:white;fill-rule:nonzero;"/>
            </g>
        </g>
        <g transform="matrix(4.16667,0,0,4.16667,-1014.44,-829.515)">
            <g transform="matrix(1,0,0,1,302.543,486.815)">
                <path d="M0,21.268C0.714,20.456 0.271,19.324 0.147,18.364C-0.246,16.493 -0.838,14.721 -1.896,13.096C-1.896,12.973 -1.699,12.751 -1.551,12.874C-1.01,13.539 -0.738,14.252 -0.346,14.917C0.492,16.616 2.067,17.773 3.274,19.102C3.742,19.398 4.063,19.939 4.678,20.038C4.678,18.388 3.102,16.689 2.338,15.164C1.6,13.957 0.32,13.022 -0.246,11.816C-0.025,11.791 0.271,11.693 0.467,11.914C2.067,13.022 3.939,14.302 5.834,14.721C5.145,12.702 2.758,11.816 1.107,10.585C0.049,10.142 -0.788,9.501 -1.847,9.133L-2.117,9.625C-2.289,9.65 -2.413,9.527 -2.512,9.305C-2.413,8.911 -2.339,8.418 -2.191,8.123C-1.625,6.622 -1.059,5.514 -0.616,4.112C-0.223,2.733 0.59,1.453 0.615,0C-0.517,0.493 -1.576,1.501 -3.004,1.822C-3.841,2.019 -4.703,2.511 -5.417,2.585C-5.834,3.274 -6.696,3.668 -6.819,4.358C-6.795,4.727 -6.819,5.218 -6.524,5.342L-2.955,2.733L-2.635,1.946C-2.413,1.896 -2.241,2.118 -2.241,2.339C-2.413,2.954 -2.733,3.569 -2.733,4.235C-3.078,5.293 -3.226,6.498 -3.471,7.533C-3.57,8.172 -3.57,8.813 -3.866,9.305C-4.21,9.355 -4.283,9.083 -4.283,8.862L-5.613,9.01C-5.613,9.747 -5.293,10.487 -5.367,11.299C-3.792,11.717 -3.324,13.268 -2.512,14.598C-2.463,15.164 -2.117,15.656 -2.068,16.148C-1.305,17.872 -0.936,19.718 0,21.268" style="fill:rgb(194,157,5);fill-rule:nonzero;"/>
            </g>
        </g>
        <g transform="matrix(4.16667,0,0,4.16667,-1014.44,-829.515)">
            <g transform="matrix(1,0,0,1,276.939,482.065)">
                <path d="M0,23.951L0.123,23.951C0.395,22.892 -0.172,21.612 0.049,20.628C0.961,20.505 1.896,20.678 2.781,20.456L2.635,18.609C1.329,18.609 0.049,18.462 -1.33,18.29C-1.847,18.216 -2.339,17.994 -2.781,17.847C-3.176,17.723 -3.348,17.625 -3.644,17.502C-4.063,17.526 -4.332,17.256 -4.579,17.256C-5.268,16.935 -5.909,16.615 -6.499,16.32C-7.336,15.951 -8.197,15.336 -9.109,14.892C-9.725,14.597 -10.463,14.105 -10.979,13.785C-11.325,13.465 -11.693,13.317 -12.038,12.997C-17.258,9.576 -20.655,4.678 -24.521,0C-24.742,0.763 -24.348,1.6 -24.176,2.388C-23.904,3.373 -23.658,4.259 -23.166,5.194C-21.394,8.419 -18.71,11.249 -16.372,13.884C-14.648,15.385 -12.974,16.837 -11.127,17.994C-9.035,19.472 -6.352,21.071 -4.111,22.351C-3.127,22.917 -1.969,23.36 -1.108,23.656C-0.664,23.729 -0.369,23.804 0,23.951" style="fill:rgb(194,157,5);fill-rule:nonzero;"/>
            </g>
        </g>
        <g transform="matrix(4.16667,0,0,4.16667,-1014.44,-829.515)">
            <g transform="matrix(1,0,0,1,291.514,491.714)">
                <path d="M0,13.637C1.354,13.17 2.585,12.209 3.324,11.029C3.717,10.191 4.063,9.354 4.455,8.468C5.071,7.139 5.17,5.736 4.801,4.283C4.579,3.397 4.455,2.437 4.16,1.6C3.939,1.158 4.013,0.764 3.742,0.345L3.742,0C2.093,0.074 1.182,1.624 0.172,2.831C-0.443,3.57 -0.813,4.235 -1.133,5.145C-1.256,5.515 -1.28,5.785 -1.526,6.129C-1.821,7.361 -1.871,8.444 -1.28,9.527C-1.133,9.97 -1.034,10.364 -0.91,10.733C-0.542,11.79 -0.32,12.628 0,13.637" style="fill:rgb(195,166,1);fill-rule:nonzero;"/>
            </g>
        </g>
        <g transform="matrix(4.16667,0,0,4.16667,-1014.44,-829.515)">
            <g transform="matrix(1,0,0,1,278.959,471.208)">
                <path d="M0,28.949C0.27,28.875 0.688,28.998 0.762,28.654C1.082,27.792 1.551,27.029 2.067,26.291C2.486,25.626 2.879,25.354 3.322,24.74C3.618,24.517 3.814,24.395 4.061,24.025C2.437,23.902 0.762,24.297 -0.936,24.641C-2.733,25.108 -4.801,26.02 -6.574,24.912C-6.918,24.641 -6.968,24.297 -6.968,23.902C-6.697,23.361 -6.205,23.337 -5.737,22.967C-6.992,22.942 -8.642,22.721 -9.307,21.466C-9.381,20.973 -9.158,20.949 -8.863,20.777C-8.322,20.629 -7.903,20.58 -7.411,20.432C-6.205,20.211 -5.023,20.234 -3.866,20.112C-4.679,19.669 -5.737,19.669 -6.377,18.881C-6.697,18.659 -6.992,18.438 -6.968,18.068C-5.293,16.986 -3.078,17.626 -1.183,17.626C-0.124,17.724 0.836,18.045 1.771,18.388C2.166,18.463 2.658,18.683 2.904,18.512C3.101,17.847 3.199,17.281 3.273,16.666C3.692,14.77 3.052,12.26 4.233,10.856C5.046,11.225 5.366,12.211 6.055,12.875L6.843,11.324C6.228,11.201 5.612,10.759 4.824,10.659C2.979,9.921 0.688,9.921 -0.246,8.001C-0.346,7.41 0.098,6.82 0.467,6.549C1.033,6.031 1.722,6.081 2.264,5.982C3.225,6.204 4.209,6.303 5.218,6.696C5.514,6.918 5.834,6.942 6.129,7.09C6.597,7.164 6.967,7.534 7.336,7.755C6.893,6.795 6.621,5.982 6.276,5.022C6.104,3.939 6.4,3.201 6.721,2.34C6.744,1.576 6.006,0.961 5.366,0.788C4.726,0.517 4.11,0.395 3.593,0.443C1.328,-0.049 -1.084,0.592 -3.473,0.075C-5.639,0.051 -7.707,0.075 -9.799,0.395C-10.488,0.567 -10.883,1.502 -11.374,1.921C-11.744,2.955 -11.867,4.185 -12.039,5.145C-11.99,6.303 -12.261,7.361 -12.311,8.42C-12.949,13.539 -12.729,18.683 -12.704,23.853C-10.808,25.65 -8.248,26.487 -5.909,27.693C-5.195,27.792 -4.679,27.915 -4.063,28.136C-2.635,28.481 -1.355,28.752 0,28.949" style="fill:rgb(249,162,89);fill-rule:nonzero;"/>
            </g>
        </g>
        <g transform="matrix(4.16667,0,0,4.16667,-1014.44,-829.515)">
            <g transform="matrix(1,0,0,1,296.904,490.31)">
                <path d="M0,4.85L1.454,4.8L2.463,0C1.33,0.64 0,1.675 -0.812,2.708C-0.59,3.249 -0.492,3.742 -0.319,4.186C-0.195,4.456 -0.27,4.703 0,4.85" style="fill:rgb(249,162,89);fill-rule:nonzero;"/>
            </g>
        </g>
        <g transform="matrix(4.16667,0,0,4.16667,-1014.44,-829.515)">
            <g transform="matrix(1,0,0,1,285.852,487.653)">
                <path d="M0,4.898C0.172,4.061 -0.05,2.928 0.05,2.018C-0.395,1.329 -1.01,0.763 -1.403,0C-1.748,0.393 -1.601,0.885 -1.847,1.502C-1.822,2.314 -2.167,3.077 -1.945,3.839C-1.28,4.184 -0.566,4.504 0,4.898" style="fill:rgb(249,162,89);fill-rule:nonzero;"/>
            </g>
        </g>
        <g transform="matrix(4.16667,0,0,4.16667,-1014.44,-829.515)">
            <g transform="matrix(1,0,0,1,289.963,477.511)">
                <path d="M0,13.293C1.107,13.293 2.093,12.652 2.634,11.545C2.634,11.373 2.806,11.126 3.004,11.2C3.176,11.25 3.225,11.298 3.25,11.323L3.077,11.766C5.293,12.136 7.459,11.151 9.725,10.486C11.127,9.575 12.629,8.861 13.786,7.581C13.195,8.025 12.481,7.976 11.792,8.295C9.552,8.764 7.385,9.156 5.367,7.827C4.406,7.631 3.521,6.941 2.806,6.475L2.511,8.764C2.388,8.861 2.191,8.96 2.019,8.813C1.846,8.295 2.019,7.778 2.019,7.188C2.289,6.13 2.732,4.8 3.84,4.48C4.751,4.185 5.514,4.554 6.352,4.406C6.4,4.012 5.761,3.791 5.391,3.52C4.136,3.126 3.004,2.067 1.723,1.969C1.402,1.452 1.945,0.96 1.452,0.492C0.641,0.837 -0.049,1.01 -0.715,1.772C-1.157,2.117 -1.674,2.461 -1.797,2.953C-1.649,3.126 -1.183,3.126 -1.183,3.446C-1.107,3.644 -1.034,3.963 -1.107,4.086C-1.773,4.677 -2.658,3.644 -3.349,3.446C-3.841,3.003 -4.555,3.027 -5.022,2.806C-6.18,2.412 -7.386,2.732 -8.396,2.634C-8.444,2.289 -8.937,2.511 -9.134,2.511C-9.282,2.388 -9.184,2.117 -9.084,2.019C-8.346,1.945 -7.559,1.969 -6.943,1.945C-6.278,2.191 -5.49,2.117 -4.776,2.388C-4.283,2.388 -3.841,2.561 -3.447,2.609C-3.274,2.634 -3.127,2.684 -3.003,2.781C-3.054,2.289 -3.668,2.117 -4.062,1.846C-6.105,1.133 -8.174,0 -10.119,0.936C-10.192,1.182 -10.685,1.28 -10.611,1.674C-9.773,2.88 -7.878,3.003 -6.771,3.569C-5.834,3.84 -4.949,3.963 -4.062,4.185C-3.718,4.356 -3.422,4.332 -3.103,4.356C-2.93,4.898 -2.043,4.456 -1.773,5.022C-1.748,5.465 -1.994,5.391 -2.389,5.465C-2.832,5.391 -3.324,5.169 -3.619,5.317C-3.891,5.686 -3.891,5.908 -4.111,6.351C-4.653,7.311 -3.768,8.197 -3.274,8.985C-3.103,8.419 -2.732,7.803 -2.29,7.36C-2.043,7.139 -1.896,7.064 -1.6,7.139C-1.773,7.927 -2.93,8.468 -2.881,9.575C-2.29,11.126 -1.157,11.89 -0.222,13.145C-0.123,13.219 0,13.293 0,13.293" style="fill:rgb(194,157,5);fill-rule:nonzero;"/>
            </g>
        </g>
        <g transform="matrix(4.16667,0,0,4.16667,-1014.44,-829.515)">
            <g transform="matrix(1,0,0,1,298.087,475.517)">
                <path d="M0,10.24C1.378,10.24 2.781,9.969 4.11,9.476C4.923,9.058 5.785,8.616 6.598,8.025C7.558,7.311 8.419,6.45 8.911,5.219C9.306,3.84 8.813,2.511 7.853,1.674C7.46,1.502 7.436,1.181 7.065,1.157C6.968,1.034 6.745,0.886 6.721,0.935C6.401,1.28 5.958,1.379 5.563,1.772C5.219,1.871 4.923,1.6 4.923,1.403C4.851,1.034 4.728,0.664 4.776,0.344C3.495,0 2.388,0.221 0.985,0.344C0.542,0.443 0.394,0.616 -0.073,0.566C-0.565,0.762 -1.009,0.886 -1.452,0.961C-1.083,2.24 -0.073,3.888 -1.059,5.145C-1.157,5.243 -1.183,5.292 -1.183,5.292C-1.183,5.785 -0.443,6.178 -1.083,6.769C-2.24,7.902 -3.89,6.35 -4.874,7.729C-4.776,8.37 -4.161,8.566 -3.669,8.862C-3.569,8.862 -3.446,8.862 -3.423,8.935C-2.462,9.575 -1.231,9.969 0,10.24" style="fill:rgb(194,157,5);fill-rule:nonzero;"/>
            </g>
        </g>
        <g transform="matrix(4.16667,0,0,4.16667,-1014.44,-829.515)">
            <g transform="matrix(1,0,0,1,296.24,473.401)">
                <path d="M0,7.236C0.566,7.137 0.566,6.177 0.664,5.735C0.541,4.602 -0.222,3.79 -0.714,2.953C-1.723,1.895 -2.855,0.566 -4.259,0C-4.727,0.048 -5.145,0.295 -5.269,0.664C-5.317,1.329 -5.269,1.993 -5.17,2.534C-4.727,3.667 -4.309,4.824 -3.273,5.39C-2.881,5.538 -2.634,5.587 -2.215,5.808C-2.191,5.562 -2.511,5.243 -2.215,4.971C-1.92,4.676 -1.526,4.947 -1.28,4.971C-0.887,5.341 -0.443,5.882 -0.517,6.424C-0.664,6.842 -0.222,7.015 0,7.236" style="fill:white;fill-rule:nonzero;"/>
            </g>
        </g>
        <g transform="matrix(4.16667,0,0,4.16667,-1014.44,-829.515)">
            <g transform="matrix(1,0,0,1,288.166,474.115)">
                <path d="M0,5.193L0.614,4.75C0.418,4.406 0.517,4.011 0.246,3.618C0.147,2.19 -0.369,1.008 -1.33,0.048C-1.65,0 -1.971,0.048 -2.094,0C-2.364,0.885 -2.167,1.747 -1.822,2.584C-1.65,3.003 -1.428,3.691 -1.133,4.036C-1.306,3.495 -1.206,2.904 -1.428,2.289C-1.428,1.944 -1.428,1.673 -1.206,1.526L-0.861,1.82L0,5.193Z" style="fill:rgb(194,157,5);fill-rule:nonzero;"/>
            </g>
        </g>
        <g transform="matrix(4.16667,0,0,4.16667,-1014.44,-829.515)">
            <g transform="matrix(1,0,0,1,303.527,470.963)">
                <path d="M0,5.662C1.403,4.751 2.412,2.831 2.462,1.058C2.339,0.714 2.339,0.074 1.995,0C1.059,0.296 1.059,1.329 0.615,2.092C0.443,2.388 0.468,2.806 0.246,3.053C0.222,3.987 -0.049,4.898 0,5.662" style="fill:rgb(237,27,45);fill-rule:nonzero;"/>
            </g>
        </g>
        <g transform="matrix(4.16667,0,0,4.16667,-1014.44,-829.515)">
            <g transform="matrix(1,0,0,1,296.856,472.784)">
                <path d="M0,2.954L0.689,2.831C0.788,2.831 0.911,2.732 0.911,2.609C0.395,1.846 -0.074,1.107 -0.887,0.542C-1.279,0.172 -1.821,0 -2.215,0.223C-2.412,0.689 -2.314,1.379 -2.018,1.675C-1.502,2.436 -0.566,2.216 0,2.954" style="fill:white;fill-rule:nonzero;"/>
            </g>
        </g>
        <g transform="matrix(4.16667,0,0,4.16667,-1014.44,-829.515)">
            <g transform="matrix(1,0,0,1,304.586,471.701)">
                <path d="M0,2.585C0.222,2.609 0.443,2.413 0.469,2.142C0.787,1.478 0.861,0.813 0.738,0.024C0.246,-0.024 0.246,0.689 -0.098,0.936L0.172,1.255L0,2.585Z" style="fill:rgb(247,156,133);fill-rule:nonzero;"/>
            </g>
        </g>
        <g transform="matrix(4.16667,0,0,4.16667,-1014.44,-829.515)">
            <g transform="matrix(1,0,0,1,286.738,468.724)">
                <path d="M0,1.697C0.344,1.747 0.615,1.476 0.959,1.476C1.771,0.884 2.807,1.057 3.717,0.884C3.741,0.761 3.741,0.714 3.791,0.614C3.741,0.614 3.717,0.565 3.619,0.541C3.568,0.442 3.643,0.269 3.741,0.22C2.904,-0.05 2.042,0.22 1.182,0.442C0.516,0.614 0,0.91 -0.05,1.551C-0.05,1.624 0,1.697 0,1.697" style="fill:rgb(35,31,32);fill-rule:nonzero;"/>
            </g>
        </g>
        <g transform="matrix(4.16667,0,0,4.16667,-1014.44,-829.515)">
            <g transform="matrix(1,0,0,1,295.526,468.379)">
                <path d="M0,1.846L0.32,1.846L0.419,1.132C-0.196,0.517 -1.083,0.517 -1.846,0.271C-2.265,0.295 -2.56,0 -2.93,0.221C-3.151,0.295 -3.618,0.566 -3.816,0.566C-3.938,0.713 -3.767,0.787 -3.618,0.837C-2.339,0.64 -0.936,0.886 0,1.846" style="fill:rgb(35,31,32);fill-rule:nonzero;"/>
            </g>
        </g>
    </g>
</svg>
