<?xml version="1.0" encoding="UTF-8" standalone="no"?>
<!DOCTYPE svg PUBLIC "-//W3C//DTD SVG 1.1//EN" "http://www.w3.org/Graphics/SVG/1.1/DTD/svg11.dtd">
<svg width="100%" height="100%" viewBox="0 0 84 187" version="1.1" xmlns="http://www.w3.org/2000/svg" xmlns:xlink="http://www.w3.org/1999/xlink" xml:space="preserve" xmlns:serif="http://www.serif.com/" style="fill-rule:evenodd;clip-rule:evenodd;stroke-miterlimit:10;">
    <g transform="matrix(1,0,0,1,-1054.76,-59.5164)">
        <path d="M1109.95,87.843C1109.95,87.843 1107.98,88.712 1107.82,90.129C1107.66,91.547 1108.92,101.24 1108.92,101.24C1108.92,101.24 1109.4,99.349 1109.87,96.433C1110.34,93.518 1109.79,91.577 1110.26,91.152C1111.05,90.444 1111.37,88.788 1111.37,88.788C1111.37,88.788 1111.05,87.212 1109.95,87.843Z" style="fill:none;stroke:rgb(250,240,164);stroke-width:0.73px;"/>
        <g>
            <path d="M1133.98,209.604C1134.14,205.821 1134.06,203.536 1131.86,197.311C1129.65,191.084 1130.6,174.376 1130.83,171.934C1131.07,169.491 1131.46,168.309 1131.78,166.101C1132.09,163.896 1133.59,161.372 1133.35,161.372C1133.12,161.372 1135.17,161.372 1138.32,160.664C1134.38,154.595 1134.85,135.05 1134.22,130.087C1133.59,125.12 1135.32,115.663 1135.16,103.448C1135.01,91.234 1125.16,87.056 1125.16,87.056C1125.16,87.056 1125.71,86.504 1125.31,85.48C1124.92,84.456 1122.87,82.88 1122.87,82.88L1121.61,81.381C1121.61,81.381 1121.37,80.279 1121.37,80.042C1121.37,79.807 1122.08,79.096 1123.11,77.758C1124.13,76.418 1124.76,74.841 1124.76,70.902C1124.76,66.96 1122.16,62.153 1119.72,60.42C1117.28,58.687 1112.15,59.868 1109.55,60.498C1106.95,61.129 1106.16,61.443 1105.22,61.443C1104.27,61.443 1103.48,62.626 1103.33,62.943C1103.17,63.256 1103.88,64.36 1103.88,64.36C1103.88,64.36 1103.64,66.567 1102.85,68.142C1102.06,69.721 1101.99,70.903 1102.14,72.477C1102.3,74.054 1101.12,74.762 1101.12,74.762C1100.96,74.29 1099.62,73.738 1100.02,71.058C1100.29,69.186 1098.28,67.513 1098.28,67.513L1098.6,66.88C1098.6,66.88 1098.68,66.015 1097.97,64.99C1097.26,63.965 1096.47,62.467 1089.53,62.309C1082.6,62.152 1085.04,63.649 1082.2,65.857C1079.37,68.062 1078.27,72.318 1078.03,76.889C1077.79,81.461 1076.69,80.673 1075.59,84.298C1074.48,87.923 1075.51,88.869 1075.43,91.548C1075.35,94.229 1074.8,94.779 1072.83,96.435C1070.86,98.09 1072.04,98.879 1072.28,101.953C1072.51,105.027 1072.04,105.341 1071.72,106.601C1071.41,107.862 1070.38,106.445 1070.38,106.445C1070.38,106.445 1070.07,108.493 1072.75,108.65C1075.43,108.808 1076.3,107.075 1076.77,103.291C1076.77,107.153 1078.66,113.143 1078.66,113.143C1078.66,113.143 1082.52,125.831 1082.76,126.147C1082.99,126.462 1083.46,140.805 1083.46,140.805L1091.66,149.553C1091.66,149.553 1103.64,155.779 1103.17,158.537C1102.69,161.293 1104.11,164.447 1104.67,163.976C1105.22,163.503 1105.85,164.605 1105.85,164.605C1105.85,164.605 1106.48,167.049 1106.95,167.68C1107.42,168.31 1110.03,184.308 1110.89,190.062C1111.76,195.815 1112.39,202.198 1113.02,203.223C1113.65,204.249 1116.25,207.873 1115.46,209.055C1114.67,210.239 1114.6,221.666 1114.67,222.767C1114.75,223.871 1114.67,229.704 1114.83,230.65C1114.99,231.596 1116.64,230.886 1116.72,231.122C1116.8,231.358 1114.6,234.197 1113.97,234.746C1113.33,235.3 1113.49,238.452 1113.49,238.452C1113.49,238.452 1114.2,238.766 1112.62,239.792C1111.05,240.816 1105.06,242.156 1102.69,242.313C1101.17,242.415 1101.48,243.993 1101.64,244.675C1103.4,245.221 1112.41,245.948 1116.25,246.175C1120.27,246.412 1124.6,244.914 1124.6,244.914L1124.92,245.937L1134.14,245.622L1134.14,243.73C1134.14,243.73 1135,241.997 1135.16,239.87C1135.32,237.742 1134.21,235.771 1133.51,231.673C1132.8,227.576 1133.83,213.388 1133.98,209.604ZM1093.16,96.276C1091.74,94.936 1090.8,91.862 1091.11,89.734C1092.13,83.587 1097.1,84.768 1098.52,84.768C1099.94,84.768 1100.25,83.272 1100.17,82.326C1100.1,81.38 1100.96,81.223 1100.96,81.223L1101.99,81.38C1101.99,81.38 1101.83,82.091 1101.43,84.139C1101.04,86.189 1103.01,88.077 1103.64,90.601C1104.27,93.123 1103.25,100.767 1102.85,106.442C1100.25,102.581 1094.58,97.616 1093.16,96.276ZM1103.01,127.17L1101.52,126.855C1101.52,126.855 1100.17,121.969 1100.1,119.761C1100.02,117.556 1100.96,116.058 1100.81,115.664C1100.65,115.269 1102.93,117.002 1104.35,117.081C1104.35,117.082 1102.62,124.254 1103.01,127.17Z" style="fill:rgb(87,87,86);fill-rule:nonzero;"/>
            <path d="M1101.64,244.673C1101.56,244.647 1101.49,244.622 1101.43,244.596C1101.77,245.153 1101.73,245.045 1101.64,244.673Z" style="fill:rgb(87,87,86);fill-rule:nonzero;"/>
        </g>
        <path d="M1078.5,112.118C1078.5,112.118 1085.2,110.54 1088.83,105.577C1095.53,111.959 1100.81,115.663 1100.81,115.663C1100.81,115.663 1099.07,121.809 1101.52,126.853C1098.6,126.773 1097.58,126.931 1097.58,126.931L1097.18,128.744C1097.18,128.744 1095.21,126.537 1094.27,126.537C1093.32,126.537 1089.06,125.828 1088.75,127.483C1088.83,128.113 1090.56,128.665 1090.56,128.665C1090.56,128.665 1088.27,129.374 1086.62,129.849C1084.97,130.321 1083.78,130.95 1084.34,131.109C1084.89,131.266 1083.55,131.817 1084.02,132.842C1084.49,133.866 1084.97,133.788 1084.97,133.788C1084.97,133.788 1083.78,134.656 1084.49,135.128C1085.2,135.599 1086.46,135.601 1086.15,135.679C1085.83,135.758 1084.41,137.334 1085.36,137.49C1086.31,137.649 1086.78,137.806 1087.25,137.727C1087.72,137.649 1092.61,137.964 1094.42,137.964C1096.24,137.964 1098.52,137.885 1098.52,137.885C1098.52,137.885 1100.17,139.066 1100.57,139.617C1100.97,140.17 1104.83,138.909 1104.59,138.988C1104.36,139.066 1106.09,149.784 1105.14,160.975C1104.2,172.166 1104.75,178.945 1104.67,185.171C1104.59,191.396 1105.69,223.078 1106.8,228.359C1107.9,233.638 1109.08,238.131 1109.16,239.314C1109.24,240.494 1109.08,240.969 1109.08,240.969C1109.08,240.969 1106.8,242.387 1105.06,242.938C1103.33,243.49 1102.54,243.806 1102.46,244.75C1102.38,245.698 1103.17,246.248 1100.97,246.171C1098.76,246.092 1092.77,246.012 1090.56,245.775C1088.36,245.539 1087.65,246.011 1087.17,246.248C1086.7,246.485 1084.41,246.329 1082.05,245.303C1079.69,244.28 1077.87,242.86 1076.54,242.86C1075.19,242.86 1068.65,242.781 1068.34,243.097C1068.02,243.412 1072.12,246.485 1067.39,245.384C1062.66,244.28 1054.23,243.727 1054.78,243.335C1055.33,242.939 1059.2,242.939 1060.06,235.296C1060.93,227.65 1059.99,210.153 1062.11,206.765C1064.24,203.376 1065.82,206.137 1065.74,200.145C1065.66,194.155 1063.06,198.648 1066.21,187.929C1069.36,177.214 1071.88,170.197 1072.67,168.148C1073.46,166.099 1072.99,165.392 1074.01,160.899C1075.04,156.408 1074.41,146.712 1074.41,146.083C1074.41,145.451 1073.62,140.015 1078.74,134.184C1083.86,128.352 1081.34,124.096 1080.08,120.549C1078.82,117.002 1078.27,112.589 1078.5,112.118Z" style="fill:white;fill-rule:nonzero;"/>
        <path d="M1121.61,81.38C1121.61,81.38 1116.27,83.116 1114.24,85.251C1112.23,87.388 1111.3,88.252 1111.3,88.252L1112.17,94.547C1112.17,94.547 1116.9,85.483 1122.79,83.057C1121.87,81.962 1121.61,81.38 1121.61,81.38Z" style="fill:white;fill-rule:nonzero;"/>
    </g>
</svg>
