<?xml version="1.0" encoding="UTF-8" standalone="no"?>
<!DOCTYPE svg PUBLIC "-//W3C//DTD SVG 1.1//EN" "http://www.w3.org/Graphics/SVG/1.1/DTD/svg11.dtd">
<svg width="100%" height="100%" viewBox="0 0 98 179" version="1.1" xmlns="http://www.w3.org/2000/svg" xmlns:xlink="http://www.w3.org/1999/xlink" xml:space="preserve" xmlns:serif="http://www.serif.com/" style="fill-rule:evenodd;clip-rule:evenodd;stroke-linejoin:round;stroke-miterlimit:1.41421;">
    <g transform="matrix(1,0,0,1,-56.3324,-455.511)">
        <path d="M98.561,519.931C98.561,519.931 92.079,526.122 98.415,532.604C99.507,533.404 104.751,535.736 107.956,532.531C111.161,529.326 114.001,523.5 111.452,519.348C112.473,519.348 114.512,520.003 113.855,524.591C112.981,527.651 112.035,531.22 111.67,532.386C111.306,533.55 110.213,538.65 108.975,539.304C107.738,539.96 108.101,541.199 107.882,542.581C107.664,543.966 109.048,544.402 112.544,545.933C116.04,547.462 121.138,550.521 120.118,556.202C119.098,561.883 119.172,565.16 120.701,567.855C122.23,570.55 124.269,570.55 123.032,574.993C121.794,579.435 121.794,578.926 122.812,583.806C123.833,588.685 129.587,594.948 132.718,598.517C135.85,602.085 143.716,602.376 145.902,607.475C148.087,612.574 147.139,615.196 149.252,617.454C151.365,619.712 152.895,617.308 153.622,620.658C154.351,624.01 153.622,629.254 153.622,629.254C153.622,629.254 154.205,628.307 146.267,630.274C138.328,632.24 139.493,634.935 132.136,632.022C124.781,629.108 129.587,630.857 126.965,631.584C124.343,632.313 115.021,633.113 115.457,632.677C115.894,632.239 116.696,630.345 114.802,630.637C112.908,630.929 109.339,633.332 108.829,633.478C108.32,633.624 102.565,633.04 97.758,632.967C92.952,632.895 91.714,633.842 91.714,633.842C91.714,633.842 93.461,633.77 93.753,629.18C94.044,624.592 89.455,621.241 90.985,616.725C92.514,612.21 93.388,604.563 92.588,599.756C91.786,594.948 91.64,588.321 92.296,583.587C92.951,578.853 93.607,570.986 92.733,567.055C91.859,563.121 93.097,553.871 92.806,550.23C92.514,546.588 91.349,531.22 91.64,529.545C91.932,527.869 92.514,523.428 93.096,521.971C93.679,520.514 97.758,518.037 97.758,518.037C97.758,518.037 98.634,519.056 98.561,519.931Z" style="fill:white;fill-rule:nonzero;"/>
        <path d="M149.682,494.956C148.027,491.36 147.595,487.475 146.876,486.181C146.156,484.885 134.646,478.41 135.221,469.345C127.595,465.82 116.516,457.187 116.516,457.187C116.516,457.187 95.027,459.236 86.923,455.513C86.533,455.334 83.892,468.396 78.436,474.761C83.892,476.277 87.832,488.705 88.287,488.857C88.742,489.009 87.226,492.04 86.015,492.342C84.801,492.646 84.196,494.918 84.347,495.827C84.499,496.737 82.831,497.95 82.831,497.95C82.831,497.95 80.406,496.889 79.194,499.617C73.737,497.343 70.797,494.921 63.998,496.971C61.731,497.726 59.735,499.183 59.735,499.183C59.735,499.183 58.818,499.615 58.063,500.532C57.415,501.018 56.822,502.096 56.498,502.151C56.175,502.206 56.337,503.229 56.876,502.96C56.768,503.608 57.092,504.472 57.523,503.878C57.954,503.284 58.602,502.151 58.602,502.151L59.142,502.044C59.142,502.044 58.71,503.608 59.195,503.661C59.681,503.716 60.275,500.856 60.275,500.856L62.487,500.532C62.487,500.532 63.944,501.611 63.728,501.557C63.512,501.502 62.055,502.529 61.731,502.852C61.408,503.176 60.922,504.525 62.326,503.985C63.728,503.446 64.645,502.69 64.915,502.421C65.185,502.152 68.423,501.827 69.394,499.886C70.905,500.641 75.868,504.364 75.653,504.31C75.436,504.256 69.609,506.9 67.164,519.706C64.718,532.513 67.451,529.779 67.308,532.801C67.165,535.823 66.157,543.16 65.438,546.614C64.718,550.067 65.15,559.708 65.582,561.147C66.014,562.585 71.193,563.305 71.193,563.305C71.193,563.305 75.797,575.967 74.79,578.701C73.784,581.434 73.352,592.657 72.776,597.405C72.201,602.154 73.496,619.421 73.063,620.139C72.632,620.86 71.625,627.334 71.625,627.334L73.64,627.621C73.64,627.621 68.172,632.802 72.777,633.809C77.381,634.817 90.044,634.385 90.044,634.385C90.044,634.385 90.331,632.369 89.181,632.082L91.483,632.082C91.483,632.082 94.504,630.932 91.627,629.492C88.75,628.053 86.592,626.039 86.592,625.607C86.592,625.175 86.736,614.815 87.887,610.93C89.037,607.044 91.052,594.671 90.908,591.65C90.764,588.629 90.764,581.865 90.764,581.865C90.764,581.865 92.634,565.319 93.066,562.873C93.498,560.427 93.283,549.418 93.283,549.418C93.283,549.418 95.224,549.491 96.088,549.635C96.952,549.779 97.742,551.793 101.339,552.656C104.937,553.519 105.656,553.447 106.448,552.943C107.239,552.44 107.671,552.511 108.822,552.511C109.972,552.511 110.117,551.648 110.117,551.648L109.325,550.857C109.325,550.857 110.333,550.066 109.254,549.707C108.175,549.347 108.175,548.843 108.175,548.843C108.175,548.843 108.318,547.981 107.167,547.692C106.016,547.405 105.44,547.189 105.44,547.189C105.44,547.189 105.224,546.182 104.936,545.751C104.649,545.319 103.066,545.247 102.562,545.247C102.059,545.247 100.908,545.679 100.908,545.679L99.469,545.32L99.254,544.457L93.498,540.428C93.498,540.428 91.627,528.27 92.348,524.529C92.492,524.025 93.426,524.313 93.426,524.313L94.649,524.673C94.649,524.673 93.354,530.213 97.024,533.09C100.693,535.967 105.082,535.968 106.88,535.896C108.678,535.825 110.117,535.321 110.117,535.321L112.306,529.04C112.129,530.134 112.381,531.489 114.433,532.012C114.433,532.012 110.62,528.272 115.368,527.263C120.117,526.256 119.83,523.163 119.325,519.566C118.821,515.968 119.038,514.673 119.038,514.673C119.038,514.673 124.289,519.206 124.577,519.206C124.865,519.206 140.188,513.667 146.664,514.313C146.229,505.748 149.178,496.108 149.682,494.956ZM94.337,520.005L95.211,516.437C95.211,516.655 97.395,518.184 97.395,518.184L94.337,520.005ZM92.88,507.478C92.88,507.478 92.589,505.511 92.661,505.22C92.733,504.929 92.442,504.127 92.442,504.127L93.754,503.253C93.754,503.253 96.084,505.874 98.488,505.147C98.634,506.895 98.196,507.405 99.871,508.132C101.547,508.861 102.785,509.808 102.712,511.484C100.818,511.409 94.555,509.444 92.88,507.478Z" style="fill:rgb(87,87,86);fill-rule:nonzero;"/>
    </g>
</svg>
