<?xml version="1.0" encoding="UTF-8" standalone="no"?>
<!DOCTYPE svg PUBLIC "-//W3C//DTD SVG 1.1//EN" "http://www.w3.org/Graphics/SVG/1.1/DTD/svg11.dtd">
<svg width="100%" height="100%" viewBox="0 0 181 183" version="1.1" xmlns="http://www.w3.org/2000/svg" xmlns:xlink="http://www.w3.org/1999/xlink" xml:space="preserve" xmlns:serif="http://www.serif.com/" style="fill-rule:evenodd;clip-rule:evenodd;stroke-linejoin:round;stroke-miterlimit:1.41421;">
    <g transform="matrix(1,0,0,1,-310.859,-931.316)">
        <path d="M416.319,991.4C416.032,988.717 416.319,978.655 415.649,975.207C414.978,971.757 412.008,965.434 409.612,964.282C407.217,963.134 405.012,961.792 405.012,961.792C405.012,961.792 405.779,958.438 405.012,956.33C404.245,954.221 406.162,951.252 406.354,950.006C406.546,948.76 405.587,946.269 403.958,944.448C403.67,942.052 402.521,936.879 398.687,934.963C395.812,931.32 392.555,931.609 388.435,934.195C384.219,936.111 385.752,941.382 385.081,942.244C384.41,943.107 383.643,945.598 383.835,947.036C384.027,948.474 384.41,948.474 384.218,952.881C384.027,957.289 389.201,962.75 389.201,962.75C389.201,962.75 387.955,963.229 384.985,964.378C382.015,965.529 381.919,968.691 381.919,968.691C381.919,968.691 380.578,965.529 379.427,964.282C378.277,963.038 374.636,960.738 373.87,960.547C373.103,960.355 372.816,959.972 372.816,959.972C372.816,959.972 373.103,958.438 373.965,957.002C376.84,954.988 378.181,949.048 377.989,948.09C377.797,947.132 378.852,945.789 378.947,944.736C379.043,943.681 378.755,941.286 378.563,938.22C378.372,934.483 371.568,930.363 366.49,931.512C358.919,932.95 360.357,942.435 360.357,942.435C358.346,943.298 361.315,949.046 361.315,949.046C361.315,949.046 361.315,949.813 361.315,950.771C361.315,951.729 360.261,952.879 360.261,952.879C360.261,952.879 357.674,956.136 357.77,956.52C357.865,956.904 347.325,963.514 345.983,964.76C344.642,966.007 343.492,968.019 342.917,970.605C342.343,973.192 341.288,979.42 341.288,981.817C341.288,984.213 339.371,989.674 337.838,996.478C336.305,1003.28 341.959,1014.68 342.917,1019C343.013,1022.35 338.701,1028.39 339.851,1029.63C341.001,1030.88 345.122,1028.1 345.122,1028.1C345.122,1028.1 346.272,1029.25 346.272,1029.73C346.272,1030.21 347.709,1031.16 347.9,1032.79C348.092,1034.42 347.804,1034.9 348.284,1036.91C348.763,1038.93 348.38,1041.03 347.996,1042.76C347.613,1044.48 349.145,1048.61 349.816,1049.75C350.487,1050.9 350.295,1051.67 350.199,1054.26C350.103,1056.85 349.816,1056.75 350.87,1057.99C351.924,1059.24 351.732,1074.67 352.307,1079.65C352.882,1084.63 352.786,1093.64 352.786,1093.64L355.469,1095.65L354.702,1100.83C354.702,1100.83 357.864,1101.59 358.151,1102.55C358.439,1103.51 362.368,1105.71 365.434,1106.77C368.5,1107.82 372.908,1107.53 373.579,1107.25C374.25,1106.96 374.154,1103.8 373.483,1103.03C372.812,1102.26 368.979,1098.43 369.362,1098.14C369.746,1097.86 368.883,1093.83 368.979,1092.49C369.075,1091.15 368.787,1088.66 367.35,1087.12C365.913,1085.59 366.776,1081.76 368.404,1078.12C370.033,1074.47 369.458,1075.14 369.075,1072.27C368.692,1069.4 369.938,1063.55 371.183,1058.95C372.429,1054.35 375.111,1037.49 374.824,1037.39C374.536,1037.3 376.262,1037.3 376.549,1037.3C376.836,1037.3 377.795,1040.27 379.328,1040.94C380.861,1041.61 384.215,1046.02 384.502,1046.02C384.789,1046.02 385.748,1022.25 385.652,1021.87C385.556,1021.49 383.927,1012.19 383.161,1010.95C382.394,1009.7 379.999,1004.62 379.711,1001.55C381.053,1001.84 384.119,1004.72 384.119,1004.72L402.9,1003.57L414.399,1001.94C414.399,1001.94 415.261,1000.31 415.932,998.394C416.606,996.479 416.606,994.083 416.319,991.4ZM386.407,956.986C386.407,956.986 388.425,959.223 388.732,959.75C389.039,960.276 389.39,961.197 389.346,962.25C389.346,962.25 386.714,959.663 386.407,956.986ZM407.877,998.192C407.877,998.192 405.52,996.841 405.722,995.749C405.924,994.657 406.916,986.627 406.916,986.627C406.916,986.627 410.225,992.323 407.877,998.192Z" style="fill:rgb(87,87,86);fill-rule:nonzero;"/>
        <path d="M360.302,953.153C360.637,953.32 366.673,961.284 370.697,968.829C374.72,976.374 377.152,982.661 378.241,993.391C379.163,983.666 378.912,982.074 379.415,979.978C379.917,977.884 378.744,972.099 377.57,968.83C376.397,965.561 374.012,960.548 374.012,960.548L372.121,961.704C372.121,961.704 370.025,958.518 367.678,957.094C365.331,955.67 362.481,952.317 361.39,951.309C360.804,952.736 360.404,952.881 360.404,952.881" style="fill:white;fill-rule:nonzero;"/>
        <path d="M385.116,964.051C385.284,964.303 383.858,968.326 383.104,969.583C382.35,970.841 382.015,973.523 381.679,974.277C381.344,975.032 380.757,983.834 380.841,985.509C380.925,987.187 381.442,988.677 382.685,989.952C386.477,993.845 388.288,999.982 386.946,1003.84C385.605,1007.69 386.009,1010.71 384.916,1013.52C383.78,1016.44 386.163,1017.27 385.072,1018.36C383.983,1019.45 382.276,1025.49 383.198,1027.42C384.12,1029.35 383.355,1028.6 383.188,1030.61C383.02,1032.62 381.679,1031.2 383.02,1034.13C384.361,1037.07 384.697,1037.57 383.859,1039.66C383.02,1041.76 383.188,1042.6 383.02,1043.6C382.853,1044.61 384.613,1045.53 383.943,1047.46C383.272,1049.39 381.931,1052.07 381.092,1053.83C380.254,1055.59 380.17,1062.46 381.762,1066.07C383.355,1069.67 383.019,1069.67 382.181,1073.11C381.343,1076.55 377.235,1079.15 379.918,1082.16C382.6,1085.18 385.702,1086.27 382.852,1089.79C380.002,1093.31 376.062,1098.17 376.062,1100.61C376.062,1103.04 376.733,1104.8 377.571,1106.56C378.409,1108.32 377.152,1109.07 379.834,1110.25C382.517,1111.42 378.996,1111.34 387.378,1112.26C395.761,1113.18 403.054,1115.28 409.844,1112.76C416.634,1110.25 421.161,1108.99 420.825,1109.83C420.49,1110.66 422.25,1113.18 423.592,1112.51C424.933,1111.84 424.262,1110.83 429.209,1109.99C434.154,1109.15 435.244,1109.83 435.579,1110.58C435.915,1111.34 440.357,1114.52 443.459,1113.93C446.56,1113.35 449.83,1114.27 453.099,1113.35C456.37,1112.43 457.96,1112.17 460.979,1113.18C463.997,1114.18 466.763,1112.76 468.607,1112.09C470.452,1111.42 471.792,1113.35 474.391,1113.26C476.99,1113.18 481.349,1111.84 483.109,1111.34C484.87,1110.83 489.564,1111.17 489.564,1111.17C489.564,1111.17 493.001,1108.32 490.067,1106.56C487.134,1104.8 487.972,1105.22 487.552,1102.12C487.134,1099.01 489.228,1098.68 489.228,1097.92C489.228,1097.17 484.702,1098.26 483.445,1096.41C482.188,1094.57 481.181,1093.57 476.57,1092.89C471.96,1092.22 471.96,1090.46 468.272,1090.55C464.583,1090.63 466.595,1091.8 462.738,1089.04C458.883,1086.27 452.763,1083.25 450.668,1081.91C448.571,1080.57 445.218,1078.47 445.638,1077.3C446.057,1076.13 445.638,1074.7 445.638,1074.7C445.638,1074.7 442.033,1071.94 439.015,1068.92C435.997,1065.9 430.381,1057.77 428.788,1056.85C427.195,1055.93 427.195,1055 427.195,1055C427.195,1055 426.524,1046.62 423.674,1044.44C420.824,1042.26 416.465,1034.88 417.052,1032.62C417.639,1030.36 413.126,1030.89 413.126,1030.89C414.383,1030.22 417.647,1026.88 416.809,1025.37C415.971,1023.86 420.395,1023.29 417.116,1010.64C416.655,1008.86 410.398,999.929 406.374,996.827C405.033,994.145 409.005,979.642 408.67,979.725C408.334,979.809 401.796,979.222 401.963,974.528C402.13,969.834 404.814,965.307 408.418,965.223C410.681,965.475 414.789,970.923 415.376,973.522C415.879,969.666 411.352,963.965 407.161,963.631C404.646,963.128 402.634,965.056 401.545,966.396C400.455,967.739 397.857,971.175 395.341,972.6C392.827,974.025 386.791,977.964 386.791,982.072C385.199,980.564 382.432,977.127 383.941,973.019C385.45,968.911 387.881,963.546 387.881,963.546L385.116,964.051Z" style="fill:white;fill-rule:nonzero;"/>
        <path d="M403.687,977.753C403.687,977.753 406.454,982.699 407.124,987.395C407.795,992.089 409.723,994.772 408.13,997.455C406.537,1000.14 404.526,1007.26 403.939,1011.03C403.353,1014.81 400.838,1020 400.084,1021.26C399.329,1022.52 398.575,1022.69 397.401,1024.11C396.227,1025.54 396.898,1025.79 395.724,1026.71C394.55,1027.63 393.712,1028.56 393.712,1029.39C393.712,1030.23 393.629,1031.24 394.215,1031.41C394.802,1031.58 394.718,1030.82 395.556,1030.07C396.394,1029.31 397.317,1028.14 397.987,1029.31C398.658,1030.49 399.916,1032.83 399.832,1033.67C399.748,1034.51 399.748,1036.18 400.083,1035.93C400.418,1035.68 401.089,1036.18 401.34,1034.84C401.592,1033.5 401.424,1032.58 402.011,1032.33C402.598,1032.08 403.939,1030.99 403.855,1029.9C403.771,1028.81 402.933,1024.78 404.358,1022.35C405.783,1019.92 413.16,1008.52 414.753,1001.31C413.83,999.969 411.651,980.019 411.651,980.019L406.705,977.252C406.705,977.251 403.437,977.67 403.687,977.753Z" style="fill:rgb(87,87,86);fill-rule:nonzero;"/>
        <path d="M394.167,1038.57C394.167,1038.57 399.073,1038.27 399.993,1039.14C399.862,1041.2 400.124,1043.35 401.001,1044.22C401.877,1045.1 402.578,1045.19 402.578,1045.05C402.578,1044.92 402.271,1043.48 403.322,1043.3C404.374,1043.13 405.381,1044.05 405.118,1044.18C404.856,1044.31 406.345,1045.28 406.345,1045.54C406.345,1045.8 406.433,1046.68 406.652,1046.85C406.871,1047.03 408.229,1047.42 407.923,1047.9C407.616,1048.38 407.573,1049.48 407.003,1049.48C406.434,1049.48 406.39,1048.91 406.609,1049.79C406.827,1050.66 406.652,1051.19 406.609,1051.45C406.565,1051.71 406.739,1051.27 406.258,1051.89C405.777,1052.5 406.127,1052.89 405.733,1052.89C405.339,1052.89 405.383,1052.76 404.988,1053.29C404.593,1053.82 405.469,1053.38 404.593,1053.82C403.718,1054.25 402.885,1053.29 402.928,1053.68C402.972,1054.08 402.928,1053.82 403.016,1054.3C403.103,1054.78 403.585,1054.82 403.146,1054.95C402.708,1055.09 402.665,1055.3 402.401,1055.22C402.139,1055.13 401.832,1055.13 401.525,1055.57C401.218,1056.01 401.963,1055.79 401.218,1056.01C400.474,1056.23 400.211,1056.01 400.079,1056.05C399.948,1056.09 399.948,1056.14 399.422,1056.27C398.896,1056.4 398.809,1056.31 398.371,1056.53C397.933,1056.75 397.845,1056.71 397.364,1057.06C396.883,1057.41 397.364,1058.07 396.4,1057.58C395.437,1057.1 395.437,1057.06 395.217,1056.62C394.998,1056.18 395.392,1056.05 394.647,1056.01C393.902,1055.96 393.478,1055.5 393.202,1055.65C392.895,1055.83 393.202,1055.79 392.677,1056.09C392.151,1056.4 391.406,1056.66 391.406,1056.66C391.406,1056.66 390.847,1056.33 390.662,1056.31C390.224,1056.27 387.814,1055.7 387.99,1055.22C388.165,1054.74 388.866,1053.46 388.253,1053.29C387.64,1053.11 388.384,1052.72 387.64,1053.11C386.894,1053.51 386.545,1053.42 386.545,1053.24C386.545,1053.07 386.369,1052.76 386.15,1052.72C385.931,1052.68 385.799,1052.76 385.624,1052.94C385.449,1053.11 384.178,1052.68 384.573,1052.32C384.967,1051.97 385.843,1051.32 385.624,1051.05C385.405,1050.79 385.887,1050.13 385.493,1050.31C385.099,1050.49 384.442,1051.32 384.442,1050.97C384.442,1050.62 386.896,1049.17 386.15,1048.95C385.405,1048.73 385.492,1048.95 385.405,1048.73C385.317,1048.51 386.194,1047.29 386.281,1047.11C386.368,1046.94 387.2,1046.23 387.946,1045.75C388.69,1045.27 388.602,1044.88 389.567,1044.53C390.53,1044.18 390.793,1044.22 391.45,1043.69C392.108,1043.17 391.538,1043.26 392.239,1042.91C392.94,1042.56 393.553,1041.55 393.335,1041.24C393.115,1040.93 392.459,1040.85 392.94,1040.85C393.421,1040.85 393.159,1040.85 393.421,1040.85C393.685,1040.85 394.211,1038.84 394.167,1038.57Z" style="fill:rgb(87,87,86);fill-rule:nonzero;"/>
        <path d="M310.859,1009.48L316.912,1006.94L317.813,1008.74L312.083,1011.06L310.859,1009.48Z" style="fill:white;fill-rule:nonzero;"/>
    </g>
</svg>
