<?xml version="1.0" encoding="UTF-8" standalone="no"?>
<!DOCTYPE svg PUBLIC "-//W3C//DTD SVG 1.1//EN" "http://www.w3.org/Graphics/SVG/1.1/DTD/svg11.dtd">
<svg width="100%" height="100%" viewBox="0 0 421 421" version="1.1" xmlns="http://www.w3.org/2000/svg" xmlns:xlink="http://www.w3.org/1999/xlink" xml:space="preserve" xmlns:serif="http://www.serif.com/" style="fill-rule:evenodd;clip-rule:evenodd;stroke-linejoin:round;stroke-miterlimit:1.41421;">
    <g transform="matrix(1,0,0,1,-1207.95,-1178.78)">
        <g transform="matrix(4.16667,0,0,4.16667,0,0)">
            <path d="M390.759,333.329C390.759,360.971 368.532,383.409 340.982,383.749C340.77,383.759 340.549,383.759 340.338,383.759C312.484,383.759 289.908,361.183 289.908,333.329C289.908,305.484 312.484,282.908 340.338,282.908C340.549,282.908 340.77,282.908 340.982,282.917C368.532,283.258 390.759,305.695 390.759,333.329Z" style="fill:rgb(34,30,31);fill-rule:nonzero;"/>
        </g>
        <g transform="matrix(4.16667,0,0,4.16667,0,0)">
            <path d="M384.428,340.115C381.164,361.532 362.662,377.938 340.334,377.938C318.007,377.938 299.505,361.532 296.24,340.115L314.062,340.115C317.069,351.812 327.699,360.456 340.334,360.456C352.969,360.456 363.6,351.812 366.607,340.115L384.428,340.115Z" style="fill:white;fill-rule:nonzero;"/>
        </g>
        <g transform="matrix(4.16667,0,0,4.16667,0,0)">
            <path d="M384.428,326.551L366.607,326.551C363.6,314.854 352.969,306.21 340.334,306.21C327.699,306.21 317.069,314.854 314.062,326.551L296.24,326.551C299.505,305.134 317.998,288.729 340.334,288.729C362.671,288.729 381.164,305.134 384.428,326.551Z" style="fill:white;fill-rule:nonzero;"/>
        </g>
        <g transform="matrix(4.16667,0,0,4.16667,0,0)">
            <path d="M375.743,328.639L377.008,331.838L380.441,332.053L377.79,334.245L378.646,337.577L375.743,335.733L372.839,337.577L373.695,334.245L371.044,332.053L374.477,331.838L375.743,328.639Z" style="fill:white;fill-rule:nonzero;"/>
        </g>
        <g transform="matrix(4.16667,0,0,4.16667,0,0)">
            <path d="M304.926,328.639L306.192,331.838L309.625,332.053L306.974,334.245L307.83,337.577L304.926,335.733L302.022,337.577L302.879,334.245L300.227,332.053L303.661,331.838L304.926,328.639Z" style="fill:white;fill-rule:nonzero;"/>
        </g>
        <g transform="matrix(4.16667,0,0,4.16667,0,0)">
            <path d="M316.751,356.259C316.811,356.99 316.63,357.68 316.21,358.327L314.929,356.739C315.054,356.458 315.096,356.197 315.056,355.956C315.015,355.715 314.898,355.475 314.706,355.235C314.35,354.795 313.924,354.559 313.427,354.526C312.931,354.494 312.443,354.671 311.966,355.057C311.488,355.441 311.213,355.88 311.139,356.372C311.064,356.864 311.205,357.331 311.562,357.772C311.816,358.089 312.104,358.283 312.423,358.355C312.742,358.427 313.062,358.391 313.381,358.244L312.138,356.703L313.149,355.887L315.548,358.86L314.536,359.677C314.159,359.878 313.716,359.991 313.205,360.018C312.695,360.044 312.184,359.956 311.669,359.754C311.155,359.552 310.712,359.22 310.339,358.758C309.925,358.244 309.664,357.677 309.558,357.057C309.451,356.436 309.51,355.829 309.734,355.237C309.959,354.645 310.339,354.133 310.873,353.702C311.408,353.271 311.988,353.008 312.615,352.914C313.241,352.82 313.847,352.891 314.431,353.126C315.015,353.361 315.514,353.736 315.928,354.25C316.418,354.857 316.692,355.526 316.751,356.259Z" style="fill:rgb(34,30,31);fill-rule:nonzero;"/>
        </g>
        <g transform="matrix(4.16667,0,0,4.16667,0,0)">
            <path d="M319.727,358.339L317.113,361.614C316.852,361.942 316.73,362.26 316.75,362.565C316.771,362.872 316.937,363.149 317.249,363.399C317.563,363.648 317.872,363.751 318.181,363.707C318.488,363.663 318.773,363.477 319.036,363.148L321.649,359.874L322.986,360.94L320.372,364.216C319.985,364.7 319.547,365.025 319.056,365.192C318.564,365.359 318.073,365.387 317.581,365.276C317.09,365.165 316.641,364.947 316.234,364.623C315.828,364.299 315.52,363.912 315.311,363.464C315.102,363.016 315.03,362.538 315.097,362.033C315.163,361.527 315.39,361.032 315.776,360.548L318.39,357.272L319.727,358.339Z" style="fill:rgb(34,30,31);fill-rule:nonzero;"/>
        </g>
        <g transform="matrix(4.16667,0,0,4.16667,0,0)">
            <path d="M325.043,367.133L325.412,364.524L323.556,366.395L325.043,367.133ZM324.849,368.488L322.593,367.367L321.718,368.25L320.088,367.44L325.406,362.222L327.269,363.147L326.313,370.533L324.673,369.719L324.849,368.488Z" style="fill:rgb(34,30,31);fill-rule:nonzero;"/>
        </g>
        <g transform="matrix(4.16667,0,0,4.16667,0,0)">
            <path d="M330.697,367.612L331.723,367.882C331.974,367.947 332.191,367.926 332.376,367.815C332.56,367.705 332.684,367.527 332.748,367.282C332.811,367.044 332.788,366.827 332.681,366.634C332.572,366.44 332.397,366.312 332.151,366.247L331.126,365.978L330.697,367.612ZM331.397,371.963L330.561,368.921L330.367,368.87L329.675,371.511L328.021,371.077L329.802,364.287L332.481,364.989C333.01,365.128 333.438,365.344 333.764,365.636C334.091,365.929 334.308,366.258 334.415,366.623C334.522,366.989 334.527,367.356 334.431,367.724C334.328,368.117 334.107,368.47 333.772,368.781C333.435,369.093 332.976,369.254 332.393,369.267L333.331,372.47L331.397,371.963Z" style="fill:rgb(34,30,31);fill-rule:nonzero;"/>
        </g>
        <g transform="matrix(4.16667,0,0,4.16667,0,0)">
            <path d="M339.213,370.506L338.517,367.966L337.555,370.418L339.213,370.506ZM339.573,371.827L337.057,371.693L336.605,372.852L334.787,372.755L337.597,365.854L339.674,365.964L341.728,373.123L339.9,373.026L339.573,371.827Z" style="fill:rgb(34,30,31);fill-rule:nonzero;"/>
        </g>
        <g transform="matrix(4.16667,0,0,4.16667,0,0)">
            <path d="M349.781,371.961L348.095,372.24L344.549,368.338L345.272,372.708L343.586,372.987L342.435,366.042L344.122,365.763L347.668,369.666L346.943,365.295L348.631,365.016L349.781,371.961Z" style="fill:rgb(34,30,31);fill-rule:nonzero;"/>
        </g>
        <g transform="matrix(4.16667,0,0,4.16667,0,0)">
            <path d="M354.321,362.847L354.792,364.059L353.002,364.753L355.071,370.086L353.478,370.704L351.408,365.372L349.627,366.063L349.157,364.851L354.321,362.847Z" style="fill:rgb(34,30,31);fill-rule:nonzero;"/>
        </g>
        <g transform="matrix(4.16667,0,0,4.16667,0,0)">
            <path d="M356.96,362.738L357.742,364.03L359.658,362.87L360.332,363.982L358.416,365.143L359.26,366.536L361.433,365.221L362.106,366.333L358.471,368.534L354.824,362.513L358.46,360.311L359.133,361.423L356.96,362.738Z" style="fill:rgb(34,30,31);fill-rule:nonzero;"/>
        </g>
        <g transform="matrix(4.16667,0,0,4.16667,0,0)">
            <path d="M361.466,359.546L362.453,360.688L364.148,359.225L364.998,360.209L363.303,361.673L364.368,362.906L366.291,361.246L367.141,362.229L363.924,365.008L359.322,359.68L362.539,356.902L363.389,357.886L361.466,359.546Z" style="fill:rgb(34,30,31);fill-rule:nonzero;"/>
        </g>
        <g transform="matrix(4.16667,0,0,4.16667,0,0)">
            <path d="M369.813,356.253C369.73,355.712 369.423,355.233 368.894,354.816C368.365,354.4 367.827,354.215 367.282,354.261C366.737,354.307 366.263,354.587 365.858,355.1L365.389,355.697L368.861,358.431L369.332,357.834C369.735,357.32 369.896,356.793 369.813,356.253ZM371.094,354.964C371.309,355.554 371.353,356.169 371.225,356.811C371.098,357.452 370.807,358.062 370.354,358.638L368.825,360.579L363.31,356.236L364.837,354.296C365.295,353.715 365.818,353.286 366.407,353.012C366.996,352.738 367.603,352.636 368.226,352.706C368.849,352.777 369.431,353.024 369.97,353.449C370.504,353.87 370.879,354.375 371.094,354.964Z" style="fill:rgb(34,30,31);fill-rule:nonzero;"/>
        </g>
        <g transform="matrix(4.16667,0,0,4.16667,0,0)">
            <path d="M307.421,318.324C307.343,318.147 307.198,318.017 306.986,317.932C306.781,317.85 306.585,317.846 306.4,317.92C306.215,317.994 306.08,318.138 305.995,318.349L305.641,319.234L307.053,319.8L307.407,318.915C307.494,318.697 307.499,318.501 307.421,318.324ZM308.139,320.235L310.42,321.148L309.848,322.577L303.982,320.229L304.909,317.914C305.093,317.457 305.333,317.1 305.63,316.841C305.928,316.582 306.246,316.425 306.585,316.37C306.924,316.314 307.252,316.351 307.569,316.478C307.836,316.585 308.079,316.758 308.297,316.997C308.515,317.236 308.654,317.556 308.718,317.956C308.78,318.356 308.705,318.82 308.493,319.35L308.139,320.235Z" style="fill:rgb(34,30,31);fill-rule:nonzero;"/>
        </g>
        <g transform="matrix(4.16667,0,0,4.16667,0,0)">
            <path d="M309.689,314.314L310.193,313.505C310.316,313.306 310.355,313.112 310.31,312.925C310.264,312.737 310.145,312.584 309.95,312.463C309.762,312.346 309.57,312.308 309.375,312.349C309.18,312.391 309.022,312.508 308.901,312.701L308.397,313.511L309.689,314.314ZM313.615,314.87L310.777,314.779L310.683,314.933L312.769,316.23L311.956,317.537L306.592,314.2L307.908,312.083C308.168,311.665 308.467,311.354 308.806,311.152C309.144,310.949 309.484,310.851 309.827,310.855C310.171,310.86 310.487,310.953 310.777,311.134C311.089,311.327 311.333,311.609 311.512,311.982C311.689,312.354 311.707,312.793 311.563,313.297L314.566,313.342L313.615,314.87Z" style="fill:rgb(34,30,31);fill-rule:nonzero;"/>
        </g>
        <g transform="matrix(4.16667,0,0,4.16667,0,0)">
            <path d="M312.254,308.142L313.272,309.04L314.606,307.528L315.483,308.302L314.15,309.814L315.25,310.784L316.763,309.07L317.64,309.844L315.109,312.713L310.358,308.521L312.888,305.652L313.766,306.427L312.254,308.142Z" style="fill:rgb(34,30,31);fill-rule:nonzero;"/>
        </g>
        <g transform="matrix(4.16667,0,0,4.16667,0,0)">
            <path d="M320.178,299.685L323.98,304.729L322.751,305.656L320.606,302.81L321.58,306.539L320.667,307.227L317.351,305.264L319.495,308.109L318.267,309.036L314.464,303.99L315.872,302.929L319.946,305.313L318.769,300.746L320.178,299.685Z" style="fill:rgb(34,30,31);fill-rule:nonzero;"/>
        </g>
        <g transform="matrix(4.16667,0,0,4.16667,0,0)">
            <path d="M323.49,298.035L326.388,303.649L325.02,304.355L322.122,298.741L323.49,298.035Z" style="fill:rgb(34,30,31);fill-rule:nonzero;"/>
        </g>
        <g transform="matrix(4.16667,0,0,4.16667,0,0)">
            <path d="M326.743,296.615L327.98,300.178C328.104,300.534 328.286,300.779 328.529,300.911C328.772,301.043 329.064,301.05 329.403,300.932C329.743,300.813 329.971,300.627 330.085,300.371C330.199,300.115 330.195,299.809 330.071,299.451L328.835,295.889L330.288,295.385L331.524,298.947C331.708,299.475 331.745,299.965 331.636,300.419C331.526,300.873 331.312,301.26 330.991,301.581C330.67,301.901 330.289,302.139 329.847,302.292C329.404,302.445 328.963,302.494 328.521,302.438C328.079,302.382 327.682,302.207 327.329,301.913C326.977,301.62 326.708,301.209 326.525,300.682L325.289,297.119L326.743,296.615Z" style="fill:rgb(34,30,31);fill-rule:nonzero;"/>
        </g>
        <g transform="matrix(4.16667,0,0,4.16667,0,0)">
            <path d="M339.715,293.984L340.397,300.265L338.868,300.432L338.482,296.889L337.409,300.59L336.273,300.714L334.43,297.329L334.814,300.872L333.284,301.038L332.602,294.758L334.355,294.566L336.634,298.701L337.961,294.175L339.715,293.984Z" style="fill:rgb(34,30,31);fill-rule:nonzero;"/>
        </g>
        <g transform="matrix(4.16667,0,0,4.16667,0,0)">
            <path d="M345.976,299.055C346.206,299.439 346.57,299.683 347.07,299.786C347.564,299.888 347.992,299.808 348.355,299.546C348.719,299.284 348.956,298.883 349.068,298.342C349.18,297.801 349.12,297.339 348.89,296.954C348.66,296.57 348.298,296.327 347.805,296.225C347.305,296.122 346.874,296.201 346.51,296.463C346.147,296.726 345.909,297.127 345.798,297.667C345.687,298.208 345.745,298.67 345.976,299.055ZM348.015,302.425L347.476,301.248C347.231,301.246 347,301.224 346.782,301.179C346.201,301.059 345.695,300.813 345.267,300.443C344.838,300.073 344.532,299.616 344.35,299.073C344.168,298.53 344.14,297.956 344.264,297.351C344.389,296.745 344.643,296.231 345.023,295.808C345.405,295.384 345.866,295.087 346.406,294.916C346.947,294.746 347.509,294.721 348.09,294.841C348.672,294.961 349.177,295.206 349.606,295.576C350.035,295.947 350.34,296.401 350.52,296.941C350.699,297.48 350.727,298.053 350.602,298.658C350.495,299.176 350.293,299.628 349.995,300.018C349.697,300.406 349.337,300.707 348.913,300.92L349.839,302.802L348.015,302.425Z" style="fill:rgb(34,30,31);fill-rule:nonzero;"/>
        </g>
        <g transform="matrix(4.16667,0,0,4.16667,0,0)">
            <path d="M354.542,296.854L353.041,300.313C352.891,300.66 352.859,300.964 352.949,301.226C353.039,301.486 353.249,301.688 353.579,301.832C353.909,301.976 354.203,301.991 354.46,301.881C354.718,301.771 354.922,301.541 355.072,301.194L356.573,297.735L357.984,298.348L356.483,301.807C356.262,302.319 355.957,302.705 355.569,302.965C355.182,303.226 354.761,303.365 354.309,303.385C353.855,303.403 353.414,303.32 352.984,303.134C352.555,302.947 352.197,302.685 351.909,302.344C351.622,302.003 351.448,301.605 351.388,301.15C351.326,300.696 351.407,300.213 351.629,299.7L353.13,296.241L354.542,296.854Z" style="fill:rgb(34,30,31);fill-rule:nonzero;"/>
        </g>
        <g transform="matrix(4.16667,0,0,4.16667,0,0)">
            <path d="M360.314,304.665L360.975,302.388L359.083,303.817L360.314,304.665ZM359.969,305.848L358.101,304.562L357.209,305.237L355.86,304.308L361.263,300.335L362.805,301.397L361.012,307.855L359.655,306.922L359.969,305.848Z" style="fill:rgb(34,30,31);fill-rule:nonzero;"/>
        </g>
        <g transform="matrix(4.16667,0,0,4.16667,0,0)">
            <path d="M363.245,308.496L364.632,309.82L363.824,310.666L361.324,308.279L365.688,303.71L366.801,304.773L363.245,308.496Z" style="fill:rgb(34,30,31);fill-rule:nonzero;"/>
        </g>
        <g transform="matrix(4.16667,0,0,4.16667,0,0)">
            <path d="M370.063,308.304L365.238,312.383L364.245,311.208L369.069,307.128L370.063,308.304Z" style="fill:rgb(34,30,31);fill-rule:nonzero;"/>
        </g>
        <g transform="matrix(4.16667,0,0,4.16667,0,0)">
            <path d="M373.773,313.629L372.793,314.269L371.85,312.82L367.537,315.631L366.696,314.342L371.01,311.531L370.071,310.091L371.051,309.452L373.773,313.629Z" style="fill:rgb(34,30,31);fill-rule:nonzero;"/>
        </g>
        <g transform="matrix(4.16667,0,0,4.16667,0,0)">
            <path d="M376.705,320.127L371.907,319.797L370.036,320.595L369.433,319.179L371.303,318.381L374.386,314.688L375.07,316.294L372.923,318.531L376.021,318.521L376.705,320.127Z" style="fill:rgb(34,30,31);fill-rule:nonzero;"/>
        </g>
        <g transform="matrix(4.16667,0,0,4.16667,0,0)">
            <path d="M353.652,347.092C353.652,347.778 353.095,348.336 352.401,348.336L329.561,348.336C328.875,348.336 328.318,347.778 328.318,347.092C328.318,346.405 328.875,345.848 329.561,345.848L352.401,345.848C353.095,345.848 353.652,346.405 353.652,347.092Z" style="fill:white;fill-rule:nonzero;"/>
        </g>
        <g transform="matrix(4.16667,0,0,4.16667,0,0)">
            <path d="M334.265,328.39C334.265,329.115 333.677,329.703 332.952,329.703C332.227,329.703 331.639,329.115 331.639,328.39C331.639,327.664 332.227,327.076 332.952,327.076C333.677,327.076 334.265,327.664 334.265,328.39Z" style="fill:white;fill-rule:nonzero;"/>
        </g>
        <g transform="matrix(4.16667,0,0,4.16667,0,0)">
            <path d="M323.554,327.076C323.554,328.251 322.601,329.204 321.426,329.204C320.251,329.204 319.298,328.251 319.298,327.076C319.298,325.901 320.251,324.948 321.426,324.948C322.601,324.948 323.554,325.901 323.554,327.076Z" style="fill:white;fill-rule:nonzero;"/>
        </g>
        <g transform="matrix(4.16667,0,0,4.16667,0,0)">
            <path d="M340.985,342.692L337.695,338.352L340.985,334.012L344.265,338.352L340.985,342.692ZM348.965,336.632L348.165,330.982L345.045,334.702L340.985,324.402L336.925,334.702L333.805,330.982L333.005,336.632L323.025,330.382L328.315,344.212L353.655,344.212L358.935,330.382L348.965,336.632Z" style="fill:white;fill-rule:nonzero;"/>
        </g>
        <g transform="matrix(4.16667,0,0,4.16667,0,0)">
            <path d="M350.325,328.388C350.325,329.114 349.736,329.704 349.009,329.704C348.29,329.704 347.7,329.114 347.7,328.388C347.7,327.661 348.29,327.079 349.009,327.079C349.736,327.079 350.325,327.661 350.325,328.388Z" style="fill:white;fill-rule:nonzero;"/>
        </g>
        <g transform="matrix(4.16667,0,0,4.16667,0,0)">
            <path d="M362.665,327.079C362.665,328.25 361.712,329.203 360.541,329.203C359.362,329.203 358.409,328.25 358.409,327.079C358.409,325.9 359.362,324.947 360.541,324.947C361.712,324.947 362.665,325.9 362.665,327.079Z" style="fill:white;fill-rule:nonzero;"/>
        </g>
        <g transform="matrix(4.16667,0,0,4.16667,0,0)">
            <path d="M343.412,320.311C343.412,321.652 342.322,322.734 340.981,322.734C339.64,322.734 338.558,321.652 338.558,320.311C338.558,318.971 339.64,317.88 340.981,317.88C342.322,317.88 343.412,318.971 343.412,320.311Z" style="fill:white;fill-rule:nonzero;"/>
        </g>
    </g>
</svg>
