<?xml version="1.0" encoding="UTF-8" standalone="no"?>
<!DOCTYPE svg PUBLIC "-//W3C//DTD SVG 1.1//EN" "http://www.w3.org/Graphics/SVG/1.1/DTD/svg11.dtd">
<svg width="100%" height="100%" viewBox="0 0 257 199" version="1.1" xmlns="http://www.w3.org/2000/svg" xmlns:xlink="http://www.w3.org/1999/xlink" xml:space="preserve" xmlns:serif="http://www.serif.com/" style="fill-rule:evenodd;clip-rule:evenodd;stroke-linejoin:round;stroke-miterlimit:1.41421;">
    <g transform="matrix(1,0,0,1,-271.834,-227.063)">
        <g transform="matrix(4.16667,0,0,4.16667,0,0)">
            <path d="M119.895,78.367C119.895,91.55 109.207,102.237 96.022,102.237C82.838,102.237 72.15,91.55 72.15,78.367C72.15,65.183 82.838,54.495 96.022,54.495C109.207,54.495 119.895,65.183 119.895,78.367Z" style="fill:rgb(94,77,40);fill-rule:nonzero;"/>
        </g>
        <g transform="matrix(4.16667,0,0,4.16667,0,0)">
            <path d="M85.72,99.826C85.859,99.894 85.999,99.96 86.139,100.025L86.139,56.707C85.999,56.772 85.859,56.839 85.72,56.907L85.72,99.826ZM87.555,100.628C87.694,100.682 87.834,100.735 87.974,100.786L87.974,55.947C87.834,55.998 87.694,56.05 87.555,56.104L87.555,100.628ZM80.215,96.106C80.354,96.231 80.494,96.354 80.635,96.475L80.635,60.259C80.494,60.38 80.354,60.503 80.215,60.627L80.215,96.106ZM89.391,101.256C89.529,101.297 89.669,101.337 89.809,101.376L89.809,55.358C89.669,55.396 89.529,55.436 89.391,55.478L89.391,101.256ZM83.885,98.827C84.024,98.911 84.164,98.993 84.304,99.074L84.304,57.659C84.164,57.74 84.024,57.822 83.885,57.906L83.885,98.827ZM82.051,97.603C82.189,97.705 82.329,97.805 82.469,97.904L82.469,58.828C82.329,58.927 82.189,59.028 82.051,59.129L82.051,97.603ZM76.546,91.935C76.683,92.132 76.822,92.327 76.965,92.52L76.965,64.213C76.823,64.406 76.683,64.601 76.546,64.798L76.546,91.935ZM78.381,94.265C78.518,94.418 78.658,94.57 78.8,94.72L78.8,62.013C78.658,62.164 78.519,62.316 78.381,62.47L78.381,94.265ZM72.877,84.228C73.001,84.721 73.141,85.207 73.295,85.686L73.295,71.587C73.137,72.122 72.997,72.664 72.877,73.214L72.877,84.228ZM94.895,102.203C95.034,102.211 95.174,102.217 95.314,102.222L95.314,54.512C95.174,54.517 95.034,54.523 94.895,54.531L94.895,102.203ZM74.711,88.826C74.716,88.826 74.72,88.826 74.724,88.826C74.855,89.093 74.99,89.357 75.13,89.618L75.13,67.117C74.985,67.387 74.845,67.659 74.711,67.935L74.711,88.826ZM91.225,101.721C91.364,101.75 91.504,101.777 91.644,101.805L91.644,54.928C91.504,54.955 91.364,54.982 91.225,55.011L91.225,101.721ZM93.06,102.034C93.199,102.053 93.339,102.069 93.479,102.085L93.479,54.647C93.339,54.664 93.199,54.681 93.06,54.699L93.06,102.034ZM118.749,71.047L118.749,85.686C118.903,85.207 119.044,84.721 119.168,84.229L119.168,72.504C119.044,72.012 118.903,71.526 118.749,71.047ZM98.565,102.103C98.705,102.088 98.844,102.072 98.983,102.055L98.983,54.678C98.844,54.66 98.705,54.644 98.565,54.63L98.565,102.103ZM96.73,102.227C96.87,102.223 97.01,102.217 97.149,102.211L97.149,54.522C97.01,54.516 96.87,54.51 96.73,54.506L96.73,102.227ZM115.08,92.743C115.222,92.555 115.361,92.366 115.498,92.173L115.498,64.56C115.361,64.367 115.222,64.178 115.08,63.99L115.08,92.743ZM111.41,96.616C111.551,96.497 111.69,96.376 111.829,96.254L111.829,60.479C111.69,60.357 111.551,60.236 111.41,60.117L111.41,96.616ZM116.915,89.921C117.059,89.661 117.199,89.398 117.333,89.132L117.333,67.601C117.199,67.335 117.059,67.072 116.915,66.812L116.915,89.921ZM113.245,94.895C113.386,94.748 113.525,94.6 113.663,94.449L113.663,62.284C113.525,62.133 113.386,61.984 113.245,61.837L113.245,94.895ZM105.905,100.102C106.045,100.038 106.186,99.973 106.324,99.907L106.324,56.826C106.186,56.76 106.045,56.695 105.905,56.631L105.905,100.102ZM107.74,99.167C107.881,99.088 108.02,99.007 108.159,98.925L108.159,57.808C108.02,57.726 107.881,57.644 107.74,57.565L107.74,99.167ZM109.575,98.019C109.716,97.922 109.855,97.823 109.993,97.723L109.993,59.01C109.855,58.91 109.716,58.811 109.575,58.714L109.575,98.019ZM104.07,100.846C104.21,100.795 104.35,100.744 104.489,100.691L104.489,56.041C104.35,55.989 104.21,55.937 104.07,55.887L104.07,100.846ZM100.4,101.836C100.54,101.81 100.68,101.783 100.819,101.756L100.819,54.977C100.68,54.949 100.54,54.923 100.4,54.897L100.4,101.836ZM102.235,101.419C102.375,101.382 102.515,101.344 102.654,101.304L102.654,55.429C102.515,55.389 102.375,55.351 102.235,55.313L102.235,101.419Z" style="fill:rgb(107,91,58);fill-rule:nonzero;"/>
        </g>
        <g transform="matrix(4.16667,0,0,4.16667,0,0)">
            <path d="M118.505,76.463C118.563,76.635 118.624,76.808 118.652,76.997C118.537,76.846 118.455,76.678 118.393,76.502C118.332,76.326 118.292,76.141 118.301,75.951C118.385,76.122 118.443,76.292 118.505,76.463Z" style="fill:rgb(121,107,75);fill-rule:nonzero;"/>
        </g>
        <g transform="matrix(4.16667,0,0,4.16667,0,0)">
            <path d="M114.939,71.173C115.124,71.249 115.305,71.334 115.473,71.452C115.27,71.421 115.081,71.356 114.896,71.284C114.711,71.207 114.53,71.123 114.363,71.004C114.565,71.035 114.754,71.1 114.939,71.173Z" style="fill:rgb(121,107,75);fill-rule:nonzero;"/>
        </g>
        <g transform="matrix(4.16667,0,0,4.16667,0,0)">
            <path d="M114.465,75.25C114.571,75.277 114.68,75.285 114.781,75.257C114.885,75.232 114.98,75.177 115.071,75.11C115.162,75.042 115.248,74.963 115.339,74.884C115.287,74.993 115.219,75.093 115.133,75.18C115.047,75.268 114.938,75.339 114.811,75.373C114.684,75.405 114.548,75.389 114.434,75.338C114.319,75.289 114.222,75.213 114.142,75.123C114.251,75.173 114.356,75.222 114.465,75.25Z" style="fill:rgb(121,107,75);fill-rule:nonzero;"/>
        </g>
        <g transform="matrix(4.16667,0,0,4.16667,0,0)">
            <path d="M113.842,83.585C113.945,83.601 114.055,83.585 114.164,83.558C114.274,83.529 114.383,83.487 114.497,83.448C114.409,83.53 114.309,83.598 114.195,83.646C114.083,83.695 113.954,83.721 113.824,83.704C113.695,83.686 113.575,83.62 113.488,83.53C113.4,83.442 113.338,83.335 113.298,83.222C113.381,83.31 113.46,83.394 113.549,83.46C113.639,83.526 113.736,83.573 113.842,83.585Z" style="fill:rgb(121,107,75);fill-rule:nonzero;"/>
        </g>
        <g transform="matrix(4.16667,0,0,4.16667,0,0)">
            <path d="M113.378,62.262C113.399,62.285 113.421,62.308 113.441,62.332C113.312,62.534 113.188,62.74 113.069,62.949C112.939,63.173 112.82,63.403 112.706,63.636C112.885,63.158 113.119,62.702 113.378,62.262Z" style="fill:rgb(121,107,75);fill-rule:nonzero;"/>
        </g>
        <g transform="matrix(4.16667,0,0,4.16667,0,0)">
            <path d="M111.15,63.336C111.35,63.338 111.549,63.349 111.748,63.396C111.549,63.443 111.35,63.454 111.15,63.456C110.951,63.454 110.752,63.443 110.552,63.396C110.752,63.349 110.951,63.338 111.15,63.336Z" style="fill:rgb(121,107,75);fill-rule:nonzero;"/>
        </g>
        <g transform="matrix(4.16667,0,0,4.16667,0,0)">
            <path d="M109.418,64.876C109.464,64.766 109.52,64.659 109.607,64.565C109.607,64.694 109.572,64.809 109.529,64.921C109.482,65.031 109.428,65.138 109.339,65.231C109.34,65.103 109.375,64.987 109.418,64.876Z" style="fill:rgb(121,107,75);fill-rule:nonzero;"/>
        </g>
        <g transform="matrix(4.16667,0,0,4.16667,0,0)">
            <path d="M107.8,70.217C107.527,69.953 107.259,69.698 106.961,69.476C106.666,69.251 106.347,69.064 106.005,68.901C106.377,68.975 106.729,69.152 107.033,69.38C107.337,69.611 107.602,69.894 107.8,70.217Z" style="fill:rgb(121,107,75);fill-rule:nonzero;"/>
        </g>
        <g transform="matrix(4.16667,0,0,4.16667,0,0)">
            <path d="M105.91,58.089C106.006,58.138 106.102,58.188 106.197,58.238C106.055,58.196 105.913,58.162 105.764,58.108C105.813,58.097 105.861,58.092 105.91,58.089Z" style="fill:rgb(121,107,75);fill-rule:nonzero;"/>
        </g>
        <g transform="matrix(4.16667,0,0,4.16667,0,0)">
            <path d="M103.831,77.403C103.826,77.502 103.815,77.603 103.784,77.7C103.749,77.502 103.722,77.312 103.705,77.116C103.691,76.92 103.686,76.717 103.744,76.522C103.779,76.72 103.807,76.91 103.824,77.106C103.83,77.204 103.836,77.304 103.831,77.403Z" style="fill:rgb(121,107,75);fill-rule:nonzero;"/>
        </g>
        <g transform="matrix(4.16667,0,0,4.16667,0,0)">
            <path d="M103.731,59.208C103.779,59.328 103.789,59.447 103.791,59.567C103.789,59.686 103.778,59.806 103.731,59.926C103.684,59.806 103.674,59.686 103.672,59.567C103.673,59.447 103.684,59.328 103.731,59.208Z" style="fill:rgb(121,107,75);fill-rule:nonzero;"/>
        </g>
        <g transform="matrix(4.16667,0,0,4.16667,0,0)">
            <path d="M102.352,80.232C102.385,80.164 102.428,80.102 102.474,80.043C102.568,79.928 102.681,79.825 102.822,79.763C102.744,79.895 102.655,80.006 102.566,80.118L102.43,80.283L102.286,80.45C102.291,80.373 102.318,80.299 102.352,80.232Z" style="fill:rgb(121,107,75);fill-rule:nonzero;"/>
        </g>
        <g transform="matrix(4.16667,0,0,4.16667,0,0)">
            <path d="M97.804,58.647C97.91,58.525 98.036,58.418 98.177,58.341C98.318,58.262 98.474,58.212 98.63,58.194C98.341,58.319 98.089,58.494 97.895,58.725C97.697,58.954 97.562,59.229 97.448,59.523C97.469,59.208 97.594,58.894 97.804,58.647Z" style="fill:rgb(121,107,75);fill-rule:nonzero;"/>
        </g>
        <g transform="matrix(4.16667,0,0,4.16667,0,0)">
            <path d="M93.416,75.605C93.671,75.488 93.901,75.319 94.08,75.106C94.442,74.677 94.599,74.117 94.708,73.565C94.825,73.012 94.891,72.441 95.052,71.889C95.133,71.614 95.237,71.342 95.383,71.094C95.531,70.847 95.721,70.623 95.953,70.457C95.516,70.832 95.277,71.369 95.14,71.913C95,72.461 94.933,73.027 94.824,73.589C94.766,73.87 94.695,74.149 94.591,74.42C94.486,74.688 94.348,74.952 94.149,75.166C93.953,75.383 93.706,75.55 93.439,75.658C93.17,75.764 92.886,75.822 92.602,75.841C92.883,75.795 93.161,75.726 93.416,75.605Z" style="fill:rgb(121,107,75);fill-rule:nonzero;"/>
        </g>
        <g transform="matrix(4.16667,0,0,4.16667,0,0)">
            <path d="M88.537,59.537C88.593,59.639 88.619,59.736 88.663,59.818C88.703,59.901 88.764,59.964 88.847,60.049C88.789,60.052 88.73,60.036 88.679,60.005C88.627,59.975 88.585,59.926 88.557,59.873C88.53,59.818 88.515,59.761 88.513,59.704C88.51,59.647 88.517,59.592 88.537,59.537Z" style="fill:rgb(121,107,75);fill-rule:nonzero;"/>
        </g>
        <g transform="matrix(4.16667,0,0,4.16667,0,0)">
            <path d="M87.592,81.998C87.255,81.914 86.934,81.795 86.609,81.695C86.284,81.592 85.959,81.508 85.616,81.458C85.962,81.413 86.315,81.479 86.645,81.581C86.975,81.686 87.292,81.827 87.592,81.998Z" style="fill:rgb(121,107,75);fill-rule:nonzero;"/>
        </g>
        <g transform="matrix(4.16667,0,0,4.16667,0,0)">
            <path d="M87.397,91.397C87.395,91.597 87.384,91.796 87.337,91.996C87.289,91.796 87.279,91.597 87.277,91.397C87.279,91.198 87.29,90.998 87.337,90.799C87.384,90.998 87.395,91.198 87.397,91.397Z" style="fill:rgb(121,107,75);fill-rule:nonzero;"/>
        </g>
        <g transform="matrix(4.16667,0,0,4.16667,0,0)">
            <path d="M86.14,88.166C86.188,88.231 86.219,88.308 86.231,88.39C86.244,88.472 86.232,88.562 86.193,88.642C86.153,88.721 86.088,88.784 86.015,88.823C85.941,88.863 85.862,88.884 85.781,88.884C85.911,88.791 86.029,88.707 86.086,88.589C86.117,88.53 86.131,88.464 86.138,88.393C86.144,88.322 86.141,88.248 86.14,88.166Z" style="fill:rgb(121,107,75);fill-rule:nonzero;"/>
        </g>
        <g transform="matrix(4.16667,0,0,4.16667,0,0)">
            <path d="M85.392,66.877C85.517,66.46 85.724,66.061 86.027,65.749C85.8,66.117 85.625,66.504 85.506,66.911C85.386,67.317 85.321,67.737 85.307,68.169C85.227,67.743 85.27,67.295 85.392,66.877Z" style="fill:rgb(121,107,75);fill-rule:nonzero;"/>
        </g>
        <g transform="matrix(4.16667,0,0,4.16667,0,0)">
            <path d="M84.351,66.634C84.444,66.154 84.642,65.698 84.917,65.301C84.725,65.744 84.555,66.191 84.468,66.657C84.377,67.122 84.374,67.599 84.441,68.077C84.281,67.62 84.259,67.114 84.351,66.634Z" style="fill:rgb(121,107,75);fill-rule:nonzero;"/>
        </g>
        <g transform="matrix(4.16667,0,0,4.16667,0,0)">
            <path d="M84.755,68.95C84.934,69.242 85.11,69.533 85.279,69.835C85.034,69.589 84.836,69.304 84.653,69.013C84.474,68.719 84.311,68.416 84.174,68.099C84.392,68.369 84.573,68.66 84.755,68.95Z" style="fill:rgb(121,107,75);fill-rule:nonzero;"/>
        </g>
        <g transform="matrix(4.16667,0,0,4.16667,0,0)">
            <path d="M84.263,74.696C84.425,74.757 84.585,74.821 84.745,74.887C84.903,74.957 85.062,75.024 85.216,75.102L84.724,74.942C84.561,74.887 84.397,74.833 84.233,74.783C83.905,74.682 83.576,74.582 83.244,74.496C82.913,74.407 82.578,74.332 82.242,74.267C82.073,74.234 81.904,74.207 81.733,74.186C81.563,74.161 81.392,74.146 81.22,74.132C81.565,74.109 81.912,74.131 82.256,74.176C82.6,74.22 82.939,74.293 83.274,74.38C83.609,74.47 83.939,74.574 84.263,74.696Z" style="fill:rgb(121,107,75);fill-rule:nonzero;"/>
        </g>
        <g transform="matrix(4.16667,0,0,4.16667,0,0)">
            <path d="M82.293,88.247C82.369,88.062 82.454,87.881 82.572,87.714C82.541,87.916 82.476,88.105 82.403,88.291C82.327,88.476 82.243,88.657 82.124,88.824C82.154,88.621 82.219,88.432 82.293,88.247Z" style="fill:rgb(121,107,75);fill-rule:nonzero;"/>
        </g>
        <g transform="matrix(4.16667,0,0,4.16667,0,0)">
            <path d="M82.086,85.387C82.004,85.396 81.922,85.385 81.847,85.356C82.002,85.318 82.144,85.285 82.241,85.196C82.291,85.154 82.329,85.098 82.362,85.035C82.395,84.971 82.419,84.9 82.449,84.825C82.469,84.903 82.469,84.985 82.449,85.066C82.431,85.147 82.386,85.226 82.32,85.286C82.253,85.344 82.169,85.378 82.086,85.387Z" style="fill:rgb(121,107,75);fill-rule:nonzero;"/>
        </g>
        <g transform="matrix(4.16667,0,0,4.16667,0,0)">
            <path d="M81.992,78.455C81.824,78.488 81.657,78.527 81.491,78.571C81.324,78.611 81.16,78.662 80.995,78.713C81.306,78.562 81.637,78.453 81.972,78.366C82.307,78.277 82.649,78.218 82.993,78.173C83.336,78.131 83.682,78.103 84.027,78.096C84.2,78.092 84.373,78.09 84.545,78.092C84.718,78.098 84.891,78.102 85.063,78.115L84.547,78.15C84.375,78.161 84.204,78.173 84.032,78.187C83.69,78.217 83.348,78.248 83.007,78.292C82.667,78.333 82.329,78.389 81.992,78.455Z" style="fill:rgb(121,107,75);fill-rule:nonzero;"/>
        </g>
        <g transform="matrix(4.16667,0,0,4.16667,0,0)">
            <path d="M82.26,72.68C81.983,72.475 81.719,72.256 81.473,72.012C81.776,72.181 82.054,72.383 82.331,72.584C82.606,72.788 82.879,72.991 83.148,73.208C82.83,73.072 82.539,72.882 82.26,72.68Z" style="fill:rgb(121,107,75);fill-rule:nonzero;"/>
        </g>
        <g transform="matrix(4.16667,0,0,4.16667,0,0)">
            <path d="M82.533,62.653C82.601,62.715 82.682,62.751 82.79,62.798C82.737,62.822 82.677,62.83 82.618,62.82C82.558,62.811 82.502,62.782 82.455,62.744C82.41,62.703 82.375,62.655 82.351,62.603C82.328,62.552 82.313,62.498 82.311,62.439C82.401,62.512 82.462,62.594 82.533,62.653Z" style="fill:rgb(121,107,75);fill-rule:nonzero;"/>
        </g>
        <g transform="matrix(4.16667,0,0,4.16667,0,0)">
            <path d="M82.311,69.14C82.239,69.566 82.222,69.991 82.264,70.412C82.304,70.833 82.402,71.248 82.55,71.653C82.316,71.288 82.189,70.857 82.145,70.424C82.105,69.99 82.147,69.542 82.311,69.14Z" style="fill:rgb(121,107,75);fill-rule:nonzero;"/>
        </g>
        <g transform="matrix(4.16667,0,0,4.16667,0,0)">
            <path d="M81.114,69.14C81.101,69.623 81.112,70.1 81.206,70.565C81.296,71.03 81.471,71.474 81.712,71.892C81.393,71.528 81.183,71.067 81.089,70.588C80.996,70.108 81.008,69.611 81.114,69.14Z" style="fill:rgb(121,107,75);fill-rule:nonzero;"/>
        </g>
        <g transform="matrix(4.16667,0,0,4.16667,0,0)">
            <path d="M80.972,61.669C81.023,61.871 81.032,62.087 80.973,62.288C80.937,62.082 80.907,61.889 80.856,61.699C80.808,61.507 80.74,61.325 80.665,61.131C80.819,61.272 80.918,61.467 80.972,61.669Z" style="fill:rgb(121,107,75);fill-rule:nonzero;"/>
        </g>
        <g transform="matrix(4.16667,0,0,4.16667,0,0)">
            <path d="M80.611,66.74C80.66,66.758 80.703,66.804 80.722,66.854C80.761,66.957 80.744,67.057 80.725,67.148C80.702,67.239 80.669,67.325 80.629,67.407C80.589,67.489 80.543,67.567 80.487,67.641C80.51,67.457 80.569,67.288 80.608,67.12C80.629,67.038 80.645,66.954 80.633,66.882C80.625,66.811 80.559,66.758 80.468,66.73C80.513,66.72 80.563,66.721 80.611,66.74Z" style="fill:rgb(121,107,75);fill-rule:nonzero;"/>
        </g>
        <g transform="matrix(4.16667,0,0,4.16667,0,0)">
            <path d="M78.762,65.705C78.79,65.529 78.831,65.355 78.896,65.191C78.815,65.534 78.794,65.886 78.836,66.229C78.878,66.572 78.976,66.908 79.13,67.216C79.281,67.525 79.488,67.807 79.739,68.044C79.989,68.282 80.289,68.47 80.617,68.597C80.445,68.558 80.279,68.492 80.12,68.413C79.963,68.329 79.814,68.228 79.677,68.113C79.403,67.882 79.183,67.59 79.023,67.269C78.865,66.947 78.767,66.595 78.744,66.238C78.733,66.06 78.739,65.88 78.762,65.705Z" style="fill:rgb(121,107,75);fill-rule:nonzero;"/>
        </g>
        <g transform="matrix(4.16667,0,0,4.16667,0,0)">
            <path d="M80.456,83.559C80.454,83.699 80.443,83.839 80.396,83.978C80.349,83.839 80.339,83.699 80.336,83.559C80.338,83.42 80.349,83.28 80.396,83.141C80.444,83.28 80.455,83.42 80.456,83.559Z" style="fill:rgb(121,107,75);fill-rule:nonzero;"/>
        </g>
        <g transform="matrix(4.16667,0,0,4.16667,0,0)">
            <path d="M79.006,78.013C78.998,78.161 78.956,78.294 78.905,78.424C78.851,78.553 78.789,78.678 78.692,78.79C78.701,78.643 78.744,78.509 78.794,78.379C78.848,78.25 78.91,78.125 79.006,78.013Z" style="fill:rgb(121,107,75);fill-rule:nonzero;"/>
        </g>
        <g transform="matrix(4.16667,0,0,4.16667,0,0)">
            <path d="M76.598,68.709C76.669,68.317 76.782,67.93 76.951,67.566C77.122,67.203 77.355,66.863 77.656,66.595C77.805,66.46 77.969,66.343 78.144,66.244C78.319,66.149 78.502,66.069 78.692,66.013C78.331,66.172 77.995,66.386 77.719,66.661C77.443,66.936 77.223,67.263 77.06,67.617C76.893,67.969 76.779,68.346 76.688,68.728C76.643,68.919 76.605,69.113 76.573,69.308C76.537,69.502 76.51,69.698 76.48,69.894C76.488,69.498 76.526,69.101 76.598,68.709Z" style="fill:rgb(121,107,75);fill-rule:nonzero;"/>
        </g>
        <g transform="matrix(4.16667,0,0,4.16667,0,0)">
            <path d="M77.927,72.699C77.921,72.79 77.908,72.879 77.883,72.969C77.835,72.79 77.827,72.61 77.801,72.441C77.789,72.357 77.772,72.273 77.734,72.211C77.7,72.148 77.619,72.124 77.524,72.132C77.562,72.105 77.609,72.087 77.661,72.087C77.713,72.085 77.77,72.112 77.806,72.152C77.881,72.232 77.903,72.332 77.919,72.423C77.932,72.516 77.934,72.607 77.927,72.699Z" style="fill:rgb(121,107,75);fill-rule:nonzero;"/>
        </g>
        <g transform="matrix(4.16667,0,0,4.16667,0,0)">
            <path d="M76.096,67.25C76.219,67.418 76.308,67.615 76.328,67.824C76.218,67.647 76.118,67.479 76,67.321C75.883,67.162 75.752,67.019 75.61,66.866C75.806,66.94 75.97,67.083 76.096,67.25Z" style="fill:rgb(121,107,75);fill-rule:nonzero;"/>
        </g>
        <g transform="matrix(4.16667,0,0,4.16667,0,0)">
            <path d="M75.823,72.279C75.992,72.581 76.208,72.855 76.466,73.083C76.722,73.313 77.02,73.497 77.341,73.623C77.662,73.75 78.01,73.811 78.362,73.807C78.188,73.835 78.009,73.836 77.832,73.822C77.655,73.804 77.48,73.766 77.31,73.71C76.968,73.599 76.655,73.41 76.386,73.172C76.12,72.933 75.896,72.644 75.742,72.321C75.665,72.16 75.603,71.992 75.559,71.82C75.519,71.646 75.491,71.47 75.49,71.294C75.544,71.642 75.656,71.976 75.823,72.279Z" style="fill:rgb(121,107,75);fill-rule:nonzero;"/>
        </g>
        <g transform="matrix(4.16667,0,0,4.16667,0,0)">
            <path d="M74.577,74.224C74.6,73.824 74.688,73.421 74.866,73.06C74.955,72.879 75.063,72.708 75.187,72.552C75.314,72.398 75.455,72.255 75.61,72.132C75.334,72.415 75.103,72.739 74.949,73.098C74.797,73.456 74.715,73.841 74.696,74.23C74.674,74.62 74.71,75.012 74.769,75.4C74.798,75.595 74.836,75.788 74.878,75.981C74.918,76.174 74.966,76.366 75.011,76.559C74.871,76.188 74.758,75.807 74.678,75.416C74.597,75.027 74.557,74.625 74.577,74.224Z" style="fill:rgb(121,107,75);fill-rule:nonzero;"/>
        </g>
        <g transform="matrix(4.16667,0,0,4.16667,0,0)">
            <path d="M74.174,86.73C74.147,86.678 74.119,86.636 74.093,86.589C74.067,86.544 74.044,86.497 74.022,86.448C73.98,86.351 73.94,86.25 73.935,86.132C74.025,86.207 74.083,86.3 74.13,86.399C74.152,86.45 74.171,86.502 74.182,86.558C74.192,86.612 74.197,86.674 74.174,86.73Z" style="fill:rgb(121,107,75);fill-rule:nonzero;"/>
        </g>
        <g transform="matrix(4.16667,0,0,4.16667,0,0)">
            <path d="M74.399,83.502C74.205,83.331 74.02,83.147 73.85,82.952C73.683,82.754 73.526,82.547 73.392,82.327C73.702,82.739 74.061,83.109 74.458,83.433C74.855,83.756 75.283,84.04 75.732,84.289C76.176,84.546 76.64,84.769 77.104,84.993L77.8,85.327C78.031,85.443 78.264,85.555 78.491,85.678L77.776,85.381L77.065,85.076C76.592,84.869 76.126,84.644 75.673,84.393C75.225,84.133 74.789,83.846 74.399,83.502Z" style="fill:rgb(121,107,75);fill-rule:nonzero;"/>
        </g>
        <g transform="matrix(4.16667,0,0,4.16667,0,0)">
            <path d="M77.243,86.55C77.58,86.681 77.912,86.825 78.24,86.981C78.566,87.139 78.888,87.308 79.196,87.498C79.35,87.594 79.502,87.693 79.651,87.796C79.798,87.903 79.944,88.01 80.082,88.127C79.928,88.032 79.775,87.936 79.619,87.846C79.464,87.753 79.308,87.664 79.15,87.578C78.833,87.407 78.513,87.243 78.188,87.089C77.864,86.932 77.535,86.785 77.207,86.634C76.879,86.485 76.548,86.339 76.222,86.181C76.566,86.293 76.906,86.418 77.243,86.55Z" style="fill:rgb(121,107,75);fill-rule:nonzero;"/>
        </g>
        <g transform="matrix(4.16667,0,0,4.16667,0,0)">
            <path d="M78.181,89.956C77.937,89.87 77.696,89.769 77.466,89.651C77.236,89.531 77.014,89.398 76.806,89.244C77.249,89.509 77.721,89.718 78.21,89.869C78.699,90.02 79.202,90.123 79.711,90.186C80.219,90.258 80.733,90.291 81.247,90.325L82.019,90.374C82.275,90.394 82.533,90.412 82.79,90.44L82.016,90.433L81.242,90.417C80.727,90.402 80.21,90.368 79.696,90.304C79.183,90.231 78.671,90.128 78.181,89.956Z" style="fill:rgb(121,107,75);fill-rule:nonzero;"/>
        </g>
        <g transform="matrix(4.16667,0,0,4.16667,0,0)">
            <path d="M82.218,95.824C82.054,95.98 81.868,96.118 81.662,96.214C81.457,96.313 81.232,96.368 81.009,96.375C81.226,96.322 81.43,96.239 81.619,96.131C81.807,96.022 81.98,95.889 82.136,95.738C82.452,95.437 82.706,95.075 82.97,94.715C82.788,95.122 82.545,95.508 82.218,95.824Z" style="fill:rgb(121,107,75);fill-rule:nonzero;"/>
        </g>
        <g transform="matrix(4.16667,0,0,4.16667,0,0)">
            <path d="M81.579,92.088C81.701,92.363 81.825,92.627 81.961,92.889C82.094,93.152 82.238,93.411 82.351,93.691C82.157,93.461 81.993,93.21 81.855,92.943C81.72,92.676 81.609,92.389 81.579,92.088Z" style="fill:rgb(121,107,75);fill-rule:nonzero;"/>
        </g>
        <g transform="matrix(4.16667,0,0,4.16667,0,0)">
            <path d="M84.648,92.028C84.47,91.999 84.292,91.975 84.113,91.956C83.755,91.915 83.397,91.883 83.038,91.862C82.679,91.837 82.318,91.825 81.958,91.808C81.597,91.792 81.236,91.781 80.875,91.756C81.236,91.732 81.598,91.72 81.96,91.716C82.321,91.711 82.684,91.721 83.045,91.743C83.407,91.767 83.768,91.803 84.126,91.864C84.304,91.895 84.482,91.93 84.659,91.97C84.835,92.014 85.011,92.059 85.183,92.115C85.004,92.085 84.827,92.052 84.648,92.028Z" style="fill:rgb(121,107,75);fill-rule:nonzero;"/>
        </g>
        <g transform="matrix(4.16667,0,0,4.16667,0,0)">
            <path d="M86.744,93.301C86.408,93.155 86.078,92.978 85.791,92.736C85.506,92.495 85.278,92.179 85.15,91.829C85.019,91.48 84.966,91.11 84.961,90.744C84.99,90.925 85.019,91.105 85.065,91.281C85.107,91.457 85.163,91.63 85.235,91.794C85.379,92.124 85.594,92.416 85.869,92.645C86.141,92.877 86.46,93.054 86.783,93.218C86.945,93.3 87.111,93.377 87.277,93.453C87.441,93.533 87.609,93.606 87.773,93.687C87.425,93.573 87.082,93.449 86.744,93.301Z" style="fill:rgb(121,107,75);fill-rule:nonzero;"/>
        </g>
        <g transform="matrix(4.16667,0,0,4.16667,0,0)">
            <path d="M88.815,83.587C89.162,83.561 89.506,83.572 89.85,83.619C89.506,83.666 89.164,83.677 88.825,83.706C88.485,83.733 88.152,83.776 87.815,83.859C88.119,83.686 88.472,83.617 88.815,83.587Z" style="fill:rgb(121,107,75);fill-rule:nonzero;"/>
        </g>
        <g transform="matrix(4.16667,0,0,4.16667,0,0)">
            <path d="M90.047,98.452C89.953,98.658 89.833,98.854 89.677,99.021C89.524,99.189 89.336,99.325 89.132,99.415C89.313,99.284 89.472,99.131 89.606,98.961C89.74,98.79 89.85,98.601 89.939,98.402C90.119,98.005 90.219,97.574 90.328,97.141C90.312,97.586 90.232,98.036 90.047,98.452Z" style="fill:rgb(121,107,75);fill-rule:nonzero;"/>
        </g>
        <g transform="matrix(4.16667,0,0,4.16667,0,0)">
            <path d="M90.481,86.404C90.475,86.439 90.455,86.479 90.42,86.497C90.409,86.457 90.397,86.435 90.388,86.409C90.377,86.385 90.368,86.362 90.358,86.34C90.349,86.317 90.338,86.295 90.329,86.27C90.318,86.246 90.307,86.22 90.288,86.186C90.327,86.174 90.367,86.186 90.397,86.207C90.43,86.228 90.452,86.26 90.468,86.293C90.481,86.328 90.488,86.366 90.481,86.404Z" style="fill:rgb(121,107,75);fill-rule:nonzero;"/>
        </g>
        <g transform="matrix(4.16667,0,0,4.16667,0,0)">
            <path d="M90.568,59.088C90.469,58.789 90.467,58.451 90.57,58.143C90.622,57.99 90.699,57.844 90.801,57.719C90.901,57.593 91.027,57.488 91.166,57.413C90.945,57.638 90.777,57.894 90.683,58.181C90.586,58.467 90.564,58.773 90.568,59.088Z" style="fill:rgb(121,107,75);fill-rule:nonzero;"/>
        </g>
        <g transform="matrix(4.16667,0,0,4.16667,0,0)">
            <path d="M93.289,99.919C93.136,99.83 92.995,99.719 92.868,99.593C92.743,99.465 92.637,99.319 92.55,99.163C92.381,98.848 92.284,98.508 92.193,98.173C92.104,97.837 92.014,97.503 91.917,97.168C91.989,97.327 92.051,97.49 92.113,97.653C92.172,97.816 92.226,97.982 92.281,98.147C92.393,98.476 92.491,98.808 92.655,99.105C92.814,99.405 93.055,99.651 93.338,99.841C93.48,99.937 93.631,100.02 93.787,100.096C93.94,100.174 94.101,100.241 94.261,100.31C93.924,100.221 93.593,100.1 93.289,99.919Z" style="fill:rgb(121,107,75);fill-rule:nonzero;"/>
        </g>
        <g transform="matrix(4.16667,0,0,4.16667,0,0)">
            <path d="M93.298,94.416C92.932,94.406 92.56,94.366 92.203,94.249C91.848,94.133 91.519,93.925 91.269,93.648C91.016,93.374 90.829,93.051 90.688,92.714C90.782,92.871 90.876,93.027 90.985,93.173C91.09,93.32 91.206,93.46 91.335,93.585C91.591,93.836 91.9,94.027 92.241,94.136C92.58,94.25 92.942,94.293 93.303,94.325C93.484,94.34 93.667,94.35 93.849,94.357C94.031,94.37 94.214,94.375 94.397,94.389C94.032,94.414 93.666,94.427 93.298,94.416Z" style="fill:rgb(121,107,75);fill-rule:nonzero;"/>
        </g>
        <g transform="matrix(4.16667,0,0,4.16667,0,0)">
            <path d="M93.918,86.491C93.949,86.466 93.991,86.462 94.027,86.471C94.065,86.478 94.098,86.498 94.125,86.524C94.15,86.551 94.171,86.584 94.178,86.621C94.186,86.656 94.183,86.701 94.158,86.73C94.132,86.698 94.113,86.682 94.094,86.661C94.075,86.643 94.059,86.625 94.041,86.608C94.024,86.59 94.006,86.574 93.988,86.555C93.968,86.536 93.949,86.517 93.918,86.491Z" style="fill:rgb(121,107,75);fill-rule:nonzero;"/>
        </g>
        <g transform="matrix(4.16667,0,0,4.16667,0,0)">
            <path d="M94.227,78.732C93.93,78.7 93.64,78.633 93.354,78.559C93.084,78.486 92.817,78.408 92.551,78.332C92.636,78.395 92.722,78.46 92.808,78.523C93.043,78.7 93.28,78.871 93.527,79.027C93.774,79.183 94.036,79.316 94.312,79.422C94.166,79.394 94.024,79.348 93.885,79.296C93.747,79.241 93.612,79.177 93.481,79.107C93.218,78.966 92.974,78.795 92.736,78.619C92.578,78.499 92.422,78.378 92.267,78.256C92.062,78.203 91.855,78.154 91.645,78.115C91.793,78.116 91.94,78.132 92.087,78.15C92.106,78.153 92.125,78.156 92.143,78.159C92.108,78.132 92.073,78.104 92.038,78.077C91.806,77.898 91.568,77.727 91.318,77.567C91.455,77.624 91.586,77.695 91.715,77.766C91.844,77.841 91.968,77.921 92.092,78.003C92.186,78.065 92.276,78.132 92.367,78.198C92.42,78.208 92.472,78.218 92.525,78.229C92.815,78.289 93.1,78.37 93.384,78.443C93.668,78.519 93.952,78.589 94.24,78.641C94.527,78.692 94.819,78.718 95.115,78.713C94.969,78.741 94.821,78.751 94.672,78.756C94.523,78.757 94.375,78.748 94.227,78.732Z" style="fill:rgb(121,107,75);fill-rule:nonzero;"/>
        </g>
        <g transform="matrix(4.16667,0,0,4.16667,0,0)">
            <path d="M96.148,90.528C96.012,90.648 95.829,90.722 95.643,90.729C95.458,90.737 95.277,90.686 95.118,90.604C94.958,90.524 94.818,90.414 94.696,90.29C94.847,90.377 94.999,90.457 95.156,90.519C95.313,90.579 95.477,90.618 95.638,90.61C95.8,90.605 95.956,90.548 96.091,90.454C96.227,90.36 96.344,90.233 96.452,90.096C96.385,90.256 96.288,90.41 96.148,90.528Z" style="fill:rgb(121,107,75);fill-rule:nonzero;"/>
        </g>
        <g transform="matrix(4.16667,0,0,4.16667,0,0)">
            <path d="M97.24,87.188C97.206,86.968 97.171,86.761 97.123,86.553C97.078,86.344 97.019,86.139 96.978,85.92C97.106,86.102 97.189,86.311 97.24,86.526C97.287,86.743 97.301,86.972 97.24,87.188Z" style="fill:rgb(121,107,75);fill-rule:nonzero;"/>
        </g>
        <g transform="matrix(4.16667,0,0,4.16667,0,0)">
            <path d="M98.182,72.081C98.133,72.097 98.086,72.117 98.04,72.137C97.966,72.378 97.904,72.623 97.848,72.869C97.8,73.082 97.76,73.297 97.725,73.514C97.687,73.73 97.659,73.948 97.628,74.166C97.637,73.726 97.682,73.286 97.758,72.851C97.795,72.633 97.843,72.417 97.901,72.203C97.489,72.415 97.154,72.755 96.882,73.127C96.548,73.583 96.274,74.082 95.962,74.562C95.803,74.801 95.632,75.034 95.435,75.246C95.237,75.456 95.01,75.647 94.745,75.772C94.482,75.899 94.19,75.962 93.902,75.962C93.613,75.959 93.329,75.907 93.058,75.818C93.335,75.881 93.619,75.92 93.9,75.904C94.181,75.892 94.458,75.821 94.704,75.69C95.2,75.428 95.556,74.968 95.862,74.497C96.179,74.027 96.454,73.523 96.81,73.071C96.988,72.847 97.186,72.634 97.415,72.458C97.567,72.343 97.734,72.247 97.91,72.173C97.966,71.97 98.031,71.769 98.108,71.572C98.272,71.16 98.484,70.76 98.784,70.427C98.934,70.261 99.103,70.112 99.291,69.992C99.48,69.876 99.686,69.786 99.901,69.738C99.484,69.881 99.126,70.151 98.853,70.486C98.581,70.822 98.377,71.211 98.219,71.616C98.153,71.782 98.097,71.952 98.044,72.123C98.089,72.108 98.135,72.092 98.182,72.081Z" style="fill:rgb(121,107,75);fill-rule:nonzero;"/>
        </g>
        <g transform="matrix(4.16667,0,0,4.16667,0,0)">
            <path d="M98.68,75.58C98.563,75.766 98.455,75.957 98.345,76.147C98.519,75.743 98.725,75.352 98.959,74.978C99.191,74.602 99.458,74.246 99.762,73.922C100.069,73.602 100.416,73.311 100.818,73.114C101.02,73.016 101.231,72.941 101.451,72.901C101.67,72.864 101.895,72.857 102.112,72.894C101.672,72.87 101.238,72.987 100.86,73.195C100.481,73.404 100.147,73.689 99.849,74.004C99.549,74.319 99.284,74.668 99.036,75.028C98.911,75.207 98.793,75.392 98.68,75.58Z" style="fill:rgb(121,107,75);fill-rule:nonzero;"/>
        </g>
        <g transform="matrix(4.16667,0,0,4.16667,0,0)">
            <path d="M100.056,88.686C100.224,88.682 100.39,88.657 100.537,88.589C100.685,88.524 100.808,88.413 100.898,88.275C100.989,88.136 101.051,87.976 101.099,87.808C101.096,87.981 101.064,88.161 100.979,88.322C100.896,88.484 100.756,88.622 100.586,88.698C100.417,88.774 100.23,88.794 100.052,88.779C99.874,88.765 99.703,88.714 99.543,88.645C99.715,88.669 99.887,88.687 100.056,88.686Z" style="fill:rgb(121,107,75);fill-rule:nonzero;"/>
        </g>
        <g transform="matrix(4.16667,0,0,4.16667,0,0)">
            <path d="M100.021,83.739C100.208,83.86 100.364,84.021 100.492,84.203C100.616,84.386 100.715,84.593 100.74,84.816C100.625,84.625 100.516,84.446 100.394,84.271C100.273,84.094 100.142,83.927 100.021,83.739Z" style="fill:rgb(121,107,75);fill-rule:nonzero;"/>
        </g>
        <g transform="matrix(4.16667,0,0,4.16667,0,0)">
            <path d="M101.846,98.1C101.671,98.075 101.499,98.025 101.334,97.956C101.17,97.884 101.017,97.788 100.878,97.676C100.603,97.447 100.386,97.168 100.176,96.892C99.966,96.614 99.758,96.338 99.543,96.064C99.669,96.184 99.788,96.312 99.906,96.439C100.022,96.57 100.135,96.703 100.248,96.835C100.474,97.098 100.69,97.369 100.954,97.583C101.213,97.801 101.528,97.939 101.863,98.01C102.029,98.046 102.201,98.066 102.373,98.078C102.546,98.093 102.72,98.095 102.894,98.099C102.549,98.143 102.196,98.154 101.846,98.1Z" style="fill:rgb(121,107,75);fill-rule:nonzero;"/>
        </g>
        <g transform="matrix(4.16667,0,0,4.16667,0,0)">
            <path d="M102.815,95.315C102.779,95.356 102.746,95.407 102.678,95.451C102.658,95.374 102.676,95.303 102.721,95.241C102.769,95.182 102.845,95.144 102.924,95.163C102.882,95.232 102.848,95.271 102.815,95.315Z" style="fill:rgb(121,107,75);fill-rule:nonzero;"/>
        </g>
        <g transform="matrix(4.16667,0,0,4.16667,0,0)">
            <path d="M102.608,83.484C102.498,83.438 102.392,83.383 102.299,83.294C102.427,83.295 102.542,83.33 102.653,83.373C102.764,83.42 102.871,83.475 102.964,83.563C102.836,83.562 102.721,83.527 102.608,83.484Z" style="fill:rgb(121,107,75);fill-rule:nonzero;"/>
        </g>
        <g transform="matrix(4.16667,0,0,4.16667,0,0)">
            <path d="M103.029,76.266L102.964,76.47L102.894,76.679C102.869,76.606 102.867,76.527 102.873,76.452C102.877,76.376 102.895,76.303 102.915,76.231C102.96,76.089 103.025,75.952 103.133,75.841C103.111,75.993 103.069,76.129 103.029,76.266Z" style="fill:rgb(121,107,75);fill-rule:nonzero;"/>
        </g>
        <g transform="matrix(4.16667,0,0,4.16667,0,0)">
            <path d="M102.96,73.056C102.874,72.88 102.792,72.693 102.773,72.491C102.881,72.661 102.977,72.827 103.066,73.002C103.109,73.091 103.151,73.181 103.185,73.275C103.218,73.368 103.245,73.467 103.252,73.567C103.146,73.397 103.05,73.231 102.96,73.056Z" style="fill:rgb(121,107,75);fill-rule:nonzero;"/>
        </g>
        <g transform="matrix(4.16667,0,0,4.16667,0,0)">
            <path d="M103.863,98.3C103.789,98.277 103.719,98.244 103.65,98.201C103.585,98.157 103.523,98.1 103.48,98.031C103.438,97.963 103.409,97.887 103.403,97.809C103.455,97.868 103.502,97.923 103.553,97.973C103.604,98.021 103.658,98.064 103.717,98.102C103.833,98.181 103.969,98.244 104.09,98.344C104.012,98.339 103.937,98.323 103.863,98.3Z" style="fill:rgb(121,107,75);fill-rule:nonzero;"/>
        </g>
        <g transform="matrix(4.16667,0,0,4.16667,0,0)">
            <path d="M104.33,79.371C104.21,79.37 104.09,79.359 103.971,79.311C104.09,79.264 104.21,79.253 104.33,79.251C104.449,79.254 104.568,79.264 104.688,79.311C104.568,79.359 104.449,79.369 104.33,79.371Z" style="fill:rgb(121,107,75);fill-rule:nonzero;"/>
        </g>
        <g transform="matrix(4.16667,0,0,4.16667,0,0)">
            <path d="M105.047,73.448C105.201,73.445 105.354,73.441 105.504,73.417C105.653,73.398 105.801,73.365 105.94,73.312C106.221,73.209 106.469,73.032 106.637,72.79C106.809,72.55 106.902,72.26 106.948,71.964C106.994,71.666 106.987,71.36 106.962,71.055C107,71.204 107.023,71.356 107.039,71.51C107.052,71.664 107.053,71.82 107.039,71.975C107.014,72.285 106.918,72.598 106.733,72.859C106.55,73.12 106.272,73.312 105.97,73.399C105.818,73.444 105.664,73.468 105.509,73.476C105.354,73.48 105.199,73.473 105.047,73.448Z" style="fill:rgb(121,107,75);fill-rule:nonzero;"/>
        </g>
        <g transform="matrix(4.16667,0,0,4.16667,0,0)">
            <path d="M107.438,88.952C107.303,88.832 107.193,88.67 107.169,88.489C107.281,88.63 107.391,88.752 107.518,88.863C107.642,88.976 107.778,89.071 107.922,89.181C107.742,89.159 107.574,89.072 107.438,88.952Z" style="fill:rgb(121,107,75);fill-rule:nonzero;"/>
        </g>
        <g transform="matrix(4.16667,0,0,4.16667,0,0)">
            <path d="M108.066,77.211C108.021,77.358 107.963,77.503 107.893,77.642C107.752,77.919 107.547,78.174 107.277,78.347C107.01,78.52 106.68,78.595 106.367,78.562C106.21,78.547 106.058,78.511 105.91,78.46C105.766,78.406 105.625,78.341 105.493,78.261C105.637,78.317 105.779,78.371 105.928,78.404C106.074,78.442 106.224,78.466 106.372,78.47C106.67,78.48 106.967,78.408 107.213,78.247C107.463,78.089 107.658,77.855 107.813,77.598C107.965,77.339 108.074,77.053 108.165,76.76C108.145,76.912 108.109,77.062 108.066,77.211Z" style="fill:rgb(121,107,75);fill-rule:nonzero;"/>
        </g>
        <g transform="matrix(4.16667,0,0,4.16667,0,0)">
            <path d="M108.953,90.263C108.936,90.314 108.924,90.373 108.877,90.44C108.83,90.376 108.818,90.304 108.838,90.229C108.86,90.157 108.917,90.093 108.996,90.081C108.984,90.161 108.967,90.21 108.953,90.263Z" style="fill:rgb(121,107,75);fill-rule:nonzero;"/>
        </g>
        <g transform="matrix(4.16667,0,0,4.16667,0,0)">
            <path d="M108.756,75.295C108.566,74.977 108.34,74.684 108.084,74.404C108.402,74.612 108.66,74.908 108.858,75.234C109.054,75.561 109.193,75.923 109.256,76.297C109.103,75.951 108.948,75.613 108.756,75.295Z" style="fill:rgb(121,107,75);fill-rule:nonzero;"/>
        </g>
        <g transform="matrix(4.16667,0,0,4.16667,0,0)">
            <path d="M109.524,70.814C109.401,70.924 109.26,71.011 109.108,71.071C108.955,71.127 108.797,71.163 108.637,71.174C108.947,71.103 109.245,70.97 109.461,70.748C109.68,70.528 109.816,70.241 109.902,69.942C109.99,69.642 110.033,69.328 110.072,69.013C110.111,68.697 110.137,68.378 110.193,68.063L110.184,68.542C110.179,68.702 110.173,68.861 110.164,69.021C110.146,69.341 110.105,69.662 110.017,69.976C109.926,70.286 109.774,70.594 109.524,70.814Z" style="fill:rgb(121,107,75);fill-rule:nonzero;"/>
        </g>
        <g transform="matrix(4.16667,0,0,4.16667,0,0)">
            <path d="M110.149,77.579C109.986,77.574 109.826,77.547 109.674,77.498C109.988,77.548 110.314,77.537 110.598,77.412C110.882,77.29 111.116,77.075 111.308,76.829C111.502,76.584 111.66,76.309 111.814,76.032C111.969,75.754 112.111,75.468 112.281,75.197L112.094,75.637C112.029,75.783 111.964,75.929 111.896,76.074C111.76,76.363 111.602,76.646 111.401,76.903C111.201,77.157 110.945,77.387 110.631,77.498C110.476,77.553 110.312,77.58 110.149,77.579Z" style="fill:rgb(121,107,75);fill-rule:nonzero;"/>
        </g>
        <g transform="matrix(4.16667,0,0,4.16667,0,0)">
            <path d="M111.39,82.662C111.215,82.709 111.027,82.691 110.855,82.632C110.686,82.57 110.523,82.461 110.433,82.303C110.589,82.392 110.736,82.463 110.896,82.519C111.053,82.577 111.216,82.615 111.39,82.662Z" style="fill:rgb(121,107,75);fill-rule:nonzero;"/>
        </g>
        <g transform="matrix(4.16667,0,0,4.16667,0,0)">
            <path d="M110.994,93.713C110.959,93.697 110.926,93.672 110.906,93.613C110.961,93.584 111.002,93.589 111.039,93.603C111.076,93.619 111.108,93.644 111.128,93.703C111.073,93.731 111.032,93.726 110.994,93.713Z" style="fill:rgb(121,107,75);fill-rule:nonzero;"/>
        </g>
        <g transform="matrix(4.16667,0,0,4.16667,0,0)">
            <path d="M111.043,92.638C110.967,92.644 110.889,92.641 110.81,92.626C110.731,92.609 110.653,92.58 110.588,92.532C110.521,92.486 110.468,92.425 110.433,92.355C110.503,92.39 110.567,92.424 110.633,92.45C110.699,92.476 110.765,92.496 110.833,92.509C110.971,92.539 111.12,92.546 111.27,92.594C111.195,92.619 111.12,92.632 111.043,92.638Z" style="fill:rgb(121,107,75);fill-rule:nonzero;"/>
        </g>
        <g transform="matrix(4.16667,0,0,4.16667,0,0)">
            <path d="M115.322,90.595C115.116,90.59 114.91,90.573 114.706,90.547C114.297,90.495 113.895,90.397 113.502,90.274C113.109,90.15 112.726,90.001 112.354,89.827C111.98,89.653 111.617,89.461 111.27,89.244C111.641,89.417 112.013,89.588 112.39,89.743C112.768,89.896 113.149,90.04 113.538,90.161C113.926,90.284 114.32,90.383 114.721,90.457C114.92,90.493 115.122,90.52 115.325,90.537C115.527,90.557 115.732,90.562 115.938,90.56C115.734,90.589 115.527,90.596 115.322,90.595Z" style="fill:rgb(121,107,75);fill-rule:nonzero;"/>
        </g>
        <g transform="matrix(4.16667,0,0,4.16667,0,0)">
            <path d="M115.938,85.713C115.896,85.711 115.857,85.701 115.817,85.654C115.857,85.606 115.896,85.596 115.938,85.594C115.977,85.596 116.017,85.606 116.057,85.654C116.017,85.701 115.977,85.711 115.938,85.713Z" style="fill:rgb(121,107,75);fill-rule:nonzero;"/>
        </g>
        <g transform="matrix(4.16667,0,0,4.16667,0,0)">
            <path d="M116.438,66.906C116.557,67.044 116.678,67.181 116.774,67.345C116.611,67.248 116.473,67.124 116.348,66.985C116.227,66.844 116.119,66.687 116.057,66.508C116.198,66.634 116.316,66.77 116.438,66.906Z" style="fill:rgb(121,107,75);fill-rule:nonzero;"/>
        </g>
        <g transform="matrix(4.16667,0,0,4.16667,0,0)">
            <path d="M117.408,71.011C117.419,71.04 117.43,71.07 117.441,71.1C117.244,71.238 117.053,71.382 116.864,71.533C116.66,71.691 116.464,71.86 116.271,72.033C116.615,71.657 117.003,71.322 117.408,71.011Z" style="fill:rgb(121,107,75);fill-rule:nonzero;"/>
        </g>
        <g transform="matrix(4.16667,0,0,4.16667,0,0)">
            <path d="M96.022,55.272C83.288,55.272 72.928,65.632 72.928,78.367C72.928,91.101 83.288,101.46 96.022,101.46C108.757,101.46 119.116,91.101 119.116,78.367C119.116,65.632 108.757,55.272 96.022,55.272ZM96.022,101.579C83.222,101.579 72.808,91.166 72.808,78.367C72.808,65.566 83.222,55.153 96.022,55.153C108.822,55.153 119.236,65.566 119.236,78.367C119.236,91.166 108.822,101.579 96.022,101.579Z" style="fill:rgb(72,57,21);fill-rule:nonzero;"/>
        </g>
        <g transform="matrix(4.16667,0,0,4.16667,0,0)">
            <path d="M96.022,57.472C84.501,57.472 75.127,66.845 75.127,78.367C75.127,89.888 84.501,99.261 96.022,99.261C107.544,99.261 116.917,89.888 116.917,78.367C116.917,66.845 107.544,57.472 96.022,57.472ZM96.022,99.381C84.435,99.381 75.007,89.954 75.007,78.367C75.007,66.779 84.435,57.353 96.022,57.353C107.609,57.353 117.037,66.779 117.037,78.367C117.037,89.954 107.609,99.381 96.022,99.381Z" style="fill:rgb(72,57,21);fill-rule:nonzero;"/>
        </g>
        <g transform="matrix(4.16667,0,0,4.16667,0,0)">
            <path d="M96.022,56.649C84.047,56.649 74.304,66.391 74.304,78.367C74.304,90.342 84.047,100.083 96.022,100.083C107.998,100.083 117.74,90.342 117.74,78.367C117.74,66.391 107.998,56.649 96.022,56.649ZM96.022,100.802C83.651,100.802 73.586,90.738 73.586,78.367C73.586,65.995 83.651,55.931 96.022,55.931C108.394,55.931 118.458,65.995 118.458,78.367C118.458,90.738 108.394,100.802 96.022,100.802Z" style="fill:rgb(72,57,21);fill-rule:nonzero;"/>
        </g>
        <g transform="matrix(4.16667,0,0,4.16667,0,0)">
            <path d="M119.625,88.395C116.471,89.545 109.132,87.824 105.735,88.395C102.854,88.88 95.803,92.187 95.803,92.187C95.803,92.187 87.49,88.881 84.734,88.395C81.437,87.814 74.226,89.62 71.223,88.395C68.933,87.461 65.24,81.751 65.24,81.751C65.24,81.751 68.998,76.336 71.223,75.457C74.246,74.263 81.437,76.038 84.734,75.457C87.49,74.971 95.803,71.665 95.803,71.665C95.803,71.665 102.854,74.973 105.735,75.457C109.132,76.028 116.451,74.34 119.625,75.457C122.071,76.318 126.805,81.751 126.805,81.751C126.805,81.751 122.133,87.481 119.625,88.395Z" style="fill:rgb(242,214,132);fill-rule:nonzero;"/>
        </g>
        <g transform="matrix(4.16667,0,0,4.16667,0,0)">
            <path d="M95.769,91.016C93.999,90.321 87.416,87.774 84.92,87.334C84.405,87.244 83.799,87.2 83.067,87.2C81.789,87.2 80.335,87.332 78.795,87.473C77.272,87.611 75.697,87.754 74.342,87.754C73.122,87.754 72.21,87.635 71.63,87.398C70.321,86.864 67.981,83.885 66.546,81.772C68.004,79.769 70.352,76.959 71.619,76.458C72.203,76.228 73.115,76.111 74.33,76.111C75.682,76.111 77.253,76.251 78.772,76.387C80.309,76.524 81.761,76.654 83.04,76.654C83.783,76.654 84.398,76.609 84.92,76.518C87.416,76.078 93.999,73.531 95.769,72.836C97.363,73.569 102.951,76.081 105.557,76.519C106.104,76.611 106.75,76.655 107.533,76.655C108.846,76.655 110.328,76.533 111.899,76.404C113.451,76.275 115.057,76.143 116.447,76.143C117.713,76.143 118.636,76.25 119.268,76.473C120.685,76.971 123.536,79.748 125.382,81.774C123.558,83.91 120.709,86.853 119.256,87.384C118.637,87.609 117.686,87.724 116.43,87.724C115.037,87.724 113.427,87.588 111.869,87.457C110.297,87.324 108.811,87.199 107.5,87.199C106.731,87.199 106.096,87.243 105.557,87.333C102.951,87.771 97.363,90.283 95.769,91.016Z" style="fill:rgb(70,128,127);fill-rule:nonzero;"/>
        </g>
        <g transform="matrix(4.16667,0,0,4.16667,0,0)">
            <path d="M83.067,86.541C83.837,86.541 84.481,86.589 85.035,86.686C87.435,87.109 93.308,89.348 95.749,90.301C97.841,89.347 102.922,87.109 105.447,86.684C106.022,86.587 106.694,86.54 107.5,86.54C108.84,86.54 110.338,86.667 111.925,86.801C113.468,86.931 115.064,87.066 116.43,87.066C117.898,87.066 118.654,86.902 119.03,86.765C120.162,86.353 122.586,83.975 124.5,81.788C122.573,79.724 120.15,77.481 119.049,77.094C118.496,76.899 117.621,76.801 116.447,76.801C115.086,76.801 113.496,76.932 111.958,77.059C110.369,77.19 108.872,77.314 107.533,77.314C106.713,77.314 106.031,77.266 105.447,77.168C102.922,76.744 97.841,74.506 95.749,73.551C93.307,74.505 87.433,76.743 85.035,77.165C84.475,77.264 83.823,77.312 83.04,77.312C81.731,77.312 80.265,77.181 78.713,77.042C77.206,76.908 75.652,76.769 74.33,76.769C72.92,76.769 72.209,76.933 71.861,77.071C70.896,77.452 68.854,79.774 67.355,81.785C68.839,83.916 70.879,86.381 71.878,86.789C72.223,86.929 72.929,87.096 74.34,87.096C75.671,87.096 77.229,86.954 78.736,86.817C80.291,86.675 81.759,86.541 83.067,86.541ZM95.752,90.431L95.729,90.422C93.306,89.475 87.411,87.227 85.014,86.804C84.467,86.708 83.831,86.661 83.067,86.661C81.765,86.661 80.299,86.795 78.748,86.936C77.237,87.074 75.676,87.216 74.342,87.216C72.91,87.216 72.188,87.044 71.834,86.899C70.806,86.48 68.728,83.972 67.231,81.818L67.207,81.783L67.232,81.748C68.745,79.717 70.824,77.352 71.817,76.959C72.175,76.818 72.901,76.649 74.33,76.649C75.658,76.649 77.214,76.789 78.72,76.923C80.273,77.062 81.736,77.193 83.04,77.193C83.815,77.193 84.461,77.145 85.014,77.048C87.41,76.626 93.305,74.378 95.729,73.431L95.752,73.421L95.775,73.432C97.849,74.378 102.946,76.626 105.467,77.05C106.044,77.147 106.72,77.194 107.533,77.194C108.867,77.194 110.361,77.071 111.943,76.94C113.488,76.813 115.08,76.681 116.447,76.681C117.635,76.681 118.523,76.782 119.088,76.981C120.293,77.405 122.823,79.813 124.624,81.746L124.66,81.786L124.625,81.826C122.837,83.874 120.31,86.426 119.071,86.877C118.686,87.018 117.915,87.185 116.43,87.185C115.06,87.185 113.461,87.05 111.914,86.92C110.33,86.787 108.834,86.66 107.5,86.66C106.701,86.66 106.036,86.707 105.467,86.802C102.947,87.226 97.849,89.474 95.775,90.42L95.752,90.431Z" style="fill:white;fill-rule:nonzero;"/>
        </g>
        <g transform="matrix(4.16667,0,0,4.16667,0,0)">
            <path d="M72.714,84.066C72.661,83.708 72.547,83.53 72.371,83.53C72.234,83.53 72.113,83.617 72.006,83.791C72.104,84.024 72.261,84.141 72.478,84.141C72.552,84.141 72.63,84.116 72.714,84.066ZM71.913,83.362C72.08,83.123 72.265,83.004 72.467,83.004C72.684,83.004 72.869,83.148 73.021,83.436C73.121,83.032 73.171,82.531 73.171,81.935C73.171,81.141 73.124,80.6 73.03,80.31C72.936,80.02 72.759,79.875 72.499,79.875C72.242,79.875 72.064,80.023 71.966,80.319C71.869,80.615 71.82,81.153 71.82,81.935C71.82,82.574 71.851,83.049 71.913,83.362ZM74.24,84.281L74.62,84.42C74.627,84.508 74.63,84.573 74.63,84.613C74.63,85.207 74.35,85.503 73.79,85.503C73.239,85.503 72.902,85.176 72.778,84.52C72.688,84.527 72.601,84.531 72.517,84.531C71.061,84.531 70.333,83.687 70.333,81.999C70.333,80.324 71.058,79.486 72.51,79.486C73.942,79.486 74.659,80.343 74.659,82.057C74.659,83.184 74.289,83.935 73.55,84.309C73.665,84.61 73.804,84.76 73.969,84.76C74.171,84.76 74.265,84.631 74.252,84.373C74.252,84.352 74.248,84.321 74.24,84.281Z" style="fill:rgb(245,224,165);fill-rule:nonzero;"/>
        </g>
        <g transform="matrix(4.16667,0,0,4.16667,0,0)">
            <path d="M78.957,79.558L78.957,82.832C78.957,83.955 78.335,84.517 77.094,84.517C75.856,84.517 75.238,83.955 75.238,82.832L75.238,79.558L76.654,79.558L76.654,82.875C76.654,83.305 76.715,83.598 76.838,83.755C76.96,83.912 77.188,83.991 77.519,83.991C78.161,83.991 78.481,83.605 78.481,82.832L78.481,79.558L78.957,79.558Z" style="fill:rgb(245,224,165);fill-rule:nonzero;"/>
        </g>
        <g transform="matrix(4.16667,0,0,4.16667,0,0)">
            <path d="M80.258,82.89L81.456,82.89L80.88,80.727L80.258,82.89ZM81.942,79.558L83.301,84.438L81.877,84.438L81.588,83.379L80.119,83.379L79.807,84.438L79.253,84.438L80.698,79.558L81.942,79.558Z" style="fill:rgb(245,224,165);fill-rule:nonzero;"/>
        </g>
        <g transform="matrix(4.16667,0,0,4.16667,0,0)">
            <path d="M85.099,79.558L85.099,83.948L87.105,83.948L87.105,84.438L83.683,84.438L83.683,79.558L85.099,79.558Z" style="fill:rgb(245,224,165);fill-rule:nonzero;"/>
        </g>
        <g transform="matrix(4.16667,0,0,4.16667,0,0)">
            <rect x="87.409" y="79.558" width="1.416" height="4.88" style="fill:rgb(245,224,165);"/>
        </g>
        <g transform="matrix(4.16667,0,0,4.16667,0,0)">
            <path d="M93.098,79.558L93.098,80.047L91.9,80.047L91.9,84.438L90.398,84.438L90.398,80.047L89.193,80.047L89.193,79.558L93.098,79.558Z" style="fill:rgb(245,224,165);fill-rule:nonzero;"/>
        </g>
        <g transform="matrix(4.16667,0,0,4.16667,0,0)">
            <path d="M96.877,79.558L95.686,82.636L95.686,84.438L94.27,84.438L94.27,82.636L92.954,79.558L94.424,79.558L95.418,81.91L96.312,79.558L96.877,79.558Z" style="fill:rgb(245,224,165);fill-rule:nonzero;"/>
        </g>
        <g transform="matrix(4.16667,0,0,4.16667,0,0)">
            <path d="M101.304,81.803L103.313,81.803L103.313,84.438L102.862,84.438L102.709,84.102C102.315,84.381 101.899,84.52 101.461,84.52C100.738,84.52 100.178,84.304 99.778,83.871C99.379,83.438 99.179,82.829 99.179,82.042C99.179,81.277 99.391,80.658 99.814,80.185C100.237,79.711 100.791,79.475 101.475,79.475C102.376,79.475 102.924,79.935 103.12,80.855L102.455,81.159L102.455,81.041L102.444,80.777C102.398,80.202 102.133,79.915 101.646,79.915C101.289,79.915 101.045,80.067 100.914,80.373C100.783,80.678 100.717,81.246 100.717,82.078C100.717,82.855 100.771,83.383 100.876,83.662C100.982,83.941 101.185,84.081 101.482,84.081C101.833,84.081 102.008,83.885 102.008,83.494L102.008,82.292L101.304,82.292L101.304,81.803Z" style="fill:rgb(245,224,165);fill-rule:nonzero;"/>
        </g>
        <g transform="matrix(4.16667,0,0,4.16667,0,0)">
            <path d="M105.966,79.861C105.699,79.861 105.519,80.009 105.424,80.303C105.33,80.597 105.283,81.162 105.283,81.996C105.283,82.83 105.33,83.394 105.424,83.689C105.519,83.983 105.699,84.13 105.966,84.13C106.232,84.13 106.413,83.983 106.508,83.689C106.602,83.394 106.648,82.83 106.648,81.996C106.648,81.164 106.602,80.6 106.508,80.305C106.413,80.009 106.232,79.861 105.966,79.861ZM106.006,79.472C107.426,79.472 108.137,80.313 108.137,81.996C108.137,83.679 107.413,84.52 105.966,84.52C104.52,84.52 103.796,83.66 103.796,81.938C103.796,80.294 104.532,79.472 106.006,79.472Z" style="fill:rgb(245,224,165);fill-rule:nonzero;"/>
        </g>
        <g transform="matrix(4.16667,0,0,4.16667,0,0)">
            <path d="M110.718,79.861C110.451,79.861 110.27,80.009 110.176,80.303C110.082,80.597 110.035,81.162 110.035,81.996C110.035,82.83 110.082,83.394 110.176,83.689C110.27,83.983 110.451,84.13 110.718,84.13C110.984,84.13 111.165,83.983 111.26,83.689C111.354,83.394 111.4,82.83 111.4,81.996C111.4,81.164 111.354,80.6 111.26,80.305C111.165,80.009 110.984,79.861 110.718,79.861ZM110.757,79.472C112.178,79.472 112.889,80.313 112.889,81.996C112.889,83.679 112.164,84.52 110.718,84.52C109.271,84.52 108.547,83.66 108.547,81.938C108.547,80.294 109.284,79.472 110.757,79.472Z" style="fill:rgb(245,224,165);fill-rule:nonzero;"/>
        </g>
        <g transform="matrix(4.16667,0,0,4.16667,0,0)">
            <path d="M114.93,84.034L115.301,84.034C115.643,84.034 115.879,83.887 116.01,83.592C116.141,83.298 116.206,82.766 116.206,81.996C116.206,81.226 116.141,80.694 116.012,80.401C115.881,80.108 115.645,79.961 115.301,79.961L114.93,79.961L114.93,84.034ZM113.514,84.438L113.514,79.558L115.537,79.558C116.975,79.558 117.693,80.373 117.693,82.003C117.693,83.626 116.948,84.438 115.459,84.438L113.514,84.438Z" style="fill:rgb(245,224,165);fill-rule:nonzero;"/>
        </g>
        <g transform="matrix(4.16667,0,0,4.16667,0,0)">
            <path d="M121.508,80.923L120.851,81.044C120.879,80.914 120.894,80.804 120.894,80.716C120.894,80.148 120.549,79.865 119.859,79.865C119.316,79.865 119.045,80.061 119.045,80.451C119.045,80.745 119.349,80.996 119.957,81.206C121.129,81.609 121.716,82.205 121.716,82.994C121.716,83.456 121.551,83.827 121.223,84.107C120.894,84.387 120.456,84.527 119.91,84.527C118.701,84.527 118.098,84.059 118.098,83.122C118.098,83.046 118.104,82.952 118.115,82.839L118.798,82.689C118.746,82.897 118.72,83.077 118.72,83.229C118.72,83.835 119.066,84.138 119.76,84.138C120.315,84.138 120.593,83.919 120.593,83.483C120.593,83.159 120.26,82.874 119.596,82.628C118.635,82.276 118.154,81.712 118.154,80.937C118.154,80.499 118.314,80.145 118.635,79.877C118.956,79.609 119.377,79.475 119.899,79.475C120.973,79.475 121.508,79.958 121.508,80.923Z" style="fill:rgb(245,224,165);fill-rule:nonzero;"/>
        </g>
        <g transform="matrix(4.16667,0,0,4.16667,0,0)">
            <path d="M92.736,61.476C92.526,61.695 92.212,61.811 91.906,61.78C91.602,61.749 91.307,61.578 91.149,61.306C90.992,61.036 91.011,60.675 91.195,60.42C91.283,60.292 91.414,60.187 91.566,60.142C91.717,60.095 91.884,60.103 92.03,60.165C92.175,60.228 92.301,60.341 92.362,60.492C92.421,60.64 92.412,60.814 92.335,60.954C92.297,61.024 92.245,61.087 92.179,61.132C92.112,61.178 92.034,61.206 91.953,61.209C91.793,61.219 91.628,61.135 91.553,60.989C91.478,60.844 91.522,60.651 91.652,60.555C91.784,60.452 91.997,60.498 92.066,60.65C92.1,60.724 92.089,60.815 92.039,60.878C91.993,60.944 91.899,60.971 91.826,60.939C91.79,60.924 91.757,60.898 91.74,60.862C91.723,60.827 91.721,60.784 91.736,60.748C91.751,60.711 91.78,60.682 91.818,60.673C91.856,60.662 91.897,60.676 91.923,60.703C91.896,60.677 91.855,60.665 91.819,60.676C91.783,60.686 91.755,60.716 91.743,60.75C91.714,60.822 91.761,60.903 91.831,60.926C91.9,60.952 91.981,60.925 92.021,60.865C92.064,60.807 92.071,60.726 92.04,60.662C92.011,60.599 91.943,60.553 91.876,60.54C91.806,60.524 91.731,60.542 91.676,60.584C91.561,60.672 91.527,60.843 91.594,60.968C91.661,61.093 91.809,61.168 91.95,61.158C92.094,61.152 92.221,61.056 92.288,60.929C92.356,60.802 92.362,60.645 92.309,60.513C92.255,60.381 92.139,60.277 92.006,60.221C91.874,60.163 91.721,60.155 91.583,60.196C91.442,60.237 91.324,60.332 91.239,60.451C91.065,60.688 91.047,61.026 91.189,61.284C91.332,61.542 91.615,61.716 91.909,61.751C92.206,61.791 92.52,61.688 92.736,61.476Z" style="fill:rgb(253,226,131);fill-rule:nonzero;"/>
        </g>
        <g transform="matrix(4.16667,0,0,4.16667,0,0)">
            <path d="M93.954,64.369C93.748,64.579 93.492,64.743 93.214,64.843C92.935,64.942 92.633,64.98 92.337,64.949C92.042,64.917 91.753,64.818 91.501,64.659C91.25,64.501 91.027,64.29 90.882,64.027C90.736,63.766 90.666,63.463 90.682,63.165C90.697,62.866 90.798,62.571 90.972,62.327C91.143,62.082 91.39,61.882 91.681,61.796C91.969,61.707 92.289,61.723 92.566,61.842C92.842,61.961 93.085,62.178 93.198,62.462C93.312,62.744 93.293,63.074 93.148,63.34C93.075,63.473 92.978,63.591 92.852,63.678C92.726,63.765 92.577,63.815 92.425,63.823C92.124,63.841 91.812,63.683 91.67,63.41C91.601,63.274 91.581,63.114 91.615,62.966C91.647,62.818 91.732,62.681 91.853,62.589C91.976,62.498 92.137,62.462 92.286,62.496C92.434,62.53 92.571,62.624 92.635,62.766C92.699,62.905 92.68,63.078 92.586,63.198C92.542,63.258 92.477,63.306 92.404,63.328C92.331,63.349 92.252,63.346 92.182,63.317C92.112,63.289 92.05,63.239 92.017,63.171C91.983,63.103 91.98,63.022 92.007,62.953C92.035,62.883 92.092,62.823 92.165,62.806C92.238,62.786 92.318,62.809 92.37,62.862C92.317,62.81 92.237,62.789 92.166,62.809C92.094,62.828 92.039,62.887 92.015,62.955C91.989,63.023 91.993,63.102 92.026,63.165C92.059,63.23 92.121,63.278 92.187,63.304C92.323,63.358 92.487,63.305 92.568,63.185C92.655,63.069 92.67,62.906 92.608,62.778C92.549,62.649 92.417,62.558 92.279,62.528C92.14,62.496 91.987,62.531 91.875,62.617C91.76,62.704 91.681,62.834 91.651,62.974C91.62,63.114 91.64,63.264 91.706,63.392C91.838,63.647 92.138,63.798 92.423,63.779C92.566,63.77 92.707,63.721 92.824,63.639C92.941,63.558 93.036,63.442 93.104,63.316C93.241,63.062 93.256,62.748 93.147,62.482C93.039,62.215 92.807,62.01 92.543,61.897C92.279,61.782 91.973,61.765 91.697,61.848C91.418,61.929 91.18,62.118 91.013,62.355C90.843,62.591 90.743,62.876 90.727,63.167C90.71,63.457 90.775,63.752 90.917,64.008C91.056,64.264 91.273,64.474 91.52,64.63C91.767,64.787 92.049,64.886 92.34,64.919C92.631,64.956 92.93,64.923 93.209,64.83C93.487,64.734 93.744,64.576 93.954,64.369Z" style="fill:rgb(253,226,131);fill-rule:nonzero;"/>
        </g>
        <g transform="matrix(4.16667,0,0,4.16667,0,0)">
            <path d="M90.063,60.655C90.363,60.61 90.683,60.71 90.906,60.922C91.127,61.133 91.256,61.45 91.214,61.76C91.174,62.07 90.938,62.344 90.636,62.433C90.488,62.48 90.321,62.483 90.173,62.426C90.025,62.371 89.897,62.262 89.82,62.123C89.744,61.985 89.713,61.818 89.757,61.662C89.801,61.508 89.915,61.376 90.061,61.312C90.133,61.28 90.214,61.264 90.294,61.267C90.375,61.272 90.454,61.298 90.52,61.345C90.652,61.435 90.731,61.602 90.701,61.764C90.672,61.924 90.519,62.05 90.357,62.046C90.19,62.047 90.05,61.88 90.088,61.718C90.107,61.639 90.171,61.574 90.249,61.555C90.325,61.531 90.417,61.566 90.455,61.636C90.474,61.67 90.484,61.71 90.476,61.75C90.467,61.789 90.443,61.823 90.409,61.842C90.376,61.862 90.334,61.868 90.298,61.852C90.262,61.837 90.238,61.801 90.233,61.764C90.239,61.801 90.264,61.835 90.299,61.848C90.334,61.862 90.375,61.856 90.405,61.836C90.472,61.797 90.484,61.704 90.442,61.644C90.404,61.581 90.324,61.552 90.255,61.576C90.185,61.595 90.131,61.656 90.117,61.725C90.101,61.792 90.126,61.87 90.171,61.922C90.217,61.977 90.288,62.008 90.356,62.009C90.502,62.01 90.633,61.895 90.656,61.755C90.679,61.616 90.607,61.466 90.49,61.387C90.373,61.304 90.214,61.301 90.084,61.362C89.952,61.42 89.85,61.54 89.813,61.678C89.773,61.816 89.803,61.968 89.873,62.094C89.941,62.221 90.058,62.321 90.193,62.373C90.329,62.426 90.48,62.424 90.62,62.381C90.903,62.3 91.124,62.044 91.169,61.753C91.214,61.461 91.097,61.151 90.886,60.943C90.676,60.73 90.364,60.62 90.063,60.655Z" style="fill:rgb(253,226,131);fill-rule:nonzero;"/>
        </g>
        <g transform="matrix(4.16667,0,0,4.16667,0,0)">
            <path d="M95.867,58.127C95.873,58.532 95.789,58.937 95.632,59.312C95.473,59.687 95.245,60.03 94.977,60.335C94.439,60.946 93.753,61.412 93.026,61.77C92.294,62.123 91.514,62.368 90.719,62.528C90.322,62.607 89.92,62.665 89.517,62.703C89.113,62.738 88.709,62.752 88.304,62.748C88.709,62.743 89.113,62.718 89.514,62.674C89.917,62.632 90.316,62.571 90.711,62.489C91.502,62.323 92.276,62.072 93.001,61.717C93.725,61.367 94.408,60.91 94.947,60.309C95.216,60.008 95.444,59.67 95.605,59.301C95.77,58.933 95.863,58.532 95.867,58.127Z" style="fill:rgb(253,226,131);fill-rule:nonzero;"/>
        </g>
        <g transform="matrix(4.16667,0,0,4.16667,0,0)">
            <path d="M90.962,63.005C90.958,62.652 91.028,62.298 91.163,61.97C91.299,61.642 91.496,61.341 91.728,61.072C92.193,60.534 92.792,60.125 93.425,59.811C94.063,59.5 94.742,59.281 95.436,59.141C96.13,59.002 96.839,58.942 97.544,58.953C96.839,58.964 96.135,59.04 95.445,59.186C94.757,59.334 94.082,59.552 93.451,59.864C92.821,60.172 92.23,60.577 91.762,61.102C91.296,61.622 90.969,62.294 90.962,63.005Z" style="fill:rgb(253,226,131);fill-rule:nonzero;"/>
        </g>
        <g transform="matrix(4.16667,0,0,4.16667,0,0)">
            <path d="M99.307,61.476C99.524,61.688 99.838,61.791 100.134,61.751C100.429,61.716 100.712,61.542 100.854,61.284C100.997,61.026 100.979,60.688 100.805,60.451C100.72,60.332 100.602,60.237 100.462,60.196C100.323,60.155 100.17,60.163 100.038,60.221C99.905,60.277 99.789,60.381 99.735,60.513C99.681,60.645 99.689,60.802 99.756,60.929C99.823,61.056 99.949,61.152 100.094,61.158C100.234,61.168 100.383,61.093 100.45,60.968C100.517,60.843 100.483,60.672 100.368,60.584C100.313,60.542 100.238,60.524 100.168,60.54C100.1,60.553 100.034,60.599 100.004,60.662C99.973,60.726 99.98,60.807 100.023,60.865C100.063,60.925 100.144,60.952 100.213,60.926C100.283,60.903 100.33,60.822 100.301,60.75C100.289,60.716 100.26,60.686 100.224,60.676C100.189,60.665 100.148,60.677 100.12,60.703C100.147,60.676 100.188,60.662 100.225,60.673C100.263,60.682 100.294,60.711 100.308,60.748C100.323,60.784 100.322,60.827 100.304,60.862C100.287,60.898 100.255,60.924 100.218,60.939C100.145,60.971 100.051,60.944 100.005,60.878C99.955,60.815 99.944,60.724 99.977,60.65C100.046,60.498 100.26,60.452 100.392,60.555C100.522,60.651 100.566,60.844 100.491,60.989C100.416,61.135 100.251,61.219 100.091,61.209C100.01,61.206 99.931,61.178 99.865,61.132C99.799,61.087 99.746,61.024 99.708,60.954C99.632,60.814 99.623,60.64 99.682,60.492C99.743,60.341 99.869,60.228 100.014,60.165C100.16,60.103 100.327,60.095 100.478,60.142C100.631,60.187 100.761,60.292 100.85,60.42C101.033,60.675 101.053,61.036 100.895,61.306C100.737,61.578 100.442,61.749 100.138,61.78C99.831,61.811 99.517,61.695 99.307,61.476Z" style="fill:rgb(253,226,131);fill-rule:nonzero;"/>
        </g>
        <g transform="matrix(4.16667,0,0,4.16667,0,0)">
            <path d="M98.089,64.369C98.3,64.576 98.556,64.734 98.835,64.83C99.113,64.923 99.412,64.956 99.703,64.919C99.994,64.886 100.277,64.787 100.524,64.63C100.771,64.474 100.988,64.265 101.127,64.008C101.269,63.753 101.334,63.457 101.316,63.167C101.301,62.876 101.201,62.591 101.031,62.355C100.864,62.118 100.626,61.929 100.347,61.848C100.071,61.765 99.765,61.782 99.501,61.897C99.237,62.01 99.005,62.215 98.897,62.482C98.788,62.748 98.803,63.062 98.939,63.316C99.007,63.442 99.103,63.558 99.219,63.639C99.337,63.721 99.477,63.77 99.621,63.779C99.906,63.798 100.206,63.647 100.338,63.392C100.404,63.264 100.423,63.114 100.393,62.974C100.363,62.834 100.284,62.704 100.169,62.617C100.057,62.531 99.904,62.496 99.764,62.528C99.627,62.558 99.494,62.649 99.436,62.778C99.374,62.906 99.388,63.069 99.475,63.184C99.556,63.305 99.72,63.358 99.856,63.304C99.923,63.278 99.985,63.23 100.018,63.165C100.051,63.102 100.056,63.023 100.03,62.955C100.005,62.887 99.949,62.828 99.877,62.809C99.807,62.789 99.726,62.81 99.673,62.862C99.726,62.809 99.806,62.786 99.878,62.806C99.952,62.823 100.01,62.883 100.037,62.953C100.064,63.022 100.061,63.103 100.028,63.171C99.993,63.239 99.931,63.289 99.862,63.317C99.792,63.346 99.712,63.349 99.639,63.328C99.566,63.306 99.502,63.258 99.458,63.198C99.364,63.078 99.344,62.905 99.409,62.766C99.473,62.624 99.61,62.53 99.757,62.496C99.906,62.462 100.069,62.498 100.191,62.589C100.313,62.681 100.397,62.818 100.43,62.966C100.462,63.114 100.443,63.274 100.375,63.41C100.233,63.683 99.92,63.841 99.618,63.823C99.466,63.815 99.317,63.765 99.192,63.678C99.066,63.591 98.969,63.473 98.896,63.34C98.751,63.074 98.732,62.744 98.846,62.462C98.96,62.178 99.202,61.961 99.477,61.842C99.755,61.723 100.075,61.707 100.363,61.796C100.654,61.882 100.902,62.082 101.072,62.327C101.246,62.571 101.347,62.866 101.361,63.165C101.377,63.463 101.309,63.766 101.162,64.027C101.018,64.29 100.794,64.501 100.543,64.659C100.291,64.818 100.002,64.917 99.707,64.949C99.411,64.98 99.109,64.942 98.83,64.843C98.551,64.743 98.296,64.579 98.089,64.369Z" style="fill:rgb(253,226,131);fill-rule:nonzero;"/>
        </g>
        <g transform="matrix(4.16667,0,0,4.16667,0,0)">
            <path d="M101.981,60.655C101.68,60.62 101.369,60.73 101.158,60.943C100.947,61.151 100.83,61.461 100.875,61.753C100.92,62.044 101.141,62.3 101.424,62.381C101.564,62.424 101.716,62.426 101.852,62.373C101.986,62.321 102.103,62.221 102.172,62.094C102.241,61.968 102.271,61.816 102.231,61.678C102.193,61.54 102.092,61.42 101.961,61.362C101.83,61.301 101.672,61.304 101.554,61.387C101.437,61.466 101.364,61.615 101.388,61.755C101.411,61.895 101.543,62.009 101.688,62.009C101.756,62.008 101.827,61.977 101.873,61.922C101.918,61.87 101.943,61.792 101.928,61.725C101.913,61.656 101.858,61.595 101.789,61.576C101.721,61.552 101.64,61.581 101.602,61.644C101.56,61.704 101.572,61.797 101.639,61.836C101.669,61.856 101.71,61.862 101.745,61.848C101.78,61.835 101.806,61.801 101.812,61.764C101.807,61.801 101.782,61.837 101.746,61.852C101.711,61.868 101.669,61.862 101.635,61.842C101.602,61.823 101.576,61.789 101.568,61.75C101.56,61.71 101.57,61.67 101.589,61.636C101.627,61.566 101.719,61.531 101.795,61.555C101.873,61.574 101.938,61.639 101.956,61.718C101.994,61.88 101.854,62.047 101.687,62.046C101.525,62.05 101.372,61.924 101.343,61.764C101.313,61.602 101.392,61.435 101.524,61.345C101.591,61.298 101.67,61.272 101.75,61.267C101.83,61.264 101.91,61.28 101.983,61.312C102.13,61.376 102.243,61.508 102.287,61.662C102.331,61.818 102.3,61.985 102.224,62.123C102.146,62.262 102.02,62.371 101.871,62.426C101.724,62.483 101.557,62.48 101.408,62.433C101.106,62.344 100.871,62.07 100.83,61.76C100.788,61.45 100.916,61.133 101.139,60.922C101.361,60.71 101.682,60.61 101.981,60.655Z" style="fill:rgb(253,226,131);fill-rule:nonzero;"/>
        </g>
        <g transform="matrix(4.16667,0,0,4.16667,0,0)">
            <path d="M96.176,58.127C96.181,58.532 96.274,58.933 96.439,59.301C96.6,59.67 96.828,60.008 97.096,60.309C97.635,60.91 98.318,61.367 99.043,61.717C99.768,62.072 100.542,62.323 101.333,62.489C101.728,62.571 102.128,62.632 102.529,62.674C102.932,62.718 103.336,62.743 103.74,62.748C103.336,62.752 102.931,62.738 102.527,62.703C102.123,62.665 101.722,62.607 101.324,62.528C100.53,62.368 99.749,62.123 99.017,61.77C98.29,61.412 97.605,60.946 97.066,60.335C96.799,60.03 96.57,59.687 96.412,59.312C96.254,58.937 96.171,58.532 96.176,58.127Z" style="fill:rgb(253,226,131);fill-rule:nonzero;"/>
        </g>
        <g transform="matrix(4.16667,0,0,4.16667,0,0)">
            <path d="M101.082,63.005C101.075,62.294 100.748,61.622 100.282,61.102C99.814,60.577 99.223,60.172 98.592,59.864C97.962,59.552 97.286,59.334 96.598,59.186C95.909,59.04 95.205,58.964 94.499,58.953C95.205,58.942 95.914,59.002 96.608,59.141C97.301,59.281 97.981,59.5 98.618,59.811C99.252,60.125 99.85,60.534 100.317,61.072C100.548,61.341 100.745,61.642 100.881,61.97C101.016,62.298 101.086,62.652 101.082,63.005Z" style="fill:rgb(253,226,131);fill-rule:nonzero;"/>
        </g>
        <g transform="matrix(4.16667,0,0,4.16667,0,0)">
            <path d="M95.992,60.067C95.883,60.211 95.422,60.868 95.422,61.644C95.422,62.421 95.883,63.077 95.992,63.222C96.102,63.077 96.563,62.42 96.563,61.644C96.563,60.868 96.102,60.211 95.992,60.067ZM95.992,63.317L95.969,63.29C95.963,63.282 95.362,62.542 95.362,61.644C95.362,60.746 95.963,60.006 95.969,59.999L95.992,59.971L96.016,59.999C96.022,60.006 96.622,60.746 96.622,61.644C96.622,62.542 96.022,63.282 96.016,63.29L95.992,63.317Z" style="fill:rgb(253,226,131);fill-rule:nonzero;"/>
        </g>
        <g transform="matrix(4.16667,0,0,4.16667,0,0)">
            <path d="M94.263,61.642C94.188,61.744 93.959,62.09 93.959,62.496C93.959,62.901 94.188,63.248 94.263,63.35C94.337,63.248 94.566,62.901 94.566,62.496C94.566,62.09 94.337,61.744 94.263,61.642ZM94.263,63.446L94.24,63.418C94.226,63.401 93.899,63 93.899,62.496C93.899,61.992 94.226,61.59 94.24,61.573L94.263,61.545L94.286,61.573C94.299,61.59 94.626,61.992 94.626,62.496C94.626,63 94.299,63.401 94.286,63.418L94.263,63.446Z" style="fill:rgb(253,226,131);fill-rule:nonzero;"/>
        </g>
        <g transform="matrix(4.16667,0,0,4.16667,0,0)">
            <path d="M97.721,61.642C97.647,61.744 97.418,62.09 97.418,62.496C97.418,62.901 97.647,63.248 97.721,63.35C97.796,63.248 98.025,62.901 98.025,62.496C98.025,62.09 97.796,61.744 97.721,61.642ZM97.721,63.446L97.698,63.418C97.685,63.401 97.358,63 97.358,62.496C97.358,61.992 97.685,61.59 97.698,61.573L97.721,61.545L97.745,61.573C97.758,61.59 98.085,61.992 98.085,62.496C98.085,63 97.758,63.401 97.745,63.418L97.721,63.446Z" style="fill:rgb(253,226,131);fill-rule:nonzero;"/>
        </g>
        <g transform="matrix(4.16667,0,0,4.16667,0,0)">
            <path d="M89.724,65.148C90.679,64.64 91.725,64.317 92.783,64.096C93.843,63.877 94.928,63.778 96.011,63.789C97.094,63.807 98.174,63.937 99.231,64.167C99.76,64.282 100.284,64.422 100.8,64.585C101.314,64.751 101.822,64.939 102.32,65.148C101.818,64.949 101.309,64.769 100.791,64.613C100.275,64.454 99.752,64.317 99.223,64.206C98.167,63.983 97.089,63.86 96.01,63.849C94.931,63.831 93.85,63.923 92.791,64.135C92.261,64.24 91.738,64.375 91.224,64.542C90.711,64.708 90.203,64.898 89.724,65.148Z" style="fill:rgb(253,226,131);fill-rule:nonzero;"/>
        </g>
        <g transform="matrix(4.16667,0,0,4.16667,0,0)">
            <path d="M82.953,68.547L82.953,70.448L82.573,70.448C82.546,70.314 82.506,70.178 82.455,70.04C82.201,70.349 81.878,70.503 81.485,70.503C81.022,70.503 80.661,70.337 80.403,70.005C80.145,69.674 80.016,69.245 80.016,68.719C80.016,68.153 80.154,67.699 80.429,67.355C80.704,67.011 81.078,66.839 81.55,66.839C81.946,66.839 82.265,66.951 82.508,67.172C82.751,67.395 82.899,67.691 82.953,68.061L82.162,68.165C82.098,67.734 81.894,67.519 81.55,67.519C81.324,67.519 81.154,67.621 81.038,67.825C80.923,68.029 80.865,68.32 80.865,68.699C80.865,69.063 80.928,69.342 81.053,69.534C81.178,69.727 81.356,69.823 81.586,69.823C81.735,69.823 81.869,69.775 81.986,69.677C82.103,69.581 82.162,69.425 82.162,69.211L81.493,69.211L81.493,68.547L82.953,68.547Z" style="fill:rgb(245,224,165);fill-rule:nonzero;"/>
        </g>
        <g transform="matrix(4.16667,0,0,4.16667,0,0)">
            <path d="M86.411,66.894L86.411,69.107C86.411,69.465 86.371,69.731 86.289,69.905C86.207,70.08 86.057,70.223 85.837,70.335C85.618,70.447 85.337,70.503 84.995,70.503C84.653,70.503 84.381,70.453 84.179,70.352C83.976,70.251 83.825,70.108 83.724,69.922C83.624,69.737 83.573,69.465 83.573,69.107L83.573,66.894L84.477,66.894L84.477,69.107C84.477,69.298 84.493,69.439 84.525,69.529C84.557,69.62 84.621,69.691 84.717,69.744C84.814,69.797 84.932,69.823 85.073,69.823C85.229,69.823 85.356,69.797 85.454,69.745C85.552,69.693 85.618,69.624 85.649,69.538C85.682,69.452 85.698,69.309 85.698,69.107L85.698,66.894L86.411,66.894Z" style="fill:rgb(245,224,165);fill-rule:nonzero;"/>
        </g>
        <g transform="matrix(4.16667,0,0,4.16667,0,0)">
            <path d="M87.788,69.061L88.541,69.061L88.168,67.813L87.788,69.061ZM88.738,66.894L89.851,70.448L88.956,70.448L88.737,69.716L87.588,69.716L87.365,70.448L86.635,70.448L87.774,66.894L88.738,66.894Z" style="fill:rgb(245,224,165);fill-rule:nonzero;"/>
        </g>
        <g transform="matrix(4.16667,0,0,4.16667,0,0)">
            <path d="M91.072,67.527L91.072,68.433L91.583,68.433C91.749,68.433 91.87,68.421 91.946,68.398C92.021,68.374 92.088,68.322 92.147,68.242C92.207,68.161 92.236,68.068 92.236,67.964C92.236,67.865 92.207,67.777 92.147,67.699C92.088,67.621 92.024,67.572 91.955,67.554C91.885,67.536 91.755,67.527 91.564,67.527L91.072,67.527ZM91.072,69.04L91.072,70.448L90.233,70.448L90.233,66.894L91.796,66.894C92.084,66.894 92.315,66.927 92.49,66.994C92.665,67.061 92.809,67.184 92.923,67.362C93.038,67.541 93.095,67.74 93.095,67.958C93.095,68.385 92.89,68.691 92.478,68.877L93.134,70.448L92.214,70.448L91.668,69.04L91.072,69.04Z" style="fill:rgb(245,224,165);fill-rule:nonzero;"/>
        </g>
        <g transform="matrix(4.16667,0,0,4.16667,0,0)">
            <path d="M94.534,69.061L95.287,69.061L94.914,67.813L94.534,69.061ZM95.485,66.894L96.597,70.448L95.703,70.448L95.483,69.716L94.335,69.716L94.112,70.448L93.382,70.448L94.521,66.894L95.485,66.894Z" style="fill:rgb(245,224,165);fill-rule:nonzero;"/>
        </g>
        <g transform="matrix(4.16667,0,0,4.16667,0,0)">
            <path d="M99.714,66.894L99.714,70.448L99.004,70.448L97.613,68.047C97.615,68.108 97.616,68.148 97.618,68.167C97.625,68.228 97.628,68.279 97.628,68.321L97.628,70.448L96.98,70.448L96.98,66.894L97.877,66.894L99.086,68.99C99.076,68.886 99.071,68.807 99.071,68.753L99.071,66.894L99.714,66.894Z" style="fill:rgb(245,224,165);fill-rule:nonzero;"/>
        </g>
        <g transform="matrix(4.16667,0,0,4.16667,0,0)">
            <path d="M102.681,66.894L102.681,67.597L101.801,67.597L101.801,70.448L100.957,70.448L100.957,67.597L100.071,67.597L100.071,66.894L102.681,66.894Z" style="fill:rgb(245,224,165);fill-rule:nonzero;"/>
        </g>
        <g transform="matrix(4.16667,0,0,4.16667,0,0)">
            <path d="M105.576,67.571L103.883,67.571L103.883,68.3L105.214,68.3L105.214,68.969L103.883,68.969L103.883,69.745L105.576,69.745L105.576,70.448L103.037,70.448L103.037,66.894L105.576,66.894L105.576,67.571Z" style="fill:rgb(245,224,165);fill-rule:nonzero;"/>
        </g>
        <g transform="matrix(4.16667,0,0,4.16667,0,0)">
            <path d="M108.614,67.571L106.922,67.571L106.922,68.3L108.253,68.3L108.253,68.969L106.922,68.969L106.922,69.745L108.614,69.745L108.614,70.448L106.076,70.448L106.076,66.894L108.614,66.894L108.614,67.571Z" style="fill:rgb(245,224,165);fill-rule:nonzero;"/>
        </g>
        <g transform="matrix(4.16667,0,0,4.16667,0,0)">
            <path d="M109.932,67.547L109.932,69.779L110.275,69.779C110.578,69.779 110.803,69.665 110.95,69.439C111.098,69.213 111.172,68.947 111.172,68.641C111.172,68.426 111.129,68.227 111.045,68.043C110.961,67.86 110.857,67.732 110.732,67.658C110.607,67.584 110.458,67.547 110.283,67.547L109.932,67.547ZM109.114,66.894L110.199,66.894C110.642,66.894 110.971,66.955 111.188,67.078C111.404,67.2 111.599,67.394 111.771,67.658C111.942,67.923 112.028,68.257 112.028,68.662C112.028,69.17 111.878,69.595 111.578,69.936C111.278,70.278 110.864,70.448 110.337,70.448L109.114,70.448L109.114,66.894Z" style="fill:rgb(245,224,165);fill-rule:nonzero;"/>
        </g>
        <g transform="matrix(4.16667,0,0,4.16667,0,0)">
            <path d="M87.424,93.833L86.883,94.014C86.811,93.799 86.657,93.692 86.422,93.692C86.171,93.692 86.045,93.773 86.045,93.936C86.045,94.001 86.069,94.056 86.116,94.101C86.163,94.146 86.269,94.186 86.434,94.219C86.71,94.274 86.913,94.331 87.041,94.388C87.169,94.444 87.277,94.536 87.365,94.663C87.453,94.789 87.497,94.93 87.497,95.086C87.497,95.332 87.403,95.543 87.214,95.722C87.026,95.901 86.747,95.99 86.376,95.99C86.098,95.99 85.862,95.927 85.667,95.8C85.472,95.674 85.343,95.486 85.281,95.237L85.869,95.104C85.935,95.357 86.118,95.483 86.419,95.483C86.565,95.483 86.673,95.456 86.745,95.399C86.816,95.343 86.852,95.276 86.852,95.198C86.852,95.118 86.819,95.057 86.754,95.013C86.689,94.969 86.565,94.928 86.38,94.89C86.035,94.818 85.789,94.72 85.642,94.597C85.495,94.473 85.422,94.292 85.422,94.054C85.422,93.812 85.509,93.609 85.685,93.444C85.86,93.278 86.098,93.196 86.398,93.196C86.93,93.196 87.272,93.408 87.424,93.833Z" style="fill:rgb(245,224,165);fill-rule:nonzero;"/>
        </g>
        <g transform="matrix(4.16667,0,0,4.16667,0,0)">
            <rect x="87.912" y="93.237" width="0.634" height="2.711" style="fill:rgb(245,224,165);"/>
        </g>
        <g transform="matrix(4.16667,0,0,4.16667,0,0)">
            <path d="M91.175,93.237L91.175,95.948L90.633,95.948L89.572,94.117C89.574,94.164 89.575,94.194 89.576,94.208C89.582,94.255 89.585,94.294 89.585,94.326L89.585,95.948L89.09,95.948L89.09,93.237L89.774,93.237L90.696,94.836C90.689,94.757 90.685,94.696 90.685,94.655L90.685,93.237L91.175,93.237Z" style="fill:rgb(245,224,165);fill-rule:nonzero;"/>
        </g>
        <g transform="matrix(4.16667,0,0,4.16667,0,0)">
            <path d="M93.906,94.246L93.24,94.288C93.231,93.905 93.082,93.714 92.793,93.714C92.461,93.714 92.295,94.009 92.295,94.598C92.295,94.938 92.34,95.169 92.431,95.29C92.521,95.411 92.647,95.472 92.809,95.472C93.071,95.472 93.232,95.301 93.29,94.959L93.906,94.997C93.866,95.321 93.745,95.568 93.543,95.737C93.341,95.906 93.094,95.99 92.802,95.99C92.443,95.99 92.151,95.866 91.927,95.619C91.702,95.371 91.59,95.029 91.59,94.592C91.59,94.183 91.699,93.848 91.916,93.587C92.133,93.326 92.43,93.196 92.806,93.196C93.457,93.196 93.824,93.546 93.906,94.246Z" style="fill:rgb(245,224,165);fill-rule:nonzero;"/>
        </g>
        <g transform="matrix(4.16667,0,0,4.16667,0,0)">
            <path d="M96.208,93.754L94.917,93.754L94.917,94.31L95.932,94.31L95.932,94.82L94.917,94.82L94.917,95.412L96.208,95.412L96.208,95.948L94.271,95.948L94.271,93.237L96.208,93.237L96.208,93.754Z" style="fill:rgb(245,224,165);fill-rule:nonzero;"/>
        </g>
        <g transform="matrix(4.16667,0,0,4.16667,0,0)">
            <path d="M97.58,94.306L97.58,93.748C98.049,93.61 98.355,93.426 98.498,93.196L98.958,93.196L98.958,95.452L99.709,95.452L99.709,95.948L97.512,95.948L97.512,95.452L98.335,95.452L98.335,93.901C98.012,94.097 97.76,94.232 97.58,94.306Z" style="fill:rgb(245,224,165);fill-rule:nonzero;"/>
        </g>
        <g transform="matrix(4.16667,0,0,4.16667,0,0)">
            <path d="M100.871,93.646C100.753,93.646 100.656,93.688 100.58,93.772C100.504,93.857 100.466,93.952 100.466,94.06C100.466,94.168 100.502,94.264 100.574,94.346C100.646,94.428 100.743,94.469 100.863,94.469C100.983,94.469 101.082,94.426 101.159,94.342C101.236,94.257 101.274,94.162 101.274,94.056C101.274,93.948 101.236,93.853 101.16,93.77C101.084,93.688 100.988,93.646 100.871,93.646ZM100.482,95.229C100.538,95.42 100.658,95.515 100.842,95.515C100.967,95.515 101.074,95.464 101.164,95.362C101.253,95.26 101.301,95.023 101.306,94.649C101.151,94.836 100.949,94.929 100.7,94.929C100.459,94.929 100.26,94.853 100.102,94.699C99.943,94.545 99.864,94.346 99.864,94.099C99.864,93.831 99.954,93.613 100.133,93.446C100.313,93.279 100.555,93.196 100.859,93.196C101.078,93.196 101.268,93.246 101.43,93.345C101.592,93.444 101.717,93.603 101.804,93.82C101.891,94.038 101.934,94.283 101.934,94.554C101.934,94.96 101.84,95.301 101.653,95.577C101.467,95.852 101.188,95.99 100.815,95.99C100.337,95.99 100.041,95.77 99.925,95.331L100.482,95.229Z" style="fill:rgb(245,224,165);fill-rule:nonzero;"/>
        </g>
        <g transform="matrix(4.16667,0,0,4.16667,0,0)">
            <path d="M102.677,94.848L103.413,94.848L103.413,93.931C103.413,93.895 103.414,93.852 103.417,93.801L103.421,93.69L102.677,94.848ZM104.017,93.196L104.017,94.848L104.396,94.848L104.396,95.323L104.017,95.323L104.017,95.948L103.383,95.948L103.383,95.323L102.197,95.323L102.197,94.848L103.291,93.196L104.017,93.196Z" style="fill:rgb(245,224,165);fill-rule:nonzero;"/>
        </g>
        <g transform="matrix(4.16667,0,0,4.16667,0,0)">
            <path d="M106.533,93.793L105.35,93.793L105.306,94.397C105.451,94.242 105.645,94.165 105.884,94.165C106.129,94.165 106.337,94.245 106.508,94.406C106.678,94.567 106.764,94.774 106.764,95.029C106.764,95.311 106.671,95.541 106.486,95.721C106.302,95.9 106.043,95.99 105.711,95.99C105.134,95.99 104.777,95.733 104.641,95.219L105.236,95.13C105.297,95.368 105.448,95.487 105.689,95.487C105.821,95.487 105.927,95.446 106.005,95.364C106.083,95.282 106.122,95.186 106.122,95.074C106.122,94.958 106.081,94.858 105.999,94.774C105.917,94.691 105.815,94.649 105.695,94.649C105.527,94.649 105.397,94.72 105.306,94.86L104.789,94.775L104.895,93.237L106.603,93.237L106.533,93.793Z" style="fill:rgb(245,224,165);fill-rule:nonzero;"/>
        </g>
    </g>
</svg>
