<?xml version="1.0" encoding="UTF-8" standalone="no"?>
<!DOCTYPE svg PUBLIC "-//W3C//DTD SVG 1.1//EN" "http://www.w3.org/Graphics/SVG/1.1/DTD/svg11.dtd">
<svg width="100%" height="100%" viewBox="0 0 158 104" version="1.1" xmlns="http://www.w3.org/2000/svg" xmlns:xlink="http://www.w3.org/1999/xlink" xml:space="preserve" xmlns:serif="http://www.serif.com/" style="fill-rule:evenodd;clip-rule:evenodd;stroke-linejoin:round;stroke-miterlimit:1.41421;">
    <g transform="matrix(1,0,0,1,-329.454,-25.376)">
        <path d="M396.844,106.87C396.744,106.963 396.603,107.006 396.411,107.006L394.256,107.006L394.256,106.074L396.411,106.074C396.603,106.074 396.744,106.118 396.844,106.211C396.935,106.292 396.979,106.402 396.979,106.537C396.979,106.678 396.935,106.789 396.844,106.87ZM394.256,104.897L396.433,104.897C396.543,104.897 396.634,104.925 396.701,104.986C396.766,105.044 396.799,105.116 396.799,105.203C396.799,105.29 396.766,105.367 396.694,105.422C396.626,105.486 396.537,105.514 396.433,105.514L394.256,105.514L394.256,104.897ZM397.215,105.709C397.372,105.562 397.461,105.394 397.472,105.203C397.488,104.963 397.428,104.767 397.292,104.61C397.132,104.431 396.88,104.336 396.537,104.336L393.518,104.336L393.518,107.567L396.663,107.567C397.017,107.567 397.292,107.469 397.482,107.268C397.664,107.082 397.749,106.842 397.749,106.537C397.749,106.167 397.571,105.89 397.215,105.709Z" style="fill:white;fill-rule:nonzero;"/>
        <path d="M401.36,105.9C401.339,105.982 401.295,106.059 401.224,106.118C401.109,106.226 400.9,106.282 400.596,106.282L398.702,106.282L398.702,104.876L400.596,104.876C400.892,104.876 401.104,104.931 401.23,105.044C401.295,105.105 401.339,105.182 401.36,105.268C401.378,105.334 401.384,105.437 401.384,105.597C401.384,105.737 401.378,105.841 401.36,105.9ZM401.887,104.685C401.679,104.452 401.28,104.336 400.688,104.336L397.933,104.336L397.933,107.567L398.702,107.567L398.702,106.859L400.64,106.859L401.061,107.567L401.958,107.567L401.394,106.782C401.606,106.729 401.77,106.636 401.887,106.511C402.001,106.38 402.071,106.255 402.11,106.128C402.145,106.014 402.153,105.841 402.153,105.6C402.153,105.355 402.145,105.182 402.11,105.067C402.071,104.941 402.001,104.811 401.887,104.685Z" style="fill:white;fill-rule:nonzero;"/>
        <path d="M403.866,106.386L404.686,104.855L405.503,106.386L403.866,106.386ZM404.207,104.336L402.296,107.567L403.236,107.567L403.565,106.945L405.804,106.945L406.132,107.567L407.065,107.567L405.162,104.336L404.207,104.336Z" style="fill:white;fill-rule:nonzero;"/>
        <path d="M410.708,106.973L408.347,104.336L407.253,104.336L407.253,107.567L408.029,107.567L408.029,104.903L410.392,107.567L411.486,107.567L411.486,104.336L410.708,104.336L410.708,106.973Z" style="fill:white;fill-rule:nonzero;"/>
        <path d="M415.339,106.232C415.339,106.406 415.333,106.526 415.321,106.587C415.3,106.684 415.25,106.771 415.173,106.842C415.053,106.952 414.845,107.006 414.551,107.006L412.481,107.006L412.481,104.897L414.551,104.897C414.845,104.897 415.053,104.952 415.173,105.062C415.25,105.132 415.3,105.214 415.321,105.316C415.333,105.378 415.339,105.497 415.339,105.671L415.339,106.232ZM415.841,104.685C415.709,104.544 415.551,104.452 415.364,104.402C415.201,104.359 414.961,104.336 414.64,104.336L411.706,104.336L411.706,107.567L414.64,107.567C414.966,107.567 415.201,107.545 415.36,107.507C415.546,107.458 415.704,107.359 415.841,107.219C415.962,107.098 416.038,106.958 416.072,106.805C416.098,106.684 416.115,106.495 416.115,106.226L416.115,105.677C416.115,105.409 416.098,105.22 416.072,105.1C416.038,104.947 415.962,104.806 415.841,104.685Z" style="fill:white;fill-rule:nonzero;"/>
        <path d="M416.344,107.567L419.977,107.567L419.977,107.006L417.116,107.006L417.116,106.074L419.977,106.074L419.977,105.514L417.116,105.514L417.116,104.897L419.977,104.897L419.977,104.336L416.344,104.336L416.344,107.567Z" style="fill:white;fill-rule:nonzero;"/>
        <path d="M423.838,106.232C423.838,106.406 423.833,106.526 423.822,106.587C423.801,106.684 423.75,106.771 423.675,106.842C423.555,106.952 423.346,107.006 423.05,107.006L420.983,107.006L420.983,104.897L423.05,104.897C423.346,104.897 423.555,104.952 423.675,105.062C423.75,105.132 423.801,105.214 423.822,105.316C423.833,105.378 423.838,105.497 423.838,105.671L423.838,106.232ZM424.573,105.1C424.534,104.947 424.456,104.806 424.342,104.685C424.21,104.544 424.051,104.452 423.865,104.402C423.701,104.359 423.453,104.336 423.139,104.336L420.205,104.336L420.205,107.567L423.139,107.567C423.467,107.567 423.701,107.545 423.854,107.507C424.045,107.458 424.205,107.359 424.342,107.219C424.456,107.098 424.534,106.958 424.573,106.805C424.599,106.684 424.614,106.495 424.614,106.226L424.614,105.677C424.614,105.409 424.599,105.22 424.573,105.1Z" style="fill:white;fill-rule:nonzero;"/>
        <path d="M398.263,109.181C398.078,109.231 397.913,109.33 397.781,109.465C397.668,109.584 397.594,109.728 397.558,109.879C397.532,110 397.517,110.189 397.517,110.456L397.517,111.005C397.517,111.273 397.532,111.462 397.558,111.583C397.594,111.736 397.668,111.877 397.781,111.998C397.927,112.14 398.084,112.237 398.269,112.287C398.423,112.325 398.663,112.346 398.985,112.346L401.715,112.346L401.715,111.067L400.944,111.067L400.944,111.786L399.073,111.786C398.782,111.786 398.576,111.731 398.455,111.623C398.379,111.55 398.329,111.462 398.308,111.366C398.297,111.307 398.291,111.186 398.291,111.012L398.291,110.45C398.291,110.277 398.297,110.156 398.308,110.097C398.329,109.994 398.379,109.911 398.455,109.841C398.576,109.731 398.782,109.678 399.073,109.678L401.715,109.678L401.715,109.117L398.985,109.117C398.669,109.117 398.429,109.139 398.263,109.181Z" style="fill:white;fill-rule:nonzero;"/>
        <path d="M405.786,111.017C405.786,111.192 405.782,111.307 405.769,111.366C405.747,111.47 405.698,111.55 405.626,111.623C405.502,111.731 405.292,111.786 404.997,111.786L403.5,111.786C403.208,111.786 403.001,111.731 402.875,111.623C402.799,111.55 402.749,111.47 402.733,111.366C402.716,111.307 402.712,111.192 402.712,111.017L402.712,110.45C402.712,110.277 402.716,110.156 402.733,110.097C402.749,109.994 402.799,109.911 402.875,109.841C403.001,109.731 403.208,109.678 403.5,109.678L404.997,109.678C405.292,109.678 405.502,109.731 405.626,109.841C405.698,109.911 405.747,109.994 405.769,110.097C405.782,110.156 405.786,110.277 405.786,110.45L405.786,111.017ZM406.289,109.47C406.163,109.33 405.998,109.236 405.813,109.188C405.649,109.139 405.409,109.122 405.089,109.122L403.414,109.122C403.094,109.122 402.853,109.139 402.688,109.188C402.499,109.236 402.34,109.33 402.21,109.47C402.093,109.59 402.017,109.728 401.979,109.879C401.951,110 401.941,110.189 401.941,110.456L401.941,111.005C401.941,111.273 401.951,111.462 401.979,111.583C402.017,111.736 402.093,111.877 402.21,111.998C402.346,112.14 402.503,112.237 402.696,112.287C402.849,112.325 403.09,112.346 403.414,112.346L405.089,112.346C405.415,112.346 405.653,112.325 405.808,112.287C405.994,112.237 406.153,112.14 406.289,111.998C406.41,111.877 406.486,111.736 406.518,111.583C406.547,111.462 406.563,111.273 406.563,111.005L406.563,110.456C406.563,110.189 406.547,110 406.518,109.879C406.486,109.728 406.41,109.59 406.289,109.47Z" style="fill:white;fill-rule:nonzero;"/>
        <path d="M410.635,111.017C410.635,111.192 410.626,111.307 410.615,111.366C410.593,111.47 410.546,111.55 410.475,111.623C410.349,111.731 410.139,111.786 409.846,111.786L408.345,111.786C408.057,111.786 407.849,111.731 407.722,111.623C407.646,111.55 407.598,111.47 407.58,111.366C407.563,111.307 407.559,111.192 407.559,111.017L407.559,110.45C407.559,110.277 407.563,110.156 407.58,110.097C407.598,109.994 407.646,109.911 407.722,109.841C407.849,109.731 408.057,109.678 408.345,109.678L409.846,109.678C410.139,109.678 410.349,109.731 410.475,109.841C410.546,109.911 410.593,109.994 410.615,110.097C410.626,110.156 410.635,110.277 410.635,110.45L410.635,111.017ZM411.135,109.47C411.005,109.33 410.845,109.236 410.659,109.188C410.496,109.139 410.256,109.122 409.938,109.122L408.258,109.122C407.94,109.122 407.7,109.139 407.537,109.188C407.346,109.236 407.186,109.33 407.054,109.47C406.939,109.59 406.865,109.728 406.826,109.879C406.798,110 406.786,110.189 406.786,110.456L406.786,111.005C406.786,111.273 406.798,111.462 406.826,111.583C406.865,111.736 406.939,111.877 407.054,111.998C407.192,112.14 407.352,112.237 407.543,112.287C407.695,112.325 407.935,112.346 408.258,112.346L409.938,112.346C410.262,112.346 410.502,112.325 410.654,112.287C410.841,112.237 410.999,112.14 411.135,111.998C411.256,111.877 411.331,111.736 411.365,111.583C411.393,111.462 411.408,111.273 411.408,111.005L411.408,110.456C411.408,110.189 411.393,110 411.365,109.879C411.331,109.728 411.256,109.59 411.135,109.47Z" style="fill:white;fill-rule:nonzero;"/>
        <path d="M415.266,111.012C415.266,111.186 415.26,111.307 415.244,111.366C415.223,111.462 415.173,111.55 415.097,111.623C414.977,111.731 414.768,111.786 414.479,111.786L412.405,111.786L412.405,109.678L414.479,109.678C414.768,109.678 414.977,109.731 415.097,109.841C415.173,109.911 415.223,109.994 415.244,110.097C415.26,110.156 415.266,110.277 415.266,110.45L415.266,111.012ZM415.77,109.465C415.638,109.324 415.479,109.231 415.288,109.181C415.123,109.139 414.884,109.117 414.564,109.117L411.636,109.117L411.636,112.346L414.564,112.346C414.888,112.346 415.128,112.325 415.283,112.287C415.469,112.237 415.633,112.14 415.77,111.998C415.885,111.877 415.962,111.736 415.999,111.583C416.027,111.462 416.036,111.273 416.036,111.005L416.036,110.456C416.036,110.189 416.027,110 415.999,109.879C415.962,109.728 415.885,109.584 415.77,109.465Z" style="fill:white;fill-rule:nonzero;"/>
        <path d="M420.343,110.592C420.146,110.397 419.855,110.293 419.479,110.293L417.311,110.293C417.218,110.293 417.142,110.266 417.086,110.2C417.032,110.146 417.006,110.075 417.006,109.983C417.006,109.894 417.032,109.825 417.086,109.765C417.146,109.706 417.225,109.678 417.316,109.678L420.375,109.678L420.375,109.117L417.218,109.117C416.911,109.117 416.672,109.203 416.502,109.373C416.344,109.532 416.267,109.738 416.267,109.983C416.267,110.233 416.351,110.435 416.508,110.592C416.681,110.768 416.922,110.849 417.23,110.849L419.318,110.849C419.482,110.849 419.614,110.898 419.713,110.991C419.806,111.078 419.851,111.186 419.851,111.317C419.851,111.453 419.802,111.561 419.706,111.65C419.61,111.742 419.479,111.786 419.318,111.786L416.267,111.786L416.267,112.346L419.423,112.346C419.816,112.346 420.118,112.248 420.332,112.047C420.518,111.862 420.615,111.623 420.615,111.317C420.615,111.017 420.522,110.778 420.343,110.592Z" style="fill:white;fill-rule:nonzero;"/>
        <path d="M431.998,106.05L430.37,105.813L429.641,104.336L428.911,105.813L427.282,106.05L428.461,107.198L428.185,108.82L429.641,108.055L431.098,108.82L430.819,107.198L431.998,106.05Z" style="fill:rgb(249,100,100);fill-rule:nonzero;"/>
        <path d="M389.218,105.813L388.489,104.336L387.761,105.813L386.132,106.05L387.311,107.198L387.033,108.82L388.489,108.055L389.946,108.82L389.669,107.198L390.848,106.05L389.218,105.813Z" style="fill:rgb(249,100,100);fill-rule:nonzero;"/>
        <path d="M459.481,72.648C461.082,72.267 461.321,69.992 460.979,69.059C460.187,66.904 455.237,66.221 454.288,66.343C453.319,66.467 452.894,68.611 453.504,69.566C454.114,70.521 457.899,73.024 459.481,72.648Z" style="fill:rgb(5,193,198);fill-rule:nonzero;"/>
        <path d="M356.635,69.924C355.564,72.773 354.134,76.75 354.134,76.75L348.7,79.423C348.7,79.423 351.631,74.173 354.343,69.603C356.163,66.53 359.682,60.925 360.099,61.442C360.515,61.96 357.705,67.074 356.635,69.924ZM413.118,64.556C414.035,64.373 414.377,65.089 413.869,66.697C413.358,68.306 406.356,77.908 406.356,77.908C406.356,77.908 411.672,64.843 413.118,64.556ZM418.027,81.824C419.428,79.655 421.357,77.998 421.945,77.838C424.427,77.163 424.659,79.618 423.935,80.773C421.956,83.93 415.632,87.891 415.632,87.891C415.632,87.891 416.63,83.984 418.027,81.824ZM482.386,77.302C481.41,74.708 479.621,72.689 476.185,72.035C472.721,71.378 468.552,72.606 464.309,77.093C459.493,82.182 458.073,87.618 458.073,87.618C458.073,87.618 452.354,92.651 451.933,92.389C451.511,92.126 458.364,77.17 458.215,75.89C458.067,74.612 454.283,71.908 452.843,71.459C451.403,71.008 447.689,81.289 447.689,81.289C447.689,81.289 437.596,91.809 436.66,90.749C436.037,90.044 440.605,77.113 440.605,77.113C440.605,77.113 441.276,77.149 442.12,77.03C443.227,76.874 444.905,76.439 444.825,76.246C444.355,75.147 440.318,74.761 440.318,74.761C440.318,74.761 441.985,66.571 441.829,65.753C441.673,64.936 440.855,65.329 439.956,65.721C438.919,66.174 435.555,74.506 435.555,74.506C435.555,74.506 432.144,74.265 430.805,74.158C429.984,74.091 431.368,77.274 432.045,77.54C432.721,77.808 434.294,77.278 434.294,77.278L431.017,84.151C429.991,85.253 427.306,87.225 424.482,89.116C421.608,91.042 417.855,92.459 416.271,92.204C414.78,91.965 415.329,90.11 415.329,90.11C415.329,90.11 418.552,88.43 422.597,85.489C426.046,82.98 429.256,79.98 429.743,78.969C430.802,76.773 423.101,71.111 420.006,70.547C416.908,69.983 413.692,74.769 411.527,78.319C407.238,85.356 407.811,91.451 407.811,91.451C407.811,91.451 403.383,95.356 402.219,92.549C401.804,91.541 405.438,81.876 405.438,81.876C405.438,81.876 418.638,68.225 419.537,65.005C420.438,61.787 409.909,56.187 407.541,56.714C405.268,57.221 397.384,84.975 397.384,84.975C397.384,84.975 392.694,90.401 392.243,90.223C391.791,90.044 396.357,76.87 396.296,75.508C396.233,74.145 392.269,71.949 390.499,70.897C388.73,69.845 385.637,71.581 385.637,71.581C385.637,71.581 386.611,64.276 386.362,63.837C386.116,63.399 385.353,63.147 384.32,63.803C383.289,64.457 383.449,64.989 381.73,70.918C380.013,76.849 376.963,85.507 376.963,85.507C376.963,85.507 372.07,91.078 371.649,90.595C371.229,90.112 374.049,79.641 374.574,78.799C375.099,77.957 376.331,78.149 377.097,78.075C377.865,78.003 378.859,76.33 378.584,75.802C378.229,75.127 375.648,73.199 375.648,73.199C375.648,73.199 377.323,63.526 377.333,62.93C377.343,62.335 376.612,61.553 375.331,61.871C374.048,62.19 371.598,71.087 371.598,71.087C371.598,71.087 370.702,70.396 369.676,70.633C368.65,70.872 363.739,72.657 363.739,72.657C363.739,72.657 368.468,59.881 368.403,58.689C368.339,57.497 365.309,55.402 363.787,54.78C362.266,54.158 358.208,59.92 353.274,67.285C348.145,74.944 344.411,81.352 344.411,81.352L338.092,85.033C338.092,85.033 335.888,84.442 335.453,84.988C334.907,85.676 338.229,88.01 338.889,88.186C339.452,88.336 341.806,87.106 341.806,87.106C341.806,87.106 338.431,94.457 337.937,94.182C337.441,93.906 336.412,93.299 335.234,92.859C333.86,92.346 333.737,92.561 333.615,93.001C333.184,94.549 339.097,99.831 340.643,99.091C342.188,98.352 346.462,85.923 346.462,85.923L352.963,83.115C352.963,83.115 350.323,93.157 350.633,95.035C350.941,96.913 358.101,98.865 359.22,98.082C360.341,97.299 359.384,93.523 359.764,91.148C360.146,88.771 362.08,80.205 362.08,80.205C362.08,80.205 367.353,78.255 367.718,79.023C367.79,79.176 366.893,82.499 366.254,84.957C365.616,87.415 364.279,93.773 364.376,95.311C364.477,96.91 369.863,98.107 370.548,97.885C371.519,97.569 375.653,90.48 375.653,90.48C375.653,90.48 373.816,95.642 373.89,96.58C373.984,97.773 377.268,98.168 378.116,98.364C378.964,98.558 379.288,98.283 379.662,97.529C380.22,96.403 379.959,95.066 380.437,92.008C380.913,88.952 386.705,73.812 387.885,74.513C389.063,75.213 382.867,91.71 383.001,93.926C383.134,96.141 388.555,97.231 389.837,96.912C391.12,96.594 397.04,88.049 397.04,88.049C397.04,88.049 396.289,90.972 395.825,93.179C395.363,95.384 399.19,96.333 401.485,96.626C403.778,96.921 408.802,93.342 408.802,93.342C408.802,93.342 410.881,97.578 415.047,96.627C419.182,95.683 429.854,87.485 429.854,87.485C429.854,87.485 428.387,92.244 428.641,93.849C428.92,95.64 432.846,96.814 434.299,96.498C435.752,96.183 446.542,85.341 446.542,85.341C446.542,85.341 443.531,93.089 443.733,95.342C443.899,97.209 447.569,98.854 449.126,98.641C451.195,98.357 457.75,90.811 457.75,90.811C457.75,90.811 457.556,94.035 459.812,95.996C461.221,97.219 465.349,100.063 467.595,99.872C468.951,99.759 473.048,96.24 473.415,94.667C473.781,93.091 470.881,91.809 468.98,91.25C466.693,90.579 466.134,92.954 464.038,91.044C461.943,89.137 462.869,82.174 468.07,77.7C471.19,75.016 473.573,74.89 474.412,75.584C475.252,76.28 475.721,77.537 474.054,80.404C472.389,83.269 470.847,83.754 469.451,85.772C468.055,87.792 474.538,91.988 476.845,91.518C479.151,91.046 484.101,81.864 482.386,77.302Z" style="fill:rgb(5,193,198);fill-rule:nonzero;"/>
        <path d="M381.143,48.23C381.014,48.049 380.78,47.807 380.432,47.513L377.96,45.363L377.084,46.377L379.57,48.533C379.806,48.729 379.949,48.873 380.016,48.956C380.123,49.1 380.176,49.259 380.183,49.441C380.183,49.728 380.016,50.061 379.69,50.44L379.102,51.127C378.776,51.498 378.467,51.71 378.172,51.755C378.005,51.778 377.854,51.755 377.703,51.673C377.604,51.626 377.461,51.513 377.256,51.332L376.38,52.346C376.697,52.618 376.947,52.799 377.143,52.89C377.369,53.004 377.628,53.058 377.915,53.058C378.451,53.049 379.057,52.656 379.729,51.876L380.523,50.962C381.197,50.182 381.499,49.524 381.431,48.994C381.393,48.7 381.294,48.442 381.143,48.23Z" style="fill:white;fill-rule:nonzero;"/>
        <path d="M387.103,42.238L385.075,39.666L384.025,40.49L386.059,43.079C386.248,43.321 386.361,43.487 386.413,43.579C386.49,43.737 386.512,43.91 386.481,44.085C386.437,44.365 386.217,44.666 385.817,44.978L384.063,46.361C383.661,46.672 383.321,46.815 383.034,46.792C382.86,46.786 382.702,46.716 382.565,46.605C382.48,46.536 382.344,46.385 382.156,46.143L380.123,43.555L379.071,44.379L381.099,46.959C381.379,47.315 381.604,47.564 381.778,47.7C381.991,47.868 382.24,47.973 382.534,48.026C383.064,48.116 383.729,47.852 384.538,47.216L386.535,45.644C387.343,45.008 387.767,44.424 387.798,43.88C387.813,43.586 387.767,43.321 387.661,43.079C387.571,42.874 387.383,42.602 387.103,42.238Z" style="fill:white;fill-rule:nonzero;"/>
        <path d="M391.715,36.262L393.802,40.332L388.084,38.124L386.398,38.985L388.955,43.972L390.143,43.366L388.039,39.242L393.779,41.504L395.456,40.642L392.909,35.648L391.715,36.262Z" style="fill:white;fill-rule:nonzero;"/>
        <path d="M394.127,35.415L395.918,40.718L397.189,40.295L395.39,34.983L394.127,35.415Z" style="fill:white;fill-rule:nonzero;"/>
        <path d="M403.48,37.39C403.313,37.624 402.989,37.797 402.489,37.912L399.963,38.495C399.474,38.607 399.102,38.592 398.854,38.456C398.694,38.373 398.581,38.244 398.505,38.084C398.458,37.986 398.407,37.79 398.339,37.496L398.112,36.542C398.044,36.247 398.014,36.043 398.014,35.936C398.006,35.755 398.051,35.597 398.157,35.444C398.322,35.21 398.649,35.036 399.142,34.922L401.673,34.34C402.165,34.227 402.534,34.242 402.784,34.379C402.937,34.461 403.05,34.59 403.126,34.748C403.171,34.847 403.231,35.052 403.3,35.339L403.519,36.3C403.587,36.594 403.625,36.791 403.625,36.906C403.625,37.079 403.58,37.237 403.48,37.39ZM404.606,35.059C404.501,34.605 404.403,34.28 404.306,34.09C404.185,33.849 404.001,33.644 403.762,33.485C403.488,33.303 403.177,33.205 402.846,33.19C402.551,33.183 402.134,33.244 401.598,33.364L398.77,34.015C398.239,34.136 397.84,34.272 397.583,34.408C397.288,34.566 397.053,34.787 396.887,35.074C396.735,35.324 396.66,35.588 396.66,35.861C396.66,36.073 396.714,36.405 396.818,36.852L397.031,37.783C397.138,38.228 397.234,38.554 397.325,38.743C397.446,38.985 397.628,39.189 397.869,39.349C398.157,39.546 398.466,39.643 398.801,39.652C399.08,39.659 399.487,39.598 400.031,39.477L402.861,38.819C403.405,38.697 403.799,38.569 404.048,38.441C404.343,38.289 404.578,38.062 404.752,37.768C404.896,37.511 404.971,37.253 404.971,36.981C404.979,36.769 404.924,36.436 404.818,35.982L404.606,35.059Z" style="fill:white;fill-rule:nonzero;"/>
        <path d="M411.633,35.369C411.602,35.521 411.526,35.648 411.413,35.762C411.216,35.958 410.853,36.057 410.331,36.073L407.058,36.156L406.996,33.72L410.271,33.637C410.777,33.622 411.147,33.712 411.368,33.894C411.488,33.999 411.571,34.128 411.609,34.28C411.633,34.386 411.654,34.574 411.662,34.847C411.662,35.097 411.654,35.271 411.633,35.369ZM412.888,33.901C412.819,33.674 412.691,33.462 412.494,33.251C412.124,32.85 411.42,32.669 410.398,32.691L405.635,32.812L405.779,38.418L407.109,38.388L407.081,37.154L410.43,37.071L411.185,38.282L412.736,38.244L411.73,36.912C412.094,36.807 412.374,36.64 412.57,36.405C412.758,36.186 412.88,35.958 412.94,35.74C412.985,35.543 413.009,35.233 412.993,34.816C412.985,34.401 412.948,34.09 412.888,33.901Z" style="fill:white;fill-rule:nonzero;"/>
        <path d="M422.68,34.582L416.547,33.167L416.334,34.106L418.741,34.665L417.704,39.183L419.005,39.484L420.048,34.968L422.461,35.521L422.68,34.582Z" style="fill:white;fill-rule:nonzero;"/>
        <path d="M423.293,39.764L423.89,38.26L428.486,40.067L428.842,39.167L424.246,37.352L424.639,36.353L429.234,38.169L429.591,37.269L423.747,34.961L421.688,40.174L427.535,42.48L427.891,41.58L423.293,39.764Z" style="fill:white;fill-rule:nonzero;"/>
        <path d="M433.601,43.934L431.217,42.404L433.841,40.93L433.601,43.934ZM427.829,42.661L429.189,43.539L430.257,42.941L433.509,45.022L433.409,46.242L434.771,47.118L435.02,40.619L433.628,39.727L427.829,42.661Z" style="fill:white;fill-rule:nonzero;"/>
        <path d="M443.649,48.299L438.575,49.971L440.487,44.985L439.082,43.51L435.027,47.376L435.95,48.344L438.99,45.446L437.478,49.948L438.544,51.068L443.11,49.766L440.072,52.672L440.994,53.64L445.048,49.775L443.649,48.299Z" style="fill:white;fill-rule:nonzero;"/>
        <path d="M422.768,80.041C422.961,79.732 422.778,77.549 419.185,82.573C418.84,83.055 418.553,83.702 418.271,84.369C420.047,83.015 421.925,81.384 422.768,80.041Z" style="fill:rgb(249,100,100);fill-rule:nonzero;"/>
        <path d="M376.599,79.478C376.354,79.483 375.909,79.492 375.737,79.556C375.346,80.445 374.287,84.257 373.603,87.135C374.3,86.405 375.057,85.58 375.75,84.795C375.997,84.09 376.735,81.969 377.604,79.377C377.482,79.411 377.356,79.436 377.226,79.449C377.038,79.467 376.824,79.472 376.599,79.478Z" style="fill:rgb(249,100,100);fill-rule:nonzero;"/>
        <path d="M403.573,92.166C403.588,92.177 403.623,92.184 403.686,92.184C404.358,92.184 405.552,91.47 406.405,90.818C406.39,89.171 406.626,85.063 408.947,80.192C407.958,81.244 407.142,82.097 406.629,82.629C405.197,86.46 403.697,90.978 403.573,92.166Z" style="fill:rgb(249,100,100);fill-rule:nonzero;"/>
        <path d="M423.406,86.603C420.465,88.582 418.095,90.144 416.848,90.85C418.248,90.762 421.243,89.627 423.715,87.97C426.657,85.998 428.927,84.296 429.869,83.354L431.971,78.946C431.818,78.917 431.674,78.876 431.538,78.824C431.432,78.781 428.716,83.033 423.406,86.603Z" style="fill:rgb(249,100,100);fill-rule:nonzero;"/>
        <path d="M473.174,76.606C472.775,76.561 471.277,76.761 468.97,78.745C465.631,81.618 464.407,85.386 464.376,87.744C464.357,89.012 464.683,89.739 464.968,90.024C465.456,90.512 465.947,90.324 466.178,90.227C466.657,90.024 467.314,89.748 468.165,89.748C468.559,89.748 468.964,89.809 469.368,89.927C469.655,90.012 469.997,90.119 470.369,90.254C469.447,89.511 468.689,88.692 468.28,87.909C467.536,86.491 467.984,85.471 468.317,84.988C468.993,84.011 469.688,83.357 470.362,82.726C471.208,81.934 472.005,81.185 472.862,79.711C473.51,78.596 474.372,76.742 473.174,76.606Z" style="fill:rgb(249,100,100);fill-rule:nonzero;"/>
        <path d="M481.493,88.29C480.636,89.841 478.929,92.498 477.122,92.868C476.911,92.911 476.686,92.933 476.449,92.933C475.725,92.933 474.862,92.723 473.969,92.369C474.628,93.08 474.998,93.945 474.758,94.979C474.277,97.036 469.732,101.077 467.71,101.248C467.601,101.256 467.489,101.259 467.373,101.259C464.387,101.259 459.937,97.93 458.907,97.038C457.829,96.1 457.206,94.945 456.847,93.883C454.429,96.49 451.082,99.765 449.313,100.007C449.163,100.026 449.002,100.037 448.829,100.037C446.748,100.037 442.608,98.256 442.359,95.464C442.262,94.38 442.717,92.436 443.3,90.489C438.484,95.165 435.562,97.635 434.591,97.845C434.339,97.901 434.053,97.928 433.74,97.928C431.638,97.928 427.681,96.637 427.276,94.061C427.158,93.299 427.312,92.103 427.551,90.909C423.97,93.486 418.324,97.294 415.354,97.971C414.849,98.087 414.343,98.145 413.85,98.145C411.175,98.145 409.383,96.495 408.417,95.263C406.732,96.348 403.8,98.023 401.769,98.023C401.609,98.023 401.457,98.012 401.31,97.994C399.5,97.763 396.271,97.104 394.981,95.292C394.692,94.887 394.512,94.442 394.441,93.979C391.371,97.951 390.538,98.158 390.169,98.251C389.911,98.313 389.609,98.346 389.248,98.346C387.361,98.346 381.819,97.278 381.624,94.008C381.57,93.12 381.537,94.421 381.483,95.19C381.403,96.341 381.339,97.251 380.897,98.142C380.672,98.596 380.072,99.803 378.579,99.803C378.339,99.803 378.087,99.771 377.809,99.707C377.69,99.68 377.522,99.65 377.323,99.614C375.761,99.325 373.521,98.91 372.768,97.541C371.669,98.971 371.24,99.109 370.973,99.195C370.776,99.26 370.561,99.291 370.295,99.291C369.608,99.291 363.188,98.391 363,95.398C362.88,93.495 364.416,86.556 364.919,84.61L365.3,83.154C365.526,82.291 365.798,81.257 366.008,80.422C365.176,80.623 364.136,80.946 363.259,81.248C362.784,83.373 361.432,89.464 361.128,91.365C360.999,92.166 361.055,93.247 361.107,94.292C361.219,96.445 361.313,98.303 360.011,99.211C359.594,99.502 359.054,99.639 358.308,99.639C356.238,99.639 349.735,98.084 349.271,95.258C349.023,93.755 350.108,88.873 350.936,85.492L347.567,86.948C344.708,95.19 342.578,99.693 341.238,100.333C340.953,100.472 340.634,100.54 340.291,100.54C338.107,100.54 334.624,97.398 333.287,95.638C332.37,94.431 332.053,93.475 332.288,92.631C332.637,91.371 333.566,91.182 334.089,91.182C334.506,91.182 334.993,91.297 335.718,91.566C336.424,91.831 337.078,92.148 337.606,92.425C337.992,91.76 338.531,90.726 339.102,89.573C339.068,89.575 339.035,89.577 339.003,89.577C338.839,89.577 338.679,89.558 338.53,89.516C337.703,89.295 334.614,87.283 334.112,85.762C333.921,85.176 334.016,84.582 334.376,84.13C334.771,83.63 335.41,83.377 336.272,83.377C336.825,83.377 337.434,83.476 337.869,83.566L343.406,80.341C344.225,78.953 347.672,73.17 352.128,66.518C359.134,56.061 361.48,53.355 363.542,53.355C363.81,53.355 364.067,53.405 364.309,53.503C365.134,53.841 369.65,56.215 369.78,58.614C369.836,59.652 367.962,65.104 366.048,70.369C367.39,69.9 368.818,69.417 369.363,69.29C369.609,69.234 369.862,69.204 370.116,69.204C370.314,69.204 370.505,69.222 370.684,69.25C373.078,61.009 374.362,60.691 374.997,60.533C375.304,60.457 375.606,60.418 375.901,60.418C376.724,60.418 377.471,60.718 378.004,61.262C378.465,61.73 378.723,62.348 378.711,62.956C378.702,63.519 377.787,68.916 377.149,72.61C377.907,73.199 378.688,73.851 379.225,74.414C379.649,73.068 380.057,71.743 380.407,70.534C380.856,68.984 381.177,67.805 381.423,66.896C382.169,64.146 382.369,63.408 383.581,62.639C384.225,62.23 384.869,62.024 385.499,62.024C386.392,62.024 387.164,62.449 387.563,63.16C387.781,63.542 387.988,63.909 387.304,69.439C387.868,69.288 388.489,69.18 389.104,69.18C389.904,69.18 390.609,69.358 391.204,69.711L391.722,70.017C395.608,72.297 397.596,73.764 397.673,75.445C397.708,76.233 397.184,78.075 395.479,83.589C395.263,84.291 395.022,85.065 394.791,85.83C395.243,85.327 395.703,84.806 396.141,84.304C404.181,56.052 406.402,55.554 407.242,55.368C407.446,55.323 407.662,55.302 407.903,55.302C410.715,55.302 417.543,58.834 419.949,62.007C420.851,63.195 421.158,64.329 420.864,65.376C420.627,66.228 419.737,67.609 418.503,69.236C418.831,69.163 419.162,69.123 419.498,69.123C419.751,69.123 420.006,69.146 420.252,69.191C422.547,69.608 426.736,72.231 429.201,74.802C429.171,74.543 429.171,74.309 429.21,74.113C429.358,73.326 430.005,72.777 430.779,72.777L430.916,72.782C431.788,72.853 433.546,72.979 434.657,73.061C438.056,64.84 438.95,64.658 440.059,64.233C440.47,64.075 440.902,63.93 441.367,63.93C442.288,63.93 443.001,64.544 443.184,65.492C443.232,65.747 443.372,66.483 441.96,73.586C443.78,73.897 446.731,75.408 446.325,76.314C445.919,77.221 445.458,77.951 442.313,78.395C442.055,78.433 441.811,78.456 441.59,78.47C440.364,81.989 439.129,85.808 438.47,88.207C440.509,86.514 443.729,83.414 446.492,80.544C449.639,71.897 451.31,70.387 452.245,70.123C451.651,69.014 451.78,67.483 452.247,66.483C452.655,65.614 453.317,65.078 454.114,64.977C454.228,64.961 454.378,64.952 454.56,64.952C455.825,64.952 461.175,65.598 462.272,68.582C462.606,69.495 462.6,71.06 461.939,72.29C461.46,73.182 460.72,73.769 459.8,73.989C459.59,74.039 459.361,74.064 459.122,74.064C458.993,74.064 458.858,74.053 458.722,74.039C459.196,74.617 459.523,75.197 459.585,75.732C459.686,76.596 459.072,78.287 455.935,85.794C455.549,86.717 455.132,87.715 454.744,88.656C455.438,88.076 456.171,87.449 456.863,86.844C457.312,85.414 459.031,80.663 463.307,76.145C466.805,72.446 470.648,70.491 474.421,70.491C475.101,70.491 475.779,70.556 476.441,70.681C479.964,71.35 482.397,73.414 483.677,76.816C484.916,80.117 483.362,84.907 481.493,88.29ZM408.824,126.832C390.801,126.832 374.001,116.772 365.36,101.012C367.819,101.9 370.246,102.048 370.295,102.048C370.849,102.048 371.35,101.973 371.827,101.818C372.241,101.684 372.62,101.499 372.993,101.24C374.289,101.856 375.729,102.124 376.871,102.333C377.002,102.358 377.113,102.376 377.194,102.396C377.679,102.506 378.132,102.56 378.579,102.56C379.726,102.56 381.803,102.181 383.186,99.712C385.281,100.708 387.68,101.104 389.248,101.104C389.835,101.104 390.354,101.046 390.839,100.926C391.813,100.682 392.762,100.143 394.313,98.454C396.242,99.847 398.867,100.463 400.975,100.732C401.228,100.762 401.492,100.781 401.769,100.781C403.445,100.781 405.526,100.096 407.975,98.743C409.687,100.148 411.711,100.902 413.85,100.902C414.552,100.902 415.265,100.822 415.966,100.66C417.991,100.197 421.027,98.637 425.021,96.008C426.524,99.19 430.853,100.685 433.74,100.685C434.249,100.685 434.732,100.637 435.176,100.54C435.991,100.364 437.034,99.921 439.998,97.335C441.422,100.926 446.204,102.795 448.829,102.795C449.135,102.795 449.423,102.775 449.688,102.739C450.228,102.665 450.862,102.491 451.69,102.049C442.892,117.241 426.547,126.832 408.824,126.832ZM400.887,60.532L396.362,54.33L402.807,45.748L417.842,45.748L424.288,54.322L420.854,58.917C417.487,55.695 411.294,52.543 407.903,52.543C407.46,52.543 407.047,52.586 406.642,52.676C405.227,52.992 403.783,53.314 400.887,60.532ZM389.968,61.808C389.072,60.217 387.401,59.267 385.499,59.267C384.973,59.267 384.452,59.348 383.938,59.491L383.994,59.32L393.979,56.039L399.648,63.799C398.975,65.669 398.233,67.858 397.411,70.436C396.236,69.507 394.771,68.609 393.12,67.64L392.614,67.342C391.941,66.941 391.2,66.67 390.403,66.532C390.673,63.598 390.501,62.748 389.968,61.808ZM422.765,61.265L426.669,56.047L436.494,59.32L437.49,62.363C436.29,63.217 435.056,65.113 432.884,70.166C432.209,70.116 431.564,70.067 431.137,70.033L430.779,70.019C429.999,70.019 429.258,70.231 428.617,70.603C426.906,69.27 424.917,68.017 423.091,67.229C423.284,66.827 423.425,66.46 423.521,66.121C423.841,64.973 423.928,63.256 422.765,61.265ZM408.824,27.784C430.289,27.784 449.503,41.92 456.002,62.31C455.146,62.206 454.58,62.194 454.56,62.194C454.233,62.194 453.962,62.215 453.764,62.241C452.021,62.463 450.559,63.585 449.749,65.316C449.275,66.33 449.011,67.662 449.121,69.001C448.405,69.788 447.67,70.909 446.868,72.488C446.38,72.143 445.81,71.845 445.155,71.59C446.146,66.295 446.011,65.599 445.892,64.973C445.462,62.734 443.602,61.173 441.367,61.173C441.153,61.173 440.951,61.19 440.755,61.215C435.243,49.911 423.642,42.101 410.24,42.101C397.37,42.101 386.167,49.305 380.419,59.885C380.276,59.696 380.142,59.501 379.973,59.331C378.917,58.253 377.471,57.661 375.901,57.661C375.384,57.661 374.856,57.727 374.331,57.856C373.692,58.016 373.106,58.27 372.544,58.732C372.544,58.633 372.538,58.547 372.533,58.465C372.352,55.098 368.56,52.623 366.561,51.547C375.54,36.873 391.665,27.784 408.824,27.784ZM486.259,75.847C484.641,71.543 481.424,68.82 476.955,67.972C476.125,67.814 475.272,67.733 474.421,67.733C471.28,67.733 468.15,68.823 465.184,70.89C465.319,69.664 465.176,68.491 464.86,67.629C463.844,64.864 461.1,63.512 458.698,62.844C452.301,40.735 431.932,25.376 408.824,25.376C390.491,25.376 373.611,35.011 364.244,50.665C364.013,50.63 363.78,50.597 363.542,50.597C359.981,50.597 357.421,53.662 349.838,64.982C345.855,70.928 342.689,76.152 341.398,78.319L337.336,80.686C336.959,80.641 336.604,80.619 336.272,80.619C334.1,80.619 332.868,81.594 332.218,82.412C331.282,83.587 331.012,85.164 331.493,86.625C331.724,87.324 332.155,87.999 332.694,88.623C331.213,89.07 330.089,90.24 329.631,91.89C328.919,94.446 330.554,96.599 331.091,97.307C332.271,98.861 336.497,103.297 340.291,103.297C341.052,103.297 341.774,103.136 342.427,102.822C343.495,102.31 344.72,101.31 346.8,96.633C348.45,100.99 356.107,102.396 358.308,102.396C359.626,102.396 360.7,102.095 361.59,101.472C361.928,101.236 362.218,100.976 362.467,100.7C371.265,118.115 389.199,129.239 408.824,129.239C429.422,129.239 447.934,117.175 456.28,98.415C456.297,98.4 456.313,98.386 456.329,98.369C456.571,98.633 456.828,98.883 457.1,99.12C457.157,99.168 462.801,104.018 467.373,104.018C467.566,104.018 467.752,104.011 467.942,103.994C471.175,103.721 476.673,98.87 477.442,95.614C477.52,95.601 477.599,95.586 477.674,95.57C479.881,95.12 481.977,93.118 483.907,89.624C484.957,87.721 488.234,81.104 486.259,75.847Z" style="fill:rgb(249,100,100);fill-rule:nonzero;"/>
        <path d="M381.266,110.682C380.367,109.933 379.494,109.14 378.646,108.307C378.537,108.199 378.473,108.083 378.473,107.957C378.463,107.842 378.498,107.742 378.588,107.654C378.671,107.571 378.771,107.536 378.889,107.541C379.01,107.545 379.123,107.608 379.236,107.719C380.409,108.873 381.635,109.943 382.903,110.933C383.058,110.732 383.214,110.533 383.369,110.332C382.084,109.33 380.844,108.242 379.658,107.067C379.313,106.723 378.964,106.533 378.609,106.492C378.277,106.456 377.988,106.555 377.746,106.781C377.498,107.014 377.392,107.301 377.422,107.641C377.453,108.015 377.655,108.385 378.021,108.747C378.852,109.568 379.705,110.351 380.583,111.092C380.79,111.266 380.914,111.455 380.961,111.654C381.004,111.843 380.968,112.004 380.857,112.143C380.741,112.285 380.584,112.349 380.388,112.341C380.182,112.333 379.972,112.236 379.767,112.061C378.446,110.946 377.177,109.744 375.966,108.453C375.781,108.627 375.597,108.8 375.411,108.974C376.684,110.328 378.019,111.588 379.405,112.752C379.934,113.194 380.423,113.413 380.876,113.421C381.278,113.418 381.605,113.258 381.856,112.93C382.102,112.607 382.178,112.256 382.1,111.877C382.012,111.471 381.733,111.072 381.266,110.682Z" style="fill:rgb(5,193,198);fill-rule:nonzero;"/>
        <path d="M387.565,116.173C387.452,116.38 387.37,116.512 387.308,116.57C387.217,116.68 387.094,116.737 386.937,116.761C386.692,116.794 386.35,116.685 385.938,116.442C385.227,116.023 384.524,115.582 383.832,115.121C383.422,114.847 383.181,114.589 383.1,114.353C383.051,114.201 383.049,114.063 383.101,113.929C383.132,113.853 383.207,113.715 383.342,113.522C383.491,113.313 383.639,113.104 383.787,112.896C383.924,112.702 384.032,112.581 384.094,112.526C384.202,112.43 384.328,112.385 384.482,112.375C384.724,112.363 385.029,112.488 385.413,112.744C386.061,113.176 386.718,113.589 387.385,113.981C387.771,114.209 388.021,114.433 388.112,114.653C388.17,114.795 388.183,114.929 388.138,115.064C388.122,115.147 388.051,115.292 387.936,115.5C387.813,115.725 387.688,115.95 387.565,116.173ZM389.255,114.702C389.168,114.439 389.014,114.213 388.79,114.017C388.604,113.838 388.298,113.643 387.882,113.399C387.146,112.97 386.424,112.515 385.712,112.037C385.31,111.767 384.993,111.571 384.749,111.48C384.479,111.367 384.207,111.325 383.927,111.357C383.681,111.375 383.48,111.457 383.309,111.585C383.174,111.689 382.999,111.88 382.781,112.169C382.632,112.368 382.482,112.565 382.334,112.764C382.116,113.053 381.981,113.274 381.923,113.433C381.849,113.638 381.828,113.862 381.896,114.114C381.961,114.4 382.107,114.672 382.326,114.909C382.509,115.102 382.825,115.361 383.279,115.667C384.066,116.195 384.867,116.696 385.679,117.171C386.146,117.445 386.513,117.616 386.77,117.697C387.065,117.785 387.371,117.797 387.66,117.732C387.903,117.678 388.103,117.564 388.255,117.409C388.367,117.285 388.51,117.067 388.674,116.746C388.787,116.525 388.901,116.304 389.015,116.083C389.181,115.762 389.275,115.52 389.313,115.355C389.354,115.145 389.335,114.928 389.255,114.702Z" style="fill:rgb(5,193,198);fill-rule:nonzero;"/>
        <path d="M391.114,115.19C390.834,115.133 390.561,115.147 390.3,115.225C390.063,115.289 389.872,115.408 389.734,115.57C389.625,115.697 389.485,115.917 389.321,116.239C389.211,116.461 389.1,116.683 388.987,116.905C388.824,117.228 388.732,117.47 388.698,117.636C388.652,117.844 388.68,118.072 388.785,118.305C388.903,118.576 389.082,118.812 389.335,119.003C389.541,119.157 389.893,119.352 390.384,119.566C391.767,120.172 393.172,120.705 394.596,121.167C394.675,120.926 394.753,120.684 394.832,120.443C393.479,120.004 392.143,119.501 390.828,118.931C390.386,118.739 390.106,118.53 389.991,118.315C389.919,118.175 389.896,118.034 389.923,117.9C389.939,117.819 390,117.668 390.101,117.454C390.208,117.225 390.315,116.996 390.424,116.766C390.523,116.552 390.601,116.408 390.65,116.343C390.74,116.229 390.855,116.161 391.002,116.124C391.233,116.067 391.552,116.133 391.966,116.312C393.196,116.846 394.448,117.318 395.716,117.729C395.794,117.488 395.871,117.247 395.95,117.006C394.661,116.589 393.39,116.106 392.141,115.559C391.704,115.369 391.364,115.243 391.114,115.19Z" style="fill:rgb(5,193,198);fill-rule:nonzero;"/>
        <path d="M397.302,117.511C397.018,117.498 396.752,117.558 396.509,117.678C396.29,117.778 396.121,117.927 396.012,118.108C395.922,118.253 395.82,118.491 395.712,118.835C395.636,119.073 395.563,119.31 395.487,119.546C395.378,119.891 395.324,120.144 395.318,120.313C395.306,120.527 395.366,120.746 395.505,120.959C395.662,121.207 395.873,121.409 396.149,121.557C396.376,121.674 396.75,121.809 397.261,121.942C398.707,122.315 400.167,122.616 401.635,122.846C401.674,122.596 401.715,122.346 401.753,122.096C400.357,121.877 398.972,121.593 397.599,121.244C397.136,121.126 396.83,120.965 396.686,120.772C396.593,120.646 396.55,120.511 396.551,120.375C396.558,120.292 396.594,120.132 396.659,119.906C396.729,119.663 396.798,119.419 396.868,119.175C396.933,118.947 396.985,118.793 397.023,118.721C397.095,118.595 397.198,118.51 397.337,118.448C397.551,118.355 397.873,118.368 398.306,118.479C399.592,118.805 400.892,119.072 402.196,119.276C402.237,119.026 402.275,118.775 402.315,118.525C400.986,118.318 399.666,118.045 398.359,117.708C397.905,117.59 397.553,117.521 397.302,117.511Z" style="fill:rgb(5,193,198);fill-rule:nonzero;"/>
        <path d="M401.987,122.901C403.944,123.191 405.916,123.354 407.891,123.391C407.895,123.137 407.899,122.884 407.904,122.63C406.379,122.603 404.854,122.497 403.337,122.314C403.389,121.897 403.438,121.479 403.489,121.063C404.964,121.239 406.445,121.342 407.928,121.369C407.933,121.116 407.938,120.864 407.941,120.61C406.484,120.584 405.028,120.482 403.58,120.309C403.613,120.033 403.647,119.758 403.681,119.481C405.102,119.651 406.528,119.75 407.957,119.777C407.962,119.524 407.967,119.271 407.972,119.018C406.187,118.985 404.403,118.835 402.634,118.573C402.419,120.016 402.203,121.458 401.987,122.901Z" style="fill:rgb(5,193,198);fill-rule:nonzero;"/>
        <path d="M413.604,120.871C413.582,120.984 413.527,121.096 413.424,121.188C413.262,121.353 412.943,121.461 412.465,121.501C411.479,121.585 410.489,121.635 409.5,121.652C409.489,121.018 409.479,120.382 409.467,119.748C410.414,119.731 411.36,119.684 412.304,119.604C412.745,119.567 413.071,119.606 413.277,119.742C413.385,119.812 413.461,119.907 413.507,120.021C413.542,120.106 413.566,120.244 413.591,120.456C413.612,120.647 413.619,120.789 413.604,120.871ZM414.198,119.142C413.848,118.867 413.245,118.789 412.371,118.866C411.023,118.985 409.671,119.036 408.318,119.022C408.304,120.48 408.288,121.938 408.273,123.396C408.693,123.401 409.112,123.399 409.529,123.392C409.525,123.072 409.52,122.752 409.514,122.434C410.545,122.416 411.573,122.364 412.6,122.275C412.852,122.574 413.107,122.872 413.368,123.166C413.854,123.118 414.337,123.061 414.821,122.996C414.471,122.686 414.126,122.371 413.789,122.053C414.118,121.942 414.361,121.784 414.521,121.593C414.677,121.393 414.764,121.21 414.8,121.034C414.83,120.873 414.814,120.637 414.769,120.315C414.723,119.987 414.672,119.755 414.6,119.607C414.521,119.448 414.39,119.288 414.198,119.142Z" style="fill:rgb(5,193,198);fill-rule:nonzero;"/>
        <path d="M417.58,118.167C417.325,118.29 417.113,118.468 416.957,118.688C416.82,118.879 416.743,119.091 416.733,119.301C416.715,119.472 416.747,119.728 416.813,120.084C416.86,120.328 416.906,120.572 416.953,120.815C417.021,121.171 417.086,121.421 417.169,121.571C417.259,121.764 417.417,121.929 417.63,122.053C417.885,122.197 418.175,122.273 418.486,122.273C418.741,122.27 419.132,122.214 419.647,122.088C421.096,121.734 422.53,121.309 423.945,120.813C423.861,120.574 423.775,120.334 423.692,120.095C422.345,120.568 420.979,120.976 419.603,121.316C419.148,121.428 418.806,121.432 418.585,121.33C418.443,121.263 418.341,121.164 418.28,121.042C418.245,120.967 418.193,120.812 418.144,120.581C418.089,120.333 418.034,120.086 417.98,119.838C417.929,119.606 417.911,119.446 417.911,119.363C417.913,119.219 417.962,119.095 418.055,118.976C418.199,118.792 418.489,118.651 418.913,118.547C420.204,118.227 421.482,117.846 422.744,117.402C422.66,117.164 422.575,116.924 422.49,116.686C421.211,117.136 419.915,117.52 418.604,117.84C418.146,117.952 417.806,118.056 417.58,118.167Z" style="fill:rgb(5,193,198);fill-rule:nonzero;"/>
        <path d="M423.88,116.178C423.521,116.317 423.162,116.452 422.801,116.583C423.295,117.953 423.791,119.322 424.285,120.691C426.164,120.015 428.007,119.211 429.801,118.28C429.685,118.056 429.567,117.831 429.45,117.605C428.061,118.326 426.642,118.969 425.2,119.535C424.759,118.417 424.318,117.296 423.88,116.178Z" style="fill:rgb(5,193,198);fill-rule:nonzero;"/>
        <path d="M434.223,113.459C434.359,113.651 434.447,113.79 434.479,113.866C434.527,113.994 434.529,114.137 434.48,114.29C434.402,114.526 434.158,114.786 433.758,115.055C433.159,115.457 432.556,115.841 431.942,116.21C431.533,116.458 431.197,116.566 430.952,116.536C430.796,116.514 430.668,116.451 430.571,116.353C430.509,116.296 430.422,116.158 430.305,115.952C429.886,115.207 429.466,114.46 429.046,113.715C428.707,113.906 428.364,114.092 428.021,114.273C428.418,115.028 428.816,115.783 429.213,116.539C429.38,116.854 429.515,117.073 429.643,117.198C429.79,117.345 429.98,117.454 430.23,117.52C430.684,117.634 431.354,117.447 432.209,116.938C432.916,116.513 433.614,116.07 434.303,115.604C435.132,115.042 435.6,114.504 435.692,114.042C435.742,113.784 435.727,113.564 435.657,113.366C435.599,113.198 435.456,112.982 435.243,112.699C434.729,112.019 434.213,111.339 433.698,110.657C433.38,110.899 433.059,111.136 432.734,111.367C433.231,112.065 433.727,112.762 434.223,113.459Z" style="fill:rgb(5,193,198);fill-rule:nonzero;"/>
        <path d="M440.306,109.445C440.274,109.653 440.141,109.867 439.904,110.095C439.014,110.953 438.096,111.766 437.154,112.536C436.888,112.209 436.624,111.884 436.358,111.558C437.272,110.81 438.164,110.019 439.029,109.186C439.259,108.964 439.472,108.839 439.676,108.811C439.866,108.78 440.022,108.831 440.153,108.961C440.289,109.096 440.342,109.253 440.306,109.445ZM435.352,110.323C436.239,109.597 437.105,108.83 437.945,108.02C438.078,107.892 438.204,107.818 438.344,107.796C438.476,107.78 438.581,107.811 438.663,107.893C438.747,107.978 438.774,108.093 438.743,108.23C438.729,108.368 438.652,108.495 438.521,108.621C437.666,109.446 436.783,110.229 435.879,110.969C435.702,110.754 435.527,110.539 435.352,110.323ZM439.633,107.891C439.676,107.562 439.61,107.3 439.435,107.107C439.22,106.864 438.961,106.752 438.653,106.761C438.295,106.78 437.929,106.978 437.535,107.358C436.395,108.467 435.206,109.496 433.974,110.446C434.864,111.603 435.754,112.758 436.643,113.914C438.063,112.816 439.433,111.624 440.745,110.338C441.19,109.9 441.434,109.461 441.467,109.031C441.499,108.634 441.365,108.303 441.063,108.02C440.696,107.676 440.221,107.636 439.633,107.891Z" style="fill:rgb(5,193,198);fill-rule:nonzero;"/>
    </g>
</svg>
