<?xml version="1.0" encoding="UTF-8" standalone="no"?>
<!DOCTYPE svg PUBLIC "-//W3C//DTD SVG 1.1//EN" "http://www.w3.org/Graphics/SVG/1.1/DTD/svg11.dtd">
<svg width="100%" height="100%" viewBox="0 0 146 133" version="1.1" xmlns="http://www.w3.org/2000/svg" xmlns:xlink="http://www.w3.org/1999/xlink" xml:space="preserve" xmlns:serif="http://www.serif.com/" style="fill-rule:evenodd;clip-rule:evenodd;stroke-linejoin:round;stroke-miterlimit:1.41421;">
    <g transform="matrix(1,0,0,1,-335.458,-150.754)">
        <path d="M407.683,152.553L406.795,150.754L405.907,152.553L403.921,152.842L405.358,154.242L405.02,156.217L406.795,155.285L408.569,156.217L408.231,154.242L409.667,152.842L407.683,152.553Z" style="fill:rgb(5,193,198);fill-rule:nonzero;"/>
        <path d="M418.285,152.842L416.302,152.553L415.413,150.754L414.526,152.553L412.54,152.842L413.978,154.242L413.638,156.217L415.413,155.285L417.188,156.217L416.851,154.242L418.285,152.842Z" style="fill:rgb(5,193,198);fill-rule:nonzero;"/>
        <path d="M399.066,152.553L398.179,150.754L397.29,152.553L395.306,152.842L396.741,154.242L396.401,156.217L398.179,155.285L399.953,156.217L399.614,154.242L401.051,152.842L399.066,152.553Z" style="fill:rgb(5,193,198);fill-rule:nonzero;"/>
        <path d="M424.774,197.923C423.844,198.034 423.464,199.725 424.07,200.469C424.674,201.214 428.372,203.134 429.892,202.815C431.432,202.494 431.628,200.701 431.281,199.966C430.479,198.286 425.688,197.815 424.774,197.923Z" style="fill:white;fill-rule:nonzero;"/>
        <path d="M461.92,221.987C460.735,223.338 459.108,222.971 458.729,221.134C458.231,218.756 463.838,211.97 464.559,212.358C465.281,212.747 463.103,220.631 461.92,221.987ZM455.005,241.083C453.715,242.132 452.378,241.325 452.654,239.937C453.104,237.69 460.452,229.967 460.452,229.967C460.452,229.967 456.301,240.032 455.005,241.083ZM415.587,188.268C416.371,186.519 418.548,187.124 418.246,188.84C417.563,192.723 411.933,201.17 411.933,201.17C411.933,201.17 414.964,189.661 415.587,188.268ZM477.162,218.551C476.308,218.395 472.527,220.329 472.527,220.329C472.527,220.329 474.877,212.514 475.084,211.416C475.327,210.114 475.205,209.327 473.661,208.606C472.117,207.879 469.818,209.268 469.818,209.268C469.818,209.268 469.382,208.262 468.151,207.788C466.916,207.311 464.281,206.815 460.35,208.959C456.709,210.946 452.572,216.006 452.572,216.006C452.867,215.227 453.044,214.723 453.044,214.723C453.044,214.723 453.461,213.015 452.354,211.399C451.477,210.119 446.906,204.774 443.449,204.86C440.893,204.92 438.67,207.764 437.561,207.927C436.448,208.088 434.241,206.45 432.879,206.676C431.872,206.846 431.408,207.25 431.416,208.012C431.425,209.071 432.756,209.348 433.162,210.625C429.437,215.114 424.972,223.268 424.304,222.774C423.369,222.088 428.821,208.528 428.369,206.913C427.919,205.297 425.357,204.452 424.236,204.427C423.119,204.405 421.409,205.167 421.409,205.167C421.409,205.167 419.833,203.176 418.193,202.812C416.561,202.45 411.513,205.764 411.513,205.764C411.513,205.764 426.561,190.518 425.973,185.626C425.778,184.012 414.721,179.317 411.778,179.597C408.838,179.88 404.739,204.941 404.16,206.074C403.58,207.208 401.328,208.182 400.55,207.148C399.955,206.35 400.32,205.408 398.775,204.704C396.54,203.684 390.615,208.311 390.615,208.311C390.615,208.311 387.555,206.235 386.563,206.198C385.852,206.17 385.201,206.59 385.164,207.151C385.104,208.086 385.807,208.354 385.731,209.373C385.657,210.393 382.042,222.774 381.513,223.094C380.513,223.708 378.453,222.692 378.002,220.978C377.547,219.261 383.012,211.084 383.158,210.078C383.395,208.417 380.787,206.717 378.954,206.911C376.727,207.148 369.2,220.209 367.786,221C367.021,221.43 366.068,220.793 366.274,219.901C366.56,218.663 370.284,213.447 370.438,211.61C370.593,209.776 367.825,207.682 366.285,208.333C364.268,209.186 360.853,218.17 360.853,218.17C360.853,218.17 359.981,215.38 358.827,214.665C357.446,213.812 349.944,215.852 349.09,214.35C348.239,212.85 355.981,207.014 357.401,206.979C358.825,206.94 362.278,210.608 363.366,209.563C364.46,208.517 358.17,201.465 355.722,201.125C353.273,200.784 343.119,208.985 342.104,212.875C341.088,216.766 345.779,221.037 347.112,221.383C348.257,221.684 353.581,219.051 354.524,220.144C355.469,221.239 339.236,233.626 338.327,237.124C337.982,238.458 341.062,240.276 342.74,242.448C344.239,244.382 344.591,245.845 345.931,245.667C347.571,245.446 350.917,239.487 354.58,234.556C357.234,230.978 360.564,228.098 361.104,227.57C362.394,226.314 361.45,221.512 361.45,221.512C361.45,221.512 366.714,228.283 370.173,228.291C372.731,228.301 375.028,225.52 376.143,225.39C377.258,225.256 378.648,226.492 380.015,226.301C381.028,226.16 381.684,225.341 381.684,225.341C381.684,225.341 381.073,227.564 382.68,228.365C383.784,228.914 388.173,228.92 389.697,227.619C391.889,225.755 392.375,213.905 392.73,211.864C393.081,209.823 394.21,208.959 395.045,209.651C395.874,210.34 394.779,211.877 394.22,213.721C393.66,215.567 397.713,216.374 399.015,215.628C400.317,214.881 399.889,212.141 400.77,210.897C401.653,209.655 403.339,209.337 403.339,209.337C403.066,210.259 395.102,234.136 394.995,236.476C394.848,239.733 401.44,238.876 402.457,237.905C403.643,236.769 404.591,230.964 405.983,225.303C408.001,217.125 410.316,208.514 410.316,208.514C410.316,208.514 413.541,207.512 414.076,208.415C414.608,209.313 411.28,210.317 410.712,211.958C410.145,213.6 413.084,215.192 414.357,215.116C415.962,215.023 419.659,208.163 420.694,208.745C421.725,209.327 416.644,219.596 416.031,223.342C415.457,226.85 422.524,227.912 425.047,227.135C426.573,226.66 432.857,211.745 434.889,212.275C435.177,212.35 435.787,212.749 435.756,213.452C435.675,215.222 431.085,222.414 430.971,223.424C430.777,225.087 433.431,226.719 435.258,226.473C437.479,226.176 444.645,212.913 446.032,212.083C446.785,211.633 447.758,212.245 447.578,213.141C447.324,214.386 443.745,219.706 443.64,221.542C443.537,223.377 445.814,225.785 447.231,224.901C448.976,223.815 452.982,217.807 452.982,217.807C452.338,219.187 451.684,221.185 452.115,223.03C452.504,224.681 454.399,225.504 456.932,225.576C459.703,225.655 462.58,223.901 462.58,223.901C462.58,223.901 444.762,237.313 444.758,240.872C444.751,244.431 455.587,250.499 459.074,250.708C460.5,250.794 462.688,248.858 463.679,246.927C464.633,245.062 472.145,223.553 472.145,223.553C472.145,223.553 476.041,221.003 477.236,220.055C478.433,219.112 478.185,218.735 477.162,218.551Z" style="fill:white;fill-rule:nonzero;"/>
        <path d="M368.831,268.8C368.767,269.196 368.708,269.454 368.658,269.585C368.569,269.812 368.424,269.974 368.221,270.108C367.896,270.304 367.39,270.347 366.703,270.228C365.539,270.021 364.376,269.81 363.213,269.585C362.525,269.454 362.064,269.233 361.838,268.938C361.69,268.741 361.612,268.536 361.609,268.294C361.609,268.153 361.633,267.888 361.709,267.495C361.796,267.071 361.877,266.646 361.966,266.222C362.041,265.829 362.127,265.563 362.179,265.433C362.274,265.214 362.42,265.052 362.63,264.927C362.949,264.731 363.448,264.706 364.118,264.833C365.26,265.052 366.399,265.259 367.54,265.46C368.211,265.577 368.667,265.78 368.902,266.077C369.048,266.263 369.132,266.47 369.14,266.712C369.146,266.849 369.112,267.126 369.046,267.519C368.976,267.944 368.902,268.374 368.831,268.8ZM370.939,266.497C370.909,266.14 370.797,265.804 370.563,265.489C370.318,265.116 369.992,264.851 369.586,264.667C369.231,264.493 368.691,264.368 367.958,264.239C366.688,264.019 365.418,263.784 364.148,263.542C363.43,263.401 362.878,263.329 362.484,263.366C362.041,263.396 361.641,263.528 361.274,263.786C360.952,264.001 360.711,264.271 360.565,264.597C360.45,264.856 360.321,265.274 360.197,265.872C360.111,266.286 360.026,266.698 359.94,267.112C359.816,267.712 359.769,268.147 359.772,268.433C359.778,268.79 359.895,269.146 360.114,269.468C360.355,269.853 360.694,270.153 361.105,270.347C361.444,270.503 362,270.665 362.752,270.81C364.063,271.062 365.372,271.302 366.687,271.528C367.455,271.665 368.014,271.71 368.403,271.681C368.854,271.647 369.265,271.483 369.635,271.212C369.959,270.991 370.179,270.694 370.319,270.364C370.432,270.101 370.538,269.677 370.635,269.071C370.701,268.655 370.768,268.239 370.834,267.823C370.93,267.218 370.96,266.782 370.939,266.497Z" style="fill:rgb(5,193,198);fill-rule:nonzero;"/>
        <path d="M379.382,272.099C379.329,272.528 379.278,272.954 379.227,273.38C376.37,273.036 373.521,272.64 370.678,272.192C371.061,269.755 371.445,267.317 371.828,264.882C372.412,264.974 372.994,265.06 373.579,265.147C373.278,267.165 372.978,269.181 372.676,271.196C374.907,271.528 377.144,271.833 379.382,272.099Z" style="fill:rgb(5,193,198);fill-rule:nonzero;"/>
        <path d="M388.464,271.237C388.434,271.634 388.397,271.909 388.358,272.044C388.292,272.263 388.154,272.452 387.967,272.601C387.661,272.825 387.162,272.909 386.464,272.849C384.84,272.7 383.218,272.536 381.596,272.356C381.772,270.753 381.95,269.151 382.127,267.548C383.717,267.726 385.307,267.886 386.901,268.028C387.582,268.091 388.049,268.251 388.308,268.528C388.467,268.704 388.568,268.901 388.598,269.142C388.613,269.278 388.604,269.556 388.571,269.952C388.535,270.382 388.501,270.81 388.464,271.237ZM390.37,268.776C390.308,268.423 390.151,268.085 389.912,267.788C389.636,267.442 389.288,267.2 388.874,267.056C388.491,266.921 387.944,266.827 387.218,266.763C384.98,266.563 382.744,266.331 380.509,266.063C380.218,268.519 379.926,270.974 379.636,273.427C381.94,273.702 384.25,273.942 386.559,274.147C387.321,274.216 387.893,274.214 388.26,274.155C388.708,274.083 389.117,273.886 389.463,273.583C389.751,273.337 389.961,273.024 390.077,272.683C390.162,272.409 390.232,271.978 390.281,271.366C390.311,270.948 390.341,270.524 390.372,270.106C390.419,269.495 390.412,269.058 390.37,268.776Z" style="fill:rgb(5,193,198);fill-rule:nonzero;"/>
        <path d="M396.018,270.085C395.803,270.073 395.631,270.001 395.498,269.845C395.383,269.714 395.322,269.55 395.334,269.335C395.346,269.136 395.42,268.976 395.563,268.843C395.701,268.716 395.876,268.665 396.09,268.675C398.441,268.794 400.797,268.876 403.15,268.925C403.159,268.495 403.167,268.065 403.177,267.638C400.764,267.589 398.354,267.501 395.942,267.378C395.229,267.341 394.667,267.505 394.253,267.874C393.881,268.218 393.674,268.677 393.643,269.239C393.606,269.815 393.755,270.286 394.118,270.671C394.497,271.097 395.041,271.31 395.751,271.349C397.384,271.433 399.015,271.497 400.645,271.548C401.026,271.56 401.33,271.681 401.543,271.899C401.754,272.106 401.864,272.356 401.854,272.657C401.846,272.97 401.727,273.218 401.502,273.411C401.264,273.62 400.953,273.71 400.579,273.7C398.183,273.626 395.783,273.517 393.39,273.37C393.365,273.8 393.339,274.228 393.312,274.655C395.798,274.806 398.282,274.919 400.773,274.993C401.707,275.021 402.437,274.812 402.939,274.358C403.396,273.942 403.632,273.397 403.643,272.696C403.655,272.009 403.458,271.454 403.045,271.022C402.581,270.563 401.926,270.312 401.055,270.284C399.375,270.237 397.695,270.171 396.018,270.085Z" style="fill:rgb(5,193,198);fill-rule:nonzero;"/>
        <path d="M413.938,273.733C411.869,273.786 409.794,273.81 407.722,273.81C407.026,273.81 406.536,273.681 406.253,273.429C406.076,273.263 405.963,273.065 405.913,272.839C405.889,272.7 405.876,272.425 405.879,272.026C405.883,271.597 405.886,271.167 405.892,270.737C405.893,270.339 405.91,270.062 405.939,269.925C405.99,269.688 406.105,269.503 406.281,269.345C406.562,269.091 407.043,268.972 407.728,268.972C409.756,268.972 411.786,268.948 413.814,268.897C413.805,268.466 413.792,268.038 413.782,267.61C411.693,267.661 409.602,267.688 407.51,267.683C406.783,267.681 406.229,267.728 405.851,267.825C405.423,267.933 405.044,268.151 404.735,268.46C404.465,268.733 404.288,269.058 404.209,269.403C404.126,269.681 404.099,270.114 404.089,270.728C404.082,271.149 404.075,271.569 404.066,271.989C404.059,272.604 404.073,273.04 404.146,273.319C404.215,273.669 404.388,273.999 404.654,274.274C404.991,274.606 405.363,274.839 405.801,274.948C406.167,275.042 406.737,275.097 407.5,275.099C409.659,275.101 411.814,275.075 413.971,275.021C413.96,274.591 413.95,274.163 413.938,273.733Z" style="fill:rgb(5,193,198);fill-rule:nonzero;"/>
        <path d="M422.217,267.239C422.272,268.14 422.328,269.036 422.386,269.935C420.312,270.063 418.238,270.165 416.164,270.237C416.131,269.337 416.1,268.438 416.066,267.54C415.479,267.56 414.887,267.579 414.299,267.595C414.368,270.063 414.436,272.536 414.504,275.005C415.113,274.989 415.72,274.97 416.33,274.948C416.291,273.808 416.25,272.665 416.208,271.524C418.297,271.45 420.379,271.349 422.464,271.22C422.534,272.36 422.605,273.499 422.676,274.64C423.29,274.601 423.903,274.56 424.516,274.519C424.344,272.054 424.172,269.587 423.999,267.124C423.406,267.165 422.813,267.202 422.217,267.239Z" style="fill:rgb(5,193,198);fill-rule:nonzero;"/>
        <path d="M433.808,270.618C433.852,271.017 433.872,271.28 433.86,271.419C433.835,271.661 433.74,271.856 433.588,272.04C433.318,272.317 432.852,272.495 432.152,272.569C430.979,272.688 429.807,272.8 428.636,272.903C427.937,272.966 427.45,272.874 427.134,272.653C426.942,272.503 426.81,272.329 426.739,272.095C426.706,271.96 426.674,271.698 426.641,271.3C426.607,270.868 426.572,270.435 426.539,270.003C426.508,269.604 426.496,269.329 426.509,269.188C426.541,268.952 426.64,268.753 426.804,268.579C427.075,268.304 427.528,268.142 428.214,268.083C429.361,267.981 430.509,267.874 431.656,267.755C432.343,267.683 432.826,267.755 433.146,267.978C433.332,268.118 433.463,268.292 433.542,268.522C433.583,268.655 433.62,268.931 433.665,269.327C433.713,269.757 433.76,270.187 433.808,270.618ZM435.215,267.827C435.096,267.489 434.885,267.198 434.587,266.956C434.245,266.667 433.851,266.501 433.407,266.437C433.023,266.366 432.466,266.39 431.74,266.466C430.459,266.597 429.173,266.718 427.888,266.829C427.17,266.892 426.623,266.974 426.257,267.114C425.826,267.263 425.479,267.501 425.2,267.851C424.956,268.144 424.803,268.468 424.742,268.821C424.697,269.104 424.688,269.54 424.731,270.151C424.764,270.573 424.792,270.991 424.821,271.413C424.867,272.022 424.938,272.454 425.024,272.728C425.139,273.071 425.339,273.384 425.631,273.634C425.979,273.935 426.369,274.134 426.82,274.206C427.198,274.269 427.762,274.271 428.526,274.204C429.852,274.089 431.181,273.964 432.503,273.825C433.268,273.745 433.83,273.636 434.181,273.505C434.604,273.351 434.956,273.081 435.251,272.718C435.492,272.419 435.634,272.071 435.672,271.716C435.699,271.433 435.687,270.995 435.617,270.386C435.567,269.966 435.516,269.55 435.466,269.132C435.394,268.524 435.309,268.095 435.215,267.827Z" style="fill:rgb(5,193,198);fill-rule:nonzero;"/>
        <path d="M445.083,269.097C445.146,269.493 445.178,269.755 445.161,269.897C445.147,270.14 445.069,270.339 444.921,270.53C444.666,270.821 444.198,271.022 443.522,271.126C442.352,271.302 441.178,271.472 440.005,271.632C439.323,271.724 438.82,271.661 438.496,271.454C438.296,271.315 438.156,271.146 438.088,270.913C438.029,270.782 437.988,270.522 437.938,270.124C437.886,269.694 437.825,269.265 437.773,268.837C437.723,268.44 437.696,268.163 437.716,268.022C437.724,267.786 437.814,267.583 437.971,267.401C438.226,267.11 438.686,266.929 439.351,266.837C440.501,266.679 441.648,266.515 442.799,266.341C443.461,266.241 443.955,266.286 444.283,266.493C444.481,266.624 444.615,266.794 444.705,267.019C444.762,267.147 444.815,267.421 444.878,267.813C444.947,268.241 445.016,268.669 445.083,269.097ZM446.355,266.241C446.207,265.911 445.981,265.632 445.673,265.405C445.323,265.13 444.925,264.983 444.474,264.938C444.083,264.888 443.527,264.94 442.806,265.052C441.531,265.245 440.256,265.427 438.977,265.599C438.255,265.7 437.709,265.804 437.352,265.966C436.929,266.134 436.588,266.386 436.332,266.751C436.1,267.056 435.964,267.386 435.914,267.743C435.887,268.026 435.914,268.46 435.987,269.069C436.037,269.487 436.088,269.907 436.14,270.325C436.212,270.931 436.289,271.362 436.384,271.632C436.518,271.966 436.736,272.269 437.041,272.505C437.4,272.79 437.814,272.968 438.265,273.017C438.638,273.06 439.21,273.038 439.97,272.935C441.289,272.757 442.606,272.565 443.921,272.368C444.679,272.251 445.239,272.112 445.581,271.966C446.002,271.788 446.352,271.503 446.615,271.128C446.84,270.815 446.966,270.466 446.999,270.104C447.016,269.819 446.97,269.386 446.87,268.778C446.802,268.366 446.73,267.948 446.663,267.532C446.562,266.931 446.461,266.503 446.355,266.241Z" style="fill:rgb(5,193,198);fill-rule:nonzero;"/>
        <path d="M456.148,268.864C456.236,269.284 456.322,269.704 456.409,270.124C453.581,270.712 450.746,271.243 447.9,271.726C447.488,269.294 447.076,266.862 446.664,264.429C447.253,264.329 447.843,264.228 448.431,264.122C448.785,266.128 449.142,268.136 449.5,270.142C451.721,269.747 453.936,269.321 456.148,268.864Z" style="fill:rgb(5,193,198);fill-rule:nonzero;"/>
        <path d="M467.482,182.149C468.007,181.533 468.519,180.864 468.976,180.149C470.373,177.966 470.509,176.263 470.415,176C470.188,175.921 468.47,176.036 466.272,177.448C465.583,177.888 464.931,178.375 464.335,178.889C463.735,178.375 463.087,177.888 462.398,177.448C460.197,176.036 458.481,175.921 458.252,176C458.16,176.263 458.296,177.966 459.693,180.149C460.148,180.864 460.657,181.533 461.185,182.149C460.545,182.948 460.089,183.604 459.855,183.954C458.75,185.62 458.194,186.864 458.228,187.196C458.266,187.247 458.385,187.34 458.894,187.375L459.032,187.387L459.046,187.528C459.08,188.038 459.177,188.157 459.191,188.176C459.566,188.228 460.784,187.682 462.466,186.568C462.825,186.33 463.507,185.853 464.335,185.184C465.16,185.853 465.845,186.33 466.202,186.568C467.884,187.682 469.105,188.228 469.441,188.192C469.496,188.157 469.588,188.038 469.623,187.528L469.636,187.387L469.774,187.375C470.287,187.34 470.402,187.247 470.42,187.23C470.474,186.864 469.918,185.62 468.813,183.954C468.58,183.604 468.127,182.948 467.482,182.149Z" style="fill:rgb(5,193,198);fill-rule:nonzero;"/>
        <path d="M347.16,264.245L350.398,265.944L349.781,262.343L352.396,259.791L348.778,259.263L347.16,255.983L345.541,259.263L341.923,259.791L344.541,262.343L343.923,265.944L347.16,264.245Z" style="fill:white;fill-rule:nonzero;"/>
        <path d="M396.729,278.581C396.457,278.653 396.218,278.794 396.026,278.997C395.857,279.173 395.748,279.38 395.701,279.603C395.652,279.778 395.637,280.056 395.637,280.448L395.637,281.253C395.637,281.644 395.652,281.921 395.701,282.101C395.748,282.321 395.857,282.53 396.026,282.704C396.225,282.913 396.465,283.056 396.737,283.128C396.959,283.183 397.312,283.216 397.782,283.216L401.758,283.216L401.758,282.394L397.908,282.394C397.486,282.394 397.184,282.313 397.007,282.155C396.895,282.05 396.822,281.921 396.792,281.778C396.775,281.69 396.761,281.519 396.761,281.263L396.761,280.438C396.761,280.185 396.775,280.009 396.792,279.921C396.822,279.771 396.895,279.649 397.007,279.548C397.184,279.386 397.486,279.308 397.908,279.308L401.758,279.308L401.758,278.487L397.782,278.487C397.318,278.487 396.969,278.517 396.729,278.581Z" style="fill:white;fill-rule:nonzero;"/>
        <path d="M403.2,278.493L402.078,278.493L402.078,283.216L407.368,283.216L407.368,282.394L403.2,282.394L403.2,278.493Z" style="fill:white;fill-rule:nonzero;"/>
        <path d="M412.923,281.263C412.923,281.519 412.917,281.69 412.903,281.778C412.871,281.921 412.8,282.05 412.687,282.155C412.513,282.313 412.209,282.394 411.784,282.394L409.896,282.394C409.474,282.394 409.171,282.313 408.997,282.155C408.886,282.05 408.812,281.921 408.78,281.778C408.757,281.69 408.747,281.519 408.747,281.263L408.747,278.487L407.624,278.487L407.624,281.253C407.624,281.634 407.642,281.915 407.688,282.101C407.747,282.313 407.847,282.515 408.016,282.704C408.317,283.048 408.909,283.216 409.771,283.216L411.913,283.216C412.774,283.216 413.365,283.048 413.666,282.704C413.836,282.515 413.938,282.313 413.994,282.101C414.042,281.915 414.059,281.634 414.059,281.253L414.059,278.487L412.923,278.487L412.923,281.263Z" style="fill:white;fill-rule:nonzero;"/>
        <path d="M419.23,282.196C419.087,282.327 418.881,282.394 418.601,282.394L415.461,282.394L415.461,281.032L418.601,281.032C418.881,281.032 419.087,281.093 419.23,281.229C419.365,281.351 419.43,281.507 419.43,281.708C419.43,281.915 419.365,282.073 419.23,282.196ZM415.461,279.308L418.624,279.308C418.793,279.308 418.92,279.349 419.025,279.435C419.119,279.524 419.166,279.626 419.166,279.753C419.166,279.88 419.112,279.993 419.008,280.071C418.912,280.169 418.785,280.21 418.624,280.21L415.461,280.21L415.461,279.308ZM419.771,280.495C420.004,280.28 420.131,280.034 420.147,279.753C420.171,279.401 420.085,279.116 419.884,278.886C419.646,278.622 419.28,278.487 418.775,278.487L414.385,278.487L414.385,283.216L418.968,283.216C419.487,283.216 419.884,283.073 420.164,282.776C420.42,282.503 420.545,282.155 420.545,281.708C420.545,281.165 420.291,280.759 419.771,280.495Z" style="fill:white;fill-rule:nonzero;"/>
        <path d="M366.735,165.175C366.652,164.721 366.569,164.269 366.485,163.817C363.435,164.372 360.395,164.987 357.361,165.665C357.939,168.252 358.518,170.836 359.096,173.42C362.023,172.766 364.963,172.171 367.906,171.636C367.825,171.182 367.741,170.731 367.661,170.278C365.331,170.704 363.006,171.164 360.685,171.659C360.526,170.912 360.365,170.167 360.207,169.418C362.549,168.915 364.897,168.452 367.253,168.024C367.172,167.572 367.084,167.118 367.004,166.666C364.635,167.098 362.272,167.565 359.916,168.069C359.811,167.576 359.702,167.083 359.598,166.588C361.971,166.079 364.35,165.61 366.735,165.175Z" style="fill:white;fill-rule:nonzero;"/>
        <path d="M371.723,168.032C372.199,166.679 372.685,165.334 373.183,163.986C374.056,165.124 374.92,166.267 375.769,167.411C374.421,167.606 373.071,167.811 371.723,168.032ZM374.195,162.548C373.394,162.665 372.589,162.791 371.788,162.916C370.59,165.788 369.447,168.667 368.362,171.555C369.125,171.418 369.889,171.284 370.653,171.153C370.842,170.605 371.028,170.057 371.219,169.51C373.046,169.209 374.874,168.929 376.707,168.674C377.048,169.137 377.387,169.606 377.722,170.073C378.488,169.969 379.258,169.87 380.023,169.774C378.135,167.341 376.191,164.93 374.195,162.548Z" style="fill:white;fill-rule:nonzero;"/>
        <path d="M382.479,164.393C382.246,164.418 382.047,164.375 381.875,164.233C381.724,164.114 381.635,163.949 381.609,163.725C381.585,163.507 381.646,163.327 381.767,163.165C381.889,163 382.077,162.913 382.312,162.886C384.882,162.599 387.46,162.353 390.038,162.151C390.002,161.692 389.965,161.235 389.932,160.776C387.256,160.985 384.587,161.239 381.92,161.542C381.126,161.633 380.54,161.917 380.162,162.382C379.82,162.816 379.691,163.345 379.766,163.944C379.842,164.555 380.095,165.024 380.553,165.359C381.04,165.732 381.662,165.859 382.412,165.775C384.154,165.58 385.896,165.4 387.639,165.245C388.05,165.208 388.387,165.297 388.637,165.506C388.89,165.702 389.035,165.958 389.061,166.278C389.087,166.614 388.989,166.889 388.777,167.124C388.553,167.372 388.237,167.504 387.845,167.541C385.33,167.766 382.817,168.035 380.313,168.346C380.367,168.801 380.423,169.258 380.479,169.716C383.053,169.398 385.631,169.124 388.211,168.895C389.179,168.807 389.913,168.506 390.385,167.973C390.82,167.481 391.007,166.874 390.952,166.127C390.895,165.393 390.633,164.82 390.145,164.402C389.601,163.96 388.865,163.764 387.914,163.847C386.101,164.007 384.289,164.188 382.479,164.393Z" style="fill:white;fill-rule:nonzero;"/>
        <path d="M399.922,160.209C396.831,160.316 393.739,160.487 390.655,160.721C390.689,161.181 390.725,161.636 390.755,162.096C391.968,162.004 393.178,161.924 394.386,161.853C394.514,164.038 394.646,166.223 394.775,168.407C395.41,168.37 396.048,168.334 396.687,168.301C396.574,166.115 396.464,163.927 396.352,161.744C397.558,161.681 398.765,161.629 399.97,161.589C399.952,161.128 399.939,160.669 399.922,160.209Z" style="fill:white;fill-rule:nonzero;"/>
        <path d="M413.849,166.706C411.666,166.649 409.48,166.625 407.296,166.631C406.567,166.635 406.063,166.507 405.749,166.243C405.558,166.071 405.432,165.856 405.373,165.617C405.344,165.471 405.328,165.175 405.323,164.747C405.316,164.286 405.312,163.826 405.304,163.365C405.299,162.935 405.309,162.644 405.336,162.493C405.389,162.239 405.512,162.037 405.703,161.859C406.02,161.589 406.53,161.452 407.281,161.445C409.514,161.438 411.747,161.463 413.98,161.52C413.992,161.061 414.004,160.599 414.016,160.142C411.695,160.081 409.375,160.056 407.053,160.066C406.242,160.072 405.614,160.133 405.197,160.243C404.724,160.369 404.325,160.618 403.998,160.959C403.712,161.258 403.524,161.611 403.436,161.987C403.37,162.284 403.337,162.754 403.352,163.411C403.361,163.864 403.37,164.314 403.379,164.764C403.394,165.421 403.444,165.889 403.521,166.184C403.624,166.557 403.818,166.9 404.11,167.19C404.453,167.534 404.847,167.768 405.307,167.881C405.699,167.973 406.295,168.018 407.088,168.014C409.328,168.004 411.571,168.032 413.813,168.086C413.825,167.625 413.837,167.165 413.849,166.706Z" style="fill:white;fill-rule:nonzero;"/>
        <path d="M424.048,165.3C424.016,165.731 423.983,166.008 423.945,166.155C423.873,166.403 423.735,166.598 423.534,166.758C423.219,167.004 422.693,167.102 421.964,167.058C420.727,166.983 419.491,166.915 418.253,166.86C417.52,166.827 417.014,166.671 416.722,166.393C416.542,166.212 416.426,166.007 416.378,165.75C416.358,165.602 416.354,165.321 416.37,164.891C416.386,164.426 416.402,163.963 416.422,163.5C416.436,163.07 416.46,162.776 416.492,162.63C416.558,162.379 416.689,162.181 416.889,162.016C417.204,161.758 417.737,161.644 418.487,161.678C419.752,161.736 421.018,161.804 422.284,161.88C423.03,161.926 423.548,162.096 423.835,162.387C424.016,162.57 424.126,162.78 424.162,163.039C424.181,163.188 424.174,163.481 424.146,163.912C424.112,164.375 424.081,164.838 424.048,165.3ZM426.093,162.645C426.025,162.264 425.856,161.912 425.588,161.597C425.283,161.225 424.895,160.968 424.433,160.813C424.019,160.663 423.397,160.58 422.59,160.53C421.164,160.442 419.738,160.365 418.311,160.303C417.503,160.266 416.885,160.285 416.462,160.39C415.985,160.494 415.573,160.706 415.23,161.045C414.929,161.332 414.725,161.663 414.616,162.033C414.539,162.326 414.483,162.794 414.468,163.45C414.455,163.903 414.444,164.354 414.43,164.804C414.411,165.459 414.439,165.932 414.5,166.227C414.583,166.606 414.764,166.958 415.036,167.264C415.364,167.62 415.748,167.874 416.202,168.012C416.591,168.119 417.166,168.195 417.962,168.231C419.341,168.291 420.719,168.362 422.093,168.448C422.903,168.499 423.482,168.485 423.884,168.422C424.346,168.333 424.754,168.122 425.121,167.797C425.427,167.528 425.643,167.193 425.766,166.827C425.855,166.538 425.934,166.073 425.985,165.418C426.023,164.967 426.056,164.522 426.092,164.07C426.145,163.415 426.139,162.944 426.093,162.645Z" style="fill:white;fill-rule:nonzero;"/>
        <path d="M429.508,166.113C430.308,164.929 431.117,163.748 431.939,162.57C432.496,163.89 433.042,165.212 433.576,166.536C432.223,166.385 430.864,166.243 429.508,166.113ZM433.278,161.431C432.473,161.346 431.665,161.261 430.858,161.182C428.977,163.659 427.151,166.159 425.379,168.678C426.148,168.739 426.92,168.801 427.69,168.87C428.007,168.385 428.328,167.903 428.649,167.419C430.488,167.59 432.327,167.778 434.161,167.992C434.374,168.53 434.582,169.068 434.792,169.604C435.562,169.698 436.329,169.793 437.096,169.893C435.879,167.062 434.605,164.241 433.278,161.431Z" style="fill:white;fill-rule:nonzero;"/>
        <path d="M440.827,165.305C440.594,165.272 440.411,165.176 440.283,164.999C440.166,164.845 440.121,164.665 440.152,164.438C440.182,164.223 440.275,164.063 440.448,163.937C440.606,163.813 440.809,163.771 441.043,163.805C443.607,164.173 446.168,164.587 448.723,165.043C448.804,164.59 448.883,164.14 448.964,163.684C446.319,163.211 443.666,162.786 441.003,162.404C440.215,162.291 439.575,162.422 439.093,162.775C438.651,163.108 438.395,163.589 438.313,164.186C438.233,164.798 438.361,165.315 438.715,165.756C439.096,166.239 439.668,166.518 440.412,166.625C442.15,166.874 443.885,167.143 445.615,167.432C446.021,167.499 446.312,167.67 446.519,167.938C446.711,168.188 446.789,168.474 446.734,168.79C446.677,169.122 446.51,169.364 446.245,169.535C445.951,169.716 445.625,169.77 445.235,169.705C442.74,169.289 440.236,168.915 437.733,168.583C437.671,169.041 437.611,169.499 437.55,169.954C440.122,170.293 442.688,170.678 445.25,171.107C446.208,171.267 446.994,171.161 447.59,170.762C448.138,170.399 448.473,169.86 448.604,169.122C448.737,168.397 448.627,167.778 448.259,167.249C447.844,166.684 447.176,166.308 446.235,166.15C444.435,165.846 442.633,165.565 440.827,165.305Z" style="fill:white;fill-rule:nonzero;"/>
        <path d="M458.822,165.665C455.785,164.987 452.737,164.37 449.684,163.813C449.601,164.268 449.52,164.72 449.436,165.172C450.631,165.389 451.826,165.617 453.022,165.852C452.595,168 452.17,170.149 451.744,172.295C452.374,172.417 453.001,172.545 453.63,172.677C454.073,170.532 454.517,168.39 454.958,166.246C456.151,166.493 457.336,166.75 458.52,167.011C458.622,166.563 458.722,166.113 458.822,165.665Z" style="fill:white;fill-rule:nonzero;"/>
        <path d="M366.046,248.519L369.398,248.519L368.152,246.519L364.888,246.519L363.641,248.368L363.641,250.495L367.151,252.466L367.151,254.036L363.641,254.036L363.641,256.037L368.31,256.037L369.557,254.188L369.557,251.55L366.046,249.499L366.046,248.519Z" style="fill:rgb(5,193,198);fill-rule:nonzero;"/>
        <path d="M373.936,252.466L373.936,254.036L372.831,254.036L372.831,251.847L373.936,252.466ZM372.831,248.519L376.184,248.519L374.937,246.519L371.674,246.519L370.427,248.368L370.427,254.188L371.674,256.037L375.096,256.037L376.344,254.188L376.344,251.55L372.831,249.499L372.831,248.519Z" style="fill:rgb(5,193,198);fill-rule:nonzero;"/>
        <path d="M444.262,253.11L417.217,253.11L408.492,240.175L399.765,253.11L379.499,253.11C379.612,252.517 379.678,251.905 379.678,251.278C379.678,248.741 378.691,246.438 377.09,244.71L371.197,235.659L368.876,235.659L373.071,242.103C372.787,242.007 372.499,241.927 372.206,241.858L368.171,235.659L366.849,235.659L366.849,237.198L369.718,241.606C369.492,241.612 369.264,241.618 369.041,241.64L366.849,238.272L366.849,242.126C365.141,242.714 363.644,243.759 362.518,245.124L362.518,230.126C362.556,230.091 362.605,230.044 362.64,230.012C362.845,229.824 362.995,229.684 363.081,229.602C363.454,229.238 363.764,228.785 364.004,228.254C366.299,230.155 368.378,231.122 370.185,231.126C372.691,231.126 374.667,229.697 376.147,228.629C376.274,228.537 376.415,228.436 376.547,228.342L376.794,228.439C377.52,228.738 378.415,229.105 379.502,229.15C379.961,229.9 380.621,230.505 381.417,230.901C382.488,231.437 384.039,231.548 385.15,231.548C386.113,231.548 388.134,231.45 389.879,230.745L392.458,234.708C392.386,235.015 392.327,235.282 392.283,235.517L389.865,231.804L389.865,235.374L398.038,247.927L399.221,246.173L396.038,241.282C396.312,241.358 396.585,241.417 396.857,241.464L399.579,245.644L400.76,243.892L399.267,241.597C399.459,241.587 399.684,241.571 399.936,241.546L401.117,243.36L402.299,241.61L402.015,241.173C402.908,240.927 403.796,240.546 404.419,239.95C405.837,238.591 406.482,235.915 407.697,230.476L407.743,230.263C408.054,228.881 408.378,227.426 408.735,225.981C409.496,222.898 410.304,219.735 411.012,217.001C411.12,217.062 411.234,217.107 411.345,217.163L413.723,220.895C413.642,221.163 413.572,221.409 413.51,221.645L411.345,218.318L411.345,221.893L413.32,224.926C413.507,225.7 413.867,226.43 414.424,227.086C414.669,227.375 414.944,227.641 415.245,227.885L428.847,248.78L431.174,248.78L418.675,229.578C418.956,229.66 419.237,229.738 419.523,229.805L431.874,248.78L434.198,248.78L422.086,230.175C422.334,230.19 422.572,230.198 422.807,230.202L434.898,248.78L437.223,248.78L428.682,235.659L427.118,235.659L427.118,233.255L425.014,230.023C425.227,229.984 425.438,229.945 425.633,229.895L427.118,232.179L427.118,229.152C427.772,228.592 428.362,227.729 429.111,226.447C429.219,226.594 429.335,226.738 429.46,226.877C430.651,228.215 432.566,229.145 434.36,229.299L434.36,229.354L441.932,240.989C441.947,241.528 442.073,242.077 442.294,242.628L434.36,230.438L434.36,234.003L442.988,247.255L444.168,245.505L444.043,245.313C444.982,246.374 446.168,247.401 447.475,248.351L444.262,253.11ZM361.348,251.278C361.348,246.503 365.218,242.634 369.99,242.634C374.766,242.634 378.637,246.503 378.637,251.278C378.637,256.052 374.766,259.921 369.99,259.921C365.218,259.921 361.348,256.052 361.348,251.278ZM372.72,182.04L398.83,182.04L404.509,191.155C404.092,192.946 403.65,194.952 403.176,197.204L396.424,186.37L394.275,186.37L402.729,199.356C402.638,199.795 402.546,200.235 402.454,200.692C402.258,201.659 402.047,202.699 401.87,203.532C401.382,202.958 400.739,202.485 399.952,202.125C399.366,201.859 398.714,201.723 398.01,201.723C395.646,201.723 392.651,203.422 390.513,204.883C388.854,203.897 387.594,203.401 386.658,203.366L386.496,203.363C385.063,203.363 383.733,204.045 382.969,205.159C382.856,205.09 382.737,205.041 382.623,204.979L382.623,202.079L373.688,188.354L372.505,190.108L381.975,204.658C381.675,204.531 381.37,204.421 381.063,204.333L372.148,190.635L370.965,192.389L378.592,204.106C378.382,204.131 378.177,204.174 377.972,204.237L370.606,192.921L369.424,194.672L376.283,205.208C376.14,205.329 375.989,205.462 375.839,205.604L369.068,195.203L367.885,196.956L374.472,207.077C374.349,207.225 374.216,207.393 374.085,207.556L367.528,197.485L366.849,198.491L366.849,200.014L372.826,209.196C372.805,209.223 372.787,209.245 372.767,209.273C372.499,208.706 372.128,208.161 371.661,207.653C371.289,207.248 370.871,206.895 370.429,206.586L366.849,201.087L366.849,204.657L367.336,205.405C367.199,205.393 367.061,205.377 366.926,205.377C366.31,205.377 365.724,205.495 365.182,205.723C365.126,205.747 365.071,205.772 365.016,205.799C364.386,204.852 363.508,203.76 362.518,202.708L362.518,197.167L372.72,182.04ZM443.33,182.04L456.897,203.823L448.59,203.823C447.02,202.785 445.277,202.026 443.524,202.026L443.382,202.027C440.863,202.086 438.909,203.583 437.482,204.676C437.366,204.766 437.237,204.864 437.113,204.957C436.93,204.883 436.734,204.801 436.566,204.729C435.582,204.315 434.472,203.848 433.262,203.823C433.433,203.593 433.584,203.346 433.715,203.083C434.269,201.971 434.379,200.641 434.079,199.492L435.396,199.492L428.246,188.508C428.336,188.26 428.41,188.023 428.479,187.79L436.096,199.492L438.42,199.492L429.88,186.37L428.772,186.37C428.812,185.987 428.824,185.621 428.784,185.289C428.65,184.168 427.673,183.063 426.248,182.04L443.33,182.04ZM391.969,229.307L393.343,231.419C393.269,231.677 393.194,231.933 393.128,232.169L391.557,229.754C391.704,229.627 391.835,229.463 391.969,229.307ZM430.003,195.86L426.979,191.213C427.086,191.02 427.205,190.819 427.303,190.631L430.943,196.219C430.637,196.084 430.321,195.965 430.003,195.86ZM426.519,195.155L425.515,193.614C425.639,193.427 425.747,193.251 425.864,193.069L427.279,195.245C427.009,195.208 426.753,195.177 426.519,195.155ZM420.941,199.632C420.957,200.167 421.06,200.688 421.243,201.166C420.89,200.92 420.533,200.709 420.179,200.536C420.438,200.231 420.692,199.93 420.941,199.632ZM438.954,227.119L444.606,235.806C444.47,235.966 444.342,236.124 444.216,236.28L438.539,227.561C438.675,227.42 438.812,227.279 438.954,227.119ZM440.61,225.021L446.37,233.87C446.226,234.019 446.092,234.161 445.954,234.308L440.239,225.524C440.359,225.364 440.483,225.194 440.61,225.021ZM448.216,232.056C448.066,232.198 447.929,232.333 447.784,232.472L444.498,227.42C444.798,227.568 445.107,227.676 445.418,227.76L448.216,232.056ZM449.873,226.383C450.047,226.217 450.226,226.039 450.414,225.838C451.082,226.658 451.995,227.293 453.138,227.73C452.055,228.631 451.059,229.486 450.135,230.308L450.135,226.787L449.873,226.383ZM450.115,230.325C449.964,230.46 449.816,230.591 449.67,230.722L447.736,227.75C447.929,227.693 448.117,227.619 448.3,227.535L450.115,230.325ZM393.345,226.77L394.297,228.232C394.221,228.482 394.144,228.732 394.072,228.971L393.076,227.438C393.166,227.221 393.26,227.008 393.345,226.77ZM394.194,223.429L395.273,225.087C395.197,225.331 395.119,225.581 395.046,225.815L394.031,224.254C394.088,223.989 394.143,223.708 394.194,223.429ZM396.424,218.634C396.716,218.676 397.011,218.719 397.302,218.731C397.21,219.02 397.123,219.289 397.032,219.569L396.424,218.634ZM396.265,221.96C396.189,222.201 396.109,222.45 396.035,222.684L394.651,220.559C394.691,220.266 394.729,219.958 394.765,219.655L396.265,221.96ZM459.174,252.524L458.964,252.519C454.95,252.276 442.935,245.997 442.945,240.868C442.947,239.263 445.03,235.651 454.946,227.563L455.316,227.26L454.849,227.166C452.847,226.756 451.416,225.813 450.714,224.441L450.562,224.141L450.341,224.396C449.465,225.411 448.74,226.098 448.191,226.439C447.705,226.744 447.142,226.902 446.563,226.902C445.479,226.902 444.37,226.361 443.438,225.375C442.557,224.444 441.979,223.265 441.85,222.139L441.78,221.525L441.438,222.04C438.42,226.559 436.977,228.072 435.498,228.27C435.298,228.297 435.09,228.311 434.876,228.311C433.217,228.311 431.346,227.461 430.222,226.197C429.819,225.747 429.524,225.255 429.342,224.736L429.177,224.258L428.931,224.701C427.26,227.703 426.571,228.559 425.584,228.865C424.89,229.08 424.03,229.189 423.032,229.189C420.503,229.189 416.935,228.465 415.2,226.426C414.371,225.451 414.041,224.283 414.241,223.049C414.499,221.475 415.402,219.026 416.342,216.614L416.614,215.913L416,216.346C415.482,216.711 414.993,216.896 414.469,216.926L414.267,216.932C413.192,216.932 411.74,216.379 410.656,215.559L410.386,215.354L410.3,215.683C409.53,218.643 408.606,222.241 407.744,225.737C407.382,227.209 407.05,228.691 406.735,230.099L406.701,230.253C405.532,235.489 404.916,238.06 403.713,239.214C402.569,240.306 399.998,240.597 398.66,240.597C397.267,240.597 395.356,240.335 394.166,239.089C393.476,238.366 393.136,237.435 393.186,236.394C393.244,235.085 394.919,229.404 398.619,217.97L398.729,217.633L398.377,217.675C398.141,217.704 397.893,217.717 397.635,217.717C396.492,217.717 395.265,217.435 394.352,216.961L394.056,216.809L394.021,217.139C393.405,223.174 392.635,227.502 390.873,229C389.255,230.38 386.332,230.528 385.15,230.528C384.148,230.528 382.767,230.435 381.872,229.988C381.11,229.607 380.54,229.025 380.178,228.256L380.112,228.117C380.112,228.117 379.799,228.135 379.719,228.135C378.736,228.135 377.874,227.781 377.177,227.496C376.977,227.412 376.7,227.301 376.512,227.24L376.413,227.209L376.324,227.264C376.104,227.4 375.776,227.639 375.494,227.842C374.173,228.797 372.362,230.104 370.185,230.104C368.428,230.103 366.213,228.926 363.78,226.707L363.493,226.445L363.405,226.824C363.205,227.709 362.854,228.396 362.368,228.869C362.288,228.949 362.144,229.082 361.948,229.262C360.929,230.202 358.219,232.696 356.038,235.636C354.894,237.177 353.798,238.794 352.738,240.356C349.521,245.106 348.02,247.214 346.173,247.464C346.012,247.485 345.861,247.495 345.718,247.495C343.923,247.495 343.017,246.097 342.267,244.94C341.981,244.501 341.686,244.048 341.307,243.558C340.76,242.851 339.993,242.146 339.25,241.462C337.695,240.028 336.086,238.548 336.57,236.671C337.156,234.419 340.851,230.956 346.931,225.46C347.678,224.785 348.509,224.034 349.308,223.299L349.092,222.914C348.315,223.129 347.79,223.221 347.334,223.221C347.09,223.221 346.866,223.194 346.653,223.139C345.239,222.77 343.396,221.022 342.283,219.554C340.461,217.155 339.774,214.62 340.351,212.417C341.469,208.126 351.705,199.301 355.563,199.301C355.707,199.301 355.844,199.311 355.973,199.33C358.534,199.686 362.954,204.235 364.57,207.01L364.702,207.237L364.907,207.074C365.137,206.893 365.363,206.754 365.579,206.663C365.993,206.487 366.447,206.399 366.926,206.399C368.281,206.399 369.807,207.143 370.909,208.342C371.679,209.18 372.139,210.125 372.237,211.078L372.301,211.676L372.647,211.185C375.793,206.743 377.278,205.265 378.762,205.107C378.922,205.09 379.084,205.083 379.249,205.083C380.543,205.083 381.992,205.614 383.123,206.502L383.378,206.702L383.479,206.395C383.874,205.21 385.115,204.383 386.492,204.383L386.634,204.385C387.444,204.417 388.72,204.966 390.423,206.022L390.549,206.101L390.672,206.015C392.405,204.793 395.664,202.744 398.01,202.744C398.565,202.744 399.077,202.848 399.528,203.053C401.043,203.744 401.547,204.758 401.796,205.46L401.884,205.712L402.118,205.584C402.262,205.504 402.389,205.415 402.472,205.332L402.515,205.29L402.531,205.229C402.702,204.594 403.101,202.629 403.455,200.895C407.443,181.293 409.124,178.031 411.604,177.792C411.744,177.778 411.893,177.772 412.053,177.772C415.132,177.772 427.38,182.139 427.773,185.411C428.11,188.207 424.96,193.5 418.669,200.721L418.431,200.996L418.781,201.089C420.022,201.424 421.119,202.285 421.818,202.947L421.914,203.038L422.042,202.999C422.463,202.868 422.902,202.763 423.315,202.696L423.843,202.61L423.413,202.291C423.082,202.045 422.822,201.81 422.662,201.613C421.905,200.682 421.743,199.27 422.251,198.015C422.682,196.95 423.545,196.243 424.561,196.122C424.695,196.106 424.88,196.095 425.106,196.095C425.169,196.095 431.464,196.133 432.918,199.186C433.391,200.186 433.345,201.538 432.803,202.629C432.289,203.659 431.388,204.356 430.262,204.59C430.045,204.635 429.806,204.656 429.559,204.659L429.099,204.665L429.383,205.026C429.64,205.35 429.819,205.643 429.949,205.948L430.09,206.279L430.328,206.008C430.836,205.431 431.594,205.053 432.578,204.888C432.766,204.858 432.957,204.842 433.154,204.842C434.201,204.842 435.249,205.282 436.176,205.672C436.477,205.799 436.889,205.972 437.165,206.062L437.27,206.096L437.362,206.034C437.57,205.892 437.86,205.67 438.14,205.458C439.439,204.461 441.221,203.099 443.404,203.047L443.533,203.045C448.464,203.045 453.798,210.303 453.85,210.375C454.012,210.609 454.149,210.845 454.268,211.081L454.406,211.354L454.628,211.141C456.416,209.418 458.049,208.149 459.48,207.368C461.682,206.168 463.803,205.561 465.786,205.561C466.865,205.561 467.881,205.741 468.804,206.095C469.336,206.301 469.821,206.586 470.245,206.946L470.344,207.03L470.466,206.987C471.238,206.718 471.966,206.583 472.632,206.583C473.287,206.583 473.893,206.71 474.433,206.964C477.176,208.247 477.136,210.309 476.866,211.749C476.771,212.254 476.299,213.959 475.501,216.681L475.384,217.081L475.783,216.962C476.307,216.807 476.732,216.729 477.051,216.729L477.203,216.727L477.488,216.768C479.088,217.053 479.62,217.898 479.785,218.556C480.162,220.056 478.807,221.127 478.36,221.48C477.373,222.262 474.784,223.985 473.718,224.69L473.653,224.731L473.629,224.804C472.401,228.314 466.231,245.919 465.294,247.753C464.09,250.097 461.471,252.522 459.174,252.524ZM436.484,229.049C436.663,228.98 436.841,228.896 437.02,228.795L442.991,237.972C442.871,238.165 442.762,238.353 442.662,238.536L436.484,229.049ZM480.776,218.307C480.58,217.53 479.913,216.165 477.64,215.76L477.235,215.708C477.235,215.708 476.915,215.711 476.846,215.716C477.446,213.637 477.782,212.399 477.868,211.936C478.061,210.915 478.645,207.805 474.866,206.041C474.19,205.723 473.438,205.562 472.632,205.562C471.978,205.562 471.277,205.672 470.549,205.889C470.128,205.584 469.666,205.334 469.17,205.143C468.13,204.743 466.992,204.54 465.786,204.54C465.271,204.54 464.748,204.583 464.219,204.657L446.535,176.263L414.149,176.263L413.675,176.962C412.986,176.826 412.425,176.751 412.053,176.751C411.857,176.751 411.676,176.76 411.506,176.776C409.606,176.959 408.215,178.266 406.542,183.5L402.034,176.263L369.649,176.263L356.741,195.399L356.741,198.465C356.527,198.399 356.315,198.347 356.113,198.319C355.94,198.295 355.757,198.282 355.563,198.282C351.331,198.282 340.582,207.491 339.363,212.159C338.707,214.671 339.456,217.516 341.47,220.171C342.729,221.829 344.739,223.694 346.394,224.125C346.526,224.16 346.659,224.186 346.797,224.206L346.18,224.763C339.457,230.841 336.22,233.97 335.583,236.417C334.946,238.884 336.866,240.651 338.561,242.214C339.271,242.866 340.005,243.542 340.501,244.185C340.859,244.646 341.139,245.075 341.433,245.53C342.25,246.79 343.368,248.517 345.718,248.517C345.903,248.517 346.098,248.503 346.308,248.476C348.591,248.169 350.188,245.94 353.584,240.929C354.599,239.429 355.65,237.882 356.741,236.403L356.741,258.886L364.015,258.886C365.663,260.184 367.736,260.964 369.99,260.964C372.247,260.964 374.321,260.184 375.969,258.886L402.836,258.886L408.492,250.505L414.146,258.886L447.331,258.886L452.427,251.335C454.999,252.616 457.439,253.448 458.93,253.538L459.168,253.544C461.962,253.544 464.877,250.8 466.201,248.216C467.135,246.39 472.757,230.384 474.504,225.393C475.807,224.531 478.057,223.022 478.993,222.28C480.532,221.065 481.131,219.728 480.776,218.307Z" style="fill:rgb(183,196,6);fill-rule:nonzero;"/>
        <path d="M357.416,209.999C357.741,210.199 358.128,210.46 358.417,210.655C359.072,211.098 359.746,211.555 360.438,211.911C360.386,212.018 360.333,212.125 360.283,212.233C359.574,211.805 358.715,211.614 357.506,211.614C356.71,211.614 355.812,211.693 354.842,211.792C355.812,211.032 356.765,210.366 357.416,209.999ZM358.984,209.808C358.539,209.508 357.931,209.096 357.54,208.893L357.441,208.842L357.342,208.889C356.23,209.403 353.847,211.165 352.241,212.659L351.769,213.1L352.413,213.051C353.023,213.004 353.681,212.937 354.326,212.87C355.49,212.749 356.589,212.634 357.506,212.634C358.532,212.634 359.233,212.785 359.778,213.122C359.997,213.256 360.214,213.429 360.423,213.636L360.655,213.866L360.79,213.569C361.088,212.905 361.398,212.252 361.716,211.629L361.832,211.403L361.595,211.313C360.739,210.995 359.888,210.419 358.984,209.808Z" style="fill:rgb(183,196,6);fill-rule:nonzero;"/>
        <path d="M402.115,199.492L393.573,186.37L391.249,186.37L399.79,199.492L402.115,199.492Z" style="fill:rgb(183,196,6);fill-rule:nonzero;"/>
        <path d="M399.091,199.492L390.549,186.37L388.221,186.37L396.763,199.492L399.091,199.492Z" style="fill:rgb(183,196,6);fill-rule:nonzero;"/>
        <path d="M396.063,199.492L387.521,186.37L385.201,186.37L393.743,199.492L396.063,199.492Z" style="fill:rgb(183,196,6);fill-rule:nonzero;"/>
        <path d="M393.037,199.492L384.497,186.37L382.173,186.37L390.715,199.492L393.037,199.492Z" style="fill:rgb(183,196,6);fill-rule:nonzero;"/>
        <path d="M386.988,199.492L378.447,186.37L376.123,186.37L384.663,199.492L386.988,199.492Z" style="fill:rgb(183,196,6);fill-rule:nonzero;"/>
        <path d="M382.623,199.492L383.963,199.492L375.421,186.37L375.024,186.37L374.044,187.825L382.623,201.002L382.623,199.492Z" style="fill:rgb(183,196,6);fill-rule:nonzero;"/>
        <path d="M390.012,199.492L381.47,186.37L379.15,186.37L387.689,199.492L390.012,199.492Z" style="fill:rgb(183,196,6);fill-rule:nonzero;"/>
        <path d="M387.029,235.659L395.571,248.78L397.462,248.78L397.682,248.454L389.353,235.659L387.029,235.659Z" style="fill:rgb(183,196,6);fill-rule:nonzero;"/>
        <path d="M384.004,235.659L392.544,248.78L394.87,248.78L386.328,235.659L384.004,235.659Z" style="fill:rgb(183,196,6);fill-rule:nonzero;"/>
        <path d="M380.98,235.659L389.522,248.78L391.844,248.78L383.302,235.659L380.98,235.659Z" style="fill:rgb(183,196,6);fill-rule:nonzero;"/>
        <path d="M374.926,235.659L383.468,248.78L385.789,248.78L377.25,235.659L374.926,235.659Z" style="fill:rgb(183,196,6);fill-rule:nonzero;"/>
        <path d="M371.901,235.659L380.439,248.78L382.767,248.78L374.225,235.659L371.901,235.659Z" style="fill:rgb(183,196,6);fill-rule:nonzero;"/>
        <path d="M377.953,235.659L386.494,248.78L388.816,248.78L380.276,235.659L377.953,235.659Z" style="fill:rgb(183,196,6);fill-rule:nonzero;"/>
        <path d="M434.36,235.659L432.408,235.659L440.948,248.78L441.959,248.78L442.63,247.788L434.36,235.085L434.36,235.659Z" style="fill:rgb(183,196,6);fill-rule:nonzero;"/>
        <path d="M429.382,235.659L437.924,248.78L440.249,248.78L431.706,235.659L429.382,235.659Z" style="fill:rgb(183,196,6);fill-rule:nonzero;"/>
        <path d="M411.345,226.533L425.826,248.78L428.147,248.78L411.345,222.967L411.345,226.533Z" style="fill:rgb(183,196,6);fill-rule:nonzero;"/>
        <path d="M411.345,235.833L419.775,248.78L422.095,248.78L411.345,232.265L411.345,235.833Z" style="fill:rgb(183,196,6);fill-rule:nonzero;"/>
        <path d="M411.345,231.187L422.799,248.78L425.12,248.78L411.345,227.617L411.345,231.187Z" style="fill:rgb(183,196,6);fill-rule:nonzero;"/>
        <path d="M449.434,199.492L440.925,186.37L439.658,186.37L448.198,199.492L449.434,199.492Z" style="fill:rgb(183,196,6);fill-rule:nonzero;"/>
        <path d="M447.493,199.492L438.952,186.37L436.63,186.37L445.168,199.492L447.493,199.492Z" style="fill:rgb(183,196,6);fill-rule:nonzero;"/>
        <path d="M441.444,199.492L432.904,186.37L430.582,186.37L439.123,199.492L441.444,199.492Z" style="fill:rgb(183,196,6);fill-rule:nonzero;"/>
        <path d="M444.471,199.492L435.929,186.37L433.606,186.37L442.148,199.492L444.471,199.492Z" style="fill:rgb(183,196,6);fill-rule:nonzero;"/>
    </g>
</svg>
