<?xml version="1.0" encoding="UTF-8" standalone="no"?>
<!DOCTYPE svg PUBLIC "-//W3C//DTD SVG 1.1//EN" "http://www.w3.org/Graphics/SVG/1.1/DTD/svg11.dtd">
<svg width="100%" height="100%" viewBox="0 0 209 209" version="1.1" xmlns="http://www.w3.org/2000/svg" xmlns:xlink="http://www.w3.org/1999/xlink" xml:space="preserve" xmlns:serif="http://www.serif.com/" style="fill-rule:evenodd;clip-rule:evenodd;stroke-linejoin:round;stroke-miterlimit:1.41421;">
    <g transform="matrix(1,0,0,1,-1636.21,-1156.55)">
        <g transform="matrix(4.16667,0,0,4.16667,0,0)">
            <path d="M442.691,324.572C442.691,326.223 441.341,327.572 439.691,327.572L395.691,327.572C394.042,327.572 392.691,326.223 392.691,324.572L392.691,280.572C392.691,278.923 394.042,277.572 395.691,277.572L439.691,277.572C441.341,277.572 442.691,278.923 442.691,280.572L442.691,324.572Z" style="fill:white;fill-rule:nonzero;"/>
        </g>
        <g transform="matrix(4.16667,0,0,4.16667,0,0)">
            <path d="M423.091,292.906C420.778,292.906 418.644,294.667 417.69,296.613C416.738,294.667 414.583,292.91 412.271,292.91C409.034,292.91 406.587,295.529 406.587,298.764C406.587,304.637 416.243,314.238 417.69,314.238C419.138,314.238 428.796,304.637 428.796,298.764C428.796,295.529 426.326,292.906 423.091,292.906Z" style="fill:rgb(237,31,36);fill-rule:nonzero;"/>
        </g>
        <g transform="matrix(4.16667,0,0,4.16667,0,0)">
            <path d="M399.447,286.909L402.997,286.909L401.908,284.014C401.573,283.133 401.324,282.41 401.161,281.842C401.028,282.514 400.84,283.18 400.597,283.841L399.447,286.909ZM396.427,291.215L400.446,280.737L401.941,280.737L406.229,291.215L404.651,291.215L403.439,288.043L399.042,288.043L397.898,291.215L396.427,291.215Z" style="fill:rgb(237,31,36);fill-rule:nonzero;"/>
        </g>
        <g transform="matrix(4.16667,0,0,4.16667,0,0)">
            <path d="M432.372,319.834L435.922,319.834L434.833,316.939C434.498,316.059 434.249,315.335 434.085,314.768C433.952,315.438 433.765,316.104 433.52,316.766L432.372,319.834ZM429.351,324.14L433.372,313.662L434.866,313.662L439.155,324.14L437.576,324.14L436.364,320.969L431.968,320.969L430.823,324.14L429.351,324.14Z" style="fill:rgb(237,31,36);fill-rule:nonzero;"/>
        </g>
        <g transform="matrix(4.16667,0,0,4.16667,0,0)">
            <path d="M439.691,327.572L395.691,327.572C394.911,327.572 394.198,327.271 393.664,326.779C394.199,327.271 394.912,327.572 395.691,327.572L439.691,327.572C441.341,327.572 442.691,326.223 442.691,324.572L442.691,280.572L442.691,324.572C442.691,326.223 441.341,327.572 439.691,327.572ZM442.691,280.572C442.691,279.872 442.448,279.226 442.042,278.714C442.449,279.225 442.691,279.872 442.691,280.572Z" style="fill:rgb(14,116,59);fill-rule:nonzero;"/>
        </g>
        <g transform="matrix(4.16667,0,0,4.16667,0,0)">
            <path d="M439.691,327.572L395.691,327.572C394.912,327.572 394.199,327.271 393.664,326.779C393.633,326.75 393.603,326.721 393.573,326.691L411.58,308.684C414.18,311.828 416.965,314.238 417.69,314.238C419.138,314.238 428.796,304.637 428.796,298.764C428.796,296.752 427.841,294.978 426.341,293.923L441.81,278.454C441.892,278.536 441.969,278.623 442.042,278.714C442.448,279.226 442.691,279.872 442.691,280.572L442.691,324.572C442.691,326.223 441.341,327.572 439.691,327.572ZM431.968,320.969L436.364,320.969L437.576,324.14L439.155,324.14L434.866,313.662L433.372,313.662L429.351,324.14L430.823,324.14L431.968,320.969ZM435.922,319.834L432.372,319.834L433.52,316.766C433.765,316.104 433.952,315.438 434.085,314.768C434.249,315.335 434.498,316.059 434.833,316.939L435.922,319.834Z" style="fill:rgb(229,229,229);fill-rule:nonzero;"/>
        </g>
        <g transform="matrix(4.16667,0,0,4.16667,0,0)">
            <path d="M417.69,314.238C416.965,314.238 414.18,311.828 411.58,308.684L426.341,293.923C427.841,294.978 428.796,296.752 428.796,298.764C428.796,304.637 419.138,314.238 417.69,314.238Z" style="fill:rgb(228,30,37);fill-rule:nonzero;"/>
        </g>
        <g transform="matrix(4.16667,0,0,4.16667,0,0)">
            <path d="M439.155,324.14L437.576,324.14L436.364,320.969L431.968,320.969L430.823,324.14L429.351,324.14L433.372,313.662L434.866,313.662L439.155,324.14ZM434.085,314.768C433.952,315.438 433.765,316.104 433.52,316.766L432.372,319.834L435.922,319.834L434.833,316.939C434.498,316.059 434.249,315.335 434.085,314.768Z" style="fill:rgb(228,30,37);fill-rule:nonzero;"/>
        </g>
    </g>
</svg>
