<?xml version="1.0" encoding="UTF-8" standalone="no"?>
<!DOCTYPE svg PUBLIC "-//W3C//DTD SVG 1.1//EN" "http://www.w3.org/Graphics/SVG/1.1/DTD/svg11.dtd">
<svg width="100%" height="100%" viewBox="0 0 209 209" version="1.1" xmlns="http://www.w3.org/2000/svg" xmlns:xlink="http://www.w3.org/1999/xlink" xml:space="preserve" xmlns:serif="http://www.serif.com/" style="fill-rule:evenodd;clip-rule:evenodd;stroke-linejoin:round;stroke-miterlimit:1.41421;">
    <g transform="matrix(1,0,0,1,-1859.24,-1834.81)">
        <g transform="matrix(4.16667,0,0,4.16667,0,0)">
            <path d="M496.218,487.352C496.218,489.002 494.868,490.352 493.218,490.352L449.218,490.352C447.568,490.352 446.218,489.002 446.218,487.352L446.218,443.353C446.218,441.703 447.568,440.353 449.218,440.353L493.218,440.353C494.868,440.353 496.218,441.703 496.218,443.353L496.218,487.352Z" style="fill:rgb(245,161,186);fill-rule:nonzero;"/>
        </g>
        <g transform="matrix(4.16667,0,0,4.16667,0,0)">
            <path d="M446.218,445.744L446.218,444.33L450.195,440.353L451.609,440.353L446.218,445.744Z" style="fill:rgb(196,128,149);fill-rule:nonzero;"/>
        </g>
        <g transform="matrix(4.16667,0,0,4.16667,0,0)">
            <path d="M446.218,452.219L446.218,450.805L456.669,440.353L458.083,440.353L446.218,452.219Z" style="fill:rgb(196,128,149);fill-rule:nonzero;"/>
        </g>
        <g transform="matrix(4.16667,0,0,4.16667,0,0)">
            <path d="M446.218,458.691L446.218,457.277L463.143,440.353L464.557,440.353L446.218,458.691Z" style="fill:rgb(196,128,149);fill-rule:nonzero;"/>
        </g>
        <g transform="matrix(4.16667,0,0,4.16667,0,0)">
            <path d="M446.218,465.166L446.218,463.752L469.617,440.353L471.031,440.353L446.218,465.166Z" style="fill:rgb(196,128,149);fill-rule:nonzero;"/>
        </g>
        <g transform="matrix(4.16667,0,0,4.16667,0,0)">
            <path d="M446.218,471.639L446.218,470.225L476.09,440.353L477.504,440.353L446.218,471.639Z" style="fill:rgb(196,128,149);fill-rule:nonzero;"/>
        </g>
        <g transform="matrix(4.16667,0,0,4.16667,0,0)">
            <path d="M446.218,478.113L446.218,476.699L482.564,440.353L483.979,440.353L446.218,478.113Z" style="fill:rgb(196,128,149);fill-rule:nonzero;"/>
        </g>
        <g transform="matrix(4.16667,0,0,4.16667,0,0)">
            <path d="M446.218,484.586L446.218,483.172L489.037,440.353L490.451,440.353L446.218,484.586Z" style="fill:rgb(196,128,149);fill-rule:nonzero;"/>
        </g>
        <g transform="matrix(4.16667,0,0,4.16667,0,0)">
            <path d="M447.104,489.467C446.986,489.349 446.877,489.221 446.779,489.084L494.949,440.914C495.086,441.012 495.214,441.12 495.333,441.239L447.104,489.467Z" style="fill:rgb(196,128,149);fill-rule:nonzero;"/>
        </g>
        <g transform="matrix(4.16667,0,0,4.16667,0,0)">
            <path d="M493.218,490.352L449.218,490.352C448.435,490.352 447.72,490.049 447.184,489.552C447.72,490.048 448.435,490.352 449.218,490.352L493.218,490.352C494.868,490.352 496.218,489.002 496.218,487.352L496.218,486.377L496.218,484.963L496.218,479.902L496.218,478.488L496.218,473.43L496.218,472.016L496.218,466.955L496.218,465.541L496.218,460.482L496.218,459.068L496.218,454.008L496.218,452.594L496.218,447.535L496.218,446.121L496.218,443.353L496.218,487.352C496.218,489.002 494.868,490.352 493.218,490.352ZM496.218,443.353C496.218,442.528 495.88,441.778 495.337,441.235L495.337,441.234C495.881,441.777 496.218,442.527 496.218,443.353Z" style="fill:rgb(14,116,59);fill-rule:nonzero;"/>
        </g>
        <g transform="matrix(4.16667,0,0,4.16667,0,0)">
            <path d="M493.218,490.352L492.242,490.352L496.218,486.377L496.218,487.352C496.218,489.002 494.868,490.352 493.218,490.352ZM490.828,490.352L485.768,490.352L496.218,479.902L496.218,484.963L490.828,490.352ZM484.354,490.352L479.295,490.352L496.218,473.43L496.218,478.488L484.354,490.352ZM477.881,490.352L472.82,490.352L496.218,466.955L496.218,472.016L477.881,490.352ZM471.406,490.352L466.348,490.352L496.218,460.482L496.218,465.541L471.406,490.352ZM464.934,490.352L459.873,490.352L496.218,454.008L496.218,459.068L464.934,490.352ZM458.459,490.352L453.4,490.352L496.218,447.535L496.218,452.594L458.459,490.352ZM451.986,490.352L449.218,490.352C448.435,490.352 447.72,490.048 447.184,489.552C447.155,489.526 447.127,489.498 447.1,489.471L447.104,489.467C447.222,489.585 447.35,489.693 447.486,489.791L495.656,441.621C495.559,441.484 495.451,441.357 495.333,441.239L495.337,441.234C495.88,441.778 496.218,442.528 496.218,443.353L496.218,446.121L451.986,490.352Z" style="fill:rgb(220,145,167);fill-rule:nonzero;"/>
        </g>
        <g transform="matrix(4.16667,0,0,4.16667,0,0)">
            <path d="M447.486,489.791C447.35,489.693 447.222,489.585 447.104,489.467L495.333,441.239C495.451,441.357 495.559,441.484 495.656,441.621L447.486,489.791Z" style="fill:rgb(177,116,134);fill-rule:nonzero;"/>
        </g>
        <g transform="matrix(4.16667,0,0,4.16667,0,0)">
            <path d="M453.4,490.352L451.986,490.352L496.218,446.121L496.218,447.535L453.4,490.352Z" style="fill:rgb(177,116,134);fill-rule:nonzero;"/>
        </g>
        <g transform="matrix(4.16667,0,0,4.16667,0,0)">
            <path d="M459.873,490.352L458.459,490.352L496.218,452.594L496.218,454.008L459.873,490.352Z" style="fill:rgb(177,116,134);fill-rule:nonzero;"/>
        </g>
        <g transform="matrix(4.16667,0,0,4.16667,0,0)">
            <path d="M466.348,490.352L464.934,490.352L496.218,459.068L496.218,460.482L466.348,490.352Z" style="fill:rgb(177,116,134);fill-rule:nonzero;"/>
        </g>
        <g transform="matrix(4.16667,0,0,4.16667,0,0)">
            <path d="M472.82,490.352L471.406,490.352L496.218,465.541L496.218,466.955L472.82,490.352Z" style="fill:rgb(177,116,134);fill-rule:nonzero;"/>
        </g>
        <g transform="matrix(4.16667,0,0,4.16667,0,0)">
            <path d="M479.295,490.352L477.881,490.352L496.218,472.016L496.218,473.43L479.295,490.352Z" style="fill:rgb(177,116,134);fill-rule:nonzero;"/>
        </g>
        <g transform="matrix(4.16667,0,0,4.16667,0,0)">
            <path d="M485.768,490.352L484.354,490.352L496.218,478.488L496.218,479.902L485.768,490.352Z" style="fill:rgb(177,116,134);fill-rule:nonzero;"/>
        </g>
        <g transform="matrix(4.16667,0,0,4.16667,0,0)">
            <path d="M492.242,490.352L490.828,490.352L496.218,484.963L496.218,486.377L492.242,490.352Z" style="fill:rgb(177,116,134);fill-rule:nonzero;"/>
        </g>
    </g>
</svg>
