<?xml version="1.0" encoding="UTF-8" standalone="no"?>
<!DOCTYPE svg PUBLIC "-//W3C//DTD SVG 1.1//EN" "http://www.w3.org/Graphics/SVG/1.1/DTD/svg11.dtd">
<svg width="100%" height="100%" viewBox="0 0 3634 1878" version="1.1" xmlns="http://www.w3.org/2000/svg" xmlns:xlink="http://www.w3.org/1999/xlink" xml:space="preserve" xmlns:serif="http://www.serif.com/" style="fill-rule:evenodd;clip-rule:evenodd;stroke-linejoin:round;stroke-miterlimit:1.41421;">
    <g transform="matrix(1,0,0,1,-5715.46,-11603.6)">
        <g transform="matrix(4.16667,0,0,4.16667,0,0)">
            <path d="M2242.13,3080.64C2237.89,3095.95 2224.66,3118.39 2204.48,3126.86C2205.63,3128.96 2206.63,3131.02 2207.45,3133.01C2215.4,3152.18 2207.23,3163.28 2203.35,3167.16C2193.12,3177.38 2170.77,3192.43 2122.33,3206.06C2067,3221.63 1991.37,3231.53 1897.55,3235.49L1897.13,3235.51L1896.71,3235.51C1826.33,3235.51 1761.1,3227.95 1702.82,3213.05C1655.23,3200.88 1612.01,3183.77 1574.13,3162.12C1556.19,3175.51 1535.91,3182.51 1514.71,3182.51C1451.2,3182.51 1383.71,3129.24 1383.71,3030.51C1383.71,2987.25 1401.71,2948.16 1414.22,2926.22C1415.25,2897.49 1423.88,2872.53 1439.32,2853.75C1457.19,2832.01 1482.4,2820.51 1512.21,2820.51C1545.61,2820.51 1574.09,2834.1 1595.6,2860.04C1608.43,2849.33 1629.84,2843.46 1657.6,2843.46C1685.17,2843.46 1705.96,2854.03 1723.88,2866.14C1724.08,2860.28 1724.28,2854.86 1724.49,2849.97C1724.97,2838.93 1725.5,2830.17 1726.05,2823.91C1726.96,2813.58 1727.89,2806.91 1733.13,2801.27C1739.46,2794.47 1748.78,2790.87 1760.09,2790.87C1775.68,2790.87 1794.68,2797.8 1799.57,2813C1800.93,2817.23 1801.98,2820.52 1801.18,2903.75C1802.57,2903.48 1803.98,2902.94 1805.99,2902.13C1809.26,2900.82 1813.74,2899.02 1819.24,2899.02C1820.1,2899.02 1820.95,2899.07 1821.79,2899.15C1822.85,2887.38 1826.87,2874.51 1836.91,2866.15C1853.54,2852.29 1873.86,2850.51 1889.71,2850.51C1910.46,2850.51 1928.77,2859.06 1945.13,2867.56C1955.61,2848.5 1968.67,2832.4 1983.55,2820.35C2000.58,2806.55 2019.38,2798.64 2035.13,2798.64C2051.05,2798.64 2060.78,2805.24 2066.14,2810.77C2075.09,2820 2079.34,2833.62 2078.79,2851.27C2078.69,2854.52 2078.41,2857.75 2077.98,2860.93C2080.76,2859.18 2083.82,2857.22 2086.7,2854.98C2088.01,2853.96 2090.05,2851.56 2091.84,2849.44C2097.49,2842.78 2106.01,2832.72 2119.94,2832.72C2121.97,2832.72 2124,2832.95 2125.99,2833.4C2140.87,2836.79 2146.15,2850.32 2150.8,2862.25C2153.6,2869.44 2156.78,2877.59 2161.83,2884.77C2168.85,2894.76 2180.17,2902.96 2189.26,2909.56C2198.02,2915.9 2204.93,2920.91 2209.17,2927.79C2215.75,2938.49 2213.36,2950.73 2209.39,2971.01C2206.16,2987.53 2202.13,3008.09 2202.13,3031.22C2202.13,3039.41 2202.97,3047.15 2204.11,3053.28C2208.26,3049.86 2213.61,3047.1 2220.53,3047.1C2224.9,3047.1 2229.23,3048.32 2233.06,3050.61C2237.54,3053.3 2247.4,3061.61 2242.13,3080.64Z" style="fill:rgb(4,9,13);fill-rule:nonzero;"/>
        </g>
        <g transform="matrix(4.16667,0,0,4.16667,0,0)">
            <path d="M2230.13,3074.64C2225.89,3089.95 2212.66,3112.39 2192.48,3120.86C2193.63,3122.96 2194.63,3125.02 2195.45,3127.01C2203.4,3146.18 2195.23,3157.28 2191.35,3161.16C2181.12,3171.38 2158.77,3186.43 2110.33,3200.06C2055,3215.63 1979.37,3225.53 1885.55,3229.49L1885.13,3229.51L1884.71,3229.51C1814.33,3229.51 1749.1,3221.95 1690.82,3207.05C1643.23,3194.88 1600.01,3177.77 1562.13,3156.12C1544.19,3169.51 1523.91,3176.51 1502.71,3176.51C1439.2,3176.51 1371.71,3123.24 1371.71,3024.51C1371.71,2981.25 1389.71,2942.16 1402.22,2920.22C1403.25,2891.49 1411.88,2866.53 1427.32,2847.75C1445.19,2826.01 1470.4,2814.51 1500.21,2814.51C1533.61,2814.51 1562.09,2828.1 1583.6,2854.04C1596.43,2843.33 1617.84,2837.46 1645.6,2837.46C1673.17,2837.46 1693.96,2848.03 1711.88,2860.14C1712.08,2854.28 1712.28,2848.86 1712.49,2843.97C1712.97,2832.93 1713.5,2824.17 1714.05,2817.91C1714.96,2807.58 1715.89,2800.91 1721.13,2795.27C1727.46,2788.47 1736.78,2784.87 1748.09,2784.87C1763.68,2784.87 1782.68,2791.8 1787.57,2807C1788.93,2811.23 1789.98,2814.52 1789.18,2897.75C1790.57,2897.48 1791.98,2896.94 1793.99,2896.13C1797.26,2894.82 1801.74,2893.02 1807.24,2893.02C1808.1,2893.02 1808.95,2893.07 1809.79,2893.15C1810.85,2881.38 1814.87,2868.51 1824.91,2860.15C1841.54,2846.29 1861.86,2844.51 1877.71,2844.51C1898.46,2844.51 1916.77,2853.06 1933.13,2861.56C1943.61,2842.5 1956.67,2826.4 1971.55,2814.35C1988.58,2800.55 2007.38,2792.64 2023.13,2792.64C2039.05,2792.64 2048.78,2799.24 2054.14,2804.77C2063.09,2814 2067.34,2827.62 2066.79,2845.27C2066.69,2848.52 2066.41,2851.75 2065.98,2854.93C2068.76,2853.18 2071.82,2851.22 2074.7,2848.98C2076.01,2847.96 2078.05,2845.56 2079.84,2843.44C2085.49,2836.78 2094.01,2826.72 2107.94,2826.72C2109.97,2826.72 2112,2826.95 2113.99,2827.4C2128.87,2830.79 2134.15,2844.32 2138.8,2856.25C2141.6,2863.44 2144.78,2871.59 2149.83,2878.77C2156.85,2888.76 2168.17,2896.96 2177.26,2903.56C2186.02,2909.9 2192.93,2914.91 2197.17,2921.79C2203.75,2932.49 2201.36,2944.73 2197.39,2965.01C2194.16,2981.53 2190.13,3002.09 2190.13,3025.22C2190.13,3033.41 2190.97,3041.15 2192.11,3047.28C2196.26,3043.86 2201.61,3041.1 2208.53,3041.1C2212.9,3041.1 2217.23,3042.32 2221.06,3044.61C2225.54,3047.3 2235.4,3055.61 2230.13,3074.64Z" style="fill:rgb(153,30,48);fill-rule:nonzero;"/>
        </g>
        <g transform="matrix(4.16667,0,0,4.16667,0,0)">
            <path d="M2113.21,2946.38C2076.21,2946.38 2034.71,2989.13 2034.71,3046.38C2034.71,3072.38 2049.77,3104.28 2078.77,3104.28C2104.27,3104.28 2125.86,3068.72 2121.71,3064.13C2116.96,3058.88 2104.71,3074.38 2094.21,3074.38C2081.92,3074.38 2076.88,3059.05 2076.88,3041.72C2076.88,3006.38 2097.71,2966.13 2110.96,2966.13C2117.79,2966.13 2120.71,2969.47 2120.71,2974.13C2120.71,2990.63 2074.21,3022.63 2074.21,3022.63L2074.21,3033.38C2074.21,3033.38 2137.96,3005.97 2137.96,2970.63C2137.96,2946.38 2113.21,2946.38 2113.21,2946.38Z" style="fill:white;fill-rule:nonzero;"/>
        </g>
        <g transform="matrix(4.16667,0,0,4.16667,0,0)">
            <path d="M1693.91,2950.94C1654.08,2950.94 1622.91,2995.43 1622.91,3039.78C1622.91,3084.13 1640.41,3104.28 1666.97,3104.28C1693.74,3104.28 1713.31,3070.53 1708.08,3064.94C1703.08,3059.61 1690.74,3073.72 1680.74,3073.72C1671.41,3073.72 1667.81,3063.61 1667.81,3038.28C1667.81,3017.87 1680.49,2971.78 1691.16,2973.78C1701.83,2975.78 1683.5,3017.28 1694.91,3017.28C1700.91,3017.28 1714.41,2991.11 1714.41,2973.61C1714.41,2960.46 1706.91,2950.94 1693.91,2950.94Z" style="fill:white;fill-rule:nonzero;"/>
        </g>
        <g transform="matrix(4.16667,0,0,4.16667,0,0)">
            <path d="M1877.71,2864.51C1862.01,2864.51 1848.25,2866.73 1837.71,2875.51C1825.71,2885.51 1828.71,2916.51 1834.71,2918.51C1842.3,2921.04 1856.71,2899.51 1882.71,2899.51C1924.19,2899.51 1929.71,2912.51 1960.71,2913.51C2019.85,2915.42 2045.71,2879.51 2046.8,2844.64C2047.47,2823.32 2039.71,2812.64 2023.13,2812.64C1994.47,2812.64 1923.22,2858.33 1923.22,2996.64C1923.22,3052.64 1941.17,3104.28 1979.47,3104.28C2006.8,3104.28 2027.13,3053.57 2027.13,3015.64C2027.13,2975.98 2007.47,2967.31 1996.13,2967.31C1984.8,2967.31 1974.97,2974.48 1974.97,2985.81C1974.97,2996.64 1982.6,3001.23 1991.94,3001.23C2012.8,3001.23 2070.13,2938.39 2070.13,2931.31C2070.13,2926.46 2063.48,2922.37 2058.97,2916.64C2053.48,2909.68 2050.21,2901.77 2046.8,2905.31C2031.29,2921.44 2010.13,2990.82 1994.1,2990.82C1989.34,2990.82 1986.34,2987.06 1986.34,2984.02C1986.34,2978.7 1990.63,2976.64 1994.8,2976.64C2002.97,2976.64 2003.47,2982.64 2003.47,2985.98C2003.47,2989.31 2005.47,3055.14 1984.97,3055.14C1974.22,3055.14 1964.13,3038.14 1964.13,3006.32C1964.13,2933.98 1990.47,2835.31 2021.8,2835.31C2027.97,2835.31 2030.22,2839.37 2030.22,2846.52C2030.22,2869.64 2014.71,2896.51 1968.71,2896.51C1942.71,2896.51 1911.71,2864.51 1877.71,2864.51Z" style="fill:white;fill-rule:nonzero;"/>
        </g>
        <g transform="matrix(4.16667,0,0,4.16667,0,0)">
            <path d="M2109.55,2846.9C2101.26,2845.01 2095.4,2858.23 2086.97,2864.78C2076.78,2872.69 2066.8,2876.61 2066.8,2880.28C2066.8,2888.28 2076.7,2908.43 2097.97,2921.78C2120.17,2935.71 2157.09,2936.44 2158.8,2941.61C2164.3,2958.28 2133.83,2988.31 2132.13,3029.61C2130.13,3078.28 2156.28,3104.28 2175.8,3104.28C2199.52,3104.28 2215.77,3064.76 2210.77,3061.76C2203.32,3057.29 2197.47,3076.94 2188.8,3076.94C2174.13,3076.94 2170.13,3043.22 2170.13,3025.22C2170.13,2978.22 2185.47,2940.94 2180.13,2932.28C2174.8,2923.61 2148.47,2911.61 2133.47,2890.28C2119.74,2870.76 2118.11,2848.85 2109.55,2846.9Z" style="fill:white;fill-rule:nonzero;"/>
        </g>
        <g transform="matrix(4.16667,0,0,4.16667,0,0)">
            <path d="M1735.78,2808.89C1730.53,2814.54 1728.74,3020.61 1729.53,3051.79C1729.99,3069.95 1729.57,3104.28 1763.43,3104.28C1787.93,3104.28 1802.68,3059.37 1793.93,3055.46C1787.93,3052.79 1786.43,3073.37 1775.1,3073.37C1762.92,3073.37 1767.92,3009.44 1768.11,2985.96C1768.26,2965.86 1770.8,2820.17 1768.53,2813.12C1766.28,2806.12 1743.19,2800.93 1735.78,2808.89Z" style="fill:white;fill-rule:nonzero;"/>
        </g>
        <g transform="matrix(4.16667,0,0,4.16667,0,0)">
            <path d="M1645.61,2857.46C1613.61,2857.46 1594.18,2865.94 1590.71,2877.51C1587.71,2887.51 1600.11,2916.14 1605.71,2914.51C1621.21,2910.01 1622.71,2903.51 1668.71,2903.51C1716.71,2903.51 1725.88,2936.25 1782.88,2936.25C1802.32,2936.25 1815.69,2921.56 1811.18,2915.3C1806.59,2908.91 1800.88,2917.96 1787.11,2917.96C1727.11,2917.96 1704.71,2857.46 1645.61,2857.46Z" style="fill:white;fill-rule:nonzero;"/>
        </g>
        <g transform="matrix(4.16667,0,0,4.16667,0,0)">
            <path d="M1863.71,3073.28C1847.71,3073.28 1842.71,3048.28 1842.71,3018.28C1842.71,2988.28 1853.71,2968.28 1868.71,2968.28C1883.71,2968.28 1887.71,2987.28 1887.71,3020.28C1887.71,3043.28 1879.71,3073.28 1863.71,3073.28ZM1860.71,2946.28C1837.71,2946.28 1805.71,2960.15 1805.71,3021.28C1805.71,3081.28 1830.71,3104.28 1861.71,3104.28C1898.71,3104.28 1907.71,3040.28 1907.71,3008.28C1907.71,2980.28 1897.21,2946.28 1860.71,2946.28Z" style="fill:white;fill-rule:nonzero;"/>
        </g>
        <g transform="matrix(4.16667,0,0,4.16667,0,0)">
            <path d="M1457.71,2882.51C1429.92,2904.35 1391.71,2966.51 1391.71,3024.51C1391.71,3109.51 1447.71,3156.51 1502.71,3156.51C1557.71,3156.51 1605.71,3095.51 1605.71,3000.51C1605.71,2905.51 1569.21,2834.51 1500.21,2834.51C1347.21,2834.51 1391.21,3209.51 1884.71,3209.51C2097.71,3200.51 2161.42,3162.8 2177.21,3147.01C2186.71,3137.51 2152.21,3093.01 2131.71,3101.51C2112.12,3109.64 1999.71,3159.51 1881.71,3159.51C1395.21,3159.51 1391.21,2853.51 1498.21,2853.51C1537.21,2853.51 1576.71,2900.51 1576.71,2984.51C1576.71,3070.36 1548.21,3127.01 1510.21,3127.01C1472.21,3127.01 1443.71,3097.51 1443.71,3040.51C1443.71,2983.51 1502.71,2942.51 1505.71,2929.51C1508.71,2916.51 1471.71,2871.51 1457.71,2882.51Z" style="fill:white;fill-rule:nonzero;"/>
        </g>
        <g transform="matrix(4.16667,0,0,4.16667,0,0)">
            <path d="M2092.13,2966.24C2089.69,2969.91 2087.48,2973.63 2085.45,2977.42C2083.41,2981.2 2081.53,2985.03 2079.87,2988.93C2076.53,2996.72 2074.07,3004.77 2072.54,3012.98L2072.02,3016.06C2071.85,3017.09 2071.77,3018.13 2071.63,3019.17C2071.48,3020.2 2071.38,3021.24 2071.31,3022.28C2071.24,3023.32 2071.12,3024.36 2071.09,3025.4C2070.83,3029.58 2070.98,3033.76 2071.19,3037.98C2071.83,3046.4 2073.47,3054.8 2075.64,3063.35C2070.8,3055.98 2067.51,3047.53 2065.74,3038.71C2065.4,3036.49 2064.94,3034.27 2064.8,3032.01C2064.71,3030.89 2064.57,3029.76 2064.54,3028.63L2064.45,3025.24C2064.47,3020.72 2064.85,3016.18 2065.66,3011.72C2067.31,3002.82 2070.49,2994.23 2074.97,2986.47C2077.21,2982.59 2079.77,2978.91 2082.61,2975.5C2084.04,2973.79 2085.53,2972.14 2087.12,2970.59C2088.7,2969.04 2090.34,2967.54 2092.13,2966.24Z" style="fill:rgb(153,30,48);fill-rule:nonzero;"/>
        </g>
        <g transform="matrix(4.16667,0,0,4.16667,0,0)">
            <path d="M2169.95,2948.67C2168.72,2953.53 2167.57,2958.35 2166.51,2963.17C2165.44,2968 2164.44,2972.81 2163.58,2977.63C2161.86,2987.27 2160.53,2996.93 2160.13,3006.59C2159.67,3016.23 2160.11,3025.87 2161.98,3035.28C2162.95,3039.97 2164.25,3044.61 2166.01,3049.13C2167.82,3053.64 2170.09,3057.98 2172.7,3062.28C2168.93,3058.97 2165.67,3055.01 2162.94,3050.68C2160.27,3046.31 2158.23,3041.56 2156.65,3036.66C2153.61,3026.82 2152.64,3016.43 2153.14,3006.27C2153.58,2996.08 2155.46,2986.06 2158.24,2976.37C2159.65,2971.54 2161.32,2966.78 2163.24,2962.14C2165.19,2957.51 2167.32,2952.95 2169.95,2948.67Z" style="fill:rgb(153,30,48);fill-rule:nonzero;"/>
        </g>
        <g transform="matrix(4.16667,0,0,4.16667,0,0)">
            <path d="M2108.57,2859.8C2109.63,2863.67 2110.96,2867.42 2112.51,2871.07C2114.03,2874.72 2115.77,2878.27 2117.69,2881.7C2119.63,2885.12 2121.68,2888.47 2124,2891.63C2126.27,2894.81 2128.72,2897.87 2131.4,2900.72C2136.64,2906.52 2142.66,2911.59 2149.14,2916.05C2155.65,2920.49 2162.66,2924.2 2169.95,2927.59C2162.12,2925.78 2154.51,2922.77 2147.47,2918.69L2144.85,2917.13C2143.98,2916.6 2143.16,2915.99 2142.31,2915.43C2140.61,2914.31 2139.01,2913.03 2137.38,2911.8C2134.21,2909.23 2131.24,2906.4 2128.45,2903.42C2122.93,2897.39 2118.34,2890.5 2114.91,2883.12C2113.18,2879.43 2111.78,2875.6 2110.67,2871.71C2109.6,2867.81 2108.76,2863.82 2108.57,2859.8Z" style="fill:rgb(153,30,48);fill-rule:nonzero;"/>
        </g>
        <g transform="matrix(4.16667,0,0,4.16667,0,0)">
            <path d="M2016.94,2995.77C2018.45,2999.75 2019.44,3003.89 2020.25,3008.07C2021.04,3012.25 2021.53,3016.48 2021.79,3020.74C2022.29,3029.26 2021.78,3037.9 2020.06,3046.38C2019.58,3048.49 2019.12,3050.6 2018.49,3052.68C2017.91,3054.77 2017.18,3056.82 2016.45,3058.86C2014.87,3062.92 2012.95,3066.85 2010.65,3070.55C2008.33,3074.23 2005.57,3077.64 2002.51,3080.69L2000.12,3082.86C1999.33,3083.59 1998.44,3084.21 1997.58,3084.86C1995.92,3086.19 1994.02,3087.24 1992.2,3088.3C1994.98,3085.07 1997.61,3081.9 1999.87,3078.48C2002.11,3075.05 2004.13,3071.55 2005.82,3067.9C2007.49,3064.23 2008.96,3060.49 2010.18,3056.67C2010.74,3054.73 2011.37,3052.83 2011.83,3050.86C2012.37,3048.92 2012.77,3046.94 2013.2,3044.97C2014.82,3037.04 2015.78,3028.94 2016.31,3020.73C2016.84,3012.52 2016.99,3004.24 2016.94,2995.77Z" style="fill:rgb(153,30,48);fill-rule:nonzero;"/>
        </g>
        <g transform="matrix(4.16667,0,0,4.16667,0,0)">
            <path d="M2030.22,2965.04C2031.94,2964.03 2033.55,2962.92 2035.1,2961.73C2036.67,2960.58 2038.15,2959.31 2039.64,2958.06C2040.36,2957.42 2041.07,2956.75 2041.8,2956.12C2042.52,2955.47 2043.2,2954.78 2043.91,2954.12C2044.61,2953.46 2045.29,2952.76 2045.97,2952.07C2046.65,2951.39 2047.34,2950.7 2047.98,2949.97L2049.96,2947.84L2051.89,2945.65C2053.24,2944.24 2054.38,2942.66 2055.7,2941.21C2056.94,2939.7 2058.15,2938.16 2059.43,2936.65C2060.66,2935.11 2061.86,2933.55 2063.2,2932.06C2062.43,2933.9 2061.55,2935.68 2060.65,2937.47C2059.65,2939.19 2058.69,2940.94 2057.58,2942.6C2057.02,2943.43 2056.46,2944.25 2055.87,2945.06C2055.31,2945.89 2054.7,2946.68 2054.07,2947.46L2052.19,2949.8L2050.16,2952.02C2049.48,2952.77 2048.75,2953.46 2048.03,2954.15C2047.29,2954.84 2046.61,2955.57 2045.82,2956.2C2044.29,2957.51 2042.73,2958.78 2041.06,2959.91C2039.39,2961.04 2037.67,2962.09 2035.87,2962.98C2034.06,2963.85 2032.19,2964.65 2030.22,2965.04Z" style="fill:rgb(153,30,48);fill-rule:nonzero;"/>
        </g>
        <g transform="matrix(4.16667,0,0,4.16667,0,0)">
            <path d="M1997.55,2838.56C1995.35,2839.45 1993.62,2841.06 1992.12,2842.8C1990.6,2844.54 1989.29,2846.46 1988.06,2848.42C1985.63,2852.36 1983.53,2856.51 1981.64,2860.76C1979.72,2864.99 1977.96,2869.3 1976.35,2873.66C1974.75,2878.03 1973.19,2882.41 1971.79,2886.85C1966.17,2904.6 1961.77,2922.73 1958.7,2941.05C1955.68,2959.37 1953.84,2977.92 1954.53,2996.41C1954.92,3005.64 1955.91,3014.87 1958.15,3023.83C1960.31,3032.8 1963.78,3041.53 1969.15,3049.29C1962.54,3042.5 1958.01,3033.8 1954.85,3024.81C1953.3,3020.28 1952.09,3015.64 1951.12,3010.96C1950.16,3006.28 1949.55,3001.53 1949.08,2996.78C1948.11,2987.28 1948.1,2977.72 1948.6,2968.22C1949.12,2958.71 1950.24,2949.26 1951.8,2939.89C1952.61,2935.22 1953.49,2930.55 1954.5,2925.92C1955.54,2921.29 1956.63,2916.67 1957.88,2912.09C1960.35,2902.94 1963.23,2893.89 1966.65,2885.04C1970.03,2876.18 1973.93,2867.5 1978.6,2859.21C1980.98,2855.09 1983.5,2851.03 1986.49,2847.3C1987.99,2845.45 1989.58,2843.65 1991.37,2842.06C1993.17,2840.51 1995.22,2839.06 1997.55,2838.56Z" style="fill:rgb(153,30,48);fill-rule:nonzero;"/>
        </g>
        <g transform="matrix(4.16667,0,0,4.16667,0,0)">
            <path d="M1761.71,2819.09C1762.2,2841.12 1762.11,2863.12 1761.8,2885.12C1761.7,2896.12 1761.39,2907.11 1761.18,2918.1L1760.22,2951.08L1759.6,2967.56L1759.05,2984.05C1758.58,2995.03 1758.24,3006.01 1757.94,3016.96C1757.81,3022.44 1757.79,3027.91 1757.84,3033.38C1757.89,3038.84 1758.09,3044.3 1758.57,3049.72C1759.01,3055.15 1759.79,3060.54 1761.28,3065.74C1762.02,3068.35 1763.03,3070.87 1764.41,3073.18C1765.78,3075.5 1767.62,3077.59 1770.01,3078.99C1767.48,3077.87 1765.34,3075.93 1763.66,3073.69C1762,3071.42 1760.71,3068.89 1759.7,3066.29C1757.68,3061.05 1756.52,3055.56 1755.64,3050.08C1753.99,3039.08 1753.47,3027.99 1753.26,3016.96C1753,3005.91 1753.23,2994.89 1753.37,2983.89L1753.74,2967.4L1754.23,2950.91L1755.51,2917.93C1756.05,2906.94 1756.49,2895.94 1757.14,2884.96C1758.33,2862.99 1759.72,2841.02 1761.71,2819.09Z" style="fill:rgb(153,30,48);fill-rule:nonzero;"/>
        </g>
        <g transform="matrix(4.16667,0,0,4.16667,0,0)">
            <path d="M1484.49,2934.81C1477.8,2942.8 1471.64,2951.13 1465.99,2959.75C1460.34,2968.37 1455.19,2977.26 1450.78,2986.45C1446.37,2995.63 1442.73,3005.13 1440.12,3014.84C1438.83,3019.7 1437.82,3024.57 1437.17,3029.55C1436.5,3034.51 1436.09,3039.51 1436.02,3044.52C1435.94,3049.52 1436.12,3054.53 1436.66,3059.5C1437.17,3064.47 1437.99,3069.4 1439.17,3074.24C1441.48,3083.93 1445.26,3093.24 1450.55,3101.65C1455.86,3110.05 1462.8,3117.45 1471.01,3123.37C1479.18,3129.37 1488.62,3133.7 1498.49,3137.03C1488.15,3135.66 1477.93,3132.37 1468.6,3127.11C1459.29,3121.84 1451.07,3114.43 1444.68,3105.65C1438.28,3096.87 1433.73,3086.81 1430.89,3076.38C1429.45,3071.16 1428.47,3065.84 1427.81,3060.48C1427.2,3055.12 1426.94,3049.73 1427.03,3044.35C1427.27,3033.6 1428.82,3022.83 1431.96,3012.53C1435.05,3002.25 1439.38,2992.45 1444.56,2983.21C1449.78,2973.98 1455.81,2965.28 1462.48,2957.16C1469.22,2949.11 1476.4,2941.43 1484.49,2934.81Z" style="fill:rgb(153,30,48);fill-rule:nonzero;"/>
        </g>
        <g transform="matrix(4.16667,0,0,4.16667,0,0)">
            <path d="M1544.49,2857.46C1548.05,2859.7 1551.27,2862.48 1554.34,2865.38C1557.41,2868.3 1560.26,2871.44 1562.99,2874.69C1568.35,2881.27 1573.1,2888.37 1577.17,2895.84C1581.26,2903.31 1584.69,2911.14 1587.55,2919.16C1589.04,2923.15 1590.21,2927.24 1591.44,2931.31L1593.04,2937.49C1593.59,2939.55 1593.97,2941.64 1594.44,2943.71C1594.89,2945.79 1595.32,2947.87 1595.65,2949.96L1596.72,2956.24L1597.51,2962.55L1597.9,2965.71L1598.16,2968.88L1598.67,2975.21C1598.79,2977.32 1598.85,2979.44 1598.93,2981.55C1599.16,2985.77 1599.06,2990 1599.03,2994.22C1598.71,3011.11 1596.77,3027.9 1593.01,3044.26C1593.44,3027.49 1593.68,3010.85 1592.74,2994.33C1592.47,2990.2 1592.31,2986.07 1591.89,2981.97L1591.34,2975.81L1590.62,2969.67L1590.26,2966.61L1589.81,2963.55L1588.91,2957.45C1588.15,2953.42 1587.56,2949.35 1586.62,2945.36C1584.99,2937.31 1582.88,2929.38 1580.38,2921.58C1577.89,2913.78 1574.98,2906.12 1571.57,2898.66C1568.15,2891.21 1564.32,2883.91 1559.83,2877C1557.64,2873.5 1555.22,2870.15 1552.7,2866.86C1551.45,2865.2 1550.13,2863.61 1548.76,2862.04C1547.41,2860.45 1546,2858.92 1544.49,2857.46Z" style="fill:rgb(153,30,48);fill-rule:nonzero;"/>
        </g>
        <g transform="matrix(4.16667,0,0,4.16667,0,0)">
            <path d="M1838.49,2884.26C1841.83,2879.94 1846.43,2876.76 1851.3,2874.34C1856.21,2871.96 1861.52,2870.3 1866.95,2869.59C1867.63,2869.46 1868.31,2869.41 1868.99,2869.36L1871.04,2869.2L1873.09,2869.09C1873.77,2869.05 1874.46,2869.09 1875.14,2869.11C1876.51,2869.16 1877.87,2869.2 1879.23,2869.29C1880.58,2869.45 1881.93,2869.67 1883.27,2869.88C1884.61,2870.09 1885.95,2870.32 1887.25,2870.73C1888.56,2871.09 1889.85,2871.48 1891.14,2871.88L1892.09,2872.2L1893.03,2872.6C1893.65,2872.88 1894.27,2873.14 1894.88,2873.44C1896.11,2874.01 1897.32,2874.59 1898.49,2875.26C1895.74,2875.44 1893.14,2875.26 1890.54,2875.27C1889.24,2875.3 1887.95,2875.31 1886.68,2875.29C1886.04,2875.31 1885.4,2875.24 1884.77,2875.28C1884.13,2875.31 1883.49,2875.35 1882.86,2875.37C1881.59,2875.42 1880.33,2875.44 1879.08,2875.46C1877.83,2875.59 1876.58,2875.66 1875.33,2875.75C1874.71,2875.81 1874.09,2875.79 1873.47,2875.87L1871.61,2876.09C1870.38,2876.25 1869.13,2876.28 1867.91,2876.52C1862.98,2877.15 1858.12,2878.2 1853.25,2879.47C1848.36,2880.76 1843.52,2882.3 1838.49,2884.26Z" style="fill:rgb(153,30,48);fill-rule:nonzero;"/>
        </g>
        <g transform="matrix(4.16667,0,0,4.16667,0,0)">
            <path d="M1599.49,2878.31C1602.8,2873.6 1607.54,2870.05 1612.6,2867.33C1617.7,2864.64 1623.28,2862.76 1629.01,2861.86C1630.44,2861.61 1631.89,2861.54 1633.32,2861.38L1635.49,2861.21C1636.21,2861.19 1636.93,2861.19 1637.65,2861.21C1639.1,2861.24 1640.54,2861.24 1641.97,2861.32C1643.41,2861.48 1644.83,2861.67 1646.25,2861.88C1646.96,2861.97 1647.67,2862.09 1648.37,2862.2C1649.07,2862.35 1649.77,2862.53 1650.46,2862.71C1651.85,2863.07 1653.22,2863.45 1654.58,2863.85C1655.27,2864.04 1655.93,2864.3 1656.59,2864.58C1657.25,2864.86 1657.91,2865.12 1658.56,2865.42C1659.87,2866 1661.16,2866.59 1662.41,2867.26C1659.51,2867.43 1656.76,2867.24 1654.02,2867.25C1652.64,2867.28 1651.28,2867.29 1649.93,2867.28L1647.91,2867.26C1647.24,2867.3 1646.57,2867.35 1645.9,2867.37C1644.56,2867.43 1643.23,2867.48 1641.9,2867.49C1640.58,2867.63 1639.26,2867.73 1637.94,2867.84L1635.97,2867.98L1634.02,2868.26C1632.71,2868.44 1631.4,2868.52 1630.11,2868.77C1624.92,2869.58 1619.82,2870.82 1614.74,2872.38C1609.64,2873.96 1604.62,2875.86 1599.49,2878.31Z" style="fill:rgb(153,30,48);fill-rule:nonzero;"/>
        </g>
        <g transform="matrix(4.16667,0,0,4.16667,0,0)">
            <path d="M2034.71,2823.26C2037.02,2825.3 2038.7,2827.99 2040.07,2830.78C2041.38,2833.62 2042.29,2836.66 2042.77,2839.77C2043.8,2846.01 2043.08,2852.43 2041.41,2858.45C2039.66,2864.45 2036.99,2870.13 2033.64,2875.3C2030.31,2880.48 2026.41,2885.24 2021.97,2889.44C2025.11,2884.2 2028.21,2879.05 2030.94,2873.74C2033.63,2868.43 2035.93,2862.97 2037.57,2857.36C2039.13,2851.73 2040.02,2845.93 2039.68,2840.11C2039.3,2834.33 2037.88,2828.47 2034.71,2823.26Z" style="fill:rgb(153,30,48);fill-rule:nonzero;"/>
        </g>
        <g transform="matrix(4.16667,0,0,4.16667,0,0)">
            <path d="M1843.49,2966.24C1841.73,2976.01 1840.18,2985.66 1839,2995.32C1837.84,3004.96 1837.05,3014.61 1837.07,3024.2C1837.04,3028.99 1837.25,3033.78 1837.74,3038.52C1838.2,3043.26 1838.89,3047.98 1840.01,3052.6C1841.13,3057.21 1842.51,3061.8 1844.43,3066.2C1846.35,3070.61 1848.72,3074.84 1851.49,3078.99C1847.61,3075.87 1844.24,3072.05 1841.41,3067.84C1838.58,3063.61 1836.45,3058.94 1834.73,3054.15C1833,3049.34 1831.91,3044.35 1831.15,3039.33C1830.73,3036.82 1830.55,3034.3 1830.31,3031.77C1830.19,3029.25 1830.05,3026.72 1830.07,3024.2C1830.06,3014.1 1831.38,3004.1 1833.6,2994.37C1834.72,2989.5 1836.08,2984.7 1837.71,2979.99C1838.52,2977.64 1839.4,2975.31 1840.35,2973.01C1841.31,2970.71 1842.32,2968.44 1843.49,2966.24Z" style="fill:rgb(153,30,48);fill-rule:nonzero;"/>
        </g>
        <g transform="matrix(4.16667,0,0,4.16667,0,0)">
            <path d="M1680.49,2969.93C1676.96,2978.53 1673.84,2987.09 1671.17,2995.75C1668.48,3004.39 1666.35,3013.14 1664.97,3021.96C1663.61,3030.78 1663,3039.69 1663.58,3048.6C1663.79,3053.07 1664.45,3057.5 1665.26,3061.95C1666.06,3066.41 1667.36,3070.77 1668.66,3075.26C1667.38,3073.33 1666,3071.4 1664.97,3069.31C1664.41,3068.27 1663.86,3067.23 1663.35,3066.17L1661.96,3062.92C1660.25,3058.53 1658.88,3053.95 1658.11,3049.26C1656.44,3039.89 1656.6,3030.23 1658.05,3020.88C1659.53,3011.52 1662.27,3002.43 1666.03,2993.84C1669.81,2985.27 1674.46,2977.06 1680.49,2969.93Z" style="fill:rgb(153,30,48);fill-rule:nonzero;"/>
        </g>
        <g transform="matrix(4.16667,0,0,4.16667,0,0)">
            <path d="M1622.91,3153.26C1628.34,3155.15 1633.82,3156.86 1639.33,3158.48C1644.83,3160.13 1650.35,3161.69 1655.89,3163.18C1666.98,3166.13 1678.1,3168.93 1689.3,3171.39C1694.89,3172.65 1700.5,3173.81 1706.11,3175C1711.74,3176.07 1717.34,3177.25 1722.99,3178.23C1734.26,3180.24 1745.55,3182.17 1756.89,3183.77C1802.21,3190.3 1847.98,3193.39 1893.71,3192.83L1910.86,3192.51C1916.57,3192.34 1922.28,3191.99 1927.99,3191.74C1930.84,3191.59 1933.7,3191.49 1936.55,3191.31L1945.1,3190.64L1953.65,3189.97C1956.5,3189.74 1959.35,3189.58 1962.19,3189.25L1979.25,3187.47L1983.52,3187.03L1987.76,3186.44L1996.26,3185.28C2007.62,3183.87 2018.87,3181.8 2030.17,3179.98C2033,3179.56 2035.79,3178.93 2038.6,3178.38L2047.01,3176.68C2052.62,3175.53 2058.25,3174.49 2063.81,3173.12L2080.54,3169.21C2081.93,3168.87 2083.33,3168.59 2084.71,3168.2L2088.86,3167.07L2097.15,3164.82L2105.46,3162.6L2109.61,3161.49L2113.72,3160.23L2130.18,3155.19L2134.3,3153.94L2136.36,3153.31L2138.39,3152.61L2146.53,3149.8L2162.86,3144.26L2146.95,3150.93L2138.97,3154.22L2136.98,3155.04L2134.95,3155.79L2130.9,3157.28L2114.67,3163.18L2110.6,3164.64L2106.49,3165.96L2098.26,3168.59L2090.01,3171.18L2085.88,3172.47C2084.51,3172.92 2083.11,3173.25 2081.73,3173.65L2065.04,3178.21C2059.5,3179.83 2053.86,3181.01 2048.24,3182.32L2039.81,3184.26C2036.99,3184.89 2034.19,3185.6 2031.35,3186.11L2014.36,3189.4C2008.7,3190.57 2002.98,3191.31 1997.28,3192.22L1988.72,3193.53L1984.44,3194.19L1980.14,3194.71L1962.95,3196.78C1960.08,3197.17 1957.2,3197.38 1954.33,3197.62L1945.7,3198.34L1937.07,3199.06C1934.19,3199.26 1931.3,3199.38 1928.42,3199.55C1922.65,3199.83 1916.89,3200.21 1911.12,3200.41L1893.8,3200.83C1870.71,3200.96 1847.62,3200.27 1824.6,3198.5L1807.36,3196.92C1801.62,3196.32 1795.89,3195.61 1790.16,3194.96C1778.71,3193.55 1767.29,3191.88 1755.92,3189.91C1733.18,3186.05 1710.62,3181.17 1688.37,3175.18L1680.04,3172.87C1677.26,3172.1 1674.51,3171.25 1671.75,3170.44C1668.98,3169.64 1666.23,3168.81 1663.48,3167.93C1660.74,3167.06 1657.98,3166.23 1655.26,3165.29C1644.33,3161.68 1633.49,3157.78 1622.91,3153.26Z" style="fill:rgb(153,30,48);fill-rule:nonzero;"/>
        </g>
    </g>
</svg>
