<?xml version="1.0" encoding="UTF-8" standalone="no"?>
<!DOCTYPE svg PUBLIC "-//W3C//DTD SVG 1.1//EN" "http://www.w3.org/Graphics/SVG/1.1/DTD/svg11.dtd">
<svg width="100%" height="100%" viewBox="0 0 446 446" version="1.1" xmlns="http://www.w3.org/2000/svg" xmlns:xlink="http://www.w3.org/1999/xlink" xml:space="preserve" xmlns:serif="http://www.serif.com/" style="fill-rule:evenodd;clip-rule:evenodd;stroke-linejoin:round;stroke-miterlimit:1.41421;">
    <g transform="matrix(1,0,0,1,-55.1709,-55.1917)">
        <g transform="matrix(4.16667,0,0,4.16667,0,0)">
            <path d="M96.67,108.147C93.71,108.437 90.974,109.747 88.903,111.819C88.413,112.308 87.978,112.828 87.574,113.389C87.169,113.951 86.728,114.477 86.257,114.948C82.536,118.668 76.841,119.786 71.918,117.593C70.245,116.838 68.451,116.47 66.663,116.47C64.869,116.464 63.081,116.838 61.408,117.581C56.48,119.792 50.778,118.668 47.063,114.954C46.586,114.477 46.151,113.945 45.747,113.395C45.342,112.822 44.901,112.308 44.418,111.825C42.34,109.747 39.604,108.437 36.65,108.141C33.642,107.826 30.924,106.474 28.889,104.438C26.865,102.415 25.506,99.691 25.186,96.677C24.89,93.723 23.574,90.981 21.496,88.904C21.019,88.426 20.499,87.979 19.931,87.581C19.376,87.17 18.85,86.741 18.367,86.258C14.652,82.543 13.529,76.842 15.752,71.925C16.489,70.246 16.869,68.464 16.869,66.676C16.863,64.882 16.495,63.088 15.74,61.415C13.547,56.493 14.652,50.809 18.367,47.094C18.85,46.611 19.364,46.17 19.944,45.76C20.487,45.349 21.007,44.926 21.484,44.449C23.561,42.371 24.89,39.629 25.192,36.669C25.5,33.631 26.853,30.925 28.889,28.89C30.912,26.866 33.624,25.507 36.656,25.205C39.628,24.891 42.364,23.568 44.442,21.491C44.925,21.007 45.348,20.488 45.753,19.95C46.157,19.377 46.61,18.851 47.087,18.374C50.802,14.659 56.492,13.548 61.414,15.741C63.087,16.496 64.875,16.87 66.663,16.882C68.451,16.882 70.239,16.496 71.918,15.759C76.829,13.542 82.53,14.665 86.245,18.38C86.728,18.863 87.169,19.377 87.58,19.932C87.978,20.5 88.425,21.02 88.903,21.497C90.98,23.574 93.723,24.891 96.664,25.199C99.69,25.507 102.415,26.866 104.438,28.89C106.474,30.925 107.826,33.643 108.128,36.663C108.509,40.293 110.418,43.603 113.395,45.747C113.945,46.152 114.464,46.599 114.942,47.076C118.656,50.791 119.78,56.493 117.575,61.415C116.832,63.088 116.452,64.882 116.458,66.676C116.464,68.458 116.838,70.246 117.593,71.919C119.786,76.842 118.668,82.537 114.948,86.258C114.477,86.729 113.945,87.176 113.383,87.581C112.828,87.979 112.296,88.426 111.819,88.903C109.747,90.975 108.43,93.717 108.135,96.683C107.82,99.703 106.467,102.421 104.444,104.444C102.409,106.48 99.696,107.826 96.67,108.147Z" style="fill:rgb(34,30,31);fill-rule:nonzero;"/>
        </g>
        <g transform="matrix(4.16667,0,0,4.16667,0,0)">
            <path d="M66.662,119.588C63.839,119.588 61.072,118.608 58.87,116.829C56.507,114.896 53.516,113.831 50.449,113.831C49.714,113.831 48.998,113.891 48.321,114.009C47.582,114.12 46.957,114.172 46.366,114.172C41.275,114.172 36.647,110.973 34.85,106.21C34.152,104.42 33.131,102.848 31.814,101.531C30.455,100.181 28.876,99.161 27.119,98.496C22.367,96.673 19.173,92.045 19.173,86.98C19.173,86.296 19.227,85.65 19.337,85.005C19.455,84.162 19.507,83.519 19.507,82.905C19.507,79.831 18.444,76.833 16.516,74.466C14.726,72.272 13.741,69.503 13.741,66.667C13.741,63.834 14.726,61.071 16.515,58.886C18.445,56.5 19.507,53.5 19.507,50.437C19.507,49.814 19.455,49.171 19.339,48.352C19.229,47.709 19.173,47.045 19.173,46.363C19.173,41.293 22.367,36.661 27.121,34.837C28.879,34.173 30.458,33.158 31.812,31.822C33.128,30.506 34.148,28.931 34.848,27.138C36.648,22.375 41.276,19.179 46.366,19.179C47.025,19.179 47.669,19.227 48.334,19.327C48.998,19.443 49.714,19.503 50.449,19.503C53.507,19.503 56.498,18.444 58.871,16.522C61.066,14.731 63.833,13.746 66.662,13.746C69.499,13.746 72.265,14.731 74.452,16.52C76.823,18.442 79.807,19.499 82.855,19.499C83.569,19.499 84.29,19.441 84.996,19.326C85.638,19.228 86.296,19.179 86.949,19.179C92.033,19.179 96.669,22.376 98.483,27.134C99.171,28.92 100.195,30.497 101.528,31.82C102.873,33.156 104.449,34.171 106.214,34.838C110.965,36.661 114.159,41.3 114.159,46.38C114.159,47.012 114.104,47.672 113.995,48.341C113.877,49.058 113.817,49.772 113.817,50.463C113.817,53.524 114.886,56.516 116.827,58.886C118.609,61.083 119.592,63.847 119.592,66.667C119.592,69.49 118.609,72.261 116.825,74.468C114.886,76.827 113.817,79.812 113.817,82.871C113.817,83.568 113.876,84.266 113.995,85.001C114.104,85.671 114.159,86.328 114.159,86.954C114.159,92.035 110.965,96.673 106.211,98.497C104.452,99.163 102.875,100.184 101.527,101.531C100.192,102.857 99.168,104.431 98.483,106.207C96.669,110.972 92.034,114.172 86.949,114.172C86.363,114.172 85.723,114.118 84.991,114.007C84.308,113.889 83.609,113.831 82.866,113.831C79.805,113.831 76.817,114.896 74.452,116.831C72.259,118.608 69.493,119.588 66.662,119.588Z" style="fill:rgb(34,30,31);fill-rule:nonzero;"/>
        </g>
        <g transform="matrix(4.16667,0,0,4.16667,0,0)">
            <path d="M66.662,13.246C63.8,13.246 60.913,14.211 58.556,16.133C56.258,17.995 53.388,19.003 50.449,19.003C49.775,19.003 49.091,18.952 48.408,18.833C47.725,18.73 47.05,18.679 46.366,18.679C41.113,18.679 36.287,21.916 34.382,26.956C33.716,28.664 32.725,30.202 31.461,31.466C30.188,32.722 28.659,33.721 26.942,34.37C21.911,36.301 18.674,41.11 18.674,46.363C18.674,47.038 18.725,47.73 18.844,48.422C18.938,49.088 19.007,49.754 19.007,50.438C19.007,53.376 18.007,56.246 16.128,58.569C14.198,60.927 13.241,63.806 13.241,66.667C13.241,69.546 14.198,72.416 16.128,74.782C18.007,77.088 19.007,79.967 19.007,82.905C19.007,83.58 18.938,84.246 18.844,84.921C18.725,85.622 18.674,86.296 18.674,86.98C18.674,92.233 21.911,97.034 26.942,98.964C28.659,99.613 30.188,100.621 31.461,101.885C32.725,103.149 33.716,104.678 34.382,106.387C36.287,111.435 41.113,114.672 46.366,114.672C47.05,114.672 47.725,114.604 48.408,114.501C49.091,114.382 49.775,114.33 50.449,114.33C53.388,114.33 56.258,115.338 58.556,117.218C60.913,119.122 63.8,120.088 66.662,120.088C69.541,120.088 72.419,119.122 74.768,117.218C77.066,115.338 79.927,114.33 82.866,114.33C83.549,114.33 84.224,114.382 84.916,114.501C85.591,114.604 86.274,114.672 86.949,114.672C92.202,114.672 97.028,111.435 98.95,106.387C99.608,104.678 100.608,103.149 101.881,101.885C103.145,100.621 104.674,99.613 106.391,98.964C111.422,97.034 114.659,92.216 114.659,86.954C114.659,86.288 114.6,85.605 114.488,84.921C114.377,84.238 114.318,83.563 114.318,82.871C114.318,79.941 115.326,77.08 117.213,74.782C119.127,72.416 120.092,69.546 120.092,66.667C120.092,63.806 119.127,60.927 117.213,58.569C115.326,56.263 114.318,53.393 114.318,50.463C114.318,49.788 114.377,49.096 114.488,48.422C114.6,47.738 114.659,47.046 114.659,46.38C114.659,41.118 111.422,36.301 106.391,34.37C104.674,33.721 103.145,32.722 101.881,31.466C100.608,30.202 99.608,28.664 98.95,26.956C97.028,21.916 92.202,18.679 86.949,18.679C86.274,18.679 85.591,18.73 84.916,18.833C84.229,18.944 83.54,18.999 82.855,18.999C79.926,18.999 77.066,17.995 74.768,16.133C72.419,14.211 69.541,13.246 66.662,13.246ZM66.662,14.246C69.384,14.246 72.038,15.191 74.139,16.91C76.597,18.902 79.693,19.999 82.855,19.999C83.596,19.999 84.344,19.939 85.066,19.821C85.688,19.727 86.322,19.679 86.949,19.679C91.827,19.679 96.275,22.746 98.017,27.315C98.73,29.167 99.793,30.802 101.176,32.175C102.57,33.56 104.205,34.613 106.033,35.304C110.594,37.054 113.659,41.505 113.659,46.38C113.659,46.983 113.606,47.616 113.502,48.259C113.38,49.002 113.318,49.743 113.318,50.463C113.318,53.64 114.426,56.743 116.437,59.2C118.149,61.309 119.092,63.961 119.092,66.667C119.092,69.376 118.149,72.035 116.441,74.147C114.427,76.598 113.318,79.697 113.318,82.871C113.318,83.597 113.378,84.321 113.501,85.082C113.606,85.726 113.659,86.356 113.659,86.954C113.659,91.829 110.594,96.28 106.037,98.029C104.208,98.72 102.572,99.78 101.176,101.175C99.789,102.553 98.726,104.185 98.016,106.031C96.276,110.601 91.828,113.672 86.949,113.672C86.388,113.672 85.773,113.62 85.086,113.516C84.364,113.391 83.638,113.33 82.866,113.33C79.69,113.33 76.59,114.436 74.138,116.441C72.034,118.148 69.378,119.088 66.662,119.088C63.953,119.088 61.298,118.147 59.189,116.444C56.734,114.436 53.63,113.33 50.449,113.33C49.685,113.33 48.94,113.393 48.26,113.512C47.533,113.621 46.931,113.672 46.366,113.672C41.482,113.672 37.042,110.602 35.314,106.023C34.593,104.174 33.534,102.544 32.165,101.175C30.757,99.777 29.118,98.718 27.3,98.03C22.739,96.28 19.674,91.839 19.674,86.98C19.674,86.325 19.725,85.707 19.835,85.059C19.954,84.205 20.007,83.541 20.007,82.905C20.007,79.716 18.905,76.606 16.903,74.15C15.186,72.046 14.241,69.388 14.241,66.667C14.241,63.949 15.186,61.298 16.906,59.198C18.905,56.726 20.007,53.614 20.007,50.438C20.007,49.791 19.954,49.126 19.83,48.251C19.726,47.652 19.674,47.016 19.674,46.363C19.674,41.499 22.739,37.054 27.296,35.306C29.122,34.615 30.759,33.563 32.168,32.173C33.531,30.81 34.589,29.177 35.318,27.309C37.043,22.745 41.483,19.679 46.366,19.679C47,19.679 47.619,19.725 48.236,19.818C48.94,19.941 49.685,20.003 50.449,20.003C53.622,20.003 56.724,18.905 59.188,16.908C61.293,15.192 63.948,14.246 66.662,14.246Z" style="fill:white;fill-rule:nonzero;"/>
        </g>
        <g transform="matrix(4.16667,0,0,4.16667,0,0)">
            <path d="M111.572,66.669C111.572,91.473 91.464,111.581 66.66,111.581C41.856,111.581 21.749,91.473 21.749,66.669C21.749,41.866 41.856,21.758 66.66,21.758C91.464,21.758 111.572,41.866 111.572,66.669Z" style="fill:rgb(34,30,31);fill-rule:nonzero;"/>
        </g>
        <g transform="matrix(4.16667,0,0,4.16667,0,0)">
            <path d="M66.661,22.69C42.41,22.69 22.681,42.419 22.681,66.669C22.681,90.92 42.41,110.649 66.661,110.649C90.911,110.649 110.64,90.92 110.64,66.669C110.64,42.419 90.911,22.69 66.661,22.69ZM66.661,112.488C41.396,112.488 20.842,91.935 20.842,66.669C20.842,41.405 41.396,20.851 66.661,20.851C91.925,20.851 112.479,41.405 112.479,66.669C112.479,91.935 91.925,112.488 66.661,112.488Z" style="fill:white;fill-rule:nonzero;"/>
        </g>
        <g transform="matrix(4.16667,0,0,4.16667,0,0)">
            <path d="M93.677,41.872C93.677,41.872 94.049,42.276 94.421,42.68C94.803,43.075 95.14,43.51 95.14,43.51C95.14,43.51 95.269,43.001 95.398,42.492C95.506,41.983 95.614,41.475 95.614,41.475C95.744,40.829 95.693,40.145 95.48,39.484C95.249,38.842 94.845,38.235 94.318,37.725C94.318,37.725 94.21,37.622 94.047,37.467C93.876,37.32 93.65,37.124 93.423,36.928C92.968,36.537 92.514,36.146 92.514,36.146C92.514,36.146 92.487,36.681 92.461,37.217C92.424,37.744 92.386,38.271 92.386,38.271C92.338,38.923 92.437,39.579 92.646,40.204C92.856,40.83 93.235,41.365 93.677,41.872Z" style="fill:white;fill-rule:nonzero;"/>
        </g>
        <g transform="matrix(4.16667,0,0,4.16667,0,0)">
            <path d="M97.46,46.563C97.756,47.025 98.053,47.487 98.053,47.487C98.053,47.487 98.245,47.003 98.437,46.518C98.621,46.022 98.806,45.525 98.806,45.525C99.219,44.299 98.965,42.766 98.006,41.647C98.006,41.647 97.631,41.178 97.238,40.726C96.833,40.284 96.427,39.843 96.427,39.843C96.427,39.843 96.333,40.367 96.24,40.89C96.137,41.404 96.034,41.918 96.034,41.918C95.725,43.237 96.06,44.567 96.821,45.67C96.821,45.67 97.15,46.109 97.46,46.563Z" style="fill:white;fill-rule:nonzero;"/>
        </g>
        <g transform="matrix(4.16667,0,0,4.16667,0,0)">
            <path d="M98.858,47.907C98.907,48.559 99.076,49.208 99.407,49.792C99.407,49.792 99.475,49.911 99.575,50.091C99.666,50.276 99.787,50.522 99.908,50.769C100.149,51.262 100.389,51.756 100.389,51.756C100.389,51.756 100.639,51.303 100.89,50.85C101.134,50.385 101.379,49.919 101.379,49.919C101.691,49.322 101.818,48.65 101.762,47.969C101.706,47.289 101.521,46.57 101.11,45.961C101.11,45.961 100.786,45.456 100.462,44.951C100.302,44.698 100.138,44.447 100.001,44.268C99.869,44.086 99.781,43.964 99.781,43.964C99.781,43.964 99.623,44.468 99.465,44.973C99.286,45.475 99.107,45.977 99.107,45.977C98.876,46.602 98.794,47.264 98.858,47.907Z" style="fill:white;fill-rule:nonzero;"/>
        </g>
        <g transform="matrix(4.16667,0,0,4.16667,0,0)">
            <path d="M101.445,54.282C101.445,54.282 101.626,54.8 101.806,55.319C101.896,55.579 101.986,55.838 102.053,56.033C102.12,56.227 102.152,56.361 102.152,56.361C102.152,56.361 102.479,55.949 102.775,55.53C103.075,55.103 103.376,54.676 103.376,54.676C103.745,54.133 103.987,53.474 104.029,52.79C104.064,52.109 103.938,51.388 103.654,50.711L102.606,48.551C102.606,48.551 102.371,49.035 102.137,49.52C101.896,49.992 101.654,50.463 101.654,50.463C101.062,51.631 100.956,53.037 101.445,54.282Z" style="fill:white;fill-rule:nonzero;"/>
        </g>
        <g transform="matrix(4.16667,0,0,4.16667,0,0)">
            <path d="M102.797,56.985C102.672,57.627 102.707,58.286 102.834,58.946C102.834,58.946 102.95,59.483 103.066,60.019C103.13,60.287 103.178,60.557 103.205,60.761C103.236,60.965 103.257,61.101 103.257,61.101C103.257,61.101 103.628,60.729 103.999,60.357C104.364,59.98 104.707,59.591 104.707,59.591C105.146,59.102 105.449,58.487 105.6,57.81C105.749,57.134 105.689,56.411 105.496,55.702C105.496,55.702 105.346,55.12 105.137,54.557C104.94,53.99 104.743,53.423 104.743,53.423C104.743,53.423 104.45,53.87 104.158,54.317C103.86,54.752 103.562,55.186 103.562,55.186C103.197,55.721 102.92,56.345 102.797,56.985Z" style="fill:white;fill-rule:nonzero;"/>
        </g>
        <g transform="matrix(4.16667,0,0,4.16667,0,0)">
            <path d="M104.839,60.187C103.899,61.165 103.513,62.479 103.601,63.816C103.601,63.816 103.65,64.363 103.699,64.91C103.715,65.458 103.732,66.007 103.732,66.007C103.732,66.007 104.146,65.688 104.56,65.369C104.972,65.045 105.383,64.705 105.383,64.705C106.358,63.862 106.934,62.413 106.673,60.961C106.673,60.961 106.581,60.368 106.488,59.775C106.362,59.189 106.235,58.602 106.235,58.602C106.235,58.602 105.889,59.005 105.543,59.407C105.196,59.804 104.839,60.187 104.839,60.187Z" style="fill:white;fill-rule:nonzero;"/>
        </g>
        <g transform="matrix(4.16667,0,0,4.16667,0,0)">
            <path d="M105.413,65.246C104.893,65.666 104.483,66.194 104.208,66.779C103.945,67.365 103.711,68.008 103.69,68.678L103.579,70.872C103.579,70.872 104.016,70.609 104.453,70.345C104.891,70.069 105.329,69.792 105.329,69.792C105.881,69.435 106.334,68.922 106.657,68.309C106.985,67.697 107.181,66.986 107.139,66.253C107.139,66.253 107.12,65.654 107.101,65.056C107.098,64.756 107.074,64.457 107.051,64.233C107.03,64.009 107.017,63.86 107.017,63.86C107.017,63.86 106.623,64.213 106.23,64.566C105.834,64.913 105.413,65.246 105.413,65.246Z" style="fill:white;fill-rule:nonzero;"/>
        </g>
        <g transform="matrix(4.16667,0,0,4.16667,0,0)">
            <path d="M105.307,70.401C105.031,70.576 104.782,70.781 104.559,71.01C104.313,71.237 104.093,71.489 103.904,71.759C103.526,72.3 103.27,72.915 103.169,73.579C103.169,73.579 103.097,74.124 102.991,74.663C102.855,75.194 102.718,75.726 102.718,75.726C102.718,75.726 103.206,75.528 103.694,75.33C104.185,75.119 104.675,74.907 104.675,74.907C105.843,74.349 106.683,73.086 106.9,71.629C106.9,71.629 106.922,71.48 106.955,71.258C106.968,71.034 106.984,70.734 107.001,70.435C107.032,69.837 107.063,69.238 107.063,69.238C107.063,69.238 106.624,69.536 106.185,69.833C105.746,70.117 105.307,70.401 105.307,70.401Z" style="fill:white;fill-rule:nonzero;"/>
        </g>
        <g transform="matrix(4.16667,0,0,4.16667,0,0)">
            <path d="M104.551,75.435C103.303,75.973 102.409,77.028 102.028,78.309L101.273,80.372C101.273,80.372 101.773,80.237 102.274,80.102C102.779,79.954 103.284,79.806 103.284,79.806C103.913,79.609 104.529,79.246 104.982,78.734C105.42,78.217 105.753,77.569 105.935,76.858C105.935,76.858 106.083,76.276 106.232,75.694C106.311,75.404 106.377,75.112 106.403,74.888C106.437,74.666 106.461,74.517 106.461,74.517C106.461,74.517 105.995,74.756 105.529,74.995C105.048,75.225 104.551,75.435 104.551,75.435Z" style="fill:white;fill-rule:nonzero;"/>
        </g>
        <g transform="matrix(4.16667,0,0,4.16667,0,0)">
            <path d="M103.083,80.382C102.448,80.569 101.873,80.899 101.402,81.334C100.933,81.771 100.467,82.272 100.188,82.883C100.188,82.883 99.949,83.377 99.711,83.872C99.591,84.119 99.472,84.367 99.383,84.552C99.296,84.739 99.215,84.851 99.215,84.851C99.215,84.851 99.743,84.802 100.243,84.719C100.753,84.635 101.264,84.552 101.264,84.552C101.909,84.439 102.526,84.142 103.061,83.703C103.597,83.265 104.066,82.691 104.297,81.991L105.122,79.736C105.122,79.736 104.61,79.904 104.098,80.072C103.591,80.227 103.083,80.382 103.083,80.382Z" style="fill:white;fill-rule:nonzero;"/>
        </g>
        <g transform="matrix(4.16667,0,0,4.16667,0,0)">
            <path d="M101.036,85.045C100.41,85.161 99.758,85.389 99.203,85.741C98.647,86.093 98.175,86.562 97.826,87.136C97.826,87.136 97.755,87.254 97.648,87.43C97.549,87.611 97.388,87.833 97.22,88.05C96.891,88.49 96.562,88.93 96.562,88.93C96.562,88.93 97.086,88.936 97.61,88.943C98.142,88.938 98.674,88.933 98.674,88.933C100.015,88.909 101.236,88.044 102.009,86.791C102.009,86.791 102.338,86.288 102.581,85.737C102.843,85.197 103.104,84.657 103.104,84.657C103.104,84.657 102.584,84.76 102.064,84.863C101.55,84.954 101.036,85.045 101.036,85.045Z" style="fill:white;fill-rule:nonzero;"/>
        </g>
        <g transform="matrix(4.16667,0,0,4.16667,0,0)">
            <path d="M98.317,89.427C97.647,89.434 96.997,89.593 96.416,89.88C95.836,90.169 95.337,90.596 94.866,91.077L93.389,92.702C93.389,92.702 93.899,92.77 94.409,92.839C94.929,92.897 95.448,92.955 95.448,92.955C96.107,93.022 96.787,92.906 97.429,92.633C98.072,92.361 98.593,91.865 99.043,91.286C99.043,91.286 99.402,90.805 99.761,90.324C99.939,90.084 100.118,89.843 100.253,89.662C100.384,89.48 100.455,89.347 100.455,89.347C100.455,89.347 99.937,89.396 99.389,89.406C98.853,89.417 98.317,89.427 98.317,89.427Z" style="fill:white;fill-rule:nonzero;"/>
        </g>
        <g transform="matrix(4.16667,0,0,4.16667,0,0)">
            <path d="M95.09,93.363C94.429,93.285 93.797,93.389 93.171,93.584C92.534,93.769 91.946,94.087 91.449,94.539C91.449,94.539 91.042,94.908 90.636,95.277C90.439,95.47 90.217,95.631 90.051,95.753C89.886,95.877 89.776,95.959 89.776,95.959C89.776,95.959 90.284,96.108 90.791,96.256C91.051,96.333 91.3,96.39 91.488,96.433C91.676,96.476 91.802,96.505 91.802,96.505C93.062,96.787 94.541,96.354 95.592,95.325L97.207,93.552C97.207,93.552 96.673,93.51 96.139,93.468C95.615,93.416 95.09,93.363 95.09,93.363Z" style="fill:white;fill-rule:nonzero;"/>
        </g>
        <g transform="matrix(4.16667,0,0,4.16667,0,0)">
            <path d="M91.67,96.994C91.476,96.943 91.346,96.91 91.346,96.91C90.037,96.562 88.655,96.797 87.583,97.599L85.707,98.741C85.707,98.741 86.185,98.946 86.662,99.151C87.151,99.349 87.641,99.547 87.641,99.547C88.907,100.077 90.369,99.761 91.547,98.877C91.547,98.877 92.026,98.516 92.505,98.156C92.952,97.756 93.399,97.356 93.399,97.356C93.399,97.356 92.883,97.252 92.367,97.148C92.114,97.092 91.86,97.036 91.67,96.994Z" style="fill:white;fill-rule:nonzero;"/>
        </g>
        <g transform="matrix(4.16667,0,0,4.16667,0,0)">
            <path d="M87.182,99.838C85.937,99.331 84.592,99.483 83.361,100.017L81.382,100.97C81.382,100.97 81.824,101.227 82.265,101.485C82.72,101.736 83.174,101.987 83.174,101.987C83.753,102.3 84.422,102.45 85.117,102.439C85.462,102.432 85.819,102.393 86.162,102.298C86.496,102.187 86.825,102.035 87.139,101.845L89.189,100.597C89.189,100.597 88.681,100.411 88.174,100.225C87.678,100.031 87.182,99.838 87.182,99.838Z" style="fill:white;fill-rule:nonzero;"/>
        </g>
        <g transform="matrix(4.16667,0,0,4.16667,0,0)">
            <path d="M82.628,102.26C82.342,102.102 82.041,101.981 81.733,101.896C81.417,101.794 81.09,101.72 80.762,101.685C80.106,101.614 79.443,101.686 78.813,101.917C78.813,101.917 78.684,101.964 78.49,102.035C78.294,102.098 78.044,102.217 77.776,102.277C77.244,102.414 76.712,102.551 76.712,102.551C76.712,102.551 77.12,102.883 77.528,103.215C77.95,103.543 78.371,103.871 78.371,103.871C79.425,104.638 80.935,104.757 82.318,104.249C82.318,104.249 82.459,104.196 82.669,104.117C82.872,104.02 83.143,103.89 83.414,103.761C83.955,103.501 84.496,103.241 84.496,103.241C84.496,103.241 84.023,102.999 83.549,102.757C83.089,102.509 82.628,102.26 82.628,102.26Z" style="fill:white;fill-rule:nonzero;"/>
        </g>
        <g transform="matrix(4.16667,0,0,4.16667,0,0)">
            <path d="M77.848,104.016C76.777,103.179 75.424,102.914 74.116,103.185L71.944,103.517C71.944,103.517 72.303,103.89 72.662,104.264C73.035,104.635 73.408,105.007 73.408,105.007C73.883,105.467 74.495,105.823 75.165,105.986C75.827,106.12 76.556,106.099 77.267,105.916C77.267,105.916 77.848,105.765 78.429,105.615C78.72,105.539 79.012,105.469 79.22,105.382C79.432,105.305 79.573,105.254 79.573,105.254C79.573,105.254 79.14,104.961 78.706,104.668C78.277,104.342 77.848,104.016 77.848,104.016Z" style="fill:white;fill-rule:nonzero;"/>
        </g>
        <g transform="matrix(4.16667,0,0,4.16667,0,0)">
            <path d="M72.806,105.109C72.336,104.641 71.771,104.296 71.163,104.093C70.555,103.898 69.891,103.724 69.222,103.773L67.028,103.883C67.028,103.883 67.334,104.292 67.639,104.7C67.959,105.108 68.278,105.516 68.278,105.516C68.688,106.029 69.245,106.428 69.887,106.687C70.528,106.951 71.256,107.082 71.979,106.947L74.352,106.584C74.352,106.584 73.959,106.217 73.565,105.849C73.186,105.479 72.806,105.109 72.806,105.109Z" style="fill:white;fill-rule:nonzero;"/>
        </g>
        <g transform="matrix(4.16667,0,0,4.16667,0,0)">
            <path d="M44.333,43.01C44.201,43.136 44.113,43.221 44.113,43.221C43.686,43.638 43.157,43.919 42.578,44.08C42.017,44.259 41.395,44.306 40.76,44.209C40.76,44.209 40.25,44.137 39.741,44.065C39.235,44.014 38.729,43.962 38.729,43.962C38.729,43.962 39.059,43.536 39.434,43.148C39.799,42.752 40.164,42.356 40.164,42.356C40.597,41.858 41.198,41.553 41.792,41.369C42.388,41.185 43.035,41.182 43.657,41.358C43.657,41.358 44.144,41.498 44.63,41.638C45.106,41.786 45.582,41.935 45.582,41.935C45.582,41.935 45.212,42.254 44.842,42.573C44.657,42.732 44.472,42.891 44.333,43.01Z" style="fill:white;fill-rule:nonzero;"/>
        </g>
        <g transform="matrix(4.16667,0,0,4.16667,0,0)">
            <path d="M37.905,47.829C37.905,47.829 37.401,47.832 36.896,47.835C36.384,47.85 35.872,47.864 35.872,47.864C35.872,47.864 36.162,47.411 36.453,46.957C36.757,46.513 37.08,46.081 37.08,46.081C37.832,44.991 39.161,44.464 40.397,44.616C40.397,44.616 40.902,44.694 41.406,44.771C41.902,44.859 42.397,44.946 42.397,44.946C42.397,44.946 42.066,45.305 41.735,45.664C41.415,46.032 41.112,46.415 41.112,46.415C40.333,47.315 39.213,47.863 37.905,47.829Z" style="fill:white;fill-rule:nonzero;"/>
        </g>
        <g transform="matrix(4.16667,0,0,4.16667,0,0)">
            <path d="M34.378,50.418C34.477,50.241 34.543,50.124 34.543,50.124C34.868,49.551 35.311,49.066 35.847,48.739C36.399,48.421 37.018,48.246 37.652,48.243C37.652,48.243 38.153,48.247 38.654,48.252C39.16,48.276 39.667,48.3 39.667,48.3C39.667,48.3 39.595,48.399 39.487,48.547C39.374,48.692 39.242,48.896 39.112,49.103C38.849,49.514 38.586,49.925 38.586,49.925C38.248,50.417 37.857,50.854 37.339,51.16C36.821,51.466 36.229,51.673 35.608,51.756C35.608,51.756 35.104,51.823 34.6,51.891C34.09,51.971 33.58,52.051 33.58,52.051C33.58,52.051 33.816,51.567 34.052,51.082C34.17,50.841 34.289,50.599 34.378,50.418Z" style="fill:white;fill-rule:nonzero;"/>
        </g>
        <g transform="matrix(4.16667,0,0,4.16667,0,0)">
            <path d="M32.191,55.545C32.367,55.037 32.544,54.528 32.544,54.528C33.028,53.297 34.093,52.404 35.378,52.25C35.378,52.25 35.879,52.189 36.379,52.127C36.874,52.078 37.368,52.029 37.368,52.029L36.516,53.784C36.289,54.335 35.922,54.803 35.449,55.176C34.982,55.551 34.45,55.845 33.825,56.003C33.825,56.003 33.33,56.136 32.836,56.27C32.333,56.407 31.851,56.567 31.851,56.567C31.851,56.567 31.882,56.436 31.948,56.245C32.014,56.054 32.103,55.8 32.191,55.545Z" style="fill:white;fill-rule:nonzero;"/>
        </g>
        <g transform="matrix(4.16667,0,0,4.16667,0,0)">
            <path d="M34.659,56.212C35.146,56.1 35.634,55.987 35.634,55.987C35.634,55.987 35.474,56.447 35.314,56.908C35.14,57.364 35.023,57.837 35.023,57.837C34.87,58.413 34.537,58.918 34.141,59.356C33.747,59.794 33.234,60.151 32.636,60.391C32.636,60.391 32.155,60.58 31.69,60.787C31.229,61.001 30.767,61.215 30.767,61.215C30.767,61.215 30.788,61.082 30.819,60.883C30.845,60.682 30.892,60.417 30.954,60.155C31.069,59.629 31.183,59.102 31.183,59.102C31.307,58.454 31.649,57.881 32.08,57.424C32.514,56.966 33.041,56.626 33.675,56.464C33.675,56.464 34.167,56.338 34.659,56.212Z" style="fill:white;fill-rule:nonzero;"/>
        </g>
        <g transform="matrix(4.16667,0,0,4.16667,0,0)">
            <path d="M30.334,64.952C30.382,64.415 30.43,63.879 30.43,63.879C30.517,62.557 31.396,61.426 32.535,60.926C32.535,60.926 33.005,60.728 33.479,60.545C33.951,60.368 34.423,60.192 34.423,60.192C34.423,60.192 34.319,60.668 34.215,61.144C34.141,61.626 34.067,62.109 34.067,62.109C33.851,63.278 33.178,64.323 32.031,64.961C32.031,64.961 31.598,65.213 31.165,65.481C30.733,65.755 30.301,66.029 30.301,66.029C30.301,66.029 30.318,65.49 30.334,64.952Z" style="fill:white;fill-rule:nonzero;"/>
        </g>
        <g transform="matrix(4.16667,0,0,4.16667,0,0)">
            <path d="M30.344,68.649C30.323,67.991 30.408,67.349 30.73,66.794C31.04,66.239 31.481,65.772 32.023,65.446C32.023,65.446 32.447,65.186 32.892,64.942C33.34,64.704 33.788,64.467 33.788,64.467C33.788,64.467 33.776,64.588 33.759,64.771C33.738,64.953 33.719,65.196 33.718,65.441C33.703,65.929 33.688,66.418 33.688,66.418C33.649,67.015 33.525,67.59 33.265,68.117C32.999,68.644 32.597,69.124 32.083,69.513C32.083,69.513 31.675,69.828 31.266,70.144C30.859,70.472 30.452,70.801 30.452,70.801L30.344,68.649Z" style="fill:white;fill-rule:nonzero;"/>
        </g>
        <g transform="matrix(4.16667,0,0,4.16667,0,0)">
            <path d="M31.028,74.519C30.924,73.992 30.854,73.457 30.854,73.457C30.755,72.805 30.816,72.148 31.022,71.561C31.125,71.267 31.264,70.991 31.437,70.739C31.633,70.485 31.863,70.255 32.119,70.057C32.119,70.057 32.528,69.749 32.937,69.44C33.346,69.146 33.755,68.851 33.755,68.851C33.755,68.851 33.779,69.339 33.803,69.827C33.815,70.071 33.826,70.315 33.835,70.498C33.864,70.678 33.883,70.799 33.883,70.799C34.069,71.972 33.598,73.169 32.663,74.085C32.663,74.085 32.32,74.447 31.977,74.81C31.637,75.186 31.297,75.563 31.297,75.563C31.297,75.563 31.162,75.041 31.028,74.519Z" style="fill:white;fill-rule:nonzero;"/>
        </g>
        <g transform="matrix(4.16667,0,0,4.16667,0,0)">
            <path d="M32.714,80.118L31.973,78.095C31.596,76.829 31.94,75.453 32.794,74.552C32.794,74.552 33.132,74.191 33.49,73.841C33.866,73.494 34.242,73.147 34.242,73.147C34.242,73.147 34.26,73.267 34.287,73.448C34.304,73.631 34.359,73.868 34.426,74.103C34.549,74.575 34.672,75.046 34.672,75.046C34.821,75.623 34.808,76.222 34.655,76.811C34.518,77.393 34.299,77.948 33.909,78.457C33.909,78.457 33.608,78.866 33.307,79.275C33.01,79.697 32.714,80.118 32.714,80.118Z" style="fill:white;fill-rule:nonzero;"/>
        </g>
        <g transform="matrix(4.16667,0,0,4.16667,0,0)">
            <path d="M34.732,84.512C34.732,84.512 34.652,84.402 34.567,84.219C34.479,84.037 34.362,83.794 34.245,83.551C34.012,83.066 33.778,82.581 33.778,82.581C33.504,81.982 33.333,81.357 33.415,80.72C33.494,80.084 33.726,79.479 34.106,78.965C34.106,78.965 34.409,78.563 34.713,78.162C35.021,77.773 35.329,77.384 35.329,77.384L35.999,79.215C36.178,79.785 36.299,80.358 36.26,80.947C36.219,81.536 36.035,82.136 35.713,82.695C35.713,82.695 35.46,83.145 35.206,83.596C34.947,84.057 34.732,84.512 34.732,84.512Z" style="fill:white;fill-rule:nonzero;"/>
        </g>
        <g transform="matrix(4.16667,0,0,4.16667,0,0)">
            <path d="M37.671,87.55C37.503,88.031 37.334,88.512 37.334,88.512C37.334,88.512 37.011,88.081 36.688,87.65C36.524,87.437 36.365,87.219 36.268,87.041C36.164,86.868 36.094,86.753 36.094,86.753C35.752,86.19 35.555,85.559 35.519,84.936C35.482,84.312 35.594,83.702 35.931,83.128C35.931,83.128 36.188,82.684 36.445,82.241C36.707,81.81 36.97,81.379 36.97,81.379C36.97,81.379 37.803,83.143 37.856,83.114C38.49,84.119 38.479,85.435 38.025,86.61C38.025,86.61 37.848,87.08 37.671,87.55Z" style="fill:white;fill-rule:nonzero;"/>
        </g>
        <g transform="matrix(4.16667,0,0,4.16667,0,0)">
            <path d="M40.669,91.198C40.558,91.706 40.446,92.213 40.446,92.213L38.997,90.618C38.534,90.147 38.287,89.522 38.185,88.896C38.082,88.269 38.137,87.631 38.36,87.041C38.36,87.041 38.54,86.577 38.721,86.113C38.896,85.66 39.118,85.194 39.118,85.194C39.118,85.194 39.174,85.303 39.282,85.451C39.392,85.597 39.539,85.792 39.686,85.987C39.979,86.377 40.271,86.768 40.271,86.768C40.638,87.237 40.823,87.825 40.952,88.394C41.079,88.965 41.067,89.585 40.91,90.204C40.91,90.204 40.789,90.701 40.669,91.198Z" style="fill:white;fill-rule:nonzero;"/>
        </g>
        <g transform="matrix(4.16667,0,0,4.16667,0,0)">
            <path d="M41.765,88.613L43.076,90.059C43.929,90.887 44.338,92.079 44.168,93.38C44.168,93.38 44.152,93.508 44.127,93.701C44.103,93.894 44.071,94.155 44.056,94.4C44.023,94.904 43.99,95.408 43.99,95.408C43.99,95.408 43.883,95.327 43.721,95.206C43.558,95.086 43.34,94.928 43.147,94.739C42.748,94.377 42.35,94.014 42.35,94.014C41.862,93.571 41.497,93.024 41.29,92.441C41.093,91.847 41.097,91.175 41.243,90.557C41.243,90.557 41.369,90.066 41.495,89.574C41.63,89.094 41.765,88.613 41.765,88.613Z" style="fill:white;fill-rule:nonzero;"/>
        </g>
        <g transform="matrix(4.16667,0,0,4.16667,0,0)">
            <path d="M44.586,93.728C44.586,93.728 44.598,93.604 44.616,93.418C44.642,93.227 44.676,92.971 44.71,92.716C44.787,92.213 44.864,91.71 44.864,91.71C44.864,91.71 45.226,92.037 45.588,92.365C45.98,92.656 46.372,92.947 46.372,92.947C47.325,93.656 47.829,94.869 47.889,96.098C47.889,96.098 47.906,96.604 47.924,97.11C47.953,97.623 47.982,98.136 47.982,98.136L46.141,97.016C45.082,96.224 44.472,94.969 44.586,93.728Z" style="fill:white;fill-rule:nonzero;"/>
        </g>
        <g transform="matrix(4.16667,0,0,4.16667,0,0)">
            <path d="M50.283,99.388C49.066,98.861 48.352,97.597 48.308,96.341C48.308,96.341 48.298,95.839 48.287,95.338C48.287,94.844 48.288,94.35 48.288,94.35L49.957,95.361C50.211,95.517 50.442,95.705 50.647,95.921C50.861,96.12 51.059,96.33 51.225,96.574C51.559,97.059 51.786,97.641 51.879,98.277C51.879,98.277 51.959,98.786 52.039,99.295C52.131,99.809 52.224,100.323 52.224,100.323L50.283,99.388Z" style="fill:white;fill-rule:nonzero;"/>
        </g>
        <g transform="matrix(4.16667,0,0,4.16667,0,0)">
            <path d="M56.471,100.913C56.638,101.393 56.804,101.873 56.804,101.873C56.804,101.873 56.282,101.739 55.76,101.605C55.497,101.546 55.252,101.429 55.06,101.367C54.87,101.298 54.744,101.251 54.744,101.251C54.125,101.025 53.579,100.655 53.163,100.191C52.956,99.959 52.779,99.707 52.643,99.43C52.515,99.136 52.423,98.826 52.373,98.506C52.373,98.506 52.3,98 52.227,97.494C52.166,96.994 52.105,96.495 52.105,96.495C52.105,96.495 52.544,96.707 52.983,96.919C53.202,97.026 53.421,97.133 53.586,97.213C53.757,97.276 53.872,97.318 53.872,97.318C54.99,97.717 55.809,98.714 56.166,99.962C56.166,99.962 56.318,100.438 56.471,100.913Z" style="fill:white;fill-rule:nonzero;"/>
        </g>
        <g transform="matrix(4.16667,0,0,4.16667,0,0)">
            <path d="M61.026,101.894C61.253,102.357 61.48,102.82 61.48,102.82L59.35,102.495C58.056,102.228 57.017,101.253 56.638,100.072C56.638,100.072 56.493,99.6 56.348,99.126C56.224,98.629 56.101,98.133 56.101,98.133C56.101,98.133 56.215,98.175 56.386,98.239C56.555,98.312 56.793,98.366 57.029,98.426C57.502,98.546 57.974,98.666 57.974,98.666C58.551,98.814 59.07,99.114 59.512,99.532C59.96,99.921 60.339,100.388 60.599,100.972C60.599,100.972 60.812,101.433 61.026,101.894Z" style="fill:white;fill-rule:nonzero;"/>
        </g>
        <g transform="matrix(4.16667,0,0,4.16667,0,0)">
            <path d="M62.345,102.495C61.825,102.12 61.407,101.624 61.139,101.045C61.139,101.045 60.932,100.585 60.726,100.125C60.533,99.669 60.34,99.212 60.34,99.212L62.269,99.506C62.855,99.624 63.416,99.798 63.914,100.111C64.412,100.428 64.849,100.877 65.184,101.428C65.184,101.428 65.457,101.866 65.73,102.304C66.016,102.742 66.303,103.18 66.303,103.18L64.151,103.071C63.494,103.023 62.863,102.88 62.345,102.495Z" style="fill:white;fill-rule:nonzero;"/>
        </g>
        <g transform="matrix(4.16667,0,0,4.16667,0,0)">
            <path d="M88.998,43.01C89.13,43.136 89.218,43.221 89.218,43.221C89.645,43.638 90.174,43.919 90.753,44.08C91.313,44.259 91.936,44.306 92.571,44.209C92.571,44.209 93.08,44.137 93.59,44.065C94.096,44.014 94.602,43.962 94.602,43.962C94.602,43.962 94.272,43.536 93.897,43.148C93.532,42.752 93.167,42.356 93.167,42.356C92.734,41.858 92.133,41.553 91.539,41.369C90.943,41.185 90.296,41.182 89.673,41.358C89.673,41.358 89.187,41.498 88.701,41.638C88.225,41.786 87.749,41.935 87.749,41.935C87.749,41.935 88.119,42.254 88.488,42.573C88.673,42.732 88.859,42.891 88.998,43.01Z" style="fill:white;fill-rule:nonzero;"/>
        </g>
        <g transform="matrix(4.16667,0,0,4.16667,0,0)">
            <path d="M95.425,47.829C95.425,47.829 95.93,47.832 96.435,47.835C96.947,47.85 97.459,47.864 97.459,47.864C97.459,47.864 97.168,47.411 96.878,46.957C96.574,46.513 96.251,46.081 96.251,46.081C95.499,44.991 94.17,44.464 92.934,44.616C92.934,44.616 92.429,44.694 91.924,44.771C91.429,44.859 90.934,44.946 90.934,44.946C90.934,44.946 91.265,45.305 91.596,45.664C91.916,46.032 92.219,46.415 92.219,46.415C92.998,47.315 94.118,47.863 95.425,47.829Z" style="fill:white;fill-rule:nonzero;"/>
        </g>
        <g transform="matrix(4.16667,0,0,4.16667,0,0)">
            <path d="M98.953,50.418C98.854,50.241 98.788,50.124 98.788,50.124C98.462,49.551 98.019,49.066 97.483,48.739C96.931,48.421 96.313,48.246 95.679,48.243C95.679,48.243 95.178,48.247 94.677,48.252C94.17,48.276 93.664,48.3 93.664,48.3C93.664,48.3 93.736,48.399 93.844,48.547C93.957,48.692 94.089,48.896 94.218,49.103C94.482,49.514 94.745,49.925 94.745,49.925C95.083,50.417 95.474,50.854 95.992,51.16C96.51,51.466 97.101,51.673 97.723,51.756C97.723,51.756 98.227,51.823 98.73,51.891C99.24,51.971 99.75,52.051 99.75,52.051C99.75,52.051 99.515,51.567 99.279,51.082C99.16,50.841 99.042,50.599 98.953,50.418Z" style="fill:white;fill-rule:nonzero;"/>
        </g>
        <g transform="matrix(4.16667,0,0,4.16667,0,0)">
            <path d="M101.14,55.545C100.964,55.037 100.787,54.528 100.787,54.528C100.303,53.297 99.238,52.404 97.953,52.25C97.953,52.25 97.452,52.189 96.951,52.127C96.457,52.078 95.963,52.029 95.963,52.029L96.815,53.784C97.041,54.335 97.409,54.803 97.882,55.176C98.348,55.551 98.881,55.845 99.506,56.003C99.506,56.003 100.001,56.136 100.495,56.27C100.998,56.407 101.48,56.567 101.48,56.567C101.48,56.567 101.449,56.436 101.383,56.245C101.317,56.054 101.229,55.8 101.14,55.545Z" style="fill:white;fill-rule:nonzero;"/>
        </g>
        <g transform="matrix(4.16667,0,0,4.16667,0,0)">
            <path d="M98.672,56.212C98.184,56.1 97.697,55.987 97.697,55.987C97.697,55.987 97.857,56.447 98.017,56.908C98.19,57.364 98.308,57.837 98.308,57.837C98.461,58.413 98.794,58.918 99.19,59.356C99.583,59.794 100.097,60.151 100.695,60.391C100.695,60.391 101.176,60.58 101.641,60.787C102.102,61.001 102.564,61.215 102.564,61.215C102.564,61.215 102.543,61.082 102.513,60.883C102.486,60.682 102.439,60.417 102.377,60.155C102.263,59.629 102.148,59.102 102.148,59.102C102.025,58.454 101.682,57.881 101.251,57.424C100.817,56.966 100.29,56.626 99.656,56.464C99.656,56.464 99.164,56.338 98.672,56.212Z" style="fill:white;fill-rule:nonzero;"/>
        </g>
        <g transform="matrix(4.16667,0,0,4.16667,0,0)">
            <path d="M102.997,64.952C102.949,64.415 102.901,63.879 102.901,63.879C102.814,62.557 101.935,61.426 100.796,60.926C100.796,60.926 100.326,60.728 99.851,60.545C99.38,60.368 98.908,60.192 98.908,60.192C98.908,60.192 99.012,60.668 99.116,61.144C99.19,61.626 99.263,62.109 99.263,62.109C99.479,63.278 100.153,64.323 101.3,64.961C101.3,64.961 101.733,65.213 102.166,65.481C102.598,65.755 103.03,66.029 103.03,66.029C103.03,66.029 103.013,65.49 102.997,64.952Z" style="fill:white;fill-rule:nonzero;"/>
        </g>
        <g transform="matrix(4.16667,0,0,4.16667,0,0)">
            <path d="M102.988,68.649C103.008,67.991 102.923,67.349 102.601,66.794C102.291,66.239 101.85,65.772 101.308,65.446C101.308,65.446 100.884,65.186 100.439,64.942C99.991,64.704 99.543,64.467 99.543,64.467C99.543,64.467 99.554,64.588 99.572,64.771C99.592,64.953 99.612,65.196 99.613,65.441C99.628,65.929 99.642,66.418 99.642,66.418C99.682,67.015 99.806,67.59 100.066,68.117C100.332,68.644 100.734,69.124 101.248,69.513C101.248,69.513 101.657,69.828 102.065,70.144C102.472,70.472 102.879,70.801 102.879,70.801L102.988,68.649Z" style="fill:white;fill-rule:nonzero;"/>
        </g>
        <g transform="matrix(4.16667,0,0,4.16667,0,0)">
            <path d="M102.303,74.519C102.407,73.992 102.477,73.457 102.477,73.457C102.576,72.805 102.515,72.148 102.309,71.561C102.206,71.267 102.067,70.991 101.894,70.739C101.698,70.485 101.468,70.255 101.212,70.057C101.212,70.057 100.803,69.749 100.394,69.44C99.985,69.146 99.575,68.851 99.575,68.851C99.575,68.851 99.552,69.339 99.528,69.827C99.516,70.071 99.504,70.315 99.496,70.498C99.467,70.678 99.448,70.799 99.448,70.799C99.262,71.972 99.732,73.169 100.668,74.085C100.668,74.085 101.011,74.447 101.354,74.81C101.694,75.186 102.035,75.563 102.035,75.563C102.035,75.563 102.169,75.041 102.303,74.519Z" style="fill:white;fill-rule:nonzero;"/>
        </g>
        <g transform="matrix(4.16667,0,0,4.16667,0,0)">
            <path d="M100.617,80.118L101.358,78.095C101.735,76.829 101.391,75.453 100.537,74.552C100.537,74.552 100.199,74.191 99.841,73.841C99.465,73.494 99.089,73.147 99.089,73.147C99.089,73.147 99.071,73.267 99.044,73.448C99.026,73.631 98.972,73.868 98.904,74.103C98.782,74.575 98.659,75.046 98.659,75.046C98.51,75.623 98.523,76.222 98.676,76.811C98.812,77.393 99.031,77.948 99.421,78.457C99.421,78.457 99.723,78.866 100.024,79.275C100.321,79.697 100.617,80.118 100.617,80.118Z" style="fill:white;fill-rule:nonzero;"/>
        </g>
        <g transform="matrix(4.16667,0,0,4.16667,0,0)">
            <path d="M98.599,84.512C98.599,84.512 98.679,84.402 98.764,84.219C98.852,84.037 98.968,83.794 99.085,83.551C99.319,83.066 99.553,82.581 99.553,82.581C99.827,81.982 99.998,81.357 99.916,80.72C99.837,80.084 99.604,79.479 99.225,78.965C99.225,78.965 98.921,78.563 98.618,78.162C98.31,77.773 98.002,77.384 98.002,77.384L97.331,79.215C97.152,79.785 97.032,80.358 97.071,80.947C97.111,81.536 97.296,82.136 97.618,82.695C97.618,82.695 97.871,83.145 98.124,83.596C98.384,84.057 98.599,84.512 98.599,84.512Z" style="fill:white;fill-rule:nonzero;"/>
        </g>
        <g transform="matrix(4.16667,0,0,4.16667,0,0)">
            <path d="M95.659,87.55C95.828,88.031 95.997,88.512 95.997,88.512C95.997,88.512 96.32,88.081 96.642,87.65C96.807,87.437 96.965,87.219 97.062,87.041C97.167,86.868 97.237,86.753 97.237,86.753C97.579,86.19 97.776,85.559 97.812,84.936C97.848,84.312 97.736,83.702 97.4,83.128C97.4,83.128 97.143,82.684 96.886,82.241C96.623,81.81 96.361,81.379 96.361,81.379C96.361,81.379 95.527,83.143 95.475,83.114C94.841,84.119 94.852,85.435 95.306,86.61C95.306,86.61 95.483,87.08 95.659,87.55Z" style="fill:white;fill-rule:nonzero;"/>
        </g>
        <g transform="matrix(4.16667,0,0,4.16667,0,0)">
            <path d="M92.662,91.198C92.773,91.706 92.884,92.213 92.884,92.213L94.334,90.618C94.797,90.147 95.044,89.522 95.146,88.896C95.248,88.269 95.194,87.631 94.971,87.041C94.971,87.041 94.79,86.577 94.609,86.113C94.434,85.66 94.213,85.194 94.213,85.194C94.213,85.194 94.156,85.303 94.049,85.451C93.939,85.597 93.792,85.792 93.645,85.987C93.352,86.377 93.059,86.768 93.059,86.768C92.692,87.237 92.507,87.825 92.378,88.394C92.252,88.965 92.263,89.585 92.421,90.204C92.421,90.204 92.541,90.701 92.662,91.198Z" style="fill:white;fill-rule:nonzero;"/>
        </g>
        <g transform="matrix(4.16667,0,0,4.16667,0,0)">
            <path d="M91.566,88.613L90.254,90.059C89.402,90.887 88.992,92.079 89.163,93.38C89.163,93.38 89.179,93.508 89.203,93.701C89.228,93.894 89.259,94.155 89.275,94.4C89.307,94.904 89.34,95.408 89.34,95.408C89.34,95.408 89.448,95.327 89.61,95.206C89.773,95.086 89.991,94.928 90.184,94.739C90.582,94.377 90.981,94.014 90.981,94.014C91.469,93.571 91.833,93.024 92.041,92.441C92.238,91.847 92.234,91.175 92.087,90.557C92.087,90.557 91.962,90.066 91.836,89.574C91.701,89.094 91.566,88.613 91.566,88.613Z" style="fill:white;fill-rule:nonzero;"/>
        </g>
        <g transform="matrix(4.16667,0,0,4.16667,0,0)">
            <path d="M88.744,93.728C88.744,93.728 88.732,93.604 88.715,93.418C88.689,93.227 88.655,92.971 88.621,92.716C88.543,92.213 88.466,91.71 88.466,91.71C88.466,91.71 88.105,92.037 87.743,92.365C87.351,92.656 86.959,92.947 86.959,92.947C86.006,93.656 85.502,94.869 85.442,96.098C85.442,96.098 85.425,96.604 85.407,97.11C85.378,97.623 85.349,98.136 85.349,98.136L87.189,97.016C88.249,96.224 88.859,94.969 88.744,93.728Z" style="fill:white;fill-rule:nonzero;"/>
        </g>
        <g transform="matrix(4.16667,0,0,4.16667,0,0)">
            <path d="M83.048,99.388C84.265,98.861 84.979,97.597 85.022,96.341C85.022,96.341 85.033,95.839 85.044,95.338C85.043,94.844 85.043,94.35 85.043,94.35L83.374,95.361C83.119,95.517 82.889,95.705 82.684,95.921C82.469,96.12 82.271,96.33 82.105,96.574C81.772,97.059 81.545,97.641 81.452,98.277C81.452,98.277 81.372,98.786 81.292,99.295C81.199,99.809 81.107,100.323 81.107,100.323L83.048,99.388Z" style="fill:white;fill-rule:nonzero;"/>
        </g>
        <g transform="matrix(4.16667,0,0,4.16667,0,0)">
            <path d="M76.859,100.913C76.693,101.393 76.527,101.873 76.527,101.873C76.527,101.873 77.049,101.739 77.57,101.605C77.834,101.546 78.079,101.429 78.271,101.367C78.461,101.298 78.587,101.251 78.587,101.251C79.206,101.025 79.752,100.655 80.168,100.191C80.375,99.959 80.552,99.707 80.688,99.43C80.816,99.136 80.907,98.826 80.957,98.506C80.957,98.506 81.031,98 81.104,97.494C81.165,96.994 81.226,96.495 81.226,96.495C81.226,96.495 80.787,96.707 80.348,96.919C80.129,97.026 79.91,97.133 79.745,97.213C79.574,97.276 79.459,97.318 79.459,97.318C78.341,97.717 77.522,98.714 77.165,99.962C77.165,99.962 77.012,100.438 76.859,100.913Z" style="fill:white;fill-rule:nonzero;"/>
        </g>
        <g transform="matrix(4.16667,0,0,4.16667,0,0)">
            <path d="M72.305,101.894C72.078,102.357 71.851,102.82 71.851,102.82L73.981,102.495C75.275,102.228 76.313,101.253 76.692,100.072C76.692,100.072 76.838,99.6 76.983,99.126C77.107,98.629 77.23,98.133 77.23,98.133C77.23,98.133 77.116,98.175 76.944,98.239C76.776,98.312 76.538,98.366 76.301,98.426C75.829,98.546 75.357,98.666 75.357,98.666C74.78,98.814 74.261,99.114 73.819,99.532C73.371,99.921 72.991,100.388 72.732,100.972C72.732,100.972 72.519,101.433 72.305,101.894Z" style="fill:white;fill-rule:nonzero;"/>
        </g>
        <g transform="matrix(4.16667,0,0,4.16667,0,0)">
            <path d="M70.986,102.495C71.506,102.12 71.924,101.624 72.192,101.045C72.192,101.045 72.398,100.585 72.605,100.125C72.798,99.669 72.99,99.212 72.99,99.212L71.062,99.506C70.476,99.624 69.915,99.798 69.416,100.111C68.919,100.428 68.482,100.877 68.147,101.428C68.147,101.428 67.874,101.866 67.601,102.304C67.314,102.742 67.028,103.18 67.028,103.18L69.18,103.071C69.837,103.023 70.468,102.88 70.986,102.495Z" style="fill:white;fill-rule:nonzero;"/>
        </g>
        <g transform="matrix(4.16667,0,0,4.16667,0,0)">
            <path d="M89.533,39.767C90.152,40.317 91.009,40.588 91.895,40.595C91.869,39.674 91.384,38.892 90.73,38.313C90.054,37.76 89.151,37.49 88.273,37.601C88.418,38.51 88.892,39.243 89.533,39.767Z" style="fill:white;fill-rule:nonzero;"/>
        </g>
        <g transform="matrix(4.16667,0,0,4.16667,0,0)">
            <path d="M39.654,41.872C39.654,41.872 39.282,42.276 38.91,42.68C38.528,43.075 38.191,43.51 38.191,43.51C38.191,43.51 38.062,43.001 37.932,42.492C37.825,41.983 37.717,41.475 37.717,41.475C37.587,40.829 37.638,40.145 37.851,39.484C38.082,38.842 38.485,38.235 39.012,37.725C39.012,37.725 39.121,37.622 39.284,37.467C39.454,37.32 39.681,37.124 39.908,36.928C40.362,36.537 40.817,36.146 40.817,36.146C40.817,36.146 40.843,36.681 40.87,37.217C40.907,37.744 40.944,38.271 40.944,38.271C40.993,38.923 40.894,39.579 40.684,40.204C40.475,40.83 40.095,41.365 39.654,41.872Z" style="fill:white;fill-rule:nonzero;"/>
        </g>
        <g transform="matrix(4.16667,0,0,4.16667,0,0)">
            <path d="M35.871,46.563C35.575,47.025 35.278,47.487 35.278,47.487C35.278,47.487 35.086,47.003 34.894,46.518C34.709,46.022 34.525,45.525 34.525,45.525C34.111,44.299 34.366,42.766 35.325,41.647C35.325,41.647 35.699,41.178 36.092,40.726C36.498,40.284 36.904,39.843 36.904,39.843C36.904,39.843 36.997,40.367 37.091,40.89C37.194,41.404 37.297,41.918 37.297,41.918C37.606,43.237 37.271,44.567 36.51,45.67C36.51,45.67 36.181,46.109 35.871,46.563Z" style="fill:white;fill-rule:nonzero;"/>
        </g>
        <g transform="matrix(4.16667,0,0,4.16667,0,0)">
            <path d="M34.472,47.907C34.424,48.559 34.255,49.208 33.923,49.792C33.923,49.792 33.856,49.911 33.755,50.091C33.665,50.276 33.544,50.522 33.423,50.769C33.182,51.262 32.942,51.756 32.942,51.756C32.942,51.756 32.692,51.303 32.441,50.85C32.197,50.385 31.953,49.919 31.953,49.919C31.64,49.322 31.513,48.65 31.569,47.969C31.625,47.289 31.811,46.57 32.221,45.961C32.221,45.961 32.545,45.456 32.869,44.951C33.029,44.698 33.193,44.447 33.33,44.268C33.462,44.086 33.55,43.964 33.55,43.964C33.55,43.964 33.708,44.468 33.865,44.973C34.044,45.475 34.223,45.977 34.223,45.977C34.455,46.602 34.536,47.264 34.472,47.907Z" style="fill:white;fill-rule:nonzero;"/>
        </g>
        <g transform="matrix(4.16667,0,0,4.16667,0,0)">
            <path d="M31.886,54.282C31.886,54.282 31.706,54.8 31.525,55.319C31.435,55.579 31.345,55.838 31.278,56.033C31.211,56.227 31.179,56.361 31.179,56.361C31.179,56.361 30.852,55.949 30.556,55.53C30.256,55.103 29.956,54.676 29.956,54.676C29.586,54.133 29.344,53.474 29.302,52.79C29.267,52.109 29.393,51.388 29.677,50.711L30.725,48.551C30.725,48.551 30.96,49.035 31.194,49.52C31.436,49.992 31.677,50.463 31.677,50.463C32.269,51.631 32.375,53.037 31.886,54.282Z" style="fill:white;fill-rule:nonzero;"/>
        </g>
        <g transform="matrix(4.16667,0,0,4.16667,0,0)">
            <path d="M30.534,56.985C30.659,57.627 30.624,58.286 30.498,58.946C30.498,58.946 30.381,59.483 30.265,60.019C30.201,60.287 30.153,60.557 30.126,60.761C30.095,60.965 30.074,61.101 30.074,61.101C30.074,61.101 29.703,60.729 29.332,60.357C28.967,59.98 28.624,59.591 28.624,59.591C28.185,59.102 27.883,58.487 27.731,57.81C27.582,57.134 27.643,56.411 27.836,55.702C27.836,55.702 27.985,55.12 28.194,54.557C28.391,53.99 28.588,53.423 28.588,53.423C28.588,53.423 28.881,53.87 29.173,54.317C29.471,54.752 29.769,55.186 29.769,55.186C30.134,55.721 30.411,56.345 30.534,56.985Z" style="fill:white;fill-rule:nonzero;"/>
        </g>
        <g transform="matrix(4.16667,0,0,4.16667,0,0)">
            <path d="M28.492,60.187C29.432,61.165 29.818,62.479 29.73,63.816C29.73,63.816 29.681,64.363 29.633,64.91C29.616,65.458 29.599,66.007 29.599,66.007C29.599,66.007 29.185,65.688 28.771,65.369C28.359,65.045 27.948,64.705 27.948,64.705C26.973,63.862 26.398,62.413 26.658,60.961C26.658,60.961 26.75,60.368 26.843,59.775C26.969,59.189 27.096,58.602 27.096,58.602C27.096,58.602 27.442,59.005 27.788,59.407C28.135,59.804 28.492,60.187 28.492,60.187Z" style="fill:white;fill-rule:nonzero;"/>
        </g>
        <g transform="matrix(4.16667,0,0,4.16667,0,0)">
            <path d="M27.918,65.246C28.438,65.666 28.848,66.194 29.123,66.779C29.386,67.365 29.62,68.008 29.641,68.678L29.752,70.872C29.752,70.872 29.315,70.609 28.878,70.345C28.44,70.069 28.002,69.792 28.002,69.792C27.45,69.435 26.997,68.922 26.674,68.309C26.346,67.697 26.15,66.986 26.192,66.253C26.192,66.253 26.211,65.654 26.23,65.056C26.234,64.756 26.257,64.457 26.281,64.233C26.301,64.009 26.314,63.86 26.314,63.86C26.314,63.86 26.708,64.213 27.101,64.566C27.497,64.913 27.918,65.246 27.918,65.246Z" style="fill:white;fill-rule:nonzero;"/>
        </g>
        <g transform="matrix(4.16667,0,0,4.16667,0,0)">
            <path d="M28.024,70.401C28.3,70.576 28.549,70.781 28.772,71.01C29.018,71.237 29.238,71.489 29.427,71.759C29.805,72.3 30.061,72.915 30.162,73.579C30.162,73.579 30.234,74.124 30.34,74.663C30.476,75.194 30.613,75.726 30.613,75.726C30.613,75.726 30.125,75.528 29.637,75.33C29.147,75.119 28.656,74.907 28.656,74.907C27.488,74.349 26.648,73.086 26.431,71.629C26.431,71.629 26.409,71.48 26.376,71.258C26.363,71.034 26.347,70.734 26.33,70.435C26.299,69.837 26.268,69.238 26.268,69.238C26.268,69.238 26.707,69.536 27.146,69.833C27.585,70.117 28.024,70.401 28.024,70.401Z" style="fill:white;fill-rule:nonzero;"/>
        </g>
        <g transform="matrix(4.16667,0,0,4.16667,0,0)">
            <path d="M28.78,75.435C30.028,75.973 30.922,77.028 31.303,78.309L32.058,80.372C32.058,80.372 31.558,80.237 31.057,80.102C30.552,79.954 30.047,79.806 30.047,79.806C29.418,79.609 28.802,79.246 28.349,78.734C27.911,78.217 27.578,77.569 27.396,76.858C27.396,76.858 27.248,76.276 27.099,75.694C27.02,75.404 26.954,75.112 26.928,74.888C26.894,74.666 26.871,74.517 26.871,74.517C26.871,74.517 27.336,74.756 27.802,74.995C28.284,75.225 28.78,75.435 28.78,75.435Z" style="fill:white;fill-rule:nonzero;"/>
        </g>
        <g transform="matrix(4.16667,0,0,4.16667,0,0)">
            <path d="M30.248,80.382C30.883,80.569 31.458,80.899 31.929,81.334C32.398,81.771 32.864,82.272 33.143,82.883C33.143,82.883 33.382,83.377 33.62,83.872C33.739,84.119 33.858,84.367 33.948,84.552C34.035,84.739 34.116,84.851 34.116,84.851C34.116,84.851 33.587,84.802 33.089,84.719C32.578,84.635 32.068,84.552 32.068,84.552C31.422,84.439 30.805,84.142 30.27,83.703C29.734,83.265 29.265,82.691 29.035,81.991L28.21,79.736C28.21,79.736 28.721,79.904 29.233,80.072C29.74,80.227 30.248,80.382 30.248,80.382Z" style="fill:white;fill-rule:nonzero;"/>
        </g>
        <g transform="matrix(4.16667,0,0,4.16667,0,0)">
            <path d="M32.295,85.045C32.922,85.161 33.572,85.389 34.128,85.741C34.684,86.093 35.156,86.562 35.504,87.136C35.504,87.136 35.576,87.254 35.683,87.43C35.782,87.611 35.943,87.833 36.111,88.05C36.44,88.49 36.768,88.93 36.768,88.93C36.768,88.93 36.245,88.936 35.721,88.943C35.189,88.938 34.657,88.933 34.657,88.933C33.316,88.909 32.095,88.044 31.322,86.791C31.322,86.791 30.993,86.288 30.75,85.737C30.488,85.197 30.227,84.657 30.227,84.657C30.227,84.657 30.747,84.76 31.267,84.863C31.781,84.954 32.295,85.045 32.295,85.045Z" style="fill:white;fill-rule:nonzero;"/>
        </g>
        <g transform="matrix(4.16667,0,0,4.16667,0,0)">
            <path d="M35.014,89.427C35.683,89.434 36.334,89.593 36.914,89.88C37.495,90.169 37.993,90.596 38.464,91.077L39.942,92.702C39.942,92.702 39.432,92.77 38.921,92.839C38.402,92.897 37.883,92.955 37.883,92.955C37.224,93.022 36.543,92.906 35.902,92.633C35.259,92.361 34.737,91.865 34.288,91.286C34.288,91.286 33.929,90.805 33.57,90.324C33.391,90.084 33.213,89.843 33.079,89.662C32.948,89.48 32.876,89.347 32.876,89.347C32.876,89.347 33.394,89.396 33.942,89.406C34.478,89.417 35.014,89.427 35.014,89.427Z" style="fill:white;fill-rule:nonzero;"/>
        </g>
        <g transform="matrix(4.16667,0,0,4.16667,0,0)">
            <path d="M38.241,93.363C38.901,93.285 39.534,93.389 40.16,93.584C40.797,93.769 41.385,94.087 41.882,94.539C41.882,94.539 42.288,94.908 42.695,95.277C42.891,95.47 43.114,95.631 43.28,95.753C43.445,95.877 43.555,95.959 43.555,95.959C43.555,95.959 43.047,96.108 42.539,96.256C42.279,96.333 42.031,96.39 41.843,96.433C41.654,96.476 41.528,96.505 41.528,96.505C40.269,96.787 38.79,96.354 37.739,95.325L36.124,93.552C36.124,93.552 36.658,93.51 37.191,93.468C37.716,93.416 38.241,93.363 38.241,93.363Z" style="fill:white;fill-rule:nonzero;"/>
        </g>
        <g transform="matrix(4.16667,0,0,4.16667,0,0)">
            <path d="M41.661,96.994C41.855,96.943 41.984,96.91 41.984,96.91C43.293,96.562 44.676,96.797 45.748,97.599L47.624,98.741C47.624,98.741 47.146,98.946 46.669,99.151C46.179,99.349 45.69,99.547 45.69,99.547C44.424,100.077 42.961,99.761 41.784,98.877C41.784,98.877 41.305,98.516 40.825,98.156C40.379,97.756 39.932,97.356 39.932,97.356C39.932,97.356 40.448,97.252 40.963,97.148C41.217,97.092 41.471,97.036 41.661,96.994Z" style="fill:white;fill-rule:nonzero;"/>
        </g>
        <g transform="matrix(4.16667,0,0,4.16667,0,0)">
            <path d="M46.149,99.838C47.394,99.331 48.739,99.483 49.97,100.017L51.949,100.97C51.949,100.97 51.507,101.227 51.065,101.485C50.611,101.736 50.157,101.987 50.157,101.987C49.578,102.3 48.908,102.45 48.214,102.439C47.868,102.432 47.512,102.393 47.169,102.298C46.835,102.187 46.506,102.035 46.192,101.845L44.142,100.597C44.142,100.597 44.649,100.411 45.157,100.225C45.653,100.031 46.149,99.838 46.149,99.838Z" style="fill:white;fill-rule:nonzero;"/>
        </g>
        <g transform="matrix(4.16667,0,0,4.16667,0,0)">
            <path d="M50.703,102.26C50.989,102.102 51.29,101.981 51.598,101.896C51.914,101.794 52.241,101.72 52.569,101.685C53.225,101.614 53.887,101.686 54.518,101.917C54.518,101.917 54.647,101.964 54.84,102.035C55.036,102.098 55.286,102.217 55.555,102.277C56.087,102.414 56.619,102.551 56.619,102.551C56.619,102.551 56.211,102.883 55.802,103.215C55.381,103.543 54.96,103.871 54.96,103.871C53.906,104.638 52.396,104.757 51.013,104.249C51.013,104.249 50.872,104.196 50.661,104.117C50.458,104.02 50.188,103.89 49.917,103.761C49.376,103.501 48.835,103.241 48.835,103.241C48.835,103.241 49.308,102.999 49.781,102.757C50.242,102.509 50.703,102.26 50.703,102.26Z" style="fill:white;fill-rule:nonzero;"/>
        </g>
        <g transform="matrix(4.16667,0,0,4.16667,0,0)">
            <path d="M55.483,104.016C56.554,103.179 57.906,102.914 59.215,103.185L61.386,103.517C61.386,103.517 61.027,103.89 60.668,104.264C60.296,104.635 59.923,105.007 59.923,105.007C59.447,105.467 58.836,105.823 58.166,105.986C57.503,106.12 56.775,106.099 56.064,105.916C56.064,105.916 55.482,105.765 54.901,105.615C54.611,105.539 54.319,105.469 54.11,105.382C53.899,105.305 53.757,105.254 53.757,105.254C53.757,105.254 54.191,104.961 54.625,104.668C55.054,104.342 55.483,104.016 55.483,104.016Z" style="fill:white;fill-rule:nonzero;"/>
        </g>
        <g transform="matrix(4.16667,0,0,4.16667,0,0)">
            <path d="M60.525,105.109C60.994,104.641 61.559,104.296 62.168,104.093C62.776,103.898 63.44,103.724 64.109,103.773L66.303,103.883C66.303,103.883 65.997,104.292 65.691,104.7C65.372,105.108 65.052,105.516 65.052,105.516C64.642,106.029 64.086,106.428 63.444,106.687C62.802,106.951 62.075,107.082 61.351,106.947L58.978,106.584C58.978,106.584 59.372,106.217 59.765,105.849C60.145,105.479 60.525,105.109 60.525,105.109Z" style="fill:white;fill-rule:nonzero;"/>
        </g>
        <g transform="matrix(4.16667,0,0,4.16667,0,0)">
            <path d="M43.798,39.767C43.179,40.317 42.322,40.588 41.436,40.595C41.461,39.674 41.947,38.892 42.601,38.313C43.277,37.76 44.18,37.49 45.058,37.601C44.912,38.51 44.439,39.243 43.798,39.767Z" style="fill:white;fill-rule:nonzero;"/>
        </g>
        <g transform="matrix(4.16667,0,0,4.16667,0,0)">
            <path d="M76.356,51.88C76.356,52.502 75.853,53.005 75.233,53.005L58.1,53.005C57.478,53.005 56.975,52.502 56.975,51.88C56.975,51.569 57.102,51.287 57.305,51.084C57.508,50.881 57.789,50.754 58.1,50.754L75.233,50.754C75.544,50.754 75.823,50.881 76.026,51.084C76.231,51.287 76.356,51.569 76.356,51.88Z" style="fill:white;fill-rule:nonzero;"/>
        </g>
        <g transform="matrix(4.16667,0,0,4.16667,0,0)">
            <path d="M79.264,34.162L75.409,49.783L57.922,49.783L54.067,34.162L59.68,38.558C59.68,38.558 55.758,38.22 57.178,41.398C58.598,44.576 58.733,47.011 62.926,47.011C67.118,47.011 65.698,39.978 65.698,39.978C65.698,39.978 65.428,37.611 62.926,39.302L66.667,31.998L70.405,39.302C67.903,37.611 67.632,39.978 67.632,39.978C67.632,39.978 66.212,47.011 70.405,47.011C74.598,47.011 74.733,44.576 76.153,41.398C77.573,38.22 73.651,38.558 73.651,38.558L79.264,34.162Z" style="fill:white;fill-rule:nonzero;"/>
        </g>
        <g transform="matrix(4.16667,0,0,4.16667,0,0)">
            <path d="M43.155,71.012C43.41,71.012 43.671,70.905 43.939,70.69L43.939,68.097C43.939,67.28 43.665,66.818 43.115,66.71L43.115,66.268L45.145,65.123C45.426,65.244 45.701,65.441 45.969,65.715C46.237,65.991 46.371,66.248 46.371,66.49L46.371,70.992C46.371,71.099 45.638,71.437 44.17,72.006C42.703,72.577 41.805,72.861 41.477,72.861C41.148,72.861 40.773,72.573 40.352,71.997C39.929,71.42 39.718,70.73 39.718,69.926L39.718,59.234C39.718,59.14 40.485,58.808 42.02,58.239C43.554,57.669 44.435,57.384 44.663,57.384C44.743,57.384 44.836,57.579 44.944,57.967C45.051,58.356 45.175,58.825 45.316,59.374C45.457,59.924 45.604,60.33 45.758,60.59C45.912,60.852 46.204,60.982 46.632,60.982L46.632,61.384C46.337,61.518 45.838,61.756 45.135,62.098C44.432,62.44 44.053,62.611 44,62.611C43.798,62.611 43.544,62.065 43.236,60.972C42.927,59.88 42.68,59.334 42.492,59.334C42.358,59.334 42.237,59.402 42.13,59.536L42.13,69.524C42.13,70.516 42.472,71.012 43.155,71.012Z" style="fill:white;fill-rule:nonzero;"/>
        </g>
        <g transform="matrix(4.16667,0,0,4.16667,0,0)">
            <path d="M52.139,63.645C51.965,63.384 51.744,63.253 51.476,63.253C51.208,63.253 50.913,63.354 50.592,63.555L50.592,68.198C51.797,67.863 52.4,67.139 52.4,66.027L52.4,64.6C52.4,64.225 52.314,63.907 52.139,63.645ZM53.104,61.405C53.171,61.405 53.338,61.508 53.606,61.716C53.875,61.924 54.142,62.211 54.411,62.581C54.678,62.949 54.813,63.307 54.813,63.656L54.813,67.032C54.813,67.273 54.457,67.568 53.747,67.916C53.037,68.265 52.35,68.549 51.687,68.771C51.024,68.992 50.665,69.102 50.612,69.102C50.612,70.134 51.061,70.771 51.959,71.012C52.4,71.119 52.93,71.172 53.546,71.172L53.546,71.755C51.349,72.493 50.176,72.861 50.029,72.861C49.627,72.861 49.218,72.577 48.803,72.006C48.387,71.437 48.18,70.771 48.18,70.006L48.18,63.253C48.18,63.16 48.943,62.829 50.471,62.258C51.999,61.689 52.876,61.405 53.104,61.405Z" style="fill:white;fill-rule:nonzero;"/>
        </g>
        <g transform="matrix(4.16667,0,0,4.16667,0,0)">
            <path d="M56.722,71.494L56.722,64.68C56.722,64.239 56.628,63.857 56.44,63.535C56.252,63.213 56.018,63.052 55.737,63.052L55.737,62.611C55.831,62.597 56.561,62.188 57.928,61.384C58.022,61.412 58.135,61.448 58.27,61.495C58.403,61.541 58.581,61.672 58.802,61.887C59.023,62.101 59.134,62.349 59.134,62.63C59.214,62.59 59.442,62.463 59.817,62.248C60.809,61.686 61.398,61.405 61.586,61.405C62.014,61.405 62.417,61.686 62.792,62.248C63.167,62.811 63.355,63.328 63.355,63.796L63.355,69.886C63.355,70.623 63.683,71.059 64.339,71.193L64.339,71.635L62.148,72.861C61.854,72.741 61.579,72.542 61.324,72.268C61.07,71.994 60.942,71.735 60.942,71.494L60.942,65.665C60.942,64.915 60.859,64.342 60.691,63.947C60.523,63.552 60.226,63.354 59.797,63.354L59.134,63.475L59.134,69.886C59.134,70.704 59.408,71.165 59.958,71.273L59.958,71.715L57.928,72.861C57.633,72.741 57.358,72.542 57.104,72.268C56.849,71.994 56.722,71.735 56.722,71.494Z" style="fill:white;fill-rule:nonzero;"/>
        </g>
        <g transform="matrix(4.16667,0,0,4.16667,0,0)">
            <path d="M68.087,70.58C68.295,70.8 68.526,70.912 68.781,70.912C69.035,70.912 69.303,70.811 69.585,70.61L69.585,64.359C69.585,63.541 69.31,63.08 68.761,62.972L68.761,62.53L70.791,61.384C71.085,61.505 71.36,61.703 71.615,61.977C71.869,62.252 71.997,62.51 71.997,62.751L71.997,69.565C71.997,70.006 72.09,70.388 72.278,70.71C72.465,71.032 72.7,71.193 72.981,71.193L72.981,71.635C72.888,71.648 72.157,72.057 70.791,72.861C70.482,72.727 70.204,72.529 69.957,72.268C69.709,72.006 69.585,71.755 69.585,71.514L67.072,72.861C67.032,72.834 66.972,72.797 66.892,72.75C66.811,72.704 66.673,72.603 66.48,72.449C66.285,72.295 66.114,72.13 65.967,71.957C65.565,71.514 65.364,71.012 65.364,70.449L65.364,64.359C65.364,63.623 65.035,63.187 64.379,63.052L64.379,62.611L66.57,61.384C66.864,61.505 67.139,61.703 67.394,61.977C67.648,62.252 67.776,62.51 67.776,62.751L67.776,69.725C67.776,70.074 67.879,70.359 68.087,70.58Z" style="fill:white;fill-rule:nonzero;"/>
        </g>
        <g transform="matrix(4.16667,0,0,4.16667,0,0)">
            <path d="M73.705,58.892L73.705,57.665C73.705,57.625 73.983,57.502 74.539,57.294C75.095,57.086 75.417,56.983 75.504,56.983C75.591,56.983 75.718,57.096 75.886,57.325C76.053,57.552 76.137,57.787 76.137,58.028L76.137,59.495C76.137,59.536 75.869,59.66 75.333,59.867C74.797,60.075 74.469,60.178 74.348,60.178C74.228,60.178 74.09,60.061 73.936,59.827C73.782,59.592 73.705,59.281 73.705,58.892ZM76.419,62.771L76.419,69.886C76.419,70.704 76.693,71.165 77.242,71.273L77.242,71.715L75.212,72.861C74.918,72.741 74.643,72.542 74.388,72.268C74.134,71.994 74.006,71.735 74.006,71.494L74.006,64.379C74.006,63.562 73.731,63.1 73.182,62.993L73.182,62.55L75.212,61.405C75.507,61.525 75.782,61.723 76.037,61.998C76.291,62.272 76.419,62.53 76.419,62.771Z" style="fill:white;fill-rule:nonzero;"/>
        </g>
        <g transform="matrix(4.16667,0,0,4.16667,0,0)">
            <path d="M78.428,71.494L78.428,64.68C78.428,64.239 78.334,63.857 78.147,63.535C77.959,63.213 77.724,63.052 77.443,63.052L77.443,62.611C77.537,62.597 78.267,62.188 79.634,61.384C79.728,61.412 79.841,61.448 79.976,61.495C80.109,61.541 80.287,61.672 80.508,61.887C80.729,62.101 80.84,62.349 80.84,62.63C80.92,62.59 81.148,62.463 81.523,62.248C82.515,61.686 83.104,61.405 83.292,61.405C83.72,61.405 84.123,61.686 84.498,62.248C84.873,62.811 85.061,63.328 85.061,63.796L85.061,69.886C85.061,70.623 85.389,71.059 86.045,71.193L86.045,71.635L83.855,72.861C83.56,72.741 83.285,72.542 83.03,72.268C82.776,71.994 82.648,71.735 82.648,71.494L82.648,65.665C82.648,64.915 82.565,64.342 82.398,63.947C82.23,63.552 81.932,63.354 81.503,63.354L80.84,63.475L80.84,69.886C80.84,70.704 81.114,71.165 81.664,71.273L81.664,71.715L79.634,72.861C79.339,72.741 79.064,72.542 78.81,72.268C78.555,71.994 78.428,71.735 78.428,71.494Z" style="fill:white;fill-rule:nonzero;"/>
        </g>
        <g transform="matrix(4.16667,0,0,4.16667,0,0)">
            <path d="M91.03,63.645C90.856,63.384 90.634,63.253 90.367,63.253C90.099,63.253 89.804,63.354 89.482,63.555L89.482,68.198C90.688,67.863 91.291,67.139 91.291,66.027L91.291,64.6C91.291,64.225 91.204,63.907 91.03,63.645ZM91.995,61.405C92.062,61.405 92.229,61.508 92.497,61.716C92.765,61.924 93.033,62.211 93.301,62.581C93.569,62.949 93.703,63.307 93.703,63.656L93.703,67.032C93.703,67.273 93.348,67.568 92.638,67.916C91.927,68.265 91.241,68.549 90.578,68.771C89.915,68.992 89.556,69.102 89.502,69.102C89.502,70.134 89.951,70.771 90.849,71.012C91.291,71.119 91.82,71.172 92.437,71.172L92.437,71.755C90.239,72.493 89.067,72.861 88.919,72.861C88.518,72.861 88.108,72.577 87.693,72.006C87.278,71.437 87.07,70.771 87.07,70.006L87.07,63.253C87.07,63.16 87.834,62.829 89.362,62.258C90.889,61.689 91.767,61.405 91.995,61.405Z" style="fill:white;fill-rule:nonzero;"/>
        </g>
        <g transform="matrix(4.16667,0,0,4.16667,0,0)">
            <path d="M48.966,76.984L49.583,78.542L51.255,78.647L49.964,79.714L50.381,81.337L48.966,80.439L47.552,81.337L47.969,79.714L46.678,78.647L48.35,78.542L48.966,76.984Z" style="fill:white;fill-rule:nonzero;"/>
        </g>
        <g transform="matrix(4.16667,0,0,4.16667,0,0)">
            <path d="M57.813,76.984L58.43,78.542L60.102,78.647L58.811,79.714L59.228,81.337L57.813,80.439L56.399,81.337L56.816,79.714L55.525,78.647L57.197,78.542L57.813,76.984Z" style="fill:white;fill-rule:nonzero;"/>
        </g>
        <g transform="matrix(4.16667,0,0,4.16667,0,0)">
            <path d="M66.66,76.984L67.277,78.542L68.949,78.647L67.658,79.714L68.075,81.337L66.66,80.439L65.246,81.337L65.663,79.714L64.372,78.647L66.044,78.542L66.66,76.984Z" style="fill:white;fill-rule:nonzero;"/>
        </g>
        <g transform="matrix(4.16667,0,0,4.16667,0,0)">
            <path d="M75.507,76.984L76.124,78.542L77.796,78.647L76.505,79.714L76.922,81.337L75.507,80.439L74.093,81.337L74.51,79.714L73.219,78.647L74.891,78.542L75.507,76.984Z" style="fill:white;fill-rule:nonzero;"/>
        </g>
        <g transform="matrix(4.16667,0,0,4.16667,0,0)">
            <path d="M84.354,76.984L84.971,78.542L86.643,78.647L85.352,79.714L85.769,81.337L84.354,80.439L82.94,81.337L83.357,79.714L82.066,78.647L83.738,78.542L84.354,76.984Z" style="fill:white;fill-rule:nonzero;"/>
        </g>
        <g transform="matrix(4.16667,0,0,4.16667,0,0)">
            <path d="M53.767,86.247C53.859,86.15 53.904,86.022 53.904,85.863C53.904,85.708 53.857,85.581 53.764,85.48C53.67,85.379 53.547,85.33 53.392,85.33L52.746,85.33L52.746,86.391L53.392,86.391C53.551,86.391 53.676,86.342 53.767,86.247ZM52.746,87.207L52.746,88.921L51.704,88.921L51.704,84.513L53.392,84.513C53.726,84.513 54.011,84.576 54.249,84.702C54.486,84.827 54.666,84.993 54.785,85.198C54.905,85.403 54.965,85.624 54.965,85.863C54.965,86.064 54.918,86.266 54.822,86.469C54.726,86.672 54.561,86.846 54.325,86.991C54.089,87.135 53.778,87.207 53.392,87.207L52.746,87.207Z" style="fill:white;fill-rule:nonzero;"/>
        </g>
        <g transform="matrix(4.16667,0,0,4.16667,0,0)">
            <path d="M56.635,86.391L57.281,86.391C57.44,86.391 57.565,86.342 57.656,86.247C57.748,86.15 57.794,86.022 57.794,85.863C57.794,85.708 57.747,85.581 57.653,85.48C57.56,85.379 57.436,85.33 57.281,85.33L56.635,85.33L56.635,86.391ZM57.72,88.921L56.757,87.207L56.635,87.207L56.635,88.921L55.593,88.921L55.593,84.513L57.281,84.513C57.615,84.513 57.9,84.576 58.138,84.702C58.376,84.827 58.555,84.993 58.674,85.198C58.794,85.403 58.854,85.624 58.854,85.863C58.854,86.119 58.779,86.368 58.629,86.611C58.479,86.853 58.232,87.025 57.891,87.125L58.94,88.921L57.72,88.921Z" style="fill:white;fill-rule:nonzero;"/>
        </g>
        <g transform="matrix(4.16667,0,0,4.16667,0,0)">
            <path d="M60.783,85.782C60.578,86.012 60.476,86.32 60.476,86.705C60.476,87.09 60.578,87.398 60.783,87.627C60.988,87.858 61.264,87.973 61.609,87.973C61.951,87.973 62.224,87.858 62.429,87.627C62.634,87.398 62.737,87.09 62.737,86.705C62.737,86.32 62.634,86.012 62.429,85.782C62.224,85.551 61.951,85.436 61.609,85.436C61.264,85.436 60.988,85.551 60.783,85.782ZM62.716,84.739C63.051,84.932 63.315,85.2 63.508,85.543C63.701,85.886 63.798,86.274 63.798,86.705C63.798,87.136 63.7,87.524 63.505,87.87C63.31,88.215 63.046,88.484 62.713,88.676C62.379,88.869 62.012,88.965 61.609,88.965C61.207,88.965 60.838,88.869 60.503,88.676C60.168,88.484 59.902,88.215 59.708,87.87C59.512,87.524 59.415,87.136 59.415,86.705C59.415,86.274 59.512,85.886 59.708,85.543C59.902,85.2 60.168,84.932 60.503,84.739C60.838,84.546 61.207,84.451 61.609,84.451C62.012,84.451 62.38,84.546 62.716,84.739Z" style="fill:white;fill-rule:nonzero;"/>
        </g>
        <g transform="matrix(4.16667,0,0,4.16667,0,0)">
            <path d="M66.913,87.728C67.141,87.477 67.254,87.14 67.254,86.717C67.254,86.294 67.141,85.957 66.913,85.707C66.685,85.455 66.373,85.33 65.974,85.33L65.511,85.33L65.511,88.105L65.974,88.105C66.373,88.105 66.685,87.979 66.913,87.728ZM68.013,87.86C67.812,88.195 67.534,88.456 67.178,88.642C66.822,88.829 66.421,88.921 65.974,88.921L64.468,88.921L64.468,84.513L65.974,84.513C66.425,84.513 66.828,84.605 67.181,84.79C67.535,84.974 67.812,85.233 68.013,85.568C68.214,85.903 68.315,86.286 68.315,86.717C68.315,87.144 68.214,87.525 68.013,87.86Z" style="fill:white;fill-rule:nonzero;"/>
        </g>
        <g transform="matrix(4.16667,0,0,4.16667,0,0)">
            <path d="M69.998,84.513L69.998,87.144C69.998,87.408 70.061,87.611 70.187,87.753C70.313,87.896 70.497,87.967 70.741,87.967C70.985,87.967 71.172,87.896 71.302,87.753C71.432,87.611 71.497,87.408 71.497,87.144L71.497,84.513L72.54,84.513L72.54,87.144C72.54,87.534 72.454,87.866 72.283,88.139C72.113,88.414 71.889,88.62 71.613,88.758C71.336,88.896 71.04,88.965 70.723,88.965C70.406,88.965 70.112,88.896 69.842,88.758C69.572,88.62 69.356,88.414 69.196,88.139C69.035,87.866 68.955,87.534 68.955,87.144L68.955,84.513L69.998,84.513Z" style="fill:white;fill-rule:nonzero;"/>
        </g>
        <g transform="matrix(4.16667,0,0,4.16667,0,0)">
            <path d="M76.642,84.839C77.012,85.099 77.27,85.459 77.416,85.919L76.172,85.919C76.087,85.748 75.98,85.624 75.85,85.549C75.719,85.474 75.561,85.436 75.374,85.436C75.028,85.436 74.753,85.551 74.548,85.782C74.343,86.012 74.24,86.32 74.24,86.705C74.24,87.09 74.343,87.398 74.548,87.627C74.753,87.858 75.028,87.973 75.374,87.973C75.561,87.973 75.719,87.935 75.85,87.86C75.98,87.785 76.087,87.662 76.172,87.49L77.416,87.49C77.27,87.951 77.012,88.31 76.642,88.57C76.272,88.83 75.85,88.959 75.374,88.959C74.972,88.959 74.603,88.863 74.268,88.67C73.932,88.478 73.667,88.209 73.472,87.867C73.277,87.523 73.179,87.136 73.179,86.705C73.179,86.274 73.277,85.886 73.472,85.543C73.667,85.2 73.932,84.932 74.268,84.739C74.603,84.546 74.972,84.451 75.374,84.451C75.85,84.451 76.272,84.581 76.642,84.839Z" style="fill:white;fill-rule:nonzero;"/>
        </g>
        <g transform="matrix(4.16667,0,0,4.16667,0,0)">
            <path d="M81.171,84.513L81.171,85.33L80.001,85.33L80.001,88.921L78.959,88.921L78.959,85.33L77.794,85.33L77.794,84.513L81.171,84.513Z" style="fill:white;fill-rule:nonzero;"/>
        </g>
    </g>
</svg>
