<?xml version="1.0" encoding="UTF-8" standalone="no"?>
<!DOCTYPE svg PUBLIC "-//W3C//DTD SVG 1.1//EN" "http://www.w3.org/Graphics/SVG/1.1/DTD/svg11.dtd">
<svg width="100%" height="100%" viewBox="0 0 252 232" version="1.1" xmlns="http://www.w3.org/2000/svg" xmlns:xlink="http://www.w3.org/1999/xlink" xml:space="preserve" xmlns:serif="http://www.serif.com/" style="fill-rule:evenodd;clip-rule:evenodd;stroke-linejoin:round;stroke-miterlimit:1.41421;">
    <g transform="matrix(1,0,0,1,-556.984,-222.838)">
        <g transform="matrix(4.16667,0,0,4.16667,0,0)">
            <path d="M193.97,96.039L179.92,96.039L179.92,88.388L193.97,88.388L189.422,92.264L193.97,96.039Z" style="fill:rgb(144,97,62);fill-rule:nonzero;"/>
        </g>
        <g transform="matrix(4.16667,0,0,4.16667,0,0)">
            <path d="M133.676,96.039L147.726,96.039L147.726,88.388L133.676,88.388L138.225,92.264L133.676,96.039Z" style="fill:rgb(144,97,62);fill-rule:nonzero;"/>
        </g>
        <g transform="matrix(4.16667,0,0,4.16667,0,0)">
            <path d="M163.778,109.141C162.017,107.362 159.776,106.564 157.599,105.789C155.841,105.163 154.024,104.517 152.301,103.35L152.165,103.257L152.009,103.204C147.324,101.625 146.405,97.557 145.34,92.847C144.504,89.148 143.643,85.339 140.79,82.635C143.831,79.949 144.949,76.306 146.035,72.771C147.384,68.379 148.658,64.23 153.411,61.585C154.781,60.823 156.015,60.272 157.321,59.688L159.4,58.76L157.89,57.655L162.3,57.67L163.677,53.481L165.025,57.68L169.435,57.696L168.082,58.671L169.929,59.553L170.33,59.744C171.42,60.262 173.245,61.129 174.573,61.848C179.935,64.75 181.014,68.944 182.157,73.384C183.02,76.737 183.909,80.191 186.786,82.781C183.906,85.499 183.007,89.337 182.135,93.063C181.008,97.878 180.034,102.035 175.12,103.496L174.943,103.549L174.791,103.65C173.107,104.777 171.354,105.392 169.66,105.984C167.491,106.744 165.421,107.469 163.778,109.141Z" style="fill:rgb(144,97,62);fill-rule:nonzero;"/>
        </g>
        <g transform="matrix(4.16667,0,0,4.16667,0,0)">
            <path d="M160.778,75.876L159.535,78.966L158.244,75.876L158.244,78.879L157.534,78.879L157.534,74.394L158.652,74.394L159.688,76.743L160.684,74.394L161.784,74.394L161.784,78.879L160.778,78.879L160.778,75.876Z" style="fill:rgb(254,198,123);fill-rule:nonzero;"/>
        </g>
        <g transform="matrix(4.16667,0,0,4.16667,0,0)">
            <path d="M163.056,77.272C163.066,77.549 163.082,77.76 163.103,77.903C163.124,78.046 163.18,78.176 163.271,78.292C163.362,78.408 163.503,78.466 163.692,78.466C163.958,78.466 164.126,78.364 164.195,78.159C164.265,77.955 164.299,77.665 164.299,77.291C164.299,76.923 164.265,76.632 164.194,76.418C164.124,76.204 163.957,76.097 163.692,76.097C163.421,76.105 163.246,76.212 163.17,76.418C163.094,76.624 163.056,76.909 163.056,77.272ZM163.684,75.655C164.051,75.655 164.345,75.715 164.564,75.836C164.784,75.957 164.942,76.136 165.038,76.372C165.134,76.609 165.182,76.909 165.182,77.272C165.182,77.841 165.063,78.257 164.825,78.521C164.588,78.785 164.2,78.917 163.662,78.917C163.152,78.912 162.777,78.78 162.535,78.519C162.294,78.26 162.173,77.847 162.173,77.281C162.183,76.197 162.686,75.655 163.684,75.655Z" style="fill:rgb(254,198,123);fill-rule:nonzero;"/>
        </g>
        <g transform="matrix(4.16667,0,0,4.16667,0,0)">
            <path d="M166.264,76.454C166.264,76.578 166.372,76.671 166.589,76.733C166.806,76.794 167.028,76.853 167.257,76.906C167.485,76.96 167.684,77.052 167.852,77.179C168.019,77.307 168.106,77.504 168.114,77.772C168.114,78.164 168.01,78.445 167.803,78.616C167.595,78.787 167.294,78.887 166.898,78.917C166.849,78.923 166.773,78.926 166.671,78.926C166.402,78.926 166.171,78.905 165.977,78.862C165.781,78.819 165.646,78.783 165.571,78.755L165.448,78.195C165.518,78.244 165.646,78.305 165.83,78.379C166.016,78.452 166.239,78.491 166.5,78.494C166.777,78.494 166.967,78.451 167.066,78.366C167.166,78.28 167.218,78.147 167.223,77.965C167.223,77.755 167.152,77.617 167.013,77.549C166.873,77.482 166.646,77.417 166.334,77.354C166.021,77.291 165.786,77.202 165.628,77.084C165.47,76.966 165.391,76.76 165.391,76.463C165.414,75.948 165.814,75.673 166.595,75.637C166.621,75.637 166.657,75.635 166.704,75.632C166.75,75.629 166.783,75.627 166.803,75.627C167.086,75.627 167.313,75.647 167.486,75.688C167.659,75.729 167.777,75.763 167.839,75.789L167.989,76.309C167.929,76.269 167.811,76.221 167.635,76.164C167.459,76.107 167.22,76.078 166.919,76.078C166.716,76.078 166.556,76.102 166.441,76.15C166.328,76.198 166.269,76.299 166.264,76.454Z" style="fill:rgb(254,198,123);fill-rule:nonzero;"/>
        </g>
        <g transform="matrix(4.16667,0,0,4.16667,0,0)">
            <path d="M169.754,76.078L169.754,77.937C169.754,78.122 169.808,78.254 169.917,78.332C169.994,78.394 170.14,78.426 170.354,78.426L170.354,78.879C170.336,78.881 170.303,78.882 170.255,78.884C170.205,78.887 170.149,78.889 170.088,78.889C169.682,78.889 169.385,78.818 169.195,78.677C168.974,78.524 168.862,78.264 168.862,77.897L168.862,76.078L168.265,76.078L168.265,75.674L168.862,75.674L168.862,74.394L169.754,74.394L169.754,75.674L170.354,75.674L170.354,76.078L169.754,76.078Z" style="fill:rgb(254,198,123);fill-rule:nonzero;"/>
        </g>
        <g transform="matrix(4.16667,0,0,4.16667,0,0)">
            <path d="M148.388,82.578C148.381,82.256 148.293,82.007 148.123,81.832C147.953,81.656 147.731,81.568 147.458,81.568L146.168,81.568L146.168,83.737L147.419,83.737C147.738,83.737 147.979,83.654 148.144,83.487C148.307,83.321 148.388,83.018 148.388,82.578ZM149.734,82.618C149.734,83.14 149.631,83.541 149.424,83.822C149.217,84.103 148.95,84.289 148.622,84.38C148.295,84.471 147.907,84.517 147.458,84.517L146.168,84.517L146.168,87.135L144.742,87.135L144.742,80.775L147.622,80.775C148.281,80.775 148.795,80.91 149.163,81.178C149.53,81.447 149.721,81.927 149.734,82.618Z" style="fill:rgb(254,198,123);fill-rule:nonzero;"/>
        </g>
        <g transform="matrix(4.16667,0,0,4.16667,0,0)">
            <path d="M151.547,83.944C151.571,84.688 151.648,85.265 151.78,85.676C151.912,86.087 152.22,86.296 152.706,86.303C153.065,86.303 153.333,86.192 153.509,85.971C153.686,85.75 153.797,85.477 153.845,85.151C153.892,84.826 153.915,84.432 153.915,83.97C153.915,83.498 153.895,83.105 153.854,82.794C153.813,82.483 153.707,82.213 153.534,81.983C153.361,81.753 153.099,81.637 152.746,81.635C152.244,81.635 151.919,81.842 151.771,82.258C151.621,82.673 151.547,83.235 151.547,83.944ZM152.72,80.748C153.374,80.748 153.901,80.868 154.302,81.106C154.703,81.346 154.989,81.699 155.163,82.168C155.336,82.637 155.422,83.228 155.422,83.944C155.422,84.679 155.327,85.287 155.137,85.768C154.946,86.249 154.65,86.606 154.251,86.839C153.852,87.072 153.337,87.189 152.706,87.189C152.1,87.189 151.602,87.075 151.212,86.846C150.822,86.617 150.534,86.263 150.349,85.783C150.162,85.303 150.069,84.69 150.069,83.944C150.076,82.877 150.296,82.08 150.731,81.551C151.165,81.023 151.828,80.755 152.72,80.748Z" style="fill:rgb(254,198,123);fill-rule:nonzero;"/>
        </g>
        <g transform="matrix(4.16667,0,0,4.16667,0,0)">
            <path d="M159.701,82.578C159.694,82.256 159.606,82.007 159.437,81.832C159.268,81.656 159.045,81.568 158.771,81.568L157.481,81.568L157.481,83.737L158.732,83.737C159.052,83.737 159.293,83.654 159.457,83.487C159.619,83.321 159.701,83.018 159.701,82.578ZM161.048,82.618C161.048,83.14 160.944,83.541 160.737,83.822C160.53,84.103 160.264,84.289 159.937,84.38C159.608,84.471 159.221,84.517 158.771,84.517L157.481,84.517L157.481,87.135L156.056,87.135L156.056,80.775L158.936,80.775C159.595,80.775 160.108,80.91 160.477,81.178C160.844,81.447 161.034,81.927 161.048,82.618Z" style="fill:rgb(254,198,123);fill-rule:nonzero;"/>
        </g>
        <g transform="matrix(4.16667,0,0,4.16667,0,0)">
            <path d="M163.993,87.232C163.269,87.232 162.723,87.119 162.354,86.894C161.987,86.668 161.751,86.397 161.647,86.081C161.543,85.765 161.491,85.406 161.491,85.006L161.491,80.775L162.942,80.775L162.942,84.993C162.942,85.004 162.94,85.041 162.936,85.103C162.932,85.165 162.93,85.22 162.93,85.266C162.93,86.013 163.338,86.386 164.154,86.386C164.907,86.386 165.284,86.021 165.284,85.293C165.284,85.235 165.282,85.167 165.277,85.09C165.273,85.012 165.271,84.966 165.271,84.953L165.271,80.775L166.466,80.775L166.466,85.253C166.466,86.573 165.642,87.232 163.993,87.232Z" style="fill:rgb(254,198,123);fill-rule:nonzero;"/>
        </g>
        <g transform="matrix(4.16667,0,0,4.16667,0,0)">
            <path d="M168.765,86.343L171.807,86.343L171.807,87.135L167.34,87.135L167.34,80.775L168.765,80.775L168.765,86.343Z" style="fill:rgb(254,198,123);fill-rule:nonzero;"/>
        </g>
        <g transform="matrix(4.16667,0,0,4.16667,0,0)">
            <path d="M175.533,84.693L174.578,81.978L173.661,84.693L175.533,84.693ZM173.326,85.62L172.814,87.135L171.832,87.135L174,80.775L175.599,80.775L177.806,87.135L176.381,87.135L175.829,85.62L173.326,85.62Z" style="fill:rgb(254,198,123);fill-rule:nonzero;"/>
        </g>
        <g transform="matrix(4.16667,0,0,4.16667,0,0)">
            <path d="M181.382,84.31L183.172,87.135L181.517,87.135L179.593,83.697L180.361,83.697C180.381,83.697 180.43,83.699 180.509,83.704C180.588,83.708 180.654,83.71 180.709,83.71C181.46,83.71 181.846,83.378 181.865,82.714C181.865,82.363 181.776,82.084 181.599,81.878C181.422,81.671 181.188,81.568 180.896,81.568L179.619,81.568L179.619,87.135L178.193,87.135L178.193,80.775L181.074,80.775C182.473,80.775 183.172,81.389 183.172,82.618C183.152,83.12 183.01,83.495 182.745,83.744C182.48,83.993 182.188,84.155 181.865,84.23C181.62,84.29 181.468,84.32 181.408,84.32C181.391,84.32 181.382,84.317 181.382,84.31Z" style="fill:rgb(254,198,123);fill-rule:nonzero;"/>
        </g>
        <g transform="matrix(4.16667,0,0,4.16667,0,0)">
            <path d="M163.808,99.263L164.374,101.002L166.203,101.002L164.724,102.078L165.288,103.817L163.808,102.742L162.328,103.817L162.894,102.078L161.413,101.002L163.242,101.002L163.808,99.263Z" style="fill:rgb(254,198,123);fill-rule:nonzero;"/>
        </g>
        <g transform="matrix(4.16667,0,0,4.16667,0,0)">
            <path d="M171.788,99.714L172.241,101.108L173.708,101.108L172.521,101.971L172.975,103.365L171.788,102.504L170.602,103.365L171.055,101.971L169.867,101.108L171.335,101.108L171.788,99.714Z" style="fill:rgb(254,198,123);fill-rule:nonzero;"/>
        </g>
        <g transform="matrix(4.16667,0,0,4.16667,0,0)">
            <path d="M155.979,99.714L155.525,101.108L154.059,101.108L155.246,101.971L154.793,103.365L155.979,102.504L157.166,103.365L156.712,101.971L157.899,101.108L156.433,101.108L155.979,99.714Z" style="fill:rgb(254,198,123);fill-rule:nonzero;"/>
        </g>
        <g transform="matrix(4.16667,0,0,4.16667,0,0)">
            <rect x="140.691" y="89.904" width="46.194" height="7.651" style="fill:rgb(112,72,51);"/>
        </g>
        <g transform="matrix(4.16667,0,0,4.16667,0,0)">
            <path d="M152.364,92.62C152.359,92.349 152.285,92.139 152.143,91.992C151.999,91.844 151.813,91.77 151.582,91.77L150.496,91.77L150.496,93.595L151.55,93.595C151.818,93.595 152.021,93.525 152.158,93.385C152.296,93.245 152.364,92.99 152.364,92.62ZM153.497,92.653C153.497,93.092 153.41,93.43 153.236,93.666C153.063,93.903 152.838,94.06 152.563,94.136C152.286,94.213 151.96,94.251 151.582,94.251L150.496,94.251L150.496,96.455L149.297,96.455L149.297,91.103L151.721,91.103C152.275,91.103 152.707,91.216 153.017,91.442C153.326,91.668 153.486,92.072 153.497,92.653Z" style="fill:rgb(254,198,123);fill-rule:nonzero;"/>
        </g>
        <g transform="matrix(4.16667,0,0,4.16667,0,0)">
            <path d="M153.79,96.455L153.79,92.631L154.854,92.631L154.854,93.102C154.858,93.098 154.88,93.071 154.919,93.022C154.959,92.972 155.019,92.92 155.098,92.866C155.177,92.812 155.284,92.761 155.421,92.712C155.566,92.65 155.751,92.62 155.977,92.62C156.149,92.62 156.258,92.627 156.303,92.642L156.394,93.194C156.265,93.163 156.144,93.146 156.031,93.146C155.786,93.146 155.583,93.193 155.421,93.287C155.238,93.378 155.099,93.503 155.001,93.663C154.903,93.821 154.854,93.967 154.854,94.1L154.854,96.455L153.79,96.455Z" style="fill:rgb(254,198,123);fill-rule:nonzero;"/>
        </g>
        <g transform="matrix(4.16667,0,0,4.16667,0,0)">
            <path d="M157.637,94.537C157.649,94.868 157.669,95.119 157.693,95.29C157.719,95.461 157.785,95.616 157.894,95.754C158.003,95.892 158.17,95.961 158.397,95.961C158.714,95.961 158.914,95.839 158.996,95.595C159.079,95.352 159.121,95.006 159.121,94.56C159.121,94.121 159.079,93.773 158.995,93.518C158.911,93.263 158.712,93.135 158.397,93.135C158.072,93.144 157.865,93.272 157.773,93.518C157.683,93.764 157.637,94.103 157.637,94.537ZM158.386,92.608C158.824,92.608 159.175,92.68 159.438,92.824C159.7,92.968 159.889,93.181 160.002,93.463C160.116,93.746 160.174,94.103 160.174,94.537C160.174,95.215 160.032,95.712 159.748,96.027C159.464,96.342 159.002,96.499 158.361,96.499C157.753,96.494 157.305,96.336 157.017,96.026C156.729,95.716 156.584,95.223 156.584,94.548C156.595,93.255 157.195,92.608 158.386,92.608Z" style="fill:rgb(254,198,123);fill-rule:nonzero;"/>
        </g>
        <g transform="matrix(4.16667,0,0,4.16667,0,0)">
            <path d="M162.846,95.639L162.846,93.32C162.846,93.298 162.789,93.26 162.675,93.206C162.561,93.151 162.401,93.117 162.199,93.102C161.827,93.102 161.577,93.216 161.45,93.445C161.323,93.674 161.26,94.003 161.26,94.434C161.26,94.775 161.29,95.057 161.35,95.279C161.409,95.5 161.511,95.667 161.652,95.781C161.794,95.894 161.983,95.95 162.222,95.95C162.395,95.933 162.542,95.884 162.663,95.803C162.785,95.722 162.846,95.667 162.846,95.639ZM163.898,91.103L163.898,96.455L162.846,96.455L162.846,96.225C162.808,96.266 162.719,96.318 162.581,96.382C162.442,96.445 162.247,96.477 161.994,96.477C161.706,96.474 161.445,96.422 161.214,96.324C160.982,96.226 160.791,96.028 160.64,95.731C160.487,95.435 160.411,95.005 160.411,94.445C160.421,93.699 160.562,93.207 160.833,92.967C161.104,92.728 161.45,92.608 161.87,92.608C162.267,92.608 162.592,92.673 162.846,92.802L162.846,91.103L163.898,91.103Z" style="fill:rgb(254,198,123);fill-rule:nonzero;"/>
        </g>
        <g transform="matrix(4.16667,0,0,4.16667,0,0)">
            <path d="M165.493,95.375C165.493,95.534 165.551,95.666 165.666,95.771C165.781,95.875 165.923,95.928 166.093,95.928C166.373,95.92 166.572,95.853 166.692,95.726C166.813,95.599 166.884,95.493 166.908,95.409L166.908,92.631L167.701,92.631L167.701,96.455L166.908,96.455L166.908,96.099C166.836,96.16 166.681,96.237 166.44,96.329C166.201,96.42 165.871,96.466 165.449,96.466C165.136,96.455 164.888,96.358 164.704,96.177C164.521,95.996 164.43,95.74 164.43,95.409L164.43,92.631L165.493,92.631L165.493,95.375Z" style="fill:rgb(254,198,123);fill-rule:nonzero;"/>
        </g>
        <g transform="matrix(4.16667,0,0,4.16667,0,0)">
            <path d="M171.131,96.295C171.131,96.31 171.024,96.34 170.812,96.385C170.599,96.429 170.327,96.457 169.997,96.466C169.537,96.466 169.172,96.4 168.903,96.269C168.635,96.139 168.44,95.925 168.321,95.629C168.203,95.333 168.144,94.927 168.144,94.411C168.158,94 168.223,93.663 168.338,93.402C168.453,93.14 168.637,92.944 168.888,92.814C169.14,92.685 169.476,92.62 169.896,92.62C170.162,92.625 170.402,92.648 170.615,92.689C170.828,92.73 170.98,92.765 171.072,92.79L171.186,93.343C171.117,93.308 170.992,93.263 170.81,93.211C170.627,93.159 170.398,93.13 170.122,93.124C169.759,93.124 169.518,93.246 169.397,93.488C169.278,93.731 169.218,94.039 169.218,94.411C169.218,94.859 169.268,95.225 169.366,95.506C169.465,95.787 169.668,95.939 169.976,95.961C170.221,95.961 170.432,95.94 170.608,95.897C170.785,95.854 170.928,95.807 171.035,95.755C171.143,95.704 171.197,95.673 171.197,95.662L171.131,96.295Z" style="fill:rgb(254,198,123);fill-rule:nonzero;"/>
        </g>
        <g transform="matrix(4.16667,0,0,4.16667,0,0)">
            <path d="M173.109,93.113L173.109,95.331C173.109,95.551 173.174,95.708 173.303,95.801C173.395,95.876 173.568,95.914 173.824,95.914L173.824,96.455C173.803,96.457 173.763,96.458 173.706,96.46C173.646,96.464 173.58,96.466 173.507,96.466C173.022,96.466 172.668,96.382 172.443,96.213C172.178,96.03 172.045,95.72 172.045,95.283L172.045,93.113L171.332,93.113L171.332,92.631L172.045,92.631L172.045,91.103L173.109,91.103L173.109,92.631L173.824,92.631L173.824,93.113L173.109,93.113Z" style="fill:rgb(254,198,123);fill-rule:nonzero;"/>
        </g>
        <g transform="matrix(4.16667,0,0,4.16667,0,0)">
            <path d="M175.002,93.561C175.002,93.709 175.131,93.82 175.39,93.894C175.649,93.967 175.915,94.037 176.188,94.101C176.46,94.165 176.696,94.274 176.896,94.426C177.096,94.579 177.2,94.814 177.21,95.134C177.21,95.602 177.086,95.937 176.838,96.141C176.59,96.344 176.23,96.464 175.759,96.499C175.7,96.507 175.609,96.511 175.488,96.511C175.168,96.511 174.892,96.485 174.659,96.434C174.427,96.382 174.266,96.34 174.176,96.306L174.029,95.639C174.112,95.697 174.265,95.769 174.485,95.857C174.706,95.945 174.973,95.991 175.283,95.995C175.615,95.995 175.841,95.944 175.959,95.842C176.078,95.74 176.141,95.581 176.146,95.364C176.146,95.114 176.063,94.948 175.896,94.868C175.729,94.788 175.459,94.71 175.086,94.635C174.713,94.561 174.432,94.453 174.243,94.313C174.055,94.173 173.96,93.926 173.96,93.573C173.987,92.958 174.467,92.629 175.397,92.586C175.429,92.586 175.472,92.584 175.527,92.58C175.582,92.577 175.622,92.575 175.646,92.575C175.982,92.575 176.255,92.599 176.461,92.647C176.667,92.696 176.808,92.736 176.881,92.768L177.061,93.388C176.988,93.341 176.848,93.284 176.638,93.215C176.428,93.147 176.144,93.113 175.784,93.113C175.541,93.113 175.351,93.142 175.215,93.199C175.078,93.255 175.007,93.376 175.002,93.561Z" style="fill:rgb(254,198,123);fill-rule:nonzero;"/>
        </g>
        <g transform="matrix(4.16667,0,0,4.16667,0,0)">
            <path d="M182.624,92.076L183.09,93.51L184.598,93.51L183.378,94.396L183.844,95.831L182.624,94.944L181.404,95.831L181.87,94.396L180.649,93.51L182.158,93.51L182.624,92.076Z" style="fill:rgb(254,198,123);fill-rule:nonzero;"/>
        </g>
        <g transform="matrix(4.16667,0,0,4.16667,0,0)">
            <path d="M144.636,92.076L145.102,93.51L146.609,93.51L145.39,94.396L145.855,95.831L144.636,94.944L143.415,95.831L143.882,94.396L142.661,93.51L144.17,93.51L144.636,92.076Z" style="fill:rgb(254,198,123);fill-rule:nonzero;"/>
        </g>
        <g transform="matrix(4.16667,0,0,4.16667,0,0)">
            <path d="M174.088,77.797C174.088,78.235 173.732,78.59 173.294,78.59C172.856,78.59 172.502,78.235 172.502,77.797C172.502,77.359 172.856,77.004 173.294,77.004C173.732,77.004 174.088,77.359 174.088,77.797Z" style="fill:rgb(254,198,123);fill-rule:nonzero;"/>
        </g>
        <g transform="matrix(4.16667,0,0,4.16667,0,0)">
            <path d="M176.704,77.797C176.704,78.103 176.456,78.352 176.149,78.352C175.843,78.352 175.594,78.103 175.594,77.797C175.594,77.49 175.843,77.242 176.149,77.242C176.456,77.242 176.704,77.49 176.704,77.797Z" style="fill:rgb(254,198,123);fill-rule:nonzero;"/>
        </g>
        <g transform="matrix(4.16667,0,0,4.16667,0,0)">
            <path d="M179.202,77.797C179.202,77.989 179.047,78.144 178.855,78.144C178.664,78.144 178.509,77.989 178.509,77.797C178.509,77.605 178.664,77.45 178.855,77.45C179.047,77.45 179.202,77.605 179.202,77.797Z" style="fill:rgb(254,198,123);fill-rule:nonzero;"/>
        </g>
        <g transform="matrix(4.16667,0,0,4.16667,0,0)">
            <path d="M181.244,77.797C181.244,77.89 181.169,77.965 181.076,77.965C180.983,77.965 180.907,77.89 180.907,77.797C180.907,77.704 180.983,77.628 181.076,77.628C181.169,77.628 181.244,77.704 181.244,77.797Z" style="fill:rgb(254,198,123);fill-rule:nonzero;"/>
        </g>
        <g transform="matrix(4.16667,0,0,4.16667,0,0)">
            <path d="M153.488,77.797C153.488,78.235 153.844,78.59 154.282,78.59C154.72,78.59 155.074,78.235 155.074,77.797C155.074,77.359 154.72,77.004 154.282,77.004C153.844,77.004 153.488,77.359 153.488,77.797Z" style="fill:rgb(254,198,123);fill-rule:nonzero;"/>
        </g>
        <g transform="matrix(4.16667,0,0,4.16667,0,0)">
            <path d="M150.871,77.797C150.871,78.103 151.12,78.352 151.427,78.352C151.733,78.352 151.981,78.103 151.981,77.797C151.981,77.49 151.733,77.242 151.427,77.242C151.12,77.242 150.871,77.49 150.871,77.797Z" style="fill:rgb(254,198,123);fill-rule:nonzero;"/>
        </g>
        <g transform="matrix(4.16667,0,0,4.16667,0,0)">
            <path d="M148.374,77.797C148.374,77.989 148.529,78.144 148.721,78.144C148.912,78.144 149.067,77.989 149.067,77.797C149.067,77.605 148.912,77.45 148.721,77.45C148.529,77.45 148.374,77.605 148.374,77.797Z" style="fill:rgb(254,198,123);fill-rule:nonzero;"/>
        </g>
        <g transform="matrix(4.16667,0,0,4.16667,0,0)">
            <path d="M146.332,77.797C146.332,77.89 146.407,77.965 146.5,77.965C146.593,77.965 146.669,77.89 146.669,77.797C146.669,77.704 146.593,77.628 146.5,77.628C146.407,77.628 146.332,77.704 146.332,77.797Z" style="fill:rgb(254,198,123);fill-rule:nonzero;"/>
        </g>
        <g transform="matrix(4.16667,0,0,4.16667,0,0)">
            <path d="M153.972,72.243C155.462,71.53 157.064,71.073 158.684,70.748C160.306,70.429 161.961,70.282 163.615,70.284C165.27,70.298 166.923,70.464 168.543,70.795C169.353,70.961 170.154,71.165 170.944,71.405C171.733,71.649 172.512,71.926 173.273,72.243C171.728,71.667 170.139,71.212 168.521,70.907C166.903,70.601 165.26,70.434 163.614,70.431C161.97,70.417 160.324,70.565 158.704,70.859C157.895,71.005 157.092,71.191 156.3,71.419C155.509,71.645 154.726,71.909 153.972,72.243Z" style="fill:rgb(254,198,123);fill-rule:nonzero;"/>
        </g>
        <g transform="matrix(4.16667,0,0,4.16667,0,0)">
            <path d="M153.972,73.176C155.462,72.463 157.064,72.006 158.684,71.681C160.306,71.362 161.961,71.215 163.615,71.217C165.27,71.231 166.923,71.398 168.543,71.728C169.353,71.894 170.154,72.098 170.944,72.338C171.733,72.582 172.512,72.859 173.273,73.176C171.728,72.601 170.139,72.145 168.521,71.84C166.903,71.534 165.26,71.368 163.614,71.365C161.97,71.351 160.324,71.498 158.704,71.792C157.895,71.938 157.092,72.124 156.3,72.353C155.509,72.579 154.726,72.842 153.972,73.176Z" style="fill:rgb(254,198,123);fill-rule:nonzero;"/>
        </g>
        <g transform="matrix(4.16667,0,0,4.16667,0,0)">
            <path d="M155.371,73.558C155.371,73.699 155.257,73.812 155.116,73.812C154.977,73.812 154.862,73.699 154.862,73.558C154.862,73.417 154.977,73.303 155.116,73.303C155.257,73.303 155.371,73.417 155.371,73.558Z" style="fill:rgb(254,198,123);fill-rule:nonzero;"/>
        </g>
        <g transform="matrix(4.16667,0,0,4.16667,0,0)">
            <path d="M156.898,73.134C156.898,73.274 156.784,73.388 156.644,73.388C156.503,73.388 156.39,73.274 156.39,73.134C156.39,72.993 156.503,72.879 156.644,72.879C156.784,72.879 156.898,72.993 156.898,73.134Z" style="fill:rgb(254,198,123);fill-rule:nonzero;"/>
        </g>
        <g transform="matrix(4.16667,0,0,4.16667,0,0)">
            <path d="M158.596,72.624C158.596,72.765 158.481,72.879 158.341,72.879C158.2,72.879 158.086,72.765 158.086,72.624C158.086,72.484 158.2,72.37 158.341,72.37C158.481,72.37 158.596,72.484 158.596,72.624Z" style="fill:rgb(254,198,123);fill-rule:nonzero;"/>
        </g>
        <g transform="matrix(4.16667,0,0,4.16667,0,0)">
            <path d="M160.208,72.285C160.208,72.426 160.094,72.54 159.953,72.54C159.813,72.54 159.698,72.426 159.698,72.285C159.698,72.144 159.813,72.031 159.953,72.031C160.094,72.031 160.208,72.144 160.208,72.285Z" style="fill:rgb(254,198,123);fill-rule:nonzero;"/>
        </g>
        <g transform="matrix(4.16667,0,0,4.16667,0,0)">
            <path d="M161.735,72.158C161.735,72.298 161.621,72.413 161.48,72.413C161.34,72.413 161.226,72.298 161.226,72.158C161.226,72.018 161.34,71.903 161.48,71.903C161.621,71.903 161.735,72.018 161.735,72.158Z" style="fill:rgb(254,198,123);fill-rule:nonzero;"/>
        </g>
        <g transform="matrix(4.16667,0,0,4.16667,0,0)">
            <path d="M163.39,72.116C163.39,72.256 163.275,72.37 163.135,72.37C162.994,72.37 162.88,72.256 162.88,72.116C162.88,71.975 162.994,71.861 163.135,71.861C163.275,71.861 163.39,71.975 163.39,72.116Z" style="fill:rgb(254,198,123);fill-rule:nonzero;"/>
        </g>
        <g transform="matrix(4.16667,0,0,4.16667,0,0)">
            <path d="M164.789,72.158C164.789,72.298 164.675,72.413 164.535,72.413C164.395,72.413 164.28,72.298 164.28,72.158C164.28,72.018 164.395,71.903 164.535,71.903C164.675,71.903 164.789,72.018 164.789,72.158Z" style="fill:rgb(254,198,123);fill-rule:nonzero;"/>
        </g>
        <g transform="matrix(4.16667,0,0,4.16667,0,0)">
            <path d="M166.062,72.243C166.062,72.383 165.948,72.497 165.808,72.497C165.667,72.497 165.553,72.383 165.553,72.243C165.553,72.103 165.667,71.988 165.808,71.988C165.948,71.988 166.062,72.103 166.062,72.243Z" style="fill:rgb(254,198,123);fill-rule:nonzero;"/>
        </g>
        <g transform="matrix(4.16667,0,0,4.16667,0,0)">
            <path d="M167.377,72.37C167.377,72.511 167.263,72.624 167.123,72.624C166.981,72.624 166.868,72.511 166.868,72.37C166.868,72.229 166.981,72.116 167.123,72.116C167.263,72.116 167.377,72.229 167.377,72.37Z" style="fill:rgb(254,198,123);fill-rule:nonzero;"/>
        </g>
        <g transform="matrix(4.16667,0,0,4.16667,0,0)">
            <path d="M168.649,72.497C168.649,72.638 168.535,72.752 168.396,72.752C168.255,72.752 168.141,72.638 168.141,72.497C168.141,72.357 168.255,72.243 168.396,72.243C168.535,72.243 168.649,72.357 168.649,72.497Z" style="fill:rgb(254,198,123);fill-rule:nonzero;"/>
        </g>
        <g transform="matrix(4.16667,0,0,4.16667,0,0)">
            <path d="M170.007,72.837C170.007,72.978 169.894,73.091 169.753,73.091C169.612,73.091 169.498,72.978 169.498,72.837C169.498,72.696 169.612,72.582 169.753,72.582C169.894,72.582 170.007,72.696 170.007,72.837Z" style="fill:rgb(254,198,123);fill-rule:nonzero;"/>
        </g>
        <g transform="matrix(4.16667,0,0,4.16667,0,0)">
            <path d="M171.365,73.176C171.365,73.317 171.251,73.431 171.11,73.431C170.97,73.431 170.855,73.317 170.855,73.176C170.855,73.036 170.97,72.922 171.11,72.922C171.251,72.922 171.365,73.036 171.365,73.176Z" style="fill:rgb(254,198,123);fill-rule:nonzero;"/>
        </g>
        <g transform="matrix(4.16667,0,0,4.16667,0,0)">
            <path d="M172.553,73.601C172.553,73.741 172.438,73.855 172.298,73.855C172.157,73.855 172.044,73.741 172.044,73.601C172.044,73.46 172.157,73.346 172.298,73.346C172.438,73.346 172.553,73.46 172.553,73.601Z" style="fill:rgb(254,198,123);fill-rule:nonzero;"/>
        </g>
        <g transform="matrix(4.16667,0,0,4.16667,0,0)">
            <path d="M163.135,69.867C162.836,69.845 162.546,69.757 162.268,69.65C161.988,69.54 161.72,69.404 161.467,69.242C160.964,68.915 160.52,68.475 160.244,67.93C159.962,67.387 159.892,66.748 159.987,66.15C160.077,65.547 160.328,64.982 160.605,64.457C161.152,63.394 161.756,62.361 162.37,61.339C162.675,60.827 162.979,60.314 163.229,59.776C163.485,59.241 163.674,58.669 163.729,58.074C163.707,58.672 163.531,59.257 163.296,59.806C163.056,60.355 162.761,60.877 162.468,61.396C161.874,62.432 161.271,63.459 160.736,64.523C160.6,64.789 160.462,65.05 160.356,65.325C160.249,65.599 160.167,65.882 160.12,66.171C160.021,66.748 160.092,67.352 160.346,67.879C160.598,68.409 161.021,68.848 161.507,69.182C161.749,69.351 162.01,69.496 162.282,69.614C162.555,69.729 162.839,69.83 163.135,69.867Z" style="fill:rgb(254,198,123);fill-rule:nonzero;"/>
        </g>
        <g transform="matrix(4.16667,0,0,4.16667,0,0)">
            <path d="M164.509,69.867C164.805,69.83 165.089,69.729 165.361,69.614C165.634,69.496 165.895,69.351 166.138,69.182C166.623,68.848 167.046,68.409 167.298,67.879C167.552,67.352 167.622,66.748 167.524,66.171C167.478,65.882 167.395,65.599 167.287,65.325C167.182,65.05 167.044,64.789 166.907,64.523C166.372,63.459 165.771,62.432 165.176,61.396C164.883,60.877 164.589,60.355 164.348,59.806C164.112,59.257 163.937,58.672 163.915,58.074C163.97,58.669 164.158,59.241 164.414,59.776C164.666,60.314 164.97,60.827 165.274,61.339C165.888,62.361 166.491,63.394 167.039,64.457C167.315,64.982 167.566,65.547 167.656,66.15C167.752,66.748 167.682,67.387 167.399,67.93C167.124,68.475 166.68,68.915 166.178,69.242C165.924,69.404 165.655,69.54 165.376,69.65C165.098,69.757 164.808,69.845 164.509,69.867Z" style="fill:rgb(254,198,123);fill-rule:nonzero;"/>
        </g>
        <g transform="matrix(4.16667,0,0,4.16667,0,0)">
            <path d="M163.602,66.601C163.76,66.618 163.91,66.702 164.006,66.831C164.104,66.959 164.148,67.122 164.144,67.283C164.142,67.443 164.067,67.608 163.932,67.702C163.798,67.798 163.63,67.831 163.47,67.83C163.308,67.826 163.146,67.793 163,67.72C162.854,67.647 162.729,67.532 162.646,67.391C162.477,67.105 162.467,66.753 162.549,66.441C162.633,66.128 162.814,65.834 163.083,65.642C163.217,65.543 163.373,65.481 163.533,65.445C163.692,65.408 163.859,65.4 164.022,65.422C164.351,65.466 164.654,65.641 164.872,65.886C165.092,66.131 165.232,66.445 165.27,66.773C165.313,67.101 165.231,67.441 165.082,67.728C164.938,68.019 164.74,68.285 164.499,68.506C164.26,68.726 163.97,68.901 163.647,68.981C163.326,69.061 162.983,69.047 162.67,68.947C162.355,68.848 162.066,68.665 161.846,68.418C161.625,68.172 161.476,67.858 161.439,67.525C161.421,67.359 161.43,67.191 161.464,67.028C161.499,66.865 161.559,66.712 161.623,66.564C161.756,66.269 161.912,65.98 162.15,65.741L162.146,65.747C162.349,65.508 162.541,65.258 162.688,64.986C162.833,64.718 162.945,64.411 162.88,64.126C162.816,63.838 162.553,63.642 162.272,63.53C162.147,63.472 162.01,63.511 161.903,63.607C161.797,63.702 161.721,63.836 161.675,63.977C161.582,64.256 161.622,64.595 161.846,64.785C161.954,64.88 162.096,64.936 162.243,64.965C162.389,64.993 162.539,64.98 162.685,64.939C162.976,64.854 163.237,64.673 163.467,64.465C163.697,64.256 163.898,64.013 164.071,63.753C164.413,63.232 164.668,62.632 164.702,62.009C164.721,61.698 164.647,61.389 164.53,61.1C164.47,60.957 164.394,60.82 164.29,60.708C164.188,60.597 164.051,60.515 163.902,60.511C163.755,60.505 163.611,60.582 163.509,60.692C163.404,60.804 163.335,60.947 163.297,61.097C163.221,61.397 163.271,61.728 163.428,61.999C163.58,62.271 163.859,62.475 164.174,62.514C164.488,62.558 164.807,62.461 165.086,62.316C164.81,62.466 164.492,62.57 164.171,62.532C163.851,62.498 163.559,62.295 163.396,62.018C163.23,61.742 163.171,61.401 163.244,61.084C163.281,60.926 163.352,60.773 163.463,60.65C163.571,60.527 163.731,60.436 163.904,60.439C164.078,60.44 164.235,60.536 164.347,60.655C164.461,60.775 164.542,60.919 164.606,61.067C164.73,61.364 164.811,61.686 164.795,62.012C164.767,62.662 164.512,63.276 164.166,63.815C163.991,64.084 163.787,64.336 163.551,64.557C163.313,64.774 163.04,64.967 162.719,65.061C162.561,65.108 162.386,65.124 162.219,65.092C162.056,65.061 161.892,64.998 161.76,64.883C161.627,64.77 161.54,64.606 161.511,64.438C161.479,64.269 161.496,64.096 161.547,63.936C161.599,63.776 161.683,63.623 161.813,63.505C161.879,63.447 161.958,63.399 162.05,63.377C162.139,63.354 162.246,63.368 162.324,63.402C162.476,63.464 162.624,63.544 162.751,63.658C162.878,63.77 162.978,63.923 163.017,64.093C163.058,64.263 163.042,64.438 163.001,64.599C162.959,64.76 162.893,64.911 162.815,65.055C162.661,65.341 162.465,65.598 162.258,65.842L162.256,65.845L162.252,65.848C162.039,66.06 161.883,66.34 161.755,66.622C161.692,66.765 161.635,66.91 161.604,67.058C161.572,67.207 161.563,67.359 161.579,67.51C161.61,67.811 161.745,68.099 161.948,68.327C162.151,68.555 162.418,68.727 162.71,68.819C163.002,68.913 163.318,68.927 163.615,68.854C163.913,68.782 164.186,68.619 164.413,68.412C164.643,68.203 164.832,67.95 164.972,67.673C165.118,67.397 165.192,67.093 165.157,66.786C165.126,66.481 164.998,66.186 164.795,65.955C164.594,65.723 164.313,65.558 164.01,65.514C163.708,65.472 163.382,65.535 163.131,65.709C162.879,65.886 162.702,66.163 162.618,66.46C162.535,66.757 162.538,67.092 162.691,67.363C162.768,67.498 162.883,67.608 163.021,67.68C163.157,67.752 163.315,67.788 163.471,67.793C163.626,67.798 163.787,67.769 163.916,67.68C164.047,67.594 164.12,67.439 164.125,67.282C164.134,67.126 164.093,66.964 163.999,66.836C163.906,66.707 163.76,66.621 163.602,66.601Z" style="fill:rgb(254,198,123);fill-rule:nonzero;"/>
        </g>
        <g transform="matrix(4.16667,0,0,4.16667,0,0)">
            <path d="M157.879,70.737C157.68,70.783 157.474,70.786 157.271,70.774C157.067,70.761 156.864,70.728 156.666,70.675C156.272,70.566 155.893,70.373 155.602,70.075C155.307,69.78 155.13,69.379 155.068,68.97C155.003,68.56 155.051,68.141 155.122,67.743C155.26,66.94 155.44,66.146 155.63,65.357C155.723,64.963 155.815,64.568 155.869,64.167C155.926,63.768 155.935,63.357 155.847,62.959C155.953,63.353 155.963,63.768 155.923,64.173C155.88,64.579 155.796,64.978 155.713,65.376C155.54,66.17 155.359,66.96 155.231,67.761C155.156,68.159 155.108,68.559 155.168,68.955C155.223,69.349 155.392,69.726 155.663,70.016C155.935,70.308 156.298,70.506 156.682,70.624C156.873,70.684 157.072,70.726 157.272,70.748C157.474,70.768 157.678,70.774 157.879,70.737Z" style="fill:rgb(254,198,123);fill-rule:nonzero;"/>
        </g>
        <g transform="matrix(4.16667,0,0,4.16667,0,0)">
            <path d="M158.771,70.456C158.955,70.371 159.119,70.248 159.271,70.116C159.424,69.983 159.563,69.835 159.685,69.675C159.932,69.359 160.115,68.988 160.17,68.593C160.226,68.199 160.147,67.794 159.966,67.44C159.787,67.082 159.519,66.782 159.229,66.498C158.663,65.917 158.062,65.374 157.464,64.823C157.168,64.545 156.87,64.267 156.602,63.959C156.336,63.65 156.105,63.305 155.967,62.921C156.123,63.298 156.365,63.629 156.643,63.923C156.916,64.22 157.218,64.491 157.521,64.76C158.13,65.297 158.733,65.843 159.307,66.421C159.594,66.706 159.874,67.021 160.056,67.395C160.24,67.765 160.326,68.195 160.253,68.605C160.187,69.017 159.986,69.394 159.727,69.709C159.595,69.866 159.448,70.009 159.289,70.137C159.13,70.263 158.959,70.379 158.771,70.456Z" style="fill:rgb(254,198,123);fill-rule:nonzero;"/>
        </g>
        <g transform="matrix(4.16667,0,0,4.16667,0,0)">
            <path d="M157.512,68.521C157.618,68.5 157.733,68.523 157.822,68.588C157.911,68.651 157.975,68.748 158.004,68.853C158.035,68.957 158.021,69.08 157.952,69.169C157.885,69.259 157.783,69.315 157.679,69.347C157.572,69.378 157.461,69.39 157.351,69.373C157.24,69.355 157.135,69.306 157.052,69.231C156.883,69.08 156.805,68.853 156.793,68.634C156.783,68.413 156.841,68.184 156.977,68.003C157.113,67.822 157.322,67.707 157.543,67.666C157.766,67.627 158,67.679 158.192,67.794C158.386,67.908 158.541,68.084 158.634,68.29C158.729,68.494 158.746,68.733 158.708,68.95C158.674,69.169 158.601,69.383 158.489,69.576C158.378,69.769 158.226,69.943 158.032,70.061C157.842,70.178 157.611,70.24 157.388,70.24C156.939,70.245 156.479,69.992 156.293,69.567C156.198,69.358 156.188,69.12 156.215,68.902C156.241,68.683 156.283,68.464 156.389,68.258L156.387,68.263C156.47,68.067 156.542,67.865 156.583,67.659C156.622,67.456 156.631,67.235 156.531,67.065C156.433,66.894 156.224,66.82 156.019,66.805C155.928,66.793 155.849,66.846 155.8,66.929C155.75,67.011 155.729,67.113 155.728,67.213C155.725,67.413 155.819,67.622 156.001,67.698C156.091,67.737 156.192,67.746 156.294,67.733C156.394,67.722 156.487,67.684 156.573,67.627C156.744,67.513 156.876,67.342 156.982,67.161C157.089,66.978 157.17,66.779 157.229,66.575C157.345,66.167 157.387,65.727 157.281,65.315C157.23,65.111 157.12,64.925 156.984,64.762C156.916,64.682 156.839,64.608 156.749,64.558C156.661,64.506 156.556,64.481 156.46,64.509C156.363,64.535 156.286,64.613 156.242,64.706C156.197,64.799 156.182,64.906 156.188,65.011C156.199,65.221 156.3,65.425 156.456,65.569C156.611,65.714 156.833,65.789 157.045,65.75C157.259,65.715 157.445,65.587 157.597,65.436C157.448,65.59 157.264,65.723 157.048,65.764C156.832,65.808 156.601,65.736 156.438,65.589C156.273,65.444 156.164,65.235 156.146,65.013C156.139,64.903 156.152,64.789 156.199,64.686C156.245,64.583 156.33,64.491 156.444,64.457C156.558,64.422 156.681,64.452 156.778,64.506C156.877,64.561 156.96,64.638 157.032,64.721C157.174,64.888 157.292,65.082 157.35,65.297C157.464,65.726 157.425,66.177 157.312,66.598C157.253,66.809 157.172,67.015 157.063,67.207C156.953,67.397 156.815,67.579 156.626,67.707C156.437,67.835 156.183,67.879 155.962,67.788C155.852,67.742 155.761,67.652 155.707,67.548C155.651,67.444 155.627,67.328 155.627,67.212C155.628,67.098 155.651,66.98 155.712,66.876C155.743,66.825 155.785,66.776 155.841,66.743C155.895,66.709 155.969,66.695 156.027,66.702C156.139,66.711 156.252,66.733 156.358,66.781C156.465,66.828 156.562,66.908 156.622,67.011C156.744,67.222 156.729,67.465 156.689,67.68C156.647,67.898 156.572,68.105 156.488,68.307L156.487,68.309L156.486,68.311C156.392,68.492 156.347,68.705 156.322,68.915C156.296,69.125 156.306,69.335 156.39,69.524C156.554,69.906 156.974,70.142 157.388,70.14C157.597,70.139 157.801,70.086 157.98,69.978C158.158,69.87 158.301,69.709 158.406,69.528C158.512,69.346 158.582,69.144 158.617,68.936C158.655,68.727 158.642,68.516 158.556,68.324C158.396,67.942 157.972,67.665 157.555,67.735C157.351,67.769 157.152,67.877 157.025,68.04C156.898,68.206 156.841,68.421 156.847,68.632C156.854,68.841 156.924,69.057 157.079,69.201C157.231,69.35 157.468,69.38 157.671,69.321C157.772,69.292 157.871,69.241 157.937,69.157C158.003,69.075 158.02,68.959 157.991,68.856C157.964,68.753 157.905,68.657 157.818,68.593C157.732,68.528 157.618,68.502 157.512,68.521Z" style="fill:rgb(254,198,123);fill-rule:nonzero;"/>
        </g>
        <g transform="matrix(4.16667,0,0,4.16667,0,0)">
            <path d="M154.466,71.783C154.074,71.853 153.634,71.752 153.337,71.461C153.189,71.315 153.101,71.115 153.07,70.912C153.037,70.708 153.061,70.499 153.096,70.303C153.165,69.906 153.254,69.514 153.349,69.124C153.396,68.93 153.441,68.735 153.469,68.538C153.499,68.341 153.505,68.139 153.463,67.942C153.517,68.136 153.523,68.341 153.505,68.542C153.485,68.743 153.444,68.941 153.404,69.137C153.32,69.529 153.231,69.92 153.169,70.314C153.131,70.512 153.107,70.707 153.137,70.902C153.163,71.095 153.245,71.278 153.378,71.422C153.51,71.565 153.688,71.663 153.877,71.722C154.064,71.781 154.268,71.813 154.466,71.783Z" style="fill:rgb(254,198,123);fill-rule:nonzero;"/>
        </g>
        <g transform="matrix(4.16667,0,0,4.16667,0,0)">
            <path d="M154.906,71.644C155.087,71.554 155.234,71.412 155.354,71.255C155.476,71.099 155.564,70.916 155.59,70.723C155.616,70.53 155.578,70.332 155.489,70.159C155.401,69.983 155.27,69.836 155.126,69.696C154.848,69.409 154.551,69.141 154.257,68.868C154.111,68.73 153.965,68.591 153.832,68.439C153.702,68.285 153.59,68.113 153.522,67.923C153.602,68.108 153.722,68.271 153.859,68.415C153.995,68.561 154.145,68.693 154.295,68.826C154.597,69.09 154.895,69.36 155.179,69.644C155.32,69.786 155.459,69.943 155.549,70.128C155.641,70.312 155.684,70.527 155.646,70.731C155.57,71.141 155.268,71.476 154.906,71.644Z" style="fill:rgb(254,198,123);fill-rule:nonzero;"/>
        </g>
        <g transform="matrix(4.16667,0,0,4.16667,0,0)">
            <path d="M154.285,70.688C154.394,70.664 154.503,70.746 154.529,70.852C154.544,70.903 154.538,70.965 154.504,71.009C154.471,71.055 154.42,71.082 154.368,71.098C154.266,71.131 154.14,71.119 154.056,71.041C153.972,70.966 153.932,70.853 153.926,70.744C153.921,70.634 153.949,70.52 154.017,70.429C154.085,70.339 154.189,70.282 154.3,70.261C154.527,70.221 154.756,70.366 154.846,70.571C154.894,70.673 154.903,70.794 154.884,70.901C154.867,71.011 154.83,71.117 154.774,71.213C154.72,71.31 154.643,71.396 154.547,71.456C154.451,71.515 154.336,71.546 154.224,71.546C154,71.548 153.769,71.422 153.675,71.208C153.627,71.103 153.622,70.983 153.636,70.876C153.648,70.767 153.669,70.658 153.723,70.554L153.721,70.558C153.762,70.461 153.798,70.362 153.817,70.261C153.836,70.162 153.84,70.055 153.793,69.975C153.747,69.894 153.647,69.857 153.548,69.85C153.463,69.838 153.411,69.949 153.413,70.042C153.412,70.139 153.457,70.238 153.543,70.274C153.629,70.31 153.737,70.295 153.817,70.24C153.981,70.124 154.079,69.923 154.139,69.726C154.195,69.525 154.217,69.309 154.165,69.107C154.141,69.007 154.086,68.916 154.021,68.836C153.957,68.759 153.862,68.686 153.767,68.712C153.672,68.739 153.628,68.855 153.635,68.955C153.64,69.058 153.689,69.158 153.766,69.229C153.841,69.3 153.95,69.337 154.055,69.319C154.159,69.302 154.252,69.239 154.327,69.165C154.254,69.241 154.163,69.307 154.057,69.328C153.95,69.35 153.835,69.315 153.754,69.242C153.672,69.17 153.617,69.067 153.607,68.957C153.598,68.851 153.638,68.717 153.757,68.677C153.814,68.659 153.876,68.675 153.926,68.702C153.975,68.729 154.017,68.768 154.052,68.809C154.123,68.892 154.182,68.987 154.21,69.095C154.268,69.308 154.249,69.532 154.193,69.741C154.134,69.947 154.04,70.159 153.853,70.293C153.757,70.359 153.629,70.38 153.517,70.334C153.399,70.285 153.345,70.156 153.346,70.042C153.346,69.984 153.358,69.925 153.39,69.872C153.405,69.845 153.427,69.82 153.456,69.803C153.483,69.785 153.525,69.778 153.553,69.781C153.661,69.789 153.789,69.829 153.854,69.938C153.916,70.046 153.907,70.168 153.889,70.274C153.867,70.383 153.83,70.486 153.789,70.586L153.788,70.587L153.787,70.59C153.741,70.676 153.72,70.781 153.707,70.884C153.694,70.987 153.699,71.088 153.739,71.18C153.819,71.365 154.022,71.48 154.224,71.479C154.65,71.495 154.931,70.967 154.794,70.594C154.716,70.408 154.511,70.273 154.308,70.307C154.209,70.323 154.111,70.375 154.05,70.455C153.987,70.535 153.959,70.64 153.962,70.743C153.965,70.845 153.999,70.951 154.074,71.021C154.148,71.094 154.263,71.109 154.363,71.081C154.413,71.067 154.462,71.042 154.493,71.001C154.526,70.961 154.534,70.905 154.521,70.854C154.498,70.752 154.395,70.666 154.285,70.688Z" style="fill:rgb(254,198,123);fill-rule:nonzero;"/>
        </g>
        <g transform="matrix(4.16667,0,0,4.16667,0,0)">
            <path d="M169.698,70.907C169.897,70.944 170.103,70.937 170.303,70.917C170.504,70.895 170.703,70.854 170.895,70.793C171.278,70.676 171.643,70.478 171.913,70.186C172.186,69.895 172.354,69.519 172.408,69.125C172.468,68.729 172.42,68.329 172.346,67.931C172.217,67.13 172.036,66.34 171.863,65.546C171.78,65.148 171.696,64.749 171.653,64.343C171.613,63.937 171.624,63.522 171.73,63.129C171.642,63.527 171.65,63.937 171.707,64.337C171.761,64.737 171.854,65.132 171.946,65.527C172.137,66.316 172.316,67.11 172.454,67.913C172.525,68.311 172.573,68.729 172.508,69.14C172.446,69.548 172.27,69.949 171.975,70.244C171.683,70.542 171.304,70.736 170.91,70.845C170.712,70.898 170.509,70.931 170.306,70.944C170.103,70.956 169.896,70.953 169.698,70.907Z" style="fill:rgb(254,198,123);fill-rule:nonzero;"/>
        </g>
        <g transform="matrix(4.16667,0,0,4.16667,0,0)">
            <path d="M168.806,70.625C168.617,70.549 168.447,70.433 168.287,70.307C168.128,70.179 167.981,70.036 167.85,69.879C167.59,69.563 167.39,69.186 167.323,68.775C167.25,68.364 167.336,67.935 167.521,67.565C167.702,67.191 167.982,66.875 168.269,66.591C168.843,66.013 169.446,65.467 170.055,64.93C170.358,64.66 170.66,64.39 170.935,64.092C171.211,63.798 171.453,63.468 171.609,63.091C171.471,63.474 171.24,63.82 170.975,64.128C170.706,64.436 170.409,64.715 170.112,64.993C169.515,65.543 168.913,66.087 168.348,66.668C168.059,66.952 167.789,67.251 167.61,67.61C167.429,67.963 167.351,68.369 167.406,68.763C167.46,69.158 167.646,69.528 167.891,69.845C168.014,70.005 168.152,70.153 168.305,70.286C168.457,70.417 168.62,70.541 168.806,70.625Z" style="fill:rgb(254,198,123);fill-rule:nonzero;"/>
        </g>
        <g transform="matrix(4.16667,0,0,4.16667,0,0)">
            <path d="M170.064,68.691C169.958,68.672 169.845,68.698 169.759,68.763C169.672,68.827 169.611,68.923 169.585,69.026C169.557,69.129 169.573,69.244 169.64,69.327C169.705,69.41 169.804,69.462 169.905,69.491C170.108,69.55 170.344,69.52 170.497,69.371C170.652,69.227 170.723,69.01 170.729,68.802C170.735,68.591 170.678,68.376 170.551,68.21C170.424,68.046 170.225,67.939 170.022,67.905C169.604,67.835 169.181,68.111 169.021,68.494C168.935,68.686 168.921,68.897 168.959,69.105C168.994,69.313 169.064,69.516 169.17,69.698C169.275,69.879 169.418,70.04 169.596,70.147C169.775,70.255 169.979,70.309 170.188,70.309C170.603,70.311 171.022,70.076 171.187,69.694C171.271,69.505 171.28,69.294 171.254,69.084C171.229,68.875 171.185,68.661 171.09,68.481L171.089,68.478L171.088,68.477C171.003,68.275 170.929,68.067 170.887,67.849C170.848,67.635 170.832,67.392 170.954,67.181C171.016,67.078 171.112,66.998 171.218,66.951C171.324,66.903 171.438,66.88 171.549,66.872C171.607,66.865 171.682,66.879 171.735,66.913C171.791,66.946 171.833,66.994 171.864,67.046C171.926,67.15 171.948,67.268 171.949,67.382C171.949,67.498 171.925,67.614 171.869,67.718C171.814,67.822 171.725,67.911 171.614,67.958C171.394,68.049 171.14,68.005 170.95,67.876C170.761,67.748 170.623,67.567 170.513,67.377C170.404,67.185 170.323,66.979 170.266,66.768C170.152,66.347 170.112,65.895 170.228,65.467C170.285,65.251 170.402,65.058 170.544,64.891C170.616,64.808 170.699,64.731 170.798,64.676C170.896,64.622 171.018,64.591 171.132,64.627C171.245,64.661 171.331,64.753 171.377,64.855C171.424,64.958 171.438,65.073 171.43,65.183C171.412,65.405 171.303,65.614 171.139,65.759C170.976,65.906 170.744,65.978 170.529,65.934C170.313,65.893 170.128,65.76 169.979,65.605C170.131,65.756 170.318,65.884 170.531,65.92C170.743,65.959 170.966,65.884 171.12,65.739C171.276,65.595 171.377,65.391 171.389,65.18C171.395,65.076 171.379,64.969 171.334,64.875C171.29,64.783 171.213,64.705 171.116,64.679C171.021,64.651 170.915,64.676 170.827,64.728C170.737,64.778 170.659,64.852 170.592,64.932C170.457,65.095 170.346,65.281 170.295,65.485C170.188,65.896 170.231,66.337 170.347,66.745C170.406,66.949 170.487,67.148 170.594,67.331C170.7,67.512 170.832,67.683 171.003,67.796C171.089,67.853 171.183,67.892 171.282,67.903C171.384,67.915 171.486,67.907 171.575,67.868C171.757,67.791 171.852,67.582 171.849,67.383C171.848,67.283 171.826,67.181 171.776,67.098C171.728,67.016 171.648,66.963 171.558,66.975C171.353,66.99 171.144,67.064 171.045,67.235C170.945,67.405 170.954,67.626 170.993,67.829C171.033,68.035 171.106,68.236 171.189,68.433L171.188,68.428C171.294,68.633 171.335,68.853 171.361,69.072C171.389,69.289 171.378,69.527 171.283,69.736C171.097,70.162 170.637,70.414 170.188,70.41C169.965,70.41 169.735,70.348 169.544,70.231C169.351,70.112 169.198,69.938 169.087,69.746C168.977,69.552 168.902,69.339 168.868,69.12C168.83,68.903 168.848,68.664 168.942,68.459C169.035,68.253 169.19,68.078 169.384,67.963C169.577,67.848 169.811,67.797 170.033,67.836C170.254,67.877 170.463,67.992 170.601,68.173C170.735,68.354 170.793,68.582 170.783,68.804C170.771,69.023 170.693,69.25 170.524,69.401C170.441,69.476 170.336,69.525 170.226,69.543C170.115,69.56 170.003,69.548 169.897,69.517C169.793,69.484 169.691,69.429 169.624,69.339C169.555,69.25 169.54,69.127 169.572,69.023C169.602,68.917 169.665,68.82 169.755,68.757C169.843,68.693 169.958,68.67 170.064,68.691Z" style="fill:rgb(254,198,123);fill-rule:nonzero;"/>
        </g>
        <g transform="matrix(4.16667,0,0,4.16667,0,0)">
            <path d="M173.11,71.953C173.309,71.983 173.512,71.951 173.699,71.892C173.888,71.833 174.066,71.735 174.198,71.591C174.331,71.448 174.413,71.265 174.439,71.071C174.469,70.876 174.445,70.681 174.408,70.484C174.345,70.089 174.256,69.699 174.172,69.307C174.132,69.11 174.092,68.913 174.071,68.712C174.053,68.511 174.06,68.306 174.113,68.112C174.072,68.309 174.077,68.511 174.106,68.707C174.135,68.905 174.181,69.1 174.228,69.294C174.322,69.684 174.411,70.076 174.48,70.472C174.516,70.668 174.539,70.877 174.506,71.081C174.476,71.284 174.388,71.484 174.239,71.63C173.942,71.922 173.502,72.022 173.11,71.953Z" style="fill:rgb(254,198,123);fill-rule:nonzero;"/>
        </g>
        <g transform="matrix(4.16667,0,0,4.16667,0,0)">
            <path d="M172.669,71.813C172.309,71.645 172.006,71.311 171.93,70.901C171.893,70.696 171.936,70.482 172.027,70.298C172.117,70.113 172.257,69.955 172.397,69.814C172.682,69.529 172.979,69.259 173.281,68.996C173.432,68.863 173.581,68.73 173.717,68.584C173.854,68.44 173.975,68.278 174.054,68.093C173.986,68.282 173.874,68.455 173.744,68.608C173.612,68.761 173.466,68.9 173.319,69.038C173.025,69.311 172.729,69.579 172.45,69.866C172.307,70.006 172.175,70.152 172.087,70.328C171.998,70.501 171.96,70.699 171.986,70.893C172.011,71.086 172.101,71.269 172.222,71.425C172.342,71.581 172.489,71.724 172.669,71.813Z" style="fill:rgb(254,198,123);fill-rule:nonzero;"/>
        </g>
        <g transform="matrix(4.16667,0,0,4.16667,0,0)">
            <path d="M173.291,70.858C173.182,70.836 173.077,70.921 173.056,71.024C173.042,71.075 173.05,71.13 173.083,71.171C173.114,71.212 173.164,71.237 173.213,71.251C173.313,71.279 173.428,71.264 173.503,71.191C173.577,71.121 173.612,71.015 173.614,70.913C173.617,70.81 173.589,70.705 173.526,70.624C173.465,70.544 173.367,70.493 173.27,70.476C173.065,70.443 172.86,70.578 172.782,70.764C172.646,71.136 172.927,71.665 173.353,71.648C173.554,71.65 173.758,71.535 173.837,71.35C173.877,71.258 173.882,71.157 173.869,71.053C173.856,70.951 173.835,70.846 173.789,70.759L173.788,70.757L173.788,70.756C173.745,70.656 173.709,70.553 173.688,70.444C173.669,70.337 173.66,70.215 173.723,70.108C173.787,69.998 173.915,69.958 174.023,69.951C174.052,69.948 174.093,69.955 174.12,69.973C174.149,69.99 174.171,70.015 174.188,70.041C174.218,70.095 174.23,70.154 174.23,70.212C174.232,70.326 174.177,70.455 174.06,70.504C173.947,70.549 173.819,70.528 173.724,70.463C173.536,70.328 173.442,70.117 173.383,69.911C173.327,69.702 173.308,69.478 173.366,69.265C173.395,69.157 173.453,69.061 173.523,68.978C173.56,68.937 173.602,68.899 173.651,68.872C173.7,68.845 173.762,68.829 173.819,68.847C173.938,68.887 173.979,69.021 173.969,69.126C173.959,69.237 173.904,69.34 173.822,69.412C173.741,69.485 173.627,69.519 173.521,69.498C173.413,69.477 173.322,69.411 173.249,69.334C173.324,69.409 173.417,69.472 173.521,69.489C173.626,69.507 173.734,69.47 173.811,69.398C173.887,69.328 173.936,69.227 173.941,69.124C173.948,69.025 173.904,68.909 173.81,68.882C173.714,68.856 173.619,68.928 173.556,69.006C173.49,69.085 173.435,69.177 173.411,69.277C173.359,69.478 173.381,69.695 173.438,69.895C173.497,70.092 173.595,70.293 173.759,70.41C173.839,70.465 173.947,70.479 174.033,70.444C174.119,70.408 174.164,70.308 174.163,70.212C174.165,70.119 174.113,70.008 174.029,70.02C173.929,70.027 173.829,70.063 173.783,70.144C173.735,70.225 173.739,70.332 173.759,70.431C173.778,70.532 173.814,70.63 173.855,70.727L173.854,70.724C173.907,70.827 173.928,70.936 173.94,71.045C173.954,71.153 173.948,71.273 173.901,71.378C173.808,71.592 173.577,71.718 173.353,71.715C173.24,71.716 173.125,71.684 173.03,71.625C172.934,71.566 172.856,71.479 172.802,71.383C172.746,71.287 172.709,71.181 172.692,71.071C172.674,70.964 172.683,70.843 172.73,70.741C172.82,70.536 173.05,70.39 173.276,70.43C173.388,70.451 173.491,70.508 173.56,70.599C173.627,70.69 173.655,70.804 173.65,70.914C173.645,71.023 173.604,71.136 173.521,71.211C173.437,71.289 173.311,71.301 173.208,71.268C173.156,71.252 173.105,71.224 173.072,71.179C173.038,71.135 173.031,71.073 173.047,71.022C173.073,70.915 173.183,70.833 173.291,70.858Z" style="fill:rgb(254,198,123);fill-rule:nonzero;"/>
        </g>
    </g>
</svg>
