<?xml version="1.0" encoding="UTF-8" standalone="no"?>
<!DOCTYPE svg PUBLIC "-//W3C//DTD SVG 1.1//EN" "http://www.w3.org/Graphics/SVG/1.1/DTD/svg11.dtd">
<svg width="100%" height="100%" viewBox="0 0 285 161" version="1.1" xmlns="http://www.w3.org/2000/svg" xmlns:xlink="http://www.w3.org/1999/xlink" xml:space="preserve" xmlns:serif="http://www.serif.com/" style="fill-rule:evenodd;clip-rule:evenodd;stroke-linejoin:round;stroke-miterlimit:1.41421;">
    <g transform="matrix(1,0,0,1,-2.6375,-654.951)">
        <g transform="matrix(4.16667,0,0,4.16667,0,0)">
            <path d="M9.729,157.318C9.192,157.318 8.687,157.527 8.307,157.907L1.352,164.862C0.972,165.242 0.763,165.748 0.763,166.285L0.763,186.502C0.763,187.039 0.972,187.545 1.352,187.924L8.307,194.88C8.687,195.26 9.192,195.469 9.729,195.469L59.792,195.469C60.329,195.469 60.834,195.26 61.213,194.88L68.169,187.924C68.549,187.545 68.758,187.039 68.758,186.502L68.758,166.285C68.758,165.748 68.549,165.242 68.169,164.862L61.213,157.907C60.834,157.527 60.329,157.318 59.792,157.318L9.729,157.318ZM59.792,195.599L9.729,195.599C9.158,195.599 8.62,195.376 8.215,194.972L1.26,188.017C0.855,187.611 0.633,187.074 0.633,186.502L0.633,166.285C0.633,165.713 0.855,165.176 1.26,164.771L8.215,157.815C8.62,157.411 9.158,157.188 9.729,157.188L59.792,157.188C60.363,157.188 60.901,157.411 61.305,157.815L68.261,164.771C68.666,165.176 68.888,165.713 68.888,166.285L68.888,186.502C68.888,187.074 68.666,187.611 68.261,188.017L61.305,194.972C60.901,195.376 60.363,195.599 59.792,195.599Z" style="fill:rgb(167,164,147);fill-rule:nonzero;"/>
        </g>
        <g transform="matrix(4.16667,0,0,4.16667,0,0)">
            <path d="M9.729,158.227C9.435,158.227 9.158,158.342 8.949,158.549L1.994,165.505C1.786,165.713 1.671,165.99 1.671,166.285L1.671,186.502C1.671,186.797 1.786,187.074 1.994,187.282L8.949,194.238C9.158,194.446 9.435,194.561 9.729,194.561L59.792,194.561C60.086,194.561 60.363,194.446 60.572,194.237L67.527,187.282C67.735,187.074 67.85,186.797 67.85,186.502L67.85,166.285C67.85,165.99 67.735,165.713 67.527,165.505L60.572,158.549C60.363,158.342 60.086,158.227 59.792,158.227L9.729,158.227ZM59.792,194.95L9.729,194.95C9.331,194.95 8.956,194.795 8.674,194.513L1.718,187.558C1.437,187.275 1.282,186.9 1.282,186.502L1.282,166.285C1.282,165.887 1.437,165.512 1.718,165.23L8.674,158.274C8.956,157.992 9.331,157.838 9.729,157.838L59.792,157.838C60.19,157.838 60.565,157.992 60.847,158.273L67.802,165.23C68.084,165.512 68.239,165.887 68.239,166.285L68.239,186.502C68.239,186.9 68.084,187.275 67.802,187.558L60.847,194.513C60.565,194.795 60.19,194.95 59.792,194.95Z" style="fill:rgb(167,164,147);fill-rule:nonzero;"/>
        </g>
        <g transform="matrix(4.16667,0,0,4.16667,0,0)">
            <path d="M9.729,193.458L2.774,186.502L2.774,166.285L9.729,159.33L59.792,159.33L66.747,166.285L66.747,186.502L59.792,193.458L9.729,193.458Z" style="fill:rgb(147,145,126);fill-rule:nonzero;"/>
        </g>
        <g transform="matrix(4.16667,0,0,4.16667,0,0)">
            <path d="M66.68,176.37C66.68,185.774 52.389,193.397 34.76,193.397C17.132,193.397 2.841,185.774 2.841,176.37C2.841,166.967 17.132,159.344 34.76,159.344C52.389,159.344 66.68,166.967 66.68,176.37Z" style="fill:rgb(118,113,88);fill-rule:nonzero;"/>
        </g>
        <g transform="matrix(4.16667,0,0,4.16667,0,0)">
            <path d="M16.585,180.642C16.496,180.039 16.303,179.738 16.006,179.738C15.777,179.738 15.572,179.885 15.392,180.178C15.556,180.571 15.821,180.768 16.187,180.768C16.312,180.768 16.444,180.726 16.585,180.642ZM15.235,179.455C15.516,179.053 15.828,178.852 16.169,178.852C16.534,178.852 16.846,179.095 17.103,179.581C17.272,178.898 17.356,178.055 17.356,177.051C17.356,175.713 17.276,174.801 17.118,174.313C16.959,173.824 16.661,173.58 16.223,173.58C15.789,173.58 15.49,173.829 15.326,174.327C15.161,174.825 15.079,175.733 15.079,177.051C15.079,178.127 15.13,178.929 15.235,179.455ZM19.158,181.003L19.796,181.238C19.808,181.387 19.814,181.495 19.814,181.563C19.814,182.563 19.342,183.063 18.398,183.063C17.47,183.063 16.902,182.512 16.693,181.406C16.541,181.419 16.394,181.425 16.253,181.425C13.799,181.425 12.572,180.003 12.572,177.159C12.572,174.335 13.795,172.924 16.241,172.924C18.655,172.924 19.862,174.367 19.862,177.256C19.862,179.155 19.24,180.421 17.995,181.051C18.187,181.557 18.422,181.811 18.7,181.811C19.041,181.811 19.2,181.594 19.175,181.16C19.175,181.123 19.169,181.071 19.158,181.003Z" style="fill:rgb(254,198,113);fill-rule:nonzero;"/>
        </g>
        <g transform="matrix(4.16667,0,0,4.16667,0,0)">
            <path d="M27.105,173.044L27.105,178.563C27.105,180.455 26.058,181.4 23.965,181.4C21.881,181.4 20.838,180.455 20.838,178.563L20.838,173.044L23.225,173.044L23.225,178.635C23.225,179.357 23.328,179.853 23.535,180.117C23.742,180.383 24.125,180.515 24.682,180.515C25.763,180.515 26.303,179.864 26.303,178.563L26.303,173.044L27.105,173.044Z" style="fill:rgb(254,198,113);fill-rule:nonzero;"/>
        </g>
        <g transform="matrix(4.16667,0,0,4.16667,0,0)">
            <path d="M29.297,178.659L31.316,178.659L30.346,175.014L29.297,178.659ZM32.135,173.044L34.425,181.268L32.027,181.268L31.539,179.484L29.063,179.484L28.539,181.268L27.605,181.268L30.039,173.044L32.135,173.044Z" style="fill:rgb(254,198,113);fill-rule:nonzero;"/>
        </g>
        <g transform="matrix(4.16667,0,0,4.16667,0,0)">
            <path d="M37.456,173.044L37.456,180.442L40.836,180.442L40.836,181.268L35.07,181.268L35.07,173.044L37.456,173.044Z" style="fill:rgb(254,198,113);fill-rule:nonzero;"/>
        </g>
        <g transform="matrix(4.16667,0,0,4.16667,0,0)">
            <rect x="41.348" y="173.044" width="2.386" height="8.224" style="fill:rgb(254,198,113);"/>
        </g>
        <g transform="matrix(4.16667,0,0,4.16667,0,0)">
            <path d="M50.934,173.044L50.934,173.869L48.916,173.869L48.916,181.268L46.385,181.268L46.385,173.869L44.355,173.869L44.355,173.044L50.934,173.044Z" style="fill:rgb(254,198,113);fill-rule:nonzero;"/>
        </g>
        <g transform="matrix(4.16667,0,0,4.16667,0,0)">
            <path d="M57.303,173.044L55.296,178.231L55.296,181.268L52.911,181.268L52.911,178.231L50.693,173.044L53.169,173.044L54.844,177.009L56.351,173.044L57.303,173.044Z" style="fill:rgb(254,198,113);fill-rule:nonzero;"/>
        </g>
        <g transform="matrix(4.16667,0,0,4.16667,0,0)">
            <path d="M33.616,182.79L33.613,182.66C33.135,182.672 32.652,182.689 32.178,182.712L32.184,182.842C32.658,182.818 33.139,182.801 33.616,182.79Z" style="fill:rgb(212,210,202);fill-rule:nonzero;"/>
        </g>
        <g transform="matrix(4.16667,0,0,4.16667,0,0)">
            <path d="M45.048,183.492C44.584,183.409 44.106,183.332 43.631,183.261L43.612,183.389C44.086,183.46 44.562,183.537 45.025,183.62L45.048,183.492Z" style="fill:rgb(212,210,202);fill-rule:nonzero;"/>
        </g>
        <g transform="matrix(4.16667,0,0,4.16667,0,0)">
            <path d="M42.209,183.068C41.738,183.011 41.258,182.959 40.781,182.913L40.769,183.042C41.244,183.088 41.723,183.14 42.193,183.197L42.209,183.068Z" style="fill:rgb(212,210,202);fill-rule:nonzero;"/>
        </g>
        <g transform="matrix(4.16667,0,0,4.16667,0,0)">
            <path d="M36.481,182.789L36.484,182.659C36.016,182.648 35.54,182.643 35.069,182.643L35.047,182.643L35.047,182.772L35.069,182.772C35.539,182.772 36.013,182.778 36.481,182.789Z" style="fill:rgb(212,210,202);fill-rule:nonzero;"/>
        </g>
        <g transform="matrix(4.16667,0,0,4.16667,0,0)">
            <path d="M39.351,182.793C38.877,182.76 38.395,182.732 37.918,182.709L37.912,182.84C38.388,182.861 38.869,182.89 39.341,182.924L39.351,182.793Z" style="fill:rgb(212,210,202);fill-rule:nonzero;"/>
        </g>
        <g transform="matrix(4.16667,0,0,4.16667,0,0)">
            <path d="M47.858,184.08C47.401,183.969 46.93,183.863 46.458,183.765L46.431,183.891C46.902,183.99 47.372,184.096 47.828,184.206L47.858,184.08Z" style="fill:rgb(212,210,202);fill-rule:nonzero;"/>
        </g>
        <g transform="matrix(4.16667,0,0,4.16667,0,0)">
            <path d="M53.314,185.859C52.888,185.676 52.439,185.497 51.98,185.326L51.935,185.448C52.392,185.617 52.838,185.797 53.263,185.979L53.314,185.859Z" style="fill:rgb(212,210,202);fill-rule:nonzero;"/>
        </g>
        <g transform="matrix(4.16667,0,0,4.16667,0,0)">
            <path d="M50.623,184.856C50.178,184.713 49.715,184.574 49.248,184.442L49.212,184.567C49.679,184.698 50.14,184.837 50.583,184.98L50.623,184.856Z" style="fill:rgb(212,210,202);fill-rule:nonzero;"/>
        </g>
        <g transform="matrix(4.16667,0,0,4.16667,0,0)">
            <path d="M55.881,187.152C55.485,186.916 55.06,186.686 54.619,186.465L54.56,186.58C54.999,186.801 55.421,187.03 55.815,187.264L55.881,187.152Z" style="fill:rgb(212,210,202);fill-rule:nonzero;"/>
        </g>
        <g transform="matrix(4.16667,0,0,4.16667,0,0)">
            <path d="M19.515,184.994L19.475,184.871C19.013,185.021 18.556,185.179 18.119,185.342L18.164,185.463C18.6,185.301 19.055,185.143 19.515,184.994Z" style="fill:rgb(212,210,202);fill-rule:nonzero;"/>
        </g>
        <g transform="matrix(4.16667,0,0,4.16667,0,0)">
            <path d="M16.836,185.995L16.785,185.876C16.334,186.07 15.896,186.275 15.482,186.483L15.54,186.6C15.951,186.393 16.387,186.189 16.836,185.995Z" style="fill:rgb(212,210,202);fill-rule:nonzero;"/>
        </g>
        <g transform="matrix(4.16667,0,0,4.16667,0,0)">
            <path d="M30.755,182.927L30.746,182.797C30.268,182.832 29.787,182.873 29.315,182.918L29.328,183.047C29.798,183.002 30.278,182.961 30.755,182.927Z" style="fill:rgb(212,210,202);fill-rule:nonzero;"/>
        </g>
        <g transform="matrix(4.16667,0,0,4.16667,0,0)">
            <path d="M27.904,183.203L27.888,183.074C27.411,183.133 26.932,183.198 26.466,183.269L26.485,183.396C26.95,183.327 27.428,183.262 27.904,183.203Z" style="fill:rgb(212,210,202);fill-rule:nonzero;"/>
        </g>
        <g transform="matrix(4.16667,0,0,4.16667,0,0)">
            <path d="M22.27,184.218L22.239,184.092C21.769,184.206 21.302,184.329 20.85,184.455L20.885,184.58C21.335,184.454 21.801,184.332 22.27,184.218Z" style="fill:rgb(212,210,202);fill-rule:nonzero;"/>
        </g>
        <g transform="matrix(4.16667,0,0,4.16667,0,0)">
            <path d="M25.072,183.629L25.049,183.501C24.576,183.586 24.102,183.678 23.64,183.774L23.667,183.901C24.127,183.805 24.6,183.714 25.072,183.629Z" style="fill:rgb(212,210,202);fill-rule:nonzero;"/>
        </g>
        <g transform="matrix(4.16667,0,0,4.16667,0,0)">
            <path d="M24.425,170.733C24.889,170.815 25.365,170.893 25.84,170.963L25.859,170.835C25.386,170.765 24.911,170.688 24.448,170.605L24.425,170.733Z" style="fill:rgb(212,210,202);fill-rule:nonzero;"/>
        </g>
        <g transform="matrix(4.16667,0,0,4.16667,0,0)">
            <path d="M21.619,170.148C22.074,170.258 22.545,170.364 23.017,170.463L23.044,170.336C22.573,170.238 22.104,170.133 21.649,170.021L21.619,170.148Z" style="fill:rgb(212,210,202);fill-rule:nonzero;"/>
        </g>
        <g transform="matrix(4.16667,0,0,4.16667,0,0)">
            <path d="M30.115,171.425C30.587,171.457 31.068,171.485 31.546,171.508L31.552,171.378C31.076,171.355 30.595,171.328 30.125,171.295L30.115,171.425Z" style="fill:rgb(212,210,202);fill-rule:nonzero;"/>
        </g>
        <g transform="matrix(4.16667,0,0,4.16667,0,0)">
            <path d="M27.262,171.154C27.731,171.211 28.21,171.262 28.687,171.307L28.699,171.178C28.223,171.133 27.745,171.082 27.277,171.025L27.262,171.154Z" style="fill:rgb(212,210,202);fill-rule:nonzero;"/>
        </g>
        <g transform="matrix(4.16667,0,0,4.16667,0,0)">
            <path d="M18.858,169.371C19.302,169.516 19.764,169.654 20.231,169.785L20.266,169.66C19.8,169.529 19.34,169.392 18.898,169.248L18.858,169.371Z" style="fill:rgb(212,210,202);fill-rule:nonzero;"/>
        </g>
        <g transform="matrix(4.16667,0,0,4.16667,0,0)">
            <path d="M13.61,167.072C14.008,167.308 14.432,167.539 14.87,167.76L14.928,167.645C14.493,167.425 14.072,167.194 13.676,166.96L13.61,167.072Z" style="fill:rgb(212,210,202);fill-rule:nonzero;"/>
        </g>
        <g transform="matrix(4.16667,0,0,4.16667,0,0)">
            <path d="M16.171,168.366C16.598,168.551 17.046,168.73 17.503,168.9L17.548,168.779C17.093,168.609 16.647,168.431 16.222,168.247L16.171,168.366Z" style="fill:rgb(212,210,202);fill-rule:nonzero;"/>
        </g>
        <g transform="matrix(4.16667,0,0,4.16667,0,0)">
            <path d="M32.982,171.427L32.979,171.557C33.453,171.567 33.935,171.573 34.412,171.573L34.413,171.573L34.412,171.443C33.936,171.443 33.455,171.438 32.982,171.427Z" style="fill:rgb(212,210,202);fill-rule:nonzero;"/>
        </g>
        <g transform="matrix(4.16667,0,0,4.16667,0,0)">
            <path d="M49.926,169.238L49.966,169.362C50.429,169.213 50.885,169.055 51.322,168.893L51.276,168.771C50.842,168.933 50.388,169.09 49.926,169.238Z" style="fill:rgb(212,210,202);fill-rule:nonzero;"/>
        </g>
        <g transform="matrix(4.16667,0,0,4.16667,0,0)">
            <path d="M52.603,168.24L52.654,168.359C53.104,168.166 53.542,167.963 53.956,167.755L53.897,167.639C53.486,167.846 53.05,168.047 52.603,168.24Z" style="fill:rgb(212,210,202);fill-rule:nonzero;"/>
        </g>
        <g transform="matrix(4.16667,0,0,4.16667,0,0)">
            <path d="M35.843,171.427L35.846,171.557C36.323,171.545 36.805,171.528 37.278,171.506L37.272,171.377C36.799,171.398 36.318,171.416 35.843,171.427Z" style="fill:rgb(212,210,202);fill-rule:nonzero;"/>
        </g>
        <g transform="matrix(4.16667,0,0,4.16667,0,0)">
            <path d="M47.174,170.012L47.206,170.139C47.675,170.023 48.142,169.902 48.593,169.775L48.558,169.65C48.108,169.776 47.643,169.898 47.174,170.012Z" style="fill:rgb(212,210,202);fill-rule:nonzero;"/>
        </g>
        <g transform="matrix(4.16667,0,0,4.16667,0,0)">
            <path d="M55.151,166.957L55.217,167.068C55.643,166.815 56.048,166.552 56.421,166.284L56.346,166.179C55.975,166.443 55.573,166.706 55.151,166.957Z" style="fill:rgb(212,210,202);fill-rule:nonzero;"/>
        </g>
        <g transform="matrix(4.16667,0,0,4.16667,0,0)">
            <path d="M38.7,171.293L38.71,171.422C39.185,171.389 39.666,171.349 40.138,171.303L40.126,171.174C39.655,171.219 39.175,171.259 38.7,171.293Z" style="fill:rgb(212,210,202);fill-rule:nonzero;"/>
        </g>
        <g transform="matrix(4.16667,0,0,4.16667,0,0)">
            <path d="M41.547,171.02L41.563,171.148C42.039,171.091 42.517,171.026 42.984,170.956L42.965,170.828C42.499,170.897 42.022,170.962 41.547,171.02Z" style="fill:rgb(212,210,202);fill-rule:nonzero;"/>
        </g>
        <g transform="matrix(4.16667,0,0,4.16667,0,0)">
            <path d="M44.376,170.598L44.399,170.726C44.873,170.642 45.347,170.55 45.807,170.453L45.78,170.326C45.321,170.423 44.849,170.514 44.376,170.598Z" style="fill:rgb(212,210,202);fill-rule:nonzero;"/>
        </g>
        <g transform="matrix(4.16667,0,0,4.16667,0,0)">
            <path d="M14.889,188.361C20.269,190.967 27.413,192.556 35.252,192.556C42.993,192.556 50.053,191.006 55.409,188.459C51.043,185.775 43.564,184.006 35.069,184.006C26.677,184.006 19.277,185.732 14.889,188.361ZM56.218,164.727C50.775,161.943 43.388,160.231 35.252,160.231C26.615,160.231 18.822,162.16 13.303,165.253C17.523,168.217 25.396,170.211 34.412,170.211C43.952,170.211 52.21,167.979 56.218,164.727Z" style="fill:rgb(212,210,202);fill-rule:nonzero;"/>
        </g>
        <g transform="matrix(4.16667,0,0,4.16667,0,0)">
            <path d="M29.552,167.117L29.954,167.117C30.481,167.117 30.744,166.816 30.744,166.214C30.744,165.523 30.473,165.178 29.929,165.178L29.552,165.178L29.552,167.117ZM29.552,164.776L29.986,164.776C30.387,164.776 30.587,164.479 30.587,163.887C30.587,163.339 30.376,163.064 29.951,163.064L29.552,163.064L29.552,164.776ZM28.143,167.52L28.143,162.662L30.303,162.662C31.416,162.662 31.972,163.06 31.972,163.854C31.972,164.419 31.636,164.781 30.965,164.939C31.774,165.102 32.178,165.53 32.178,166.229C32.178,167.089 31.634,167.52 30.545,167.52L28.143,167.52Z" style="fill:rgb(148,144,126);fill-rule:nonzero;"/>
        </g>
        <g transform="matrix(4.16667,0,0,4.16667,0,0)">
            <path d="M33.851,165.438L34.627,165.438C34.627,164.604 34.501,164.186 34.25,164.186C34.022,164.186 33.894,164.495 33.865,165.114L33.851,165.438ZM35.231,166.207L35.754,166.359C35.7,167.188 35.211,167.602 34.289,167.602C33.093,167.602 32.495,167.005 32.495,165.812C32.495,165.232 32.654,164.758 32.972,164.389C33.29,164.019 33.697,163.833 34.192,163.833C35.229,163.833 35.748,164.502 35.748,165.84L33.855,165.84C33.855,166.779 34.093,167.25 34.57,167.25C35.016,167.25 35.239,166.984 35.239,166.452C35.239,166.381 35.236,166.299 35.231,166.207Z" style="fill:rgb(148,144,126);fill-rule:nonzero;"/>
        </g>
        <g transform="matrix(4.16667,0,0,4.16667,0,0)">
            <path d="M39.103,164.854L38.473,164.965C38.473,164.429 38.224,164.16 37.726,164.16C37.42,164.16 37.267,164.286 37.267,164.537C37.267,164.723 37.53,164.922 38.057,165.136C38.863,165.466 39.267,165.884 39.267,166.392C39.267,167.201 38.753,167.605 37.726,167.605C36.639,167.605 36.096,167.201 36.096,166.392L36.765,166.257C36.756,166.335 36.751,166.408 36.751,166.477C36.751,166.686 36.838,166.867 37.013,167.021C37.187,167.176 37.393,167.253 37.63,167.253C37.943,167.253 38.1,167.12 38.1,166.854C38.1,166.677 37.847,166.479 37.341,166.264C36.58,165.937 36.199,165.517 36.199,165.004C36.199,164.665 36.345,164.387 36.637,164.17C36.929,163.953 37.304,163.844 37.761,163.844C38.575,163.844 39.022,164.181 39.103,164.854Z" style="fill:rgb(148,144,126);fill-rule:nonzero;"/>
        </g>
        <g transform="matrix(4.16667,0,0,4.16667,0,0)">
            <path d="M41.719,163.943L41.719,164.346L41.142,164.346L41.142,166.883C41.142,167.042 41.193,167.121 41.295,167.121C41.369,167.121 41.413,167.068 41.427,166.961L41.797,166.996C41.695,167.371 41.37,167.559 40.822,167.559C40.169,167.559 39.843,167.281 39.843,166.727L39.843,164.346L39.409,164.346L39.409,163.943L39.843,163.943L39.843,163.311C40.292,163.188 40.725,163.009 41.142,162.776L41.142,163.943L41.719,163.943Z" style="fill:rgb(148,144,126);fill-rule:nonzero;"/>
        </g>
        <g transform="matrix(4.16667,0,0,4.16667,0,0)">
            <path d="M25.131,188.686L25.374,188.686C25.765,188.686 25.96,188.427 25.96,187.908C25.96,187.422 25.765,187.18 25.374,187.18L25.131,187.18L25.131,188.686ZM24.054,190.549L24.054,186.837L25.656,186.837C26.564,186.837 27.019,187.2 27.019,187.927C27.019,188.661 26.514,189.028 25.503,189.028L25.131,189.028L25.131,190.549L24.054,190.549Z" style="fill:rgb(148,144,126);fill-rule:nonzero;"/>
        </g>
        <g transform="matrix(4.16667,0,0,4.16667,0,0)">
            <path d="M29.306,188.803L28.626,188.803C28.649,188.695 28.67,188.617 28.688,188.566C28.713,188.492 28.726,188.425 28.726,188.365C28.726,188.249 28.684,188.19 28.601,188.19C28.538,188.19 28.477,188.268 28.419,188.421C28.361,188.574 28.332,188.735 28.332,188.906L28.332,190.549L27.339,190.549L27.339,187.808L27.533,187.811C27.761,187.811 28.027,187.785 28.332,187.736L28.332,188.188C28.493,187.887 28.691,187.736 28.925,187.736C29.244,187.736 29.403,187.912 29.403,188.264C29.403,188.356 29.388,188.463 29.357,188.582C29.346,188.631 29.329,188.705 29.306,188.803Z" style="fill:rgb(148,144,126);fill-rule:nonzero;"/>
        </g>
        <g transform="matrix(4.16667,0,0,4.16667,0,0)">
            <path d="M30.948,187.979C30.729,187.979 30.619,188.377 30.619,189.172C30.619,189.969 30.729,190.366 30.948,190.366C31.169,190.366 31.28,189.969 31.28,189.172C31.28,188.377 31.169,187.979 30.948,187.979ZM30.951,187.736C31.857,187.736 32.31,188.215 32.31,189.172C32.31,190.13 31.857,190.608 30.951,190.608C30.043,190.608 29.588,190.13 29.588,189.172C29.588,188.215 30.043,187.736 30.951,187.736Z" style="fill:rgb(148,144,126);fill-rule:nonzero;"/>
        </g>
        <g transform="matrix(4.16667,0,0,4.16667,0,0)">
            <path d="M33.901,188.131C33.734,188.131 33.651,188.284 33.651,188.591L33.632,189.172L33.643,189.703C33.643,190.042 33.737,190.211 33.926,190.211C34.109,190.211 34.201,190.045 34.201,189.711L34.214,189.042L34.192,188.585C34.163,188.283 34.066,188.131 33.901,188.131ZM35.188,186.779L35.188,190.549L34.195,190.549L34.195,190.312C34.028,190.512 33.805,190.611 33.526,190.611C32.91,190.611 32.602,190.138 32.602,189.191C32.602,188.218 32.928,187.73 33.581,187.73C33.837,187.73 34.043,187.845 34.195,188.071L34.195,186.837C34.494,186.837 34.825,186.817 35.188,186.779Z" style="fill:rgb(148,144,126);fill-rule:nonzero;"/>
        </g>
        <g transform="matrix(4.16667,0,0,4.16667,0,0)">
            <path d="M38.334,187.736L38.334,190.549L37.341,190.549L37.341,190.11C37.113,190.438 36.819,190.6 36.46,190.6C35.976,190.6 35.734,190.364 35.734,189.893L35.734,187.808C36.068,187.793 36.398,187.77 36.727,187.736L36.727,189.869C36.727,190.054 36.783,190.146 36.895,190.146C37.192,190.146 37.341,189.826 37.341,189.188L37.341,187.808C37.673,187.793 38.003,187.77 38.334,187.736Z" style="fill:rgb(148,144,126);fill-rule:nonzero;"/>
        </g>
        <g transform="matrix(4.16667,0,0,4.16667,0,0)">
            <path d="M40.838,189.324L41.257,189.453L41.26,189.564C41.26,190.26 40.879,190.608 40.118,190.608C39.215,190.608 38.763,190.15 38.763,189.234C38.763,188.776 38.895,188.411 39.158,188.138C39.42,187.865 39.773,187.729 40.215,187.729C40.852,187.729 41.17,188.017 41.17,188.594L40.705,188.818L40.71,188.559C40.71,188.166 40.579,187.971 40.316,187.971C39.968,187.971 39.794,188.355 39.794,189.123C39.794,189.598 39.831,189.924 39.906,190.102C39.98,190.277 40.118,190.366 40.319,190.366C40.687,190.366 40.871,190.128 40.871,189.651C40.871,189.584 40.86,189.475 40.838,189.324Z" style="fill:rgb(148,144,126);fill-rule:nonzero;"/>
        </g>
        <g transform="matrix(4.16667,0,0,4.16667,0,0)">
            <path d="M43.09,187.815L43.09,188.123L42.649,188.123L42.649,190.062C42.649,190.184 42.688,190.244 42.766,190.244C42.823,190.244 42.856,190.203 42.867,190.121L43.15,190.148C43.072,190.436 42.823,190.578 42.405,190.578C41.906,190.578 41.657,190.366 41.657,189.941L41.657,188.123L41.325,188.123L41.325,187.815L41.657,187.815L41.657,187.331C42,187.237 42.33,187.102 42.649,186.924L42.649,187.815L43.09,187.815Z" style="fill:rgb(148,144,126);fill-rule:nonzero;"/>
        </g>
        <g transform="matrix(4.16667,0,0,4.16667,0,0)">
            <path d="M45.545,188.512L45.064,188.596C45.064,188.187 44.874,187.981 44.493,187.981C44.259,187.981 44.142,188.078 44.142,188.27C44.142,188.411 44.343,188.563 44.746,188.727C45.362,188.979 45.67,189.299 45.67,189.687C45.67,190.305 45.278,190.613 44.493,190.613C43.663,190.613 43.248,190.305 43.248,189.687L43.759,189.583C43.752,189.643 43.748,189.699 43.748,189.752C43.748,189.911 43.814,190.05 43.948,190.168C44.081,190.285 44.238,190.345 44.419,190.345C44.659,190.345 44.779,190.243 44.779,190.04C44.779,189.904 44.585,189.754 44.2,189.589C43.617,189.338 43.327,189.018 43.327,188.626C43.327,188.367 43.438,188.154 43.661,187.988C43.884,187.822 44.17,187.739 44.52,187.739C45.142,187.739 45.484,187.996 45.545,188.512Z" style="fill:rgb(148,144,126);fill-rule:nonzero;"/>
        </g>
        <g transform="matrix(4.16667,0,0,4.16667,0,0)">
            <path d="M60.595,173.937L61.183,175.746L63.086,175.746L61.547,176.865L62.135,178.676L60.595,177.557L59.055,178.676L59.644,176.865L58.104,175.746L60.007,175.746L60.595,173.937Z" style="fill:rgb(212,210,202);fill-rule:nonzero;"/>
        </g>
        <g transform="matrix(4.16667,0,0,4.16667,0,0)">
            <path d="M46.754,162.95L47.342,164.76L49.246,164.76L47.706,165.879L48.294,167.689L46.754,166.57L45.214,167.689L45.802,165.879L44.263,164.76L46.166,164.76L46.754,162.95Z" style="fill:rgb(118,113,88);fill-rule:nonzero;"/>
        </g>
        <g transform="matrix(4.16667,0,0,4.16667,0,0)">
            <path d="M48.052,186.653L48.468,187.935L49.815,187.935L48.726,188.727L49.142,190.008L48.052,189.216L46.961,190.008L47.378,188.727L46.288,187.935L47.635,187.935L48.052,186.653Z" style="fill:rgb(118,113,88);fill-rule:nonzero;"/>
        </g>
        <g transform="matrix(4.16667,0,0,4.16667,0,0)">
            <path d="M21.148,186.653L21.564,187.935L22.912,187.935L21.822,188.727L22.238,190.008L21.148,189.216L20.058,190.008L20.474,188.727L19.384,187.935L20.732,187.935L21.148,186.653Z" style="fill:rgb(118,113,88);fill-rule:nonzero;"/>
        </g>
        <g transform="matrix(4.16667,0,0,4.16667,0,0)">
            <path d="M22.619,162.95L23.207,164.76L25.11,164.76L23.571,165.879L24.159,167.689L22.619,166.57L21.079,167.689L21.667,165.879L20.127,164.76L22.031,164.76L22.619,162.95Z" style="fill:rgb(118,113,88);fill-rule:nonzero;"/>
        </g>
        <g transform="matrix(4.16667,0,0,4.16667,0,0)">
            <path d="M58.597,182.5L57.991,183.311L58.574,184.137L57.616,183.812L57.01,184.621L57.024,183.61L56.066,183.284L57.033,182.984L57.046,181.973L57.63,182.8L58.597,182.5Z" style="fill:rgb(212,210,202);fill-rule:nonzero;"/>
        </g>
        <g transform="matrix(4.16667,0,0,4.16667,0,0)">
            <path d="M58.044,169.502L57.438,170.313L58.021,171.139L57.064,170.813L56.458,171.623L56.471,170.611L55.513,170.285L56.48,169.986L56.494,168.975L57.077,169.801L58.044,169.502Z" style="fill:rgb(212,210,202);fill-rule:nonzero;"/>
        </g>
        <g transform="matrix(4.16667,0,0,4.16667,0,0)">
            <path d="M7.399,173.937L6.811,175.746L4.907,175.746L6.447,176.865L5.859,178.676L7.399,177.557L8.938,178.676L8.35,176.865L9.89,175.746L7.987,175.746L7.399,173.937Z" style="fill:rgb(212,210,202);fill-rule:nonzero;"/>
        </g>
        <g transform="matrix(4.16667,0,0,4.16667,0,0)">
            <path d="M9.397,182.5L10.003,183.311L9.42,184.137L10.377,183.812L10.984,184.621L10.97,183.61L11.928,183.284L10.961,182.984L10.947,181.973L10.364,182.8L9.397,182.5Z" style="fill:rgb(212,210,202);fill-rule:nonzero;"/>
        </g>
        <g transform="matrix(4.16667,0,0,4.16667,0,0)">
            <path d="M9.95,169.502L10.556,170.313L9.973,171.139L10.93,170.813L11.537,171.623L11.523,170.611L12.481,170.285L11.514,169.986L11.5,168.975L10.917,169.801L9.95,169.502Z" style="fill:rgb(212,210,202);fill-rule:nonzero;"/>
        </g>
    </g>
</svg>
