<?xml version="1.0" encoding="UTF-8" standalone="no"?>
<!DOCTYPE svg PUBLIC "-//W3C//DTD SVG 1.1//EN" "http://www.w3.org/Graphics/SVG/1.1/DTD/svg11.dtd">
<svg width="100%" height="100%" viewBox="0 0 285 222" version="1.1" xmlns="http://www.w3.org/2000/svg" xmlns:xlink="http://www.w3.org/1999/xlink" xml:space="preserve" xmlns:serif="http://www.serif.com/" style="fill-rule:evenodd;clip-rule:evenodd;stroke-linejoin:round;stroke-miterlimit:1.41421;">
    <g transform="matrix(1,0,0,1,0.0002,-854.126)">
        <g transform="matrix(2,0,0,2,-32.0422,-29.2899)">
            <path d="M133.424,478.071C133.246,478.588 133.117,478.979 133.033,479.247C132.961,479.006 132.844,478.645 132.684,478.161L130.947,472.971L129.488,472.971L129.488,480.301L130.423,480.301L130.423,474.061L132.543,480.301L133.418,480.301L135.549,474.167L135.549,480.301L136.484,480.301L136.484,472.971L135.178,472.971L133.424,478.071ZM124.803,475.141C124.973,474.678 125.104,474.211 125.197,473.741C125.311,474.137 125.484,474.645 125.717,475.26L126.482,477.292L123.996,477.292L124.803,475.141ZM122.912,480.301L123.717,478.081L126.783,478.081L127.637,480.301L128.742,480.301L125.742,472.971L124.697,472.971L121.881,480.301L122.912,480.301ZM121.176,473.836L121.176,472.971L115.875,472.971L115.875,480.301L121.346,480.301L121.346,479.436L116.846,479.436L116.846,476.942L120.902,476.942L120.902,476.081L116.846,476.081L116.846,473.836L121.176,473.836ZM113.141,475.629C113.01,475.831 112.82,475.977 112.57,476.069C112.32,476.161 111.973,476.206 111.529,476.206L109.445,476.206L109.445,473.782L111.766,473.782C112.309,473.782 112.707,473.893 112.957,474.116C113.209,474.338 113.336,474.624 113.336,474.971C113.336,475.208 113.27,475.426 113.141,475.629ZM114.336,474.971C114.336,474.567 114.234,474.2 114.031,473.866C113.828,473.532 113.555,473.299 113.215,473.168C112.875,473.036 112.379,472.971 111.725,472.971L108.475,472.971L108.475,480.301L109.445,480.301L109.445,477.045L110.57,477.045C110.82,477.045 111,477.057 111.109,477.081C111.26,477.118 111.408,477.182 111.553,477.276C111.697,477.37 111.861,477.534 112.045,477.766C112.229,478 112.463,478.336 112.746,478.776L113.715,480.301L114.936,480.301L113.66,478.307C113.406,477.917 113.139,477.592 112.855,477.331C112.723,477.211 112.527,477.09 112.27,476.965C112.975,476.87 113.494,476.643 113.83,476.286C114.168,475.93 114.336,475.491 114.336,474.971ZM107.266,477.977L106.295,477.731C106.162,478.348 105.906,478.813 105.529,479.127C105.152,479.44 104.693,479.596 104.148,479.596C103.703,479.596 103.287,479.481 102.904,479.252C102.521,479.022 102.238,478.674 102.057,478.209C101.875,477.745 101.783,477.2 101.783,476.577C101.783,476.092 101.861,475.624 102.014,475.168C102.168,474.713 102.434,474.35 102.813,474.081C103.189,473.811 103.66,473.676 104.225,473.676C104.715,473.676 105.121,473.797 105.445,474.042C105.768,474.284 106.014,474.672 106.184,475.206L107.139,474.981C106.943,474.305 106.594,473.78 106.094,473.407C105.594,473.032 104.979,472.846 104.244,472.846C103.598,472.846 103.004,472.993 102.467,473.288C101.928,473.583 101.514,474.014 101.221,474.583C100.93,475.153 100.783,475.817 100.783,476.581C100.783,477.282 100.912,477.936 101.172,478.547C101.43,479.157 101.807,479.622 102.301,479.944C102.797,480.266 103.439,480.426 104.229,480.426C104.992,480.426 105.639,480.217 106.168,479.799C106.695,479.381 107.061,478.774 107.266,477.977ZM60.777,476.942L64.832,476.942L64.832,476.081L60.777,476.081L60.777,473.836L65.107,473.836L65.107,472.971L59.806,472.971L59.806,480.301L65.277,480.301L65.277,479.436L60.777,479.436L60.777,476.942ZM53.628,479.944C54.123,480.266 54.765,480.426 55.556,480.426C56.32,480.426 56.964,480.217 57.494,479.799C58.023,479.381 58.388,478.774 58.591,477.977L57.621,477.731C57.488,478.348 57.232,478.813 56.857,479.127C56.48,479.44 56.019,479.596 55.476,479.596C55.029,479.596 54.615,479.481 54.23,479.252C53.847,479.022 53.564,478.674 53.382,478.209C53.201,477.745 53.111,477.2 53.111,476.577C53.111,476.092 53.187,475.624 53.341,475.168C53.494,474.713 53.759,474.35 54.138,474.081C54.517,473.811 54.988,473.676 55.55,473.676C56.041,473.676 56.447,473.797 56.771,474.042C57.095,474.284 57.341,474.672 57.511,475.206L58.466,474.981C58.269,474.305 57.921,473.78 57.421,473.407C56.921,473.032 56.304,472.846 55.572,472.846C54.923,472.846 54.332,472.993 53.793,473.288C53.255,473.583 52.839,474.014 52.548,474.583C52.255,475.153 52.111,475.817 52.111,476.581C52.111,477.282 52.24,477.936 52.498,478.547C52.755,479.157 53.132,479.622 53.628,479.944ZM50.681,472.971L49.71,472.971L49.71,480.301L50.681,480.301L50.681,472.971ZM105.918,459.002L108.637,459.002C109.273,459.002 109.738,459.133 110.033,459.395C110.328,459.657 110.477,459.991 110.477,460.397C110.477,460.674 110.4,460.932 110.248,461.168C110.096,461.405 109.873,461.577 109.58,461.684C109.287,461.792 108.881,461.844 108.361,461.844L105.918,461.844L105.918,459.002ZM105.918,462.829L107.236,462.829C107.529,462.829 107.74,462.842 107.869,462.87C108.045,462.913 108.217,462.989 108.387,463.098C108.557,463.208 108.75,463.399 108.965,463.672C109.18,463.946 109.453,464.34 109.785,464.856L110.922,466.643L112.352,466.643L110.857,464.305C110.561,463.848 110.246,463.467 109.914,463.163C109.758,463.022 109.529,462.879 109.229,462.735C110.053,462.622 110.662,462.356 111.057,461.938C111.451,461.52 111.648,461.006 111.648,460.397C111.648,459.924 111.529,459.493 111.291,459.102C111.053,458.711 110.734,458.44 110.336,458.286C109.938,458.131 109.355,458.053 108.59,458.053L104.781,458.053L104.781,466.643L105.918,466.643L105.918,462.829ZM96.783,466.643L103.193,466.643L103.193,465.629L97.919,465.629L97.919,462.706L102.672,462.706L102.672,461.698L97.919,461.698L97.919,459.067L102.994,459.067L102.994,458.053L96.783,458.053L96.783,466.643ZM87.824,459.331L90.308,466.643L91.334,466.643L93.83,459.454L93.83,466.643L94.925,466.643L94.925,458.053L93.396,458.053L91.339,464.03C91.132,464.635 90.98,465.094 90.882,465.407C90.796,465.125 90.66,464.702 90.472,464.135L88.439,458.053L86.728,458.053L86.728,466.643L87.824,466.643L87.824,459.331ZM77.828,459.331L80.312,466.643L81.337,466.643L83.834,459.454L83.834,466.643L84.929,466.643L84.929,458.053L83.4,458.053L81.343,464.03C81.136,464.635 80.984,465.094 80.886,465.407C80.8,465.125 80.664,464.702 80.476,464.135L78.443,458.053L76.732,458.053L76.732,466.643L77.828,466.643L77.828,459.331ZM68.119,458.053L68.119,463.016C68.119,463.926 68.228,464.645 68.447,465.17C68.666,465.696 69.031,466.096 69.543,466.374C70.054,466.651 70.712,466.79 71.517,466.79C72.345,466.79 73.013,466.631 73.523,466.313C74.033,465.995 74.386,465.581 74.582,465.073C74.777,464.565 74.875,463.879 74.875,463.016L74.875,458.053L73.738,458.053L73.738,463.01C73.738,464.088 73.56,464.817 73.205,465.196C72.849,465.575 72.253,465.764 71.418,465.764C70.929,465.764 70.515,465.668 70.177,465.477C69.839,465.286 69.601,465.014 69.462,464.661C69.324,464.307 69.255,463.756 69.255,463.01L69.255,458.053L68.119,458.053ZM65.084,462.12C64.74,461.963 64.105,461.782 63.181,461.573C62.257,461.364 61.687,461.159 61.468,460.959C61.246,460.76 61.134,460.506 61.134,460.198C61.134,459.842 61.291,459.54 61.605,459.288C61.919,459.036 62.421,458.909 63.109,458.909C63.769,458.909 64.267,459.047 64.605,459.325C64.943,459.602 65.142,460.012 65.201,460.555L66.291,460.473C66.271,459.969 66.13,459.518 65.869,459.12C65.607,458.721 65.232,458.42 64.746,458.215C64.259,458.01 63.699,457.907 63.062,457.907C62.484,457.907 61.959,458.004 61.486,458.2C61.013,458.395 60.654,458.682 60.408,459.059C60.162,459.436 60.039,459.84 60.039,460.274C60.039,460.668 60.138,461.026 60.339,461.344C60.541,461.663 60.847,461.928 61.257,462.143C61.574,462.311 62.127,462.491 62.916,462.68C63.705,462.87 64.214,463.008 64.445,463.098C64.804,463.235 65.062,463.405 65.218,463.606C65.375,463.807 65.453,464.042 65.453,464.311C65.453,464.577 65.371,464.823 65.209,465.047C65.046,465.272 64.8,465.448 64.468,465.577C64.136,465.706 63.753,465.77 63.32,465.77C62.832,465.77 62.392,465.686 62.002,465.516C61.611,465.346 61.322,465.124 61.136,464.848C60.951,464.573 60.834,464.219 60.783,463.79L59.71,463.883C59.726,464.458 59.882,464.973 60.181,465.428C60.48,465.883 60.892,466.223 61.418,466.45C61.943,466.676 62.595,466.79 63.373,466.79C63.986,466.79 64.537,466.678 65.027,466.454C65.517,466.229 65.894,465.915 66.156,465.51C66.418,465.106 66.548,464.674 66.548,464.217C66.548,463.756 66.429,463.35 66.191,462.997C65.953,462.643 65.584,462.35 65.084,462.12ZM109.586,504.778C109.477,504.788 109.373,504.776 109.275,504.752L109.271,504.762C109.371,504.786 109.477,504.788 109.586,504.778ZM127.088,510.516L130.723,498.551C131.838,495.799 131.234,489.645 123.58,487.223C113.613,484.069 111.297,493.344 111.297,493.344L108.455,502.389C108.127,503.493 108.535,504.575 109.275,504.752C110.445,501.239 114.053,490.645 115.404,489.614C116.201,489.006 119.166,487.069 121.447,489.805C121.447,489.805 116.543,489.463 115.631,491.288C114.629,493.292 112.438,499.702 111.152,503.555C112.809,501.331 112.686,499.807 114.777,500.282C117.422,500.877 115.426,504.834 115.744,506.747C116.063,508.655 118.928,509.358 120.418,507.461C122.195,505.204 121.842,501.129 124.564,501.668C128.666,502.479 122.477,509.909 127.088,510.516ZM123.473,509.999C124.352,506.596 125.035,504.93 124.137,503.969C123.238,503.008 121.729,508.18 121.729,508.18C120.758,512.151 117.041,510.917 117.041,510.917C113.664,509.959 114.012,508.274 114.012,508.274C114.68,504.723 114.652,503.432 113.945,502.959C113.236,502.485 112.24,504.055 110.803,506.772C110.193,507.924 109.756,508.168 109.074,507.981L107.129,513.94C106.967,515.528 108.594,517.776 108.594,517.776C105.654,516.233 106.201,513.592 106.201,513.592L108.053,507.581C107.66,507.334 107.344,507.032 107.182,506.86L105.264,513.169C103.346,518.435 109.947,520.833 109.947,520.833L115.967,522.781C123.104,524.62 124.543,519.204 124.543,519.204L126.432,512.696C125.441,512.887 122.637,513.225 123.473,509.999ZM110.881,522.506L105.898,533.985C105.898,533.985 107.777,538.719 112.246,535.719L115.162,523.919L110.881,522.506ZM43.009,492.924C41.851,494.176 40.736,496.629 41.156,499.819C41.156,499.819 41.875,502.272 40.091,500.571C40.091,500.571 37.619,495.028 42.107,492.231C42.107,492.231 44.169,491.674 43.009,492.924ZM44.58,509.094C49.914,510.874 55.492,506.934 56.21,503.993C56.529,502.694 61.072,505.745 63.343,500.206C65.611,494.665 55.681,495.61 55.681,495.61C50.964,483.247 42.166,488.536 42.166,488.536C33.349,492.686 37.476,502.545 37.476,502.545C33.332,506.344 32.785,510.245 36.664,511.834C40.541,513.422 41.74,508.145 44.58,509.094ZM51.736,520.357L46.418,519.063L50.353,523.349L51.736,520.357ZM48.58,511.815C48.875,511.713 49.179,511.608 49.49,511.497L49.488,511.497C49.179,511.608 48.875,511.713 48.58,511.815ZM61.179,505.887C60.601,506.243 60.025,506.579 59.455,506.905L59.459,506.905L61.289,507.374L61.179,505.887ZM55.599,528.116L54.498,527.86L53.548,526.827L55.306,528.741L55.599,528.116ZM53.548,526.827L53.175,526.42L53.173,526.42L53.548,526.827ZM52.849,520.625L51.177,524.245L53.175,526.42L56.076,527.094L58.468,521.995L52.849,520.625ZM60.003,533.852L61.978,529.594L56.714,528.375L56.128,529.633L60.462,534.352L60.003,533.852ZM62.988,530.088L60.912,534.563L60.992,534.586L61.576,534.713C62.855,534.772 63.228,533.293 63.228,533.293L62.988,530.088ZM61.289,534.676C61.195,534.657 61.093,534.624 60.992,534.586L60.968,534.583C61.08,534.624 61.187,534.655 61.289,534.676ZM56.283,513.219L61.832,514.627L61.378,508.542L58.759,507.87L56.283,513.219ZM54.701,513.961L48.812,512.465L46.351,517.911L52.21,519.333L54.701,513.961ZM45.322,517.87L45.076,517.602L45.074,517.602L45.322,517.87ZM47.707,512.186L47.574,512.151C43.904,513.344 41.521,513.733 41.521,513.733L45.076,517.602L45.24,517.641L47.707,512.186ZM62.369,521.802L61.875,515.193L62.013,517.063L60.058,521.242L62.369,521.802ZM62.453,528.571L62.816,527.788L62.457,522.961L59.578,522.264L57.197,527.352L62.453,528.571ZM62.816,527.788L62.968,529.831L62.816,527.788ZM55.175,512.936L57.459,507.999C54.572,509.508 51.845,510.647 49.49,511.497L55.175,512.936ZM58.943,520.969L61.429,515.665L55.808,514.242L53.322,519.602L58.943,520.969ZM100.416,507.43C90.839,512.18 73.837,511.563 73.837,511.563C97.091,516.935 100.416,507.43 100.416,507.43ZM89.861,499.245C74.75,503.235 72.695,505.434 72.695,505.434C69.656,507.151 69.263,511.926 69.263,511.926C71.787,507.94 77.07,511.584 94.095,508.022C111.119,504.458 100.965,487.87 100.965,487.87C100.965,487.87 102.234,495.979 89.861,499.245ZM81.74,479.667C75.748,482.063 74.148,483.991 74.148,483.991C68.847,487.274 69.701,492.405 69.701,492.405C75.513,486.848 89.332,484.969 89.332,484.969C104.914,478.885 89.238,468.764 89.238,468.764C91.56,473.127 88.742,476.862 81.74,479.667ZM68.349,509.499C73.283,499.415 76.968,502.426 90.753,496.891C104.543,491.354 97.32,480.745 97.32,480.745C93.834,488.651 85.97,487.938 85.97,487.938C60.32,491.172 68.349,509.499 68.349,509.499ZM83.134,527.092L80.753,528.395L82.187,530.206L84.529,528.792L83.134,527.092ZM82.796,531.006L83.916,532.409L86.302,530.991L85.146,529.588L82.796,531.006ZM93.779,522.25C89.853,524.834 82.507,524.555 76.441,522.403L76.421,522.31C78.449,522.638 84.49,523.35 93.794,522.143L93.779,522.25ZM87.146,530.5L88.002,529.997L88.576,530.799L87.752,531.284L88.937,532.756L88.111,533.272L86.904,531.772L84.511,533.2L85.261,534.157L84.482,534.639L83.716,533.661L82.703,534.266L82.13,533.463L83.121,532.874L82.005,531.475L79.447,533.012L78.857,532.2L81.396,530.672L79.943,528.838L78.373,529.696L77.89,528.946L79.416,528.11L78.584,526.793L79.222,526.389L80.226,527.67L82.599,526.37L82.181,525.852L83.003,525.336L83.459,525.903L84.25,525.469L84.734,526.219L83.998,526.622L85.371,528.301L89.06,526.09L89.65,526.901L85.988,529.096L87.146,530.5ZM98.101,513.174C93.216,514.678 89.291,515.153 86.689,515.266C86.689,515.266 86.07,515.271 84.919,515.297C83.769,515.276 83.148,515.276 83.148,515.276C80.546,515.178 76.617,514.727 71.722,513.25C71.722,513.25 69.484,514.506 72.617,515.944C72.617,515.944 71.07,520.985 75.195,522.19C75.195,522.19 74.154,523.377 76.242,523.897L78.156,534.555C78.156,534.555 78.488,535.5 84.99,535.667C90.724,535.54 91.818,534.516 91.818,534.516L93.658,523.849C95.738,523.318 94.693,522.133 94.693,522.133C98.806,520.907 97.224,515.875 97.224,515.875C100.348,514.419 98.101,513.174 98.101,513.174ZM149.705,487.459L150.787,487.241C150.67,486.627 150.527,486.024 150.375,485.422L149.307,485.69C149.457,486.274 149.586,486.864 149.705,487.459ZM56.984,541.485C57.509,541.811 57.994,542.151 58.466,542.497L59.123,541.606C58.636,541.252 58.125,540.895 57.566,540.545L56.984,541.485ZM148.822,483.948L149.875,483.618C149.689,483.022 149.49,482.428 149.275,481.846L148.236,482.233C148.449,482.793 148.641,483.366 148.822,483.948ZM123.816,454.934L123.814,454.938L123.816,454.938L123.816,454.934ZM95.101,542.293C95.668,542.508 96.209,542.745 96.753,543L97.224,542.002C96.662,541.737 96.089,541.493 95.498,541.26L95.101,542.293ZM59.912,543.606C60.423,544 60.918,544.379 61.431,544.717L62.041,543.797C61.57,543.489 61.091,543.127 60.589,542.733L59.912,543.606ZM123.814,454.938C123.191,454.87 122.605,454.778 122.057,454.663L121.828,455.747C122.418,455.866 123.041,455.963 123.701,456.036L123.814,454.938ZM150.277,491.047L151.371,490.924L151.371,490.918C151.297,490.305 151.215,489.688 151.123,489.077L150.029,489.249C150.125,489.846 150.205,490.448 150.277,491.047ZM101.711,545.42L101.713,545.42C102.24,545.663 102.805,545.911 103.414,546.165L103.838,545.143C103.242,544.899 102.689,544.653 102.17,544.42L101.711,545.42ZM130.179,462.653L131.24,462.354C131.076,461.76 130.94,461.167 130.795,460.584L129.723,460.858C129.867,461.424 130.004,462.026 130.179,462.653ZM117.137,452.704L117.139,452.704C116.611,452.379 116.123,452.038 115.654,451.692L115,452.584C115.486,452.94 116,453.295 116.559,453.641L117.137,452.704ZM91.668,541.34L91.671,541.34C92.296,541.454 92.875,541.588 93.408,541.737L93.709,540.674C93.134,540.516 92.525,540.377 91.867,540.252L91.668,541.34ZM67.953,544.495C67.558,544.639 67.189,544.745 66.839,544.819L67.078,545.899C67.478,545.811 67.89,545.69 68.326,545.536C68.519,545.465 68.716,545.393 68.906,545.327L68.525,544.288C68.335,544.356 68.15,544.43 67.953,544.495ZM130.223,458.758L130.22,458.758C129.966,458.145 129.641,457.559 129.172,457.042L128.348,457.78C128.711,458.184 128.981,458.647 129.197,459.176L130.223,458.758ZM88.087,540.917C88.732,540.959 89.33,541.01 89.888,541.075L90.013,539.977C89.433,539.915 88.818,539.864 88.154,539.823L88.087,540.917ZM127.541,455.836C127.014,455.577 126.4,455.366 125.691,455.213L125.453,456.29C126.094,456.428 126.621,456.614 127.055,456.827L127.541,455.836ZM70.214,543.627L70.63,544.649C71.242,544.399 71.806,544.153 72.335,543.918L71.886,542.911C71.361,543.141 70.808,543.381 70.214,543.627ZM63.152,545.637C63.752,545.875 64.4,546.034 65.101,546.071L65.166,544.963C64.584,544.934 64.06,544.809 63.552,544.61L63.152,545.637ZM80.71,539.973L80.851,541.071L80.855,541.067C81.408,540.995 82,540.938 82.644,540.903L82.576,539.797C81.912,539.838 81.294,539.899 80.71,539.973ZM85.017,539.727C84.82,539.727 84.628,539.727 84.443,539.733L84.455,540.834C84.64,540.834 84.828,540.834 85.017,540.834C85.38,540.834 85.752,540.84 86.14,540.842L86.271,540.842L86.294,539.741L86.154,539.735C85.765,539.733 85.39,539.727 85.017,539.727ZM73.56,542.157L74.013,543.163C74.587,542.907 75.132,542.665 75.683,542.442L75.263,541.424C74.695,541.649 74.138,541.897 73.56,542.157ZM131.244,462.354L131.24,462.354L131.244,462.356L131.244,462.354ZM77.033,540.778L77.367,541.829C77.91,541.657 78.48,541.504 79.091,541.372L78.855,540.292C78.21,540.43 77.609,540.594 77.033,540.778ZM120.344,454.208C119.754,454.008 119.207,453.788 118.699,453.547L118.225,454.545C118.775,454.807 119.365,455.042 119.99,455.256L120.344,454.208ZM98.392,543.805C98.914,544.065 99.457,544.338 100.035,544.625L100.527,543.639C99.947,543.354 99.412,543.079 98.886,542.815L98.392,543.805ZM146.93,515.966L147.92,516.444C148.195,515.888 148.449,515.315 148.684,514.739L147.662,514.319C147.436,514.877 147.191,515.428 146.93,515.966ZM106.846,545.868C106.43,545.868 105.98,545.819 105.49,545.704L105.238,546.778L105.242,546.78C105.803,546.915 106.342,546.973 106.846,546.973C106.973,546.973 107.1,546.969 107.225,546.959L107.156,545.858C107.053,545.868 106.955,545.868 106.846,545.868ZM146.783,476.799L146.785,476.799C146.445,476.274 146.086,475.756 145.701,475.258L144.826,475.936C145.188,476.405 145.531,476.895 145.855,477.399L146.783,476.799ZM144.477,473.821L144.475,473.821C144.047,473.362 143.592,472.92 143.115,472.502L142.389,473.331C142.834,473.725 143.264,474.137 143.668,474.575L144.477,473.821ZM141.633,471.329L141.627,471.329C141.119,470.967 140.586,470.633 140.029,470.321L139.488,471.278C140.014,471.573 140.512,471.893 140.99,472.231L141.633,471.329ZM140.111,524.094L140.719,525.01C141.248,524.659 141.758,524.281 142.242,523.883L141.541,523.031C141.084,523.406 140.605,523.76 140.111,524.094ZM142.854,521.833L143.637,522.607L143.637,522.608C144.08,522.159 144.5,521.693 144.902,521.208L144.047,520.505C143.672,520.967 143.27,521.407 142.854,521.833ZM148.305,512.629L149.344,512.987C149.549,512.397 149.736,511.807 149.912,511.206L148.85,510.899C148.68,511.481 148.5,512.059 148.305,512.629ZM150.564,494.676L151.67,494.625L151.666,494.625C151.645,494.008 151.602,493.393 151.555,492.77L150.453,492.86C150.502,493.469 150.537,494.075 150.564,494.676ZM150.43,501.956L151.531,502.051C151.578,501.432 151.621,500.813 151.648,500.196L150.549,500.145C150.518,500.745 150.475,501.35 150.43,501.956ZM150.621,497.221C150.621,497.588 150.619,497.954 150.607,498.321L151.713,498.342C151.717,497.973 151.727,497.598 151.727,497.221C151.727,496.975 151.727,496.731 151.721,496.485L150.619,496.497C150.621,496.739 150.621,496.977 150.621,497.221ZM150.387,509.401L150.385,509.401L150.385,509.405L150.387,509.401ZM149.695,507.372C149.58,507.967 149.449,508.559 149.314,509.149L150.385,509.401C150.527,508.797 150.66,508.188 150.775,507.583L149.695,507.372ZM150.006,505.579L151.098,505.745C151.191,505.133 151.273,504.518 151.348,503.903L150.25,503.776C150.178,504.377 150.098,504.979 150.006,505.579ZM145.125,519.073L146.039,519.698C146.391,519.182 146.727,518.656 147.039,518.107L146.086,517.552C145.783,518.078 145.463,518.581 145.125,519.073ZM118.455,540.217L118.748,541.282C119.289,541.139 119.865,541.014 120.484,540.917L120.314,539.829C119.656,539.926 119.037,540.061 118.455,540.217ZM122.209,539.637L122.26,540.737L122.264,540.737C122.961,540.706 123.588,540.629 124.146,540.522L123.934,539.438C123.438,539.534 122.863,539.604 122.209,539.637ZM136.961,525.737L137.363,526.766L137.369,526.766C137.963,526.53 138.539,526.266 139.09,525.975L138.574,524.997C138.057,525.272 137.521,525.516 136.961,525.737ZM108.773,545.495L109.176,546.528L109.176,546.522C109.773,546.293 110.34,545.983 110.898,545.635L110.311,544.7C109.791,545.024 109.287,545.297 108.773,545.495ZM111.801,543.678L112.441,544.581C112.922,544.235 113.416,543.883 113.936,543.538L113.326,542.622C112.781,542.979 112.279,543.338 111.801,543.678ZM131.74,466.159L132.646,465.53C132.303,465.038 132.037,464.534 131.814,464.022L130.8,464.456C131.047,465.026 131.348,465.598 131.74,466.159ZM114.934,541.639L115.467,542.608C115.967,542.334 116.496,542.081 117.066,541.848L116.652,540.825C116.039,541.075 115.469,541.35 114.934,541.639ZM133.52,527.225L134.07,528.182C134.543,527.913 135.068,527.655 135.658,527.411L135.234,526.391C134.604,526.651 134.037,526.93 133.52,527.225ZM137.895,470.485L138.332,469.477C138.154,469.397 137.975,469.327 137.795,469.252C137.393,469.094 137.016,468.928 136.666,468.76L136.189,469.752C136.563,469.934 136.961,470.11 137.385,470.278C137.553,470.344 137.727,470.415 137.895,470.485ZM130.574,529.696L131.434,530.387C131.766,529.967 132.164,529.563 132.641,529.165L131.936,528.315C131.4,528.756 130.953,529.221 130.574,529.696ZM135.139,467.899L135.133,467.899C134.609,467.555 134.156,467.194 133.764,466.829L133.008,467.629C133.447,468.043 133.949,468.442 134.527,468.821L135.139,467.899ZM128.797,533.108L129.843,533.458L129.843,533.459C130.026,532.909 130.24,532.368 130.507,531.834L129.522,531.336C129.223,531.93 128.996,532.526 128.797,533.108ZM75.738,450.377C75.214,450.114 74.671,449.836 74.089,449.553L73.599,450.543C74.173,450.827 74.716,451.1 75.24,451.366L75.738,450.377ZM127.686,536.565L128.701,537.002C128.949,536.422 129.134,535.817 129.317,535.202L128.256,534.889C128.08,535.497 127.906,536.063 127.686,536.565ZM125.543,538.922L126.021,539.92L126.021,539.915C126.688,539.596 127.225,539.182 127.65,538.706L126.826,537.973C126.498,538.34 126.09,538.663 125.543,538.922ZM31.369,472.403L30.566,471.647L30.566,471.649C30.136,472.104 29.724,472.584 29.337,473.079L30.207,473.756C30.576,473.288 30.966,472.836 31.369,472.403ZM29.154,475.209L28.234,474.602L28.232,474.602C27.89,475.124 27.56,475.657 27.25,476.202L28.212,476.747C28.507,476.223 28.828,475.711 29.154,475.209ZM40.601,466.885L40.048,465.936L40.048,465.932C39.576,466.206 39.056,466.463 38.466,466.713L38.894,467.731C39.527,467.467 40.087,467.184 40.601,466.885ZM43.535,464.393L42.666,463.706C42.335,464.131 41.945,464.542 41.466,464.938L42.181,465.788C42.71,465.338 43.156,464.87 43.535,464.393ZM27.369,478.346L26.38,477.864L26.38,477.86C26.107,478.422 25.849,478.991 25.611,479.569L26.632,479.995C26.859,479.436 27.109,478.887 27.369,478.346ZM37.168,468.389L36.755,467.362C36.16,467.6 35.589,467.87 35.039,468.167L35.566,469.137C36.078,468.862 36.613,468.608 37.168,468.389ZM25.978,481.684L24.939,481.311C24.726,481.901 24.531,482.489 24.347,483.083L25.408,483.407C25.582,482.829 25.771,482.254 25.978,481.684ZM23.535,499.344L22.433,499.411C22.47,500.018 22.517,500.637 22.58,501.268L23.679,501.155C23.621,500.54 23.572,499.936 23.535,499.344ZM23.447,496.563C23.447,496.27 23.447,495.985 23.453,495.709L22.345,495.684L22.349,495.688C22.345,495.977 22.345,496.27 22.345,496.563C22.345,496.885 22.345,497.215 22.351,497.547L23.462,497.524C23.451,497.2 23.447,496.879 23.447,496.563ZM23.658,492.317L22.558,492.209C22.496,492.844 22.447,493.463 22.414,494.065L23.515,494.131C23.546,493.542 23.595,492.936 23.658,492.317ZM24.914,485.153L23.843,484.877C23.689,485.483 23.544,486.088 23.418,486.692L24.494,486.92C24.623,486.334 24.763,485.747 24.914,485.153ZM24.146,488.709L23.058,488.52C22.949,489.141 22.857,489.754 22.773,490.36L23.869,490.51C23.951,489.918 24.041,489.319 24.146,488.709ZM45.287,460.971L44.234,460.622C44.056,461.17 43.845,461.713 43.582,462.25L44.568,462.747C44.867,462.147 45.095,461.551 45.287,460.971ZM59.189,452.483L58.658,451.516C58.164,451.79 57.628,452.047 57.052,452.284L57.476,453.299C58.087,453.053 58.658,452.772 59.189,452.483ZM65.351,448.635L64.959,447.608C64.353,447.834 63.785,448.139 63.228,448.487L63.814,449.424C64.33,449.1 64.834,448.834 65.351,448.635ZM64.96,447.606L64.959,447.606L64.96,447.608L64.96,447.606ZM62.32,450.438L61.679,449.536L61.679,449.543C61.199,449.881 60.707,450.233 60.185,450.586L60.796,451.5C61.339,451.141 61.837,450.78 62.32,450.438ZM72.419,448.756C71.886,448.51 71.32,448.262 70.712,448.01L70.291,449.032C70.888,449.282 71.437,449.522 71.959,449.756L72.419,448.756ZM79.017,451.875C78.453,451.663 77.912,451.43 77.373,451.176L76.902,452.178C77.466,452.436 78.037,452.684 78.634,452.913L79.017,451.875ZM67.216,448.286C67.658,448.286 68.123,448.344 68.636,448.461L68.89,447.389C68.304,447.249 67.748,447.18 67.216,447.18C67.117,447.18 67.017,447.184 66.912,447.19L66.97,448.292L67.216,448.286ZM45.82,459.192C45.998,458.584 46.179,458.026 46.4,457.52L45.39,457.081C45.134,457.661 44.945,458.264 44.765,458.879L45.82,459.192ZM48.572,455.196L48.109,454.194C47.433,454.512 46.892,454.915 46.464,455.381L47.269,456.131C47.609,455.766 48.023,455.454 48.572,455.196ZM45.386,457.081L45.39,457.081L45.39,457.075L45.386,457.081ZM23.894,502.965L22.802,503.114C22.882,503.723 22.98,504.334 23.089,504.954L24.179,504.76C24.066,504.161 23.974,503.559 23.894,502.965ZM82.459,452.823C81.837,452.709 81.257,452.575 80.718,452.428L80.425,453.493C80.998,453.649 81.607,453.788 82.261,453.911L82.459,452.823ZM51.853,454.504L51.933,454.504L51.875,453.401L51.796,453.409C51.128,453.44 50.527,453.51 49.982,453.614L50.187,454.696C50.675,454.606 51.228,454.543 51.853,454.504ZM55.673,453.918L55.378,452.848L55.378,452.852C54.843,453 54.267,453.124 53.644,453.219L53.818,454.309C54.474,454.208 55.089,454.073 55.673,453.918ZM79.017,451.874L79.017,451.875L79.023,451.879L79.017,451.874ZM43.873,535.459L43.873,535.463C44.13,536.077 44.47,536.651 44.947,537.167L45.75,536.411C45.38,536.014 45.109,535.557 44.89,535.032L43.873,535.459ZM42.369,528.053L41.457,528.67C41.791,529.17 42.056,529.672 42.273,530.188L43.291,529.762C43.05,529.188 42.753,528.616 42.369,528.053ZM106.113,449.653C106.527,449.506 106.918,449.397 107.285,449.319L107.059,448.237C106.635,448.327 106.205,448.452 105.742,448.61C105.568,448.674 105.395,448.739 105.225,448.799L105.607,449.833C105.771,449.776 105.939,449.713 106.113,449.653ZM24.531,506.543L23.453,506.78C23.587,507.385 23.736,507.993 23.896,508.592L24.959,508.307C24.804,507.723 24.66,507.133 24.531,506.543ZM100.566,451.965L100.111,450.959C99.541,451.217 98.99,451.458 98.447,451.682L98.863,452.704C99.425,452.471 99.988,452.223 100.566,451.965ZM103.912,450.493L103.496,449.473C102.887,449.723 102.322,449.967 101.791,450.206L102.236,451.211C102.766,450.981 103.316,450.741 103.912,450.493ZM110.986,448.542C110.385,448.295 109.74,448.137 109.039,448.088L108.961,449.186C109.539,449.229 110.064,449.358 110.572,449.565L110.986,448.542ZM50.32,539.219L50.316,539.219C50.939,539.288 51.527,539.381 52.076,539.5L52.306,538.417C51.718,538.293 51.097,538.194 50.435,538.12L50.32,539.219ZM53.791,539.965L53.787,539.965C54.375,540.163 54.918,540.385 55.427,540.629L55.898,539.637C55.359,539.37 54.771,539.131 54.136,538.917L53.791,539.965ZM46.593,538.346L46.589,538.346C47.123,538.598 47.734,538.795 48.447,538.954L48.675,537.872C48.035,537.737 47.502,537.555 47.062,537.348L46.593,538.346ZM43.898,531.569L42.835,531.858L42.835,531.862C43.003,532.456 43.138,533.053 43.285,533.635L44.357,533.362C44.212,532.795 44.07,532.192 43.898,531.569ZM97.099,453.354L96.761,452.301C96.22,452.481 95.65,452.637 95.039,452.772L95.275,453.85C95.921,453.706 96.527,453.54 97.099,453.354ZM114.205,450.586C113.697,450.192 113.207,449.813 112.695,449.473L112.078,450.391C112.549,450.704 113.029,451.069 113.527,451.458L114.205,450.586ZM38.986,526.288C39.513,526.635 39.957,526.997 40.347,527.366L41.109,526.567C40.675,526.155 40.171,525.75 39.597,525.368L38.986,526.288ZM34.056,470.071L33.425,469.168C32.904,469.53 32.404,469.92 31.929,470.334L32.656,471.17C33.101,470.78 33.57,470.411 34.056,470.071ZM29.734,520.235C30.152,520.706 30.597,521.159 31.056,521.586L31.806,520.774C31.369,520.375 30.957,519.948 30.56,519.502L29.734,520.235ZM25.47,510.051L24.421,510.381C24.609,510.977 24.814,511.563 25.035,512.151L26.066,511.764C25.857,511.196 25.656,510.624 25.47,510.051ZM27.494,517.204C27.824,517.742 28.177,518.26 28.544,518.766L29.433,518.114C29.082,517.633 28.746,517.138 28.427,516.625L27.494,517.204ZM32.513,522.797C33.019,523.174 33.548,523.522 34.101,523.844L34.656,522.889C34.138,522.591 33.644,522.263 33.171,521.911L32.513,522.797ZM26.75,513.432L25.746,513.881L25.744,513.881C26.002,514.454 26.273,515.018 26.558,515.571L27.537,515.053C27.263,514.526 26.998,513.987 26.75,513.432ZM36.24,523.688L35.798,524.698C35.955,524.766 36.115,524.833 36.273,524.897C36.699,525.068 37.089,525.239 37.455,525.417L37.939,524.428C37.55,524.235 37.13,524.052 36.683,523.87C36.535,523.811 36.384,523.75 36.24,523.688ZM86.044,453.231C85.402,453.198 84.808,453.145 84.244,453.079L84.121,454.178C84.701,454.243 85.318,454.295 85.978,454.334L86.044,453.231ZM82.462,452.819L82.459,452.823L82.462,452.823L82.462,452.819ZM89.033,454.428C89.255,454.428 89.48,454.428 89.695,454.422L89.679,453.321C89.47,453.321 89.253,453.323 89.033,453.323C88.675,453.323 88.312,453.321 87.931,453.309L87.859,453.309L87.834,454.411L87.902,454.415C88.296,454.428 88.673,454.428 89.033,454.428ZM147.561,480.561L148.566,480.114C148.305,479.542 148.033,478.973 147.736,478.426L146.762,478.952C147.047,479.471 147.311,480.014 147.561,480.561ZM93.421,454.17L93.283,453.079L93.283,453.075C92.724,453.151 92.13,453.209 91.49,453.249L91.556,454.35C92.224,454.309 92.843,454.245 93.421,454.17ZM35.796,524.7L35.798,524.698L35.796,524.698L35.796,524.7ZM155.531,498.551C155.191,514.674 149.188,525.508 139.48,528.877C133.973,530.692 132.701,534.211 131.965,537.036C131.525,538.573 131.057,540.071 130.054,541.178C129.054,542.274 127.486,543.18 124.293,543.36C119.324,543.592 116.451,545.606 114.053,547.327C112.066,548.745 110.307,549.948 107.984,549.944C106.963,549.944 105.889,549.721 104.656,549.225C102.484,548.346 100.838,547.518 99.349,546.764C95.765,544.932 92.943,543.583 86.082,543.465C85.677,543.458 85.291,543.45 84.914,543.452C78.888,543.426 76.166,544.6 72.695,546.188C71.175,546.877 69.5,547.635 67.291,548.422C66.158,548.823 65.169,549.004 64.234,549.004C61.748,549.006 59.99,547.688 57.978,546.124C55.652,544.299 52.861,542.167 47.91,541.717C44.724,541.405 43.199,540.434 42.244,539.295C41.285,538.145 40.878,536.629 40.502,535.073C39.882,532.217 38.757,528.649 33.326,526.6C22.595,522.427 18.496,508.139 18.523,496.62C18.523,496.278 18.525,495.94 18.533,495.612C18.744,483.938 23.367,469.081 34.585,465.272C40.091,463.458 41.367,459.938 42.103,457.112C42.543,455.575 43.011,454.079 44.015,452.971C45.017,451.877 46.584,450.969 49.779,450.793C54.744,450.561 57.619,448.545 60.015,446.827C62,445.405 63.757,444.202 66.084,444.206C67.105,444.208 68.179,444.428 69.416,444.926C71.582,445.805 73.222,446.633 74.712,447.383C78.296,449.217 81.125,450.567 87.988,450.686C88.398,450.694 88.789,450.698 89.168,450.698C95.187,450.721 97.908,449.549 101.379,447.959C102.895,447.274 104.572,446.514 106.779,445.729C107.912,445.327 108.896,445.149 109.834,445.149C112.324,445.145 114.082,446.463 116.09,448.028C118.416,449.848 121.205,451.985 126.158,452.434C129.341,452.747 130.869,453.719 131.824,454.858C132.781,456.004 133.189,457.52 133.564,459.073C134.184,461.928 135.309,465.499 140.746,467.549C150.031,471.231 155.527,481.788 155.543,497.188C155.543,497.635 155.539,498.088 155.531,498.551ZM141.67,465.225C137.006,463.264 136.791,461.385 135.992,458.477C135.607,456.934 135.156,454.973 133.752,453.264C132.344,451.543 130.002,450.27 126.393,449.944C122.051,449.514 119.992,447.877 117.623,446.053C115.656,444.526 113.299,442.651 109.834,442.647C108.572,442.647 107.285,442.895 105.939,443.372C103.633,444.196 101.865,444.995 100.348,445.684C96.828,447.256 94.925,448.174 89.168,448.198C88.804,448.198 88.431,448.196 88.039,448.186C81.41,448.014 79.468,446.959 75.837,445.153C74.349,444.401 72.619,443.53 70.353,442.61C68.886,442.018 67.476,441.708 66.084,441.708C62.826,441.711 60.515,443.401 58.564,444.79C56.125,446.508 54.002,448.053 49.652,448.297C46.031,448.467 43.636,449.639 42.156,451.299C40.681,452.952 40.152,454.889 39.701,456.415C38.783,459.286 38.49,461.155 33.761,462.913C20.832,467.538 16.314,483.442 16.035,495.555C16.025,495.905 16.021,496.262 16.021,496.62C16.048,508.573 20.041,523.901 32.4,528.922C37.06,530.881 37.275,532.76 38.074,535.672C38.46,537.215 38.91,539.174 40.316,540.885C41.722,542.608 44.064,543.881 47.673,544.206C52.015,544.639 54.08,546.274 56.445,548.098C58.414,549.624 60.771,551.499 64.234,551.502C65.5,551.504 66.787,551.254 68.128,550.776C70.439,549.956 72.207,549.155 73.724,548.467C77.25,546.893 79.152,545.975 84.914,545.952C85.271,545.952 85.642,545.956 86.025,545.963C92.656,546.133 94.593,547.186 98.22,548.995C99.712,549.749 101.445,550.624 103.719,551.542C105.18,552.133 106.59,552.446 107.984,552.444L107.984,552.446C111.24,552.44 113.549,550.749 115.502,549.362C117.941,547.643 120.064,546.1 124.42,545.856C128.043,545.684 130.438,544.512 131.914,542.85C133.389,541.198 133.916,539.256 134.367,537.733C135.283,534.86 135.572,532.997 140.305,531.239C151.406,527.344 157.715,515.227 158.031,498.6C158.041,498.122 158.045,497.655 158.045,497.188C158.063,481.282 152.279,469.467 141.67,465.225Z" style="fill:white;fill-rule:nonzero;"/>
        </g>
    </g>
</svg>
