<?xml version="1.0" encoding="UTF-8" standalone="no"?>
<!DOCTYPE svg PUBLIC "-//W3C//DTD SVG 1.1//EN" "http://www.w3.org/Graphics/SVG/1.1/DTD/svg11.dtd">
<svg width="100%" height="100%" viewBox="0 0 227 199" version="1.1" xmlns="http://www.w3.org/2000/svg" xmlns:xlink="http://www.w3.org/1999/xlink" xml:space="preserve" xmlns:serif="http://www.serif.com/" style="fill-rule:evenodd;clip-rule:evenodd;stroke-linejoin:round;stroke-miterlimit:1.41421;">
    <g transform="matrix(1,0,0,1,-297.128,-855.214)">
        <g transform="matrix(2,0,0,2,-32.0422,-29.2899)">
            <path d="M249.281,492.627C249.869,491.344 250.506,490.12 251.191,488.954C251.877,487.788 252.574,486.741 253.297,485.811C254.014,484.875 254.697,484.163 255.336,483.667C254.906,484.819 254.529,486.063 254.217,487.401C253.9,488.737 253.516,490.008 253.068,491.213C252.613,492.426 252.027,493.487 251.305,494.391C250.578,495.299 249.602,495.893 248.373,496.192C248.139,496.225 247.975,496.264 247.877,496.303C248.225,495.137 248.693,493.911 249.281,492.627ZM271.488,487.44C272.059,487.698 272.313,488.129 272.246,488.733C272.178,489.342 271.934,489.971 271.52,490.62C271.1,491.268 270.572,491.85 269.936,492.374C269.299,492.897 268.693,493.198 268.125,493.288C267.736,493.346 267.455,493.194 267.277,492.838C267.102,492.479 266.992,492.059 266.947,491.573C266.902,491.088 266.904,490.608 266.963,490.137C267.029,489.665 267.109,489.331 267.207,489.127L267.223,489.081L267.236,489.042C268.023,488.473 268.832,487.76 269.66,486.905C270.48,486.047 271.23,485.17 271.902,484.274C272.574,483.375 273.139,482.499 273.594,481.647C274.049,480.797 274.307,480.069 274.381,479.479L270.68,480.042C270.002,480.649 269.404,481.311 268.879,482.03C268.346,482.745 267.885,483.483 267.482,484.25C267.082,485.016 266.744,485.79 266.461,486.575C266.184,487.362 265.965,488.108 265.813,488.823C265.148,489.536 264.459,490.354 263.742,491.29C263.018,492.219 262.32,493.241 261.643,494.354C262.045,493.366 262.48,492.342 262.941,491.288C263.41,490.233 263.877,489.198 264.359,488.17C264.84,487.141 265.309,486.133 265.77,485.151C266.23,484.163 266.658,483.25 267.066,482.426C266.754,482.124 266.342,481.866 265.838,481.657C265.41,481.483 264.859,481.344 264.18,481.252C263.504,481.159 262.672,481.182 261.686,481.331C262.058,481.542 262.223,482.008 262.176,482.729C262.127,483.456 261.941,484.334 261.625,485.383C261.307,486.424 260.91,487.584 260.441,488.862C260.4,488.975 260.361,489.086 260.32,489.198L257.635,489.606C258.121,489.667 258.368,490.014 258.372,490.649C258.371,491.286 258.207,492.065 257.868,492.989C257.539,493.918 257.064,494.915 256.459,495.977C255.848,497.038 255.176,498.04 254.428,498.987C253.684,499.936 252.922,500.741 252.131,501.407C251.342,502.069 250.602,502.459 249.9,502.563C249.225,502.667 248.688,502.6 248.281,502.375C247.875,502.145 247.588,501.784 247.416,501.292C247.248,500.799 247.189,500.204 247.244,499.508C247.299,498.807 247.418,498.045 247.611,497.221L247.926,497.174C249.828,496.78 251.422,496.069 252.717,495.049C254.006,494.03 255.09,492.877 255.965,491.588C256.847,490.305 257.545,488.95 258.053,487.534C258.568,486.114 258.996,484.815 259.334,483.635C259.672,482.456 259.957,481.479 260.2,480.7C260.439,479.92 260.717,479.508 261.023,479.456C259.699,479.29 258.644,479.477 257.868,480.02C257.086,480.561 256.443,481.321 255.93,482.303C254.611,482.555 253.363,483.071 252.182,483.848C250.998,484.625 249.914,485.567 248.936,486.672C247.949,487.778 247.086,488.997 246.342,490.333C246.127,490.721 245.93,491.11 245.74,491.499L242.93,491.924C243.422,492.01 243.695,492.366 243.766,492.989C243.836,493.62 243.758,494.372 243.539,495.258C243.314,496.135 242.977,497.092 242.543,498.114C242.1,499.135 241.605,500.084 241.066,500.963C240.52,501.846 239.961,502.586 239.395,503.188C238.824,503.797 238.305,504.129 237.838,504.202C237.365,504.272 237.184,503.891 237.283,503.051C237.377,502.213 237.654,501.137 238.104,499.821C238.553,498.51 239.115,497.077 239.793,495.524C240.473,493.977 241.158,492.53 241.838,491.174C242.521,489.825 243.154,488.692 243.732,487.782C244.307,486.872 244.727,486.401 244.988,486.362C244.879,486.167 244.717,485.95 244.512,485.711C244.303,485.483 244.049,485.278 243.74,485.094C243.432,484.917 243.078,484.772 242.68,484.659C242.279,484.545 241.84,484.518 241.367,484.563C240.613,484.647 239.824,485.071 239.012,485.817C238.201,486.561 237.381,487.504 236.557,488.637C235.736,489.77 234.939,491.026 234.168,492.401C233.398,493.784 232.699,495.125 232.08,496.442C232.521,495.342 232.99,494.274 233.479,493.247C233.971,492.217 234.434,491.282 234.861,490.45C235.295,489.612 235.678,488.917 236.021,488.36C236.357,487.803 236.613,487.463 236.777,487.333C236.582,487.096 236.34,486.891 236.051,486.727C235.814,486.577 235.516,486.458 235.16,486.366C234.801,486.272 234.4,486.245 233.953,486.29C233.402,486.348 232.826,486.602 232.221,487.053C231.611,487.504 230.992,488.092 230.361,488.825C229.73,489.559 229.092,490.397 228.453,491.344C227.814,492.288 227.189,493.29 226.584,494.338C227.078,493.25 227.578,492.196 228.066,491.167C228.561,490.131 229.021,489.176 229.443,488.286C229.156,487.991 228.756,487.727 228.252,487.514C227.826,487.344 227.27,487.204 226.574,487.11C225.887,487.018 225.047,487.049 224.064,487.198C224.438,487.407 224.605,487.874 224.551,488.594C224.504,489.317 224.318,490.2 224,491.249C223.684,492.292 223.287,493.452 222.824,494.727C222.779,494.848 222.738,494.969 222.693,495.09L219.939,495.508C220.43,495.594 220.705,495.95 220.775,496.573C220.848,497.204 220.766,497.958 220.547,498.842C220.322,499.719 219.984,500.676 219.551,501.698C219.109,502.719 218.615,503.67 218.074,504.547C217.527,505.43 216.969,506.17 216.404,506.772C215.832,507.381 215.313,507.713 214.848,507.786C214.375,507.856 214.193,507.475 214.293,506.635C214.387,505.797 214.664,504.721 215.113,503.405C215.564,502.094 216.123,500.661 216.803,499.108C217.48,497.561 218.168,496.114 218.846,494.758C219.531,493.409 220.164,492.278 220.744,491.366C221.314,490.458 221.736,489.985 222,489.946C221.889,489.75 221.725,489.534 221.521,489.297C221.313,489.067 221.057,488.862 220.75,488.678C220.441,488.5 220.088,488.356 219.689,488.243C219.287,488.129 218.848,488.102 218.377,488.147C217.623,488.231 216.834,488.655 216.02,489.401C215.211,490.147 214.389,491.088 213.568,492.221C212.744,493.354 211.949,494.61 211.178,495.987C210.408,497.368 209.709,498.711 209.09,500.028C209.531,498.926 210,497.858 210.488,496.831C210.98,495.801 211.443,494.866 211.871,494.034C212.305,493.196 212.688,492.5 213.029,491.946C213.365,491.387 213.621,491.047 213.787,490.917C213.59,490.68 213.35,490.477 213.061,490.311C212.824,490.161 212.523,490.042 212.17,489.95C211.811,489.856 211.408,489.831 210.963,489.874C210.412,489.932 209.834,490.186 209.23,490.637C208.619,491.088 208.002,491.676 207.369,492.409C206.738,493.143 206.102,493.981 205.463,494.93C204.824,495.872 204.197,496.874 203.594,497.922C204.086,496.834 204.588,495.78 205.076,494.75C205.57,493.717 206.033,492.76 206.453,491.87C206.166,491.575 205.768,491.311 205.262,491.1C204.836,490.928 204.279,490.79 203.584,490.696C202.896,490.602 202.057,490.633 201.072,490.782C201.445,490.993 201.615,491.458 201.561,492.18C201.512,492.901 201.326,493.786 201.01,494.834C200.693,495.875 200.295,497.036 199.834,498.313C199.793,498.424 199.754,498.538 199.713,498.649L196.871,499.084C197.355,499.145 197.643,499.467 197.732,500.065C197.824,500.661 197.77,501.389 197.564,502.241C197.365,503.092 197.049,504.016 196.613,505.012C196.184,506.008 195.697,506.936 195.15,507.801C194.604,508.667 194.033,509.405 193.441,510.014C192.842,510.622 192.27,510.967 191.727,511.045C191.412,511.098 191.262,510.881 191.27,510.403C191.275,509.922 191.396,509.282 191.635,508.475C191.865,507.668 192.195,506.733 192.619,505.659C193.035,504.59 193.484,503.497 193.951,502.395C195.066,499.782 196.449,496.795 198.117,493.442C197.828,493.139 197.436,492.883 196.926,492.667C196.5,492.493 195.949,492.354 195.273,492.262C194.59,492.168 193.76,492.192 192.775,492.34C193.162,492.282 193.398,492.446 193.469,492.833C193.541,493.221 193.498,493.758 193.354,494.446C193.207,495.127 192.977,495.948 192.652,496.897C192.336,497.848 191.979,498.85 191.576,499.891L189.477,500.208C189.963,500.266 190.244,500.596 190.32,501.192C190.404,501.79 190.33,502.53 190.105,503.415C189.879,504.299 189.545,505.243 189.09,506.258C188.627,507.268 188.119,508.217 187.549,509.1C186.98,509.979 186.389,510.731 185.785,511.36C185.174,511.981 184.604,512.333 184.059,512.417C183.639,512.481 183.488,512.239 183.607,511.688C183.721,511.137 183.984,510.391 184.398,509.442C184.809,508.485 185.303,507.411 185.875,506.211C186.449,505.006 186.996,503.776 187.52,502.518C188.045,501.252 188.475,500.042 188.818,498.874C189.156,497.709 189.303,496.686 189.246,495.807C189.188,494.928 188.869,494.266 188.287,493.825C187.705,493.383 186.734,493.264 185.389,493.469C185.881,493.391 186.129,493.641 186.135,494.211C186.146,494.776 186.008,495.563 185.717,496.559C185.432,497.561 185.049,498.702 184.566,499.979C184.084,501.262 183.604,502.561 183.113,503.883C182.627,505.208 182.184,506.499 181.793,507.762C181.404,509.034 181.158,510.149 181.051,511.124C180.951,512.094 181.035,512.842 181.314,513.368C181.596,513.899 182.158,514.099 183.018,513.969C184.055,513.807 185.025,513.358 185.934,512.606C186.84,511.86 187.68,510.963 188.449,509.917C188.332,510.885 188.406,511.655 188.682,512.206C188.949,512.762 189.525,512.975 190.404,512.838C191.186,512.723 191.934,512.43 192.662,511.959C193.385,511.489 194.068,510.907 194.705,510.213C195.344,509.52 195.928,508.749 196.48,507.897C196.652,507.629 196.814,507.36 196.979,507.09C196.846,507.754 196.768,508.368 196.754,508.915C196.725,509.793 196.9,510.469 197.279,510.942C197.652,511.417 198.334,511.575 199.324,511.426C199.088,511.465 198.943,511.34 198.887,511.057C198.826,510.77 198.855,510.37 198.961,509.852C199.066,509.327 199.246,508.698 199.488,507.958C199.734,507.217 200.018,506.413 200.334,505.54C201.055,503.975 201.865,502.377 202.766,500.752C203.676,499.127 204.57,497.655 205.459,496.34C206.348,495.024 207.176,493.936 207.947,493.081C208.721,492.217 209.326,491.752 209.766,491.688C207.756,495.389 206.234,498.643 205.203,501.454C204.783,502.659 204.432,503.825 204.166,504.959C203.9,506.086 203.801,507.071 203.857,507.909C203.92,508.749 204.201,509.393 204.691,509.833C205.184,510.274 205.961,510.413 207.025,510.25C206.855,510.042 206.744,509.752 206.693,509.385C206.635,509.024 206.629,508.604 206.676,508.12C206.725,507.633 206.816,507.096 206.949,506.5C207.082,505.911 207.248,505.293 207.445,504.659C208.15,503.008 208.975,501.333 209.924,499.624C210.865,497.913 211.807,496.348 212.748,494.934C213.689,493.52 214.557,492.348 215.359,491.432C216.16,490.516 216.779,490.018 217.225,489.956C215.15,493.772 213.58,497.139 212.512,500.061C212.064,501.299 211.701,502.506 211.414,503.67C211.123,504.846 211.016,505.862 211.078,506.727C211.15,507.592 211.424,508.254 211.9,508.715C212.385,509.17 213.152,509.321 214.215,509.155C214.865,509.057 215.508,508.784 216.139,508.327C216.775,507.875 217.379,507.305 217.953,506.618C218.523,505.932 219.07,505.167 219.59,504.321C219.703,504.137 219.809,503.952 219.918,503.766C219.816,504.331 219.756,504.854 219.744,505.331C219.717,506.209 219.891,506.885 220.27,507.358C220.643,507.831 221.324,507.991 222.314,507.842C222.08,507.881 221.934,507.756 221.877,507.473C221.818,507.186 221.846,506.784 221.951,506.266C222.057,505.743 222.236,505.114 222.48,504.374C222.725,503.633 223.008,502.827 223.326,501.956C224.043,500.391 224.855,498.793 225.758,497.168C226.666,495.543 227.563,494.071 228.449,492.756C229.338,491.44 230.168,490.352 230.936,489.497C231.713,488.631 232.316,488.168 232.756,488.102C230.746,491.803 229.225,495.059 228.193,497.87C227.771,499.075 227.422,500.241 227.158,501.375C226.893,502.502 226.791,503.485 226.848,504.325C226.91,505.165 227.193,505.807 227.682,506.249C228.174,506.69 228.953,506.829 230.016,506.667C229.846,506.456 229.736,506.168 229.684,505.801C229.627,505.44 229.621,505.02 229.666,504.536C229.715,504.049 229.809,503.512 229.939,502.917C230.072,502.327 230.238,501.709 230.436,501.075C231.141,499.424 231.965,497.747 232.914,496.038C233.855,494.329 234.797,492.764 235.736,491.35C236.68,489.936 237.547,488.764 238.35,487.848C239.152,486.932 239.77,486.434 240.217,486.372C238.141,490.188 236.572,493.555 235.504,496.477C235.055,497.715 234.689,498.922 234.406,500.086C234.115,501.26 234.006,502.276 234.07,503.143C234.141,504.008 234.414,504.67 234.891,505.131C235.375,505.584 236.143,505.737 237.207,505.569C237.855,505.473 238.498,505.198 239.129,504.741C239.766,504.292 240.371,503.721 240.943,503.034C241.514,502.346 242.063,501.581 242.582,500.737C243.053,499.965 243.492,499.186 243.906,498.403C243.875,499.5 244.02,500.463 244.348,501.278C244.715,502.163 245.297,502.834 246.107,503.282C246.92,503.723 248.014,503.844 249.387,503.637C250.244,503.502 251.072,503.202 251.873,502.719C252.674,502.235 253.449,501.641 254.186,500.934C254.928,500.221 255.625,499.436 256.275,498.567C256.868,497.78 257.414,496.981 257.93,496.178L257.867,496.383C257.528,497.557 257.355,498.586 257.34,499.463C257.334,500.342 257.515,501.018 257.893,501.493C258.265,501.965 258.933,502.129 259.898,501.981C259.586,502.028 259.439,501.797 259.454,501.293C259.469,500.788 259.609,500.086 259.872,499.202C260.15,498.442 260.512,497.682 260.953,496.922C261.402,496.168 261.875,495.422 262.389,494.696C262.902,493.969 263.428,493.27 263.98,492.602C264.525,491.934 265.066,491.319 265.592,490.762C265.549,491.883 265.719,492.784 266.098,493.454C266.482,494.122 267.084,494.399 267.918,494.27C269.008,494.102 270.01,493.625 270.938,492.834C271.863,492.043 272.672,491.2 273.355,490.295C274.16,489.276 274.883,488.118 275.535,486.821L271.488,487.44ZM178.891,492.202C178.559,493.192 178.203,494.036 177.82,494.731C177.438,495.432 176.973,495.831 176.436,495.942C177.621,495.917 178.664,495.545 179.566,494.827C180.465,494.108 181.254,493.204 181.938,492.118C182.625,491.03 183.217,489.858 183.711,488.6C184.213,487.342 184.648,486.17 185.023,485.083C185.4,483.989 185.744,483.065 186.055,482.319C186.371,481.565 186.68,481.165 186.988,481.12C185.736,480.723 184.693,480.833 183.854,481.442C183.02,482.042 182.301,482.918 181.709,484.073C181.494,483.52 181.115,483.061 180.584,482.692C180.049,482.323 179.287,482.104 178.297,482.043C177.361,482.002 176.396,482.223 175.391,482.706C174.393,483.188 173.473,483.874 172.639,484.758C171.805,485.641 171.111,486.688 170.553,487.901C169.992,489.112 169.688,490.417 169.633,491.799C169.582,493.19 169.848,494.625 170.436,496.116C171.014,497.606 172.027,499.077 173.473,500.53C174.729,501.799 175.604,503.034 176.107,504.249C176.607,505.456 176.842,506.596 176.807,507.659C176.771,508.729 176.525,509.706 176.076,510.594C175.631,511.485 175.082,512.252 174.439,512.879C173.789,513.508 173.098,513.992 172.369,514.325C171.635,514.664 170.979,514.813 170.389,514.772C169.584,514.704 169.02,514.329 168.701,513.633C168.387,512.938 168.227,512.084 168.234,511.075C168.236,510.071 168.371,508.989 168.637,507.831C168.895,506.676 169.225,505.616 169.621,504.639C170.016,503.663 170.449,502.85 170.924,502.209C171.393,501.567 171.832,501.266 172.238,501.313C171.387,500.624 170.568,500.293 169.781,500.338C168.988,500.375 168.273,500.661 167.621,501.184C166.973,501.708 166.406,502.428 165.924,503.35C165.439,504.274 165.088,505.264 164.861,506.319C164.637,507.374 164.549,508.456 164.598,509.563C164.648,510.665 164.877,511.682 165.279,512.602C165.691,513.521 166.299,514.29 167.104,514.909C167.914,515.526 168.951,515.875 170.209,515.953C171.416,516.034 172.578,515.786 173.699,515.219C174.822,514.651 175.82,513.867 176.701,512.872C177.588,511.872 178.301,510.725 178.848,509.422C179.389,508.118 179.688,506.762 179.736,505.346C179.787,503.928 179.561,502.532 179.057,501.153C178.557,499.768 177.699,498.495 176.482,497.323C175.398,496.299 174.594,495.227 174.064,494.112C173.537,492.997 173.219,491.907 173.109,490.836C173,489.762 173.074,488.752 173.34,487.795C173.609,486.838 173.986,486.006 174.473,485.293C174.961,484.586 175.545,484.03 176.229,483.631C176.912,483.241 177.613,483.065 178.342,483.112C179.201,483.167 179.83,483.438 180.234,483.917C180.639,484.405 180.895,484.993 181.004,485.696C180.574,486.739 180.197,487.838 179.873,488.991C179.543,490.139 179.213,491.213 178.891,492.202Z" style="fill:white;fill-rule:nonzero;"/>
        </g>
        <g transform="matrix(2,0,0,2,-32.0422,-29.2899)">
            <path d="M246.068,467.557C246.068,467.557 243.729,466.721 240.639,465.053C237.549,463.383 234.545,462.547 233.711,462.295C233.711,462.295 234.023,459.846 235.131,460.401C236.238,460.954 238.885,462.51 239.992,463.342C241.1,464.17 245.025,466.715 247.172,467.18L247.219,467.241C247.086,467.51 246.744,467.653 246.068,467.557ZM243.158,460.641C243.406,461.364 242.436,461.426 242.021,461.344C241.607,461.26 241.504,460.723 241.607,460.477C241.711,460.227 242.125,460.311 242.287,460.436C242.455,460.559 242.496,461.096 242.496,461.096C243.098,461.096 242.807,460.602 242.807,460.602C242.477,459.979 240.967,459.94 240.967,459.94C242.58,459.278 243.158,460.641 243.158,460.641ZM208.24,466.973C208.24,466.973 203.713,470.307 202.213,474.227C203.525,470.528 209.359,457.934 227.795,458.879C227.797,458.879 228.559,459.5 228.559,461.231C227.705,461.18 215.094,460.682 208.24,466.973ZM201.893,475.239C201.93,475.077 201.986,474.918 202.035,474.754C201.938,475.063 201.893,475.239 201.893,475.239ZM246.359,464.254C245.797,463.801 245.828,463.202 245.83,463.143C246.078,450.831 226.09,447.217 223.445,446.795C221.172,443.614 219.33,442.252 217.313,442.252C216.771,442.252 216.268,442.342 215.785,442.432L215.404,442.5C214.658,442.625 214.215,442.944 214.09,443.45C213.859,444.37 214.963,445.301 215.291,445.553C216.633,446.663 215.492,449.077 215.211,449.616C206.096,456.331 200.84,471.524 200.01,474.057C191.826,475.793 191.754,478.85 191.775,479.198L191.816,479.915L192.514,479.747C193.123,479.598 193.781,479.526 194.479,479.526C199.678,479.526 205.408,483.618 205.469,483.659L206.125,484.129L206.385,483.368C207.516,480.061 203.654,476.086 202.561,475.043C203.691,471.098 208.543,467.493 208.645,467.413C214.035,462.465 223.152,461.932 226.824,461.932C227.377,461.932 227.813,461.942 228.102,461.954C228.115,462.096 228.096,462.258 228.047,462.44C227.83,463.231 226.994,464.223 226.152,464.7C225.553,465.034 225.289,465.428 225.373,465.87C225.496,466.502 226.287,466.725 226.795,466.803C227.342,466.989 227.885,467.083 228.418,467.083C231.445,467.083 233.367,464.168 234.012,463.008C235.211,463.368 237.748,464.168 240.354,465.579C243.451,467.252 245.768,468.084 245.865,468.12L245.924,468.139L245.982,468.149C246.158,468.172 246.318,468.184 246.457,468.184C247.396,468.184 247.711,467.678 247.816,467.379C248.199,466.288 246.947,464.721 246.359,464.254Z" style="fill:white;"/>
        </g>
        <g transform="matrix(2,0,0,2,-32.0422,-29.2899)">
            <path d="M246.102,524.065C245.945,524.735 245.715,525.456 245.412,526.217C245.104,526.979 244.756,527.694 244.369,528.364C243.98,529.038 243.576,529.602 243.146,530.077C242.723,530.545 242.313,530.809 241.926,530.87C241.541,530.928 241.326,530.676 241.291,530.118C241.256,529.561 241.34,528.848 241.561,527.989C241.775,527.129 242.092,526.19 242.498,525.178C242.91,524.165 243.367,523.245 243.871,522.414C244.377,521.581 244.895,520.922 245.43,520.427C245.967,519.93 246.475,519.758 246.949,519.914C247.129,519.979 247.25,520.141 247.32,520.407C247.389,520.669 247.406,520.989 247.367,521.375L245.633,521.635C245.977,521.678 246.176,521.927 246.234,522.377C246.295,522.829 246.252,523.391 246.102,524.065ZM204.697,530.928C204.535,531.709 204.287,532.551 203.955,533.458C203.623,534.364 203.252,535.209 202.846,536C202.439,536.784 202.01,537.454 201.566,537.997C201.123,538.543 200.709,538.85 200.324,538.911C199.936,538.965 199.738,538.676 199.725,538.04C199.713,537.401 199.82,536.592 200.047,535.606C200.271,534.622 200.605,533.557 201.045,532.417C201.48,531.28 201.957,530.235 202.471,529.282C202.984,528.325 203.518,527.563 204.068,526.987C204.623,526.417 205.135,526.204 205.609,526.36C205.791,526.424 205.916,526.592 205.98,526.852C206.049,527.114 206.068,527.44 206.029,527.821L204.293,528.086C204.637,528.124 204.832,528.418 204.877,528.958C204.924,529.493 204.859,530.153 204.697,530.928ZM250.328,523.01C250.662,523.114 250.787,523.417 250.691,523.932C250.604,524.444 250.359,525.061 249.963,525.792C249.566,526.52 249.047,527.315 248.402,528.172C247.764,529.032 247.064,529.862 246.299,530.657C246.623,529.704 246.963,528.717 247.316,527.706C247.672,526.692 248.057,525.688 248.469,524.694C248.879,523.7 249.322,522.724 249.799,521.766C250.275,520.81 250.814,519.899 251.416,519.036C251.197,518.825 250.904,518.643 250.543,518.489C250.24,518.368 249.855,518.268 249.387,518.203C248.912,518.131 248.324,518.149 247.625,518.258C247.859,518.278 248.008,518.459 248.076,518.795C248.145,519.135 248.148,519.581 248.082,520.135C247.949,519.497 247.719,519.036 247.393,518.747C246.703,518.172 246.018,517.935 245.336,518.026C244.654,518.122 244.008,518.436 243.4,518.969C242.801,519.508 242.236,520.213 241.723,521.092C241.209,521.969 240.764,522.907 240.398,523.903C240.307,524.156 240.236,524.406 240.154,524.657L238.357,524.932C238.707,524.993 238.904,525.245 238.951,525.686C239.002,526.133 238.947,526.668 238.789,527.295C238.629,527.918 238.395,528.596 238.082,529.323C237.768,530.047 237.418,530.721 237.035,531.342C236.648,531.965 236.254,532.495 235.85,532.922C235.443,533.348 235.074,533.59 234.744,533.641C234.414,533.69 234.281,533.42 234.352,532.825C234.422,532.231 234.615,531.467 234.934,530.534C235.254,529.6 235.656,528.586 236.139,527.485C236.619,526.387 237.1,525.356 237.586,524.399C238.068,523.443 238.516,522.639 238.928,521.993C239.334,521.349 239.633,521.008 239.818,520.982C239.74,520.846 239.629,520.693 239.48,520.526C239.332,520.362 239.15,520.213 238.932,520.086C238.715,519.959 238.463,519.858 238.18,519.778C237.896,519.698 237.584,519.674 237.248,519.706C236.863,519.747 236.453,519.927 236.02,520.247C235.59,520.568 235.152,520.979 234.709,521.477C234.271,521.977 233.832,522.557 233.393,523.217C232.959,523.877 232.543,524.563 232.143,525.284C232.457,524.614 232.758,523.969 233.049,523.342C233.34,522.716 233.619,522.125 233.896,521.573C233.691,521.362 233.408,521.174 233.049,521.024C232.748,520.906 232.357,520.805 231.873,520.739C231.395,520.672 230.805,520.69 230.105,520.795C230.371,520.944 230.48,521.276 230.438,521.792C230.396,522.303 230.264,522.93 230.049,523.67C229.832,524.409 229.553,525.232 229.209,526.141L229.129,526.362L227.201,526.655C227.545,526.698 227.736,526.93 227.762,527.362C227.789,527.792 227.705,528.311 227.508,528.924C227.307,529.54 227.021,530.204 226.65,530.918C226.281,531.633 225.881,532.303 225.447,532.92C225.014,533.543 224.57,534.073 224.107,534.508C223.646,534.944 223.223,535.194 222.836,535.254C222.617,535.286 222.512,535.133 222.518,534.792C222.518,534.454 222.605,533.999 222.771,533.426C222.939,532.858 223.174,532.19 223.469,531.432C223.77,530.668 224.082,529.899 224.414,529.114C225.205,527.258 226.191,525.146 227.375,522.76C227.17,522.547 226.887,522.367 226.525,522.216C226.227,522.088 225.836,521.995 225.354,521.924C224.875,521.858 224.283,521.88 223.586,521.985C223.934,521.93 224.109,522.108 224.113,522.513C224.123,522.914 224.023,523.469 223.816,524.177C223.615,524.888 223.342,525.696 223.002,526.602C222.908,526.852 222.814,527.11 222.721,527.36L220.738,527.661C221.084,527.704 221.287,527.936 221.35,528.36C221.42,528.778 221.377,529.293 221.234,529.899C221.088,530.502 220.865,531.159 220.561,531.864C220.252,532.571 219.906,533.231 219.523,533.844C219.137,534.458 218.73,534.981 218.305,535.415C217.883,535.844 217.477,536.09 217.09,536.151C216.834,536.186 216.717,536 216.738,535.581C216.756,535.163 216.893,534.62 217.15,533.94C218.414,530.51 219.563,527.569 220.592,525.117C221.621,522.664 222.486,520.608 223.197,518.959C223.902,517.307 224.434,516.008 224.773,515.063C225.121,514.117 225.244,513.419 225.15,512.971C225.055,512.524 224.721,512.284 224.146,512.235C223.576,512.192 222.73,512.254 221.607,512.424C221.826,512.391 221.924,512.61 221.891,513.075C221.857,513.542 221.734,514.182 221.518,514.995C221.303,515.81 221.02,516.756 220.67,517.85C220.316,518.938 219.93,520.078 219.498,521.271C219.066,522.466 218.627,523.678 218.174,524.906C217.738,526.081 217.33,527.198 216.938,528.262L214.965,528.561C215.309,528.604 215.512,528.836 215.576,529.26C215.645,529.678 215.604,530.194 215.461,530.799C215.314,531.403 215.09,532.059 214.787,532.766C214.477,533.471 214.131,534.131 213.75,534.745C213.359,535.358 212.955,535.881 212.531,536.315C212.107,536.745 211.703,536.991 211.314,537.051C211.059,537.086 210.943,536.901 210.963,536.483C210.982,536.063 211.119,535.52 211.375,534.84C212.641,531.411 213.787,528.469 214.816,526.016C215.846,523.563 216.711,521.508 217.422,519.86C218.129,518.209 218.658,516.909 218.998,515.963C219.346,515.016 219.469,514.319 219.377,513.872C219.281,513.424 218.945,513.185 218.373,513.135C217.803,513.092 216.955,513.156 215.834,513.325C216.051,513.292 216.15,513.51 216.115,513.977C216.082,514.443 215.959,515.083 215.744,515.896C215.529,516.709 215.246,517.657 214.895,518.75C214.543,519.838 214.154,520.977 213.725,522.17C213.291,523.367 212.852,524.579 212.398,525.805C211.959,526.989 211.551,528.114 211.156,529.184L209.193,529.485C209.537,529.526 209.742,529.754 209.805,530.178C209.869,530.602 209.83,531.118 209.689,531.723C209.545,532.327 209.318,532.983 209.016,533.688C208.707,534.395 208.359,535.055 207.973,535.668C207.59,536.28 207.184,536.805 206.76,537.237C206.336,537.668 205.93,537.915 205.545,537.973C205.326,538.006 205.215,537.852 205.221,537.512C205.225,537.172 205.311,536.717 205.48,536.145C205.648,535.575 205.877,534.909 206.178,534.147C206.477,533.389 206.789,532.618 207.121,531.833C207.912,529.979 208.9,527.866 210.078,525.481C209.877,525.266 209.594,525.084 209.232,524.93C208.93,524.81 208.539,524.716 208.059,524.643C207.58,524.578 206.992,524.594 206.293,524.706C206.586,524.659 206.754,524.784 206.799,525.079C206.844,525.372 206.803,525.78 206.674,526.309C206.547,525.821 206.336,525.448 206.055,525.193C205.363,524.618 204.678,524.397 203.99,524.532C203.307,524.665 202.654,525.04 202.033,525.663C201.414,526.284 200.83,527.083 200.293,528.057C199.779,528.993 199.342,529.985 198.971,531.028L197.125,531.309C197.467,531.35 197.641,531.594 197.643,532.036C197.643,532.477 197.529,533.022 197.301,533.667C197.064,534.319 196.732,535.02 196.293,535.786C195.855,536.547 195.361,537.258 194.809,537.918C194.264,538.573 193.691,539.137 193.094,539.616C192.496,540.094 191.916,540.375 191.348,540.463C190.445,540.6 189.799,540.356 189.414,539.741C189.031,539.122 188.838,538.266 188.84,537.172C188.842,536.079 189.018,534.829 189.355,533.411C189.693,531.993 190.139,530.547 190.684,529.075C191.23,527.596 191.861,526.174 192.572,524.803C193.287,523.435 194.016,522.25 194.758,521.243C195.494,520.233 196.227,519.487 196.953,519C197.68,518.514 198.342,518.422 198.932,518.725C198.492,519.414 198.084,520.213 197.717,521.114C197.342,522.016 196.996,522.944 196.672,523.897C196.344,524.85 196.029,525.793 195.729,526.723C195.432,527.653 195.131,528.495 194.83,529.247C194.531,529.995 194.236,530.618 193.943,531.106C193.648,531.588 193.35,531.868 193.039,531.932C193.885,531.915 194.676,531.536 195.418,530.793C196.164,530.051 196.846,529.118 197.461,527.999C198.084,526.877 198.654,525.665 199.168,524.364C199.688,523.063 200.156,521.85 200.578,520.721C200.998,519.591 201.359,518.649 201.668,517.885C201.977,517.125 202.238,516.725 202.463,516.693C201.83,516.505 201.25,516.563 200.723,516.86C200.189,517.157 199.705,517.62 199.254,518.252C198.469,517.547 197.66,517.203 196.828,517.227C195.99,517.25 195.166,517.536 194.346,518.086C193.525,518.633 192.734,519.409 191.975,520.407C191.211,521.411 190.512,522.534 189.863,523.781C189.217,525.024 188.646,526.342 188.148,527.739C187.658,529.127 187.273,530.502 187.002,531.866C186.729,533.223 186.58,534.512 186.559,535.729C186.537,536.944 186.67,538 186.957,538.885C187.242,539.774 187.705,540.444 188.352,540.901C188.992,541.36 189.846,541.51 190.918,541.346C191.578,541.245 192.217,541.018 192.83,540.657C193.441,540.299 194.023,539.87 194.564,539.364C195.109,538.858 195.623,538.295 196.104,537.678C196.578,537.055 197.027,536.434 197.438,535.807C197.625,535.52 197.805,535.219 197.982,534.917C197.842,535.811 197.764,536.637 197.787,537.36C197.813,538.211 197.971,538.891 198.252,539.393C198.533,539.897 198.98,540.102 199.59,540.006C200.27,539.905 200.912,539.573 201.523,539.004C202.133,538.444 202.707,537.752 203.244,536.94C203.135,537.708 203.17,538.307 203.348,538.747C203.527,539.178 203.938,539.346 204.584,539.245C205.131,539.165 205.666,538.956 206.182,538.622C206.693,538.288 207.182,537.875 207.645,537.383C208.105,536.891 208.529,536.338 208.916,535.735C209.004,535.598 209.078,535.459 209.162,535.321C209.1,535.61 209.047,535.885 209.006,536.147C208.93,536.635 208.93,537.049 208.998,537.389C209.066,537.723 209.211,537.979 209.424,538.157C209.639,538.331 209.959,538.387 210.381,538.323C210.93,538.235 211.467,538.028 211.979,537.694C212.496,537.366 212.977,536.952 213.43,536.459C213.881,535.967 214.301,535.42 214.688,534.811C214.781,534.667 214.857,534.518 214.949,534.374C214.881,534.678 214.822,534.971 214.781,535.247C214.705,535.735 214.703,536.149 214.771,536.489C214.84,536.823 214.984,537.079 215.199,537.256C215.412,537.43 215.732,537.487 216.156,537.422C216.705,537.334 217.24,537.127 217.752,536.793C218.27,536.463 218.75,536.051 219.203,535.559C219.654,535.067 220.076,534.52 220.463,533.911C220.535,533.797 220.596,533.682 220.666,533.569C220.6,533.895 220.541,534.213 220.508,534.504C220.436,535.196 220.496,535.727 220.695,536.1C220.895,536.477 221.299,536.618 221.902,536.522C222.457,536.44 222.998,536.231 223.527,535.893C224.064,535.559 224.572,535.141 225.063,534.645C225.551,534.149 226.014,533.592 226.447,532.979C226.768,532.524 227.061,532.061 227.354,531.598C227.146,532.379 227.029,533.073 227.014,533.663C226.994,534.288 227.119,534.766 227.387,535.102C227.652,535.436 228.135,535.549 228.838,535.444C228.67,535.471 228.572,535.377 228.541,535.165C228.51,534.956 228.533,534.653 228.613,534.262C228.697,533.875 228.828,533.403 229.021,532.85C229.209,532.292 229.424,531.698 229.664,531.055C230.168,529.926 230.752,528.774 231.41,527.598C232.068,526.428 232.719,525.36 233.363,524.393C234.006,523.428 234.6,522.633 235.146,522.002C235.691,521.375 236.115,521.039 236.432,520.993C234.961,523.7 233.848,526.088 233.088,528.161C232.77,529.04 232.512,529.891 232.311,530.723C232.107,531.553 232.027,532.276 232.076,532.889C232.123,533.502 232.316,533.973 232.654,534.299C232.998,534.622 233.547,534.725 234.301,534.612C234.756,534.543 235.215,534.348 235.664,534.024C236.111,533.7 236.543,533.295 236.949,532.813C237.354,532.325 237.74,531.782 238.109,531.178C238.479,530.579 238.824,529.969 239.146,529.358C239.213,529.229 239.275,529.092 239.342,528.961C239.338,529.165 239.318,529.379 239.33,529.569C239.375,530.356 239.539,530.975 239.826,531.432C240.109,531.883 240.557,532.067 241.166,531.973C241.715,531.893 242.24,531.674 242.744,531.323C243.246,530.975 243.723,530.547 244.174,530.045C243.613,531.432 243.107,532.719 242.658,533.909C242.209,535.094 241.76,536.079 241.316,536.864C240.895,537.565 240.467,538.063 240.033,538.344C239.596,538.627 239.232,538.729 238.949,538.649C238.666,538.569 238.494,538.331 238.443,537.936C238.393,537.54 238.543,537 238.891,536.327C239.035,536.043 239.221,535.76 239.439,535.483C239.66,535.204 239.896,534.948 240.141,534.711C240.387,534.479 240.643,534.286 240.914,534.127C241.184,533.975 241.443,533.877 241.699,533.84C241.273,533.133 240.818,532.727 240.332,532.624C239.844,532.52 239.381,532.598 238.943,532.862C238.502,533.125 238.115,533.53 237.773,534.073C237.43,534.612 237.205,535.184 237.086,535.784C236.93,536.62 237.018,537.323 237.336,537.891C237.66,538.463 238.115,538.86 238.707,539.081C239.291,539.301 239.951,539.321 240.688,539.133C241.424,538.948 242.104,538.522 242.736,537.862C243.355,537.221 243.904,536.401 244.381,535.391C244.857,534.387 245.326,533.278 245.779,532.061C246.52,531.383 247.262,530.668 247.994,529.917C248.727,529.165 249.422,528.385 250.08,527.583C250.736,526.774 251.334,525.948 251.875,525.108C252.412,524.263 252.855,523.417 253.197,522.575L250.328,523.01ZM227.672,519.075C227.881,519.271 228.168,519.341 228.535,519.281C229.367,518.311 229.904,517.521 230.15,516.917C230.4,516.318 230.438,515.872 230.275,515.586C230.107,515.302 229.787,515.157 229.318,515.157C228.85,515.151 228.309,515.26 227.703,515.487C227.484,516.008 227.334,516.51 227.258,516.993C227.178,517.477 227.176,517.896 227.25,518.25C227.324,518.608 227.461,518.881 227.672,519.075Z" style="fill:white;fill-rule:nonzero;"/>
        </g>
        <g transform="matrix(2,0,0,2,-32.0422,-29.2899)">
            <path d="M254.773,473.879C254.773,473.879 257.668,463.907 261.324,466.313C264.982,468.719 254.57,473.489 254.773,473.879Z" style="fill:white;"/>
        </g>
        <g transform="matrix(2,0,0,2,-32.0422,-29.2899)">
            <path d="M266.988,474.977C266.988,474.977 274.279,465.672 276.789,468.444C279.299,471.217 275.766,472.436 273.227,473.36C270.686,474.284 266.988,474.977 266.988,474.977Z" style="fill:white;"/>
        </g>
        <g transform="matrix(2,0,0,2,-32.0422,-29.2899)">
            <path d="M186.787,473.905C186.787,473.905 180.465,466.532 178.719,470.168C176.969,473.807 181.461,473.008 183,473.075C184.541,473.141 186.787,473.905 186.787,473.905Z" style="fill:white;"/>
        </g>
        <g transform="matrix(2,0,0,2,-32.0422,-29.2899)">
            <path d="M193.463,466.905C193.463,466.905 191.07,457.493 187.891,459.977C184.707,462.461 189.088,463.739 190.438,464.481C191.791,465.225 193.463,466.905 193.463,466.905Z" style="fill:white;"/>
        </g>
    </g>
</svg>
