<?xml version="1.0" encoding="UTF-8" standalone="no"?>
<!DOCTYPE svg PUBLIC "-//W3C//DTD SVG 1.1//EN" "http://www.w3.org/Graphics/SVG/1.1/DTD/svg11.dtd">
<svg width="100%" height="100%" viewBox="0 0 209 209" version="1.1" xmlns="http://www.w3.org/2000/svg" xmlns:xlink="http://www.w3.org/1999/xlink" xml:space="preserve" xmlns:serif="http://www.serif.com/" style="fill-rule:evenodd;clip-rule:evenodd;stroke-linejoin:round;stroke-miterlimit:1.41421;">
    <g transform="matrix(1,0,0,1,-731.63,-254.4)">
        <g transform="matrix(4.16667,0,0,4.16667,0,0)">
            <path d="M225.591,108.055C225.591,109.705 224.242,111.055 222.591,111.055L178.591,111.055C176.942,111.055 175.591,109.705 175.591,108.055L175.591,64.056C175.591,62.407 176.942,61.056 178.591,61.056L222.591,61.056C224.242,61.056 225.591,62.407 225.591,64.056L225.591,108.055Z" style="fill:white;fill-rule:nonzero;"/>
        </g>
        <g transform="matrix(4.16667,0,0,4.16667,0,0)">
            <path d="M206.861,84.261C205.861,84.261 204.935,84.564 204.16,85.078C203.384,85.574 202.498,84.525 203.367,83.85C204.642,82.966 205.484,81.496 205.484,79.827C205.484,77.124 203.294,74.935 200.591,74.935C197.89,74.935 195.701,77.124 195.701,79.827C195.701,81.496 196.539,82.966 197.818,83.85C198.687,84.525 197.8,85.574 197.025,85.078C196.25,84.564 195.322,84.261 194.324,84.261C191.621,84.261 189.431,86.451 189.431,89.153C189.431,91.855 191.621,94.044 194.324,94.044C196.515,94.044 198.347,92.594 198.97,90.608C199.113,90.171 199.415,90.031 199.732,90.383C199.695,92.011 199.583,94.632 199.273,94.942C198.414,95.802 197.63,95.617 197.06,96.185C196.697,96.547 196.876,97.177 196.876,97.177L204.306,97.177C204.306,97.177 204.486,96.547 204.123,96.185C203.554,95.617 202.771,95.802 201.91,94.942C201.599,94.632 201.486,92.013 201.453,90.383C201.765,90.031 202.07,90.171 202.212,90.608C202.833,92.594 204.669,94.044 206.861,94.044C209.562,94.044 211.751,91.855 211.751,89.153C211.751,86.451 209.562,84.261 206.861,84.261Z" style="fill:rgb(29,29,30);fill-rule:nonzero;"/>
        </g>
        <g transform="matrix(4.16667,0,0,4.16667,0,0)">
            <path d="M180.313,71.558L181.598,71.387C181.746,72.116 181.996,72.64 182.349,72.962C182.701,73.284 183.133,73.445 183.645,73.445C184.252,73.445 184.762,73.235 185.177,72.816C185.592,72.398 185.799,71.878 185.799,71.259C185.799,70.669 185.607,70.183 185.221,69.799C184.836,69.417 184.346,69.225 183.752,69.225C183.51,69.225 183.208,69.273 182.847,69.369L182.989,68.234L183.196,68.249C183.741,68.249 184.232,68.106 184.668,67.82C185.104,67.535 185.323,67.093 185.323,66.498C185.323,66.027 185.164,65.636 184.846,65.328C184.529,65.017 184.119,64.863 183.616,64.863C183.119,64.863 182.704,65.02 182.372,65.333C182.04,65.648 181.827,66.121 181.732,66.748L180.446,66.52C180.603,65.658 180.959,64.99 181.515,64.516C182.071,64.042 182.762,63.806 183.589,63.806C184.159,63.806 184.684,63.928 185.165,64.173C185.644,64.419 186.011,64.753 186.265,65.177C186.52,65.601 186.647,66.052 186.647,66.529C186.647,66.981 186.525,67.392 186.283,67.765C186.04,68.136 185.68,68.431 185.204,68.65C185.823,68.793 186.304,69.089 186.647,69.54C186.99,69.991 187.161,70.554 187.161,71.23C187.161,72.146 186.829,72.921 186.162,73.557C185.497,74.193 184.655,74.511 183.637,74.511C182.719,74.511 181.957,74.238 181.35,73.689C180.745,73.14 180.399,72.431 180.313,71.558Z" style="fill:rgb(29,29,30);fill-rule:nonzero;"/>
        </g>
        <g transform="matrix(4.16667,0,0,4.16667,0,0)">
            <path d="M213.404,104.648L214.69,104.477C214.837,105.205 215.087,105.731 215.44,106.053C215.792,106.373 216.224,106.534 216.737,106.534C217.343,106.534 217.854,106.324 218.269,105.906C218.683,105.487 218.89,104.969 218.89,104.35C218.89,103.76 218.698,103.272 218.312,102.889C217.927,102.507 217.438,102.314 216.843,102.314C216.601,102.314 216.299,102.362 215.938,102.458L216.081,101.324L216.287,101.339C216.832,101.339 217.323,101.195 217.76,100.91C218.196,100.624 218.414,100.184 218.414,99.588C218.414,99.118 218.255,98.727 217.938,98.417C217.62,98.109 217.209,97.954 216.708,97.954C216.209,97.954 215.795,98.111 215.463,98.424C215.131,98.739 214.917,99.21 214.824,99.838L213.538,99.61C213.694,98.749 214.05,98.081 214.607,97.607C215.163,97.133 215.854,96.896 216.68,96.896C217.251,96.896 217.775,97.019 218.255,97.264C218.736,97.51 219.103,97.845 219.356,98.268C219.611,98.692 219.738,99.142 219.738,99.619C219.738,100.07 219.617,100.482 219.374,100.855C219.13,101.227 218.771,101.521 218.295,101.74C218.915,101.883 219.395,102.18 219.738,102.631C220.081,103.08 220.252,103.645 220.252,104.32C220.252,105.235 219.919,106.012 219.253,106.647C218.587,107.283 217.747,107.602 216.728,107.602C215.81,107.602 215.048,107.327 214.442,106.779C213.835,106.23 213.49,105.52 213.404,104.648Z" style="fill:rgb(29,29,30);fill-rule:nonzero;"/>
        </g>
        <g transform="matrix(4.16667,0,0,4.16667,0,0)">
            <path d="M222.591,111.055L178.591,111.055C177.776,111.055 177.033,110.727 176.492,110.193C177.034,110.725 177.776,111.055 178.591,111.055L222.591,111.055C224.242,111.055 225.591,109.705 225.591,108.055L225.591,64.056L225.591,108.055C225.591,109.705 224.242,111.055 222.591,111.055ZM225.591,64.056C225.591,63.269 225.284,62.55 224.784,62.014C225.284,62.55 225.591,63.269 225.591,64.056Z" style="fill:rgb(14,116,59);fill-rule:nonzero;"/>
        </g>
        <g transform="matrix(4.16667,0,0,4.16667,0,0)">
            <path d="M222.591,111.055L178.591,111.055C177.776,111.055 177.034,110.725 176.492,110.193C176.486,110.186 176.479,110.18 176.473,110.174L192.834,93.814C193.304,93.964 193.804,94.044 194.324,94.044C196.515,94.044 198.347,92.594 198.97,90.608C199.058,90.34 199.205,90.184 199.379,90.184C199.489,90.184 199.609,90.247 199.732,90.383C199.695,92.011 199.583,94.632 199.273,94.942C198.414,95.802 197.63,95.617 197.06,96.185C196.697,96.547 196.876,97.177 196.876,97.177L204.306,97.177C204.306,97.177 204.486,96.547 204.123,96.185C203.554,95.617 202.771,95.802 201.91,94.942C201.599,94.632 201.486,92.013 201.453,90.383C201.574,90.247 201.694,90.184 201.803,90.184C201.977,90.184 202.125,90.34 202.212,90.608C202.833,92.594 204.669,94.044 206.861,94.044C209.562,94.044 211.751,91.855 211.751,89.153C211.751,86.451 209.562,84.261 206.861,84.261C205.861,84.261 204.935,84.564 204.16,85.078C204.019,85.167 203.876,85.206 203.739,85.206C203.121,85.207 202.655,84.403 203.367,83.85C204.211,83.265 204.865,82.423 205.211,81.437L224.71,61.938C224.735,61.963 224.76,61.988 224.784,62.014C225.284,62.55 225.591,63.269 225.591,64.056L225.591,108.055C225.591,109.705 224.242,111.055 222.591,111.055ZM214.69,104.477L213.404,104.648C213.49,105.52 213.835,106.23 214.442,106.779C215.048,107.327 215.81,107.602 216.728,107.602C217.747,107.602 218.587,107.283 219.253,106.647C219.919,106.012 220.252,105.235 220.252,104.32C220.252,103.645 220.081,103.08 219.738,102.631C219.395,102.18 218.915,101.883 218.295,101.74C218.771,101.521 219.13,101.227 219.374,100.855C219.617,100.482 219.738,100.07 219.738,99.619C219.738,99.142 219.611,98.692 219.356,98.268C219.103,97.845 218.736,97.51 218.255,97.264C217.775,97.019 217.251,96.896 216.68,96.896C215.854,96.896 215.163,97.133 214.607,97.607C214.05,98.081 213.694,98.749 213.538,99.61L214.824,99.838C214.917,99.21 215.131,98.739 215.463,98.424C215.795,98.111 216.209,97.954 216.708,97.954C217.209,97.954 217.62,98.109 217.938,98.417C218.255,98.727 218.414,99.118 218.414,99.588C218.414,100.184 218.196,100.624 217.76,100.91C217.323,101.195 216.832,101.339 216.287,101.339L216.081,101.324L215.938,102.458C216.299,102.362 216.601,102.314 216.843,102.314C217.438,102.314 217.927,102.507 218.312,102.889C218.698,103.272 218.89,103.76 218.89,104.35C218.89,104.969 218.683,105.487 218.269,105.906C217.854,106.324 217.343,106.534 216.737,106.534C216.224,106.534 215.792,106.373 215.44,106.053C215.087,105.731 214.837,105.205 214.69,104.477Z" style="fill:rgb(229,229,229);fill-rule:nonzero;"/>
        </g>
        <g transform="matrix(4.16667,0,0,4.16667,0,0)">
            <path d="M204.306,97.177L196.876,97.177C196.876,97.177 196.697,96.547 197.06,96.185C197.63,95.617 198.414,95.802 199.273,94.942C199.583,94.632 199.695,92.011 199.732,90.383C199.609,90.247 199.489,90.184 199.379,90.184C199.205,90.184 199.058,90.34 198.97,90.608C198.347,92.594 196.515,94.044 194.324,94.044C193.804,94.044 193.304,93.964 192.834,93.814L205.211,81.437C204.865,82.423 204.211,83.265 203.367,83.85C202.655,84.403 203.121,85.207 203.739,85.206C203.876,85.206 204.019,85.167 204.16,85.078C204.935,84.564 205.861,84.261 206.861,84.261C209.562,84.261 211.751,86.451 211.751,89.153C211.751,91.855 209.562,94.044 206.861,94.044C204.669,94.044 202.833,92.594 202.212,90.608C202.125,90.34 201.977,90.184 201.803,90.184C201.694,90.184 201.574,90.247 201.453,90.383C201.486,92.013 201.599,94.632 201.91,94.942C202.771,95.802 203.554,95.617 204.123,96.185C204.486,96.547 204.306,97.177 204.306,97.177Z" style="fill:rgb(25,26,26);fill-rule:nonzero;"/>
        </g>
        <g transform="matrix(4.16667,0,0,4.16667,0,0)">
            <path d="M216.728,107.602C215.81,107.602 215.048,107.327 214.442,106.779C213.835,106.23 213.49,105.52 213.404,104.648L214.69,104.477C214.837,105.205 215.087,105.731 215.44,106.053C215.792,106.373 216.224,106.534 216.737,106.534C217.343,106.534 217.854,106.324 218.269,105.906C218.683,105.487 218.89,104.969 218.89,104.35C218.89,103.76 218.698,103.272 218.312,102.889C217.927,102.507 217.438,102.314 216.843,102.314C216.601,102.314 216.299,102.362 215.938,102.458L216.081,101.324L216.287,101.339C216.832,101.339 217.323,101.195 217.76,100.91C218.196,100.624 218.414,100.184 218.414,99.588C218.414,99.118 218.255,98.727 217.938,98.417C217.62,98.109 217.209,97.954 216.708,97.954C216.209,97.954 215.795,98.111 215.463,98.424C215.131,98.739 214.917,99.21 214.824,99.838L213.538,99.61C213.694,98.749 214.05,98.081 214.607,97.607C215.163,97.133 215.854,96.896 216.68,96.896C217.251,96.896 217.775,97.019 218.255,97.264C218.736,97.51 219.103,97.845 219.356,98.268C219.611,98.692 219.738,99.142 219.738,99.619C219.738,100.07 219.617,100.482 219.374,100.855C219.13,101.227 218.771,101.521 218.295,101.74C218.915,101.883 219.395,102.18 219.738,102.631C220.081,103.08 220.252,103.645 220.252,104.32C220.252,105.235 219.919,106.012 219.253,106.647C218.587,107.283 217.747,107.602 216.728,107.602Z" style="fill:rgb(25,26,26);fill-rule:nonzero;"/>
        </g>
    </g>
</svg>
