<?xml version="1.0" encoding="UTF-8" standalone="no"?>
<!DOCTYPE svg PUBLIC "-//W3C//DTD SVG 1.1//EN" "http://www.w3.org/Graphics/SVG/1.1/DTD/svg11.dtd">
<svg width="100%" height="100%" viewBox="0 0 209 209" version="1.1" xmlns="http://www.w3.org/2000/svg" xmlns:xlink="http://www.w3.org/1999/xlink" xml:space="preserve" xmlns:serif="http://www.serif.com/" style="fill-rule:evenodd;clip-rule:evenodd;stroke-linejoin:round;stroke-miterlimit:1.41421;">
    <g transform="matrix(1,0,0,1,-33.9542,-932.176)">
        <g transform="matrix(4.16667,0,0,4.16667,0,0)">
            <path d="M58.149,270.723C58.149,272.373 56.799,273.723 55.149,273.723L11.149,273.723C9.501,273.723 8.149,272.373 8.149,270.723L8.149,226.722C8.149,225.073 9.501,223.722 11.149,223.722L55.149,223.722C56.799,223.722 58.149,225.073 58.149,226.722L58.149,270.723Z" style="fill:white;fill-rule:nonzero;"/>
        </g>
        <g transform="matrix(4.16667,0,0,4.16667,0,0)">
            <path d="M38.549,239.056C36.237,239.056 34.102,240.817 33.149,242.763C32.196,240.817 30.042,239.06 27.729,239.06C24.493,239.06 22.045,241.678 22.045,244.914C22.045,250.787 31.702,260.387 33.149,260.387C34.596,260.387 44.254,250.787 44.254,244.914C44.254,241.678 41.784,239.056 38.549,239.056Z" style="fill:rgb(237,31,36);fill-rule:nonzero;"/>
        </g>
        <g transform="matrix(4.16667,0,0,4.16667,0,0)">
            <path d="M14.235,233.634C14.235,234.078 14.329,234.503 14.516,234.909C14.704,235.315 14.965,235.624 15.301,235.836C15.637,236.049 15.993,236.155 16.366,236.155C16.911,236.155 17.377,235.935 17.766,235.496C18.155,235.056 18.348,234.46 18.348,233.706C18.348,232.98 18.157,232.409 17.774,231.991C17.389,231.573 16.905,231.364 16.317,231.364C15.737,231.364 15.245,231.573 14.84,231.991C14.436,232.409 14.235,232.957 14.235,233.634ZM19.483,229.116L18.206,229.221C18.092,228.714 17.93,228.346 17.721,228.116C17.374,227.748 16.944,227.564 16.434,227.564C16.026,227.564 15.665,227.678 15.352,227.907C14.95,228.203 14.631,228.634 14.399,229.202C14.165,229.768 14.043,230.576 14.034,231.624C14.344,231.152 14.723,230.802 15.17,230.574C15.618,230.345 16.088,230.231 16.579,230.231C17.436,230.231 18.167,230.546 18.768,231.178C19.372,231.81 19.672,232.626 19.672,233.628C19.672,234.287 19.532,234.898 19.249,235.463C18.965,236.028 18.575,236.461 18.081,236.761C17.585,237.062 17.022,237.212 16.395,237.212C15.323,237.212 14.448,236.818 13.772,236.029C13.096,235.24 12.758,233.939 12.758,232.127C12.758,230.101 13.131,228.628 13.879,227.708C14.532,226.907 15.409,226.506 16.512,226.506C17.336,226.506 18.01,226.738 18.536,227.2C19.063,227.663 19.377,228.301 19.483,229.116Z" style="fill:rgb(237,31,36);fill-rule:nonzero;"/>
        </g>
        <g transform="matrix(4.16667,0,0,4.16667,0,0)">
            <path d="M47.374,266.771C47.374,267.217 47.467,267.641 47.655,268.047C47.842,268.453 48.104,268.762 48.44,268.975C48.776,269.187 49.131,269.293 49.504,269.293C50.049,269.293 50.516,269.074 50.905,268.635C51.293,268.195 51.487,267.598 51.487,266.844C51.487,266.119 51.295,265.547 50.913,265.129C50.528,264.711 50.044,264.502 49.456,264.502C48.875,264.502 48.383,264.711 47.979,265.129C47.575,265.547 47.374,266.094 47.374,266.771ZM52.622,262.254L51.344,262.359C51.231,261.854 51.069,261.485 50.86,261.254C50.512,260.887 50.083,260.701 49.573,260.701C49.165,260.701 48.803,260.817 48.491,261.046C48.088,261.34 47.77,261.772 47.538,262.34C47.303,262.906 47.182,263.715 47.172,264.762C47.483,264.291 47.862,263.939 48.309,263.711C48.756,263.482 49.227,263.369 49.717,263.369C50.575,263.369 51.305,263.686 51.907,264.316C52.51,264.949 52.811,265.766 52.811,266.768C52.811,267.424 52.67,268.037 52.387,268.602C52.104,269.166 51.713,269.6 51.219,269.9C50.723,270.199 50.161,270.35 49.534,270.35C48.461,270.35 47.586,269.955 46.911,269.166C46.235,268.377 45.897,267.078 45.897,265.266C45.897,263.24 46.27,261.766 47.018,260.847C47.67,260.046 48.547,259.645 49.651,259.645C50.475,259.645 51.149,259.878 51.674,260.339C52.202,260.801 52.516,261.439 52.622,262.254Z" style="fill:rgb(237,31,36);fill-rule:nonzero;"/>
        </g>
        <g transform="matrix(4.16667,0,0,4.16667,0,0)">
            <path d="M58.148,226.664C58.148,226.663 58.148,226.661 58.148,226.66C58.148,226.661 58.148,226.663 58.148,226.664ZM58.146,226.588C58.146,226.585 58.146,226.583 58.146,226.581C58.146,226.583 58.146,226.585 58.146,226.588ZM57.803,225.327C57.802,225.326 57.801,225.325 57.801,225.324C57.801,225.325 57.802,225.326 57.803,225.327ZM57.794,225.311C57.793,225.309 57.791,225.306 57.79,225.304C57.792,225.307 57.793,225.309 57.794,225.311ZM57.785,225.295C57.784,225.292 57.782,225.289 57.78,225.286C57.782,225.289 57.784,225.292 57.785,225.295ZM57.777,225.279C57.775,225.275 57.772,225.271 57.77,225.267C57.772,225.271 57.775,225.275 57.777,225.279ZM57.768,225.264C57.727,225.19 57.682,225.118 57.635,225.048C57.682,225.118 57.727,225.19 57.768,225.264ZM57.635,225.048C57.632,225.044 57.629,225.04 57.626,225.036C57.629,225.04 57.632,225.044 57.635,225.048ZM57.625,225.033C57.622,225.029 57.619,225.024 57.615,225.02C57.619,225.024 57.622,225.029 57.625,225.033ZM57.614,225.018C57.613,225.016 57.611,225.013 57.609,225.01C57.611,225.013 57.613,225.016 57.614,225.018Z" style="fill:rgb(14,116,59);fill-rule:nonzero;"/>
        </g>
        <g transform="matrix(4.16667,0,0,4.16667,0,0)">
            <path d="M55.149,273.723L11.149,273.723C10.325,273.723 9.575,273.385 9.032,272.842L27.039,254.834C29.638,257.977 32.424,260.387 33.149,260.387C34.596,260.387 44.254,250.787 44.254,244.914C44.254,242.902 43.299,241.128 41.8,240.073L57.268,224.604C57.391,224.727 57.503,224.86 57.604,225.003C57.606,225.006 57.607,225.008 57.609,225.01L57.615,225.02C57.619,225.024 57.622,225.029 57.625,225.033C57.625,225.034 57.626,225.035 57.626,225.036C57.629,225.04 57.632,225.044 57.635,225.048C57.682,225.118 57.727,225.19 57.768,225.264C57.769,225.265 57.769,225.266 57.77,225.267C57.772,225.271 57.775,225.275 57.777,225.279C57.778,225.282 57.779,225.284 57.78,225.286C57.782,225.289 57.784,225.292 57.785,225.295C57.787,225.298 57.789,225.301 57.79,225.304C57.791,225.306 57.793,225.309 57.794,225.311C57.796,225.315 57.799,225.32 57.801,225.324C57.801,225.325 57.802,225.326 57.803,225.327C57.805,225.333 57.808,225.338 57.811,225.343C58.006,225.717 58.125,226.137 58.146,226.581C58.146,226.583 58.146,226.585 58.146,226.588C58.147,226.611 58.148,226.635 58.148,226.66C58.148,226.661 58.148,226.663 58.148,226.664C58.149,226.684 58.149,226.703 58.149,226.722L58.149,270.723C58.149,272.373 56.799,273.723 55.149,273.723ZM49.651,259.645C48.547,259.645 47.67,260.046 47.018,260.847C46.27,261.766 45.897,263.24 45.897,265.266C45.897,267.078 46.235,268.377 46.911,269.166C47.586,269.955 48.461,270.35 49.534,270.35C50.161,270.35 50.723,270.199 51.219,269.9C51.713,269.6 52.104,269.166 52.387,268.602C52.67,268.037 52.811,267.424 52.811,266.768C52.811,265.766 52.51,264.949 51.907,264.316C51.305,263.686 50.575,263.369 49.717,263.369C49.227,263.369 48.756,263.482 48.309,263.711C47.862,263.939 47.483,264.291 47.172,264.762C47.182,263.715 47.303,262.906 47.538,262.34C47.77,261.772 48.088,261.34 48.491,261.046C48.803,260.817 49.165,260.701 49.573,260.701C50.083,260.701 50.512,260.887 50.86,261.254C51.069,261.485 51.231,261.854 51.344,262.359L52.622,262.254C52.516,261.439 52.202,260.801 51.674,260.339C51.149,259.878 50.475,259.645 49.651,259.645ZM49.504,269.293C49.131,269.293 48.776,269.187 48.44,268.975C48.104,268.762 47.842,268.453 47.655,268.047C47.467,267.641 47.374,267.217 47.374,266.771C47.374,266.094 47.575,265.547 47.979,265.129C48.383,264.711 48.875,264.502 49.456,264.502C50.044,264.502 50.528,264.711 50.913,265.129C51.295,265.547 51.487,266.119 51.487,266.844C51.487,267.598 51.293,268.195 50.905,268.635C50.516,269.074 50.049,269.293 49.504,269.293Z" style="fill:rgb(229,229,229);fill-rule:nonzero;"/>
        </g>
        <g transform="matrix(4.16667,0,0,4.16667,0,0)">
            <path d="M33.149,260.387C32.424,260.387 29.638,257.977 27.039,254.834L41.8,240.073C43.299,241.128 44.254,242.902 44.254,244.914C44.254,250.787 34.596,260.387 33.149,260.387Z" style="fill:rgb(228,30,37);fill-rule:nonzero;"/>
        </g>
        <g transform="matrix(4.16667,0,0,4.16667,0,0)">
            <path d="M49.534,270.35C48.461,270.35 47.586,269.955 46.911,269.166C46.235,268.377 45.897,267.078 45.897,265.266C45.897,263.24 46.27,261.766 47.018,260.847C47.67,260.046 48.547,259.645 49.651,259.645C50.475,259.645 51.149,259.878 51.674,260.339C52.202,260.801 52.516,261.439 52.622,262.254L51.344,262.359C51.231,261.854 51.069,261.485 50.86,261.254C50.512,260.887 50.083,260.701 49.573,260.701C49.165,260.701 48.803,260.817 48.491,261.046C48.088,261.34 47.77,261.772 47.538,262.34C47.303,262.906 47.182,263.715 47.172,264.762C47.483,264.291 47.862,263.939 48.309,263.711C48.756,263.482 49.227,263.369 49.717,263.369C50.575,263.369 51.305,263.686 51.907,264.316C52.51,264.949 52.811,265.766 52.811,266.768C52.811,267.424 52.67,268.037 52.387,268.602C52.104,269.166 51.713,269.6 51.219,269.9C50.723,270.199 50.161,270.35 49.534,270.35ZM49.456,264.502C48.875,264.502 48.383,264.711 47.979,265.129C47.575,265.547 47.374,266.094 47.374,266.771C47.374,267.217 47.467,267.641 47.655,268.047C47.842,268.453 48.104,268.762 48.44,268.975C48.776,269.187 49.131,269.293 49.504,269.293C50.049,269.293 50.516,269.074 50.905,268.635C51.293,268.195 51.487,267.598 51.487,266.844C51.487,266.119 51.295,265.547 50.913,265.129C50.528,264.711 50.044,264.502 49.456,264.502Z" style="fill:rgb(228,30,37);fill-rule:nonzero;"/>
        </g>
    </g>
</svg>
