<?xml version="1.0" encoding="UTF-8" standalone="no"?>
<!DOCTYPE svg PUBLIC "-//W3C//DTD SVG 1.1//EN" "http://www.w3.org/Graphics/SVG/1.1/DTD/svg11.dtd">
<svg width="100%" height="100%" viewBox="0 0 209 209" version="1.1" xmlns="http://www.w3.org/2000/svg" xmlns:xlink="http://www.w3.org/1999/xlink" xml:space="preserve" xmlns:serif="http://www.serif.com/" style="fill-rule:evenodd;clip-rule:evenodd;stroke-linejoin:round;stroke-miterlimit:1.41421;">
    <g transform="matrix(1,0,0,1,-731.63,-706.255)">
        <g transform="matrix(4.16667,0,0,4.16667,0,0)">
            <path d="M225.591,216.5C225.591,218.15 224.241,219.499 222.591,219.499L178.591,219.499C176.94,219.499 175.591,218.15 175.591,216.5L175.591,172.5C175.591,170.851 176.94,169.501 178.591,169.501L222.591,169.501C224.241,169.501 225.591,170.851 225.591,172.5L225.591,216.5Z" style="fill:white;fill-rule:nonzero;"/>
        </g>
        <g transform="matrix(4.16667,0,0,4.16667,0,0)">
            <path d="M206.86,192.705C205.861,192.705 204.935,193.007 204.159,193.521C203.384,194.017 202.497,192.968 203.366,192.294C204.643,191.41 205.483,189.941 205.483,188.271C205.483,185.568 203.294,183.378 200.591,183.378C197.89,183.378 195.7,185.568 195.7,188.271C195.7,189.941 196.539,191.41 197.817,192.294C198.686,192.968 197.8,194.017 197.024,193.521C196.249,193.007 195.322,192.705 194.323,192.705C191.621,192.705 189.432,194.894 189.432,197.597C189.432,200.298 191.621,202.488 194.323,202.488C196.515,202.488 198.347,201.039 198.971,199.052C199.112,198.615 199.416,198.474 199.731,198.828C199.695,200.455 199.584,203.076 199.272,203.386C198.413,204.246 197.63,204.06 197.061,204.628C196.697,204.992 196.877,205.621 196.877,205.621L204.307,205.621C204.307,205.621 204.486,204.992 204.123,204.628C203.554,204.06 202.771,204.246 201.909,203.386C201.6,203.076 201.485,200.456 201.452,198.828C201.766,198.474 202.069,198.615 202.213,199.052C202.834,201.039 204.669,202.488 206.86,202.488C209.561,202.488 211.751,200.298 211.751,197.597C211.751,194.894 209.561,192.705 206.86,192.705Z" style="fill:rgb(29,29,30);fill-rule:nonzero;"/>
        </g>
        <g transform="matrix(4.16667,0,0,4.16667,0,0)">
            <path d="M180.255,180.043L181.606,179.928C181.706,180.586 181.938,181.083 182.3,181.413C182.661,181.745 183.101,181.911 183.618,181.911C184.239,181.911 184.763,181.676 185.188,181.209C185.614,180.743 185.827,180.123 185.827,179.35C185.827,178.616 185.622,178.038 185.214,177.613C184.806,177.189 184.267,176.976 183.597,176.976C183.179,176.976 182.806,177.071 182.474,177.26C182.144,177.449 181.884,177.694 181.692,177.996L180.483,177.833L181.503,172.452L186.694,172.452L186.694,173.68L182.526,173.68L181.964,176.499C182.591,176.061 183.249,175.842 183.938,175.842C184.851,175.842 185.62,176.16 186.247,176.793C186.874,177.426 187.188,178.241 187.188,179.237C187.188,180.186 186.913,181.004 186.36,181.696C185.69,182.543 184.774,182.967 183.614,182.967C182.663,182.967 181.888,182.701 181.286,182.167C180.685,181.633 180.341,180.924 180.255,180.043Z" style="fill:rgb(29,29,30);fill-rule:nonzero;"/>
        </g>
        <g transform="matrix(4.16667,0,0,4.16667,0,0)">
            <path d="M213.411,213.198L214.763,213.083C214.862,213.742 215.093,214.237 215.456,214.568C215.817,214.9 216.257,215.065 216.773,215.065C217.395,215.065 217.919,214.831 218.345,214.365C218.77,213.897 218.981,213.277 218.981,212.505C218.981,211.771 218.778,211.192 218.37,210.767C217.96,210.343 217.421,210.13 216.751,210.13C216.335,210.13 215.962,210.226 215.63,210.415C215.3,210.603 215.038,210.849 214.849,211.15L213.64,210.988L214.659,205.608L219.849,205.608L219.849,206.835L215.681,206.835L215.118,209.654C215.747,209.216 216.405,208.998 217.093,208.998C218.007,208.998 218.776,209.314 219.403,209.949C220.03,210.581 220.345,211.396 220.345,212.392C220.345,213.34 220.069,214.16 219.517,214.85C218.847,215.699 217.931,216.122 216.771,216.122C215.819,216.122 215.042,215.855 214.44,215.322C213.839,214.788 213.497,214.08 213.411,213.198Z" style="fill:rgb(29,29,30);fill-rule:nonzero;"/>
        </g>
        <g transform="matrix(4.16667,0,0,4.16667,0,0)">
            <path d="M222.591,219.499L178.591,219.499C177.767,219.499 177.017,219.164 176.472,218.619C177.016,219.162 177.766,219.499 178.591,219.499L222.591,219.499C224.241,219.499 225.591,218.15 225.591,216.5L225.591,172.5L225.591,216.5C225.591,218.15 224.241,219.499 222.591,219.499ZM225.59,172.443C225.59,172.441 225.59,172.439 225.59,172.438C225.59,172.439 225.59,172.441 225.59,172.443Z" style="fill:rgb(14,116,59);fill-rule:nonzero;"/>
        </g>
        <g transform="matrix(4.16667,0,0,4.16667,0,0)">
            <path d="M222.591,219.499L178.591,219.499C177.766,219.499 177.016,219.162 176.472,218.618L192.834,202.257C193.304,202.407 193.804,202.488 194.323,202.488C196.515,202.488 198.347,201.039 198.971,199.052C199.057,198.784 199.205,198.628 199.379,198.628C199.489,198.628 199.609,198.691 199.731,198.828C199.695,200.455 199.584,203.076 199.272,203.386C198.413,204.246 197.63,204.06 197.061,204.628C196.697,204.992 196.877,205.621 196.877,205.621L204.307,205.621C204.307,205.621 204.486,204.992 204.123,204.628C203.554,204.06 202.771,204.246 201.909,203.386C201.6,203.076 201.485,200.456 201.452,198.828C201.574,198.691 201.694,198.628 201.804,198.628C201.977,198.628 202.125,198.784 202.213,199.052C202.834,201.039 204.669,202.488 206.86,202.488C209.561,202.488 211.751,200.298 211.751,197.597C211.751,194.894 209.561,192.705 206.86,192.705C205.861,192.705 204.935,193.007 204.159,193.521C204.019,193.611 203.875,193.65 203.738,193.65C203.12,193.65 202.654,192.846 203.366,192.294C204.211,191.709 204.865,190.867 205.211,189.881L224.71,170.382C225.239,170.912 225.574,171.637 225.59,172.438C225.59,172.439 225.59,172.441 225.59,172.443C225.591,172.462 225.591,172.481 225.591,172.5L225.591,216.5C225.591,218.15 224.241,219.499 222.591,219.499ZM214.763,213.083L213.411,213.198C213.497,214.08 213.839,214.788 214.44,215.322C215.042,215.855 215.819,216.122 216.771,216.122C217.931,216.122 218.847,215.699 219.517,214.85C220.069,214.16 220.345,213.34 220.345,212.392C220.345,211.396 220.03,210.581 219.403,209.949C218.776,209.314 218.007,208.998 217.093,208.998C216.405,208.998 215.747,209.216 215.118,209.654L215.681,206.835L219.849,206.835L219.849,205.608L214.659,205.608L213.64,210.988L214.849,211.15C215.038,210.849 215.3,210.603 215.63,210.415C215.962,210.226 216.335,210.13 216.751,210.13C217.421,210.13 217.96,210.343 218.37,210.767C218.778,211.192 218.981,211.771 218.981,212.505C218.981,213.277 218.77,213.897 218.345,214.365C217.919,214.831 217.395,215.065 216.773,215.065C216.257,215.065 215.817,214.9 215.456,214.568C215.093,214.237 214.862,213.742 214.763,213.083Z" style="fill:rgb(229,229,229);fill-rule:nonzero;"/>
        </g>
        <g transform="matrix(4.16667,0,0,4.16667,0,0)">
            <path d="M204.307,205.621L196.877,205.621C196.877,205.621 196.697,204.992 197.061,204.628C197.63,204.06 198.413,204.246 199.272,203.386C199.584,203.076 199.695,200.455 199.731,198.828C199.609,198.691 199.489,198.628 199.379,198.628C199.205,198.628 199.057,198.784 198.971,199.052C198.347,201.039 196.515,202.488 194.323,202.488C193.804,202.488 193.304,202.407 192.834,202.257L205.211,189.881C204.865,190.867 204.211,191.709 203.366,192.294C202.654,192.846 203.12,193.65 203.738,193.65C203.875,193.65 204.019,193.611 204.159,193.521C204.935,193.007 205.861,192.705 206.86,192.705C209.561,192.705 211.751,194.894 211.751,197.597C211.751,200.298 209.561,202.488 206.86,202.488C204.669,202.488 202.834,201.039 202.213,199.052C202.125,198.784 201.977,198.628 201.804,198.628C201.694,198.628 201.574,198.691 201.452,198.828C201.485,200.456 201.6,203.076 201.909,203.386C202.771,204.246 203.554,204.06 204.123,204.628C204.486,204.992 204.307,205.621 204.307,205.621Z" style="fill:rgb(25,26,26);fill-rule:nonzero;"/>
        </g>
        <g transform="matrix(4.16667,0,0,4.16667,0,0)">
            <path d="M216.771,216.122C215.819,216.122 215.042,215.855 214.44,215.322C213.839,214.788 213.497,214.08 213.411,213.198L214.763,213.083C214.862,213.742 215.093,214.237 215.456,214.568C215.817,214.9 216.257,215.065 216.773,215.065C217.395,215.065 217.919,214.831 218.345,214.365C218.77,213.897 218.981,213.277 218.981,212.505C218.981,211.771 218.778,211.192 218.37,210.767C217.96,210.343 217.421,210.13 216.751,210.13C216.335,210.13 215.962,210.226 215.63,210.415C215.3,210.603 215.038,210.849 214.849,211.15L213.64,210.988L214.659,205.608L219.849,205.608L219.849,206.835L215.681,206.835L215.118,209.654C215.747,209.216 216.405,208.998 217.093,208.998C218.007,208.998 218.776,209.314 219.403,209.949C220.03,210.581 220.345,211.396 220.345,212.392C220.345,213.34 220.069,214.16 219.517,214.85C218.847,215.699 217.931,216.122 216.771,216.122Z" style="fill:rgb(25,26,26);fill-rule:nonzero;"/>
        </g>
    </g>
</svg>
