<?xml version="1.0" encoding="UTF-8" standalone="no"?>
<!DOCTYPE svg PUBLIC "-//W3C//DTD SVG 1.1//EN" "http://www.w3.org/Graphics/SVG/1.1/DTD/svg11.dtd">
<svg width="100%" height="100%" viewBox="0 0 209 209" version="1.1" xmlns="http://www.w3.org/2000/svg" xmlns:xlink="http://www.w3.org/1999/xlink" xml:space="preserve" xmlns:serif="http://www.serif.com/" style="fill-rule:evenodd;clip-rule:evenodd;stroke-linejoin:round;stroke-miterlimit:1.41421;">
    <g transform="matrix(1,0,0,1,-962.555,-1835.54)">
        <g transform="matrix(4.16667,0,0,4.16667,0,0)">
            <path d="M281.014,487.531C281.014,489.182 279.662,490.531 278.014,490.531L234.013,490.531C232.363,490.531 231.013,489.182 231.013,487.531L231.013,443.53C231.013,441.882 232.363,440.53 234.013,440.53L278.014,440.53C279.662,440.53 281.014,441.882 281.014,443.53L281.014,487.531Z" style="fill:white;fill-rule:nonzero;"/>
        </g>
        <g transform="matrix(4.16667,0,0,4.16667,0,0)">
            <path d="M262.283,463.736C261.282,463.736 260.357,464.039 259.582,464.553C258.807,465.049 257.92,464 258.789,463.324C260.064,462.441 260.906,460.971 260.906,459.301C260.906,456.599 258.717,454.409 256.014,454.409C253.312,454.409 251.123,456.599 251.123,459.301C251.123,460.971 251.961,462.441 253.24,463.324C254.109,464 253.223,465.049 252.447,464.553C251.672,464.039 250.744,463.736 249.746,463.736C247.042,463.736 244.853,465.926 244.853,468.627C244.853,471.33 247.042,473.519 249.746,473.519C251.937,473.519 253.77,472.068 254.393,470.082C254.535,469.646 254.838,469.506 255.154,469.857C255.117,471.486 255.006,474.107 254.695,474.416C253.836,475.277 253.053,475.092 252.482,475.66C252.119,476.021 252.299,476.652 252.299,476.652L259.729,476.652C259.729,476.652 259.907,476.021 259.545,475.66C258.976,475.092 258.193,475.277 257.332,474.416C257.021,474.107 256.907,471.488 256.875,469.857C257.187,469.506 257.492,469.646 257.635,470.082C258.256,472.068 260.092,473.519 262.283,473.519C264.984,473.519 267.174,471.33 267.174,468.627C267.174,465.926 264.984,463.736 262.283,463.736Z" style="fill:rgb(29,29,30);fill-rule:nonzero;"/>
        </g>
        <g transform="matrix(4.16667,0,0,4.16667,0,0)">
            <path d="M235.879,450.679L237.127,450.509C237.161,451.306 237.311,451.851 237.579,452.144C237.845,452.438 238.214,452.585 238.686,452.585C239.035,452.585 239.334,452.505 239.586,452.345C239.839,452.187 240.013,451.968 240.109,451.694C240.204,451.421 240.251,450.983 240.251,450.384L240.251,443.165L241.642,443.165L241.642,450.306C241.642,451.183 241.537,451.862 241.324,452.343C241.112,452.825 240.776,453.19 240.316,453.444C239.856,453.696 239.316,453.823 238.697,453.823C237.777,453.823 237.072,453.56 236.584,453.032C236.095,452.505 235.861,451.72 235.879,450.679Z" style="fill:rgb(29,29,30);fill-rule:nonzero;"/>
        </g>
        <g transform="matrix(4.16667,0,0,4.16667,0,0)">
            <path d="M268.963,483.764L270.211,483.592C270.244,484.389 270.394,484.934 270.662,485.227C270.928,485.522 271.297,485.668 271.769,485.668C272.117,485.668 272.418,485.588 272.67,485.43C272.922,485.27 273.096,485.053 273.191,484.777C273.287,484.504 273.334,484.068 273.334,483.467L273.334,476.248L274.725,476.248L274.725,483.389C274.725,484.266 274.619,484.945 274.406,485.428C274.195,485.908 273.859,486.275 273.398,486.527C272.939,486.779 272.398,486.906 271.779,486.906C270.859,486.906 270.154,486.643 269.668,486.115C269.178,485.588 268.943,484.805 268.963,483.764Z" style="fill:rgb(29,29,30);fill-rule:nonzero;"/>
        </g>
        <g transform="matrix(4.16667,0,0,4.16667,0,0)">
            <path d="M278.014,490.531L234.013,490.531C233.188,490.531 232.438,490.195 231.894,489.65C232.438,490.194 233.188,490.531 234.013,490.531L278.014,490.531C279.662,490.531 281.014,489.182 281.014,487.531L281.014,443.53L281.014,487.531C281.014,489.182 279.662,490.531 278.014,490.531ZM281.012,443.433C281.009,443.334 281.001,443.236 280.988,443.139C281.001,443.236 281.009,443.334 281.012,443.433Z" style="fill:rgb(14,116,59);fill-rule:nonzero;"/>
        </g>
        <g transform="matrix(4.16667,0,0,4.16667,0,0)">
            <path d="M278.014,490.531L234.013,490.531C233.188,490.531 232.438,490.194 231.894,489.65L248.256,473.289C248.725,473.439 249.226,473.519 249.746,473.519C251.937,473.519 253.77,472.068 254.393,470.082C254.48,469.815 254.627,469.659 254.801,469.659C254.911,469.659 255.032,469.721 255.154,469.857C255.117,471.486 255.006,474.107 254.695,474.416C253.836,475.277 253.053,475.092 252.482,475.66C252.119,476.021 252.299,476.652 252.299,476.652L259.729,476.652C259.729,476.652 259.907,476.021 259.545,475.66C258.976,475.092 258.193,475.277 257.332,474.416C257.021,474.107 256.907,471.488 256.875,469.857C256.996,469.721 257.116,469.659 257.225,469.659C257.398,469.659 257.547,469.815 257.635,470.082C258.256,472.068 260.092,473.519 262.283,473.519C264.984,473.519 267.174,471.33 267.174,468.627C267.174,465.926 264.984,463.736 262.283,463.736C261.282,463.736 260.357,464.039 259.582,464.553C259.441,464.642 259.298,464.682 259.161,464.682C258.543,464.682 258.077,463.878 258.789,463.324C259.633,462.74 260.288,461.897 260.634,460.91L280.131,441.413C280.588,441.869 280.9,442.47 280.988,443.139C281.001,443.236 281.009,443.334 281.012,443.433C281.013,443.466 281.014,443.498 281.014,443.53L281.014,487.531C281.014,489.182 279.662,490.531 278.014,490.531ZM270.211,483.592L268.963,483.764C268.943,484.805 269.178,485.588 269.668,486.115C270.154,486.643 270.859,486.906 271.779,486.906C272.398,486.906 272.939,486.779 273.398,486.527C273.859,486.275 274.195,485.908 274.406,485.428C274.619,484.945 274.725,484.266 274.725,483.389L274.725,476.248L273.334,476.248L273.334,483.467C273.334,484.068 273.287,484.504 273.191,484.777C273.096,485.053 272.922,485.27 272.67,485.43C272.418,485.588 272.117,485.668 271.769,485.668C271.297,485.668 270.928,485.522 270.662,485.227C270.394,484.934 270.244,484.389 270.211,483.592Z" style="fill:rgb(229,229,229);fill-rule:nonzero;"/>
        </g>
        <g transform="matrix(4.16667,0,0,4.16667,0,0)">
            <path d="M259.729,476.652L252.299,476.652C252.299,476.652 252.119,476.021 252.482,475.66C253.053,475.092 253.836,475.277 254.695,474.416C255.006,474.107 255.117,471.486 255.154,469.857C255.032,469.721 254.911,469.659 254.801,469.659C254.627,469.659 254.48,469.815 254.393,470.082C253.77,472.068 251.937,473.519 249.746,473.519C249.226,473.519 248.725,473.439 248.256,473.289L260.634,460.91C260.288,461.897 259.633,462.74 258.789,463.324C258.077,463.878 258.543,464.682 259.161,464.682C259.298,464.682 259.441,464.642 259.582,464.553C260.357,464.039 261.282,463.736 262.283,463.736C264.984,463.736 267.174,465.926 267.174,468.627C267.174,471.33 264.984,473.519 262.283,473.519C260.092,473.519 258.256,472.068 257.635,470.082C257.547,469.815 257.398,469.659 257.225,469.659C257.116,469.659 256.996,469.721 256.875,469.857C256.907,471.488 257.021,474.107 257.332,474.416C258.193,475.277 258.976,475.092 259.545,475.66C259.907,476.021 259.729,476.652 259.729,476.652Z" style="fill:rgb(25,26,26);fill-rule:nonzero;"/>
        </g>
        <g transform="matrix(4.16667,0,0,4.16667,0,0)">
            <path d="M271.779,486.906C270.859,486.906 270.154,486.643 269.668,486.115C269.178,485.588 268.943,484.805 268.963,483.764L270.211,483.592C270.244,484.389 270.394,484.934 270.662,485.227C270.928,485.522 271.297,485.668 271.769,485.668C272.117,485.668 272.418,485.588 272.67,485.43C272.922,485.27 273.096,485.053 273.191,484.777C273.287,484.504 273.334,484.068 273.334,483.467L273.334,476.248L274.725,476.248L274.725,483.389C274.725,484.266 274.619,484.945 274.406,485.428C274.195,485.908 273.859,486.275 273.398,486.527C272.939,486.779 272.398,486.906 271.779,486.906Z" style="fill:rgb(25,26,26);fill-rule:nonzero;"/>
        </g>
    </g>
</svg>
