<?xml version="1.0" encoding="UTF-8" standalone="no"?>
<!DOCTYPE svg PUBLIC "-//W3C//DTD SVG 1.1//EN" "http://www.w3.org/Graphics/SVG/1.1/DTD/svg11.dtd">
<svg width="100%" height="100%" viewBox="0 0 209 209" version="1.1" xmlns="http://www.w3.org/2000/svg" xmlns:xlink="http://www.w3.org/1999/xlink" xml:space="preserve" xmlns:serif="http://www.serif.com/" style="fill-rule:evenodd;clip-rule:evenodd;stroke-linejoin:round;stroke-miterlimit:1.41421;">
    <g transform="matrix(1,0,0,1,-499.071,-1609.96)">
        <g transform="matrix(4.16667,0,0,4.16667,0,0)">
            <path d="M169.777,433.389C169.777,435.039 168.427,436.389 166.777,436.389L122.777,436.389C121.126,436.389 119.777,435.039 119.777,433.389L119.777,389.39C119.777,387.74 121.126,386.39 122.777,386.39L166.777,386.39C168.427,386.39 169.777,387.74 169.777,389.39L169.777,433.389Z" style="fill:white;fill-rule:nonzero;"/>
        </g>
        <g transform="matrix(4.16667,0,0,4.16667,0,0)">
            <path d="M144.777,400.23C143.328,400.23 133.673,408.397 133.673,414.268C133.673,417.506 136.142,420.127 139.376,420.127C141.162,420.127 142.835,419.072 143.949,417.697C143.949,418.646 143.878,419.969 143.488,420.361C142.646,421.203 141.88,421.02 141.324,421.576C140.968,421.932 141.144,422.547 141.144,422.547L148.408,422.547C148.408,422.547 148.584,421.932 148.228,421.576C147.671,421.02 146.906,421.203 146.066,420.361C145.673,419.969 145.601,418.643 145.603,417.693C146.72,419.068 148.408,420.121 150.197,420.121C153.433,420.121 155.88,417.506 155.88,414.268C155.88,408.397 146.224,400.23 144.777,400.23Z" style="fill:rgb(29,29,30);fill-rule:nonzero;"/>
        </g>
        <g transform="matrix(4.16667,0,0,4.16667,0,0)">
            <path d="M130.328,392.5C130.328,391.761 130.132,391.174 129.744,390.74C129.353,390.306 128.88,390.089 128.328,390.089C127.753,390.089 127.257,390.323 126.835,390.79C126.414,391.258 126.205,391.863 126.205,392.607C126.205,393.274 126.404,393.817 126.804,394.235C127.205,394.651 127.699,394.86 128.291,394.86C128.884,394.86 129.373,394.651 129.755,394.235C130.138,393.817 130.328,393.239 130.328,392.5ZM125.072,397.128L126.308,397.014C126.414,397.595 126.613,398.016 126.908,398.277C127.203,398.54 127.58,398.671 128.041,398.671C128.435,398.671 128.783,398.58 129.08,398.398C129.378,398.218 129.623,397.976 129.812,397.672C130,397.369 130.158,396.96 130.287,396.445C130.414,395.931 130.478,395.406 130.478,394.873C130.478,394.815 130.476,394.729 130.472,394.615C130.214,395.025 129.863,395.357 129.419,395.612C128.974,395.867 128.494,395.994 127.976,395.994C127.109,395.994 126.378,395.68 125.779,395.051C125.179,394.421 124.88,393.592 124.88,392.562C124.88,391.498 125.193,390.644 125.818,389.995C126.443,389.347 127.228,389.022 128.169,389.022C128.849,389.022 129.47,389.206 130.035,389.572C130.597,389.94 131.024,390.463 131.318,391.143C131.611,391.821 131.757,392.805 131.757,394.092C131.757,395.433 131.613,396.499 131.322,397.292C131.031,398.087 130.599,398.69 130.026,399.105C129.453,399.521 128.781,399.728 128.011,399.728C127.193,399.728 126.523,399.5 126.005,399.046C125.488,398.591 125.175,397.951 125.072,397.128Z" style="fill:rgb(29,29,30);fill-rule:nonzero;"/>
        </g>
        <g transform="matrix(4.16667,0,0,4.16667,0,0)">
            <path d="M163.421,425.594C163.421,424.853 163.226,424.268 162.837,423.834C162.447,423.399 161.974,423.183 161.421,423.183C160.847,423.183 160.351,423.417 159.929,423.884C159.507,424.352 159.298,424.957 159.298,425.701C159.298,426.368 159.498,426.91 159.898,427.328C160.298,427.745 160.792,427.954 161.384,427.954C161.978,427.954 162.466,427.745 162.849,427.328C163.232,426.91 163.421,426.332 163.421,425.594ZM158.166,430.221L159.402,430.107C159.507,430.688 159.706,431.109 160.002,431.371C160.296,431.633 160.673,431.764 161.134,431.764C161.529,431.764 161.876,431.674 162.173,431.492C162.472,431.31 162.716,431.068 162.906,430.766C163.093,430.463 163.251,430.054 163.38,429.539C163.507,429.023 163.572,428.5 163.572,427.967C163.572,427.908 163.57,427.823 163.566,427.709C163.308,428.119 162.957,428.451 162.513,428.705C162.068,428.961 161.587,429.088 161.07,429.088C160.203,429.088 159.472,428.773 158.873,428.145C158.273,427.514 157.974,426.686 157.974,425.655C157.974,424.592 158.287,423.736 158.912,423.089C159.537,422.44 160.322,422.116 161.263,422.116C161.943,422.116 162.564,422.3 163.128,422.666C163.691,423.034 164.119,423.557 164.412,424.236C164.705,424.915 164.851,425.898 164.851,427.186C164.851,428.525 164.707,429.592 164.415,430.386C164.124,431.18 163.693,431.784 163.121,432.199C162.546,432.614 161.875,432.821 161.105,432.821C160.287,432.821 159.617,432.594 159.099,432.139C158.582,431.684 158.269,431.045 158.166,430.221Z" style="fill:rgb(29,29,30);fill-rule:nonzero;"/>
        </g>
        <g transform="matrix(4.16667,0,0,4.16667,0,0)">
            <path d="M166.777,436.389L122.777,436.389C121.951,436.389 121.201,436.053 120.658,435.508C121.202,436.051 121.952,436.389 122.777,436.389L166.777,436.389C168.427,436.389 169.777,435.039 169.777,433.389L169.777,389.39L169.777,433.389C169.777,435.039 168.427,436.389 166.777,436.389ZM169.777,389.344C169.776,389.337 169.776,389.329 169.776,389.321C169.776,389.329 169.776,389.337 169.777,389.344ZM169.775,389.293C169.775,389.29 169.775,389.288 169.775,389.285C169.775,389.288 169.775,389.29 169.775,389.293ZM169.775,389.274C169.775,389.272 169.774,389.269 169.774,389.267C169.774,389.269 169.775,389.272 169.775,389.274ZM169.774,389.255C169.774,389.253 169.774,389.252 169.774,389.25C169.774,389.252 169.774,389.253 169.774,389.255Z" style="fill:rgb(14,116,59);fill-rule:nonzero;"/>
        </g>
        <g transform="matrix(4.16667,0,0,4.16667,0,0)">
            <path d="M166.777,436.389L122.777,436.389C121.952,436.389 121.202,436.051 120.658,435.508L136.702,419.465C137.492,419.888 138.399,420.127 139.376,420.127C141.162,420.127 142.835,419.072 143.949,417.697C143.949,418.646 143.878,419.969 143.488,420.361C142.646,421.203 141.88,421.02 141.324,421.576C140.968,421.932 141.144,422.547 141.144,422.547L148.408,422.547C148.408,422.547 148.584,421.932 148.228,421.576C147.671,421.02 146.906,421.203 146.066,420.361C145.673,419.969 145.601,418.643 145.603,417.693C146.72,419.068 148.408,420.121 150.197,420.121C153.433,420.121 155.88,417.506 155.88,414.268C155.88,411.377 153.54,407.931 150.991,405.176L168.896,387.272C169.408,387.784 169.738,388.48 169.774,389.25L169.774,389.267C169.774,389.269 169.775,389.272 169.775,389.274L169.775,389.293C169.776,389.303 169.776,389.312 169.776,389.321C169.776,389.329 169.776,389.337 169.777,389.344L169.777,433.389C169.777,435.039 168.427,436.389 166.777,436.389ZM159.402,430.107L158.166,430.221C158.269,431.045 158.582,431.684 159.099,432.139C159.617,432.594 160.287,432.821 161.105,432.821C161.875,432.821 162.546,432.614 163.121,432.199C163.693,431.784 164.124,431.18 164.415,430.386C164.707,429.592 164.851,428.525 164.851,427.186C164.851,425.898 164.705,424.915 164.412,424.236C164.119,423.557 163.691,423.034 163.128,422.666C162.564,422.3 161.943,422.116 161.263,422.116C160.322,422.116 159.537,422.44 158.912,423.089C158.287,423.736 157.974,424.592 157.974,425.655C157.974,426.686 158.273,427.514 158.873,428.145C159.472,428.773 160.203,429.088 161.07,429.088C161.587,429.088 162.068,428.961 162.513,428.705C162.957,428.451 163.308,428.119 163.566,427.709C163.57,427.823 163.572,427.908 163.572,427.967C163.572,428.5 163.507,429.023 163.38,429.539C163.251,430.054 163.093,430.463 162.906,430.766C162.716,431.068 162.472,431.31 162.173,431.492C161.876,431.674 161.529,431.764 161.134,431.764C160.673,431.764 160.296,431.633 160.002,431.371C159.706,431.109 159.507,430.688 159.402,430.107Z" style="fill:rgb(229,229,229);fill-rule:nonzero;"/>
        </g>
        <g transform="matrix(4.16667,0,0,4.16667,0,0)">
            <path d="M148.408,422.547L141.144,422.547C141.144,422.547 140.968,421.932 141.324,421.576C141.88,421.02 142.646,421.203 143.488,420.361C143.878,419.969 143.949,418.646 143.949,417.697C142.835,419.072 141.162,420.127 139.376,420.127C138.399,420.127 137.492,419.888 136.702,419.465L150.991,405.176C153.54,407.931 155.88,411.377 155.88,414.268C155.88,417.506 153.433,420.121 150.197,420.121C148.408,420.121 146.72,419.068 145.603,417.693C145.601,418.643 145.673,419.969 146.066,420.361C146.906,421.203 147.671,421.02 148.228,421.576C148.584,421.932 148.408,422.547 148.408,422.547Z" style="fill:rgb(25,26,26);fill-rule:nonzero;"/>
        </g>
        <g transform="matrix(4.16667,0,0,4.16667,0,0)">
            <path d="M161.384,427.954C160.792,427.954 160.298,427.745 159.898,427.328C159.498,426.91 159.298,426.368 159.298,425.701C159.298,424.957 159.507,424.352 159.929,423.884C160.351,423.417 160.847,423.183 161.421,423.183C161.974,423.183 162.447,423.399 162.837,423.834C163.226,424.268 163.421,424.853 163.421,425.594C163.421,426.332 163.232,426.91 162.849,427.328C162.466,427.745 161.978,427.954 161.384,427.954Z" style="fill:rgb(229,229,229);fill-rule:nonzero;"/>
        </g>
        <g transform="matrix(4.16667,0,0,4.16667,0,0)">
            <path d="M161.105,432.821C160.287,432.821 159.617,432.594 159.099,432.139C158.582,431.684 158.269,431.045 158.166,430.221L159.402,430.107C159.507,430.688 159.706,431.109 160.002,431.371C160.296,431.633 160.673,431.764 161.134,431.764C161.529,431.764 161.876,431.674 162.173,431.492C162.472,431.31 162.716,431.068 162.906,430.766C163.093,430.463 163.251,430.054 163.38,429.539C163.507,429.023 163.572,428.5 163.572,427.967C163.572,427.908 163.57,427.823 163.566,427.709C163.308,428.119 162.957,428.451 162.513,428.705C162.068,428.961 161.587,429.088 161.07,429.088C160.203,429.088 159.472,428.773 158.873,428.145C158.273,427.514 157.974,426.686 157.974,425.655C157.974,424.592 158.287,423.736 158.912,423.089C159.537,422.44 160.322,422.116 161.263,422.116C161.943,422.116 162.564,422.3 163.128,422.666C163.691,423.034 164.119,423.557 164.412,424.236C164.705,424.915 164.851,425.898 164.851,427.186C164.851,428.525 164.707,429.592 164.415,430.386C164.124,431.18 163.693,431.784 163.121,432.199C162.546,432.614 161.875,432.821 161.105,432.821ZM161.421,423.183C160.847,423.183 160.351,423.417 159.929,423.884C159.507,424.352 159.298,424.957 159.298,425.701C159.298,426.368 159.498,426.91 159.898,427.328C160.298,427.745 160.792,427.954 161.384,427.954C161.978,427.954 162.466,427.745 162.849,427.328C163.232,426.91 163.421,426.332 163.421,425.594C163.421,424.853 163.226,424.268 162.837,423.834C162.447,423.399 161.974,423.183 161.421,423.183Z" style="fill:rgb(25,26,26);fill-rule:nonzero;"/>
        </g>
    </g>
</svg>
