<?xml version="1.0" encoding="UTF-8" standalone="no"?>
<!DOCTYPE svg PUBLIC "-//W3C//DTD SVG 1.1//EN" "http://www.w3.org/Graphics/SVG/1.1/DTD/svg11.dtd">
<svg width="100%" height="100%" viewBox="0 0 1782 313" version="1.1" xmlns="http://www.w3.org/2000/svg" xmlns:xlink="http://www.w3.org/1999/xlink" xml:space="preserve" xmlns:serif="http://www.serif.com/" style="fill-rule:evenodd;clip-rule:evenodd;stroke-linejoin:round;stroke-miterlimit:1.41421;">
    <g transform="matrix(1,0,0,1,-152.663,-624.313)">
        <g transform="matrix(4.16667,0,0,4.16667,0,0)">
            <g transform="matrix(0.24,0,0,0.24,0,0)">
                <path d="M622.609,707.434L679.255,707.434L679.255,665.784L713.409,665.784L713.409,936.513L622.609,936.513L622.609,707.434ZM782.58,936.109L733.405,936.109L733.405,781.163L747.384,781.163L747.384,753.459L767.821,753.459L767.821,723.051L805.251,723.051L805.251,753.459L825.688,753.459L825.688,781.163L837.53,781.163L837.53,846.13L782.58,846.13L782.58,936.109ZM795.467,859.688L858.722,859.688L858.722,936.109L795.467,936.109L795.467,859.688ZM919.98,895.013L933.976,895.013L933.976,781.18L1026.62,781.18L1026.62,748.534L1020.88,748.534C1022.59,723.305 1040.4,702.492 1064.11,696.288L1064.11,679.171L1060.9,679.171C1061.38,672.046 1066.21,666.109 1072.75,663.98L1075.42,624.313L1081.09,624.313L1083.77,664.109C1090.11,666.334 1094.77,672.179 1095.24,679.171L1092.57,679.171L1092.57,696.021C1116.81,701.884 1135.11,722.933 1136.85,748.534L1132.12,748.534L1132.12,781.18L1225.5,781.18L1225.5,895.013L1240.02,895.013L1240.02,900.288L1235.51,900.288L1235.51,914.505L1241.45,914.505L1241.45,895.013L1240.02,895.013L1240.02,780.667L1244.8,778.992L1297.27,760.601L1297.27,727.521L1301.35,725.596L1389.41,684.067L1399.55,679.292L1399.55,681.251L1427.29,697.792L1427.29,899.397L1436.73,899.397L1436.73,913.613L1385.33,913.613L1385.33,701.676L1311.49,736.496L1311.49,755.621L1332.86,748.13L1341.13,745.23L1341.13,745.009L1341.36,745.146L1342.3,744.821L1342.3,745.705L1369.89,762.155L1369.89,898.967L1380.85,898.967L1380.85,913.184L1328.08,913.184L1328.08,764.826L1254.24,790.705L1254.24,914.505L1241.45,914.505L1241.45,933.88L919.98,933.88L919.98,935.892L870.467,935.892L870.467,846.13L855.601,846.13L855.601,681.817L919.98,653.492L919.98,895.013L917.997,895.013L917.997,933.88L919.98,933.88L919.98,895.013ZM335.229,830.611L335.229,729.551L342.484,727.605L526.33,678.346L538.63,675.051L538.63,750.617L549.38,750.617L549.38,679.217L600.9,699.201L600.9,914.776L617.634,914.776L617.634,934.33L519.075,934.33L519.075,700.505L354.779,744.526L354.779,850.542L362.459,858.372L354.779,858.372L354.779,934.976L315.263,934.976L315.263,925.676L335.921,925.676L335.921,858.372L354.779,858.372L354.779,850.542L335.229,830.611ZM431.071,932.959L415.717,932.959L415.717,886.567C420.809,886.447 425.925,886.322 431.071,886.201L431.071,932.959ZM451.921,932.959L436.242,932.959L436.242,886.08C441.438,885.951 446.663,885.83 451.921,885.705L451.921,932.959ZM473.563,932.959L457.534,932.959L457.534,885.572C462.846,885.447 468.18,885.317 473.563,885.192L473.563,932.959ZM410.342,932.959L395.321,932.959L395.321,887.051C400.296,886.934 405.304,886.809 410.342,886.692L410.342,932.959ZM152.663,858.372L205.113,804.896L257.559,751.421L298.45,793.113L298.45,783.263L294.271,783.263L294.271,774.713L325.188,774.713L325.188,783.263L320.642,783.263L320.642,815.738L335.229,830.611L335.229,915.426L315.263,915.426L315.263,925.676L305.088,925.676L305.088,871.476L267.254,871.476L267.254,925.676L178.775,925.676L178.775,858.372L152.663,858.372ZM1712.86,910.688L1728.3,910.688L1728.3,725.284L1822.09,725.284L1822.09,794.134L1912.62,794.134L1912.62,910.688L1933.76,910.688L1933.76,924.784L1704.99,924.784L1704.99,922.163L1712.86,922.163L1712.86,910.688ZM1569.71,893.942L1569.71,923.576L1557.29,923.576L1557.29,893.942L1569.71,893.942ZM1586.44,893.942L1586.44,923.576L1574.01,923.576L1574.01,893.942L1586.44,893.942ZM828.901,922.942L828.901,908.513L819.28,908.513L819.28,922.942L828.901,922.942ZM814.467,922.942L814.467,908.513L804.855,908.513L804.855,922.942L814.467,922.942ZM1514.55,700.78L1514.55,720.046L1456,720.046L1456,734.155L1514.39,734.155L1514.39,752.951L1456,752.951L1456,770.48L1472.17,770.48L1472.17,789.276L1456,789.276L1456,806.801L1472.17,806.801L1472.17,825.601L1456,825.601L1456,843.284L1472.17,843.284L1472.17,862.08L1456,862.08L1456,881.197L1472.17,881.197L1472.17,899.997L1456,899.997L1456,922.163L1436.73,922.163L1436.73,913.613L1438.1,913.613L1438.1,899.397L1436.73,899.397L1436.73,700.78L1514.55,700.78ZM1656.26,922.163L1636.99,922.163L1636.99,781.863L1504.6,781.863L1504.6,922.163L1485.33,922.163L1485.33,762.592L1656.26,762.592L1656.26,922.163ZM1535.4,661.83L1712.86,661.83L1712.86,910.688L1704.99,910.688L1704.99,922.163L1674.32,922.163L1674.32,700.367L1573.94,700.367L1573.94,751.196L1535.4,751.196L1535.4,661.83ZM760.98,919.834L760.98,900.709L748.238,900.709L748.238,919.834L760.98,919.834ZM1317.2,912.684L1262.5,912.684C1262.5,905.559 1262.5,898.413 1262.5,891.263C1270.5,890.738 1278.9,890.188 1287.73,889.609C1297.03,889.005 1306.84,888.363 1317.2,887.684L1317.2,912.684ZM698.367,911.83L698.367,896.347L651.742,896.347L651.742,911.83L698.367,911.83ZM235.592,904.938L235.592,873.655L208.308,873.655L208.308,904.938L235.592,904.938ZM828.901,904.342L828.901,889.917L819.28,889.917L819.28,904.342L828.901,904.342ZM814.467,904.342L814.467,889.917L804.855,889.917L804.855,904.342L814.467,904.342ZM760.98,893.576L760.98,874.451L748.238,874.451L748.238,893.576L760.98,893.576ZM1751.21,892.259L1751.21,881.88L1744.31,881.88L1744.31,892.259L1751.21,892.259ZM1777.81,892.259L1777.81,881.88L1770.91,881.88L1770.91,892.259L1777.81,892.259ZM1791.11,892.259L1791.11,881.88L1784.21,881.88L1784.21,892.259L1791.11,892.259ZM1804.41,892.259L1804.41,881.88L1797.51,881.88L1797.51,892.259L1804.41,892.259ZM1897.97,892.259L1897.97,883.584L1831.02,883.584L1831.02,892.259L1897.97,892.259ZM1764.51,892.259L1764.51,881.88L1757.62,881.88L1757.62,892.259L1764.51,892.259ZM1548.92,871.163L1548.92,886.134C1545.09,886.134 1541.27,886.134 1537.44,886.134L1537.44,871.163L1548.92,871.163ZM1567.97,871.163L1567.97,886.134C1564.14,886.134 1560.32,886.134 1556.5,886.134L1556.5,871.163L1567.97,871.163ZM1625.13,871.163L1625.13,886.134L1613.65,886.134L1613.65,871.163L1625.13,871.163ZM1606.08,871.163L1606.08,886.134C1602.26,886.134 1598.43,886.134 1594.61,886.134L1594.61,871.163L1606.08,871.163ZM1529.86,871.163L1529.86,886.134L1518.39,886.134L1518.39,871.163L1529.86,871.163ZM1587.02,871.163L1587.02,886.134C1583.2,886.134 1579.38,886.134 1575.55,886.134L1575.55,871.163L1587.02,871.163ZM814.467,884.534L814.467,870.105L804.855,870.105L804.855,884.534L814.467,884.534ZM828.901,884.534L828.901,870.105L819.28,870.105L819.28,884.534L828.901,884.534ZM967.397,854.147L947.842,854.147L947.842,882.255L967.397,882.255L967.397,854.147ZM1021.88,854.147L1002.33,854.147L1002.33,882.255L1021.88,882.255L1021.88,854.147ZM1160.64,854.147L1141.09,854.147L1141.09,882.255L1160.64,882.255L1160.64,854.147ZM1187.37,854.147L1167.81,854.147L1167.81,882.255L1187.37,882.255L1187.37,854.147ZM1215.13,854.147L1195.58,854.147L1195.58,882.255L1215.13,882.255L1215.13,854.147ZM994.122,854.147L974.567,854.147L974.567,882.255L994.122,882.255L994.122,854.147ZM1262.5,881.48C1270.5,880.717 1278.9,879.917 1287.73,879.076C1297.03,878.188 1306.84,877.255 1317.2,876.267C1317.2,867.934 1317.2,859.592 1317.2,851.247C1306.84,852.913 1297.03,854.492 1287.73,855.988C1278.9,857.409 1270.5,858.759 1262.5,860.047C1262.5,867.192 1262.5,874.342 1262.5,881.48ZM698.367,878.417L698.367,862.934L651.742,862.934L651.742,878.417L698.367,878.417ZM381.113,852.705C381.146,860.001 381.179,867.276 381.213,874.551C386.863,874.367 392.629,874.18 398.513,873.988C398.484,866.517 398.459,859.038 398.429,851.53C392.538,851.934 386.767,852.33 381.113,852.705ZM407.004,850.947C407.034,858.555 407.054,866.138 407.084,873.709C413.234,873.509 419.521,873.305 425.917,873.097C425.9,865.301 425.88,857.492 425.863,849.655C419.446,850.092 413.167,850.522 407.004,850.947ZM1897.97,873.084L1897.97,864.409L1831.02,864.409L1831.02,873.084L1897.97,873.084ZM435.2,849.03C435.217,856.963 435.234,864.888 435.25,872.797C441.971,872.576 448.825,872.355 455.825,872.13C455.817,863.972 455.805,855.805 455.796,847.622C448.788,848.097 441.93,848.572 435.2,849.03ZM466.017,846.922C466.025,855.226 466.03,863.522 466.038,871.797C473.38,871.559 480.909,871.313 488.6,871.063C488.6,862.513 488.6,853.955 488.6,845.376C480.905,845.905 473.367,846.417 466.017,846.922ZM1751.22,868.859L1751.22,858.484L1744.31,858.484L1744.31,868.859L1751.22,868.859ZM1804.41,868.859L1804.41,858.484L1797.51,858.484L1797.51,868.859L1804.41,868.859ZM1791.11,868.859L1791.11,858.484L1784.21,858.484L1784.21,868.859L1791.11,868.859ZM1777.81,868.859L1777.81,858.484L1770.91,858.484L1770.91,868.859L1777.81,868.859ZM1764.52,868.859L1764.52,858.484L1757.62,858.484L1757.62,868.859L1764.52,868.859ZM760.98,868.376L760.98,849.251L748.238,849.251L748.238,868.376L760.98,868.376ZM1606.08,846.788L1606.08,861.763C1602.26,861.763 1598.43,861.763 1594.61,861.763L1594.61,846.788L1606.08,846.788ZM1567.97,846.788L1567.97,861.763C1564.14,861.763 1560.32,861.763 1556.5,861.763L1556.5,846.788L1567.97,846.788ZM1529.86,846.788L1529.86,861.763L1518.39,861.763L1518.39,846.788L1529.86,846.788ZM1587.02,846.788L1587.02,861.763C1583.2,861.763 1579.38,861.763 1575.55,861.763L1575.55,846.788L1587.02,846.788ZM1548.92,846.788L1548.92,861.763C1545.09,861.763 1541.27,861.763 1537.44,861.763L1537.44,846.788L1548.92,846.788ZM1625.13,846.788L1625.13,861.763L1613.65,861.763L1613.65,846.788L1625.13,846.788ZM1897.97,853.901L1897.97,845.226L1831.02,845.226L1831.02,853.901L1897.97,853.901ZM1262.5,850.697C1270.5,849.18 1278.9,847.588 1287.73,845.917C1297.03,844.155 1306.84,842.297 1317.2,840.338C1317.2,831.992 1317.2,823.651 1317.2,815.305C1306.84,817.946 1297.03,820.446 1287.73,822.817C1278.9,825.067 1270.5,827.209 1262.5,829.251C1262.5,836.397 1262.5,843.547 1262.5,850.697ZM1751.22,845.463L1751.22,835.084L1744.31,835.084L1744.31,845.463L1751.22,845.463ZM1804.41,845.463L1804.41,835.084L1797.51,835.084L1797.51,845.463L1804.41,845.463ZM1791.11,845.463L1791.11,835.084L1784.21,835.084L1784.21,845.463L1791.11,845.463ZM1777.81,845.463L1777.81,835.084L1770.91,835.084L1770.91,845.463L1777.81,845.463ZM1764.52,845.463L1764.52,835.084L1757.62,835.084L1757.62,845.463L1764.52,845.463ZM698.367,845.005L698.367,829.517L651.742,829.517L651.742,845.005L698.367,845.005ZM380.967,821.088C381,828.409 381.034,835.717 381.071,843.017C386.725,842.538 392.5,842.051 398.392,841.555C398.354,834.051 398.325,826.534 398.296,819.013C392.409,819.721 386.629,820.405 380.967,821.088ZM760.98,842.113L760.98,822.992L748.238,822.992L748.238,842.113L760.98,842.113ZM406.896,817.98C406.921,825.601 406.946,833.209 406.971,840.83C413.134,840.309 419.417,839.792 425.825,839.255C425.805,831.405 425.784,823.571 425.767,815.709C419.35,816.48 413.05,817.238 406.896,817.98ZM435.117,814.592C435.134,822.555 435.163,830.505 435.18,838.467C441.909,837.897 448.771,837.322 455.771,836.726C455.759,828.517 455.75,820.321 455.738,812.117C448.721,812.959 441.867,813.784 435.117,814.592ZM465.975,810.884C465.98,819.213 465.988,827.546 466.005,835.863C473.363,835.255 480.9,834.622 488.6,833.976C488.6,825.384 488.6,816.78 488.6,808.176C480.892,809.105 473.346,809.996 465.975,810.884ZM1625.13,820.817L1625.13,835.792L1613.65,835.792L1613.65,820.817L1625.13,820.817ZM1548.92,820.817L1548.92,835.792C1545.09,835.792 1541.27,835.792 1537.44,835.792L1537.44,820.817L1548.92,820.817ZM1587.02,820.817L1587.02,835.792C1583.2,835.792 1579.38,835.792 1575.55,835.792L1575.55,820.817L1587.02,820.817ZM1606.08,820.817L1606.08,835.792C1602.26,835.792 1598.43,835.792 1594.61,835.792L1594.61,820.817L1606.08,820.817ZM1529.86,820.817L1529.86,835.792L1518.39,835.792L1518.39,820.817L1529.86,820.817ZM1567.97,820.817L1567.97,835.792C1564.14,835.792 1560.32,835.792 1556.5,835.792L1556.5,820.817L1567.97,820.817ZM1897.97,834.722L1897.97,826.051L1831.02,826.051L1831.02,834.722L1897.97,834.722ZM908.713,832.901L908.713,821.426L867.338,821.426L867.338,832.901L908.713,832.901ZM257.017,803.076C263.634,803.076 268.996,808.438 268.996,815.055C268.996,821.671 263.634,827.034 257.017,827.034C250.404,827.034 245.038,821.671 245.038,815.055C245.038,808.438 250.404,803.076 257.017,803.076ZM967.397,798.096L947.842,798.096L947.842,826.209L967.397,826.209L967.397,798.096ZM1021.88,798.096L1002.33,798.096L1002.33,826.209L1021.88,826.209L1021.88,798.096ZM1160.64,798.096L1141.09,798.096L1141.09,826.209L1160.64,826.209L1160.64,798.096ZM1187.37,798.096L1167.81,798.096L1167.81,826.209L1187.37,826.209L1187.37,798.096ZM1215.13,798.096L1195.58,798.096L1195.58,826.209L1215.13,826.209L1215.13,798.096ZM994.122,798.096L974.567,798.096L974.567,826.209L994.122,826.209L994.122,798.096ZM1751.22,822.059L1751.22,811.684L1744.31,811.684L1744.31,822.059L1751.22,822.059ZM1764.52,822.059L1764.52,811.684L1757.62,811.684L1757.62,822.059L1764.52,822.059ZM1804.41,822.059L1804.41,811.684L1797.51,811.684L1797.51,822.059L1804.41,822.059ZM1791.11,822.059L1791.11,811.684L1784.21,811.684L1784.21,822.059L1791.11,822.059ZM1777.81,822.059L1777.81,811.684L1770.91,811.684L1770.91,822.059L1777.81,822.059ZM1262.5,820.13C1270.5,817.867 1278.9,815.488 1287.73,812.992C1297.03,810.363 1306.84,807.588 1317.2,804.659C1317.2,796.317 1317.2,787.971 1317.2,779.617C1306.84,783.221 1297.03,786.642 1287.73,789.88C1278.9,792.955 1270.5,795.88 1262.5,798.667C1262.5,805.83 1262.5,812.98 1262.5,820.13ZM760.98,815.859L760.98,796.738L748.238,796.738L748.238,815.859L760.98,815.859ZM782.171,815.859L782.171,796.738L769.426,796.738L769.426,815.859L782.171,815.859ZM824.401,815.859L824.401,796.738L811.655,796.738L811.655,815.859L824.401,815.859ZM803.213,815.859L803.213,796.738L790.467,796.738L790.467,815.859L803.213,815.859ZM1897.97,815.546L1897.97,806.871L1831.02,806.871L1831.02,815.546L1897.97,815.546ZM698.367,811.596L698.367,796.109L651.742,796.109L651.742,811.596L698.367,811.596ZM1625.13,796.446L1625.13,811.421L1613.65,811.421L1613.65,796.446L1625.13,796.446ZM1548.92,796.446L1548.92,811.421C1545.09,811.421 1541.27,811.421 1537.44,811.421L1537.44,796.446L1548.92,796.446ZM1567.97,796.446L1567.97,811.421C1564.14,811.421 1560.32,811.421 1556.5,811.421L1556.5,796.446L1567.97,796.446ZM1587.02,796.446L1587.02,811.421C1583.2,811.421 1579.38,811.421 1575.55,811.421L1575.55,796.446L1587.02,796.446ZM1606.08,796.446L1606.08,811.421C1602.26,811.421 1598.43,811.421 1594.61,811.421L1594.61,796.446L1606.08,796.446ZM1529.86,796.446L1529.86,811.421L1518.39,811.421L1518.39,796.446L1529.86,796.446ZM380.821,788.646C380.854,795.984 380.888,803.313 380.921,810.626C386.584,809.842 392.367,809.059 398.259,808.251C398.229,800.721 398.2,793.18 398.171,785.634C392.267,786.659 386.488,787.663 380.821,788.646ZM908.717,808.146L908.717,796.671L867.338,796.671L867.338,808.146L908.717,808.146ZM406.784,784.142C406.809,791.788 406.834,799.421 406.859,807.067C413.021,806.221 419.321,805.355 425.738,804.476C425.717,796.613 425.696,788.751 425.68,780.88C419.246,781.992 412.946,783.071 406.784,784.142ZM435.046,779.255C435.063,787.238 435.075,795.213 435.096,803.201C441.838,802.271 448.705,801.33 455.725,800.363C455.717,792.13 455.705,783.905 455.696,775.671C448.667,776.892 441.792,778.084 435.046,779.255ZM465.946,773.892C465.95,782.251 465.959,790.609 465.967,798.955C473.342,797.942 480.892,796.917 488.6,795.859C488.6,787.242 488.6,778.609 488.6,769.976C480.871,771.317 473.317,772.626 465.946,773.892ZM1751.22,798.663L1751.22,788.284L1744.31,788.284L1744.31,798.663L1751.22,798.663ZM1777.81,798.663L1777.81,788.284L1770.91,788.284L1770.91,798.663L1777.81,798.663ZM1791.11,798.663L1791.11,788.284L1784.21,788.284L1784.21,798.663L1791.11,798.663ZM1804.41,798.663L1804.41,788.284L1797.51,788.284L1797.51,798.663L1804.41,798.663ZM1764.52,798.663L1764.52,788.284L1757.62,788.284L1757.62,798.663L1764.52,798.663ZM908.717,783.388L908.717,771.913L867.338,771.913L867.338,783.388L908.717,783.388ZM380.671,756.842C380.709,764.201 380.742,771.555 380.775,778.892C386.446,777.826 392.225,776.73 398.134,775.609C398.104,768.067 398.079,760.501 398.05,752.926C392.134,754.255 386.35,755.559 380.671,756.842ZM698.367,778.18L698.367,762.696L651.742,762.696L651.742,778.18L698.367,778.18ZM1751.22,775.267L1751.22,764.888L1744.31,764.888L1744.31,775.267L1751.22,775.267ZM1764.52,775.267L1764.52,764.888L1757.62,764.888L1757.62,775.267L1764.52,775.267ZM1791.11,775.267L1791.11,764.888L1784.21,764.888L1784.21,775.267L1791.11,775.267ZM1804.41,775.267L1804.41,764.888L1797.51,764.888L1797.51,775.267L1804.41,775.267ZM1777.81,775.267L1777.81,764.888L1770.91,764.888L1770.91,775.267L1777.81,775.267ZM406.663,750.984C406.688,758.663 406.713,766.321 406.75,773.98C412.917,772.813 419.213,771.617 425.642,770.401C425.621,762.513 425.605,754.63 425.584,746.717C419.15,748.167 412.846,749.588 406.663,750.984ZM1121.64,757.051L1110.53,757.051L1110.53,773.017L1121.64,773.017L1121.64,757.051ZM1103.58,757.051L1092.48,757.051L1092.48,773.017L1103.58,773.017L1103.58,757.051ZM1086.41,757.051L1075.31,757.051L1075.31,773.017L1086.41,773.017L1086.41,757.051ZM1069.06,757.051L1057.95,757.051L1057.95,773.017L1069.06,773.017L1069.06,757.051ZM1051.01,757.051L1039.9,757.051L1039.9,773.017L1051.01,773.017L1051.01,757.051ZM736.584,769.271L723.026,769.271L723.026,676.78L752.926,678.521L752.926,745.28L736.584,745.28L736.584,769.271ZM434.963,744.605C434.98,752.626 434.992,760.626 435.009,768.626C441.771,767.346 448.65,766.042 455.667,764.713C455.659,756.463 455.65,748.217 455.638,739.938C448.605,741.526 441.717,743.076 434.963,744.605ZM465.913,737.626C465.921,746.026 465.93,754.409 465.934,762.767C473.309,761.371 480.867,759.938 488.6,758.48C488.6,749.846 488.6,741.184 488.6,732.513C480.863,734.255 473.296,735.959 465.913,737.626ZM908.717,758.63L908.717,747.155L867.338,747.155L867.338,758.63L908.717,758.63ZM877.055,644.446L877.055,661.134L847.501,675.738L847.501,757.101L831.855,757.101L831.855,742.496L815.167,742.496L815.167,714.68L789.434,714.68L789.088,691.384L803.342,691.384L803.342,644.446L877.055,644.446ZM1791.11,751.867L1791.11,741.492L1784.21,741.492L1784.21,751.867L1791.11,751.867ZM1804.41,751.867L1804.41,741.492L1797.51,741.492L1797.51,751.867L1804.41,751.867ZM1764.51,751.867L1764.51,741.492L1757.62,741.492L1757.62,751.867L1764.51,751.867ZM1777.81,751.867L1777.81,741.492L1770.91,741.492L1770.91,751.867L1777.81,751.867ZM1751.21,751.867L1751.21,741.492L1744.31,741.492L1744.31,751.867L1751.21,751.867ZM1619.06,750.092L1607.59,750.092C1607.59,745.101 1607.59,740.105 1607.59,735.113C1611.41,735.113 1615.24,735.113 1619.06,735.113L1619.06,750.092ZM1600,750.092L1588.54,750.092C1588.54,745.101 1588.54,740.105 1588.54,735.113C1592.36,735.113 1596.18,735.113 1600,735.113L1600,750.092ZM1657.16,750.092L1645.69,750.092L1645.69,735.113L1657.16,735.113L1657.16,750.092ZM1638.11,750.092L1626.64,750.092C1626.64,745.101 1626.64,740.105 1626.64,735.113C1630.46,735.113 1634.29,735.113 1638.11,735.113L1638.11,750.092ZM698.367,744.771L698.367,729.284L651.742,729.284L651.742,744.771L698.367,744.771ZM908.717,733.871L908.717,722.396L867.338,722.396L867.338,733.871L908.717,733.871ZM1657.16,725.717L1645.69,725.717L1645.69,710.742L1657.16,710.742L1657.16,725.717ZM1638.11,725.717L1626.64,725.717C1626.64,720.726 1626.64,715.734 1626.64,710.742C1630.46,710.742 1634.29,710.742 1638.11,710.742L1638.11,725.717ZM1619.06,725.717L1607.59,725.717C1607.59,720.726 1607.59,715.734 1607.59,710.742C1611.41,710.742 1615.24,710.742 1619.06,710.742L1619.06,725.717ZM1600,725.717L1588.54,725.717C1588.54,720.726 1588.54,715.734 1588.54,710.742C1592.36,710.742 1596.18,710.742 1600,710.742L1600,725.717ZM908.713,709.117L908.713,697.642L867.338,697.642L867.338,709.117L908.713,709.117Z" style="fill:rgb(35,31,32);"/>
            </g>
        </g>
    </g>
</svg>
