<?xml version="1.0" encoding="UTF-8" standalone="no"?>
<!DOCTYPE svg PUBLIC "-//W3C//DTD SVG 1.1//EN" "http://www.w3.org/Graphics/SVG/1.1/DTD/svg11.dtd">
<svg width="100%" height="100%" viewBox="0 0 3000 1500" version="1.1" xmlns="http://www.w3.org/2000/svg" xmlns:xlink="http://www.w3.org/1999/xlink" xml:space="preserve" xmlns:serif="http://www.serif.com/" style="fill-rule:evenodd;clip-rule:evenodd;stroke-linejoin:round;stroke-miterlimit:1.41421;">
    <g transform="matrix(0.633045,0,0,0.748877,-115.938,-315.136)">
        <g transform="matrix(1.70095,0,0,1.43785,167.622,519.23)">
            <text x="144.72px" y="669.908px" style="font-family:'BowlbyOneSC-Regular', 'Bowlby One SC';font-stretch:ultra-condensed;font-size:200px;">CREA<tspan x="725.579px " y="669.908px ">T</tspan>IVE</text>
        </g>
        <g transform="matrix(1.59357,0,0,1.34708,158.499,580.684)">
            <text x="119.011px" y="873.599px" style="font-family:'BowlbyOneSC-Regular', 'Bowlby One SC';font-stretch:ultra-condensed;font-size:200px;">CAMP<tspan x="779.167px " y="873.599px ">A</tspan>IGN</text>
        </g>
        <g transform="matrix(2.82746,0,0,2.74119,-1672.49,-11217.7)">
            <path d="M2234.32,4611.15C2234.32,4795.52 2084.86,4944.98 1900.49,4944.98C1716.12,4944.98 1566.66,4795.52 1566.66,4611.15C1566.66,4426.78 1716.12,4277.32 1900.49,4277.32C2084.86,4277.32 2234.32,4426.78 2234.32,4611.15Z" style="fill:rgb(223,76,155);fill-rule:nonzero;"/>
        </g>
        <g transform="matrix(2.82746,0,0,2.74119,-1672.49,-11217.7)">
            <path d="M1881.12,4794.03C1881.12,4789.45 1875.96,4785.73 1869.59,4785.73L1788.45,4785.73C1782.09,4785.73 1776.93,4789.45 1776.93,4794.03L1757.29,4866.65C1757.29,4871.24 1762.45,4874.95 1768.81,4874.95L1894.11,4874.95C1900.47,4874.95 1905.63,4871.24 1905.63,4866.65L1881.12,4794.03Z" style="fill:rgb(215,215,215);fill-rule:nonzero;"/>
        </g>
        <g transform="matrix(2.82746,0,0,2.74119,-1672.49,-11217.7)">
            <path d="M2128.81,4785.48C2128.81,4791.85 2123.65,4797.01 2117.29,4797.01L1555.49,4797.01C1549.13,4797.01 1543.97,4791.85 1543.97,4785.48L1543.97,4405.19C1543.97,4398.83 1549.13,4393.67 1555.49,4393.67L2117.29,4393.67C2123.65,4393.67 2128.81,4398.83 2128.81,4405.19L2128.81,4785.48Z" style="fill:rgb(244,245,246);fill-rule:nonzero;"/>
        </g>
        <g transform="matrix(2.82746,0,0,2.74119,-1672.49,-11217.7)">
            <rect x="1543.97" y="4415.96" width="584.84" height="324.56" style="fill:rgb(113,112,112);"/>
        </g>
        <g transform="matrix(2.82746,0,0,2.74119,-1672.49,-11217.7)">
            <path d="M1962.09,4868.31C1962.09,4874.67 1956.94,4879.83 1950.57,4879.83L1713.72,4879.83C1707.35,4879.83 1702.19,4874.67 1702.19,4868.31L1702.19,4856.71C1702.19,4850.34 1707.35,4845.19 1713.72,4845.19L1950.57,4845.19C1956.94,4845.19 1962.09,4850.34 1962.09,4856.71L1962.09,4868.31Z" style="fill:rgb(175,175,176);fill-rule:nonzero;"/>
        </g>
        <g transform="matrix(2.82746,0,0,2.74119,-1672.49,-11217.7)">
            <path d="M2121.26,4439.01L1543.97,4439.01L1543.97,4711.71L2128.81,4711.71L2128.81,4558.05L2128.81,4487.34L2128.81,4466.32L2128.81,4439.01L2121.26,4439.01Z" style="fill:rgb(248,248,249);fill-rule:nonzero;"/>
        </g>
        <g transform="matrix(2.82746,0,0,2.74119,-1672.49,-11217.7)">
            <rect x="1543.97" y="4439.01" width="584.84" height="23.64" style="fill:rgb(219,165,42);"/>
        </g>
        <g transform="matrix(2.82746,0,0,2.74119,-1672.49,-11217.7)">
            <path d="M2112.96,4451.05C2112.96,4453.84 2110.69,4456.11 2107.89,4456.11C2105.1,4456.11 2102.83,4453.84 2102.83,4451.05C2102.83,4448.25 2105.1,4445.99 2107.89,4445.99C2110.69,4445.99 2112.96,4448.25 2112.96,4451.05Z" style="fill:rgb(237,238,238);fill-rule:nonzero;"/>
        </g>
        <g transform="matrix(2.82746,0,0,2.74119,-1672.49,-11217.7)">
            <path d="M2093.36,4451.05C2093.36,4453.84 2091.1,4456.11 2088.3,4456.11C2085.51,4456.11 2083.24,4453.84 2083.24,4451.05C2083.24,4448.25 2085.51,4445.99 2088.3,4445.99C2091.1,4445.99 2093.36,4448.25 2093.36,4451.05Z" style="fill:rgb(237,238,238);fill-rule:nonzero;"/>
        </g>
        <g transform="matrix(2.82746,0,0,2.74119,-1672.49,-11217.7)">
            <path d="M2073.77,4451.05C2073.77,4453.84 2071.51,4456.11 2068.71,4456.11C2065.92,4456.11 2063.65,4453.84 2063.65,4451.05C2063.65,4448.25 2065.92,4445.99 2068.71,4445.99C2071.51,4445.99 2073.77,4448.25 2073.77,4451.05Z" style="fill:rgb(237,238,238);fill-rule:nonzero;"/>
        </g>
        <g transform="matrix(2.82746,0,0,2.74119,-1672.49,-11217.7)">
            <path d="M1651.7,4451.05C1651.7,4453.84 1649.43,4456.11 1646.64,4456.11L1579.38,4456.11C1576.58,4456.11 1574.32,4453.84 1574.32,4451.05C1574.32,4448.25 1576.58,4445.99 1579.38,4445.99L1646.64,4445.99C1649.43,4445.99 1651.7,4448.25 1651.7,4451.05Z" style="fill:rgb(237,238,238);fill-rule:nonzero;"/>
        </g>
        <g transform="matrix(2.82746,0,0,2.74119,-1672.49,-11217.7)">
            <rect x="1578.66" y="4480.48" width="524.17" height="70.61" style="fill:rgb(71,9,52);"/>
        </g>
        <g transform="matrix(2.82746,0,0,2.74119,-1672.49,-11217.7)">
            <rect x="2004.94" y="4561.86" width="97.89" height="62.62" style="fill:rgb(177,42,94);"/>
        </g>
        <g transform="matrix(2.82746,0,0,2.74119,-1672.49,-11217.7)">
            <rect x="2004.94" y="4635.42" width="97.89" height="62.62" style="fill:rgb(177,42,94);"/>
        </g>
        <g transform="matrix(2.82746,0,0,2.74119,-1672.49,-11217.7)">
            <rect x="1878.41" y="4561.86" width="97.89" height="62.62" style="fill:rgb(177,42,94);"/>
        </g>
        <g transform="matrix(2.82746,0,0,2.74119,-1672.49,-11217.7)">
            <rect x="1878.41" y="4635.42" width="97.89" height="62.62" style="fill:rgb(177,42,94);"/>
        </g>
        <g transform="matrix(2.82746,0,0,2.74119,-1672.49,-11217.7)">
            <rect x="1751.87" y="4561.86" width="97.9" height="62.62" style="fill:rgb(177,42,94);"/>
        </g>
        <g transform="matrix(2.82746,0,0,2.74119,-1672.49,-11217.7)">
            <rect x="1751.87" y="4635.42" width="97.9" height="62.62" style="fill:rgb(177,42,94);"/>
        </g>
        <g transform="matrix(2.82746,0,0,2.74119,-1672.49,-11217.7)">
            <rect x="1578.66" y="4561.86" width="149.53" height="23.49" style="fill:rgb(176,176,177);"/>
        </g>
        <g transform="matrix(2.82746,0,0,2.74119,-1672.49,-11217.7)">
            <rect x="1578.66" y="4593.01" width="149.53" height="23.49" style="fill:rgb(176,176,177);"/>
        </g>
        <g transform="matrix(2.82746,0,0,2.74119,-1672.49,-11217.7)">
            <rect x="1578.66" y="4624.16" width="149.53" height="23.49" style="fill:rgb(176,176,177);"/>
        </g>
        <g transform="matrix(2.82746,0,0,2.74119,-1672.49,-11217.7)">
            <rect x="1578.66" y="4655.32" width="149.53" height="23.48" style="fill:rgb(176,176,177);"/>
        </g>
        <g transform="matrix(2.82746,0,0,2.74119,-1672.49,-11217.7)">
            <path d="M2284.92,4905.49C2284.92,4914.68 2278.18,4922.14 2269.87,4922.14L1983.99,4922.14C1975.68,4922.14 1968.95,4914.68 1968.95,4905.49L1968.95,4505.84C1968.95,4496.64 1975.68,4489.18 1983.99,4489.18L2269.87,4489.18C2278.18,4489.18 2284.92,4496.64 2284.92,4505.84L2284.92,4905.49Z" style="fill:rgb(254,192,19);fill-rule:nonzero;"/>
        </g>
        <g transform="matrix(2.82746,0,0,2.74119,-1672.49,-11217.7)">
            <path d="M2003.38,4521.27L2003.38,4876.25L2253.22,4876.25L2253.22,4586.78L2155.48,4521.27L2003.38,4521.27Z" style="fill:rgb(248,248,249);fill-rule:nonzero;"/>
        </g>
        <g transform="matrix(2.82746,0,0,2.74119,-1672.49,-11217.7)">
            <path d="M2253.22,4586.78L2155.48,4521.27L2155.48,4586.78C2155.48,4586.78 2174.48,4580.49 2200.46,4580.49C2231.41,4580.49 2253.22,4586.78 2253.22,4586.78Z" style="fill:rgb(219,218,218);fill-rule:nonzero;"/>
        </g>
        <g transform="matrix(2.82746,0,0,2.74119,-1672.49,-11217.7)">
            <path d="M2215.46,4545.19L2033.52,4545.19L2033.52,4497.36L2037.82,4497.36L2037.82,4534.47L2210.29,4534.47L2210.29,4497.36L2215.46,4497.36L2215.46,4545.19ZM2063.67,4497.63C2068.16,4497.63 2071.8,4501.27 2071.8,4505.76C2071.8,4510.25 2068.16,4513.89 2063.67,4513.89C2059.18,4513.89 2055.54,4510.25 2055.54,4505.76C2055.54,4501.27 2059.18,4497.63 2063.67,4497.63ZM2122.01,4457.72C2139.98,4458.48 2145.95,4470.53 2147.88,4477.21L2093.12,4477.21C2095.02,4470.09 2101.33,4456.82 2122.01,4457.72ZM2181.34,4497.63C2185.83,4497.63 2189.47,4501.27 2189.47,4505.76C2189.47,4510.25 2185.83,4513.89 2181.34,4513.89C2176.85,4513.89 2173.21,4510.25 2173.21,4505.76C2173.21,4501.27 2176.85,4497.63 2181.34,4497.63ZM2210.29,4491.69L2210.29,4477.21L2154.16,4477.21C2152.23,4469.46 2145.38,4452.57 2122.27,4451.59C2096.1,4450.48 2088.82,4468.95 2086.89,4477.21L2037.82,4477.21L2037.82,4491.69L2027.85,4491.69L2027.85,4550.85L2221.12,4550.85L2221.12,4491.69L2210.29,4491.69Z" style="fill:rgb(28,28,26);fill-rule:nonzero;"/>
        </g>
        <g transform="matrix(2.82746,0,0,2.74119,-1672.49,-11217.7)">
            <rect x="2068.28" y="4550.85" width="87.2" height="11.43" style="fill:rgb(125,19,21);"/>
        </g>
        <g transform="matrix(2.82746,0,0,2.74119,-1672.49,-11217.7)">
            <rect x="2068.28" y="4566.64" width="87.2" height="4.87" style="fill:rgb(125,19,21);"/>
        </g>
        <g transform="matrix(2.82746,0,0,2.74119,-1672.49,-11217.7)">
            <rect x="2068.28" y="4574.67" width="87.2" height="4.87" style="fill:rgb(125,19,21);"/>
        </g>
        <g transform="matrix(2.82746,0,0,2.74119,-1672.49,-11217.7)">
            <rect x="2085.85" y="4750.11" width="139.85" height="18.34" style="fill:rgb(179,178,179);"/>
        </g>
        <g transform="matrix(2.82746,0,0,2.74119,-1672.49,-11217.7)">
            <rect x="2085.85" y="4773.04" width="139.85" height="6.11" style="fill:rgb(179,178,179);"/>
        </g>
        <g transform="matrix(2.82746,0,0,2.74119,-1672.49,-11217.7)">
            <rect x="2085.85" y="4810.86" width="139.85" height="18.34" style="fill:rgb(179,178,179);"/>
        </g>
        <g transform="matrix(2.82746,0,0,2.74119,-1672.49,-11217.7)">
            <rect x="2085.85" y="4833.78" width="139.85" height="6.12" style="fill:rgb(179,178,179);"/>
        </g>
        <g transform="matrix(2.82746,0,0,2.74119,-1672.49,-11217.7)">
            <path d="M2079.58,4764.25C2079.58,4774.59 2071.19,4782.97 2060.85,4782.97C2050.52,4782.97 2042.13,4774.59 2042.13,4764.25C2042.13,4753.91 2050.52,4745.53 2060.85,4745.53C2071.19,4745.53 2079.58,4753.91 2079.58,4764.25Z" style="fill:rgb(219,218,218);fill-rule:nonzero;"/>
        </g>
        <g transform="matrix(2.82746,0,0,2.74119,-1672.49,-11217.7)">
            <path d="M2079.58,4825.38C2079.58,4835.72 2071.19,4844.1 2060.85,4844.1C2050.52,4844.1 2042.13,4835.72 2042.13,4825.38C2042.13,4815.04 2050.52,4806.66 2060.85,4806.66C2071.19,4806.66 2079.58,4815.04 2079.58,4825.38Z" style="fill:rgb(219,218,218);fill-rule:nonzero;"/>
        </g>
        <g transform="matrix(2.82746,0,0,2.74119,-1672.49,-11217.7)">
            <path d="M2098.63,4730.47C2096.23,4727.57 2090.64,4728.41 2088.23,4730.39L2060.49,4753.41L2048.91,4742.21C2046.25,4739.63 2042.09,4739.61 2039.62,4742.16C2037.15,4744.71 2037.31,4748.87 2039.97,4751.45L2056.04,4767C2058.35,4769.24 2061.77,4769.55 2064.25,4767.94C2064.46,4767.82 2064.66,4767.69 2064.85,4767.53L2096.92,4740.92C2099.32,4738.94 2101.03,4733.38 2098.63,4730.47Z" style="fill:rgb(221,31,41);fill-rule:nonzero;"/>
        </g>
        <g transform="matrix(2.82746,0,0,2.74119,-1672.49,-11217.7)">
            <path d="M2098.63,4792.56C2096.23,4789.66 2090.64,4790.5 2088.23,4792.48L2060.49,4815.5L2048.91,4804.3C2046.25,4801.72 2042.09,4801.7 2039.62,4804.25C2037.15,4806.8 2037.31,4810.96 2039.97,4813.54L2056.04,4829.1C2058.35,4831.33 2061.77,4831.64 2064.25,4830.04C2064.46,4829.91 2064.66,4829.78 2064.85,4829.62L2096.92,4803.01C2099.32,4801.03 2101.03,4795.47 2098.63,4792.56Z" style="fill:rgb(221,31,41);fill-rule:nonzero;"/>
        </g>
        <g transform="matrix(2.82746,0,0,2.74119,-1672.49,-11217.7)">
            <rect x="2155.48" y="4611.53" width="84.59" height="43.88" style="fill:rgb(179,178,179);"/>
        </g>
        <g transform="matrix(2.82746,0,0,2.74119,-1672.49,-11217.7)">
            <rect x="2155.48" y="4661.57" width="84.59" height="9.07" style="fill:rgb(179,178,179);"/>
        </g>
        <g transform="matrix(2.82746,0,0,2.74119,-1672.49,-11217.7)">
            <rect x="2155.48" y="4674.08" width="84.59" height="9.07" style="fill:rgb(179,178,179);"/>
        </g>
        <g transform="matrix(2.82746,0,0,2.74119,-1672.49,-11217.7)">
            <rect x="2155.48" y="4687.14" width="84.59" height="9.06" style="fill:rgb(179,178,179);"/>
        </g>
        <g transform="matrix(2.82746,0,0,2.74119,-1672.49,-11217.7)">
            <path d="M2080.12,4593.21L2080.12,4650.01L2136.92,4650.01C2136.92,4618.64 2111.49,4593.21 2080.12,4593.21Z" style="fill:rgb(74,45,124);fill-rule:nonzero;"/>
        </g>
        <g transform="matrix(2.82746,0,0,2.74119,-1672.49,-11217.7)">
            <path d="M2075.87,4598.61C2044.5,4598.61 2019.07,4624.04 2019.07,4655.41C2019.07,4686.77 2044.5,4712.21 2075.87,4712.21C2092.54,4712.21 2107.53,4705.03 2117.92,4693.6L2075.87,4655.41L2075.87,4598.61Z" style="fill:rgb(125,19,21);fill-rule:nonzero;"/>
        </g>
        <g transform="matrix(2.82746,0,0,2.74119,-1672.49,-11217.7)">
            <path d="M2080.5,4653.48L2122.54,4691.67C2131.71,4681.58 2137.3,4668.18 2137.3,4653.48L2080.5,4653.48Z" style="fill:rgb(195,192,47);fill-rule:nonzero;"/>
        </g>
        <g transform="matrix(2.82746,0,0,2.74119,-1672.49,-11217.7)">
            <path d="M2306.66,4865.8C2306.66,4910.51 2270.41,4946.75 2225.7,4946.75C2180.99,4946.75 2144.75,4910.51 2144.75,4865.8C2144.75,4821.09 2180.99,4784.84 2225.7,4784.84C2270.41,4784.84 2306.66,4821.09 2306.66,4865.8Z" style="fill:rgb(8,140,192);fill-rule:nonzero;"/>
        </g>
        <g transform="matrix(2.82746,0,0,2.74119,-1672.49,-11217.7)">
            <path d="M2217.45,4922.14C2214.66,4922.14 2211.85,4921.24 2209.49,4919.39L2165.86,4885.21C2160.24,4880.8 2159.25,4872.68 2163.65,4867.06C2168.06,4861.44 2176.18,4860.45 2181.8,4864.85L2215.5,4891.25L2269.53,4825.6C2274.07,4820.09 2282.21,4819.3 2287.72,4823.84C2293.24,4828.37 2294.03,4836.52 2289.49,4842.03L2227.44,4917.42C2224.89,4920.52 2221.19,4922.14 2217.45,4922.14Z" style="fill:rgb(248,248,249);fill-rule:nonzero;"/>
        </g>
        <g transform="matrix(2.82746,0,0,2.74119,-1672.49,-11217.7)">
            <path d="M1583.65,4922.85C1580.68,4922.85 1577.87,4921.1 1576.65,4918.2C1573.76,4911.29 1574.19,4904.44 1577.86,4898.91C1581.67,4893.18 1588.62,4889.62 1595.99,4889.62L1596,4889.62C1632.81,4889.63 1678.4,4890.03 1678.85,4890.04C1683.04,4890.07 1686.4,4893.5 1686.37,4897.69C1686.33,4901.85 1682.94,4905.2 1678.79,4905.2L1678.72,4905.2C1678.26,4905.2 1632.74,4904.79 1596,4904.78L1595.99,4904.78C1593.74,4904.78 1591.48,4905.82 1590.49,4907.31C1589.69,4908.51 1589.74,4910.2 1590.64,4912.33C1592.26,4916.19 1590.44,4920.64 1586.58,4922.26C1585.62,4922.66 1584.63,4922.85 1583.65,4922.85Z" style="fill:rgb(43,55,59);fill-rule:nonzero;"/>
        </g>
        <g transform="matrix(2.82746,0,0,2.74119,-1672.49,-11217.7)">
            <path d="M1738.98,4847.06C1735.76,4844.1 1731.78,4841.97 1727.37,4840.97C1725.55,4840.56 1723.67,4840.34 1721.73,4840.34L1719.18,4840.34L1693.67,4840.34L1635.84,4840.34C1621.75,4840.34 1610.33,4851.76 1610.33,4865.85L1610.33,4881.79C1610.33,4895.88 1621.75,4907.3 1635.84,4907.3L1721.73,4907.3C1735.82,4907.3 1747.24,4895.88 1747.24,4881.79L1747.24,4865.85C1747.24,4858.41 1744.06,4851.72 1738.98,4847.06Z" style="fill:rgb(136,191,183);fill-rule:nonzero;"/>
        </g>
        <g transform="matrix(2.82746,0,0,2.74119,-1672.49,-11217.7)">
            <path d="M1655.42,4888.73C1659.11,4892.77 1665.38,4893.05 1669.41,4889.35L1716.02,4846.75C1717.91,4845.01 1718.97,4842.71 1719.18,4840.34L1693.67,4840.34L1656.05,4874.74C1652.01,4878.43 1651.73,4884.69 1655.42,4888.73Z" style="fill:rgb(210,236,237);fill-rule:nonzero;"/>
        </g>
        <g transform="matrix(2.82746,0,0,2.74119,-1672.49,-11217.7)">
            <path d="M1702.76,4871.82C1705.05,4874.33 1708.95,4874.5 1711.46,4872.21L1738.98,4847.06C1735.76,4844.1 1731.78,4841.97 1727.37,4840.97L1703.15,4863.11C1700.64,4865.41 1700.46,4869.31 1702.76,4871.82Z" style="fill:rgb(210,236,237);fill-rule:nonzero;"/>
        </g>
        <g transform="matrix(2.82746,0,0,2.74119,-1672.49,-11217.7)">
            <path d="M1956.98,4922.85C1959.95,4922.85 1962.76,4921.1 1963.97,4918.2C1966.87,4911.29 1966.44,4904.44 1962.77,4898.91C1958.95,4893.18 1952.01,4889.62 1944.63,4889.62C1907.82,4889.63 1862.23,4890.03 1861.77,4890.04C1857.59,4890.07 1854.22,4893.5 1854.26,4897.69C1854.3,4901.85 1857.69,4905.2 1861.84,4905.2L1861.91,4905.2C1862.37,4905.2 1907.89,4904.79 1944.63,4904.78C1946.89,4904.78 1949.15,4905.82 1950.14,4907.31C1950.94,4908.51 1950.89,4910.2 1949.99,4912.33C1948.37,4916.19 1950.19,4920.64 1954.05,4922.26C1955.01,4922.66 1956,4922.85 1956.98,4922.85Z" style="fill:rgb(43,55,59);fill-rule:nonzero;"/>
        </g>
        <g transform="matrix(2.82746,0,0,2.74119,-1672.49,-11217.7)">
            <path d="M1635.94,4848.04C1626.53,4848.04 1618.78,4855.7 1618.67,4865.11L1618.47,4881.05C1618.35,4890.57 1626,4898.42 1635.53,4898.53L1721.63,4899.6C1731.04,4899.6 1738.79,4891.94 1738.9,4882.53L1739.1,4866.6C1739.22,4857.07 1731.57,4849.23 1722.04,4849.11L1635.94,4848.04ZM1721.63,4916.07L1721.21,4916.07L1635.33,4915C1616.72,4914.77 1601.77,4899.45 1602,4880.84L1602.2,4864.9C1602.42,4846.53 1617.56,4831.57 1635.94,4831.57L1636.36,4831.57L1722.24,4832.64C1740.85,4832.87 1755.8,4848.19 1755.57,4866.8L1755.37,4882.74C1755.14,4901.12 1740.01,4916.07 1721.63,4916.07Z" style="fill:rgb(43,55,59);fill-rule:nonzero;"/>
        </g>
        <g transform="matrix(2.82746,0,0,2.74119,-1672.49,-11217.7)">
            <path d="M1923.12,4847.06C1919.9,4844.1 1915.92,4841.97 1911.51,4840.97C1909.69,4840.56 1907.81,4840.34 1905.87,4840.34L1903.33,4840.34L1877.81,4840.34L1819.98,4840.34C1805.89,4840.34 1794.47,4851.76 1794.47,4865.85L1794.47,4881.79C1794.47,4895.88 1805.89,4907.3 1819.98,4907.3L1905.87,4907.3C1919.96,4907.3 1931.38,4895.88 1931.38,4881.79L1931.38,4865.85C1931.38,4858.41 1928.2,4851.72 1923.12,4847.06Z" style="fill:rgb(136,191,183);fill-rule:nonzero;"/>
        </g>
        <g transform="matrix(2.82746,0,0,2.74119,-1672.49,-11217.7)">
            <path d="M1886.9,4871.82C1889.2,4874.33 1893.09,4874.5 1895.61,4872.21L1923.12,4847.06C1919.9,4844.1 1915.92,4841.97 1911.51,4840.97L1887.29,4863.11C1884.78,4865.41 1884.61,4869.31 1886.9,4871.82Z" style="fill:rgb(210,236,237);fill-rule:nonzero;"/>
        </g>
        <g transform="matrix(2.82746,0,0,2.74119,-1672.49,-11217.7)">
            <path d="M1820.08,4848.04C1810.67,4848.04 1802.92,4855.7 1802.81,4865.11L1802.61,4881.05C1802.49,4890.57 1810.15,4898.42 1819.67,4898.53L1905.78,4899.6C1915.18,4899.6 1922.93,4891.94 1923.05,4882.53L1923.24,4866.6C1923.36,4857.07 1915.71,4849.23 1906.18,4849.11L1820.08,4848.04ZM1905.78,4916.07L1905.35,4916.07L1819.47,4915C1800.86,4914.77 1785.91,4899.45 1786.14,4880.84L1786.34,4864.9C1786.57,4846.53 1801.7,4831.57 1820.08,4831.57L1820.5,4831.57L1906.38,4832.64C1924.99,4832.87 1939.94,4848.19 1939.71,4866.8L1939.51,4882.74C1939.29,4901.12 1924.15,4916.07 1905.78,4916.07Z" style="fill:rgb(43,55,59);fill-rule:nonzero;"/>
        </g>
        <g transform="matrix(2.82746,0,0,2.74119,-1672.49,-11217.7)">
            <path d="M1793.32,4882.49C1792.26,4882.49 1791.17,4882.27 1790.13,4881.8C1790.05,4881.77 1780.78,4877.74 1770.23,4877.74C1758.57,4877.74 1753.21,4881 1753.17,4881.03C1749.4,4883.69 1744.3,4882.61 1741.79,4878.63C1739.28,4874.65 1740.3,4869.26 1744.07,4866.61C1744.97,4865.97 1753.37,4860.4 1770.23,4860.4C1784.21,4860.4 1796.03,4865.62 1796.52,4865.84C1800.7,4867.71 1802.65,4872.79 1800.88,4877.2C1799.55,4880.5 1796.52,4882.49 1793.32,4882.49Z" style="fill:rgb(43,55,59);fill-rule:nonzero;"/>
        </g>
        <g transform="matrix(2.82746,0,0,2.74119,-1672.49,-11217.7)">
            <path d="M1797.01,4902.4L1743.73,4902.4C1739.96,4902.4 1736.89,4899.33 1736.89,4895.55C1736.89,4891.77 1739.96,4888.71 1743.73,4888.71L1797.01,4888.71C1800.79,4888.71 1803.86,4891.77 1803.86,4895.55C1803.86,4899.33 1800.79,4902.4 1797.01,4902.4Z" style="fill:rgb(43,55,59);fill-rule:nonzero;"/>
        </g>
        <g transform="matrix(2.82746,0,0,2.74119,-1672.49,-11217.7)">
            <path d="M1915.47,4882.49C1913.54,4882.66 1914.65,4861.08 1910.67,4857.09C1906.69,4853.09 1885.13,4854.16 1885.29,4852.26C1885.43,4850.53 1905.64,4849.16 1909.73,4845.08C1913.82,4841.01 1915.3,4820.79 1917.04,4820.67C1918.93,4820.53 1918.72,4841.37 1922.57,4845.24C1926.42,4849.1 1947.22,4848.82 1947.13,4850.63C1947.05,4852.44 1926.36,4853.41 1922.18,4857.58C1918,4861.75 1917.18,4882.34 1915.47,4882.49Z" style="fill:rgb(246,248,249);fill-rule:nonzero;"/>
        </g>
        <g transform="matrix(2.82746,0,0,2.74119,-1672.49,-11217.7)">
            <path d="M1649.58,4898.63L1585.78,4842.38L1521.98,4898.63L1521.98,4723.39L1649.58,4723.39L1649.58,4898.63Z" style="fill:rgb(21,102,124);fill-rule:nonzero;"/>
        </g>
        <g transform="matrix(2.82746,0,0,2.74119,-1672.49,-11217.7)">
            <path d="M1679.13,4710.26L1666.63,4719.27L1676.83,4730.82L1662.64,4736.82L1669.99,4750.37L1654.82,4753.04L1658.97,4767.88L1643.58,4767.12L1644.34,4782.51L1629.5,4778.36L1626.83,4793.53L1613.29,4786.18L1607.29,4800.37L1595.74,4790.17L1586.72,4802.67L1577.71,4790.17L1566.16,4800.37L1560.16,4786.17L1546.62,4793.53L1543.95,4778.35L1529.1,4782.51L1529.87,4767.11L1514.48,4767.88L1518.63,4753.04L1503.45,4750.37L1510.81,4736.82L1496.62,4730.82L1506.82,4719.27L1494.32,4710.26L1506.82,4701.25L1496.62,4689.7L1510.81,4683.7L1503.45,4670.15L1518.63,4667.48L1514.48,4652.64L1529.87,4653.41L1529.11,4638.01L1543.95,4642.17L1546.62,4626.99L1560.16,4634.34L1566.16,4620.15L1577.71,4630.35L1586.72,4617.85L1595.74,4630.35L1607.29,4620.15L1613.29,4634.35L1626.83,4626.99L1629.5,4642.17L1644.34,4638.01L1643.58,4653.41L1658.97,4652.65L1654.82,4667.48L1669.99,4670.16L1662.64,4683.7L1676.83,4689.7L1666.63,4701.25L1679.13,4710.26Z" style="fill:rgb(254,201,62);fill-rule:nonzero;"/>
        </g>
        <g transform="matrix(2.82746,0,0,2.74119,-1672.49,-11217.7)">
            <path d="M1653.35,4710.26C1653.35,4747.05 1623.52,4776.88 1586.72,4776.88C1549.93,4776.88 1520.1,4747.05 1520.1,4710.26C1520.1,4673.47 1549.93,4643.64 1586.72,4643.64C1623.52,4643.64 1653.35,4673.47 1653.35,4710.26Z" style="fill:rgb(241,90,37);fill-rule:nonzero;"/>
        </g>
        <g transform="matrix(2.82746,0,0,2.74119,-1672.49,-11217.7)">
            <path d="M1642.98,4698.86C1640.65,4699.07 1641.99,4672.99 1637.18,4668.17C1632.37,4663.34 1606.3,4664.63 1606.5,4662.33C1606.67,4660.25 1631.09,4658.59 1636.04,4653.66C1640.98,4648.73 1642.77,4624.3 1644.88,4624.15C1647.16,4623.98 1646.9,4649.17 1651.55,4653.84C1656.21,4658.52 1681.34,4658.17 1681.24,4660.36C1681.14,4662.55 1656.14,4663.72 1651.08,4668.76C1646.03,4673.8 1645.04,4698.68 1642.98,4698.86Z" style="fill:rgb(246,248,249);fill-rule:nonzero;"/>
        </g>
        <g transform="matrix(2.82746,0,0,2.74119,-1672.49,-11217.7)">
            <path d="M2004.8,4352.55C1998.94,4352.55 1994.19,4347.8 1994.19,4341.95L1994.19,4339.29C1994.19,4333.43 1998.94,4328.68 2004.8,4328.68L2049.39,4328.68L2047.26,4325.83C2042.62,4319.75 2032.34,4303.05 2033.1,4289.06C2033.35,4284.42 2041.13,4262.39 2060.04,4286.99C2103.61,4343.7 2124.23,4337.7 2124.23,4337.7C2129.36,4340.12 2133.55,4344.74 2133.55,4349.75L2133.55,4410.17C2133.55,4415.18 2130.71,4416.68 2124.23,4419.24L2093.15,4426.64L2092.95,4426.63C2092.01,4426.95 2091,4427.14 2089.95,4427.14L2063.99,4427.14L2035.95,4427.14L2012.57,4427.14C2006.71,4427.14 2001.96,4422.39 2001.96,4416.53L2001.96,4413.88C2001.96,4408.02 2006.71,4403.27 2012.57,4403.27L2026.63,4403.27L2026.63,4402.28L2004.8,4402.28C1998.94,4402.28 1994.19,4397.53 1994.19,4391.67L1994.19,4389.01C1994.19,4383.16 1998.94,4378.41 2004.8,4378.41L2026.63,4378.41L2026.63,4377.41L2004.8,4377.41C1998.94,4377.41 1994.19,4372.66 1994.19,4366.81L1994.19,4364.15C1994.19,4358.3 1998.94,4353.55 2004.8,4353.55L2026.63,4353.55L2026.63,4352.55L2004.8,4352.55Z" style="fill:rgb(249,213,180);fill-rule:nonzero;"/>
        </g>
        <g transform="matrix(2.82746,0,0,2.74119,-1672.49,-11217.7)">
            <rect x="2124.52" y="4329.07" width="19.42" height="98.07" style="fill:rgb(248,248,249);"/>
        </g>
        <g transform="matrix(2.82746,0,0,2.74119,-1672.49,-11217.7)">
            <rect x="2143.94" y="4316.77" width="115.73" height="122.24" style="fill:rgb(71,9,52);"/>
        </g>
    </g>
</svg>
