<?xml version="1.0" encoding="UTF-8" standalone="no"?>
<!DOCTYPE svg PUBLIC "-//W3C//DTD SVG 1.1//EN" "http://www.w3.org/Graphics/SVG/1.1/DTD/svg11.dtd">
<svg width="100%" height="100%" viewBox="0 0 3000 1500" version="1.1" xmlns="http://www.w3.org/2000/svg" xmlns:xlink="http://www.w3.org/1999/xlink" xml:space="preserve" xmlns:serif="http://www.serif.com/" style="fill-rule:evenodd;clip-rule:evenodd;stroke-linejoin:round;stroke-miterlimit:1.41421;">
    <g transform="matrix(0.633045,0,0,0.748877,-115.938,-315.136)">
        <g transform="matrix(2.15474,0,0,1.82145,-14.5312,248.171)">
            <text x="144.72px" y="669.908px" style="font-family:'BowlbyOneSC-Regular', 'Bowlby One SC';font-stretch:ultra-condensed;font-size:200px;">MOBILE</text>
        </g>
        <g transform="matrix(1.9539,0,0,1.65168,70.2119,364.231)">
            <text x="119.011px" y="873.599px" style="font-family:'BowlbyOneSC-Regular', 'Bowlby One SC';font-stretch:ultra-condensed;font-size:200px;">DEVICES</text>
        </g>
        <g transform="matrix(2.85329,0,0,2.50788,-1834.32,-8042.03)">
            <path d="M2234.32,3772.81C2234.32,3957.18 2084.85,4106.64 1900.49,4106.64C1716.12,4106.64 1566.66,3957.18 1566.66,3772.81C1566.66,3588.44 1716.12,3438.98 1900.49,3438.98C2084.85,3438.98 2234.32,3588.44 2234.32,3772.81Z" style="fill:rgb(247,158,130);fill-rule:nonzero;"/>
        </g>
        <g transform="matrix(2.85329,0,0,2.50788,-1834.32,-8042.03)">
            <path d="M2155.29,3608.33C2153.8,3602.41 2152.11,3596.57 2150.25,3590.81C2131.71,3533.69 2094.74,3484.88 2046.35,3451.39C2002.56,3421.07 1949.42,3403.29 1892.11,3403.29C1835.92,3403.29 1783.73,3420.37 1740.42,3449.62C1687.63,3485.28 1648.07,3539.04 1630.62,3601.99C1624.2,3625.11 1620.76,3649.48 1620.76,3674.65C1620.76,3824.51 1742.25,3946 1892.11,3946C1976.91,3946 2052.61,3907.1 2102.37,3846.18C2140.55,3799.43 2163.47,3739.72 2163.47,3674.65C2163.47,3651.77 2160.62,3629.55 2155.29,3608.33Z" style="fill:rgb(19,74,98);fill-rule:nonzero;"/>
        </g>
        <g transform="matrix(2.85329,0,0,2.50788,-1834.32,-8042.03)">
            <path d="M1681.57,3636.91C1692.2,3664.06 1692.2,3646.35 1711.08,3652.26C1729.97,3658.16 1750.63,3659.93 1766.57,3675.86C1782.51,3691.8 1794.9,3677.05 1794.9,3694.75C1794.9,3712.46 1771.29,3724.27 1771.29,3752.6C1771.29,3780.94 1774.83,3795.1 1814.97,3810.45C1855.11,3825.79 1843.31,3815.17 1843.31,3855.31C1843.31,3895.45 1850.98,3903.12 1858.65,3910.8C1866.33,3918.47 1884.63,3923.78 1884.63,3903.71C1884.63,3883.64 1870.46,3871.84 1884.63,3857.67C1898.79,3843.5 1891.12,3846.45 1912.96,3824.61C1934.8,3802.78 1950.74,3791.94 1961.36,3765.78C1971.99,3739.61 2007.4,3727.81 1961.36,3711.28C1915.32,3694.75 1895.86,3713.85 1876.77,3694.75C1857.68,3675.66 1824.42,3664.06 1816.15,3664.06C1807.89,3664.06 1781.92,3658.16 1768.93,3645.17C1755.95,3632.19 1746.5,3609.75 1734.7,3621.56C1722.89,3633.37 1709.9,3626.28 1709.9,3615.66C1709.9,3605.03 1722.89,3586.14 1727.61,3586.14C1732.33,3586.14 1768.93,3621.56 1805.53,3621.56C1842.13,3621.56 1827.96,3620.38 1827.96,3607.39C1827.96,3594.41 1824.42,3593.23 1861.02,3586.14C1897.61,3579.06 1960.18,3588.51 1960.18,3558.99C1960.18,3529.48 1976.71,3522.39 1944.83,3503.51C1912.96,3484.62 1934.21,3504.69 1904.7,3491.7C1875.18,3478.71 1890.53,3462.19 1911.78,3462.19C1933.03,3462.19 1920.04,3465.73 1944.83,3477.53C1969.63,3489.34 1980.25,3475.17 1967.26,3462.19C1954.28,3449.2 1953.1,3439.76 1920.04,3439.76C1886.99,3439.76 1854.52,3421.46 1836.22,3439.76C1817.92,3458.05 1804.35,3482.26 1777.2,3471.63C1763.5,3466.27 1752.5,3456.11 1740.42,3449.62C1687.63,3485.28 1648.07,3539.04 1630.62,3601.98C1638.02,3605.57 1645.91,3609.19 1653.24,3612.12C1676.85,3621.56 1670.95,3609.75 1681.57,3636.91Z" style="fill:rgb(168,196,56);fill-rule:nonzero;"/>
        </g>
        <g transform="matrix(2.85329,0,0,2.50788,-1834.32,-8042.03)">
            <path d="M2155.29,3608.33C2145.11,3609.91 2127.53,3611.55 2114.83,3606.79C2095.94,3599.71 2099.49,3591.45 2082.96,3591.45C2066.43,3591.45 2055.41,3587.91 2033.38,3609.94C2011.34,3631.98 1977.89,3662.28 2023.93,3685.89C2069.97,3709.5 2064.07,3729.57 2091.22,3718.95C2118.37,3708.32 2132.85,3714.47 2125.46,3721.86C2118.06,3729.26 2101.85,3747.66 2101.85,3771.08C2101.85,3794.5 2100.68,3810.3 2103.03,3826.37C2103.88,3832.21 2102.87,3839.57 2102.37,3846.18C2140.55,3799.43 2163.47,3739.72 2163.47,3674.65C2163.47,3651.77 2160.62,3629.55 2155.29,3608.33Z" style="fill:rgb(168,196,56);fill-rule:nonzero;"/>
        </g>
        <g transform="matrix(2.85329,0,0,2.50788,-1834.32,-8042.03)">
            <path d="M2042.82,3474.57C2033.16,3493.41 2075.88,3484.02 2075.88,3494.64C2075.88,3505.27 2065.25,3504.09 2058.17,3511.17C2051.08,3518.25 2061.71,3525.34 2061.71,3531.24C2061.71,3537.14 2041.64,3537.14 2027.47,3537.14C2013.31,3537.14 2014.49,3553.67 2014.49,3564.29C2014.49,3574.92 2032.32,3583.3 2040.46,3575.16C2048.6,3567.02 2056.99,3561.93 2071.15,3561.93C2085.32,3561.93 2080.63,3576.06 2088.94,3584.36C2097.23,3592.66 2107.75,3580.82 2107.75,3575.16C2107.75,3569.5 2083.55,3561.34 2090.04,3554.85C2096.54,3548.36 2106.57,3563.11 2112.47,3563.11C2118.38,3563.11 2113.17,3573.04 2131.36,3591.24C2141.28,3601.16 2147.05,3596.81 2150.25,3590.81C2131.71,3533.69 2094.74,3484.88 2046.36,3451.39C2043.7,3454.99 2049.12,3462.29 2042.82,3474.57Z" style="fill:rgb(168,196,56);fill-rule:nonzero;"/>
        </g>
        <g transform="matrix(2.85329,0,0,2.50788,-1834.32,-8042.03)">
            <path d="M2249.02,3663.85C2217.36,3663.85 2191.23,3687.5 2187.3,3718.1L2097.59,3718.1C2097.13,3718.1 2096.88,3718.04 2096.77,3718.01C2096.46,3717.55 2096.2,3716.2 2096.24,3715.22C2096.26,3714.97 2096.26,3714.9 2096.26,3714.62L2096.26,3597.29C2096.26,3590.14 2093.09,3585.9 2090.43,3583.6C2084.48,3578.46 2076.5,3578.79 2073.77,3579.09L1950.41,3579.09C1945.99,3579.09 1942.41,3582.67 1942.41,3587.09C1942.41,3591.51 1945.99,3595.09 1950.41,3595.09L2074.26,3595.09C2074.64,3595.09 2074.95,3595.07 2075.34,3595.02C2076.86,3594.83 2079.27,3595.09 2079.97,3595.71C2080.08,3595.81 2080.26,3596.32 2080.26,3597.29L2080.26,3714.37C2080.14,3716.53 2080.18,3723.64 2085.06,3728.92C2087.24,3731.28 2091.18,3734.1 2097.59,3734.1L2187.3,3734.1C2191.23,3764.69 2217.36,3788.34 2249.02,3788.34C2283.4,3788.34 2311.27,3760.47 2311.27,3726.1C2311.27,3691.72 2283.4,3663.85 2249.02,3663.85Z" style="fill:rgb(248,248,249);fill-rule:nonzero;"/>
        </g>
        <g transform="matrix(2.85329,0,0,2.50788,-1834.32,-8042.03)">
            <path d="M2169.78,3822.8C2138.25,3822.8 2112.22,3846.23 2108.11,3876.63L2083.61,3876.63C2077.22,3876.63 2071.66,3878.96 2067.51,3883.38C2058.93,3892.54 2059.29,3907.71 2059.44,3910.52L2059.44,4077.29L1941.44,4077.29C1937.17,4077.29 1934.11,4076.37 1932.33,4074.54C1930.24,4072.39 1930.13,4069.19 1930.13,4068.71C1930.15,4068.53 1930.14,4068.52 1930.14,4068.29L1930.14,3877.29C1930.14,3872.87 1926.56,3869.29 1922.14,3869.29C1917.72,3869.29 1914.14,3872.87 1914.14,3877.29L1914.14,4068.13C1914.08,4070.11 1914.21,4078.64 1920.6,4085.42C1925.51,4090.64 1932.53,4093.29 1941.44,4093.29L2067.44,4093.29C2071.86,4093.29 2075.44,4089.71 2075.44,4085.29L2075.44,3910.29C2075.44,3910.12 2075.43,3909.95 2075.42,3909.77C2075.21,3906.42 2075.85,3897.88 2079.19,3894.32C2079.97,3893.49 2081.12,3892.63 2083.61,3892.63L2108,3892.63C2111.75,3923.42 2137.97,3947.29 2169.78,3947.29C2204.15,3947.29 2232.02,3919.42 2232.02,3885.05C2232.02,3850.67 2204.15,3822.8 2169.78,3822.8Z" style="fill:rgb(248,248,249);fill-rule:nonzero;"/>
        </g>
        <g transform="matrix(2.85329,0,0,2.50788,-1834.32,-8042.03)">
            <path d="M1805.18,3579.29L1661.63,3579.29C1661.17,3579.29 1660.71,3579.33 1660.25,3579.41C1654,3580.5 1642.18,3587.11 1642.18,3604.29L1642.18,3689.29C1642.18,3689.63 1642.2,3689.97 1642.24,3690.3C1642.65,3693.53 1642.3,3697.91 1641.56,3699.62L1587.6,3699.62C1582.78,3670.04 1557.13,3647.46 1526.18,3647.46C1491.8,3647.46 1463.93,3675.33 1463.93,3709.71C1463.93,3744.08 1491.8,3771.95 1526.18,3771.95C1558.56,3771.95 1585.16,3747.22 1588.14,3715.62L1642.18,3715.62C1646.54,3715.62 1650.48,3713.86 1653.3,3710.67C1659.3,3703.86 1658.55,3692.24 1658.18,3688.83L1658.18,3604.29C1658.18,3597.81 1661.18,3595.86 1662.7,3595.29L1805.18,3595.29C1809.6,3595.29 1813.18,3591.71 1813.18,3587.29C1813.18,3582.87 1809.6,3579.29 1805.18,3579.29Z" style="fill:rgb(248,248,249);fill-rule:nonzero;"/>
        </g>
        <g transform="matrix(2.85329,0,0,2.50788,-1834.32,-8042.03)">
            <path d="M1787.28,4005.04C1755.62,4005.04 1729.49,4028.7 1725.56,4059.29L1703.73,4059.29C1700.01,4059.29 1698.38,4058.05 1697.47,4057.12C1694.6,4054.16 1694.09,4048.37 1694.14,4046.62C1694.14,4046.51 1694.14,4046.4 1694.14,4046.29L1694.14,3964.29C1694.14,3963.42 1694,3962.59 1693.75,3961.8C1693.88,3958.39 1693.79,3955.82 1693.73,3954.78L1693.73,3760.16C1693.73,3748.4 1699.58,3744.72 1701.79,3743.75L1813.36,3743.75C1817.78,3743.75 1821.36,3740.16 1821.36,3735.75C1821.36,3731.33 1817.78,3727.75 1813.36,3727.75L1700.43,3727.75C1699.78,3727.75 1699.14,3727.82 1698.51,3727.98C1697.66,3728.19 1677.73,3733.42 1677.73,3760.16L1677.73,3955.01C1677.73,3955.17 1677.74,3955.33 1677.75,3955.48C1678.12,3961.72 1677.21,3976.38 1672.01,3981.89C1670.73,3983.26 1669.36,3983.85 1667.43,3983.85L1616.85,3983.85C1613.62,3952.5 1587.13,3928.05 1554.93,3928.05C1520.55,3928.05 1492.68,3955.92 1492.68,3990.29C1492.68,4024.67 1520.55,4052.54 1554.93,4052.54C1586.06,4052.54 1611.85,4029.69 1616.45,3999.85L1667.43,3999.85C1671.32,3999.85 1674.93,3998.93 1678.14,3997.16L1678.14,4046.16C1678.09,4048.27 1678.13,4060.07 1685.89,4068.16C1690.37,4072.83 1696.54,4075.29 1703.73,4075.29L1725.56,4075.29C1729.49,4105.89 1755.62,4129.54 1787.28,4129.54C1821.66,4129.54 1849.53,4101.67 1849.53,4067.29C1849.53,4032.91 1821.66,4005.04 1787.28,4005.04Z" style="fill:rgb(248,248,249);fill-rule:nonzero;"/>
        </g>
        <g transform="matrix(2.85329,0,0,2.50788,-1834.32,-8042.03)">
            <path d="M2035.3,3970.19C2035.3,3976.82 2031.07,3982.19 2025.85,3982.19L1768.38,3982.19C1763.17,3982.19 1758.94,3976.82 1758.94,3970.19L1758.94,3505.16C1758.94,3498.53 1763.17,3493.15 1768.38,3493.15L2025.85,3493.15C2031.07,3493.15 2035.3,3498.53 2035.3,3505.16L2035.3,3970.19Z" style="fill:rgb(219,218,218);fill-rule:nonzero;"/>
        </g>
        <g transform="matrix(2.85329,0,0,2.50788,-1834.32,-8042.03)">
            <path d="M2019.88,3898.77C2019.88,3904.8 2015.49,3909.69 2010.09,3909.69L1785.04,3909.69C1779.63,3909.69 1775.25,3904.8 1775.25,3898.77L1775.25,3553.42C1775.25,3547.39 1779.63,3542.5 1785.04,3542.5L2010.09,3542.5C2015.49,3542.5 2019.88,3547.39 2019.88,3553.42L2019.88,3898.77Z" style="fill:rgb(87,87,87);fill-rule:nonzero;"/>
        </g>
        <g transform="matrix(2.85329,0,0,2.50788,-1834.32,-8042.03)">
            <path d="M1841.36,3672.23C1855.97,3672.23 1863.48,3680.97 1863.48,3696.27L1863.48,3699.27L1849.28,3699.27L1849.28,3695.31C1849.28,3688.49 1846.55,3685.89 1841.77,3685.89C1836.99,3685.89 1834.26,3688.49 1834.26,3695.31C1834.26,3702.28 1837.26,3707.47 1847.09,3716.07C1859.66,3727.13 1863.62,3735.05 1863.62,3745.98C1863.62,3761.28 1855.97,3770.02 1841.22,3770.02C1826.47,3770.02 1818.83,3761.28 1818.83,3745.98L1818.83,3740.11L1833.03,3740.11L1833.03,3746.94C1833.03,3753.76 1836.03,3756.22 1840.81,3756.22C1845.59,3756.22 1848.6,3753.76 1848.6,3746.94C1848.6,3739.97 1845.59,3734.78 1835.76,3726.18C1823.2,3715.12 1819.23,3707.2 1819.23,3696.27C1819.23,3680.97 1826.75,3672.23 1841.36,3672.23Z" style="fill:rgb(248,248,249);fill-rule:nonzero;"/>
        </g>
        <g transform="matrix(2.85329,0,0,2.50788,-1834.32,-8042.03)">
            <path d="M1887.25,3713.61L1907.87,3713.61L1907.87,3727.27L1887.25,3727.27L1887.25,3755.27L1913.19,3755.27L1913.19,3768.92L1872.22,3768.92L1872.22,3673.33L1913.19,3673.33L1913.19,3686.98L1887.25,3686.98L1887.25,3713.61Z" style="fill:rgb(248,248,249);fill-rule:nonzero;"/>
        </g>
        <g transform="matrix(2.85329,0,0,2.50788,-1834.32,-8042.03)">
            <path d="M1936.27,3746.94C1936.27,3753.76 1939.28,3756.36 1944.06,3756.36C1948.84,3756.36 1951.84,3753.76 1951.84,3746.94L1951.84,3695.31C1951.84,3688.49 1948.84,3685.89 1944.06,3685.89C1939.28,3685.89 1936.27,3688.49 1936.27,3695.31L1936.27,3746.94ZM1921.25,3696.27C1921.25,3680.97 1929.31,3672.23 1944.06,3672.23C1958.81,3672.23 1966.86,3680.97 1966.86,3696.27L1966.86,3745.98C1966.86,3761.28 1958.81,3770.02 1944.06,3770.02C1929.31,3770.02 1921.25,3761.28 1921.25,3745.98L1921.25,3696.27Z" style="fill:rgb(248,248,249);fill-rule:nonzero;"/>
        </g>
        <g transform="matrix(2.85329,0,0,2.50788,-1834.32,-8042.03)">
            <path d="M1572.22,3452.35C1563.63,3452.35 1556.65,3459.33 1556.65,3467.93L1556.65,3491.28C1556.65,3499.88 1563.63,3506.85 1572.22,3506.85L1832.27,3506.85L1832.27,3452.35L1572.22,3452.35Z" style="fill:rgb(237,238,238);fill-rule:nonzero;"/>
        </g>
        <g transform="matrix(2.85329,0,0,2.50788,-1834.32,-8042.03)">
            <path d="M1584.23,3484.66C1585.47,3484.66 1586.38,3484.49 1586.98,3484.17C1587.58,3483.84 1587.88,3483.32 1587.88,3482.6C1587.88,3481.86 1587.58,3481.28 1587,3480.84C1586.41,3480.41 1585.45,3479.92 1584.1,3479.38C1583.45,3479.12 1582.82,3478.85 1582.23,3478.58C1581.63,3478.31 1581.11,3477.99 1580.68,3477.62C1580.24,3477.25 1579.9,3476.8 1579.64,3476.28C1579.38,3475.76 1579.24,3475.12 1579.24,3474.36C1579.24,3472.86 1579.8,3471.67 1580.91,3470.79C1582.01,3469.91 1583.52,3469.48 1585.43,3469.48C1585.91,3469.48 1586.39,3469.5 1586.87,3469.56C1587.35,3469.61 1587.79,3469.68 1588.2,3469.75C1588.62,3469.83 1588.98,3469.91 1589.29,3470C1589.61,3470.08 1589.85,3470.16 1590.03,3470.22L1589.47,3472.83C1589.15,3472.66 1588.64,3472.48 1587.94,3472.29C1587.25,3472.11 1586.41,3472.02 1585.43,3472.02C1584.59,3472.02 1583.85,3472.18 1583.22,3472.52C1582.59,3472.86 1582.28,3473.38 1582.28,3474.1C1582.28,3474.47 1582.34,3474.8 1582.49,3475.08C1582.63,3475.36 1582.84,3475.62 1583.14,3475.84C1583.43,3476.07 1583.79,3476.28 1584.23,3476.48C1584.66,3476.67 1585.18,3476.88 1585.79,3477.1C1586.6,3477.4 1587.31,3477.7 1587.94,3477.99C1588.57,3478.29 1589.11,3478.63 1589.56,3479.02C1590,3479.41 1590.34,3479.88 1590.58,3480.44C1590.82,3480.99 1590.94,3481.67 1590.94,3482.47C1590.94,3484.04 1590.36,3485.22 1589.2,3486.02C1588.04,3486.83 1586.38,3487.23 1584.23,3487.23C1582.73,3487.23 1581.56,3487.1 1580.71,3486.85C1579.86,3486.61 1579.29,3486.41 1578.98,3486.28L1579.54,3483.68C1579.88,3483.81 1580.44,3484 1581.2,3484.26C1581.96,3484.53 1582.97,3484.66 1584.23,3484.66Z" style="fill:rgb(135,135,136);fill-rule:nonzero;"/>
        </g>
        <g transform="matrix(2.85329,0,0,2.50788,-1834.32,-8042.03)">
            <path d="M1605.5,3476.74C1605.52,3475.37 1605.18,3474.25 1604.47,3473.37C1603.77,3472.49 1602.8,3472.05 1601.56,3472.05C1600.86,3472.05 1600.25,3472.18 1599.72,3472.46C1599.19,3472.73 1598.74,3473.08 1598.37,3473.51C1598,3473.95 1597.71,3474.45 1597.5,3475.01C1597.3,3475.58 1597.16,3476.15 1597.1,3476.74L1605.5,3476.74ZM1593.87,3478.4C1593.87,3476.9 1594.09,3475.59 1594.52,3474.48C1594.96,3473.36 1595.53,3472.43 1596.25,3471.69C1596.97,3470.95 1597.79,3470.4 1598.72,3470.03C1599.66,3469.66 1600.62,3469.48 1601.59,3469.48C1603.87,3469.48 1605.62,3470.19 1606.84,3471.61C1608.05,3473.03 1608.66,3475.2 1608.66,3478.11C1608.66,3478.24 1608.66,3478.41 1608.66,3478.61C1608.66,3478.82 1608.65,3479.01 1608.63,3479.18L1597.03,3479.18C1597.16,3480.94 1597.67,3482.28 1598.56,3483.19C1599.45,3484.1 1600.84,3484.56 1602.73,3484.56C1603.8,3484.56 1604.69,3484.47 1605.42,3484.28C1606.15,3484.1 1606.7,3483.92 1607.07,3483.74L1607.49,3486.28C1607.12,3486.48 1606.47,3486.69 1605.55,3486.9C1604.63,3487.12 1603.58,3487.23 1602.41,3487.23C1600.93,3487.23 1599.65,3487.01 1598.58,3486.56C1597.5,3486.12 1596.62,3485.5 1595.92,3484.72C1595.23,3483.94 1594.71,3483.01 1594.38,3481.94C1594.04,3480.86 1593.87,3479.68 1593.87,3478.4Z" style="fill:rgb(135,135,136);fill-rule:nonzero;"/>
        </g>
        <g transform="matrix(2.85329,0,0,2.50788,-1834.32,-8042.03)">
            <path d="M1618.76,3484.66C1619.48,3484.66 1620.11,3484.64 1620.67,3484.61C1621.22,3484.57 1621.68,3484.51 1622.05,3484.43L1622.05,3479.38C1621.83,3479.27 1621.48,3479.18 1620.99,3479.1C1620.5,3479.03 1619.91,3478.99 1619.22,3478.99C1618.76,3478.99 1618.28,3479.02 1617.77,3479.08C1617.26,3479.15 1616.79,3479.29 1616.37,3479.49C1615.94,3479.7 1615.59,3479.98 1615.31,3480.34C1615.02,3480.7 1614.88,3481.17 1614.88,3481.76C1614.88,3482.84 1615.23,3483.6 1615.93,3484.02C1616.62,3484.44 1617.56,3484.66 1618.76,3484.66ZM1618.5,3469.48C1619.71,3469.48 1620.74,3469.63 1621.58,3469.95C1622.41,3470.26 1623.09,3470.71 1623.6,3471.28C1624.11,3471.86 1624.47,3472.54 1624.69,3473.33C1624.91,3474.13 1625.01,3475 1625.01,3475.96L1625.01,3486.55C1624.75,3486.59 1624.39,3486.65 1623.92,3486.72C1623.46,3486.8 1622.93,3486.87 1622.34,3486.94C1621.76,3487 1621.12,3487.06 1620.44,3487.12C1619.75,3487.17 1619.07,3487.2 1618.4,3487.2C1617.45,3487.2 1616.57,3487.1 1615.76,3486.9C1614.96,3486.71 1614.26,3486.4 1613.68,3485.98C1613.09,3485.55 1612.64,3484.99 1612.31,3484.3C1611.98,3483.6 1611.82,3482.77 1611.82,3481.79C1611.82,3480.86 1612.01,3480.05 1612.39,3479.38C1612.77,3478.71 1613.29,3478.16 1613.94,3477.75C1614.59,3477.34 1615.35,3477.03 1616.22,3476.84C1617.09,3476.64 1618,3476.54 1618.96,3476.54C1619.26,3476.54 1619.57,3476.56 1619.9,3476.59C1620.23,3476.62 1620.54,3476.67 1620.83,3476.72C1621.12,3476.78 1621.38,3476.83 1621.59,3476.87C1621.81,3476.91 1621.96,3476.95 1622.05,3476.97L1622.05,3476.12C1622.05,3475.62 1622,3475.13 1621.89,3474.64C1621.78,3474.15 1621.58,3473.72 1621.3,3473.33C1621.02,3472.96 1620.63,3472.65 1620.14,3472.42C1619.66,3472.2 1619.02,3472.08 1618.24,3472.08C1617.24,3472.08 1616.37,3472.15 1615.62,3472.29C1614.87,3472.43 1614.31,3472.58 1613.94,3472.73L1613.58,3470.22C1613.97,3470.05 1614.62,3469.88 1615.54,3469.72C1616.45,3469.56 1617.43,3469.48 1618.5,3469.48Z" style="fill:rgb(135,135,136);fill-rule:nonzero;"/>
        </g>
        <g transform="matrix(2.85329,0,0,2.50788,-1834.32,-8042.03)">
            <path d="M1636.29,3469.54C1636.55,3469.54 1636.84,3469.56 1637.18,3469.59C1637.52,3469.62 1637.85,3469.66 1638.18,3469.72C1638.5,3469.77 1638.8,3469.83 1639.07,3469.88C1639.34,3469.94 1639.54,3469.99 1639.67,3470.03L1639.15,3472.67C1638.91,3472.58 1638.52,3472.48 1637.96,3472.36C1637.41,3472.24 1636.7,3472.18 1635.83,3472.18C1635.26,3472.18 1634.71,3472.24 1634.15,3472.36C1633.6,3472.48 1633.23,3472.56 1633.06,3472.6L1633.06,3486.84L1630.03,3486.84L1630.03,3470.62C1630.75,3470.35 1631.64,3470.11 1632.7,3469.88C1633.77,3469.65 1634.96,3469.54 1636.29,3469.54Z" style="fill:rgb(135,135,136);fill-rule:nonzero;"/>
        </g>
        <g transform="matrix(2.85329,0,0,2.50788,-1834.32,-8042.03)">
            <path d="M1649.97,3487.23C1648.6,3487.23 1647.4,3487.01 1646.37,3486.58C1645.34,3486.14 1644.47,3485.54 1643.76,3484.75C1643.06,3483.97 1642.53,3483.04 1642.18,3481.97C1641.83,3480.89 1641.66,3479.7 1641.66,3478.4C1641.66,3477.1 1641.85,3475.9 1642.23,3474.82C1642.61,3473.73 1643.15,3472.79 1643.84,3472C1644.54,3471.21 1645.39,3470.59 1646.4,3470.14C1647.41,3469.7 1648.54,3469.48 1649.77,3469.48C1650.53,3469.48 1651.29,3469.54 1652.05,3469.67C1652.81,3469.8 1653.54,3470.01 1654.24,3470.29L1653.55,3472.86C1653.1,3472.65 1652.57,3472.47 1651.97,3472.34C1651.37,3472.21 1650.74,3472.15 1650.07,3472.15C1648.37,3472.15 1647.07,3472.68 1646.17,3473.74C1645.27,3474.81 1644.82,3476.36 1644.82,3478.4C1644.82,3479.31 1644.92,3480.15 1645.13,3480.91C1645.34,3481.67 1645.66,3482.32 1646.11,3482.86C1646.55,3483.41 1647.12,3483.82 1647.82,3484.12C1648.51,3484.41 1649.36,3484.56 1650.36,3484.56C1651.16,3484.56 1651.89,3484.48 1652.54,3484.33C1653.19,3484.18 1653.7,3484.01 1654.07,3483.84L1654.5,3486.38C1654.32,3486.49 1654.07,3486.59 1653.75,3486.69C1653.42,3486.79 1653.05,3486.88 1652.64,3486.95C1652.23,3487.03 1651.79,3487.09 1651.32,3487.15C1650.85,3487.2 1650.4,3487.23 1649.97,3487.23Z" style="fill:rgb(135,135,136);fill-rule:nonzero;"/>
        </g>
        <g transform="matrix(2.85329,0,0,2.50788,-1834.32,-8042.03)">
            <path d="M1657.75,3486.84L1657.75,3462.08L1660.78,3461.56L1660.78,3470.22C1661.35,3470.01 1661.95,3469.84 1662.59,3469.72C1663.23,3469.6 1663.87,3469.54 1664.5,3469.54C1665.84,3469.54 1666.96,3469.73 1667.85,3470.11C1668.74,3470.49 1669.45,3471.02 1669.99,3471.71C1670.52,3472.39 1670.89,3473.21 1671.11,3474.16C1671.33,3475.12 1671.44,3476.17 1671.44,3477.32L1671.44,3486.84L1668.41,3486.84L1668.41,3477.98C1668.41,3476.94 1668.33,3476.05 1668.19,3475.31C1668.05,3474.57 1667.82,3473.97 1667.49,3473.51C1667.17,3473.06 1666.73,3472.73 1666.19,3472.52C1665.65,3472.31 1664.97,3472.21 1664.17,3472.21C1663.85,3472.21 1663.51,3472.23 1663.16,3472.28C1662.81,3472.32 1662.48,3472.37 1662.17,3472.42C1661.85,3472.48 1661.57,3472.54 1661.32,3472.6C1661.07,3472.67 1660.89,3472.72 1660.78,3472.77L1660.78,3486.84L1657.75,3486.84Z" style="fill:rgb(135,135,136);fill-rule:nonzero;"/>
        </g>
        <g transform="matrix(2.85329,0,0,2.50788,-1834.32,-8042.03)">
            <path d="M1679.94,3485.08C1679.94,3485.67 1679.74,3486.18 1679.35,3486.61C1678.96,3487.04 1678.43,3487.26 1677.76,3487.26C1677.08,3487.26 1676.55,3487.04 1676.16,3486.61C1675.77,3486.18 1675.57,3485.67 1675.57,3485.08C1675.57,3484.49 1675.77,3483.98 1676.16,3483.55C1676.55,3483.11 1677.08,3482.9 1677.76,3482.9C1678.43,3482.9 1678.96,3483.11 1679.35,3483.55C1679.74,3483.98 1679.94,3484.49 1679.94,3485.08Z" style="fill:rgb(135,135,136);fill-rule:nonzero;"/>
        </g>
        <g transform="matrix(2.85329,0,0,2.50788,-1834.32,-8042.03)">
            <path d="M1687.95,3485.08C1687.95,3485.67 1687.76,3486.18 1687.37,3486.61C1686.97,3487.04 1686.44,3487.26 1685.77,3487.26C1685.1,3487.26 1684.56,3487.04 1684.17,3486.61C1683.78,3486.18 1683.59,3485.67 1683.59,3485.08C1683.59,3484.49 1683.78,3483.98 1684.17,3483.55C1684.56,3483.11 1685.1,3482.9 1685.77,3482.9C1686.44,3482.9 1686.97,3483.11 1687.37,3483.55C1687.76,3483.98 1687.95,3484.49 1687.95,3485.08Z" style="fill:rgb(135,135,136);fill-rule:nonzero;"/>
        </g>
        <g transform="matrix(2.85329,0,0,2.50788,-1834.32,-8042.03)">
            <path d="M1695.96,3485.08C1695.96,3485.67 1695.77,3486.18 1695.38,3486.61C1694.99,3487.04 1694.46,3487.26 1693.78,3487.26C1693.11,3487.26 1692.58,3487.04 1692.19,3486.61C1691.79,3486.18 1691.6,3485.67 1691.6,3485.08C1691.6,3484.49 1691.79,3483.98 1692.19,3483.55C1692.58,3483.11 1693.11,3482.9 1693.78,3482.9C1694.46,3482.9 1694.99,3483.11 1695.38,3483.55C1695.77,3483.98 1695.96,3484.49 1695.96,3485.08Z" style="fill:rgb(135,135,136);fill-rule:nonzero;"/>
        </g>
        <g transform="matrix(2.85329,0,0,2.50788,-1834.32,-8042.03)">
            <path d="M1906.01,3491.28L1906.01,3467.93C1906.01,3459.33 1899.04,3452.35 1890.44,3452.35L1832.27,3452.35L1832.27,3506.85L1890.44,3506.85C1899.04,3506.85 1906.01,3499.88 1906.01,3491.28Z" style="fill:rgb(133,206,188);fill-rule:nonzero;"/>
        </g>
        <g transform="matrix(2.85329,0,0,2.50788,-1834.32,-8042.03)">
            <path d="M1852.49,3476.88C1848.9,3472.93 1849.19,3466.81 1853.14,3463.21C1857.1,3459.62 1863.22,3459.91 1866.81,3463.86C1870.41,3467.82 1870.11,3473.94 1866.16,3477.53C1862.21,3481.13 1856.09,3480.83 1852.49,3476.88ZM1869.66,3461.47C1864.63,3455.94 1856.07,3455.53 1850.54,3460.56C1845.01,3465.59 1844.6,3474.15 1849.63,3479.68C1854.14,3484.65 1861.5,3485.48 1866.97,3481.96L1869.99,3485.29L1868.62,3486.54L1880.19,3499.02C1881.58,3500.56 1883.88,3500.74 1885.32,3499.43C1886.77,3498.12 1886.8,3495.82 1885.41,3494.28L1873.83,3481.8L1872.74,3482.79L1869.78,3479.54C1874.31,3474.44 1874.35,3466.64 1869.66,3461.47Z" style="fill:rgb(244,245,246);fill-rule:nonzero;"/>
        </g>
        <g transform="matrix(2.85329,0,0,2.50788,-1834.32,-8042.03)">
            <rect x="1486.92" y="3651.77" width="24.02" height="78.41" style="fill:rgb(133,206,188);"/>
        </g>
        <g transform="matrix(2.85329,0,0,2.50788,-1834.32,-8042.03)">
            <rect x="1515.17" y="3669.78" width="24.02" height="60.4" style="fill:rgb(18,115,125);"/>
        </g>
        <g transform="matrix(2.85329,0,0,2.50788,-1834.32,-8042.03)">
            <rect x="1543.43" y="3687.44" width="24.01" height="42.74" style="fill:rgb(12,32,42);"/>
        </g>
        <g transform="matrix(2.85329,0,0,2.50788,-1834.32,-8042.03)">
            <path d="M1591.81,3741.12L1471.03,3741.12L1471.03,3634.94L1475.97,3634.94L1475.97,3736.18L1591.81,3736.18L1591.81,3741.12Z" style="fill:rgb(60,60,59);fill-rule:nonzero;"/>
        </g>
        <g transform="matrix(2.85329,0,0,2.50788,-1834.32,-8042.03)">
            <path d="M1530.2,3940.08C1540.6,3940.08 1549.83,3945.07 1555.63,3952.79L1580.91,3932.06C1569.11,3917.04 1550.78,3907.4 1530.2,3907.4C1522.63,3907.4 1515.37,3908.7 1508.62,3911.1L1516.7,3943.09C1520.8,3941.16 1525.37,3940.08 1530.2,3940.08Z" style="fill:rgb(254,203,59);fill-rule:nonzero;"/>
        </g>
        <g transform="matrix(2.85329,0,0,2.50788,-1834.32,-8042.03)">
            <path d="M1576.53,3942.75L1553.54,3961.59C1557.17,3966.42 1559.32,3972.42 1559.32,3978.92C1559.32,3994.87 1546.39,4007.8 1530.44,4007.8C1524.37,4007.8 1518.75,4005.93 1514.1,4002.73L1491.32,4022.53C1501.7,4031.84 1515.41,4037.51 1530.44,4037.51C1562.79,4037.51 1589.03,4011.28 1589.03,3978.92C1589.03,3965.27 1584.36,3952.71 1576.53,3942.75Z" style="fill:rgb(117,139,198);fill-rule:nonzero;"/>
        </g>
        <g transform="matrix(2.85329,0,0,2.50788,-1834.32,-8042.03)">
            <path d="M1497.52,3976.35C1497.52,3964.79 1504.32,3954.82 1514.13,3950.21L1506.79,3921.13C1484.08,3929.2 1467.82,3950.88 1467.82,3976.35C1467.82,3993.68 1475.34,4009.24 1487.29,4019.97L1510.07,4000.17C1502.49,3994.96 1497.52,3986.24 1497.52,3976.35Z" style="fill:rgb(5,47,66);fill-rule:nonzero;"/>
        </g>
        <g transform="matrix(2.85329,0,0,2.50788,-1834.32,-8042.03)">
            <path d="M2193.46,3710.35C2195.67,3710.71 2197.93,3710.96 2200.22,3711.09C2202.51,3711.23 2204.78,3711.24 2207.03,3711.14L2213.49,3697.43C2216.19,3696.95 2218.82,3696.26 2221.37,3695.38L2233.71,3704.17C2237.78,3702.12 2241.61,3699.65 2245.16,3696.83L2242.32,3681.93C2244.19,3679.97 2245.92,3677.88 2247.49,3675.64L2262.65,3675.51C2264.7,3671.53 2266.37,3667.29 2267.59,3662.87L2256.52,3652.48C2256.7,3651.14 2256.85,3649.79 2256.93,3648.43C2257.01,3647.06 2257.02,3645.71 2257,3644.36L2269.2,3635.33C2268.51,3630.79 2267.35,3626.4 2265.77,3622.2L2250.73,3620.29C2249.44,3617.9 2247.96,3615.61 2246.33,3613.45L2250.89,3598.98C2247.7,3595.77 2244.18,3592.87 2240.38,3590.35L2227.1,3597.65C2224.67,3596.48 2222.14,3595.48 2219.52,3594.69L2214.7,3580.31C2212.48,3579.95 2210.22,3579.7 2207.93,3579.57C2205.64,3579.44 2203.37,3579.42 2201.13,3579.52L2194.66,3593.23C2191.96,3593.72 2189.33,3594.4 2186.79,3595.28L2174.44,3586.49C2170.37,3588.54 2166.54,3591.01 2163,3593.83L2165.84,3608.73C2163.96,3610.69 2162.23,3612.79 2160.67,3615.02L2145.51,3615.15C2143.45,3619.14 2141.79,3623.37 2140.57,3627.79L2151.63,3638.19C2151.45,3639.52 2151.3,3640.87 2151.22,3642.23C2151.14,3643.6 2151.13,3644.95 2151.15,3646.3L2138.95,3655.33C2139.65,3659.87 2140.8,3664.27 2142.38,3668.47L2157.42,3670.37C2158.71,3672.77 2160.19,3675.05 2161.82,3677.21L2157.27,3691.68C2160.45,3694.9 2163.97,3697.79 2167.77,3700.31L2181.06,3693.02C2183.48,3694.19 2186.02,3695.18 2188.64,3695.97L2193.46,3710.35Z" style="fill:rgb(254,203,59);fill-rule:nonzero;"/>
        </g>
        <g transform="matrix(2.85329,0,0,2.50788,-1834.32,-8042.03)">
            <path d="M2205.16,3668.56C2192.76,3668.61 2182.68,3658.6 2182.63,3646.2C2182.59,3633.81 2192.6,3623.73 2204.99,3623.69C2217.38,3623.64 2227.47,3633.65 2227.51,3646.04C2227.56,3658.43 2217.55,3668.51 2205.16,3668.56Z" style="fill:rgb(5,47,66);fill-rule:nonzero;"/>
        </g>
        <g transform="matrix(2.85329,0,0,2.50788,-1834.32,-8042.03)">
            <path d="M2282.96,3778.17C2284.68,3778.32 2286.43,3778.37 2288.2,3778.34C2289.97,3778.3 2291.71,3778.18 2293.43,3777.97L2297.57,3767.04C2299.62,3766.5 2301.6,3765.82 2303.5,3764.99L2313.52,3771C2316.52,3769.17 2319.31,3767.05 2321.86,3764.66L2318.78,3753.39C2320.1,3751.77 2321.31,3750.05 2322.37,3748.25L2334.01,3747.23C2335.35,3744.04 2336.38,3740.69 2337.04,3737.21L2327.92,3729.9C2327.97,3728.86 2328.01,3727.82 2327.98,3726.76C2327.96,3725.71 2327.89,3724.67 2327.79,3723.63L2336.62,3715.96C2335.81,3712.51 2334.66,3709.21 2333.19,3706.07L2321.52,3705.52C2320.38,3703.76 2319.11,3702.09 2317.73,3700.53L2320.35,3689.14C2317.71,3686.86 2314.83,3684.85 2311.76,3683.14L2301.99,3689.55C2300.06,3688.8 2298.05,3688.19 2295.99,3687.74L2291.42,3676.98C2289.69,3676.84 2287.94,3676.78 2286.17,3676.82C2284.4,3676.86 2282.66,3676.98 2280.94,3677.19L2276.8,3688.12C2274.76,3688.65 2272.78,3689.34 2270.88,3690.17L2260.86,3684.16C2257.86,3685.98 2255.06,3688.11 2252.52,3690.49L2255.59,3701.77C2254.27,3703.39 2253.07,3705.1 2252,3706.91L2240.36,3707.93C2239.02,3711.12 2238,3714.47 2237.33,3717.94L2246.46,3725.26C2246.4,3726.29 2246.37,3727.34 2246.39,3728.39C2246.41,3729.45 2246.48,3730.49 2246.58,3731.52L2237.75,3739.2C2238.56,3742.64 2239.72,3745.95 2241.18,3749.08L2252.86,3749.63C2253.99,3751.4 2255.26,3753.07 2256.65,3754.63L2254.02,3766.02C2256.66,3768.3 2259.54,3770.31 2262.61,3772.01L2272.38,3765.61C2274.32,3766.36 2276.32,3766.97 2278.38,3767.42L2282.96,3778.17Z" style="fill:rgb(133,206,188);fill-rule:nonzero;"/>
        </g>
        <g transform="matrix(2.85329,0,0,2.50788,-1834.32,-8042.03)">
            <path d="M2287.6,3748.28C2276.16,3748.51 2266.71,3739.43 2266.48,3727.99C2266.25,3716.56 2275.34,3707.1 2286.77,3706.87C2298.21,3706.64 2307.67,3715.73 2307.89,3727.17C2308.12,3738.6 2299.04,3748.06 2287.6,3748.28Z" style="fill:rgb(117,139,198);fill-rule:nonzero;"/>
        </g>
        <g transform="matrix(2.85329,0,0,2.50788,-1834.32,-8042.03)">
            <path d="M2151.71,3801.33C2145.98,3801.34 2140.2,3802.9 2134.99,3806.17C2131.66,3808.24 2128.86,3810.84 2126.62,3813.78C2124.2,3816.94 2122.43,3820.52 2121.35,3824.28C2120.97,3825.6 2120.67,3826.95 2120.47,3828.31C2120.06,3831.04 2120,3833.83 2120.31,3836.59C2120.82,3841.16 2122.34,3845.69 2124.94,3849.84C2125.7,3851.04 2126.52,3852.16 2127.4,3853.23C2137.37,3865.3 2154.99,3868.42 2168.62,3859.88C2173.83,3856.62 2177.76,3852.09 2180.27,3846.94C2181.17,3845.1 2181.89,3843.17 2182.41,3841.2C2184.6,3833 2183.52,3823.96 2178.66,3816.21C2172.63,3806.58 2162.29,3801.31 2151.71,3801.33Z" style="fill:rgb(133,206,188);fill-rule:nonzero;"/>
        </g>
        <g transform="matrix(2.85329,0,0,2.50788,-1834.32,-8042.03)">
            <path d="M2193.42,3891.26L2183.11,3897.72L2167.36,3872.57L2177.67,3866.11L2193.42,3891.26Z" style="fill:rgb(60,60,59);fill-rule:nonzero;"/>
        </g>
        <g transform="matrix(2.85329,0,0,2.50788,-1834.32,-8042.03)">
            <path d="M2124.94,3849.84C2115.66,3835.01 2120.15,3815.45 2134.99,3806.17C2149.82,3796.88 2169.37,3801.37 2178.66,3816.21C2187.95,3831.04 2183.45,3850.59 2168.62,3859.88C2153.79,3869.17 2134.23,3864.67 2124.94,3849.84ZM2114.08,3857.2C2127.07,3877.96 2154.43,3884.25 2175.18,3871.25C2195.93,3858.26 2202.22,3830.9 2189.23,3810.15C2176.23,3789.4 2148.88,3783.11 2128.13,3796.1C2107.38,3809.1 2101.09,3836.45 2114.08,3857.2Z" style="fill:rgb(53,47,45);fill-rule:nonzero;"/>
        </g>
        <g transform="matrix(2.85329,0,0,2.50788,-1834.32,-8042.03)">
            <path d="M2135.45,3843.21C2135.01,3843.21 2134.57,3843.12 2134.15,3842.93L2120.31,3836.59C2120.17,3835.38 2120.11,3834.17 2120.11,3832.96C2120.12,3831.4 2120.24,3829.85 2120.47,3828.31L2137.31,3836.02C2138.88,3836.73 2139.56,3838.58 2138.85,3840.14L2138.28,3841.4C2137.75,3842.54 2136.63,3843.21 2135.45,3843.21Z" style="fill:rgb(173,221,213);fill-rule:nonzero;"/>
        </g>
        <g transform="matrix(2.85329,0,0,2.50788,-1834.32,-8042.03)">
            <path d="M2150.03,3836.93C2149.36,3836.93 2148.68,3836.78 2148.03,3836.49L2121.35,3824.28C2122.43,3820.52 2124.2,3816.94 2126.62,3813.78L2152.92,3825.81C2155.33,3826.91 2156.39,3829.76 2155.29,3832.18L2154.4,3834.12C2153.59,3835.88 2151.85,3836.93 2150.03,3836.93Z" style="fill:rgb(173,221,213);fill-rule:nonzero;"/>
        </g>
        <g transform="matrix(2.85329,0,0,2.50788,-1834.32,-8042.03)">
            <path d="M2210.68,3953.27C2214.29,3959.03 2221.6,3960.96 2227,3957.57C2232.41,3954.19 2233.86,3946.78 2230.25,3941.01L2190.89,3878.09L2171.32,3890.35L2210.68,3953.27Z" style="fill:rgb(254,203,59);fill-rule:nonzero;"/>
        </g>
        <g transform="matrix(2.85329,0,0,2.50788,-1834.32,-8042.03)">
            <path d="M1728.06,4129.82L1765.54,4102.05L1755.2,4088.09L1717.72,4115.86L1728.06,4129.82ZM1774.3,4109.98L1733.1,4140.51C1728.99,4143.55 1723.18,4142.69 1720.13,4138.58L1707.03,4120.89C1703.98,4116.78 1704.85,4110.97 1708.96,4107.92L1750.16,4077.4C1754.27,4074.36 1760.08,4075.22 1763.13,4079.33L1776.23,4097.02C1779.28,4101.12 1778.41,4106.94 1774.3,4109.98Z" style="fill:rgb(79,191,158);fill-rule:nonzero;"/>
        </g>
        <g transform="matrix(2.85329,0,0,2.50788,-1834.32,-8042.03)">
            <path d="M1801.51,4075.4L1838.99,4047.64L1828.64,4033.67L1791.17,4061.44L1801.51,4075.4ZM1847.75,4055.57L1806.55,4086.1C1802.44,4089.14 1796.62,4088.27 1793.58,4084.17L1780.47,4066.48C1777.43,4062.37 1778.3,4056.55 1782.4,4053.51L1823.61,4022.98C1827.71,4019.94 1833.53,4020.8 1836.57,4024.91L1849.68,4042.6C1852.72,4046.71 1851.86,4052.53 1847.75,4055.57Z" style="fill:rgb(79,191,158);fill-rule:nonzero;"/>
        </g>
        <g transform="matrix(2.85329,0,0,2.50788,-1834.32,-8042.03)">
            <path d="M1798.77,4066.92C1800.64,4069.44 1800.11,4073.01 1797.58,4074.88L1764.84,4099.14C1762.32,4101.01 1758.75,4100.48 1756.88,4097.95L1756.6,4097.57C1754.73,4095.04 1755.26,4091.48 1757.78,4089.61L1790.52,4065.35C1793.05,4063.48 1796.62,4064.01 1798.49,4066.53L1798.77,4066.92Z" style="fill:rgb(5,47,66);fill-rule:nonzero;"/>
        </g>
        <g transform="matrix(2.85329,0,0,2.50788,-1834.32,-8042.03)">
            <path d="M1871.46,4013.06C1873.33,4015.59 1872.8,4019.16 1870.27,4021.03L1837.53,4045.28C1835.01,4047.16 1831.44,4046.62 1829.57,4044.1L1829.29,4043.72C1827.41,4041.19 1827.95,4037.62 1830.47,4035.75L1863.21,4011.5C1865.74,4009.62 1869.3,4010.16 1871.17,4012.68L1871.46,4013.06Z" style="fill:rgb(5,47,66);fill-rule:nonzero;"/>
        </g>
    </g>
</svg>
