<?xml version="1.0" encoding="UTF-8" standalone="no"?>
<!DOCTYPE svg PUBLIC "-//W3C//DTD SVG 1.1//EN" "http://www.w3.org/Graphics/SVG/1.1/DTD/svg11.dtd">
<svg width="100%" height="100%" viewBox="0 0 3000 1500" version="1.1" xmlns="http://www.w3.org/2000/svg" xmlns:xlink="http://www.w3.org/1999/xlink" xml:space="preserve" xmlns:serif="http://www.serif.com/" style="fill-rule:evenodd;clip-rule:evenodd;stroke-linejoin:round;stroke-miterlimit:1.41421;">
    <g transform="matrix(0.633045,0,0,0.748877,-115.938,-315.136)">
        <g transform="matrix(2.55744,0,0,2.16187,41.8595,-8.56922)">
            <text x="144.72px" y="669.908px" style="font-family:'BowlbyOneSC-Regular', 'Bowlby One SC';font-stretch:ultra-condensed;font-size:200px;">PROFIT</text>
        </g>
        <g transform="matrix(2.62703,0,0,2.2207,368.042,-71.6535)">
            <text x="119.011px" y="873.599px" style="font-family:'BowlbyOneSC-Regular', 'Bowlby One SC';font-stretch:ultra-condensed;font-size:200px;">LOSS</text>
        </g>
        <g transform="matrix(2.72386,0,0,2.77185,-8353.49,-2064.09)">
            <path d="M4744.32,1257.79C4744.32,1442.16 4594.86,1591.62 4410.49,1591.62C4226.12,1591.62 4076.66,1442.16 4076.66,1257.79C4076.66,1073.42 4226.12,923.959 4410.49,923.959C4594.86,923.959 4744.32,1073.42 4744.32,1257.79Z" style="fill:rgb(249,194,70);fill-rule:nonzero;"/>
        </g>
        <g transform="matrix(2.72386,0,0,2.77185,-8353.49,-2064.09)">
            <path d="M4690.8,1137.91C4689.25,1131.73 4687.48,1125.63 4685.54,1119.62C4666.17,1059.97 4627.58,1009.01 4577.05,974.035C4531.32,942.378 4475.83,923.815 4415.99,923.815C4357.32,923.815 4302.82,941.648 4257.6,972.188C4202.47,1009.42 4161.17,1065.56 4142.94,1131.29C4136.24,1155.44 4132.65,1180.88 4132.65,1207.16C4132.65,1363.64 4259.51,1490.5 4415.99,1490.5C4504.54,1490.5 4583.58,1449.88 4635.54,1386.27C4675.41,1337.46 4699.34,1275.11 4699.34,1207.16C4699.34,1183.27 4696.37,1160.08 4690.8,1137.91Z" style="fill:rgb(19,74,98);fill-rule:nonzero;"/>
        </g>
        <g transform="matrix(2.72386,0,0,2.77185,-8353.49,-2064.09)">
            <path d="M4196.15,1167.75C4207.24,1196.11 4207.24,1177.61 4226.97,1183.78C4246.69,1189.94 4268.26,1191.79 4284.9,1208.43C4301.54,1225.07 4314.49,1209.67 4314.49,1228.16C4314.49,1246.65 4289.83,1258.98 4289.83,1288.56C4289.83,1318.15 4293.53,1332.94 4335.45,1348.96C4377.36,1364.99 4365.03,1353.89 4365.03,1395.81C4365.03,1437.72 4373.04,1445.73 4381.05,1453.75C4389.07,1461.76 4408.18,1467.3 4408.18,1446.35C4408.18,1425.39 4393.38,1413.06 4408.18,1398.27C4422.97,1383.48 4414.96,1386.56 4437.76,1363.76C4460.57,1340.95 4477.21,1329.63 4488.3,1302.32C4499.4,1275 4536.38,1262.67 4488.3,1245.41C4440.22,1228.16 4419.9,1248.09 4399.97,1228.16C4380.03,1208.22 4345.31,1196.11 4336.68,1196.11C4328.05,1196.11 4300.93,1189.94 4287.37,1176.38C4273.81,1162.82 4263.95,1139.4 4251.62,1151.73C4239.29,1164.06 4225.73,1156.66 4225.73,1145.56C4225.73,1134.47 4239.29,1114.75 4244.22,1114.75C4249.16,1114.75 4287.37,1151.73 4325.58,1151.73C4363.8,1151.73 4349.01,1150.49 4349.01,1136.94C4349.01,1123.38 4345.31,1122.14 4383.52,1114.75C4421.74,1107.35 4487.07,1117.21 4487.07,1086.39C4487.07,1055.58 4504.33,1048.18 4471.04,1028.46C4437.76,1008.73 4459.95,1029.69 4429.13,1016.13C4398.31,1002.57 4414.34,985.311 4436.53,985.311C4458.72,985.311 4445.16,989.009 4471.04,1001.34C4496.93,1013.66 4508.03,998.871 4494.47,985.311C4480.91,971.751 4479.67,961.889 4445.16,961.889C4410.64,961.889 4376.74,942.783 4357.63,961.889C4338.53,980.996 4324.35,1006.27 4296,995.173C4281.69,989.576 4270.21,978.962 4257.6,972.188C4202.47,1009.42 4161.17,1065.56 4142.94,1131.29C4150.67,1135.03 4158.91,1138.81 4166.56,1141.87C4191.22,1151.73 4185.05,1139.4 4196.15,1167.75Z" style="fill:rgb(168,196,56);fill-rule:nonzero;"/>
        </g>
        <g transform="matrix(2.72386,0,0,2.77185,-8353.49,-2064.09)">
            <path d="M4690.8,1137.91C4680.17,1139.57 4661.81,1141.28 4648.56,1136.31C4628.83,1128.91 4632.53,1120.28 4615.27,1120.28C4598.02,1120.28 4586.51,1116.58 4563.5,1139.6C4540.49,1162.61 4505.56,1194.25 4553.64,1218.9C4601.71,1243.56 4595.55,1264.51 4623.9,1253.42C4652.25,1242.32 4667.37,1248.74 4659.65,1256.46C4651.93,1264.19 4634.99,1283.4 4634.99,1307.85C4634.99,1332.31 4633.78,1348.81 4636.23,1365.59C4637.12,1371.69 4636.06,1379.37 4635.54,1386.27C4675.41,1337.46 4699.34,1275.11 4699.34,1207.16C4699.34,1183.27 4696.37,1160.08 4690.8,1137.91Z" style="fill:rgb(168,196,56);fill-rule:nonzero;"/>
        </g>
        <g transform="matrix(2.72386,0,0,2.77185,-8353.49,-2064.09)">
            <path d="M4573.36,998.245C4563.27,1017.91 4607.87,1008.11 4607.87,1019.2C4607.87,1030.3 4596.78,1029.06 4589.38,1036.46C4581.99,1043.85 4593.08,1051.25 4593.08,1057.41C4593.08,1063.58 4572.13,1063.58 4557.33,1063.58C4542.54,1063.58 4543.77,1080.84 4543.77,1091.93C4543.77,1103.03 4562.39,1111.78 4570.89,1103.28C4579.4,1094.78 4588.15,1089.47 4602.95,1089.47C4617.74,1089.47 4612.84,1104.22 4621.51,1112.89C4630.18,1121.55 4641.16,1109.19 4641.16,1103.28C4641.16,1097.37 4615.89,1088.85 4622.67,1082.07C4629.45,1075.29 4639.93,1090.7 4646.09,1090.7C4652.25,1090.7 4646.82,1101.07 4665.81,1120.06C4676.17,1130.42 4682.2,1125.89 4685.54,1119.62C4666.17,1059.97 4627.58,1009.01 4577.05,974.035C4574.27,977.792 4579.94,985.419 4573.36,998.245Z" style="fill:rgb(168,196,56);fill-rule:nonzero;"/>
        </g>
        <g transform="matrix(2.72386,0,0,2.77185,-8353.49,-2064.09)">
            <path d="M4828.7,1579.76C4828.7,1586.39 4824.47,1591.76 4819.25,1591.76L4561.79,1591.76C4556.57,1591.76 4552.34,1586.39 4552.34,1579.76L4552.34,1114.73C4552.34,1108.1 4556.57,1102.72 4561.79,1102.72L4819.25,1102.72C4824.47,1102.72 4828.7,1108.1 4828.7,1114.73L4828.7,1579.76Z" style="fill:rgb(87,87,87);fill-rule:nonzero;"/>
        </g>
        <g transform="matrix(2.72386,0,0,2.77185,-8353.49,-2064.09)">
            <path d="M4813.28,1508.34C4813.28,1514.37 4808.9,1519.26 4803.49,1519.26L4578.44,1519.26C4573.04,1519.26 4568.65,1514.37 4568.65,1508.34L4568.65,1162.99C4568.65,1156.96 4573.04,1152.07 4578.44,1152.07L4803.49,1152.07C4808.9,1152.07 4813.28,1156.96 4813.28,1162.99L4813.28,1508.34Z" style="fill:rgb(237,238,238);fill-rule:nonzero;"/>
        </g>
        <g transform="matrix(2.72386,0,0,2.77185,-8353.49,-2064.09)">
            <path d="M4661.92,1410.88C4646.98,1400.47 4637.75,1386.14 4637.75,1370.31C4637.75,1338.51 4675.03,1312.72 4721.02,1312.72C4767,1312.72 4804.28,1338.51 4804.28,1370.31C4804.28,1402.12 4767,1427.9 4721.02,1427.9C4704.97,1427.9 4689.99,1424.76 4677.28,1419.32C4660.75,1429.63 4644.69,1419.88 4644.69,1419.88C4655.48,1419.88 4660.02,1414.88 4661.92,1410.88Z" style="fill:rgb(164,30,91);fill-rule:nonzero;"/>
        </g>
        <g transform="matrix(2.72386,0,0,2.77185,-8353.49,-2064.09)">
            <path d="M4693.02,1366.14C4693.02,1372.76 4687.64,1378.14 4681.02,1378.14C4674.39,1378.14 4669.02,1372.76 4669.02,1366.14C4669.02,1359.51 4674.39,1354.14 4681.02,1354.14C4687.64,1354.14 4693.02,1359.51 4693.02,1366.14Z" style="fill:rgb(246,248,249);fill-rule:nonzero;"/>
        </g>
        <g transform="matrix(2.72386,0,0,2.77185,-8353.49,-2064.09)">
            <path d="M4733.02,1366.14C4733.02,1372.76 4727.64,1378.14 4721.02,1378.14C4714.39,1378.14 4709.02,1372.76 4709.02,1366.14C4709.02,1359.51 4714.39,1354.14 4721.02,1354.14C4727.64,1354.14 4733.02,1359.51 4733.02,1366.14Z" style="fill:rgb(246,248,249);fill-rule:nonzero;"/>
        </g>
        <g transform="matrix(2.72386,0,0,2.77185,-8353.49,-2064.09)">
            <path d="M4773.02,1366.14C4773.02,1372.76 4767.64,1378.14 4761.02,1378.14C4754.39,1378.14 4749.02,1372.76 4749.02,1366.14C4749.02,1359.51 4754.39,1354.14 4761.02,1354.14C4767.64,1354.14 4773.02,1359.51 4773.02,1366.14Z" style="fill:rgb(246,248,249);fill-rule:nonzero;"/>
        </g>
        <g transform="matrix(2.72386,0,0,2.77185,-8353.49,-2064.09)">
            <path d="M4721.11,1345.88C4736.05,1335.47 4745.28,1321.14 4745.28,1305.31C4745.28,1273.51 4708,1247.72 4662.02,1247.72C4616.03,1247.72 4578.75,1273.51 4578.75,1305.31C4578.75,1337.12 4616.03,1362.9 4662.02,1362.9C4678.06,1362.9 4693.04,1359.76 4705.75,1354.32C4722.28,1364.63 4738.35,1354.88 4738.35,1354.88C4727.55,1354.88 4723.01,1349.88 4721.11,1345.88Z" style="fill:rgb(66,180,156);fill-rule:nonzero;"/>
        </g>
        <g transform="matrix(2.72386,0,0,2.77185,-8353.49,-2064.09)">
            <path d="M4629.75,1304.14C4629.75,1310.76 4624.38,1316.14 4617.75,1316.14C4611.12,1316.14 4605.75,1310.76 4605.75,1304.14C4605.75,1297.51 4611.12,1292.14 4617.75,1292.14C4624.38,1292.14 4629.75,1297.51 4629.75,1304.14Z" style="fill:rgb(246,248,249);fill-rule:nonzero;"/>
        </g>
        <g transform="matrix(2.72386,0,0,2.77185,-8353.49,-2064.09)">
            <path d="M4669.75,1304.14C4669.75,1310.76 4664.38,1316.14 4657.75,1316.14C4651.12,1316.14 4645.75,1310.76 4645.75,1304.14C4645.75,1297.51 4651.12,1292.14 4657.75,1292.14C4664.38,1292.14 4669.75,1297.51 4669.75,1304.14Z" style="fill:rgb(246,248,249);fill-rule:nonzero;"/>
        </g>
        <g transform="matrix(2.72386,0,0,2.77185,-8353.49,-2064.09)">
            <path d="M4709.75,1304.14C4709.75,1310.76 4704.38,1316.14 4697.75,1316.14C4691.12,1316.14 4685.75,1310.76 4685.75,1304.14C4685.75,1297.51 4691.12,1292.14 4697.75,1292.14C4704.38,1292.14 4709.75,1297.51 4709.75,1304.14Z" style="fill:rgb(246,248,249);fill-rule:nonzero;"/>
        </g>
        <g transform="matrix(2.72386,0,0,2.77185,-8353.49,-2064.09)">
            <path d="M4553.37,1403.07C4602.88,1368.58 4633.48,1321.07 4633.48,1268.63C4633.48,1163.23 4509.94,1077.78 4357.55,1077.78C4205.15,1077.78 4081.61,1163.23 4081.61,1268.63C4081.61,1374.03 4205.15,1459.47 4357.55,1459.47C4410.71,1459.47 4460.36,1449.06 4502.48,1431.04C4557.27,1465.2 4610.49,1432.89 4610.49,1432.89C4574.73,1432.89 4559.68,1416.32 4553.37,1403.07Z" style="fill:rgb(246,248,249);fill-rule:nonzero;"/>
        </g>
        <g transform="matrix(2.72386,0,0,2.77185,-8353.49,-2064.09)">
            <path d="M4286.18,1260.49C4286.18,1280.56 4269.91,1296.83 4249.84,1296.83C4229.77,1296.83 4213.5,1280.56 4213.5,1260.49C4213.5,1240.41 4229.77,1224.14 4249.84,1224.14C4269.91,1224.14 4286.18,1240.41 4286.18,1260.49Z" style="fill:rgb(60,60,59);fill-rule:nonzero;"/>
        </g>
        <g transform="matrix(2.72386,0,0,2.77185,-8353.49,-2064.09)">
            <path d="M4407.32,1260.49C4407.32,1280.56 4391.05,1296.83 4370.98,1296.83C4350.9,1296.83 4334.63,1280.56 4334.63,1260.49C4334.63,1240.41 4350.9,1224.14 4370.98,1224.14C4391.05,1224.14 4407.32,1240.41 4407.32,1260.49Z" style="fill:rgb(60,60,59);fill-rule:nonzero;"/>
        </g>
        <g transform="matrix(2.72386,0,0,2.77185,-8353.49,-2064.09)">
            <path d="M4528.46,1260.49C4528.46,1280.56 4512.19,1296.83 4492.11,1296.83C4472.04,1296.83 4455.77,1280.56 4455.77,1260.49C4455.77,1240.41 4472.04,1224.14 4492.11,1224.14C4512.19,1224.14 4528.46,1240.41 4528.46,1260.49Z" style="fill:rgb(60,60,59);fill-rule:nonzero;"/>
        </g>
        <g transform="matrix(2.72386,0,0,2.77185,-8353.49,-2064.09)">
            <path d="M4532.11,1060.67L4379.44,1060.67C4374.79,1060.67 4371.02,1064.44 4371.02,1069.09L4371.02,1160.22C4371.02,1164.87 4374.79,1168.64 4379.44,1168.64L4532.11,1168.64C4536.76,1168.64 4540.53,1164.87 4540.53,1160.22L4540.53,1102.89L4540.53,1069.09C4540.53,1064.44 4536.76,1060.67 4532.11,1060.67Z" style="fill:rgb(139,208,235);fill-rule:nonzero;"/>
        </g>
        <g transform="matrix(2.72386,0,0,2.77185,-8353.49,-2064.09)">
            <path d="M4379.44,1168.64L4532.11,1168.64C4536.76,1168.64 4540.53,1164.87 4540.53,1160.22L4540.53,1102.89L4371.02,1072.23L4371.02,1160.22C4371.02,1164.87 4374.79,1168.64 4379.44,1168.64Z" style="fill:rgb(124,187,206);fill-rule:nonzero;"/>
        </g>
        <g transform="matrix(2.72386,0,0,2.77185,-8353.49,-2064.09)">
            <path d="M4482.89,1106.79L4482.71,1106.62L4443.59,1086.98C4441.61,1086.02 4439.96,1085.29 4438.43,1085.29C4437.59,1085.29 4434.84,1085.59 4434.84,1089.43L4434.84,1130.66C4434.84,1135.51 4438.12,1136.04 4439.53,1136.04C4440.64,1136.04 4441.88,1135.76 4443.44,1135.18L4482.72,1115.04L4482.89,1114.87C4484.05,1113.79 4484.69,1112.36 4484.69,1110.83C4484.69,1109.31 4484.05,1107.87 4482.89,1106.79Z" style="fill:rgb(248,248,249);fill-rule:nonzero;"/>
        </g>
        <g transform="matrix(2.72386,0,0,2.77185,-8353.49,-2064.09)">
            <path d="M4175.86,1168.97C4164.13,1160.8 4156.89,1149.55 4156.89,1137.13C4156.89,1112.16 4186.15,1091.92 4222.25,1091.92C4258.35,1091.92 4287.61,1112.16 4287.61,1137.13C4287.61,1162.09 4258.35,1182.33 4222.25,1182.33C4209.66,1182.33 4197.9,1179.87 4187.92,1175.6C4174.94,1183.69 4162.33,1176.04 4162.33,1176.04C4170.8,1176.04 4174.37,1172.11 4175.86,1168.97Z" style="fill:rgb(139,208,235);fill-rule:nonzero;"/>
        </g>
        <g transform="matrix(2.72386,0,0,2.77185,-8353.49,-2064.09)">
            <path d="M4190.08,1128.47L4174.04,1121.22C4173.26,1101.59 4159.98,1085.18 4141.95,1079.72C4137.79,1078.46 4133.38,1077.78 4128.81,1077.78C4113.7,1077.78 4100.33,1085.2 4092.1,1096.57C4092.1,1096.57 4087.03,1102.93 4080.03,1110.29C4072.96,1111.95 4063.91,1113.55 4057.77,1112.71C4033.19,1109.35 4019.82,1101.54 4019.82,1101.54C4019.69,1119.75 4024.12,1130.63 4031.21,1138.86C4008.85,1143.53 3992.27,1139.34 3992.27,1139.34C4005.21,1175.99 4040.35,1186.94 4064.26,1188.45C4065.48,1188.53 4066.68,1188.57 4067.88,1188.62C4069.83,1188.69 4071.76,1188.74 4073.64,1188.74L4073.64,1206.15C4066.3,1207.82 4063.3,1213.75 4062.75,1217.13C4062.4,1219.29 4063.87,1221.34 4066.04,1221.7C4066.25,1221.73 4066.47,1221.75 4066.68,1221.75C4068.6,1221.75 4070.29,1220.36 4070.61,1218.41C4070.63,1218.22 4071.46,1213.65 4077.79,1213.65C4082.89,1213.65 4084.39,1217.44 4084.63,1218.15C4085.25,1220.25 4087.46,1221.45 4089.57,1220.83C4091.68,1220.21 4092.88,1218 4092.26,1215.89C4091.39,1212.98 4088.26,1207.93 4082.1,1206.26L4082.1,1188.48C4094.14,1187.76 4104.59,1185.57 4113.43,1182.71L4113.43,1206.15C4106.09,1207.82 4103.09,1213.75 4102.54,1217.13C4102.18,1219.29 4103.66,1221.34 4105.82,1221.7C4106.04,1221.73 4106.26,1221.75 4106.47,1221.75C4108.39,1221.75 4110.08,1220.36 4110.39,1218.41C4110.42,1218.22 4111.25,1213.65 4117.58,1213.65C4122.68,1213.65 4124.18,1217.44 4124.41,1218.15C4125.04,1220.25 4127.25,1221.45 4129.36,1220.83C4131.46,1220.21 4132.67,1218 4132.04,1215.89C4131.18,1212.98 4128.05,1207.93 4121.89,1206.26L4121.89,1179.61C4135.37,1174.06 4144.01,1167.43 4147.77,1164.17C4156.5,1160.14 4163.73,1153.41 4168.39,1145.04L4184.8,1143.83L4174.28,1136.11L4190.08,1128.47Z" style="fill:rgb(54,167,223);fill-rule:nonzero;"/>
        </g>
        <g transform="matrix(2.72386,0,0,2.77185,-8353.49,-2064.09)">
            <path d="M4128.81,1077.78C4113.7,1077.78 4100.33,1085.2 4092.1,1096.57C4092.1,1096.57 4087.03,1102.93 4080.03,1110.29C4072.96,1111.95 4063.91,1113.55 4057.77,1112.71C4033.19,1109.35 4019.82,1101.54 4019.82,1101.54C4019.69,1119.75 4024.12,1130.63 4031.21,1138.86C4008.85,1143.53 3992.27,1139.34 3992.27,1139.34C4005.21,1175.99 4040.35,1186.94 4064.26,1188.45C4065.48,1188.53 4066.68,1188.57 4067.88,1188.62L4141.95,1079.72C4137.79,1078.46 4133.38,1077.78 4128.81,1077.78Z" style="fill:rgb(13,88,120);fill-rule:nonzero;"/>
        </g>
        <g transform="matrix(2.72386,0,0,2.77185,-8353.49,-2064.09)">
            <path d="M4612.73,1324.18C4618.15,1324.18 4622.55,1319.78 4622.55,1314.36L4622.55,1311.91C4622.55,1306.48 4618.15,1302.09 4612.73,1302.09L4583.9,1302.09L4571.46,1302.09L4573.43,1299.45C4577.73,1293.81 4587.24,1278.36 4586.54,1265.41C4586.3,1261.11 4579.11,1240.72 4561.61,1263.49C4521.27,1315.98 4502.19,1310.44 4502.19,1310.44C4497.43,1312.67 4493.56,1316.94 4493.56,1321.58L4493.56,1377.51C4493.56,1382.15 4496.19,1383.54 4502.19,1385.91L4530.96,1392.76L4531.13,1392.75C4532.01,1393.04 4532.94,1393.21 4533.92,1393.21L4605.54,1393.21C4610.96,1393.21 4615.36,1388.82 4615.36,1383.4L4615.36,1380.94C4615.36,1375.52 4610.96,1371.12 4605.54,1371.12L4592.53,1371.12L4592.53,1370.2L4612.73,1370.2C4618.15,1370.2 4622.55,1365.81 4622.55,1360.38L4622.55,1357.93C4622.55,1352.51 4618.15,1348.11 4612.73,1348.11L4592.53,1348.11L4592.53,1347.19L4612.73,1347.19C4618.15,1347.19 4622.55,1342.79 4622.55,1337.37L4622.55,1334.92C4622.55,1329.49 4618.15,1325.1 4612.73,1325.1L4592.53,1325.1L4592.53,1324.18L4612.73,1324.18Z" style="fill:rgb(249,213,180);fill-rule:nonzero;"/>
        </g>
        <g transform="matrix(2.72386,0,0,2.77185,-8353.49,-2064.09)">
            <rect x="4483.94" y="1302.45" width="17.98" height="90.76" style="fill:rgb(217,217,217);"/>
        </g>
        <g transform="matrix(2.72386,0,0,2.77185,-8353.49,-2064.09)">
            <rect x="4449.19" y="1291.06" width="34.75" height="113.14" style="fill:rgb(13,88,120);"/>
        </g>
        <g transform="matrix(2.72386,0,0,2.77185,-8353.49,-2064.09)">
            <path d="M4476.51,1305.44C4476.51,1309.68 4473.08,1313.11 4468.84,1313.11C4464.6,1313.11 4461.17,1309.68 4461.17,1305.44C4461.17,1301.2 4464.6,1297.77 4468.84,1297.77C4473.08,1297.77 4476.51,1301.2 4476.51,1305.44Z" style="fill:rgb(243,213,33);fill-rule:nonzero;"/>
        </g>
        <g transform="matrix(2.72386,0,0,2.77185,-8353.49,-2064.09)">
            <rect x="4081.61" y="1344.26" width="228.5" height="148.75" style="fill:rgb(242,206,30);"/>
        </g>
        <g transform="matrix(2.72386,0,0,2.77185,-8353.49,-2064.09)">
            <path d="M4084.02,1492.3C4083.53,1492.3 4083.04,1492.08 4082.71,1491.67C4082.11,1490.95 4082.22,1489.88 4082.95,1489.28L4085.57,1487.12C4086.3,1486.53 4087.37,1486.64 4087.97,1487.36C4088.56,1488.09 4088.46,1489.16 4087.73,1489.75L4085.1,1491.91C4084.79,1492.17 4084.4,1492.3 4084.02,1492.3Z" style="fill:rgb(190,137,44);fill-rule:nonzero;"/>
        </g>
        <g transform="matrix(2.72386,0,0,2.77185,-8353.49,-2064.09)">
            <path d="M4183.08,1411.08C4182.59,1411.08 4182.1,1410.86 4181.77,1410.45C4181.17,1409.73 4181.28,1408.66 4182,1408.06L4187.08,1403.9C4187.81,1403.3 4188.88,1403.41 4189.47,1404.14C4190.07,1404.86 4189.96,1405.93 4189.24,1406.53L4184.16,1410.69C4183.84,1410.95 4183.46,1411.08 4183.08,1411.08ZM4172.93,1419.4C4172.44,1419.4 4171.95,1419.19 4171.62,1418.78C4171.02,1418.05 4171.13,1416.98 4171.85,1416.38L4176.93,1412.22C4177.66,1411.63 4178.73,1411.73 4179.32,1412.46C4179.92,1413.19 4179.81,1414.26 4179.09,1414.85L4174.01,1419.01C4173.69,1419.27 4173.31,1419.4 4172.93,1419.4ZM4162.78,1427.72C4162.29,1427.72 4161.8,1427.51 4161.47,1427.1C4160.87,1426.37 4160.98,1425.3 4161.7,1424.71L4166.78,1420.54C4167.51,1419.95 4168.58,1420.06 4169.17,1420.78C4169.77,1421.51 4169.66,1422.58 4168.94,1423.18L4163.86,1427.33C4163.54,1427.59 4163.16,1427.72 4162.78,1427.72ZM4152.63,1436.04C4152.14,1436.04 4151.65,1435.83 4151.32,1435.42C4150.72,1434.69 4150.83,1433.62 4151.55,1433.03L4156.63,1428.87C4157.36,1428.27 4158.43,1428.38 4159.02,1429.11C4159.62,1429.83 4159.51,1430.9 4158.78,1431.5L4153.71,1435.66C4153.39,1435.92 4153.01,1436.04 4152.63,1436.04ZM4142.48,1444.37C4141.99,1444.37 4141.5,1444.15 4141.17,1443.74C4140.57,1443.02 4140.68,1441.95 4141.4,1441.35L4146.48,1437.19C4147.21,1436.59 4148.27,1436.7 4148.87,1437.43C4149.47,1438.15 4149.36,1439.22 4148.63,1439.82L4143.56,1443.98C4143.24,1444.24 4142.86,1444.37 4142.48,1444.37ZM4132.33,1452.69C4131.84,1452.69 4131.35,1452.48 4131.02,1452.07C4130.42,1451.34 4130.52,1450.27 4131.25,1449.67L4136.33,1445.51C4137.05,1444.92 4138.12,1445.02 4138.72,1445.75C4139.31,1446.47 4139.21,1447.55 4138.48,1448.14L4133.41,1452.3C4133.09,1452.56 4132.71,1452.69 4132.33,1452.69ZM4122.18,1461.01C4121.69,1461.01 4121.2,1460.8 4120.86,1460.39C4120.27,1459.66 4120.38,1458.59 4121.1,1458L4126.18,1453.83C4126.9,1453.24 4127.97,1453.34 4128.57,1454.07C4129.16,1454.8 4129.06,1455.87 4128.33,1456.47L4123.26,1460.63C4122.94,1460.89 4122.56,1461.01 4122.18,1461.01ZM4112.03,1469.33C4111.54,1469.33 4111.05,1469.12 4110.71,1468.71C4110.12,1467.98 4110.22,1466.91 4110.95,1466.32L4116.03,1462.16C4116.75,1461.56 4117.82,1461.67 4118.42,1462.39C4119.01,1463.12 4118.91,1464.19 4118.18,1464.79L4113.11,1468.95C4112.79,1469.21 4112.41,1469.33 4112.03,1469.33ZM4101.88,1477.66C4101.39,1477.66 4100.9,1477.45 4100.56,1477.03C4099.97,1476.31 4100.08,1475.24 4100.8,1474.64L4105.88,1470.48C4106.6,1469.88 4107.67,1469.99 4108.27,1470.72C4108.86,1471.44 4108.76,1472.51 4108.03,1473.11L4102.96,1477.27C4102.64,1477.53 4102.26,1477.66 4101.88,1477.66ZM4091.73,1485.98C4091.24,1485.98 4090.75,1485.77 4090.41,1485.36C4089.82,1484.63 4089.92,1483.56 4090.65,1482.96L4095.72,1478.8C4096.45,1478.21 4097.52,1478.31 4098.12,1479.04C4098.71,1479.77 4098.61,1480.84 4097.88,1481.43L4092.81,1485.59C4092.49,1485.85 4092.11,1485.98 4091.73,1485.98Z" style="fill:rgb(190,137,44);fill-rule:nonzero;"/>
        </g>
        <g transform="matrix(2.72386,0,0,2.77185,-8353.49,-2064.09)">
            <path d="M4198.49,1402.76C4198.11,1402.76 4197.72,1402.63 4197.41,1402.37L4195.86,1401.1L4194.31,1402.37C4193.59,1402.96 4192.52,1402.86 4191.92,1402.13C4191.32,1401.41 4191.43,1400.33 4192.16,1399.74L4194.79,1397.58C4195.41,1397.07 4196.32,1397.07 4196.94,1397.59L4199.57,1399.75C4200.29,1400.34 4200.4,1401.41 4199.8,1402.14C4199.46,1402.55 4198.98,1402.76 4198.49,1402.76Z" style="fill:rgb(190,137,44);fill-rule:nonzero;"/>
        </g>
        <g transform="matrix(2.72386,0,0,2.77185,-8353.49,-2064.09)">
            <path d="M4208.57,1411.07C4208.19,1411.07 4207.81,1410.94 4207.49,1410.68L4202.45,1406.53C4201.72,1405.93 4201.62,1404.86 4202.22,1404.13C4202.81,1403.41 4203.89,1403.3 4204.61,1403.9L4209.65,1408.05C4210.38,1408.65 4210.48,1409.72 4209.88,1410.45C4209.55,1410.86 4209.06,1411.07 4208.57,1411.07ZM4218.65,1419.37C4218.27,1419.37 4217.89,1419.24 4217.57,1418.98L4212.53,1414.83C4211.8,1414.23 4211.7,1413.16 4212.3,1412.44C4212.9,1411.71 4213.97,1411.61 4214.7,1412.21L4219.74,1416.36C4220.46,1416.96 4220.57,1418.03 4219.97,1418.75C4219.63,1419.16 4219.15,1419.37 4218.65,1419.37ZM4228.74,1427.68C4228.36,1427.68 4227.98,1427.55 4227.66,1427.29L4222.62,1423.14C4221.89,1422.54 4221.79,1421.47 4222.39,1420.74C4222.98,1420.02 4224.05,1419.92 4224.78,1420.51L4229.82,1424.67C4230.55,1425.26 4230.65,1426.33 4230.05,1427.06C4229.72,1427.47 4229.23,1427.68 4228.74,1427.68ZM4238.82,1435.99C4238.44,1435.99 4238.06,1435.86 4237.74,1435.6L4232.7,1431.44C4231.98,1430.85 4231.87,1429.78 4232.47,1429.05C4233.07,1428.33 4234.14,1428.22 4234.86,1428.82L4239.9,1432.97C4240.63,1433.57 4240.73,1434.64 4240.14,1435.36C4239.8,1435.77 4239.31,1435.99 4238.82,1435.99ZM4248.91,1444.29C4248.53,1444.29 4248.14,1444.16 4247.83,1443.9L4242.79,1439.75C4242.06,1439.15 4241.96,1438.08 4242.55,1437.36C4243.15,1436.63 4244.22,1436.53 4244.95,1437.13L4249.99,1441.28C4250.71,1441.88 4250.82,1442.95 4250.22,1443.67C4249.88,1444.08 4249.4,1444.29 4248.91,1444.29ZM4258.99,1452.6C4258.61,1452.6 4258.23,1452.47 4257.91,1452.21L4252.87,1448.06C4252.14,1447.46 4252.04,1446.39 4252.64,1445.66C4253.23,1444.94 4254.31,1444.84 4255.03,1445.43L4260.07,1449.59C4260.8,1450.18 4260.9,1451.25 4260.31,1451.98C4259.97,1452.39 4259.48,1452.6 4258.99,1452.6ZM4269.08,1460.9C4268.69,1460.9 4268.31,1460.78 4268,1460.52L4262.95,1456.36C4262.23,1455.77 4262.13,1454.7 4262.72,1453.97C4263.32,1453.25 4264.39,1453.14 4265.12,1453.74L4270.16,1457.89C4270.88,1458.49 4270.99,1459.56 4270.39,1460.29C4270.05,1460.7 4269.57,1460.9 4269.08,1460.9ZM4279.16,1469.21C4278.78,1469.21 4278.4,1469.09 4278.08,1468.82L4273.04,1464.67C4272.31,1464.07 4272.21,1463 4272.81,1462.28C4273.4,1461.55 4274.48,1461.45 4275.2,1462.05L4280.24,1466.2C4280.97,1466.8 4281.07,1467.87 4280.47,1468.59C4280.14,1469 4279.65,1469.21 4279.16,1469.21ZM4289.24,1477.52C4288.87,1477.52 4288.48,1477.39 4288.17,1477.13L4283.12,1472.98C4282.4,1472.38 4282.29,1471.31 4282.89,1470.58C4283.49,1469.86 4284.56,1469.75 4285.29,1470.35L4290.33,1474.51C4291.05,1475.1 4291.15,1476.17 4290.56,1476.9C4290.22,1477.31 4289.74,1477.52 4289.24,1477.52ZM4299.33,1485.82C4298.95,1485.82 4298.56,1485.7 4298.25,1485.44L4293.21,1481.28C4292.48,1480.69 4292.38,1479.61 4292.98,1478.89C4293.57,1478.17 4294.64,1478.06 4295.37,1478.66L4300.41,1482.81C4301.14,1483.41 4301.24,1484.48 4300.64,1485.2C4300.31,1485.61 4299.82,1485.82 4299.33,1485.82Z" style="fill:rgb(190,137,44);fill-rule:nonzero;"/>
        </g>
        <g transform="matrix(2.72386,0,0,2.77185,-8353.49,-2064.09)">
            <path d="M4307,1492.14C4306.62,1492.14 4306.23,1492.01 4305.91,1491.75L4303.29,1489.59C4302.57,1488.99 4302.46,1487.92 4303.06,1487.2C4303.66,1486.47 4304.73,1486.37 4305.45,1486.97L4308.08,1489.13C4308.8,1489.73 4308.91,1490.8 4308.31,1491.52C4307.97,1491.93 4307.49,1492.14 4307,1492.14Z" style="fill:rgb(190,137,44);fill-rule:nonzero;"/>
        </g>
        <g transform="matrix(2.72386,0,0,2.77185,-8353.49,-2064.09)">
            <path d="M4251.43,1344.26L4081.61,1344.26L4195.86,1418.63L4310.11,1344.26L4251.43,1344.26Z" style="fill:rgb(190,137,44);fill-rule:nonzero;"/>
        </g>
        <g transform="matrix(2.72386,0,0,2.77185,-8353.49,-2064.09)">
            <path d="M4081.61,1344.26L4195.86,1269.89L4310.11,1344.26L4081.61,1344.26Z" style="fill:rgb(242,206,30);fill-rule:nonzero;"/>
        </g>
    </g>
</svg>
