<?xml version="1.0" encoding="UTF-8" standalone="no"?>
<!DOCTYPE svg PUBLIC "-//W3C//DTD SVG 1.1//EN" "http://www.w3.org/Graphics/SVG/1.1/DTD/svg11.dtd">
<svg width="100%" height="100%" viewBox="0 0 9872 4264" version="1.1" xmlns="http://www.w3.org/2000/svg" xmlns:xlink="http://www.w3.org/1999/xlink" xml:space="preserve" xmlns:serif="http://www.serif.com/" style="fill-rule:evenodd;clip-rule:evenodd;stroke-linejoin:round;stroke-miterlimit:1.41421;">
    <g transform="matrix(1,0,0,1,-4470.77,-11291.6)">
        <g transform="matrix(118.78,0,0,118.78,0,0)">
            <g>
                <path d="M103.83,104.746C103.83,103.897 104.717,103.501 104.717,102.142C104.717,101.217 104.206,100.556 104.206,100.556C104.206,100.556 104.307,100.14 104.307,99.639C104.307,96.72 99.298,96.531 99.298,97.11C99.298,97.475 101.011,98.254 101.011,98.254C101.011,98.254 100.329,98.028 99.626,98.028C95.36,98.028 91.698,101.185 91.698,101.185C92.028,100.434 92.557,99.63 93.503,98.976C93.936,98.264 94.818,96.518 93.044,96.518C91.686,96.518 89.063,97.721 89.063,97.721C89.063,97.721 89.68,96.764 88.742,96.764C87.384,96.764 83.44,98.72 82.779,98.72C82.578,98.72 82.552,98.544 82.552,98.544C82.552,97.815 84.378,96.468 84.378,95.928C84.378,95.651 84.063,95.642 83.949,95.642C81.741,95.642 74.4,99.483 73.663,99.483C73.24,99.483 73.729,99.105 74.522,98.52C75.315,97.934 76.362,97.169 75.514,97.169C74.541,97.169 71.897,98.154 71.897,98.154C71.897,98.154 72.777,97.386 72.777,97.029C72.777,96.67 72.111,96.689 72.078,96.689C69.55,96.689 61.153,99.84 61.153,99.84C61.153,99.84 64.989,99.075 67.023,99.075C68.923,99.075 69.176,99.555 69.18,99.8C69.587,99.337 69.91,99.029 69.91,99.029C69.91,99.029 67.927,101.538 67.927,102.595C67.927,102.972 68.154,103.312 68.853,103.312C71.155,103.312 76.42,100.369 76.42,100.369C76.42,100.369 75.015,101.634 75.015,102.124C75.015,102.217 75.071,102.35 75.336,102.35C76.061,102.35 77.448,101.596 78.298,101.596C78.54,101.596 78.59,101.79 78.25,102.106C78.25,102.106 76.352,105.124 78.15,105.124C80.119,105.124 84.969,102.029 86.102,102.029C86.989,102.029 84.885,103.908 84.885,104.973C84.885,105.619 85.692,106.15 89.085,104.903C89.54,103.796 90.394,102.583 90.394,102.583C90.394,102.583 89.387,104.646 89.387,105.464C89.387,105.464 89.399,105.867 89.638,105.867C90.851,105.867 94.689,102.549 94.689,102.549C94.689,102.549 92.828,104.634 98.02,104.351C98.02,104.351 96.076,105.03 96.076,105.747C96.076,106.643 98.444,107.319 98.444,107.319C98.444,107.319 97.747,107.34 97.747,107.653C97.747,108.144 99.136,108.284 99.136,109.099C99.136,109.135 99.132,109.168 99.128,109.2L100.078,109.2C100.18,109.069 100.294,108.928 100.294,108.711C100.294,108.32 99.401,108.151 99.401,107.805C99.401,107.654 99.805,107.415 99.805,107.138C99.805,106.125 97.765,106.195 97.765,105.678C97.765,105.339 99.263,104.697 99.263,104.231C99.263,102.81 96.219,103.187 96.219,102.558C96.219,101.973 99.867,100.964 99.867,100.106C99.867,100.106 99.1,99.64 97.918,99.64C96.269,99.64 94.255,100.534 93.515,101.287C92.772,102.042 92.582,102.194 90.888,103.05C90.591,101.998 90.145,101.801 89.872,101.791C89.278,102.852 88.858,104.049 88.858,104.049C88.01,102.444 86.846,103.05 86.846,101.3C84.858,100.546 79.271,104.144 78.422,104.144C77.611,104.144 79.026,101.18 79.026,101.18C77.611,100.992 76.213,101.313 76.213,101.313C76.382,100.859 77.138,99.802 77.138,99.802C75.684,99.802 70.664,101.954 69.242,101.954C69.028,101.954 68.903,101.778 68.903,101.69C68.903,101.204 69.845,100.11 70.793,99.374C70.616,99.326 70.068,99.127 70.068,98.525C70.068,98.174 70.218,98.141 70.218,98.004C70.218,97.865 70.011,97.84 69.843,97.84C68.675,97.84 66.663,98.34 66.663,98.34C66.663,98.34 69.787,97.169 71.061,97.169C71.156,97.169 71.488,97.18 71.488,97.362C71.488,97.777 70.847,97.758 70.847,98.343C70.847,98.676 71.114,98.926 71.265,99.04C71.645,98.799 71.999,98.646 72.263,98.646C72.615,98.646 72.578,98.984 72.578,98.984C72.578,98.984 71.986,99.298 71.986,99.613C71.986,99.928 72.59,100.218 73.433,100.218C73.433,100.218 78.139,98.367 80.158,98.367C80.46,98.367 81.045,98.499 81.045,99.348C81.045,100.197 80.196,100.858 81.744,100.858C83.524,100.858 88.582,98.732 91.45,98.732C91.908,98.732 91.712,99.587 90.75,100.568C90.695,100.834 90.644,101.423 91.302,101.423C91.928,101.423 92.859,100.668 94.155,100.467C95.452,100.266 95.728,99.209 97.099,99.209C97.44,99.209 98.069,99.234 98.32,99.234C98.571,99.234 101.479,98.857 101.479,100.139C101.479,101.172 100.799,101.926 100.395,102.254C99.993,102.58 99.806,102.856 99.806,103.248C99.806,103.706 100.409,103.738 100.409,104.305C100.409,104.657 100.208,104.757 100.208,105.009C100.208,105.563 100.851,105.676 100.851,106.18C100.851,106.632 100.259,106.922 100.259,106.922C100.609,107.599 101.078,108.56 101.22,109.198L103.808,109.198C104.498,108.806 105.485,108.069 105.485,107.058C105.481,105.615 103.83,105.794 103.83,104.746Z" style="fill:white;fill-rule:nonzero;"/>
                <path d="M64.565,112.317L64.565,112.155C65.5,111.946 65.793,111.559 66.234,110.971C66.437,110.701 66.649,110.422 66.545,110.242C66.441,110.064 66.073,110.057 65.775,110.052L62.859,110.052L62.27,110.835L62.628,110.835L60.499,113.663L60.142,113.663L59.551,114.444L61.242,114.444L62.638,112.591L63.705,112.591C63.705,112.591 62.563,114.106 62.565,114.106C62.414,114.309 62.43,114.366 62.435,114.374C62.467,114.44 62.796,114.442 62.953,114.444L63.968,114.444L64.558,113.663L64.184,113.663C64.184,113.663 64.654,113.038 64.654,113.04C64.803,112.832 64.923,112.647 64.888,112.498C64.859,112.391 64.747,112.358 64.565,112.317ZM63.155,111.904L63.962,110.835L65.03,110.835L64.222,111.904L63.155,111.904Z" style="fill:white;fill-rule:nonzero;"/>
                <path d="M73.683,113.663L75.616,110.053L73.351,110.053L69.861,113.663L69.455,113.663L68.865,114.444L70.394,114.444L71.421,113.335L72.546,113.335L71.907,114.444L73.448,114.444L74.038,113.663L73.683,113.663ZM72.925,112.712L71.977,112.712L73.808,110.759L74.039,110.759L72.925,112.712Z" style="fill:white;fill-rule:nonzero;"/>
                <path d="M91.725,110.835L92.09,110.835L89.962,113.663L89.595,113.663L89.005,114.444L92.843,114.444L93.873,113.074L92.716,113.074L92.273,113.663L91.255,113.663L92.1,112.54L93.245,112.54L93.751,111.867L92.607,111.867L93.384,110.835L94.402,110.835L93.994,111.377L95.066,111.377L96.064,110.052L92.316,110.052L91.725,110.835Z" style="fill:white;fill-rule:nonzero;"/>
                <path d="M88.65,113.663L89.879,112.028L88.82,112.028L90.539,110.835L91.025,110.835L91.614,110.052L90.355,110.052L87.775,112.011L87.574,112.011L89.046,110.052L87.35,110.052L86.759,110.835L87.125,110.835L86.038,112.277C85.847,112.756 85.535,113.293 85.028,113.872C84.838,114.089 84.649,114.278 84.465,114.444L85.739,114.444L87.053,112.701L88.079,112.701L86.765,114.444L88.472,114.444L89.062,113.663L88.65,113.663Z" style="fill:white;fill-rule:nonzero;"/>
                <path d="M78.464,112.974L78.916,110.052L77.258,110.052L76.667,110.835L77.033,110.835L74.903,113.663L74.539,113.663L73.949,114.444L75.48,114.444L77.599,111.55L77.152,114.444L78.803,114.444L79.392,113.663L79.027,113.663L80.392,111.85C80.586,111.455 80.864,111.028 81.259,110.576C81.432,110.379 81.602,110.206 81.768,110.053L80.601,110.053L78.464,112.974Z" style="fill:white;fill-rule:nonzero;"/>
                <path d="M70.8,111.229C71.425,110.402 71.687,110.052 70.391,110.052L69.295,110.052C68,110.052 67.574,110.619 67.097,111.253L65.418,113.481C64.977,114.066 64.725,114.444 65.996,114.444L67.012,114.444C68.378,114.444 68.769,113.924 69.38,113.116L70.8,111.229ZM67.65,113.663L66.608,113.663L68.737,110.835L69.779,110.835L67.65,113.663Z" style="fill:white;fill-rule:nonzero;"/>
                <path d="M80.133,114.35C80.091,114.226 80.052,114.08 80.025,113.912C79.924,114.11 79.924,114.26 80.133,114.35Z" style="fill:white;fill-rule:nonzero;"/>
                <g transform="matrix(-0.7522,-0.6589,0.6589,-0.7522,69.655,252.544)">
                    <rect x="81.929" y="113.048" width="0.764" height="0.255" style="fill:white;"/>
                </g>
                <g transform="matrix(-0.7522,-0.6589,0.6589,-0.7522,70.6991,251.984)">
                    <rect x="82.346" y="112.571" width="0.764" height="0.255" style="fill:white;"/>
                </g>
                <g transform="matrix(-0.7513,-0.6599,0.6599,-0.7513,71.5592,251.409)">
                    <rect x="82.763" y="112.096" width="0.764" height="0.254" style="fill:white;"/>
                </g>
                <g transform="matrix(-0.7534,-0.6576,0.6576,-0.7534,73.0276,250.883)">
                    <rect x="83.178" y="111.62" width="0.765" height="0.253" style="fill:white;"/>
                </g>
                <g transform="matrix(-0.7525,-0.6586,0.6586,-0.7525,73.8878,250.308)">
                    <rect x="83.595" y="111.143" width="0.764" height="0.255" style="fill:white;"/>
                </g>
            </g>
        </g>
        <g transform="matrix(118.78,0,0,118.78,0,0)">
            <g>
                <path d="M76.719,113.668L75.802,114.925L76.531,114.925L76.719,113.668Z" style="fill:rgb(203,204,206);fill-rule:nonzero;"/>
                <path d="M61.947,114.617C61.924,114.569 61.908,114.523 61.899,114.477L61.561,114.925L62.332,114.925C62.169,114.876 62.032,114.786 61.947,114.617Z" style="fill:rgb(203,204,206);fill-rule:nonzero;"/>
                <path d="M79.494,114.465C79.489,114.459 79.487,114.451 79.484,114.444L79.121,114.925L80.159,114.925C79.865,114.858 79.622,114.726 79.494,114.465Z" style="fill:rgb(203,204,206);fill-rule:nonzero;"/>
                <path d="M71.005,114.925L71.522,114.023L70.688,114.925L71.005,114.925Z" style="fill:rgb(203,204,206);fill-rule:nonzero;"/>
                <path d="M64.61,114.495L64.287,114.925L65.263,114.925C64.979,114.862 64.744,114.735 64.61,114.495Z" style="fill:rgb(203,204,206);fill-rule:nonzero;"/>
                <path d="M82.562,120.654L80.505,120.654L78.859,123.766L76.369,123.766L75.934,124.587L80.368,124.587L87.113,114.988L85.56,114.988L82.562,120.654ZM80.212,124.286L76.437,124.286L76.553,124.068L79.042,124.068L80.688,120.957L82.552,120.957L80.212,124.286ZM86.321,115.592L83.331,119.849L85.583,115.592L86.321,115.592Z" style="fill:rgb(203,204,206);fill-rule:nonzero;"/>
                <path d="M105.651,124.286L108.18,119.505L108.975,119.505L111.557,114.623L105.327,114.623L101.868,117.902L104.131,109.406L104.186,109.199L103.804,109.199L101.216,109.199C101.074,108.561 100.605,107.6 100.255,106.923C100.255,106.923 100.847,106.632 100.847,106.181C100.847,105.677 100.204,105.563 100.204,105.01C100.204,104.759 100.405,104.658 100.405,104.306C100.405,103.74 99.802,103.708 99.802,103.249C99.802,102.857 99.99,102.582 100.391,102.255C100.796,101.927 101.475,101.173 101.475,100.14C101.475,98.858 98.567,99.235 98.316,99.235C98.065,99.235 97.436,99.21 97.095,99.21C95.723,99.21 95.448,100.267 94.151,100.468C92.855,100.669 91.925,101.424 91.298,101.424C90.64,101.424 90.692,100.835 90.746,100.569C91.708,99.588 91.904,98.733 91.446,98.733C88.578,98.733 83.52,100.859 81.74,100.859C80.192,100.859 81.041,100.198 81.041,99.349C81.041,98.5 80.456,98.368 80.154,98.368C78.135,98.368 73.429,100.219 73.429,100.219C72.586,100.219 71.982,99.928 71.982,99.614C71.982,99.3 72.574,98.985 72.574,98.985C72.574,98.985 72.611,98.647 72.259,98.647C71.995,98.647 71.641,98.8 71.261,99.041C71.11,98.927 70.843,98.677 70.843,98.344C70.843,97.759 71.484,97.777 71.484,97.363C71.484,97.181 71.152,97.17 71.057,97.17C69.783,97.17 66.659,98.341 66.659,98.341C66.659,98.341 68.671,97.841 69.839,97.841C70.007,97.841 70.214,97.866 70.214,98.005C70.214,98.142 70.064,98.176 70.064,98.526C70.064,99.128 70.612,99.327 70.789,99.375C69.841,100.111 68.899,101.205 68.899,101.691C68.899,101.779 69.024,101.955 69.238,101.955C70.659,101.955 75.68,99.803 77.134,99.803C77.134,99.803 76.378,100.86 76.209,101.314C76.209,101.314 77.606,100.993 79.022,101.181C79.022,101.181 77.607,104.145 78.418,104.145C79.267,104.145 84.854,100.547 86.842,101.301C86.842,103.051 88.006,102.445 88.854,104.05C88.854,104.05 89.273,102.853 89.868,101.792C90.141,101.802 90.587,101.999 90.884,103.051C92.578,102.195 92.768,102.043 93.511,101.288C94.252,100.535 96.265,99.641 97.914,99.641C99.096,99.641 99.863,100.107 99.863,100.107C99.863,100.965 96.215,101.974 96.215,102.559C96.215,103.188 99.259,102.811 99.259,104.232C99.259,104.697 97.761,105.339 97.761,105.679C97.761,106.196 99.801,106.126 99.801,107.139C99.801,107.415 99.397,107.655 99.397,107.806C99.397,108.152 100.29,108.321 100.29,108.712C100.29,108.929 100.176,109.07 100.074,109.201L99.124,109.201L98.554,109.201L98.145,109.201L98.366,108.906L86.778,108.906L86.603,109.137C86.147,108.907 85.607,108.906 85.291,108.906L72.864,108.906L72.218,109.574C71.75,108.907 70.844,108.906 70.391,108.906L69.295,108.906C68.522,108.906 67.883,109.068 67.339,109.407C66.883,108.928 66.193,108.914 65.797,108.906C65.786,108.906 62.287,108.906 62.287,108.906L59.97,111.985L60.328,111.985L59.926,112.516L59.57,112.516L57.98,114.625C57.235,114.628 56.163,114.676 54.931,115.496C53.839,116.225 53.385,117.046 52.981,117.769C52.981,117.77 51.901,119.813 51.901,119.813C51.519,120.569 50.944,121.706 51.482,122.845C52.047,124.121 53.393,124.153 54.198,124.173C54.201,124.173 54.498,124.173 54.781,124.173L54.719,124.288L46.96,124.288L47.589,123.096L41.797,123.096L38.583,129.171L54.528,129.171C55.19,129.171 55.94,129.171 56.893,128.766C58.654,128.036 59.401,126.678 59.894,125.78C59.894,125.778 60.963,123.759 60.963,123.759C61.251,123.215 61.707,122.351 61.647,121.477L63.538,121.477L62.05,124.288L61.255,124.288L58.673,129.171L66.229,129.171L68.812,124.288L68.017,124.288L69.505,121.477L72.008,121.477L70.521,124.288L69.726,124.288L67.144,129.171L82.97,129.171L84.326,127.144L83.548,129.171L94.203,129.171L95.921,125.888L96.011,129.276L98.394,127.058L97.265,129.172L103.864,129.172L106.433,124.289L105.651,124.289L105.651,124.286ZM103.684,128.867L97.77,128.867L99.516,125.599L96.297,128.597L96.194,124.718L94.021,128.868L83.989,128.868L85.129,125.894L84.798,125.894L82.811,128.868L67.646,128.868L69.909,124.589L70.704,124.589L72.511,121.173L69.324,121.173L67.516,124.589L68.311,124.589L66.048,128.868L59.175,128.868L61.438,124.589L62.233,124.589L64.042,121.173L61.296,121.173C61.523,122.056 61.01,123.028 60.697,123.617C60.697,123.617 59.635,125.622 59.632,125.633C59.157,126.493 58.442,127.796 56.777,128.488C55.88,128.868 55.162,128.868 54.529,128.868L39.086,128.868L41.979,123.396L47.089,123.396L46.458,124.589L54.9,124.589L55.28,123.871L54.205,123.869C53.424,123.851 52.245,123.824 51.754,122.716C51.28,121.71 51.789,120.701 52.167,119.952C52.167,119.952 53.242,117.92 53.245,117.913C53.631,117.22 54.068,116.434 55.098,115.746C56.329,114.925 57.403,114.925 58.114,114.925L58.508,114.925L59.87,113.119L60.228,113.119L61.539,111.379L61.18,111.379L62.589,109.508L65.787,109.509C66.196,109.517 66.757,109.528 67.015,109.97C67.094,110.104 67.122,110.238 67.118,110.368C67.556,109.901 68.165,109.508 69.296,109.508L70.392,109.508C70.942,109.508 71.548,109.548 71.784,110.019C71.97,110.393 71.818,110.739 71.53,111.155L73.121,109.509L76.525,109.509L74.593,113.12L74.635,113.12L75.946,111.38L75.578,111.38L76.99,109.509L79.553,109.509L79.345,110.851L80.332,109.509L82.465,109.509C83.1,109.096 83.666,108.952 84.089,108.917C84.836,108.854 85.317,109.102 85.337,109.111C85.367,109.129 85.392,109.155 85.406,109.188L85.537,109.492L85.633,109.518C86.074,109.544 86.496,109.646 86.684,110.02C86.685,110.024 86.686,110.027 86.688,110.031L87.082,109.509L97.157,109.509L95.34,111.923L94.394,111.923L94.39,111.93L93.936,112.533L94.967,112.533L93.163,114.927L94.146,114.927L90.746,124.59L91.244,124.59L94.095,119.205L93.306,119.205L98.247,109.504L103.798,109.504L101.305,118.857L105.453,114.928L111.06,114.928L108.8,119.206L108,119.206L105.15,124.591L105.944,124.591L103.684,128.867ZM97.858,109.591L92.943,119.243L94.568,114.623L94.131,114.623L97.858,109.591ZM93.588,119.505L91.386,123.668L92.851,119.505L93.588,119.505Z" style="fill:rgb(203,204,206);fill-rule:nonzero;"/>
                <path d="M107.563,121.506L106.464,125.101L107.01,125.184L104.961,129.17L116.387,129.17L107.563,121.506ZM107.586,124.889L106.953,124.794L107.755,122.172L115.379,128.79L105.58,128.79L107.586,124.889Z" style="fill:rgb(203,204,206);fill-rule:nonzero;"/>
            </g>
        </g>
        <g transform="matrix(118.78,0,0,118.78,0,0)">
            <g>
                <path d="M60.299,120.917C59.884,120.489 59.132,120.469 58.467,120.452L56.331,120.452L57.392,118.449L59.002,118.449L58.445,119.504L61.656,119.504L63.678,115.681L58.113,115.681C57.457,115.681 56.557,115.681 55.515,116.374C54.637,116.961 54.264,117.632 53.904,118.28C53.903,118.282 52.834,120.305 52.834,120.305C52.5,120.968 52.119,121.72 52.436,122.393C52.742,123.079 53.528,123.097 54.223,123.114C54.223,123.114 55.964,123.116 56.534,123.116L55.354,125.344L45.204,125.344L45.835,124.152L42.434,124.152L40.338,128.112L54.528,128.112C55.144,128.112 55.725,128.112 56.484,127.792C57.908,127.202 58.521,126.085 58.969,125.27L60.031,123.264C60.415,122.537 60.939,121.545 60.299,120.917ZM59.831,123.157C59.831,123.158 58.77,125.159 58.77,125.159C58.314,125.989 57.747,127.022 56.394,127.584C55.68,127.886 55.121,127.886 54.528,127.886L40.714,127.886L42.57,124.378L45.46,124.378L44.829,125.571L55.491,125.571L56.91,122.888L54.227,122.888C53.57,122.871 52.89,122.856 52.644,122.299C52.373,121.726 52.724,121.027 53.035,120.409C53.035,120.41 54.104,118.388 54.104,118.388C54.465,117.737 54.81,117.118 55.642,116.563C56.626,115.908 57.486,115.908 58.114,115.908L63.303,115.908L61.521,119.277L58.821,119.277L59.378,118.222L57.254,118.222L55.954,120.679L58.462,120.679C59.082,120.694 59.786,120.714 60.14,121.079C60.66,121.589 60.2,122.459 59.831,123.157Z" style="fill:rgb(155,205,101);fill-rule:nonzero;"/>
                <path d="M69.91,118.448L70.883,118.448L69.841,120.418L72.447,120.418L74.955,115.68L64.221,115.68L61.715,120.418L64.323,120.418L65.365,118.448L66.336,118.448L62.687,125.344L61.892,125.344L60.428,128.112L65.594,128.112L67.059,125.344L66.263,125.344L69.91,118.448ZM66.682,125.571L65.458,127.886L60.804,127.886L62.029,125.571L62.824,125.571L66.712,118.221L65.227,118.221L64.185,120.192L62.09,120.192L64.358,115.907L74.578,115.907L72.31,120.192L70.216,120.192L71.258,118.221L69.775,118.221L65.887,125.571L66.682,125.571Z" style="fill:rgb(155,205,101);fill-rule:nonzero;"/>
                <path d="M85.496,123.028L87.327,123.028L89.33,117.735L89.1,117.735L85.496,123.028ZM87.169,122.803L85.924,122.803L88.746,118.658L87.169,122.803Z" style="fill:rgb(155,205,101);fill-rule:nonzero;"/>
                <path d="M107.545,118.448L108.338,118.448L109.803,115.68L105.749,115.68L100.074,121.056L100.141,120.273L102.81,110.256L98.704,110.256L94.531,118.448L95.34,118.448L91.695,125.344L89.675,125.344L93.075,115.68L87.55,115.68L80.761,125.344L74.681,125.344L75.914,123.012L78.404,123.012L79.712,120.538L77.224,120.538L78.327,118.449L79.835,118.449L79.065,119.901L82.105,119.901L84.337,115.681L75.473,115.681L74.008,118.449L74.802,118.449L71.154,125.345L70.359,125.345L68.896,128.113L82.403,128.113L84.391,125.139L86.224,125.139L85.084,128.113L93.561,128.113L96.868,121.798L97.004,126.905L102.314,121.96L99.027,128.113L103.227,128.113L104.691,125.345L103.894,125.345L107.545,118.448ZM85.416,127.886L86.557,124.911L84.273,124.911L82.286,127.886L69.275,127.886L70.5,125.571L71.296,125.571L75.182,118.221L74.387,118.221L75.612,115.907L83.965,115.907L81.973,119.674L79.446,119.674L80.215,118.222L78.194,118.222L76.85,120.764L79.339,120.764L78.27,122.785L75.78,122.785L74.307,125.571L80.88,125.571L87.669,115.907L92.756,115.907L89.358,125.571L90.765,125.571L89.539,127.886L85.416,127.886ZM104.314,125.571L103.09,127.886L99.405,127.886L103.149,120.843L97.219,126.396L97.073,120.921L93.427,127.886L89.794,127.886L91.019,125.571L91.832,125.571L95.72,118.221L94.903,118.221L98.843,110.482L102.517,110.482L99.918,120.233L99.8,121.629L105.839,115.906L109.429,115.906L108.203,118.22L107.408,118.22L103.52,125.57L104.314,125.57L104.314,125.571Z" style="fill:rgb(155,205,101);fill-rule:nonzero;"/>
                <path d="M114.367,128.413L107.945,122.839L107.441,124.486L108.162,124.595L106.198,128.413L114.367,128.413ZM107.735,124.3L108.061,123.238L113.759,128.188L106.569,128.188L108.507,124.417L107.735,124.3Z" style="fill:rgb(155,205,101);fill-rule:nonzero;"/>
                <path d="M74.821,113.497L74.456,113.497L73.616,114.611L75.564,114.611L77.321,112.204L76.96,114.611L78.886,114.611L79.725,113.497L79.36,113.497L80.152,112.446C80.213,112.257 80.291,112.057 80.394,111.849L79.029,113.662L79.394,113.662L78.805,114.443L77.154,114.443L77.601,111.549L75.482,114.443L73.951,114.443L74.541,113.662L74.905,113.662L77.035,110.834L76.669,110.834L77.26,110.051L78.918,110.051L78.466,112.973L80.605,110.051L81.772,110.051C81.836,109.992 81.898,109.937 81.961,109.885L80.52,109.885L78.734,112.313L79.109,109.885L77.175,109.885L76.334,111L76.702,111L74.821,113.497Z" style="fill:rgb(155,205,101);fill-rule:nonzero;"/>
                <path d="M87.136,112.867L87.745,112.867L86.432,114.61L88.555,114.61L89.396,113.496L88.982,113.496L90.213,111.861L89.35,111.861L90.591,111L91.106,111L91.947,109.886L90.299,109.886L88.153,111.516L89.382,109.886L87.268,109.886L86.426,111L86.791,111L86.197,111.79C86.158,111.944 86.106,112.107 86.038,112.277L87.125,110.835L86.759,110.835L87.35,110.052L89.047,110.052L87.575,112.011L87.776,112.011L90.356,110.052L91.615,110.052L91.026,110.835L90.54,110.835L88.821,112.028L89.88,112.028L88.651,113.663L89.063,113.663L88.473,114.444L86.766,114.444L88.08,112.701L87.054,112.701L85.74,114.444L84.466,114.444C84.401,114.504 84.335,114.558 84.272,114.611L85.823,114.611L87.136,112.867Z" style="fill:rgb(155,205,101);fill-rule:nonzero;"/>
                <path d="M91.757,111L89.88,113.496L89.514,113.496L88.674,114.61L92.926,114.61L94.209,112.907L92.634,112.907L92.191,113.496L91.59,113.496L92.183,112.705L93.328,112.705L94.086,111.7L92.941,111.7L93.467,111L94.07,111L93.662,111.543L95.149,111.543L96.396,109.886L92.233,109.886L91.393,111L91.757,111ZM92.316,110.052L96.064,110.052L95.065,111.377L93.993,111.377L94.401,110.835L93.383,110.835L92.606,111.867L93.751,111.867L93.245,112.54L92.1,112.54L91.255,113.663L92.273,113.663L92.716,113.074L93.873,113.074L92.843,114.444L89.006,114.444L89.596,113.663L89.963,113.663L92.09,110.835L91.725,110.835L92.316,110.052Z" style="fill:rgb(155,205,101);fill-rule:nonzero;"/>
                <path d="M65.029,110.835L63.961,110.835L63.154,111.904L64.22,111.904L65.029,110.835ZM63.488,111.738L64.044,111L64.694,111L64.138,111.738L63.488,111.738Z" style="fill:rgb(155,205,101);fill-rule:nonzero;"/>
                <path d="M62.721,112.757L63.371,112.757L62.432,114.006C62.277,114.217 62.233,114.344 62.286,114.449C62.358,114.594 62.585,114.605 62.952,114.61C62.953,114.61 64.051,114.61 64.051,114.61L64.892,113.496L64.519,113.496L64.787,113.138C64.929,112.94 65.104,112.695 65.049,112.456C65.021,112.351 64.955,112.288 64.877,112.244C65.661,112.007 65.965,111.606 66.369,111.071C66.605,110.758 66.849,110.433 66.69,110.159C66.539,109.901 66.135,109.893 65.78,109.886L62.778,109.886L61.938,111L62.294,111L60.415,113.496L60.059,113.496L59.219,114.61L61.325,114.61L62.721,112.757ZM59.551,114.444L60.142,113.663L60.499,113.663L62.628,110.835L62.27,110.835L62.859,110.052L65.775,110.052C66.072,110.058 66.441,110.065 66.545,110.242C66.649,110.421 66.438,110.701 66.234,110.971C65.793,111.559 65.5,111.945 64.565,112.155L64.565,112.317C64.746,112.359 64.858,112.391 64.887,112.498C64.922,112.647 64.802,112.831 64.653,113.04C64.653,113.038 64.183,113.663 64.183,113.663L64.557,113.663L63.967,114.444L62.952,114.444C62.795,114.443 62.466,114.44 62.434,114.374C62.429,114.366 62.413,114.309 62.564,114.106C62.562,114.106 63.704,112.591 63.704,112.591L62.637,112.591L61.241,114.444L59.551,114.444Z" style="fill:rgb(155,205,101);fill-rule:nonzero;"/>
                <path d="M69.371,113.497L68.531,114.611L70.465,114.611L71.492,113.501L72.259,113.501L71.621,114.611L73.531,114.611L74.371,113.497L73.961,113.497L75.894,109.887L73.282,109.887L69.791,113.497L69.371,113.497ZM73.351,110.052L75.616,110.052L73.683,113.662L74.037,113.662L73.447,114.443L71.906,114.443L72.545,113.334L71.42,113.334L70.393,114.443L68.864,114.443L69.454,113.662L69.86,113.662L73.351,110.052Z" style="fill:rgb(155,205,101);fill-rule:nonzero;"/>
                <path d="M74.039,110.76L73.808,110.76L71.977,112.713L72.925,112.713L74.039,110.76ZM72.362,112.546L73.548,111.285L72.829,112.546L72.362,112.546Z" style="fill:rgb(155,205,101);fill-rule:nonzero;"/>
                <path d="M69.779,110.835L68.737,110.835L66.608,113.663L67.65,113.663L69.779,110.835ZM66.94,113.497L68.82,111.001L69.445,111.001L67.567,113.497L66.94,113.497Z" style="fill:rgb(155,205,101);fill-rule:nonzero;"/>
                <path d="M64.93,114.297C65.042,114.52 65.349,114.61 65.996,114.61L67.012,114.61C68.46,114.61 68.901,114.026 69.511,113.217C69.511,113.216 70.932,111.329 70.932,111.329C71.337,110.79 71.583,110.465 71.443,110.187C71.334,109.97 71.039,109.885 70.39,109.885L69.294,109.885C67.918,109.885 67.457,110.498 66.967,111.147L66.963,111.152L65.285,113.381C65.035,113.713 64.797,114.03 64.93,114.297ZM67.097,111.253C67.574,110.619 68,110.052 69.295,110.052L70.391,110.052C71.686,110.052 71.425,110.402 70.8,111.229L69.38,113.116C68.769,113.925 68.379,114.444 67.012,114.444L65.996,114.444C64.725,114.444 64.976,114.067 65.418,113.481L67.097,111.253Z" style="fill:rgb(155,205,101);fill-rule:nonzero;"/>
                <path d="M79.996,113.642C79.834,113.878 79.731,114.1 79.83,114.297C79.891,114.418 80.012,114.499 80.21,114.549C80.185,114.491 80.159,114.424 80.133,114.349C79.924,114.259 79.924,114.11 80.025,113.911C80.01,113.828 80,113.736 79.996,113.642Z" style="fill:rgb(155,205,101);fill-rule:nonzero;"/>
                <path d="M86.343,110.188C86.3,110.102 86.227,110.038 86.116,109.99C86.183,110.162 86.251,110.392 86.282,110.677C86.384,110.486 86.415,110.33 86.343,110.188Z" style="fill:rgb(155,205,101);fill-rule:nonzero;"/>
            </g>
        </g>
        <g transform="matrix(118.78,0,0,118.78,0,0)">
            <g>
                <path d="M81.767,113.031L82.096,112.656L82.429,112.947L82.517,112.847L82.184,112.555L82.512,112.179L82.845,112.471L82.932,112.37L82.599,112.078L82.929,111.702L83.263,111.994L83.35,111.893L83.016,111.602L83.346,111.226L83.679,111.517L83.768,111.417L83.435,111.125L83.762,110.749L84.096,111.041L85.282,109.686C85.282,109.684 85.28,109.683 85.28,109.681L85.142,109.362C84.85,109.237 83.305,108.71 81.494,110.778C79.686,112.848 80.413,114.31 80.577,114.581L80.91,114.675C80.912,114.676 80.914,114.677 80.916,114.677L82.103,113.322L81.767,113.031Z" style="fill:rgb(188,148,8);fill-rule:nonzero;"/>
                <path d="M85.712,109.864L85.379,109.77C85.378,109.769 85.375,109.768 85.373,109.768L84.187,111.123L84.521,111.415L84.193,111.79L83.859,111.498L83.772,111.598L84.105,111.89L83.776,112.265L83.442,111.973L83.355,112.074L83.689,112.366L83.359,112.741L83.026,112.449L82.937,112.55L83.271,112.842L82.944,113.217L82.61,112.925L82.521,113.026L82.854,113.318L82.526,113.693L82.192,113.401L81.005,114.756C81.005,114.758 81.008,114.76 81.008,114.762L81.145,115.079C81.438,115.206 82.983,115.733 84.793,113.663C86.604,111.597 85.876,110.135 85.712,109.864Z" style="fill:rgb(188,148,8);fill-rule:nonzero;"/>
            </g>
        </g>
        <g transform="matrix(118.78,0,0,118.78,0,0)">
            <g>
                <path d="M58.463,120.678L55.955,120.678L57.255,118.221L59.379,118.221L58.822,119.276L61.522,119.276L63.304,115.907L58.115,115.907C57.487,115.907 56.628,115.907 55.643,116.562C54.811,117.118 54.467,117.736 54.105,118.387C54.105,118.387 53.035,120.409 53.036,120.408C52.725,121.025 52.374,121.724 52.645,122.298C52.891,122.856 53.57,122.871 54.228,122.887L56.911,122.887L55.492,125.57L44.829,125.57L45.46,124.377L42.57,124.377L40.714,127.885L54.529,127.885C55.121,127.885 55.68,127.885 56.395,127.583C57.748,127.021 58.315,125.988 58.771,125.158C58.771,125.158 59.831,123.157 59.832,123.156C60.201,122.458 60.661,121.589 60.142,121.077C59.787,120.713 59.083,120.693 58.463,120.678Z" style="fill:rgb(112,56,149);fill-rule:nonzero;"/>
                <path d="M69.775,118.221L71.258,118.221L70.217,120.192L72.311,120.192L74.579,115.907L64.358,115.907L62.091,120.192L64.186,120.192L65.228,118.221L66.713,118.221L62.825,125.571L62.03,125.571L60.805,127.886L65.458,127.886L66.682,125.571L65.887,125.571L69.775,118.221Z" style="fill:rgb(112,56,149);fill-rule:nonzero;"/>
                <path d="M107.408,118.221L108.203,118.221L109.429,115.907L105.839,115.907L99.8,121.629L99.918,120.233L102.517,110.482L98.843,110.482L94.903,118.221L95.72,118.221L91.832,125.571L91.019,125.571L89.794,127.886L93.428,127.886L97.074,120.921L97.22,126.396L103.15,120.842L99.406,127.886L103.091,127.886L104.314,125.571L103.52,125.571L107.408,118.221Z" style="fill:rgb(112,56,149);fill-rule:nonzero;"/>
                <path d="M89.357,125.571L92.755,115.907L87.668,115.907L80.879,125.571L74.306,125.571L75.779,122.785L78.268,122.785L79.337,120.764L76.848,120.764L78.192,118.222L80.213,118.222L79.444,119.674L81.971,119.674L83.963,115.907L75.61,115.907L74.385,118.221L75.18,118.221L71.294,125.571L70.5,125.571L69.275,127.886L82.286,127.886L84.273,124.911L86.557,124.911L85.416,127.886L89.539,127.886L90.765,125.571L89.357,125.571ZM87.326,123.028L85.495,123.028L89.099,117.735L89.328,117.735L87.326,123.028Z" style="fill:rgb(112,56,149);fill-rule:nonzero;"/>
                <path d="M108.061,123.238L107.735,124.3L108.508,124.417L106.569,128.188L113.759,128.188L108.061,123.238Z" style="fill:rgb(112,56,149);fill-rule:nonzero;"/>
            </g>
        </g>
        <g transform="matrix(118.78,0,0,118.78,0,0)">
            <g>
                <path d="M68.93,100.093C68.287,100.866 67.567,101.913 67.567,102.708C67.567,103.387 68.002,103.936 69.474,103.936C71.739,103.936 74.532,102.01 74.532,102.01C74.23,102.765 74.588,103.123 75.173,103.123C75.758,103.123 77.532,102.595 77.532,102.595C77.532,102.595 76.739,103.879 76.739,104.634C76.739,105.388 77.609,105.747 78.438,105.747C80.193,105.747 85.094,103.05 85.094,103.05C85.094,103.05 84.213,104.445 84.213,105.15C84.213,105.855 85.345,106.471 86.365,106.471C87.444,106.471 88.529,105.791 88.864,105.564C88.826,105.722 88.804,105.871 88.804,106.005C88.804,106.408 88.994,106.797 89.396,106.797C91.283,106.797 93.628,104.644 93.628,104.644C94.214,105.199 96.735,104.615 96.735,104.615C96.735,104.615 94.694,105.162 94.694,105.888C94.694,106.633 97.097,107.172 97.097,107.172C97.097,107.172 96.724,107.269 96.724,107.526C96.724,108.262 98.565,108.665 98.565,109.144C98.565,109.162 98.559,109.181 98.555,109.199L99.125,109.199C99.129,109.168 99.133,109.134 99.133,109.098C99.133,108.284 97.744,108.143 97.744,107.652C97.744,107.338 98.441,107.318 98.441,107.318C98.441,107.318 96.073,106.642 96.073,105.746C96.073,105.029 98.017,104.35 98.017,104.35C92.825,104.633 94.686,102.548 94.686,102.548C94.686,102.548 90.849,105.866 89.635,105.866C89.396,105.866 89.384,105.463 89.384,105.463C89.384,104.645 90.391,102.582 90.391,102.582C90.391,102.582 89.537,103.795 89.082,104.902C85.689,106.15 84.882,105.618 84.882,104.972C84.882,103.907 86.986,102.028 86.099,102.028C84.966,102.028 80.117,105.123 78.147,105.123C76.349,105.123 78.247,102.105 78.247,102.105C78.587,101.789 78.537,101.595 78.295,101.595C77.445,101.595 76.058,102.349 75.333,102.349C75.068,102.349 75.012,102.217 75.012,102.123C75.012,101.633 76.417,100.368 76.417,100.368C76.417,100.368 71.152,103.311 68.85,103.311C68.151,103.311 67.924,102.971 67.924,102.594C67.924,101.537 69.907,99.028 69.907,99.028C69.907,99.028 69.584,99.337 69.177,99.799C69.173,99.554 68.92,99.074 67.02,99.074C64.987,99.074 61.15,99.839 61.15,99.839C61.15,99.839 69.547,96.688 72.075,96.688C72.109,96.688 72.774,96.669 72.774,97.028C72.774,97.386 71.894,98.153 71.894,98.153C71.894,98.153 74.539,97.168 75.511,97.168C76.359,97.168 75.312,97.933 74.519,98.519C73.726,99.104 73.237,99.482 73.66,99.482C74.397,99.482 81.738,95.641 83.946,95.641C84.059,95.641 84.375,95.65 84.375,95.927C84.375,96.468 82.549,97.814 82.549,98.543C82.549,98.543 82.575,98.719 82.776,98.719C83.437,98.719 87.38,96.763 88.739,96.763C89.677,96.763 89.06,97.72 89.06,97.72C89.06,97.72 91.683,96.517 93.041,96.517C94.815,96.517 93.933,98.264 93.5,98.975C92.554,99.629 92.025,100.433 91.695,101.184C91.695,101.184 95.357,98.027 99.623,98.027C100.326,98.027 101.008,98.253 101.008,98.253C101.008,98.253 99.295,97.474 99.295,97.109C99.295,96.53 104.304,96.719 104.304,99.638C104.304,100.14 104.203,100.555 104.203,100.555C104.203,100.555 104.714,101.216 104.714,102.141C104.714,103.499 103.827,103.896 103.827,104.745C103.827,105.793 105.478,105.614 105.478,107.058C105.478,108.069 104.491,108.806 103.801,109.198L104.183,109.198L104.128,109.405C104.67,109.089 106.089,108.155 106.089,107.086C106.089,105.714 104.353,105.538 104.353,104.871C104.353,104.469 105.674,103.65 105.674,102.115C105.674,101.197 104.995,100.655 104.995,100.655C105.246,96.68 100.967,96.315 100.113,96.315C99.257,96.315 98.25,96.566 98.25,96.931C98.25,97.223 98.7,97.522 98.879,97.631C96.71,97.648 95.18,98.04 94.093,98.615C94.279,98.287 94.639,97.565 94.639,96.881C94.639,95.964 93.832,95.837 93.317,95.837C92.159,95.837 89.506,96.755 89.506,96.755C89.506,96.755 89.808,96.151 88.864,96.151C87.127,96.151 83.36,98.073 83.36,98.073C83.36,98.073 84.898,96.497 84.898,95.677C84.898,95.403 84.738,95.063 84.02,95.063C81.209,95.063 75.274,98.422 75.274,98.422C75.274,98.422 76.519,97.554 76.519,97.082C76.519,96.893 76.397,96.732 75.774,96.732C74.868,96.732 73.288,97.12 73.288,97.12C73.288,97.12 74.101,96.227 72.622,96.227C69.621,96.227 60.958,99.309 59.435,100.266C59.435,100.266 63.858,99.631 66.724,99.631C68.469,99.633 68.862,99.909 68.93,100.093Z" style="fill-rule:nonzero;"/>
                <path d="M87.169,122.803L88.746,118.658L85.924,122.803L87.169,122.803Z" style="fill-rule:nonzero;"/>
                <path d="M64.694,111L64.044,111L63.488,111.738L64.138,111.738L64.694,111Z" style="fill-rule:nonzero;"/>
                <path d="M56.777,128.487C58.442,127.795 59.157,126.492 59.632,125.632C59.636,125.621 60.697,123.616 60.697,123.616C61.01,123.028 61.523,122.055 61.296,121.172L64.042,121.172L62.233,124.588L61.438,124.588L59.175,128.867L66.048,128.867L68.311,124.588L67.516,124.588L69.324,121.172L72.511,121.172L70.704,124.588L69.909,124.588L67.646,128.867L82.812,128.867L84.799,125.893L85.13,125.893L83.99,128.867L94.022,128.867L96.195,124.717L96.298,128.596L99.517,125.598L97.771,128.866L103.685,128.866L105.945,124.587L105.151,124.587L108.001,119.202L108.796,119.202L111.056,114.924L105.449,114.924L101.301,118.853L103.794,109.5L98.243,109.5L93.302,119.201L94.091,119.201L91.24,124.586L90.742,124.586L94.142,114.923L93.16,114.923L94.964,112.529L93.933,112.529L94.387,111.926L94.391,111.919L95.337,111.919L97.154,109.505L87.079,109.505L86.685,110.027C86.683,110.023 86.683,110.02 86.681,110.016C86.493,109.642 86.071,109.54 85.63,109.514L85.534,109.488L85.403,109.184C85.389,109.151 85.364,109.125 85.334,109.107C85.313,109.098 84.833,108.85 84.086,108.913C83.663,108.948 83.097,109.092 82.462,109.505L80.33,109.505L79.343,110.847L79.551,109.505L76.988,109.505L75.576,111.376L75.944,111.376L74.633,113.116L74.591,113.116L76.523,109.505L73.12,109.505L71.529,111.151C71.817,110.735 71.968,110.389 71.783,110.015C71.547,109.544 70.942,109.504 70.391,109.504L69.295,109.504C68.164,109.504 67.556,109.898 67.117,110.364C67.121,110.233 67.093,110.1 67.014,109.966C66.756,109.524 66.195,109.513 65.786,109.505L62.588,109.504L61.179,111.375L61.537,111.375L60.226,113.115L59.87,113.115L58.508,114.921L58.114,114.921C57.403,114.921 56.329,114.921 55.098,115.742C54.068,116.43 53.631,117.216 53.245,117.909C53.242,117.916 52.167,119.948 52.167,119.948C51.79,120.697 51.28,121.706 51.754,122.712C52.244,123.819 53.424,123.847 54.205,123.865L55.28,123.867L54.9,124.585L46.458,124.585L47.089,123.392L41.979,123.392L39.086,128.864L54.529,128.864C55.162,128.867 55.88,128.867 56.777,128.487ZM72.447,120.418L69.84,120.418L70.882,118.448L69.91,118.448L66.263,125.344L67.059,125.344L65.594,128.112L60.428,128.112L61.892,125.344L62.687,125.344L66.336,118.448L65.365,118.448L64.323,120.418L61.715,120.418L64.221,115.68L74.954,115.68L72.447,120.418ZM64.287,114.925L64.61,114.495C64.744,114.735 64.979,114.862 65.262,114.925L64.287,114.925ZM70.688,114.925L71.522,114.023L71.005,114.925L70.688,114.925ZM89.676,125.344L91.696,125.344L95.341,118.448L94.532,118.448L98.705,110.256L102.811,110.256L100.142,120.273L100.075,121.056L105.75,115.68L109.804,115.68L108.339,118.448L107.546,118.448L103.896,125.344L104.693,125.344L103.229,128.112L99.029,128.112L102.316,121.959L97.006,126.904L96.87,121.797L93.563,128.112L85.086,128.112L86.226,125.138L84.393,125.138L82.405,128.112L68.899,128.112L70.362,125.344L71.157,125.344L74.805,118.448L74.011,118.448L75.476,115.68L84.34,115.68L82.108,119.9L79.068,119.9L79.838,118.448L78.33,118.448L77.227,120.537L79.715,120.537L78.407,123.011L75.917,123.011L74.684,125.343L80.764,125.343L87.553,115.679L93.078,115.679L89.676,125.344ZM75.802,114.925L76.719,113.668L76.531,114.925L75.802,114.925ZM80.158,114.925L79.12,114.925L79.483,114.444C79.486,114.451 79.488,114.459 79.493,114.465C79.622,114.726 79.865,114.858 80.158,114.925ZM79.996,113.642C80,113.737 80.011,113.828 80.025,113.912C80.052,114.08 80.092,114.226 80.133,114.35C80.159,114.425 80.185,114.492 80.21,114.55C80.011,114.5 79.891,114.419 79.83,114.298C79.731,114.1 79.833,113.877 79.996,113.642ZM85.561,114.989L87.114,114.989L80.369,124.588L75.935,124.588L76.37,123.767L78.86,123.767L80.506,120.655L82.563,120.655L85.561,114.989ZM96.396,109.886L95.149,111.543L93.662,111.543L94.07,111L93.467,111L92.941,111.7L94.086,111.7L93.328,112.705L92.183,112.705L91.59,113.496L92.191,113.496L92.634,112.907L94.209,112.907L92.926,114.61L88.674,114.61L89.514,113.496L89.88,113.496L91.757,111L91.393,111L92.234,109.886L96.396,109.886ZM86.343,110.188C86.415,110.33 86.384,110.486 86.282,110.677C86.251,110.392 86.183,110.162 86.116,109.99C86.227,110.038 86.3,110.102 86.343,110.188ZM86.197,111.791L86.791,111.001L86.426,111.001L87.266,109.887L89.38,109.887L88.151,111.517L90.297,109.887L91.945,109.887L91.106,111L90.591,111L89.35,111.861L90.213,111.861L88.982,113.496L89.396,113.496L88.555,114.61L86.432,114.61L87.745,112.867L87.136,112.867L85.822,114.61L84.271,114.61C84.334,114.557 84.4,114.503 84.465,114.443C84.65,114.277 84.839,114.089 85.028,113.871C85.535,113.292 85.847,112.755 86.038,112.276C86.106,112.107 86.158,111.945 86.197,111.791ZM85.374,109.768C85.376,109.768 85.378,109.769 85.38,109.77L85.713,109.864C85.877,110.135 86.605,111.597 84.796,113.666C82.986,115.735 81.441,115.208 81.148,115.082L81.011,114.765C81.011,114.764 81.008,114.762 81.008,114.759L82.195,113.404L82.529,113.696L82.857,113.321L82.524,113.029L82.613,112.928L82.947,113.22L83.274,112.845L82.94,112.553L83.029,112.452L83.362,112.744L83.692,112.369L83.358,112.077L83.445,111.976L83.779,112.268L84.108,111.893L83.775,111.601L83.862,111.501L84.196,111.793L84.524,111.418L84.19,111.126L85.374,109.768ZM81.94,113.02L82.107,112.829L82.682,113.332L82.514,113.524L81.94,113.02ZM82.356,112.543L82.523,112.352L83.099,112.855L82.931,113.046L82.356,112.543ZM82.774,112.066L82.94,111.875L83.515,112.379L83.348,112.57L82.774,112.066ZM83.189,111.591L83.357,111.4L83.931,111.903L83.765,112.094L83.189,111.591ZM83.606,111.115L83.774,110.924L84.348,111.427L84.181,111.619L83.606,111.115ZM85.142,109.363L85.28,109.682C85.28,109.683 85.282,109.684 85.282,109.687L84.096,111.042L83.762,110.75L83.435,111.126L83.768,111.418L83.679,111.518L83.346,111.227L83.016,111.603L83.35,111.894L83.263,111.995L82.929,111.703L82.599,112.079L82.932,112.371L82.845,112.472L82.512,112.18L82.184,112.556L82.517,112.848L82.429,112.948L82.096,112.657L81.767,113.032L82.101,113.324L80.914,114.679C80.913,114.679 80.91,114.678 80.908,114.677L80.575,114.583C80.411,114.312 79.684,112.851 81.492,110.78C83.305,108.711 84.849,109.238 85.142,109.363ZM74.821,113.497L76.702,111L76.334,111L77.175,109.886L79.109,109.886L78.734,112.314L80.52,109.886L81.959,109.886C81.896,109.938 81.834,109.993 81.77,110.052C81.603,110.205 81.434,110.378 81.261,110.575C80.865,111.027 80.588,111.454 80.394,111.849C80.291,112.057 80.213,112.256 80.152,112.446L79.36,113.497L79.726,113.497L78.887,114.611L76.96,114.611L77.321,112.204L75.564,114.611L73.616,114.611L74.456,113.497L74.821,113.497ZM73.281,109.886L75.893,109.886L73.96,113.496L74.37,113.496L73.53,114.61L71.62,114.61L72.258,113.5L71.491,113.5L70.464,114.61L68.53,114.61L69.37,113.496L69.789,113.496L73.281,109.886ZM66.964,111.153L66.968,111.148C67.457,110.499 67.918,109.886 69.295,109.886L70.391,109.886C71.04,109.886 71.335,109.97 71.444,110.188C71.584,110.466 71.338,110.791 70.933,111.33C70.933,111.33 69.512,113.216 69.512,113.218C68.902,114.027 68.461,114.611 67.013,114.611L65.997,114.611C65.351,114.611 65.043,114.52 64.931,114.298C64.798,114.031 65.036,113.715 65.287,113.382L66.964,111.153ZM60.059,113.497L60.415,113.497L62.294,111L61.938,111L62.777,109.886L65.779,109.886C66.134,109.893 66.538,109.901 66.689,110.159C66.848,110.433 66.604,110.759 66.368,111.071C65.964,111.607 65.66,112.008 64.876,112.244C64.955,112.288 65.02,112.351 65.048,112.456C65.103,112.694 64.928,112.939 64.786,113.138L64.518,113.496L64.891,113.496L64.05,114.61C64.05,114.61 62.952,114.61 62.951,114.61C62.584,114.605 62.357,114.594 62.285,114.449C62.232,114.345 62.276,114.217 62.431,114.006L63.37,112.757L62.72,112.757L61.324,114.61L59.218,114.61L60.059,113.497ZM62.332,114.925L61.56,114.925L61.898,114.477C61.908,114.523 61.923,114.569 61.946,114.617C62.032,114.786 62.169,114.876 62.332,114.925ZM42.435,124.152L45.836,124.152L45.205,125.344L55.355,125.344L56.535,123.116C55.965,123.116 54.224,123.114 54.224,123.114C53.529,123.097 52.743,123.079 52.437,122.393C52.121,121.72 52.501,120.968 52.835,120.305C52.835,120.305 53.904,118.282 53.905,118.28C54.265,117.632 54.638,116.961 55.516,116.374C56.558,115.681 57.458,115.681 58.114,115.681L63.679,115.681L61.657,119.504L58.446,119.504L59.003,118.449L57.393,118.449L56.332,120.452L58.468,120.452C59.133,120.47 59.885,120.489 60.3,120.917C60.94,121.546 60.415,122.537 60.032,123.263L58.97,125.269C58.522,126.084 57.908,127.201 56.485,127.791C55.726,128.111 55.145,128.111 54.529,128.111L40.339,128.111L42.435,124.152Z" style="fill-rule:nonzero;"/>
                <path d="M73.548,111.285L72.362,112.546L72.829,112.546L73.548,111.285Z" style="fill-rule:nonzero;"/>
                <path d="M69.445,111L68.821,111L66.94,113.497L67.567,113.497L69.445,111Z" style="fill-rule:nonzero;"/>
                <path d="M115.378,128.791L107.754,122.173L106.952,124.795L107.585,124.89L105.579,128.792L115.378,128.792L115.378,128.791ZM107.44,124.485L107.944,122.838L114.366,128.412L106.197,128.412L108.161,124.594L107.44,124.485Z" style="fill-rule:nonzero;"/>
                <path d="M37.639,130.955L115.455,130.955L116.06,129.811L38.245,129.811L37.639,130.955Z" style="fill-rule:nonzero;"/>
                <path d="M117.276,129.148L117.875,129.148L117.875,130.955L118.091,130.955L118.091,129.148L118.722,129.148L118.722,128.933L117.276,128.933L117.276,129.148Z" style="fill-rule:nonzero;"/>
                <path d="M120.396,128.933L119.875,130.578L119.358,128.933L119.01,128.933L119.01,130.955L119.227,130.955L119.227,129.236L119.769,130.955L119.985,130.955L120.526,129.236L120.526,130.955L120.743,130.955L120.743,128.933L120.396,128.933Z" style="fill-rule:nonzero;"/>
            </g>
        </g>
    </g>
</svg>
