<?xml version="1.0" encoding="UTF-8" standalone="no"?>
<!DOCTYPE svg PUBLIC "-//W3C//DTD SVG 1.1//EN" "http://www.w3.org/Graphics/SVG/1.1/DTD/svg11.dtd">
<svg width="100%" height="100%" viewBox="0 0 9270 4452" version="1.1" xmlns="http://www.w3.org/2000/svg" xmlns:xlink="http://www.w3.org/1999/xlink" xml:space="preserve" xmlns:serif="http://www.serif.com/" style="fill-rule:evenodd;clip-rule:evenodd;stroke-linejoin:round;stroke-miterlimit:1.41421;">
    <g transform="matrix(1,0,0,1,-41913.3,-62482.9)">
        <g transform="matrix(118.78,0,0,118.78,0,0)">
            <path d="M421.205,532.461C417.995,530.428 414.194,529.969 409.737,531.148C410.263,529.835 410.458,528.529 410.458,527.349L410.395,526.103L409.147,526.037C390.277,526.234 374.357,531.281 361.452,541.174L363.942,542.289C359.415,544.451 355.752,546.805 352.864,549.365L353.327,550.148L358.764,548.904C363.479,547.924 368.459,547.004 373.833,546.088C372.131,551.199 371.471,555.656 371.733,559.52L372.064,563.516L377.502,555.522C379.859,552.245 382.023,549.561 383.858,547.53C386.087,549.493 388.97,551.132 392.506,552.38C401.354,555.523 412.231,555.523 425.136,552.38C426.642,551.984 428.019,551.526 429.327,550.937L430.901,550.15L430.573,549.234L425.266,549.105L417.599,548.117C411.768,547.205 407.054,546.219 403.381,544.974L405.806,545.042C407.77,545.759 410,546.022 412.492,545.892C417.797,545.63 422.121,543.204 425.398,538.621L425.924,537.9L425.597,537.177L424.481,535.476C423.563,534.295 422.449,533.244 421.205,532.461Z" style="fill:rgb(167,177,183);fill-rule:nonzero;"/>
        </g>
        <g transform="matrix(118.78,0,0,118.78,0,0)">
            <path d="M396.568,543.533L406.2,543.596C413.346,546.481 419.371,544.516 424.285,537.832C421.139,531.412 415.44,529.969 406.987,533.574C408.361,531.674 409.019,529.64 409.019,527.48C398.142,526.953 386.286,530.037 373.309,536.587L374.685,536.913C370.493,538.618 367.217,539.993 364.919,541.108L367.478,542.153C363.479,543.858 359.941,545.757 356.928,547.923C365.578,546.087 371.932,544.909 375.931,544.382C373.769,549.753 372.85,554.736 373.181,559.255C377.11,553.357 380.648,548.706 383.924,545.429C391.066,554.081 404.758,555.917 424.875,551.003L425.072,550.542C410.983,549.232 401.482,546.873 396.568,543.533Z" style="fill-rule:nonzero;"/>
        </g>
        <g transform="matrix(118.78,0,0,118.78,0,0)">
            <path d="M406.332,529.184C402.336,529.311 397.942,529.905 393.165,531.084C387.332,532.461 382.088,534.424 377.241,536.914C377.174,536.914 377.174,536.982 377.174,537.045L377.374,537.176C379.406,536.52 382.681,535.799 387.137,534.881C391.917,533.965 395.59,533.375 398.077,533.244C397.094,534.226 395.652,535.344 393.491,536.457C391.392,537.568 389.039,538.551 386.48,539.402L390.15,535.601L390.215,535.406L390.082,535.343C382.613,536.261 375.536,538.157 368.983,541.109C368.92,541.109 368.92,541.173 368.92,541.302L369.117,541.368C373.18,540.057 377.435,539.139 381.891,538.55C379.404,541.302 377.502,544.646 376.058,548.706C375.272,550.673 374.819,552.44 374.556,553.948L374.619,554.081L374.819,554.015C378.094,548.577 381.17,544.515 384.12,541.894C385.624,544.316 388.049,546.216 391.327,547.728C397.16,550.281 405.48,551.328 416.358,550.935L416.485,550.802L416.358,550.607C408.756,549.822 402.731,548.443 398.271,546.416C395.454,545.236 393.552,543.926 392.506,542.551C391.853,541.828 391.59,541.11 391.653,540.516C400.366,537.44 405.35,533.705 406.462,529.379L406.462,529.248L406.332,529.184Z" style="fill:rgb(237,28,46);fill-rule:nonzero;"/>
        </g>
        <g transform="matrix(118.78,0,0,118.78,0,0)">
            <path d="M418.585,536.982L418.521,536.982L417.535,536.849L417.668,536.388L417.668,536.261L417.6,536.261L417.077,536.193L417.01,536.261L416.947,536.718L416.359,536.652L416.486,536.193L416.486,536.127L415.899,536.127L415.899,536.193L415.771,536.652L415.178,536.588L415.245,536.127L415.308,536.063L414.653,536.063L414.653,536.127L414.586,536.588L413.998,536.588L414.061,536.127L414.061,536.063L413.475,536.063L413.475,536.127L413.347,536.588L412.754,536.652L412.884,536.193L412.884,536.062L412.296,536.126L412.233,536.192L412.166,536.651L411.574,536.717L411.641,536.26L411.708,536.125L411.573,536.191L411.05,536.191L411.05,536.259L410.922,536.716L410.332,536.78L410.459,536.385L410.459,536.258L410.396,536.258L409.806,536.322L409.806,536.385L409.674,536.91L408.626,537.041L408.559,537.041L408.431,537.633L408.559,537.565L409.61,537.436L409.48,537.961L409.48,538.024L409.547,538.024L410.07,537.961L410.07,537.895L410.198,537.37L410.788,537.304L410.723,537.829L410.66,537.895L411.311,537.829L411.446,537.235L412.034,537.235L411.904,537.829L411.971,537.761L412.559,537.761L412.559,537.698L412.687,537.173L413.213,537.173L413.148,537.698L413.148,537.761L413.738,537.761L413.738,537.698L413.871,537.173L414.459,537.173L414.324,537.698L414.324,537.761L414.916,537.761L414.916,537.698L415.049,537.173L415.637,537.236L415.572,537.699L415.509,537.762L415.572,537.762L416.097,537.83L416.162,537.762L416.225,537.237L416.815,537.305L416.748,537.83L416.685,537.896L416.748,537.896L417.273,537.962L417.338,537.896L417.407,537.371L418.386,537.5L418.52,537.5L418.585,536.982Z" style="fill:white;fill-rule:nonzero;"/>
        </g>
        <g transform="matrix(118.78,0,0,118.78,0,0)">
            <path d="M379.009,540.322C374.82,541.302 371.019,542.353 367.607,543.467C365.842,543.99 364.531,544.451 363.612,544.842C363.545,544.91 363.48,544.973 363.545,545.104C363.612,545.168 363.612,545.237 363.808,545.237L367.346,544.253C370.426,543.468 373.834,542.815 377.57,542.155C378.025,541.5 378.484,540.914 379.009,540.322Z" style="fill:rgb(167,177,183);fill-rule:nonzero;"/>
        </g>
        <g transform="matrix(118.78,0,0,118.78,0,0)">
            <path d="M405.481,535.863L402.468,536.193C400.304,537.898 398.142,539.14 395.914,540.058L402.268,539.665C406.331,539.536 409.41,539.536 411.444,539.731L411.507,539.795L411.444,539.861L393.62,541.367L393.62,541.498L393.815,541.631L406.657,541.762C408.233,542.483 409.933,542.875 411.902,542.813C413.736,542.813 415.57,542.352 417.272,541.631C419.045,540.844 420.485,539.795 421.598,538.549L421.401,538.485L421.469,538.485C420.288,538.092 419.046,537.831 417.668,537.762L417.601,538.287C415.637,538.025 412.753,538.025 409.02,538.287L409.217,537.83L404.496,538.287L404.893,537.699C406.332,537.174 407.839,536.847 409.411,536.65L408.954,536.125C412.36,535.537 415.373,535.537 417.995,535.996L417.928,536.517C419.634,536.781 421.01,537.173 422.121,537.634L421.73,537.566L422.25,537.699L422.25,537.635C421.664,536.192 420.613,535.012 419.045,534.225C417.534,533.373 415.698,532.983 413.67,533.047C410.593,533.111 407.906,534.031 405.481,535.863Z" style="fill:rgb(167,177,183);fill-rule:nonzero;"/>
        </g>
    </g>
</svg>
