<?xml version="1.0" encoding="UTF-8" standalone="no"?>
<!DOCTYPE svg PUBLIC "-//W3C//DTD SVG 1.1//EN" "http://www.w3.org/Graphics/SVG/1.1/DTD/svg11.dtd">
<svg width="100%" height="100%" viewBox="0 0 8561 5631" version="1.1" xmlns="http://www.w3.org/2000/svg" xmlns:xlink="http://www.w3.org/1999/xlink" xml:space="preserve" xmlns:serif="http://www.serif.com/" style="fill-rule:evenodd;clip-rule:evenodd;stroke-linejoin:round;stroke-miterlimit:1.41421;">
    <g transform="matrix(1,0,0,1,-32728.6,-3321.34)">
        <g transform="matrix(118.78,0,0,118.78,0,0)">
            <g>
                <path d="M333.386,49.094C332.876,49.094 332.881,48.992 332.688,48.992C332.597,48.992 332.501,49.01 332.411,49.032C332.407,49.064 332.403,49.096 332.403,49.13C332.403,49.466 332.675,49.738 333.011,49.738C333.347,49.738 333.619,49.466 333.619,49.13C333.619,49.114 333.618,49.098 333.617,49.082C333.559,49.088 333.485,49.094 333.386,49.094Z" style="fill:white;fill-rule:nonzero;"/>
                <path d="M334.528,50.378C334.403,50.33 334.326,50.38 334.299,50.404C334.311,50.439 334.334,50.522 334.334,50.67C334.334,50.942 334.214,51.216 334.123,51.387C334.306,51.177 334.521,50.772 334.528,50.378Z" style="fill:white;fill-rule:nonzero;"/>
                <path d="M332.914,52.617C332.928,52.627 332.942,52.638 332.955,52.648C332.969,52.615 332.972,52.576 332.967,52.535C332.954,52.567 332.938,52.596 332.914,52.617Z" style="fill:white;fill-rule:nonzero;"/>
                <path d="M297.774,43.759C297.668,43.646 297.556,43.515 297.441,43.363C297.375,43.969 297.836,44.846 298.022,44.873C298.022,44.874 297.724,44.314 297.774,43.759Z" style="fill:white;fill-rule:nonzero;"/>
                <path d="M301.975,43.999L301.975,44.002C302.119,44.44 301.904,44.809 301.679,45.054C301.703,45.044 301.728,45.031 301.755,45.016C301.983,44.876 302.275,44.517 302.428,43.612C302.287,43.76 302.129,43.896 301.975,43.999Z" style="fill:white;fill-rule:nonzero;"/>
                <path d="M294.901,51.934C294.676,51.905 294.119,51.804 293.78,51.477C293.76,51.458 293.733,51.451 293.707,51.455C293.68,51.459 293.658,51.476 293.646,51.5L293.566,51.656C293.549,51.691 293.558,51.732 293.586,51.757C294.005,52.129 294.622,52.239 294.868,52.269C294.891,52.272 294.914,52.266 294.931,52.25C294.949,52.236 294.96,52.215 294.962,52.191L294.974,52.023C294.978,51.979 294.945,51.94 294.901,51.934Z" style="fill:white;fill-rule:nonzero;"/>
                <path d="M294.553,53.104C294.385,53.096 293.961,53.053 293.67,52.833C293.65,52.817 293.624,52.812 293.599,52.818C293.574,52.825 293.554,52.842 293.543,52.865L293.471,53.022C293.455,53.059 293.467,53.102 293.499,53.125C293.872,53.389 294.359,53.434 294.55,53.442C294.573,53.442 294.595,53.434 294.613,53.418C294.629,53.402 294.637,53.378 294.637,53.355L294.632,53.186C294.632,53.141 294.597,53.105 294.553,53.104Z" style="fill:white;fill-rule:nonzero;"/>
                <path d="M294.37,55.001C294.169,54.984 293.673,54.922 293.379,54.708C293.358,54.692 293.33,54.688 293.305,54.696C293.28,54.703 293.26,54.722 293.25,54.747L293.191,54.91C293.178,54.947 293.191,54.989 293.223,55.01C293.596,55.255 294.135,55.32 294.349,55.337C294.371,55.339 294.395,55.332 294.411,55.316C294.429,55.3 294.439,55.278 294.439,55.256L294.444,55.087C294.448,55.043 294.414,55.005 294.37,55.001Z" style="fill:white;fill-rule:nonzero;"/>
                <path d="M294.296,56.478L293.484,56.364C293.714,56.518 293.997,56.649 294.342,56.746C294.342,56.744 294.342,56.742 294.342,56.74L294.366,56.573C294.374,56.526 294.341,56.485 294.296,56.478Z" style="fill:white;fill-rule:nonzero;"/>
                <path d="M294.681,51.039C294.681,51.039 294.562,50.827 294.257,50.905C294.224,51.009 294.156,51.224 294.073,51.525C294.205,51.606 294.352,51.663 294.489,51.705C294.576,51.375 294.648,51.14 294.681,51.039Z" style="fill:white;fill-rule:nonzero;"/>
                <path d="M293.917,52.14C293.873,52.327 293.829,52.529 293.785,52.743C293.913,52.83 294.067,52.884 294.209,52.916C294.251,52.698 294.295,52.493 294.339,52.304C294.205,52.263 294.061,52.21 293.917,52.14Z" style="fill:white;fill-rule:nonzero;"/>
                <path d="M293.669,53.383C293.605,53.777 293.55,54.196 293.517,54.632C293.642,54.708 293.803,54.759 293.953,54.795C293.985,54.355 294.038,53.926 294.102,53.525C293.965,53.495 293.816,53.45 293.669,53.383Z" style="fill:white;fill-rule:nonzero;"/>
                <path d="M293.481,55.295C293.472,55.601 293.475,55.913 293.492,56.223L293.941,56.286C293.923,55.998 293.918,55.708 293.923,55.42C293.785,55.392 293.631,55.353 293.481,55.295Z" style="fill:white;fill-rule:nonzero;"/>
                <path d="M297.9,37.378C297.9,37.378 297.805,37.262 297.642,37.102C297.555,37.244 297.385,37.456 297.157,37.423C297.051,37.408 296.96,37.317 296.889,37.151C296.801,36.943 296.754,36.631 296.772,36.455C296.58,36.355 296.373,36.279 296.159,36.249C296.159,36.249 295.854,37.709 296.96,37.865C297.613,37.956 297.9,37.378 297.9,37.378Z" style="fill:white;fill-rule:nonzero;"/>
                <path d="M301.891,37.479C301.998,36.721 301.325,36.215 301.325,36.215C301.293,36.263 301.257,36.359 301.225,36.482C301.402,36.658 301.525,36.962 301.5,37.136C301.485,37.245 301.431,37.336 301.344,37.402C301.293,37.441 301.232,37.468 301.165,37.484C301.209,37.743 301.322,37.945 301.545,37.977C301.65,37.991 301.828,37.938 301.891,37.479Z" style="fill:white;fill-rule:nonzero;"/>
            </g>
        </g>
        <g transform="matrix(118.78,0,0,118.78,0,0)">
            <g>
                <path d="M303.076,34.902C302.777,34.86 302.401,35.012 302.401,35.012C302.367,35.263 302.19,36.117 302.156,36.353C302.116,36.638 302.774,37.199 302.774,37.199C302.774,37.199 303.367,36.261 303.445,35.705C303.523,35.149 303.298,34.933 303.076,34.902Z" style="fill:rgb(163,211,154);fill-rule:nonzero;"/>
                <path d="M294.452,47.444C294.452,47.444 292.409,43.413 293.018,39.075C293.245,37.463 294.559,35.776 294.559,35.776L294.454,35.487C289.841,34.451 290.135,42.244 290.135,42.244C291.355,46.073 294.452,47.444 294.452,47.444Z" style="fill:rgb(163,211,154);fill-rule:nonzero;"/>
                <path d="M293.594,59.006C295.957,59.339 296.965,57.111 296.965,57.111C296.965,57.111 295.952,58.969 293.95,58.688C292.086,58.426 290.014,56.022 290.146,55.077C290.279,54.131 291.697,53.621 291.697,53.621C291.697,53.621 289.876,53.663 289.691,54.984C289.477,56.514 292.425,58.843 293.594,59.006Z" style="fill:rgb(163,211,154);fill-rule:nonzero;"/>
                <path d="M295.635,61.089C293.243,60.754 290.945,59.485 290.945,59.485C290.945,59.485 291.558,60.913 295.654,61.489C299.084,61.97 300.625,59.748 300.625,59.748C300.625,59.748 298.879,61.546 295.635,61.089Z" style="fill:rgb(163,211,154);fill-rule:nonzero;"/>
                <path d="M295.968,63.026C293.744,62.714 291.857,61.75 291.857,61.75C291.857,61.75 292.824,63.341 295.968,63.026Z" style="fill:rgb(163,211,154);fill-rule:nonzero;"/>
                <path d="M297.617,52.568C296.234,47.808 293.826,45.976 293.564,39.095C292.496,44.277 295.864,48.493 297.617,52.568Z" style="fill:rgb(163,211,154);fill-rule:nonzero;"/>
            </g>
        </g>
        <g transform="matrix(118.78,0,0,118.78,0,0)">
            <g>
                <path d="M334.181,50.263L334.228,50.283L334.246,50.292L334.246,50.311C334.246,50.331 334.256,50.346 334.265,50.358C334.308,50.322 334.408,50.265 334.558,50.327C334.575,50.316 334.6,50.292 334.581,50.246L334.569,50.216L334.601,50.206C334.604,50.206 334.684,50.179 334.69,50.068C334.526,50.151 334.355,50.214 334.181,50.263Z" style="fill:rgb(193,131,185);fill-rule:nonzero;"/>
                <path d="M331.792,50.235C331.409,50.58 331.042,50.623 330.831,50.609C331.23,51.024 331.525,51.386 331.771,51.69C331.707,51.51 331.581,51.221 331.364,50.984C331.355,50.976 331.306,50.927 331.323,50.881C331.341,50.835 331.404,50.83 331.45,50.83C331.828,50.83 331.99,50.548 331.996,50.536L332.003,50.523L332.018,50.521C332.02,50.52 332.226,50.493 332.44,50.353C332.117,50.313 331.875,50.257 331.792,50.235Z" style="fill:rgb(193,131,185);fill-rule:nonzero;"/>
                <path d="M332.327,52.347C332.544,52.568 332.756,52.722 333.032,52.804C332.992,52.718 332.631,52.486 332.327,52.347Z" style="fill:rgb(193,131,185);fill-rule:nonzero;"/>
                <path d="M303.677,46.981C302.995,46.886 302.978,47.77 302.978,47.77C302.978,47.77 303.173,47.299 303.465,47.34C304.004,47.415 303.844,48.413 303.775,48.904C303.629,49.943 304.152,50.659 304.152,50.659C304.152,50.659 303.909,49.5 304.035,48.592C304.056,48.453 304.148,48.091 304.304,48.112C304.86,48.191 305.045,49.295 305.045,49.295C305.128,48.709 304.587,47.109 303.677,46.981Z" style="fill:rgb(193,131,185);fill-rule:nonzero;"/>
                <path d="M301.852,48.468C300.986,48.27 300.92,47.884 300.695,47.016C300.38,45.803 299.299,45.245 299.109,44.465C299.07,44.445 299.042,44.431 299.026,44.42C299.024,44.421 299.019,44.422 299.016,44.423C298.861,44.44 298.614,44.412 298.289,44.201C298.733,45.333 299.792,46.123 300.078,46.971C300.378,47.865 301.034,48.737 301.902,48.858C302.793,48.983 302.907,48.025 302.907,48.025C302.907,48.025 302.62,48.646 301.852,48.468Z" style="fill:rgb(193,131,185);fill-rule:nonzero;"/>
            </g>
        </g>
        <g transform="matrix(118.78,0,0,118.78,0,0)">
            <g>
                <path d="M318.411,72.71L319.147,72.733L318.037,71.51L318.411,72.71Z" style="fill:rgb(142,142,145);fill-rule:nonzero;"/>
                <path d="M326.797,59.831C326.761,59.882 326.728,59.935 326.691,59.985L326.855,60.079C326.838,59.995 326.819,59.912 326.797,59.831Z" style="fill:rgb(142,142,145);fill-rule:nonzero;"/>
                <path d="M329.463,51.19C329.474,53.112 329.14,54.973 328.465,56.716C328.73,57.094 328.969,57.518 329.147,58.023C330.025,56.118 330.507,54.066 330.589,51.94C330.5,51.877 330.411,51.813 330.322,51.75C330.04,51.548 329.754,51.356 329.463,51.19Z" style="fill:rgb(142,142,145);fill-rule:nonzero;"/>
                <path d="M340.146,66.381L329.461,60.261C329.452,60.702 329.418,61.121 329.36,61.515L336.713,65.726L326.916,65.393C326.73,65.447 326.538,65.476 326.341,65.476C326.061,65.476 325.76,65.426 325.445,65.343L313.142,64.926C311.584,65.304 309.732,65.489 307.517,65.489C305.649,65.489 302.342,65.321 298.919,65.111L303.913,74.167L345.112,75.367L340.146,66.381ZM328.604,66.54C330.743,66.54 331.487,67.644 331.487,67.644L330.033,67.598C329.82,67.32 329.006,67.23 329.006,67.419C329.006,67.654 329.804,67.787 330.552,67.941C331.965,68.232 332.641,68.977 332.641,69.521C332.641,70.14 331.85,70.147 331.421,70.147C328.84,70.147 328.129,68.751 328.129,68.751L329.607,68.797C330.003,69.358 330.976,69.405 330.976,69.158C330.976,68.911 330.449,68.804 329.344,68.573C328.05,68.284 327.332,67.535 327.332,67.065C327.332,66.54 328.234,66.54 328.604,66.54ZM324.218,66.401C326.357,66.401 327.101,67.506 327.101,67.506L325.647,67.46C325.434,67.181 324.62,67.09 324.62,67.281C324.62,67.516 325.419,67.647 326.167,67.802C327.58,68.095 328.254,68.839 328.254,69.383C328.254,70.002 327.463,70.01 327.034,70.01C324.454,70.01 323.742,68.612 323.742,68.612L325.219,68.658C325.615,69.221 326.588,69.268 326.588,69.02C326.588,68.773 326.062,68.666 324.956,68.435C323.664,68.146 322.943,67.396 322.943,66.926C322.944,66.401 323.847,66.401 324.218,66.401ZM322.266,66.405L322.783,67.332L320.436,67.258L320.624,67.603L322.617,67.666L323.063,68.462L321.075,68.4L321.33,68.856L323.748,68.933L324.269,69.863L320.314,69.739L318.387,66.281L322.266,66.405ZM315.087,66.178L318.065,68.772L316.427,66.221L317.874,66.267L319.801,69.723L318.226,69.674L315.059,66.89L316.804,69.63L315.389,69.586L313.462,66.128L315.087,66.178ZM303.245,69.2L301.834,66.67L300.672,66.634L300.156,65.707L303.969,65.827L304.491,66.759L303.392,66.724L304.799,69.25L303.245,69.2ZM306.114,69.291L304.186,65.835L308.065,65.957L308.581,66.883L306.233,66.809L306.421,67.156L308.415,67.218L308.86,68.016L306.873,67.953L307.129,68.41L309.547,68.486L310.069,69.417L306.114,69.291ZM308.535,65.972L310.161,66.023L313.139,68.616L311.501,66.065L312.948,66.109L314.877,69.567L313.302,69.518L310.135,66.734L311.88,69.472L310.464,69.427L308.535,65.972ZM314.775,73.832L311.356,70.329L312.874,70.377L315.087,72.988L314.098,70.415L315.628,70.464L316.424,73.884L314.775,73.832ZM320.361,74.007L319.914,73.536L318.618,73.494L318.735,73.956C318.742,73.956 316.944,73.899 316.944,73.899L316.706,70.496L318.147,70.541L321.934,74.056L320.361,74.007ZM322.023,74.061L320.097,70.605L321.652,70.653L323.035,73.134L324.876,73.192L325.42,74.168L322.023,74.061ZM325.579,74.172L323.652,70.716L325.208,70.764L326.592,73.246L328.432,73.304L328.976,74.279L325.579,74.172ZM334.778,74.462L334.071,73.195L331.144,71.054L331.602,71.875L329.253,71.802L329.441,72.148L331.435,72.211L331.882,73.007L329.893,72.944L330.15,73.4L332.568,73.477L333.089,74.408L329.133,74.283L327.205,70.826L332.679,71L334.383,72.469L334.133,71.046L336.05,71.107L335.675,73.274L336.365,74.513L334.778,74.462ZM333.438,70.154L331.51,66.697L335.389,66.819L335.905,67.746L333.557,67.672L333.745,68.017L335.738,68.08L336.185,68.878L334.199,68.815L334.455,69.271L336.872,69.348L337.393,70.279L333.438,70.154ZM335.859,66.834L339.737,66.956L340.253,67.882L337.905,67.808L338.093,68.153L340.086,68.216L340.531,69.014L338.544,68.951L338.8,69.408L341.218,69.484L341.739,70.416L337.783,70.291L335.859,66.834Z" style="fill:rgb(142,142,145);fill-rule:nonzero;"/>
                <path d="M290.474,50.011L279.108,32.734L289.037,38.42C289.049,38.173 289.068,37.925 289.103,37.675C289.294,36.321 290.134,34.993 291.407,34.034C291.921,33.645 292.477,33.346 293.05,33.136C294.881,31.579 297.123,30.417 299.649,29.756C305.326,28.269 311.853,29.329 317.556,32.664C322.534,35.575 326.314,39.871 328.198,44.761C328.707,46.082 329.061,47.404 329.262,48.711C329.681,48.765 330.057,48.828 330.438,48.875C330.233,47.379 329.842,45.864 329.259,44.352C327.282,39.224 323.329,34.724 318.131,31.684C312.17,28.197 305.328,27.093 299.36,28.657C294.813,29.849 291.109,32.557 288.93,36.283C288.818,36.474 288.711,36.669 288.607,36.865L275.539,29.381L291.087,53.012C291.468,52.929 291.753,52.937 291.753,52.937C291.753,52.937 290.313,52.128 290.474,50.011Z" style="fill:rgb(142,142,145);fill-rule:nonzero;"/>
                <path d="M317.179,51.128L317.179,53.641C317.928,53.635 318.881,53.557 319.363,53.512L319.363,52.939C318.366,51.573 318.296,51.143 317.179,51.128Z" style="fill:rgb(142,142,145);fill-rule:nonzero;"/>
                <path d="M312.306,50.187L312.306,54.471C312.446,54.417 312.937,54.097 312.937,52.26C312.937,50.515 312.458,50.233 312.306,50.187Z" style="fill:rgb(142,142,145);fill-rule:nonzero;"/>
                <path d="M323.419,55.073C323.773,55.857 324.483,57.406 325.094,58.574C325.306,58.292 325.49,58.038 325.606,57.857C324.863,56.981 324.051,56.095 323.891,54.576C323.722,54.809 323.5,55.005 323.419,55.073Z" style="fill:rgb(142,142,145);fill-rule:nonzero;"/>
                <path d="M307.141,62.645C307.2,62.141 307.266,61.347 307.266,60.379L307.266,49.597C307.266,49.406 307.263,49.224 307.257,49.051C305.103,55.2 303.488,60.725 302.98,62.504L307.141,62.645Z" style="fill:rgb(142,142,145);fill-rule:nonzero;"/>
                <path d="M321.754,51.193L321.754,53.823C321.872,53.795 322.34,53.607 322.34,52.293C322.34,51.214 322.096,51.193 321.754,51.193Z" style="fill:rgb(142,142,145);fill-rule:nonzero;"/>
                <path d="M309.737,49.328L309.737,60.218C309.737,60.55 309.75,60.849 309.769,61.11C309.822,60.676 309.872,60.098 309.872,59.463L309.872,50.099C309.872,49.624 309.82,49.138 309.764,48.756C309.749,48.944 309.737,49.14 309.737,49.328Z" style="fill:rgb(142,142,145);fill-rule:nonzero;"/>
                <path d="M326.25,52.498C326.25,53.466 326.533,54.148 326.926,54.743C327.284,53.42 327.425,52.043 327.364,50.646C326.576,50.837 326.25,51.939 326.25,52.498Z" style="fill:rgb(142,142,145);fill-rule:nonzero;"/>
                <path d="M301.778,55.582C301.809,55.635 301.837,55.687 301.864,55.739C302.349,54.216 303.005,52.123 303.671,49.892C303.595,49.53 303.567,49.107 303.636,48.621C303.683,48.288 303.749,47.625 303.47,47.586C302.987,47.519 303.206,49.326 301.863,49.138C300.901,49.002 300.354,48.102 300.025,47.258C299.757,47.307 299.765,47.515 299.765,47.515C300.146,47.904 300.316,48.779 300.316,48.779C301.463,49.886 301.407,51.504 301.407,51.504C302.165,52.972 301.745,54.283 301.745,54.283C301.868,54.81 301.778,55.582 301.778,55.582Z" style="fill:rgb(142,142,145);fill-rule:nonzero;"/>
                <path d="M289.285,40.956L285.624,38.86L293.022,50.105C293.555,48.633 294.301,47.785 294.301,47.785C292.832,47.299 290.128,44.478 289.285,40.956Z" style="fill:rgb(142,142,145);fill-rule:nonzero;"/>
                <path d="M314.746,55.413C314.746,55.413 313.905,56.846 312.307,56.487L312.307,59.489C312.307,60.972 312.768,62.043 312.772,62.052C312.772,62.052 311.772,62.345 310.669,62.764L312.698,62.833C314.061,62.342 314.891,61.775 315.951,61.39L314.132,61.665C314.132,61.665 314.747,60.453 314.747,58.31L314.747,55.413L314.746,55.413Z" style="fill:rgb(142,142,145);fill-rule:nonzero;"/>
                <path d="M317.179,55.967L317.179,59.006C318.155,58.918 318.476,58.895 319.363,57.463L319.363,55.01C319.096,55.503 318.615,55.929 317.179,55.967Z" style="fill:rgb(142,142,145);fill-rule:nonzero;"/>
                <path d="M322.44,49.033C322.94,49.033 323.586,49.223 324.119,49.756C324.259,49.897 324.375,50.06 324.471,50.24C324.702,49.745 325.371,48.794 327.137,48.629C326.175,43.271 322.372,37.886 316.506,34.456C311.275,31.396 305.322,30.415 300.174,31.764C298.779,32.129 297.5,32.651 296.352,33.316C296.552,33.537 296.756,33.824 296.972,34.165C297.91,33.875 298.208,33.821 298.299,33.833C298.637,33.881 299.085,34.083 299.48,34.261C299.688,34.354 299.946,34.472 300.024,34.482C300.192,34.505 300.649,34.248 301.05,34.021C301.814,33.589 302.764,33.05 303.631,33.172C303.878,33.207 304.068,33.333 304.178,33.539C304.286,33.736 304.315,33.994 304.279,34.256C304.081,35.654 302.954,37.378 302.954,37.378C302.961,37.387 302.98,37.408 302.98,37.408C303.172,37.629 303.337,37.821 303.29,38.155C303.238,38.526 302.865,38.666 302.536,38.788C302.144,38.934 301.935,39.037 301.902,39.247C301.871,39.477 301.886,39.67 301.978,39.818C302.102,40.026 302.228,40.258 302.337,40.506C302.943,40.798 302.864,41.404 302.864,41.404C303.197,41.638 303.115,42.365 303.094,42.515C303.072,42.669 303.045,42.787 303.011,42.874C302.982,42.954 302.912,43.01 302.833,43.028C302.788,43.135 302.718,43.251 302.631,43.367C302.339,45.701 301.198,45.239 301.198,45.239C301.198,45.239 302.007,44.744 301.821,44.087C301.716,44.141 301.613,44.175 301.522,44.181C301.509,44.21 301.499,44.228 301.497,44.232C301.476,44.271 301.447,44.302 301.409,44.325C301.38,44.343 300.682,44.769 299.708,44.633C299.698,44.632 299.687,44.63 299.677,44.629C299.664,44.834 299.691,45.062 299.714,45.202C299.76,45.256 299.807,45.312 299.856,45.369C300.226,45.796 300.647,46.281 300.829,46.981L300.854,47.081C301.056,47.866 301.119,48.24 301.879,48.347C302.284,48.403 302.69,48.442 302.879,47.67C303.067,46.897 303.273,46.784 303.695,46.843C303.953,46.88 304.207,47.04 304.429,47.291C305.543,43.396 306.504,39.584 306.504,38.035C306.504,37.477 306.34,36.606 306.339,36.597L306.222,36.051L312.488,36.054L312.152,36.767C310.766,39.716 309.424,43.076 308.21,46.386C308.945,46.743 310.338,47.371 310.338,47.371C310.346,47.373 311.181,47.723 312.208,47.89L312.319,47.908C312.839,47.99 313.565,48.106 314.196,48.574L314.164,48.38C315.91,48.809 317.866,49.127 319.83,49.127C320.872,49.125 321.754,49.033 322.44,49.033Z" style="fill:rgb(142,142,145);fill-rule:nonzero;"/>
                <path d="M326.207,63.088C326.363,63.088 326.582,62.923 326.737,62.405L324.109,60.899C323.371,60.842 323.052,60.198 322.855,59.767L322.075,58.018C321.956,57.75 321.851,57.512 321.755,57.3L321.755,58.414C321.755,59.45 321.963,60.039 321.964,60.044L322.296,60.92L319.874,60.974C323.223,61.296 325.234,63.088 326.207,63.088Z" style="fill:rgb(142,142,145);fill-rule:nonzero;"/>
                <path d="M302.259,56.863C302.297,57.064 302.316,57.258 302.32,57.446C302.727,56.193 303.475,53.861 304.279,51.213C304.225,51.146 304.166,51.063 304.103,50.966C303.37,53.39 302.682,55.555 302.259,56.863Z" style="fill:rgb(142,142,145);fill-rule:nonzero;"/>
                <path d="M304.86,49.272C304.833,49.103 304.796,48.944 304.747,48.806C304.583,49.365 304.418,49.917 304.256,50.461C304.286,50.63 304.32,50.797 304.356,50.959C304.523,50.407 304.692,49.843 304.86,49.272Z" style="fill:rgb(142,142,145);fill-rule:nonzero;"/>
                <path d="M307.931,46.391C307.946,46.349 307.96,46.308 307.975,46.267C309.189,42.959 310.53,39.602 311.914,36.654L312.073,36.316L307.043,36.316L307.097,36.596C307.098,36.605 307.261,37.477 307.261,38.034C307.261,39.699 306.152,43.974 304.937,48.158C304.987,48.29 305.03,48.428 305.067,48.571C306.328,44.257 307.499,39.779 307.499,38.034C307.499,37.447 307.331,36.553 307.331,36.553L311.512,36.553C306.509,47.201 302.14,62.969 302.14,62.969L300.528,62.969C300.367,63.103 300.188,63.231 299.989,63.347L302.473,63.347L302.557,63.032C302.586,62.928 304.502,56.052 307.219,48.368C307.41,47.827 307.606,47.282 307.804,46.736L307.811,46.765C307.813,46.775 308.032,47.79 308.032,49.307L308.032,60.089C308.032,61.778 307.825,62.941 307.824,62.952L307.702,63.601L309.875,62.537L309.839,62.409C309.838,62.402 309.619,61.597 309.619,60.217L309.619,49.327C309.619,48.471 309.845,47.45 309.848,47.439L309.876,47.314L307.931,46.391ZM309.375,62.302L307.978,62.981C307.978,62.981 308.188,61.815 308.188,60.089L308.188,49.307C308.188,47.752 307.965,46.732 307.965,46.732L309.381,47.403C309.381,47.403 309.151,48.431 309.151,49.307L309.151,60.089C309.15,61.499 309.375,62.302 309.375,62.302Z" style="fill:rgb(142,142,145);fill-rule:nonzero;"/>
                <path d="M321.239,50.149L321.239,54.293C321.739,54.424 323.272,54.523 323.272,52.06C323.271,49.782 322.047,50.262 321.239,50.149ZM322.473,53.938C322.197,54.152 321.877,54.195 321.636,54.189L321.636,50.538C322.412,50.535 323.114,50.476 323.114,52.06C323.114,52.979 322.898,53.61 322.473,53.938Z" style="fill:rgb(142,142,145);fill-rule:nonzero;"/>
                <path d="M312.19,48.005C311.136,47.834 310.293,47.478 310.293,47.478L310.396,47.904C310.399,47.914 310.63,48.971 310.63,49.967L310.63,59.331C310.63,60.667 310.408,61.753 310.405,61.764L310.274,62.358L312.492,61.569L312.452,61.424C312.449,61.416 312.187,60.448 312.187,59.489L312.187,55.642C312.321,55.739 312.626,55.922 313.06,55.922C313.652,55.922 315.404,55.54 315.404,52.102C315.404,48.387 313.245,48.175 312.19,48.005ZM312.892,55.544C312.365,55.544 312.036,55.123 312.036,55.123C312.511,55.043 313.86,55.017 313.86,52.066C313.86,48.931 312.58,49.3 311.734,48.929L311.734,59.329C311.734,60.312 312.002,61.287 312.002,61.287L310.56,61.794C310.56,61.794 310.789,60.698 310.789,59.328L310.789,49.964C310.789,48.939 310.552,47.867 310.552,47.867C310.552,47.867 311.176,48.113 312.203,48.254C313.23,48.395 314.947,48.799 314.947,52.066C314.946,55.175 313.418,55.544 312.892,55.544ZM312.188,54.939L312.188,49.415L312.189,49.415C312.932,49.605 313.702,49.624 313.702,52.067C313.702,54.576 312.734,54.853 312.188,54.939Z" style="fill:rgb(142,142,145);fill-rule:nonzero;"/>
                <path d="M316.388,62.906C316.387,62.907 316.385,62.908 316.383,62.91C316.662,62.719 317.638,62.514 318.728,62.514C322.035,62.514 324.811,64.898 326.341,64.898C327.606,64.898 329.301,63.441 329.301,60.016C329.301,55.8 326.192,55.747 326.192,52.498C326.192,50.927 326.851,50.547 327.318,50.459C326.12,50.63 325.771,51.841 325.771,52.498C325.771,56.01 328.88,55.887 328.88,60.016C328.88,63.229 327.334,64.476 326.341,64.476C325.024,64.476 322.113,62.092 318.728,62.092C317.687,62.092 316.554,62.282 316.146,62.562C314.758,63.545 312.417,64.49 307.517,64.49C305.29,64.49 303.667,64.389 303.667,64.389C317.146,64.068 314.011,61.316 318.728,61.316C322.627,61.316 324.747,63.572 326.341,63.572C326.816,63.572 327.861,63.239 327.861,60.682C327.861,57.082 324.734,57.188 324.734,53.078C324.734,49.235 326.63,49.025 328.33,49.025C330.039,49.025 330.747,49.289 331.353,49.267C331.353,49.267 330.643,49.1 329.787,48.983C329.314,48.918 328.799,48.868 328.33,48.868C326.473,48.868 325.037,49.293 324.669,51.718C324.669,51.709 324.669,51.701 324.669,51.692C324.669,51.142 324.568,50.718 324.41,50.387C323.992,49.506 323.173,49.303 322.745,49.303C321.551,49.303 320.699,49.478 319.768,49.373L319.929,49.699C319.93,49.702 320.142,50.154 320.142,51.408L320.142,57.406L319.475,58.332C319.456,58.366 318.969,59.185 317.762,59.307L317.059,59.374L317.059,55.35C319.208,55.341 319.367,54.521 319.671,53.814C319.66,53.815 318.107,53.978 317.059,53.976L317.059,50.439C318.341,50.488 318.942,50.83 319.284,51.392L319.583,51.885L319.583,49.374L319.428,49.367C317.686,49.287 315.751,48.943 315.733,48.94L315.157,48.837L315.295,49.194C315.296,49.199 315.511,49.768 315.511,51.252L315.511,58.373C315.511,59.748 315.262,60.4 315.26,60.406L315.052,60.938L319.64,60.358C319.64,60.359 321.929,60.299 321.929,60.299L321.851,60.088C321.849,60.083 321.635,59.485 321.635,58.418L321.635,55.258C321.884,55.508 322.151,56.099 322.72,57.386L323.5,59.135C323.706,59.588 324.045,60.273 324.859,60.273L326.025,60.273L325.808,60.01C325.133,59.186 323.471,55.488 323.141,54.747C323.3,54.643 323.583,54.428 323.862,54.085C324.162,53.717 324.455,53.2 324.591,52.507C324.581,52.69 324.575,52.88 324.575,53.08C324.575,57.255 327.701,57.216 327.701,60.684C327.701,63.269 326.659,63.341 326.34,63.341C325.072,63.341 322.939,61.089 318.854,61.089C317.037,61.089 316.222,61.563 315.352,62.075C313.948,62.902 312.026,64.034 303.661,64.232L297.075,64.232C297.075,64.232 302.473,64.913 307.516,64.913C311.64,64.911 314.459,64.273 316.388,62.906ZM319.43,59.935L315.409,60.462C315.409,60.462 315.672,59.801 315.672,58.37C315.672,56.938 315.672,51.249 315.672,51.249C315.672,49.703 315.444,49.133 315.444,49.133C315.444,49.133 317.349,49.474 319.088,49.554L319.088,50.847C318.636,50.103 317.787,50.161 316.613,50.023L316.613,54.123C317.855,54.167 319.064,54.028 319.064,54.028C319.064,54.028 318.803,55.098 316.613,54.952L316.613,59.571L317.779,59.46C319.091,59.328 319.614,58.405 319.614,58.405L319.43,59.935ZM320.144,58.04L320.144,58.233C320.144,58.806 320.066,59.242 319.996,59.525L320.144,58.04ZM322.673,54.57C322.673,54.57 324.611,58.969 325.366,59.891L324.559,59.891C324.26,59.891 323.968,59.775 323.644,59.066C322.099,55.667 321.954,54.929 321.238,54.929L321.238,58.232C321.238,59.325 321.461,59.924 321.461,59.924L320.019,59.964C320.019,59.964 320.301,59.351 320.301,58.233L320.301,51.407C320.301,50.081 320.072,49.626 320.072,49.626C321.185,49.626 322.14,49.524 322.481,49.524C323.068,49.524 324.214,49.782 324.214,51.639C324.214,53.757 322.673,54.57 322.673,54.57Z" style="fill:rgb(142,142,145);fill-rule:nonzero;"/>
                <path d="M327.318,50.458C327.349,50.455 327.379,50.448 327.41,50.445C327.38,50.449 327.35,50.453 327.318,50.458Z" style="fill:rgb(142,142,145);fill-rule:nonzero;"/>
                <path d="M331.572,52.33C331.572,52.33 330.369,49.731 326.774,49.81L328.066,50.07L327.558,50.172C327.558,50.172 329.624,50.407 330.757,51.856L331.572,52.33Z" style="fill:rgb(142,142,145);fill-rule:nonzero;"/>
                <path d="M297.421,58.939C297.812,59.249 298.091,59.284 298.091,59.284C300.355,58.907 301.003,56.928 301.003,56.928C301.661,55.873 301.554,54.212 301.554,54.212C301.804,53.042 301.238,51.885 301.238,51.885C301.277,50.737 300.175,49.023 300.175,49.023C299.952,48.254 299.416,47.677 299.416,47.677C299.416,47.677 299.197,47.855 298.817,47.802C298.717,47.788 298.484,47.744 298.359,47.632C298.269,47.653 298.122,47.698 298.005,47.682C297.557,47.619 297.318,47.236 297.196,46.997C297.196,46.997 296.644,46.561 296.689,45.994C296.689,45.994 296.497,45.7 296.446,45.447L295.766,45.314C295.766,45.314 295.879,45.178 296.416,45.221C296.416,45.221 296.404,45.047 296.223,44.744C296.016,44.398 296.161,43.833 295.962,43.673C295.962,43.673 295.861,43.347 295.852,43.213C295.689,43.138 295.397,43.171 295.161,42.958C295.161,42.958 295.219,42.92 295.355,42.939C295.491,42.958 295.639,43.011 295.698,43.019C295.748,43.026 295.848,43.011 295.848,43.011C295.848,43.011 295.869,42.856 295.721,42.632C295.572,42.407 295.63,42.171 295.518,41.857C295.518,41.857 295.324,41.22 295.353,41.012C295.203,40.84 295.033,40.816 295.003,40.702C295.003,40.702 295.029,40.666 295.071,40.672C295.113,40.678 295.222,40.732 295.257,40.713C295.257,40.713 295.099,40.129 294.928,39.836C294.133,42.735 295.571,45.995 296.84,48.459C297.892,50.503 298.886,52.433 298.545,54.863C298.237,57.053 296.911,58.346 296.148,58.921C295.579,59.35 294.968,59.65 294.453,59.767C295.167,59.839 295.756,59.746 295.756,59.746C295.67,59.621 295.687,59.425 295.687,59.425C295.798,59.582 296.028,59.756 296.028,59.756C297.345,59.733 297.799,59.4 297.799,59.4C297.431,59.206 297.421,58.939 297.421,58.939ZM298.846,56.81C299.838,57.351 300.651,57.181 300.651,57.181C300.651,57.181 299.98,57.711 298.846,56.81ZM299.266,54.019C300.382,53.817 301.175,54.362 301.175,54.362C301.175,54.362 300.064,54.055 299.266,54.019ZM300.943,51.702C300.943,51.702 299.877,51.345 298.873,51.43C300.029,51.083 300.943,51.702 300.943,51.702ZM297.394,48.453C298.819,48.15 299.728,48.845 299.728,48.845C299.728,48.845 298.579,48.449 297.394,48.453Z" style="fill:rgb(142,142,145);fill-rule:nonzero;"/>
                <path d="M297.002,37.13C297.038,37.208 297.097,37.302 297.171,37.313C297.347,37.337 297.489,37.141 297.557,37.023C297.381,36.858 297.146,36.667 296.88,36.513C296.878,36.664 296.913,36.934 297.002,37.13Z" style="fill:rgb(142,142,145);fill-rule:nonzero;"/>
                <path d="M301.389,37.121C301.407,37.001 301.331,36.794 301.214,36.638C301.209,36.631 301.202,36.623 301.197,36.616C301.152,36.844 301.125,37.125 301.15,37.373C301.198,37.36 301.242,37.341 301.277,37.313C301.34,37.265 301.379,37.199 301.389,37.121Z" style="fill:rgb(142,142,145);fill-rule:nonzero;"/>
            </g>
        </g>
        <g transform="matrix(118.78,0,0,118.78,0,0)">
            <g>
                <path d="M327.641,55.672C327.914,56.003 328.204,56.338 328.466,56.716C329.14,54.973 329.474,53.112 329.464,51.19C328.868,50.848 328.253,50.613 327.607,50.613C327.521,50.613 327.441,50.626 327.364,50.645C327.426,52.042 327.284,53.419 326.926,54.742C327.141,55.068 327.388,55.368 327.641,55.672Z" style="fill:rgb(36,147,60);fill-rule:nonzero;"/>
                <path d="M295.611,32.832C295.863,32.867 296.105,33.042 296.353,33.317C297.501,32.652 298.78,32.13 300.175,31.765C305.322,30.416 311.276,31.397 316.507,34.457C322.373,37.887 326.175,43.271 327.138,48.63C327.31,48.613 327.491,48.605 327.683,48.605C328.302,48.605 328.807,48.652 329.262,48.71C329.061,47.403 328.707,46.081 328.198,44.76C326.314,39.87 322.534,35.574 317.556,32.663C311.853,29.328 305.326,28.268 299.649,29.755C297.123,30.416 294.88,31.578 293.05,33.135C293.896,32.824 294.777,32.715 295.611,32.832Z" style="fill:rgb(36,147,60);fill-rule:nonzero;"/>
                <path d="M316.707,63.39C316.707,63.39 316.708,63.389 316.709,63.389L316.708,63.389C315.738,64.074 314.562,64.581 313.142,64.928L325.445,65.345C323.551,64.845 321.09,63.094 318.728,63.094C317.635,63.093 316.85,63.303 316.707,63.39Z" style="fill:rgb(36,147,60);fill-rule:nonzero;"/>
                <path d="M290.503,49.715C290.644,48.714 291.21,48.255 291.524,48.299C291.839,48.343 291.828,48.549 291.828,48.549C291.243,48.212 291.093,49.08 291.041,49.317C290.611,51.27 292.582,51.874 292.582,51.874C292.675,51.212 292.836,50.62 293.023,50.103L285.625,38.858L289.286,40.954C289.091,40.14 288.995,39.288 289.038,38.418L279.109,32.732L290.475,50.009C290.481,49.914 290.489,49.818 290.503,49.715Z" style="fill:rgb(36,147,60);fill-rule:nonzero;"/>
                <path d="M325.606,57.857C325.489,58.039 325.306,58.293 325.094,58.574C325.41,59.181 325.7,59.686 325.901,59.931L326.677,60.906L324.214,60.906C324.177,60.906 324.142,60.903 324.109,60.9L326.737,62.406C326.844,62.047 326.918,61.521 326.918,60.757C326.918,60.514 326.895,60.29 326.855,60.079L326.691,59.985C326.728,59.935 326.761,59.882 326.797,59.831C326.583,59.046 326.11,58.454 325.606,57.857Z" style="fill:rgb(36,147,60);fill-rule:nonzero;"/>
                <path d="M329.361,61.515C329.056,63.64 328.102,65.049 326.916,65.393L336.713,65.726L329.361,61.515Z" style="fill:rgb(36,147,60);fill-rule:nonzero;"/>
                <path d="M307.059,63.243C307.06,63.238 307.098,63.021 307.142,62.645L302.981,62.504C302.875,62.875 302.817,63.083 302.812,63.1L302.575,63.906L306.956,63.802L307.059,63.243Z" style="fill:rgb(36,147,60);fill-rule:nonzero;"/>
                <path d="M310.668,62.764C309.96,63.034 309.209,63.355 308.652,63.683C310.463,63.5 311.718,63.185 312.696,62.833L310.668,62.764Z" style="fill:rgb(36,147,60);fill-rule:nonzero;"/>
                <path d="M307.33,36.553C307.33,36.553 307.498,37.448 307.498,38.034C307.498,39.78 306.328,44.257 305.066,48.571C305.249,49.295 305.245,50.158 304.927,50.994C304.927,50.994 304.986,50.037 304.859,49.271C304.692,49.842 304.523,50.406 304.355,50.958C304.392,51.121 304.43,51.277 304.47,51.422C304.47,51.422 304.391,51.349 304.28,51.211C303.476,53.859 302.728,56.191 302.321,57.444C302.354,58.805 301.627,59.765 301.627,59.765C301.886,60.336 301.798,61.896 300.528,62.968L302.14,62.968C302.14,62.968 306.509,47.2 311.512,36.552L307.33,36.552L307.33,36.553Z" style="fill:rgb(36,147,60);fill-rule:nonzero;"/>
                <path d="M307.978,62.981L309.375,62.302C309.375,62.302 309.15,61.498 309.15,60.089L309.15,49.307C309.15,48.431 309.38,47.403 309.38,47.403L307.964,46.732C307.964,46.732 308.187,47.753 308.187,49.307L308.187,60.089C308.188,61.815 307.978,62.981 307.978,62.981Z" style="fill:rgb(36,147,60);fill-rule:nonzero;"/>
                <path d="M315.409,60.462L319.43,59.935L319.615,58.407C319.615,58.407 319.091,59.329 317.78,59.462L316.614,59.573L316.614,54.954C318.804,55.1 319.065,54.03 319.065,54.03C319.065,54.03 317.857,54.169 316.614,54.125L316.614,50.025C317.787,50.163 318.636,50.105 319.089,50.849L319.089,49.556C317.35,49.476 315.445,49.135 315.445,49.135C315.445,49.135 315.673,49.705 315.673,51.251C315.673,51.251 315.673,56.939 315.673,58.372C315.671,59.802 315.409,60.462 315.409,60.462Z" style="fill:rgb(36,147,60);fill-rule:nonzero;"/>
                <path d="M324.214,51.639C324.214,49.782 323.068,49.524 322.481,49.524C322.14,49.524 321.185,49.626 320.072,49.626C320.072,49.626 320.301,50.081 320.301,51.407L320.301,58.233C320.301,59.352 320.019,59.964 320.019,59.964L321.461,59.924C321.461,59.924 321.238,59.325 321.238,58.232L321.238,54.93C321.954,54.93 322.099,55.668 323.644,59.067C323.967,59.775 324.259,59.892 324.559,59.892L325.366,59.892C324.611,58.971 322.673,54.571 322.673,54.571C322.673,54.571 324.214,53.757 324.214,51.639ZM321.239,54.293L321.239,50.149C322.047,50.262 323.272,49.781 323.272,52.06C323.271,54.523 321.739,54.424 321.239,54.293Z" style="fill:rgb(36,147,60);fill-rule:nonzero;"/>
                <path d="M314.946,52.067C314.946,48.8 313.23,48.396 312.202,48.255C311.174,48.114 310.551,47.868 310.551,47.868C310.551,47.868 310.788,48.94 310.788,49.965L310.788,59.329C310.788,60.699 310.559,61.795 310.559,61.795L312.001,61.288C312.001,61.288 311.733,60.313 311.733,59.33L311.733,48.93C312.579,49.301 313.859,48.932 313.859,52.067C313.859,55.018 312.509,55.044 312.035,55.124C312.035,55.124 312.364,55.545 312.891,55.545C313.418,55.545 314.946,55.175 314.946,52.067Z" style="fill:rgb(36,147,60);fill-rule:nonzero;"/>
                <path d="M328.88,60.015C328.88,55.886 325.771,56.01 325.771,52.497C325.771,51.823 326.134,50.563 327.41,50.445C327.474,50.439 327.537,50.433 327.606,50.433C329.568,50.433 331.149,52.975 333.124,52.975L333.124,52.89C332.234,52.69 331.998,51.873 330.662,50.52C330.662,50.52 331.203,50.703 331.774,50.17C331.774,50.17 333.81,50.723 335.015,49.794C335.174,49.655 335.147,49.432 335.147,49.063C333.276,48.938 332.559,48.688 332.559,48.688C332.243,48.753 332.094,48.905 332.094,48.905C332.094,48.905 331.976,49.03 331.417,48.999C330.807,48.966 330.266,48.969 329.787,48.98C330.643,49.098 331.353,49.264 331.353,49.264C330.747,49.286 330.039,49.022 328.33,49.022C326.63,49.022 324.734,49.232 324.734,53.075C324.734,57.186 327.861,57.079 327.861,60.679C327.861,63.236 326.816,63.569 326.341,63.569C324.747,63.569 322.627,61.313 318.728,61.313C314.011,61.313 317.146,64.065 303.667,64.386C303.667,64.386 305.291,64.487 307.517,64.487C312.417,64.487 314.758,63.542 316.146,62.559C316.554,62.28 317.687,62.089 318.728,62.089C322.114,62.089 325.024,64.473 326.341,64.473C327.334,64.476 328.88,63.229 328.88,60.015ZM334.473,49.761C334.643,49.761 334.782,49.623 334.782,49.453C334.782,49.413 334.773,49.375 334.761,49.34C334.815,49.396 334.847,49.471 334.847,49.555C334.847,49.725 334.709,49.864 334.539,49.864C334.409,49.864 334.297,49.782 334.252,49.668C334.309,49.726 334.387,49.761 334.473,49.761ZM332.583,48.919C332.904,48.919 332.851,49.037 333.381,49.037C333.588,49.037 333.65,49.006 333.777,49.006C333.851,49.006 333.97,49.133 333.97,49.133C333.887,49.085 333.836,49.07 333.781,49.069C333.776,49.46 333.569,49.552 333.515,49.569C333.392,49.71 333.212,49.798 333.011,49.798C332.643,49.798 332.344,49.499 332.344,49.13C332.344,49.103 332.345,49.076 332.349,49.049C332.204,49.091 332.095,49.141 332.095,49.141C332.095,49.141 332.263,48.919 332.583,48.919ZM331.572,52.33L330.756,51.856C329.623,50.408 327.557,50.172 327.557,50.172L328.065,50.07L326.773,49.81C330.369,49.73 331.572,52.33 331.572,52.33Z" style="fill:rgb(36,147,60);fill-rule:nonzero;"/>
                <path d="M298.78,47.418C299.114,47.465 299.353,47.149 299.365,47.052C299.379,46.954 299.323,46.806 299.323,46.806C299.323,46.806 298.972,46.498 298.469,46.831C298.469,46.831 298.044,46.469 297.52,46.495C297.52,46.495 297.433,45.537 297.062,45.485C296.691,45.434 297.032,46.643 297.337,46.686C297.389,46.693 297.436,46.596 297.436,46.596C297.514,46.608 297.456,46.745 297.456,46.745C297.456,46.745 297.588,47.189 298.074,47.257C298.492,47.316 298.366,47.022 298.486,47.039C298.618,47.058 298.331,47.355 298.78,47.418Z" style="fill:rgb(36,147,60);fill-rule:nonzero;"/>
                <path d="M296.835,45.446C296.835,45.446 296.909,45.347 296.992,45.334C297.076,45.321 297.066,45.004 296.914,44.983C296.899,44.981 296.749,44.988 296.719,45.208C296.688,45.425 296.835,45.446 296.835,45.446Z" style="fill:rgb(36,147,60);fill-rule:nonzero;"/>
                <path d="M296.626,44.935C296.772,44.956 296.789,44.831 296.859,44.841C296.902,44.534 296.692,43.679 296.476,43.649C296.375,43.635 296.314,43.821 296.304,43.891C296.25,44.276 296.575,44.927 296.626,44.935Z" style="fill:rgb(36,147,60);fill-rule:nonzero;"/>
                <path d="M299.472,46.998C299.487,47.05 299.539,47.081 299.591,47.066C299.71,47.035 299.76,46.904 299.777,46.849C299.785,46.824 299.782,46.797 299.769,46.773L299.629,46.518C299.609,46.483 299.57,46.464 299.531,46.468C299.49,46.474 299.457,46.503 299.448,46.542L299.406,46.709C299.401,46.725 299.401,46.743 299.406,46.759L299.472,46.998Z" style="fill:rgb(36,147,60);fill-rule:nonzero;"/>
                <path d="M296.413,43.513C296.502,43.5 296.536,43.342 296.448,43.055C296.361,42.769 296.296,42.622 296.184,42.645C296.072,42.666 296.053,42.872 296.122,43.123C296.191,43.373 296.234,43.54 296.413,43.513Z" style="fill:rgb(36,147,60);fill-rule:nonzero;"/>
                <path d="M296.134,42.496C296.24,42.477 296.27,42.307 296.206,42.085C296.143,41.864 296.055,41.719 295.949,41.737C295.842,41.756 295.819,41.983 295.869,42.161C295.921,42.338 295.969,42.524 296.134,42.496Z" style="fill:rgb(36,147,60);fill-rule:nonzero;"/>
                <path d="M295.88,41.623C295.962,41.601 295.987,41.397 295.932,41.252C295.877,41.107 295.83,40.935 295.7,40.949C295.57,40.965 295.614,41.226 295.644,41.315C295.674,41.405 295.751,41.657 295.88,41.623Z" style="fill:rgb(36,147,60);fill-rule:nonzero;"/>
                <path d="M295.643,40.753C295.724,40.732 295.672,40.474 295.642,40.393C295.632,40.368 295.622,40.327 295.609,40.282C295.544,40.202 295.46,40.102 295.335,40C295.318,40.079 295.362,40.224 295.39,40.311C295.426,40.439 295.549,40.778 295.643,40.753Z" style="fill:rgb(36,147,60);fill-rule:nonzero;"/>
                <path d="M294.625,35.211L294.942,36.085C294.888,36.467 293.589,37.639 293.871,38.08C294.099,38.406 294.675,38.413 294.849,38.766C296.135,38.947 297.338,40.742 297.669,41.903C297.687,41.902 297.702,41.903 297.716,41.905C297.92,41.933 298.047,42.111 298.158,42.267C298.226,42.365 298.298,42.465 298.378,42.518L298.469,42.579C298.703,42.734 299.023,42.943 299.289,43.333C299.317,43.317 299.348,43.312 299.377,43.316C299.899,43.389 300.162,43.31 300.415,43.233C300.645,43.164 300.886,43.091 301.277,43.143C301.39,42.989 301.921,42.328 302.389,42.079C302.406,41.919 302.404,41.758 302.388,41.599C302.336,41.656 302.277,41.704 302.211,41.743C302.225,41.701 302.236,41.658 302.243,41.614C302.278,41.365 302.189,41.128 302.027,40.962C302.12,40.986 302.208,41.029 302.284,41.083C301.971,40.035 301.159,39.135 301.18,38.995L301.648,39.363C301.59,38.495 302.969,38.641 303.042,38.122C303.075,37.891 302.959,37.77 302.765,37.544L301.783,36.451C301.783,36.451 302.163,35.215 302.222,34.79C302.222,34.79 302.561,34.498 303.117,34.576C303.737,34.662 303.67,35.44 303.67,35.44C303.67,35.44 304.55,33.558 303.598,33.424C302.281,33.238 300.613,34.821 299.992,34.735C299.719,34.696 298.788,34.159 298.267,34.086C298.148,34.069 297.192,34.368 297.192,34.368L298.097,36.321C297.684,36.264 296.482,33.212 295.578,33.084C292.709,32.681 289.726,35.08 289.355,37.712C289.07,39.742 289.916,41.798 289.916,41.798C289.916,41.798 289.676,33.898 294.625,35.211ZM300.876,37.946C301.173,37.722 300.968,37.292 301.105,36.319C301.221,35.485 301.95,35.403 301.984,35.146C301.984,35.146 302.113,35.546 301.594,36.012C301.509,36.611 302.132,36.57 301.944,37.911C302.118,38.027 302.382,37.873 302.382,37.873C302.382,37.873 302.167,38.339 301.646,38.266C301.5,38.246 301.091,38.082 300.861,38.049L300.876,37.946ZM298.908,41.597C298.82,41.663 298.758,41.763 298.741,41.88C298.707,42.113 298.871,42.329 299.105,42.362C299.166,42.37 299.226,42.365 299.282,42.348C299.262,42.4 299.231,42.446 299.193,42.485C299.121,42.507 299.042,42.515 298.963,42.504C298.671,42.463 298.468,42.192 298.508,41.901C298.53,41.741 298.621,41.609 298.747,41.527C298.806,41.541 298.86,41.564 298.908,41.597ZM295.201,35.1C295.371,35.655 295.632,35.763 295.632,35.763C297.316,36 298.402,37.698 298.402,37.698L298.715,37.905C298.715,37.905 298.397,37.846 298.12,38.204C298.12,38.204 298.307,37.826 298.252,37.818C298.252,37.818 297.43,38.972 296.332,38.463C296.332,38.463 296.745,38.45 296.846,38.337L296.56,38.148C296.56,38.148 296.824,38.192 296.835,38.109C296.189,38.018 295.886,36.543 295.502,36.001C295.115,35.457 295.201,35.1 295.201,35.1Z" style="fill:rgb(36,147,60);fill-rule:nonzero;"/>
                <path d="M301.277,44.111C301.277,44.111 301.526,43.655 301.275,43.284C300.479,43.172 300.395,43.6 299.358,43.454C298.943,43.731 299.148,44.2 299.148,44.2C299.148,44.2 299.342,44.327 299.745,44.383C300.64,44.508 301.277,44.111 301.277,44.111Z" style="fill:rgb(36,147,60);fill-rule:nonzero;"/>
                <path d="M302.845,42.48C302.891,42.157 302.873,41.679 302.699,41.597C302.526,41.516 302.577,41.382 302.617,41.352C302.617,41.352 302.567,40.992 302.397,40.969C302.517,41.345 302.579,41.744 302.523,42.14C302.517,42.18 302.495,42.213 302.463,42.234C302.658,42.31 302.767,42.627 302.777,42.781C302.797,42.732 302.822,42.641 302.845,42.48Z" style="fill:rgb(36,147,60);fill-rule:nonzero;"/>
                <path d="M302.638,42.816C302.651,42.729 302.534,42.379 302.389,42.359C301.929,42.539 301.523,43.047 301.397,43.216C301.56,43.465 301.54,43.737 301.493,43.929C301.84,43.937 302.589,43.169 302.638,42.816Z" style="fill:rgb(36,147,60);fill-rule:nonzero;"/>
                <path d="M298.299,42.634C298.061,42.473 297.946,42.079 297.696,42.044C297.47,42.013 297.279,42.69 297.546,43.082C298.31,44.141 298.827,44.19 298.989,44.173C298.932,43.974 298.927,43.656 299.178,43.42C298.89,42.994 298.531,42.792 298.299,42.634Z" style="fill:rgb(36,147,60);fill-rule:nonzero;"/>
                <path d="M296.415,40.03C296.323,40.017 296.187,40.041 296.138,40.388C296.089,40.736 296.471,41.179 296.652,41.448C296.932,41.867 296.973,42.524 297.278,42.636C297.273,42.427 297.321,42.222 297.408,42.082C297.45,42.017 297.494,41.974 297.535,41.947C297.306,41.058 296.67,40.065 296.415,40.03Z" style="fill:rgb(36,147,60);fill-rule:nonzero;"/>
                <path d="M295.094,38.991C294.829,38.954 294.761,39.037 294.752,39.095C294.745,39.155 294.698,39.332 295.214,39.617C295.731,39.903 295.866,40.269 295.954,40.281C295.979,40.285 296,40.281 296.015,40.274C296.049,40.119 296.106,40.011 296.19,39.948C296.224,39.923 296.263,39.904 296.303,39.895C296.288,39.633 295.506,39.049 295.094,38.991Z" style="fill:rgb(36,147,60);fill-rule:nonzero;"/>
                <path d="M293.923,38.456C293.912,38.533 294.19,39.059 294.613,39.073C294.624,39.01 294.657,38.954 294.711,38.914C294.72,38.907 294.732,38.901 294.742,38.895C294.71,38.827 294.629,38.677 294.476,38.624C294.278,38.553 293.934,38.377 293.923,38.456Z" style="fill:rgb(36,147,60);fill-rule:nonzero;"/>
                <path d="M299.421,44.576C299.366,44.562 299.317,44.546 299.274,44.532C299.314,44.641 299.373,44.747 299.443,44.853C299.427,44.775 299.412,44.672 299.421,44.576Z" style="fill:rgb(36,147,60);fill-rule:nonzero;"/>
                <path d="M293.848,59.685C294.979,59.844 297.956,58.164 298.422,54.845C299.153,49.636 293.665,46.794 294.683,39.544C294.64,39.5 294.605,39.456 294.577,39.411C294.577,39.411 293.697,39.141 293.643,37.908C293.643,37.908 293.379,38.255 293.233,39.294C292.185,46.755 298.107,50.897 297.586,54.604C297.398,55.939 296.357,57.295 294.939,57.096C291.945,56.675 292.228,54.39 292.393,53.222C291.892,53.151 289.655,53.197 289.39,55.078C289.256,56.035 289.325,58.634 293.848,59.685ZM293.564,39.095C293.826,45.976 296.234,47.807 297.617,52.568C295.864,48.493 292.496,44.277 293.564,39.095ZM289.691,54.985C289.877,53.664 291.697,53.622 291.697,53.622C291.697,53.622 290.279,54.131 290.146,55.078C290.014,56.023 292.086,58.427 293.95,58.689C295.951,58.97 296.965,57.112 296.965,57.112C296.965,57.112 295.958,59.339 293.594,59.007C292.425,58.843 289.477,56.514 289.691,54.985Z" style="fill:rgb(36,147,60);fill-rule:nonzero;"/>
                <path d="M292.419,53.037C292.463,52.736 292.512,52.452 292.562,52.183C292.11,51.971 290.447,51.055 290.828,49.218C290.828,49.218 289.794,51.649 292.419,53.037Z" style="fill:rgb(36,147,60);fill-rule:nonzero;"/>
                <path d="M295.129,62.135C299.153,62.7 301.622,60.324 301.942,58.044C302.155,56.523 301.659,56.019 301.659,56.019C301.659,56.019 300.941,61.004 293.988,60.027C291.614,59.694 290.233,58.233 290.233,58.233C290.233,58.233 289.772,61.382 295.129,62.135ZM290.945,59.486C290.945,59.486 293.243,60.754 295.635,61.09C298.879,61.547 300.626,59.749 300.626,59.749C300.626,59.749 299.084,61.972 295.655,61.49C291.558,60.914 290.945,59.486 290.945,59.486Z" style="fill:rgb(36,147,60);fill-rule:nonzero;"/>
                <path d="M301.317,60.248C301.317,60.248 299.78,63.01 294.816,62.313C291.789,61.888 290.701,60.416 290.701,60.416C290.701,60.416 290.333,62.897 295.061,63.562C300.864,64.376 301.775,60.856 301.317,60.248ZM291.857,61.75C291.857,61.75 293.744,62.714 295.968,63.026C292.824,63.341 291.857,61.75 291.857,61.75Z" style="fill:rgb(36,147,60);fill-rule:nonzero;"/>
            </g>
        </g>
        <g transform="matrix(118.78,0,0,118.78,0,0)">
            <path d="M295.68,49.688C295.393,49.168 295.093,48.623 294.8,48.049L294.582,47.945C294.172,48.279 293.147,49.469 292.616,53.254C292.503,54.062 292.319,55.369 293.258,56.19L293.351,56.202C293.333,55.879 293.331,55.555 293.342,55.235C293.276,55.204 293.21,55.168 293.149,55.128C293.063,55.071 293.026,54.962 293.061,54.865L293.121,54.701C293.144,54.635 293.199,54.583 293.266,54.562C293.305,54.55 293.344,54.55 293.383,54.56C293.42,54.125 293.474,53.706 293.54,53.315C293.499,53.292 293.46,53.267 293.42,53.24C293.332,53.178 293.3,53.061 293.345,52.963L293.417,52.806C293.445,52.744 293.5,52.698 293.567,52.681C293.597,52.674 293.627,52.674 293.656,52.679C293.7,52.463 293.746,52.26 293.79,52.073C293.687,52.013 293.586,51.944 293.496,51.863C293.419,51.795 293.399,51.685 293.444,51.594L293.524,51.438C293.555,51.374 293.617,51.33 293.686,51.318C293.756,51.306 293.829,51.329 293.88,51.377C293.902,51.4 293.927,51.42 293.953,51.44C294.027,51.169 294.09,50.971 294.126,50.861C294.14,50.815 294.177,50.78 294.224,50.768C294.548,50.686 294.747,50.866 294.806,50.971C294.825,51.005 294.829,51.045 294.817,51.083C294.792,51.161 294.718,51.396 294.628,51.741C294.748,51.769 294.853,51.786 294.921,51.795C295.04,51.811 295.125,51.915 295.117,52.034L295.105,52.202C295.101,52.264 295.071,52.321 295.024,52.359C294.977,52.398 294.915,52.417 294.854,52.409C294.767,52.398 294.635,52.377 294.48,52.341C294.437,52.526 294.395,52.729 294.353,52.943C294.439,52.956 294.513,52.962 294.562,52.964C294.68,52.969 294.773,53.067 294.775,53.183L294.779,53.352C294.781,53.414 294.757,53.474 294.712,53.518C294.669,53.561 294.608,53.585 294.546,53.581C294.476,53.58 294.37,53.571 294.244,53.551C294.181,53.954 294.127,54.384 294.097,54.823C294.222,54.845 294.328,54.857 294.384,54.862C294.503,54.873 294.593,54.974 294.59,55.093L294.584,55.262C294.582,55.323 294.555,55.381 294.51,55.422C294.464,55.463 294.403,55.484 294.342,55.479C294.276,55.474 294.18,55.464 294.069,55.447C294.063,55.733 294.069,56.022 294.089,56.307L294.319,56.34C294.442,56.357 294.527,56.471 294.511,56.593L294.487,56.76C294.486,56.767 294.483,56.775 294.481,56.782C294.634,56.821 294.798,56.851 294.974,56.877C295.445,56.943 295.887,56.823 296.288,56.52C296.844,56.101 297.258,55.356 297.367,54.576C297.568,53.116 296.694,51.528 295.68,49.688Z" style="fill:rgb(150,92,15);fill-rule:nonzero;"/>
        </g>
        <g transform="matrix(118.78,0,0,118.78,0,0)">
            <g>
                <path d="M304.492,66.759L303.97,65.828L300.156,65.708L300.672,66.634L301.834,66.67L303.245,69.2L304.8,69.25L303.393,66.724L304.492,66.759Z" style="fill-rule:nonzero;"/>
                <path d="M307.13,68.409L306.874,67.952L308.861,68.015L308.416,67.217L306.422,67.156L306.233,66.809L308.582,66.883L308.065,65.957L304.186,65.835L306.114,69.291L310.07,69.416L309.548,68.485L307.13,68.409Z" style="fill-rule:nonzero;"/>
                <path d="M310.134,66.735L313.301,69.519L314.876,69.568L312.947,66.11L311.5,66.066L313.139,68.617L310.161,66.023L308.535,65.972L310.462,69.428L311.878,69.473L310.134,66.735Z" style="fill-rule:nonzero;"/>
                <path d="M319.801,69.723L317.874,66.267L316.427,66.221L318.065,68.772L315.087,66.178L313.462,66.127L315.389,69.585L316.804,69.629L315.06,66.89L318.226,69.674L319.801,69.723Z" style="fill-rule:nonzero;"/>
                <path d="M324.27,69.864L323.749,68.934L321.331,68.857L321.075,68.401L323.063,68.462L322.617,67.667L320.624,67.603L320.436,67.258L322.783,67.332L322.266,66.405L318.388,66.283L320.314,69.74L324.27,69.864Z" style="fill-rule:nonzero;"/>
                <path d="M334.454,69.271L334.198,68.814L336.184,68.878L335.737,68.08L333.745,68.017L333.557,67.672L335.905,67.746L335.389,66.819L331.51,66.697L333.438,70.154L337.392,70.279L336.871,69.348L334.454,69.271Z" style="fill-rule:nonzero;"/>
                <path d="M338.801,69.408L338.545,68.951L340.532,69.015L340.087,68.216L338.094,68.154L337.905,67.809L340.253,67.883L339.737,66.957L335.859,66.834L337.785,70.291L341.74,70.416L341.22,69.484L338.801,69.408Z" style="fill-rule:nonzero;"/>
                <path d="M314.099,70.415L315.087,72.988L312.874,70.376L311.356,70.329L314.775,73.832L316.425,73.884L315.629,70.463L314.099,70.415Z" style="fill-rule:nonzero;"/>
                <path d="M316.707,70.497L316.945,73.9C316.945,73.9 318.743,73.957 318.736,73.957L318.619,73.495L319.915,73.537L320.362,74.008L321.935,74.058L318.148,70.543L316.707,70.497ZM318.411,72.71L318.037,71.51L319.147,72.733L318.411,72.71Z" style="fill-rule:nonzero;"/>
                <path d="M323.036,73.134L321.652,70.653L320.097,70.605L322.023,74.061L325.42,74.168L324.876,73.192L323.036,73.134Z" style="fill-rule:nonzero;"/>
                <path d="M326.591,73.247L325.207,70.765L323.651,70.716L325.579,74.172L328.976,74.28L328.431,73.305L326.591,73.247Z" style="fill-rule:nonzero;"/>
                <path d="M336.05,71.107L334.133,71.046L334.382,72.469L332.679,71L327.207,70.828L329.134,74.285L333.09,74.409L332.569,73.478L330.15,73.401L329.894,72.945L331.882,73.008L331.436,72.211L329.441,72.148L329.253,71.803L331.602,71.876L331.144,71.055L334.071,73.195L334.778,74.462L336.365,74.513L335.675,73.274L336.05,71.107Z" style="fill-rule:nonzero;"/>
                <path d="M328.254,69.382C328.254,68.838 327.579,68.094 326.167,67.801C325.419,67.646 324.62,67.515 324.62,67.28C324.62,67.09 325.433,67.18 325.647,67.459L327.101,67.505C327.101,67.505 326.357,66.4 324.218,66.4C323.847,66.4 322.944,66.4 322.944,66.925C322.944,67.395 323.664,68.145 324.957,68.434C326.063,68.664 326.589,68.772 326.589,69.019C326.589,69.267 325.616,69.22 325.22,68.657L323.743,68.611C323.743,68.611 324.455,70.009 327.035,70.009C327.464,70.01 328.254,70.001 328.254,69.382Z" style="fill-rule:nonzero;"/>
                <path d="M330.034,67.598L331.488,67.644C331.488,67.644 330.744,66.54 328.605,66.54C328.234,66.54 327.333,66.54 327.333,67.066C327.333,67.536 328.051,68.285 329.345,68.574C330.45,68.804 330.977,68.912 330.977,69.159C330.977,69.407 330.004,69.359 329.608,68.798L328.13,68.752C328.13,68.752 328.841,70.148 331.422,70.148C331.851,70.148 332.642,70.14 332.642,69.522C332.642,68.979 331.966,68.233 330.553,67.942C329.805,67.787 329.007,67.655 329.007,67.42C329.007,67.23 329.82,67.32 330.034,67.598Z" style="fill-rule:nonzero;"/>
                <path d="M313.702,52.067C313.702,49.624 312.932,49.605 312.189,49.415L312.188,49.415L312.188,54.939C312.734,54.853 313.702,54.576 313.702,52.067ZM312.306,54.471L312.306,50.187C312.458,50.233 312.937,50.515 312.937,52.26C312.937,54.098 312.446,54.417 312.306,54.471Z" style="fill-rule:nonzero;"/>
                <path d="M320.144,58.232L320.144,58.04L319.996,59.524C320.066,59.242 320.144,58.805 320.144,58.232Z" style="fill-rule:nonzero;"/>
                <path d="M321.636,50.538L321.636,54.189C321.877,54.195 322.197,54.152 322.473,53.938C322.898,53.61 323.114,52.979 323.114,52.061C323.114,50.477 322.412,50.535 321.636,50.538ZM321.754,53.823L321.754,51.193C322.096,51.193 322.34,51.214 322.34,52.293C322.34,53.607 321.872,53.795 321.754,53.823Z" style="fill-rule:nonzero;"/>
                <path d="M313.142,64.927C314.563,64.581 315.738,64.073 316.708,63.388L316.709,63.388C316.708,63.388 316.707,63.389 316.707,63.389C316.85,63.302 317.635,63.092 318.728,63.092C321.09,63.092 323.552,64.842 325.445,65.343C325.76,65.426 326.061,65.476 326.341,65.476C326.538,65.476 326.73,65.447 326.916,65.393C328.102,65.049 329.056,63.64 329.361,61.515C329.419,61.121 329.452,60.702 329.462,60.261C329.463,60.18 329.465,60.097 329.465,60.015C329.465,59.217 329.342,58.573 329.148,58.023C328.971,57.518 328.731,57.094 328.466,56.716C328.203,56.338 327.914,56.003 327.641,55.672C327.389,55.368 327.141,55.068 326.927,54.742C326.534,54.147 326.251,53.465 326.251,52.497C326.251,51.938 326.576,50.837 327.364,50.644C327.441,50.625 327.52,50.612 327.607,50.612C328.253,50.612 328.868,50.847 329.464,51.189C329.755,51.355 330.04,51.546 330.323,51.749C330.411,51.812 330.5,51.875 330.59,51.939C331.39,52.505 332.219,53.034 333.125,53.034C333.16,53.034 333.186,53.008 333.186,52.975L333.186,52.89C333.186,52.863 333.166,52.838 333.139,52.832C333.124,52.828 333.11,52.824 333.096,52.821C333.096,52.817 333.096,52.812 333.095,52.808C333.089,52.774 333.053,52.731 332.997,52.683C333.072,52.536 332.946,52.28 332.946,52.28C332.946,52.28 332.958,52.529 332.868,52.585C332.684,52.458 332.426,52.322 332.232,52.245C332.12,52.12 332.003,51.977 331.873,51.817C331.841,51.698 331.713,51.278 331.406,50.943C331.389,50.927 331.378,50.909 331.378,50.902C331.38,50.902 331.392,50.89 331.45,50.89C331.823,50.89 332.003,50.638 332.04,50.578C332.098,50.568 332.315,50.523 332.53,50.363C332.968,50.41 333.537,50.422 334.087,50.288L334.188,50.331C334.196,50.374 334.226,50.404 334.24,50.416C334.248,50.435 334.274,50.51 334.274,50.67C334.274,51.149 333.882,51.663 333.882,51.663C334.04,51.596 334.587,51.08 334.587,50.375C334.623,50.354 334.655,50.31 334.643,50.25C334.684,50.228 334.755,50.167 334.748,50.037C334.852,49.979 334.955,49.915 335.052,49.841C335.212,49.7 335.211,49.502 335.207,49.201L335.207,49.063C335.206,49.032 335.183,49.006 335.152,49.004C333.314,48.881 332.587,48.634 332.578,48.632C332.568,48.628 332.557,48.628 332.546,48.63C332.26,48.69 332.103,48.817 332.062,48.854C332.062,48.854 331.927,48.968 331.42,48.94C331.069,48.94 330.752,48.912 330.436,48.873C330.055,48.826 329.679,48.763 329.26,48.709C328.805,48.651 328.3,48.604 327.681,48.604C327.489,48.604 327.308,48.613 327.136,48.629C325.37,48.794 324.701,49.745 324.47,50.24C324.375,50.06 324.259,49.897 324.118,49.756C323.585,49.223 322.938,49.033 322.439,49.033C321.752,49.033 320.871,49.125 319.83,49.125C317.866,49.125 315.91,48.807 314.164,48.378L314.196,48.572C313.565,48.104 312.839,47.988 312.319,47.906L312.208,47.888C311.181,47.721 310.346,47.372 310.338,47.369C310.338,47.369 308.945,46.742 308.21,46.384C309.424,43.074 310.766,39.715 312.152,36.765L312.488,36.052L306.222,36.049L306.339,36.595C306.34,36.604 306.504,37.476 306.504,38.033C306.504,39.582 305.543,43.394 304.429,47.289C304.206,47.038 303.953,46.877 303.695,46.841C303.273,46.782 303.068,46.895 302.879,47.668C302.691,48.44 302.284,48.401 301.879,48.345C301.119,48.238 301.056,47.865 300.854,47.079L300.829,46.979C300.647,46.278 300.226,45.794 299.856,45.367C299.807,45.31 299.76,45.254 299.714,45.2C299.691,45.059 299.664,44.832 299.677,44.627C299.687,44.628 299.698,44.63 299.708,44.631C300.682,44.768 301.379,44.341 301.409,44.323C301.447,44.3 301.476,44.269 301.497,44.23C301.499,44.226 301.509,44.209 301.522,44.179C301.613,44.173 301.716,44.139 301.821,44.085C302.008,44.743 301.198,45.237 301.198,45.237C301.198,45.237 302.339,45.7 302.631,43.365C302.718,43.249 302.788,43.133 302.833,43.026C302.912,43.008 302.981,42.951 303.011,42.872C303.045,42.785 303.072,42.667 303.094,42.513C303.115,42.363 303.197,41.636 302.864,41.402C302.864,41.402 302.943,40.796 302.337,40.504C302.228,40.256 302.102,40.024 301.978,39.816C301.887,39.668 301.871,39.475 301.902,39.245C301.935,39.035 302.144,38.932 302.536,38.786C302.865,38.664 303.238,38.524 303.29,38.153C303.337,37.819 303.172,37.627 302.98,37.406C302.98,37.406 302.961,37.385 302.954,37.376C302.954,37.376 304.081,35.652 304.279,34.254C304.315,33.992 304.286,33.734 304.178,33.537C304.068,33.331 303.878,33.205 303.631,33.17C302.765,33.048 301.815,33.587 301.05,34.019C300.648,34.246 300.192,34.504 300.024,34.48C299.946,34.47 299.688,34.353 299.48,34.259C299.085,34.081 298.638,33.879 298.299,33.831C298.208,33.819 297.909,33.873 296.972,34.163C296.757,33.822 296.553,33.535 296.352,33.314C296.104,33.039 295.862,32.864 295.61,32.829C294.776,32.713 293.895,32.822 293.048,33.133C292.475,33.343 291.919,33.643 291.405,34.031C290.132,34.989 289.293,36.317 289.101,37.672C289.066,37.922 289.047,38.17 289.035,38.417C288.993,39.287 289.088,40.139 289.283,40.953C290.127,44.475 292.83,47.297 294.3,47.782C294.3,47.782 293.553,48.631 293.021,50.102C292.834,50.618 292.673,51.211 292.58,51.873C292.58,51.873 290.609,51.269 291.039,49.316C291.091,49.079 291.241,48.211 291.826,48.548C291.826,48.548 291.837,48.342 291.522,48.298C291.208,48.254 290.642,48.713 290.501,49.714C290.487,49.817 290.48,49.913 290.472,50.009C290.311,52.126 291.75,52.933 291.75,52.933C291.75,52.933 291.466,52.925 291.084,53.008C290.375,53.165 289.324,53.641 289.122,55.088C288.879,56.811 289.984,57.932 289.984,57.932C289.684,59.231 290.444,60.207 290.444,60.207C290.444,60.207 289.895,63.174 295.29,63.933C295.753,63.997 296.182,64.032 296.585,64.045L287.002,64.271C287.036,64.275 293.139,64.755 298.918,65.11C302.34,65.32 305.648,65.488 307.516,65.488C309.732,65.491 311.584,65.306 313.142,64.927ZM332.967,52.534C332.972,52.576 332.969,52.615 332.955,52.647C332.942,52.637 332.928,52.626 332.914,52.616C332.938,52.596 332.954,52.567 332.967,52.534ZM333.032,52.804C332.756,52.721 332.544,52.568 332.327,52.347C332.631,52.486 332.992,52.718 333.032,52.804ZM332.019,50.521L332.004,50.523L331.997,50.536C331.991,50.548 331.829,50.83 331.451,50.83C331.405,50.83 331.342,50.835 331.324,50.881C331.307,50.927 331.355,50.976 331.365,50.984C331.582,51.221 331.707,51.509 331.772,51.69C331.526,51.386 331.23,51.024 330.832,50.609C331.044,50.623 331.41,50.58 331.793,50.235C331.877,50.257 332.118,50.314 332.443,50.353C332.227,50.493 332.021,50.521 332.019,50.521ZM334.123,51.388C334.214,51.217 334.334,50.943 334.334,50.671C334.334,50.523 334.312,50.44 334.299,50.405C334.326,50.381 334.403,50.33 334.528,50.379C334.521,50.772 334.306,51.177 334.123,51.388ZM334.601,50.206L334.569,50.216L334.581,50.246C334.6,50.292 334.575,50.315 334.558,50.327C334.408,50.265 334.308,50.323 334.265,50.358C334.256,50.346 334.246,50.33 334.246,50.311L334.246,50.292L334.228,50.283L334.181,50.263C334.356,50.215 334.527,50.152 334.69,50.068C334.684,50.178 334.604,50.205 334.601,50.206ZM310.396,47.903L310.293,47.477C310.293,47.477 311.136,47.833 312.19,48.004C313.244,48.174 315.404,48.386 315.404,52.101C315.404,55.539 313.652,55.921 313.06,55.921C312.627,55.921 312.321,55.738 312.187,55.641L312.187,59.488C312.187,60.447 312.449,61.414 312.452,61.423L312.492,61.568L310.274,62.357L310.405,61.763C310.408,61.752 310.63,60.666 310.63,59.33L310.63,49.966C310.63,48.971 310.399,47.914 310.396,47.903ZM315.95,61.39C314.89,61.775 314.06,62.342 312.697,62.833C311.718,63.185 310.464,63.5 308.653,63.683C309.21,63.355 309.961,63.034 310.669,62.764C311.772,62.346 312.772,62.052 312.772,62.052C312.769,62.042 312.307,60.971 312.307,59.489L312.307,56.487C313.906,56.846 314.746,55.413 314.746,55.413L314.746,58.31C314.746,60.454 314.131,61.665 314.131,61.665L315.95,61.39ZM321.963,60.045C321.962,60.04 321.754,59.451 321.754,58.415L321.754,57.301C321.85,57.512 321.955,57.751 322.074,58.019L322.854,59.768C323.051,60.2 323.37,60.844 324.108,60.9C324.142,60.902 324.177,60.906 324.213,60.906L326.676,60.906L325.9,59.931C325.7,59.686 325.409,59.181 325.093,58.574C324.482,57.405 323.772,55.857 323.418,55.073C323.499,55.005 323.721,54.809 323.89,54.576C324.051,56.096 324.862,56.981 325.605,57.857C326.109,58.454 326.582,59.046 326.795,59.831C326.817,59.912 326.836,59.995 326.853,60.079C326.893,60.29 326.916,60.514 326.916,60.757C326.916,61.521 326.842,62.047 326.735,62.406C326.58,62.924 326.361,63.089 326.205,63.089C325.233,63.089 323.222,61.297 319.872,60.977L322.294,60.923L321.963,60.045ZM306.955,63.802L302.574,63.906L302.811,63.1C302.816,63.082 302.874,62.875 302.98,62.504C303.488,60.725 305.103,55.201 307.257,49.051C307.263,49.224 307.266,49.406 307.266,49.597L307.266,60.379C307.266,61.347 307.199,62.14 307.141,62.645C307.098,63.021 307.059,63.237 307.058,63.243L306.955,63.802ZM307.261,38.035C307.261,37.477 307.098,36.606 307.097,36.597L307.043,36.317L312.073,36.317L311.914,36.655C310.53,39.603 309.189,42.96 307.975,46.268C307.96,46.31 307.946,46.351 307.931,46.392L309.875,47.316L309.847,47.441C309.845,47.452 309.618,48.473 309.618,49.329L309.618,60.219C309.618,61.599 309.837,62.404 309.838,62.411L309.874,62.539L307.701,63.603L307.823,62.954C307.824,62.942 308.031,61.78 308.031,60.091L308.031,49.307C308.031,47.79 307.813,46.776 307.81,46.765L307.803,46.736C307.605,47.282 307.409,47.827 307.218,48.368C304.501,56.052 302.585,62.928 302.556,63.032L302.472,63.347L299.988,63.347C300.186,63.231 300.365,63.103 300.527,62.969C301.798,61.897 301.885,60.337 301.626,59.766C301.626,59.766 302.354,58.806 302.32,57.445C302.316,57.257 302.297,57.063 302.259,56.862C302.681,55.554 303.37,53.389 304.103,50.964C304.166,51.061 304.226,51.144 304.279,51.211C304.39,51.349 304.469,51.422 304.469,51.422C304.429,51.277 304.391,51.121 304.354,50.958C304.318,50.797 304.285,50.629 304.254,50.46C304.416,49.916 304.582,49.363 304.745,48.805C304.794,48.943 304.831,49.102 304.858,49.271C304.985,50.037 304.926,50.994 304.926,50.994C305.244,50.158 305.247,49.295 305.065,48.571C305.028,48.427 304.985,48.29 304.935,48.158C306.152,43.975 307.261,39.699 307.261,38.035ZM309.873,50.098L309.873,59.462C309.873,60.097 309.823,60.676 309.77,61.109C309.75,60.848 309.738,60.549 309.738,60.217L309.738,49.327C309.738,49.139 309.75,48.944 309.765,48.754C309.82,49.136 309.873,49.623 309.873,50.098ZM301.744,54.282C301.744,54.282 302.164,52.97 301.406,51.503C301.406,51.503 301.463,49.885 300.315,48.778C300.315,48.778 300.145,47.903 299.764,47.514C299.764,47.514 299.756,47.306 300.024,47.257C300.354,48.101 300.9,49.001 301.862,49.137C303.206,49.325 302.987,47.518 303.469,47.585C303.748,47.625 303.682,48.287 303.635,48.62C303.566,49.106 303.594,49.529 303.67,49.891C303.004,52.122 302.349,54.215 301.863,55.738C301.836,55.686 301.808,55.634 301.777,55.581C301.778,55.582 301.868,54.81 301.744,54.282ZM301.003,56.928C301.003,56.928 300.356,58.907 298.091,59.284C298.091,59.284 297.811,59.249 297.421,58.939C297.421,58.939 297.431,59.205 297.801,59.399C297.801,59.399 297.348,59.732 296.03,59.755C296.03,59.755 295.8,59.581 295.689,59.424C295.689,59.424 295.671,59.62 295.758,59.745C295.758,59.745 295.17,59.838 294.455,59.766C294.97,59.648 295.58,59.349 296.15,58.92C296.913,58.345 298.239,57.052 298.547,54.862C298.888,52.432 297.894,50.502 296.842,48.458C295.573,45.994 294.135,42.734 294.93,39.835C295.1,40.128 295.259,40.712 295.259,40.712C295.224,40.731 295.115,40.677 295.073,40.671C295.031,40.665 295.005,40.701 295.005,40.701C295.035,40.815 295.205,40.839 295.355,41.011C295.326,41.219 295.52,41.856 295.52,41.856C295.632,42.169 295.574,42.406 295.723,42.631C295.871,42.855 295.85,43.01 295.85,43.01C295.85,43.01 295.749,43.025 295.7,43.018C295.64,43.01 295.492,42.957 295.357,42.938C295.222,42.919 295.163,42.957 295.163,42.957C295.399,43.171 295.691,43.137 295.854,43.212C295.863,43.346 295.964,43.672 295.964,43.672C296.163,43.832 296.018,44.397 296.225,44.743C296.406,45.046 296.418,45.22 296.418,45.22C295.88,45.177 295.768,45.313 295.768,45.313L296.448,45.446C296.498,45.699 296.691,45.993 296.691,45.993C296.646,46.561 297.198,46.996 297.198,46.996C297.32,47.234 297.559,47.617 298.007,47.681C298.124,47.698 298.271,47.652 298.361,47.631C298.486,47.743 298.719,47.788 298.819,47.801C299.198,47.854 299.418,47.676 299.418,47.676C299.418,47.676 299.954,48.254 300.177,49.022C300.177,49.022 301.279,50.736 301.24,51.884C301.24,51.884 301.806,53.041 301.556,54.211C301.555,54.212 301.662,55.873 301.003,56.928ZM294.614,39.073C294.19,39.058 293.912,38.532 293.924,38.456C293.934,38.377 294.279,38.553 294.477,38.624C294.63,38.678 294.711,38.828 294.743,38.895C294.733,38.9 294.722,38.906 294.712,38.914C294.658,38.954 294.625,39.01 294.614,39.073ZM298.989,44.172C298.827,44.189 298.31,44.14 297.546,43.081C297.279,42.69 297.47,42.012 297.696,42.043C297.946,42.078 298.061,42.473 298.299,42.633C298.531,42.791 298.89,42.993 299.178,43.418C298.927,43.655 298.932,43.973 298.989,44.172ZM298.486,47.04C298.366,47.023 298.493,47.317 298.074,47.258C297.588,47.19 297.456,46.746 297.456,46.746C297.456,46.746 297.514,46.608 297.436,46.597C297.436,46.597 297.389,46.694 297.337,46.687C297.031,46.644 296.691,45.435 297.062,45.486C297.433,45.538 297.52,46.496 297.52,46.496C298.044,46.471 298.469,46.832 298.469,46.832C298.973,46.499 299.323,46.807 299.323,46.807C299.323,46.807 299.379,46.955 299.365,47.053C299.352,47.15 299.114,47.467 298.78,47.419C298.331,47.355 298.618,47.058 298.486,47.04ZM295.7,40.95C295.83,40.935 295.876,41.108 295.932,41.253C295.988,41.398 295.962,41.601 295.88,41.624C295.752,41.658 295.674,41.406 295.644,41.317C295.613,41.227 295.57,40.965 295.7,40.95ZM295.388,40.311C295.361,40.224 295.316,40.079 295.333,40C295.458,40.102 295.542,40.202 295.607,40.282C295.62,40.327 295.63,40.368 295.64,40.393C295.671,40.474 295.723,40.731 295.641,40.753C295.549,40.778 295.426,40.439 295.388,40.311ZM295.949,41.737C296.055,41.718 296.143,41.863 296.206,42.085C296.269,42.307 296.24,42.478 296.134,42.496C295.969,42.524 295.921,42.338 295.869,42.161C295.819,41.983 295.842,41.755 295.949,41.737ZM296.185,42.645C296.296,42.623 296.362,42.769 296.449,43.055C296.537,43.342 296.503,43.5 296.414,43.513C296.235,43.54 296.192,43.373 296.123,43.123C296.053,42.872 296.073,42.666 296.185,42.645ZM296.305,43.89C296.315,43.82 296.376,43.634 296.477,43.648C296.693,43.679 296.903,44.534 296.86,44.84C296.79,44.83 296.772,44.955 296.627,44.934C296.575,44.927 296.25,44.276 296.305,43.89ZM296.719,45.207C296.749,44.987 296.899,44.98 296.914,44.982C297.066,45.003 297.076,45.32 296.992,45.333C296.909,45.346 296.835,45.445 296.835,45.445C296.835,45.445 296.688,45.425 296.719,45.207ZM298.022,44.874C297.836,44.848 297.376,43.971 297.441,43.364C297.556,43.515 297.668,43.647 297.774,43.76C297.724,44.314 298.022,44.874 298.022,44.874ZM297.407,42.082C297.321,42.222 297.272,42.427 297.277,42.636C296.972,42.524 296.931,41.868 296.651,41.448C296.47,41.178 296.088,40.736 296.137,40.388C296.186,40.041 296.322,40.017 296.414,40.03C296.67,40.065 297.306,41.058 297.534,41.947C297.493,41.974 297.449,42.017 297.407,42.082ZM296.19,39.949C296.107,40.012 296.049,40.12 296.015,40.275C296,40.282 295.979,40.286 295.954,40.282C295.866,40.27 295.73,39.904 295.214,39.618C294.698,39.332 294.745,39.155 294.752,39.096C294.761,39.037 294.829,38.954 295.094,38.992C295.507,39.051 296.288,39.635 296.303,39.897C296.263,39.905 296.224,39.923 296.19,39.949ZM299.406,46.708L299.448,46.541C299.457,46.502 299.49,46.473 299.531,46.467C299.57,46.463 299.61,46.482 299.629,46.517L299.769,46.772C299.782,46.795 299.785,46.822 299.777,46.848C299.76,46.903 299.71,47.034 299.591,47.065C299.539,47.079 299.487,47.048 299.472,46.997L299.406,46.758C299.4,46.742 299.4,46.725 299.406,46.708ZM303.677,46.981C304.587,47.109 305.128,48.71 305.046,49.294C305.046,49.294 304.86,48.19 304.305,48.111C304.149,48.09 304.057,48.452 304.036,48.591C303.91,49.5 304.153,50.658 304.153,50.658C304.153,50.658 303.63,49.942 303.776,48.903C303.845,48.412 304.005,47.414 303.466,47.339C303.174,47.298 302.979,47.769 302.979,47.769C302.979,47.769 302.995,46.886 303.677,46.981ZM300.694,47.016C300.919,47.884 300.986,48.27 301.851,48.468C302.619,48.646 302.905,48.026 302.905,48.026C302.905,48.026 302.791,48.984 301.9,48.859C301.032,48.737 300.377,47.865 300.076,46.972C299.791,46.124 298.732,45.334 298.287,44.202C298.612,44.412 298.859,44.44 299.014,44.424C299.017,44.424 299.022,44.423 299.024,44.421C299.04,44.432 299.068,44.446 299.107,44.466C299.298,45.245 300.379,45.803 300.694,47.016ZM299.274,44.531C299.318,44.546 299.367,44.561 299.421,44.575C299.412,44.672 299.427,44.774 299.443,44.851C299.373,44.746 299.313,44.641 299.274,44.531ZM301.277,44.111C301.277,44.111 300.64,44.508 299.745,44.383C299.342,44.327 299.148,44.2 299.148,44.2C299.148,44.2 298.943,43.732 299.358,43.454C300.395,43.6 300.479,43.172 301.275,43.284C301.526,43.655 301.277,44.111 301.277,44.111ZM301.754,45.016C301.728,45.031 301.703,45.044 301.678,45.054C301.904,44.808 302.118,44.439 301.974,44.002L301.974,43.999C302.128,43.897 302.286,43.76 302.426,43.612C302.274,44.517 301.982,44.875 301.754,45.016ZM301.494,43.929C301.541,43.738 301.561,43.465 301.398,43.216C301.523,43.047 301.93,42.539 302.39,42.359C302.534,42.38 302.651,42.729 302.639,42.816C302.589,43.169 301.84,43.937 301.494,43.929ZM302.617,41.353C302.577,41.383 302.526,41.517 302.699,41.598C302.872,41.68 302.89,42.158 302.845,42.481C302.822,42.642 302.797,42.733 302.778,42.783C302.768,42.628 302.659,42.312 302.464,42.236C302.495,42.215 302.518,42.182 302.524,42.142C302.58,41.746 302.518,41.347 302.398,40.971C302.567,40.993 302.617,41.353 302.617,41.353ZM303.446,35.706C303.368,36.262 302.775,37.2 302.775,37.2C302.775,37.2 302.117,36.639 302.157,36.354C302.191,36.119 302.367,35.264 302.402,35.013C302.402,35.013 302.778,34.86 303.077,34.903C303.298,34.933 303.523,35.149 303.446,35.706ZM289.353,37.71C289.724,35.078 292.707,32.679 295.576,33.082C296.48,33.209 297.682,36.262 298.095,36.319L297.19,34.366C297.19,34.366 298.146,34.067 298.265,34.084C298.786,34.157 299.717,34.694 299.99,34.733C300.612,34.82 302.28,33.237 303.596,33.422C304.548,33.556 303.668,35.438 303.668,35.438C303.668,35.438 303.734,34.66 303.115,34.574C302.559,34.495 302.22,34.788 302.22,34.788C302.161,35.212 301.781,36.449 301.781,36.449L302.763,37.542C302.957,37.768 303.074,37.888 303.04,38.12C302.967,38.639 301.589,38.493 301.646,39.361L301.178,38.993C301.157,39.133 301.97,40.033 302.282,41.081C302.205,41.027 302.118,40.984 302.025,40.96C302.188,41.126 302.276,41.363 302.241,41.612C302.234,41.656 302.223,41.699 302.209,41.741C302.275,41.702 302.334,41.654 302.386,41.597C302.403,41.756 302.405,41.917 302.387,42.077C301.919,42.326 301.388,42.988 301.275,43.141C300.883,43.089 300.643,43.162 300.413,43.231C300.16,43.309 299.897,43.387 299.375,43.314C299.346,43.31 299.315,43.315 299.287,43.331C299.021,42.941 298.702,42.731 298.467,42.577L298.376,42.516C298.296,42.463 298.224,42.363 298.156,42.265C298.045,42.109 297.918,41.932 297.714,41.903C297.7,41.901 297.684,41.9 297.667,41.901C297.335,40.739 296.133,38.944 294.847,38.764C294.674,38.41 294.097,38.404 293.869,38.078C293.588,37.637 294.886,36.465 294.94,36.083L294.623,35.209C289.674,33.896 289.912,41.794 289.912,41.794C289.912,41.794 289.068,39.74 289.353,37.71ZM290.135,42.244C290.135,42.244 289.841,34.451 294.454,35.487L294.559,35.776C294.559,35.776 293.245,37.463 293.018,39.075C292.409,43.413 294.452,47.444 294.452,47.444C294.452,47.444 291.355,46.073 290.135,42.244ZM292.615,53.254C293.146,49.469 294.171,48.279 294.581,47.945L294.799,48.049C295.092,48.623 295.392,49.169 295.679,49.688C296.693,51.527 297.568,53.115 297.363,54.574C297.254,55.354 296.84,56.099 296.284,56.518C295.882,56.821 295.441,56.941 294.97,56.875C294.794,56.85 294.63,56.819 294.477,56.78C294.479,56.773 294.481,56.765 294.483,56.758L294.507,56.591C294.524,56.468 294.438,56.354 294.315,56.338L294.085,56.305C294.065,56.02 294.059,55.731 294.065,55.445C294.176,55.463 294.272,55.472 294.338,55.477C294.399,55.482 294.46,55.461 294.506,55.42C294.551,55.379 294.578,55.321 294.58,55.26L294.586,55.091C294.589,54.972 294.499,54.871 294.38,54.86C294.324,54.856 294.218,54.844 294.093,54.821C294.124,54.382 294.177,53.952 294.24,53.549C294.366,53.569 294.472,53.577 294.542,53.579C294.604,53.582 294.665,53.559 294.708,53.516C294.752,53.472 294.777,53.412 294.775,53.35L294.771,53.181C294.769,53.065 294.675,52.968 294.558,52.962C294.508,52.96 294.435,52.954 294.349,52.941C294.391,52.727 294.433,52.524 294.476,52.339C294.631,52.375 294.763,52.397 294.85,52.407C294.912,52.415 294.974,52.396 295.02,52.357C295.067,52.319 295.097,52.261 295.101,52.2L295.113,52.032C295.121,51.913 295.035,51.808 294.917,51.793C294.848,51.785 294.744,51.767 294.624,51.739C294.715,51.394 294.788,51.159 294.813,51.081C294.825,51.043 294.821,51.003 294.802,50.969C294.743,50.864 294.545,50.684 294.22,50.766C294.173,50.778 294.136,50.813 294.122,50.859C294.086,50.968 294.023,51.167 293.949,51.438C293.923,51.417 293.899,51.397 293.876,51.375C293.825,51.327 293.752,51.304 293.682,51.316C293.613,51.328 293.551,51.372 293.52,51.436L293.44,51.592C293.395,51.683 293.415,51.793 293.492,51.861C293.583,51.942 293.683,52.011 293.786,52.071C293.742,52.258 293.696,52.461 293.652,52.677C293.623,52.673 293.592,52.673 293.563,52.679C293.496,52.696 293.441,52.742 293.413,52.804L293.341,52.961C293.296,53.059 293.328,53.176 293.416,53.238C293.456,53.265 293.496,53.29 293.536,53.313C293.471,53.704 293.416,54.124 293.379,54.558C293.34,54.548 293.301,54.548 293.262,54.56C293.195,54.581 293.14,54.633 293.117,54.699L293.057,54.863C293.022,54.961 293.059,55.07 293.145,55.126C293.206,55.167 293.272,55.202 293.338,55.233C293.328,55.553 293.33,55.877 293.347,56.2L293.254,56.188C292.318,55.37 292.501,54.063 292.615,53.254ZM294.901,51.934C294.945,51.94 294.977,51.979 294.974,52.024L294.962,52.192C294.96,52.215 294.948,52.236 294.931,52.251C294.913,52.266 294.89,52.273 294.868,52.27C294.622,52.24 294.006,52.13 293.586,51.758C293.558,51.733 293.55,51.692 293.566,51.657L293.646,51.501C293.658,51.477 293.68,51.46 293.707,51.456C293.733,51.452 293.76,51.459 293.78,51.478C294.119,51.804 294.677,51.905 294.901,51.934ZM294.073,51.524C294.156,51.224 294.224,51.008 294.257,50.904C294.563,50.826 294.681,51.038 294.681,51.038C294.648,51.14 294.576,51.374 294.489,51.704C294.352,51.663 294.206,51.605 294.073,51.524ZM294.34,52.303C294.296,52.492 294.251,52.698 294.21,52.915C294.067,52.883 293.914,52.83 293.786,52.742C293.829,52.528 293.874,52.326 293.918,52.139C294.061,52.21 294.205,52.263 294.34,52.303ZM294.553,53.104C294.597,53.105 294.632,53.142 294.633,53.186L294.638,53.355C294.638,53.378 294.63,53.402 294.614,53.418C294.596,53.434 294.574,53.443 294.551,53.442C294.36,53.434 293.872,53.389 293.5,53.125C293.468,53.102 293.456,53.059 293.472,53.022L293.544,52.865C293.555,52.842 293.575,52.825 293.6,52.818C293.625,52.812 293.652,52.818 293.671,52.833C293.96,53.053 294.384,53.095 294.553,53.104ZM294.102,53.525C294.038,53.925 293.985,54.355 293.953,54.795C293.803,54.76 293.642,54.708 293.517,54.632C293.55,54.197 293.605,53.777 293.669,53.383C293.816,53.45 293.965,53.495 294.102,53.525ZM294.37,55.001C294.414,55.004 294.448,55.043 294.446,55.087L294.441,55.256C294.441,55.278 294.431,55.3 294.413,55.316C294.397,55.331 294.373,55.339 294.351,55.337C294.137,55.32 293.598,55.255 293.225,55.01C293.193,54.989 293.18,54.947 293.193,54.91L293.252,54.747C293.261,54.722 293.281,54.703 293.307,54.696C293.332,54.688 293.36,54.692 293.381,54.708C293.672,54.922 294.169,54.985 294.37,55.001ZM293.481,55.295C293.631,55.352 293.785,55.392 293.923,55.42C293.917,55.708 293.923,55.998 293.941,56.286L293.492,56.223C293.475,55.913 293.472,55.602 293.481,55.295ZM294.296,56.478C294.341,56.485 294.374,56.526 294.367,56.573L294.343,56.74C294.343,56.741 294.343,56.744 294.343,56.746C293.998,56.649 293.715,56.518 293.485,56.364L294.296,56.478ZM290.828,49.218C290.447,51.055 292.111,51.971 292.562,52.183C292.512,52.452 292.463,52.736 292.419,53.037C289.794,51.649 290.828,49.218 290.828,49.218ZM289.39,55.08C289.655,53.199 291.892,53.153 292.393,53.224C292.228,54.392 291.946,56.677 294.939,57.098C296.357,57.297 297.398,55.941 297.586,54.606C298.107,50.898 292.185,46.757 293.233,39.296C293.379,38.257 293.643,37.91 293.643,37.91C293.697,39.143 294.577,39.413 294.577,39.413C294.605,39.458 294.64,39.502 294.683,39.546C293.664,46.796 299.153,49.637 298.422,54.847C297.956,58.166 294.979,59.846 293.848,59.687C289.325,58.634 289.256,56.035 289.39,55.08ZM290.233,58.232C290.233,58.232 291.615,59.693 293.988,60.026C300.941,61.003 301.659,56.018 301.659,56.018C301.659,56.018 302.155,56.523 301.942,58.043C301.621,60.323 299.152,62.699 295.129,62.134C289.772,61.382 290.233,58.232 290.233,58.232ZM295.062,63.562C290.334,62.897 290.702,60.416 290.702,60.416C290.702,60.416 291.79,61.888 294.817,62.313C299.781,63.01 301.318,60.248 301.318,60.248C301.775,60.856 300.864,64.376 295.062,63.562ZM297.076,64.229L303.662,64.229C312.027,64.031 313.95,62.898 315.353,62.072C316.223,61.56 317.038,61.086 318.855,61.086C322.939,61.086 325.073,63.338 326.341,63.338C326.66,63.338 327.702,63.266 327.702,60.681C327.702,57.213 324.576,57.251 324.576,53.077C324.576,52.876 324.582,52.686 324.592,52.504C324.457,53.197 324.163,53.714 323.863,54.082C323.584,54.425 323.301,54.64 323.142,54.744C323.472,55.484 325.133,59.182 325.809,60.007L326.026,60.27L324.86,60.27C324.046,60.27 323.707,59.585 323.501,59.132L322.721,57.383C322.152,56.096 321.885,55.506 321.636,55.255L321.636,58.415C321.636,59.483 321.849,60.08 321.852,60.085L321.93,60.296C321.93,60.296 319.641,60.356 319.641,60.355L315.053,60.935L315.261,60.403C315.263,60.397 315.512,59.745 315.512,58.37L315.512,51.25C315.512,49.767 315.297,49.197 315.296,49.192L315.158,48.835L315.734,48.938C315.752,48.941 317.687,49.286 319.429,49.365L319.584,49.372L319.584,51.883L319.285,51.39C318.944,50.828 318.343,50.487 317.06,50.437L317.06,53.974C318.108,53.976 319.662,53.813 319.672,53.812C319.367,54.519 319.209,55.339 317.06,55.348L317.06,59.369L317.763,59.302C318.97,59.18 319.457,58.361 319.476,58.327L320.143,57.401L320.143,51.403C320.143,50.148 319.931,49.697 319.93,49.694L319.769,49.368C320.7,49.473 321.552,49.298 322.746,49.298C323.174,49.298 323.993,49.502 324.411,50.382C324.569,50.713 324.67,51.137 324.67,51.687C324.67,51.696 324.67,51.704 324.67,51.713C325.038,49.289 326.474,48.863 328.331,48.863C328.799,48.863 329.315,48.913 329.788,48.978C330.267,48.966 330.808,48.964 331.418,48.997C331.977,49.028 332.095,48.903 332.095,48.903C332.095,48.903 332.244,48.751 332.56,48.686C332.56,48.686 333.278,48.936 335.148,49.061C335.148,49.43 335.175,49.653 335.016,49.792C333.811,50.721 331.775,50.168 331.775,50.168C331.203,50.701 330.663,50.518 330.663,50.518C331.998,51.871 332.235,52.688 333.125,52.888L333.125,52.973C331.15,52.973 329.569,50.431 327.607,50.431C327.538,50.431 327.475,50.436 327.411,50.443C326.944,50.499 326.193,50.818 326.193,52.495C326.193,55.744 329.302,55.797 329.302,60.013C329.302,63.438 327.607,64.895 326.342,64.895C324.811,64.895 322.035,62.511 318.729,62.511C317.64,62.511 316.664,62.717 316.384,62.907C316.386,62.906 316.388,62.904 316.389,62.903C314.46,64.27 311.641,64.908 307.518,64.908C302.475,64.911 297.076,64.229 297.076,64.229ZM319.363,52.938L319.363,53.511C318.881,53.556 317.927,53.635 317.179,53.64L317.179,51.127C318.296,51.143 318.366,51.573 319.363,52.938ZM319.363,55.011L319.363,57.464C318.476,58.896 318.155,58.919 317.179,59.007L317.179,55.968C318.615,55.929 319.096,55.503 319.363,55.011Z" style="fill-rule:nonzero;"/>
                <path d="M334.539,49.864C334.709,49.864 334.847,49.725 334.847,49.555C334.847,49.471 334.814,49.396 334.761,49.34C334.774,49.375 334.782,49.413 334.782,49.453C334.782,49.623 334.643,49.761 334.473,49.761C334.387,49.761 334.308,49.725 334.252,49.668C334.297,49.783 334.409,49.864 334.539,49.864Z" style="fill-rule:nonzero;"/>
                <path d="M332.344,49.131C332.344,49.5 332.643,49.799 333.011,49.799C333.212,49.799 333.392,49.71 333.515,49.57C333.569,49.553 333.776,49.46 333.781,49.07C333.836,49.071 333.887,49.087 333.97,49.134C333.97,49.134 333.851,49.007 333.777,49.007C333.65,49.007 333.588,49.038 333.381,49.038C332.85,49.038 332.903,48.92 332.583,48.92C332.263,48.92 332.095,49.143 332.095,49.143C332.095,49.143 332.205,49.093 332.349,49.051C332.345,49.077 332.344,49.104 332.344,49.131ZM332.411,49.033C332.501,49.011 332.598,48.993 332.688,48.993C332.881,48.993 332.876,49.095 333.386,49.095C333.485,49.095 333.558,49.089 333.617,49.083C333.617,49.099 333.619,49.115 333.619,49.131C333.619,49.467 333.347,49.739 333.011,49.739C332.675,49.739 332.403,49.467 332.403,49.131C332.402,49.097 332.406,49.065 332.411,49.033Z" style="fill-rule:nonzero;"/>
                <path d="M302.383,37.874C302.383,37.874 302.119,38.028 301.945,37.912C302.133,36.57 301.51,36.611 301.595,36.013C302.114,35.547 301.985,35.147 301.985,35.147C301.95,35.404 301.222,35.485 301.106,36.32C300.969,37.293 301.174,37.723 300.877,37.947L300.862,38.051C301.092,38.084 301.502,38.248 301.647,38.268C302.168,38.34 302.383,37.874 302.383,37.874ZM301.197,36.615C301.202,36.622 301.209,36.63 301.214,36.637C301.332,36.793 301.407,37 301.389,37.12C301.379,37.199 301.34,37.265 301.277,37.311C301.241,37.338 301.198,37.358 301.15,37.371C301.125,37.124 301.151,36.842 301.197,36.615ZM301.545,37.977C301.322,37.945 301.21,37.743 301.165,37.484C301.232,37.468 301.293,37.441 301.344,37.402C301.431,37.336 301.485,37.245 301.5,37.136C301.524,36.962 301.402,36.658 301.225,36.482C301.256,36.359 301.292,36.263 301.325,36.215C301.325,36.215 301.998,36.721 301.891,37.479C301.828,37.938 301.65,37.991 301.545,37.977Z" style="fill-rule:nonzero;"/>
                <path d="M296.833,38.108C296.821,38.191 296.558,38.147 296.558,38.147L296.844,38.336C296.743,38.449 296.33,38.462 296.33,38.462C297.428,38.971 298.25,37.817 298.25,37.817C298.305,37.824 298.118,38.203 298.118,38.203C298.395,37.845 298.713,37.904 298.713,37.904L298.4,37.697C298.4,37.697 297.314,35.999 295.63,35.762C295.63,35.762 295.369,35.655 295.199,35.099C295.199,35.099 295.113,35.455 295.498,35.999C295.884,36.542 296.188,38.018 296.833,38.108ZM297.558,37.023C297.49,37.14 297.348,37.337 297.172,37.313C297.097,37.302 297.038,37.208 297.003,37.13C296.914,36.934 296.878,36.664 296.881,36.513C297.147,36.667 297.382,36.858 297.558,37.023ZM296.159,36.249C296.373,36.279 296.579,36.355 296.772,36.455C296.754,36.632 296.801,36.943 296.889,37.151C296.96,37.317 297.05,37.408 297.157,37.423C297.385,37.456 297.555,37.244 297.642,37.102C297.805,37.262 297.9,37.378 297.9,37.378C297.9,37.378 297.613,37.955 296.96,37.864C295.854,37.709 296.159,36.249 296.159,36.249Z" style="fill-rule:nonzero;"/>
                <path d="M298.507,41.901C298.466,42.192 298.67,42.463 298.962,42.504C299.042,42.515 299.12,42.508 299.192,42.485C299.23,42.446 299.261,42.4 299.281,42.348C299.225,42.365 299.165,42.37 299.104,42.362C298.87,42.329 298.707,42.113 298.74,41.88C298.757,41.762 298.819,41.663 298.907,41.597C298.86,41.564 298.805,41.54 298.745,41.527C298.621,41.608 298.53,41.741 298.507,41.901Z" style="fill-rule:nonzero;"/>
                <path d="M297.394,48.453C298.579,48.449 299.728,48.845 299.728,48.845C299.728,48.845 298.819,48.149 297.394,48.453Z" style="fill-rule:nonzero;"/>
                <path d="M298.874,51.43C299.877,51.345 300.944,51.702 300.944,51.702C300.944,51.702 300.029,51.083 298.874,51.43Z" style="fill-rule:nonzero;"/>
                <path d="M299.266,54.019C300.064,54.055 301.175,54.362 301.175,54.362C301.175,54.362 300.382,53.817 299.266,54.019Z" style="fill-rule:nonzero;"/>
                <path d="M298.846,56.81C299.981,57.711 300.651,57.181 300.651,57.181C300.651,57.181 299.838,57.351 298.846,56.81Z" style="fill-rule:nonzero;"/>
                <path d="M345.335,74.186L345.727,74.186L345.727,75.368L345.869,75.368L345.869,74.186L346.282,74.186L346.282,74.043L345.335,74.043L345.335,74.186Z" style="fill-rule:nonzero;"/>
                <path d="M347.378,74.043L347.039,75.122L346.699,74.043L346.472,74.043L346.472,75.368L346.613,75.368L346.613,74.243L346.968,75.368L347.11,75.368L347.465,74.243L347.465,75.368L347.606,75.368L347.606,74.043L347.378,74.043Z" style="fill-rule:nonzero;"/>
            </g>
        </g>
    </g>
</svg>
