<?xml version="1.0" encoding="UTF-8" standalone="no"?>
<!DOCTYPE svg PUBLIC "-//W3C//DTD SVG 1.1//EN" "http://www.w3.org/Graphics/SVG/1.1/DTD/svg11.dtd">
<svg width="100%" height="100%" viewBox="0 0 9268 2796" version="1.1" xmlns="http://www.w3.org/2000/svg" xmlns:xlink="http://www.w3.org/1999/xlink" xml:space="preserve" xmlns:serif="http://www.serif.com/" style="fill-rule:evenodd;clip-rule:evenodd;stroke-linejoin:round;stroke-miterlimit:1.41421;">
    <g transform="matrix(1,0,0,1,-64960.1,-50728.1)">
        <g transform="matrix(118.78,0,0,118.78,0,0)">
            <g>
                <path d="M584.447,435.945L581.97,435.945C581.722,435.945 581.554,436.073 581.49,436.334L580.776,439.121L584.434,437.293L584.693,436.295C584.758,436.061 584.668,435.945 584.447,435.945ZM583.831,436.885C583.826,436.889 583.816,436.893 583.809,436.895C583.507,437.048 582.684,437.459 581.749,437.927C581.886,437.39 582.006,436.923 582.053,436.736C582.063,436.703 582.069,436.677 582.072,436.663C582.261,436.663 583.285,436.663 583.889,436.663C583.869,436.739 583.85,436.814 583.831,436.885Z" style="fill:white;fill-rule:nonzero;"/>
                <path d="M590.876,437.465C591.149,436.404 591.442,435.274 591.661,434.432C591.864,433.647 592.002,433.113 592.002,433.113L588.29,433.113L588.026,434.152L588.022,434.167C588.02,434.161 588.019,434.157 588.017,434.152C587.949,433.903 587.818,433.684 587.624,433.508C587.343,433.25 586.978,433.112 586.565,433.112L580.624,433.112C580.325,433.112 580.036,433.198 579.761,433.364L579.825,433.112L577.835,433.112L572.532,433.112C572.305,433.112 572.079,433.162 571.864,433.255L571.901,433.112L568.559,433.112L563.523,433.112C563.542,433.009 563.551,432.906 563.551,432.799C563.551,432.516 563.49,432.254 563.377,432.02C563.286,431.834 563.162,431.663 563.002,431.516C562.774,431.308 562.5,431.168 562.193,431.095C562.037,431.059 561.875,431.04 561.705,431.04L559.109,431.04L556.074,431.04L553.671,431.04C553.215,431.04 552.772,431.199 552.393,431.503C552.002,431.816 551.751,432.193 551.649,432.627C551.649,432.625 551.639,432.668 551.619,432.742C551.476,433.277 550.888,435.504 550.888,435.504L550.839,435.95C550.839,436.776 551.186,437.443 551.841,437.88C551.841,437.88 552.642,438.413 553.605,439.055C553.507,439.055 550.003,439.055 550.003,439.055L549.823,439.75L548.958,443.114C548.908,443.287 548.884,443.451 548.884,443.633C548.884,444.127 549.075,444.565 549.433,444.897C549.775,445.208 550.222,445.374 550.732,445.374L558.763,445.374C559.222,445.374 559.665,445.214 560.044,444.911C560.393,444.63 560.63,444.298 560.749,443.919C560.763,443.876 560.776,443.831 560.786,443.786C560.782,443.796 561.144,442.413 561.361,441.579C561.455,441.222 561.521,440.965 561.521,440.965C561.521,440.965 561.578,440.612 561.578,440.462C561.578,439.798 561.356,439.242 560.94,438.826C560.842,438.728 560.737,438.637 560.618,438.555C560.614,438.553 559.788,438.006 558.807,437.358C558.856,437.358 562.432,437.358 562.432,437.358L562.612,436.663L564.632,436.663C564.614,436.733 564.592,436.821 564.567,436.918C564.422,437.485 564.171,438.468 563.901,439.524C563.663,440.454 563.411,441.44 563.204,442.252C562.942,443.274 562.752,444.019 562.752,444.019L566.436,444.019C566.436,444.019 566.936,442.066 567.422,440.16C567.643,439.291 567.863,438.431 568.031,437.771C568.169,437.242 568.27,436.839 568.315,436.664C568.727,436.664 569.634,436.664 570.276,436.664C570.16,437.127 570.034,437.626 569.905,438.128C569.7,438.943 569.489,439.768 569.316,440.455C569.067,441.435 568.889,442.139 568.889,442.139L568.894,442.119C568.851,442.269 568.83,442.423 568.83,442.574C568.83,443 568.985,443.367 569.279,443.637C569.47,443.811 569.808,444.02 570.34,444.02L580.196,444.02C580.196,444.02 580.516,442.737 580.627,442.301C580.63,442.285 580.633,442.27 580.637,442.257C580.928,442.113 581.771,441.695 582.729,441.222C582.622,441.644 582.467,442.239 582.331,442.771C582.158,443.445 582.009,444.02 582.009,444.02L585.722,444.02L585.988,442.975C586.054,443.23 586.187,443.455 586.386,443.637C586.575,443.811 586.914,444.02 587.445,444.02L593.371,444.02L594.282,440.457C594.282,440.457 590.841,440.457 590.099,440.457C590.189,440.109 590.516,438.846 590.876,437.465ZM561.952,436.639L558.816,436.639L559.205,435.141C559.292,434.825 559.169,434.666 558.853,434.666L555.486,434.666C555.17,434.666 554.974,434.789 554.905,435.055C554.835,435.319 554.959,435.53 555.24,435.723L560.278,439.053C560.718,439.352 560.948,439.793 560.948,440.409C560.948,440.533 560.948,440.638 560.913,440.744L560.173,443.58C560.104,443.879 559.927,444.125 559.662,444.338C559.397,444.549 559.099,444.654 558.799,444.654L550.766,444.654C550.413,444.654 550.132,444.549 549.92,444.355C549.691,444.142 549.586,443.878 549.586,443.58C549.586,443.457 549.604,443.351 549.639,443.227L550.555,439.667L553.691,439.667L553.321,441.166C553.251,441.466 553.374,441.624 553.674,441.624L557.038,441.624C557.356,441.624 557.549,441.5 557.601,441.255C557.656,441.026 557.568,440.814 557.32,440.653L552.248,437.272C551.773,436.956 551.543,436.497 551.543,435.898C551.543,435.774 551.562,435.669 551.578,435.582L552.336,432.728C552.406,432.428 552.582,432.182 552.846,431.97C553.112,431.759 553.41,431.654 553.708,431.654L561.743,431.654C562.096,431.654 562.377,431.759 562.589,431.953C562.817,432.164 562.922,432.429 562.922,432.746C562.922,432.869 562.904,432.975 562.871,433.1L561.952,436.639ZM558.434,435.384C558.317,435.832 558.092,436.697 558.051,436.858C557.288,436.353 556.535,435.856 556.065,435.544C555.973,435.484 555.891,435.431 555.824,435.385C555.889,435.385 555.976,435.385 556.075,435.385C556.729,435.384 557.973,435.384 558.434,435.384ZM554.022,441.012C554.13,440.571 554.302,439.881 554.302,439.881C554.302,439.881 554.342,439.717 554.378,439.571C555.23,440.138 556.069,440.699 556.538,441.011C555.939,441.012 554.533,441.012 554.022,441.012ZM567.834,435.945L565.954,443.299L563.645,443.299L565.525,435.945L562.866,435.945L563.437,433.726L571.078,433.726L570.507,435.945L567.834,435.945ZM576.551,443.3L570.375,443.3C570.129,443.3 569.922,443.235 569.766,443.092C569.612,442.949 569.533,442.755 569.533,442.522C569.533,442.43 569.547,442.34 569.572,442.25L571.53,434.519C571.583,434.298 571.713,434.117 571.921,433.96C572.128,433.806 572.349,433.728 572.569,433.728L579.003,433.728L578.432,435.947L573.88,435.947C573.632,435.947 573.464,436.075 573.4,436.336L573.128,437.4L576.903,437.4L576.332,439.629L572.557,439.629L572.272,440.733C572.221,440.953 572.298,441.07 572.532,441.07L577.124,441.07L576.551,443.3ZM573.948,436.784C573.959,436.742 573.974,436.685 573.98,436.662C574.183,436.662 577.161,436.662 578.387,436.662C578.171,437.5 577.921,438.478 577.679,439.418C577.589,439.772 577.498,440.12 577.413,440.454C576.27,440.454 573.638,440.454 573.007,440.454C573.017,440.418 573.027,440.383 573.036,440.346C573.804,440.346 576.811,440.346 576.811,440.346L577.075,439.314L577.721,436.785C577.723,436.784 574.973,436.784 573.948,436.784ZM585.238,443.3L582.904,443.3L583.773,439.928L580.101,441.743L579.712,443.3L577.39,443.3L579.648,434.518C579.699,434.297 579.829,434.116 580.025,433.959C580.232,433.805 580.439,433.727 580.66,433.727L586.601,433.727C586.846,433.727 587.053,433.805 587.21,433.948C587.365,434.091 587.443,434.285 587.443,434.518C587.443,434.609 587.428,434.7 587.403,434.79L585.238,443.3ZM593.461,441.068L592.89,443.299L587.481,443.299C587.233,443.299 587.027,443.234 586.87,443.091C586.716,442.948 586.638,442.754 586.638,442.521C586.638,442.429 586.652,442.339 586.678,442.249L588.845,433.727L591.178,433.727L589.363,440.732C589.299,440.952 589.402,441.069 589.648,441.069L593.461,441.069L593.461,441.068Z" style="fill:white;fill-rule:nonzero;"/>
                <path d="M608.963,433.112C608.963,433.112 608.402,435.314 608.288,435.771C608.184,435.824 608,435.914 607.767,436.032C607.363,436.234 606.802,436.515 606.197,436.821C606.267,436.541 606.354,436.207 606.445,435.855C606.766,434.597 607.149,433.112 607.149,433.112L595.06,433.112L594.662,434.668L594.148,436.662C594.148,436.662 596.021,436.662 596.808,436.662C596.74,436.926 596.623,437.383 596.481,437.943C595.912,440.163 594.927,444.017 594.927,444.017L598.611,444.017C598.611,444.017 599.502,440.534 600.064,438.329C600.271,437.526 600.432,436.893 600.492,436.661C600.923,436.661 601.897,436.661 602.543,436.661L602.047,438.597L600.658,444.017L604.342,444.017C604.342,444.017 604.903,441.828 605.018,441.372C605.307,441.227 606.163,440.8 607.128,440.317C606.805,441.585 606.186,444.016 606.186,444.016L609.869,444.016L610.848,440.209L611.764,436.653L612.674,433.11L608.963,433.11L608.963,433.112ZM600.01,435.945L598.129,443.299L595.82,443.299L597.701,435.945L595.041,435.945L595.611,433.726L603.252,433.726L602.682,435.945L600.01,435.945ZM609.387,443.3L607.076,443.3L608.167,439.018L604.482,440.862L603.859,443.3L601.55,443.3L604.001,433.727L606.323,433.727L605.219,438.02L608.892,436.179L609.514,433.727L611.849,433.727L609.387,443.3Z" style="fill:white;fill-rule:nonzero;"/>
            </g>
        </g>
        <g transform="matrix(118.78,0,0,118.78,0,0)">
            <g>
                <path d="M555.823,435.384C555.89,435.43 555.972,435.484 556.064,435.543C556.064,435.539 556.062,435.533 556.062,435.528C556.062,435.48 556.068,435.432 556.074,435.383C555.976,435.384 555.889,435.384 555.823,435.384Z" style="fill:rgb(211,175,126);fill-rule:nonzero;"/>
                <path d="M564.568,436.917C564.593,436.82 564.616,436.732 564.633,436.662C564.419,436.662 564.127,436.662 563.814,436.662C564.053,436.75 564.305,436.834 564.568,436.917Z" style="fill:rgb(211,175,126);fill-rule:nonzero;"/>
                <path d="M568.033,437.77C568.637,437.893 569.263,438.01 569.907,438.126C570.036,437.624 570.162,437.125 570.278,436.662C569.636,436.662 568.729,436.662 568.317,436.662C568.272,436.838 568.171,437.24 568.033,437.77Z" style="fill:rgb(211,175,126);fill-rule:nonzero;"/>
                <path d="M595.281,437.832C594.531,437.765 593.768,437.699 593.001,437.637L592.951,437.832C592.951,437.832 594.563,437.832 595.281,437.832Z" style="fill:rgb(211,175,126);fill-rule:nonzero;"/>
                <path d="M582.053,436.735C582.006,436.923 581.886,437.389 581.749,437.926C582.684,437.458 583.507,437.047 583.809,436.894C583.217,436.844 582.631,436.789 582.053,436.735Z" style="fill:rgb(211,175,126);fill-rule:nonzero;"/>
                <path d="M562.664,440.856C562.67,440.769 562.67,440.693 562.67,440.631C562.67,440.105 562.563,439.62 562.362,439.188C561.87,439.072 561.394,438.952 560.941,438.825C561.357,439.241 561.579,439.797 561.579,440.461C561.579,440.611 561.522,440.964 561.522,440.964C561.522,440.964 561.456,441.221 561.362,441.578C562.026,441.803 562.65,442.026 563.205,442.251C563.412,441.439 563.664,440.453 563.902,439.523C563.615,439.464 563.33,439.405 563.05,439.345C562.93,439.822 562.799,440.338 562.664,440.856Z" style="fill:rgb(211,175,126);fill-rule:nonzero;"/>
                <path d="M577.076,439.313C577.278,439.347 577.48,439.382 577.68,439.417C577.922,438.478 578.172,437.499 578.388,436.661C577.161,436.661 574.184,436.661 573.981,436.661C573.975,436.684 573.96,436.741 573.949,436.783C574.973,436.783 577.723,436.783 577.723,436.783L577.076,439.313Z" style="fill:rgb(211,175,126);fill-rule:nonzero;"/>
                <path d="M551.65,432.627C551.753,432.193 552.004,431.816 552.394,431.503C552.773,431.199 553.216,431.04 553.672,431.04L556.075,431.04C556.927,430.755 557.804,430.478 558.688,430.211L553.764,430.211C553.076,430.211 552.416,430.447 551.86,430.893C551.291,431.349 550.922,431.914 550.768,432.569L550.592,433.229C550.919,433.066 551.261,432.903 551.618,432.743C551.641,432.668 551.65,432.625 551.65,432.627Z" style="fill:rgb(211,175,126);fill-rule:nonzero;"/>
                <path d="M562.195,431.095C562.576,430.942 562.965,430.789 563.362,430.641C562.906,430.36 562.375,430.211 561.798,430.211L561.415,430.211L559.111,431.04L561.707,431.04C561.877,431.04 562.039,431.059 562.195,431.095Z" style="fill:rgb(211,175,126);fill-rule:nonzero;"/>
                <path d="M560.75,443.918C560.631,444.297 560.394,444.629 560.045,444.91C559.666,445.213 559.223,445.373 558.764,445.373L550.733,445.373C550.223,445.373 549.776,445.207 549.434,444.896C549.077,444.564 548.885,444.126 548.885,443.632C548.885,443.45 548.909,443.286 548.959,443.113L549.824,439.749C549.547,439.614 549.283,439.476 549.035,439.335L548.094,442.991C548.014,443.27 547.977,443.528 547.977,443.802C547.977,444.573 548.286,445.282 548.848,445.8C549.378,446.286 550.06,446.54 550.823,446.54L558.856,446.54C559.543,446.54 560.202,446.306 560.759,445.858C561.184,445.518 561.496,445.12 561.692,444.667C561.609,444.993 561.557,445.185 561.557,445.185L561.976,445.185C561.898,444.738 561.447,444.322 560.75,443.918Z" style="fill:rgb(211,175,126);fill-rule:nonzero;"/>
                <path d="M582.01,444.018C582.01,444.018 582.159,443.443 582.332,442.769C581.834,442.604 581.262,442.448 580.629,442.299C580.519,442.735 580.198,444.018 580.198,444.018L570.342,444.018C569.811,444.018 569.473,443.809 569.281,443.635C568.987,443.365 568.832,442.998 568.832,442.572C568.832,442.421 568.853,442.267 568.896,442.117L568.891,442.137C568.891,442.137 569.069,441.434 569.318,440.453C568.682,440.357 568.049,440.26 567.423,440.158C566.937,442.064 566.437,444.017 566.437,444.017L565.662,444.017C565.67,444.056 565.674,444.099 565.674,444.14C565.674,444.453 565.524,444.806 565.26,445.185L567.305,445.185C567.305,445.185 567.579,444.111 567.925,442.757C567.93,443.454 568.202,444.087 568.697,444.54C569.017,444.835 569.58,445.185 570.431,445.185L584.161,445.185C584.345,444.892 584.452,444.605 584.452,444.341C584.452,444.23 584.427,444.12 584.376,444.017L582.01,444.017L582.01,444.018Z" style="fill:rgb(211,175,126);fill-rule:nonzero;"/>
                <path d="M588.018,434.151C588.021,434.151 588.023,434.151 588.027,434.151L588.291,433.112L592.003,433.112C592.003,433.112 591.865,433.646 591.662,434.431C592.042,434.459 592.423,434.49 592.806,434.519C593.136,433.253 593.386,432.283 593.386,432.283L587.605,432.283L587.565,432.441C587.28,432.339 586.974,432.283 586.659,432.283L574.469,432.283C575.252,432.61 576.403,432.879 577.838,433.112L579.828,433.112L579.764,433.364C580.039,433.198 580.328,433.112 580.627,433.112L586.568,433.112C586.98,433.112 587.345,433.25 587.627,433.508C587.818,433.684 587.949,433.902 588.018,434.151Z" style="fill:rgb(211,175,126);fill-rule:nonzero;"/>
                <path d="M594.379,432.283L593.783,434.596C594.075,434.618 594.367,434.642 594.662,434.667L595.06,433.111L607.149,433.111C607.149,433.111 606.766,434.596 606.445,435.854C606.888,435.911 607.328,435.971 607.767,436.031C607.999,435.913 608.183,435.823 608.288,435.77C608.402,435.313 608.963,433.111 608.963,433.111L612.674,433.111L611.764,436.654C612.138,436.72 612.508,436.787 612.877,436.856L614.055,432.282L594.379,432.282L594.379,432.283Z" style="fill:rgb(211,175,126);fill-rule:nonzero;"/>
                <path d="M563.524,433.112L568.56,433.112C568.472,432.92 568.423,432.716 568.423,432.502C568.423,432.428 568.429,432.356 568.437,432.283L564.559,432.283C564.495,432.015 564.39,431.764 564.247,431.533C563.938,431.695 563.648,431.858 563.378,432.019C563.491,432.253 563.552,432.515 563.552,432.798C563.553,432.906 563.543,433.01 563.524,433.112Z" style="fill:rgb(211,175,126);fill-rule:nonzero;"/>
                <path d="M609.868,444.018L606.185,444.018C606.185,444.018 606.804,441.586 607.127,440.319C606.161,440.801 605.306,441.229 605.017,441.374C604.902,441.829 604.341,444.019 604.341,444.019L600.657,444.019L602.046,438.599C601.407,438.503 600.745,438.415 600.064,438.331C599.501,440.535 598.611,444.019 598.611,444.019L594.927,444.019C594.927,444.019 595.911,440.165 596.481,437.945C596.189,437.918 595.898,437.89 595.605,437.863C595.484,438.336 595.326,438.951 595.154,439.627C594.217,439.627 592.242,439.627 591.482,439.627C591.614,439.117 591.807,438.375 592.019,437.559C591.636,437.528 591.255,437.498 590.875,437.467C590.515,438.848 590.188,440.112 590.1,440.456C590.841,440.456 594.283,440.456 594.283,440.456L593.372,444.019L587.807,444.019C587.77,444.437 587.66,444.826 587.489,445.187L610.735,445.187L611.948,440.468C611.608,440.385 611.243,440.299 610.848,440.212L609.868,444.018Z" style="fill:rgb(211,175,126);fill-rule:nonzero;"/>
                <rect x="584.244" y="428.047" width="1.263" height="3.966" style="fill:rgb(211,175,126);"/>
                <path d="M592.873,430.533L595.303,430.533L595.303,432.013L596.566,432.013L596.566,428.047L595.303,428.047L595.303,429.505L592.873,429.505L592.873,428.047L591.605,428.047L591.605,432.013L592.873,432.013L592.873,430.533Z" style="fill:rgb(211,175,126);fill-rule:nonzero;"/>
                <rect x="597.211" y="428.047" width="1.263" height="3.966" style="fill:rgb(211,175,126);"/>
                <path d="M600.381,432.013L601.649,432.013L601.649,429.076L602.874,429.076L603.695,428.047L599.516,428.047L598.699,429.076L600.381,429.076L600.381,432.013Z" style="fill:rgb(211,175,126);fill-rule:nonzero;"/>
                <path d="M588.27,432.013L590.321,432.013L591.135,430.991L588.27,430.991C587.604,430.991 587.065,430.563 587.065,430.03C587.065,429.5 587.604,429.077 588.27,429.077L590.321,429.077L591.135,428.048L588.27,428.048C586.909,428.048 585.806,428.937 585.806,430.03C585.806,431.125 586.908,432.013 588.27,432.013Z" style="fill:rgb(211,175,126);fill-rule:nonzero;"/>
                <path d="M604.038,432.013L605.897,429.561L606.937,430.985L605.232,430.985L604.467,432.013L609.264,432.013L606.71,428.489C606.71,428.489 606.376,428.038 605.897,428.038C605.413,428.038 605.085,428.489 605.085,428.489L602.468,432.013L604.038,432.013Z" style="fill:rgb(211,175,126);fill-rule:nonzero;"/>
                <path d="M578.243,432.074C578.651,432.074 578.934,431.613 578.934,431.613L580.185,429.636L581.432,431.613C581.432,431.613 581.711,432.074 582.128,432.074C582.692,432.074 582.853,431.568 582.853,431.568L583.912,428.047L582.519,428.047L581.986,430.143L580.842,428.357C580.842,428.357 580.646,428.047 580.185,428.047C579.726,428.047 579.528,428.357 579.528,428.357L578.383,430.143L577.845,428.047L576.458,428.047L577.517,431.568C577.518,431.568 577.674,432.074 578.243,432.074Z" style="fill:rgb(211,175,126);fill-rule:nonzero;"/>
            </g>
        </g>
        <g transform="matrix(118.78,0,0,118.78,0,0)">
            <g>
                <path d="M550.84,435.95L550.889,435.504C550.889,435.504 551.478,433.277 551.62,432.742C551.263,432.902 550.921,433.065 550.594,433.228C548.355,434.353 546.893,435.562 546.893,436.816C546.893,437.777 547.743,438.601 549.036,439.336C549.284,439.477 549.548,439.615 549.825,439.75L550.005,439.055C550.005,439.055 553.509,439.055 553.607,439.055C552.644,438.413 551.843,437.88 551.843,437.88C551.187,437.443 550.84,436.776 550.84,435.95Z" style="fill:rgb(57,58,150);fill-rule:nonzero;"/>
                <path d="M554.303,439.881C554.303,439.881 554.131,440.57 554.023,441.012C554.534,441.012 555.94,441.012 556.54,441.012C556.071,440.699 555.231,440.139 554.38,439.572C554.343,439.717 554.303,439.881 554.303,439.881Z" style="fill:rgb(57,58,150);fill-rule:nonzero;"/>
                <path d="M561.415,430.211L569.4,427.341C566.515,428.079 562.517,429.058 558.689,430.211C557.804,430.479 556.927,430.755 556.076,431.04L559.111,431.04L561.415,430.211Z" style="fill:rgb(57,58,150);fill-rule:nonzero;"/>
                <path d="M562.753,444.018C562.753,444.018 562.943,443.274 563.205,442.251C562.65,442.026 562.026,441.803 561.362,441.578C561.145,442.412 560.783,443.795 560.787,443.785C560.777,443.83 560.764,443.875 560.75,443.918C561.447,444.322 561.898,444.738 561.976,445.186C561.986,445.233 561.99,445.28 561.99,445.327C561.99,446.979 559.917,449.546 558.38,450.606C560.832,448.985 564.114,446.833 565.261,445.186C565.525,444.807 565.675,444.454 565.675,444.141C565.675,444.1 565.671,444.057 565.663,444.018L562.753,444.018Z" style="fill:rgb(57,58,150);fill-rule:nonzero;"/>
                <path d="M562.613,436.662L562.433,437.357C562.433,437.357 558.857,437.357 558.808,437.357C559.788,438.005 560.615,438.552 560.619,438.554C560.738,438.635 560.844,438.727 560.941,438.825C561.394,438.952 561.87,439.072 562.362,439.188C562.588,439.241 562.818,439.292 563.05,439.345C563.329,439.405 563.614,439.464 563.902,439.523C564.173,438.466 564.423,437.484 564.568,436.917C564.304,436.834 564.052,436.75 563.814,436.662C563.405,436.662 562.963,436.662 562.613,436.662Z" style="fill:rgb(57,58,150);fill-rule:nonzero;"/>
                <path d="M563.362,430.641C562.965,430.789 562.576,430.942 562.195,431.095C562.502,431.168 562.776,431.308 563.004,431.516C563.164,431.662 563.288,431.834 563.379,432.02C563.65,431.859 563.94,431.696 564.248,431.534C567.059,430.044 571.328,428.464 575.285,427.075C575.285,427.074 568.799,428.592 563.362,430.641Z" style="fill:rgb(57,58,150);fill-rule:nonzero;"/>
                <path d="M586.387,443.635C586.188,443.453 586.055,443.228 585.989,442.973L585.723,444.018L584.377,444.018C584.428,444.122 584.453,444.231 584.453,444.342C584.453,444.606 584.346,444.893 584.162,445.186C582.969,447.114 578.479,449.489 578.479,449.489C582.48,448.741 586.349,447.565 587.488,445.186C587.659,444.825 587.769,444.436 587.806,444.018L587.445,444.018C586.915,444.018 586.576,443.809 586.387,443.635Z" style="fill:rgb(57,58,150);fill-rule:nonzero;"/>
                <path d="M556.074,435.384C556.068,435.433 556.062,435.481 556.062,435.529C556.062,435.534 556.064,435.54 556.064,435.544C556.535,435.857 557.288,436.354 558.05,436.858C558.091,436.698 558.316,435.833 558.433,435.384C557.973,435.384 556.729,435.384 556.074,435.384Z" style="fill:rgb(57,58,150);fill-rule:nonzero;"/>
                <path d="M567.424,440.158C568.05,440.26 568.683,440.357 569.319,440.453C569.492,439.765 569.703,438.941 569.908,438.126C569.264,438.01 568.638,437.893 568.034,437.77C567.865,438.43 567.645,439.289 567.424,440.158Z" style="fill:rgb(57,58,150);fill-rule:nonzero;"/>
                <path d="M582.73,441.22C581.772,441.694 580.929,442.112 580.638,442.255C580.634,442.268 580.631,442.283 580.628,442.299C581.261,442.447 581.833,442.604 582.331,442.769C582.469,442.236 582.623,441.642 582.73,441.22Z" style="fill:rgb(57,58,150);fill-rule:nonzero;"/>
                <path d="M576.813,440.346C576.813,440.346 573.805,440.346 573.038,440.346C573.028,440.383 573.018,440.418 573.009,440.454C573.64,440.454 576.273,440.454 577.415,440.454C577.5,440.12 577.591,439.771 577.681,439.418C577.482,439.383 577.28,439.348 577.077,439.314L576.813,440.346Z" style="fill:rgb(57,58,150);fill-rule:nonzero;"/>
                <path d="M612.877,436.857C612.508,436.788 612.138,436.721 611.764,436.655L610.848,440.211C611.243,440.298 611.608,440.384 611.948,440.467C615.909,441.436 616.4,442.152 616.251,443.156C616.251,443.156 618.647,438.867 624.918,440.498C621.719,438.883 617.511,437.723 612.877,436.857Z" style="fill:rgb(57,58,150);fill-rule:nonzero;"/>
                <path d="M594.662,434.668C594.367,434.643 594.075,434.619 593.783,434.597C593.455,434.571 593.131,434.545 592.804,434.52C592.421,434.491 592.04,434.46 591.66,434.432C591.441,435.274 591.148,436.405 590.875,437.465C591.255,437.496 591.636,437.526 592.019,437.557C592.347,437.582 592.674,437.61 593,437.637C593.768,437.7 594.53,437.765 595.28,437.832C595.388,437.842 595.497,437.852 595.604,437.861C595.897,437.888 596.188,437.916 596.48,437.943C596.623,437.382 596.739,436.925 596.807,436.662C596.02,436.662 594.147,436.662 594.147,436.662L594.662,434.668Z" style="fill:rgb(57,58,150);fill-rule:nonzero;"/>
                <path d="M583.831,436.885C583.85,436.815 583.869,436.739 583.889,436.662C583.285,436.662 582.261,436.662 582.072,436.662C582.069,436.677 582.063,436.702 582.053,436.735C582.631,436.789 583.217,436.843 583.809,436.894C583.816,436.893 583.826,436.889 583.831,436.885Z" style="fill:rgb(57,58,150);fill-rule:nonzero;"/>
                <path d="M588.022,434.166L588.026,434.151C588.022,434.151 588.02,434.151 588.017,434.151C588.02,434.156 588.021,434.16 588.022,434.166Z" style="fill:rgb(57,58,150);fill-rule:nonzero;"/>
                <path d="M606.197,436.821C606.802,436.515 607.363,436.234 607.767,436.032C607.328,435.972 606.888,435.912 606.445,435.855C606.354,436.207 606.268,436.541 606.197,436.821Z" style="fill:rgb(57,58,150);fill-rule:nonzero;"/>
                <path d="M573.28,431.143C573.28,429.852 575.9,427.954 575.9,427.954C573.224,428.813 568.701,429.936 568.437,432.284C568.429,432.356 568.423,432.429 568.423,432.503C568.423,432.717 568.472,432.921 568.56,433.113L571.902,433.113L571.865,433.256C572.08,433.163 572.306,433.113 572.533,433.113L577.836,433.113C576.4,432.88 575.25,432.611 574.467,432.284C573.701,431.966 573.28,431.592 573.28,431.143Z" style="fill:rgb(57,58,150);fill-rule:nonzero;"/>
                <path d="M600.064,438.33C600.746,438.414 601.408,438.502 602.046,438.598L602.542,436.662C601.896,436.662 600.922,436.662 600.491,436.662C600.433,436.895 600.271,437.527 600.064,438.33Z" style="fill:rgb(57,58,150);fill-rule:nonzero;"/>
            </g>
        </g>
        <g transform="matrix(118.78,0,0,118.78,0,0)">
            <g>
                <path d="M558.816,436.639L561.952,436.639L562.869,433.1C562.902,432.975 562.92,432.87 562.92,432.746C562.92,432.429 562.815,432.164 562.587,431.953C562.375,431.76 562.094,431.654 561.741,431.654L553.706,431.654C553.408,431.654 553.109,431.759 552.844,431.97C552.58,432.182 552.405,432.428 552.334,432.728L551.576,435.582C551.559,435.669 551.541,435.774 551.541,435.898C551.541,436.497 551.771,436.956 552.246,437.272L557.318,440.653C557.566,440.813 557.654,441.025 557.599,441.255C557.547,441.5 557.355,441.624 557.036,441.624L553.672,441.624C553.372,441.624 553.249,441.466 553.319,441.166L553.689,439.667L550.553,439.667L549.637,443.227C549.602,443.351 549.584,443.456 549.584,443.58C549.584,443.879 549.689,444.143 549.918,444.355C550.13,444.548 550.411,444.654 550.764,444.654L558.797,444.654C559.097,444.654 559.396,444.549 559.66,444.338C559.925,444.125 560.101,443.879 560.171,443.58L560.911,440.744C560.946,440.639 560.946,440.533 560.946,440.409C560.946,439.793 560.717,439.351 560.276,439.053L555.238,435.723C554.957,435.53 554.833,435.319 554.903,435.055C554.972,434.789 555.168,434.666 555.484,434.666L558.851,434.666C559.166,434.666 559.289,434.824 559.203,435.141L558.816,436.639Z" style="fill-rule:nonzero;"/>
                <path d="M571.078,433.727L563.438,433.727L562.866,435.945L565.525,435.945L563.646,443.3L565.954,443.3L567.834,435.945L570.507,435.945L571.078,433.727Z" style="fill-rule:nonzero;"/>
                <path d="M572.27,440.731L572.555,439.627L576.33,439.627L576.901,437.398L573.126,437.398L573.398,436.334C573.462,436.073 573.63,435.945 573.878,435.945L578.43,435.945L579.001,433.726L572.567,433.726C572.346,433.726 572.126,433.804 571.919,433.958C571.711,434.114 571.581,434.296 571.528,434.517L569.57,442.248C569.545,442.339 569.531,442.429 569.531,442.52C569.531,442.753 569.61,442.948 569.764,443.09C569.92,443.233 570.127,443.298 570.373,443.298L576.549,443.298L577.119,441.067L572.527,441.067C572.296,441.068 572.219,440.951 572.27,440.731Z" style="fill-rule:nonzero;"/>
                <path d="M587.444,434.518C587.444,434.285 587.366,434.09 587.211,433.948C587.054,433.805 586.847,433.727 586.602,433.727L580.661,433.727C580.44,433.727 580.233,433.805 580.026,433.959C579.83,434.115 579.7,434.297 579.649,434.518L577.391,443.3L579.713,443.3L580.102,441.743L583.774,439.928L582.905,443.3L585.239,443.3L587.405,434.79C587.43,434.699 587.444,434.608 587.444,434.518ZM584.693,436.295L584.434,437.293L580.776,439.121L581.49,436.334C581.554,436.073 581.722,435.945 581.97,435.945L584.447,435.945C584.668,435.945 584.758,436.061 584.693,436.295Z" style="fill-rule:nonzero;"/>
                <path d="M589.361,440.731L591.176,433.726L588.843,433.726L586.676,442.248C586.65,442.339 586.636,442.429 586.636,442.52C586.636,442.753 586.714,442.948 586.868,443.09C587.025,443.233 587.231,443.298 587.479,443.298L592.888,443.298L593.459,441.067L589.645,441.067C589.4,441.068 589.297,440.951 589.361,440.731Z" style="fill-rule:nonzero;"/>
                <path d="M603.252,433.727L595.611,433.727L595.041,435.945L597.701,435.945L595.82,443.3L598.129,443.3L600.01,435.945L602.682,435.945L603.252,433.727Z" style="fill-rule:nonzero;"/>
                <path d="M608.894,436.179L605.221,438.02L606.324,433.727L604.002,433.727L601.551,443.3L603.859,443.3L604.482,440.861L608.167,439.018L607.076,443.3L609.387,443.3L611.851,433.727L609.516,433.727L608.894,436.179Z" style="fill-rule:nonzero;"/>
                <path d="M612.963,444.066L613.334,444.066L613.334,445.186L613.467,445.186L613.467,444.066L613.859,444.066L613.859,443.932L612.963,443.932L612.963,444.066Z" style="fill-rule:nonzero;"/>
                <path d="M614.896,443.932L614.574,444.953L614.254,443.932L614.039,443.932L614.039,445.186L614.172,445.186L614.172,444.121L614.508,445.186L614.643,445.186L614.979,444.121L614.979,445.186L615.113,445.186L615.113,443.932L614.896,443.932Z" style="fill-rule:nonzero;"/>
            </g>
        </g>
    </g>
</svg>
