<?xml version="1.0" encoding="UTF-8" standalone="no"?>
<!DOCTYPE svg PUBLIC "-//W3C//DTD SVG 1.1//EN" "http://www.w3.org/Graphics/SVG/1.1/DTD/svg11.dtd">
<svg width="100%" height="100%" viewBox="0 0 786 646" version="1.1" xmlns="http://www.w3.org/2000/svg" xmlns:xlink="http://www.w3.org/1999/xlink" xml:space="preserve" xmlns:serif="http://www.serif.com/" style="fill-rule:evenodd;clip-rule:evenodd;stroke-linejoin:round;stroke-miterlimit:1.41421;">
    <g transform="matrix(1,0,0,1,-1998.83,-1140.64)">
        <g transform="matrix(4.16667,0,0,4.16667,0,0)">
            <path d="M573.942,273.754C616.751,273.754 651.455,308.456 651.455,351.266C651.455,394.073 616.751,428.778 573.942,428.778C531.134,428.778 496.431,394.073 496.431,351.266C496.431,308.456 531.134,273.754 573.942,273.754Z" style="fill:rgb(64,63,65);"/>
        </g>
        <g transform="matrix(4.16667,0,0,4.16667,0,0)">
            <path d="M573.942,279.022C613.842,279.022 646.188,311.366 646.188,351.266C646.188,391.164 613.842,423.51 573.942,423.51C534.044,423.51 501.697,391.164 501.697,351.266C501.697,311.366 534.044,279.022 573.942,279.022Z" style="fill:rgb(64,63,65);"/>
        </g>
        <g transform="matrix(4.16667,0,0,4.16667,0,0)">
            <path d="M553.324,339.786C552.982,341.564 552.751,344.156 553.651,346.087C555.168,349.328 558.789,353.986 558.789,353.986C558.789,353.986 559.861,355.63 557.938,356.713C557.568,356.926 557.221,357.113 556.896,357.276C556.623,357.5 556.314,357.742 555.964,358C554.196,359.315 553.131,357.678 553.131,357.678C553.131,357.678 550.341,352.47 547.986,349.771C546.59,348.16 544.123,347.329 542.358,346.918C535.469,348.3 528.124,345.469 524.051,339.221C518.724,331.034 521.044,320.078 529.232,314.751C537.419,309.426 548.375,311.744 553.701,319.93C557.768,326.184 557.376,334.043 553.324,339.786Z" style="fill:rgb(167,169,172);"/>
        </g>
        <g transform="matrix(4.16667,0,0,4.16667,0,0)">
            <path d="M553.439,339.975C553.167,341.004 553.001,342.139 553.182,343.08C553.639,345.445 558.474,353.532 558.852,354.092C559.229,354.655 559.794,355.778 558.586,356.564C557.378,357.346 553.681,358.414 553.681,358.414C553.681,358.414 551.943,354.607 551.488,353.822C551.034,353.039 548.897,349.771 546.722,348.674C544.547,347.576 541.266,347.103 541.266,347.103L539.334,347.121C539.334,347.121 539.345,347.062 539.367,346.955C541.535,345.933 548.629,342.569 553.439,339.975Z" style="fill:rgb(88,89,91);"/>
        </g>
        <g transform="matrix(4.16667,0,0,4.16667,0,0)">
            <path d="M540.289,346.809C539.446,346.922 538.613,346.997 537.795,347.029C538.305,346.797 538.816,346.566 539.322,346.334C542.918,344.703 546.468,342.98 550.034,341.259C551.218,340.689 552.402,340.119 553.588,339.555L553.582,339.576L553.548,339.715C553.534,339.77 553.521,339.823 553.508,339.878L553.479,340.009C553.465,340.075 553.45,340.142 553.438,340.209L553.423,340.289C553.409,340.369 553.395,340.45 553.382,340.529L553.379,340.549L553.374,340.583C553.362,340.673 553.35,340.764 553.34,340.855L553.336,340.883L553.337,340.885C552.371,341.353 551.404,341.817 550.433,342.275C547.071,343.863 543.701,345.413 540.289,346.809Z" style="fill:rgb(64,63,65);"/>
        </g>
        <g transform="matrix(4.16667,0,0,4.16667,0,0)">
            <path d="M542.365,347.448C543.028,347.58 543.681,347.772 544.308,348.033C544.612,348.162 544.918,348.32 545.226,348.466C545.548,348.662 545.883,348.85 546.201,349.069C547.905,350.262 549.279,351.9 550.391,353.646C550.734,354.194 551.033,354.76 551.353,355.315C551.875,356.337 552.346,357.389 552.729,358.469C553.308,358.455 553.843,358.408 554.333,358.334C554.127,357.682 553.887,357.043 553.616,356.415C553.333,355.766 552.984,355.153 552.673,354.524C552.313,353.937 551.973,353.338 551.585,352.769C550.313,350.916 548.705,349.243 546.781,348.059C546.421,347.839 546.032,347.661 545.661,347.466C545.317,347.325 544.976,347.171 544.63,347.042C540.531,345.593 536.728,347.347 531.955,345.34C529.023,344.108 526.417,342.016 524.553,339.157L524.554,339.157C521.999,335.231 521.284,330.603 522.197,326.296C523.12,321.936 525.712,317.925 529.75,315.297C533.766,312.685 538.438,311.943 542.744,312.855C546.906,313.736 550.721,316.185 553.198,319.994C555.111,322.937 555.992,326.275 555.929,329.577C555.903,330.967 555.709,332.35 555.354,333.692C554.479,337.008 552.157,339.794 552.679,343.442C552.745,343.902 552.849,344.357 552.939,344.81C553.485,346.963 554.443,348.962 555.633,350.823C556.396,352.015 556.716,352.381 557.571,353.49C558.096,354.143 558.649,354.772 559.222,355.384C559.491,354.928 559.669,354.485 559.785,354.095C559.396,353.63 559.013,353.16 558.642,352.68C558.338,352.263 558.021,351.857 557.724,351.436C556.22,349.314 554.92,347.033 554.136,344.547C554.025,344.138 553.902,343.728 553.817,343.311C552.531,337.229 557.061,337.076 557.191,330.212C557.259,326.685 556.296,323.084 554.202,319.866C551.355,315.488 547.027,312.685 542.334,311.692C537.785,310.728 532.885,311.491 528.713,314.204C524.564,316.904 521.9,321.035 520.948,325.53C519.986,330.08 520.776,335.024 523.547,339.285L523.551,339.287C525.701,342.582 528.695,344.99 532.063,346.406C536.937,348.456 538.527,346.681 542.365,347.448Z" style="fill:rgb(64,63,65);fill-rule:nonzero;"/>
        </g>
        <g transform="matrix(4.16667,0,0,4.16667,0,0)">
            <path d="M559.244,353.957C559.352,354.43 559.202,354.898 558.919,355.284C558.815,355.436 558.688,355.568 558.568,355.707C558.391,355.851 558.231,356.017 558.044,356.145C556.878,356.962 555.406,357.316 554.02,357.508C553.561,357.57 553.092,357.605 552.621,357.652C551.663,357.769 551.826,359.131 552.791,359.02C553.294,358.939 553.805,358.899 554.298,358.803C555.875,358.503 557.516,357.965 558.756,356.905C558.974,356.721 559.153,356.485 559.348,356.282C559.487,356.086 559.631,355.896 559.748,355.679C560.086,355.072 560.219,354.331 559.906,353.688C559.716,353.225 559.049,353.486 559.244,353.957Z" style="fill:rgb(64,63,65);fill-rule:nonzero;"/>
        </g>
        <g transform="matrix(4.16667,0,0,4.16667,0,0)">
            <path d="M536.571,345.429C531.798,345.014 527.258,342.487 524.438,338.16C519.581,330.696 521.695,320.707 529.161,315.851C532.725,313.532 536.864,312.803 540.745,313.486C537.288,313.188 533.709,313.997 530.573,316.036C523.107,320.894 520.992,330.882 525.851,338.346C528.392,342.242 532.327,344.68 536.571,345.429Z" style="fill:white;"/>
        </g>
        <g transform="matrix(4.16667,0,0,4.16667,0,0)">
            <path d="M544.322,346.002C547.987,346.69 553.077,350.305 555.311,355.649L554.492,356.075C553.865,354.161 551.6,349.198 544.322,346.002Z" style="fill:white;"/>
        </g>
        <g transform="matrix(4.16667,0,0,4.16667,0,0)">
            <path d="M605.911,340.641C605.971,340.731 606.03,340.82 606.088,340.913C610.671,340.138 615.256,339.386 619.845,338.653C620.13,338.401 620.522,338.364 620.853,338.494C624.363,337.936 627.875,336.664 631.39,336.133C631.521,336.331 631.667,336.534 631.834,336.746L643.881,334.565L643.853,334.303L644.425,334.949L644.521,335.388C642.262,335.825 640.001,336.266 637.743,336.714C640.393,339.327 642.769,342.249 645.119,345.144C645.336,345.415 645.553,345.691 645.768,345.963C645.826,345.642 645.887,345.326 645.948,345.007C646.647,353.759 645.977,365.129 641.213,377.522L641.564,374.703C642.585,366.761 644.503,358.07 644.541,349.429C643.698,348.221 642.84,347.021 641.962,345.834C640.114,343.254 638.229,340.693 636.374,338.111C635.954,341.859 635.549,347.05 635.144,350.809C634.596,356.16 633.956,360.783 633.248,366.135C635.266,368.98 637.626,372.561 639.642,375.392L641.2,377.552C640.701,378.851 640.157,380.16 639.563,381.479C639.373,381.345 639.191,381.172 639.025,380.949L636.486,377.789C634.783,375.588 633.92,374.482 632.776,372.96L632.75,373.139C632.242,376.336 632.497,374.81 631.988,377.716C631.735,379.713 628.941,379.349 629.195,377.388C629.413,374.484 629.305,376.009 629.523,372.776C629.609,371.488 629.703,370.204 629.805,368.919C626.366,364.151 623.05,359.29 619.587,354.544C618.58,361.417 617.146,368.196 615.377,374.884L614.688,377.424C614.181,379.568 611.17,378.841 611.677,376.735L612.13,374.435C611.904,374.346 611.681,374.208 611.461,374.012L608.484,371.432C605.517,368.842 602.572,366.22 599.64,363.584C599.332,365.1 599.013,366.61 598.693,368.129C598.222,370.489 594.849,369.835 595.319,367.44C595.739,365.22 596.144,363.019 596.572,360.821C594.402,358.865 592.233,356.905 590.062,354.948C589.407,354.39 588.755,353.83 588.096,353.276C587.806,354.985 587.5,356.691 587.195,358.399C586.434,362.572 585.489,366.714 584.549,370.817C584.077,373.067 580.922,372.413 581.392,370.163C582.19,365.986 583.024,361.846 584.004,357.742C584.512,355.568 585.007,353.393 585.588,351.242C584.478,350.384 583.336,349.572 582.144,348.844C578.891,349.617 575.641,350.402 572.392,351.195C572.08,352.634 571.729,354.069 571.353,355.497C574.908,357.655 578.28,360.077 581.681,362.499C583.714,364.025 581.609,366.93 579.542,365.441C576.52,363.173 573.523,360.905 570.468,358.74C570.23,359.583 569.989,360.426 569.749,361.267C568.153,366.641 566.194,371.944 564.237,377.242C563.656,379.132 561.008,378.297 561.588,376.409C562.139,374.277 562.743,372.164 563.383,370.069C563.017,370.124 562.604,370.065 562.169,369.835C559.181,368.288 556.223,366.739 553.389,364.945C552.541,367.551 551.58,370.129 550.599,372.667C549.874,374.703 547.008,373.65 547.734,371.615C548.7,368.799 549.744,365.986 550.693,363.153C548.478,361.646 546.308,360.073 544.275,358.336C542.926,358.692 541.575,359.048 540.227,359.407C539.698,361.027 539.14,362.637 538.565,364.243L538.956,364.498C540.772,365.769 539.22,368.237 537.421,367.4L537.033,368.453C535.909,371.398 534.749,374.303 533.587,377.208C532.753,379.349 529.708,378.188 530.541,376.042C531.631,373.104 532.719,370.127 533.914,367.221C534.165,366.627 534.413,366.029 534.661,365.433C533.162,364.334 531.667,363.234 530.196,362.109C529.01,362.433 527.822,362.756 526.636,363.082C525.81,365.548 525.021,368.027 524.231,370.489C523.434,372.702 520.351,371.615 521.11,369.401C521.789,367.592 522.466,365.804 523.203,364.028C516.799,365.804 510.404,367.614 504.021,369.459C503.027,366.653 502.404,364.183 502.023,362.072C536.484,353.937 571.164,346.817 606.017,340.925L605.911,340.641ZM536.877,360.302L533.747,361.144C534.467,361.591 535.182,362.046 535.895,362.505C536.214,361.767 536.539,361.03 536.877,360.302ZM556.021,355.288C555.521,357.425 554.979,359.551 554.389,361.652L554.661,361.812C557.635,363.554 560.718,365.113 563.801,366.675C564.009,366.784 564.181,366.912 564.323,367.05C565.051,364.776 565.804,362.513 566.557,360.251C567.162,358.476 567.396,357.783 567.724,356.87C565.956,355.736 564.188,354.625 562.323,353.692C560.221,354.22 558.12,354.753 556.021,355.288ZM551.705,360.061C552.134,358.726 552.553,357.385 553.013,356.062C551.189,356.53 549.366,357.002 547.546,357.478C548.245,357.914 548.947,358.354 549.655,358.795C550.746,359.471 551.292,359.809 551.705,360.061ZM569.526,351.9C568.422,352.171 567.318,352.444 566.216,352.719C567.078,353.13 567.926,353.574 568.763,354.028C569.011,353.322 569.263,352.608 569.526,351.9ZM630.383,362.356C630.78,358.334 631.259,354.317 631.843,350.301C632.553,345.978 633.185,341.575 634.495,337.361C630.124,338.238 625.759,339.135 621.397,340.05C621.029,343.197 620.643,346.346 620.251,349.478C621.005,350.331 621.747,351.191 622.487,352.043C625.232,355.392 627.838,358.852 630.383,362.356ZM612.372,341.976C614.215,343.295 615.891,344.831 617.476,346.459C617.909,344.462 618.404,342.481 619.047,340.546C616.819,341.018 614.596,341.494 612.372,341.976ZM616.625,350.641C614.539,347.942 612.384,345.296 610.009,342.819C609.896,342.736 609.806,342.644 609.736,342.548L607.265,343.09C609.869,348.776 610.815,357.615 607.856,365.633C608.929,366.594 609.995,367.561 611.063,368.527L612.916,370.269C614.051,364.237 615.188,358.224 616.32,352.187C616.424,351.673 616.524,351.157 616.625,350.641ZM602.792,344.236C602.104,348.776 601.449,353.276 600.725,357.781C600.646,358.242 600.567,358.701 600.486,359.161C602.553,360.919 604.591,362.709 606.614,364.519C608.176,360.691 609.952,353.285 606.795,343.194C605.473,343.485 604.15,343.778 602.828,344.074C602.82,344.126 602.808,344.181 602.792,344.236ZM597.431,356.608C597.874,354.465 598.191,352.875 598.693,350.698C599.196,348.646 599.736,346.59 600.454,344.606C596.642,345.464 592.832,346.336 589.027,347.224C588.905,348.13 588.774,349.035 588.636,349.939C589.798,350.728 590.929,351.564 592.056,352.369C593.877,353.744 595.666,355.161 597.431,356.608ZM586.385,348.505C586.462,348.266 586.538,348.025 586.616,347.786L585.552,348.037C585.831,348.189 586.109,348.345 586.385,348.505Z" style="fill:white;"/>
        </g>
        <g transform="matrix(4.16667,0,0,4.16667,0,0)">
            <path d="M573.942,277.66C594.268,277.66 612.67,285.899 625.99,299.218C639.311,312.538 647.549,330.941 647.549,351.266C647.549,371.592 639.311,389.993 625.99,403.312C612.67,416.633 594.268,424.871 573.942,424.871C553.617,424.871 535.216,416.633 521.896,403.312C508.576,389.993 500.337,371.592 500.337,351.266C500.337,330.941 508.576,312.538 521.896,299.218C535.216,285.899 553.617,277.66 573.942,277.66ZM624.064,301.145C611.237,288.318 593.517,280.383 573.942,280.383C554.369,280.383 536.647,288.318 523.82,301.145C510.994,313.971 503.061,331.692 503.061,351.266C503.061,370.839 510.994,388.561 523.82,401.388C536.647,414.215 554.369,422.149 573.942,422.149C593.517,422.149 611.237,414.215 624.064,401.388C636.892,388.561 644.826,370.839 644.826,351.266C644.826,331.692 636.892,313.971 624.064,301.145Z" style="fill:white;fill-rule:nonzero;"/>
        </g>
        <g transform="matrix(4.16667,0,0,4.16667,0,0)">
            <path d="M615.415,344.003C612.726,345.798 609.14,348.751 607.814,352.317C605.597,358.308 604.214,368.748 604.214,368.748C604.214,368.748 603.466,372.172 599.677,371.085C598.943,370.881 598.27,370.675 597.655,370.466C597.029,370.403 596.334,370.311 595.569,370.19C591.682,369.589 592.428,366.181 592.428,366.181C592.428,366.181 595.551,356.112 596.029,349.733C596.33,345.937 594.294,341.76 592.604,339.002C582.213,331.976 576.605,319.09 579.444,306.079C583.177,289.047 600.012,278.264 617.047,281.996C634.079,285.73 644.862,302.565 641.131,319.596C638.277,332.605 627.795,341.957 615.415,344.003Z" style="fill:rgb(167,169,172);"/>
        </g>
        <g transform="matrix(4.16667,0,0,4.16667,0,0)">
            <path d="M615.322,344.387C613.67,345.33 612.018,346.544 611.049,347.954C608.616,351.497 604.395,367.779 604.153,368.962C603.912,370.148 603.195,372.276 600.683,371.722C598.172,371.167 592.181,367.805 592.181,367.805C592.181,367.805 594.84,360.823 595.27,359.265C595.698,357.702 597.173,350.89 595.841,346.748C594.509,342.609 591.002,337.844 591.002,337.844L588.556,335.412C588.556,335.412 588.643,335.349 588.81,335.244C592.824,336.721 605.994,341.524 615.322,344.387Z" style="fill:rgb(88,89,91);"/>
        </g>
        <g transform="matrix(4.16667,0,0,4.16667,0,0)">
            <path d="M590.148,336.233C588.95,335.303 587.812,334.336 586.744,333.339C587.679,333.692 588.611,334.054 589.543,334.408C596.123,336.933 602.763,339.287 609.419,341.664C611.629,342.453 613.837,343.246 616.041,344.049L616.006,344.068L615.785,344.197C615.7,344.246 615.615,344.296 615.531,344.349L615.328,344.476C615.224,344.541 615.123,344.608 615.021,344.676L614.9,344.757C614.781,344.839 614.662,344.921 614.546,345.007L614.515,345.028L614.466,345.063C614.335,345.16 614.205,345.259 614.078,345.361L614.037,345.391L614.035,345.393C612.23,344.753 610.426,344.104 608.629,343.443C602.397,341.16 596.202,338.817 590.148,336.233Z" style="fill:rgb(64,63,65);"/>
        </g>
        <g transform="matrix(4.16667,0,0,4.16667,0,0)">
            <path d="M591.939,339.675C592.601,340.685 593.175,341.751 593.629,342.878C593.849,343.428 594.028,344.013 594.229,344.587C594.384,345.243 594.566,345.905 594.686,346.582C595.306,350.245 594.946,354.042 594.119,357.646C593.854,358.769 593.505,359.861 593.199,360.961C592.56,362.906 591.812,364.821 590.918,366.665C591.661,367.384 592.39,368.003 593.1,368.532C593.669,367.454 594.182,366.346 594.641,365.216C595.109,364.043 595.451,362.831 595.862,361.648C596.155,360.454 596.493,359.273 596.73,358.069C597.488,354.125 597.603,349.982 596.693,346.054C596.524,345.322 596.265,344.602 596.049,343.889C595.795,343.274 595.562,342.647 595.295,342.045C591.997,335.019 585,332.379 581.571,323.798C579.464,318.526 578.854,312.592 580.153,306.636L580.154,306.638C581.944,298.47 586.934,291.764 593.553,287.525C600.253,283.234 608.599,281.5 617.001,283.34C625.354,285.172 632.154,290.181 636.394,296.798C640.491,303.194 642.155,311.113 640.42,319.038C639.077,325.159 635.937,330.462 631.659,334.521C629.859,336.231 627.859,337.716 625.708,338.949C620.395,341.993 613.941,342.53 609.958,347.768C609.455,348.427 609.006,349.128 608.545,349.811C606.494,353.203 605.154,356.926 604.277,360.772C603.721,363.236 603.653,364.102 603.315,366.578C603.144,368.066 603.036,369.556 602.978,371.05C603.893,370.825 604.681,370.493 605.323,370.152C605.425,369.074 605.544,367.999 605.688,366.926C605.837,366.018 605.957,365.104 606.119,364.198C606.929,359.626 608.201,355.116 610.379,351.003C610.76,350.35 611.131,349.68 611.552,349.047C617.674,339.79 623.544,345.359 632.435,336.922C637.001,332.586 640.374,326.846 641.842,320.153C643.838,311.048 641.977,302.033 637.357,294.82C632.879,287.83 625.77,282.555 617.091,280.653C608.459,278.761 599.869,280.553 592.961,284.977C585.97,289.454 580.675,296.657 578.732,305.521L578.733,305.527C577.236,312.39 577.932,319.216 580.351,325.27C583.854,334.034 588.104,333.832 591.939,339.675Z" style="fill:rgb(64,63,65);fill-rule:nonzero;"/>
        </g>
        <g transform="matrix(4.16667,0,0,4.16667,0,0)">
            <path d="M604.821,369.291C604.352,370.024 603.57,370.418 602.724,370.541C602.403,370.6 602.074,370.604 601.745,370.627C601.343,370.58 600.931,370.586 600.533,370.507C598.032,370.05 595.74,368.622 593.758,367.101C593.102,366.594 592.472,366.042 591.822,365.501C590.473,364.432 588.947,366.346 590.294,367.432C591.03,367.972 591.719,368.569 592.461,369.076C594.816,370.705 597.558,372.117 600.46,372.364C600.966,372.411 601.493,372.345 601.992,372.339C602.417,372.268 602.84,372.213 603.26,372.089C604.456,371.759 605.565,370.998 605.991,369.797C606.343,368.974 605.174,368.451 604.821,369.291Z" style="fill:rgb(64,63,65);fill-rule:nonzero;"/>
        </g>
        <g transform="matrix(4.16667,0,0,4.16667,0,0)">
            <path d="M587.242,329.779C581.788,323.192 579.312,314.249 581.277,305.241C584.68,289.713 600.027,279.882 615.56,283.285C622.974,284.91 629.089,289.259 633.084,295.049C629.131,290.279 623.616,286.742 617.094,285.314C601.563,281.91 586.214,291.741 582.812,307.269C581.041,315.384 582.875,323.445 587.242,329.779Z" style="fill:white;"/>
        </g>
        <g transform="matrix(4.16667,0,0,4.16667,0,0)">
            <path d="M596.23,340.351C599.947,345.872 601.73,356.875 597.739,366.412L596.17,365.906C597.817,362.711 601.288,353.607 596.23,340.351Z" style="fill:white;"/>
        </g>
        <g transform="matrix(4.16667,0,0,4.16667,0,0)">
            <path d="M649.553,393.572L667.334,419.255L658.512,417.485C654.058,416.59 649.434,415.922 644.938,415.299C632.771,413.607 620.492,412.441 608.232,411.685C568.791,409.245 528.492,411.013 489.548,417.766L481.539,419.155L497.646,393.384L479.72,374.841L485.982,373.399C490.884,372.268 495.992,371.392 500.951,370.578C513.987,368.438 527.171,366.908 540.343,365.897C580.63,362.801 622.336,364.483 661.864,373.121L668.291,374.525L649.553,393.572Z" style="fill:white;"/>
        </g>
        <g transform="matrix(4.16667,0,0,4.16667,0,0)">
            <path d="M486.798,376.937C486.798,376.937 572.214,357.245 661.088,376.669L644.856,393.167L659.226,413.924C659.226,413.924 580.994,398.223 488.927,414.189L502.232,392.901L486.798,376.937Z" style="fill:rgb(64,63,65);"/>
        </g>
        <g transform="matrix(4.16667,0,0,4.16667,0,0)">
            <path d="M527.554,400.127L531.815,399.678L530.207,384.374L535.364,383.832L534.986,380.244L520.469,381.77L520.844,385.359L525.946,384.821L527.554,400.127ZM552.395,386.815L545.415,387.181L545.209,383.241L552.61,382.853L552.426,379.334L540.745,379.945L541.739,398.917L553.814,398.284L553.63,394.766L545.834,395.174L545.598,390.671L552.578,390.304L552.395,386.815ZM563.366,398.068L563.268,392.348C563.24,390.803 563.201,389.348 563.145,387.981C563.092,386.614 563.018,385.301 562.925,384.038L563.039,384.036C563.355,384.777 563.703,385.528 564.083,386.296C564.462,387.061 564.856,387.814 565.26,388.561C565.663,389.305 566.06,390.011 566.452,390.685L570.638,397.942L575.146,397.863L574.816,378.869L570.87,378.938L570.967,384.462C570.991,385.894 571.039,387.266 571.113,388.57C571.188,389.879 571.299,391.154 571.443,392.403L571.388,392.403C571.083,391.691 570.756,390.962 570.41,390.226C570.058,389.485 569.697,388.755 569.323,388.028C568.943,387.306 568.561,386.612 568.173,385.948L564.106,379.057L559.091,379.144L559.423,398.137L563.366,398.068ZM585.47,397.809L585.67,392.091C585.724,390.547 585.76,389.091 585.775,387.723C585.795,386.358 585.789,385.04 585.763,383.776L585.875,383.779C586.154,384.536 586.462,385.303 586.801,386.09C587.14,386.873 587.493,387.649 587.857,388.413C588.221,389.178 588.58,389.904 588.938,390.598L592.737,398.064L597.244,398.219L597.907,379.236L593.963,379.098L593.771,384.619C593.721,386.05 593.696,387.422 593.703,388.729C593.709,390.04 593.753,391.32 593.832,392.574L593.775,392.572C593.509,391.843 593.22,391.1 592.912,390.347C592.601,389.588 592.279,388.84 591.943,388.093C591.603,387.353 591.256,386.64 590.904,385.956L587.203,378.861L582.19,378.688L581.526,397.671L585.47,397.809ZM604.981,379.635L603.656,398.584L607.93,398.883L609.255,379.932L604.981,379.635ZM613.664,398.215C614.007,398.448 614.455,398.677 615.001,398.903C615.547,399.129 616.151,399.334 616.824,399.506C617.499,399.678 618.199,399.795 618.925,399.864C620.222,399.972 621.362,399.913 622.344,399.687C623.331,399.465 624.159,399.11 624.829,398.622C625.502,398.139 626.024,397.556 626.391,396.876C626.763,396.196 626.977,395.461 627.048,394.661C627.124,393.777 627.021,392.967 626.73,392.243C626.44,391.515 625.956,390.851 625.283,390.248C624.609,389.65 623.733,389.095 622.655,388.591C621.863,388.214 621.218,387.88 620.721,387.577C620.225,387.279 619.869,386.974 619.65,386.667C619.432,386.361 619.34,386.009 619.379,385.616C619.407,385.293 619.532,385.001 619.758,384.745C619.982,384.486 620.311,384.291 620.732,384.159C621.154,384.023 621.672,383.983 622.291,384.032C622.898,384.089 623.451,384.191 623.948,384.328C624.44,384.47 624.869,384.625 625.242,384.795C625.608,384.967 625.91,385.127 626.143,385.275L627.396,381.933C626.863,381.612 626.21,381.323 625.43,381.076C624.655,380.83 623.728,380.653 622.65,380.555C621.537,380.462 620.527,380.52 619.623,380.724C618.719,380.933 617.931,381.265 617.269,381.72C616.601,382.175 616.075,382.738 615.688,383.393C615.3,384.053 615.071,384.787 614.995,385.601C614.92,386.513 615.069,387.342 615.438,388.087C615.807,388.829 616.357,389.497 617.092,390.088C617.827,390.681 618.706,391.207 619.726,391.672C620.457,391.996 621.048,392.307 621.493,392.606C621.939,392.903 622.255,393.21 622.44,393.528C622.63,393.846 622.707,394.201 622.668,394.59C622.632,395.007 622.488,395.357 622.232,395.64C621.976,395.925 621.618,396.134 621.158,396.263C620.7,396.393 620.139,396.433 619.484,396.377C618.871,396.318 618.283,396.21 617.707,396.047C617.137,395.882 616.607,395.687 616.118,395.463C615.627,395.241 615.204,395.017 614.843,394.781L613.664,398.215Z" style="fill:white;fill-rule:nonzero;"/>
        </g>
        <g transform="matrix(4.16667,0,0,4.16667,0,0)">
            <path d="M592.648,291.578C580.028,286.641 564.468,287.802 552.753,296.409C547.094,300.584 542.561,306.431 539.84,313.185C538.519,316.541 537.653,320.056 537.206,323.628L545.842,323.628C545.873,320.902 546.21,318.188 546.912,315.545C548.401,309.881 551.557,304.471 555.946,300.257C565.013,291.506 579.521,288.238 592.648,291.578Z" style="fill:white;"/>
        </g>
        <g transform="matrix(4.16667,0,0,4.16667,0,0)">
            <path d="M541.76,315.36C546.004,315.36 549.446,318.801 549.446,323.046C549.446,327.292 546.004,330.732 541.76,330.732C537.514,330.732 534.072,327.292 534.072,323.046C534.072,318.801 537.514,315.36 541.76,315.36Z" style="fill:white;"/>
        </g>
    </g>
</svg>
