<?xml version="1.0" encoding="UTF-8" standalone="no"?>
<!DOCTYPE svg PUBLIC "-//W3C//DTD SVG 1.1//EN" "http://www.w3.org/Graphics/SVG/1.1/DTD/svg11.dtd">
<svg width="100%" height="100%" viewBox="0 0 347 321" version="1.1" xmlns="http://www.w3.org/2000/svg" xmlns:xlink="http://www.w3.org/1999/xlink" xml:space="preserve" xmlns:serif="http://www.serif.com/" style="fill-rule:evenodd;clip-rule:evenodd;stroke-linejoin:round;stroke-miterlimit:2;">
    <g transform="matrix(1,0,0,1,-1790.78,-1650.66)">
        <g transform="matrix(4.16667,0,0,4.16667,-1014.44,-829.515)">
            <g transform="matrix(1,0,0,1,729.953,632.048)">
                <path d="M0,3.264C0.17,1.877 1.449,0.299 0.383,-0.98C0.063,-1.172 -0.277,-1.045 -0.555,-0.853C-1.578,-0.105 -2.453,0.789 -3.625,1.239C-3.604,0.491 -3.711,-0.277 -3.604,-1.066C-3.178,-2.259 -2.709,-3.283 -1.92,-4.052L0.959,-2.324C1.301,-0.638 1.172,0.983 1.107,2.731C0.832,3.03 0.34,3.03 0,3.264M-7.102,26.366C-8.018,26.323 -8.85,26.194 -9.852,26.088C-10.236,25.854 -10.662,25.854 -11.025,25.703C-12.602,25.213 -14.203,24.487 -14.928,22.994C-14.992,22.846 -15.205,22.952 -15.354,22.846C-16.377,21.203 -16.867,18.985 -17.379,17.086C-16.121,16.041 -14.693,15.592 -13.178,15.123C-11.217,14.719 -9.127,15.209 -7.102,14.377C-6.035,13.993 -5.076,13.416 -4.266,12.883L-3.732,13.077C-3.732,13.416 -3.434,13.61 -3.285,13.909C-2.262,15.317 -0.385,16.041 1.322,15.934C1.301,16.446 1.258,16.895 1.258,17.471C0.98,19.284 0.383,21.246 -0.619,22.994C-1.834,25.213 -4.691,26.088 -7.102,26.366M-0.725,8.149C-0.725,7.424 -0.684,6.7 -0.555,5.93C-0.043,5.825 0.596,5.846 1.131,5.846L1.258,7.616L-0.725,8.149ZM-9.66,40.102C-6.525,40.186 -3.434,39.653 -0.277,39.483C0.17,39.44 0.682,39.332 1.258,39.313C3.475,38.799 5.607,38.266 7.592,37.137C7.975,37.008 8.188,36.967 8.594,36.666C10.598,35.174 12.367,33.68 13.775,31.784C14.309,30.95 15.268,29.864 15.693,28.838C16.248,27.815 16.76,26.662 17.145,25.534C17.273,25.02 17.506,24.573 17.678,24.104C17.807,23.229 17.891,22.588 18.168,21.78C19.34,14.91 19.277,8.256 19.127,1.387C19.127,0.299 19.127,-0.681 19.191,-1.683C20.002,-1.769 20.832,-2.175 21.537,-2.431C22.582,-2.986 23.393,-3.283 24.373,-3.945C25.375,-4.691 26.824,-5.757 26.355,-7.187C25.717,-8.66 24.309,-9.619 22.986,-10.451C23.199,-10.963 23.648,-11.582 23.307,-12.22C23.008,-12.713 22.795,-13.48 22.092,-13.33C21.111,-13.394 20.301,-12.754 19.852,-11.945C19.682,-12.136 19.469,-11.986 19.148,-12.136C19,-12.179 18.744,-12.242 18.766,-12.414C18.701,-13.906 18.529,-15.187 18.232,-16.701C18.018,-17.425 17.484,-17.724 16.867,-17.832C15.887,-18.023 14.969,-17.98 14.031,-17.875L7.463,-18.215C7.463,-18.748 8.125,-19.004 8.23,-19.58C8.656,-20.007 8.934,-20.433 9.127,-20.838C9.232,-22.566 9.873,-24.252 9.916,-25.787C8.934,-26.341 8.166,-25.297 7.336,-24.892C6.801,-24.316 6.098,-23.718 5.607,-23.185C5.523,-23.312 5.672,-23.718 5.352,-23.783L3.668,-21.99C3.668,-22.588 4.223,-23.25 4.35,-24.017C4.541,-24.998 5.225,-25.703 5.459,-26.576C5.758,-27.174 5.885,-27.642 6.098,-28.218C6.609,-28.945 6.525,-29.966 6.908,-30.693C7.207,-30.693 7.25,-31.013 7.271,-31.269C7.527,-33.103 8.891,-34.789 8.656,-36.644C8.508,-36.922 8.125,-36.793 7.975,-36.644C7.463,-36.154 7.207,-35.621 6.801,-35.193C4.947,-32.271 3.135,-29.136 1.258,-26.043C1.172,-26.299 1.557,-26.767 1.514,-27.152C1.641,-27.771 1.834,-28.41 1.557,-28.9L-0.15,-24.933C-0.471,-25.382 -0.043,-26.043 -0.129,-26.576C0.041,-26.875 -0.15,-27.109 0,-27.3C0.063,-28.326 0.682,-29.392 0.447,-30.394C-0.363,-28.431 -0.576,-26.234 -1.002,-24.123C-0.961,-23.931 -1.088,-23.74 -1.088,-23.675C-1.408,-24.316 -1.217,-25.189 -1.535,-25.894C-1.578,-26.533 -1.344,-27.238 -1.727,-27.707C-1.941,-27.685 -1.984,-27.834 -2.111,-27.941L-2.068,-24.892C-2.453,-24.998 -2.283,-25.787 -2.602,-26.191C-2.795,-26.832 -2.986,-27.365 -3.285,-27.793C-3.391,-27.984 -3.477,-28.218 -3.668,-28.304C-3.797,-28.175 -3.668,-28.027 -3.711,-27.879L-4.053,-27.898L-3.092,-23.867L-3.625,-25.168C-4.01,-25.851 -4.158,-26.767 -4.969,-26.918L-4.969,-26.533C-5.076,-26.533 -5.182,-26.427 -5.16,-26.256L-4.863,-25.275L-5.182,-25.361L-4.328,-23.142L-6.143,-24.998C-6.227,-24.998 -6.27,-24.892 -6.27,-24.828C-5.459,-23.824 -4.521,-23.142 -3.859,-21.99C-4.863,-22.674 -5.652,-24.273 -6.846,-24.656C-6.932,-24.634 -6.973,-24.55 -6.973,-24.55C-6.676,-22.951 -7.484,-21.33 -8.211,-19.771L-8.85,-20.433L-8.637,-19.623C-8.744,-19.58 -8.85,-19.857 -9.043,-19.58C-9.084,-19.537 -9.084,-19.474 -9.084,-19.474C-9.043,-19.431 -9.021,-19.41 -8.936,-19.324C-8.936,-19.216 -9.043,-19.216 -9.127,-19.132C-9.213,-18.941 -8.85,-18.812 -8.977,-18.599L-9.277,-18.599L-8.701,-17.17L-9.768,-17.724C-9.768,-17.681 -9.809,-17.638 -9.852,-17.554L-8.189,-15.037L-9.768,-16.338C-9.66,-15.613 -8.658,-15.357 -8.424,-14.461C-8.125,-13.863 -7.699,-13.437 -7.229,-13.031C-6.76,-12.519 -6.313,-12.072 -5.715,-11.687L-5.715,-11.517C-6.76,-12.029 -7.527,-13.373 -8.701,-13.757C-9.021,-13.906 -9.213,-14.355 -9.576,-14.312L-6.227,-10.429C-6.611,-10.451 -6.676,-11.07 -7.059,-11.154C-8.061,-11.154 -8.424,-12.947 -9.469,-12.904L-8.977,-12.115C-9.084,-12.115 -9.234,-12.371 -9.447,-12.115C-9.512,-11.986 -9.512,-11.881 -9.469,-11.881L-10.385,-12.371C-10.492,-12.328 -10.471,-12.136 -10.385,-12.072C-9.938,-11.752 -9.639,-11.412 -9.277,-11.113L-9.895,-11.154C-9.639,-10.195 -8.701,-9.726 -7.953,-8.98C-7.953,-8.894 -8.104,-8.787 -8.211,-8.873C-9.043,-9.427 -9.555,-10.429 -10.385,-10.879L-9.959,-10.047L-10.279,-10.322C-10.342,-10.322 -10.428,-10.429 -10.535,-10.343C-10.705,-10.066 -10.342,-9.961 -10.492,-9.662C-10.301,-9.234 -9.959,-8.98 -9.744,-8.595C-9.938,-8.595 -10.088,-8.873 -10.342,-8.703C-10.385,-8.361 -10.045,-8.275 -9.895,-8.019C-9.959,-7.933 -10.045,-8.019 -10.172,-7.933L-9.469,-6.826C-9.469,-6.675 -9.66,-6.826 -9.768,-6.718C-9.852,-6.654 -9.768,-6.525 -9.682,-6.463C-9.682,-6.355 -9.852,-6.398 -9.938,-6.377C-10.172,-6.099 -9.576,-6.035 -9.66,-5.738L-10.578,-6.398C-10.662,-6.291 -10.535,-6.035 -10.385,-5.929C-10.301,-5.843 -10.471,-5.738 -10.535,-5.8C-10.813,-5.843 -11.004,-5.992 -11.195,-5.886L-10.385,-4.414L-11.26,-5.119C-11.367,-5.14 -11.537,-5.033 -11.494,-4.884C-11.068,-4.349 -10.813,-3.689 -10.428,-3.156C-10.471,-3.134 -10.471,-3.029 -10.578,-2.986C-11.152,-3.283 -11.303,-4.287 -11.984,-4.392L-10.727,-2.175L-11.963,-3.476L-12.154,-3.476C-12.262,-3.22 -11.879,-3.029 -11.75,-2.75C-11.686,-2.515 -11.494,-2.41 -11.494,-2.216C-11.984,-2.324 -12.219,-3.05 -12.646,-3.433C-12.688,-3.625 -12.795,-3.668 -12.881,-3.775C-12.986,-3.775 -13.094,-3.775 -13.051,-3.562C-12.688,-2.793 -12.176,-2.111 -11.92,-1.257L-13.627,-3.283L-12.752,-1.172L-14.01,-2.75L-13.242,-0.576C-13.285,-0.511 -13.414,-0.511 -13.52,-0.533C-13.861,-1.066 -14.074,-1.599 -14.48,-2.132L-13.775,0.192L-14.799,-1.365L-14.543,0.278L-15.311,-0.681C-15.396,-0.576 -15.418,-0.425 -15.354,-0.277C-15.461,-0.234 -15.652,-0.447 -15.76,-0.234C-15.76,0.043 -15.609,0.299 -15.738,0.598C-15.844,0.407 -16.035,0.278 -16.313,0.213C-16.527,0.491 -16.74,0.983 -16.568,1.387C-16.463,1.578 -16.334,1.707 -16.186,1.643C-16.186,1.344 -16.484,1.045 -16.313,0.619C-16.229,0.598 -16.121,0.555 -16.121,0.555C-16.035,0.705 -15.738,0.918 -15.951,1.131L-15.523,1.877L-17.615,2.539C-17.465,0.108 -17.422,-2.367 -17.422,-4.841C-17.422,-7.976 -17.486,-10.963 -17.764,-14.013C-17.807,-14.738 -18.232,-15.271 -18.574,-15.804C-19.342,-16.636 -20.023,-17.595 -21.24,-17.789C-23.201,-18.088 -25.143,-17.832 -27.125,-18.215C-28.041,-18.215 -28.768,-18.363 -29.684,-18.279C-30.43,-18.257 -31.133,-17.959 -31.859,-18.023C-33.117,-17.447 -34.289,-16.871 -34.994,-15.484C-35.186,-14.738 -35.186,-14.119 -35.334,-13.394C-35.719,-11.986 -35.441,-10.771 -35.654,-9.47C-35.654,-6.271 -35.291,-2.986 -35.398,0.151C-36.059,-1.578 -37.232,-2.601 -38.49,-3.668C-38.533,-4.009 -38.682,-4.201 -38.725,-4.543C-38.725,-5.224 -38.959,-5.951 -39.387,-6.525C-39.492,-6.654 -39.492,-6.826 -39.684,-6.888L-39.982,-6.804L-40.303,-6.355C-40.771,-7.338 -41.242,-8.744 -42.393,-8.98C-42.627,-9 -42.818,-9.064 -42.947,-8.937C-43.182,-8.466 -43.268,-8.084 -43.352,-7.677C-44.738,-8.744 -45.953,-10.429 -48.043,-10.386C-48.469,-10.343 -48.684,-9.853 -48.684,-9.427C-48.684,-8.873 -48.342,-8.361 -47.873,-8.146C-48.043,-7.871 -48.598,-8.084 -48.77,-7.613C-48.918,-7.187 -48.77,-6.611 -49.26,-6.484C-49.793,-6.377 -50.049,-6.185 -50.518,-5.886C-50.752,-5.502 -51.199,-5.375 -51.584,-5.652C-52.799,-5.738 -54.078,-5.886 -55.102,-5.205C-55.145,-4.691 -55.486,-4.414 -55.506,-4.095C-55.102,-3.754 -54.525,-3.668 -54.014,-3.584C-54.953,-2.558 -56.125,-1.066 -56.701,0.491C-56.402,0.555 -56.316,0.897 -56.168,0.918C-55.699,0.789 -55.506,0.512 -55.166,0.299C-54.973,0.619 -55.273,1.045 -55.4,1.451C-56.125,3.116 -56.125,4.758 -56.402,6.358C-56.424,7.039 -56.316,7.659 -55.891,8.149C-55.635,8.192 -55.357,8.192 -55.273,7.914C-55.209,7.828 -55.018,7.914 -55.102,8.02C-54.91,9.28 -54.76,10.537 -53.822,11.477C-53.354,11.498 -53.354,12.053 -53.076,12.414C-52.627,12.991 -52.5,14.291 -51.711,14.504C-51.242,14.504 -50.986,14.207 -50.9,13.844C-50.752,11.989 -50.986,10.516 -50.176,8.725C-49.984,8.02 -49.855,7.36 -49.729,6.762C-49.557,6.121 -49.516,5.483 -49.451,4.864C-49.26,4.821 -49.109,5.205 -48.832,4.971C-48.469,4.053 -47.574,2.901 -47.574,1.772C-47.531,1.729 -47.447,1.643 -47.447,1.643C-46.893,2.112 -46.123,2.41 -45.441,2.176C-44.631,2.305 -43.758,2.41 -42.926,2.241L-42.756,2.241C-42.457,3.03 -41.859,3.498 -41.391,4.225C-41.049,4.481 -40.771,4.395 -40.473,4.246C-40.238,4.032 -40.324,3.84 -40.111,3.563C-39.898,3.649 -39.982,3.991 -39.834,4.246C-39.6,4.907 -39.301,5.418 -38.641,5.631C-38.385,5.59 -38.234,5.483 -38.127,5.248C-37.637,5.93 -36.998,6.506 -36.08,6.7C-35.824,6.741 -35.654,6.7 -35.441,6.891L-35.633,15.551C-35.781,17.385 -35.398,19.071 -35.334,20.862C-34.908,22.397 -34.908,23.953 -34.268,25.299C-33.457,28.795 -30.836,31.698 -28.084,33.68C-27.232,34.407 -26.271,35.088 -25.398,35.75C-23.99,36.604 -22.434,37.328 -20.984,37.862C-20.215,38.118 -19.447,38.352 -18.639,38.715C-15.695,39.674 -12.646,39.952 -9.66,40.102" style="fill:rgb(35,31,32);fill-rule:nonzero;"/>
            </g>
        </g>
        <g transform="matrix(4.16667,0,0,4.16667,-1014.44,-829.515)">
            <g transform="matrix(1,0,0,1,721.637,612.832)">
                <path d="M0,58.699C1.813,58.656 3.859,58.549 5.758,58.4C6.695,58.4 7.549,58.209 8.422,58.144C9.297,58.144 10.107,57.867 10.961,57.717C16.291,56.14 20.939,52.492 23.691,47.715C24.117,46.99 24.373,46.263 24.672,45.644C25.033,44.75 25.375,43.896 25.566,43.064C25.717,42.146 25.951,41.252 26.057,40.377C26.441,38.584 26.25,36.515 26.527,34.767C26.783,31.695 26.846,28.666 27.018,25.617C27.166,22.929 26.932,20.304 26.975,17.617C25.375,17.916 23.732,17.959 21.963,17.767C21.131,17.638 20.342,17.254 19.553,17C18.658,16.594 17.848,16.467 16.973,16.187C16.674,16.06 16.377,16.125 16.186,16.082C16.205,16.424 15.652,16.467 15.375,16.615C13.541,17 11.813,17.34 10.064,17L10,21.627C10.428,21.562 10.748,21.094 11.174,20.924C12.047,20.199 12.879,19.558 13.881,18.896C14.115,18.834 14.201,18.535 14.414,18.705C14.799,20.56 14.947,22.353 15.416,24.336C15.459,24.699 15.652,24.847 15.672,25.125C15.949,25.658 16.014,26.107 16.377,26.576C16.441,26.703 16.547,26.832 16.633,27.023L17.891,25.254C18.168,25.254 18.273,25.574 18.232,25.787C18.615,25.531 19.256,25.189 19.639,25.041C19.959,25.189 20.215,25.488 20.279,25.679C20.557,25.765 20.791,25.383 21.068,25.297C22.752,24.635 24.459,23.377 26.207,24.187C26.441,24.4 26.355,24.592 26.59,24.763C27.209,26.918 26.398,29.22 25.227,31.076C24.139,32.144 22.773,33.252 21.217,33.615C19.639,34 18.039,34.232 16.547,33.424C15.992,33.978 15.139,33.978 14.5,34.34C14.031,34.511 13.689,34.617 13.135,34.851C12.133,35.066 11.217,35.107 10.256,35.107C9.916,35.92 10.15,36.857 9.83,37.775C9.639,39.011 9.211,39.992 8.85,41.144C8.273,42.553 7.441,43.533 6.332,44.472C5.779,44.877 5.053,45.197 4.457,45.345C3.988,45.582 3.582,45.687 3.156,45.816C2.623,45.943 2.131,45.922 1.641,46.072C0.682,46.115 -0.086,45.943 -0.961,45.879C-2.111,45.73 -3.178,45.582 -4.201,45.219C-4.904,45.111 -5.416,44.769 -5.844,44.515C-7.271,43.789 -7.527,42.146 -8.295,40.91C-8.529,40.121 -8.85,39.267 -9.17,38.584C-9.404,37.519 -9.768,36.558 -9.916,35.578C-10.023,35.236 -9.98,35.002 -10.107,34.617C-10.428,31.205 -10.705,28.006 -10.598,24.592C-10.258,20.304 -9.959,16.06 -9.873,11.687C-9.789,9.449 -9.533,7.23 -9.98,4.99C-10.406,3.476 -11.559,2.515 -12.73,1.92C-16.826,2.068 -21.516,0 -25.057,2.793C-25.76,3.455 -26.207,4.328 -26.484,5.203C-26.891,6.654 -26.293,8.041 -26.592,9.449C-26.549,10.75 -26.549,11.816 -26.592,13.074C-26.443,20.668 -27.082,28.197 -26.613,35.683C-26.357,37.049 -26.592,38.392 -26.4,39.758C-26.4,40.719 -26.166,41.613 -25.973,42.51C-25.482,44.429 -24.906,46.136 -23.99,47.629C-23.266,48.886 -22.199,49.783 -21.389,50.849C-19.598,52.599 -17.848,54.049 -15.545,55.392C-14.48,55.99 -13.307,56.31 -12.092,56.801C-11.43,56.908 -10.939,57.291 -10.301,57.441C-9.959,57.633 -9.66,57.611 -9.34,57.803C-7.293,58.209 -5.354,58.4 -3.369,58.443L0,58.699Z" style="fill:rgb(250,171,79);fill-rule:nonzero;"/>
            </g>
        </g>
        <g transform="matrix(4.16667,0,0,4.16667,-1014.44,-829.515)">
            <g transform="matrix(1,0,0,1,712.488,608.139)">
                <path d="M0,40.42L3.496,38.734C3.113,38.586 2.26,38.672 2.197,38.096C2.303,38.053 2.346,37.861 2.494,37.945C4.244,38.414 6.205,38.479 8.018,38.309C9.895,38.053 11.686,37.285 13.137,36.068C13.371,35.686 13.563,35.492 13.732,35.066C13.199,35.238 12.41,35.686 12.049,35.066C11.92,34.918 11.855,34.811 11.92,34.703C12.41,34.277 13.008,33.914 13.455,33.467C13.754,33.318 14.266,33.275 14.287,32.826C14.266,31.611 13.861,30.545 13.861,29.307C13.84,29.029 13.84,28.859 13.754,28.625C12.539,29.223 11.346,29.84 10.064,30.416C9.447,30.459 8.871,30.949 8.381,30.758C8.23,30.758 8.381,30.481 8.338,30.459C8.914,30.352 9.404,29.99 9.895,29.818C11.322,29.223 12.73,28.625 13.945,27.9C14.201,28.348 14.137,28.859 14.33,29.285C14.479,29.99 14.521,30.545 14.629,31.184C14.629,31.93 14.586,32.656 14.713,33.359L14.713,33.701C14.67,33.807 14.521,33.807 14.373,33.807C14.287,33.787 14.266,33.51 14.074,33.658C13.646,33.852 13.498,33.979 13.137,34.234C12.943,34.385 12.688,34.576 12.688,34.768L14.287,34.234L13.902,36.176C14.521,36.111 14.99,35.344 15.396,34.811C15.354,34.617 15.545,34.533 15.652,34.533C16.057,34.918 16.654,35.258 17.102,35.238C17.314,35.109 17.699,34.918 17.635,34.725C17.506,34.426 17.336,34.086 16.994,34.149C16.781,34.191 16.59,34.127 16.463,33.979C16.994,33.381 18.424,33.381 18.914,32.549C18.85,32.059 18.189,32.123 17.848,32.166C17.465,32.4 16.91,32.443 16.781,32.826L16.781,33.254C16.781,33.359 16.59,33.275 16.547,33.424C16.313,33.51 16.377,33.275 16.271,33.125C16.164,31.93 16.377,30.863 16.441,29.756C16.271,29.691 16.078,29.734 16.014,29.5C16.057,29.307 16.313,29.223 16.504,29.223L16.654,27.408C16.781,27.408 16.697,27.174 16.889,27.303C16.91,26.94 17.08,26.598 17.166,26.256C17.336,25.426 17.848,24.508 17.699,23.676C17.465,23.568 17.314,23.334 17.08,23.568C16.121,24.295 15.332,24.955 14.33,25.639C13.84,26.086 13.113,26.172 12.646,26.492C12.07,26.598 11.75,26.897 11.195,27.174C10.236,27.346 9.404,28.07 8.488,27.857C8.422,27.707 8.422,27.516 8.488,27.516C9.148,27.43 9.703,27.324 10.301,27.025C10.514,26.94 10.789,26.748 10.961,26.684C11.387,26.449 11.855,26.256 12.154,26.065C12.582,25.873 13.221,25.682 13.328,25.426C12.582,23.035 14.713,20.775 14.863,18.705C14.756,17.875 14.713,17.106 14.564,16.359C14.629,16.168 14.756,16.232 14.863,16.19C15.182,16.572 15.119,17.191 15.439,17.619C15.545,18.109 15.652,18.686 15.93,18.941C16.889,20.668 19.148,21.01 20.662,21.287C21.879,21.244 23.029,21.117 24.182,20.881C24.438,20.754 24.629,20.818 24.863,20.627C24.438,20.477 24.096,20.477 23.67,20.242C22.113,19.602 20.6,18.408 20.109,16.617L19.363,17.639C19.299,17.619 19.213,17.639 19.105,17.619C18.871,17.022 19.404,16.658 19.596,16.232C20.236,15.848 20.705,14.93 21.559,15.123C21.688,15.166 21.729,15.272 21.857,15.207C22.006,15.207 22.113,15.443 22.027,15.57C21.729,15.848 21.303,15.656 20.939,15.934C20.748,15.934 20.514,16.125 20.43,16.232C20.896,17.811 21.92,18.899 23.307,19.602C24.287,20.029 25.291,19.815 26.25,20.094C27.039,20.242 27.615,20.668 28.34,20.775C28.873,21.01 29.213,21.16 29.705,21.309C30.941,21.693 32.029,21.885 33.287,22.076C36.848,22.033 40.92,20.582 43.287,17.875C43.459,17.342 43.33,16.893 43.16,16.424C42.563,15.465 41.518,15.037 40.75,14.313C39.215,13.481 37.871,12.264 36.166,12.201C35.057,11.774 33.82,11.988 32.84,12.393C32.498,12.393 32.434,12.565 32.113,12.649C31.816,12.734 31.496,13.031 31.176,12.947C32.008,13.459 32.113,14.397 32.391,15.357C32.348,15.549 32.113,15.656 32.029,15.506C31.623,14.719 31.537,13.863 30.771,13.289C30.643,13.373 30.557,13.524 30.365,13.416C30.238,13.246 30.322,13.139 30.322,13.031C29.918,13.031 29.641,13.33 29.256,13.566C28.68,14.184 28.701,15.016 29.107,15.635C29.213,15.742 29.256,15.848 29.32,15.891C29.705,16.381 30.643,16.467 31.09,16.852C31.176,17.022 30.898,17 30.941,17.191C30.174,17.234 29.428,16.617 28.873,16.168C28.34,15.465 28.254,14.504 28.404,13.758C27.68,13.758 26.91,13.481 26.549,12.84C26.398,13.863 25.547,14.547 24.564,15.102C24.395,15.102 24.139,15.123 24.139,15.272C24.182,15.506 24.096,15.699 23.947,15.699C23.754,15.699 23.563,15.699 23.605,15.506C23.67,15.037 23.563,14.781 23.457,14.377C22.838,12.691 21.047,11.881 19.832,11.475C19.938,11.156 20.406,11.24 20.748,11.197C20.961,11.24 21.004,11.348 21.195,11.348C21.195,10.43 21.195,9.471 21.623,8.596C21.92,7.807 22.006,7.102 22.646,6.613L21.814,6.484C21.771,6.315 21.58,6.441 21.43,6.441C21.303,6.377 21.367,6.229 21.389,6.121C20.77,5.951 20.279,5.162 19.512,5.397C19.256,5.76 19.021,5.93 18.766,6.315C18.445,6.547 18.146,6.848 17.805,6.74C17.314,6.613 16.846,6.377 16.377,6.121L16.355,6.484L16.355,7.699C15.971,7.764 15.887,7.274 15.652,6.953C14.074,4.5 12.943,1.856 10.961,0C10.961,0.533 10.939,1.002 10.789,1.643C10.533,2.518 10.32,3.242 9.873,4.16C9.682,5.951 10.598,7.828 11.855,8.959C13.029,9.811 14.521,8.981 15.588,9.406C15.48,9.406 15.48,9.555 15.48,9.684C14.756,9.94 13.902,9.705 13.199,9.94C12.836,10.537 13.008,11.305 12.943,11.881C13.008,12.393 13.113,12.691 13.221,13.055C13.412,13.481 13.797,14.143 13.902,14.59C13.732,14.59 13.605,15.016 13.307,15.016C13.199,14.846 13.113,14.738 13.008,14.633C12.773,16.19 12.539,17.811 12.006,19.41C11.92,19.815 11.664,20.156 11.516,20.52C11.346,21.01 11.045,21.395 10.854,21.734C10.32,22.205 10.021,23.272 9.361,23.229L10.236,21.693C9.873,21.65 9.404,21.65 8.977,21.842C8.977,22.012 8.914,22.119 8.807,22.119C8.68,22.119 8.721,21.947 8.615,21.928C7.826,22.205 7.57,22.865 7.229,23.568C6.461,25.19 6.396,26.811 5.822,28.391C5.715,28.432 5.672,28.432 5.629,28.432L5.715,26.94L6.439,24.123L4.756,25.361C4.244,25.361 3.689,25.682 3.412,26.15L3.199,25.981L-0.191,27.025C-0.576,31.44 -1.174,35.963 0,40.42" style="fill:rgb(195,166,1);fill-rule:nonzero;"/>
            </g>
        </g>
        <g transform="matrix(4.16667,0,0,4.16667,-1014.44,-829.515)">
            <g transform="matrix(1,0,0,1,730.721,640.667)">
                <path d="M0,6.868C1.791,6.932 3.539,6.698 5.246,6.057C5.65,5.78 6.162,5.716 6.396,5.333C6.908,5.054 7.207,4.714 7.633,4.372C6.781,3.114 4.883,2.772 3.434,2.43C2.771,2.516 2.197,1.897 1.664,2.11C1.6,2.196 1.514,2.239 1.514,2.239C1.449,2.175 1.279,2.089 1.344,1.897C3.262,1.598 5.225,2.43 7.016,3.157C7.398,3.434 7.654,3.69 8.018,3.903C8.273,3.774 8.188,3.456 8.381,3.198C8.359,3.007 8.082,3.157 8.018,2.964C7.826,2.196 6.695,1.983 6.055,1.472C4.307,0.895 2.623,-0.064 0.98,0.405C0.725,0.747 0.447,0.938 0.105,1.173C0.105,1.45 0.213,1.706 0.105,1.983C-0.172,2.622 -0.598,3.305 -1.344,3.348C-1.855,3.198 -2.154,3.05 -2.494,2.772C-2.9,3.348 -3.242,3.989 -4.053,4.309C-3.967,4.692 -3.646,5.034 -3.369,5.438C-2.41,6.313 -1.195,6.739 0,6.868" style="fill:rgb(147,125,0);fill-rule:nonzero;"/>
            </g>
        </g>
        <g transform="matrix(4.16667,0,0,4.16667,-1014.44,-829.515)">
            <g transform="matrix(1,0,0,1,740.422,637.596)">
                <path d="M0,8.66C0.982,8.639 2.049,8.51 3.072,8.211C4.137,7.699 5.246,6.953 5.822,5.951C6.697,4.349 7.613,2.601 7.549,0.81C7.465,0.66 7.465,0.383 7.271,0.469C7.016,0.681 6.676,0.681 6.398,0.853C5.887,0.894 5.48,1.301 5.141,1.449C4.521,1.982 3.967,2.281 3.434,2.943C3.113,3.135 3.008,3.732 2.645,3.668C2.197,3.519 2.518,2.986 2.645,2.75C3.732,1.535 5.332,0.916 6.697,0.084C6.207,0 5.715,0.191 5.162,0.299C4.863,0.49 4.521,0.49 4.266,0.66C3.242,1.023 2.006,1.642 1.174,2.176C0.832,2.281 0.727,2.836 0.406,2.836C0.727,3.178 0.982,3.668 0.662,4.244C-0.127,4.691 -0.17,5.461 -0.787,5.93C-0.895,6.676 -1.023,7.785 -1.748,8.254L0,8.66Z" style="fill:rgb(147,125,0);fill-rule:nonzero;"/>
            </g>
        </g>
        <g transform="matrix(4.16667,0,0,4.16667,-1014.44,-829.515)">
            <g transform="matrix(1,0,0,1,678.326,622.153)">
                <path d="M0,23.953C0.512,23.74 0.342,23.08 0.512,22.547C0.512,21.224 0.129,19.838 0.15,18.621C-0.041,18.088 0,17.512 -0.105,17C-0.105,16.467 -0.275,16.125 -0.383,15.592C-0.574,15.527 -0.447,15.314 -0.34,15.209C-0.105,15.101 0.15,15.314 0.236,15.4C0.619,16.359 0.576,17.277 0.961,18.109C1.578,16.402 1.346,14.334 1.793,12.775C2.24,12.775 1.898,13.224 2.176,13.416C2.176,13.693 2.176,13.992 2.305,14.057C2.752,14.226 2.943,13.693 3.094,13.416C3.434,12.584 3.691,11.859 3.434,10.941C2.838,10.346 2.326,9.555 2.111,8.724C2.219,8.639 2.176,8.488 2.305,8.447C2.943,8.98 3.029,10.174 3.861,10.621C4.287,11.176 4.82,11.668 5.566,11.754C5.887,11.625 6.037,11.773 6.377,11.603C5.844,10.879 5.439,10.047 4.947,9.258C4.947,9.043 5.162,9.021 5.203,8.98C5.951,9.576 5.992,10.984 7.016,11.135C7.613,10.984 8.211,11.433 8.637,11.283C8.596,10.451 8.467,9.576 8.787,8.83C8.936,8.83 8.787,8.66 8.979,8.787L9.426,11.221L9.811,10.984C9.895,10.984 10.002,11.176 9.938,11.283C9.768,11.433 9.703,11.625 9.596,11.773L10.684,13.459C11.195,13.203 11.025,12.307 11.303,11.816C11.922,12.051 11.984,12.797 12.24,13.459C12.305,14.035 12.518,14.654 13.008,14.91L13.201,14.91C13.5,14.418 12.859,13.588 13.137,13.117C13.393,13.074 13.563,13.31 13.563,13.502C13.584,14.057 13.904,14.269 14.033,14.803C14.287,15.271 14.588,15.57 14.885,15.912C15.354,16.211 15.76,16.211 16.186,16.168C16.271,15.293 16.186,14.291 16.229,13.459C16.293,11.902 16.229,10.685 15.418,9.363C14.885,8.531 13.904,7.998 13.328,7.338C12.838,7.039 12.711,6.379 12.518,5.887C12.221,5.055 12.326,4.139 11.879,3.541L11.154,4.928C11.068,3.797 10.621,2.346 9.662,1.451C9.596,1.387 9.342,1.344 9.342,1.535C8.936,1.877 8.871,2.283 8.68,2.879C8.871,2.986 8.701,3.178 8.787,3.328C8.787,3.498 8.553,3.433 8.637,3.605C8.445,3.541 8.146,3.371 8.146,3.07C7.613,1.963 6.525,1.236 5.459,0.426C5.119,0.234 4.65,0.129 4.395,0C4.053,0 3.754,0.084 3.52,0.277C3.477,0.576 3.668,0.81 3.861,1.023L5.203,2.068C5.459,2.262 5.076,2.558 5.459,2.687C5.459,2.838 5.268,2.986 5.119,2.943C4.65,2.687 4.117,2.219 3.625,2.517C3.391,2.709 3.242,2.986 3.371,3.221C3.818,3.221 4.18,3.328 4.414,3.797C4.352,3.861 4.287,4.01 4.096,3.967C3.967,3.861 3.584,3.668 3.434,3.797C2.857,3.861 2.41,3.797 1.877,4.01C1.643,4.244 1.408,4.265 1.238,4.394C1.174,4.672 1.6,4.437 1.643,4.756C1.6,4.885 1.451,5.055 1.387,5.055C1.109,4.928 0.813,4.885 0.641,5.012C0.576,5.076 0.533,5.162 0.533,5.162C0.385,5.205 0.236,4.928 0.32,4.777C-0.725,4.394 -1.896,4.543 -2.984,5.119C-3.154,5.31 -3.133,5.547 -2.984,5.652C-2.131,6.121 -1.107,5.779 -0.49,6.271C-0.49,6.463 -0.639,6.568 -0.725,6.568C-1.363,6.613 -1.791,6.846 -2.279,6.996C-2.813,7.381 -3.24,7.998 -3.625,8.404C-4.072,8.916 -4.264,9.619 -4.264,10.238L-3.24,8.724L-2.793,8.553C-2.473,7.785 -1.832,7.146 -1.129,6.74C-0.938,6.846 -0.916,7.039 -0.83,7.103C-1.129,7.187 -0.83,7.295 -0.873,7.486C-1.449,7.637 -1.875,8.062 -2.195,8.596C-2.387,9.258 -2.621,9.812 -2.75,10.346C-2.75,10.941 -2.793,11.603 -2.898,12.137L-3.24,12.158L-3.391,11.539C-3.816,12.435 -3.965,13.459 -4.178,14.418C-4.264,15.527 -4.178,16.531 -4.051,17.555C-3.816,17.512 -4.008,17.191 -3.773,17.086C-3.518,16.017 -3.625,15.08 -3.283,14.057C-3.24,13.949 -3.092,13.949 -2.92,14.035C-2.857,14.463 -3.006,14.846 -2.92,15.314C-3.092,15.976 -3.092,16.596 -3.049,17.277C-2.75,18.045 -2.813,19.004 -2.559,19.773C-2.516,20.072 -2.473,20.371 -2.279,20.519C-1.896,20.433 -2.195,19.9 -2.174,19.603C-2.174,18.451 -2.75,17.17 -2.324,16.211C-2.088,16.168 -2.066,16.402 -1.982,16.637C-1.939,17.129 -1.875,17.598 -1.875,18.045C-1.832,18.578 -1.727,19.047 -1.598,19.496C-1.471,19.603 -1.301,19.773 -1.449,19.879C-1.449,20.988 -1.107,21.863 -0.682,22.887C-0.383,23.228 -0.404,23.74 0,23.953" style="fill:rgb(194,157,5);fill-rule:nonzero;"/>
            </g>
        </g>
        <g transform="matrix(4.16667,0,0,4.16667,-1014.44,-829.515)">
            <g transform="matrix(1,0,0,1,739.293,632.348)">
                <path d="M0,10.75C0.084,10.75 0.17,10.709 0.277,10.645C0.234,10.43 -0.107,10.324 -0.021,10.131C0.342,9.705 1.258,9.705 1.449,9.045C1.492,8.873 1.492,8.809 1.449,8.725C1.236,8.576 0.916,9.109 0.703,8.809C0.512,8.725 0.512,8.682 0.383,8.533C0.617,8.043 1.449,7.785 1.535,7.082C1.684,6.869 1.855,6.592 1.855,6.207C0.916,6.355 0.916,7.615 -0.021,7.658L0.17,6.441C-0.107,6.783 -0.129,7.187 -0.533,7.615C-0.641,8.043 -0.213,8.234 -0.086,8.576C-0.107,8.617 -0.107,8.725 -0.213,8.768C-0.406,8.576 -0.725,8.533 -1.023,8.576C-1.408,7.615 -1.984,6.934 -2.41,5.822C-3.264,3.947 -2.922,1.855 -3.732,0C-4.053,0.15 -4.18,0.299 -4.584,0.555C-5.076,0.98 -5.523,1.322 -5.971,1.707C-6.398,1.963 -6.781,2.305 -7.229,2.539C-7.506,2.73 -7.74,2.602 -7.891,2.965C-8.359,3.008 -8.766,3.393 -9.383,3.498C-9.768,3.648 -9.533,4.139 -9.811,4.373C-9.811,4.65 -9.83,4.756 -9.83,4.949L-8.273,4.906C-8.168,4.82 -8.273,4.607 -8.018,4.607C-7.484,4.756 -6.781,4.352 -6.184,4.352C-5.908,3.988 -6.59,3.562 -6.143,3.221C-5.758,3.221 -5.609,3.754 -5.246,4.031C-3.582,5.674 -3.348,7.998 -1.748,9.643C-1.109,9.982 -0.406,10.238 0,10.75" style="fill:rgb(195,166,1);fill-rule:nonzero;"/>
            </g>
        </g>
        <g transform="matrix(4.16667,0,0,4.16667,-1014.44,-829.515)">
            <g transform="matrix(1,0,0,1,735.477,637.297)">
                <path d="M0,3.732L0.191,3.732L-1.793,0L-3.883,0.425C-3.689,1.322 -4.074,2.324 -3.541,3.048L0,3.732Z" style="fill:rgb(250,171,79);fill-rule:nonzero;"/>
            </g>
        </g>
        <g transform="matrix(4.16667,0,0,4.16667,-1014.44,-829.515)">
            <g transform="matrix(1,0,0,1,714.834,633.586)">
                <path d="M0,0.32C0.043,0.32 0.127,0.32 0.191,0.275C0.234,0.191 0.234,0.084 0.148,0C0.043,0.084 -0.043,0.17 0,0.32" style="fill:rgb(147,125,0);fill-rule:nonzero;"/>
            </g>
        </g>
        <g transform="matrix(4.16667,0,0,4.16667,-1014.44,-829.515)">
            <g transform="matrix(1,0,0,1,715.473,633.329)">
                <path d="M0,0.236C0,0.172 0.043,0.064 -0.02,0C-0.063,0.064 0,0.107 0,0.236" style="fill:rgb(147,125,0);fill-rule:nonzero;"/>
            </g>
        </g>
        <g transform="matrix(4.16667,0,0,4.16667,-1014.44,-829.515)">
            <g transform="matrix(1,0,0,1,716.135,632.754)">
                <path d="M0,0.619L0.342,0.426L-0.086,0L0,0.619Z" style="fill:rgb(147,125,0);fill-rule:nonzero;"/>
            </g>
        </g>
        <g transform="matrix(4.16667,0,0,4.16667,-1014.44,-829.515)">
            <g transform="matrix(1,0,0,1,714.686,632.326)">
                <path d="M0,0.854C0.105,0.577 -0.086,0.235 -0.236,0L0,0.854Z" style="fill:rgb(147,125,0);fill-rule:nonzero;"/>
            </g>
        </g>
        <g transform="matrix(4.16667,0,0,4.16667,-1014.44,-829.515)">
            <g transform="matrix(1,0,0,1,716.816,631.772)">
                <path d="M0,1.195L0.129,1.195L-0.49,0L0,1.195Z" style="fill:rgb(147,125,0);fill-rule:nonzero;"/>
            </g>
        </g>
        <g transform="matrix(4.16667,0,0,4.16667,-1014.44,-829.515)">
            <g transform="matrix(1,0,0,1,717.883,632.049)">
                <path d="M0,0.342L0.107,0.299C0.191,0.192 0.086,0 -0.084,0.043C-0.084,0.108 0,0.213 0,0.342" style="fill:rgb(147,125,0);fill-rule:nonzero;"/>
            </g>
        </g>
        <g transform="matrix(4.16667,0,0,4.16667,-1014.44,-829.515)">
            <g transform="matrix(1,0,0,1,715.688,632.092)">
                <path d="M0,0.148L0,0C0,0.043 -0.086,0.064 0,0.148" style="fill:rgb(147,125,0);fill-rule:nonzero;"/>
            </g>
        </g>
        <g transform="matrix(4.16667,0,0,4.16667,-1014.44,-829.515)">
            <g transform="matrix(1,0,0,1,718.65,631.367)">
                <path d="M0,0.49C0.107,0.49 0.385,0.34 0.299,0.234C0.299,0.064 0.277,0.043 0.234,0L0.107,0.361C0.043,0.361 -0.043,0.361 0,0.49" style="fill:rgb(147,125,0);fill-rule:nonzero;"/>
            </g>
        </g>
        <g transform="matrix(4.16667,0,0,4.16667,-1014.44,-829.515)">
            <g transform="matrix(1,0,0,1,717.307,630.791)">
                <path d="M0,0.916L-0.574,0L-0.531,0.447L0,0.916Z" style="fill:rgb(147,125,0);fill-rule:nonzero;"/>
            </g>
        </g>
        <g transform="matrix(4.16667,0,0,4.16667,-1014.44,-829.515)">
            <g transform="matrix(1,0,0,1,718.736,630.939)">
                <path d="M0,0.256C0.021,0.151 -0.086,0.151 -0.129,0L0,0.256Z" style="fill:rgb(147,125,0);fill-rule:nonzero;"/>
            </g>
        </g>
        <g transform="matrix(4.16667,0,0,4.16667,-1014.44,-829.515)">
            <g transform="matrix(1,0,0,1,719.951,629.981)">
                <path d="M0,0.363L0.064,0.277C0.064,0.105 -0.043,0.086 -0.191,0L0,0.363Z" style="fill:rgb(147,125,0);fill-rule:nonzero;"/>
            </g>
        </g>
        <g transform="matrix(4.16667,0,0,4.16667,-1014.44,-829.515)">
            <g transform="matrix(1,0,0,1,718.268,629.832)">
                <path d="M0,0.426C-0.107,0.319 -0.15,0.084 -0.385,0C-0.342,0.149 -0.234,0.34 0,0.426" style="fill:rgb(147,125,0);fill-rule:nonzero;"/>
            </g>
        </g>
        <g transform="matrix(4.16667,0,0,4.16667,-1014.44,-829.515)">
            <g transform="matrix(1,0,0,1,720.398,629.49)">
                <path d="M0,0.426L0.277,0.235C0.236,0.127 0.107,0.063 0,0C-0.213,0.063 -0.021,0.256 0,0.426" style="fill:rgb(147,125,0);fill-rule:nonzero;"/>
            </g>
        </g>
        <g transform="matrix(4.16667,0,0,4.16667,-1014.44,-829.515)">
            <g transform="matrix(1,0,0,1,719.76,629.299)">
                <path d="M0,0.148C0,0.127 0,0 -0.107,0C-0.043,0.127 -0.107,0 0,0.148" style="fill:rgb(147,125,0);fill-rule:nonzero;"/>
            </g>
        </g>
        <g transform="matrix(4.16667,0,0,4.16667,-1014.44,-829.515)">
            <g transform="matrix(1,0,0,1,721.209,629.299)">
                <path d="M0,0.148C-0.084,0.041 0,0.148 -0.105,0C-0.232,0.127 -0.084,0.041 0,0.148" style="fill:rgb(147,125,0);fill-rule:nonzero;"/>
            </g>
        </g>
        <g transform="matrix(4.16667,0,0,4.16667,-1014.44,-829.515)">
            <g transform="matrix(1,0,0,1,723.021,628.082)">
                <path d="M0,1.258C0.086,1.131 0.256,0.981 0.256,0.832L-0.852,0L0,1.258Z" style="fill:rgb(147,125,0);fill-rule:nonzero;"/>
            </g>
        </g>
        <g transform="matrix(4.16667,0,0,4.16667,-1014.44,-829.515)">
            <g transform="matrix(1,0,0,1,721.977,628.465)">
                <path d="M0,0.748L0.107,0.748L-0.574,0L0,0.748Z" style="fill:rgb(147,125,0);fill-rule:nonzero;"/>
            </g>
        </g>
        <g transform="matrix(4.16667,0,0,4.16667,-1014.44,-829.515)">
            <g transform="matrix(1,0,0,1,720.377,627.891)">
                <path d="M0,1.066L-0.916,0L0,1.066Z" style="fill:rgb(147,125,0);fill-rule:nonzero;"/>
            </g>
        </g>
        <g transform="matrix(4.16667,0,0,4.16667,-1014.44,-829.515)">
            <g transform="matrix(1,0,0,1,723.449,627.848)">
                <path d="M0,0.533C0.127,0.447 0.127,0.191 0.17,0C0.17,0.148 0,0.191 -0.15,0.256C-0.15,0.385 -0.15,0.447 0,0.533" style="fill:rgb(147,125,0);fill-rule:nonzero;"/>
            </g>
        </g>
        <g transform="matrix(4.16667,0,0,4.16667,-1014.44,-829.515)">
            <g transform="matrix(1,0,0,1,723.576,626.738)">
                <path d="M0,1.002L0.107,0.961L-1.193,0L0,1.002Z" style="fill:rgb(147,125,0);fill-rule:nonzero;"/>
            </g>
        </g>
        <g transform="matrix(4.16667,0,0,4.16667,-1014.44,-829.515)">
            <g transform="matrix(1,0,0,1,723.834,625.694)">
                <path d="M0,1.322C0.084,1.15 0.213,0.896 0.127,0.724C-0.301,0.511 -0.684,0.277 -0.982,0L0,1.322Z" style="fill:rgb(147,125,0);fill-rule:nonzero;"/>
            </g>
        </g>
        <g transform="matrix(4.16667,0,0,4.16667,-1014.44,-829.515)">
            <g transform="matrix(1,0,0,1,721.443,626.825)">
                <path d="M0,0.148C0,0.105 0,0 -0.127,0C-0.041,0.105 -0.127,0 0,0.148" style="fill:rgb(147,125,0);fill-rule:nonzero;"/>
            </g>
        </g>
        <g transform="matrix(4.16667,0,0,4.16667,-1014.44,-829.515)">
            <g transform="matrix(1,0,0,1,721.125,626.311)">
                <path d="M0,0.32C0.043,0.172 -0.148,0.172 -0.215,0C-0.299,0.107 -0.086,0.107 0,0.32" style="fill:rgb(147,125,0);fill-rule:nonzero;"/>
            </g>
        </g>
        <g transform="matrix(4.16667,0,0,4.16667,-1014.44,-829.515)">
            <g transform="matrix(1,0,0,1,751.084,623.453)">
                <path d="M0,3.051C0.086,2.965 0.193,3.051 0.32,2.965C0.725,1.643 -0.533,0.725 -1.406,0.043C-1.557,0 -1.662,0.043 -1.662,0.043C-1.342,1.045 0.193,1.6 0,3.051" style="fill:rgb(35,31,32);fill-rule:nonzero;"/>
            </g>
        </g>
        <g transform="matrix(4.16667,0,0,4.16667,-1014.44,-829.515)">
            <g transform="matrix(1,0,0,1,724.174,625.437)">
                <path d="M0,0.469C0,0.235 -0.299,0.213 -0.447,0L0,0.469Z" style="fill:rgb(147,125,0);fill-rule:nonzero;"/>
            </g>
        </g>
        <g transform="matrix(4.16667,0,0,4.16667,-1014.44,-829.515)">
            <g transform="matrix(1,0,0,1,722.17,624.116)">
                <path d="M0,1.449C-0.342,0.83 -0.875,0.404 -1.535,0L0,1.449Z" style="fill:rgb(147,125,0);fill-rule:nonzero;"/>
            </g>
        </g>
        <g transform="matrix(4.16667,0,0,4.16667,-1014.44,-829.515)">
            <g transform="matrix(1,0,0,1,724.238,625.031)">
                <path d="M0,0.299L0.063,0.256C-0.064,0.192 -0.172,0 -0.363,0C-0.277,0.129 -0.086,0.129 0,0.299" style="fill:rgb(147,125,0);fill-rule:nonzero;"/>
            </g>
        </g>
        <g transform="matrix(4.16667,0,0,4.16667,-1014.44,-829.515)">
            <g transform="matrix(1,0,0,1,722.981,622.578)">
                <path d="M0,2.518C-0.811,1.6 -1.537,0.598 -2.688,0C-2.346,0.534 -1.855,0.918 -1.43,1.387C-0.938,1.75 -0.512,2.178 0,2.518" style="fill:rgb(147,125,0);fill-rule:nonzero;"/>
            </g>
        </g>
        <g transform="matrix(4.16667,0,0,4.16667,-1014.44,-829.515)">
            <g transform="matrix(1,0,0,1,694.746,624.264)">
                <path d="M0,0.447L0.021,0L0,0.447Z" style="fill:white;fill-rule:nonzero;"/>
            </g>
        </g>
        <g transform="matrix(4.16667,0,0,4.16667,-1014.44,-829.515)">
            <g transform="matrix(1,0,0,1,723.81,623.709)">
                <path d="M0,0.811L-1.258,0L0,0.811Z" style="fill:rgb(147,125,0);fill-rule:nonzero;"/>
            </g>
        </g>
        <g transform="matrix(4.16667,0,0,4.16667,-1014.44,-829.515)">
            <g transform="matrix(1,0,0,1,743.6,622.239)">
                <path d="M0,1.982C0.129,2.025 0.256,1.877 0.32,1.791C0,0.937 -0.447,0.296 -1.129,-0.002C-1.322,-0.002 -1.514,-0.043 -1.557,0.105C-1.621,0.382 -1.514,0.746 -1.365,0.83L-1.193,0.83L-1.193,0.576C-0.639,0.681 -0.213,1.066 -0.064,1.748C-0.021,1.877 -0.021,1.898 0,1.982" style="fill:rgb(35,31,32);fill-rule:nonzero;"/>
            </g>
        </g>
        <g transform="matrix(4.16667,0,0,4.16667,-1014.44,-829.515)">
            <g transform="matrix(1,0,0,1,694.746,623.709)">
                <path d="M0,0.193C0,0.172 0.021,0.086 0,0L0,0.193Z" style="fill:white;fill-rule:nonzero;"/>
            </g>
        </g>
        <g transform="matrix(4.16667,0,0,4.16667,-1014.44,-829.515)">
            <g transform="matrix(1,0,0,1,723.834,623.582)">
                <path d="M0,0.191C-0.023,0.105 -0.066,0.062 -0.193,0C-0.258,0.105 -0.066,0.127 0,0.191" style="fill:rgb(147,125,0);fill-rule:nonzero;"/>
            </g>
        </g>
        <g transform="matrix(4.16667,0,0,4.16667,-1014.44,-829.515)">
            <g transform="matrix(1,0,0,1,724.559,622.771)">
                <path d="M0,0.639C0,0.534 0.148,0.34 0,0.278C-0.193,0.192 -0.299,0.086 -0.406,0L0,0.639Z" style="fill:rgb(147,125,0);fill-rule:nonzero;"/>
            </g>
        </g>
        <g transform="matrix(4.16667,0,0,4.16667,-1014.44,-829.515)">
            <g transform="matrix(1,0,0,1,722.894,621.428)">
                <path d="M0,1.834C-0.533,1.088 -1.193,0.555 -2.068,0C-1.6,0.768 -0.852,1.344 0,1.834" style="fill:rgb(147,125,0);fill-rule:nonzero;"/>
            </g>
        </g>
        <g transform="matrix(4.16667,0,0,4.16667,-1014.44,-829.515)">
            <g transform="matrix(1,0,0,1,723.533,620.446)">
                <path d="M0,2.283C-0.639,1.365 -1.279,0.428 -2.324,0C-1.684,0.939 -0.959,1.599 0,2.283" style="fill:rgb(147,125,0);fill-rule:nonzero;"/>
            </g>
        </g>
        <g transform="matrix(4.16667,0,0,4.16667,-1014.44,-829.515)">
            <g transform="matrix(1,0,0,1,736.691,614.879)">
                <path d="M0,7.85C0.598,7.551 1.236,7.403 1.535,6.719C1.236,6.676 0.854,6.485 0.725,6.057C0.725,5.225 0.404,4.457 0.895,3.668C1.258,3.541 1.535,3.733 1.77,3.883C1.77,2.774 1.428,1.514 0.789,0.641C0.404,0.213 -0.107,0 -0.598,0.065C-2.09,0.959 -2.389,3.051 -2.537,4.5C-1.898,5.567 -0.598,6.016 -0.363,7.508C-0.129,7.657 -0.256,7.807 0,7.85" style="fill:white;fill-rule:nonzero;"/>
            </g>
        </g>
        <g transform="matrix(4.16667,0,0,4.16667,-1014.44,-829.515)">
            <g transform="matrix(1,0,0,1,724.602,622.451)">
                <path d="M0,0.17L0.041,0.084C0,0.084 -0.064,0 -0.15,0C-0.193,0.084 0.041,0.065 0,0.17" style="fill:rgb(147,125,0);fill-rule:nonzero;"/>
            </g>
        </g>
        <g transform="matrix(4.16667,0,0,4.16667,-1014.44,-829.515)">
            <g transform="matrix(1,0,0,1,740.529,615.561)">
                <path d="M0,5.867C0.342,5.908 0.66,5.633 0.938,5.375C1.172,5.076 1.152,4.779 1.215,4.502C1.023,4.607 0.725,4.65 0.555,4.543C0.127,3.84 0.064,2.902 0.447,2.262C0.555,2.133 0.619,2.092 0.639,2.027C0.918,2.027 1.152,2.176 1.322,2.433C1.215,1.599 1.088,0.513 0.342,0C-0.043,-0.041 -0.512,0 -0.725,0.385C-0.619,0.597 -0.811,0.683 -0.854,0.832C-1.152,0.832 -1.193,1.047 -1.365,1.367C-1.791,2.56 -1.365,3.713 -1.449,4.885L0,5.867Z" style="fill:white;fill-rule:nonzero;"/>
            </g>
        </g>
        <g transform="matrix(4.16667,0,0,4.16667,-1014.44,-829.515)">
            <g transform="matrix(1,0,0,1,752.428,619.188)">
                <path d="M0,1.982C0.385,1.556 0.256,0.875 0.236,0.298C-0.086,0 -0.469,0.086 -0.811,0C-1.258,0.107 -1.684,0.447 -1.982,0.746L-1.982,0.98L-1.002,1.365C-0.639,1.214 -0.576,0.681 -0.148,0.681C0,0.746 0.043,0.789 0.107,0.916L-0.49,1.642C-0.426,1.877 -0.191,1.812 0,1.982" style="fill:rgb(195,166,1);fill-rule:nonzero;"/>
            </g>
        </g>
        <g transform="matrix(4.16667,0,0,4.16667,-1014.44,-829.515)">
            <g transform="matrix(1,0,0,1,723.727,620.361)">
                <path d="M0,0.639C0.084,0.639 0.041,0.426 0.234,0.512L-0.576,0L0,0.639Z" style="fill:rgb(147,125,0);fill-rule:nonzero;"/>
            </g>
        </g>
        <g transform="matrix(4.16667,0,0,4.16667,-1014.44,-829.515)">
            <g transform="matrix(1,0,0,1,743.238,614.324)">
                <path d="M0,6.42C0.682,5.844 1.705,5.779 2.473,5.482C3.348,5.354 4.115,5.289 4.926,5.289C5.031,4.395 4.883,3.563 4.689,2.645C4.498,1.813 4.115,0.768 3.391,0.383C2.408,0.191 1.449,0.428 0.49,0.383C-0.277,0.49 -0.832,0.256 -1.621,0.256C-3.135,0 -4.67,0.129 -6.143,0.086L-4.053,1.301C-3.625,0.811 -2.9,0.428 -2.176,0.662C-0.662,2.068 -0.961,4.223 -0.961,6.016C-1.004,6.143 -1.066,6.207 -1.066,6.313L0,6.42Z" style="fill:rgb(250,171,79);fill-rule:nonzero;"/>
            </g>
        </g>
        <g transform="matrix(4.16667,0,0,4.16667,-1014.44,-829.515)">
            <g transform="matrix(1,0,0,1,720.74,620.361)">
                <path d="M0,0.17C0,0.17 -0.064,0.106 -0.105,0C-0.105,0.041 -0.105,0.17 0,0.17" style="fill:rgb(147,125,0);fill-rule:nonzero;"/>
            </g>
        </g>
        <g transform="matrix(4.16667,0,0,4.16667,-1014.44,-829.515)">
            <g transform="matrix(1,0,0,1,724.602,618.611)">
                <path d="M0,1.729C-0.064,0.959 -1.025,0.577 -1.516,0L0,1.729Z" style="fill:rgb(147,125,0);fill-rule:nonzero;"/>
            </g>
        </g>
        <g transform="matrix(4.16667,0,0,4.16667,-1014.44,-829.515)">
            <g transform="matrix(1,0,0,1,722.703,619.53)">
                <path d="M0,0.105C-0.043,0.084 -0.086,0.041 -0.129,0C-0.086,0.041 -0.043,0.084 0,0.105" style="fill:rgb(147,125,0);fill-rule:nonzero;"/>
            </g>
        </g>
        <g transform="matrix(4.16667,0,0,4.16667,-1014.44,-829.515)">
            <g transform="matrix(1,0,0,1,722.361,618.91)">
                <path d="M0,0.469L-0.469,0C-0.426,0.235 -0.17,0.278 0,0.469" style="fill:rgb(147,125,0);fill-rule:nonzero;"/>
            </g>
        </g>
        <g transform="matrix(4.16667,0,0,4.16667,-1014.44,-829.515)">
            <g transform="matrix(0.891063,-0.45388,-0.45388,-0.891063,725.321,618.323)">
                <path d="M-1.082,-0.54C-0.92,-0.406 -0.652,-0.207 -0.697,0.032C-0.923,0.292 -0.815,0.738 -1.082,0.778L-2.456,4.614L-1.082,-0.54Z" style="fill:rgb(147,125,0);fill-rule:nonzero;"/>
            </g>
        </g>
        <g transform="matrix(4.16667,0,0,4.16667,-1014.44,-829.515)">
            <g transform="matrix(1,0,0,1,724.984,617.929)">
                <path d="M0,0.02L0.086,0C0.086,0 0.043,0 0,0.02" style="fill:rgb(147,125,0);fill-rule:nonzero;"/>
            </g>
        </g>
        <g transform="matrix(4.16667,0,0,4.16667,-1014.44,-829.515)">
            <g transform="matrix(1,0,0,1,726.242,610.549)">
                <path d="M0,6.463L0.342,6.313C0.32,6.143 0.512,5.887 0.234,5.803C0.043,5.738 -0.021,5.695 -0.148,5.504C-0.148,5.225 0.148,5.461 0.32,5.311C0.426,5.205 0.576,4.928 0.768,4.928C0.959,4.971 0.959,5.397 1.109,5.225C1.174,5.225 1.301,5.205 1.301,5.205C1.449,4.692 0.875,4.266 0.725,3.775C-0.107,2.41 -0.875,0.959 -2.068,0C-2.133,0.234 -2.176,0.576 -1.982,0.832C-1.066,1.451 -0.383,2.602 0.107,3.668C-0.213,3.711 -0.533,3.606 -0.875,3.945C-0.98,4.395 -0.725,4.692 -0.426,4.885C-0.533,5.076 -0.811,5.205 -0.725,5.525C-0.49,5.93 -0.342,6.143 0,6.463" style="fill:rgb(35,31,32);fill-rule:nonzero;"/>
            </g>
        </g>
        <g transform="matrix(4.16667,0,0,4.16667,-1014.44,-829.515)">
            <g transform="matrix(1,0,0,1,731.893,614.494)">
                <path d="M0,2.518C0.533,1.942 0.277,0.832 1.152,0.493C1.217,0.385 1.195,0.258 1.365,0.213C1.195,0.108 0.832,0 0.533,0.108C0.172,0.727 -0.256,1.409 -0.426,2.198C-0.234,2.327 -0.191,2.434 0,2.518" style="fill:rgb(35,31,32);fill-rule:nonzero;"/>
            </g>
        </g>
        <g transform="matrix(4.16667,0,0,4.16667,-1014.44,-829.515)">
            <g transform="matrix(1,0,0,1,738.609,615.582)">
                <path d="M0,1.195C0,0.982 0.428,0.662 0.15,0.363C-0.063,0.256 -0.148,0.043 -0.426,0L0,1.195Z" style="fill:rgb(195,166,1);fill-rule:nonzero;"/>
            </g>
        </g>
        <g transform="matrix(4.16667,0,0,4.16667,-1014.44,-829.515)">
            <g transform="matrix(1,0,0,1,722.426,614.174)">
                <path d="M0,1.26C0.043,1.239 0,1.239 0.043,1.153L-0.449,0.321C-0.662,0.406 -0.725,0.129 -0.832,0C-0.896,0 -0.982,0 -0.982,0.151C-0.789,0.512 -0.576,0.641 -0.299,1.004C-0.107,1.067 -0.107,1.112 0,1.26" style="fill:rgb(147,125,0);fill-rule:nonzero;"/>
            </g>
        </g>
        <g transform="matrix(4.16667,0,0,4.16667,-1014.44,-829.515)">
            <g transform="matrix(1,0,0,1,735.518,612.66)">
                <path d="M0,1.707L1.834,-0.148C1.066,0.064 0.428,0.939 -0.148,1.6C-0.213,1.6 0.043,1.855 0,1.707" style="fill:rgb(147,125,0);fill-rule:nonzero;"/>
            </g>
        </g>
        <g transform="matrix(4.16667,0,0,4.16667,-1014.44,-829.515)">
            <g transform="matrix(1,0,0,1,730.549,609.782)">
                <path d="M0,4.521C0.576,3.904 1.045,3.177 0.705,2.302C0.277,1.3 -0.17,0.533 -0.959,0C-1.279,0.341 -1.256,0.875 -1.471,1.386C-0.639,2.197 0.172,3.326 0,4.521" style="fill:rgb(255,231,189);fill-rule:nonzero;"/>
            </g>
        </g>
        <g transform="matrix(4.16667,0,0,4.16667,-1014.44,-829.515)">
            <g transform="matrix(1,0,0,1,730.059,611.807)">
                <path d="M0,2.367C0,1.537 -0.49,0.619 -1.107,0C-1.258,0.619 -1.193,1.26 -0.916,1.793C-0.66,2.07 -0.383,2.283 0,2.367" style="fill:rgb(255,231,189);fill-rule:nonzero;"/>
            </g>
        </g>
        <g transform="matrix(4.16667,0,0,4.16667,-1014.44,-829.515)">
            <g transform="matrix(1,0,0,1,735.07,612.533)">
                <path d="M0,1.449L1.514,0L0,1.449Z" style="fill:rgb(147,125,0);fill-rule:nonzero;"/>
            </g>
        </g>
        <g transform="matrix(4.16667,0,0,4.16667,-1014.44,-829.515)">
            <g transform="matrix(1,0,0,1,743.301,611.915)">
                <path d="M0,1.855L0.277,1.578C0.043,1.386 0.385,1.001 0,0.81C-0.895,0 -2.047,0.126 -3.092,0.363C-3.156,0.554 -3.305,0.425 -3.197,0.597L0,1.855Z" style="fill:rgb(35,31,32);fill-rule:nonzero;"/>
            </g>
        </g>
        <g transform="matrix(4.16667,0,0,4.16667,-1014.44,-829.515)">
            <g transform="matrix(1,0,0,1,734.303,611.659)">
                <path d="M0,2.068L1.834,0L-0.32,1.877L0,2.068Z" style="fill:rgb(147,125,0);fill-rule:nonzero;"/>
            </g>
        </g>
        <g transform="matrix(4.16667,0,0,4.16667,-1014.44,-829.515)">
            <g transform="matrix(1,0,0,1,733.15,610.058)">
                <path d="M0,3.178C0.811,3.008 1.195,1.856 1.877,1.407C2.262,0.873 2.688,0.533 2.986,0C2.283,0.043 1.729,0.598 1.301,1.323C1.217,1.686 0.705,1.727 0.641,2.047C0.385,2.475 0.107,2.752 0,3.178" style="fill:rgb(147,125,0);fill-rule:nonzero;"/>
            </g>
        </g>
        <g transform="matrix(4.16667,0,0,4.16667,-1014.44,-829.515)">
            <g transform="matrix(1,0,0,1,735.518,610.891)">
                <path d="M0,2.068L1.771,0.086C1.578,0 1.408,0.234 1.174,0.382C0.982,1.023 0.385,1.449 0,2.068" style="fill:rgb(147,125,0);fill-rule:nonzero;"/>
            </g>
        </g>
        <g transform="matrix(4.16667,0,0,4.16667,-1014.44,-829.515)">
            <g transform="matrix(1,0,0,1,732.598,612.639)">
                <path d="M0,0.277C0.105,0.277 0.17,0.129 0.17,0C0.17,0.086 -0.064,0.129 0,0.277" style="fill:rgb(147,125,0);fill-rule:nonzero;"/>
            </g>
        </g>
        <g transform="matrix(4.16667,0,0,4.16667,-1014.44,-829.515)">
            <g transform="matrix(1,0,0,1,731.787,607.649)">
                <path d="M0,4.82C0.277,4.435 0.598,3.711 0.725,3.242C0.598,1.92 -0.129,0.853 -0.961,0C-1.238,0.148 -1.301,0.468 -1.451,0.767C-1.686,0.853 -1.6,1.257 -1.877,1.408C-1.729,1.941 -0.727,2.345 -0.703,3.007C-0.428,3.476 -0.32,3.816 -0.15,4.265C-0.15,4.521 -0.129,4.734 0,4.82" style="fill:rgb(255,231,189);fill-rule:nonzero;"/>
            </g>
        </g>
        <g transform="matrix(4.16667,0,0,4.16667,-1014.44,-829.515)">
            <g transform="matrix(1,0,0,1,736.775,612.213)">
                <path d="M0,0.127C0.043,0.127 0.107,0.127 0.193,0.064C0.086,-0.043 0.107,0.17 0,0.127" style="fill:rgb(147,125,0);fill-rule:nonzero;"/>
            </g>
        </g>
        <g transform="matrix(4.16667,0,0,4.16667,-1014.44,-829.515)">
            <g transform="matrix(1,0,0,1,732.617,609.59)">
                <path d="M0,2.709C0.15,2.688 0.15,2.58 0.15,2.41C0.768,2.025 1.238,1.342 1.643,0.703C1.791,0.469 1.877,0.191 2.027,0C1.066,0.596 0.492,1.684 0,2.709" style="fill:rgb(147,125,0);fill-rule:nonzero;"/>
            </g>
        </g>
        <g transform="matrix(4.16667,0,0,4.16667,-1014.44,-829.515)">
            <g transform="matrix(1,0,0,1,737.736,611.83)">
                <path d="M0,0.084C0.105,0.17 0.105,0.02 0.191,-0.045C0.148,-0.086 -0.15,0.063 0,0.084" style="fill:rgb(147,125,0);fill-rule:nonzero;"/>
            </g>
        </g>
        <g transform="matrix(4.16667,0,0,4.16667,-1014.44,-829.515)">
            <g transform="matrix(1,0,0,1,737.096,606.623)">
                <path d="M0,5.162C0.299,4.992 0.641,4.588 0.982,4.758C1.131,4.822 1.215,4.928 1.215,5.035L2.303,0C1.941,0 1.664,0.258 1.365,0.385C0.684,0.791 0.064,1.389 -0.512,1.75C-0.938,2.24 -1.236,2.709 -1.684,3.137C-1.727,3.201 -1.77,3.285 -1.77,3.285C-1.385,3.201 -1.002,2.582 -0.533,2.773C-0.512,2.838 -0.426,2.902 -0.426,2.902C0.299,2.474 0.854,1.558 1.664,1.152C1.748,1.217 1.813,1.26 1.855,1.303L-1.471,4.736L0.533,3.82C0.746,4.012 0.598,4.502 0.385,4.693C0.193,4.842 0.064,5.035 0,5.162" style="fill:rgb(195,166,1);fill-rule:nonzero;"/>
            </g>
        </g>
        <g transform="matrix(4.16667,0,0,4.16667,-1014.44,-829.515)">
            <g transform="matrix(1,0,0,1,728.31,611.125)">
                <path d="M0,0.619C0,0.426 0.107,0.234 0.107,0C0.021,0.127 -0.191,0.383 0,0.619" style="fill:rgb(147,125,0);fill-rule:nonzero;"/>
            </g>
        </g>
        <g transform="matrix(4.16667,0,0,4.16667,-1014.44,-829.515)">
            <g transform="matrix(1,0,0,1,728.418,607.733)">
                <path d="M0,3.285C0.318,2.986 0.148,2.517 0.148,2.092C0,1.365 0.127,0.683 -0.107,0L0,3.285Z" style="fill:rgb(147,125,0);fill-rule:nonzero;"/>
            </g>
        </g>
        <g transform="matrix(4.16667,0,0,4.16667,-1014.44,-829.515)">
            <g transform="matrix(1,0,0,1,726.967,608.906)">
                <path d="M0,1.92L-0.746,0L0,1.92Z" style="fill:rgb(147,125,0);fill-rule:nonzero;"/>
            </g>
        </g>
        <g transform="matrix(4.16667,0,0,4.16667,-1014.44,-829.515)">
            <g transform="matrix(1,0,0,1,732.853,605.281)">
                <path d="M0,4.969C0.682,3.754 1.215,2.217 0.148,0.981C-0.086,0.576 -0.385,0.319 -0.684,0L-1.686,1.643C-0.662,2.408 -0.236,3.711 0,4.969" style="fill:rgb(255,231,189);fill-rule:nonzero;"/>
            </g>
        </g>
        <g transform="matrix(4.16667,0,0,4.16667,-1014.44,-829.515)">
            <g transform="matrix(1,0,0,1,727.842,608.758)">
                <path d="M0,1.107L-0.256,0L0,1.107Z" style="fill:rgb(147,125,0);fill-rule:nonzero;"/>
            </g>
        </g>
        <g transform="matrix(4.16667,0,0,4.16667,-1014.44,-829.515)">
            <g transform="matrix(1,0,0,1,727.01,605.793)">
                <path d="M0,3.775L-1.322,0.148C-1.385,0.105 -1.492,0.105 -1.514,0C-1.578,0.98 -0.789,2.132 -0.385,3.048C-0.256,3.263 -0.043,3.498 0,3.775" style="fill:rgb(147,125,0);fill-rule:nonzero;"/>
            </g>
        </g>
        <g transform="matrix(4.16667,0,0,4.16667,-1014.44,-829.515)">
            <g transform="matrix(1,0,0,1,726.135,608.524)">
                <path d="M0,0.234C0,0.213 0.021,0.084 -0.041,0C-0.084,0.084 0,0.127 0,0.234" style="fill:white;fill-rule:nonzero;"/>
            </g>
        </g>
        <g transform="matrix(4.16667,0,0,4.16667,-1014.44,-829.515)">
            <g transform="matrix(1,0,0,1,727.01,608.33)">
                <path d="M0,0.342L-0.127,0C0,0.043 -0.063,0.194 0,0.342" style="fill:rgb(147,125,0);fill-rule:nonzero;"/>
            </g>
        </g>
        <g transform="matrix(4.16667,0,0,4.16667,-1014.44,-829.515)">
            <g transform="matrix(1,0,0,1,727.479,608.074)">
                <path d="M0,0.428L-0.084,0L0,0.428Z" style="fill:rgb(147,125,0);fill-rule:nonzero;"/>
            </g>
        </g>
        <g transform="matrix(4.16667,0,0,4.16667,-1014.44,-829.515)">
            <g transform="matrix(1,0,0,1,727.543,604.706)">
                <path d="M0,2.814L-0.854,0L0,2.814Z" style="fill:rgb(147,125,0);fill-rule:nonzero;"/>
            </g>
        </g>
        <g transform="matrix(4.16667,0,0,4.16667,-1014.44,-829.515)">
            <g transform="matrix(1,0,0,1,734.047,602.807)">
                <path d="M0,4.691C0.17,4.5 0.17,4.201 0.361,3.945C0.533,3.242 0.895,2.709 0.598,2.132C0.555,1.791 0.404,1.535 0.361,1.257C0.17,0.81 -0.191,0.425 -0.404,0L-1.578,1.877C-0.854,2.623 -0.17,3.584 0,4.691" style="fill:rgb(255,231,189);fill-rule:nonzero;"/>
            </g>
        </g>
        <g transform="matrix(4.16667,0,0,4.16667,-1014.44,-829.515)">
            <g transform="matrix(1,0,0,1,730.379,606.817)">
                <path d="M0,0.447L0.148,0C0.021,0.064 0.021,0.299 0,0.447" style="fill:rgb(147,125,0);fill-rule:nonzero;"/>
            </g>
        </g>
        <g transform="matrix(4.16667,0,0,4.16667,-1014.44,-829.515)">
            <g transform="matrix(1,0,0,1,726.69,605.472)">
                <path d="M0,1.387L-0.299,0L0,1.387Z" style="fill:white;fill-rule:nonzero;"/>
            </g>
        </g>
        <g transform="matrix(4.16667,0,0,4.16667,-1014.44,-829.515)">
            <g transform="matrix(1,0,0,1,730.549,604.684)">
                <path d="M0,1.939L0.662,0L0,1.939Z" style="fill:rgb(147,125,0);fill-rule:nonzero;"/>
            </g>
        </g>
        <g transform="matrix(4.16667,0,0,4.16667,-1014.44,-829.515)">
            <g transform="matrix(1,0,0,1,729.676,605.217)">
                <path d="M0,0.318L0.043,0C-0.086,0.021 -0.021,0.213 0,0.318" style="fill:rgb(147,125,0);fill-rule:nonzero;"/>
            </g>
        </g>
        <g transform="matrix(4.16667,0,0,4.16667,-1014.44,-829.515)">
            <g transform="matrix(1,0,0,1,735.135,600.737)">
                <path d="M0,3.861C0.383,3.136 1.002,2.07 0.576,1.238C0.299,0.726 0.234,0.298 -0.234,0L-1.088,1.494C-0.684,1.728 -0.619,2.218 -0.342,2.644C-0.426,3.05 -0.107,3.433 -0.107,3.713C-0.064,3.775 0,3.861 0,3.861" style="fill:rgb(255,231,189);fill-rule:nonzero;"/>
            </g>
        </g>
        <g transform="matrix(4.16667,0,0,4.16667,-1014.44,-829.515)">
            <g transform="matrix(1,0,0,1,736.285,598.838)">
                <path d="M0,2.902C0.469,1.984 0.533,0.832 -0.084,0C-0.49,0.384 -0.809,0.81 -0.916,1.365C-0.49,1.836 -0.318,2.388 0,2.902" style="fill:rgb(255,231,189);fill-rule:nonzero;"/>
            </g>
        </g>
        <g transform="matrix(4.16667,0,0,4.16667,-1014.44,-829.515)">
            <g transform="matrix(1,0,0,1,737.117,595.98)">
                <path d="M0,3.434L1.109,0C0.469,0.555 -0.148,1.514 -0.555,2.346C-0.426,2.731 -0.105,3.051 0,3.434" style="fill:rgb(255,231,189);fill-rule:nonzero;"/>
            </g>
        </g>
    </g>
</svg>
