<?xml version="1.0" encoding="UTF-8" standalone="no"?>
<!DOCTYPE svg PUBLIC "-//W3C//DTD SVG 1.1//EN" "http://www.w3.org/Graphics/SVG/1.1/DTD/svg11.dtd">
<svg width="100%" height="100%" viewBox="0 0 212 184" version="1.1" xmlns="http://www.w3.org/2000/svg" xmlns:xlink="http://www.w3.org/1999/xlink" xml:space="preserve" xmlns:serif="http://www.serif.com/" style="fill-rule:evenodd;clip-rule:evenodd;stroke-linejoin:round;stroke-miterlimit:1.41421;">
    <g transform="matrix(1,0,0,1,-1589.57,-1316.49)">
        <g>
            <g>
                <g>
                    <path d="M1759.9,1415.88C1759.9,1415.9 1759.9,1415.93 1759.9,1415.96C1759.91,1415.89 1759.91,1415.86 1759.9,1415.88Z" style="fill:rgb(1,2,2);fill-rule:nonzero;"/>
                    <path d="M1801.05,1487.07C1801.85,1486.11 1799.45,1480.98 1797.18,1469.02C1794.92,1457.06 1788.87,1450.35 1788.14,1449.05C1787.41,1447.75 1787.19,1446.29 1787.48,1445.05C1787.77,1443.8 1787.19,1440.53 1787.04,1439.12C1786.9,1437.71 1789.09,1426.93 1789.89,1424C1792.15,1420.39 1793.61,1416.95 1793.61,1416.95C1793.61,1416.95 1794.34,1416.78 1794.27,1416.33C1795.87,1412.15 1793.68,1407.36 1792.59,1404.93C1791.5,1402.51 1790.4,1398.73 1790.84,1397.15C1795.36,1396.3 1798.21,1393.37 1799.08,1392.02C1799.96,1390.66 1799.67,1388.01 1799.3,1385.75C1798.94,1383.5 1798.5,1378.19 1798.21,1376.95C1797.92,1375.71 1799.01,1373.96 1798.64,1373.34C1798.28,1372.72 1798.35,1371.48 1798.94,1369.79C1799.52,1368.1 1797.99,1365.56 1796.02,1363.41C1794.05,1361.27 1788.65,1357.21 1788.65,1357.21L1788.8,1356.98C1787.34,1356.31 1787.85,1353.71 1787.56,1353.09C1786.68,1352.64 1784.56,1353.49 1783.98,1353.49C1782.89,1352.7 1782.6,1348.97 1783.54,1349.03C1785.81,1349.93 1788.8,1349.31 1789.96,1347.34C1791.13,1345.36 1789.53,1342.37 1788.58,1341.36C1787.63,1340.34 1787.63,1337.41 1786.54,1334.53C1785.44,1331.66 1783.4,1331.43 1780.26,1330.08C1777.12,1328.72 1772.38,1329.4 1770.78,1329.91C1769.17,1330.42 1768.59,1330.98 1768.59,1330.98C1763.55,1331.43 1763.63,1336.17 1762.9,1337.41C1762.17,1338.65 1763.99,1339.38 1763.34,1341.25C1762.68,1343.11 1764.79,1342.04 1764.87,1342.54C1764.14,1349.6 1769.61,1352.98 1770.56,1353.26C1771.51,1354.05 1771.87,1358.51 1771.65,1359.19C1764.21,1363.59 1760.42,1372.05 1759.9,1373.85C1759.39,1375.66 1757.93,1382.6 1757.72,1382.48C1757.5,1382.37 1754.8,1381.75 1753.7,1380.79C1752.61,1379.83 1747.35,1379.94 1746.11,1379.49C1744.88,1379.04 1740.79,1376.96 1739.55,1376.62C1738.31,1376.28 1738.6,1376.17 1738.6,1376.17C1738.6,1376.17 1738.24,1376.22 1737.87,1376.51C1735.68,1376.22 1733.42,1371.93 1732.91,1370.98C1732.4,1370.02 1731.45,1369.85 1731.01,1369.79C1730.58,1369.74 1728.97,1368.44 1727.95,1367.99C1726.93,1367.54 1726.05,1367.99 1724.67,1368.33C1723.28,1368.66 1722.84,1368.94 1721.97,1369.34C1720.22,1369.74 1720.73,1370.36 1721.53,1370.47C1722.33,1370.58 1724.08,1370.36 1724.23,1370.53C1723.5,1370.98 1723.35,1372.22 1723.06,1372.56C1720.94,1373.18 1722.84,1374.14 1724.08,1374.53C1727.15,1375.04 1729.26,1376.45 1730.8,1377.8C1732.33,1379.16 1734.74,1379.49 1734.95,1379.61C1735.17,1379.72 1733.79,1381.24 1732.77,1383.95C1731.74,1386.66 1736.56,1387.22 1741.52,1388.63C1746.48,1390.04 1756.26,1392.19 1759.47,1392.24C1756.91,1399.46 1756.91,1417.91 1758.3,1417.74C1759.47,1417.6 1759.86,1416.3 1759.91,1415.96C1759.91,1415.93 1759.91,1415.9 1759.91,1415.88C1759.92,1415.86 1759.92,1415.9 1759.91,1415.96C1760.1,1423.92 1767.06,1446.69 1767.57,1448.6C1768.08,1450.52 1770.92,1454.36 1770.85,1456.05C1770.63,1457.8 1773.99,1472.8 1773.99,1472.8C1773.99,1472.8 1774.72,1474.27 1773.33,1477.43C1771.95,1480.59 1770.63,1488.77 1770.63,1488.77C1770.63,1488.77 1771.44,1488.54 1771.22,1489.44C1769.9,1491.42 1766.55,1493.17 1762.75,1493.95C1758.45,1494.69 1760.49,1496.83 1761.29,1497.11C1771.14,1497.34 1775.01,1496.89 1775.89,1496.27C1780.78,1491.81 1782.96,1492.83 1782.96,1492.83L1783.04,1494.24C1783.04,1494.24 1783.26,1494.69 1781.58,1495.76C1778.88,1498.3 1782.09,1498.81 1783.4,1498.81C1787.19,1499.03 1793.98,1498.02 1794.71,1497.51C1796.68,1493.28 1797.56,1493.56 1798.21,1492.94C1798.87,1494.29 1798.8,1496.83 1798.8,1496.83C1798.8,1496.83 1799.74,1496.44 1800.26,1496.38C1799.6,1494.24 1800.69,1491.13 1801.06,1490.35C1801.34,1489.38 1800.69,1487.86 1801.05,1487.07ZM1725.17,1372.55C1724.88,1372.61 1724.59,1372.22 1724.59,1372.22C1724.59,1372.22 1724.88,1371.65 1724.95,1371.54C1725.32,1371.48 1726.49,1370.92 1726.49,1370.92C1726.49,1370.92 1727.22,1371.31 1727.14,1371.43C1726.56,1371.54 1725.39,1372.33 1725.17,1372.55ZM1728.31,1373.4C1727.51,1373.35 1727.36,1373.01 1726.63,1372.84C1726.63,1372.84 1727.51,1372.28 1728.16,1372.61C1728.82,1372.95 1729.11,1373.46 1728.31,1373.4Z" style="fill:rgb(1,2,2);fill-rule:nonzero;"/>
                </g>
                <path d="M1720.07,1361.5C1719.78,1359.36 1718.17,1359.92 1718.17,1359.92C1718.17,1359.92 1695.7,1359.69 1691.17,1359.58C1686.65,1359.47 1687.67,1360.93 1687.67,1360.93L1702.74,1448.9L1699.97,1492.34L1691.32,1493.28L1691.47,1495.42C1691.47,1495.42 1711.02,1498.69 1711.75,1498.8C1714.52,1501.74 1714.67,1498.47 1714.67,1498.47C1714.67,1498.47 1739.91,1495.31 1740.64,1495.42C1742.1,1498.35 1743.56,1496.32 1743.56,1496.32C1743.56,1496.32 1720.36,1363.64 1720.07,1361.5ZM1702.01,1492.11L1703.6,1453.93L1710,1491.25L1702.01,1492.11Z" style="fill:rgb(191,24,24);fill-rule:nonzero;"/>
                <path d="M1747.11,1418.71L1733.48,1390.06L1754.41,1383.96L1766.92,1411.52L1747.11,1418.71Z" style="fill:rgb(12,107,48);fill-rule:nonzero;"/>
                <path d="M1723.28,1422.87L1703.29,1422.99L1706.79,1398.28L1728.24,1398.28L1723.28,1422.87Z" style="fill:rgb(12,107,48);fill-rule:nonzero;"/>
                <path d="M1724.74,1431.67L1704.74,1431.79L1708.25,1407.08L1729.7,1407.08L1724.74,1431.67Z" style="fill:rgb(12,107,48);fill-rule:nonzero;"/>
                <path d="M1728.09,1441.38L1708.1,1441.49L1711.6,1416.78L1733.05,1416.78L1728.09,1441.38Z" style="fill:rgb(12,107,48);fill-rule:nonzero;"/>
                <path d="M1733.49,1464.62L1710.43,1467.21L1711.7,1435.62L1735.53,1435.62L1733.49,1464.62Z" style="fill:rgb(12,107,48);fill-rule:nonzero;"/>
                <path d="M1738.45,1484.02L1714.08,1486.28L1714.52,1455.37L1737.72,1453.9L1738.45,1484.02Z" style="fill:rgb(12,107,48);fill-rule:nonzero;"/>
                <path d="M1722.61,1413.51L1701.09,1413.62L1704.86,1388.91L1727.94,1388.91L1722.61,1413.51Z" style="fill:rgb(12,107,48);fill-rule:nonzero;"/>
                <path d="M1720.27,1403.81L1698.76,1403.92L1702.53,1379.21L1725.61,1379.21L1720.27,1403.81Z" style="fill:rgb(12,107,48);fill-rule:nonzero;"/>
                <path d="M1718.96,1394.44L1697.45,1394.56L1701.22,1369.85L1724.3,1369.85L1718.96,1394.44Z" style="fill:rgb(12,107,48);fill-rule:nonzero;"/>
                <path d="M1766.54,1390.04C1766.54,1390.04 1760.12,1390.89 1759.1,1390.89C1758.08,1390.89 1753.77,1390.72 1752.9,1391.12C1752.02,1391.51 1749.91,1392.58 1749.25,1392.86C1748.6,1393.15 1747.94,1395.01 1748.08,1395.63C1748.23,1396.25 1748.45,1397.1 1749.32,1396.81C1749.83,1396.87 1750.56,1397.27 1751.15,1396.98C1751.22,1397.32 1752.1,1398.85 1753.77,1398.05C1754.29,1398.62 1754.5,1399.58 1756.25,1398.73C1757.93,1398 1758.44,1398.23 1759.39,1398C1760.34,1397.77 1763.33,1396.98 1763.91,1396.59C1764.35,1396.93 1765.23,1401.1 1767.27,1402.17C1768.15,1402.4 1773.91,1400.71 1774.64,1400.42C1775.37,1400.14 1773.18,1389.7 1766.54,1390.04Z" style="fill:rgb(1,2,2);fill-rule:nonzero;"/>
            </g>
            <g>
                <g>
                    <path d="M1621.47,1318C1621.47,1318 1622.61,1317.62 1623.02,1316.99C1622.77,1317.43 1622.86,1317.81 1622.86,1317.81L1624.65,1316.49L1625.05,1317.31C1625.05,1317.31 1626.35,1317.68 1626.03,1317.12C1625.7,1316.55 1626.92,1316.8 1626.84,1317.62C1627.09,1317.81 1628.39,1318.06 1628.8,1318.13C1629.2,1318.19 1629.93,1317.75 1629.93,1317.75C1629.93,1317.75 1629.2,1318.06 1629.69,1318.82C1630.02,1319.13 1630.26,1318.94 1630.67,1318.69C1630.91,1318.75 1630.34,1319.76 1630.91,1319.95C1631.48,1320.14 1632.13,1320.14 1632.13,1320.14C1632.13,1320.14 1632.62,1321.52 1633.19,1321.96C1633.76,1322.4 1635.22,1323.53 1635.22,1324.16C1635.22,1324.16 1635.31,1325.49 1635.79,1326.74C1636.28,1328 1636.61,1329.07 1636.2,1330.02C1635.79,1330.96 1636.04,1333.16 1635.79,1333.66C1635.55,1334.17 1635.71,1335.55 1635.71,1336.18C1635.71,1336.81 1635.55,1340.08 1633.03,1342.16C1633.68,1343.29 1634.74,1345.49 1635.31,1345.81C1636.69,1346.37 1649.22,1350.21 1650.52,1351.03C1651.17,1351.15 1651.34,1351.15 1651.74,1352.22C1652.15,1353.29 1655.4,1360.28 1655.16,1361.85C1654.92,1363.42 1654.35,1364.87 1654.84,1365.31C1655.32,1365.75 1657.93,1367.01 1656.79,1369.27C1656.06,1370.85 1656.71,1370.72 1657.11,1370.91C1657.52,1371.1 1658.09,1372.61 1658.09,1373.49C1658.09,1374.37 1658.82,1375.31 1660.04,1374.5C1661.26,1373.68 1662.57,1373.24 1662.57,1373.24C1662.57,1373.24 1662.65,1371.98 1663.54,1371.73C1664.19,1371.22 1665.01,1370.53 1666.63,1371.29C1668.1,1371.22 1672.33,1370.91 1673.06,1372.61C1673.31,1373.8 1673.06,1374.18 1673.06,1374.18C1673.06,1374.18 1673.88,1374.49 1673.71,1375.31C1673.8,1375.5 1674.45,1376.19 1674.04,1376.82C1673.88,1377.14 1674.2,1377.95 1673.39,1378.46C1673.06,1378.59 1671.27,1379.59 1670.38,1379.46C1669.48,1379.34 1665.66,1379.21 1665.33,1379.28C1665.01,1379.34 1665.09,1382.93 1665.01,1383.18C1664.92,1383.43 1661.02,1384.62 1659.88,1384.81C1658.74,1385 1651.58,1386.07 1650.6,1386.07C1649.63,1386.07 1648.41,1387.33 1648.41,1387.33C1648.41,1387.33 1649.95,1395.01 1650.85,1396.39C1651.74,1397.77 1651.91,1399.29 1651.26,1399.47C1650.6,1399.66 1652.8,1416.15 1652.64,1418.6C1652.48,1421.05 1651.58,1421.68 1651.17,1421.68C1650.77,1421.68 1654.02,1433.57 1653.29,1444.52C1653.13,1452.26 1653.86,1454.46 1653.53,1455.4C1653.21,1456.35 1653.21,1462.95 1653.29,1465.6C1653.37,1468.24 1653.7,1477.93 1652.96,1481.26C1652.64,1483.15 1653.86,1487.05 1654.51,1487.68C1655.08,1487.93 1655.24,1488.56 1655.24,1488.56C1655.24,1488.56 1660.45,1491.64 1666.31,1492.71C1666.88,1492.84 1667.45,1493.59 1667.53,1493.97C1667.53,1494.28 1666.23,1496.05 1663.7,1496.68C1661.26,1497.37 1657.28,1497.74 1652.07,1496.17C1650.12,1495.61 1648.49,1493.59 1646.21,1493.78C1643.93,1493.97 1637.67,1494.03 1635.71,1492.08C1634.49,1490.95 1634.82,1489.5 1635.39,1489.13C1635.39,1488.94 1635.06,1487.99 1635.06,1487.99C1635.06,1487.99 1636.77,1481.01 1637.34,1480.51C1637.91,1480 1637.83,1479.12 1637.83,1479.12C1637.83,1479.12 1636.2,1478.18 1636.04,1472.89C1635.88,1467.61 1633.35,1452.01 1634.57,1449.99C1634.98,1448.17 1633.27,1447.66 1632.78,1446.03C1632.3,1444.39 1629.53,1432.38 1628.39,1430.49C1627.25,1428.6 1626.76,1427.09 1626.76,1427.09C1626.76,1427.09 1624.08,1445.46 1623.02,1447.16C1621.96,1448.86 1621.63,1452.38 1621.31,1453.26C1620.99,1454.15 1620.82,1458.8 1621.07,1460.63C1621.31,1462.45 1624.97,1478.3 1624.08,1480.69C1623.18,1483.08 1623.02,1483.46 1623.02,1483.78C1623.02,1484.09 1623.1,1489.25 1623.1,1489.25C1623.1,1489.25 1622.04,1489.44 1621.63,1489.5C1621.63,1489.82 1622.77,1493.47 1623.02,1494.98C1623.26,1496.49 1623.26,1499.13 1621.23,1499.26C1619.19,1499.38 1611.95,1499.82 1609.84,1496.99C1608.7,1495.29 1609.27,1492.65 1610.49,1491.01C1610.57,1490.51 1609.92,1490.57 1609.92,1490.57C1609.92,1490.57 1608.94,1480.07 1607.56,1477.42C1606.17,1474.78 1602.84,1466.66 1603.81,1461.13C1604.79,1455.59 1605.04,1451.82 1605.2,1450.18C1605.36,1448.55 1602.92,1440.68 1602.84,1436.66C1602.76,1432.63 1601.94,1424.32 1601.21,1423.57C1600.48,1422.81 1596.82,1422.25 1596.49,1421.74C1596.16,1421.24 1596.9,1420.55 1596.9,1420.55C1596.9,1420.55 1595.35,1420.49 1595.68,1419.73C1596,1418.98 1599.34,1402.87 1600.23,1399.22C1601.13,1395.57 1602.02,1391.99 1601.54,1391.74C1601.05,1391.48 1592.26,1390.16 1590.96,1387.59C1589.66,1385.01 1589.74,1380.48 1589.66,1380.03C1589.58,1379.6 1589.41,1377.77 1589.98,1375.44C1590.55,1373.11 1591.93,1369.84 1591.77,1368.84C1591.61,1367.83 1589,1366.38 1589.9,1362.73C1590.8,1359.08 1591.77,1352.92 1594.7,1352.54C1595.92,1351.79 1600.97,1349.84 1604.22,1348.95C1607.48,1348.07 1611.22,1346.25 1611.22,1346.25C1611.22,1346.25 1613.42,1343.48 1615.29,1342.6C1615.45,1341.78 1616.1,1340.59 1616.59,1340.4C1616.27,1339.96 1615.78,1338.13 1615.37,1337.88C1614.96,1337.63 1614.64,1337.07 1614.15,1337.07C1613.66,1337.07 1610.97,1336.37 1611.38,1330.4C1611.22,1328.76 1611.06,1327.25 1611.06,1326.56C1611.06,1325.87 1611.38,1323.48 1612.68,1322.72C1612.68,1322.15 1611.54,1323.29 1611.38,1323.35C1611.22,1323.04 1612.03,1322.47 1612.68,1322.15C1612.68,1321.84 1613.09,1320.33 1612.77,1320.08C1612.44,1319.83 1613.17,1321.46 1613.09,1321.65C1613.01,1321.84 1614.72,1319.95 1614.64,1319.7C1614.55,1319.45 1615.29,1319.26 1615.69,1319.45C1616.1,1319.64 1616.91,1319.32 1616.84,1318.95C1616.75,1318.57 1617.65,1318.82 1617.65,1318.82C1617.65,1318.82 1618.3,1318.07 1618.05,1317.81C1617.81,1317.56 1618.7,1318.44 1618.7,1318.44L1619.6,1317.94C1619.6,1317.94 1619.76,1317.75 1619.84,1317.5C1619.93,1317.24 1620.17,1317.87 1621.47,1318Z" style="fill:rgb(1,2,2);fill-rule:nonzero;"/>
                    <path d="M1680.95,1378.21C1681.2,1377.45 1670.87,1371.35 1659.23,1373.3C1657.69,1373.66 1644.97,1383.06 1641.65,1386.32C1636.3,1385.35 1625.26,1383.12 1624.08,1383.3C1621.64,1386.51 1618.2,1390.13 1618.88,1390.7C1624.36,1390.21 1658.99,1397.27 1658.99,1397.27C1661.93,1395.68 1678.31,1379.02 1680.95,1378.21Z" style="fill:rgb(191,24,24);fill-rule:nonzero;"/>
                    <path d="M1616.59,1382.61C1616.59,1382.61 1619.68,1381.23 1621.47,1381.61C1623.26,1381.98 1625.13,1383.18 1626.11,1383.43C1627.09,1383.68 1627.82,1384.25 1627.98,1384.43C1628.14,1384.62 1630.59,1385.07 1629.2,1386.07C1628.96,1386.2 1630.67,1386.58 1630.91,1387.02C1631.15,1387.45 1631.81,1388.21 1630.34,1388.27C1628.88,1388.34 1628.31,1388.34 1628.31,1388.34C1628.31,1388.34 1626.92,1389.28 1626.44,1389.28C1626.28,1389.4 1625.3,1390.66 1624.65,1390.73C1624.81,1390.73 1625.05,1391.36 1623.91,1391.61C1622.78,1391.86 1618.54,1392.49 1617.4,1391.42C1616.27,1390.35 1614.8,1393.18 1614.39,1393.31C1613.99,1393.43 1610.57,1393.18 1610.24,1393.06C1609.92,1392.93 1608.7,1385.57 1612.44,1382.11C1613.99,1381.92 1615.53,1382.04 1616.59,1382.61Z" style="fill:rgb(1,2,2);fill-rule:nonzero;"/>
                </g>
                <path d="M1663.95,1373.62C1663.95,1373.62 1664.35,1376.01 1665.98,1375.5C1667.04,1374.87 1667.28,1374.06 1667.28,1373.8C1667.37,1373.74 1668.83,1373.99 1669.08,1374.5C1669.32,1375 1669.48,1376.89 1670.54,1376.63C1671.43,1376.2 1672.49,1375.31 1672.49,1374.37C1672.49,1373.43 1671.27,1372.04 1668.75,1371.98C1666.23,1371.92 1664.03,1372.29 1663.95,1373.62Z" style="fill:rgb(1,2,2);fill-rule:nonzero;"/>
            </g>
        </g>
    </g>
</svg>
