<?xml version="1.0" encoding="UTF-8" standalone="no"?>
<!DOCTYPE svg PUBLIC "-//W3C//DTD SVG 1.1//EN" "http://www.w3.org/Graphics/SVG/1.1/DTD/svg11.dtd">
<svg width="100%" height="100%" viewBox="0 0 87 121" version="1.1" xmlns="http://www.w3.org/2000/svg" xmlns:xlink="http://www.w3.org/1999/xlink" xml:space="preserve" xmlns:serif="http://www.serif.com/" style="fill-rule:evenodd;clip-rule:evenodd;stroke-linejoin:round;stroke-miterlimit:1.41421;">
    <g transform="matrix(1,0,0,1,-422.617,-6.475)">
        <path d="M508.862,59.513C507.963,59.186 507.501,58.339 506.803,57.852C506.343,57.536 505.807,57.597 505.199,57.395C504.362,56.994 503.522,56.593 502.682,56.193C499.353,55.241 495.483,56.592 491.812,55.849C490.02,55.411 488.227,54.972 486.435,54.533C485.861,54.403 485.294,54.316 484.731,54.241C485.047,53.914 485.338,53.568 485.565,53.177C485.043,52.956 485.026,52.444 484.299,52.344C484.361,52.023 484.427,51.702 484.491,51.381C484.088,51.253 483.682,51.127 483.278,50.999C483.972,50.17 484.012,49.395 484.583,48.701C484.234,48.471 483.793,48.363 483.054,48.427L482.848,47.532C482.233,47.236 481.616,47.565 481.044,47.865C480.547,47.594 480.457,47.136 480.089,46.787C479.208,47.458 478.328,48.128 477.448,48.801C476.529,49.447 475.614,50.092 474.697,50.738C474.73,50.057 474.747,49.388 474.821,48.814C474.953,47.774 475.391,46.318 475.164,44.867C475.07,44.067 474.972,43.265 474.88,42.462C475.019,39.546 475.568,36.986 476.021,34.398C476.097,32.93 476.174,31.46 476.252,29.99C476.291,28.905 476.327,27.816 476.364,26.731C476.441,26.159 476.514,25.586 476.593,25.014C476.326,23.508 476.059,22.001 475.79,20.494C475.106,17.923 474.241,15.338 473.502,12.942C473.353,12.294 473.199,11.645 473.049,10.997C472.693,10.145 471.775,10.175 471.33,9.507C471.175,8.862 471.022,8.214 470.87,7.565C470.525,7.516 470.476,7.53 470.241,7.677C470.315,7.354 470.393,7.029 470.469,6.705C470.377,6.628 470.281,6.553 470.188,6.475C470.109,6.497 470.034,6.513 469.957,6.535C469.824,6.705 469.686,6.878 469.559,7.047C469.294,6.985 469.002,7.064 468.756,7.163C468.606,7.624 468.36,7.858 468.301,8.422C468.166,8.344 468.03,8.268 467.898,8.193C468.167,7.952 468.316,7.839 468.241,7.392C468.203,7.373 468.167,7.354 468.131,7.335C467.145,7.546 466.936,7.944 466.58,8.764C467.121,11.965 470.352,11.256 470.987,13.456C471.332,15.096 471.673,16.737 472.02,18.379C472.113,19.921 472.208,21.467 472.3,23.012C472.455,23.877 473.217,26.106 472.988,26.901C472.714,27.857 472.159,28.757 471.902,30.048C471.787,31.021 471.672,31.992 471.557,32.966L471.557,34.911C471.175,35.464 470.796,36.017 470.412,36.569C469.885,37.591 469.58,39.118 469.269,40.288L469.041,40.288C468.242,40.011 467.733,39.8 467.379,39.087C467.817,39.297 468.15,39.432 468.754,39.601C468.765,39.138 468.631,38.484 468.867,38.287C468.754,38.057 468.64,37.828 468.523,37.599C468.793,37.779 469.443,38.035 469.726,38.057C469.684,37.999 469.647,37.943 469.613,37.886C469.107,37.773 468.889,37.05 468.582,36.626L469.384,35.024C469.487,35.254 469.47,35.21 469.613,35.254C469.594,34.728 469.741,34.716 469.781,33.995C470.096,34.079 470.071,34.186 470.186,34.168C470.258,34.148 470.334,34.128 470.411,34.111L470.411,33.31C470.671,33.239 470.599,33.307 470.698,33.081C470.107,32.109 469.516,31.135 468.923,30.163C469.076,30.296 469.231,30.432 469.384,30.562L469.384,30.507C469.041,30.049 468.695,29.591 468.354,29.133L468.41,29.133C468.657,29.297 468.794,29.406 469.211,29.418C469.138,29.152 469.064,28.885 468.983,28.618C468.861,28.562 468.741,28.507 468.618,28.451C468.485,28.203 467.755,27.797 465.898,27.138C461.586,25.604 458.646,27.646 457.379,28.852C457.187,28.993 457.018,29.166 456.878,29.371C456.742,29.526 456.667,29.627 456.667,29.627L456.724,29.622C456.679,29.704 456.652,29.801 456.614,29.888C456.223,30.54 455.994,31.158 455.874,31.595C455.681,32.241 455.57,33.003 455.891,33.508C455.922,33.635 455.967,33.756 456.03,33.863C456.189,34.133 456.383,34.368 456.597,34.551C456.731,34.668 456.9,34.777 457.061,34.847C457.13,34.877 457.241,34.886 457.302,34.932C457.37,34.984 457.385,35.14 457.43,35.237C457.496,35.372 457.685,35.661 457.705,35.786C457.695,35.796 457.69,35.805 457.684,35.812C457.61,35.869 457.439,35.975 457.32,35.971C457.26,35.967 457.155,35.912 457.1,35.959C457.118,36.058 457.398,36.164 457.496,36.162C457.593,36.161 457.689,36.123 457.777,36.087C457.785,36.09 457.794,36.096 457.8,36.1C457.786,36.251 457.712,36.396 457.665,36.535C457.622,36.655 457.614,36.777 457.569,36.892C457.497,37.073 457.421,37.257 457.352,37.439C457.314,37.541 457.139,37.844 457.236,37.979C457.307,38.081 457.422,38.164 457.531,38.201C457.766,38.285 457.9,38.11 458.059,38.383C458.168,38.562 457.94,38.673 457.921,38.806C457.912,38.884 457.97,38.991 458.006,39.033C458.171,39.249 458.448,39.21 458.766,39.158L458.769,39.176C458.77,39.179 458.769,39.183 458.768,39.187C458.696,39.228 458.639,39.286 458.596,39.343C458.555,39.395 458.527,39.437 458.5,39.491C458.454,39.575 458.535,39.729 458.593,39.783C458.791,39.956 459.054,39.77 459.246,40.052C459.351,40.205 459.293,40.431 459.304,40.578C459.311,40.65 459.399,40.846 459.463,40.951C459.47,40.956 459.47,40.96 459.471,40.965C459.488,40.988 459.505,41.009 459.51,41.018C459.512,41.019 459.516,41.018 459.518,41.02C459.581,41.084 459.686,41.151 459.849,41.177C460.061,41.227 460.34,41.183 460.614,41.053C460.627,41.047 460.641,41.041 460.653,41.034C460.823,41.029 460.991,41.036 461.145,41.094C461.106,41.15 461.067,41.207 461.029,41.263C460.635,41.403 460.148,41.669 459.674,41.979C459.59,42.045 459.502,42.106 459.407,42.157C458.886,42.521 458.403,42.926 458.113,43.266C457.749,43.152 457.385,43.037 457.025,42.922C455.494,42.606 452.849,44.098 452.047,44.696C451.218,45.315 450.617,46.147 449.586,46.584C448.156,47.08 446.728,47.575 445.294,48.072C444.695,48.351 444.14,48.749 443.405,48.929C442.358,48.969 441.309,49.005 440.262,49.045C438.335,49.368 436.406,49.694 434.484,50.016L432.251,50.016C431.135,50.196 429.503,50.441 428.302,50.131C427.74,49.985 425.683,49.048 425.156,49.215C424.386,49.458 423.011,50.232 422.696,50.987C422.754,51.421 422.492,52.195 422.696,52.763L422.982,52.763C423.162,52.492 423.226,51.896 423.44,51.618C423.478,51.635 423.515,51.655 423.551,51.675C423.749,52.325 423.495,53.184 423.841,53.907L423.895,53.907C424.444,53.762 424.081,53.681 424.298,53.219C424.44,52.91 425.716,52.192 426.074,52.131C427.016,51.974 427.722,52.79 428.818,52.763C429.105,52.685 429.391,52.609 429.673,52.534C430.892,52.243 432.288,52.752 433.278,52.934C434.689,53.028 436.1,53.126 437.51,53.22C441.689,53.917 445.99,52.079 448.956,51.218C450.457,50.783 451.733,50.324 453.017,49.673C453.626,49.35 454.237,49.026 454.847,48.702C455.321,48.577 455.833,48.744 456.107,48.988C457.485,50.217 459.34,56.821 458.968,58.599C458.916,58.837 459.082,59.216 459.228,59.661C459.116,59.758 458.991,59.848 458.835,59.922L453.411,62.54C453.264,62.72 453.056,62.907 452.734,63.122C451.571,63.439 450.405,63.756 449.24,64.071C447.34,64.648 445.301,65.634 443.9,66.779C443.682,67.044 443.463,67.309 443.244,67.574C442.39,68.256 440.945,68.694 440.696,69.585C440.878,69.892 440.962,69.94 441.125,70.292L440.612,70.583L440.591,70.81C440.583,71.074 440.866,71.071 441.021,71.253C441.243,71.74 441.463,72.227 441.683,72.714C442.247,72.925 443.134,72.529 443.723,71.99C444.045,72.258 444.349,72.765 444.601,72.999C444.924,73.027 445.392,72.785 445.725,72.805C445.889,72.816 445.969,72.885 446.088,73.02C445.965,74.044 447.17,74.905 447.802,75.581C448.396,75.714 448.532,75.915 449.081,75.355C449.793,75.677 451.964,75.977 452.95,75.355C453.263,75.073 453.576,74.792 453.889,74.512C454.891,74.764 455.592,76.076 456.501,76.595C457.23,77.011 458.243,77.014 458.901,77.608C459.327,77.478 459.383,77.161 459.609,77.093L460.254,77.172C460.477,76.733 460.698,76.292 460.918,75.851C461.248,75.813 461.737,75.916 462.06,75.693L462.434,75.296C462.577,75.259 462.722,75.223 462.864,75.187C463.016,75.873 463.427,76.291 463.826,76.735C463.371,78.567 462.911,80.398 462.454,82.227C461.747,85.573 462.207,89.45 461.426,92.698C461.009,93.652 460.585,94.605 460.167,95.56C459.743,97.296 459.328,99.03 458.908,100.766C458.72,101.821 458.398,103.629 458.733,104.599C458.984,105.057 459.23,105.515 459.48,105.973C459.764,107.219 459.7,112.66 459.308,114.155C458.981,115.393 457.518,115.424 457.361,116.615C457.608,117.222 457.556,117.939 457.88,118.443C458.374,119.034 458.868,119.626 459.368,120.219C459.681,120.946 459.466,121.732 459.821,122.394C459.783,122.466 459.743,122.545 459.71,122.621C459.529,123.197 458.602,126.637 458.793,127.026C458.897,127.241 458.967,127.239 459.138,127.369C459.309,127.312 459.481,127.254 459.651,127.199C460.002,126.07 461.011,125.558 461.594,124.681C462.226,123.21 462.857,121.745 463.49,120.276C463.794,119.086 463.948,115.535 463.77,114.498C463.734,113.907 463.693,113.313 463.658,112.722C464.245,109.151 464.709,106.143 465.316,102.768C465.594,101.228 465.122,99.218 465.543,97.848C466.248,96.209 466.955,94.569 467.66,92.928C468.123,91.345 468.577,89.761 469.036,88.179C469.418,87.605 469.798,87.033 470.182,86.463C470.927,85.301 471.536,83.836 471.953,82.4C472.835,79.388 472.831,76.432 473.385,73.075C473.655,71.42 473.516,69.913 473.586,68.229C473.705,68.272 473.813,68.312 473.877,68.337C474.722,68.145 474.866,66.367 475.748,65.951C477.246,65.244 479.25,66.246 480.837,65.324C480.647,64.829 480.858,64.418 480.502,63.887C480.675,63.675 480.85,63.462 481.023,63.249C480.856,62.9 480.69,62.55 480.523,62.201C481.261,61.978 481.621,61.393 482.234,61.199C482.191,61.018 482.124,60.845 482.025,60.672C482.717,60.92 483.448,61.134 484.257,61.29C486.159,61.658 488.168,61.209 489.688,60.891C491.634,60.586 493.582,60.28 495.524,59.974C496.287,60.012 497.049,60.051 497.811,60.088C498.954,60.735 498.946,62.789 500.845,62.092C501.55,61.832 501.96,61.635 502.331,61.06C503.893,61.504 505.383,61.147 506.336,60.831C506.86,60.658 507.201,61.294 507.712,61.004C507.787,60.853 507.863,60.699 507.941,60.546C508.228,60.269 508.749,60.316 509.026,60.031C509.019,59.708 508.976,59.692 508.862,59.513Z" style="fill-rule:nonzero;"/>
    </g>
</svg>
