<?xml version="1.0" encoding="UTF-8" standalone="no"?>
<!DOCTYPE svg PUBLIC "-//W3C//DTD SVG 1.1//EN" "http://www.w3.org/Graphics/SVG/1.1/DTD/svg11.dtd">
<svg width="100%" height="100%" viewBox="0 0 21 37" version="1.1" xmlns="http://www.w3.org/2000/svg" xmlns:xlink="http://www.w3.org/1999/xlink" xml:space="preserve" xmlns:serif="http://www.serif.com/" style="fill-rule:evenodd;clip-rule:evenodd;stroke-linejoin:round;stroke-miterlimit:1.41421;">
    <g transform="matrix(1,0,0,1,-173.848,-14.0129)">
        <path d="M177.045,26.749C177.185,26.768 177.358,26.404 177.547,26.472C177.475,26.719 176.946,26.89 177.013,27.181C177.066,27.413 177.327,27.315 177.547,27.336C177.491,27.56 177.038,27.391 176.856,27.489C176.96,28.055 177.749,27.746 177.86,27.366C177.618,27.253 177.29,27.227 177.232,26.933C177.401,26.902 177.4,27.035 177.482,27.088C177.656,26.931 177.923,27.096 178.016,27.211C178.853,27.233 178.964,26.539 179.365,26.131C179.154,26.736 178.79,27.19 178.11,27.336C178.039,27.368 177.996,27.43 177.985,27.521C178.055,27.628 178.043,27.396 178.173,27.459C178.282,27.455 178.224,27.615 178.33,27.614C178.638,27.568 178.719,27.713 179.021,27.614C179.125,27.604 179.139,27.683 179.209,27.705C179.282,27.733 179.345,27.599 179.366,27.675C179.702,27.832 180.016,27.765 180.277,28.015C181.112,28.14 181.653,27.829 182.442,27.861C182.51,27.794 182.522,27.672 182.599,27.614C183.03,27.575 183.287,27.365 183.634,27.242C183.917,27.367 184.103,27.584 184.356,27.737C184.394,27.94 184.539,28.189 184.795,28.078C184.582,27.586 184.79,26.849 184.324,26.533C184.576,26.442 184.793,26.316 185.109,26.286C184.928,25.919 185.028,25.273 184.952,24.804C185.063,24.701 185.175,24.454 185.391,24.556C185.399,24.277 185.59,24.176 185.736,24.031C185.848,24.015 185.813,24.139 185.924,24.123C186.025,24.017 186.025,23.812 186.112,23.691C186.201,23.665 186.306,23.655 186.395,23.63C186.454,23.695 186.446,23.827 186.52,23.876C186.651,23.665 186.741,23.415 187.054,23.381C187.079,22.987 186.72,22.97 186.551,22.765C186.494,22.423 186.52,22.362 186.583,22.053C186.496,21.915 186.429,22.134 186.331,22.053C186.256,21.876 186.378,21.791 186.394,21.622C186.07,21.364 185.788,21.066 185.547,20.727C185.486,21.201 185.044,21.3 184.699,21.498C184.61,21.308 184.334,21.302 184.103,21.251C184.421,21.007 184.884,20.908 184.981,20.449C184.751,20.652 184.376,21.015 184.071,20.942C184.061,20.732 184.556,20.764 184.605,20.51C184.425,20.465 184.185,20.607 183.945,20.604C183.935,20.529 183.896,20.486 183.914,20.386C184.147,20.337 184.455,20.364 184.605,20.232C184.392,20.267 184.13,20.247 183.852,20.201C183.769,19.87 183.875,19.634 183.852,19.306C183.882,19.252 183.951,19.238 184.008,19.212C184.187,18.545 184.837,18.339 185.107,17.762C184.44,17.784 184.258,18.553 183.883,18.966C183.9,19.146 183.746,19.293 183.632,19.245C183.912,18.711 184.155,18.175 184.543,17.824C184.624,17.749 184.852,17.561 184.982,17.516C185.216,17.43 185.499,17.581 185.767,17.516C186.038,17.447 186.347,16.889 186.457,16.619C186.534,16.624 186.608,16.624 186.645,16.589C186.432,16.18 186.612,15.681 186.52,15.292C186.481,15.129 186.32,15.035 186.3,14.861C186.251,14.43 186.541,14.081 186.771,14.027C187.235,13.914 187.598,14.513 188.059,14.584C188.584,14.521 189.189,14.422 189.659,14.645C189.841,14.73 190.087,14.961 190.381,15.107C190.532,15.183 190.718,15.203 190.851,15.292C191.005,15.396 191.242,15.618 191.385,15.755C191.494,15.86 191.567,16.007 191.605,16.188C191.673,16.253 191.841,16.221 191.919,16.281C192.436,16.585 192.513,17.321 192.891,17.763C192.993,17.743 193.037,17.784 193.111,17.794C193.441,18.092 193.618,18.445 193.77,18.874C193.816,19.006 193.931,19.136 193.958,19.307C194.007,19.605 193.913,19.916 193.958,20.233C194.023,20.687 194.261,21.138 194.241,21.592C194.171,21.748 193.976,21.784 194.021,22.054C193.403,22.507 193.068,21.68 192.546,21.56C192.387,21.703 192.386,21.999 192.201,22.117C192.337,22.243 192.594,21.934 192.609,22.209C192.714,22.209 192.717,22.108 192.829,22.117C193.177,22.564 193.733,23.039 193.519,23.846C193.473,23.881 193.391,23.885 193.362,23.938C193.381,24.31 193.515,24.57 193.644,24.833C193.662,25.362 194.016,25.912 194.052,26.655C194.065,26.905 194.056,27.282 194.021,27.582C193.984,27.905 193.857,28.211 194.021,28.538C194.054,28.375 194.167,28.291 194.241,28.169C194.464,28.395 194.724,28.87 194.46,29.218C194.329,29.234 194.247,29.2 194.178,29.157C194.366,29.486 194.491,29.876 194.68,30.207C194.671,30.582 194.465,30.637 194.115,30.761C193.697,30.911 193.214,31.114 192.672,30.978C192.49,31.092 192.648,31.248 192.641,31.41C192.625,31.757 192.411,32.103 192.484,32.584C192.515,32.697 192.599,32.758 192.609,32.892C192.643,33.008 192.544,32.993 192.516,33.047C192.84,33.547 193.516,34.123 193.489,35.055C193.472,35.651 193.924,36.27 193.803,36.908C193.745,37.209 193.386,37.549 193.238,37.865C193.114,38.128 192.998,38.557 192.673,38.636C192.433,38.696 192.152,38.475 192.014,38.761C192.145,38.962 192.217,39.221 192.297,39.471C192.313,39.58 192.185,39.547 192.202,39.656C192.167,39.958 192.328,40.201 192.36,40.459C192.421,40.983 192.059,41.383 192.014,41.88C191.963,41.887 191.96,41.851 191.92,41.848C191.817,42.286 192.053,42.424 192.296,42.651C192.134,42.893 192.063,43.307 192.359,43.453C192.201,44.381 192.229,45.331 192.39,46.265C192.308,46.431 192.248,46.62 192.265,46.883C192.259,46.96 192.336,46.957 192.36,47.007C192.278,47.157 192.382,47.451 192.202,47.562C192.266,48.054 192.759,48.223 192.704,48.735C192.532,48.771 192.338,48.787 192.233,48.89C191.712,48.983 191.294,49.134 190.883,49.353C190.503,49.556 190.187,49.892 189.785,50.032C189.129,50.26 188.565,50.262 187.84,50.278C187.657,50.025 187.148,49.854 187.087,49.569C186.992,49.123 187.382,49.234 187.651,49.168C188.006,49.081 188.19,48.688 188.373,48.489C188.37,48.431 188.269,48.467 188.279,48.396C188.011,48.74 187.354,48.447 186.961,48.612C186.897,48.583 186.836,48.549 186.772,48.519C186.293,48.626 185.923,48.718 185.423,48.766C185.011,48.805 184.509,48.986 184.073,48.952C183.871,48.935 183.605,48.831 183.383,48.766C182.805,48.597 182.345,48.293 182.724,47.655C182.953,47.549 183.165,47.736 183.383,47.717C183.614,47.695 183.735,47.464 183.98,47.44C183.982,47.308 184.032,47.224 184.011,47.068C184.395,47.014 184.488,46.673 184.859,46.606C184.839,46.439 184.79,46.301 184.734,46.173C184.851,45.926 184.988,45.702 185.173,45.525C185.543,44.66 185.103,43.499 185.016,42.621C184.538,42.711 184.263,43.015 183.762,42.776C184.228,41.724 183.913,40.288 184.42,39.286C184.394,38.737 184.289,38.102 184.389,37.495C184.444,37.166 184.578,36.95 184.546,36.539C184.505,36.021 184.502,35.447 184.577,34.964C184.589,34.891 184.643,34.792 184.64,34.715C184.627,34.405 184.473,34.154 184.452,33.696C184.423,33.085 184.203,32.182 184.358,31.691C184.525,31.16 184.653,30.765 184.892,30.362C184.834,30.286 184.704,30.279 184.703,30.145C184.129,30.556 183.383,30.26 182.789,30.578C182.484,30.186 182.445,29.642 182.287,29.066C182.171,28.934 181.826,29.024 181.722,28.88C181.745,28.635 181.884,28.504 181.91,28.262C181.61,28.219 180.461,28.248 180.937,28.849C180.937,28.953 180.858,28.977 180.811,29.035C180.913,29.569 180.396,29.923 180.529,30.424C180.572,30.589 180.744,30.658 180.779,30.887C180.631,31.272 180.073,31.309 179.493,31.381C178.862,31.459 178.434,31.672 177.83,31.566C177.739,31.55 177.667,31.464 177.578,31.443C177.128,31.33 176.703,31.397 176.418,31.164C176.298,31.137 176.217,31.216 176.166,31.164C176.327,30.234 176.288,29.352 176.26,28.448C176.234,28.291 176.138,28.535 176.072,28.417C176.236,28.157 176.575,28.069 176.825,27.892C176.481,27.551 175.97,27.375 175.538,27.121C174.989,27.17 174.626,26.788 174.22,26.595C174.053,26.885 173.992,27.3 174.063,27.583C174.161,27.969 174.748,28.288 175.067,28.231C175.358,28.18 175.421,27.839 175.788,27.954C175.547,28.446 174.805,28.469 174.282,28.231C174.017,27.771 173.657,27.299 173.968,26.625C174.064,26.419 174.283,26.146 174.439,25.885C174.715,25.423 175.036,25.106 175.506,24.896C175.149,25.308 174.64,25.568 174.471,26.163C174.729,26.241 174.936,26.487 175.255,26.41C175.513,26.631 175.823,26.798 176.102,26.997C176.215,26.834 175.995,26.896 176.008,26.75C176.181,26.76 176.215,26.677 176.258,26.503C176.483,26.631 176.124,26.951 176.321,27.212C176.465,27.402 176.681,27.259 176.855,27.398C176.554,27.094 176.903,26.658 177.137,26.503C177.233,26.609 177.092,26.685 177.045,26.749ZM184.575,18.998C184.553,18.928 184.632,18.757 184.512,18.783C184.49,18.854 184.433,19.014 184.575,18.998ZM184.513,19.493C184.558,19.399 184.545,19.282 184.45,19.247C184.393,19.31 184.398,19.503 184.513,19.493ZM184.544,20.047C184.506,19.868 184.473,19.685 184.356,19.586C184.365,19.665 184.344,19.718 184.262,19.709C184.134,19.633 184.373,19.48 184.23,19.493C183.944,19.659 184.144,20.281 184.544,20.047ZM184.952,19.895C185.001,19.847 185.008,19.683 184.889,19.709C184.822,19.775 184.877,19.876 184.952,19.895ZM185.14,20.326C185.133,20.384 185.176,20.395 185.172,20.451C185.26,20.453 185.262,20.375 185.266,20.296C185.211,20.292 185.168,20.302 185.14,20.326ZM184.732,20.944C184.688,21.036 184.587,21.195 184.669,21.315C185.016,21.327 185.063,21.094 185.077,20.85C185.216,20.844 185.279,20.76 185.297,20.636C184.951,20.583 185.043,20.961 184.732,20.944ZM191.949,22.642C192.023,22.672 192.103,22.697 192.2,22.703C192.265,22.645 192.32,22.574 192.358,22.487C192.094,22.561 192.129,22.342 191.949,22.334C191.949,22.436 191.949,22.539 191.949,22.642ZM187.337,23.724C187.156,23.872 186.906,24.461 187.306,24.557C187.447,24.345 187.723,24.266 188.028,24.218C188.029,24.031 187.923,23.948 187.902,23.786C187.663,23.847 187.525,23.782 187.337,23.724ZM188.152,24.248C187.982,24.743 187.376,25.066 187.274,25.73C187.16,25.926 186.904,25.984 186.835,26.223C186.951,26.243 186.962,26.366 187.086,26.377C187.227,26.167 187.366,25.953 187.556,25.791C187.607,24.73 188.856,24.848 189.251,24.124C188.822,24.112 188.567,24.429 188.152,24.248ZM174.283,26.44C174.439,26.399 174.416,26.535 174.534,26.533C174.543,26.417 174.337,26.305 174.283,26.44ZM188.341,47.776C188.346,47.896 188.411,47.956 188.498,47.991C189.086,47.614 188.909,46.555 188.687,45.954C188.513,46.468 189.031,47.533 188.341,47.776Z"/>
    </g>
</svg>
