<?xml version="1.0" encoding="UTF-8" standalone="no"?>
<!DOCTYPE svg PUBLIC "-//W3C//DTD SVG 1.1//EN" "http://www.w3.org/Graphics/SVG/1.1/DTD/svg11.dtd">
<svg width="100%" height="100%" viewBox="0 0 23 42" version="1.1" xmlns="http://www.w3.org/2000/svg" xmlns:xlink="http://www.w3.org/1999/xlink" xml:space="preserve" xmlns:serif="http://www.serif.com/" style="fill-rule:evenodd;clip-rule:evenodd;stroke-linejoin:round;stroke-miterlimit:1.41421;">
    <g transform="matrix(1,0,0,1,-359.489,-199.026)">
        <path d="M362.779,199.026C362.924,199.03 362.881,199.238 362.845,199.327C362.947,200.15 362.982,200.823 363.116,201.561C363.173,201.879 363.11,202.212 363.149,202.529C363.204,202.963 363.506,203.355 363.487,203.797C363.284,203.974 363.217,204.264 363.286,204.631C363.554,205.058 363.942,204.949 364.505,204.93C364.296,204.432 364.984,204.428 365.353,204.296C365.355,203.967 365.021,203.794 365.083,203.529C365.138,203.287 365.478,203.349 365.591,203.095C366.044,203.348 366.532,203.749 366.505,204.363C366.591,204.447 366.693,204.511 366.776,204.596C366.975,204.376 366.686,203.951 366.809,203.697C367.045,203.698 367.465,203.437 367.725,203.495C367.924,203.541 367.879,203.73 368.065,203.829C368.235,203.795 368.401,203.852 368.606,203.797C368.643,203.971 368.801,204.027 368.944,204.097C369.184,203.918 368.897,203.401 369.081,203.096C369.778,202.814 370.22,203.322 370.503,203.662C370.626,203.584 370.622,203.377 370.741,203.297C371.046,203.239 371.286,203.182 371.589,203.229C371.708,203.491 371.663,203.912 371.894,204.063C372.415,204.207 373.281,204.159 373.826,203.963C373.791,203.731 373.738,203.516 373.656,203.329C373.301,203.361 372.804,203.305 372.775,203.029C372.738,202.671 373.351,202.6 373.453,202.26C373.478,201.925 373.346,201.745 373.351,201.428C373.458,201.325 373.64,201.24 373.79,201.362C374.052,199.951 374.962,199.037 376.536,199.026C376.727,199.155 377.001,199.047 377.214,199.094C377.384,199.131 377.484,199.259 377.79,199.259C378.038,199.262 378.265,199.165 378.503,199.227C378.769,199.296 378.937,199.556 379.247,199.496C379.306,199.688 379.528,199.8 379.417,200.06C379.423,200.135 379.56,200.075 379.622,200.094C379.602,200.143 379.571,200.178 379.554,200.227C379.611,200.405 379.835,200.478 379.757,200.693C380.075,201.019 380.173,201.796 379.925,202.361C379.821,202.603 379.57,202.767 379.519,202.996C379.435,203.382 379.707,203.523 379.892,203.797C379.566,204.052 379.423,204.488 378.976,204.631C378.949,204.912 378.751,205.03 378.775,205.364C378.98,205.596 379.556,205.299 379.791,205.53C379.846,206.144 379.861,206.794 379.859,207.465C379.986,207.678 380.172,208.17 380.062,208.4C380.253,208.632 380.367,208.942 380.402,209.334C380.343,209.334 380.289,209.334 380.232,209.334C380.216,209.425 380.359,209.364 380.367,209.433C380.195,209.727 380.426,210.215 380.638,210.433C380.484,210.718 380.607,211.01 380.57,211.3C380.549,211.469 380.42,211.609 380.367,211.769C380.224,212.207 380.092,212.622 379.892,213.068C379.718,213.46 379.542,213.867 379.349,214.27C378.869,215.283 378.372,216.185 378.232,217.305C378.25,217.421 378.111,217.386 378.128,217.504C378.142,217.719 378.159,217.794 378.062,217.939C378.062,218.083 378.222,218.071 378.265,218.17C378.117,218.421 378.277,219.043 378.638,219.105C378.611,219.193 378.742,219.288 378.638,219.339C378.806,219.366 378.755,219.53 378.843,219.638C378.921,219.736 379.044,219.767 379.113,219.871C379.191,219.994 379.15,220.216 379.316,220.305C379.591,221.891 379.029,223.276 378.74,225.007C379.32,224.974 379.898,224.969 380.164,225.442C380.141,225.688 380.227,225.823 380.332,225.941C380.18,226.186 380.391,226.314 380.402,226.575C380.865,227.022 381.109,226.414 381.349,226.275C381.427,226.524 381.624,226.829 381.587,227.109C381.558,227.328 381.29,227.447 381.349,227.642C380.958,227.798 380.49,228.092 379.824,228.008C379.623,228.119 379.664,228.343 379.453,228.375C379.152,228.422 378.826,227.968 378.605,227.841C378.361,228.054 378.435,228.671 378.47,228.909C378.204,229.509 378.704,229.999 378.503,230.643C377.874,230.632 377.327,230.27 376.774,230.076C376.866,230.497 376.958,231.205 377.315,231.476C377.29,232.092 377.661,232.764 377.825,233.445C378.024,234.282 378.241,235.191 378.264,236.212C378.276,236.713 378.18,237.149 378.162,237.679C378.141,238.342 378.158,238.983 378.094,239.648C377.522,239.919 376.68,239.921 376.061,240.149C376.151,239.917 376.061,239.706 376.061,239.482C375.663,239.569 375.448,239.833 375.079,239.949C375.04,239.987 375.042,240.067 375.046,240.149C373.942,240.13 372.567,240.45 371.792,239.982C371.61,239.816 371.388,239.689 371.216,239.515C371.577,239.153 372.126,239.14 372.605,239.081C372.976,239.034 373,238.84 373.216,238.614C373.489,238.328 373.849,238.082 374.165,237.88C374.3,237.425 374.704,237.231 374.808,236.745C374.314,236.53 373.954,237.179 373.622,237.214C373.526,237.224 373.347,237.253 373.317,237.08C373.131,237.264 372.817,237.237 372.434,237.214C371.59,237.156 370.52,237.027 369.961,236.745C369.875,236.593 369.965,236.36 370.029,236.246C371.236,235.956 372.509,235.729 372.773,234.512C372.679,233.965 372.464,233.483 372.334,232.946C372.23,232.527 372.248,232.049 372.096,231.643C372.008,231.415 371.797,231.257 371.725,231.044C371.493,230.38 371.491,229.732 371.352,229.043C371.295,228.77 371.196,228.495 371.147,228.209C371.09,227.875 371.143,227.504 371.012,227.176C370.805,226.652 370.121,226.335 369.961,225.707C369.754,224.881 369.912,223.932 369.893,222.974C369.889,222.766 369.532,222.476 369.317,222.24C368.565,221.414 368.003,220.434 367.657,219.173C367.339,219.183 366.977,219.524 366.708,219.273C366.692,219.124 366.905,219.201 366.946,219.106C366.942,219.058 366.94,219.012 366.979,219.006C366.739,216.97 367.077,215.165 368.573,214.569C368.593,214.112 368.829,213.867 369.081,213.635C367.987,212.545 366.628,211.714 365.556,210.602C365.607,210.141 366.349,209.967 366.335,209.499C366.327,209.214 365.81,208.936 365.692,208.668C365.501,208.229 365.686,207.645 365.555,207.265C365.463,206.994 364.828,206.349 364.641,206.299C364.528,206.269 364.375,206.324 364.268,206.333C363.125,206.4 361.631,206.273 360.844,206.932C360.629,207.208 360.451,207.525 360.268,207.832C359.932,207.652 359.989,207.087 359.93,206.698C359.823,205.999 359.494,205.024 359.557,204.364C359.746,204.355 359.797,204.484 359.93,204.532C360.059,204.524 359.951,204.285 360.032,204.229C360.434,204.468 360.702,204.837 361.083,205.097C361.323,205.122 361.46,205.047 361.692,205.063C361.645,204.955 361.514,204.929 361.454,204.831C360.956,203.1 360.28,201.542 359.626,199.962C359.593,199.868 359.536,200.01 359.489,199.93C359.69,199.513 360.137,199.345 360.608,199.196C361.172,199.041 361.426,199.521 361.794,199.498C362.036,199.478 362.136,199.193 362.37,199.097C362.512,199.035 362.65,199.161 362.779,199.026ZM372.674,205.097C372.391,205.387 372.506,206.066 372.063,206.199C371.954,206.656 371.532,206.808 371.319,207.166C371.387,207.232 371.594,207.161 371.624,207.265C371.573,207.612 371.612,208.043 371.794,208.333C371.47,208.599 371.823,208.853 371.896,209.168C371.943,209.372 371.796,209.553 371.998,209.634C372.404,209.056 372.549,208.219 373.117,207.799C373.596,207.7 373.314,207.313 373.219,206.999C373.34,206.788 373.543,206.802 373.793,206.767C374.395,206.679 374.856,206.303 375.285,206.032C374.756,205.851 373.98,205.854 373.998,205.232C374.002,205.059 374.24,204.961 374.1,204.699C373.691,204.898 373.199,205.015 372.674,205.097ZM361.762,205.063C361.961,205.136 362.127,205.041 362.371,205.063C362.373,204.678 361.854,204.942 361.762,205.063ZM367.625,207.897C367.719,208.049 367.822,208.192 367.996,208.264C368.057,208.764 368.502,209.054 368.81,209.198C368.765,208.631 368.484,208.295 368.472,207.698C368.706,207.506 369.189,207.558 369.421,207.364C369.314,206.768 369.085,206.293 368.845,205.829C367.631,205.729 367.842,207.119 367.625,207.897Z"/>
    </g>
</svg>
