<?xml version="1.0" encoding="UTF-8" standalone="no"?>
<!DOCTYPE svg PUBLIC "-//W3C//DTD SVG 1.1//EN" "http://www.w3.org/Graphics/SVG/1.1/DTD/svg11.dtd">
<svg width="100%" height="100%" viewBox="0 0 54 49" version="1.1" xmlns="http://www.w3.org/2000/svg" xmlns:xlink="http://www.w3.org/1999/xlink" xml:space="preserve" xmlns:serif="http://www.serif.com/" style="fill-rule:evenodd;clip-rule:evenodd;stroke-linejoin:round;stroke-miterlimit:1.41421;">
    <g transform="matrix(1,0,0,1,-186.613,-248.606)">
        <path d="M201.823,249.258C201.806,249.684 201.901,250.263 201.447,250.409C201.394,250.466 201.409,250.594 201.321,250.615C201.132,250.654 201.042,250.511 200.904,250.532C200.789,250.55 200.751,250.71 200.612,250.738C200.448,250.77 200.391,250.659 200.194,250.717C200,250.861 200.143,251.197 200.257,251.334C200.392,251.334 200.557,251.195 200.737,251.17C200.897,251.238 201.069,251.188 201.196,251.233C201.288,251.264 201.552,251.495 201.573,251.643C201.594,251.8 201.516,251.974 201.49,252.198C201.459,252.44 201.465,252.622 201.406,252.753C201.297,252.992 201.075,253.091 200.967,253.228C200.994,253.356 201.257,253.55 201.113,253.782C201.248,254.051 201.47,254.382 201.342,254.709C201.294,254.831 201.228,254.897 201.113,254.996C201.08,255.138 201.177,255.201 201.196,255.345C201.217,255.497 201.144,255.661 201.175,255.839C201.192,255.933 201.272,255.996 201.342,256.085C201.407,256.168 201.439,256.271 201.489,256.332C201.595,256.466 201.815,256.571 201.823,256.703C201.83,256.81 201.661,256.898 201.635,257.032C201.608,257.169 201.681,257.489 201.718,257.669C201.746,257.8 201.864,257.911 201.864,258.019C201.867,258.484 201.246,258.244 200.966,258.47C201.189,258.987 201.503,259.41 201.864,259.787C202.104,259.7 202.285,259.868 202.471,259.85C202.657,259.829 202.75,259.569 202.931,259.459C203.056,259.381 203.146,259.399 203.264,259.314C203.419,259.069 203.272,258.721 203.285,258.389C203.288,258.288 203.338,258.201 203.347,258.1C203.381,257.735 203.279,257.343 203.306,256.97C203.318,256.772 203.302,256.555 203.306,256.373C203.308,256.194 203.311,255.835 203.41,255.592C203.534,255.287 203.779,255.076 204.079,254.852C204.299,254.769 204.477,254.753 204.789,254.729C205.187,254.698 205.71,254.689 206.042,254.708C206.117,254.712 206.201,254.745 206.272,254.729C206.597,254.657 206.647,254.196 207.023,254.297C207.26,254.235 207.523,253.996 207.859,253.968C208.032,253.952 208.238,254.011 208.445,254.029C208.859,254.066 209.348,254.001 209.656,254.071C210.102,254.171 210.31,254.573 210.637,254.709C212.055,254.688 213.488,254.711 214.776,254.73C215.082,254.733 215.435,254.713 215.904,254.73C216.194,254.74 216.575,254.782 216.782,254.73C216.894,254.702 216.955,254.575 217.053,254.503C217.27,254.344 217.54,254.248 217.743,254.112C218.455,254.223 219.054,253.883 219.644,254.029C219.829,254.074 220.045,254.252 220.271,254.337C220.387,254.383 220.51,254.374 220.604,254.421C220.81,254.519 220.847,254.691 221.107,254.73C221.396,254.771 221.706,254.728 221.942,254.73C222.239,254.73 222.511,254.691 222.778,254.709C223.204,254.736 223.546,255.012 223.78,255.244C224.088,255.547 224.144,255.905 224.135,256.517C224.124,257.371 224.213,258.288 224.218,259.211C224.581,259.333 224.822,259.575 225.097,259.786C225.255,259.828 225.38,259.724 225.556,259.705C225.638,259.695 225.741,259.738 225.786,259.726C225.844,259.706 226.038,259.477 226.141,259.355C226.243,259.233 226.406,259.042 226.454,258.965C226.497,258.892 226.495,258.785 226.537,258.718C226.584,258.642 226.756,258.563 226.746,258.49C226.718,258.282 226.194,258.4 226.014,258.347C225.905,258.314 225.864,258.226 225.785,258.161C225.801,257.806 225.979,257.452 225.89,257.174C225.891,257.093 225.941,257.061 225.972,257.01C225.901,256.922 225.819,256.845 225.764,256.743C225.875,256.358 226.376,256.261 226.474,255.857C226.512,255.707 226.443,255.554 226.454,255.405C226.467,255.234 226.579,255.171 226.621,255.013C226.595,254.936 226.429,254.996 226.392,254.931C226.331,254.76 226.267,254.563 226.307,254.398C226.355,254.195 226.545,254.013 226.579,253.76C226.606,253.551 226.567,253.359 226.746,253.226C226.669,252.982 226.377,252.993 226.265,252.793C226.229,252.73 226.258,252.647 226.223,252.546C226.185,252.442 226.106,252.383 226.098,252.299C226.072,252.08 226.202,251.845 226.098,251.581C226.287,251.133 227.041,251.133 227.518,251.292C227.65,251.156 227.626,250.92 227.56,250.737C227.222,250.801 227.039,250.736 226.87,250.551C226.671,250.594 226.523,250.666 226.328,250.572C226.17,250.496 226.148,250.426 226.077,250.304C225.746,249.741 225.86,248.642 226.746,248.741C226.931,248.762 227.071,248.925 227.288,248.886C227.489,248.85 227.577,248.654 227.768,248.618C228,248.577 228.235,248.649 228.353,248.763C228.441,248.848 228.47,248.995 228.561,249.091C228.666,249.201 228.823,249.267 228.937,249.38C229.059,249.499 229.154,249.611 229.251,249.728C229.114,250.05 229.398,250.066 229.523,250.222C229.624,250.351 229.585,250.477 229.69,250.592C229.68,250.776 229.512,250.906 229.564,251.087C229.664,251.111 229.819,250.997 229.962,251.003C230.084,251.009 230.306,251.136 230.484,251.127C230.667,251.117 230.803,251.022 230.944,251.025C231.039,251.025 231.167,251.046 231.236,251.087C231.305,251.125 231.323,251.201 231.382,251.272C231.522,251.438 231.846,251.57 231.884,251.848C231.907,252.016 231.78,252.146 231.801,252.341C232.123,252.464 232.404,252.492 232.656,252.67C232.762,252.742 232.848,252.857 232.969,252.895C233.09,253.193 233.359,253.483 233.177,253.922C233.13,254.038 233.015,254.157 232.948,254.294C232.799,254.6 232.686,254.954 232.405,255.097C232.263,255.068 232.176,255.085 232.051,255.117C232.068,255.362 232.056,255.485 231.966,255.692C232.051,255.931 232.243,256.055 232.134,256.349C232.089,256.472 231.703,257.011 231.571,257.07C231.491,257.106 231.391,257.081 231.32,257.111C231.208,257.159 231.025,257.369 231.006,257.44C230.977,257.554 231.069,257.661 231.048,257.748C230.807,257.983 230.78,258.432 230.526,258.652C230.588,259.02 230.558,259.433 230.568,259.885C230.902,260.079 231.256,260.293 231.591,260.525C231.676,260.583 231.779,260.715 231.863,260.73C232.098,260.766 232.399,260.534 232.699,260.564C232.918,260.589 233.383,260.83 233.534,260.975C233.773,261.204 233.828,261.683 233.889,262.148C233.938,262.534 234.002,263.004 234.036,263.341C234.048,263.477 234.021,263.701 234.056,263.897C234.129,264.306 234.11,264.959 234.077,265.48C234.063,265.716 234.1,265.959 234.077,266.199C234.058,266.397 233.989,266.597 233.973,266.796C233.902,267.705 234.227,268.852 233.827,269.428C233.506,269.889 232.947,270.1 232.636,270.496C232.336,270.64 231.973,270.723 231.82,271.011C231.962,271.24 232.051,271.491 232.134,271.751C232.213,271.998 232.347,272.239 232.406,272.491C232.426,272.574 232.408,272.674 232.426,272.759C232.451,272.864 232.534,272.972 232.552,273.088C232.561,273.145 232.528,273.197 232.532,273.253C232.547,273.464 232.724,273.724 232.782,273.972C232.882,274.397 232.928,274.922 233.012,275.309C233.042,275.445 233.146,275.562 233.179,275.68C233.238,275.884 233.218,276.108 233.284,276.317C233.344,276.507 233.44,276.682 233.492,276.873C233.543,277.052 233.569,277.242 233.617,277.428C233.667,277.621 233.762,277.814 233.805,278.004C233.839,278.149 233.832,278.294 233.868,278.435C233.981,278.869 234.117,279.352 234.286,279.791C234.335,279.921 234.409,280.028 234.454,280.164C234.596,280.59 234.758,280.978 234.891,281.375C235.478,283.113 236.336,284.758 236.856,286.476C236.914,286.668 236.994,286.867 237.085,287.091C237.113,287.157 237.182,287.206 237.211,287.278C237.269,287.416 237.296,287.567 237.357,287.711C237.412,287.841 237.493,287.969 237.545,288.101C237.935,289.097 238.352,290.082 238.819,291.02C238.963,291.309 239.14,291.576 239.279,291.864C239.697,292.726 240.133,293.565 240.533,294.393C240.476,294.494 240.383,294.478 240.491,294.619C240.37,294.535 240.357,294.819 240.198,294.824C240.168,294.87 240.184,294.961 240.136,294.99C240.015,295.064 239.871,295.099 239.739,295.134C239.467,295.202 239.147,295.287 238.778,295.299C238.416,295.31 238.129,295.049 237.775,295.175C237.652,295.219 237.503,295.307 237.379,295.38C237.103,295.543 236.831,295.801 236.522,295.935C236.234,296.061 235.947,295.986 235.582,296.058C235.375,296.021 234.746,295.88 234.391,295.935C234.244,295.957 234.062,296.086 233.89,296.162C233.708,296.244 233.514,296.284 233.348,296.347C232.994,296.482 232.698,296.742 232.427,296.862C231.737,297.115 230.991,296.896 230.255,296.985C230.047,297.01 229.844,296.994 229.629,297.006C229.167,297.029 228.794,297.29 228.271,297.213C227.898,297.156 227.559,297.068 227.08,297.048C226.938,297.041 226.762,297.015 226.642,297.027C226.419,297.05 226.124,297.25 225.827,297.274C225.547,297.295 225.318,297.211 225.032,297.17C225.013,296.918 225.205,296.874 225.347,296.78C224.95,296.712 224.645,296.552 224.323,296.409C223.815,296.765 223.474,297.245 222.714,297.274C222.017,297.299 221.318,297.253 220.583,297.253C220.264,297.253 219.938,297.293 219.621,297.294C219.239,297.294 218.86,297.246 218.493,297.253C217.732,297.267 216.908,297.305 216.112,297.316C215.863,297.319 215.606,297.274 215.338,297.274C215.077,297.274 214.803,297.327 214.545,297.316C214.122,297.294 213.724,297.28 213.291,297.274C212.511,297.261 211.758,297.282 211.035,297.274C210.951,297.272 210.868,297.317 210.784,297.316C210.514,297.307 210.242,297.272 209.97,297.274C209.73,297.275 209.492,297.351 209.301,297.253C208.537,297.253 207.745,297.32 206.835,297.274C206.546,297.257 206.028,297.25 205.603,297.253C205.137,297.256 204.635,297.301 204.245,297.213C203.734,297.093 203.451,296.696 203.159,296.328C202.678,296.478 202.374,296.803 201.759,296.82C201.84,296.961 202.101,296.923 202.072,297.17C201.443,297.559 200.899,297.056 200.317,297.006C199.837,296.964 199.361,297.217 198.833,297.253C198.753,297.258 198.658,297.219 198.562,297.213C198.457,297.204 198.345,297.228 198.269,297.213C198.201,297.198 198.14,297.131 198.061,297.109C197.96,297.083 197.837,297.117 197.748,297.088C197.676,297.068 197.637,296.993 197.559,296.964C197.407,296.91 196.789,296.89 196.577,296.925C196.49,296.939 196.422,297.002 196.327,297.028C196.074,297.092 195.756,297.056 195.429,297.028C194.95,296.986 194.537,296.981 194.302,296.677C193.618,296.522 193.219,296.084 192.547,295.916C192.141,296.019 191.728,296.043 191.209,296.019C191.015,296.011 190.794,296.042 190.666,296.019C190.526,295.996 190.177,295.839 190.062,295.731C189.987,295.664 189.973,295.545 189.894,295.463C189.76,295.329 189.49,295.165 189.329,295.114C188.771,294.94 188.383,295.333 187.763,295.196C187.687,295.18 187.584,295.093 187.471,295.052C186.882,294.838 186.365,294.494 186.74,293.923C186.828,293.787 186.982,293.688 187.074,293.551C187.12,293.481 187.145,293.374 187.199,293.284C187.244,293.207 187.329,293.134 187.366,293.057C187.478,292.826 187.539,292.559 187.658,292.317C187.744,292.143 187.877,291.978 187.972,291.803C188.069,291.624 188.128,291.424 188.222,291.248C188.574,290.597 188.86,289.954 189.141,289.293C189.438,288.597 189.813,287.941 190.081,287.236C190.267,286.752 190.504,286.295 190.686,285.817C190.781,285.573 190.843,285.347 190.958,285.119C191.145,284.747 191.374,284.386 191.479,283.907C191.67,283.696 191.732,283.393 191.834,283.126C192.034,282.604 192.287,282.06 192.503,281.48C192.614,281.185 192.664,280.881 192.753,280.576C192.811,280.385 192.917,280.207 192.983,280.02C193.02,279.917 193.007,279.792 193.046,279.69C193.118,279.495 193.259,279.331 193.317,279.136C193.402,278.847 193.434,278.54 193.505,278.252C193.562,278.02 193.663,277.792 193.755,277.572C193.926,276.755 194.193,275.979 194.382,275.085C194.49,274.571 194.753,273.974 194.863,273.419C194.875,273.348 194.853,273.278 194.863,273.214C194.879,273.097 194.958,273.003 194.987,272.884C195.048,272.634 195.063,272.404 195.133,272.206C195.281,271.799 195.45,271.384 195.676,271.013C195.463,270.807 195.153,270.661 194.903,270.458C194.622,270.231 194.296,270.001 194.026,269.736C193.832,269.55 193.439,269.245 193.442,268.876C193.443,268.706 193.558,268.471 193.567,268.237C193.576,268.02 193.584,267.841 193.588,267.68C193.594,267.367 193.493,267.065 193.505,266.694C193.509,266.527 193.464,266.356 193.463,266.181C193.462,266.077 193.523,265.976 193.526,265.871C193.534,265.494 193.459,265.1 193.463,264.72C193.465,264.46 193.453,264.197 193.463,263.938C193.468,263.781 193.542,263.625 193.546,263.467C193.552,263.234 193.488,263.011 193.505,262.789C193.55,262.165 193.729,261.659 193.922,261.122C194.188,260.926 194.459,260.517 194.904,260.526C194.979,260.526 195.076,260.594 195.176,260.608C195.404,260.635 195.604,260.582 195.739,260.712C195.896,260.539 196.098,260.496 196.346,260.361C196.403,260.329 196.462,260.258 196.533,260.217C196.931,259.99 197.219,259.991 197.097,259.414C197.037,259.127 196.986,258.994 197.244,258.798C197.234,258.709 197.094,258.727 197.013,258.652C197.002,258.64 197.001,258.562 196.972,258.53C196.879,258.43 196.904,258.468 196.846,258.303C196.744,258.011 196.305,257.698 196.657,257.398C196.433,257.395 196.348,257.224 196.199,257.131C195.949,256.978 195.699,256.955 195.573,256.802C195.436,256.633 195.385,256.372 195.426,256.124C195.437,256.061 195.414,256 195.426,255.959C195.45,255.881 195.564,255.816 195.573,255.713C195.579,255.634 195.486,255.531 195.489,255.444C195.493,255.314 195.633,255.259 195.614,255.116C195.358,255.096 195.26,255.137 195.029,254.972C194.746,254.771 194.617,254.595 194.507,254.21C194.469,254.079 194.334,253.751 194.34,253.572C194.35,253.288 194.799,252.76 195.008,252.606C195.271,252.413 195.628,252.415 195.928,252.277C195.801,252.061 195.89,251.863 196.033,251.619C196.231,251.273 196.616,250.917 197.202,251.086C197.512,250.955 197.909,250.981 198.185,250.961C198.083,250.743 198.087,250.464 198.247,250.202C198.303,250.107 198.444,250.02 198.519,249.892C198.661,249.648 198.695,249.402 198.916,249.254C199.011,249.19 199.143,249.168 199.208,249.129C199.307,248.923 199.525,248.649 199.793,248.616C200.129,248.574 200.186,248.875 200.419,248.904C200.551,248.921 200.67,248.792 200.796,248.781C200.856,248.776 201.189,248.826 201.235,248.842C201.33,248.873 201.437,248.988 201.527,249.048C201.642,249.125 201.744,249.19 201.823,249.258ZM221.988,295.275C221.794,295.133 221.51,295.018 221.444,294.803C221.413,294.698 221.393,294.364 221.423,294.205C221.464,293.986 221.663,293.741 221.778,293.505C222.137,292.774 222.402,291.856 222.718,291.202C222.722,291.192 222.717,291.174 222.718,291.161C222.791,290.758 222.742,290.088 222.739,289.578C222.729,288.194 222.647,286.455 222.697,284.89C222.775,282.433 222.666,279.565 222.718,277.2C222.724,276.956 222.787,276.714 222.781,276.48C222.751,275.44 222.781,273.915 222.781,272.615C222.781,271.825 222.754,271.036 222.781,270.353C222.836,268.996 222.782,267.388 222.823,266.055C222.876,264.295 222.704,261.896 222.802,260.236C222.86,259.264 222.739,258.356 222.781,257.297C222.795,256.952 222.781,256.33 222.677,256.228C222.573,256.125 222.069,256.133 221.696,256.125C221.315,256.115 220.986,256.104 220.651,256.104C218.565,256.104 216.548,256.083 214.507,256.104C213.1,256.118 211.748,256.063 210.432,256.125C209.373,256.175 208.342,256.081 207.423,256.146C207.108,256.167 206.785,256.184 206.483,256.104C206.296,256.171 205.982,256.116 205.752,256.104C205.458,256.124 204.992,256.055 204.769,256.268C204.728,260.526 204.798,264.563 204.79,268.77C204.789,269.425 204.792,270.07 204.79,270.723C204.784,273.024 204.795,275.331 204.79,277.612C204.785,279.621 204.79,281.843 204.748,283.945C204.74,284.339 204.737,284.734 204.748,285.117C204.799,286.987 204.68,288.882 204.727,290.648C204.738,291.049 204.655,291.589 204.727,291.882C204.827,292.293 205.213,292.786 205.438,293.094C205.708,293.469 206.068,293.799 206.127,294.329C206.015,294.734 205.663,294.9 205.396,295.152C205.212,295.179 205.308,295.359 205.061,295.314C204.998,295.43 205.169,295.448 205.103,295.582C204.852,295.548 204.707,295.723 204.665,295.829C207.434,295.834 210.124,295.807 212.815,295.85C213.714,295.865 214.6,295.834 215.49,295.829C217.121,295.823 218.568,295.884 220.045,295.85C220.465,295.839 220.939,295.812 221.382,295.829C221.797,295.847 222.323,295.977 222.615,295.643C222.449,295.519 222.2,295.43 221.988,295.275ZM224.265,263.467C224.29,263.28 224.475,262.988 224.265,262.869C224.252,262.869 224.237,262.869 224.223,262.869C224.269,263.07 224.193,263.333 224.265,263.467ZM203.287,263.343C203.271,263.239 203.356,262.988 203.266,262.89C203.181,263.045 203.169,263.204 203.287,263.343ZM224.223,265.892C224.193,270.589 224.261,275.31 224.203,280.164C224.2,280.336 224.247,280.506 224.245,280.675C224.209,282.303 224.16,283.846 224.161,285.466C224.538,284.035 224.437,282.532 224.579,280.944C224.631,280.357 224.659,279.761 224.642,279.135C224.625,278.543 224.725,277.942 224.725,277.365C224.724,276.492 224.781,275.714 224.871,274.838C224.901,274.542 224.973,274.217 224.954,273.953C224.938,273.721 224.707,273.393 224.724,273.131C224.733,272.988 224.938,272.803 224.996,272.678C225.174,272.282 225.264,271.707 225.33,271.218C225.34,271.144 225.317,271.066 225.33,270.992C225.345,270.909 225.405,270.845 225.414,270.764C225.426,270.65 225.369,270.522 225.371,270.394C225.374,270.282 225.414,270.168 225.414,270.067C225.406,269.501 225.173,268.907 225.059,268.379C225.034,268.262 225.045,268.135 225.017,268.029C224.945,267.758 224.778,267.505 224.682,267.227C224.523,266.765 224.393,266.323 224.286,265.849C224.285,265.835 224.282,265.826 224.265,265.828C224.239,265.839 224.223,265.857 224.223,265.892ZM202.932,266.962C202.588,267.964 202.083,269.077 202.033,270.211C201.994,271.104 202.146,271.964 202.45,272.656C202.512,272.798 202.698,272.988 202.701,273.171C202.707,273.508 202.422,273.765 202.409,274.097C202.399,274.314 202.492,274.493 202.533,274.695C202.586,274.954 202.635,275.236 202.659,275.516C202.715,276.186 202.641,276.759 202.659,277.366C202.669,277.755 202.714,278.14 202.721,278.539C202.755,280.17 202.703,281.81 202.846,283.309C202.878,283.638 202.926,283.914 202.971,284.215C203.022,284.533 202.882,285.047 203.286,285.118C203.293,278.68 203.278,272.09 203.327,265.914C203.307,265.914 203.286,265.914 203.265,265.914C203.165,266.3 203.048,266.619 202.932,266.962ZM195.931,267.085C195.904,267.298 195.915,267.586 195.868,267.825C195.826,268.047 195.657,268.343 195.681,268.503C195.708,268.684 195.942,268.821 196.056,268.936C196.142,269.021 196.231,269.169 196.327,269.286C196.395,269.369 196.565,269.605 196.641,269.615C196.747,269.63 196.867,269.478 196.954,269.429C197.227,269.272 197.7,269.198 197.914,269.059C197.961,268.875 197.865,268.724 197.935,268.525C197.197,267.969 196.683,267.194 196.117,266.468C196.097,266.468 196.076,266.468 196.054,266.468C196.064,266.695 195.962,266.841 195.931,267.085ZM231.495,266.509C231.469,266.509 231.466,266.484 231.433,266.488C231.266,266.729 231.018,266.89 230.889,267.168C230.664,267.342 230.524,267.588 230.262,267.846C230.102,268.003 229.656,268.292 229.594,268.503C229.54,268.692 229.591,268.887 229.615,269.1C230.051,269.253 230.43,269.444 230.867,269.636C231.01,269.543 231.021,269.391 231.098,269.264C231.288,268.95 231.662,268.815 231.828,268.485C231.607,267.927 231.66,267.121 231.495,266.509ZM203.098,285.302C203.082,285.663 203.2,286.344 203.265,286.741C203.37,286.701 203.307,286.596 203.307,286.516C203.309,286.14 203.301,285.596 203.327,285.26C203.231,285.298 203.191,285.289 203.098,285.302Z"/>
    </g>
</svg>
