<?xml version="1.0" encoding="UTF-8" standalone="no"?>
<!DOCTYPE svg PUBLIC "-//W3C//DTD SVG 1.1//EN" "http://www.w3.org/Graphics/SVG/1.1/DTD/svg11.dtd">
<svg width="100%" height="100%" viewBox="0 0 48 51" version="1.1" xmlns="http://www.w3.org/2000/svg" xmlns:xlink="http://www.w3.org/1999/xlink" xml:space="preserve" xmlns:serif="http://www.serif.com/" style="fill-rule:evenodd;clip-rule:evenodd;stroke-linejoin:round;stroke-miterlimit:1.41421;">
    <g transform="matrix(1,0,0,1,-246.121,-248.006)">
        <path d="M283.067,251.336C283.665,251.385 284.068,251.627 284.452,251.885C284.515,252.065 284.736,252.138 284.705,252.362C284.657,252.701 283.845,252.552 283.608,252.468C283.568,252.56 283.699,252.607 283.752,252.663C283.815,252.731 283.891,252.821 283.933,252.893C284.16,253.301 284.338,253.794 284.327,254.38C284.321,254.679 284.297,254.984 284.238,255.334C284.219,255.446 284.149,255.627 284.167,255.706C284.185,255.795 284.306,255.848 284.346,255.935C284.44,256.141 284.426,256.365 284.507,256.52C284.558,256.602 284.632,256.477 284.706,256.536C284.74,256.718 284.941,256.782 285.028,256.928C285.082,257.013 285.082,257.125 285.136,257.212C285.203,257.313 285.329,257.376 285.443,257.494C285.509,257.563 285.551,257.694 285.623,257.741C285.769,257.838 286.052,257.811 286.289,257.848C286.482,257.876 286.681,257.904 286.845,257.936C287.036,257.975 287.28,258.089 287.494,258.165C287.715,258.244 287.986,258.275 288.285,258.36C288.756,258.491 289.043,258.749 289.31,259.138C289.563,259.249 289.822,259.344 290.046,259.492C290.122,259.542 290.219,259.57 290.28,259.616C290.329,259.65 290.341,259.719 290.387,259.757C290.45,259.809 290.546,259.816 290.603,259.863C290.716,259.959 290.794,260.135 290.91,260.27C291.016,260.397 291.141,260.536 291.251,260.642C291.414,260.799 291.647,260.869 291.827,261.012C292.143,261.263 292.443,261.695 292.726,262.023C292.825,262.137 292.965,262.237 293.032,262.341C293.073,262.404 293.079,262.487 293.122,262.552C293.253,262.749 293.412,262.898 293.517,263.154C293.567,263.275 293.564,263.409 293.607,263.546C293.646,263.662 293.758,263.752 293.788,263.864C293.921,264.378 293.556,264.643 293.303,264.942C292.474,265.925 291.657,266.869 290.822,267.828C290.489,268.209 290.202,268.624 289.814,268.96C289.909,269.377 290.087,269.764 290.21,270.183C290.33,270.59 290.405,271.032 290.568,271.42C290.898,272.203 291.069,273.039 291.395,273.808C291.551,274.885 291.966,275.945 292.169,277.119C292.217,277.393 292.236,277.687 292.275,277.97C292.319,278.266 292.316,278.561 292.366,278.854C292.509,279.696 292.615,280.5 292.69,281.421C292.705,281.609 292.792,282.036 292.744,282.199C292.701,282.344 292.515,282.418 292.366,282.5C292.379,282.645 292.311,282.678 292.24,282.766C292.149,282.878 292.051,282.98 291.862,283.084C291.731,283.155 291.566,283.257 291.485,283.279C291.323,283.323 291.105,283.312 290.91,283.331C290.626,283.36 290.35,283.403 290.082,283.42C289.968,283.893 290.109,284.37 290.101,284.836C290.099,284.941 290.062,285.049 290.065,285.154C290.07,285.364 290.123,285.578 290.118,285.791C290.117,285.937 290.07,286.085 290.065,286.232C290.059,286.414 290.113,286.599 290.101,286.783C290.096,286.867 290.051,286.946 290.046,287.03C290.042,287.1 290.067,287.17 290.065,287.243C290.046,287.976 289.965,288.716 289.92,289.472C289.903,289.77 289.84,290.068 289.829,290.375C289.8,291.352 289.738,292.175 289.65,293.101C289.58,293.847 289.489,294.743 289.489,295.613C289.489,295.852 289.535,296.112 289.507,296.34C289.487,296.488 289.362,296.683 289.435,296.923C289.181,297.277 288.598,297.141 288.14,297.189C288.094,297.461 288.168,297.721 287.995,297.862C287.789,298.033 286.81,298.101 286.468,298.04C286.311,298.01 286.165,297.915 286.089,297.88C286.058,297.743 286.091,297.64 286.089,297.49C285.532,297.498 284.96,297.684 284.436,297.827C284.264,297.873 284.11,297.964 283.95,298.005C283.826,298.035 283.682,298.01 283.536,298.022C283.267,298.041 282.987,298.098 282.745,298.076C282.219,298.027 281.541,297.843 281.037,297.704C280.724,297.616 280.501,297.532 280.317,297.35C280.49,297.083 280.585,296.711 280.928,296.642C281.277,296.571 281.68,296.738 282.062,296.748C282.328,296.753 282.745,296.76 283.032,296.642C283.44,296.476 283.48,296.116 283.933,295.987C283.902,295.87 283.983,295.738 283.933,295.633C283.891,295.548 283.663,295.488 283.572,295.438C283.218,295.244 282.803,295.009 282.547,294.8C282.582,294.41 282.873,294.271 283.087,294.059C283.533,293.97 283.775,294.211 284.077,294.324C284.149,294.214 284.095,294.092 284.095,293.97C284.099,292.137 284.091,290.271 283.95,288.448C283.886,287.613 283.916,286.682 283.843,285.793C283.78,285.044 283.705,284.308 283.68,283.564C283.243,283.432 282.669,283.447 282.242,283.282C281.721,283.079 281.447,282.811 281.36,282.183C281.323,281.912 281.339,281.597 281.324,281.299C281.3,280.796 281.329,280.282 281.324,279.847C281.322,279.576 281.271,279.286 281.269,278.961C281.268,278.29 281.304,277.543 281.305,276.787C281.308,276.27 281.247,275.73 281.235,275.211C281.221,274.708 281.338,274.144 281.216,273.705C281.168,273.532 281.038,273.371 280.983,273.192C280.949,273.088 280.94,272.955 280.912,272.838C280.812,272.457 280.81,271.864 280.695,271.441C280.533,270.852 280.278,270.284 280.065,269.723C279.413,267.997 279.014,266.13 278.789,264.024C278.193,264.12 277.868,263.818 277.313,263.776C277.279,264.026 277.313,264.329 277.313,264.627C277.313,264.999 277.364,265.368 277.295,265.618C277.288,270.628 277.347,275.271 277.331,279.988C277.323,281.808 277.456,283.653 277.403,285.404C277.377,286.219 277.431,287.033 277.421,287.846C277.395,289.829 277.395,291.899 277.421,293.9C277.43,294.54 277.492,295.162 277.492,295.846C277.492,296.319 277.529,296.807 277.367,297.19C277.192,297.603 276.708,298.034 276.216,298.094C276.005,298.116 275.785,298.078 275.569,298.075C275.371,298.071 275.193,298.121 274.994,298.145C274.286,298.232 273.559,298.125 272.871,298.145C272.181,298.165 271.326,298.23 270.659,298.232C269.997,298.237 269.31,298.216 268.628,298.216C267.93,298.216 267.281,298.139 266.649,298.181C266.336,298.2 266.01,298.164 265.678,298.162C264.939,298.158 264.106,298.213 263.609,297.808C263.324,297.576 263.084,297.148 263.035,296.676C262.985,296.197 263.017,295.675 263.017,295.191C263.008,290.034 262.89,284.924 262.89,279.685C262.89,277.245 262.807,274.805 262.799,272.393C262.798,271.501 262.787,270.569 262.764,269.704C262.712,267.741 262.776,265.803 262.693,263.882C262.505,263.934 262.337,263.907 262.172,263.936C261.832,263.992 261.554,264.236 261.128,264.22C261.024,265.008 260.921,265.909 260.769,266.678C260.723,266.916 260.654,267.15 260.608,267.388C260.559,267.625 260.526,267.881 260.463,268.112C260.398,268.355 260.247,268.57 260.192,268.821C260.062,269.438 259.853,269.995 259.634,270.556C259.567,270.727 259.448,270.884 259.401,271.05C259.37,271.156 259.366,271.298 259.33,271.422C259.295,271.54 259.216,271.639 259.203,271.723C259.168,271.985 259.229,272.317 259.184,272.573C259.086,273.164 258.856,273.644 258.754,274.201C258.685,274.573 258.741,275.038 258.718,275.423C258.679,276.026 258.779,276.628 258.754,277.229C258.731,277.814 258.748,278.408 258.772,278.998C258.793,279.524 258.738,280.115 258.736,280.697C258.733,281.475 258.872,282.471 258.52,283.034C258.427,283.182 258.258,283.241 258.143,283.423C257.993,283.471 257.856,283.529 257.746,283.618C257.328,283.737 256.799,283.747 256.397,283.884C256.397,284.216 256.343,284.541 256.308,284.874C256.219,285.727 256.329,286.585 256.308,287.44C256.247,289.853 256.232,292.19 256.272,294.555C256.516,294.518 256.782,294.271 257.154,294.307C257.237,294.315 257.363,294.37 257.442,294.413C257.567,294.48 257.798,294.669 257.8,294.801C257.804,294.978 257.23,295.316 257.099,295.385C257.047,295.413 256.985,295.415 256.937,295.439C256.819,295.499 256.717,295.604 256.612,295.669C256.498,295.739 256.39,295.796 256.288,295.882C256.157,296.295 256.575,296.314 256.792,296.465C257.02,296.624 257.212,297.052 257.583,297.067C257.738,297.074 257.902,297.031 258.087,297.031C258.687,297.036 259.332,296.703 259.76,297.138C259.876,297.257 259.907,297.448 259.993,297.597C259.504,297.935 258.87,298.193 258.087,298.307C257.606,298.376 257.24,298.46 256.756,298.394C256.697,298.386 256.635,298.347 256.577,298.343C256.514,298.336 256.437,298.37 256.378,298.361C256.288,298.344 256.211,298.259 256.127,298.234C255.945,298.185 255.749,298.159 255.55,298.095C255.138,297.958 254.716,297.897 254.238,297.828C254.188,297.964 254.244,298.111 254.184,298.233C254.057,298.497 253.47,298.418 253.088,298.482C252.963,298.503 252.668,298.39 252.566,298.36C252.399,298.307 252.261,298.25 252.206,298.146C252.24,297.918 252.214,297.66 252.171,297.457C251.731,297.371 251.316,297.455 250.91,297.368C250.844,297.232 250.901,297.102 250.875,296.96C250.853,296.839 250.762,296.762 250.749,296.661C250.74,296.578 250.767,296.48 250.769,296.393C250.774,296.083 250.755,295.758 250.733,295.438C250.708,295.089 250.714,294.731 250.697,294.376C250.645,293.383 250.526,292.365 250.408,291.402C250.36,291.006 250.295,290.666 250.301,290.251C250.307,289.741 250.183,289.247 250.156,288.748C250.078,287.277 249.956,285.53 250.013,283.847C249.431,283.79 248.91,283.782 248.484,283.563C248.39,283.515 248.302,283.416 248.196,283.349C247.978,283.214 247.76,283.151 247.692,282.873C247.248,282.916 247.341,282.577 247.387,282.182C247.471,281.453 247.507,280.703 247.602,280.024C247.671,279.531 247.754,279.029 247.817,278.538C247.881,278.032 247.909,277.523 247.998,277.033C248.014,276.942 248.073,276.861 248.087,276.787C248.154,276.447 248.193,276.119 248.25,275.795C248.307,275.463 248.366,275.147 248.449,274.821C248.601,274.206 248.823,273.624 249.005,273.015C249.188,272.408 249.378,271.808 249.564,271.21C249.753,270.6 249.858,269.975 250.067,269.369C249.853,269.119 249.653,268.89 249.437,268.626C249.369,268.544 249.261,268.49 249.204,268.413C248.969,268.104 248.811,267.791 248.575,267.528C248.336,267.265 248.057,267.068 247.783,266.801C247.626,266.649 247.521,266.435 247.369,266.271C247.215,266.107 247.018,265.979 246.955,265.758C246.71,265.649 246.616,265.424 246.434,265.191C246.236,264.942 246.053,264.807 246.146,264.342C246.176,264.195 246.211,264.041 246.271,263.865C246.397,263.494 246.726,263.187 246.936,262.802C247.092,262.518 247.264,262.287 247.458,262.041C247.656,261.791 247.824,261.612 248.086,261.369C248.251,261.218 248.455,261.128 248.589,261.014C248.756,260.874 248.846,260.647 249.022,260.484C249.397,260.137 249.829,259.794 250.407,259.634C250.593,259.488 250.615,259.281 250.768,259.139C250.884,259.032 251.245,258.803 251.414,258.749C251.51,258.72 251.614,258.735 251.721,258.715C252.036,258.651 252.41,258.427 252.8,258.342C252.959,258.309 253.144,258.312 253.303,258.272C253.436,258.24 253.577,258.175 253.717,258.148C253.884,258.118 254.052,258.11 254.148,258.058C254.26,258.002 254.334,257.856 254.436,257.741C254.684,257.462 254.75,257.094 255.011,256.803C255.094,256.763 255.133,256.857 255.246,256.839C255.365,256.574 255.24,256.074 255.57,256.078C255.439,255.442 255.351,254.828 255.426,254.097C255.484,253.534 255.787,253.078 256.02,252.768C255.819,252.705 255.399,252.903 255.192,252.858C255.096,252.837 254.968,252.707 254.957,252.591C254.948,252.454 255.192,252.129 255.335,252.043C255.602,251.886 255.787,251.79 256.127,251.689C256.243,251.656 256.432,251.647 256.522,251.6C256.697,251.51 256.79,251.03 256.882,250.786C257.117,250.162 257.287,249.655 257.477,249.053C257.56,248.785 257.619,248.465 257.853,248.275C259.839,248.522 261.32,249.265 262.638,250.169C262.401,250.607 262.151,251.037 261.9,251.515C261.785,251.733 261.693,251.975 261.557,252.224C261.458,252.408 261.227,252.731 261.235,252.931C261.241,253.096 261.382,253.172 261.468,253.337C261.636,253.656 261.823,254.076 261.775,254.523C261.433,254.588 261.275,254.181 260.947,254.115C260.919,254.398 260.704,254.413 260.678,254.681C260.635,255.112 260.974,255.619 260.965,255.994C260.957,256.284 260.779,256.354 260.479,256.382C260.39,256.598 260.457,256.818 260.372,257.019C260.313,257.159 260.193,257.255 260.156,257.41C260.114,257.578 260.152,257.75 260.048,257.922C259.816,258.23 259.405,258.005 259.04,257.957C258.992,258.059 259.151,258.094 259.148,258.206C258.995,258.357 258.828,258.601 258.969,258.824C259.053,258.96 259.631,259.147 259.814,259.215C259.978,259.275 260.134,259.321 260.282,259.373C260.92,259.599 261.858,259.877 262.745,259.727C262.76,258.931 262.742,257.745 262.745,256.7C262.748,256.071 262.78,255.572 263.034,255.197C263.083,255.124 263.122,255.027 263.159,254.985C263.296,254.83 263.635,254.672 263.861,254.648C264.174,254.614 264.559,254.698 264.903,254.682C264.927,254.417 265.02,254.19 265.191,253.994C265.235,253.944 265.293,253.911 265.335,253.851C265.4,253.763 265.392,253.71 265.462,253.693C265.664,253.638 265.795,253.796 265.75,254.064C265.876,254.046 266.104,253.814 266.308,253.976C266.739,253.84 267.152,254.051 267.567,254.135C267.757,254.237 267.796,254.487 267.909,254.664C269.189,254.636 270.494,254.664 271.919,254.647C271.894,254.406 271.954,254.152 272.116,254.045C272.175,253.975 272.226,254.057 272.298,254.026C272.395,253.984 272.402,253.847 272.53,253.814C272.595,253.796 272.688,253.847 272.782,253.832C272.896,253.812 272.983,253.698 273.07,253.691C273.218,253.676 273.344,253.751 273.429,253.867C273.91,253.735 273.924,254.263 274.185,254.45C274.243,254.297 274.001,254.021 274.058,253.762C274.08,253.669 274.178,253.553 274.275,253.548C274.413,253.545 274.496,253.739 274.58,253.885C274.72,254.121 274.866,254.258 274.797,254.611C275.523,254.653 276.209,254.616 276.631,254.929C276.891,255.122 277.166,255.49 277.225,255.867C277.333,256.565 277.24,257.479 277.243,258.309C277.245,258.689 277.254,259.159 277.263,259.547C277.79,259.59 278.328,259.298 278.916,259.23C279.027,259.216 279.134,259.243 279.24,259.212C279.467,259.146 279.598,258.935 279.834,258.858C279.845,258.854 279.87,258.84 279.87,258.84C280.266,258.772 280.854,258.736 280.842,258.362C280.835,258.184 280.562,258.141 280.553,257.989C280.544,257.851 280.681,257.887 280.769,257.761C280.465,257.679 280.194,258.029 279.853,257.937C279.676,257.889 279.564,257.736 279.457,257.583C279.425,257.465 279.507,257.331 279.493,257.229C279.481,257.146 279.39,257.076 279.366,256.983C279.349,256.915 279.383,256.833 279.366,256.769C279.339,256.655 279.203,256.58 279.17,256.487C279.167,256.383 279.205,256.313 279.17,256.222C279.069,256.17 278.855,256.234 278.756,256.185C278.53,255.956 278.737,255.659 278.809,255.371C278.843,255.239 278.875,255.084 278.917,254.929C278.958,254.792 279.037,254.599 279.026,254.504C279.001,254.303 278.763,254.256 278.772,254.026C278.572,254.091 278.381,254.418 278.143,254.397C278.022,254.389 277.94,254.247 277.82,254.186C277.787,253.559 278.178,253.223 278.432,252.824C278.238,252.207 277.894,251.511 277.603,250.929C277.499,250.717 277.414,250.495 277.316,250.31C277.258,250.198 277.096,250.04 277.118,249.903C277.141,249.759 277.705,249.529 277.839,249.46C278.126,249.314 278.367,249.227 278.594,249.071C278.956,248.964 279.303,248.799 279.655,248.664C280.009,248.529 280.377,248.422 280.699,248.239C281.068,248.182 281.513,248.076 281.886,248.009C282.138,247.964 282.197,248.494 282.246,248.754C282.422,249.732 282.759,250.508 283.067,251.336ZM265.552,254.539C265.58,254.473 265.656,254.359 265.641,254.31C265.624,254.387 265.471,254.479 265.552,254.539ZM276.071,294.06C276.04,291.619 276.013,289.171 275.982,286.662C275.939,283.307 275.939,279.968 275.891,276.343C275.887,275.954 275.921,275.564 275.91,275.159C275.889,274.392 275.871,273.548 275.891,272.663C275.902,272.243 275.846,271.824 275.857,271.406C275.892,269.706 275.87,267.962 275.873,266.238C275.883,262.78 275.832,259.693 275.82,256.239C275.642,255.978 275.247,256.007 274.866,256.009C273.889,256.017 273.011,256.009 272.097,256.009C271.477,256.009 270.865,256.056 270.118,256.044C268.334,256.018 266.82,256.08 265.119,256.08C264.757,256.08 264.286,256.046 264.147,256.185C263.991,256.345 264.07,256.957 264.075,257.353C264.097,258.761 264.114,259.826 264.111,261.052C264.106,263.544 264.109,265.926 264.166,268.38C264.187,269.261 264.184,270.167 264.184,271.068C264.184,273.675 264.271,276.21 264.311,278.697C264.323,279.527 264.328,280.346 264.328,281.21C264.328,282.981 264.384,284.689 264.384,286.501C264.384,289.275 264.439,292.32 264.454,295.244C264.457,295.68 264.381,296.297 264.473,296.517C264.526,296.646 264.769,296.82 264.94,296.853C265.134,296.893 265.402,296.843 265.661,296.853C266.949,296.906 268.112,296.832 269.276,296.82C269.969,296.811 270.62,296.822 271.308,296.784C272.037,296.745 272.726,296.863 273.393,296.82C274.306,296.758 275.191,296.663 276.056,296.571C276.132,295.73 276.083,294.888 276.071,294.06ZM276.773,257.885C276.828,257.91 276.828,257.769 276.773,257.796C276.773,257.824 276.773,257.854 276.773,257.885ZM288.806,264.467C288.975,264.393 289.039,264.213 289.148,264.078C289.019,264.004 288.87,263.951 288.733,263.883C288.696,264.07 288.778,264.286 288.806,264.467ZM250.586,264.38C250.693,264.604 250.866,264.765 251.073,264.892C251.122,264.651 251.222,264.369 251.217,264.131C251.004,264.212 250.8,264.299 250.586,264.38Z"/>
    </g>
</svg>
