<?xml version="1.0" encoding="UTF-8" standalone="no"?>
<!DOCTYPE svg PUBLIC "-//W3C//DTD SVG 1.1//EN" "http://www.w3.org/Graphics/SVG/1.1/DTD/svg11.dtd">
<svg width="100%" height="100%" viewBox="0 0 82 175" version="1.1" xmlns="http://www.w3.org/2000/svg" xmlns:xlink="http://www.w3.org/1999/xlink" xml:space="preserve" xmlns:serif="http://www.serif.com/" style="fill-rule:evenodd;clip-rule:evenodd;stroke-linejoin:round;stroke-miterlimit:1.41421;">
    <g transform="matrix(1,0,0,1,-500.607,-13.3223)">
        <path d="M542.01,35.252C542.281,35.244 542.466,35.271 542.619,35.346C542.677,35.601 542.67,35.898 542.572,36.095C542.259,36.095 541.947,36.095 541.635,36.095C541.634,36.557 541.491,36.635 541.259,36.844C541.325,37.33 541.317,37.457 541.259,37.969C541.496,38.177 541.664,38.411 541.916,38.624C541.73,38.841 542.021,39.171 542.149,39.374C541.907,39.491 542.02,39.548 541.962,39.748C541.583,39.576 541.252,39.114 540.742,39.233C540.587,40.301 539.75,41.34 539.148,42.043C538.883,42.355 538.372,42.569 538.212,42.98C538.048,43.396 538.225,43.863 538.07,44.198C538.07,44.151 538.07,44.105 538.07,44.057C537.884,43.871 538.048,43.505 538.116,43.355C538.085,43.324 538.054,43.292 538.023,43.261C537.991,43.277 537.96,43.293 537.929,43.308C537.658,43.863 537.041,44.119 536.709,44.713C536.579,44.946 536.755,45.081 536.663,45.275C536.585,45.275 536.507,45.275 536.429,45.275C536.347,45.555 536.248,45.694 536.382,45.978C535.976,45.995 535.844,46.177 535.444,46.212C535.211,46.149 534.974,46.087 534.741,46.024C534.56,46.086 534.643,46.024 534.553,46.165C534.133,47.02 534.703,48.775 534.927,49.443C535.019,49.436 538.388,51.207 539.005,51.456C539.081,51.232 539.159,51.111 539.334,50.988C540.461,51.13 541.003,50.101 542.005,50.285C542.068,50.16 542.13,50.035 542.193,49.91C543.095,49.982 542.825,50.247 543.27,50.472C543.662,50.488 544.052,50.504 544.443,50.52C545.068,50.691 545.693,50.863 546.318,51.035C547.617,51.419 548.827,52.198 550.068,52.534C550.318,52.502 550.566,52.471 550.817,52.441C551.102,52.524 551.114,52.812 551.425,52.909C551.581,52.877 551.738,52.846 551.895,52.815C551.989,52.939 552.083,53.064 552.176,53.189C552.878,53.253 553.581,53.315 554.284,53.377C557.056,53.841 560.189,53.427 562.017,54.361C562.914,54.819 563.13,54.019 563.892,54.735C563.924,54.719 563.955,54.703 563.987,54.687C564.054,54.473 564.096,54.422 564.268,54.313C564.331,54.345 564.393,54.376 564.455,54.407C564.49,54.19 564.543,54.045 564.691,53.939C564.887,53.797 564.998,53.819 565.299,53.845C565.345,53.674 565.393,53.502 565.44,53.329C566.21,53.286 566.198,52.701 566.518,52.206C566.721,52.081 566.923,51.955 567.126,51.831C567.44,51.446 567.498,51.068 567.782,50.613C567.941,50.36 568.38,50.138 568.579,49.865C568.517,49.708 568.453,49.552 568.392,49.395C568.6,49.222 568.821,49.268 569.094,49.114C569.47,48.584 569.844,48.053 570.218,47.522C570.318,47.159 570.102,47.124 570.265,46.82C571.227,46.498 571.503,44.877 571.766,43.964C572.265,42.981 572.765,41.997 573.265,41.014C573.516,40.327 573.765,39.64 574.016,38.954C574.227,38.974 574.216,39.024 574.343,38.907C575.062,37.83 574.872,35.796 574.766,34.084C574.749,33.693 574.734,33.303 574.718,32.913C574.921,32.429 575.124,31.945 575.328,31.461C575.516,30.865 575.404,30.466 575.702,30.01C575.999,29.76 576.297,29.511 576.593,29.261C577.034,28.868 577.196,28.216 577.952,28.137C578.03,28.199 578.108,28.262 578.187,28.324C578.4,29.271 577.982,29.519 577.905,30.431C578.295,30.366 578.492,30.16 578.889,30.337C579.315,30.527 579.41,31.032 579.639,31.414C580.618,31.449 580.295,31.896 580.716,32.444C580.935,32.569 581.154,32.694 581.372,32.819C582.848,35.107 579.629,39.651 578.842,40.873C578.873,40.92 578.905,40.967 578.936,41.014C579.415,41.157 579.927,41.499 580.155,41.904C579.309,43.643 578.475,45.647 577.483,47.383C576.999,48.179 576.514,48.974 576.03,49.771C575.053,52.343 574.015,54.686 572.703,56.888C572.087,57.923 570.647,60.986 569.798,61.524C568.288,62.482 567.444,61.596 565.814,61.899C563.35,62.357 560.555,62.526 558.033,62.789C556.73,62.924 555.159,63.16 553.675,62.929C551.477,62.587 548.446,61.847 546.409,62.508C544.963,62.978 543.758,64.814 542.941,65.973C540.909,68.86 538.807,72.263 537.644,75.948C537.498,76.413 537.391,76.984 537.503,77.54C537.564,77.826 537.844,78.174 537.738,78.569C537.454,79.631 536.578,80.913 536.238,81.941C536.104,82.343 536.471,83.311 536.333,83.721C536.222,83.94 536.075,83.948 535.911,84.096C536.256,85.328 537.357,85.635 537.879,86.671C538.549,88.002 538.349,90.82 539.706,91.354C539.645,91.198 539.581,91.042 539.518,90.886C540.416,91.5 542.567,94.296 542.752,95.522C542.539,95.596 542.431,95.647 542.376,95.896C542.704,96.49 543.033,97.083 543.362,97.676C544.597,99.792 546.125,102.469 546.267,105.543C546.382,108.073 546.038,111.017 546.454,113.503C546.736,115.783 547.017,118.062 547.298,120.34C547.596,121.594 548.282,122.578 548.611,123.946C548.889,125.111 548.763,126.317 548.611,127.317C548.563,128.612 548.518,129.908 548.47,131.204C548.075,134.311 548.837,137.804 547.813,140.429C547.32,140.386 547.098,140.152 546.502,140.054C546.502,140.179 546.502,140.304 546.502,140.429C546.679,141.039 546.944,142.489 546.689,143.051C546.202,143.093 545.78,143.018 545.516,143.286C545.786,150.345 544.955,156.634 543.642,162.391C542.94,165.469 542.626,170.242 544.064,172.834C544.33,172.88 544.594,172.927 544.861,172.975C544.861,172.99 544.861,173.005 544.861,173.021C544.798,173.24 544.736,173.459 544.673,173.676C544.44,173.661 544.206,173.645 543.971,173.63C544.018,174.916 543.683,175.701 543.455,176.721C543.28,177.501 543.635,178.456 543.643,178.969C543.58,179.094 543.518,179.219 543.455,179.343C543.282,179.359 543.111,179.375 542.939,179.391C542.921,179.698 542.705,179.973 542.611,180.281C542.343,181.153 542.991,182.245 542.704,183.371C542.28,185.042 539.79,186.411 538.158,186.977C537.158,187.326 533.762,187.727 533.238,186.649C532.91,185.852 533.424,184.737 533.518,184.168C533.855,182.149 534.331,181.463 535.347,180.093C535.884,179.368 536.153,177.944 536.377,177.003C536.58,176.035 536.782,175.067 536.985,174.1C537.126,173.663 537.266,173.225 537.407,172.788C537.439,172.278 537.306,172.301 537.548,171.758C537.518,171.103 537.486,170.448 537.455,169.792C537.742,168.069 538.515,166.064 538.157,163.752C537.688,160.443 537.219,157.133 536.752,153.823C536.532,151.498 536.315,149.172 536.096,146.847C535.976,146.125 536.033,144.954 535.58,144.551C533.689,144.661 531.8,144.77 529.91,144.88C530.204,146.883 530.631,148.951 530.986,151.061C531.018,152.871 531.049,154.683 531.08,156.493C531.235,159.818 531.393,163.143 531.549,166.468C532.475,167.142 533.356,169.933 533.753,171.198C533.965,171.872 533.575,172.776 533.471,173.446C533.518,174.788 533.564,176.132 533.613,177.473C532.343,178.028 531.838,177.436 530.8,177.566C530.8,177.598 530.8,177.629 530.8,177.661C530.098,178.949 531.178,180.457 531.034,181.361C530.816,182.734 528.221,185.287 526.908,185.575C524.875,186.021 523.038,184.15 522.55,182.952C522.519,182.594 522.488,182.234 522.457,181.875C522.333,181.162 522.979,179.534 523.582,179.628C523.628,179.611 523.675,179.597 523.722,179.581C524.587,178.027 525.436,176.613 526.112,174.852C526.507,173.828 526.615,172.594 526.956,171.668C526.791,171.42 526.524,171.268 526.441,170.965C526.534,170.762 526.629,170.559 526.722,170.356C526.847,170.356 526.971,170.356 527.096,170.356C527.146,167.885 525.895,164.916 525.223,162.91C523.221,156.944 520.604,151.931 520.254,144.46C519.452,144.043 519.309,143.284 519.128,142.353C519.146,141.994 519.161,141.634 519.177,141.275C518.508,138.5 518.448,135.182 517.817,132.145C516.838,127.433 516.559,122.222 515.614,117.253C514.995,113.994 514.422,109.351 514.957,105.732C514.926,104.952 514.895,104.17 514.864,103.39C514.74,103.204 514.615,103.016 514.49,102.829C514.38,102.334 514.78,101.85 514.864,101.33C515.024,100.334 514.672,99.395 514.77,98.615C514.835,98.106 515.099,97.685 515.192,97.21C515.114,96.272 515.036,95.337 514.957,94.398C514.849,94.354 514.74,94.305 514.631,94.258C514.359,93.672 514.836,92.553 514.864,91.964C514.801,91.948 514.74,91.932 514.676,91.918C513.973,92.047 511.396,91.524 511.303,91.028C512.608,87.97 514.197,85.398 514.864,81.616C514.848,80.913 514.833,80.21 514.817,79.509C514.8,76.522 514.631,73.503 513.88,71.079C513.329,69.307 512.452,68.016 512.098,65.929C511.512,62.474 514.377,58.597 512.801,55.533C511.722,53.435 509.683,51.97 507.974,50.475C506.004,48.751 504.554,46.492 503.006,44.341C502.42,43.528 500.951,42.324 500.71,41.391C500.495,40.562 500.662,39.25 500.803,38.535C501.121,36.912 501.199,35.388 501.694,33.946C502.007,33.134 502.319,32.322 502.631,31.51C503.147,29.263 503.662,27.014 504.178,24.767C504.256,24.049 504.333,23.331 504.413,22.613C505.021,22.396 505.805,22.705 506.429,22.566C506.577,20.737 507.004,19.2 507.6,17.743C507.788,17.415 507.975,17.087 508.163,16.76C508.375,15.952 507.871,15.208 508.63,14.841C508.924,14.668 509.188,14.814 509.475,14.887C509.63,14.562 509.871,14.578 510.131,14.372C509.884,13.752 510.351,13.211 510.927,13.342C511.115,13.56 511.304,13.779 511.49,13.997C512.211,14.332 512.184,14.269 512.71,14.747C512.927,14.567 513.195,14.208 513.553,14.326C514.901,14.508 514.52,17.407 514.397,18.119C514.165,18.19 514.056,18.277 513.927,18.447C514.004,18.683 514.039,18.516 513.975,18.728C512.904,18.751 511.943,20.791 510.835,21.21C510.835,21.272 510.835,21.335 510.835,21.398C510.976,21.398 511.116,21.398 511.256,21.398C511.256,21.413 511.256,21.429 511.256,21.444C510.513,22.716 510.625,24.354 510.225,25.939C509.835,27.344 509.446,28.75 509.054,30.154C508.977,30.654 508.898,31.154 508.82,31.653C508.882,31.778 508.944,31.903 509.008,32.028C508.898,32.184 508.787,32.34 508.679,32.496C508.467,33.215 508.933,34.019 508.867,34.37C508.771,34.495 508.679,34.62 508.586,34.744C508.396,35.328 508.79,36.873 508.772,37.367C508.71,37.586 508.648,37.804 508.586,38.022C508.628,38.269 508.952,38.42 508.867,38.771C508.811,38.996 508.601,39.247 508.538,39.567C508.962,39.846 508.915,40.128 509.148,40.316C509.435,40.549 509.62,40.34 509.944,40.504C510.084,40.692 510.224,40.879 510.365,41.066C511.571,41.873 512.586,42.723 513.74,43.595C513.926,43.735 513.972,44 514.209,44.111C515.161,44.556 516.5,44.73 517.631,45.188C518.319,45.547 519.006,45.906 519.694,46.265C520.037,46.364 520.285,46.149 520.585,46.311C521.116,46.599 521.462,46.916 521.991,47.153C522,48.109 522.795,47.923 523.396,48.278C523.964,48.613 524.337,49.393 525.365,48.933C526.317,48.46 526.226,45.724 526.395,44.485C525.871,44.322 525.088,43.966 524.801,43.548C524.457,43.044 524.658,42.13 524.52,41.394C524.211,39.74 523.909,36.926 524.288,34.978C524.409,34.344 525.064,33.188 524.942,32.824C525.175,32.801 525.157,32.802 525.271,32.684C524.912,32.34 524.552,31.996 524.193,31.654C524.215,31.422 524.215,31.44 524.335,31.326C524.754,31.56 524.961,32.198 525.412,32.544C525.443,32.497 525.475,32.45 525.506,32.403C525.61,32.049 525.738,31.378 525.787,30.671C525.568,30.671 525.349,30.671 525.131,30.671C524.912,30.717 524.693,30.765 524.475,30.812C524.259,31.098 524.145,31.247 524.053,31.702C524.006,31.67 523.959,31.639 523.912,31.608C523.866,31.499 523.817,31.39 523.771,31.281C523.806,31.072 523.831,31.084 523.912,30.952C524.156,30.862 524.149,30.681 524.335,30.577C524.834,30.5 525.335,30.421 525.834,30.343C526.029,29.684 526.783,28.844 527.099,28.095C527.085,28.08 527.069,28.064 527.052,28.049C526.974,28.173 526.897,28.298 526.818,28.423C526.803,28.423 526.788,28.423 526.772,28.423C526.877,27.895 527.292,27.526 527.569,27.159C528.684,25.68 529.549,24.906 531.599,24.302C531.898,24.215 532.151,23.867 532.583,23.927C533.889,24.107 534.672,24.941 535.676,25.286C536.769,25.661 537.755,25.569 538.677,26.129C541.712,27.977 541.624,31.095 541.817,34.933C541.896,34.933 541.972,34.933 542.052,34.933C542.042,35.035 542.025,35.144 542.01,35.252ZM526.73,28.416C526.77,28.518 526.743,28.502 526.683,28.604C526.699,28.541 526.715,28.479 526.73,28.416ZM518.246,57.356C517.666,57.937 517.431,59.639 517.732,60.774C518.378,63.213 519.753,64.849 520.964,66.674C521.059,66.658 521.152,66.643 521.245,66.628C522.058,65.847 522.871,65.065 523.683,64.286C525.104,63.14 526.287,61.684 527.574,60.399C528.149,59.824 528.963,59.316 529.354,58.573C529.34,58.525 529.324,58.479 529.307,58.432C529.244,58.4 529.183,58.369 529.119,58.338C526.655,59.153 521.904,58.731 519.606,57.963C519.154,57.762 518.699,57.558 518.246,57.356ZM524.104,63.116C524.152,63.116 524.199,63.116 524.245,63.116C524.152,63.226 524.058,63.335 523.965,63.443C523.903,63.475 523.84,63.507 523.777,63.537C523.848,63.296 523.951,63.258 524.104,63.116ZM522.466,64.754C522.497,64.754 522.528,64.754 522.559,64.754C522.482,64.816 522.403,64.88 522.326,64.941C522.326,64.925 522.326,64.911 522.326,64.895C522.371,64.849 522.418,64.801 522.466,64.754ZM521.105,66.018C521.137,66.018 521.168,66.018 521.2,66.018C521.135,66.108 521.195,66.047 521.105,66.112C521.105,66.082 521.105,66.05 521.105,66.018ZM522.466,91.493C520.092,91.572 517.716,91.65 515.341,91.727C513.379,95.202 516.912,94.82 519.559,95.239C520.816,95.438 522.413,95.38 523.872,95.38C527.788,95.38 531.165,95.178 534.465,94.49C535.848,94.202 538.368,93.988 538.963,93.038C538.917,92.961 538.869,92.883 538.823,92.805C532.929,92.868 528.387,91.508 522.466,91.493ZM522.559,94.771C522.869,94.757 523.066,94.778 523.215,94.912C522.856,94.896 522.497,94.881 522.137,94.866C522.169,94.866 522.2,94.866 522.231,94.866C522.34,94.833 522.45,94.802 522.559,94.771Z"/>
    </g>
</svg>
