<?xml version="1.0" encoding="UTF-8" standalone="no"?>
<!DOCTYPE svg PUBLIC "-//W3C//DTD SVG 1.1//EN" "http://www.w3.org/Graphics/SVG/1.1/DTD/svg11.dtd">
<svg width="100%" height="100%" viewBox="0 0 124 85" version="1.1" xmlns="http://www.w3.org/2000/svg" xmlns:xlink="http://www.w3.org/1999/xlink" xml:space="preserve" xmlns:serif="http://www.serif.com/" style="fill-rule:evenodd;clip-rule:evenodd;stroke-linejoin:round;stroke-miterlimit:1.41421;">
    <g transform="matrix(1,0,0,1,-361.407,-244.511)">
        <path d="M423.432,326.242C423.432,326.242 423.473,327.86 423.661,327.991C424.005,328.224 425.339,328.264 425.339,328.264C425.339,328.264 427.339,328.593 427.739,328.5C428.137,328.405 428.468,328.334 429.032,328.334C429.596,328.334 430.868,328.439 431.362,328.321C431.854,328.204 431.809,327.945 431.643,327.85C431.477,327.756 431.219,327.569 431.219,327.569C431.219,327.569 430.819,327.498 430.444,327.615C430.065,327.733 428.137,327.37 427.926,327.3C427.715,327.23 427.057,326.853 426.893,326.03C426.807,325.609 426.12,323.363 425.834,320.53C425.713,319.326 425.789,318.237 425.781,317.137C425.769,315.763 425.691,314.503 425.691,314.503C425.691,314.503 426.087,315.652 426.683,317.357C427.179,318.779 427.783,320.5 428.279,321.913C428.826,323.476 429.242,324.666 429.242,324.666C429.242,324.666 429.336,325.63 429.691,325.724C430.505,325.941 431.832,325.959 432.254,325.866C432.676,325.773 434.348,325.772 434.559,325.678C434.77,325.584 434.678,325.419 434.936,325.466C435.194,325.513 435.922,325.466 436.37,325.372C436.817,325.277 437.028,325.042 436.229,324.926C435.43,324.808 434.936,324.926 434.608,324.903C434.276,324.879 431.596,324.76 431.573,324.549C431.561,324.446 431.425,323.757 431.292,322.887C431.149,321.975 431.007,320.881 431.007,320.881C431.007,320.881 430.96,320.527 431.362,320.269C431.362,320.269 431.948,319.798 431.925,320.998C431.925,320.998 432.021,320.223 432.136,320.082C432.136,320.082 432.23,320.787 432.372,321.022C432.372,321.022 432.229,319.918 432.538,320.082C432.684,320.162 432.94,320.372 432.997,320.715C433.06,321.085 432.913,321.587 432.913,321.587C432.913,321.587 433.151,321.075 433.282,320.452C433.395,319.919 433.407,319.259 433.407,319.259C433.407,319.259 433.839,319.987 434.309,320.425C434.717,320.805 435.17,320.905 435.17,320.905C435.17,320.905 434.691,320.453 434.334,319.859C434.025,319.341 433.83,318.671 433.83,318.671C433.83,318.671 434.318,318.903 434.766,318.958C435.063,318.994 435.383,318.858 435.383,318.858C435.383,318.858 434.99,318.202 434.783,317.521C434.637,317.037 434.652,316.458 434.652,316.458C434.652,316.458 434.853,316.876 435.062,317.164C435.287,317.475 435.521,317.657 435.521,317.657C435.521,317.657 435.203,316.879 435.169,315.919C435.148,315.303 435.421,314.582 435.38,314.038C435.327,313.327 435.169,312.955 435.169,312.955C435.169,312.955 435.142,312.409 434.981,311.976C434.868,311.666 434.604,311.425 434.604,311.425C434.604,311.425 434.815,310.87 434.815,310.321C434.815,309.96 434.604,309.52 434.604,309.52C434.604,309.52 434.559,309.21 434.641,308.771C434.688,308.52 435.069,308.47 435.135,308.242C435.203,308.002 434.957,307.592 434.957,307.592C434.957,307.592 434.701,307.248 434.318,307.186C433.914,307.12 433.38,307.333 433.38,307.333C433.38,307.333 433.814,306.517 432.962,306.159C432.505,305.968 431.64,306.886 431.64,306.886C431.64,306.886 431.843,305.774 431.824,304.792C431.812,304.283 431.57,303.569 431.57,303.569C431.57,303.569 431.351,302.156 430.998,301.326C430.769,300.789 430.346,300.7 430.346,300.7C430.346,300.7 430.371,300.335 430.532,299.713C430.839,298.532 431.397,296.433 431.516,294.161C431.557,293.341 431.481,291.961 431.352,290.983C431.19,289.731 430.957,288.962 430.957,288.962C430.957,288.962 430.68,288.371 430.43,287.642C430.248,287.112 430.147,286.563 429.852,285.845C429.084,283.97 428.02,281.789 428.02,281.789C428.02,281.789 428.913,281.967 429.282,281.028C429.417,280.685 429.637,279.71 429.618,279.083C429.598,278.518 429.339,278.305 429.411,277.861C429.608,276.673 429.237,274.594 429.296,274.03C429.321,273.775 428.864,273.628 428.864,273.628C428.864,273.628 428.969,273.378 429.169,273.292C429.37,273.205 429.667,273.28 429.773,273.082C429.918,272.806 429.595,272.24 429.595,272.24C429.595,272.24 430.656,271.97 431.628,270.79C431.97,270.376 432.46,269.576 432.722,268.98C432.919,268.522 432.935,268.194 432.935,268.194C432.935,268.194 433.455,267.136 433.804,266.878C434.158,266.619 433.995,267.042 434.368,266.807C434.745,266.572 435.192,266.031 435.239,265.912C435.286,265.796 435.921,265.371 436.227,265.23C436.532,265.088 436.745,265.114 436.885,265.16C437.026,265.207 437.473,265.325 437.733,265.114C437.993,264.901 438.178,264.878 438.251,264.666C438.321,264.454 438.532,263.983 438.675,263.89C438.816,263.797 439.144,263.585 439.286,263.632C439.427,263.678 439.731,263.844 439.825,263.937C439.921,264.033 440.202,264.291 440.343,264.314C440.486,264.338 440.837,264.385 440.956,264.361C441.071,264.339 441.685,264.08 441.778,264.056C441.871,264.032 442.319,263.491 442.366,263.397C442.413,263.303 442.366,263.067 442.72,262.997C443.074,262.927 443.212,262.856 443.542,262.927C443.872,262.998 443.849,262.881 444.177,263.068C444.507,263.256 445.587,263.726 445.966,263.775C446.341,263.822 447.023,263.798 447.21,263.845C447.399,263.891 447.589,263.961 447.8,263.961C448.013,263.961 448.411,263.798 448.552,263.774C448.693,263.75 449.259,263.656 449.374,263.725C449.493,263.797 449.917,264.173 450.198,264.008C450.288,263.956 450.495,263.761 450.511,263.068C450.546,261.575 450.294,258.975 450.294,258.975C450.294,258.975 451.302,258.921 452.714,258.903C454.81,258.877 456.896,259.184 461.382,257.648C466.359,255.944 471.884,251.966 471.884,251.966C471.884,251.966 472.265,251.517 473.015,251.563C473.388,251.585 473.712,251.883 474.052,252.017C474.429,252.167 474.966,252.155 474.966,252.155C474.966,252.155 475.78,252.415 476.556,251.967C477.107,251.65 477.693,250.577 477.693,250.577C477.693,250.577 477.785,250.612 478.942,250.063C479.487,249.805 480.204,249.437 480.881,249.096C481.18,248.946 481.496,248.964 481.723,248.853C481.971,248.73 482.116,248.484 482.116,248.484C482.116,248.484 482.497,248.494 482.751,248.335C482.962,248.203 483.058,247.897 483.058,247.897C483.058,247.897 483.421,247.606 483.662,247.21C483.832,246.933 483.904,246.509 483.904,246.509C483.904,246.509 484.537,246.387 484.492,245.767C484.457,245.266 483.715,245.263 483.715,245.263C483.715,245.263 483.334,244.804 483.049,244.614C482.688,244.375 482,244.628 482,244.628C482,244.628 481.311,244.577 480.656,244.676C480.156,244.751 479.648,244.982 479.648,244.982C479.648,244.982 476.735,245.436 473.963,246.395C472.705,246.829 470.262,248.227 470.262,248.227C470.262,248.227 469.158,248.867 466.985,249.571C465.501,250.052 463.508,250.489 461.497,251.002C459.827,251.426 458.169,251.929 456.577,252.286C455.446,252.54 454.001,252.762 452.481,252.821C451.938,252.842 451.237,252.681 450.811,252.665C450.354,252.646 449.875,252.82 449.676,252.862C449.199,252.967 449.024,252.838 449.024,252.838C449.024,252.838 449.038,252.625 448.813,252.628C448.202,252.638 446.731,252.899 445.297,253.139C442.994,253.524 440.44,254.273 440.44,254.273C440.44,254.273 439.174,254.605 437.819,255.015C436.731,255.345 435.702,255.724 434.34,256.023C433.008,256.314 432.399,256.149 431.434,256.268C430.209,256.419 428.854,256.797 429.596,256.623C427.313,257.155 426.186,257.589 426.186,257.589C426.186,257.589 425.75,256.766 421.53,256.024C420.096,255.772 417.944,255.803 415.743,255.589C413.038,255.325 410.237,254.822 408.311,254.571C407.493,254.465 404.665,254.762 403.936,254.669C403.633,254.63 403.295,254.78 403.012,254.741C402.303,254.649 401.334,254.12 400.782,254.052C400.159,253.974 399.624,254.334 399.255,254.287C399.083,254.266 398.942,254.083 398.835,254.069C398.663,254.048 398.597,254.154 398.597,254.154C398.597,254.154 397.656,253.967 396.337,253.358C394.821,252.658 392.728,251.646 390.291,251.069C385.419,249.917 382.386,250.506 379.429,250.423C376.808,250.348 375.408,250.109 375.408,250.109C375.408,250.109 375.033,250 374.662,249.534C374.19,248.939 373.633,247.928 372.906,247.589C372.254,247.283 371.033,248.065 371.033,248.065C371.033,248.065 370.627,248.303 370.217,248.686C369.686,249.183 369.069,249.874 368.496,250.097C366.831,250.748 364.777,250.511 364.777,250.511C364.777,250.511 364.563,250.18 364.334,250.156C364.118,250.134 363.883,250.417 363.883,250.417C363.883,250.417 363.77,250.253 363.635,250.225C363.439,250.185 363.201,250.277 363.201,250.277C363.201,250.277 363.088,249.98 362.919,249.924C362.772,249.875 362.565,250.065 362.565,250.065C362.565,250.065 361.945,249.37 361.43,250.142C361.316,250.315 361.671,250.628 361.671,250.628C361.671,250.628 361.776,250.665 361.8,250.823C361.843,251.095 361.826,251.596 361.941,251.902C362.063,252.221 362.306,252.298 362.306,252.298C362.306,252.298 362.646,252.37 362.931,252.506C363.192,252.63 363.38,252.811 363.772,252.96C364.74,253.325 365.996,253.684 367.393,254.013C369.619,254.538 371.974,254.581 371.974,254.581C371.974,254.581 374.486,254.479 377.74,254.948C379.89,255.258 382.312,255.964 384.736,256.589C387.77,257.373 391.037,257.886 393.293,258.764C394.143,259.096 394.744,259.697 395.328,260.038C396.537,260.746 397.281,261.118 397.281,261.118C397.281,261.118 397.191,263.945 397.529,265.714C397.574,265.943 398.033,265.988 398.033,265.988C398.033,265.988 400.051,265.976 402.336,266.004C403.469,266.018 404.67,266.164 405.723,266.081C406.364,266.031 406.932,265.743 407.424,265.58C408.229,265.311 408.781,265.141 408.781,265.141C408.781,265.141 409.453,265.034 410.242,265.204C410.937,265.353 411.765,265.677 412.461,265.884C413.293,266.128 413.934,266.247 413.934,266.247C413.934,266.247 414.116,266.625 414.147,267.005C414.17,267.273 414.04,267.507 414.079,267.763C414.14,268.169 414.265,268.388 414.265,268.388C414.265,268.388 413.771,268.904 413.702,269.393C413.661,269.684 414.028,270.059 414.028,270.059C414.028,270.059 413.194,270.919 412.952,272.379C412.839,273.05 413.204,274.997 413.204,274.997C413.204,274.997 412.819,277.36 412.872,279.7C412.913,281.446 413.393,283.326 413.393,283.417C413.393,283.63 413.323,285.98 413.229,286.286C413.133,286.592 413.346,286.64 413.299,286.969C413.252,287.298 412.969,287.11 413.203,287.487C413.439,287.863 413.674,288.098 413.65,288.215C413.627,288.334 413.392,288.311 413.603,288.616C413.814,288.921 413.863,289.11 413.863,289.392C413.863,289.673 413.674,289.838 413.933,290.167C414.192,290.496 413.886,290.614 414.074,290.991C414.263,291.366 414.285,291.648 414.498,291.907C414.709,292.166 414.922,293.93 415.227,294.235C415.401,294.408 415.362,294.713 416.791,295.617C417.361,295.977 418.301,296.457 419.148,296.81C420.41,297.337 420.486,297.721 420.402,297.834C420.037,298.326 417.923,298.047 417.164,299.117C416.834,299.581 417.367,299.997 417.367,299.997C417.367,299.997 417.601,300.351 417.533,300.632C417.461,300.914 417.461,301.269 417.625,301.408C417.791,301.551 417.695,301.62 417.768,301.855C417.838,302.09 417.815,302.278 417.815,302.278C417.815,302.278 417.555,302.467 417.696,302.678C417.839,302.891 417.907,303.148 417.907,303.148C417.907,303.148 417.555,303.383 417.368,303.478C417.18,303.572 416.944,303.996 417.04,304.16C417.134,304.326 417.368,304.466 417.534,304.584C417.696,304.701 418.216,305.055 418.378,305.172C418.544,305.29 418.71,305.431 418.757,305.525C418.804,305.62 419.226,305.69 419.155,305.924C419.085,306.16 418.967,306.395 419.038,306.583C419.109,306.771 419.319,307.242 419.485,307.453C419.649,307.665 420.333,308.701 420.38,309.006C420.427,309.312 420.474,310.582 420.474,310.77C420.474,310.865 420.404,312.09 420.499,313.335C420.591,314.571 420.851,315.827 420.851,315.827C420.851,315.827 421.201,316.768 421.552,318.184C421.872,319.473 422.175,321.266 422.532,322.696C423.023,324.683 423.432,326.242 423.432,326.242Z" style="fill:rgb(41,41,41);"/>
    </g>
</svg>
