<?xml version="1.0" encoding="UTF-8" standalone="no"?>
<!DOCTYPE svg PUBLIC "-//W3C//DTD SVG 1.1//EN" "http://www.w3.org/Graphics/SVG/1.1/DTD/svg11.dtd">
<svg width="100%" height="100%" viewBox="0 0 177 244" version="1.1" xmlns="http://www.w3.org/2000/svg" xmlns:xlink="http://www.w3.org/1999/xlink" xml:space="preserve" xmlns:serif="http://www.serif.com/" style="fill-rule:evenodd;clip-rule:evenodd;stroke-linejoin:round;stroke-miterlimit:1.41421;">
    <g transform="matrix(1,0,0,1,-882.263,-70.7436)">
        <path d="M986.938,169.37C989.163,169.812 989.202,173.065 992.422,172.311C992.84,172.214 993.245,172.009 993.569,171.821C993.614,168.342 990.384,168.542 987.756,167.736C987.269,167.586 986.609,167.323 986.119,167.164C985.846,167.137 985.573,167.109 985.301,167.082C984.697,166.885 984.129,166.506 983.417,166.428C982.89,165.307 982.238,164.319 981.698,163.241C981.421,162.688 981.492,162.11 981.206,161.525C980.754,160.6 979.882,159.651 978.914,159.237C978.04,158.863 976.95,158.828 975.804,158.828C975.313,158.828 974.822,158.828 974.33,158.828C973.611,158.673 970.642,158.558 970.073,158.91C969.745,158.91 969.418,158.91 969.091,158.91C968.326,158.497 968.804,156.995 968.519,156.05C968.194,154.979 968.118,153.343 967.863,152.21C967.837,151.802 967.808,151.393 967.782,150.984C967.48,149.933 966.903,148.916 966.308,148.125C964.902,146.254 961.992,145.564 959.513,144.775C958.436,144.431 957.079,144.473 956.238,143.876C955.874,144.111 956.105,144.597 955.994,145.102C955.665,146.586 955.767,148.263 955.338,149.596C955.133,150.233 955.023,151.026 954.765,151.72C954.419,152.654 953.767,153.526 953.374,154.416C952.822,155.667 952.369,156.802 951.736,158.012C951.015,159.386 949.831,160.522 949.198,162.015C948.953,162.75 948.707,163.486 948.461,164.221C948.093,165.687 948.969,166.858 947.07,166.917C947.07,166.944 947.07,166.971 947.07,166.999C948.149,167.728 948.955,168.732 950.262,169.287C951.333,169.741 952.533,170.057 953.7,170.349C954.792,170.622 955.814,170.399 956.729,170.758C957.302,170.983 957.573,171.714 958.039,172.065C958.344,172.295 958.57,172.592 958.857,172.8C959.246,173.083 959.737,173.216 960.086,173.536C960.141,173.536 960.194,173.536 960.25,173.536C959.875,173.776 959.295,173.584 958.776,173.699C957.562,173.967 956.067,173.917 954.846,174.19C954.326,174.306 953.686,174.117 953.29,174.353C952.15,174.33 951.515,173.076 950.998,172.392C950.547,171.797 949.81,171.353 949.36,170.758C948.55,169.688 947.503,168.593 946.413,167.816C945.706,167.312 944.72,167.19 943.875,166.836C942.701,166.344 941.308,165.687 940.027,165.365C939.209,165.365 938.39,165.365 937.572,165.365C936.544,165.144 935.135,165.347 933.968,165.283C931.109,165.125 928.779,165.508 926.519,166.1C925.407,166.392 924.281,166.494 923.245,166.753C922.765,166.873 922.285,166.768 921.934,166.998C921.853,167.025 921.771,167.053 921.69,167.08C921.719,167.386 921.753,167.384 921.853,167.57C924.874,167.179 927.941,166.445 930.858,165.773C932.114,165.8 933.368,165.827 934.625,165.855C936.371,165.882 938.117,165.91 939.863,165.936C941.148,166.261 942.53,166.923 943.711,167.407C944.442,167.707 945.152,167.779 945.841,168.143C946.103,168.282 946.267,168.625 946.494,168.796C947.663,169.674 948.643,170.656 949.524,171.819C949.796,172.064 950.069,172.309 950.342,172.555C950.763,173.112 951.23,173.804 951.816,174.189C951.816,174.243 951.816,174.298 951.816,174.352C950.871,174.196 950.191,173.419 949.36,173.126C948.547,172.839 947.441,172.737 946.659,172.554C945.802,172.353 944.199,172.481 943.467,172.636C942.221,172.899 941.04,172.485 939.863,172.799C939.359,172.934 938.773,173.266 938.308,173.453C937.953,173.535 937.598,173.617 937.244,173.698C936.843,173.877 936.52,174.346 936.18,174.597C934.791,175.621 933.663,176.628 932.742,178.11C932.273,178.864 932.033,179.997 931.431,180.643C931.435,180.895 931.459,181.061 931.513,181.214C932.302,181.113 932.247,180.144 932.577,179.58C933.266,178.402 934.12,176.786 935.196,175.985C936.622,174.923 938.057,173.909 940.026,173.37C940.408,173.37 940.791,173.37 941.172,173.37C942.135,173.154 943.59,173.351 944.61,173.125C945.996,172.817 947.421,173.351 948.375,173.615C951.737,174.546 953.771,176.541 956.234,178.354C957.023,178.934 957.837,179.603 958.608,180.233C958.861,180.439 959.256,180.951 959.754,180.642C959.809,180.642 959.863,180.642 959.918,180.642C959.526,181.386 958.694,181.911 958.28,182.603C957.363,184.139 956.467,185.81 955.661,187.424C955.58,187.86 955.497,188.296 955.415,188.731C954.387,190.968 953.923,193.589 953.206,196.167C953.103,196.533 953.172,197.816 953.041,198.128C952.959,198.183 952.878,198.237 952.795,198.291C952.524,198.896 952.711,202.381 952.878,202.622C952.878,202.84 952.878,203.058 952.878,203.275C952.775,203.482 952.509,203.398 952.305,203.52C951.86,203.788 951.398,204.657 950.995,204.91C950.857,204.937 950.722,204.964 950.585,204.991C950.285,205.192 950.086,205.613 949.849,205.89C949.585,206.198 949.109,206.377 948.866,206.707C948.407,207.333 947.879,207.962 947.475,208.586C947.393,208.831 947.312,209.077 947.229,209.322C946.695,210.207 946.15,211.222 945.673,212.182C945.488,212.553 945.616,212.923 945.428,213.326C945.277,213.651 944.824,214.128 944.691,214.47C944.665,214.689 944.637,214.907 944.61,215.124C944.063,216.378 943.266,217.61 942.481,218.638C942.082,219.161 942.073,219.846 941.744,220.435C941.636,220.517 941.526,220.599 941.417,220.681C941.022,221.29 940.828,221.877 940.435,222.478C939.02,224.639 936.156,225.313 934.787,227.544C934.597,228.034 934.405,228.524 934.215,229.015C933.344,230.455 932.347,232.119 931.758,233.835C931.336,235.067 931.587,236.629 931.185,237.839C931.027,238.317 930.647,238.853 930.449,239.31C930.099,240.118 929.977,240.892 929.631,241.68C929.521,241.93 929.229,242.241 929.14,242.497C928.871,243.268 928.942,243.944 928.649,244.621C928.195,245.67 927.52,246.767 927.176,247.89C926.679,249.499 926.863,251.483 926.438,253.119C925.694,255.983 924.54,258.312 923.655,260.963C923.358,261.855 923.399,263.05 923.165,263.987C923.165,264.722 923.165,265.457 923.165,266.193C922.896,267.173 922.451,268.328 922.182,269.297C922.156,270.087 922.127,270.877 922.101,271.667C921.953,272.24 921.63,272.764 921.364,273.22C917.738,274.015 914.203,272.592 911.541,271.831C909.395,271.217 907.245,271.003 905.563,269.952C904.704,269.413 903.974,268.6 903.108,268.073C902.42,267.655 901.67,267.455 900.979,267.011C900.872,266.941 900.784,266.743 900.652,266.683C897.875,265.441 894.2,264.162 892.384,262.026C890.853,260.227 888.044,259.158 888.044,255.898C888.071,255.435 888.099,254.972 888.126,254.508C888.376,253.749 889.134,253.328 889.354,252.793C889.545,252.328 889.445,251.914 889.6,251.404C889.917,250.358 890.431,249.28 890.828,248.3C891.234,247.293 891.367,246.383 891.892,245.522C893.438,242.985 895.585,241.007 897.294,238.658C898.642,236.806 899.698,234.819 900.898,232.775C901.934,231.008 902.226,228.812 903.026,226.729C903.398,225.76 904.037,224.711 904.5,223.788C904.926,222.937 905.095,222.164 905.482,221.255C906.018,219.996 906.77,218.657 907.365,217.415C907.392,217.224 907.42,217.034 907.446,216.843C907.734,216.074 908.077,215.274 908.429,214.473C909.002,213.166 909.808,211.87 910.557,210.715C911.451,209.339 911.903,207.77 912.85,206.466C913.106,206.113 913.573,205.841 913.832,205.485C914.389,204.721 914.902,204.037 915.469,203.279C915.793,202.846 916.318,202.528 916.615,202.053C917.353,200.876 917.848,199.646 918.58,198.458C919.313,197.264 920.138,196.064 920.872,194.863C922.084,192.879 922.809,190.631 924.146,188.817C925.692,186.72 929.846,185.75 930.695,183.179C931.266,181.45 929.756,179.601 929.14,178.194C928.735,177.269 928.45,176.509 927.911,175.743C927.642,175.362 927.201,175.059 926.929,174.681C926.69,174.351 926.554,173.914 926.276,173.619C925.342,172.636 924.06,171.842 923.246,170.759C922.85,170.234 922.569,169.662 922.182,169.125C921.608,168.331 920.873,167.744 920.463,166.755C920.874,166.346 921.297,165.866 921.773,165.529C922.093,165.303 922.514,165.268 922.837,165.039C922.991,164.93 923.039,164.69 923.165,164.549C922.989,163.607 922.472,163.956 922.591,162.506C922.718,162.38 922.775,162.119 922.918,162.016C923.265,161.769 923.427,161.804 923.655,161.444C924.564,161.481 925.281,161.969 926.029,162.18C926.301,162.18 926.576,162.18 926.848,162.18C927.729,162.38 928.814,162.343 929.876,162.343C930.285,162.343 930.695,162.343 931.105,162.343C931.445,162.428 932.061,162.585 932.415,162.67C932.96,162.697 933.506,162.725 934.053,162.752C936.199,163.319 938.591,163.933 940.684,164.549C941.437,164.771 942.063,164.663 942.812,164.876C943.385,165.067 943.958,165.258 944.532,165.448C945.363,165.684 946.18,165.624 946.743,166.102C947.736,165.973 947.312,164.978 947.56,164.06C948.136,161.927 949.177,160.349 950.099,158.585C950.638,157.553 951.206,156.427 951.736,155.398C951.844,155.099 951.954,154.799 952.063,154.5C953.012,152.951 953.796,151.47 954.437,149.516C954.792,148.436 954.742,147.207 955.01,146.003C955.211,145.101 954.783,143.919 955.092,143.143C955.618,141.821 956.588,140.749 957.302,139.629C958.655,137.51 959.908,135.329 961.396,133.338C962.045,132.467 963.143,132.042 964.097,131.458C965.648,130.51 967.322,129.291 969.172,128.68C970.423,128.267 973.3,128.752 973.757,127.536C973.814,127.374 972.777,125.79 972.611,125.248C972.417,124.608 972.532,123.985 972.283,123.369C971.749,122.05 970.501,120.633 969.664,119.529C968.809,118.402 967.001,117.923 966.389,116.588C966.212,116.201 966.228,115.906 966.062,115.526C965.668,114.627 965.014,113.678 964.752,112.666C964.503,111.702 964.712,110.214 964.261,109.48C964.261,109.099 964.261,108.717 964.261,108.335C964.07,108.199 963.878,108.063 963.688,107.926C963.169,107.4 962.568,106.714 962.132,106.129C961.694,105.538 961.2,104.763 960.903,104.086C960.723,103.671 960.698,103.033 960.413,102.697C960.326,102.595 960.065,102.585 960.004,102.451C959.606,101.579 960.357,98.603 960.494,98.039C960.622,97.517 960.557,97.17 960.74,96.731C961.303,95.391 962.833,93.226 963.933,92.401C964.22,92.186 964.965,91.831 965.161,91.584C965.344,91.354 965.334,91.021 965.488,90.767C965.854,90.168 966.404,89.382 966.962,88.969C967.512,88.563 968.296,88.181 968.928,87.907C969.277,87.756 969.66,87.741 969.909,87.498C970.247,87.169 970.31,86.609 970.564,86.19C971.615,84.458 972.311,81.964 974.33,81.206C974.893,80.996 975.415,81.127 976.049,80.961C976.58,80.821 977.218,80.621 977.769,80.389C978.805,79.952 979.564,79.203 980.716,78.836C981.487,78.591 983.351,78.976 983.99,78.51C985.182,78.085 984.877,76.061 985.873,75.405C986.602,74.925 987.47,75.783 988.084,75.323C988.671,74.909 988.959,73.396 989.148,72.627C989.279,72.096 989.131,71.525 989.393,71.156C989.509,70.995 989.501,70.984 989.72,70.911C990.836,70.238 991.651,71.859 992.585,71.156C993.29,71.302 993.369,72.212 993.731,72.709C993.974,73.042 994.424,73.16 994.714,73.444C996.002,73.406 997.038,72.563 998.152,72.545C998.56,72.926 998.97,73.307 999.38,73.689C999.742,74.176 999.996,74.851 1000.53,75.16C1001.27,75.598 1002.08,75.393 1002.74,75.977C1002.72,76.858 1002.3,77.271 1001.84,77.693C1002.02,78.797 1003.38,78.883 1003.72,79.818C1004.33,80.761 1002.99,82.434 1002.65,82.841C1002.74,83.627 1003.05,83.558 1003.56,83.903C1003.88,84.127 1004.25,84.796 1004.46,85.128C1005.02,86.022 1005.68,87.03 1006.09,87.988C1006.37,88.627 1006.4,89.263 1006.75,89.867C1006.92,90.175 1007.34,90.379 1007.49,90.766C1007.51,91.174 1007.54,91.583 1007.57,91.992C1007.82,92.91 1008.17,94.73 1007.49,95.587C1007.51,96.53 1008,96.729 1008.55,97.139C1009.61,97.939 1010.44,98.994 1011.82,99.509C1012.78,99.864 1013.62,99.882 1014.12,100.654C1014.46,101.183 1014.22,101.84 1014.44,102.532C1014.46,102.602 1014.67,102.79 1014.69,102.859C1014.89,103.463 1014.75,103.979 1014.93,104.575C1015.26,105.668 1015.57,106.788 1015.83,108.007C1015.83,108.851 1015.83,109.695 1015.83,110.54C1015.98,111.19 1016.31,113.064 1016.08,113.89C1015.86,114.687 1014.31,118.032 1013.79,118.384C1013.5,118.578 1013.02,118.52 1012.72,118.711C1012.11,118.941 1012.1,119.852 1011.74,120.345C1010.86,121.558 1009.01,121.256 1009.04,123.45C1009.28,123.697 1009.45,124.021 1009.69,124.266C1010.25,124.821 1010.81,125.125 1011.17,125.9C1011.53,126.042 1012.07,125.905 1012.56,126.064C1013.26,126.289 1013.95,126.913 1014.52,127.29C1015.17,127.712 1015.91,127.861 1016.57,128.27C1017.38,128.771 1018.27,129.465 1019.11,129.905C1020.14,130.446 1021.25,130.655 1022.3,131.212C1024.24,132.236 1026.31,133.451 1028.2,134.562C1030.23,135.763 1033.22,135.944 1035.24,137.177C1037.53,138.573 1038.36,140.385 1039.82,142.57C1040.34,143.351 1041.06,144.126 1041.54,144.94C1042.43,146.434 1042.77,148.324 1043.42,150.005C1043.98,151.425 1044.92,152.831 1045.47,154.254C1046.04,155.725 1046.49,157.523 1046.94,158.993C1047,159.429 1047.05,159.865 1047.11,160.3C1047.56,161.567 1047.97,163.144 1048.34,164.467C1048.53,165.157 1048.33,166.025 1048.66,166.592C1048.65,167.578 1047.88,167.84 1048.17,169.125C1048.24,169.421 1048.22,169.934 1048.34,170.269C1048.6,171.035 1049.09,171.805 1049.32,172.639C1049.35,173.265 1049.37,173.892 1049.4,174.518C1050.2,177.511 1050.39,180.9 1051.12,183.915C1051.15,184.486 1051.17,185.058 1051.2,185.63C1051.82,187.504 1052.13,189.982 1052.67,191.84C1052.88,192.513 1052.77,192.995 1053,193.637C1053.15,194.036 1053.62,194.274 1053.74,194.618C1053.85,194.942 1053.7,195.56 1053.66,195.762C1053.47,196.635 1053.59,199.191 1053.82,199.847C1054.96,203.043 1056.54,205.713 1057.83,208.672C1058.31,209.756 1058.37,211.168 1058.65,212.349C1058.92,213.478 1058.62,216.522 1058.4,217.333C1057.8,219.656 1057.1,221.676 1055.87,223.379C1055.06,224.492 1053.91,225.472 1053.25,226.729C1052.72,227.727 1052.5,229.195 1052.18,230.324C1051.77,231.795 1052.55,233.706 1052.92,234.491C1053.55,235.794 1053.9,237.019 1054.56,238.331C1055.18,239.58 1055.98,240.706 1056.36,242.253C1056.36,242.907 1056.36,243.56 1056.36,244.214C1056.36,247.487 1054.92,248.881 1052.51,249.689C1051.38,250.069 1050.02,249.553 1048.75,249.853C1047.88,250.057 1047.34,250.398 1046.54,250.588C1046.13,250.588 1045.72,250.588 1045.31,250.588C1043.95,250.899 1040.02,251.375 1039.58,250.016C1039.11,249.309 1039.6,248.098 1039.33,247.156C1039.23,246.807 1038.93,246.597 1038.76,246.339C1038.56,246.032 1038.59,245.735 1038.43,245.359C1038.33,245.122 1038.04,244.93 1037.94,244.706C1037.72,244.189 1037.79,243.395 1037.45,242.99C1037.13,242.389 1036.09,242.269 1035.65,241.764C1034.99,241.001 1034.88,240.023 1034.34,239.15C1034.22,238.968 1033.92,238.785 1033.85,238.578C1033.85,237.734 1033.85,236.89 1033.85,236.045C1033.74,235.563 1033.56,233.959 1033.85,233.512C1033.87,232.41 1035.28,231.67 1035.89,231.06C1037.05,229.917 1039.05,227.412 1039.5,225.667C1039.63,225.161 1039.41,224.58 1039.33,224.278C1039.31,223.788 1039.28,223.298 1039.25,222.807C1039.01,221.94 1038.58,220.882 1038.27,220.029C1037.84,218.838 1037.9,216.925 1037.61,215.699C1037.41,214.838 1037.77,213.928 1037.94,213.411C1038.45,211.89 1038.92,210.817 1038.92,208.835C1038.92,208.399 1038.92,207.963 1038.92,207.528C1038.69,206.683 1038.53,205.596 1038.19,204.75C1037.95,204.188 1037.56,203.599 1037.37,203.035C1037.1,202.244 1037.21,201.591 1036.96,200.747C1036.67,199.772 1036.32,198.62 1035.89,197.642C1035.28,196.21 1034.3,194.599 1033.93,192.984C1033.79,192.932 1033.85,192.968 1033.77,192.903C1033.74,192.903 1033.71,192.903 1033.68,192.903C1033.47,193.838 1033.12,194.76 1032.87,195.681C1032.84,196.144 1032.81,196.607 1032.78,197.07C1032.69,197.413 1032.55,198.082 1032.46,198.46C1032.46,198.732 1032.46,199.005 1032.46,199.276C1032.29,199.866 1031.92,200.634 1031.72,201.237C1031.03,203.329 1030.47,205.394 1029.67,207.284C1029.5,207.693 1029.59,208.052 1029.43,208.509C1029.19,209.186 1028.75,209.924 1028.53,210.633C1028.34,211.257 1028.39,211.722 1028.12,212.267C1027.7,213.102 1027.03,213.962 1026.65,214.801C1026.54,215.863 1026.43,216.925 1026.32,217.987C1026.04,218.827 1025.45,219.835 1025.09,220.684C1024.43,222.26 1024.76,225.732 1024.76,227.874C1024.76,228.753 1024.63,229.947 1025.01,230.488C1025.01,234.71 1025.01,238.932 1025.01,243.152C1024.55,242.986 1023.22,241.254 1022.88,240.783C1022.65,240.468 1022.17,240.208 1021.98,239.884C1021.95,239.748 1021.92,239.612 1021.9,239.475C1021.66,239.136 1021.16,238.913 1020.92,238.577C1020,237.322 1019.22,236.047 1018.3,234.819C1017.96,234.371 1017.37,234.078 1016.99,233.675C1016.59,233.267 1016.38,232.711 1015.92,232.367C1015.78,232.259 1015.55,232.249 1015.43,232.122C1015.27,231.95 1015.24,231.659 1015.1,231.469C1014.86,231.143 1014.44,230.892 1014.2,230.57C1013.64,229.799 1012.93,228.726 1012.16,228.201C1011.19,227.544 1010.33,226.787 1009.37,226.159C1009,225.912 1008.64,225.848 1008.31,225.587C1008.03,225.365 1007.84,224.939 1007.57,224.688C1006.16,223.345 1004.95,221.809 1003.64,220.357C1003.56,220.139 1003.48,219.921 1003.4,219.703C1003.32,219.649 1003.24,219.594 1003.15,219.54C1002.87,219.085 1002.84,218.608 1002.58,218.15C1002.48,217.981 1002.18,217.898 1002.09,217.742C1002.01,217.47 1001.93,217.197 1001.84,216.925C1001.74,216.843 1001.63,216.761 1001.52,216.679C1001.21,216.148 1001.17,215.656 1000.86,215.127C1000.71,214.861 1000.3,214.67 1000.13,214.392C1000.02,214.092 999.905,213.792 999.797,213.493C999.62,213.238 999.237,213.029 999.061,212.758C998.684,212.178 998.619,211.534 998.243,210.96C997.865,210.384 997.183,209.882 996.769,209.326C996.168,208.519 995.665,207.414 994.885,206.792C994.885,206.738 994.885,206.683 994.885,206.629C997.968,207.321 1000.97,208.59 1003.97,209.407C1004.61,209.579 1006.5,209.363 1007.08,209.243C1007.68,209.243 1008.28,209.243 1008.88,209.243C1010.06,209.06 1011.58,209.239 1012.73,208.998C1013.36,208.998 1013.99,208.998 1014.62,208.998C1014.88,208.94 1015.48,209.006 1015.84,208.916C1016.47,208.763 1017.22,208.454 1017.81,208.262C1018.16,208.18 1018.52,208.099 1018.87,208.016C1019.35,207.716 1019.69,206.924 1020.02,206.464C1021.19,204.836 1022.09,202.75 1023.05,200.907C1023.39,200.243 1023.58,199.443 1024.03,198.865C1023.98,198.606 1023.96,198.627 1023.87,198.457C1023.21,198.59 1023.21,199.225 1022.97,199.764C1022.58,200.612 1022.11,201.513 1021.65,202.379C1021.16,203.321 1020.76,204.467 1020.18,205.402C1019.92,205.813 1019.48,206.162 1019.2,206.546C1019.01,206.804 1018.88,207.26 1018.63,207.445C1017.64,207.744 1016.66,208.044 1015.68,208.344C1014.48,208.37 1013.28,208.398 1012.08,208.425C1009.46,208.562 1006.84,208.697 1004.22,208.834C1002.69,208.51 1001.02,207.852 999.552,207.363C998.266,206.935 996.987,206.658 995.786,206.219C995.395,206.076 994.738,205.859 994.475,206.137C994.097,205.747 993.973,205.302 993.657,204.83C993.237,204.202 992.609,203.579 992.183,202.951C991.867,202.484 991.409,201.64 991.201,201.154C991.174,200.963 991.146,200.772 991.119,200.582C991.01,200.5 990.901,200.418 990.792,200.336C990.228,199.337 990.054,198.279 989.564,197.231C989.408,196.898 988.893,196.245 988.745,195.924C988.745,195.76 988.745,195.597 988.745,195.434C988.651,195.162 988.363,194.769 988.254,194.535C987.868,193.705 987.831,192.391 987.272,191.757C987.475,191.408 987.914,191.489 988.336,191.349C989.373,191.006 990.519,190.691 991.61,190.287C993.839,189.462 996.493,188.926 998.978,188.326C1000.26,188.015 1001.63,188.188 1002.83,187.917C1004.73,187.485 1007.89,187.887 1009.38,187.1C1009.33,186.531 1009.05,186.15 1008.88,185.711C1008.69,185.14 1008.5,184.567 1008.31,183.995C1007.9,183.373 1005.76,182.298 1005.04,181.789C1002.14,179.757 999.181,177.691 996.278,175.662C995.385,175.037 994.476,174.554 993.577,173.946C993.406,173.831 993.238,173.455 993.086,173.374C992.702,173.17 992.669,173.522 992.43,173.292C992.241,173.353 992.247,173.377 992.103,173.456C992.329,173.977 993.194,174.291 993.659,174.6C994.766,175.338 995.897,176.105 997.015,176.888C999.56,178.671 1002.16,180.5 1004.71,182.281C1005.48,182.817 1006.25,183.331 1007,183.833C1007.23,183.983 1007.56,184.046 1007.74,184.242C1008.2,184.752 1008.1,185.781 1008.56,186.284C1008.56,186.311 1008.56,186.339 1008.56,186.366C1008.07,186.204 1007.79,185.811 1007.41,185.55C1006.08,184.621 1004.78,183.682 1003.48,182.772C999.705,180.13 995.949,177.58 992.183,174.928C990.802,173.956 989.636,172.252 987.026,172.803C986.462,172.923 985.56,172.615 985.143,172.885C984.76,172.885 984.378,172.885 983.997,172.885C984.259,172.201 984.263,171.242 984.243,170.27C985.347,170.264 986.295,169.884 986.938,169.37ZM973.186,87.089C972.651,87.308 972.135,87.316 971.629,87.58C971.216,87.796 970.799,88.235 970.402,88.479C969.734,88.888 968.771,88.857 968.11,89.296C967.432,89.743 967.04,90.995 966.47,91.584C966.33,91.73 966.07,91.709 965.899,91.83C965.626,92.184 965.353,92.538 965.08,92.892C963.973,93.715 962.998,94.181 962.216,95.343C961.715,96.086 961.312,97.01 961.07,97.957C961.042,98.339 961.015,98.72 960.987,99.101C960.875,99.547 960.616,100.716 960.824,101.389C960.945,101.782 961.321,102.231 961.479,102.615C961.915,103.675 962.024,104.697 962.625,105.556C962.909,105.964 963.389,106.231 963.688,106.618C963.911,106.617 964.064,106.615 964.179,106.537C964.759,106.297 965.045,103.806 964.752,102.778C964.506,101.916 963.43,101.508 963.033,100.736C962.167,99.052 963.253,95.761 964.096,94.935C964.26,94.881 964.424,94.827 964.587,94.772C964.724,94.609 964.859,94.445 964.997,94.281C965.546,93.91 967.415,93.1 968.108,92.974C968.431,92.915 968.677,93.25 968.926,93.219C970.084,93.074 971.486,92.77 972.61,92.484C973.128,92.429 973.647,92.375 974.165,92.321C977.976,91.401 982.213,92.02 985.79,92.893C987.509,93.165 989.228,93.437 990.947,93.71C993.909,94.668 996.951,95.728 999.625,96.897C1000.41,97.241 1001.16,97.396 1001.92,97.796C1002.45,98.08 1002.96,98.616 1003.47,98.94C1004.81,99.779 1006.16,100.614 1007.32,101.636C1007.69,101.958 1007.72,102.671 1008.06,103.025C1008.01,103.284 1007.99,103.263 1007.89,103.434C1006.74,103.25 1006.43,102.392 1005.6,101.963C1005.01,101.656 1004.35,101.639 1003.88,101.227C1003.83,101.227 1003.77,101.227 1003.72,101.227C1003.71,103.722 1003.39,105.923 1003.39,108.581C1003.39,109.507 1003.39,110.433 1003.39,111.359C1003.55,112.046 1003.78,112.894 1003.97,113.565C1003.99,113.81 1004.02,114.056 1004.05,114.3C1004.94,116.284 1007.17,119.051 1009.04,120.02C1009.04,120.047 1009.04,120.074 1009.04,120.102C1009.07,120.102 1009.1,120.102 1009.12,120.102C1010.08,119.339 1011.03,118.577 1011.99,117.814C1012.29,117.407 1012.5,116.994 1012.81,116.589C1013.16,116.115 1013.76,115.755 1014.12,115.282C1014.41,114.888 1014.69,114.414 1015.1,114.137C1015.08,111.515 1015.22,109.054 1014.69,106.947C1014.52,106.291 1014.7,105.846 1014.52,105.231C1014.39,104.743 1014.11,104.146 1013.95,103.679C1013.84,103.188 1013.73,102.698 1013.62,102.208C1013.41,101.7 1012.96,101.295 1012.81,100.737C1010.31,100.734 1009.6,99.807 1008.22,98.776C1007.67,98.364 1006.88,97.877 1006.5,97.305C1006.09,96.67 1006.11,95.378 1005.52,94.935C1004.93,94.496 1004.26,94.267 1003.64,93.873C1002.5,93.154 1001.35,92.294 1000.2,91.585C999.539,91.178 998.802,91.008 998.07,90.687C996.593,90.037 995.066,89.185 993.568,88.562C992.764,88.229 992.023,88.185 991.193,87.909C988.86,87.132 986.19,86.581 983.579,85.948C982.488,85.894 981.396,85.839 980.306,85.784C979.812,85.757 979.014,85.903 978.668,85.702C976.857,85.731 974.588,86.517 973.186,87.089ZM965.899,94.852C965.507,95.337 964.862,95.633 964.424,96.078C963.859,96.654 963.342,98.499 963.361,99.673C964.036,100.278 964.543,101.146 964.999,101.961C965.683,101.876 965.897,101.39 966.554,101.225C966.894,99.822 966.393,99.192 966.063,98.12C965.746,97.086 965.954,95.776 966.145,94.852C966.063,94.852 965.98,94.852 965.899,94.852ZM1011.99,106.373C1011.99,106.781 1011.99,107.19 1011.99,107.599C1011.84,108.188 1011.53,109.382 1011.74,110.295C1011.95,111.163 1012.35,112.017 1012.56,112.828C1012.71,113.4 1012.6,116.078 1012.4,116.342C1012.37,116.396 1012.34,116.451 1012.32,116.505C1011.05,116.484 1011.15,114.995 1010.84,114.054C1010.43,112.814 1010.34,111.567 1010.68,110.132C1010.68,109.342 1010.68,108.552 1010.68,107.763C1010.92,106.656 1011.14,105.716 1011.5,104.821C1011.75,104.197 1011.81,103.071 1012.32,102.697C1012.19,103.85 1012.23,105.259 1011.99,106.373ZM988.657,109.314C988.657,109.341 988.657,109.368 988.657,109.396C988.383,109.82 988.553,110.36 988.412,110.949C987.943,112.914 988.013,115.285 987.43,117.158C986.537,120.023 981.875,122.794 978.097,122.796C976.753,122.796 973.869,122.871 973.104,122.387C972.94,122.387 972.777,122.387 972.613,122.387C973.009,123.335 973.085,124.644 973.513,125.656C973.73,126.166 974.32,126.565 974.495,127.045C974.495,127.263 974.495,127.481 974.495,127.699C974.577,127.863 974.834,127.837 974.986,127.944C975.328,128.185 975.807,128.747 976.049,129.088C976.537,129.772 976.658,130.647 977.113,131.376C977.798,132.471 978.615,133.545 979.406,134.562C980.685,136.209 983.232,136.714 984.481,138.402C985.144,139.299 985.903,140.88 986.774,141.507C988.782,142.954 994.505,143.961 997.17,142.242C997.84,141.809 998.642,141.344 999.299,140.853C999.832,140.453 1000.23,139.775 1000.77,139.382C1001.27,139.022 1001.8,138.804 1002.16,138.32C1003.13,137.026 1004.04,135.551 1004.95,134.235C1004.98,134.126 1005,134.017 1005.03,133.908C1005.34,133.531 1005.94,133.231 1006.26,132.846C1006.74,132.26 1007.26,131.523 1007.65,130.885C1008.28,129.861 1008.73,128.535 1009.12,127.371C1009.32,126.777 1009.28,126.102 1009.62,125.656C1009.62,125.465 1009.62,125.275 1009.62,125.084C1009.24,124.258 1008.39,124.568 1008.39,123.042C1008.39,122.77 1008.39,122.497 1008.39,122.225C1008.43,122.08 1008.63,121.875 1008.71,121.735C1007.49,120.939 1005.64,119.442 1004.78,118.303C1004.21,117.544 1003.35,116.083 1002.57,115.606C1002.13,115.337 1001.53,115.514 1000.94,115.361C1000.26,115.188 999.529,115.052 998.888,114.789C996.788,113.924 994.771,112.918 992.912,111.766C992.615,111.582 992.301,111.2 992.012,111.031C991.283,110.605 989.802,109.898 989.311,109.315C989.095,109.314 988.875,109.314 988.657,109.314ZM1049.32,248.79C1049.83,248.434 1050.09,247.736 1050.47,247.237C1050.76,246.845 1051.29,246.632 1051.69,246.338C1052.19,245.982 1052.8,245.162 1053.09,244.622C1053.64,243.568 1053.6,242.131 1054.15,241.027C1054.29,241.054 1054.42,241.081 1054.56,241.109C1054.86,242.749 1053.63,245.081 1052.92,246.093C1052.54,246.639 1051.82,246.998 1051.29,247.4C1050.74,247.815 1050.54,248.633 1049.97,249.034C1049.97,249.088 1049.97,249.143 1049.97,249.198C1053.66,249.218 1055.71,247.703 1055.7,243.969C1055.68,243.37 1055.65,242.771 1055.62,242.172C1055.3,241.118 1054.73,240.165 1054.23,239.312C1053.81,238.595 1053.7,237.802 1053.33,237.024C1052.88,236.078 1052.24,235.12 1051.86,234.083C1051.64,233.494 1051.27,230.936 1051.53,229.998C1051.73,229.271 1052.05,228.229 1052.27,227.547C1052.29,227.329 1052.32,227.111 1052.35,226.893C1053.07,225.411 1054.3,224.322 1055.21,223.053C1056.17,221.726 1056.59,220.297 1057.26,218.641C1057.79,217.347 1058,216.013 1058,214.065C1058,213.602 1058,213.139 1058,212.676C1057.71,211.494 1057.65,210.085 1057.18,208.999C1055.88,206.029 1054.32,203.388 1053.17,200.175C1052.83,199.245 1053,197.434 1053,196.252C1053.03,195.817 1053.06,195.381 1053.08,194.945C1052.98,194.702 1052.49,194.349 1052.35,193.965C1052.12,193.322 1052.22,192.84 1052.02,192.167C1051.42,190.146 1050.97,187.568 1050.46,185.467C1050.46,185.058 1050.46,184.65 1050.46,184.242C1050.07,182.608 1050.01,180.805 1049.56,179.095C1049.17,177.597 1049.02,175.846 1048.66,174.356C1048.66,173.893 1048.66,173.43 1048.66,172.967C1048.43,172.134 1047.95,171.363 1047.68,170.597C1047.54,170.203 1047.36,167.781 1047.6,167.41C1047.6,167.383 1047.6,167.356 1047.6,167.329C1044.11,167.38 1040.63,168.076 1037.94,168.963C1037.5,169.109 1037.22,168.982 1036.79,169.127C1036.19,169.334 1035.45,169.58 1034.83,169.862C1033.9,170.284 1033.07,171.052 1032.21,171.578C1031.14,172.226 1029.14,172.766 1028.44,173.702C1027.75,173.369 1027.5,172.351 1027.21,171.578C1027.06,171.158 1026.71,170.509 1026.56,170.025C1026.35,169.324 1026.64,167.962 1026.4,167.329C1026.09,166.521 1026.01,164.954 1025.99,163.897C1025.97,162.858 1026.23,159.254 1025.74,158.831C1025.66,158.766 1025.72,158.801 1025.58,158.75C1025.49,158.815 1025.56,158.779 1025.41,158.831C1025.12,160.378 1025.17,163.134 1025.5,164.551C1025.52,165.477 1025.55,166.403 1025.58,167.329C1025.6,167.389 1025.81,167.534 1025.82,167.574C1025.85,168.364 1025.88,169.154 1025.9,169.944C1026.09,170.654 1026.36,171.49 1026.64,172.232C1027.04,173.271 1028.04,174.003 1028.44,175.092C1028.84,176.158 1028.98,177.184 1029.34,178.279C1030.25,181.017 1031.13,183.953 1032.05,186.695C1032.5,188.062 1032.8,189.414 1033.27,190.699C1033.35,191.053 1033.44,191.407 1033.52,191.761C1033.75,192.192 1034.33,192.287 1034.58,192.66C1034.98,193.243 1035.03,194.017 1035.32,194.702C1035.85,195.99 1036.5,197.325 1037.04,198.624C1037.59,199.947 1037.54,201.61 1038.1,202.955C1038.89,204.834 1039.58,206.292 1039.58,209.083C1039.58,209.6 1039.58,210.118 1039.58,210.635C1039.21,212.014 1038.59,213.252 1038.27,214.72C1038.11,215.41 1038.46,216.312 1038.59,216.845C1038.62,217.471 1038.65,218.098 1038.67,218.724C1039.01,219.976 1039.57,221.286 1039.9,222.483C1039.93,222.973 1039.96,223.463 1039.98,223.954C1040.74,226.886 1038.76,228.447 1037.61,230C1036.82,231.066 1035.59,232.549 1034.5,233.269C1034.48,234.357 1034.5,235.506 1034.5,236.619C1034.5,237.164 1034.5,237.709 1034.5,238.253C1034.57,238.461 1034.88,238.644 1034.99,238.825C1035.45,239.571 1035.55,240.451 1036.05,241.113C1036.6,241.817 1037.93,241.927 1038.26,242.829C1038.29,243.101 1038.32,243.374 1038.35,243.646C1038.51,244.161 1038.9,244.602 1039.08,245.035C1039.11,245.226 1039.14,245.417 1039.16,245.607C1039.36,246.027 1039.84,246.341 1039.98,246.833C1040.26,247.785 1039.78,248.964 1040.23,249.692C1040.39,250.037 1042.43,250.586 1043.01,250.182C1043.12,250.182 1043.23,250.182 1043.34,250.182C1043.26,250.108 1043.2,250.072 1043.09,250.019C1043.16,249.028 1043.88,248.513 1044.32,247.895C1045.07,246.851 1045.84,245.876 1046.61,244.872C1046.91,244.492 1047.47,244.284 1047.76,243.891C1048.02,243.546 1048.71,241.978 1048.99,241.848C1049.07,241.783 1049.01,241.818 1049.15,241.766C1049.24,241.832 1049.17,241.797 1049.32,241.848C1049.5,242.848 1048.85,243.357 1048.41,243.973C1047.38,245.438 1045.95,246.606 1044.89,248.059C1044.45,248.665 1044.12,249.677 1043.5,250.101C1043.5,250.128 1043.5,250.156 1043.5,250.183C1044.4,249.996 1045.78,250.139 1046.69,249.856C1046.97,249.77 1047.19,249.455 1047.43,249.366C1047.99,249.165 1048.66,249.193 1049.32,249.202C1049.32,249.063 1049.32,248.926 1049.32,248.79ZM968.438,159.565C968.362,159.641 968.327,159.707 968.273,159.81C967.404,160.143 966.002,159.957 965,160.219C963.81,160.529 962.494,161.022 961.397,161.444C960.845,161.657 960.388,161.64 959.84,161.853C959.079,162.149 958.15,162.6 957.385,162.915C956.888,163.121 956.481,163.135 956.075,163.406C955.465,163.813 955.02,164.757 954.273,164.958C954.273,164.985 954.273,165.012 954.273,165.04C954.247,165.04 954.219,165.04 954.192,165.04C954.192,165.013 954.192,164.986 954.192,164.958C954.111,164.931 954.028,164.903 953.946,164.876C954.01,163.744 956.01,162.744 956.975,162.343C960.03,161.074 964.103,159.195 968.272,159.238C968.328,159.347 968.383,159.456 968.438,159.565ZM931.024,164.14C930.001,164.14 928.712,164.034 927.832,164.222C926.975,164.405 925.092,163.923 924.476,164.304C924.277,164.411 924.418,164.265 924.312,164.467C924.246,164.551 924.282,164.488 924.229,164.631C924.295,164.714 924.26,164.651 924.312,164.794C926.414,165.002 929.145,164.712 931.434,164.712C932.065,164.712 933.911,164.871 934.299,164.63C934.844,164.64 935.367,164.638 935.692,164.466C935.645,164.208 935.62,164.229 935.528,164.058C934.026,164.085 932.525,164.113 931.024,164.14ZM979.161,172.965C978.936,172.677 978.985,172.094 978.834,171.739C978.17,170.193 977.537,168.418 976.869,166.837C976.606,166.216 976.538,165.442 976.132,164.958C976.137,164.706 976.161,164.539 976.213,164.386C977.081,164.431 977.186,165.773 977.442,166.429C977.945,167.717 978.357,169.09 978.915,170.432C979.244,171.222 979.711,171.999 979.816,173.047C979.563,173.052 979.299,173.058 979.161,172.965ZM972.612,168.716C973.067,169.769 973.653,170.831 974.167,171.82C974.381,172.23 974.448,172.722 974.74,173.046C974.74,173.073 974.74,173.101 974.74,173.128C974.468,173.128 974.195,173.128 973.922,173.128C973.8,173.04 973.542,172.033 973.43,171.82C972.915,170.84 972.307,169.724 971.875,168.633C971.715,168.23 971.176,167.281 971.466,166.836C971.466,166.782 971.466,166.727 971.466,166.673C971.603,166.645 971.738,166.618 971.875,166.59C972.224,167.241 972.314,168.03 972.612,168.716ZM968.52,172.311C967.944,171.508 967.295,170.579 966.882,169.615C966.657,169.092 966.622,168.563 966.309,168.144C966.309,167.753 966.355,167.626 966.471,167.408C967.128,167.483 967.17,168.447 967.373,168.961C967.71,169.817 968.169,170.828 968.682,171.576C969.032,172.082 969.646,172.548 969.746,173.291C968.76,173.299 968.908,172.855 968.52,172.311ZM990.622,174.436C991.812,175.271 993.008,176.116 994.225,176.969C997.304,179.128 1000.37,181.326 1003.48,183.506C1004.58,184.283 1005.7,185.079 1006.83,185.875C1007.19,186.13 1007.51,186.541 1007.98,186.692C1007.98,186.747 1007.98,186.801 1007.98,186.856C1006.67,186.883 1005.3,187.003 1004.13,187.265C1002.36,187.428 1000.58,187.592 998.808,187.755C996.723,188.256 994.412,188.757 992.504,189.389C991.26,189.801 990.063,190.104 988.902,190.533C988.46,190.697 987.955,190.697 987.592,190.941C986.936,190.836 986.618,190.081 986.281,189.634C985.115,188.085 983.695,186.711 982.516,185.14C981.682,184.03 980.565,183.064 979.731,181.953C979.313,181.396 978.849,180.521 978.258,180.156C977.71,179.817 977.06,179.76 976.457,179.502C975.423,179.06 974.261,178.36 973.183,178.032L966.06,178.032C964.833,178.354 963.452,178.833 962.294,179.257C961.45,179.567 960.268,179.637 959.593,180.156C958.782,179.986 958.221,179.119 957.628,178.685C956.033,177.517 954.543,176.128 952.88,175.09C952.88,175.035 952.88,174.981 952.88,174.926C956.329,174.869 959.38,173.988 962.948,174.028C964.443,175.589 965.816,176.999 968.516,175.662C969.444,177.149 971.262,177.693 973.263,176.887C973.667,176.724 974.028,176.726 974.327,176.478C974.949,176.477 974.906,176.718 975.063,177.132C977.209,177.606 979.049,176.522 979.157,174.435C979.183,174.435 979.212,174.435 979.239,174.435C979.239,174.408 979.239,174.38 979.239,174.353C979.72,174.46 979.887,174.87 980.303,175.007C980.967,175.225 983.107,174.504 983.413,174.271C983.55,173.999 983.686,173.727 983.823,173.454C985.542,173.399 987.261,173.345 988.98,173.29C989.375,173.795 990.095,174.064 990.622,174.436ZM979.161,173.7C979.161,173.674 979.161,173.646 979.161,173.619C979.379,173.619 979.597,173.619 979.816,173.619C979.595,173.924 979.461,173.864 979.161,173.7ZM974.986,175.743C974.891,175.974 974.975,175.897 974.74,175.989C974.738,175.989 974.741,176.152 974.659,176.07C974.659,176.043 974.659,176.016 974.659,175.989C974.576,175.961 974.495,175.935 974.413,175.907C974.423,175.286 974.511,174.348 974.249,173.946C974.249,173.892 974.249,173.837 974.249,173.783C974.468,173.755 974.687,173.728 974.904,173.7C975.041,174.076 975.261,175.337 974.986,175.743ZM969.746,176.069C969.721,176.124 969.692,176.178 969.665,176.233C969.405,176.187 969.427,176.161 969.256,176.069C969.282,175.334 969.31,174.599 969.337,173.863C969.556,173.863 969.774,173.863 969.993,173.863C970.003,174.593 970.077,175.643 969.746,176.069ZM974.004,179.011C974.923,179.408 975.952,179.925 976.869,180.318C977.271,180.491 977.673,180.495 978.015,180.727C978.337,180.945 978.517,181.393 978.752,181.708C979.485,182.688 980.374,183.566 981.126,184.567C982.418,186.288 983.994,187.812 985.302,189.551C985.638,189.999 986.238,190.384 986.53,190.859C986.585,191.24 986.639,191.622 986.693,192.003C987.146,192.953 987.62,194.199 988.004,195.189C988.135,195.528 988.03,195.734 988.167,196.088C988.376,196.623 988.918,197.267 989.15,197.804C989.968,199.695 990.617,201.486 991.605,203.197C991.704,203.367 992.001,203.459 992.096,203.605C992.217,203.791 992.143,204.003 992.26,204.176C992.484,204.509 992.931,204.83 993.16,205.157C993.215,205.348 993.268,205.538 993.323,205.729C993.488,205.865 993.651,206.001 993.815,206.138C994.616,207.483 995.519,208.646 996.434,209.897C996.781,210.371 997.426,210.804 997.745,211.286C998.111,211.842 998.142,212.412 998.481,213.002C998.677,213.345 999.185,213.647 999.381,213.983C999.636,214.42 999.657,214.837 999.954,215.209C1000.06,215.263 1000.17,215.318 1000.28,215.372C1000.64,215.871 1000.68,216.478 1001.02,217.007C1001.13,217.088 1001.24,217.17 1001.35,217.252C1001.43,217.524 1001.51,217.797 1001.59,218.069C1001.77,218.351 1002.14,218.667 1002.33,218.967C1002.69,219.538 1002.76,220.148 1003.15,220.683C1003.28,220.764 1003.42,220.846 1003.55,220.928C1004.05,221.536 1004.4,222.173 1004.87,222.807C1005.53,223.719 1006.52,224.467 1007.32,225.258C1007.71,225.637 1008.01,226.186 1008.47,226.484C1008.66,226.539 1008.85,226.593 1009.04,226.648C1009.33,226.854 1009.63,227.263 1009.94,227.465C1010.12,227.583 1010.32,227.511 1010.51,227.628C1010.67,227.723 1010.7,228.003 1010.84,228.118C1011.1,228.341 1011.58,228.476 1011.82,228.69C1012.07,228.909 1012.23,229.295 1012.48,229.507C1012.75,229.74 1013.17,229.953 1013.38,230.243C1013.92,231.012 1014.36,231.707 1014.93,232.449C1015.21,232.639 1015.48,232.83 1015.75,233.02C1016.06,233.318 1016.22,233.649 1016.49,234C1016.65,234.109 1016.81,234.218 1016.98,234.327C1017.53,235.021 1018.29,235.645 1018.78,236.369C1018.86,236.587 1018.94,236.805 1019.02,237.023C1020.12,238.638 1021.5,240.065 1022.63,241.68C1023.03,242.034 1023.45,242.388 1023.86,242.742C1024.22,243.232 1024.52,243.759 1025,244.131C1024.99,246.837 1024.2,248.7 1023.45,250.668C1023.16,251.415 1023.25,252.186 1022.95,252.956C1022.87,253.178 1022.54,253.386 1022.46,253.609C1022.23,254.269 1022.42,254.754 1022.22,255.407C1022.13,255.678 1021.83,255.979 1021.73,256.223C1021.7,256.441 1021.67,256.659 1021.64,256.877C1021.36,257.565 1020.98,258.41 1020.58,259.084C1020.06,259.962 1019.58,260.942 1019.03,261.862C1018.84,262.175 1018.42,262.5 1018.29,262.842C1017.99,263.62 1018.13,265.19 1018.13,266.193C1018.13,268.454 1018.13,270.714 1018.13,272.974C1018,273.088 1017.89,273.239 1017.8,273.383C1017.09,273.539 1016.11,273.697 1015.42,273.873C1015.21,273.873 1014.99,273.873 1014.77,273.873C1014.54,273.954 1014.21,274.26 1013.95,274.364C1013.49,274.473 1013.02,274.582 1012.56,274.691C1012.27,274.8 1011.81,275.075 1011.5,275.181C1011.02,275.341 1010.61,275.237 1010.19,275.426C1010.06,275.482 1009.96,275.698 1009.86,275.753C1009.18,275.917 1008.49,276.08 1007.81,276.243C1007.61,276.337 1007.43,276.639 1007.24,276.734C1007.05,276.761 1006.86,276.788 1006.67,276.815C1006.61,276.841 1006.49,277.036 1006.42,277.06C1005.79,277.275 1005.32,277.023 1004.7,277.224C1001.74,278.183 998.196,278.642 995.45,279.839C995.069,280.005 994.465,279.875 994.057,280.003C992.804,280.394 991.16,280.811 989.883,281.229C989.61,281.229 989.335,281.229 989.063,281.229C988.797,281.302 987.578,281.662 987.344,281.801C987.16,281.688 987.093,281.259 987.017,281.066C985.852,281.137 984.659,281.561 983.661,281.801C983.415,281.801 983.169,281.801 982.925,281.801C982.519,281.901 981.931,282.111 981.532,282.21C981.042,282.237 980.551,282.265 980.058,282.292C978.35,282.757 976.671,282.946 974.492,282.946C972.446,282.946 970,283.164 968.761,282.374C968.641,281.737 968.925,281.085 968.843,280.494C968.767,279.934 968.453,278.205 968.761,277.308C968.904,276.896 969.345,276.335 969.498,275.919C969.581,275.456 969.662,274.993 969.743,274.529C969.845,274.323 970.081,274.078 970.152,273.794L970.152,269.464C970.105,269.298 969.872,269.114 969.825,268.974C969.57,268.207 969.902,267.461 969.662,266.768C969.071,265.057 968.622,262.984 967.942,261.375C967.888,260.94 967.834,260.503 967.779,260.068C967.697,260.014 967.616,259.959 967.533,259.904C967.308,259.382 967.529,258.829 967.288,258.352C967.206,258.298 967.124,258.243 967.042,258.189C966.844,257.741 967.049,257.356 966.879,256.881C966.835,256.761 966.592,256.648 966.551,256.554C966.496,256.01 966.443,255.465 966.387,254.92C966.3,254.651 966.066,254.02 965.978,253.695C965.978,253.395 965.978,253.096 965.978,252.796C965.877,252.486 965.588,252.051 965.487,251.652C965.487,251.298 965.487,250.944 965.487,250.59C965.446,250.47 965.2,250.356 965.16,250.263C965.16,249.936 965.16,249.609 965.16,249.283C965.024,248.736 964.802,248.048 964.669,247.567C964.643,247.213 964.614,246.859 964.587,246.505C964.54,246.347 964.307,246.203 964.26,246.096C964.063,245.643 964.241,245.253 964.096,244.789C964.044,244.623 963.818,244.44 963.769,244.299C963.54,243.625 963.858,243.052 963.605,242.42C963.566,242.323 963.317,242.132 963.278,242.012C963.251,241.549 963.224,241.086 963.196,240.623C962.866,239.409 962.544,237.852 962.215,236.619C962.215,236.075 962.215,235.529 962.215,234.985C962.161,234.804 961.939,234.593 961.887,234.413C961.887,233.869 961.887,233.324 961.887,232.779C961.746,232.252 961.921,231.091 961.723,230.491C961.703,230.431 961.494,230.287 961.478,230.246C961.478,229.864 961.478,229.483 961.478,229.101C961.478,228.141 961.486,227.047 961.314,226.323C961.314,225.37 961.314,224.416 961.314,223.463C961.265,223.29 961.036,223.041 960.986,222.891C960.986,222.537 960.986,222.183 960.986,221.828C960.986,221.253 960.919,220.719 960.823,220.358C960.823,219.814 960.823,219.269 960.823,218.724C960.775,218.55 960.544,218.303 960.495,218.152C960.495,217.853 960.495,217.553 960.495,217.254C960.278,216.441 959.923,215.653 959.514,214.966C959.213,214.694 958.913,214.421 958.613,214.149C957.849,213.386 957.2,212.691 956.567,211.78C956.403,211.542 955.96,211.389 955.83,211.127C955.83,210.99 955.83,210.854 955.83,210.718C955.752,210.485 955.511,210.248 955.421,210.064C955.366,209.737 955.313,209.411 955.258,209.084C955.2,208.92 954.991,208.792 954.93,208.675C954.757,208.342 954.892,208.012 954.766,207.612C954.716,207.454 954.488,207.312 954.439,207.203C954.231,206.736 954.459,206.333 954.275,205.814C954.233,205.691 953.992,205.583 953.948,205.487C953.922,205.133 953.894,204.779 953.866,204.425C953.817,204.237 953.584,203.976 953.539,203.853C953.566,203.608 953.594,203.363 953.621,203.117C953.585,202.931 953.416,202.531 953.376,202.382C953.376,201.102 953.376,199.821 953.376,198.542C953.418,198.438 953.658,198.29 953.703,198.133C953.703,197.534 953.703,196.934 953.703,196.336C954.081,194.816 954.641,193.135 955.095,191.679C955.149,191.325 955.204,190.971 955.259,190.616C955.347,190.428 955.59,190.057 955.668,189.799C955.668,189.636 955.668,189.472 955.668,189.308C955.71,189.214 955.949,189.101 955.996,188.982C956.152,188.569 956.003,188.267 956.159,187.837C956.241,187.609 956.545,187.339 956.649,187.102C957.332,185.549 957.971,184.191 958.86,182.853C959.051,182.689 959.243,182.526 959.432,182.363C959.902,181.687 960.553,180.571 961.234,180.157C961.806,179.993 962.38,179.83 962.953,179.667C963.951,179.298 965.178,178.887 966.228,178.604C968.465,178.604 970.704,178.604 972.941,178.604C973.234,178.833 973.632,178.851 974.004,179.011ZM1045.14,202.789C1045.1,202.905 1044.33,203.195 1044.16,203.279C1043.9,203.412 1042.47,204.38 1042.28,204.586C1041.94,204.952 1042,205.556 1041.79,206.057C1041.67,206.326 1041.44,206.589 1041.3,206.874C1041.07,206.865 1040.95,206.841 1040.81,206.791C1040.81,206.229 1041.36,204.738 1041.63,204.34C1041.99,203.804 1044.14,202.313 1044.98,202.298C1045.04,202.413 1045.25,202.538 1045.14,202.789ZM954.602,209.08C954.765,209.443 954.618,209.741 954.765,210.142C954.849,210.368 955.164,210.621 955.257,210.877C955.338,211.104 955.232,211.277 955.338,211.449C955.499,211.708 955.902,211.869 956.075,212.102C956.13,212.293 956.185,212.484 956.238,212.674C956.438,212.962 956.908,213.142 957.139,213.409C958.062,214.478 959.157,215.368 959.758,216.759C959.974,217.257 959.757,217.72 959.922,218.311C959.971,218.485 960.201,218.733 960.25,218.883C960.411,219.392 960.302,220.339 960.413,220.762C960.413,221.525 960.413,222.287 960.413,223.05C960.434,223.118 960.637,223.308 960.659,223.377C960.659,224.275 960.659,225.174 960.659,226.073C960.844,226.864 960.822,228.065 960.822,229.096C960.822,229.505 960.822,229.913 960.822,230.322C960.861,230.442 961.112,230.635 961.15,230.731C961.15,231.412 961.15,232.093 961.15,232.773C961.279,233.218 961.159,234.018 961.313,234.571C961.361,234.745 961.592,234.993 961.64,235.143C961.874,235.876 961.522,237.232 961.803,237.921C961.886,237.976 961.968,238.029 962.049,238.084C962.104,238.656 962.159,239.228 962.214,239.8C962.32,240.203 962.586,240.746 962.704,241.189C962.704,241.543 962.704,241.897 962.704,242.251C962.751,242.409 962.986,242.554 963.032,242.66C963.285,243.252 962.985,243.803 963.195,244.458C963.238,244.593 963.476,244.813 963.522,244.948C963.577,245.41 963.632,245.874 963.686,246.337C963.768,246.392 963.85,246.446 963.932,246.501C964.156,247.025 963.9,247.493 964.095,248.054C964.138,248.174 964.382,248.287 964.422,248.381C964.666,248.945 964.38,249.813 964.586,250.423C964.63,250.553 964.87,250.703 964.914,250.832C964.914,251.159 964.914,251.485 964.914,251.812C964.958,251.99 964.982,252.358 965.077,252.629C965.099,252.69 965.306,252.832 965.322,252.874C965.377,253.419 965.432,253.963 965.486,254.508C966.299,257.549 967.213,260.726 968.188,263.578C968.215,263.905 968.243,264.232 968.269,264.558C968.327,264.777 968.536,264.996 968.597,265.13C968.791,265.563 968.62,265.953 968.76,266.437C968.811,266.611 969.038,266.857 969.088,267.009C969.312,267.681 969.012,268.381 969.252,269.133C969.295,269.267 969.536,269.489 969.58,269.624L969.58,273.627C969.364,274.482 968.703,275.433 968.597,276.405C968.569,276.405 968.541,276.405 968.516,276.405C968.516,276.379 968.516,276.351 968.516,276.324C968.488,276.324 968.46,276.324 968.434,276.324C968.447,275.032 968.893,273.916 969.169,272.892C969.386,272.091 969.039,271.263 969.415,270.685C969.41,270.433 969.386,270.266 969.333,270.113C965.2,269.303 960.498,269.804 956.972,268.315C954.941,267.458 953.205,266.379 951.487,265.21C951.195,265.011 950.967,264.593 950.669,264.393C948.886,263.2 947.035,262.24 945.757,260.553C945.478,260.184 944.928,259.893 944.693,259.49C944.533,259.212 944.6,258.957 944.448,258.673C944.35,258.491 944.063,258.348 943.957,258.183C943.519,257.505 943.391,256.741 942.975,256.058C942.601,255.445 942.05,254.744 941.746,254.097C941.528,253.631 941.481,253.221 941.256,252.789C941.105,252.501 940.797,252.186 940.683,251.89C940.656,251.591 940.628,251.291 940.601,250.992C940.519,250.713 940.282,250.361 940.192,250.093C940.165,249.848 940.136,249.603 940.11,249.358C939.506,247.413 938.866,245.148 938.309,243.148C938.309,242.903 938.309,242.658 938.309,242.413C938.047,241.413 938.086,240.186 937.818,239.063C937.327,237.012 936.874,234.898 936.343,232.853C936.343,232.336 936.343,231.818 936.343,231.301C936.314,231.191 936.129,230.92 936.099,230.811C935.764,229.614 936.409,227.943 935.934,226.97C936.122,226.84 936.174,226.601 936.343,226.48C937.129,225.919 937.918,225.548 938.717,225.009C938.826,224.873 938.936,224.737 939.045,224.6C939.228,224.49 939.38,224.557 939.535,224.437C939.77,224.258 939.889,223.891 940.109,223.702C940.233,223.595 940.433,223.597 940.518,223.457C941.093,222.51 941.675,221.663 942.237,220.76C942.569,220.228 942.582,219.68 942.892,219.126C943.323,218.358 944.254,217.456 944.612,216.593C946.163,212.84 947.452,208.951 950.178,206.38C950.413,206.158 950.579,205.755 950.833,205.563C951.051,205.481 951.27,205.399 951.487,205.318C951.624,205.213 951.624,204.967 951.733,204.828C951.9,204.615 952.474,204.209 952.715,204.093C952.812,204.027 952.852,204.027 953.042,204.011C953.496,205.77 953.92,207.572 954.602,209.08ZM1041.21,234.981C1040.78,236.255 1040.2,237.419 1039.74,238.658C1039.26,239.961 1039.12,241.245 1038.51,242.335C1038.21,242.305 1038.21,242.272 1038.02,242.172C1038.09,241.532 1038.42,241.045 1038.6,240.537C1038.79,239.973 1038.73,239.551 1038.92,238.985C1039.31,237.858 1039.88,236.662 1040.31,235.635C1040.56,235.058 1040.73,234.288 1040.89,233.756C1041,233.389 1040.88,233.046 1041.05,232.775C1041.05,232.385 1041.1,232.257 1041.21,232.04C1041.35,232.04 1041.49,232.04 1041.62,232.04C1041.91,232.927 1041.47,234.231 1041.21,234.981ZM1047.77,234.736C1047.32,235.905 1045.73,238.664 1044.82,239.312C1044.82,239.34 1044.82,239.366 1044.82,239.394C1045.07,239.34 1045.36,239.2 1045.56,239.149C1046.22,238.974 1047.19,239.191 1047.77,239.067C1048.27,238.957 1049.03,239.214 1049.4,238.985C1050.71,238.985 1052.02,238.985 1053.33,238.985C1053.49,239.094 1053.73,240.146 1053.9,240.374C1053.69,240.699 1052.91,240.64 1052.51,240.783C1051,241.332 1049.17,241.084 1047.11,241.11C1046.07,241.122 1045.24,241.385 1044.49,240.946C1044.44,240.723 1044.41,240.523 1044.41,240.211C1044.38,240.211 1044.35,240.211 1044.33,240.211C1043.91,241.957 1042.92,244.334 1041.95,245.604C1041.54,245.904 1041.13,246.204 1040.72,246.503C1040.47,246.499 1040.3,246.475 1040.15,246.421C1040.12,246.339 1040.1,246.257 1040.07,246.176C1040.5,245.793 1041.2,245.498 1041.54,245.032C1042.71,243.44 1043.04,241.293 1043.92,239.394C1044.27,238.642 1045.12,238.13 1045.56,237.433C1046.11,236.56 1046.74,235.518 1047.11,234.574C1047.28,234.147 1047.21,233.702 1047.44,233.348C1047.47,233.266 1047.49,233.184 1047.52,233.103C1047.66,233.103 1047.79,233.103 1047.93,233.103C1048.1,233.627 1047.94,234.268 1047.77,234.736ZM891.483,262.026C891.92,262.489 892.356,262.952 892.793,263.415C892.93,263.443 893.066,263.469 893.202,263.497C893.477,263.66 893.731,264.054 894.021,264.233C894.56,264.566 895.198,264.637 895.74,264.968C896.017,265.137 896.286,265.458 896.558,265.621C897.058,265.92 897.559,265.952 898.114,266.193C899.22,266.673 900.482,267.429 901.552,267.99C902.087,268.27 902.682,268.433 903.027,268.888C903.153,268.897 902.668,269.165 902.618,269.297C902.496,269.618 902.609,270.384 902.7,270.605C902.756,270.741 902.98,270.957 903.027,271.095C903.109,271.939 903.19,272.784 903.273,273.628C903.498,274.45 903.775,275.42 904.01,276.325C904.227,277.171 904.036,277.998 904.336,278.776C904.525,279.267 904.967,279.829 905.154,280.328C905.236,280.846 905.318,281.363 905.4,281.88C906.188,283.5 906.802,284.122 906.218,286.537C905.955,287.627 906.189,288.582 905.809,289.479C905.369,290.52 904.569,290.732 903.517,291.195C902.216,291.768 900.478,292.13 898.932,292.502C898.25,292.557 897.568,292.611 896.885,292.666C896.105,292.861 894.655,292.939 893.775,292.748C892.66,292.506 891.683,292.793 890.747,292.503C889.271,292.046 887.931,291.499 886.653,290.951C886.314,290.806 885.892,290.829 885.589,290.624C885.426,290.379 885.261,290.134 885.098,289.889C884.436,289.387 883.502,289.199 883.133,288.418C882.759,287.627 882.962,286.743 882.724,285.803C882.22,283.818 882.076,281.198 882.56,279.103C882.587,278.45 882.615,277.796 882.643,277.142C882.74,276.948 883.05,276.923 883.133,276.651C883.543,275.318 882.475,273.862 882.887,272.321C883.174,271.252 883.776,270.479 884.116,269.543C884.224,268.808 884.334,268.073 884.442,267.337C884.633,266.687 884.96,265.962 885.179,265.376C885.398,264.79 885.348,264.304 885.588,263.742C886.029,262.704 886.814,261.743 887.39,260.801C887.712,260.272 887.953,259.416 888.536,259.167C889.469,260.165 890.517,261.062 891.483,262.026ZM1008.55,282.944C1008.63,283.298 1008.72,283.652 1008.8,284.006C1009.04,284.638 1009.53,285.325 1009.78,285.967C1010.03,286.608 1010.04,287.224 1010.35,287.846C1010.44,288.032 1010.75,288.247 1010.84,288.418C1011.59,289.754 1012.14,291.335 1013.38,292.177C1013.38,293.665 1013.23,294.992 1012.97,296.181C1012.87,296.658 1013.21,296.991 1013.3,297.325C1013.5,298.091 1012.66,301.499 1012.4,301.901C1011.2,303.755 1009.08,304.335 1006.67,305.005C1006.01,305.188 1005.57,305.061 1004.95,305.25C1003.19,305.788 1001.49,306.343 999.71,306.966C999.301,307.212 998.89,307.457 998.481,307.701C997.506,308.079 996.722,308.162 995.697,308.518C994.651,308.881 993.784,309.712 992.914,310.234C992.044,310.756 991.002,310.881 990.049,311.296C989.319,311.615 988.645,312.29 987.921,312.522C987.757,312.522 987.594,312.522 987.43,312.522C986.876,312.688 986.046,313.01 985.465,313.175C985.193,313.175 984.919,313.175 984.647,313.175C982.656,313.728 980.882,314.157 978.18,314.156C976.924,314.156 975.668,314.156 974.413,314.156C973.006,313.776 971.675,313.345 970.402,312.93C969.401,312.604 968.59,312.665 967.619,312.358C967.293,312.255 966.963,311.964 966.636,311.867C965.978,311.673 965.481,311.825 964.835,311.622C964.105,311.393 963.349,310.767 962.706,310.396C962.121,310.058 961.515,310.025 960.986,309.661C960.615,309.404 960.492,308.829 960.168,308.517C960.157,306.926 960.617,307.376 960.904,306.474C960.904,306.12 960.904,305.766 960.904,305.411C961.045,304.851 961.318,304.003 961.641,303.532C962.218,302.692 965.322,301.867 966.389,301.244C968.731,299.877 971.024,298.346 973.348,296.914C974.086,296.459 974.868,296.261 975.64,295.852C976.426,295.435 977.207,294.822 978.014,294.381C978.366,294.189 978.706,294.221 979.078,294.053C979.461,293.882 979.951,293.502 980.307,293.237C981.363,292.451 981.97,291.032 982.762,289.968C983.035,289.723 983.308,289.478 983.58,289.232C984.201,288.614 985.149,287.568 985.546,286.781C985.76,286.356 985.628,285.876 985.791,285.391C985.966,284.877 986.644,282.872 986.937,282.532C987.268,282.294 987.608,282.432 988.083,282.287C988.265,282.231 988.475,282.022 988.655,281.96C989.11,281.804 989.532,281.965 990.047,281.797C990.118,281.775 990.305,281.575 990.375,281.552C990.894,281.497 991.411,281.443 991.931,281.388C996.895,279.844 1001.89,278.589 1007.08,277.385C1007.07,279.872 1007.77,281.125 1008.55,282.944ZM904.418,284.66C903.518,284.905 902.617,285.15 901.717,285.394C899.97,285.394 898.224,285.394 896.477,285.394C894.051,285.392 891.935,284.929 890.092,284.414C889.791,284.387 889.491,284.36 889.191,284.332C886.743,283.597 884.25,283.032 882.97,281.145C882.942,281.145 882.915,281.145 882.887,281.145C882.875,282.824 883.085,284.183 883.379,285.476C883.593,286.419 883.417,287.303 883.788,288.091C884.079,288.71 884.889,288.847 885.426,289.234C885.675,289.415 885.825,289.908 886.08,290.051C886.39,290.225 886.668,290.161 886.98,290.297C888.256,290.848 889.592,291.411 891.074,291.849C894.217,292.778 898.978,291.874 901.552,291.114C902.624,290.798 904.376,290.428 904.91,289.643C905.555,288.692 905.834,285.573 905.727,284.168C905.195,284.246 904.844,284.5 904.418,284.66ZM1002.17,300.593C999.841,301.364 997.611,301.864 995.288,302.635C993.629,303.186 991.811,303.863 990.131,304.351C989.542,304.522 989.145,304.362 988.494,304.515C985.882,305.127 981.953,305.053 979.324,305.659C978.464,305.858 976.868,305.733 976.132,305.578C974.741,305.55 973.349,305.523 971.957,305.496C970.226,305.101 968.737,304.716 967.291,304.107C966.399,303.731 965.228,303.594 964.589,302.963C962.967,303.085 962.072,304.075 961.642,305.414C961.274,306.559 961.777,307.054 960.824,307.702C960.858,309.441 962.819,309.556 963.935,310.235C964.29,310.452 964.745,310.839 965.163,310.97C965.809,311.174 966.306,311.022 966.964,311.216C967.212,311.288 967.483,311.535 967.701,311.624C968.37,311.9 969.212,312.01 969.829,312.196C970.13,312.223 970.43,312.25 970.729,312.278C971.565,312.552 972.547,312.997 973.349,313.259C973.595,313.259 973.839,313.259 974.086,313.259C975.07,313.499 976.523,313.504 977.852,313.504C978.643,313.504 979.435,313.504 980.226,313.504C981.639,313.187 983.032,312.872 984.319,312.523C984.592,312.523 984.865,312.523 985.138,312.523C985.719,312.361 986.549,312.032 987.102,311.869C987.348,311.842 987.594,311.815 987.838,311.787C988.446,311.484 989.043,310.937 989.722,310.643C990.675,310.23 991.716,310.103 992.587,309.58C993.457,309.059 994.324,308.228 995.37,307.864C996.394,307.508 997.179,307.424 998.154,307.047C998.562,306.802 998.972,306.556 999.382,306.311C1001.16,305.686 1002.87,305.133 1004.62,304.595C1005.24,304.406 1005.68,304.532 1006.34,304.35C1008.17,303.846 1009.8,303.384 1011.09,302.389C1012,301.684 1012.08,300.172 1012.48,298.957C1012.6,298.608 1012.48,298.31 1012.64,298.058C1012.64,297.826 1012.61,297.709 1012.56,297.568C1010.14,297.598 1008.79,298.238 1006.59,298.303C1006.59,298.603 1006.59,298.903 1006.59,299.201C1005.06,299.427 1003.55,300.133 1002.17,300.593Z"/>
    </g>
</svg>
