<?xml version="1.0" encoding="UTF-8" standalone="no"?>
<!DOCTYPE svg PUBLIC "-//W3C//DTD SVG 1.1//EN" "http://www.w3.org/Graphics/SVG/1.1/DTD/svg11.dtd">
<svg width="100%" height="100%" viewBox="0 0 255 374" version="1.1" xmlns="http://www.w3.org/2000/svg" xmlns:xlink="http://www.w3.org/1999/xlink" xml:space="preserve" xmlns:serif="http://www.serif.com/" style="fill-rule:evenodd;clip-rule:evenodd;stroke-linejoin:round;stroke-miterlimit:1.41421;">
    <g transform="matrix(1,0,0,1,-222.37,-316.088)">
        <path d="M282.792,316.583C286.234,317.436 289.868,317.602 291.772,319.948C292.532,320.885 292.483,322.105 293.02,323.313C293.203,323.724 293.701,324.113 293.892,324.559C294.612,326.229 295.159,327.687 296.138,329.046C296.581,329.66 297.196,330.04 297.76,330.541C298.908,331.561 299.935,332.948 300.753,334.28C301.078,334.81 300.935,335.467 301.128,336.15C301.395,337.1 301.811,338.719 302.375,339.514C302.95,340.324 303.937,340.951 304.496,341.758C304.999,342.487 305.227,343.285 305.744,344.001C306.111,344.51 306.777,344.956 307.115,345.497C307.692,346.418 307.908,347.938 308.487,348.862C309.112,349.861 310.091,350.745 310.732,351.729C311.333,352.649 311.457,353.581 311.979,354.595C312.14,354.907 312.59,355.233 312.728,355.592C312.77,355.966 312.811,356.34 312.853,356.714C313.08,357.459 313.512,358.254 313.726,359.082C313.768,359.664 313.809,360.246 313.851,360.827C313.975,361.307 314.346,361.867 314.475,362.324C314.517,362.946 314.558,363.57 314.6,364.193C314.745,364.735 315.161,365.137 315.349,365.564C315.651,366.246 315.486,367.019 315.723,367.807C315.816,368.115 316.135,368.621 316.223,368.929C316.624,370.345 316.371,372.816 316.097,374.039C316.097,375.285 316.097,376.531 316.097,377.777C315.993,378.202 315.703,378.82 315.598,379.273C315.557,381.724 315.515,384.176 315.473,386.626C315.886,388.472 316.596,388.1 317.344,389.245C317.78,389.907 318.029,390.808 318.341,391.486C318.869,391.584 319.945,391.407 320.587,391.612C321.037,391.754 321.464,392.255 321.835,392.484C322.615,392.965 323.369,393.191 324.08,393.731C324.413,393.984 324.573,394.508 324.829,394.853C325.205,395.36 325.847,395.834 326.201,396.349C326.688,397.054 326.95,397.768 327.448,398.467C328.897,400.503 330.682,402.755 331.564,405.322C331.605,405.78 331.647,406.235 331.689,406.692C331.91,407.517 332.335,408.317 332.562,409.061C332.794,409.826 332.657,410.511 332.936,411.179C333.709,413.033 335.228,414.03 335.929,415.665C336.142,416.163 335.897,416.79 336.054,417.409C336.221,418.07 336.673,418.439 336.926,418.906C337.052,419.361 337.177,419.818 337.301,420.277C337.707,420.913 338.478,421.424 338.922,422.02C339.587,422.913 340.294,424.1 341.168,424.761C341.82,425.258 342.71,425.581 343.163,426.257C343.566,426.859 343.414,427.575 343.662,428.376C344.012,429.512 344.745,430.704 345.408,431.616C345.876,432.26 346.761,432.754 347.403,433.236C348.551,434.099 349.503,435.343 350.522,436.352C350.855,436.601 351.187,436.85 351.52,437.1C353.685,439.825 354.265,441.189 354.263,446.072C354.263,447.153 354.263,448.233 354.263,449.313C354.138,449.769 353.7,450.097 353.515,450.435C353.391,450.85 353.265,451.267 353.141,451.68C352.211,453.18 350.911,454.525 349.898,455.917C348.662,457.618 347.364,458.951 345.906,460.404C345.49,460.861 345.075,461.318 344.659,461.775C343.683,462.477 342.481,462.62 341.416,463.27C339.794,464.263 338.304,465.717 336.426,466.511C334.756,467.216 332.527,467.787 330.814,468.255C330.165,468.434 329.219,468.195 328.694,468.505C328.569,468.545 328.444,468.587 328.319,468.63C328.319,468.878 328.319,469.128 328.319,469.377C328.694,469.792 329.068,470.207 329.442,470.624C330.071,471.044 330.868,470.827 331.687,471.121C332.169,471.295 332.956,471.792 333.433,472.118C333.849,472.575 334.265,473.031 334.68,473.489C335.082,473.76 335.421,473.665 335.928,473.864C337.141,474.339 338.848,475.07 340.168,475.483C340.668,475.566 341.167,475.649 341.666,475.732C343.255,476.392 344.634,477.585 346.281,478.099C348.201,478.703 350.082,478.544 351.892,479.221C352.977,479.628 354.325,480.617 355.385,480.966C356.343,481.282 357.994,480.877 358.753,480.717C361.886,480.054 365.259,480.217 368.107,479.472C368.998,479.238 369.741,479.443 370.727,479.221C373.135,478.68 374.918,478.972 377.711,478.972C379.651,478.972 382.847,478.762 384.446,479.221C386.105,479.7 388.483,481.122 389.81,482.088C390.494,482.587 390.92,483.395 391.431,484.082C391.826,484.611 392.56,485.03 392.928,485.577C394.193,487.456 394.83,489.659 395.797,491.808C396.373,493.089 397.443,494.181 398.167,495.297C398.89,496.414 398.961,497.611 399.539,498.911C399.696,499.264 400.151,499.651 400.288,500.033C401.248,502.693 401.038,505.997 402.035,508.632C402.177,509.01 402.641,509.401 402.783,509.754C402.908,510.336 403.033,510.917 403.158,511.5C404.963,515.578 406.414,520.193 408.146,524.336C408.229,524.834 408.312,525.332 408.395,525.83C408.791,526.935 409.598,528.472 410.018,529.57C410.142,530.151 410.268,530.732 410.392,531.315C411.132,533.065 411.892,535.205 412.637,536.922C412.72,537.379 412.803,537.835 412.886,538.293C413.101,538.931 413.558,539.598 413.76,540.287C413.801,540.661 413.843,541.035 413.885,541.407C414.354,542.656 415.104,544.348 415.507,545.645C415.59,546.143 415.674,546.642 415.756,547.141C415.895,547.474 416.26,547.887 416.38,548.262C416.792,549.562 416.927,551.254 417.502,552.375C417.819,552.991 418.629,553.42 418.999,553.994C419.194,554.298 419.09,554.64 419.249,554.992C419.672,555.933 420.455,557.145 420.871,558.107C420.995,558.565 421.12,559.021 421.245,559.477C422.691,561.807 424.356,564.23 425.61,566.706C426.377,568.222 426.659,569.803 427.357,571.443C427.551,571.899 428.029,572.349 428.229,572.813C429.174,575.008 429.724,577.258 430.974,579.168C431.217,579.541 431.718,579.776 431.971,580.165C432.558,580.315 433.279,580.573 433.843,580.165C436.597,580.138 436.585,582.673 437.335,584.652C438.068,586.589 438.993,588.736 439.954,590.51C440.071,590.723 440.45,590.935 440.579,591.132C441.448,592.479 441.929,593.826 442.824,595.121C443.199,595.662 443.944,596.074 444.321,596.616C446.842,600.233 449.648,603.58 452.178,607.209C453.012,608.404 453.601,609.613 454.424,610.822C455.089,611.799 456.115,612.69 456.794,613.689C457.735,615.077 458.376,616.652 459.663,617.677C460.845,618.618 462.349,619.552 464.028,619.92C466.772,619.92 469.516,619.92 472.259,619.92C474.048,620.484 475.459,622.067 476.376,623.535C476.542,623.535 476.709,623.535 476.875,623.535C476.875,624.24 476.875,624.947 476.875,625.652C475.8,625.793 475.53,627.305 475.004,628.02C474.394,628.851 473.103,629.277 472.26,629.889C471.093,630.737 470.297,632.168 469.142,633.004C467.878,633.921 466.593,634.985 465.276,635.746C464.694,635.871 464.112,635.996 463.53,636.12C463.326,636.201 463.107,636.529 462.906,636.619C462.364,636.743 461.824,636.868 461.284,636.993C459.723,637.647 458.136,638.685 456.544,639.361C456.129,639.443 455.713,639.526 455.297,639.61C454.763,639.835 454.16,640.294 453.551,640.482C453.051,640.637 452.555,640.502 452.178,640.732C451.222,640.732 450.265,640.732 449.309,640.732C448.426,640.373 447.749,638.857 447.189,638.115C446.211,636.817 444.416,636.153 443.447,634.875C442.13,633.134 441.071,630.829 439.332,629.516C437.915,628.447 436.456,627.232 434.966,626.276C434.255,625.82 433.309,625.832 432.72,625.279C432.18,625.27 431.585,625.279 431.224,625.403C431.299,627.263 432.549,628.575 433.345,629.765C433.939,630.655 434.126,631.597 434.716,632.506C435.449,633.636 436.455,634.91 437.087,636.12C437.644,637.19 437.726,638.122 438.209,639.236C438.628,640.203 439.416,641.397 439.831,642.351C440.217,643.243 440.294,644.015 440.829,644.719C440.828,645.464 440.71,645.561 440.455,645.965C440.115,645.963 439.883,645.96 439.706,645.842C438.574,645.419 437.51,642.46 436.837,641.354C436.204,640.311 435.784,639.056 435.091,637.991C434.348,636.846 433.358,635.455 432.845,634.125C432.281,632.662 432.103,631.148 431.349,629.889C430.066,627.751 427.297,623.945 425.362,622.536C423.45,621.145 420.148,619.315 419.25,617.052C418.693,615.651 419.392,613.744 419,612.069C418.716,610.854 419.118,608.819 418.751,607.333C418.62,606.8 418.391,605.956 418.252,605.339C418.211,604.343 418.169,603.345 418.127,602.348C417.058,598.251 415.169,595.023 413.138,591.879C412.683,591.175 412.245,590.052 412.015,589.262C411.87,588.759 411.995,588.265 411.765,587.891C411.384,586.962 408.023,586.907 407.151,586.146C406.465,585.891 405.413,583.201 405.155,582.407C405.155,581.868 405.155,581.329 405.155,580.788C404.988,580.29 404.822,579.79 404.656,579.292C404.281,578.583 403.529,577.899 403.16,577.174C402.993,576.593 402.827,576.011 402.66,575.429C401.318,573.146 400.323,570.861 399.168,568.325C399.045,568.054 398.666,567.851 398.544,567.579C397.978,566.305 398.159,565.051 397.422,563.964C396.983,563.317 396.141,562.715 395.8,561.971C395.314,560.909 395.321,559.736 394.677,558.856C394.553,558.687 394.436,558.63 394.303,558.48C393.909,558.541 393.832,558.606 393.554,558.73C393.027,561.428 393.532,564.376 394.054,566.706C394.054,567.413 394.054,568.119 394.054,568.825C394.241,569.616 394.369,570.998 394.553,571.817C394.971,573.682 394.429,576.103 394.802,577.797C394.802,580.165 394.802,582.533 394.802,584.901C395.025,585.906 394.8,587.139 395.052,588.266C395.583,590.642 395.261,593.591 395.8,596.118C395.758,596.907 395.717,597.696 395.675,598.486C395.891,599.458 395.924,600.7 395.924,601.975C395.924,605.506 395.924,609.038 395.924,612.569C396.348,614.244 397.003,616.676 397.422,618.425C397.464,619.671 397.505,620.918 397.547,622.164C397.892,623.296 398.972,623.959 399.293,625.28C399.651,626.752 398.86,627.547 398.544,628.27C398.263,628.918 397.708,632.417 397.921,633.256C398.455,635.358 400.192,636.876 400.041,639.237C399.487,639.763 399.076,640.428 398.419,640.856C398.437,644.526 398.482,648.238 399.168,651.325C399.638,653.441 398.957,655.746 399.418,657.806C399.854,659.751 399.707,662.243 400.291,664.287C400.648,665.534 401.471,666.986 401.913,668.15C402.422,669.493 402.473,670.505 403.036,671.763C403.364,672.497 404.117,673.217 404.533,673.883C405.182,674.92 405.465,675.914 406.403,676.623C408.131,677.93 410.117,679.499 410.769,681.857C411.069,682.941 410.499,683.973 410.27,684.599C409.321,687.198 408.909,687.555 406.029,688.213C405.031,688.213 404.033,688.213 403.035,688.213C400.096,688.87 396.65,689.276 393.306,688.836C394.467,688.064 396.437,688.692 398.046,688.339C399.555,688.005 401.327,687.796 402.785,687.464C405.058,686.949 407.454,687.942 408.647,686.344C409.969,684.571 410.478,682.041 409.147,680.113C408.855,679.905 408.564,679.697 408.273,679.491C407.15,678.345 405.877,677.288 404.905,676C404.656,675.792 404.406,675.586 404.156,675.378C404.031,675.003 403.907,674.63 403.782,674.256C403.415,673.639 402.776,673.007 402.409,672.386C401.757,671.279 401.638,669.809 401.162,668.523C400.537,666.834 399.746,665.171 399.291,663.164C399.291,662.375 399.291,661.587 399.291,660.796C398.888,658.989 398.856,656.801 398.417,654.815C398.417,654.027 398.417,653.237 398.417,652.448C398.417,650.996 398.316,649.654 398.043,648.46C397.803,647.414 398.134,645.13 397.668,644.347C397.668,643.89 397.668,643.433 397.668,642.976C396.98,643.229 396.025,643.557 395.423,643.724C395.007,643.724 394.591,643.724 394.176,643.724C392.48,644.094 386.895,644.086 385.196,643.724C383.782,643.724 382.369,643.724 380.955,643.724C379.72,643.439 378.425,642.908 377.338,642.603C376.535,642.377 375.071,642.677 374.345,642.353C374.153,642.268 373.934,641.869 373.721,641.731C373.148,642.588 372.212,643.155 371.85,644.223C371.559,645.081 371.601,646.087 371.601,647.213C371.601,648.626 371.601,650.038 371.601,651.45C372.391,654.261 374.332,656.182 375.592,658.554C375.869,659.075 376.453,660.246 376.59,660.673C376.87,661.549 376.644,662.6 377.089,663.289C377.089,663.955 377.089,664.62 377.089,665.284C377.294,665.738 378.082,666.081 378.461,666.405C378.927,666.803 379.167,667.721 379.709,668.026C379.992,668.185 380.342,667.999 380.582,668.151C381.332,668.625 382.219,669.898 382.703,670.643C383.555,671.956 383.566,673.722 383.95,675.503C383.95,676.583 383.95,677.663 383.95,678.742C384.826,682.809 384.74,688.113 389.064,688.714C388.905,688.923 388.724,689.002 388.566,689.212C386.295,689.204 384.66,686.553 384.075,684.85C384.033,683.936 383.992,683.022 383.95,682.109C383.796,681.437 383.483,680.766 383.327,680.115C383.201,679.592 383.284,678.744 383.202,678.37C382.788,676.491 383.393,674.632 382.828,673.012C382.212,671.244 380.977,670.168 380.084,668.774C379.792,668.774 379.501,668.774 379.211,668.774C378.743,669.003 378.247,672.5 378.462,673.509C378.931,675.714 378.271,678.348 378.462,680.738C378.509,681.319 379.058,683.022 378.961,683.355C378.824,683.826 378.177,684.056 377.838,684.352C377.198,684.272 376.808,684.072 376.341,683.855C375.67,680.87 376.091,676.558 376.091,673.136C376.091,671.433 376.091,669.73 376.091,668.027C376.272,667.224 376.67,664.494 376.466,663.665C375.874,661.264 375.016,659.262 373.971,657.311C373.283,656.024 371.885,654.82 371.351,653.446C370.947,652.403 370.614,646.567 370.977,644.971C371.113,644.372 371.165,643.447 371.476,642.977C372.024,642.152 373.009,641.69 373.347,640.61C374.031,638.418 373.545,635.756 374.221,633.506C374.644,632.098 375.989,630.398 375.468,628.148C375.276,627.322 375.427,625.249 374.968,624.534C374.697,624.111 374.127,623.848 373.721,623.538C373.017,622.998 372.452,621.659 372.224,620.67C371.498,617.521 374.803,616.531 373.846,613.441C373.307,611.703 371.971,610.129 371.476,608.457C371.434,606.92 371.393,605.384 371.351,603.846C371.1,602.747 370.956,601.664 370.602,600.607C369.811,598.239 368.22,596.285 367.609,593.752C367.181,591.977 367.235,590.21 367.235,588.144C367.235,587.355 367.235,586.566 367.235,585.778C366.927,584.548 366.549,582.787 366.237,581.664C366.112,580.168 365.988,578.674 365.862,577.178C365.108,574.899 363.988,572.36 363.368,569.949C363.326,568.993 363.285,568.039 363.243,567.084C362.923,565.69 362.685,564.063 362.369,562.721C362.328,561.061 362.286,559.398 362.245,557.737C362.139,557.366 361.756,557.048 361.621,556.74C361.497,556.199 361.371,555.659 361.247,555.12C360.856,554.237 360.235,553.156 359.751,552.378C357.64,551.862 357.4,552.341 355.884,552.876C354.797,553.26 353.592,553.261 352.516,553.5C351.434,553.5 350.354,553.5 349.273,553.5C348.348,553.706 346.606,553.752 345.655,553.5C344.643,553.229 342.918,552.559 341.539,552.876C339.486,553.35 337.821,554.257 335.677,554.746C332.253,555.528 330.734,551.063 328.444,550.509C327.02,550.163 325.529,551.468 323.953,551.131C322.556,550.833 319.864,550.827 318.467,551.131C316.013,551.173 313.56,551.214 311.108,551.256C309.658,551.581 306.821,551.57 305.37,551.256C303.685,550.891 301.537,551.463 300.008,551.131C297.431,551.09 294.853,551.049 292.276,551.007C290.995,550.686 289.503,550.202 288.16,549.886C287.618,549.886 287.079,549.886 286.537,549.886C285.43,549.635 283.969,549.645 282.796,549.387C280.422,548.866 274.891,550.272 273.317,549.262C272.236,548.059 271.156,546.852 270.074,545.648C268.801,544.687 267.9,543.414 266.706,542.409C265.924,541.75 264.911,541.137 264.335,540.29C263.093,538.46 262.38,536.499 261.218,534.557C261.095,534.354 260.703,534.131 260.594,533.935C259.982,532.836 259.951,531.828 259.472,530.569C259.099,529.591 258.395,528.165 257.974,527.206C257.684,526.54 257.794,525.829 257.475,525.211C256.795,523.892 255.857,522.383 255.23,520.975C255.003,520.465 255.109,519.97 254.855,519.478C254.694,519.166 254.248,518.839 254.106,518.482C253.658,517.343 253.609,516.363 253.109,515.242C252.796,514.541 252.142,513.748 251.737,513.124C251.168,512.245 250.915,511.381 250.365,510.506C249.656,509.378 248.631,508.219 247.995,507.017C247.87,506.601 247.745,506.186 247.62,505.77C247.172,505.018 246.476,504.107 246.123,503.278C245.555,501.945 245.587,500.622 245.126,499.165C244.939,498.583 244.463,498.108 244.252,497.547C244.169,497.13 244.085,496.715 244.002,496.299C242.438,493.016 241.311,489.283 239.387,486.329C237.327,483.161 234.787,479.855 233.651,475.86C233.035,473.7 233.932,470.741 233.401,468.382C232.738,465.444 233.074,462.287 232.403,459.285C231.983,457.4 232.783,455.151 232.277,453.426C231.734,451.571 230.579,449.721 229.908,447.944C229.825,447.361 229.742,446.78 229.659,446.198C229.102,444.662 228.451,442.539 228.038,440.965C227.734,439.806 227.775,438.582 227.538,437.6C227.538,437.06 227.538,436.52 227.538,435.979C226.932,433.475 226.074,431.025 225.417,428.752C225.064,427.528 225.646,426.346 225.792,425.262C225.625,424.098 225.459,422.935 225.292,421.773C224.766,419.839 224.037,417.429 223.546,415.542C223.463,414.67 223.38,413.797 223.297,412.924C222.861,411.467 221.996,408.745 222.549,406.445C223.228,403.617 225.207,401.436 226.664,399.341C227.393,398.295 227.786,397.117 228.536,396.101C228.888,395.624 229.568,395.332 229.908,394.854C230.436,394.112 230.373,392.84 230.906,392.112C231.299,391.578 232.113,391.147 232.653,390.741C233.722,389.933 235.246,387.997 236.02,386.878C236.541,386.123 236.854,385.374 237.392,384.635C237.807,384.26 238.223,383.886 238.639,383.512C239.15,382.762 239.243,382.12 240.011,381.642C240.928,381.073 242.149,381.44 243.129,381.02C243.393,380.338 243.122,379.17 243.502,378.651C243.88,378.194 244.4,378.415 244.999,378.153C245.595,377.892 245.963,377.245 246.497,376.907C247.073,374.325 246.645,370.923 246.122,368.557C246.122,368.016 246.122,367.475 246.122,366.936C245.569,364.459 245.583,360.04 246.122,357.589C246.637,355.25 245.75,352.886 246.246,350.734C246.786,348.399 247.238,346.265 247.744,344.004C248.091,342.455 247.411,340.519 247.869,339.144C248.241,338.024 249.159,336.846 249.614,335.779C250.294,334.19 250.676,332.419 251.61,331.043C252.183,330.2 253.275,329.542 253.98,328.8C255.666,327.029 257.339,324.994 259.343,323.566C260.161,322.983 261.109,322.77 261.963,322.194C266.66,319.03 270.109,316.427 278.301,316.586C278.301,316.421 278.301,316.254 278.301,316.088C279.798,316.088 281.295,316.088 282.791,316.088C282.792,316.251 282.792,316.418 282.792,316.583ZM272.564,333.408C271.371,334.266 269.679,335.222 268.823,336.4C267.237,338.578 266.053,341.288 264.581,343.503C264.242,344.015 264.12,344.688 263.71,345.124C263.734,345.448 263.765,345.547 263.834,345.748C267.111,346.422 268.223,344.826 270.444,343.878C273.153,342.722 275.886,341.891 278.8,341.011C279.341,340.969 279.882,340.928 280.422,340.886C281.407,340.633 283.301,340.2 284.663,340.513C285.944,340.806 287.515,341.006 288.529,341.634C289.53,342.254 290.353,343.493 291.398,344.001C291.696,344.235 292.742,344.416 293.144,344.126C293.31,344.126 293.476,344.126 293.642,344.126C294.073,343.814 293.703,342.975 293.892,342.381C294.059,341.859 294.517,341.345 294.766,340.885C296.18,340.678 297.593,340.47 299.006,340.262C299.121,340.128 298.995,340.251 299.131,340.137C299.131,334.023 295.417,330.219 291.273,328.298C290.395,327.891 288.98,328.3 288.156,327.799C280.829,327.813 276.776,330.383 272.564,333.408ZM275.308,382.512C274.759,381.03 274.712,379.574 274.187,378.025C273.883,377.132 273.285,376.213 272.939,375.408C272.32,373.965 271.874,371.512 270.944,370.422C270.999,369.715 271.367,369.457 271.941,369.301C272.231,369.074 273.177,368.897 273.562,369.176C274.537,369.222 275.285,369.918 275.684,370.547C276.914,370.206 276.294,368.153 276.682,366.934C277.791,363.442 279.103,360.214 280.423,357.088C279.621,356.702 279.211,356.039 278.552,355.592C277.785,355.073 276.62,354.96 275.933,354.346C275.061,353.566 274.472,352.22 273.812,351.23C273.248,350.383 272.165,349.174 273.063,347.865C273.063,347.782 273.063,347.699 273.063,347.615C270.403,347.617 269.119,348.882 267.825,350.233C267.658,350.483 267.492,350.732 267.326,350.981C266.707,351.473 265.979,351.895 265.456,352.477C265.248,352.768 265.04,353.059 264.831,353.349C264.472,353.612 264.023,353.676 263.71,353.974C261.544,353.9 260.285,352.716 258.471,352.228C256.79,351.777 253.686,353.371 253.108,354.098C252.522,354.834 252.826,355.948 252.608,357.089C252.169,359.4 256.418,363.665 257.971,364.566C259.011,365.17 260.494,365.224 261.464,365.937C262.659,365.958 263.228,365.598 263.71,364.94C264.404,364.954 264.447,365.071 264.831,365.314C264.86,365.604 264.855,365.665 264.957,365.813C264.932,366.747 264.525,366.715 263.833,366.934C263.369,369.416 264.836,371.783 265.58,373.664C266.183,375.188 266.085,376.868 266.703,378.4C267.321,379.932 268.481,382.083 269.446,383.384C270.186,384.38 271.427,385.014 272.44,385.752C272.865,386.063 273.143,386.692 273.562,386.998C274.362,387.582 275.73,388.027 276.93,388.12C276.852,385.932 275.939,384.21 275.308,382.512ZM300.004,357.212C298.802,357.592 296.81,356.686 296.512,356.09C296.347,355.762 296.543,355.365 296.387,355.093C295.263,353.126 294.256,350.977 293.269,348.738C292.991,348.659 292.939,348.646 292.769,348.489C289.836,348.403 290.467,351.363 289.276,352.976C289.276,353.64 289.276,354.305 289.276,354.969C289.415,355.211 290.181,355.296 290.399,355.842C290.85,356.973 290.912,358.195 290.898,359.83C290.885,361.337 290.326,362.48 290.025,363.693C290.025,365.355 290.025,367.017 290.025,368.678C290.025,369.58 289.753,371.409 290.149,372.044C290.149,372.418 290.149,372.792 290.149,373.165C290.365,373.084 290.272,373.142 290.399,373.04C291.499,372.601 291.507,370.738 291.896,369.552C292.25,368.469 293.965,364.208 294.64,363.694C295.067,362.694 295.797,366.333 295.513,367.433C295.265,368.389 295.216,369.659 295.014,370.548C295.014,371.006 295.014,371.464 295.014,371.92C294.565,373.279 294.266,374.55 294.266,376.407C294.722,376.407 295.18,376.407 295.638,376.407C296.853,375.192 298.266,374.237 299.005,372.543C299.307,371.849 299.139,371.297 299.38,370.424C299.706,369.245 300.05,367.778 300.378,366.561C300.633,365.611 300.452,364.837 300.752,363.944C301.086,362.947 301.146,361.6 301.501,360.454C301.938,359.044 302.392,358.225 302.124,356.216C301.224,356.376 300.763,356.972 300.004,357.212ZM281.296,356.838C281.047,357.201 281.103,357.787 280.921,358.208C280.595,358.961 280.008,359.805 279.674,360.576C278.752,362.705 278.148,365.067 277.429,367.306C277.387,368.054 277.346,368.802 277.304,369.55C277.128,370.2 276.73,370.792 276.431,371.295C275.132,371.309 274.348,370.647 273.811,369.923C273.161,369.879 272.764,369.72 272.314,370.048C272.19,370.089 272.065,370.131 271.94,370.171C272.142,372.364 273.661,374.47 274.436,376.279C275.12,377.883 275.233,379.661 275.807,381.388C276.221,382.637 276.897,384.045 277.304,385.252C277.518,385.892 277.283,386.427 277.553,386.997C277.956,387.845 278.786,388.368 279.175,389.366C283.074,388.888 287.975,387.617 292.023,388.866C292.816,389.11 293.709,388.815 294.268,389.241C294.308,389.241 294.351,389.241 294.392,389.241C294.366,388.02 293.932,386.965 293.643,385.999C293.602,384.339 293.56,382.675 293.519,381.015C293.519,380.391 293.519,379.768 293.519,379.144C293.686,379.02 293.852,378.895 294.018,378.77C294.097,378.471 293.685,378.114 293.643,377.898C293.574,377.53 293.83,377.287 293.893,377.025C293.769,376.942 293.643,376.859 293.52,376.776C292.974,375.365 294.005,372.443 294.269,371.541C294.632,370.296 294.177,368.002 294.768,367.055C294.768,366.515 294.768,365.974 294.768,365.435C294.685,365.435 294.602,365.435 294.518,365.435C294.18,366.792 293.352,367.851 292.896,369.048C292.539,369.989 292.63,370.837 292.273,371.79C291.994,372.533 291.414,373.165 291.025,373.784C290.81,373.865 290.903,373.808 290.776,373.909C289.988,373.914 289.827,373.802 289.404,373.535C289.406,371.164 289.279,368.486 289.279,365.932C289.279,365.06 289.279,364.188 289.279,363.315C289.757,361.38 290.879,358.097 289.529,356.086C289.273,355.743 288.323,355.211 287.782,355.588C287.228,355.805 286.588,356.725 286.285,357.208C285.362,357.124 285.19,355.851 285.038,355.089C282.958,355.072 282.297,355.84 281.296,356.838ZM314.846,379.521C315.977,374.424 315.811,368.262 313.849,364.067C313.577,363.485 312.857,363.076 312.352,362.696C311.752,362.242 311.467,361.528 310.98,360.951C310.585,360.483 309.041,359.548 308.486,359.206C307.695,358.718 306.538,358.746 305.743,358.208C305.233,357.865 305.178,357.03 304.869,356.464C304.549,355.873 303.88,355.75 303.372,355.342C302.988,355.348 302.734,355.385 302.5,355.467C302.554,356.419 302.354,357.903 302.874,358.708C302.822,360.923 305.002,360.974 306.366,361.698C306.341,362.022 306.311,362.122 306.242,362.322C305.086,362.24 303.168,361.345 302.251,362.072C301.781,362.377 301.505,362.787 301.377,363.443C301.046,365.146 304.123,365.1 305.244,365.812C306.279,366.322 306.6,367.858 307.24,368.802C307.448,368.968 307.656,369.135 307.863,369.301C308.292,370.061 308.147,371.098 308.611,371.794C308.611,372.002 308.611,372.209 308.611,372.418C308.57,372.418 308.528,372.418 308.487,372.418C307.848,371.182 307.051,369.801 306.242,368.678C306.007,368.352 305.529,368.211 305.244,367.93C304.88,367.927 304.564,367.924 304.37,368.055C303.703,368.983 304.299,370.54 303.996,371.919C303.639,373.549 303.714,375.922 302.873,377.152C302.873,377.236 302.873,377.319 302.873,377.402C302.185,377.001 299.829,374.816 298.384,375.782C298.259,375.823 298.134,375.864 298.009,375.907C298.062,377.048 298.582,377.223 298.883,377.901C298.924,378.857 298.966,379.812 299.007,380.767C299.511,382.446 300.153,384.308 300.629,385.876C301.072,387.334 301.351,389.543 302.251,390.487C302.377,390.604 304.778,389.585 305.244,389.367C308.275,387.94 309.836,386.402 314.723,386.998C314.763,384.506 314.804,382.013 314.846,379.521ZM295.265,385.378C295.123,384.909 295.341,384.337 295.14,384.007C295.166,383.284 295.396,378.642 294.641,379.396C294.516,379.437 294.391,379.479 294.267,379.521C294.272,383.081 294.415,385.375 295.14,387.996C295.372,388.836 295.055,389.575 295.515,390.114C295.515,390.156 295.515,390.198 295.515,390.239C292.987,389.754 290.989,389.116 288.03,389.116C287.076,389.116 286.118,389.116 285.163,389.116C283.6,389.622 281.665,390.278 279.799,390.364C279.799,390.405 279.799,390.447 279.799,390.488C279.757,390.488 279.716,390.488 279.674,390.488C279.719,390.956 279.771,390.952 279.923,391.235C281.809,391.207 283.962,390.489 285.535,389.99C286.975,389.534 290.514,390.219 291.398,390.488C291.689,390.488 291.98,390.488 292.272,390.488C292.859,390.645 293.718,390.983 294.268,391.111C294.822,391.242 294.822,390.928 295.39,391.111C297.553,391.81 299.833,392.84 302,393.48C301.999,395.156 301.982,396.331 301.376,397.343C301.069,397.858 299.985,398.468 300.378,399.586C300.719,400.559 302.078,401.619 302.499,402.951C302.97,404.449 302.294,407.329 301.999,408.185C301.957,408.727 301.916,409.266 301.874,409.806C300.911,412.152 300.286,415.014 299.504,417.533C299.025,419.078 299.698,423.198 300.003,424.138C300.045,424.969 300.086,425.8 300.128,426.63C300.159,426.723 300.477,426.941 300.501,427.004C300.543,427.793 300.585,428.584 300.626,429.371C300.99,430.624 301.583,434.701 301.126,436.6C300.605,438.758 299.698,440.588 299.005,442.457C298.577,443.616 298.238,444.797 297.883,445.823C297.841,446.155 297.8,446.486 297.758,446.82C297.189,448.068 296.406,449.633 295.887,450.931C295.358,452.258 295.362,453.601 294.764,454.919C292.89,459.053 291.285,463.491 288.777,467.008C288.61,467.09 288.444,467.175 288.278,467.256C287.174,468.278 286.152,469.202 284.785,469.998C284.256,470.307 283.659,470.293 283.164,470.623C282.008,471.394 280.91,472.554 279.796,473.365C278.279,474.468 276.638,475.173 275.056,476.23C273.667,477.159 272.299,478.405 270.692,479.095C269.739,479.506 268.97,479.396 267.948,479.718C266.8,480.081 265.397,480.729 264.33,481.09C263.541,481.132 262.751,481.172 261.961,481.214C259.765,481.861 257,481.893 255.101,481.713C253.186,481.532 250.852,482.096 248.99,481.589C245.708,480.696 243.41,478.488 242.13,475.607C241.662,475.651 241.666,475.703 241.382,475.856C241.546,477.111 242.439,477.63 243.003,478.473C244.462,480.653 245.607,481.268 248.117,482.335C249.527,482.936 252.443,482.711 254.353,482.711C257.103,482.711 260.214,482.828 261.961,482.211C262.834,482.129 263.708,482.045 264.579,481.963C265.661,481.61 267.067,480.94 268.197,480.592C270.033,480.026 271.552,479.91 272.937,478.971C275.32,477.357 277.906,475.8 280.296,474.111C281.335,473.376 282.337,472.327 283.413,471.619C285.51,470.239 288.103,469.526 289.525,467.506C292.018,463.966 293.957,459.436 295.637,455.169C296.003,454.238 295.855,453.495 296.26,452.552C298.428,447.503 300.597,442.065 302.122,436.475C302.48,435.166 302.124,431.704 301.872,430.742C301.872,430.369 301.872,429.995 301.872,429.621C301.763,429.262 301.471,428.402 301.373,428.001C301.373,427.586 301.373,427.17 301.373,426.754C300.633,424.321 299.839,420.246 300.749,417.406C301.161,416.122 300.844,414.912 301.498,413.918C301.498,413.875 301.498,413.835 301.498,413.793C302.111,414.171 302.063,415.327 302.371,416.036C302.736,416.879 303.438,417.939 303.743,418.779C304.063,419.661 304.013,420.221 304.366,421.021C305.628,423.878 306.65,427.344 307.485,430.617C307.808,431.884 307.699,433.417 307.984,434.604C307.984,435.727 307.984,436.848 307.984,437.97C308.02,438.088 308.318,438.449 308.358,438.593C308.4,439.466 308.441,440.337 308.483,441.21C308.725,441.952 309.132,443.363 309.356,444.076C309.398,444.948 309.439,445.822 309.481,446.694C309.863,448.063 310.383,449.925 310.854,451.179C310.937,451.636 311.021,452.093 311.103,452.551C312.444,455.285 314.347,457.354 316.091,459.655C316.642,460.381 317.654,460.808 318.213,461.524C319.255,462.858 320.348,464.517 321.704,465.512C323.264,466.654 325.409,467.855 326.444,469.499C326.84,469.429 326.806,469.39 327.068,469.25C326.901,467.667 323.239,465.59 322.08,464.639C321.955,464.431 321.83,464.224 321.705,464.018C320.736,463.017 319.82,462.162 318.962,461.025C318.408,460.295 317.391,459.872 316.841,459.157C315.385,457.262 313.616,455.468 312.475,453.298C310.676,449.877 310.664,444.877 309.358,440.961C309.316,440.047 309.275,439.133 309.233,438.218C309.199,438.1 308.883,437.787 308.858,437.72C308.816,435.852 308.775,433.982 308.733,432.112C307.525,428.426 307.059,424.562 305.615,421.145C304.751,419.099 303.96,417.017 303.12,414.79C302.857,414.09 302.157,413.081 301.998,412.297C301.905,411.842 303.068,408.615 303.245,408.06C304.297,404.765 303.112,400.613 301.25,399.337C301.371,398.478 301.928,398.314 302.248,397.716C303.131,396.064 303.331,393.961 302.248,392.482C305.023,391.367 307.34,389.865 310.105,388.868C310.758,388.634 312.868,388.059 313.722,388.618C315.215,388.642 314.703,389.134 315.094,390.239C315.81,392.261 316.631,394.213 317.714,395.846C319.561,398.636 321.952,401.162 323.7,404.072C324.256,404.999 324.323,405.948 324.823,406.939C325.406,408.094 326.125,409.306 326.818,410.428C327.102,410.887 327.753,411.1 328.191,411.425C329.734,412.571 331.163,414.217 332.431,415.662C332.827,415.592 332.794,415.553 333.054,415.412C332.929,414.361 332.059,413.861 331.433,413.294C329.936,411.94 328.095,410.615 326.942,408.933C326.286,407.976 326.043,406.951 325.57,405.817C325.105,404.704 324.166,403.556 323.575,402.576C323.492,402.286 323.408,401.997 323.325,401.705C321.465,398.852 318.511,396.067 316.965,392.98C316.922,392.647 316.882,392.315 316.839,391.984C316.378,390.703 315.849,388.998 315.218,387.87C312.606,387.371 310.985,387.575 309.107,388.492C308.137,388.968 307.222,388.961 306.362,389.491C306.127,389.635 305.879,389.991 305.614,390.113C304.502,390.628 303.065,390.876 302.122,391.61C301.181,391.263 301.122,389.929 300.75,388.991C300.056,387.239 299.398,385.057 298.755,383.259C298.413,382.306 298.598,380.699 298.131,379.895C298.146,379.123 298.121,378.473 297.882,378.025C297.486,378.095 297.519,378.135 297.258,378.275C297.292,382.141 298.238,385.038 299.378,387.87C299.931,389.245 300.051,390.893 300.999,391.859C300.999,391.941 300.999,392.024 300.999,392.108C299.679,391.494 297.94,390.767 296.385,390.612C296.34,388.791 295.71,386.853 295.265,385.378ZM245.25,382.512C245.141,382.659 245.149,382.652 245,382.762C245.113,383.729 245.883,383.925 246.498,384.38C247.891,385.416 249.523,386.394 250.739,387.622C251.627,388.522 252.464,389.469 253.358,390.364C253.774,390.738 254.19,391.111 254.606,391.485C255.405,392.628 256.327,393.707 257.474,394.477C258.9,395.435 260.583,396.33 262.089,397.094C263.533,397.827 265.022,397.995 266.33,398.839C266.999,399.272 267.674,399.986 268.45,400.333C269.41,400.763 270.336,400.839 271.319,401.332C272.03,401.686 272.786,402.246 273.69,402.452C273.474,403.123 273.024,404.14 272.816,404.821C272.816,407.645 272.816,410.47 272.816,413.296C272.436,414.66 270.996,415.12 270.322,416.163C269.821,416.937 269.337,419.759 269.075,420.774C269.075,421.105 269.075,421.438 269.075,421.771C268.479,423.589 266.533,424.077 265.582,425.51C263.457,424.781 262.409,422.449 260.718,421.272C257.724,419.187 256.509,416.703 254.607,413.545C254.092,412.691 253.283,411.873 252.736,411.052C251.59,409.329 250.665,407.62 249.493,405.944C249.039,405.293 248.202,404.73 247.747,404.073C246.669,402.518 245.537,399.13 243.755,398.465C243.755,398.423 243.755,398.382 243.755,398.34C243.713,398.34 243.672,398.34 243.63,398.34C243.63,398.382 243.63,398.423 243.63,398.465C243.327,398.629 243.543,398.406 243.38,398.715C243.28,398.843 243.334,398.745 243.255,398.964C244.759,400.358 245.333,402.176 246.499,403.947C247.138,404.923 248.18,405.757 248.868,406.689C250.178,408.463 251.342,410.399 252.609,412.174C253.419,413.305 253.837,414.577 254.606,415.787C254.975,416.367 255.598,416.958 255.978,417.531C256.262,417.962 256.286,418.493 256.602,418.903C256.758,419.105 257.165,419.211 257.351,419.401C258.339,420.42 259.168,421.286 260.344,422.141C261.916,423.288 262.861,425.058 264.709,426.006C264.659,426.761 264.427,426.817 264.21,427.251C263.73,428.217 263.368,429.971 263.086,430.99C262.919,431.597 263.23,432.414 262.963,432.86C262.95,433.548 263.003,433.969 263.212,434.356C263.606,434.285 263.574,434.247 263.835,434.105C263.881,431.597 264.351,428.508 265.457,426.876C266.648,425.121 269.185,424.325 269.946,422.14C269.946,421.809 269.946,421.477 269.946,421.144C270.27,419.878 270.513,418.005 271.069,416.783C271.644,415.519 273.259,415.077 273.689,413.543C273.689,412.794 273.689,412.048 273.689,411.299C273.689,409.069 273.523,406.219 274.062,404.57C274.105,404.155 274.145,403.738 274.188,403.324C275.212,401.369 277.901,400.982 279.052,399.212C280.466,397.036 279.562,394.02 278.802,391.984C278.489,391.141 278.553,389.632 277.805,389.242C277.677,389.14 277.774,389.196 277.555,389.115C277.427,389.217 277.524,389.161 277.306,389.242C277.432,392.384 280.094,395.539 278.304,398.713C277.512,400.116 275.247,400.464 274.312,401.828C273.393,401.509 272.442,400.821 271.568,400.457C270.481,400.001 269.434,399.91 268.45,399.335C267.243,398.63 265.984,397.645 264.709,396.967C264.037,396.609 263.413,396.654 262.714,396.344C260.635,395.421 258.492,394.045 256.726,392.729C256.121,392.278 255.797,391.621 255.354,390.984C254.731,390.403 254.107,389.82 253.484,389.241C252.486,388.201 251.488,387.161 250.491,386.123C249.218,385.236 246.444,383.671 245.627,382.51C245.499,382.512 245.375,382.512 245.25,382.512ZM343.782,483.586C343.324,483.627 342.867,483.667 342.41,483.709C336.38,486.058 333.681,488.959 330.187,493.803C329.096,495.316 327.153,497.178 326.444,498.913C325.842,500.392 325.552,502.293 325.072,503.774C325.03,504.354 324.989,504.936 324.947,505.517C324.564,506.67 324.244,508.366 323.948,509.63C323.948,511.251 323.948,512.871 323.948,514.491C323.28,516.718 323.866,519.911 324.323,521.844C324.323,522.3 324.323,522.758 324.323,523.215C324.994,525.437 325.182,528.073 326.069,530.069C326.111,530.443 326.152,530.818 326.194,531.193C327.435,534.04 329.973,536.985 331.682,539.542C332.527,540.806 333.055,542.672 333.553,544.152C333.595,544.527 333.636,544.901 333.678,545.275C333.962,545.997 335.05,550.746 334.303,551.88C334.292,552.412 334.278,552.642 334.552,552.876C334.679,552.978 334.583,552.922 334.802,553.001C334.929,552.899 334.832,552.954 335.051,552.876C336.446,546.211 333.057,539.566 330.437,535.927C329.301,534.352 327.863,532.712 327.068,530.818C326.603,529.71 326.41,528.191 326.07,527.08C326.029,526.581 325.987,526.082 325.945,525.585C325.712,524.958 325.394,523.606 325.196,522.968C325.154,522.052 325.113,521.139 325.071,520.224C324.537,518.328 324.469,516.148 324.946,514.119C324.946,512.581 324.946,511.045 324.946,509.508C325.387,507.59 325.752,505.383 326.318,503.65C326.68,502.54 326.489,501.703 326.817,500.66C327.555,498.31 329.19,496.853 330.435,495.053C332.624,491.881 334.547,489.322 337.793,487.201C338.404,486.801 339.076,486.115 339.789,485.83C342.588,484.708 345.821,483.876 348.52,482.715C349.41,482.33 350.514,482.742 350.89,481.842C350.76,481.732 350.625,481.598 350.516,481.468C347.928,481.515 345.908,482.885 343.782,483.586ZM365.11,509.507C361.773,510.573 359.174,512.204 356.504,513.869C353.779,515.568 351.197,516.598 349.146,518.978C348.98,519.061 348.813,519.145 348.646,519.227C347.862,519.942 346.385,521.537 345.902,522.468C345.458,523.324 345.466,524.088 345.029,524.959C344.07,526.878 343.304,528.878 342.285,530.817C341.555,532.207 340.378,533.564 339.666,534.929C339.126,535.963 338.971,536.826 338.419,537.796C337.937,538.642 336.989,539.574 336.672,540.537C336.572,540.666 336.626,540.567 336.547,540.786C336.648,540.915 336.593,540.816 336.672,541.036C338.469,540.922 339.794,536.472 340.664,535.053C342.04,532.806 343.475,530.32 344.78,527.95C344.863,527.575 344.946,527.202 345.029,526.828C345.472,525.902 346.114,524.76 346.527,523.837C346.686,523.48 346.59,523.154 346.777,522.84C347.852,521.021 350.948,518.089 352.763,516.983C353.424,516.582 354.117,516.421 354.759,515.985C355.08,515.769 355.405,515.327 355.757,515.113C356.131,514.988 356.505,514.863 356.879,514.739C358.912,513.448 361.05,512.032 363.364,511.001C363.78,510.96 364.196,510.918 364.612,510.876C368.49,509.728 373.488,510.861 376.086,512.248C376.439,512.436 376.752,513.017 377.084,513.244C379.013,514.566 381.115,516.209 382.323,518.23C382.78,518.996 382.83,519.769 383.196,520.596C384.01,522.442 384.971,524.587 385.815,526.455C385.857,526.786 385.898,527.119 385.94,527.45C386.14,527.951 386.715,528.562 386.938,529.071C387.021,529.445 387.104,529.819 387.188,530.193C387.239,530.284 387.515,530.452 387.562,530.566C387.932,531.479 387.828,532.073 388.185,533.059C388.227,533.173 388.51,533.343 388.56,533.434C388.643,533.848 388.726,534.264 388.809,534.678C388.843,534.754 389.143,534.952 389.183,535.052C389.225,535.428 389.266,535.801 389.308,536.174C389.988,538.097 390.778,540.382 391.428,542.406C391.47,543.568 391.511,544.732 391.553,545.895C391.998,547.454 392.477,549.601 393.05,551.128C393.348,551.925 392.896,552.804 393.299,553.372C393.284,554.457 393.178,555.908 393.548,556.613C393.944,556.541 393.911,556.504 394.173,556.362C394.128,552.103 393.691,548.986 392.551,545.894C392.551,545.312 392.551,544.731 392.551,544.148C392.283,543.048 392.251,541.831 391.927,540.66C391.198,538.031 389.975,535.156 389.058,532.684C389.016,532.309 388.975,531.934 388.933,531.561C388.585,530.658 388.22,529.707 387.81,528.696C387.608,528.196 387.034,527.586 386.812,527.076C386.242,525.761 386.109,524.662 385.565,523.336C385.117,522.245 384.404,521.047 383.943,519.973C383.603,519.176 383.511,518.443 383.07,517.729C382.901,517.456 382.496,517.236 382.322,516.981C382.134,516.708 382.166,516.342 381.947,516.109C381.073,515.18 380.124,514.516 379.078,513.742C378.418,513.253 377.383,511.881 376.708,511.499C376.382,511.314 376.014,511.432 375.709,511.249C375.626,511.125 375.542,510.999 375.46,510.874C375.127,510.833 374.795,510.792 374.462,510.75C374.356,510.709 374.168,510.415 374.087,510.376C373.63,510.294 373.172,510.21 372.715,510.127C372.624,510.091 372.404,509.777 372.341,509.753C371.758,509.528 371.26,509.796 370.844,509.504C368.935,509.507 367.022,509.507 365.11,509.507ZM427.971,581.292C427.971,581.335 427.971,581.376 427.971,581.417C428.728,581.214 429.404,580.632 430.092,580.42C430.424,580.42 430.757,580.42 431.09,580.42C430.965,580.254 430.84,580.088 430.715,579.921C429.8,580.379 428.886,580.834 427.971,581.292ZM434.208,581.044C433.418,581.044 432.627,581.044 431.838,581.044C431.949,581.341 432.044,581.872 431.838,582.164C431.44,583.285 429.194,583.564 428.22,584.159C427.648,584.509 426.969,585.148 426.35,585.405C425.039,585.947 423.881,586.091 422.732,586.775C421.942,587.248 421.018,588.023 420.113,588.396C418.357,589.121 416.167,589.196 414.75,590.266C414.001,590.294 413.551,590.314 413.254,589.891C413.212,589.891 413.171,589.891 413.129,589.891C414.041,591.707 415.087,593.463 416.122,595.126C416.247,595.499 416.372,595.873 416.497,596.246C416.926,596.948 417.666,597.858 417.994,598.615C418.077,599.321 418.16,600.027 418.243,600.733C418.431,601.381 418.805,602.157 418.991,602.977C418.991,603.641 418.991,604.305 418.991,604.97C419.558,607.53 419.16,611.072 419.74,613.694C419.74,614.233 419.74,614.774 419.74,615.315C419.948,616.244 420.221,616.809 420.614,617.433C420.697,617.682 420.78,617.931 420.864,618.18C421.836,619.252 423.296,619.934 424.481,620.797C425.318,621.406 426.072,622.54 426.975,623.041C427.638,623.408 428.56,623.141 429.345,623.414C429.985,623.638 430.649,624.31 431.216,624.536C431.798,624.536 432.38,624.536 432.962,624.536C433.504,624.687 434.196,625.01 434.833,625.284C436.275,625.905 438.398,627.792 439.697,628.773C441.354,630.025 442.21,631.931 443.439,633.633C444.527,635.142 446.398,636.15 447.679,637.496C448.567,638.428 449.049,640.623 451.297,640.113C455.018,639.271 457.826,637.586 460.901,636.25C462.172,635.699 463.339,635.633 464.643,635.128C465.89,634.647 466.843,633.353 467.886,632.635C468.175,632.439 468.484,632.462 468.759,632.263C469.914,631.423 470.709,629.993 471.877,629.147C472.569,628.644 473.723,628.309 474.247,627.652C474.831,626.918 475.174,625.375 476.118,625.034C476.076,623.934 475.322,623.375 474.745,622.79C473.834,621.865 472.966,620.924 471.502,620.548C468.592,620.548 465.682,620.548 462.772,620.548C462.128,620.365 459.894,618.886 459.28,618.429C457.823,617.347 457.071,615.591 456.037,614.068C455.358,613.068 454.329,612.175 453.667,611.202C452.593,609.62 451.75,608.047 450.674,606.466C448.442,603.186 445.84,600.25 443.565,596.994C443.188,596.454 442.442,596.042 442.069,595.499C440.77,593.618 439.669,591.526 438.451,589.642C438.14,589.159 438.203,588.585 437.952,588.022C436.948,585.761 436.251,582.693 434.709,580.918C434.417,580.945 434.354,580.943 434.208,581.044ZM425.727,583.784C425.079,584.096 424.524,583.998 423.855,584.283C422.313,584.939 420.927,586.11 419.365,586.775C417.408,587.611 415.347,587.967 413.628,588.895C413.698,589.29 413.737,589.256 413.877,589.517C414.963,589.416 415.664,588.833 416.497,588.52C417.321,588.209 417.899,588.321 418.742,588.022C420.051,587.557 421.269,586.677 422.359,586.028C422.669,585.843 423.017,585.955 423.357,585.78C424.436,585.221 425.941,584.541 426.974,583.909C427.795,583.407 430.707,582.466 431.09,581.791C431.19,581.663 431.135,581.761 431.215,581.542C431.085,581.433 430.949,581.299 430.84,581.168C428.795,581.479 427.318,583.02 425.727,583.784ZM423.979,583.286C424.506,583.54 427.42,581.852 427.846,581.417C426.423,581.81 425.434,583.08 423.979,583.286ZM374.714,640.74C374.605,640.886 374.613,640.881 374.465,640.989C374.535,641.383 374.574,641.351 374.714,641.612C377.464,641.62 379.1,642.467 381.325,642.982C383.349,643.451 385.906,642.8 387.312,642.483C389.765,642.483 392.217,642.483 394.67,642.483C395.376,642.292 396.358,641.829 397.04,641.612C397.026,641.258 396.99,641.079 396.915,640.863C396.068,640.918 395.36,641.285 394.67,641.487C392.384,641.487 390.096,641.487 387.81,641.487C386.891,641.572 386.077,641.929 385.316,642.11C383.32,642.583 380.943,641.865 379.703,641.487C378.924,641.25 377.218,641.175 376.71,640.74C376.044,640.74 375.379,640.74 374.714,640.74Z"/>
    </g>
</svg>
