<?xml version="1.0" encoding="UTF-8" standalone="no"?>
<!DOCTYPE svg PUBLIC "-//W3C//DTD SVG 1.1//EN" "http://www.w3.org/Graphics/SVG/1.1/DTD/svg11.dtd">
<svg width="100%" height="100%" viewBox="0 0 119 176" version="1.1" xmlns="http://www.w3.org/2000/svg" xmlns:xlink="http://www.w3.org/1999/xlink" xml:space="preserve" xmlns:serif="http://www.serif.com/" style="fill-rule:evenodd;clip-rule:evenodd;stroke-linejoin:round;stroke-miterlimit:1.41421;">
    <g transform="matrix(1,0,0,1,-238.94,-14.7602)">
        <path d="M268.757,28.576C269.301,28.289 269.844,28.004 270.386,27.719C270.565,27.535 270.664,26.857 270.73,26.602C271.051,26.416 271.267,26.333 271.846,26.344C272.533,24.849 272.802,23.224 273.219,21.798C273.191,21.513 273.161,21.227 273.135,20.941C273.753,19.26 275.557,16.903 276.994,15.964C278.027,15.29 281.457,14.371 283.429,14.936C283.886,15.135 284.345,15.335 284.802,15.536C287.431,15.971 287.653,16.726 289.177,18.366C289.492,18.538 289.807,18.709 290.121,18.882C290.265,19.396 290.408,19.91 290.551,20.426C290.866,20.628 291.18,20.826 291.494,21.028C291.41,21.456 291.324,21.885 291.237,22.313C291.552,22.743 291.867,23.172 292.181,23.601C292.267,25.432 292.353,27.261 292.438,29.091C292.41,29.091 292.38,29.091 292.353,29.091C292.194,28.257 292.322,27.485 292.181,26.604C292.097,26.547 292.01,26.489 291.923,26.433C291.923,27.491 291.923,28.55 291.923,29.609C292.076,30.263 292.75,31.064 292.439,32.096C292.124,32.64 291.811,33.183 291.495,33.725C291.305,34.308 291.404,35.12 291.238,35.7C291.181,35.728 291.123,35.757 291.068,35.787C291.039,35.157 291.01,34.526 290.982,33.899C291.147,33.138 291.904,32.735 292.098,32.097C292.401,31.083 291.727,30.555 291.582,30.036C291.582,29.008 291.582,27.978 291.582,26.948C291.554,26.948 291.526,26.948 291.495,26.948C291.38,27.948 291.267,28.949 291.152,29.95C291.254,30.495 291.65,31.104 291.41,31.753C291.41,31.811 291.41,31.867 291.41,31.923C290.913,30.772 291.033,29.399 291.067,27.977C291.038,27.977 291.009,27.977 290.981,27.977C290.582,30.014 290.697,32.391 290.637,34.326C290.488,33.993 290.246,29.881 290.295,29.609C290.265,29.609 290.236,29.609 290.208,29.609C290.062,30.463 290.517,31.084 290.378,32.009C290.218,33.085 290.112,34.467 290.121,35.869C290.093,35.869 290.065,35.869 290.037,35.869C289.83,34.117 289.946,32.435 289.95,30.379C289.283,31.098 289.97,32.066 289.522,32.867C289.522,32.925 289.522,32.981 289.522,33.037C289.493,32.696 289.464,32.353 289.436,32.009C289.408,32.009 289.378,32.009 289.349,32.009C288.937,33.675 288.578,35.284 289.265,36.984C289.265,37.071 289.265,37.157 289.265,37.243C289.237,37.243 289.208,37.243 289.178,37.243C288.927,36.618 288.756,35.896 288.663,35.012C288.634,35.669 288.606,36.327 288.578,36.984C288.468,37.209 288.118,37.368 287.979,37.671C287.92,37.701 287.864,37.73 287.807,37.758C287.98,36.859 288.409,36.374 288.236,35.184C288.178,35.156 288.121,35.126 288.063,35.098C288.133,36.092 287.552,37.039 287.377,38.015C287.349,38.015 287.32,38.015 287.291,38.015C287.181,37.188 287.381,36.692 287.464,35.955C287.436,35.955 287.405,35.955 287.377,35.955C286.605,37.042 285.833,38.128 285.06,39.216C289.067,37.515 292.517,35.786 295.528,39.903C299.482,39.033 303.077,36.373 306.595,34.925C310.766,33.211 315.174,32.687 318.778,30.55C322.105,28.579 324.539,25.908 328.216,24.201C328.275,24.314 328.329,24.43 328.388,24.544C329.225,24.957 331.361,22.207 332.848,21.885C333.249,22.285 333.65,22.686 334.05,23.086C337.591,21.043 340.721,17.973 345.032,16.735C346.102,16.429 347.171,16.851 348.035,16.994C350.808,16.994 353.583,16.994 356.357,16.994C356.529,17.223 356.7,17.451 356.871,17.68C357.059,17.93 356.965,18.061 356.871,18.452C355.8,19.101 353.111,19.085 351.554,19.052C352.257,20.268 351.579,20.741 350.782,21.367C350.981,21.539 351.182,21.712 351.381,21.884C351.392,22.665 351.257,22.768 350.954,23.17C351.211,23.285 351.468,23.399 351.726,23.514C351.726,23.914 351.726,24.312 351.726,24.714C350.842,25.677 350.144,25.366 348.55,25.744C347.778,26.03 347.005,26.317 346.235,26.602C342.801,27.498 338.983,26.72 336.882,28.833C337.025,29.005 337.168,29.176 337.311,29.348C336.855,30.234 336.396,31.121 335.938,32.008C334.663,33.192 332.732,33.929 331.048,34.667C327.759,36.27 324.469,37.873 321.182,39.473C319.02,40.862 316.89,42.955 314.489,44.019C313.026,44.666 310.954,44.782 309.512,45.649C308.911,46.421 308.31,47.193 307.71,47.966C306.522,48.664 304.743,48.318 303.335,48.824C300.262,49.927 298.547,53.088 294.584,53.286C293.255,57.504 294.266,65.739 295.1,69.758C296.73,79.593 298.361,89.435 299.988,99.273C294.042,100.159 288.092,101.045 282.145,101.933C282.063,107.662 281.268,112.574 280.257,117.288C279.715,120.176 279.171,123.066 278.627,125.955C277.655,129.043 276.683,132.133 275.709,135.222C276.14,137.796 276.568,140.368 276.997,142.943C277.427,143.886 277.855,144.83 278.284,145.773C280.114,152.632 281.15,159.815 283.175,166.277C284.149,169.388 286.66,171.1 287.551,174.087C288.227,176.359 287.532,178.932 287.466,181.209C287.179,181.15 286.894,181.094 286.607,181.035C286.22,182.846 287.112,184.536 286.437,186.27C286.437,186.299 286.437,186.327 286.437,186.356C286.666,186.356 286.895,186.356 287.123,186.356C287.266,186.957 287.409,187.555 287.553,188.157C285.698,189.824 278.866,190.657 275.628,189.615C275.484,189.099 275.342,188.585 275.198,188.071C275.47,186.657 278.028,183.478 277.599,181.55C277.163,179.585 274.305,177.165 273.224,175.544C271.058,172.3 270.53,167.681 269.278,163.533C268.706,161.36 268.134,159.185 267.562,157.013C267.534,157.013 267.504,157.013 267.476,157.013C266.475,159.387 265.473,161.759 264.473,164.135C264.56,165.219 264.644,166.305 264.731,167.393C264.502,169.226 264.274,171.054 264.045,172.885C263.472,173.399 262.9,173.914 262.327,174.429C262.337,176.46 262.398,178.043 262.071,179.578C263.228,181.361 265.075,182.384 265.76,184.553C267.218,185.01 268.676,185.468 270.135,185.927C270.85,185.984 271.565,186.04 272.28,186.098C272.695,186.481 272.174,187.819 272.11,188.158C267.547,188.475 262.035,188.96 257.696,187.814C254.624,187.005 251.061,185.886 247.571,185.414C247.276,183.184 247.64,181.372 248.428,179.75C248.572,179.607 248.714,179.463 248.859,179.321C248.657,179.293 248.458,179.264 248.257,179.236C248.229,177.404 248.2,175.573 248.172,173.745C249.148,169.322 252.32,167.309 253.921,163.534C255.974,158.691 256.845,152.802 258.467,147.492C259.096,145.49 259.725,143.486 260.354,141.483C260.668,140.857 260.984,140.227 261.298,139.597C261.565,138.177 257.614,130.922 256.923,129.303C254.383,123.358 252.992,116.859 251.43,109.741C251.088,107.91 250.744,106.079 250.402,104.25C247.824,104.958 244.879,106.459 242.766,104.163C242.292,103.64 242.651,102.46 242.508,101.589C242.04,98.761 242.204,95.169 242.679,92.324C243.335,88.4 243.995,85.253 245.253,82.028C245.695,80.896 247.047,78.776 246.626,77.138C246.185,75.423 244.612,74.381 244.138,72.933C243.817,71.95 243.834,71.078 243.622,70.272C242.382,71.187 242.387,72.355 241.564,73.704C241.564,73.761 241.564,73.818 241.564,73.875C240.953,73.137 241.32,70.918 240.964,70.015C240.392,68.784 239.819,67.557 239.248,66.326C237.207,59.455 245.893,51.014 248.085,46.078C249.55,42.774 248.723,38.052 251.429,35.953C253.159,34.612 257.684,34.61 260.439,34.494C260.707,33.805 260.882,32.556 261.296,31.835C261.831,30.906 262.565,31.588 263.355,31.321C263.641,31.064 263.927,30.807 264.213,30.549C264.528,30.634 264.842,30.721 265.157,30.807C265.557,30.52 265.958,30.235 266.358,29.948C266.951,29.971 267.045,30.074 267.388,30.291C267.473,30.092 267.559,29.891 267.644,29.692C267.939,29.547 268.332,29.502 268.845,29.521C268.814,29.207 268.786,28.89 268.757,28.576ZM290.035,36.812C289.401,36.214 288.503,34.264 289.347,33.294C289.193,34.895 289.671,35.661 290.035,36.812ZM290.72,35.096C290.749,35.037 290.778,34.981 290.806,34.924C290.778,34.981 290.75,35.038 290.72,35.096ZM290.035,36.982C290.063,36.926 290.091,36.869 290.119,36.812C290.091,36.87 290.063,36.927 290.035,36.982Z"/>
    </g>
</svg>
