<?xml version="1.0" encoding="UTF-8" standalone="no"?>
<!DOCTYPE svg PUBLIC "-//W3C//DTD SVG 1.1//EN" "http://www.w3.org/Graphics/SVG/1.1/DTD/svg11.dtd">
<svg width="100%" height="100%" viewBox="0 0 116 177" version="1.1" xmlns="http://www.w3.org/2000/svg" xmlns:xlink="http://www.w3.org/1999/xlink" xml:space="preserve" xmlns:serif="http://www.serif.com/" style="fill-rule:evenodd;clip-rule:evenodd;stroke-linejoin:round;stroke-miterlimit:1.41421;">
    <g transform="matrix(1,0,0,1,-530.745,-13.22)">
        <path d="M599.555,15.994C600.599,17.559 601.091,20.428 601.557,22.382C603.446,23.598 607.078,23.151 608.333,24.965C609.178,26.185 608.356,27.726 607.817,28.645C607.537,29.204 607.258,29.766 606.978,30.323C606.269,31.321 602.122,33.724 600.782,34.261C600.324,36.26 599.667,38.199 598.136,39.101C598.09,39.017 598.047,38.93 598.005,38.845C598.216,37.858 599.146,37.357 599.362,36.392C599.031,36.037 598.815,35.934 598.198,36.004C598.063,36.307 598.131,36.68 598.198,37.102C597.898,37.166 597.596,37.23 597.297,37.295C597.019,37.518 596.804,38.403 596.651,38.714C595.647,38.943 594.492,38.779 593.358,38.908C593.25,39.038 593.142,39.167 593.035,39.296C593.858,40.454 595.42,39.811 596.326,39.296C596.349,39.296 596.37,39.296 596.389,39.296C596.845,41.492 595.253,45.381 592.712,44.138C591.8,43.722 591.292,41.937 591.808,40.781C592.019,40.309 592.399,40.076 592.518,39.426C592.26,39.276 592.003,39.126 591.744,38.974C591.788,37.501 592.561,37.032 593.099,36.133C593.059,35.876 593.106,35.942 592.971,35.812C592.236,35.409 591.563,36.504 590.517,36.263C589.131,35.945 588.024,36.732 586.451,36.909C586.2,36.937 585.897,36.596 585.418,36.65C585.172,36.013 585.005,35.431 584.516,35.036C584.601,35.015 584.689,34.994 584.775,34.972C584.795,34.928 584.817,34.886 584.838,34.842C582.944,34.09 581.052,33.337 579.157,32.583C579.114,32.583 579.072,32.583 579.028,32.583C579.028,32.562 579.028,32.54 579.028,32.52C580.996,32.891 583.052,33.859 584.902,34.327C585.398,34.327 585.891,34.327 586.387,34.327C587.055,34.52 587.72,34.715 588.388,34.909C589.759,35.199 591.566,35.107 592.712,35.36C594.139,35.673 597.113,34.885 598.135,34.65C598.868,34.481 599.185,34.86 599.748,34.909C600.208,33.8 601.824,33.645 602.781,33.036C604.891,31.695 607.783,29.866 608.46,27.162C609.199,24.215 602.937,23.963 600.845,23.419C600.644,23.052 600.758,22.635 600.651,22.063C600.394,21.138 600.135,20.211 599.877,19.288C599.464,17.947 598.713,16.743 598.264,15.544C598.019,15.452 598.147,15.47 597.878,15.544C597.169,14.585 598.183,13.317 596.39,13.284C596.652,13.263 596.907,13.242 597.166,13.22C597.962,14.144 598.759,15.068 599.555,15.994ZM588.776,14.444C588.776,14.423 588.776,14.401 588.776,14.38C591.172,14.09 593.436,13.258 596.2,13.282C595.228,13.79 590.174,14.426 588.776,14.444ZM588.518,14.509C588.518,14.487 588.518,14.467 588.518,14.444C588.605,14.444 588.691,14.444 588.777,14.444C588.69,14.467 588.604,14.487 588.518,14.509ZM594.843,14.703C594.467,15.053 593.972,15.226 593.231,15.22C593.21,15.176 593.188,15.133 593.166,15.091C593.48,14.74 594.12,14.5 594.78,14.51C594.801,14.573 594.823,14.639 594.843,14.703ZM588.26,14.509C588.325,14.509 588.39,14.509 588.452,14.509C588.39,14.509 588.325,14.509 588.26,14.509ZM588.003,14.573C588.066,14.573 588.132,14.573 588.197,14.573C588.132,14.573 588.066,14.573 588.003,14.573ZM587.743,14.639C587.809,14.639 587.872,14.639 587.937,14.639C587.872,14.639 587.81,14.639 587.743,14.639ZM587.485,14.703C587.529,14.703 587.57,14.703 587.614,14.703C587.57,14.703 587.529,14.703 587.485,14.703ZM585.612,15.09C585.678,15.09 585.742,15.09 585.807,15.09C585.742,15.09 585.679,15.09 585.612,15.09ZM583.033,15.994C583.336,15.415 584.768,15.159 585.612,15.155C584.896,15.587 583.719,15.607 583.033,15.994ZM597.167,20.189C596.832,20.437 596.585,20.604 596.069,20.705C596.025,20.835 595.983,20.964 595.941,21.093C596.276,21.866 599.1,23.473 600.007,23.352C600.432,24.012 600.952,25.967 600.523,27.095C600.081,28.253 596.304,32.154 595.037,32.388C594.219,32.539 590.315,30.385 589.035,30.063C585.311,29.132 581.399,30.784 582.967,25.805C582.862,25.717 582.753,25.632 582.644,25.545C581.061,24.954 576.103,28.718 576.579,30.646C576.786,31.49 577.662,31.672 578.192,32.195C576.487,31.779 575.885,30.034 576.901,28.451C577.813,27.03 580.121,25.405 582.064,25.095C581.934,23.589 581.807,22.082 581.677,20.576C581.486,19.207 582.239,17.54 582.58,16.574C582.624,16.553 582.666,16.532 582.71,16.512C582.767,17.111 582.772,17.653 583.16,17.93C584.78,16.082 590.38,17.326 592.649,18.059C593.232,18.248 594.37,19.108 595.295,18.768C596.022,18.502 596.426,16.273 597.425,15.928C597.807,17.177 597.241,18.941 597.167,20.189ZM582.901,16.187C582.923,16.144 582.945,16.102 582.966,16.058C582.945,16.102 582.924,16.144 582.901,16.187ZM583.871,25.224C583.956,25.331 584.044,25.439 584.129,25.546L584.452,25.546C584.598,25.241 584.602,25.117 584.258,24.965C584.129,24.945 584.001,24.923 583.871,24.902C583.871,25.009 583.871,25.117 583.871,25.224ZM585.419,25.739C585.356,25.761 585.29,25.783 585.227,25.805C585.206,26.019 585.183,26.233 585.164,26.449C585.249,26.493 585.336,26.534 585.42,26.579C585.723,26.601 586.024,26.621 586.324,26.643C586.389,26.622 586.453,26.601 586.518,26.579C586.474,26.044 586.289,25.939 586.002,25.675C585.808,25.698 585.612,25.718 585.419,25.739ZM578.191,32.195C578.235,32.195 578.275,32.195 578.319,32.195C578.275,32.195 578.235,32.195 578.191,32.195ZM578.837,32.454C578.901,32.454 578.966,32.454 579.029,32.454C578.966,32.454 578.901,32.454 578.837,32.454ZM580.838,36.131C580.104,36.433 579.855,35.965 579.029,35.938C579.029,35.917 579.029,35.896 579.029,35.874C579.783,35.831 580.536,35.789 581.289,35.745C581.153,35.963 581.095,36.028 580.838,36.131ZM542.948,182.326C543.387,182.802 543.928,183.48 544.432,183.877C545.659,183.002 546.836,181.854 547.723,180.648C547.514,180.261 547.225,180.116 547.143,179.616C547.143,179.594 547.143,179.572 547.143,179.551C549.395,178.381 553.692,177.781 554.309,175.163C554.18,174.236 554.049,173.311 553.922,172.388C551.515,172.132 548.29,171.236 546.111,171.87C544.783,173.855 543.639,175.719 542.173,177.551C541.404,178.51 540.016,179.484 539.977,181.101C540.263,181.393 540.526,181.511 540.946,181.683C540.946,181.746 540.946,181.809 540.946,181.876C540.728,182.326 540.621,182.721 539.977,182.78C540.065,182.951 540.151,183.122 540.238,183.295C540.216,183.339 540.195,183.383 540.173,183.425C539.678,183.446 539.184,183.467 538.688,183.488C538.319,184.173 538.03,185.672 536.751,185.168C536.688,185.147 536.622,185.124 536.558,185.103C536.671,184.779 537.373,183.79 537.656,183.554C537.656,183.468 537.656,183.384 537.656,183.295C537.011,183.577 536.365,183.856 535.719,184.136C536.71,183.361 537.698,182.587 538.688,181.81C541.098,178.412 543.509,175.012 545.918,171.614C545.595,171.656 545.273,171.7 544.949,171.741C544.756,171.741 544.562,171.741 544.367,171.741C545.142,166.193 545.918,160.638 546.693,155.091C547.123,151.303 547.553,147.516 547.982,143.73C548.8,140.956 549.618,138.18 550.437,135.404C550.565,133.573 550.693,131.747 550.823,129.917C551.081,129.316 551.339,128.714 551.595,128.111C552.2,127.549 552.802,126.991 553.404,126.432C554.049,125.269 554.695,124.107 555.341,122.945C557.064,119.999 558.541,116.705 559.926,113.522C560.289,112.405 560.655,111.286 561.022,110.166C562.098,108.961 563.173,107.757 564.248,106.552C565.583,104.101 566.917,101.646 568.251,99.194C566.789,99.108 565.324,99.022 563.862,98.936C563.447,97.361 562.869,95.771 562.055,94.546C561.667,94.073 561.28,93.6 560.892,93.127C560.613,89.598 560.331,86.07 560.052,82.542C559.437,78.75 559.404,73.748 559.989,69.825C560.032,67.418 560.076,65.007 560.119,62.596C560.247,60.769 560.376,58.939 560.506,57.111C561.064,54.314 561.624,51.516 562.184,48.72C563.103,44.961 564.009,42.428 565.864,39.813C566.272,39.253 566.681,38.693 567.091,38.135C569.381,36.417 574.183,36.172 577.805,35.939C577.805,35.961 577.805,35.984 577.805,36.004C577.075,36.308 575.168,36.395 574.707,37.037C574.139,36.949 571.865,36.699 571.286,36.973C571.068,37.231 570.855,37.489 570.64,37.748C570.343,38.011 569.905,38.118 569.61,38.392C568.701,39.233 568.672,41.399 569.479,42.264C570.236,42.387 570.429,41.996 571.157,41.943C571.36,42.272 571.315,42.354 571.221,42.781C571.373,42.91 571.523,43.04 571.673,43.169C571.822,43.19 571.975,43.211 572.125,43.233C572.729,42.671 572.469,42.417 572.254,41.683C572.254,41.663 572.254,41.64 572.254,41.62C572.532,41.62 572.813,41.62 573.093,41.62C573.544,41.476 573.876,40.777 574.385,40.523C574.642,40.563 574.576,40.518 574.707,40.652C574.75,40.717 574.792,40.78 574.835,40.845C574.677,41.347 574.177,41.267 573.931,41.684C573.736,42.101 573.972,42.377 574.255,42.523C575.665,42.402 575.532,41.106 576.063,40.135C576.429,39.854 576.793,39.575 577.159,39.296C577.29,38.95 577.42,38.608 577.548,38.265C578.36,37.723 579.327,37.515 579.678,36.52C579.785,36.434 579.893,36.348 580,36.262C580.021,36.52 580.044,36.78 580.064,37.036C579.369,37.864 579.03,38.961 578.385,39.876C577.847,40.641 576.982,41.348 576.579,42.263C576.448,42.803 576.32,43.34 576.191,43.879C575.733,44.709 574.836,45.527 574.449,46.394C574.405,46.76 574.362,47.127 574.317,47.493C573.888,48.332 573.458,49.171 573.028,50.011C572.984,50.398 572.941,50.784 572.899,51.171C572.55,52.549 571.981,53.819 571.609,55.302C571.13,57.211 571.644,59.832 571.348,61.628C570.919,64.245 570.769,67.878 571.22,70.599C571.379,71.553 571.103,72.563 570.962,73.18C571.028,74.128 571.092,75.074 571.155,76.022C571.47,77.991 571.149,79.709 571.544,81.377C572.431,85.14 575.038,87.273 576.19,90.545C575.363,91.196 574.009,90.831 573.221,91.512C571.752,92.776 570.911,95.278 570.057,97.127C571.091,98.247 572.123,99.363 573.157,100.483C574.19,102.117 575.22,103.753 576.254,105.388C577.502,106.466 578.749,107.541 579.998,108.617C580.386,108.532 580.772,108.446 581.16,108.358C581.053,108.014 580.944,107.669 580.838,107.327C580.859,107.327 580.88,107.327 580.902,107.327C581.715,107.868 582.294,108.633 583.676,108.424C583.827,108.1 583.979,107.777 584.128,107.457C582.061,106.039 579.021,103.963 578.19,101.388C580.365,102.662 582.665,106.055 586.322,104.227C586.279,103.926 586.237,103.625 586.193,103.323C583.342,102.701 580.982,101.63 579.932,99.193C578.848,96.679 579.757,93.744 582.256,93.32C582.298,93.255 582.342,93.191 582.384,93.126C582.15,93.019 581.911,92.912 581.675,92.804C581.675,92.633 581.675,92.458 581.675,92.287C582.873,92.026 583.246,92.762 583.804,92.737C585.793,92.654 587.909,91.814 589.486,91.125C591.119,90.243 592.756,89.362 594.39,88.479C595.966,87.487 597.07,86.228 599.748,86.285C601.418,83.48 599.517,79.249 600.069,75.699C600.263,72.514 600.458,69.33 600.65,66.144C600.393,65.285 600.134,64.425 599.876,63.565C600.135,61.798 600.394,60.035 600.65,58.272C600.393,57.647 600.134,57.024 599.876,56.399C599.847,55.662 600.287,54.158 600.394,53.366C600.091,52.031 599.791,50.697 599.49,49.363C599.813,47.814 600.136,46.264 600.459,44.716C600.522,44.674 600.586,44.631 600.651,44.588C601.221,45.002 601.336,45.103 601.686,45.751C602.161,45.628 602.115,45.527 602.587,45.621C602.885,46.297 602.497,46.856 602.651,47.621C602.924,48.984 604.816,49.199 606.265,48.847C606.308,48.761 606.352,48.676 606.394,48.59C606.546,48.171 605.331,46.596 605.04,46.394C604.674,46.268 604.309,46.138 603.942,46.008C603.545,45.656 603.229,44.744 602.911,44.33C602.825,44.33 602.738,44.33 602.651,44.33C602.415,44.517 602.338,44.681 602.264,45.041C601.876,44.739 601.489,44.436 601.102,44.137C600.693,43.404 601.412,42.912 600.974,42.2C601.448,42.222 601.92,42.242 602.392,42.263C603.769,43.426 605.147,44.59 606.524,45.751C608.992,47.61 611.337,49.467 613.495,51.623C614.056,52.161 614.613,52.699 615.175,53.237C617.366,56.332 618.187,61.28 619.369,65.243C619.67,66.491 619.971,67.737 620.27,68.986C623.155,74.859 626.038,80.733 628.921,86.605C629.996,89.467 631.073,92.33 632.149,95.192C632.989,96.074 633.828,96.956 634.665,97.838C634.925,97.988 635.183,98.139 635.44,98.29C635.784,99.086 636.128,99.882 636.473,100.678C636.537,101.132 636.602,101.582 636.665,102.033C637.182,102.551 637.698,103.066 638.216,103.583C638.042,104.185 637.871,104.788 637.698,105.389C637.31,105.477 636.923,105.563 636.537,105.648C637.322,106.69 638.599,107.499 639.635,108.294C641.898,110.034 644.086,111.898 646.607,113.396C646.52,113.825 646.434,114.256 646.35,114.685C645.399,114.871 644.286,114.474 643.703,114.04C643.659,114.04 643.616,114.04 643.574,114.04C644.085,113.88 644.958,114.129 645.574,113.977C645.789,113.692 645.952,113.4 645.639,113.071C642.648,110.921 639.658,108.767 636.665,106.616C635.905,106.398 634.648,107.651 634.148,108.037C633.926,108.132 631.608,108.732 631.373,108.682C630.918,108.581 630.49,108.087 629.955,107.907C628.559,109.157 630.448,113.507 630.665,114.749C630.896,116.089 630.208,118.427 630.984,119.203C631.365,119.578 632.066,119.414 632.73,119.396C632.73,119.418 632.73,119.438 632.73,119.46C632.089,120.589 631.198,120.113 630.21,119.588C630.201,115.654 629.839,113.352 628.983,110.489C628.747,109.562 628.51,108.639 628.273,107.713C627.874,107.174 624.275,107.666 623.37,107.713C622.983,106.809 622.593,105.905 622.207,105.002C621.948,103.691 621.69,102.377 621.433,101.064C619.131,95.323 616.829,89.575 614.527,83.834C612.914,80.733 611.298,77.636 609.685,74.539C609.34,74.836 608.997,75.139 608.653,75.439C608.611,80.54 608.567,85.638 608.523,90.738C609.755,98.007 609.578,106.767 609.556,115.265C609.039,115.801 608.523,116.341 608.009,116.877C606.696,116.921 605.382,116.963 604.07,117.007C602.183,119.739 602.438,124.459 601.617,128.237C601.064,130.792 601.085,133.801 600.584,136.693C599.766,141.456 599.599,147.495 600.393,152.637C600.413,153.732 600.435,154.829 600.457,155.928C600.692,158.595 600.931,161.264 601.166,163.931C601.359,165.846 601.554,167.763 601.747,169.676C602.113,170.624 602.478,171.57 602.844,172.517C602.802,174.259 602.758,175.999 602.714,177.745C603.201,178.368 604.027,178.76 604.331,179.551C604.394,180.885 604.458,182.218 604.522,183.553C604.093,184.178 603.66,184.801 603.23,185.426C602.628,186.371 602.028,187.32 601.423,188.265C599.252,189.649 595.768,190.109 592.258,190.073C592.175,187.435 592.769,185.661 593.679,183.94C593.118,183.662 592.559,183.383 592.001,183.102C590.233,177.294 588.471,171.485 586.708,165.676C584.771,157.456 582.834,149.238 580.898,141.019C580.984,139.125 581.07,137.231 581.156,135.34C581.199,133.447 581.242,131.553 581.285,129.659C581.759,125.894 582.232,122.127 582.706,118.363C582.684,118.363 582.662,118.363 582.64,118.363C579.41,120.682 577.259,124.075 574.959,127.336C572.218,131.218 569.385,135.309 567.537,140.05C566.891,143.17 566.245,146.291 565.601,149.409C564.789,152.613 564.428,156.179 563.663,159.606C562.952,163.48 562.243,167.354 561.533,171.226C559.685,171.353 557.833,171.484 555.982,171.613C555.853,172.603 555.724,173.593 555.595,174.582C556.019,177.398 557.065,180.761 556.369,184.005C554.604,184.651 552.842,185.296 551.076,185.943C546.333,182.547 544.526,188.306 540.619,189.555C538.813,189.578 537.006,189.6 535.197,189.622C534.014,189.622 532.829,189.622 531.645,189.622C530.973,189.319 530.765,188.531 530.745,187.684C530.896,187.576 531.046,187.469 531.197,187.361C531.679,187.215 531.915,187.596 532.356,187.684C532.981,187.661 533.607,187.642 534.229,187.62C535.133,187.797 536.602,187.902 537.586,188.071C537.606,188.071 537.628,188.071 537.649,188.071C537.692,188.007 537.734,187.941 537.778,187.878C537.39,187.479 536.941,187.544 536.681,186.974C536.578,186.846 536.593,186.885 536.551,186.653C537.207,186.215 537.777,186.285 538.681,185.943C539.392,185.47 540.103,184.995 540.812,184.522C540.898,184.307 540.985,184.091 541.071,183.877C541.522,183.532 541.975,183.189 542.425,182.843C542.447,182.672 542.468,182.501 542.49,182.326C542.647,182.326 542.798,182.326 542.948,182.326ZM594.843,37.035C594.801,37.035 594.757,37.035 594.715,37.035C594.81,37.392 594.995,37.535 595.361,37.616C595.687,37.725 595.965,37.469 596.2,37.294C596.2,37.186 596.2,37.08 596.2,36.972C596.091,36.908 595.983,36.843 595.878,36.779C595.394,36.763 595.077,36.811 594.843,37.035ZM585.679,36.971C585.657,37.1 585.636,37.229 585.613,37.359C585.371,37.352 585.453,37.343 585.164,37.293C585.12,37.165 585.076,37.035 585.034,36.906C585.183,36.864 585.336,36.819 585.486,36.778C585.548,36.842 585.612,36.907 585.679,36.971ZM592.778,42.652C592.736,42.673 592.692,42.694 592.649,42.715C592.67,42.846 592.692,42.973 592.713,43.102C592.972,43.189 593.23,43.275 593.488,43.361C593.744,43.297 594.003,43.233 594.261,43.168C594.347,43.039 594.433,42.909 594.521,42.78C594.521,42.758 594.521,42.737 594.521,42.715C594.369,42.673 594.219,42.629 594.068,42.587C593.639,42.608 593.209,42.629 592.778,42.652ZM574.448,43.297C574.49,43.648 574.509,43.685 574.77,43.812C574.876,43.684 574.984,43.555 575.092,43.426C574.98,43.251 574.923,43.229 574.77,43.102C574.663,43.168 574.555,43.232 574.448,43.297ZM591.553,45.557C591.918,45.535 592.282,45.514 592.65,45.49C592.693,45.49 592.737,45.49 592.779,45.49C592.779,45.514 592.779,45.535 592.779,45.557C592.211,46.049 591.572,46.247 591.228,46.975C591.099,47.083 590.973,47.191 590.843,47.297C590.843,47.083 590.843,46.866 590.843,46.654C589.317,45.664 587.77,46.991 586.712,47.62C586.647,47.555 586.582,47.492 586.518,47.427C586.647,47.233 586.776,47.04 586.907,46.847C586.884,46.717 586.863,46.586 586.84,46.46C586.821,46.437 586.798,46.415 586.777,46.392C586.158,46.465 585.571,46.917 585.099,46.781C584.685,46.494 585.172,44.583 585.487,44.07C585.53,44.004 585.573,43.941 585.614,43.877C586.021,44 586.115,44.352 586.454,44.457C587.454,44.765 588.267,43.912 589.1,43.811C589.746,44.485 590.467,45.351 591.553,45.557ZM564.313,44.199C564.292,44.373 564.272,44.544 564.248,44.716C564.313,44.759 564.378,44.802 564.442,44.846C564.528,44.868 564.615,44.887 564.702,44.909C564.721,44.909 564.745,44.909 564.765,44.909C564.946,44.633 564.998,44.463 564.828,44.136C564.658,44.156 564.484,44.179 564.313,44.199ZM583.806,44.975C583.806,45.147 583.806,45.319 583.806,45.489C583.441,45.759 583.399,45.761 583.034,45.489C583.075,45.297 583.119,45.102 583.161,44.909C583.335,44.846 583.508,44.781 583.678,44.715C583.72,44.802 583.764,44.887 583.806,44.975ZM573.092,45.233C573.071,45.47 573.048,45.706 573.028,45.943C573.092,45.985 573.158,46.029 573.222,46.071C573.623,46.255 573.868,46.002 573.93,45.62C574.021,45.32 573.838,45.127 573.673,44.91C573.284,44.931 573.227,44.961 573.092,45.233ZM605.236,45.427C605.215,45.448 605.192,45.47 605.171,45.49C605.171,45.514 605.171,45.535 605.171,45.557C605.3,45.665 605.428,45.769 605.558,45.877C605.622,45.877 605.689,45.877 605.752,45.877C605.704,45.584 605.684,45.598 605.558,45.427C605.45,45.427 605.344,45.427 605.236,45.427ZM567.993,45.943C567.928,46.071 567.864,46.2 567.799,46.33C567.821,46.437 567.842,46.546 567.864,46.654C568.332,47.008 568.594,46.933 568.898,46.461C568.875,46.352 568.854,46.244 568.831,46.137C568.768,46.051 568.702,45.965 568.637,45.877C568.423,45.9 568.208,45.921 567.993,45.943ZM569.478,46.007C569.478,46.093 569.478,46.179 569.478,46.265C569.499,46.286 569.52,46.309 569.541,46.331C569.608,46.331 569.671,46.331 569.735,46.331C569.777,46.265 569.82,46.201 569.864,46.138C569.82,46.072 569.777,46.008 569.735,45.944C569.65,45.965 569.564,45.985 569.478,46.007ZM606.333,46.524C606.483,46.654 606.633,46.782 606.785,46.91C606.827,46.866 606.869,46.825 606.913,46.782C606.788,46.497 606.743,46.445 606.526,46.264C606.371,46.389 606.419,46.304 606.333,46.524ZM607.301,47.234C607.279,47.255 607.259,47.277 607.237,47.297C607.316,47.796 607.512,48.062 607.883,48.266C608.229,47.937 608.02,47.495 607.753,47.234C607.603,47.234 607.45,47.234 607.301,47.234ZM590.39,47.879C589.458,48.859 588.582,50.332 587.293,50.911C587.029,50.82 586.543,50.295 586.389,50.073C586.91,49.534 586.965,49.203 587.227,48.331C587.866,48.268 587.964,48.537 588.518,48.652C588.562,48.633 588.605,48.611 588.649,48.589C588.683,48.236 588.635,48.263 588.453,48.007C588.6,47.341 589.451,47.443 590.263,47.492C590.349,47.638 590.356,47.619 590.39,47.879ZM608.851,48.525C608.728,48.615 608.81,48.53 608.722,48.652C608.551,49.081 609.788,50.188 610.077,50.331C610.379,50.331 610.679,50.331 610.98,50.331C610.936,50.117 610.894,49.902 610.851,49.686C610.181,49.244 609.654,48.988 609.107,48.458C609.023,48.48 608.936,48.503 608.851,48.525ZM601.041,48.783C600.909,48.871 600.936,48.854 600.847,48.977C600.934,49.062 601.02,49.148 601.105,49.233C601.386,49.212 601.405,49.197 601.557,49.107C601.47,48.978 601.384,48.847 601.3,48.719C601.211,48.738 601.125,48.76 601.041,48.783ZM611.237,50.524C611.216,50.546 611.195,50.569 611.174,50.59C611.415,51.947 612.711,52.229 613.238,53.299C613.43,53.279 613.625,53.258 613.82,53.235C613.799,52.978 613.775,52.718 613.756,52.462C612.832,51.909 612.336,51.19 611.561,50.524C611.452,50.524 611.346,50.524 611.237,50.524ZM586.906,51.107C586.947,51.042 586.99,50.978 587.033,50.911C586.99,50.978 586.947,51.042 586.906,51.107ZM563.282,53.366C563.366,53.408 563.454,53.452 563.538,53.494C563.538,53.408 563.538,53.322 563.538,53.236C563.454,53.281 563.366,53.322 563.282,53.366ZM613.948,53.816C613.948,53.881 613.948,53.946 613.948,54.01C614.077,54.118 614.206,54.225 614.336,54.333C614.379,54.375 614.423,54.418 614.467,54.463C614.487,54.397 614.51,54.333 614.53,54.27C614.423,54.119 614.315,53.97 614.206,53.816C614.12,53.816 614.036,53.816 613.948,53.816ZM584.129,54.011C584.108,54.011 584.085,54.011 584.065,54.011C584.182,53.882 584.064,53.965 584.258,53.882C584.216,53.925 584.172,53.97 584.129,54.011ZM614.4,54.85C614.449,55.396 614.711,55.568 615.111,55.754C615.303,55.612 615.298,55.65 615.369,55.365C615.158,55.012 614.862,54.876 614.594,54.592C614.53,54.677 614.467,54.765 614.4,54.85ZM610.723,54.785C610.459,55.152 610.445,55.438 610.593,55.947C611.423,56.374 612.036,55.374 611.367,54.785C611.152,54.785 610.937,54.785 610.723,54.785ZM614.981,56.916C615.024,56.958 615.068,57.002 615.111,57.044C615.132,57.044 615.153,57.044 615.176,57.044C615.176,56.958 615.176,56.872 615.176,56.786C615.111,56.83 615.047,56.872 614.981,56.916ZM613.689,58.723C613.799,58.765 613.905,58.809 614.013,58.851C614.205,58.83 614.4,58.809 614.593,58.788C614.658,58.723 614.723,58.658 614.787,58.595C614.753,58.193 614.667,58.081 614.529,57.82C613.836,57.791 613.654,58.033 613.689,58.723ZM614.206,62.725C614.143,62.896 614.077,63.069 614.014,63.242C614.321,63.449 614.474,63.532 614.853,63.372C614.874,63.242 614.897,63.112 614.916,62.981C614.81,62.874 614.702,62.769 614.594,62.662C614.467,62.68 614.336,62.703 614.206,62.725ZM601.233,66.467C601.19,66.618 601.147,66.769 601.104,66.921C601.19,66.984 601.277,67.047 601.362,67.114C601.716,67.057 601.726,67.046 601.814,66.728C601.729,66.619 601.643,66.512 601.556,66.404C601.45,66.426 601.341,66.446 601.233,66.467ZM619.176,69.5C619.113,69.608 619.048,69.716 618.986,69.823C618.986,70.04 618.986,70.254 618.986,70.47C619.1,70.674 619.165,70.687 619.372,70.791C619.522,70.77 619.673,70.749 619.824,70.726C619.909,70.577 619.997,70.426 620.082,70.276C620.05,69.728 619.893,69.668 619.566,69.435C619.436,69.458 619.307,69.481 619.176,69.5ZM620.081,71.631C619.996,71.761 619.908,71.888 619.823,72.02C619.866,72.234 619.908,72.45 619.952,72.663C620.12,72.749 620.178,72.778 620.469,72.793C620.532,72.686 620.597,72.578 620.662,72.47C620.832,72.091 620.603,71.83 620.402,71.632C620.296,71.631 620.188,71.631 620.081,71.631ZM563.799,73.566C563.712,73.719 563.626,73.868 563.538,74.02C563.538,74.106 563.538,74.192 563.538,74.276C563.583,74.32 563.626,74.362 563.668,74.406C563.775,74.385 563.884,74.362 563.991,74.34C564.055,74.32 564.12,74.298 564.184,74.276C564.247,73.963 564.23,73.755 564.12,73.503C564.012,73.526 563.904,73.547 563.799,73.566ZM620.727,74.148C620.769,74.127 620.813,74.106 620.856,74.084C620.813,74.106 620.769,74.127 620.727,74.148ZM566.314,77.183C566.08,77.546 565.828,77.771 565.798,78.345C566.034,78.474 566.271,78.602 566.507,78.732C566.615,78.732 566.724,78.732 566.83,78.732C566.894,78.624 566.959,78.516 567.023,78.409C567.229,77.913 566.84,77.487 566.636,77.184C566.529,77.183 566.422,77.183 566.314,77.183ZM602.073,77.828C602.051,77.998 602.031,78.173 602.007,78.345C602.051,78.388 602.095,78.43 602.138,78.474C602.267,78.43 602.395,78.388 602.525,78.345C602.546,78.237 602.569,78.129 602.589,78.022C602.525,77.936 602.46,77.85 602.395,77.764C602.288,77.786 602.181,77.805 602.073,77.828ZM624.277,83.055C624.254,83.163 624.233,83.271 624.212,83.378C624.298,83.422 624.385,83.464 624.471,83.508C624.621,83.53 624.772,83.551 624.921,83.571C625.044,83.362 625.103,83.293 625.115,82.928C625.051,82.842 624.986,82.753 624.921,82.667C624.485,82.684 624.408,82.749 624.277,83.055ZM625.633,84.025C625.611,84.13 625.588,84.238 625.568,84.346C625.633,84.389 625.697,84.43 625.762,84.475C625.847,84.497 625.934,84.519 626.02,84.539C626.041,84.539 626.062,84.539 626.083,84.539C626.126,84.475 626.17,84.412 626.212,84.346C626.106,84.219 625.998,84.088 625.89,83.957C625.804,83.981 625.717,84.003 625.633,84.025ZM627.245,86.8C627.245,86.886 627.245,86.972 627.245,87.058C627.352,87.1 627.46,87.144 627.566,87.188C627.632,87.058 627.695,86.928 627.762,86.8C627.695,86.712 627.632,86.627 627.566,86.541C627.46,86.627 627.353,86.712 627.245,86.8ZM570.122,87.769C570.122,87.81 570.122,87.855 570.122,87.896C570.467,88.283 570.81,88.673 571.155,89.06C571.511,89.011 571.57,88.955 571.737,88.736C571.758,88.607 571.78,88.479 571.8,88.349C571.431,88.092 570.756,87.985 570.381,87.703C570.294,87.725 570.209,87.747 570.122,87.769ZM563.475,91.446C563.411,91.468 563.345,91.491 563.283,91.512C563.283,91.705 563.283,91.898 563.283,92.093C563.389,92.115 563.496,92.137 563.603,92.156C563.776,92.049 563.949,91.94 564.121,91.835C564.121,91.769 564.121,91.705 564.121,91.642C563.992,91.553 563.863,91.468 563.733,91.381C563.646,91.404 563.563,91.426 563.475,91.446ZM629.633,93.384C629.706,93.616 629.684,93.573 629.828,93.708C629.891,93.685 629.958,93.664 630.02,93.642C630.061,93.578 630.106,93.515 630.15,93.448C630.086,93.406 630.02,93.362 629.958,93.32C629.848,93.339 629.741,93.361 629.633,93.384ZM629.504,94.481C629.484,94.523 629.46,94.566 629.441,94.608C629.441,94.629 629.441,94.652 629.441,94.673C629.612,94.696 629.785,94.715 629.958,94.738C629.978,95.039 629.999,95.34 630.021,95.642C630.128,95.726 630.235,95.813 630.343,95.899C630.494,95.857 630.644,95.813 630.796,95.771C630.859,95.726 630.925,95.687 630.987,95.642C630.987,95.426 630.987,95.211 630.987,94.997C630.452,94.708 630.135,94.687 629.828,94.156C629.61,94.266 629.607,94.261 629.504,94.481ZM630.987,96.74C630.671,97.372 630.643,97.573 630.02,97.9C630.106,98.31 630.194,98.719 630.278,99.128C630.386,99.106 630.494,99.085 630.6,99.063C630.67,98.595 630.688,98.318 630.859,97.901C631.053,97.88 631.247,97.86 631.441,97.838C631.514,98.181 631.515,98.429 631.634,98.742C631.764,98.806 631.892,98.869 632.021,98.935C632.377,98.649 632.55,97.883 632.603,97.321C632.581,97.279 632.559,97.236 632.538,97.192C632.008,97.082 631.734,96.938 631.376,96.677C631.247,96.696 631.117,96.718 630.987,96.74ZM628.213,99C628.17,99 628.128,99 628.084,99C627.922,99.229 627.852,99.232 627.826,99.646C627.868,99.688 627.912,99.731 627.956,99.774C628.149,99.732 628.342,99.688 628.536,99.646C628.578,99.559 628.622,99.473 628.666,99.387C628.77,99.259 628.752,99.298 628.794,99.063C628.707,99.021 628.622,98.977 628.536,98.935C628.431,98.957 628.321,98.977 628.213,99ZM631.376,100.613C631.246,100.701 631.271,100.684 631.183,100.807C631.204,100.848 631.225,100.893 631.247,100.937C631.312,100.957 631.376,100.979 631.441,101C631.504,100.979 631.569,100.956 631.634,100.937C631.655,100.828 631.677,100.721 631.697,100.613C631.654,100.591 631.611,100.57 631.568,100.546C631.505,100.569 631.441,100.59 631.376,100.613ZM635.701,103.582C635.971,103.481 635.86,103.594 635.959,103.322C635.688,103.423 635.799,103.311 635.701,103.582ZM633.765,103.969C633.68,104.138 633.651,104.194 633.635,104.486C633.743,104.528 633.85,104.572 633.959,104.613C634.065,104.549 634.174,104.486 634.28,104.419C634.217,104.27 634.151,104.118 634.087,103.969C633.979,103.969 633.871,103.969 633.765,103.969ZM564.573,107.583C564.558,107.59 563.474,109.52 563.474,109.52C563.907,109.377 563.977,108.956 564.313,108.81C564.872,108.747 565.431,108.682 565.993,108.617C566.035,108.617 566.078,108.617 566.12,108.617C565.947,108.277 565.123,107.807 564.829,107.52C564.745,107.541 564.658,107.563 564.573,107.583ZM634.991,109.52C634.97,109.585 634.947,109.648 634.927,109.714C634.861,109.714 634.797,109.714 634.733,109.714C634.515,109.293 634.238,108.893 634.087,108.487C634.087,108.465 634.087,108.445 634.087,108.423C634.217,108.401 634.347,108.379 634.476,108.357C634.843,108.565 635.313,108.986 634.991,109.52ZM633.506,109.26C633.443,109.26 633.376,109.26 633.313,109.26C633.431,109.032 633.277,109.182 633.506,109.067C633.506,109.133 633.506,109.198 633.506,109.26ZM561.28,111.648C561.259,111.757 561.236,111.864 561.214,111.972C561.41,112.121 561.604,112.274 561.797,112.423C561.968,112.445 562.142,112.467 562.314,112.489C562.336,112.445 562.355,112.404 562.378,112.359C562.211,111.95 562.244,111.765 562.829,111.779C562.916,111.649 563.001,111.52 563.09,111.392C563.066,111.348 563.045,111.306 563.022,111.262C562.851,111.218 562.679,111.177 562.506,111.133C562.099,111.306 561.69,111.478 561.28,111.648ZM645.188,119.846C645.188,120.084 645.188,120.319 645.188,120.557C644.323,121.197 643.182,121.126 642.221,120.62C642.112,120.988 642.003,121.353 641.896,121.718C640.237,121.463 639.423,119.126 639.058,117.588C639.014,117.567 638.97,117.546 638.927,117.525C637.957,118.8 635.771,119.438 634.216,120.106C634.002,119.999 633.785,119.891 633.57,119.784C633.505,119.698 633.441,119.612 633.375,119.523C634.67,119.435 638.178,118.079 638.798,117.264C638.948,117.308 639.1,117.353 639.25,117.394C640.21,117.87 640.264,120.05 640.992,120.814C641.507,120.694 641.373,120.312 641.701,120.17C642.246,119.938 643.108,120.816 644.09,120.557C644.156,120.45 644.221,120.341 644.284,120.233C644.576,119.35 643.297,118.564 642.865,118.104C642.46,117.673 640.756,113.349 640.928,112.811C642.188,115.329 643.023,118.227 645.188,119.846ZM641.573,112.876C641.616,112.876 641.659,112.876 641.702,112.876C641.659,112.876 641.616,112.876 641.573,112.876ZM641.702,112.941C641.747,112.941 641.79,112.941 641.831,112.941C641.79,112.941 641.747,112.941 641.702,112.941ZM641.831,113.004C641.876,113.004 641.92,113.004 641.96,113.004C641.92,113.004 641.876,113.004 641.831,113.004ZM642.156,113.198C642.091,113.156 642.027,113.112 641.96,113.07C642.004,113.07 642.048,113.07 642.091,113.07C642.112,113.112 642.133,113.155 642.156,113.198ZM642.349,113.328C642.394,113.328 642.437,113.328 642.478,113.328C642.437,113.328 642.394,113.328 642.349,113.328ZM642.478,113.394C642.521,113.394 642.566,113.394 642.608,113.394C642.565,113.394 642.521,113.394 642.478,113.394ZM643.06,113.714C643.102,113.714 643.145,113.714 643.188,113.714C643.145,113.714 643.102,113.714 643.06,113.714ZM634.087,113.78C634.13,113.78 634.174,113.78 634.217,113.78C634.174,113.78 634.13,113.78 634.087,113.78ZM634.217,113.845C634.259,113.845 634.303,113.845 634.347,113.845C634.303,113.845 634.259,113.845 634.217,113.845ZM643.448,113.908C643.487,113.908 643.531,113.908 643.576,113.908C643.531,113.908 643.487,113.908 643.448,113.908ZM634.347,113.908C634.388,113.908 634.431,113.908 634.476,113.908C634.431,113.908 634.388,113.908 634.347,113.908ZM634.476,113.975C634.517,113.975 634.56,113.975 634.604,113.975C634.56,113.975 634.517,113.975 634.476,113.975ZM634.604,114.038C634.647,114.038 634.69,114.038 634.733,114.038C634.689,114.038 634.646,114.038 634.604,114.038ZM633.313,116.943C633.035,116.347 632.576,114.841 632.925,114.037C633.005,115.189 633.451,115.854 633.313,116.943ZM560.893,114.294C560.233,114.917 559.037,117.19 558.763,118.168C558.893,118.405 558.732,118.279 559.023,118.362C559.82,117.399 560.527,116.14 561.669,115.522C561.716,115.069 561.475,114.699 561.281,114.294C561.151,114.294 561.022,114.294 560.893,114.294ZM564.248,114.748C564.185,114.79 564.12,114.834 564.056,114.876C564.486,115.194 565.935,114.952 566.573,114.876C566.573,114.855 566.573,114.834 566.573,114.812C566.037,114.751 565.291,114.864 564.895,114.683C564.679,114.704 564.466,114.727 564.248,114.748ZM636.54,116.04C635.874,116.297 635.205,116.556 634.539,116.814C634.539,116.791 634.539,116.77 634.539,116.749C635.258,116.414 635.761,115.935 636.668,115.716C636.626,115.824 636.584,115.932 636.54,116.04ZM634.021,118.235C633.958,118.254 633.892,118.276 633.83,118.298C633.722,118.298 633.613,118.298 633.506,118.298C633.506,118.235 633.506,118.168 633.506,118.104C633.656,118.083 633.807,118.061 633.959,118.039C633.979,118.104 634.003,118.168 634.021,118.235ZM556.053,123.589C556.074,123.611 556.095,123.633 556.118,123.656C556.939,123.393 558.465,119.804 558.568,118.749C558.158,119.199 556.088,122.955 556.053,123.589ZM554.438,126.495C553.923,126.838 553.406,127.183 552.89,127.529C552.867,127.549 552.848,127.57 552.824,127.593C552.613,127.884 552.568,128.243 552.567,128.753C552.588,128.798 552.611,128.839 552.63,128.884C553.569,129.192 554.994,126.525 555.535,125.785C555.923,125.591 556.31,125.397 556.697,125.203C556.697,125.117 556.697,125.033 556.697,124.947C556.675,124.925 556.655,124.903 556.634,124.88C556.461,124.925 556.288,124.966 556.118,125.011C556.011,124.817 555.9,124.624 555.793,124.43C554.987,124.788 554.921,125.799 554.438,126.495ZM597.167,182.456C597.167,182.478 597.167,182.501 597.167,182.519C598.352,182.907 599.533,183.294 600.717,183.684C601.211,184.178 601.706,184.673 602.202,185.167C602.504,184.349 602.805,183.532 603.104,182.712C602.503,181.938 601.899,181.165 601.299,180.389C599.923,181.079 598.544,181.767 597.167,182.456ZM602.524,181.034C602.545,180.993 602.568,180.949 602.588,180.907C602.474,180.993 602.551,180.975 602.524,181.034ZM599.683,183.747C599.165,184.088 599.977,184.575 600.266,184.071C600.339,183.797 600.201,183.786 600.008,183.618C599.899,183.661 599.793,183.702 599.683,183.747ZM598.588,185.167C598.443,185.455 598.538,185.718 598.716,185.875C599.229,185.993 599.632,185.9 599.815,185.488C599.815,185.253 599.815,185.015 599.815,184.778C599.707,184.736 599.599,184.692 599.492,184.65C599.01,184.705 598.754,184.793 598.588,185.167Z"/>
    </g>
</svg>
