<?xml version="1.0" encoding="UTF-8" standalone="no"?>
<!DOCTYPE svg PUBLIC "-//W3C//DTD SVG 1.1//EN" "http://www.w3.org/Graphics/SVG/1.1/DTD/svg11.dtd">
<svg width="100%" height="100%" viewBox="0 0 76 190" version="1.1" xmlns="http://www.w3.org/2000/svg" xmlns:xlink="http://www.w3.org/1999/xlink" xml:space="preserve" xmlns:serif="http://www.serif.com/" style="fill-rule:evenodd;clip-rule:evenodd;stroke-linejoin:round;stroke-miterlimit:1.41421;">
    <g transform="matrix(1,0,0,1,-417.925,-201.859)">
        <path d="M449.624,237.324C449.293,236.216 448.959,235.108 448.626,233.999C448.58,233.969 448.533,233.936 448.483,233.904C448.547,234.665 448.61,235.425 448.674,236.183C448.468,237.063 447.834,238.861 448.007,239.794C448.136,240.238 448.262,240.681 448.389,241.126C447.362,240.256 447.929,237.796 448.199,236.659C448.433,235.665 447.73,235.161 447.583,234.472L447.485,234.472C447.277,235.647 447.782,236.772 447.438,237.94C447.137,238.686 446.836,239.43 446.537,240.173C446.41,240.347 446.282,240.522 446.156,240.696C446.173,241.267 446.188,241.835 446.204,242.405C446.188,242.405 446.173,242.405 446.156,242.405C446.06,242.135 445.965,241.868 445.872,241.599C445.528,239.971 446.762,238.709 447.06,237.609C447.2,237.086 446.675,236.621 446.583,236.278C446.327,235.306 446.914,234.263 447.203,233.714C447.203,233.634 447.203,233.555 447.203,233.476C447.17,233.476 447.138,233.476 447.106,233.476C446.502,235.243 445.777,236.555 445.824,239.129C445.806,239.129 445.793,239.129 445.777,239.129C444.955,236.128 446.94,234.691 446.916,232.191C446.63,231.795 446.374,231.681 445.824,231.526C444.669,232.541 443.691,234.699 441.642,234.711C440.953,234.223 440.619,233.307 439.883,232.904C439.362,232.76 438.839,232.621 438.317,232.478C438.285,232.478 438.253,232.478 438.221,232.478C438.221,232.034 438.221,231.59 438.221,231.146C436.365,231.373 436.596,230.465 436.037,229.151C436.037,229.12 436.037,229.088 436.037,229.055C435.207,229.182 434.283,229.331 433.471,229.055C433.271,227.748 433.806,226.106 433.375,224.59C433.171,224.084 432.408,224.031 432.14,223.592C431.95,223.118 431.761,222.643 431.571,222.167C431.365,221.881 431.158,221.597 430.953,221.312C430.921,221.296 430.89,221.282 430.857,221.264C430.2,222.403 431.103,223.935 430.81,225.445C430.526,226.364 430.239,227.282 429.955,228.201C430.003,229.024 430.051,229.847 430.098,230.672C430.083,230.672 430.068,230.672 430.051,230.672C429.938,229.946 429.548,229.26 429.718,228.248C429.878,227.309 430.297,226.575 430.478,225.731C430.654,224.918 430.366,223.658 430.24,223.023C430.24,222.088 430.24,221.154 430.24,220.221C430.045,219.087 429.025,217.742 428.247,217.133C428.229,217.133 428.215,217.133 428.2,217.133C427.846,217.678 427.469,218.13 427.104,218.698C427.104,218.729 427.104,218.761 427.104,218.793C427.09,218.793 427.073,218.793 427.059,218.793C427.14,218.288 427.293,217.882 427.484,217.512C427.374,217.606 427.263,217.702 427.153,217.796C427.007,217.951 426.945,218.775 426.917,218.984C426.949,218.934 426.979,218.888 427.012,218.839C427.204,219.407 427.048,220.051 427.343,220.55C427.894,221.476 428.955,221.843 429.339,222.974C429.37,223.401 429.403,223.829 429.435,224.256C429.32,224.848 428.996,225.721 429.197,226.536C429.261,226.795 429.437,227.237 429.34,227.677C429.252,228.072 429.108,228.373 429.104,228.911C429.104,228.422 429.104,227.932 429.104,227.438C429.097,226.943 428.937,226.673 428.864,226.298C428.567,224.741 429.557,223.225 428.249,222.451C428.504,223.253 428.917,224.089 428.628,225.157C428.465,225.761 428.039,226.163 427.915,226.916C427.732,228.018 428.52,228.773 428.391,229.623C428.22,230.754 427.308,231.085 427.298,232.476C427.28,232.476 427.266,232.476 427.251,232.476C427.088,231.206 427.816,230.74 428.058,229.814C428.384,228.568 427.253,227.797 427.583,226.44C427.747,225.767 428.71,224.58 428.106,223.685C428.106,223.654 428.106,223.622 428.106,223.59C428.088,223.59 428.074,223.59 428.057,223.59C427.82,224.255 427.582,224.921 427.344,225.587C427.344,225.996 427.344,226.41 427.344,226.82C427.067,228.028 426.459,228.44 426.489,230.288C426.474,230.288 426.46,230.288 426.442,230.288C426.269,228.955 426.695,228.054 426.919,227.057C427.057,226.44 426.806,225.67 426.965,225.064C427.105,224.537 427.433,223.733 427.298,222.973C426.985,221.222 425.872,220.035 425.491,218.41C424.994,216.282 427.535,215.429 426.585,213.232C426.595,212.703 426.94,212.311 427.298,212.14C427.222,211.683 427.019,211.514 427.014,210.953C427.298,210.632 427.553,210.385 427.868,210.098C427.82,210.001 427.774,209.907 427.724,209.812C427.775,209.384 428.14,209.183 428.532,209.1C428.55,208.655 428.565,208.212 428.581,207.768C429.697,207.319 430.711,206.743 431.052,205.535C432.89,205.141 432.207,204.381 433.095,203.828C433.73,203.653 434.362,203.478 434.994,203.303C435.518,203.136 435.575,202.579 435.991,202.4C437.202,201.885 438.516,202.44 439.795,202.448C439.843,202.15 439.922,202.067 440.174,201.975C441.143,201.598 442.037,202.25 442.597,202.4C442.959,202.499 443.121,202.255 443.31,202.212C443.72,202.323 444.133,202.434 444.544,202.543C444.829,202.767 445.113,202.988 445.399,203.21C445.779,203.367 445.954,203.133 446.253,203.162C446.539,203.289 446.822,203.416 447.108,203.543C447.345,203.495 447.585,203.447 447.822,203.398C448.087,203.444 450.25,204.572 450.529,204.777C451.25,205.307 451.526,206.321 452.05,207.058C452.494,207.487 452.937,207.912 453.378,208.339C453.789,208.875 454.015,209.513 454.614,209.86C455.636,210.45 456.918,209.188 458.226,209.577C458.871,209.766 459.364,210.918 459.888,211.334C460.681,211.999 461.47,212.664 462.262,213.33C462.42,213.582 462.58,213.835 462.739,214.089C462.945,214.103 463.151,214.121 463.356,214.136C464.219,214.535 465.821,216.266 465.828,217.556C466.223,217.812 466.619,218.065 467.015,218.317C467.368,218.588 467.536,219.091 467.869,219.363C468.554,219.916 469.235,220.224 469.628,221.074C469.628,221.154 469.628,221.232 469.628,221.311C469.13,221.09 468.976,220.425 468.062,220.075C468.043,220.252 468.029,220.426 468.012,220.599C468.697,221.274 470.304,221.929 470.056,223.448C469.945,224.136 469.735,224.775 469.724,225.589C470.582,225.943 470.758,226.854 471.434,227.299C472.46,227.977 473.408,228.031 473.43,229.722C473.142,229.447 473.211,228.993 473.001,228.629C472.524,227.794 471.171,227.646 469.962,227.819C471.358,229.815 473.591,231.17 475.045,233.094C475.951,234.295 476.576,235.649 477.468,236.894C478.385,237.7 479.306,238.509 480.223,239.317C481.075,240.506 480.845,241.557 481.126,243.357C481.126,243.736 481.126,244.117 481.126,244.496C481.41,245.082 481.696,245.668 481.981,246.254C482.263,247.19 482.55,248.123 482.835,249.058C484.102,250.847 485.369,252.636 486.636,254.426C488.352,257.241 489.628,260.182 490.911,263.405C491.307,264.385 491.702,265.368 492.098,266.35C492.402,269.105 492.702,271.861 493.002,274.619C493.019,275.979 493.033,277.341 493.049,278.702C493.304,279.654 493.556,280.602 493.809,281.554C493.794,282.076 493.779,282.599 493.762,283.122C493.747,284.118 493.73,285.116 493.716,286.113C493.54,286.684 493.365,287.255 493.194,287.824C493.096,289.186 493.003,290.547 492.907,291.911C492.797,292.653 493.375,292.808 493.336,293.384C493.034,295.648 492.732,297.912 492.433,300.178C492.21,301.202 491.717,302.681 491.817,303.835C491.935,305.245 492.796,306.305 493.097,307.492C493.25,308.095 492.512,312.261 492.29,312.529C491.973,312.687 491.657,312.846 491.34,313.004C491.166,313.463 490.993,313.923 490.818,314.381C490.161,314.692 489.516,314.359 488.965,314.193C488.791,314.589 488.616,314.986 488.442,315.381C487.935,315.472 487.523,315.572 486.922,315.523C486.891,316.14 486.859,316.758 486.827,317.376C486.97,318.327 487.111,319.278 487.253,320.227C487.097,320.513 486.939,320.798 486.779,321.081C486.621,321.081 486.463,321.081 486.303,321.081C484.399,319.781 484.534,315.213 483.5,312.91C483.301,312.573 481.398,311.622 480.935,311.486C480.763,310.414 479.816,307.892 480.032,306.829C480.524,305.198 481.016,303.567 481.505,301.936C481.65,300.809 481.79,299.687 481.933,298.564C481.585,299.165 481.236,299.767 480.886,300.368C480.177,301.563 479.084,303.248 477.989,304.026C475.537,305.775 472.164,306.29 469.107,307.493C463.5,309.712 457.893,311.928 452.287,314.144C448.741,315.778 445.193,317.409 441.645,319.04C440.486,319.556 439.507,320.794 438.179,321.036C438.179,321.05 438.179,321.067 438.179,321.081C438.761,321.848 438.433,322.403 438.842,323.173C439.175,323.585 439.506,323.997 439.839,324.407C440.219,325.484 440.6,326.561 440.98,327.636C441.804,328.572 442.627,329.507 443.452,330.443C443.894,331.471 444.339,332.501 444.784,333.531C445.509,334.716 446.239,335.905 446.965,337.094C447.854,338.281 448.741,339.469 449.627,340.657C449.817,341.908 450.008,343.159 450.197,344.41C450.688,344.76 451.179,345.107 451.672,345.457C452.516,346.09 453.759,347.091 454.284,348.021C454.521,348.876 454.758,349.732 454.997,350.586C455.219,350.713 455.439,350.838 455.662,350.966C456.567,351.544 457.066,352.08 457.372,353.293C460.578,353.808 464.163,354.456 467.729,354.577C468.472,357.798 467.556,362.829 467.015,365.886C466.666,368.765 466.319,371.649 465.971,374.53C465.368,377.475 464.767,380.424 464.164,383.369C463.499,386.233 463.057,389.123 461.884,391.397C461.108,391.367 460.331,391.334 459.556,391.301C456.968,390.504 456.315,385.896 456.373,382.416C455.534,381.561 454.693,380.706 453.853,379.851C453.862,382.7 453.341,387.485 449.959,385.459C449.233,385.024 448.741,383.576 448.296,382.845C447.013,380.47 445.729,378.095 444.447,375.719C444.288,375.054 444.131,374.389 443.971,373.724C443.581,373.136 442.654,373.049 442.025,372.677C440.92,372.029 439.912,369.644 439.504,368.259C437.782,369.072 438.307,374.01 438.412,376.288C438.332,376.336 438.253,376.385 438.177,376.432C438.144,376.461 438.112,376.494 438.081,376.526C437.486,375.037 437.528,371.975 437.936,370.256C438.108,369.532 438.623,368.233 438.176,367.546C437.48,366.486 433.992,366.389 432.188,366.358C431.843,365.503 432.071,365.016 432.331,364.172C433.047,361.843 434.452,361.446 437.177,361.131C437.16,360.736 437.148,360.343 437.13,359.945C436.258,358.74 435.097,357.687 434.281,356.476C433.93,355.731 433.581,354.988 433.232,354.244C431.744,352.769 430.256,351.299 428.768,349.825C427.914,348.367 427.058,346.911 426.203,345.455C424.556,340.797 422.908,336.141 421.262,331.484C420.421,329.11 419.583,326.735 418.744,324.358C418.29,323.077 417.623,321.333 418.077,319.465C418.902,316.073 422.193,313.126 424.587,311.198C427.792,308.619 430.609,305.413 433.947,302.979C437.827,300.572 441.706,298.164 445.586,295.757C446.789,294.997 447.993,294.237 449.196,293.478C449.83,293.127 450.464,292.78 451.095,292.432C452.312,291.528 452.731,290.194 454.424,289.677C454.66,288.931 454.899,288.189 455.135,287.443C455.484,286.825 455.832,286.208 456.181,285.59C456.077,284.13 454.946,283.593 454.518,282.597C454.47,281.869 454.424,281.141 454.373,280.41C454.223,279.781 453.745,279.273 453.568,278.794C453.583,278.399 453.597,278.004 453.614,277.607C453.438,276.689 453.266,275.771 453.092,274.851C452.857,274.152 451.997,273.755 451.904,272.81C452.047,272.525 452.19,272.239 452.332,271.955C452.173,270.734 452.015,269.515 451.856,268.298C451.682,267.931 451.3,267.54 451.094,267.109C451.319,266.649 451.427,263.736 451.094,263.024C450.898,262.601 450.181,262.41 450.003,261.931C449.753,261.256 450.299,260.602 450.384,260.267C450.24,259.207 450.097,258.145 449.956,257.085C449.804,256.533 449,256.301 448.815,255.658C448.616,254.97 449.213,254.798 449.194,254.378C449.145,253.32 448.827,251.912 448.815,250.623C448.545,250.466 448.277,250.307 448.005,250.147C447.544,249.306 447.776,247.83 448.815,247.676C448.893,246.727 448.973,245.777 449.052,244.825C448.781,244.589 448.514,244.351 448.244,244.114C447.689,243.086 448.19,241.545 449.383,241.548C449.475,240.161 449.896,238.729 449.624,237.324ZM456.371,210.104C457.147,210.325 457.924,210.546 458.699,210.768C458.506,210.396 458.23,210.171 457.986,209.865C457.448,209.943 456.91,210.024 456.371,210.104ZM459.459,211.905C459.947,212.501 461.034,213.549 461.786,213.807C461.804,213.807 461.818,213.807 461.836,213.807C461.849,213.775 461.866,213.744 461.882,213.713C461.243,212.942 460.549,212.554 459.793,211.904C459.68,211.905 459.57,211.905 459.459,211.905ZM464.827,217.275C465.016,217.306 465.209,217.339 465.397,217.372C465.016,216.36 464.117,215.42 463.306,214.806C463.293,215.267 464.532,216.736 464.827,217.275ZM426.297,219.129C426.297,219.16 426.297,219.192 426.297,219.225C426.297,218.655 426.297,218.085 426.297,217.515C426.358,217.276 426.508,217.145 426.536,216.801C425.828,217.176 425.84,218.471 426.297,219.129ZM468.06,221.314C468.04,222.866 468.513,223.71 469.388,224.45C469.409,224.097 469.522,224.03 469.58,223.833C469.949,222.589 468.754,221.738 468.2,221.314C468.154,221.314 468.105,221.314 468.06,221.314ZM427.722,221.409C428.041,221.758 428.356,222.106 428.673,222.456C428.543,221.963 428.054,221.733 427.818,221.409C427.785,221.409 427.754,221.409 427.722,221.409ZM427.438,221.932C427.438,221.899 427.438,221.869 427.438,221.838C427.438,221.868 427.438,221.898 427.438,221.932ZM427.817,223.118C427.833,223.118 427.849,223.118 427.865,223.118C427.768,222.642 427.645,222.345 427.483,221.98C427.596,222.359 427.707,222.739 427.817,223.118ZM468.06,225.115C468.261,225.213 468.426,225.201 468.628,225.068C468.66,225.068 468.692,225.068 468.724,225.068C468.711,223.919 468.015,223.438 467.537,222.739C466.734,223.574 467.813,224.643 468.06,225.115ZM469.722,227.491C470.107,227.334 470.282,227.187 470.909,227.207C470.728,226.634 470.041,226.55 469.627,226.207C469.35,226.496 469.637,227.216 469.722,227.491ZM430.193,230.911C430.112,230.802 430.097,230.815 430.145,230.674C430.161,230.755 430.178,230.833 430.193,230.911Z"/>
    </g>
</svg>
