<?xml version="1.0" encoding="UTF-8" standalone="no"?>
<!DOCTYPE svg PUBLIC "-//W3C//DTD SVG 1.1//EN" "http://www.w3.org/Graphics/SVG/1.1/DTD/svg11.dtd">
<svg width="100%" height="100%" viewBox="0 0 162 345" version="1.1" xmlns="http://www.w3.org/2000/svg" xmlns:xlink="http://www.w3.org/1999/xlink" xml:space="preserve" xmlns:serif="http://www.serif.com/" style="fill-rule:evenodd;clip-rule:evenodd;stroke-linejoin:round;stroke-miterlimit:1.41421;">
    <g transform="matrix(1,0,0,1,-624.902,-317.28)">
        <path d="M767.034,515.606C767.034,517.667 767.034,519.73 767.034,521.791C767.352,523.441 767.67,525.092 767.987,526.741C768.197,529.912 766.664,533.207 767.509,536.733C768.527,539.588 769.542,542.445 770.561,545.3C770.624,546.632 770.688,547.964 770.751,549.296C771.165,551.484 771.495,553.995 771.895,556.434C771.928,557.704 771.958,558.973 771.992,560.243C772.786,561.986 773.579,563.732 774.375,565.476C776.068,569.355 777.544,573.126 778.663,577.66C779.542,581.211 779.276,584.735 779.903,588.604C780.571,596.058 781.239,603.515 781.906,610.971C782.066,615.031 782.224,619.091 782.383,623.152C782.796,626.387 783.209,629.623 783.622,632.862C784.001,634.989 784.48,637.248 784.194,639.141C784.353,639.87 784.512,640.602 784.671,641.33C784.785,642.084 784.278,647.093 784.003,647.422C783.66,647.832 778.819,650.106 778.093,649.991C777.049,649.826 776.514,649.12 775.232,649.04C773.082,650.44 771.605,652.768 769.132,653.798C763.966,655.951 754.419,656.802 748.155,655.226C745.808,654.636 740.599,654.058 740.434,651.418C740.624,650.975 740.815,650.531 741.005,650.085C746.882,649.646 749.921,645.996 753.401,643.14C753.878,642.823 754.353,642.505 754.83,642.187C755.728,640.941 756.214,639.565 757.022,638.191C757.594,637.176 758.168,636.16 758.739,635.144C758.357,633.241 757.977,631.336 757.594,629.434C757.061,626.338 757.953,622.538 757.309,619.155C756.705,616.714 756.1,614.27 755.498,611.827C752.612,602.126 751.45,592.082 749.013,581.847C747.742,576.647 746.471,571.441 745.2,566.24C744.534,562.654 743.864,559.069 743.197,555.486C742.468,553.897 741.737,552.312 741.005,550.726C739.268,546.641 737.862,542.808 736.145,538.923C735.096,536.989 734.046,535.052 732.998,533.117C730.592,527.577 728.359,522.135 725.275,517.224C723.909,515.478 722.541,513.732 721.174,511.99C720.095,510.562 719.014,509.134 717.934,507.706C717.502,507.788 717.65,507.695 717.457,507.992C717.328,508.696 719.958,511.618 720.507,512.37C723.426,516.352 726.096,520.382 728.421,525.028C726.546,528.103 724.67,531.181 722.795,534.259C716.663,548.375 710.527,562.496 704.397,576.611C702.266,581.211 700.137,585.813 698.008,590.413C697.023,592.348 696.038,594.283 695.054,596.219C693.845,602.721 692.637,609.226 691.429,615.73C689.627,623.929 687.735,631.404 685.425,639.142C684.439,643.044 683.454,646.948 682.468,650.85C681.642,650.817 680.815,650.786 679.989,650.754C680.119,652.846 680.456,655.162 679.703,657.034C679.322,657.67 678.941,658.305 678.56,658.937C678.401,659.794 678.243,660.65 678.082,661.508C673.508,661.496 668.672,660.478 664.64,659.604C663.528,659.414 662.415,659.223 661.303,659.033C660.429,658.552 660.167,657.074 659.111,656.75C656.164,655.844 653.709,657.696 650.912,657.226C644.932,656.222 638.971,655.134 634.037,653.229C630.638,651.917 628.77,650.42 626.504,648.088C625.746,647.307 624.305,645.956 625.17,644.472C628.071,643.456 631.251,645.879 634.418,646.567C639.249,647.615 649.042,645.056 651.77,643.046C652.207,642.723 652.772,641.672 653.104,641.237C652.681,639.435 655.477,633.989 656.347,632.005C659.281,625.302 661.964,618.129 664.258,610.876C666.125,604.977 667.68,599.056 669.217,592.889C670.293,588.563 670.532,583.939 671.791,579.85C672.822,576.496 674.192,572.759 675.89,569.857C677.193,567.541 678.494,565.225 679.798,562.91C679.766,561.989 679.735,561.067 679.702,560.148C679.925,558.083 680.847,556.258 681.323,554.439C681.513,553.01 681.704,551.583 681.897,550.156C682.345,548.605 683.693,547.488 683.993,546.444C683.993,545.586 683.993,544.73 683.993,543.875C685.024,539.694 686.893,534.907 687.998,530.739C688.124,529.757 688.251,528.772 688.378,527.789C688.823,526.965 689.269,526.141 689.714,525.315C689.985,524.092 688.701,523.471 689.141,522.27C689.63,521.117 691.157,521.015 691.525,519.889C692.369,517.313 690.506,515.533 691.429,513.799C692.034,513.513 692.637,513.228 693.242,512.942C693.206,511.329 693.704,511.054 694.005,509.992C693.971,507.709 693.94,505.423 693.907,503.14C694.323,501.996 694.735,500.855 695.147,499.712C695.084,498.411 695.02,497.11 694.957,495.811C695.274,495.113 695.594,494.415 695.91,493.717C696.228,492.194 696.547,490.671 696.865,489.148C697.879,484.476 695.358,482.169 694.386,478.68C693.938,477.072 695.387,475.574 695.816,474.586C697.5,470.713 699.094,467.709 701.726,464.879C701.638,462.893 700.144,461.694 699.82,460.12C700.139,458.724 700.456,457.328 700.773,455.931C700.646,454.41 700.518,452.886 700.393,451.365C700.041,449.176 699.694,446.986 699.342,444.798C699.439,443.973 699.533,443.148 699.63,442.323C699.183,441.307 698.738,440.293 698.293,439.279C697.611,437.375 697.51,435.163 697.15,432.996C696.197,427.261 699.249,418.962 700.392,414.436C701.535,409.9 702.47,405.005 703.443,400.733C703.89,398.759 703.47,396.699 704.013,395.021C704.866,392.389 707.819,390.207 709.829,388.644C710.56,388.074 711.291,387.503 712.021,386.932C713.125,385.305 712.959,379.203 713.546,376.749C714.117,375.574 714.689,374.4 715.263,373.228C714.028,371.511 713.776,368.882 712.593,367.136C710.178,366.914 705.852,366.067 704.776,364.376C704.031,363.205 704.915,361.719 704.871,360.093C704.648,358.349 704.427,356.603 704.204,354.859C704.523,354.001 704.84,353.146 705.157,352.289C705.126,352.258 705.094,352.225 705.06,352.193C703.517,352.014 703.059,351.401 702.296,350.481C702.297,348.856 703.135,348.196 703.727,347.15C702.771,347.196 701.589,347.352 700.961,346.864C700.064,346.167 700.351,342.596 700.866,341.915C702.095,341.57 703.191,341.373 704.87,341.439C704.839,341.375 704.807,341.312 704.775,341.248C704.584,341.09 704.394,340.931 704.203,340.771C704.174,339.056 704.891,338.493 705.347,337.345C706.726,333.881 707.49,330.895 709.732,328.399C709.148,327.676 708.078,327.466 707.447,326.781C707.51,326.717 707.573,326.654 707.635,326.59C708.73,324.317 714.714,320.311 717.551,319.452C718.28,319.04 719.012,318.628 719.743,318.215C721.236,317.961 722.73,317.708 724.223,317.452C728.698,316.599 734.391,319.092 736.045,321.165C736.49,321.894 736.935,322.625 737.38,323.354C738.491,324.527 739.603,325.701 740.717,326.875C743.053,330.026 744.542,334.179 745.771,338.392C746.575,341.153 745.75,344.106 745.198,346.576C743.667,353.42 740.394,361.751 733.663,363.137C733.663,363.835 733.663,364.534 733.663,365.232C735.616,365.629 735.74,367.684 736.714,369.039C737.16,369.661 738.021,369.618 738.619,370.085C740.521,371.568 742.028,373.972 744.244,375.129C745.771,375.477 747.296,375.828 748.822,376.175C754.91,377.992 768.057,380.155 771.224,384.362C774.601,388.84 774.044,392.404 775.133,399.113C775.133,401.777 775.133,404.443 775.133,407.107C775.515,407.741 775.896,408.377 776.277,409.01C776.628,411.073 776.976,413.135 777.327,415.197C778.016,417.969 780.11,422.756 779.425,426.238C778.995,428.422 776.957,429.621 777.137,432.232C777.334,435.137 779.213,437.058 779.615,440.038C779.49,441.847 779.361,443.654 779.235,445.463C779.584,446.475 781.048,447.234 780.664,449.078C779.45,454.944 778.32,461.051 776.471,466.306C775.517,468.336 774.563,470.368 773.61,472.397C772.943,475.135 774.682,479.717 775.327,481.344C776.535,484.801 777.743,488.26 778.95,491.719C780.221,494.636 781.492,497.554 782.763,500.474C783.174,501.533 786.18,508.968 785.909,509.42C785.272,510.483 777.876,513.343 776.185,514.084C774.705,514.732 773.35,515.644 771.513,515.988C770.021,515.86 768.527,515.732 767.034,515.606ZM710.688,328.778C709.577,330.586 708.465,332.394 707.352,334.203C707.034,335.313 706.717,336.424 706.399,337.534C705.957,338.752 704.631,339.928 705.827,340.865C705.949,341.377 706.233,341.562 706.591,341.816C707.957,341.405 709.323,340.992 710.689,340.579C712.448,340.295 714.056,340.95 715.362,341.245C719.175,341.786 722.989,342.324 726.802,342.863C726.802,342.832 726.802,342.8 726.802,342.768C723.28,333.534 721.04,331.175 710.688,328.778ZM733.381,355.998C732.61,356.023 731.675,356.041 731.187,355.808C731.061,355.585 730.93,355.365 730.805,355.142C732.222,355.18 733.642,355.202 734.618,354.76C736.167,354.06 740.209,349.943 738.909,347.241C736.87,343.007 729.983,347.887 728.23,349.146C728.166,349.113 728.103,349.081 728.041,349.05C727.423,347.579 726.881,346.955 726.895,344.48C722.864,344.504 718.533,345.097 715.169,346.101C713.933,346.469 710.668,347.117 709.162,346.385C708.083,345.861 707.852,344.554 707.448,343.339C707.224,343.37 707.002,343.404 706.779,343.435C706.024,345.008 703.548,348.656 703.346,350.192C704.109,350.84 705.291,351.206 706.111,351.81C706.101,353.54 705.224,353.931 705.158,355.331C705.38,356.601 705.602,357.87 705.825,359.139C706.073,360.685 705.295,362.35 705.539,363.327C706.154,365.129 713.475,366.738 716.599,366.087C718.664,365.484 720.731,364.882 722.795,364.279C721.182,366.45 717.67,367.25 714.025,367.324C714.025,367.356 714.025,367.388 714.025,367.419C714.818,369.354 715.614,371.289 716.408,373.225C717.099,375.804 717.229,378.492 718.504,380.553C718.602,380.49 718.695,380.426 718.792,380.364C719.75,378.255 722.2,376.522 723.94,375.129C725.656,373.479 727.372,371.83 729.088,370.18C730.109,369.362 732.616,367.965 732.9,366.563C731.833,363.526 733.262,359.409 733.381,355.998ZM734.333,366.943C732.556,369.276 729.962,371.022 727.659,372.845C724.612,375.255 719.756,380.049 717.648,383.313C720.604,386.01 723.56,388.707 726.515,391.403C726.611,391.34 726.704,391.275 726.8,391.213C729.152,387.692 731.504,384.17 733.856,380.649C734.491,378.872 735.127,377.095 735.761,375.319C736.335,373.955 736.907,372.589 737.479,371.226C736.263,369.884 735.481,368.42 734.333,366.943ZM715.455,375.128C713.94,377.961 714.861,380.76 717.173,382.551C717.173,382.488 717.173,382.425 717.173,382.361C717.331,382.171 717.489,381.98 717.649,381.79C716.918,379.569 716.188,377.349 715.455,375.128ZM743.773,376.27C743.773,378.712 743.773,381.157 743.773,383.599C742.341,384.9 740.91,386.201 739.481,387.501C739.736,388.567 742.434,389.135 743.485,389.404C739.768,399.712 736.048,410.025 732.332,420.337C731.098,423.503 728.541,430.873 729.47,434.992C729.598,434.992 729.725,434.992 729.852,434.992C729.915,434.929 729.979,434.867 730.043,434.803C730.395,426.554 733.299,419.904 735.762,413.58C737.542,408.6 739.322,403.617 741.101,398.637C742.247,395.464 743.389,392.29 744.536,389.119C743.558,388.236 741.894,388.209 740.722,387.501C740.817,387.374 740.911,387.247 741.007,387.121C742.215,386.041 743.423,384.964 744.629,383.884C744.599,381.442 744.566,378.998 744.536,376.556C744.28,376.46 744.025,376.366 743.773,376.27ZM714.217,379.981C713.993,381.535 713.772,383.09 713.549,384.645C713.582,384.645 713.612,384.645 713.646,384.645C713.709,384.582 713.772,384.518 713.836,384.457C714.266,384.276 716.337,383.51 716.695,383.218C716.599,383.155 716.504,383.092 716.409,383.029C715.678,382.012 714.947,380.996 714.217,379.981ZM762.457,381.504C761.885,381.726 761.314,381.949 760.741,382.171C757.864,384.198 754.637,396.641 753.685,401.206C753.527,403.872 753.367,406.537 753.209,409.201C752.61,412.97 752.376,417.777 753.018,421.764C753.209,424.333 753.401,426.903 753.589,429.473C753.463,430.744 753.336,432.011 753.209,433.281C753.489,434.206 754.231,434.22 754.258,435.659C748.693,439.672 756.868,444.632 755.781,448.318C755.054,450.79 752.878,453.161 752.35,456.027C752.039,457.708 753.402,459.451 752.635,461.452C750.724,466.455 748.309,471.488 746.153,476.585C745.422,478.424 744.691,480.265 743.961,482.105C744.151,483.915 744.342,485.721 744.534,487.531C749.075,490.672 753.622,493.812 758.167,496.954C759.567,497.938 761.492,500.173 763.408,500.381C765.364,497.161 766.702,490.999 767.89,487.055C768.303,485.438 768.715,483.82 769.13,482.202C770.263,479.838 772.655,477.763 772.657,474.492C772.56,474.492 772.465,474.492 772.371,474.492C771.004,476.999 769.638,479.505 768.271,482.01C767.539,484.802 766.808,487.595 766.078,490.388C765.062,493.337 764.045,496.288 763.027,499.238C757.085,495.114 751.139,490.991 745.199,486.866C745.104,485.248 745.009,483.628 744.914,482.011C745.549,480.425 746.184,478.841 746.821,477.254C748.059,474.177 749.299,471.098 750.538,468.022C751.555,465.834 752.573,463.643 753.588,461.455C754.229,459.497 753.116,457.727 753.208,456.221C753.378,453.404 755.966,450.955 756.64,448.608C758.138,443.39 749.759,441.397 755.116,435.949C755.103,434.166 754.426,434.101 754.066,433.095C754.194,431.826 754.32,430.556 754.447,429.288C754.258,426.528 754.066,423.767 753.877,421.008C753.392,417.751 753.499,413.973 753.972,410.919C754.163,407.746 754.353,404.573 754.542,401.401C755.528,397.88 756.514,394.358 757.499,390.837C758.564,388.075 759.17,384.7 761.218,382.938C762.138,382.589 763.062,382.238 763.983,381.89C763.983,381.859 763.983,381.827 763.983,381.795C763.475,381.696 762.966,381.6 762.457,381.504ZM731.854,386.073C730.331,388.261 728.803,390.451 727.28,392.64C726.961,392.608 726.642,392.577 726.325,392.545C724.992,391.402 723.656,390.259 722.321,389.118C722.257,389.15 722.193,389.182 722.129,389.213C721.305,390.514 720.478,391.815 719.651,393.116C718.879,395.604 719.2,398.283 718.603,400.635C717.521,405.267 716.441,409.899 715.361,414.529C714.568,419.922 713.772,425.317 712.977,430.709C712.311,436.674 711.641,442.64 710.975,448.604C710.213,453.273 709.764,460.148 710.499,464.784C710.562,465.893 710.625,467.003 710.687,468.114C710.943,469.732 711.197,471.35 711.45,472.968C710.687,474.429 709.926,475.888 709.163,477.348C709.1,477.314 709.037,477.284 708.973,477.252C708.275,475.856 707.575,474.46 706.875,473.064C706.431,471.097 705.986,469.13 705.54,467.164C704.952,464.24 704.887,460.429 705.35,457.456C705.317,455.932 705.287,454.41 705.254,452.887C705.636,447.274 706.017,441.657 706.399,436.042C706.462,433.631 706.527,431.219 706.59,428.809C707.506,422.953 706.924,416.851 708.02,411.297C708.751,406.983 709.482,402.667 710.213,398.353C710.76,396.416 712.154,394.67 712.311,392.452C712.278,392.452 712.247,392.452 712.215,392.452C711.357,394.164 710.499,395.879 709.64,397.591C707.861,402.413 706.08,407.237 704.301,412.057C703.636,414.853 703.732,419.187 704.206,422.052C704.301,432.774 704.397,443.498 704.491,454.22C703.471,461.222 704.66,470.602 706.97,475.064C707.479,476.045 708.046,478.12 708.972,478.681C709.339,478.746 709.333,478.678 709.639,478.49C710.53,476.713 711.418,474.937 712.31,473.16C712.119,471.575 711.927,469.987 711.737,468.403C714.317,469.584 716.48,468.592 719.65,469.068C727.865,470.297 736.078,467.361 743.675,466.214C743.861,465.181 743.749,464.572 743.675,463.359C740.397,461.454 737.661,454.785 736.048,450.987C732.832,443.417 728.94,436.89 725.847,429C724.922,426.64 722.912,421.057 723.464,417.77C724.794,409.826 726.234,402.941 728.611,396.166C729.692,392.799 730.773,389.436 731.854,386.073ZM744.628,467.733C744.111,468.849 745.631,472.039 746.25,472.966C746.314,472.935 746.378,472.903 746.441,472.871C746.537,472.648 746.63,472.428 746.726,472.204C746.558,471.134 745.784,468.415 745.01,467.828C744.882,467.796 744.757,467.766 744.628,467.733ZM704.015,471.159C702.904,472.015 701.789,472.872 700.678,473.728C699.462,475.277 696.877,479.947 697.152,482.389C697.215,482.42 697.278,482.453 697.341,482.484C697.532,482.421 697.723,482.358 697.913,482.295C698.834,476.792 701.263,474.751 704.587,471.73C704.491,471.36 704.551,471.446 704.301,471.255C704.206,471.223 704.11,471.19 704.015,471.159ZM744.438,472.587C740.506,475.29 729.259,476.439 723.464,477.441C720.213,478.003 717.285,477.389 714.978,476.679C714.163,476.428 712.832,475.901 712.31,476.583C712.463,476.826 712.426,476.814 712.689,476.963C718.795,480.194 730.527,477.361 736.81,475.821C739.321,475.207 743.692,474.713 745.106,473.156C745.01,472.966 744.916,472.775 744.819,472.586C744.692,472.587 744.565,472.587 744.438,472.587ZM746.727,490.574C748.434,493.677 750.896,497.391 753.402,499.806C754.418,499.426 755.435,499.045 756.452,498.663C756.324,498.441 756.198,498.22 756.07,497.998C755.245,498.282 754.418,498.568 753.591,498.853C753.368,498.504 753.147,498.156 752.925,497.808C751.294,495.603 749.412,491.651 746.727,490.574ZM757.404,498.093C759.437,502.281 761.472,506.471 763.506,510.656C763.997,511.616 764.925,514.609 766.08,514.177C766.111,514.114 766.143,514.05 766.174,513.988C764.238,510.149 762.298,506.309 760.36,502.471C759.536,500.86 759.12,498.826 757.404,498.093ZM783.146,640.379C781.552,641.801 778.392,644.129 775.994,644.567C774.152,644.282 772.308,643.995 770.465,643.711C765.573,642.711 761.169,642.277 757.118,640.665C756.959,640.76 756.801,640.855 756.641,640.951C756.705,641.141 756.768,641.331 756.83,641.522C758.832,642.156 760.835,642.789 762.838,643.424C765.92,643.9 769.002,644.377 772.085,644.851C773.324,645.075 774.564,645.296 775.803,645.518C778.165,645.29 782.189,642.55 783.527,641.141C783.495,640.951 783.464,640.759 783.43,640.569C783.26,640.375 783.431,640.503 783.146,640.379ZM654.344,640.665C654.217,640.791 654.09,640.919 653.963,641.046C653.996,641.173 654.027,641.3 654.059,641.426C656.282,642.568 658.507,643.711 660.733,644.852C664.703,646.281 668.677,647.707 672.649,649.136C673.643,649.545 678.257,651.407 678.846,650.85C678.846,650.754 678.846,650.659 678.846,650.563C677.591,649.812 676.024,649.515 674.557,648.946C670.711,647.55 666.866,646.154 663.019,644.758C660.129,643.393 657.237,642.029 654.344,640.665Z"/>
    </g>
</svg>
