<?xml version="1.0" encoding="UTF-8" standalone="no"?>
<!DOCTYPE svg PUBLIC "-//W3C//DTD SVG 1.1//EN" "http://www.w3.org/Graphics/SVG/1.1/DTD/svg11.dtd">
<svg width="100%" height="100%" viewBox="0 0 738 430" version="1.1" xmlns="http://www.w3.org/2000/svg" xmlns:xlink="http://www.w3.org/1999/xlink" xml:space="preserve" xmlns:serif="http://www.serif.com/" style="fill-rule:evenodd;clip-rule:evenodd;stroke-linejoin:round;stroke-miterlimit:1.41421;">
    <g transform="matrix(1,0,0,1,-1881.31,-1043.82)">
        <path d="M2590.96,1471.52C2588.9,1462.97 2585.03,1455.01 2581.29,1447.1C2578.84,1442.37 2579.81,1436.69 2577.49,1431.95C2573.25,1425.14 2564.81,1423.5 2557.62,1421.65C2546.33,1417.66 2536.01,1411.02 2527.79,1402.29C2534.85,1400.2 2541.97,1396.69 2549.53,1397.96C2561.27,1399.83 2573.07,1401.52 2584.96,1402.13C2588.92,1402.37 2592.82,1403.79 2596.81,1403.23C2599.4,1402.92 2600.58,1400.16 2602.94,1399.36C2604.54,1398.83 2605.53,1397.47 2606.41,1396.12C2608.09,1395.82 2609.82,1395.61 2611.38,1394.84C2612.82,1394.03 2612.41,1392.16 2612.5,1390.81C2613.41,1390.11 2614.45,1389.53 2615.2,1388.64C2615.85,1387.1 2615.18,1385.18 2616.35,1383.86C2617.67,1382.18 2619.28,1379.9 2617.79,1377.81C2614.76,1373.47 2608.94,1372.04 2603.92,1372.51C2599.79,1372.89 2595.68,1372.27 2591.64,1371.55C2586.46,1370.63 2581.17,1371.29 2576.05,1372.24C2570.43,1373.35 2564.69,1373.65 2558.99,1374.06C2552.84,1374.62 2547.11,1371.71 2541.01,1371.63C2533.84,1371.34 2525.25,1369.49 2519.48,1375.01C2517.73,1376.3 2517.47,1379.59 2514.92,1379.49C2510,1379.38 2504.07,1379.78 2500.88,1375.26C2506.76,1367.66 2509.98,1358.14 2509.33,1348.49C2508.51,1335.93 2506.71,1322.99 2500.65,1311.78C2497.32,1304.92 2493.98,1298.02 2489.77,1291.66C2484.33,1283.76 2475.9,1278.84 2469.12,1272.29C2464.51,1268.03 2463.88,1261.36 2463.92,1255.46C2463.82,1244.69 2466.81,1234.17 2466.46,1223.4C2466.21,1213.2 2470.52,1203.62 2470.7,1193.48C2471.27,1186.5 2473.68,1179.82 2475.63,1173.14C2478.94,1166.33 2481.93,1158.62 2479.65,1150.99C2478.55,1144.02 2474.94,1137.4 2468.89,1133.56C2464.04,1130.04 2457.74,1130.9 2452.39,1128.74C2447.35,1126.9 2442.34,1125 2437.37,1123.03C2432.04,1121.05 2427.59,1117.43 2422.63,1114.75C2422.29,1114.58 2421.97,1114.38 2421.65,1114.19C2421.14,1113.43 2420.54,1112.54 2419.91,1111.6C2422.2,1113.4 2424.29,1114.97 2424.28,1114.96C2424.28,1114.96 2423.05,1113.48 2421.56,1111.65C2423.18,1112.75 2424.33,1113.56 2424.28,1113.63C2424.34,1113.58 2422.33,1111.48 2422.33,1111.48C2421.3,1110.41 2419.99,1109.08 2418.71,1107.77C2419.13,1107.84 2419.54,1107.9 2419.94,1107.93C2422.69,1109.21 2424.97,1110.26 2424.95,1110.3C2424.97,1110.27 2423.74,1109.39 2422.05,1108.16C2425.75,1109.29 2428.31,1108.84 2428.28,1108.96C2428.31,1108.85 2425.93,1109.09 2422.64,1107.93C2424.03,1107.82 2425.18,1107.55 2425.95,1107.33C2426.58,1107.5 2426.95,1107.61 2426.95,1107.63C2426.96,1107.62 2426.67,1107.48 2426.18,1107.26C2426.74,1107.08 2427.03,1106.94 2426.95,1106.96C2427.02,1106.96 2426.68,1107.08 2426.06,1107.2C2425.79,1107.08 2425.46,1106.93 2425.08,1106.76C2425.42,1106.9 2425.63,1106.97 2425.62,1106.96C2425.64,1107 2423.49,1106.01 2420.64,1104.07C2421.79,1104.25 2422.75,1104.32 2423.39,1104.33C2427.11,1104.55 2429.81,1103.69 2429.62,1103.63C2429.84,1103.77 2423.94,1104.98 2418.21,1102.28C2418.18,1102.26 2418.15,1102.23 2418.12,1102.21C2424.02,1104.37 2429.64,1101.95 2430.24,1101.65C2429.82,1101.82 2426.97,1102.76 2423.47,1102.51C2423.13,1102.26 2422.7,1101.93 2422.21,1101.54C2425.73,1101.7 2428.35,1100.9 2428.28,1100.96C2428.33,1100.92 2425.6,1101.38 2422.19,1100.8C2422.62,1100.77 2423.03,1100.73 2423.44,1100.67C2424.92,1100.92 2426.3,1100.99 2427.49,1100.95C2427.56,1100.97 2427.61,1100.98 2427.62,1100.96C2427.61,1100.97 2427.58,1100.97 2427.55,1100.95C2430.11,1100.88 2431.78,1100.37 2431.62,1100.3C2431.75,1100.4 2429.75,1100.82 2426.89,1100.59C2426.68,1100.45 2426.42,1100.29 2426.13,1100.1C2426.83,1099.89 2427.41,1099.68 2427.87,1099.49C2430.62,1099.14 2432.42,1098.34 2432.28,1098.3C2432.37,1098.36 2431.01,1098.81 2428.91,1099C2428.96,1098.97 2428.97,1098.96 2428.95,1098.96C2428.97,1098.96 2428.95,1098.98 2428.91,1099C2428.64,1099.02 2428.36,1099.04 2428.07,1099.05C2429.52,1098.7 2430.37,1098.31 2430.28,1098.3C2430.39,1098.35 2428.66,1098.9 2426.09,1099.04C2425.87,1099.03 2425.65,1099.02 2425.41,1099C2427.96,1098.58 2429.6,1097.83 2429.61,1097.66C2430.04,1097.64 2430.29,1097.62 2430.28,1097.63C2430.29,1097.62 2429.55,1097.56 2428.39,1097.37C2428.62,1097.3 2428.83,1097.23 2429.04,1097.14C2429.35,1097.02 2429.64,1096.88 2429.91,1096.74C2431.44,1096.19 2432.26,1095.55 2432.28,1095.63C2432.27,1095.57 2431.74,1095.89 2430.8,1096.23C2431.14,1096.01 2431.43,1095.79 2431.7,1095.57C2432.88,1095.61 2433.62,1095.61 2433.62,1095.63C2433.62,1095.62 2433,1095.52 2431.99,1095.33C2432.2,1095.14 2432.39,1094.96 2432.55,1094.8C2434.75,1094.32 2436.37,1093.83 2436.28,1093.63C2436.28,1093.79 2435.32,1093.91 2433.93,1093.96C2436.31,1093.19 2437.59,1092.21 2437.62,1092.3C2437.59,1092.2 2436.08,1093.2 2433.43,1093.78C2433.48,1093.73 2433.51,1093.69 2433.54,1093.67C2433.51,1093.69 2433.46,1093.73 2433.41,1093.79C2433.03,1093.87 2432.64,1093.94 2432.22,1094C2431.99,1094 2431.76,1094 2431.53,1094C2432.3,1093.69 2432.98,1093.37 2433.52,1093.09C2433.55,1093.08 2433.58,1093.08 2433.6,1093.07C2434.04,1093.03 2434.29,1092.99 2434.28,1092.96C2434.28,1092.98 2434.2,1092.98 2434.07,1092.98C2435.82,1092.63 2436.95,1092.27 2436.95,1092.3C2436.95,1092.28 2436.03,1092.41 2434.6,1092.49C2434.82,1092.36 2434.95,1092.29 2434.95,1092.3C2434.95,1092.29 2434.72,1092.37 2434.32,1092.51C2433.72,1092.54 2433.04,1092.56 2432.31,1092.56C2434.86,1092.01 2436.46,1091.12 2436.28,1090.96C2436.54,1091.33 2429.44,1093.94 2422.58,1090.67C2428.52,1091.05 2433.13,1089.02 2432.95,1088.96C2433.01,1089.01 2432.14,1089.33 2430.68,1089.62C2430.55,1089.62 2430.37,1089.63 2430.15,1089.65C2430.23,1089.66 2430.3,1089.67 2430.36,1089.67C2427.79,1090.14 2423.62,1090.43 2419.32,1089.05C2419.25,1089.01 2419,1088.85 2418.97,1088.83C2418.95,1088.8 2421.72,1089.41 2423.23,1089.53C2426.09,1089.93 2428.84,1089.74 2430.15,1089.65C2429.15,1089.51 2427.32,1089.09 2425.29,1088.53C2427.11,1088.15 2428.3,1087.6 2428.28,1087.63C2428.3,1087.6 2426.05,1088.18 2423.28,1087.95C2421.17,1087.31 2419.09,1086.59 2417.73,1085.92C2418.79,1086.17 2419.9,1086.33 2421.02,1086.32C2425.95,1086.73 2430.31,1084.9 2430.28,1084.96C2430.3,1084.92 2426.68,1085.78 2422.68,1085.19C2423,1085.15 2423.32,1085.11 2423.64,1085.05C2427.27,1084.67 2430.26,1082.79 2430.28,1082.96C2430.24,1082.81 2426.99,1083.99 2423.55,1083.64C2422.8,1083.62 2422.07,1083.55 2421.36,1083.44C2424.2,1083.09 2427.02,1082.51 2426.95,1082.3C2426.92,1082.45 2425.64,1082.39 2424,1082.22C2425.76,1081.6 2426.94,1080.93 2426.95,1080.96C2426.95,1080.92 2424.62,1081.62 2421.93,1081.66C2421.95,1081.62 2421.97,1081.59 2421.99,1081.55C2421.94,1081.59 2421.9,1081.62 2421.85,1081.67C2421.47,1081.67 2421.08,1081.66 2420.69,1081.64C2419.61,1081.61 2418.59,1081.41 2417.7,1081.17C2417.81,1081.16 2417.92,1081.15 2418.03,1081.14C2421.1,1080.95 2423.62,1079.59 2423.61,1079.63C2423.62,1079.61 2422.95,1079.76 2421.95,1079.86C2426.25,1078.37 2429.58,1076.23 2429.61,1076.3C2429.61,1076.21 2425.1,1078.24 2420.25,1078.92C2419.61,1079.06 2418.99,1079.13 2418.39,1079.15C2420.13,1078.65 2421.88,1077.89 2423.62,1076.96C2420,1078.89 2414.23,1078.41 2411.03,1075.93C2406.81,1072.66 2405.6,1067.94 2403.18,1063.41C2402.8,1062.68 2402.4,1061.96 2401.98,1061.25C2401.03,1059.42 2400.06,1057.9 2399.03,1056.91C2395.07,1051.87 2389.78,1047.81 2383.36,1046.2C2380.95,1045.25 2378.45,1044.53 2375.93,1044.08C2366.55,1042.72 2357.43,1046.89 2350.2,1052.65C2348.13,1053.58 2346.15,1054.65 2344.46,1055.86C2341.7,1057.85 2337.39,1060.84 2335.18,1064.14C2331.95,1067.82 2330.05,1071.83 2329.87,1072.56C2329.7,1073.13 2329.62,1073.67 2329.58,1074.16C2329.55,1074.23 2329.51,1074.29 2329.48,1074.35C2328.76,1075.49 2326.36,1084.54 2327.9,1093.07C2328.86,1101.81 2334.16,1108.51 2334.28,1108.3C2334.12,1108.47 2329.51,1101.4 2329.31,1092.92C2329.2,1091.76 2329.17,1090.61 2329.19,1089.47C2329.2,1089.49 2329.2,1089.51 2329.2,1089.53C2330.09,1095.25 2332.34,1100.29 2332.28,1100.3C2332.32,1100.3 2331.16,1096.33 2330.74,1091.63C2332.24,1097.72 2335.66,1102.33 2335.62,1102.3C2335.62,1102.3 2335.37,1101.85 2334.99,1101.08C2336.11,1103.07 2336.98,1104.3 2336.95,1104.3C2337,1104.29 2333.78,1098.63 2332.65,1092.05C2332.82,1092.41 2332.99,1092.77 2333.17,1093.12C2333.39,1093.58 2333.61,1094.03 2333.84,1094.48C2334.65,1097.39 2335.76,1100.22 2338.03,1102.32C2342.51,1106.19 2342.84,1111.27 2342.34,1116.72C2342.19,1118.3 2340.42,1122.11 2341.89,1123.11C2343.79,1124.4 2346.6,1121.39 2348.62,1123.57C2350.25,1125.32 2347.99,1128.44 2351.57,1128.31C2351.13,1128.33 2351.6,1130.5 2351.8,1130.74C2352.78,1131.94 2353.05,1130.89 2354.14,1131.1C2356.35,1131.51 2357.36,1133.29 2357.94,1135.42C2358.62,1137.9 2359.43,1140.36 2362.08,1141.39C2366.77,1143.2 2372.38,1135.76 2376.04,1133.55C2378.22,1132.23 2381.6,1131.14 2384.06,1132.37C2386.42,1133.55 2387.41,1136.8 2388.09,1139.2C2383.03,1142.93 2377.33,1145.78 2371.29,1147.51C2366.31,1149.05 2361.08,1147.79 2355.98,1148.08C2346.77,1148.13 2337.92,1150.96 2328.99,1152.83C2325.57,1151.13 2324.32,1147.02 2322.35,1143.96C2320.08,1139.38 2315.27,1135.64 2309.95,1136.24C2304.57,1136.44 2300.5,1140.48 2295.45,1141.79C2298.28,1136.36 2303.03,1132.14 2307.49,1128.01C2309.66,1125.95 2311.32,1123.28 2311.74,1120.27C2311.8,1119.9 2311.88,1119.55 2311.95,1119.18C2312.11,1118.93 2312.22,1118.75 2312.24,1118.68C2312.32,1118.5 2312.29,1118.29 2312.19,1118.08C2312.2,1118.04 2312.21,1118 2312.22,1117.96C2313.14,1115.8 2314.41,1112.57 2314.51,1111.74C2314.77,1110.98 2315.03,1110.17 2315.25,1109.4C2315.27,1110.52 2315.28,1111.29 2315.28,1111.3C2315.27,1111.31 2316.27,1107.76 2316.94,1104.71C2316.96,1104.85 2316.97,1104.95 2316.95,1104.96C2317.02,1105.03 2317.19,1104.13 2317.3,1102.92C2317.52,1101.74 2317.61,1100.83 2317.46,1100.54C2317.46,1100.48 2317.45,1100.43 2317.44,1100.39C2317.44,1100.01 2317.43,1099.64 2317.41,1099.29C2317.56,1099.68 2317.65,1099.94 2317.62,1099.96C2317.77,1100.01 2317.4,1096.32 2316.75,1093.5C2317.55,1094.59 2318.1,1095.48 2317.95,1095.63C2318.25,1095.61 2317.69,1093.6 2316.9,1091.51C2316.94,1091.57 2316.96,1091.62 2316.95,1091.63C2317.15,1091.61 2315.19,1086.99 2313.73,1084.45C2315.03,1085.5 2316.05,1086.46 2315.95,1086.63C2316.23,1086.56 2314.66,1083.87 2313.01,1081.68C2313.8,1082.14 2314.32,1082.51 2314.28,1082.63C2314.62,1082.44 2310.84,1078.56 2308.51,1076.85C2309.71,1077.2 2310.63,1077.51 2310.62,1077.63C2310.83,1077.45 2306.26,1074.16 2304.22,1073.16C2305.94,1073.38 2307.6,1073.73 2307.62,1073.96C2307.79,1073.81 2306.43,1072.86 2304.86,1071.95C2304.92,1071.96 2304.95,1071.96 2304.95,1071.96C2304.95,1071.96 2304.82,1071.89 2304.6,1071.8C2303.07,1070.94 2301.42,1070.17 2300.82,1070.25C2299.34,1069.66 2297.96,1069.15 2297.56,1069.08C2297.37,1068.98 2297.18,1068.88 2296.99,1068.78C2299.65,1068.34 2303.53,1068.21 2303.62,1068.63C2303.78,1068.36 2301.74,1067.67 2299.46,1067.17C2298.66,1066.79 2294.66,1065.89 2292.43,1065.8C2294.12,1065.37 2295.85,1065.09 2295.95,1065.3C2296.12,1065.02 2292.68,1064.3 2290.24,1064.21C2290.97,1063.96 2291.53,1063.84 2291.62,1063.96C2291.77,1063.64 2288.66,1063.36 2286.42,1063.57C2287.39,1062.99 2288.21,1062.55 2288.28,1062.63C2288.33,1062.46 2285.63,1062.62 2283.62,1062.97C2283.88,1062.24 2284.15,1061.63 2284.28,1061.63C2284.27,1061.41 2282.62,1062.37 2281.48,1063.32C2281.32,1062.63 2281.2,1062.02 2281.28,1061.96C2281.21,1061.82 2279.26,1064.43 2279.16,1064.43C2279.37,1064.28 2277.78,1061.83 2277.95,1061.63C2277.85,1061.5 2277.3,1062.63 2276.98,1063.65C2276.12,1063.08 2274.93,1062.48 2274.95,1062.63C2275.03,1062.66 2275.1,1063.09 2275.16,1063.61C2273.01,1062.4 2268.9,1061.01 2268.95,1060.96C2268.93,1060.98 2270.14,1062.05 2271.4,1063.24C2271.03,1062.89 2269.19,1062.97 2268.62,1062.96C2269.1,1063.27 2269.53,1063.73 2269.46,1064.31C2268.29,1064.49 2266.78,1063.7 2265.72,1063.21C2266.28,1064.03 2267.06,1064.81 2267.81,1065.5C2267.38,1065.26 2266.91,1065.12 2266.42,1065.18C2266.73,1065.41 2266.98,1065.77 2267.31,1066C2266.78,1065.63 2263.08,1065.86 2262.95,1065.3C2263,1065.28 2263.82,1066.25 2264.53,1067.15C2262.64,1067.17 2258.68,1069.06 2258.95,1069.3C2259.03,1069 2261.94,1069.16 2263.47,1069.53C2258.76,1073.33 2255.27,1078.72 2252.46,1084.01C2249.45,1088 2249.6,1093.31 2246.84,1097.43C2244.05,1101.8 2242.66,1106.87 2242.11,1112C2240.94,1120.73 2238.3,1129.44 2239.22,1138.33C2239.8,1143.02 2245.28,1143.75 2248.7,1145.63C2250.71,1148.63 2251.85,1152.11 2253.24,1155.42C2250.21,1157.02 2246.87,1158.48 2244.9,1161.44C2243,1164.19 2240.94,1166.82 2239.04,1169.57C2237.27,1171.96 2237.81,1175.08 2237.74,1177.87C2232.13,1176.98 2227.31,1180.34 2222.13,1181.78C2216.65,1183.34 2211.23,1185.13 2206.1,1187.61C2199.84,1190.6 2192.82,1192.53 2185.86,1191.4C2177.76,1191.05 2170.92,1186.07 2163.13,1184.43C2159.49,1183.73 2155.76,1183.94 2152.12,1183.31C2146.28,1182.69 2140.81,1180.34 2134.99,1179.71C2125.3,1178.64 2115.69,1176.83 2106.35,1174.06C2101.27,1172.76 2096.21,1171.2 2091,1170.55C2085.39,1170.62 2079.74,1171.73 2074.65,1174.14C2069.71,1176.41 2064.47,1178.04 2059.05,1178.51C2052.84,1179.29 2049.77,1185.29 2045.84,1189.36C2042.84,1192.14 2043.43,1196.66 2041.46,1200C2038.51,1204.43 2032.62,1204.56 2028.52,1207.46C2029.26,1208.77 2030.37,1209.37 2031.65,1209.96C2033.12,1210.63 2032.59,1209.88 2033.43,1211.12C2034.43,1212.62 2034.14,1213.73 2036.34,1214.2C2039.31,1214.84 2043.42,1213.11 2045.57,1211.08C2048.54,1208.27 2051.98,1206.09 2055.31,1203.77C2059.25,1201.16 2062.79,1197.02 2067.94,1197.26C2069.99,1196.84 2073.14,1198.35 2074.14,1200.18C2076.18,1203.9 2068.99,1208.24 2067.14,1210.81C2065.89,1212.54 2065.1,1215.87 2066.54,1217.71C2069.05,1220.9 2071.72,1216.16 2073.81,1214.91C2077.1,1212.95 2079.19,1209.94 2082.01,1207.52C2084.74,1205.16 2088.45,1204.13 2090.56,1201.03C2092.63,1197.94 2093.59,1194.28 2094.5,1190.72C2102.85,1193.32 2111.49,1196.53 2117.82,1202.81C2110.72,1206.81 2107.69,1214.69 2103.91,1221.43C2099.22,1230.84 2092.94,1239.31 2088.09,1248.64C2078.82,1264.06 2071.65,1280.6 2064.48,1297.07C2056.8,1313.64 2048.33,1330.07 2036.71,1344.28C2032.37,1349.34 2029.7,1355.69 2024.6,1360.12C2019.64,1364.17 2016.08,1369.99 2009.98,1372.51C2002.82,1375.89 1996.37,1380.88 1988.56,1382.74C1981.42,1384.99 1973.86,1382.76 1966.63,1384.21C1961.89,1386.06 1957,1387.8 1952.92,1390.93C1949.2,1389.91 1945.36,1389.22 1941.81,1387.68C1938.93,1385.98 1936.87,1383.25 1934.4,1381.05C1929.93,1377.18 1928.18,1371.32 1924.71,1366.68C1921.32,1362.09 1919.11,1356.47 1914.28,1353.12C1910.41,1349.3 1905.87,1346.23 1902.42,1342C1899.03,1339.57 1894.93,1338.32 1891.56,1335.84C1889.99,1334.45 1889.37,1331.59 1886.95,1331.55C1884.09,1331.15 1881.54,1333.66 1881.44,1336.46C1880.57,1342.68 1884.35,1348.11 1885.27,1354.08C1886.04,1359.21 1887.36,1364.27 1889.44,1369.04C1891.12,1372.78 1894.74,1375.02 1897.33,1378.07C1900.72,1382.04 1903.87,1386.23 1907.03,1390.4C1910.7,1395.04 1911.65,1401.06 1914.15,1406.31C1917.52,1413.48 1919.05,1421.3 1920.66,1429.01C1921.8,1434.51 1925.03,1439.5 1929.4,1442.99C1933.22,1446.42 1938.93,1446.24 1943.62,1445.14C1948.63,1443.81 1950.75,1438.72 1953.2,1434.71C1954.83,1431.55 1958.8,1430.97 1961.95,1430.37C1975.57,1429.04 1989.26,1428.9 2002.93,1428.84C2019.84,1428.63 2036.93,1433.83 2053.65,1429.31C2068.18,1427.61 2081.11,1420.5 2094.39,1414.94C2100.56,1412.58 2105.83,1408 2112.52,1407.07C2120.61,1405.34 2128.8,1407.55 2136.96,1406.98C2145.5,1406.44 2153.85,1408.59 2162.35,1408.99C2169.84,1409.13 2177.46,1409.81 2184.82,1408.05C2190.68,1406.71 2196.77,1407.59 2202.54,1408.91C2212.2,1411.79 2222.37,1414.58 2232.52,1412.84C2238.86,1411.29 2244.9,1408.55 2250.33,1404.93C2254.71,1401 2260.43,1405.98 2265.36,1403.81C2269.36,1402.05 2272.56,1398.99 2276.23,1396.69C2283.7,1392.2 2290.85,1387.15 2298.65,1383.21C2308.82,1378.06 2318.06,1371.34 2327.54,1365.08C2335.89,1359.2 2344.93,1353.97 2351.55,1346.03C2357.18,1339.12 2363.37,1331.73 2364.15,1322.46C2365.57,1314.71 2362.03,1307.19 2362.92,1299.44C2363.89,1290.13 2362.58,1280.74 2364.05,1271.47C2365.61,1262.28 2360.95,1253.59 2361.4,1244.45C2361.71,1240.72 2362.75,1237.11 2363.3,1233.43C2364.21,1233.67 2365.08,1234.03 2365.9,1234.51C2369.57,1241.68 2370.86,1249.7 2372.55,1257.5C2374.27,1270.28 2377.17,1282.87 2379.61,1295.54C2380.42,1300.93 2380.59,1306.39 2380.52,1311.84C2371.54,1314.62 2363.38,1325.56 2368.6,1334.77C2371.74,1343.16 2380.09,1347.52 2386.41,1353.16C2388.58,1358.95 2383.69,1364.43 2385.2,1370.29C2386.77,1376.28 2390.09,1381.63 2391.89,1387.55C2395.44,1398.67 2403.8,1408.23 2414.74,1412.53C2422.84,1417.06 2432.55,1417.2 2441.39,1415.11C2452.55,1412.46 2464.14,1413.98 2475.35,1411.77C2480.52,1410.89 2485.75,1410.34 2490.88,1409.2C2502.85,1417.44 2514.29,1426.54 2524.32,1437.1C2528.5,1441.59 2533.52,1445.35 2536.8,1450.64C2542.11,1458.85 2550.92,1464.54 2554.64,1473.8" style="fill:rgb(18,16,11);fill-rule:nonzero;"/>
    </g>
</svg>
