<?xml version="1.0" encoding="UTF-8" standalone="no"?>
<!DOCTYPE svg PUBLIC "-//W3C//DTD SVG 1.1//EN" "http://www.w3.org/Graphics/SVG/1.1/DTD/svg11.dtd">
<svg width="100%" height="100%" viewBox="0 0 119 152" version="1.1" xmlns="http://www.w3.org/2000/svg" xmlns:xlink="http://www.w3.org/1999/xlink" xml:space="preserve" xmlns:serif="http://www.serif.com/" style="fill-rule:evenodd;clip-rule:evenodd;stroke-linejoin:round;stroke-miterlimit:1.41421;">
    <g transform="matrix(1,0,0,1,-5.89317,-7.85242)">
        <path d="M124.586,158.178C124.586,157.148 120.381,155.208 119.529,154.954C118.298,154.582 116.528,152.318 116.378,151.071C117.339,150.941 120.842,151.05 121.427,150.322C121.989,149.622 120.48,144.173 120.341,143.09C119.974,140.228 119.64,137.37 119.211,134.517C117.989,126.371 117.073,118.097 115.302,110.051C114.781,107.68 112.613,105.372 111.427,103.197C109.747,100.12 108.155,97.152 105.981,94.388C104.473,92.475 102.881,90.621 101.239,88.819C100.898,88.447 100.512,88.153 100.115,87.832C98.949,86.898 101.136,86.926 100.421,86.068C99.388,84.825 98.503,82.247 98.188,80.672C97.624,77.838 96.373,74.799 96.678,71.854C96.806,70.622 96.487,70.405 97.991,70.405C99.077,70.405 100.186,70.216 101.262,70.094C102.545,69.949 103.427,69.964 104.711,70.149C106.638,70.428 106.434,67.562 106.596,66.295C107.078,62.554 107.006,58.399 106.496,54.649C106.18,52.323 105.858,50.01 105.57,47.685C105.521,47.289 104.671,44.689 105.346,44.287C106.167,43.793 105.011,40.34 104.785,39.667C104.443,38.688 104.806,38.065 103.946,37.267C103.662,37.007 102.327,36.06 102.571,35.722C104.203,33.464 100.763,31.251 98.866,31.472C97.783,31.591 96.446,31.225 95.438,31.608C94.483,31.962 93.761,32.559 92.715,32.625L92.716,32.627C91.747,32.69 90.503,30.439 90.503,29.414C90.503,26.863 92.132,25.222 92.148,22.669C92.162,20.411 91.645,17.777 90.987,15.615C89.872,11.959 86.951,10.225 83.028,10.704C80.304,11.036 77.683,13.74 77.188,16.338C76.662,19.098 77.637,23.233 78.274,25.937C78.503,26.903 79.268,28.329 79.818,29.188C79.852,29.241 81.022,31.061 79.969,30.767C77.442,29.081 72.963,27.318 69.896,27.454C69.447,27.471 68.328,26.92 68.62,26.284C68.81,25.865 70.493,26.646 70.878,26.695C72.481,26.916 71.535,25.614 70.754,25.056C69.629,24.252 69.276,23.418 68.91,22.094C68.049,18.981 67.226,15.779 65.924,12.812C65.178,11.119 61.553,6.791 59.306,8.093C58.662,8.469 56.815,7.95 55.869,8.299C54.902,8.659 54.151,9.548 53.443,10.261C51.386,12.342 50.036,14.572 48.397,16.99C46.763,19.405 45.434,22.927 42.982,24.386C40.423,25.905 45.598,29.371 43.57,30.493C42.85,30.889 41.936,31.219 41.401,31.876C40.82,32.589 41.797,33.157 42.042,33.774C42.241,34.281 40.053,34.349 39.733,34.474C38.484,34.957 39.877,36.015 39.677,36.928C39.368,38.37 39.749,39.256 39.617,40.609C39.531,41.428 41.669,45.16 40.97,45.582C40.499,45.865 39.601,44.58 38.934,44.991C38.856,45.04 40.763,46.461 41.51,45.67C41.592,45.583 42.147,44.457 42.072,44.566C42.772,43.555 41.466,42.774 42.919,42.3C43.578,42.087 44.056,41.709 44.228,42.598C44.659,44.841 44.782,47.126 45.333,49.348C45.753,51.048 46.637,52.269 45.906,53.963C45.437,55.046 44.881,55.989 44.522,57.151C44.06,58.645 45.622,58.749 44.703,60.339C43.908,61.72 42.374,63.567 41.103,64.51C39.258,65.876 35.475,65.561 33.313,65.021C29.388,64.042 25.376,63.354 21.329,63.187C17.641,63.03 13.16,63.062 9.579,64.117C4.971,65.455 5.382,69.328 7.058,72.851C9.974,78.984 14.976,84.363 19.045,89.75C20.925,92.24 22.394,94.891 23.671,97.745C24.072,98.634 23.957,100.573 24.874,100.953C26.476,101.636 25.921,104.064 26.819,105.258C29.009,108.191 28.564,110.495 29.289,113.844C29.742,115.931 28.466,117.2 27.343,118.951C24.417,123.515 22.555,127.999 20.496,133.014C19.553,135.314 18.71,137.444 17.166,139.383C15.743,141.171 14.354,141.543 12.614,142.968C10.923,144.351 11.619,147.194 10.557,149.169C9.922,150.35 9.283,150.497 8.52,151.358C8.696,151.16 7.667,153.454 7.667,153.205C7.667,155.622 7.094,157.358 10.389,157.237C11.731,157.186 15.041,157.444 15.029,155.49C15.016,152.66 15.196,149.24 17.654,146.883C19.086,145.51 19.628,143.58 20.978,142.114C22.536,140.418 23.998,138.631 25.473,136.869C28.671,133.043 32.323,129.177 34.689,124.776C37.34,119.848 39.176,115.039 42.884,110.715C46.905,106.027 51.12,101.58 54.741,96.552C52.511,102.578 49.287,108.279 46.238,113.922C43.715,118.592 41.099,123.433 38.163,127.846C34.871,132.796 31.016,137.379 27.569,142.224C26.404,143.858 23.737,146.418 23.442,148.503C23.029,151.403 17.805,152.557 15.998,154.419L15.999,154.413C15.632,154.794 15.169,155.538 15.638,156.007L15.639,155.999C17.168,157.588 21.359,156.586 23.189,156.32C24.093,156.188 25.211,156.143 26.012,155.652C26.952,155.069 27.935,153.36 29.045,153.218C31.879,152.856 29.877,155.152 32.282,155.371C32.99,155.435 33.832,155.318 34.421,155.744C35.735,156.703 38.031,155.486 39.452,155.31C42.72,154.903 45.256,154.384 46.731,151.394C48.513,147.785 50.296,144.174 52.08,140.563C54.872,134.909 57.671,129.262 60.443,123.6C62.892,118.593 65.343,113.591 67.812,108.592C70.506,103.134 73.785,98.296 77.236,93.305C78.621,91.297 86.599,99.74 87.675,101.125C90.609,104.899 93.093,108.809 95.473,112.93C97.456,116.367 99.81,119.624 102.112,122.85C103.917,125.378 102.58,130.328 102.438,133.31C102.261,137.032 102.287,140.751 102.299,144.477C102.305,146.005 102.311,147.528 102.32,149.054C102.324,149.626 102.63,150.218 102.411,150.752C101.831,152.161 103.35,153.401 103.761,154.657C104.034,155.487 103.789,156.002 104.641,156.202C105.32,156.364 106.381,156.866 107.067,156.666C107.849,156.445 107.963,156.013 108.362,155.809C108.5,155.741 107.753,155.058 108.624,155.217C109.142,155.313 109.654,155.475 110.143,155.664C111.451,156.175 112.233,157.092 113.369,157.824C114.621,158.635 116.118,158.488 117.491,158.901C119.025,159.361 124.586,160.77 124.586,158.178M36.046,101.051C35.274,102.851 34.802,104.785 34.114,106.622C33.302,105.382 32.751,102.596 33.342,101.151C34.019,99.313 37.155,98.453 36.046,101.051M41.774,90.065C39.912,92.997 38.408,96.161 36.793,99.232C35.311,97.385 34.741,94.813 32.241,94.198C32.074,94.157 29.955,93.747 29.955,94.153C29.955,96.787 27.864,93.796 27.462,92.857C25.158,87.482 23.951,81.633 20.717,76.779C22.6,76.86 24.446,78.056 26.171,78.698C28.471,79.555 30.92,79.934 33.348,80.226C35.871,80.53 38.396,80.4 40.925,80.618C41.231,82.301 41.786,83.948 42.535,85.484C42.848,86.127 43.199,86.75 43.586,87.355C42.967,88.248 42.357,89.146 41.774,90.065M61.87,86.41C61.083,88.27 55.242,96.685 55.242,96.685C52.991,93.38 50.073,88.586 46.168,87.137C45.155,86.762 44.848,87.029 44.248,85.991C43.48,84.658 42.894,83.216 42.49,81.733C41.74,78.969 42.279,76.188 42.344,73.371C42.378,71.931 43.306,68.292 41.793,67.438C40.643,66.789 39.1,67.202 38.087,66.44C37.041,65.657 39.58,65.917 39.898,65.931C40.809,65.959 41.703,65.686 42.315,64.995C43.652,63.488 44.431,61.316 45.962,60.003C47.694,62.595 49.451,65.014 51.331,67.506C52.153,68.593 52.724,67.9 52.061,66.851C51.391,65.791 50.587,64.717 49.768,63.768C51.241,64.838 52.389,66.477 53.681,67.751C55.206,69.255 54.199,66.709 53.729,66.157C52.928,65.212 52.014,64.287 51.468,63.172C52.694,64.36 53.912,65.579 55.234,66.66C55.695,67.036 57.222,67.16 56.534,66.289C55.651,65.172 54.547,64.31 53.634,63.227C55.034,63.463 56.79,64.565 58.129,65.159C59.595,65.804 61.279,66.134 62.82,66.563C63.565,66.77 66.097,66.97 66.609,67.548C67.123,68.133 66.738,71.138 66.749,71.904C66.816,76.679 63.693,82.088 61.87,86.41M71.482,51.177C69.642,54.333 69.512,58.663 68.107,62.101C64.573,61.36 61.496,59.592 58.345,57.92C55.066,56.179 54.78,54.115 53.598,50.87C52.802,48.689 51.08,45.429 51.88,43.036C52.16,42.195 52.645,41.461 52.296,40.629C51.912,39.718 50.81,38.422 52.238,38.001C52.715,38.878 53.192,39.75 53.669,40.625C54.16,41.527 56.22,41.653 57.142,42.079C59.209,43.045 59.604,44.647 60.87,46.326C61.839,47.609 63.486,43.645 64.162,42.951C64.733,42.366 66.624,40.4 67.576,41.045C68.429,41.624 69.218,42.103 70.115,42.617C71.175,43.221 70.048,43.104 69.768,43.534C68.714,45.158 72.257,44.72 72.555,45.045C74.177,46.823 72.425,49.562 71.482,51.177" style="fill-rule:nonzero;"/>
    </g>
</svg>
