<?xml version="1.0" encoding="UTF-8" standalone="no"?>
<!DOCTYPE svg PUBLIC "-//W3C//DTD SVG 1.1//EN" "http://www.w3.org/Graphics/SVG/1.1/DTD/svg11.dtd">
<svg width="100%" height="100%" viewBox="0 0 54 74" version="1.1" xmlns="http://www.w3.org/2000/svg" xmlns:xlink="http://www.w3.org/1999/xlink" xml:space="preserve" xmlns:serif="http://www.serif.com/" style="fill-rule:evenodd;clip-rule:evenodd;stroke-linejoin:round;stroke-miterlimit:1.41421;">
    <g transform="matrix(1,0,0,1,-121.919,-5.76133)">
        <path d="M160.972,35.525L161.04,35.376L160.124,35.836L160.972,35.525M121.986,63.001C122.17,63.567 122.633,63.824 123.113,64.103C123.825,64.517 122.936,65.309 123.003,66.037C123.034,66.381 123.289,67.416 123.802,67.26C124.425,67.071 124.581,68.075 124.861,68.426C125.114,67.319 126.398,66.794 127.289,66.331C127.384,66.282 128.066,65.837 128.175,65.903C128.998,66.381 129.809,66.859 130.693,67.216C131.431,67.514 131.6,68.051 131.603,68.812C131.607,69.815 131.99,70.655 132.132,71.637C132.393,73.446 132.249,75.117 132.674,76.905C133.007,78.3 133.462,78.697 134.807,79.095C135.817,79.394 137.076,79.966 138.053,79.304C138.951,78.697 137.866,76.765 137.376,76.201C136.405,75.085 137.068,72.37 137.06,71.013C137.06,71.117 138.769,72.108 138.893,72.237C139.369,72.729 140.783,74.289 140.448,75.052C140.135,75.781 138.807,76.878 140.419,77.306C141.228,77.529 142.273,76.45 142.786,75.934C144.374,74.335 141.974,72.975 142.916,71.304C142.985,71.181 144.82,72.57 145.071,72.751C145.203,72.621 145.413,72.344 145.476,72.17C144.997,71.915 144.587,71.69 144.173,71.342C143.361,70.658 143.453,70.279 143.066,69.322C142.571,68.077 141.326,67.917 140.16,67.801C138.84,67.671 137.606,66.825 136.597,66.017C136.583,66.006 137.687,64.149 137.785,63.992C138.366,63.07 140.47,63.414 141.418,63.508C142.195,63.585 142.772,63.97 143.47,64.269C144.102,64.54 144.783,64.39 145.418,64.621C146.117,64.875 146.564,65.611 146.988,66.178C147.638,67.049 148.411,67.816 149.145,68.615C149.78,69.306 154.121,75.689 154.93,74.93C155.574,74.326 156.229,73.692 156.945,73.173C157.28,72.93 157.349,73.913 157.379,74.105C157.481,74.754 159.79,74.617 160.453,74.667C160.415,74.259 160.375,73.854 160.335,73.446C161.321,73.718 162.026,74.081 162.925,74.564C164.052,75.17 165.371,74.917 166.598,74.977C167.316,75.012 168.614,74.95 168.71,73.998C168.818,72.931 166.982,73.134 166.33,72.901C165.318,72.536 164.692,71.612 164.004,70.844C163.231,69.981 162.202,69.511 161.314,68.79C160.392,68.041 159.617,67.15 158.635,66.471C158.188,66.161 157.216,65.247 156.622,65.439C156.969,64.974 157.344,64.529 157.661,64.041C158.102,64.314 158.526,64.615 158.939,64.928C159.88,65.64 160.774,66.426 161.772,67.059C163.568,68.199 165.658,68.86 167.311,70.229C168.648,71.337 169.455,73.669 171.374,73.897C171.866,73.956 172.357,73.87 172.849,73.851C172.943,74.143 173.118,74.612 173.513,74.516C173.503,74.518 174.084,74.333 173.973,74.251C174.339,74.532 174.918,74.596 175.337,74.403C175.283,74.295 174.621,73.521 174.524,73.62C175.59,72.529 175.908,70.6 173.755,70.611C172.152,70.626 170.45,70.069 169.237,69.005C166.604,66.696 165.012,63.312 161.885,61.5C160.368,60.621 159.207,59.678 157.944,58.474C157.331,57.89 156.625,57.405 156.098,56.734C155.502,55.975 155.099,55.091 154.577,54.285C153.608,52.79 152.112,51.713 151.079,50.244C150.259,49.076 150.482,47.093 149.282,46.277C149.587,46.235 150.571,46.411 150.763,46.126C151.298,45.352 152.001,44.792 152.017,43.777C152.031,42.962 151.746,41.768 152.084,41.006C152.371,40.359 153.547,40.073 154.145,39.901C154.829,39.704 155.676,39.676 156.318,39.363C156.963,39.05 156.761,38.058 157.139,37.52C157.675,36.756 158.709,36.492 159.445,35.992C160.099,35.547 160.34,34.679 161.287,34.829C161.205,34.991 161.114,35.166 161.071,35.338C161.407,35.268 162.517,34.883 162.753,34.596C161.837,35.719 160.989,36.685 159.434,36.701C160.525,36.918 161.417,36.974 162.298,36.195C163.107,35.479 164.19,34.627 163.59,33.377C163.555,33.302 163.085,32.714 163.062,32.736C163.502,32.296 163.955,31.848 164.21,31.268C164.684,30.188 164.982,28.586 164.591,27.449C164.235,26.413 163.466,25.15 162.668,24.394C161.625,23.406 160.569,23.903 159.42,24.347C158.592,24.667 157.071,23.856 156.46,24.301C156.149,24.527 156.299,24.926 156.016,25.162C155.759,25.258 155.515,25.379 155.282,25.522C155.167,25.795 155.091,26.079 155.053,26.372C154.511,26.003 154.475,26.017 153.993,26.5C153.62,26.874 153.405,27.327 153.625,27.847C154.036,28.823 154.819,29.879 153.612,30.723C152.574,31.449 152.077,30.306 152.059,29.456C152.025,27.934 151.099,26.693 151.165,25.119C151.299,25.936 152.806,26.491 153.359,25.822C153.957,25.099 154.557,24.297 155.2,23.618C155.492,23.31 155.734,23.544 156.062,23.577C156.523,23.623 156.322,22.356 156.379,22.147C156.558,21.483 157.618,19.965 157.258,19.233C157.417,19.56 158.017,18.733 158.088,18.637C158.437,18.161 158.444,17.652 158.158,17.127C157.384,15.725 155.303,14.423 153.731,14.18C152.177,13.94 150.313,14.047 149.222,15.315C148.838,15.761 148.474,16.375 148.389,16.965C148.301,17.585 148.428,18.401 148.044,18.94C147.709,19.412 146.619,19.895 146.05,19.807C145.368,19.704 144.751,19.852 144.302,19.543C143.067,18.695 141.419,16.855 139.788,17.054C138.465,17.216 138.38,16.159 138.21,15.007C137.986,13.483 137.787,12.201 138.507,10.757C138.892,11.654 141.764,10.065 140.887,8.435C141.406,8.772 141.738,8.737 141.61,9.392C141.504,9.937 141.646,9.89 142.074,9.996C142.925,8.489 141.449,7.977 141.059,6.809C140.984,6.584 141.131,5.657 140.643,5.771C140.319,5.848 140.393,6.52 140.365,6.753C140.382,6.586 139.526,6.131 139.371,6.115C138.789,6.055 138.374,6.819 137.988,7.133C137.413,7.6 136.707,7.958 135.999,8.173C135.123,8.438 134.535,8.94 133.735,9.377C132.099,10.271 130.819,11.222 129.468,12.518C128.388,13.554 126.447,14.896 126.513,16.605C126.552,18.03 128.799,19.441 129.775,20.227C130.481,20.795 131.204,21.338 131.954,21.844C132.409,22.151 132.871,22.446 133.338,22.733C133.984,23.129 134.345,23.031 134.126,23.852C133.188,27.359 131.403,31.307 128.813,33.899C126.711,36.002 126.354,38.719 125.32,41.37C124.948,42.324 124.564,43.272 124.186,44.223C124.071,44.509 123.954,44.795 123.85,45.085C123.76,45.335 125.561,46.4 125.832,46.589C126.273,46.898 126.908,47.109 127.081,47.676C127.333,48.503 127.166,49.613 127.184,50.472C127.218,52.132 127.265,53.784 127.358,55.439C127.428,56.675 125.106,57.848 124.366,58.854C123.826,59.588 123.394,60.396 122.838,61.12C122.393,61.703 121.699,62.164 121.986,63.001M134.491,16.865C133.165,16.39 132.836,15.578 133.554,14.289C133.907,13.656 135.303,12.274 136.111,12.384C136.006,12.37 136.049,14.928 136.056,15.141C136.103,16.568 136.269,17.491 134.491,16.865" style="fill-rule:nonzero;"/>
    </g>
</svg>
