<?xml version="1.0" encoding="UTF-8" standalone="no"?>
<!DOCTYPE svg PUBLIC "-//W3C//DTD SVG 1.1//EN" "http://www.w3.org/Graphics/SVG/1.1/DTD/svg11.dtd">
<svg width="100%" height="100%" viewBox="0 0 65 55" version="1.1" xmlns="http://www.w3.org/2000/svg" xmlns:xlink="http://www.w3.org/1999/xlink" xml:space="preserve" xmlns:serif="http://www.serif.com/" style="fill-rule:evenodd;clip-rule:evenodd;stroke-linejoin:round;stroke-miterlimit:1.41421;">
    <g transform="matrix(1,0,0,1,-451.588,-338.118)">
        <path d="M493.408,347.751C492.594,345.534 491.295,343.944 488.781,343.721C486.99,343.561 484.485,344.458 483.88,346.265C483.758,346.63 483.576,346.961 483.169,347.049C482.878,347.112 482.35,347.098 482.265,347.486C482.199,347.79 482.5,347.979 482.337,348.308C482.104,348.775 481.693,349.093 481.542,349.61C481.414,350.048 481.116,350.671 481.454,351.07C481.677,351.333 482.047,351.431 482.358,351.538C483.004,351.761 483.433,352.175 483.921,352.633C483.694,352.422 483.259,352.457 482.979,352.364C482.382,352.163 481.812,351.931 481.201,351.77C480.25,351.52 479.249,351.083 478.957,350.05C479.604,349.761 479.286,349.381 479.544,348.941C479.68,348.702 480.042,348.31 480.209,348.102C480.59,347.633 480.639,347.414 480.639,346.78C480.639,346.623 481.389,346.569 481.405,346.177C481.422,345.787 481.114,345.457 481.013,345.098C480.857,344.534 481.439,344.043 481.355,343.439C481.27,342.824 480.876,342.221 481.024,341.586C481.137,341.105 481.481,340.609 481.078,340.16C480.357,339.354 478.893,338.794 477.89,338.435C476.71,338.014 475.25,337.959 474.135,338.6C472.475,339.553 472.158,341.715 471.664,343.385C471.499,343.945 471.337,344.71 470.999,345.198C470.606,345.764 469.501,346.85 468.76,346.651C467.131,346.213 464.648,345.319 463.947,343.81C463.872,343.648 463.663,343.449 463.56,343.304C463.399,343.071 463.434,342.939 463.175,342.702C462.993,342.537 462.696,342.468 462.474,342.372C462.096,342.211 461.997,341.932 461.745,341.615C461.539,341.353 460.319,341.216 460.294,341.121C460.242,340.922 460.293,340.67 460.287,340.465C460.269,339.827 460.05,339.127 459.264,339.374C459.218,339.387 459.36,340.893 459.212,341.124C458.977,341.496 458.541,341.729 458.235,342.043C457.667,342.628 458.631,342.649 458.618,342.677C457.678,345.065 454.323,345.108 452.92,347.001C452.205,347.965 451.432,349.261 451.615,350.519C451.816,351.89 453.18,352.853 454.424,353.214C455.861,353.633 457.359,353.809 458.8,354.249C459.536,354.474 460.27,354.71 461.009,354.929C461.582,355.098 462.371,355.179 462.832,355.605C463.502,356.222 463.256,357.893 463.267,358.677C463.294,360.471 463.211,362.269 462.946,364.044C462.823,364.855 462.664,365.658 462.459,366.453C462.301,367.066 462.293,366.96 461.734,366.923C460.745,366.856 459.757,366.772 458.834,367.237C456.804,368.261 456.507,370.591 456.604,372.636C456.721,375.102 456.991,377.547 457.081,380.02C457.102,381.606 457.247,383.201 457.065,384.783C456.939,385.872 456.471,387.122 457.858,387.534C457.852,387.532 455.428,391.204 455.441,391.35C455.531,392.295 458.485,391.688 459.028,391.566C459.696,391.419 460.134,391.09 460.645,390.659C460.906,390.44 461.184,390.222 461.513,390.118C461.567,390.1 461.656,390.436 461.866,390.395C463.103,390.158 463.813,389.579 463.723,388.266C463.685,387.723 463.55,387.212 463.334,386.714C463.199,386.399 463.045,386.093 462.865,385.802C463.104,385.612 463.267,385.351 463.365,385.064C463.757,383.898 463.426,382.506 463.635,381.29C463.87,379.91 464.584,378.467 464.584,377.065C464.584,377.477 464.996,377.844 465.168,378.191C465.552,378.967 465.879,379.77 466.143,380.593C466.694,382.301 467.384,384.348 467.111,386.155C467.028,386.691 466.683,389.538 466.018,389.658C465.371,389.775 465.294,390.55 464.685,390.741C464.076,390.932 463.978,391.571 463.725,392.082C464.579,392.396 465.553,392.21 466.438,392.186C467.172,392.165 468.017,392.275 468.605,391.729C469.182,391.195 469.274,390.223 469.618,389.543C470.022,388.745 470.572,388.483 471.396,388.268C471.161,388.395 471.685,390.583 472.031,390.544C472.534,390.486 472.264,389.22 472.297,388.94C472.405,388.047 472.987,387.303 473.06,386.412C473.18,384.918 471.335,383.482 470.741,382.174C469.906,380.338 469.448,378.378 469.117,376.397C469.807,377.207 470.551,377.972 471.367,378.654C472.161,379.315 473.253,379.939 473.533,381.012C473.792,382.012 473.492,383.14 473.605,384.169C473.744,385.421 474.114,386.626 474.332,387.863C474.593,389.333 473.746,391.783 475.901,391.828C476.775,391.847 477.597,391.724 478.476,391.811C479.616,391.923 480.113,391.578 480.513,390.558C481.729,391.871 483.178,391.744 484.858,391.835C485.55,391.872 488.708,392.239 488.348,390.876C488.909,391.816 490.088,391.82 491.048,391.692C492.328,391.521 493.512,391.311 494.818,391.374C495.78,391.421 498.044,391.983 497.776,390.371C497.682,389.809 498.912,389.718 499.426,389.538C500.121,389.295 500.824,389.051 501.562,388.981C504.74,388.676 507.92,389.084 511.099,388.691C512.288,388.544 513.421,388.556 514.606,388.517C515.899,388.471 516.167,387.364 515.386,386.413C514.647,385.514 513.541,384.747 512.345,384.758C511.815,384.762 511.263,384.934 510.737,384.82C510.447,384.757 509.663,384.279 509.827,383.894C509.974,383.543 510.474,383.473 510.624,383.1C510.836,382.574 509.595,383.356 509.575,383.37C509.049,383.686 508.357,383.311 507.788,383.52C507.121,383.766 507.147,384.418 506.907,384.961C506.478,385.925 503.983,385.024 503.26,384.846C502.552,384.668 501.834,384.495 501.101,384.452C500.815,384.432 500.53,384.416 500.242,384.405C500.176,384.056 500.064,383.717 499.877,383.413C499.488,382.778 498.265,381.239 497.403,381.611C497.124,381.731 495.621,382.958 496.134,383.22C495.122,382.709 494.577,381.493 493.667,380.812C492.457,379.91 491.703,378.665 490.741,377.515C489.698,376.268 489.255,374.945 488.639,373.47C488.38,372.848 488.364,372.221 488.056,371.608C488.145,371.807 489.11,371.076 489.195,370.943C489.749,370.099 489.326,368.647 488.994,367.791C488.625,366.843 487.753,365.996 487.983,364.899C488.246,363.651 488.945,362.559 489.394,361.378C489.244,362.155 489.385,363.041 489.349,363.835C489.317,364.49 489.15,366.11 489.595,366.645C490.016,366.316 489.868,364.236 489.736,363.772C489.835,364.122 490.033,364.531 490.022,364.895C490.007,365.458 489.844,365.845 490.063,366.397C490.499,365.886 489.968,364.667 490.558,364.225C490.454,364.476 490.637,364.83 490.655,365.086C490.682,365.578 490.638,366.069 490.64,366.562C491.302,366.444 491.05,364.922 491.05,364.428C491.05,364.882 491.029,368.041 491.805,367.88C491.997,367.84 491.627,364.913 491.602,364.644C491.705,364.775 492.185,366.35 492.21,366.347C492.886,366.264 492.328,364.669 492.325,364.316C492.46,364.645 492.695,364.905 492.936,365.166C492.995,364.374 492.603,363.657 492.597,362.875C492.59,362.011 493.133,361.136 493.351,360.307C493.65,359.161 493.635,358.044 493.592,356.876C493.915,357.297 493.845,357.83 494.056,358.301C493.858,357.852 494.18,357.184 494.02,356.663C493.787,355.911 493.414,355.173 493.495,354.364C493.467,354.618 494.031,355.946 494.164,356.143C494.078,356.017 494.265,355.359 494.286,355.189C494.265,355.484 494.36,355.852 494.619,356.027C494.807,355.7 494.592,355.161 494.651,354.772C494.608,355.043 495.147,355.7 495.397,355.766C495.2,355.714 495.207,353.445 495.191,353.232C495.338,353.458 495.495,353.7 495.645,353.929C495.818,353.261 495.343,352.524 495.277,351.864C495.2,351.081 495.358,350.228 494.973,349.506C494.714,349.021 494.467,348.833 494.311,348.299C494.272,348.159 494.117,348.238 493.988,348.256C493.526,348.321 493.569,348.185 493.408,347.751" style="fill-rule:nonzero;"/>
    </g>
</svg>
