<?xml version="1.0" encoding="UTF-8" standalone="no"?>
<!DOCTYPE svg PUBLIC "-//W3C//DTD SVG 1.1//EN" "http://www.w3.org/Graphics/SVG/1.1/DTD/svg11.dtd">
<svg width="100%" height="100%" viewBox="0 0 63 127" version="1.1" xmlns="http://www.w3.org/2000/svg" xmlns:xlink="http://www.w3.org/1999/xlink" xml:space="preserve" xmlns:serif="http://www.serif.com/" style="fill-rule:evenodd;clip-rule:evenodd;stroke-linejoin:round;stroke-miterlimit:1.41421;">
    <g transform="matrix(1,0,0,1,-278.543,-157.707)">
        <g transform="matrix(1,0,0,1,-117,-53)">
            <g transform="matrix(1,0,0,1,454.832,315.355)">
                <path d="M0,-82.355C0.234,-82.004 0.44,-81.485 0.523,-81.205C0.604,-80.916 0.523,-80.442 0.31,-80.137C0.338,-80.525 0.149,-80.999 0.099,-81.334C0.053,-81.624 0.046,-82.012 0,-82.355M-0.998,-71.005C-0.956,-71.408 -0.849,-71.786 -0.621,-72.096C-0.485,-72.274 -0.234,-72.48 -0.039,-72.709C-0.097,-72.12 -0.584,-71.208 -0.998,-71.005M-0.044,-60.319C-0.046,-60.163 -0.051,-60.008 -0.051,-59.85C-0.207,-59.496 -0.455,-59.247 -0.83,-59.194C-1.795,-59.056 -2.172,-60.412 -2.119,-61.374C-2.066,-62.309 -1.851,-63.037 -1.545,-63.835C-1.471,-63.276 -1.248,-62.834 -0.795,-62.352C-0.234,-61.752 -0.017,-61.242 -0.044,-60.319M-1.107,-73.102C-0.99,-73.255 -0.725,-73.492 -0.487,-73.605C-0.52,-73.3 -0.681,-72.935 -0.791,-72.753C-0.864,-72.632 -1.262,-72.219 -1.464,-72.211C-1.333,-72.485 -1.301,-72.851 -1.107,-73.102M-0.237,-84.862C-0.187,-85.265 -0.078,-85.645 0.034,-86.03C0.08,-86.197 0.172,-86.542 0.202,-86.841C0.269,-86.657 0.319,-86.467 0.349,-86.353C0.438,-86.024 0.44,-85.637 0.44,-85.271C0.44,-84.485 0.316,-83.707 0.462,-82.949C0.51,-82.712 0.611,-82.277 0.597,-81.95C0.53,-82.205 0.438,-82.45 0.301,-82.678C-0.139,-83.415 -0.348,-83.973 -0.237,-84.862M-2.561,-63.912C-2.763,-63.748 -2.944,-64.078 -3.059,-64.27C-3.266,-64.622 -3.335,-65.001 -3.357,-65.407C-3.038,-65.055 -2.652,-64.419 -2.314,-64.562C-2.438,-64.412 -2.408,-64.033 -2.561,-63.912M-4.074,-61.334C-4.217,-61.635 -4.436,-61.948 -4.495,-62.027C-4.688,-62.284 -4.927,-62.513 -5.189,-62.665C-4.969,-63.145 -4.814,-63.808 -4.94,-64.292C-4.658,-63.969 -4.417,-63.519 -4.283,-63.236C-4.146,-62.936 -3.918,-61.884 -4.074,-61.334M-4.704,-58.261C-5.044,-58.024 -5.363,-58.502 -5.55,-58.937C-5.421,-58.929 -5.295,-58.941 -5.12,-58.996C-4.943,-59.049 -4.762,-59.174 -4.587,-59.27C-4.429,-58.935 -4.426,-58.456 -4.704,-58.261M-5.818,-67.949C-5.818,-67.961 -5.821,-67.976 -5.821,-67.989C-5.679,-67.761 -5.559,-67.51 -5.458,-67.315C-5.244,-66.903 -5.03,-66.518 -4.879,-66.071C-4.773,-65.757 -4.684,-65.423 -4.56,-65.109C-4.973,-65.288 -5.444,-65.518 -5.662,-65.978C-5.94,-66.563 -5.786,-67.301 -5.818,-67.949M-12.956,-60.175C-13.296,-60.245 -13.668,-60.555 -13.714,-61.005C-13.505,-60.849 -13.218,-60.878 -12.977,-60.803C-12.717,-60.722 -12.478,-60.699 -12.219,-60.693C-12.275,-60.252 -12.501,-60.086 -12.956,-60.175M-15.086,-62.511C-15.109,-62.728 -15.137,-62.95 -15.109,-63.17C-15.1,-63.237 -15.084,-63.3 -15.063,-63.364C-14.979,-63.161 -14.904,-62.847 -14.829,-62.699C-14.695,-62.442 -14.56,-62.206 -14.381,-61.997C-14.794,-61.962 -15.018,-61.917 -15.086,-62.511M-20.194,-92.647C-20.316,-92.447 -20.438,-92.246 -20.546,-92.04C-20.654,-91.83 -20.76,-91.617 -20.852,-91.403C-20.852,-91.55 -20.85,-91.698 -20.847,-91.846C-20.831,-92.465 -20.794,-93.068 -20.663,-93.659C-20.599,-93.946 -20.564,-94.26 -20.434,-94.527C-20.396,-94.611 -20.342,-94.687 -20.286,-94.76C-20.279,-94.353 -20.259,-93.963 -20.196,-93.566C-20.167,-93.368 -20.098,-93.157 -20.033,-92.943C-20.093,-92.834 -20.153,-92.718 -20.194,-92.647M-22.676,-88.709C-22.667,-88.905 -22.683,-89.133 -22.711,-89.302C-22.533,-89.348 -22.356,-89.385 -22.178,-89.448C-22.322,-89.197 -22.497,-88.927 -22.676,-88.709M-26.673,-87.251C-26.946,-87.336 -27.227,-87.446 -27.478,-87.582C-27.979,-87.851 -28.5,-88.092 -28.998,-88.394C-29.104,-88.458 -29.22,-88.523 -29.334,-88.591C-29.154,-88.657 -28.976,-88.725 -28.794,-88.761C-28.578,-88.806 -28.216,-88.84 -27.911,-88.815C-27.633,-88.549 -27.393,-88.236 -27.121,-87.958C-26.825,-87.652 -26.416,-87.436 -26.108,-87.147C-26.299,-87.183 -26.508,-87.201 -26.673,-87.251M-54.125,-72.709C-54.132,-72.73 -54.139,-72.749 -54.145,-72.772C-54.132,-72.751 -54.122,-72.742 -54.125,-72.709M0.863,-72.756C1.089,-72.421 1.438,-72.255 1.836,-72.238C2.229,-72.221 2.991,-72.383 3.015,-73.033C2.607,-72.59 2.008,-72.505 1.595,-72.998C0.882,-73.842 1.087,-75.507 1.087,-76.599C1.084,-77.769 0.979,-78.926 0.438,-79.92C0.622,-80.213 0.742,-80.517 0.802,-80.849C0.831,-81.008 0.848,-81.175 0.854,-81.346L0.854,-81.348C0.861,-81.569 0.854,-81.801 0.829,-82.049C0.657,-83.874 1.284,-85.855 0.462,-87.6C0.275,-87.995 -0.051,-88.248 -0.306,-88.584C-0.572,-88.934 -0.674,-89.328 -0.756,-89.764C-0.915,-90.626 -1.177,-91.494 -2.07,-91.496C-2.225,-91.775 -2.544,-91.955 -2.737,-92.207C-3.111,-92.691 -3.641,-92.94 -3.964,-93.461C-4.312,-94.017 -4.721,-94.317 -5.265,-94.631C-5.563,-94.802 -5.821,-94.837 -6.156,-94.85C-6.472,-94.862 -6.652,-94.966 -6.931,-95.098C-7.358,-95.296 -7.91,-95.22 -8.357,-95.032C-8.558,-95.228 -8.841,-95.391 -9.031,-95.525C-9.339,-95.74 -9.658,-95.94 -9.991,-96.104C-10.711,-96.454 -11.568,-96.535 -12.354,-96.531C-12.591,-96.531 -12.815,-96.539 -13.048,-96.49C-13.08,-96.484 -13.112,-96.474 -13.145,-96.461C-13.588,-96.813 -14.096,-97.12 -14.571,-97.387C-15.125,-97.697 -15.769,-98.306 -16.166,-97.436C-16.271,-97.203 -16.348,-96.966 -16.398,-96.719C-16.559,-96.766 -16.64,-96.839 -16.771,-96.988C-16.899,-97.14 -16.975,-97.264 -17.221,-97.207C-17.377,-97.172 -17.515,-97.022 -17.606,-96.895C-17.616,-96.883 -17.623,-96.871 -17.63,-96.858C-17.788,-97.047 -18.085,-97.13 -18.275,-97.012C-18.406,-96.93 -18.466,-96.772 -18.581,-96.68C-18.669,-96.614 -18.74,-96.585 -18.818,-96.574C-18.432,-97.836 -18.482,-98.949 -19.031,-100.214C-19.62,-101.57 -20.521,-102.781 -21.75,-103.543C-22.966,-104.3 -24.13,-104.634 -25.511,-104.648C-26.197,-104.654 -27.192,-104.379 -27.811,-104.036C-28.424,-103.695 -29.454,-102.803 -29.883,-102.25C-30.695,-101.206 -31.956,-99.459 -31.583,-97.972C-31.65,-97.899 -31.713,-97.828 -31.77,-97.762C-32.09,-97.379 -32.427,-96.982 -32.771,-96.608C-33.152,-97.033 -33.472,-97.83 -33.855,-97.443C-34.206,-97.037 -33.921,-96.45 -33.678,-95.986C-33.922,-95.954 -34.189,-95.885 -34.447,-95.881C-34.587,-96.189 -34.736,-96.509 -34.916,-96.751C-35.37,-97.367 -35.588,-96.644 -35.521,-96.187C-35.518,-96.165 -35.515,-96.142 -35.509,-96.122C-35.811,-96.531 -36.054,-96.995 -36.4,-97.355C-36.828,-97.804 -37.427,-97.808 -37.988,-97.889C-38.613,-97.978 -39.231,-98.002 -39.858,-98.05C-40.434,-98.095 -41.088,-98.421 -41.655,-98.245C-42.042,-98.127 -42.366,-97.83 -42.706,-97.561C-43.064,-97.652 -43.546,-97.401 -43.898,-97.353C-44.335,-97.292 -44.608,-97.055 -44.926,-96.746C-45.56,-96.126 -46.12,-95.505 -46.681,-94.815C-46.806,-94.659 -47.06,-94.446 -46.996,-94.208C-46.973,-94.121 -46.905,-94.047 -46.82,-93.998C-47.185,-93.477 -47.685,-93.189 -48.146,-92.753C-48.672,-92.256 -49.071,-91.696 -49.476,-91.087C-49.891,-90.466 -50.387,-89.891 -50.741,-89.225C-51.068,-88.608 -51.326,-87.934 -51.542,-87.266C-51.712,-86.748 -52.04,-85.726 -51.835,-85.137C-52.042,-84.59 -52.291,-84.054 -52.491,-83.51C-52.665,-83.03 -52.767,-82.541 -52.912,-82.051C-53.038,-81.631 -53.227,-81.239 -53.365,-80.826C-53.65,-79.984 -53.748,-79.051 -53.91,-78.177C-54.08,-77.26 -54.302,-76.259 -54.343,-75.33C-54.361,-74.923 -54.382,-74.497 -54.365,-74.074C-54.382,-73.98 -54.396,-73.885 -54.401,-73.79C-54.44,-73.284 -54.446,-72.773 -54.497,-72.272C-54.612,-71.132 -54.754,-70.017 -54.916,-68.884C-54.994,-68.329 -55.15,-67.835 -55.332,-67.313C-55.521,-66.772 -55.563,-66.107 -55.632,-65.541C-55.782,-64.334 -55.851,-63.067 -55.731,-61.856C-55.679,-61.33 -55.62,-60.829 -55.537,-60.34C-55.646,-60.062 -55.771,-59.79 -55.869,-59.514C-56.105,-58.859 -56.453,-58.21 -56.651,-57.545C-56.883,-56.772 -57.015,-55.748 -56.866,-54.946C-56.78,-54.468 -56.564,-54.09 -56.346,-53.7C-56.583,-52.989 -56.725,-52.248 -57.067,-51.574C-57.483,-50.753 -57.911,-50.182 -57.415,-49.277C-57.304,-49.074 -57.174,-48.903 -57.019,-48.758C-57.136,-48.165 -57.283,-47.584 -57.36,-46.981C-57.479,-46.029 -57.341,-45.114 -57.194,-44.176C-57.046,-43.235 -56.874,-42.273 -56.577,-41.362C-56.309,-40.547 -55.911,-39.778 -55.636,-38.966C-55.39,-38.233 -55.177,-37.558 -54.707,-36.959C-54.675,-36.475 -54.673,-35.87 -54.663,-35.702C-54.622,-35.041 -54.549,-34.371 -54.491,-33.702C-54.373,-32.375 -54.114,-31.017 -53.859,-29.702C-53.631,-28.525 -53.456,-27.426 -53.452,-26.192C-53.45,-25.039 -53.41,-23.899 -53.408,-22.74C-53.408,-21.746 -53.487,-20.625 -53.309,-19.669C-53.37,-19.384 -53.438,-19.099 -53.488,-18.813C-53.641,-17.966 -53.839,-17.116 -54.009,-16.27C-54.313,-14.764 -55.157,-13.509 -55.33,-11.971C-55.505,-10.423 -55.811,-8.901 -56.109,-7.369C-56.239,-6.695 -56.498,-6.065 -56.605,-5.388C-56.715,-4.702 -56.851,-4.025 -57.042,-3.355C-57.27,-2.558 -57.395,-1.808 -57.4,-0.986C-57.405,-0.611 -57.439,-0.13 -57.413,0.323C-57.449,0.479 -57.479,0.639 -57.494,0.803C-57.583,1.702 -57.599,2.614 -57.711,3.519C-57.923,5.219 -58.38,6.92 -58.848,8.581C-59.068,9.374 -59.164,10.159 -58.572,10.685C-58.702,11.386 -58.727,12.321 -58.775,12.565C-58.963,13.52 -59.278,14.528 -59.289,15.508C-59.293,15.925 -59.157,16.265 -58.854,16.486C-59.054,16.833 -59.191,17.218 -59.251,17.613C-59.398,18.555 -58.862,19.199 -58.093,19.715C-57.779,19.923 -57.466,20.106 -57.116,20.215C-56.524,21.025 -55.784,21.466 -54.707,21.755C-53.479,22.085 -52.254,22.17 -50.985,22.12C-49.773,22.069 -48.403,22.299 -47.223,21.994C-45.979,21.673 -45.816,20.585 -46.517,19.657C-47.063,18.933 -47.701,18.358 -48.219,17.639C-47.08,17.817 -45.94,17.932 -44.778,17.937C-43.738,17.94 -37.643,18.424 -39.251,15.998C-39.885,15.045 -41.34,14.945 -42.366,14.666C-43.398,14.385 -44.388,13.974 -45.406,13.642C-45.554,13.425 -45.771,13.215 -45.901,13.094C-46.554,12.482 -47.35,12.273 -48.057,11.8C-48.375,11.59 -48.652,11.325 -48.972,11.094C-49.132,10.981 -49.34,10.774 -49.538,10.633C-49.134,10.062 -49.403,9.273 -49.579,8.639C-49.783,7.917 -49.687,7.147 -49.551,6.431C-49.271,4.982 -48.634,3.639 -48.205,2.218C-47.749,0.712 -47.719,-0.923 -47.434,-2.463C-47.145,-4.047 -46.726,-5.602 -46.446,-7.189C-46.316,-7.927 -46.369,-8.701 -46.273,-9.443C-46.241,-9.682 -46.197,-9.911 -46.145,-10.14C-45.824,-10.385 -45.556,-10.631 -45.309,-10.992C-45.021,-11.408 -44.884,-11.947 -44.68,-12.414C-44.26,-13.364 -44.094,-14.351 -43.829,-15.345C-43.552,-16.379 -43.364,-17.427 -43.261,-18.487C-43.149,-19.623 -43.113,-20.752 -43.057,-21.892C-43.024,-22.525 -42.959,-23.156 -42.931,-23.791C-42.915,-24.179 -42.832,-24.611 -42.858,-25.012C-42.813,-25.094 -42.774,-25.172 -42.742,-25.251C-42.413,-26.099 -42.072,-27.063 -41.959,-27.947C-41.887,-28.53 -41.854,-29.185 -41.736,-29.783C-41.445,-29.679 -41.14,-29.626 -40.913,-29.634C-40.406,-29.651 -39.922,-29.807 -39.409,-29.801C-38.803,-29.792 -38.515,-29.519 -37.998,-29.317C-37.352,-29.064 -36.738,-29.355 -36.13,-29.606C-36.005,-29.173 -35.954,-28.7 -35.833,-28.285C-35.663,-27.694 -35.472,-27.124 -35.244,-26.551C-34.746,-25.286 -34.24,-23.994 -33.921,-22.675C-33.338,-20.263 -33.698,-17.59 -32.521,-15.331C-32.085,-14.493 -31.551,-13.964 -30.85,-13.507C-30.388,-10.455 -29.051,-1.532 -28.648,2.072C-29.544,2.2 -29.267,3.663 -29.258,4.393C-29.242,5.448 -29.136,6.441 -29.524,7.459C-29.863,8.352 -30.005,9.309 -30.373,10.189C-30.735,11.057 -31.365,11.825 -31.918,12.592C-32.414,13.28 -32.986,13.935 -33.74,14.356C-34.883,14.583 -36.761,14.611 -37.265,15.73C-37.957,17.275 -35.804,17.764 -34.7,17.796C-33.936,17.817 -33.185,17.853 -32.425,17.948C-31.685,18.042 -30.911,18.157 -30.18,17.953C-28.654,17.532 -28.313,15.897 -27.44,14.824C-26.501,13.67 -25.18,13.112 -23.744,12.796C-23.74,12.972 -23.74,13.145 -23.733,13.235C-23.708,13.649 -23.666,14.05 -23.644,14.461C-23.591,15.284 -23.644,16.121 -23.644,16.945C-23.644,17.232 -23.632,17.583 -23.674,17.886C-23.552,17.872 -23.438,17.853 -23.352,17.843C-23.197,17.827 -22.979,17.839 -22.781,17.833C-22.596,16.702 -22.506,15.561 -22.198,14.45C-21.876,13.288 -21.589,12.185 -21.123,11.064C-20.658,9.934 -20.838,8.959 -21.353,7.889C-21.585,7.411 -21.823,6.927 -22.017,6.434C-22.239,5.856 -22.251,5.257 -22.336,4.657C-22.419,4.094 -22.338,3.402 -22.52,2.867C-22.683,2.388 -23.177,2.173 -23.627,1.973C-23.182,-0.788 -23.246,-4.778 -23.299,-6.484C-20.337,-3.398 -16.302,0.591 -14.95,1.924C-15.183,2.21 -15.371,2.532 -15.252,2.908C-15.116,3.319 -14.726,3.699 -14.463,4.041C-13.846,4.844 -13.298,5.66 -12.754,6.508C-12.207,7.364 -11.768,8.12 -11.547,9.104C-11.331,10.072 -10.927,11.008 -10.771,11.986C-10.686,12.531 -10.684,13.105 -10.738,13.655C-10.748,13.757 -10.752,13.899 -10.755,14.059C-10.932,14.581 -11.195,15.036 -11.565,15.479C-12.023,16.022 -12.542,16.552 -12.689,17.259C-12.827,17.906 -12.586,18.597 -11.91,18.857C-11.187,19.137 -10.353,18.819 -9.707,18.495C-8.523,17.906 -7.027,17.208 -6.138,16.243C-4.957,14.964 -5.212,13.417 -5.239,11.847C-5.268,10.437 -4.897,9.137 -4.359,7.844C-3.728,8.227 -3.192,9.106 -2.763,9.613C-2.096,10.394 -1.786,10.975 -1.287,11.665C-1.177,11.817 -1.08,11.98 -0.986,12.146C-0.779,12.047 -0.598,11.921 -0.394,11.774C-0.228,11.652 -0.037,11.549 0.138,11.438C-0.035,11.183 -0.23,10.912 -0.358,10.701C-0.973,9.703 -1.358,8.987 -1.795,8.111C-2.289,7.117 -2.564,6.19 -2.905,5.181L-2.941,5.189C-3.001,4.921 -3.077,4.668 -3.179,4.445C-3.787,3.118 -5.614,2.772 -6.689,1.882C-7.243,1.416 -7.763,0.909 -8.351,0.477C-8.939,0.043 -9.587,-0.454 -10.006,-1.059C-10.3,-1.111 -10.527,-0.962 -10.713,-0.783C-11.465,-1.959 -12.141,-3.182 -12.975,-4.309C-13.889,-5.554 -14.525,-6.932 -15.295,-8.259C-15.679,-8.925 -16.086,-9.678 -16.506,-10.328C-16.906,-10.941 -17.315,-11.641 -17.809,-12.182C-19.084,-13.572 -19.558,-14.118 -20.592,-14.98C-21.162,-15.458 -21.798,-16.007 -22.384,-16.468C-22.94,-16.907 -23.421,-17.421 -23.974,-17.866C-24.028,-18.067 -24.079,-18.263 -24.13,-18.451C-24.553,-20.098 -24.723,-21.61 -24.72,-23.308C-24.72,-24.687 -24.69,-26.059 -24.681,-27.433C-24.412,-27.337 -24.086,-27.33 -23.655,-27.402C-22.779,-27.552 -22.039,-27.22 -21.194,-27.274C-20.537,-27.317 -20.144,-27.866 -19.53,-28.007C-18.938,-28.149 -18.328,-27.833 -17.742,-28.091C-17.141,-28.36 -16.816,-28.933 -16.154,-29.139C-15.66,-29.294 -14.551,-29.278 -14.424,-29.914C-14.3,-30.521 -15.185,-31.091 -15.534,-31.484C-16.012,-32.017 -16.268,-32.68 -16.552,-33.32C-16.927,-34.147 -17.207,-34.965 -17.309,-35.87C-17.375,-36.462 -17.418,-37.044 -17.533,-37.623C-16.952,-37.625 -16.268,-37.774 -15.982,-38.074C-15.536,-38.537 -16.835,-39.1 -17.115,-39.454C-17.596,-40.057 -17.91,-40.753 -18.231,-41.441C-18.647,-42.337 -18.82,-43.283 -19.172,-44.202C-19.401,-44.805 -19.581,-45.584 -19.904,-46.201C-19.282,-46.42 -18.813,-46.926 -19.036,-47.659C-19.243,-48.349 -19.914,-49.026 -20.422,-49.531C-21.074,-50.178 -21.609,-50.852 -22.147,-51.584C-22.686,-52.313 -23.299,-52.975 -23.859,-53.684C-24.378,-54.337 -24.709,-55.096 -25.17,-55.782C-25.025,-55.875 -24.896,-55.97 -24.803,-56.046C-24.261,-56.482 -24.059,-57.031 -23.931,-57.617C-24.716,-57.686 -25.501,-57.731 -26.289,-57.757C-26.267,-58.091 -26.207,-58.391 -26.087,-58.745C-25.825,-59.524 -25.683,-60.335 -25.341,-61.106C-25.163,-61.505 -24.925,-61.859 -24.772,-62.272C-24.686,-62.507 -24.562,-62.792 -24.483,-63.065C-24.113,-62.984 -23.72,-63.031 -23.368,-63.207C-22.901,-63.438 -22.363,-63.552 -21.925,-63.823C-21.548,-64.058 -20.95,-64.353 -20.707,-64.741C-20.456,-65.142 -20.194,-65.703 -20.04,-66.154C-19.884,-66.605 -19.813,-67.1 -19.887,-67.573C-19.78,-67.895 -19.654,-68.21 -19.576,-68.542C-19.376,-69.396 -19.443,-70.303 -19.39,-71.187C-19.369,-71.549 -19.383,-71.917 -19.422,-72.27C-19.337,-72.424 -19.243,-72.565 -19.155,-72.682C-18.622,-73.427 -18.218,-74.227 -17.812,-75.084C-17.515,-75.71 -17.124,-76.411 -16.968,-77.131C-16.906,-76.839 -16.871,-76.54 -16.86,-76.368C-16.818,-75.829 -16.789,-75.166 -16.942,-74.664C-17.097,-74.156 -17.396,-73.644 -17.469,-73.122C-17.552,-72.539 -17.496,-71.919 -17.365,-71.351C-17.237,-70.8 -17.134,-70.313 -17.161,-69.736C-17.191,-69.135 -17.397,-68.626 -17.513,-68.048C-17.628,-67.461 -17.52,-67.022 -17.494,-66.442C-17.472,-65.838 -17.89,-65.322 -18.073,-64.792C-18.296,-64.155 -18.367,-63.612 -18.367,-62.924C-18.367,-62.43 -18.367,-61.525 -17.947,-61.263C-18.275,-61.598 -18.179,-62.511 -18.182,-62.999C-18.184,-63.315 -18.145,-63.589 -18.06,-63.877C-18.022,-63.995 -17.954,-64.108 -17.892,-64.224C-17.848,-63.327 -17.63,-61.754 -16.908,-61.556C-15.948,-61.292 -17.152,-63.723 -17.193,-64.041C-17.244,-64.412 -17.177,-64.74 -17.056,-65.051C-17.063,-65.097 -17.064,-65.144 -17.06,-65.189C-17.044,-65.173 -17.027,-65.168 -17.012,-65.163C-17.027,-65.126 -17.042,-65.088 -17.056,-65.051C-16.998,-64.523 -16.387,-63.904 -15.991,-63.962C-16.524,-63.974 -16.57,-64.562 -16.555,-65.108C-16.378,-65.097 -16.187,-65.081 -16.069,-65.235C-15.923,-65.428 -15.952,-65.782 -15.952,-66.021C-15.952,-66.243 -15.893,-66.451 -15.828,-66.658C-15.704,-66.358 -15.688,-65.909 -15.674,-65.637C-15.645,-65.128 -15.621,-64.612 -15.607,-64.102C-15.582,-63.276 -15.607,-62.049 -14.95,-61.578C-14.804,-61.473 -14.473,-61.331 -14.227,-61.366C-14.179,-61.252 -14.144,-61.116 -14.094,-61.019C-14.004,-60.848 -13.892,-60.682 -13.776,-60.535C-13.564,-60.269 -13.345,-60.052 -13.07,-59.898C-12.685,-59.678 -12.278,-59.518 -11.883,-59.617C-11.699,-59.407 -11.499,-59.228 -11.329,-58.987C-10.908,-58.393 -10.766,-57.559 -10.29,-57.015C-9.821,-56.478 -9.213,-55.98 -8.553,-55.99C-8.985,-56.393 -9.711,-57.14 -9.877,-57.907C-9.771,-57.852 -9.665,-57.814 -9.571,-57.796C-9.256,-57.733 -8.923,-57.741 -8.613,-57.636C-8.325,-57.539 -8.077,-57.336 -7.815,-57.168C-7.466,-56.944 -6.784,-56.67 -6.358,-56.925C-6.244,-56.507 -6.271,-56.063 -6.526,-55.614C-6.253,-55.798 -5.75,-56.316 -5.52,-56.804C-5.46,-56.535 -5.458,-56.254 -5.502,-55.908C-5.555,-55.459 -5.692,-54.794 -6.088,-54.645C-5.658,-54.736 -5.331,-54.884 -4.986,-55.228C-4.688,-55.529 -4.373,-56.077 -4.27,-56.545C-4.171,-56.992 -4.325,-57.445 -4.235,-57.893C-4.146,-58.346 -3.833,-58.66 -3.755,-59.119C-3.721,-59.338 -3.704,-59.775 -3.817,-60.04C-3.539,-60.465 -3.381,-61.169 -3.298,-61.612C-3.231,-61.962 -3.222,-62.371 -3.245,-62.732C-3.254,-62.874 -3.277,-63.116 -3.318,-63.341C-3.183,-63.237 -3.04,-63.173 -2.902,-63.102C-3.031,-62.592 -3.062,-62.101 -2.965,-61.536C-2.792,-60.491 -2.646,-59.049 -1.783,-58.534C-0.983,-58.06 -0.435,-58.575 -0.021,-59.302C0.034,-58.87 0.165,-58.47 0.471,-58.166C0.997,-57.64 1.668,-57.792 2.098,-58.415C2.59,-59.131 2.486,-59.801 1.721,-59.918C2.385,-59.709 2.028,-58.917 1.486,-58.886C0.567,-58.835 0.432,-60.309 0.512,-61.127C0.608,-62.074 1.006,-63.114 0.639,-63.997C0.712,-64.247 0.783,-64.502 0.863,-64.748C1.14,-65.571 1.354,-66.182 1.192,-67.087C1.098,-67.613 0.902,-68.245 0.567,-68.649C0.707,-68.724 0.836,-68.856 0.951,-69.026C1.128,-69.294 1.379,-70.029 1.098,-70.309C1.029,-69.86 0.85,-69.463 0.45,-69.413C-0.441,-69.296 -0.136,-70.697 0.112,-71.262C0.367,-71.849 0.693,-72.201 0.863,-72.756" style="fill-rule:nonzero;"/>
            </g>
        </g>
    </g>
</svg>
