<?xml version="1.0" encoding="UTF-8" standalone="no"?>
<!DOCTYPE svg PUBLIC "-//W3C//DTD SVG 1.1//EN" "http://www.w3.org/Graphics/SVG/1.1/DTD/svg11.dtd">
<svg width="100%" height="100%" viewBox="0 0 73 83" version="1.1" xmlns="http://www.w3.org/2000/svg" xmlns:xlink="http://www.w3.org/1999/xlink" xml:space="preserve" xmlns:serif="http://www.serif.com/" style="fill-rule:evenodd;clip-rule:evenodd;stroke-linejoin:round;stroke-miterlimit:1.41421;">
    <g transform="matrix(1,0,0,1,-211.062,-227.176)">
        <path d="M283.54,227.574C283.572,227.809 283.214,228.03 283.119,228.252C282.864,228.983 282.61,229.717 282.358,230.449C281.912,232.063 282.305,234.537 281.764,236.059C281.237,237.547 280.01,238.632 279.312,239.949C279.405,240.269 279.5,240.589 279.594,240.908C279.51,241.003 279.424,241.096 279.34,241.19C279.171,241.151 279.001,241.115 278.833,241.078C278.785,240.927 278.737,240.775 278.692,240.627C278.213,241.294 277.733,241.961 277.254,242.628C276.21,244.089 275.083,245.491 274.012,246.913C273.662,247.384 273.316,247.851 272.968,248.322C272.384,248.594 271.802,248.866 271.22,249.14C270.346,249.758 269.47,250.378 268.598,251C266.241,251.983 263.625,252.22 261.55,253.48C260.554,254.085 259.738,255.017 258.844,255.736C258.628,255.924 258.411,256.11 258.195,256.299C257.41,257.445 257.226,258.983 256.616,260.301C256.175,260.989 255.734,261.674 255.29,262.359C255.319,262.717 255.347,263.075 255.375,263.43C255.224,263.984 254.733,264.382 254.445,264.811C254.153,265.368 253.862,265.922 253.57,266.476C253.862,266.795 254.153,267.115 254.445,267.434C254.633,267.8 254.821,268.167 255.009,268.533C255.238,268.854 255.707,269.019 255.909,269.38C256.126,269.944 256.342,270.508 256.558,271.072C256.83,271.305 257.103,271.541 257.376,271.776C258.007,272.568 258.543,273.386 259.35,274.003C260.336,274.558 261.323,275.113 262.308,275.666C264.028,276.812 265.589,278.226 267.215,279.473C268.137,280.181 268.968,280.911 269.694,281.813C269.845,281.961 269.997,282.114 270.147,282.264C270.687,283.367 270.392,286.576 270.344,288.128C270.267,290.586 270.19,292.813 269.694,294.865C269.376,295.803 269.056,296.745 268.736,297.682C268.736,298.416 268.736,299.149 268.736,299.883C268.455,300.587 268.173,301.293 267.89,301.995C268.92,302.472 269.994,304.462 270.427,305.633C269.883,305.906 269.337,306.177 268.793,306.45C267.938,306.45 267.082,306.45 266.227,306.45C264.189,306.506 262.15,306.564 260.11,306.619C259.688,306.656 259.265,306.693 258.842,306.732C257.247,307.122 255.959,308.132 254.387,308.508C253.569,308.536 252.753,308.565 251.935,308.591C250.747,308.779 249.227,308.794 248.128,308.62C247.809,308.601 247.489,308.582 247.17,308.564C246.69,308.424 246.486,308.248 245.789,308.139C244.683,307.968 243.969,308.95 243.195,309.184C242.987,309.145 242.781,309.107 242.575,309.071C241.289,308.79 240.897,308.628 240.094,307.885C239.124,307.997 238.338,308.419 237.838,309.014C236.439,309.014 235.038,309.014 233.64,309.014C233.075,308.788 232.512,308.562 231.948,308.336C231.243,308.524 230.539,308.712 229.834,308.9C228.235,308.9 226.639,308.9 225.041,308.9C224.535,308.684 224.027,308.468 223.518,308.253C223.294,307.426 223.068,306.598 222.843,305.773C222.337,303.794 222.224,301.654 221.885,299.485C221.921,298.921 221.959,298.358 221.996,297.795C222.066,297.324 221.511,294.746 221.349,294.495C221.114,294.251 220.879,294.008 220.643,293.764C220.485,294.28 220.324,294.797 220.164,295.313C220.155,295.313 220.145,295.313 220.136,295.313C220.022,295.08 219.909,294.844 219.797,294.611C219.545,294.844 219.289,295.08 219.035,295.313C218.99,295.361 218.942,295.407 218.896,295.457C218.469,294.371 219.402,292.455 219.713,291.763C219.468,291.537 219.224,291.312 218.98,291.086C219.129,290.466 219.28,289.847 219.431,289.227C219.58,288.578 219.732,287.929 219.882,287.281C220.193,286.746 220.502,286.211 220.812,285.675C221.253,284.857 221.696,284.039 222.137,283.223C223.143,281.945 224.148,280.665 225.154,279.389C225.747,278.937 226.339,278.485 226.931,278.034C227.711,276.936 228.491,275.838 229.27,274.738C229.656,274.398 230.039,274.06 230.427,273.723C231.615,272.765 232.786,271.734 234.036,270.819C235.144,270.096 236.252,269.371 237.362,268.649C238.057,267.802 238.753,266.956 239.446,266.11C239.955,265.687 240.463,265.264 240.97,264.841C241.015,264.634 241.063,264.427 241.11,264.222C241.195,263.949 241.279,263.677 241.364,263.405C241.317,262.52 241.27,261.636 241.224,260.756C241.379,259.846 241.402,258.864 241.561,257.823C241.58,257.531 241.599,257.24 241.618,256.949C241.505,256.537 241.392,256.122 241.28,255.709C241.132,254.98 241.168,254.253 240.941,253.706C240.551,253.55 239.652,253.995 239.251,254.129C237.88,254.584 235.889,254.529 234.458,254.863C233.056,255.19 231.623,255.254 230.061,255.511C229.178,255.575 228.294,255.642 227.411,255.708C223.897,256.047 220.382,256.384 216.869,256.722C216.869,256.732 216.869,256.743 216.869,256.75C217.057,256.873 217.244,256.994 217.432,257.118C217.432,257.266 217.432,257.418 217.432,257.568C216.994,257.764 216.845,257.617 216.361,257.54C216.394,258.971 215.945,259.029 215.572,260.02C215.218,260.961 215.24,262.103 214.416,262.558C214.332,262.538 214.247,262.519 214.163,262.5C214.042,262.424 213.985,262.219 213.965,262.048C213.956,262.048 213.946,262.048 213.938,262.048C213.646,262.933 213.355,263.817 213.063,264.699C212.914,264.69 212.763,264.68 212.612,264.671C212.499,264.888 212.387,265.104 212.275,265.32C212.076,265.367 211.878,265.413 211.682,265.459C211.578,265.059 211.413,264.714 211.062,264.559C211.172,263.56 211.562,263.074 211.822,262.332C212.091,261.568 212.043,260.748 212.275,260.019C212.619,258.925 213.218,257.924 213.684,256.918C213.264,256.814 212.944,256.689 212.752,256.355C212.791,256.222 212.828,256.092 212.866,255.959C213.158,255.969 213.449,255.98 213.74,255.989C213.966,255.782 214.192,255.574 214.416,255.367C214.614,255.295 214.811,255.218 215.008,255.142C216.512,254.691 218.016,254.24 219.52,253.788C220.965,253.376 222.414,252.961 223.859,252.547C224.743,252.257 225.628,251.967 226.511,251.674C226.942,251.626 227.374,251.579 227.806,251.534C229.319,251.307 230.833,251.082 232.345,250.856C232.872,250.621 233.397,250.387 233.924,250.152C234.871,249.812 235.801,249.783 236.631,249.363C237.446,248.949 238.004,248.419 239.055,248.122C239.61,248.027 240.164,247.932 240.718,247.84C241.158,247.68 241.601,247.523 242.042,247.361C242.521,247.381 243,247.397 243.48,247.418C243.669,247.314 243.857,247.21 244.043,247.107C244.355,247.135 244.665,247.164 244.974,247.191C245.077,247.08 245.182,246.966 245.285,246.853C245.52,246.833 245.755,246.815 245.99,246.796C246.685,246.676 247.244,246.594 247.653,246.205C247.791,246.044 247.651,245.352 247.596,245.104C247.448,244.419 247.096,243.336 247.315,242.397C247.465,241.995 247.615,241.589 247.766,241.186C247.897,240.509 248.029,239.833 248.161,239.158C248.18,238.686 248.199,238.215 248.217,237.748C248.379,237.276 249.38,236.521 249.796,236.226C250.641,235.622 251.7,234.831 252.841,234.562C253.213,234.476 255.638,234.992 255.971,235.125C256.233,235.351 256.497,235.577 256.759,235.801C258.851,237.445 258.214,239.457 257.381,241.779C257.334,242.108 257.286,242.435 257.241,242.765C257,243.533 256.565,244.167 256.14,244.767C255.797,245.25 255.051,245.328 254.702,245.782C254.411,246.158 254.469,247.005 254.477,247.642C254.816,247.861 255.13,248.156 255.576,248.261C255.972,248.272 256.366,248.282 256.76,248.29C257.09,248.403 257.418,248.515 257.747,248.628C258.442,248.403 259.139,248.179 259.833,247.952C260.631,247.943 261.431,247.931 262.23,247.924C263.264,247.709 264.297,247.491 265.331,247.276C266.064,246.938 266.797,246.599 267.53,246.261C268.582,245.912 269.635,245.566 270.688,245.217C271.194,244.646 271.703,244.071 272.211,243.498C273.815,242.188 275.224,240.624 276.833,239.296C277.125,238.941 277.416,238.583 277.707,238.225C277.67,237.832 277.632,237.438 277.594,237.042C277.717,236.967 277.839,236.893 277.962,236.816C278.23,236.938 278.389,237.004 278.44,237.351C278.459,237.361 278.479,237.371 278.497,237.379C278.76,237.061 279.024,236.74 279.287,236.421C279.27,235.829 279.251,235.237 279.23,234.645C279.344,234.259 279.458,233.875 279.569,233.489C279.569,233.48 279.569,233.472 279.569,233.461C278.527,233.495 277.452,233.731 276.694,233.378C276.666,233.245 276.637,233.115 276.609,232.982C277.338,232.82 278.269,232.604 279.147,232.589C279.147,232.578 279.147,232.568 279.147,232.559C278.235,232.401 277.324,232.24 276.412,232.081C276.308,231.875 276.205,231.668 276.101,231.462C277.044,231.15 278.39,231.134 279.598,231.15C279.607,231.13 279.617,231.111 279.625,231.093C278.827,230.481 278.169,229.448 277.23,229.008C277.124,228.855 277.143,228.758 277.313,228.612C277.633,228.296 278.187,228.727 278.414,228.865C279.327,229.428 280.145,230.074 281.008,230.672C281.326,229.437 281.863,228.863 282.473,227.992C282.645,227.747 282.774,227.293 283.064,227.176C283.284,227.311 283.44,227.314 283.54,227.574Z" style="fill-rule:nonzero;"/>
    </g>
</svg>
