<?xml version="1.0" encoding="UTF-8" standalone="no"?>
<!DOCTYPE svg PUBLIC "-//W3C//DTD SVG 1.1//EN" "http://www.w3.org/Graphics/SVG/1.1/DTD/svg11.dtd">
<svg width="100%" height="100%" viewBox="0 0 68 72" version="1.1" xmlns="http://www.w3.org/2000/svg" xmlns:xlink="http://www.w3.org/1999/xlink" xml:space="preserve" xmlns:serif="http://www.serif.com/" style="fill-rule:evenodd;clip-rule:evenodd;stroke-linejoin:round;stroke-miterlimit:1.41421;">
    <g transform="matrix(1,0,0,1,-563.579,-248.353)">
        <path d="M618.285,249.927C618.321,249.241 618.059,249.079 618.052,248.353C618.964,248.442 619.055,249.269 619.704,249.593C619.871,249.016 620.223,248.494 620.842,248.714C620.317,250.116 619.791,251.52 619.267,252.922C619.155,253.404 619.043,253.887 618.93,254.368C618.706,254.849 618.483,255.332 618.26,255.814C618.383,256.252 618.855,256.653 619.112,257.001C619.584,257.645 620.199,258.233 620.815,258.731C621.296,259.195 621.78,259.661 622.261,260.125C622.975,260.951 623.691,261.778 624.405,262.604C625.277,263.701 626.22,264.708 627.063,265.858C627.296,266.15 627.529,266.442 627.761,266.735C627.932,267.157 628.106,267.579 628.277,268C627.68,269.119 626.765,269.938 626.006,270.892C624.991,272.166 623.862,273.331 622.597,274.352C621.468,275.262 620.468,276.331 619.293,277.218C617.43,278.623 614.787,280.086 614.025,282.536C613.621,283.839 614.331,285.117 614.619,286.099C614.852,287.922 615.083,289.748 615.316,291.573C615.425,292.151 615.781,293.571 615.652,294.103C615.283,294.197 614.913,294.292 614.543,294.386C613.61,294.532 613.013,293.672 612.477,293.327C612.468,293.327 612.459,293.327 612.451,293.327C612.409,296.219 612.809,298.692 613.509,300.891C613.847,301.727 614.182,302.561 614.517,303.396C615.291,303.018 616.068,302.639 616.841,302.261C617.452,301.968 618.064,301.674 618.675,301.383C620.166,300.481 621.648,299.451 623.373,298.775C624.949,298.157 627.663,298.632 628.796,299.318C628.993,299.559 629.19,299.798 629.39,300.041C630.582,301.55 631.401,303.646 630.912,306.288C630.869,306.667 630.826,307.046 630.782,307.426C630.008,309.426 628.781,311.022 627.634,312.64C627.176,313.286 626.721,313.932 626.265,314.577C625.369,315.059 624.475,315.541 623.579,316.023C622.899,316.186 622.22,316.349 621.54,316.513C621.204,316.633 620.869,316.755 620.532,316.874C620.858,317.312 621,317.415 620.714,317.983C620.438,318.071 620.164,318.157 619.888,318.243C619.535,318.233 619.182,318.225 618.828,318.218C618.623,318.218 618.417,318.218 618.209,318.218C617.892,318.044 617.572,317.873 617.254,317.7C616.772,317.718 616.291,317.734 615.809,317.752C614.329,317.855 612.848,317.958 611.369,318.062C610.62,318.044 609.87,318.028 609.122,318.011C608.201,318.036 607.28,318.062 606.358,318.087C605.582,318.206 604.222,318.261 603.44,318.14C601.764,318.114 600.085,318.087 598.406,318.062C597.934,318.732 596.968,319.817 596.109,320.05C595.558,319.93 595.006,319.809 594.458,319.689C593.486,319.444 592.64,319.038 591.72,318.811C591.195,318.743 590.67,318.673 590.146,318.605C589.76,318.542 589.404,318.713 589.114,318.785C588.433,318.954 586.987,319.153 586.144,318.916C585.533,318.64 584.921,318.364 584.311,318.088C584.07,317.822 583.828,317.555 583.588,317.289C583.115,316.807 582.642,316.324 582.168,315.843C581.987,315.525 581.806,315.205 581.624,314.887C581.479,314.656 581.333,314.423 581.186,314.19C581.161,313.554 581.134,312.917 581.109,312.28C581.364,310.926 581.819,309.734 582.478,308.768C582.779,308.45 583.081,308.132 583.381,307.813C583.527,307.641 583.673,307.469 583.819,307.296C584.421,307.03 585.025,306.762 585.627,306.495C586.101,306.289 586.573,306.083 587.047,305.877C587.4,305.859 587.753,305.843 588.107,305.825C588.715,305.727 589.506,305.619 590.146,305.721C590.766,305.774 591.386,305.825 592.004,305.877C592.692,305.739 593.382,305.602 594.069,305.463C594.525,305.232 594.982,304.999 595.438,304.766C595.824,304.578 596.212,304.388 596.599,304.199C595.805,302.146 598.512,300.579 598.072,298.21C597.554,295.43 595.846,293.925 594.663,291.857C594.458,291.341 594.251,290.825 594.044,290.307C594.036,290.326 594.026,290.343 594.018,290.36C593.52,291.213 593.02,292.064 592.521,292.917C592.064,293.476 591.609,294.035 591.152,294.594C590.105,295.977 589.051,297.188 587.616,298.185C585.834,298.045 584.418,297.496 582.917,297.047C580.754,296.403 578.563,295.915 576.539,295.138C575.936,294.922 575.335,294.706 574.732,294.492C573.941,294.159 572.917,293.399 571.866,293.666C570.925,293.905 570.156,295.046 569.465,295.602C568.507,296.377 567.432,297.238 566.289,297.797C565.573,297.427 565.446,297.691 564.792,298.029C564.672,297.951 564.551,297.875 564.431,297.797C564.527,297.686 564.621,297.573 564.715,297.462C564.715,297.452 564.715,297.445 564.715,297.436C564.259,297.447 564.056,297.332 563.76,297.229C563.753,296.973 563.812,296.947 563.914,296.817C563.803,296.653 563.689,296.49 563.579,296.326C563.656,296.222 563.734,296.12 563.81,296.016C564.147,296.154 564.482,296.291 564.818,296.428C564.504,295.747 563.937,295.465 564.276,294.261C564.623,294.246 564.79,294.282 565.05,294.389C565.059,294.389 565.067,294.389 565.075,294.389C565.165,293.44 566.912,292.96 567.605,292.504C568.34,292.022 569.057,291.358 570.033,291.137C570.291,291.137 570.55,291.137 570.806,291.137C571.956,291.137 572.827,291.319 573.749,291.523C575.943,291.919 578.139,292.316 580.332,292.711C581.336,292.929 582.565,292.995 583.844,292.995C584.233,292.995 584.619,292.995 585.006,292.995C585.412,292.928 585.883,293.06 586.194,292.918C586.565,292.436 586.934,291.953 587.304,291.472C587.692,290.655 588.076,289.836 588.466,289.02C589.032,288.117 589.601,287.211 590.17,286.308C591.244,284.241 591.718,281.657 593.009,279.802C593.416,279.217 594.232,278.591 594.972,278.356C595.351,278.322 595.73,278.288 596.108,278.253C596.613,278.116 597.928,277.729 598.147,277.323C598.208,276.97 598.268,276.617 598.33,276.263C598.415,275.851 598.501,275.437 598.587,275.026C598.62,273.975 598.656,272.925 598.69,271.876C598.7,271.351 598.708,270.825 598.716,270.3C598.884,269.221 598.846,268.222 599.104,267.201C599.67,264.963 600.372,263.394 601.944,262.14C602.495,261.701 603.367,261.065 604.165,260.927C604.816,260.816 605.406,261.352 605.843,261.47C606.223,261.444 606.601,261.417 606.98,261.392C607.696,261.531 608.263,261.901 608.735,262.295C609.123,263.157 609.51,264.017 609.898,264.877C609.939,265.17 609.984,265.463 610.027,265.756C610.647,268.631 610.854,272.215 611.162,275.411C612.109,274.886 613.057,274.361 614.003,273.836C614.682,273.492 615.361,273.148 616.043,272.804C617.058,272.013 618.074,271.22 619.089,270.429C619.924,269.852 620.758,269.276 621.594,268.699C622.012,268.382 622.256,267.888 622.729,267.615C622.729,267.59 622.729,267.563 622.729,267.537C621.834,265.929 620.94,264.318 620.044,262.71C619.037,261.221 618.029,259.731 617.023,258.243C616.381,257.277 615.767,256.472 615.346,255.247C615.053,254.4 615.375,253.195 615.5,252.459C615.65,251.572 615.351,250.708 615.76,250.084C616.689,250.09 617.455,249.987 618.285,249.927ZM616.271,250.625C616.304,251.348 616.34,252.07 616.374,252.793C616.582,252.909 617.254,253.357 617.536,252.948C617.929,252.334 618.245,251.535 618.103,250.779C617.42,250.787 616.882,250.688 616.271,250.625ZM568.04,293.354C567.905,293.398 567.765,293.441 567.629,293.484C567.177,293.706 566.854,294.146 566.338,294.311C565.951,294.404 565.563,294.499 565.176,294.593C565.032,294.803 565.068,295.407 565.176,295.549C565.453,295.91 566.174,295.952 566.699,295.755C567.364,295.506 568.387,294.216 568.144,293.354C568.109,293.354 568.076,293.354 568.04,293.354Z" style="fill-rule:nonzero;"/>
    </g>
</svg>
