<?xml version="1.0" encoding="UTF-8" standalone="no"?>
<!DOCTYPE svg PUBLIC "-//W3C//DTD SVG 1.1//EN" "http://www.w3.org/Graphics/SVG/1.1/DTD/svg11.dtd">
<svg width="100%" height="100%" viewBox="0 0 150 208" version="1.1" xmlns="http://www.w3.org/2000/svg" xmlns:xlink="http://www.w3.org/1999/xlink" xml:space="preserve" xmlns:serif="http://www.serif.com/" style="fill-rule:evenodd;clip-rule:evenodd;stroke-linejoin:round;stroke-miterlimit:1.41421;">
    <g transform="matrix(1,0,0,1,-871.602,-30.0411)">
        <path d="M954.502,30.044C965.488,29.914 969.734,34.1 969.737,44.988C969.738,46.693 970.124,48.229 969.737,49.747C969.383,51.138 968.217,51.915 967.562,53.003C967.562,53.086 967.562,53.169 967.562,53.252C968.946,53.74 968.02,55.604 968.901,56.258C969.619,56.554 971.243,56.332 971.914,56.675C972.319,56.882 972.826,57.541 973.337,57.761C974.138,58.104 974.764,57.99 975.681,58.261C977.646,58.846 979.606,59.786 981.374,60.515C982.742,61.078 984.575,61.208 985.726,62.018C988.651,64.075 991.444,67.583 992.842,71.119C993.477,72.724 993.663,74.845 994.182,76.462C994.544,78.715 994.908,80.971 995.27,83.225C995.777,85.175 996.591,87.397 997.11,89.236C997.14,89.681 997.168,90.126 997.196,90.572C998.573,94.506 1003.34,102.5 1001.97,107.519C1001.32,109.877 1001.01,113.358 999.205,114.699C997.332,116.088 992.846,117.472 992.006,119.625C991.161,121.786 992.894,125.812 993.345,127.722C993.066,127.705 993.154,127.645 992.926,127.806C994.413,131.14 995.861,135.278 996.777,139.244C997.28,143.223 997.783,147.203 998.285,151.182C998.954,154.689 999.624,158.195 1000.29,161.702C1000.6,162.397 1000.91,163.094 1001.21,163.789C1001.24,164.929 1001.27,166.071 1001.3,167.212C1001.86,168.266 1003.6,168.674 1004.4,169.549C1005.65,170.915 1006.5,173.066 1007.49,174.642C1008.56,176.346 1008.97,178.482 1009.67,180.485C1011.34,185.257 1012.81,190.36 1014.44,195.178C1014.81,196.847 1015.17,198.518 1015.53,200.187C1016,201.588 1017.07,203.038 1017.45,204.612C1017.76,205.834 1017.51,206.874 1018.04,207.867C1018.79,209.285 1020.55,210.046 1020.97,211.875C1021.23,212.998 1020.76,214.12 1020.89,215.131C1020.98,215.874 1021.62,216.74 1021.31,217.802C1021.14,218.138 1020.97,218.471 1020.81,218.805C1020.81,219.973 1020.81,221.141 1020.81,222.311C1020.54,223.048 1019.84,224.715 1019.21,225.15C1018.94,225.289 1018.66,225.428 1018.38,225.567C1018.01,226.234 1017.65,226.902 1017.29,227.571C1015.9,229.654 1013.56,232.106 1011.26,233.249C1008.13,234.803 999.253,235.242 1000.21,229.909C1000.59,227.785 1002.26,226.47 1003.31,224.983C1004.24,223.669 1004.78,222.039 1005.74,220.809C1005.63,220.49 1005.74,220.636 1005.49,220.476C1004.15,219.93 1002.95,219.488 1002.81,217.803C1003.05,217.464 1003.23,217.214 1003.31,216.718C998.595,213.62 998.649,203.617 995.693,198.518C993.283,194.366 990.728,190.128 988.661,185.662C987.862,183.937 987.856,181.615 986.987,179.902C986.065,178.787 985.144,177.674 984.223,176.562C982.076,173.724 979.927,170.884 977.778,168.046C975.705,164.322 973.364,160.986 970.999,157.61C969.682,155.729 968.565,153.79 966.895,152.267C965.516,152.589 962.966,154.935 961.874,155.858C963.896,158.584 966.103,161.255 968.153,163.955C968.377,164.427 968.599,164.902 968.821,165.374C971.075,168.366 973.657,171.487 974.43,175.894C975.216,180.374 971.196,183.922 969.826,186.58C969.128,188.305 968.43,190.03 967.733,191.757C965.697,196.51 963.143,201.032 960.87,205.783C960.055,207.485 956.696,214.302 958.023,217.137C958.614,217.247 959.17,217.459 959.445,217.888C960.101,218.891 959.071,220.022 959.445,221.061C959.831,221.833 960.787,222.217 961.287,222.897C961.427,223.258 961.567,223.621 961.705,223.982C962.213,224.549 963.085,224.773 963.547,225.402C963.773,225.727 963.717,226.079 963.547,226.403C962.307,226.368 962.316,225.589 961.371,225.318C961.371,225.345 961.371,225.374 961.371,225.401C962.197,227.003 964.65,227.597 964.133,230.076C963.939,230.131 963.742,230.188 963.547,230.243C962.712,229.587 961.799,229.138 961.204,228.24C961.149,228.267 961.09,228.296 961.036,228.323C961.618,230.985 967.849,231.888 967.398,234.752C966.945,237.627 962.982,238.28 959.362,237.59C957.002,237.14 954.505,236.898 952.834,235.753C950.795,234.357 950.281,231.392 949.066,229.158C948.564,228.488 948.062,227.821 947.559,227.155C946.493,227.767 945.404,228.567 944.545,229.408C943.152,229.414 941.151,227.948 940.695,226.989C940.337,225.648 941.399,224.21 941.698,223.147C941.927,222.331 941.446,221.667 941.364,221.06C941.109,219.178 942.252,216.562 943.29,215.799C943.917,215.34 947.243,213.865 947.475,213.462C951.503,206.431 950.427,194.775 953.669,186.83C954.228,185.459 957.897,178.636 957.771,178.063C957.209,176.787 955.731,176.369 954.505,175.725C952.183,174.501 948.724,171.662 945.801,171.384C943.821,174.679 943.189,179.03 942.368,183.573C942.285,184.686 942.2,185.8 942.117,186.913C941.475,189.279 940.834,191.643 940.19,194.009C939.857,196.764 939.521,199.519 939.188,202.275C938.741,204.529 938.292,206.783 937.847,209.037C937.64,210.152 937.957,211.357 938.1,212.21C938.292,213.383 937.995,214.687 937.847,215.55C937.55,217.311 938.414,218.394 937.429,219.724C936.596,220.849 932.087,222.565 929.561,221.977C928.775,221.794 927.915,220.99 926.799,221.226C925.498,221.5 924.292,222.022 923.198,222.562C921.345,223.476 919.174,224.219 917.004,224.899C913.011,226.15 903.887,225.664 902.774,222.646C900.823,217.358 910.88,217.035 913.908,215.382C915.113,214.722 916.496,212.831 917.339,211.708C917.898,211.291 918.455,210.874 919.015,210.456C918.07,207.953 917.682,206.241 919.265,203.862C919.712,203.278 920.158,202.693 920.605,202.108C920.605,198.212 920.605,194.315 920.605,190.419C921.083,187.544 921.45,184.779 922.027,181.821C922.469,179.567 923.275,176.77 923.031,174.307C922.87,172.658 923.387,170.451 922.865,169.298C922.511,169.186 921.74,168.678 921.107,168.965C920.787,169.108 918.972,171.684 918.595,172.136C917.176,173.845 915.258,175.036 913.49,176.394C905.033,182.89 899.299,192.448 891.81,199.938C890.68,201.068 886.049,207.297 886.787,209.456C887.79,211.351 891.063,211.248 892.731,212.293C892.783,212.68 892.787,213.025 893.064,213.212C893.594,213.212 894.125,213.212 894.655,213.212C895.839,213.44 896.815,214.407 897.251,215.382C897.904,217.81 896.034,218.836 894.739,219.639C891.065,221.924 888.326,222.393 884.109,220.475C883.081,220.009 881.397,219.147 880.174,219.724C880.084,220.374 879.481,224.1 879.167,224.316C877.476,225.347 875.49,225.379 873.477,224.733C873.181,223.892 873.584,222.856 873.309,221.728C872.904,220.065 870.862,218.21 871.886,215.382C873.041,212.198 875.991,211.015 877.578,208.286C879.833,204.412 881.347,199.517 883.104,195.345C885.567,189.497 888.391,184.614 892.057,180.068C893.78,177.935 896.468,176.125 898.672,174.474C900.604,173.026 901.963,170.467 903.359,168.462C904.17,167.349 904.98,166.235 905.787,165.123C905.787,164.622 905.787,164.121 905.787,163.621C906.29,162.411 907.298,161.198 907.797,160.03C907.825,159.697 907.853,159.361 907.881,159.028C908.188,158.638 908.496,158.25 908.801,157.86C909.634,155.861 909.924,154.362 910.728,152.35C911.202,151.375 911.676,150.402 912.15,149.428C912.881,146.926 912.174,143.8 912.904,141.078C913.585,138.541 914.217,135.785 915.331,133.565C916.944,130.351 919.163,127.766 921.693,125.467C922.177,125.027 922.947,124.992 923.45,124.547C923.646,124.214 923.843,123.88 924.037,123.547C924.512,123.214 924.986,122.878 925.461,122.544C926.083,121.323 926.304,120.506 926.967,119.289C927.337,118.611 927.989,118.758 928.139,117.62C926.589,116.799 924.655,116.033 923.619,114.697C923.173,113.919 922.726,113.139 922.28,112.36C920.802,111.044 918.967,110.091 918.01,108.269C918.495,103.998 922.678,102.401 924.538,99.337C924.424,98.414 923.825,97.726 923.533,96.998C922.095,93.402 918.108,87.07 919.598,81.385C920.152,79.278 921.483,78.015 922.613,76.543C922.613,76.487 922.613,76.433 922.613,76.376C922.586,76.376 922.556,76.376 922.529,76.376C922.318,76.246 922.112,76 921.608,76.126C921.106,76.376 920.604,76.626 920.102,76.876C918.934,77.168 917.781,76.489 916.92,76.876C916.902,78.129 917.595,79.686 917.423,80.133L917.004,80.133C916.88,79.882 916.836,79.657 916.838,79.213C916.752,79.243 916.668,79.27 916.587,79.297C916.332,79.744 916.027,80.536 915.581,80.799C914.616,81.52 913.689,80.546 913.236,79.965C913.153,80.021 913.07,80.075 912.986,80.132C913.044,80.851 913.094,81.382 912.817,81.884C911.762,81.796 910.402,79.339 910.139,78.295C910.112,78.295 910.082,78.295 910.056,78.295C909.662,78.48 909.687,78.635 909.135,78.712C908.829,78.545 908.521,78.379 908.214,78.212C907.723,78.537 906.985,79.356 906.205,79.047C906.121,78.99 906.037,78.935 905.953,78.879C906.041,77.188 907.517,77.515 907.963,76.375C907.638,76.147 907.603,75.772 907.459,75.372C906.847,75.428 906.654,75.657 906.205,75.874C906.064,75.79 905.926,75.707 905.785,75.623C905.744,74.967 905.749,74.54 906.121,74.288C906.596,74.149 907.07,74.01 907.544,73.871C907.601,73.537 907.655,73.203 907.712,72.87C907.312,72.789 907.141,72.759 906.958,72.452C906.958,72.285 906.958,72.119 906.958,71.951C907.095,71.677 907.129,71.685 907.376,71.534C907.738,71.645 908.102,71.756 908.465,71.869C908.843,71.608 909.037,71.706 909.135,71.117C908.381,69.703 907.255,68.126 906.79,66.526C904.807,59.704 909.791,53.853 913.487,51.748C914.406,51.225 915.152,51.554 916.417,51.164C917.623,50.792 919.015,49.729 921.021,50.163C921.664,50.469 922.304,50.775 922.946,51.08C924.637,51.718 926.42,51.835 927.803,52.749C928.41,53.154 928.176,53.974 928.888,54.336C929.84,54.074 930.939,54.076 932.155,54.085C932.322,54.224 932.488,54.363 932.657,54.502C932.865,55.284 932.725,55.948 932.574,56.672C933.91,56.982 933.637,57.703 934.248,58.342C934.649,58.608 934.938,58.753 935.252,59.093C935.14,59.4 935.029,59.706 934.918,60.012C935.463,59.985 937.093,60.199 937.429,60.679C937.513,61.012 937.596,61.347 937.681,61.68C938.354,62.573 939.678,62.439 939.942,63.851C940.398,66.302 934.919,67.695 937.513,72.116C940.581,69.779 943.651,67.441 946.721,65.104C947.984,64.176 949.926,63.244 950.07,61.263C947.84,59.582 945.111,55.646 944.293,52.58C943.966,51.345 944.567,49.593 944.127,48.573C943.682,48.397 943.499,48.133 943.206,47.821C943.193,46.657 942.847,44.957 943.373,44.148C943.861,43.397 945.25,43.063 945.55,42.144C945.772,40.643 945.995,39.138 946.219,37.636C947.314,34.747 949.777,32.255 952.329,30.791C953.053,30.545 953.777,30.296 954.502,30.044ZM953.08,35.136C952.019,35.47 950.96,35.805 949.9,36.138C948.68,36.66 947.733,37.644 946.718,38.392C946.467,39.839 946.215,41.286 945.964,42.732C945.449,43.526 944.321,43.848 943.871,44.737C943.643,45.522 943.689,46.834 943.871,47.742C944.206,48.019 944.541,48.298 944.876,48.577C944.799,52.848 945.663,55.544 947.723,57.844C948.889,59.146 951.309,60.831 951.491,62.936C951.462,62.936 951.432,62.936 951.405,62.936C951.239,62.715 951.312,62.771 950.987,62.685C950.931,62.74 950.876,62.798 950.819,62.852C950.425,65.215 949.81,67.366 949.313,69.447C948.785,71.663 949.463,73.632 948.81,75.542C947.695,78.269 946.578,80.997 945.461,83.724C944.457,82.778 943.452,81.831 942.448,80.884C942.142,80.973 942.202,80.952 942.029,81.136C943.118,82.248 944.206,83.362 945.294,84.474C947.651,86.823 949.85,89.065 951.823,91.822C952.437,92.628 953.052,93.435 953.665,94.242C954.325,95.952 954.884,99.105 954.42,101.59C954.234,102.572 953.563,104.229 953.917,105.095C954.083,105.039 954.251,104.985 954.42,104.928C954.643,103.786 954.864,102.645 955.089,101.506C956.659,92.454 949.249,88.532 945.88,84.139C946.714,83.607 946.946,81.9 947.387,80.966C948.484,78.65 949.344,75.998 949.983,73.369C950.01,72.089 950.038,70.809 950.067,69.529C950.428,68.194 950.791,66.858 951.154,65.522C955.048,69.16 959.507,67.877 963.375,65.272C963.404,65.355 963.433,65.438 963.46,65.522C962.398,69.474 961.339,73.426 960.279,77.376C960.167,79.492 960.056,81.606 959.943,83.722C958.446,93.114 960.525,102.447 960.948,111.772C960.224,110.994 959.498,110.215 958.773,109.436C955.465,106.832 952.471,104.079 950.067,100.586C949.006,98.275 947.946,95.965 946.885,93.656C946.272,92.739 945.657,91.821 945.044,90.901C943.492,87.522 942.397,84.212 940.941,80.632C939.769,77.988 938.596,75.345 937.425,72.701C936.797,72.04 935.701,70.202 936.252,68.527C936.816,66.815 938.993,65.942 939.265,63.934C938.504,62.778 937.225,62.5 936.838,61.011C936.067,60.88 934.888,60.646 934.327,60.261C934.327,60.233 934.327,60.205 934.327,60.178C934.333,59.661 934.422,59.494 934.579,59.177C934.08,59.067 933.83,58.841 933.489,58.593C933.461,58.287 933.434,57.981 933.406,57.674C932.931,57.425 932.459,57.173 931.984,56.923C932.011,56.084 932.27,55.73 932.151,55.002C932.067,54.892 931.984,54.781 931.898,54.669C930.464,54.681 929.288,55.03 928.132,54.753C927.849,54.354 927.747,54.052 927.63,53.417C925.899,52.591 921.81,50.759 919.593,50.747C918.675,51.929 917.09,52.399 916.413,53.835C914.426,58.056 916.439,59.147 917.92,61.767C918.338,62.712 918.758,63.659 919.175,64.605C919.759,65.518 921.066,64.906 921.353,66.693C920.807,67.072 916.638,69.928 918.841,71.284C920.028,72.014 922.538,71.97 923.278,73.119C923.773,73.894 923.571,76.007 923.194,76.876C922.692,77.349 922.189,77.822 921.687,78.296C920.938,79.44 920.343,80.907 920.097,82.47C919.136,88.549 922.47,92.255 924.031,96.079C924.595,97.459 924.859,99.522 925.789,100.587C926.445,100.66 927.051,100.637 927.631,100.504C927.77,100.365 927.909,100.227 928.049,100.087C926.003,95.499 923.658,89.599 924.783,82.804C925.121,80.779 925.002,79.351 925.789,77.879C926.854,75.887 928.9,75.311 931.146,74.456C931.091,74.818 931.034,75.18 930.979,75.541C924.145,76.702 925.791,88.791 927.714,94.409C928.411,96.19 929.109,97.971 929.807,99.752C931.713,99.81 935.649,98.811 935.33,97.164C935.051,96.747 934.771,96.329 934.495,95.912C933.629,94.186 932.764,92.461 931.897,90.735C931.955,90.762 932.01,90.792 932.066,90.818C933.266,92.794 934.465,94.77 935.666,96.747C936.016,97.198 936.681,97.316 937.004,97.832C938.555,100.291 939.691,102.734 941.358,105.012C942.852,107.052 945.076,108.856 947.049,110.439C949.142,112.386 951.235,114.334 953.328,116.281C955.169,117.533 957.011,118.787 958.852,120.039C960.062,120.892 961.257,121.693 962.535,122.543C963.037,123.24 963.539,123.936 964.042,124.629C965.53,125.685 969.12,126.874 971.241,127.136C974.163,127.494 976.804,123.476 978.44,122.292C979.555,121.903 980.672,121.513 981.789,121.122C983.043,120.54 984.3,119.955 985.555,119.371C988.33,118.224 991.557,117.522 993.759,115.781C995.748,114.207 995.073,110.342 993.34,108.934C989.871,106.119 986.242,105.763 983.631,109.686C982.172,111.876 982.021,111.698 979.36,112.692C978.669,112.95 977.796,113.303 977.017,112.859C976.448,111.002 975.175,108.592 973.751,107.516C973.416,107.544 973.082,107.572 972.746,107.6C972.301,108.155 971.854,108.714 971.408,109.269C970.398,109.246 969.415,109.287 968.728,109.519C967.969,111.003 965.593,111.965 965.463,113.778C965.825,113.874 966.121,113.987 966.3,114.279C966.329,114.417 966.356,114.556 966.384,114.696C966.356,114.724 966.329,114.752 966.3,114.779C964.013,114.814 962.239,113.437 961.278,112.108C961.794,111.798 961.776,110.025 961.612,109.019C961.334,105.985 961.055,102.952 960.776,99.919C959.95,94.865 959.862,88.719 960.692,83.637C960.802,81.551 960.916,79.463 961.027,77.376C962.087,73.37 963.147,69.362 964.208,65.355C963.789,64.436 963.37,63.518 962.952,62.599C964.403,59.679 965.854,56.755 967.305,53.834C966.989,53.576 966.749,53.243 967.055,52.665C967.055,52.609 967.055,52.555 967.055,52.499C967.866,51.184 970.504,48.909 968.812,46.654C968.51,46.253 968.139,45.839 967.305,45.986C966.038,46.211 965.936,47.216 964.795,47.405C964.683,47.322 964.572,47.238 964.46,47.155C964.185,45.965 964.452,44.111 964.124,42.563C963.026,37.362 959.53,35.073 953.08,35.136ZM965.971,54.839C966,54.896 966.028,54.952 966.056,55.006C966.027,54.952 966,54.896 965.971,54.839ZM965.722,55.258C965.747,55.313 965.777,55.368 965.804,55.424C965.776,55.368 965.747,55.313 965.722,55.258ZM965.636,55.423C965.552,55.647 965.469,55.869 965.385,56.092C965.469,55.869 965.552,55.647 965.636,55.423ZM965.302,56.092C965.329,56.148 965.359,56.204 965.385,56.259C965.358,56.205 965.329,56.148 965.302,56.092ZM965.218,56.259C965.246,56.315 965.274,56.37 965.302,56.426C965.273,56.37 965.246,56.315 965.218,56.259ZM965.135,56.425C965.203,56.607 965.156,56.579 965.05,56.759C965.079,56.648 965.106,56.538 965.135,56.425ZM964.967,56.76C964.996,56.816 965.023,56.871 965.05,56.927C965.022,56.871 964.996,56.815 964.967,56.76ZM962.289,63.189C962.731,63.48 963.037,64.374 962.874,64.774C961.273,65.556 957.304,68.386 954.252,66.778C958.472,66.864 960.581,65.58 962.289,63.189ZM951.491,63.439C952.131,64.416 952.504,65.416 953.163,66.277C953.08,66.22 952.995,66.165 952.914,66.11C951.901,65.662 951.433,64.799 951.491,63.439ZM953.163,66.278C953.247,66.333 953.332,66.388 953.415,66.444C953.332,66.388 953.247,66.333 953.163,66.278ZM953.415,66.443C953.554,66.472 953.693,66.501 953.834,66.528C953.834,66.555 953.834,66.583 953.834,66.611C953.693,66.556 953.554,66.501 953.415,66.443ZM978.611,85.063C978.554,85.202 978.5,85.341 978.444,85.48C979.848,87.73 980.162,91.251 980.872,93.828C981.311,95.433 982.686,96.724 983.215,98.17C983.215,98.893 983.215,99.617 983.215,100.34C983.578,101.092 983.942,101.843 984.304,102.594C985.133,105.135 983.308,107.367 983.551,108.939C983.718,108.968 983.885,108.996 984.052,109.023C984.669,107.649 985.754,104.884 985.057,102.427C984.694,101.703 984.332,100.98 983.969,100.257C983.969,99.533 983.969,98.809 983.969,98.087C983.187,96.639 982.406,95.191 981.624,93.744C980.738,90.819 980.558,87.493 979.112,85.063C978.946,85.063 978.777,85.063 978.611,85.063ZM931.818,90.573C931.845,90.629 931.875,90.683 931.9,90.739C931.875,90.684 931.846,90.629 931.818,90.573ZM932.572,102.929C931.538,103.374 930.506,103.819 929.473,104.264C928.721,104.959 927.967,105.655 927.213,106.351C924.992,107.759 922.808,108.549 922.609,111.944C923.682,112.803 923.963,114.486 925.12,115.284C927.962,117.242 931.57,117.897 935.501,118.874C936.768,119.188 941.109,119.676 942.113,118.707C942.273,118.264 942.169,117.79 942.533,117.538C943.755,117.077 945.627,117.473 945.797,115.952C945.712,115.84 945.627,115.729 945.546,115.617C944.853,115.445 943.132,115.344 942.364,115.033C942.364,115.006 942.364,114.978 942.364,114.95C943.502,114.665 945.269,114.73 946.131,114.2C946.155,113.711 946.166,113.555 945.88,113.364C943.834,111.881 938.788,113.583 936.506,112.279C936.477,112.085 936.45,111.89 936.421,111.694C936.506,111.639 936.589,111.584 936.673,111.528C937.832,110.734 943.206,110.851 943.787,110.025C943.944,109.829 943.958,109.67 943.955,109.274C943.536,108.94 943.118,108.607 942.699,108.272C940.726,108.306 934.386,109.512 932.654,108.523C932.376,107.743 932.095,106.965 931.817,106.186C931.874,106.102 931.929,106.019 931.985,105.935C933.432,105.69 934.98,105.297 936.002,104.599C936.087,104.294 936.172,103.987 936.253,103.682C935.467,102.918 934.182,102.896 932.572,102.929ZM970.827,113.114C974.088,113.05 975.409,114.134 977.69,114.783C977.524,114.45 977.354,114.115 977.186,113.782C977.216,113.725 977.244,113.669 977.271,113.614C977.383,113.614 977.494,113.614 977.607,113.614C977.716,113.698 977.83,113.782 977.942,113.866C978.563,115.411 977.678,115.566 977.857,116.954C977.966,117.799 978.706,118.991 978.109,120.127C976.169,120.466 974.677,118.789 972.919,118.373C970.937,117.906 969.784,119.932 967.73,119.292C966.686,118.967 966.799,116.665 965.722,117.205C965.398,118.562 965.476,119.982 966.475,120.878C967.561,120.878 968.651,120.878 969.738,120.878C970.52,120.733 971.341,120.243 972.25,120.462C972.194,120.627 972.14,120.795 972.083,120.962C970.59,121.167 968.167,122.132 966.224,121.464C965.306,121.148 965.487,119.859 964.633,119.627C964.41,119.739 964.187,119.849 963.963,119.961C962.628,126.315 970.026,122.74 973.255,123.218C973.255,123.328 973.255,123.44 973.255,123.551C973.227,123.606 973.199,123.661 973.171,123.718C969.095,124.459 961.851,125.986 963.376,119.627C963.774,119.333 963.967,119.104 964.633,119.042C964.745,117.955 964.966,116.756 965.805,116.371C966.001,116.371 966.195,116.371 966.391,116.371C967.066,116.904 967.177,118.115 967.899,118.542C969.286,119.315 971.065,117.4 972.837,117.708C974.75,118.039 975.839,119.355 977.692,119.544C977.819,118.7 977.638,118.047 977.44,117.373C976.52,116.984 975.598,116.594 974.678,116.204C973.924,115.974 972.031,116.204 971.582,115.787C971.69,115.466 971.582,115.613 971.831,115.452C973.615,114.525 975.768,116.162 977.104,116.455C977.187,116.371 977.272,116.287 977.355,116.204C977.355,115.927 977.355,115.647 977.355,115.369C977.301,115.369 977.245,115.369 977.187,115.369C975.993,114.683 974.539,114.055 973.003,113.784C971.53,113.523 969.775,114.595 969.152,114.034C969.521,113.49 970.238,113.433 970.827,113.114ZM952.661,116.286C951.876,117.459 951.604,123.031 951.238,124.887C950.876,127.223 950.511,129.561 950.15,131.899C950.177,134.32 950.206,136.741 950.235,139.163C950.597,141.082 950.96,143.004 951.321,144.922C952.844,149.007 956.541,152.816 959.859,155.192C960.001,155.137 960.139,155.08 960.279,155.025C960.279,154.997 960.279,154.969 960.279,154.942C959.534,153.074 956.776,152.073 955.591,150.518C954.314,148.838 952.797,146.862 951.993,144.84C950.666,141.512 950.382,134.462 950.987,130.23C953.527,131.899 956.066,133.569 958.605,135.238C958.289,136.846 956.063,143.739 956.427,144.589C960.139,144.283 963.85,143.976 967.562,143.672C976.1,142.07 988.834,134.802 992.088,128.143C992.059,128.059 992.032,127.976 992.004,127.892C991.947,127.865 991.892,127.837 991.836,127.809C991.726,127.809 991.612,127.809 991.501,127.809C985.654,137.009 972.185,143.712 957.098,143.839C958.828,139.351 959.684,134.295 960.697,129.313C961.126,127.208 961.64,124.209 960.866,121.965C960.724,121.965 960.586,121.965 960.446,121.965C960.419,122.048 960.388,122.132 960.362,122.215C960.419,123.441 960.473,124.665 960.531,125.888C960.508,127.671 959.516,133.512 958.688,134.488C956.176,132.791 953.666,131.092 951.154,129.394C951.657,126.112 952.159,122.827 952.661,119.543C952.822,118.747 953.316,117.388 952.995,116.538C952.85,116.336 952.911,116.398 952.661,116.286ZM968.232,165.711C965.628,168.514 960.732,170.138 956.344,171.055C953.75,171.305 951.154,171.555 948.56,171.806C948.616,171.806 948.671,171.806 948.727,171.806C951.993,173.895 955.947,174.974 958.437,177.818C958.448,179.814 955.619,183.937 954.753,185.831C952.064,191.725 952.093,200.687 950.234,207.372C949.395,210.385 949.047,213.697 946.297,214.803C946.923,216.406 948.996,221.451 950.066,222.4C954.279,226.136 957.047,221.214 957.766,217.641C957.034,217.071 957.112,214.706 957.348,213.467C958.013,209.978 959.443,207.021 960.78,204.116C962.902,199.915 965.021,195.712 967.141,191.509C967.839,189.784 968.537,188.059 969.235,186.333C970.499,183.839 972.733,181.789 973.587,178.82C973.973,177.484 973.933,175.493 973.505,174.228C972.975,172.662 969.381,166.292 968.232,165.711ZM905.618,166.379C901.451,174.45 893.099,178.238 888.458,185.83C886.284,189.389 884.18,193.563 882.68,197.601C880.754,202.796 879.036,208.143 875.484,211.71C878.348,212.295 882.66,215.873 885.946,213.464C885.926,212.072 885.221,211.173 885.528,209.874C886.615,205.267 889.566,201.786 892.141,198.603C893.34,197.462 894.54,196.322 895.741,195.18C898.055,192.231 900.373,189.282 902.689,186.33C903.72,185.245 904.752,184.16 905.785,183.074C906.817,181.906 907.85,180.738 908.883,179.568C909.861,178.649 910.836,177.731 911.813,176.814C915.499,174.008 918.049,172.122 920.853,168.38C919.445,167.806 917.694,168.156 915.832,167.713C912.747,166.983 908.981,166.834 905.618,166.379ZM924.369,168.884C924.256,168.994 924.144,169.106 924.033,169.217C924.061,169.3 924.089,169.384 924.117,169.467C928.223,170.631 934.706,170.285 939.101,170.97C940.997,170.942 942.896,170.914 944.793,170.886C944.964,170.773 944.927,170.793 945.044,170.636C944.96,170.524 944.876,170.412 944.793,170.3C937.47,170.355 931.005,169.319 924.369,168.884Z"/>
    </g>
</svg>
