<?xml version="1.0" encoding="UTF-8" standalone="no"?>
<!DOCTYPE svg PUBLIC "-//W3C//DTD SVG 1.1//EN" "http://www.w3.org/Graphics/SVG/1.1/DTD/svg11.dtd">
<svg width="100%" height="100%" viewBox="0 0 219 203" version="1.1" xmlns="http://www.w3.org/2000/svg" xmlns:xlink="http://www.w3.org/1999/xlink" xml:space="preserve" xmlns:serif="http://www.serif.com/" style="fill-rule:evenodd;clip-rule:evenodd;stroke-linejoin:round;stroke-miterlimit:1.41421;">
    <g transform="matrix(1,0,0,1,-768.432,-464.472)">
        <path d="M864.352,464.472C864.524,464.472 864.696,464.472 864.87,464.472C866.183,466.789 867.467,467.997 867.631,471.709C867.801,471.709 867.975,471.709 868.146,471.709C868.216,474.132 869.257,477.227 868.665,479.978C868.331,481.524 867.4,482.993 866.855,484.372C866.767,485.033 866.682,485.693 866.594,486.352C866.16,488.012 863.291,488.808 864.525,490.746C864.103,491.476 863.123,491.747 862.455,492.21C862.388,493.236 862.141,494.883 861.507,495.569C861.077,496.034 860.12,496.437 859.868,497.035C859.896,497.264 859.926,497.493 859.954,497.723C859.29,498.961 858.316,497.873 858.314,500.396C858.043,501.135 857.309,501.49 857.107,502.033C856.964,502.406 857.271,502.995 857.107,503.582C856.561,504.529 856.013,505.478 855.468,506.426C854.833,506.361 853.801,506.129 853.396,506.426C851.758,507.586 851.209,513.614 850.292,515.814C849,518.909 846.956,521.523 845.806,524.776C844.9,527.343 845.853,530.835 845.203,534.078C844.799,535.858 844.395,537.64 843.993,539.419C843.759,540.637 844.718,541.185 844.338,542.52C844,543.72 843.517,545.121 843.649,546.656C843.477,546.656 843.304,546.656 843.133,546.656C843.219,546.941 843.304,547.23 843.393,547.516C842.184,548.484 842.657,551.729 842.01,553.03C841.724,553.374 841.436,553.718 841.15,554.063C840.491,555.763 840.212,557.317 839.421,558.886C839.02,559.46 838.619,560.035 838.216,560.609C838.188,561.069 838.157,561.529 838.13,561.987C837.784,562.735 837.438,563.481 837.095,564.229C836.852,565.532 837.696,566.71 837.612,567.845C837.542,568.808 836.95,570.625 836.75,571.465C836.674,571.779 837.802,576.849 837.959,577.665C838.153,578.692 837.68,579.437 837.785,580.42C837.758,580.42 837.727,580.42 837.699,580.42C837.496,580.306 837.296,580.191 837.095,580.076C837.07,580.699 836.795,580.874 836.749,581.197C836.835,581.426 836.922,581.656 837.009,581.885C837.21,581.856 837.41,581.828 837.612,581.798C837.65,584.656 837.032,588.371 836.404,590.585C836.463,592.31 836.519,594.03 836.576,595.754C835.707,599.975 834.251,604.168 833.126,608.158C833.185,609.018 833.243,609.883 833.298,610.741C833.127,610.972 832.953,611.203 832.782,611.431C832.58,612.752 832.38,614.074 832.178,615.393C831.976,615.623 831.775,615.853 831.574,616.082C831.574,617.603 831.574,619.126 831.574,620.648C831.574,622.828 831.29,624.46 830.884,626.419C829.699,632.146 827.622,638.04 826.054,643.648C825.727,644.814 825.903,646.82 825.709,647.783C825.441,649.113 826.885,653.918 827.348,654.76C827.751,655.247 828.155,655.737 828.556,656.225C828.883,657.009 829.017,658.425 829.505,658.982C829.763,659.068 830.023,659.154 830.281,659.24C831.46,660.276 831.747,661.145 831.748,663.461C830.663,663.608 829.481,663.873 828.298,663.634C826.621,663.3 825.248,663.838 824.242,662.945C822.474,661.376 822.546,656.64 820.878,655.107C820.707,655.133 820.535,655.164 820.361,655.192C820.361,655.768 820.361,656.341 820.361,656.916C818.938,657.036 818.295,657.02 817.342,656.398C817.195,655.582 817.955,654.514 817.6,653.126C817.223,651.642 815.74,650.077 816.652,647.956C817.229,646.613 818.612,645.91 819.411,644.768C819.325,644.452 819.239,644.138 819.152,643.822C822.856,640.862 820.09,629.027 820.189,624.095C820.245,621.241 821.443,619.24 821.741,616.602C820.243,615.697 818.185,615.548 816.564,614.791C813.653,613.432 809.034,608.516 805.525,608.848C805.373,607.952 804.667,607.84 804.404,607.124C804.374,605.746 804.344,604.367 804.316,602.99C804.091,602.32 803.128,601.85 802.677,601.352C802.102,600.462 801.529,599.573 800.951,598.683C800.055,597.033 799.401,595.021 798.969,592.997C798.854,592.02 798.739,591.043 798.624,590.067C798.306,589.723 797.99,589.378 797.674,589.033C797.559,588.287 797.444,587.542 797.329,586.794C797.214,586.794 797.099,586.794 796.986,586.794C796.232,587.269 795.005,587.103 793.966,586.881C793.936,586.794 793.907,586.708 793.878,586.622C793.058,584.507 794.221,581.624 793.617,579.215C793.119,577.213 791.208,568.946 791.894,566.637C792.745,563.773 794.981,562.202 796.635,560.177C796.635,560.119 796.635,560.063 796.635,560.004C797.021,559.454 796.846,558.319 797.156,557.679C797.415,557.277 797.673,556.875 797.932,556.471C798.616,554.087 796.643,552.967 795.947,551.822C794.626,549.649 793.54,545.234 794.826,542.603C794.282,542 793.735,541.399 793.188,540.794C792.555,539.618 791.923,538.44 791.289,537.263C790.599,536.489 789.911,535.714 789.221,534.937C786.672,530.844 783.911,526.72 781.459,522.533C780.597,521.064 781.868,520.65 781.543,519.089C781.179,517.344 780.357,515.498 779.73,513.918C779.501,512.828 779.271,511.736 779.041,510.645C778.435,509.552 776.662,510.454 775.765,509.699C775.621,509.527 775.475,509.353 775.331,509.183C775.331,509.154 775.331,509.124 775.331,509.096C775.562,509.068 775.792,509.039 776.023,509.009C774.502,508.282 772.49,507.494 771.45,506.252C770.841,505.524 771.114,504.064 770.762,503.064C770.327,501.837 769.266,501.143 768.432,500.308C768.46,500.021 768.49,499.734 768.518,499.446C768.778,498.788 769.353,498.284 770.243,498.242C770.85,498.594 771.068,499.133 771.883,499.274C772.056,499.102 772.227,498.929 772.402,498.757C772.317,497.149 771.638,495.164 771.365,493.933C770.532,490.165 773.501,488.002 775.076,486.44C775.758,485.76 777.476,483.78 778.784,484.199C779.099,484.46 779.417,484.717 779.732,484.975C779.865,486.628 778.522,491.456 779.561,492.728C779.73,492.907 779.594,492.817 779.905,492.9C780.315,492.113 780.51,491.219 781.028,490.574C781.656,490.673 781.749,490.955 781.716,491.694C781.946,491.722 782.178,491.753 782.405,491.781C782.732,492.553 782.656,493.774 782.838,494.796C783.196,494.935 783.505,494.99 783.698,495.312C784.243,496.933 782.733,498.957 783.354,500.653C783.682,501.254 784.102,501.062 784.649,501.43C784.994,502.06 785.337,502.693 785.684,503.323C787.346,504.612 790.04,504.231 791.118,506.081C791.089,506.226 791.061,506.369 791.033,506.511C791.876,506.55 791.86,506.938 792.326,507.115C793.06,507.394 794.189,506.917 794.827,507.028C796.587,507.341 800.434,508.706 801.211,510.043C801.211,510.072 801.211,510.101 801.211,510.13C801.037,510.157 800.867,510.188 800.692,510.217C800.933,510.752 801.552,511.681 802.073,511.939C802.475,511.939 802.878,511.939 803.281,511.939C803.942,513.245 805.646,514.334 807.075,514.783C807.589,514.943 807.861,514.765 808.197,515.041C809.064,515.754 808.889,517.416 809.75,518.143C811.021,519.219 814.483,519.512 816.22,520.209C818.034,520.938 818.73,523.219 821.05,523.397C821.05,523.311 821.05,523.224 821.05,523.138C820.159,521.673 819.267,520.208 818.374,518.745C817.958,517.761 818.273,516.658 817.944,515.471C816.544,510.407 816.313,507.674 818.548,503.324C820.109,500.286 819.407,498.068 824.673,499.104C825.696,499.305 826.454,499.123 827.26,499.535C827.88,499.85 829.627,501.757 829.675,502.551C829.59,502.837 829.503,503.124 829.416,503.413C829.439,503.533 831.951,507.198 832.091,507.288C833.274,507.72 833.924,507.64 834.679,508.409C834.621,509.269 834.563,510.131 834.506,510.994C834.911,512.307 836.471,514.508 838.129,514.609C838.109,515.456 838.283,515.783 838.473,516.333C839.431,516.052 839.994,514.986 840.629,514.352C841.608,513.491 842.585,512.629 843.564,511.769C845.102,509.998 845.712,506.79 846.583,504.446C846.926,503.815 847.271,503.181 847.619,502.551C847.719,501.924 847.114,501.696 847.357,501.001C847.819,500.482 848.278,499.967 848.737,499.448C849.276,498.503 849.167,497.279 849.772,496.347C850.175,496.088 850.58,495.83 850.98,495.572C852.106,494.355 852.935,492.956 854.087,491.783C854.92,490.932 855.46,489.247 856.761,489.629C856.904,489.4 857.048,489.17 857.192,488.94C857.422,489.054 857.65,489.17 857.88,489.286C858.112,489.112 858.343,488.94 858.574,488.769C858.485,488.143 858.067,487.663 857.45,487.562C857.45,487.333 857.45,487.103 857.45,486.874C858.013,486.854 858.157,486.732 858.485,486.527C858.485,486.501 858.485,486.47 858.485,486.443C858.371,486.214 858.256,485.983 858.141,485.754C858.141,485.726 858.141,485.697 858.141,485.669C858.542,485.669 858.945,485.669 859.348,485.669C859.462,484.775 860.31,484.023 861.246,483.944C861.304,482.546 862.385,482.337 862.713,481.36C862.713,481.36 862.629,478.613 862.627,478.603C863.156,478.616 863.863,478.583 864.09,478.26C865.838,473.869 864.227,469.634 864.352,464.472ZM913.517,556.299C914.876,556.278 914.664,556.891 915.415,557.161C915.988,557.22 916.566,557.275 917.14,557.332C917.717,557.734 918.293,558.138 918.866,558.538C921.357,559.403 923.49,560.619 925.767,561.554C929.142,562.934 931.663,565.01 935.082,566.121C936.35,566.53 939.804,566.255 940.775,566.893C942.745,568.192 944.12,570.204 945.866,571.718C947.325,572.987 948.849,574.129 950.351,575.336C950.982,575.681 951.615,576.024 952.246,576.369C954.19,578.119 955.712,580.117 957.853,581.71C961.371,584.318 964.174,587.213 968.203,589.464C969.216,590.027 971.421,592.055 972.69,591.531C972.861,590.947 973.179,590.625 973.898,590.582C973.898,590.64 973.898,590.696 973.898,590.754C973.953,591.041 974.011,591.33 974.069,591.616C974.613,591.324 975.393,590.79 975.967,590.842C976.053,591.012 976.142,591.185 976.228,591.36C977.928,591.049 979.134,590.335 980.281,589.464C982.38,587.871 983.213,582.656 987.183,586.966C987.242,593.161 985.448,597.531 982.092,600.318C980.242,601.853 978.065,602.657 976.83,604.797C977.186,605.374 978.082,606.024 977.605,607.122C977.117,608.236 974.029,611.342 972.95,611.946C969.028,611.12 966.072,607.04 965.528,603.332C964.091,602.385 962.654,601.437 961.217,600.49C958.887,599.456 956.559,598.422 954.23,597.387C953.022,596.728 951.815,596.067 950.606,595.407C944.59,593.21 938.344,591.959 932.667,589.291C927.721,586.592 922.772,583.895 917.829,581.194C916.162,580.173 914.342,578.774 912.309,578.179C912.328,583.439 912.857,589.947 911.792,594.372C911.471,595.702 912.731,596.64 912.395,598.421C911.784,601.661 911.385,605.113 910.927,608.242C910.529,610.976 911.865,613.226 911.273,616.254C910.57,619.864 910.619,623.966 909.892,627.625C909.834,629.06 909.778,630.496 909.72,631.93C908.438,638.508 909.098,646.57 907.909,652.949C907.823,652.979 907.736,653.009 907.649,653.037C907.305,653.065 906.96,653.093 906.614,653.123C906.596,654.068 906.227,654.088 906.01,654.759C906.442,655.363 906.871,655.965 907.306,656.568C907.278,656.741 907.249,656.914 907.22,657.085C907.191,657.085 907.16,657.085 907.133,657.085C907.045,657.056 906.96,657.028 906.871,657.001C906.578,656.067 905.492,654.548 904.458,654.329C904.458,654.444 904.458,654.559 904.458,654.673C904.916,655.377 904.816,656.199 905.149,656.741C905.312,657.01 905.74,656.877 905.924,657.085C905.951,657.314 905.983,657.545 906.009,657.774C906.983,659.165 907.864,661.121 909.116,662.254C910.609,662.857 912.106,663.459 913.602,664.063C914.212,664.575 914.658,666.028 914.205,666.82C910.327,668.122 899.886,666.135 897.728,664.063C896.471,664.245 894.256,664.634 893.07,664.148C890.37,662.817 892.589,654.498 893.935,653.208C892.484,646.338 892.693,636.481 894.021,629.52C893.903,625.73 893.789,621.941 893.674,618.151C893.5,617.283 893.058,615.832 893.33,614.532C893.854,612.043 896.099,611.184 896.78,609.017C896.78,608.415 896.78,607.813 896.78,607.211C896.78,603.511 894.912,603.6 894.365,600.922C894.424,598.968 894.478,597.016 894.535,595.064C894.393,594.661 894.25,594.259 894.104,593.858C893.131,593.372 892.048,593.613 890.743,593.168C889.478,592.739 885.919,589.445 885.564,588.001C885.08,586.016 885.219,583.527 885.219,581.108C885.191,580.218 885.161,579.329 885.133,578.437C884.574,577.245 883.058,576.301 882.2,575.337C881.54,574.043 880.88,572.752 880.218,571.462C879.551,569.164 881.053,566.043 881.427,564.226C881.427,562.617 881.427,561.009 881.427,559.401C882.102,556.298 884.15,553.494 885.652,550.959C886.126,550.164 887.049,549.364 887.292,548.375C887.775,546.388 885.087,543.941 886.169,541.312C886.827,539.711 888.832,539.249 889.619,537.868C890.34,535.054 891.057,532.238 891.777,529.425C891.777,528.505 891.777,527.588 891.777,526.667C891.988,525.619 893.058,521.985 891.949,520.896C890.743,521.355 889.535,521.817 888.327,522.274C884.433,523.804 880.694,524.547 877.2,526.409C875.847,527.386 874.496,528.361 873.144,529.338C871.824,530.027 870.501,530.719 869.176,531.406C868.53,532.004 868.166,533.017 867.537,533.645C866.421,534.76 863.232,538.458 862.794,539.934C862.034,542.473 864.281,542.82 864.864,544.585C864.864,545.676 864.864,546.768 864.864,547.857C865.707,551.122 866.152,553.962 863.051,555.61C862.382,555.452 861.925,555.175 861.069,555.007C860.168,553.692 860.443,552.467 858.823,552.251C857.574,550.555 854.357,543.618 855.03,540.277C855.146,539.705 855.682,538.978 855.72,538.553C855.772,537.969 854.962,537.724 855.199,536.83C856.804,530.892 860.552,525.881 864.084,521.756C865.658,519.92 866.906,517.795 868.742,516.242C869.319,515.954 869.892,515.669 870.471,515.381C872.356,513.713 873.583,511.488 876.248,510.558C877.527,510.109 879.244,511.009 880.388,510.642C880.676,510.385 880.965,510.126 881.252,509.868C882.512,509.211 885.114,508.522 886.858,509.094C887.347,508.606 887.837,508.117 888.325,507.628C888.929,507.456 889.533,507.284 890.136,507.112C892.09,505.511 893.439,502.939 896.432,502.375C897.122,502.489 897.815,502.604 898.501,502.719C900.831,502.845 901.935,502.907 903.418,503.753C903.447,503.753 903.477,503.753 903.505,503.753C903.578,502.792 903.948,502.22 904.627,501.857C904.829,501.916 905.03,501.971 905.23,502.031C905.23,502.002 905.23,501.971 905.23,501.943C902.606,496.838 902.87,489.643 907.473,486.608C908.846,485.706 910.499,485.832 912.305,485.317C913.584,484.954 916.398,483.998 917.996,485.06C919.056,485.763 918.533,486.782 919.205,487.902C920.127,489.437 921.915,490.691 922.569,492.553C922.714,493.874 922.857,495.196 923,496.517C923.241,497.251 924.004,497.742 924.207,498.755C924.729,501.353 922.572,506.775 923.519,508.488C925.156,508.921 926.994,509.141 927.485,510.641C927.728,511.384 927.536,511.791 927.831,512.279C928.235,512.077 928.635,511.877 929.039,511.677C929.935,511.499 930.395,512.24 931.455,511.848C932.106,511.606 932.624,511.001 933.524,510.815C935.135,510.815 936.743,510.815 938.354,510.815C939.563,510.384 940.77,509.954 941.978,509.523C942.957,509.349 943.931,509.179 944.91,509.005C946.64,508.359 948.696,506.747 950.259,505.733C951.611,505.099 952.961,504.469 954.314,503.838C955.5,502.824 957.726,499.541 959.055,499.099C960.553,499.212 962.05,499.328 963.54,499.443C965.719,497.431 965.473,495.866 966.647,492.897C966.951,492.132 967.779,491.375 968.026,490.484C968.056,489.452 968.084,488.418 968.114,487.383C968.198,487.356 968.288,487.326 968.371,487.297C968.603,487.297 968.835,487.297 969.063,487.297C970.492,489.243 969.607,490.568 970.009,493.068C971.173,493.491 972.712,492.369 973.547,491.948C976.353,490.535 977.93,488.528 981.225,487.383C981.566,487.529 981.997,487.654 982.172,487.986C980.873,490.305 977.638,490.65 976.308,492.983C976.336,493.069 976.365,493.156 976.395,493.243C976.567,493.271 976.741,493.301 976.912,493.33C978.878,492.31 981.859,488.491 984.762,489.022C984.82,489.222 984.877,489.423 984.936,489.624C983.581,491.065 981.757,492.395 980.103,493.5C979.156,494.133 978.094,494.222 977.516,495.224C977.546,495.309 977.572,495.396 977.602,495.482C977.745,495.512 977.891,495.54 978.034,495.568C978.661,494.986 984.167,492.172 984.503,492.38C984.845,492.536 984.929,492.674 985.107,492.984C984.324,494.332 982.012,495.732 980.624,496.431C979.495,496.997 978.323,497.039 977.517,497.893C977.547,498.125 977.573,498.355 977.603,498.584C977.691,498.612 977.778,498.641 977.864,498.667C979.921,499.488 981.885,497.813 983.901,498.153C983.959,498.267 984.015,498.382 984.073,498.497C983.029,500.262 981.262,499.648 978.897,500.22C976.381,500.826 974.175,502.133 971.825,502.89C970.567,503.296 969.024,503.136 968.028,503.839C967.252,504.387 964.713,508.112 964.407,508.23C964.379,508.117 964.348,508.001 964.32,507.887C963.761,508.165 963.448,508.391 963.458,509.265C963.03,509.23 963.023,509.164 962.769,509.35C962.131,509.829 962.554,510.522 961.733,510.99C960.188,510.39 955.279,515.346 953.885,516.157C951.043,517.81 948.513,519.906 945.431,521.413C943.82,522.014 942.21,522.617 940.601,523.221C940.082,523.221 939.566,523.221 939.046,523.221C937.437,523.854 935.825,524.483 934.215,525.117C932.134,525.788 929.377,525.721 927.316,526.236C926.832,528.013 925.529,530.243 924.643,531.836C924.469,532.468 924.297,533.099 924.125,533.729C922.433,536.243 920.976,539.343 918.947,541.57C918.18,542.415 916.523,542.674 915.845,543.551C914.827,544.866 913.926,548.191 914.721,549.667C914.168,550.807 914.644,551.823 914.204,553.198C913.975,553.487 913.743,553.772 913.513,554.06C913.517,554.805 913.517,555.553 913.517,556.299ZM785.165,510.299C785.238,511.563 786.721,513.748 787.666,514.262C788.475,514.063 788.739,513.544 789.65,513.314C789.592,513.143 789.536,512.97 789.479,512.799C788.031,512.145 786.793,510.878 785.165,510.299ZM809.663,527.184C809.547,527.327 809.434,527.47 809.319,527.615C810.328,529.649 811.925,531.402 813.199,533.214C814.429,534.961 814.982,537.247 816.823,538.382C816.848,538.382 816.881,538.382 816.906,538.382C816.975,537.183 816.586,536.444 816.218,535.454C816.104,534.593 815.988,533.728 815.873,532.87C815.102,530.034 812.52,527.848 809.663,527.184ZM858.744,547.513C858.531,548.276 858.822,549.399 859.003,550.098C859.089,550.126 859.177,550.155 859.261,550.185C859.261,550.012 859.261,549.84 859.261,549.666C859.089,548.949 858.917,548.229 858.744,547.513ZM861.246,548.462C861.001,549.356 861.707,553.202 862.023,554.232C862.05,554.232 862.079,554.232 862.107,554.232C862.136,554.203 862.165,554.175 862.193,554.146C862.233,552.746 861.866,549.094 861.246,548.462ZM903.686,653.037C903.857,653.417 903.957,653.493 904.46,653.552C904.576,653.437 904.689,653.323 904.806,653.207C904.748,653.207 904.69,653.207 904.633,653.207C904.397,653.051 904.126,653.03 903.686,653.037ZM905.841,653.294C905.582,653.437 905.324,653.582 905.064,653.727C905.122,653.753 905.179,653.785 905.236,653.813C905.325,653.898 905.409,653.984 905.496,654.072C905.726,653.984 905.955,653.898 906.188,653.813C906.188,653.698 906.188,653.583 906.188,653.467C906.069,653.409 905.954,653.353 905.841,653.294Z"/>
    </g>
</svg>
