<?xml version="1.0" encoding="UTF-8" standalone="no"?>
<!DOCTYPE svg PUBLIC "-//W3C//DTD SVG 1.1//EN" "http://www.w3.org/Graphics/SVG/1.1/DTD/svg11.dtd">
<svg width="100%" height="100%" viewBox="0 0 58 18" version="1.1" xmlns="http://www.w3.org/2000/svg" xmlns:xlink="http://www.w3.org/1999/xlink" xml:space="preserve" xmlns:serif="http://www.serif.com/" style="fill-rule:evenodd;clip-rule:evenodd;stroke-linejoin:round;stroke-miterlimit:1.41421;">
    <g transform="matrix(1,0,0,1,-85.4672,-102.177)">
        <path d="M114.09,110.067C115.036,108.396 116.055,106.748 116.913,105.033C117.321,104.216 117.701,103.513 118.428,102.94C118.729,102.707 119.022,102.458 119.345,102.261C119.148,102.064 118.68,102.263 118.463,102.363C117.811,102.664 117.092,102.817 116.456,103.159C115.793,103.515 115.288,104.094 114.766,104.622C113.72,105.669 112.598,106.634 111.441,107.553C110.867,108.012 110.28,108.46 109.692,108.904C109.246,109.241 108.706,109.864 108.129,109.93C107.315,110.022 106.366,109.821 105.543,109.757C102.516,109.524 99.479,109.314 96.445,109.149C95.249,109.084 94.049,109.115 92.852,109.194C91.733,109.269 90.606,109.369 89.528,109.683C88.527,109.976 87.667,110.551 86.814,111.132C86.225,111.535 85.039,112.332 85.626,113.186C86.272,114.124 88.086,114.092 89.076,114.221C90.604,114.415 92.106,114.678 93.643,114.791C95.254,114.913 96.868,114.959 98.483,114.996C100.153,115.035 101.756,115.24 103.401,115.519C103.655,115.561 104.36,115.811 104.594,115.721C104.391,115.799 104.119,115.797 103.98,115.96C103.581,116.421 103.738,117.341 103.768,117.9C103.807,118.736 104.163,119.497 105.048,119.669C105.722,119.799 106.405,119.697 107.081,119.64C107.727,119.585 108.371,119.713 109.009,119.659C109.569,119.609 109.706,119.445 109.831,118.915L110.577,118.778L110.613,118.437C111.077,118.382 111.541,118.325 112.004,118.268C111.629,117.96 111.272,117.827 110.817,117.658L113.092,117.792L113.163,117.52C113.352,117.433 113.569,117.365 113.748,117.254C113.965,117.122 114.131,116.853 114.377,116.778C114.809,116.646 115.373,116.907 115.803,116.979C117.469,117.256 119.335,117.583 121.092,117.789C124.464,118.184 127.845,118.141 131.227,117.919C131.956,117.871 132.787,117.897 133.342,117.338C132.819,116.854 132.061,117.203 131.453,117.279C129.795,117.484 128.121,117.496 126.452,117.461C124.986,117.431 123.504,117.486 122.045,117.306C120.564,117.123 119.13,116.683 117.714,116.229C118.274,116.408 119.04,116.258 119.618,116.267C120.797,116.28 121.973,116.323 123.153,116.314C126.527,116.295 130.024,115.934 133.301,115.114C134.04,114.93 134.792,114.7 135.563,114.75C137.194,114.858 138.778,115.284 140.391,115.523C140.899,115.6 142.29,115.976 142.751,115.576C141.961,115.259 141.045,115.356 140.23,115.096C139.661,114.913 139.088,114.737 138.518,114.557C138.17,114.447 137.845,114.246 137.473,114.226C138.174,114.263 138.973,113.594 137.954,113.3C137.766,113.246 135.883,112.968 135.899,112.795L136.135,110.044L139.399,104.641C139.399,104.641 137.65,104.641 137.63,104.641C136.716,104.641 136.049,105.476 135.409,106.014C134.708,106.601 133.999,107.174 133.293,107.756C132.241,108.628 131.194,109.509 130.145,110.381C128.43,111.802 125.982,111.147 123.968,110.927C121.8,110.691 119.618,110.587 117.444,110.418L114.09,110.067Z" style="fill-rule:nonzero;"/>
    </g>
</svg>
