<?xml version="1.0" encoding="UTF-8" standalone="no"?>
<!DOCTYPE svg PUBLIC "-//W3C//DTD SVG 1.1//EN" "http://www.w3.org/Graphics/SVG/1.1/DTD/svg11.dtd">
<svg width="100%" height="100%" viewBox="0 0 58 16" version="1.1" xmlns="http://www.w3.org/2000/svg" xmlns:xlink="http://www.w3.org/1999/xlink" xml:space="preserve" xmlns:serif="http://www.serif.com/" style="fill-rule:evenodd;clip-rule:evenodd;stroke-linejoin:round;stroke-miterlimit:1.41421;">
    <g transform="matrix(1,0,0,1,-85.467,-146.524)">
        <path d="M88.868,156.967C88.175,156.852 87.492,156.687 86.856,156.398C86.374,156.177 85.546,155.757 85.473,155.157C85.374,154.315 86.525,154.11 87.1,153.907C87.376,153.811 87.498,153.587 87.688,153.386C88.557,152.46 89.874,152.103 91.094,151.978C91.43,151.944 91.764,151.93 92.1,151.928C92.2,151.926 92.525,151.982 92.601,151.928C92.725,151.842 92.81,151.17 93.096,151.313C93.219,151.374 93.01,151.717 92.977,151.816L92.948,151.913C92.963,151.863 94.028,151.923 94.116,151.923C96.407,151.929 98.692,152.141 100.981,152.244C103.085,152.34 105.188,152.419 107.292,152.507C109.561,152.595 111.829,152.696 114.098,152.79C115.434,152.846 116.772,152.9 118.108,152.955C118.493,152.971 118.876,152.987 119.261,153.003C119.272,153.003 119.281,153.003 119.292,153.004C119.512,153.015 119.858,152.819 120.065,152.749C121.305,152.345 122.543,151.926 123.752,151.448L125.231,151.415C125.315,151.413 125.479,151.249 125.545,151.205C125.705,151.096 125.866,150.991 126.034,150.9C126.149,150.838 126.812,150.518 126.843,150.814C126.867,151.04 126.338,151.08 126.338,151.255C126.338,151.501 126.401,151.779 126.325,152.02C126.301,152.09 125.716,151.746 125.665,151.72C125.665,151.72 125.52,151.688 125.52,151.767C125.52,151.849 125.487,151.913 125.423,151.946C125.36,151.977 123.301,152.982 123.29,152.988C123.368,152.95 123.646,153.132 123.737,153.16C124.055,153.253 124.39,153.291 124.719,153.317C125.395,153.371 126.073,153.339 126.75,153.352C127.543,153.37 128.332,153.407 129.126,153.442C129.848,153.476 130.596,153.561 131.32,153.519C131.845,153.486 132.358,153.327 132.792,153.027C133.278,152.691 133.574,152.211 133.948,151.767C133.948,151.767 138.157,146.892 138.186,146.858C138.555,146.427 139.135,146.523 139.637,146.557C140.032,146.583 140.424,146.606 140.819,146.631L139.006,154.289L141.813,153.647L143.418,153.68C143.418,153.68 141.026,154.835 140.996,154.851C141.143,154.779 141.503,154.892 141.643,154.96C141.813,155.044 141.926,155.21 141.902,155.407C141.874,155.626 141.672,155.704 141.477,155.749C140.99,155.886 140.505,156.021 140.02,156.156C139.239,156.372 138.458,156.586 137.68,156.811C136.111,157.268 134.487,157.498 132.883,157.801C131.313,158.097 129.751,158.457 128.153,158.568C126.352,158.69 124.539,158.6 122.739,158.522C121.415,158.465 120.082,158.482 118.76,158.38C118.422,158.354 118.104,158.29 117.77,158.375C117.525,158.437 117.29,158.52 117.036,158.535C116.542,158.566 116.042,158.549 115.551,158.575L115.551,158.863C115.551,158.856 115.934,158.957 115.958,158.967C116.113,159.031 116.227,159.123 116.305,159.27C116.488,159.608 116.407,160.144 116.06,160.349C115.887,160.451 115.67,160.489 115.489,160.58C115.105,160.77 114.774,160.737 114.477,160.419C114.26,160.186 114.243,159.841 114.292,159.543C114.35,159.185 114.637,159.127 114.878,158.922C114.862,158.879 114.873,158.829 114.861,158.783C114.915,158.778 114.965,158.772 115.021,158.767C114.993,158.715 114.965,158.661 114.941,158.608C114.774,158.608 114.605,158.598 114.438,158.61C114.52,158.672 114.6,158.751 114.649,158.84C114.443,158.975 114.143,158.896 113.926,158.841C113.742,158.793 113.484,158.615 113.303,158.608L112.581,158.575C112.581,158.575 112.708,159.846 112.708,159.875C112.717,159.96 113.213,160.098 113.295,160.148C113.608,160.339 113.77,160.733 113.637,161.083C113.411,161.676 112.432,161.889 111.961,161.494C111.762,161.326 111.647,161.055 111.654,160.797C111.663,160.475 111.924,160.322 112.147,160.133C112.159,160.123 112.126,159.988 112.135,159.96C112.159,159.903 112.194,159.903 112.228,159.86C112.327,159.749 112.344,159.799 112.247,159.648C112.141,159.488 112.03,159.33 111.923,159.169C111.923,159.169 111.249,159.071 111.249,159.025C111.249,158.976 111.249,158.56 111.249,158.56L111.088,158.56C111.088,158.56 110.784,158.719 110.782,158.72C110.678,158.774 110.253,158.627 110.141,158.608C110.131,158.629 109.972,158.928 110.09,158.928L110.335,158.928L110.335,159.138C110.335,159.138 110.102,159.138 110.09,159.138C110.09,159.138 110.079,159.239 110.077,159.249C110.141,159.276 110.204,159.304 110.268,159.331C110.261,159.579 109.51,159.596 109.355,159.611C109.081,159.637 108.782,159.56 108.51,159.634C108.19,159.725 108.04,160.068 107.741,160.196C107.286,160.388 106.651,160.243 106.165,160.271C105.591,160.304 105.008,160.346 104.442,160.226C103.426,160.012 103.606,158.694 103.606,157.934C103.063,157.895 102.516,157.853 101.973,157.817C101.107,157.755 100.239,157.698 99.371,157.627C97.444,157.473 95.485,157.54 93.551,157.508C93.36,157.504 93.17,157.501 92.981,157.5C92.946,157.501 92.877,158.082 92.848,158.152C92.674,158.573 92.258,158.865 92.629,159.304C92.857,159.572 92.701,159.928 92.409,160.06C92.12,160.191 91.663,160.068 91.545,159.752C91.486,159.588 91.57,159.448 91.682,159.331C91.724,159.288 92.112,159.064 92.114,159.041C92.114,158.89 92.136,158.739 92.124,158.588C92.116,158.509 92.129,158.461 92.065,158.412C92.047,158.399 91.836,158.369 91.825,158.383C91.825,158.383 91.913,158.279 91.919,158.271C91.993,158.185 92.049,158.075 92.114,157.982C92.163,157.903 91.579,157.307 91.477,157.279C91.299,157.232 91.086,157.243 90.902,157.22C90.235,157.141 89.547,157.078 88.868,156.967Z" style="fill-rule:nonzero;"/>
    </g>
</svg>
