<?xml version="1.0" encoding="UTF-8" standalone="no"?>
<!DOCTYPE svg PUBLIC "-//W3C//DTD SVG 1.1//EN" "http://www.w3.org/Graphics/SVG/1.1/DTD/svg11.dtd">
<svg width="100%" height="100%" viewBox="0 0 50 30" version="1.1" xmlns="http://www.w3.org/2000/svg" xmlns:xlink="http://www.w3.org/1999/xlink" xml:space="preserve" xmlns:serif="http://www.serif.com/" style="fill-rule:evenodd;clip-rule:evenodd;stroke-linejoin:round;stroke-miterlimit:1.41421;">
    <g transform="matrix(1,0,0,1,-341.203,-132.483)">
        <path d="M355.034,149.515C354.755,149.519 354.466,149.572 354.151,149.697C353.543,149.936 352.904,150.111 352.283,150.322C350.883,150.8 349.475,151.26 348.072,151.725C347.747,151.833 347.424,151.941 347.1,152.048L346.316,151.999L354.053,148.474L353.17,147.592C353.17,147.592 354.446,147.2 354.249,147.2C354.053,147.2 348.826,140.653 348.814,140.639C348.864,140.697 349.464,140.504 349.546,140.488C349.907,140.412 350.193,140.369 350.503,140.639L356.453,145.83C356.453,145.83 358.24,143.263 358.29,143.185C358.584,142.744 359.093,142.843 359.561,142.843L358.46,146L373.002,144.825C374.36,142.96 375.745,141.108 377.001,139.174C377.478,138.438 377.934,137.686 378.365,136.922C378.752,136.232 379.232,135.654 379.548,134.914C379.841,134.228 380.012,133.411 380.422,132.783C380.614,132.491 380.905,132.373 381.205,132.606C381.543,132.871 381.385,133.263 381.243,133.593C381.158,133.789 381.053,133.978 380.995,134.184C380.912,134.496 380.883,134.815 380.788,135.131C380.68,135.494 380.565,135.854 380.45,136.215C380.205,136.995 379.969,137.778 379.727,138.559C379.673,138.73 379.624,138.903 379.566,139.072L378.17,143.282C379.225,143.134 380.279,143.017 381.335,142.882C382.143,142.778 382.665,143.123 383.141,143.748C383.141,143.748 383.281,144.027 383.287,144.042C383.345,144.157 384.566,144.109 384.714,144.119C385.447,144.16 386.165,144.206 386.875,144.419C387.776,144.688 388.599,145.147 389.315,145.752C389.858,146.21 390.765,146.91 390.452,147.732C390.214,148.364 389.505,148.705 388.948,149.001C386.489,150.31 383.583,150.216 380.873,150.303C379.897,150.332 378.918,150.375 377.943,150.41C376.983,150.446 376.044,150.271 375.107,150.576C374.368,150.816 373.663,151.186 372.888,151.315C371.833,151.49 370.756,151.36 369.727,151.717C369.307,151.863 368.904,152.045 368.503,152.23C368.215,152.36 367.793,152.681 367.471,152.661C367.635,152.683 367.847,152.69 367.999,152.759C368.186,152.846 368.185,152.933 368.296,153.122C369.111,152.959 370.052,152.759 370.797,153.257C371.449,153.695 371.763,154.565 371.436,155.296C370.636,157.086 368.857,156.492 367.315,156.388C366.929,156.362 366.42,156.447 366.121,156.127C365.853,155.845 365.957,155.406 365.739,155.098C365.514,154.778 365.087,154.698 364.777,154.494C364.579,154.361 364.282,153.984 364.028,153.956C363.868,153.939 363.942,153.986 363.826,154.039C363.598,154.143 363.344,154.182 363.108,154.284C362.385,154.596 361.629,154.884 360.879,155.129C359.82,155.476 358.774,155.861 357.732,156.256C356.76,156.626 355.698,156.925 354.763,157.386L343.769,161.327L343.548,161.696C343.049,161.654 342.543,161.633 342.049,161.574C341.9,161.556 341.361,161.605 341.262,161.508C340.974,161.23 341.834,161.103 341.981,161.083C341.981,161.083 343.548,160.936 343.624,160.911C344.661,160.566 345.673,160.108 346.69,159.709C348.127,159.146 349.561,158.571 350.999,158.017C352.966,157.259 354.886,156.363 356.819,155.521C358.427,154.821 360.035,154.119 361.642,153.413C362.724,152.938 363.807,152.465 364.886,151.978C365.277,151.802 365.765,151.433 366.188,151.363C365.686,151.215 365.312,150.859 364.778,150.792C363.855,150.675 362.913,150.82 361.988,150.847C360.95,150.876 359.907,150.822 358.893,150.585C358.138,150.405 357.407,150.145 356.673,149.89C356.081,149.683 355.575,149.507 355.034,149.515Z" style="fill-rule:nonzero;"/>
    </g>
</svg>
