<?xml version="1.0" encoding="UTF-8" standalone="no"?>
<!DOCTYPE svg PUBLIC "-//W3C//DTD SVG 1.1//EN" "http://www.w3.org/Graphics/SVG/1.1/DTD/svg11.dtd">
<svg width="100%" height="100%" viewBox="0 0 67 18" version="1.1" xmlns="http://www.w3.org/2000/svg" xmlns:xlink="http://www.w3.org/1999/xlink" xml:space="preserve" xmlns:serif="http://www.serif.com/" style="fill-rule:evenodd;clip-rule:evenodd;stroke-linejoin:round;stroke-miterlimit:1.41421;">
    <g transform="matrix(1,0,0,1,-165.812,-338.202)">
        <path d="M197.362,354.441C197.997,354.882 198.795,355.085 199.553,354.897C200.422,354.678 200.868,353.954 201.551,353.452C201.852,353.231 202.199,353.124 202.536,352.975C202.787,352.864 203.159,352.648 203.327,352.994C203.368,353.082 203.455,353.683 203.314,353.707C203.445,353.685 204.905,353.401 204.898,353.353C204.961,353.698 205.017,354.044 205.085,354.39C205.113,354.543 205.154,354.813 204.905,354.766C204.878,354.443 204.839,353.838 204.391,353.83C204.084,353.824 203.969,354.123 203.925,354.377C203.857,354.777 203.831,355.852 204.377,355.985C204.842,356.093 204.905,355.288 204.945,355.005C205.167,355.014 205.49,354.998 205.631,355.204C205.753,355.377 205.686,355.625 205.792,355.808C206.119,356.374 206.618,355.703 206.619,355.306C206.623,354.926 206.648,354.271 206.463,353.93C206.139,353.334 205.811,353.884 205.687,354.258C205.649,354.373 205.576,354.709 205.422,354.561C205.195,354.338 205.493,353.399 205.715,353.233C206.019,353.011 206.416,353.097 206.755,352.998C207.127,352.893 207.22,352.616 207.269,352.259C207.254,352.38 207.428,352.648 207.466,352.78C207.528,352.986 207.568,353.486 207.834,353.54C208.198,353.618 208.068,352.364 208.07,352.179C208.069,352.263 208.647,352.453 208.726,352.484C209.035,352.606 209.362,352.712 209.695,352.683C210.027,352.656 210.319,352.464 210.615,352.316C210.969,352.133 211.293,352.112 211.675,352.037C211.642,352.042 211.783,353.208 211.974,353.286C212.377,353.456 212.284,352.608 212.27,352.442C212.207,351.671 213.073,351.832 213.611,351.77C213.876,351.738 216.618,351.155 216.639,351.241C216.737,351.631 216.74,352.066 216.867,352.442C217.108,353.158 217.258,352.161 217.288,351.94C217.327,351.668 217.298,351.374 217.364,351.108C217.383,351.022 218.966,350.945 219.118,350.919C219.13,350.781 219.155,350.646 219.179,350.509C219.235,350.501 219.732,350.425 219.732,350.409C219.732,350.089 219.692,349.877 219.569,349.585C219.671,349.823 221.2,349.456 221.409,349.426C222.399,349.288 223.401,349.209 224.399,349.118C224.943,349.069 225.489,349.021 226.031,348.966C226.671,348.901 227.312,348.836 227.952,348.769C229.019,348.66 230.09,348.565 231.158,348.437C231.301,348.418 232.127,348.454 232.002,348.124C231.954,347.996 231.648,347.853 231.528,347.798C230.504,347.34 229.156,347.807 228.111,347.95C227.021,348.101 225.923,348.149 224.827,348.202C222.955,348.288 221.081,348.366 219.207,348.41C217.306,348.454 215.406,348.496 213.506,348.563C212.96,348.578 212.419,348.605 211.877,348.647C211.62,348.665 211.467,348.656 211.293,348.477C210.804,347.977 210.11,347.708 209.415,347.721C209.055,347.727 208.741,347.83 208.462,348.067C208.377,348.143 207.925,348.788 207.845,348.779C207.025,348.714 206.204,348.632 205.385,348.557C204.927,348.514 204.47,348.538 204.011,348.492C203.771,348.468 203.458,348.443 203.347,348.193C203.182,347.822 203.425,347.415 203.534,347.066C203.926,345.803 204.095,344.182 203.58,342.928C203.15,341.887 202.382,340.889 201.257,340.566C200.679,340.4 200.077,340.553 199.526,340.741C199.104,340.881 198.428,341.013 198.176,341.42C197.938,341.047 198.081,340.457 198.055,340.033C198.04,339.783 198.096,338.212 197.763,338.202C197.434,338.193 197.618,338.8 197.651,338.959C197.764,339.499 197.784,340.062 197.8,340.61C197.81,341.024 198.03,341.745 197.739,342.099C197.372,342.553 197.026,342.878 196.811,343.443C196.5,344.258 196.364,345.144 196.268,346.005C196.193,346.712 196.241,347.76 195.784,348.357C195.522,348.7 195.047,348.607 194.671,348.607C193.907,348.611 193.173,348.872 192.413,348.875C191.69,348.878 191.21,348.183 190.51,348.145C189.668,348.099 189.093,348.498 188.635,349.174C188.6,349.227 187.881,349.149 187.773,349.147C185.443,349.1 183.114,349.052 180.786,349.004C178.542,348.954 176.297,348.905 174.055,348.861C173.409,348.851 172.76,348.838 172.116,348.828C171.183,348.811 170.257,348.742 169.323,348.746C168.532,348.749 167.674,348.58 166.889,348.683C166.563,348.725 165.387,349.107 165.974,349.563C165.659,349.094 166.518,349.237 166.748,349.249C168.6,349.348 170.448,349.533 172.297,349.68C173.319,349.766 174.34,349.837 175.366,349.873C176.587,349.919 177.821,349.93 179.027,350.146C178.854,350.117 178.65,350.663 178.62,350.779C178.512,351.197 178.981,351.075 179.245,351.098C179.267,351.211 179.26,351.491 179.351,351.564C179.485,351.675 179.811,351.644 179.973,351.646C180.299,351.652 180.626,351.635 180.95,351.631C181.37,351.623 181.321,351.965 181.312,352.309C181.307,352.495 181.186,353.081 181.361,353.227C181.545,353.382 181.671,353.092 181.71,352.952C181.795,352.635 181.752,351.801 182.197,351.765C182.679,351.728 183.269,351.915 183.754,351.967C184.333,352.028 184.907,352.104 185.481,352.177C185.765,352.215 186.346,352.143 186.479,352.471C186.586,352.747 186.512,353.11 186.533,353.401C186.549,353.574 186.608,354.004 186.812,353.685C186.908,353.534 186.936,353.271 186.986,353.099C187.018,352.984 187.002,352.668 187.072,352.584C187.373,352.236 187.949,352.744 188.329,352.398C188.704,352.055 188.907,352.28 189.145,352.623C189.432,353.032 190.032,353.378 190.512,353.008C190.625,352.922 190.655,352.765 190.77,352.902C190.973,353.134 190.651,353.622 190.93,353.802C191.167,353.596 191.237,353.292 191.254,352.994C191.266,352.826 191.393,352.331 191.545,352.687C191.63,352.889 191.575,353.139 191.761,353.282C192.143,353.572 192.641,353.309 193.057,353.334C193.496,353.362 193.754,353.718 193.792,354.136C193.804,354.266 193.84,354.788 193.623,354.625C193.44,354.492 193.502,354.189 193.335,354.041C193.014,353.758 192.739,354.304 192.674,354.519C192.6,354.762 192.555,355.016 192.569,355.275C192.585,355.695 192.764,356.23 193.289,356.117C193.632,356.045 193.682,355.529 193.771,355.253C193.778,355.231 194.211,355.268 194.264,355.268C194.131,355.369 194.444,355.974 194.549,356.049C195.266,356.564 195.311,355.291 195.299,354.93C195.29,354.664 195.333,354.291 195.091,354.109C194.843,353.922 194.549,354.069 194.458,354.335C194.355,354.634 194.416,354.842 194.015,354.791C194.072,354.8 194.175,354.12 194.191,354.027C194.221,353.83 194.249,353.76 194.451,353.718C194.811,353.645 195.156,353.773 195.512,353.749C195.555,353.596 195.56,353.404 195.558,353.244C195.499,353.256 195.42,353.236 195.364,353.24C195.372,353.134 195.379,353.03 195.393,352.927C195.502,352.906 195.614,352.902 195.718,352.876C195.706,352.822 195.714,352.763 195.74,352.721C195.857,352.539 196.69,353.771 196.78,353.888C196.942,354.098 197.139,354.284 197.362,354.441Z" style="fill-rule:nonzero;"/>
    </g>
</svg>
