<?xml version="1.0" encoding="UTF-8" standalone="no"?>
<!DOCTYPE svg PUBLIC "-//W3C//DTD SVG 1.1//EN" "http://www.w3.org/Graphics/SVG/1.1/DTD/svg11.dtd">
<svg width="100%" height="100%" viewBox="0 0 55 41" version="1.1" xmlns="http://www.w3.org/2000/svg" xmlns:xlink="http://www.w3.org/1999/xlink" xml:space="preserve" xmlns:serif="http://www.serif.com/" style="fill-rule:evenodd;clip-rule:evenodd;stroke-linejoin:round;stroke-miterlimit:1.41421;">
    <g transform="matrix(1,0,0,1,-85.4662,-409.843)">
        <path d="M137.005,422.88L135.45,428.697L136.329,428.817C136.329,428.817 136.379,429.049 136.38,429.052C136.924,429.109 137.469,429.115 138.011,429.195C138.461,429.262 139.163,429.379 139.469,429.755C139.184,430.139 138.606,430.159 138.174,430.236C138.005,430.268 136.268,430.444 136.252,430.374L136.299,430.584L135.545,430.648L137.049,436.752L134.918,436.717C134.398,436.093 133.876,435.467 133.349,434.846C132.586,433.945 131.776,433.067 131.053,432.134C130.95,432.002 130.9,431.866 130.741,431.782C130.155,431.477 129.373,431.723 128.764,431.811C127.161,432.05 125.569,432.187 123.958,432.267C122.287,432.351 120.62,432.433 118.948,432.486C118.713,432.492 118.475,432.498 118.239,432.506L118.649,435.759L118.389,435.887L118.649,437.345L119.065,437.404L122.231,443.64L121.965,443.791L124.653,449.111L125.252,449.12L125.219,449.536L123.815,449.538L123.94,449.852C123.577,449.846 123.434,449.718 123.131,449.529C122.854,449.35 122.7,449.333 122.385,449.321C121.835,449.298 121.314,448.485 120.985,448.112C120.504,447.57 120.042,447.013 119.56,446.473C117.855,444.573 116.157,442.662 114.44,440.768C113.733,439.989 113.036,439.202 112.33,438.415C112.012,438.061 111.694,437.706 111.374,437.351C111.372,437.347 111.355,437.322 111.351,437.324L110.362,437.41L110.151,437.691C109.713,437.696 109.276,437.706 108.841,437.71C108.172,437.718 107.439,437.849 106.778,437.742C106.376,437.676 106.431,437.179 106.403,436.882C106.368,436.5 106.202,435.933 106.526,435.627C106.823,435.343 107.51,435.507 107.886,435.518C108.479,435.539 109.076,435.582 109.667,435.577C109.563,435.577 109.238,435.14 109.149,435.058C108.941,434.841 108.731,434.629 108.521,434.417C108.122,434.012 107.723,433.609 107.325,433.202C107.237,433.113 107.151,433.023 107.062,432.937L107.948,432.873C107.795,432.884 107.678,432.738 107.563,432.668C107.422,432.58 107.266,432.528 107.106,432.483C106.362,432.271 105.561,432.366 104.797,432.389C102.885,432.441 100.975,432.46 99.063,432.456C98.499,432.456 97.936,432.454 97.372,432.448C95.582,432.437 93.782,432.416 91.994,432.313C90.721,432.242 89.501,431.986 88.262,431.707C87.647,431.568 87.034,431.422 86.455,431.163C86.071,430.99 85.403,430.644 85.471,430.124C85.577,429.365 86.585,429.133 87.172,428.919C88.083,428.587 89.029,428.348 89.983,428.169C92.84,427.643 95.778,427.658 98.673,427.651C100.774,427.647 102.877,427.628 104.979,427.66C105.456,427.667 105.932,427.678 106.413,427.691C106.801,427.702 107.227,427.744 107.594,427.578C107.739,427.514 107.921,427.29 108.008,427.164C107.868,427.132 107.065,427.044 106.971,427.136L109.491,424.646C108.669,424.644 107.848,424.635 107.028,424.629C106.53,424.627 106.331,424.558 106.335,424.025C106.338,423.451 106.119,422.724 106.788,422.417C107.307,422.178 107.879,422.326 108.422,422.373C108.962,422.422 109.534,422.322 110.047,422.536C110.168,422.585 110.264,422.695 110.386,422.733C110.489,422.764 111.241,422.813 111.295,422.749C111.616,422.382 111.934,422.012 112.253,421.645C113.032,420.754 113.81,419.858 114.588,418.965C115.66,417.735 116.735,416.508 117.793,415.267C118.924,413.94 120.071,412.629 121.21,411.309C121.415,411.082 121.636,410.853 121.874,410.662C122.069,410.498 122.327,410.498 122.546,410.391C122.776,410.282 122.907,410.053 123.114,409.913C123.352,409.748 123.596,409.916 123.835,409.986C123.92,410.011 125.051,410.137 125.054,410.088C125.043,410.238 125.038,410.387 125.029,410.534C125.022,410.592 124.567,410.752 124.501,410.798C124.174,411.025 124.048,411.406 123.889,411.749C123.191,413.233 122.494,414.71 121.792,416.187L122.105,416.212L118.894,422.685L118.506,422.737L118.383,424.175L118.771,424.203L118.303,427.583C120.054,427.622 121.805,427.658 123.555,427.674C125.454,427.695 127.32,427.836 129.192,428.127C129.605,428.195 130.163,428.365 130.555,428.147C130.791,428.014 131.027,427.667 131.208,427.462C131.358,427.294 131.493,427.114 131.627,426.929C132.387,425.891 133.295,424.938 134.03,423.867C134.249,423.547 134.455,423.167 134.793,422.954C135.21,422.693 135.735,422.817 136.196,422.84C136.463,422.853 136.735,422.865 137.005,422.88Z" style="fill-rule:nonzero;"/>
    </g>
</svg>
