<?xml version="1.0" encoding="UTF-8" standalone="no"?>
<!DOCTYPE svg PUBLIC "-//W3C//DTD SVG 1.1//EN" "http://www.w3.org/Graphics/SVG/1.1/DTD/svg11.dtd">
<svg width="100%" height="100%" viewBox="0 0 89 120" version="1.1" xmlns="http://www.w3.org/2000/svg" xmlns:xlink="http://www.w3.org/1999/xlink" xml:space="preserve" xmlns:serif="http://www.serif.com/" style="fill-rule:evenodd;clip-rule:evenodd;stroke-linejoin:round;stroke-miterlimit:1.41421;">
    <g transform="matrix(1,0,0,1,-189.152,-140.506)">
        <path d="M267.975,217.525C261.115,214.609 253.369,217.392 251.891,217.55C250.414,217.708 243.914,216.734 242.296,216.22C241.302,215.897 240.096,215.438 239.418,215.046C239.589,214.653 239.835,214.239 239.938,213.749C240.094,213.011 239.907,211.061 239.7,210.534C239.448,210.138 239.197,209.74 238.947,209.343C238.144,207.989 237.5,206.652 236.286,205.732C234.871,204.765 233.454,203.799 232.038,202.834C231.188,201.863 230.947,199.851 230.688,198.348C230.754,197.568 230.821,196.786 230.886,196.006C230.913,194.749 230.94,193.491 230.966,192.235L230.966,187.789C230.837,187.076 230.518,186.229 230.728,185.327C230.966,184.692 231.205,184.057 231.443,183.422C231.521,182.204 231.602,180.987 231.681,179.77C231.918,179.492 232.159,179.214 232.396,178.937C232.713,178.435 233.031,177.931 233.348,177.428C233.534,176.806 233.718,176.184 233.903,175.563C234.25,174.928 234.592,174.292 234.935,173.657C235.678,172.48 236.84,171.715 237.953,170.919C238.311,170.653 238.669,170.388 239.025,170.125C239.62,169.284 239.794,168.247 240.216,167.227C240.453,166.804 240.692,166.38 240.931,165.956C240.984,165.612 241.037,165.268 241.09,164.923C240.277,164.078 239.944,164.164 239.979,162.382C242.248,161.7 242.7,160.438 243.948,158.81C244.772,157.734 245.878,156.796 246.21,155.237C246.251,154.219 246.29,153.199 246.33,152.18C246.495,151.149 246.468,150.327 246.646,149.203C246.687,148.646 246.726,148.092 246.767,147.536C246.884,147.008 247.312,146.548 247.441,145.948C247.639,145.024 246.792,143.735 246.33,143.368C245.376,142.611 244.186,141.727 242.956,141.304C241.528,140.812 238.106,140.075 236.724,140.828C235.308,141.598 234.053,143.482 233.467,145.075C233.27,145.909 233.071,146.742 232.872,147.576C232.701,148.211 232.528,148.846 232.355,149.482C232.263,149.534 232.17,149.588 232.079,149.64C231.663,150.092 231.538,151.161 231.761,151.902C231.65,152.611 230.884,152.405 230.887,153.61C229.152,153.857 227.47,153.982 226.044,154.562C222.78,155.893 220.378,158.408 217.747,160.398C216.374,161.438 214.859,162.299 213.46,163.336C211.364,164.889 209.449,166.754 207.347,168.338C205.301,169.879 203.447,171.487 201.829,173.458C201.535,173.816 200.981,173.86 200.6,174.133C199.955,174.592 199.755,175.297 199.447,176.117L199.447,177.468C199.209,177.653 198.971,177.838 198.733,178.024C198.521,178.566 198.309,179.108 198.097,179.651C197.569,180.193 197.038,180.736 196.51,181.278C195.135,183.105 194.307,185.385 193.413,187.669C193.079,188.522 192.54,190.144 192.699,191.361C192.791,192.208 192.884,193.055 192.976,193.902C193.2,194.392 193.425,194.881 193.651,195.371C194.066,196.33 194.404,197.221 194.962,198.031C195.837,199.305 197.098,200.332 198.058,201.524C198.774,202.413 200.136,204.022 201.035,204.661C201.988,205.19 202.942,205.72 203.894,206.249C204.171,206.673 204.449,207.096 204.727,207.52C205.203,208.088 205.68,208.658 206.156,209.226C207.112,210.341 208.569,210.865 209.73,211.767C209.968,212.163 210.205,212.561 210.443,212.958C210.867,213.408 211.291,213.857 211.714,214.308C212.201,214.97 212.45,215.898 213.342,216.134C214.346,216.4 214.665,215.763 215.326,215.577C215.947,215.485 216.57,215.391 217.192,215.3C218.421,214.888 219.438,214.04 220.725,213.554C222.05,214.406 223.434,215.687 225.012,216.173C224.125,216.411 223.238,216.65 222.351,216.888C220.855,217.371 219.274,218.091 217.986,218.872C215.472,220.645 212.958,222.419 210.442,224.191C207.823,225.833 204.837,227.231 201.829,228.399C201.476,228.537 199.391,228.919 198.93,228.757C198.48,228.598 198.341,228.151 197.502,228.28C196.431,228.445 195.593,228.55 194.763,228.916C194.537,229.101 194.313,229.286 194.088,229.472C193.413,229.485 192.738,229.496 192.064,229.51C191.45,229.687 189.601,230.598 189.286,231.059C188.966,231.528 189.302,232.559 189.444,232.965C190.038,234.65 190.738,235.904 191.626,237.212C192.17,238.02 192.712,238.827 193.256,239.633C193.93,241.566 194.606,243.498 195.279,245.429C196.13,247.488 197.297,249.337 198.495,251.027C199.525,252.481 201.108,254.427 203.338,253.331C204.166,250.199 202.829,247.767 202.227,245.112C201.714,242.852 202.313,241.173 202.465,239.038C203.365,238.867 204.265,238.694 205.164,238.523C206.141,237.994 206.933,235.605 205.284,235.109C205.269,235.082 205.258,235.055 205.244,235.03C205.934,234.024 207.278,233.596 208.34,232.966C209.611,232.211 211.216,231.292 212.668,230.821C214.784,230.451 216.901,230.081 219.019,229.71C221.013,229.26 223.015,228.497 224.696,227.726C224.867,228.929 225.041,230.134 225.213,231.338C224.83,234.087 224.317,237.073 223.585,239.555C223.36,240.481 223.135,241.409 222.91,242.334C222.275,243.737 221.639,245.14 221.005,246.542C218.953,247.083 218.636,248.782 217.868,250.591C216.951,252.754 215.632,254.007 217.472,256.506C218.416,257.788 221.495,258.136 223.426,258.491C224.709,258.425 225.993,258.359 227.278,258.292C228.814,258.575 229.274,259.606 230.613,259.96L233.988,259.96C236.789,259.96 241.003,260.132 242.64,258.927C242.746,258.716 242.852,258.503 242.958,258.292C243.696,257.007 242.517,256.198 241.766,255.752C240.603,255.208 239.439,254.667 238.274,254.124C236.257,253.233 234.126,251.614 232.875,249.916C232.598,249.571 232.319,249.228 232.041,248.884C231.63,247.717 231.924,245.909 231.883,244.637C230.945,244.577 230.487,245.103 230.255,245.828C230.228,245.841 230.203,245.854 230.176,245.867C230.322,243.624 230.805,241.679 231.288,239.753C231.486,238.828 231.684,237.901 231.883,236.975C232.491,235.89 233.1,234.806 233.71,233.72C234.093,232.781 234.477,231.841 234.86,230.902C235.31,229.511 235.76,228.123 236.211,226.733C236.475,225.49 236.739,224.246 237.004,223.002C237.454,221.666 237.904,220.329 238.354,218.992C238.477,218.523 238.6,218.054 238.725,217.586C239.538,217.917 240.544,218.465 240.967,218.77C243.289,220.465 249.351,224.944 249.946,226.495C250.371,227.651 253.087,233.298 261.142,236.567C269.19,239.864 275.542,238.092 277.234,232.538C278.955,226.962 275.663,220.792 267.975,217.525ZM205.52,235.822C205.916,236.229 205.599,236.887 205.401,237.212C204.625,238.49 202.528,238.149 201.867,239.197C201.722,239.925 201.578,240.652 201.43,241.381C201.206,242.711 201.556,243.834 201.788,244.834C201.96,245.854 202.133,246.872 202.304,247.891C202.684,249.492 203.243,250.804 203.099,252.695C201.052,253.518 199.815,251.768 198.771,250.391C198.094,249.498 197.276,248.51 196.748,247.495C195.142,244.416 194.625,240.457 192.699,237.728C192.036,236.79 189.526,233.692 189.998,231.933C190.229,231.075 191.274,230.503 192.102,230.265C192.75,230.291 193.399,230.319 194.047,230.345C194.446,230.228 194.727,229.839 195.04,229.629C195.66,229.216 196.32,229.231 197.104,228.916C197.448,228.928 197.792,228.941 198.136,228.954C198.162,228.968 198.189,228.981 198.215,228.994C197.928,229.877 197.492,230.469 197.301,231.535C196.977,233.346 199.062,235.242 200.28,235.506C201.714,235.813 204.528,235.09 205.52,235.822ZM276.791,228.949L274.732,228.162L275.154,227.052L276.585,227.598C276.682,228.044 276.751,228.496 276.791,228.949ZM260.371,225.614L261.484,226.037L261.067,227.133L259.956,226.707L260.371,225.614ZM259.85,226.666L258.738,226.241L259.155,225.15L260.266,225.574L259.85,226.666ZM266.4,227.787L265.287,227.364L265.72,226.232L266.832,226.658L266.4,227.787ZM266.937,226.699L268.049,227.124L267.619,228.252L266.507,227.828L266.937,226.699ZM265.182,227.324L264.07,226.899L264.502,225.767L265.614,226.193L265.182,227.324ZM263.962,226.859L262.852,226.435L263.284,225.301L264.396,225.726L263.962,226.859ZM262.744,226.395L261.632,225.972L262.067,224.836L263.177,225.262L262.744,226.395ZM261.524,225.932L260.412,225.508L260.847,224.371L261.959,224.795L261.524,225.932ZM261.591,226.078L262.703,226.502L262.285,227.597L261.174,227.172L261.591,226.078ZM262.811,226.543L263.922,226.966L263.504,228.063L262.392,227.637L262.811,226.543ZM264.029,227.006L265.141,227.43L264.722,228.528L263.61,228.104L264.029,227.006ZM265.248,227.47L266.359,227.894L265.94,228.993L264.828,228.569L265.248,227.47ZM266.466,227.934L267.578,228.358L267.158,229.459L266.047,229.035L266.466,227.934ZM267.686,228.397L268.797,228.822L268.377,229.924L267.266,229.498L267.686,228.397ZM267.725,228.293L268.156,227.165L269.268,227.59L268.838,228.716L267.725,228.293ZM268.195,227.059L268.621,225.948L269.731,226.373L269.308,227.485L268.195,227.059ZM268.09,227.018L266.979,226.593L267.402,225.481L268.514,225.907L268.09,227.018ZM266.873,226.553L265.761,226.128L266.185,225.016L267.297,225.442L266.873,226.553ZM265.654,226.087L264.542,225.66L264.965,224.55L266.078,224.975L265.654,226.087ZM264.436,225.621L263.325,225.195L263.748,224.085L264.861,224.509L264.436,225.621ZM263.218,225.154L262.106,224.73L262.529,223.619L263.642,224.043L263.218,225.154ZM262,224.69L260.889,224.264L261.312,223.152L262.424,223.578L262,224.69ZM260.78,224.223L259.67,223.799L260.094,222.688L261.206,223.114L260.78,224.223ZM260.742,224.33L260.306,225.467L259.194,225.044L259.629,223.904L260.742,224.33ZM259.089,225.004L257.975,224.58L258.412,223.439L259.524,223.864L259.089,225.004ZM259.048,225.11L258.632,226.201L257.52,225.776L257.936,224.685L259.048,225.11ZM258.592,226.308L258.169,227.414L257.057,226.989L257.479,225.883L258.592,226.308ZM258.697,226.348L259.808,226.774L259.385,227.879L258.274,227.455L258.697,226.348ZM259.916,226.813L261.026,227.239L260.605,228.346L259.493,227.92L259.916,226.813ZM261.133,227.278L262.245,227.703L261.823,228.81L260.711,228.385L261.133,227.278ZM262.352,227.744L263.463,228.168L263.041,229.276L261.93,228.851L262.352,227.744ZM263.569,228.209L264.682,228.634L264.259,229.742L263.147,229.317L263.569,228.209ZM264.788,228.676L265.9,229.1L265.477,230.208L264.365,229.783L264.788,228.676ZM266.007,229.14L267.119,229.565L266.695,230.674L265.584,230.248L266.007,229.14ZM267.224,229.605L268.337,230.03L267.913,231.139L266.802,230.714L267.224,229.605ZM268.443,230.07L269.554,230.494L269.13,231.605L268.018,231.179L268.443,230.07ZM268.484,229.964L268.903,228.863L270.016,229.286L269.594,230.389L268.484,229.964ZM268.944,228.756L269.374,227.631L270.485,228.056L270.056,229.18L268.944,228.756ZM269.415,227.524L269.839,226.413L270.949,226.838L270.526,227.949L269.415,227.524ZM269.879,226.307L270.302,225.201L271.414,225.626L270.991,226.732L269.879,226.307ZM269.772,226.266L268.66,225.84L269.083,224.736L270.195,225.161L269.772,226.266ZM268.555,225.801L267.444,225.375L267.866,224.27L268.977,224.696L268.555,225.801ZM267.336,225.335L266.225,224.909L266.646,223.805L267.758,224.23L267.336,225.335ZM266.118,224.869L265.006,224.443L265.428,223.34L266.54,223.764L266.118,224.869ZM264.9,224.404L263.789,223.978L264.208,222.874L265.321,223.3L264.9,224.404ZM263.682,223.938L262.572,223.513L262.992,222.411L264.103,222.835L263.682,223.938ZM262.464,223.473L261.352,223.047L261.773,221.945L262.886,222.369L262.464,223.473ZM261.245,223.006L260.135,222.582L260.554,221.481L261.666,221.905L261.245,223.006ZM260.027,222.541L258.916,222.117L259.335,221.015L260.448,221.44L260.027,222.541ZM259.987,222.646L259.562,223.757L258.451,223.332L258.875,222.222L259.987,222.646ZM258.346,223.291L257.234,222.867L257.658,221.756L258.77,222.182L258.346,223.291ZM258.305,223.398L257.87,224.539L256.757,224.115L257.194,222.972L258.305,223.398ZM257.829,224.646L257.413,225.736L256.301,225.31L256.716,224.222L257.829,224.646ZM257.372,225.842L256.951,226.947L255.837,226.523L256.262,225.417L257.372,225.842ZM256.911,227.055L256.48,228.18L255.368,227.756L255.798,226.631L256.911,227.055ZM257.016,227.095L258.127,227.52L257.699,228.645L256.587,228.221L257.016,227.095ZM258.233,227.561L259.345,227.987L258.917,229.11L257.803,228.686L258.233,227.561ZM259.452,228.026L260.562,228.451L260.135,229.574L259.023,229.15L259.452,228.026ZM260.671,228.492L261.782,228.918L261.353,230.039L260.241,229.615L260.671,228.492ZM261.89,228.958L263,229.383L262.572,230.504L261.46,230.08L261.89,228.958ZM263.107,229.424L264.218,229.849L263.79,230.969L262.677,230.545L263.107,229.424ZM264.324,229.889L265.435,230.315L265.009,231.434L263.896,231.01L264.324,229.889ZM265.543,230.355L266.655,230.779L266.227,231.899L265.115,231.473L265.543,230.355ZM266.761,230.82L267.872,231.244L267.445,232.363L266.335,231.939L266.761,230.82ZM267.979,231.287L269.089,231.711L268.663,232.828L267.552,232.404L267.979,231.287ZM269.197,231.752L270.309,232.176L269.881,233.294L268.769,232.869L269.197,231.752ZM269.237,231.646L269.661,230.536L270.773,230.962L270.349,232.071L269.237,231.646ZM269.701,230.43L270.123,229.326L271.234,229.751L270.813,230.856L269.701,230.43ZM270.164,229.22L270.593,228.096L271.703,228.521L271.275,229.643L270.164,229.22ZM270.632,227.99L271.057,226.879L272.169,227.304L271.744,228.416L270.632,227.99ZM271.097,226.771L271.52,225.665L272.632,226.09L272.209,227.197L271.097,226.771ZM271.561,225.559L271.984,224.448L273.098,224.872L272.673,225.983L271.561,225.559ZM271.452,225.518L270.342,225.094L270.767,223.983L271.879,224.407L271.452,225.518ZM270.235,225.053L269.123,224.629L269.547,223.517L270.66,223.941L270.235,225.053ZM269.018,224.588L267.905,224.164L268.33,223.052L269.442,223.477L269.018,224.588ZM267.8,224.124L266.687,223.699L267.111,222.587L268.225,223.012L267.8,224.124ZM266.58,223.658L265.468,223.234L265.893,222.123L267.005,222.547L266.58,223.658ZM265.362,223.193L264.249,222.769L264.673,221.657L265.787,222.081L265.362,223.193ZM264.143,222.729L263.032,222.305L263.457,221.194L264.569,221.618L264.143,222.729ZM262.925,222.264L261.814,221.839L262.238,220.728L263.35,221.152L262.925,222.264ZM261.706,221.799L260.595,221.375L261.019,220.262L262.131,220.688L261.706,221.799ZM260.489,221.334L259.377,220.91L259.801,219.797L260.912,220.222L260.489,221.334ZM259.27,220.869L258.158,220.445L258.582,219.332L259.695,219.758L259.27,220.869ZM259.229,220.975L258.811,222.076L257.698,221.651L258.118,220.551L259.229,220.975ZM257.591,221.609L256.399,221.152L256.817,220.055L258.012,220.509L257.591,221.609ZM257.55,221.715L257.126,222.826L255.935,222.369L256.358,221.26L257.55,221.715ZM257.088,222.933L256.651,224.076L255.457,223.622L255.892,222.477L257.088,222.933ZM256.61,224.182L256.194,225.272L255.001,224.815L255.414,223.727L256.61,224.182ZM256.154,225.376L255.732,226.483L254.539,226.027L254.96,224.92L256.154,225.376ZM255.691,226.589L255.262,227.715L254.067,227.26L254.498,226.133L255.691,226.589ZM255.221,227.822L254.797,228.933L253.603,228.477L254.028,227.365L255.221,227.822ZM255.328,227.861L256.44,228.286L256.016,229.397L254.904,228.973L255.328,227.861ZM256.547,228.326L257.658,228.752L257.233,229.863L256.122,229.437L256.547,228.326ZM257.765,228.792L258.877,229.216L258.451,230.328L257.341,229.903L257.765,228.792ZM258.983,229.256L260.094,229.68L259.669,230.793L258.558,230.368L258.983,229.256ZM260.202,229.721L261.312,230.145L260.888,231.258L259.777,230.834L260.202,229.721ZM261.42,230.186L262.532,230.61L262.107,231.723L260.996,231.298L261.42,230.186ZM262.638,230.65L263.749,231.075L263.325,232.187L262.214,231.762L262.638,230.65ZM263.856,231.116L264.969,231.541L264.545,232.652L263.432,232.228L263.856,231.116ZM265.075,231.581L266.187,232.005L265.763,233.117L264.65,232.692L265.075,231.581ZM266.293,232.045L267.406,232.471L266.982,233.582L265.869,233.158L266.293,232.045ZM267.512,232.511L268.624,232.935L268.199,234.047L267.087,233.623L267.512,232.511ZM268.73,232.975L269.843,233.401L269.417,234.512L268.304,234.088L268.73,232.975ZM269.948,233.439L271.06,233.864L270.636,234.977L269.524,234.552L269.948,233.439ZM269.989,233.334L270.415,232.217L271.527,232.643L271.101,233.758L269.989,233.334ZM270.455,232.111L270.878,231L271.991,231.426L271.567,232.536L270.455,232.111ZM270.92,230.895L271.341,229.791L272.453,230.215L272.031,231.32L270.92,230.895ZM271.382,229.684L271.811,228.563L272.923,228.988L272.494,230.108L271.382,229.684ZM271.85,228.455L272.276,227.345L273.386,227.77L272.961,228.881L271.85,228.455ZM272.315,227.238L272.738,226.13L273.849,226.555L273.427,227.662L272.315,227.238ZM272.779,226.023L273.203,224.912L274.314,225.336L273.89,226.448L272.779,226.023ZM274.421,225.376L275.514,225.793L275.09,226.904L273.997,226.488L274.421,225.376ZM274.355,225.229L273.244,224.805L273.669,223.694L274.78,224.118L274.355,225.229ZM273.137,224.765L272.025,224.34L272.45,223.229L273.562,223.653L273.137,224.765ZM271.918,224.299L270.808,223.875L271.231,222.764L272.344,223.188L271.918,224.299ZM270.7,223.835L269.588,223.41L270.014,222.299L271.124,222.723L270.7,223.835ZM269.482,223.37L268.37,222.946L268.794,221.834L269.906,222.258L269.482,223.37ZM268.264,222.905L267.152,222.48L267.577,221.369L268.688,221.793L268.264,222.905ZM267.045,222.44L265.933,222.015L266.357,220.903L267.47,221.328L267.045,222.44ZM265.826,221.976L264.714,221.551L265.139,220.44L266.252,220.864L265.826,221.976ZM264.608,221.51L263.496,221.086L263.92,219.974L265.033,220.398L264.608,221.51ZM263.391,221.046L262.279,220.621L262.703,219.51L263.815,219.934L263.391,221.046ZM262.172,220.58L261.059,220.156L261.484,219.045L262.596,219.469L262.172,220.58ZM260.954,220.116L259.841,219.691L260.266,218.58L261.378,219.004L260.954,220.116ZM259.735,219.651L258.622,219.226L259.048,218.114L260.158,218.539L259.735,219.651ZM258.517,219.186L257.323,218.731L257.748,217.618L258.942,218.074L258.517,219.186ZM258.476,219.292L258.052,220.404L256.857,219.949L257.283,218.838L258.476,219.292ZM256.751,219.908L255.393,219.39L255.817,218.277L257.175,218.796L256.751,219.908ZM256.71,220.014L256.292,221.114L254.934,220.593L255.352,219.496L256.71,220.014ZM256.251,221.219L255.827,222.329L254.469,221.81L254.894,220.699L256.251,221.219ZM255.787,222.436L255.349,223.582L253.99,223.063L254.428,221.917L255.787,222.436ZM253.886,223.022L250.28,221.65C250.332,221.282 250.427,220.871 250.605,220.454L254.324,221.875L253.886,223.022ZM253.951,223.17L255.309,223.686L254.893,224.774L253.537,224.255L253.951,223.17ZM254.853,224.88L254.433,225.985L253.075,225.466L253.497,224.361L254.853,224.88ZM254.392,226.092L253.962,227.219L252.605,226.701L253.035,225.573L254.392,226.092ZM253.922,227.324L253.497,228.437L252.139,227.918L252.563,226.806L253.922,227.324ZM253.563,228.584L254.757,229.04L254.333,230.151L253.139,229.695L253.563,228.584ZM254.863,229.08L255.975,229.504L255.551,230.617L254.439,230.191L254.863,229.08ZM256.081,229.545L257.194,229.97L256.769,231.081L255.657,230.657L256.081,229.545ZM257.3,230.009L258.411,230.434L257.987,231.546L256.875,231.121L257.3,230.009ZM258.518,230.475L259.631,230.9L259.206,232.012L258.094,231.586L258.518,230.475ZM259.735,230.939L260.847,231.363L260.423,232.475L259.311,232.051L259.735,230.939ZM260.956,231.404L262.067,231.83L261.643,232.94L260.531,232.517L260.956,231.404ZM262.172,231.869L263.285,232.293L262.861,233.406L261.748,232.981L262.172,231.869ZM263.391,232.334L264.504,232.76L264.08,233.871L262.968,233.446L263.391,232.334ZM264.61,232.798L265.721,233.223L265.297,234.336L264.185,233.911L264.61,232.798ZM265.829,233.264L266.939,233.689L266.515,234.801L265.405,234.377L265.829,233.264ZM267.047,233.729L268.159,234.153L267.734,235.266L266.623,234.842L267.047,233.729ZM268.267,234.194L269.377,234.618L268.952,235.73L267.841,235.306L268.267,234.194ZM269.483,234.658L270.595,235.083L270.171,236.195L269.059,235.769L269.483,234.658ZM270.702,235.125L271.794,235.54L271.37,236.652L270.278,236.235L270.702,235.125ZM270.742,235.018L271.166,233.906L272.259,234.323L271.835,235.434L270.742,235.018ZM271.207,233.799L271.634,232.684L272.726,233.101L272.3,234.216L271.207,233.799ZM271.674,232.576L272.098,231.467L273.19,231.885L272.767,232.994L271.674,232.576ZM272.139,231.361L272.561,230.254L273.653,230.67L273.232,231.777L272.139,231.361ZM272.6,230.148L273.029,229.028L274.121,229.445L273.693,230.563L272.6,230.148ZM273.068,228.922L273.493,227.811L274.585,228.229L274.161,229.339L273.068,228.922ZM273.532,227.703L273.957,226.594L275.049,227.012L274.626,228.123L273.532,227.703ZM276.556,227.464L275.196,226.946L275.622,225.834L276.12,226.023C276.297,226.491 276.441,226.973 276.556,227.464ZM276.064,225.881L275.661,225.727L275.819,225.313C275.905,225.498 275.987,225.688 276.064,225.881ZM275.752,225.17L275.555,225.688L274.462,225.27L274.886,224.159L275.285,224.311C275.453,224.586 275.609,224.873 275.752,225.17ZM274.997,223.865C275.022,223.906 275.05,223.943 275.075,223.982C275.112,224.037 275.149,224.093 275.185,224.15L274.926,224.052L274.997,223.865ZM274.919,223.752L274.821,224.012L273.707,223.587L274.065,222.65C274.375,223.012 274.659,223.38 274.919,223.752ZM273.979,222.554L273.601,223.547L272.489,223.121L273.07,221.601C273.395,221.91 273.697,222.229 273.979,222.554ZM272.98,221.518L272.383,223.081L271.271,222.657L272.021,220.693C272.358,220.959 272.679,221.234 272.98,221.518ZM271.928,220.619L271.165,222.617L270.053,222.191L270.925,219.909C271.273,220.137 271.607,220.373 271.928,220.619ZM270.826,219.848L269.946,222.152L268.835,221.728L269.783,219.241C270.145,219.432 270.493,219.635 270.826,219.848ZM269.682,219.188L268.729,221.687L267.618,221.263L268.603,218.678C268.975,218.836 269.335,219.008 269.682,219.188ZM268.496,218.636L267.51,221.223L266.398,220.797L267.381,218.219C267.766,218.346 268.138,218.484 268.496,218.636ZM267.272,218.183L266.291,220.758L265.181,220.332L266.131,217.844C266.507,217.945 266.888,218.059 267.272,218.183ZM266.02,217.813L265.074,220.292L263.962,219.868L264.854,217.534C265.236,217.615 265.625,217.709 266.02,217.813ZM264.739,217.509L263.853,219.826L262.743,219.402L263.549,217.289C263.939,217.352 264.337,217.424 264.739,217.509ZM263.434,217.271L262.636,219.362L261.525,218.937L262.22,217.116C262.617,217.156 263.022,217.209 263.434,217.271ZM262.102,217.105L261.418,218.898L260.307,218.472L260.861,217.017C261.265,217.035 261.68,217.064 262.102,217.105ZM260.742,217.013L260.199,218.433L259.089,218.008L259.473,216.999C259.884,216.992 260.307,216.996 260.742,217.013ZM259.351,217L258.982,217.967L257.788,217.512L257.956,217.073C258.402,217.035 258.867,217.011 259.351,217ZM257.829,217.083L257.681,217.473L256.925,217.184C257.216,217.145 257.517,217.111 257.829,217.083ZM256.69,217.215L257.639,217.578L257.215,218.689L255.857,218.17L256.194,217.291C256.355,217.265 256.521,217.239 256.69,217.215ZM256.063,217.314L255.752,218.131L254.501,217.652C254.972,217.529 255.493,217.414 256.063,217.314ZM253.505,217.952C253.751,217.867 254.023,217.784 254.313,217.704L255.711,218.236L255.286,219.349L252.617,218.329C252.883,218.191 253.178,218.063 253.505,217.952ZM252.484,218.402L255.246,219.455L254.828,220.553L251.396,219.24C251.683,218.938 252.04,218.65 252.484,218.402ZM254.787,220.659L254.363,221.769L250.649,220.349C250.807,220.003 251.021,219.658 251.312,219.329L254.787,220.659ZM224.217,203.628C223.847,204.289 223.476,204.951 223.107,205.613C222.711,206.142 222.313,206.672 221.915,207.201C221.096,206.644 220.274,206.089 219.454,205.533C219.877,206.408 221.047,206.994 221.32,207.955C221.383,208.174 220.71,208.791 220.566,208.908C219.645,209.65 218.937,210.781 217.747,211.25C217.734,211.276 217.72,211.303 217.708,211.33C219.046,211.531 220.307,211.934 221.519,212.201C222.517,212.423 223.275,212.264 223.861,212.838C223.129,213.004 222.629,213.373 221.638,213.512C220.825,213.627 220.262,213.016 219.454,213.354C218.739,213.792 218.025,214.227 217.31,214.665C216.763,214.907 216.161,214.831 215.523,215.022C214.714,215.265 214.363,215.741 213.221,215.737C212.957,215.325 212.693,214.917 212.427,214.505C211.963,214.003 211.5,213.501 211.036,212.997C210.707,212.547 210.375,212.098 210.045,211.647C208.857,210.682 206.785,209.524 205.878,208.392C205.201,207.519 204.527,206.645 203.852,205.772C203.113,205.295 202.372,204.819 201.631,204.343C200.189,203.258 198.943,201.547 197.818,200.134C196.813,198.97 195.807,197.806 194.801,196.641C193.386,194.547 192.685,190.637 193.849,187.669C194.629,188.503 195.411,189.336 196.191,190.17C197.657,191.275 199.316,192.109 200.916,193.068C201.537,193.452 202.16,193.835 202.781,194.22C203.84,193.241 204.919,190.602 205.163,188.82L205.202,188.82C205.333,189.945 205.752,190.623 206.037,191.441C206.433,191.281 206.831,191.123 207.226,190.964C208.477,190.605 209.643,190.43 210.72,189.972C211.638,189.582 212.996,188.806 214.453,189.059C215.788,189.29 217.031,189.727 218.024,190.329C218.368,190.555 218.712,190.779 219.056,191.004C219.281,191.039 219.394,190.823 219.613,190.766C220.205,190.609 220.676,190.85 221.12,190.964C221.158,192.204 221.701,192.712 222.391,193.266C222.563,193.412 222.737,193.558 222.908,193.703C223.2,195.04 223.49,196.376 223.781,197.713C224.151,198.652 224.522,199.592 224.893,200.531C224.985,201.285 225.077,202.039 225.17,202.795C224.854,203.072 224.534,203.35 224.217,203.628ZM223.186,192.95C222.975,192.936 222.763,192.923 222.551,192.91C222.404,192.572 220.988,191.494 221.479,190.926C222.008,190.845 222.538,190.767 223.067,190.687C222.832,191.571 223.159,192.142 223.186,192.95ZM223.661,175.681C223.317,175.893 222.974,176.103 222.629,176.316C222.635,178.546 223.086,180.088 223.383,181.913C223.409,183.871 223.437,185.83 223.463,187.788C223.317,188.502 223.173,189.217 223.026,189.931C222.081,189.926 221.701,190.261 221.042,190.447C220.631,190.408 220.221,190.368 219.81,190.328C219.561,190.355 219.309,190.382 219.057,190.409C218.779,190.249 218.502,190.092 218.224,189.931C217.39,189.446 215.48,188.471 214.253,188.542C213.08,188.611 211.863,188.757 210.839,189.098C209.41,189.573 208.007,190.584 206.353,190.765C205.996,189.733 205.639,188.7 205.283,187.668C205.257,187.655 205.229,187.642 205.202,187.628C205.044,187.906 204.885,188.184 204.726,188.462C204.448,189.282 204.17,190.103 203.893,190.924C203.469,191.73 203.045,192.537 202.622,193.344C202.018,193.389 200.961,192.431 200.438,192.114C199.275,191.413 198.11,190.712 196.946,190.01C196.378,189.481 195.807,188.951 195.239,188.423C194.905,188.153 194.44,187.828 194.246,187.43C193.666,186.978 194.792,185.334 195.12,184.771C195.584,183.924 196.047,183.077 196.51,182.23C197.224,181.344 197.939,180.457 198.654,179.57C199.126,178.84 199.279,178.016 200.083,177.625C200.055,176.125 200.206,175.098 201.155,174.41C201.532,174.136 202.093,174.051 202.385,173.696C203.512,172.322 204.931,170.959 206.315,169.844C207.691,168.737 208.947,167.42 210.363,166.351C212.338,164.935 214.307,163.519 216.28,162.104C218.476,160.343 220.673,158.583 222.869,156.824C225.234,155.286 228.034,154.595 231.166,153.807C231.254,153.206 231.403,152.991 231.722,152.654C231.775,152.668 231.828,152.681 231.881,152.695C231.959,152.966 231.417,153.66 231.683,154.323C232.013,155.15 232.912,155.593 233.31,156.307C233.456,156.889 233.603,157.471 233.748,158.054C234.211,159.086 234.673,160.118 235.137,161.151C235.92,162.927 236.734,164.681 237.519,166.51C237.744,167.052 237.969,167.595 238.194,168.137L238.234,168.137C238.3,168.097 238.366,168.057 238.433,168.018C238.181,166.787 237.929,165.556 237.679,164.326C237.814,163.876 238.986,163.402 239.386,163.175C239.473,164.188 239.71,164.853 240.338,165.319C240.186,166.253 238.598,169.849 238.035,170.361C237.028,170.97 236.023,171.579 235.017,172.187C234.388,172.981 233.77,174.249 233.429,175.245C233.297,175.906 233.165,176.568 233.033,177.229C232.689,177.666 232.345,178.103 232.001,178.54C231.749,178.249 231.497,177.957 231.247,177.666C229.763,176.618 227.663,176.245 225.529,175.88C224.906,175.813 224.283,175.747 223.661,175.681ZM231.363,245.271C231.376,245.759 231.389,246.25 231.403,246.739C231.626,248.148 231.628,249.426 232.275,250.39C233.444,252.134 236.901,254.056 238.825,255.155C240.142,255.906 241.625,256.176 242.478,257.379C242.374,257.684 242.265,257.987 242.16,258.291C241.361,259.354 235.225,259.629 233.109,259.284C232.315,259.191 231.52,259.099 230.727,259.006C229.602,258.574 228.885,257.881 227.433,257.617C226.406,257.43 225.22,257.75 224.177,257.576C221.856,257.191 220.168,257.004 218.539,255.988C218.313,255.856 218.091,255.723 217.864,255.592C217.732,255.207 217.6,254.824 217.468,254.441C216.929,252.508 218.144,252.17 218.539,250.868C218.976,249.43 219.147,248.339 220.168,247.534C220.368,248.823 220.823,250.454 221.715,251.067C222.007,251.094 222.298,251.12 222.588,251.146C224.357,251.447 225.775,250.711 226.996,250.115C226.916,249.69 226.836,249.268 226.758,248.844C226.887,248.202 227.648,247.451 228.305,247.295C228.869,247.162 229.475,247.336 229.893,247.096C230.618,246.682 230.873,245.908 231.363,245.271ZM249.401,220.67C248.938,223.162 249.345,224.539 249.345,224.539C249.345,224.539 243.481,219.121 241.305,218.019C240.585,217.656 239.609,217.147 238.928,216.79C239.014,216.463 239.1,216.135 239.187,215.808C240.085,216.214 241.948,217.02 243.236,217.311C244.988,217.708 250.912,218.491 250.912,218.491C250.912,218.491 249.632,219.431 249.401,220.67ZM250.228,222.189C250.236,222.06 250.247,221.917 250.264,221.765L253.845,223.128L253.431,224.214L250.22,222.987C250.211,222.726 250.214,222.459 250.228,222.189ZM250.224,223.111L253.39,224.32L252.968,225.425L250.366,224.429C250.292,224.002 250.243,223.561 250.224,223.111ZM250.388,224.562L252.927,225.532L252.497,226.66L250.754,225.995C250.604,225.538 250.479,225.059 250.388,224.562ZM250.8,226.134L252.457,226.766L252.031,227.877L251.456,227.658C251.212,227.195 250.988,226.684 250.8,226.134ZM251.539,227.813L251.992,227.986L251.855,228.342C251.748,228.175 251.643,227.998 251.539,227.813ZM252.966,229.827C252.937,229.791 252.906,229.754 252.877,229.718L252.991,229.762L252.966,229.827ZM252.734,229.541C252.475,229.219 252.244,228.907 252.037,228.611C252.002,228.56 251.968,228.511 251.932,228.459L252.099,228.025L253.456,228.543L253.032,229.655L252.734,229.541ZM253.049,229.928L253.098,229.803L254.292,230.258L254.012,230.991C253.661,230.63 253.341,230.273 253.049,229.928ZM254.1,231.081L254.399,230.299L255.509,230.723L255.033,231.973C254.7,231.676 254.391,231.377 254.1,231.081ZM255.124,232.055L255.617,230.763L256.728,231.188L256.089,232.861C255.751,232.594 255.428,232.324 255.124,232.055ZM256.184,232.934L256.834,231.229L257.946,231.653L257.181,233.659C256.832,233.421 256.501,233.179 256.184,232.934ZM257.277,233.724L258.053,231.694L259.164,232.118L258.303,234.378C257.946,234.164 257.605,233.947 257.277,233.724ZM258.402,234.436L259.271,232.159L260.383,232.583L259.454,235.017C259.092,234.827 258.74,234.635 258.402,234.436ZM259.558,235.068L260.491,232.623L261.603,233.047L260.635,235.58C260.264,235.416 259.904,235.244 259.558,235.068ZM261.312,235.869C261.118,235.789 260.928,235.709 260.74,235.627L261.709,233.088L262.821,233.512L261.842,236.078C261.666,236.012 261.489,235.941 261.312,235.869ZM261.947,236.119L262.927,233.554L264.038,233.977L263.069,236.519C262.702,236.397 262.328,236.265 261.947,236.119ZM263.177,236.554L264.145,234.018L265.258,234.442L264.322,236.891C263.947,236.791 263.565,236.68 263.177,236.554ZM264.434,236.92L265.363,234.482L266.477,234.906L265.607,237.182C265.223,237.109 264.832,237.022 264.434,236.92ZM265.722,237.203L266.582,234.947L267.694,235.372L266.928,237.379C266.533,237.338 266.131,237.279 265.722,237.203ZM267.045,237.39L267.8,235.412L268.912,235.836L268.294,237.457C267.886,237.453 267.47,237.432 267.045,237.39ZM268.416,237.458L269.019,235.877L270.132,236.301L269.715,237.392C269.291,237.436 268.857,237.457 268.416,237.458ZM269.842,237.377L270.237,236.342L271.33,236.758L271.183,237.148C270.745,237.248 270.298,237.324 269.842,237.377ZM271.315,237.115L271.436,236.799L271.874,236.966C271.688,237.021 271.503,237.07 271.315,237.115ZM272.148,236.881C272.115,236.891 272.084,236.901 272.049,236.912L271.477,236.693L271.901,235.58L273.6,236.228C273.165,236.49 272.684,236.709 272.148,236.881ZM273.721,236.154L271.943,235.474L272.367,234.363L274.805,235.293C274.484,235.611 274.125,235.9 273.721,236.154ZM274.892,235.204L272.407,234.256L272.832,233.141L275.663,234.224C275.439,234.572 275.184,234.901 274.892,235.204ZM275.725,234.126L272.872,233.035L273.296,231.924L276.257,233.055C276.109,233.428 275.933,233.786 275.725,234.126ZM276.298,232.949L273.337,231.818L273.759,230.711L276.634,231.805C276.55,232.197 276.438,232.58 276.298,232.949ZM276.656,231.691L273.8,230.605L274.226,229.486L276.814,230.475C276.788,230.888 276.736,231.294 276.656,231.691ZM276.819,230.355L274.266,229.379L274.691,228.268L276.801,229.074C276.833,229.504 276.841,229.932 276.819,230.355Z" style="fill-rule:nonzero;"/>
    </g>
</svg>
