<?xml version="1.0" encoding="UTF-8" standalone="no"?>
<!DOCTYPE svg PUBLIC "-//W3C//DTD SVG 1.1//EN" "http://www.w3.org/Graphics/SVG/1.1/DTD/svg11.dtd">
<svg width="100%" height="100%" viewBox="0 0 91 101" version="1.1" xmlns="http://www.w3.org/2000/svg" xmlns:xlink="http://www.w3.org/1999/xlink" xml:space="preserve" xmlns:serif="http://www.serif.com/" style="fill-rule:evenodd;clip-rule:evenodd;stroke-linejoin:round;stroke-miterlimit:1.41421;">
    <g transform="matrix(1,0,0,1,-510.887,-266.453)">
        <path d="M601.064,281.83C600.79,277.876 596.818,276.353 591.163,278.811C585.488,281.279 582.584,286.561 581.822,287.4C581.068,288.234 577.312,291.23 576.256,291.805C575.772,292.063 575.2,292.342 574.724,292.536C574.481,292.475 574.203,292.495 573.932,292.618L567.703,295.421C567.703,295.42 567.704,295.418 567.704,295.418C567.392,295.118 567.174,295.516 566.955,295.631C567.089,294.659 567.025,293.488 567.491,292.845C567.543,289.67 569.928,287.188 567.919,284.484C566.982,283.417 565.394,283.485 564.061,282.984C563.95,282.941 563.842,282.892 563.737,282.838C563.739,282.838 563.742,282.84 563.746,282.84C563.738,282.824 563.728,282.808 563.722,282.791C563.476,282.652 563.23,282.513 562.986,282.372C562.5,282.037 562.031,281.685 561.507,281.535C561.459,281.508 561.409,281.48 561.361,281.452C561.483,281.128 561.604,280.803 561.726,280.477C562.459,280.736 564.041,280.961 564.5,280.307C564.623,280.134 564.508,279.764 564.599,279.504C564.743,279.086 564.99,279.022 565.256,278.748C565.382,278.294 565.069,278.374 565.159,278.14C565.253,277.904 565.461,278.092 565.596,277.63C565.572,277.499 565.548,277.369 565.524,277.239C565.543,276.874 565.664,276.804 565.743,276.582C565.976,276.547 566.253,276.577 566.23,276.339C566.232,275.82 565.718,274.44 565.718,274.44C565.828,274.324 565.947,274.266 566.182,274.269C566.148,274.221 566.117,274.172 566.083,274.123C566.147,274.106 566.214,274.09 566.278,274.073C566.238,273.863 566.196,273.652 566.156,273.441C566.238,273.36 566.318,273.278 566.399,273.198C566.199,272.259 566.24,271.06 566.009,270.057C565.941,269.754 565.742,269.438 565.645,269.107C565.54,268.755 565.515,268.357 565.303,268.11C565.093,268.004 564.881,267.897 564.67,267.793C563.793,267.282 562.719,266.757 561.603,266.503C561.294,266.485 560.986,266.47 560.677,266.454C558.085,266.419 556.519,267.815 555.629,269.517C555.329,269.786 555.027,270.022 554.727,270.229C553.615,271.083 552.006,271.727 550.721,270.977C550.935,271.297 551.256,271.297 551.471,271.512C551.238,271.457 551.003,271.407 550.767,271.357C550.532,271.304 550.296,271.252 550.063,271.197C549.757,271.075 549.452,270.942 549.147,270.805C546.967,269.689 544.788,271.761 542.643,272.406C544.574,272.191 546.539,270.119 548.362,271.298C545.575,271.942 542.966,273.156 540.285,271.868C539.642,271.548 538.785,271.762 538.179,271.978C537.9,272.07 537.621,272.17 537.347,272.279C537.073,272.386 536.802,272.501 536.534,272.62C536.748,272.567 536.962,272.506 537.178,272.444C537.393,272.381 537.608,272.317 537.824,272.252C538.037,272.184 538.251,272.111 538.467,272.053C539.106,271.868 539.857,271.868 540.501,272.299C539.856,272.085 539.105,272.085 538.481,272.197C538.258,272.242 538.037,272.303 537.824,272.379C537.391,272.502 536.962,272.62 536.534,272.729C536.874,272.657 537.212,272.583 537.553,272.506C537.868,272.454 538.186,272.392 538.503,272.334C538.893,272.299 539.429,272.191 539.857,272.406C541.787,273.05 543.717,273.907 545.754,273.8C545.538,274.015 545.217,273.8 545.003,274.015C546.399,274.121 547.612,272.263 549.006,272.499C549.292,272.557 549.577,272.62 549.863,272.692C549.531,272.723 549.204,272.769 548.881,272.826C547.398,273.12 546.218,274.299 544.824,274.836C543.108,275.48 541.178,275.802 539.356,275.586C540.322,276.016 541.393,275.586 542.358,275.907C541.822,276.015 541.286,275.802 540.75,275.802C541.93,276.337 543.43,275.48 544.502,276.445C544.181,276.766 538.642,279.125 538.428,279.554C540.822,278.553 543.752,277.086 544.074,277.302C543.539,277.73 542.894,278.053 542.245,278.341C542.187,278.365 542.133,278.39 542.077,278.412C542.098,278.407 542.118,278.4 542.14,278.394C542.466,278.293 542.788,278.213 543.11,278.161C542.897,278.267 542.682,278.374 542.474,278.47C542.266,278.562 542.066,278.644 541.877,278.697C541.502,278.857 541.127,279.018 540.751,279.232C540.984,279.143 541.213,279.047 541.439,278.949C541.668,278.85 541.893,278.751 542.118,278.649C542.365,278.553 542.605,278.454 542.843,278.36C543.539,278.053 544.29,277.838 545.04,277.73C544.825,277.945 544.29,277.73 544.182,278.16C545.709,277.892 545.468,277.517 546.112,277.303C545.577,278.269 544.291,278.16 543.43,278.693C543.051,278.829 542.687,278.967 542.323,279.103C539.776,280.068 537.225,281.034 536.249,283.737C537.794,281.764 540.092,280.203 542.596,279.547C542.909,279.465 543.227,279.398 543.544,279.345C543.861,279.293 544.184,279.255 544.508,279.235C544.251,279.329 543.978,279.431 543.695,279.542C541.944,280.232 539.85,281.28 539.657,282.879C539.697,282.826 539.738,282.773 539.779,282.719C540.22,282.142 540.666,281.637 541.283,281.239C541.936,280.819 542.702,280.565 543.418,280.276C544.303,279.921 545.149,279.513 545.925,278.954C546.094,278.831 546.253,279.111 546.086,279.231C544.846,280.128 543.414,280.56 542.04,281.196C541.345,281.518 540.754,281.972 540.29,282.582C540.147,282.77 539.977,282.97 539.817,283.181C540.903,282.419 542.137,281.932 543.424,281.546C544.373,280.826 545.539,280.465 546.541,279.772C545.79,280.952 544.933,282.454 543.325,282.667C543.325,282.597 543.334,282.527 543.35,282.458C543.057,282.704 542.811,282.997 542.557,283.294C542.598,283.298 542.639,283.304 542.681,283.311C543.538,283.311 542.681,284.277 542.574,284.813C542.574,284.919 542.681,285.241 542.788,285.241C542.895,285.241 543.002,285.134 543.109,285.026C542.788,285.456 542.681,285.884 542.875,286.433C542.946,286.64 543.064,286.824 543.236,286.954C543.407,287.085 543.632,287.165 543.914,287.163C543.937,287.586 543.893,287.935 543.812,288.248C543.731,288.561 543.617,288.839 543.5,289.113C543.575,289.615 543.707,289.413 543.573,289.884C543.667,290.405 544.166,290.912 544.145,291.44C544.115,292.195 544.45,292.46 543.716,293.602C543.358,294.16 543.774,295.474 544.079,296.048C544.263,296.392 544.378,296.747 544.475,297.11C544.456,297.14 544.439,297.171 544.419,297.202C544.326,296.811 544.126,296.413 543.912,296.014C543.648,295.524 543.651,294.969 543.465,294.585C543.444,294.542 543.418,294.498 543.39,294.456C543.4,294.448 543.409,294.439 543.414,294.432C543.584,294.248 543.494,293.982 543.586,293.703C543.724,293.498 543.846,293.161 543.984,292.959C544.112,292.499 544.129,291.527 544.023,291.074C543.845,290.676 543.667,290.277 543.488,289.881C543.44,289.693 543.566,289.57 543.537,289.393C543.509,289.225 543.156,288.412 543.049,288.298C541.877,288.06 542.445,289.909 542.466,290.635L542.272,290.635C541.385,289.444 539.874,288.719 538.814,287.691C538.576,287.46 538.032,286.747 537.499,286.96C537.315,287.069 537.314,287.303 537.402,287.495C537.1,287.366 536.978,287.061 536.598,287.009C536.471,287.071 536.302,287.153 536.233,287.277C536.084,287.666 536.671,287.968 536.768,288.274C536.59,288.258 536.411,288.244 536.233,288.227C536.114,289.136 537.137,289.525 537.354,290.221L537.254,290.173C537.033,290.056 536.906,289.912 536.573,289.882C536.314,290.32 537.383,291.573 537.62,291.877C537.833,292.152 538.043,292.429 538.254,292.705C538.423,293.111 538.594,293.517 538.765,293.923C538.972,294.204 539.56,294.621 540.244,294.9C540.198,294.941 540.152,294.984 540.107,295.025C540.158,295.087 540.212,295.147 540.263,295.209C539.896,297.251 540.599,299.83 542.621,299.282C545.14,298.6 546.467,293.694 547.23,291.673C547.955,293.621 548.65,295.534 548.517,297.461C548.365,299.653 546.955,301.508 546.16,303.571C545.844,304.383 545.836,305.338 545.515,306.037C543.368,308.236 541.138,310.198 541.871,314.504C541.946,314.958 542.276,315.419 542.3,315.899C542.371,317.519 541.261,319.221 541.655,320.936C541.701,321.441 541.997,320.644 542.405,320.831C540.963,324.28 539.856,328.069 538.011,331.121C536.159,330.828 534.888,330.02 533.08,329.835C530.259,329.544 527.536,330.964 524.825,331.228C524.096,331.299 523.129,331.168 522.253,331.228C521.701,331.264 521.037,331.533 520.645,331.443C520.208,331.343 520.319,331.052 520.001,330.8C519.717,330.573 519.287,330.42 518.929,330.156C518.502,329.842 518.194,329.573 517.644,329.298C516.884,328.921 516.525,328.048 515.498,327.798C514.411,328.144 513.372,329.092 513.783,330.583C513.537,330.73 513.516,331.104 513.354,331.334C513.396,331.938 513.519,332.455 513.461,333.157C514.132,332.823 513.315,333.59 513.997,333.478C513.938,333.716 513.375,333.617 513.677,333.908C513.702,334.252 514.007,334.254 514.26,334.162C514.342,334.111 514.432,334.059 514.533,334.015C514.47,334.069 514.368,334.123 514.26,334.162C513.013,334.968 514.104,336.488 514.747,337.446C514.34,337.209 513.864,338.084 513.246,337.446C513.281,337.697 513.416,337.846 513.353,338.194C513.146,338.177 512.757,338.396 512.711,338.838C511.975,338.68 512.387,337.376 512.28,336.587C512.969,336.67 513.671,337.244 514.211,337.123C514.038,336.343 513.471,336.387 512.924,336.159C512.972,335.885 513.074,335.666 513.245,335.514C512.947,335.4 512.703,336.257 512.28,336.372C512.134,336.339 512.191,336.102 512.173,335.943C511.452,337.045 511.072,338.487 510.888,340.125L510.888,340.552C510.85,341.85 511.703,343.127 513.032,342.375C513.138,341.554 513.645,341.13 513.677,340.231L514.425,340.231L514.425,339.803C514.517,339.549 514.69,340.098 515.07,339.907C515.148,339.615 514.856,339.693 514.855,339.48C515.826,338.665 517.102,338.153 518.286,337.549C517.736,337.277 516.955,337.237 516.678,336.692C517.103,337.126 518.209,336.876 518.501,337.444C518.867,337.346 519.165,337.178 519.571,337.121C519.737,336.715 520.004,336.41 520.108,335.942C524.507,334.523 530.829,335.719 535.007,336.585C537.532,337.109 540.567,339.143 542.726,337.766C544.569,336.59 545.805,333.907 547.122,331.87C548.537,329.682 549.937,327.654 551.409,325.866C554.914,329.112 559.456,331.24 559.878,336.802C559.997,338.382 559.876,340.796 560.307,342.59C560.433,343.111 560.647,343.334 560.842,344.09C561.049,344.886 561.891,345.804 562.344,346.77C563.609,349.471 565.405,352.499 565.989,355.668C567.309,356.244 569.394,356.199 570.384,355.345C571.065,355.56 571.432,356.086 571.778,356.633C570.942,357.297 569.829,357.683 569.42,358.777C569.87,358.691 569.918,358.203 570.385,358.133C570.779,358.133 570.797,358.509 571.028,358.668C571.835,358.689 572.349,358.417 572.744,358.026C574.097,358.907 574.622,360.569 575.746,361.671C576.814,362.716 578.375,363.095 579.391,364.243C578.532,365.423 577.798,366.722 575.746,366.708C575.762,366.22 577.15,366.545 577.031,366.279C577.37,365.892 576.463,366.303 576.282,366.387C575.728,366.15 575.84,366.074 575.316,366.387C575.558,365.984 575.971,365.753 576.174,365.314C575.478,365.05 575.128,366.054 574.78,366.494L575.636,366.494C575.802,366.945 575.081,366.512 575.101,366.815L576.496,366.815C577.834,366.431 580.388,366.215 579.818,364.243C579.63,363.594 578.15,362.898 577.46,362.42C575.753,361.241 573.973,358.872 572.743,357.488C572.633,357.207 572.614,356.833 572.636,356.418C572.612,355.917 572.318,356.648 571.993,356.525C571.383,356.062 571.15,355.224 570.385,354.918C569.385,351.56 567.892,348.86 567.598,345.377C567.575,345.096 567.663,344.807 567.598,344.52C567.41,343.703 567.055,343.502 566.955,342.269C566.791,340.23 565.801,338.132 565.99,335.837C566.067,334.901 566.607,333.942 566.634,332.835C566.701,329.699 564.806,327.572 563.416,325.332C561.789,322.699 560.274,320.2 558.701,317.399C557.41,315.098 556.277,313.374 557.199,310.539C557.201,310.219 557.706,310.4 557.843,310.217C558.452,305.036 561.824,302.62 562.882,297.889C563.715,298.015 563.787,298.972 564.276,299.389C566.045,300.904 567.672,299.26 569.421,298.425C569.436,298.028 569.37,297.551 569.45,297.22L574.632,294.89C575.002,294.724 575.274,294.402 575.404,294.04C575.858,293.864 576.334,293.713 576.586,293.664C578.44,293.309 582.98,292.574 583.825,293.04C584.438,293.4 587.939,294.998 592.966,292.714C597.991,290.445 601.33,285.768 601.064,281.83ZM577,292.494C578.56,291.304 579.955,290.616 581.126,289.724C581.077,290.384 581.222,291.071 581.518,291.574C579.927,291.731 578.347,292.262 577,292.494ZM582.262,291.533C582.252,291.47 582.234,291.415 582.198,291.39C582.119,291.339 582.043,291.267 581.972,291.185L581.539,289.396C581.705,289.254 581.869,289.109 582.025,288.952C581.899,291.423 582.559,291.529 582.559,291.529C582.46,291.527 582.362,291.533 582.262,291.533ZM597.826,278.646C598.077,278.712 598.311,278.797 598.532,278.897L598.532,278.919L597.739,279.271L597.73,278.687L597.826,278.646ZM597.672,283.65L596.905,283.988L596.893,283.403L597.663,283.062L597.672,283.65ZM597.662,282.927L596.891,283.27L596.876,282.689L597.653,282.343L597.662,282.927ZM597.651,282.206L596.873,282.551L596.859,281.969L597.643,281.623L597.651,282.206ZM597.641,281.488L596.857,281.836L596.845,281.252L597.633,280.902L597.641,281.488ZM597.63,280.767L596.84,281.117L596.828,280.536L597.623,280.183L597.63,280.767ZM594.297,285.868L594.266,285.292L595.024,284.959L595.049,285.534L594.297,285.868ZM595.054,285.668L595.08,286.244L594.334,286.573L594.304,285.999L595.054,285.668ZM594.259,285.159L594.23,284.582L594.993,284.245L595.018,284.825L594.259,285.159ZM584.976,287.233L585.06,287.781L584.279,288.129L584.188,287.583L584.976,287.233ZM584.166,287.458L584.075,286.909L584.869,286.558L584.955,287.106L584.166,287.458ZM592.489,285.942L592.447,285.37L593.212,285.032L593.249,285.607L592.489,285.942ZM593.258,285.739L593.294,286.311L592.54,286.644L592.498,286.075L593.258,285.739ZM592.473,287.396L591.717,287.73L591.669,287.166L592.43,286.828L592.473,287.396ZM591.657,287.034L591.611,286.469L592.378,286.13L592.42,286.698L591.657,287.034ZM591.599,286.336L591.553,285.766L592.325,285.424L592.368,285.997L591.599,286.336ZM591.549,287.219L591.596,287.785L590.849,288.114L590.796,287.551L591.549,287.219ZM590.783,287.421L590.73,286.858L591.489,286.522L591.538,287.086L590.783,287.421ZM591.541,285.636L591.494,285.07L592.273,284.724L592.315,285.292L591.541,285.636ZM591.484,284.938L591.437,284.371L592.222,284.023L592.264,284.593L591.484,284.938ZM591.479,286.39L590.719,286.727L590.665,286.16L591.431,285.822L591.479,286.39ZM586.882,287.11L586.959,287.665L586.181,288.01L586.101,287.458L586.882,287.11ZM586.082,287.329L586.001,286.779L586.789,286.429L586.864,286.983L586.082,287.329ZM586.913,286.375L587.691,286.03L587.76,286.586L586.987,286.929L586.913,286.375ZM587.777,286.716L587.847,287.271L587.078,287.611L587.004,287.057L587.777,286.716ZM587.885,286.532L587.817,285.975L588.602,285.626L588.665,286.185L587.885,286.532ZM588.682,286.314L588.745,286.874L587.971,287.217L587.901,286.661L588.682,286.314ZM587.863,287.398L587.933,287.959L587.171,288.296L587.096,287.738L587.863,287.398ZM587.949,288.088L588.02,288.643L587.265,288.979L587.189,288.425L587.949,288.088ZM587.985,287.345L588.759,287.001L588.823,287.564L588.053,287.903L587.985,287.345ZM588.803,286.261L589.574,285.919L589.634,286.481L588.866,286.821L588.803,286.261ZM588.839,287.694L588.904,288.253L588.14,288.59L588.07,288.034L588.839,287.694ZM588.882,286.947L589.648,286.61L589.706,287.173L588.948,287.511L588.882,286.947ZM589.72,287.305L589.78,287.866L589.027,288.199L588.963,287.64L589.72,287.305ZM589.769,286.556L590.543,286.213L590.598,286.78L589.827,287.12L589.769,286.556ZM589.792,287.993L589.852,288.556L589.104,288.887L589.041,288.329L589.792,287.993ZM589.842,287.251L590.61,286.91L590.664,287.474L589.9,287.811L589.842,287.251ZM590.676,287.604L590.73,288.167L589.971,288.504L589.913,287.941L590.676,287.604ZM590.654,286.028L590.6,285.465L591.371,285.121L591.419,285.688L590.654,286.028ZM590.588,285.334L590.537,284.77L591.314,284.425L591.361,284.992L590.588,285.334ZM590.525,284.64L590.471,284.077L591.254,283.729L591.302,284.296L590.525,284.64ZM590.479,285.519L590.532,286.083L589.757,286.426L589.698,285.865L590.479,285.519ZM589.683,285.735L589.627,285.174L590.413,284.824L590.467,285.386L589.683,285.735ZM589.613,285.042L589.555,284.48L590.347,284.13L590.399,284.693L589.613,285.042ZM589.561,285.79L588.79,286.131L588.727,285.571L589.504,285.228L589.561,285.79ZM588.711,285.443L588.648,284.883L589.43,284.537L589.491,285.097L588.711,285.443ZM588.633,284.754L588.57,284.195L589.36,283.845L589.417,284.406L588.633,284.754ZM588.587,285.498L587.8,285.847L587.732,285.29L588.524,284.939L588.587,285.498ZM587.715,285.159L587.647,284.605L588.445,284.25L588.508,284.81L587.715,285.159ZM587.675,285.901L586.896,286.248L586.821,285.694L587.605,285.346L587.675,285.901ZM586.805,285.563L586.73,285.01L587.519,284.661L587.588,285.215L586.805,285.563ZM586.771,286.302L585.982,286.654L585.904,286.102L586.697,285.748L586.771,286.302ZM585.885,285.972L585.804,285.421L586.605,285.067L586.68,285.62L585.885,285.972ZM585.859,286.706L585.079,287.052L584.994,286.502L585.778,286.156L585.859,286.706ZM585.081,287.909L585.168,288.457L584.391,288.801L584.3,288.255L585.081,287.909ZM585.099,287.178L585.878,286.835L585.959,287.385L585.185,287.728L585.099,287.178ZM585.978,287.514L586.059,288.064L585.29,288.403L585.204,287.854L585.978,287.514ZM586.078,288.189L586.158,288.745L585.397,289.081L585.31,288.529L586.078,288.189ZM586.178,288.872L586.259,289.422L585.505,289.758L585.418,289.21L586.178,288.872ZM586.198,288.136L586.974,287.791L587.05,288.35L586.279,288.691L586.198,288.136ZM587.069,288.478L587.144,289.031L586.379,289.369L586.298,288.819L587.069,288.478ZM587.162,289.158L587.237,289.711L586.478,290.047L586.398,289.497L587.162,289.158ZM587.256,289.839L587.332,290.393L586.578,290.726L586.498,290.175L587.256,289.839ZM587.281,289.104L588.036,288.772L588.107,289.329L587.356,289.658L587.281,289.104ZM588.124,289.455L588.193,290.01L587.449,290.34L587.375,289.788L588.124,289.455ZM588.156,288.719L588.92,288.38L588.985,288.938L588.225,289.274L588.156,288.719ZM588.999,289.068L589.063,289.627L588.312,289.958L588.242,289.404L588.999,289.068ZM589.079,289.755L589.144,290.314L588.398,290.644L588.329,290.089L589.079,289.755ZM589.119,289.016L589.866,288.687L589.925,289.246L589.183,289.574L589.119,289.016ZM589.939,289.376L589.999,289.937L589.261,290.262L589.198,289.704L589.939,289.376ZM589.985,288.634L590.742,288.298L590.795,288.862L590.044,289.193L589.985,288.634ZM590.807,288.992L590.862,289.555L590.117,289.884L590.057,289.324L590.807,288.992ZM590.86,288.247L591.608,287.916L591.656,288.482L590.913,288.809L590.86,288.247ZM591.668,288.613L591.715,289.176L590.98,289.503L590.926,288.939L591.668,288.613ZM591.727,289.308L591.775,289.874L591.045,290.197L590.993,289.634L591.727,289.308ZM591.773,288.429L591.727,287.864L592.482,287.528L592.525,288.098L591.773,288.429ZM592.534,288.229L592.577,288.797L591.833,289.126L591.786,288.56L592.534,288.229ZM592.55,286.775L593.303,286.441L593.338,287.012L592.592,287.343L592.55,286.775ZM593.348,287.146L593.385,287.717L592.644,288.045L592.602,287.477L593.348,287.146ZM593.379,285.687L594.145,285.347L594.175,285.92L593.415,286.259L593.379,285.687ZM593.394,287.849L593.431,288.421L592.695,288.745L592.653,288.177L593.394,287.849ZM593.423,286.39L594.184,286.053L594.215,286.626L593.459,286.961L593.423,286.39ZM594.221,286.759L594.253,287.333L593.504,287.665L593.468,287.094L594.221,286.759ZM594.221,284.45L594.192,283.874L594.961,283.535L594.987,284.112L594.221,284.45ZM594.186,283.741L594.155,283.167L594.93,282.825L594.955,283.399L594.186,283.741ZM594.147,283.035L594.118,282.459L594.899,282.112L594.922,282.691L594.147,283.035ZM594.138,285.213L593.37,285.554L593.334,284.977L594.106,284.636L594.138,285.213ZM593.326,284.847L593.29,284.275L594.069,283.93L594.098,284.504L593.326,284.847ZM593.282,284.142L593.247,283.57L594.031,283.223L594.061,283.796L593.282,284.142ZM593.238,283.438L593.203,282.866L593.993,282.514L594.024,283.088L593.238,283.438ZM593.195,282.732L593.16,282.161L593.955,281.809L593.985,282.381L593.195,282.732ZM593.168,284.328L593.204,284.9L592.437,285.238L592.397,284.671L593.168,284.328ZM592.387,284.538L592.346,283.968L593.122,283.624L593.158,284.195L592.387,284.538ZM592.337,283.837L592.296,283.269L593.078,282.921L593.114,283.493L592.337,283.837ZM592.286,283.134L592.246,282.566L593.034,282.218L593.069,282.788L592.286,283.134ZM592.236,282.436L592.196,281.866L592.989,281.515L593.025,282.085L592.236,282.436ZM592.211,283.892L591.427,284.24L591.379,283.674L592.17,283.324L592.211,283.892ZM591.369,283.54L591.323,282.976L592.12,282.623L592.161,283.19L591.369,283.54ZM591.312,282.846L591.266,282.279L592.069,281.923L592.11,282.492L591.312,282.846ZM591.256,282.146L591.21,281.578L592.018,281.221L592.058,281.791L591.256,282.146ZM591.244,283.596L590.46,283.946L590.409,283.382L591.196,283.032L591.244,283.596ZM590.397,283.25L590.343,282.686L591.139,282.333L591.186,282.9L590.397,283.25ZM590.333,282.555L590.281,281.991L591.081,281.637L591.128,282.202L590.333,282.555ZM590.283,283.436L590.335,284L589.541,284.351L589.484,283.791L590.283,283.436ZM589.472,283.661L589.414,283.098L590.219,282.743L590.27,283.306L589.472,283.661ZM589.401,282.968L589.342,282.407L590.154,282.046L590.205,282.61L589.401,282.968ZM589.345,283.716L588.555,284.067L588.492,283.508L589.286,283.156L589.345,283.716ZM588.479,283.379L588.416,282.818L589.215,282.463L589.274,283.026L588.479,283.379ZM588.429,284.123L587.63,284.477L587.562,283.92L588.366,283.564L588.429,284.123ZM587.545,283.791L587.477,283.233L588.289,282.875L588.352,283.434L587.545,283.791ZM587.503,284.533L586.713,284.883L586.638,284.329L587.434,283.977L587.503,284.533ZM586.621,284.2L586.547,283.646L587.349,283.291L587.418,283.848L586.621,284.2ZM586.529,283.518L586.456,282.964L587.265,282.607L587.334,283.163L586.529,283.518ZM586.587,284.939L585.786,285.293L585.706,284.741L586.512,284.384L586.587,284.939ZM585.759,286.027L584.973,286.375L584.889,285.827L585.678,285.477L585.759,286.027ZM584.869,285.7L584.783,285.152L585.579,284.798L585.66,285.349L584.869,285.7ZM584.85,286.433L584.054,286.783L583.963,286.239L584.763,285.885L584.85,286.433ZM584.062,287.638L584.155,288.184L583.382,288.526L583.285,287.983L584.062,287.638ZM584.175,288.31L584.267,288.856L583.501,289.195L583.403,288.653L584.175,288.31ZM584.289,288.98L584.383,289.53L583.62,289.868L583.522,289.32L584.289,288.98ZM584.404,289.657L584.496,290.202L583.74,290.537L583.643,289.992L584.404,289.657ZM584.413,288.928L585.188,288.582L585.275,289.134L584.504,289.478L584.413,288.928ZM585.296,289.263L585.383,289.81L584.617,290.149L584.525,289.603L585.296,289.263ZM585.403,289.937L585.491,290.484L584.73,290.821L584.638,290.275L585.403,289.937ZM585.51,290.611L585.598,291.157L584.845,291.492L584.752,290.947L585.51,290.611ZM585.523,289.882L586.278,289.549L586.358,290.099L585.609,290.431L585.523,289.882ZM586.378,290.228L586.46,290.778L585.716,291.107L585.629,290.559L586.378,290.228ZM586.479,290.906L586.562,291.455L585.823,291.78L585.736,291.234L586.479,290.906ZM586.579,291.582L586.662,292.132L585.931,292.457L585.844,291.907L586.579,291.582ZM586.598,290.853L587.35,290.522L587.427,291.074L586.679,291.403L586.598,290.853ZM587.443,291.201L587.518,291.754L586.78,292.081L586.697,291.529L587.443,291.201ZM587.468,290.468L588.211,290.14L588.281,290.696L587.543,291.021L587.468,290.468ZM588.297,290.822L588.368,291.38L587.636,291.702L587.56,291.149L588.297,290.822ZM588.384,291.507L588.455,292.063L587.729,292.384L587.653,291.83L588.384,291.507ZM588.416,290.772L589.159,290.444L589.224,291.001L588.485,291.327L588.416,290.772ZM589.239,291.13L589.304,291.688L588.572,292.012L588.501,291.456L589.239,291.13ZM589.277,290.391L590.011,290.067L590.072,290.627L589.341,290.95L589.277,290.391ZM590.086,290.757L590.145,291.317L589.422,291.636L589.358,291.08L590.086,290.757ZM590.13,290.013L590.875,289.686L590.929,290.249L590.189,290.575L590.13,290.013ZM590.939,290.379L590.995,290.942L590.262,291.266L590.202,290.706L590.939,290.379ZM591.008,291.073L591.063,291.635L590.334,291.956L590.274,291.395L591.008,291.073ZM591.058,290.327L591.787,290.006L591.835,290.569L591.111,290.89L591.058,290.327ZM591.847,290.704L591.896,291.267L591.177,291.584L591.123,291.02L591.847,290.704ZM591.893,289.823L591.846,289.257L592.588,288.929L592.631,289.497L591.893,289.823ZM592.641,289.629L592.683,290.197L591.951,290.519L591.904,289.953L592.641,289.629ZM592.694,290.327L592.736,290.895L592.009,291.216L591.961,290.65L592.694,290.327ZM592.705,288.877L593.439,288.553L593.476,289.124L592.746,289.446L592.705,288.877ZM593.485,289.255L593.522,289.826L592.798,290.145L592.755,289.577L593.485,289.255ZM593.513,287.798L594.26,287.467L594.292,288.039L593.549,288.367L593.513,287.798ZM594.3,288.174L594.332,288.746L593.594,289.07L593.557,288.5L594.3,288.174ZM594.338,288.879L594.369,289.451L593.64,289.775L593.602,289.203L594.338,288.879ZM594.341,286.707L595.086,286.377L595.112,286.953L594.371,287.28L594.341,286.707ZM595.138,284.771L595.114,284.191L595.886,283.848L595.907,284.432L595.138,284.771ZM595.911,284.566L595.93,285.144L595.169,285.479L595.144,284.903L595.911,284.566ZM595.108,284.058L595.085,283.48L595.862,283.136L595.882,283.715L595.108,284.058ZM595.118,287.086L595.143,287.662L594.409,287.986L594.379,287.414L595.118,287.086ZM595.151,287.797L595.175,288.372L594.447,288.694L594.416,288.12L595.151,287.797ZM595.175,285.614L595.935,285.278L595.956,285.855L595.2,286.191L595.175,285.614ZM595.959,285.992L595.98,286.57L595.23,286.901L595.205,286.324L595.959,285.992ZM595.986,286.704L596.006,287.282L595.263,287.61L595.237,287.035L595.986,286.704ZM596.011,287.417L596.031,287.996L595.294,288.32L595.269,287.745L596.011,287.417ZM596.035,288.13L596.056,288.708L595.325,289.03L595.299,288.454L596.035,288.13ZM596.032,284.511L596.789,284.177L596.804,284.759L596.052,285.092L596.032,284.511ZM596.056,285.225L596.806,284.893L596.822,285.474L596.076,285.804L596.056,285.225ZM596.824,285.608L596.838,286.191L596.1,286.517L596.079,285.939L596.824,285.608ZM597.622,280.05L596.825,280.402L596.812,279.82L597.613,279.465L597.622,280.05ZM597.61,279.328L596.808,279.682L596.795,279.101L597.603,278.742L597.61,279.328ZM597.602,278.593L597.602,278.607L596.793,278.966L596.784,278.472C597.069,278.492 597.342,278.535 597.602,278.593ZM596.785,284.041L596.028,284.378L596.007,283.794L596.771,283.456L596.785,284.041ZM596.768,283.323L596.002,283.661L595.986,283.08L596.754,282.741L596.768,283.323ZM596.75,282.605L595.98,282.947L595.961,282.367L596.735,282.023L596.75,282.605ZM596.732,281.891L595.956,282.234L595.939,281.655L596.718,281.308L596.732,281.891ZM596.717,281.172L595.935,281.519L595.915,280.939L596.703,280.59L596.717,281.172ZM596.699,280.456L595.911,280.806L595.894,280.226L596.685,279.875L596.699,280.456ZM596.683,279.739L595.889,280.091L595.871,279.51L596.671,279.156L596.683,279.739ZM596.654,278.462L596.667,279.023L595.867,279.377L595.849,278.797L596.607,278.459C596.623,278.462 596.639,278.462 596.654,278.462ZM596.323,278.45L595.844,278.662L595.838,278.457C596.003,278.451 596.166,278.449 596.323,278.45ZM595.857,283.001L595.078,283.346L595.054,282.77L595.839,282.422L595.857,283.001ZM595.834,282.287L595.048,282.636L595.024,282.059L595.814,281.709L595.834,282.287ZM595.811,281.573L595.019,281.924L594.995,281.349L595.792,280.996L595.811,281.573ZM595.786,280.861L594.987,281.215L594.964,280.636L595.768,280.282L595.786,280.861ZM595.764,280.147L594.96,280.502L594.936,279.926L595.745,279.567L595.764,280.147ZM595.74,279.435L594.93,279.792L594.907,279.215L595.721,278.854L595.74,279.435ZM595.708,278.463L595.717,278.719L594.901,279.081L594.88,278.554C595.163,278.51 595.44,278.479 595.708,278.463ZM594.893,281.979L594.113,282.327L594.083,281.753L594.869,281.404L594.893,281.979ZM594.863,281.271L594.074,281.62L594.046,281.046L594.838,280.694L594.863,281.271ZM594.832,280.561L594.039,280.912L594.01,280.339L594.808,279.985L594.832,280.561ZM594.803,279.85L594.003,280.204L593.974,279.63L594.778,279.272L594.803,279.85ZM594.75,278.572L594.771,279.137L593.966,279.495L593.938,278.92L594.711,278.577C594.723,278.576 594.736,278.574 594.75,278.572ZM594.182,278.676L593.931,278.788L593.928,278.733C594.012,278.715 594.099,278.694 594.182,278.676ZM593.949,281.674L593.151,282.03L593.116,281.458L593.92,281.102L593.949,281.674ZM593.91,280.968L593.108,281.324L593.073,280.753L593.881,280.393L593.91,280.968ZM593.874,280.26L593.065,280.619L593.029,280.048L593.844,279.686L593.874,280.26ZM593.837,279.554L593.023,279.915L592.989,279.343L593.809,278.978L593.837,279.554ZM593.797,278.765L593.8,278.846L592.98,279.211L592.968,278.996C593.249,278.907 593.525,278.831 593.797,278.765ZM592.98,281.381L592.186,281.734L592.144,281.164L592.945,280.81L592.98,281.381ZM592.938,280.675L592.137,281.031L592.096,280.462L592.903,280.105L592.938,280.675ZM592.893,279.973L592.087,280.329L592.048,279.762L592.859,279.4L592.893,279.973ZM592.837,279.036L592.851,279.268L592.038,279.628L592.017,279.327C592.292,279.222 592.565,279.124 592.837,279.036ZM592.007,281.088L591.198,281.447L591.152,280.88L591.965,280.519L592.007,281.088ZM591.959,280.389L591.142,280.748L591.097,280.181L591.917,279.819L591.959,280.389ZM591.208,279.659C591.436,279.558 591.66,279.465 591.885,279.377L591.906,279.686L591.085,280.052L591.06,279.729C591.109,279.704 591.158,279.682 591.208,279.659ZM591.07,281.505L590.269,281.86L590.218,281.296L591.023,280.937L591.07,281.505ZM591.013,280.806L590.206,281.165L590.155,280.601L590.967,280.24L591.013,280.806ZM590.93,279.788L590.956,280.108L590.143,280.468L590.118,280.188C590.384,280.05 590.655,279.915 590.93,279.788ZM590.141,281.916L589.329,282.277L589.272,281.714L590.089,281.352L590.141,281.916ZM590.076,281.223L589.259,281.584L589.202,281.022L590.025,280.656L590.076,281.223ZM589.988,280.258L590.012,280.528L589.19,280.893L589.172,280.722C589.438,280.563 589.712,280.407 589.988,280.258ZM589.202,282.333L588.4,282.688L588.337,282.129L589.144,281.772L589.202,282.333ZM589.045,280.802L589.059,280.951L588.284,281.296C588.531,281.125 588.785,280.961 589.045,280.802ZM589.073,281.079L589.131,281.642L588.324,281.999L588.261,281.441L589.073,281.079ZM588.272,282.746L587.46,283.104L587.392,282.547L588.208,282.186L588.272,282.746ZM587.325,281.997L587.325,281.999C587.472,281.884 587.621,281.769 587.773,281.656L588.13,281.498L588.193,282.058L587.376,282.42L587.324,281.999C587.282,282.031 587.241,282.061 587.201,282.095C587.243,282.061 587.283,282.03 587.325,281.997ZM587.2,282.095L587.247,282.478L586.439,282.835L586.427,282.751C586.676,282.526 586.934,282.308 587.2,282.095ZM586.495,284.258L585.688,284.615L585.607,284.063L586.42,283.704L586.495,284.258ZM586.328,282.846C586.321,282.852 586.314,282.858 586.307,282.864L586.311,282.893L586.244,282.923C586.271,282.897 586.3,282.87 586.328,282.846ZM585.98,283.175L586.328,283.022L586.402,283.574L585.59,283.937L585.543,283.621C585.686,283.47 585.83,283.321 585.98,283.175ZM585.426,283.747L585.462,283.992L585.042,284.178C585.165,284.033 585.294,283.89 585.426,283.747ZM584.866,284.393L585.481,284.122L585.56,284.673L584.763,285.026L584.698,284.604C584.752,284.533 584.809,284.462 584.866,284.393ZM584.585,284.748L584.636,285.081L584.217,285.268C584.333,285.094 584.455,284.921 584.585,284.748ZM584.092,285.457L584.656,285.208L584.743,285.756L583.941,286.111L583.887,285.79C583.953,285.68 584.021,285.569 584.092,285.457ZM583.782,285.976L583.814,286.169L583.635,286.248C583.681,286.156 583.731,286.065 583.782,285.976ZM583.18,287.307C583.199,287.252 583.219,287.199 583.24,287.144L583.243,287.144C583.332,286.903 583.432,286.663 583.55,286.422L583.837,286.293L583.929,286.839L583.243,287.144C583.222,287.196 583.198,287.252 583.18,287.307L583.95,286.966L584.042,287.512L583.263,287.857L583.171,287.34C583.172,287.327 583.176,287.318 583.18,287.307ZM583.083,287.611L583.137,287.912L582.986,287.979C583.014,287.856 583.047,287.734 583.083,287.611ZM582.958,288.129L583.159,288.037L583.257,288.58L582.868,288.753C582.885,288.547 582.915,288.337 582.958,288.129ZM582.86,288.893L583.28,288.707L583.377,289.25L582.862,289.478C582.849,289.286 582.849,289.091 582.86,288.893ZM582.922,289.98C582.9,289.858 582.885,289.734 582.873,289.608L583.4,289.375L583.499,289.922L582.963,290.158C582.95,290.099 582.935,290.041 582.922,289.98ZM582.992,290.282L583.522,290.047L583.62,290.589L583.166,290.791C583.098,290.626 583.038,290.458 582.992,290.282ZM583.217,290.904L583.643,290.715L583.741,291.259L583.473,291.376C583.377,291.227 583.291,291.067 583.217,290.904ZM583.547,291.479L583.764,291.382L583.853,291.871C583.74,291.748 583.64,291.616 583.547,291.479ZM583.762,290.662L584.519,290.327L584.611,290.872L583.861,291.204L583.762,290.662ZM583.883,291.33L584.632,291L584.725,291.544L583.981,291.873L583.883,291.33ZM584.01,292.028L584.003,291.999L584.746,291.67L584.839,292.215L584.433,292.395C584.28,292.281 584.141,292.159 584.01,292.028ZM584.55,292.479L584.862,292.34L584.926,292.718C584.794,292.646 584.671,292.563 584.55,292.479ZM584.866,291.619L585.619,291.286L585.706,291.832L584.958,292.163L584.866,291.619ZM585.065,292.797L584.979,292.29L585.726,291.961L585.813,292.509L585.11,292.82C585.096,292.811 585.079,292.805 585.065,292.797ZM585.916,293.151L585.916,293.148C585.687,293.074 585.465,292.988 585.255,292.889L585.834,292.634L585.916,293.148C585.934,293.155 585.952,293.162 585.972,293.168C585.952,293.162 585.934,293.156 585.916,293.151ZM585.949,292.583L586.68,292.261L586.763,292.811L586.036,293.13L585.949,292.583ZM586.147,293.218L586.143,293.221C586.116,293.211 586.09,293.203 586.064,293.196C586.092,293.203 586.12,293.21 586.147,293.218L586.783,292.937L586.847,293.374C586.605,293.334 586.373,293.281 586.147,293.218ZM586.798,292.208L587.538,291.883L587.615,292.435L586.879,292.758L586.798,292.208ZM586.973,293.392L586.899,292.887L587.632,292.562L587.709,293.114L587.059,293.402C587.031,293.397 587.002,293.396 586.973,293.392ZM587.304,293.43L587.727,293.244L587.756,293.461C587.603,293.454 587.453,293.444 587.304,293.43ZM587.748,292.513L588.471,292.193L588.544,292.747L587.822,293.065L587.748,292.513ZM588.594,293.448C588.351,293.464 588.112,293.47 587.878,293.465L587.84,293.194L588.559,292.876L588.631,293.432L588.594,293.448ZM588.588,292.141L589.32,291.818L589.386,292.374L588.657,292.697L588.588,292.141ZM588.675,292.825L589.403,292.504L589.467,293.063L588.744,293.381L588.675,292.825ZM588.977,293.413L589.482,293.191L589.501,293.342C589.324,293.372 589.15,293.395 588.977,293.413ZM589.435,291.767L590.16,291.446L590.221,292.009L589.501,292.323L589.435,291.767ZM589.517,292.453L590.234,292.138L590.294,292.698L589.582,293.011L589.517,292.453ZM589.617,293.32L589.595,293.14L590.309,292.826L590.344,293.166C590.099,293.229 589.855,293.279 589.617,293.32ZM590.348,292.086L591.076,291.766L591.129,292.329L590.408,292.648L590.348,292.086ZM590.46,293.138L590.422,292.779L591.142,292.46L591.187,292.919C590.942,293 590.7,293.073 590.46,293.138ZM591.189,291.715L591.906,291.399L591.956,291.965L591.242,292.278L591.189,291.715ZM591.302,292.88L591.256,292.409L591.966,292.096L592.012,292.609C591.772,292.708 591.535,292.799 591.302,292.88ZM592.021,291.349L592.746,291.029L592.789,291.596L592.069,291.914L592.021,291.349ZM592.254,292.506C592.211,292.525 592.168,292.542 592.124,292.561L592.08,292.045L592.8,291.728L592.838,292.231C592.645,292.326 592.45,292.418 592.254,292.506ZM592.809,290.276L593.532,289.958L593.571,290.53L592.851,290.845L592.809,290.276ZM592.861,290.978L593.577,290.663L593.616,291.231L592.904,291.546L592.861,290.978ZM592.951,292.173L592.913,291.677L593.625,291.364L593.653,291.789C593.423,291.922 593.189,292.053 592.951,292.173ZM593.648,289.908L594.377,289.586L594.408,290.157L593.683,290.478L593.648,289.908ZM593.693,290.609L594.417,290.291L594.45,290.864L593.73,291.181L593.693,290.609ZM593.765,291.724L593.74,291.313L594.457,290.999L594.474,291.274C594.24,291.43 594.006,291.579 593.765,291.724ZM594.455,288.826L595.182,288.506L595.209,289.081L594.487,289.399L594.455,288.826ZM594.493,289.533L595.216,289.216L595.241,289.791L594.524,290.106L594.493,289.533ZM594.532,290.239L595.248,289.925L595.273,290.501L594.563,290.814L594.532,290.239ZM595.284,290.688L595.284,290.684C595.054,290.862 594.823,291.035 594.584,291.197L594.57,290.948L595.281,290.634L595.284,290.685C595.305,290.668 595.328,290.654 595.349,290.635C595.328,290.652 595.306,290.67 595.284,290.688ZM595.331,289.165L596.061,288.842L596.082,289.42L595.356,289.74L595.331,289.165ZM595.395,290.6L595.395,290.583L595.443,290.562C595.426,290.575 595.41,290.588 595.395,290.6ZM595.801,290.269C595.687,290.365 595.572,290.459 595.453,290.553C595.566,290.464 595.674,290.367 595.785,290.276L595.387,290.45L595.363,289.875L596.088,289.556L596.105,290.008C596.001,290.102 595.892,290.187 595.787,290.277L595.801,290.269ZM596.104,286.653L596.843,286.324L596.858,286.905L596.124,287.23L596.104,286.653ZM596.128,287.364L596.859,287.041L596.876,287.622L596.147,287.944L596.128,287.364ZM596.151,288.078L596.879,287.757L596.895,288.337L596.172,288.656L596.151,288.078ZM596.177,288.791L596.898,288.472L596.915,289.055L596.196,289.369L596.177,288.791ZM596.215,289.904L596.201,289.504L596.917,289.189L596.918,289.231C596.691,289.461 596.457,289.686 596.215,289.904ZM596.909,284.125L597.674,283.785L597.684,284.369L596.923,284.707L596.909,284.125ZM596.925,284.84L597.685,284.504L597.694,285.089L596.94,285.423L596.925,284.84ZM596.942,285.557L597.696,285.225L597.706,285.809L596.957,286.139L596.942,285.557ZM596.96,286.272L597.707,285.943L597.717,286.526L596.973,286.854L596.96,286.272ZM596.978,286.99L597.718,286.662L597.728,287.246L596.992,287.571L596.978,286.99ZM596.996,287.705L597.73,287.381L597.74,287.964L597.01,288.287L596.996,287.705ZM597.212,288.922L597.027,289.003L597.011,288.423L597.74,288.1L597.744,288.315C597.574,288.521 597.396,288.724 597.212,288.922ZM597.74,279.406L598.532,279.056L598.533,279.644L597.747,279.992L597.74,279.406ZM597.749,280.127L598.534,279.778L598.537,280.364L597.757,280.711L597.749,280.127ZM597.758,280.847L598.537,280.501L598.541,281.088L597.766,281.434L597.758,280.847ZM597.768,281.568L598.542,281.224L598.544,281.811L597.774,282.152L597.768,281.568ZM597.776,282.288L598.545,281.947L598.547,282.536L597.783,282.874L597.776,282.288ZM597.785,283.009L598.548,282.67L598.551,283.261L597.794,283.596L597.785,283.009ZM597.796,283.732L598.552,283.397L598.555,283.983L597.803,284.316L597.796,283.732ZM597.805,284.452L598.556,284.121L598.561,284.705L597.814,285.035L597.805,284.452ZM597.815,285.171L598.56,284.842L598.564,285.428L597.823,285.755L597.815,285.171ZM597.826,285.891L598.564,285.564L598.569,286.15L597.834,286.473L597.826,285.891ZM597.836,286.61L598.569,286.286L598.573,286.873L597.844,287.194L597.836,286.61ZM597.859,288.181L597.858,288.049L598.023,287.976C597.97,288.045 597.915,288.112 597.859,288.181ZM598.188,287.767L597.857,287.914L597.846,287.329L598.574,287.009L598.576,287.233C598.451,287.413 598.322,287.591 598.188,287.767ZM598.658,279.001L598.705,278.979C598.9,279.082 599.084,279.197 599.252,279.327L598.659,279.589L598.658,279.001ZM598.688,287.064L598.688,286.957L598.793,286.91C598.761,286.962 598.724,287.013 598.688,287.064ZM598.917,286.721L598.688,286.821L598.685,286.236L599.38,285.928C599.238,286.193 599.084,286.459 598.917,286.721ZM599.427,285.77L598.684,286.099L598.681,285.513L599.429,285.182L599.427,285.77ZM599.429,285.047L598.681,285.378L598.679,284.791L599.432,284.456L599.429,285.047ZM599.432,284.321L598.679,284.652L598.675,284.066L599.434,283.73L599.432,284.321ZM599.436,283.596L598.675,283.931L598.672,283.344L599.437,283.005L599.436,283.596ZM599.438,282.869L598.672,283.207L598.67,282.616L599.44,282.275L599.438,282.869ZM599.439,282.141L598.668,282.482L598.666,281.894L599.444,281.551L599.439,282.141ZM599.444,281.413L598.665,281.758L598.664,281.172L599.448,280.822L599.444,281.413ZM599.448,280.688L598.664,281.035L598.662,280.447L599.451,280.097L599.448,280.688ZM599.452,279.96L598.661,280.309L598.66,279.725L599.358,279.414C599.389,279.442 599.423,279.469 599.454,279.498L599.452,279.96Z"/>
    </g>
</svg>
