<?xml version="1.0" encoding="UTF-8" standalone="no"?>
<!DOCTYPE svg PUBLIC "-//W3C//DTD SVG 1.1//EN" "http://www.w3.org/Graphics/SVG/1.1/DTD/svg11.dtd">
<svg width="100%" height="100%" viewBox="0 0 49 106" version="1.1" xmlns="http://www.w3.org/2000/svg" xmlns:xlink="http://www.w3.org/1999/xlink" xml:space="preserve" xmlns:serif="http://www.serif.com/" style="fill-rule:evenodd;clip-rule:evenodd;stroke-linejoin:round;stroke-miterlimit:1.41421;">
    <g transform="matrix(1,0,0,1,-597.772,-262.242)">
        <path d="M646.338,363.946C645.901,363.464 644.808,363.282 643.985,363.108C643.291,362.96 642.615,362.781 641.992,362.591C641.4,362.408 640.859,362.075 640.358,361.713C639.929,361.401 639.335,360.938 639.083,360.477C638.877,360.102 638.928,359.712 638.685,359.242C638.16,358.797 637.48,358.726 636.97,358.326C636.792,358.186 636.36,357.691 636.252,357.369C636.126,356.986 636.145,356.455 636.093,355.974C635.755,352.827 635.355,349.262 635.097,346.087C634.869,343.283 634.641,340.348 634.379,337.479C634.292,336.526 634.291,335.518 634.14,334.608C633.875,333.014 632.934,331.684 632.546,329.984C631.557,325.652 630.105,322.219 628.6,318.385C628.303,317.628 628.051,316.834 627.724,316.152C627.387,315.456 626.705,314.911 626.408,314.202C626.062,313.377 626.245,312.6 626.209,311.648C626.185,311.044 626.018,310.426 625.97,309.816C625.919,309.17 625.87,308.531 625.811,307.902C625.698,306.703 625.377,305.588 625.092,304.473C624.601,302.543 624.393,300.264 624.591,298.106C624.934,298.085 625.298,298.05 625.688,297.996C625.796,298.826 625.878,299.667 626.209,300.369C626.403,300.781 626.798,301.155 627.166,301.525C627.559,301.916 627.918,302.304 628.441,302.362C629.134,302.438 630.4,301.642 630.991,301.325C631.322,301.148 631.691,300.886 632.107,300.608C632.401,300.411 632.946,299.897 633.184,299.89C633.445,299.883 633.864,300.353 634.14,300.448C634.326,300.512 634.627,300.475 634.818,300.568C635.082,300.694 635.133,300.913 635.337,300.926C635.65,300.947 635.977,300.705 636.253,300.368C636.871,300.758 637.649,300.338 637.968,299.651C638.107,299.349 638.058,298.952 638.167,298.654C638.353,298.148 639.271,297.921 639.003,297.219C638.872,296.869 638.604,297.059 638.326,296.978C637.761,296.051 636.797,295.192 635.417,295.504C634.538,295.703 633.98,296.707 633.144,297.18C632.878,297.328 632.352,297.491 631.909,297.657C631.148,297.945 630.496,298.177 629.996,297.497C629.861,297.315 629.768,297.094 629.694,296.85C630.603,296.452 631.548,295.938 632.5,295.275C637.518,291.809 639.001,286.93 636.385,283.81C634.254,281.246 630.332,280.533 626.315,282.114C626.213,282.02 626.107,281.931 626.01,281.832C624.465,281.338 622.703,280.44 621.308,279.602C620.36,279.033 619.175,278.613 619.434,277.012C619.493,276.648 619.981,276.144 620.232,275.737C620.5,275.296 620.698,274.801 620.909,274.381C621.109,273.985 621.633,273.406 621.785,272.985C621.86,272.783 621.836,272.504 621.905,272.267C622.085,271.675 622.427,271.116 622.424,270.553C622.422,270.172 622.224,270.041 622.186,269.716C622.154,269.441 622.241,269.166 622.225,268.879C622.197,268.371 622.006,267.757 621.906,267.205C621.797,266.599 621.734,265.973 621.588,265.529C621.489,265.231 621.28,264.883 621.109,264.573C620.754,263.934 620.531,263.57 619.993,263.06C619.765,262.843 619.497,262.512 619.276,262.461C618.373,262.249 617.44,262.155 616.288,262.342C615.644,262.445 614.87,262.859 614.413,263.179C613.184,264.038 612.577,265.62 612.301,267.483C612.235,267.926 612.331,268.477 612.182,268.959C612.102,269.214 612.07,269.131 611.942,269.277C611.528,269.752 611.9,270.646 612.063,271.431C612.167,271.941 612.386,272.675 612.621,272.945C612.745,273.087 612.972,273.111 613.139,273.223C613.265,274.063 613.738,275.184 613.658,276.332C613.63,276.725 613.402,277.4 613.179,277.847C612.998,278.208 612.378,279.065 612.064,279.322C611.668,279.643 611.083,279.902 610.587,280.2C609.589,280.803 608.492,281.216 607.399,281.713C606.863,281.958 606.126,282.151 605.684,282.471C605.285,282.763 604.662,283.65 604.41,284.185C603.466,286.198 602.586,288.527 601.738,290.484C600.759,292.751 599.917,294.487 598.91,296.623C598.494,297.503 597.326,299.186 597.953,300.489C598.156,300.91 598.718,301.171 599.108,301.485C599.469,301.775 599.916,302.276 600.304,302.442C601.019,302.747 601.832,302.704 602.496,303.04C602.778,303.184 602.9,303.492 603.175,303.638C603.738,303.94 604.273,304.03 604.886,304.277C603.813,305.223 602.507,305.937 601.381,306.827C601.686,307.532 602.068,308.159 602.416,308.821C603.773,307.853 605.44,306.849 606.562,305.513C606.98,305.819 607.392,305.788 607.916,305.591C607.831,306.112 607.534,306.483 607.438,306.987C607.38,307.29 607.469,307.629 607.398,307.984C607.334,308.307 607.126,308.685 607.001,309.019C606.353,310.735 605.724,312.609 605.405,314.601C605.282,315.379 605.05,316.205 605.008,317.032C604.966,317.822 605.141,318.678 605.207,319.504C605.269,320.303 605.447,321.037 605.605,321.775C605.925,323.283 606.207,324.793 606.402,326.279C606.704,328.588 606.956,330.976 607.12,333.535C607.171,334.341 607.304,335.204 607.279,336.006C607.261,336.564 607.073,337.213 606.962,337.801C606.732,338.981 606.499,340.1 606.242,341.308C606.122,341.875 605.921,342.495 605.884,343.023C605.832,343.759 605.947,344.569 605.964,345.334C606.018,347.573 606.422,349.658 606.721,351.712C606.915,353.05 607.187,354.428 607.439,355.777C607.7,357.186 608.043,358.571 607.996,359.964C607.968,360.877 607.715,361.863 607.559,362.793C607.484,363.234 607.394,363.734 607.319,364.189C607.167,365.119 607.01,365.915 607.359,366.78C607.463,367.039 608.177,367.805 608.475,367.896C608.738,367.976 609.135,367.915 609.472,367.935C610.371,367.993 611.459,368.123 612.381,368.136L612.381,368.174L612.54,368.174C613.051,367.197 612.522,365.547 612.54,364.267C612.557,363.132 612.553,362.032 612.341,361.08C612.118,360.077 611.57,359.175 611.425,358.248C611.219,356.952 611.255,354.934 611.385,353.424C611.465,352.491 611.747,351.498 611.943,350.518C612.141,349.523 612.336,348.543 612.381,347.488C612.428,346.414 612.489,345.302 612.54,344.179C612.591,343.063 612.503,341.901 612.621,340.791C612.701,340.02 612.993,339.21 613.179,338.397C613.358,337.611 613.518,336.79 613.697,336.006C614.073,334.358 614.232,332.619 614.415,330.904C614.797,327.341 615.198,323.829 615.571,320.382C616.102,320.382 616.573,320.09 617.047,320.101C617.516,320.117 617.893,320.459 618.361,320.501C619.707,323.732 621.254,326.948 623.105,329.788C623.96,331.101 624.938,332.548 625.735,334.133C626.092,334.844 626.464,335.697 626.931,336.403C627.128,336.706 627.359,337.106 627.609,337.482C627.853,337.848 628.208,338.237 628.287,338.517C628.527,339.378 628.31,340.975 628.287,341.946C628.259,343.131 628.096,344.353 628.168,345.373C628.2,345.849 628.349,346.373 628.446,346.889C628.544,347.413 628.599,347.96 628.725,348.404C628.951,349.202 629.406,350.021 629.76,350.835C630.484,352.493 630.853,354.218 631.395,356.098C631.516,356.516 631.668,356.976 631.792,357.413C631.922,357.861 632.169,358.351 632.192,358.728C632.206,358.967 632.055,359.298 632.031,359.605C631.974,360.399 632.114,361.344 632.031,362.076C631.973,362.603 631.731,363.017 631.753,363.511C631.775,364.019 632.1,364.383 632.232,364.827C633.123,365.177 633.96,365.302 635.021,365.344C636.01,365.384 637.135,365.233 638.17,365.384C638.499,365.434 638.841,365.648 639.207,365.785C640.178,366.148 641.525,366.541 642.754,366.541C643.928,366.541 644.8,366.044 645.903,365.744C646.444,365.417 646.779,364.612 646.338,363.946ZM609.116,300.975L609.943,300.467C609.747,300.767 609.547,301.061 609.35,301.359L609.116,300.975ZM630.445,288.826L629.769,289.317L629.284,288.649L629.959,288.159L630.445,288.826ZM630.023,288.112L630.698,287.622L631.184,288.29L630.509,288.781L630.023,288.112ZM628.677,289.506L628.966,289.902L628.691,290.103C628.684,289.901 628.679,289.702 628.677,289.506ZM628.676,289.369C628.676,289.276 628.676,289.186 628.676,289.094L629.22,288.698L629.705,289.366L629.029,289.857L628.676,289.369ZM629.237,288.586L628.738,287.901L629.415,287.41L629.911,288.096L629.237,288.586ZM629.173,288.633L628.675,288.995C628.676,288.642 628.675,288.294 628.672,287.949L628.674,287.947L629.173,288.633ZM628.755,291.183C628.754,291.177 628.754,291.172 628.754,291.166L628.762,291.179L628.755,291.183ZM628.742,291.016C628.719,290.741 628.702,290.468 628.693,290.199L629.011,289.969L629.5,290.642L628.825,291.131L628.742,291.016ZM629.076,289.92L629.752,289.431L630.241,290.104L629.565,290.593L629.076,289.92ZM629.816,289.383L630.492,288.893L630.981,289.565L630.306,290.056L629.816,289.383ZM630.557,288.845L631.233,288.354L631.722,289.029L631.045,289.518L630.557,288.845ZM631.296,288.308L631.971,287.818L632.461,288.491L631.785,288.982L631.296,288.308ZM631.248,288.243L630.763,287.574L631.438,287.083L631.925,287.752L631.248,288.243ZM630.716,287.509L630.22,286.826L630.895,286.337L631.391,287.018L630.716,287.509ZM630.651,287.556L629.975,288.048L629.479,287.364L630.155,286.873L630.651,287.556ZM629.433,287.299L628.941,286.625L629.617,286.136L630.108,286.81L629.433,287.299ZM629.367,287.348L628.692,287.837L628.667,287.803C628.662,287.483 628.647,287.167 628.625,286.855L628.877,286.672L629.367,287.348ZM628.618,286.762C628.603,286.583 628.582,286.408 628.557,286.232L628.83,286.609L628.618,286.762ZM628.762,291.273L628.808,291.241L629.304,291.923L628.867,292.239C628.829,291.914 628.795,291.59 628.762,291.273ZM628.873,291.195L629.549,290.703L630.043,291.385L629.367,291.875L628.873,291.195ZM629.613,290.658L630.288,290.167L630.782,290.848L630.107,291.337L629.613,290.658ZM630.354,290.12L631.028,289.63L631.522,290.309L630.847,290.799L630.354,290.12ZM631.092,289.583L631.769,289.092L632.262,289.77L631.586,290.262L631.092,289.583ZM631.833,289.045L632.508,288.555L633.001,289.234L632.326,289.725L631.833,289.045ZM632.572,288.508L633.249,288.019L633.74,288.695L633.064,289.187L632.572,288.508ZM632.525,288.444L632.036,287.769L632.71,287.279L633.201,287.953L632.525,288.444ZM631.988,287.706L631.501,287.035L632.176,286.544L632.664,287.215L631.988,287.706ZM631.455,286.972L630.959,286.289L631.634,285.798L632.13,286.48L631.455,286.972ZM630.911,286.224L630.422,285.55L631.097,285.059L631.587,285.735L630.911,286.224ZM630.848,286.271L630.172,286.762L629.681,286.087L630.358,285.597L630.848,286.271ZM629.635,286.023L629.146,285.35L629.821,284.86L630.311,285.531L629.635,286.023ZM629.57,286.069L628.894,286.56L628.533,286.062C628.52,285.983 628.513,285.901 628.498,285.821L629.082,285.399L629.57,286.069ZM628.979,293.031L629.102,293.199L629.017,293.261C629.003,293.185 628.991,293.108 628.979,293.031ZM628.95,292.855C628.925,292.68 628.899,292.503 628.878,292.329L629.35,291.986L629.842,292.661L629.166,293.154L628.95,292.855ZM629.415,291.938L630.09,291.447L630.581,292.124L629.906,292.614L629.415,291.938ZM630.155,291.402L630.829,290.911L631.321,291.586L630.645,292.077L630.155,291.402ZM630.894,290.863L631.57,290.373L632.06,291.049L631.385,291.538L630.894,290.863ZM631.633,290.326L632.309,289.836L632.8,290.51L632.124,291.002L631.633,290.326ZM632.373,289.788L633.048,289.297L633.54,289.973L632.864,290.465L632.373,289.788ZM633.112,289.25L633.787,288.76L634.279,289.435L633.603,289.925L633.112,289.25ZM633.853,288.712L634.528,288.222L635.018,288.898L634.343,289.388L633.853,288.712ZM633.805,288.647L633.312,287.969L633.989,287.479L634.481,288.158L633.805,288.647ZM633.266,287.907L632.777,287.232L633.452,286.742L633.942,287.414L633.266,287.907ZM632.729,287.167L632.241,286.497L632.916,286.006L633.404,286.678L632.729,287.167ZM632.193,286.434L631.699,285.752L632.374,285.262L632.868,285.942L632.193,286.434ZM631.651,285.688L631.16,285.012L631.837,284.521L632.327,285.196L631.651,285.688ZM631.114,284.948L630.625,284.275L631.3,283.785L631.79,284.458L631.114,284.948ZM631.049,284.994L630.375,285.485L629.886,284.813L630.561,284.322L631.049,284.994ZM629.838,284.75L629.348,284.073L630.024,283.582L630.514,284.258L629.838,284.75ZM629.774,284.795L629.099,285.286L628.608,284.611L629.283,284.12L629.774,284.795ZM629.034,285.333L628.478,285.738C628.435,285.524 628.385,285.312 628.321,285.103C628.296,285.023 628.266,284.954 628.24,284.878L628.544,284.658L629.034,285.333ZM625.331,296.344C625.403,296.537 625.458,296.74 625.507,296.946L625.217,297.157L624.939,296.773C625.07,296.587 625.197,296.394 625.331,296.344ZM629.197,294.071C629.131,293.834 629.077,293.593 629.031,293.349L629.148,293.264L629.639,293.939L629.234,294.233C629.222,294.18 629.211,294.124 629.197,294.071ZM629.213,293.216L629.889,292.727L630.38,293.401L629.703,293.892L629.213,293.216ZM629.952,292.679L630.629,292.188L631.118,292.864L630.443,293.355L629.952,292.679ZM630.692,292.143L631.368,291.651L631.858,292.326L631.183,292.817L630.692,292.143ZM631.433,291.604L632.107,291.113L632.599,291.788L631.923,292.279L631.433,291.604ZM632.172,291.066L632.847,290.576L633.337,291.249L632.662,291.741L632.172,291.066ZM632.911,290.526L633.587,290.037L634.076,290.712L633.402,291.204L632.911,290.526ZM633.65,289.99L634.325,289.499L634.816,290.174L634.14,290.664L633.65,289.99ZM634.39,289.451L635.066,288.961L635.557,289.637L634.881,290.128L634.39,289.451ZM635.13,288.915L635.793,288.432L636.283,289.109L635.62,289.589L635.13,288.915ZM635.083,288.849L634.593,288.175L635.254,287.692L635.746,288.369L635.083,288.849ZM634.545,288.111L634.052,287.432L634.717,286.95L635.207,287.628L634.545,288.111ZM634.006,287.369L633.515,286.694L634.178,286.212L634.67,286.887L634.006,287.369ZM633.469,286.629L632.981,285.958L633.643,285.476L634.132,286.148L633.469,286.629ZM632.934,285.895L632.439,285.214L633.102,284.733L633.596,285.412L632.934,285.895ZM632.392,285.15L631.902,284.476L632.565,283.993L633.056,284.668L632.392,285.15ZM631.854,284.41L631.365,283.738L632.028,283.255L632.517,283.93L631.854,284.41ZM631.317,283.672L630.827,282.998L631.49,282.515L631.981,283.192L631.317,283.672ZM631.253,283.721L630.578,284.21L630.087,283.537L630.763,283.045L631.253,283.721ZM630.041,283.471L629.55,282.797L630.224,282.306L630.716,282.982L630.041,283.471ZM629.976,283.52L629.301,284.01L628.81,283.334L629.485,282.844L629.976,283.52ZM629.237,284.057L628.561,284.548L628.069,283.872L628.745,283.382L629.237,284.057ZM628.497,284.594L628.212,284.801C628.107,284.52 627.992,284.261 627.877,284.013L628.006,283.919L628.497,284.594ZM627.843,283.938C627.755,283.747 627.671,283.555 627.598,283.358L627.958,283.854L627.843,283.938ZM624.665,297.354C624.678,297.257 624.678,297.156 624.693,297.06C624.762,297.004 624.826,296.924 624.888,296.839L625.153,297.201L624.971,297.332C624.863,297.344 624.769,297.346 624.665,297.354ZM625.129,297.319L625.199,297.267L625.227,297.306C625.196,297.31 625.162,297.315 625.129,297.319ZM625.319,297.297L625.263,297.22L625.524,297.031C625.54,297.106 625.557,297.181 625.572,297.258C625.49,297.268 625.399,297.286 625.319,297.297ZM629.533,296.1C629.486,295.802 629.448,295.49 629.405,295.171L629.944,295.913C629.806,295.98 629.67,296.038 629.533,296.1ZM630.016,295.877L629.383,295.006C629.349,294.775 629.306,294.544 629.254,294.318L629.688,294.005L630.76,295.483C630.512,295.623 630.263,295.755 630.016,295.877ZM630.83,295.44L629.751,293.956L630.426,293.467L631.545,295.004C631.306,295.158 631.067,295.305 630.83,295.44ZM631.973,294.717C631.852,294.801 631.733,294.883 631.613,294.959L630.492,293.419L631.166,292.928L632.3,294.487C632.191,294.563 632.083,294.641 631.973,294.717ZM632.364,294.438L631.23,292.881L631.905,292.388L633.028,293.933C632.815,294.102 632.594,294.271 632.364,294.438ZM633.089,293.883L631.969,292.344L632.646,291.853L633.725,293.339C633.524,293.521 633.312,293.703 633.089,293.883ZM633.784,293.285L632.709,291.806L633.384,291.316L634.389,292.696C634.198,292.893 633.998,293.089 633.784,293.285ZM634.444,292.638L633.448,291.267L634.124,290.778L635.01,291.995C634.834,292.21 634.646,292.424 634.444,292.638ZM635.063,291.931L634.189,290.731L634.864,290.239L635.58,291.223C635.421,291.461 635.248,291.696 635.063,291.931ZM635.625,291.151L634.929,290.191L635.603,289.701L636.084,290.362C635.947,290.629 635.795,290.891 635.625,291.151ZM636.124,290.282L635.667,289.654L636.33,289.172L636.502,289.408C636.395,289.704 636.268,289.995 636.124,290.282ZM636.534,289.317L636.395,289.124L636.66,288.934C636.621,289.061 636.58,289.19 636.534,289.317ZM636.716,288.737C636.71,288.76 636.703,288.785 636.695,288.805L636.347,289.06L635.856,288.385L636.888,287.633C636.875,287.992 636.82,288.357 636.716,288.737ZM636.891,287.533L635.811,288.32L635.32,287.646L636.799,286.569C636.864,286.88 636.896,287.2 636.891,287.533ZM636.782,286.483L635.272,287.58L634.78,286.905L636.5,285.656C636.619,285.919 636.715,286.197 636.782,286.483ZM636.466,285.581L634.735,286.84L634.244,286.166L636.042,284.858C636.203,285.089 636.346,285.329 636.466,285.581ZM635.994,284.793L634.195,286.102L633.706,285.429L635.449,284.159C635.649,284.358 635.831,284.57 635.994,284.793ZM635.394,284.102L633.661,285.365L633.168,284.686L634.739,283.545C634.971,283.718 635.189,283.902 635.394,284.102ZM634.671,283.494L633.119,284.62L632.629,283.945L633.911,283.016C634.176,283.16 634.43,283.319 634.671,283.494ZM633.834,282.974L632.582,283.882L632.093,283.208L632.959,282.577C633.259,282.691 633.551,282.823 633.834,282.974ZM632.871,282.544L632.045,283.144L631.555,282.468L631.858,282.248C632.199,282.323 632.54,282.423 632.871,282.544ZM631.752,282.225L631.508,282.405L631.323,282.154C631.468,282.174 631.61,282.196 631.752,282.225ZM631.215,282.137L631.443,282.451L630.78,282.933L630.289,282.258L630.532,282.082C630.758,282.088 630.985,282.107 631.215,282.137ZM630.258,282.079C630.306,282.079 630.353,282.079 630.399,282.079L630.243,282.194L630.161,282.081C630.191,282.081 630.226,282.079 630.258,282.079ZM630.063,282.084L630.177,282.24L629.501,282.73L629.088,282.163C629.42,282.12 629.745,282.094 630.063,282.084ZM628.999,282.176L629.437,282.78L628.761,283.269L628.091,282.346C628.397,282.274 628.701,282.218 628.999,282.176ZM628.009,282.367L628.698,283.316L628.023,283.807L627.156,282.615C627.441,282.519 627.726,282.437 628.009,282.367ZM627.078,282.643L627.474,283.19C627.303,283.019 627.121,282.858 626.94,282.697C626.986,282.68 627.032,282.659 627.078,282.643ZM607.951,300.369C606.895,300.623 606.617,301.62 605.241,301.365C604.899,301.302 604.153,300.833 603.805,300.608C603.345,300.312 602.958,299.922 602.57,299.691C602.461,299.322 602.285,299.021 602.173,298.655C603.508,295.526 605.545,293.099 606.755,289.845C606.93,289.794 607.036,289.673 607.194,289.606C607.799,290.185 608.083,291.48 608.39,292.436C609.124,294.722 609.823,297.232 610.502,299.531C610.421,299.691 610.322,299.833 610.231,299.983L608.651,300.986C608.426,300.774 608.203,300.557 607.951,300.369Z" style="fill-rule:nonzero;"/>
    </g>
</svg>
