<?xml version="1.0" encoding="UTF-8" standalone="no"?>
<!DOCTYPE svg PUBLIC "-//W3C//DTD SVG 1.1//EN" "http://www.w3.org/Graphics/SVG/1.1/DTD/svg11.dtd">
<svg width="100%" height="100%" viewBox="0 0 65 203" version="1.1" xmlns="http://www.w3.org/2000/svg" xmlns:xlink="http://www.w3.org/1999/xlink" xml:space="preserve" xmlns:serif="http://www.serif.com/" style="fill-rule:evenodd;clip-rule:evenodd;stroke-linejoin:round;stroke-miterlimit:1.41421;">
    <g transform="matrix(1,0,0,1,-342.378,-11.572)">
        <path d="M381.82,11.572C382.402,11.57 382.708,11.697 383.121,11.78C384.088,11.97 384.807,11.529 385.617,11.78C386.388,12.018 387.25,12.772 387.853,13.238C393.677,17.719 392.413,26.204 394.409,34.409C395.129,37.368 395.787,39.952 396.802,42.472C397.092,43.195 397.367,44.771 398.104,45.177C398.536,45.177 398.969,45.177 399.403,45.177C401.28,45.716 403.251,46.958 404.242,48.403C406.165,51.209 406.524,60.026 405.803,64.528C405.803,65.413 405.803,66.298 405.803,67.181C405.803,69.921 406.053,72.866 405.647,75.4C405.106,78.768 406.259,81.469 406.687,84.088C406.687,87.988 406.687,91.892 406.687,95.792C406.669,96.572 406.652,97.353 406.635,98.133C406.617,99.138 406.601,100.145 406.583,101.152C406.583,104.159 406.818,106.961 407.208,109.215C407.052,110.619 406.895,112.024 406.739,113.428C406.651,115.405 406.565,117.382 406.478,119.359C406.266,120.199 404.545,123.963 403.981,124.353C403.23,124.872 401.354,125.845 400.964,126.588C400.113,129.362 399.264,132.138 398.415,134.912C397.357,137.912 396.299,140.911 395.24,143.911C393.891,148.667 393.864,154.354 393.004,159.517C392.936,160.8 392.865,162.083 392.797,163.366C392.738,163.812 393.252,165.885 393.368,166.591C393.749,168.885 393.483,171.814 393.109,173.874C392.726,175.867 392.345,177.862 391.963,179.856C391.826,181.139 391.688,182.422 391.549,183.705C391.004,186.792 390.673,189.796 389.935,192.705C389.223,195.518 387.457,199.322 388.01,202.692C387.993,203.35 387.977,204.01 387.959,204.67C388.071,205.224 388.367,206.221 388.791,206.491C389.677,207.054 391.135,206.751 391.34,207.999C391.793,210.744 389.918,210.631 388.479,211.588C388.046,212.075 387.613,212.559 387.178,213.046C385.825,213.979 382.45,213.765 381.248,212.89C381.301,214.122 378.154,214.327 376.67,214.034C375.639,213.832 374.638,213.504 374.225,212.681C373.993,212.215 373.979,211.838 373.601,211.536C372.899,210.974 371.88,210.673 371.365,209.925C371.364,209.097 371.107,207.839 371.573,207.374C372.814,207.108 374.314,207.053 375.007,206.074C374.443,205.253 374.671,203.65 374.851,202.536C375.06,201.254 374.688,199.518 374.382,198.479C373.417,195.189 372.537,191.759 371.833,188.231C371.37,185.906 371.425,183.506 371.001,181.002C370.522,178.157 370.19,175.5 369.701,172.47C369.719,171.448 369.735,170.424 369.753,169.401C370.132,167.047 369.858,164.93 370.222,162.69C370.308,162.085 370.395,161.477 370.482,160.87C370.463,159.883 370.447,158.894 370.429,157.905C369.806,153.971 370.429,149.465 369.805,145.681C369.719,144.571 369.632,143.46 369.546,142.351C368.956,140.236 368.366,138.12 367.775,136.005C366.395,130.503 365.454,125.69 364.446,119.671C363.975,116.859 364.823,114.108 364.966,111.815C364.989,111.478 364.677,111.384 364.603,111.139C364.373,110.378 364.8,108.776 364.916,108.07C364.898,107.445 364.881,106.821 364.864,106.197C365.077,104.838 365.409,101.972 365.02,100.528C363.259,100.377 361.615,102.529 359.35,101.568C357.416,100.748 356.297,98.961 355.083,97.407C351.913,93.349 348.866,89.19 345.771,85.026C344.991,83.974 342.161,80.687 342.391,78.991C342.735,76.453 343.871,74.232 344.887,72.281C345.788,70.479 346.69,68.676 347.592,66.871C348.84,65.103 350.089,63.335 351.338,61.565C352.358,60.036 352.941,58.208 353.731,56.415C354.867,53.836 357.62,49.289 359.661,47.677C360.731,46.83 361.981,45.943 363.405,45.492C364.29,45.3 365.175,45.109 366.059,44.919C366.579,43.363 366.663,41.51 367.516,40.342C368.58,38.886 370.452,37.979 370.95,36.024C371.168,35.165 370.835,34.296 370.689,33.476C370.542,32.649 370.921,32.11 370.844,31.497C370.775,31.204 370.705,30.909 370.637,30.614C371.571,24.073 372.422,16.798 376.878,13.499C377.772,12.839 378.965,12.134 380.155,11.835C380.711,11.746 381.266,11.658 381.82,11.572ZM369.856,41.482C368.983,42.307 367.503,43.043 367.254,44.448C367.653,44.344 368.052,44.24 368.45,44.135C368.631,42.99 369.693,42.332 369.856,41.482ZM366.734,50.638C366.717,51.239 366.844,53.338 367.098,53.603C367.341,53.639 367.583,53.673 367.827,53.707C367.43,52.858 367.312,51.37 366.734,50.638ZM396.543,52.771C396.383,54.219 394.861,57.655 395.762,59.17C395.848,59.152 395.936,59.136 396.022,59.118C396.02,57.565 396.967,53.903 396.543,52.771ZM367.099,53.968C367.272,54.886 367.446,55.807 367.62,56.725C367.655,56.708 367.689,56.69 367.724,56.673C367.898,56.465 368.071,56.256 368.244,56.048C368.211,55.702 368.176,55.354 368.141,55.008C367.924,54.935 367.805,54.9 367.673,54.748C367.812,54.766 367.948,54.782 368.088,54.8C367.964,54.483 367.62,54.412 367.412,54.176C367.653,54.207 367.719,54.246 367.88,54.124C367.619,54.071 367.359,54.021 367.099,53.968ZM367.566,54.695C367.601,54.695 367.635,54.695 367.671,54.695C367.636,54.695 367.602,54.695 367.566,54.695ZM368.242,56.725C367.91,57.219 367.755,57.429 367.879,58.182C367.897,58.182 367.914,58.182 367.931,58.182C368.021,57.729 368.41,57.188 368.242,56.725ZM395.294,63.539C395.317,63.258 395.406,62.919 395.294,62.81C395.016,62.776 394.738,62.742 394.461,62.707C394.332,64.342 393.663,65.854 393.212,67.284C393.074,67.821 392.936,68.359 392.797,68.896C392.678,69.089 392.408,69.142 392.328,69.417C392.203,69.849 392.503,69.971 392.38,70.197C392.039,71.024 389.231,71.218 388.115,71.446C386.35,71.804 384.094,71.664 381.976,71.759C377.907,71.936 375.167,71.696 371.831,70.822C370.727,67.274 369.226,62.592 368.503,58.284C368.485,58.284 368.468,58.284 368.45,58.284C368.397,58.908 368.346,59.532 368.295,60.156C368.485,61.041 368.676,61.926 368.866,62.809C368.926,63.276 368.598,63.581 368.814,64.111C369.555,65.923 370.51,68.291 370.792,70.509C370.409,70.509 370.028,70.509 369.646,70.509C368.538,70.199 367.5,69.71 367.149,68.687C366.993,67.959 366.836,67.232 366.68,66.503C366.656,68.956 367.077,70.882 367.982,72.432C368.396,73.144 369.056,74.037 369.178,74.982C369.352,76.332 368.56,79.022 369.334,79.821C369.687,79.728 369.788,79.743 369.855,79.352C369.958,79.456 370.063,79.56 370.167,79.665C370.516,79.539 370.521,79.323 370.739,79.196C370.895,79.214 371.052,79.231 371.207,79.248C371.554,79.128 371.567,78.62 371.78,78.363C373.722,79.013 375.175,77.97 375.993,76.855C376.548,77.089 377.283,76.932 377.813,76.751C377.866,76.578 377.917,76.404 377.969,76.231C378.862,76.25 379.278,75.747 379.478,75.085C380.344,75.085 381.211,75.085 382.08,75.085C382.149,75.189 382.218,75.294 382.288,75.398C382.79,75.346 383.293,75.294 383.796,75.242C383.892,75.836 384.461,76.086 385.097,76.127C385.481,77.529 387.068,77.807 388.531,77.531C389.199,78.623 390.908,79.547 392.536,78.885C392.771,79.345 392.86,79.68 393.421,79.822C393.488,79.647 393.434,79.647 393.524,79.666C393.783,79.853 393.856,79.925 394.253,79.873C394.305,79.734 394.357,79.596 394.409,79.457C394.478,79.527 394.548,79.596 394.617,79.666C394.604,78.671 394.709,77.936 394.564,77.013C394.513,76.579 394.46,76.146 394.409,75.711C394.785,73.369 395.713,71.69 396.334,69.731C396.316,69.731 396.299,69.731 396.281,69.731C396.281,69.765 396.281,69.799 396.281,69.835C395.596,70.38 394.171,70.406 393.109,70.563C394.058,68.586 394.637,65.987 395.033,63.541C395.121,63.539 395.207,63.539 395.294,63.539ZM364.187,60.782C362.102,61.904 360.675,63.957 359.401,65.881C358.751,66.86 357.803,67.707 357.112,68.638C355.864,70.545 354.614,72.452 353.367,74.36C352.438,75.71 350.283,77.809 351.182,80.186C351.798,81.817 352.979,82.899 353.833,84.295C354.354,85.422 354.874,86.549 355.395,87.676C356.222,89.032 357.229,90.413 358.1,91.786C358.557,92.506 361.225,95.5 361.221,96.052C364.097,96.066 365.617,93.913 366.475,91.838C367.225,90.025 368.082,87.953 368.504,85.804C368.914,83.71 368.789,81.153 368.764,78.833C368.764,77.516 368.764,76.198 368.764,74.879C368.451,73.168 367.1,71.733 366.631,69.887C366.366,68.847 366.395,67.305 366.423,66.088C366.44,65.689 366.457,65.291 366.475,64.893C366.194,63.507 365.587,61.025 364.187,60.782ZM397.011,68.014C396.797,70.486 395.367,72.535 394.826,74.775C394.681,75.372 394.99,75.82 394.981,76.18C394.941,77.688 394.572,79.825 394.877,81.486C395.44,84.557 396.645,86.93 397.687,89.498C398.165,90.674 399.075,94.258 399.976,94.752C399.083,91.643 398.588,88.431 398.05,85.232C397.84,83.978 398.082,82.466 398.259,81.435C398.604,79.41 398.187,76.217 397.842,74.412C397.653,72.938 397.46,71.464 397.27,69.99C397.162,69.375 397.381,68.371 397.011,68.014ZM370.844,69.106C371.127,69.201 371.424,69.354 371.261,69.73C371.192,69.816 371.122,69.902 371.053,69.989C371.018,69.989 370.984,69.989 370.949,69.989C370.844,69.886 370.74,69.781 370.636,69.677C370.626,69.294 370.655,69.271 370.844,69.106ZM393.004,69.156C393.109,69.175 393.212,69.192 393.317,69.209C393.369,69.297 393.421,69.383 393.473,69.469C393.425,69.604 393.41,69.697 393.317,69.782C393.213,69.851 393.11,69.922 393.004,69.99C392.778,69.878 392.607,69.736 392.692,69.469C392.786,69.286 392.863,69.278 393.004,69.156ZM387.698,112.905C390.043,112.936 391.076,111.374 392.38,110.356C393.289,110.662 394.877,109.979 395.397,109.577C395.485,109.351 395.572,109.125 395.658,108.9C396.034,109.176 396.203,109.236 396.595,109.004C396.725,109.247 396.889,109.235 397.115,109.368C397.537,109.299 397.684,109.122 397.793,108.744C397.844,108.778 397.897,108.813 397.949,108.848C398.072,109.113 398.265,109.193 398.469,109.369C398.573,109.352 398.676,109.335 398.782,109.316C399.13,108.969 399.586,108.715 400.03,108.379C401.031,108.506 401.474,109.059 402.683,108.952C402.838,109.3 402.995,109.646 403.151,109.993C403.169,109.993 403.186,109.993 403.203,109.993C402.97,107.255 402.266,104.271 401.591,101.826C401.232,100.524 401.117,99.253 400.187,98.549C397.89,96.808 391.488,96.031 387.39,96.676C384.911,96.78 382.431,96.883 379.951,96.988C375.727,97.756 371.228,98.177 368.091,100.058C367.112,100.645 366.354,101.476 365.438,102.086C365.477,105.2 365.405,108.177 365.023,111.085C365.126,111.207 365.231,111.329 365.335,111.449C366.227,111.498 367.196,111.051 367.624,110.461C367.895,110.726 367.997,110.991 368.456,111.085C368.581,110.834 368.529,110.83 368.716,110.981C368.82,111.051 368.925,111.121 369.029,111.189C369.391,111.001 369.472,110.821 369.706,110.513C369.724,110.513 369.74,110.513 369.758,110.513C370.069,111.524 371.26,110.69 371.891,110.409C372.005,111.164 372.489,111.547 373.296,111.606C373.399,111.502 373.504,111.398 373.607,111.293C374.202,111.771 374.753,111.675 375.48,111.293C375.93,111.727 376.381,112.16 376.833,112.593C377.739,113.137 378.981,113.276 380.162,113.53C380.272,113.959 380.503,114.58 380.891,114.727C381.046,114.744 381.203,114.761 381.359,114.779C381.445,115.005 381.532,115.229 381.62,115.456C381.879,115.49 382.14,115.524 382.399,115.56C382.485,115.75 382.573,115.942 382.659,116.132C382.801,116.281 383.315,116.483 383.544,116.652C383.56,117.176 383.44,117.75 383.491,118.11C383.928,118.281 384.276,118.398 384.688,118.11C384.812,117.522 384.993,117.062 384.792,116.601C384.792,116.583 384.792,116.566 384.792,116.549C385.382,116.562 385.464,116.403 385.78,116.184C385.746,115.924 385.712,115.664 385.676,115.404C385.694,115.404 385.711,115.404 385.729,115.404C386.057,115.515 386.257,115.407 386.665,115.352C386.665,115.11 386.665,114.867 386.665,114.623C387.13,114.607 387.208,114.434 387.497,114.259C387.439,113.73 387.684,113.582 387.698,112.905ZM383.018,118.315C382.883,118.571 382.655,118.975 382.757,119.147C383.567,121.837 383.471,126.118 382.965,129.239C382.712,130.8 382.86,132.498 382.602,133.818C382.653,134.111 382.705,134.408 382.757,134.701C382.67,136.037 382.584,137.373 382.496,138.708C382.201,140.603 382.174,143.245 382.549,145.104C382.584,145.104 382.618,145.104 382.653,145.104C382.647,143.163 383.034,141.329 383.329,139.539C383.433,137.754 383.538,135.967 383.642,134.182C383.642,132.865 383.642,131.546 383.642,130.229C383.642,125.955 383.507,121.479 384.943,118.577C384.908,118.558 384.873,118.543 384.839,118.524C384.052,118.658 383.781,118.423 383.018,118.315ZM382.028,162.063C381.855,163.728 381.681,165.393 381.507,167.057C381.507,168.237 381.507,169.416 381.507,170.594C381.525,170.594 381.542,170.594 381.56,170.594C381.577,170.56 381.593,170.525 381.613,170.49C382.082,169.811 382.744,162.997 382.028,162.063ZM381.561,184.744C381.207,186.338 381.458,188.242 381.197,189.946C381.11,191.472 381.024,192.998 380.936,194.524C380.54,197.124 380.592,200.07 381.405,202.015C381.458,201.98 381.509,201.946 381.561,201.91C381.716,201.252 381.873,200.593 382.029,199.934C381.907,196.485 381.787,193.033 381.665,189.581C381.438,188.07 382.074,186.058 381.561,184.744ZM381.508,203.939C381.375,204.392 381.368,206.291 381.664,206.591C381.682,206.591 381.699,206.591 381.716,206.591C381.868,205.803 381.766,204.743 381.716,203.939C381.647,203.939 381.577,203.939 381.508,203.939Z" style="fill:rgb(35,31,32);"/>
    </g>
</svg>
