<?xml version="1.0" encoding="UTF-8" standalone="no"?>
<!DOCTYPE svg PUBLIC "-//W3C//DTD SVG 1.1//EN" "http://www.w3.org/Graphics/SVG/1.1/DTD/svg11.dtd">
<svg width="100%" height="100%" viewBox="0 0 402 680" version="1.1" xmlns="http://www.w3.org/2000/svg" xmlns:xlink="http://www.w3.org/1999/xlink" xml:space="preserve" xmlns:serif="http://www.serif.com/" style="fill-rule:evenodd;clip-rule:evenodd;stroke-linejoin:round;stroke-miterlimit:1.41421;">
    <g transform="matrix(1,0,0,1,-886.875,-28.266)">
        <path d="M1230.74,323.893C1230.78,320.962 1230.69,317.936 1230.14,315.816C1229.53,315.412 1228.92,315.008 1228.32,314.604C1227.6,314.318 1225.9,314.36 1225.49,313.796C1225.49,311.238 1225.49,308.681 1225.49,306.123C1224.53,304.507 1225.4,298.601 1224.88,296.228C1223.61,290.456 1223.92,284.585 1222.66,278.863C1221.98,275.792 1222.45,268.546 1220.43,267.353C1220.36,268.603 1219.88,269.588 1219.62,270.583C1219.56,271.728 1219.49,272.872 1219.42,274.017C1218.72,276.822 1218.41,279.624 1217,281.69C1215.57,283.763 1212.17,284.264 1209.72,285.325C1208.03,286.054 1206.71,287.867 1203.86,286.94C1200.39,285.817 1198.14,282.326 1195.17,280.478C1191.55,278.232 1187.36,276.937 1185.06,273.411C1184.99,273.411 1184.92,273.411 1184.86,273.411C1184.86,273.479 1184.86,273.546 1184.86,273.613C1183.65,275.317 1184.05,279.065 1184.05,281.892C1184.18,285.594 1184.32,289.296 1184.45,292.998C1185.13,295.51 1186.18,298.6 1186.88,301.277C1187.96,305.401 1185.5,310.31 1184.65,312.787C1183.82,315.218 1184.24,318.879 1184.25,321.873C1180.95,321.873 1177.64,321.873 1174.34,321.873C1174.26,317.519 1174.6,314.391 1175.36,311.171C1176.06,308.138 1175.9,305.014 1176.57,302.285C1177.92,296.709 1177.89,291.295 1179.4,285.929C1180.46,282.144 1182.11,276.418 1182.23,272.199C1181.88,272.078 1181.59,272.019 1181.02,271.997C1180.95,272.199 1180.88,272.401 1180.81,272.602C1179.46,274.636 1179.54,279.225 1178.79,281.891C1176.89,288.647 1176.28,296.166 1174.55,303.295C1173.95,305.755 1174.07,308.442 1173.54,310.767C1173.23,312.077 1173.82,313.688 1172.73,314.199C1172.15,314.552 1171.14,314.219 1170.3,314.402C1167.36,315.044 1164.01,314.992 1160.6,315.007C1155.54,315.03 1150.09,315.43 1145.44,314.402C1144.29,314.402 1143.14,314.402 1142,314.402C1139.13,313.787 1134.11,313.537 1131.08,314.199C1129.05,314.645 1123.96,313.454 1122.59,314.402C1121.64,315.066 1121.18,321.238 1121.18,323.287C1121.18,328.802 1120.27,335.002 1121.38,340.046C1121.45,342.335 1121.52,344.624 1121.58,346.912C1121.92,348.449 1121.58,350.501 1121.99,352.162C1124.21,361.324 1125.44,371.233 1127.64,380.634C1128.6,384.709 1128.19,389.223 1129.06,393.154C1128.99,395.106 1128.93,397.058 1128.86,399.011C1128.86,404.919 1128.34,411.877 1129.47,416.981C1129.47,423.981 1129.47,430.983 1129.47,437.982C1129.47,439.602 1129.05,444.457 1129.67,445.454C1130.58,447.857 1133.75,448.665 1136.14,449.694C1140.64,451.635 1145.75,453.763 1151.5,454.541C1152.46,464.913 1153.23,474.703 1155.34,484.022C1155.41,485.436 1155.47,486.849 1155.54,488.262C1156.15,493.241 1156.76,498.224 1157.36,503.205C1159.98,512.748 1163.88,522.177 1166.86,531.273C1169.22,538.437 1170.25,545.87 1172.32,553.283C1173.54,557.652 1173.23,562.216 1174.34,566.812C1175.38,571.112 1175.35,575.987 1176.36,580.542C1177.04,583.619 1176.55,586.801 1177.17,589.627C1177.24,594.273 1177.31,598.917 1177.37,603.563C1177.91,606.023 1177.4,608.825 1177.98,611.437C1178.65,616.216 1179.33,620.996 1180,625.775C1178.93,626.519 1178.92,627.687 1177.17,627.794C1176.66,628.182 1169.57,628.948 1168.28,628.399C1167.61,628.117 1167.68,627.682 1166.46,627.591C1166.34,627.94 1166.28,628.229 1166.26,628.802C1166.8,629.163 1167.2,629.817 1167.87,630.015C1169.67,630.54 1177.42,629.851 1178.59,629.41C1179.7,628.984 1180.08,627.412 1181.01,626.986C1182.83,626.986 1184.65,626.986 1186.47,626.986C1187.3,626.495 1188.55,626.815 1189.5,626.381C1190.56,625.894 1192.58,624.781 1192.74,623.352C1192.28,623.104 1192.28,623.02 1191.52,622.947C1189.38,625.16 1186.08,625.387 1181.62,625.371C1181.26,621.833 1180.78,617.827 1180,614.468C1179.4,611.894 1179.73,609.045 1179.19,606.594C1179.06,600.872 1178.92,595.151 1178.79,589.429C1177.98,585.828 1178.38,581.518 1177.58,577.918C1177.58,577.246 1177.58,576.572 1177.58,575.899C1175.16,565.466 1174.94,554.324 1172.12,544.398C1170.81,539.808 1169.84,534.942 1168.28,530.263C1165.34,521.45 1161.64,512.174 1158.98,503.003C1158.3,497.281 1157.63,491.56 1156.95,485.838C1156.89,484.562 1156.82,483.28 1156.75,482.001C1154.87,473.963 1153.41,464.466 1153.32,455.146C1154.26,455.148 1155.38,455.32 1155.94,455.752C1157.06,457.613 1156.55,463.792 1157.16,466.454C1158.79,473.589 1157.96,481.989 1159.58,489.269C1159.72,491.29 1159.85,493.309 1159.99,495.328C1163.63,509.361 1168.06,523.016 1172.32,536.118C1172.92,539.35 1173.53,542.582 1174.14,545.811C1176.02,552.821 1177.09,560.563 1178.79,567.621C1179.12,572.734 1179.46,577.85 1179.8,582.965C1180.77,587.384 1179.8,592.899 1180.81,597.505C1180.81,599.255 1180.81,601.005 1180.81,602.755C1181.04,603.816 1180.71,605.687 1181.01,606.995C1182.28,612.592 1182.26,618.809 1183.43,624.765C1183.79,624.886 1184.07,624.946 1184.65,624.968C1184.9,624.238 1184.87,622.972 1184.85,621.939C1184.53,621.407 1184.83,620.503 1184.65,619.718C1184.07,617.13 1184.27,614.479 1183.64,611.843C1182.96,609.021 1183.11,605.505 1182.43,602.351C1182.07,600.716 1182.53,598.487 1182.22,597.1C1181.87,595.466 1182.32,593.236 1182.02,591.852C1181.54,589.649 1182.03,587.287 1181.62,585.389C1181.02,582.653 1181.56,579.799 1181.01,577.312C1180.81,574.014 1180.61,570.716 1180.4,567.418C1178.41,559.337 1177.38,550.547 1175.15,542.582C1174.74,540.292 1174.34,538.003 1173.93,535.716C1172.46,530.947 1170.46,525.923 1168.88,521.175C1166.07,512.697 1163.87,503.658 1161.61,494.926C1161.2,490.012 1160.8,485.099 1160.39,480.185C1159.52,472.108 1158.64,464.031 1157.76,455.954C1160.17,456.075 1163.02,456.458 1165.24,456.964C1168.03,457.6 1170.96,457.395 1173.53,457.974C1175.91,458.509 1179.42,457.754 1181.21,458.984C1181.44,459.325 1181.43,459.973 1181.42,460.6C1180.5,462.03 1181.03,464.611 1180.61,466.455C1179.54,471.058 1180,477.676 1180,483.215C1180,486.59 1179.69,490.275 1180.4,493.109C1181.28,496.604 1181.41,500.581 1182.22,504.217C1182.29,505.696 1182.36,507.178 1182.43,508.656C1182.73,509.571 1183.72,510.575 1184.04,511.485C1184.18,512.696 1184.31,513.907 1184.45,515.12C1184.83,516.386 1185.52,517.694 1185.86,519.157C1185.93,520.436 1186,521.716 1186.06,522.994C1186.94,526.117 1188.29,529.601 1189.3,532.687C1190.53,536.451 1191.18,540.698 1192.13,544.398C1192.26,546.551 1192.39,548.707 1192.53,550.86C1192.92,552.624 1192.48,554.844 1192.93,556.918C1193.23,558.238 1192.79,560.396 1193.14,561.966C1193.41,563.223 1193.01,565.305 1193.34,566.814C1194.3,571.182 1193.62,576.439 1194.55,580.544C1194.69,582.294 1194.82,584.044 1194.96,585.795C1195.89,589.993 1196.24,595.941 1195.77,601.141C1195.63,602.631 1194.95,608.278 1195.36,609.62C1195.68,610.66 1196.66,611.811 1196.98,612.851C1197.91,615.86 1194.65,620.412 1193.34,621.331C1193.34,621.399 1193.34,621.468 1193.34,621.533C1193.41,621.533 1193.47,621.533 1193.54,621.533C1194.68,622.93 1197.53,623.397 1198.19,625.17C1198.84,626.071 1199,627.735 1199,629.208C1197.93,629.538 1197.39,630.316 1196.57,630.823C1195.04,631.772 1193.43,632.123 1191.92,633.045C1187.32,635.856 1183.53,638.29 1175.95,638.295C1174.67,638.295 1173.39,638.295 1172.11,638.295C1171.21,638.074 1169.77,637.722 1168.88,637.487C1165.65,636.638 1159.38,635.593 1159.38,631.834C1160.33,630.375 1158.13,624.697 1157.56,623.755C1156.21,621.54 1154.37,619 1153.31,616.689C1153.18,615.612 1153.04,614.536 1152.91,613.457C1151.72,608.617 1152.53,603.236 1152.51,597.909C1153.91,597.023 1155.35,595.588 1155.34,593.265C1154.31,591.918 1155,590.329 1154.53,588.217C1153.57,583.913 1153.79,578.909 1153.72,573.677C1153.67,570.266 1152.45,567.18 1151.7,564.389C1151.13,562.273 1151.14,560.035 1150.68,558.128C1150.35,555.504 1150.01,552.878 1149.67,550.254C1149.46,549.78 1148.7,549.105 1148.46,548.638C1147.68,547.095 1147.07,544.958 1146.64,543.388C1146.31,540.832 1145.97,538.272 1145.63,535.716C1145.1,534.211 1143.66,532.759 1143,531.274C1139.31,522.874 1135.48,514.653 1133.1,505.224C1132.76,501.658 1132.42,498.089 1132.09,494.521C1130.34,485.099 1128.58,475.674 1126.83,466.251C1125.6,461.104 1125.74,455.5 1124.61,450.501C1123.46,436.367 1122.32,422.23 1121.17,408.097C1120.97,404.058 1120.77,400.019 1120.56,395.981C1120.11,393.902 1119.46,386.627 1119.96,384.269C1120.77,380.415 1120.56,374.285 1119.76,370.74C1119.76,368.586 1119.76,366.432 1119.76,364.278C1119.89,363.617 1120.43,362.099 1120.16,361.249C1119.87,360.332 1118.83,359.398 1118.34,358.624C1116.6,355.87 1114.97,353.05 1113.29,350.345C1111.98,348.243 1111.17,345.528 1110.26,343.075C1109.74,341.673 1109.98,340.059 1108.24,339.845C1107.99,340.306 1107.9,340.299 1107.83,341.056C1108.84,343.883 1109.85,346.71 1110.86,349.537C1112.58,352.387 1114.3,355.326 1116.12,358.22C1116.76,359.23 1118.31,360.609 1118.55,361.854C1118.62,362.26 1118.22,363.709 1118.14,364.076C1118.14,365.961 1118.14,367.845 1118.14,369.729C1118.15,371.219 1118.48,372.401 1118.75,373.566C1118.68,376.729 1118.61,379.893 1118.55,383.057C1116.27,384.309 1113.43,391.211 1111.87,393.759C1107.7,400.572 1103.72,407.751 1099.54,414.557C1098.55,416.177 1098.12,417.96 1097.12,419.606C1092.14,427.78 1088.4,436.499 1084.38,445.655C1082.12,450.81 1079.47,456.166 1077.31,461.405C1076.18,464.126 1075.82,466.85 1074.88,469.683C1073.67,473.329 1072.23,477.341 1071.04,480.993C1070.34,483.125 1070.31,485.756 1069.83,487.856C1069.44,489.513 1070.29,495.011 1070.63,496.338C1071.36,499.14 1071.04,501.959 1072.05,504.617C1072.6,506.051 1073.89,507.412 1074.68,508.654C1076.75,511.921 1078.8,514.897 1080.94,517.944C1089.27,529.763 1096.17,542.86 1103.79,555.3C1104.82,556.977 1105.19,558.884 1106.01,560.753C1108.26,565.909 1110.36,571.208 1112.68,576.501C1113.85,579.162 1116.03,582.635 1117.74,584.983C1118.51,586.037 1119.82,586.695 1120.57,587.81C1119.54,587.916 1114.98,589.075 1114.3,589.625C1114.12,589.89 1114.12,590.124 1114.1,590.636C1114.35,590.768 1114.52,590.857 1114.7,591.041C1118.53,590.287 1121.98,589.227 1125.22,587.81C1126.38,587.302 1127.68,586.235 1128.86,585.791C1129.6,585.791 1130.34,585.791 1131.08,585.791C1135.44,585.783 1138.06,587.149 1142,587.204C1142.12,586.855 1142.17,586.566 1142.2,585.993C1141.74,585.745 1141.74,585.661 1140.98,585.588C1140.04,584.969 1130.69,583.46 1128.45,584.175C1127.76,584.396 1127.13,584.965 1126.23,585.186C1125.89,584.182 1124.97,583.717 1124.41,582.962C1122.88,580.916 1120.6,578.84 1119.56,576.5C1117.83,572.625 1116.62,568.886 1114.91,564.991C1113.29,561.311 1110.92,557.497 1108.84,554.088C1106.13,549.639 1104.48,544.812 1101.77,540.356C1099.08,535.945 1096.45,531.622 1093.68,527.231C1090.41,522.06 1086.91,516.933 1083.37,511.885C1082.03,509.966 1080.67,508.05 1079.33,506.029C1078.96,505.471 1078.17,504.85 1077.91,504.214C1077.71,502.733 1077.51,501.25 1077.31,499.769C1075.28,491.344 1077.1,484.17 1079.33,477.357C1080.54,473.649 1081.16,469.853 1082.56,466.656C1085.69,459.505 1088.11,452.371 1091.26,445.25C1091.59,444.492 1092.29,443.753 1092.67,443.028C1094.27,440.008 1095.6,436.961 1097.32,434.143C1098.27,432.592 1098.6,430.851 1099.54,429.297C1101.81,425.578 1103.52,421.551 1105.61,417.585C1109.8,409.643 1114.6,401.853 1118.55,393.758C1118.61,393.758 1118.68,393.758 1118.75,393.758C1118.75,394.633 1118.75,395.508 1118.75,396.383C1120.03,413.074 1121.31,429.77 1122.59,446.461C1120.32,448.103 1118.19,451.962 1116.52,454.335C1113.7,458.365 1111.13,462.533 1108.44,466.856C1107.58,468.24 1105.92,469.94 1105.41,471.501C1105.12,472.38 1105.34,473.827 1105.2,474.53C1104.22,474.526 1103.48,474.669 1102.78,474.933C1102.71,475.504 1102.46,475.961 1102.38,476.346C1102.14,477.357 1102.88,478.652 1102.57,479.175C1101.32,480.656 1100.09,480.176 1100.15,483.212C1099.75,483.412 1099.34,483.615 1098.94,483.817C1098.4,484.534 1096.74,491.501 1097.12,492.905C1097.49,494.27 1098.54,495.26 1099.14,496.337C1100.41,498.636 1101,501.189 1102.37,503.405C1103.21,504.751 1104.67,505.829 1105,507.643C1105.2,507.643 1105.4,507.643 1105.61,507.643C1106.21,509.689 1108.17,511.398 1109.25,513.096C1111.98,517.397 1114.29,521.912 1116.93,526.22C1119.78,530.883 1121.74,536.243 1124,541.366C1125.17,544.001 1126.96,546.799 1128.45,549.242C1131.09,553.562 1132.93,558.321 1135.53,562.567C1136.63,564.375 1137.17,566.343 1138.15,568.223C1139.31,570.43 1140.84,572.897 1141.79,575.289C1142.19,576.288 1141.16,578.828 1142.2,579.528C1142.7,579.064 1143.59,579.093 1144.62,579.126C1145.06,579.8 1145.77,580.507 1146.44,580.944C1146.1,581.709 1144.84,583.409 1144.83,584.173C1144.81,585.081 1145.81,586.315 1146.04,586.999C1146.04,586.999 1145.68,591.482 1145.63,591.645C1145.17,593.074 1143.6,594.46 1142.8,595.682C1140.77,598.797 1138.56,603.825 1135.53,605.78C1132.75,607.567 1127.94,605.894 1124.81,605.78C1121.08,605.641 1118.48,607.453 1114.5,606.589C1113.63,606.589 1112.75,606.589 1111.87,606.589C1110.56,605.865 1109.65,600.938 1108.84,599.319C1107.85,597.337 1106.79,599.169 1106.82,595.077C1106.19,594.897 1101.94,592.426 1101.77,592.048C1101.77,590.837 1101.77,589.624 1101.77,588.413C1102.1,587.903 1101.86,587.453 1101.77,586.8C1094.93,582.315 1093.16,573.821 1089.84,565.799C1088.1,561.602 1085.87,557.435 1083.57,553.682C1081.94,551.008 1081.15,548.075 1079.53,545.403C1073.96,536.245 1068.43,527.42 1062.35,518.751C1056.92,511.02 1050.55,506.074 1047.59,495.528C1047.59,494.586 1047.59,493.643 1047.59,492.701C1047.59,487.79 1048.7,484.877 1050.02,481.392C1053.33,472.579 1055.7,463.464 1058.71,454.537C1059.6,451.888 1059.84,449.516 1060.73,446.864C1062.25,442.321 1064.22,437.754 1065.78,433.133C1066.89,429.867 1067.08,426.016 1068.41,422.834C1069.65,419.88 1071.56,416.761 1072.86,413.748C1073.6,412.022 1073.75,410.449 1074.47,408.699C1077.04,402.464 1079.26,395.846 1081.96,389.718C1083.43,386.366 1085.51,383.069 1087.21,379.824C1088.81,376.761 1089.84,373.469 1091.66,370.534C1092.53,369.127 1093.85,367.714 1094.69,366.294C1095.37,365.141 1094.5,363.768 1094.89,362.861C1095.63,362.188 1096.38,361.515 1097.12,360.841C1098.03,359.487 1097.82,357.449 1098.53,355.995C1098.99,355.046 1100.48,354.329 1100.96,353.37C1101.91,351.458 1100.57,348.462 1100.96,346.909C1101.07,346.449 1101.74,345.724 1101.97,345.293C1102.85,343.601 1103.39,341.892 1104.39,340.245C1105.23,338.876 1106.54,337.435 1106.82,335.6C1105.79,334.202 1105.08,330.025 1104.6,328.128C1104.27,326.826 1104.65,325.087 1103.99,324.09C1103.36,323.446 1102.4,322.891 1101.56,322.474C1101.29,318.022 1101.01,317.122 1103.99,314.397C1104.07,310.048 1102.69,307.51 1102.17,303.695C1102.95,303.117 1103.69,302.127 1103.79,300.868C1103.17,300.09 1102.96,299.013 1102.37,298.243C1101.77,297.839 1101.16,297.435 1100.55,297.031C1100.55,296.695 1100.55,296.357 1100.55,296.021C1099.75,294.791 1101.29,289.496 1101.77,288.55C1104.44,283.217 1104.71,274.518 1106.21,268.155C1106.78,265.74 1106.32,263.092 1106.82,260.885C1107.16,256.981 1107.49,253.076 1107.83,249.173C1108.14,247.95 1108.73,246.359 1109.04,245.135C1109.11,242.644 1109.18,240.153 1109.25,237.663C1109.79,235.195 1109.78,230.725 1109.25,228.374C1109.25,227.499 1109.25,226.624 1109.25,225.749C1108.25,221.544 1107.6,217.146 1106.41,212.825C1106.04,211.458 1105.31,208.73 1105.81,206.768C1107.42,200.474 1109.66,194.774 1111.87,189.2C1112.14,187.585 1112.41,185.969 1112.68,184.354C1114.13,180.801 1115.62,176.6 1116.73,172.643C1116.79,171.768 1116.86,170.892 1116.93,170.018C1117.32,168.764 1117.89,167.833 1117.94,165.979C1121.44,165.122 1124.53,162.702 1127.24,160.931C1128.39,160.178 1129.55,159.877 1130.67,159.114C1132.16,158.11 1133.66,156.711 1135.53,156.085C1135.53,156.152 1135.53,156.22 1135.53,156.287C1132.83,159.044 1132.05,164.026 1130.67,168.201C1129.81,170.83 1128.72,173.878 1127.84,176.48C1127.71,177.288 1127.58,178.096 1127.44,178.903C1126.67,181.129 1125.26,183.632 1124.61,185.971C1124.46,186.492 1125.59,193.598 1125.82,194.25C1126.18,194.123 1126.02,194.211 1126.23,194.048C1127.1,193.744 1127.21,193.094 1127.84,192.634C1128.61,192.083 1129.46,191.932 1130.27,191.423C1131.15,190.871 1132.02,189.949 1132.9,189.403C1133.84,188.82 1134.92,188.708 1135.93,188.192C1138.28,186.986 1140.56,185.622 1142.8,184.153C1144.44,183.082 1145.52,181.25 1147.05,180.114C1155.7,173.67 1163,165.677 1169.49,157.094C1170.57,156.084 1171.64,155.075 1172.72,154.065C1174.39,151.843 1175.96,149.268 1178.18,147.604C1179.76,146.414 1182.57,144.977 1183.43,143.161C1183.5,143.161 1183.57,143.161 1183.64,143.161C1183.64,143.094 1183.64,143.026 1183.64,142.959C1183.5,142.959 1183.37,142.959 1183.23,142.959C1180.36,145.211 1174.95,144.335 1171.11,143.968C1171.18,150.063 1168.37,153.396 1165.85,156.891C1163.82,159.704 1161.86,162.422 1159.78,165.171C1158.09,167.412 1155.36,168.91 1153.31,170.825C1151.16,172.845 1149.58,174.076 1146.24,175.066C1145.42,175.309 1143.03,175.919 1142,175.268C1143.89,174.961 1145.47,173.19 1146.85,172.239C1150.77,169.526 1157.38,163.69 1158.57,158.508C1158.51,158.508 1158.44,158.508 1158.37,158.508C1156.92,160.777 1153.05,163.258 1149.88,163.96C1148.15,164.343 1145.5,163.785 1144.83,162.951C1144.67,162.734 1144.7,162.76 1144.62,162.345C1146.59,162.379 1147.79,161.901 1149.27,161.537C1151.06,158.795 1151.07,157.671 1151.9,153.864C1151.9,150.768 1151.9,147.671 1151.9,144.575C1152.3,142.728 1152.62,140.373 1152.71,138.517C1152.64,138.517 1152.57,138.517 1152.51,138.517C1151.7,139.304 1147.38,140.541 1146.65,139.325C1147.88,138.692 1148.25,137.473 1149.27,136.7C1151.98,134.66 1155.75,132.247 1156.75,128.622C1156.69,128.622 1156.62,128.622 1156.55,128.622C1155.1,130.477 1151.96,131.455 1148.67,131.449C1148.67,131.382 1148.67,131.314 1148.67,131.247C1148.73,131.247 1148.8,131.247 1148.87,131.247C1149.57,130.518 1150.7,130.042 1151.3,129.227C1152.79,127.189 1155.28,122.932 1155.54,119.938C1155.47,119.938 1155.4,119.938 1155.34,119.938C1155.34,120.073 1155.34,120.208 1155.34,120.342C1152.84,121.723 1147.41,128.317 1146.44,131.246C1146.38,132.188 1146.31,133.131 1146.24,134.073C1145.63,136.698 1145.03,139.323 1144.42,141.948C1144.19,142.569 1143.51,143.204 1143.21,143.765C1142.09,145.832 1141.47,147.948 1140.18,149.823C1139.64,150.295 1139.1,150.765 1138.56,151.237C1138.23,151.683 1138.19,152.332 1137.75,152.65C1134.77,154.83 1131.34,156.242 1128.25,158.304C1124.05,161.11 1119.65,164.377 1113.9,165.574C1113.9,165.506 1113.9,165.439 1113.9,165.372C1113.96,165.372 1114.03,165.372 1114.1,165.372C1115.07,164.159 1117.21,163.508 1117.33,161.536C1115.66,160.668 1111.83,161.108 1109.45,161.132C1109.38,160.997 1109.31,160.863 1109.25,160.728C1109.31,160.728 1109.38,160.728 1109.45,160.728C1109.45,160.661 1109.45,160.594 1109.45,160.527C1112.13,160.414 1114.33,159.137 1116.32,158.305C1120.14,156.709 1125.49,154.548 1127.64,151.439C1130.1,147.892 1131.81,143.116 1133.7,139.122C1138.28,138.603 1139.29,135.541 1139.16,130.237C1139.1,130.237 1139.03,130.237 1138.96,130.237C1138.32,131.008 1137.28,131.162 1136.33,131.651C1134.17,132.773 1132.18,134.117 1131.08,136.296C1130.94,136.296 1130.81,136.296 1130.67,136.296C1130.67,136.094 1130.67,135.892 1130.67,135.69C1131.76,134.175 1132.08,132.174 1133.1,130.642C1135.89,126.44 1139.87,124.335 1138.36,117.517C1137.9,117.269 1137.9,117.186 1137.14,117.113C1136.01,118.883 1134.45,120.066 1133.7,122.363C1133.19,123.954 1133.58,126.324 1132.69,127.613C1132.4,125.746 1131.93,122.74 1132.49,120.546C1132.98,118.643 1133.67,117.292 1133.7,114.69C1133.64,114.69 1133.57,114.69 1133.5,114.69C1132.38,115.866 1131.2,116.495 1130.67,118.325C1130.18,120.014 1130.49,123.297 1129.66,124.585C1129.43,121.713 1128.26,118.493 1129.26,115.498C1129.65,114.341 1130.67,113.811 1131.08,112.671C1126.18,111.545 1116.86,111.073 1116.52,105.604C1116.81,105.177 1116.7,104.537 1116.93,103.989C1117.66,102.188 1118.62,101.031 1118.34,98.536C1117.41,98.509 1117.21,98.317 1116.52,98.132C1116.38,97.718 1116.32,97.189 1116.32,96.517C1116.48,96.279 1116.48,96.178 1116.52,95.709C1117.19,95.314 1119.02,94.355 1119.15,93.488C1118.95,92.748 1118.75,92.007 1118.55,91.267C1116.33,90.342 1116.78,90.599 1115.31,89.046C1116.02,87.46 1117.09,87.168 1117.13,84.806C1115.14,84.572 1111.81,82.62 1111.47,80.767C1111.2,80.365 1111.25,79.453 1111.27,78.747C1112.34,78.016 1112.88,76.687 1113.9,75.92C1116.43,74.007 1118.5,72.29 1119.35,68.651C1119.87,66.44 1117.95,64.681 1118.75,62.189C1119.99,58.31 1121.18,53.446 1122.79,49.67C1123.37,48.312 1124.43,46.776 1125.02,45.429C1126.1,42.938 1126.65,40.723 1128.05,38.564C1130.1,35.379 1135.51,31.901 1139.37,30.486C1144,28.787 1148.87,28.266 1155.13,28.266C1157.22,28.266 1159.31,28.266 1161.4,28.266C1166.02,29.32 1170.42,30.497 1174.34,32.102C1176.47,32.974 1178.68,33.281 1180.4,34.526C1193.79,44.176 1197.09,61.154 1202.44,78.748C1203.34,81.717 1203.39,84.595 1204.26,87.633C1205.24,91.095 1206.07,95.177 1207.09,98.537C1207.29,99.816 1207.49,101.095 1207.69,102.374C1209.88,109.572 1212.11,117.267 1214.16,124.585C1214.84,129.969 1215.51,135.356 1216.18,140.74C1218.28,148.213 1221.22,154.743 1223.26,162.346C1223.46,164.23 1223.66,166.116 1223.86,168C1224.76,171.923 1225.74,177.351 1225.08,181.731C1225.08,183.278 1225.08,184.827 1225.08,186.375C1224.81,188.798 1224.54,191.222 1224.27,193.644C1221.81,195.117 1222.77,198.277 1222.04,201.52C1221.4,204.415 1221.49,208.017 1220.83,211.011C1220.83,211.751 1220.83,212.491 1220.83,213.232C1220.33,215.571 1220.06,218.547 1220.02,221.107C1219.95,223.665 1219.89,226.223 1219.82,228.78C1220.65,230.866 1219.63,240.803 1219.21,243.723C1218.99,245.253 1220.27,248.91 1220.63,250.387C1220.83,253.551 1221.03,256.715 1221.24,259.878C1221.56,261.031 1222.4,262.432 1222.85,263.512C1224.06,266.431 1224.95,269.428 1226.09,272.195C1226.7,273.691 1226.73,275.081 1227.3,276.637C1228.74,280.584 1230.22,284.943 1231.54,288.955C1232.71,292.492 1233.45,296.196 1234.37,299.657C1235,302.022 1234.8,304.145 1235.38,306.523C1236.49,311.005 1238.72,320.256 1237.2,324.898C1235.21,324.401 1233.57,323.905 1230.74,323.893ZM1156.76,45.031C1156.59,48.298 1154.82,51.335 1153.92,54.118C1152.9,57.292 1152.46,68.091 1153.32,72.089C1153.32,74.041 1153.32,75.993 1153.32,77.945C1153.58,79.12 1153.83,80.761 1154.13,81.781C1154.58,83.307 1154.48,85.29 1155.34,86.426C1155.33,76.478 1154.32,64.271 1156.35,55.935C1156.72,54.408 1157.69,46.563 1156.76,45.031ZM1125.22,92.282C1123.03,91.97 1122.07,90.426 1119.56,90.263C1119.7,91.609 1119.83,92.955 1119.96,94.302C1122.09,94.355 1123.72,94.078 1125.22,93.494C1125.22,93.628 1125.22,93.763 1125.22,93.897C1124.44,94.395 1123.79,95.245 1123,95.715C1121.71,96.481 1119.83,96.72 1118.55,97.331C1118.55,97.398 1118.55,97.465 1118.55,97.533C1118.62,97.533 1118.68,97.533 1118.75,97.533C1118.99,97.798 1119.3,98.105 1119.56,98.341C1119.56,99.216 1119.56,100.091 1119.56,100.966C1119.21,102.271 1117.19,104.935 1118.35,106.822C1119.42,110.621 1127.03,110.084 1131.08,110.861C1131.08,110.726 1131.08,110.592 1131.08,110.457C1131.65,109.541 1131.18,107.736 1131.69,106.822C1132.69,105.028 1136.04,104.543 1136.34,102.177C1128.69,94.605 1128.92,86.55 1128.86,71.686C1126.87,71.66 1125.81,72.14 1124.21,72.292C1124.21,72.225 1124.21,72.157 1124.21,72.09C1124.54,71.704 1124.59,71.386 1125.02,71.08C1125.44,70.744 1125.86,70.695 1126.64,70.677C1126.64,70.474 1126.64,70.273 1126.64,70.071C1125.13,69.232 1124.15,68.382 1122.99,67.244C1122.99,66.773 1122.99,66.302 1122.99,65.83C1123.13,65.83 1123.27,65.83 1123.4,65.83C1124.23,66.594 1125.3,66.743 1126.43,67.244C1127.18,67.573 1127.8,68.229 1128.45,68.658C1128.45,68.254 1128.45,67.85 1128.45,67.446C1127.92,66.649 1127.84,64.807 1127.64,63.811C1127.37,63.811 1127.11,63.811 1126.83,63.811C1126.04,63.332 1123.13,64.25 1122.18,64.619C1122.18,64.484 1122.18,64.35 1122.18,64.215C1121.81,63.675 1122.05,62.779 1122.18,62.195C1122.39,62.129 1122.59,62.061 1122.79,61.994C1124.07,61.127 1126.57,62.322 1127.64,62.599C1127.64,61.455 1127.64,60.31 1127.64,59.166C1126.88,57.895 1127.65,55.31 1127.64,53.714C1127.64,52.392 1126.51,46.793 1126.03,46.04C1126.03,46.107 1126.03,46.175 1126.03,46.242C1124.68,47.709 1124.64,49.855 1123.8,51.896C1122.45,55.19 1121.15,59.146 1120.16,62.8C1119.76,64.307 1120.32,66.368 1120.57,67.445C1120.5,68.724 1120.43,70.003 1120.37,71.281C1119.36,71.761 1118.98,73.046 1118.35,73.906C1116.64,76.195 1112.89,77.087 1112.89,80.973C1113.05,81.18 1112.96,81.029 1113.09,81.377C1113.73,81.749 1118.18,83.852 1118.35,84.204C1118.35,84.675 1118.35,85.146 1118.35,85.617C1117.94,86.185 1117.63,87.043 1117.33,87.637C1119.18,87.666 1124.92,91.14 1125.22,92.282ZM1163.22,59.974C1163.02,67.603 1167.65,71.544 1169.89,76.936C1171.31,80.329 1171.63,86.093 1172.52,89.859C1172.52,90.599 1172.52,91.339 1172.52,92.08C1173.31,95.378 1174.54,98.6 1175.35,101.57C1175.42,101.57 1175.49,101.57 1175.56,101.57C1175.56,97.532 1175.56,93.492 1175.56,89.454C1174.84,88.229 1174.79,84.352 1174.14,82.79C1172.7,79.318 1170.54,76.223 1169.09,72.896C1167.49,69.239 1166.16,65.775 1164.23,62.597C1163.76,61.822 1163.76,60.705 1163.22,59.974ZM1173.33,104.196C1173.43,109.478 1173.74,114.73 1172.12,118.735C1171.88,119.312 1171.5,120.381 1171.11,120.956C1170.63,121.36 1170.16,121.764 1169.69,122.168C1168.93,123.285 1168.78,124.645 1168.08,125.802C1166.38,128.58 1164.51,131.236 1163.02,134.283C1163.09,134.283 1163.16,134.283 1163.22,134.283C1164.97,131.718 1168.75,130.814 1170.91,128.629C1173.48,126.02 1175.35,118.916 1175.35,113.484C1175.35,111.345 1175.59,107.086 1174.75,105.811C1174.51,105.072 1173.92,104.574 1173.33,104.196ZM1197.19,140.543C1197.12,140.073 1197.09,140.043 1196.98,139.735C1193.23,138.008 1187.32,138.282 1185.66,134.485C1183.9,130.458 1186.09,123.53 1183.64,120.35C1183.68,122.431 1183.96,125.043 1183.44,126.811C1182.4,130.38 1180,133.677 1179.8,137.917C1180.21,138.061 1180.75,138.117 1181.42,138.119C1181.62,137.956 1181.47,138.047 1181.82,137.917C1181.78,136.657 1181.88,135.737 1182.43,135.09C1182.69,134.912 1182.93,134.909 1183.44,134.887C1185.4,139.207 1190.98,140.552 1197.19,140.543ZM1189.51,121.965C1189.09,126.486 1185.5,129.951 1189.3,133.879C1190.19,134.799 1190.79,135.598 1192.54,135.697C1192.54,135.63 1192.54,135.562 1192.54,135.495C1191.51,134.476 1190.51,132.843 1190.11,131.255C1189.31,128.021 1191.32,124.284 1189.51,121.965ZM1116.13,166.794C1116.06,169.136 1114.86,172.398 1114.3,174.669C1114.17,174.669 1114.04,174.669 1113.9,174.669C1112.67,172.789 1110.38,171.792 1109.05,170.024C1105.49,165.298 1102.04,160.409 1101.97,152.254C1099.32,152.398 1096.45,153.705 1094.09,154.476C1089.51,155.974 1084.81,156.84 1080.34,158.11C1074.54,159.764 1067.95,159.705 1061.75,161.139C1059.28,161.71 1056.72,161.435 1054.47,161.946C1052.62,162.368 1045.54,162.103 1043.96,161.745C1042.34,161.745 1040.72,161.745 1039.11,161.745C1036.74,161.199 1034.1,161.342 1031.42,160.735C1029.91,160.392 1027.15,159.547 1025.36,159.927C1021.66,160.713 1017.14,159.942 1013.63,160.735C1012.35,160.735 1011.07,160.735 1009.79,160.735C1006.78,161.403 1002.52,161.327 999.281,161.341C997.798,161.341 996.315,161.341 994.834,161.341C991.141,162.156 985.954,160.695 982.099,161.543C979.771,162.056 976.988,161.383 974.418,161.946C972.686,162.327 967.34,162.604 965.321,162.149C961.994,161.399 958.286,160.949 954.403,160.937C954.329,164.657 954.76,169.225 954.808,173.254C955.297,173.517 955.382,173.618 956.224,173.658C956.888,174.065 957.731,173.825 958.648,174.062C962.3,175.002 966.284,175.083 970.172,176.081C976.85,177.795 984.226,178.31 990.992,179.918C993.302,180.467 995.734,180.249 997.865,180.726C1001.3,180.86 1004.74,180.995 1008.18,181.129C1010.4,181.62 1013.05,181.18 1015.45,181.736C1018.91,182.536 1022.92,182.741 1026.57,183.552C1028.09,183.89 1030.54,183.435 1031.83,183.148C1033.93,182.68 1035.91,183.124 1037.89,183.148C1039.37,183.148 1040.86,183.148 1042.34,183.148C1045.15,183.764 1048.8,183.677 1051.84,183.956C1053.59,183.956 1055.34,183.956 1057.09,183.956C1061.27,184.861 1067.8,184.158 1072.46,184.158C1076.03,184.091 1079.6,184.023 1083.17,183.956C1088.52,183.956 1093.85,184.15 1098.33,183.148C1101.43,182.946 1104.53,182.744 1107.63,182.543C1109.25,182.158 1110.93,181.484 1112.68,181.332C1112.8,181.656 1112.85,181.817 1112.89,182.341C1101.52,187.942 1079.27,186.176 1062.75,186.178C1055.49,186.178 1047.6,186.545 1041.33,185.168C1037.28,185.168 1033.24,185.168 1029.2,185.168C1027.94,184.893 1025.85,185.297 1024.35,184.966C1021.23,184.279 1017.66,184.229 1014.64,183.552C1007.7,183.082 1000.76,182.61 993.822,182.139C986.361,180.485 978.687,179.842 971.382,178.1C970.371,178.033 969.361,177.965 968.351,177.898C963.835,177.225 959.323,176.552 954.807,175.879C954.569,176.866 954.213,177.085 952.987,177.09C952.515,176.551 952.045,176.013 951.574,175.474C945.979,175.474 940.387,175.474 934.794,175.474C932.527,176.981 925.475,174.405 923.677,173.657C920.791,172.457 918.035,170.565 915.188,169.618C912.68,168.785 909.928,169.302 907.708,168.407C906.588,167.955 900.209,166.087 898.813,166.388C897.366,166.699 895.363,167.415 893.758,167.599C892.545,167.263 891.334,166.926 890.119,166.589C889.801,166.381 889.803,165.605 889.514,165.378C888.79,164.812 887.304,165.212 886.885,164.368C886.885,163.561 886.885,162.753 886.885,161.945C887.497,161.566 888.428,160.838 888.706,160.129C887.343,159.418 886.794,159.151 886.885,156.897C891.114,155.954 895.01,153.739 899.016,152.657C902.047,152.859 905.079,153.061 908.113,153.263C915.634,153.263 920.926,154.744 926.305,156.493C930.663,157.91 935.208,158.654 939.647,159.724C941.087,160.071 949.076,159.881 950.159,159.522C951.591,159.047 952.032,157.876 953.799,157.704C954.581,158.612 955.103,159.511 956.83,159.522C957.874,160.17 959.695,159.627 961.074,159.925C963.375,160.422 966.464,160.211 968.958,160.128C978.729,159.859 988.501,159.589 998.271,159.32C1007.03,158.916 1015.79,158.512 1024.55,158.108C1027.51,158.747 1030.98,158.419 1034.25,159.118C1038.3,159.984 1042.75,160.127 1047.39,160.128C1050.9,160.06 1054.4,159.993 1057.91,159.925C1062.24,158.925 1067.31,158.727 1071.65,157.704C1073,157.57 1074.35,157.435 1075.69,157.3C1084.45,154.946 1093.21,152.589 1101.97,150.233C1102.14,149.423 1102.5,148.344 1103.19,148.012C1105.25,146.459 1109.15,145.894 1111.88,144.983C1118.05,142.92 1125.02,140.819 1131.69,139.329C1131.69,139.397 1131.69,139.464 1131.69,139.531C1130.77,140.495 1130.64,141.804 1130.07,143.166C1129.07,145.555 1127.92,148.235 1126.43,150.233C1123.65,153.986 1117.59,156.337 1112.89,158.108C1110.89,158.862 1106.82,158.381 1106.62,160.935C1106.78,161.142 1106.69,160.99 1106.82,161.339C1107.7,161.643 1108.23,162.489 1109.05,162.753C1110.8,162.753 1112.55,162.753 1114.3,162.753C1114.3,162.887 1114.3,163.022 1114.3,163.157C1112.72,163.665 1111.18,165.135 1110.06,166.186C1110.24,166.404 1110.04,166.203 1110.26,166.388C1110.7,167.6 1113.1,167.266 1114.71,167.195C1115.06,166.938 1115.56,166.857 1116.13,166.794ZM888.1,163.562C890.583,163.932 892.477,162.321 894.973,162.755C894.973,162.823 894.973,162.889 894.973,162.957C894.812,163.164 894.903,163.013 894.771,163.361C893.615,163.844 892.383,164.265 891.336,164.774C891.336,164.842 891.336,164.908 891.336,164.976C891.402,164.976 891.471,164.976 891.536,164.976C892.973,166.168 896.25,165.813 898.207,165.38C898.207,165.313 898.207,165.245 898.207,165.178C897.126,164.496 896.575,163.557 896.591,161.745C897.158,161.009 897.22,160.254 898.005,159.725C899.004,158.952 902.444,159.179 903.869,159.523C905.935,160.022 908.041,160.648 910.135,161.138C913.833,162.003 918.744,160.287 921.861,161.542C921.861,161.609 921.861,161.676 921.861,161.744C918.714,161.838 914.769,163.442 910.741,162.552C906.79,161.679 902.705,160.044 898.411,160.936C898.411,161.071 898.411,161.206 898.411,161.34C898.078,161.819 898.263,162.699 898.411,163.157C899.221,165.647 900.243,165.35 903.465,165.177C906.556,167.489 912.842,166.721 916.807,168.205C919.945,169.381 922.483,171.798 925.904,172.85C932.344,174.831 942.784,173.408 950.565,173.456C950.095,169.567 950.052,165.125 950.162,160.734C947.083,160.817 943.667,161.814 940.66,161.138C939.65,161.138 938.639,161.138 937.629,161.138C932.24,159.59 926.849,158.042 921.457,156.493C920.699,156.208 919.777,155.515 919.031,155.282C915.253,154.099 909.397,155.766 905.285,154.878C903.643,154.524 900.33,153.79 898.614,154.07C897.69,154.221 896.429,155.136 895.583,155.484C893.245,156.442 890.845,156.769 888.507,157.705C888.664,158.068 888.864,158.621 889.115,158.917C889.781,159.606 890.927,159.566 892.346,159.523C893.19,158.943 895.022,158.925 895.985,159.119C895.985,159.254 895.985,159.389 895.985,159.523C895.92,159.523 895.851,159.523 895.785,159.523C895.523,160.021 895.869,159.661 895.38,159.926C894.01,160.775 891.978,160.053 890.325,160.734C889.504,161.073 888.664,162.058 887.899,162.552C887.966,162.889 888.034,163.227 888.1,163.562ZM1184.45,172.448C1184.17,172.961 1184.06,173.155 1184.05,174.063C1182.71,175.51 1183.04,179.001 1183.04,181.737C1183.04,188.765 1184.58,193.412 1185.86,198.698C1185.86,199.439 1185.86,200.179 1185.86,200.92C1186.92,205.389 1187.2,210.571 1188.29,215.055C1188.49,216.872 1188.69,218.689 1188.9,220.507C1189.09,221.034 1189.82,221.654 1190.11,222.122C1191.51,224.37 1192.82,226.608 1194.15,228.786C1195.41,230.833 1195.84,233.262 1197.18,235.248C1198.68,237.455 1202.68,241.071 1204.87,242.72C1205.61,243.527 1206.35,244.335 1207.09,245.143C1211.58,248.413 1215.98,250.921 1218.61,256.046C1218.68,256.046 1218.75,256.046 1218.82,256.046C1218.82,255.844 1218.82,255.643 1218.82,255.44C1218.17,254.418 1218.71,252.791 1218.41,251.402C1217.63,247.84 1217.81,243.46 1217.81,239.286C1217.8,225.129 1217.99,210.202 1220.84,198.497C1221.31,195.064 1221.78,191.631 1222.25,188.198C1221.85,186.609 1219.1,182.875 1217.2,182.746C1216.29,182.293 1212.34,184.517 1211.34,184.968C1205.18,187.718 1198.95,190.38 1193.34,193.65C1191.63,194.651 1190.06,195.374 1188.69,196.679C1188.4,196.962 1187.44,197.76 1187.28,197.487C1186.57,196.432 1186.71,194.994 1186.27,193.65C1185.07,189.969 1184.65,185.782 1184.65,180.727C1184.65,179.515 1184.65,178.304 1184.65,177.092C1185,175.655 1185.61,174.47 1185.66,172.65C1185.6,172.65 1185.53,172.65 1185.46,172.65C1185.46,172.582 1185.46,172.515 1185.46,172.448C1185.12,172.448 1184.79,172.448 1184.45,172.448ZM1153.92,188.804C1153.45,189.495 1152.91,189.617 1152.71,190.621C1152.59,190.815 1152.69,191.007 1152.71,191.631C1153.78,192.378 1154.04,193.752 1154.94,194.66C1156.94,196.699 1159.1,198.57 1161.41,200.314C1162.5,201.139 1163.31,202.513 1164.44,203.343C1166.04,204.521 1169.24,205.781 1169.69,207.988C1169.39,208.096 1169.35,208.125 1168.89,208.19C1168.28,207.444 1167.56,206.825 1166.66,206.373C1166.12,207.928 1163.77,209.613 1162.41,210.412C1162.41,210.546 1162.41,210.681 1162.41,210.815C1163.05,211.208 1163.34,211.438 1163.43,212.43C1163.29,212.43 1163.16,212.43 1163.02,212.43C1163.02,212.498 1163.02,212.565 1163.02,212.633C1162.96,212.633 1162.89,212.633 1162.82,212.633C1162.82,212.565 1162.82,212.498 1162.82,212.43C1160.8,211.709 1159.75,209.221 1158.58,207.584C1156.94,205.305 1154.28,203.893 1152.71,201.526C1151.2,201.862 1149.45,202.158 1149.28,204.353C1148.67,205.802 1151.28,206.992 1152.11,207.785C1154.13,209.713 1155.67,212.408 1157.36,214.651C1158.1,215.628 1159.17,215.908 1159.38,217.478C1159.14,217.653 1159.16,217.645 1158.98,217.882C1158.91,217.882 1158.85,217.882 1158.78,217.882C1158.78,217.815 1158.78,217.747 1158.78,217.68C1156.73,216.318 1155.2,213.785 1153.73,211.824C1152.44,210.113 1150.55,208.548 1149.08,206.978C1148.72,207.105 1148.88,207.017 1148.67,207.18C1148.09,207.407 1148.3,207.216 1148.07,207.786C1146.12,210.605 1149.17,214.414 1150.09,215.863C1153.38,221.047 1155.55,227.538 1164.24,227.373C1168.91,235.995 1173.11,244.907 1176.97,254.229C1179.2,259.606 1180.83,264.812 1183.64,269.374C1183.99,269.936 1184,270.753 1184.45,271.191C1184.97,271.689 1185.89,271.777 1186.47,272.201C1187.16,272.701 1187.48,273.639 1188.09,274.22C1189.34,275.411 1192.9,276.445 1194.56,277.45C1195.85,278.236 1197.35,279.147 1198.6,280.075C1199.91,281.048 1200.78,282.913 1202.24,283.709C1206.56,286.055 1214.88,281.086 1216.6,278.257C1217.4,276.925 1217.19,275.162 1217.61,273.41C1218.61,269.178 1219.57,258.586 1217,255.641C1216.44,254.995 1215.47,254.552 1214.78,254.026C1213.63,252.814 1212.48,251.602 1211.34,250.391C1210.21,249.553 1209.05,249.004 1207.9,248.17C1205.95,246.752 1204.57,244.364 1202.65,242.92C1200.57,241.357 1197.94,239.732 1196.38,237.67C1193.16,233.415 1191.51,227.509 1188.7,222.929C1187.45,220.895 1186.1,218.616 1184.65,216.669C1183.48,215.088 1181.47,213.936 1180.41,212.227C1179.48,210.732 1180.55,208.169 1180.01,206.169C1179.85,205.582 1179.36,204.626 1179.2,203.948C1178.46,200.856 1179.8,197.495 1178.39,195.264C1177.52,193.892 1170.01,189.678 1168.08,189.207C1166.21,188.752 1165.11,190.068 1164.03,190.418C1163.05,190.738 1162.33,190.061 1161.81,190.822C1162.69,191.124 1162.79,191.774 1163.43,192.236C1164.49,193.007 1165.64,193.445 1166.66,194.255C1167.25,194.727 1167.66,195.623 1168.28,196.072C1170.36,197.583 1172.85,198.709 1174.95,200.111C1174.76,200.329 1174.96,200.128 1174.75,200.313C1174.43,200.682 1174.57,200.595 1173.94,200.717C1173.2,200.448 1172.46,200.179 1171.71,199.909C1168.44,197.921 1165.19,195.673 1162.01,193.448C1159.44,191.649 1158.22,188.859 1153.92,188.804ZM1154.94,196.073C1154.02,197.375 1153.12,197.506 1153.12,199.909C1155.44,202.297 1158.63,204.74 1160.19,207.784C1161.65,207.094 1163.32,205.993 1163.83,204.352C1161.61,203.225 1157.99,200.423 1156.55,198.496C1155.97,197.715 1155.68,196.679 1154.94,196.073ZM1151.5,261.498C1150.53,262.097 1148.91,261.749 1147.66,262.103C1145.41,262.744 1143.06,263.401 1140.99,264.325C1138.92,265.245 1136.81,266.806 1134.92,267.959C1133.02,269.124 1131.03,269.695 1129.06,270.786C1127.11,271.866 1125.14,273.495 1123,274.421C1121.28,275.162 1119.1,275.375 1117.14,275.834C1116.3,276.029 1115.28,275.676 1114.71,276.036C1114.53,276.298 1114.53,276.534 1114.51,277.045C1115.2,277.416 1116.13,277.472 1117.34,277.449C1118.44,276.799 1120.01,277.253 1121.38,276.844C1122.99,276.36 1125.26,275.25 1126.84,274.421C1132.44,271.475 1137.75,267.393 1143.82,264.93C1147.05,263.617 1150.9,263.666 1154.74,262.91C1154.86,262.562 1154.91,262.273 1154.94,261.698C1154.87,261.698 1154.8,261.698 1154.74,261.698C1154.74,261.632 1154.74,261.564 1154.74,261.497C1153.65,261.498 1152.58,261.498 1151.5,261.498ZM1163.83,264.123C1162.39,265.035 1160.1,264.234 1159.99,266.547C1160.12,266.547 1160.26,266.547 1160.39,266.547C1161.49,267.189 1163.93,265.753 1165.65,265.739C1169.75,265.706 1171.54,267.12 1175.35,266.143C1176.32,265.894 1177.12,266.194 1177.78,265.739C1177.95,265.59 1178.01,265.485 1178.18,265.335C1178.05,264.981 1178.14,265.139 1177.98,264.931C1177.72,264.432 1178.07,264.794 1177.58,264.527C1176.08,263.634 1173.7,265.381 1171.92,265.133C1170.92,264.995 1170.01,264.348 1169.29,264.123C1167.47,264.123 1165.65,264.123 1163.83,264.123ZM1156.15,274.018C1153.3,276.17 1143.58,274.184 1139.37,275.229C1132.9,276.835 1127.82,279.535 1122.39,281.893C1120.91,282.364 1119.42,282.835 1117.94,283.306C1117.77,283.456 1117.71,283.561 1117.54,283.71C1117.67,284.064 1117.58,283.906 1117.74,284.114C1118,284.612 1117.65,284.251 1118.15,284.518C1119.22,285.201 1123.84,282.992 1124.82,282.498C1128.79,280.482 1133.23,278.626 1137.76,277.248C1140.1,276.536 1143.19,277 1145.64,276.44C1148.99,275.676 1156.92,278.041 1157.16,274.421C1156.78,274.252 1156.62,274.143 1156.15,274.018ZM1174.95,279.267C1174.33,279.779 1173.42,279.81 1172.72,280.277C1171.07,281.392 1169.92,283.308 1167.67,283.912C1166.6,284.201 1165.51,283.665 1164.84,283.508C1162.84,283.036 1161.28,283.39 1159.58,282.7C1157.46,281.834 1155.16,280.324 1152.51,280.075C1152.51,280.209 1152.51,280.344 1152.51,280.478C1154.68,281.941 1156.96,283.666 1159.79,284.517C1161.4,285.003 1162.62,284.734 1164.43,285.122C1165.41,285.33 1167.81,285.666 1169.08,285.325C1170.71,284.891 1172.58,284.106 1173.94,283.507C1175.9,282.639 1177.72,282.261 1177.78,279.469C1177.71,279.469 1177.64,279.469 1177.58,279.469C1177.58,279.401 1177.58,279.334 1177.58,279.266C1176.7,279.267 1175.82,279.267 1174.95,279.267ZM1148.27,291.585C1147.13,292.286 1145.52,292.1 1144.22,292.595C1142.7,293.178 1140.73,294.146 1138.96,294.614C1137.42,294.614 1135.87,294.614 1134.32,294.614C1128.81,294.614 1120.8,293.723 1116.93,295.624C1115.22,296.467 1112.34,296.602 1112.08,298.855C1112.41,298.968 1112.57,299.016 1113.09,299.057C1116.07,294.898 1124.92,295.1 1131.08,296.432C1132.57,296.432 1134.05,296.432 1135.53,296.432C1136.42,296.621 1137.95,296.856 1138.76,297.038C1140.38,297.038 1142,297.038 1143.61,297.038C1147.86,297.038 1151.39,296.784 1154.33,295.624C1155.54,295.145 1156.66,295.39 1157.16,294.21C1157.45,293.776 1157.39,292.734 1157.36,291.989C1157.12,291.813 1157.13,291.822 1156.96,291.585C1154.06,291.585 1151.16,291.585 1148.27,291.585ZM1153.92,301.681C1154.96,301.693 1155.56,301.433 1156.15,301.278C1157.09,301.278 1158.04,301.278 1158.98,301.278C1161.24,301.277 1163.09,301.249 1164.84,300.672C1166.03,300.281 1167.33,299.449 1168.48,299.057C1169.64,298.664 1171.36,299.079 1172.32,298.451C1168.53,295.848 1164.88,298.863 1161.2,299.865C1159.13,300.43 1156.24,300.036 1154.33,300.47C1154.15,300.711 1154.16,300.697 1153.92,300.874C1153.92,301.143 1153.92,301.412 1153.92,301.681ZM1130.48,300.065C1128.53,301.357 1124.3,300.886 1121.99,301.883C1118.66,303.317 1115.59,305.404 1112.28,306.729C1111.01,307.238 1107.1,307.373 1106.22,307.94C1106.04,308.202 1106.04,308.439 1106.02,308.95C1106.22,309.017 1106.42,309.085 1106.62,309.152C1107.88,309.974 1113.16,308.226 1114.1,307.739C1119.53,304.936 1125.16,301.793 1133.31,301.68C1133.56,301.221 1133.64,301.226 1133.71,300.469C1133.51,300.402 1133.31,300.334 1133.11,300.267C1132.6,299.936 1131.31,300.041 1130.48,300.065ZM1150.29,306.931C1149.23,307.563 1146.31,307.133 1144.83,307.133C1141.32,307.133 1137.83,307.237 1135.73,308.748C1141.93,308.681 1148.13,308.613 1154.33,308.547C1154.46,308.293 1154.55,308.128 1154.73,307.94C1154.61,307.587 1154.69,307.745 1154.53,307.537C1154.27,307.039 1154.62,307.4 1154.13,307.133C1153.42,306.673 1151.37,306.905 1150.29,306.931ZM1119.36,310.97C1117.15,312.704 1112.17,313.126 1110.06,314.807C1109.65,315.682 1109.25,316.557 1108.85,317.432C1107.09,317.432 1105.34,317.432 1103.59,317.432C1103.32,318.263 1103.02,318.43 1102.98,319.653C1103.48,320.138 1106.16,323.865 1106.22,323.893C1107.09,323.893 1107.97,323.893 1108.85,323.893C1109.56,323.454 1111.41,323.693 1112.49,323.692C1114.69,323.688 1117.5,323.674 1119.56,323.288C1119.56,322.816 1119.56,322.346 1119.56,321.874C1120.04,321.121 1119.96,318.866 1119.96,317.835C1118.05,316.841 1113.53,317.407 1110.87,317.432C1110.87,317.297 1110.87,317.163 1110.87,317.028C1110.71,316.811 1110.75,316.837 1110.66,316.422C1110.92,316.29 1111.09,316.202 1111.27,316.018C1114.46,316.561 1118.43,315.437 1120.97,314.807C1120.97,313.797 1120.97,312.788 1120.97,311.778C1120.81,311.571 1120.9,311.722 1120.77,311.374C1120.53,311.2 1120.55,311.208 1120.37,310.97C1120.03,310.97 1119.69,310.97 1119.36,310.97ZM1153.52,316.826C1160.16,316.861 1166.33,316.073 1172.52,316.018C1173.09,317.685 1172.74,320.642 1172.72,322.682C1172.89,322.888 1172.8,322.738 1172.93,323.086C1176.29,323.917 1181.42,323.497 1185.46,323.489C1186.16,322.149 1185.89,319.223 1185.86,317.229C1186.57,316.403 1186.2,314.474 1186.88,313.594C1187.09,313.443 1187.06,313.472 1187.48,313.392C1188.68,314.112 1195.05,313.618 1196.98,313.594C1200.76,313.547 1205.96,313.181 1209.72,313.998C1211.27,313.998 1212.82,313.998 1214.36,313.998C1216.76,314.132 1220.15,314.293 1222.05,314.806C1224.52,315.473 1227.89,315.026 1228.72,317.229C1229.73,318.542 1229.15,323 1229.12,325.104C1230.11,325.624 1232,325.534 1233.57,325.508C1234.57,326.268 1236.91,326.659 1238.42,326.72C1238.49,326.518 1238.56,326.316 1238.62,326.114C1239.36,325.172 1239.78,319.83 1239.23,318.239C1239.5,318.239 1239.77,318.239 1240.04,318.239C1241.29,319.039 1243.32,318.827 1244.89,319.249C1248.08,320.104 1251.84,320.55 1255.2,321.268C1255.2,322.009 1255.2,322.749 1255.2,323.489C1254.36,324.868 1255.21,328.651 1254.8,330.557C1253.6,336.033 1253.4,341.739 1253.38,348.529C1251.8,349.493 1248.22,349.164 1245.7,349.135C1244.61,348.463 1243.03,348.696 1241.66,348.327C1237.41,347.186 1232.42,347.206 1228.11,346.106C1222.41,344.648 1215.26,344.655 1209.11,343.279C1203.99,343.212 1198.87,343.145 1193.75,343.077C1191.3,342.714 1187.74,343.461 1185.06,342.876C1184.08,342.664 1181.89,342.393 1180.61,342.673C1178.53,343.127 1176.04,342.577 1173.74,343.077C1168.54,344.206 1159.29,343.065 1154.53,342.673C1154.09,342.004 1153.32,341.334 1153.12,340.452C1152.84,339.263 1153.47,334.799 1153.52,333.384C1153.52,327.865 1153.52,322.345 1153.52,316.826ZM1151.9,316.624C1151.84,323.433 1152.79,332.177 1151.5,338.23C1150.96,340.778 1152.3,343.412 1153.72,344.086C1155.53,345.289 1159.58,344.894 1162.41,344.893C1167.4,344.826 1172.39,344.759 1177.38,344.691C1178.95,344.348 1182.97,343.869 1184.86,344.287C1187.27,344.823 1190.68,343.898 1193.34,344.49C1195.81,345.037 1199.91,344.809 1202.44,344.893C1204.6,344.893 1206.75,344.893 1208.91,344.893C1212.11,345.618 1216.03,345.572 1219.22,346.307C1220.37,346.374 1221.51,346.442 1222.66,346.51C1226.67,347.493 1231.15,348.195 1235.19,349.135C1236.27,349.135 1237.35,349.135 1238.42,349.135C1240.64,349.662 1243.55,350.593 1245.7,350.951C1247.21,351.204 1251.51,350.739 1253.58,350.75C1253.91,350.271 1254.79,349.8 1255,349.336C1255,346.106 1255,342.875 1255,339.644C1255.68,338.561 1255.27,336.819 1255.61,335.403C1256.54,331.444 1256.8,326.142 1256.82,321.47C1256.95,321.47 1257.09,321.47 1257.22,321.47C1259.11,322.637 1263.42,322.283 1265.92,322.884C1272.99,324.585 1280.76,325.012 1287.95,326.519C1287.95,326.855 1287.95,327.192 1287.95,327.528C1287.14,338.499 1286.33,349.472 1285.52,360.443C1284.53,364.833 1284.88,369.983 1283.91,374.376C1283.84,375.655 1283.77,376.934 1283.7,378.213C1280.44,392.601 1280.37,408.877 1276.83,422.839C1275.52,427.989 1275.56,433.375 1274,438.387C1273.64,439.558 1272.72,440.628 1272.18,441.618C1270.25,445.169 1268.85,448.972 1266.32,451.917C1265.44,452.943 1261.09,454.48 1259.65,455.35C1250.47,460.902 1240.43,460.801 1225.69,460.802C1209.16,460.803 1195.2,460.357 1182.23,457.167C1180.54,457.031 1178.86,456.897 1177.17,456.763C1172.45,455.678 1166.94,455.824 1162.21,454.743C1160.6,454.609 1158.98,454.474 1157.36,454.339C1150.64,452.697 1143.7,451.125 1137.96,448.687C1135.95,447.835 1131.89,446.65 1131.08,444.851C1131.08,435.495 1131.08,426.136 1131.08,416.782C1130.25,415.404 1131.09,411.803 1130.68,409.917C1130.11,407.324 1130.48,403.581 1130.48,400.628C1130.48,399.35 1130.48,398.07 1130.48,396.791C1130.66,395.924 1130.94,393.935 1130.68,392.754C1129.36,386.871 1129.72,380.324 1128.25,374.58C1127.45,371.454 1127.31,367.969 1126.43,364.685C1124.37,356.974 1123.33,348.648 1122.79,339.242C1122.51,334.258 1122.79,329.38 1122.79,324.3C1122.79,321.764 1122.8,317.53 1123.81,316.021C1124.74,315.427 1129.72,315.796 1131.28,315.819C1132.34,315.155 1135.65,315.566 1137.15,315.617C1142.06,315.951 1146.99,316.287 1151.9,316.624ZM1176.77,325.711C1176.52,326.658 1176.34,327.425 1176.57,328.538C1176.92,328.732 1176.91,328.792 1177.38,328.942C1178.12,329.533 1178.71,329.171 1179.6,328.942C1179.77,328.648 1179.97,328.363 1180.2,328.134C1180.14,327.461 1180.07,326.788 1180,326.114C1179.8,326.047 1179.6,325.98 1179.4,325.912C1178.89,325.58 1177.6,325.686 1176.77,325.711ZM1233.17,328.336C1232.03,330.455 1232.73,332.637 1235.59,331.971C1236.13,331.148 1236.41,330.863 1236.4,329.346C1236.05,329.075 1235.83,328.726 1235.59,328.336C1234.79,328.336 1233.98,328.336 1233.17,328.336ZM1118.15,386.088C1118.72,386.991 1118.56,389.7 1118.55,390.933C1116.41,392.483 1115.71,396.099 1114.3,398.405C1111.7,402.683 1109.44,407.447 1106.83,411.731C1105.96,413.156 1105.67,414.75 1104.8,416.175C1101.88,420.978 1099.9,426.423 1096.92,431.32C1090.2,442.359 1085.02,455.568 1079.94,468.07C1079.4,470.291 1078.86,472.514 1078.32,474.733C1075.91,482.21 1073.3,490.757 1075.69,500.177C1075.9,501.725 1076.1,503.272 1076.3,504.823C1076.54,505.458 1077.35,506.088 1077.71,506.638C1079.19,508.839 1080.73,510.955 1082.16,513.1C1086.7,519.879 1091.34,526.612 1095.71,533.496C1098.66,538.159 1101.1,543.285 1103.99,548.034C1105,549.684 1105.41,551.43 1106.42,553.082C1108.1,555.841 1109.33,558.911 1111.07,561.767C1111.67,562.752 1112.62,563.932 1113.09,564.996C1115.02,569.313 1116.32,573.636 1118.35,577.919C1119.62,580.595 1123.87,583.347 1124.82,586.198C1123.67,586.366 1123.43,586.876 1122.19,587.006C1121.32,585.636 1119.65,584.867 1118.75,583.574C1117.44,581.687 1116.26,579.598 1115.11,577.719C1114.05,575.987 1113.73,573.984 1112.89,572.063C1110.59,566.786 1108.43,561.315 1106.02,555.91C1104.97,553.561 1103.11,551.217 1101.77,549.046C1099.35,545.113 1097.52,541.071 1095.1,537.132C1090.75,530.04 1086.33,522.726 1081.56,515.93C1079.61,513.154 1077.78,510.444 1075.9,507.449C1075.27,506.447 1074.11,505.359 1073.67,504.22C1073.54,503.209 1073.4,502.199 1073.27,501.188C1072.79,499.254 1072.33,496.908 1071.85,494.93C1070.08,487.513 1073.52,479.224 1075.29,473.93C1076.89,469.151 1078.06,464.288 1079.94,459.997C1083.23,452.483 1086.13,445.088 1089.44,437.582C1090.79,434.525 1092.76,431.14 1094.49,428.293C1096.6,424.849 1097.65,421.034 1099.75,417.591C1106.04,407.254 1111.98,396.536 1118.15,386.088ZM1137.35,591.045C1135.99,591.839 1132.86,591.059 1131.29,591.447C1127,592.51 1123.06,593.393 1119.76,595.285C1119.16,595.487 1118.55,595.687 1117.94,595.889C1117.77,596.039 1117.72,596.144 1117.54,596.292C1117.67,596.647 1117.58,596.49 1117.74,596.697C1118.14,597.272 1118.35,597.306 1119.36,597.302C1122.16,594.741 1128.48,593.859 1132.9,592.86C1135.2,592.34 1137.85,592.846 1139.78,592.457C1139.84,592.12 1139.91,591.783 1139.98,591.446C1139.74,591.271 1139.75,591.28 1139.57,591.044C1138.83,591.045 1138.09,591.045 1137.35,591.045ZM1146.85,592.66C1148.11,593.193 1148.43,594.931 1149.08,596.093C1149.54,596.926 1150.6,598.025 1150.89,598.919C1150.76,600.535 1150.62,602.151 1150.49,603.765C1150.3,607.106 1150.74,614.653 1151.7,617.092C1152.85,619.998 1155.78,622.333 1156.35,625.777C1155.7,626.601 1155.54,627.721 1154.94,628.604C1154.31,629.535 1153.18,630.32 1152.51,631.228C1151.06,633.199 1149.81,635.051 1148.27,636.883C1147.93,637.083 1147.59,637.285 1147.25,637.488C1145.96,639.129 1144.5,641.136 1142.81,642.333C1140.94,643.655 1136.4,644.156 1134.12,642.738C1132.08,641.472 1130.86,638.55 1130.07,636.075C1129.77,635.133 1130.12,634.527 1129.67,633.851C1127.9,631.179 1125.05,631.634 1120.98,631.632C1119.91,627.806 1115.88,627.376 1113.9,624.968C1111.57,622.125 1109.85,614.235 1110.87,608.812C1111.07,608.746 1111.27,608.68 1111.48,608.612C1112.79,607.629 1116.71,608.491 1118.95,608.409C1121.07,608.332 1122.73,606.798 1125.22,607.401C1126.83,607.791 1131.82,608.905 1134.12,608.207C1139.02,606.726 1141.04,601.384 1143.62,597.506C1144.66,595.936 1145.97,594.422 1146.85,592.66ZM1100.36,693.017C1100.36,692.075 1100.36,691.132 1100.36,690.191C1101.95,689.478 1102.48,689.045 1102.38,686.556C1102.67,686.142 1102.51,685.436 1102.78,684.94C1103.05,684.454 1105.71,681.856 1106.22,681.508C1107.08,680.921 1108.11,680.781 1109.05,680.297C1111.09,679.238 1113.35,678.003 1115.52,677.066C1116.33,676.795 1117.13,676.526 1117.94,676.258C1118.58,675.8 1118.98,674.416 1119.56,673.834C1120.1,673.297 1121.14,671.91 1121.78,671.612C1123.46,670.839 1123.96,672.252 1124.01,669.796C1123.17,668.533 1123.33,666.023 1123.81,664.546C1124.54,662.259 1124.87,659.173 1125.42,656.671C1125.42,655.258 1125.42,653.843 1125.42,652.429C1125.42,650.338 1125.66,648.476 1126.03,646.776C1127.2,641.428 1123.17,636.936 1122.19,633.247C1122.73,633.247 1123.27,633.247 1123.81,633.247C1125.31,632.195 1127.55,633.88 1128.05,634.66C1128.75,635.621 1128.65,637.275 1129.06,638.497C1129.71,640.421 1131.48,643.177 1133.1,644.153C1134.23,644.826 1138.88,645.91 1141.19,645.161C1145.19,643.866 1151.08,636.053 1153.52,632.641C1154.64,631.082 1156.52,629.789 1157.16,627.795C1157.23,627.795 1157.3,627.795 1157.36,627.795C1157.69,630.205 1158.3,633.535 1157.36,636.275C1156.96,637.449 1155.72,638.528 1155.34,639.709C1155.19,640.172 1155.19,641.282 1155.14,641.525C1155.14,643.41 1155.14,645.294 1155.14,647.178C1155.14,653.284 1155.55,660.878 1153.52,664.948C1152.91,666.166 1151.3,667.103 1150.49,668.18C1147.8,671.75 1144.56,674.791 1140.99,677.467C1138.26,679.518 1135.96,682.436 1133.1,684.333C1127.62,687.986 1119.34,691.525 1112.28,693.421C1111.34,693.421 1110.4,693.421 1109.45,693.421C1106.19,693.422 1103.19,693.126 1100.36,693.017ZM1156.76,652.429C1156.69,649.464 1156.18,642.408 1156.96,640.113C1157.23,639.302 1158.16,638.411 1158.58,637.691C1158.97,637.013 1158.73,635.893 1159.38,635.467C1160.74,637.215 1163.83,637.612 1166.06,638.496C1167.58,639.101 1169.97,639.507 1171.71,639.91C1173.27,639.91 1174.82,639.91 1176.36,639.91C1185.87,639.912 1189.88,635.742 1196.38,632.843C1197.32,632.425 1197.92,631.585 1199,631.228C1199,631.296 1199,631.362 1199,631.43C1197.67,633.654 1198.89,640.183 1198.2,643.344C1197.46,646.685 1197.78,651.546 1197.79,655.056C1197.79,656.328 1198.43,657.577 1198.2,658.488C1197.86,659.822 1196.72,661.471 1196.17,662.73C1194.04,667.646 1192.98,669.84 1187.89,671.815C1186.18,672.475 1183.62,672.218 1181.42,672.218C1176.42,672.22 1170.4,672.637 1166.86,671.209C1165.36,670.602 1164.05,670.672 1163.83,668.786C1162.61,666.78 1164.68,662.671 1165.04,661.314C1166.31,656.571 1162.6,653.287 1159.79,652.428C1158.78,652.429 1157.77,652.429 1156.76,652.429ZM1156.76,654.045C1158.87,654.04 1159.65,654.288 1160.8,655.056C1161.67,655.636 1162.6,656.069 1163.02,657.075C1164.78,661.23 1159.85,666.686 1162.62,670.807C1165.13,674.551 1174.57,673.834 1181.02,673.834C1183.53,673.834 1186.5,674.156 1188.49,673.431C1190.25,672.789 1192.15,671.695 1193.55,670.605C1195.29,669.242 1196.68,666.51 1197.59,664.343C1198.13,663.069 1198.22,661.722 1199.01,660.709C1199.01,660.777 1199.01,660.846 1199.01,660.911C1200.04,662.307 1199.72,664.871 1200.22,666.766C1201.73,672.488 1202.19,679.268 1202.24,686.555C1202.17,686.555 1202.11,686.555 1202.04,686.555C1202.04,686.623 1202.04,686.689 1202.04,686.757C1200.31,686.853 1198.8,687.538 1197.39,687.968C1193.59,689.124 1189.73,690.075 1186.07,690.997C1183.44,691.659 1179.86,690.669 1177.58,691.602C1171.85,694.228 1166.12,696.852 1160.4,699.479C1159.05,699.679 1157.7,699.881 1156.35,700.084C1142.16,704.005 1124.16,702.318 1109.86,699.479C1109.86,699.142 1109.86,698.805 1109.86,698.468C1110.02,698.229 1110.02,698.129 1110.06,697.66C1111.08,696.97 1111.64,695.431 1112.69,694.833C1113.63,694.301 1114.72,694.437 1115.72,694.025C1118.55,692.867 1121.82,691.738 1124.62,690.592C1125.55,690.208 1126.44,690.27 1127.25,689.784C1129.58,688.378 1132.26,686.965 1134.52,685.342C1138.13,682.757 1141.11,679.113 1144.63,676.457C1147.69,674.143 1150.2,671.452 1152.51,668.38C1153.25,667.395 1154.66,666.555 1155.14,665.351C1156.47,662.024 1156.76,658.59 1156.76,654.045ZM1201.63,688.374C1202.17,689.293 1201.1,691.651 1200.82,692.614C1199.86,696.032 1199.39,699.371 1198.6,702.71C1198.46,702.71 1198.33,702.71 1198.2,702.71C1196.54,703.824 1193.28,703.422 1190.92,703.92C1187.94,704.551 1184.38,703.87 1181.22,704.528C1180.87,704.6 1179.86,704.908 1179.19,704.728C1175.88,703.837 1172.45,702.015 1168.88,701.499C1168.07,702.642 1164.55,704.881 1163.22,705.536C1162.21,705.738 1161.2,705.941 1160.19,706.143C1158.43,706.666 1156.28,706.892 1154.13,707.354C1152.44,707.354 1150.76,707.354 1149.07,707.354C1146.28,707.941 1142.33,707.556 1139.17,707.556C1131.88,707.556 1124.76,707.566 1118.95,706.143C1117.34,705.941 1115.72,705.738 1114.1,705.536C1112.77,705.136 1111.16,704.402 1109.86,703.92C1108.98,703.595 1108.09,703.631 1107.43,703.114C1107.24,702.828 1107.24,702.452 1107.23,701.901C1108.07,701.389 1108.36,701.088 1109.86,701.095C1110.9,701.75 1112.53,701.38 1113.9,701.7C1116.33,702.266 1119.36,702.555 1121.78,703.113C1123.13,703.179 1124.48,703.248 1125.83,703.313C1134.78,705.207 1147.26,704.185 1154.73,702.103C1157.01,701.47 1159.27,701.702 1161.4,700.892C1162.35,700.535 1163.51,699.681 1164.44,699.276C1168.17,697.637 1171.63,696.265 1175.35,694.631C1176.52,694.118 1177.87,693.174 1179.19,692.815C1180.94,692.815 1182.7,692.815 1184.45,692.815C1188.57,691.891 1192.43,690.99 1196.17,689.786C1197.89,689.232 1200.27,689.357 1201.63,688.374Z"/>
    </g>
</svg>
