<?xml version="1.0" encoding="UTF-8" standalone="no"?>
<!DOCTYPE svg PUBLIC "-//W3C//DTD SVG 1.1//EN" "http://www.w3.org/Graphics/SVG/1.1/DTD/svg11.dtd">
<svg width="100%" height="100%" viewBox="0 0 67 188" version="1.1" xmlns="http://www.w3.org/2000/svg" xmlns:xlink="http://www.w3.org/1999/xlink" xml:space="preserve" xmlns:serif="http://www.serif.com/" style="fill-rule:evenodd;clip-rule:evenodd;stroke-linejoin:round;stroke-miterlimit:1.41421;">
    <g transform="matrix(1,0,0,1,-428.134,-7.7911)">
        <path d="M450.345,7.793C451.414,7.786 452.342,7.784 453.153,8.058C454.685,8.577 456.907,10.538 457.704,11.847C457.972,12.415 458.236,12.984 458.501,13.552C458.904,14.081 459.312,14.613 459.715,15.142C460.424,16.379 460.928,18.132 461.309,19.575C461.487,20.976 461.664,22.379 461.839,23.779C461.972,24.895 461.597,25.895 461.839,26.772C462.265,28.312 463.039,30.171 463.888,31.395C464.425,32.166 465.125,32.743 465.595,33.591C465.557,33.591 465.518,33.591 465.483,33.591C465.051,33.149 464.622,32.707 464.192,32.267C463.562,31.431 463.068,30.49 462.524,29.578C462.104,28.873 462.161,27.842 461.461,27.418C461.345,27.464 461.414,27.415 461.348,27.493C461.024,28.619 461.569,31.157 461.765,32.077C461.765,32.493 461.765,32.91 461.765,33.327C461.877,33.636 462.212,34.065 462.41,34.389C462.552,34.621 462.882,34.677 463.092,34.842C463.407,35.12 463.725,35.398 464.04,35.675C465.467,36.624 467.509,37.079 468.517,38.442C469.507,39.782 470.13,41.993 470.528,43.747C470.528,43.947 470.528,44.15 470.528,44.351C471.257,46.902 471.595,49.872 472.122,52.761C472.223,53.91 472.323,55.06 472.427,56.209C472.666,58.214 472.905,60.223 473.146,62.23C472.907,63.41 470.979,63.639 469.997,64.087C469.638,66.089 470.571,68.8 470.074,70.679C469.424,73.137 467.49,74.929 465.978,76.588C465.999,77.343 466.703,77.842 467.192,78.141C467.217,78.745 467.845,80.55 467.682,80.943C467.578,81.185 467.271,81.241 467.192,81.437C467.178,81.612 467.167,81.789 467.153,81.967C466.948,82.589 466.397,83.528 465.862,83.862C465.901,84.189 465.94,84.518 465.978,84.847C465.916,85.15 465.582,85.493 465.485,85.755C465.459,85.824 465.497,87.141 465.559,87.346C465.662,87.523 465.762,87.7 465.862,87.876C465.814,88.092 465.762,88.305 465.712,88.521C466.856,89.388 466.089,90.201 466.434,91.702C466.537,92.162 466.563,93.065 466.774,93.483C466.951,93.833 467.324,94.144 467.419,94.581C467.394,94.771 467.368,94.959 467.345,95.149C467.451,95.483 468.085,95.918 468.256,96.438C468.469,97.088 468.448,97.631 468.633,98.256C468.874,98.798 469.113,99.341 469.354,99.886C469.721,101.136 470.088,102.385 470.454,103.635C470.583,104.342 470.709,105.049 470.835,105.756C471.604,108.749 472.024,112.235 472.693,115.377C472.833,116.249 472.971,117.121 473.11,117.992C473.498,119.306 473.842,120.869 474.133,122.196C474.197,122.854 474.262,123.51 474.323,124.165C474.5,124.721 474.677,125.276 474.855,125.834C474.841,126.112 474.829,126.389 474.817,126.667C474.956,126.994 475.094,127.322 475.233,127.651C475.296,128.055 475.359,128.459 475.423,128.862C475.549,129.013 475.674,129.165 475.803,129.318C475.943,129.899 476.081,130.48 476.22,131.061C476.562,131.677 476.901,132.297 477.243,132.917C477.466,133.493 477.713,134.038 477.849,134.583C477.913,134.948 477.975,135.316 478.039,135.681C478.216,136.036 478.595,136.422 478.76,136.818C479.013,137.463 479.266,138.106 479.517,138.749C479.581,139.103 479.646,139.456 479.707,139.811C479.936,140.152 480.163,140.492 480.392,140.834C480.94,141.955 481.176,143.123 481.719,144.205C482.256,145.274 483.091,146.324 483.539,147.462C483.893,148.362 484.051,149.259 484.488,150.113C485.094,151.376 485.701,152.638 486.307,153.903C486.914,155.605 487.348,157.281 487.976,159.017C488.408,159.976 488.837,160.935 489.267,161.894C489.57,162.84 489.873,163.789 490.176,164.735C490.922,166.314 491.854,168.136 492.413,169.887C492.909,171.435 492.855,173.219 493.323,174.737C493.755,175.695 494.184,176.655 494.614,177.614C494.74,177.861 495.063,178.156 495.107,178.486C495.215,179.299 493.724,180.242 493.211,180.569C491.772,181.49 489.991,182.122 488.204,182.654C487.878,182.749 487.492,183.047 487.217,183.184C486.397,183.41 485.573,183.639 484.751,183.865C484.738,183.752 484.726,183.638 484.716,183.526C483.965,183.592 482.944,183.85 482.362,183.41C481.587,180.824 480.872,178.309 480.123,175.722C479.706,174.634 479.29,173.549 478.873,172.464C478.211,169.939 477.994,167.476 477.167,165.229C476.22,162.658 474.839,160.503 473.752,158.03C473.152,156.67 472.896,155.286 472.348,153.864C471.243,150.992 470.291,147.763 469.276,144.847C469.024,144.039 468.769,143.232 468.517,142.425C467.833,140.859 467.152,139.293 466.468,137.728C465.617,136.314 464.712,134.658 464.118,133.03C462.43,128.409 460.79,123.522 458.957,119.128C458.024,116.888 456.978,114.729 455.997,112.574C454.728,109.772 453.483,106.99 451.75,104.657C450.827,103.412 449.15,101.096 446.744,102.345C446.348,104.574 445.867,106.884 445.263,108.974C445.163,109.658 445.064,110.339 444.96,111.02C444.571,112.76 444.299,114.756 443.976,116.589C443.544,119.016 444.016,121.546 443.595,124.128C443.243,127.535 442.888,130.947 442.532,134.353C442.217,136.32 442.319,138.203 441.965,140.036C441.952,140.73 441.939,141.427 441.926,142.121C441.8,143.522 441.674,144.924 441.548,146.325C441.484,148.511 441.419,150.693 441.359,152.879C441.196,153.923 441.422,155.101 441.245,156.25C441.084,157.299 441.125,158.847 441.281,159.849C441.295,160.845 441.306,161.845 441.319,162.84C441.295,163.259 441.268,163.676 441.245,164.092C441.032,165.454 441.181,166.812 441.016,168.07C441.003,169.229 440.991,170.391 440.977,171.553C440.543,174.292 440.486,177.186 440.068,179.699C439.903,180.686 439.661,183.173 439.878,184.244C439.973,184.715 439.986,185.327 439.878,185.91C439.304,186.684 437.726,186.478 436.389,186.478C433.421,186.478 430.763,185.918 428.461,185.265C428.228,184.615 428.524,183.894 428.651,183.296C428.675,181.63 428.701,179.963 428.726,178.295C428.502,176.855 428.822,175.137 428.575,173.561C428.423,172.584 428.561,171.386 428.385,170.226C428.144,168.637 428.022,166.331 428.272,164.696C428.272,164.344 428.272,163.989 428.272,163.636C428.373,161.25 428.475,158.862 428.576,156.475C428.408,155.357 428.393,153.667 428.576,152.497C428.589,151.312 428.601,150.123 428.614,148.938C428.727,147.56 428.841,146.184 428.956,144.809C428.966,144.266 428.979,143.721 428.992,143.179C429.069,142.294 429.144,141.412 429.221,140.528C429.301,140.166 429.492,139.787 429.564,139.353C429.539,138.633 429.512,137.914 429.486,137.193C429.929,134.403 430.086,131.097 430.587,128.217C430.852,126.69 430.434,125.049 430.587,123.593C430.703,122.483 430.603,120.881 430.436,119.806C430.127,117.813 430.352,116.07 430.019,114.162C429.724,112.465 429.625,110.544 429.336,108.745C429.296,107.431 429.26,106.12 429.222,104.806C429.055,103.678 429.14,101.368 429.336,100.26C429.569,98.948 429.752,97.47 430.019,96.282C430.033,95.878 430.042,95.474 430.055,95.071C430.179,94.523 430.475,93.937 430.626,93.479C430.85,92.8 430.729,91.666 430.966,90.903C431.272,89.919 431.706,88.587 432.029,87.645C432.065,87.393 432.104,87.139 432.142,86.887C432.356,86.419 432.572,85.953 432.788,85.486C432.801,85.234 432.81,84.982 432.824,84.728C433.001,84.126 433.545,83.666 433.734,83.061C433.712,82.848 433.685,82.632 433.66,82.419C433.773,81.701 433.991,81.01 434.306,80.449C434.612,79.902 435.506,78.819 435.593,78.251C435.723,77.42 435.336,76.891 435.215,76.243C435.059,75.405 435.481,74.633 435.558,73.895C435.545,73.882 435.533,73.869 435.519,73.856C433.702,73.972 432.748,71.565 432.295,70.143C432.128,69.622 432.295,68.685 432.143,68.287C431.727,68.287 430.987,68.277 430.852,68.061C430.804,67.732 430.752,67.406 430.702,67.077C430.276,65.202 430.395,63.94 430.702,61.963C430.702,61.307 430.702,60.649 430.702,59.993C430.792,57.985 430.879,55.977 430.967,53.969C431.27,51.991 430.758,49.747 431.69,48.438C432.631,48.908 433.006,49.626 433.736,50.258C433.8,50.245 433.864,50.233 433.926,50.219C433.926,50.167 433.926,50.119 433.926,50.068C433.738,49.718 433.484,49.407 433.396,48.97C433.662,49.158 433.926,49.347 434.191,49.538C434.255,49.512 434.32,49.486 434.381,49.461C434.337,49.06 434.427,48.89 434.532,48.589C435.301,48.852 435.201,50.16 436.05,50.258C436.088,50.219 436.127,50.181 436.165,50.142C436.127,49.751 436.088,49.36 436.05,48.97C435.877,48.342 435.186,46.599 435.443,45.748C435.709,44.876 437.035,44.367 437.569,43.665C437.605,43.691 437.644,43.717 437.683,43.743C437.827,44.031 438.159,44.041 438.289,44.311C437.431,44.617 436.553,45.828 436.165,46.62C436.178,46.671 436.187,46.723 436.201,46.772C436.214,46.772 436.227,46.772 436.24,46.772C436.821,46.469 437.404,46.165 437.986,45.864C437.592,46.268 437.201,46.671 436.807,47.075C436.52,47.573 436.139,49.067 436.43,49.651C436.493,49.638 436.556,49.626 436.62,49.612C436.838,48.784 439.013,46.129 439.691,45.712C440.247,45.608 440.802,45.508 441.361,45.408C441.638,45.256 441.916,45.104 442.194,44.953C442.761,45.745 443.358,46.56 444.09,47.187C444.672,47.578 445.255,47.971 445.836,48.362C446.88,48.853 447.865,48.254 448.489,47.907C449.865,47.148 451.246,45.43 452.169,44.194C452.437,43.742 452.701,43.287 452.966,42.831C453.195,42.641 453.421,42.454 453.651,42.263C454.227,41.522 456.563,38.596 456.494,37.679C453.68,36.291 453.537,33.406 454.484,29.953C454.496,29.549 454.509,29.143 454.522,28.739C454.632,28.302 454.977,27.991 455.167,27.641C455.6,26.852 455.896,26.05 456.078,24.99C456.682,21.455 455.057,20.664 454.522,18.361C453.984,16.038 455.332,13.204 453.651,11.96C452.982,11.465 452.168,11.421 451.337,11.049C451.059,10.886 450.779,10.722 450.502,10.557C450.115,10.442 449.789,10.686 449.555,10.747C448.435,11.033 447.539,11.24 447.315,12.374C447.036,13.798 447.848,14.295 448.188,15.102C448.478,15.822 448.771,16.542 449.061,17.262C449.087,17.489 449.111,17.716 449.136,17.944C449.28,18.372 449.537,19.016 449.365,19.686C448.861,21.624 447.149,22.299 445.609,23.209C445.982,23.954 446.527,24.748 446.861,25.558C447.913,28.093 447.174,30.763 445.838,32.412C445.901,33.13 446.444,33.893 446.633,34.572C446.736,35.444 446.836,36.315 446.939,37.187C447.114,37.4 447.292,37.616 447.468,37.829C447.808,38.645 448.055,39.411 448.227,40.331C448.666,42.679 447.399,43.818 445.838,44.27C445.571,44.348 445.1,44.522 444.738,44.383C446.324,44.278 447.773,43.021 447.241,41.087C447.178,41.051 447.113,41.013 447.051,40.974C446.722,41.226 446.547,41.594 446.294,41.92C445.774,42.587 443.807,44.155 443.03,44.535C442.614,44.741 442.484,44.558 442.233,44.609C441.855,44.813 441.474,45.016 441.096,45.216C440.515,45.365 439.91,45.262 439.502,45.558C438.869,46.214 438.236,46.87 437.604,47.528C437.245,48.035 437.062,48.59 436.621,49.004C436.645,47.001 437.831,46.87 438.441,45.633C438.415,45.558 438.389,45.481 438.363,45.406C438.35,45.406 438.338,45.406 438.327,45.406C437.769,45.697 437.214,45.987 436.657,46.278C437.18,45.386 438.108,44.969 438.705,44.193C438.692,44.144 438.681,44.093 438.667,44.042C438.009,43.988 438.001,43.474 437.53,43.322C437.518,43.322 437.505,43.322 437.492,43.322C436.946,44.26 435.577,44.625 435.216,45.672C434.855,46.724 435.847,48.616 435.862,49.953C435.836,49.94 435.81,49.927 435.784,49.914C435.592,49.207 435.059,48.56 434.532,48.171C434.47,48.197 434.407,48.223 434.344,48.248C434.268,48.564 434.19,48.878 434.115,49.194C433.575,48.847 433.392,48.503 433.092,47.906C433.054,47.893 433.015,47.88 432.976,47.867C432.923,47.957 432.915,47.968 432.902,48.132C433.002,48.512 433.106,48.89 433.205,49.271C433.193,49.271 433.181,49.271 433.167,49.271C433.167,49.245 433.167,49.22 433.167,49.194C432.687,48.777 432.149,48.428 431.611,48.058C431.55,48.071 431.486,48.083 431.423,48.097C431.467,48.652 431.109,49.043 430.966,49.498C430.943,49.725 430.916,49.954 430.892,50.18C430.696,50.512 429.711,51.162 429.146,50.938C430.837,50.887 430.66,48.871 430.966,47.377C431.067,46.888 431.354,45.803 431.156,45.294C431.016,45.116 430.927,45.152 430.851,44.877C430.281,45.042 429.605,45.653 428.805,45.329C429.299,45.276 430.618,44.769 430.548,44.345C430.573,44.27 430.6,44.193 430.625,44.119C430.548,44.067 430.474,44.018 430.396,43.968C430.434,43.89 430.473,43.816 430.508,43.741C430.434,43.677 430.357,43.612 430.281,43.551C431.084,43.227 431.243,42.518 431.724,41.885C432.135,41.34 432.873,41.093 433.278,40.558C433.179,40.221 432.84,40.01 432.67,39.686C432.853,38.707 433.931,37.96 434.416,37.187C435.639,35.241 436.371,33.073 437.299,30.859C437.754,29.939 438.21,29.016 438.664,28.095C438.601,27.488 438.537,26.882 438.476,26.277C438.291,25.243 438.342,23.739 438.589,22.753C438.943,21.352 439.295,19.95 439.651,18.548C440.144,17.691 440.638,16.832 441.13,15.973C442.027,14.407 442.927,12.841 443.824,11.275C444.307,10.68 445,10.2 445.568,9.683C445.771,9.431 445.973,9.179 446.174,8.926C446.906,8.387 447.806,8.148 448.867,7.941C449.359,7.895 449.851,7.843 450.345,7.793ZM446.969,14.877C446.724,15.682 446.728,16.812 446.401,17.605C445.907,18.678 445.414,19.752 444.922,20.824C444.817,21.265 445.172,23.21 445.604,22.984C446.327,22.692 446.652,22.106 447.045,21.468C448.45,19.181 448.285,18.471 447.272,15.976C447.172,15.61 447.071,15.243 446.969,14.877ZM447.918,21.848C448.022,21.891 447.938,21.859 447.918,21.961C447.866,21.973 447.817,21.986 447.766,21.999C447.817,21.949 447.866,21.898 447.918,21.848ZM444.845,23.4C444.897,23.477 444.889,23.462 444.958,23.513C444.899,23.412 444.945,23.462 444.845,23.4ZM447.386,27.795C447.399,27.82 447.41,27.846 447.424,27.869C447.41,27.846 447.398,27.82 447.386,27.795ZM461.383,27.795C461.383,27.846 461.383,27.895 461.383,27.946C461.383,27.895 461.383,27.846 461.383,27.795ZM447.424,27.908C447.424,27.985 447.424,28.06 447.424,28.137C447.424,28.06 447.424,27.985 447.424,27.908ZM447.462,28.324C447.462,28.388 447.462,28.45 447.462,28.514C447.462,28.45 447.462,28.388 447.462,28.324ZM439.193,29.348C438.669,30.273 438.216,31.292 437.598,32.189C437.295,32.505 436.992,32.821 436.689,33.135C436.077,34.212 435.866,35.472 435.285,36.582C434.894,37.099 434.501,37.619 434.11,38.136C434.123,38.174 434.135,38.212 434.148,38.248C434.197,38.248 434.249,38.248 434.3,38.248C435.001,37.848 436.442,37.528 436.917,36.885C437.56,36.014 437.267,34.427 437.523,33.173C437.622,32.695 438.348,31.224 438.624,30.787C438.881,30.373 439.3,30 439.383,29.424C439.357,29.398 439.332,29.373 439.306,29.347C439.269,29.348 439.232,29.348 439.193,29.348ZM453.229,30.181C453.239,30.207 453.252,30.232 453.265,30.258C453.253,30.232 453.239,30.207 453.229,30.181ZM453.19,30.258C453.203,30.294 453.216,30.332 453.229,30.371C453.216,30.371 453.203,30.371 453.19,30.371C453.19,30.332 453.19,30.294 453.19,30.258ZM446.933,31.127C446.933,31.178 446.933,31.23 446.933,31.278C446.933,31.229 446.933,31.178 446.933,31.127ZM459.904,34.006C459.829,34.078 459.772,34.104 459.714,34.196C459.668,34.338 459.722,34.417 459.791,34.535C460.012,34.612 460.174,34.679 460.397,34.574L460.397,34.422C460.212,34.266 460.187,34.082 459.904,34.006ZM459.526,34.575C459.397,34.75 459.439,35.063 459.561,35.295C459.788,35.249 459.865,35.15 460.093,35.068C460.093,35.004 460.093,34.942 460.093,34.878C459.904,34.778 459.714,34.678 459.526,34.575ZM461.043,34.575C460.879,34.804 460.714,35.03 460.55,35.256C460.562,35.382 460.575,35.511 460.588,35.637C461.054,35.649 461.525,35.659 461.989,35.672C462.002,35.61 462.014,35.547 462.028,35.484C461.689,35.23 461.457,34.729 461.043,34.575ZM436.272,34.803C436.286,34.826 436.297,34.852 436.31,34.878C436.298,34.853 436.286,34.827 436.272,34.803ZM458.843,34.991C458.755,35.104 458.665,35.22 458.578,35.333C458.626,35.478 458.578,35.413 458.69,35.485C458.855,35.472 459.019,35.46 459.184,35.446C459.196,35.382 459.209,35.32 459.22,35.256C459.157,35.169 459.093,35.081 459.032,34.991C458.968,34.991 458.903,34.991 458.843,34.991ZM445.261,40.522C444.909,40.964 444.554,41.406 444.199,41.849C444.034,42.178 443.87,42.504 443.705,42.833C443.51,43.121 443.184,43.25 443.062,43.628C443.125,43.628 443.188,43.628 443.25,43.628C444.581,43.088 445.492,42.44 445.715,40.825C445.576,40.75 445.543,40.681 445.488,40.522C445.413,40.522 445.339,40.522 445.261,40.522ZM453.494,41.887C453.484,41.941 453.51,41.923 453.456,42C453.468,41.962 453.481,41.923 453.494,41.887ZM429.331,43.175C429.382,43.185 429.431,43.198 429.481,43.211C429.578,43.267 429.61,43.316 429.671,43.401C429.619,43.401 429.571,43.401 429.52,43.401C429.481,43.389 429.443,43.376 429.407,43.362C429.382,43.301 429.355,43.237 429.331,43.175ZM467.302,44.803C466.998,45.471 466.826,47.112 466.656,47.87C466.656,48.199 466.656,48.528 466.656,48.855C466.266,50.598 466.074,52.447 465.669,54.121C465.669,54.815 465.669,55.512 465.669,56.206C465.595,56.419 465.518,56.635 465.443,56.849C465.429,56.849 465.418,56.849 465.405,56.849C465.448,54.669 464.731,52.298 463.432,51.545C463.368,51.535 463.306,51.522 463.242,51.509C463.22,51.545 463.193,51.583 463.168,51.622C463.284,52.247 463.796,52.269 464.039,52.681C464.538,53.522 465.451,56.176 465.026,57.833C464.893,58.351 464.342,58.772 464.039,59.16C464.039,59.209 464.039,59.26 464.039,59.312C464.065,59.335 464.091,59.361 464.117,59.387C464.191,59.374 464.267,59.361 464.343,59.348C464.618,59.206 464.778,58.857 465.027,58.667C465.065,58.855 465.053,58.808 465.179,58.896C465.242,58.87 465.305,58.844 465.369,58.819C465.379,58.516 465.391,58.212 465.405,57.911C465.621,57.366 465.834,56.824 466.05,56.281C466.05,55.587 466.05,54.893 466.05,54.198C466.105,54.018 466.233,53.553 466.279,53.365C466.279,53.162 466.279,52.959 466.279,52.758C466.662,51.529 467.025,49.838 467.037,48.325C467.043,47.364 467.879,45.661 467.493,44.803C467.428,44.803 467.363,44.803 467.302,44.803ZM428.61,45.371C428.662,45.371 428.711,45.371 428.762,45.371C428.762,45.384 428.762,45.396 428.762,45.41C428.711,45.396 428.662,45.384 428.61,45.371ZM434.679,49.349C434.265,50.228 436.368,52.817 436.616,53.782C435.536,54.99 435.456,57.942 436.009,59.768C436.045,60.171 436.083,60.576 436.122,60.979C436.359,61.717 436.749,62.496 436.919,63.291C436.993,63.304 437.07,63.314 437.145,63.327C437.171,63.291 437.197,63.252 437.223,63.214C437.369,62.834 436.62,61.311 436.5,60.866C436,58.997 435.687,55.616 436.803,54.235C436.817,54.235 436.829,54.235 436.842,54.235C436.842,54.261 436.842,54.286 436.842,54.312C437.256,55.31 437.691,56.184 437.982,57.266C437.982,58.202 437.982,59.136 437.982,60.069C438.094,60.311 438.209,60.55 438.323,60.789C438.498,61.435 437.537,63.119 438.359,62.684C438.385,62.057 438.855,61.622 439.082,61.169C439.131,60.953 439.183,60.74 439.234,60.524C439.616,59.73 440.922,57.827 440.483,56.585C440.314,56.593 440.28,56.611 440.182,56.66C440.2,58.21 439.298,59.871 438.701,60.941C438.671,60.519 438.454,60.293 438.359,59.995C438.359,59.049 438.359,58.1 438.359,57.154C438.132,56.297 437.671,55.542 437.374,54.842C437.271,54.477 437.172,54.11 437.071,53.744C437.346,53.189 437.91,52.736 438.02,52.078C437.811,51.947 437.791,51.975 437.6,52.114C437.349,52.508 437.096,52.899 436.842,53.289C436.803,53.263 436.767,53.24 436.729,53.215C436.603,52.466 436.037,51.932 435.742,51.359C435.394,50.682 435.215,50.071 434.871,49.351C434.805,49.349 434.742,49.349 434.679,49.349ZM432.402,51.167C432.364,51.206 432.328,51.244 432.29,51.28C432.227,54.772 433.989,58.187 434.791,60.979C434.987,61.653 435.46,63.633 436.044,63.781C436.082,63.733 436.121,63.681 436.159,63.63C435.899,62.478 435.066,60.802 434.642,59.652C434.058,58.078 433.667,56.376 433.199,54.803C432.922,53.867 433.012,51.939 432.554,51.167C432.503,51.167 432.454,51.167 432.402,51.167ZM460.134,58.289C459.678,58.719 459.257,59.611 458.614,59.804C457.773,60.058 456.896,60.133 456.073,60.334C455.278,60.532 454.582,60.275 453.836,60.449C452.998,60.645 452.23,61.079 451.523,61.321C450.726,61.434 449.928,61.548 449.131,61.661C448.525,61.877 447.918,62.09 447.31,62.307C446.403,62.548 443.251,62.558 442.912,63.14C442.57,63.027 442.228,62.911 441.887,62.798C441.205,62.785 440.521,62.772 439.84,62.759C439.84,62.746 439.84,62.736 439.84,62.723C439.899,62.494 439.916,62.322 440.067,62.191C440.08,62.343 440.091,62.495 440.105,62.646C440.27,62.672 440.28,62.669 440.409,62.61C440.597,61.568 441.366,61.289 441.812,60.525C441.75,60.43 441.765,60.432 441.661,60.373C441.623,60.36 441.583,60.348 441.548,60.335C441.142,60.767 440.738,61.193 440.332,61.623C440.429,61.191 440.696,60.683 440.977,60.413C440.965,60.374 440.952,60.336 440.939,60.3C440.916,60.261 440.891,60.223 440.865,60.187C440.64,60.203 440.585,60.254 440.448,60.336C440.245,60.945 439.336,62.256 439.613,62.799C438.344,62.987 435.48,63.951 434.872,64.733C434.33,65.425 434.143,66.489 433.658,67.232C433.543,67.142 433.513,67.108 433.316,67.081C431.765,68.595 433.208,71.783 434.113,72.953C434.364,73.28 434.908,73.475 435.327,73.635C436.165,73.496 436.929,70.721 437.601,70.074C437.601,70.099 437.601,70.122 437.601,70.148C437.823,70.526 437.983,71.302 438.36,71.513C438.82,71.768 439.36,71.501 439.763,71.436C439.942,71.462 440.118,71.488 440.296,71.513C441.26,71.333 442.135,70.487 442.723,69.883C442.685,69.77 442.646,69.657 442.611,69.544C441.506,69.369 440.183,71.058 439.083,70.642C439.058,70.629 439.031,70.616 439.007,70.603C439.007,70.59 439.007,70.578 439.007,70.564C440.217,70.286 441.078,69.592 442.193,69.314C442.946,69.129 443.398,69.237 443.673,68.594C443.642,68.373 443.58,68.349 443.483,68.216C442.504,68.247 441.537,68.614 440.523,68.859C440.549,68.797 440.575,68.733 440.601,68.671C441.814,68.366 443.136,68.28 443.863,67.497C443.853,67.283 443.823,67.242 443.749,67.119C443.709,67.106 443.674,67.094 443.635,67.081C442.736,67.269 440.999,67.911 440.221,67.119C441.404,67.376 443.478,67.297 443.864,66.474C443.924,66.284 443.914,66.137 443.864,65.906C443.294,65.201 441.802,65.348 440.867,65.112C440.853,65.087 440.842,65.061 440.829,65.034C440.823,64.808 440.842,64.597 440.979,64.505C442.248,64.017 443.071,66.137 444.356,64.847C444.356,64.796 444.356,64.744 444.356,64.696C443.98,64.241 443.577,63.785 443.219,63.331C443.816,63.215 444.708,63.069 445.304,62.914C445.836,62.878 446.367,62.839 446.899,62.801C447.67,62.549 448.441,62.297 449.212,62.045C449.867,61.968 450.525,61.893 451.184,61.816C451.743,61.685 452.179,61.33 452.663,61.173C453.336,60.952 454.107,60.909 454.825,60.718C455.266,60.718 455.71,60.718 456.151,60.718C457.151,60.461 458.586,60.394 459.339,59.846C459.518,59.582 459.693,59.317 459.869,59.052C460.047,58.81 460.327,58.764 460.401,58.406C460.362,58.38 460.324,58.357 460.288,58.331C460.233,58.314 460.182,58.302 460.134,58.289ZM440.294,61.621C440.307,61.647 440.319,61.673 440.33,61.698C440.319,61.672 440.307,61.646 440.294,61.621ZM440.255,61.737C440.269,61.76 440.28,61.785 440.294,61.811C440.28,61.785 440.269,61.76 440.255,61.737ZM445.68,63.742C445.319,63.943 444.683,63.884 444.352,64.084C444.377,64.196 444.404,64.31 444.428,64.425C444.442,64.425 444.454,64.425 444.467,64.425C445.149,64.292 446.399,63.826 447.386,64.122C448.829,64.552 450.343,65.122 451.636,65.75C452.167,66.01 454.476,67.383 454.899,67.341C454.921,67.29 454.948,67.241 454.973,67.19C454.96,67.151 454.948,67.115 454.934,67.077C454.086,66.539 453.175,66.179 452.204,65.714C450.246,64.773 448.655,63.745 445.68,63.742ZM465.975,82.684C465.961,82.746 465.95,82.809 465.937,82.874C465.898,82.923 465.859,82.974 465.823,83.023C465.096,82.907 464.132,83.247 463.51,83.364C462.931,83.472 462.489,83.107 462.03,83.29C461.98,83.313 461.929,83.339 461.878,83.364C461.906,83.534 461.927,83.524 461.991,83.629C464.608,84.506 466.292,83.915 466.809,81.546C466.927,81.004 467.436,80.61 467.19,79.916C467.086,79.79 466.986,79.664 466.886,79.538C466.886,79.173 466.886,78.805 466.886,78.44C466.603,77.694 465.198,77.666 465.291,76.696C465.634,76.393 465.976,76.09 466.315,75.786C468.115,73.449 470.576,71.331 469.578,66.81C469.39,65.956 469.642,64.905 469.274,64.272C468.219,64.27 467.772,64.881 466.885,65.067C465.941,65.262 465.068,65.106 464.077,65.296C464.064,65.332 464.052,65.37 464.038,65.409C464.025,65.939 464.014,66.469 464,66.998C463.812,67.955 463.167,68.988 463.432,70.219C463.558,70.798 464.07,71.407 463.813,72.263C463.522,73.227 462.98,74.286 462.409,75.029C461.895,75.696 461.096,76.12 460.625,76.847C460.08,77.696 459.905,79.722 459.905,80.899C460.056,81.027 460.209,81.154 460.359,81.279C460.524,81.279 460.689,81.279 460.853,81.279C462.087,80.305 461.429,78.222 463.813,78.855C463.738,79.143 463.33,79.737 463.09,79.878C462.687,79.965 462.282,80.053 461.876,80.143C461.822,80.441 461.606,80.757 461.686,81.015C461.856,81.321 462.892,81.666 463.509,81.468C463.697,81.306 463.887,81.141 464.077,80.977C464.894,80.404 465.756,80.002 466.543,79.424C466.568,79.66 466.653,79.725 466.581,79.841C466.484,80.057 464.576,80.965 464.228,81.394C464.254,81.469 464.28,81.546 464.302,81.621C465.074,81.744 465.719,81.256 466.504,81.394C466.504,81.407 466.504,81.42 466.504,81.433C466.49,81.482 466.478,81.533 466.465,81.585C465.569,81.61 464.868,82.094 463.695,81.885C462.892,81.743 462.222,81.528 461.345,81.697C461.15,81.975 461.085,82.327 461.194,82.72C462.306,83.453 464.606,82.756 465.975,82.684ZM445.529,65.485C445.489,65.549 445.451,65.61 445.413,65.675C445.475,65.77 445.462,65.768 445.565,65.827C446.33,66.181 447.109,66.313 447.803,66.734C448.172,66.958 448.393,67.323 448.714,67.567C449.977,68.526 451.128,69.544 452.279,70.598C452.808,70.94 453.342,71.279 453.871,71.621C454.848,72.305 455.866,73.162 456.831,73.894C456.998,73.853 456.975,73.855 457.06,73.743C456.875,73.069 454.987,72.128 454.405,71.66C452.576,70.19 450.836,68.649 448.941,67.266C448.853,67.127 448.765,66.989 448.676,66.849C448.247,66.398 446.349,65.517 445.529,65.485ZM444.428,66.205C444.311,66.455 444.179,66.735 444.124,67C444.124,67.229 444.124,67.455 444.124,67.684C444.022,67.771 443.922,67.859 443.821,67.949C443.847,68.24 443.87,68.53 443.895,68.821C443.775,69.198 443.279,69.18 443.098,69.464C443.076,69.641 443.049,69.819 443.024,69.994C442.821,70.516 442.343,70.637 441.885,70.904C441.913,71.369 441.697,71.372 441.545,71.698C441.359,72.097 441.295,72.58 440.974,72.835C440.465,73.244 439.768,73.177 439.041,73.403C438.533,73.668 438.027,73.935 437.523,74.2C436.927,74.596 435.855,75.938 435.739,76.738C435.705,76.985 435.885,76.992 435.929,77.155C436.119,77.864 435.767,78.502 435.739,79.011C436.636,80.42 438.007,80.767 439.496,81.588C440.53,82.156 441.797,82.765 442.985,83.141C443.552,83.266 444.123,83.393 444.691,83.519C445.728,83.872 446.766,84.226 447.802,84.578C448.825,84.604 449.852,84.629 450.875,84.655C453.415,85.03 459.227,83.549 460.925,82.421C461.003,82.161 461.104,81.837 461.077,81.588C460.774,81.562 460.471,81.536 460.166,81.51C459.491,81.227 459.647,79.584 459.751,78.669C457.121,76.419 454.593,74.162 451.785,72.079C451.204,71.51 450.62,70.942 450.039,70.374C448.209,68.996 446.233,67.792 444.616,66.206C444.554,66.205 444.489,66.205 444.428,66.205ZM437.789,71.623C437.389,72.091 435.594,74.331 436.008,75.032C436.057,75.032 436.108,75.032 436.159,75.032C436.181,74.994 436.208,74.955 436.234,74.919C436.385,74.56 436.452,74.32 436.651,74.048C436.757,74.112 436.748,74.13 436.918,74.161C437.519,73.541 439.48,72.808 439.648,71.926C439.622,71.901 439.597,71.875 439.571,71.849C439.483,71.849 439.397,71.849 439.306,71.849C438.76,72.566 437.868,73.129 436.992,73.517C437.157,72.748 437.686,72.368 438.093,71.849C438.08,71.787 438.067,71.723 438.055,71.661C437.967,71.648 437.878,71.636 437.789,71.623ZM463.394,74.009C463.406,74.034 463.419,74.06 463.432,74.086C463.419,74.06 463.405,74.034 463.394,74.009ZM465.858,78.061C466.004,78.139 466.077,78.19 466.162,78.329C466.149,78.341 466.137,78.352 466.124,78.365C466.013,78.277 465.915,78.215 465.858,78.061ZM456.035,79.804C456.047,79.83 456.06,79.855 456.073,79.881C456.061,79.855 456.047,79.83 456.035,79.804ZM456.073,79.881C456.098,79.917 456.125,79.955 456.147,79.994C456.125,79.956 456.099,79.917 456.073,79.881ZM456.147,79.995C456.16,80.02 456.173,80.043 456.185,80.069C456.174,80.043 456.16,80.02 456.147,79.995ZM456.186,80.069C456.225,80.146 456.264,80.221 456.302,80.298C456.277,80.285 456.25,80.272 456.225,80.259C456.212,80.195 456.199,80.133 456.186,80.069ZM462.635,80.334C462.699,80.347 462.761,80.36 462.825,80.372C462.8,80.372 462.773,80.372 462.751,80.372C462.725,80.398 462.699,80.424 462.673,80.449C462.661,80.449 462.648,80.449 462.635,80.449C462.635,80.411 462.635,80.372 462.635,80.334ZM466.124,82.002C466.195,82.107 466.151,82.007 466.162,82.154C466.149,82.154 466.137,82.154 466.124,82.154C466.124,82.103 466.124,82.051 466.124,82.002ZM492.715,181.324C493.149,181.872 492.956,183.077 493.209,183.788C494.154,184.135 494.938,185.508 494.538,186.781C494.525,186.781 494.512,186.781 494.499,186.781C494.447,186.768 494.396,186.755 494.347,186.742C494.271,186.665 494.197,186.591 494.118,186.513C494.094,186.513 494.069,186.513 494.044,186.513C493.74,187.194 493.985,187.678 493.776,188.447C493.618,189.041 493.363,189.766 493.17,190.416C493.121,190.681 493.07,190.946 493.019,191.211C492.129,192.65 487.576,192.378 486.154,191.478C485.542,191.087 485.462,189.216 485.283,188.447C485.269,188.131 485.257,187.815 485.243,187.501C485.041,187.012 484.822,187.226 484.676,186.326C484.601,185.866 484.747,184.336 484.864,184.243C485.442,183.973 485.974,183.978 486.649,183.788C487.205,183.536 487.761,183.281 488.317,183.029C489.415,182.713 490.21,182.273 491.163,181.931C491.691,181.74 492.27,181.63 492.715,181.324ZM430.772,186.173C431.639,186.204 432.518,186.54 433.275,186.741C433.997,186.741 434.716,186.741 435.436,186.741C436.491,187.055 438.391,186.846 439.457,186.741C439.482,186.767 439.509,186.792 439.534,186.816C439.603,187.492 439.82,188.562 439.95,189.088C440.121,189.767 439.326,193.541 439.041,193.899C438.642,194.4 437.915,194.357 437.221,194.545C436.521,194.733 435.31,194.935 434.338,194.771C433.686,194.663 433.07,194.553 432.554,194.316C431.398,193.789 431.299,192.125 430.96,190.794C430.828,190.277 430.728,189.374 430.165,189.318C430.001,189.405 429.836,189.492 429.671,189.583C429.545,189.393 429.417,189.206 429.29,189.015C429.159,188.369 430.348,187.002 430.771,186.781C430.772,186.577 430.772,186.376 430.772,186.173Z"/>
    </g>
</svg>
