<?xml version="1.0" encoding="UTF-8" standalone="no"?>
<!DOCTYPE svg PUBLIC "-//W3C//DTD SVG 1.1//EN" "http://www.w3.org/Graphics/SVG/1.1/DTD/svg11.dtd">
<svg width="100%" height="100%" viewBox="0 0 149 201" version="1.1" xmlns="http://www.w3.org/2000/svg" xmlns:xlink="http://www.w3.org/1999/xlink" xml:space="preserve" xmlns:serif="http://www.serif.com/" style="fill-rule:evenodd;clip-rule:evenodd;stroke-linejoin:round;stroke-miterlimit:1.41421;">
    <g transform="matrix(1,0,0,1,-562.519,-46.0664)">
        <path d="M709.927,241.162C709.927,241.162 709.816,238.605 709.594,236.714C709.372,234.823 708.259,231.486 708.369,229.484C708.48,227.483 707.258,217.027 707.924,207.462C708.591,197.897 704.588,198.342 704.921,193.003C705.255,187.665 703.588,190.334 703.588,188.664C703.588,186.998 703.254,181.214 702.475,176.208C701.698,171.203 703.921,159.524 703.921,159.524L707.147,166.087C707.147,166.087 710.374,163.194 709.15,160.637C707.926,158.078 707.816,150.517 708.26,145.956C708.705,141.395 705.368,134.612 704.7,132.608C704.032,130.608 706.479,127.381 707.037,124.934C707.037,121.821 703.811,121.931 703.811,121.931C703.811,121.931 705.589,119.929 707.926,116.37C710.262,112.812 711.596,107.028 711.151,99.799C710.707,92.569 706.368,85.562 705.034,84.339C703.698,83.115 701.919,76.996 701.919,76.996C701.919,76.996 700.028,77.776 698.917,76.219C697.806,74.663 699.362,72.66 699.918,71.325C700.475,69.989 701.253,66.43 701.141,60.537C701.03,54.641 691.465,51.971 688.683,52.529C685.902,53.085 681.455,55.086 682.234,56.754C678.341,60.648 679.787,65.875 679.787,65.875C677.454,61.981 674.335,60.87 672.777,60.87C671.221,60.87 667.217,61.538 662.878,62.206C658.54,62.873 656.985,71.77 657.095,73.55C657.206,75.329 655.537,76.776 652.758,79.445C649.976,82.114 648.309,87.676 643.749,91.235C639.19,94.793 639.745,102.358 639.745,102.358C639.745,102.358 625.174,88.231 619.613,82.782C619.724,68.434 638.298,64.097 637.408,63.762C636.52,63.429 634.518,60.314 636.408,56.533C638.299,52.752 647.42,49.081 647.42,49.081C647.42,49.081 642.525,48.525 637.855,48.302C633.184,48.08 640.746,46.19 641.079,46.079C641.413,45.966 638.077,46.633 633.739,47.19C629.4,47.746 621.838,51.416 615.052,55.198C608.268,58.979 603.82,62.429 601.04,65.431C597.703,62.983 597.702,65.319 599.261,67.32C595.034,71.101 589.695,83.892 587.469,86.896C585.244,89.9 584.689,90.678 583.243,94.572C581.797,98.465 579.461,108.808 579.461,108.808C579.461,108.808 585.578,109.142 587.691,110.031C591.139,103.247 598.481,99.686 603.708,98.576C606.489,85.34 617.389,83.561 617.389,83.561C617.389,83.561 636.519,102.244 639.633,105.803C638.743,107.359 639.3,110.809 639.854,111.699C640.411,112.589 639.744,113.589 638.298,117.593C636.852,121.597 639.967,127.271 642.969,126.824C645.972,126.38 649.086,116.26 649.086,116.26L661.655,109.251C661.655,109.251 671.998,113.367 671.554,114.368C671.108,115.368 669.886,144.176 670.775,144.954C671.666,145.733 669.553,162.193 669.553,162.193L676.782,173.317C676.782,173.317 676.783,238.605 677.228,238.493C677.672,238.382 678.786,240.718 677.784,240.827C676.782,240.94 675.893,243.608 675.893,244.166C675.893,244.721 676.005,246.056 677.784,245.721C679.563,245.388 706.369,246.501 706.369,246.501C706.369,246.501 706.258,241.051 705.924,240.827C705.589,240.606 709.927,241.162 709.927,241.162ZM685.233,85.897C683.805,87.43 681.347,92.144 681.216,92.814C681.274,92.858 681.281,92.887 681.231,92.902C681.204,92.912 681.204,92.872 681.216,92.814C680.887,92.57 678.748,91.814 673.556,89.455C667.439,86.674 670.886,87.232 671.554,84.117C672.221,81.004 673.666,83.004 675.003,81.892C676.337,80.78 677.671,77.444 677.893,75.664C678.115,73.884 677.116,73.44 678.228,72.771C679.34,72.105 679.672,69.768 679.672,69.768C679.672,70.881 681.008,74.218 681.231,78.222C681.454,82.225 684.568,79.446 686.791,80.114C689.015,80.78 686.791,84.228 685.233,85.897Z" style="fill:rgb(87,87,86);fill-rule:nonzero;"/>
        <path d="M655.203,72.217C656.093,71.994 656.538,70.214 657.429,70.214C658.318,70.214 658.318,70.437 658.653,70.994C658.986,71.548 659.654,71.66 659.987,71.327C660.32,70.994 660.876,69.659 660.876,69.659L662.656,69.546L662.767,68.101C663.767,67.655 663.528,67.229 663.88,66.877C664.658,66.098 664.658,65.32 664.213,65.21C663.767,65.098 661.988,65.098 661.988,65.098C661.988,65.098 660.765,65.764 660.654,65.21C660.542,64.653 660.097,63.542 660.097,63.542C659.654,63.095 658.205,63.096 658.096,64.097C657.985,65.098 657.762,65.21 656.982,64.987C656.205,64.765 654.203,64.654 655.425,65.432C656.65,66.211 658.096,66.434 657.094,66.654C656.093,66.877 655.611,67.237 655.425,67.655C654.982,68.657 657.317,68.546 655.871,68.768C654.425,68.99 653.537,70.436 654.092,70.545C654.647,70.657 653.536,71.992 655.093,71.77" style="fill:white;fill-rule:nonzero;"/>
        <path d="M700.36,77.665C700.36,77.665 701.138,78.445 698.469,79.891C695.801,81.337 690.46,84.785 690.016,85.786C689.571,86.786 690.46,88.12 690.46,88.12C690.46,88.12 688.013,89.679 687.681,91.124C687.348,92.57 688.124,93.349 686.456,93.237C684.789,93.126 685.789,91.68 685.123,92.014C684.456,92.348 683.899,93.682 683.454,94.014C683.009,94.348 681.897,95.906 682.008,95.461C682.119,95.016 682.899,90.79 683.788,90.234C684.678,89.677 685.346,87.898 685.567,87.232C685.789,86.563 687.236,82.449 690.795,80.446C694.355,78.444 700.249,77.665 700.36,77.665Z" style="fill:white;fill-rule:nonzero;"/>
        <path d="M679.004,100.022C679.004,100.022 669.884,99.689 666.658,104.581C663.878,102.581 656.427,99.576 650.866,102.023C651.421,102.134 648.974,106.585 648.641,109.586C648.307,112.588 648.418,113.698 649.085,116.26C649.753,118.819 654.313,121.599 651.2,125.158C648.086,128.716 645.306,132.275 643.971,143.064C642.637,153.854 644.526,162.64 644.304,170.091C644.082,177.544 645.528,177.321 638.409,182.549C631.29,187.776 631.18,192.78 628.509,197.675C625.841,202.568 619.613,205.794 614.496,211.577C609.38,217.361 607.6,223.144 604.487,223.702C601.372,224.258 592.139,221.032 589.915,221.255C587.692,221.477 585.133,221.477 583.131,223.59C581.13,225.702 577.682,225.591 575.568,225.258C573.455,224.925 567.448,222.366 566.67,221.81C565.891,221.255 562.111,227.816 562.555,232.598C563,237.381 563.668,239.719 570.341,240.163C577.014,240.606 582.241,239.052 583.243,241.053C584.243,243.054 585.021,244.611 590.249,240.607C595.477,236.603 594.365,234.269 603.597,234.269C612.828,234.269 621.948,234.714 623.839,236.494C625.729,238.273 626.174,236.828 631.18,236.938C636.184,237.049 644.193,240.053 644.193,240.498C644.193,240.941 648.976,242.945 649.308,242.723C649.642,242.499 651.646,241.833 654.426,242.165C657.206,242.498 661.876,242.498 663.323,243.498C664.767,244.5 666.881,243.945 668.216,241.942C669.55,239.938 669.885,239.272 671.887,238.938C673.888,238.605 677.114,239.161 677.67,238.938C678.227,238.716 680.339,238.716 681.897,238.271C683.454,237.826 686.569,236.937 687.013,235.602C687.458,234.268 685.233,213.357 685.123,210.019C685.012,206.684 682.342,194.449 681.787,189.556C681.229,184.661 681.454,179.768 680.787,177.542C680.118,175.318 679.229,170.537 679.229,170.537C679.229,170.537 677.226,170.647 677.115,170.203C676.001,170.759 675.446,170.203 675.224,168.868C675.001,167.534 673.889,169.202 673.889,167.422C673.889,165.644 673.778,161.75 673.778,161.75L672.443,160.304C672.443,160.304 673.776,151.185 672.442,146.959C671.106,142.73 671.44,135.948 672.551,130.83C673.665,125.714 674.888,120.82 675.11,118.595C675.333,116.37 676.114,106.139 679.004,100.022Z" style="fill:white;fill-rule:nonzero;"/>
    </g>
</svg>
