<?xml version="1.0" encoding="UTF-8" standalone="no"?>
<!DOCTYPE svg PUBLIC "-//W3C//DTD SVG 1.1//EN" "http://www.w3.org/Graphics/SVG/1.1/DTD/svg11.dtd">
<svg width="100%" height="100%" viewBox="0 0 169 188" version="1.1" xmlns="http://www.w3.org/2000/svg" xmlns:xlink="http://www.w3.org/1999/xlink" xml:space="preserve" xmlns:serif="http://www.serif.com/" style="fill-rule:evenodd;clip-rule:evenodd;stroke-linejoin:round;stroke-miterlimit:1.41421;">
    <g transform="matrix(1,0,0,1,-412.563,-685.687)">
        <path d="M459.788,693.861C459.788,693.861 461.693,692.458 460.79,690.15C459.888,687.844 458.083,686.642 458.083,686.642C458.083,686.642 456.579,687.745 455.777,686.943C454.975,686.141 445.851,684.034 442.342,688.147C438.832,692.256 436.928,694.762 438.531,698.271C440.136,701.781 439.935,702.182 439.835,703.384C439.735,704.587 439.835,706.292 439.835,706.292C439.835,706.292 438.933,708.599 438.231,709.201C437.529,709.803 435.524,709.7 433.719,710.605C431.914,711.506 428.205,714.614 426.3,717.02C424.396,719.426 422.39,726.947 422.39,726.947C422.39,726.947 420.786,728.049 419.983,730.556C419.182,733.062 421.187,734.665 419.382,737.371C417.577,740.079 415.973,745.192 416.073,746.796C416.173,748.4 417.677,754.116 417.677,754.116C417.677,754.116 415.07,774.267 414.067,778.278C413.065,782.287 412.563,786.097 412.563,786.399C412.563,786.7 412.764,788.204 414.368,788.204C415.972,788.204 422.088,788.905 422.088,788.905C422.088,788.905 424.795,816.676 424.494,821.389C424.194,826.101 422.088,843.948 422.088,846.954C422.088,849.962 424.093,858.084 423.291,859.989C422.489,861.893 424.395,862.295 424.395,862.295C424.395,862.295 423.793,861.994 423.693,864.6C423.592,867.207 424.494,868.411 424.494,868.411L431.713,869.515L432.114,868.312C432.114,868.312 437.628,869.616 442.541,869.515C447.454,869.413 451.865,867.81 451.865,867.81C451.865,867.81 456.878,843.648 456.678,842.946C456.478,842.244 454.17,778.478 454.17,778.478C454.17,778.478 454.973,770.157 456.176,765.245C457.379,760.333 455.875,757.024 456.276,757.224C456.677,757.425 461.89,759.229 462.392,759.531C462.892,759.831 464.497,743.69 464.497,743.69L455.575,725.242C455.575,725.242 453.268,721.231 453.168,720.129C453.067,719.027 450.26,715.316 450.26,715.316C450.26,715.316 451.864,709.602 454.17,710.404C456.476,711.206 457.479,710.604 458.08,709.3C458.682,707.997 459.384,706.492 459.384,706.492L459.785,704.788C459.785,704.788 461.89,704.188 461.59,703.684C461.289,703.184 458.983,701.178 459.785,699.573C460.588,697.972 460.691,695.363 459.788,693.861Z" style="fill:rgb(87,87,86);fill-rule:nonzero;"/>
        <path d="M440.035,706.795C439.736,706.762 448.858,718.525 449.961,729.553C451.164,739.478 451.365,741.185 449.46,744.894C447.556,748.604 439.735,762.741 438.833,765.145C442.041,765.247 450.262,774.168 450.262,774.168L452.969,768.153L451.866,774.869C451.866,774.869 454.273,769.656 454.574,762.437C454.874,755.219 454.574,749.405 454.975,746.198C455.376,742.987 454.874,734.566 454.975,730.856C455.076,727.146 451.767,718.525 451.767,718.525L450.263,715.316C450.263,715.316 449.361,714.012 448.96,713.51C448.558,713.01 444.748,707.297 440.035,706.795Z" style="fill:white;fill-rule:nonzero;"/>
        <path d="M455.174,724.741C455.174,724.741 456.277,723.339 458.883,723.939C461.49,724.539 464.9,725.141 466.403,722.235C467.907,719.327 467.907,717.923 467.907,717.923C467.907,717.923 467.405,718.624 466.002,719.125C464.599,719.628 463.496,720.628 464.097,721.832C464.699,723.036 463.296,719.226 465.501,718.323C463.796,716.919 462.192,715.616 462.693,713.912C463.194,712.208 461.289,710.403 462.893,707.796C464.497,705.189 461.49,704.989 463.695,702.583C465.901,700.176 468.508,697.469 468.508,696.466C468.508,695.464 471.316,695.866 471.617,696.267C471.917,696.667 473.12,696.568 474.424,696.568C475.728,696.568 478.534,696.868 480.74,698.472C482.947,700.076 485.052,701.28 484.45,703.185C485.553,704.99 485.352,707.093 484.951,708.498C484.55,709.9 485.653,711.808 484.65,713.311C483.648,714.814 483.447,715.315 482.745,716.62C482.043,717.923 481.242,719.427 479.937,719.427C478.634,719.427 476.729,720.329 477.832,722.134C478.935,723.939 481.441,723.838 485.351,725.542C489.262,727.246 494.676,731.357 498.185,733.162C501.694,734.968 510.016,740.181 511.52,742.485C513.023,744.792 513.224,745.092 511.72,746.697C510.217,748.3 507.008,755.72 504.801,758.427C502.596,761.132 500.39,763.239 499.288,764.541C498.184,765.844 496.48,767.95 494.475,767.548C492.469,767.149 490.665,769.454 490.665,769.454C490.665,769.454 489.261,768.852 490.063,768.052C490.865,767.25 491.366,766.648 491.366,766.648C491.366,766.648 489.06,766.347 486.454,767.851C485.451,768.052 484.85,766.648 488.459,765.043C487.055,764.743 484.95,766.246 484.047,766.347C483.145,766.447 481.541,766.246 483.647,765.043C485.752,763.84 487.156,762.738 488.559,762.738C486.955,761.935 485.751,762.035 484.851,762.135C483.948,762.235 482.344,761.734 484.45,761.331C486.555,760.932 487.056,760.131 488.36,761.032C489.663,761.934 490.666,762.234 492.47,762.234C494.275,762.234 495.177,762.634 496.68,760.931C498.184,759.226 501.292,752.709 501.894,750.304C502.495,747.896 503.197,745.692 503.197,745.692C503.197,745.692 497.883,742.182 495.978,740.979C494.073,739.777 489.963,737.368 489.361,737.368C488.759,737.368 486.755,738.173 485.45,739.474C484.148,740.778 482.844,742.282 482.844,742.282L456.375,738.072L455.174,724.741Z" style="fill:rgb(87,87,86);fill-rule:nonzero;"/>
        <path d="M456.578,735.97C456.64,735.614 462.493,734.969 465.099,736.07C466.403,735.668 466.803,736.07 469.009,734.966C471.215,733.865 476.629,729.354 484.55,739.178C485.252,741.986 484.45,745.293 483.548,746.497C482.645,747.7 482.645,754.918 484.851,757.426C486.655,759.33 494.074,765.045 494.074,765.045C494.074,765.045 499.488,764.745 505.705,770.46C511.92,776.172 517.233,784.395 518.638,789.508C520.041,794.621 519.941,794.319 521.645,800.336C523.35,806.351 525.857,805.851 528.965,809.661C532.073,813.47 531.672,812.066 533.576,818.182C535.481,824.298 542.599,826.605 552.426,833.723C562.251,840.839 553.929,839.738 561.549,839.738C569.169,839.738 571.475,839.638 572.076,841.042C572.678,842.447 571.875,846.556 573.178,847.96C574.481,849.363 577.991,853.875 579.194,854.277C580.398,854.676 582.102,857.585 580.398,858.689C578.694,859.79 578.493,860.292 580.398,862.096C582.303,863.901 581.5,865.703 579.897,866.807C578.293,867.911 574.884,871.019 568.367,869.915C561.85,868.811 554.832,867.911 550.721,870.116C546.611,872.322 544.205,872.521 543.403,872.924C542.6,873.324 539.192,871.019 537.989,870.818C536.786,870.618 528.063,870.92 527.963,871.219C527.862,871.52 527.261,874.327 524.955,870.418C522.649,866.507 523.652,869.414 521.546,870.518C519.441,871.621 518.538,870.717 514.829,870.919C511.12,871.119 510.117,868.711 510.218,868.312C510.319,867.912 514.328,867.611 507.51,868.211C500.693,868.812 492.371,869.214 492.371,869.214L491.369,872.423C491.369,872.423 482.145,871.62 480.841,871.62C479.538,871.62 477.632,869.414 475.126,870.217C472.62,871.019 475.227,872.723 472.82,872.122C470.414,871.521 470.414,871.018 470.614,870.317C470.815,869.615 472.72,867.911 470.314,869.013C467.908,870.116 467.206,870.116 466.403,869.914C465.601,869.716 468.809,872.02 464.599,872.121C460.388,872.221 450.662,872.222 447.555,872.02C444.448,871.818 442.743,870.014 442.743,870.014C442.743,870.014 440.737,868.81 438.13,868.711C435.524,868.611 434.421,866.907 430.109,866.805C425.798,866.706 432.816,865.804 434.22,864.299C435.624,862.795 433.719,855.877 434.12,853.07C434.521,850.262 436.727,850.165 439.835,844.648C442.943,839.132 442.643,838.232 443.043,831.212C443.444,824.195 444.146,824.295 444.948,819.281C445.751,814.268 443.544,817.276 445.049,811.561C446.553,805.847 448.96,801.535 448.558,798.328C448.157,795.119 450.764,791.21 451.465,786.497C452.167,781.785 454.773,773.464 458.683,772.059C460.889,770.658 461.391,768.752 461.291,767.95C461.19,767.148 461.391,757.223 461.291,754.616C461.19,752.01 460.79,750.406 459.386,748.701C457.982,746.998 455.173,743.988 456.578,735.97Z" style="fill:white;fill-rule:nonzero;"/>
        <path d="M499.217,756.709C498.294,758.538 497.336,760.192 496.681,760.935C495.178,762.638 494.276,762.238 492.471,762.238C490.667,762.238 489.664,761.938 488.361,761.036C487.057,760.135 486.556,760.935 484.451,761.335C482.345,761.737 483.95,762.238 484.852,762.139C485.753,762.038 486.956,761.939 488.56,762.742C487.157,762.742 485.753,763.844 483.648,765.047C481.542,766.25 483.147,766.45 484.048,766.351C484.951,766.25 487.056,764.747 488.46,765.047C484.851,766.651 485.452,768.056 486.455,767.855C489.061,766.351 491.367,766.652 491.367,766.652C491.367,766.652 490.866,767.255 490.064,768.056C489.262,768.857 490.666,769.458 490.666,769.458C490.666,769.458 492.47,767.152 494.476,767.552C496.48,767.954 498.185,765.848 499.289,764.545C500.392,763.242 502.597,761.136 504.802,758.431C505.173,757.975 505.573,757.384 505.988,756.711L499.217,756.711L499.217,756.709Z" style="fill:rgb(87,87,86);fill-rule:nonzero;"/>
        <path d="M483.052,752.865C483.052,752.865 484.085,753.11 484.33,753.847C484.577,754.586 484.379,755.471 484.379,755.471C484.379,755.471 484.872,755.814 485.068,756.011C485.264,756.208 485.706,756.551 485.706,756.551C485.706,756.551 485.608,757.437 484.576,758.274C483.543,759.111 482.461,759.111 483.149,758.274C483.838,757.438 484.035,756.947 484.035,756.947C484.035,756.947 482.658,757.586 482.608,757.292C482.559,756.995 483.444,755.618 483.444,755.618L483.395,754.093C483.396,754.093 483.297,753.945 483.052,752.865Z" style="fill:rgb(87,87,86);fill-rule:nonzero;"/>
    </g>
</svg>
