<?xml version="1.0" encoding="UTF-8" standalone="no"?>
<!DOCTYPE svg PUBLIC "-//W3C//DTD SVG 1.1//EN" "http://www.w3.org/Graphics/SVG/1.1/DTD/svg11.dtd">
<svg width="100%" height="100%" viewBox="0 0 221 523" version="1.1" xmlns="http://www.w3.org/2000/svg" xmlns:xlink="http://www.w3.org/1999/xlink" xml:space="preserve" xmlns:serif="http://www.serif.com/" style="fill-rule:evenodd;clip-rule:evenodd;stroke-linejoin:round;stroke-miterlimit:1.41421;">
    <g transform="matrix(1,0,0,1,-643.829,-22.8208)">
        <g transform="matrix(4.16667,0,0,4.16667,0,0)">
            <path d="M200.124,84.234C198.557,84.061 198.073,85.22 198.688,81.952C197.858,81.362 197.431,80.392 197.157,79.38C197.374,77.942 197.688,76.475 198.518,75.289C199,74.879 199.508,74.512 200.02,74.148C200.32,73.101 200.664,71.453 200.664,69.38C200.664,67.171 200.384,64.941 200.384,62.712C200.384,61.962 200.473,61.223 200.619,60.491C199.9,60.708 199.126,60.781 198.365,60.853C198.181,60.471 198.015,60.089 197.848,59.657C197.498,58.752 196.757,57.925 196.199,57.028C195.5,58.017 195.292,59.174 195.292,60.384C195.292,61.566 195.576,63.557 195.576,63.557C195.576,63.771 195.442,63.97 195.269,64.17C195.332,64.967 195.468,65.775 195.468,66.565C195.468,66.596 195.468,66.624 195.467,66.654C196.356,68.589 196.605,70.777 196.605,72.926C196.605,75.753 196.176,77.346 195.636,78.797C195.583,81.911 195.17,85.029 195.572,88.202C195.651,88.83 195.701,89.445 195.701,90.057C195.701,92.206 195.388,91.518 194.961,94.891C195.241,95.319 195.613,95.699 195.613,96.179C195.613,96.488 195.371,96.924 195.371,97.643C195.371,98.886 196.1,98.913 196.1,99.391C196.1,99.48 196.08,99.578 196.049,99.686C204.153,106.408 202.788,113.808 204.701,122.497C206.482,123.932 206.234,126.585 206.574,128.779C205.28,129.164 203.927,129.557 202.603,129.557C201.978,129.557 201.359,129.47 200.758,129.252C199.9,129.696 198.978,130.001 198.022,130.001C197.751,130.001 193.267,128.996 191.93,128.618C191.903,128.435 191.887,128.256 191.887,128.078C191.887,125.434 194.974,125.923 196.287,124.808C197.603,123.69 198.184,122.03 199.248,120.758C197.313,113.487 193.436,110.405 191.479,104.884C190.387,104.384 190.387,102.864 190.045,102.57C189.917,102.462 187.048,101.042 186.889,98.379C186.231,97.668 185.796,96.778 185.559,95.743C184.693,91.993 183.4,88.492 182.892,84.873C182.46,85.163 182.055,85.476 181.721,85.86C179.306,88.647 177.97,91.869 175.609,94.704C175.367,94.994 175.555,95.49 175.349,95.808C174.992,96.365 174.561,96.84 174.138,97.308C174.224,98.755 174.335,100.181 174.707,101.539C177.523,111.806 173.907,107.297 173.907,120.563C173.907,121.43 173.934,122.296 173.987,123.163C174.596,123.762 175.551,124.757 175.551,127.902C175.551,128.665 175.498,129.436 175.458,130.2C174.556,130.606 173.56,130.768 172.559,130.768C170.642,130.768 169.35,130.163 166.036,130.163C163.226,130.163 162.179,130.616 161.073,130.616C159.138,130.616 157.405,129.58 155.65,128.803C155.648,128.711 155.647,128.619 155.647,128.527C155.647,127.867 155.711,127.215 155.879,126.595C157.213,124.667 160.708,125.556 162.345,124.548C163.636,123.754 164.504,122.556 165.855,121.752C166.392,121.434 166.969,121.272 167.552,121.112C167.008,116.745 167.307,112.468 166.442,107.967C166.138,106.389 165.963,104.847 165.963,103.331C165.963,102.776 165.986,102.224 166.035,101.675C165.294,101.05 164.871,100.767 164.87,98.794C164.87,97.615 164.194,97.262 164.193,96.435C164.193,96.435 165.707,81.958 174.438,69.076C174.293,68.194 174.1,67.471 173.962,66.855C172.946,66.494 172.198,66.069 172.198,64.413C172.198,63.361 172.537,62.358 172.537,61.293C172.537,61.292 171.854,56.659 171.854,51.921C171.854,42.872 172.722,42.371 173.426,40.645C171.017,38.556 165.395,37.144 163.803,36.828C163.541,36.242 163.32,35.649 163.32,34.985C163.32,34.652 163.39,34.263 163.499,33.861C160.829,32.021 157.271,32.066 156.883,28.835C155.965,21.194 154.519,17.686 154.519,17.686C154.519,16.29 155.624,15.169 156.175,13.884C156.174,13.833 156.174,13.784 156.174,13.734C156.174,7.452 159.249,7.927 159.614,6.467C159.663,6.267 159.939,6.141 160.068,6.141C160.931,5.954 161.749,5.745 162.536,5.477C164.522,6.255 164.786,5.511 165.546,7.486C166.26,7.768 166.944,8.368 166.992,9.211C168.271,9.312 168.588,9.984 168.588,11.187C168.588,12.997 167.513,14.581 166.722,16.247C161.794,19.495 162.579,18.547 159.557,19.116C159.785,22.022 162.212,22.741 164.105,27.466C164.545,27.628 164.978,27.792 165.412,27.942C165.504,27.733 165.6,27.527 165.703,27.321C166.292,27.291 166.883,27.232 167.474,27.232C170.271,27.232 170.492,28.741 172.033,28.835C176.644,29.117 177.407,30.597 181.222,30.597C181.228,30.597 181.233,30.597 181.239,30.597C181.014,29.501 180.522,28.461 179.913,27.491C180.399,25.934 182.244,25.215 182.244,24.507C182.244,23.875 182.234,23.624 182.433,23.463C181.904,22.846 181.335,22.277 181.336,21.104C181.336,20.148 181.744,19.299 182.325,18.555C183.641,18.971 184.894,19.493 186.137,20.041C187.479,19.349 188.876,18.733 190.33,18.733C193.254,18.733 196.814,21.77 196.814,25.826C196.814,29.481 194.279,29.436 192.322,31.767C191.947,31.82 191.57,31.867 191.19,31.904C191.118,32.243 190.975,32.565 190.836,32.889C192.949,34.957 197.832,38.012 198.693,39.108C199.779,40.489 200.198,42.094 201.034,43.661C203.004,47.353 203.037,49.447 205.261,53.153C205.841,54.123 206.713,54.778 207.264,55.923C207.033,56.385 206.75,56.818 206.421,57.215C206.7,58.217 207.365,58.721 207.365,60.872C207.365,64.521 204.107,69.256 203.945,74.192C204.171,76.175 204.964,77.032 204.964,78.859C204.964,80.167 204.612,81.741 203.336,81.741C203.292,81.741 203.248,81.739 203.202,81.734C202.801,82.18 202.218,82.466 201.619,82.578C200.65,84.174 200.829,84.966 200.055,84.966C199.433,84.966 199.385,84.622 199.277,84.3L200.124,84.234Z" style="fill:rgb(3,4,4);fill-rule:nonzero;"/>
        </g>
    </g>
</svg>
