<?xml version="1.0" encoding="UTF-8" standalone="no"?>
<!DOCTYPE svg PUBLIC "-//W3C//DTD SVG 1.1//EN" "http://www.w3.org/Graphics/SVG/1.1/DTD/svg11.dtd">
<svg width="100%" height="100%" viewBox="0 0 300 506" version="1.1" xmlns="http://www.w3.org/2000/svg" xmlns:xlink="http://www.w3.org/1999/xlink" xml:space="preserve" xmlns:serif="http://www.serif.com/" style="fill-rule:evenodd;clip-rule:evenodd;stroke-linejoin:round;stroke-miterlimit:1.41421;">
    <g transform="matrix(1,0,0,1,-2746.57,-80.5177)">
        <g transform="matrix(4.16667,0,0,4.16667,0,0)">
            <path d="M680.674,41.333C680.674,41.333 679.987,41.281 679.25,41.281C678.521,41.281 677.797,41.319 677.076,41.373C678.33,40.287 679.889,39.594 681.528,39.152L681.528,39.153C681.528,39.572 681.191,40.038 681.413,40.39C681.534,40.584 681.663,40.766 681.797,40.94C681.436,41.143 681.066,41.333 680.674,41.333ZM730.551,132.848L730.551,132.847C730.551,129.474 729.193,128.248 727.831,126.443C727.141,120.571 726.162,114.619 722.558,109.896C722.676,109.489 722.769,109.158 722.769,108.945C722.769,108.474 720.96,106.563 719.548,105.996C719.579,105.702 719.61,105.409 719.635,105.113C719.361,104.89 719.119,104.633 718.898,104.356C718.417,102.816 717.77,100.443 716.818,96.509C714.755,87.978 711.802,85.761 710.392,83.933C710.376,83.466 710.324,83 710.19,82.534C710.05,82.04 709.021,82.526 709.021,81.632C709.021,81.207 709.315,80.412 708.749,80.412C708.628,80.412 708.489,80.437 708.363,80.437C708.129,80.437 707.98,80.347 707.98,79.953C707.98,78.994 707.448,79.052 706.951,78.657C707.324,78.117 707.617,77.76 707.617,77.757C707.617,77.721 707.611,77.689 707.593,77.674C706.922,77.252 706.567,76.668 706.212,76.087C706.844,74.974 707.546,73.899 708.202,72.796C707.883,71.974 707.363,71.666 706.892,71.297C706.923,71.174 706.941,71.027 706.941,70.848C706.941,69.599 706.439,68.327 706.439,67.107C706.439,65.467 707.777,64.074 708.993,60.134C709.653,59.92 710.293,59.646 710.908,59.317C712.124,56.581 713.106,52.915 713.106,50.156C713.106,44.046 709.331,42.381 707.725,42.381C707.254,42.381 706.785,42.5 706.328,42.5C705.629,42.5 705.484,42.239 703.589,41.58C703.589,41.015 703.827,40.368 703.827,40.344C703.827,40.077 703.614,39.784 703.614,39.567C703.614,39.272 704.062,39.165 704.114,39.009C704.114,38.437 704.325,37.937 704.383,37.422C704.777,37.41 705.117,37.239 705.117,36.845C705.117,36.114 704.084,35.016 704.084,34.334C704.084,34.007 704.216,33.656 704.426,33.347C705.053,33.396 705.641,33.434 706.291,33.434C706.934,33.434 707.803,33.441 708.214,33.165C707.307,32.358 705.798,31.439 704.785,30.862C704.424,27.693 703.73,24.603 696.931,24.603C691.433,24.603 689.015,27.361 689.015,32.628C689.015,35.279 688.941,36.004 690.306,36.388C690.716,37.197 691.326,37.855 691.998,38.462C691.923,39.06 691.619,39.596 691.399,40.181C690.582,40.254 690.115,40.44 688.792,40.775C687.58,39.315 687.004,37.937 686.246,37.387C686.148,36.863 685.976,36.385 685.62,36.045C685.729,35.686 685.807,35.418 685.807,35.389C685.807,34.805 684.483,34.049 683.732,33.667C683.732,33.66 683.732,33.656 683.732,33.652C683.732,31.715 684.147,30.041 684.147,25.909C684.147,23.766 683.891,22.179 683.511,20.062C683.013,19.868 681.966,18.572 679.81,19.953C679.645,28.071 681.107,29.265 681.43,32.639C673.214,41.491 663.479,40.394 660.266,44.311C660.019,45.685 659.96,46.48 659.373,47.625C659.219,47.925 659.176,48.252 659.176,48.591C659.176,48.881 659.208,49.18 659.229,49.478C660.777,51.463 663.732,50.409 667.6,51.936C668.03,52.784 668.514,53.601 669.144,54.288C669.3,54.299 669.456,54.305 669.613,54.305C670.797,54.305 670.69,54.103 672.444,54.103C672.67,54.103 672.896,54.105 673.121,54.105C675.793,54.105 676.08,53.219 679.12,53.219C679.582,53.219 680.043,53.25 680.501,53.31C681.025,54.597 681.561,55.116 681.561,58.876C681.561,60.239 682.16,62.206 682.644,63.565C682.083,66.556 681.526,65.842 682.845,68.664C682.361,70.575 681.818,73.112 681.818,73.351C681.818,74.421 682.618,75.102 683.517,75.666C683.566,75.924 683.622,76.181 683.685,76.438C683.121,77.102 682.54,77.532 682.54,77.532C682.54,77.805 682.78,78.119 682.977,78.567C682.515,79.031 682.077,79.531 681.688,80.104C676.944,87.11 673.869,95.605 673.59,106.382C672.916,106.737 672.233,107.057 672.233,108.012C672.233,108.077 672.237,108.146 672.243,108.219C672.245,108.224 672.245,108.231 672.245,108.236C672.245,108.493 671.648,108.442 671.637,108.551C671.548,109.339 671.059,109.946 671.059,110.58C671.059,110.991 671.287,111.485 671.565,111.981C670.654,113.819 670.018,115.755 670.018,117.825C670.018,118.746 670.284,121.665 670.284,124.304C670.284,125.226 670.255,126.15 670.174,127.071C669.792,127.408 669.438,127.776 669.15,128.213C669.075,128.33 668.207,132.183 667.91,134.51C667.265,135.472 666.73,136.484 666.529,137.622C666.967,139.659 669.146,140.217 671.046,140.217C674.109,140.217 674.306,138.461 674.321,137.198C675.302,136.741 676.036,136.073 676.036,134.982C676.036,134.431 675.826,133.876 675.375,133.474C675.521,132.808 675.652,132.135 675.652,131.485C675.652,129.568 674.583,129.362 674.583,128.737C674.583,128.622 674.593,128.492 674.593,128.358C674.593,127.921 674.385,127.556 674.229,127.101C676.003,120.834 679.333,119.756 679.333,115.044C679.333,114.38 679.297,113.712 679.296,113.044C679.866,112.727 680.286,112.296 680.286,111.468C680.286,111 680.169,110.531 680.088,110.053C680.411,109.994 680.728,109.926 681.026,109.82C682.46,109.309 681.967,106.98 682.572,106.009C683.438,104.617 684.727,103.633 685.003,101.976C688.027,100.502 687.561,97.832 690.858,95.681C691.628,95.179 691.422,94.1 692.127,93.692C692.897,93.249 696.108,92.193 696.656,92.193C699.049,92.193 702.414,97.178 703.783,99.049C704.297,99.757 705.127,100.024 705.714,100.597C707.061,101.903 707.823,103.565 709.473,104.575C710.244,105.045 710.411,107.755 712.688,109.137C712.646,109.348 712.617,109.55 712.617,109.738C712.617,110.2 713.581,111.056 714.24,111.583C714.27,112.961 715.194,112.971 716.097,113.165C717.558,120.4 722.292,121.547 724.493,128.395C724,129.876 723.547,131.314 723.547,132.57C723.547,134.589 724.01,138.265 725.324,140.405C725.902,140.488 726.486,140.532 727.067,140.532C727.994,140.532 728.917,140.418 729.803,140.167C730.44,138.903 731.011,137.62 731.011,136.242C731.011,134.566 730.551,135.227 730.551,132.848Z" style="fill:rgb(3,4,4);fill-rule:nonzero;"/>
        </g>
    </g>
</svg>
