<?xml version="1.0" encoding="UTF-8" standalone="no"?>
<!DOCTYPE svg PUBLIC "-//W3C//DTD SVG 1.1//EN" "http://www.w3.org/Graphics/SVG/1.1/DTD/svg11.dtd">
<svg width="100%" height="100%" viewBox="0 0 269 521" version="1.1" xmlns="http://www.w3.org/2000/svg" xmlns:xlink="http://www.w3.org/1999/xlink" xml:space="preserve" xmlns:serif="http://www.serif.com/" style="fill-rule:evenodd;clip-rule:evenodd;stroke-linejoin:round;stroke-miterlimit:1.41421;">
    <g transform="matrix(1,0,0,1,-183.254,-606.891)">
        <g transform="matrix(4.16667,0,0,4.16667,0,0)">
            <path d="M96.395,191.346C96.207,191.877 96.173,192.469 96.037,193.038C95.84,193.054 95.642,193.064 95.445,193.064C95.292,193.064 95.139,193.058 94.988,193.045C94.887,192.265 94.67,191.523 93.965,191.027C92.239,189.814 86.346,189.805 84.872,187.44C86.399,186.796 87.922,186.121 88.86,184.813C90.247,184.633 91.589,184.257 92.804,183.317C93.369,182.877 93.751,182.245 94.492,182.102C95.349,181.935 96.216,182.137 97.031,181.78C97.904,183.49 98.619,182.442 98.619,184.935C98.619,187.228 97.149,189.199 96.395,191.346ZM94.354,174.934C93.563,175.406 93.831,177.002 93.172,177.349C92.297,177.808 91.258,177.89 90.196,177.954C91.2,174.51 91.165,174.074 91.165,174.074C91.308,173.773 91.535,173.511 91.718,172.916C92.473,173.492 93.376,174.182 94.354,174.934ZM108.384,182.721C108.337,182.511 107.716,182.386 107.071,182.229C107.163,181.832 107.748,182.43 107.748,181.641C107.748,180.792 106.41,179.274 106.251,179.274C106.153,179.274 106.006,179.355 105.917,179.355C105.917,179.355 105.733,178.319 104.702,178.319C104.474,178.319 104.237,178.357 104,178.403C103.965,177.762 103.585,177.532 103.107,177.532C102.839,177.532 102.542,177.603 102.257,177.719C102.073,176.799 100.298,173.688 98.585,173.688C97.793,173.688 97.149,174.039 96.611,174.354C94.742,172.809 93.041,171.387 91.996,170.5C91.996,170.474 91.996,170.449 91.996,170.421C91.996,166.593 90.03,164.25 85.598,164.25C85.461,164.25 85.328,164.257 85.198,164.265C81.567,160.89 77.172,156.878 73.841,154.295C67.961,149.734 63.542,145.986 62.578,145.702C61.61,145.415 60.675,146.498 60.519,146.694C60.362,146.89 59.518,148.03 60.012,148.91C60.503,149.789 65.132,153.272 70.877,158.003C73.729,160.35 77.829,163.251 81.554,165.813C80.086,167.098 79.115,169.003 78.682,170.869C77.682,171.853 76.65,173.129 76.65,174.324C76.65,174.857 76.728,175.412 76.771,175.952C73.171,177.064 69.129,179.438 65.44,188.684C65.038,192.445 63.127,195.39 62.68,199.494C61.74,200.396 61.005,201.496 60.84,202.728C60.15,203 59.505,203.334 58.996,203.826C58.915,204.77 58.757,206.502 58.757,206.502C58.757,206.895 58.862,207.268 58.969,207.642C56.455,210.13 54.737,213.335 54.737,216.946C54.737,219.801 55.713,222.682 57.288,225.095C57.095,225.925 57.008,226.764 57.008,227.607C57.008,230.01 57.879,232.602 58.103,236.891C57.783,237.448 57.392,237.915 56.678,238.14C56.195,238.289 55.177,239.632 54.994,239.998C49.38,245.152 50.175,249.738 46.551,256.33C46.312,255.363 46.272,255.068 45.863,255.068C45.745,255.068 45.615,255.089 45.49,255.098C45.102,255.807 44.948,256.649 44.948,257.054C44.948,257.295 44.972,257.536 44.972,257.777C44.972,258.577 43.981,260.861 43.981,263.628C43.981,263.75 43.983,263.873 43.985,263.996C45.877,264.235 47.77,264.72 49.69,264.72C50.082,264.72 50.474,264.7 50.868,264.653C55.74,264.079 57.098,264.534 59.044,262.958C58.919,259.916 55.892,260.102 53.877,259.211C53.726,259.146 53.717,258.693 53.561,258.632C52.538,258.237 52.004,257.241 51.703,256.274C51.705,256.267 51.707,256.263 51.711,256.254C52.044,255.566 53.056,255.299 53.056,254.676C53.056,254.349 52.703,254.195 52.538,253.945C55.635,250.444 58.837,248.309 61.845,243.843C63.042,243.566 62.377,244.343 63.806,242.141C70.96,238.047 68.611,233.994 71.335,227.14C72.441,227.656 73.546,228.18 74.633,228.791C74.739,228.896 74.843,229.055 74.897,229.055C76.905,230.006 77.851,232.071 79.705,233.333C81.337,234.448 83.094,234.689 84.722,235.815C85.768,236.539 85.774,237.998 86.933,238.604C85.198,240.887 84.113,243.629 84.113,246.509C84.113,248.662 84.858,250.77 85.453,253.117C85.341,255.205 85.102,257.275 84.468,259.278C84.34,258.581 84.104,257.907 83.822,257.259L83.769,257.522C83.751,257.514 83.729,257.509 83.702,257.509C83.465,257.509 83.157,257.938 82.972,258.244C82.979,258.758 83.005,259.265 83.005,259.773C83.005,262.759 81.232,265.075 81.232,267.929C81.232,268.14 81.241,268.35 81.263,268.56C83.407,269.88 86.462,270.532 98.442,270.532C100.249,270.532 101.911,269.822 103.519,268.992C103.625,268.679 103.69,268.362 103.69,268.04C103.69,265.151 99.583,265.253 97.98,264.44C96.144,263.512 94.863,262.011 93.384,260.533C93.172,260.323 92.513,260.542 92.433,260.216C92.189,259.242 92.357,258.112 91.627,257.465C92.808,252.317 95.488,247.452 95.653,243.053C95.655,242.968 95.667,242.89 95.68,242.811C96.51,241.876 97.312,240.677 97.312,237.911C97.312,235.285 96.283,233.973 95.691,233.033C93.554,230.525 92.018,227.08 86.306,220.816C81.107,215.115 78.588,214.556 78.03,213.299C78.311,213.366 78.474,213.416 78.474,213.416C79.428,213.416 79.588,212.61 79.588,211.796C79.588,211.361 79.54,210.925 79.54,210.492C79.54,209.995 79.602,209.507 79.863,209.038C81.813,205.525 79.888,210.461 84.332,199.215C86.301,199.682 88.009,200.455 88.561,200.7C89.017,200.147 89.508,199.773 89.975,199.282C91.191,199.436 92.036,199.55 92.036,199.55C92.248,199.55 92.453,199.526 92.659,199.526C93.771,199.526 94.396,200.377 95.336,200.535C98.284,201.026 99.579,201.551 99.579,201.551C100.352,201.551 101.051,198.363 101.433,196.942C102.125,195.899 102.772,194.928 102.772,191.663C102.772,190.718 102.734,189.777 102.734,188.833C102.734,188.411 102.768,187.073 102.88,186.225C104.09,185.241 104.617,184.638 105.528,184.409C105.792,184.946 106.023,185.427 106.22,185.427C106.542,185.428 107.404,184.156 107.404,184.156C107.404,184.156 108.458,183.032 108.384,182.721Z" style="fill:rgb(3,4,4);fill-rule:nonzero;"/>
        </g>
    </g>
</svg>
