<?xml version="1.0" encoding="UTF-8" standalone="no"?>
<!DOCTYPE svg PUBLIC "-//W3C//DTD SVG 1.1//EN" "http://www.w3.org/Graphics/SVG/1.1/DTD/svg11.dtd">
<svg width="100%" height="100%" viewBox="0 0 479 488" version="1.1" xmlns="http://www.w3.org/2000/svg" xmlns:xlink="http://www.w3.org/1999/xlink" xml:space="preserve" xmlns:serif="http://www.serif.com/" style="fill-rule:evenodd;clip-rule:evenodd;stroke-linejoin:round;stroke-miterlimit:1.41421;">
    <g transform="matrix(1,0,0,1,-3211.46,-741.821)">
        <g transform="matrix(4.16667,0,0,4.16667,0,0)">
            <path d="M865.408,216.864C863.908,212.443 863.608,214.233 861.123,209.783C858.495,205.07 854.764,203.015 849.734,203.015C849.439,203.015 849.147,203.023 848.857,203.033C848.795,202.667 848.776,202.302 848.776,201.934C848.776,201.832 848.779,201.73 848.783,201.629C849.052,201.631 849.326,201.638 849.596,201.638C853.12,201.637 852.332,199.702 852.756,197.326C852.881,196.626 853.578,195.986 853.578,195.406C853.578,195.129 853.455,194.863 853.301,194.591C854.936,194.11 857.642,194.153 857.642,191.102C857.642,190.314 857.381,189.525 856.909,188.864C856.186,188.821 855.458,188.784 854.734,188.784C854.404,188.784 854.076,188.792 853.752,188.809C852.028,186.974 851.108,184.569 846.615,184.569C845.796,184.569 844.965,184.671 844.15,184.849C841.235,186.102 839.637,189.156 839.637,192.397C839.637,192.84 839.673,193.257 839.673,193.257C839.673,193.517 839.529,193.754 839.529,194.129C839.529,194.247 839.711,196.129 840.645,197.645C840.28,199.153 839.724,200.598 839.027,201.976C838.281,201.986 837.616,202.389 836.959,202.828C835.638,202.525 834.271,202.602 832.854,202.407C832.585,202.37 832.25,202.198 831.976,202.197C830.64,202.197 829.187,202.773 827.772,203.493C827.192,203.446 826.607,203.43 826.024,203.43C824.655,203.43 823.277,203.52 821.927,203.52C820.013,203.52 818.369,203.098 817.019,202.391C817.021,202.267 817.025,202.147 817.025,202.026C817.025,200.623 814.328,195.629 814.328,190.763C814.328,190.236 814.356,189.708 814.426,189.18C815.009,188.577 815.826,188.141 816.012,187.374C816.315,186.109 817.72,186.02 817.949,184.146C818.707,183.597 819.193,182.993 819.193,181.632C819.193,179.651 817.722,178.037 815.705,178.037C813.975,178.037 812.749,179.23 812.749,180.752C812.749,181.197 812.852,181.637 813.008,182.065C811.389,183.468 810.347,186.078 810.347,186.903C810.347,187.218 810.402,187.529 810.472,187.841C809.542,189.592 810.123,195.252 809.469,198.788C809.397,199.166 809.348,199.561 809.348,199.947C809.348,200.587 809.54,201.157 809.819,201.695C809.353,202.714 808.725,204.301 808.725,204.748C808.725,205.989 810.08,207.144 810.581,208.531C810.581,208.672 810.862,208.852 811.069,208.879C811.977,208.992 812.852,209.2 813.714,209.458C816.476,213.112 817.912,211.585 820.185,213.404C825.622,217.751 826.559,218.348 827.281,219.943C827.152,222.915 826.509,226.407 826.509,227.63C826.509,228.83 827.181,230.194 827.496,231.568C827.75,232.703 828.508,233.497 829.447,234.121C829.213,234.44 828.975,234.75 828.881,235.075C828.753,235.515 828.671,235.947 828.602,236.38C824.988,238.276 823.369,242.306 822.918,246.404C821.972,247.804 821.63,250.514 820.813,251.331C817.937,254.209 816.371,258.019 814.991,260.825C814.31,261.134 813.756,261.678 813.086,262.138C812.716,262.39 812.159,262.271 811.76,262.574C811.255,262.96 810.854,263.423 810.456,263.886C803.162,264.077 800.474,265.325 793.04,270.757C792.866,270.745 792.694,270.741 792.52,270.741C789.977,270.741 789.519,272.454 788.215,272.454C787.693,272.454 786.143,271.402 784.2,271.1C782.833,271.555 781.664,272.761 781.283,274.23C781.156,274.719 780.501,274.775 780.17,275.273C779.351,276.501 780.964,275.498 777.037,279.656C774.714,282.117 770.75,283.752 770.75,285.817C770.75,286.244 770.792,286.284 771.488,287.472C772.617,287.641 773.608,288.269 774.957,288.269C777.601,288.269 779.681,286.038 782.049,284.875C783.584,284.12 785.525,284.382 786.849,283.484C787.514,283.035 787.825,282.238 788.101,281.358C789.201,280.838 790.7,281.072 791.582,280.074C793.177,278.272 795.834,279.102 800.562,277.569C801.796,277.169 802.837,276.539 803.811,275.825C805.208,275.043 806.957,275.152 808.354,274.507C809.46,273.998 810.239,273.078 811.487,272.908C814.276,272.523 816.767,271.766 819.352,270.819C820.071,270.555 820.667,270.146 821.132,269.628C824.981,268.21 823.943,266.017 827.284,263.998C830.946,261.786 832.878,260.925 835.796,256.986C838.043,256.024 841.346,255.84 841.426,255.84C842.873,255.84 844.067,256.72 845.309,257.317C847.468,258.357 849.694,258.209 852.06,258.64C852.756,258.766 853.172,259.488 853.87,259.613C856.543,260.096 858.953,260.916 861.322,261.836C862.44,264.525 862.805,267.494 862.805,270.435C862.805,273.341 866.449,277.352 866.449,284.35C866.449,287.666 865.183,287.133 866.786,287.858C866.259,288.957 865.899,290.194 865.757,291.425C867.887,292.079 867.824,293.15 871.547,293.15C871.989,293.15 872.434,293.141 872.88,293.141C875.825,293.141 875.023,293.903 875.933,293.992C879.14,294.318 882.238,294.888 885.376,295.059C885.459,294.79 885.499,294.526 885.499,294.265C885.499,291.018 880.683,290.142 878.434,288.079C877.158,286.902 876.589,284.712 875.093,283.809C875.073,283.388 875.03,282.974 874.888,282.579C874.642,281.903 874.617,281.215 874.617,280.532C874.617,280.362 874.617,280.197 874.617,280.027C874.617,279.393 874.6,278.754 874.398,278.124C872.425,271.91 872.224,259.41 870.026,254.369C868.225,252.71 866.458,252.128 862.916,248.27C859.826,244.903 851.313,242.51 848.272,240.521C848.203,239.813 848.205,239.192 848.104,238.453C848.125,238.432 848.145,238.409 848.162,238.387C849.857,236.389 850.031,233.926 851.503,231.775C853.884,228.296 853.542,226.605 854.096,223.268C854.764,222.923 855.436,222.758 855.741,222.758C856.567,222.758 857.284,223.44 858.167,223.44C858.535,223.44 858.966,223.346 859.433,223.211C862.029,224.989 860.146,230.246 861.871,230.871C864.578,231.847 866.268,235.332 869.805,236.369C871.127,236.754 872.359,237.291 873.565,237.863C875.486,236.409 874.785,238.001 875.962,235.27C876.788,234.223 877.817,232.731 877.817,231.931C877.817,230.292 876.033,228.692 874.957,227.462C873.883,226.233 871.974,226.467 870.433,225.86C869.676,225.561 869.381,224.562 868.834,224.328C868.237,224.076 867.614,223.925 866.974,223.821C864.888,219.403 864.571,220.12 864.571,219.011C864.571,218.276 864.978,217.543 865.408,216.864Z" style="fill:rgb(3,4,4);fill-rule:nonzero;"/>
        </g>
    </g>
</svg>
