<?xml version="1.0" encoding="UTF-8" standalone="no"?>
<!DOCTYPE svg PUBLIC "-//W3C//DTD SVG 1.1//EN" "http://www.w3.org/Graphics/SVG/1.1/DTD/svg11.dtd">
<svg width="100%" height="100%" viewBox="0 0 330 394" version="1.1" xmlns="http://www.w3.org/2000/svg" xmlns:xlink="http://www.w3.org/1999/xlink" xml:space="preserve" xmlns:serif="http://www.serif.com/" style="fill-rule:evenodd;clip-rule:evenodd;stroke-linejoin:round;stroke-miterlimit:1.41421;">
    <g transform="matrix(1,0,0,1,-1306.47,-1178.73)">
        <g transform="matrix(4.16667,0,0,4.16667,0,0)">
            <path d="M367.333,289.098C368.104,288.894 367.498,288.521 370.549,289.502C370.856,289.602 371.125,289.759 371.375,289.939C372.214,287.874 374.519,282.894 379.512,282.894C382.526,282.894 385.72,285.73 385.72,288.794C385.72,290.862 384.09,293.376 383.73,294.721C382.151,296.194 381.562,298.266 380.738,298.266C380.347,298.266 379.896,298.016 379.434,297.753C379.465,299.872 380.749,301.554 380.749,304.048C380.749,308.557 376.564,311.075 372.641,312.692C371.116,313.319 371.714,314.93 370.294,315.796C370.153,315.881 370.01,315.963 369.87,316.046C369.615,317.193 369.392,318.35 369.392,319.5C369.392,319.725 369.401,319.949 369.421,320.175C369.108,320.235 368.793,320.255 368.477,320.255C368.432,320.255 368.383,320.255 368.338,320.253C368.095,321.419 367.807,322.182 367.505,322.765C367.614,323.306 367.73,323.866 367.73,324.574C367.73,325.135 367.67,325.688 367.612,326.242C369.85,331.383 370.308,340.264 370.308,343.615C370.308,345.504 370.203,346.734 370.142,348.008C370.271,348.317 370.421,348.621 370.586,348.916C373.148,349.374 377.355,351.096 378.722,353.44C379.574,354.905 380.271,356.41 380.999,357.884C381.832,358.607 383.121,359.508 385.282,361.061C388.851,363.625 392.751,371.305 392.751,374.156C392.751,374.765 392.676,375.373 392.537,375.961C391.369,376.86 389.855,377.405 388.641,377.405C386.939,377.405 384.561,377.407 384.561,375.882C384.561,375.387 384.621,374.892 384.71,374.399C381.866,368.687 381.209,367.209 381.057,366.037C379.974,365.628 378.75,365.432 378.75,364.297C378.75,364.022 378.831,363.743 378.967,363.489C376.748,361.582 370.303,358.234 367.684,356.714C360.893,355.99 359.522,348.827 359.142,344.718C357.878,340.1 355.346,337.277 353.729,334.495C349.913,337.55 351.805,336.522 347.988,346.223C347.785,346.741 347.205,346.366 347.205,347.182C347.205,347.291 347.211,347.402 347.211,347.51C347.211,347.907 346.981,348.264 346.655,348.608C346.655,348.706 346.655,348.8 346.655,348.898C346.655,355.596 343.323,357.107 342.055,361.506C342.586,365.421 348.848,366.758 348.848,370.635C348.848,370.723 348.844,370.813 348.839,370.907C348.281,371.095 347.7,371.183 347.097,371.183C345.949,371.183 345.693,370.932 344.342,370.932C343.046,370.932 341.773,371.178 340.497,371.178C338.701,371.178 337.938,370.751 337.312,370.107C337.283,369.734 337.259,369.35 337.259,369.083C337.259,368.545 337.292,368.017 337.292,367.477C337.292,366.57 337.207,366.468 337.207,365.919C337.207,364.69 337.696,363.554 338.393,362.542C338.295,360.506 338.17,358.489 338.17,356.457C338.17,352.42 338.484,350.358 339.802,347.933C339.563,347.44 339.244,346.918 339.244,346.352C339.244,345.993 340.273,343.702 340.369,343.55C340.528,343.298 340.72,343.07 340.927,342.855C340.885,342.555 340.845,342.253 340.845,341.958C340.845,341.149 341.282,340.406 341.725,339.64C341.586,338.662 341.37,337.699 341.37,337.048C341.37,336.576 341.486,336.103 341.486,335.63C341.486,335.621 341.392,334.415 341.392,333.299C341.392,331.661 341.805,323.915 343.708,321.249C343.708,321.242 343.708,321.235 343.708,321.231C343.708,320.433 343.909,319.647 344.456,318.973C344.829,318.512 344.302,316.832 346.928,315.644C346.985,315.501 347.046,315.362 347.106,315.222C346.579,314.733 346.369,314.036 346.369,313.295C346.369,312.788 346.468,312.261 346.633,311.767C346.17,311.521 345.364,310.877 345.262,310.749C345.262,310.749 344.646,309.682 344.172,308.927C334.105,304.166 313.689,299.379 313.553,296.364C313.655,295.892 314.125,294.698 314.984,294.649C318.483,294.443 336.888,304.791 344.417,307.496C344.411,307.402 344.406,307.306 344.406,307.215C344.406,306.053 346.17,306.019 348.002,305.365C347.89,305.08 347.821,304.773 347.821,304.478C347.821,303.31 348.598,303.558 350.21,300.806C350.478,300.348 350.826,299.981 351.21,299.658C351.041,299.2 350.94,298.716 350.875,298.226C351.635,297.385 352.671,296.791 353.238,295.759C355.212,292.168 356.054,287.383 362.119,287.383C364.723,287.383 366.042,288.191 367.333,289.098Z" style="fill:rgb(3,4,4);fill-rule:nonzero;"/>
        </g>
    </g>
</svg>
