<?xml version="1.0" encoding="UTF-8" standalone="no"?>
<!DOCTYPE svg PUBLIC "-//W3C//DTD SVG 1.1//EN" "http://www.w3.org/Graphics/SVG/1.1/DTD/svg11.dtd">
<svg width="100%" height="100%" viewBox="0 0 126 174" version="1.1" xmlns="http://www.w3.org/2000/svg" xmlns:xlink="http://www.w3.org/1999/xlink" xml:space="preserve" xmlns:serif="http://www.serif.com/" style="fill-rule:evenodd;clip-rule:evenodd;stroke-linejoin:round;stroke-miterlimit:1.41421;">
    <g transform="matrix(1,0,0,1,-101.345,-13.608)">
        <path d="M101.363,171.56C101.666,169.598 105.024,169.175 107.117,168.956C108.068,167.298 108.516,163.121 108.85,160.988C109.076,159.55 108.183,156.531 108.535,155.86C108.742,155.467 110.035,155.258 110.506,155.149C110.959,154.333 110.988,153.32 111.294,152.309C111.939,150.175 112.551,147.866 113.028,145.523C113.107,143.21 113.186,140.895 113.264,138.581C113.264,137.267 113.264,135.951 113.264,134.637C112.823,131.75 113.355,129.002 112.87,126.353C112.634,125.038 112.397,123.722 112.161,122.407C111.724,120.861 110.564,118.524 110.9,116.49C111.489,112.926 114.303,111.574 116.654,109.784C117.653,108.864 118.651,107.943 119.649,107.023C119.911,106.891 120.174,106.759 120.437,106.628C120.961,105.847 120.97,105.08 121.541,104.419C122.52,103.284 123.836,102.293 124.379,100.711C124.405,97.213 124.432,93.715 124.458,90.217C124.983,83.117 125.509,76.015 126.034,68.915C126.007,67.811 125.981,66.706 125.955,65.601C126.432,62.56 126.1,59.624 126.901,57.001C127.845,53.904 129.376,51.819 131,49.506C128,42.373 122.634,37.185 119.571,29.94C118.577,27.589 116.027,24.034 116.418,20.63C116.693,18.237 124.75,17.335 127.531,16.843C129.712,16.448 131.893,16.054 134.073,15.659C136.217,15.236 138.055,15.533 139.985,15.028C142.702,14.318 145.193,13.327 148.418,13.766C148.996,13.714 149.574,13.661 150.152,13.608C150.725,13.813 152.723,14.983 153.148,15.028C153.842,15.102 154.661,14.68 155.512,15.107C156.263,15.484 156.021,15.993 157.325,16.29C157.731,16.852 157.676,17.493 157.64,18.579C158.447,18.926 159.154,18.816 159.453,19.683C158.886,19.321 158.459,19.034 157.483,19.052C157.457,19.131 157.43,19.21 157.404,19.289C159.067,21.478 161.642,22.194 161.502,25.995C161.975,26.232 162.447,26.469 162.921,26.706C163.025,26.864 163.131,27.021 163.236,27.179C162.684,26.916 162.132,26.653 161.58,26.39C161.58,26.89 161.58,27.389 161.58,27.889C162.393,28.434 163.302,28.347 164.339,28.441C164.339,28.467 164.339,28.494 164.339,28.52C163.892,28.651 163.445,28.783 162.999,28.915C162.973,28.967 162.947,29.019 162.921,29.073C162.921,29.177 162.921,29.283 162.921,29.388C163.078,29.572 163.236,29.757 163.394,29.941C162.773,29.846 162.282,29.784 161.818,29.625C161.792,29.625 161.765,29.625 161.739,29.625C161.19,32.012 164.219,32.071 164.734,33.728C165.153,35.074 164.816,37.25 165.286,38.462C165.669,39.29 166.783,39.543 168.044,39.487C167.211,39.844 165.973,39.361 165.443,39.093C165.391,39.119 165.339,39.145 165.286,39.172C165.234,39.751 165.181,40.329 165.128,40.908C165.102,40.908 165.076,40.908 165.049,40.908C164.865,40.04 164.682,39.172 164.497,38.304C163.788,37.962 163.078,37.62 162.37,37.278C160.866,38.769 162.525,41.686 163.631,42.17C162.931,42.344 162.018,41.222 161.818,40.592C161.686,40.592 161.555,40.592 161.423,40.592C161.397,40.619 161.371,40.645 161.344,40.671C161.449,40.934 161.554,41.198 161.659,41.461C161.738,41.565 161.817,41.671 161.895,41.776C161.501,41.644 161.107,41.513 160.712,41.381C160.686,41.487 160.66,41.591 160.633,41.697C160.633,41.723 160.633,41.749 160.633,41.776C161.162,42.215 160.683,42.327 160.633,43.275C160.709,43.371 161.737,44.853 161.737,44.853C162.985,45.851 164.678,46.097 165.836,47.141C170.535,51.382 176.315,54.881 181.836,58.266C183.985,59.583 187.067,59.855 189.245,61.027C194.723,63.978 200.143,67.977 206.427,70.021C208.974,70.85 211.101,69.413 212.811,68.917C214.099,68.995 215.387,69.074 216.673,69.153C216.858,68.943 217.041,68.732 217.225,68.522C217.426,67.52 216.729,66.425 217.146,65.209C218.105,62.412 221.648,55.363 225.974,58.502C227.484,59.598 227.355,62.191 226.526,63.946C226.206,64.622 225.459,65.187 225.028,65.76C223.131,68.291 223.052,70.211 218.881,69.942C218.881,70.126 218.881,70.31 218.881,70.494C216.904,72.368 217.642,72.238 218.487,74.518C218.07,75.054 217.894,75.466 216.989,75.543C216.674,76.752 216.431,77.336 214.861,77.279C214.071,78.646 213.457,78.267 211.945,78.936C211.09,79.314 209.901,80.98 209.423,81.776C203.095,92.301 197.139,102.557 190.034,112.23C188.3,114.097 186.565,115.965 184.832,117.832C183.177,120.094 181.521,122.355 179.866,124.618C177.87,126.511 175.873,128.405 173.876,130.298C171.571,133.161 169.846,136.419 167.728,139.529C165.253,143.162 161.862,146.237 159.137,149.629C158.349,150.575 157.56,151.522 156.773,152.469C157.397,154.071 157.877,155.7 159.059,156.729C159.111,156.871 159.798,156.63 160.162,156.809C160.928,157.332 161.741,159.95 162.763,160.753C162.67,161.791 163.371,162.57 163.157,163.673C162.961,164.684 162.002,165.181 161.66,166.038C161.555,166.539 161.45,167.039 161.345,167.538C160.486,170.746 160.913,174.646 160.321,178.032C160.075,178.153 159.811,178.199 159.375,178.189C159.48,174.665 159.585,171.14 159.69,167.617C159.69,167.564 159.69,167.512 159.69,167.46C158.131,168.667 157.146,171.939 156.537,174.008C156.064,175.618 156.401,177.255 155.592,178.426C154.542,179.944 149.929,179.435 147.632,179.215C146.301,179.087 145.163,178.823 144.242,178.347C144.032,177.531 143.822,176.715 143.612,175.901C143.131,173.295 147.791,173.338 148.656,172.035C150.284,169.581 150.55,164.682 150.548,161.147C150.496,161.121 150.443,161.094 150.39,161.068C147.946,163.738 145.808,166.839 142.902,169.037C141.01,170.468 138.488,171.738 137.464,174.008C137.3,174.307 137.468,174.37 137.543,174.875C137.201,175.348 136.86,175.822 136.519,176.296C137.972,178.085 144.433,183.249 144.558,185.29C144.628,188.628 140.315,187.753 134.548,184.5C134.259,184.71 133.97,184.922 133.681,185.132C133.135,184.805 132.187,184.313 131.947,183.711C131.655,182.976 131.926,182.792 131.395,182.37C129.148,180.585 127.05,178.756 125.248,176.531C124.777,175.951 123.646,175.843 123.356,175.111C123.356,174.822 123.356,174.532 123.356,174.243C122.803,173.146 120.934,172.172 121.385,170.299C121.898,169.057 123.615,169.07 125.01,169.51C127.343,170.247 132.173,172.405 133.522,174.086C133.627,174.086 133.733,174.086 133.837,174.086C134.47,172.865 135.459,172.873 136.517,172.113C137.017,171.535 137.515,170.956 138.014,170.377C141.955,165.249 145.896,160.121 149.837,154.992C149.075,151.505 146.069,148.177 144.319,145.524C141.993,141.998 139.637,138.32 137.069,134.953C135.287,132.615 129.926,129.057 130.763,124.538C131.918,120.83 133.075,117.121 134.231,113.413C134.231,113.281 134.231,113.149 134.231,113.018C132.877,113.47 131.91,117.461 131.236,118.935C131.183,119.013 131.131,119.093 131.078,119.172C129.838,118.983 129.483,116.208 128.005,115.305C127.456,115.613 127.028,116.35 126.507,116.725C125.005,117.807 122.792,118.758 121.857,120.354C120.882,122.017 123.336,128.245 122.802,131.399C121.915,136.643 120.938,141.471 119.413,146.311C118.705,148.558 117.803,151.643 117.6,154.123C118.134,154.769 118.689,155.299 118.862,156.331C119.098,156.411 119.334,156.49 119.571,156.568C120.004,156.846 121.576,160.334 121.305,161.301C121.069,161.565 120.831,161.828 120.596,162.091C120.28,162.986 119.965,163.879 119.65,164.774C118.783,167.745 118.702,171.965 118.704,175.425C118.386,175.516 118.025,175.653 117.679,175.504C117.6,175.478 117.522,175.451 117.443,175.425C117.096,172.771 118.847,166.905 116.812,165.169C113.416,165.716 113.603,173.554 111.058,175.189C108.566,176.791 103.877,174.234 101.758,174.085C101.765,173.174 101.241,172.349 101.363,171.56ZM132.26,16.526C128.95,17.131 125.639,17.736 122.329,18.341C121.336,18.576 117.496,19.427 117.127,19.998C116.24,21.371 118.761,26.52 119.177,27.335C122.073,33.02 124.944,38.252 128.398,43.273C129.437,44.783 129.933,47.426 131.629,48.243C132.129,48.269 132.628,48.297 133.127,48.323C134.56,45.934 135.619,43.193 137.778,41.538C137.778,41.406 137.778,41.275 137.778,41.143C135.729,40.685 134.453,38.762 132.969,37.277C129.466,33.77 125.616,30.234 123.354,25.522C123.425,23.766 125.142,23.456 126.349,22.839C129.622,21.166 133.335,19.532 137.305,18.736C137.463,18.263 137.62,17.79 137.779,17.316C138.068,16.948 138.356,16.58 138.645,16.212C138.541,16.107 138.436,16.002 138.33,15.897C136.306,16.105 134.283,16.315 132.26,16.526ZM130.369,17.631C130.369,17.604 130.369,17.578 130.369,17.552C130.789,17.473 131.209,17.394 131.629,17.315C131.209,17.42 130.789,17.525 130.369,17.631ZM124.457,24.968C124.046,26.095 126.82,29.19 127.373,30.017C129.714,33.515 132.653,35.977 135.491,38.932C136.31,39.785 137.399,41.633 139.432,41.141C140.167,40.641 140.904,40.141 141.639,39.641C142.072,37.242 140.372,35.128 139.668,33.33C138.937,31.458 139.529,28.973 138.802,26.939C138.496,26.086 137.671,25.457 137.304,24.73C137.225,24.046 137.147,23.362 137.068,22.679C136.943,22.246 136.61,22.224 136.516,21.653C136.779,21.075 137.041,20.496 137.304,19.918C137.265,19.486 137.235,19.525 137.068,19.287C134.286,20.046 125.417,23.046 124.457,24.968ZM140.693,22.364C138.037,24.149 139.058,25.75 139.589,28.913C139.641,30.017 139.693,31.122 139.746,32.226C140.35,33.514 140.955,34.803 141.559,36.092C142.275,37.797 143.058,40.36 145.973,39.484C147.786,38.94 149.039,37.652 150.387,36.644C149.943,38.805 144.469,41.68 142.505,39.09C142.426,39.116 142.347,39.142 142.269,39.169C141.902,39.642 141.534,40.116 141.165,40.588C139.054,42.202 136.024,44.391 135.805,47.768C137.017,48.081 138.91,47.638 140.14,47.453C143.345,47.427 146.551,47.4 149.756,47.374C150.223,47.139 152.999,42.285 153.066,41.536C152.328,40.644 150.362,39.414 150.623,37.67C150.832,37.328 151.044,36.985 151.254,36.644C151.806,35.579 152.193,34.433 152.199,32.857C154.176,32.67 155.275,31.336 154.642,29.385C154.256,29.134 153.839,28.883 153.223,29.07C153.256,24.918 151.867,22.519 148.652,21.733C146.874,21.297 144.678,22.358 143.45,21.338C142.066,21.323 141.487,21.831 140.693,22.364ZM163.393,27.414C163.281,27.257 163.331,27.293 163.314,27.177C163.34,27.256 163.366,27.335 163.393,27.414ZM163.393,27.572C163.419,27.519 163.445,27.467 163.472,27.414C163.445,27.467 163.418,27.519 163.393,27.572ZM122.88,33.647C122.906,33.595 122.933,33.541 122.959,33.489C122.933,33.541 122.906,33.595 122.88,33.647ZM123.117,33.883C123.006,33.726 123.055,33.762 123.038,33.647C123.064,33.726 123.091,33.805 123.117,33.883ZM139.353,42.877C139.327,42.877 139.301,42.877 139.274,42.877C139.353,42.772 139.432,42.667 139.511,42.562C139.459,42.667 139.405,42.772 139.353,42.877ZM155.274,43.509C154.05,45.182 152.567,46.764 151.727,48.795C152.545,50.965 154.012,54.525 153.146,57.631C153.365,57.881 153.238,57.888 153.697,57.946C155.344,56.795 156.518,53.792 159.845,54.711C164.337,56.867 168.83,59.024 173.323,61.181C175.713,62.076 178.104,62.97 180.495,63.864C184.406,65.546 188.447,67.684 192.475,69.387C195.443,70.439 198.413,71.491 201.381,72.543C203.571,73.406 205.99,74.215 207.765,75.541C208.469,76.067 209.415,77.857 210.365,77.75C210.744,77.527 212.504,74.553 212.336,73.884C212.178,73.252 211.781,73.188 211.784,72.306C212.305,72.057 212.84,72.236 213.439,72.306C213.96,71.825 214.426,71.284 214.937,70.807C214.964,70.755 214.99,70.703 215.017,70.649C215.647,71.253 216.278,71.858 216.908,72.464C218.492,70.878 215.118,68.958 213.597,69.15C212.31,69.729 211.022,70.307 209.736,70.886C206.147,71.131 202.726,69.4 200.435,68.046C198.532,66.921 196.331,66.009 194.366,64.812C192.343,63.602 190.32,62.392 188.297,61.182C185.88,60.341 183.464,59.499 181.047,58.657C179.392,57.474 177.737,56.29 176.081,55.107C174.032,53.844 171.983,52.582 169.934,51.32C166.553,48.818 163.261,45.608 159.215,43.824C158.427,43.693 157.639,43.561 156.85,43.43C156.325,43.456 155.8,43.483 155.274,43.509ZM130.762,46.349C130.788,46.297 130.814,46.244 130.841,46.191C130.814,46.244 130.789,46.297 130.762,46.349ZM146.999,46.665C147.051,46.665 147.103,46.665 147.157,46.665C147.103,46.665 147.051,46.665 146.999,46.665ZM160.397,55.659C159.417,57.515 157.947,59.394 157.086,61.339C156.776,62.041 156.115,63.548 157.007,64.022C157.033,64.101 157.059,64.179 157.086,64.258C157.007,64.258 156.928,64.258 156.849,64.258C156.018,63.705 155.535,62.72 154.642,62.522C155.213,61.107 156.654,59.37 156.061,57.315C155.904,57.263 155.746,57.21 155.588,57.157C155.093,57.548 154.848,58.139 154.09,58.262C154.064,58.525 154.038,58.788 154.011,59.051C154.195,59.104 154.379,59.156 154.563,59.209C154.668,59.366 154.773,59.524 154.878,59.682C154.569,59.474 154.462,59.291 154.011,59.209C153.691,60.056 153.23,60.52 152.908,61.181C152.75,62.233 152.592,63.285 152.435,64.337C151.991,65.811 150.282,67.826 151.016,69.939C151.331,70.675 151.646,71.412 151.962,72.148C152.408,72.49 152.855,72.832 153.301,73.173C153.787,73.812 153.717,74.633 154.168,75.382C154.488,75.914 155.257,76.031 155.744,76.408C156.295,76.833 156.436,77.566 156.847,78.144C157.347,78.591 157.846,79.038 158.345,79.485C160.097,81.925 160.817,84.43 161.892,87.69C162.101,88.324 163.422,94.052 163.232,94.633C162.785,95.238 162.338,95.843 161.892,96.448C161.918,97.185 161.945,97.922 161.971,98.657C161.834,99.181 160.495,100.735 160.237,101.498C160.211,102.05 160.185,102.602 160.158,103.154C159.204,104.883 156.605,105.658 155.823,107.493C155.333,108.642 155.891,110.465 155.193,111.438C153.626,113.619 151.152,115.036 149.597,117.276C148.757,116.987 147.915,116.698 147.075,116.408C146.238,116.604 145.93,117.9 145.498,118.538C144.27,120.35 141.994,123.435 143.212,126.585C144.332,129.482 147.449,131.431 149.123,133.923C150.883,136.543 151.493,139.388 152.748,142.68C153.181,143.814 154.819,147.364 154.403,148.44C154.403,148.545 154.403,148.651 154.403,148.755C155.557,148.363 157.835,144.573 158.66,143.469C161.812,139.445 164.966,135.421 168.118,131.397C172.19,126.27 176.263,121.139 180.334,116.012C180.912,115.275 181.491,114.539 182.069,113.803C182.819,112.41 182.892,111.176 183.96,110.174C184.525,109.643 185.112,109.976 185.615,109.7C189.161,105.151 192.709,100.6 196.255,96.051C199.5,91.748 203.015,87.623 206.265,83.27C207.46,81.668 209.197,80.268 210.048,78.378C209.234,77.541 208.37,76.304 207.447,75.616C206.593,74.979 205.549,74.713 204.531,74.275C200.657,72.604 196.644,71.448 192.472,69.857C189.004,68.384 185.535,66.911 182.068,65.439C180.886,64.834 179.703,64.23 178.52,63.624C173.262,61.615 168.484,59.603 163.939,57.076C162.888,56.603 161.837,56.129 160.786,55.656C160.66,55.659 160.529,55.659 160.397,55.659ZM214.703,72.069C214.38,73.418 216.13,74.869 217.541,74.83C217.942,73.332 216.259,72.555 215.491,71.912C215.044,72.03 215.192,72.057 214.703,72.069ZM212.654,72.543C212.601,72.622 212.549,72.701 212.496,72.78C212.47,72.806 212.444,72.832 212.417,72.859C212.477,73.515 214.814,76.205 215.334,76.567C215.491,76.541 215.649,76.514 215.807,76.488C217.119,75.521 213.515,72.903 213.048,72.543C212.917,72.543 212.785,72.543 212.654,72.543ZM213.126,73.174C213.047,73.121 212.968,73.069 212.89,73.016C212.943,73.016 212.995,73.016 213.047,73.016C213.074,73.069 213.1,73.122 213.126,73.174ZM211.313,74.594C211.365,74.594 211.418,74.594 211.471,74.594C211.418,74.594 211.366,74.594 211.313,74.594ZM212.89,75.383C212.816,75.986 213.265,76.227 213.284,77.119C212.905,77.497 212.502,77.695 212.417,78.382C212.496,78.408 212.575,78.434 212.654,78.461C213.309,78.22 213.762,77.961 214.309,77.671C214.534,76.494 213.929,75.916 213.52,75.147C213.311,75.226 213.1,75.305 212.89,75.383ZM200.831,92.898C196.128,98.815 191.424,104.733 186.723,110.65C186.827,110.965 186.933,111.281 187.038,111.597C185.78,113.538 183.95,114.561 182.625,116.331C178.126,122.337 173.529,128.23 168.911,134.161C168.249,135.01 167.284,135.742 166.625,136.606C164.232,139.75 161.583,142.715 159.216,145.838C158.118,147.285 157.195,149.08 155.827,150.255C156.011,150.676 156.195,151.098 156.379,151.518C156.431,151.544 156.484,151.57 156.536,151.597C159.706,147.337 163.891,143.733 166.94,139.368C169.25,136.061 171.099,132.578 173.561,129.506C175.583,127.613 177.607,125.719 179.629,123.825C181.075,121.774 182.52,119.722 183.964,117.671C185.382,116.198 186.802,114.725 188.22,113.253C190.897,109.869 193.116,106.36 195.472,102.602C196.811,100.84 198.151,99.078 199.491,97.315C200.87,95.196 201.893,92.958 203.196,90.767C203.801,89.749 204.896,88.606 205.167,87.374C204.222,87.847 201.636,91.831 200.831,92.898ZM149.994,88.795C148.77,89.479 149.088,91.461 148.102,92.346C147.314,92.951 146.525,93.555 145.738,94.161C144.087,96.189 142.8,98.495 141.324,100.709C139.591,103.31 137.523,106.049 136.28,109.072C135.65,111.386 135.019,113.701 134.388,116.015C133.696,118.266 131,123.571 131.629,126.114C132.501,129.637 135.598,131.65 137.541,134.161C139.509,136.705 141.356,139.759 143.216,142.366C145.147,145.073 147.347,147.781 148.812,150.887C149.248,151.811 149.102,153.845 150.152,154.123C151.048,153.445 153.777,150.236 154.093,149.152C154.434,147.722 152.992,145.53 152.517,144.418C150.521,139.75 149.413,135.094 146.132,131.795C144.844,130.499 141.247,127.439 141.876,124.536C143.016,119.278 146.476,116.803 149.049,113.095C151.894,108.997 153.687,104.307 156.379,99.998C157.762,97.786 161.036,96.312 161.187,92.977C160.7,92.532 157.79,90.28 157.325,90.137C154.713,89.329 152.209,90.359 150.389,88.717C150.256,88.743 150.125,88.77 149.994,88.795ZM117.048,110.019C115.234,111.433 112.544,113.247 111.767,115.621C111.109,117.633 112.312,120.46 112.712,122.09C113.553,125.512 113.25,129.208 113.894,133.135C114,134.87 114.105,136.606 114.209,138.343C113.684,141.58 114.302,145.581 113.579,148.599C113.027,150.335 112.475,152.071 111.924,153.807C111.628,154.467 111.006,154.817 110.899,155.7C112.705,156.549 115.528,155.131 116.89,154.675C117.546,151.467 118.203,148.258 118.86,145.05C119.872,140.995 120.958,137.211 121.697,132.585C121.749,131.059 121.802,129.534 121.855,128.008C121.525,126.17 119.956,122.235 120.672,120.592C121.531,118.623 125.421,116.237 127.214,114.991C127.214,114.964 127.214,114.938 127.214,114.912C126.98,113.289 123.931,111.738 122.958,110.573C122.148,109.604 121.747,108.218 120.909,107.26C119.217,107.513 118.189,109.129 117.048,110.019ZM125.166,115.542C124.982,115.673 124.798,115.805 124.614,115.936C124.588,115.936 124.561,115.936 124.535,115.936C124.666,115.779 124.798,115.621 124.929,115.463C125.008,115.489 125.087,115.516 125.166,115.542ZM119.807,120.986C119.781,120.986 119.754,120.986 119.728,120.986C119.702,120.907 119.676,120.828 119.649,120.749C119.728,120.67 119.807,120.591 119.885,120.513C119.859,120.67 119.833,120.828 119.807,120.986ZM152.516,150.099C152.49,150.021 152.463,149.94 152.437,149.863C152.489,149.863 152.541,149.863 152.594,149.863C152.568,149.94 152.542,150.021 152.516,150.099ZM155.59,150.572C155.642,150.52 155.695,150.467 155.747,150.415C155.695,150.467 155.642,150.52 155.59,150.572ZM150.466,157.042C150.545,157.41 150.624,157.778 150.702,158.147C150.833,158.199 150.965,158.252 151.097,158.304C152.055,157.542 155.618,152.728 156.062,151.519C155.852,151.282 155.642,151.045 155.431,150.809C153.777,152.887 152.122,154.965 150.466,157.042ZM150.309,152.86C150.159,152.75 150.26,152.854 150.151,152.702C150.204,152.702 150.256,152.702 150.309,152.702C150.309,152.755 150.309,152.806 150.309,152.86ZM156.141,153.096C154.854,154.886 153.567,156.674 152.279,158.462C152.279,158.594 152.279,158.725 152.279,158.856C154.491,159.208 156.619,158.044 158.742,157.831C158.923,157.285 156.851,153.88 156.378,153.097C156.299,153.096 156.221,153.096 156.141,153.096ZM154.959,157.593C154.88,157.593 154.801,157.593 154.722,157.593C154.801,157.54 154.88,157.488 154.959,157.435C154.959,157.488 154.959,157.541 154.959,157.593ZM148.969,159.646C148.878,159.775 148.87,159.792 148.811,159.646C148.274,159.817 147.329,161.94 146.762,162.645C145.643,164.034 141.72,167.575 141.324,169.113C142.715,168.754 149.479,161.466 150.23,160.041C150.587,159.361 150.336,158.089 150.23,157.516C149.681,158.098 149.364,159.342 148.969,159.646ZM109.087,162.249C109.087,162.301 109.087,162.355 109.087,162.407C107.789,164.41 109.088,169.159 106.328,169.665C106.275,169.796 106.223,169.928 106.17,170.059C106.279,170.208 106.245,170.189 106.407,170.296C107.203,170.632 108.291,170.228 108.772,169.981C111.998,168.318 110.972,164.836 109.402,162.249C109.297,162.249 109.192,162.249 109.087,162.249ZM151.412,162.879C151.149,164.221 150.887,165.562 150.624,166.903C150.104,169.174 149.373,171.204 148.338,172.899C148.364,173.058 148.391,173.214 148.417,173.373C151.826,174.164 156.568,171.983 155.826,168.086C155.381,165.751 153.182,164.355 151.806,162.878C151.675,162.879 151.544,162.879 151.412,162.879ZM152.279,164.221C152.227,164.221 152.174,164.221 152.122,164.221C152.148,164.168 152.174,164.116 152.201,164.064C152.227,164.116 152.253,164.168 152.279,164.221ZM154.723,167.22C154.585,167.062 154.551,167.205 154.644,166.983C154.67,167.062 154.696,167.141 154.723,167.22ZM108.772,167.378C108.772,167.272 108.772,167.167 108.772,167.062C108.772,167.167 108.772,167.272 108.772,167.378Z"/>
    </g>
</svg>
