<?xml version="1.0" encoding="UTF-8" standalone="no"?>
<!DOCTYPE svg PUBLIC "-//W3C//DTD SVG 1.1//EN" "http://www.w3.org/Graphics/SVG/1.1/DTD/svg11.dtd">
<svg width="100%" height="100%" viewBox="0 0 129 160" version="1.1" xmlns="http://www.w3.org/2000/svg" xmlns:xlink="http://www.w3.org/1999/xlink" xml:space="preserve" xmlns:serif="http://www.serif.com/" style="fill-rule:evenodd;clip-rule:evenodd;stroke-linejoin:round;stroke-miterlimit:1.41421;">
    <g transform="matrix(1,0,0,1,-212.721,-177.303)">
        <path d="M341.129,288.596C337.511,286.298 333.55,288.174 331.027,290.164C330.006,291.239 328.985,292.313 327.966,293.388C319.906,287.493 311.847,281.6 303.791,275.705C302.128,274.521 295.228,270.173 294.601,268.766C294.219,268.203 295.093,264.843 295.347,264.057C295.976,262.101 296.822,259.942 297.499,258.108C298.109,256.453 298.19,254.969 298.905,253.399C299.237,252.875 299.569,252.351 299.9,251.828C300.307,250.737 299.881,249.376 300.148,248.028C300.42,246.656 300.8,243.294 300.48,241.748C300.039,240.537 299.596,239.325 299.155,238.113C299.155,237.727 299.155,237.342 299.155,236.956C298.617,235.334 297.018,233.569 296.506,231.833C296.479,231.394 296.451,230.952 296.424,230.513C296.256,230.224 296.065,230.157 295.761,230.017C295.443,228.236 296.888,227.283 296.506,226.05C295.837,223.895 293.433,222.371 292.284,220.598C291.134,218.822 290.491,216.798 289.386,215.062C286.598,210.68 283.118,206.77 279.865,202.833C279.755,202.476 279.644,202.117 279.534,201.759C279.148,201.375 278.762,200.989 278.375,200.604C278.264,200.163 278.154,199.721 278.043,199.281C276.655,196.718 273.901,193.885 270.841,193.002C269.351,192.782 267.86,192.562 266.37,192.34C263.988,191.852 260.356,190.956 257.18,191.432C253.944,191.916 250.531,193.119 247.411,191.845C247.019,189.822 245.945,189.755 245.507,188.375C245.507,188.045 245.507,187.713 245.507,187.384C245.11,186.96 244.913,187.439 244.845,186.557C243.995,186.894 243.585,187.533 242.362,187.548C241.672,186.888 240.982,186.227 240.292,185.566C240.182,185.098 240.071,184.63 239.961,184.161C238.746,183.006 237.532,181.848 236.318,180.691C235.754,180.048 235.324,179.153 234.58,178.708C233.43,178.022 231.382,177.321 229.695,178.129C229.376,177.927 229.279,177.738 229.116,177.386C228.978,177.359 228.84,177.331 228.702,177.303C227.976,177.717 226.793,178.556 225.969,178.791C225.583,178.736 225.197,178.681 224.81,178.625C224.528,178.695 224.098,178.947 223.651,179.121C222.291,179.649 218.87,182.6 217.69,183.665C217.387,183.528 217.083,183.39 216.779,183.252C216.752,183.252 216.724,183.252 216.696,183.252C216.862,183.968 217.027,184.684 217.193,185.4C216.542,186.084 215.213,186.983 215.04,188.045C215.013,188.045 214.985,188.045 214.957,188.045C214.626,187.796 214.294,187.548 213.963,187.301C213.8,187.169 213.85,187.189 213.55,187.135C213.356,187.384 213.163,187.631 212.97,187.879C212.483,189.165 213.734,189.969 213.467,190.853C213.26,191.193 212.947,191.265 212.721,191.597C213.294,192.648 216.573,195.376 217.854,194.985C218.058,195.173 218.226,195.377 218.381,195.589C218.154,194.985 217.78,194.322 218.102,193.663C218.832,192.432 219.991,190.759 221.911,190.688C223.015,191.515 223.144,193.482 224.311,194.158C225.186,194.665 226.026,194.503 226.96,194.902C227.519,195.141 230.03,198.361 230.189,199.116C230.521,199.116 230.852,199.116 231.183,199.116C231.459,198.675 231.735,198.235 232.011,197.794C230.669,195.952 228.54,193.265 230.687,190.441C234.186,189.759 236.552,192.956 239.049,192.175C240.171,191.824 241.217,190.679 242.029,189.944C244.576,190.222 246.048,192.266 248.321,192.836C249.875,193.225 252.158,192.95 253.62,193.579C253.565,194.489 253.509,195.398 253.454,196.306C253.482,197.325 253.509,198.345 253.537,199.364C252.94,201.557 251.263,203.415 250.143,205.147C249.453,206.213 249.349,207.583 248.487,208.452C248.404,208.452 248.321,208.452 248.238,208.452C247.062,207.782 247.114,206.168 246.168,205.312C245.242,204.476 241.19,203.939 239.544,203.991C238.739,205.067 238.212,208.837 236.232,208.288C235.253,208.015 234.888,207.35 233.252,207.13C232.504,205.529 231.963,203.759 229.775,203.578C229.35,204.007 228.965,204.293 228.616,204.816C227.933,204.66 226.966,204.087 226.381,203.908C225.333,203.585 224.506,204.206 223.649,204.073C223.006,203.017 223.07,201.534 222.49,200.272C221.966,199.832 221.441,199.392 220.917,198.95C220.542,198.391 220.474,197.901 220.006,197.463C220.006,197.406 220.006,197.353 220.006,197.298C219.978,197.353 219.951,197.406 219.923,197.463C219.444,197.333 219.185,196.153 219.013,195.644C218.645,195.527 218.924,195.635 218.475,195.719C219.154,196.71 219.444,197.911 220.089,199.115C220.57,200.015 221.989,200.166 222.324,201.262C222.812,202.865 222.269,204.008 223.649,204.65C224.699,205.048 225.138,203.937 226.133,204.237C226.887,204.466 227.687,205.2 228.534,205.394C229.166,204.889 229.28,204.252 230.438,204.237C231.43,205.146 232.423,207.597 233.169,208.038C234.937,207.47 235.158,209.181 237.723,209.195C239.064,207.954 238.79,204.679 241.2,204.568C240.731,205.421 240.262,206.276 239.792,207.129C239.175,208.937 239.485,212.768 240.123,214.483C240.62,215.171 241.117,215.859 241.614,216.548C241.78,217.071 241.945,217.594 242.111,218.116C242.655,219.011 243.605,219.554 244.015,220.596C244.567,223.184 245.119,225.773 245.671,228.363C242.52,228.347 241.747,226.767 240.124,225.305C239.813,225.026 239.524,225.229 239.048,225.057C238.512,224.865 238.114,223.609 237.226,223.9C236.948,223.993 236.946,224.512 236.398,224.396C235.759,224.262 235.227,223.223 234.411,223.075C233.914,223.184 233.417,223.296 232.92,223.405C232.479,222.937 232.038,222.468 231.596,222C231.569,222.028 231.54,222.056 231.513,222.083C231.782,222.667 232.263,222.96 232.424,223.571C232.258,223.598 232.092,223.625 231.927,223.653C231.491,223.267 231.117,222.714 230.934,222.083C230.571,221.859 230.114,221.808 229.443,221.835C229.006,220.578 227.819,221.062 227.125,220.184C227.18,220.101 227.235,220.018 227.291,219.935C228.742,220.083 229.464,220.909 230.603,221.34C230.686,221.34 230.769,221.34 230.852,221.34C230.086,220.376 228.488,220.267 227.706,219.358C227.25,218.828 227.656,217.416 227.209,216.879C226.598,216.145 220.986,213.691 219.51,213.657C219.455,213.463 219.4,213.27 219.344,213.078C218.702,212.953 217.814,212.947 217.357,213.243C216.505,213.797 214.104,217.868 214.708,219.77C214.929,220.046 215.149,220.322 215.37,220.597C215.259,220.983 215.149,221.368 215.038,221.752C215.378,223.075 216.813,224.525 217.77,225.306C218.57,225.499 219.371,225.692 220.171,225.884C221.208,226.509 222.71,228.534 223.648,228.859C225.371,229.455 227.767,229.479 229.443,229.85C229.995,229.85 230.547,229.85 231.099,229.85C232.081,230.168 233.062,231.254 233.914,231.751C234.934,232.344 236.992,232.43 237.888,233.071C239.457,234.197 240.753,235.845 242.442,236.872C244.413,238.072 246.859,238.304 248.899,239.518C253.231,242.767 257.565,246.017 261.897,249.267C260.82,251.153 259.807,253.42 258.586,255.299C258.192,255.903 257.247,256.663 257.095,257.446C257.15,257.776 257.206,258.107 257.261,258.438C257.08,259.487 256.795,260.439 256.433,261.578C255.789,263.601 254.11,265.308 253.453,267.361C253.426,268.05 253.398,268.738 253.37,269.426C252.929,269.895 252.488,270.362 252.046,270.83C250.918,272.627 249.813,276.269 248.238,277.44C248.457,279.015 247.811,280.419 248.487,281.654C247.74,283.017 245.907,284.906 245.506,286.198C244.905,288.138 244.929,290.425 244.182,292.147C242.995,294.882 240.285,297.114 239.38,300.079C238.393,303.311 237.837,306.22 237.062,309.827C236.349,313.148 232.09,315.905 234.992,319.99C234.736,320.821 233.435,324.108 233.915,324.783C232.262,326.069 231.091,328.123 229.196,329.163C226.008,330.91 222.312,329.233 222.656,334.368C223.412,334.946 224.105,335.706 225.139,336.02C226.472,336.422 229.078,336.35 230.521,336.103C231.9,335.937 233.28,335.772 234.661,335.607C236.89,334.792 240.1,331.632 241.946,330.071C242.139,329.74 242.332,329.41 242.525,329.079C243.023,329.023 243.519,328.97 244.015,328.913C244.484,328.419 244.953,327.922 245.423,327.428C246.554,326.474 248.215,326.008 249.066,324.535C249.807,323.253 248.825,321.373 248.817,319.742C249.346,319.141 250.102,318.314 251.135,318.257C251.139,317.211 251.324,316.496 251.466,315.778C251.466,314.291 251.466,312.802 251.466,311.316C251.632,311.095 251.798,310.876 251.964,310.656C251.991,310.269 252.019,309.885 252.047,309.499C252.351,309.113 252.654,308.728 252.958,308.343C252.903,307.737 252.848,307.129 252.792,306.525C253.144,305.394 254.218,304.918 254.696,304.046C254.944,302.89 255.193,301.732 255.441,300.576C255.938,299.585 256.434,298.593 256.931,297.601C258.289,293.761 258.929,290.008 260.408,286.364C260.906,285.136 262.143,283.984 262.809,282.893C263.305,281.6 263.802,280.305 264.298,279.01C265.433,276.884 267.282,275.352 268.769,273.558C271.113,270.726 272.782,267.343 275.226,264.634C275.947,263.835 276.249,262.539 277.627,262.403C278.375,263.111 278.886,263.145 280.028,263.56C280.366,265.467 279.479,267.514 279.117,269.013C278.588,271.201 278.357,273.438 277.792,275.458C277.19,277.607 277.778,282.125 278.123,284.051C277.958,285.097 277.792,286.143 277.626,287.19C278.37,287.951 279.559,288.114 279.117,289.256C279.323,289.559 279.664,289.578 279.862,289.834C281.055,291.382 281.152,293.889 281.766,295.947C282.594,297.738 283.422,299.528 284.25,301.318C284.25,301.73 284.25,302.144 284.25,302.558C284.83,303.135 285.409,303.713 285.988,304.292C286.181,305.311 286.374,306.329 286.568,307.35C287.082,308.969 288.461,310.338 288.885,311.81C289.26,313.108 287.809,314.356 287.562,315.116C286.657,317.895 288.255,318.76 288.721,320.239C289.366,322.292 288.221,323.478 289.962,324.371C290.378,327.028 289.681,334.511 291.949,335.854C292.586,336.344 294.845,336.02 295.841,336.02C297.487,336.02 299.448,336.109 300.394,335.359C301.393,334.566 302.09,331.278 301.635,329.163C301.557,328.8 301.646,327.851 301.471,327.345C301.252,326.716 300.422,326.043 300.809,324.7C301.022,323.955 301.861,322.728 302.132,321.89C302.443,320.935 301.928,319.693 301.801,319.081C301.598,318.091 302.148,316.895 302.132,316.188C302.132,316.163 302.132,316.133 302.132,316.106C301.915,314.897 301.825,312.464 301.222,311.397C300.951,310.915 300.224,310.379 300.145,309.663C300.096,309.211 300.631,308.907 300.477,308.175C300.394,307.681 300.311,307.184 300.228,306.687C300.036,306.523 299.843,306.359 299.65,306.193C299.392,305.503 299.826,304.63 299.898,304.211C300.037,303.375 299.261,302.051 299.65,300.905C299.761,300.575 300.039,300.441 300.145,299.996C299.583,299.085 298.248,298.657 297.746,297.766C297.163,296.732 297.474,295.002 297.083,293.965C296.315,291.925 294.352,289.528 293.689,287.521C293.467,286.254 293.247,284.988 293.026,283.721C292.695,283.28 292.364,282.839 292.033,282.398C292.144,281.572 292.254,280.746 292.364,279.919C292.53,278.433 292.695,276.944 292.861,275.458C293.164,274.356 293.467,273.253 293.772,272.152C304.699,279.78 315.628,287.411 326.557,295.039C326.844,295.806 325.414,297.273 325.066,298.096C323.717,301.27 322.675,304.95 324.734,308.176C324.956,308.562 325.177,308.947 325.398,309.333C327.646,310.808 330.764,307.687 331.936,306.359C335.682,302.117 341.978,296.14 341.129,288.596ZM219.346,224.975C217.666,225.357 216.197,222.605 215.372,221.671C215.399,221.532 215.427,221.396 215.455,221.257C216.334,221.424 219.083,223.752 219.346,224.48C219.346,224.646 219.346,224.81 219.346,224.975ZM230.688,229.354C230.058,229.426 223.581,228.243 223.237,227.949C222.876,227.642 220.232,224.855 220.091,224.562C219.106,222.14 221.383,220.791 221.995,219.604C222.243,219.604 222.492,219.604 222.74,219.604C222.905,219.759 223.025,219.813 223.154,220.017C224.29,221.703 220.726,223.51 222.905,225.057C223.116,225.256 223.4,225.297 223.733,225.388C224.847,224.485 226.041,220.077 228.452,221.008C228.839,221.253 228.736,221.644 228.701,222.165C227.668,223.157 226.798,223.726 226.134,225.14C226.134,225.249 226.134,225.361 226.134,225.471C226.161,225.471 226.189,225.471 226.217,225.471C227.729,224.255 227.946,222.148 230.77,222.165C230.892,222.411 230.943,222.637 230.936,223.074C230.223,223.76 229.272,224.508 229.032,225.636C229.642,226.457 230.574,226.99 231.019,227.949C231.269,228.524 230.899,228.98 230.688,229.354ZM250.64,239.764C248.012,239.388 239.923,234.921 238.884,233.072C238.857,232.908 238.829,232.743 238.801,232.577C238.967,232.356 239.132,232.137 239.298,231.917C240.691,232.154 241.819,233.451 242.857,234.147C244.97,235.564 249.241,237.71 250.723,239.518C250.696,239.6 250.668,239.683 250.64,239.764ZM245.094,233.568C243.783,232.645 241.593,231.749 240.706,230.428C240.651,229.381 240.596,228.334 240.541,227.287C240.679,227.232 240.817,227.178 240.955,227.123C242.721,228.195 243.605,229.348 246.419,229.105C247.13,226.905 245.072,223.751 244.68,221.751C244.68,221.724 244.68,221.697 244.68,221.67C245.798,221.08 247.444,221.338 248.737,220.843C250.393,220.949 251.168,222.536 252.214,223.322C253.524,224.305 254.881,225.155 256.436,225.884C257.243,229.007 259.722,240.093 255.525,240.922C252.048,238.471 248.57,236.019 245.094,233.568ZM265.708,242.738C264.695,243.913 263.51,244.858 262.894,246.457C262.838,246.485 262.783,246.512 262.728,246.54C260.52,245.025 258.313,243.51 256.105,241.995C256.078,241.858 256.049,241.721 256.022,241.583C257.392,241.152 257.643,240.365 258.175,239.104C260.024,234.715 257.402,230.504 256.933,226.38C260.08,228.065 261.123,231.112 263.059,233.981C264.246,235.523 265.433,237.067 266.619,238.609C265.921,239.492 265.336,241.553 265.708,242.738ZM273.077,258.563C272.878,258.592 272.68,258.622 272.48,258.652C272.457,258.646 272.434,258.642 272.411,258.636C272.129,257.782 273.232,255.29 273.877,254.835C274.157,254.991 274.436,255.148 274.716,255.306C274.723,255.379 274.732,255.453 274.74,255.527C273.375,256.705 273.797,256.878 273.077,258.563ZM282.744,260.64C282.252,261.753 282.157,262.664 281.57,263.42C281.099,263.419 280.813,263.288 280.578,262.99C280.28,262.689 280.276,262.25 280.431,261.658C280.062,261.989 279.785,263.832 278.837,262.688C278.724,262.543 278.61,262.398 278.497,262.253C278.65,261.555 278.856,261.26 279.1,260.795C278.758,260.952 278.552,261.187 278.354,261.571C278.078,261.669 277.648,261.674 277.314,261.71C276.797,261.368 276.623,261.13 276.86,260.457C276.478,260.586 276.308,260.773 275.79,260.732C275.639,260.651 275.487,260.572 275.336,260.49C274.389,258.273 276.414,257.785 276.379,255.299C276.226,254.665 276.074,254.031 275.921,253.397C276.619,253.045 277.931,253.244 278.836,252.938C281.225,253.602 282.092,255.365 284.458,256.024C285.078,257.87 283.295,259.392 282.744,260.64ZM291.538,231.585C290.82,233.981 290.103,236.377 289.385,238.773C288.696,240.794 288.421,244.093 287.067,245.548C285.651,245.395 280.374,244.151 279.782,243.401C279.492,242.593 280.051,241.234 280.196,240.344C280.251,238.692 280.306,237.038 280.361,235.386C280.828,233.099 283.568,227.3 282.762,224.975C282.36,223.815 280.631,223.179 279.699,222.496C278.282,221.459 272.719,216.965 272.248,215.557C272.096,214.697 273.608,213.215 274.069,212.499C275.385,210.456 277.777,206.238 279.781,205.145C280.177,204.929 280.545,204.987 280.857,204.732C280.995,204.732 281.133,204.732 281.271,204.732C281.541,205.199 281.886,205.451 282.016,206.053C281.933,206.053 281.85,206.053 281.767,206.053C282.237,206.687 282.705,207.32 283.175,207.953C283.481,208.079 283.324,208.229 283.506,207.953C284.979,208.428 288.45,215.58 289.715,217.208C289.832,217.321 289.848,217.229 290.211,217.29C291.065,218.701 292.457,221.138 292.943,222.744C293.951,226.069 292.29,229.163 291.538,231.585Z"/>
    </g>
</svg>
