<?xml version="1.0" encoding="UTF-8" standalone="no"?>
<!DOCTYPE svg PUBLIC "-//W3C//DTD SVG 1.1//EN" "http://www.w3.org/Graphics/SVG/1.1/DTD/svg11.dtd">
<svg width="100%" height="100%" viewBox="0 0 78 112" version="1.1" xmlns="http://www.w3.org/2000/svg" xmlns:xlink="http://www.w3.org/1999/xlink" xml:space="preserve" xmlns:serif="http://www.serif.com/" style="fill-rule:evenodd;clip-rule:evenodd;stroke-miterlimit:10;">
    <g transform="matrix(1,0,0,1,-486.39,-329.164)">
        <path id="katman_41" d="M562.395,378.856C562.395,378.856 552.617,376.707 551.092,376.358C550.048,376.123 549.268,378.471 548.873,379.986C548.771,379.866 548.527,379.69 548.248,379.479C547.693,379.064 548.04,379.203 547.899,378.856C547.761,378.509 547.067,377.47 547.553,377.954C548.039,378.44 547.553,377.954 547.83,377.607C548.107,377.261 548.247,377.539 548.039,376.637C547.83,375.734 547.483,376.36 547.412,375.18C547.343,374.001 547.137,374.14 546.719,373.307C546.304,372.475 546.304,372.615 546.096,371.712C545.887,370.811 545.887,370.603 546.442,371.156C546.997,371.712 546.652,373.306 547.137,371.919C547.621,370.532 546.652,370.811 546.096,369.699C545.541,368.591 545.401,369.006 545.401,368.175C545.401,367.341 544.223,367.064 544.5,366.995C544.78,366.927 546.584,368.382 545.888,367.689C545.196,366.995 544.71,366.581 544.781,366.163C544.849,365.747 544.363,365.54 543.946,365.052C543.532,364.568 543.184,364.429 543.321,364.152C543.463,363.875 544.781,364.429 544.781,364.429C544.501,364.152 544.155,364.014 543.739,363.874C543.321,363.735 542.698,362.972 542.698,362.972C541.242,360.891 537.497,360.962 537.497,360.962C535.276,360.405 531.463,363.04 531.463,363.04C528.41,366.787 526.677,365.608 526.677,365.608C522.863,364.569 522.239,351.459 522.239,351.459C520.504,335.438 508.155,333.426 508.155,333.426C508.436,333.286 508.504,332.106 508.504,332.106C505.731,329.471 497.615,330.236 497.615,330.236C496.089,330.444 498.585,339.254 498.585,339.254L497.753,350.072C495.673,351.947 498.03,356.522 498.03,356.522C498.03,356.522 492.621,425.051 491.719,425.188C490.817,425.328 491.512,426.646 491.026,427.201C490.541,427.756 489.502,428.24 489.502,428.24C486.588,427.685 487.49,436.355 487.49,436.355C490.333,442.112 511.555,438.434 511.555,438.434C512.736,438.643 516.897,435.522 516.691,436.354C516.481,437.185 518.424,437.533 519.185,437.326C519.95,437.118 520.503,437.256 521.96,438.018C523.417,438.782 532.778,437.187 535.344,437.048C537.911,436.908 536.943,436.424 538.674,436.075C540.408,435.727 543.738,435.244 544.572,434.897C545.401,434.55 546.236,434.272 545.819,433.996C545.401,433.718 545.542,433.787 545.819,433.44C546.096,433.093 547.622,433.024 545.401,432.192C543.183,431.359 545.61,427.753 545.61,426.713C545.61,425.672 545.61,421.164 545.61,420.263C545.61,419.361 546.511,414.229 546.511,414.229L554.418,414.645C554.142,415.337 555.737,427.408 555.737,427.408C556.293,428.309 557.885,426.854 557.885,426.854C556.29,424.079 557.402,414.436 557.402,414.436C556.569,408.264 562.601,383.086 563.228,380.935C563.853,378.787 562.395,378.856 562.395,378.856ZM521.683,384.16C521.683,384.098 521.368,383.31 521.231,383.054C521.089,382.797 521.17,381.891 521.21,381.734C521.248,381.575 521.584,381.358 521.801,381.201C522.019,381.043 523.042,381.418 523.322,381.436C523.596,381.456 523.596,382.365 523.596,382.365L522.117,384.259C522.019,384.12 521.683,384.16 521.683,384.16ZM522.793,402.401L529.704,391.431L531.674,391.687L522.793,402.401ZM531.604,387.48L532.605,385.551C532.605,385.551 532.251,387.459 533.094,387.638C533.425,387.708 531.604,387.48 531.604,387.48ZM525.641,379.796L525.463,379.52C525.463,379.52 525.973,378.681 526.012,378.311C526.012,378.311 526.11,377.783 526.225,377.684C526.343,377.587 528.081,376.062 526.851,375.965C526.851,375.965 525.502,377.333 525.307,377.431C525.307,377.431 523.062,377.198 522.828,377.371C522.828,377.371 522.32,377.82 522.38,377.978C522.38,377.978 521.38,377.9 521.362,378.486C521.362,378.486 521.184,378.933 521.399,379.07C521.399,379.07 520.755,379.364 521.069,379.852L521.362,380.437L520.854,380.671C520.854,380.671 520.385,379.576 520.112,379.694C520.112,379.694 519.446,379.733 519.799,381.022L519.819,381.412L519.506,381.607C519.506,381.607 517.571,381.021 516.928,381.49C516.928,381.49 515.677,381.88 515.758,382.234C515.758,382.234 515.619,382.565 516.047,382.565C516.479,382.565 516.887,382.41 517.22,382.565C517.553,382.721 517.785,382.819 517.961,382.975C518.14,383.131 517.806,383.131 517.514,383.032C517.22,382.936 515.992,382.956 515.758,382.859C515.521,382.76 514.74,382.468 514.606,382.741C514.467,383.015 514.859,383.365 515.091,383.483C515.326,383.599 515.929,383.698 516.284,383.834C516.634,383.972 517.687,383.951 517.866,384.127C518.042,384.304 515.991,383.776 515.913,384.049C515.834,384.323 515.774,384.576 516.771,384.987C517.769,385.398 517.98,385.222 518.178,385.398C518.371,385.573 519.644,386.745 520.073,386.803L508.901,401.332L499.348,412.524L502.942,356.314C502.942,356.314 506.245,351.667 504.368,349.792C504.368,349.792 505.17,345.748 508.431,346.646C508.431,346.646 515.053,345.914 517.879,362.742C517.879,362.742 521.303,378.682 533.337,367.821C533.337,367.821 533.298,368.174 533.181,368.191C533.063,368.212 533.669,368.253 533.747,367.977C533.823,367.704 533.941,368.233 533.784,368.349C533.629,368.465 534.255,368.116 534.255,368.116C534.255,368.116 534.273,368.72 534.37,368.76L525.641,379.796ZM545.563,394.102C545.563,394.102 544.829,392.169 544.325,392.132C544.325,392.132 543.475,391.861 544.211,390.624C544.211,390.624 545.524,386.452 545.41,385.873C545.41,385.873 545.948,384.288 545.834,383.824L546.413,382.704C546.413,382.704 546.721,383.862 547.958,383.244C547.957,383.244 545.446,393.098 545.563,394.102ZM548.108,380.658C547.693,380.244 548.108,380.176 548.663,380.176C548.733,380.176 548.788,380.169 548.829,380.161C548.677,380.773 548.595,381.215 548.595,381.215L548.108,380.658Z" style="fill:rgb(3,6,6);fill-rule:nonzero;stroke:black;stroke-width:0.19px;"/>
    </g>
</svg>
