<?xml version="1.0" encoding="UTF-8" standalone="no"?>
<!DOCTYPE svg PUBLIC "-//W3C//DTD SVG 1.1//EN" "http://www.w3.org/Graphics/SVG/1.1/DTD/svg11.dtd">
<svg width="100%" height="100%" viewBox="0 0 92 106" version="1.1" xmlns="http://www.w3.org/2000/svg" xmlns:xlink="http://www.w3.org/1999/xlink" xml:space="preserve" xmlns:serif="http://www.serif.com/" style="fill-rule:evenodd;clip-rule:evenodd;stroke-linejoin:round;stroke-miterlimit:1.41421;">
    <g transform="matrix(1,0,0,1,-687.802,-328.864)">
        <path d="M777.316,381.514C773.899,376.999 752.617,375.967 752.617,375.967L753.841,371.259C755.583,370.033 753.519,365.455 753.519,365.455C752.874,364.745 753.262,364.615 753.262,364.615C754.357,363.648 753.906,362.552 753.906,362.552C753.004,361.65 752.618,356.618 752.618,356.618C753.197,353.781 752.811,348.041 752.811,348.041C751.39,342.172 743.329,340.173 743.329,340.173L741.523,338.109C740.878,337.916 741.46,337.528 741.46,337.528C742.427,333.66 741.202,333.982 741.202,333.982C741.331,332.046 739.396,329.919 739.396,329.919C734.881,326.437 731.914,332.693 731.914,332.693C730.947,334.112 732.366,337.658 732.366,337.658C732.625,337.916 733.012,337.658 733.012,338.819C733.012,339.979 735.203,342.496 735.203,342.496C730.43,343.784 732.044,355.459 732.044,355.459C731.392,355.858 731.061,355.399 731.061,355.399C730.515,354.786 730.177,355.672 730.177,355.672L720.706,347.496C720.364,345.656 719.071,346.679 719.071,346.679C717.639,347.973 720.023,348.178 720.023,348.178L729.969,356.693C729.085,357.58 730.514,358.396 730.514,358.396C730.038,358.806 731.263,359.418 731.263,359.418C730.854,359.76 729.834,360.985 729.834,360.985C728.13,360.168 726.698,361.53 726.698,361.53C726.018,361.938 725.746,361.735 725.746,361.735C724.927,361.326 724.86,362.347 724.86,362.347L716.411,359.008C715.457,357.442 714.096,358.737 714.096,358.737C713.21,360.984 716.003,360.098 716.003,360.098L724.996,363.504C723.634,364.799 726.698,364.799 726.698,364.799C726.427,365.412 727.926,365.48 727.926,365.48C728.948,366.776 731.128,363.437 731.128,363.437C731.195,362.959 735.351,361.665 735.351,361.665C736.919,363.535 735.413,364.542 734.53,364.937C734.89,364.803 735.079,364.74 733.717,365.276C731.47,366.161 733.99,368.955 733.99,368.955C731.06,370.318 728.144,379.573 728.144,379.573C727.313,379.989 724.411,381.094 724.411,381.094C725.24,379.849 724.135,376.67 724.135,376.67C726.072,375.286 723.722,373.214 723.722,373.214C704.229,366.716 688.597,375.428 688.597,375.428C686.11,377.78 690.254,379.161 690.254,379.161C687.649,388.389 694.919,396.922 694.919,396.922C695.054,397.008 695.185,397.079 695.319,397.162L695.237,397.279L706.285,405.048L697.296,411.069L698.106,412.279L707.563,405.947L716.42,412.176L717.259,410.984L708.86,405.077L722.058,396.237L722.753,400.172C724.32,408.325 728.569,413.39 733.205,416.545L733.15,416.638L746.539,424.645L734.463,432.051L735.225,433.293L747.949,425.487L762.588,434.243L763.336,432.993L749.352,424.628L756.671,420.138C762.576,418.117 765.53,414.702 768.716,410.456C775.638,401.234 777.319,388.801 777.319,388.801C780.93,385.706 777.316,381.514 777.316,381.514ZM707.581,404.181L702.013,400.265C706.191,401.549 709.814,401.43 712.78,400.7L707.581,404.181ZM747.938,423.786L742.998,420.831C746.511,421.703 749.047,421.748 749.047,421.748C750.071,421.633 751.031,421.493 751.94,421.333L747.938,423.786Z" style="fill:rgb(3,6,6);fill-rule:nonzero;"/>
    </g>
</svg>
