<?xml version="1.0" encoding="UTF-8" standalone="no"?>
<!DOCTYPE svg PUBLIC "-//W3C//DTD SVG 1.1//EN" "http://www.w3.org/Graphics/SVG/1.1/DTD/svg11.dtd">
<svg width="100%" height="100%" viewBox="0 0 52 108" version="1.1" xmlns="http://www.w3.org/2000/svg" xmlns:xlink="http://www.w3.org/1999/xlink" xml:space="preserve" xmlns:serif="http://www.serif.com/" style="fill-rule:evenodd;clip-rule:evenodd;stroke-linejoin:round;stroke-miterlimit:1.41421;">
    <g transform="matrix(1,0,0,1,-99.4286,-5.20961)">
        <path d="M99.435,60.688C99.37,61.603 99.813,62.389 100.032,62.675C100.172,62.853 100.665,63.311 101.009,63.621C101.715,64.267 101.594,63.173 101.419,63.037C101.135,62.815 100.425,61.979 100.33,61.823C100.235,61.665 100.191,60.468 100.191,60.468C100.191,60.468 100.538,59.442 100.726,59.221C100.914,59 100.694,59.664 100.726,60.136C100.757,60.608 100.79,61.255 100.79,61.255C100.79,61.255 100.915,61.539 101.198,61.412C101.481,61.287 101.544,60.089 101.544,59.741C101.544,59.393 101.67,58.166 101.638,57.249C101.606,56.334 101.984,53.149 101.984,53.149C101.984,53.149 102.228,54.959 102.534,57.041C102.88,59.404 103.309,62.119 103.56,62.956C103.821,63.831 104.753,66.77 105.509,69.658C106.118,71.975 106.613,74.261 106.558,75.413C106.503,76.517 106.036,78.641 105.509,80.992C104.801,84.155 103.982,87.73 103.911,89.793C103.784,93.39 103.217,98.686 102.651,101.778C102.084,104.867 101.454,106.193 101.454,106.193C101.454,106.193 102.587,107.201 104.73,107.201C104.978,107.201 105.24,107.191 105.509,107.176C107.56,107.055 110.068,106.566 110.904,107.012C111.849,107.516 112.668,109.658 112.668,110.29C112.668,110.921 112.793,112.436 112.793,112.436C112.793,112.436 115.942,112.31 117.14,111.616C118.334,110.924 118.963,110.545 120.467,109.855L120.48,109.849C121.991,109.156 122.433,108.4 122.746,108.336C123.062,108.273 123.692,108.084 123.692,108.084C123.692,108.084 123.062,107.327 122.432,107.2C121.801,107.074 121.739,106.885 121.739,106.885C121.739,106.885 123.628,106.066 125.015,107.327C126.401,108.588 126.968,109.03 128.416,109.03C129.864,109.03 130.936,108.589 131.502,109.156C132.07,109.722 134.84,110.101 136.292,109.535C137.74,108.967 138.244,107.706 139.125,107.641C140.007,107.579 143.975,108.273 143.975,108.273C143.975,108.273 145.298,107.136 145.361,106.38C145.424,105.624 146.054,105.245 146.054,105.245C146.054,105.245 148.636,105.749 149.014,105.623C149.392,105.498 150.212,104.992 150.212,104.425C150.212,103.857 150.905,102.849 150.653,102.155C150.401,101.46 149.77,101.206 148.448,100.703C147.124,100.198 144.668,98.622 144.227,98.117C143.786,97.612 137.234,97.486 137.234,97.486C137.234,97.486 137.865,96.352 136.605,96.478C135.344,96.604 133.015,97.486 132.322,96.919C131.629,96.352 126.211,91.369 124.7,89.098C123.186,86.829 120.92,83.675 120.666,82.161C120.634,81.959 120.564,81.739 120.466,81.508C119.834,80 118.085,78.021 118.085,77.747C118.085,77.432 119.281,71.565 119.976,68.664C120.208,67.683 120.363,66.927 120.466,66.353C120.665,65.232 120.666,64.816 120.666,64.816C120.666,64.816 121.864,64.5 122.243,64.25C122.621,63.997 123.313,62.735 123.502,62.23C123.691,61.725 124.322,59.897 124.133,59.392C123.943,58.889 123.692,54.725 124.196,53.527C124.7,52.329 124.952,44.067 124.826,41.923C124.701,39.778 125.266,36.309 125.518,35.046C125.77,33.787 125.707,28.676 125.707,27.163C125.707,25.648 124.322,24.008 123.186,23.567C122.522,23.309 121.404,23.138 120.466,22.937C119.801,22.798 119.227,22.642 118.966,22.432C118.336,21.927 117.014,20.161 117.014,20.161C117.014,20.161 116.851,19.279 116.851,18.838C116.851,18.397 116.851,17.922 116.851,17.922C116.851,17.922 118.458,15.998 118.646,14.581C118.834,13.161 118.489,12.404 118.583,11.175C118.678,9.945 118.458,8.273 117.323,6.948C116.189,5.624 114.991,5.245 113.45,5.215C113.45,5.215 110.583,5.024 109.385,6.917C108.187,8.809 107.5,11.836 107.689,14.8C107.879,17.765 106.429,23.821 106.429,23.821C106.429,23.821 106.01,23.891 105.508,24.45C105.337,24.641 105.158,24.888 104.981,25.207C104.288,26.471 103.471,30.316 103.471,30.316L104.1,30.63C104.1,30.63 103.595,35.93 103.029,38.137C102.462,40.344 100.951,46.085 100.572,49.805C100.194,53.526 99.942,55.608 99.815,56.49C99.691,57.375 99.497,59.771 99.435,60.688ZM120.166,40.219C120.268,39.965 120.371,39.612 120.468,39.201C120.9,37.38 121.236,34.479 121.236,34.479C121.236,34.479 121.487,39.588 121.424,41.039C121.36,42.489 121.172,48.293 121.172,48.293C121.172,48.293 120.834,47.487 120.467,46.519C120.16,45.71 119.832,44.79 119.66,44.13C119.283,42.681 119.597,41.607 120.166,40.219ZM104.289,45.266C104.289,45.266 104.982,41.545 105.424,40.472C105.453,40.402 105.481,40.324 105.51,40.243C105.921,39.071 106.307,36.812 106.307,36.812C106.307,36.812 106.996,40.155 106.619,40.977C106.455,41.336 105.985,42.207 105.51,43.071C104.904,44.174 104.289,45.266 104.289,45.266Z"/>
    </g>
</svg>
