<?xml version="1.0" encoding="UTF-8" standalone="no"?>
<!DOCTYPE svg PUBLIC "-//W3C//DTD SVG 1.1//EN" "http://www.w3.org/Graphics/SVG/1.1/DTD/svg11.dtd">
<svg width="100%" height="100%" viewBox="0 0 49 107" version="1.1" xmlns="http://www.w3.org/2000/svg" xmlns:xlink="http://www.w3.org/1999/xlink" xml:space="preserve" xmlns:serif="http://www.serif.com/" style="fill-rule:evenodd;clip-rule:evenodd;stroke-linejoin:round;stroke-miterlimit:1.41421;">
    <g transform="matrix(1,0,0,1,-168.448,-6.201)">
        <path d="M215.173,95.41C215.173,95.41 216.837,93.58 216.725,93.192C216.614,92.804 216.061,91.918 214.122,90.863C212.184,89.81 210.8,89.588 210.523,89.866C210.246,90.142 209.526,89.312 208.807,88.147C208.087,86.982 207.699,87.647 206.813,86.205C205.927,84.765 204.321,83.08 202.881,80.311C202.362,79.312 201.828,78.502 201.327,77.779C200.44,76.498 199.654,75.495 199.227,74.22C198.564,72.228 197.567,69.901 197.345,68.795C197.125,67.687 198.06,57.873 197.949,55.878C197.838,53.882 197.34,49.059 197.34,49.059C197.34,49.059 198.724,49.281 199.5,49.169C199.777,49.129 200.505,48.697 201.327,48.152C202.808,47.173 204.594,45.843 204.594,45.843C204.594,45.843 210.355,41.296 210.52,40.133C210.686,38.968 208.582,35.309 208.083,33.923C207.585,32.537 206.089,31.095 205.48,29.1C204.871,27.105 202.489,24.941 202.489,24.941C202.489,24.941 202.004,24.658 201.326,24.348C200.883,24.146 200.357,23.931 199.831,23.777C198.502,23.389 197.401,22.779 196.544,22.114C195.684,21.447 194.687,20.089 194.44,19.675C194.189,19.26 194.079,17.816 194.079,17.816L194.632,16.347C194.632,16.347 195.187,16.07 195.324,15.793C195.464,15.517 195.464,14.823 195.464,14.823C195.464,14.823 196.017,13.631 195.961,12.162C195.907,10.692 195.684,9.417 195.324,8.641C194.965,7.865 193.47,6.951 193.109,6.783C192.749,6.618 192.168,6.618 192.168,6.618C192.168,6.618 191.337,6.201 190.529,6.201C190.529,6.201 187.98,6.646 186.819,7.588C185.656,8.529 184.824,12.411 185.048,14.129C185.268,15.847 185.6,17.623 186.654,18.898C187.706,20.173 187.65,20.95 187.65,20.95C187.65,20.95 187.962,20.366 187.713,19.87C187.464,19.369 187.241,18.705 187.241,18.537C187.241,18.371 187.297,17.596 187.297,17.596C187.297,17.596 188.349,19.176 188.432,19.343C188.514,19.509 188.57,20.618 188.514,21.143C188.46,21.67 186.051,23.472 185.276,24.055C184.501,24.636 183.754,24.636 183.754,24.636C183.754,24.636 182.492,24.878 181.585,25.304C181.258,25.456 180.979,25.631 180.818,25.828C180.209,26.577 179.788,29.377 179.898,31.762C180.01,34.145 179.512,38.859 178.736,40.632C177.962,42.407 177.131,49.614 177.131,51.444C177.131,53.274 176.909,55.603 176.522,56.489C176.134,57.376 175.227,59.344 175.144,59.676C175.061,60.009 174.728,61.117 174.84,61.422C174.95,61.727 174.95,62.172 174.95,62.172L174.307,64.362L175.415,71.791L176.188,71.735L176.632,70.016C176.632,70.016 176.864,74.441 176.42,76.988C175.978,79.536 173.543,86.402 172.988,88.616C172.436,90.83 170.773,92.602 170.108,93.266C169.445,93.931 168.448,95.48 168.448,95.48L169.777,97.805L168.772,100.676C168.772,100.676 169.77,101.95 170.156,102.394C170.545,102.839 169.602,105.998 169.602,105.998C169.602,105.998 170.766,107.551 171.818,107.717C172.87,107.883 173.7,107.717 173.7,107.717L173.479,110.322C173.479,110.322 176.635,111.431 178.241,110.987C179.81,110.553 180.27,110.81 181.585,110.613L181.673,110.598C183.059,110.376 182.893,109.824 184.167,110.156C185.44,110.488 186.381,110.266 187.045,109.934C187.71,109.602 188.43,109.878 189.538,109.268C190.645,108.66 190.7,108.713 191.309,108.493C191.918,108.271 192.582,107.106 192.582,107.106L192.306,104.168C192.306,104.168 195.739,103.835 195.905,104.945C196.071,106.054 195.239,105.887 196.237,107.106C197.235,108.325 197.621,108.823 197.568,109.824C197.512,110.821 197.899,111.486 197.899,111.486C197.899,111.486 198.73,112.318 200.225,112.318C200.714,112.318 201.048,112.33 201.329,112.341C201.91,112.367 202.264,112.392 203.271,112.318C204.766,112.206 204.822,111.431 205.763,111.21C206.704,110.988 207.479,110.045 207.479,110.045C207.479,110.045 206.038,106.275 205.929,105.608C205.82,104.945 207.868,104.112 207.868,104.112C207.868,104.112 209.916,105.221 211.244,105.221C212.574,105.221 212.741,104.776 212.741,104.776C212.741,104.776 213.792,103.391 214.846,102.672C215.897,101.949 216.562,100.454 216.45,99.953C216.341,99.455 216.396,97.902 216.341,97.015C216.282,96.13 215.173,95.41 215.173,95.41ZM182.555,42.905C182.503,43.327 182.046,44.384 181.584,45.369C181.077,46.452 180.562,47.451 180.562,47.451L181.584,43.331L182.555,39.414C182.555,39.414 182.666,42.019 182.555,42.905ZM196.232,43.957C196.232,43.957 198.559,37.083 198.559,36.363C198.559,35.643 199.333,34.368 199.942,33.869C200.551,33.369 201.049,31.815 201.049,31.815L201.326,32.153C201.976,32.946 203.567,34.906 203.874,35.476C204.261,36.195 206.42,39.134 206.42,39.134C206.42,39.134 202.322,43.46 201.714,44.292C201.619,44.423 201.484,44.566 201.325,44.714C200.47,45.52 198.875,46.492 198.501,46.398C198.059,46.286 197.892,46.175 197.892,46.175L196.232,43.957Z"/>
    </g>
</svg>
