<?xml version="1.0" encoding="UTF-8" standalone="no"?>
<!DOCTYPE svg PUBLIC "-//W3C//DTD SVG 1.1//EN" "http://www.w3.org/Graphics/SVG/1.1/DTD/svg11.dtd">
<svg width="100%" height="100%" viewBox="0 0 65 110" version="1.1" xmlns="http://www.w3.org/2000/svg" xmlns:xlink="http://www.w3.org/1999/xlink" xml:space="preserve" xmlns:serif="http://www.serif.com/" style="fill-rule:evenodd;clip-rule:evenodd;stroke-linejoin:round;stroke-miterlimit:1.41421;">
    <g transform="matrix(1,0,0,1,-360.926,-3.17924)">
        <path d="M425.735,106.883C425.735,106.883 424.356,106.973 423.999,106.662C423.645,106.349 423.866,105.1 423.866,105.1L422.752,105.057L422.575,103.852L421.418,103.452L421.418,102.561L419.016,102.962L418.974,102.427C418.974,102.427 418.35,102.206 418.215,101.981C418.083,101.759 417.814,100.198 417.814,100.198C417.814,100.198 416.258,100.198 416.3,99.976C416.348,99.753 415.369,98.412 415.369,98.412C415.369,98.412 414.035,99.394 412.878,99.394C411.719,99.394 408.252,99.037 405.492,96.811C402.731,94.587 404.423,92.895 400.24,87.912C396.055,82.929 391.875,61.033 391.875,61.033L391.875,57.475C391.875,57.475 392.14,55.339 392.585,54.004C393.032,52.667 393.207,47.506 393.207,45.548C393.207,43.59 394.099,31.931 393.831,27.747C393.565,23.566 390.262,22.167 390.262,22.167C390.262,22.167 389.289,21.339 388.547,20.618C388.285,20.364 388.054,20.125 387.902,19.939C387.326,19.225 387.012,18.245 387.146,17.488C387.278,16.73 387.146,12.895 387.101,11.07C387.056,9.244 386.7,6.657 385.053,5.097C383.407,3.538 381.182,3.181 381.182,3.181C381.182,3.181 377.264,3.093 376.017,4.161C374.771,5.231 372.768,8.352 372.588,9.645C372.411,10.936 372.991,12.361 373.212,13.031C373.434,13.698 373.57,17.13 374.64,17.888C375.706,18.646 375.216,20.562 374.726,21.186C374.45,21.54 373.212,21.907 372.071,22.331C371.2,22.653 370.385,23.01 370.097,23.415C369.428,24.35 368.94,27.603 369.03,29.251C369.119,30.899 368.583,40.035 368.094,41.018C367.605,41.996 366.715,47.389 366.759,49.039C366.804,50.688 365.822,54.698 365.822,55.233C365.822,55.768 365.156,58.307 364.845,58.576C364.533,58.841 364.933,59.556 365.424,60.136C365.911,60.715 366.595,63.437 366.595,63.437L366.595,68.51C366.595,68.51 367.132,72.873 368.466,73.493C369.802,74.118 370.155,71.981 370.155,71.981L370.69,68.689C370.69,68.689 371.669,71.268 371.757,72.427C371.847,73.584 366.802,89.238 365.955,92.445C365.109,95.654 361.949,99.978 361.949,99.978L363.375,101.671L360.926,105.77C360.926,105.77 363.553,106.663 364.532,106.751C365.512,106.841 365.777,106.083 365.777,106.083C365.777,106.083 366.135,106.307 366.666,106.707C367.204,107.108 369.251,107.51 369.604,107.019C369.962,106.531 370.185,106.351 370.185,106.351C370.185,106.351 370.452,106.932 371.033,107.243C371.609,107.555 371.919,107.511 371.789,107.912C371.652,108.313 371.121,109.25 371.253,109.472C371.331,109.604 371.71,109.657 372.069,109.708C372.315,109.74 372.551,109.774 372.676,109.827C372.989,109.961 373.034,111.657 373.034,111.657C373.034,111.657 374.946,111.388 376.104,111.344C377.261,111.299 377.306,111.254 378.773,111.969C380.243,112.681 381.044,112.637 381.801,112.504C382.56,112.369 382.07,111.791 382.07,111.791C382.07,111.791 382.646,111.658 383.091,111.39C383.536,111.122 384.652,110.676 386.075,110.722C387.497,110.765 387.274,111.255 388.165,111.478C388.296,111.513 388.423,111.532 388.543,111.543C389.238,111.608 389.78,111.344 390.348,111.077C391.016,110.765 390.971,110.633 391.505,109.607C392.036,108.58 392.393,108.447 392.393,108.447C392.393,108.447 392.216,109.252 392.306,109.739C392.393,110.229 393.285,110.051 393.953,109.875C394.619,109.694 394.619,109.204 395.51,108.848C396.399,108.492 396.89,109.694 397.469,109.562C398.047,109.427 398.314,109.071 398.404,108.58C398.494,108.092 397.07,107.422 397.335,107.244C397.606,107.067 398.494,107.779 399.25,107.02C400.006,106.263 401.566,106.62 401.877,106.575C402.188,106.532 402.143,105.862 401.787,105.284C401.43,104.702 402.633,104.702 402.633,104.702C402.633,104.702 404.946,107.866 406.949,108.669C408.952,109.472 411.8,110.72 411.8,110.72L413.318,109.561L415.941,111.076L417.365,110.274L418.39,111.166L419.056,110.674L421.37,111.7L422.351,110.897L423.687,111.209L424.267,110.409L425.113,110.675L425.467,109.962C425.467,109.962 425.957,109.607 425.91,108.713C425.87,107.82 425.735,106.883 425.735,106.883ZM373.451,40.03C373.403,40.419 372.714,41.608 372.071,42.794C371.538,43.777 371.039,44.756 370.957,45.28C370.78,46.437 370.692,46.705 370.692,46.705C370.692,46.705 371.268,42.441 372.071,40.151C372.144,39.944 372.217,39.755 372.292,39.583C373.21,37.53 372.83,35.047 372.83,35.047C372.83,35.047 373.538,39.318 373.451,40.03ZM389.737,47.683L388.547,45.589L387.156,43.145C387.156,43.145 386.802,39.228 387.692,37.182C387.996,36.479 388.292,35.565 388.546,34.669C389.035,32.957 389.38,31.307 389.38,31.307C389.38,31.307 390.003,41.453 390.003,42.789C390.004,44.122 389.737,47.683 389.737,47.683Z"/>
    </g>
</svg>
