<?xml version="1.0" encoding="UTF-8" standalone="no"?>
<!DOCTYPE svg PUBLIC "-//W3C//DTD SVG 1.1//EN" "http://www.w3.org/Graphics/SVG/1.1/DTD/svg11.dtd">
<svg width="100%" height="100%" viewBox="0 0 49 102" version="1.1" xmlns="http://www.w3.org/2000/svg" xmlns:xlink="http://www.w3.org/1999/xlink" xml:space="preserve" xmlns:serif="http://www.serif.com/" style="fill-rule:evenodd;clip-rule:evenodd;stroke-linejoin:round;stroke-miterlimit:1.41421;">
    <g transform="matrix(1,0,0,1,-240.907,-122.951)">
        <path d="M288.359,211.346C288.359,211.346 284.351,211.094 283.931,211.094C283.514,211.094 280.758,207.585 280.758,207.585C280.758,207.585 280.339,205.496 279.505,202.826C278.668,200.15 277.584,199.982 277.165,193.552C276.747,187.117 270.745,165.798 270.745,165.798L271.163,164.753C271.163,164.753 274.13,160.275 274.548,159.398C274.965,158.52 274.796,155.799 274.796,154.838C274.796,153.876 274.338,149.693 273.837,145.174C273.334,140.658 271.039,140.489 271.039,140.489C271.039,140.489 270.133,140.202 269.473,139.956C269.259,139.877 269.071,139.8 268.948,139.737C268.447,139.485 268.03,138.901 268.155,137.685C268.279,136.475 267.571,136.475 267.571,136.475C267.571,136.475 267.738,135.763 267.695,134.676C267.654,133.587 266.483,130.867 266.483,130.157C266.483,129.445 266.693,127.898 265.94,125.848C265.188,123.798 263.015,123.379 263.015,123.379C261.719,122.543 258.879,122.962 257.834,124.383C256.789,125.806 255.913,127.94 255.452,128.943C254.994,129.947 254.701,131.287 255.076,132.625C255.452,133.963 255.827,134.466 255.827,134.466C255.827,134.466 255.243,135.762 254.868,136.685C254.491,137.603 254.658,139.653 254.408,139.822C254.259,139.92 253.534,140.479 252.97,140.916C252.586,141.211 252.278,141.451 252.278,141.451C252.278,141.451 251.775,142.414 251.485,143.125C251.191,143.837 249.094,151.694 249.094,151.694C249.094,151.694 247.508,158.043 247.675,159.296C247.841,160.55 249.597,164.645 249.597,164.645C249.597,164.645 249.095,166.398 248.427,169.658C247.759,172.916 245.336,190.212 244.669,192.799C243.999,195.391 240.907,213.354 240.907,213.354C240.907,213.354 242.078,214.524 243.749,215.526C245.421,216.527 247.592,216.444 247.592,216.444L247.509,221.123C247.509,221.123 250.719,221.276 252.972,220.995C253.074,220.984 253.176,220.971 253.273,220.955C255.527,220.622 260.877,219.704 260.877,219.704L260.877,223.63C260.877,223.63 261.712,223.63 263.633,223.547C265.555,223.464 268.396,221.707 268.396,221.707L269.476,222.332L269.981,222.628C269.981,222.628 270.65,222.545 271.319,223.21C271.987,223.879 274.242,224.131 275.328,224.131C276.415,224.131 278.336,223.127 279.09,222.545C279.841,221.959 279.338,220.121 279.338,220.121C279.338,220.121 280.76,219.87 282.263,219.787C283.769,219.704 284.353,218.868 284.353,218.868L283.685,216.444L287.61,218.03C287.61,218.03 288.197,216.945 289.447,215.357C289.684,215.056 289.794,214.726 289.813,214.387L289.813,214.153C289.734,212.77 288.359,211.346 288.359,211.346ZM254.743,157.432C254.615,158.068 253.681,159.995 252.97,161.401C252.515,162.307 252.151,162.995 252.151,162.995L251.149,158.06C251.149,158.06 252.152,154.394 252.97,151.901C253.412,150.554 253.802,149.548 253.949,149.651C253.949,149.651 253.529,151.114 254.032,152.413C254.534,153.708 254.951,156.386 254.743,157.432ZM269.473,161.957L269.074,162.705C269.074,162.705 268.114,159.816 267.485,158.477C267.006,157.452 268.413,154.464 269.473,151.957C269.797,151.188 270.09,150.467 270.286,149.858C270.286,149.858 271.206,154.377 271.414,155.675C271.622,156.97 271.539,158.1 271.539,158.1L269.473,161.957Z"/>
    </g>
</svg>
