<?xml version="1.0" encoding="UTF-8" standalone="no"?>
<!DOCTYPE svg PUBLIC "-//W3C//DTD SVG 1.1//EN" "http://www.w3.org/Graphics/SVG/1.1/DTD/svg11.dtd">
<svg width="100%" height="100%" viewBox="0 0 36 77" version="1.1" xmlns="http://www.w3.org/2000/svg" xmlns:xlink="http://www.w3.org/1999/xlink" xml:space="preserve" xmlns:serif="http://www.serif.com/" style="fill-rule:evenodd;clip-rule:evenodd;stroke-linejoin:round;stroke-miterlimit:1.41421;">
    <g transform="matrix(1,0,0,1,-5.393,-86.573)">
        <path d="M5.393,161.649L5.393,161.497C6.101,159.947 6.85,158.346 7.642,156.694C8.434,155.043 8.965,153.34 9.235,151.588C9.268,151.419 9.336,150.981 9.437,150.272C9.538,149.566 9.647,148.799 9.765,147.973C9.883,147.147 10.001,146.372 10.12,145.647C10.237,144.922 10.313,144.459 10.347,144.257C10.448,143.649 10.633,143.077 10.903,142.538C11.173,141.998 11.476,141.485 11.814,140.995C12.15,140.506 12.504,140.01 12.876,139.504C13.246,138.999 13.567,138.461 13.837,137.886C14.443,136.605 14.916,135.291 15.253,133.943C15.589,132.595 15.961,131.213 16.365,129.797C16.601,128.82 16.888,127.859 17.225,126.916C17.561,125.973 17.915,125.011 18.287,124.034C18.287,123.932 18.338,123.705 18.439,123.351C18.54,122.998 18.648,122.627 18.767,122.239C18.885,121.852 19.028,121.338 19.198,120.697C19.198,120.461 19.062,120.259 18.793,120.091C18.522,119.922 18.211,119.787 17.857,119.685C17.503,119.584 17.157,119.5 16.82,119.433C16.483,119.366 16.264,119.331 16.163,119.331L16.163,119.231C16.163,118.927 16.214,118.648 16.315,118.397C16.417,118.143 16.5,117.865 16.568,117.563L16.568,117.512C16.568,117.377 16.348,117.015 15.91,116.425C15.472,115.836 14.975,115.204 14.418,114.529C13.862,113.854 13.331,113.215 12.825,112.608C12.32,112.001 11.999,111.58 11.865,111.343C11.865,111.446 11.831,111.58 11.763,111.748C11.695,111.917 11.629,112.019 11.561,112.052L11.511,112.103C11.376,112.103 11.275,112.011 11.208,111.825C11.14,111.641 11.089,111.429 11.056,111.193C11.023,110.958 11.005,110.721 11.005,110.485C11.005,110.249 11.005,110.08 11.005,109.98C11.005,109.44 11.124,108.885 11.359,108.312C11.594,107.739 11.872,107.174 12.193,106.619C12.512,106.063 12.841,105.532 13.179,105.026C13.515,104.522 13.785,104.066 13.988,103.662C14.425,102.954 14.797,102.195 15.1,101.386C15.404,100.577 15.825,99.853 16.364,99.212C16.398,99.179 16.499,99.069 16.668,98.883C16.835,98.698 16.953,98.589 17.021,98.554L18.033,97.897C18.1,97.863 18.21,97.77 18.361,97.619C18.513,97.467 18.623,97.358 18.69,97.29L21.269,94.307L21.269,93.751C21.269,93.211 21.218,92.689 21.117,92.184C21.016,91.678 20.966,91.156 20.966,90.617C20.966,90.213 21.032,89.775 21.168,89.303C21.302,88.83 21.504,88.392 21.774,87.989C22.044,87.584 22.372,87.248 22.76,86.977C23.147,86.707 23.594,86.573 24.1,86.573C24.841,86.573 25.448,86.683 25.92,86.902C26.391,87.121 26.787,87.433 27.108,87.837C27.428,88.242 27.672,88.722 27.841,89.278C28.009,89.834 28.161,90.433 28.297,91.073C28.06,91.545 27.791,92.101 27.488,92.741C27.185,93.382 27.032,93.938 27.032,94.409C27.032,94.746 27.133,95.05 27.336,95.32C27.538,95.59 27.672,95.876 27.74,96.178C27.908,96.078 28.06,96.018 28.196,96.002C28.33,95.985 28.532,95.977 28.802,95.977C28.971,95.977 29.148,96.028 29.333,96.129C29.518,96.229 29.611,96.399 29.611,96.633C29.611,96.835 29.587,96.972 29.536,97.038C29.485,97.107 29.417,97.182 29.333,97.266C29.249,97.35 29.182,97.477 29.13,97.645C29.08,97.814 29.055,98.066 29.055,98.403C29.02,98.403 29.013,98.386 29.029,98.352C29.046,98.319 29.037,98.301 29.004,98.301C28.733,98.065 28.632,97.745 28.701,97.341C28.768,96.937 28.802,96.616 28.802,96.381L27.387,96.381C27.353,96.212 27.319,96.094 27.286,96.027C27.15,95.791 27.066,95.589 27.033,95.42C27,95.252 26.882,95.168 26.679,95.168C26.679,95.303 26.737,95.531 26.856,95.85C26.973,96.171 27.1,96.5 27.235,96.835C27.369,97.173 27.496,97.485 27.613,97.771C27.732,98.058 27.807,98.235 27.841,98.302C27.841,98.337 27.908,98.404 28.044,98.505C28.178,98.606 28.33,98.732 28.499,98.883C28.668,99.035 28.828,99.179 28.979,99.314C29.131,99.449 29.258,99.55 29.359,99.616C29.594,99.818 29.755,99.988 29.839,100.122C29.923,100.256 29.974,100.409 29.991,100.577C30.008,100.746 30.024,100.949 30.041,101.184C30.057,101.42 30.118,101.706 30.219,102.042C30.386,102.583 30.589,103.037 30.825,103.407C31.06,103.778 31.179,104.267 31.179,104.874L31.179,105.43C31.179,105.464 31.154,105.565 31.102,105.734C31.052,105.902 30.993,106.08 30.925,106.265C30.858,106.45 30.799,106.626 30.749,106.796C30.698,106.965 30.673,107.066 30.673,107.099C30.605,108.009 30.724,108.961 31.027,109.955C31.33,110.949 31.786,111.783 32.392,112.458L33.252,120.648C33.555,120.716 33.749,120.851 33.834,121.053C33.917,121.254 33.96,121.491 33.96,121.761C33.96,121.964 33.943,122.166 33.91,122.368C33.876,122.57 33.725,122.705 33.455,122.772L33.455,125.502C33.455,125.839 33.311,126.177 33.024,126.513C32.738,126.851 32.526,127.171 32.392,127.473L32.392,127.575C32.392,129.395 32.501,131.199 32.722,132.985C32.94,134.772 33.184,136.574 33.455,138.396C33.758,140.418 34.044,142.516 34.314,144.69C34.583,146.863 35.004,148.961 35.578,150.984C35.611,151.153 35.704,151.44 35.856,151.844C36.008,152.249 36.159,152.678 36.312,153.133C36.463,153.588 36.615,154.017 36.766,154.423C36.918,154.827 37.045,155.114 37.146,155.282C37.179,155.417 37.263,155.611 37.398,155.864C37.534,156.117 37.668,156.378 37.803,156.648C37.937,156.919 38.055,157.17 38.157,157.406C38.258,157.643 38.326,157.777 38.36,157.81C38.596,158.181 38.848,158.486 39.119,158.72C39.388,158.957 39.632,159.193 39.852,159.429C40.071,159.664 40.248,159.917 40.383,160.187C40.517,160.458 40.585,160.828 40.585,161.3C40.585,161.537 40.568,161.712 40.535,161.831C40.5,161.949 40.399,162.109 40.231,162.311C39.86,162.446 39.582,162.521 39.397,162.539C39.211,162.557 38.934,162.565 38.563,162.565C37.888,162.565 37.399,162.505 37.097,162.387C36.793,162.27 36.566,162.109 36.415,161.907C36.263,161.704 36.111,161.494 35.96,161.275C35.809,161.056 35.546,160.845 35.176,160.644L33.457,159.784C33.288,159.682 33.212,159.574 33.229,159.455C33.246,159.338 33.254,159.161 33.254,158.924C33.254,158.519 33.287,158.149 33.356,157.811C33.422,157.476 33.457,157.104 33.457,156.7C33.457,156.531 33.447,156.38 33.431,156.245C33.414,156.11 33.27,155.993 33.001,155.891C33.102,154.948 33.001,154.079 32.698,153.287C32.394,152.495 32.023,151.737 31.586,151.013C31.148,150.288 30.684,149.572 30.196,148.864C29.707,148.156 29.311,147.381 29.008,146.537C29.041,144.683 29.033,142.88 28.982,141.127C28.932,139.375 28.705,137.587 28.3,135.768L26.632,128.942C26.665,128.471 26.674,127.973 26.657,127.451C26.639,126.929 26.548,126.431 26.379,125.96L26.177,126.162C25.906,126.87 25.603,127.502 25.267,128.058C24.929,128.613 24.576,129.145 24.205,129.649C23.834,130.156 23.455,130.661 23.068,131.167C22.68,131.672 22.284,132.229 21.879,132.836C21.475,133.442 21.112,133.991 20.792,134.479C20.472,134.968 20.177,135.448 19.908,135.919C19.637,136.392 19.377,136.889 19.124,137.41C18.871,137.935 18.592,138.532 18.29,139.206L18.29,139.458C18.222,139.526 18.062,139.694 17.81,139.964C17.557,140.235 17.414,140.402 17.38,140.47C16.908,141.313 16.579,142.163 16.394,143.022C16.208,143.883 15.965,144.75 15.661,145.626C15.56,145.997 15.366,146.326 15.08,146.612C14.793,146.899 14.49,147.177 14.169,147.445C13.848,147.716 13.554,147.994 13.285,148.279C13.014,148.566 12.829,148.894 12.729,149.265C12.324,150.344 12.097,151.414 12.047,152.475C11.996,153.536 11.836,154.607 11.566,155.685C11.566,155.753 11.432,156.039 11.162,156.544C10.892,157.151 10.74,157.833 10.707,158.592C10.673,159.35 10.588,160.057 10.454,160.715C10.319,161.372 10.058,161.921 9.67,162.359C9.282,162.798 8.616,163.017 7.672,163.017C7.47,163.017 7.234,162.999 6.965,162.966C6.694,162.932 6.45,162.873 6.232,162.789C6.012,162.705 5.819,162.57 5.65,162.384C5.476,162.197 5.393,161.953 5.393,161.649ZM18.032,114.831C18.065,114.865 18.158,114.906 18.31,114.957C18.462,115.008 18.63,115.051 18.815,115.084C19,115.118 19.16,115.152 19.296,115.185C19.429,115.22 19.514,115.236 19.548,115.236C19.581,115.236 19.649,115.128 19.75,114.907C19.851,114.688 19.935,114.579 20.003,114.579C20.374,114.343 20.669,114.199 20.888,114.148C21.107,114.098 21.275,114.039 21.394,113.972C21.512,113.905 21.587,113.788 21.621,113.618C21.655,113.45 21.672,113.113 21.672,112.607C21.672,112.439 21.679,112.202 21.697,111.899C21.714,111.595 21.655,111.342 21.52,111.14C21.352,111.14 21.268,111.209 21.268,111.342C21.2,111.511 21.082,111.841 20.914,112.328C20.745,112.817 20.643,113.145 20.61,113.314C20.542,113.314 20.433,113.348 20.281,113.416C20.13,113.484 20.036,113.518 20.003,113.518L19.851,113.518C19.682,113.518 19.489,113.501 19.27,113.467C19.049,113.433 18.822,113.374 18.586,113.29C18.351,113.206 18.157,113.087 18.005,112.936C17.853,112.785 17.777,112.607 17.777,112.404L17.777,112.051L18.485,106.035L18.485,105.681L18.485,105.428C18.485,105.26 18.417,105.175 18.282,105.175C18.046,105.344 17.777,105.572 17.473,105.857C17.17,106.145 16.884,106.456 16.614,106.793C16.344,107.129 16.116,107.468 15.932,107.804C15.746,108.141 15.654,108.462 15.654,108.765C15.654,109.304 15.738,109.844 15.907,110.383C16.074,110.923 16.278,111.462 16.513,112C16.749,112.54 17.011,113.046 17.297,113.518C17.584,113.988 17.83,114.426 18.032,114.831Z" style="fill-rule:nonzero;"/>
    </g>
</svg>
