<?xml version="1.0" encoding="UTF-8" standalone="no"?>
<!DOCTYPE svg PUBLIC "-//W3C//DTD SVG 1.1//EN" "http://www.w3.org/Graphics/SVG/1.1/DTD/svg11.dtd">
<svg width="100%" height="100%" viewBox="0 0 39 78" version="1.1" xmlns="http://www.w3.org/2000/svg" xmlns:xlink="http://www.w3.org/1999/xlink" xml:space="preserve" xmlns:serif="http://www.serif.com/" style="fill-rule:evenodd;clip-rule:evenodd;stroke-linejoin:round;stroke-miterlimit:1.41421;">
    <g transform="matrix(1,0,0,1,-266.276,-86.929)">
        <path d="M273.247,163.662L273.247,163.448C273.533,162.448 273.818,161.482 274.104,160.552C274.39,159.623 274.533,158.621 274.533,157.549C274.533,157.084 274.48,156.727 274.373,156.476C274.266,156.227 274.247,155.798 274.318,155.19L272.227,142.91L272.227,140.818C272.728,140.425 273.022,139.818 273.111,138.996C273.2,138.174 273.246,137.459 273.246,136.85C273.246,136.136 273.227,135.465 273.192,134.84C273.157,134.215 273.049,133.527 272.871,132.776C272.657,132.168 272.45,131.659 272.254,131.247C272.057,130.836 271.959,130.291 271.959,129.612C271.959,129.29 271.968,129.004 271.986,128.754C272.004,128.504 272.085,128.218 272.227,127.897C272.227,127.647 272.236,127.218 272.254,126.609C272.272,126.001 272.289,125.368 272.307,124.705C272.325,124.045 272.342,123.41 272.361,122.802C272.379,122.194 272.406,121.783 272.442,121.568C272.442,120.782 272.638,120.013 273.032,119.262C273.425,118.511 273.621,117.779 273.621,117.064C273.335,117.064 273.102,117.153 272.925,117.332C272.745,117.511 272.512,117.601 272.227,117.601C272.191,117.601 272.093,117.565 271.932,117.493C271.771,117.422 271.61,117.332 271.45,117.225C271.289,117.118 271.136,117.011 270.994,116.903C270.851,116.797 270.779,116.707 270.779,116.635L270.779,116.527C270.815,116.457 270.842,116.384 270.86,116.313C270.878,116.242 270.905,116.171 270.941,116.099C270.796,116.099 270.539,116.082 270.163,116.046C269.788,116.01 269.385,115.965 268.956,115.911C268.528,115.857 268.126,115.813 267.75,115.777C267.375,115.742 267.115,115.706 266.973,115.67C266.901,115.67 266.669,115.652 266.276,115.616C266.276,115.009 266.347,114.419 266.49,113.846C266.634,113.274 266.705,112.702 266.705,112.13C266.705,111.88 266.668,111.673 266.597,111.513C266.525,111.352 266.49,111.148 266.49,110.897C266.49,110.719 266.49,110.558 266.49,110.414C266.49,110.235 266.561,110.092 266.705,109.985C266.811,109.842 267.026,109.592 267.349,109.234C267.671,108.877 268,108.493 268.341,108.081C268.68,107.671 269.002,107.286 269.306,106.929C269.609,106.572 269.815,106.322 269.923,106.179C270.352,105.641 270.691,105.088 270.942,104.516C271.192,103.945 271.62,103.462 272.228,103.068C272.156,102.961 271.987,102.774 271.719,102.505C271.45,102.237 271.317,102.05 271.317,101.942L271.317,98.994C271.317,98.958 271.352,98.878 271.424,98.752C271.495,98.627 271.549,98.565 271.585,98.565C271.62,98.494 271.719,98.377 271.879,98.216C272.041,98.055 272.218,97.886 272.416,97.706C272.611,97.528 272.782,97.358 272.926,97.198C273.068,97.037 273.175,96.939 273.247,96.903C273.068,96.438 273.103,96.027 273.353,95.67C273.603,95.313 273.924,95.063 274.318,94.919C274.354,94.061 274.702,93.292 275.364,92.613C276.025,91.934 276.659,91.309 277.268,90.737L277.375,90.683L277.482,90.737C277.517,90.808 277.553,90.889 277.59,90.979C277.625,91.068 277.678,91.113 277.75,91.113C277.75,91.077 277.838,91.059 278.019,91.059C278.019,90.415 278.053,90.094 278.126,90.094C278.233,90.094 278.376,90.094 278.554,90.094C278.625,90.094 278.716,90.059 278.824,89.987C278.93,89.915 279.055,89.755 279.199,89.504C279.342,89.182 279.475,88.897 279.602,88.646C279.726,88.397 279.861,88.173 280.004,87.976C280.146,87.78 280.334,87.627 280.566,87.52C280.798,87.413 281.111,87.359 281.505,87.359C281.755,87.359 281.969,87.431 282.149,87.573C282.327,87.716 282.542,87.787 282.793,87.787C283.187,87.787 283.516,87.644 283.784,87.358C284.054,87.072 284.33,86.929 284.617,86.929C284.903,86.929 285.118,87.019 285.26,87.197C285.402,87.377 285.547,87.572 285.689,87.787L285.689,87.251C285.903,87.251 286.164,87.358 286.467,87.573C286.771,87.787 287.056,88.056 287.325,88.377C287.593,88.699 287.825,89.02 288.024,89.342C288.217,89.664 288.318,89.932 288.318,90.147C288.533,90.04 288.712,90.183 288.854,90.575C288.997,90.969 289.13,91.433 289.255,91.97C289.379,92.507 289.488,92.998 289.577,93.445C289.665,93.893 289.748,94.116 289.817,94.116L289.924,94.116L290.193,93.901L290.246,93.901C290.461,93.901 290.613,93.981 290.702,94.142C290.793,94.304 290.838,94.473 290.838,94.652C290.838,94.902 290.793,95.081 290.702,95.188C290.613,95.295 290.442,95.438 290.193,95.617C290.264,95.653 290.372,95.743 290.514,95.885C290.658,96.029 290.81,96.18 290.969,96.341C291.132,96.503 291.274,96.655 291.4,96.797C291.526,96.941 291.588,97.03 291.588,97.065C291.658,97.102 291.714,97.209 291.749,97.387C291.783,97.566 291.82,97.674 291.857,97.708C291.89,97.745 291.998,97.879 292.179,98.11C292.356,98.343 292.463,98.496 292.5,98.567L292.5,98.781C292.463,98.853 292.426,98.978 292.391,99.156C292.356,99.335 292.319,99.461 292.284,99.531L292.874,99.531C292.911,99.96 292.983,100.443 293.09,100.979C293.197,101.515 293.34,101.979 293.519,102.373C293.519,102.409 293.581,102.48 293.707,102.587C293.831,102.694 293.911,102.766 293.948,102.802C294.02,102.909 294.109,103.061 294.216,103.257C294.325,103.454 294.377,103.571 294.377,103.606L294.377,104.893C294.377,104.964 294.466,105.081 294.645,105.241C294.825,105.403 294.966,105.482 295.074,105.482C295.074,105.518 295.136,105.528 295.262,105.509C295.388,105.491 295.468,105.482 295.505,105.482C295.683,105.696 295.8,105.975 295.854,106.314C295.908,106.653 295.969,106.983 296.042,107.305C296.112,107.627 296.237,107.905 296.419,108.137C296.596,108.37 296.899,108.485 297.33,108.485C297.724,108.485 298.097,108.414 298.455,108.271C298.811,108.128 299.186,108.056 299.582,108.056C299.652,108.056 299.742,108.065 299.85,108.082C299.957,108.101 300.044,108.11 300.118,108.11C300.118,108.504 300.127,108.986 300.145,109.558C300.162,110.13 300.207,110.711 300.279,111.301C300.351,111.89 300.475,112.471 300.654,113.042C300.834,113.615 301.064,114.081 301.35,114.437C301.565,114.687 301.797,114.893 302.049,115.054C302.298,115.214 302.528,115.385 302.745,115.562C302.959,115.742 303.137,115.956 303.28,116.207C303.423,116.457 303.495,116.778 303.495,117.172C303.495,117.244 303.476,117.297 303.441,117.333C303.441,117.369 303.415,117.477 303.361,117.655C303.307,117.834 303.28,117.959 303.28,118.03C303.28,118.316 303.423,118.575 303.709,118.807C303.996,119.04 304.14,119.299 304.14,119.585L304.14,120.121C304.14,120.193 304.114,120.335 304.06,120.55C304.006,120.765 303.951,121.007 303.897,121.275C303.843,121.543 303.798,121.794 303.763,122.025C303.728,122.258 303.709,122.393 303.709,122.427C303.674,122.607 303.685,122.875 303.736,123.231C303.792,123.589 303.816,123.787 303.816,123.821L304.62,123.821L304.62,123.983C304.62,124.054 304.603,124.108 304.568,124.143C304.533,124.143 304.477,124.197 304.408,124.303C304.336,124.41 304.299,124.482 304.299,124.518L304.299,126.019C304.299,126.198 304.229,126.288 304.084,126.288C303.978,126.288 303.889,126.288 303.816,126.288C303.565,126.288 303.398,126.207 303.307,126.045C303.216,125.885 303.031,125.804 302.744,125.804C302.672,125.804 302.492,125.814 302.208,125.831C301.922,125.849 301.779,125.912 301.779,126.019L297.166,153.957L297.166,155.191C297.667,156.121 298.178,157.194 298.695,158.408C299.212,159.624 299.544,160.821 299.688,162C299.722,162 299.813,162.054 299.956,162.161C300.098,162.269 300.251,162.376 300.411,162.483C300.572,162.59 300.714,162.698 300.84,162.805C300.966,162.913 301.063,162.984 301.137,163.019C301.205,163.092 301.295,163.199 301.403,163.342C301.51,163.485 301.583,163.574 301.618,163.609C301.655,163.825 301.572,163.995 301.379,164.118C301.181,164.245 300.967,164.334 300.733,164.387C300.501,164.441 300.259,164.468 300.01,164.468C299.758,164.468 299.598,164.468 299.526,164.468C299.132,164.468 298.802,164.351 298.535,164.118C298.267,163.888 298.034,163.619 297.839,163.315C297.641,163.011 297.443,162.743 297.247,162.51C297.052,162.279 296.829,162.161 296.577,162.161C296.471,162.161 296.382,162.234 296.309,162.376C296.274,162.448 296.231,162.654 296.175,162.992C296.121,163.333 296.095,163.538 296.095,163.609C295.808,163.645 295.567,163.726 295.371,163.852C295.173,163.977 294.967,164.111 294.753,164.255L294.594,164.093C294.629,164.021 294.646,163.843 294.646,163.556L294.646,162.645L294.646,161.84C294.646,161.554 294.629,161.356 294.594,161.25C294.557,160.928 294.432,160.615 294.217,160.312C294.003,160.009 293.896,159.66 293.896,159.266C293.896,158.91 294.022,158.596 294.271,158.328C294.521,158.06 294.646,157.765 294.646,157.443C294.646,157.157 294.594,156.853 294.486,156.531C294.379,156.21 294.288,155.906 294.217,155.62C294.003,155.298 293.654,154.761 293.173,154.011C292.691,153.261 292.182,152.457 291.644,151.598C291.108,150.74 290.599,149.936 290.117,149.184C289.633,148.433 289.302,147.897 289.124,147.576C288.766,147.004 288.498,146.369 288.32,145.673C288.141,144.975 288.026,144.26 287.97,143.527C287.917,142.794 287.908,142.069 287.946,141.355C287.979,140.64 288.032,139.961 288.107,139.317C288.033,139.031 287.918,138.782 287.759,138.567C287.596,138.353 287.427,138.12 287.248,137.871L284.621,134.868C284.335,134.833 284.058,134.599 283.788,134.17C283.52,133.742 283.243,133.206 282.958,132.562C282.671,131.919 282.395,131.214 282.126,130.445C281.858,129.676 281.572,128.936 281.268,128.22C280.964,127.505 280.661,126.853 280.356,126.263C280.051,125.673 279.721,125.252 279.364,125.002C279.257,125.468 279.194,125.897 279.176,126.29C279.157,126.684 279.149,127.13 279.149,127.63C279.149,128.058 279.184,128.434 279.256,128.755C279.328,129.077 279.363,129.417 279.363,129.774C279.363,130.418 279.273,130.873 279.095,131.141C278.916,131.41 278.737,131.829 278.558,132.401C278.523,132.473 278.478,132.714 278.425,133.124C278.371,133.536 278.326,133.778 278.291,133.849C278.256,134.064 278.165,134.351 278.023,134.707C277.879,135.065 277.736,135.44 277.594,135.833C277.449,136.227 277.325,136.621 277.218,137.013C277.111,137.407 277.057,137.763 277.057,138.085C277.057,138.55 277.12,139.042 277.245,139.56C277.37,140.078 277.682,140.427 278.184,140.605C278.326,141.107 278.389,141.678 278.371,142.321C278.352,142.965 278.345,143.537 278.345,144.037L278.345,144.52C278.345,144.699 278.335,144.868 278.318,145.029C278.299,145.189 278.291,145.342 278.291,145.485L278.291,145.699L276.414,154.547C276.414,154.583 276.405,154.673 276.388,154.815C276.368,154.958 276.36,155.048 276.36,155.083C276.36,156.299 276.45,157.533 276.63,158.783C276.807,160.034 277.022,161.232 277.273,162.376C277.38,162.591 277.505,162.859 277.648,163.181C277.791,163.503 277.862,163.806 277.862,164.093C277.791,164.271 277.756,164.397 277.756,164.468C277.684,164.468 277.596,164.54 277.488,164.682L273.949,164.682C273.663,164.682 273.475,164.565 273.386,164.333C273.292,164.1 273.247,163.876 273.247,163.662ZM271.316,110.146C271.387,110.253 271.521,110.45 271.718,110.736C271.913,111.023 272.119,111.326 272.335,111.648C272.549,111.97 272.737,112.273 272.897,112.559C273.059,112.846 273.174,113.041 273.247,113.148C273.425,113.436 273.541,113.722 273.595,114.007C273.649,114.294 273.889,114.436 274.318,114.436C274.533,114.436 274.774,114.418 275.043,114.382C275.31,114.347 275.579,114.285 275.847,114.194C276.115,114.106 276.338,113.98 276.517,113.819C276.695,113.658 276.803,113.435 276.839,113.148C276.695,112.755 276.625,112.542 276.625,112.506C276.625,112.47 276.615,112.425 276.597,112.371C276.579,112.318 276.57,112.273 276.57,112.237C276.57,112.023 276.731,111.755 277.052,111.433C276.266,111.539 275.702,111.433 275.363,111.111C275.023,110.789 274.773,110.423 274.613,110.011C274.452,109.6 274.317,109.207 274.21,108.832C274.103,108.457 273.923,108.269 273.674,108.269L273.46,108.269C273.246,108.59 272.95,108.921 272.575,109.26C272.2,109.6 271.78,109.842 271.315,109.985L271.315,110.146L271.316,110.146ZM292.659,140.818C293.158,141.177 293.544,141.659 293.811,142.266C294.079,142.875 294.266,143.519 294.374,144.197C294.481,144.876 294.553,145.556 294.59,146.235C294.625,146.915 294.677,147.487 294.749,147.952C294.784,147.987 294.84,148.14 294.912,148.408C294.981,148.677 295.062,148.989 295.15,149.346C295.241,149.705 295.33,150.053 295.419,150.393C295.51,150.733 295.573,150.992 295.607,151.17L296.091,152.458L296.305,151.6L299.845,128.327C300.023,128.149 300.113,127.864 300.113,127.469L300.113,126.504C300.113,126.183 300.06,125.923 299.953,125.726C299.846,125.531 299.728,125.342 299.604,125.164C299.479,124.985 299.344,124.806 299.201,124.626C299.058,124.448 298.932,124.215 298.826,123.93C298.648,124.073 298.432,124.144 298.182,124.144C297.896,124.144 297.719,124.036 297.647,123.822C297.575,123.609 297.538,123.412 297.538,123.232C297.538,123.019 297.575,122.831 297.647,122.669C297.719,122.509 297.861,122.428 298.076,122.428C298.255,122.428 298.557,122.491 298.986,122.615C299.417,122.741 299.648,122.804 299.685,122.804L299.845,122.804C300.023,122.804 300.113,122.75 300.113,122.642L300.113,122.481C300.113,122.446 300.04,122.374 299.897,122.266C299.754,122.159 299.604,122.035 299.442,121.891C299.281,121.749 299.138,121.579 299.013,121.382C298.887,121.186 298.825,120.963 298.825,120.712C298.825,120.319 298.94,119.971 299.173,119.667C299.406,119.363 299.522,119.015 299.522,118.621C299.522,118.586 299.513,118.54 299.495,118.487C299.479,118.433 299.471,118.389 299.471,118.352C299.397,118.317 299.282,118.129 299.123,117.789C298.96,117.451 298.861,117.245 298.826,117.173C298.648,117.03 298.362,116.789 297.969,116.449C297.575,116.11 297.147,115.752 296.683,115.377C296.215,115.002 295.787,114.645 295.395,114.305C295.001,113.965 294.734,113.724 294.591,113.58C294.41,113.402 294.295,113.295 294.241,113.259C294.187,113.223 294.161,113.116 294.161,112.936C294.161,112.757 294.195,112.597 294.267,112.454C294.339,112.312 294.374,112.151 294.374,111.971C294.374,111.614 294.231,111.381 293.945,111.274C293.838,111.524 293.739,111.819 293.65,112.159C293.562,112.5 293.516,112.829 293.516,113.15C293.516,113.438 293.605,113.679 293.784,113.875C293.964,114.072 294.168,114.25 294.4,114.411C294.633,114.572 294.864,114.733 295.099,114.894C295.329,115.055 295.5,115.225 295.606,115.403C295.643,115.475 295.707,115.591 295.795,115.752C295.884,115.913 295.983,116.092 296.09,116.288C296.196,116.485 296.294,116.673 296.384,116.851C296.473,117.03 296.536,117.137 296.572,117.173C296.572,117.245 296.688,117.451 296.921,117.789C297.153,118.129 297.304,118.317 297.376,118.352L297.376,119.693C297.376,119.766 297.387,119.908 297.405,120.122C297.422,120.336 297.413,120.578 297.376,120.846C297.341,121.115 297.288,121.347 297.218,121.543C297.146,121.74 297.003,121.837 296.787,121.837L296.682,121.837C296.61,121.695 296.573,121.606 296.573,121.569C296.394,121.462 296.073,121.105 295.607,120.497C295.607,120.461 295.598,120.345 295.582,120.148C295.563,119.952 295.556,119.729 295.556,119.478C295.556,119.228 295.545,118.995 295.53,118.781C295.511,118.567 295.503,118.425 295.503,118.352C295.324,117.709 295.002,117.245 294.537,116.958C294.073,116.672 293.68,116.314 293.358,115.886C293.143,115.636 293.009,115.322 292.956,114.947C292.902,114.572 292.678,114.384 292.284,114.384L292.07,114.438C292.179,114.511 292.338,114.688 292.552,114.975C292.768,115.261 292.983,115.564 293.197,115.887C293.411,116.209 293.598,116.512 293.76,116.799C293.922,117.086 294.001,117.264 294.001,117.335C294.001,117.621 293.902,117.979 293.706,118.407C293.509,118.836 293.393,119.123 293.358,119.265L293.358,119.372C293.358,119.909 293.464,120.454 293.679,121.008C293.893,121.563 294,122.107 294,122.643C294,123.609 293.839,124.305 293.518,124.735C293.197,125.165 292.642,125.665 291.857,126.235C291.82,126.235 291.767,126.209 291.695,126.156C291.623,126.102 291.588,126.057 291.588,126.022C291.588,125.986 291.631,125.888 291.722,125.727C291.811,125.567 291.858,125.469 291.858,125.432C291.858,125.326 291.858,125.147 291.858,124.897C291.858,124.647 291.865,124.387 291.883,124.118C291.902,123.85 291.909,123.591 291.909,123.341C291.909,123.055 291.909,122.858 291.909,122.751C291.374,122.751 290.891,122.877 290.461,123.127C290.032,123.377 289.531,123.502 288.961,123.502C288.567,123.502 288.111,123.405 287.592,123.207C287.074,123.013 286.816,122.61 286.816,122.001L286.816,119.105L285.528,118.622L285.315,118.836C285.315,118.908 285.305,119.043 285.287,119.238C285.269,119.435 285.26,119.57 285.26,119.64C285.26,119.784 285.269,119.998 285.287,120.285C285.305,120.571 285.315,120.731 285.315,120.767C285.565,121.804 285.938,122.518 286.441,122.911C286.94,123.305 287.423,123.626 287.887,123.877C288.352,124.127 288.736,124.422 289.041,124.762C289.344,125.102 289.442,125.719 289.336,126.612L291.267,131.331L291.267,131.492C291.267,131.706 291.221,131.868 291.133,131.974C291.042,132.082 290.927,132.225 290.782,132.404L290.782,132.618C290.782,132.69 290.774,132.788 290.758,132.913C290.739,133.038 290.731,133.137 290.731,133.208L290.731,133.423C290.731,134.316 290.9,135.068 291.238,135.673C291.581,136.282 291.858,137.015 292.071,137.873C292.108,137.98 292.151,138.177 292.205,138.463C292.259,138.749 292.312,139.044 292.366,139.348C292.419,139.652 292.472,139.947 292.526,140.232C292.579,140.516 292.622,140.711 292.659,140.818Z" style="fill-rule:nonzero;"/>
    </g>
</svg>
