<?xml version="1.0" encoding="UTF-8" standalone="no"?>
<!DOCTYPE svg PUBLIC "-//W3C//DTD SVG 1.1//EN" "http://www.w3.org/Graphics/SVG/1.1/DTD/svg11.dtd">
<svg width="100%" height="100%" viewBox="0 0 47 87" version="1.1" xmlns="http://www.w3.org/2000/svg" xmlns:xlink="http://www.w3.org/1999/xlink" xml:space="preserve" xmlns:serif="http://www.serif.com/" style="fill-rule:evenodd;clip-rule:evenodd;stroke-linejoin:round;stroke-miterlimit:1.41421;">
    <g transform="matrix(1,0,0,1,-272.248,-264.603)">
        <path d="M272.248,347.558C272.248,346.826 272.354,346.218 272.566,345.736C272.777,345.253 272.98,344.628 273.173,343.855C273.365,343.276 273.528,342.709 273.664,342.148C273.799,341.59 273.983,341.022 274.214,340.442C274.523,339.749 274.918,338.977 275.4,338.129C275.881,337.281 276.123,336.451 276.123,335.642C276.123,335.41 276.065,335.178 275.949,334.948C275.833,334.717 275.776,334.448 275.776,334.138C275.776,333.754 275.892,333.444 276.123,333.212C276.354,332.98 276.547,332.71 276.702,332.401C276.894,332.131 277,331.755 277.02,331.273C277.04,330.793 277.067,330.396 277.106,330.087C277.298,329.817 277.606,329.653 278.031,329.596C278.455,329.537 278.764,329.357 278.956,329.046C278.995,328.892 279.072,328.66 279.188,328.352C279.305,328.044 279.42,327.717 279.536,327.37C279.651,327.022 279.766,326.705 279.882,326.415C279.999,326.126 280.093,325.924 280.171,325.808C280.287,325.538 280.48,325.076 280.751,324.419C281.02,323.763 281.319,323.07 281.647,322.337C281.974,321.605 282.273,320.921 282.544,320.283C282.813,319.645 283.007,319.193 283.122,318.924C283.122,318.848 283.16,318.673 283.238,318.403C283.315,318.133 283.372,317.959 283.411,317.882L283.411,317.824C283.064,317.824 282.823,317.882 282.687,317.997C282.552,318.113 282.388,318.345 282.195,318.69L280.171,323.087C279.978,323.513 279.68,323.936 279.275,324.358C278.87,324.784 278.513,325.111 278.205,325.342C277.974,325.266 277.762,325.111 277.568,324.88C277.53,324.494 277.443,324.09 277.308,323.663C277.172,323.24 277.105,322.836 277.105,322.45L277.105,322.276C277.105,322.199 277.114,322.141 277.134,322.102C277.153,322.064 277.201,322.006 277.278,321.928C277.433,321.736 277.634,321.427 277.886,321.002C278.136,320.578 278.299,320.328 278.377,320.251C278.415,320.212 278.512,320.088 278.666,319.876C278.82,319.662 278.985,319.44 279.158,319.209C279.331,318.979 279.495,318.747 279.65,318.516C279.804,318.285 279.92,318.13 279.998,318.053L280.286,317.822L280.286,317.647L280.286,317.3L280.286,317.242C280.286,317.125 280.363,317.05 280.517,317.011C280.633,316.934 280.71,316.858 280.75,316.781C280.788,316.704 280.826,316.617 280.865,316.519C280.903,316.424 280.942,316.335 280.98,316.259C281.057,316.067 281.134,315.971 281.212,315.971C280.902,315.739 280.642,315.354 280.43,314.814C280.217,314.273 280.112,313.831 280.112,313.483C280.112,313.367 280.198,313.127 280.373,312.76C280.546,312.394 280.758,312.008 281.008,311.603C281.259,311.198 281.509,310.832 281.76,310.503C282.01,310.177 282.213,310.012 282.367,310.012C282.636,310.012 282.83,310.128 282.946,310.359C283.177,310.168 283.456,310.021 283.784,309.924C284.111,309.83 284.314,309.664 284.392,309.434L284.392,308.799C284.392,307.949 284.382,307.119 284.362,306.31C284.342,305.501 284.334,304.691 284.334,303.881C284.334,303.301 284.428,302.713 284.623,302.114C284.815,301.518 284.913,300.949 284.913,300.41L284.913,300.235C284.219,300.198 283.679,300.119 283.292,300.005C282.907,299.889 282.599,299.707 282.367,299.454C282.136,299.203 281.942,298.887 281.789,298.5C281.634,298.114 281.442,297.614 281.211,296.997C280.94,296.649 280.805,296.457 280.805,296.419L280.805,296.012C280.805,295.474 281.066,295.059 281.587,294.77C282.107,294.481 282.521,294.182 282.83,293.874C282.983,293.681 283.109,293.487 283.206,293.296C283.302,293.104 283.504,293.006 283.813,293.006C283.89,293.006 283.966,293.025 284.044,293.064C284.197,293.412 284.352,293.827 284.506,294.308C284.66,294.79 284.796,295.147 284.912,295.378L284.969,295.435C285.047,295.398 285.134,295.349 285.23,295.291C285.327,295.233 285.413,295.203 285.491,295.203C285.606,295.203 285.712,295.233 285.808,295.291C285.904,295.349 285.991,295.378 286.068,295.378C286.3,295.378 286.416,295.321 286.416,295.203L288.499,293.296C288.499,293.257 288.518,293.237 288.557,293.237C288.75,293.237 288.912,293.286 289.05,293.383C289.184,293.479 289.327,293.604 289.484,293.758L290.061,294.163L291.565,293.006C291.256,292.39 291.064,291.985 290.986,291.791C290.91,291.753 290.813,291.628 290.698,291.416C290.583,291.204 290.456,290.981 290.322,290.75C290.186,290.52 290.051,290.288 289.916,290.057C289.782,289.826 289.696,289.671 289.657,289.593C289.618,289.516 289.56,289.44 289.484,289.362C288.442,289.324 287.372,289.227 286.273,289.073C285.174,288.92 284.104,288.678 283.062,288.35C282.021,288.022 281.028,287.589 280.083,287.048C279.137,286.508 278.298,285.833 277.566,285.023C277.451,284.871 277.306,284.676 277.133,284.445C276.959,284.214 276.786,283.981 276.612,283.751C276.438,283.52 276.236,283.231 276.005,282.883L276.005,282.535L275.773,282.535L275.773,282.132C275.734,282.171 275.677,282.191 275.599,282.191C275.561,282.113 275.542,282.037 275.542,281.958L275.542,279.876C275.542,279.608 275.706,279.356 276.034,279.124C276.362,278.893 276.728,278.702 277.133,278.546C277.538,278.392 277.943,278.267 278.347,278.17C278.752,278.075 279.051,278.027 279.243,278.027C278.857,277.756 278.442,277.573 277.999,277.476C277.555,277.378 277.122,277.33 276.698,277.33L276.525,277.33C276.447,277.33 276.361,277.341 276.265,277.359C276.168,277.378 276.081,277.389 276.005,277.389L275.773,277.389C275.117,277.697 274.674,278.293 274.443,279.182C274.172,278.718 274.037,278.333 274.037,278.026C274.037,277.793 274.067,277.572 274.125,277.359C274.183,277.148 274.211,276.925 274.211,276.694C274.133,276.731 274.075,276.751 274.037,276.751L273.98,276.751L273.921,276.751C273.883,276.751 273.825,276.731 273.749,276.694L273.749,276.579C273.749,275.963 273.894,275.421 274.183,274.959C274.473,274.496 274.848,274.11 275.311,273.802C275.773,273.493 276.284,273.252 276.844,273.078C277.403,272.905 277.951,272.818 278.492,272.818C280.112,272.818 281.538,273.012 282.773,273.396C284.006,273.782 285.223,274.42 286.417,275.305L286.649,275.305C286.688,275.305 286.803,275.152 286.996,274.842C287.187,274.532 287.323,274.283 287.401,274.09C287.824,273.319 288.211,272.616 288.557,271.979C288.905,271.342 289.299,270.764 289.745,270.245C290.186,269.725 290.688,269.261 291.247,268.856C291.806,268.451 292.511,268.075 293.359,267.728C293.473,267.689 293.657,267.623 293.907,267.526C294.158,267.429 294.429,267.323 294.717,267.206C295.007,267.093 295.276,266.985 295.529,266.89C295.78,266.794 295.942,266.745 296.02,266.745C296.098,266.706 296.281,266.64 296.571,266.543C296.86,266.446 297.062,266.398 297.176,266.398L297.524,266.398C298.064,266.627 298.584,266.889 299.086,267.178C299.587,267.467 300.088,267.806 300.592,268.19C300.631,268.501 300.715,268.702 300.851,268.797C300.987,268.895 301.149,268.952 301.342,268.972C301.534,268.992 301.757,268.992 302.007,268.972C302.258,268.952 302.5,268.981 302.733,269.059C302.885,269.136 303.049,269.299 303.224,269.55C303.396,269.8 303.571,270.051 303.744,270.303C303.919,270.552 304.091,270.783 304.265,270.995C304.439,271.207 304.62,271.313 304.816,271.313C305.007,271.313 305.268,271.293 305.596,271.256C305.923,271.218 306.252,271.15 306.578,271.053C306.905,270.957 307.225,270.861 307.533,270.763C307.842,270.667 308.074,270.562 308.227,270.446C308.497,270.175 308.784,269.724 309.094,269.086C309.403,268.45 309.721,267.806 310.049,267.149C310.376,266.493 310.713,265.905 311.06,265.384C311.41,264.863 311.773,264.603 312.16,264.603C312.238,264.603 312.316,264.612 312.392,264.631C312.467,264.651 312.506,264.738 312.506,264.893C312.506,265.202 312.42,265.499 312.247,265.789C312.073,266.078 311.89,266.367 311.697,266.657C311.504,266.945 311.321,267.235 311.148,267.525C310.973,267.813 310.887,268.113 310.887,268.421C311.31,268.421 311.736,268.334 312.158,268.161C312.581,267.987 312.996,267.766 313.403,267.496C313.807,267.226 314.192,266.956 314.559,266.685C314.925,266.417 315.262,266.165 315.572,265.932L315.687,265.932C315.88,265.932 316.042,265.972 316.178,266.048C316.314,266.126 316.381,266.262 316.381,266.453C316.381,266.684 316.254,266.917 316.005,267.148C315.755,267.378 315.463,267.61 315.136,267.841C314.81,268.072 314.481,268.303 314.155,268.535C313.826,268.766 313.586,268.997 313.431,269.229L314.589,269.229C315.166,269.229 315.735,269.2 316.294,269.141C316.853,269.083 317.403,269.056 317.943,269.056C318.33,269.056 318.52,269.209 318.52,269.518C318.52,269.827 318.347,270.019 318,270.096L315.34,270.733C315.376,270.926 315.58,271.051 315.947,271.108C316.313,271.168 316.699,271.216 317.104,271.254C317.508,271.291 317.875,271.339 318.203,271.398C318.53,271.455 318.694,271.542 318.694,271.658C318.694,271.968 318.588,272.169 318.376,272.265C318.164,272.363 317.942,272.41 317.71,272.41L317.308,272.41C316.88,272.41 316.486,272.381 316.119,272.324C315.756,272.265 315.377,272.237 314.993,272.237L314.933,272.237C315.165,272.584 315.389,272.961 315.601,273.364C315.812,273.77 315.919,274.183 315.919,274.608C315.919,274.994 315.755,275.36 315.428,275.708C315.097,276.055 314.799,276.324 314.531,276.518L314.531,278.833C314.531,279.141 314.453,279.478 314.301,279.844C314.145,280.211 313.934,280.49 313.662,280.682C313.547,280.722 313.335,280.798 313.027,280.916C312.716,281.028 312.39,281.146 312.043,281.26C311.696,281.376 311.367,281.483 311.059,281.579C310.751,281.677 310.539,281.745 310.424,281.781C310.077,281.936 309.633,282.138 309.093,282.388C308.553,282.64 308.023,282.879 307.503,283.113C306.981,283.343 306.529,283.556 306.143,283.748C305.757,283.941 305.545,284.038 305.508,284.038L305.391,284.211C305.508,285.562 305.342,286.98 304.9,288.463C304.457,289.947 303.965,291.249 303.423,292.367C303.345,292.599 303.183,292.966 302.932,293.467C302.679,293.969 302.412,294.507 302.122,295.085C301.833,295.665 301.551,296.206 301.284,296.705C301.013,297.208 300.819,297.535 300.705,297.69L300.59,298.267C300.705,299.502 300.705,300.591 300.59,301.535C300.473,302.481 300.261,303.358 299.953,304.168C299.642,304.978 299.24,305.771 298.738,306.54C298.235,307.312 297.619,308.122 296.887,308.97C296.77,309.085 296.597,309.279 296.365,309.549C296.134,309.819 295.893,310.097 295.642,310.387C295.391,310.675 295.16,310.948 294.948,311.197C294.736,311.448 294.593,311.593 294.514,311.631C294.321,311.861 293.955,312.249 293.415,312.788C292.874,313.328 292.306,313.889 291.707,314.467C291.109,315.045 290.542,315.594 290.002,316.114C289.462,316.634 289.075,317.01 288.846,317.242C288.651,317.513 288.373,317.842 288.005,318.225C287.64,318.611 287.284,319.006 286.937,319.41C286.59,319.816 286.28,320.202 286.01,320.569C285.741,320.934 285.605,321.234 285.605,321.465C285.605,321.504 285.672,321.65 285.808,321.9C285.944,322.151 286.03,322.315 286.068,322.391C286.185,322.623 286.243,322.835 286.243,323.028C286.243,323.221 286.243,323.433 286.243,323.663C286.243,324.86 285.867,325.977 285.115,327.019C284.362,328.061 283.601,328.985 282.83,329.796C282.791,329.834 282.772,329.892 282.772,329.969C282.772,330.161 282.848,330.316 283.004,330.432C283.157,330.547 283.234,330.703 283.234,330.894C283.234,331.048 283.214,331.185 283.176,331.3C283.137,331.416 283.118,331.549 283.118,331.703C283.118,332.051 283.137,332.408 283.176,332.773C283.214,333.14 283.234,333.517 283.234,333.901C283.234,335.137 283.109,335.995 282.858,336.476C282.607,336.958 281.864,337.201 280.63,337.201L279.706,337.201C279.512,337.201 279.359,337.18 279.242,337.141C279.126,337.104 278.972,337.083 278.779,337.083C278.702,337.2 278.577,337.371 278.403,337.604C278.23,337.835 278.056,338.096 277.883,338.385C277.71,338.674 277.536,338.944 277.362,339.194C277.189,339.446 277.081,339.629 277.043,339.745C276.618,340.399 276.378,341.009 276.32,341.566C276.262,342.127 276.021,342.657 275.596,343.157L275.596,345.008C275.596,345.395 275.587,345.772 275.568,346.136C275.547,346.504 275.539,346.763 275.539,346.917C275.539,346.996 275.518,347.13 275.48,347.321C275.441,347.516 275.413,347.726 275.394,347.959C275.374,348.19 275.345,348.401 275.308,348.596C275.269,348.789 275.23,348.905 275.192,348.944C275.114,349.252 274.969,349.656 274.758,350.158C274.546,350.659 274.228,350.91 273.803,350.91C273.572,350.91 273.36,350.766 273.167,350.476C272.973,350.185 272.81,349.859 272.676,349.492C272.54,349.127 272.433,348.761 272.357,348.393C272.286,348.028 272.248,347.75 272.248,347.558ZM275.776,279.588C275.737,279.664 275.718,279.742 275.718,279.819L275.718,279.876L275.776,279.876C275.929,279.876 276.008,279.857 276.008,279.819C276.008,279.664 275.93,279.588 275.776,279.588ZM292.668,276.638C292.668,276.908 292.812,277.12 293.101,277.275C293.391,277.428 293.652,277.505 293.882,277.505L294.115,277.505C294.193,277.505 294.229,277.467 294.229,277.391C293.804,276.889 293.284,276.638 292.668,276.638ZM296.892,277.216C297.044,277.331 297.198,277.391 297.354,277.391C297.661,277.391 297.989,277.303 298.336,277.129C298.683,276.955 298.857,276.695 298.857,276.349C298.546,276.349 298.2,276.425 297.816,276.58C297.43,276.732 297.121,276.946 296.892,277.216ZM306.435,276.059C306.435,276.984 306.206,277.872 305.743,278.72L306.207,278.72C306.475,278.683 306.851,278.634 307.333,278.575C307.815,278.516 308.113,278.47 308.23,278.43C308.539,278.354 309.116,278.159 309.966,277.852L309.966,275.942L309.329,275.133C309.329,275.056 309.318,274.911 309.298,274.699C309.279,274.486 309.261,274.255 309.242,274.004C309.221,273.754 309.193,273.513 309.154,273.281C309.115,273.049 309.096,272.897 309.096,272.818C308.981,272.203 308.882,271.912 308.807,271.951L308.634,271.951C307.94,272.105 307.391,272.26 306.984,272.413C306.58,272.567 306.049,272.587 305.394,272.471C305.703,273.013 305.953,273.592 306.146,274.206C306.338,274.825 306.435,275.442 306.435,276.059Z" style="fill-rule:nonzero;"/>
    </g>
</svg>
