<?xml version="1.0" encoding="UTF-8" standalone="no"?>
<!DOCTYPE svg PUBLIC "-//W3C//DTD SVG 1.1//EN" "http://www.w3.org/Graphics/SVG/1.1/DTD/svg11.dtd">
<svg width="100%" height="100%" viewBox="0 0 10000 6139" version="1.1" xmlns="http://www.w3.org/2000/svg" xmlns:xlink="http://www.w3.org/1999/xlink" xml:space="preserve" xmlns:serif="http://www.serif.com/" style="fill-rule:evenodd;clip-rule:evenodd;stroke-linejoin:round;stroke-miterlimit:1.41421;">
    <g transform="matrix(1,0,0,1,-0.1502,-0.255677)">
        <g id="layer1" transform="matrix(144.364,0,0,144.364,-37895.5,-70612.1)">
            <path d="M324.797,489.134C323.718,489.195 322.738,489.516 321.886,490.097C321.183,490.573 320.236,491.614 319.373,492.848C319.068,493.291 319.052,493.302 318.952,493.213C318.891,493.163 318.847,493.075 318.847,493.019C318.847,492.859 318.736,492.394 318.675,492.305C318.631,492.233 318.614,492.239 318.542,492.328C318.476,492.416 318.459,492.621 318.459,493.302C318.459,494.292 318.504,494.182 317.734,495.128C316.589,496.545 315.404,497.442 314.17,497.84C313.622,498.018 312.614,498.056 312.011,497.923C311.463,497.802 310.539,497.475 310.478,497.381C310.45,497.348 310.367,497.187 310.284,497.038C310.09,496.662 309.852,496.379 309.072,495.593C308.701,495.222 308.33,494.807 308.247,494.663C308.092,494.398 307.943,493.927 307.943,493.684C307.943,493.606 307.893,493.495 307.832,493.44C307.732,493.346 307.727,493.352 307.699,493.473C307.683,493.545 307.661,494.182 307.655,494.89C307.644,495.748 307.616,496.197 307.577,496.235C307.533,496.28 307.456,496.285 307.301,496.241C306.969,496.152 305.911,496.014 305.568,496.014C305.114,496.014 304.273,496.158 303.764,496.324C301.81,496.96 299.989,498.709 298.976,500.907C298.672,501.571 298.411,502.385 298.118,503.597C297.587,505.789 297.57,505.839 297.476,505.822C297.371,505.805 296.325,504.798 296.026,504.422C295.766,504.095 295.616,503.757 295.572,503.364C295.55,503.187 295.494,503.016 295.45,502.983C295.245,502.811 295.24,502.933 295.24,506.464C295.234,508.34 295.218,509.918 295.19,509.973C295.124,510.112 294.897,510.173 294.327,510.2C293.878,510.222 293.729,510.256 293.314,510.427L292.827,510.626L292.146,510.543C291.415,510.455 290.48,510.239 289.456,509.923C287.756,509.403 287.585,509.342 287.474,509.226C287.303,509.043 287.148,508.65 287.081,508.252C287.02,507.876 286.948,507.743 286.854,507.837C286.827,507.864 286.782,508.147 286.766,508.462C286.738,508.816 286.699,509.043 286.661,509.054C286.622,509.071 286.251,508.994 285.825,508.888C285.039,508.695 284.657,508.601 283.921,508.44C283.461,508.34 283.212,508.257 283.173,508.185C283.157,508.163 283.118,508.014 283.09,507.848C282.996,507.333 282.78,507.007 282.033,506.243C281.314,505.507 281.109,505.202 281.059,504.798C281.042,504.671 280.987,504.521 280.937,504.46C280.854,504.366 280.849,504.372 280.81,504.626C280.793,504.776 280.771,505.523 280.771,506.287C280.766,507.455 280.755,507.687 280.683,507.709C280.638,507.732 280.461,507.721 280.284,507.687C276.747,507.101 273.614,507.322 270.697,508.379C270.565,508.429 270.448,508.468 270.437,508.468C270.354,508.468 270.465,508.235 270.78,507.765C271.467,506.735 272.109,505.246 272.319,504.195C272.541,503.082 272.585,501.876 272.435,500.896C272.192,499.291 271.417,497.221 270.83,496.612C270.498,496.263 270.244,496.186 269.911,496.329C269.286,496.606 268.544,497.536 268.135,498.56C267.919,499.102 267.886,499.208 267.742,499.778C267.244,501.721 267.255,504.278 267.758,506.409C267.819,506.663 267.869,506.94 267.869,507.018C267.863,507.178 267.753,507.305 266.197,508.905C265.533,509.591 264.869,510.339 264.476,510.848C264.249,511.136 263.967,511.567 263.679,512.043C262.849,513.433 262.5,514.639 262.5,516.128C262.5,518.204 263.236,520.064 264.598,521.425C265.201,522.029 265.655,522.366 266.292,522.682C267.603,523.335 268.987,523.545 270.52,523.324C271.207,523.224 271.245,523.235 271.245,523.523C271.245,523.739 271.389,524.431 271.627,525.388C271.954,526.689 272.037,527.193 272.037,527.868C272.037,528.859 271.81,529.501 271.251,530.054C270.482,530.824 269.203,531.195 268.334,530.907C268.035,530.802 267.565,530.486 267.482,530.326C267.415,530.21 267.548,530.11 267.775,530.11C268.317,530.11 268.887,529.7 269.153,529.13C269.424,528.532 269.352,527.608 268.987,527.01C268.854,526.794 268.489,526.462 268.234,526.329C268.046,526.23 267.919,526.208 267.454,526.208C266.795,526.208 266.535,526.313 266.098,526.756C265.179,527.691 265.074,529.169 265.854,530.259C266.756,531.521 268.937,532.019 270.581,531.344C271.107,531.128 271.456,530.885 271.827,530.486C272.424,529.85 272.684,529.097 272.684,528.034C272.684,527.204 272.601,526.706 272.103,524.492C271.849,523.363 271.804,522.992 271.893,522.859C271.937,522.798 271.998,522.748 272.031,522.748C272.065,522.748 272.369,522.566 272.707,522.339C273.725,521.663 274.4,520.877 274.782,519.925C274.959,519.477 275.12,518.558 275.12,517.994C275.12,517.595 275.037,517.65 276.089,517.335C276.908,517.086 277.14,517.025 277.721,516.914C279.426,516.588 281.059,516.549 283.129,516.781L283.699,516.842L283.915,517.08C284.28,517.484 284.878,517.584 285.548,517.352C285.675,517.307 285.852,517.269 285.946,517.269C286.19,517.269 287.851,517.639 289.732,518.121C291.764,518.636 291.742,518.63 293.192,519.073C294.775,519.549 296.059,519.809 296.961,519.826C297.814,519.837 297.852,519.864 297.387,520.108C296.967,520.329 296.568,520.7 296.446,520.977C296.408,521.077 296.375,521.276 296.375,521.42C296.375,522.466 298.196,522.527 299.203,521.519C299.563,521.16 299.646,520.883 299.646,519.958L299.646,519.239L299.878,519.045C300.559,518.458 301.157,517.617 301.467,516.798C301.555,516.566 301.699,516.643 301.816,516.992C301.954,517.401 301.921,518.154 301.749,518.652C301.677,518.852 301.605,519.023 301.589,519.04C301.522,519.09 301.351,519.494 301.378,519.527C301.472,519.621 301.871,518.946 302.081,518.331C302.164,518.093 302.264,517.529 302.264,517.296C302.264,517.03 302.153,516.566 302.009,516.261L301.843,515.89L302.065,515.099C302.186,514.662 302.352,514.019 302.435,513.671C302.696,512.547 303.017,511.34 303.166,510.909C304.002,508.479 306.072,506.243 308.076,505.595C309.149,505.252 310.007,505.224 311.319,505.49C311.485,505.523 311.657,505.578 311.696,505.606C311.745,505.645 311.762,505.861 311.751,506.442L311.734,507.222L311.568,507.195C311.48,507.178 311.214,507.167 310.987,507.167C310.478,507.167 310.09,507.339 309.659,507.765C309.343,508.075 309.232,508.257 309.127,508.662C308.972,509.226 309.089,509.846 309.387,510.095C309.913,510.538 310.716,510.361 311.43,509.641C311.994,509.071 312.006,509.016 312.011,507.261C312.017,506.32 312.039,505.789 312.077,505.75C312.133,505.695 312.642,505.861 313.6,506.259C314.103,506.464 315.487,506.99 315.747,507.073C315.852,507.106 316.162,507.173 316.434,507.222C317.685,507.438 318.614,507.233 319.86,506.464C320.463,506.093 320.723,505.883 321.421,505.18C322.223,504.377 322.511,504.001 324.111,501.698C325.063,500.32 326.131,499.318 327.149,498.842C328.09,498.399 329.314,498.283 330.609,498.51C331.007,498.577 331.428,498.638 331.55,498.638C331.76,498.643 331.771,498.638 331.766,498.477C331.76,498.383 331.577,497.935 331.356,497.481C331.135,497.021 330.875,496.473 330.775,496.263C330.675,496.047 330.465,495.599 330.304,495.267C330.144,494.929 329.934,494.481 329.834,494.27C328.644,491.735 327.62,489.604 327.559,489.532C327.454,489.416 327.188,489.344 326.513,489.239C325.921,489.15 325.245,489.106 324.797,489.134ZM326.386,489.566C327.354,489.715 327.271,489.654 327.709,490.567C327.919,491.005 328.09,491.403 328.09,491.447C328.09,491.492 328.046,491.53 327.991,491.53C327.808,491.53 327.232,491.403 327.177,491.353C327.149,491.326 327.122,491.06 327.122,490.767C327.122,490.307 327.111,490.23 327.028,490.213C326.945,490.197 326.928,490.263 326.917,490.767L326.9,491.337L326.07,491.37C323.917,491.459 322.583,492.228 321.022,494.281C320.762,494.625 320.507,494.907 320.458,494.907C320.319,494.907 319.29,493.861 319.29,493.722C319.29,493.606 319.339,493.518 319.672,493.047C321.122,490.999 322.201,490.053 323.524,489.682C324.443,489.416 325.223,489.388 326.386,489.566ZM326.839,491.73C326.917,491.757 326.928,491.896 326.928,492.671C326.928,493.169 326.911,493.578 326.889,493.578C326.862,493.578 326.607,493.617 326.319,493.662C324.598,493.938 323.38,494.774 321.969,496.662C321.709,497.005 321.482,497.287 321.454,497.287C321.432,497.287 321.393,497.104 321.376,496.877C321.338,496.407 321.188,495.97 320.95,495.615C320.862,495.488 320.784,495.339 320.784,495.289C320.784,495.217 321.587,494.082 321.72,493.966C321.736,493.949 321.88,493.8 322.03,493.634C323.253,492.289 324.476,491.708 326.109,491.702C326.463,491.697 326.79,491.713 326.839,491.73ZM327.935,491.89L328.362,491.979L328.727,492.726C328.926,493.141 329.103,493.534 329.12,493.612C329.159,493.772 329.137,493.772 328.312,493.662C327.991,493.617 327.614,493.578 327.47,493.578C327.271,493.578 327.194,493.551 327.149,493.473C327.122,493.412 327.094,493.042 327.094,492.643C327.094,491.868 327.144,491.724 327.387,491.774C327.454,491.791 327.703,491.84 327.935,491.89ZM328.777,494.082C329.076,494.138 329.358,494.215 329.402,494.254C329.452,494.292 329.568,494.497 329.668,494.713C329.768,494.923 329.928,495.272 330.022,495.477C330.221,495.892 330.216,496.047 330.006,495.992C329.596,495.892 328.954,495.842 328.146,495.859C327.642,495.864 327.199,495.853 327.166,495.831C327.111,495.798 327.094,495.549 327.094,494.907C327.094,494.126 327.105,494.021 327.194,493.971C327.316,493.894 328.068,493.949 328.777,494.082ZM326.917,494.968L326.9,495.97L326.513,496.091C325.018,496.573 323.911,497.569 322.362,499.833C321.061,501.732 320.375,502.567 319.494,503.309C318.587,504.078 317.718,504.51 316.744,504.682C316.29,504.759 316.146,504.765 315.697,504.704C314.878,504.599 313.921,504.283 312.659,503.702C312.465,503.614 312.282,503.542 312.255,503.542C312.227,503.542 312.155,503.492 312.094,503.431C312,503.337 311.983,503.248 311.983,502.778C311.983,502.484 312.006,502.208 312.033,502.163C312.094,502.069 312.127,502.08 313.135,502.423C314.137,502.767 314.568,502.844 315.371,502.811C315.891,502.783 316.079,502.75 316.494,502.601C318.271,501.964 319.766,500.558 321.603,497.785C321.952,497.259 322.871,496.08 323.209,495.726C324.249,494.636 325.506,493.988 326.613,493.971L326.928,493.966L326.917,494.968ZM319.362,494.951C319.827,495.139 320.142,495.377 320.103,495.516C320.065,495.665 318.947,497.226 318.852,497.259C318.808,497.276 318.753,497.259 318.725,497.221C318.648,497.11 318.709,494.979 318.792,494.879C318.886,494.769 318.924,494.774 319.362,494.951ZM318.459,496.407L318.459,497.796L317.923,498.333C317.286,498.964 316.771,499.357 316.173,499.673C315.238,500.16 314.375,500.342 313.511,500.226C312.869,500.143 312.111,499.916 312.05,499.789C311.994,499.689 312,498.355 312.055,498.305C312.072,498.289 312.299,498.3 312.559,498.333C313.362,498.444 314.225,498.272 315.089,497.84C315.974,497.392 317.17,496.396 317.884,495.505C318.249,495.045 318.343,494.951 318.41,494.995C318.437,495.012 318.459,495.649 318.459,496.407ZM320.696,496.097C320.95,496.545 321.017,496.861 320.994,497.475L320.978,498.045L320.707,498.455C320.054,499.44 318.836,500.84 318.725,500.73C318.692,500.697 318.697,500.536 318.736,500.326C318.78,500.082 318.792,499.662 318.764,498.992L318.725,498.012L319.113,497.525C319.323,497.259 319.627,496.85 319.788,496.623C320.336,495.853 320.347,495.842 320.463,495.859C320.524,495.87 320.629,495.975 320.696,496.097ZM308.685,496.158C309.089,496.363 309.482,496.667 309.581,496.85C309.653,496.994 309.653,497.01 309.57,497.01C309.52,497.01 309.321,496.933 309.122,496.844C308.928,496.75 308.751,496.678 308.729,496.678C308.707,496.678 308.524,496.617 308.325,496.54C307.932,496.39 307.838,496.263 307.948,496.053C307.998,495.97 308.042,495.953 308.209,495.986C308.325,496.008 308.535,496.086 308.685,496.158ZM328.871,496.18C329.613,496.252 330.371,496.396 330.459,496.479C330.565,496.578 331.245,498.001 331.245,498.123C331.245,498.25 331.245,498.25 330.52,498.139C329.319,497.957 327.985,498.112 326.956,498.554C326.745,498.643 326.563,498.698 326.552,498.671C326.541,498.643 326.613,498.538 326.707,498.438C327.028,498.106 327.111,497.84 327.144,497.027C327.161,496.628 327.194,496.285 327.21,496.269C327.238,496.235 327.863,496.152 328.179,496.13C328.245,496.13 328.555,496.152 328.871,496.18ZM326.9,496.512C326.9,496.628 326.878,496.645 326.762,496.634C326.685,496.623 326.59,496.578 326.546,496.54C326.474,496.473 326.485,496.451 326.601,496.407C326.801,496.324 326.9,496.357 326.9,496.512ZM306.897,496.518C307.212,496.578 307.511,496.667 307.555,496.711C307.649,496.8 307.705,497.752 307.644,498.095L307.605,498.283L306.814,498.283C306.332,498.283 305.839,498.316 305.579,498.366C303.819,498.698 302.197,499.828 300.93,501.588C300.116,502.728 299.646,503.857 299.17,505.839C298.511,508.578 298.295,509.292 297.869,510.156C297.493,510.92 297.194,511.363 296.729,511.833C296.413,512.149 296.231,512.281 295.86,512.453C295.201,512.763 294.93,512.813 293.939,512.807C292.921,512.802 292.268,512.68 290.684,512.204C290.125,512.038 289.661,511.899 289.649,511.899C289.638,511.899 289.522,511.695 289.395,511.451C289.234,511.147 289.018,510.848 288.72,510.532C288.421,510.217 288.293,510.051 288.332,510.012C288.371,509.973 288.631,510.029 289.135,510.178C290.413,510.56 290.983,510.693 291.886,510.82C292.168,510.859 292.428,510.92 292.456,510.947C292.489,510.981 292.456,511.091 292.378,511.241C292.124,511.728 292.24,512.176 292.694,512.436C292.998,512.608 293.308,512.636 293.768,512.542C294.387,512.414 295.057,511.994 295.328,511.567C295.456,511.363 295.544,510.959 295.544,510.566C295.544,510.222 295.544,510.222 295.838,509.94C296.507,509.304 297.122,508.318 297.426,507.394C297.515,507.112 297.653,507.145 297.742,507.471C297.886,508.031 297.786,508.7 297.459,509.376C297.227,509.863 297.205,510.001 297.404,509.769C297.592,509.542 297.836,509.06 297.991,508.601C298.09,508.302 298.118,508.097 298.118,507.638C298.118,507.112 298.101,507.023 297.958,506.708C297.78,506.326 297.78,506.414 298.002,505.562C298.046,505.379 298.251,504.571 298.445,503.763C298.644,502.955 298.893,502.069 298.993,501.798C299.441,500.608 300.05,499.634 301.002,498.588C301.926,497.569 303.094,496.833 304.251,496.54C304.948,496.363 306.072,496.352 306.897,496.518ZM309.404,497.337C309.709,497.464 309.985,497.591 310.018,497.619C310.185,497.757 310.273,498.737 310.14,498.92C310.068,499.014 310.046,499.014 309.581,498.848C309.321,498.748 308.851,498.604 308.535,498.527C308.225,498.444 307.954,498.35 307.932,498.316C307.86,498.217 307.882,496.927 307.948,496.861C308.02,496.789 308.386,496.911 309.404,497.337ZM326.862,497.132C326.9,497.475 326.369,498.128 325.804,498.422C325.494,498.582 325.256,498.588 325.196,498.427C325.096,498.173 325.594,497.486 326.142,497.121C326.341,496.988 326.452,496.955 326.624,496.966C326.817,496.983 326.845,496.999 326.862,497.132ZM325.101,497.364C325.101,497.376 325.063,497.492 325.018,497.619C324.836,498.145 324.991,498.715 325.362,498.87C325.561,498.959 325.904,498.953 326.181,498.864C326.242,498.848 326.17,498.936 326.015,499.064C325.052,499.894 324.321,500.752 323.164,502.435C322.351,503.619 321.908,504.184 321.26,504.859C320.054,506.11 318.919,506.763 317.679,506.923C316.683,507.051 315.852,506.857 313.954,506.038C313.378,505.789 312.736,505.534 312.531,505.473C312.022,505.318 311.983,505.257 311.983,504.588C311.983,504.001 312.011,503.874 312.127,503.874C312.205,503.874 312.592,504.029 313.118,504.261C314.956,505.08 316.467,505.263 317.657,504.815C318.05,504.66 318.78,504.261 319.19,503.968C320.391,503.104 320.906,502.523 322.721,499.944C323.098,499.412 323.496,498.864 323.601,498.726C324.105,498.09 324.863,497.342 325.002,497.342C325.057,497.342 325.101,497.353 325.101,497.364ZM311.236,498.04C311.48,498.123 311.707,498.217 311.734,498.256C311.768,498.294 311.779,498.582 311.762,498.981L311.734,499.639L311.568,499.628C311.48,499.628 311.181,499.518 310.91,499.39L310.417,499.163L310.456,498.903C310.478,498.759 310.511,498.477 310.528,498.267C310.566,497.824 310.572,497.824 311.236,498.04ZM318.432,499.036L318.432,499.584L318.266,499.573C318.177,499.562 317.906,499.54 317.673,499.523C317.435,499.501 317.242,499.468 317.242,499.446C317.242,499.423 317.347,499.318 317.48,499.208C317.607,499.102 317.851,498.887 318.017,498.732C318.183,498.582 318.349,498.46 318.376,498.471C318.41,498.477 318.432,498.715 318.432,499.036ZM307.589,498.754C307.694,498.892 307.699,500.27 307.6,500.398C307.55,500.453 307.345,500.508 307.002,500.553C305.685,500.724 304.55,501.256 303.448,502.213C303.127,502.495 302.972,502.65 302.441,503.237C302.098,503.614 301.417,504.682 301.135,505.28C300.797,506.005 300.542,506.802 300.188,508.246C299.613,510.632 299.463,511.147 299.137,511.927C298.583,513.261 297.852,514.208 297.066,514.623C296.502,514.916 296.153,515.005 295.406,515.038C294.221,515.093 293.341,514.933 291.006,514.224C289.86,513.876 289.456,513.737 289.456,513.687C289.456,513.671 289.489,513.516 289.533,513.344C289.577,513.173 289.627,512.885 289.649,512.702C289.672,512.519 289.71,512.353 289.744,512.337C289.771,512.32 290.087,512.387 290.441,512.492C292.135,512.99 293.624,513.211 294.548,513.112C297.006,512.852 298.19,511.346 299.203,507.195C299.668,505.269 299.745,504.975 299.95,504.344C300.382,503.021 301.146,501.765 302.181,500.702C303.188,499.662 304.24,499.025 305.452,498.732C305.856,498.638 305.994,498.626 306.775,498.638C307.428,498.643 307.522,498.66 307.589,498.754ZM309,499.025C309.847,499.302 309.991,499.374 309.991,499.501C309.991,499.562 309.902,499.789 309.792,500.005C309.686,500.221 309.609,500.409 309.62,500.42C309.659,500.459 309.902,500.143 310.057,499.861C310.14,499.7 310.251,499.578 310.312,499.567C310.434,499.551 311.662,500.038 311.718,500.132C311.779,500.221 311.773,501.427 311.712,501.46C311.685,501.477 311.43,501.394 311.148,501.278C310.677,501.084 309.769,500.785 309.365,500.697C309.282,500.674 308.961,500.625 308.657,500.58C308.352,500.542 308.07,500.475 308.026,500.442C307.948,500.376 307.849,498.947 307.915,498.831C307.976,498.737 308.319,498.798 309,499.025ZM270.958,499.296C271.207,499.39 271.467,499.65 271.594,499.944C271.81,500.425 271.771,501.416 271.511,502.263C271.201,503.276 270.41,504.571 269.601,505.401C268.766,506.259 268.456,506.464 268.4,506.182C268.384,506.115 268.339,505.922 268.301,505.756C268.256,505.556 268.229,505.031 268.234,504.206C268.234,502.888 268.317,502.235 268.589,501.377C269.087,499.828 270.055,498.97 270.958,499.296ZM312.797,500.425C313.522,500.625 314.613,500.636 315.221,500.453C315.432,500.392 315.62,500.348 315.631,500.364C315.648,500.376 315.614,500.514 315.559,500.669C315.293,501.399 315.742,501.936 316.611,501.936C316.982,501.936 317.042,501.975 316.854,502.091C316.312,502.429 315.033,502.584 314.214,502.412C313.782,502.318 312.797,502.003 312.415,501.831C311.994,501.638 311.983,501.621 311.983,500.946C311.983,500.619 312,500.331 312.022,500.315C312.083,500.248 312.232,500.27 312.797,500.425ZM308.862,500.946C309.554,501.067 311.474,501.709 311.69,501.892C311.745,501.936 311.762,502.108 311.751,502.595L311.734,503.237L311.596,503.232C311.518,503.226 311.242,503.16 310.982,503.082C310.245,502.866 309.542,502.761 308.745,502.761C307.76,502.761 307.041,502.922 306.199,503.326C304.71,504.04 303.404,505.302 302.518,506.896C301.954,507.92 301.633,508.816 301.251,510.433C300.875,512.06 300.703,512.713 300.47,513.449C300.376,513.748 300.232,514.058 300.194,514.058C300.028,514.058 299.779,513.582 299.69,513.095C299.613,512.691 299.53,512.525 299.43,512.586C299.38,512.614 299.363,513.056 299.363,514.136L299.363,515.641L299.208,515.89C298.843,516.46 298.074,516.975 297.26,517.191C296.784,517.313 295.539,517.313 294.858,517.191C294.161,517.064 293.236,516.826 292.14,516.477C291.808,516.372 291.332,516.228 291.089,516.162C290.845,516.095 290.546,516.006 290.424,515.968C290.303,515.929 289.533,515.73 288.708,515.525C287.889,515.32 287.186,515.126 287.148,515.093C287.054,514.999 286.982,513.615 287.07,513.56C287.17,513.499 288.908,513.964 288.974,514.069C289.018,514.136 288.991,514.235 288.875,514.468C288.686,514.844 288.725,514.933 288.941,514.612C289.024,514.484 289.151,514.318 289.218,514.235L289.334,514.086L290.325,514.379C291.675,514.783 293.031,515.132 293.662,515.243C294.935,515.47 296.059,515.403 296.917,515.043C297.31,514.883 297.924,514.473 298.173,514.208C298.616,513.737 299.203,512.796 299.419,512.193C299.812,511.119 300,510.505 300.277,509.348C301.002,506.348 301.273,505.595 302.065,504.394C302.651,503.497 303.459,502.628 304.256,502.031C304.627,501.754 304.694,501.759 304.649,502.064C304.5,503.054 305.9,503.409 307.052,502.673C307.666,502.28 307.943,501.815 307.943,501.184C307.943,501.056 307.959,500.94 307.982,500.923C308.037,500.868 308.491,500.879 308.862,500.946ZM310.268,503.254C310.899,503.409 311.59,503.63 311.685,503.713C311.745,503.763 311.762,503.94 311.762,504.46C311.762,504.831 311.74,505.152 311.712,505.169C311.685,505.185 311.452,505.158 311.197,505.108C310.539,504.975 309.05,504.975 308.524,505.108C307.766,505.307 307.284,505.501 306.697,505.855C304.921,506.918 303.476,508.794 302.806,510.903C302.513,511.822 302.507,511.855 302.181,513.228C301.838,514.678 301.627,515.398 301.533,515.431C301.434,515.464 300.526,514.562 300.526,514.429C300.526,514.374 300.653,513.953 300.808,513.494C300.963,513.034 301.251,511.983 301.445,511.158C301.976,508.944 302.109,508.523 302.579,507.571C303.066,506.586 303.714,505.717 304.577,504.898C305.535,503.979 306.509,503.442 307.666,503.182C308.203,503.06 309.648,503.104 310.268,503.254ZM296.363,505.711C296.756,505.905 297.316,506.42 297.316,506.586C297.316,506.752 297.05,507.455 296.773,507.997C296.33,508.883 295.71,509.708 295.577,509.575C295.489,509.486 295.456,505.75 295.544,505.59C295.6,505.484 295.638,505.473 295.81,505.501C295.926,505.523 296.175,505.617 296.363,505.711ZM281.696,506.636C282.238,506.907 282.753,507.571 282.758,507.992C282.758,508.141 282.747,508.147 282.581,508.119C281.895,507.992 281.076,507.804 281.026,507.754C280.97,507.698 280.97,506.702 281.026,506.553C281.07,506.431 281.352,506.459 281.696,506.636ZM311.624,507.693C311.828,507.92 311.579,508.468 311.015,509.038C310.555,509.492 310.179,509.724 309.814,509.774C309.393,509.835 309.271,509.575 309.493,509.088C309.609,508.828 310.345,508.058 310.688,507.848C311.125,507.571 311.463,507.516 311.624,507.693ZM278.22,507.776C279.094,507.853 279.509,507.909 280.24,508.036C280.821,508.136 280.766,508.036 280.766,508.971C280.766,509.791 280.766,509.796 280.644,509.796C280.572,509.796 280.157,509.757 279.714,509.708C278.74,509.597 276.659,509.58 275.867,509.674C274.638,509.829 273.681,510.012 272.795,510.278C271.766,510.582 270.194,511.23 269.967,511.435C269.884,511.507 269.878,511.733 269.956,511.733C269.972,511.733 270.26,511.612 270.603,511.462C272.015,510.842 273.736,510.328 275.175,510.095C276.459,509.89 279.138,509.907 280.018,510.123L280.461,510.233L280.151,510.233C279.249,510.245 278.391,510.842 278.386,511.462C278.386,511.606 278.352,511.745 278.319,511.772C278.28,511.805 277.959,511.844 277.611,511.866C275.961,511.96 274.207,512.331 272.696,512.907C271.611,513.328 271.589,513.328 271.339,513.272C271.212,513.245 270.841,513.211 270.515,513.206C269.906,513.189 269.751,513.139 269.751,512.957C269.751,512.846 269.518,511.617 269.325,510.709C269.247,510.344 269.186,509.99 269.186,509.923C269.181,509.735 269.729,509.138 270.011,509.016C270.565,508.778 272.28,508.241 273.072,508.064C274.583,507.715 276.399,507.61 278.22,507.776ZM281.463,508.246C282.321,508.418 282.72,508.518 282.775,508.573C282.808,508.606 282.83,508.728 282.825,508.839C282.808,509.077 282.659,509.564 282.587,509.608C282.559,509.625 282.537,509.685 282.537,509.746C282.537,509.807 282.559,509.846 282.587,509.829C282.648,509.791 282.891,509.281 282.985,508.994C283.113,508.595 283.113,508.595 283.849,508.767C285.432,509.143 286.661,509.475 286.699,509.536C286.766,509.641 286.755,510.925 286.683,510.997C286.644,511.036 286.5,511.025 286.201,510.953C285.736,510.842 285.659,510.82 283.816,510.405C283.135,510.256 282.559,510.112 282.531,510.095C282.504,510.078 282.482,510.029 282.482,509.979C282.482,509.896 282.47,509.896 282.382,509.979C282.293,510.062 282.238,510.062 281.768,509.984C281.131,509.885 281.065,509.852 281.02,509.619C280.976,509.359 280.965,508.324 281.009,508.252C281.059,508.174 281.12,508.174 281.463,508.246ZM280.638,510.217C280.622,510.233 280.572,510.239 280.533,510.222C280.489,510.206 280.506,510.189 280.566,510.189C280.627,510.184 280.661,510.2 280.638,510.217ZM282.094,510.405C283.81,510.732 286.411,511.34 286.638,511.457C286.738,511.512 286.744,511.567 286.732,512.248L286.716,512.979L286.494,512.973C286.373,512.968 285.886,512.874 285.415,512.757C283.821,512.381 281.391,511.955 280.843,511.955C280.755,511.955 280.633,511.922 280.577,511.883C280.489,511.822 280.5,511.794 280.688,511.578C280.904,511.329 281.042,510.92 281.042,510.538C281.042,510.305 281.07,510.239 281.175,510.239C281.208,510.239 281.624,510.311 282.094,510.405ZM287.878,510.599C288.282,510.792 288.819,511.28 288.858,511.49C288.88,511.639 288.703,511.617 287.795,511.363L287.048,511.152L287.031,510.831C287.004,510.283 287.137,510.25 287.878,510.599ZM268.577,510.527C268.666,510.638 268.915,511.75 269.181,513.233C269.203,513.361 269.164,513.4 268.799,513.621C267.537,514.379 266.729,515.359 266.463,516.444C266.336,516.97 266.347,517.91 266.485,518.42C266.679,519.128 267.044,519.737 267.531,520.191C267.98,520.606 268.76,521.005 269.07,520.966L269.225,520.949L268.976,520.7C268.838,520.562 268.539,520.285 268.312,520.086C267.625,519.483 267.393,518.879 267.531,518.06C267.675,517.18 268.14,516.538 269.004,516.034C269.441,515.774 269.601,515.724 269.668,515.824C269.701,515.885 269.646,515.614 270.41,519.4C270.886,521.78 271.007,522.46 270.952,522.51C270.736,522.732 269.031,522.826 268.262,522.665C266.53,522.3 265.118,521.243 264.415,519.793C264.05,519.034 263.967,518.63 263.972,517.656C263.972,516.947 263.994,516.71 264.1,516.3C264.266,515.663 264.443,515.221 264.786,514.59C265.101,513.997 265.306,513.71 265.876,513.034C266.446,512.353 268.351,510.46 268.461,510.46C268.494,510.46 268.544,510.494 268.577,510.527ZM287.601,511.678C287.817,511.739 288.199,511.844 288.459,511.905C289.279,512.115 289.29,512.126 289.29,512.984C289.29,513.372 289.273,513.466 289.184,513.554C289.09,513.649 289.046,513.654 288.891,513.61C288.792,513.577 288.36,513.466 287.934,513.355C287.507,513.25 287.114,513.123 287.065,513.078C286.982,513.001 286.965,512.89 286.965,512.342C286.965,511.717 287.004,511.567 287.159,511.567C287.186,511.567 287.391,511.617 287.601,511.678ZM280.24,512.237C281.192,512.32 282.642,512.53 283.788,512.757C285.061,513.012 286.572,513.377 286.672,513.455C286.727,513.505 286.744,513.704 286.744,514.235C286.744,514.839 286.732,514.955 286.655,514.983C286.605,514.999 286.279,514.949 285.924,514.872C282.924,514.191 280.323,513.936 278.33,514.119C277.03,514.235 275.452,514.545 274.566,514.855C274.428,514.905 274.284,514.944 274.245,514.944C274.207,514.944 273.98,514.75 273.747,514.512C273.448,514.219 273.172,514.003 272.834,513.815C272.568,513.671 272.352,513.516 272.352,513.477C272.352,513.388 272.546,513.311 273.57,512.99C274.91,512.564 276.017,512.331 277.223,512.215C277.688,512.165 279.631,512.182 280.24,512.237ZM281.917,514.523C282.598,514.606 283.86,514.805 284.696,514.966C285.122,515.043 285.205,515.171 284.895,515.276C284.518,515.398 284.07,515.785 283.876,516.15C283.777,516.339 283.661,516.494 283.627,516.494C283.589,516.494 283.262,516.455 282.897,516.41C282.105,516.316 279.792,516.3 279.006,516.388C278.513,516.438 277.616,516.588 277.002,516.71C276.863,516.743 276.443,516.853 276.061,516.97C275.081,517.257 275.076,517.257 275.037,517.069C274.921,516.549 274.804,516.2 274.644,515.835C274.539,515.608 274.456,515.392 274.456,515.353C274.456,515.221 276.116,514.75 277.168,514.59C277.489,514.54 277.987,514.473 278.275,514.446C278.994,514.379 281.02,514.423 281.917,514.523ZM300.686,515.497C301.013,515.713 301.218,515.896 301.295,516.04C301.345,516.139 301.334,516.222 301.212,516.505C300.991,517.042 300.542,517.794 300.188,518.237C299.834,518.674 299.668,518.774 299.618,518.575C299.557,518.342 299.585,516.106 299.651,515.979C299.684,515.912 299.801,515.724 299.9,515.564C300.083,515.287 300.105,515.265 300.266,515.298C300.36,515.315 300.548,515.409 300.686,515.497ZM288.249,515.78C288.747,515.901 289.339,516.051 289.566,516.106C290.076,516.233 290.845,516.449 292.085,516.815C294.249,517.457 294.863,517.573 296.125,517.573C296.856,517.567 297.144,517.545 297.426,517.468C297.935,517.329 298.522,517.036 298.882,516.743C299.054,516.604 299.214,516.494 299.247,516.494C299.352,516.494 299.369,516.721 299.352,517.877L299.336,519.006L299.031,519.162C298.572,519.394 298.129,519.494 297.426,519.521C296.303,519.571 295.384,519.388 292.915,518.625C292.489,518.492 291.78,518.287 291.338,518.165C290.38,517.9 289.744,517.745 287.546,517.235C286.611,517.014 286.528,516.992 286.494,516.936C286.478,516.914 286.544,516.809 286.638,516.704C286.871,516.455 286.943,516.3 287.015,515.912C287.048,515.735 287.076,515.58 287.076,515.569C287.076,515.514 287.458,515.58 288.249,515.78ZM271.245,515.663C271.577,515.724 271.81,515.829 271.843,515.923C271.854,515.962 271.782,516.04 271.688,516.09C271.589,516.145 271.334,516.322 271.118,516.483C270.897,516.643 270.681,516.765 270.637,516.759C270.554,516.743 270.515,516.604 270.41,516.029C270.365,515.769 270.371,515.691 270.426,515.658C270.526,515.591 270.891,515.597 271.245,515.663ZM272.69,516.483C273.111,516.936 273.504,517.695 273.426,517.905C273.41,517.949 273.271,518.049 273.116,518.126C272.624,518.387 271.948,518.852 271.555,519.2C271.351,519.388 271.168,519.532 271.151,519.516C271.118,519.488 271.074,519.294 270.852,518.237C270.764,517.811 270.692,517.412 270.692,517.352C270.692,517.235 270.952,516.964 271.306,516.704C271.6,516.488 272.203,516.162 272.303,516.162C272.352,516.162 272.53,516.305 272.69,516.483ZM273.576,518.442C273.62,518.519 273.631,518.774 273.609,519.228C273.565,520.274 273.249,521.082 272.651,521.663C272.391,521.918 271.926,522.195 271.76,522.195C271.627,522.195 271.605,522.117 271.439,521.115C271.389,520.811 271.323,520.473 271.295,520.357C271.223,520.069 271.301,519.914 271.732,519.488C272.12,519.095 272.596,518.752 273.111,518.481C273.476,518.287 273.493,518.287 273.576,518.442ZM299.352,519.671C299.38,519.914 299.303,519.953 298.921,519.87C298.738,519.831 298.572,519.781 298.561,519.759C298.528,519.704 299.087,519.483 299.225,519.499C299.303,519.505 299.341,519.56 299.352,519.671Z" style="fill-rule:nonzero;"/>
        </g>
    </g>
</svg>
