<?xml version="1.0" encoding="UTF-8" standalone="no"?>
<!DOCTYPE svg PUBLIC "-//W3C//DTD SVG 1.1//EN" "http://www.w3.org/Graphics/SVG/1.1/DTD/svg11.dtd">
<svg width="100%" height="100%" viewBox="0 0 278 728" version="1.1" xmlns="http://www.w3.org/2000/svg" xmlns:xlink="http://www.w3.org/1999/xlink" xml:space="preserve" xmlns:serif="http://www.serif.com/" style="fill-rule:evenodd;clip-rule:evenodd;stroke-linejoin:round;stroke-miterlimit:1.41421;">
    <g transform="matrix(1,0,0,1,0,-843.751)">
        <g transform="matrix(4.16667,0,0,4.16667,0,0)">
            <path d="M54.228,208.798C53.928,206.649 52.829,205.1 50.879,204.1L51.929,206.899L49.53,207.549C51.979,208.749 53.378,211.547 53.628,215.896C54.278,215.545 54.478,215.845 54.278,216.795C54.128,217.295 53.928,217.945 53.628,218.695L52.579,220.444C52.179,222.294 51.179,223.793 49.58,224.992C49.63,225.292 49.63,225.591 49.63,225.942L51.979,228.541L53.178,229.99L56.227,231.589C58.226,230.14 58.377,227.091 56.627,222.493C55.277,219.594 54.528,215.696 54.328,210.748L54.328,210.348C54.328,209.898 54.278,209.348 54.228,208.798Z" style="fill:rgb(39,20,7);fill-rule:nonzero;"/>
        </g>
        <g transform="matrix(4.16667,0,0,4.16667,0,0)">
            <path d="M37.634,211.248L37.634,211.198C37.734,209.348 38.335,207.749 39.384,206.349C42.233,203.101 45.481,202.301 49.08,204.001L49.13,204.05C49.28,204.1 49.38,204.15 49.53,204.201C44.432,203.501 41.083,204.65 39.484,207.699C38.634,209.398 38.134,211.297 37.984,213.397C37.935,213.447 37.935,213.546 37.935,213.596C37.785,213.346 37.585,213.197 37.435,213.147C37.535,212.597 37.585,211.998 37.634,211.347C37.634,211.297 37.634,211.297 37.634,211.248ZM51.929,206.899L50.879,204.1C50.379,203.85 49.83,203.6 49.28,203.451C45.381,201.601 41.933,202.451 38.884,206C37.734,207.499 37.135,209.249 37.035,211.198C37.035,211.248 37.035,211.297 37.035,211.347C36.685,215.496 35.785,219.045 34.336,221.893C33.686,223.543 33.536,224.892 33.836,225.942L34.436,225.792C34.186,224.842 34.336,223.592 34.886,222.143C35.535,220.843 36.085,219.444 36.535,217.895C36.685,218.295 36.885,218.645 37.135,218.945C35.535,222.044 34.886,224.243 35.136,225.542C35.186,225.792 35.286,226.042 35.436,226.242L37.984,218.945C37.235,218.295 36.785,217.095 36.685,215.396C36.785,214.296 36.935,213.747 37.135,213.747C37.385,213.747 37.734,214.296 38.184,215.396C38.234,214.296 38.584,213.147 39.334,211.947C41.783,208.199 45.182,206.7 49.53,207.549L51.929,206.899Z" style="fill:rgb(92,49,13);fill-rule:nonzero;"/>
        </g>
        <g transform="matrix(4.16667,0,0,4.16667,0,0)">
            <path d="M37.634,211.198L37.634,211.347C37.585,211.998 37.535,212.597 37.435,213.147C37.585,213.197 37.785,213.346 37.935,213.596C37.935,213.546 37.935,213.447 37.984,213.397C38.134,211.297 38.634,209.398 39.484,207.699C41.083,204.65 44.432,203.501 49.53,204.201C49.38,204.15 49.28,204.1 49.13,204.05L49.08,204.001C45.481,202.301 42.233,203.101 39.384,206.349C38.335,207.749 37.734,209.348 37.635,211.198L37.634,211.198Z" style="fill:rgb(164,88,35);fill-rule:nonzero;"/>
        </g>
        <g transform="matrix(4.16667,0,0,4.16667,0,0)">
            <path d="M40.034,223.143L40.584,224.092L40.584,227.341L40.034,225.642L40.034,223.143ZM39.634,221.994L39.584,224.543L39.584,225.692L41.733,230.69L41.933,231.089C43.432,232.04 44.582,233.039 45.431,234.088C46.531,233.139 47.331,231.889 47.831,230.24L47.831,226.042C46.131,226.691 44.332,226.341 42.482,224.992C41.233,224.243 40.284,223.243 39.634,221.994Z" style="fill:rgb(214,159,110);fill-rule:nonzero;"/>
        </g>
        <g transform="matrix(4.16667,0,0,4.16667,0,0)">
            <path d="M40.584,224.092L40.034,223.143L40.034,225.642L40.584,227.341L40.584,224.092Z" style="fill:rgb(239,213,198);fill-rule:nonzero;"/>
        </g>
        <g transform="matrix(4.16667,0,0,4.16667,0,0)">
            <path d="M39.584,224.543L39.634,221.994C39.184,221.194 38.884,220.294 38.734,219.295C38.534,219.245 38.384,219.144 38.234,219.094C38.134,219.045 38.034,218.995 37.984,218.945L35.436,226.242C35.485,226.341 35.585,226.442 35.735,226.542L35.136,226.992C34.786,226.641 34.586,226.242 34.436,225.792L33.836,225.942C34.036,226.691 34.436,227.292 35.085,227.741L36.785,226.442C36.885,226.192 36.985,225.892 37.135,225.642L39.584,224.543Z" style="fill:rgb(39,20,7);fill-rule:nonzero;"/>
        </g>
        <g transform="matrix(4.16667,0,0,4.16667,0,0)">
            <path d="M39.634,221.994C40.284,223.243 41.233,224.243 42.482,224.992C44.332,226.341 46.131,226.691 47.831,226.042L47.831,230.24C47.331,231.889 46.531,233.139 45.431,234.088C45.881,234.588 46.281,235.138 46.531,235.688L47.081,234.938L47.131,234.938L48.88,232.489C49.43,230.49 49.68,228.291 49.63,225.942C49.63,225.591 49.63,225.292 49.58,224.992C51.179,223.793 52.179,222.294 52.579,220.444L53.079,217.845L51.379,221.593C48.53,226.591 44.582,226.742 39.634,221.994Z" style="fill:rgb(156,106,72);fill-rule:nonzero;"/>
        </g>
        <g transform="matrix(4.16667,0,0,4.16667,0,0)">
            <path d="M39.584,225.692L39.584,224.543L37.135,225.642C36.985,225.892 36.885,226.192 36.785,226.442C36.235,227.691 35.785,228.991 35.436,230.24C35.335,230.49 35.235,230.74 35.186,231.04C35.036,231.639 34.936,232.239 34.886,232.889C34.835,233.239 34.835,233.539 34.786,233.838L41.733,230.69L39.584,225.692Z" style="fill:white;fill-rule:nonzero;"/>
        </g>
        <g transform="matrix(4.16667,0,0,4.16667,0,0)">
            <path d="M37.135,214.546L37.435,214.846C37.385,216.196 37.634,217.445 38.085,218.594C37.185,217.595 36.885,216.246 37.135,214.546ZM44.532,224.442C43.782,224.493 42.982,224.142 42.033,223.393C39.884,222.143 38.834,220.294 38.934,217.945L38.934,217.145C39.534,220.244 41.383,222.693 44.532,224.442ZM38.184,215.396C37.734,214.296 37.385,213.747 37.135,213.747C36.935,213.747 36.785,214.296 36.685,215.396C36.785,217.095 37.235,218.295 37.984,218.945C38.034,218.995 38.134,219.045 38.234,219.094L38.584,217.995C38.584,218.445 38.634,218.894 38.734,219.295C38.884,220.294 39.184,221.194 39.634,221.994C44.582,226.742 48.53,226.591 51.379,221.593L53.078,217.845L52.579,220.444L53.628,218.695C53.928,217.945 54.128,217.295 54.278,216.795C54.478,215.845 54.278,215.545 53.628,215.896L51.929,211.947C50.48,208.949 47.981,208.099 44.432,209.348C41.783,210.148 39.734,212.147 38.184,215.396Z" style="fill:rgb(214,159,110);fill-rule:nonzero;"/>
        </g>
        <g transform="matrix(4.16667,0,0,4.16667,0,0)">
            <path d="M42.033,223.393C42.982,224.142 43.782,224.493 44.532,224.442C41.383,222.693 39.534,220.244 38.934,217.145L38.934,217.945C38.834,220.294 39.884,222.143 42.033,223.393Z" style="fill:rgb(239,213,198);fill-rule:nonzero;"/>
        </g>
        <g transform="matrix(4.16667,0,0,4.16667,0,0)">
            <path d="M37.435,214.846L37.135,214.546C36.885,216.246 37.185,217.595 38.085,218.594C37.634,217.445 37.385,216.196 37.435,214.846Z" style="fill:rgb(239,213,198);fill-rule:nonzero;"/>
        </g>
        <g transform="matrix(4.16667,0,0,4.16667,0,0)">
            <path d="M38.234,219.094C38.384,219.144 38.534,219.245 38.734,219.295C38.634,218.894 38.584,218.445 38.584,217.995L38.234,219.094Z" style="fill:rgb(156,106,72);fill-rule:nonzero;"/>
        </g>
        <g transform="matrix(4.16667,0,0,4.16667,0,0)">
            <path d="M37.135,218.945C36.885,218.645 36.685,218.295 36.535,217.895C36.085,219.444 35.535,220.843 34.886,222.143C34.336,223.592 34.186,224.842 34.436,225.792C34.586,226.242 34.786,226.641 35.136,226.992L35.735,226.542C35.585,226.442 35.485,226.341 35.436,226.242C35.286,226.042 35.186,225.792 35.136,225.542C34.886,224.243 35.535,222.044 37.135,218.945Z" style="fill:rgb(164,88,35);fill-rule:nonzero;"/>
        </g>
        <g transform="matrix(4.16667,0,0,4.16667,0,0)">
            <path d="M35.436,230.24C35.785,228.991 36.235,227.691 36.785,226.442L35.085,227.741L33.436,229.09L35.436,230.24Z" style="fill:rgb(231,232,233);fill-rule:nonzero;"/>
        </g>
        <g transform="matrix(4.16667,0,0,4.16667,0,0)">
            <path d="M49.03,235.738L51.529,234.938L54.578,238.287C53.078,240.386 51.379,242.336 49.53,244.085L46.881,242.535L49.03,235.738ZM39.184,238.086L36.785,235.088L41.233,233.539L45.432,241.685L39.184,238.086ZM35.186,231.04C35.235,230.74 35.335,230.49 35.436,230.24L33.436,229.09L35.085,227.741C34.686,227.791 34.286,227.891 33.836,227.941L32.037,229.64L33.986,230.44L32.287,231.989L33.636,233.789L31.887,233.789L24.69,251.981L25.689,253.481L33.236,235.788L55.178,248.433L52.529,254.68L53.079,254.83L53.678,253.481L56.227,247.983L50.08,244.434L55.927,238.737L58.076,238.737L57.377,236.238L58.826,233.888L58.026,232.539L56.227,231.589L54.278,232.539L57.527,233.689L56.077,236.238C56.427,236.837 56.777,237.437 57.177,237.987C56.527,237.937 55.927,237.687 55.277,237.337C54.028,236.587 52.778,235.238 51.579,233.289L47.181,235.938L46.281,241.186L42.433,233.088C41.983,232.639 41.533,232.139 41.083,231.639L34.736,234.988C34.736,234.638 34.736,234.239 34.786,233.838C34.835,233.539 34.835,233.239 34.886,232.889L33.786,231.79L35.186,231.04Z" style="fill:rgb(35,31,32);fill-rule:nonzero;"/>
        </g>
        <g transform="matrix(4.16667,0,0,4.16667,0,0)">
            <path d="M36.785,235.088L39.184,238.086L45.431,241.685L41.233,233.539L36.785,235.088Z" style="fill:rgb(88,89,91);fill-rule:nonzero;"/>
        </g>
        <g transform="matrix(4.16667,0,0,4.16667,0,0)">
            <path d="M49.48,236.238L50.379,236.137L48.33,242.735L47.581,242.285L49.48,236.238ZM51.529,234.938L49.03,235.738L46.881,242.535L49.53,244.085C51.379,242.336 53.079,240.386 54.578,238.287L51.529,234.938Z" style="fill:rgb(88,89,91);fill-rule:nonzero;"/>
        </g>
        <g transform="matrix(4.16667,0,0,4.16667,0,0)">
            <path d="M50.379,236.137L49.48,236.238L47.581,242.285L48.33,242.735L50.379,236.137Z" style="fill:rgb(167,169,172);fill-rule:nonzero;"/>
        </g>
        <g transform="matrix(4.16667,0,0,4.16667,0,0)">
            <path d="M24.04,252.581L25.989,255.98L30.887,258.779L33.686,258.779L40.334,260.927L39.734,261.578L32.787,259.428L30.138,259.428L25.439,256.679L23.39,253.38L24.04,252.581ZM31.487,229.49C31.437,229.64 31.487,229.74 31.537,229.84L31.837,230.14L25.089,232.239L25.089,235.638L16.893,254.73C16.743,254.331 16.543,253.93 16.393,253.481L23.74,236.238L23.74,236.188L24.59,231.839C26.489,230.54 28.938,229.541 31.987,228.89L31.687,229.14C31.537,229.291 31.487,229.39 31.487,229.491L31.487,229.49ZM32.287,231.989L33.986,230.44L32.037,229.64L33.836,227.941C29.688,228.59 26.389,229.74 23.99,231.49L23.14,235.988L15.743,253.43C17.842,259.428 23.041,262.727 31.287,263.377L39.434,265.126C39.983,263.577 40.733,262.177 41.583,260.828L42.033,260.828L36.285,258.479L29.688,257.279L25.689,253.481L24.689,251.981L31.887,233.789L33.636,233.789L32.287,231.989Z" style="fill:rgb(88,89,91);fill-rule:nonzero;"/>
        </g>
        <g transform="matrix(4.16667,0,0,4.16667,0,0)">
            <path d="M31.537,229.84C31.487,229.74 31.437,229.64 31.487,229.49C31.487,229.39 31.537,229.291 31.687,229.14L31.987,228.89C28.938,229.541 26.489,230.54 24.59,231.839L23.74,236.188L23.74,236.238L16.393,253.481C16.543,253.93 16.743,254.331 16.893,254.73L25.089,235.638L25.089,232.239L31.837,230.14L31.537,229.84Z" style="fill:rgb(167,169,172);fill-rule:nonzero;"/>
        </g>
        <g transform="matrix(4.16667,0,0,4.16667,0,0)">
            <path d="M25.989,255.98L24.04,252.581L23.39,253.38L25.439,256.679L30.138,259.428L32.787,259.428L39.734,261.578L40.334,260.927L33.686,258.779L30.887,258.779L25.989,255.98Z" style="fill:rgb(167,169,172);fill-rule:nonzero;"/>
        </g>
        <g transform="matrix(4.16667,0,0,4.16667,0,0)">
            <path d="M34.786,233.838C34.736,234.239 34.736,234.638 34.736,234.988L41.083,231.639C41.533,232.139 41.983,232.639 42.433,233.088C43.482,234.088 44.632,234.938 45.831,235.688L46.531,235.688C46.281,235.138 45.881,234.588 45.431,234.088C44.582,233.039 43.432,232.04 41.933,231.089L41.733,230.69L34.786,233.838Z" style="fill:rgb(241,242,242);fill-rule:nonzero;"/>
        </g>
        <g transform="matrix(4.16667,0,0,4.16667,0,0)">
            <path d="M34.886,232.889C34.936,232.239 35.036,231.639 35.186,231.04L33.786,231.79L34.886,232.889Z" style="fill:rgb(231,232,233);fill-rule:nonzero;"/>
        </g>
        <g transform="matrix(4.16667,0,0,4.16667,0,0)">
            <path d="M48.88,232.489L47.131,234.938L51.729,231.989L54.128,234.838L51.979,228.541L49.63,225.942C49.68,228.291 49.43,230.49 48.88,232.489Z" style="fill:white;fill-rule:nonzero;"/>
        </g>
        <g transform="matrix(4.16667,0,0,4.16667,0,0)">
            <path d="M47.131,234.938L47.081,234.938L46.531,235.688L47.181,235.938L51.579,233.289C52.778,235.238 54.028,236.587 55.277,237.337C55.927,237.687 56.527,237.937 57.177,237.987C56.777,237.437 56.427,236.837 56.077,236.238C55.427,235.038 54.828,233.789 54.278,232.539C53.878,231.74 53.528,230.89 53.178,229.99L51.979,228.541L54.128,234.838L51.729,231.989L47.131,234.938Z" style="fill:rgb(241,242,242);fill-rule:nonzero;"/>
        </g>
        <g transform="matrix(4.16667,0,0,4.16667,0,0)">
            <path d="M47.181,235.938L46.531,235.688L45.831,235.688C44.632,234.938 43.482,234.088 42.433,233.088L46.281,241.185L47.181,235.938Z" style="fill:white;fill-rule:nonzero;"/>
        </g>
        <g transform="matrix(4.16667,0,0,4.16667,0,0)">
            <path d="M58.826,233.888L57.377,236.238L58.076,238.737L55.927,238.737L50.08,244.434L56.227,247.983L53.678,253.481C54.178,253.13 54.678,252.981 55.127,253.13C55.377,253.181 55.577,253.281 55.777,253.481C55.977,253.98 55.777,254.63 55.178,255.43L55.677,255.98L56.177,256.53L59.326,239.386L61.625,234.838L60.775,233.989L58.026,232.539L58.826,233.888Z" style="fill:rgb(88,89,91);fill-rule:nonzero;"/>
        </g>
        <g transform="matrix(4.16667,0,0,4.16667,0,0)">
            <path d="M56.077,236.238L57.526,233.689L54.278,232.539C54.828,233.789 55.427,235.038 56.077,236.238Z" style="fill:rgb(231,232,233);fill-rule:nonzero;"/>
        </g>
        <g transform="matrix(4.16667,0,0,4.16667,0,0)">
            <path d="M53.178,229.99C53.528,230.889 53.878,231.74 54.278,232.539L56.227,231.589L53.178,229.99Z" style="fill:rgb(231,232,233);fill-rule:nonzero;"/>
        </g>
        <g transform="matrix(4.16667,0,0,4.16667,0,0)">
            <path d="M58.876,256.129L57.227,254.98L59.476,245.384C59.976,242.235 60.675,239.586 61.575,237.437L63.574,255.98L58.876,256.129ZM62.425,235.688L61.625,234.838L59.326,239.386L56.177,256.53L56.977,256.03L58.426,256.83L63.674,256.83C64.674,259.278 64.674,261.028 63.674,262.078L61.975,263.877L54.778,262.027C54.628,262.527 54.378,262.927 54.078,263.176C53.378,263.926 52.329,264.176 50.879,263.976C52.029,265.176 53.478,266.026 55.178,266.475C57.377,272.173 58.476,277.971 58.526,283.869C52.878,287.967 49.08,287.467 47.181,282.369L47.181,270.973C47.031,271.423 46.681,271.574 46.031,271.324L46.031,281.219C42.632,286.118 35.835,287.617 25.589,285.668C25.339,285.618 25.089,285.568 24.84,285.518L24.59,286.767C29.738,288.716 35.436,289.367 41.733,288.716C45.131,288.267 46.931,286.418 47.181,283.069C47.131,287.317 49.03,289.167 52.878,288.716L60.376,288.716L52.079,308.559L50.03,321.003L47.431,343.594L44.032,366.185L35.136,372.583C34.486,374.632 35.085,376.131 36.885,377.082L42.183,377.082C43.632,376.232 44.482,375.082 44.682,373.682L48.03,374.033L48.03,369.384C50.279,359.938 51.829,349.992 52.579,339.446L54.578,320.854L56.327,309.709L62.425,288.716C62.075,281.67 60.425,274.373 57.477,266.826C58.826,266.975 60.275,266.925 61.875,266.576L66.223,262.128C66.823,261.078 66.573,259.678 65.523,257.929L65.523,253.98L64.874,252.231L63.224,243.134L62.425,235.688Z" style="fill:rgb(35,31,32);fill-rule:nonzero;"/>
        </g>
        <g transform="matrix(4.16667,0,0,4.16667,0,0)">
            <path d="M58.876,255.13L57.877,254.53L61.225,239.936L58.876,255.13ZM57.227,254.98L58.876,256.129L63.574,255.98L61.575,237.437C60.675,239.586 59.976,242.235 59.476,245.384L57.227,254.98Z" style="fill:rgb(88,89,91);fill-rule:nonzero;"/>
        </g>
        <g transform="matrix(4.16667,0,0,4.16667,0,0)">
            <path d="M57.877,254.53L58.876,255.13L61.225,239.936L57.877,254.53Z" style="fill:rgb(167,169,172);fill-rule:nonzero;"/>
        </g>
        <g transform="matrix(4.16667,0,0,4.16667,0,0)">
            <path d="M51.929,211.947L53.628,215.896C53.378,211.547 51.979,208.749 49.53,207.549C45.182,206.7 41.783,208.199 39.334,211.947C38.584,213.147 38.234,214.296 38.184,215.396C39.733,212.147 41.783,210.148 44.432,209.348C47.981,208.099 50.48,208.949 51.929,211.947Z" style="fill:rgb(156,106,72);fill-rule:nonzero;"/>
        </g>
        <g transform="matrix(4.16667,0,0,4.16667,0,0)">
            <path d="M27.139,284.868L25.789,284.669L29.188,269.024L30.438,269.024L27.139,284.868ZM24.84,285.518C25.089,285.568 25.339,285.618 25.589,285.668C35.835,287.617 42.632,286.118 46.031,281.219L46.031,271.324C45.981,271.624 45.881,271.874 45.731,272.023C45.481,272.374 45.082,272.423 44.432,272.273L43.032,275.322L42.033,275.322L43.932,272.124C43.382,271.923 42.782,271.574 42.033,271.124L38.334,270.374C38.334,270.624 38.334,270.824 38.284,271.024L31.637,268.174L28.788,268.174L24.839,285.518L24.84,285.518Z" style="fill:rgb(88,89,91);fill-rule:nonzero;"/>
        </g>
        <g transform="matrix(4.16667,0,0,4.16667,0,0)">
            <path d="M25.789,284.669L27.139,284.868L30.438,269.024L29.188,269.024L25.789,284.669Z" style="fill:rgb(167,169,172);fill-rule:nonzero;"/>
        </g>
        <g transform="matrix(4.16667,0,0,4.16667,0,0)">
            <path d="M20.341,263.527L28.788,268.174L31.637,268.174L38.284,271.024C38.335,270.824 38.335,270.624 38.335,270.374C38.335,270.174 38.335,269.974 38.384,269.824C38.584,268.174 38.934,266.576 39.434,265.126L31.287,263.377C23.041,262.727 17.842,259.428 15.743,253.43C14.094,258.428 15.644,261.777 20.341,263.527Z" style="fill:rgb(35,31,32);fill-rule:nonzero;"/>
        </g>
        <g transform="matrix(4.16667,0,0,4.16667,0,0)">
            <path d="M55.777,253.481C55.577,253.281 55.377,253.181 55.127,253.13L54.128,255.13L55.178,255.43C55.777,254.63 55.977,253.98 55.777,253.481Z" style="fill:rgb(156,106,72);fill-rule:nonzero;"/>
        </g>
        <g transform="matrix(4.16667,0,0,4.16667,0,0)">
            <path d="M56.627,258.428L56.627,257.279L57.427,256.879L60.076,258.229L61.075,257.379L63.374,257.379L63.724,258.229L61.175,258.229L60.226,258.878L57.577,257.679L56.627,258.428ZM56.177,256.53L56.077,256.83C56.177,258.779 55.727,260.478 54.778,262.027L61.975,263.877L63.674,262.078C64.674,261.028 64.674,259.278 63.674,256.83L58.426,256.83L56.977,256.03L56.177,256.53Z" style="fill:rgb(88,89,91);fill-rule:nonzero;"/>
        </g>
        <g transform="matrix(4.16667,0,0,4.16667,0,0)">
            <path d="M56.627,257.279L56.627,258.428L57.577,257.679L60.226,258.878L61.175,258.229L63.724,258.229L63.374,257.379L61.075,257.379L60.076,258.229L57.427,256.879L56.627,257.279Z" style="fill:rgb(167,169,172);fill-rule:nonzero;"/>
        </g>
        <g transform="matrix(4.16667,0,0,4.16667,0,0)">
            <path d="M56.077,256.83L56.177,256.53L55.677,255.98L53.128,261.278L51.479,261.677L46.831,259.728C47.081,260.278 47.831,260.878 48.98,261.628C49.13,261.677 49.28,261.777 49.43,261.927C49.63,262.027 49.879,262.128 50.18,262.277C50.629,262.527 51.179,262.827 51.729,263.127C52.079,263.027 52.429,262.877 52.679,262.677C54.128,261.878 55.277,259.928 56.077,256.83Z" style="fill:rgb(156,106,72);fill-rule:nonzero;"/>
        </g>
        <g transform="matrix(4.16667,0,0,4.16667,0,0)">
            <path d="M55.677,255.98L55.178,255.43L54.128,255.13L55.127,253.13C54.678,252.981 54.178,253.13 53.678,253.481L53.078,254.831L52.528,254.68L48.63,254.68C48.28,254.73 47.981,254.831 47.831,254.98L53.228,256.03L53.878,257.379L47.531,255.929C46.681,255.929 46.131,256.03 45.881,256.28L52.029,258.079L52.479,259.228L45.831,257.379C45.531,257.529 45.332,257.729 45.231,257.878L51.579,260.228L52.029,261.177L46.631,259.178C46.631,259.329 46.681,259.528 46.831,259.728L51.479,261.677L53.128,261.278L55.677,255.98Z" style="fill:rgb(214,159,110);fill-rule:nonzero;"/>
        </g>
        <g transform="matrix(4.16667,0,0,4.16667,0,0)">
            <path d="M52.479,259.228L52.029,258.079L45.881,256.28C45.582,256.479 45.582,256.83 45.831,257.379L52.479,259.228Z" style="fill:rgb(156,106,72);fill-rule:nonzero;"/>
        </g>
        <g transform="matrix(4.16667,0,0,4.16667,0,0)">
            <path d="M52.029,261.177L51.579,260.228L45.231,257.878C44.981,258.329 45.431,258.728 46.631,259.178L52.029,261.177Z" style="fill:rgb(156,106,72);fill-rule:nonzero;"/>
        </g>
        <g transform="matrix(4.16667,0,0,4.16667,0,0)">
            <path d="M47.681,270.724L48.68,269.924C48.231,277.021 48.43,282.019 49.38,284.968L47.681,281.62L47.681,270.724ZM50.18,262.277C49.879,262.128 49.63,262.027 49.43,261.927L48.58,263.426L50.529,264.627C50.23,265.076 49.879,265.326 49.43,265.376C49.08,265.426 48.73,265.326 48.28,265.126C49.23,265.826 49.63,266.475 49.48,267.126C49.43,267.376 49.28,267.675 49.03,267.925C48.88,267.975 48.63,268.025 48.33,267.975C48.63,268.674 48.63,269.224 48.33,269.574C47.981,269.824 47.63,269.924 47.181,269.875C47.281,270.324 47.281,270.724 47.181,270.973L47.181,282.369C49.08,287.467 52.878,287.967 58.526,283.869C58.476,277.971 57.377,272.173 55.177,266.475C53.478,266.026 52.029,265.176 50.879,263.976C52.329,264.176 53.378,263.926 54.078,263.176L52.678,262.677C52.429,262.877 52.079,263.027 51.729,263.127C51.179,262.827 50.629,262.527 50.179,262.277L50.18,262.277Z" style="fill:rgb(88,89,91);fill-rule:nonzero;"/>
        </g>
        <g transform="matrix(4.16667,0,0,4.16667,0,0)">
            <path d="M48.68,269.924L47.681,270.724L47.681,281.62L49.38,284.968C48.43,282.019 48.231,277.021 48.68,269.924Z" style="fill:rgb(167,169,172);fill-rule:nonzero;"/>
        </g>
        <g transform="matrix(4.16667,0,0,4.16667,0,0)">
            <path d="M53.878,257.379L53.228,256.03L47.831,254.98C47.581,255.18 47.481,255.48 47.531,255.929L53.878,257.379Z" style="fill:rgb(156,106,72);fill-rule:nonzero;"/>
        </g>
        <g transform="matrix(4.16667,0,0,4.16667,0,0)">
            <path d="M56.077,256.83C55.277,259.928 54.128,261.878 52.679,262.677L54.078,263.176C54.378,262.927 54.628,262.527 54.778,262.027C55.727,260.478 56.177,258.779 56.077,256.83Z" style="fill:white;fill-rule:nonzero;"/>
        </g>
        <g transform="matrix(4.16667,0,0,4.16667,0,0)">
            <path d="M53.128,248.932L34.636,241.236L27.239,253.181L33.936,237.487L53.128,248.932ZM52.528,254.68L55.177,248.433L33.236,235.788L25.689,253.481L29.688,257.279L36.285,258.479L42.033,260.828L43.482,260.828C43.432,260.978 43.382,261.177 43.282,261.328L45.332,261.328L48.28,263.176L48.98,261.628C47.831,260.878 47.081,260.278 46.831,259.728C46.681,259.528 46.631,259.329 46.631,259.178C45.431,258.728 44.981,258.329 45.231,257.878C45.332,257.729 45.531,257.529 45.831,257.379C45.582,256.83 45.582,256.479 45.881,256.28C46.131,256.03 46.681,255.929 47.531,255.929C47.481,255.48 47.581,255.18 47.831,254.98C47.981,254.83 48.28,254.73 48.63,254.68L52.528,254.68Z" style="fill:rgb(209,211,212);fill-rule:nonzero;"/>
        </g>
        <g transform="matrix(4.16667,0,0,4.16667,0,0)">
            <path d="M34.636,241.236L53.128,248.932L33.936,237.487L27.239,253.181L34.636,241.236Z" style="fill:white;fill-rule:nonzero;"/>
        </g>
        <g transform="matrix(4.16667,0,0,4.16667,0,0)">
            <path d="M42.033,260.828L41.583,260.828C40.733,262.177 39.983,263.577 39.434,265.126C38.934,266.576 38.584,268.174 38.384,269.824L40.933,268.424C40.883,265.776 41.433,263.277 42.533,260.828L42.033,260.828Z" style="fill:white;fill-rule:nonzero;"/>
        </g>
        <g transform="matrix(4.16667,0,0,4.16667,0,0)">
            <path d="M43.482,260.828L42.533,260.828C41.433,263.277 40.883,265.776 40.933,268.424L38.384,269.824C38.335,269.974 38.335,270.174 38.335,270.374L42.033,271.124C41.883,268.674 42.033,266.326 42.583,263.976C42.783,263.077 43.032,262.177 43.282,261.328C43.382,261.177 43.432,260.978 43.482,260.828Z" style="fill:rgb(231,232,233);fill-rule:nonzero;"/>
        </g>
        <g transform="matrix(4.16667,0,0,4.16667,0,0)">
            <path d="M45.332,261.328L43.282,261.328C43.032,262.177 42.783,263.077 42.583,263.976C42.383,266.276 42.482,268.424 42.933,270.424L45.731,272.023C45.881,271.874 45.981,271.624 46.031,271.324C45.481,271.124 44.632,270.624 43.532,269.875L45.531,269.875L47.181,270.973C47.281,270.724 47.281,270.324 47.181,269.875C46.631,269.724 46.031,269.375 45.381,268.775L46.381,268.775L48.33,269.574C48.63,269.224 48.63,268.674 48.33,267.975C47.831,267.925 47.131,267.575 46.281,266.925L47.231,266.326L49.48,267.126C49.63,266.475 49.23,265.826 48.28,265.126C47.531,264.776 46.581,264.127 45.481,263.127L46.531,263.127L49.43,265.376C49.879,265.326 50.23,265.076 50.529,264.627L48.58,263.426L48.28,263.176L45.332,261.328Z" style="fill:rgb(214,159,110);fill-rule:nonzero;"/>
        </g>
        <g transform="matrix(4.16667,0,0,4.16667,0,0)">
            <path d="M48.28,263.176L48.58,263.426L49.43,261.927C49.28,261.777 49.13,261.677 48.98,261.628L48.28,263.176Z" style="fill:rgb(35,31,32);fill-rule:nonzero;"/>
        </g>
        <g transform="matrix(4.16667,0,0,4.16667,0,0)">
            <path d="M46.531,263.127L45.481,263.127C46.581,264.127 47.531,264.776 48.28,265.126C48.73,265.326 49.08,265.426 49.43,265.376L46.531,263.127Z" style="fill:rgb(156,106,72);fill-rule:nonzero;"/>
        </g>
        <g transform="matrix(4.16667,0,0,4.16667,0,0)">
            <path d="M46.381,268.775L45.381,268.775C46.031,269.375 46.631,269.724 47.181,269.875C47.63,269.924 47.981,269.824 48.33,269.574L46.381,268.775Z" style="fill:rgb(156,106,72);fill-rule:nonzero;"/>
        </g>
        <g transform="matrix(4.16667,0,0,4.16667,0,0)">
            <path d="M48.33,267.975C48.63,268.025 48.88,267.975 49.03,267.925C49.28,267.675 49.43,267.376 49.48,267.126L47.231,266.326L46.281,266.925C47.131,267.575 47.831,267.925 48.33,267.975Z" style="fill:rgb(156,106,72);fill-rule:nonzero;"/>
        </g>
        <g transform="matrix(4.16667,0,0,4.16667,0,0)">
            <path d="M42.033,271.124C42.783,271.574 43.382,271.923 43.932,272.124C44.082,272.173 44.282,272.223 44.432,272.273C45.082,272.423 45.481,272.374 45.731,272.023L42.933,270.424C42.482,268.424 42.383,266.276 42.583,263.976C42.033,266.326 41.883,268.674 42.033,271.124Z" style="fill:rgb(156,106,72);fill-rule:nonzero;"/>
        </g>
        <g transform="matrix(4.16667,0,0,4.16667,0,0)">
            <path d="M43.932,272.124L42.033,275.322L43.032,275.322L44.432,272.273C44.282,272.223 44.082,272.173 43.932,272.124Z" style="fill:rgb(35,31,32);fill-rule:nonzero;"/>
        </g>
        <g transform="matrix(4.16667,0,0,4.16667,0,0)">
            <path d="M47.181,270.973L45.531,269.875L43.532,269.875C44.632,270.624 45.481,271.124 46.031,271.324C46.681,271.574 47.031,271.423 47.181,270.973Z" style="fill:rgb(156,106,72);fill-rule:nonzero;"/>
        </g>
        <g transform="matrix(4.16667,0,0,4.16667,0,0)">
            <path d="M25.889,287.867C24.19,293.514 23.041,299.163 22.491,304.86L20.841,314.556C19.392,316.305 18.642,318.355 18.492,320.704C17.193,322.353 16.293,324.102 15.793,325.952L9.446,344.295L2.199,368.384L0.849,368.634L7.997,344.844L15.094,325.702C15.144,325.652 15.144,325.552 15.144,325.502C15.394,323.103 16.143,321.454 17.442,320.554C17.493,320.503 17.543,320.454 17.593,320.354C17.643,320.304 17.692,320.204 17.692,320.104C17.793,317.555 18.492,315.556 19.792,314.157C19.892,314.056 19.941,313.907 19.992,313.756C19.992,313.556 19.992,313.357 19.992,313.157C20.991,304.31 22.641,295.764 24.939,287.567C25.29,287.667 25.589,287.767 25.889,287.867ZM42.732,294.564L43.982,291.765L44.032,291.366C44.082,291.515 44.082,291.616 44.032,291.765L43.982,291.765L43.632,295.364L44.182,304.161C44.132,307.21 43.982,310.208 43.632,313.157C43.382,315.256 43.083,317.305 42.683,319.304L40.834,338.097L37.385,356.439L36.635,370.784L35.535,371.534L35.286,370.434C35.835,358.539 37.484,347.243 40.233,336.597C40.284,336.547 40.284,336.547 40.284,336.498L41.633,321.003C41.983,318.355 42.283,315.755 42.533,313.157C43.083,306.71 43.132,300.512 42.732,294.564ZM52.079,308.559L60.376,288.716L52.878,288.716C49.03,289.167 47.131,287.317 47.181,283.069C46.931,286.418 45.131,288.267 41.733,288.716C35.436,289.367 29.738,288.716 24.59,286.767C22.141,295.214 20.441,304.01 19.442,313.157C19.442,313.357 19.442,313.556 19.392,313.707C17.942,315.206 17.193,317.305 17.093,320.054C15.643,321.003 14.793,322.803 14.544,325.452L7.396,344.594L0,369.384L8.696,367.885L32.486,302.861L43.432,291.515L42.083,294.464C42.533,300.412 42.433,306.66 41.883,313.157C41.683,315.706 41.383,318.254 41.033,320.904L39.634,336.398C36.885,347.143 35.235,358.539 34.686,370.534L35.135,372.583L44.032,366.185L47.431,343.594L50.029,321.003L52.079,308.559Z" style="fill:rgb(88,89,91);fill-rule:nonzero;"/>
        </g>
        <g transform="matrix(4.16667,0,0,4.16667,0,0)">
            <path d="M43.982,291.765L42.732,294.564C43.132,300.512 43.083,306.71 42.533,313.157C42.283,315.755 41.983,318.355 41.633,321.003L40.283,336.498C40.283,336.547 40.283,336.547 40.233,336.597C37.484,347.243 35.835,358.539 35.286,370.434L35.535,371.534L36.635,370.784L37.385,356.439L40.833,338.097L42.683,319.304C43.083,317.305 43.382,315.256 43.632,313.157C43.982,310.208 44.132,307.21 44.182,304.161L43.632,295.364L43.982,291.765Z" style="fill:rgb(167,169,172);fill-rule:nonzero;"/>
        </g>
        <g transform="matrix(4.16667,0,0,4.16667,0,0)">
            <path d="M22.491,304.86C23.041,299.163 24.19,293.514 25.889,287.867C25.589,287.767 25.29,287.667 24.939,287.567C22.641,295.764 20.991,304.31 19.992,313.157C19.992,313.357 19.992,313.556 19.992,313.756C19.941,313.907 19.892,314.056 19.792,314.157C18.492,315.556 17.793,317.555 17.692,320.104C17.692,320.204 17.643,320.304 17.593,320.354C17.543,320.454 17.493,320.503 17.442,320.554C16.143,321.454 15.394,323.103 15.144,325.502C15.144,325.552 15.144,325.652 15.094,325.702L7.997,344.844L0.849,368.634L2.199,368.384L9.446,344.295L15.793,325.952C16.293,324.102 17.193,322.353 18.492,320.704C18.642,318.355 19.392,316.305 20.841,314.556L22.491,304.86Z" style="fill:rgb(167,169,172);fill-rule:nonzero;"/>
        </g>
        <g transform="matrix(4.16667,0,0,4.16667,0,0)">
            <path d="M42.083,294.464L43.432,291.515L32.487,302.861L8.696,367.885L0,369.384L1.999,369.984L1.999,371.534C0.849,372.783 0.449,374.033 0.699,375.232C3.648,376.232 6.447,376.232 9.146,375.232L9.796,372.334L15.193,373.932L15.193,371.983L24.939,339.146C25.14,338.296 25.339,337.447 25.54,336.597C25.989,334.848 26.439,333.149 26.889,331.45C28.588,325.452 30.587,319.904 32.836,314.756L42.083,294.464Z" style="fill:rgb(35,31,32);fill-rule:nonzero;"/>
        </g>
    </g>
</svg>
