<?xml version="1.0" encoding="UTF-8" standalone="no"?>
<!DOCTYPE svg PUBLIC "-//W3C//DTD SVG 1.1//EN" "http://www.w3.org/Graphics/SVG/1.1/DTD/svg11.dtd">
<svg width="100%" height="100%" viewBox="0 0 195 746" version="1.1" xmlns="http://www.w3.org/2000/svg" xmlns:xlink="http://www.w3.org/1999/xlink" xml:space="preserve" xmlns:serif="http://www.serif.com/" style="fill-rule:evenodd;clip-rule:evenodd;stroke-linejoin:round;stroke-miterlimit:1.41421;">
    <g transform="matrix(1,0,0,1,-382.762,-823.073)">
        <g transform="matrix(4.16667,0,0,4.16667,0,0)">
            <path d="M118.703,200.302C117.203,198.353 115.504,197.403 113.655,197.553C111.505,197.703 109.207,199.153 106.657,201.952C104.208,203.951 103.608,206.549 104.908,209.798L105.108,210.348L105.608,211.547L106.657,213.947L106.657,211.347L106.657,208.899C106.708,206.849 107.557,204.9 109.156,203.051C111.805,202.201 114.604,202.051 117.553,202.551C119.152,203.401 120.102,204.4 120.402,205.549L120.702,212.347L122.151,209.048C123.001,206.45 122.801,204.201 121.501,202.301C120.852,201.301 119.902,200.652 118.703,200.302Z" style="fill:rgb(88,89,91);fill-rule:nonzero;"/>
        </g>
        <g transform="matrix(4.16667,0,0,4.16667,0,0)">
            <path d="M120.702,212.347L120.402,205.549C120.102,204.4 119.152,203.401 117.553,202.551C114.604,202.051 111.805,202.201 109.156,203.051C107.557,204.9 106.708,206.849 106.657,208.899L106.657,211.347C107.157,208.199 108.257,205.9 109.906,204.35C113.255,203.401 116.304,203.8 119.002,205.6L120.402,213.197L120.702,212.347Z" style="fill:rgb(156,106,72);fill-rule:nonzero;"/>
        </g>
        <g transform="matrix(4.16667,0,0,4.16667,0,0)">
            <path d="M122.251,211.698C122.251,210.797 122.201,209.898 122.151,209.048L120.702,212.347L120.402,213.197C121.352,213.497 122.001,212.997 122.251,211.698Z" style="fill:rgb(214,159,110);fill-rule:nonzero;"/>
        </g>
        <g transform="matrix(4.16667,0,0,4.16667,0,0)">
            <path d="M122.151,213.447C122.201,212.847 122.251,212.248 122.251,211.698C122.001,212.997 121.352,213.497 120.402,213.197C119.902,215.295 118.953,216.845 117.603,217.795C116.054,220.494 113.805,221.244 110.855,219.994L108.207,219.344C108.407,219.545 108.657,219.744 108.906,219.994L111.056,221.794C112.855,222.843 114.754,222.743 116.703,221.494L117.053,224.742C118.153,223.793 119.103,222.693 119.952,221.494L119.952,221.294L119.552,218.195C120.152,217.145 120.452,215.696 120.402,213.947C121.151,214.596 121.701,214.446 122.151,213.447Z" style="fill:rgb(156,106,72);fill-rule:nonzero;"/>
        </g>
        <g transform="matrix(4.16667,0,0,4.16667,0,0)">
            <path d="M107.307,210.648L108.856,206.549L108.207,211.897L108.207,215.946L108.257,216.146C108.407,217.295 108.957,218.445 110.006,219.594C108.057,218.594 107.157,217.195 107.307,215.396L107.307,210.648ZM120.402,213.197L119.002,205.6C116.304,203.8 113.255,203.401 109.906,204.35C108.257,205.9 107.157,208.199 106.657,211.347L106.657,215.246C106.558,216.895 107.057,218.295 108.207,219.344L110.855,219.994C113.805,221.244 116.054,220.494 117.603,217.795C118.953,216.845 119.902,215.295 120.402,213.197Z" style="fill:rgb(214,159,110);fill-rule:nonzero;"/>
        </g>
        <g transform="matrix(4.16667,0,0,4.16667,0,0)">
            <path d="M108.856,206.549L107.307,210.648L107.307,215.396C107.157,217.195 108.057,218.594 110.006,219.594C108.957,218.445 108.407,217.295 108.257,216.146L108.207,215.946L108.207,211.897L108.856,206.549Z" style="fill:rgb(239,213,198);fill-rule:nonzero;"/>
        </g>
        <g transform="matrix(4.16667,0,0,4.16667,0,0)">
            <path d="M133.847,245.734L133.147,246.633L112.205,247.833L112.305,246.683L133.847,245.734ZM105.808,229.99L105.108,232.089L112.605,245.384L111.805,245.534L103.858,231.74L105.808,229.99ZM107.407,222.693L107.507,223.793C105.658,225.492 103.708,226.992 101.659,228.291L101.31,227.591C103.559,226.192 105.558,224.543 107.407,222.693ZM126.299,227.292L121.352,225.642L119.602,233.989C118.453,237.836 117.703,241.536 117.453,245.184L116.703,245.184C116.854,241.635 117.453,237.987 118.502,234.289L120.752,223.892L126.299,227.292ZM119.952,221.494L119.952,224.392C119.702,226.442 119.302,228.541 118.752,230.69C118.603,231.24 118.453,231.79 118.303,232.29C118.153,232.939 118.003,233.588 117.803,234.239C117.753,234.488 117.653,234.688 117.603,234.888C116.503,238.936 115.954,242.685 115.954,246.034L113.705,246.084C113.405,244.335 113.055,242.535 112.655,240.686C112.355,239.336 112.055,237.987 111.705,236.637C111.355,235.288 110.956,233.989 110.606,232.689C110.456,232.139 110.256,231.639 110.056,231.089C109.706,229.94 109.356,228.741 108.906,227.491C108.157,225.692 107.807,223.793 107.857,221.794C107.857,221.643 107.857,221.494 107.857,221.343C106.107,223.842 103.708,225.792 100.56,227.241L102.109,229.99L105.158,229.84L103.059,231.639L111.505,246.234L111.505,253.031L131.997,252.781C134.346,251.082 135.246,248.183 134.596,244.085C133.247,244.934 131.597,245.184 129.647,244.934C129.498,244.934 129.397,244.934 129.348,244.884L128.199,245.084L125.65,245.584L118.502,245.934C119.052,243.285 120.352,240.286 122.401,236.987C123.851,235.188 125,233.289 125.85,231.339L123.8,229.64L126.549,229.44C126.849,228.541 127.099,227.591 127.299,226.641C123.701,225.591 121.301,223.842 120.052,221.444L119.952,221.494Z" style="fill:rgb(199,201,203);fill-rule:nonzero;"/>
        </g>
        <g transform="matrix(4.16667,0,0,4.16667,0,0)">
            <path d="M121.352,225.642L126.299,227.292L120.752,223.892L118.502,234.289C117.453,237.987 116.854,241.635 116.703,245.184L117.453,245.184C117.703,241.536 118.453,237.836 119.602,233.989L121.352,225.642Z" style="fill:rgb(231,232,233);fill-rule:nonzero;"/>
        </g>
        <g transform="matrix(4.16667,0,0,4.16667,0,0)">
            <path d="M107.507,223.793L107.407,222.693C105.558,224.543 103.559,226.192 101.31,227.591L101.659,228.291C103.708,226.992 105.658,225.492 107.507,223.793Z" style="fill:rgb(167,169,172);fill-rule:nonzero;"/>
        </g>
        <g transform="matrix(4.16667,0,0,4.16667,0,0)">
            <path d="M105.108,232.089L105.808,229.99L103.858,231.74L111.805,245.534L112.605,245.384L105.108,232.089Z" style="fill:rgb(231,232,233);fill-rule:nonzero;"/>
        </g>
        <g transform="matrix(4.16667,0,0,4.16667,0,0)">
            <path d="M133.147,246.633L133.847,245.734L112.305,246.683L112.205,247.833L133.147,246.633Z" style="fill:rgb(231,232,233);fill-rule:nonzero;"/>
        </g>
        <g transform="matrix(4.16667,0,0,4.16667,0,0)">
            <path d="M119.952,224.392L119.952,221.494C119.103,222.693 118.153,223.793 117.053,224.742C116.304,225.392 115.554,226.042 114.754,226.591L116.753,228.691L118.752,230.69C119.302,228.541 119.702,226.442 119.952,224.392Z" style="fill:rgb(234,235,236);fill-rule:nonzero;"/>
        </g>
        <g transform="matrix(4.16667,0,0,4.16667,0,0)">
            <path d="M120.052,221.444C120.002,221.444 120.002,221.444 120.002,221.393L119.952,221.494L120.052,221.444Z" style="fill:rgb(88,89,91);fill-rule:nonzero;"/>
        </g>
        <g transform="matrix(4.16667,0,0,4.16667,0,0)">
            <path d="M109.706,223.043L108.507,221.744L108.507,220.244L109.156,220.744L109.706,223.043ZM117.053,224.742L116.703,221.494C114.754,222.743 112.855,222.843 111.056,221.794L108.906,219.994C108.657,219.744 108.407,219.545 108.207,219.344L107.857,221.794C109.756,223.743 112.055,225.342 114.754,226.591C115.554,226.042 116.304,225.392 117.053,224.742Z" style="fill:rgb(214,159,110);fill-rule:nonzero;"/>
        </g>
        <g transform="matrix(4.16667,0,0,4.16667,0,0)">
            <path d="M108.507,221.744L109.706,223.043L109.156,220.744L108.507,220.244L108.507,221.744Z" style="fill:rgb(239,213,198);fill-rule:nonzero;"/>
        </g>
        <g transform="matrix(4.16667,0,0,4.16667,0,0)">
            <path d="M118.752,230.69L116.753,228.691L116.154,229.59L118.303,232.29C118.453,231.79 118.603,231.24 118.752,230.69Z" style="fill:rgb(206,207,209);fill-rule:nonzero;"/>
        </g>
        <g transform="matrix(4.16667,0,0,4.16667,0,0)">
            <path d="M115.604,230.44L116.154,229.59L116.753,228.691L114.754,226.591L114.154,227.191L115.204,228.391L113.904,230.49L116.354,235.138C114.604,236.587 113.354,238.437 112.655,240.686C113.055,242.535 113.405,244.335 113.705,246.084L115.954,246.034C115.954,242.685 116.503,238.936 117.603,234.888L115.604,230.44Z" style="fill:rgb(35,31,32);fill-rule:nonzero;"/>
        </g>
        <g transform="matrix(4.16667,0,0,4.16667,0,0)">
            <path d="M116.154,229.59L115.604,230.44L117.603,234.888C117.653,234.688 117.753,234.488 117.803,234.239C118.003,233.588 118.153,232.939 118.303,232.29L116.154,229.59Z" style="fill:rgb(234,235,236);fill-rule:nonzero;"/>
        </g>
        <g transform="matrix(4.16667,0,0,4.16667,0,0)">
            <path d="M113.904,230.49L113.205,229.64L110.606,232.689C110.956,233.989 111.355,235.288 111.706,236.637L112.405,233.088L113.904,230.49Z" style="fill:rgb(234,235,236);fill-rule:nonzero;"/>
        </g>
        <g transform="matrix(4.16667,0,0,4.16667,0,0)">
            <path d="M113.205,229.64L113.904,230.49L115.204,228.391L114.154,227.191L112.405,228.89L113.205,229.64Z" style="fill:rgb(88,89,91);fill-rule:nonzero;"/>
        </g>
        <g transform="matrix(4.16667,0,0,4.16667,0,0)">
            <path d="M112.405,228.89L114.154,227.191L114.754,226.591C112.055,225.342 109.756,223.743 107.857,221.794C107.807,223.793 108.157,225.692 108.906,227.491C109.356,228.741 109.706,229.94 110.056,231.089L112.405,228.89Z" style="fill:rgb(234,235,236);fill-rule:nonzero;"/>
        </g>
        <g transform="matrix(4.16667,0,0,4.16667,0,0)">
            <path d="M113.205,229.64L112.405,228.89L110.056,231.089C110.256,231.639 110.456,232.139 110.606,232.689L113.205,229.64Z" style="fill:rgb(206,207,209);fill-rule:nonzero;"/>
        </g>
        <g transform="matrix(4.16667,0,0,4.16667,0,0)">
            <path d="M112.405,233.088L111.706,236.637C112.055,237.987 112.355,239.336 112.655,240.686C113.354,238.437 114.604,236.587 116.354,235.138L113.904,230.49L112.405,233.088Z" style="fill:rgb(88,89,91);fill-rule:nonzero;"/>
        </g>
        <g transform="matrix(4.16667,0,0,4.16667,0,0)">
            <path d="M128.397,226.992L127.299,226.641C127.099,227.591 126.849,228.541 126.549,229.44L123.8,229.64L125.85,231.339C125,233.289 123.851,235.188 122.401,236.987C120.352,240.286 119.052,243.285 118.502,245.934L125.65,245.584C126.25,243.684 127.449,241.935 129.198,240.386L129.198,236.887L133.997,228.741L133.497,228.541L126.999,237.237L126.999,240.336L123.9,244.484L120.752,244.534C121.401,242.435 122.301,240.286 123.451,238.086L127.049,231.589L126.35,230.44L127.449,230.44L128.397,226.991L128.397,226.992Z" style="fill:rgb(161,163,165);fill-rule:nonzero;"/>
        </g>
        <g transform="matrix(4.16667,0,0,4.16667,0,0)">
            <path d="M126.35,230.44L127.049,231.589L123.451,238.086C122.301,240.286 121.401,242.435 120.752,244.535L123.9,244.484L126.999,240.336L126.999,237.237L133.497,228.541L128.397,226.992L127.449,230.44L126.35,230.44Z" style="fill:rgb(199,201,203);fill-rule:nonzero;"/>
        </g>
        <g transform="matrix(4.16667,0,0,4.16667,0,0)">
            <path d="M135.796,233.489C135.446,231.139 134.846,229.59 133.997,228.741C134.746,232.389 135.146,235.988 135.296,239.537C135.446,239.786 135.446,240.036 135.296,240.286C135.146,240.636 134.796,240.936 134.196,241.286L136.195,241.186C136.346,241.435 136.346,241.685 136.246,241.885C136.195,242.135 136.045,242.336 135.796,242.485L136.795,242.435C136.745,242.685 136.646,242.885 136.496,243.035C136.295,243.435 135.846,243.634 135.146,243.684C134.996,243.835 134.846,243.934 134.696,244.035C134.646,244.085 134.646,244.085 134.596,244.085C135.246,248.183 134.346,251.082 131.997,252.781L111.505,253.031L111.505,256.03C115.154,256.479 118.703,256.679 122.151,256.679C122.601,256.679 123.001,256.679 123.351,256.679L123.301,258.729L127.699,274.222C129.448,278.271 130.198,282.069 130.048,285.717C125.4,289.966 121.352,288.017 117.903,279.92L118.752,284.919C120.402,292.565 123.701,295.713 128.699,294.365L130.298,293.915L128.099,312.458L128.099,333.449L131.447,356.49L131.248,363.386L125.55,367.635C125.5,367.685 125.5,367.685 125.45,367.735L125.3,368.435C127.999,367.485 131.397,367.185 135.546,367.485L134.746,365.386C135.246,361.337 135.246,356.839 134.746,351.792L132.647,330.7L132.647,308.258L133.597,292.765L138.544,291.166L134.746,276.572L131.198,256.23C134.146,256.58 135.996,255.879 136.845,254.031L136.845,251.532L137.695,249.982L137.695,241.786L135.796,233.489Z" style="fill:rgb(161,163,165);fill-rule:nonzero;"/>
        </g>
        <g transform="matrix(4.16667,0,0,4.16667,0,0)">
            <path d="M133.997,228.741L129.198,236.887L129.198,240.386C129.348,240.186 129.548,239.986 129.798,239.836L135.296,239.537C135.146,235.988 134.746,232.389 133.997,228.741Z" style="fill:rgb(199,201,203);fill-rule:nonzero;"/>
        </g>
        <g transform="matrix(4.16667,0,0,4.16667,0,0)">
            <path d="M105.608,211.547L105.108,210.348L105.108,211.448C105.058,213.097 105.208,214.197 105.658,214.796C106.107,214.296 106.058,213.197 105.608,211.547Z" style="fill:rgb(214,159,110);fill-rule:nonzero;"/>
        </g>
        <g transform="matrix(4.16667,0,0,4.16667,0,0)">
            <path d="M105.658,214.796C105.908,215.096 106.208,215.246 106.657,215.246L106.657,213.947L105.608,211.547C106.058,213.197 106.107,214.296 105.658,214.796Z" style="fill:rgb(156,106,72);fill-rule:nonzero;"/>
        </g>
        <g transform="matrix(4.16667,0,0,4.16667,0,0)">
            <path d="M94.112,232.29L94.961,233.938C94.512,236.887 94.512,240.786 94.961,245.534L94.112,245.984C93.512,240.136 93.512,235.587 94.112,232.29ZM94.012,231.089C93.112,232.29 92.813,234.039 93.112,236.387L93.412,247.133C94.062,246.683 95.012,246.284 96.261,245.984L97.76,245.834C96.411,245.384 95.911,244.684 96.261,243.835C96.311,243.684 96.411,243.535 96.511,243.384C96.911,243.535 97.361,243.735 97.811,243.884C97.811,238.487 96.561,234.239 94.012,231.089Z" style="fill:rgb(199,201,203);fill-rule:nonzero;"/>
        </g>
        <g transform="matrix(4.16667,0,0,4.16667,0,0)">
            <path d="M94.961,233.938L94.112,232.29C93.512,235.587 93.512,240.136 94.112,245.984L94.961,245.534C94.512,240.786 94.512,236.887 94.961,233.938Z" style="fill:rgb(231,232,233);fill-rule:nonzero;"/>
        </g>
        <g transform="matrix(4.16667,0,0,4.16667,0,0)">
            <path d="M94.711,230.29C94.462,230.54 94.212,230.79 94.012,231.089C96.561,234.239 97.811,238.487 97.811,243.884C98.96,244.234 100.16,244.484 101.459,244.535C100.01,239.386 97.76,234.638 94.711,230.29Z" style="fill:rgb(161,163,165);fill-rule:nonzero;"/>
        </g>
        <g transform="matrix(4.16667,0,0,4.16667,0,0)">
            <path d="M99.66,229.041L95.961,231.089L95.511,230.44L99.26,228.491L99.66,229.041ZM99.36,227.841L94.711,230.29C97.76,234.638 100.01,239.386 101.459,244.535C101.909,244.585 102.309,244.634 102.759,244.634L105.858,246.484L109.606,246.383L101.759,232.539L102.559,231.089L101.06,231.089L99.36,227.841Z" style="fill:rgb(199,201,203);fill-rule:nonzero;"/>
        </g>
        <g transform="matrix(4.16667,0,0,4.16667,0,0)">
            <path d="M95.961,231.089L99.66,229.041L99.26,228.491L95.511,230.44L95.961,231.089Z" style="fill:rgb(167,169,172);fill-rule:nonzero;"/>
        </g>
        <g transform="matrix(4.16667,0,0,4.16667,0,0)">
            <path d="M102.109,229.99L100.56,227.241L99.36,227.841L101.06,231.089L102.559,231.089L101.759,232.539L109.606,246.383L111.505,246.234L103.059,231.639L105.158,229.84L102.109,229.99Z" style="fill:rgb(161,163,165);fill-rule:nonzero;"/>
        </g>
        <g transform="matrix(4.16667,0,0,4.16667,0,0)">
            <path d="M100.81,245.084L102.609,245.334L105.408,247.033L108.606,247.033L105.008,247.733L102.059,246.484L96.861,247.084L97.311,246.383L101.609,245.834L100.81,245.084ZM102.759,244.634C102.309,244.634 101.909,244.585 101.459,244.535C100.16,244.484 98.96,244.234 97.811,243.884C97.361,243.735 96.911,243.535 96.511,243.384C96.411,243.535 96.311,243.684 96.261,243.835C97.361,244.784 98.81,245.434 100.66,245.734L97.76,245.834L96.261,245.984C95.012,246.284 94.062,246.683 93.412,247.133C92.663,247.583 92.212,248.183 92.063,248.932C93.112,248.132 94.362,247.633 95.711,247.483L97.061,248.233C94.912,248.283 93.262,249.033 92.113,250.382C91.963,250.782 91.913,251.131 91.913,251.431C93.162,250.032 94.512,249.333 96.061,249.283L97.111,249.782C94.862,250.082 93.412,250.931 92.663,252.332C92.563,252.481 92.513,252.681 92.462,252.931C92.313,253.38 92.263,253.781 92.313,254.031C93.862,252.131 95.361,251.131 96.911,250.982L97.76,251.681C94.862,252.131 93.262,253.081 93.012,254.581L97.76,252.781L106.757,251.332L109.606,246.383L105.858,246.484L102.759,244.634Z" style="fill:rgb(214,159,110);fill-rule:nonzero;"/>
        </g>
        <g transform="matrix(4.16667,0,0,4.16667,0,0)">
            <path d="M102.609,245.334L100.81,245.084L101.609,245.834L97.311,246.383L96.861,247.084L102.059,246.484L105.008,247.733L108.606,247.033L105.408,247.033L102.609,245.334Z" style="fill:rgb(239,213,198);fill-rule:nonzero;"/>
        </g>
        <g transform="matrix(4.16667,0,0,4.16667,0,0)">
            <path d="M92.063,248.932C92.013,249.132 92.013,249.333 92.013,249.482C92.013,249.782 92.063,250.082 92.113,250.382C93.262,249.033 94.912,248.283 97.061,248.233L95.711,247.483C94.362,247.633 93.112,248.132 92.063,248.932Z" style="fill:rgb(156,106,72);fill-rule:nonzero;"/>
        </g>
        <g transform="matrix(4.16667,0,0,4.16667,0,0)">
            <path d="M97.111,249.782L96.061,249.283C94.512,249.333 93.162,250.032 91.913,251.431C91.913,251.981 92.163,252.281 92.663,252.332C93.412,250.932 94.862,250.082 97.111,249.782Z" style="fill:rgb(156,106,72);fill-rule:nonzero;"/>
        </g>
        <g transform="matrix(4.16667,0,0,4.16667,0,0)">
            <path d="M96.261,243.835C95.911,244.684 96.411,245.384 97.76,245.834L100.66,245.734C98.81,245.434 97.361,244.784 96.261,243.835Z" style="fill:rgb(156,106,72);fill-rule:nonzero;"/>
        </g>
        <g transform="matrix(4.16667,0,0,4.16667,0,0)">
            <path d="M97.76,254.38L95.811,254.53C95.012,254.98 94.412,255.28 93.962,255.379C93.662,258.329 95.012,260.178 98.01,260.828C99.06,261.128 100.31,261.227 101.859,261.128C105.908,261.378 109.906,261.477 113.854,261.328L108.957,283.319C105.558,288.716 100.21,290.266 92.913,287.917L91.863,292.465L97.311,293.415L102.909,294.365C109.156,295.814 112.755,291.416 113.705,281.219L113.754,279.82L114.205,275.572L115.304,265.176L115.304,262.378L115.304,261.278C117.603,261.177 119.902,261.028 122.151,260.878L122.151,258.729L109.156,258.729C102.309,258.878 98.51,257.429 97.761,254.38L97.76,254.38Z" style="fill:rgb(161,163,165);fill-rule:nonzero;"/>
        </g>
        <g transform="matrix(4.16667,0,0,4.16667,0,0)">
            <path d="M95.811,254.53L97.76,254.38C100.91,254.38 103.708,253.831 106.107,252.781L109.606,252.581L109.606,251.232L109.606,246.383L106.757,251.332L97.76,252.781L93.012,254.581C93.063,255.18 93.412,255.43 93.962,255.379C94.412,255.28 95.012,254.98 95.811,254.53Z" style="fill:rgb(156,106,72);fill-rule:nonzero;"/>
        </g>
        <g transform="matrix(4.16667,0,0,4.16667,0,0)">
            <path d="M97.76,251.681L96.911,250.982C95.361,251.131 93.862,252.131 92.313,254.031C92.363,254.38 92.563,254.581 93.012,254.581C93.262,253.081 94.862,252.131 97.76,251.681Z" style="fill:rgb(156,106,72);fill-rule:nonzero;"/>
        </g>
        <g transform="matrix(4.16667,0,0,4.16667,0,0)">
            <path d="M109.606,251.232L109.606,255.18L111.505,255.33L111.505,253.031L111.505,251.082L109.606,251.232Z" style="fill:rgb(206,207,209);fill-rule:nonzero;"/>
        </g>
        <g transform="matrix(4.16667,0,0,4.16667,0,0)">
            <path d="M109.606,255.18L109.606,252.581L106.107,252.781C103.708,253.831 100.91,254.38 97.76,254.38C98.51,257.429 102.309,258.878 109.156,258.728L122.151,258.728L122.151,256.679C118.703,256.679 115.154,256.479 111.505,256.03L111.505,255.33L109.606,255.18Z" style="fill:rgb(199,201,203);fill-rule:nonzero;"/>
        </g>
        <g transform="matrix(4.16667,0,0,4.16667,0,0)">
            <path d="M98.91,262.177L100.56,262.027L98.91,275.472L96.411,287.117L94.462,287.117L97.111,275.322L98.91,262.177ZM101.859,261.128C100.31,261.227 99.06,261.128 98.01,260.828L96.061,274.422L92.913,287.917C100.21,290.266 105.558,288.716 108.957,283.319L113.854,261.328C109.906,261.477 105.908,261.378 101.859,261.128Z" style="fill:rgb(199,201,203);fill-rule:nonzero;"/>
        </g>
        <g transform="matrix(4.16667,0,0,4.16667,0,0)">
            <path d="M100.56,262.027L98.91,262.177L97.111,275.322L94.462,287.117L96.411,287.117L98.91,275.472L100.56,262.027Z" style="fill:rgb(231,232,233);fill-rule:nonzero;"/>
        </g>
        <g transform="matrix(4.16667,0,0,4.16667,0,0)">
            <path d="M109.606,246.383L109.606,251.232L111.505,251.082L111.505,246.234L109.606,246.383Z" style="fill:rgb(234,235,236);fill-rule:nonzero;"/>
        </g>
        <g transform="matrix(4.16667,0,0,4.16667,0,0)">
            <path d="M136.496,243.035C136.646,242.885 136.745,242.685 136.795,242.435L135.796,242.485L130.948,242.735L128.199,245.085L129.348,244.884L130.448,243.585L131.147,243.335L136.496,243.035Z" style="fill:rgb(214,159,110);fill-rule:nonzero;"/>
        </g>
        <g transform="matrix(4.16667,0,0,4.16667,0,0)">
            <path d="M135.796,242.485C136.045,242.336 136.195,242.135 136.246,241.885L130.998,241.885L128.199,245.084L130.948,242.735L135.796,242.485Z" style="fill:rgb(156,106,72);fill-rule:nonzero;"/>
        </g>
        <g transform="matrix(4.16667,0,0,4.16667,0,0)">
            <path d="M136.246,241.885C136.346,241.685 136.346,241.435 136.195,241.185L134.196,241.286L130.548,241.435L127.599,244.234L129.798,240.986L135.296,240.286C135.446,240.036 135.446,239.786 135.296,239.537L129.798,239.836C129.548,239.986 129.348,240.186 129.198,240.386C127.449,241.935 126.25,243.684 125.65,245.584L128.199,245.084L130.998,241.885L136.246,241.885Z" style="fill:rgb(214,159,110);fill-rule:nonzero;"/>
        </g>
        <g transform="matrix(4.16667,0,0,4.16667,0,0)">
            <path d="M134.196,241.286C134.796,240.936 135.146,240.635 135.296,240.286L129.798,240.986L127.599,244.234L130.548,241.435L134.196,241.286Z" style="fill:rgb(156,106,72);fill-rule:nonzero;"/>
        </g>
        <g transform="matrix(4.16667,0,0,4.16667,0,0)">
            <path d="M131.147,243.335L130.448,243.585L129.348,244.884L130.348,243.884C132.047,243.335 133.646,243.235 135.146,243.684C135.846,243.634 136.295,243.435 136.496,243.035L131.147,243.335Z" style="fill:rgb(156,106,72);fill-rule:nonzero;"/>
        </g>
        <g transform="matrix(4.16667,0,0,4.16667,0,0)">
            <path d="M134.696,244.035C134.846,243.934 134.996,243.835 135.146,243.684C133.646,243.235 132.047,243.335 130.348,243.884L129.348,244.884C129.397,244.934 129.498,244.934 129.647,244.934L134.696,244.035Z" style="fill:rgb(214,159,110);fill-rule:nonzero;"/>
        </g>
        <g transform="matrix(4.16667,0,0,4.16667,0,0)">
            <path d="M134.596,244.085C134.646,244.085 134.646,244.085 134.696,244.035L129.647,244.934C131.598,245.184 133.247,244.934 134.596,244.085Z" style="fill:rgb(156,106,72);fill-rule:nonzero;"/>
        </g>
        <g transform="matrix(4.16667,0,0,4.16667,0,0)">
            <path d="M115.304,262.378L117.353,262.227C118.703,273.573 121.551,281.57 125.899,286.267C123.301,285.918 121.102,283.468 119.302,278.92L115.304,262.378L115.304,265.176L116.903,275.522L117.903,279.92C121.352,288.017 125.4,289.966 130.048,285.717C130.198,282.069 129.448,278.271 127.699,274.222L123.301,258.728L122.151,258.728L122.151,260.878C119.902,261.028 117.603,261.177 115.304,261.278L115.304,262.378Z" style="fill:rgb(199,201,203);fill-rule:nonzero;"/>
        </g>
        <g transform="matrix(4.16667,0,0,4.16667,0,0)">
            <path d="M117.353,262.227L115.304,262.378L119.302,278.92C121.102,283.468 123.301,285.918 125.9,286.267C121.551,281.57 118.703,273.573 117.353,262.227Z" style="fill:rgb(231,232,233);fill-rule:nonzero;"/>
        </g>
        <g transform="matrix(4.16667,0,0,4.16667,0,0)">
            <path d="M123.301,258.729L123.351,256.679C123.001,256.679 122.601,256.679 122.151,256.679L122.151,258.729L123.301,258.729Z" style="fill:rgb(206,207,209);fill-rule:nonzero;"/>
        </g>
        <g transform="matrix(4.16667,0,0,4.16667,0,0)">
            <path d="M117.903,279.92L116.903,275.522L114.205,275.572L113.754,279.82L117.903,279.92Z" style="fill:rgb(92,49,13);fill-rule:nonzero;"/>
        </g>
        <g transform="matrix(4.16667,0,0,4.16667,0,0)">
            <path d="M114.204,275.572L116.903,275.522L115.304,265.176L114.204,275.572Z" style="fill:rgb(35,31,32);fill-rule:nonzero;"/>
        </g>
        <g transform="matrix(4.16667,0,0,4.16667,0,0)">
            <path d="M98.21,294.564L99.36,294.564L100.61,302.311L103.259,328.3L102.159,358.239L99.46,363.287L99.46,360.938L100.61,358.239L101.959,328.451L98.21,294.564ZM117.153,291.616L118.303,297.962L119.952,302.861L119.952,307.259L122.951,331L126.45,352.441L128.099,355.39C126.649,359.138 126.25,362.637 126.949,365.936L125.95,365.885L124.45,361.437L126.999,356.089L125,353.041L118.803,307.559L118.803,303.611L117.153,297.413L117.153,291.616ZM117.903,279.92L113.754,279.82L113.705,281.219C112.755,291.416 109.156,295.814 102.909,294.365L97.311,293.415L99.01,307.409L100.61,328.201L99.46,346.343L99.46,358.588L97.76,360.638L99.01,365.885L104.358,360.288C107.357,348.493 108.856,334.548 108.807,318.405L111.105,301.311L116.503,281.769L116.503,297.863L117.903,303.611L120.052,326.801L123.9,354.44L125.25,356.939L122.951,360.988C122.851,363.737 123.701,365.986 125.45,367.735C125.5,367.685 125.5,367.685 125.55,367.635L131.248,363.386L131.447,356.49L128.099,333.449L128.099,312.457L130.298,293.915L128.699,294.365C123.701,295.713 120.402,292.565 118.752,284.919L117.903,279.92Z" style="fill:rgb(199,201,203);fill-rule:nonzero;"/>
        </g>
        <g transform="matrix(4.16667,0,0,4.16667,0,0)">
            <path d="M118.303,297.962L117.153,291.616L117.153,297.413L118.803,303.611L118.803,307.559L125,353.041L126.999,356.089L124.45,361.437L125.95,365.885L126.949,365.936C126.25,362.637 126.649,359.138 128.099,355.39L126.45,352.441L122.951,331L119.952,307.259L119.952,302.861L118.303,297.962Z" style="fill:rgb(231,232,233);fill-rule:nonzero;"/>
        </g>
        <g transform="matrix(4.16667,0,0,4.16667,0,0)">
            <path d="M99.36,294.564L98.21,294.564L101.959,328.451L100.61,358.239L99.46,360.938L99.46,363.287L102.159,358.239L103.259,328.3L100.61,302.311L99.36,294.564Z" style="fill:rgb(231,232,233);fill-rule:nonzero;"/>
        </g>
        <g transform="matrix(4.16667,0,0,4.16667,0,0)">
            <path d="M114.604,305.16L116.503,297.863L116.503,281.769L111.105,301.311L108.807,318.405C108.856,334.548 107.357,348.493 104.358,360.288L99.01,365.885L98.16,367.685C101.859,366.735 105.258,366.885 108.407,368.134L108.307,362.187C110.656,360.038 111.855,356.589 111.955,351.891C111.955,351.542 111.955,351.192 111.955,350.942C111.255,343.395 111.255,335.598 112.005,327.551L114.604,305.16Z" style="fill:rgb(161,163,165);fill-rule:nonzero;"/>
        </g>
        <g transform="matrix(4.16667,0,0,4.16667,0,0)">
            <path d="M108.457,371.183L108.407,368.134C105.258,366.885 101.859,366.735 98.16,367.685L97.261,369.534C95.711,371.483 95.261,373.333 96.011,375.082C97.061,375.382 98.16,375.532 99.26,375.532C101.509,375.532 103.758,374.833 106.058,373.433L106.058,371.183L108.457,371.183Z" style="fill:rgb(35,31,32);fill-rule:nonzero;"/>
        </g>
        <g transform="matrix(4.16667,0,0,4.16667,0,0)">
            <path d="M125.3,368.435L124.6,371.484L127.699,373.033L127.699,375.332L136.045,376.431C137.495,376.481 138.195,375.931 138.195,374.833C138.195,373.982 137.845,372.833 137.095,371.383L135.546,367.485C131.397,367.185 127.999,367.485 125.3,368.435Z" style="fill:rgb(35,31,32);fill-rule:nonzero;"/>
        </g>
    </g>
</svg>
