<?xml version="1.0" encoding="UTF-8" standalone="no"?>
<!DOCTYPE svg PUBLIC "-//W3C//DTD SVG 1.1//EN" "http://www.w3.org/Graphics/SVG/1.1/DTD/svg11.dtd">
<svg width="100%" height="100%" viewBox="0 0 318 1108" version="1.1" xmlns="http://www.w3.org/2000/svg" xmlns:xlink="http://www.w3.org/1999/xlink" xml:space="preserve" xmlns:serif="http://www.serif.com/" style="fill-rule:evenodd;clip-rule:evenodd;stroke-linejoin:round;stroke-miterlimit:1.41421;">
    <g transform="matrix(1,0,0,1,-453.641,-75.1916)">
        <path d="M535.825,148.361C535.264,146.497 535.199,144.365 535.093,142.371C535.189,142.636 535.382,142.75 535.672,142.713C536.037,142.089 535.553,141.42 535.944,140.825C539.959,139.031 539.937,134.002 543.126,131.626C546.415,129.175 551.772,129.377 555.239,127.065C546.829,133.642 539.2,137.071 535.825,148.361Z" style="fill-rule:nonzero;"/>
        <path d="M545.568,151.841C544.015,144.562 554.04,129.765 562.024,136.719C558.133,138.278 553.565,139.806 550.006,142.15C552.045,141.459 554.076,141.048 556.04,140.286C556.762,141.696 556.956,143.781 556.581,145.456C553.809,146.549 550.65,146.951 548.895,144.967C547.242,147.155 547.832,150.089 546.874,152.986C547.339,152.566 547.868,152.247 548.352,151.841L545.568,151.841Z" style="fill-rule:nonzero;"/>
        <path d="M548.352,153.928C550.787,148.547 559.02,145.958 560.142,137.468C561.79,145.235 553,151.959 547.12,154.688C548.737,154.798 549.014,153.978 550.439,153.233L548.352,153.928Z" style="fill-rule:nonzero;"/>
        <path d="M552.527,140.706C553.306,140.232 553.825,139.617 555.208,140.115C557.444,144.633 552.98,149.583 548.614,147.613C554.476,151.041 555.217,143.585 554.463,139.367C553.084,140.113 554.535,140.213 554.615,140.706L552.527,140.706Z" style="fill-rule:nonzero;"/>
        <path d="M545.568,151.841C543.525,148.63 542.632,143.892 544.908,140.256C544.624,144.578 546.469,149.929 548.417,153.652C545.615,153.612 544.22,152.116 544.872,149.057L545.568,151.841Z" style="fill-rule:nonzero;"/>
        <path d="M554.651,151.63C554.429,150.361 554.711,148.994 554.72,147.754C555.532,147.889 556.436,148.14 557.312,148.278C557.134,147.451 557.212,147.126 557.172,147.124C557.33,147.508 557.596,147.661 557.972,147.582C557.722,147.216 556.985,145.982 557.297,146.276C559.941,146.5 562.493,146.214 564.846,145.58C562.25,145.787 560.554,145.051 558.824,143.662C559.887,143.206 561.028,142.445 562.021,142.064C561.336,142.198 559.408,142.363 559.542,142.338C560.832,141.578 562.118,140.609 563.449,139.947C562.586,140.315 561.82,140.686 560.936,141.142C563.032,139.786 565.594,138.132 567.641,136.451C565.441,137.86 563.034,139.502 560.271,139.209C560.338,138.383 560.251,136.588 560.353,136.029C560.466,142.427 557.521,148.992 551.31,151.906C552.445,152.013 552.935,151.535 553.919,151.145C553.919,148.378 553.842,149.733 554.651,151.63Z" style="fill-rule:nonzero;"/>
        <path d="M557.399,137.922C559.124,137.559 563.59,133.987 565.507,131.049C561.449,131.979 551.695,137.72 549.743,141.402L557.399,137.922Z" style="fill-rule:nonzero;"/>
        <path d="M533.737,162.28C525.427,155.455 516.353,165.483 518.133,174.127C516.866,175.071 515.8,176.878 514.636,177.653C516.969,177.372 519.171,176.332 520.953,174.702C520.942,174.661 520.586,175.872 520.615,176.093C521.012,176.373 521.408,176.372 521.802,176.091C520.668,173.711 521.513,170.432 522.547,168.107C526.932,171.631 531.834,168.238 529.805,162.926C531.667,163.648 532.73,163.076 534.346,164.312C533.582,162.236 532.861,160.847 531.718,159.587C531.927,160.464 532.451,160.08 533.041,160.888L533.737,162.28Z" style="fill-rule:nonzero;"/>
        <path d="M533.041,165.063C531.025,168.543 526.603,171.897 522.849,174.18C527.28,172.597 530.216,169.476 533.091,166.003C532.781,167.981 532.281,170.054 531.613,171.776C531.55,170.418 531.231,169.884 530.915,168.773C530.882,170.248 530.499,171.184 530.237,172.565C530.114,171.631 529.987,171.001 529.732,170.121C527.663,173.73 526.34,177.279 526.084,181.586C526.061,178.925 526.122,176.193 525.96,173.589C525.226,174.522 524.618,175.642 524.135,176.7C523.943,175.883 524.125,175.12 524.028,174.287C523.603,175.495 523.101,176.758 522.742,177.973C522.913,177.225 523.01,175.761 523.193,174.982C522.289,176.696 521.292,178.375 520.498,180.163C520.456,178.187 520.948,177.404 521.635,175.605C521.344,175.451 521.041,175.422 520.724,175.52C523.697,174.621 526.785,173.369 528.865,171.327L533.041,165.063Z" style="fill-rule:nonzero;"/>
        <path d="M518.427,172.719C516.242,173.446 513.823,174.318 511.523,175.206C513.393,174.13 515.624,172.464 516.965,170.855C516.025,171.687 515.182,172.497 514.34,173.136C515.466,172.215 516.474,171.038 517.52,170.022C516.396,170.218 514.719,170.239 513.611,170.474C515.073,170.108 517.179,168.711 518.896,167.988C517.503,168.343 515.638,168.595 514.359,169.136C515.612,167.856 521.458,164.297 523.906,163.065C523.793,164.028 517.964,173.489 518.427,172.719Z" style="fill-rule:nonzero;"/>
        <path d="M532.345,160.888C529.835,157.204 523.515,154.718 519.716,156.715C519.622,156.683 521.175,157.816 521.156,157.792C516.343,156.439 511.891,162.602 507.206,163.69C507.802,164.324 507.98,167.472 507.43,169.879C510.334,165.089 512.737,159.662 519.328,158.243C525.76,156.858 529.178,161.776 534.433,162.976L532.345,160.888Z" style="fill-rule:nonzero;"/>
        <path d="M521.21,169.239C522.473,169.465 525.743,171.317 527.962,170.783C524.394,171.536 520.629,170.472 522.602,166.455L521.21,169.239Z" style="fill-rule:nonzero;"/>
        <path d="M544.176,180.374C546.661,179.472 548.354,179.348 549.622,181.677C548.181,177.879 553.33,176.981 556.075,175.085C554.595,180.353 548.883,182.123 544.301,182.34C544.017,182 543.82,181.617 543.71,181.189C544.75,181.018 545.888,181.23 546.96,181.07L544.176,180.374Z" style="fill-rule:nonzero;"/>
        <path d="M556.703,185.245C557.061,179.402 569.03,178.58 573.471,177.17C570.207,183.347 555.071,193.076 548.454,196.118C547.347,188.818 553.346,186.491 558.791,183.854L556.703,185.245Z" style="fill-rule:nonzero;"/>
        <path d="M557.399,197.076C563.561,195.954 567.115,192.581 570.655,187.577C569.208,198.963 566.743,199.453 556.06,199.332C556.987,199.075 557.896,198.808 558.791,198.468L557.399,197.076Z" style="fill-rule:nonzero;"/>
        <path d="M497.549,150.449C498.673,157.847 504.582,167.283 510.423,172.023C511.74,173.091 513.781,173.685 514.909,174.809C516.805,176.699 516.716,177.922 518.237,179.83C521.146,183.478 524.564,187.105 528.342,189.945C535.459,195.295 545.537,197.742 554.094,201.097C563.455,204.767 573.165,210.478 581.772,202.489C587.664,197.02 590.821,188.499 592.175,180.879C593.22,175.002 592.369,164.681 595.711,159.731C596.746,172.969 593.644,189.991 585.235,200.522C577.407,210.326 569.866,208.186 559.486,204.469C550.731,201.333 539.489,199.528 531.613,195.159C522.961,190.361 519.552,180.023 513.232,173.671C509.715,170.137 504.888,169.09 502.249,164.229C499.028,158.296 499.69,151.94 497.549,150.449Z" style="fill-rule:nonzero;"/>
        <path d="M504.508,118.436C504.358,137.643 491.908,157.819 490.048,178.111C489.285,186.437 493.24,193.819 491.921,202.025C489.929,214.407 478.342,222.445 474.65,234.401C471.712,243.918 469.948,253.001 475.078,261.913C477.495,266.112 481.519,280.53 485.526,281.331C473.719,275.535 468.81,255.712 470.021,244.05C471.969,225.297 488.144,212.794 489.786,193.679C490.307,187.609 485.994,182.338 485.044,176.427C483.806,168.725 484.464,162.018 487.446,154.759C493.611,139.753 510.971,128.22 504.508,118.436Z" style="fill-rule:nonzero;"/>
        <path d="M589.411,144.881C594.527,147.462 602.85,164.709 609.567,170.979C618.251,179.083 628.475,190.33 640.562,192.986C647.184,194.441 653.389,192.89 658.184,188.117C652.855,206.023 624.152,184.576 617.327,179.678C610.833,175.016 604.924,170.389 599.68,164.177C593.492,156.848 593.867,144.891 589.411,144.881Z" style="fill-rule:nonzero;"/>
        <path d="M510.075,115.652C526.199,102.695 552.684,117.994 564.744,130.132C574.166,139.614 581.97,152.307 593.325,159.782C605.305,167.669 622.899,161.691 636.361,163.003C647.264,164.065 658.489,168.383 665.995,176.7C668.356,161.223 642.667,163.251 634.142,162.821C616.799,161.946 598.055,165.456 585.531,151.934C572.309,137.659 559.441,122.736 541.256,114.556C534.763,111.636 529.435,110.262 522.249,110.782C511.795,111.538 511.94,115.321 510.075,115.652Z" style="fill-rule:nonzero;"/>
        <path d="M503.812,91.295C511.774,75.636 540.516,73.726 555.31,75.965C586.506,80.689 599.296,109.542 611.684,135C617.967,147.912 625.789,154.855 638.646,160.225C615.638,163.087 597.229,88.745 559.485,83.26C541.305,80.619 517.899,82.629 503.812,91.295Z" style="fill-rule:nonzero;"/>
        <path d="M506.596,102.43C506.584,94.361 522.594,88.947 528.711,87.122C538.468,84.211 547.785,83.63 557.898,83.642C542.081,86.639 525.3,88.559 513.057,100.403C528.146,96.404 540.916,87.699 557.264,87.763C553.923,89.459 550.167,90.127 546.436,89.903C553.288,89.903 564.81,87.593 569.188,93.971C566.73,93.427 564.182,92.616 561.715,92.065C568.26,97.081 577.797,99.064 584.854,104.038C591.049,108.405 596.849,113.565 601.402,119.626C585.215,107.997 565.073,103.45 548.553,93.3C558.139,98.533 570.522,97.077 578.143,106.593C560.284,107.825 540.813,94.768 522.709,101.799C530.911,100.329 541.8,97.24 548.911,92.906C541.733,91.261 514.797,98.572 513.024,107.067C515.151,104.87 516.926,102.388 518.38,99.698C511.048,101.185 509.589,111.218 506.58,116.528C503.844,110.353 508.028,100.565 506.596,102.43Z" style="fill-rule:nonzero;"/>
        <path d="M527.474,103.821C526.721,99.019 552.704,100.421 557.406,101.716C570.005,105.185 575.776,114.136 583.303,124.02C587.106,129.013 591.482,133.592 595.334,138.552C598.43,142.54 600.585,147.878 604.537,151.162C611.714,157.124 623.797,156.555 632.349,160.924C624.923,162.939 613.832,157.898 607.06,154.558C593.204,147.724 588.488,140.05 581.51,127.206C576.778,118.494 567.005,107.945 558.388,102.745C541.975,92.841 525.643,98.36 511.467,108.693L527.474,103.821Z" style="fill-rule:nonzero;"/>
        <path d="M499.636,91.295C479.76,98.457 479.167,123.493 480.176,141.054C481.521,164.461 464.24,178.561 460.142,200.021C457.005,216.445 459.299,228.305 467.704,242.828C461.994,230.804 453.247,223.507 453.655,209.044C454.59,175.911 488.161,159.122 484.411,121.187C483.307,110.011 486.545,91.47 499.636,91.295Z" style="fill-rule:nonzero;"/>
        <path d="M498.94,101.038C499.162,106.636 500.873,112.043 500.191,117.762C499.125,126.701 494.847,134.566 491.981,142.951C485.69,161.357 480.2,180.08 473.855,198.504C465.228,223.554 449.502,272.652 478.54,289.917C486.304,294.533 492.32,299.575 495.959,308.04C498.273,313.424 497.123,319.755 498.838,324.356C492.175,311.019 485.557,295.5 475.119,284.206C466.955,275.373 463.408,272.549 462.719,259.556C461.893,243.996 463.136,226.193 468.789,211.569C485.92,167.251 479.952,161.973 485.65,135.891C487.62,126.87 490.785,117.291 493.378,108.484C496.119,99.174 499.819,94.779 498.94,101.038Z" style="fill-rule:nonzero;"/>
        <path d="M501.028,174.11C496.73,186.146 502.279,204.951 505.884,216.56C511.565,234.856 523.104,247.223 523.297,267.52C523.606,299.695 514.784,304.156 509.189,321.957C506.646,330.048 504.933,338.309 505.204,346.834C505.427,353.87 506.909,354.609 512.091,358.982C503.411,348.488 500.148,335.762 503.973,322.504C506.88,312.428 514.682,305.615 518.142,295.904C521.615,286.155 519.306,277.5 519.122,267.577C518.945,258.029 517.293,249.256 513.589,240.362C509.721,231.076 502.598,223.876 498.347,215.068C494.244,206.565 494.454,195.919 494.751,186.729C495.107,175.748 499.962,165.528 496.853,154.624L501.028,174.11Z" style="fill-rule:nonzero;"/>
        <path d="M583.148,203.34C588.847,207.512 595.911,226.728 585.292,229.628C590.723,229.993 594.951,221.678 593.968,217.258C592.545,210.86 580.479,205.289 582.452,199.164L583.148,203.34Z" style="fill-rule:nonzero;"/>
        <path d="M527.474,236.048C520.972,238.426 529.924,265.024 530.934,270.122C534.715,289.199 539.822,308.286 542.792,327.591C545.329,344.081 545.568,359.343 545.568,375.966C545.568,383.948 547.96,393.355 546.96,399.747C544.691,414.253 533.461,427.56 532.313,442.573C534.382,429.158 538.379,414.233 542.784,401.68C547.423,388.462 544.167,368.822 542.804,354.53C541.05,336.14 536.332,318.649 533.177,300.53C531.151,288.886 530.546,277.219 528.17,265.819C525.523,253.121 520.714,238.985 531.787,228.566C540.647,220.23 551.77,226.34 561.922,226.304C567.308,226.285 586.243,226.036 588.648,219.409C575.019,229.026 563.393,218.791 546.264,220.036C532.863,221.011 526.321,230.822 523.323,243.777C523.857,243.736 524.219,243.704 524.741,243.706C525.028,242.312 525.358,240.946 525.742,239.626L527.474,236.048Z" style="fill-rule:nonzero;"/>
        <path d="M588.716,216.562C589.007,217.625 588.954,218.566 588.648,219.409C590.273,218.263 591.925,216.852 593.62,215.087C593.516,214.382 593.042,214.178 588.716,216.562Z" style="fill-rule:nonzero;"/>
        <path d="M660.396,188.029C661.27,187.071 662.642,185.969 663.876,185.245L660.396,188.029Z" style="fill-rule:nonzero;"/>
        <path d="M565.054,268.757C568.24,271.41 569.171,283.1 569.229,288.398C569.321,296.703 567.329,302.677 565.714,310.513C561.388,331.501 577.987,341.448 586.473,358.326C588.841,363.037 593.03,373.767 590.646,379.098C588.274,384.402 583.773,382.696 578.387,382.995C578.531,387.165 584.032,386.592 586.031,389.885C585.474,390.202 584.648,390.967 583.897,391.382C584.674,392.253 585.204,394.534 585.928,395.345C584.567,394.918 582.823,395.379 581.307,394.774C584.15,407.98 572.662,417.371 562.229,422.907C543.353,432.924 527.281,442.941 516.395,462.002C504.12,483.492 501.485,507.027 501.047,531.471C500.806,544.942 499.93,557.915 501.552,571.383C502.496,579.219 501.776,590.435 504.405,597.311C496.832,548.427 494.803,485.514 528.571,445.377C540.995,430.611 559.247,425.529 572.914,412.74C578.445,407.565 580.968,404.72 580.359,396.844C580.005,392.256 576.465,388.226 577.57,383.711C584.97,382.082 583.482,382.654 585.518,378.338C587.01,375.173 585.685,370.751 584.302,367.237C579.743,355.656 571.822,344.935 566.448,333.517C560.818,321.554 564.4,313.015 566.459,300.822C568.267,290.119 567.681,277.498 567.036,266.673C563.745,266.284 562.679,268.01 562.261,271.215C561.789,274.827 564.57,275.81 565.775,278.752C569.803,288.587 568.507,299.379 567.838,309.817L565.054,268.757Z" style="fill-rule:nonzero;"/>
        <path d="M711.569,199.846C711.694,199.75 711.824,199.659 711.95,199.564C708.401,192.808 700.145,174.616 684.754,174.793C678.794,174.861 663.329,186.716 659.701,183.341C657.999,184.459 662.132,185.31 665.871,184.227C670.357,182.927 673.731,180.147 678.109,178.722C685.812,176.214 690.754,178.828 697.11,183.18C703.051,187.248 707.577,193.242 711.569,199.846Z" style="fill-rule:nonzero;"/>
        <path d="M767.57,336.262C763.738,326.361 759.547,316.165 755.995,306.024C756.605,310.533 756.942,315.083 758.177,319.503C761.363,330.903 769.149,339.324 768.771,351.644C773.318,346.305 769.652,341.642 767.57,336.262Z" style="fill-rule:nonzero;"/>
        <path d="M702.271,277.889C695.946,264.263 690.614,249.977 683.625,236.509C683.168,236.84 682.707,237.162 682.226,237.45C684.174,239.908 686.159,242.216 686.963,244.064C697.651,268.615 701.435,289.138 721.924,315.569C726.784,321.839 729.758,331.783 735.383,336.905C735.778,323.835 711.347,297.437 702.271,277.889Z" style="fill-rule:nonzero;"/>
        <path d="M733.698,337.849C728.657,345.052 727.249,358.472 724.623,367.395C721.194,379.044 718.158,390.848 713.464,402.097C708.34,414.373 703.935,426.631 698.365,438.756C694.034,448.184 691.186,464.871 683.453,471.812C676.895,477.697 668.026,473.397 660.414,473.28C665.19,475.328 675.597,477.416 680.578,475.449C689.114,472.078 691.521,455.311 695.083,447.971C716.153,404.563 719.666,383.553 726.743,358.24C728.263,352.805 729.284,343.137 733.698,337.849Z" style="fill-rule:nonzero;"/>
        <path d="M768.818,352.816C762.022,365.138 757.307,381.058 752.277,394.925C732.507,449.429 711.421,459.928 704.345,479.367C707.132,467.738 716.747,456.458 723.618,446.657C750.209,408.721 747.038,406.094 756.774,379.305C758.814,373.693 761.712,356.736 768.818,352.816Z" style="fill-rule:nonzero;"/>
        <path d="M701.913,482.876C695.592,494.549 686.429,499.642 675.145,506.573C669.885,509.804 666.726,511.122 666.336,517.682C666.017,523.048 668.118,528.009 665.874,533.381C664.714,527.033 662.047,516.961 666.503,510.826C670.546,505.261 679.67,502.497 685.906,498.431C692.852,493.903 696.61,488.382 701.913,482.876Z" style="fill-rule:nonzero;"/>
        <path d="M656.574,484.022C644.226,495.128 646.339,489.094 637.887,517.037C645.289,520.091 648.517,529.018 655.077,533.876C659.212,536.939 662.494,537.321 668.117,538.126C669.9,538.381 672.045,541.64 673.953,539.183C675.624,537.031 669.849,534.263 668.61,533.612C672.012,533.626 674.019,536.425 673.875,539.42C662.17,543.223 657.901,531.344 652.139,525.905C652.026,526.879 651.577,527.973 651.454,528.955C643.451,528.297 646.289,519.881 645.129,515.02C644.477,516.594 642.721,517.38 641.811,518.471C641.531,518.369 638.329,516.685 637.977,516.43C640.211,510.406 641.236,500.052 644.714,494.829C647.986,489.915 657.88,488.832 659.318,483.866C656.459,482.924 656.271,483.986 656.574,484.022Z" style="fill-rule:nonzero;"/>
        <path d="M655.664,512.15C655.664,518.636 657.1,525.269 656.917,531.123C653.047,528.131 654.292,514.334 654.272,510.743C654.272,511.431 654.272,512.118 654.272,512.806L655.664,512.15Z" style="fill-rule:nonzero;"/>
        <path d="M647.87,499.765C647.866,506.271 647.129,514.125 644.931,520.036C642.332,517.526 647.777,496.987 648.566,496.482L647.87,499.765Z" style="fill-rule:nonzero;"/>
        <path d="M611.681,227.001C613.798,230.841 619.207,226.248 619.353,224.134C618.676,227.753 613.919,232.24 611.791,227.805C613.247,227.602 613.038,228.548 614.465,229.089L611.681,227.001Z" style="fill-rule:nonzero;"/>
        <path d="M622.816,220.738C629.074,210.581 640.663,203.774 649.015,195.583C640.252,203.366 632.709,210.534 622.816,220.738Z" style="fill-rule:nonzero;"/>
        <path d="M644.057,525.22C640.5,526.094 636.97,527.167 633.22,526.961C637.95,527.062 642.528,528.169 647.287,528.36C647.295,528.321 647.305,528.282 647.313,528.243C645.751,527.473 644.828,526.533 644.057,525.22Z" style="fill-rule:nonzero;"/>
        <path d="M647.566,528.365C647.474,528.362 647.38,528.364 647.287,528.36C646.663,531.475 646.101,534.604 645.522,537.734C646.503,534.692 647.602,531.714 648.842,528.816C648.408,528.703 647.98,528.553 647.566,528.365Z" style="fill-rule:nonzero;"/>
        <path d="M660.396,449.703C660.396,461.197 659.448,472.065 657.753,482.799C658.13,482.673 658.505,482.575 658.876,482.511C661.337,469.531 663.157,444.331 660.687,432.261C660.8,438.273 660.396,444.474 660.396,449.703Z" style="fill-rule:nonzero;"/>
        <path d="M705.538,283.734C703.518,289.216 702.887,295.663 701.524,300.795C691.195,339.705 681.77,357.01 670.239,376.966C665.529,385.119 656.032,391.786 653.479,400.92C657.278,401.38 660.197,405.702 661.815,408.705C653.018,410.51 657.954,418.912 660.687,432.261C660.599,427.621 660.204,423.094 659.076,419.217C660.381,418.806 661.656,417.335 662.617,416.973C661.328,416.515 659.183,414.697 657.637,414.395C660.661,412.192 665.698,411.615 664.891,407.596C664.362,404.962 657.887,402.004 655.617,401.559C656.553,397.743 661.298,394.757 663.74,391.412C666.752,387.286 669.187,382.393 672.059,378.011C701.864,332.529 700.037,318.499 706.572,285.395C706.173,284.864 705.832,284.308 705.538,283.734Z" style="fill-rule:nonzero;"/>
        <path d="M707.024,192.901C711.941,208.166 717.894,222.958 723.571,238.155C730.863,257.673 741.672,275.112 749.666,294.365C753.799,304.318 756.943,316.677 761.895,325.777C752.45,301.153 739.889,276.868 728.44,253.292C716.23,228.148 709.762,186.642 698.673,181.07L707.024,192.901Z" style="fill-rule:nonzero;"/>
        <path d="M703.544,186.637C713.102,194.587 714.484,208.643 718.073,219.694C722.503,233.331 726.26,251.642 734.232,263.675C726.387,247.016 719.549,229.98 714.061,212.414C711.226,203.342 705.742,184.992 703.544,186.637Z" style="fill-rule:nonzero;"/>
        <path d="M627.9,635.352C627.726,635.131 627.561,634.9 627.413,634.658C613.12,623.999 591.773,635.119 574.842,635.193C555.789,635.277 536.414,637.431 519.862,629.626C506.039,629.622 504.742,629.624 503.445,629.631C519.909,630.234 537.866,638.649 554.692,641.07C572.413,643.62 585.486,636.636 603.33,635.513C615.773,634.73 622.986,640.26 628.878,637.742C628.425,637.011 628.085,636.207 627.9,635.352Z" style="fill-rule:nonzero;"/>
        <path d="M659.005,414.207C651.913,431.493 665.621,462.438 657.469,483.379C663.054,471.35 664.12,457.126 664.572,444.132C664.937,433.627 657.384,417.648 659.005,414.207Z" style="fill-rule:nonzero;"/>
        <path d="M654.829,533.907C656.869,551.849 647.586,573.873 643.014,590.973C638.576,607.576 635.067,625.397 625.461,640.516C639.039,623.848 644.476,600.486 649.091,579.838C651.301,569.948 653.307,537.721 654.829,533.907Z" style="fill-rule:nonzero;"/>
        <path d="M653.437,565.92C647.3,570.7 647.043,589.885 644.781,599.324C641.669,612.313 636.787,625.278 633.874,638.301C618.36,707.659 600.375,762.376 596.061,806.712C592.515,843.164 619.137,871.805 624.379,908.32C628.374,936.152 629.775,963.668 629.775,991.881C629.775,1013.66 630.315,1020.04 641.777,1036.33C649.702,1047.6 645.632,1057.96 649.922,1070.46C655.189,1085.8 667.755,1098.77 674.313,1113.51C679.951,1126.19 679.593,1132.41 672.07,1143.49C663.818,1155.65 652.561,1163.04 640.913,1156.75C624.121,1147.68 634.412,1140.38 634.053,1127.59C633.778,1117.82 624.911,1104.66 622.004,1095.42C616.936,1079.3 611.88,1062.95 610.599,1046.08C605.511,979.058 563.932,921.523 556.321,853.936C554.277,835.777 551.888,817.839 550.13,799.757C546.138,758.715 562.269,713.505 567.484,672.392C569.017,660.302 571.911,647.86 571.5,635.723C590.912,632.634 621.127,646.517 636.27,628.112C631.609,631.762 627.125,635.621 622.816,639.688L653.437,565.92Z" style="fill-rule:nonzero;"/>
        <path d="M633.951,1150.5C634.206,1154.48 645.665,1164.94 650.272,1168.98C659.138,1176.74 662.361,1177.61 672.23,1170.7C692.493,1156.51 697.664,1147.49 680.192,1129.77C678.391,1138.12 669.451,1158.01 661.144,1161.57C653.228,1164.96 635.447,1156.7 633.951,1150.5Z" style="fill-rule:nonzero;"/>
        <path d="M504.508,610.459C504.508,667.192 523.964,721.024 532.229,776.21C537.417,810.854 530.953,847.128 530.953,882.187C530.953,930.389 537.981,983.114 555.665,1028.33C560.467,1040.61 569.517,1052.75 569.229,1066.29C569.093,1072.72 566.559,1077.87 566.515,1083.74C566.518,1083.29 570.931,1089.58 571.212,1091.23C571.549,1093.2 570.068,1100.42 569.925,1103.18C569.29,1115.53 563.35,1143.28 571.595,1151.51C577.819,1157.72 606.708,1162.5 613.071,1158.15C627.868,1148.04 610.825,1130.45 606.468,1119.81C599.166,1101.97 600.703,1079.39 593.703,1060.14C590.367,1050.96 584.387,1042.46 582.439,1032.83C579.285,1017.25 580.676,998.403 579.701,982.406C579.029,971.397 580.386,958.079 578.309,947.22C576.248,936.447 569.935,926.339 567.456,915.282C555.017,859.786 544.672,808.363 551.517,751.077C554.955,722.299 553.806,692.541 558.216,663.996C559.072,658.457 565.689,642.299 560.939,636.841C558.143,633.628 553.153,636.804 549.661,635.576C542.709,633.132 536.166,630.94 529.224,627.444C519.905,622.75 509.083,620.234 504.441,608.913C504.69,605.856 504.631,613.152 504.508,610.459Z" style="fill-rule:nonzero;"/>
        <path d="M567.142,641.08C559.376,657.189 559.136,681.759 557.404,699.543C555.738,716.635 557.048,745.044 548.002,759.305C539.948,731.57 550.095,695.849 553.433,637.115C559.192,637.223 565.577,639.337 567.142,641.08Z" style="fill-rule:nonzero;"/>
        <path d="M569.925,639.688C561.685,650.29 562.589,678.358 560.187,692.579C557.169,710.447 555.032,729.111 549.357,745.517C548.047,731.856 547.893,632.925 571.107,639.899C571.456,641.288 571.047,642.494 569.925,639.688Z" style="fill-rule:nonzero;"/>
        <path d="M567.142,1154.68C581.543,1157.31 604.723,1172.48 618.43,1155.13C617.413,1159.91 620.007,1175.16 617.179,1179.08C612.962,1184.94 600.444,1182.83 593.587,1182.51C572.92,1181.56 571.009,1172.25 566.938,1153.19C568.41,1151.13 569.126,1152.45 567.142,1154.68Z" style="fill-rule:nonzero;"/>
        <path d="M661.215,540.304C665.199,563.155 650.914,618.764 637.887,642.237C625.444,644.437 611.197,627.779 593.365,627.966C575.396,628.155 553.513,638.817 536.503,627.927C561.497,625.075 586.582,622.207 606.966,607.485C596.117,607.958 585.921,613.812 575.823,609.19C598.869,603.234 603.036,604.918 613.013,586.549C608.293,586.88 601.765,584.992 597.184,585.918C612.778,580.578 620.866,570.338 625.361,554.305C626.861,548.951 625.287,530.959 629.751,528.053C632.312,526.385 658.996,538.094 663.069,538.152C662.163,543.639 659.857,550.04 661.215,540.304Z" style="fill-rule:nonzero;"/>
        <path d="M680.004,239.677C675.8,244.469 675.949,270.48 669.33,282.218C661.273,296.505 645.09,304.381 638.659,319.466C632.701,333.445 638.585,350.336 640.803,364.474C642.133,372.955 649.011,373.922 644.15,385.815C640.579,394.552 628.686,399.168 624.328,408.512C640.267,401.412 646.292,417.521 629.959,423.394C649.826,430.334 642.114,465.067 638.015,480.805C633.257,499.072 631.319,513.939 632.303,533.833C642.44,534 647.178,527.59 644.205,517.648C628.121,515.06 636.685,506.093 641.954,496.247C649.347,482.432 652.886,484.253 655.996,467.33C658.933,451.352 650.283,396.985 657.46,392.03C655.92,390.696 654.066,387.674 652.403,386.079C665.687,365.394 673.887,354.735 683.037,330.748C687.353,319.434 692.059,293.073 702.702,287.222C692.355,269.501 686.78,247.968 677.876,229.721C677.949,231.647 677.963,233.574 680.004,239.677Z" style="fill-rule:nonzero;"/>
        <path d="M565.182,227.151C566.261,245.972 570.263,278.293 582.348,293.842C597.345,313.138 615.42,309.565 612.834,339.727C602.388,330.672 582.872,319.834 575.518,307.729C567.011,293.728 575.388,270.664 559.335,260.769C558.214,276.813 551.983,304.979 555.159,319.057C559.367,337.707 576.162,354.124 579.539,374.905C565.236,384.321 578.038,395.424 573.688,407.156C568.685,420.654 542.502,438.556 529.75,444.517C540.624,409.627 550.718,384.99 548.658,348.216C547.161,321.484 536.475,301.625 530.204,276.271C527.014,263.379 517.649,236.86 530.579,227.574C539.904,220.877 566.747,228.031 565.182,227.151Z" style="fill-rule:nonzero;"/>
        <path d="M688.355,471.41C685.606,472.877 694.087,476.002 700.874,479.962C728.587,459.843 750.625,407.509 760.38,376.421C767.014,355.279 771.237,346.275 760.96,325.272C752.139,307.245 742.65,289.137 735.386,269.948C726.659,246.898 707.058,166.685 672.125,175.382C642.22,182.827 652.892,215.475 652.864,236.727C652.826,266.874 651.761,295.311 627.92,314.886C622.75,319.131 599.655,328.64 607.366,339.47C615.672,351.135 641.89,328.013 647.74,323.11C678.307,297.496 679.869,269.014 680.004,229.87C681.676,246.393 690.887,264.632 699.318,279.343C708.416,295.22 730.735,313.646 732.189,331.535C734.063,354.579 714.003,391.879 707.717,415.043C701.787,436.894 695.545,457.593 681.813,474.88C684.72,472.373 687.547,469.755 688.355,471.41Z" style="fill-rule:nonzero;"/>
        <path d="M698.794,279.343C696.582,302.33 693.607,318.999 680.279,333.259C682.763,333.263 685.623,333.704 688.14,333.931C678.264,355.624 665.721,386.46 644.945,402.302C644.643,380.753 661.334,350.808 670.03,331.078C680.156,308.107 691.266,288.34 704.689,267.359C705.302,269.959 705.112,272.384 698.794,279.343Z" style="fill-rule:nonzero;"/>
        <path d="M556.831,254.291C566.376,269.085 557.462,286.914 558.926,302.308C561.197,326.194 577.181,318.058 584.079,334.972C582.919,330.784 584.592,325.546 584.286,321.412C595.673,320.873 608.475,318.411 616.683,327.602C599.333,316.323 579.404,306.886 571.56,289.302C567.313,279.782 553.656,244.917 556.831,254.291Z" style="fill-rule:nonzero;"/>
        <path d="M540.129,435.92C507.866,460.111 517.051,476.639 535.215,504.962C527.883,504.59 520.38,504.706 513.156,505.23C515.57,506.613 519.918,511.182 522.904,512.8C518.642,512.352 513.375,513.87 509.089,513.528C510.566,514.714 514.333,521.448 517.469,523.603C517.411,524.557 513.322,529.264 512.684,529.918C513.02,530.107 518.405,533.765 518.677,534.142C515.646,533.753 511.704,534.942 508.973,534.405C513.851,554.118 537.617,567.352 552.058,581.716C537.845,579.158 511.338,572.359 503.391,559.26C502.02,572.154 517.174,607.529 506.671,617.333C490.583,590.584 499.74,535.767 503.595,505.833C505.381,491.959 508.718,473.736 515.486,461.436C525.804,442.684 546.978,433.903 540.129,435.92Z" style="fill-rule:nonzero;"/>
        <path d="M487.937,208.362C477.283,242.349 494.62,266.915 508.814,295.179C516.841,311.163 516.698,382.916 525.207,383.405C526.967,370.35 521.366,358.07 521.34,344.533C521.312,329.566 526.759,314.181 521.439,299.354C515.709,283.387 494.512,270.155 492.001,253.106C487.545,222.85 510.809,208.641 487.937,208.362Z" style="fill-rule:nonzero;"/>
    </g>
</svg>
