<?xml version="1.0" encoding="UTF-8" standalone="no"?>
<!DOCTYPE svg PUBLIC "-//W3C//DTD SVG 1.1//EN" "http://www.w3.org/Graphics/SVG/1.1/DTD/svg11.dtd">
<svg width="100%" height="100%" viewBox="0 0 1040 1430" version="1.1" xmlns="http://www.w3.org/2000/svg" xmlns:xlink="http://www.w3.org/1999/xlink" xml:space="preserve" xmlns:serif="http://www.serif.com/" style="fill-rule:evenodd;clip-rule:evenodd;stroke-linejoin:round;stroke-miterlimit:1.41421;">
    <g transform="matrix(1,0,0,1,-9518.1,-9848.9)">
        <g transform="matrix(4.16667,0,0,4.16667,2443.47,151.804)">
            <path d="M1947.36,2650.8C1947.36,2661.52 1938.59,2670.29 1927.87,2670.29L1717.39,2670.29C1706.67,2670.29 1697.91,2661.52 1697.91,2650.8L1697.91,2346.78C1697.91,2336.07 1706.67,2327.3 1717.39,2327.3L1927.87,2327.3C1938.59,2327.3 1947.36,2336.07 1947.36,2346.78L1947.36,2650.8Z" style="fill:white;fill-rule:nonzero;"/>
        </g>
        <g transform="matrix(4.16667,0,0,4.16667,2443.47,151.804)">
            <path d="M1713.03,2371.85L1717.04,2371.85C1717.04,2375.98 1717.76,2378.04 1719.19,2378.04C1720.06,2378.04 1720.66,2377.46 1721.02,2376.29C1721.36,2375.13 1721.54,2373.25 1721.54,2370.64L1721.54,2365.83C1720.48,2366.92 1719.21,2367.47 1717.75,2367.47C1716.03,2367.47 1714.71,2366.66 1713.79,2365.04C1712.87,2363.42 1712.41,2361.02 1712.41,2357.84C1712.41,2355.66 1712.67,2353.67 1713.2,2351.86C1713.72,2350.05 1714.49,2348.66 1715.5,2347.69C1716.51,2346.72 1717.76,2346.24 1719.24,2346.24C1721.65,2346.24 1723.42,2347.35 1724.52,2349.55C1725.62,2351.76 1726.17,2356.35 1726.17,2363.32C1726.17,2368.74 1725.94,2372.59 1725.48,2374.89C1725.01,2377.19 1724.21,2378.91 1723.08,2380.06C1721.95,2381.21 1720.59,2381.78 1719.01,2381.78C1717.24,2381.78 1715.8,2380.99 1714.69,2379.41C1713.58,2377.83 1713.03,2375.31 1713.03,2371.85ZM1721.54,2363.07L1721.54,2355.51C1721.54,2353.56 1721.36,2352.16 1721.02,2351.29C1720.66,2350.42 1720.09,2349.99 1719.3,2349.99C1718.45,2349.99 1717.86,2350.53 1717.54,2351.61C1717.21,2352.69 1717.04,2354.75 1717.04,2357.79C1717.04,2360.18 1717.22,2361.84 1717.57,2362.76C1717.92,2363.68 1718.54,2364.14 1719.44,2364.14C1720.19,2364.14 1720.89,2363.78 1721.54,2363.07Z" style="fill:rgb(54,54,57);fill-rule:nonzero;"/>
        </g>
        <g transform="matrix(4.16667,0,0,4.16667,2443.47,151.804)">
            <path d="M1727.32,2393.47C1725.63,2392.5 1723.6,2392.71 1722.15,2393.84C1722.08,2393.66 1721.97,2393.49 1721.86,2393.34C1723.56,2392.66 1724.76,2391 1724.76,2389.05C1724.76,2386.49 1722.69,2384.42 1720.14,2384.42C1717.58,2384.42 1715.51,2386.49 1715.51,2389.05C1715.51,2391 1716.71,2392.66 1718.42,2393.34C1718.3,2393.49 1718.2,2393.66 1718.12,2393.84C1716.68,2392.71 1714.64,2392.5 1712.96,2393.47C1710.74,2394.75 1709.99,2397.58 1711.26,2399.79C1712.54,2402.01 1715.37,2402.76 1717.58,2401.49C1718.63,2400.88 1719.34,2399.94 1719.68,2398.87C1719.63,2399.37 1719.59,2399.92 1719.56,2400.51C1719.29,2404.39 1716.34,2405.99 1716.34,2405.99L1723.93,2405.99C1723.93,2405.99 1720.99,2404.39 1720.72,2400.51C1720.68,2399.91 1720.64,2399.37 1720.6,2398.87C1720.93,2399.94 1721.65,2400.88 1722.69,2401.49C1724.9,2402.76 1727.74,2402.01 1729.01,2399.79C1730.29,2397.58 1729.53,2394.75 1727.32,2393.47Z" style="fill:rgb(54,54,57);fill-rule:nonzero;"/>
        </g>
        <g transform="matrix(4.16667,0,0,4.16667,2443.47,151.804)">
            <path d="M1932.24,2625.73L1928.22,2625.73C1928.22,2621.61 1927.51,2619.54 1926.08,2619.54C1925.21,2619.54 1924.6,2620.12 1924.25,2621.29C1923.9,2622.45 1923.73,2624.34 1923.73,2626.94L1923.73,2631.76C1924.79,2630.66 1926.05,2630.11 1927.51,2630.11C1929.23,2630.11 1930.55,2630.92 1931.47,2632.54C1932.39,2634.16 1932.86,2636.56 1932.86,2639.75C1932.86,2641.92 1932.59,2643.91 1932.07,2645.73C1931.54,2647.54 1930.77,2648.92 1929.76,2649.89C1928.75,2650.86 1927.51,2651.34 1926.03,2651.34C1923.61,2651.34 1921.85,2650.24 1920.75,2648.03C1919.64,2645.83 1919.09,2641.24 1919.09,2634.27C1919.09,2628.85 1919.32,2624.99 1919.79,2622.69C1920.25,2620.4 1921.05,2618.67 1922.18,2617.52C1923.32,2616.37 1924.67,2615.8 1926.26,2615.8C1928.02,2615.8 1929.46,2616.59 1930.57,2618.17C1931.68,2619.76 1932.24,2622.28 1932.24,2625.73ZM1923.73,2634.52L1923.73,2642.07C1923.73,2644.02 1923.9,2645.43 1924.25,2646.3C1924.6,2647.16 1925.17,2647.6 1925.96,2647.6C1926.82,2647.6 1927.4,2647.06 1927.73,2645.98C1928.06,2644.9 1928.22,2642.83 1928.22,2639.79C1928.22,2637.4 1928.05,2635.75 1927.7,2634.83C1927.35,2633.91 1926.72,2633.45 1925.83,2633.45C1925.08,2633.45 1924.38,2633.8 1923.73,2634.52Z" style="fill:rgb(54,54,57);fill-rule:nonzero;"/>
        </g>
        <g transform="matrix(4.16667,0,0,4.16667,2443.47,151.804)">
            <path d="M1917.95,2604.11C1919.63,2605.09 1921.67,2604.88 1923.11,2603.75C1923.19,2603.93 1923.29,2604.09 1923.41,2604.24C1921.71,2604.92 1920.5,2606.59 1920.5,2608.54C1920.5,2611.09 1922.57,2613.16 1925.13,2613.16C1927.68,2613.16 1929.76,2611.09 1929.76,2608.54C1929.76,2606.59 1928.56,2604.92 1926.85,2604.24C1926.97,2604.09 1927.07,2603.93 1927.14,2603.75C1928.59,2604.88 1930.63,2605.08 1932.31,2604.11C1934.52,2602.84 1935.28,2600 1934,2597.79C1932.73,2595.58 1929.89,2594.82 1927.68,2596.1C1926.64,2596.7 1925.92,2597.64 1925.59,2598.71C1925.63,2598.21 1925.67,2597.67 1925.71,2597.08C1925.98,2593.19 1928.92,2591.59 1928.92,2591.59L1921.34,2591.59C1921.34,2591.59 1924.28,2593.19 1924.55,2597.08C1924.59,2597.67 1924.63,2598.21 1924.67,2598.71C1924.34,2597.65 1923.62,2596.7 1922.58,2596.1C1920.36,2594.82 1917.53,2595.58 1916.25,2597.79C1914.98,2600 1915.74,2602.84 1917.95,2604.11Z" style="fill:rgb(54,54,57);fill-rule:nonzero;"/>
        </g>
        <g transform="matrix(4.16667,0,0,4.16667,2443.47,151.804)">
            <path d="M1788.88,2383.85C1784.42,2381.27 1779.02,2381.83 1775.2,2384.82C1775,2384.34 1774.73,2383.91 1774.42,2383.51C1778.93,2381.7 1782.12,2377.29 1782.12,2372.13C1782.12,2365.36 1776.63,2359.87 1769.85,2359.87C1763.08,2359.87 1757.59,2365.36 1757.59,2372.13C1757.59,2377.29 1760.78,2381.7 1765.29,2383.51C1764.98,2383.91 1764.71,2384.34 1764.51,2384.82C1760.69,2381.83 1755.29,2381.27 1750.83,2383.85C1744.96,2387.24 1742.95,2394.74 1746.34,2400.6C1749.72,2406.47 1757.23,2408.48 1763.09,2405.09C1765.85,2403.5 1767.75,2400.99 1768.64,2398.17C1768.53,2399.5 1768.41,2400.93 1768.31,2402.5C1767.6,2412.79 1759.8,2417.03 1759.8,2417.03L1779.91,2417.03C1779.91,2417.03 1772.11,2412.79 1771.4,2402.5C1771.29,2400.93 1771.18,2399.5 1771.07,2398.16C1771.96,2400.98 1773.86,2403.49 1776.62,2405.09C1782.49,2408.48 1789.99,2406.47 1793.37,2400.6C1796.76,2394.74 1794.75,2387.24 1788.88,2383.85Z" style="fill:rgb(54,54,57);fill-rule:nonzero;"/>
        </g>
        <g transform="matrix(4.16667,0,0,4.16667,2443.47,151.804)">
            <path d="M1750.82,2540.17C1755.29,2542.75 1760.69,2542.19 1764.51,2539.2C1764.71,2539.68 1764.98,2540.11 1765.29,2540.51C1760.78,2542.32 1757.59,2546.73 1757.59,2551.89C1757.59,2558.66 1763.08,2564.15 1769.85,2564.15C1776.63,2564.15 1782.12,2558.66 1782.12,2551.89C1782.12,2546.73 1778.93,2542.32 1774.42,2540.51C1774.73,2540.11 1775,2539.68 1775.2,2539.2C1779.02,2542.19 1784.42,2542.75 1788.88,2540.17C1794.75,2536.78 1796.76,2529.28 1793.37,2523.42C1789.99,2517.55 1782.49,2515.54 1776.62,2518.93C1773.86,2520.52 1771.96,2523.03 1771.07,2525.85C1771.18,2524.52 1771.29,2523.09 1771.4,2521.52C1772.11,2511.23 1779.91,2506.99 1779.91,2506.99L1759.8,2506.99C1759.8,2506.99 1767.6,2511.23 1768.31,2521.52C1768.41,2523.09 1768.53,2524.53 1768.64,2525.86C1767.75,2523.04 1765.85,2520.53 1763.09,2518.93C1757.23,2515.54 1749.72,2517.55 1746.34,2523.42C1742.95,2529.28 1744.96,2536.78 1750.82,2540.17Z" style="fill:rgb(54,54,57);fill-rule:nonzero;"/>
        </g>
        <g transform="matrix(4.16667,0,0,4.16667,2443.47,151.804)">
            <path d="M1750.82,2613.74C1755.29,2616.31 1760.69,2615.76 1764.51,2612.76C1764.71,2613.24 1764.98,2613.67 1765.29,2614.08C1760.78,2615.89 1757.59,2620.29 1757.59,2625.45C1757.59,2632.23 1763.08,2637.72 1769.85,2637.72C1776.63,2637.72 1782.12,2632.23 1782.12,2625.45C1782.12,2620.29 1778.93,2615.89 1774.42,2614.08C1774.73,2613.67 1775,2613.24 1775.2,2612.77C1779.02,2615.76 1784.42,2616.31 1788.88,2613.74C1794.75,2610.35 1796.76,2602.85 1793.37,2596.98C1789.99,2591.12 1782.49,2589.11 1776.62,2592.49C1773.86,2594.09 1771.96,2596.6 1771.07,2599.42C1771.18,2598.09 1771.29,2596.65 1771.4,2595.08C1772.11,2584.79 1779.91,2580.55 1779.91,2580.55L1759.8,2580.55C1759.8,2580.55 1767.6,2584.79 1768.31,2595.08C1768.41,2596.66 1768.53,2598.09 1768.64,2599.42C1767.75,2596.6 1765.85,2594.09 1763.09,2592.49C1757.23,2589.11 1749.72,2591.12 1746.34,2596.98C1742.95,2602.85 1744.96,2610.35 1750.82,2613.74Z" style="fill:rgb(54,54,57);fill-rule:nonzero;"/>
        </g>
        <g transform="matrix(4.16667,0,0,4.16667,2443.47,151.804)">
            <path d="M1788.88,2457.41C1784.42,2454.83 1779.02,2455.39 1775.2,2458.38C1775,2457.9 1774.73,2457.47 1774.42,2457.07C1778.93,2455.26 1782.12,2450.85 1782.12,2445.69C1782.12,2438.92 1776.63,2433.43 1769.85,2433.43C1763.08,2433.43 1757.59,2438.92 1757.59,2445.69C1757.59,2450.85 1760.78,2455.26 1765.29,2457.07C1764.98,2457.47 1764.71,2457.9 1764.51,2458.38C1760.69,2455.39 1755.29,2454.84 1750.83,2457.41C1744.96,2460.8 1742.95,2468.3 1746.34,2474.16C1749.72,2480.03 1757.23,2482.04 1763.09,2478.65C1765.85,2477.06 1767.75,2474.55 1768.64,2471.73C1768.53,2473.06 1768.41,2474.49 1768.31,2476.06C1767.6,2486.35 1759.8,2490.59 1759.8,2490.59L1779.91,2490.59C1779.91,2490.59 1772.11,2486.35 1771.4,2476.06C1771.29,2474.49 1771.18,2473.06 1771.07,2471.73C1771.96,2474.55 1773.86,2477.06 1776.62,2478.65C1782.49,2482.04 1789.99,2480.03 1793.37,2474.16C1796.76,2468.3 1794.75,2460.8 1788.88,2457.41Z" style="fill:rgb(54,54,57);fill-rule:nonzero;"/>
        </g>
        <g transform="matrix(4.16667,0,0,4.16667,2443.47,151.804)">
            <path d="M1894.44,2383.85C1889.98,2381.27 1884.58,2381.83 1880.75,2384.82C1880.56,2384.34 1880.28,2383.91 1879.98,2383.51C1884.49,2381.7 1887.67,2377.29 1887.67,2372.13C1887.67,2365.36 1882.19,2359.87 1875.41,2359.87C1868.64,2359.87 1863.15,2365.36 1863.15,2372.13C1863.15,2377.29 1866.34,2381.7 1870.85,2383.51C1870.54,2383.91 1870.27,2384.34 1870.07,2384.82C1866.25,2381.83 1860.84,2381.27 1856.38,2383.85C1850.52,2387.24 1848.51,2394.74 1851.89,2400.6C1855.28,2406.47 1862.78,2408.48 1868.65,2405.09C1871.41,2403.5 1873.31,2400.99 1874.2,2398.17C1874.09,2399.5 1873.97,2400.93 1873.87,2402.5C1873.15,2412.79 1865.36,2417.03 1865.36,2417.03L1885.47,2417.03C1885.47,2417.03 1877.67,2412.79 1876.96,2402.5C1876.85,2400.93 1876.74,2399.5 1876.63,2398.16C1877.52,2400.98 1879.41,2403.49 1882.18,2405.09C1888.04,2408.48 1895.55,2406.47 1898.93,2400.6C1902.32,2394.74 1900.31,2387.24 1894.44,2383.85Z" style="fill:rgb(54,54,57);fill-rule:nonzero;"/>
        </g>
        <g transform="matrix(4.16667,0,0,4.16667,2443.47,151.804)">
            <path d="M1856.38,2540.17C1860.84,2542.75 1866.25,2542.19 1870.07,2539.2C1870.27,2539.68 1870.54,2540.11 1870.85,2540.51C1866.34,2542.32 1863.15,2546.73 1863.15,2551.89C1863.15,2558.66 1868.64,2564.15 1875.41,2564.15C1882.19,2564.15 1887.67,2558.66 1887.67,2551.89C1887.67,2546.73 1884.49,2542.32 1879.98,2540.51C1880.28,2540.11 1880.56,2539.68 1880.75,2539.2C1884.58,2542.19 1889.98,2542.75 1894.44,2540.17C1900.31,2536.78 1902.32,2529.28 1898.93,2523.42C1895.54,2517.55 1888.04,2515.54 1882.18,2518.93C1879.41,2520.52 1877.52,2523.03 1876.63,2525.85C1876.74,2524.52 1876.85,2523.09 1876.96,2521.52C1877.67,2511.23 1885.47,2506.99 1885.47,2506.99L1865.36,2506.99C1865.36,2506.99 1873.15,2511.23 1873.87,2521.52C1873.97,2523.09 1874.09,2524.53 1874.2,2525.86C1873.31,2523.04 1871.41,2520.53 1868.65,2518.93C1862.78,2515.54 1855.28,2517.55 1851.89,2523.42C1848.51,2529.28 1850.51,2536.78 1856.38,2540.17Z" style="fill:rgb(54,54,57);fill-rule:nonzero;"/>
        </g>
        <g transform="matrix(4.16667,0,0,4.16667,2443.47,151.804)">
            <path d="M1856.38,2613.74C1860.84,2616.31 1866.25,2615.76 1870.07,2612.76C1870.27,2613.24 1870.54,2613.67 1870.85,2614.08C1866.34,2615.89 1863.15,2620.29 1863.15,2625.45C1863.15,2632.23 1868.64,2637.72 1875.41,2637.72C1882.19,2637.72 1887.67,2632.23 1887.67,2625.45C1887.67,2620.29 1884.49,2615.89 1879.98,2614.08C1880.28,2613.67 1880.56,2613.24 1880.75,2612.77C1884.58,2615.76 1889.98,2616.31 1894.44,2613.74C1900.31,2610.35 1902.32,2602.85 1898.93,2596.98C1895.54,2591.12 1888.04,2589.11 1882.18,2592.49C1879.41,2594.09 1877.52,2596.6 1876.63,2599.42C1876.74,2598.09 1876.85,2596.65 1876.96,2595.08C1877.67,2584.79 1885.47,2580.55 1885.47,2580.55L1865.36,2580.55C1865.36,2580.55 1873.15,2584.79 1873.87,2595.08C1873.97,2596.66 1874.09,2598.09 1874.2,2599.42C1873.31,2596.6 1871.41,2594.09 1868.65,2592.49C1862.78,2589.11 1855.28,2591.12 1851.89,2596.98C1848.51,2602.85 1850.51,2610.35 1856.38,2613.74Z" style="fill:rgb(54,54,57);fill-rule:nonzero;"/>
        </g>
        <g transform="matrix(4.16667,0,0,4.16667,2443.47,151.804)">
            <path d="M1894.44,2457.41C1889.98,2454.83 1884.58,2455.39 1880.75,2458.38C1880.56,2457.9 1880.28,2457.47 1879.98,2457.07C1884.49,2455.26 1887.67,2450.85 1887.67,2445.69C1887.67,2438.92 1882.19,2433.43 1875.41,2433.43C1868.64,2433.43 1863.15,2438.92 1863.15,2445.69C1863.15,2450.85 1866.34,2455.26 1870.85,2457.07C1870.54,2457.47 1870.27,2457.9 1870.07,2458.38C1866.25,2455.39 1860.84,2454.84 1856.38,2457.41C1850.52,2460.8 1848.51,2468.3 1851.89,2474.16C1855.28,2480.03 1862.78,2482.04 1868.65,2478.65C1871.41,2477.06 1873.31,2474.55 1874.2,2471.73C1874.09,2473.06 1873.97,2474.49 1873.87,2476.06C1873.15,2486.35 1865.36,2490.59 1865.36,2490.59L1885.47,2490.59C1885.47,2490.59 1877.67,2486.35 1876.96,2476.06C1876.85,2474.49 1876.74,2473.06 1876.63,2471.73C1877.52,2474.55 1879.41,2477.06 1882.18,2478.65C1888.04,2482.04 1895.55,2480.03 1898.93,2474.16C1902.32,2468.3 1900.31,2460.8 1894.44,2457.41Z" style="fill:rgb(54,54,57);fill-rule:nonzero;"/>
        </g>
        <g transform="matrix(4.16667,0,0,4.16667,2443.47,151.804)">
            <path d="M1841.13,2494.19C1836.67,2491.62 1831.27,2492.17 1827.45,2495.16C1827.25,2494.68 1826.98,2494.25 1826.67,2493.85C1831.18,2492.04 1834.37,2487.63 1834.37,2482.47C1834.37,2475.7 1828.88,2470.21 1822.1,2470.21C1815.33,2470.21 1809.84,2475.7 1809.84,2482.47C1809.84,2487.63 1813.03,2492.04 1817.54,2493.85C1817.23,2494.25 1816.96,2494.68 1816.76,2495.16C1812.94,2492.17 1807.54,2491.62 1803.08,2494.19C1797.21,2497.58 1795.2,2505.08 1798.59,2510.95C1801.97,2516.81 1809.48,2518.82 1815.34,2515.43C1818.1,2513.84 1820,2511.33 1820.89,2508.51C1820.78,2509.84 1820.66,2511.28 1820.56,2512.84C1819.85,2523.13 1812.05,2527.37 1812.05,2527.37L1832.16,2527.37C1832.16,2527.37 1824.36,2523.13 1823.65,2512.84C1823.54,2511.27 1823.43,2509.84 1823.32,2508.51C1824.21,2511.33 1826.11,2513.84 1828.87,2515.43C1834.74,2518.82 1842.24,2516.81 1845.62,2510.94C1849.01,2505.08 1847,2497.58 1841.13,2494.19Z" style="fill:rgb(54,54,57);fill-rule:nonzero;"/>
        </g>
    </g>
</svg>
