<?xml version="1.0" encoding="UTF-8" standalone="no"?>
<!DOCTYPE svg PUBLIC "-//W3C//DTD SVG 1.1//EN" "http://www.w3.org/Graphics/SVG/1.1/DTD/svg11.dtd">
<svg width="100%" height="100%" viewBox="0 0 250 343" version="1.1" xmlns="http://www.w3.org/2000/svg" xmlns:xlink="http://www.w3.org/1999/xlink" xml:space="preserve" xmlns:serif="http://www.serif.com/" style="fill-rule:evenodd;clip-rule:evenodd;stroke-linejoin:round;stroke-miterlimit:1.41421;">
    <g transform="matrix(1,0,0,1,-8297.74,-7666.2)">
        <g transform="matrix(1,0,0,1,8547.2,7685.69)">
            <path d="M0,304.012C0,314.731 -8.771,323.502 -19.49,323.502L-229.961,323.502C-240.682,323.502 -249.451,314.731 -249.451,304.012L-249.451,-0.002C-249.451,-10.72 -240.682,-19.49 -229.961,-19.49L-19.49,-19.49C-8.771,-19.49 0,-10.72 0,-0.002L0,304.012Z" style="fill:white;fill-rule:nonzero;"/>
        </g>
        <g transform="matrix(1,0,0,1,8319.89,7744.88)">
            <path d="M0,-21.513C-0.074,-21.57 -12.305,-11.736 -8.854,-6.07C-6.734,-2.585 -3.439,-3.882 -1.477,-5.134C-1.258,-5.232 -0.781,-5.351 -0.627,-4.562C-0.201,-2.325 -3.018,0.057 -3.018,0.057L3.082,0.057C3.082,0.057 0.268,-2.325 0.693,-4.562C0.865,-5.456 1.461,-5.185 1.617,-5.097C3.592,-3.868 6.838,-2.656 8.92,-6.103C12.344,-11.792 0.076,-21.568 0,-21.513" style="fill-rule:nonzero;"/>
        </g>
        <g transform="matrix(1,0,0,1,8314.78,7685.72)">
            <path d="M0,34.402L0,30.429L1.918,30.429C1.918,18.802 3.615,10.06 7.01,4.201L1.029,4.201L1.029,9.064L-2.943,9.064L-2.943,0L11.072,0L11.072,3.084C9.672,5.32 8.621,8.062 7.924,11.312C7.223,14.56 6.785,17.675 6.609,20.66C6.436,23.642 6.338,26.898 6.324,30.429L8.379,30.429L8.379,34.402L0,34.402Z" style="fill-rule:nonzero;"/>
        </g>
        <g transform="matrix(1,0,0,1,8525.04,7930.52)">
            <path d="M0,21.513C0.074,21.57 12.305,11.736 8.854,6.068C6.734,2.585 3.439,3.882 1.477,5.134C1.26,5.23 0.781,5.351 0.629,4.562C0.201,2.325 3.018,-0.057 3.018,-0.057L-3.08,-0.057C-3.08,-0.057 -0.266,2.325 -0.693,4.562C-0.865,5.456 -1.461,5.185 -1.617,5.097C-3.59,3.868 -6.838,2.656 -8.918,6.103C-12.344,11.79 -0.076,21.566 0,21.513" style="fill-rule:nonzero;"/>
        </g>
        <g transform="matrix(1,0,0,1,8530.15,7989.68)">
            <path d="M0,-34.402L0,-30.429L-1.916,-30.429C-1.916,-18.802 -3.613,-10.06 -7.008,-4.199L-1.027,-4.199L-1.027,-9.064L2.945,-9.064L2.945,0L-11.07,0L-11.07,-3.082C-9.67,-5.32 -8.619,-8.062 -7.92,-11.31C-7.221,-14.56 -6.783,-17.675 -6.609,-20.66C-6.434,-23.642 -6.338,-26.898 -6.322,-30.429L-8.377,-30.429L-8.377,-34.402L0,-34.402Z" style="fill-rule:nonzero;"/>
        </g>
        <g transform="matrix(1,0,0,1,8369.18,7755.66)">
            <path d="M0,-57.008C-0.201,-57.158 -32.611,-31.098 -23.467,-16.078C-17.852,-6.852 -9.117,-10.289 -3.916,-13.606C-3.338,-13.862 -2.074,-14.178 -1.662,-12.09C-0.535,-6.158 -7.998,0.15 -7.998,0.15L8.16,0.15C8.16,0.15 0.705,-6.158 1.834,-12.09C2.291,-14.461 3.869,-13.738 4.283,-13.506C9.518,-10.25 18.121,-7.031 23.635,-16.174C32.709,-31.248 0.197,-57.154 0,-57.008" style="fill-rule:nonzero;"/>
        </g>
        <g transform="matrix(1,0,0,1,8475.62,7755.66)">
            <path d="M0,-57.008C-0.199,-57.158 -32.607,-31.098 -23.461,-16.078C-17.848,-6.852 -9.115,-10.289 -3.914,-13.606C-3.336,-13.862 -2.068,-14.178 -1.66,-12.09C-0.531,-6.158 -7.996,0.15 -7.996,0.15L8.166,0.15C8.166,0.15 0.711,-6.158 1.836,-12.09C2.293,-14.461 3.873,-13.738 4.285,-13.506C9.52,-10.25 18.127,-7.031 23.639,-16.174C32.713,-31.248 0.201,-57.154 0,-57.008" style="fill-rule:nonzero;"/>
        </g>
        <g transform="matrix(1,0,0,1,8369.18,7866.13)">
            <path d="M0,-57.01C-0.201,-57.16 -32.611,-31.1 -23.467,-16.082C-17.852,-6.856 -9.117,-10.291 -3.916,-13.608C-3.338,-13.864 -2.074,-14.18 -1.662,-12.09C-0.535,-6.16 -7.998,0.15 -7.998,0.15L8.16,0.15C8.16,0.15 0.705,-6.16 1.834,-12.09C2.291,-14.461 3.869,-13.74 4.283,-13.508C9.518,-10.252 18.121,-7.033 23.635,-16.176C32.709,-31.25 0.197,-57.155 0,-57.01" style="fill-rule:nonzero;"/>
        </g>
        <g transform="matrix(1,0,0,1,8475.62,7866.13)">
            <path d="M0,-57.01C-0.199,-57.16 -32.607,-31.1 -23.461,-16.082C-17.848,-6.856 -9.115,-10.291 -3.914,-13.606C-3.336,-13.864 -2.068,-14.18 -1.66,-12.09C-0.531,-6.16 -7.996,0.15 -7.996,0.15L8.166,0.15C8.166,0.15 0.711,-6.16 1.836,-12.09C2.293,-14.461 3.873,-13.74 4.285,-13.506C9.52,-10.252 18.127,-7.033 23.639,-16.176C32.713,-31.25 0.201,-57.155 0,-57.01" style="fill-rule:nonzero;"/>
        </g>
        <g transform="matrix(1,0,0,1,8475.76,7919.74)">
            <path d="M0,57.012C0.199,57.16 32.611,31.1 23.465,16.08C17.85,6.856 9.119,10.293 3.916,13.608C3.34,13.864 2.072,14.182 1.664,12.092C0.535,6.158 7.996,-0.148 7.996,-0.148L-8.164,-0.148C-8.164,-0.148 -0.709,6.158 -1.836,12.092C-2.293,14.463 -3.871,13.742 -4.285,13.508C-9.52,10.252 -18.121,7.033 -23.635,16.176C-32.709,31.25 -0.197,57.155 0,57.012" style="fill-rule:nonzero;"/>
        </g>
        <g transform="matrix(1,0,0,1,8369.32,7919.74)">
            <path d="M0,57.012C0.201,57.16 32.611,31.1 23.463,16.08C17.848,6.856 9.117,10.293 3.912,13.608C3.338,13.864 2.07,14.182 1.662,12.092C0.535,6.158 7.998,-0.148 7.998,-0.148L-8.164,-0.148C-8.164,-0.148 -0.709,6.158 -1.834,12.092C-2.291,14.463 -3.869,13.742 -4.287,13.508C-9.52,10.252 -18.125,7.033 -23.635,16.176C-32.711,31.25 -0.199,57.155 0,57.012" style="fill-rule:nonzero;"/>
        </g>
        <g transform="matrix(1,0,0,1,8422.39,7810.9)">
            <path d="M0,-57.014C-0.195,-57.16 -32.607,-31.104 -23.463,-16.082C-17.848,-6.858 -9.117,-10.293 -3.912,-13.61C-3.338,-13.868 -2.07,-14.182 -1.662,-12.094C-0.531,-6.162 -7.994,0.146 -7.994,0.146L8.164,0.146C8.164,0.146 0.709,-6.162 1.838,-12.094C2.291,-14.463 3.873,-13.744 4.287,-13.51C9.52,-10.254 18.125,-7.035 23.639,-16.176C32.713,-31.252 0.201,-57.157 0,-57.014" style="fill-rule:nonzero;"/>
        </g>
    </g>
</svg>
