<?xml version="1.0" encoding="UTF-8" standalone="no"?>
<!DOCTYPE svg PUBLIC "-//W3C//DTD SVG 1.1//EN" "http://www.w3.org/Graphics/SVG/1.1/DTD/svg11.dtd">
<svg width="100%" height="100%" viewBox="0 0 836 1089" version="1.1" xmlns="http://www.w3.org/2000/svg" xmlns:xlink="http://www.w3.org/1999/xlink" xml:space="preserve" xmlns:serif="http://www.serif.com/" style="fill-rule:evenodd;clip-rule:evenodd;stroke-linejoin:round;stroke-miterlimit:1.41421;">
    <g transform="matrix(1,0,0,1,-2833.97,-1.44862)">
        <g transform="matrix(4.16667,0,0,4.16667,0,0)">
            <path d="M738.193,66.212C735.109,72.349 730.346,73.081 723.843,68.471C740.116,87.187 755.992,92.041 771.502,83.065C771.502,81.996 771.35,80.959 771.015,79.89C770.923,79.554 770.831,79.249 770.678,78.913C763.992,77.875 758.252,74.883 753.458,69.967C758.099,62.884 753.611,59.952 740.024,61.174C740.482,59.616 740.482,57.572 740.086,54.976C739.658,52.381 739.018,56.137 738.193,66.212Z" style="fill:rgb(181,163,126);fill-rule:nonzero;"/>
        </g>
        <g transform="matrix(4.16667,0,0,4.16667,0,0)">
            <path d="M799.806,69.967C794.706,75.158 788.509,78.211 781.242,79.096C781.15,79.37 781.089,79.616 780.998,79.89C780.723,80.928 780.54,81.966 780.509,83.034C800.264,90.575 815.438,85.692 826.063,68.319C821.94,72.99 817.788,72.99 813.636,68.319C813.238,68.868 813.758,66.639 815.132,61.632C807.408,55.159 802.278,57.938 799.806,69.967Z" style="fill:rgb(181,163,126);fill-rule:nonzero;"/>
        </g>
        <g transform="matrix(4.16667,0,0,4.16667,0,0)">
            <path d="M869.661,1.546C868.715,1.332 867.982,1.76 867.463,2.768L860.196,17.452C860.776,17.728 861.357,18.003 861.906,18.338L869.661,1.546Z" style="fill:rgb(253,205,157);fill-rule:nonzero;"/>
        </g>
        <g transform="matrix(4.16667,0,0,4.16667,0,0)">
            <path d="M880.408,17.88C879.829,17.026 879.034,16.934 877.996,17.636L868.012,24.933C868.226,25.483 868.44,26.033 868.623,26.582L880.622,18.614C880.591,18.338 880.53,18.094 880.408,17.88Z" style="fill:rgb(253,205,157);fill-rule:nonzero;"/>
        </g>
        <g transform="matrix(4.16667,0,0,4.16667,0,0)">
            <path d="M877.416,8.569C877.232,8.385 877.05,8.202 876.897,8.019C875.981,7.561 875.279,7.743 874.761,8.538L864.653,20.414C865.143,20.872 865.601,21.33 866.059,21.85L877.416,8.569Z" style="fill:rgb(253,205,157);fill-rule:nonzero;"/>
        </g>
        <g transform="matrix(4.16667,0,0,4.16667,0,0)">
            <path d="M839.221,13.179C838.458,13.453 838.062,13.881 838.062,14.522C840.412,13.789 843.13,17.27 846.213,24.933L847.374,23.316C844.809,16.262 842.092,12.873 839.221,13.179Z" style="fill:rgb(244,173,117);fill-rule:nonzero;"/>
        </g>
        <g transform="matrix(4.16667,0,0,4.16667,0,0)">
            <path d="M685.557,60.014C684.854,60.9 685.006,61.846 685.983,62.853L695.723,73.906L696.975,72.165L685.617,59.892L685.557,60.014Z" style="fill:rgb(253,205,157);fill-rule:nonzero;"/>
        </g>
        <g transform="matrix(4.16667,0,0,4.16667,0,0)">
            <path d="M688.365,60.288C687.511,59.404 686.594,59.25 685.617,59.892L696.975,72.165L695.723,73.906L696.854,75.189C697.586,74.181 698.471,73.234 699.51,72.349L688.365,60.288Z" style="fill:rgb(244,173,117);fill-rule:nonzero;"/>
        </g>
        <g transform="matrix(4.16667,0,0,4.16667,0,0)">
            <path d="M682.442,77.539C681.252,77.142 680.488,77.448 680.214,78.425C680.183,78.547 680.183,78.668 680.152,78.791L692.273,82.576L691.877,84.989L694.045,85.813C693.892,84.378 693.892,83.004 694.074,81.692L682.442,77.539Z" style="fill:rgb(244,173,117);fill-rule:nonzero;"/>
        </g>
        <g transform="matrix(4.16667,0,0,4.16667,0,0)">
            <path d="M682.961,67.891C682.32,67.311 681.648,67.311 680.915,67.921L693.494,76.685L692.762,78.791L694.471,80.012C694.808,78.76 695.326,77.57 695.998,76.44L682.961,67.891Z" style="fill:rgb(244,173,117);fill-rule:nonzero;"/>
        </g>
        <g transform="matrix(4.16667,0,0,4.16667,0,0)">
            <path d="M680.915,67.921L680.824,68.014C680.183,69.021 680.305,69.907 681.252,70.639L692.762,78.791L693.494,76.685L680.915,67.921Z" style="fill:rgb(253,205,157);fill-rule:nonzero;"/>
        </g>
        <g transform="matrix(4.16667,0,0,4.16667,0,0)">
            <path d="M696.609,57.418C695.906,56.259 695.051,55.831 694.074,56.167L703.51,70.425C705.676,72.655 708.394,73.875 711.691,74.119C709.646,73.6 707.601,72.196 705.493,69.937L696.609,57.418Z" style="fill:rgb(244,173,117);fill-rule:nonzero;"/>
        </g>
        <g transform="matrix(4.16667,0,0,4.16667,0,0)">
            <path d="M691.877,84.989L692.273,82.576L680.152,78.791C680.152,79.676 680.824,80.44 682.137,81.142L691.877,84.989Z" style="fill:rgb(253,205,157);fill-rule:nonzero;"/>
        </g>
        <g transform="matrix(4.16667,0,0,4.16667,0,0)">
            <path d="M785.272,88.195L777.548,89.355L780.814,104.437C785.211,106.116 788.875,105.109 791.806,101.475L785.272,88.195Z" style="fill:rgb(217,146,98);fill-rule:nonzero;"/>
        </g>
        <g transform="matrix(4.16667,0,0,4.16667,0,0)">
            <path d="M794.768,100.376L796.966,105.658C798.035,105.016 799.042,104.314 800.05,103.552L796.05,98.942L795.043,99.552C794.95,99.827 794.858,100.102 794.768,100.376Z" style="fill:rgb(114,157,184);fill-rule:nonzero;"/>
        </g>
        <g transform="matrix(4.16667,0,0,4.16667,0,0)">
            <path d="M794.768,100.376C794.858,100.102 794.95,99.827 795.043,99.552L791.806,101.475C788.875,105.109 785.211,106.116 780.814,104.437L777.914,104.437C786.188,110.116 791.806,108.772 794.768,100.376Z" style="fill:rgb(217,237,243);fill-rule:nonzero;"/>
        </g>
        <g transform="matrix(4.16667,0,0,4.16667,0,0)">
            <path d="M774.678,114.055L775.777,117.719C776.235,119.215 776.662,120.741 776.998,122.236C786.371,124.222 794.798,123.824 802.309,121.046L799.561,111.917C793.485,115.611 785.181,116.314 774.678,114.055Z" style="fill:rgb(135,192,211);fill-rule:nonzero;"/>
        </g>
        <g transform="matrix(4.16667,0,0,4.16667,0,0)">
            <path d="M776.998,122.236C777.608,124.954 778.036,127.64 778.311,130.297C787.501,132.617 796.416,132.679 805.118,130.48L802.309,121.046C794.798,123.824 786.371,124.222 776.998,122.236Z" style="fill:rgb(217,237,243);fill-rule:nonzero;"/>
        </g>
        <g transform="matrix(4.16667,0,0,4.16667,0,0)">
            <path d="M809.605,117.413C807.255,118.909 804.843,120.099 802.309,121.046L805.118,130.48C807.683,129.839 810.217,128.984 812.751,127.946C812.019,124.252 810.98,120.741 809.605,117.413Z" style="fill:rgb(171,201,209);fill-rule:nonzero;"/>
        </g>
        <g transform="matrix(4.16667,0,0,4.16667,0,0)">
            <path d="M778.312,130.297C778.525,132.648 778.586,134.969 778.525,137.259C787.653,139.457 796.905,139.793 806.247,138.266L805.118,130.48C796.416,132.679 787.501,132.617 778.312,130.297Z" style="fill:rgb(135,192,211);fill-rule:nonzero;"/>
        </g>
        <g transform="matrix(4.16667,0,0,4.16667,0,0)">
            <path d="M805.118,130.48L806.247,138.266C808.781,137.869 811.315,137.319 813.881,136.617C813.666,133.625 813.3,130.724 812.751,127.946C810.217,128.984 807.683,129.839 805.118,130.48Z" style="fill:rgb(114,157,184);fill-rule:nonzero;"/>
        </g>
        <g transform="matrix(4.16667,0,0,4.16667,0,0)">
            <path d="M813.881,136.617C811.315,137.319 808.781,137.869 806.247,138.266L806.461,148.342C808.934,148.097 811.376,147.7 813.819,147.15C814.063,143.517 814.094,140.006 813.881,136.617Z" style="fill:rgb(171,201,209);fill-rule:nonzero;"/>
        </g>
        <g transform="matrix(4.16667,0,0,4.16667,0,0)">
            <path d="M806.247,138.266C796.905,139.793 787.653,139.457 778.525,137.259C778.464,139.548 778.25,141.807 777.883,144.037C787.532,147.792 797.058,149.226 806.461,148.342L806.247,138.266Z" style="fill:rgb(217,237,243);fill-rule:nonzero;"/>
        </g>
        <g transform="matrix(4.16667,0,0,4.16667,0,0)">
            <path d="M813.819,147.15C811.376,147.7 808.934,148.097 806.461,148.342L805.698,155.761C808.109,155.547 810.552,155.15 813.025,154.6C813.392,152.066 813.666,149.562 813.819,147.15Z" style="fill:rgb(114,157,184);fill-rule:nonzero;"/>
        </g>
        <g transform="matrix(4.16667,0,0,4.16667,0,0)">
            <path d="M805.698,155.761L806.461,148.342C797.058,149.226 787.532,147.792 777.883,144.037C777.578,145.899 777.182,147.762 776.692,149.593C785.577,154.691 795.225,156.767 805.698,155.761Z" style="fill:rgb(135,192,211);fill-rule:nonzero;"/>
        </g>
        <g transform="matrix(4.16667,0,0,4.16667,0,0)">
            <path d="M805.698,155.761L804.079,164.096C806.522,163.851 808.995,163.424 811.529,162.783C812.14,160.005 812.629,157.257 813.025,154.6C810.553,155.15 808.109,155.547 805.698,155.761Z" style="fill:rgb(171,201,209);fill-rule:nonzero;"/>
        </g>
        <g transform="matrix(4.16667,0,0,4.16667,0,0)">
            <path d="M804.079,164.096L805.698,155.761C795.225,156.767 785.577,154.691 776.692,149.593C776.082,151.852 775.319,154.081 774.403,156.31C783.594,162.538 793.485,165.134 804.079,164.096Z" style="fill:rgb(217,237,243);fill-rule:nonzero;"/>
        </g>
        <g transform="matrix(4.16667,0,0,4.16667,0,0)">
            <path d="M821.452,92.469L816.415,86.699L808.965,91.157L815.254,98.056L821.452,92.469Z" style="fill:rgb(217,237,243);fill-rule:nonzero;"/>
        </g>
        <g transform="matrix(4.16667,0,0,4.16667,0,0)">
            <path d="M815.254,98.056L817.514,100.529L823.62,94.911L821.452,92.469L815.254,98.056Z" style="fill:rgb(171,201,209);fill-rule:nonzero;"/>
        </g>
        <g transform="matrix(4.16667,0,0,4.16667,0,0)">
            <path d="M817.514,100.529L815.254,98.056L808.721,103.979L810.797,106.666L817.514,100.529Z" style="fill:rgb(114,157,184);fill-rule:nonzero;"/>
        </g>
        <g transform="matrix(4.16667,0,0,4.16667,0,0)">
            <path d="M800.05,103.552C799.042,104.314 798.034,105.016 796.966,105.658L799.561,111.917C801.24,110.91 802.736,109.657 804.079,108.192L800.05,103.552Z" style="fill:rgb(171,201,209);fill-rule:nonzero;"/>
        </g>
        <g transform="matrix(4.16667,0,0,4.16667,0,0)">
            <path d="M796.05,98.942L800.05,103.552L804.079,108.192L808.721,103.979L802.095,95.308L796.05,98.942Z" style="fill:rgb(217,237,243);fill-rule:nonzero;"/>
        </g>
        <g transform="matrix(4.16667,0,0,4.16667,0,0)">
            <path d="M808.721,103.979L804.079,108.192L806.309,110.757L810.797,106.666L808.721,103.979Z" style="fill:rgb(171,201,209);fill-rule:nonzero;"/>
        </g>
        <g transform="matrix(4.16667,0,0,4.16667,0,0)">
            <path d="M802.095,95.308L808.721,103.979L815.254,98.056L808.965,91.157L802.095,95.308Z" style="fill:rgb(135,192,211);fill-rule:nonzero;"/>
        </g>
        <g transform="matrix(4.16667,0,0,4.16667,0,0)">
            <path d="M802.309,121.046C804.843,120.099 807.255,118.909 809.605,117.413C808.659,115.123 807.561,112.894 806.309,110.757L804.079,108.192C802.736,109.657 801.24,110.91 799.561,111.917L802.309,121.046Z" style="fill:rgb(114,157,184);fill-rule:nonzero;"/>
        </g>
        <g transform="matrix(4.16667,0,0,4.16667,0,0)">
            <path d="M836.291,76.776C835.588,75.768 834.795,74.975 833.879,74.394L831.589,79.37L834.337,81.02L836.291,76.776Z" style="fill:rgb(114,157,184);fill-rule:nonzero;"/>
        </g>
        <g transform="matrix(4.16667,0,0,4.16667,0,0)">
            <path d="M833.879,74.394C832.627,73.631 831.131,73.264 829.421,73.357L827.284,76.776L831.589,79.37L833.879,74.394Z" style="fill:rgb(135,192,211);fill-rule:nonzero;"/>
        </g>
        <g transform="matrix(4.16667,0,0,4.16667,0,0)">
            <path d="M828.475,86.118L831.589,79.37L827.284,76.776L823.803,82.21L828.475,86.118Z" style="fill:rgb(217,237,243);fill-rule:nonzero;"/>
        </g>
        <g transform="matrix(4.16667,0,0,4.16667,0,0)">
            <path d="M831.589,79.37L828.475,86.118L830.978,88.195L834.337,81.02L831.589,79.37Z" style="fill:rgb(171,201,209);fill-rule:nonzero;"/>
        </g>
        <g transform="matrix(4.16667,0,0,4.16667,0,0)">
            <path d="M830.978,88.195L828.475,86.118L821.452,92.469L823.62,94.911L830.978,88.195Z" style="fill:rgb(114,157,184);fill-rule:nonzero;"/>
        </g>
        <g transform="matrix(4.16667,0,0,4.16667,0,0)">
            <path d="M816.415,86.699L821.452,92.469L828.475,86.118L823.803,82.21L816.415,86.699Z" style="fill:rgb(135,192,211);fill-rule:nonzero;"/>
        </g>
        <g transform="matrix(4.16667,0,0,4.16667,0,0)">
            <path d="M733.705,107.184C732.758,107.49 731.994,107.978 731.415,108.68L735.72,112.742C736.27,112.1 736.941,111.52 737.734,111.001L733.705,107.184Z" style="fill:rgb(171,201,209);fill-rule:nonzero;"/>
        </g>
        <g transform="matrix(4.16667,0,0,4.16667,0,0)">
            <path d="M739.719,112.863L737.734,111.001C736.941,111.52 736.27,112.1 735.72,112.742L739.384,116.161L739.719,112.863Z" style="fill:rgb(114,157,184);fill-rule:nonzero;"/>
        </g>
        <g transform="matrix(4.16667,0,0,4.16667,0,0)">
            <path d="M730.162,112.375L733.826,116.557C734.102,115.123 734.742,113.841 735.72,112.742L731.415,108.68C730.683,109.566 730.254,110.818 730.162,112.375Z" style="fill:rgb(217,237,243);fill-rule:nonzero;"/>
        </g>
        <g transform="matrix(4.16667,0,0,4.16667,0,0)">
            <path d="M739.384,116.161L746.283,114.757L746.01,111.215L739.719,112.863L739.384,116.161Z" style="fill:rgb(171,201,209);fill-rule:nonzero;"/>
        </g>
        <g transform="matrix(4.16667,0,0,4.16667,0,0)">
            <path d="M739.384,116.161L735.72,112.742C734.742,113.841 734.102,115.123 733.826,116.557L738.742,122.145L739.384,116.161Z" style="fill:rgb(135,192,211);fill-rule:nonzero;"/>
        </g>
        <g transform="matrix(4.16667,0,0,4.16667,0,0)">
            <path d="M739.384,116.161L738.742,122.145L746.742,121.198L746.283,114.757L739.384,116.161Z" style="fill:rgb(217,237,243);fill-rule:nonzero;"/>
        </g>
        <g transform="matrix(4.16667,0,0,4.16667,0,0)">
            <path d="M760.054,107.52L753.336,109.291L754.13,113.139L761.091,111.704L760.054,107.52Z" style="fill:rgb(171,201,209);fill-rule:nonzero;"/>
        </g>
        <g transform="matrix(4.16667,0,0,4.16667,0,0)">
            <path d="M762.984,119.245L761.091,111.704L754.13,113.139L755.535,120.13L762.984,119.245Z" style="fill:rgb(217,237,243);fill-rule:nonzero;"/>
        </g>
        <g transform="matrix(4.16667,0,0,4.16667,0,0)">
            <path d="M755.535,120.13L754.13,113.139L746.283,114.757L746.742,121.198L755.535,120.13Z" style="fill:rgb(135,192,211);fill-rule:nonzero;"/>
        </g>
        <g transform="matrix(4.16667,0,0,4.16667,0,0)">
            <path d="M746.01,111.215L746.283,114.757L754.13,113.139L753.336,109.291L746.01,111.215Z" style="fill:rgb(114,157,184);fill-rule:nonzero;"/>
        </g>
        <g transform="matrix(4.16667,0,0,4.16667,0,0)">
            <path d="M769.365,118.481L767.137,110.482L761.091,111.704L762.984,119.245L769.365,118.481Z" style="fill:rgb(135,192,211);fill-rule:nonzero;"/>
        </g>
        <g transform="matrix(4.16667,0,0,4.16667,0,0)">
            <path d="M786.677,221.648L785.364,217.343L748.023,199.146C747.535,199.481 747.077,199.848 746.681,200.183C745.52,201.13 744.543,202.107 743.78,203.115L744.695,203.634L786.677,221.648Z" style="fill:rgb(44,56,67);fill-rule:nonzero;"/>
        </g>
        <g transform="matrix(4.16667,0,0,4.16667,0,0)">
            <path d="M763.656,241.005C763.809,240.79 763.931,240.577 764.022,240.363C763.809,240.21 763.564,240.058 763.32,239.906C762.588,239.447 761.946,239.019 761.365,238.562L760.633,240.027C761.274,240.638 761.977,241.462 762.74,242.531C763.015,242.013 763.32,241.493 763.656,241.005Z" style="fill:rgb(114,157,184);fill-rule:nonzero;"/>
        </g>
        <g transform="matrix(4.16667,0,0,4.16667,0,0)">
            <path d="M757.58,239.202C757.366,239.386 757.214,239.57 757.152,239.783C757,240.515 757.611,241.677 759.016,243.234L760.633,240.027C760.236,239.63 759.84,239.294 759.503,239.081C758.649,238.531 758.008,238.562 757.58,239.202Z" style="fill:rgb(238,237,235);fill-rule:nonzero;"/>
        </g>
        <g transform="matrix(4.16667,0,0,4.16667,0,0)">
            <path d="M759.016,243.263C759.259,243.538 759.534,243.814 759.84,244.118C760.298,244.546 760.786,245.003 761.365,245.523C761.58,245.066 761.793,244.577 762.008,244.118C762.221,243.599 762.465,243.05 762.74,242.531C761.977,241.462 761.274,240.638 760.633,240.027L759.016,243.234L759.016,243.263Z" style="fill:rgb(218,212,208);fill-rule:nonzero;"/>
        </g>
        <g transform="matrix(4.16667,0,0,4.16667,0,0)">
            <path d="M759.84,244.118C759.534,243.814 759.26,243.538 759.016,243.263C757.58,252.363 755.229,256.576 751.901,255.872C751.992,257.736 752.177,259.597 752.42,261.46C752.543,261.492 752.635,261.492 752.726,261.46C756.726,261.186 759.229,258.194 760.175,252.423C760.328,251.386 760.42,250.224 760.48,248.943C760.512,248.699 760.572,248.423 760.664,248.15C760.878,247.324 761.091,246.439 761.365,245.523C760.786,245.003 760.298,244.546 759.84,244.118Z" style="fill:rgb(114,157,184);fill-rule:nonzero;"/>
        </g>
        <g transform="matrix(4.16667,0,0,4.16667,0,0)">
            <path d="M732.788,206.534C732.393,204.183 731.506,203.085 730.133,203.298C728.392,203.267 727.996,204.824 728.91,207.938C729.002,208.153 729.063,208.366 729.155,208.58L732.788,206.534Z" style="fill:rgb(238,237,235);fill-rule:nonzero;"/>
        </g>
        <g transform="matrix(4.16667,0,0,4.16667,0,0)">
            <path d="M729.155,208.58C729.339,209.098 729.553,209.648 729.766,210.259C729.857,210.535 729.979,210.808 730.133,211.083C731.049,210.718 731.994,210.382 733.002,210.107C733.002,208.702 732.941,207.512 732.788,206.534L729.155,208.58Z" style="fill:rgb(218,212,208);fill-rule:nonzero;"/>
        </g>
        <g transform="matrix(4.16667,0,0,4.16667,0,0)">
            <path d="M729.766,210.259C729.553,209.648 729.339,209.098 729.155,208.58L727.629,209.404C727.721,210.167 727.751,211.054 727.751,212.06C728.301,211.816 728.881,211.572 729.461,211.359C729.644,211.236 729.857,211.144 730.133,211.083C729.979,210.808 729.857,210.535 729.766,210.259Z" style="fill:rgb(114,157,184);fill-rule:nonzero;"/>
        </g>
        <g transform="matrix(4.16667,0,0,4.16667,0,0)">
            <path d="M727.629,209.404L724.453,211.175C724.545,211.939 724.697,212.763 724.911,213.708C725.797,213.16 726.743,212.611 727.751,212.06C727.751,211.054 727.72,210.167 727.629,209.404Z" style="fill:rgb(218,212,208);fill-rule:nonzero;"/>
        </g>
        <g transform="matrix(4.16667,0,0,4.16667,0,0)">
            <path d="M724.453,211.175L727.629,209.404C727.537,208.55 727.385,207.847 727.171,207.328C726.773,206.382 726.225,206.046 725.521,206.321C725.248,206.351 725.003,206.412 724.851,206.534C724.209,207.084 724.057,208.64 724.453,211.175Z" style="fill:rgb(238,237,235);fill-rule:nonzero;"/>
        </g>
        <g transform="matrix(4.16667,0,0,4.16667,0,0)">
            <path d="M724.911,213.708C724.697,212.763 724.545,211.939 724.453,211.175C717.706,216.456 713.004,218.685 710.316,217.892C709.615,219.021 708.943,220.181 708.302,221.372C708.394,221.464 708.486,221.525 708.547,221.556C711.936,223.693 715.691,222.716 719.813,218.624L719.874,218.595C720.606,217.831 721.37,216.945 722.164,215.908C722.377,215.755 722.561,215.601 722.774,215.419C723.477,214.839 724.209,214.29 724.911,213.708Z" style="fill:rgb(114,157,184);fill-rule:nonzero;"/>
        </g>
        <g transform="matrix(4.16667,0,0,4.16667,0,0)">
            <path d="M870.119,1.668C869.967,1.607 869.813,1.576 869.661,1.546L861.906,18.338C861.357,18.003 860.777,17.728 860.196,17.452C859.587,17.117 858.944,16.843 858.272,16.598L862.15,2.92C862.487,1.607 862.09,0.783 861.021,0.416L855.861,17.178C861.266,19.896 865.021,23.346 867.188,27.589C862.7,34.276 857.234,38.856 850.762,41.298L841.939,57.999L834.764,73.387L830.153,72.227L829.421,73.357C831.131,73.264 832.627,73.631 833.879,74.394C834.795,74.975 835.588,75.768 836.291,76.776L845.97,56.075C846.731,54.427 847.495,52.778 848.228,51.099C849.327,48.534 850.427,45.939 851.495,43.283C857.754,42.886 863.646,38.092 869.173,28.841L879.279,21.056C880.225,20.17 880.684,19.346 880.622,18.614L868.623,26.582C868.44,26.033 868.226,25.483 868.012,24.933C867.738,24.414 867.463,23.895 867.158,23.376L877.203,10.675C877.782,9.911 877.875,9.209 877.416,8.569L866.059,21.85C865.601,21.33 865.143,20.872 864.653,20.414C864.287,20.048 863.892,19.743 863.494,19.468L870.485,4.569C871.157,3.317 871.035,2.37 870.119,1.668Z" style="fill:rgb(244,173,117);fill-rule:nonzero;"/>
        </g>
        <g transform="matrix(4.16667,0,0,4.16667,0,0)">
            <path d="M849.327,26.949L850.549,25.148C855.189,27.987 856.104,31.589 853.266,35.986C853.847,31.437 852.533,28.414 849.327,26.949ZM838.062,14.522C838.062,14.98 838.275,15.56 838.672,16.201C840.778,19.284 842.244,22.368 843.067,25.452C843.221,28.75 844.84,33.543 847.983,39.832C845.938,44.809 843.679,49.664 841.145,54.457C840.656,55.373 840.167,56.289 839.648,57.236L830.153,72.227L834.764,73.387L841.939,57.999L850.762,41.298C857.234,38.856 862.7,34.276 867.188,27.589C865.02,23.346 861.266,19.896 855.861,17.178L861.021,0.416L860.929,0.356C859.861,0.264 859.158,0.936 858.762,2.309L853.755,16.812C851.953,20.354 849.846,22.521 847.374,23.316L846.213,24.933C843.13,17.27 840.412,13.789 838.062,14.522Z" style="fill:rgb(253,205,157);fill-rule:nonzero;"/>
        </g>
        <g transform="matrix(4.16667,0,0,4.16667,0,0)">
            <path d="M850.549,25.148L849.327,26.949C852.533,28.414 853.847,31.437 853.266,35.986C856.104,31.589 855.189,27.987 850.549,25.148Z" style="fill:rgb(244,173,117);fill-rule:nonzero;"/>
        </g>
        <g transform="matrix(4.16667,0,0,4.16667,0,0)">
            <path d="M706.531,76.287L710.867,76.99C707.234,81.05 707.387,84.775 711.325,88.195C706.531,85.233 704.914,81.264 706.531,76.287ZM718.47,62.396L718.378,62.396C715.569,62.914 713.889,66.914 713.37,74.394C712.82,74.364 712.271,74.272 711.691,74.119C708.394,73.875 705.676,72.655 703.51,70.425L694.074,56.167L694.045,56.167C693.006,56.869 692.854,57.816 693.586,58.976L701.097,71.005C700.518,71.463 699.998,71.891 699.51,72.349C698.471,73.234 697.586,74.181 696.854,75.189C696.578,75.585 696.273,75.982 695.998,76.44C695.326,77.57 694.808,78.76 694.471,80.012C694.289,80.562 694.166,81.112 694.074,81.692C693.892,83.004 693.892,84.378 694.045,85.813C701.891,93.141 708.912,96.103 715.051,94.698C716.424,96.499 717.828,98.27 719.264,99.949C719.721,100.468 720.148,100.986 720.576,101.506C720.912,101.903 721.247,102.33 721.584,102.727L721.614,102.666L728.697,110.696L729.979,106.848L722.285,98.453C721.523,97.599 720.729,96.743 719.935,95.888C718.164,93.965 716.455,92.072 714.806,90.149C716.21,85.447 716.455,80.562 715.569,75.463C715.293,70.548 716.271,66.212 718.47,62.396Z" style="fill:rgb(253,205,157);fill-rule:nonzero;"/>
        </g>
        <g transform="matrix(4.16667,0,0,4.16667,0,0)">
            <path d="M710.867,76.99L706.531,76.287C704.914,81.264 706.531,85.233 711.325,88.195C707.387,84.775 707.234,81.05 710.867,76.99Z" style="fill:rgb(244,173,117);fill-rule:nonzero;"/>
        </g>
        <g transform="matrix(4.16667,0,0,4.16667,0,0)">
            <path d="M718.104,75.249C718.042,72.074 718.592,68.716 719.782,65.174C720.271,63.404 719.843,62.487 718.47,62.396C716.271,66.212 715.293,70.548 715.569,75.463C716.455,80.562 716.21,85.447 714.806,90.149C716.455,92.072 718.164,93.965 719.935,95.888C720.729,96.743 721.523,97.599 722.285,98.453L729.979,106.848L728.697,110.696L730.162,112.375C730.254,110.818 730.682,109.566 731.415,108.68C731.994,107.978 732.758,107.49 733.705,107.184L722.591,96.56C721.828,95.644 721.064,94.729 720.271,93.843C719.294,92.713 718.347,91.553 717.432,90.423C718.684,83.492 718.928,78.455 718.104,75.249Z" style="fill:rgb(244,173,117);fill-rule:nonzero;"/>
        </g>
        <g transform="matrix(4.16667,0,0,4.16667,0,0)">
            <path d="M796.966,105.658L794.768,100.376C791.806,108.772 786.188,110.116 777.914,104.437L771.747,104.437L773.091,108.894C782.279,110.696 790.219,109.627 796.966,105.658Z" style="fill:rgb(135,192,211);fill-rule:nonzero;"/>
        </g>
        <g transform="matrix(4.16667,0,0,4.16667,0,0)">
            <path d="M771.747,104.437L765.885,105.994L767.137,110.482L770.343,109.81L772.266,118.145L775.777,117.719L774.678,114.055L773.091,108.894L771.747,104.437Z" style="fill:rgb(171,201,209);fill-rule:nonzero;"/>
        </g>
        <g transform="matrix(4.16667,0,0,4.16667,0,0)">
            <path d="M770.343,109.81L767.137,110.482L769.365,118.481L772.266,118.145L770.343,109.81Z" style="fill:rgb(217,237,243);fill-rule:nonzero;"/>
        </g>
        <g transform="matrix(4.16667,0,0,4.16667,0,0)">
            <path d="M799.561,111.917L796.966,105.658C790.219,109.627 782.279,110.696 773.091,108.894L774.678,114.055C785.181,116.314 793.485,115.611 799.561,111.917Z" style="fill:rgb(217,237,243);fill-rule:nonzero;"/>
        </g>
        <g transform="matrix(4.16667,0,0,4.16667,0,0)">
            <path d="M767.137,110.482L765.885,105.994L760.054,107.52L761.091,111.704L767.137,110.482Z" style="fill:rgb(114,157,184);fill-rule:nonzero;"/>
        </g>
        <g transform="matrix(4.16667,0,0,4.16667,0,0)">
            <path d="M727.629,192.581C724.851,194.871 722.225,197.283 719.813,199.817C718.592,201.069 717.432,202.351 716.332,203.664C714.287,206.107 712.393,208.64 710.653,211.296C708.974,213.863 707.416,216.519 705.982,219.296C706.745,220.152 707.539,220.853 708.302,221.372C708.943,220.181 709.615,219.023 710.316,217.892C711.447,216.029 712.638,214.197 713.951,212.396C715.752,209.954 717.706,207.572 719.813,205.222C719.904,205.13 719.965,205.008 720.057,204.917C723.996,200.703 728.483,196.673 733.552,192.795C734.56,192.032 735.598,191.238 736.666,190.474C737.704,189.742 738.742,189.01 739.811,188.307C739.047,187.391 738.162,186.536 737.124,185.742C735.078,187.055 733.094,188.398 731.17,189.834C729.979,190.719 728.789,191.635 727.629,192.581Z" style="fill:rgb(209,211,212);fill-rule:nonzero;"/>
        </g>
        <g transform="matrix(4.16667,0,0,4.16667,0,0)">
            <path d="M733.552,192.795L737.734,198.047L732.788,206.534C732.941,207.512 733.002,208.702 733.002,210.107C733.826,209.892 735.688,208.61 738.62,206.26C738.467,203.97 738.926,202.199 740.024,200.947C740.91,199.939 742.192,199.237 743.902,198.871C743.78,194.871 742.406,191.33 739.811,188.307C738.742,189.01 737.704,189.742 736.666,190.474C735.598,191.238 734.56,192.032 733.552,192.795Z" style="fill:rgb(114,157,184);fill-rule:nonzero;"/>
        </g>
        <g transform="matrix(4.16667,0,0,4.16667,0,0)">
            <path d="M737.734,198.047L733.552,192.795C728.483,196.673 723.996,200.703 720.057,204.917C719.965,205.008 719.904,205.13 719.813,205.222C717.706,207.572 715.752,209.954 713.951,212.396C712.638,214.197 711.447,216.029 710.316,217.892C713.004,218.687 717.706,216.456 724.453,211.175C724.057,208.64 724.209,207.084 724.851,206.534C725.003,206.412 725.248,206.351 725.521,206.321C726.225,206.046 726.773,206.382 727.171,207.328C727.385,207.847 727.537,208.55 727.629,209.404L729.155,208.58C729.063,208.366 729.002,208.153 728.91,207.938C727.996,204.824 728.392,203.267 730.133,203.298C731.506,203.085 732.393,204.183 732.788,206.534L737.734,198.047Z" style="fill:rgb(135,192,211);fill-rule:nonzero;"/>
        </g>
        <g transform="matrix(4.16667,0,0,4.16667,0,0)">
            <path d="M804.079,164.096L802.34,168.37C792.355,168.4 782.372,165.836 772.388,160.645C772.235,160.921 772.082,161.225 771.93,161.53C772.754,162.172 773.518,162.783 774.281,163.362C783.349,170.018 792.936,172.553 803.072,170.934C805.331,170.598 807.621,170.018 809.941,169.224C810.522,167.057 811.071,164.889 811.529,162.783C808.995,163.424 806.522,163.851 804.079,164.096Z" style="fill:rgb(114,157,184);fill-rule:nonzero;"/>
        </g>
        <g transform="matrix(4.16667,0,0,4.16667,0,0)">
            <path d="M802.34,168.37L804.079,164.096C793.485,165.134 783.594,162.538 774.403,156.31C773.792,157.745 773.12,159.211 772.388,160.645C782.372,165.836 792.355,168.4 802.34,168.37Z" style="fill:rgb(135,192,211);fill-rule:nonzero;"/>
        </g>
        <g transform="matrix(4.16667,0,0,4.16667,0,0)">
            <path d="M774.281,163.362C774.129,165.012 774.006,166.66 773.944,168.278C782.158,172.583 790.981,174.843 800.478,175.087L821.544,224.517L797.852,226.288L797.516,231.937L829.604,230.013C822.611,208.488 813.758,188.796 803.072,170.934C792.936,172.553 783.349,170.018 774.281,163.362Z" style="fill:rgb(44,56,67);fill-rule:nonzero;"/>
        </g>
        <g transform="matrix(4.16667,0,0,4.16667,0,0)">
            <path d="M796.813,176.369L794.676,182.567L790.31,233.921L794.706,235.997C794.92,234.685 795.072,233.372 795.225,232.058C795.47,230.197 795.684,228.333 795.896,226.441C796.111,224.181 796.324,221.892 796.508,219.601C797.24,210.199 797.516,200.367 797.363,190.108C797.271,185.62 797.088,181.04 796.813,176.369Z" style="fill:rgb(44,56,67);fill-rule:nonzero;"/>
        </g>
        <g transform="matrix(4.16667,0,0,4.16667,0,0)">
            <path d="M794.676,182.567L796.813,176.369C797.088,181.04 797.271,185.62 797.363,190.108L811.652,219.204L798.218,219.572L797.852,226.288L821.544,224.517L800.478,175.087C790.981,174.843 782.158,172.583 773.944,168.278C773.792,173.469 774.22,178.415 775.259,183.116C776.632,189.314 778.312,195.268 780.326,200.977C782.311,206.687 783.989,212.122 785.364,217.343L786.677,221.648L744.695,203.634L743.78,203.115C742.711,204.55 742.01,206.015 741.734,207.572C741.521,208.58 741.49,209.648 741.643,210.718L754.497,216.824L757.824,218.441L767.533,223.052L771.136,224.792L782.799,230.318L790.311,233.921L794.676,182.567Z" style="fill:rgb(58,76,90);fill-rule:nonzero;"/>
        </g>
        <g transform="matrix(4.16667,0,0,4.16667,0,0)">
            <path d="M797.852,226.288L798.218,219.572L796.508,219.601C796.324,221.892 796.111,224.181 795.896,226.441C795.684,228.333 795.47,230.197 795.225,232.058L797.516,231.937L797.852,226.288Z" style="fill:rgb(32,41,50);fill-rule:nonzero;"/>
        </g>
        <g transform="matrix(4.16667,0,0,4.16667,0,0)">
            <path d="M766.19,227.449L771.015,227.204C770.983,226.777 770.983,226.349 771.015,225.921C771.044,225.525 771.075,225.16 771.136,224.792L767.533,223.052C766.465,224.488 766.007,225.952 766.19,227.449Z" style="fill:rgb(218,212,208);fill-rule:nonzero;"/>
        </g>
        <g transform="matrix(4.16667,0,0,4.16667,0,0)">
            <path d="M771.015,227.204L766.19,227.449C766.343,228.761 767.015,230.105 768.144,231.478L771.502,230.714C771.197,229.493 771.044,228.333 771.015,227.204Z" style="fill:rgb(238,237,235);fill-rule:nonzero;"/>
        </g>
        <g transform="matrix(4.16667,0,0,4.16667,0,0)">
            <path d="M771.015,225.921C770.983,226.349 770.983,226.777 771.015,227.204C771.044,228.333 771.197,229.493 771.502,230.714C771.655,231.357 771.869,232.029 772.144,232.73L779.716,231.021L771.015,225.921Z" style="fill:rgb(58,76,90);fill-rule:nonzero;"/>
        </g>
        <g transform="matrix(4.16667,0,0,4.16667,0,0)">
            <path d="M766.19,227.449C766.007,225.952 766.465,224.488 767.533,223.052L757.824,218.441C757.672,218.9 757.488,219.388 757.306,219.876C757.03,220.701 756.786,221.495 756.512,222.32L766.19,227.449Z" style="fill:rgb(114,157,184);fill-rule:nonzero;"/>
        </g>
        <g transform="matrix(4.16667,0,0,4.16667,0,0)">
            <path d="M771.136,224.792C771.075,225.16 771.044,225.525 771.015,225.921L779.716,231.021L782.799,230.318L771.136,224.792Z" style="fill:rgb(32,41,50);fill-rule:nonzero;"/>
        </g>
        <g transform="matrix(4.16667,0,0,4.16667,0,0)">
            <path d="M765.824,237.859C766.343,237.218 767.137,235.113 768.144,231.478C767.015,230.105 766.343,228.761 766.19,227.449L763.29,234.898C764.053,235.601 764.908,236.577 765.824,237.859Z" style="fill:rgb(114,157,184);fill-rule:nonzero;"/>
        </g>
        <g transform="matrix(4.16667,0,0,4.16667,0,0)">
            <path d="M740.024,200.947L743.779,203.115C744.543,202.107 745.52,201.13 746.681,200.183L743.902,198.871C742.192,199.237 740.91,199.939 740.024,200.947Z" style="fill:rgb(218,212,208);fill-rule:nonzero;"/>
        </g>
        <g transform="matrix(4.16667,0,0,4.16667,0,0)">
            <path d="M743.779,203.115L740.024,200.947C738.926,202.199 738.467,203.97 738.62,206.26L741.734,207.572C742.009,206.015 742.711,204.55 743.779,203.115Z" style="fill:rgb(238,237,235);fill-rule:nonzero;"/>
        </g>
        <g transform="matrix(4.16667,0,0,4.16667,0,0)">
            <path d="M756.512,222.32C756.786,221.495 757.03,220.701 757.306,219.876C757.488,219.388 757.672,218.9 757.824,218.441L754.497,216.824C754.039,218.076 753.581,219.296 753.153,220.548C752.451,222.656 751.81,224.732 751.229,226.837C749.855,232.058 749.001,237.249 748.604,242.41C748.543,242.99 748.513,243.538 748.481,244.118C748.329,246.714 748.329,249.339 748.42,251.935C748.573,255.019 748.909,258.101 749.367,261.125C750.496,261.368 751.505,261.492 752.42,261.46C752.177,259.597 751.992,257.736 751.901,255.872C751.81,254.224 751.749,252.576 751.749,250.896C751.779,248.667 751.871,246.41 752.084,244.118C752.177,243.173 752.268,242.195 752.359,241.249C753.092,235.142 754.466,228.822 756.512,222.32Z" style="fill:rgb(209,211,212);fill-rule:nonzero;"/>
        </g>
        <g transform="matrix(4.16667,0,0,4.16667,0,0)">
            <path d="M763.229,234.837C761.671,233.433 760.45,233.189 759.534,234.074C758.13,235.081 758.71,236.546 761.274,238.501L761.365,238.562L763.229,234.837Z" style="fill:rgb(238,237,235);fill-rule:nonzero;"/>
        </g>
        <g transform="matrix(4.16667,0,0,4.16667,0,0)">
            <path d="M759.534,234.074C760.45,233.189 761.671,233.433 763.229,234.837L763.29,234.898L766.19,227.449L756.512,222.32C754.466,228.822 753.092,235.142 752.359,241.249C752.268,242.195 752.177,243.171 752.084,244.118C751.871,246.41 751.779,248.667 751.749,250.896C751.749,252.576 751.81,254.224 751.901,255.872C755.229,256.576 757.58,252.363 759.016,243.263L759.016,243.234C757.611,241.677 757,240.515 757.152,239.783C757.214,239.57 757.366,239.386 757.58,239.202C758.008,238.562 758.649,238.531 759.503,239.081C759.84,239.294 760.236,239.63 760.633,240.027L761.365,238.562L761.274,238.501C758.71,236.546 758.13,235.081 759.534,234.074Z" style="fill:rgb(135,192,211);fill-rule:nonzero;"/>
        </g>
        <g transform="matrix(4.16667,0,0,4.16667,0,0)">
            <path d="M763.29,234.898L763.229,234.837L761.365,238.562C761.946,239.019 762.588,239.447 763.32,239.906C763.564,240.058 763.809,240.21 764.022,240.363C764.571,239.538 765.183,238.683 765.824,237.859C764.908,236.577 764.053,235.601 763.29,234.898Z" style="fill:rgb(218,212,208);fill-rule:nonzero;"/>
        </g>
        <g transform="matrix(4.16667,0,0,4.16667,0,0)">
            <path d="M816.658,53.999C816.444,53.541 816.262,53.175 816.109,52.839C812.964,52.289 810.857,53.755 809.728,57.266L809.361,68.197C815.438,68.746 817.88,64.014 816.658,53.999Z" style="fill:rgb(253,205,157);fill-rule:nonzero;"/>
        </g>
        <g transform="matrix(4.16667,0,0,4.16667,0,0)">
            <path d="M738.041,53.175C737.856,53.45 737.643,53.846 737.43,54.305C735.934,64.288 738.254,69.082 744.329,68.685L744.238,57.754C743.17,54.213 741.123,52.687 738.041,53.175Z" style="fill:rgb(253,205,157);fill-rule:nonzero;"/>
        </g>
        <g transform="matrix(4.16667,0,0,4.16667,0,0)">
            <path d="M813.666,50.549C812.109,50.243 810.186,51.435 807.957,54.121C807.865,54.213 807.774,54.305 807.713,54.427C807.957,56.32 808.08,58.274 808.08,60.288C808.08,62.946 807.865,65.48 807.469,67.891C808.141,67.983 808.781,68.105 809.361,68.197L809.728,57.266C810.857,53.755 812.964,52.289 816.109,52.839C815.438,51.557 814.613,50.793 813.666,50.549Z" style="fill:rgb(217,146,98);fill-rule:nonzero;"/>
        </g>
        <g transform="matrix(4.16667,0,0,4.16667,0,0)">
            <path d="M745.551,59.8C745.58,57.938 745.703,56.167 745.979,54.427C743.842,51.831 742.009,50.671 740.482,51.007C739.475,51.159 738.682,51.893 738.041,53.175C741.123,52.687 743.17,54.213 744.238,57.754L744.329,68.685C744.91,68.623 745.551,68.533 746.252,68.41C745.795,65.815 745.551,63.098 745.551,60.288C745.551,60.136 745.551,59.952 745.551,59.8Z" style="fill:rgb(217,146,98);fill-rule:nonzero;"/>
        </g>
        <g transform="matrix(4.16667,0,0,4.16667,0,0)">
            <path d="M745.979,54.427C745.703,56.167 745.58,57.938 745.551,59.8L750.161,48.199C765.823,49.115 777.426,45.237 784.967,36.596L800.568,45.511L804.079,57.297C801.668,83.92 790.005,96.743 769.091,95.797C771.563,96.499 774.129,96.835 776.845,96.835C785.455,96.835 792.813,93.263 798.889,86.149C803.407,80.866 806.278,74.761 807.469,67.891C807.865,65.48 808.08,62.946 808.08,60.288C808.08,58.274 807.957,56.32 807.713,54.427C806.705,46.825 803.744,40.168 798.889,34.459C792.813,27.345 785.455,23.804 776.845,23.804C768.205,23.804 760.847,27.345 754.74,34.459C749.886,40.168 746.955,46.825 745.979,54.427Z" style="fill:rgb(244,173,117);fill-rule:nonzero;"/>
        </g>
        <g transform="matrix(4.16667,0,0,4.16667,0,0)">
            <path d="M745.551,59.8C745.551,59.952 745.551,60.136 745.551,60.288C745.551,63.098 745.795,65.815 746.252,68.41L746.344,68.41C747.535,75.066 750.313,80.99 754.74,86.149C758.924,91.034 763.718,94.24 769.091,95.797C790.005,96.743 801.668,83.92 804.079,57.297L800.568,45.511L784.967,36.596C777.426,45.237 765.823,49.115 750.161,48.199L745.551,59.8Z" style="fill:rgb(253,205,157);fill-rule:nonzero;"/>
        </g>
        <g transform="matrix(4.16667,0,0,4.16667,0,0)">
            <path d="M772.51,63.8C775.868,69.387 779.288,69.509 782.769,64.106C779.379,65.662 775.96,65.571 772.51,63.8Z" style="fill:rgb(217,146,98);fill-rule:nonzero;"/>
        </g>
        <g transform="matrix(4.16667,0,0,4.16667,0,0)">
            <path d="M759.382,46.519C758.924,47.16 758.74,47.801 758.893,48.443C762.801,46.702 767.015,45.877 771.533,45.969C771.838,44.718 771.595,43.436 770.831,42.122C766.953,42.52 763.137,43.985 759.382,46.519Z" style="fill:rgb(57,22,16);fill-rule:nonzero;"/>
        </g>
        <g transform="matrix(4.16667,0,0,4.16667,0,0)">
            <path d="M796.263,46.58C796.722,47.221 796.905,47.863 796.752,48.503C792.844,46.764 788.631,45.939 784.112,46.031C783.807,44.779 784.051,43.496 784.814,42.184C788.691,42.58 792.509,44.046 796.263,46.58Z" style="fill:rgb(57,22,16);fill-rule:nonzero;"/>
        </g>
        <g transform="matrix(4.16667,0,0,4.16667,0,0)">
            <path d="M744.977,60.183C744.878,58.873 744.537,57.753 743.951,56.824C743.455,55.945 742.822,55.533 742.139,55.585C741.453,55.636 740.89,56.136 740.444,57.086C740.089,58.085 739.918,59.243 740.016,60.554C740.113,61.863 740.455,62.983 740.951,63.862C741.536,64.791 742.17,65.202 742.854,65.152C743.537,65.1 744.103,64.6 744.457,63.6C744.902,62.651 745.074,61.492 744.977,60.183Z" style="fill:rgb(217,146,98);fill-rule:nonzero;"/>
        </g>
        <g transform="matrix(4.16667,0,0,4.16667,0,0)">
            <path d="M808.954,59.758C809.082,58.45 809.448,57.339 810.055,56.423C810.568,55.555 811.21,55.158 811.894,55.225C812.576,55.29 813.13,55.803 813.554,56.762C813.887,57.77 814.032,58.932 813.905,60.239C813.778,61.545 813.412,62.658 812.896,63.526C812.291,64.442 811.649,64.838 810.967,64.773C810.283,64.706 809.73,64.193 809.396,63.186C808.974,62.227 808.828,61.066 808.954,59.758Z" style="fill:rgb(217,146,98);fill-rule:nonzero;"/>
        </g>
        <g transform="matrix(4.16667,0,0,4.16667,0,0)">
            <path d="M767.751,49.603C766.921,49.603 766.224,50.112 765.608,51.13C765.019,52.174 764.725,53.433 764.725,54.853C764.725,56.272 765.019,57.504 765.608,58.523C766.224,59.567 766.921,60.103 767.751,60.103C768.582,60.103 769.305,59.567 769.895,58.523C770.511,57.504 770.805,56.273 770.805,54.853C770.805,53.433 770.511,52.174 769.895,51.13C769.305,50.112 768.582,49.603 767.751,49.603Z" style="fill:rgb(57,22,16);fill-rule:nonzero;"/>
        </g>
        <g transform="matrix(4.16667,0,0,4.16667,0,0)">
            <path d="M769.063,50.862C768.743,50.407 768.341,50.165 767.885,50.165C767.431,50.165 767.055,50.407 766.707,50.862C766.385,51.344 766.224,51.907 766.224,52.549C766.224,53.192 766.385,53.754 766.707,54.209C767.055,54.692 767.431,54.933 767.885,54.933C768.341,54.933 768.743,54.692 769.063,54.209C769.412,53.754 769.573,53.192 769.573,52.549C769.573,51.907 769.412,51.344 769.063,50.862Z" style="fill:rgb(255,255,253);fill-rule:nonzero;"/>
        </g>
        <g transform="matrix(4.16667,0,0,4.16667,0,0)">
            <path d="M788.879,49.115C788.049,49.115 787.353,49.623 786.736,50.641C786.146,51.686 785.852,52.945 785.852,54.365C785.852,55.784 786.146,57.016 786.736,58.033C787.353,59.078 788.049,59.614 788.879,59.614C789.709,59.614 790.433,59.078 791.021,58.033C791.638,57.016 791.933,55.784 791.933,54.365C791.933,52.945 791.638,51.686 791.021,50.641C790.433,49.623 789.709,49.115 788.879,49.115Z" style="fill:rgb(57,22,16);fill-rule:nonzero;"/>
        </g>
        <g transform="matrix(4.16667,0,0,4.16667,0,0)">
            <path d="M790.191,50.373C789.87,49.917 789.469,49.676 789.013,49.676C788.558,49.676 788.183,49.917 787.834,50.373C787.513,50.856 787.353,51.418 787.353,52.061C787.353,52.703 787.513,53.266 787.834,53.721C788.183,54.203 788.558,54.445 789.013,54.445C789.469,54.445 789.87,54.203 790.191,53.721C790.54,53.266 790.701,52.703 790.701,52.061C790.701,51.418 790.54,50.856 790.191,50.373Z" style="fill:rgb(255,255,253);fill-rule:nonzero;"/>
        </g>
        <g transform="matrix(4.16667,0,0,4.16667,0,0)">
            <path d="M792.556,74.077L792.673,74.109C793.13,74.044 793.587,73.98 794.072,73.923C794.005,75.698 793.704,77.409 793.197,79.066C792.699,80.688 791.987,82.289 791.042,83.828C790.611,84.497 790.152,85.158 789.663,85.812C786.684,86.619 783.71,87.055 780.695,87.18C777.115,87.304 773.5,86.97 769.822,86.171L769.695,86.174C768.523,84.927 767.477,83.676 766.597,82.394C764.677,79.602 763.426,76.653 762.914,73.528C763.304,73.595 763.675,73.62 764.044,73.645L764.073,73.653L764.19,73.684C771.51,74.6 778.774,74.903 785.982,74.593C787.598,74.541 789.202,74.411 790.807,74.281C791.419,74.221 792.003,74.153 792.556,74.077ZM792.628,73.574C792.074,73.65 791.559,73.699 791.015,73.739L790.888,73.742C789.283,73.873 787.679,74.003 786.064,74.055C778.817,74.391 771.523,74.08 764.146,73.149C763.629,73.085 763.142,73.03 762.635,72.93L762.47,72.961L762.314,73.069L762.269,73.242C762.753,76.473 763.955,79.483 765.885,82.353C766.846,83.806 767.981,85.193 769.34,86.565L769.477,86.639C773.233,87.496 776.936,87.854 780.613,87.718C783.756,87.589 786.835,87.108 789.921,86.254L790.104,86.155C790.65,85.405 791.167,84.647 791.655,83.881C792.572,82.334 793.284,80.733 793.781,79.111C794.269,77.411 794.57,75.7 794.637,73.925C794.636,73.813 794.654,73.743 794.653,73.631L794.623,73.511L794.495,73.402L794.348,73.363C793.785,73.473 793.201,73.541 792.628,73.574Z" style="fill:rgb(180,114,69);fill-rule:nonzero;"/>
        </g>
        <g transform="matrix(4.16667,0,0,4.16667,0,0)">
            <path d="M792.673,74.109L792.556,74.077L791.449,77.74C791.08,77.826 790.691,77.872 790.322,77.96C789.925,78.039 789.536,78.085 789.117,78.122C787.912,78.285 786.679,78.44 785.453,78.56C778.784,79.2 772.242,79.015 765.815,77.928L764.792,75.189L764.19,73.684L764.073,73.653L764.044,73.645C763.675,73.62 763.304,73.595 762.914,73.528C763.426,76.653 764.677,79.602 766.597,82.394C767.477,83.676 768.523,84.927 769.695,86.174L769.822,86.171C770.006,86.072 770.189,85.971 770.383,85.836C772.161,84.707 773.883,83.786 775.501,83.137C779.134,81.646 782.283,81.369 784.951,82.309C785.098,82.348 785.215,82.379 785.322,82.446C786.026,82.746 786.683,83.109 787.291,83.533C788.135,84.132 788.933,84.907 789.663,85.812C790.152,85.158 790.611,84.497 791.042,83.828C791.987,82.289 792.699,80.688 793.197,79.066C793.704,77.409 794.005,75.698 794.072,73.923C793.587,73.98 793.13,74.044 792.673,74.109Z" style="fill:rgb(35,31,32);fill-rule:nonzero;"/>
        </g>
        <g transform="matrix(4.16667,0,0,4.16667,0,0)">
            <path d="M789.83,75.7L789.117,78.122C789.536,78.085 789.925,78.039 790.322,77.96C790.691,77.872 791.08,77.826 791.449,77.74L792.556,74.077C792.003,74.153 791.419,74.221 790.807,74.281C789.202,74.411 787.598,74.541 785.982,74.593C778.774,74.903 771.51,74.6 764.19,73.684L764.792,75.189C771.676,76.325 778.657,76.626 785.796,76.113C787.146,75.989 788.498,75.866 789.83,75.7Z" style="fill:rgb(218,212,208);fill-rule:nonzero;"/>
        </g>
        <g transform="matrix(4.16667,0,0,4.16667,0,0)">
            <path d="M789.117,78.122L789.83,75.7C788.498,75.866 787.146,75.989 785.796,76.113C778.657,76.626 771.676,76.325 764.792,75.189L765.815,77.928C772.242,79.015 778.784,79.2 785.453,78.56C786.679,78.44 787.912,78.285 789.117,78.122Z" style="fill:rgb(238,237,235);fill-rule:nonzero;"/>
        </g>
        <g transform="matrix(4.16667,0,0,4.16667,0,0)">
            <path d="M770.383,85.836C770.189,85.971 770.006,86.072 769.822,86.171C773.5,86.97 777.115,87.304 780.695,87.18C783.71,87.055 786.684,86.619 789.663,85.812C788.933,84.907 788.135,84.132 787.291,83.533C786.683,83.109 786.026,82.746 785.322,82.446C785.512,82.795 785.612,83.12 785.665,83.396C785.816,84.819 784.201,85.693 780.848,86.026C778.329,86.284 774.835,86.207 770.383,85.836Z" style="fill:rgb(159,74,53);fill-rule:nonzero;"/>
        </g>
        <g transform="matrix(4.16667,0,0,4.16667,0,0)">
            <path d="M775.501,83.137C773.883,83.786 772.161,84.707 770.383,85.836C774.835,86.207 778.329,86.284 780.848,86.026C784.201,85.693 785.816,84.819 785.665,83.396C785.612,83.12 785.512,82.795 785.322,82.446C785.215,82.379 785.098,82.348 784.951,82.309C782.283,81.369 779.134,81.646 775.501,83.137Z" style="fill:rgb(198,107,81);fill-rule:nonzero;"/>
        </g>
        <g transform="matrix(4.16667,0,0,4.16667,0,0)">
            <path d="M826.063,68.319C820.414,69.204 817.636,66.089 817.666,59.037C817.728,51.953 817.087,44.076 815.772,35.436C811.957,18.308 803.957,9.607 791.775,9.393C792.478,10.034 793.18,10.675 793.852,11.316C803.53,20.568 809.697,32.658 812.323,47.649C809.271,44.443 806.309,42.092 803.407,40.627C801.882,39.864 800.416,39.344 798.981,39.038C800.386,40.26 801.82,41.482 803.316,42.672C804.508,43.618 805.698,44.534 806.919,45.45C810.277,49.328 811.896,52.901 811.804,56.137C811.987,61.816 812.598,65.876 813.636,68.319C817.788,72.99 821.94,72.99 826.063,68.319Z" style="fill:rgb(199,177,136);fill-rule:nonzero;"/>
        </g>
        <g transform="matrix(4.16667,0,0,4.16667,0,0)">
            <path d="M793.852,11.316C793.18,10.675 792.478,10.034 791.775,9.393C789.119,9.363 786.279,9.729 783.227,10.491C767.899,1.607 754.283,6.889 742.406,26.307C737.124,37.726 734.346,48.778 734.102,59.494C733.949,62.7 733.277,65.082 732.087,66.67C733.46,66.395 734.59,65.662 735.445,64.472C736.025,63.648 736.483,62.578 736.879,61.296C740.818,49.237 745.582,41.634 751.199,38.52C764.419,31.528 775.746,24.109 785.181,16.201L782.738,24.14C781.73,27.161 779.99,30.032 777.487,32.749C783.288,28.323 786.341,23.925 786.615,19.59L787.287,23.925C787.166,24.2 787.074,24.445 786.981,24.72C786.769,25.33 786.494,25.941 786.188,26.552C790.066,30.917 794.31,35.07 798.889,38.978L798.981,39.038C800.416,39.344 801.882,39.864 803.408,40.627C806.309,42.092 809.271,44.443 812.323,47.649C809.697,32.658 803.53,20.568 793.852,11.316Z" style="fill:rgb(231,212,171);fill-rule:nonzero;"/>
        </g>
        <g transform="matrix(4.16667,0,0,4.16667,0,0)">
            <path d="M748.634,45.359C751.352,42.825 754.68,40.84 758.68,39.374C769.152,35.07 777.182,30.001 782.738,24.14L785.181,16.201C775.746,24.109 764.419,31.528 751.199,38.52C745.582,41.634 740.818,49.237 736.879,61.296C736.483,62.578 736.025,63.648 735.445,64.472C734.59,65.662 733.46,66.395 732.087,66.67C730.406,68.959 727.659,69.571 723.843,68.471C730.346,73.081 735.109,72.349 738.193,66.212L741.856,56.137C743.23,51.831 745.49,48.259 748.634,45.359Z" style="fill:rgb(199,177,136);fill-rule:nonzero;"/>
        </g>
        <g transform="matrix(4.16667,0,0,4.16667,0,0)">
            <path d="M741.856,56.137C742.314,55.069 742.986,54.243 743.933,53.603C744.848,52.961 745.49,54.274 745.856,57.541C746.681,54.366 747.627,50.305 748.634,45.359C745.49,48.259 743.23,51.831 741.856,56.137Z" style="fill:rgb(181,163,126);fill-rule:nonzero;"/>
        </g>
        <g transform="matrix(4.16667,0,0,4.16667,0,0)">
            <path d="M806.919,45.45C805.698,44.534 804.508,43.618 803.316,42.672C805.24,49.359 806.797,54.548 807.988,58.212C808.08,56.289 808.567,54.854 809.423,53.846C810.247,52.839 811.041,53.603 811.804,56.137C811.896,52.901 810.277,49.328 806.919,45.45Z" style="fill:rgb(181,163,126);fill-rule:nonzero;"/>
        </g>
        <g transform="matrix(4.16667,0,0,4.16667,0,0)">
            <path d="M768.693,39.741C777.242,37.146 783.074,32.749 786.188,26.552C786.494,25.941 786.769,25.33 786.981,24.72C787.074,24.445 787.166,24.2 787.287,23.925L786.615,19.59C786.341,23.925 783.288,28.323 777.487,32.749C775.197,35.223 772.266,37.542 768.693,39.741Z" style="fill:rgb(199,177,136);fill-rule:nonzero;"/>
        </g>
    </g>
</svg>
