<?xml version="1.0" encoding="UTF-8" standalone="no"?>
<!DOCTYPE svg PUBLIC "-//W3C//DTD SVG 1.1//EN" "http://www.w3.org/Graphics/SVG/1.1/DTD/svg11.dtd">
<svg width="100%" height="100%" viewBox="0 0 352 1287" version="1.1" xmlns="http://www.w3.org/2000/svg" xmlns:xlink="http://www.w3.org/1999/xlink" xml:space="preserve" xmlns:serif="http://www.serif.com/" style="fill-rule:evenodd;clip-rule:evenodd;stroke-linejoin:round;stroke-miterlimit:1.41421;">
    <g transform="matrix(1,0,0,1,-454.093,-6.95318)">
        <g transform="matrix(4.16667,0,0,4.16667,0,0)">
            <path d="M155.732,21.452C155.755,21.382 155.801,21.313 155.848,21.243C157.216,18.762 158.933,17.068 161.043,16.187L161.345,16.164C165.195,17.115 167.932,17.092 169.556,16.094C173.104,18.39 174.75,22.472 174.449,28.364L174.449,36.087C172.594,42.002 168.86,45.667 163.247,47.034L157.124,43.787L155.453,42.906C157.216,44.784 159.652,46.501 162.76,48.102C165.659,47.637 168.141,46.733 170.158,45.364C170.274,45.295 170.367,45.202 170.483,45.132C173.267,43.161 175.191,40.332 176.235,36.597L176.235,33.397L176.235,28.108C178.113,20.941 175.864,15.607 169.486,12.105C166.61,13.774 163.71,14.029 160.812,12.871C158.376,14.099 156.01,16.813 153.691,20.988C154.294,25.79 153.969,29.106 152.717,30.961C151.534,28.573 150.629,27.9 150.003,28.897C149.91,29.198 149.841,29.477 149.771,29.732C149.887,29.755 150.026,29.802 150.188,29.894C150.861,30.289 151.743,31.332 152.833,33.072C155.083,29.964 156.057,26.091 155.732,21.452Z" style="fill:rgb(176,117,95);fill-rule:nonzero;"/>
        </g>
        <g transform="matrix(4.16667,0,0,4.16667,0,0)">
            <path d="M155.848,21.243C155.801,21.313 155.755,21.382 155.732,21.452C156.057,26.091 155.083,29.964 152.833,33.072C151.743,31.332 150.861,30.289 150.188,29.894C149.725,31.495 150.49,32.84 152.485,33.977C152.926,37.479 154.456,40.749 157.124,43.787L163.247,47.034C168.86,45.667 172.594,42.002 174.449,36.087L174.449,28.364C174.75,22.472 173.104,18.39 169.556,16.094C167.932,17.092 165.195,17.115 161.345,16.164L161.043,16.187C158.933,17.068 157.216,18.762 155.848,21.243Z" style="fill:rgb(207,147,121);fill-rule:nonzero;"/>
        </g>
        <g transform="matrix(4.16667,0,0,4.16667,0,0)">
            <path d="M151.325,20.246L151.186,20.199C152.485,15.259 155.593,11.664 160.533,9.368C163.618,10.76 167.027,10.876 170.715,9.693C174.658,10.667 176.467,9.391 176.166,5.866C175.539,5.75 174.82,5.773 173.962,5.935C174.728,3.292 173.475,2.526 170.158,3.616C168.419,0.995 166.679,1.25 164.963,4.358C163.455,0.995 161.391,0.786 158.771,3.732C156.474,2.224 154.201,3.546 151.975,7.698C148.867,7.814 147.335,9.948 147.382,14.099C143.648,15.189 142.744,17.973 144.715,22.449C142.767,24.282 142.999,26.67 145.434,29.616C143.694,30.01 143.973,31.657 146.315,34.556C146.617,30.195 147.73,27.645 149.702,26.925L151.325,20.246ZM151.998,8.394C152.114,8.394 152.23,8.371 152.346,8.301C152.462,8.232 152.531,8.138 152.601,8.023C154.526,4.381 156.474,3.152 158.399,4.312C158.539,4.405 158.701,4.451 158.863,4.427C159.025,4.405 159.188,4.312 159.304,4.196C160.394,2.943 161.368,2.34 162.203,2.364C162.922,2.48 163.595,3.152 164.174,4.335C162.133,3.337 160.626,3.732 159.652,5.518C156.103,5.03 153.946,6.376 153.135,9.6C150.606,9.948 149.261,11.989 149.122,15.723C145.736,15.978 145.063,18.344 147.104,22.844C145.434,24.003 145.086,26.184 146.083,29.361C146.061,29.291 146.014,29.245 145.967,29.175C143.857,26.624 143.602,24.56 145.202,22.96C145.295,22.844 145.365,22.728 145.411,22.588C145.434,22.449 145.411,22.31 145.365,22.171C144.46,20.13 144.205,18.483 144.576,17.208C144.97,16.048 145.991,15.236 147.591,14.772C147.73,14.726 147.846,14.633 147.939,14.517C148.032,14.401 148.078,14.262 148.078,14.099C148.032,10.435 149.331,8.533 151.998,8.394Z" style="fill:rgb(88,89,91);fill-rule:nonzero;"/>
        </g>
        <g transform="matrix(4.16667,0,0,4.16667,0,0)">
            <path d="M152.346,8.301C152.23,8.371 152.114,8.394 151.998,8.394C149.331,8.533 148.032,10.435 148.078,14.099C148.078,14.262 148.032,14.401 147.939,14.517C147.846,14.633 147.73,14.726 147.591,14.772C145.991,15.236 144.97,16.048 144.576,17.208C144.205,18.483 144.46,20.129 145.365,22.171C145.411,22.31 145.434,22.449 145.411,22.588C145.365,22.728 145.295,22.843 145.202,22.96C143.602,24.56 143.857,26.624 145.967,29.175C146.014,29.245 146.061,29.291 146.083,29.361C145.086,26.184 145.434,24.003 147.104,22.843C145.063,18.344 145.736,15.978 149.122,15.723C149.261,11.989 150.606,9.948 153.134,9.6C153.946,6.376 156.103,5.03 159.652,5.518C160.626,3.732 162.133,3.337 164.174,4.335C163.595,3.152 162.922,2.48 162.203,2.364C161.368,2.34 160.394,2.943 159.304,4.196C159.188,4.312 159.025,4.405 158.863,4.427C158.701,4.451 158.539,4.405 158.399,4.312C156.474,3.152 154.526,4.381 152.601,8.023C152.531,8.138 152.462,8.232 152.346,8.301Z" style="fill:rgb(128,130,133);fill-rule:nonzero;"/>
        </g>
        <g transform="matrix(4.16667,0,0,4.16667,0,0)">
            <path d="M151.186,20.199L151.325,20.246L149.701,26.925C147.73,27.645 146.617,30.195 146.315,34.556C146.547,35.136 147.058,35.855 147.823,36.713C147.614,38.569 149.237,40.216 152.694,41.677L152.74,41.607L152.717,41.421L152.74,41.421L152.74,41.7L152.67,44.599L152.624,46.594L152.508,52.09C152.601,52.253 152.694,52.438 152.787,52.625C152.995,52.902 153.204,53.181 153.436,53.482L153.784,42.002C153.413,41.421 153.088,40.841 152.787,40.216L152.81,38.963C152.67,38.638 152.555,38.314 152.438,37.989C152.044,36.806 151.882,35.577 151.928,34.301C149.817,33.907 149.099,32.399 149.771,29.731C149.841,29.477 149.91,29.198 150.003,28.897C150.629,27.9 151.534,28.572 152.717,30.961C153.969,29.106 154.294,25.79 153.691,20.988C156.01,16.813 158.376,14.099 160.812,12.871C163.71,14.029 166.61,13.774 169.486,12.105C175.864,15.607 178.113,20.941 176.235,28.108L176.235,33.397C178.346,32.677 179.297,31.239 179.111,29.129C180.897,27.111 181.268,24.978 180.271,22.704C180.503,20.362 179.969,18.599 178.693,17.37C180.573,13.728 180.479,11.525 178.416,10.759C178.74,7.837 177.998,6.213 176.166,5.866C176.467,9.391 174.658,10.667 170.715,9.693C167.027,10.876 163.618,10.759 160.533,9.368C155.593,11.664 152.485,15.259 151.186,20.199Z" style="fill:rgb(35,31,32);fill-rule:nonzero;"/>
        </g>
        <g transform="matrix(4.16667,0,0,4.16667,0,0)">
            <path d="M149.771,29.731C149.099,32.399 149.817,33.907 151.928,34.301C151.882,35.577 152.044,36.806 152.438,37.989C152.555,38.314 152.67,38.638 152.81,38.963C153.389,40.332 154.271,41.653 155.453,42.906L157.124,43.787C154.456,40.749 152.926,37.479 152.485,33.977C150.49,32.84 149.725,31.495 150.188,29.894C150.026,29.802 149.887,29.755 149.771,29.731Z" style="fill:rgb(224,188,174);fill-rule:nonzero;"/>
        </g>
        <g transform="matrix(4.16667,0,0,4.16667,0,0)">
            <path d="M169.741,46.988C168.836,47.429 167.932,47.823 167.027,48.171L166.123,57.147L168.188,69.37L165.96,65.172C161.786,62.806 157.611,58.91 153.436,53.482C153.204,53.181 152.995,52.902 152.787,52.625C152.972,52.995 153.181,53.366 153.413,53.76C155.963,58.144 159.93,62.459 165.334,66.656L168.419,73.614C168.883,71.967 169.185,70.136 169.324,68.164C169.393,67.12 169.439,66.053 169.416,64.939C169.393,63.827 169.324,62.667 169.23,61.461L168.233,56.567C168.303,55.616 168.396,54.689 168.512,53.737C168.767,51.51 169.185,49.261 169.741,46.988Z" style="fill:rgb(176,117,95);fill-rule:nonzero;"/>
        </g>
        <g transform="matrix(4.16667,0,0,4.16667,0,0)">
            <path d="M167.027,48.171C167.932,47.823 168.836,47.429 169.741,46.988C169.857,46.455 169.996,45.898 170.158,45.364C168.141,46.733 165.659,47.637 162.76,48.102C159.652,46.501 157.216,44.784 155.453,42.906C154.271,41.653 153.389,40.332 152.81,38.963L152.787,40.216C153.088,40.841 153.413,41.421 153.784,42.002C155.732,45.04 158.677,47.429 162.62,49.191C164.082,49.029 165.566,48.681 167.027,48.171Z" style="fill:rgb(156,110,94);fill-rule:nonzero;"/>
        </g>
        <g transform="matrix(4.16667,0,0,4.16667,0,0)">
            <path d="M168.512,53.737C168.396,54.689 168.303,55.616 168.233,56.567L169.23,61.461C169.324,62.667 169.393,63.827 169.416,64.939L173.104,64.105C171.573,61.136 170.646,58.33 170.344,55.663L168.512,53.737Z" style="fill:rgb(212,223,209);fill-rule:nonzero;"/>
        </g>
        <g transform="matrix(4.16667,0,0,4.16667,0,0)">
            <path d="M172.153,57.587L170.344,55.663C170.646,58.33 171.573,61.136 173.104,64.105L169.416,64.939C169.439,66.053 169.393,67.12 169.324,68.164C169.486,66.401 172.153,66.006 177.302,66.958L173.15,59.397L172.153,57.587Z" style="fill:rgb(191,207,178);fill-rule:nonzero;"/>
        </g>
        <g transform="matrix(4.16667,0,0,4.16667,0,0)">
            <path d="M167.027,48.171C165.566,48.681 164.082,49.029 162.62,49.191C158.677,47.429 155.732,45.04 153.784,42.002L153.436,53.482C157.611,58.91 161.786,62.806 165.96,65.172L168.187,69.37L166.123,57.147L167.027,48.171Z" style="fill:rgb(207,147,121);fill-rule:nonzero;"/>
        </g>
        <g transform="matrix(4.16667,0,0,4.16667,0,0)">
            <path d="M174.496,59.675C174.055,59.582 173.591,59.49 173.15,59.397L177.302,66.958C172.153,66.006 169.486,66.401 169.324,68.164C169.185,70.135 168.883,71.967 168.419,73.614L165.334,66.656C162.713,66.424 160.417,67.561 158.422,70.043C158.631,70.414 158.84,70.808 159.049,71.202L164.383,69.324L168.396,75.076L168.257,81.778L169.092,82.915C169.23,83.078 169.37,83.216 169.532,83.379C169.625,77.558 170.39,72.873 171.828,69.324L178.856,68.326L174.496,59.675Z" style="fill:rgb(104,130,84);fill-rule:nonzero;"/>
        </g>
        <g transform="matrix(4.16667,0,0,4.16667,0,0)">
            <path d="M161.507,76.328C161.971,77.372 162.435,78.462 162.899,79.599L157.518,79.019C156.242,78.81 155.314,78.995 154.688,79.575C154.201,80.016 153.923,80.689 153.853,81.593L159.118,81.593L160.812,83.216L155.43,83.216C154.062,83.819 153.367,84.539 153.343,85.397L159.049,85.397L160.58,86.742L153.784,86.742C153.343,87.322 153.157,87.855 153.273,88.319L160.162,89.618L160.301,90.662L154.711,89.665C154.364,90.174 154.178,90.638 154.201,91.08C157.843,92.726 162.388,94.164 167.792,95.347L170.367,97.458L177.882,112.719C179.018,115.038 181.384,117.055 184.979,118.795C187.136,117.334 188.783,115.362 189.942,112.904C190.824,108.288 191.01,103.882 190.5,99.638L185.049,100.078C187.994,102.56 189.479,105.366 189.479,108.52C188.528,106.271 186.417,103.905 183.193,101.469L173.985,93.676L165.241,79.854L161.507,76.328Z" style="fill:rgb(207,147,121);fill-rule:nonzero;"/>
        </g>
        <g transform="matrix(4.16667,0,0,4.16667,0,0)">
            <path d="M162.899,79.599C162.435,78.462 161.971,77.372 161.507,76.328C160.812,74.774 160.116,73.29 159.42,71.921C159.304,71.666 159.165,71.434 159.049,71.202C158.84,70.808 158.631,70.414 158.422,70.043C153.9,61.809 149.145,57.193 144.159,56.196C143.208,55.987 142.233,55.94 141.259,56.034L136.992,57.24C142.326,56.798 146.733,59.048 150.212,63.966L159.188,77.859L153.668,77.186C154.016,77.952 154.34,78.763 154.688,79.575C155.314,78.995 156.242,78.81 157.518,79.019L162.899,79.599Z" style="fill:rgb(135,71,60);fill-rule:nonzero;"/>
        </g>
        <g transform="matrix(4.16667,0,0,4.16667,0,0)">
            <path d="M159.42,71.921L162.899,74.217L168.257,81.778L168.396,75.076L164.383,69.324L159.049,71.202C159.165,71.434 159.304,71.666 159.42,71.921Z" style="fill:rgb(123,164,105);fill-rule:nonzero;"/>
        </g>
        <g transform="matrix(4.16667,0,0,4.16667,0,0)">
            <path d="M162.899,74.217L159.42,71.921C160.116,73.29 160.812,74.774 161.507,76.328L165.241,79.853L173.985,93.676L183.193,101.469C186.417,103.905 188.528,106.271 189.479,108.52C189.479,105.366 187.994,102.559 185.049,100.078L190.5,99.638C191.01,103.882 190.824,108.288 189.942,112.904C188.783,115.362 187.136,117.334 184.979,118.795C184.724,118.957 184.492,119.096 184.237,119.259C184.863,119.421 185.536,119.561 186.208,119.63C190.36,116.94 192.447,113.159 192.424,108.312C192.424,108.219 192.424,108.127 192.424,108.033C192.401,107.963 192.401,107.871 192.401,107.802L191.821,97.991L191.751,97.04C189.224,97.04 186.834,97.921 184.585,99.708C184.074,99.313 183.518,98.919 182.915,98.524C182.428,98.223 181.94,97.921 181.407,97.62C178.183,95.323 175.911,92.888 174.612,90.36L169.462,83.425L169.092,82.915L168.257,81.778L162.899,74.217Z" style="fill:rgb(176,117,95);fill-rule:nonzero;"/>
        </g>
        <g transform="matrix(4.16667,0,0,4.16667,0,0)">
            <path d="M158.422,70.043C160.417,67.561 162.713,66.424 165.334,66.656C159.93,62.459 155.963,58.144 153.413,53.76C153.181,53.366 152.972,52.995 152.787,52.625C152.694,52.438 152.601,52.253 152.508,52.09C151.696,50.444 151.093,48.797 150.653,47.15L152.624,46.594L152.67,44.599L149.446,46.826C149.307,47.684 149.029,48.612 148.588,49.585C153.088,55.245 156.289,60.51 158.213,65.357L156.66,65.357C154.572,61.762 150.931,58.028 145.759,54.202C145.272,54.851 144.738,55.523 144.159,56.196C149.145,57.193 153.9,61.809 158.422,70.043Z" style="fill:rgb(191,207,178);fill-rule:nonzero;"/>
        </g>
        <g transform="matrix(4.16667,0,0,4.16667,0,0)">
            <path d="M189.015,73.406C188.064,68.234 185.281,64.406 180.711,61.948C184.028,67.097 186.301,74.426 187.553,83.913L188.389,90.105L183.704,92.378C184.306,85.443 184.052,78.369 182.961,71.179L180.967,93.051C177.835,91.357 174.032,88.133 169.532,83.379L169.462,83.425L174.612,90.36C175.911,92.888 178.183,95.323 181.407,97.62C181.94,97.921 182.428,98.223 182.915,98.524C182.938,98.316 182.984,98.13 183.008,97.921C183.217,96.599 183.379,95.254 183.541,93.909C185.35,92.795 187.159,92.007 188.969,91.566C189.942,91.311 190.917,91.172 191.868,91.126L190.291,85.119L189.015,73.405L189.015,73.406Z" style="fill:rgb(104,130,84);fill-rule:nonzero;"/>
        </g>
        <g transform="matrix(4.16667,0,0,4.16667,0,0)">
            <path d="M178.856,68.326L171.828,69.324C170.39,72.873 169.625,77.558 169.532,83.379C174.032,88.133 177.835,91.357 180.967,93.051L182.961,71.179C184.052,78.369 184.306,85.443 183.704,92.378L188.389,90.105L187.553,83.913C186.301,74.426 184.028,67.097 180.711,61.948C178.925,60.974 176.838,60.209 174.496,59.675L178.856,68.326Z" style="fill:rgb(123,164,105);fill-rule:nonzero;"/>
        </g>
        <g transform="matrix(4.16667,0,0,4.16667,0,0)">
            <path d="M152.74,41.7L152.74,41.607L152.694,41.677C152.717,41.7 152.717,41.7 152.74,41.7Z" style="fill:rgb(88,89,91);fill-rule:nonzero;"/>
        </g>
        <g transform="matrix(4.16667,0,0,4.16667,0,0)">
            <path d="M150.653,47.15C151.093,48.797 151.696,50.444 152.508,52.091L152.624,46.594L150.653,47.15Z" style="fill:rgb(86,116,75);fill-rule:nonzero;"/>
        </g>
        <g transform="matrix(4.16667,0,0,4.16667,0,0)">
            <path d="M148.588,49.585C147.962,51 147.011,52.532 145.759,54.202C150.931,58.028 154.572,61.762 156.66,65.357L158.213,65.357C156.289,60.51 153.088,55.245 148.588,49.585Z" style="fill:rgb(212,223,209);fill-rule:nonzero;"/>
        </g>
        <g transform="matrix(4.16667,0,0,4.16667,0,0)">
            <path d="M136.992,57.24L135.762,57.587L133.118,61.392L132.446,62.342C133.86,61.531 135.391,60.997 137.038,60.743C143.347,61.136 148.89,66.633 153.668,77.186L159.188,77.859L150.212,63.966C146.733,59.048 142.326,56.798 136.992,57.24Z" style="fill:rgb(203,110,88);fill-rule:nonzero;"/>
        </g>
        <g transform="matrix(4.16667,0,0,4.16667,0,0)">
            <path d="M132.446,62.342C132.26,62.459 132.074,62.574 131.889,62.69C132.375,62.713 132.863,62.76 133.35,62.83C133.976,62.922 134.579,63.038 135.159,63.154C142.744,64.87 148.171,70.576 151.465,80.248C150.676,86.997 151.279,91.543 153.297,93.885L151.743,103.418L153.019,106.085L153.019,107.778L136.11,115.246L135.321,112.974L138.708,107.5C138.175,107.129 137.664,106.758 137.154,106.41C136.481,108.706 135.414,111.025 133.976,113.345L135.414,117.218L152.323,110.469L154.016,109.773L156.265,105.899C155.917,105.645 155.593,105.343 155.291,105.041C154.943,104.693 154.618,104.276 154.364,103.835L157.193,95.671L157.889,93.631C155.477,93.004 154.248,92.169 154.201,91.08C154.178,90.638 154.364,90.174 154.711,89.665C153.853,89.316 153.389,88.853 153.273,88.319C153.157,87.855 153.343,87.321 153.784,86.742C153.482,86.254 153.32,85.814 153.343,85.397C153.367,84.539 154.062,83.819 155.43,83.216L153.9,83.216C153.831,82.614 153.807,82.081 153.853,81.593C153.923,80.689 154.201,80.016 154.688,79.575C154.34,78.763 154.016,77.952 153.668,77.186C148.89,66.633 143.347,61.136 137.038,60.743C135.391,60.997 133.86,61.531 132.446,62.342Z" style="fill:rgb(104,130,84);fill-rule:nonzero;"/>
        </g>
        <g transform="matrix(4.16667,0,0,4.16667,0,0)">
            <path d="M131.889,62.69C132.074,62.574 132.26,62.459 132.446,62.342L133.118,61.392C131.657,61.739 130.266,62.134 128.942,62.598C127.343,63.595 125.928,65.009 124.699,66.842C123.818,68.141 123.029,69.672 122.333,71.411C122.101,71.967 121.87,72.547 121.661,73.174C121.034,75.029 120.478,77.093 120.014,79.366C119.991,79.436 119.991,79.528 119.967,79.599C119.526,81.778 119.179,84.145 118.9,86.719L118.065,102.026L117.95,121.857C115.885,120.582 114.703,118.192 114.447,114.713C114.424,114.551 114.424,114.412 114.424,114.249C112.917,93.607 116.28,77.047 124.56,64.568C123.284,65.264 122.101,66.053 121.011,66.935C120.478,67.747 119.991,68.605 119.503,69.532C117.486,73.266 115.7,77.882 114.123,83.356C112.591,94.674 111.896,104.462 112.012,112.695C112.383,117.96 114.146,121.764 117.3,124.06L117.3,130.601C118.019,131.343 118.761,132.062 119.573,132.78C119.202,129.256 119.04,125.799 119.086,122.414C119.155,117.473 119.643,112.695 120.547,108.033L121.15,101.562L121.313,99.684C120.872,99.615 120.408,99.545 119.967,99.499C119.991,98.78 120.014,98.084 120.06,97.388C120.129,95.462 120.223,93.631 120.385,91.868C120.455,91.103 120.524,90.337 120.617,89.595C122.078,75.47 125.835,66.517 131.889,62.69Z" style="fill:rgb(135,71,60);fill-rule:nonzero;"/>
        </g>
        <g transform="matrix(4.16667,0,0,4.16667,0,0)">
            <path d="M133.35,62.83C132.863,62.76 132.375,62.713 131.889,62.69C125.835,66.517 122.078,75.47 120.617,89.595C120.941,89.665 121.266,89.711 121.614,89.78C122.959,77.79 126.879,68.814 133.35,62.83Z" style="fill:rgb(123,164,105);fill-rule:nonzero;"/>
        </g>
        <g transform="matrix(4.16667,0,0,4.16667,0,0)">
            <path d="M135.159,63.154C134.579,63.038 133.976,62.922 133.35,62.83C126.879,68.814 122.959,77.79 121.614,89.78C122.17,89.873 122.728,89.989 123.261,90.105C125.604,79.645 129.569,70.669 135.159,63.154Z" style="fill:rgb(159,191,146);fill-rule:nonzero;"/>
        </g>
        <g transform="matrix(4.16667,0,0,4.16667,0,0)">
            <path d="M128.942,62.598C127.389,63.154 125.928,63.803 124.56,64.568C116.28,77.047 112.917,93.607 114.424,114.249C114.424,114.412 114.424,114.551 114.447,114.713C114.703,118.192 115.885,120.582 117.95,121.857L118.065,102.026L118.9,86.719C119.179,84.145 119.526,81.778 119.967,79.599C119.991,79.528 119.991,79.436 120.014,79.366C120.478,77.093 121.034,75.029 121.661,73.174C121.87,72.547 122.101,71.967 122.333,71.411C123.029,69.672 123.818,68.141 124.699,66.842C125.928,65.009 127.343,63.595 128.942,62.598ZM122.031,70.297C121.661,71.133 121.313,72.014 121.011,72.965L121.011,72.941C120.431,74.588 119.944,76.375 119.526,78.346C116.117,88.458 114.935,100.403 115.955,114.203C115.955,114.226 115.955,114.226 115.955,114.249C115.955,114.388 115.955,114.528 115.978,114.644L115.978,114.667C116.141,116.545 116.558,118.099 117.277,119.282L117.277,120.396C116.048,119.12 115.352,117.194 115.143,114.667L115.143,114.644C115.12,114.528 115.12,114.388 115.12,114.249C115.12,114.226 115.12,114.226 115.12,114.203C113.821,96.553 116.117,81.918 122.031,70.297Z" style="fill:rgb(203,110,88);fill-rule:nonzero;"/>
        </g>
        <g transform="matrix(4.16667,0,0,4.16667,0,0)">
            <path d="M121.011,72.965C121.313,72.014 121.661,71.133 122.031,70.297C116.117,81.918 113.821,96.553 115.12,114.203C115.12,114.226 115.12,114.226 115.12,114.249C115.12,114.388 115.12,114.528 115.143,114.644L115.143,114.667C115.352,117.194 116.048,119.12 117.277,120.396L117.277,119.282C116.558,118.099 116.141,116.545 115.978,114.667L115.978,114.644C115.955,114.528 115.955,114.388 115.955,114.249C115.955,114.226 115.955,114.226 115.955,114.203C114.935,100.403 116.117,88.458 119.526,78.346C119.944,76.375 120.431,74.588 121.011,72.941L121.011,72.965Z" style="fill:rgb(220,159,152);fill-rule:nonzero;"/>
        </g>
        <g transform="matrix(4.16667,0,0,4.16667,0,0)">
            <path d="M151.465,80.248C148.171,70.576 142.744,64.87 135.159,63.154C129.569,70.669 125.604,79.645 123.261,90.105C129.268,91.381 134.834,93.538 139.96,96.553L148.635,85.675C145.573,91.172 143.022,96.506 140.958,101.702C140.238,103.533 139.566,105.32 138.963,107.106C138.893,107.268 138.847,107.407 138.801,107.569C138.777,107.546 138.731,107.523 138.708,107.5L135.321,112.974L136.11,115.246L153.019,107.778L153.019,106.085L151.743,103.418L153.297,93.885C151.279,91.543 150.676,86.997 151.464,80.248L151.465,80.248Z" style="fill:rgb(123,164,105);fill-rule:nonzero;"/>
        </g>
        <g transform="matrix(4.16667,0,0,4.16667,0,0)">
            <path d="M153.343,85.397C153.32,85.814 153.482,86.254 153.784,86.742L160.58,86.742L159.049,85.397L153.343,85.397Z" style="fill:rgb(176,117,95);fill-rule:nonzero;"/>
        </g>
        <g transform="matrix(4.16667,0,0,4.16667,0,0)">
            <path d="M153.9,83.216L160.812,83.216L159.118,81.593L153.853,81.593C153.807,82.081 153.831,82.614 153.9,83.216Z" style="fill:rgb(176,117,95);fill-rule:nonzero;"/>
        </g>
        <g transform="matrix(4.16667,0,0,4.16667,0,0)">
            <path d="M153.273,88.319C153.389,88.853 153.853,89.316 154.711,89.665L160.301,90.662L160.162,89.618L153.273,88.319Z" style="fill:rgb(176,117,95);fill-rule:nonzero;"/>
        </g>
        <g transform="matrix(4.16667,0,0,4.16667,0,0)">
            <path d="M157.193,95.671L154.364,103.835C154.618,104.276 154.943,104.693 155.291,105.041L158.492,99.197L162.852,98.501L157.193,95.671Z" style="fill:rgb(203,110,88);fill-rule:nonzero;"/>
        </g>
        <g transform="matrix(4.16667,0,0,4.16667,0,0)">
            <path d="M148.635,85.675L139.96,96.553C134.834,93.538 129.268,91.381 123.261,90.105C122.728,89.989 122.17,89.873 121.614,89.78C121.266,89.711 120.941,89.665 120.617,89.595C120.524,90.337 120.455,91.103 120.385,91.868C126.461,92.981 132.538,95.694 138.639,99.986C139.404,100.519 140.192,101.098 140.958,101.701C143.022,96.506 145.573,91.172 148.635,85.675Z" style="fill:rgb(104,130,84);fill-rule:nonzero;"/>
        </g>
        <g transform="matrix(4.16667,0,0,4.16667,0,0)">
            <path d="M121.15,101.562C121.614,101.678 122.078,101.817 122.519,101.98C126.717,103.302 130.172,105.413 132.839,108.288L129.106,115.2C130.451,121.439 130.752,127.655 130.033,133.848C129.755,136.144 129.337,138.44 128.804,140.736C128.294,146.442 129.8,152.194 133.304,158.016L140.702,161.007L138.221,159.176C133.002,156.554 130.822,151.011 131.657,142.568C132.33,139.6 132.817,136.701 133.118,133.848C133.234,132.549 133.327,131.274 133.396,129.998C133.419,129.302 133.419,128.607 133.443,127.911C133.443,126.078 133.374,124.292 133.234,122.529C133.188,122.043 133.141,121.579 133.095,121.115C132.979,120.164 132.863,119.236 132.701,118.308C132.562,117.496 132.399,116.685 132.237,115.873C132.863,115.015 133.443,114.18 133.976,113.345C135.414,111.025 136.481,108.706 137.154,106.41C131.703,102.699 126.438,100.45 121.313,99.684L121.15,101.562Z" style="fill:rgb(176,117,95);fill-rule:nonzero;"/>
        </g>
        <g transform="matrix(4.16667,0,0,4.16667,0,0)">
            <path d="M122.519,101.98C122.078,101.817 121.614,101.678 121.15,101.562L120.547,108.033C119.643,112.695 119.155,117.473 119.086,122.414C119.04,125.799 119.202,129.256 119.573,132.78C119.596,133.128 119.643,133.5 119.689,133.848C119.689,133.917 119.689,134.01 119.712,134.08C120.431,140.179 121.776,146.488 123.702,152.983C124.444,157.505 124.815,161.309 124.792,164.347C124.769,164.486 124.769,164.626 124.769,164.788C124.513,165.693 124.815,166.389 125.696,166.876C126.577,162.399 126.229,156.995 124.652,150.687C122.959,144.934 121.823,139.321 121.22,133.848C120.199,124.825 120.64,116.174 122.519,107.894L122.519,101.98Z" style="fill:rgb(224,188,174);fill-rule:nonzero;"/>
        </g>
        <g transform="matrix(4.16667,0,0,4.16667,0,0)">
            <path d="M138.639,99.986L137.015,103.58C132.469,100.264 126.81,98.2 120.06,97.388C120.014,98.084 119.991,98.78 119.967,99.499C120.408,99.545 120.872,99.615 121.313,99.684C126.438,100.45 131.703,102.699 137.154,106.41C137.664,106.758 138.175,107.129 138.708,107.5C138.731,107.523 138.777,107.546 138.801,107.569C138.847,107.407 138.893,107.268 138.963,107.106C139.566,105.32 140.238,103.533 140.958,101.701C140.192,101.098 139.404,100.519 138.639,99.986Z" style="fill:rgb(191,207,178);fill-rule:nonzero;"/>
        </g>
        <g transform="matrix(4.16667,0,0,4.16667,0,0)">
            <path d="M137.015,103.58L138.639,99.986C132.538,95.694 126.461,92.981 120.385,91.868C120.223,93.631 120.129,95.462 120.06,97.388C126.81,98.2 132.469,100.264 137.015,103.58Z" style="fill:rgb(212,223,209);fill-rule:nonzero;"/>
        </g>
        <g transform="matrix(4.16667,0,0,4.16667,0,0)">
            <path d="M132.237,115.873C132.399,116.685 132.562,117.496 132.701,118.308L135.414,117.218L133.976,113.345C133.443,114.18 132.863,115.015 132.237,115.873Z" style="fill:rgb(231,232,233);fill-rule:nonzero;"/>
        </g>
        <g transform="matrix(4.16667,0,0,4.16667,0,0)">
            <path d="M135.623,122.808L135.832,121.416L133.234,122.529C133.374,124.292 133.443,126.078 133.443,127.911L134.788,128.513L135.623,122.808Z" style="fill:rgb(231,232,233);fill-rule:nonzero;"/>
        </g>
        <g transform="matrix(4.16667,0,0,4.16667,0,0)">
            <path d="M135.832,121.416L135.623,122.808L158.353,111.651L135.832,121.416Z" style="fill:rgb(104,130,84);fill-rule:nonzero;"/>
        </g>
        <g transform="matrix(4.16667,0,0,4.16667,0,0)">
            <path d="M133.234,122.529L135.832,121.416L158.353,111.651L160.417,107.315L163.27,101.237L161.438,100.658L156.173,110.7L154.016,109.773L152.323,110.469L154.688,111.442L133.095,121.115C133.141,121.579 133.188,122.043 133.234,122.529Z" style="fill:rgb(35,31,32);fill-rule:nonzero;"/>
        </g>
        <g transform="matrix(4.16667,0,0,4.16667,0,0)">
            <path d="M135.414,117.218L132.701,118.308C132.863,119.236 132.979,120.164 133.095,121.115L154.688,111.442L152.323,110.469L135.414,117.218Z" style="fill:rgb(88,89,91);fill-rule:nonzero;"/>
        </g>
        <g transform="matrix(4.16667,0,0,4.16667,0,0)">
            <path d="M129.106,115.2L132.839,108.288C130.172,105.413 126.717,103.302 122.519,101.98L122.519,107.894C120.64,116.174 120.199,124.825 121.22,133.848C121.823,139.321 122.959,144.934 124.652,150.687C126.229,156.995 126.577,162.399 125.696,166.876C126.067,167.084 126.531,167.247 127.087,167.362C127.992,168.545 128.804,168.894 129.5,168.429C130.892,170.633 132.19,170.888 133.396,169.149C134.277,171.167 135.414,171.862 136.806,171.213L137.362,162.538C140.633,165.6 143.764,167.27 146.709,167.525C147.058,167.177 147.405,166.713 147.707,166.18L140.702,161.007L133.303,158.016C129.8,152.194 128.294,146.442 128.804,140.736C129.337,138.44 129.755,136.144 130.033,133.848C130.752,127.655 130.451,121.439 129.106,115.2Z" style="fill:rgb(207,147,121);fill-rule:nonzero;"/>
        </g>
        <g transform="matrix(4.16667,0,0,4.16667,0,0)">
            <path d="M154.016,109.773L156.173,110.7L161.438,100.658L159.628,100.078L156.265,105.899L154.016,109.773Z" style="fill:rgb(88,89,91);fill-rule:nonzero;"/>
        </g>
        <g transform="matrix(4.16667,0,0,4.16667,0,0)">
            <path d="M155.291,105.041C155.593,105.343 155.917,105.645 156.265,105.899L159.628,100.078L161.438,100.658L163.27,101.237L160.417,107.315C161.043,107.36 161.716,107.36 162.435,107.337L166.448,96.646C163.595,96.274 160.742,95.277 157.889,93.631L157.193,95.671L162.852,98.501L158.492,99.197L155.291,105.041Z" style="fill:rgb(135,71,60);fill-rule:nonzero;"/>
        </g>
        <g transform="matrix(4.16667,0,0,4.16667,0,0)">
            <path d="M191.868,91.126C190.917,91.172 189.942,91.311 188.969,91.566L189.803,95.718L183.008,97.921C182.984,98.13 182.938,98.316 182.915,98.524C183.518,98.919 184.074,99.313 184.585,99.708C186.834,97.921 189.224,97.04 191.751,97.04C192.308,97.04 192.865,97.086 193.445,97.156L191.868,91.126Z" style="fill:rgb(191,207,178);fill-rule:nonzero;"/>
        </g>
        <g transform="matrix(4.16667,0,0,4.16667,0,0)">
            <path d="M183.541,93.909C183.379,95.254 183.217,96.599 183.008,97.921L189.803,95.718L188.969,91.566C187.159,92.007 185.35,92.795 183.541,93.909Z" style="fill:rgb(212,223,209);fill-rule:nonzero;"/>
        </g>
        <g transform="matrix(4.16667,0,0,4.16667,0,0)">
            <path d="M193.445,97.156C192.865,97.086 192.308,97.04 191.751,97.04L191.821,97.991L193.445,97.156Z" style="fill:rgb(86,116,75);fill-rule:nonzero;"/>
        </g>
        <g transform="matrix(4.16667,0,0,4.16667,0,0)">
            <path d="M169.532,83.379C169.37,83.216 169.23,83.078 169.092,82.915L169.462,83.425L169.532,83.379Z" style="fill:rgb(123,164,105);fill-rule:nonzero;"/>
        </g>
        <g transform="matrix(4.16667,0,0,4.16667,0,0)">
            <path d="M157.889,93.631C160.742,95.277 163.595,96.274 166.448,96.646C167.212,96.738 168.001,96.785 168.767,96.808L167.792,95.347C162.388,94.164 157.843,92.726 154.201,91.08C154.248,92.169 155.477,93.004 157.889,93.631Z" style="fill:rgb(176,117,95);fill-rule:nonzero;"/>
        </g>
        <g transform="matrix(4.16667,0,0,4.16667,0,0)">
            <path d="M167.792,95.347L168.767,96.808L176.375,112.603C177.186,114.017 178.113,115.246 179.111,116.243C180.619,117.728 182.312,118.725 184.237,119.259C184.492,119.096 184.724,118.957 184.979,118.795C181.384,117.055 179.018,115.038 177.882,112.719L170.367,97.458L167.792,95.347Z" style="fill:rgb(224,188,174);fill-rule:nonzero;"/>
        </g>
        <g transform="matrix(4.16667,0,0,4.16667,0,0)">
            <path d="M168.767,96.808C168.001,96.785 167.212,96.738 166.448,96.646L162.435,107.338C161.716,107.36 161.043,107.36 160.417,107.315L158.353,111.651L161.298,108.892L163.965,108.892L167.329,100.889L174.496,116.337L178.438,144.702C173.73,150.316 168.28,151.962 162.133,149.619L163.177,140.968L158.26,153.099C162.922,154.513 166.749,155.371 169.741,155.627C171.202,155.743 172.478,155.719 173.544,155.557C175.191,155.302 176.351,154.699 177,153.748C177.093,153.609 177.186,153.469 177.255,153.33C177.696,152.194 178.346,151.266 179.157,150.524C180.573,149.202 182.567,148.437 185.142,148.274L179.111,116.243C178.113,115.246 177.186,114.017 176.375,112.603L168.767,96.808Z" style="fill:rgb(104,130,84);fill-rule:nonzero;"/>
        </g>
        <g transform="matrix(4.16667,0,0,4.16667,0,0)">
            <path d="M163.965,108.891L161.298,108.891L158.353,111.651L135.623,122.808L134.788,128.513L163.177,140.968L162.133,149.619C168.28,151.962 173.73,150.316 178.438,144.702L174.496,116.337L167.329,100.889L163.965,108.891Z" style="fill:rgb(123,164,105);fill-rule:nonzero;"/>
        </g>
        <g transform="matrix(4.16667,0,0,4.16667,0,0)">
            <path d="M117.3,124.06C114.146,121.764 112.383,117.96 112.012,112.695C111.896,104.462 112.591,94.674 114.123,83.356C115.7,77.882 117.486,73.266 119.503,69.533C119.991,68.605 120.478,67.747 121.011,66.935C118.297,69.091 116.094,71.736 114.447,74.913C111.061,85.35 109.438,95.578 109.554,105.575C107.721,115.015 110.295,123.341 117.3,130.601L117.3,124.06ZM115.097,75.191C115.955,73.544 116.975,72.037 118.135,70.669C117.926,71.109 117.694,71.55 117.486,72.014C116.836,72.918 116.256,73.893 115.723,74.913C112.337,85.35 110.713,95.579 110.829,105.575C109.183,114.064 111.107,121.671 116.604,128.398L116.604,128.815C110.689,122.043 108.556,114.342 110.249,105.714C110.249,105.645 110.249,105.598 110.249,105.575C110.133,95.648 111.733,85.513 115.097,75.191Z" style="fill:rgb(203,110,88);fill-rule:nonzero;"/>
        </g>
        <g transform="matrix(4.16667,0,0,4.16667,0,0)">
            <path d="M118.135,70.669C116.975,72.037 115.955,73.544 115.097,75.191C111.733,85.513 110.133,95.648 110.249,105.575C110.249,105.598 110.249,105.645 110.249,105.714C108.556,114.342 110.689,122.043 116.604,128.815L116.604,128.397C111.107,121.671 109.183,114.064 110.829,105.575C110.713,95.578 112.337,85.35 115.723,74.913C116.256,73.892 116.836,72.918 117.486,72.014C117.694,71.55 117.926,71.109 118.135,70.669Z" style="fill:rgb(220,159,152);fill-rule:nonzero;"/>
        </g>
        <g transform="matrix(4.16667,0,0,4.16667,0,0)">
            <path d="M119.712,134.08L118.414,136.979C118.854,144.006 120.153,151.29 122.264,158.874L110.412,157.483L124.792,164.347C124.815,161.309 124.444,157.505 123.702,152.983C121.776,146.488 120.431,140.179 119.712,134.08Z" style="fill:rgb(35,31,32);fill-rule:nonzero;"/>
        </g>
        <g transform="matrix(4.16667,0,0,4.16667,0,0)">
            <path d="M109.298,156.948L110.412,157.483L122.264,158.874C120.153,151.29 118.854,144.006 118.414,136.979L109.298,156.948Z" style="fill:rgb(88,89,91);fill-rule:nonzero;"/>
        </g>
        <g transform="matrix(4.16667,0,0,4.16667,0,0)">
            <path d="M173.544,155.557C172.478,155.719 171.202,155.743 169.741,155.627C166.749,155.371 162.922,154.513 158.26,153.099L149.331,175.086L145.944,175.086L140.169,172.28C138.151,174.53 136.389,175.04 134.904,173.834C134.719,174.553 134.556,175.295 134.417,176.014C136.412,176.988 138.406,177.173 140.401,176.57L150.629,178.542L160.325,156.346L164.104,158.596L145.991,220.105L142.906,227.411L145.782,249.746L143.88,272.894L139.125,282.032L142.488,287.923C141.398,288.248 140.285,288.526 139.172,288.758C134.254,289.755 129.082,289.802 123.678,288.898C123.516,289.64 123.377,290.382 123.238,291.124C123.655,291.24 124.073,291.379 124.49,291.495C128.595,292.632 132.399,293.234 135.878,293.351C137.107,293.397 138.314,293.374 139.473,293.281C140.146,293.212 140.818,293.142 141.467,293.049C141.932,292.98 142.396,292.887 142.859,292.794C143.811,292.585 144.761,292.354 145.666,292.052C145.829,291.983 146.014,291.913 146.223,291.843C146.802,291.635 147.359,291.379 147.916,291.124L147.916,285.349L144.715,280.547L148.565,274.773L150.165,250.721L147.266,228.292L156.033,199.694L163.038,176.849L172.5,157.691L176.606,156.207C175.725,180.003 173.058,201.829 168.581,221.706L163.827,237.802L167.329,243.692L168.744,263.06C164.592,267.142 159.466,268.394 153.32,266.817L153.042,268.046C153.389,268.278 153.761,268.487 154.108,268.696C157.843,270.83 161.438,271.479 164.87,270.621C165.751,270.412 166.633,270.087 167.491,269.67C168.303,269.276 169.092,268.766 169.903,268.185C170.691,267.606 171.48,266.956 172.246,266.214C172.408,266.052 172.547,265.912 172.71,265.75C172.988,265.449 173.267,265.147 173.568,264.822L172.269,244.644L169.068,237.268C176.096,207.882 179.459,178.96 179.157,150.524C178.346,151.266 177.696,152.194 177.255,153.33C177.186,153.469 177.093,153.609 177,153.748C176.351,154.699 175.191,155.302 173.544,155.557ZM169.208,157.366L171.411,157.366L164.847,171.12L169.208,157.366Z" style="fill:rgb(51,60,55);fill-rule:nonzero;"/>
        </g>
        <g transform="matrix(4.16667,0,0,4.16667,0,0)">
            <path d="M171.411,157.366L169.208,157.366L164.847,171.12L171.411,157.366Z" style="fill:rgb(80,89,82);fill-rule:nonzero;"/>
        </g>
        <g transform="matrix(4.16667,0,0,4.16667,0,0)">
            <path d="M164.104,158.596L160.325,156.346L150.629,178.542L140.401,176.57C138.407,177.173 136.412,176.988 134.417,176.014C132.839,183.529 133.002,190.695 134.881,197.514L133.582,214.816C130.358,218.829 128.294,223.213 127.389,227.967C128.526,248.958 127.297,269.23 123.702,288.758C123.679,288.805 123.679,288.851 123.679,288.898C129.082,289.802 134.254,289.755 139.172,288.758C140.285,288.526 141.398,288.248 142.488,287.923L139.125,282.032L143.88,272.894L145.782,249.746L142.906,227.411L145.991,220.105L164.104,158.596ZM134.927,177.011C135.438,177.197 135.948,177.336 136.481,177.452C134.973,183.274 135.298,189.907 137.432,197.352L136.597,216.742C133.327,219.688 131.077,223.399 129.871,227.828C129.871,228.014 129.871,228.2 129.895,228.385C131.309,247.821 130.266,267.907 126.717,288.619C125.974,288.549 125.232,288.457 124.49,288.34C128.016,268.951 129.22,248.841 128.085,228.014C128.92,223.723 130.729,219.733 133.489,216.069C133.698,215.792 133.907,215.513 134.139,215.257C134.208,215.141 134.254,215.003 134.278,214.863L135.577,197.561C135.577,197.491 135.577,197.398 135.553,197.329C133.768,190.858 133.559,184.086 134.927,177.011Z" style="fill:rgb(80,89,82);fill-rule:nonzero;"/>
        </g>
        <g transform="matrix(4.16667,0,0,4.16667,0,0)">
            <path d="M136.481,177.452C135.948,177.336 135.438,177.197 134.927,177.011C133.559,184.086 133.768,190.858 135.553,197.329C135.577,197.398 135.577,197.491 135.577,197.561L134.278,214.863C134.254,215.003 134.208,215.141 134.139,215.257C133.907,215.513 133.698,215.792 133.489,216.069C130.729,219.733 128.92,223.723 128.085,228.014C129.22,248.841 128.016,268.951 124.49,288.34C125.232,288.457 125.974,288.549 126.717,288.619C130.265,267.907 131.309,247.821 129.895,228.385C129.871,228.2 129.871,228.014 129.871,227.828C131.077,223.399 133.327,219.688 136.597,216.742L137.432,197.352C135.298,189.907 134.973,183.274 136.481,177.452Z" style="fill:rgb(125,133,126);fill-rule:nonzero;"/>
        </g>
        <g transform="matrix(4.16667,0,0,4.16667,0,0)">
            <path d="M176.606,156.207L172.5,157.691L163.038,176.849L156.033,199.694L151.441,235.343L151.441,251.045L155.616,256.82L153.32,266.817C159.466,268.394 164.592,267.142 168.744,263.06L167.329,243.692L163.827,237.802L168.581,221.706C173.058,201.829 175.725,180.003 176.606,156.207ZM156.729,199.788L157.031,198.836L153.714,237.083L153.714,249.027L158.492,256.612L155.871,266.608C155.291,266.539 154.734,266.423 154.155,266.307L156.289,256.983C156.312,256.867 156.335,256.774 156.312,256.682C156.289,256.589 156.242,256.496 156.195,256.426L152.137,250.814L152.137,235.436L156.729,199.788Z" style="fill:rgb(80,89,82);fill-rule:nonzero;"/>
        </g>
        <g transform="matrix(4.16667,0,0,4.16667,0,0)">
            <path d="M157.031,198.836L156.729,199.788L152.137,235.436L152.137,250.814L156.195,256.426C156.242,256.496 156.289,256.589 156.312,256.682C156.335,256.774 156.312,256.867 156.289,256.983L154.155,266.307C154.734,266.423 155.291,266.539 155.871,266.608L158.492,256.612L153.714,249.027L153.714,237.083L157.031,198.836Z" style="fill:rgb(125,133,126);fill-rule:nonzero;"/>
        </g>
        <g transform="matrix(4.16667,0,0,4.16667,0,0)">
            <path d="M158.26,153.099L163.177,140.968L134.788,128.513L133.443,127.911C133.419,128.607 133.419,129.302 133.396,129.998L134.881,130.624L155.801,139.506L159.977,141.27L145.944,175.086L149.331,175.086L158.26,153.099Z" style="fill:rgb(125,127,130);fill-rule:nonzero;"/>
        </g>
        <g transform="matrix(4.16667,0,0,4.16667,0,0)">
            <path d="M133.396,129.998C133.327,131.274 133.234,132.549 133.118,133.848C132.817,136.701 132.33,139.6 131.657,142.568C130.822,151.011 133.002,156.554 138.221,159.176L140.702,161.007L147.707,166.18C147.405,166.713 147.058,167.177 146.709,167.525C144.738,169.427 141.909,168.661 138.221,165.252L138.221,171.329L140.169,172.28L145.944,175.086L159.977,141.27L155.801,139.506L148.24,165.206L139.682,158.04C134.069,155.046 131.819,150.803 132.909,145.259C133.048,144.494 133.257,143.729 133.535,142.94C134.231,139.901 134.648,136.886 134.812,133.848C134.881,132.78 134.904,131.714 134.881,130.624L133.396,129.998Z" style="fill:rgb(35,31,32);fill-rule:nonzero;"/>
        </g>
        <g transform="matrix(4.16667,0,0,4.16667,0,0)">
            <path d="M134.881,130.624C134.904,131.714 134.881,132.78 134.812,133.848C134.648,136.886 134.231,139.901 133.535,142.94C133.257,143.729 133.048,144.494 132.909,145.259C131.819,150.803 134.069,155.046 139.682,158.04L148.24,165.206L155.801,139.506L134.881,130.624Z" style="fill:rgb(88,89,91);fill-rule:nonzero;"/>
        </g>
        <g transform="matrix(4.16667,0,0,4.16667,0,0)">
            <path d="M127.087,167.362C127.227,168.638 128.016,169.427 129.431,169.705C129.639,171.19 130.914,171.862 133.304,171.7C133.791,172.651 134.324,173.37 134.904,173.834C136.389,175.04 138.151,174.53 140.169,172.28L138.221,171.329L138.221,165.252C141.909,168.661 144.738,169.427 146.709,167.525C143.764,167.27 140.633,165.6 137.362,162.538L136.806,171.213C135.414,171.862 134.277,171.167 133.396,169.149C132.19,170.888 130.892,170.633 129.5,168.429C128.804,168.894 127.992,168.545 127.087,167.362Z" style="fill:rgb(176,117,95);fill-rule:nonzero;"/>
        </g>
        <g transform="matrix(4.16667,0,0,4.16667,0,0)">
            <path d="M154.108,271.896L154.108,272.407L175.563,279.735C181.94,281.8 187.786,282.311 193.144,281.267C193.677,273.914 190.986,269.995 185.025,269.508C188.992,272.453 190.291,275.979 188.969,280.038L178.856,279.202L154.108,271.896Z" style="fill:rgb(217,218,219);fill-rule:nonzero;"/>
        </g>
        <g transform="matrix(4.16667,0,0,4.16667,0,0)">
            <path d="M154.108,270.389L154.108,271.896L178.856,279.202L188.969,280.038C190.291,275.979 188.992,272.453 185.025,269.508C184.678,269.484 184.33,269.462 183.981,269.462C179.691,270.551 177.58,273.45 177.673,278.182L154.108,270.389Z" style="fill:rgb(241,242,242);fill-rule:nonzero;"/>
        </g>
        <g transform="matrix(4.16667,0,0,4.16667,0,0)">
            <path d="M154.108,268.696L154.108,270.389L177.673,278.182C177.58,273.45 179.691,270.551 183.981,269.462L180.202,268.418L175.702,274.819L174.914,274.517L173.777,274.077L173.383,273.938L172.617,273.636L171.503,273.195L169.556,272.43L168.697,272.105L167.445,271.618L166.332,271.2L164.87,270.621C161.438,271.479 157.843,270.83 154.108,268.696Z" style="fill:rgb(88,89,91);fill-rule:nonzero;"/>
        </g>
        <g transform="matrix(4.16667,0,0,4.16667,0,0)">
            <path d="M137.687,294.858L137.201,294.441L135.878,293.351C132.399,293.234 128.595,292.632 124.49,291.495L124.49,295.206L145.458,306.037C147.197,301.376 149.376,298.43 151.951,297.177C152.555,296.876 153.181,296.691 153.807,296.575L153.761,296.319L152.346,295.484L145.179,301.12L144.46,300.518L143.555,299.752L142.952,299.242L141.909,298.384L141.027,297.641L139.659,296.505L138.94,295.902L137.687,294.858Z" style="fill:rgb(88,89,91);fill-rule:nonzero;"/>
        </g>
        <g transform="matrix(4.16667,0,0,4.16667,0,0)">
            <path d="M137.201,294.441L137.687,294.858L141.467,293.049C140.818,293.142 140.146,293.212 139.473,293.281L137.201,294.441Z" style="fill:rgb(217,218,219);fill-rule:nonzero;"/>
        </g>
        <g transform="matrix(4.16667,0,0,4.16667,0,0)">
            <path d="M135.878,293.351L137.201,294.441L139.473,293.281C138.314,293.374 137.107,293.397 135.878,293.351Z" style="fill:rgb(231,232,233);fill-rule:nonzero;"/>
        </g>
        <g transform="matrix(4.16667,0,0,4.16667,0,0)">
            <path d="M124.49,297.108L124.49,297.317L141.514,307.012C149.47,310.421 156.637,311.21 163.038,309.4C164.592,302.326 161.762,298.013 154.572,296.482C154.317,296.505 154.062,296.528 153.807,296.575C153.181,296.691 152.555,296.876 151.951,297.177C157.727,299.845 159.582,303.44 157.518,307.986C153.784,308.983 149.609,308.751 145.017,307.29L124.49,297.108Z" style="fill:rgb(217,218,219);fill-rule:nonzero;"/>
        </g>
        <g transform="matrix(4.16667,0,0,4.16667,0,0)">
            <path d="M124.49,295.206L124.49,297.108L145.017,307.29C149.609,308.751 153.784,308.983 157.518,307.986C159.582,303.44 157.727,299.845 151.951,297.177C149.376,298.43 147.197,301.376 145.458,306.037L124.49,295.206Z" style="fill:rgb(241,242,242);fill-rule:nonzero;"/>
        </g>
        <g transform="matrix(4.16667,0,0,4.16667,0,0)">
            <path d="M150.235,294.232L148.913,293.443L142.952,299.242L143.555,299.752L150.235,294.232Z" style="fill:rgb(217,218,219);fill-rule:nonzero;"/>
        </g>
        <g transform="matrix(4.16667,0,0,4.16667,0,0)">
            <path d="M151.279,294.858L150.235,294.232L143.555,299.752L144.46,300.518L151.279,294.858Z" style="fill:rgb(231,232,233);fill-rule:nonzero;"/>
        </g>
        <g transform="matrix(4.16667,0,0,4.16667,0,0)">
            <path d="M152.346,295.484L151.279,294.858L144.46,300.518L145.179,301.12L152.346,295.484Z" style="fill:rgb(217,218,219);fill-rule:nonzero;"/>
        </g>
        <g transform="matrix(4.16667,0,0,4.16667,0,0)">
            <path d="M154.572,296.482C154.317,296.412 154.039,296.366 153.761,296.319L153.807,296.575C154.062,296.528 154.317,296.505 154.572,296.482Z" style="fill:rgb(231,232,233);fill-rule:nonzero;"/>
        </g>
        <g transform="matrix(4.16667,0,0,4.16667,0,0)">
            <path d="M147.266,292.469L146.223,291.843C146.014,291.913 145.829,291.983 145.666,292.052L139.659,296.505L141.027,297.641L147.266,292.469Z" style="fill:rgb(231,232,233);fill-rule:nonzero;"/>
        </g>
        <g transform="matrix(4.16667,0,0,4.16667,0,0)">
            <path d="M148.147,293.003L147.266,292.469L141.027,297.641L141.909,298.384L148.147,293.003Z" style="fill:rgb(217,218,219);fill-rule:nonzero;"/>
        </g>
        <g transform="matrix(4.16667,0,0,4.16667,0,0)">
            <path d="M142.859,292.794C142.396,292.887 141.932,292.98 141.467,293.049L137.687,294.858L138.94,295.902L142.859,292.794Z" style="fill:rgb(231,232,233);fill-rule:nonzero;"/>
        </g>
        <g transform="matrix(4.16667,0,0,4.16667,0,0)">
            <path d="M141.909,298.384L142.952,299.242L148.913,293.443L148.147,293.003L141.909,298.384Z" style="fill:rgb(231,232,233);fill-rule:nonzero;"/>
        </g>
        <g transform="matrix(4.16667,0,0,4.16667,0,0)">
            <path d="M138.94,295.902L139.659,296.505L145.666,292.052C144.761,292.354 143.811,292.585 142.859,292.794L138.94,295.902Z" style="fill:rgb(217,218,219);fill-rule:nonzero;"/>
        </g>
        <g transform="matrix(4.16667,0,0,4.16667,0,0)">
            <path d="M178.113,267.861L177.488,267.699L173.383,273.938L173.777,274.077L178.113,267.861Z" style="fill:rgb(217,218,219);fill-rule:nonzero;"/>
        </g>
        <g transform="matrix(4.16667,0,0,4.16667,0,0)">
            <path d="M179.088,268.116L178.113,267.861L173.777,274.077L174.914,274.517L179.088,268.116Z" style="fill:rgb(231,232,233);fill-rule:nonzero;"/>
        </g>
        <g transform="matrix(4.16667,0,0,4.16667,0,0)">
            <path d="M180.202,268.418L179.088,268.116L174.914,274.517L175.702,274.819L180.202,268.418Z" style="fill:rgb(217,218,219);fill-rule:nonzero;"/>
        </g>
        <g transform="matrix(4.16667,0,0,4.16667,0,0)">
            <path d="M176.026,267.281L174.937,266.98L171.503,273.195L172.617,273.636L176.026,267.281Z" style="fill:rgb(217,218,219);fill-rule:nonzero;"/>
        </g>
        <g transform="matrix(4.16667,0,0,4.16667,0,0)">
            <path d="M174.937,266.98L173.684,266.631L169.556,272.43L171.503,273.195L174.937,266.98Z" style="fill:rgb(231,232,233);fill-rule:nonzero;"/>
        </g>
        <g transform="matrix(4.16667,0,0,4.16667,0,0)">
            <path d="M173.684,266.631L172.385,266.26L168.697,272.105L169.556,272.43L173.684,266.631Z" style="fill:rgb(217,218,219);fill-rule:nonzero;"/>
        </g>
        <g transform="matrix(4.16667,0,0,4.16667,0,0)">
            <path d="M172.385,266.26L172.246,266.214C171.48,266.956 170.691,267.606 169.903,268.185L167.445,271.618L168.697,272.105L172.385,266.26Z" style="fill:rgb(231,232,233);fill-rule:nonzero;"/>
        </g>
        <g transform="matrix(4.16667,0,0,4.16667,0,0)">
            <path d="M169.903,268.185C169.092,268.766 168.303,269.276 167.491,269.67L166.332,271.2L167.445,271.618L169.903,268.185Z" style="fill:rgb(217,218,219);fill-rule:nonzero;"/>
        </g>
        <g transform="matrix(4.16667,0,0,4.16667,0,0)">
            <path d="M172.617,273.636L173.383,273.938L177.488,267.699L176.026,267.281L172.617,273.636Z" style="fill:rgb(231,232,233);fill-rule:nonzero;"/>
        </g>
        <g transform="matrix(4.16667,0,0,4.16667,0,0)">
            <path d="M164.87,270.621L166.332,271.2L167.491,269.67C166.633,270.087 165.751,270.412 164.87,270.621Z" style="fill:rgb(231,232,233);fill-rule:nonzero;"/>
        </g>
        <g transform="matrix(4.16667,0,0,4.16667,0,0)">
            <path d="M161.762,23.005C160.208,22.264 159.072,21.916 158.353,21.939C157.634,21.962 157.007,22.055 156.498,22.24C155.963,22.472 155.963,22.774 156.521,23.168C158.724,22.937 160.858,23.377 162.922,24.467C163.641,24.212 163.27,23.725 161.762,23.005Z" style="fill:rgb(35,31,32);fill-rule:nonzero;"/>
        </g>
        <g transform="matrix(4.16667,0,0,4.16667,0,0)">
            <path d="M161.809,26.763C161.786,26.415 161.716,26.114 161.554,25.859C161.438,25.79 161.322,25.719 161.252,25.65C160.951,26.485 160.533,26.903 159.977,26.879C159.35,26.879 158.887,26.323 158.585,25.233C158.144,25.279 157.703,25.395 157.263,25.604C158.515,26.972 160.022,27.367 161.809,26.763Z" style="fill:white;fill-rule:nonzero;"/>
        </g>
        <g transform="matrix(4.16667,0,0,4.16667,0,0)">
            <path d="M161.554,25.859C161.716,26.114 161.786,26.415 161.809,26.763L161.901,26.995L161.994,25.348C159.559,24.444 157.889,24.583 156.984,25.766C157.078,25.696 157.17,25.65 157.263,25.604C157.703,25.395 158.144,25.279 158.585,25.233L158.84,25.21C158.887,25.65 159.095,26.021 159.443,26.276C159.675,26.345 159.93,26.369 160.208,26.299C160.51,26.23 160.695,25.975 160.765,25.534L161.252,25.65C161.322,25.719 161.438,25.79 161.554,25.859Z" style="fill:rgb(35,31,32);fill-rule:nonzero;"/>
        </g>
        <g transform="matrix(4.16667,0,0,4.16667,0,0)">
            <path d="M159.977,26.879C160.533,26.903 160.951,26.485 161.252,25.65L160.765,25.534C160.695,25.975 160.51,26.23 160.208,26.299C159.93,26.369 159.675,26.345 159.443,26.276C159.095,26.021 158.887,25.65 158.84,25.21L158.585,25.233C158.887,26.323 159.35,26.879 159.977,26.879Z" style="fill:rgb(118,79,35);fill-rule:nonzero;"/>
        </g>
        <g transform="matrix(4.16667,0,0,4.16667,0,0)">
            <path d="M161.901,26.995L161.809,26.763C160.022,27.367 158.515,26.972 157.263,25.604C157.17,25.65 157.078,25.696 156.984,25.766C158.399,27.204 160.046,27.621 161.901,26.995Z" style="fill:rgb(156,110,94);fill-rule:nonzero;"/>
        </g>
        <g transform="matrix(4.16667,0,0,4.16667,0,0)">
            <path d="M167.027,24.884L166.239,27.76C166.958,30.66 167.259,32.748 167.19,34.023C166.215,34.835 165.079,35.229 163.78,35.183C165.427,36.156 166.958,36.017 168.419,34.788C168.21,32.654 167.584,30.382 166.587,27.946L167.027,24.884Z" style="fill:rgb(156,110,94);fill-rule:nonzero;"/>
        </g>
        <g transform="matrix(4.16667,0,0,4.16667,0,0)">
            <path d="M175.168,23.655C174.612,23.377 173.985,23.191 173.313,23.076C172.594,22.983 171.434,23.191 169.857,23.702C168.349,24.212 167.955,24.653 168.674,25.001C170.761,24.189 172.919,24.049 175.122,24.537C175.609,24.235 175.632,23.934 175.168,23.655Z" style="fill:rgb(35,31,32);fill-rule:nonzero;"/>
        </g>
        <g transform="matrix(4.16667,0,0,4.16667,0,0)">
            <path d="M171.318,27.088C170.993,26.995 170.785,26.74 170.691,26.345L170.274,26.415C170.553,27.273 170.97,27.714 171.55,27.784C172.13,27.877 172.594,27.389 172.919,26.299L172.664,26.299C172.64,26.74 172.431,27.042 172.014,27.227C171.782,27.296 171.55,27.251 171.318,27.088Z" style="fill:rgb(118,79,35);fill-rule:nonzero;"/>
        </g>
        <g transform="matrix(4.16667,0,0,4.16667,0,0)">
            <path d="M170.691,26.345C170.785,26.74 170.993,26.995 171.318,27.088C171.55,27.251 171.782,27.296 172.014,27.227C172.431,27.042 172.64,26.74 172.664,26.299L172.919,26.299C173.359,26.415 173.8,26.601 174.217,26.879C174.333,26.903 174.403,26.948 174.473,27.018C173.637,25.743 172.014,25.395 169.578,25.975L169.509,27.668L169.532,27.668L169.625,27.459C169.648,27.111 169.741,26.833 169.88,26.578C169.996,26.485 170.135,26.439 170.274,26.415L170.691,26.345Z" style="fill:rgb(35,31,32);fill-rule:nonzero;"/>
        </g>
        <g transform="matrix(4.16667,0,0,4.16667,0,0)">
            <path d="M171.55,27.784C170.97,27.714 170.553,27.273 170.274,26.415C170.135,26.439 169.996,26.485 169.88,26.578C169.741,26.833 169.648,27.111 169.625,27.459C171.411,28.317 172.941,28.108 174.217,26.879C173.8,26.601 173.359,26.415 172.919,26.299C172.594,27.389 172.13,27.877 171.55,27.784Z" style="fill:white;fill-rule:nonzero;"/>
        </g>
        <g transform="matrix(4.16667,0,0,4.16667,0,0)">
            <path d="M169.625,27.459L169.532,27.668C171.364,28.479 173.011,28.271 174.473,27.018C174.403,26.948 174.333,26.903 174.217,26.879C172.941,28.108 171.411,28.317 169.625,27.459Z" style="fill:rgb(156,110,94);fill-rule:nonzero;"/>
        </g>
        <g transform="matrix(4.16667,0,0,4.16667,0,0)">
            <path d="M151.905,34.162L152.276,33.536C151.882,32.121 151.325,31.216 150.56,30.868C151.279,31.704 151.743,32.793 151.905,34.162Z" style="fill:rgb(156,110,94);fill-rule:nonzero;"/>
        </g>
        <g transform="matrix(4.16667,0,0,4.16667,0,0)">
            <path d="M168.025,41.213L171.503,37.316L168.095,37.989C166.007,38.244 163.873,38.105 161.716,37.594L158.237,36.435L161.646,40.772C163.803,41.514 165.914,41.653 168.025,41.213ZM167.283,38.499L170.135,38.012L167.677,40.54C165.729,40.935 163.827,40.819 161.971,40.169L159.628,37.363L162.458,38.197C164.012,38.545 165.613,38.662 167.283,38.499Z" style="fill:rgb(156,110,94);fill-rule:nonzero;"/>
        </g>
        <g transform="matrix(4.16667,0,0,4.16667,0,0)">
            <path d="M170.135,38.012L167.283,38.499C165.613,38.662 164.012,38.545 162.458,38.197L159.628,37.363L161.971,40.169C163.827,40.819 165.729,40.935 167.677,40.54L170.135,38.012Z" style="fill:white;fill-rule:nonzero;"/>
        </g>
        <g transform="matrix(4.16667,0,0,4.16667,0,0)">
            <path d="M165.403,45.55C165.891,44.274 166.03,43.393 165.798,42.882L165.334,42.326L165.403,45.55Z" style="fill:rgb(156,110,94);fill-rule:nonzero;"/>
        </g>
        <g transform="matrix(4.16667,0,0,4.16667,0,0)">
            <path d="M159.42,25.859C159.513,25.975 159.628,26.021 159.768,26.044C159.884,26.044 160,25.998 160.093,25.905C160.186,25.812 160.232,25.696 160.232,25.557C160.232,25.511 160.232,25.464 160.208,25.395C160.139,25.372 160.093,25.372 160.046,25.348C159.814,25.326 159.582,25.302 159.327,25.326C159.304,25.395 159.281,25.441 159.281,25.488C159.281,25.627 159.327,25.743 159.42,25.859Z" style="fill:white;fill-rule:nonzero;"/>
        </g>
        <g transform="matrix(4.16667,0,0,4.16667,0,0)">
            <path d="M172.13,26.345C172.153,26.392 172.176,26.439 172.176,26.508C172.176,26.648 172.13,26.763 172.037,26.856C171.944,26.948 171.828,26.995 171.689,26.995C171.573,26.972 171.458,26.925 171.364,26.809C171.271,26.693 171.225,26.578 171.225,26.439C171.225,26.369 171.225,26.323 171.248,26.276C171.295,26.276 171.341,26.276 171.411,26.276C171.643,26.276 171.875,26.299 172.13,26.345Z" style="fill:white;fill-rule:nonzero;"/>
        </g>
    </g>
</svg>
