<?xml version="1.0" encoding="UTF-8" standalone="no"?>
<!DOCTYPE svg PUBLIC "-//W3C//DTD SVG 1.1//EN" "http://www.w3.org/Graphics/SVG/1.1/DTD/svg11.dtd">
<svg width="100%" height="100%" viewBox="0 0 368 1283" version="1.1" xmlns="http://www.w3.org/2000/svg" xmlns:xlink="http://www.w3.org/1999/xlink" xml:space="preserve" xmlns:serif="http://www.serif.com/" style="fill-rule:evenodd;clip-rule:evenodd;stroke-linejoin:round;stroke-miterlimit:1.41421;">
    <g transform="matrix(1,0,0,1,-1322.04,-2.75701)">
        <g transform="matrix(4.16667,0,0,4.16667,0,0)">
            <path d="M375.399,6.538C376.467,5.842 376.467,4.845 375.399,3.569C373.752,2.456 371.897,1.853 369.787,1.76C368.882,1.087 367.953,0.739 366.956,0.67C365.334,0.578 363.547,1.25 361.622,2.711C360.949,2.549 360.301,2.433 359.721,2.387C357.934,2.294 356.543,2.967 355.545,4.427C354.595,5.727 353.76,8 353.04,11.224C352.183,11.595 351.672,12.545 351.486,14.099C351.37,14.911 351.324,15.607 351.302,16.233C351.277,16.697 351.277,17.115 351.302,17.486C351.324,18.205 351.44,19.086 351.649,20.176C352.159,17.37 353.156,16.442 354.664,17.439C353.992,14.633 354.152,12.059 355.152,9.67C356.52,6.91 358.537,5.471 361.227,5.309C365.797,8.602 370.505,9.021 375.399,6.538ZM366.911,1.366L366.933,1.366C367.792,1.436 368.604,1.737 369.369,2.317C369.485,2.41 369.601,2.456 369.763,2.456C371.688,2.549 373.427,3.106 374.958,4.126C375.284,4.521 375.469,4.891 375.515,5.216C373.822,4.358 371.688,3.662 369.16,3.152C366.817,2.433 364.29,2.758 361.575,4.126C359.604,3.616 357.957,4.057 356.658,5.471L355.522,7.698C355.499,7.721 355.499,7.721 355.499,7.744L353.62,12.871C352.924,13.682 352.6,14.911 352.669,16.581C352.554,16.651 352.438,16.744 352.321,16.86C352.205,16.952 352.09,17.068 351.996,17.231C351.973,16.929 351.973,16.627 351.996,16.279L351.996,16.256C352.02,15.654 352.066,14.958 352.183,14.192C352.321,12.963 352.692,12.174 353.318,11.873C353.435,11.827 353.504,11.757 353.574,11.664C353.644,11.571 353.714,11.479 353.736,11.386C354.41,8.278 355.197,6.098 356.103,4.845C356.103,4.822 356.103,4.822 356.125,4.822C356.983,3.593 358.166,3.013 359.674,3.083C360.207,3.129 360.811,3.222 361.459,3.384C361.552,3.408 361.646,3.43 361.763,3.408C361.878,3.384 361.97,3.337 362.04,3.269C363.802,1.946 365.426,1.296 366.911,1.366Z" style="fill:rgb(88,89,91);fill-rule:nonzero;"/>
        </g>
        <g transform="matrix(4.16667,0,0,4.16667,0,0)">
            <path d="M366.933,1.366L366.911,1.366C365.426,1.296 363.802,1.946 362.04,3.269C361.97,3.337 361.878,3.384 361.763,3.408C361.646,3.43 361.552,3.408 361.459,3.384C360.811,3.222 360.207,3.129 359.674,3.083C358.166,3.013 356.983,3.593 356.125,4.822C356.103,4.822 356.103,4.822 356.103,4.845C355.197,6.098 354.41,8.277 353.736,11.386C353.714,11.479 353.644,11.571 353.574,11.664C353.504,11.757 353.435,11.827 353.318,11.873C352.692,12.174 352.321,12.963 352.183,14.192C352.066,14.958 352.02,15.653 351.996,16.256L351.996,16.279C351.973,16.627 351.973,16.929 351.996,17.231C352.09,17.068 352.205,16.952 352.321,16.86C352.438,16.744 352.554,16.651 352.669,16.581C352.6,14.911 352.924,13.682 353.62,12.871L355.499,7.744C355.499,7.721 355.499,7.721 355.522,7.698L356.658,5.471C357.957,4.057 359.604,3.616 361.575,4.126C364.29,2.758 366.817,2.433 369.16,3.152C371.688,3.662 373.822,4.358 375.515,5.216C375.469,4.891 375.284,4.521 374.958,4.126C373.427,3.106 371.688,2.549 369.763,2.456C369.601,2.456 369.485,2.41 369.369,2.317C368.604,1.737 367.792,1.436 366.933,1.366Z" style="fill:rgb(125,127,130);fill-rule:nonzero;"/>
        </g>
        <g transform="matrix(4.16667,0,0,4.16667,0,0)">
            <path d="M375.399,3.569C376.467,4.845 376.467,5.842 375.399,6.538C370.505,9.02 365.797,8.602 361.227,5.309C358.537,5.471 356.52,6.91 355.152,9.669C354.152,12.059 353.992,14.633 354.664,17.439C353.156,16.442 352.159,17.37 351.649,20.176C351.719,20.64 351.834,21.127 351.95,21.66L352.391,22.193C352.415,22.032 352.415,21.892 352.438,21.753C353.064,17.973 353.945,18.808 355.081,24.258L356.612,24.258C356.033,21.591 356.033,18.901 356.612,16.21C354.456,11.989 356.057,8.788 361.414,6.585C365.635,10.551 370.343,10.876 375.515,7.582C379.226,10.527 379.991,14.076 377.833,18.252C378.368,20.779 378.043,23.168 376.861,25.395L377.974,26.044C379.295,22.287 380.223,20.733 380.758,21.359C380.965,21.637 381.128,22.333 381.221,23.469C381.197,23.957 381.175,24.421 381.175,24.884C381.94,22.24 382.403,20.176 382.589,18.692C382.705,17.764 382.728,16.511 382.682,14.934C382.589,13.102 382.125,12.012 381.29,11.664C381.452,10.041 381.244,8.696 380.642,7.651C379.922,6.468 378.646,5.494 376.814,4.706C376.374,4.289 375.886,3.918 375.399,3.569Z" style="fill:rgb(40,36,37);fill-rule:nonzero;"/>
        </g>
        <g transform="matrix(4.16667,0,0,4.16667,0,0)">
            <path d="M352.391,22.193C352.368,22.519 352.344,22.843 352.321,23.191C352.321,23.214 352.321,23.307 352.298,23.469C352.043,27.296 352.854,28.711 354.733,27.714L355.476,29.245C355.313,32.144 355.962,35.066 357.378,37.966C359.79,40.1 362.201,41.7 364.638,42.767C371.572,41.352 375.538,36.736 376.582,28.874C379.203,28.734 380.595,26.23 380.758,21.359C380.223,20.733 379.295,22.287 377.974,26.044L375.863,25.743C376.767,23.261 376.999,20.849 376.582,18.529C377.765,15.676 377.14,13.264 374.726,11.316C371.618,13.218 367.096,13.009 361.157,10.69C358.305,11.965 357.471,14.029 358.653,16.836C356.938,19.365 356.728,22.31 358.027,25.65L355.267,25.65C353.736,22.774 352.786,21.614 352.391,22.193Z" style="fill:rgb(244,202,179);fill-rule:nonzero;"/>
        </g>
        <g transform="matrix(4.16667,0,0,4.16667,0,0)">
            <path d="M352.321,23.191C352.344,22.843 352.368,22.519 352.391,22.193L351.95,21.66C352.066,22.148 352.183,22.658 352.321,23.191Z" style="fill:rgb(88,89,91);fill-rule:nonzero;"/>
        </g>
        <g transform="matrix(4.16667,0,0,4.16667,0,0)">
            <path d="M352.438,21.753C352.415,21.892 352.415,22.032 352.391,22.193C352.786,21.614 353.736,22.774 355.267,25.65L358.027,25.65C356.728,22.31 356.938,19.365 358.653,16.836C357.471,14.029 358.305,11.965 361.157,10.69C367.096,13.009 371.618,13.218 374.726,11.316C377.14,13.264 377.765,15.676 376.582,18.529C376.999,20.849 376.767,23.261 375.863,25.743L377.974,26.044L376.861,25.395C378.043,23.168 378.368,20.779 377.833,18.252C379.991,14.076 379.226,10.527 375.515,7.582C370.343,10.876 365.635,10.551 361.414,6.585C356.057,8.788 354.456,11.989 356.612,16.21C356.033,18.901 356.033,21.591 356.612,24.258L355.081,24.258C353.945,18.808 353.064,17.973 352.438,21.753Z" style="fill:rgb(207,147,121);fill-rule:nonzero;"/>
        </g>
        <g transform="matrix(4.16667,0,0,4.16667,0,0)">
            <path d="M354.733,27.714C354.34,30.242 354.27,32.075 354.525,33.165C354.642,33.768 354.803,34.347 355.012,34.904C355.174,35.368 355.36,35.832 355.569,36.272C356.172,36.853 356.774,37.432 357.378,37.965C355.962,35.066 355.313,32.144 355.476,29.245L354.733,27.714Z" style="fill:rgb(241,217,206);fill-rule:nonzero;"/>
        </g>
        <g transform="matrix(4.16667,0,0,4.16667,0,0)">
            <path d="M381.221,23.469C381.128,22.333 380.965,21.637 380.758,21.359C380.595,26.23 379.203,28.734 376.582,28.874C375.538,36.736 371.572,41.352 364.638,42.767C362.201,41.7 359.79,40.1 357.378,37.966C356.774,37.432 356.172,36.853 355.569,36.272C357.122,39.52 359.975,42.094 364.127,43.996C364.521,43.973 364.916,43.95 365.355,43.95C368.186,43.625 370.69,42.512 372.895,40.633C373.104,40.424 373.334,40.216 373.566,40.007C373.775,39.682 374.03,39.427 374.285,39.265C376.071,37.2 377.487,34.116 378.554,30.034C380.153,30.498 381.035,28.851 381.175,25.117C381.15,25.001 381.15,24.931 381.175,24.884C381.175,24.421 381.197,23.957 381.221,23.469Z" style="fill:rgb(207,147,121);fill-rule:nonzero;"/>
        </g>
        <g transform="matrix(4.16667,0,0,4.16667,0,0)">
            <path d="M342.695,50.166C342.209,50.351 341.745,50.537 341.281,50.745C339.24,57.077 339.519,62.737 342.14,67.677L352.9,65.728C353.018,68.28 350.466,71.086 345.247,74.148C349.214,83.796 356.172,90.616 366.074,94.628C362.017,114.992 362.017,135.959 366.074,157.529C360.718,158.642 355.383,157.436 350.025,153.887L347.567,154.398L345.132,154.885L348.634,160.288C356.033,163.304 363.199,163.118 370.11,159.732C370.599,159.477 371.107,159.222 371.618,158.92C371.154,155.696 370.762,152.519 370.435,149.341C370.413,149.04 370.366,148.738 370.343,148.437C368.464,129.256 368.975,110.933 371.874,93.422C371.943,92.981 372.012,92.54 372.082,92.1C362.782,87.206 355.614,81.129 350.581,73.846C355.801,68.952 357.587,65.218 355.917,62.621L344.945,64.151C343.438,58.585 342.673,53.923 342.695,50.166Z" style="fill:rgb(147,78,65);fill-rule:nonzero;"/>
        </g>
        <g transform="matrix(4.16667,0,0,4.16667,0,0)">
            <path d="M342.695,50.166C342.673,53.923 343.438,58.585 344.945,64.151L355.917,62.621C357.587,65.218 355.801,68.952 350.581,73.846C355.614,81.129 362.782,87.206 372.082,92.1C372.198,91.357 372.339,90.616 372.499,89.873C372.245,89.479 372.012,89.107 371.781,88.713C366.492,80.201 362.644,73.174 360.23,67.677C359.882,66.865 359.559,66.1 359.257,65.357C356.404,58.237 354.548,51.766 353.689,45.944C353.644,45.875 353.62,45.805 353.597,45.735L354.525,38.267C346.662,37.664 342.72,41.63 342.695,50.166ZM345.456,63.386C344.064,58.144 343.368,53.737 343.392,50.166C343.415,46.13 344.342,43.161 346.175,41.283C347.915,39.59 350.42,38.801 353.736,38.917L353.574,40.308C348.076,40.703 345.316,43.579 345.27,48.936C345.108,54.711 345.78,59.466 347.242,63.154L345.456,63.386Z" style="fill:rgb(203,110,88);fill-rule:nonzero;"/>
        </g>
        <g transform="matrix(4.16667,0,0,4.16667,0,0)">
            <path d="M343.392,50.166C343.368,53.737 344.064,58.144 345.456,63.386L347.242,63.154C345.78,59.466 345.108,54.711 345.27,48.936C345.316,43.579 348.076,40.703 353.574,40.308L353.736,38.917C350.42,38.801 347.915,39.59 346.175,41.283C344.342,43.161 343.415,46.13 343.392,50.166Z" style="fill:rgb(219,154,147);fill-rule:nonzero;"/>
        </g>
        <g transform="matrix(4.16667,0,0,4.16667,0,0)">
            <path d="M342.14,67.677C339.519,62.737 339.24,57.077 341.281,50.745C332.724,54.294 325.88,58.307 320.755,62.83C317.461,69.857 316.51,82.985 317.925,102.212C316.279,122.414 319.549,140.667 327.69,156.949C334.231,155.163 337.408,152.357 337.221,148.529L333.326,136.979L335.088,133.059L331.958,115.061L333.117,112.301L333.117,108.799L328.432,101.33L333.998,105.181L339.659,79.877L336.781,107.106L338.082,111.42L336.201,114.435L340.4,133.872L339.659,138.045L345.712,149.991L345.363,150.455L350.025,153.887C355.383,157.436 360.718,158.642 366.074,157.529C362.017,135.959 362.017,114.992 366.074,94.628C356.172,90.616 349.214,83.796 345.247,74.148C350.466,71.086 353.018,68.28 352.9,65.728L342.14,67.677ZM340.215,51.952C339.937,52.925 339.727,53.9 339.565,54.851C333.141,57.657 327.574,61.183 322.819,65.473C320.732,74.774 320.105,87.298 320.94,103.046C318.922,122.274 321.96,139.739 330.033,155.465C329.406,155.696 328.757,155.905 328.061,156.114C320.152,140.064 317.021,122.112 318.621,102.281C318.621,102.235 318.621,102.189 318.621,102.165C317.23,83.24 318.134,70.275 321.311,63.27C326.113,59.072 332.398,55.292 340.215,51.952Z" style="fill:rgb(203,110,88);fill-rule:nonzero;"/>
        </g>
        <g transform="matrix(4.16667,0,0,4.16667,0,0)">
            <path d="M339.565,54.851C339.727,53.9 339.937,52.925 340.215,51.952C332.398,55.292 326.113,59.072 321.311,63.27C318.134,70.275 317.23,83.24 318.621,102.165C318.621,102.189 318.621,102.235 318.621,102.281C317.021,122.112 320.152,140.064 328.061,156.114C328.757,155.905 329.406,155.696 330.033,155.465C321.96,139.739 318.922,122.274 320.94,103.046C320.105,87.298 320.732,74.774 322.819,65.473C327.574,61.183 333.141,57.657 339.565,54.851Z" style="fill:rgb(219,154,147);fill-rule:nonzero;"/>
        </g>
        <g transform="matrix(4.16667,0,0,4.16667,0,0)">
            <path d="M338.082,111.42L336.781,107.106L339.659,79.877L333.998,105.181L328.432,101.33L333.117,108.799L333.117,112.301L331.958,115.061L335.088,133.059L333.326,136.979L337.221,148.529C337.408,152.357 334.231,155.163 327.69,156.948C328.015,157.598 328.362,158.248 328.71,158.92C329.266,158.851 329.823,158.781 330.38,158.712C336.063,157.784 341.026,155.024 345.316,150.431C345.433,150.269 345.572,150.13 345.712,149.991L339.659,138.045L340.399,133.871L336.201,114.435L338.082,111.42Z" style="fill:rgb(147,78,65);fill-rule:nonzero;"/>
        </g>
        <g transform="matrix(4.16667,0,0,4.16667,0,0)">
            <path d="M383.424,68.465L384.145,63.201C385.095,78.531 387.413,94.001 391.147,109.61L391.31,110.422C394.023,117.844 395.925,124.617 396.97,130.763C397.085,130.09 397.178,129.395 397.248,128.652C396.668,121.486 394.766,113.577 391.542,104.925C389.431,93.097 388.503,81.268 388.781,69.417C387.413,63.734 385.07,59.419 381.707,56.428L383.608,62.412L377.951,63.571C377.857,65.218 379.69,66.842 383.424,68.465Z" style="fill:rgb(203,110,88);fill-rule:nonzero;"/>
        </g>
        <g transform="matrix(4.16667,0,0,4.16667,0,0)">
            <path d="M384.145,63.201L383.424,68.465C379.69,66.842 377.857,65.218 377.951,63.571L383.608,62.412L381.707,56.428C385.07,59.42 387.413,63.734 388.781,69.417C388.503,81.268 389.431,93.097 391.542,104.925C394.766,113.577 396.668,121.486 397.248,128.652C397.597,123.944 396.528,117.659 394.094,109.842C391.264,98.71 390.058,84.98 390.476,68.674C389.965,63.409 386.926,58.933 381.336,55.292C380.617,54.828 379.875,54.387 379.11,53.946C380.501,56.544 381.499,59.095 382.125,61.624L376.374,61.624C373.126,63.27 375.236,65.891 382.682,69.532C378.529,76.769 375.631,84.284 373.985,92.1C374.193,93.306 374.425,94.535 374.68,95.764C376.327,86.858 379.11,79.32 383.03,73.174C384.305,89.804 387.438,106.457 392.423,123.087C395.276,132.827 396.945,140.922 397.479,147.393C397.597,146.558 397.666,145.699 397.734,144.841L397.734,144.818C397.989,141.78 397.92,138.533 397.525,135.054C397.387,133.662 397.201,132.224 396.97,130.763C395.925,124.617 394.023,117.844 391.31,110.422L391.147,109.61C387.413,94.001 385.095,78.531 384.145,63.201Z" style="fill:rgb(147,78,65);fill-rule:nonzero;"/>
        </g>
        <g transform="matrix(4.16667,0,0,4.16667,0,0)">
            <path d="M372.708,41.677L372.895,40.633C370.69,42.512 368.186,43.625 365.355,43.95C364.916,43.95 364.521,43.973 364.127,43.996C359.975,42.094 357.122,39.52 355.569,36.272C355.36,35.832 355.174,35.368 355.012,34.904L354.849,36.017C355.059,36.574 355.291,37.108 355.569,37.641C357.146,40.726 359.928,43.185 363.941,45.017C364.336,44.994 364.729,44.97 365.171,44.97C366.446,44.831 367.652,44.53 368.789,44.065C370.182,43.509 371.479,42.72 372.708,41.677Z" style="fill:rgb(177,118,101);fill-rule:nonzero;"/>
        </g>
        <g transform="matrix(4.16667,0,0,4.16667,0,0)">
            <path d="M372.198,44.228L372.708,41.677C371.479,42.72 370.182,43.509 368.789,44.065L367.188,60.069L366.168,56.498C362.063,54.782 358.26,51.696 354.758,47.266C354.41,46.826 354.085,46.385 353.736,45.921L353.689,45.944C355.614,50.258 359.396,54.434 365.031,58.446C365.146,58.562 365.287,58.654 365.426,58.747L368.023,66.1L369.601,57.981L371.526,47.846L372.198,44.228Z" style="fill:rgb(207,147,121);fill-rule:nonzero;"/>
        </g>
        <g transform="matrix(4.16667,0,0,4.16667,0,0)">
            <path d="M368.789,44.065C367.652,44.53 366.446,44.831 365.171,44.97C364.729,44.97 364.336,44.994 363.941,45.017C359.928,43.185 357.146,40.726 355.569,37.641L354.758,47.267C358.26,51.696 362.063,54.782 366.168,56.498L367.188,60.069L368.789,44.066L368.789,44.065Z" style="fill:rgb(244,202,179);fill-rule:nonzero;"/>
        </g>
        <g transform="matrix(4.16667,0,0,4.16667,0,0)">
            <path d="M371.526,47.846L369.601,57.981C370.599,57.541 371.92,58.956 373.591,62.25C373.195,57.286 372.499,52.485 371.526,47.846Z" style="fill:rgb(241,242,242);fill-rule:nonzero;"/>
        </g>
        <g transform="matrix(4.16667,0,0,4.16667,0,0)">
            <path d="M379.11,53.946C379.086,53.9 379.064,53.854 379.04,53.83C377.324,50.676 375.051,47.475 372.198,44.228L371.526,47.846C372.499,52.485 373.195,57.286 373.591,62.25C372.082,71.759 372.221,81.709 373.985,92.1C375.631,84.284 378.529,76.769 382.682,69.533C375.236,65.891 373.126,63.27 376.374,61.624L382.125,61.624C381.499,59.095 380.501,56.544 379.11,53.946Z" style="fill:rgb(203,110,88);fill-rule:nonzero;"/>
        </g>
        <g transform="matrix(4.16667,0,0,4.16667,0,0)">
            <path d="M353.736,45.921C353.689,45.852 353.644,45.805 353.597,45.735C353.62,45.805 353.644,45.875 353.689,45.944L353.736,45.921Z" style="fill:rgb(244,202,179);fill-rule:nonzero;"/>
        </g>
        <g transform="matrix(4.16667,0,0,4.16667,0,0)">
            <path d="M353.597,45.735C353.644,45.805 353.689,45.852 353.736,45.921C354.085,46.385 354.41,46.826 354.758,47.267L355.569,37.641C355.291,37.108 355.059,36.574 354.849,36.017L354.525,38.267L353.597,45.735Z" style="fill:rgb(241,217,206);fill-rule:nonzero;"/>
        </g>
        <g transform="matrix(4.16667,0,0,4.16667,0,0)">
            <path d="M359.257,65.357C359.559,66.1 359.882,66.865 360.23,67.677C360.856,65.427 362.365,63.456 364.729,61.786L368.094,68.489L370.552,61.368L372.198,63.409C370.529,72.061 370.389,80.48 371.781,88.713C372.012,89.107 372.245,89.479 372.499,89.873C372.339,90.616 372.198,91.357 372.082,92.1C372.012,92.54 371.943,92.981 371.874,93.422L376.28,115.177L377.927,116.916C380.617,127.608 381.244,137.559 379.806,146.814L370.343,148.437C370.366,148.738 370.413,149.04 370.435,149.341C371.665,148.9 373.01,148.622 374.472,148.506C376.952,148.297 379.759,148.576 382.937,149.341C384.329,138.139 383.309,125.939 379.853,112.719C379.643,112.463 379.458,112.208 379.25,111.953L378.971,111.466C377.14,106.132 375.724,100.889 374.68,95.764C374.425,94.535 374.193,93.306 373.985,92.1C372.221,81.709 372.082,71.759 373.591,62.25C371.92,58.956 370.599,57.541 369.601,57.981L368.023,66.1L365.426,58.747C365.287,58.654 365.146,58.562 365.031,58.446C363.918,58.121 361.994,60.417 359.257,65.357Z" style="fill:rgb(212,214,215);fill-rule:nonzero;"/>
        </g>
        <g transform="matrix(4.16667,0,0,4.16667,0,0)">
            <path d="M372.198,63.409L370.552,61.368L368.094,68.489L364.729,61.786C362.365,63.456 360.856,65.427 360.23,67.677C362.644,73.174 366.492,80.201 371.781,88.713C370.389,80.48 370.529,72.061 372.198,63.409Z" style="fill:rgb(241,242,242);fill-rule:nonzero;"/>
        </g>
        <g transform="matrix(4.16667,0,0,4.16667,0,0)">
            <path d="M365.031,58.446C359.396,54.434 355.614,50.258 353.689,45.944C354.548,51.766 356.404,58.237 359.257,65.357C361.994,60.417 363.918,58.121 365.031,58.446Z" style="fill:rgb(241,242,242);fill-rule:nonzero;"/>
        </g>
        <g transform="matrix(4.16667,0,0,4.16667,0,0)">
            <path d="M378.971,111.466L379.25,111.953C379.458,112.208 379.643,112.463 379.853,112.719C388.178,123.132 393.978,135.17 397.248,148.854C397.318,148.367 397.409,147.88 397.479,147.393C396.945,140.922 395.276,132.827 392.423,123.087C387.438,106.457 384.305,89.804 383.03,73.174C379.11,79.32 376.327,86.858 374.68,95.765C375.724,100.889 377.14,106.132 378.971,111.466Z" style="fill:rgb(203,110,88);fill-rule:nonzero;"/>
        </g>
        <g transform="matrix(4.16667,0,0,4.16667,0,0)">
            <path d="M377.927,116.916L376.28,115.177L371.874,93.422C368.975,110.933 368.464,129.256 370.343,148.437L379.806,146.814C381.244,137.559 380.617,127.608 377.927,116.916Z" style="fill:rgb(241,242,242);fill-rule:nonzero;"/>
        </g>
        <g transform="matrix(4.16667,0,0,4.16667,0,0)">
            <path d="M397.479,147.393C397.409,147.88 397.318,148.367 397.248,148.854C393.699,149.133 390.545,149.852 387.784,150.988L387.784,151.011C389.105,150.547 390.476,150.385 391.867,150.524C393.536,150.687 395.252,151.266 397.016,152.264C397.571,152.565 398.129,152.913 398.662,153.307L397.734,144.841C397.666,145.699 397.597,146.558 397.479,147.393Z" style="fill:rgb(88,44,36);fill-rule:nonzero;"/>
        </g>
        <g transform="matrix(4.16667,0,0,4.16667,0,0)">
            <path d="M395.368,159.5L397.016,152.264C395.252,151.266 393.536,150.687 391.867,150.524C390.476,150.385 389.105,150.547 387.784,151.011L387.784,151.754L390.613,151.754C390.451,156.972 389.523,159.129 387.784,158.225C388.573,158.943 389.246,159.245 389.802,159.129C389.986,159.06 390.174,158.967 390.358,158.828C391.286,158.016 391.796,155.58 391.867,151.568L395.53,153.215L393.352,159.083L387.832,162.816C387.971,163.002 388.133,163.188 388.342,163.373C388.41,163.42 388.503,163.466 388.572,163.536C388.642,163.582 388.688,163.628 388.758,163.675L395.368,159.5Z" style="fill:rgb(207,147,121);fill-rule:nonzero;"/>
        </g>
        <g transform="matrix(4.16667,0,0,4.16667,0,0)">
            <path d="M393.352,159.083L395.53,153.215L391.867,151.568C391.796,155.58 391.288,158.016 390.358,158.828C390.174,158.967 389.986,159.06 389.802,159.129C388.526,159.848 387.761,160.544 387.553,161.263C387.368,161.773 387.459,162.283 387.832,162.817L393.352,159.083Z" style="fill:rgb(244,202,179);fill-rule:nonzero;"/>
        </g>
        <g transform="matrix(4.16667,0,0,4.16667,0,0)">
            <path d="M387.784,151.011L387.784,150.988L387.761,150.988L387.784,151.011Z" style="fill:rgb(166,195,143);fill-rule:nonzero;"/>
        </g>
        <g transform="matrix(4.16667,0,0,4.16667,0,0)">
            <path d="M387.784,151.754L387.784,151.011C387.575,151.081 387.368,151.15 387.158,151.243L386.88,151.382C386.811,151.406 386.741,151.429 386.694,151.452C386.207,151.684 385.744,151.916 385.303,152.171C384.166,152.797 383.1,153.493 382.125,154.305C382.427,152.681 382.705,151.035 382.937,149.341C379.759,148.576 376.952,148.297 374.472,148.506C373.01,148.622 371.665,148.9 370.435,149.341C370.762,152.519 371.154,155.696 371.618,158.92L372.546,151.359L373.104,153.957C372.848,158.712 371.804,163.165 369.972,167.316L370.11,159.732C363.199,163.118 356.033,163.304 348.634,160.288L350.442,163.095C350.953,164.232 350.721,164.95 349.724,165.252C349.261,165.391 348.634,165.438 347.845,165.391C346.662,167.595 345.063,168.058 343.044,166.806C342.928,166.736 342.789,166.644 342.673,166.551C341.583,167.641 340.493,167.641 339.402,166.575C339.102,166.273 338.777,165.878 338.475,165.391C337.941,165.809 337.432,166.064 336.897,166.18C336.736,167.293 336.573,168.406 336.411,169.496C343.623,171.7 349.515,170.935 354.131,167.153L366.492,164.278L366.492,167.432L356.473,184.433C353.481,200.274 348.401,215.257 341.281,229.336L346.175,227.434C345.595,242.58 347.892,257.47 353.018,272.105L353.018,283.609C347.336,281.568 341.629,282.867 335.923,287.506C336.133,288.921 336.665,290.405 337.5,291.936C337.756,291.751 337.988,291.565 338.22,291.403C343.717,287.576 349.7,287.088 356.219,289.941L358.376,285.743C358.073,276.489 356.356,266.91 353.181,256.96C349.538,246.059 348.703,234.833 350.675,223.306C353.527,218.691 354.733,213.587 354.34,207.998L360.788,185.013L363.269,180.955L369.902,170.007C372.755,164.116 374.309,158.317 374.541,152.612L380.803,152.612L380.153,155.719L383.493,155.719L388.133,201.341C388.155,201.713 388.155,202.084 388.178,202.455C388.805,218.064 386.949,230.89 382.566,240.886L379.11,278.994L379.11,283.029C374.564,285.511 369.578,285.696 364.127,283.586C363.269,283.261 362.411,282.867 361.552,282.427L361.552,287.622C361.737,287.691 361.923,287.784 362.11,287.854C366.585,289.64 370.714,290.15 374.519,289.385C374.89,289.315 375.26,289.222 375.631,289.129C379.086,288.178 382.242,286.16 385.14,283.029C385.442,282.705 385.744,282.357 386.022,282.009L385.048,279.226C388.155,268.905 389.431,255.545 388.898,239.124C392.053,226.089 393.421,215.42 393.003,207.117C392.934,206.281 392.887,205.47 392.841,204.658C391.912,192.203 390.429,178.565 388.41,163.745C388.388,163.606 388.364,163.489 388.342,163.373C388.133,163.188 387.971,163.002 387.832,162.817C387.459,162.283 387.368,161.773 387.553,161.263C387.761,160.544 388.526,159.848 389.802,159.129C389.246,159.245 388.573,158.943 387.784,158.225L387.784,151.754Z" style="fill:rgb(59,59,60);fill-rule:nonzero;"/>
        </g>
        <g transform="matrix(4.16667,0,0,4.16667,0,0)">
            <path d="M390.613,151.754L387.784,151.754L387.784,158.225C389.523,159.129 390.451,156.972 390.613,151.754Z" style="fill:rgb(244,202,179);fill-rule:nonzero;"/>
        </g>
        <g transform="matrix(4.16667,0,0,4.16667,0,0)">
            <path d="M385.303,152.171C385.744,151.916 386.207,151.684 386.694,151.452C386.741,151.429 386.811,151.406 386.88,151.382L387.158,151.243C387.368,151.15 387.553,151.058 387.761,150.988L387.784,150.988C390.545,149.851 393.699,149.133 397.248,148.854C393.978,135.17 388.178,123.132 379.853,112.719C383.309,125.939 384.329,138.139 382.937,149.341C382.705,151.035 382.427,152.681 382.125,154.305C383.1,153.493 384.166,152.797 385.303,152.171Z" style="fill:rgb(135,71,60);fill-rule:nonzero;"/>
        </g>
        <g transform="matrix(4.16667,0,0,4.16667,0,0)">
            <path d="M387.761,150.988C387.553,151.058 387.368,151.15 387.158,151.243C387.368,151.15 387.575,151.081 387.784,151.011L387.761,150.988Z" style="fill:rgb(88,89,91);fill-rule:nonzero;"/>
        </g>
        <g transform="matrix(4.16667,0,0,4.16667,0,0)">
            <path d="M345.827,153.145L347.567,154.398L350.025,153.887L345.363,150.455L345.316,150.431C341.026,155.024 336.063,157.784 330.38,158.712C330.519,159.06 330.659,159.407 330.798,159.755C335.97,158.758 340.979,156.554 345.827,153.145Z" style="fill:rgb(207,147,121);fill-rule:nonzero;"/>
        </g>
        <g transform="matrix(4.16667,0,0,4.16667,0,0)">
            <path d="M347.567,154.398L345.827,153.145C340.979,156.554 335.97,158.758 330.798,159.755C331.935,162.515 333.094,164.417 334.322,165.415C336.411,165.763 336.943,164.185 335.923,160.636L338.475,165.391C338.777,165.878 339.102,166.273 339.402,166.575C340.655,166.504 340.215,164.417 338.082,160.358L342.673,166.551C342.789,166.644 342.928,166.736 343.044,166.806C345.665,167.153 345.758,165.647 343.275,162.283L342.395,158.34L347.845,165.391C348.634,165.438 349.261,165.391 349.724,165.252L345.132,157.296L345.132,154.884L347.567,154.398Z" style="fill:rgb(244,202,179);fill-rule:nonzero;"/>
        </g>
        <g transform="matrix(4.16667,0,0,4.16667,0,0)">
            <path d="M349.724,165.252C350.721,164.95 350.953,164.232 350.442,163.095L348.634,160.288L345.132,154.884L345.132,157.296L349.724,165.252Z" style="fill:rgb(207,147,121);fill-rule:nonzero;"/>
        </g>
        <g transform="matrix(4.16667,0,0,4.16667,0,0)">
            <path d="M380.803,152.612L374.541,152.612C374.309,158.317 372.755,164.116 369.902,170.007L363.269,180.955C366.354,197.167 370.574,209.506 375.932,217.948C372.061,223.468 369.809,233.117 369.16,246.894C366.121,256.102 364.638,265.17 364.708,274.1L361.552,277.254L361.552,282.427C362.411,282.867 363.269,283.261 364.127,283.586C369.577,285.696 374.564,285.511 379.11,283.029L379.11,278.994L382.566,240.886C386.949,230.89 388.805,218.064 388.178,202.455C388.155,202.084 388.155,201.713 388.133,201.341L383.493,155.719L380.153,155.719L380.803,152.612ZM376.628,217.971C376.628,217.832 376.604,217.693 376.534,217.577C371.248,209.228 367.072,197.074 364.011,181.093L365.31,178.937C367.397,191.298 371.92,204.171 378.878,217.531C374.494,225.579 372.106,235.761 371.688,248.03C367.676,256.635 366.376,265.889 367.792,275.747L364.034,278.53L364.127,282.821C363.5,282.566 362.875,282.288 362.248,281.985L362.248,277.533L365.193,274.587C365.334,274.448 365.402,274.285 365.402,274.1C365.334,265.24 366.795,256.241 369.833,247.126C369.856,247.056 369.856,247.01 369.856,246.94C370.483,233.325 372.708,223.793 376.513,218.343C376.582,218.227 376.628,218.11 376.628,217.971Z" style="fill:rgb(88,89,91);fill-rule:nonzero;"/>
        </g>
        <g transform="matrix(4.16667,0,0,4.16667,0,0)">
            <path d="M376.534,217.577C376.604,217.693 376.628,217.832 376.628,217.971C376.628,218.11 376.582,218.227 376.513,218.343C372.708,223.793 370.483,233.325 369.856,246.94C369.856,247.01 369.856,247.056 369.833,247.126C366.795,256.241 365.334,265.24 365.402,274.1C365.402,274.285 365.334,274.448 365.193,274.587L362.248,277.533L362.248,281.985C362.875,282.288 363.5,282.566 364.127,282.821L364.034,278.53L367.792,275.747C366.376,265.889 367.676,256.635 371.688,248.03C372.106,235.761 374.494,225.579 378.878,217.531C371.92,204.171 367.397,191.298 365.31,178.937L364.011,181.093C367.072,197.074 371.248,209.228 376.534,217.577Z" style="fill:rgb(125,127,130);fill-rule:nonzero;"/>
        </g>
        <g transform="matrix(4.16667,0,0,4.16667,0,0)">
            <path d="M371.618,158.92C371.107,159.222 370.599,159.477 370.11,159.732L369.972,167.316C371.804,163.165 372.848,158.712 373.104,153.957L372.546,151.359L371.618,158.92Z" style="fill:rgb(88,89,91);fill-rule:nonzero;"/>
        </g>
        <g transform="matrix(4.16667,0,0,4.16667,0,0)">
            <path d="M366.492,167.432L366.492,164.278L354.131,167.153C349.515,170.935 343.623,171.7 336.411,169.496C333.79,188.028 333.001,206.235 334.044,224.141C332.978,237.338 334.602,253.203 338.938,271.78C337.664,274.03 337.802,276.28 339.355,278.53C336.596,281.267 335.437,284.259 335.923,287.506C341.629,282.867 347.336,281.568 353.018,283.609L353.018,272.105C347.892,257.47 345.595,242.58 346.175,227.434L341.281,229.336C348.401,215.257 353.481,200.274 356.473,184.433L366.492,167.432ZM336.99,170.401C337.64,170.563 338.289,170.726 338.916,170.865C336.109,187.193 335.227,204.913 336.295,224.025C335.923,239.425 337.825,255.313 341.999,271.688C340.098,273.544 340.098,275.816 341.978,278.53C340.144,280.617 339.031,282.705 338.591,284.769C337.895,285.187 337.2,285.65 336.526,286.16C336.503,283.609 337.617,281.244 339.843,279.04C339.959,278.924 340.029,278.761 340.052,278.6C340.075,278.437 340.029,278.274 339.937,278.136C338.544,276.142 338.405,274.146 339.542,272.128C339.635,271.966 339.659,271.78 339.612,271.618C335.297,253.133 333.673,237.338 334.74,224.211C334.74,224.164 334.74,224.117 334.74,224.095C333.697,206.49 334.462,188.608 336.99,170.401Z" style="fill:rgb(88,89,91);fill-rule:nonzero;"/>
        </g>
        <g transform="matrix(4.16667,0,0,4.16667,0,0)">
            <path d="M338.916,170.865C338.289,170.726 337.64,170.563 336.99,170.401C334.462,188.608 333.697,206.49 334.74,224.095C334.74,224.117 334.74,224.164 334.74,224.211C333.673,237.338 335.297,253.133 339.612,271.618C339.659,271.78 339.635,271.966 339.542,272.128C338.405,274.146 338.544,276.142 339.937,278.136C340.029,278.274 340.075,278.437 340.052,278.6C340.029,278.761 339.959,278.924 339.843,279.04C337.617,281.244 336.503,283.609 336.526,286.16C337.2,285.65 337.895,285.187 338.591,284.769C339.031,282.705 340.144,280.617 341.978,278.53C340.098,275.816 340.098,273.544 341.999,271.688C337.825,255.313 335.923,239.425 336.295,224.025C335.227,204.913 336.109,187.193 338.916,170.865Z" style="fill:rgb(125,127,130);fill-rule:nonzero;"/>
        </g>
        <g transform="matrix(4.16667,0,0,4.16667,0,0)">
            <path d="M345.316,150.431L345.363,150.455L345.712,149.991C345.572,150.13 345.433,150.269 345.316,150.431Z" style="fill:rgb(166,195,143);fill-rule:nonzero;"/>
        </g>
        <g transform="matrix(4.16667,0,0,4.16667,0,0)">
            <path d="M339.402,166.575C340.493,167.641 341.583,167.641 342.673,166.551L338.082,160.358C340.215,164.417 340.655,166.504 339.402,166.575Z" style="fill:rgb(207,147,121);fill-rule:nonzero;"/>
        </g>
        <g transform="matrix(4.16667,0,0,4.16667,0,0)">
            <path d="M336.897,166.18C337.431,166.064 337.941,165.809 338.475,165.391L335.923,160.636C336.943,164.185 336.411,165.763 334.322,165.415C335.159,166.11 336.016,166.365 336.897,166.18Z" style="fill:rgb(207,147,121);fill-rule:nonzero;"/>
        </g>
        <g transform="matrix(4.16667,0,0,4.16667,0,0)">
            <path d="M343.275,162.283C345.758,165.647 345.665,167.153 343.044,166.806C345.063,168.058 346.662,167.595 347.845,165.391L342.395,158.34L343.275,162.283Z" style="fill:rgb(207,147,121);fill-rule:nonzero;"/>
        </g>
        <g transform="matrix(4.16667,0,0,4.16667,0,0)">
            <path d="M338.22,291.403L338.22,292.585C343.67,290.939 348.866,290.939 353.76,292.585C360.647,299.427 360.092,303.95 352.112,306.2C355.174,306.27 358.862,305.968 363.176,305.249C363.431,303.741 363.13,302.118 362.271,300.424L356.219,289.941C349.7,287.088 343.717,287.576 338.22,291.403Z" style="fill:rgb(117,88,78);fill-rule:nonzero;"/>
        </g>
        <g transform="matrix(4.16667,0,0,4.16667,0,0)">
            <path d="M338.22,292.585L338.22,295.368L341.096,296.691L341.096,300.888C342.302,304.252 345.966,306.015 352.112,306.2C360.092,303.95 360.647,299.427 353.76,292.585C348.866,290.939 343.67,290.939 338.22,292.585Z" style="fill:rgb(163,122,108);fill-rule:nonzero;"/>
        </g>
        <g transform="matrix(4.16667,0,0,4.16667,0,0)">
            <path d="M341.096,300.888L341.096,302.582C343.044,308.102 350.095,309.772 362.271,307.614C362.735,306.85 363.036,306.061 363.176,305.249C358.862,305.968 355.174,306.27 352.112,306.2C345.966,306.015 342.302,304.252 341.096,300.888Z" style="fill:rgb(82,61,54);fill-rule:nonzero;"/>
        </g>
        <g transform="matrix(4.16667,0,0,4.16667,0,0)">
            <path d="M362.11,290.823L362.11,291.936C365.379,295.067 370.065,295.484 376.211,293.212C385.07,299.822 393.536,301.677 401.607,298.755C402.906,298.268 404.182,297.688 405.458,296.969C405.527,296.25 405.527,295.554 405.458,294.927C404.135,295.415 402.86,295.856 401.607,296.227C398.896,297.038 396.319,297.502 393.885,297.641C387.065,297.989 381.406,295.716 376.93,290.823C372.129,293.815 367.188,293.815 362.11,290.823Z" style="fill:rgb(82,61,54);fill-rule:nonzero;"/>
        </g>
        <g transform="matrix(4.16667,0,0,4.16667,0,0)">
            <path d="M375.631,289.129C375.26,289.222 374.89,289.315 374.519,289.385C370.714,290.15 366.585,289.64 362.11,287.854L362.11,290.823C367.188,293.815 372.129,293.815 376.93,290.823C381.406,295.716 387.065,297.989 393.885,297.641C399.243,293.351 398.547,290.475 391.821,289.037L386.23,286.624L375.631,289.129Z" style="fill:rgb(163,122,108);fill-rule:nonzero;"/>
        </g>
        <g transform="matrix(4.16667,0,0,4.16667,0,0)">
            <path d="M393.791,287.46L385.14,283.029C382.242,286.16 379.086,288.178 375.631,289.129L386.23,286.624L391.821,289.037C398.547,290.475 399.243,293.351 393.885,297.641C396.319,297.502 398.896,297.038 401.607,296.227C402.86,295.856 404.135,295.415 405.458,294.927C405.203,292.354 403.928,290.428 401.607,289.199C399.706,288.155 397.108,287.576 393.791,287.46Z" style="fill:rgb(117,88,78);fill-rule:nonzero;"/>
        </g>
        <g transform="matrix(4.16667,0,0,4.16667,0,0)">
            <path d="M378.692,28.457L379.04,29.129C379.389,27.807 380.016,26.809 380.896,26.114C380.037,26.369 379.319,27.134 378.692,28.457Z" style="fill:rgb(194,136,115);fill-rule:nonzero;"/>
        </g>
        <g transform="matrix(4.16667,0,0,4.16667,0,0)">
            <path d="M359.649,17.671C358.932,17.648 358.281,17.695 357.749,17.857C357.216,18.02 357.191,18.274 357.68,18.668C359.928,18.599 362.04,19.086 364.011,20.176C364.776,20.06 364.429,19.596 362.967,18.831C361.483,18.089 360.37,17.695 359.649,17.671Z" style="fill:rgb(35,31,32);fill-rule:nonzero;"/>
        </g>
        <g transform="matrix(4.16667,0,0,4.16667,0,0)">
            <path d="M358.213,21.011C358.097,21.034 358.003,21.057 357.934,21.104C359.257,22.519 360.879,22.983 362.804,22.519L362.713,22.333C360.834,22.82 359.349,22.38 358.213,21.011Z" style="fill:rgb(194,136,115);fill-rule:nonzero;"/>
        </g>
        <g transform="matrix(4.16667,0,0,4.16667,0,0)">
            <path d="M357.934,21.104C358.003,21.057 358.097,21.034 358.213,21.011C358.653,20.849 359.117,20.756 359.604,20.733L359.858,20.756C359.858,21.15 360.021,21.475 360.346,21.731C360.578,21.846 360.834,21.846 361.136,21.753C361.436,21.684 361.646,21.475 361.763,21.127L362.201,21.29C362.318,21.335 362.434,21.405 362.55,21.475C362.666,21.753 362.713,22.032 362.713,22.333L362.804,22.519L362.967,20.988C360.671,20.037 358.978,20.084 357.934,21.104Z" style="fill:rgb(35,31,32);fill-rule:nonzero;"/>
        </g>
        <g transform="matrix(4.16667,0,0,4.16667,0,0)">
            <path d="M359.604,20.733C359.117,20.756 358.653,20.849 358.213,21.011C359.349,22.38 360.834,22.82 362.713,22.333C362.713,22.032 362.666,21.753 362.55,21.475C362.434,21.405 362.318,21.335 362.201,21.29C361.832,22.008 361.344,22.333 360.763,22.31C360.207,22.264 359.813,21.731 359.604,20.733Z" style="fill:white;fill-rule:nonzero;"/>
        </g>
        <g transform="matrix(4.16667,0,0,4.16667,0,0)">
            <path d="M360.346,21.73C360.021,21.475 359.858,21.15 359.858,20.756L359.604,20.733C359.813,21.73 360.207,22.264 360.763,22.31C361.344,22.333 361.832,22.008 362.201,21.29L361.763,21.127C361.646,21.475 361.436,21.684 361.136,21.753C360.834,21.846 360.578,21.846 360.346,21.73Z" style="fill:rgb(118,79,35);fill-rule:nonzero;"/>
        </g>
        <g transform="matrix(4.16667,0,0,4.16667,0,0)">
            <path d="M371.502,22.496C371.317,22.751 371.201,23.005 371.131,23.307C372.848,24.212 374.401,24.119 375.817,23.029C375.422,22.774 374.982,22.588 374.519,22.472C374.101,23.377 373.591,23.794 372.987,23.725C372.43,23.609 372.061,23.168 371.874,22.403C371.758,22.426 371.618,22.472 371.502,22.496Z" style="fill:white;fill-rule:nonzero;"/>
        </g>
        <g transform="matrix(4.16667,0,0,4.16667,0,0)">
            <path d="M371.131,23.307C371.201,23.005 371.317,22.751 371.502,22.496C371.618,22.472 371.758,22.426 371.874,22.403L372.314,22.356C372.384,22.704 372.546,22.96 372.801,23.098C373.057,23.261 373.311,23.307 373.521,23.261C373.961,23.076 374.193,22.797 374.263,22.403L374.519,22.472C374.982,22.588 375.422,22.774 375.817,23.029C375.886,23.076 375.979,23.145 376.049,23.214C375.284,21.985 373.684,21.544 371.201,21.916L371.016,23.493L371.039,23.493L371.131,23.307Z" style="fill:rgb(35,31,32);fill-rule:nonzero;"/>
        </g>
        <g transform="matrix(4.16667,0,0,4.16667,0,0)">
            <path d="M371.131,23.307L371.039,23.493C372.825,24.351 374.494,24.258 376.049,23.214C375.979,23.145 375.886,23.076 375.817,23.029C374.401,24.119 372.848,24.212 371.131,23.307Z" style="fill:rgb(194,136,115);fill-rule:nonzero;"/>
        </g>
        <g transform="matrix(4.16667,0,0,4.16667,0,0)">
            <path d="M372.314,22.356L371.874,22.403C372.061,23.168 372.43,23.609 372.987,23.725C373.591,23.794 374.101,23.377 374.519,22.472L374.263,22.403C374.193,22.797 373.961,23.076 373.521,23.261C373.311,23.307 373.057,23.261 372.801,23.098C372.546,22.96 372.384,22.704 372.314,22.356Z" style="fill:rgb(118,79,35);fill-rule:nonzero;"/>
        </g>
        <g transform="matrix(4.16667,0,0,4.16667,0,0)">
            <path d="M371.712,19.851C370.11,20.246 369.646,20.594 370.32,20.918C372.523,20.315 374.726,20.315 376.907,20.895C377.44,20.64 377.463,20.362 376.977,20.084C376.513,19.805 375.909,19.596 375.168,19.457C374.494,19.341 373.334,19.457 371.712,19.851Z" style="fill:rgb(35,31,32);fill-rule:nonzero;"/>
        </g>
        <g transform="matrix(4.16667,0,0,4.16667,0,0)">
            <path d="M367.837,22.635L368.533,19.643L367.444,22.449C367.931,25.302 368.069,27.367 367.862,28.642C366.795,29.407 365.565,29.731 364.196,29.593C365.82,30.637 367.467,30.614 369.114,29.477C369.16,27.343 368.743,25.07 367.837,22.635Z" style="fill:rgb(194,136,115);fill-rule:nonzero;"/>
        </g>
        <g transform="matrix(4.16667,0,0,4.16667,0,0)">
            <path d="M354.385,28.131L354.873,27.528C354.57,26.114 354.015,25.21 353.249,24.768C353.968,25.673 354.363,26.787 354.385,28.131Z" style="fill:rgb(194,136,115);fill-rule:nonzero;"/>
        </g>
        <g transform="matrix(4.16667,0,0,4.16667,0,0)">
            <path d="M373.057,33.327L369.322,33.768C367.119,33.907 364.869,33.652 362.597,33.002L359.024,31.68L362.225,36.18C364.452,37.015 366.701,37.27 368.975,36.945L373.057,33.327ZM371.526,33.977L368.696,36.319C366.585,36.597 364.568,36.365 362.644,35.6L360.417,32.678L363.338,33.652C364.986,34.139 366.701,34.347 368.488,34.278L371.526,33.977Z" style="fill:rgb(194,136,115);fill-rule:nonzero;"/>
        </g>
        <g transform="matrix(4.16667,0,0,4.16667,0,0)">
            <path d="M368.696,36.319L371.526,33.977L368.488,34.278C366.701,34.347 364.986,34.139 363.338,33.652L360.417,32.678L362.644,35.6C364.568,36.365 366.585,36.597 368.696,36.319Z" style="fill:white;fill-rule:nonzero;"/>
        </g>
        <g transform="matrix(4.16667,0,0,4.16667,0,0)">
            <path d="M365.728,38.453L365.287,37.942L365.031,41.097C365.657,39.868 365.89,38.986 365.728,38.453Z" style="fill:rgb(194,136,115);fill-rule:nonzero;"/>
        </g>
        <g transform="matrix(4.16667,0,0,4.16667,0,0)">
            <path d="M360.346,20.872C360.301,20.918 360.276,20.964 360.276,21.034C360.253,21.15 360.301,21.266 360.37,21.359C360.463,21.475 360.578,21.521 360.718,21.544C360.834,21.567 360.949,21.521 361.041,21.452C361.157,21.359 361.205,21.243 361.227,21.127C361.227,21.057 361.227,21.011 361.227,20.964C361.182,20.941 361.136,20.941 361.066,20.918C360.834,20.895 360.602,20.872 360.346,20.872Z" style="fill:white;fill-rule:nonzero;"/>
        </g>
        <g transform="matrix(4.16667,0,0,4.16667,0,0)">
            <path d="M372.917,22.31C372.964,22.287 373.01,22.287 373.08,22.31C373.311,22.31 373.543,22.333 373.798,22.403C373.822,22.449 373.822,22.496 373.822,22.565C373.798,22.681 373.752,22.797 373.638,22.89C373.543,22.96 373.427,23.005 373.289,22.983C373.173,22.96 373.057,22.913 372.964,22.797C372.895,22.704 372.848,22.588 372.871,22.472C372.871,22.403 372.895,22.356 372.917,22.31Z" style="fill:white;fill-rule:nonzero;"/>
        </g>
    </g>
</svg>
