<?xml version="1.0" encoding="UTF-8" standalone="no"?>
<!DOCTYPE svg PUBLIC "-//W3C//DTD SVG 1.1//EN" "http://www.w3.org/Graphics/SVG/1.1/DTD/svg11.dtd">
<svg width="100%" height="100%" viewBox="0 0 4208 1991" version="1.1" xmlns="http://www.w3.org/2000/svg" xmlns:xlink="http://www.w3.org/1999/xlink" xml:space="preserve" xmlns:serif="http://www.serif.com/" style="fill-rule:evenodd;clip-rule:evenodd;stroke-linejoin:round;stroke-miterlimit:1.41421;">
    <g transform="matrix(1,0,0,1,-377.329,-6.35322)">
        <g transform="matrix(4.16667,0,0,4.16667,0,0)">
            <path d="M1098.73,293.515C1093.24,313.183 1073.15,344.358 1042.62,344.29C1036.17,344.275 1029.72,342.855 1023.5,340.171C1020.55,359.562 1012.91,380.457 1000.29,393.015C986.18,407.062 934.827,428.447 875.421,445.008C818.948,460.759 729.602,479.476 624.65,479.239C493.087,478.943 391.366,423.214 317.105,382.531C305.503,376.174 294.325,370.057 283.723,364.519C270.981,380.64 257.743,393.959 244.219,404.26C222.899,420.493 201.446,428.694 180.469,428.646C164.188,428.61 149.748,424.306 138.705,416.206C127.804,408.205 114.828,392.559 114.893,363.442C114.949,339.043 126.92,316.599 148.621,300.226C157.911,293.218 168.602,287.695 180.173,283.798C179.56,280.19 179.09,276.091 178.664,271.426C174.943,273.936 170.461,275.386 165.677,275.374C158.223,275.358 151.006,271.985 142.283,264.436C136.791,259.694 130.942,253.447 125.803,246.865C115.664,233.863 103.57,213.796 103.619,192.023C103.681,164.366 128.871,132.003 152.425,110.948C184.877,81.925 222.685,65.326 256.161,65.402C290.869,65.48 317.402,76.306 335.029,97.574C347.766,112.935 355.381,133.58 357.764,159.118C373.253,147.787 390.616,141.593 407.746,141.631C422.479,141.665 437.796,148.586 446.626,161.715C460.641,151.667 476.531,146.33 493.105,146.368C508.688,146.403 521.53,154.016 528.793,166.161C529.034,165.955 529.274,165.748 529.514,165.531C529.427,165.4 529.34,165.258 529.253,165.116C526.594,160.675 525.394,156.171 524.13,151.395C523.784,150.076 523.395,148.626 522.94,147.023C522.237,144.57 520.753,141.199 519.322,137.927C515.115,128.328 510.345,117.452 514.294,105.757C521.677,83.86 556.65,58.351 630.915,58.518C664.914,58.595 703.058,71.768 739.95,84.514C757.317,90.503 773.999,96.273 789.061,100.241C802.265,68.025 819.495,47.806 832.555,36.012C851.49,18.923 872.772,9.142 890.949,9.182C910.303,9.226 921.027,18.524 926.61,26.306C933.128,35.398 936.283,47.414 936.248,63.03C936.243,65.166 936.075,67.41 935.753,69.753C937.576,68.558 939.399,67.309 941.189,65.929C942.346,65.038 944.4,62.613 946.061,60.677C951.929,53.781 960.789,43.361 975.544,43.394C977.702,43.399 979.87,43.655 981.983,44.139C997.787,47.771 1003.44,62.386 1007.98,74.121C1010.72,81.211 1013.84,89.239 1018.74,96.246C1025.55,105.981 1036.69,114.092 1045.66,120.618C1054.55,127.089 1061.56,132.205 1065.96,139.396C1072.89,150.701 1070.28,163.881 1066.32,183.847C1063.08,200.251 1059.03,220.675 1058.98,243.603C1058.97,250.381 1059.54,256.877 1060.38,262.349C1064.39,259.634 1069.35,257.651 1075.49,257.665C1080.18,257.675 1084.83,258.993 1088.93,261.465C1093.75,264.375 1104.38,273.324 1098.73,293.515Z" style="fill:rgb(4,9,13);fill-rule:nonzero;"/>
        </g>
        <g transform="matrix(4.16667,0,0,4.16667,0,0)">
            <path d="M1085.67,285.857C1080.18,305.525 1060.09,336.701 1029.56,336.632C1023.11,336.618 1016.66,335.198 1010.44,332.514C1007.49,351.904 999.846,372.799 987.231,385.357C973.12,399.405 921.767,420.79 862.361,437.351C805.889,453.101 716.542,471.818 611.591,471.582C480.028,471.286 378.306,415.557 304.046,374.874C292.443,368.516 281.265,362.399 270.664,356.861C257.92,372.983 244.684,386.302 231.159,396.603C209.84,412.835 188.387,421.036 167.409,420.989C151.129,420.952 136.688,416.648 125.646,408.548C114.744,400.547 101.768,384.902 101.834,355.784C101.889,331.385 113.861,308.942 135.562,292.568C144.851,285.561 155.543,280.038 167.114,276.141C166.501,272.532 166.031,268.434 165.605,263.769C161.884,266.278 157.401,267.728 152.618,267.717C145.164,267.701 137.946,264.328 129.223,256.778C123.731,252.036 117.883,245.79 112.743,239.207C102.605,226.206 90.51,206.138 90.559,184.365C90.621,156.708 115.813,124.345 139.366,103.29C171.818,74.267 209.625,57.669 243.102,57.744C277.81,57.822 304.342,68.648 321.97,89.916C334.707,105.277 342.321,125.923 344.705,151.46C360.194,140.129 377.556,133.935 394.687,133.974C409.42,134.007 424.737,140.929 433.567,154.058C447.581,144.009 463.471,138.673 480.046,138.71C495.629,138.745 508.471,146.358 515.734,158.503C515.974,158.297 516.214,158.091 516.453,157.873C516.367,157.742 516.281,157.6 516.193,157.458C513.534,153.017 512.334,148.514 511.07,143.738C510.724,142.419 510.335,140.969 509.881,139.366C509.179,136.912 507.693,133.541 506.262,130.269C502.056,120.67 497.285,109.794 501.234,98.1C508.618,76.202 543.59,50.694 617.855,50.861C651.855,50.937 689.998,64.111 726.89,76.857C744.258,82.846 760.939,88.615 776.001,92.583C789.205,60.368 806.436,40.148 819.495,28.354C838.43,11.266 859.713,1.484 877.89,1.525C897.243,1.569 907.967,10.867 913.551,18.649C920.069,27.741 923.224,39.757 923.188,55.373C923.183,57.509 923.015,59.753 922.694,62.095C924.516,60.901 926.339,59.652 928.129,58.272C929.286,57.381 931.341,54.955 933.001,53.019C938.869,46.123 947.73,35.704 962.485,35.737C964.642,35.742 966.81,35.997 968.924,36.482C984.727,40.113 990.383,54.728 994.923,66.464C997.663,73.554 1000.78,81.581 1005.68,88.588C1012.49,98.324 1023.63,106.435 1032.6,112.96C1041.49,119.432 1048.5,124.547 1052.9,131.739C1059.83,143.044 1057.22,156.224 1053.26,176.189C1050.02,192.594 1045.97,213.017 1045.92,235.945C1045.91,242.723 1046.48,249.219 1047.32,254.691C1051.33,251.976 1056.29,249.993 1062.43,250.007C1067.12,250.018 1071.77,251.336 1075.87,253.808C1080.69,256.717 1091.32,265.666 1085.67,285.857Z" style="fill:rgb(31,49,77);fill-rule:nonzero;"/>
        </g>
        <g transform="matrix(4.16667,0,0,4.16667,0,0)">
            <path d="M394.642,155.765C357.701,155.682 316.171,198.27 316.042,255.429C315.984,281.388 330.948,313.264 359.901,313.329C385.361,313.386 406.998,277.937 402.864,273.346C398.133,268.094 385.868,283.542 375.385,283.518C363.112,283.491 358.114,268.17 358.152,250.865C358.232,215.587 379.122,175.449 392.351,175.479C399.174,175.494 402.078,178.828 402.068,183.487C402.031,199.961 355.533,231.806 355.533,231.806L355.509,242.539C355.509,242.539 419.219,215.309 419.298,180.032C419.352,155.82 394.642,155.765 394.642,155.765Z" style="fill:white;fill-rule:nonzero;"/>
        </g>
        <g transform="matrix(4.16667,0,0,4.16667,0,0)">
            <path d="M573.874,156.168C536.933,156.085 495.403,198.673 495.274,255.833C495.216,281.791 510.18,313.667 539.133,313.732C564.593,313.79 586.23,278.339 582.096,273.749C577.365,268.497 565.1,283.945 554.617,283.921C542.344,283.894 537.345,268.574 537.384,251.268C537.464,215.991 558.354,175.852 571.583,175.881C578.406,175.897 581.31,179.231 581.3,183.891C581.263,200.364 534.765,232.209 534.765,232.209L534.741,242.942C534.741,242.942 598.451,215.712 598.53,180.435C598.584,156.224 573.874,156.168 573.874,156.168Z" style="fill:white;fill-rule:nonzero;"/>
        </g>
        <g transform="matrix(4.16667,0,0,4.16667,0,0)">
            <path d="M967.472,157.053C930.531,156.97 889.001,199.559 888.872,256.718C888.814,282.676 903.777,314.553 932.731,314.618C958.19,314.675 979.828,279.225 975.694,274.635C970.963,269.383 958.698,284.831 948.214,284.807C935.941,284.779 930.943,269.459 930.982,252.153C931.061,216.876 951.952,176.737 965.181,176.767C972.003,176.782 974.908,180.117 974.897,184.776C974.86,201.25 928.363,233.094 928.363,233.094L928.338,243.827C928.338,243.827 992.048,216.598 992.128,181.32C992.182,157.109 967.472,157.053 967.472,157.053Z" style="fill:white;fill-rule:nonzero;"/>
        </g>
        <g transform="matrix(4.16667,0,0,4.16667,0,0)">
            <path d="M479.995,160.509C440.225,160.42 409.009,204.762 408.909,249.041C408.809,293.321 426.236,313.478 452.755,313.538C479.485,313.598 499.098,279.946 493.884,274.359C488.904,269.023 476.558,283.079 466.574,283.056C457.256,283.035 453.685,272.941 453.742,247.645C453.788,227.275 466.554,181.279 477.199,183.3C487.844,185.321 469.452,226.714 480.845,226.739C486.835,226.753 500.372,200.658 500.412,183.186C500.441,170.06 492.975,160.539 479.995,160.509Z" style="fill:white;fill-rule:nonzero;"/>
        </g>
        <g transform="matrix(4.16667,0,0,4.16667,0,0)">
            <path d="M600.98,163.81C595.27,167.292 608.901,172.017 610.242,181.137C611.311,188.411 604.254,291.032 609.975,299.614C612.952,304.08 635.891,318.809 640.149,312.329C643.262,307.591 642.136,282.502 642.77,256.424C643.671,219.381 641.618,181.235 636.884,173.209C632.875,166.414 609.34,158.712 600.98,163.81Z" style="fill:white;fill-rule:nonzero;"/>
        </g>
        <g transform="matrix(4.16667,0,0,4.16667,0,0)">
            <path d="M638.774,220.708C638.774,220.708 646.699,161.07 681.923,161.149C695.235,161.179 693.817,184.304 693.717,207.103C693.596,234.751 689.264,263.337 692.26,263.344C695.255,263.35 693.955,161.937 745.32,162.052C754.589,162.073 759.017,175.633 757.462,201.589C756.602,215.932 754.032,283.556 766.762,283.584C773.252,283.599 777.255,270.497 782.232,272.494C788.165,274.875 773.818,314.006 748.373,313.949C726.398,313.9 722.017,271.02 722.55,253.723C723.896,210.045 730.515,189.056 725.789,189.453C709.828,190.794 710.112,302.617 696.807,312.692C689.675,318.094 661.108,306.546 658.903,297.381C657.826,292.906 656.455,274.835 657.504,253.198C659.598,210.021 666.295,190.734 662.138,190.725C655.648,190.71 642.866,236.035 642.825,254.006L638.774,220.708Z" style="fill:white;fill-rule:nonzero;"/>
        </g>
        <g transform="matrix(4.16667,0,0,4.16667,0,0)">
            <path d="M617.807,72.66C548.135,72.503 525.039,95.71 521.887,105.059C519.9,110.954 527.845,122.941 530.829,133.367C533.87,143.988 533.989,148.729 539.88,149.193C546.184,149.689 588.391,130.501 638.976,130.615C678.247,130.704 786.709,144.925 803.349,144.963C862.422,145.096 901.341,79.538 901.395,55.326C901.443,34.027 894.389,23.362 877.838,23.325C849.218,23.26 777.982,68.717 777.671,206.807C777.545,262.717 795.351,314.309 833.586,314.395C860.876,314.456 881.291,263.873 881.376,226.01C881.465,186.406 861.849,177.709 850.534,177.684C839.219,177.658 829.385,184.791 829.36,196.107C829.335,206.923 836.947,211.519 846.265,211.54C867.097,211.587 924.481,148.979 924.497,141.907C924.508,137.068 917.871,132.962 913.381,127.239C907.913,120.269 904.667,112.37 901.259,115.896C885.735,131.962 864.459,201.184 848.446,201.148C843.701,201.137 840.714,197.38 840.721,194.343C840.732,189.035 845.022,186.99 849.182,186.999C857.335,187.018 857.821,193.009 857.814,196.337C857.807,199.665 859.655,265.398 839.188,265.352C828.455,265.328 818.426,248.333 818.497,216.563C818.66,144.332 845.173,45.882 876.456,45.952C882.613,45.966 884.85,50.024 884.834,57.163C884.783,80.25 858.657,119.744 808.152,119.63C757.646,119.516 676.381,72.792 617.807,72.66Z" style="fill:white;fill-rule:nonzero;"/>
        </g>
        <g transform="matrix(4.16667,0,0,4.16667,0,0)">
            <path d="M964.034,57.721C955.763,55.818 949.884,69.002 941.453,75.518C931.264,83.392 921.292,87.288 921.284,90.948C921.266,98.935 931.104,119.079 952.307,132.452C974.446,146.414 1011.31,147.22 1013,152.39C1018.45,169.042 987.965,198.961 986.178,240.19C984.071,288.774 1010.12,314.792 1029.61,314.835C1053.29,314.889 1069.6,275.474 1064.62,272.468C1057.18,267.986 1051.3,287.595 1042.65,287.575C1028,287.542 1024.09,253.867 1024.13,235.895C1024.23,188.97 1039.62,151.784 1034.32,143.12C1029.01,134.455 1002.75,122.415 987.822,101.082C974.162,81.561 972.586,59.689 964.034,57.721Z" style="fill:white;fill-rule:nonzero;"/>
        </g>
        <g transform="matrix(4.16667,0,0,4.16667,0,0)">
            <path d="M158.912,349.924C151.394,349.907 146.613,345.164 146.631,337.246C146.655,326.264 162.969,308.628 196.915,308.705C202.016,308.716 207.297,309.267 212.756,310.298C190.697,334.48 169.615,349.948 158.912,349.924ZM985.382,299.196C968.908,299.339 920.961,380.592 629.766,379.937C430.764,379.489 338.779,335.432 276.826,309.554C304.816,263.031 323.64,208.13 323.725,170.081C323.851,113.971 301.055,79.674 243.058,79.544C179.489,79.401 112.434,151.365 112.359,184.412C112.29,215.363 152.194,251.944 153.827,245.079C158.604,224.981 167.693,192.624 184.477,165.654C184.477,165.654 184.477,165.645 184.477,165.634C190.489,155.963 197.488,146.993 205.632,139.534C205.662,139.514 205.682,139.484 205.712,139.464C206.032,139.165 206.352,138.876 206.682,138.587C207.673,137.701 208.643,136.874 209.594,136.098C209.953,135.799 210.324,135.5 210.694,135.212C211.224,134.784 211.734,134.385 212.234,134.007C216.124,131.071 220.254,128.464 224.622,126.268C224.712,126.228 224.782,126.198 224.812,126.178C234.577,121.298 245.566,118.487 257.946,118.515C274.919,118.553 287.87,131.232 287.825,151.2C287.715,200.012 258.741,253.672 227.552,292.919C221.524,291.777 215.595,291.145 209.634,291.131C161.711,291.023 123.706,319.892 123.625,355.834C123.544,391.777 148.857,399.153 167.458,399.194C201.314,399.27 236.036,369.316 264.122,329.124C344.387,368.123 455.217,449.433 611.637,449.785C801.334,450.211 954.843,386.848 971.854,369.914C990.526,351.325 994.557,299.127 985.382,299.196Z" style="fill:white;fill-rule:nonzero;"/>
        </g>
        <g transform="matrix(4.16667,0,0,4.16667,0,0)">
            <path d="M227.677,259.552C225.64,277.519 197.046,285.722 191.018,280.107C184.164,273.732 184.477,165.654 184.477,165.654C184.477,165.654 184.477,165.645 184.477,165.634C190.489,155.963 197.488,146.993 205.632,139.534C205.662,139.514 205.682,139.484 205.712,139.464C206.042,139.165 206.363,138.876 206.682,138.587C207.673,137.701 208.643,136.874 209.594,136.098C209.953,135.799 210.324,135.5 210.694,135.212C211.224,134.784 211.734,134.385 212.234,134.007C218.655,129.109 223.542,126.764 224.622,126.268C224.712,126.228 224.782,126.198 224.812,126.178C224.832,126.168 224.842,126.168 224.842,126.168C224.842,126.168 229.714,241.585 227.677,259.552Z" style="fill:white;fill-rule:nonzero;"/>
        </g>
        <g transform="matrix(4.16667,0,0,4.16667,0,0)">
            <path d="M376.428,176.32C373.761,180.314 371.346,184.361 369.121,188.487C366.89,192.604 364.835,196.773 363.019,201.02C359.358,209.5 356.651,218.269 354.969,227.205L354.398,230.566C354.21,231.687 354.118,232.821 353.965,233.947C353.791,235.072 353.689,236.204 353.609,237.338C353.532,238.472 353.392,239.604 353.359,240.741C353.069,245.291 353.215,249.854 353.438,254.447C354.117,263.62 355.884,272.785 358.218,282.11C352.965,274.058 349.405,264.845 347.491,255.226C347.133,252.806 346.636,250.386 346.491,247.929C346.393,246.704 346.239,245.477 346.209,244.247L346.126,240.549C346.16,235.619 346.578,230.68 347.47,225.823C349.297,216.123 352.782,206.771 357.682,198.327C360.137,194.107 362.93,190.104 366.04,186.385C367.593,184.526 369.224,182.735 370.958,181.049C372.685,179.363 374.472,177.732 376.428,176.32Z" style="fill:rgb(31,49,77);fill-rule:nonzero;"/>
        </g>
        <g transform="matrix(4.16667,0,0,4.16667,0,0)">
            <path d="M468.281,176.526C465.614,180.521 463.199,184.567 460.974,188.694C458.744,192.811 456.688,196.979 454.872,201.227C451.211,209.708 448.505,218.475 446.823,227.412L446.252,230.773C446.063,231.895 445.972,233.028 445.818,234.154C445.645,235.279 445.543,236.411 445.463,237.545C445.386,238.679 445.245,239.811 445.212,240.948C444.923,245.498 445.068,250.061 445.292,254.654C445.97,263.826 447.737,272.991 450.072,282.317C444.818,274.264 441.259,265.052 439.345,255.433C438.987,253.013 438.489,250.592 438.344,248.136C438.247,246.911 438.093,245.684 438.062,244.453L437.979,240.756C438.013,235.826 438.432,230.886 439.323,226.03C441.15,216.329 444.636,206.978 449.536,198.534C451.991,194.313 454.784,190.31 457.893,186.592C459.447,184.732 461.077,182.941 462.811,181.256C464.539,179.569 466.325,177.939 468.281,176.526Z" style="fill:rgb(31,49,77);fill-rule:nonzero;"/>
        </g>
        <g transform="matrix(4.16667,0,0,4.16667,0,0)">
            <path d="M556.141,176.724C553.474,180.719 551.059,184.765 548.834,188.892C546.604,193.008 544.548,197.177 542.732,201.424C539.071,209.905 536.365,218.673 534.682,227.609L534.112,230.971C533.923,232.092 533.831,233.226 533.678,234.352C533.505,235.477 533.403,236.608 533.323,237.742C533.245,238.876 533.105,240.009 533.072,241.145C532.783,245.695 532.928,250.258 533.152,254.852C533.83,264.024 535.597,273.189 537.932,282.515C532.678,274.462 529.119,265.249 527.204,255.63C526.847,253.21 526.349,250.79 526.203,248.333C526.107,247.108 525.953,245.881 525.922,244.651L525.839,240.954C525.872,236.023 526.292,231.084 527.183,226.228C529.01,216.527 532.495,207.175 537.396,198.731C539.85,194.511 542.643,190.508 545.753,186.79C547.306,184.93 548.937,183.139 550.671,181.454C552.398,179.767 554.185,178.137 556.141,176.724Z" style="fill:rgb(31,49,77);fill-rule:nonzero;"/>
        </g>
        <g transform="matrix(4.16667,0,0,4.16667,0,0)">
            <path d="M947.516,177.604C944.849,181.599 942.434,185.645 940.209,189.772C937.979,193.888 935.924,198.058 934.108,202.305C930.447,210.785 927.74,219.553 926.058,228.49L925.487,231.851C925.299,232.973 925.206,234.106 925.053,235.232C924.88,236.357 924.778,237.489 924.698,238.623C924.621,239.757 924.48,240.889 924.447,242.026C924.158,246.576 924.303,251.139 924.527,255.732C925.205,264.904 926.972,274.069 929.307,283.395C924.054,275.342 920.494,266.13 918.579,256.511C918.222,254.091 917.724,251.67 917.579,249.214C917.482,247.989 917.328,246.762 917.297,245.531L917.214,241.834C917.248,236.904 917.667,231.964 918.558,227.108C920.386,217.407 923.87,208.056 928.771,199.612C931.226,195.392 934.019,191.388 937.128,187.67C938.682,185.811 940.313,184.02 942.046,182.334C943.774,180.647 945.56,179.017 947.516,177.604Z" style="fill:rgb(31,49,77);fill-rule:nonzero;"/>
        </g>
        <g transform="matrix(4.16667,0,0,4.16667,0,0)">
            <path d="M1026.92,164.305C1025.57,169.599 1024.3,174.849 1023.13,180.106C1021.95,185.357 1020.85,190.603 1019.9,195.856C1018.01,206.357 1016.54,216.88 1016.07,227.398C1015.55,237.907 1016.01,248.414 1018.02,258.673C1019.07,263.787 1020.47,268.844 1022.38,273.777C1024.34,278.687 1026.8,283.422 1029.64,288.114C1025.54,284.5 1021.99,280.18 1019.03,275.454C1016.13,270.684 1013.91,265.501 1012.21,260.16C1008.92,249.428 1007.89,238.108 1008.46,227.035C1008.96,215.932 1011.03,205.014 1014.09,194.47C1015.64,189.201 1017.46,184.022 1019.58,178.971C1021.71,173.932 1024.05,168.969 1026.92,164.305Z" style="fill:rgb(31,49,77);fill-rule:nonzero;"/>
        </g>
        <g transform="matrix(4.16667,0,0,4.16667,0,0)">
            <path d="M750.312,185.647C750.606,188.463 750.656,191.273 750.766,194.074C750.87,196.877 750.915,199.671 750.974,202.463C751.074,208.046 751.108,213.611 751.156,219.163C751.262,230.265 751.318,241.328 751.825,252.288C752.087,257.764 752.483,263.214 753.155,268.565C753.517,271.234 753.918,273.885 754.506,276.453C755.072,279.021 755.815,281.52 756.824,283.763C757.848,285.985 759.189,287.933 760.955,288.858C761.816,289.33 762.891,289.595 763.93,289.52C765.004,289.449 766.174,289.102 767.307,288.558C769.591,287.474 771.746,285.78 773.72,283.908C775.678,282.004 777.488,279.893 779.059,277.566C778.099,280.21 776.734,282.731 775.07,285.066C773.405,287.402 771.46,289.608 768.92,291.347C767.647,292.203 766.197,292.939 764.513,293.314C762.795,293.651 761.002,293.593 759.278,293.019C757.566,292.446 756.082,291.412 754.874,290.254C753.663,289.089 752.71,287.775 751.888,286.446C750.245,283.774 749.164,280.962 748.25,278.161C747.377,275.346 746.685,272.52 746.165,269.683C745.088,264.016 744.548,258.335 744.23,252.675C743.629,241.352 744.034,230.084 745.072,218.903C746.098,207.719 747.857,196.626 750.312,185.647Z" style="fill:rgb(31,49,77);fill-rule:nonzero;"/>
        </g>
        <g transform="matrix(4.16667,0,0,4.16667,0,0)">
            <path d="M684.417,185.499C684.759,187.984 684.885,190.473 685.039,192.952C685.195,195.434 685.281,197.909 685.37,200.383C685.531,205.33 685.594,210.265 685.621,215.192C685.66,225.046 685.505,234.87 685.309,244.675C685.122,254.479 684.832,264.268 684.727,274.038C684.669,278.923 684.65,283.806 684.776,288.685C684.918,293.572 685.153,298.422 686.149,303.316C684.876,301.171 683.851,298.824 683.071,296.434C682.237,294.047 681.622,291.604 681.057,289.153C679.965,284.244 679.262,279.281 678.736,274.317C677.715,264.381 677.484,254.432 677.685,244.518C677.892,234.602 678.571,224.716 679.652,214.873C680.74,205.027 682.312,195.24 684.417,185.499Z" style="fill:rgb(31,49,77);fill-rule:nonzero;"/>
        </g>
        <g transform="matrix(4.16667,0,0,4.16667,0,0)">
            <path d="M632.5,185.382C632.807,187.88 632.839,190.381 632.919,192.869C632.997,195.36 633.003,197.841 633.015,200.321C633.019,205.28 632.933,210.221 632.824,215.153C632.581,225.015 632.203,234.839 631.849,244.64C631.496,254.442 631.152,264.218 631.078,273.982C631.057,278.862 631.114,283.736 631.369,288.605C631.632,293.48 632.076,298.324 633.233,303.197C632.91,302.665 632.591,302.125 632.282,301.576C631.961,301.031 631.651,300.477 631.395,299.903C630.873,298.758 630.332,297.602 629.911,296.415C629.439,295.236 629.033,294.035 628.678,292.825C628.294,291.616 627.959,290.396 627.663,289.171C626.437,284.268 625.654,279.284 625.088,274.297C624.032,264.317 623.858,254.309 624.228,244.362C624.597,234.41 625.503,224.505 626.866,214.667C627.559,209.749 628.359,204.848 629.302,199.968C630.23,195.083 631.372,190.242 632.5,185.382Z" style="fill:rgb(31,49,77);fill-rule:nonzero;"/>
        </g>
        <g transform="matrix(4.16667,0,0,4.16667,0,0)">
            <path d="M285.254,95.743C285.169,95.688 285.27,95.795 285.287,95.815L285.397,95.934L285.619,96.168L286.066,96.637L286.948,97.586C287.526,98.228 288.092,98.883 288.647,99.547C289.757,100.875 290.825,102.241 291.853,103.638C293.894,106.444 295.769,109.376 297.506,112.395C300.973,118.436 303.771,124.869 306.041,131.488C308.266,138.125 309.882,144.973 310.971,151.907C312.066,158.844 312.498,165.877 312.509,172.9C312.553,186.966 310.382,200.959 306.964,214.541C303.459,228.122 298.494,241.261 292.678,253.946C286.733,266.58 279.915,278.76 272.416,290.469C268.638,296.305 264.702,302.032 260.639,307.658C256.594,313.297 252.366,318.798 248.009,324.187C230.641,345.793 211.387,365.754 190.755,384.071C209.143,363.507 227.007,342.587 243.294,320.554C251.365,309.492 259.213,298.284 266.304,286.621C273.477,275.018 280.09,263.081 285.764,250.732C291.56,238.444 296.388,225.721 300.006,212.682C303.699,199.663 305.934,186.26 306.581,172.771C307.133,159.29 305.953,145.68 302.473,132.558C300.786,125.985 298.479,119.562 295.637,113.357C294.216,110.255 292.637,107.218 290.895,104.268C290.033,102.788 289.127,101.33 288.173,99.902C287.696,99.187 287.205,98.482 286.704,97.783L285.946,96.737L285.56,96.219L285.367,95.959L285.272,95.827L285.227,95.76C285.197,95.725 285.232,95.71 285.254,95.743Z" style="fill:rgb(31,49,77);fill-rule:nonzero;"/>
        </g>
        <g transform="matrix(4.16667,0,0,4.16667,0,0)">
            <path d="M216.263,140.516C218.069,150.799 219.114,161.098 219.93,171.403C220.716,181.708 221.202,192.02 221.433,202.337C221.666,212.654 221.631,222.978 221.299,233.307C220.938,243.637 220.343,253.973 218.98,264.325C217.164,254.042 216.116,243.743 215.302,233.438C214.517,223.133 214.03,212.822 213.809,202.504C213.587,192.187 213.621,181.863 213.954,171.534C214.317,161.204 214.91,150.868 216.263,140.516Z" style="fill:rgb(31,49,77);fill-rule:nonzero;"/>
        </g>
        <g transform="matrix(4.16667,0,0,4.16667,0,0)">
            <path d="M117.313,188.217C117.677,185.422 118.311,182.67 119.022,179.942C119.728,177.209 120.573,174.512 121.513,171.847C123.39,166.515 125.657,161.309 128.259,156.263C133.485,146.186 140.075,136.751 147.841,128.356C151.764,124.197 155.94,120.27 160.395,116.678C161.519,115.793 162.673,114.945 163.81,114.079C164.384,113.654 164.941,113.207 165.529,112.8L167.309,111.603C168.504,110.817 169.663,109.984 170.884,109.242L174.569,107.061C184.479,101.414 195.298,97.428 206.38,95.566C196.261,100.465 186.64,105.766 177.793,112.119C173.351,115.261 169.14,118.685 165.046,122.221C163.055,124.058 161.006,125.823 159.11,127.758C157.131,129.602 155.294,131.595 153.425,133.55C146.067,141.496 139.411,150.116 133.425,159.27C130.423,163.844 127.603,168.557 124.915,173.375C122.216,178.195 119.675,183.119 117.313,188.217Z" style="fill:rgb(31,49,77);fill-rule:nonzero;"/>
        </g>
        <g transform="matrix(4.16667,0,0,4.16667,0,0)">
            <path d="M211.924,294.262C209.841,295.101 207.606,295.387 205.452,295.877C203.283,296.326 201.118,296.748 198.971,297.242C194.667,298.169 190.416,299.248 186.227,300.469C182.053,301.743 177.917,303.094 173.923,304.778C169.915,306.416 166.002,308.26 162.276,310.42C158.53,312.543 154.982,314.984 151.647,317.685C150.825,318.373 149.967,319.025 149.17,319.743L146.805,321.932C146.022,322.668 145.318,323.48 144.561,324.245C144.189,324.633 143.796,325.004 143.44,325.408L142.389,326.633C136.686,333.126 132.416,340.815 128.932,348.987C130.672,340.291 134.235,331.754 139.733,324.509C142.408,320.839 145.557,317.504 148.995,314.522C152.451,311.557 156.195,308.941 160.111,306.639C164.082,304.437 168.197,302.516 172.43,300.943C176.677,299.414 180.993,298.102 185.389,297.186C189.77,296.215 194.207,295.579 198.642,295.139C200.865,294.949 203.084,294.776 205.304,294.685L208.628,294.547C209.734,294.497 210.847,294.52 211.924,294.262Z" style="fill:rgb(31,49,77);fill-rule:nonzero;"/>
        </g>
        <g transform="matrix(4.16667,0,0,4.16667,0,0)">
            <path d="M400.42,384.542C405.901,387.155 411.542,389.395 417.206,391.547C420.051,392.592 422.872,393.691 425.744,394.657C428.603,395.658 431.46,396.659 434.351,397.562C445.871,401.289 457.494,404.685 469.262,407.497L473.66,408.602L478.081,409.613L486.926,411.614C489.883,412.24 492.854,412.803 495.816,413.4C498.785,413.969 501.732,414.631 504.72,415.102C516.623,417.195 528.552,419.139 540.55,420.563C564.534,423.471 588.646,425.265 612.795,425.758C636.944,426.271 661.108,425.535 685.2,423.828L703.264,422.419C709.275,421.84 715.274,421.124 721.281,420.484L730.288,419.49L739.261,418.217L757.209,415.676L775.086,412.646L784.026,411.13L792.914,409.33L810.696,405.737C816.61,404.477 822.488,403.044 828.388,401.705C875.526,390.713 921.918,376.432 967.574,359.86C923.094,379.383 876.969,395.34 829.807,407.486C823.905,408.979 818.023,410.565 812.1,411.98L794.25,415.878L785.322,417.824L776.336,419.486L758.36,422.807C752.344,423.778 746.305,424.609 740.277,425.511L731.231,426.839L722.147,427.887C716.089,428.563 710.038,429.315 703.973,429.929L685.741,431.433C661.405,433.009 636.994,433.727 612.602,432.958C588.224,432.045 563.87,430.075 539.748,426.438C515.625,422.873 491.698,417.901 468.296,411.095C456.588,407.732 445.018,403.887 433.648,399.544C422.293,395.179 411.071,390.395 400.42,384.542Z" style="fill:rgb(31,49,77);fill-rule:nonzero;"/>
        </g>
        <g transform="matrix(4.16667,0,0,4.16667,0,0)">
            <path d="M960.245,67.309C961.389,71.534 962.834,75.624 964.517,79.601C966.163,83.59 968.054,87.458 970.127,91.207C972.243,94.933 974.465,98.587 976.981,102.036C979.45,105.513 982.108,108.854 985.022,111.961C990.726,118.293 997.269,123.833 1004.32,128.712C1011.4,133.56 1019.04,137.626 1026.97,141.341C1018.45,139.343 1010.16,136.049 1002.5,131.587L999.647,129.872C998.696,129.298 997.807,128.631 996.884,128.015C995.03,126.789 993.292,125.397 991.521,124.051C988.066,121.243 984.842,118.155 981.803,114.896C975.799,108.307 970.818,100.796 967.104,92.738C965.221,88.722 963.71,84.543 962.505,80.297C961.353,76.04 960.442,71.699 960.245,67.309Z" style="fill:rgb(31,49,77);fill-rule:nonzero;"/>
        </g>
        <g transform="matrix(4.16667,0,0,4.16667,0,0)">
            <path d="M529.848,103.282C532.032,100.777 534.618,98.636 537.283,96.626C539.956,94.615 542.795,92.83 545.703,91.154C551.558,87.884 557.766,85.22 564.152,83.109C576.947,78.924 590.396,76.903 603.79,76.546C605.467,76.468 607.141,76.492 608.816,76.504C610.49,76.529 612.167,76.491 613.838,76.569C617.179,76.754 620.525,76.847 623.847,77.209C625.509,77.375 627.174,77.507 628.83,77.701L633.788,78.374C637.1,78.769 640.363,79.468 643.639,80.043C656.697,82.611 669.455,86.445 681.633,91.642C668.57,89.499 655.671,87.334 642.73,85.972C629.803,84.603 616.871,83.806 603.995,84.169C591.125,84.507 578.304,85.918 565.781,88.86C559.52,90.33 553.35,92.215 547.303,94.523C541.292,96.904 535.346,99.611 529.848,103.282Z" style="fill:rgb(31,49,77);fill-rule:nonzero;"/>
        </g>
        <g transform="matrix(4.16667,0,0,4.16667,0,0)">
            <path d="M889.438,31.207C892.561,35.368 894.399,40.411 895.545,45.54C896.539,50.712 896.795,56.09 896.065,61.355C895.426,66.637 893.891,71.774 891.906,76.683C889.907,81.605 887.196,86.171 884.293,90.559C881.354,94.941 877.921,98.924 874.428,102.82C870.766,106.555 867.042,110.221 863.001,113.507C855.01,120.178 846.374,125.985 837.297,130.931C845.372,124.473 853.324,117.979 860.739,110.967C868.14,103.958 875.052,96.453 880.693,88.106C886.421,79.849 890.798,70.64 892.718,60.828C894.557,51.063 893.902,40.552 889.438,31.207Z" style="fill:rgb(31,49,77);fill-rule:nonzero;"/>
        </g>
        <g transform="matrix(4.16667,0,0,4.16667,0,0)">
            <path d="M870.082,202.89C871.721,207.231 872.787,211.75 873.657,216.3C874.504,220.857 875.03,225.475 875.309,230.119C875.827,239.404 875.248,248.819 873.351,258.051C872.824,260.348 872.319,262.651 871.634,264.916C870.994,267.188 870.194,269.422 869.391,271.646C867.66,276.059 865.555,280.338 863.041,284.363C860.503,288.376 857.488,292.078 854.151,295.392L851.537,297.761C850.676,298.55 849.699,299.221 848.769,299.924C846.949,301.377 844.882,302.513 842.898,303.668C845.932,300.151 848.808,296.699 851.281,292.981C853.72,289.249 855.931,285.444 857.789,281.466C859.615,277.474 861.223,273.406 862.568,269.237C863.179,267.129 863.873,265.054 864.371,262.911C864.973,260.802 865.414,258.642 865.886,256.494C867.666,247.865 868.732,239.035 869.332,230.096C869.925,221.146 870.118,212.12 870.082,202.89Z" style="fill:rgb(31,49,77);fill-rule:nonzero;"/>
        </g>
        <g transform="matrix(4.16667,0,0,4.16667,0,0)">
            <path d="M882.121,176.958C884,175.864 885.758,174.659 887.45,173.362C889.167,172.113 890.781,170.731 892.401,169.38C893.193,168.678 893.963,167.952 894.766,167.269C895.552,166.566 896.296,165.812 897.062,165.088C897.837,164.374 898.57,163.61 899.318,162.865C900.066,162.12 900.813,161.375 901.509,160.577L903.682,158.266L905.784,155.883C907.259,154.353 908.506,152.629 909.944,151.051C911.304,149.412 912.628,147.735 914.02,146.097C915.362,144.422 916.681,142.723 918.145,141.097C917.304,143.1 916.336,145.044 915.356,146.988C914.262,148.858 913.203,150.766 911.992,152.572C911.385,153.476 910.768,154.373 910.128,155.254C909.509,156.152 908.843,157.014 908.161,157.866L906.098,160.408L903.881,162.825C903.142,163.63 902.349,164.386 901.556,165.14C900.754,165.885 900.005,166.685 899.144,167.368C897.474,168.786 895.766,170.164 893.95,171.395C892.131,172.624 890.252,173.761 888.281,174.726C886.308,175.672 884.27,176.535 882.121,176.958Z" style="fill:rgb(31,49,77);fill-rule:nonzero;"/>
        </g>
        <g transform="matrix(4.16667,0,0,4.16667,0,0)">
            <path d="M858.463,42.12C856.069,43.084 854.182,44.831 852.537,46.724C850.881,48.62 849.442,50.701 848.105,52.838C845.443,57.128 843.144,61.646 841.076,66.268C838.969,70.87 837.045,75.562 835.283,80.315C833.527,85.071 831.812,89.842 830.273,94.675C824.113,114 819.271,133.747 815.881,153.708C812.54,173.66 810.496,193.874 811.196,214.024C811.599,224.082 812.657,234.141 815.073,243.916C817.412,253.697 821.163,263.214 826.996,271.684C819.818,264.273 814.903,254.782 811.479,244.973C809.797,240.038 808.495,234.979 807.448,229.874C806.413,224.764 805.761,219.593 805.256,214.416C804.229,204.056 804.239,193.638 804.81,183.287C805.399,172.931 806.641,162.633 808.363,152.431C809.253,147.334 810.228,142.254 811.338,137.204C812.479,132.162 813.688,127.135 815.051,122.15C817.767,112.179 820.932,102.327 824.684,92.693C828.383,83.044 832.658,73.594 837.76,64.569C840.369,60.092 843.121,55.676 846.392,51.618C848.036,49.601 849.769,47.644 851.728,45.912C853.694,44.229 855.926,42.658 858.463,42.12Z" style="fill:rgb(31,49,77);fill-rule:nonzero;"/>
        </g>
    </g>
</svg>
