<?xml version="1.0" encoding="UTF-8" standalone="no"?>
<!DOCTYPE svg PUBLIC "-//W3C//DTD SVG 1.1//EN" "http://www.w3.org/Graphics/SVG/1.1/DTD/svg11.dtd">
<svg width="100%" height="100%" viewBox="0 0 1723 3402" version="1.1" xmlns="http://www.w3.org/2000/svg" xmlns:xlink="http://www.w3.org/1999/xlink" xml:space="preserve" xmlns:serif="http://www.serif.com/" style="fill-rule:evenodd;clip-rule:evenodd;stroke-linejoin:round;stroke-miterlimit:1.41421;">
    <g transform="matrix(1,0,0,1,-2897.85,-224.542)">
        <rect x="3850.5" y="250.6" width="764.7" height="3375.5"/>
        <path d="M3268.5,386.2C3377.7,274.6 3607.3,287.4 3617.3,289.2C3650.3,295.1 4204.6,338.9 4055.8,867.9C4043.4,912.1 4008.7,1124 4155.4,1227.4C4711.6,1408.1 4185.3,1946.3 3850.6,1772.5C3850.6,1772.5 3434.2,1225.1 3253.9,1185.8C3164.6,1166.3 3095.3,1009.8 3107.1,918.7C2984.8,784.8 3099,559.3 3268.5,386.2Z" style="fill-rule:nonzero;"/>
        <path d="M3653,851.2C3653,851.2 3635.7,1176.6 3658.1,1191.3C3677.3,1203.8 3955.9,1210.9 3966.6,1269.4C3988.1,1387.6 3924.4,1571.4 3888.3,1571.5C3318.8,1573.3 3364,1226.9 3398.3,1222.3C3455.2,1214.7 3464.6,1061.3 3416.5,838.2L3653,851.2Z" style="fill:white;fill-rule:nonzero;"/>
        <path d="M3715.8,1433.1C3748.9,1448 3846,1389.2 3908.8,1423.4C3961.4,1452 3971.6,1510.9 3973.1,1517.5C3996.3,1622.8 3893.4,1669.9 3888.3,1685.3C3846.7,1810.2 3848.1,2061.2 3973.7,2178.6C4075.8,2274.1 4265,2414.1 4319.2,2643.7C4387.2,2931.4 4248.2,3625 4248.2,3625L3839.1,3625C3839.1,3625 3829.7,3574.2 3726.2,3259C3655.5,3043.7 3596,2958.7 3635.5,2613.5C3656.5,2429.9 3715.4,2232.4 3655.9,2136.7C3596.4,2041 3254.9,1661.9 3263.6,1504.3C3264.5,1491 3522.8,1346 3715.8,1433.1Z" style="fill-rule:nonzero;"/>
        <path d="M3086.4,2043.8C3086.4,2043.8 3081.9,2112 3171.9,2163.1C3198.8,2178.4 3565.4,2565.2 3565.4,2565.2L3400.5,2513.5C3400.5,2513.5 3111.1,2396.7 3005.1,2305.1C2943.4,2251.8 2925.6,2184.8 2925.6,2184.8L3086.4,2043.8Z" style="fill:rgb(190,22,34);fill-rule:nonzero;"/>
        <path d="M3369.4,1254.9C3369.4,1254.9 3268.9,1143.4 3152.7,1204.8C3038.6,1265.1 3177.9,2016.8 3184.1,2119.4C3190.2,2221.9 3237.9,2297.7 3237.9,2297.7L3629.1,2801L3630.9,2685C3630.9,2685 3550.6,2295.9 3391.5,2189.4C3293.3,2123.6 3368.7,1334.4 3369.4,1254.9Z" style="fill:rgb(23,21,17);fill-rule:nonzero;"/>
        <path d="M3372.1,1253.1C3372.1,1253.1 3289.4,1140.9 3167.3,1210.3C3052.4,1275.7 3198.1,2034.2 3204.2,2136.8C3210.3,2239.3 3256.8,2301.2 3256.8,2301.2L3628.1,2774.4L3633.6,2589C3633.6,2589 3538.7,2296 3392,2202.3C3284.6,2133.7 3412.5,1319 3372.1,1253.1Z" style="fill:white;fill-rule:nonzero;"/>
        <path d="M3199.6,406.1C3352.2,118.8 3609,258.5 3609,258.5C3609,258.5 4007.3,146.1 4022.2,472.6C4037.3,803.4 3559.6,985 3559.6,985C3559.6,985 3013.3,756.8 3199.6,406.1Z" style="fill-rule:nonzero;"/>
        <path d="M3246.7,408.1C3246.7,408.1 3031.2,578.8 3044.5,798.2C3050.6,899.2 3143.7,966.8 3143.7,966.8C3143.7,966.8 3022.5,910.9 3026.5,778.1C3033,559.7 3246.7,408.1 3246.7,408.1Z" style="fill-rule:nonzero;"/>
        <path d="M3698.3,260.4C3698.3,260.4 3887.1,262.9 4005.5,444.7C4139.4,650.3 4055.7,867.9 4055.7,867.9C4055.7,867.9 4161.6,608.5 4024.2,420.8C3883.4,228.6 3698.3,260.4 3698.3,260.4Z" style="fill:rgb(249,250,251);fill-rule:nonzero;"/>
        <path d="M4079.1,1148.9C4126.3,1246.5 4250.2,1279.1 4378.1,1225.1L4398.6,1216.3C4463,1188.4 4553.5,1165 4583.4,1201.5C4602,1224.2 4602.6,1247.2 4589.2,1264.2C4575.3,1281.7 4550.3,1278.2 4538.2,1270.8C4513.2,1255.5 4520.2,1227.9 4520.2,1227.9C4515.1,1241.4 4511.7,1264.6 4529.8,1281.9C4546.3,1297.7 4577.2,1303.2 4601.1,1280.3C4625.2,1257.1 4629.4,1225.2 4599.5,1187.1C4562.1,1139.5 4462.1,1170.2 4390,1201.4L4369.7,1210.1C4314.2,1233.5 4176.7,1276 4092,1152C4036.2,1070.3 4043.2,923.7 4043.2,923.7C4036.7,949 4036.8,1061.3 4079.1,1148.9Z" style="fill:rgb(249,250,251);fill-rule:nonzero;"/>
        <path d="M4257.6,1224.7C4371.6,1225.1 4448.2,1154.3 4468.5,1080.9C4493,992.2 4446.1,881.9 4367.5,850.5C4224.1,793.3 4124,933.2 4124,933.2C4124.2,934.5 4215.5,808.8 4350.7,866.2C4417.1,894.4 4457.5,988.7 4441.4,1055.5C4426.9,1115.6 4367,1203.1 4256.1,1200.6C4025.9,1195.4 4051.7,928.8 4048.9,943.3C4038.9,996.5 4069.4,1224 4257.6,1224.7Z" style="fill:rgb(249,250,251);fill-rule:nonzero;"/>
        <path d="M3578.5,1267.9C3578.5,1267.9 3564.3,1239.5 3538.9,1239.5C3513.5,1239.5 3360.4,1235.6 3360.4,1235.6C3360.4,1235.6 3523,1215.9 3542,1219.2C3576.5,1225.3 3578.5,1267.9 3578.5,1267.9Z" style="fill-rule:nonzero;"/>
        <path d="M3402.8,867.2C3402.8,867.2 3419.9,927.1 3451.8,976.5C3499.2,1049.9 3544.3,1085 3579.5,1098.5C3637.1,1120.5 3677.5,940.9 3677.5,940.9L3402.8,867.2Z" style="fill-rule:nonzero;"/>
        <path d="M3511.7,666.7C3511.7,666.7 3498,655.7 3480.4,652.8C3459.8,649.3 3434.6,651.4 3427.1,654.8C3425.7,655.5 3449.4,639.8 3476,641.4C3513.6,643.6 3511.7,666.7 3511.7,666.7Z" style="fill-rule:nonzero;"/>
        <path d="M3792.4,602.8C3779.8,430.7 3598.3,401.8 3598.3,401.8C3598.3,401.8 3415.2,400.8 3368,573.5C3348.8,643.9 3332.7,724.2 3374.9,829.4C3399.7,891.3 3510.8,987.4 3562.7,987.4C3602.3,987.4 3710,936.9 3742.2,862.6C3786.8,759.3 3797.7,675.6 3792.4,602.8Z" style="fill:rgb(249,250,251);fill-rule:nonzero;"/>
        <path d="M3630.6,685.1C3630.6,685.1 3660.7,642.6 3706.8,642.1C3753.9,641.6 3776.4,663.7 3776.4,663.7C3777.4,664.3 3741.8,691.7 3714.1,692.7C3668,694.3 3630.6,685.1 3630.6,685.1Z" style="fill-rule:nonzero;"/>
        <path d="M3639.2,683.8C3639.2,683.8 3657.5,647.7 3719,655.7C3752.2,660 3755.8,660.2 3755.8,660.2C3755.8,660.2 3749.4,689.7 3707,690.3C3662.9,690.9 3639.2,683.8 3639.2,683.8Z" style="fill:white;fill-rule:nonzero;"/>
        <g>
            <path d="M3629.3,873.4C3639.1,857.7 3644.9,845.3 3644.9,845.3C3644.9,845.3 3634.1,852.2 3625.5,845.9C3615.5,838.5 3611.9,832.6 3604.2,828.5C3592.7,822.3 3584.7,830.2 3570.6,830C3553.6,829.8 3545.4,822.1 3534.1,826.7C3528,829.2 3522.9,837 3511.8,843.2C3504.6,847.3 3494,843.4 3494,843.4C3494,843.4 3499.5,855 3506.5,869.6C3516.9,891.1 3531.1,915.9 3571.1,916.1C3600.1,916.2 3616.4,894.1 3629.3,873.4Z" style="fill:rgb(190,22,34);fill-rule:nonzero;"/>
            <path d="M3538.8,832.2C3534.4,837 3534.7,845.8 3547.6,848.5C3553.7,849.8 3582.7,851.6 3588.3,850.5C3606.4,847 3599.9,835.3 3595.1,831.7C3590.2,828 3579.5,831.9 3569.7,831.6C3560.5,831.2 3545.8,824.6 3538.8,832.2Z" style="fill:rgb(230,51,42);fill-rule:nonzero;"/>
            <path d="M3541.8,875C3537.1,879.4 3535.6,893 3549,900.8C3559.9,907.1 3577.9,907.5 3587.7,902.9C3604.3,895 3600.9,879.1 3596.1,875.5C3591.2,871.8 3578.5,868.8 3568.7,868.5C3559.4,868.2 3546.4,870.6 3541.8,875Z" style="fill:rgb(230,51,42);fill-rule:nonzero;"/>
            <path d="M3552.8,836.2C3552.7,838.9 3550.6,841 3548,840.9C3545.4,840.8 3543.4,838.6 3543.5,835.9C3543.6,833.2 3545.7,831.1 3548.3,831.2C3550.9,831.3 3552.9,833.5 3552.8,836.2Z" style="fill:white;fill-rule:nonzero;"/>
            <path d="M3558.2,878.9C3558.1,881.2 3556.3,882.9 3554.2,882.8C3552,882.7 3550.4,880.9 3550.4,878.6C3550.5,876.4 3552.3,874.6 3554.4,874.7C3556.6,874.8 3558.3,876.6 3558.2,878.9Z" style="fill:white;fill-rule:nonzero;"/>
            <path d="M3531.9,862.8L3608,867C3608,867 3598.4,854.3 3568.5,851.5C3538.7,848.7 3531.9,862.8 3531.9,862.8Z" style="fill:white;fill-rule:nonzero;"/>
        </g>
        <g>
            <path d="M3731.6,655.1C3731.6,655.1 3730.7,690.7 3699,689.5C3660.6,688.1 3666.9,656 3666.9,656L3731.6,655.1Z" style="fill:rgb(90,45,20);fill-rule:nonzero;"/>
            <path d="M3723.9,670.1C3720.4,678.4 3711.3,687.6 3697.5,686.3C3679.7,684.7 3670.6,672.1 3671.3,666.6C3672.3,658.8 3688.3,656.4 3705.2,658C3723.4,659.6 3727.3,662.1 3723.9,670.1Z" style="fill:rgb(125,78,36);fill-rule:nonzero;"/>
            <path d="M3718.5,656.3C3722.6,665.5 3717.7,679.4 3701.3,679.9C3685.8,680.4 3676.4,670.4 3678.4,660.3C3680.9,648.4 3716.8,652.4 3718.5,656.3Z" style="fill-rule:nonzero;"/>
            <path d="M3728.4,671.1C3725,670 3710.3,664.9 3708.9,670C3707.5,674.8 3723.8,679.7 3726.8,680.8C3733.5,683.2 3736.5,673.7 3728.4,671.1Z" style="fill:white;fill-rule:nonzero;"/>
        </g>
        <path d="M3636,579.7C3642.9,604 3698.9,555.7 3739.6,552.9C3784,549.8 3792.4,602.8 3792.4,602.8C3792.4,602.8 3792,547.2 3744.8,541C3686.5,533.2 3633.1,569.7 3636,579.7Z" style="fill-rule:nonzero;"/>
        <path d="M3536.4,571.6C3510.2,594.3 3464.5,547 3425.3,535.9C3382.4,523.8 3364.9,573.2 3364.9,573.2C3364.9,573.2 3375.2,519.5 3422.6,523.1C3481.3,527.6 3544.2,564.8 3536.4,571.6Z" style="fill-rule:nonzero;"/>
        <path d="M3550.6,777C3551.3,775.6 3553.9,774.2 3556.6,774.5C3560.9,774.9 3566.1,776.7 3566.5,779.5C3566.6,780.3 3558.2,779.7 3555.3,780.3C3552.6,780.9 3549.4,779.5 3550.6,777Z" style="fill:rgb(167,32,23);fill-rule:nonzero;"/>
        <path d="M3602.1,782C3601.7,780.5 3599.2,778.8 3596.5,778.5C3592.1,778.1 3586.8,778.9 3585.8,781.5C3585.5,782.3 3594,783.5 3596.7,784.5C3599.1,785.3 3602.8,784.6 3602.1,782Z" style="fill:rgb(167,32,23);fill-rule:nonzero;"/>
        <path d="M3642,672.2C3642,672.2 3680.6,649.1 3724.4,656C3739.9,658.4 3757,666.5 3762.4,666.9C3784.7,668.6 3789.6,655.1 3789.6,655.1C3789.6,655.1 3781.8,656.9 3770.7,651.4C3760.2,646.3 3752.1,637.8 3725.4,635.9C3669.3,632.1 3642,672.2 3642,672.2Z" style="fill-rule:nonzero;"/>
        <path d="M3600.4,403.1C3606.4,403.5 3482.1,355.4 3441.9,428.6C3373.4,553.2 3527.3,627.7 3593.5,544.8C3618.9,512.9 3607.9,480.7 3598,472.4C3588.1,464 3569.1,461.8 3560.9,474.3C3554.6,484 3554.9,497.4 3562.2,501.3C3574.6,507.9 3579.6,499.5 3577.1,502C3575.5,503.7 3566.3,501.5 3563.9,495.9C3560.9,489 3565,479.2 3573.5,477.8C3581.5,476.6 3588.7,483 3587.9,494.9C3586.2,521.3 3540.3,520.6 3524.2,488.6C3513,466.6 3517.7,397.9 3600.4,403.1Z" style="fill-rule:nonzero;"/>
        <path d="M3392.8,538.8C3392.8,538.8 3381.7,559.2 3390.5,586.8C3405.4,633.4 3470.3,633 3470.3,633L3416.4,665.4C3416.4,665.4 3356.2,628 3357.5,610.6C3361.8,551.3 3392.8,538.8 3392.8,538.8Z" style="fill-rule:nonzero;"/>
        <path d="M3771.8,528.6C3771.8,528.6 3786.6,546.5 3783.2,575.3C3777.5,623.9 3713.6,635.8 3713.6,635.8L3772.7,657.3C3772.7,657.3 3805.2,655.6 3800.7,598.5C3796,539.2 3771.8,528.6 3771.8,528.6Z" style="fill-rule:nonzero;"/>
        <path d="M3533.8,678.1C3533.8,678.1 3519.7,638.7 3474.1,632.4C3420.8,625.1 3393.3,647.9 3391,647.8C3386.8,647.7 3406.9,669.8 3450.3,677.7C3502.6,687.3 3533.8,678.1 3533.8,678.1Z" style="fill-rule:nonzero;"/>
        <path d="M3523.5,676.9C3523.5,676.9 3509.2,646.3 3475.7,644.3C3442.2,642.2 3405.2,650.7 3405.2,650.7C3405.2,650.7 3416.5,670.3 3454.8,674.8C3495.9,679.5 3523.5,676.9 3523.5,676.9Z" style="fill:white;fill-rule:nonzero;"/>
        <g>
            <path d="M3461.2,641.8C3444.1,639.8 3431.4,643.7 3431.4,643.7C3431.4,643.7 3428.5,667.6 3458.2,674.2C3492.5,681.8 3496.7,649.6 3494.4,648C3485.3,641.4 3478.3,643.9 3461.2,641.8Z" style="fill:rgb(90,45,20);fill-rule:nonzero;"/>
            <path d="M3439.6,656.2C3441.6,664.9 3448,670.3 3461.5,672.6C3479,675.6 3489.5,663.4 3489.8,658C3490.2,650.8 3483.2,646.7 3466.3,646.5C3446.3,646.2 3438.2,649.8 3439.6,656.2Z" style="fill:rgb(125,78,36);fill-rule:nonzero;"/>
            <path d="M3444.8,643.8C3441.3,651.8 3444.4,663.8 3460.4,666.8C3478.3,670.1 3483.7,658.3 3484.3,650.7C3485.3,637.3 3449.3,633.4 3444.8,643.8Z" style="fill-rule:nonzero;"/>
            <path d="M3440.6,667.6C3444.1,666.9 3458.5,661.8 3455.9,657.1C3453.5,652.8 3439.7,657.2 3436.8,658.5C3430.4,661.5 3432.4,669.2 3440.6,667.6Z" style="fill:white;fill-rule:nonzero;"/>
        </g>
        <path d="M3497.4,649.1C3497.4,649.1 3478.6,641.9 3453.7,641.7C3438,641.6 3424.1,649.8 3404.2,651.7C3392.7,652.8 3383.9,641.3 3383.9,641.3C3383.9,641.3 3392.7,644.7 3413,638.8C3424.3,635.5 3432.2,631.6 3453.6,630.7C3474.9,629.9 3497.4,649.1 3497.4,649.1Z" style="fill-rule:nonzero;"/>
        <path d="M3394.4,648.5C3394.4,648.5 3356.1,686.7 3384.6,740.5C3413.1,794.3 3420.3,808.6 3416.5,838.2C3410.4,886.4 3439.1,920.1 3437.8,926.3C3430.7,962.9 3333.5,804.1 3342.7,703.1C3351.9,602.2 3360,591.1 3360,591.1L3394.4,648.5Z" style="fill-rule:nonzero;"/>
        <path d="M3770.7,660.9C3770.7,660.9 3806,679.5 3782.9,729.1C3758.6,781.4 3746.4,819.5 3735.8,854.9C3723.5,896 3706,912.7 3708.9,910.6C3741.5,887 3813.1,822.3 3815.6,721C3818.1,619.7 3811.4,607.7 3811.4,607.7L3770.7,660.9Z" style="fill-rule:nonzero;"/>
        <path d="M3577.6,1606.2L3531.7,1603.4L3576.7,1613.1L3559.8,1656.1L3582.9,1616.1L3618.4,1645.6L3587.7,1611.1L3626.5,1586.3L3584.4,1605L3573,1560.2L3577.6,1606.2Z" style="fill:white;fill-rule:nonzero;"/>
        <path d="M3503.1,1569L3469.5,1571.1L3503.1,1574.1L3494.6,1607L3507.9,1575.8L3536.4,1594L3510.9,1571.7L3537,1550.1L3508,1567.5L3495.6,1536L3503.1,1569Z" style="fill:white;fill-rule:nonzero;"/>
        <path d="M3834.3,3086.5L3788.4,3083.7L3833.4,3093.4L3816.4,3136.4L3839.6,3096.4L3875,3125.9L3844.4,3091.4L3883.2,3066.6L3841.1,3085.3L3829.7,3040.6L3834.3,3086.5Z" style="fill:white;fill-rule:nonzero;"/>
        <path d="M4216.5,2408.5C4216.5,2408.5 4292.5,2195.5 4141.8,2106.4C4023.6,2036.5 3923.4,2105.7 3923.4,2105.7C3923.4,2105.7 3900.2,2072.2 3882.1,2010.1C3864,1948 3865.8,1908.2 3865.8,1908.2C3865.8,1908.2 4116,1815.6 4232.9,1938.4C4404.4,2118.6 4216.5,2408.5 4216.5,2408.5Z" style="fill:rgb(227,13,19);fill-rule:nonzero;"/>
        <path d="M3728.1,3063.6C3727.4,3063.6 3727,3063.6 3727,3063.6L3729.1,3063.6C3739.5,3063.2 3794.5,3060.5 3804.7,3051.9C3815.8,3042.5 3814,2989 3815.4,2967.2L3815.4,2966.5C3815.4,2966.6 3815.4,2966.8 3815.4,2966.9C3815.4,2966.8 3815.4,2966.6 3815.4,2966.5L3815.4,2967.3C3816.8,2989.1 3815.5,3042.7 3826.5,3052.1C3837.7,3061.6 3903.3,3063.6 3903.6,3063.6L3903.7,3063.6C3903.7,3063.6 3837.4,3065.6 3826.2,3075.1C3815.1,3084.5 3816.5,3138.1 3815.1,3159.9L3815.1,3160.7C3815.1,3160.6 3815.1,3160.5 3815.1,3160.3C3815.1,3160.4 3815.1,3160.6 3815.1,3160.7L3815.1,3160C3813.7,3138.2 3815.4,3084.8 3804.4,3075.4C3794.3,3066.8 3739.2,3064.1 3728.8,3063.7L3727.5,3063.7C3727.4,3063.7 3727.6,3063.7 3728.1,3063.6Z" style="fill:white;fill-rule:nonzero;"/>
        <path d="M3656.3,2473.2C3656.3,2473.2 3574.1,2084.4 3284.6,2059.9C2967.2,2033 2961.7,2259.1 2961.7,2259.1C2961.7,2259.1 2825.1,2053.1 2951.5,2046.4C3035.5,2042 3009,1904.7 3070.6,1879.8C3166.8,1840.8 3258.1,1871.7 3298.6,1882.2C3384.1,1904.3 3526.6,2014.7 3619.4,2158.1C3712.2,2301.6 3656.3,2473.2 3656.3,2473.2Z" style="fill:rgb(227,13,19);fill-rule:nonzero;"/>
        <path d="M3649.9,1267.9C3649.9,1267.9 3656.8,1234.9 3671.3,1229.5C3685.8,1224.1 3755.4,1229.5 3755.4,1229.5C3755.4,1229.5 3678.2,1206.7 3658.6,1212.1C3639,1217.5 3649.9,1267.9 3649.9,1267.9Z" style="fill-rule:nonzero;"/>
    </g>
</svg>
