<?xml version="1.0" encoding="UTF-8" standalone="no"?>
<!DOCTYPE svg PUBLIC "-//W3C//DTD SVG 1.1//EN" "http://www.w3.org/Graphics/SVG/1.1/DTD/svg11.dtd">
<svg width="100%" height="100%" viewBox="0 0 56 158" version="1.1" xmlns="http://www.w3.org/2000/svg" xmlns:xlink="http://www.w3.org/1999/xlink" xml:space="preserve" xmlns:serif="http://www.serif.com/" style="fill-rule:evenodd;clip-rule:evenodd;stroke-linejoin:round;stroke-miterlimit:1.41421;">
    <g transform="matrix(1,0,0,1,-594.32,-243.235)">
        <path d="M596.385,317.618C596.393,317.608 596.398,317.595 596.398,317.58C596.398,317.561 596.39,317.543 596.378,317.532C596.367,317.521 596.352,317.515 596.336,317.516C596.319,317.516 596.303,317.522 596.294,317.533C596.284,317.544 596.277,317.562 596.277,317.579C596.277,317.596 596.282,317.611 596.294,317.62C596.304,317.63 596.322,317.636 596.34,317.636C596.358,317.636 596.375,317.63 596.385,317.618ZM596.521,314.872C596.533,314.872 596.544,314.869 596.552,314.862C596.567,314.849 596.576,314.828 596.576,314.808C596.575,314.795 596.572,314.785 596.565,314.776C596.55,314.76 596.527,314.75 596.507,314.75C596.496,314.75 596.487,314.753 596.481,314.759C596.466,314.77 596.458,314.793 596.458,314.815C596.458,314.829 596.462,314.841 596.469,314.849C596.48,314.863 596.501,314.872 596.521,314.872ZM596.979,315.4C596.939,315.392 596.89,315.385 596.85,315.373C596.804,315.358 596.746,315.343 596.751,315.307C596.754,315.277 596.808,315.345 596.854,315.355C596.89,315.362 596.931,315.367 596.965,315.377C597.016,315.395 597.051,315.377 597.225,315.606C597.203,315.54 597.057,315.374 597.034,315.36C596.986,315.333 596.93,315.286 596.884,315.252C596.837,315.219 596.783,315.162 596.785,315.131C596.786,315.116 596.813,315.105 596.842,315.162C596.87,315.221 596.982,315.313 597.046,315.348C597.096,315.375 597.186,315.508 597.214,315.547C597.205,315.527 597.172,315.463 597.158,315.444C597.114,315.386 597.06,315.327 597.032,315.285C596.991,315.223 596.882,315.043 596.914,315.027C596.947,315.011 596.944,315.076 596.97,315.132C596.994,315.186 597.033,315.241 597.058,315.28C597.094,315.334 597.132,315.371 597.172,315.426C597.179,315.436 597.186,315.447 597.192,315.46C597.189,315.438 597.182,315.402 597.171,315.353C597.149,315.256 597.108,315.121 597.08,315.067C597.053,315.012 597.051,314.974 597.066,314.971C597.082,314.967 597.092,315.023 597.095,315.039C597.097,315.056 597.157,315.2 597.167,315.259C597.176,315.313 597.206,315.427 597.198,315.478C597.208,315.499 597.215,315.518 597.219,315.524C597.215,315.447 597.215,315.357 597.225,315.292C597.232,315.244 597.244,315.188 597.244,315.133C597.246,315.051 597.216,315.021 597.235,315.012C597.26,314.999 597.271,315.068 597.269,315.116C597.267,315.159 597.256,315.218 597.249,315.262C597.218,315.48 597.255,315.575 597.273,315.59C597.255,315.435 597.284,315.343 597.304,315.208C597.313,315.155 597.373,315.089 597.339,315.012C597.291,314.903 597.189,314.941 597.15,315C597.148,314.874 597.018,314.896 596.99,314.963C596.857,314.851 596.788,314.992 596.823,315.061C596.725,315.019 596.652,315.143 596.748,315.229C596.717,315.213 596.657,315.232 596.635,315.268C596.609,315.308 596.642,315.381 596.721,315.4C596.913,315.443 597.077,315.522 597.187,315.638C597.186,315.626 597.081,315.421 596.979,315.4ZM597.269,317.005C597.258,317.014 597.131,317.206 597.165,317.305C597.178,317.344 597.196,317.389 597.205,317.43C597.215,317.478 597.231,317.535 597.197,317.55C597.169,317.561 597.202,317.481 597.186,317.436C597.175,317.402 597.158,317.365 597.15,317.329C597.14,317.276 597.108,317.255 597.22,316.99C597.173,317.044 597.102,317.252 597.102,317.279C597.102,317.333 597.089,317.406 597.082,317.463C597.076,317.521 597.054,317.595 597.026,317.609C597.011,317.616 596.989,317.597 597.024,317.545C597.06,317.492 597.087,317.349 597.085,317.276C597.083,317.219 597.154,317.074 597.174,317.03C597.16,317.048 597.122,317.109 597.112,317.13C597.084,317.197 597.058,317.274 597.037,317.319C597.004,317.385 596.901,317.569 596.873,317.549C596.843,317.528 596.898,317.498 596.936,317.447C596.971,317.4 597,317.34 597.021,317.297C597.05,317.24 597.063,317.188 597.091,317.126C597.096,317.115 597.104,317.104 597.112,317.092C597.093,317.106 597.066,317.129 597.029,317.163C596.956,317.23 596.858,317.332 596.825,317.384C596.792,317.435 596.761,317.456 596.75,317.444C596.738,317.431 596.781,317.395 596.795,317.385C596.808,317.374 596.903,317.251 596.949,317.213C596.991,317.179 597.075,317.095 597.124,317.076C597.138,317.057 597.15,317.042 597.154,317.036C597.088,317.077 597.009,317.122 596.948,317.145C596.903,317.164 596.848,317.18 596.801,317.209C596.73,317.248 596.718,317.289 596.7,317.276C596.678,317.26 596.731,317.215 596.773,317.194C596.813,317.174 596.868,317.155 596.91,317.138C597.115,317.057 597.18,316.978 597.182,316.952C597.057,317.046 596.962,317.066 596.836,317.115C596.785,317.135 596.697,317.115 596.648,317.182C596.578,317.279 596.661,317.349 596.732,317.353C596.625,317.416 596.708,317.52 596.781,317.51C596.749,317.682 596.906,317.671 596.948,317.607C596.96,317.712 597.104,317.714 597.131,317.587C597.133,317.623 597.179,317.664 597.222,317.667C597.27,317.669 597.317,317.604 597.292,317.527C597.234,317.34 597.222,317.159 597.269,317.005ZM597.106,317.973C597.078,317.973 597.049,317.992 597.045,318.016C597.045,318.019 597.044,318.022 597.044,318.025C597.044,318.055 597.064,318.089 597.088,318.092C597.091,318.093 597.095,318.093 597.099,318.093C597.126,318.094 597.159,318.071 597.164,318.045L597.164,318.039C597.165,318.013 597.141,317.977 597.116,317.975C597.113,317.974 597.109,317.973 597.106,317.973ZM596.563,314.409C596.575,314.431 596.605,314.447 596.63,314.447C596.641,314.447 596.65,314.444 596.658,314.439C596.681,314.426 596.699,314.395 596.699,314.368C596.699,314.358 596.697,314.348 596.693,314.341C596.677,314.317 596.642,314.295 596.615,314.295C596.607,314.295 596.599,314.297 596.594,314.301C596.572,314.315 596.554,314.349 596.555,314.377C596.556,314.389 596.558,314.399 596.563,314.409L596.553,314.414L596.563,314.409ZM597.034,318.251C597.029,318.25 597.024,318.249 597.02,318.249C596.986,318.249 596.951,318.271 596.947,318.302C596.946,318.306 596.946,318.311 596.946,318.315C596.945,318.35 596.968,318.39 596.999,318.395C597.004,318.397 597.008,318.397 597.013,318.397C597.047,318.398 597.086,318.37 597.094,318.338L597.094,318.331C597.094,318.297 597.065,318.255 597.034,318.251ZM598.939,318.076C598.956,318.096 598.984,318.108 599.008,318.108C599.022,318.108 599.033,318.105 599.042,318.097C599.06,318.083 599.07,318.054 599.07,318.029C599.07,318.012 599.065,317.997 599.057,317.987C599.042,317.969 599.018,317.959 598.994,317.959C598.978,317.959 598.965,317.963 598.954,317.972C598.936,317.988 598.925,318.014 598.925,318.038C598.927,318.053 598.931,318.065 598.939,318.076ZM598.289,317.648C598.423,317.759 598.491,317.618 598.456,317.549C598.553,317.59 598.626,317.465 598.529,317.38C598.56,317.396 598.619,317.376 598.642,317.34C598.667,317.3 598.634,317.228 598.555,317.21C598.362,317.167 598.198,317.09 598.087,316.974C598.088,316.987 598.194,317.192 598.296,317.211C598.337,317.219 598.385,317.225 598.426,317.237C598.472,317.252 598.53,317.266 598.526,317.302C598.522,317.332 598.467,317.264 598.422,317.255C598.386,317.248 598.345,317.244 598.311,317.234C598.26,317.216 598.225,317.235 598.049,317.007C598.072,317.073 598.219,317.238 598.242,317.251C598.29,317.277 598.347,317.324 598.394,317.358C598.44,317.391 598.494,317.448 598.492,317.478C598.492,317.494 598.465,317.504 598.435,317.448C598.407,317.39 598.295,317.298 598.231,317.263C598.18,317.237 598.088,317.104 598.061,317.065C598.07,317.086 598.103,317.149 598.118,317.168C598.162,317.226 598.216,317.284 598.245,317.327C598.287,317.387 598.396,317.567 598.365,317.583C598.332,317.6 598.334,317.535 598.308,317.478C598.284,317.425 598.245,317.37 598.218,317.332C598.182,317.278 598.144,317.24 598.104,317.186C598.097,317.175 598.09,317.164 598.083,317.151C598.086,317.173 598.093,317.21 598.104,317.259C598.127,317.355 598.167,317.489 598.197,317.544C598.225,317.598 598.227,317.636 598.212,317.639C598.196,317.643 598.185,317.587 598.183,317.572C598.18,317.555 598.12,317.411 598.11,317.352C598.1,317.298 598.068,317.185 598.076,317.134C598.067,317.113 598.059,317.093 598.056,317.087C598.06,317.165 598.06,317.254 598.05,317.319C598.044,317.367 598.032,317.424 598.033,317.479C598.032,317.56 598.061,317.59 598.043,317.6C598.018,317.613 598.006,317.543 598.008,317.496C598.01,317.453 598.02,317.394 598.026,317.35C598.056,317.132 598.019,317.037 598,317.022C598.02,317.177 597.99,317.27 597.972,317.404C597.964,317.458 597.904,317.524 597.938,317.6C597.988,317.709 598.089,317.671 598.128,317.611C598.131,317.738 598.262,317.716 598.289,317.648ZM596.411,318.51C596.376,318.51 596.342,318.532 596.338,318.563C596.337,318.567 596.337,318.572 596.337,318.576C596.336,318.611 596.359,318.651 596.39,318.656C596.395,318.658 596.399,318.658 596.404,318.658C596.438,318.658 596.478,318.631 596.485,318.599L596.485,318.592C596.485,318.557 596.457,318.516 596.425,318.511C596.42,318.511 596.415,318.51 596.411,318.51ZM596.384,318.139C596.411,318.139 596.442,318.126 596.453,318.109C596.459,318.098 596.461,318.085 596.461,318.072C596.461,318.045 596.449,318.016 596.429,318.004C596.417,317.997 596.403,317.993 596.387,317.993C596.363,317.993 596.338,318.004 596.327,318.022C596.32,318.034 596.316,318.05 596.316,318.066C596.316,318.092 596.326,318.118 596.344,318.129C596.355,318.136 596.368,318.139 596.384,318.139ZM596.579,317.748C596.558,317.748 596.539,317.757 596.529,317.772C596.523,317.782 596.52,317.793 596.52,317.806C596.52,317.828 596.529,317.85 596.544,317.859C596.552,317.864 596.563,317.867 596.574,317.867C596.597,317.867 596.623,317.856 596.632,317.843C596.637,317.834 596.639,317.823 596.639,317.814C596.639,317.792 596.628,317.768 596.613,317.757C596.604,317.752 596.591,317.748 596.579,317.748ZM596.823,317.907C596.8,317.907 596.776,317.92 596.768,317.94C596.766,317.947 596.764,317.955 596.764,317.961C596.764,317.987 596.779,318.015 596.797,318.022C596.803,318.025 596.811,318.026 596.818,318.026C596.845,318.026 596.874,318.011 596.88,317.99C596.882,317.985 596.883,317.979 596.883,317.973C596.883,317.948 596.867,317.918 596.845,317.91C596.839,317.908 596.831,317.907 596.823,317.907ZM596.713,318.182C596.684,318.182 596.654,318.199 596.646,318.223C596.643,318.231 596.642,318.241 596.642,318.25C596.642,318.263 596.644,318.276 596.65,318.289C596.651,318.293 596.653,318.296 596.656,318.3C596.663,318.311 596.673,318.321 596.681,318.324L596.678,318.334L596.682,318.324C596.69,318.327 596.699,318.329 596.709,318.329C596.741,318.33 596.776,318.31 596.784,318.284C596.786,318.278 596.787,318.271 596.787,318.263C596.787,318.232 596.767,318.196 596.74,318.187C596.732,318.184 596.723,318.182 596.713,318.182ZM598.279,314.308C598.284,314.309 598.289,314.309 598.293,314.309C598.327,314.309 598.362,314.287 598.366,314.256C598.367,314.252 598.367,314.248 598.367,314.243C598.368,314.207 598.345,314.168 598.314,314.163C598.309,314.162 598.305,314.161 598.3,314.161L598.299,314.161C598.266,314.161 598.226,314.189 598.219,314.22L598.219,314.227C598.22,314.261 598.248,314.304 598.279,314.308ZM599.161,314.231C599.191,314.231 599.22,314.218 599.235,314.194C599.243,314.18 599.248,314.162 599.248,314.142C599.248,314.11 599.235,314.078 599.213,314.063C599.2,314.055 599.183,314.051 599.165,314.051C599.13,314.051 599.094,314.067 599.079,314.088C599.072,314.103 599.069,314.117 599.069,314.133C599.069,314.167 599.084,314.2 599.109,314.217C599.125,314.227 599.144,314.231 599.161,314.231ZM598.93,314.42C598.902,314.42 598.872,314.432 598.861,314.45C598.855,314.461 598.853,314.473 598.853,314.487C598.853,314.514 598.865,314.542 598.885,314.554C598.897,314.561 598.911,314.565 598.927,314.565C598.951,314.565 598.976,314.554 598.987,314.536C598.994,314.524 598.998,314.509 598.998,314.493C598.998,314.466 598.988,314.44 598.969,314.429C598.958,314.423 598.944,314.42 598.93,314.42ZM598.929,314.939C598.921,314.949 598.917,314.962 598.917,314.978C598.917,314.996 598.924,315.015 598.937,315.026C598.947,315.036 598.962,315.041 598.978,315.041C598.995,315.041 599.011,315.035 599.021,315.024C599.03,315.013 599.037,314.996 599.037,314.978C599.037,314.962 599.031,314.946 599.021,314.937C599.009,314.928 598.992,314.922 598.974,314.922C598.956,314.922 598.938,314.929 598.929,314.939ZM598.889,314.047C598.894,314.048 598.899,314.048 598.903,314.048C598.938,314.048 598.972,314.027 598.976,313.995C598.977,313.991 598.977,313.987 598.977,313.983C598.978,313.946 598.955,313.907 598.924,313.902C598.919,313.901 598.915,313.901 598.91,313.901L598.909,313.901C598.876,313.901 598.836,313.928 598.829,313.959L598.829,313.966C598.829,314.001 598.857,314.043 598.889,314.047ZM599.155,314.685C599.145,314.697 599.139,314.714 599.139,314.732C599.139,314.754 599.148,314.777 599.162,314.791C599.176,314.804 599.195,314.81 599.215,314.81C599.236,314.81 599.254,314.803 599.267,314.789C599.279,314.776 599.287,314.754 599.286,314.733C599.286,314.712 599.28,314.693 599.268,314.682C599.253,314.671 599.232,314.664 599.21,314.664C599.188,314.663 599.167,314.671 599.155,314.685ZM623.952,364.938C624.009,365.262 624.059,365.598 624.113,365.926C624.022,365.123 623.928,364.322 623.817,363.532C623.862,364.001 623.907,364.47 623.952,364.938ZM599.144,315.173C599.13,315.186 599.122,315.205 599.123,315.225C599.123,315.238 599.127,315.25 599.135,315.26C599.147,315.276 599.168,315.284 599.188,315.284C599.199,315.284 599.209,315.281 599.217,315.275C599.232,315.262 599.242,315.239 599.242,315.217C599.242,315.206 599.239,315.196 599.233,315.189C599.221,315.174 599.196,315.164 599.174,315.164C599.161,315.164 599.15,315.168 599.144,315.173ZM598.734,314.81C598.755,314.81 598.774,314.801 598.784,314.787C598.79,314.777 598.793,314.765 598.793,314.752C598.793,314.73 598.784,314.708 598.769,314.699C598.761,314.694 598.75,314.692 598.739,314.692L598.738,314.692C598.716,314.692 598.69,314.703 598.681,314.716C598.676,314.725 598.674,314.735 598.674,314.744C598.674,314.767 598.685,314.791 598.7,314.801C598.711,314.807 598.723,314.81 598.734,314.81ZM598.601,314.377C598.63,314.377 598.66,314.36 598.668,314.336C598.671,314.327 598.672,314.317 598.672,314.309C598.672,314.295 598.669,314.282 598.664,314.269C598.663,314.266 598.661,314.263 598.658,314.258C598.652,314.248 598.641,314.237 598.633,314.235L598.636,314.224L598.632,314.235C598.624,314.231 598.614,314.229 598.605,314.229C598.573,314.229 598.539,314.249 598.53,314.274C598.528,314.281 598.527,314.288 598.527,314.295C598.526,314.325 598.547,314.36 598.574,314.371C598.581,314.375 598.591,314.377 598.601,314.377ZM598.01,315.59C598.022,315.582 598.149,315.39 598.115,315.291C598.102,315.252 598.084,315.207 598.075,315.166C598.065,315.118 598.05,315.061 598.085,315.046C598.111,315.035 598.079,315.115 598.093,315.159C598.105,315.194 598.122,315.232 598.129,315.267C598.139,315.32 598.172,315.341 598.058,315.606C598.105,315.553 598.178,315.344 598.178,315.318C598.177,315.263 598.192,315.191 598.198,315.133C598.205,315.076 598.227,315.002 598.255,314.988C598.27,314.981 598.293,314.999 598.256,315.052C598.22,315.105 598.193,315.248 598.194,315.321C598.196,315.378 598.125,315.522 598.105,315.566C598.118,315.547 598.157,315.488 598.167,315.466C598.195,315.4 598.221,315.323 598.243,315.277C598.276,315.212 598.38,315.028 598.408,315.048C598.439,315.069 598.382,315.099 598.344,315.15C598.31,315.197 598.281,315.257 598.26,315.299C598.231,315.357 598.217,315.408 598.189,315.471C598.183,315.482 598.176,315.493 598.168,315.504C598.186,315.49 598.214,315.468 598.252,315.433C598.324,315.367 598.422,315.265 598.455,315.213C598.489,315.162 598.521,315.142 598.531,315.154C598.543,315.167 598.5,315.203 598.486,315.213C598.472,315.224 598.378,315.347 598.331,315.385C598.289,315.418 598.205,315.502 598.156,315.52C598.142,315.539 598.13,315.554 598.126,315.56C598.192,315.519 598.27,315.475 598.332,315.452C598.377,315.433 598.432,315.417 598.479,315.389C598.551,315.349 598.563,315.309 598.58,315.321C598.603,315.338 598.55,315.381 598.507,315.403C598.468,315.423 598.412,315.442 598.37,315.459C598.165,315.539 598.099,315.618 598.096,315.642C598.222,315.55 598.317,315.53 598.444,315.481C598.494,315.461 598.583,315.483 598.632,315.415C598.703,315.319 598.62,315.249 598.548,315.244C598.656,315.181 598.573,315.078 598.501,315.087C598.533,314.915 598.377,314.925 598.334,314.99C598.322,314.885 598.179,314.882 598.151,315.008C598.149,314.973 598.103,314.93 598.06,314.928C598.013,314.925 597.965,314.991 597.989,315.068C598.045,315.255 598.058,315.437 598.01,315.59ZM596.986,314.472C596.965,314.477 596.943,314.51 596.943,314.535C596.943,314.54 596.944,314.545 596.946,314.549C596.955,314.575 596.982,314.593 597.007,314.593C597.012,314.593 597.017,314.592 597.022,314.591C597.044,314.583 597.065,314.556 597.065,314.532C597.065,314.526 597.064,314.521 597.062,314.516C597.052,314.491 597.024,314.467 597,314.468C596.995,314.469 596.99,314.47 596.986,314.472ZM596.954,314.355C596.961,314.355 596.967,314.355 596.972,314.353C597.001,314.342 597.026,314.31 597.026,314.28C597.026,314.273 597.024,314.267 597.022,314.26C597.01,314.23 596.977,314.202 596.948,314.202C596.942,314.202 596.936,314.202 596.93,314.205C596.905,314.213 596.877,314.253 596.877,314.284C596.877,314.29 596.879,314.296 596.881,314.302C596.892,314.334 596.925,314.356 596.954,314.355ZM598.208,314.585C598.235,314.585 598.264,314.566 598.268,314.543C598.268,314.54 598.269,314.537 598.269,314.534C598.269,314.504 598.249,314.47 598.225,314.466C598.221,314.465 598.218,314.465 598.214,314.465L598.213,314.465C598.186,314.465 598.154,314.487 598.149,314.513L598.149,314.519C598.148,314.546 598.172,314.581 598.197,314.584C598.2,314.584 598.204,314.585 598.208,314.585ZM596.771,314.677C596.78,314.677 596.787,314.676 596.793,314.672C596.812,314.661 596.825,314.636 596.825,314.612C596.825,314.604 596.823,314.596 596.82,314.591C596.808,314.57 596.781,314.554 596.759,314.554L596.758,314.554C596.751,314.554 596.744,314.555 596.739,314.559C596.721,314.569 596.707,314.597 596.707,314.621C596.707,314.631 596.71,314.641 596.714,314.647C596.725,314.664 596.749,314.678 596.771,314.677ZM598.489,314.651C598.513,314.651 598.537,314.637 598.545,314.618C598.547,314.61 598.549,314.603 598.549,314.596C598.549,314.57 598.535,314.542 598.516,314.535C598.51,314.532 598.502,314.531 598.494,314.531C598.468,314.531 598.439,314.547 598.433,314.567C598.431,314.573 598.43,314.578 598.43,314.584C598.43,314.609 598.446,314.64 598.468,314.647C598.475,314.65 598.482,314.651 598.489,314.651ZM599.075,317.591C599.084,317.58 599.089,317.563 599.089,317.546C599.089,317.526 599.083,317.508 599.071,317.498C599.061,317.489 599.045,317.483 599.029,317.483C599.012,317.483 598.996,317.49 598.986,317.502C598.978,317.513 598.972,317.529 598.972,317.545C598.972,317.562 598.978,317.577 598.99,317.587C599.002,317.598 599.022,317.606 599.04,317.606C599.055,317.605 599.067,317.601 599.075,317.591ZM598.367,318.009C598.358,317.984 598.331,317.966 598.307,317.966L598.306,317.966C598.301,317.966 598.296,317.966 598.291,317.968C598.269,317.975 598.248,318.002 598.248,318.026C598.248,318.032 598.249,318.037 598.251,318.042C598.261,318.067 598.289,318.091 598.313,318.091C598.318,318.09 598.323,318.09 598.328,318.088C598.349,318.082 598.37,318.049 598.37,318.024C598.37,318.018 598.369,318.014 598.367,318.009ZM596.323,316.176C596.375,316.183 596.431,316.193 596.464,316.203C596.515,316.221 596.631,316.248 596.671,316.28C596.694,316.282 596.715,316.284 596.722,316.284C596.652,316.25 596.574,316.207 596.521,316.168C596.482,316.139 596.439,316.101 596.389,316.075C596.362,316.059 596.343,316.054 596.326,316.05C596.324,316.092 596.323,316.134 596.323,316.176ZM596.413,314.084C596.437,314.071 596.454,314.04 596.454,314.012C596.454,314.002 596.452,313.993 596.448,313.986C596.432,313.961 596.397,313.939 596.371,313.939C596.364,313.939 596.358,313.941 596.353,313.944C596.353,313.987 596.352,314.03 596.351,314.073C596.364,314.079 596.372,314.092 596.384,314.092C596.396,314.091 596.405,314.089 596.413,314.084ZM598.697,318.264C598.705,318.264 598.713,318.262 598.718,318.258C598.74,318.244 598.758,318.21 598.757,318.181C598.757,318.169 598.755,318.159 598.75,318.15C598.737,318.128 598.708,318.111 598.682,318.111C598.671,318.111 598.662,318.114 598.654,318.119C598.631,318.132 598.613,318.163 598.613,318.191C598.613,318.2 598.615,318.21 598.619,318.216C598.635,318.242 598.67,318.264 598.697,318.264ZM596.374,314.482C596.367,314.474 596.355,314.474 596.347,314.469C596.346,314.509 596.346,314.549 596.345,314.59C596.349,314.587 596.354,314.588 596.358,314.585C596.376,314.57 596.387,314.544 596.386,314.519C596.386,314.505 596.383,314.492 596.374,314.482ZM596.339,315.019C596.339,315.017 596.341,315.015 596.341,315.013C596.341,315.011 596.339,315.01 596.339,315.009C596.339,315.012 596.339,315.016 596.339,315.019ZM599.244,318.294C599.225,318.294 599.208,318.299 599.195,318.311C599.173,318.33 599.159,318.361 599.159,318.391C599.159,318.409 599.164,318.425 599.174,318.438C599.195,318.462 599.231,318.479 599.261,318.479C599.278,318.479 599.291,318.474 599.302,318.465C599.281,318.408 599.261,318.352 599.246,318.295C599.245,318.295 599.245,318.294 599.244,318.294ZM599.502,314.345C599.501,314.345 599.501,314.345 599.502,314.345C599.474,314.345 599.448,314.354 599.434,314.371C599.422,314.385 599.415,314.406 599.415,314.429C599.415,314.456 599.425,314.484 599.443,314.5C599.46,314.515 599.483,314.523 599.506,314.523C599.53,314.523 599.555,314.514 599.57,314.496C599.585,314.48 599.593,314.454 599.593,314.429C599.593,314.405 599.585,314.381 599.569,314.366C599.554,314.353 599.527,314.345 599.502,314.345ZM598.366,318.355C598.372,318.355 598.378,318.354 598.384,318.351C598.409,318.343 598.437,318.304 598.437,318.272C598.437,318.266 598.435,318.26 598.433,318.254C598.422,318.223 598.389,318.2 598.36,318.201C598.353,318.201 598.347,318.202 598.342,318.204C598.314,318.214 598.288,318.246 598.288,318.276C598.288,318.282 598.29,318.29 598.292,318.297C598.304,318.328 598.338,318.355 598.366,318.355ZM598.999,316.048C599.027,316.027 599.038,315.966 599.017,315.929C598.994,315.888 598.913,315.884 598.862,315.946C598.734,316.097 598.589,316.206 598.435,316.25C598.448,316.256 598.677,316.257 598.742,316.176C598.768,316.144 598.796,316.103 598.826,316.073C598.86,316.039 598.901,315.994 598.931,316.015C598.954,316.033 598.87,316.048 598.841,316.084C598.818,316.112 598.795,316.147 598.77,316.173C598.731,316.21 598.731,316.249 598.448,316.298C598.517,316.309 598.731,316.256 598.755,316.241C598.8,316.212 598.868,316.183 598.92,316.157C598.971,316.132 599.045,316.11 599.072,316.126C599.085,316.134 599.083,316.163 599.018,316.162C598.954,316.16 598.819,316.216 598.76,316.257C598.712,316.289 598.552,316.309 598.505,316.316C598.527,316.317 598.599,316.318 598.622,316.313C598.693,316.301 598.77,316.281 598.822,316.275C598.894,316.266 599.105,316.254 599.104,316.288C599.103,316.325 599.046,316.294 598.984,316.29C598.925,316.286 598.859,316.295 598.813,316.3C598.749,316.308 598.697,316.324 598.63,316.334C598.617,316.336 598.604,316.336 598.589,316.335C598.611,316.343 598.646,316.355 598.695,316.367C598.791,316.39 598.929,316.418 598.99,316.418C599.052,316.418 599.086,316.434 599.082,316.449C599.078,316.464 599.023,316.449 599.008,316.443C598.992,316.438 598.837,316.424 598.779,316.406C598.728,316.389 598.612,316.365 598.571,316.335C598.548,316.333 598.527,316.33 598.52,316.331C598.59,316.363 598.669,316.404 598.724,316.443C598.763,316.471 598.808,316.508 598.857,316.533C598.929,316.572 598.969,316.559 598.968,316.581C598.968,316.608 598.902,316.588 598.86,316.563C598.822,316.541 598.776,316.505 598.739,316.479C598.56,316.35 598.459,316.339 598.436,316.349C598.582,316.405 598.651,316.473 598.76,316.552C598.804,316.584 598.834,316.668 598.918,316.674C599.037,316.681 599.052,316.573 599.017,316.511C599.128,316.567 599.17,316.441 599.122,316.385C599.283,316.319 599.189,316.193 599.112,316.192C599.196,316.125 599.12,316.003 598.999,316.048ZM599.227,317.242C599.205,317.242 599.183,317.253 599.176,317.269C599.17,317.278 599.167,317.29 599.167,317.301C599.167,317.322 599.177,317.342 599.192,317.352C599.202,317.358 599.215,317.362 599.229,317.362C599.244,317.362 599.253,317.353 599.263,317.345C599.265,317.324 599.269,317.305 599.271,317.284C599.266,317.27 599.265,317.255 599.255,317.249C599.248,317.245 599.238,317.242 599.227,317.242ZM599.434,315.737C599.412,315.744 599.394,315.769 599.394,315.793C599.394,315.8 599.396,315.806 599.398,315.812C599.406,315.836 599.433,315.857 599.457,315.856C599.459,315.856 599.461,315.855 599.463,315.855C599.468,315.822 599.472,315.788 599.477,315.754C599.466,315.748 599.46,315.734 599.45,315.734L599.449,315.734C599.442,315.734 599.438,315.735 599.434,315.737ZM598.833,317.8C598.847,317.788 598.855,317.765 598.855,317.744C598.855,317.73 598.851,317.718 598.844,317.709C598.832,317.694 598.813,317.686 598.792,317.686C598.78,317.686 598.77,317.69 598.761,317.697C598.746,317.709 598.737,317.73 598.738,317.75C598.738,317.763 598.741,317.773 598.749,317.782C598.763,317.798 598.786,317.809 598.806,317.809C598.816,317.809 598.825,317.805 598.833,317.8ZM636.583,265.162C637.146,265.221 637.611,265.058 637.976,264.805C638.236,265.465 638.555,266.065 640.025,265.236C641.847,264.196 641.896,268.476 643.252,270.481C644.611,272.479 646.431,271.445 647.16,269.374C647.889,267.302 651.381,267.302 649.4,267.165C647.421,267.024 647.838,268.546 646.013,270.063C644.189,271.583 642.782,267.789 642.572,265.445C642.48,264.388 642.137,263.962 641.86,263.796C642.594,263.839 642.835,264.29 642.835,265.992C642.835,267.789 644.346,267.511 645.857,266.475C647.368,265.445 645.128,268.821 645.649,268.687C646.171,268.545 646.951,264.958 645.909,266.058C644.869,267.164 643.044,267.858 643.044,266.2C643.044,264.541 643.252,262.889 641.637,263.372C640.026,263.854 639.034,262.817 638.2,261.304C637.949,260.845 637.609,260.828 637.298,260.974C638.56,259.637 638.671,261.31 639.5,262.481C640.389,263.715 641.063,263.507 641.119,262.542C641.126,262.378 641.125,262.206 641.122,262.037C640.899,263.298 639.678,262.606 639.24,261.714C638.768,260.752 638.565,259.235 637.415,260.543C636.275,261.856 636.846,260.123 635.435,260.123C634.03,260.123 632.206,258.061 632.833,258.475C633.46,258.886 634.5,259.098 635.541,259.098C636.584,259.098 637.365,261.372 636.999,260.405C636.635,259.439 636.113,258.271 634.866,258.886C634.308,259.164 633.38,258.404 632.608,257.613C633.535,258.212 634.633,258.342 635.488,258.199C636.742,257.997 636.845,255.576 637.261,258.406C637.677,261.236 638.407,258.545 638.146,259.236C637.884,259.924 637.573,259.649 637.521,258.751C637.471,257.855 638.303,255.647 636.011,257.511C633.716,259.373 632.051,256.956 629.965,254.125C629.239,253.141 628.423,252.497 627.745,252.079C627.722,251.929 627.698,251.778 627.673,251.633C629.153,252.005 629.79,252.808 630.383,253.718C630.826,254.389 631.425,254.068 632.219,253.704C632.24,253.525 632.258,253.329 632.273,253.109C631.926,253.132 631.603,253.206 631.377,253.439C630.437,254.401 629.709,251.432 628.145,251.369C627.963,251.36 627.784,251.32 627.607,251.271C627.563,251.047 627.518,250.831 627.469,250.622C627.586,250.598 627.703,250.577 627.825,250.543L627.452,250.543C627.238,249.641 626.978,248.892 626.676,248.386C626.224,247.628 623.202,245.414 621.925,244.822C623.744,245.301 626.021,245.391 628.145,248.96C628.487,249.528 628.757,249.895 628.983,250.136C629.011,250.124 629.038,250.113 629.064,250.104C628.413,249.496 628.149,247.972 626.583,246.538C624.392,244.539 621.633,244.679 619.601,243.638C617.57,242.61 618.507,243.913 616.423,243.574C615.161,243.365 613.906,244.191 613.107,244.875L613.196,244.473C612.048,244.958 612.255,245.303 610.381,247.302C608.508,249.304 608.139,251.99 606.784,253.786C605.431,255.579 604.702,255.03 603.865,254.407C603.037,253.786 604.234,252.543 604.752,251.372C605.275,250.195 604.234,247.716 604.443,248.75C604.65,249.788 604.752,251.372 603.66,253.029C602.566,254.685 604.286,254.826 603.398,255.852C602.513,256.892 601.369,257.513 601.369,256.614C601.369,255.717 603.19,254.89 602.566,255.165C601.942,255.443 600.431,256.478 601.263,257.374C601.582,257.719 602.364,257.695 603.102,257.563C602.378,258.084 602.299,258.98 602.148,260.683C601.942,263.035 600.431,262.273 599.439,261.791C598.824,261.489 599.078,259.895 599.307,258.942C598.929,260.133 598.353,262.264 600.376,262.893C601.887,263.362 602.78,261.543 603.197,260.247C602.93,261.365 602.374,262.893 600.792,263.511C598.993,264.218 599.28,265.138 599.211,266.701C599.23,265.563 600.338,264.498 601.418,264.619C602.669,264.754 603.765,263.511 603.864,262.545C603.921,262.042 604.061,261.126 604.153,260.501C604.192,261.48 604.71,262.862 603.137,263.997C601.312,265.306 600.322,266.686 599.699,267.998C599.072,269.309 598.24,270.206 596.521,269.724C594.802,269.243 597.039,263.859 596.05,265.45C595.062,267.032 595.684,269.935 596.571,270.486C596.905,270.694 597.78,270.655 598.622,270.528C598.39,271.061 598.462,271.725 597.403,271.725C595.633,271.725 594.331,268.417 594.331,268.417C594.331,268.417 594.071,269.378 596.101,271.313C598.136,273.24 598.341,270.415 599.491,270.485C599.826,270.504 600.097,270.342 600.32,270.118C600.5,270.043 600.566,269.977 600.496,269.93C600.74,269.611 600.902,269.222 600.998,268.949C600.822,269.604 600.543,271.132 601.184,272.721C599.164,277.006 600.48,284.158 599.6,289.482C599.467,290.844 599.333,292.206 599.2,293.568C598.587,295.464 597.971,297.36 597.358,299.256C597.064,301.232 596.77,303.208 596.476,305.184C596.436,308.098 596.396,311.012 596.356,313.926C596.362,313.924 596.367,313.921 596.373,313.921C596.41,313.922 596.449,313.947 596.47,313.98C596.476,313.992 596.478,314.004 596.478,314.017C596.478,314.053 596.458,314.09 596.426,314.109C596.415,314.116 596.401,314.119 596.387,314.119C596.374,314.119 596.366,314.104 596.354,314.099C596.353,314.217 596.351,314.334 596.349,314.453C596.365,314.46 596.382,314.461 596.394,314.474C596.406,314.489 596.411,314.508 596.411,314.526C596.411,314.557 596.398,314.589 596.374,314.61C596.366,314.617 596.356,314.616 596.348,314.619C596.346,314.734 596.345,314.849 596.343,314.965C596.358,314.98 596.366,315 596.366,315.02C596.366,315.041 596.359,315.061 596.346,315.077C596.345,315.079 596.342,315.078 596.34,315.079C596.337,315.282 596.335,315.484 596.332,315.686C596.561,315.879 596.771,316.013 597.009,316.109C596.989,316.171 596.979,316.236 596.979,316.304C596.979,316.372 596.991,316.439 597.01,316.501C596.761,316.601 596.543,316.736 596.302,316.945C596.256,317.401 596.21,317.857 596.164,318.314C596.183,318.315 596.201,318.319 596.218,318.328C596.251,318.35 596.269,318.391 596.269,318.431C596.269,318.45 596.265,318.469 596.255,318.487C596.234,318.519 596.191,318.535 596.151,318.536C596.148,318.536 596.145,318.534 596.142,318.534C595.933,320.599 595.724,322.666 595.516,324.732C595.724,326.018 596.696,328.15 597.199,329.619C598.312,329.953 599.307,330.646 600.803,330.34C600.857,330.314 600.909,330.287 600.963,330.26C600.857,329.993 600.749,329.726 600.643,329.459C600.974,329.001 601.363,328.731 602.004,328.578C601.765,327.817 601.347,327.44 600.643,327.136L600.643,320.8C600.449,320.051 599.612,319.278 599.311,318.485C599.296,318.494 599.28,318.501 599.263,318.501C599.226,318.501 599.185,318.482 599.159,318.452C599.145,318.434 599.138,318.413 599.138,318.391C599.138,318.355 599.155,318.318 599.182,318.294C599.198,318.279 599.219,318.274 599.241,318.273C599.205,318.127 599.185,317.982 599.2,317.835C599.2,317.832 599.201,317.829 599.201,317.825C599.196,317.813 599.186,317.804 599.186,317.791C599.186,317.767 599.194,317.743 599.208,317.724C599.21,317.722 599.213,317.723 599.215,317.721C599.227,317.601 599.248,317.488 599.262,317.367C599.25,317.372 599.242,317.384 599.231,317.384C599.213,317.383 599.197,317.379 599.182,317.37C599.158,317.355 599.147,317.327 599.147,317.301C599.147,317.285 599.15,317.271 599.157,317.258C599.171,317.233 599.2,317.22 599.228,317.22C599.243,317.22 599.257,317.223 599.27,317.231C599.275,317.235 599.274,317.243 599.278,317.248C599.286,317.179 599.298,317.111 599.305,317.042C599.304,317.036 599.295,317.033 599.295,317.026C599.295,317.016 599.296,317.006 599.3,316.998C599.302,316.993 599.31,316.995 599.312,316.99C599.357,316.616 599.408,316.246 599.46,315.878C599.46,315.878 599.459,315.878 599.458,315.878L599.457,315.878C599.423,315.878 599.389,315.853 599.378,315.819C599.374,315.81 599.373,315.801 599.373,315.793C599.373,315.76 599.395,315.727 599.427,315.716C599.434,315.714 599.441,315.712 599.448,315.712C599.461,315.712 599.468,315.728 599.479,315.733C600.528,308.579 602.996,302.423 604.486,295.885C604.994,292.548 605.501,289.209 606.007,285.872C606.503,283.865 606.998,281.857 607.493,279.851C607.517,279.835 607.541,279.819 607.565,279.803C608.373,281.853 608.146,288.536 607.77,290.918C607.332,293.681 607.682,296.285 607.128,298.769C606.437,301.867 605.621,304.803 604.823,307.76C605.192,306.677 605.753,305.529 606.006,304.697C606.487,302.641 606.968,300.585 607.449,298.529C608.324,293.816 608.379,288.752 608.25,283.468C608.112,282.187 607.975,280.905 607.838,279.623C608.158,279.407 608.479,279.185 608.793,278.952C613.07,278.828 617.35,278.705 621.627,278.581L627.795,278.581C628.986,278.915 629.681,279.902 630.52,280.584C629.446,282.916 630.559,285.019 630.12,287.954C629.986,293.24 629.852,298.528 629.72,303.814C628.704,304.084 626.723,304.007 626.275,304.856L626.115,305.016C626.169,305.176 626.222,305.336 626.275,305.496C627.37,305.55 628.464,305.602 629.56,305.656C628.865,305.914 628.076,305.633 627.396,305.976C626.649,306.537 625.902,307.098 625.154,307.659C625.425,308.479 625.675,308.991 626.195,309.502C627.577,309.574 628.457,308.645 630.121,308.62C630.281,308.727 630.441,308.834 630.601,308.94L630.601,309.02C629.646,309.599 628.678,309.82 627.877,310.462C627.903,310.568 627.931,310.676 627.957,310.782L627.957,310.942C629.188,310.877 629.698,310.313 630.841,310.221C630.921,310.835 631.001,311.45 631.081,312.063C630.627,312.384 630.173,312.705 629.72,313.025C628.997,313.304 628.685,312.857 628.278,312.705C627.925,313.207 625.174,313.518 624.113,313.346C622.324,313.212 620.534,313.078 618.746,312.946C617.09,312.626 615.433,312.305 613.779,311.984L609.373,311.744C607.744,311.05 606.115,310.355 604.486,309.662C604.459,309.399 604.492,309.099 604.55,308.787C603.823,311.508 603.123,314.262 602.564,317.191C602.59,319.541 602.617,321.891 602.644,324.241C602.644,328.892 602.416,334.012 603.124,338.34C603.23,339.995 603.337,341.652 603.444,343.307C602.489,349.18 601.518,354.828 600.479,360.289L600.479,367.739C600.506,371.291 600.534,374.843 600.56,378.393C600.454,379.275 600.346,380.156 600.239,381.037C600.639,382.185 601.041,383.334 601.441,384.482C601.758,385.912 601.016,387.513 600.8,388.567L600.8,391.291C600.906,394.121 601.014,396.953 601.12,399.783C602.978,400.463 605.238,400.728 607.689,400.424C608.351,395.854 607.213,392.945 606.567,388.648C606.647,385.204 606.727,381.758 606.807,378.314C607.074,377.247 607.341,376.178 607.609,375.11C607.922,373.182 607.432,371.027 607.769,369.102C608.443,365.239 608.496,361.109 609.371,357.085C610.094,353.765 611.164,350.103 612.015,346.672C612.842,341.945 613.67,337.218 614.498,332.492L615.939,323.6C615.993,323.573 616.046,323.546 616.099,323.52L616.499,323.52C617.483,325.151 617.343,328.047 617.781,330.088C618.342,332.758 618.903,335.429 619.464,338.099C619.784,341.329 620.105,344.562 620.425,347.792C621.28,352.325 622.492,356.222 623.309,360.448C623.503,361.458 623.669,362.487 623.816,363.529L623.309,358.206C622.775,356.603 622.242,355.001 621.706,353.399C621.359,351.37 621.013,349.34 620.665,347.311C620.372,344.267 620.077,341.222 619.784,338.178C618.899,333.658 617.364,328.734 617.221,323.839L616.179,323.118C616.073,323.171 615.966,323.224 615.859,323.278C614.765,329.258 613.67,335.241 612.575,341.222C612.027,343.57 611.873,345.999 611.293,348.591L608.891,357.644C608.864,358.391 608.837,359.139 608.811,359.886C608.331,362.984 607.85,366.081 607.369,369.179C607.315,370.861 607.263,372.543 607.209,374.226C606.677,377.539 606.355,380.287 606.408,384.4L601.521,384.4L600.56,380.714C600.666,379.833 600.774,378.951 600.88,378.07C600.826,374.866 600.774,371.661 600.72,368.458L600.72,361.729C601.787,355.455 602.856,349.178 603.924,342.904L603.444,338.818C603.284,333.505 603.124,328.19 602.964,322.877C602.937,321.169 602.91,319.459 602.884,317.751C603.345,315.111 604.097,312.507 604.486,310.061C606.061,310.702 607.637,311.342 609.213,311.983C611.483,312.251 613.752,312.517 616.022,312.785C618.819,313.3 622.504,313.968 625.555,313.826C627.276,313.746 627.852,313.24 629.641,313.426C629.749,318.293 630.465,323.713 629.721,328.486C629.667,330.489 629.614,332.492 629.561,334.495C628.813,339.189 628.524,344.871 629.401,349.715C630.354,354.986 630.598,360.211 631.483,365.817L631.243,373.909C631.27,377.46 631.296,381.012 631.323,384.563C629.915,384.973 628.054,384.945 626.356,385.364L626.276,385.364C625.626,378.946 625.131,372.048 624.115,365.925C624.829,372.255 625.001,378.922 626.116,384.884C626.839,388.747 625.278,392.275 624.675,394.898C624.243,396.765 624.891,398.591 624.915,400.345C626.458,400.755 630.791,401.495 631.884,399.945C632.361,399.271 631.981,395.105 631.884,394.017C631.804,388.436 631.724,382.854 631.644,377.274C630.806,372.007 632.472,366.88 631.564,361.573C630.582,355.828 630.218,349.735 629.241,343.629C629.455,340.399 629.669,337.167 629.883,333.937C629.909,332.575 629.936,331.212 629.963,329.851C630.795,324.617 630.123,318.717 630.043,313.269C630.443,312.975 630.844,312.681 631.244,312.388C631.52,312.115 631.212,310.581 631.164,309.985C632.339,309.878 633.514,309.771 634.688,309.665C638.14,307.964 643.08,298.61 645.342,295.005C646.007,293.944 648.433,290.006 647.905,288.116C647.372,287.314 646.837,286.513 646.303,285.713C644.493,283.139 642.856,281.065 640.696,278.903C639.805,278.013 639.041,277.016 638.3,275.995C638.361,275.744 638.388,275.522 638.4,275.377C638.384,275.524 638.341,275.731 638.271,275.953C637.649,275.094 637.038,274.222 636.388,273.375C636.402,273.349 636.414,273.328 636.428,273.302C638.046,270.272 635.699,267.716 635.023,266.475C634.345,265.236 632.367,264.685 632.367,264.685C632.367,264.685 632.73,264.063 636.689,266.542C638.393,267.61 638.533,267.364 638.448,266.923C637.679,266.995 636.818,266.412 635.387,265.444C633.356,264.062 631.063,264.266 632.158,264.062C633.249,263.854 634.499,264.957 636.583,265.162ZM633.196,261.303C634.887,261.164 636.178,262.205 636.972,263.149C635.866,263.352 634.948,263.403 634.342,262.337C633.862,261.482 632.567,261.369 632.244,261.356C632.366,261.355 632.65,261.346 633.196,261.303ZM599.31,314.731C599.309,314.756 599.301,314.784 599.285,314.801C599.267,314.821 599.242,314.83 599.217,314.83C599.193,314.83 599.168,314.822 599.15,314.805C599.129,314.786 599.12,314.758 599.12,314.731C599.12,314.709 599.126,314.687 599.14,314.67C599.159,314.649 599.187,314.64 599.213,314.64C599.238,314.64 599.265,314.648 599.284,314.663C599.301,314.681 599.309,314.706 599.31,314.731ZM599.264,315.218C599.263,315.246 599.251,315.274 599.23,315.292C599.217,315.302 599.203,315.307 599.187,315.307C599.161,315.307 599.134,315.294 599.117,315.275C599.105,315.261 599.1,315.243 599.1,315.225C599.1,315.2 599.11,315.174 599.129,315.158C599.142,315.147 599.157,315.143 599.174,315.143C599.202,315.143 599.232,315.154 599.249,315.175C599.259,315.188 599.264,315.203 599.264,315.218ZM599.061,314.078C599.083,314.047 599.125,314.03 599.165,314.03C599.186,314.03 599.207,314.034 599.224,314.045C599.256,314.066 599.271,314.106 599.271,314.143C599.271,314.165 599.265,314.188 599.254,314.206C599.234,314.238 599.197,314.254 599.161,314.254C599.14,314.254 599.117,314.248 599.098,314.236C599.065,314.214 599.047,314.173 599.047,314.133C599.047,314.115 599.051,314.097 599.061,314.078ZM599.058,314.979C599.058,315.001 599.051,315.024 599.037,315.04C599.021,315.057 598.999,315.064 598.977,315.064C598.956,315.064 598.936,315.057 598.92,315.043C598.901,315.026 598.894,315.002 598.894,314.979C598.894,314.959 598.9,314.941 598.911,314.926C598.927,314.907 598.95,314.901 598.974,314.901C598.995,314.901 599.019,314.908 599.035,314.922C599.051,314.936 599.058,314.957 599.058,314.979ZM599.006,314.548C598.988,314.574 598.958,314.588 598.927,314.588C598.908,314.588 598.89,314.583 598.872,314.573C598.845,314.554 598.83,314.52 598.83,314.487C598.83,314.47 598.833,314.454 598.842,314.438C598.86,314.411 598.897,314.398 598.93,314.397C598.949,314.397 598.965,314.401 598.98,314.41C599.008,314.428 599.02,314.461 599.02,314.493C599.02,314.512 599.015,314.531 599.006,314.548ZM598.808,313.956C598.819,313.911 598.866,313.879 598.911,313.879C598.918,313.879 598.923,313.879 598.929,313.881C598.975,313.891 599,313.94 599,313.984C599,313.989 599,313.994 598.998,314C598.991,314.045 598.946,314.071 598.903,314.071C598.897,314.071 598.891,314.07 598.885,314.069C598.839,314.061 598.808,314.011 598.808,313.966L598.808,313.956ZM598.78,314.68C598.804,314.695 598.814,314.724 598.814,314.751C598.814,314.768 598.811,314.784 598.803,314.797L598.793,314.792L598.802,314.798C598.787,314.821 598.76,314.832 598.734,314.832C598.718,314.832 598.703,314.828 598.688,314.819C598.665,314.803 598.652,314.773 598.652,314.744C598.652,314.731 598.654,314.718 598.661,314.704C598.678,314.681 598.709,314.67 598.738,314.669C598.753,314.669 598.769,314.672 598.78,314.68ZM598.509,314.267C598.523,314.228 598.565,314.207 598.605,314.207C598.618,314.207 598.629,314.209 598.641,314.214C598.658,314.22 598.668,314.235 598.677,314.246C598.68,314.251 598.683,314.255 598.685,314.261C598.692,314.276 598.695,314.292 598.695,314.309C598.695,314.321 598.693,314.332 598.69,314.343C598.676,314.379 598.638,314.399 598.601,314.399C598.588,314.399 598.577,314.397 598.565,314.392C598.528,314.376 598.505,314.334 598.504,314.295C598.504,314.284 598.506,314.275 598.509,314.267ZM598.411,314.561C598.423,314.527 598.46,314.509 598.493,314.509C598.504,314.509 598.514,314.511 598.523,314.515C598.555,314.529 598.57,314.563 598.57,314.596C598.57,314.606 598.568,314.617 598.565,314.625C598.553,314.657 598.521,314.673 598.489,314.673C598.479,314.673 598.469,314.671 598.46,314.668C598.427,314.654 598.408,314.618 598.407,314.584C598.407,314.577 598.409,314.568 598.411,314.561ZM598.198,314.216C598.21,314.172 598.256,314.14 598.301,314.14C598.307,314.14 598.314,314.14 598.319,314.141C598.365,314.152 598.39,314.201 598.39,314.244C598.39,314.25 598.389,314.255 598.388,314.261C598.381,314.306 598.336,314.331 598.293,314.331C598.288,314.331 598.281,314.331 598.275,314.33C598.229,314.321 598.198,314.272 598.198,314.227L598.198,314.216ZM598.127,314.509C598.136,314.47 598.176,314.443 598.214,314.443C598.219,314.443 598.225,314.444 598.23,314.445C598.269,314.454 598.291,314.497 598.291,314.535C598.291,314.538 598.291,314.542 598.29,314.547C598.283,314.585 598.244,314.608 598.209,314.608C598.203,314.608 598.198,314.608 598.193,314.607C598.154,314.599 598.128,314.558 598.127,314.52C598.126,314.516 598.126,314.513 598.127,314.509ZM598.532,314.81C598.755,314.95 598.886,315.192 598.917,315.454C598.582,315.561 598.341,315.69 598.11,315.874C598.03,315.781 597.923,315.713 597.803,315.678C597.851,315.392 597.848,315.122 597.784,314.782C598.029,314.682 598.312,314.671 598.532,314.81ZM598.086,316.605C598.095,316.61 598.099,316.626 598.093,316.636C598.088,316.646 598.072,316.647 598.064,316.641C598.053,316.635 598.051,316.62 598.057,316.612C598.062,316.603 598.076,316.6 598.086,316.605ZM598.044,316.004C598.036,315.994 598.039,315.98 598.047,315.972C598.056,315.966 598.072,315.969 598.079,315.977C598.086,315.987 598.082,316.001 598.073,316.008C598.064,316.016 598.051,316.012 598.044,316.004ZM598.091,316.084C598.086,316.074 598.09,316.059 598.1,316.054C598.11,316.048 598.124,316.055 598.13,316.065C598.136,316.075 598.129,316.088 598.12,316.094C598.109,316.099 598.097,316.093 598.091,316.084ZM598.15,316.186C598.14,316.19 598.127,316.181 598.124,316.17C598.12,316.16 598.127,316.147 598.137,316.144C598.148,316.139 598.162,316.149 598.166,316.16C598.17,316.171 598.161,316.182 598.15,316.186ZM598.185,316.257C598.187,316.269 598.176,316.279 598.165,316.281C598.154,316.282 598.144,316.272 598.142,316.261C598.14,316.25 598.149,316.238 598.16,316.237C598.17,316.235 598.183,316.246 598.185,316.257ZM598.128,316.52C598.138,316.524 598.146,316.541 598.141,316.55C598.136,316.561 598.122,316.565 598.112,316.56C598.102,316.557 598.097,316.542 598.101,316.533C598.104,316.521 598.117,316.517 598.128,316.52ZM598.129,316.445C598.131,316.434 598.144,316.426 598.154,316.428C598.164,316.43 598.174,316.445 598.172,316.456C598.17,316.467 598.156,316.473 598.146,316.471C598.136,316.469 598.127,316.456 598.129,316.445ZM598.163,316.378C598.152,316.377 598.143,316.365 598.143,316.354C598.143,316.343 598.154,316.333 598.164,316.333C598.174,316.333 598.186,316.347 598.186,316.358C598.188,316.369 598.174,316.378 598.163,316.378ZM598.015,315.899C598.023,315.908 598.022,315.922 598.015,315.931C598.008,315.939 597.993,315.939 597.985,315.931C597.976,315.924 597.976,315.909 597.982,315.901C597.989,315.893 598.006,315.893 598.015,315.899ZM597.943,315.867C597.937,315.876 597.922,315.878 597.913,315.873C597.904,315.866 597.9,315.852 597.906,315.842C597.912,315.833 597.928,315.83 597.937,315.836C597.947,315.841 597.948,315.857 597.943,315.867ZM597.862,315.814C597.857,315.825 597.844,315.83 597.835,315.826C597.823,315.821 597.818,315.806 597.821,315.798C597.825,315.786 597.841,315.781 597.851,315.785C597.861,315.789 597.865,315.805 597.862,315.814ZM597.758,315.751C597.769,315.753 597.776,315.768 597.774,315.778C597.773,315.789 597.759,315.796 597.749,315.793C597.738,315.791 597.73,315.778 597.731,315.768C597.733,315.757 597.747,315.748 597.758,315.751ZM597.661,315.732C597.672,315.732 597.681,315.746 597.681,315.756C597.681,315.768 597.669,315.777 597.659,315.777C597.648,315.776 597.638,315.765 597.638,315.755C597.637,315.743 597.65,315.732 597.661,315.732ZM597.086,314.532C597.086,314.567 597.061,314.599 597.029,314.611C597.021,314.614 597.013,314.614 597.007,314.614C596.972,314.614 596.939,314.591 596.926,314.556C596.923,314.549 596.922,314.541 596.922,314.535C596.922,314.499 596.947,314.462 596.979,314.45C596.986,314.448 596.994,314.446 597,314.446C597.037,314.446 597.068,314.476 597.082,314.509C597.085,314.517 597.086,314.524 597.086,314.532ZM596.922,314.186C596.931,314.182 596.939,314.181 596.947,314.181C596.989,314.182 597.026,314.215 597.042,314.253C597.045,314.263 597.047,314.272 597.047,314.28C597.047,314.322 597.017,314.359 596.98,314.374C596.972,314.377 596.963,314.378 596.955,314.378C596.916,314.378 596.876,314.351 596.86,314.311C596.857,314.302 596.856,314.293 596.856,314.286C596.856,314.243 596.886,314.199 596.922,314.186ZM596.759,314.531C596.791,314.532 596.823,314.552 596.84,314.579L596.831,314.585L596.84,314.58C596.845,314.591 596.848,314.601 596.848,314.612C596.847,314.644 596.831,314.675 596.804,314.691C596.794,314.696 596.783,314.699 596.771,314.699C596.742,314.699 596.711,314.683 596.697,314.657C596.69,314.646 596.687,314.633 596.687,314.62C596.687,314.588 596.704,314.556 596.729,314.539C596.738,314.534 596.749,314.531 596.759,314.531ZM596.583,314.282C596.594,314.275 596.605,314.272 596.616,314.272C596.654,314.273 596.693,314.297 596.714,314.33C596.72,314.343 596.722,314.355 596.722,314.368C596.722,314.403 596.702,314.441 596.67,314.459C596.658,314.466 596.646,314.47 596.631,314.47C596.597,314.47 596.562,314.45 596.544,314.419C596.536,314.406 596.533,314.392 596.533,314.377C596.533,314.34 596.553,314.302 596.583,314.282ZM596.467,314.741C596.479,314.732 596.493,314.727 596.508,314.727C596.534,314.727 596.564,314.741 596.582,314.762C596.594,314.775 596.598,314.792 596.598,314.808C596.598,314.835 596.586,314.862 596.566,314.878C596.553,314.889 596.537,314.894 596.521,314.894C596.495,314.894 596.468,314.883 596.452,314.862C596.441,314.848 596.437,314.832 596.437,314.814C596.437,314.787 596.447,314.759 596.467,314.741ZM596.411,315.414C596.448,315.153 596.581,314.904 596.813,314.784C597.045,314.662 597.321,314.671 597.562,314.778C597.488,315.11 597.476,315.378 597.512,315.66C597.381,315.682 597.263,315.744 597.171,315.834C596.956,315.657 596.727,315.527 596.411,315.414ZM597.585,315.75C597.587,315.761 597.577,315.772 597.566,315.773C597.555,315.775 597.544,315.765 597.542,315.754C597.54,315.743 597.551,315.73 597.562,315.729C597.572,315.728 597.583,315.739 597.585,315.75ZM597.493,315.766C597.496,315.777 597.488,315.789 597.478,315.793C597.468,315.796 597.455,315.789 597.451,315.778C597.447,315.767 597.456,315.754 597.465,315.75C597.476,315.746 597.488,315.755 597.493,315.766ZM597.403,315.795C597.409,315.806 597.403,315.818 597.393,315.823C597.384,315.829 597.37,315.824 597.364,315.814C597.359,315.805 597.364,315.789 597.374,315.783C597.384,315.778 597.397,315.785 597.403,315.795ZM597.32,315.84C597.327,315.848 597.324,315.862 597.316,315.87C597.307,315.877 597.294,315.875 597.286,315.866C597.279,315.857 597.281,315.84 597.29,315.834C597.299,315.826 597.313,315.83 597.32,315.84ZM597.248,315.929C597.241,315.938 597.227,315.938 597.218,315.931C597.21,315.923 597.209,315.906 597.216,315.899C597.224,315.889 597.239,315.891 597.247,315.899C597.256,315.905 597.255,315.92 597.248,315.929ZM597.162,316.006C597.152,316 597.148,315.984 597.154,315.975C597.16,315.964 597.175,315.964 597.184,315.97C597.194,315.975 597.197,315.99 597.19,316C597.186,316.009 597.171,316.013 597.162,316.006ZM597.203,316.607C597.21,316.617 597.208,316.631 597.2,316.638C597.192,316.646 597.175,316.642 597.169,316.633C597.161,316.624 597.165,316.61 597.174,316.603C597.182,316.597 597.196,316.6 597.203,316.607ZM597.118,316.166C597.116,316.177 597.104,316.185 597.093,316.183C597.082,316.181 597.073,316.166 597.075,316.155C597.077,316.144 597.092,316.138 597.102,316.14C597.112,316.142 597.12,316.155 597.118,316.166ZM597.107,316.061C597.11,316.05 597.126,316.046 597.135,316.051C597.146,316.055 597.15,316.07 597.147,316.08C597.143,316.089 597.129,316.095 597.119,316.092C597.109,316.087 597.104,316.071 597.107,316.061ZM597.084,316.233C597.095,316.233 597.105,316.246 597.105,316.256C597.105,316.268 597.094,316.277 597.083,316.277C597.073,316.277 597.062,316.263 597.062,316.253C597.06,316.242 597.072,316.233 597.084,316.233ZM597.083,316.33C597.093,316.329 597.104,316.339 597.106,316.35C597.108,316.361 597.098,316.373 597.087,316.374C597.076,316.377 597.064,316.365 597.062,316.353C597.061,316.343 597.072,316.332 597.083,316.33ZM597.097,316.426C597.108,316.422 597.119,316.43 597.123,316.441C597.128,316.452 597.121,316.464 597.111,316.468C597.1,316.473 597.085,316.463 597.082,316.453C597.077,316.442 597.087,316.43 597.097,316.426ZM597.127,316.518C597.137,316.513 597.15,316.518 597.156,316.529C597.162,316.538 597.157,316.552 597.148,316.557C597.138,316.563 597.123,316.557 597.117,316.547C597.111,316.537 597.118,316.523 597.127,316.518ZM596.256,317.579C596.256,317.557 596.263,317.535 596.277,317.519C596.293,317.501 596.315,317.494 596.337,317.494C596.358,317.494 596.379,317.502 596.394,317.515C596.413,317.532 596.42,317.556 596.42,317.579C596.42,317.598 596.414,317.616 596.403,317.631C596.386,317.65 596.364,317.656 596.34,317.656C596.319,317.656 596.295,317.65 596.279,317.636C596.263,317.622 596.256,317.6 596.256,317.579ZM596.308,318.011C596.326,317.984 596.357,317.971 596.387,317.971C596.406,317.971 596.424,317.975 596.442,317.986C596.469,318.004 596.484,318.038 596.484,318.072C596.484,318.088 596.481,318.104 596.472,318.12C596.454,318.147 596.417,318.161 596.384,318.161C596.365,318.161 596.349,318.157 596.334,318.148C596.306,318.13 596.294,318.097 596.294,318.066C596.294,318.046 596.299,318.026 596.308,318.011ZM596.506,318.603C596.495,318.648 596.448,318.679 596.403,318.68C596.397,318.68 596.391,318.679 596.385,318.677C596.339,318.668 596.315,318.619 596.315,318.575C596.315,318.569 596.315,318.564 596.316,318.558C596.323,318.513 596.368,318.488 596.411,318.487C596.417,318.487 596.423,318.488 596.429,318.489C596.475,318.498 596.506,318.547 596.506,318.592L596.506,318.603ZM596.533,317.878C596.509,317.863 596.499,317.834 596.499,317.807C596.499,317.791 596.503,317.775 596.51,317.761L596.521,317.766L596.511,317.761C596.526,317.738 596.553,317.727 596.579,317.727C596.595,317.727 596.61,317.731 596.625,317.739C596.648,317.756 596.661,317.785 596.661,317.814C596.661,317.827 596.659,317.841 596.652,317.854C596.635,317.877 596.604,317.889 596.575,317.889C596.561,317.889 596.546,317.886 596.533,317.878ZM596.805,318.292C596.792,318.33 596.749,318.351 596.709,318.352C596.696,318.352 596.685,318.35 596.673,318.345C596.656,318.338 596.646,318.324 596.636,318.312C596.634,318.307 596.631,318.304 596.629,318.298C596.622,318.282 596.619,318.266 596.619,318.25C596.619,318.238 596.621,318.227 596.625,318.216C596.638,318.179 596.676,318.159 596.713,318.159C596.726,318.159 596.737,318.162 596.749,318.166C596.787,318.182 596.809,318.225 596.81,318.264C596.81,318.272 596.808,318.282 596.805,318.292ZM596.902,317.997C596.89,318.031 596.853,318.048 596.819,318.049C596.809,318.049 596.798,318.047 596.79,318.043C596.758,318.03 596.743,317.995 596.743,317.962C596.743,317.952 596.745,317.942 596.748,317.933C596.76,317.902 596.792,317.885 596.823,317.885C596.834,317.885 596.844,317.887 596.854,317.891C596.887,317.904 596.905,317.941 596.906,317.974C596.906,317.981 596.904,317.989 596.902,317.997ZM597.115,318.342C597.104,318.387 597.057,318.418 597.012,318.419C597.005,318.419 597,318.418 596.994,318.417C596.948,318.407 596.923,318.358 596.923,318.314C596.923,318.308 596.924,318.303 596.925,318.297C596.932,318.252 596.977,318.227 597.02,318.227C597.025,318.227 597.032,318.227 597.038,318.228C597.084,318.237 597.115,318.287 597.115,318.331L597.115,318.342ZM597.187,318.049C597.178,318.087 597.138,318.114 597.1,318.115C597.095,318.115 597.089,318.114 597.085,318.113C597.045,318.105 597.023,318.062 597.023,318.024C597.023,318.02 597.023,318.016 597.024,318.012C597.031,317.973 597.07,317.95 597.106,317.95C597.111,317.95 597.116,317.95 597.121,317.952C597.16,317.959 597.186,318.001 597.187,318.038C597.188,318.042 597.188,318.045 597.187,318.049ZM596.768,317.785C596.545,317.644 596.414,317.403 596.384,317.14C596.703,317.037 596.938,316.915 597.159,316.745C597.248,316.837 597.364,316.902 597.495,316.929C597.448,317.21 597.452,317.478 597.515,317.812C597.271,317.912 596.989,317.923 596.768,317.785ZM597.233,316.711C597.224,316.704 597.225,316.689 597.233,316.68C597.239,316.671 597.254,316.672 597.262,316.68C597.272,316.687 597.272,316.701 597.265,316.71C597.258,316.719 597.241,316.719 597.233,316.711ZM597.304,316.744C597.31,316.735 597.325,316.733 597.334,316.739C597.344,316.744 597.347,316.759 597.342,316.769C597.336,316.778 597.32,316.782 597.31,316.776C597.3,316.77 597.3,316.753 597.304,316.744ZM597.386,316.796C597.389,316.785 597.404,316.782 597.413,316.785C597.424,316.789 597.429,316.804 597.426,316.814C597.422,316.825 597.407,316.83 597.397,316.826C597.387,316.822 597.382,316.807 597.386,316.796ZM597.488,316.86C597.478,316.858 597.471,316.843 597.473,316.833C597.475,316.823 597.488,316.815 597.498,316.817C597.508,316.819 597.518,316.832 597.516,316.842C597.515,316.854 597.5,316.863 597.488,316.86ZM597.586,316.879C597.575,316.878 597.566,316.865 597.566,316.855C597.566,316.843 597.578,316.834 597.588,316.834C597.6,316.834 597.609,316.846 597.609,316.856C597.61,316.867 597.598,316.879 597.586,316.879ZM597.197,316.297C597.197,316.062 597.387,315.871 597.623,315.871C597.857,315.871 598.049,316.061 598.049,316.297C598.049,316.533 597.858,316.723 597.623,316.723C597.388,316.723 597.197,316.532 597.197,316.297ZM598.031,316.714C598.024,316.723 598.009,316.721 598.001,316.713C597.992,316.706 597.993,316.691 597.999,316.683C598.006,316.674 598.021,316.674 598.03,316.681C598.038,316.688 598.038,316.705 598.031,316.714ZM597.961,316.746C597.968,316.754 597.966,316.77 597.957,316.778C597.948,316.785 597.935,316.78 597.927,316.771C597.919,316.762 597.923,316.748 597.931,316.741C597.939,316.734 597.954,316.737 597.961,316.746ZM597.882,316.796C597.888,316.807 597.883,316.822 597.873,316.828C597.864,316.833 597.85,316.826 597.844,316.816C597.839,316.806 597.844,316.793 597.855,316.787C597.863,316.782 597.877,316.787 597.882,316.796ZM597.796,316.833C597.8,316.843 597.792,316.858 597.782,316.861C597.771,316.866 597.759,316.856 597.755,316.845C597.751,316.834 597.759,316.822 597.769,316.818C597.779,316.815 597.792,316.822 597.796,316.833ZM597.685,316.879C597.674,316.881 597.664,316.869 597.662,316.858C597.66,316.847 597.67,316.836 597.681,316.834C597.692,316.833 597.703,316.842 597.705,316.853C597.706,316.864 597.695,316.877 597.685,316.879ZM597.785,316.922C597.907,316.891 598.014,316.825 598.097,316.735C598.323,316.924 598.56,317.061 598.89,317.179C598.852,317.44 598.719,317.689 598.488,317.81C598.255,317.931 597.98,317.922 597.739,317.816C597.813,317.479 597.824,317.209 597.785,316.922ZM598.996,317.937C599.025,317.937 599.056,317.95 599.076,317.973C599.088,317.99 599.093,318.009 599.093,318.03C599.093,318.061 599.081,318.095 599.058,318.115C599.044,318.127 599.028,318.132 599.009,318.132C598.978,318.131 598.945,318.116 598.923,318.091C598.91,318.076 598.905,318.058 598.905,318.039C598.905,318.008 598.919,317.976 598.941,317.956C598.957,317.942 598.977,317.937 598.996,317.937ZM598.95,317.545C598.951,317.524 598.958,317.504 598.97,317.488C598.985,317.469 599.008,317.462 599.03,317.462C599.051,317.462 599.071,317.469 599.087,317.482C599.105,317.499 599.112,317.522 599.112,317.546C599.112,317.567 599.105,317.589 599.092,317.606C599.079,317.622 599.06,317.628 599.04,317.628C599.017,317.628 598.993,317.619 598.977,317.604C598.958,317.589 598.95,317.566 598.95,317.545ZM598.929,318.444C598.962,318.444 598.998,318.464 599.016,318.494C599.024,318.508 599.027,318.522 599.027,318.537C599.026,318.574 599.006,318.612 598.977,318.632C598.967,318.639 598.955,318.642 598.944,318.642L598.943,318.642C598.906,318.641 598.867,318.617 598.846,318.584C598.84,318.571 598.838,318.559 598.838,318.546C598.838,318.51 598.858,318.473 598.89,318.455C598.901,318.448 598.915,318.444 598.929,318.444ZM598.474,317.978C598.468,317.968 598.466,317.957 598.466,317.946C598.467,317.915 598.483,317.883 598.51,317.868C598.521,317.862 598.531,317.859 598.543,317.859C598.572,317.859 598.603,317.875 598.618,317.901C598.624,317.913 598.627,317.925 598.627,317.938C598.627,317.97 598.61,318.003 598.585,318.019C598.575,318.025 598.564,318.027 598.555,318.027C598.522,318.026 598.49,318.005 598.474,317.978L598.484,317.973L598.474,317.978ZM598.644,318.099C598.656,318.092 598.669,318.089 598.683,318.089C598.717,318.089 598.752,318.108 598.77,318.139C598.778,318.152 598.781,318.166 598.781,318.181C598.781,318.218 598.761,318.257 598.731,318.277C598.72,318.283 598.71,318.286 598.698,318.286C598.66,318.286 598.621,318.261 598.6,318.228C598.594,318.216 598.592,318.204 598.592,318.191C598.592,318.153 598.611,318.117 598.644,318.099ZM598.731,317.795C598.719,317.782 598.715,317.766 598.715,317.749C598.715,317.723 598.727,317.696 598.747,317.679C598.76,317.668 598.776,317.664 598.792,317.664C598.818,317.664 598.845,317.675 598.861,317.696C598.872,317.709 598.876,317.726 598.876,317.744C598.876,317.77 598.865,317.799 598.846,317.816C598.834,317.826 598.82,317.83 598.805,317.83C598.779,317.83 598.751,317.816 598.731,317.795ZM598.334,318.184C598.342,318.182 598.351,318.18 598.359,318.18C598.398,318.18 598.438,318.207 598.454,318.248C598.457,318.256 598.458,318.264 598.458,318.272C598.458,318.315 598.428,318.358 598.392,318.373C598.383,318.376 598.375,318.377 598.367,318.377C598.325,318.377 598.288,318.343 598.272,318.305C598.269,318.296 598.267,318.286 598.267,318.278C598.267,318.235 598.297,318.198 598.334,318.184ZM598.231,318.049C598.228,318.041 598.227,318.033 598.227,318.026C598.227,317.991 598.252,317.959 598.284,317.947C598.292,317.945 598.299,317.944 598.306,317.944C598.341,317.944 598.375,317.967 598.387,318.003C598.39,318.01 598.391,318.017 598.391,318.024C598.391,318.06 598.366,318.097 598.334,318.109C598.327,318.112 598.319,318.113 598.313,318.113C598.277,318.11 598.245,318.082 598.231,318.049ZM599.198,324.484C599.252,325.178 599.305,325.873 599.358,326.567C599.278,326.701 599.198,326.834 599.118,326.967C598.71,327.199 598.589,327.087 597.997,326.967C598.03,325.96 598.268,325.214 598.558,324.484L599.198,324.484ZM599.38,316.296C599.374,316.559 599.233,316.796 599.023,316.955C598.758,316.721 598.523,316.579 598.245,316.474C598.261,316.418 598.269,316.359 598.269,316.297C598.269,316.235 598.26,316.176 598.245,316.119C598.523,316.014 598.759,315.873 599.023,315.639C599.232,315.798 599.386,316.035 599.38,316.296ZM599.378,315.573C599.368,315.578 599.357,315.581 599.347,315.581C599.316,315.581 599.284,315.562 599.269,315.535C599.263,315.523 599.261,315.512 599.261,315.499C599.261,315.47 599.275,315.439 599.301,315.425C599.312,315.418 599.323,315.416 599.334,315.416C599.366,315.416 599.399,315.434 599.417,315.462C599.422,315.472 599.425,315.483 599.425,315.494C599.425,315.525 599.404,315.557 599.378,315.573ZM599.515,315.104C599.5,315.116 599.482,315.121 599.463,315.121C599.433,315.121 599.402,315.107 599.383,315.084C599.368,315.067 599.362,315.046 599.362,315.025C599.363,314.996 599.375,314.965 599.396,314.946C599.411,314.933 599.429,314.928 599.448,314.928C599.481,314.928 599.516,314.942 599.537,314.966C599.549,314.981 599.554,314.999 599.554,315.017C599.554,315.05 599.538,315.083 599.515,315.104ZM599.588,314.512C599.567,314.534 599.537,314.545 599.507,314.545C599.479,314.545 599.45,314.536 599.429,314.516C599.405,314.495 599.393,314.461 599.393,314.429C599.393,314.403 599.401,314.376 599.417,314.357C599.438,314.333 599.47,314.323 599.501,314.323C599.531,314.323 599.563,314.333 599.584,314.35L599.578,314.359L599.585,314.35C599.607,314.37 599.616,314.4 599.616,314.429C599.616,314.459 599.606,314.49 599.588,314.512ZM601.423,269.942C601.444,269.664 601.462,269.385 601.522,269.097C601.823,267.63 603.144,266.474 604.308,265.682C603.705,266.369 602.996,267.355 602.042,268.686C601.739,269.107 601.547,269.527 601.423,269.942ZM605.688,267.788C605.041,268.671 604.814,269.433 604.809,270.11C604.41,270.295 603.994,270.467 603.587,270.649C604.252,268.155 607.077,265.894 605.688,267.788ZM627.933,267.664C627.828,266.846 627.669,265.85 627.568,265.326C627.801,265.691 628.416,266.07 628.873,267.716C628.912,267.858 628.956,268.001 629.003,268.148C628.641,267.976 628.284,267.815 627.933,267.664ZM629.359,268.319C629.294,268.095 629.233,267.875 629.18,267.661C629.409,268.072 629.737,268.423 630.15,268.719C629.886,268.581 629.622,268.448 629.359,268.319ZM641.415,289.958C640.091,293.788 638.901,297.351 636.929,300.612C635.968,302.134 635.006,303.656 634.045,305.178C632.523,306.047 631.246,305.432 629.96,304.778C630.093,299.384 630.227,293.99 630.36,288.596C630.36,284.212 629.564,281.721 632.042,279.543C633.529,280.12 640.476,288.323 641.415,289.958ZM632.624,266.816C633.042,266.816 635.073,267.234 635.228,271.308C635.24,271.618 635.27,271.9 635.307,272.172C635.108,271.987 634.893,271.802 634.667,271.617C634.691,271.248 634.709,270.853 634.709,270.409C634.71,267.301 632.204,266.816 632.624,266.816ZM633.093,265.584C634.916,266.13 636.373,268.476 636.741,270.758C636.862,271.522 636.612,272.371 636.228,273.163C636.221,273.154 636.214,273.144 636.207,273.136C636.114,273.018 636.008,272.899 635.9,272.779C636.052,272.23 636.171,271.589 636.216,270.823C636.479,266.342 631.27,265.027 633.093,265.584ZM633.249,266.266C636.085,267.236 636.643,270.322 635.716,272.579C635.678,272.539 635.636,272.499 635.597,272.459C635.409,271.251 635.222,270.004 634.967,269.099C634.289,266.682 630.228,265.235 633.249,266.266ZM632.546,270.098C632.071,269.796 631.579,269.503 631.077,269.221C631.091,269.226 631.1,269.233 631.113,269.238C631.858,269.515 632.28,269.731 632.546,270.098ZM598.555,318.005C598.562,318.005 598.569,318.003 598.574,318C598.592,317.989 598.606,317.962 598.606,317.937C598.606,317.928 598.603,317.918 598.599,317.911C598.589,317.893 598.565,317.88 598.543,317.881C598.534,317.881 598.527,317.883 598.521,317.886C598.502,317.897 598.489,317.922 598.489,317.946C598.489,317.954 598.49,317.961 598.494,317.968C598.505,317.987 598.533,318.005 598.555,318.005ZM599.448,314.951C599.432,314.951 599.42,314.955 599.411,314.963C599.394,314.978 599.384,315.002 599.384,315.026C599.384,315.043 599.39,315.058 599.4,315.07C599.415,315.089 599.44,315.099 599.463,315.099C599.478,315.099 599.49,315.095 599.5,315.088C599.519,315.071 599.532,315.043 599.532,315.018C599.532,315.004 599.528,314.992 599.52,314.981C599.506,314.963 599.475,314.951 599.448,314.951ZM596.234,318.469C596.241,318.455 596.244,318.44 596.244,318.424C596.244,318.391 596.229,318.357 596.204,318.341C596.19,318.333 596.175,318.329 596.159,318.328C596.153,318.387 596.147,318.445 596.141,318.504C596.144,318.505 596.145,318.506 596.148,318.506C596.183,318.506 596.22,318.491 596.234,318.469ZM596.319,316.42C596.381,316.402 596.444,316.377 596.482,316.352C596.53,316.321 596.69,316.306 596.738,316.299C596.716,316.297 596.643,316.296 596.62,316.299C596.549,316.311 596.472,316.328 596.42,316.334C596.397,316.336 596.36,316.338 596.32,316.339C596.32,316.366 596.32,316.394 596.319,316.42ZM598.864,318.573C598.881,318.597 598.915,318.619 598.942,318.619C598.951,318.619 598.959,318.617 598.964,318.614C598.985,318.599 599.003,318.565 599.003,318.537C599.003,318.525 599.001,318.515 598.996,318.506L599.005,318.5L598.995,318.505C598.983,318.483 598.953,318.467 598.928,318.467C598.917,318.467 598.907,318.47 598.9,318.474C598.876,318.488 598.859,318.518 598.859,318.546C598.859,318.556 598.861,318.565 598.864,318.573ZM596.806,316.267C596.661,316.209 596.594,316.139 596.487,316.058C596.444,316.025 596.415,315.94 596.331,315.932C596.329,315.932 596.329,315.934 596.327,315.934C596.327,315.962 596.326,315.991 596.326,316.019C596.346,316.025 596.369,316.035 596.387,316.045C596.425,316.067 596.471,316.105 596.507,316.132C596.683,316.263 596.784,316.276 596.806,316.267ZM596.315,316.69C596.336,316.683 596.356,316.68 596.374,316.661C596.504,316.513 596.652,316.407 596.807,316.366C596.795,316.361 596.565,316.355 596.498,316.435C596.472,316.466 596.443,316.505 596.412,316.535C596.382,316.564 596.347,316.596 596.317,316.589C596.316,316.623 596.316,316.656 596.315,316.69ZM599.334,315.438C599.325,315.438 599.318,315.44 599.312,315.444L599.306,315.434L599.312,315.445C599.295,315.453 599.283,315.477 599.283,315.5C599.283,315.51 599.285,315.519 599.289,315.525C599.3,315.545 599.325,315.56 599.348,315.559C599.356,315.559 599.363,315.558 599.369,315.555C599.388,315.543 599.405,315.516 599.404,315.494C599.404,315.486 599.403,315.479 599.399,315.473C599.386,315.453 599.357,315.438 599.334,315.438ZM596.321,316.313C596.359,316.312 596.399,316.312 596.428,316.309C596.492,316.304 596.544,316.288 596.613,316.279C596.625,316.278 596.638,316.278 596.652,316.279C596.631,316.27 596.596,316.259 596.547,316.245C596.477,316.226 596.392,316.209 596.322,316.198C596.322,316.235 596.321,316.274 596.321,316.313ZM596.317,316.578C596.331,316.565 596.374,316.551 596.397,316.523C596.42,316.495 596.444,316.46 596.469,316.435C596.509,316.399 596.51,316.36 596.794,316.317C596.725,316.305 596.51,316.353 596.487,316.367C596.44,316.396 596.371,316.424 596.319,316.448L596.318,316.448C596.318,316.492 596.318,316.535 596.317,316.578Z" style="fill-rule:nonzero;"/>
    </g>
</svg>
