<?xml version="1.0" encoding="UTF-8" standalone="no"?>
<!DOCTYPE svg PUBLIC "-//W3C//DTD SVG 1.1//EN" "http://www.w3.org/Graphics/SVG/1.1/DTD/svg11.dtd">
<svg width="100%" height="100%" viewBox="0 0 61 209" version="1.1" xmlns="http://www.w3.org/2000/svg" xmlns:xlink="http://www.w3.org/1999/xlink" xml:space="preserve" xmlns:serif="http://www.serif.com/" style="fill-rule:evenodd;clip-rule:evenodd;stroke-linejoin:round;stroke-miterlimit:1.41421;">
    <g transform="matrix(1,0,0,1,-114.456,-185.172)">
        <path d="M141.589,185.172C148.066,185.145 150.837,190.062 152.687,194.73C153.342,196.447 153.997,198.165 154.652,199.881C155.802,201.207 156.953,202.535 158.103,203.862C159.271,205.756 160.439,207.65 161.607,209.544C162.456,210.42 164.028,210.32 164.687,211.563C164.988,211.403 165.289,211.244 165.589,211.084C166.096,211.298 166.609,211.485 167.023,211.774C166.987,211.614 166.952,211.455 166.917,211.295C165.994,211.077 163.209,210.302 162.828,209.596C163.336,208.55 166.697,209.421 167.501,209.702C168.217,209.953 171.395,212.923 171.59,213.578C171.696,215.029 171.802,216.48 171.908,217.932C172.123,219.992 172.824,222.346 173.182,224.411C173.2,225.349 173.218,226.287 173.236,227.225C173.43,230.427 173.625,233.633 173.819,236.835C174.381,240.005 175.428,244.673 174.138,247.721C173.855,248.234 173.571,248.747 173.288,249.261C173.023,250.198 172.757,251.137 172.491,252.075C171.783,253.779 169.219,254.635 167.341,253.667C166.867,253.423 166.2,253.133 165.908,252.712C165.318,251.864 164.73,249.508 164.474,248.411C164.229,247.362 164.505,246.06 164.156,245.278C164.061,248.573 164.286,251.856 163.784,254.995C163.507,256.726 163.467,258.697 163.465,260.729C163.448,261.259 163.43,261.792 163.412,262.322C163.642,264.216 163.872,266.109 164.102,268.003C164.032,269.03 163.961,270.057 163.89,271.083C164.134,272.715 163.86,274.555 164.209,276.394C164.327,277.017 164.448,277.896 164.314,278.676C164.013,280.641 163.712,282.607 163.412,284.571C163.341,285.844 163.27,287.12 163.2,288.393C162.253,293.616 161.235,299.106 159.696,304.164C158.882,306.784 158.068,309.403 157.254,312.022C156.355,314.31 155.285,316.538 154.652,319.084C154.156,322.872 153.66,326.66 153.165,330.447C152.941,331.849 153.239,333.373 153.43,334.536C153.715,336.272 153.558,338.488 153.271,340.111C152.567,344.096 151.518,347.562 150.563,351.315C150.351,352.712 150.138,354.111 149.926,355.509C149.59,357.173 149.254,358.837 148.917,360.5C148.97,361.738 149.023,362.979 149.076,364.217C149.268,366.075 149.073,368.257 149.607,369.952C150.067,371.084 150.528,372.217 150.988,373.35C151.182,374.465 151.378,375.579 151.572,376.695C151.891,377.545 152.209,378.394 152.528,379.244C152.757,380.359 152.988,381.473 153.218,382.589C153.661,384.179 154.641,385.721 155.502,386.943C156.14,387.849 159.065,392.337 157.36,393.155C156.491,393.612 155.104,392.986 154.705,392.89C154.684,393.153 154.698,393.144 154.546,393.261C153.807,393.67 151.331,393.17 150.936,392.623C150.514,393.017 149.901,393.106 149.183,392.941C149.004,392.803 148.957,392.758 148.918,392.464C146.424,392.863 146.208,390.491 146.263,388.002C145.83,388.208 145.42,388.157 145.041,387.95C145.036,388.343 144.943,388.306 144.67,388.534C143.92,388.552 143.78,388.327 143.342,388.109C143.185,388.801 142.397,388.742 141.643,388.692C141.537,388.569 141.431,388.444 141.324,388.321C141.36,388.144 141.395,387.967 141.43,387.791C141.054,387.798 140.865,387.739 140.634,387.631C140.831,388.157 140.628,388.32 140.368,388.641C138.555,388.936 137.509,389.086 137.182,387.26C137.103,386.818 136.892,386.17 137.023,385.561C137.211,384.688 137.724,384.074 138.032,383.332C138.492,381.897 138.953,380.464 139.412,379.03C139.903,376.983 139.436,374.04 139.89,372.075C140.487,369.494 141.967,366.72 141.483,363.208C141.11,360.498 140.156,357.416 139.359,354.817C137.973,350.298 137.037,345.879 136.173,340.959C135.776,338.696 136.12,335.856 136.492,333.791C136.616,332.429 136.74,331.065 136.864,329.703C137.157,327.988 136.766,325.815 136.492,324.34C135.925,321.29 135.934,318.2 135.218,315.366C134.5,312.523 133.909,309.471 132.988,306.924C131.749,304.004 130.509,301.082 129.271,298.162C127.775,294.369 126.926,289.874 126.616,284.941C126.58,284.958 126.546,284.975 126.51,284.994C126.262,285.72 126.014,286.446 125.766,287.171C125.678,288.286 125.589,289.4 125.501,290.516C125.05,292.581 124.175,294.263 123.483,296.092C122.996,297.376 123.043,298.256 122.421,299.383C122.103,299.419 121.784,299.454 121.465,299.489C121.188,299.138 121.09,299.08 120.881,298.587C120.858,299.395 120.673,299.887 120.191,300.233C119.634,300.257 119.403,300.164 119.182,299.862C118.815,300.237 118.664,300.48 117.908,300.499C117.345,300.138 116.933,299.523 116.74,298.8C116.616,298.854 116.492,298.907 116.368,298.959C116.699,300.069 116.219,301.556 115.624,301.986C114.934,301.798 114.895,301.371 114.456,300.977C114.712,300.242 114.448,299.152 114.615,298.216C114.987,296.534 115.358,294.853 115.73,293.171C116.802,290.727 119.198,289.304 120.296,286.746C120.614,285.383 120.933,284.02 121.252,282.657C122.012,280.251 122.773,277.844 123.535,275.435C123.942,273.347 124.349,271.258 124.757,269.17C125.713,265.095 126.685,261.242 127.517,257.01C127.892,255.106 127.412,253.018 127.412,251.064C127.412,248.211 127.946,244.869 127.465,242.143C127.108,240.114 126.599,238.352 126.085,236.569C125.515,234.591 124.791,229.731 125.341,227.063C125.614,225.744 126.195,225.063 126.775,224.143C126.85,224.025 126.922,224.044 126.775,223.984C126.303,223.533 125.422,223.255 124.916,222.869C124.898,222.869 124.88,222.869 124.863,222.869C124.753,223.405 124.238,223.881 123.748,224.038C124,223.512 124.227,223.072 124.438,222.604C124.268,221.575 123.627,220.754 123.429,219.63C122.807,216.089 124.531,214.946 125.341,212.94C125.447,212.444 125.553,211.949 125.66,211.453C125.837,211.276 126.014,211.099 126.191,210.923C126.173,210.126 126.155,209.329 126.138,208.533C126.35,207.453 126.563,206.374 126.775,205.294C127.255,203.606 128.188,202.211 128.687,200.675C128.792,200.002 128.899,199.329 129.005,198.656C129.629,196.332 130.534,193.924 131.448,191.807C132.394,189.613 134.476,187.842 136.545,186.763C137.157,186.443 138.715,185.729 139.306,186.55C139.583,185.593 140.751,185.585 141.589,185.172ZM154.97,201.102C155.802,202.269 156.634,203.438 157.466,204.606C158.654,206.258 159.318,207.943 160.97,209.12C159.365,206.249 157.555,203.008 154.97,201.102ZM156.935,204.712C157.456,205.824 158.119,206.989 159.059,207.686C158.351,206.695 157.643,205.703 156.935,204.712ZM128.527,205.03C128.134,205.99 127.313,206.6 127.04,207.739C127.022,208.322 127.004,208.906 126.987,209.49C127.004,209.49 127.022,209.49 127.04,209.49C127.04,209.456 127.04,209.42 127.04,209.385C127.495,208.943 128.717,205.812 128.527,205.03ZM130.227,213.474C130.227,213.508 130.227,213.544 130.227,213.579C130.227,213.544 130.227,213.508 130.227,213.474ZM130.174,213.633C129.816,214.953 129.27,216.378 129.43,217.987C129.448,217.987 129.466,217.987 129.483,217.987C129.713,216.535 129.943,215.084 130.174,213.633ZM125.289,213.738C124.603,214.842 123.961,215.756 123.696,217.348C123.713,217.348 123.731,217.348 123.749,217.348C123.749,217.313 123.749,217.279 123.749,217.243C124.121,216.676 125.583,214.355 125.289,213.738ZM125.183,215.225C124.229,217.121 122.483,220.445 124.971,222.288C124.618,220.956 124.257,219.486 124.599,217.723C124.736,217.008 125.463,215.992 125.183,215.225ZM130.227,215.384C129.932,217.205 129.75,219.53 131.077,220.483C130.706,219.5 130.481,218.391 130.281,217.191C130.262,216.588 130.244,215.986 130.227,215.384ZM126.351,217.773C126.292,218.689 126.411,219.364 126.616,220.216C126.634,220.216 126.652,220.216 126.67,220.216C126.758,220.145 126.847,220.073 126.935,220.003C126.935,219.985 126.935,219.968 126.935,219.95C126.74,219.225 126.545,218.5 126.351,217.773ZM124.864,218.518C124.788,219.553 124.549,220.683 125.076,221.438C125.335,221.32 125.38,221.346 125.395,220.96C124.869,220.068 125.228,219.444 124.864,218.518ZM125.607,218.518C125.547,219.392 125.386,220.379 125.978,220.854C126.014,220.836 126.049,220.819 126.084,220.801C126.14,220.113 125.993,219.118 125.607,218.518ZM130.067,219.048C130.184,219.954 130.65,220.804 131.024,221.545C131.214,221.506 131.176,221.507 131.289,221.438C130.881,220.642 130.475,219.846 130.067,219.048ZM127.253,221.12C127.356,221.46 127.686,221.679 127.943,221.862C127.766,221.614 127.589,221.366 127.413,221.12C127.359,221.12 127.306,221.12 127.253,221.12ZM126.882,221.385C127.036,221.93 127.671,222.526 128.103,222.818C128.174,222.784 128.245,222.749 128.315,222.713C128.315,222.695 128.315,222.678 128.315,222.66C127.935,222.252 127.481,221.538 126.882,221.385ZM126.669,221.757C126.545,221.862 126.421,221.97 126.297,222.075C126.459,222.607 127.104,223.1 127.518,223.402C127.678,223.296 127.837,223.19 127.997,223.084C127.554,222.641 127.111,222.198 126.669,221.757ZM125.926,222.446C125.855,222.517 125.784,222.589 125.714,222.659C125.749,222.694 125.785,222.729 125.82,222.765C126.047,223.249 126.608,223.543 127.093,223.774C127.193,223.653 127.19,223.7 127.253,223.508C126.811,223.154 126.368,222.801 125.926,222.446ZM163.837,244.906C164.04,242.479 166.424,241.451 167.076,239.278C167.929,236.437 166.3,231.69 165.164,230.199C164.775,229.951 164.386,229.703 163.997,229.455C163.957,230.647 163.142,230.454 162.563,231.049C162.233,231.388 162.134,231.855 161.713,232.111C161.359,232.328 160.938,232.322 160.651,232.589C160.262,233.12 159.872,233.652 159.483,234.183C158.887,234.573 157.965,234.554 157.571,235.138C156.794,236.292 156.643,237.659 155.553,238.484C155.004,238.466 154.455,238.449 153.907,238.43C153.549,237.016 151.812,236.745 150.934,235.828C150.686,235.457 150.438,235.085 150.19,234.713C149.394,234.377 148.597,234.041 147.8,233.704C147.02,233.227 146.533,232.385 145.464,232.164C145.093,232.218 144.721,232.27 144.349,232.324C143.747,232.041 143.145,231.757 142.544,231.474C141.803,231.32 141.247,231.7 140.792,231.792C140.42,231.687 140.048,231.579 139.677,231.474C139.009,231.353 137.134,232.1 136.81,232.377C136.287,232.822 136.074,235.79 136.332,236.89C136.562,237.527 136.792,238.163 137.022,238.801C137.04,240.182 137.058,241.562 137.076,242.942C137.341,243.367 137.606,243.792 137.872,244.217C138.348,245.286 138.435,246.34 139.199,247.084C139.305,246.961 139.411,246.836 139.518,246.713C140.137,246.606 140.757,246.5 141.376,246.394C141.765,246.217 142.155,246.04 142.544,245.864C142.862,245.933 143.181,246.005 143.5,246.076C144.655,246.032 145.879,245.865 146.792,245.491C148.219,244.908 149.969,243.863 150.88,242.731C151.223,242.304 152.382,240.609 152.792,240.447C153.551,240.244 155.649,240.648 156.775,240.66C158.259,242.735 160.193,245.167 163.837,244.906ZM136.333,242.465C136.36,245.909 136.225,249.276 135.749,252.341C135.307,255.19 135.477,258.193 135.112,260.836C135.997,260.649 136.59,259.141 137.024,258.446C138.588,255.945 139.668,253.067 138.882,248.729C138.786,248.198 139.004,247.386 138.829,246.924C138.573,246.251 137.907,245.643 137.607,245.013C137.607,244.783 137.607,244.552 137.607,244.323C137.588,244.273 136.345,242.47 136.333,242.465ZM164.103,244.11C164.103,244.181 164.103,244.252 164.103,244.323C164.121,244.323 164.139,244.323 164.157,244.323C164.138,244.252 164.121,244.182 164.103,244.11ZM131.926,266.837C130.917,269.155 129.908,271.474 128.9,273.792C128.227,275.65 127.554,277.51 126.882,279.367C127.111,279.297 127.341,279.226 127.572,279.155C127.737,279.374 129.298,280.886 129.483,280.96C129.784,281.014 130.085,281.066 130.386,281.12C130.952,281.429 131.293,282.298 131.979,282.5C132.722,282.554 133.466,282.607 134.208,282.659C134.722,283.013 135.235,283.367 135.748,283.722C136.582,284.124 137.952,283.952 138.774,284.305C139.199,284.642 139.624,284.978 140.048,285.315C140.908,285.605 141.569,285.336 142.278,285.74C142.756,286.147 143.234,286.554 143.712,286.962C143.977,287.015 144.243,287.068 144.508,287.12C145.315,287.919 145.654,289.97 145.942,291.209C146.768,290.721 147.158,290.075 147.854,289.51C149.292,289.529 150.36,289.231 151.412,289.032C152.421,289.067 153.43,289.103 154.439,289.138C155.041,288.89 155.642,288.642 156.244,288.394C157.04,288.448 157.837,288.501 158.633,288.553C159.217,288.288 159.801,288.023 160.385,287.757C161.387,287.537 162.315,288.067 162.934,287.386C162.976,286.343 162.873,284.467 163.093,283.297C163.597,280.62 164.262,277.448 163.836,274.111C162.031,274.429 160.225,274.748 158.42,275.066C157.159,275.323 156.086,275.211 154.65,275.437C154.066,275.456 153.482,275.473 152.898,275.491C148.263,274.531 144.417,272.897 140.579,271.243C139.198,270.678 137.818,270.111 136.438,269.544C135.287,268.875 133.858,268.363 132.721,267.579C132.457,267.331 132.191,267.084 131.926,266.837ZM121.519,296.306C121.36,296.377 121.2,296.448 121.041,296.519C121.216,297.152 120.978,297.894 120.935,298.536C121.094,298.431 121.254,298.325 121.413,298.219C121.448,297.58 121.483,296.943 121.519,296.306Z" style="fill:rgb(35,31,32);"/>
    </g>
</svg>
