<?xml version="1.0" encoding="UTF-8" standalone="no"?>
<!DOCTYPE svg PUBLIC "-//W3C//DTD SVG 1.1//EN" "http://www.w3.org/Graphics/SVG/1.1/DTD/svg11.dtd">
<svg width="100%" height="100%" viewBox="0 0 174 691" version="1.1" xmlns="http://www.w3.org/2000/svg" xmlns:xlink="http://www.w3.org/1999/xlink" xml:space="preserve" xmlns:serif="http://www.serif.com/" style="fill-rule:evenodd;clip-rule:evenodd;stroke-linejoin:round;stroke-miterlimit:1.41421;">
    <g transform="matrix(1,0,0,1,-18.479,-19.3475)">
        <path d="M143.168,407.004C143.187,411.574 142.938,416.255 142.932,420.5C142.927,423.453 143.26,427.194 142.695,429.735C141.857,433.508 143.029,438.671 142.222,442.285C142.064,445.521 141.907,448.759 141.749,451.995C140.831,456.104 140.879,460.636 139.854,465.018C139.348,467.188 138.741,473.319 139.381,476.148C139.889,478.394 139.685,480.996 140.328,483.488C140.984,486.032 142.06,488.808 142.695,491.303C143.786,495.588 142.548,500.65 143.642,504.564C146.806,515.877 149.567,527.157 150.033,541.03C150.14,544.212 151.027,549.938 150.27,553.343C150.077,554.215 150.297,555.974 150.033,557.133C148.699,562.99 148.884,569.572 147.429,575.604C145.979,581.614 144.636,587.78 144.588,594.785C145.245,595.249 150.199,600.151 150.506,600.704C150.9,602.284 151.295,603.863 151.69,605.44C153.703,605.938 155.585,607.156 157.371,607.807C160.348,608.895 163.608,608.678 166.13,610.176C173.054,614.288 178.345,620.501 183.884,626.041C185.896,628.055 187.79,630.185 189.801,632.197C190.669,632.986 191.537,633.776 192.405,634.566C192.405,635.432 192.405,636.302 192.405,637.171C191.769,638.028 191.798,639.285 191.222,640.248C189.019,643.93 185.879,647.394 183.41,650.903C182.408,652.33 181.814,654.986 179.622,655.166C178.944,654.752 177.521,655.091 176.782,654.692C176.223,654.392 175.658,653.422 175.125,653.036C173.116,651.577 171.229,650.214 169.207,648.773C168.703,648.413 167.324,646.613 166.84,647.116C165.36,649.415 165.627,656.098 164.946,659.192C164.867,660.375 164.788,661.561 164.709,662.744C164.991,663.432 165.505,663.177 165.656,664.401C164.778,665.844 165.375,668.224 164.946,670.084C164.156,673.163 163.367,676.243 162.578,679.319C161.956,680.719 160.541,682.073 159.737,683.345C158.988,684.533 158.658,685.771 157.843,686.898C156.029,688.632 154.213,690.371 152.399,692.107C148.81,695.728 145.341,699.64 141.036,702.526C139.899,703.289 138.666,703.468 137.485,704.183C134.006,706.294 130.196,709.274 125.412,709.866C125.412,709.789 125.412,709.709 125.412,709.63C125.333,709.63 125.254,709.63 125.176,709.63C125.076,708.089 124.563,707.429 124.466,705.84C124.963,705.469 125.202,705.094 125.413,704.42C121.796,700.448 126.975,693.776 128.964,690.924C131.345,687.506 135.657,683.154 137.012,679.083C138.411,674.884 136.708,666.197 135.829,662.508C135.348,660.487 135.693,658.839 135.119,657.062C132.317,648.396 126.22,643.815 121.389,637.406C118.923,634.135 116.606,630.396 113.34,627.936C110.698,625.945 108.393,623.764 105.765,621.778C105.212,621.147 104.661,620.517 104.108,619.884C102.438,618.623 100.121,617.002 99.374,614.911C101.996,613.172 104.772,608.741 106.713,606.148C107.71,604.817 109.634,603.765 110.027,601.885C110.119,601.813 106.548,596.7 105.529,595.256C100.695,588.399 94.973,582.053 89.432,575.838C85.833,571.803 81.829,568.113 78.542,563.76C77.832,563.13 77.122,562.499 76.412,561.866C69.959,553.286 62.95,545.077 56.764,536.293C54.398,532.934 52.555,529.431 50.136,526.11C48.795,524.847 47.453,523.584 46.112,522.321C44.938,520.715 44.212,518.968 43.035,517.348C41.53,515.277 39.13,513.702 37.59,511.665C34.946,508.167 31.916,504.801 28.831,501.719C27.527,500.417 25.741,499.605 24.333,498.404C23.174,497.417 19.998,491.076 19.362,489.408C17.717,485.088 18.662,479.044 19.836,474.963C21.888,467.828 22.544,460.904 24.334,453.651C25.076,450.64 24.559,447.975 25.281,444.887C27.783,434.189 26.647,420.885 29.305,410.552C29.541,408.817 29.778,407.078 30.015,405.342C30.857,402.376 31.551,398.881 32.382,395.871C32.859,394.143 32.492,392.623 33.092,390.898C33.524,389.657 34.695,388.316 35.223,387.108C36.173,384.929 36.344,382.804 37.117,380.477C37.573,379.106 38.439,377.446 38.774,375.978C39.163,374.276 37.694,372.309 37.354,371.005C37.67,368.637 37.986,366.268 38.301,363.901C38.7,362.436 39.493,360.786 39.959,359.402C40.116,358.612 40.274,357.823 40.432,357.034C41.688,354.851 43.023,357.347 43.036,352.771C43.947,351.242 42.837,348.115 43.272,346.141C44.394,341.062 43.385,335.123 44.456,330.276C44.535,328.776 44.614,327.276 44.693,325.777C45.201,323.977 47.647,319.693 48.717,317.963C48.949,317.587 49.742,316.939 49.901,316.542C50.532,309.124 51.164,301.703 51.795,294.284C52.312,292.215 53.174,289.723 53.689,287.654C53.689,286.47 53.689,285.286 53.689,284.102C54.209,281.722 53.875,278.431 54.399,276.051C54.478,272.894 54.557,269.736 54.635,266.579C55.294,263.548 54.39,259.95 55.109,256.634C55.77,253.588 55.345,249.21 55.345,245.741C55.345,238.717 55.345,231.69 55.345,224.666C55.266,224.666 55.187,224.666 55.109,224.666C52.505,229.149 49.152,233.896 42.326,234.138C42.326,234.059 42.326,233.98 42.326,233.901C42.405,233.901 42.484,233.901 42.563,233.901C45.46,231.236 47.172,232.503 48.244,227.271C48.165,227.271 48.086,227.271 48.007,227.271C48.007,227.35 48.007,227.429 48.007,227.508C46.969,228.499 46.251,229.347 44.929,230.112C44.929,229.876 44.929,229.639 44.929,229.402C45.248,229.004 45.317,228.657 45.403,227.981C45.324,227.981 45.245,227.981 45.167,227.981C44.691,228.727 44.089,229.227 43.272,229.639C43.272,229.481 43.272,229.323 43.272,229.165C43.585,228.842 43.775,228.412 43.982,227.98C43.903,227.98 43.825,227.98 43.746,227.98C42.999,228.796 42.143,229.549 40.905,229.875C40.905,229.796 40.905,229.717 40.905,229.638C41.259,229.307 41.588,228.87 41.852,228.454C41.772,228.454 41.694,228.454 41.615,228.454C40.694,229.873 38.538,231.611 36.407,231.769C36.407,231.69 36.407,231.611 36.407,231.532C36.486,231.532 36.565,231.532 36.644,231.532C37.974,229.637 40.717,228.614 41.852,226.559C42.531,225.329 42.556,223.484 43.035,222.296C42.956,222.296 42.877,222.296 42.798,222.296C42.131,223.332 41.099,224.1 39.958,224.664C39.958,224.506 39.958,224.348 39.958,224.19C42.118,222.658 44.051,219.13 44.692,216.139C44.613,216.139 44.534,216.139 44.455,216.139C42.87,218.637 40.144,221.477 37.117,222.533C36.244,222.837 34.671,223.701 33.566,223.006C36.761,222.595 39.556,220.122 40.905,217.796C40.826,217.796 40.747,217.796 40.668,217.796C40.155,218.294 39.282,218.748 38.538,218.98C38.538,218.901 38.538,218.822 38.538,218.743C38.617,218.743 38.696,218.743 38.774,218.743C40.937,215.452 44.447,213.708 45.639,209.271C45.561,209.271 45.482,209.271 45.403,209.271C45.403,209.429 45.403,209.586 45.403,209.745C44.609,210.361 44.3,211.508 43.509,212.113C39.896,214.874 37.054,217.891 32.383,219.69C32.383,219.533 32.383,219.375 32.383,219.217C37.051,216.896 40.938,212.096 43.509,207.613C43.351,207.613 43.193,207.613 43.035,207.613C41.605,209.788 38.233,212.564 35.459,213.297C35.459,213.218 35.459,213.139 35.459,213.06C35.539,213.06 35.617,213.06 35.696,213.06C36.151,212.877 35.223,212.824 35.223,212.824C34.152,213.803 32.066,214.32 30.724,214.955C30.724,214.718 30.724,214.481 30.724,214.245C31.609,213.671 32.267,212.671 33.092,212.114C33.723,211.877 34.354,211.64 34.986,211.403C36.278,210.597 37.323,209.197 38.537,208.325C40.469,206.938 42.833,205.962 44.218,204.062C44.841,203.208 45.04,202.349 45.638,201.457C46.484,200.197 47.838,199.186 48.479,197.668C49.793,194.556 49.663,190.154 49.663,185.828C49.663,184.328 49.663,182.828 49.663,181.329C50.303,178.428 49.191,174.339 49.899,171.146C51.186,165.349 50.266,158.517 51.556,152.677C51.556,151.414 51.556,150.151 51.556,148.888C53.497,140.386 54.223,131.468 56.764,123.787C58.062,119.864 59.4,115.655 61.025,111.71C61.423,110.743 62.487,109.188 62.682,108.158C62.945,106.772 61.024,102.173 60.552,101.054C59.685,99 58.543,96.845 57.948,94.896C58.027,91.661 58.106,88.424 58.185,85.188C59.515,79.386 59.491,72.491 61.499,67.191C62.124,65.544 63.448,63.684 64.34,62.218C65.668,60.035 66.362,57.749 67.417,55.351C68.467,52.963 70.177,50.434 71.204,48.01C73.098,43.543 73.407,37.833 75.939,34.039C79.031,29.405 86.46,23.114 92.036,21.015C94.883,19.943 97.831,20.063 101.032,19.357C103.083,19.357 105.135,19.357 107.187,19.357C107.659,19.508 108.254,20.249 108.844,20.304C109.527,20.368 110.246,19.725 110.738,19.594C113.045,18.975 120.545,19.638 122.575,20.304C123.84,20.72 124.886,21.767 125.889,22.435C131.737,26.332 135.211,30.548 138.198,37.352C141.052,43.854 144.638,50.58 147.43,57.244C149.323,61.762 149.801,66.469 150.981,71.688C150.981,72.636 150.981,73.583 150.981,74.53C151.372,76.289 151.217,79.012 151.217,81.161C151.217,88.97 149.709,97.316 151.691,103.893C153.439,109.693 156.795,115.31 159.029,120.705C159.897,124.02 160.765,127.336 161.633,130.651C163.099,134.54 164.677,138.653 166.367,142.492C167.128,144.218 168.534,146.16 169.208,147.937C169.682,149.989 170.155,152.042 170.629,154.094C172.462,158.479 175.082,162.507 176.546,167.592C178.157,173.186 177.357,179.609 178.677,185.589C179.575,189.657 178.278,195.142 179.151,199.086C179.151,200.428 179.151,201.77 179.151,203.112C179.475,204.59 179.531,206.843 179.861,208.321C180.323,210.399 179.927,212.644 180.334,214.477C180.492,217.951 180.65,221.424 180.807,224.896C181.878,229.828 181.138,235.641 182.227,240.525C182.227,241.472 182.227,242.419 182.227,243.367C182.867,246.353 183.582,252.745 182.937,255.68C181.878,260.494 183.871,266.71 182.464,271.072C179.812,279.294 174.874,285.321 170.391,291.674C166.863,296.673 163.629,301.719 159.975,306.592C156.853,310.754 152.737,314.22 149.559,318.432C148.648,319.64 147.047,320.424 146.481,321.984C149.085,325.367 148.819,333.651 150.032,338.56C151.042,342.646 151.447,347.459 152.4,351.584C152.479,353.793 152.558,356.004 152.637,358.214C152.882,359.863 153.312,363.076 152.873,365.081C152.066,368.775 152.809,372.971 151.927,376.921C151.136,380.462 151.353,384.4 150.506,388.288C150.369,388.916 149.927,390.648 150.032,391.366C150.699,395.9 151.545,400.19 152.4,404.153C149.731,405.749 147.695,406.953 143.168,407.004ZM96.061,112.426C96.324,119.401 97.271,126.504 97.008,133.501C92.663,136.322 92.442,137.654 91.09,143.446C90.755,144.884 91.342,146.34 91.09,147.235C89.775,151.903 88.235,158.77 85.882,162.627C83.164,167.084 79.897,171.172 77.123,175.414C75.528,177.853 74.533,180.426 72.862,182.755C71.415,184.774 69.216,186.571 67.891,188.675C67.496,189.858 67.102,191.043 66.707,192.227C65.791,194.396 64.197,197.019 63.629,199.331C63.393,200.294 64.062,200.5 64.103,200.989C64.317,203.556 63.879,207.471 63.866,210.46C63.849,214.62 63.52,219.161 62.682,222.773C62.525,224.983 62.367,227.194 62.209,229.404C61.341,233.35 60.473,237.297 59.605,241.244C59.447,243.69 59.289,246.138 59.131,248.585C57.952,253.643 57.468,259.348 56.291,264.45C56.212,266.897 56.133,269.344 56.054,271.791C54.493,278.864 54.424,288.02 54.397,296.418C54.317,296.418 54.239,296.418 54.16,296.418C53.776,296.064 53.681,296.05 52.977,295.945C52.711,296.44 52.638,296.379 52.503,297.129C52.806,297.407 54.049,298.465 54.16,298.787C54.003,299.813 53.845,300.839 53.687,301.866C53.608,305.023 53.528,308.181 53.45,311.338C53.371,311.338 53.292,311.338 53.213,311.338C52.847,310.881 52.632,310.679 52.266,310.864C51.499,311.166 51.642,311.072 51.556,312.048C52.816,312.861 53.136,313.798 53.687,315.363C60.865,315.762 67.158,316.677 73.572,317.494C73.556,320.859 72.721,323.446 71.678,326.019C71.321,326.898 70.435,328.57 70.731,330.043C71.46,333.674 73.666,339.998 72.625,344.725C72.075,347.22 72.258,350.46 71.678,353.013C71.678,354.828 71.678,356.644 71.678,358.459C71.132,360.977 70.94,367.832 71.441,370.063C71.52,372.193 71.599,374.326 71.678,376.457C72.48,379.574 73.627,384.006 75.939,385.692C78.882,387.837 79.865,387.133 84.224,387.822C92.007,389.052 107.1,386.355 114.051,384.034C116.608,383.18 122.492,382.856 122.573,379.771C121.625,378.36 121.69,376.082 121.152,374.325C119.978,370.49 118.99,366.317 118.074,362.248C117.659,362.099 117.845,362.203 117.601,362.012C117.185,362.161 117.371,362.057 117.127,362.248C116.609,362.461 116.786,362.453 116.417,362.722C117.837,368.562 119.258,374.405 120.678,380.245C120.422,380.46 120.658,380.226 120.442,380.481C117.313,380.868 114.235,382.416 111.446,383.323C109.868,383.561 108.29,383.797 106.713,384.034C102.063,385.217 96.407,386.094 90.852,386.165C85.561,386.232 79.756,386.628 76.885,384.27C72.738,380.864 73.085,370.264 73.097,362.484C73.334,357.749 73.571,353.012 73.807,348.276C74.188,346.558 74.935,343.376 74.517,341.409C74.126,339.569 74.324,337.31 73.807,335.252C73.335,333.374 71.847,330.465 72.624,327.675C73.524,324.44 75.198,322.156 75.228,317.729C78.686,318.094 82.05,318.896 85.17,319.625C88.592,320.422 92.565,320.055 96.533,320.098C96.509,322.281 96.411,324.92 96.77,326.729C97.052,326.934 97.036,326.923 97.244,327.202C97.659,327.052 97.473,327.156 97.717,326.965C98.301,326.658 97.878,327.067 98.191,326.492C98.961,325.294 98.46,321.582 98.427,319.861C108.952,319.692 117.499,313.831 126.834,311.573C126.966,311.193 127.024,311.004 127.071,310.389C126.576,310.123 126.637,310.049 125.887,309.915C123.258,311.706 119.234,311.736 116.181,312.993C109.673,315.672 103.887,318.2 94.402,318.202C92.193,318.202 89.983,318.202 87.774,318.202C83.513,317.413 79.252,316.624 74.991,315.834C73.334,315.676 71.677,315.519 70.02,315.361C65.529,314.292 60.428,313.731 55.106,313.703C55.086,308.801 55.551,304.562 55.58,299.969C56.434,299.676 57.919,299.715 59.13,299.732C62.839,300.126 66.548,300.521 70.256,300.916C77.541,302.604 84.547,303.232 92.981,303.995C97.504,304.403 101.778,304.441 105.054,302.811C106.776,301.954 110.055,301.564 110.499,299.496C109.958,299.206 109.966,299.108 109.078,299.022C106.72,301.287 100.035,303.403 95.112,302.337C93.691,302.337 92.271,302.337 90.851,302.337C87.3,301.942 83.749,301.548 80.199,301.153C72.907,299.409 64.536,298.5 56.053,297.838C56.149,289.712 56.14,279.963 57.711,272.975C57.79,270.606 57.869,268.238 57.947,265.871C59.083,260.788 59.343,255.351 60.551,250.479C60.866,247.085 61.182,243.69 61.498,240.296C64.332,228.695 65.455,216.035 65.522,201.225C73.487,201.479 82.462,201.971 89.904,200.515C94.441,189.92 97.747,179.08 102.214,168.547C102.961,166.787 104.053,164.667 104.818,162.864C105.259,161.822 105.212,160.711 105.765,159.785C107.209,157.371 109.226,154.642 110.026,151.733C110.394,150.395 109.821,149.288 110.026,148.182C116.486,144.984 120.784,139.044 124.939,133.5C126.238,131.767 128.679,130.775 129.91,129.237C129.176,128.842 128.374,128.741 127.07,128.764C125.573,127.773 123.838,127.57 122.335,126.633C117.261,123.471 115.902,119.249 115.944,110.768C116.102,109.268 116.259,107.768 116.417,106.269C118.266,105.617 119.575,102.781 120.678,101.295C122.576,98.74 125.676,95.893 126.596,92.534C126.596,91.587 126.596,90.639 126.596,89.692C126.595,84.685 124.576,83.861 122.573,81.168C121.471,79.687 120.822,77.921 119.732,76.431C117.933,73.975 115.707,72.273 114.287,69.327C112.591,69.224 111.387,68.514 109.789,68.143C109.81,70.466 108.884,70.658 106.476,70.51C106.171,70.076 106.01,70.105 105.766,69.563C105.375,69.139 105.353,68.968 105.292,68.143C103.74,68.346 100.543,70.994 100.321,70.747C100.131,70.468 100.138,70.349 100.085,69.8C101.287,68.977 102.247,67.548 103.636,66.959C106.716,65.652 111.002,67.214 113.578,67.906C113.578,67.827 113.578,67.748 113.578,67.669C111.916,65.795 111.843,61.516 108.37,61.512C107.517,62.112 106.338,62.018 105.292,62.46C103.674,63.142 99.861,66.079 97.954,65.301C97.37,64.994 97.793,65.403 97.48,64.828C97.231,64.461 97.237,63.861 97.244,63.17C99.845,61.855 103.179,61.152 106.003,60.092C106.953,59.736 108.518,60.246 109.08,59.382C107.583,58.085 107.211,54.773 106.239,52.988C104.372,49.56 101.807,46.154 99.611,43.043C98.714,41.772 98.228,39.928 96.534,39.49C94.715,38.095 90.377,39.737 88.722,40.201C77.876,43.24 76.312,48.894 75.939,61.986C76.097,61.986 76.255,61.986 76.413,61.986C77.016,61.07 77.668,60.781 79.253,60.803C80.935,62.635 86.147,62.129 87.065,64.592C87.315,64.958 87.309,65.56 87.302,66.249C87.223,66.249 87.144,66.249 87.065,66.249C85.519,64.906 78.101,64.564 75.94,65.065C75.647,65.92 75.687,67.406 75.703,68.617C77.521,71.371 75.042,77.417 75.94,80.93C76.996,85.058 79.148,88.361 80.674,91.823C82.077,95.004 83.154,97.948 84.935,100.821C85.998,102.536 87.63,104.062 88.723,105.794C90.514,108.637 91.549,112.351 96.061,112.426ZM87.065,66.487C87.697,66.487 88.328,66.487 88.959,66.487C89.643,67.488 90.905,68.113 91.327,69.329C92.5,72.714 91.507,81.251 90.38,84.247C89.867,85.61 89.039,85.958 88.96,88.036C90.011,88.481 91.862,89.043 92.274,90.167C92.195,90.167 92.116,90.167 92.037,90.167C91.702,90.394 91.262,90.398 90.617,90.404C89.694,89.582 88.255,89.571 87.776,88.273C87.42,87.684 87.494,86.428 87.776,85.669C87.915,85.295 88.569,84.793 88.723,84.485C89.196,82.354 89.67,80.222 90.143,78.091C90.712,75.639 90.795,70.572 89.669,68.857C89.059,67.925 87.725,67.485 87.065,66.487ZM80.674,66.961C83.945,66.826 90.91,69.023 89.67,71.223C89.591,71.381 89.512,71.539 89.434,71.697C89.018,71.548 89.204,71.652 88.96,71.461C87.942,70.974 87.741,69.982 86.593,69.566C86.325,70.791 85.864,70.978 85.172,71.697C82.822,71.825 81.982,71.514 82.095,69.092C82.174,69.092 82.253,69.092 82.331,69.092C82.331,69.014 82.331,68.935 82.331,68.856C81.937,68.856 81.542,68.856 81.148,68.856C80.251,69.814 79.171,70.708 77.36,70.75C77.119,70.56 77.295,70.666 76.886,70.513C76.807,70.276 76.728,70.04 76.65,69.803C76.828,69.549 76.792,69.579 76.886,69.092C77.92,68.765 79.813,67.681 80.674,66.961ZM111.447,70.039C111.763,70.039 112.079,70.039 112.395,70.039C112.521,70.398 112.555,70.44 112.631,70.986C111.864,71.38 110.964,72.139 110.264,72.406C108.201,73.195 103.75,72.533 103.162,70.986C103.657,70.721 103.596,70.646 104.346,70.512C106.048,71.922 110.233,71.254 111.447,70.039ZM79.253,70.986C81.931,71.345 84.005,72.302 87.302,71.933C87.429,72.292 87.462,72.333 87.539,72.88C87.381,72.96 87.223,73.038 87.065,73.117C85.387,74.563 78.653,73.042 79.253,70.986ZM99.849,84.01C100.243,84.089 100.638,84.169 101.033,84.247C101.575,85.756 102.432,85.901 102.453,88.272C101.629,88.815 101.384,89.278 100.086,89.456C99.903,89.295 99.557,89.145 99.376,88.982C99.455,88.982 99.534,88.982 99.612,88.982C100.239,87.967 100.923,88.254 101.033,86.613C100.332,85.944 99.636,84.903 99.849,84.01ZM95.351,89.693C95.351,89.378 95.351,89.062 95.351,88.746C96.08,88.288 97.691,86.917 98.428,87.325C98.586,87.404 98.744,87.483 98.902,87.562C98.476,88.857 97.042,89.654 95.351,89.693ZM92.747,94.192C93.586,94.304 93.993,94.997 94.641,94.902C94.72,94.745 94.799,94.587 94.877,94.429C95.459,94.171 97.046,93.96 97.955,94.192C99.294,94.534 100.567,95.445 101.743,95.85C102.801,96.213 104.435,95.767 105.294,96.324C102.08,98.493 101.423,102.012 95.825,102.007C94.506,102.006 93.347,102.036 92.511,101.533C91.358,100.84 90.934,99.774 90.144,98.692C89.619,97.972 88.345,97.263 88.25,96.797C89.47,95.591 91.397,95.292 92.747,94.192ZM114.052,107.216C114.855,107.44 114.788,107.307 114.999,108.163C110.547,110.71 104.734,113.118 98.191,113.373C97.956,113.051 97.734,112.944 97.481,112.662C97.639,112.662 97.797,112.662 97.955,112.662C99.019,111.521 101.196,111.999 102.926,111.478C105.817,110.607 112.229,109.108 114.052,107.216ZM111.921,298.549C113.879,298.434 115.393,297.292 116.892,296.654C120.818,294.986 124.739,293.515 128.491,291.918C129.383,291.539 133.891,290.286 134.172,289.788C134.172,288.762 134.172,287.735 134.172,286.709C133.427,285.623 133.626,283.863 133.225,282.447C132.165,278.699 131.115,273.188 132.278,268.712C135.761,255.311 139.224,243.465 144.114,231.535C145.255,228.752 148.602,222.401 148.138,219.458C147.743,219.458 147.348,219.458 146.954,219.458C143.56,228.456 140.167,237.456 136.775,246.453C135.508,249.867 134.68,253.34 133.461,256.635C133.008,257.859 133.02,259.27 132.277,260.186C131.97,260.394 131.694,260.398 131.094,260.423C129.294,259.246 126.387,259.776 123.991,259.239C117.962,257.887 110.717,257.851 103.87,257.819C103.87,257.74 103.87,257.661 103.87,257.582C103.791,257.582 103.712,257.582 103.633,257.582C102.883,246.289 99.848,236.29 99.845,224.193C99.844,220.006 99.449,215.843 100.318,212.116C101.977,204.998 103.322,197.592 106,191.278C106.813,189.36 108.243,187.259 109.077,185.358C110.054,183.135 110.613,180.728 111.918,178.728C112.852,177.297 114.167,176.073 114.996,174.465C115.154,174.544 115.311,174.623 115.469,174.702C119.548,183.307 127.268,188.344 134.644,193.646C137.376,195.609 140.255,198.93 143.64,200.04C143.64,199.961 143.64,199.882 143.64,199.803C141.288,196.352 142.063,188.013 140.563,183.464C139.784,181.102 138.104,178.852 137.959,175.886C138.038,175.886 138.117,175.886 138.196,175.886C138.379,176.048 138.724,176.197 138.906,176.359C140.877,178.516 141.911,181.812 142.693,185.121C142.851,187.094 143.009,189.068 143.167,191.041C145.065,198.031 145.974,205.348 148.139,212.353C150.892,221.263 154.035,229.969 156.897,238.638C157.881,241.617 157.761,244.343 158.554,247.636C159.444,251.327 161.308,257.874 160.212,262.554C158.822,268.487 155.564,272.613 152.637,276.998C151.649,278.479 151.191,279.888 150.27,281.498C149.412,282.998 147.734,284.353 146.719,285.761C143.902,289.668 140.936,293.465 138.197,297.364C135.201,301.627 132.269,306.13 129.438,310.388C128.699,311.499 128.466,312.801 127.544,313.703C127.693,314.118 127.59,313.932 127.781,314.177C128.629,315.427 131.986,318.429 133.462,318.913C135.863,319.701 139.358,319.214 141.274,320.571C142.061,321.446 142.31,323.099 143.405,323.649C146.32,318.922 150.772,315.22 154.057,310.862C157.944,305.707 162.406,301.001 166.13,295.707C167.516,293.736 168.316,291.556 169.681,289.55C173.353,284.149 177.891,278.328 180.333,271.79C181.705,268.117 181.042,262.08 181.043,257.346C181.044,250.313 181.208,243.306 179.86,237.218C179.041,233.523 179.663,229.675 178.913,226.325C177.967,211.804 177.019,197.276 176.073,182.754C175.501,180.171 175.874,177.465 175.363,175.177C175.363,173.914 175.363,172.651 175.363,171.388C174.793,169.016 174.406,166.025 173.469,163.811C172.223,160.869 170.224,157.601 169.207,154.576C165.815,144.48 163.771,138.824 154.294,134.685C150.567,133.057 147.98,131.354 142.221,131.37C141.567,132.196 140.495,132.412 139.617,133.027C138.125,134.073 135.949,135.816 134.883,137.29C132.603,140.44 131.287,143.869 129.201,147.236C126.703,151.268 123.156,154.861 120.679,158.839C119.496,162.391 118.312,165.943 117.128,169.495C116.514,170.414 115.148,170.995 114.524,171.863C114.366,172.337 114.209,172.81 114.05,173.283C113.046,174.808 111.497,176.26 110.5,177.783C109.676,179.039 109.471,180.374 108.842,181.808C106.441,187.287 103.538,192.978 101.504,199.094C100.171,203.104 99.644,207.474 98.664,211.407C98.065,213.805 98.456,216.365 97.954,218.511C98.033,220.563 98.112,222.615 98.191,224.668C98.191,230.727 98.615,235.98 99.848,241.007C100.085,243.454 100.321,245.901 100.558,248.348C102.404,256.152 102.576,263.865 104.582,271.317C104.819,273.606 105.055,275.895 105.292,278.185C106.159,281.411 107.081,284.663 108.37,287.657C109.752,290.867 111.573,294.211 111.921,298.549ZM124.468,145.341C122.389,147.287 117.527,146.934 114.052,146.762C113.787,147.257 113.712,147.196 113.578,147.946C114.598,148.582 115.729,148.695 117.602,148.656C118.61,149.32 125.66,147.032 125.888,145.815C125.606,145.609 125.621,145.62 125.414,145.341C125.099,145.341 124.783,145.341 124.468,145.341ZM122.81,148.893C122.151,149.46 116.833,151.96 115.946,152.208C114.246,152.683 111.905,151.434 111.212,152.918C110.097,154.001 115.202,153.928 116.42,153.865C118.691,152.126 122.12,151.711 124.232,149.84C124.232,149.682 124.232,149.525 124.232,149.367C123.95,149.161 123.966,149.172 123.758,148.893C123.442,148.893 123.126,148.893 122.81,148.893ZM109.791,155.997C109.498,156.831 108.985,156.79 108.608,157.418C108.087,158.283 108.092,159.04 107.661,160.022C106.471,162.731 104.234,165.651 103.873,169.021C104.618,169.51 105.218,170.55 106.003,170.916C108.133,171.31 110.264,171.705 112.395,172.1C112.66,171.605 112.734,171.666 112.868,170.916C110.952,169.934 105.948,170.103 105.766,167.363C106.801,166.243 110.613,158.114 110.737,156.234C110.658,156.234 110.579,156.234 110.501,156.234C110.501,156.155 110.501,156.076 110.501,155.997C110.264,155.997 110.028,155.997 109.791,155.997ZM98.901,172.099C99.138,172.655 97.047,177.557 96.534,178.729C94.783,182.734 92.928,187.282 91.326,191.516C90.455,193.817 90.193,197.054 88.722,198.857C87.456,199.661 85.207,198.976 83.514,199.331C80.146,200.036 67.439,200.473 65.523,199.094C67.529,196.759 67.811,192.635 69.311,189.859C70.728,187.238 73.358,185.195 74.993,182.755C76.05,181.179 76.771,177.827 79.017,177.545C80.35,178.622 82.872,178.074 84.462,177.545C88.898,176.073 95.992,174.968 98.901,172.099ZM85.171,182.755C84.906,183.25 84.832,183.189 84.698,183.939C85.193,184.205 85.132,184.279 85.882,184.413C86.148,183.917 86.221,183.979 86.355,183.229C86.073,183.023 86.089,183.034 85.882,182.755C85.645,182.755 85.408,182.755 85.171,182.755ZM90.617,182.755C90.126,183.317 90.019,183.103 89.906,184.176C90.286,184.308 90.476,184.365 91.09,184.413C91.221,184.033 91.279,183.843 91.327,183.229C91.09,183.071 90.853,182.913 90.617,182.755ZM80.438,183.939C80.172,184.434 80.098,184.373 79.964,185.123C80.459,185.389 80.398,185.463 81.148,185.597C81.414,185.102 81.487,185.163 81.621,184.413C81.339,184.207 81.355,184.218 81.148,183.939C80.911,183.939 80.674,183.939 80.438,183.939ZM75.939,185.36C75.75,186.005 75.81,186.049 75.939,186.78C76.334,186.78 76.728,186.78 77.123,186.78C77.272,186.365 77.168,186.551 77.36,186.307C77.211,185.891 77.315,186.077 77.123,185.833C77.123,185.675 77.123,185.518 77.123,185.359C76.728,185.36 76.334,185.36 75.939,185.36ZM84.935,187.491C84.645,188.031 84.547,188.024 84.461,188.911C84.619,188.911 84.777,188.911 84.935,188.911C85.188,189.089 85.159,189.054 85.645,189.148C85.724,188.911 85.803,188.674 85.882,188.438C85.961,188.438 86.039,188.438 86.119,188.438C86.353,188.198 85.886,188.204 85.882,188.201C85.584,187.583 85.63,187.702 84.935,187.491ZM80.674,187.728C80.4,188.297 80.192,188.139 80.438,188.676C80.784,189.273 80.735,189.109 81.621,189.149C81.754,188.77 81.81,188.58 81.858,187.965C81.779,187.965 81.7,187.965 81.621,187.965C81.621,187.886 81.621,187.807 81.621,187.728C81.306,187.728 80.99,187.728 80.674,187.728ZM70.732,191.517C70.6,191.896 70.542,192.086 70.495,192.701C70.874,192.833 71.064,192.89 71.679,192.938C71.811,192.558 71.868,192.368 71.916,191.753C71.837,191.753 71.758,191.753 71.679,191.753C71.679,191.674 71.679,191.595 71.679,191.516C71.363,191.517 71.047,191.517 70.732,191.517ZM75.466,191.99C75.2,192.486 75.126,192.424 74.992,193.174C75.487,193.44 75.425,193.514 76.176,193.648C76.33,193.35 76.434,193.157 76.65,192.938C76.65,192.78 76.65,192.622 76.65,192.463C76.368,192.258 76.383,192.268 76.176,191.989C75.939,191.99 75.702,191.99 75.466,191.99ZM85.882,192.701C85.608,193.27 85.4,193.112 85.645,193.648C85.952,194.231 85.544,193.81 86.119,194.121C86.651,194.109 86.984,194.171 87.065,192.938C86.987,192.938 86.908,192.938 86.829,192.938C86.829,192.858 86.829,192.78 86.829,192.701C86.513,192.701 86.197,192.701 85.882,192.701ZM120.68,192.701C120.415,193.196 120.341,193.135 120.207,193.885C120.702,194.151 120.641,194.224 121.391,194.358C121.657,193.863 121.731,193.924 121.865,193.174C121.583,192.969 121.598,192.98 121.391,192.701C121.153,192.701 120.917,192.701 120.68,192.701ZM79.727,195.779C79.386,196.266 79.359,196.087 79.254,196.963C79.537,197.169 79.52,197.158 79.727,197.437C80.143,197.288 79.957,197.392 80.201,197.2C80.785,196.893 80.362,197.302 80.674,196.726C80.708,196.459 80.658,196.303 80.438,195.779C80.201,195.779 79.964,195.779 79.727,195.779ZM71.442,196.489C71.174,196.855 71.185,196.689 70.969,197.199C70.979,197.67 70.857,197.958 71.916,198.147C72.157,197.956 71.98,198.063 72.389,197.91C72.389,197.594 72.389,197.278 72.389,196.962C71.971,196.736 71.991,196.665 71.442,196.489ZM84.461,196.489C84.196,196.984 84.122,196.923 83.988,197.673C84.483,197.939 84.422,198.012 85.171,198.147C85.437,197.651 85.511,197.712 85.645,196.962C85.363,196.757 85.379,196.768 85.171,196.489C84.935,196.489 84.698,196.489 84.461,196.489ZM67.654,196.962C67.522,197.342 67.465,197.532 67.417,198.147C67.797,198.279 67.986,198.335 68.601,198.383C68.732,198.004 68.79,197.815 68.838,197.199C68.759,197.199 68.68,197.199 68.601,197.199C68.601,197.12 68.601,197.041 68.601,196.962C68.285,196.962 67.97,196.962 67.654,196.962ZM114.288,196.962C113.932,197.471 113.87,197.42 113.815,198.383C114.231,198.533 114.045,198.429 114.288,198.62C114.704,198.47 114.518,198.575 114.762,198.383C115.359,198.037 115.195,198.086 115.236,197.199C114.92,197.121 114.604,197.042 114.288,196.962ZM126.598,197.2C126.466,197.58 126.409,197.769 126.362,198.384C126.741,198.516 126.93,198.574 127.545,198.621C127.773,198.203 127.843,198.223 128.019,197.674C127.94,197.674 127.861,197.674 127.782,197.674C127.782,197.516 127.782,197.358 127.782,197.2C127.388,197.2 126.993,197.2 126.598,197.2ZM136.777,197.91C136.698,198.305 136.619,198.7 136.54,199.094C137.32,199.41 137.114,199.402 137.96,199.331C138.11,198.915 138.005,199.101 138.197,198.857C138.197,198.699 138.197,198.541 138.197,198.383C137.915,198.177 137.931,198.189 137.724,197.91C137.409,197.91 137.093,197.91 136.777,197.91ZM108.371,200.042C107.925,200.555 107.845,200.326 107.661,201.226C107.851,201.468 107.745,201.291 107.897,201.7C108.213,201.7 108.528,201.7 108.844,201.7C109.072,201.283 109.142,201.302 109.318,200.753C109.238,200.753 109.16,200.753 109.081,200.753C108.819,200.194 108.854,200.33 108.371,200.042ZM130.859,200.278C130.727,200.657 130.669,200.848 130.622,201.462C130.904,201.668 130.889,201.657 131.096,201.936C131.511,201.786 131.325,201.891 131.569,201.699C132.153,201.392 131.73,201.801 132.043,201.225C132.077,200.959 132.027,200.802 131.806,200.278C131.49,200.278 131.175,200.278 130.859,200.278ZM122.574,200.515C122.216,201.024 122.155,200.973 122.1,201.936C122.48,202.068 122.669,202.125 123.284,202.173C123.416,201.793 123.473,201.604 123.521,200.989C123.103,200.76 123.123,200.69 122.574,200.515ZM140.801,202.646C140.801,202.804 140.801,202.961 140.801,203.12C140.634,203.485 140.77,203.152 140.801,203.83C141.18,203.961 141.37,204.019 141.985,204.066C142.117,203.686 142.174,203.497 142.222,202.882C142.143,202.882 142.064,202.882 141.985,202.882C141.985,202.803 141.985,202.724 141.985,202.646C141.59,202.646 141.196,202.646 140.801,202.646ZM135.12,204.777C134.83,205.317 134.732,205.31 134.646,206.198C134.804,206.198 134.961,206.198 135.12,206.198C135.374,206.376 135.344,206.34 135.83,206.435C135.909,206.198 135.987,205.96 136.066,205.724C136.145,205.724 136.224,205.724 136.303,205.724C136.537,205.485 136.07,205.49 136.066,205.487C135.987,205.251 135.909,205.014 135.83,204.777C135.594,204.777 135.356,204.777 135.12,204.777ZM106.477,205.014C106.271,205.262 106.013,205.517 105.767,205.724C105.916,206.14 105.813,205.954 106.004,206.198C106.35,206.795 106.301,206.631 107.188,206.671C107.188,206.513 107.188,206.355 107.188,206.198C107.366,205.944 107.33,205.973 107.424,205.487C107.108,205.33 106.792,205.172 106.477,205.014ZM114.999,205.725C114.725,206.293 114.516,206.136 114.762,206.672C115.069,207.256 114.66,206.833 115.236,207.146C115.768,207.133 116.102,207.195 116.183,205.961C116.104,205.961 116.025,205.961 115.946,205.961C115.946,205.882 115.946,205.803 115.946,205.725C115.63,205.725 115.314,205.725 114.999,205.725ZM122.337,205.961C122.071,206.457 121.998,206.395 121.864,207.146C122.358,207.412 122.297,207.485 123.047,207.619C123.312,207.124 123.386,207.185 123.52,206.436C123.238,206.23 123.254,206.24 123.047,205.961C122.81,205.961 122.574,205.961 122.337,205.961ZM144.116,207.146C143.848,207.512 143.859,207.345 143.642,207.856C143.652,208.328 143.531,208.615 144.589,208.803C144.855,208.308 144.928,208.369 145.063,207.619C144.644,207.391 144.665,207.321 144.116,207.146ZM129.202,207.855C128.845,208.364 128.783,208.313 128.728,209.276C129.107,209.408 129.297,209.465 129.912,209.513C130.044,209.133 130.101,208.944 130.149,208.329C129.833,208.171 129.517,208.014 129.202,207.855ZM68.128,208.33C67.679,208.81 67.448,208.772 67.18,209.514C66.792,210.101 66.914,211.621 66.944,212.592C67.784,213.155 67.792,213.506 69.311,213.539C69.565,213.258 69.786,213.149 70.021,212.829C70.552,212.163 70.526,211.001 70.494,209.75C69.999,209.229 70.088,208.877 69.31,208.565C69.004,208.358 68.728,208.354 68.128,208.33ZM139.144,209.987C138.879,210.482 138.804,210.421 138.671,211.171C139.166,211.437 139.105,211.51 139.854,211.645C140.12,211.149 140.194,211.211 140.328,210.46C140.046,210.255 140.061,210.266 139.854,209.987C139.618,209.987 139.381,209.987 139.144,209.987ZM109.554,211.171C109.281,211.739 109.072,211.582 109.318,212.118C109.624,212.702 109.216,212.279 109.791,212.591C110.324,212.579 110.657,212.641 110.738,211.407C110.659,211.407 110.58,211.407 110.502,211.407C110.502,211.329 110.502,211.25 110.502,211.171C110.186,211.171 109.87,211.171 109.554,211.171ZM117.84,211.881C117.349,212.443 117.242,212.23 117.129,213.302C117.509,213.433 117.698,213.491 118.313,213.538C118.541,213.12 118.611,213.14 118.787,212.591C118.708,212.591 118.629,212.591 118.551,212.591C118.289,212.033 118.323,212.17 117.84,211.881ZM133.463,213.065C133.257,213.314 133.001,213.568 132.753,213.775C132.902,214.191 132.798,214.005 132.99,214.249C133.385,214.707 133.331,214.644 134.173,214.722C134.305,214.342 134.362,214.153 134.41,213.538C134.095,213.381 133.779,213.223 133.463,213.065ZM142.695,214.723C142.43,215.218 142.356,215.157 142.222,215.907C142.718,216.173 142.656,216.247 143.406,216.381C143.634,215.963 143.703,215.983 143.879,215.434C143.8,215.434 143.722,215.434 143.643,215.434C143.345,214.815 143.391,214.933 142.695,214.723ZM126.362,215.907C126.22,216.316 126.151,216.654 126.125,217.328C126.54,217.477 126.355,217.373 126.598,217.565C127.014,217.416 126.828,217.519 127.072,217.328C127.53,216.933 127.467,216.987 127.545,216.144C127.466,216.144 127.388,216.144 127.308,216.144C127.308,216.065 127.308,215.986 127.308,215.907C126.993,215.907 126.677,215.907 126.362,215.907ZM103.399,216.38C103.133,216.875 103.059,216.814 102.925,217.564C103.42,217.83 103.36,217.903 104.109,218.038C104.374,217.543 104.449,217.604 104.583,216.854C104.301,216.648 104.316,216.659 104.109,216.38C103.873,216.38 103.636,216.38 103.399,216.38ZM112.631,217.091C112.499,217.47 112.442,217.66 112.395,218.275C112.677,218.481 112.661,218.469 112.868,218.748C113.284,218.599 113.098,218.703 113.341,218.512C113.938,218.166 113.774,218.214 113.815,217.328C113.736,217.328 113.657,217.328 113.578,217.328C113.578,217.249 113.578,217.17 113.578,217.091C113.263,217.091 112.947,217.091 112.631,217.091ZM120.917,218.038C120.56,218.547 120.499,218.496 120.444,219.459C120.86,219.608 120.674,219.504 120.917,219.695C121.333,219.546 121.147,219.649 121.391,219.459C121.988,219.112 121.824,219.162 121.865,218.275C121.548,218.196 121.232,218.117 120.917,218.038ZM137.25,218.275C136.985,218.77 136.91,218.709 136.777,219.459C137.272,219.724 137.211,219.798 137.96,219.932C138.226,219.437 138.3,219.498 138.434,218.748C138.152,218.543 138.167,218.554 137.96,218.275C137.725,218.275 137.487,218.275 137.25,218.275ZM130.622,220.879C130.357,221.374 130.282,221.313 130.149,222.063C130.644,222.328 130.583,222.403 131.332,222.537C131.598,222.041 131.672,222.103 131.806,221.353C131.524,221.147 131.54,221.158 131.332,220.879C131.096,220.879 130.859,220.879 130.622,220.879ZM107.897,221.827C107.54,222.336 107.478,222.285 107.423,223.248C107.838,223.397 107.653,223.293 107.897,223.485C108.312,223.336 108.127,223.439 108.371,223.248C108.968,222.901 108.804,222.951 108.844,222.064C108.528,221.984 108.213,221.905 107.897,221.827ZM140.091,222.063C139.826,222.558 139.751,222.497 139.618,223.247C140.113,223.512 140.051,223.587 140.801,223.721C141.066,223.226 141.141,223.287 141.275,222.537C140.993,222.331 141.008,222.342 140.801,222.063C140.565,222.063 140.328,222.063 140.091,222.063ZM114.999,223.248C114.725,223.816 114.516,223.659 114.762,224.195C115.109,224.792 115.059,224.628 115.946,224.669C116.078,224.289 116.135,224.1 116.183,223.485C116.104,223.485 116.025,223.485 115.946,223.485C115.946,223.406 115.946,223.327 115.946,223.248C115.63,223.248 115.314,223.248 114.999,223.248ZM124.231,223.484C124.155,224.157 123.981,223.974 124.231,224.431C124.577,225.028 124.528,224.864 125.415,224.904C125.547,224.524 125.604,224.335 125.651,223.72C125.573,223.72 125.493,223.72 125.415,223.72C125.415,223.641 125.415,223.562 125.415,223.483C125.02,223.484 124.625,223.484 124.231,223.484ZM101.979,225.378C101.688,225.919 101.591,225.911 101.505,226.799C101.663,226.799 101.821,226.799 101.979,226.799C102.232,226.976 102.203,226.941 102.689,227.035C102.768,226.799 102.847,226.562 102.925,226.325C103.004,226.325 103.083,226.325 103.162,226.325C103.396,226.087 102.929,226.091 102.925,226.088C102.628,225.471 102.674,225.589 101.979,225.378ZM134.884,225.378C134.678,225.627 134.421,225.881 134.173,226.088C134.322,226.504 134.219,226.318 134.41,226.562C134.781,226.994 134.618,226.892 135.356,227.035C135.598,226.845 135.421,226.951 135.83,226.799C135.83,226.483 135.83,226.167 135.83,225.852C135.412,225.625 135.433,225.555 134.884,225.378ZM111.211,225.853C110.945,226.348 110.871,226.286 110.737,227.037C111.232,227.302 111.171,227.377 111.921,227.511C112,227.274 112.079,227.037 112.158,226.801C112.237,226.801 112.316,226.801 112.395,226.801C112.629,226.562 112.162,226.567 112.158,226.564C112.079,226.327 112,226.09 111.921,225.854C111.685,225.853 111.447,225.853 111.211,225.853ZM150.744,225.853C150.514,230.605 149.06,237.524 147.903,241.955C147.508,244.796 147.114,247.638 146.719,250.48C144.865,257.664 143.922,264.364 142.221,271.555C142.142,274.475 142.063,277.396 141.984,280.317C141.109,284.191 139.955,287.891 142.221,290.735C142.221,290.657 142.221,290.578 142.221,290.499C142.3,290.499 142.378,290.499 142.457,290.499C143.844,287.47 145.953,284.719 147.665,281.974C149.969,278.28 151.735,274.536 154.056,270.845C155.075,269.224 156.881,267.421 157.608,265.635C158.748,262.826 158.863,258.143 158.081,254.743C157.633,252.794 158.08,251.274 157.608,249.533C156.118,244.042 154.918,238.76 153.109,233.904C152.233,231.547 152.233,227.74 150.744,225.853ZM66.708,226.089C66.38,226.351 66.028,226.443 65.524,226.563C65.303,227.32 65.113,227.39 65.051,228.457C65.618,229.424 65.162,230.611 65.997,231.298C67.04,232.202 68.239,231.491 68.601,230.351C69.064,229.703 68.778,228.053 68.364,227.509C68.046,226.553 67.586,226.454 66.708,226.089ZM128.255,228.457C128.179,229.13 128.005,228.947 128.255,229.404C128.601,230.001 128.552,229.837 129.438,229.878C129.57,229.498 129.627,229.309 129.675,228.694C129.596,228.694 129.516,228.694 129.438,228.694C129.438,228.615 129.438,228.536 129.438,228.457C129.044,228.457 128.649,228.457 128.255,228.457ZM138.197,229.878C138.055,230.286 137.987,230.624 137.96,231.298C138.376,231.448 138.19,231.344 138.434,231.535C138.849,231.386 138.664,231.489 138.907,231.298C139.504,230.952 139.34,231.001 139.38,230.114C139.223,230.114 139.065,230.114 138.907,230.114C138.654,229.937 138.684,229.972 138.197,229.878ZM105.53,231.063C105.262,231.429 105.273,231.262 105.056,231.773C105.067,232.244 104.945,232.531 106.003,232.72C106.244,232.53 106.067,232.635 106.477,232.483C106.477,232.088 106.477,231.694 106.477,231.299C106.161,231.22 105.845,231.141 105.53,231.063ZM123.521,231.536C123.38,231.944 123.311,232.283 123.284,232.957C123.699,233.106 123.514,233.003 123.758,233.193C124.173,233.044 123.988,233.147 124.232,232.957C124.829,232.61 124.665,232.659 124.705,231.773C124.626,231.773 124.548,231.773 124.469,231.773C124.469,231.694 124.469,231.615 124.469,231.536C124.152,231.536 123.836,231.536 123.521,231.536ZM114.999,231.772C114.733,232.267 114.659,232.206 114.525,232.956C114.807,233.161 114.791,233.15 114.999,233.429C115.414,233.28 115.228,233.384 115.472,233.192C115.991,232.98 115.814,232.988 116.183,232.719C116.183,232.561 116.183,232.403 116.183,232.245C115.901,232.04 115.916,232.051 115.709,231.772C115.472,231.772 115.236,231.772 114.999,231.772ZM132.99,232.957C132.848,233.365 132.779,233.703 132.753,234.377C133.168,234.527 132.983,234.423 133.226,234.614C133.642,234.465 133.456,234.569 133.7,234.377C134.158,233.982 134.095,234.036 134.173,233.193C134.095,233.193 134.016,233.193 133.937,233.193C133.937,233.114 133.937,233.036 133.937,232.957C133.621,232.957 133.305,232.957 132.99,232.957ZM127.782,236.271C127.516,236.766 127.442,236.705 127.308,237.455C127.803,237.72 127.742,237.795 128.492,237.929C128.757,237.433 128.832,237.495 128.966,236.745C128.684,236.539 128.7,236.55 128.492,236.271C128.255,236.271 128.019,236.271 127.782,236.271ZM109.791,236.745C109.525,237.24 109.452,237.179 109.318,237.929C109.813,238.194 109.751,238.268 110.502,238.402C110.655,238.105 110.759,237.912 110.975,237.692C110.975,237.534 110.975,237.377 110.975,237.218C110.693,237.013 110.709,237.024 110.502,236.745C110.264,236.745 110.028,236.745 109.791,236.745ZM135.594,237.456C135.515,237.851 135.436,238.246 135.357,238.64C136.136,238.955 135.931,238.947 136.778,238.877C136.927,238.461 136.823,238.647 137.014,238.403C137.014,238.246 137.014,238.088 137.014,237.93C136.732,237.724 136.748,237.735 136.54,237.456C136.225,237.456 135.91,237.456 135.594,237.456ZM122.337,239.113C122.195,239.522 122.127,239.86 122.1,240.534C122.516,240.683 122.33,240.58 122.574,240.771C122.989,240.622 122.804,240.726 123.047,240.534C123.643,240.188 123.48,240.237 123.52,239.35C123.363,239.35 123.205,239.35 123.047,239.35C122.793,239.172 122.823,239.208 122.337,239.113ZM130.859,240.771C130.727,241.15 130.669,241.34 130.622,241.955C131.001,242.087 131.191,242.145 131.806,242.192C131.885,241.955 131.964,241.718 132.043,241.482C132.121,241.482 132.2,241.482 132.279,241.482C132.513,241.243 132.046,241.248 132.043,241.246C131.964,241.088 131.885,240.93 131.806,240.772C131.49,240.771 131.175,240.771 130.859,240.771ZM114.525,242.428C114.167,242.937 114.106,242.886 114.051,243.849C114.43,243.981 114.62,244.038 115.235,244.085C115.367,243.706 115.424,243.517 115.471,242.901C115.054,242.674 115.075,242.604 114.525,242.428ZM104.82,242.902C104.555,243.397 104.48,243.336 104.346,244.086C104.841,244.352 104.78,244.426 105.53,244.56C105.796,244.065 105.869,244.126 106.004,243.376C105.722,243.17 105.737,243.181 105.53,242.902C105.293,242.902 105.056,242.902 104.82,242.902ZM126.125,243.376C125.983,243.784 125.915,244.122 125.889,244.796C126.304,244.946 126.118,244.841 126.363,245.033C126.778,244.884 126.592,244.987 126.836,244.796C127.434,244.45 127.269,244.499 127.31,243.612C127.231,243.612 127.152,243.612 127.074,243.612C127.074,243.533 127.074,243.454 127.074,243.376C126.756,243.376 126.44,243.376 126.125,243.376ZM63.63,245.033C63.302,245.295 62.95,245.387 62.447,245.506C62.092,246.756 61.717,249.278 62.92,250.242C63.317,250.56 63.664,250.629 64.34,250.715C65.286,249.851 66.586,248.147 65.287,246.453C64.969,245.497 64.509,245.397 63.63,245.033ZM133.937,245.033C133.672,245.528 133.597,245.467 133.463,246.217C133.761,246.371 133.953,246.475 134.173,246.69C134.589,246.541 134.403,246.645 134.647,246.454C135.08,246.082 134.978,246.245 135.121,245.506C134.839,245.301 134.855,245.312 134.647,245.033C134.41,245.033 134.173,245.033 133.937,245.033ZM120.917,247.401C120.427,247.963 120.32,247.749 120.207,248.821C120.586,248.953 120.776,249.011 121.391,249.058C121.533,248.649 121.602,248.311 121.628,247.637C121.39,247.559 121.153,247.48 120.917,247.401ZM129.202,248.348C129.07,248.728 129.013,248.917 128.965,249.532C129.373,249.674 129.712,249.742 130.385,249.769C130.534,249.354 130.431,249.539 130.621,249.295C130.621,249.138 130.621,248.98 130.621,248.821C130.339,248.616 130.355,248.627 130.148,248.348C129.833,248.348 129.517,248.348 129.202,248.348ZM109.081,248.585C108.893,249.23 108.952,249.274 109.081,250.005C109.476,250.005 109.87,250.005 110.265,250.005C110.414,249.589 110.31,249.775 110.502,249.532C110.352,249.116 110.456,249.302 110.265,249.058C110.265,248.9 110.265,248.742 110.265,248.585C109.87,248.585 109.475,248.585 109.081,248.585ZM124.704,250.953C124.628,251.626 124.454,251.443 124.704,251.9C125.051,252.497 125.001,252.333 125.888,252.374C126.037,251.958 125.933,252.144 126.124,251.9C125.975,251.485 126.079,251.67 125.888,251.427C125.888,251.269 125.888,251.111 125.888,250.953C125.494,250.953 125.099,250.953 124.704,250.953ZM132.279,252.374C132.013,252.868 131.94,252.808 131.806,253.558C132.301,253.823 132.24,253.897 132.99,254.031C133.255,253.535 133.329,253.597 133.463,252.847C133.181,252.642 133.197,252.653 132.99,252.374C132.753,252.374 132.516,252.374 132.279,252.374ZM104.583,253.558C104.507,254.23 104.333,254.048 104.583,254.505C104.929,255.102 104.88,254.938 105.767,254.979C105.893,254.62 105.927,254.578 106.004,254.032C105.814,253.79 105.92,253.967 105.767,253.559C105.372,253.558 104.977,253.558 104.583,253.558ZM114.052,253.794C113.787,254.29 113.712,254.228 113.578,254.979C114.073,255.244 114.012,255.319 114.762,255.453C115.028,254.958 115.102,255.019 115.236,254.269C114.954,254.064 114.969,254.074 114.762,253.795C114.525,253.794 114.288,253.794 114.052,253.794ZM120.917,254.505C120.652,255 120.578,254.939 120.444,255.689C120.68,255.768 120.917,255.847 121.154,255.925C121.625,255.914 121.912,256.037 122.101,254.978C121.819,254.772 121.835,254.783 121.628,254.504C121.39,254.505 121.153,254.505 120.917,254.505ZM128.729,255.215C128.54,255.859 128.6,255.904 128.729,256.636C129.124,256.636 129.518,256.636 129.913,256.636C130.062,256.22 129.958,256.406 130.15,256.162C130.001,255.747 130.104,255.932 129.913,255.688C129.913,255.53 129.913,255.373 129.913,255.214C129.518,255.215 129.123,255.215 128.729,255.215ZM60.789,263.74C59.623,264.945 58.132,268.506 60.789,269.423C61.096,269.631 61.373,269.635 61.973,269.66C62.752,268.874 63.478,268.781 63.63,267.291C64.114,266.499 63.398,265.344 63.156,264.45C62.81,264.248 62.478,264.022 62.209,263.74C61.736,263.74 61.263,263.74 60.789,263.74ZM58.896,283.395C58.642,283.573 58.672,283.537 58.186,283.631C57.68,284.435 57.463,284.741 57.476,286.236C57.06,286.842 57.325,287.702 57.476,288.367C58.363,288.962 58.438,289.308 60.08,289.314C60.322,289.124 60.145,289.231 60.554,289.077C61,288.071 61.237,286.758 61.264,285.289C60.416,284.38 60.397,283.747 58.896,283.395ZM57.712,304.707C57.148,305.547 56.798,305.556 56.765,307.075C56.372,307.655 56.619,308.318 56.765,308.969C57.684,309.565 57.933,309.913 59.606,309.917C59.861,309.5 60.201,309.06 60.553,308.732C60.578,307.258 60.331,306.456 60.079,305.417C59.72,305.175 59.614,305.062 59.369,304.707C58.816,304.707 58.264,304.707 57.712,304.707ZM126.125,316.31C125.949,316.857 125.326,317.3 125.651,317.494C126.357,318.114 127.417,318.16 128.255,318.677C129.929,319.713 132.076,321.624 132.989,323.414C133.068,323.414 133.146,323.414 133.225,323.414C133.225,323.256 133.225,323.098 133.225,322.939C131.196,320.264 130.289,316.832 126.125,316.31ZM123.521,319.625C122.665,320.954 121.063,322.781 119.734,323.65C119.734,323.729 119.734,323.808 119.734,323.887C121.418,324.454 122.576,326.082 123.994,326.965C125.382,327.829 126.948,328.153 128.256,329.096C130.174,330.481 133.963,335.603 134.647,338.095C134.904,337.88 134.668,338.114 134.884,337.858C135.309,337.427 135.628,336.85 135.831,336.201C136.476,335.045 135.084,331.625 134.647,330.517C132.983,326.302 129.154,319.743 123.521,319.625ZM133.7,320.572C134.548,322.409 135.866,323.775 136.777,325.545C136.934,325.545 137.092,325.545 137.25,325.545C138.014,324.395 138.882,323.747 139.144,321.993C138.888,321.778 139.124,322.012 138.908,321.757C137.007,321.654 135.422,320.971 133.7,320.572ZM58.422,324.597C58.161,324.962 57.815,325.266 57.475,325.544C57.321,328.089 57.03,330.579 59.842,330.753C60.56,330.024 60.958,330.117 61.026,328.622C61.725,327.586 60.81,326.027 60.553,325.07C60.316,324.991 60.079,324.912 59.842,324.833C59.507,324.606 59.067,324.603 58.422,324.597ZM40.905,326.019C41.456,326.064 41.574,326.064 41.852,326.255C41.301,326.208 41.182,326.209 40.905,326.019ZM115.236,326.492C112.528,328.506 106.181,327.01 102.452,327.913C100.458,328.395 97.76,328.675 95.824,329.57C93.784,330.514 92.025,332.437 90.143,333.596C88.662,334.508 86.893,334.756 85.408,335.727C83.954,336.678 82.851,338.31 81.62,339.516C80.155,340.952 77.287,341.833 77.122,344.488C76.932,344.768 76.939,344.887 76.885,345.436C84.311,349.824 88.711,339.952 96.06,339.752C96.35,340.293 96.447,340.285 96.533,341.173C97.463,342.687 97.096,346.126 97.953,347.803C100.441,352.672 109.263,359.823 115.944,360.353C117.248,358.411 119.773,357.044 121.625,355.618C123.823,353.925 124.72,351.04 126.36,348.75C127.361,347.351 129.507,346.39 129.91,344.488C128.795,343.712 128.338,342.517 127.543,341.41C124.17,336.714 120.472,329.103 115.236,326.492ZM120.917,326.729C122.554,330.334 125.273,334.386 127.545,337.621C128.721,339.295 130.339,340.703 131.332,342.594C131.49,342.594 131.648,342.594 131.806,342.594C132.279,341.884 132.753,341.174 133.226,340.463C131.348,339.453 131.741,337.414 130.386,335.964C129.273,334.774 127.368,334.453 126.362,333.123C124.748,330.989 123.023,328.349 120.917,326.729ZM58.659,342.594C58.326,342.881 57.999,342.954 57.713,343.304C56.641,344.634 57.54,346.921 57.949,348.514C59.906,349.055 61.151,348.995 61.027,346.145C61.511,345.353 60.795,344.198 60.554,343.303C60.136,343.075 60.156,343.006 59.607,342.83C59.327,342.641 59.208,342.647 58.659,342.594ZM62.683,392.321C57.476,392.242 52.267,392.163 47.06,392.084C43.853,391.396 38.921,391.236 36.171,391.848C33.001,400.39 32.505,410.096 30.253,419.79C30.017,423.815 29.779,427.841 29.543,431.866C27.825,439.504 28.071,448.365 26.229,455.547C25.913,457.677 25.598,459.81 25.283,461.94C23.847,467.475 23.1,472.801 21.732,478.516C21.126,481.048 20.288,484.69 21.258,487.278C21.538,488.022 22.368,488.912 22.679,489.647C23.073,491.144 23.468,492.647 23.863,494.144C25.328,496.665 28.043,497.626 29.544,499.592C35.289,507.11 43.051,513.027 48.718,520.666C57.949,533.113 66.878,545.965 76.178,558.318C78.922,561.962 82.902,564.872 85.647,568.5C93.978,579.509 104.65,588.582 111.923,600.703C112.002,600.703 112.081,600.703 112.16,600.703C112.16,600.624 112.16,600.547 112.16,600.467C114.477,598.912 117.305,595.166 119.025,592.891C121.025,590.242 124.167,588.235 126.126,585.549C127.276,583.972 128.051,582.135 129.44,580.813C129.006,578.933 127.792,577.233 127.073,575.604C125.254,571.475 123.362,567.443 121.628,563.528C119.688,559.147 117.59,555.012 115.71,550.74C114.355,547.661 113.516,544.433 111.686,541.741C110.487,539.98 108.228,538.72 106.951,537.006C103.669,532.605 100.73,528.176 97.482,523.744C95.022,520.39 91.962,517.383 89.434,514.038C87.059,510.892 82.995,508.106 80.675,505.039C78.988,502.809 76.238,499.593 74.047,497.934C70.268,495.074 65.757,491.42 64.815,485.859C64.442,483.654 66.172,476.155 66.709,474.02C68.191,468.114 68.145,462.406 70.26,457.443C71.196,455.245 72.703,452.934 73.81,450.812C76.185,446.265 78.058,441.839 80.675,437.552C81.955,435.454 84.478,432.095 85.173,429.737C85.615,428.238 84.335,425.669 83.99,424.527C83.595,421.291 83.201,418.054 82.806,414.82C80.078,414.898 71.76,415.18 70.733,413.398C69.704,411.673 70.712,408.919 70.023,406.768C69.359,404.699 68.507,402.388 67.656,400.137C63.533,389.242 59.014,377.928 58.897,362.96C58.402,362.695 58.463,362.621 57.714,362.487C57.216,363.422 57.211,364.938 57.24,366.512C57.61,367.136 57.269,368.197 57.477,369.117C58.164,372.158 57.812,375.774 58.661,379.062C59.769,383.36 61.997,387.741 62.683,392.321ZM140.801,407.238C138.594,407.455 133.379,408.498 130.859,407.714C129.409,407.263 128.179,405.048 125.651,405.819C124.318,406.225 122.729,407.269 121.39,407.714C114.561,409.979 107.333,410.62 100.085,412.449C96.377,412.924 92.667,413.396 88.959,413.869C87.498,414.192 85.968,413.669 84.935,414.344C84.757,414.598 84.792,414.568 84.698,415.054C85.193,415.909 84.587,417.463 84.935,418.607C86.039,422.238 86.514,426.564 87.776,430.447C90.823,439.824 93.788,449.727 96.061,459.573C96.681,462.257 96.062,464.421 96.061,467.15C96.058,472.521 96.332,477.03 97.245,481.122C97.245,482.226 97.245,483.332 97.245,484.438C98.896,491.026 101.565,496.128 104.347,501.486C105.376,503.47 105.901,505.471 106.951,507.406C108.235,509.772 110.123,512.215 110.976,514.984C110.976,516.958 110.976,518.93 110.976,520.904C111.237,522.083 111.08,523.981 110.976,525.167C111.213,528.166 111.449,531.166 111.686,534.165C111.686,535.349 111.686,536.532 111.686,537.716C112.029,538.573 113.092,539.76 113.58,540.559C115.197,543.212 116.606,546.507 117.842,549.321C121.247,557.07 124.934,564.756 128.258,572.291C129.484,575.068 129.635,579.222 133.703,579.158C133.703,579.235 133.703,579.314 133.703,579.394C134.811,580.602 135.118,582.526 136.07,583.893C138.167,586.902 140.766,589.681 142.698,592.892C142.777,592.892 142.856,592.892 142.935,592.892C142.935,592.733 142.935,592.576 142.935,592.416C143.803,591.037 143.206,588.781 143.645,586.97C144.468,583.57 144.186,579.758 145.065,576.077C145.927,572.474 145.562,568.412 146.485,564.475C147.573,559.836 148.964,547.153 147.669,541.741C147.669,540.401 147.669,539.058 147.669,537.716C147.562,535.783 147.458,533.385 146.959,531.323C146.547,529.623 146.745,527.586 146.249,525.639C145.921,524.354 145.258,522.399 145.065,521.14C144.949,520.389 145.596,520.931 145.538,520.43C145.38,519.076 144.495,517.214 144.118,515.931C142.774,511.356 142.216,506.583 141.04,502.196C140.803,498.802 140.566,495.407 140.33,492.014C139.462,488.227 138.594,484.438 137.726,480.648C136.986,477.658 137.867,473.805 137.252,470.939C136.962,469.583 137.672,467.157 137.962,465.966C139.045,461.528 138.597,456.691 139.62,452.468C139.777,448.523 139.935,444.575 140.093,440.629C140.995,436.739 140.566,431.103 140.567,426.657C140.565,419.267 140.804,414.09 140.801,407.238ZM86.355,430.919C85.763,433.421 83.929,435.638 82.805,437.787C79.988,443.168 77.661,448.537 74.757,453.889C73.771,455.705 72.158,457.819 71.443,459.81C70.126,463.472 70.346,467.287 69.312,471.176C68.45,474.416 68.503,478.029 67.655,481.595C67.434,482.524 66.789,484.2 67.181,485.62C67.476,486.687 68.244,489.551 68.839,490.593C69.61,491.946 71.846,493.199 73.1,494.144C74.047,495.17 74.994,496.197 75.941,497.223C78.071,499.276 80.203,501.328 82.332,503.379C90.344,511.395 97.248,519.973 103.874,529.429C105.682,532.009 108.331,534.429 109.791,537.242C109.87,537.242 109.949,537.242 110.028,537.242C110.028,536.138 110.028,535.032 110.028,533.927C109.563,533.135 110.084,531.707 109.791,530.613C108.599,526.169 110.31,518.893 108.608,514.749C107.8,512.782 106.375,510.603 105.294,508.829C102.962,504.999 101.471,500.986 99.612,496.751C98.399,493.986 96.705,491.098 95.825,487.989C94.366,482.837 94.849,477.117 93.694,471.887C93.694,467.308 93.694,462.731 93.694,458.153C92.479,453.313 90.901,448.254 89.434,443.709C88.77,441.656 88.858,439.968 88.25,437.789C87.687,435.772 86.961,433.555 86.83,431.158C86.671,431.077 86.513,430.998 86.355,430.919ZM151.217,607.569C150.909,608.143 150.791,608.241 150.744,609.228C151.589,610.35 151.639,612.064 152.164,613.491C152.774,615.146 153.601,616.914 154.295,618.464C154.666,619.295 155.252,620.72 155.004,621.305C154.259,623.849 152.488,626.507 151.454,628.883C150.087,632.02 149.13,635.362 147.903,638.356C145.575,644.034 145.26,651.56 141.985,656.353C141.255,657.42 139.419,658.122 138.435,658.957C138.584,659.374 138.48,659.187 138.671,659.431C139.066,659.891 139.011,659.827 139.854,659.905C140.903,658.879 142.56,658.535 143.406,657.301C145.88,653.685 145.977,649.171 147.667,644.513C150.293,637.271 153.03,630.059 155.952,623.201C156.142,623.442 156.036,623.264 156.189,623.675C158.107,626.097 159.115,630.832 160.45,633.857C161.52,636.281 163.947,639.04 164.474,641.91C163.764,644.514 163.054,647.119 162.343,649.723C160.673,655.226 160.962,662.325 159.503,667.721C159.188,669.536 158.872,671.351 158.556,673.166C157.613,675.977 155.648,678.537 154.058,680.745C153.129,682.033 152.564,684.168 150.745,684.532C149.447,682.88 141.591,677.825 139.145,677.428C138.88,677.922 138.805,677.861 138.672,678.612C141.639,680.385 144.685,682.356 147.431,684.295C148.432,685.003 149.576,685.172 150.035,686.426C147.355,688.149 145.943,691.453 143.408,693.294C141.967,694.341 140.358,694.885 138.91,695.9C137.038,697.211 135.184,698.924 133.228,700.16C131.613,701.181 127.319,702.329 127.074,704.423C127.482,704.567 127.82,704.635 128.494,704.659C129.967,703.276 132.449,702.668 134.175,701.583C136.153,700.338 137.985,698.633 139.856,697.32C141.305,696.302 142.927,695.752 144.355,694.714C146.026,693.499 147.594,691.407 148.853,689.741C149.958,688.715 151.063,687.688 152.167,686.664C154.891,683.007 158.16,678.958 159.979,674.587C160.373,672.456 160.768,670.324 161.163,668.193C163.434,659.709 163.274,649.677 166.134,641.91C168.822,634.604 174.573,628.578 175.13,619.177C174.721,619.033 174.383,618.965 173.709,618.94C173.709,619.017 173.709,619.097 173.709,619.177C173.63,619.177 173.551,619.177 173.473,619.177C172.671,627.147 168.424,633.448 165.424,639.541C165.234,639.3 165.34,639.475 165.187,639.067C164.487,638.131 164.393,636.784 163.767,635.754C160.084,629.677 157.323,621.907 154.535,615.15C153.48,612.594 153.188,609.825 151.931,607.571C151.691,607.569 151.454,607.569 151.217,607.569ZM120.917,690.687C120.917,691.32 120.917,691.952 120.917,692.583C117.053,694.804 112.394,697.109 107.661,698.503C103.915,699.607 99.475,699.536 95.825,700.399C92.432,700.476 89.038,700.556 85.646,700.633C82.366,701.341 77.713,701.352 74.52,700.633C71.838,700.556 69.155,700.476 66.471,700.399C64.331,699.85 61.778,699.142 59.607,698.503C58.397,698.148 55.083,697.658 54.635,696.846C54.635,695.267 54.635,693.687 54.635,692.11C57.635,691.448 56.292,690.911 57.476,688.795C57.876,688.078 60.244,685.898 61.027,685.479C64.353,683.71 67.944,683.038 71.68,681.454C78.319,678.643 87.754,672.024 91.328,666.301C91.744,666.449 91.558,666.345 91.801,666.538C94.672,667.523 96.955,669.496 100.323,670.325C103.655,671.144 106.325,669.913 108.609,669.141C114.421,667.177 118.213,664.705 122.812,661.799C124.793,660.549 131.161,657.402 131.334,654.933C131.177,654.933 131.019,654.933 130.861,654.933C130.607,654.755 130.637,654.791 130.151,654.696C127.407,657.516 123.668,659.205 120.209,661.328C115.592,664.159 111.106,667.089 105.059,668.668C101.214,669.672 93.282,666.349 92.749,664.405C93.469,663.88 96.811,659.756 97.247,658.959C98.002,657.578 97.877,655.982 98.43,654.46C99.857,650.534 101.156,645.702 102.218,641.436C102.298,639.385 102.376,637.332 102.455,635.28C103.358,631.176 102.817,626.194 103.639,622.018C103.718,622.018 103.797,622.018 103.876,622.018C103.876,622.098 103.876,622.177 103.876,622.254C105.231,623.153 106.169,624.621 107.426,625.57C112.939,629.728 117.005,634.263 121.156,639.778C121.991,640.888 123.4,641.754 124.234,642.857C128.032,647.887 132.122,652.373 133.94,659.432C134.019,660.695 134.098,661.958 134.176,663.221C135.05,667.015 136.776,673.575 135.36,678.376C134.509,681.264 131.962,683.662 130.389,685.954C129.288,687.557 127.93,691.364 125.654,691.635C124.627,690.969 122.25,690.841 120.917,690.687ZM92.037,695.188C92.162,688.251 89.014,684.835 86.12,680.98C85.143,679.678 83.762,677.716 81.858,677.427C81.593,677.921 81.518,677.86 81.384,678.611C85.793,681.536 90.148,687.89 90.143,695.423C85.797,695.471 81.379,696.02 77.36,695.423C75.388,695.423 73.414,695.423 71.442,695.423C68.601,694.95 65.76,694.477 62.92,694.003C61.286,693.55 59.458,692.838 57.712,692.583C57.445,693.077 57.372,693.016 57.238,693.767C59.367,695.082 61.915,695.11 64.813,695.9C75.042,698.678 98.532,697.857 106.949,694.241C113.312,691.508 118.05,686.084 123.283,682.165C125.62,680.415 127.967,678.558 130.621,677.192C131.956,676.504 133.798,676.759 134.172,675.059C133.982,674.818 134.088,674.996 133.936,674.586C133.462,674.586 132.989,674.586 132.516,674.586C131.662,675.236 130.43,675.195 129.438,675.772C127.05,677.158 124.791,678.863 122.574,680.505C113.44,687.271 108.197,695.09 92.037,695.188Z"/>
    </g>
</svg>
