<?xml version="1.0" encoding="UTF-8" standalone="no"?>
<!DOCTYPE svg PUBLIC "-//W3C//DTD SVG 1.1//EN" "http://www.w3.org/Graphics/SVG/1.1/DTD/svg11.dtd">
<svg width="100%" height="100%" viewBox="0 0 54 213" version="1.1" xmlns="http://www.w3.org/2000/svg" xmlns:xlink="http://www.w3.org/1999/xlink" xml:space="preserve" xmlns:serif="http://www.serif.com/" style="fill-rule:evenodd;clip-rule:evenodd;stroke-linejoin:round;stroke-miterlimit:1.41421;">
    <g transform="matrix(1,0,0,1,-309.483,-184.038)">
        <path d="M335.413,390.994C334.925,390.959 334.42,390.915 334.001,391.047C333.772,392.544 332.219,393.322 330.196,392.948C329.671,392.858 329.146,392.767 328.621,392.677C327.873,392.868 326.275,393.581 325.468,393.003C324.716,392.462 325.057,390.407 325.687,389.958C326.068,389.815 326.448,389.67 326.828,389.523C327.184,388.368 327.571,387.027 327.915,385.993C327.77,384.814 327.625,383.637 327.481,382.459C328.098,378.328 327.348,374.667 326.502,371.155C326.231,369.491 325.959,367.823 325.688,366.156C325.58,364.743 325.469,363.331 325.362,361.918C324.826,358.671 325.127,355.887 324.6,352.843C323.846,348.458 325.084,343.66 325.852,340.073C326.542,336.832 326.491,331.027 325.905,327.628C325.588,325.783 325.43,323.931 324.981,322.248C324.439,320.745 323.894,319.24 323.35,317.737C322.933,316.143 322.517,314.549 322.1,312.956C321.015,308.743 320.547,304.114 319.656,299.913C319.438,298.174 319.221,296.434 319.004,294.695C318.75,294.134 318.497,293.574 318.243,293.01C317.718,291.218 317.191,289.425 316.668,287.632C316.195,286.543 315.726,285.456 315.255,284.369C314.766,282.015 314.276,279.66 313.788,277.305C313.208,275.367 312.628,273.429 312.048,271.492C310.887,267.843 310.371,263.054 309.712,259.537C309.712,257.235 309.712,254.934 309.712,252.636C309.331,248.317 309.392,243.288 310.146,239.158C310.11,237.836 310.074,236.513 310.038,235.191C309.795,231.416 310.327,223.943 311.776,221.768C313.136,219.727 315.321,218.532 318.082,217.856C319.168,217.71 320.255,217.565 321.342,217.42C322.085,217.057 322.827,216.696 323.571,216.332C325.727,215.423 328.01,214.7 329.82,213.453C329.82,213.271 329.82,213.089 329.82,212.908C328.415,212.678 328.299,211.705 327.755,210.627C326.646,208.433 326.212,205.704 325.744,202.91C325.762,202.403 325.78,201.896 325.799,201.389C325.528,200.174 325.255,198.961 324.984,197.747C323.889,191.95 328.846,186.54 332.375,184.923C333.438,184.437 334.879,184.369 336.18,184.161C342.493,183.149 345.828,188.601 346.83,193.237C347.187,194.889 347.099,196.802 347.32,198.563C347.576,200.623 347.743,203.308 347.428,205.247C347.464,205.681 347.5,206.116 347.536,206.552C347.279,208.76 347.212,211.604 347.156,213.832C347.131,214.777 346.916,216.175 347.263,216.713C349.037,217.542 350.615,219.075 352.263,220.083C353.034,220.553 354.026,220.454 354.925,220.844C356.245,221.412 357.977,222.712 358.731,223.887C359.948,225.786 360.854,231.529 360.306,234.864C360.021,236.601 360.012,238.475 359.707,240.409C359.689,241.602 359.672,242.799 359.653,243.994C359.672,245.225 359.689,246.458 359.707,247.688C359.429,249.521 359.289,252.149 359.6,254.101C359.983,256.522 360.46,258.425 360.903,260.569C361.175,262.759 361.447,264.954 361.719,267.144C362.373,271.248 361.621,275.904 362.263,279.914C362.407,281.69 362.552,283.465 362.696,285.242C362.932,286.11 363.169,286.979 363.403,287.848C363.595,288.799 363.213,289.854 363.077,290.674C363.169,293.083 363.26,295.492 363.349,297.903C363.43,298.419 363.596,299.362 363.349,299.857C362.969,300.256 362.588,300.656 362.208,301.055C361.254,302.287 360.527,303.773 359.22,304.641C357.989,305.456 355.888,305.968 355.088,307.195C354.013,308.844 353.3,312.28 352.697,314.423C351.538,318.551 350.846,322.841 350.035,327.465C349.835,329.857 349.636,332.248 349.437,334.639C348.494,340.674 350.978,346.268 349.871,352.192C349.232,355.613 348.558,358.723 347.807,361.919C347.263,364.727 346.72,367.535 346.176,370.342C345.235,373.441 344.293,376.538 343.351,379.634C343.133,380.884 342.916,382.135 342.7,383.384C342.717,384.255 342.735,385.123 342.754,385.994C342.655,386.637 342.23,387.736 342.537,388.275C343.009,389.105 344.369,389.069 345.363,389.254C345.69,389.701 345.685,390.003 345.797,390.611C345.906,391.027 346.015,391.444 346.123,391.86C345.974,392.925 343.918,393.353 343.188,393.926C342.261,394.655 342.943,395.735 341.069,396.208C339.633,396.57 336.335,396.567 335.798,395.501C335.373,394.517 336.27,393.529 335.853,392.513C335.597,391.902 335.405,392.224 335.413,390.994ZM328.566,242.583C328.643,241.546 328.336,241.12 328.077,240.354C327.497,238.343 326.917,236.333 326.338,234.322C325.776,232.168 325.215,230.011 324.654,227.856C323.929,225.61 323.204,223.364 322.48,221.118C322.114,219.919 321.948,218.7 321.501,217.639C320.807,217.613 319.945,217.674 319.599,218.02C319.78,220.171 320.782,222.295 321.392,224.214C322.567,227.904 323.296,231.845 324.49,235.682C325.197,237.963 325.903,240.246 326.61,242.528C326.447,242.528 326.284,242.528 326.12,242.528C324.686,242.12 322.634,243.259 321.067,242.528C320.062,242.059 320.023,240.605 319.328,240.247C319.368,242.881 318.744,244.498 318.296,246.441C319.301,246.91 320.19,247.673 320.469,248.833C320.592,249.341 320.51,249.631 320.686,249.975C321.214,250.147 323.412,251.078 323.785,250.843C324.192,250.697 324.386,250.345 324.709,250.192C325.323,249.903 325.997,250.423 326.558,250.083C327.067,249.773 327.251,249.071 327.969,248.997C328.695,248.802 329.136,249.341 329.818,249.214C330.466,249.094 331.149,248.502 331.883,248.617C332.498,248.761 333.114,248.906 333.73,249.052C334.162,248.967 334.379,248.62 334.709,248.453C335.007,248.304 336.939,247.721 337.48,247.964C337.579,248.009 337.436,248.136 337.697,248.128C338.222,248.037 338.749,247.945 339.273,247.856C339.509,248.109 339.745,248.363 339.979,248.618C340.419,248.752 340.851,249.093 341.556,248.942C341.747,248.903 342.073,248.652 342.425,248.78C342.697,249.015 342.969,249.251 343.241,249.487C343.692,249.691 344.244,249.601 344.653,249.542C345.628,249.394 346.32,250.189 346.773,250.628C347.654,250.561 347.535,249.64 347.804,248.998C348.432,247.512 349.029,245.612 349.76,244.107C349.47,243.852 349.18,243.599 348.892,243.346C349.035,242.242 349.58,241.961 349.923,241.226C350.466,239.596 351.009,237.965 351.553,236.336C351.765,235.735 352.221,234.984 352.369,234.434C352.476,234.026 352.145,233.837 352.151,233.565C352.477,231.715 352.803,229.869 353.129,228.021C353.535,226.063 354.155,222.809 353.455,220.901C352.889,220.655 352.441,220.333 351.716,220.141C351.987,222.061 351.903,224.313 351.609,226.173C351.409,228.003 351.21,229.832 351.009,231.662C350.416,234.379 349.654,236.691 348.728,238.943C348.457,239.613 348.184,240.283 347.914,240.953C347.931,241.298 347.95,241.642 347.967,241.987C347.882,242.331 347.447,243.113 347.154,243.29C346.356,243.831 342.419,243.687 341.229,243.508C339.15,243.194 337.296,243.905 335.198,243.563C333.026,243.21 331.052,242.608 328.566,242.583ZM327.371,240.735C327.768,240.721 327.967,240.77 328.186,240.897C328.204,240.951 328.222,241.006 328.24,241.061C328.172,241.831 327.292,242.017 326.773,241.659C326.661,241.272 326.61,241.222 326.827,240.897C327.008,240.844 327.189,240.789 327.371,240.735ZM348.728,241.604C348.819,241.623 348.91,241.641 348.999,241.66C348.948,242.157 348.834,242.327 348.565,242.584C348.319,242.572 348.272,242.546 348.129,242.475C348.129,242.385 348.129,242.294 348.129,242.204C348.329,241.977 348.504,241.805 348.728,241.604ZM350.466,243.614C349.544,244.857 349.291,246.44 348.673,248.071C348.419,248.745 347.855,249.35 347.696,250.19C347.732,250.988 347.767,251.785 347.803,252.582C346.309,261.674 352.405,266.1 354.324,273.067C354.36,273.067 354.397,273.067 354.433,273.067C354.346,271.904 353.898,271.172 353.618,270.242C352.749,267.357 352.026,264.768 351.499,261.656C351.197,259.871 351.818,258.386 351.825,256.764C351.841,253.341 351.462,250.311 350.901,247.31C350.756,246.079 350.611,244.847 350.466,243.614ZM318.296,246.658C317.587,250.158 316.964,254.647 317.59,258.776C317.59,259.646 317.59,260.515 317.59,261.384C317.68,263.086 317.77,264.79 317.861,266.491C317.952,268.195 318.042,269.897 318.132,271.601C318.205,272.415 318.278,273.229 318.35,274.045C318.532,275.042 318.712,276.037 318.893,277.034C318.949,276.997 319.002,276.961 319.056,276.926C319.726,269.882 321.667,262.569 320.415,254.972C319.875,251.695 321.149,247.621 318.296,246.658ZM347.206,273.016C346.627,273.051 346.047,273.087 345.467,273.123C344.271,273.287 343.076,273.449 341.88,273.612C340.866,273.647 339.852,273.685 338.837,273.719C336.482,273.883 334.127,274.046 331.773,274.209C327.338,274.971 320.844,276.201 318.731,279.045C319.162,280.686 318.469,282.666 318.731,284.37C318.897,285.455 319.068,286.591 318.893,287.741C318.799,288.367 318.765,291.039 319.056,291.272C319.202,291.272 319.346,291.272 319.493,291.272C319.645,290.908 319.905,290.736 320.253,290.567C321.322,291.082 321.517,290.73 322.536,290.404C323.097,290.602 323.658,290.801 324.219,291.001C325.748,290.206 326.044,290.585 327.372,291.056C327.87,291.232 328.735,290.499 329.491,290.784C329.944,291.128 330.397,291.472 330.849,291.818C331.61,291.709 332.37,291.598 333.132,291.491C333.746,291.889 334.362,292.287 334.98,292.686C335.378,292.613 335.776,292.541 336.175,292.469C337.649,292.566 337.822,293.069 338.675,293.61C339.154,293.915 340.202,293.688 340.577,294.099C341.089,294.375 340.956,295.175 341.283,295.405C342.073,295.721 344.593,294.269 345.25,293.935C346.372,293.247 347.496,292.559 348.619,291.87C349.214,291.558 349.874,291.539 350.412,291.22C350.865,290.84 351.317,290.457 351.77,290.079C352.585,289.843 353.401,289.607 354.216,289.371C354.524,289.01 354.831,288.646 355.14,288.284C355.429,288.266 355.72,288.25 356.009,288.23C356.773,288.179 356.909,287.593 357.204,287.089C357.439,287.124 357.675,287.161 357.91,287.196C358.002,286.911 358.088,286.899 358.128,286.544C357.198,283.137 356.436,280.1 355.357,277.035C354.971,275.94 354.895,274.349 354.271,273.448C352.334,272.922 349.638,273.016 347.206,273.016ZM354.868,274.48C355.02,275.792 355.825,278.631 356.498,279.481C356.161,277.849 355.756,275.676 354.868,274.48ZM357.856,284.644C358.044,285.929 358.274,287.856 358.672,289.156C358.69,289.156 358.708,289.156 358.727,289.156C358.727,289.119 358.727,289.084 358.727,289.046C359.177,288.02 358.271,285.27 357.856,284.644ZM337.371,341.269C336.389,342.897 337.096,348.442 337.207,350.399C337.244,350.382 337.278,350.363 337.315,350.344C337.442,349.692 337.569,349.04 337.695,348.389C337.66,346.904 337.624,345.417 337.588,343.932C337.572,343.241 337.738,341.69 337.371,341.269ZM337.207,350.616C337.226,350.687 337.244,350.761 337.262,350.833C337.279,350.833 337.298,350.833 337.316,350.833C337.298,350.761 337.279,350.687 337.262,350.616C337.244,350.616 337.226,350.616 337.207,350.616ZM336.501,359.638C336.247,361.467 335.992,363.297 335.739,365.127C335.038,369.084 334.805,372.95 334.163,376.755C333.881,378.437 334.611,380.187 334.869,381.484C334.815,382.281 334.762,383.079 334.707,383.874C334.487,385.234 334.763,387.143 334.762,388.549C334.834,388.585 334.906,388.62 334.98,388.658C335.088,388.585 335.197,388.512 335.305,388.439C335.145,388.176 335.197,387.535 335.197,386.971C335.197,383.658 336.069,382.839 336.61,380.505C336.61,378.857 336.61,377.208 336.61,375.559C336.61,372.216 336.663,369.027 336.663,365.724C336.664,364.107 337.009,360.866 336.501,359.638Z" style="fill:rgb(35,31,32);"/>
    </g>
</svg>
