<?xml version="1.0" encoding="UTF-8" standalone="no"?>
<!DOCTYPE svg PUBLIC "-//W3C//DTD SVG 1.1//EN" "http://www.w3.org/Graphics/SVG/1.1/DTD/svg11.dtd">
<svg width="100%" height="100%" viewBox="0 0 89 177" version="1.1" xmlns="http://www.w3.org/2000/svg" xmlns:xlink="http://www.w3.org/1999/xlink" xml:space="preserve" xmlns:serif="http://www.serif.com/" style="fill-rule:evenodd;clip-rule:evenodd;stroke-linejoin:round;stroke-miterlimit:1.41421;">
    <g transform="matrix(1,0,0,1,-432.916,-190.628)">
        <path d="M454.421,250.713C454.074,250.763 453.729,250.813 453.382,250.861C453.068,249.671 452.753,248.482 452.441,247.292C452.07,245.849 452.053,244.615 451.699,243.177C451.352,241.778 450.774,240.234 450.411,238.767C450,237.111 450.132,234.788 449.371,233.363C449.321,233.363 449.271,233.363 449.223,233.363C449.191,233.397 449.157,233.43 449.123,233.462C449.255,234.108 449.389,234.752 449.519,235.396C449.894,237.293 449.983,238.78 450.46,240.501C450.707,241.296 450.955,242.088 451.202,242.881C451.118,243.128 451.037,243.378 450.955,243.626C450.699,244.924 450.74,245.615 450.559,246.748C450.609,246.715 450.659,246.682 450.707,246.648C450.471,248.483 449.211,249.774 448.379,251.06C447.476,252.456 446.685,253.831 445.755,255.225C445.31,255.685 444.863,256.148 444.418,256.612C444.286,257.057 444.153,257.506 444.022,257.951C443.857,258.082 443.692,258.214 443.527,258.347C443.477,258.71 443.427,259.075 443.379,259.437C443.263,259.571 443.149,259.702 443.032,259.833C440.719,259.751 439.144,258.082 438.575,256.067C438.542,255.603 438.511,255.14 438.475,254.678C438.3,254.128 437.749,253.373 437.583,252.793C437.435,252.276 437.615,251.387 437.683,251.011C437.65,250.515 437.619,250.018 437.583,249.523C437.583,248.186 437.644,246.971 437.881,245.756C437.881,244.898 437.881,244.036 437.881,243.177C438.11,242.816 438.343,242.451 438.574,242.087C438.574,241.295 438.574,240.5 438.574,239.708C438.705,238.683 438.839,237.658 438.97,236.635C438.97,235.578 438.97,234.519 438.97,233.461C439.1,232.794 439.473,232.398 439.564,231.777C439.033,231.228 437.191,229.908 437.583,228.603C437.996,228.058 438.41,227.513 438.821,226.968C437.585,227.358 436.594,228.211 436.296,229.545C436.264,230.059 436.232,230.57 436.196,231.081C436.089,229.526 435.976,228.936 436.592,227.711C435.321,228.011 433.209,228.54 433.471,230.338C433.571,230.685 433.669,231.031 433.769,231.378C433.754,231.378 433.737,231.378 433.719,231.378C433.719,231.347 433.719,231.314 433.719,231.279C433.05,230.648 432.611,229.308 433.175,228.404C434.381,227.116 435.586,225.827 436.79,224.539C437.464,223.213 436.536,219.205 436.889,217.4C437.188,215.873 438.077,214.47 438.574,213.039C438.851,212.235 438.395,210.823 438.276,210.214C438.123,209.415 438.367,208.345 438.574,207.687C438.871,207.023 439.168,206.365 439.466,205.701C440.221,203.531 440.599,201.27 441.397,199.26C441.513,198.913 441.627,198.566 441.744,198.218C442.521,197.029 443.645,195.922 444.567,194.848C445.706,193.519 446.626,192.028 448.38,191.327C450.054,190.661 451.946,190.991 453.978,190.685C455.058,190.522 456.615,190.733 457.642,191.029C458.76,191.357 460.01,192.068 460.959,192.666C462.463,193.617 463.69,195.702 464.674,197.176C465.18,197.939 465.323,198.813 465.911,199.456C465.883,201.091 465.865,202.801 465.515,204.513C465.367,205.371 465.217,206.231 465.069,207.092C465.482,208.897 466.951,210.486 468.041,211.699C467.884,211.783 467.984,211.676 467.941,211.847C468.337,212.293 468.734,212.742 469.129,213.186C469.93,213.861 472.006,214.35 473.239,214.625C473.603,214.625 473.968,214.625 474.329,214.625C474.527,214.739 474.725,214.855 474.924,214.972C475.238,215.01 475.876,214.713 476.409,214.824C477.486,215.041 479.093,214.618 480.271,214.924C482.167,215.409 484.508,216.14 485.027,218.194C485.653,218.173 486.357,217.761 486.908,218.144C488.422,219.198 487.434,223.235 487.353,224.836C489.743,226.193 489.787,227.871 488.988,230.783C488.971,231.741 488.954,232.7 488.939,233.658C488.747,233.744 488.486,233.781 488.245,233.708C488.071,233.797 488.062,233.822 487.948,233.957C488.121,234.322 488.142,234.955 488.344,235.295C488.54,235.216 488.588,235.188 488.74,235.295C489.371,235.749 488.717,236.865 488.789,237.427C488.856,237.948 489.56,238.267 489.285,239.212C489.128,239.748 488.385,240.243 488.74,241.194C489.106,241.825 489.786,242.559 489.384,243.772C489.275,244.099 488.928,244.09 488.988,244.514C489.343,244.626 489.468,244.817 489.681,245.059C489.664,245.423 489.647,245.788 489.632,246.151C489.566,246.184 489.501,246.215 489.434,246.251C489.286,246.216 489.136,246.185 488.988,246.151C488.988,246.166 488.988,246.184 488.988,246.201C489.174,246.539 489.346,246.775 489.384,247.291C489.3,247.425 489.219,247.556 489.136,247.687C488.674,247.474 488.213,247.258 487.749,247.043C485.865,246.61 481.996,247.577 481.262,248.333C481.262,248.415 481.262,248.496 481.262,248.58C481.294,248.613 481.329,248.644 481.361,248.68C481.411,248.68 481.461,248.68 481.509,248.68C482.003,247.881 486.135,247.074 487.601,247.39C488.096,247.622 488.592,247.853 489.087,248.083C489.055,248.714 489.516,249.206 489.285,249.72C489.219,249.67 489.151,249.62 489.087,249.572C488.835,249.121 488.421,249.164 487.947,248.927C487.381,248.645 486.623,248.226 485.967,247.985C484.962,247.619 482.054,248.874 481.212,249.077C481.212,249.142 481.212,249.207 481.212,249.274C481.23,249.306 481.245,249.34 481.262,249.374C482.399,249.324 483.332,248.676 484.283,248.433C485.751,248.058 486.91,248.808 487.799,249.275C488.398,249.589 489.173,249.645 489.285,250.415C488.875,251.883 488.318,252.853 487.997,254.53C486.68,254.929 485.667,257.683 484.63,258.644C484.364,258.612 484.102,258.577 483.837,258.545C483.863,260.402 482.589,260.636 481.608,261.469C480.827,262.135 480.127,263 479.529,263.849C479.134,264.409 478.559,265.608 477.696,265.485C477.749,266.473 478.04,270.018 477.448,270.839C476.902,271.599 475.497,271.842 474.576,272.228C473.793,272.555 473.047,273.216 472.051,273.368C467.639,274.039 463.129,273.102 459.424,272.377C456.776,271.857 454.654,271.959 452.689,270.84C452.209,270.46 451.73,270.079 451.252,269.7C450.037,268.893 448.747,268.141 447.587,267.371C445.737,266.139 444.002,265.397 442.982,263.306C442.741,262.809 442.044,261.922 442.387,261.075C442.667,260.485 443.373,260.212 443.675,259.686C443.725,259.325 443.774,258.96 443.823,258.596C443.988,258.48 444.153,258.364 444.318,258.249C444.449,257.77 444.583,257.292 444.714,256.811C444.993,256.563 445.276,256.315 445.556,256.068C446.448,254.714 447.338,253.357 448.23,252.003C448.694,252.187 451.906,249.41 452.54,248.93C452.542,249.7 452.86,250.696 453.184,251.26C453.707,251.249 454.362,251.161 454.768,250.913C454.773,249.976 454.753,249.235 454.522,248.534C454.349,248.016 453.874,247.449 454.025,246.799C455.208,246.73 456.849,244.627 457.245,243.676C457.476,242.916 457.706,242.155 457.938,241.396C458.249,240.653 458.843,240.21 459.028,239.314C458.994,239.28 458.961,239.248 458.929,239.215C458.845,239.233 458.762,239.247 458.681,239.264C458.477,239.984 458.035,240.37 457.741,240.951C457.424,241.563 457.395,242.211 457.146,242.932C456.654,244.35 455.425,246.11 453.927,246.501C453.744,245.822 453.563,245.147 453.382,244.469C454.725,244.658 456.635,240.529 456.403,238.868C456.337,238.868 456.269,238.868 456.205,238.868C456.155,238.9 456.106,238.932 456.057,238.967C455.952,240.616 454.632,244.299 453.235,244.171C452.712,242.261 452.585,240.39 452.047,238.37C451.674,236.977 451.028,235.344 450.907,233.661C450.924,233.661 450.94,233.661 450.957,233.661C452.403,234.225 454.66,233.892 456.354,234.307C456.958,234.456 457.67,235.085 458.237,235.001C458.202,234.885 458.171,234.771 458.137,234.653C457.429,234.432 456.82,234.031 456.007,233.861C454.085,233.457 452.011,233.892 450.659,233.067C450.663,232.804 450.633,232.671 450.559,232.522C450.721,232.356 450.92,232.272 451.203,232.224C451.221,232.719 452.097,232.735 452.64,232.869C454.328,233.285 456.796,232.968 458.682,232.968C459.339,232.968 460.508,233.114 460.911,232.918C460.911,232.869 460.911,232.819 460.911,232.77C460.876,232.739 460.844,232.704 460.811,232.671C458.427,232.122 453.052,233.343 451.451,232.126C451.812,232.076 452.177,232.026 452.541,231.978C453.222,231.528 453.249,229.183 452.838,228.506C452.524,228.343 452.209,228.178 451.897,228.011C451.908,227.788 451.932,227.745 451.997,227.615C452.557,227.461 454.09,227.136 454.375,226.675C454.375,226.559 454.375,226.443 454.375,226.326C453.561,225.954 450.407,226.278 448.827,226.573C446.186,227.071 440.067,230.927 439.418,233.265C439.134,234.287 439.588,235.438 439.368,236.587C438.968,238.694 439.17,241.716 438.378,243.429C439.121,245.089 443.125,245.055 444.667,244.221C444.906,242.268 444.59,239.689 444.32,237.777C444.243,237.225 444.077,235.64 444.37,235.298C444.674,235.028 445.214,235.037 445.608,234.852C447.119,234.144 448.709,233.207 450.312,232.622C450.278,234.472 451.287,236.78 451.65,238.371C452.083,240.275 452.195,241.893 452.69,243.776C452.953,244.518 453.217,245.261 453.483,246.006C453.532,246.467 453.582,246.929 453.631,247.393C453.931,248.452 454.417,249.195 454.421,250.713ZM453.283,196.184C452.477,196.488 451.581,196.399 450.806,196.731C450.276,196.955 447.965,199.42 447.735,199.952C446.99,201.668 448.517,203.294 449.023,204.513C451.008,209.297 452.647,212.1 457.492,214.078C457.518,214.889 458.087,215.648 457.937,216.508C455.998,217.001 453.045,218.677 452.044,219.98C451.372,221.28 451.04,221.207 449.963,222.011C449.616,222.341 449.27,222.671 448.923,223.002C448.433,223.206 447.209,223.354 447.389,223.894C448.512,223.763 451.722,221.598 452.044,220.821C452.059,220.821 452.075,220.821 452.093,220.821C451.7,223.05 450.68,224.49 449.864,226.223C449.882,226.258 449.896,226.29 449.914,226.323C449.978,226.341 450.046,226.357 450.112,226.373C451.468,225.557 453.37,224.132 453.827,222.31C454.018,221.534 453.602,220.879 453.727,220.226C453.957,219.764 454.188,219.301 454.419,218.837C454.402,218.806 454.386,218.773 454.371,218.738C454.304,218.738 454.237,218.738 454.173,218.738C454.123,218.772 454.072,218.805 454.023,218.837C453.808,219.269 453.593,219.697 453.38,220.127C453.412,220.804 453.444,221.482 453.48,222.159C453.199,223.409 451.465,225.144 450.507,225.777C450.862,224.806 451.572,224.009 451.944,223.002C452.142,222.093 452.34,221.185 452.539,220.275C452.933,218.979 455.261,217.892 456.55,217.501C456.318,218.292 456.088,219.085 455.857,219.879C455.36,221.492 455.142,223.094 454.47,224.539C454.139,225.034 453.809,225.529 453.481,226.025C453.717,225.971 454.052,225.856 454.323,225.975C454.581,226.091 454.701,226.264 454.817,226.52C454.351,227.45 453.258,227.355 452.341,227.809C452.341,227.876 452.341,227.941 452.341,228.007C453.221,228.205 453.622,229.243 453.629,230.189C453.363,230.68 453.165,231 453.134,231.676C455.642,231.825 458.151,231.974 460.661,232.122C461.612,232.283 462.762,232.783 464.026,232.518C465.032,232.306 465.711,231.695 466.403,231.178C467.032,230.8 467.659,230.418 468.285,230.039C469.193,229.163 470.102,228.288 471.01,227.412C472.315,226.424 473.972,225.998 475.367,225.082C475.565,224.851 475.763,224.619 475.962,224.39C476.325,224.174 476.687,223.959 477.052,223.743C478.009,222.934 478.965,222.125 479.923,221.314C480.353,221.067 480.783,220.819 481.211,220.571C481.359,220.356 481.508,220.141 481.657,219.927C482.631,219.383 483.605,218.835 484.579,218.29C484.475,216.899 483.369,216.545 482.301,216.109C481.715,215.871 481.089,215.539 480.369,215.417C478.735,215.399 477.1,215.382 475.467,215.367C473.46,214.989 471.443,214.728 469.772,214.076C466.766,212.903 465.102,207.8 463.878,204.609C463.393,203.342 462.315,202.704 461.552,201.735C459.529,199.173 457.873,196.172 453.283,196.184ZM486.017,218.987C485.851,219.203 485.687,219.418 485.522,219.633C485.522,220.591 485.522,221.549 485.522,222.506C484.99,222.382 482.694,223.226 482.104,223.447C480.565,224.028 479.044,224.135 477.598,224.787C476.358,225.347 474.822,226.088 473.585,226.671C473.603,226.753 473.62,226.835 473.635,226.918C473.685,226.935 473.734,226.951 473.783,226.968C475.952,226.105 478.143,224.98 480.469,224.191C482.123,223.634 484.121,223.551 485.522,222.705C485.571,225.147 485.885,227.458 486.314,229.447C486.346,230.222 486.38,231.001 486.414,231.777C486.515,232.311 486.772,232.726 486.81,233.362C486.048,232.983 485.29,232.602 484.531,232.222C482.976,231.805 478.995,232.379 478.44,233.065C478.407,233.114 478.373,233.164 478.34,233.213C478.406,233.262 478.471,233.312 478.538,233.361C479.701,232.844 482.204,232.085 484.184,232.519C485.319,232.768 486.047,233.768 487.157,233.559C487.238,232.864 486.896,232.283 486.761,231.676C486.728,230.882 486.694,230.089 486.66,229.297C486.247,227.447 486.019,225.734 485.968,223.397C485.943,222.25 485.604,219.994 486.266,219.333C486.332,219.385 486.397,219.432 486.464,219.481C486.777,220.192 487.09,220.902 487.403,221.613C487.503,221.581 487.601,221.549 487.7,221.513C487.7,221.498 487.7,221.482 487.7,221.463C487.542,220.547 486.954,219.622 486.464,218.985C486.313,218.987 486.165,218.987 486.017,218.987ZM441.446,228.405C440.95,229.017 440.455,229.629 439.961,230.24C440.027,230.654 440.092,231.067 440.159,231.479C440.585,230.468 442.482,230.528 441.446,228.405ZM452.292,231.629C452.324,231.629 452.356,231.629 452.392,231.629C452.342,231.661 452.292,231.693 452.244,231.728C452.258,231.693 452.274,231.661 452.292,231.629ZM482.104,232.916C482.054,232.949 482.005,232.983 481.956,233.016C481.875,234.106 481.366,234.887 481.163,235.841C481.146,235.841 481.132,235.841 481.114,235.841C481.074,235.01 480.783,233.532 480.271,233.114C480.24,233.114 480.206,233.114 480.172,233.114C480.14,233.164 480.106,233.214 480.074,233.262C480.386,234.457 480.706,236.105 481.113,237.327C481.013,238.056 480.915,238.78 480.815,239.509C480.798,240.319 480.784,241.128 480.766,241.938C480.518,243.13 480.112,244.378 479.875,245.407C479.875,245.954 479.875,246.499 479.875,247.044C479.708,248.334 479.545,249.621 479.378,250.911C479.213,252.216 479.05,253.52 478.884,254.826C478.625,255.488 478.089,256.506 478.339,257.505C478.439,257.47 478.537,257.439 478.637,257.403C478.652,256.401 479.045,255.493 478.934,254.776C479.83,254.455 479.435,253.922 479.875,252.993C480.09,252.68 480.303,252.364 480.518,252.051C480.716,251.38 480.564,250.773 480.815,250.266C480.617,250.035 480.419,249.805 480.221,249.573C480.402,249.127 480.585,248.681 480.766,248.235C480.955,247.423 480.305,246.883 480.171,246.45C480.045,246.033 480.385,245.154 480.468,244.814C480.65,244.714 480.833,244.616 481.013,244.516C480.898,244.417 480.784,244.319 480.666,244.219C481.384,242.342 481.246,239.285 481.508,237.13C481.276,236.988 481.246,236.934 481.261,236.536C481.455,236.099 482.551,233.284 482.153,232.966C482.137,232.949 482.121,232.935 482.104,232.916ZM488.146,239.807C487.668,240.134 486.899,240.084 486.562,240.55C486.579,240.6 486.593,240.649 486.612,240.698C486.693,240.698 486.777,240.698 486.858,240.698C487.315,240.502 488.092,240.378 488.394,240.005C488.362,239.939 488.328,239.873 488.294,239.807C488.244,239.807 488.195,239.807 488.146,239.807ZM486.659,240.798C485.345,241.597 483.604,241.599 481.41,241.592C481.41,241.625 481.41,241.656 481.41,241.691C481.393,241.741 481.379,241.791 481.36,241.84C481.71,242.003 484.395,242.092 484.926,241.939C485.619,241.66 486.313,241.377 487.005,241.097C487.005,241.013 487.005,240.931 487.005,240.847C486.974,240.847 486.94,240.847 486.906,240.847C486.826,240.832 486.742,240.814 486.659,240.798ZM488.344,243.177C487.849,243.435 487.369,243.229 486.81,243.377C484.998,243.857 483.185,244.644 481.114,245.061C481.114,245.127 481.114,245.195 481.114,245.259C481.146,245.294 481.181,245.325 481.213,245.359C483.037,245.367 484.71,244.401 486.166,243.972C486.959,243.823 487.75,243.674 488.543,243.526C488.558,243.476 488.575,243.427 488.593,243.378C488.575,243.328 488.558,243.277 488.543,243.228C488.476,243.212 488.411,243.193 488.344,243.177ZM451.549,244.615C451.829,245.87 452.11,247.125 452.392,248.383C452.202,248.76 449.002,251.428 448.578,251.605C448.781,250.709 449.704,249.906 450.163,249.176C450.919,247.972 451.269,246.121 451.549,244.615ZM486.413,244.714C485.906,244.907 484.978,244.708 484.68,245.11C484.711,245.16 484.745,245.21 484.779,245.258C485.916,245.253 487.24,244.819 488.493,245.11C488.808,245.183 488.962,245.381 489.286,245.358C489.286,245.294 489.286,245.226 489.286,245.16C489.236,245.096 489.186,245.028 489.137,244.962C488.09,244.692 487.357,244.848 486.413,244.714ZM485.72,245.855C485.297,246.066 484.628,245.894 484.085,246.003C483.484,246.122 481.437,246.687 481.113,247.043C481.131,247.124 481.145,247.208 481.162,247.291C481.181,247.291 481.195,247.291 481.212,247.291C482.137,246.993 483.062,246.696 483.985,246.399C484.922,246.217 485.766,246.49 486.659,246.299C487.304,246.162 488.946,246.62 488.74,245.952C487.732,245.92 486.727,245.888 485.72,245.855ZM466.651,255.67C465.301,257.881 469.423,258.576 470.564,259.437C470.982,259.75 471.038,260.302 471.257,260.826C471.718,261.913 472.965,265.621 473.881,266.03C474.332,266.23 475.288,266.012 475.862,265.882C476.457,265.716 477.051,265.552 477.645,265.387C478.438,265.103 478.813,264.132 479.28,263.503C480.095,262.404 481.091,261.285 482.152,260.43C482.647,260.034 483.142,259.636 483.637,259.24C483.973,258.662 483.603,257.65 483.34,257.306C483.075,256.961 482.296,256.675 481.855,256.513C478.885,255.43 478.086,259.335 476.753,260.578C475.552,260.55 474.735,259.418 473.93,258.892C472.867,258.197 471.588,257.819 470.365,257.305C469.161,256.798 468.325,255.715 466.651,255.67ZM459.572,352.577C459.473,352.577 459.374,352.577 459.275,352.577C459.239,353.835 458.424,353.916 458.185,354.559C458.249,356.112 458.316,357.666 458.383,359.219C458.316,359.748 458.249,360.276 458.185,360.806C457.998,361.445 457.375,361.996 457.195,362.69C456.916,363.756 457.317,364.543 456.749,365.218C455.608,366.569 450.853,367.125 449.222,365.911C448.355,365.266 447.782,363.37 448.429,362.044C448.895,361.093 450.064,360.459 450.707,359.664C451.024,359.274 452.081,356.42 451.797,355.7C451.779,355.683 451.763,355.665 451.747,355.65C451.594,355.342 451.12,355.308 450.905,355.053C450.585,354.679 450.553,353.947 450.261,353.568C447.072,353.702 447.468,350.906 446.596,348.561C444.741,343.573 444.021,336.73 444.021,330.023C444.021,328.091 444.377,326.267 444.021,324.471C443.45,321.612 442.996,318.707 442.436,315.746C442.436,314.869 442.436,313.992 442.436,313.119C442.336,310.789 442.238,308.459 442.139,306.129C441.927,305.01 442.085,303.823 441.841,302.56C441.554,301.061 441.547,299.195 441.247,297.603C441.247,297.14 441.247,296.679 441.247,296.216C440.655,293.053 440.751,289.481 440.751,285.903C440.751,283.223 440.454,281.204 440.454,278.517C440.454,277.743 440.454,276.965 440.454,276.188C440.944,273.631 441.193,271.042 441.841,268.851C442.271,267.403 442.455,265.837 443.228,264.688C445.584,266.782 448.357,268.199 451.053,269.994C451.964,270.598 452.767,271.442 453.926,271.825C456.242,272.599 459.196,272.53 461.7,273.166C464.129,273.78 468.242,274.309 471.257,273.71C471.589,273.71 471.918,273.71 472.248,273.71C474.021,273.275 475.29,271.992 477.15,271.677C477.213,272.091 477.596,272.427 477.497,272.82C477.342,273.431 476.827,274.23 477.2,275.05C477.398,275.215 477.596,275.379 477.794,275.544C477.894,275.908 477.992,276.273 478.092,276.634C478.24,276.701 478.389,276.768 478.537,276.835C479.103,277.352 478.899,278.034 478.785,278.766C479.155,279.184 479.703,279.775 479.875,280.353C479.875,280.882 479.875,281.411 479.875,281.94C480.26,283.257 480.74,284.347 481.161,285.855C481.476,286.55 481.789,287.244 482.102,287.937C482.516,289.276 482.927,290.614 483.34,291.953C484.15,295.009 484.957,298.066 485.767,301.124C485.997,302.28 486.23,303.437 486.461,304.593C487.121,306.23 487.78,307.866 488.44,309.5C488.806,310.747 488.724,312.057 489.085,313.169C489.963,315.881 491.266,317.863 492.552,320.06C492.998,321.018 493.444,321.976 493.89,322.935C494.567,324.091 496.04,325.985 496.414,327.248C496.43,327.677 496.447,328.107 496.464,328.535C496.86,328.966 497.257,329.395 497.652,329.826C498.014,330.419 498.378,331.014 498.742,331.611C498.842,331.89 498.94,332.171 499.039,332.453C499.362,332.917 499.87,333.34 500.179,333.842C501.333,335.73 501.369,338.792 502.554,340.63C503.598,342.25 506.492,342.152 507.208,344.399C507.534,345.418 506.775,346.863 506.961,347.373C507.167,347.852 507.659,348.332 507.803,348.861C507.989,349.536 507.311,349.569 507.456,350.148C507.621,350.413 507.788,350.678 507.951,350.943C508.783,352.569 509.736,353.783 510.725,355.205C511.988,357.019 513.19,359.771 514.786,361.204C515.662,361.989 516.61,362.28 517.807,362.79C518.154,363.053 518.5,363.318 518.847,363.583C519.359,363.812 519.869,364.046 520.381,364.276C521.019,364.598 521.23,365.466 521.818,365.764C521.687,366.077 521.553,366.393 521.422,366.704C518.975,366.894 512.081,367.088 510.576,365.912C509.368,364.966 508.13,363.9 506.614,363.285C504.162,362.286 501.1,362.365 498.99,361.054C496.296,359.383 501.261,355.487 499.237,353.47C499.15,353.386 497.707,352.468 497.603,352.428C496.42,352.004 495.927,352.605 495.126,351.586C493.502,349.523 492.058,347.277 490.569,345.042C489.925,344.134 489.282,343.226 488.637,342.316C487.516,340.397 486.562,338.499 485.369,336.617C480.914,329.58 476.492,322.113 473.432,313.764C470.488,305.728 466.932,297.92 463.083,290.663C462.093,288.799 461.361,286.979 460.062,285.459C459.853,285.216 459.291,284.192 458.824,284.319C458.042,284.531 458.247,287.044 458.082,288.036C457.834,290.069 457.586,292.101 457.339,294.135C456.984,296.324 457.836,298.469 457.537,300.48C457.148,303.08 457.062,306.247 457.487,309.005C457.487,309.715 457.487,310.427 457.487,311.137C457.601,312.856 457.717,314.574 457.834,316.292C457.817,317.943 457.8,319.598 457.784,321.249C458.147,323.63 458.138,325.75 458.577,327.892C458.577,328.535 458.577,329.181 458.577,329.826C458.719,330.516 458.508,331.552 458.626,332.305C458.735,333.017 458.848,333.889 458.676,334.683C458.427,335.819 457.872,337.799 458.181,339.293C458.317,339.961 458.764,340.831 458.974,341.476C459.62,343.471 460.074,345.233 460.658,347.224C460.903,348.068 461.932,349.277 461.697,350.297C461.468,351.469 460.349,351.184 459.717,351.883C459.672,352.116 459.622,352.347 459.572,352.577ZM475.665,265.98C474.894,267.037 473.925,268.884 474.278,270.787C474.378,270.787 474.476,270.787 474.576,270.787C474.576,270.756 474.576,270.721 474.576,270.689C474.643,269.977 474.709,269.267 474.773,268.557C475.033,267.669 475.875,266.948 475.863,266.029C475.832,266.011 475.797,265.997 475.764,265.98C475.731,265.98 475.7,265.98 475.665,265.98ZM476.854,265.98C476.632,266.465 477.065,267.291 477.201,267.864C477.232,267.879 477.267,267.895 477.3,267.914C477.35,267.895 477.4,267.879 477.448,267.864C477.629,267.223 477.218,266.558 477.052,266.029C476.988,266.012 476.921,265.997 476.854,265.98ZM474.378,266.228C473.116,267.48 470.788,268.476 468.781,268.905C467.83,269.109 466.499,268.646 465.712,269.003C465.712,269.053 465.712,269.103 465.712,269.153C465.745,269.186 465.778,269.218 465.811,269.251C469.018,269.325 470.961,268.79 472.892,267.667C473.471,267.33 474.436,267.076 474.577,266.328C474.512,266.294 474.445,266.26 474.378,266.228ZM506.963,350.794C505.075,352.236 502.601,353.01 500.379,354.114C500.361,354.229 500.344,354.344 500.329,354.461C501.559,356.12 503.3,357.109 505.032,358.278C507.03,359.624 509.112,360.996 511.321,362.193C512.07,362.599 515.076,363.601 516.026,363.037C516.043,363.003 516.06,362.971 516.075,362.938C515.8,361.853 514.229,361.416 513.648,360.508C511.523,357.195 509.36,354.167 507.309,350.842C507.195,350.826 507.079,350.809 506.963,350.794ZM455.759,353.668C454.725,354.189 453.328,354.193 452.392,354.758C452.174,355.893 452.273,357.315 451.896,358.279C451.599,358.972 451.302,359.666 451.005,360.361C450.821,360.543 450.641,360.723 450.46,360.906C450.322,361.339 450.877,361.897 451.104,361.996C451.943,362.364 453.487,361.927 454.075,361.748C456.599,360.986 457.889,359.85 457.889,356.544C457.889,355.67 457.873,354.639 457.542,354.065C456.956,353.878 456.609,353.668 455.759,353.668Z"/>
    </g>
</svg>
