<?xml version="1.0" encoding="UTF-8" standalone="no"?>
<!DOCTYPE svg PUBLIC "-//W3C//DTD SVG 1.1//EN" "http://www.w3.org/Graphics/SVG/1.1/DTD/svg11.dtd">
<svg width="100%" height="100%" viewBox="0 0 248 236" version="1.1" xmlns="http://www.w3.org/2000/svg" xmlns:xlink="http://www.w3.org/1999/xlink" xml:space="preserve" xmlns:serif="http://www.serif.com/" style="fill-rule:evenodd;clip-rule:evenodd;stroke-linejoin:round;stroke-miterlimit:1.41421;">
    <g transform="matrix(1,0,0,1,-8.3238,-28.0415)">
        <g transform="matrix(2,0,0,2,-32.0422,-29.2899)">
            <path d="M66.078,125.198C65.636,124.827 65.101,124.684 64.472,124.772C63.843,124.86 63.365,125.149 63.041,125.633C62.716,126.12 62.615,126.797 62.738,127.668C62.857,128.524 63.148,129.147 63.605,129.534C64.064,129.92 64.595,130.069 65.205,129.983C65.812,129.899 66.283,129.61 66.611,129.114C66.939,128.622 67.043,127.936 66.919,127.059C66.796,126.194 66.517,125.573 66.078,125.198ZM82.712,125.01C82.812,124.856 82.863,124.665 82.859,124.436C82.855,124.178 82.781,123.973 82.642,123.817C82.502,123.661 82.306,123.565 82.054,123.526C81.931,123.512 81.554,123.51 80.929,123.522L79.726,123.542L79.761,125.479L80.9,125.458C81.64,125.446 82.103,125.407 82.287,125.342C82.468,125.276 82.611,125.165 82.712,125.01ZM105.395,129.184L104.729,132.319L103.223,131.999L103.893,128.854L102.074,123.946L103.844,124.321L104.975,127.651L107.324,125.061L109.063,125.432L105.395,129.184ZM100.564,124.86L96.482,124.286L96.248,125.963L100.045,126.497L99.865,127.77L96.068,127.237L95.779,129.295L100.004,129.889L99.824,131.163L94.072,130.356L95.136,122.792L100.744,123.579L100.564,124.86ZM92.252,130.178L90.705,130.098L87.89,124.961L87.63,129.936L86.199,129.862L86.599,122.233L88.097,122.311L90.953,127.569L91.22,122.475L92.652,122.551L92.252,130.178ZM83.318,129.827L82.173,128.182C81.767,127.596 81.49,127.227 81.341,127.075C81.193,126.922 81.037,126.821 80.873,126.764C80.707,126.711 80.449,126.686 80.093,126.692L79.783,126.698L79.837,129.887L78.294,129.913L78.162,122.276L81.408,122.219C82.224,122.206 82.818,122.264 83.189,122.395C83.562,122.526 83.863,122.764 84.091,123.11C84.32,123.458 84.437,123.856 84.445,124.307C84.455,124.881 84.294,125.358 83.964,125.739C83.636,126.116 83.134,126.36 82.466,126.467C82.804,126.657 83.082,126.866 83.304,127.096C83.525,127.325 83.824,127.733 84.203,128.319L85.162,129.793L83.318,129.827ZM76.177,128.305C76.128,128.69 76.003,129.02 75.802,129.299C75.603,129.579 75.322,129.811 74.962,129.999C74.603,130.184 74.119,130.303 73.517,130.356C72.791,130.42 72.232,130.385 71.841,130.249C71.453,130.114 71.138,129.922 70.896,129.674C70.654,129.424 70.486,129.157 70.392,128.868C70.253,128.44 70.146,127.801 70.072,126.95L69.716,122.891L71.253,122.756L71.613,126.877C71.671,127.532 71.728,127.956 71.781,128.145C71.875,128.452 72.054,128.686 72.316,128.852C72.582,129.02 72.927,129.084 73.357,129.047C73.793,129.01 74.115,128.891 74.32,128.694C74.527,128.497 74.64,128.266 74.662,128.002C74.685,127.739 74.668,127.307 74.615,126.704L74.248,122.495L75.783,122.36L76.132,126.358C76.212,127.272 76.228,127.92 76.177,128.305ZM67.91,129.879C67.343,130.663 66.503,131.131 65.394,131.288C64.269,131.446 63.326,131.227 62.566,130.637C61.804,130.043 61.341,129.143 61.171,127.94C61.064,127.17 61.087,126.506 61.244,125.952C61.363,125.543 61.548,125.163 61.802,124.815C62.058,124.469 62.351,124.196 62.685,123.999C63.128,123.731 63.658,123.555 64.273,123.469C65.388,123.313 66.328,123.534 67.095,124.131C67.861,124.727 68.332,125.641 68.503,126.874C68.675,128.094 68.476,129.096 67.91,129.879ZM59.816,130.739C59.746,131.204 59.543,131.602 59.201,131.934C58.861,132.27 58.375,132.491 57.742,132.602C57,132.733 56.392,132.627 55.918,132.282C55.445,131.936 55.134,131.362 54.992,130.559L56.394,130.143C56.486,130.569 56.603,130.864 56.744,131.022C56.957,131.264 57.23,131.354 57.564,131.295C57.904,131.235 58.127,131.096 58.232,130.877C58.337,130.661 58.337,130.247 58.23,129.637L57.373,124.78L58.888,124.512L59.728,129.274C59.837,129.895 59.865,130.385 59.816,130.739ZM115.756,123.708L115.957,123.76L116.037,123.471L115.828,123.415L116.174,122.042C116.174,122.042 78.318,111.583 45.853,122.981L46.189,124.2L46.05,124.252L46.164,124.536L46.164,124.534L46.269,124.493L49.947,137.891C49.947,136.518 89.248,130.149 112.189,137.891L115.756,123.708ZM115.705,127.905L112.916,138.618L104.232,139.883C104.232,139.883 115.627,140.641 125.83,145.272L121.092,136.551L130.5,133.256C128.11,131.301 116.281,127.831 115.705,127.905ZM54.574,140.418L54.503,140.411L49.382,139.663L46.597,128.954C46.017,128.879 34.189,132.354 31.796,134.305L41.207,137.6L36.466,146.321C46.671,141.692 58.068,140.93 58.068,140.93L54.574,140.42L54.574,140.418ZM121.451,97.483L121.451,94.144L106.824,94.144L106.824,113.875L121.828,113.875L121.828,110.549L110.807,110.549L110.807,105.178L120.711,105.178L120.711,101.856L110.807,101.856L110.807,97.483L121.451,97.483ZM120.246,119.692L142.986,119.692L142.986,118.428L120.246,118.428L120.246,119.692ZM80.943,113.875L80.943,94.144L74.966,94.144L71.429,107.604L67.851,94.144L61.888,94.144L61.888,113.875L65.585,113.875L65.585,98.343L69.492,113.875L73.328,113.875L77.246,98.343L77.246,113.875L80.943,113.875ZM103.385,113.875L103.385,94.144L97.408,94.144L93.871,107.604L90.291,94.144L84.328,94.144L84.328,113.875L88.027,113.875L88.027,98.343L91.931,113.875L95.767,113.875L99.685,98.343L99.685,113.875L103.385,113.875ZM34.763,110.043C34.115,110.59 33.146,110.86 31.865,110.86C30.652,110.86 29.691,110.553 28.98,109.946C28.263,109.336 27.791,108.379 27.56,107.075L23.683,107.458C23.939,109.663 24.74,111.344 26.076,112.497C27.414,113.649 29.33,114.223 31.824,114.223C33.537,114.223 34.97,113.985 36.119,113.502C37.267,113.024 38.154,112.29 38.783,111.301C39.412,110.319 39.726,109.258 39.726,108.127C39.726,106.883 39.462,105.834 38.939,104.985C38.412,104.135 37.685,103.469 36.757,102.977C35.83,102.491 34.396,102.018 32.457,101.557C30.519,101.104 29.296,100.663 28.796,100.239C28.4,99.909 28.203,99.509 28.203,99.042C28.203,98.53 28.414,98.122 28.837,97.819C29.49,97.341 30.4,97.106 31.556,97.106C32.677,97.106 33.519,97.327 34.08,97.772C34.64,98.214 35.007,98.944 35.177,99.96L39.16,99.786C39.095,97.972 38.439,96.522 37.189,95.435C35.935,94.351 34.074,93.808 31.593,93.808C30.078,93.808 28.787,94.038 27.712,94.493C26.642,94.952 25.818,95.618 25.25,96.491C24.679,97.368 24.394,98.306 24.394,99.311C24.394,100.874 25.002,102.196 26.214,103.28C27.074,104.053 28.57,104.706 30.707,105.233C32.365,105.647 33.431,105.932 33.896,106.096C34.58,106.336 35.058,106.622 35.328,106.952C35.605,107.278 35.742,107.672 35.742,108.141C35.742,108.868 35.416,109.5 34.763,110.043ZM42.531,94.144L42.531,104.668C42.531,106.877 42.66,108.545 42.921,109.676C43.099,110.438 43.472,111.168 44.037,111.862C44.603,112.557 45.369,113.122 46.343,113.557C47.318,113.995 48.746,114.209 50.63,114.209C52.191,114.209 53.46,114.012 54.429,113.612C55.394,113.213 56.169,112.676 56.75,112.004C57.328,111.331 57.722,110.506 57.939,109.528C58.154,108.549 58.259,106.877 58.259,104.508L58.259,94.144L54.277,94.144L54.277,105.059C54.277,106.622 54.222,107.737 54.103,108.413C53.988,109.083 53.644,109.653 53.07,110.112C52.496,110.577 51.64,110.805 50.509,110.805C49.398,110.805 48.521,110.563 47.878,110.071C47.24,109.584 46.83,108.936 46.66,108.127C46.564,107.627 46.513,106.524 46.513,104.829L46.513,94.144L42.531,94.144ZM136.33,101.411C136.059,101.805 135.686,102.086 135.213,102.247C134.734,102.409 133.541,102.487 131.631,102.487L128.686,102.487L128.686,97.483L131.791,97.483C133.408,97.483 134.377,97.507 134.699,97.548C135.346,97.657 135.848,97.915 136.201,98.325C136.555,98.733 136.734,99.267 136.734,99.933C136.734,100.524 136.596,101.016 136.33,101.411ZM140.836,99.675C140.836,98.509 140.551,97.474 139.977,96.565C139.402,95.659 138.635,95.03 137.68,94.677C136.725,94.323 135.195,94.144 133.086,94.144L124.697,94.144L124.697,113.875L128.686,113.875L128.686,105.637L129.488,105.637C130.408,105.637 131.074,105.711 131.496,105.858C131.92,106.01 132.318,106.28 132.695,106.68C133.072,107.081 133.771,108.045 134.795,109.579L137.676,113.875L142.439,113.875L140.027,110.024C139.076,108.491 138.324,107.424 137.762,106.823C137.203,106.221 136.49,105.67 135.627,105.165C137.359,104.917 138.664,104.305 139.531,103.344C140.4,102.381 140.836,101.155 140.836,99.675ZM21.164,88.345L21.164,89.604L143.967,89.604L143.967,88.345L21.164,88.345ZM80.443,63.103L80.949,63.792C82.224,67.024 84.988,71.036 84.986,71.036C85.73,72.249 86.521,73.161 87.308,73.847L80.285,77.071L80.443,63.103ZM88.064,74.444C88.498,74.753 88.927,75.001 89.332,75.196L89.865,75.915L86.853,77.284C86.853,77.284 86.8,77.354 86.759,77.45C85.521,77.435 84.259,77.427 82.945,77.433C82.48,77.435 82.035,77.44 81.578,77.444L88.064,74.444ZM97.732,70.394L96.462,70.624L96.408,70.612C95.449,69.704 91.759,65.72 90.56,61.417C90.435,60.96 90.306,60.544 90.171,60.169L97.732,70.394ZM99.265,74.52C99.681,74.413 100.061,74.237 100.404,74.011L102.307,76.583L97.658,77.864C96.267,77.77 94.806,77.69 93.283,77.626L93.302,75.772C95.324,75.362 99.267,74.52 99.265,74.52ZM103.15,70.071L104.227,69.88C104.105,70.001 103.432,73.778 103.096,75.692L101.293,73.261C102.33,72.171 102.922,70.724 103.15,70.071ZM99.955,78.036L102.787,77.235L103.639,78.384C102.473,78.257 101.24,78.142 99.955,78.036ZM92.455,77.472L91.228,75.811C91.794,75.915 92.232,75.921 92.472,75.913L92.455,77.472ZM88.5,77.476L90.375,76.61L91.06,77.542C90.224,77.517 89.373,77.493 88.5,77.476ZM37.437,82.778L125.047,83.983C125.047,83.983 120.662,80.446 105.232,78.569L103.914,76.792L104.971,69.743C105.578,69.013 104.654,69.142 104.654,69.142L98.996,70.165L88.275,55.72C87.447,55.364 87.232,56.192 87.232,56.192L87.519,56.579L77.779,57.585L77.33,56.979C76.505,56.622 76.289,57.45 76.289,57.45L79.627,61.989L79.451,77.456L79.427,77.466C75.035,77.532 71.052,77.685 67.441,77.899L83.332,39.446L83.257,39.433C83.687,38.987 84.408,38.36 84.82,38.569C85.441,38.886 84.443,40.81 84.443,40.81C84.443,40.81 85,41.561 85.386,41.686C85.775,41.811 98.818,48.354 99.742,49.019C100.664,49.681 102.633,50.032 102.633,50.032L103.225,50.026L102.262,51.194C102.262,51.194 103.559,52.952 103.85,53.192C104.141,53.433 105.434,54.007 105.434,54.007C105.434,54.007 106.379,53.22 106.086,52.386C105.789,51.556 100.996,39.653 96.806,36.884C92.617,34.112 89.988,33.612 88.47,31.77C88.47,31.77 84.812,31.206 81.656,29.681C81.656,29.681 75.029,26.661 63.57,31.038L61.947,32.054L59.863,33.274L59.636,34.854L63.25,34.991L63.775,33.761C63.775,33.761 68.134,35.493 70.238,36.149C72.343,36.808 79.207,39.431 80.031,39.618C80.365,39.694 80.896,39.743 81.416,39.778L65.615,78.013C45.007,79.399 37.437,82.778 37.437,82.778ZM46.474,118.428L20.183,118.428L20.183,119.692L46.474,119.692L46.474,118.428Z" style="fill:white;fill-rule:nonzero;"/>
        </g>
    </g>
</svg>
