<?xml version="1.0" encoding="UTF-8" standalone="no"?>
<!DOCTYPE svg PUBLIC "-//W3C//DTD SVG 1.1//EN" "http://www.w3.org/Graphics/SVG/1.1/DTD/svg11.dtd">
<svg width="100%" height="100%" viewBox="0 0 263 210" version="1.1" xmlns="http://www.w3.org/2000/svg" xmlns:xlink="http://www.w3.org/1999/xlink" xml:space="preserve" xmlns:serif="http://www.serif.com/" style="fill-rule:evenodd;clip-rule:evenodd;stroke-linejoin:round;stroke-miterlimit:1.41421;">
    <g transform="matrix(1,0,0,1,-517.438,-584.188)">
        <g transform="matrix(2,0,0,2,-32.0422,-29.2899)">
            <path d="M302.374,347.477L275.473,331.59L274.74,332.829L301.642,348.715L302.374,347.477ZM298.671,351.801L275.824,343.52L275.334,344.875L298.179,353.157L298.671,351.801ZM304.825,343.415L289.565,332.176L288.713,333.334L303.972,344.573L304.825,343.415ZM382.065,351.803L382.558,353.157L405.403,344.875L404.911,343.522L382.065,351.803ZM379.093,348.715L405.995,332.829L405.265,331.588L378.362,347.477L379.093,348.715ZM376.763,344.573L392.024,333.336L391.169,332.176L375.907,343.413L376.763,344.573ZM293.884,399.821C293.761,399.86 293.626,399.803 293.583,399.696C293.538,399.59 293.601,399.471 293.724,399.432C293.847,399.393 293.981,399.45 294.026,399.557C294.069,399.665 294.007,399.782 293.884,399.821ZM292.864,400.096C292.741,400.135 292.606,400.079 292.563,399.971C292.519,399.864 292.583,399.747 292.704,399.708C292.825,399.668 292.962,399.723 293.005,399.831C293.048,399.938 292.985,400.057 292.864,400.096ZM291.843,400.37C291.722,400.409 291.587,400.354 291.542,400.247C291.499,400.139 291.562,400.02 291.683,399.981C291.806,399.942 291.94,399.999 291.985,400.106C292.028,400.213 291.966,400.331 291.843,400.37ZM290.823,400.645C290.7,400.684 290.567,400.627 290.522,400.52C290.478,400.413 290.542,400.293 290.663,400.256C290.786,400.217 290.921,400.274 290.964,400.379C291.009,400.487 290.946,400.606 290.823,400.645ZM289.804,400.918C289.681,400.958 289.546,400.903 289.503,400.793C289.458,400.688 289.522,400.569 289.644,400.53C289.765,400.491 289.901,400.547 289.944,400.655C289.989,400.762 289.925,400.879 289.804,400.918ZM289.854,406.415C289.929,406.508 289.901,406.637 289.794,406.702C289.688,406.768 289.542,406.745 289.468,406.651C289.395,406.557 289.422,406.428 289.526,406.362C289.634,406.297 289.78,406.321 289.854,406.415ZM290.091,407.161C290.196,407.094 290.345,407.118 290.419,407.211C290.493,407.305 290.466,407.434 290.358,407.499C290.251,407.565 290.106,407.542 290.03,407.448C289.958,407.354 289.983,407.225 290.091,407.161ZM290.608,407.918C290.716,407.852 290.862,407.875 290.937,407.969C291.011,408.063 290.985,408.192 290.878,408.256C290.771,408.323 290.624,408.299 290.55,408.206C290.476,408.11 290.503,407.983 290.608,407.918ZM289.232,405.907C289.125,405.971 288.979,405.948 288.904,405.854C288.83,405.76 288.857,405.631 288.965,405.567C289.07,405.502 289.217,405.524 289.291,405.62C289.365,405.713 289.338,405.84 289.232,405.907ZM288.482,401.069C288.439,400.961 288.502,400.842 288.623,400.803C288.746,400.766 288.881,400.821 288.926,400.928C288.969,401.036 288.906,401.155 288.783,401.194C288.662,401.233 288.527,401.176 288.482,401.069ZM288.668,405.11C288.561,405.174 288.414,405.153 288.34,405.057C288.266,404.963 288.293,404.834 288.4,404.77C288.508,404.706 288.654,404.727 288.727,404.823C288.801,404.917 288.773,405.045 288.668,405.11ZM288.104,404.313C287.998,404.377 287.852,404.356 287.777,404.26C287.703,404.168 287.729,404.04 287.836,403.973C287.943,403.909 288.088,403.932 288.164,404.026C288.236,404.12 288.211,404.249 288.104,404.313ZM287.541,403.518C287.434,403.583 287.287,403.559 287.213,403.465C287.139,403.372 287.164,403.243 287.271,403.178C287.379,403.112 287.525,403.135 287.6,403.229C287.672,403.323 287.646,403.452 287.541,403.518ZM287.641,401.167C287.762,401.127 287.896,401.182 287.941,401.29C287.984,401.397 287.922,401.516 287.799,401.555C287.678,401.594 287.543,401.538 287.498,401.43C287.455,401.323 287.518,401.206 287.641,401.167ZM286.891,402.774C286.783,402.838 286.637,402.815 286.563,402.721C286.488,402.627 286.516,402.499 286.623,402.434C286.729,402.368 286.875,402.391 286.949,402.485C287.023,402.581 286.996,402.709 286.891,402.774ZM285.824,401.469C285.824,401.2 286.07,400.983 286.377,400.983C286.682,400.983 286.928,401.2 286.928,401.469C286.928,401.737 286.682,401.954 286.377,401.954C286.07,401.954 285.824,401.737 285.824,401.469ZM285.787,402.573C285.711,402.665 285.563,402.682 285.459,402.614C285.355,402.545 285.334,402.417 285.412,402.325C285.49,402.233 285.637,402.215 285.742,402.284C285.846,402.352 285.865,402.481 285.787,402.573ZM285.107,403.295C285.029,403.385 284.881,403.405 284.777,403.336C284.674,403.268 284.652,403.139 284.73,403.047C284.809,402.956 284.955,402.936 285.061,403.004C285.164,403.075 285.186,403.204 285.107,403.295ZM284.434,400.901C284.477,400.793 284.613,400.739 284.734,400.776C284.855,400.815 284.92,400.934 284.875,401.042C284.832,401.149 284.697,401.206 284.574,401.167C284.453,401.127 284.389,401.008 284.434,400.901ZM284.51,404.073C284.432,404.163 284.283,404.182 284.182,404.114C284.076,404.045 284.055,403.915 284.133,403.823C284.211,403.733 284.357,403.713 284.463,403.782C284.566,403.85 284.588,403.981 284.51,404.073ZM283.912,404.85C283.834,404.942 283.688,404.959 283.584,404.891C283.479,404.823 283.457,404.692 283.535,404.602C283.613,404.51 283.762,404.491 283.865,404.561C283.969,404.629 283.99,404.758 283.912,404.85ZM283.449,400.54C283.492,400.432 283.629,400.375 283.75,400.415C283.871,400.454 283.936,400.573 283.891,400.68C283.848,400.788 283.713,400.842 283.59,400.803C283.469,400.764 283.404,400.647 283.449,400.54ZM283.314,405.627C283.238,405.717 283.09,405.737 282.986,405.668C282.881,405.6 282.861,405.471 282.939,405.379C283.018,405.288 283.164,405.27 283.268,405.336C283.371,405.405 283.393,405.536 283.314,405.627ZM282.57,400.53C282.447,400.491 282.385,400.372 282.428,400.264C282.473,400.159 282.607,400.102 282.73,400.141C282.852,400.18 282.916,400.297 282.871,400.405C282.826,400.512 282.693,400.569 282.57,400.53ZM281.551,400.256C281.428,400.217 281.365,400.098 281.408,399.991C281.453,399.883 281.588,399.829 281.711,399.866C281.832,399.905 281.895,400.024 281.852,400.131C281.807,400.239 281.672,400.293 281.551,400.256ZM280.529,399.981C280.408,399.942 280.344,399.825 280.389,399.715C280.432,399.61 280.568,399.553 280.689,399.592C280.813,399.631 280.875,399.75 280.832,399.856C280.787,399.963 280.652,400.02 280.529,399.981ZM279.51,399.708C279.389,399.668 279.324,399.549 279.369,399.442C279.412,399.334 279.547,399.278 279.67,399.317C279.793,399.356 279.855,399.475 279.811,399.583C279.768,399.69 279.633,399.747 279.51,399.708ZM278.49,399.432C278.367,399.393 278.305,399.276 278.348,399.168C278.393,399.059 278.527,399.004 278.65,399.043C278.771,399.083 278.836,399.2 278.791,399.307C278.748,399.415 278.611,399.471 278.49,399.432ZM286.559,400.217C286.559,400.333 286.453,400.426 286.322,400.426C286.193,400.426 286.088,400.333 286.088,400.217C286.088,400.104 286.193,400.012 286.322,400.012C286.453,400.012 286.559,400.104 286.559,400.217ZM286.271,399.075C286.4,399.075 286.506,399.168 286.506,399.282C286.506,399.395 286.4,399.489 286.271,399.489C286.141,399.489 286.035,399.395 286.035,399.282C286.035,399.168 286.141,399.075 286.271,399.075ZM286.322,398.137C286.453,398.137 286.559,398.231 286.559,398.344C286.559,398.459 286.453,398.551 286.322,398.551C286.193,398.551 286.088,398.459 286.088,398.344C286.088,398.231 286.193,398.137 286.322,398.137ZM286.375,397.202C286.506,397.202 286.611,397.293 286.611,397.407C286.611,397.522 286.506,397.614 286.375,397.614C286.246,397.614 286.141,397.522 286.141,397.407C286.141,397.293 286.246,397.202 286.375,397.202ZM286.428,396.262C286.559,396.262 286.664,396.356 286.664,396.469C286.664,396.584 286.559,396.678 286.428,396.678C286.299,396.678 286.193,396.584 286.193,396.469C286.193,396.356 286.299,396.262 286.428,396.262ZM286.48,395.327C286.611,395.327 286.717,395.418 286.717,395.534C286.717,395.647 286.611,395.741 286.48,395.741C286.352,395.741 286.246,395.647 286.246,395.534C286.246,395.418 286.352,395.327 286.48,395.327ZM286.533,394.389C286.664,394.389 286.77,394.481 286.77,394.596C286.77,394.711 286.664,394.803 286.533,394.803C286.404,394.803 286.299,394.711 286.299,394.596C286.299,394.481 286.404,394.389 286.533,394.389ZM282.719,406.405C282.641,406.497 282.492,406.514 282.389,406.446C282.285,406.377 282.264,406.247 282.342,406.155C282.42,406.065 282.566,406.047 282.672,406.116C282.773,406.182 282.797,406.313 282.719,406.405ZM282.121,407.182C282.043,407.274 281.895,407.292 281.791,407.223C281.688,407.155 281.666,407.026 281.744,406.934C281.822,406.842 281.969,406.823 282.074,406.891C282.178,406.961 282.199,407.09 282.121,407.182ZM281.57,407.922C281.492,408.014 281.344,408.032 281.24,407.963C281.137,407.895 281.115,407.766 281.193,407.674C281.271,407.583 281.418,407.565 281.523,407.633C281.627,407.702 281.648,407.831 281.57,407.922ZM293.757,398.733C292.624,398.875 290.247,399.458 288.875,399.35C287.502,399.245 287.846,397.202 287.846,397.202C287.814,396.047 287.891,393.827 286.773,393.583C285.658,393.34 285.227,396.305 284.902,397.749C284.582,399.192 284.381,399.182 283.85,399.354C283.32,399.528 281.746,398.92 281.746,398.92C280.02,398.366 277.758,397.708 277.426,398.834C277.092,399.965 279.33,400.489 281.627,401.6C283.922,402.713 282.398,403.887 281.486,405.372C280.572,406.854 279.902,407.887 280.625,408.391C281.344,408.897 282.188,408.44 283.926,406.395C285.666,404.35 286.811,405.258 286.811,405.258C288.705,407.333 290.405,409.432 291.304,409.075C292.2,408.713 291.522,406.52 290.147,404.696C288.773,402.87 290.612,401.936 292.448,401.213C294.284,400.489 295.489,399.809 295.315,399.237C295.142,398.663 294.89,398.588 293.757,398.733ZM404.325,402.53C404.229,402.573 403.884,402.813 403.396,403.194L403.222,402.782L403.329,402.645C403.812,402.186 404.2,401.866 404.407,401.793C404.407,401.793 404.683,402.377 404.325,402.53ZM404.306,403.522C404.2,403.606 403.851,403.831 403.37,404.153C403.415,403.928 403.28,403.733 403.226,403.665C403.7,403.297 404.108,403.042 404.38,402.979C404.38,402.979 404.696,403.211 404.306,403.522ZM402.919,401.401C403.36,400.885 403.747,400.502 404.024,400.344C404.024,400.344 404.399,401.159 404.173,401.282C403.724,401.526 403.478,402.03 403.239,402.293L403.149,401.872L402.919,401.401ZM399.925,406.702C399.237,407.401 398.757,407.917 398.757,407.917C399.042,407.532 399.452,407.118 399.925,406.702C400.815,405.801 402.05,404.598 403.048,403.801C403.065,403.926 403.093,404.125 403.118,404.321C402.196,404.94 400.925,405.825 399.925,406.702ZM400.319,409.149C399.978,409.12 399.829,409.116 399.638,409.112C399.454,409.106 398.675,408.938 398.595,408.92L398.54,408.936L398.587,408.918L400.319,408.209L400.118,408.62L399.907,408.499L399.37,408.678L398.601,408.918L400.005,408.907C400.175,408.973 400.661,409.176 400.319,409.149ZM398.103,408.905L400.138,407.797L400.196,408.012L399.876,408.006L399.636,408.192L398.103,408.905ZM401.976,400.485C402.079,400.612 402.353,400.915 402.476,401.065C401.054,403.221 398.794,406.516 397.851,408.28C397.851,408.28 400.28,403.268 401.976,400.485ZM401.19,399.52C401.304,399.639 401.55,399.879 401.634,399.969C400.212,403.03 397.563,408.241 397.563,408.241C397.563,408.241 399.776,402.698 401.19,399.52ZM397.345,407.981C397.345,407.981 399.114,401.786 400.177,398.346L400.202,398.354L400.835,398.899C399.659,402.264 397.345,407.981 397.345,407.981ZM398.569,397.647C398.565,397.319 399.36,397.821 399.478,397.936C398.726,401.282 397.073,408.198 397.073,408.198C397.073,408.198 397.897,401.383 398.569,397.647ZM396.729,408.233L396.856,397.276L396.825,396.901L397.952,396.969L397.868,397.278C397.616,401.114 396.729,408.233 396.729,408.233ZM397.862,394.94C397.968,394.932 397.927,395.415 397.882,396.336L396.979,396.315L396.95,394.932C396.95,394.932 397.349,394.971 397.862,394.94ZM399.288,395.299L399.841,395.399C399.884,395.399 399.981,395.862 399.847,396.159C399.823,396.208 399.733,396.584 399.597,397.176C399.454,397.155 398.911,396.788 398.911,396.788L398.907,396.786C399.079,395.897 399.216,395.325 399.288,395.299ZM400.946,396.108C401.173,396.049 401.665,396.471 401.628,396.663C401.62,396.708 401.253,397.243 400.894,398.274L400.583,398.02L400.474,397.678L400.401,397.633C400.69,396.715 400.897,396.12 400.946,396.108ZM402.298,397.356C402.673,397.385 402.673,397.786 402.636,397.913C402.628,397.944 402.341,398.495 401.909,399.426L401.644,399.264L401.491,398.852C401.89,397.989 402.175,397.346 402.298,397.356ZM398.108,408.254C398.29,407.846 398.554,407.36 399.079,406.655C400.03,405.215 401.556,403.061 402.665,401.706C402.683,401.881 402.845,402.436 402.88,402.616C401.829,403.797 400.265,405.307 399.243,406.676C398.579,407.682 398.108,408.254 398.108,408.254ZM399.831,406.387C400.731,405.366 401.938,404.026 402.909,403.055L402.997,403.51C402.097,404.237 400.888,405.286 399.831,406.387C399.073,407.245 398.532,407.879 398.532,407.879C398.907,407.387 399.354,406.881 399.831,406.387ZM403.292,398.725C403.292,398.725 404.009,398.747 403.669,399.053C403.497,399.209 403.233,399.803 402.647,400.684L402.476,400.477L402.259,400.03C402.69,399.356 403.054,398.875 403.292,398.725ZM395.194,396.917L395.62,396.883L396.134,396.809L396.196,396.792C396.335,400.559 396.427,408.354 396.427,408.354C396.427,408.354 395.456,400.573 395.194,396.917ZM393.729,396.973L393.78,396.971C394.196,396.981 394.517,396.776 394.532,396.733C395.142,400.286 396.087,408.303 396.087,408.303C396.087,408.303 394.39,400.34 393.729,396.973ZM392.366,397.793L392.394,397.793L393.181,397.438C394.204,400.745 395.872,408.383 395.872,408.383C395.872,408.383 393.384,400.87 392.366,397.793ZM391.024,398.762L391.212,398.625L391.81,398.358C393.132,401.385 395.45,408.077 395.45,408.077C395.45,408.077 392.192,401.241 391.024,398.762ZM394.356,408.172L393.483,407.735C393.483,407.735 392.728,407.522 393.12,407.506C393.513,407.493 395.278,408.586 395.278,408.586L394.356,408.172ZM393.878,408.702C393.78,408.7 393.534,408.643 393.437,408.643C393.339,408.641 393.269,408.565 393.415,408.52C393.56,408.475 394.753,408.776 394.896,408.797C394.792,408.786 393.968,408.704 393.878,408.702ZM388.981,402.752C388.978,402.651 389.161,402.184 389.177,401.967C391.169,403.477 394.394,407.625 394.394,407.625C394.394,407.625 389.853,403.422 388.981,402.752ZM389.288,400.852L389.612,400.356C391.048,401.793 393.362,405.493 394.288,407.018C394.53,407.366 394.731,407.715 394.772,407.846C394.772,407.846 394.528,407.59 394.251,407.133C393.192,405.606 390.655,402.776 389.454,401.45C389.462,401.442 389.024,401.129 389.288,400.852ZM389.712,398.286L389.946,398.379C390.009,398.432 390.081,398.512 390.159,398.61L390.308,398.913L389.681,399.555C389.55,399.372 389.476,399.135 389.45,399.1C389.282,398.881 389.712,398.286 389.712,398.286ZM390.556,399.17C392.114,401.575 395.151,408.112 395.151,408.112C395.151,408.112 392.7,403.776 392.239,403.176C391.825,402.635 390.702,401.006 389.901,399.874L390.556,399.17ZM390.702,397.071C390.829,397.075 391.001,396.993 391.001,396.993C391.099,397.063 391.261,397.342 391.466,397.772L391.493,398.03L391.103,398.235C391.103,398.235 391.071,397.721 390.812,397.842L390.788,397.854C390.739,397.76 390.706,397.698 390.688,397.67C390.399,397.235 390.573,397.069 390.702,397.071ZM393.95,395.137C393.981,395.137 394.071,395.573 394.198,396.282L393.663,396.499L393.638,396.493C393.532,395.94 393.47,395.583 393.472,395.51C393.483,395.042 393.778,395.133 393.95,395.137ZM396.052,394.799C396.093,394.799 396.132,395.311 396.169,396.129L396.149,396.127L395.29,396.35L395.269,396.145C395.216,395.375 395.077,395 395.087,394.946C395.136,394.649 395.837,394.795 396.052,394.799ZM404.608,401.831C404.927,400.985 404.337,400.67 404.337,400.67L404.263,400.2C404.712,399.184 403.446,398.428 403.446,398.428C403.464,397.704 402.786,397.43 402.786,397.43C402.71,397.045 402.454,397.04 402.454,397.04C402.388,396.139 401.405,396.118 401.405,396.118C401.243,395.772 400.983,395.938 400.983,395.938C400.696,395.418 400.095,395.491 400.056,395.362C400.017,395.233 399.292,395.129 399.292,395.129C398.712,394.346 398.019,394.758 398.019,394.758C397.978,394.629 397.466,394.618 397.466,394.618C396.667,394.086 395.929,394.499 395.929,394.499L395.374,394.571C394.694,394.34 393.915,394.836 393.915,394.836L393.524,395.042C392.579,395.278 392.312,395.827 392.312,395.827L391.997,395.973C392.079,395.971 392.187,395.995 392.308,395.997C392.368,395.999 392.815,396.436 393.019,397.067L392.362,397.323L392.153,397.106L392.136,397.102C392.042,396.817 391.978,396.622 391.952,396.543C391.854,396.245 391.841,396.098 391.88,396.03C391.239,395.973 390.839,396.69 390.839,396.69C390.833,396.903 390.487,397.067 390.487,397.067C389.716,397.221 389.61,398.073 389.61,398.073C389.265,398.237 389.296,398.792 389.296,398.792C388.815,399.209 388.804,399.762 388.804,399.762L389.366,400.211L389.116,400.569L388.96,400.766L388.665,400.633C388.497,400.606 388.677,400.206 388.718,400.022C388.653,400.131 388.579,400.229 388.579,400.229C388.048,401.028 388.423,401.506 388.423,401.506C388.563,401.565 388.747,401.731 388.917,401.842C388.944,402.278 388.81,402.545 388.81,402.545L388.794,402.631C388.542,402.424 388.53,401.866 388.474,401.711C388.468,401.86 388.409,402.02 388.409,402.02C388.597,403.219 389.226,403.706 389.226,403.706C389.329,404.86 391.022,405.54 391.022,405.54C391.37,405.723 391.872,406.086 392.411,406.5C392.413,406.612 392.444,406.825 392.626,406.944C392.878,407.11 392.626,406.944 392.616,407.329C392.608,407.713 392.804,407.557 392.728,408.069C392.651,408.579 392.786,408.358 392.714,408.645C392.644,408.93 392.804,408.934 392.995,409.002C393.187,409.071 393.442,409.045 393.921,409.088C394.401,409.131 394.374,408.938 394.728,408.946C394.956,408.952 395.423,408.92 395.716,408.899C396.151,409.127 396.409,409.208 396.409,409.208C396.409,409.208 396.493,409.209 396.751,409.217C396.87,409.219 397.106,409.139 397.394,408.999L398.116,409.247C398.116,409.247 398.714,409.303 398.927,409.393C399.138,409.485 399.776,409.584 400.417,409.598C401.058,409.614 400.554,409.217 400.562,408.833C400.571,408.448 400.749,408.153 400.503,407.633C400.259,407.118 400.995,406.665 400.995,406.665L401.169,406.583C401.169,406.583 401.079,406.563 400.958,406.549C401.231,406.36 401.438,406.217 401.521,406.163C401.825,405.956 402.644,405.59 403.118,405.387C403.595,405.184 403.687,404.887 403.954,404.336C404.224,403.788 404.522,403.836 404.622,403.198C404.722,402.561 404.714,402.858 404.714,402.858C404.806,402.563 404.601,402.258 404.601,402.258L404.608,401.831ZM388.718,400.022C388.774,399.928 388.821,399.823 388.804,399.762C388.804,399.762 388.753,399.883 388.718,400.022ZM388.474,401.711L388.423,401.506C388.423,401.506 388.427,401.588 388.474,401.711ZM368.2,392.424L359.874,392.424C359.669,392.424 359.521,392.551 359.521,392.727L359.521,411.321C359.521,411.499 359.669,411.624 359.874,411.624L368.2,411.624C368.376,411.624 368.554,411.499 368.554,411.321L368.554,409.249C368.554,409.073 368.376,408.946 368.2,408.946L363.005,408.946C362.798,408.946 362.649,408.821 362.649,408.643L362.649,402.276C362.649,402.125 362.798,401.973 363.005,401.973L366.931,401.973C367.108,401.973 367.284,401.848 367.284,401.67L367.284,399.598C367.284,399.448 367.108,399.295 366.931,399.295L363.005,399.295C362.798,399.295 362.649,399.17 362.649,398.993L362.649,395.405C362.649,395.229 362.798,395.102 363.005,395.102L368.2,395.102C368.376,395.102 368.554,394.975 368.554,394.799L368.554,392.727C368.554,392.551 368.376,392.424 368.2,392.424ZM379.325,400.432C379.325,400.61 379.208,400.836 379.06,400.963L378.44,401.493C378.292,401.62 378.026,401.696 377.849,401.696L375.312,401.696C375.134,401.696 374.956,401.569 374.956,401.393L374.956,395.379C374.956,395.229 375.134,395.077 375.312,395.077L377.849,395.077C378.026,395.077 378.292,395.178 378.44,395.303L379.06,395.834C379.208,395.936 379.325,396.188 379.325,396.34L379.325,400.432ZM381.274,402.858L382.188,402.075C382.337,401.948 382.454,401.721 382.454,401.543L382.454,395.229C382.454,395.077 382.337,394.85 382.188,394.723L379.739,392.625C379.591,392.5 379.325,392.399 379.118,392.399L372.181,392.399C371.976,392.399 371.827,392.526 371.827,392.702L371.827,411.321C371.856,411.499 372.005,411.624 372.212,411.624L374.632,411.624C374.81,411.624 374.985,411.473 374.985,411.321L374.985,404.676C374.956,404.526 375.134,404.399 375.312,404.399L377.761,404.399C377.968,404.399 378.146,404.526 378.175,404.676L379.532,411.321C379.562,411.499 379.739,411.624 379.944,411.624L382.425,411.624C382.603,411.624 382.749,411.499 382.72,411.321L381.097,403.364C381.038,403.211 381.126,402.985 381.274,402.858ZM340.015,392.475L337.505,392.475C337.329,392.475 337.122,392.6 337.063,392.778L334.405,400.686C334.347,400.862 334.259,400.862 334.2,400.686L331.603,392.778C331.542,392.6 331.337,392.475 331.13,392.475L328.649,392.475C328.472,392.475 328.29,392.625 328.29,392.778L328.29,411.321C328.29,411.499 328.472,411.624 328.649,411.624L331.069,411.624C331.276,411.624 331.425,411.499 331.425,411.321L331.425,402.377C331.425,402.227 331.454,402.202 331.513,402.377L333.255,407.608C333.313,407.758 333.491,407.885 333.696,407.885L334.878,407.885C335.085,407.885 335.263,407.758 335.321,407.608L337.151,402.227C337.181,402.049 337.239,402.075 337.239,402.227L337.239,411.321C337.239,411.499 337.388,411.624 337.595,411.624L340.015,411.624C340.192,411.624 340.368,411.499 340.368,411.321L340.368,392.778C340.368,392.625 340.192,392.475 340.015,392.475ZM355.599,392.475L353.089,392.475C352.911,392.475 352.704,392.6 352.646,392.778L349.989,400.686C349.931,400.862 349.841,400.862 349.782,400.686L347.185,392.778C347.126,392.6 346.919,392.475 346.712,392.475L344.233,392.475C344.056,392.475 343.874,392.625 343.874,392.778L343.874,411.321C343.874,411.499 344.056,411.624 344.233,411.624L346.653,411.624C346.86,411.624 347.007,411.499 347.007,411.321L347.007,402.377C347.007,402.227 347.038,402.202 347.097,402.377L348.839,407.608C348.897,407.758 349.073,407.885 349.28,407.885L350.462,407.885C350.669,407.885 350.845,407.758 350.903,407.608L352.735,402.227C352.765,402.049 352.823,402.075 352.823,402.227L352.823,411.321C352.823,411.499 352.97,411.624 353.177,411.624L355.599,411.624C355.774,411.624 355.952,411.499 355.952,411.321L355.952,392.778C355.952,392.625 355.774,392.475 355.599,392.475ZM308.554,392.625C308.405,392.5 308.14,392.399 307.933,392.399L303.948,392.399C303.771,392.399 303.505,392.5 303.356,392.625L300.907,394.723C300.759,394.85 300.642,395.077 300.642,395.229L300.642,400.104C300.642,400.282 300.759,400.508 300.878,400.635L303.356,402.731C303.476,402.858 303.771,402.959 303.948,402.959L306.634,402.959C306.841,402.959 307.106,403.036 307.224,403.161L307.874,403.692C308.022,403.819 308.11,404.045 308.11,404.223L308.11,407.684C308.11,407.86 308.022,408.088 307.874,408.213L307.255,408.745C307.106,408.846 306.841,408.946 306.634,408.946L305.247,408.946C305.069,408.946 304.804,408.846 304.657,408.745L304.036,408.213C303.89,408.088 303.771,407.86 303.771,407.684L303.771,405.561C303.771,405.385 303.624,405.258 303.417,405.258L300.995,405.258C300.819,405.258 300.642,405.385 300.642,405.561L300.642,408.795C300.642,408.946 300.759,409.2 300.907,409.299L303.356,411.422C303.505,411.524 303.771,411.624 303.948,411.624L307.933,411.624C308.14,411.624 308.405,411.524 308.554,411.422L311.003,409.299C311.12,409.2 311.239,408.946 311.239,408.795L311.239,403.11C311.239,402.934 311.12,402.706 311.003,402.581L308.522,400.483C308.405,400.381 308.11,400.282 307.933,400.282L305.247,400.282C305.04,400.282 304.774,400.18 304.657,400.053L304.007,399.524C303.89,399.422 303.771,399.17 303.771,399.018L303.771,396.34C303.771,396.188 303.89,395.936 304.036,395.834L304.657,395.28C304.804,395.178 305.069,395.077 305.247,395.077L306.634,395.077C306.841,395.077 307.106,395.178 307.255,395.28L307.874,395.834C308.022,395.936 308.11,396.188 308.11,396.34L308.11,397.856C308.11,398.032 308.288,398.159 308.464,398.159L310.886,398.159C311.091,398.159 311.239,398.032 311.239,397.856L311.239,395.229C311.239,395.077 311.12,394.85 311.003,394.723L308.554,392.625ZM324.726,392.399L322.306,392.399C322.128,392.399 321.952,392.526 321.952,392.702L321.952,407.684C321.952,407.86 321.862,408.088 321.716,408.213L321.097,408.745C320.948,408.846 320.683,408.946 320.476,408.946L319.118,408.946C318.911,408.946 318.646,408.846 318.497,408.745L317.878,408.213C317.761,408.088 317.642,407.86 317.642,407.684L317.642,392.702C317.642,392.526 317.464,392.399 317.288,392.399L314.866,392.399C314.661,392.399 314.513,392.526 314.513,392.702L314.513,408.795C314.513,408.971 314.63,409.2 314.749,409.325L317.198,411.422C317.347,411.524 317.612,411.624 317.819,411.624L321.774,411.624C321.981,411.624 322.247,411.524 322.394,411.422L324.845,409.325C324.962,409.2 325.081,408.971 325.081,408.795L325.081,392.702C325.081,392.526 324.933,392.399 324.726,392.399ZM364.753,383.803L405.214,383.803L405.214,383.178L364.753,383.178L364.753,383.803ZM364.753,358.86L405.214,358.86L405.214,358.235L364.753,358.235L364.753,358.86ZM367.21,366.68C367.21,366.581 367.263,366.508 367.335,366.508L368.22,366.508L368.427,366.624L368.655,366.926C368.698,366.999 368.739,367.127 368.739,367.229L368.739,369.551C368.739,369.651 368.698,369.782 368.655,369.854L368.427,370.157L368.22,370.272L367.335,370.272C367.263,370.272 367.21,370.2 367.21,370.098L367.21,366.68ZM367.085,375.954C367.159,375.954 367.21,375.881 367.21,375.782L367.21,371.973L367.335,371.801L368.677,371.801L368.886,371.684L369.747,370.489C369.8,370.417 369.841,370.286 369.841,370.186L369.841,366.594C369.841,366.493 369.8,366.364 369.747,366.292L368.886,365.094L368.677,364.979L366.233,364.979C366.159,364.979 366.108,365.051 366.108,365.153L366.108,375.782C366.118,375.881 366.171,375.954 366.243,375.954L367.085,375.954ZM373.144,368.641C373.165,368.542 373.185,368.542 373.206,368.641L373.862,372.377L373.769,372.551L372.593,372.551C372.53,372.551 372.489,372.479 372.499,372.377L373.144,368.641ZM371.761,375.954C371.833,375.954 371.907,375.881 371.917,375.782L372.177,374.266L372.333,374.108L374.038,374.108L374.194,374.266L374.454,375.782C374.476,375.881 374.538,375.954 374.61,375.954L375.515,375.954C375.589,375.954 375.63,375.881 375.608,375.782L373.737,365.137L373.591,364.979L372.749,364.979L372.593,365.137L370.763,375.782C370.751,375.881 370.794,375.954 370.866,375.954L371.761,375.954ZM401.901,366.522L403.733,366.522C403.796,366.522 403.858,366.45 403.858,366.348L403.858,365.167C403.858,365.065 403.796,364.993 403.733,364.993L400.8,364.993C400.728,364.993 400.675,365.065 400.675,365.167L400.675,375.782C400.675,375.881 400.728,375.954 400.8,375.954L403.733,375.954C403.796,375.954 403.858,375.881 403.858,375.782L403.858,374.598C403.858,374.497 403.796,374.424 403.733,374.424L401.901,374.424C401.829,374.424 401.778,374.352 401.778,374.252L401.778,370.618L401.901,370.446L403.286,370.446C403.349,370.446 403.411,370.374 403.411,370.272L403.411,369.088L403.286,368.917L401.901,368.917C401.829,368.917 401.778,368.844 401.778,368.743L401.778,366.696C401.778,366.594 401.829,366.522 401.901,366.522ZM392.718,374.424L391.845,374.424L391.72,374.598L391.72,375.782C391.72,375.881 391.772,375.954 391.845,375.954L394.976,375.954C395.038,375.954 395.101,375.881 395.101,375.782L395.101,374.598L394.976,374.424L394.069,374.424C394.009,374.424 393.946,374.352 393.946,374.252L393.946,366.709C393.946,366.608 394.009,366.536 394.069,366.536L394.976,366.536L395.101,366.364L395.101,365.18C395.101,365.081 395.038,365.008 394.976,365.008L391.845,365.008C391.772,365.008 391.72,365.081 391.72,365.18L391.72,366.364L391.845,366.536L392.718,366.536C392.792,366.536 392.843,366.608 392.843,366.709L392.843,374.252C392.843,374.352 392.792,374.424 392.718,374.424ZM388.054,366.68C388.054,366.581 388.116,366.508 388.179,366.508L389.073,366.508L389.28,366.624L389.499,366.926C389.552,366.999 389.593,367.127 389.593,367.229L389.593,373.704L389.499,373.993L389.28,374.295L389.073,374.424L388.179,374.424L388.054,374.252L388.054,366.68ZM389.53,375.954L389.737,375.825L390.601,374.627L390.694,374.338L390.694,366.594C390.694,366.493 390.653,366.364 390.601,366.292L389.737,365.094L389.53,364.979L387.075,364.979C387.003,364.979 386.952,365.051 386.952,365.153L386.952,375.782C386.952,375.881 387.003,375.954 387.075,375.954L389.53,375.954ZM383.669,368.641C383.69,368.542 383.712,368.542 383.731,368.641L384.388,372.377L384.294,372.551L383.118,372.551C383.056,372.551 383.015,372.479 383.024,372.377L383.669,368.641ZM382.286,375.954C382.358,375.954 382.433,375.881 382.442,375.782L382.702,374.266L382.858,374.108L384.563,374.108L384.72,374.266L384.979,375.782C385.001,375.881 385.063,375.954 385.136,375.954L386.04,375.954C386.112,375.954 386.155,375.881 386.134,375.782L384.263,365.137L384.116,364.979L383.274,364.979L383.118,365.137L381.288,375.782C381.276,375.881 381.319,375.954 381.392,375.954L382.286,375.954ZM396.894,372.319L396.042,372.319C395.979,372.319 395.917,372.391 395.917,372.493L395.917,374.338L396.011,374.627L396.874,375.838L397.081,375.954L398.485,375.954L398.704,375.838L399.567,374.627L399.649,374.338L399.649,371.094C399.649,370.993 399.608,370.864 399.567,370.792L398.694,369.594L398.485,369.479L397.54,369.479L397.331,369.348L397.103,369.045L397.019,368.758L397.019,367.229L397.112,366.94L397.331,366.624L397.54,366.508L398.028,366.508L398.247,366.624L398.464,366.94L398.548,367.229L398.548,368.094C398.548,368.196 398.61,368.268 398.673,368.268L399.526,368.268C399.599,368.268 399.649,368.196 399.649,368.094L399.649,366.594L399.567,366.305L398.704,365.11L398.485,364.979L397.081,364.979L396.874,365.11L396.011,366.305L395.917,366.594L395.917,369.377C395.917,369.479 395.958,369.608 395.999,369.68L396.874,370.877L397.081,371.006L398.028,371.006L398.235,371.124L398.464,371.426C398.517,371.499 398.548,371.627 398.548,371.729L398.548,373.704C398.548,373.805 398.517,373.934 398.464,374.006L398.247,374.309L398.028,374.424L397.54,374.424L397.331,374.309L397.112,374.006C397.062,373.934 397.019,373.805 397.019,373.704L397.019,372.493C397.019,372.391 396.968,372.319 396.894,372.319ZM379.067,369.565C379.067,369.667 379.026,369.795 378.974,369.868L378.755,370.17L378.548,370.286L377.653,370.286C377.591,370.286 377.528,370.213 377.528,370.114L377.528,366.68L377.653,366.508L378.548,366.508L378.755,366.637L378.974,366.94L379.067,367.229L379.067,369.565ZM380.075,370.502C380.128,370.43 380.169,370.301 380.169,370.2L380.169,366.594L380.075,366.305L379.212,365.11L378.993,364.979L376.55,364.979C376.478,364.979 376.425,365.051 376.425,365.153L376.425,375.782C376.437,375.881 376.487,375.954 376.56,375.954L377.413,375.954L377.538,375.782L377.538,371.989L377.653,371.829L378.517,371.829L378.661,371.989L379.14,375.782C379.149,375.881 379.212,375.954 379.286,375.954L380.159,375.954C380.222,375.954 380.272,375.881 380.263,375.782L379.69,371.239L379.753,370.95L380.075,370.502ZM278.178,383.803L318.64,383.803L318.64,383.178L278.178,383.178L278.178,383.803ZM318.64,358.235L278.178,358.235L278.178,358.86L318.64,358.86L318.64,358.235ZM299.835,374.424L298.962,374.424L298.837,374.598L298.837,375.782C298.837,375.881 298.89,375.954 298.962,375.954L302.093,375.954C302.155,375.954 302.218,375.881 302.218,375.782L302.218,374.598L302.093,374.424L301.187,374.424C301.126,374.424 301.063,374.352 301.063,374.252L301.063,366.709C301.063,366.608 301.126,366.536 301.187,366.536L302.093,366.536L302.218,366.364L302.218,365.18C302.218,365.081 302.155,365.008 302.093,365.008L298.962,365.008C298.89,365.008 298.837,365.081 298.837,365.18L298.837,366.364L298.962,366.536L299.835,366.536C299.909,366.536 299.96,366.608 299.96,366.709L299.96,374.252C299.96,374.352 299.909,374.424 299.835,374.424ZM281.354,375.954L282.145,375.954C282.217,375.954 282.27,375.881 282.27,375.782L282.27,366.594C282.27,366.493 282.322,366.42 282.395,366.42L283.414,366.42L283.539,366.249L283.539,365.137L283.414,364.979L280.086,364.979L279.961,365.137L279.961,366.249L280.086,366.42L281.104,366.42C281.168,366.42 281.229,366.493 281.229,366.594L281.229,375.782C281.229,375.881 281.281,375.954 281.354,375.954ZM287.205,369.565C287.205,369.667 287.162,369.795 287.111,369.868L286.893,370.17L286.684,370.286L285.791,370.286C285.729,370.286 285.666,370.213 285.666,370.114L285.666,366.68L285.791,366.508L286.684,366.508L286.893,366.637L287.111,366.94L287.205,367.229L287.205,369.565ZM288.213,370.502C288.266,370.43 288.307,370.301 288.307,370.2L288.307,366.594L288.213,366.305L287.35,365.11L287.131,364.979L284.688,364.979C284.615,364.979 284.563,365.051 284.563,365.153L284.563,375.782C284.574,375.881 284.625,375.954 284.697,375.954L285.551,375.954L285.676,375.782L285.676,371.989L285.791,371.829L286.652,371.829L286.799,371.989L287.277,375.782C287.287,375.881 287.35,375.954 287.424,375.954L288.297,375.954C288.359,375.954 288.41,375.881 288.4,375.782L287.828,371.239L287.891,370.95L288.213,370.502ZM314.433,365.008L313.581,365.008C313.507,365.008 313.456,365.081 313.456,365.18L313.456,375.782C313.456,375.881 313.507,375.954 313.581,375.954L316.731,375.954C316.804,375.954 316.856,375.881 316.856,375.782L316.856,374.598L316.731,374.424L314.683,374.424C314.61,374.424 314.558,374.352 314.558,374.252L314.558,365.18C314.558,365.081 314.495,365.008 314.433,365.008ZM305.79,368.268L306.642,368.268L306.767,368.094L306.767,366.594C306.767,366.493 306.726,366.364 306.675,366.305L305.812,365.094L305.603,364.979L304.198,364.979L303.991,365.094L303.116,366.305C303.075,366.364 303.034,366.493 303.034,366.594L303.034,374.338L303.116,374.627L303.991,375.838L304.198,375.954L305.603,375.954L305.812,375.838L306.675,374.627L306.767,374.338L306.767,372.838C306.767,372.739 306.716,372.667 306.642,372.667L305.79,372.667C305.728,372.667 305.665,372.739 305.665,372.838L305.665,373.704C305.665,373.805 305.624,373.934 305.581,373.993L305.353,374.309L305.146,374.424L304.657,374.424L304.448,374.309L304.22,373.993C304.179,373.934 304.136,373.805 304.136,373.704L304.136,367.229C304.136,367.127 304.179,366.999 304.22,366.926L304.448,366.624L304.657,366.508L305.146,366.508L305.353,366.624L305.581,366.926C305.624,366.999 305.665,367.127 305.665,367.229L305.665,368.094L305.79,368.268ZM295.284,366.68C295.284,366.581 295.337,366.508 295.409,366.508L296.294,366.508L296.501,366.624L296.731,366.926C296.772,366.999 296.813,367.127 296.813,367.229L296.813,369.551C296.813,369.651 296.772,369.782 296.731,369.854L296.501,370.157L296.294,370.272L295.409,370.272C295.337,370.272 295.284,370.2 295.284,370.098L295.284,366.68ZM295.161,375.954C295.233,375.954 295.284,375.881 295.284,375.782L295.284,371.973L295.409,371.801L296.751,371.801L296.96,371.684L297.823,370.489C297.874,370.417 297.917,370.286 297.917,370.186L297.917,366.594C297.917,366.493 297.874,366.364 297.823,366.292L296.96,365.094L296.751,364.979L294.308,364.979C294.235,364.979 294.183,365.051 294.183,365.153L294.183,375.782C294.192,375.881 294.245,375.954 294.317,375.954L295.161,375.954ZM290.526,367.243C290.526,367.143 290.567,367.012 290.61,366.94L290.839,366.637L291.048,366.508L291.536,366.508L291.753,366.637L291.972,366.94C292.024,367.012 292.065,367.143 292.065,367.243L292.065,373.704L291.972,373.993L291.753,374.309L291.536,374.424L291.048,374.424L290.839,374.309L290.61,373.993L290.526,373.704L290.526,367.243ZM290.589,375.954L291.993,375.954L292.2,375.838L293.075,374.627L293.157,374.338L293.157,366.608C293.157,366.508 293.116,366.377 293.075,366.305L292.2,365.11L291.993,364.993L290.589,364.993L290.382,365.11L289.507,366.305C289.466,366.377 289.426,366.508 289.426,366.608L289.426,374.338L289.507,374.627L290.382,375.838L290.589,375.954ZM310.175,368.641C310.194,368.542 310.216,368.542 310.235,368.641L310.892,372.377L310.798,372.551L309.622,372.551C309.56,372.551 309.519,372.479 309.528,372.377L310.175,368.641ZM308.79,375.954C308.864,375.954 308.937,375.881 308.946,375.782L309.206,374.266L309.362,374.108L311.067,374.108L311.224,374.266L311.483,375.782C311.505,375.881 311.567,375.954 311.64,375.954L312.544,375.954C312.618,375.954 312.659,375.881 312.64,375.782L310.767,365.137L310.62,364.979L309.778,364.979L309.622,365.137L307.792,375.782C307.78,375.881 307.823,375.954 307.896,375.954L308.79,375.954ZM333.028,359.506L335.614,355.856L332.333,359.209C332.333,359.209 329.442,360.811 325.579,359.292C330.509,353.959 336.103,351.618 336.103,351.618C336.339,351.586 336.571,351.612 336.802,351.583L337.562,353.559C336.567,353.862 335.97,354.237 335.981,354.627C336.011,355.473 338.901,356.067 342.444,355.952C345.987,355.838 348.835,355.057 348.806,354.209C348.796,353.838 348.228,353.514 347.298,353.28L348.075,351.534L356.466,356.846L357.983,357.856C356.931,358.946 354.718,360.602 350.772,359.135L347.827,356.243L350.155,359.299C348.679,360.282 342.71,363.518 333.028,359.506ZM347.073,351.526L346.56,353.124C345.425,352.926 343.952,352.833 342.345,352.885C341.54,352.911 340.774,352.973 340.065,353.061L339.353,351.243C343.065,351.02 345.864,351.389 347.073,351.526ZM359.251,358.631L359.253,358.629L359.224,358.573L359.14,358.411C358.786,357.743 358.544,357.372 358.544,357.372C355.94,355.206 352.78,353.03 348.259,350.917L349.765,347.217L349.997,347.323L350.327,346.612L352.12,347.475L352.181,348.487L352.737,348.454L352.694,347.756L355.831,349.362L356.267,350.254L356.769,350.01L356.767,350.01L356.583,349.633L360.267,350.84L352.64,341.252C352.757,340.891 352.897,340.497 353.03,340.26C353.317,339.739 352.731,339.084 352.183,339.178C351.849,339.237 351.499,340.028 351.278,340.641L339.026,340.875L338.935,341.415L341.114,342.227L340.56,342.307L340.64,342.86L342.173,342.633L345.659,344.35L344.933,344.784L345.216,345.262L346.259,344.645L349.265,346.098L348.94,346.842L349.087,346.909L347.581,350.608C347.448,350.547 347.319,350.487 347.181,350.426C344.888,350.448 341.896,350.262 339.206,350.417L336.095,340.864L327.985,335.09L327.792,335.311L326.235,337.083L333.804,342.188L336.62,350.717C336.038,350.829 335.489,350.969 334.999,351.155C331.843,352.34 324.54,358.684 324.54,358.684L324.483,358.79C324.364,359.008 324.247,359.227 324.134,359.442L324.136,359.442C319.212,368.942 321.892,376.643 325.491,381.782L325.497,381.79C327.981,385.333 330.897,387.653 332.056,388.499L332.062,388.502L332.185,388.592L332.196,388.598L332.298,388.674L332.31,388.682L332.394,388.741L332.407,388.749L332.47,388.792L332.481,388.801L332.524,388.831L332.538,388.838L332.558,388.852L332.569,388.86C332.798,388.93 333.024,388.995 333.249,389.059L333.255,389.061C342.272,391.586 349.899,388.911 349.899,388.911C367.151,377.588 361.468,362.958 359.251,358.631ZM341.212,326.526C341.3,326.633 341.526,326.747 341.665,326.75L344.776,326.86C344.915,326.866 345.149,326.768 345.245,326.667L347.235,324.524C347.354,324.422 347.456,324.163 347.462,324.004L347.558,321.27C347.563,321.084 347.452,320.95 347.292,320.944L345.401,320.877C345.263,320.874 345.12,321 345.114,321.184L345.06,322.762C345.052,322.946 344.952,323.18 344.856,323.282L344.329,323.842C344.233,323.944 344.022,324.042 343.86,324.036L342.776,323.999C342.616,323.993 342.411,323.881 342.323,323.772L341.837,323.176C341.749,323.067 341.665,322.827 341.671,322.643L342.083,310.836C342.089,310.653 342.19,310.418 342.286,310.292L342.813,309.756C342.909,309.655 343.12,309.555 343.282,309.561L344.364,309.6C344.526,309.604 344.729,309.717 344.817,309.827L345.306,310.395C345.394,310.53 345.478,310.77 345.472,310.956L345.417,312.534C345.411,312.688 345.544,312.852 345.681,312.856L347.571,312.922C347.733,312.928 347.854,312.774 347.86,312.618L347.954,309.883C347.962,309.698 347.878,309.459 347.765,309.35L345.931,307.073C345.841,306.965 345.614,306.852 345.476,306.846L342.364,306.739C342.226,306.733 341.991,306.831 341.896,306.932L339.884,309.075C339.786,309.176 339.687,309.409 339.681,309.594L339.187,323.715C339.183,323.874 339.265,324.139 339.353,324.249L341.212,326.526ZM353.903,323.514L355.749,311.872C355.776,311.69 355.905,311.471 356.017,311.356L356.604,310.889C356.716,310.774 356.96,310.706 357.097,310.727L358.167,310.897C358.327,310.922 358.515,311.059 358.608,311.206L359.001,311.829C359.095,311.975 359.147,312.223 359.118,312.407L357.274,324.049C357.251,324.206 357.118,324.45 356.987,324.536L356.419,325.032C356.288,325.118 356.067,325.19 355.907,325.165L354.837,324.995C354.7,324.973 354.489,324.833 354.415,324.715L354.003,324.063C353.929,323.946 353.88,323.67 353.903,323.514ZM352.976,327.311C353.05,327.43 353.261,327.571 353.397,327.592L356.474,328.079C356.632,328.104 356.854,328.032 356.962,327.944L359.222,326.063C359.329,325.973 359.462,325.727 359.485,325.571L361.692,311.641C361.722,311.459 361.667,311.211 361.597,311.067L360.024,308.606C359.954,308.461 359.763,308.352 359.603,308.327L356.526,307.838C356.39,307.817 356.149,307.86 356.038,307.975L353.784,309.829C353.671,309.944 353.544,310.165 353.515,310.346L351.308,324.276C351.284,324.432 351.333,324.708 351.407,324.825L352.976,327.311ZM328.335,327.69L335.296,327.081C335.458,327.067 335.562,326.926 335.544,326.743L335.356,324.592C335.343,324.436 335.214,324.288 335.054,324.301L330.526,324.698C330.366,324.711 330.239,324.59 330.224,324.407L328.782,307.918C328.765,307.735 328.616,307.616 328.478,307.629L326.595,307.793C326.433,307.807 326.329,307.948 326.347,308.131L328.032,327.399C328.048,327.583 328.175,327.704 328.335,327.69ZM375.276,333.077L381.349,335.407C381.478,335.458 381.653,335.383 381.72,335.211L382.493,333.198C382.56,333.026 382.478,332.852 382.349,332.803L378.558,331.348C378.407,331.29 378.347,331.125 378.413,330.954L380.79,324.762C380.847,324.616 381.011,324.51 381.161,324.567L384.024,325.667C384.153,325.717 384.331,325.643 384.397,325.471L385.171,323.456C385.226,323.309 385.153,323.112 385.024,323.063L382.161,321.963C382.011,321.905 381.95,321.741 382.017,321.569L383.354,318.081C383.421,317.909 383.575,317.827 383.728,317.885L387.517,319.338C387.646,319.389 387.821,319.315 387.888,319.143L388.661,317.129C388.728,316.958 388.646,316.786 388.517,316.735L382.444,314.405C382.294,314.346 382.14,314.428 382.073,314.6L375.132,332.682C375.065,332.854 375.126,333.02 375.276,333.077ZM318.019,330.284L324.356,328.821C324.491,328.79 324.597,328.629 324.554,328.45L324.069,326.348C324.028,326.168 323.862,326.071 323.729,326.102L319.772,327.016C319.616,327.051 319.474,326.95 319.433,326.77L317.94,320.309C317.905,320.155 317.981,319.975 318.14,319.938L321.128,319.249C321.263,319.217 321.368,319.057 321.327,318.877L320.841,316.776C320.806,316.622 320.636,316.499 320.501,316.53L317.513,317.221C317.354,317.256 317.212,317.155 317.171,316.975L316.331,313.333C316.29,313.155 316.372,313 316.528,312.963L320.483,312.053C320.618,312.022 320.724,311.862 320.683,311.682L320.198,309.581C320.155,309.401 319.991,309.303 319.856,309.334L313.521,310.797C313.362,310.833 313.28,310.987 313.321,311.167L317.679,330.038C317.72,330.217 317.862,330.321 318.019,330.284ZM303.812,335.616C303.905,335.776 304.083,335.844 304.231,335.782L306.185,334.952C306.312,334.897 306.409,334.713 306.358,334.536L303.493,323.887C303.442,323.708 303.483,323.69 303.577,323.85L309.267,333.299C309.36,333.461 309.54,333.528 309.688,333.465L311.642,332.635C311.79,332.573 311.866,332.397 311.815,332.219L307.007,313.161C306.966,313.006 306.829,312.92 306.681,312.985L304.919,313.733C304.771,313.795 304.694,313.971 304.735,314.125L307.644,325.698C307.685,325.852 307.642,325.872 307.56,325.735L301.425,315.53C301.341,315.395 301.247,315.292 301.226,315.299C301.204,315.309 301.077,315.364 300.95,315.417L299.251,316.139C299.103,316.202 298.976,316.254 298.954,316.264C298.933,316.274 298.964,316.403 299.003,316.557L302.081,328.059C302.122,328.213 302.079,328.231 301.997,328.096L295.692,317.963C295.608,317.827 295.409,317.77 295.28,317.823L293.495,318.583C293.347,318.645 293.312,318.801 293.396,318.938L303.812,335.616ZM362.831,329.098L364.64,329.651C364.794,329.698 364.942,329.606 364.995,329.428L367.72,320.52C367.767,320.37 367.796,320.35 367.786,320.54L367.495,326.147C367.493,326.313 367.587,326.479 367.741,326.526L368.624,326.795C368.776,326.842 368.948,326.756 369.038,326.62L372.044,321.676C372.12,321.508 372.157,321.547 372.11,321.698L369.341,330.756C369.286,330.934 369.358,331.094 369.513,331.141L371.321,331.694C371.454,331.733 371.624,331.649 371.679,331.473L377.327,313C377.372,312.848 377.286,312.659 377.153,312.62L375.278,312.045C375.147,312.004 374.954,312.084 374.856,312.247L370.462,319.514C370.364,319.678 370.298,319.657 370.308,319.467L370.776,310.999C370.786,310.809 370.671,310.637 370.515,310.59L368.663,310.022C368.53,309.983 368.349,310.092 368.302,310.243L362.655,328.713C362.601,328.889 362.698,329.057 362.831,329.098Z" style="fill:white;fill-rule:nonzero;"/>
        </g>
    </g>
</svg>
