<?xml version="1.0" encoding="UTF-8" standalone="no"?>
<!DOCTYPE svg PUBLIC "-//W3C//DTD SVG 1.1//EN" "http://www.w3.org/Graphics/SVG/1.1/DTD/svg11.dtd">
<svg width="100%" height="100%" viewBox="0 0 2132 1200" version="1.1" xmlns="http://www.w3.org/2000/svg" xmlns:xlink="http://www.w3.org/1999/xlink" xml:space="preserve" xmlns:serif="http://www.serif.com/" style="fill-rule:evenodd;clip-rule:evenodd;stroke-linejoin:round;stroke-miterlimit:1.41421;">
    <g transform="matrix(1,0,0,1,-1389.11,-7223.24)">
        <g transform="matrix(4.16667,0,0,4.16667,0,0)">
            <g transform="matrix(1,0,0,1,-49.1612,1043.62)">
                <path d="M460.307,758.657L421.428,763.23L382.548,767.803L405.635,790.002L382.548,819.316L421.428,814.261L460.935,809.257L460.307,783.932L460.307,758.657Z" style="fill:rgb(212,102,60);fill-rule:nonzero;"/>
            </g>
        </g>
        <g transform="matrix(4.16667,0,0,4.16667,0,0)">
            <g transform="matrix(1,0,0,1,-49.1612,1043.62)">
                <path d="M419.235,805.829L460.935,809.257L460.307,758.657L419.235,753.569L419.235,805.829Z" style="fill:rgb(163,69,35);fill-rule:nonzero;"/>
            </g>
        </g>
        <g transform="matrix(4.16667,0,0,4.16667,0,0)">
            <g transform="matrix(1,0,0,1,-49.1612,1043.62)">
                <path d="M701.374,780.773L740.254,776.2L779.133,771.627L756.047,749.428L779.133,720.114L740.254,725.168L701.374,730.223L701.374,780.773Z" style="fill:rgb(212,102,60);fill-rule:nonzero;"/>
            </g>
        </g>
        <g transform="matrix(4.16667,0,0,4.16667,0,0)">
            <g transform="matrix(1,0,0,1,-49.1612,1043.62)">
                <path d="M742.447,767.286L701.374,780.773L701.374,730.223L742.447,715.026L742.447,767.286Z" style="fill:rgb(163,69,35);fill-rule:nonzero;"/>
            </g>
        </g>
        <g transform="matrix(4.16667,0,0,4.16667,0,0)">
            <g transform="matrix(1,0,0,1,-49.1612,1043.62)">
                <path d="M581.076,977.373C572.75,977.373 564.758,974.791 557.966,969.908L460.189,907.132C450.902,900.453 445.347,889.554 445.347,877.987L450.582,743.64C450.583,728.968 459.167,715.987 472.453,710.552C504.985,697.243 542.546,690.208 581.076,690.208C619.606,690.208 657.168,697.243 689.7,710.552C702.985,715.987 711.57,728.968 711.57,743.624L716.805,878.002C716.805,889.553 711.25,900.453 701.946,907.144L604.203,969.896C597.394,974.791 589.402,977.373 581.076,977.373Z" style="fill:rgb(126,181,171);fill-rule:nonzero;"/>
            </g>
        </g>
        <g transform="matrix(4.16667,0,0,4.16667,0,0)">
            <g transform="matrix(1,0,0,1,-49.1612,1043.62)">
                <path d="M707.856,878.294C707.856,887.017 703.668,895.242 696.657,900.29L696.6,900.329L665.715,920.178L663.686,921.482L598.976,963.076C593.658,966.894 587.411,968.911 580.894,968.911C574.382,968.911 568.13,966.894 562.812,963.076L498.484,921.73L465.162,900.311L465.136,900.29C458.124,895.242 453.936,887.017 453.936,878.294L453.936,878.246L455.717,836.109L512.525,809.486L528.6,811.911L554.105,797.146L595.07,822.085L617.883,806.01L646.813,826.818L667.282,818.438L704.971,832.681L707.856,878.294Z" style="fill:rgb(121,133,120);fill-rule:nonzero;"/>
            </g>
        </g>
        <g transform="matrix(4.16667,0,0,4.16667,0,0)">
            <g transform="matrix(1,0,0,1,-49.1612,1043.62)">
                <path d="M666.844,823.805L649.112,833.872L642.498,844.406L638.978,843.467L637.756,836.564L631.274,845.525L626.664,840.173L628.078,833.04L615.846,818.801L617.95,811.297L617.941,811.289L595.926,827.06L597.787,837.2L579.391,824.666L567.816,833.79L550.245,838.795L558.781,822.909L548.658,823.283L554.05,803.302L553.99,803.262L529.625,821.618L514.911,822.291L513.96,817.144L455.228,836.815L513.544,811.053L528.738,813.638L553.711,799.02L595.284,823.42L617.978,807.161L646.264,828.079L667.423,819.605L702.264,833.02L666.844,823.805Z" style="fill:rgb(245,240,215);fill-rule:nonzero;"/>
            </g>
        </g>
        <g transform="matrix(4.16667,0,0,4.16667,0,0)">
            <g transform="matrix(1,0,0,1,-49.1612,1043.62)">
                <path d="M696.602,900.127L696.545,900.166L665.661,920.016L663.632,921.319L598.921,962.913C593.604,966.732 587.356,968.748 580.84,968.748C574.327,968.748 568.076,966.732 562.758,962.913L498.43,921.567L465.108,900.148L465.081,900.127C458.07,895.079 453.882,886.855 453.882,878.131L453.882,878.083L459.117,743.744C459.125,732.696 465.577,722.921 475.56,718.833C506.141,706.307 544.516,699.122 580.84,699.122C617.168,699.122 655.538,706.307 686.119,718.833C696.102,722.921 702.554,732.696 702.567,743.744L707.802,878.131C707.802,886.855 703.614,895.079 696.602,900.127ZM711.57,743.624C711.57,728.968 702.985,715.987 689.7,710.552C657.168,697.243 619.606,690.208 581.076,690.208C542.546,690.208 504.985,697.243 472.453,710.552C459.167,715.987 450.583,728.968 450.582,743.64L445.347,877.987C445.347,889.554 450.902,900.453 460.189,907.132L557.966,969.908C564.758,974.791 572.75,977.373 581.076,977.373C589.402,977.373 597.394,974.791 604.203,969.896L701.946,907.144C711.25,900.453 716.805,889.553 716.805,878.002L711.57,743.624Z" style="fill:rgb(232,207,174);fill-rule:nonzero;"/>
            </g>
        </g>
        <g transform="matrix(4.16667,0,0,4.16667,0,0)">
            <g transform="matrix(1,0,0,1,-49.1612,1043.62)">
                <path d="M698.957,903.342L601.198,966.106C595.215,970.407 588.173,972.679 580.84,972.679C577.173,972.679 573.58,972.11 570.157,971.007C566.733,969.899 563.475,968.256 560.486,966.106L462.727,903.342C454.681,897.555 449.876,888.132 449.876,878.131L452.83,802.268L455.068,744.938L455.111,743.77C455.111,731.097 462.527,719.875 473.996,715.183C506.428,701.916 545.849,695.19 580.84,695.19C598.335,695.19 616.942,696.871 635.224,700.212C653.509,703.553 671.469,708.549 687.683,715.183C688.843,715.657 689.959,716.195 691.028,716.8C700.577,722.156 706.568,732.374 706.568,743.77L707.663,771.879L711.803,878.131C711.803,888.132 707.003,897.555 698.957,903.342ZM712.807,771.266L711.734,743.77C711.734,732.805 706.868,722.608 698.805,715.874C696.085,713.593 693.001,711.708 689.616,710.326C656.416,696.746 618.628,689.955 580.84,689.955C543.051,689.955 505.268,696.746 472.067,710.326C458.656,715.813 449.95,729.103 449.95,743.77L449.88,745.555L447.647,802.885L444.715,878.131C444.715,889.848 450.315,900.835 459.738,907.612L557.497,970.377C564.487,975.403 572.663,977.919 580.84,977.919C589.016,977.919 597.192,975.403 604.182,970.377L701.941,907.612C711.369,900.835 716.969,889.848 716.969,878.131L712.807,771.266Z" style="fill:rgb(65,64,67);fill-rule:nonzero;"/>
            </g>
        </g>
        <g transform="matrix(4.16667,0,0,4.16667,0,0)">
            <g transform="matrix(1,0,0,1,-49.1612,1043.62)">
                <path d="M466.576,897.992L564.227,960.757L564.255,960.777C569.131,964.286 574.866,966.141 580.84,966.141C586.816,966.141 592.551,964.286 597.426,960.777L597.483,960.738L695.105,897.992C701.416,893.436 705.185,886.024 705.194,878.157L699.958,743.768C699.958,733.775 694.139,724.934 685.133,721.245C654.854,708.842 616.841,701.729 580.84,701.729C544.841,701.729 506.828,708.842 476.548,721.245C467.543,724.934 461.723,733.775 461.723,743.768L461.723,743.819L456.488,878.157C456.496,886.024 460.266,893.435 466.576,897.992ZM580.84,968.748C574.327,968.748 568.076,966.73 562.76,962.912L465.109,900.148L465.081,900.128C458.068,895.079 453.881,886.856 453.881,878.132L453.882,878.081L459.116,743.742C459.127,732.697 465.579,722.922 475.56,718.833C506.142,706.306 544.514,699.122 580.84,699.122C617.167,699.122 655.54,706.306 686.121,718.833C696.102,722.922 702.555,732.697 702.565,743.742L707.801,878.132C707.801,886.856 703.614,895.079 696.601,900.128L696.544,900.166L598.92,962.912C593.606,966.73 587.354,968.748 580.84,968.748Z" style="fill:rgb(65,64,67);fill-rule:nonzero;"/>
            </g>
        </g>
        <g transform="matrix(4.16667,0,0,4.16667,0,0)">
            <g transform="matrix(1,0,0,1,-49.1612,1043.62)">
                <path d="M567.614,942.478C567.614,942.478 571.071,943.75 574.981,943.606C571.433,943.968 567.614,943.443 567.614,943.443L567.614,942.478Z" style="fill:white;fill-rule:nonzero;"/>
            </g>
        </g>
        <g transform="matrix(4.16667,0,0,4.16667,0,0)">
            <g transform="matrix(1,0,0,1,-49.1612,1043.62)">
                <path d="M538.253,713.046C538.223,712.798 538.05,712.661 537.801,712.69C535.907,712.917 534.419,715.236 533.316,717.604C535.542,716.457 538.413,714.381 538.253,713.046ZM544.895,730.429C543.932,730.544 543.192,730.411 542.461,729.837C540.825,732.489 538.964,734.318 536.169,734.651C532.598,735.077 530.73,732.623 530.277,728.834C529.959,726.163 530.305,722.467 531.12,719.787C530.509,719.955 529.954,720.053 529.333,720.127C525.917,720.534 523.422,719.162 523.085,716.336C522.896,714.752 523.422,713.619 524.352,712.437C524.462,712.297 524.609,712.217 524.765,712.198C524.951,712.176 525.114,712.22 525.288,712.356C525.427,712.466 525.507,712.614 525.526,712.769C525.548,712.956 525.504,713.118 525.395,713.257C524.602,714.265 524.252,715.031 524.389,716.181C524.638,718.261 526.693,719.119 529.178,718.822C530.016,718.722 530.812,718.533 531.633,718.277C532.893,714.851 534.943,711.708 537.863,711.36C538.764,711.253 539.437,711.613 539.544,712.514C539.856,715.123 535.749,718.196 532.67,719.319C531.613,722.343 531.245,725.852 531.582,728.678C531.945,731.722 533.187,733.684 536.013,733.347C538.436,733.058 540.368,731.032 541.544,728.75C541.134,727.948 540.954,726.709 541.165,725.834C541.225,725.543 541.447,725.296 541.758,725.259C542.193,725.207 542.524,725.609 542.479,726.024C542.423,726.345 542.429,726.66 542.431,726.943C544.007,723.258 544.961,718.577 544.52,714.881C544.194,712.148 543.1,710.105 540.646,710.398C540.149,710.457 539.66,710.579 538.995,710.816C538.513,710.999 538.131,710.698 538.09,710.356C538.049,710.015 538.233,709.709 538.533,709.579C539.194,709.311 539.807,709.175 540.366,709.108C543.814,708.697 545.406,711.216 545.828,714.757C546.332,718.98 545.097,724.735 543.077,728.661C543.54,729.11 544.149,729.195 544.646,729.136C546.199,728.95 547.057,727.43 547.8,724.948C547.864,724.688 548.094,724.503 548.342,724.473C548.746,724.425 549.205,724.843 549.074,725.331C548.164,728.527 546.82,730.199 544.895,730.429Z" style="fill:rgb(245,240,215);fill-rule:nonzero;"/>
            </g>
        </g>
        <g transform="matrix(4.16667,0,0,4.16667,0,0)">
            <g transform="matrix(1,0,0,1,-49.1612,1043.62)">
                <path d="M561.561,723.496C561.573,723.59 561.553,723.686 561.533,723.783C560.066,728.652 558.739,730.732 556.659,730.98C555.292,731.143 554.509,730.386 554.159,729.041C553.41,730.422 552.093,731.525 550.695,731.691L550.665,731.695C548.708,731.929 547.55,730.933 547.298,728.821C547.112,727.268 547.639,725.347 549.698,717.258C549.761,716.998 549.991,716.813 550.24,716.783C550.768,716.72 551.072,717.157 550.964,717.579C548.718,726.73 548.454,727.423 548.602,728.665C548.754,729.938 549.422,730.52 550.54,730.387C551.813,730.235 552.961,729.027 553.733,726.793C554.561,724.489 555.317,721.06 556.406,716.457C556.47,716.198 556.7,716.013 556.948,715.983C557.445,715.924 557.811,716.353 557.704,716.775C557.236,718.658 556.846,720.405 556.528,721.703C555.729,725.043 555.315,727.643 555.415,728.482C555.523,729.383 555.851,729.753 556.503,729.675C557.994,729.498 558.994,727.583 560.289,723.396C560.353,723.137 560.583,722.952 560.832,722.922C560.924,722.911 561.022,722.931 561.118,722.951C561.35,723.049 561.532,723.248 561.561,723.496Z" style="fill:rgb(245,240,215);fill-rule:nonzero;"/>
            </g>
        </g>
        <g transform="matrix(4.16667,0,0,4.16667,0,0)">
            <g transform="matrix(1,0,0,1,-49.1612,1043.62)">
                <path d="M568.014,722.727C568.025,722.82 568.005,722.917 567.986,723.014C566.647,727.111 565.223,729.959 562.366,730.3C560.875,730.478 559.934,729.456 559.756,727.965C559.619,726.816 560.073,724.021 560.763,721.356L561.818,716.726L559.861,716.959C559.488,717.004 559.175,716.758 559.131,716.385C559.09,716.043 559.333,715.699 559.705,715.655L562.097,715.37C562.144,715.238 563.143,710.677 563.159,710.549C563.219,710.258 563.449,710.074 563.729,710.04C564.195,709.985 564.561,710.414 564.453,710.836C564.524,710.639 563.641,714.587 563.494,715.203L565.575,714.955C565.948,714.91 566.264,715.187 566.305,715.529C566.35,715.902 566.103,716.214 565.731,716.259L563.184,716.563C563.068,717.175 562.711,718.667 562.03,721.677C561.187,725.432 560.953,726.909 561.061,727.809C561.161,728.648 561.589,729.069 562.21,728.995C564.447,728.728 565.63,725.973 566.708,722.6C566.806,722.367 567.036,722.182 567.285,722.153C567.378,722.142 567.474,722.162 567.571,722.182C567.803,722.28 567.985,722.479 568.014,722.727Z" style="fill:rgb(245,240,215);fill-rule:nonzero;"/>
            </g>
        </g>
        <g transform="matrix(4.16667,0,0,4.16667,0,0)">
            <g transform="matrix(1,0,0,1,-49.1612,1043.62)">
                <path d="M573.957,719.656C574.159,718.971 574.302,718.324 574.46,717.801C574.48,717.704 574.472,717.642 574.465,717.58C574.232,716.159 573.418,715.405 572.207,715.55C569.361,715.984 567.514,722.945 567.818,726.027C567.982,727.394 568.369,728.261 569.3,728.15C571.816,727.85 573.092,722.972 573.957,719.656ZM581.378,721.133C581.389,721.227 581.369,721.323 581.349,721.42C580.011,725.518 578.587,728.365 575.73,728.706C574.27,728.88 573.313,727.986 573.105,726.247C572.204,727.929 571.071,729.262 569.487,729.45C567.748,729.658 566.762,728.264 566.54,726.4C566.055,722.332 568.293,714.694 572.051,714.245C573.449,714.079 574.424,714.592 575.035,715.496L575.433,713.81L576.512,708.862C576.575,708.603 576.805,708.418 577.054,708.388C577.582,708.325 577.862,708.827 577.779,709.183C577.576,710.121 575.139,721.122 574.964,722.025C574.669,723.509 574.328,725.408 574.425,726.215C574.513,726.961 574.859,727.487 575.574,727.401C577.81,727.134 578.993,724.379 580.071,721.006C580.169,720.773 580.399,720.588 580.648,720.559C580.71,720.552 580.807,720.571 580.904,720.591C581.167,720.686 581.348,720.885 581.378,721.133Z" style="fill:rgb(245,240,215);fill-rule:nonzero;"/>
            </g>
        </g>
        <g transform="matrix(4.16667,0,0,4.16667,0,0)">
            <g transform="matrix(1,0,0,1,-49.1612,1043.62)">
                <path d="M586.899,720.664C586.836,720.924 586.865,721.172 586.86,721.394C587.593,719.353 587.927,717.14 587.757,715.711C587.601,714.406 586.743,713.816 585.687,713.942C584.507,714.083 583.519,715.303 582.803,716.964C582.155,718.395 580.869,721.605 581.25,724.803C581.384,725.921 581.849,726.653 582.843,726.535C583.992,726.397 585.148,725 585.999,723.418C585.561,722.651 585.46,721.277 585.585,720.475C585.61,720.157 585.867,719.937 586.177,719.9C586.612,719.848 586.971,720.215 586.899,720.664ZM589.345,725.066C588.476,725.17 587.635,724.986 586.885,724.509C585.921,726.199 584.489,727.661 582.998,727.839C580.98,728.08 580.137,726.826 579.922,725.025C579.492,721.422 580.748,718.217 581.573,716.417C582.618,714.088 584.01,712.819 585.563,712.634C587.62,712.451 588.843,713.723 589.065,715.586C589.298,717.543 588.668,720.705 587.528,723.298C587.922,723.692 588.476,723.847 589.19,723.761C590.494,723.606 591.44,722.296 592.22,719.588C592.283,719.329 592.513,719.144 592.762,719.114C593.228,719.059 593.625,719.484 593.49,719.941C592.498,723.24 591.209,724.843 589.345,725.066Z" style="fill:rgb(245,240,215);fill-rule:nonzero;"/>
            </g>
        </g>
        <g transform="matrix(4.16667,0,0,4.16667,0,0)">
            <g transform="matrix(1,0,0,1,-49.1612,1043.62)">
                <path d="M599.045,719.216C598.981,719.476 599.011,719.724 599.005,719.945C599.739,717.905 600.073,715.691 599.903,714.263C599.747,712.958 598.889,712.367 597.833,712.493C596.653,712.634 595.664,713.855 594.949,715.515C594.301,716.947 593.014,720.156 593.396,723.355C593.53,724.473 593.995,725.205 594.989,725.086C596.138,724.949 597.294,723.551 598.145,721.969C597.707,721.202 597.606,719.829 597.731,719.026C597.756,718.708 598.013,718.488 598.323,718.451C598.758,718.4 599.117,718.766 599.045,719.216ZM601.491,723.617C600.622,723.721 599.781,723.538 599.031,723.061C598.067,724.75 596.635,726.213 595.144,726.391C593.126,726.632 592.283,725.378 592.068,723.576C591.638,719.974 592.894,716.768 593.718,714.969C594.764,712.639 596.156,711.371 597.708,711.185C599.766,711.003 600.989,712.275 601.211,714.138C601.444,716.095 600.814,719.257 599.674,721.85C600.067,722.244 600.622,722.398 601.336,722.313C602.64,722.157 603.586,720.848 604.366,718.14C604.429,717.88 604.659,717.695 604.907,717.666C605.374,717.61 605.771,718.035 605.636,718.493C604.644,721.792 603.355,723.395 601.491,723.617Z" style="fill:rgb(245,240,215);fill-rule:nonzero;"/>
            </g>
        </g>
        <g transform="matrix(4.16667,0,0,4.16667,0,0)">
            <g transform="matrix(1,0,0,1,-49.1612,1043.62)">
                <path d="M606.034,709.216C605.63,709.264 605.473,709.535 605.514,709.877C605.573,710.374 605.92,710.9 606.43,711.216C606.533,710.763 606.653,710.182 606.616,709.871C606.553,709.343 606.282,709.187 606.034,709.216ZM617.091,716.874C617.102,716.968 617.082,717.065 617.062,717.161C615.595,722.03 614.268,724.109 612.156,724.361L612.125,724.365C610.666,724.54 609.791,723.541 609.609,722.019C609.535,721.398 609.554,720.766 609.679,719.964C609.809,718.94 610.682,714.647 610.88,713.93C608.427,713.435 608.071,713.352 607.346,713.092C607.267,713.479 607.101,713.94 605.266,719.671C605.171,719.935 604.968,720.085 604.751,720.111C604.627,720.126 604.53,720.106 604.433,720.086C604.201,719.987 604.019,719.788 603.99,719.54C603.979,719.447 603.999,719.35 604.019,719.253L605.858,713.552L606.12,712.577C605.11,712.035 604.362,711.306 604.225,710.157C604.072,708.883 604.885,708.03 605.878,707.912C606.996,707.779 607.776,708.505 607.924,709.747C607.983,710.244 607.893,710.538 607.664,711.794C608.586,712.125 609.682,712.34 610.62,712.544C611.07,712.616 611.489,712.692 611.845,712.775C612.201,712.859 612.405,713.244 612.325,713.631C612.044,714.705 611.083,719.324 610.989,720.122C610.881,720.797 610.881,721.332 610.913,721.864C611.006,722.64 611.318,723.139 612.001,723.057C613.523,722.876 614.495,720.995 615.788,716.778C615.882,716.515 616.081,716.333 616.329,716.304C616.422,716.293 616.52,716.313 616.616,716.333C616.88,716.427 617.061,716.626 617.091,716.874Z" style="fill:rgb(245,240,215);fill-rule:nonzero;"/>
            </g>
        </g>
        <g transform="matrix(4.16667,0,0,4.16667,0,0)">
            <g transform="matrix(1,0,0,1,-49.1612,1043.62)">
                <path d="M535.59,923.277C535.764,923.277 535.867,923.381 535.867,923.555L535.867,936.899C535.867,937.072 535.764,937.177 535.59,937.177L533.783,937.177C533.592,937.177 533.505,937.072 533.505,936.899L533.505,925.917L532.428,926.057C532.201,926.091 532.063,925.97 532.063,925.744L532.063,924.076C532.063,923.85 532.167,923.728 532.393,923.711L535.59,923.277Z" style="fill:rgb(245,240,215);fill-rule:nonzero;"/>
            </g>
        </g>
        <g transform="matrix(4.16667,0,0,4.16667,0,0)">
            <g transform="matrix(1,0,0,1,-49.1612,1043.62)">
                <path d="M540.769,925.57C540.317,925.57 540.073,925.813 540.073,926.265L540.073,928.819C540.073,929.271 540.317,929.514 540.769,929.514L541.741,929.514C542.193,929.514 542.436,929.271 542.436,928.819L542.436,926.265C542.436,925.813 542.193,925.57 541.741,925.57L540.769,925.57ZM540.212,931.807C538.631,931.807 537.78,930.956 537.78,929.375L537.78,925.709C537.78,924.128 538.631,923.277 540.212,923.277L542.297,923.277C543.878,923.277 544.73,924.128 544.73,925.709L544.73,930.174C544.73,930.505 544.678,930.73 544.556,931.043L542.089,936.916C542.019,937.09 541.898,937.177 541.689,937.177L539.882,937.177C539.622,937.177 539.517,937.02 539.622,936.777L541.724,931.807L540.212,931.807Z" style="fill:rgb(245,240,215);fill-rule:nonzero;"/>
            </g>
        </g>
        <g transform="matrix(4.16667,0,0,4.16667,0,0)">
            <g transform="matrix(1,0,0,1,-49.1612,1043.62)">
                <path d="M622.919,923.277C623.197,923.277 623.266,923.45 623.179,923.693L618.106,936.881C618.036,937.072 617.914,937.159 617.706,937.159L615.899,937.177C615.638,937.177 615.534,937.02 615.621,936.777L619.913,925.587L615.795,925.587C615.621,925.587 615.517,925.483 615.517,925.309L615.517,923.572C615.517,923.381 615.621,923.294 615.795,923.277L622.919,923.277Z" style="fill:rgb(245,240,215);fill-rule:nonzero;"/>
            </g>
        </g>
        <g transform="matrix(4.16667,0,0,4.16667,0,0)">
            <g transform="matrix(1,0,0,1,-49.1612,1043.62)">
                <path d="M628.74,932.068C628.74,931.617 628.515,931.373 628.045,931.373L627.09,931.373C626.621,931.373 626.395,931.617 626.395,932.068L626.395,934.188C626.395,934.657 626.638,934.883 627.09,934.883L628.045,934.883C628.497,934.883 628.74,934.657 628.74,934.188L628.74,932.068ZM628.74,926.265C628.74,925.813 628.515,925.57 628.045,925.57L627.09,925.57C626.621,925.57 626.395,925.813 626.395,926.265L626.395,928.402C626.395,928.836 626.638,929.08 627.09,929.08L628.045,929.08C628.497,929.08 628.74,928.836 628.74,928.402L628.74,926.265ZM631.051,928.976C631.051,929.618 630.582,930.105 629.957,930.209L629.957,930.244C630.582,930.348 631.051,930.835 631.051,931.477L631.051,934.675C631.051,936.308 630.165,937.177 628.532,937.177L626.603,937.177C624.97,937.177 624.084,936.308 624.084,934.675L624.084,931.477C624.084,930.835 624.553,930.348 625.179,930.244L625.179,930.209C624.553,930.105 624.084,929.618 624.084,928.976L624.084,925.779C624.084,924.145 624.97,923.277 626.603,923.277L628.532,923.277C630.165,923.277 631.051,924.145 631.051,925.779L631.051,928.976Z" style="fill:rgb(245,240,215);fill-rule:nonzero;"/>
            </g>
        </g>
        <g transform="matrix(4.16667,0,0,4.16667,0,0)">
            <g transform="matrix(1,0,0,1,-49.1612,1043.62)">
                <path d="M538.876,832.335L537.541,832.335L539.356,829.485L537.818,830.037L539.695,826.945L538.801,827.237L540.314,824.223L541.827,827.237L540.934,826.945L542.811,830.037L541.272,829.485L543.088,832.335L541.752,832.335L543.609,835.837L540.747,835.622L540.747,837.721L540.314,837.721L539.881,837.721L539.881,835.622L537.02,835.837L538.876,832.335Z" style="fill:rgb(245,240,215);fill-rule:nonzero;"/>
            </g>
        </g>
        <g transform="matrix(4.16667,0,0,4.16667,0,0)">
            <g transform="matrix(1,0,0,1,-49.1612,1043.62)">
                <path d="M513.494,835.769L512.793,835.769L513.745,834.274L512.939,834.564L513.922,832.942L513.453,833.096L514.248,831.515L515.041,833.096L514.572,832.942L515.556,834.564L514.75,834.274L515.702,835.769L515.002,835.769L515.974,837.605L514.474,837.492L514.474,838.593L514.248,838.593L514.021,838.593L514.021,837.492L512.52,837.605L513.494,835.769Z" style="fill:rgb(245,240,215);fill-rule:nonzero;"/>
            </g>
        </g>
        <g transform="matrix(4.16667,0,0,4.16667,0,0)">
            <g transform="matrix(1,0,0,1,-49.1612,1043.62)">
                <path d="M547.025,851.242L546.105,851.242L547.356,849.278L546.296,849.658L547.589,847.527L546.973,847.729L548.016,845.651L549.059,847.729L548.443,847.527L549.737,849.658L548.676,849.278L549.928,851.242L549.007,851.242L550.286,853.655L548.314,853.507L548.314,854.954L548.016,854.954L547.718,854.954L547.718,853.507L545.746,853.655L547.025,851.242Z" style="fill:rgb(245,240,215);fill-rule:nonzero;"/>
            </g>
        </g>
        <g transform="matrix(4.16667,0,0,4.16667,0,0)">
            <g transform="matrix(1,0,0,1,-49.1612,1043.62)">
                <path d="M615.622,850.668L617.066,848.4L615.842,848.839L617.336,846.379L616.625,846.612L617.829,844.213L619.033,846.612L618.322,846.379L619.815,848.839L618.591,848.4L620.036,850.668L618.973,850.668L620.45,853.455L618.173,853.283L618.173,854.954L617.829,854.954L617.484,854.954L617.484,853.283L615.207,853.455L616.685,850.668L615.622,850.668Z" style="fill:rgb(245,240,215);fill-rule:nonzero;"/>
            </g>
        </g>
        <g transform="matrix(4.16667,0,0,4.16667,0,0)">
            <g transform="matrix(1,0,0,1,-49.1612,1043.62)">
                <path d="M604.208,838.806L605.653,836.538L604.429,836.977L605.922,834.517L605.211,834.75L606.415,832.351L607.619,834.75L606.908,834.517L608.402,836.977L607.178,836.538L608.622,838.806L607.559,838.806L609.037,841.592L606.76,841.421L606.76,843.092L606.415,843.092L606.071,843.092L606.071,841.421L603.794,841.592L605.271,838.806L604.208,838.806Z" style="fill:rgb(245,240,215);fill-rule:nonzero;"/>
            </g>
        </g>
        <g transform="matrix(4.16667,0,0,4.16667,0,0)">
            <g transform="matrix(1,0,0,1,-49.1612,1043.62)">
                <path d="M700.875,887.801L700.87,887.806C700.655,888.087 700.426,888.384 700.185,888.681C699.052,887.025 698.367,885.745 698.367,885.745C699.335,885.745 700.984,885.11 702.537,884.188L702.642,884.199C702.867,884.23 703.078,884.251 703.272,884.251C703.272,884.251 702.397,885.802 700.875,887.801ZM666.423,876.765C664.989,875.104 663.547,871.913 662.498,869.237L669.997,870.356C669.997,870.356 668.686,873.589 666.423,876.765ZM666.33,892.367C664.922,890.602 663.758,888.504 662.904,886.708C664.782,888.098 666.888,889.108 668.14,889.113C668.14,889.113 667.476,890.534 666.33,892.367ZM660.904,864.77L664.63,864.635C663.775,865.77 662.87,866.847 661.94,867.764C661.297,866.03 660.904,864.77 660.904,864.77ZM662.959,852.958L662.891,853.026C664.469,854.171 666.605,854.525 668.288,854.582C669.345,854.619 670.221,854.541 670.669,854.463C670.669,854.463 670.174,855.53 669.333,857.107C668.368,858.914 666.947,861.392 665.285,863.734C661.551,858.992 659.846,850.652 659.846,850.652L662.959,852.958ZM684.744,853.775C683.924,855.103 683.078,856.259 682.291,856.961C684.461,858.445 687.882,858.268 688.863,858.112C688.863,858.112 687.282,861.319 685.019,864.531C682.003,859.658 679.187,853.411 679.187,853.411C679.974,853.546 682.625,853.947 684.744,853.775ZM685.417,887.988C684.803,888.946 683.996,890.081 683.04,891.148C682.325,889.935 681.915,889.123 681.915,889.123C682.765,889.123 684.055,888.686 685.417,887.988ZM688.123,870.757L688.297,870.783C688.297,870.783 688.271,870.846 688.216,870.96C687.878,871.704 686.449,874.672 684.241,877.15C682.003,873.917 680.756,870.58 680.756,870.58L683.543,870.112L688.123,870.757ZM696.298,844.738C698.713,846.175 702.114,846.472 704.444,846.446L704.495,846.44C705.438,846.43 706.199,846.367 706.643,846.305C706.643,846.305 706.195,847.096 705.408,848.346C705.167,848.726 704.897,849.153 704.596,849.611C703.632,851.074 702.372,852.88 700.921,854.707C698.312,850.886 695.685,844.769 695.685,844.769L696.298,844.738ZM699.018,862.88L705.036,863.625L705.751,863.713C705.751,863.713 705.518,864.182 705.078,864.947C704.567,865.832 703.772,867.123 702.731,868.539C701.484,867.019 700.156,864.885 699.018,862.88ZM701.327,870.33C700.485,871.335 699.538,872.34 698.498,873.266C697.774,871.928 697.39,870.96 697.39,870.96L701.327,870.33ZM696.062,857.274C696.459,857.336 697.415,857.477 698.502,857.55C698.007,858.086 697.5,858.612 696.984,859.111C696.413,858.003 696.062,857.274 696.062,857.274ZM649.738,885.49C646.621,883.1 644.816,878.967 644.816,878.967L646.55,878.722C647.992,880.221 649.764,881.341 651.189,881.929C651.189,881.929 650.66,883.465 649.738,885.49ZM635.338,880.971C634.598,880.253 633.824,879.336 633.088,878.378L636.577,878.821C636.577,878.821 636.137,879.748 635.338,880.971ZM632.022,884.855C631.109,883.61 630.614,882.606 630.614,882.606L634.547,882.106C633.858,883.032 633.007,884.016 632.022,884.855ZM634.014,873.178C633.253,874.193 632.39,875.234 631.476,876.145C630.292,874.422 629.455,873.016 629.455,873.016C630.094,873.1 632.394,873.36 634.014,873.178ZM617.85,887.957C617.401,886.947 617.046,886.015 616.843,885.484C616.737,885.188 616.678,885.016 616.678,885.016L617.05,885.005L619.825,884.912C618.996,884.105 618.315,883.027 617.765,881.924L622.667,882.481C622.667,882.481 620.836,885.901 617.85,887.957ZM617.752,897.036C617.186,895.912 616.873,895.063 616.873,895.063C617.901,894.683 619.267,893.97 620.324,892.82C620.692,892.908 621.022,892.96 621.297,892.96C621.297,892.96 619.905,895.225 617.752,897.036ZM705.459,832.227C705.459,832.227 705.104,832.218 704.101,834.003C703.894,834.373 703.674,834.758 703.45,835.144C702.046,837.575 700.392,840.188 698.751,842.203C696.408,838.616 695.305,833.957 695.305,833.957L698.35,836.107C697.445,834.508 696.679,832.645 696.032,830.672C695.943,830.406 695.859,830.136 695.774,829.865C695.529,829.063 695.3,828.251 695.085,827.434C693.287,820.505 692.716,813.367 692.547,812.409C692.353,813.513 691.608,823.305 689.083,830.864C688.779,831.775 688.449,832.655 688.089,833.483C687.675,834.43 687.227,835.31 686.74,836.096L690.048,833.696C690.048,833.696 689.24,836.757 687.692,839.844C686.833,841.562 685.746,843.291 684.44,844.499L688.845,845.697C688.845,845.697 688.136,847.45 686.635,850.371C686.457,850.725 686.271,851.084 686.076,851.443L685.958,851.667C682.574,847.206 678.739,837.731 678.739,837.731L684.617,837.413C680.295,833.16 678.822,824.568 678.822,824.568L681.894,826.866C679.986,823.295 678.603,818.662 677.597,814.117C675.808,806.053 675.211,798.26 675.025,797.146C674.733,798.885 673.414,817.912 668.157,826.856L672.065,823.852C672.001,824.112 670.073,831.708 666.495,836.206C666.156,836.638 665.801,837.033 665.433,837.398L666.749,837.476L671.117,837.726C671.117,837.726 669.916,840.818 668.258,844.296C667.742,845.389 667.18,846.518 666.592,847.601C666.516,847.747 666.436,847.898 666.351,848.044C665.366,849.84 664.321,851.474 663.34,852.562C662.024,848.991 660.557,842.369 659.322,836.044C657.723,827.881 656.51,820.213 656.51,820.213C656.51,820.213 653.799,837.34 651.582,846.274C651.549,846.419 651.515,846.56 651.477,846.701C651.223,847.711 650.973,848.606 650.737,849.345C650.538,849.965 650.347,850.47 650.17,850.844L651.253,850.407L652.589,849.871C652.589,849.871 652.466,850.714 652.179,852.016C652.022,852.719 651.819,853.552 651.561,854.457C651.337,855.243 651.071,856.087 650.758,856.946C649.891,859.351 648.668,861.876 646.989,863.656L651.671,865.546L651.823,865.608C651.823,865.608 651.553,866.368 651.092,867.493C650.326,869.367 649.049,872.272 647.649,874.422C645.509,871.35 643.615,867.769 643.615,867.769C644.503,867.899 648.499,868.409 649.717,867.535C646.96,865.312 643.268,857.539 643.268,857.539L647.772,857.331C644.917,854.942 643.382,850.251 643.014,849.002C642.955,848.804 642.925,848.689 642.925,848.689L643.103,848.804L645.687,850.449C645.01,849.366 644.418,848.132 643.902,846.826C643.754,846.456 643.615,846.086 643.479,845.706C643.306,845.217 643.141,844.722 642.989,844.217C641.153,838.293 640.586,831.885 640.426,831.062C640.206,832.171 639.224,844.176 635.372,850.126C635.308,850.23 635.241,850.334 635.169,850.438L635.422,850.272L638.159,848.486C638.125,848.606 637.537,850.584 636.429,852.76C636.222,853.172 635.993,853.588 635.748,854.004C635.642,854.182 635.532,854.358 635.422,854.536C634.758,855.582 633.976,856.571 633.084,857.315L636.721,857.498L637.431,857.534C637.431,857.534 637.317,857.784 637.114,858.206C636.188,860.137 633.397,865.692 631.138,867.514C633.1,868.732 636.201,868.581 637.089,868.456C637.089,868.456 636.141,870.195 634.682,872.262C632.132,869.877 629.125,864.25 629.125,864.25L633.464,864.073C630.876,862.146 629.413,858.482 628.952,857.164C628.842,856.857 628.791,856.675 628.791,856.675L629.112,856.857L631.451,858.18C630.842,857.321 630.309,856.347 629.836,855.316C629.666,854.947 629.501,854.567 629.349,854.182C629.201,853.817 629.062,853.447 628.935,853.078C627.099,847.934 626.537,842.286 626.38,841.573C626.169,842.546 625.192,853.177 621.309,858.169L624.198,856.493C624.198,856.493 623.166,859.632 621.204,862.146C620.645,862.865 620.011,863.536 619.3,864.062L621.584,864.161L623.496,864.244C623.496,864.244 622.938,865.332 622.1,866.748C620.861,868.841 619.004,871.663 617.423,872.798C619.317,873.839 622.307,873.709 623.166,873.599C623.166,873.599 620.455,878.014 617.194,880.664C616.987,880.159 616.805,879.669 616.657,879.222C616.234,877.988 616.031,877.082 616.031,877.082L617.148,877.837L618.412,878.696C618.137,878.123 617.854,877.316 617.558,876.364C617.431,875.937 617.3,875.484 617.169,875C617.076,874.672 616.987,874.328 616.894,873.979C615.393,868.17 613.976,859.981 613.976,859.981C613.976,859.981 611.447,874.552 610.072,877.191L611.561,876.645C611.561,876.645 610.728,881.856 608.114,884.391L611.091,885.484C611.091,885.484 608.901,891.039 607.019,891.914C607.958,893.231 609.522,894.215 610.698,894.657C610.698,894.657 608.427,900.686 605.411,901.925L610.322,905.048C610.322,905.048 608.469,909.088 604.553,910.113C605.306,911.863 608.304,915.189 609.721,915.226L609.721,915.231L609.746,915.231L615.426,915.236L669.244,915.288L672.673,914.676L696.844,897.166L696.899,897.12C700.443,893.98 703.243,889.816 705.117,885.073C705.231,884.792 705.341,884.506 705.442,884.219C705.539,883.964 705.628,883.709 705.717,883.454L705.717,883.449C706.077,882.403 706.39,881.341 706.656,880.247C707.286,877.702 706.994,871.22 706.994,870.689L705.459,832.227Z" style="fill:rgb(76,121,87);fill-rule:nonzero;"/>
            </g>
        </g>
        <g transform="matrix(4.16667,0,0,4.16667,0,0)">
            <g transform="matrix(1,0,0,1,-49.1612,1043.62)">
                <path d="M466.836,848.526L467.421,848.555L467.438,848.555L467.43,848.57C467.276,848.915 464.781,854.472 462.298,857.98C459.823,854.97 457.922,852.028 457.112,850.723L456.975,850.506C456.809,850.23 456.709,850.058 456.684,850.023L456.68,850.013C456.805,850.028 456.958,850.048 457.133,850.063L457.199,850.068C459.167,850.24 463.793,850.27 466.836,848.526ZM478.179,857.098C480.259,857.26 482.863,856.881 483.635,856.753C483.635,856.753 480.87,862.68 477.909,867.301C475.688,864.256 474.135,861.212 474.135,861.212C475.098,861.359 478.457,861.527 480.587,860.123C479.815,859.458 478.985,858.359 478.179,857.098ZM499.633,856.388L499.566,856.324L502.622,854.132C502.622,854.132 500.949,862.044 497.283,866.547C494.982,863.414 493.155,860.024 492.387,858.532C492.134,858.039 491.997,857.753 491.997,857.753C492.163,857.783 492.391,857.807 492.67,857.832C494.272,857.96 497.482,857.896 499.633,856.388ZM515.676,880.765L517.378,881.002C517.378,881.002 515.604,884.918 512.544,887.185C511.64,885.263 511.121,883.81 511.121,883.81C512.52,883.253 514.26,882.189 515.676,880.765ZM528.892,880.44C528.169,881.347 527.409,882.219 526.683,882.898C525.898,881.736 525.466,880.859 525.466,880.859L528.892,880.44ZM531.798,875.425C532.085,875.395 532.313,875.371 532.458,875.351C532.458,875.351 532.338,875.548 532.122,875.883C531.777,876.42 531.192,877.312 530.474,878.322C529.577,877.455 528.73,876.469 527.982,875.509C529.207,875.642 530.835,875.523 531.798,875.425ZM543.934,883.805C543.611,884.431 543.241,885.051 542.818,885.613L542.647,885.83C542.419,886.12 542.174,886.391 541.912,886.638L543.004,886.672L545.001,886.736C545.001,886.736 544.649,887.722 544.105,888.958C544.026,889.145 543.939,889.338 543.851,889.53C540.92,887.579 539.122,884.332 539.122,884.332L543.934,883.805ZM543.266,895.555C543.81,895.87 544.346,896.102 544.811,896.269C544.811,896.269 544.607,896.806 544.229,897.58C544.142,897.757 544.051,897.944 543.947,898.141C541.833,896.422 540.467,894.274 540.467,894.274C540.737,894.274 541.061,894.225 541.422,894.141C541.983,894.727 542.631,895.195 543.266,895.555ZM531.321,884.45C531.321,884.45 530.835,885.401 529.938,886.584C528.971,885.79 528.136,884.854 527.459,883.977L531.321,884.45ZM499.62,888.337C498.781,890.042 497.64,892.032 496.257,893.712C495.132,891.973 494.48,890.623 494.48,890.623C495.709,890.618 497.777,889.663 499.62,888.337ZM497.926,867.399L501.584,867.528C501.584,867.528 501.198,868.725 500.567,870.37C499.653,869.498 498.765,868.478 497.926,867.399ZM500.019,871.764C498.989,874.302 497.573,877.331 496.166,878.908C493.944,875.893 492.657,872.829 492.657,872.829L500.019,871.764ZM480.957,890.633C480.957,890.633 480.554,891.402 479.852,892.555C478.914,891.545 478.121,890.466 477.519,889.559C478.856,890.219 480.122,890.633 480.957,890.633ZM478.673,879.273C476.174,876.563 474.691,873.233 474.691,873.233L479.358,872.592L482.095,873.04C482.095,873.04 480.87,876.208 478.673,879.273ZM464.673,860.675C465.74,860.606 466.678,860.478 467.068,860.414C467.068,860.414 466.724,861.108 466.163,862.162C465.657,861.685 465.159,861.187 464.673,860.675ZM464.677,875.592C463.655,874.711 462.725,873.755 461.899,872.804L465.765,873.4C465.765,873.4 465.387,874.321 464.677,875.592ZM460.712,885.953C462.236,886.825 463.855,887.426 464.806,887.426C464.806,887.426 464.133,888.643 463.02,890.214C461.114,887.929 459.989,886.007 459.989,886.007C460.209,886.007 460.45,885.987 460.712,885.953ZM457.556,866.522L464.166,865.739C463.049,867.636 461.746,869.661 460.521,871.104C458.619,868.606 457.556,866.522 457.556,866.522ZM556.905,910.547C553.061,909.576 551.242,905.743 551.242,905.743L556.062,902.782C553.102,901.605 550.872,895.88 550.872,895.88C552.027,895.461 553.563,894.53 554.485,893.279C552.637,892.451 550.486,887.18 550.486,887.18L553.409,886.14C550.843,883.741 550.025,878.795 550.025,878.795L551.487,879.312C550.138,876.809 547.655,862.985 547.655,862.985C547.655,862.985 545.143,876.992 543.299,880.741L545.637,879.208C545.637,879.208 545.271,880.795 544.495,882.608C544.238,882.406 543.98,882.189 543.731,881.967C540.883,879.445 538.632,875.908 538.632,875.908C539.297,875.991 541.252,876.08 542.963,875.632C543.428,875.513 543.872,875.356 544.271,875.144C543.652,874.715 542.988,874.031 542.34,873.237C540.584,871.094 538.923,868.153 538.445,867.286C538.358,867.124 538.308,867.035 538.308,867.035L538.495,867.025L540.995,866.922L542.427,866.857C541.771,866.389 541.182,865.803 540.659,865.168C540.115,864.512 539.645,863.808 539.247,863.128C538.176,861.31 537.619,859.674 537.619,859.674L539.662,860.822L539.89,860.955L540.455,861.271C540.223,860.98 539.998,860.67 539.787,860.345L539.753,860.29C536.523,855.265 535.672,846.383 535.477,845.52C535.302,846.274 534.642,852.831 532.309,858.068L532.238,858.226C531.935,858.896 531.599,859.546 531.233,860.157C531.001,860.547 530.756,860.921 530.499,861.276L531.545,860.704L533.11,859.847C533.11,859.847 532.844,860.719 532.296,861.891C531.931,862.67 531.441,863.586 530.814,864.468C530.739,864.576 530.661,864.685 530.577,864.793C530,865.567 529.315,866.296 528.522,866.867L531.802,867L532.782,867.04C532.782,867.04 532.608,867.35 532.309,867.858C531.379,869.439 529.224,872.917 527.326,874.637C525.894,872.676 524.964,871.025 524.964,871.025C525.836,871.149 528.879,871.286 530.806,870.134C528.103,868.03 524.628,860.665 524.628,860.665L528.896,860.458C526.953,858.886 525.549,856.191 524.736,854.28C524.192,852.999 523.909,852.073 523.909,852.073L525.23,852.91L526.849,853.935C526.388,853.29 525.969,852.56 525.591,851.772C522.68,845.801 521.883,836.5 521.688,835.549C521.508,836.416 520.841,843.885 518.495,849.959C518.453,850.078 518.408,850.191 518.357,850.304C518.072,851.028 517.76,851.728 517.416,852.388C517.137,852.935 516.839,853.457 516.523,853.945L517.793,853.161L519.234,852.275C519.234,852.275 518.989,853.176 518.487,854.423C518.084,855.418 517.523,856.63 516.784,857.783L516.755,857.827C516.124,858.812 515.365,859.753 514.476,860.473L518.125,860.635L518.898,860.67C518.898,860.67 518.765,860.941 518.524,861.399C517.536,863.31 514.754,868.444 512.565,870.148C513.612,870.878 516.739,870.597 518.091,870.434C518.288,870.41 518.445,870.39 518.557,870.375C518.557,870.375 518.474,870.528 518.32,870.804C517.752,871.804 516.249,874.395 514.596,876.686C512.396,873.415 510.498,868.326 510.498,868.326L515.244,866.473C513.102,864.276 511.711,860.882 510.864,858.098C510.831,857.995 510.797,857.891 510.768,857.783C510.038,855.314 509.747,853.398 509.747,853.398L512.122,854.319C511.748,853.556 511.316,852.206 510.868,850.486C510.777,850.151 510.685,849.802 510.594,849.442C510.453,848.87 510.312,848.274 510.166,847.649C508.123,838.84 505.898,825.257 505.898,825.257C505.898,825.257 504.266,835.219 502.311,844.234C501.298,848.895 500.197,853.304 499.192,855.95C497.125,853.738 494.8,849.136 493.263,845.791C492.234,843.545 491.557,841.87 491.557,841.87L494.16,841.727L497.137,841.559C496.278,840.742 495.497,839.727 494.8,838.623C492.117,834.396 490.681,828.923 490.627,828.706L494.463,831.558C489.302,823.075 488.007,805.024 487.72,803.373C487.513,804.566 486.795,813.823 484.461,822.42C484.233,823.262 483.988,824.099 483.726,824.922C483.593,825.346 483.452,825.765 483.311,826.179C482.638,828.125 481.866,829.957 480.978,831.568L484.158,830.093L484.341,829.96C484.341,829.96 484.312,830.093 484.249,830.334C483.813,832.024 482.016,838.042 478.304,841.574L484.075,841.875C484.075,841.875 480.309,850.866 476.988,855.098C475.194,851.9 473.761,848.545 473.761,848.545L478.478,848.299C476.718,846.722 475.36,844.23 474.434,842.101C473.471,839.879 472.973,838.052 472.973,838.052L475.451,839.786L476.219,840.323C476.02,840.012 475.825,839.687 475.638,839.342C475.393,838.899 475.161,838.431 474.936,837.943C474.326,836.593 473.795,835.091 473.334,833.534C471.324,826.701 470.693,818.808 470.519,817.853C470.332,818.867 469.651,827.267 467.326,834.485C467.23,834.795 467.127,835.106 467.019,835.406C466.778,836.111 466.516,836.795 466.234,837.46C465.81,838.485 465.337,839.451 464.822,840.333L466.848,838.953L467.812,838.293C467.812,838.293 467.65,838.958 467.318,839.968C466.79,841.564 465.635,843.792 464.228,845.876C462.218,843.492 458.704,839.558 457.152,836.838C456.757,836.149 454.691,881.918 456.194,885.864C456.298,886.135 456.402,886.401 456.514,886.667C457.328,888.648 458.316,890.525 459.47,892.259C459.699,892.604 459.931,892.939 460.172,893.269C461.467,895.057 462.945,896.673 464.586,898.072L464.61,898.097L488.794,914.676L490.097,915.458L491.976,915.458L551.807,915.404L551.836,915.404L551.832,915.399C553.222,915.365 556.166,912.207 556.905,910.547Z" style="fill:rgb(76,121,87);fill-rule:nonzero;"/>
            </g>
        </g>
        <g transform="matrix(4.16667,0,0,4.16667,0,0)">
            <g transform="matrix(1,0,0,1,-49.1612,1043.62)">
                <path d="M455.441,838.049L455.433,838.266L455.719,838.253C455.624,838.188 455.533,838.123 455.441,838.049ZM539.767,891.39C536.7,889.578 534.819,886.568 534.819,886.568L539.854,886.077C539.289,887.046 538.59,887.997 537.738,888.705L540.971,888.797C540.971,888.797 540.48,890.013 539.767,891.39ZM539.867,899.384C537.656,897.785 536.226,895.795 536.226,895.795C536.509,895.795 536.848,895.752 537.226,895.669C538.312,896.682 539.715,897.312 540.771,897.646C540.771,897.646 540.449,898.393 539.867,899.384ZM525.769,880.99C524.831,880.186 523.945,879.269 523.163,878.374C524.827,878.535 527.19,878.305 527.846,878.231C527.846,878.231 526.986,879.473 525.769,880.99ZM525.209,888.657C524.197,887.919 523.323,887.054 522.615,886.238L526.656,886.676C526.656,886.676 526.147,887.563 525.209,888.657ZM520.53,883.344L524.114,882.953C523.357,883.796 522.563,884.604 521.802,885.238C520.982,884.157 520.53,883.344 520.53,883.344ZM507.01,889.218C506.063,887.432 505.52,886.081 505.52,886.081C506.984,885.564 508.804,884.578 510.286,883.253L512.067,883.475C512.067,883.475 510.212,887.111 507.01,889.218ZM489.871,881.537C487.547,878.735 486.2,875.893 486.2,875.893L493.903,874.903C492.825,877.262 491.344,880.068 489.871,881.537ZM473.571,864.098C472.763,863.477 471.894,862.46 471.051,861.292C473.228,861.444 475.951,861.092 476.76,860.97C476.76,860.97 473.866,866.47 470.769,870.763C468.444,867.934 466.819,865.106 466.819,865.106C467.827,865.245 471.342,865.402 473.571,864.098ZM475.148,876.089C475.148,876.089 473.866,879.026 471.568,881.871C468.953,879.356 467.402,876.263 467.402,876.263L472.285,875.672L475.148,876.089ZM493.499,860.631L493.429,860.571L496.627,858.537C496.627,858.537 495.936,861.444 494.468,864.641C494.372,864.846 494.272,865.05 494.172,865.258C493.347,866.953 492.308,868.682 491.04,870.059C487.838,866.192 485.509,861.9 485.509,861.9C486.704,862.069 490.862,862.269 493.499,860.631ZM494.476,873.608C493.52,872.8 492.591,871.853 491.713,870.85L495.541,870.971C495.541,870.971 495.137,872.079 494.476,873.608ZM553.426,910.897C549.403,909.997 547.5,906.439 547.5,906.439L552.544,903.689C550.859,903.094 549.399,901.248 548.417,899.692C547.978,898.993 547.635,898.35 547.409,897.907C547.218,897.525 547.114,897.286 547.114,897.286C548.321,896.899 549.929,896.03 550.893,894.87C550.011,894.518 549.06,893.302 548.287,892.09C547.818,891.351 547.418,890.617 547.135,890.074C546.957,889.735 546.831,889.47 546.762,889.331L546.71,889.214L546.94,889.14L549.768,888.245C549.004,887.61 548.387,886.785 547.896,885.925C546.666,883.774 546.227,881.428 546.227,881.428L547.757,881.911C547.557,881.576 547.331,881.033 547.092,880.338C546.883,879.73 546.662,879.013 546.44,878.226C545.958,876.528 545.467,874.516 545.033,872.657C544.911,872.127 544.794,871.605 544.681,871.11C544.325,869.511 544.038,868.152 543.877,867.396C543.825,867.144 543.79,866.961 543.768,866.857L543.747,866.753L543.734,866.809C543.721,866.887 543.686,867.048 543.638,867.278C543.547,867.721 543.395,868.43 543.204,869.312C542.991,870.289 542.721,871.475 542.417,872.748L542.365,872.978C541.44,876.832 540.215,881.385 539.189,883.236L541.635,881.811C541.635,881.811 541.253,883.283 540.441,884.969C538.573,883.67 536.878,881.884 535.749,880.559C535.627,880.42 535.514,880.281 535.41,880.155C534.715,879.317 534.306,878.748 534.306,878.748C535.188,878.843 538.26,878.956 540.206,878.04C538.798,877.175 537.178,875.194 535.944,873.482C535.757,873.222 535.579,872.97 535.414,872.726C534.819,871.87 534.363,871.149 534.132,870.78C534.024,870.606 533.967,870.511 533.967,870.511L534.38,870.493L538.277,870.35C537.378,869.776 536.596,869.021 535.931,868.221C535.649,867.878 535.384,867.522 535.145,867.174C535.027,867.013 534.919,866.853 534.819,866.692C533.781,865.084 533.246,863.681 533.246,863.681L535.87,864.989L536.214,865.163C536.122,865.063 536.031,864.958 535.944,864.85C532.177,860.336 531.217,851.378 531.004,850.544C530.857,851.113 530.379,855.188 528.915,859.298C528.797,859.632 528.672,859.967 528.537,860.301C528.376,860.705 528.202,861.109 528.02,861.509C527.407,862.838 526.673,864.103 525.795,865.171L528.528,863.842C528.528,863.842 527.008,868.265 523.727,870.359L528.185,870.515C528.185,870.515 525.096,875.468 522.476,877.57C522.038,877.04 521.642,876.532 521.307,876.08C521.224,875.967 521.143,875.859 521.068,875.754C520.395,874.838 520.004,874.216 520.004,874.216C520.917,874.329 524.101,874.46 526.117,873.391C524.588,872.335 522.823,869.85 521.521,867.787C521.377,867.556 521.237,867.331 521.103,867.113C520.326,865.84 519.783,864.841 519.669,864.637L519.651,864.598L519.7,864.598L524.119,864.411C523.093,863.677 522.211,862.678 521.481,861.635C521.221,861.266 520.977,860.892 520.755,860.523C520.617,860.293 520.487,860.062 520.361,859.841C519.4,858.09 518.901,856.626 518.901,856.626L521.347,858.003L521.977,858.355C521.807,858.146 521.646,857.925 521.49,857.699C517.763,852.346 516.797,842.25 516.576,841.29C516.38,842.146 515.607,849.883 512.775,855.661C512.302,856.63 511.772,857.547 511.172,858.364L513.223,857.243L514.005,856.817C513.987,856.882 513.822,857.403 513.508,858.164C512.801,859.867 511.333,862.769 509.03,864.42L513.405,864.598L513.656,864.607C513.656,864.607 513.604,864.702 513.505,864.876C512.775,866.158 509.53,871.679 507.032,873.404C508.283,874.173 512.388,873.726 513.301,873.613C513.301,873.613 513.24,873.713 513.123,873.895C512.597,874.725 510.963,877.249 509.156,879.469C506.854,876.432 504.868,871.71 504.868,871.71L509.834,869.994C505.476,866.023 504.082,857.855 504.082,857.855L506.567,858.711C505.985,857.664 505.281,855.422 504.555,852.651C502.409,844.483 500.055,831.741 500.055,831.741C500.055,831.741 498.564,839.817 496.696,847.702C496.479,848.619 496.257,849.536 496.027,850.439C495.719,851.673 495.402,852.881 495.089,854.023C494.394,856.504 493.699,858.685 493.038,860.223C489.419,856.795 485.049,847.159 485.049,847.159L490.888,846.868C488.685,845.013 486.991,842.059 485.839,839.556L485.744,839.344C485.301,838.362 484.945,837.458 484.675,836.728C484.297,835.699 484.093,835.016 484.076,834.943L485.11,835.62L488.09,837.584C487.26,836.376 486.526,834.956 485.879,833.413C482.299,824.924 481.286,812.725 481.035,811.426C480.735,812.96 479.405,828.878 473.979,837.597L477.681,835.221C477.681,835.221 476.577,839.47 474.235,843.214C473.384,844.583 472.367,845.882 471.181,846.881L475.912,847.103L477.22,847.164C477.22,847.164 477.012,847.607 476.647,848.337C476.586,848.458 476.521,848.589 476.451,848.728C476.16,849.301 475.799,849.996 475.387,850.769C473.923,853.515 471.785,857.195 469.804,859.437C469.161,858.424 468.566,857.395 468.058,856.474L468.049,856.461C467.076,854.697 466.428,853.354 466.428,853.354L471.364,853.124C469.982,852.025 468.835,850.448 467.94,848.888C467.767,848.589 467.601,848.289 467.449,847.993C467.21,847.537 466.998,847.094 466.806,846.677C466.011,844.939 465.603,843.61 465.603,843.61L467.628,844.865L469,845.721C468.627,845.209 468.279,844.648 467.949,844.053C464.252,837.349 463.266,825.989 463.035,824.868C462.857,825.737 462.236,832.432 460.233,838.722C459.847,839.947 459.403,841.155 458.899,842.302C458.565,843.08 458.2,843.827 457.8,844.531L457.657,844.783C457.47,845.109 457.279,845.426 457.075,845.734L457.77,845.313L457.935,845.213L460.203,843.84C460.203,843.84 459.834,845.182 459.06,846.925C458.678,847.798 458.191,848.775 457.596,849.731C457.314,850.196 457.001,850.656 456.662,851.1C456.106,850.518 455.554,849.875 455.007,849.201L454.794,854.588C455.042,854.558 455.285,854.519 455.533,854.471C456.176,854.358 456.819,854.21 457.431,854.023C458.048,853.837 458.639,853.611 459.182,853.333L459.812,853.359C459.812,853.359 458.778,855.422 457.353,857.794L457.279,857.92L457.118,858.181L457.04,858.307C456.262,859.58 455.389,860.901 454.507,862.013L454.212,869.542L456.388,869.312C455.676,870.385 454.89,871.501 454.099,872.509L453.882,878.083L453.882,878.131C453.882,882.058 454.729,885.881 456.302,889.361C456.584,889.413 456.836,889.439 457.057,889.439C457.057,889.439 456.91,889.674 456.636,890.069C457.488,891.816 458.522,893.471 459.729,895C459.968,895.304 460.212,895.6 460.464,895.891C461.819,897.468 463.366,898.893 465.082,900.127L465.108,900.149L488.92,915.45L493.729,915.45L548.091,915.406L548.122,915.406L548.117,915.402C549.573,915.367 552.653,912.435 553.426,910.897Z" style="fill:rgb(69,63,53);fill-rule:nonzero;"/>
            </g>
        </g>
        <g transform="matrix(4.16667,0,0,4.16667,0,0)">
            <g transform="matrix(1,0,0,1,-49.1612,1043.62)">
                <path d="M706.238,838.053C706.147,838.123 706.056,838.188 705.964,838.253L706.247,838.266L706.238,838.053ZM625.457,895.795C625.457,895.795 624.028,897.785 621.817,899.384C621.234,898.393 620.913,897.646 620.913,897.646C621.969,897.312 623.372,896.682 624.458,895.669C624.836,895.752 625.175,895.795 625.457,895.795ZM623.945,888.705C623.094,887.997 622.394,887.046 621.83,886.077L626.865,886.568C626.865,886.568 624.984,889.578 621.917,891.39C621.204,890.013 620.713,888.797 620.713,888.797L623.945,888.705ZM638.521,878.374C637.739,879.269 636.853,880.186 635.914,880.99C634.698,879.473 633.838,878.231 633.838,878.231C634.494,878.305 636.857,878.535 638.521,878.374ZM639.068,886.238C638.36,887.054 637.487,887.919 636.475,888.657C635.536,887.563 635.028,886.676 635.028,886.676L639.068,886.238ZM641.154,883.344C641.154,883.344 640.702,884.157 639.881,885.238C639.121,884.604 638.326,883.796 637.57,882.953L641.154,883.344ZM651.398,883.253C652.879,884.578 654.7,885.564 656.164,886.081C656.164,886.081 655.621,887.432 654.674,889.218C651.472,887.111 649.617,883.475 649.617,883.475L651.398,883.253ZM668.255,860.571L668.185,860.631C670.822,862.269 674.98,862.069 676.174,861.9C676.174,861.9 673.846,866.192 670.644,870.059C669.745,869.081 668.958,867.93 668.285,866.735C667.89,866.036 667.533,865.323 667.212,864.628C666.16,862.334 665.509,860.197 665.222,859.172C665.113,858.768 665.057,858.537 665.057,858.537L665.47,858.802L668.255,860.571ZM690.116,881.871C689.099,880.612 688.278,879.33 687.683,878.296L687.587,878.127C686.897,876.919 686.536,876.089 686.536,876.089L689.399,875.672L694.282,876.263C694.282,876.263 692.731,879.356 690.116,881.871ZM675.484,875.893C675.484,875.893 674.137,878.735 671.813,881.537C670.34,880.068 668.858,877.262 667.781,874.903L675.484,875.893ZM667.207,873.608C666.547,872.079 666.143,870.971 666.143,870.971L669.971,870.85C669.093,871.853 668.163,872.8 667.207,873.608ZM690.633,861.292C689.79,862.46 688.921,863.477 688.113,864.098C690.342,865.402 693.856,865.245 694.864,865.106C694.864,865.106 693.24,867.934 690.915,870.763C688.639,867.613 686.475,863.807 685.485,862.009C685.128,861.357 684.924,860.97 684.924,860.97C685.159,861.005 685.558,861.061 686.058,861.114C687.274,861.253 689.091,861.4 690.633,861.292ZM707.763,877.145L707.581,872.505C706.79,871.497 706.008,870.38 705.295,869.312L707.468,869.542L707.45,869.094L707.45,869.09L707.381,867.309L707.32,865.827L707.32,865.823L707.172,862.009C706.551,861.222 705.93,860.327 705.343,859.424C705.022,858.924 704.704,858.416 704.409,857.925L704.353,857.838C702.919,855.448 701.872,853.359 701.872,853.359L702.502,853.333C703.045,853.611 703.64,853.837 704.257,854.023C705.1,854.284 705.995,854.467 706.881,854.588L706.673,849.205C706.129,849.879 705.573,850.518 705.022,851.1C704.687,850.661 704.374,850.2 704.088,849.735C703.814,849.292 703.562,848.845 703.332,848.406C702.12,846.086 701.52,843.975 701.485,843.844L703.918,845.313L704.609,845.734C704.357,845.352 704.114,844.952 703.888,844.539C703.479,843.814 703.106,843.049 702.758,842.25C702.458,841.555 702.176,840.838 701.92,840.108C699.543,833.452 698.839,825.802 698.648,824.868C698.44,825.88 697.614,835.229 694.738,841.972C694.143,843.367 693.465,844.648 692.683,845.721L695.446,844.001L696.081,843.61C696.081,843.61 695.955,844.018 695.711,844.674C694.973,846.647 693.135,850.887 690.32,853.124L695.255,853.354C695.255,853.354 693.756,856.469 691.88,859.437C690.255,857.595 688.526,854.792 687.144,852.329C685.58,849.527 684.464,847.164 684.464,847.164L687.553,847.02L690.502,846.881C689.799,846.286 689.156,845.591 688.574,844.835C685.463,840.829 684.003,835.221 684.003,835.221L687.705,837.597C682.278,828.878 680.949,812.96 680.649,811.426C680.419,812.599 679.572,822.665 676.774,830.859C675.914,833.383 674.867,835.729 673.594,837.584L677.608,834.943C677.539,835.195 675.167,843.184 670.796,846.868L676.635,847.159C676.635,847.159 672.264,856.795 668.646,860.223C668.172,859.12 667.677,857.682 667.181,856.044C666.66,854.323 666.139,852.373 665.63,850.352C665.544,850 665.457,849.649 665.37,849.292C663.328,840.942 661.629,831.741 661.629,831.741C661.629,831.741 659.865,841.294 658.002,849.158C656.976,853.454 655.929,857.251 655.117,858.711L657.602,857.855C657.602,857.855 656.207,866.023 651.85,869.994L656.816,871.71C656.816,871.71 654.83,876.432 652.528,879.469C651.385,878.066 650.316,876.545 649.547,875.403C648.835,874.347 648.383,873.613 648.383,873.613C648.687,873.652 649.347,873.726 650.142,873.778C651.719,873.891 653.818,873.917 654.652,873.404C652.806,872.131 650.551,868.777 649.204,866.601C648.487,865.436 648.027,864.607 648.027,864.607L650.029,864.524L652.654,864.42C651.902,863.881 651.242,863.208 650.664,862.486C650.316,862.052 649.995,861.596 649.712,861.144C649.521,860.844 649.347,860.549 649.182,860.258C648.166,858.416 647.675,856.813 647.675,856.813L649.943,858.051L650.512,858.364C650.355,858.146 650.203,857.925 650.051,857.695C646.28,851.899 645.329,842.25 645.107,841.29C644.907,842.154 644.108,850.431 641.223,855.978C640.771,856.852 640.267,857.655 639.707,858.355L641.727,857.221L642.783,856.626C642.783,856.626 642.57,857.243 642.162,858.155C641.944,858.637 641.671,859.202 641.341,859.806L641.249,859.971C640.376,861.526 639.142,863.281 637.565,864.411L642.031,864.598C642.031,864.598 638.395,871.436 635.567,873.391C637.583,874.46 640.767,874.329 641.679,874.216C641.679,874.216 640.706,875.75 639.207,877.57C636.588,875.468 633.499,870.515 633.499,870.515L637.956,870.359C636.831,869.642 635.91,868.647 635.189,867.652C635.045,867.457 634.911,867.257 634.785,867.061C634.159,866.101 633.716,865.193 633.451,864.589C633.251,864.129 633.156,863.842 633.156,863.842L633.786,864.146L635.888,865.171C635.371,864.541 634.906,863.846 634.485,863.108C634.103,862.443 633.759,861.744 633.451,861.031L633.399,860.909C631.435,856.322 630.844,851.187 630.679,850.544C630.488,851.295 629.689,858.624 626.787,863.373C626.391,864.024 625.953,864.628 625.47,865.163L627.212,864.294L628.438,863.681C628.438,863.681 628.19,864.324 627.712,865.241C627.508,865.632 627.26,866.071 626.969,866.527L626.804,866.783C625.974,868.056 624.836,869.438 623.407,870.35L627.716,870.511C627.716,870.511 624.206,876.367 621.478,878.04C623.424,878.956 626.496,878.843 627.378,878.748C627.378,878.748 624.593,882.636 621.243,884.969C620.431,883.283 620.048,881.811 620.048,881.811L622.494,883.236C621.625,881.663 620.613,878.157 619.766,874.781C619.579,874.047 619.401,873.322 619.236,872.622C619.097,872.04 618.967,871.475 618.845,870.941C618.293,868.525 617.937,866.753 617.937,866.753C617.937,866.753 615.869,876.958 614.418,880.816C614.249,881.285 614.079,881.659 613.927,881.911L614.7,881.667L615.456,881.428C615.456,881.428 615.352,881.984 615.1,882.805C614.991,883.17 614.852,883.592 614.679,884.035C614.535,884.409 614.366,884.795 614.175,885.191C613.636,886.298 612.897,887.432 611.916,888.245L614.974,889.214C614.974,889.214 614.826,889.531 614.579,890.017C614.514,890.139 614.444,890.274 614.366,890.417C613.566,891.916 612.107,894.349 610.79,894.87C611.755,896.03 613.362,896.899 614.57,897.286C614.57,897.286 612.237,902.599 609.139,903.689L614.183,906.439C614.183,906.439 612.281,909.997 608.258,910.897C608.927,912.23 611.338,914.616 612.91,915.246C613.154,915.341 613.375,915.398 613.566,915.402L613.562,915.406L613.593,915.406L667.946,915.45L672.764,915.45L673.012,915.293L673.633,914.894L674.623,914.255L696.546,900.166L696.602,900.127C700.243,897.507 703.119,894.032 705.043,890.074C704.774,889.678 704.626,889.439 704.626,889.439C704.844,889.439 705.095,889.413 705.378,889.361C705.478,889.148 705.569,888.935 705.66,888.723L705.66,888.718C706.03,887.845 706.351,886.959 706.625,886.046C707.272,883.922 707.659,881.711 707.767,879.452C707.793,879.013 707.802,878.574 707.802,878.131L707.763,877.145Z" style="fill:rgb(69,63,53);fill-rule:nonzero;"/>
            </g>
        </g>
        <g transform="matrix(4.16667,0,0,4.16667,0,0)">
            <g transform="matrix(1,0,0,1,-49.1612,1043.62)">
                <path d="M455.185,853.498C455.185,853.498 455.311,853.858 455.533,854.471C455.815,855.244 456.258,856.413 456.81,857.747L456.814,857.755C456.884,857.938 456.962,858.12 457.04,858.307C457.11,858.464 457.175,858.624 457.244,858.785L457.261,858.372L457.279,857.921L457.283,857.79L457.349,856.126L457.431,854.023L457.457,853.333L457.488,852.542L457.488,852.52L455.185,853.498ZM455.185,853.498C455.185,853.498 455.311,853.858 455.533,854.471C455.815,855.244 456.258,856.413 456.81,857.747L456.814,857.755C456.884,857.938 456.962,858.12 457.04,858.307C457.11,858.464 457.175,858.624 457.244,858.785L457.261,858.372L457.279,857.921L457.283,857.79L457.349,856.126L457.431,854.023L457.457,853.333L457.488,852.542L457.488,852.52L455.185,853.498ZM455.185,853.498C455.185,853.498 455.311,853.858 455.533,854.471C455.815,855.244 456.258,856.413 456.81,857.747L456.814,857.755C456.884,857.938 456.962,858.12 457.04,858.307C457.11,858.464 457.175,858.624 457.244,858.785L457.261,858.372L457.279,857.921L457.283,857.79L457.349,856.126L457.431,854.023L457.457,853.333L457.488,852.542L457.488,852.52L455.185,853.498ZM455.185,853.498C455.185,853.498 455.311,853.858 455.533,854.471C455.815,855.244 456.258,856.413 456.81,857.747L456.814,857.755C456.884,857.938 456.962,858.12 457.04,858.307C457.11,858.464 457.175,858.624 457.244,858.785L457.261,858.372L457.279,857.921L457.283,857.79L457.349,856.126L457.431,854.023L457.457,853.333L457.488,852.542L457.488,852.52L455.185,853.498ZM455.185,853.498C455.185,853.498 455.311,853.858 455.533,854.471C455.815,855.244 456.258,856.413 456.81,857.747L456.814,857.755C456.884,857.938 456.962,858.12 457.04,858.307C457.11,858.464 457.175,858.624 457.244,858.785L457.261,858.372L457.279,857.921L457.283,857.79L457.349,856.126L457.431,854.023L457.457,853.333L457.488,852.542L457.488,852.52L455.185,853.498ZM455.75,830.133L455.741,830.338L455.693,831.554C456.241,832.71 457.058,834.287 458.135,835.924L458.313,831.45L455.75,830.133ZM457.657,844.783L457.783,844.987L457.8,844.531L457.657,844.783ZM455.75,830.133L455.741,830.338L455.693,831.554C456.241,832.71 457.058,834.287 458.135,835.924L458.313,831.45L455.75,830.133ZM457.657,844.783L457.783,844.987L457.8,844.531L457.657,844.783ZM457.657,844.783L457.783,844.987L457.8,844.531L457.657,844.783ZM457.657,844.783L457.783,844.987L457.8,844.531L457.657,844.783ZM457.657,844.783L457.783,844.987L457.8,844.531L457.657,844.783ZM702.502,889.344C701.967,890.387 701.359,891.395 700.686,892.35L700.682,892.355C699.157,894.509 697.28,896.421 695.103,897.994L606.793,954.754L597.483,960.736L597.427,960.776C594.99,962.531 592.34,963.873 589.546,964.777C586.757,965.676 583.829,966.141 580.84,966.141C574.866,966.141 569.131,964.286 564.257,960.776L564.226,960.758L554.925,954.78L549.499,951.291L548.699,950.779L502.866,921.319L500.837,920.016L494.65,916.04L493.742,915.458L493.729,915.45L493.629,915.385L466.576,897.994C465.095,896.925 463.752,895.7 462.575,894.344C462.314,894.053 462.066,893.758 461.832,893.458C458.422,889.175 456.493,883.783 456.488,878.157L456.488,878.114L456.562,876.215L456.662,873.665L457.014,864.698L457.019,864.607L457.244,858.785L457.261,858.372L457.279,857.921L457.283,857.79L457.349,856.126L457.431,854.023L457.457,853.333L457.488,852.542L457.488,852.52L457.596,849.731L457.748,845.904L457.77,845.313L457.783,844.987L457.8,844.531L457.887,842.341L458.135,835.924L458.313,831.45L458.37,829.933L461.723,743.818L461.723,743.77C461.723,733.773 467.541,724.932 476.547,721.244C506.828,708.84 544.841,701.729 580.84,701.729C616.842,701.729 654.856,708.84 685.133,721.244C694.139,724.932 699.96,733.773 699.96,743.77L705.122,876.215L705.195,878.114C705.195,878.114 704.24,885.929 702.502,889.344ZM707.763,877.145L707.581,872.505L707.515,870.837L707.515,870.832L707.467,869.542L707.45,869.094L707.45,869.09L707.381,867.309L707.32,865.827L707.32,865.823L707.172,862.009L707.089,859.889L707.024,858.203L706.946,856.257L706.881,854.588L706.672,849.205L706.52,845.222L706.52,845.217L706.46,843.692L706.407,842.393L706.338,840.629L706.247,838.266L706.238,838.053L706.108,834.643L705.969,831.054L705.903,829.386L705.903,829.377L705.873,828.613L702.567,743.744C702.554,732.696 696.102,722.921 686.119,718.833C655.538,706.307 617.168,699.122 580.84,699.122C544.516,699.122 506.141,706.307 475.56,718.833C465.577,722.921 459.125,732.696 459.117,743.744L455.007,849.201L454.794,854.588L454.794,854.627L454.507,862.013L454.212,869.542L454.099,872.509L453.882,878.083L453.882,878.131C453.882,882.058 454.729,885.881 456.302,889.361C456.41,889.6 456.519,889.835 456.636,890.069C457.488,891.816 458.522,893.471 459.729,895C459.968,895.304 460.211,895.6 460.463,895.891C461.819,897.468 463.366,898.893 465.081,900.127L465.108,900.148L488.92,915.45L488.933,915.458L491.348,917.014L492.417,917.7L496.019,920.016L498.43,921.567L554.243,957.443L562.758,962.913C568.076,966.732 574.327,968.748 580.84,968.748C587.356,968.748 593.604,966.732 598.921,962.913L607.475,957.417L663.632,921.319L665.661,920.016L672.764,915.45L673.011,915.293L673.633,914.894L674.624,914.255L696.545,900.166L696.602,900.127C700.243,897.507 703.119,894.031 705.043,890.074C705.161,889.839 705.274,889.6 705.378,889.361C705.478,889.148 705.569,888.935 705.66,888.722L705.66,888.718C706.03,887.845 706.351,886.959 706.625,886.047C707.272,883.922 707.659,881.711 707.767,879.451C707.793,879.013 707.802,878.574 707.802,878.131L707.763,877.145ZM457.657,844.783L457.783,844.987L457.8,844.531L457.657,844.783ZM457.657,844.783L457.783,844.987L457.8,844.531L457.657,844.783ZM457.657,844.783L457.783,844.987L457.8,844.531L457.657,844.783ZM455.75,830.133L455.741,830.338L455.693,831.554C456.241,832.71 457.058,834.287 458.135,835.924L458.313,831.45L455.75,830.133ZM457.657,844.783L457.783,844.987L457.8,844.531L457.657,844.783ZM455.75,830.133L455.741,830.338L455.693,831.554C456.241,832.71 457.058,834.287 458.135,835.924L458.313,831.45L455.75,830.133ZM455.185,853.498C455.185,853.498 455.311,853.858 455.533,854.471C455.815,855.244 456.258,856.413 456.81,857.747L456.814,857.755C456.884,857.938 456.962,858.12 457.04,858.307C457.11,858.464 457.175,858.624 457.244,858.785L457.261,858.372L457.279,857.921L457.283,857.79L457.349,856.126L457.431,854.023L457.457,853.333L457.488,852.542L457.488,852.52L455.185,853.498ZM455.185,853.498C455.185,853.498 455.311,853.858 455.533,854.471C455.815,855.244 456.258,856.413 456.81,857.747L456.814,857.755C456.884,857.938 456.962,858.12 457.04,858.307C457.11,858.464 457.175,858.624 457.244,858.785L457.261,858.372L457.279,857.921L457.283,857.79L457.349,856.126L457.431,854.023L457.457,853.333L457.488,852.542L457.488,852.52L455.185,853.498ZM455.185,853.498C455.185,853.498 455.311,853.858 455.533,854.471C455.815,855.244 456.258,856.413 456.81,857.747L456.814,857.755C456.884,857.938 456.962,858.12 457.04,858.307C457.11,858.464 457.175,858.624 457.244,858.785L457.261,858.372L457.279,857.921L457.283,857.79L457.349,856.126L457.431,854.023L457.457,853.333L457.488,852.542L457.488,852.52L455.185,853.498ZM455.185,853.498C455.185,853.498 455.311,853.858 455.533,854.471C455.815,855.244 456.258,856.413 456.81,857.747L456.814,857.755C456.884,857.938 456.962,858.12 457.04,858.307C457.11,858.464 457.175,858.624 457.244,858.785L457.261,858.372L457.279,857.921L457.283,857.79L457.349,856.126L457.431,854.023L457.457,853.333L457.488,852.542L457.488,852.52L455.185,853.498ZM455.185,853.498C455.185,853.498 455.311,853.858 455.533,854.471C455.815,855.244 456.258,856.413 456.81,857.747L456.814,857.755C456.884,857.938 456.962,858.12 457.04,858.307C457.11,858.464 457.175,858.624 457.244,858.785L457.261,858.372L457.279,857.921L457.283,857.79L457.349,856.126L457.431,854.023L457.457,853.333L457.488,852.542L457.488,852.52L455.185,853.498Z" style="fill:rgb(65,64,67);fill-rule:nonzero;"/>
            </g>
        </g>
        <g transform="matrix(4.16667,0,0,4.16667,0,0)">
            <g transform="matrix(1,0,0,1,-49.1612,1043.62)">
                <path d="M555.637,884.856C554.969,884.952 553.774,885.92 553.417,887.158C553.426,886.972 553.517,885.994 554.36,885.16C555.164,884.37 556.341,884.695 556.658,884.804C556.337,884.791 555.998,884.804 555.637,884.856ZM602.783,867.068L602.749,855.423L590.321,855.345L589.295,860.004L588.241,855.423L585.359,855.423L580.851,855.423L585.401,854.699L585.43,854.579C586.109,853.644 586.354,852.324 586.426,850.947C584.161,851.38 581.999,851.475 579.066,850.944C581.098,851.102 583.128,850.918 584.85,850.636C586.626,850.418 588.148,850.093 589.121,849.682C593.057,848.021 588.54,845.137 586.868,844.231C586.724,844.282 586.572,844.323 586.423,844.368C586.27,844.415 586.118,844.462 585.961,844.503C585.856,844.53 585.748,844.552 585.641,844.577C585.477,844.614 585.313,844.653 585.146,844.684C585.039,844.704 584.93,844.719 584.822,844.736C584.653,844.763 584.485,844.792 584.315,844.812C584.202,844.826 584.088,844.834 583.975,844.845C583.809,844.861 583.644,844.878 583.479,844.888C583.355,844.895 583.232,844.896 583.109,844.9C582.954,844.905 582.799,844.912 582.646,844.912C582.507,844.911 582.37,844.903 582.232,844.898C582.098,844.893 581.961,844.892 581.828,844.883C581.663,844.872 581.504,844.852 581.342,844.834C581.24,844.823 581.136,844.816 581.036,844.802C580.778,844.766 580.526,844.722 580.284,844.668L580.28,844.668L580.284,844.668C580.518,844.693 580.744,844.713 580.964,844.729L581.189,844.74C581.329,844.748 581.471,844.757 581.605,844.762L581.858,844.766C581.975,844.768 582.092,844.771 582.204,844.771L582.458,844.766C582.56,844.763 582.664,844.762 582.762,844.758L583.009,844.744C583.1,844.738 583.192,844.733 583.279,844.726L583.514,844.703L583.756,844.678L583.981,844.647L584.194,844.616L584.407,844.579L584.595,844.543L584.792,844.5L584.958,844.462L585.142,844.413L585.284,844.374L585.454,844.322L585.574,844.284L585.732,844.228L585.829,844.193L585.974,844.135L586.05,844.103L586.18,844.045L586.238,844.018L586.355,843.961L586.393,843.941L586.495,843.886L586.507,843.88L586.56,843.85L585.825,840.262C585.65,839.408 584.899,838.795 584.027,838.795L582.756,838.795C580.712,839.251 578.375,839.764 578.375,839.764C578.375,839.764 579.837,839.26 581.21,838.795L577.537,838.795C576.363,838.795 575.329,839.567 574.999,840.694C574.674,841.802 574.287,843.195 574.047,844.299C572.639,844.794 567.226,847.217 570.101,849.28C570.902,849.855 572.248,850.267 573.876,850.538C573.952,851.873 574.191,853.032 574.948,854.087C575.005,854.168 575.058,854.725 575.109,855.423L572.444,855.423L571.888,860.309L570.936,855.502L558.943,855.423L558.978,867.068L566.54,868.327C566.43,868.482 564.926,870.617 564.709,872.14L560.175,886.265L559.834,885.868C559.834,885.868 558.613,884.899 556.745,884.808C556.741,884.561 556.658,882.271 555.194,881.467L555.524,877.575L554.669,877.501L554.356,881.211L554.334,881.207L554.352,881.272L554.352,881.285C554.438,881.606 554.643,881.945 555.086,882.041L554.895,882.006L554.829,881.984L554.673,881.928L554.638,881.906C554.512,881.845 554.408,881.763 554.317,881.672C554.191,881.537 554.1,881.385 554.039,881.211C552.661,881.372 552.323,883.444 552.301,885.104C552.297,885.482 552.345,885.79 552.423,886.047C552.583,886.598 552.883,886.894 553.113,887.046L553.118,887.046C553.265,887.146 553.383,887.18 553.409,887.189C553.265,887.697 553.27,888.249 553.505,888.805L553.505,888.814L553.507,888.82L548.559,952.577L549.385,952.758L554.269,889.991L554.269,889.995C555.946,892.32 559.921,897.333 564.04,895.656C565.56,895.04 566.564,893.571 566.803,891.946L568.399,883.279L568.252,890.961C568.224,892.448 568.769,893.885 569.769,894.987C571.307,896.682 572.284,897.817 575.488,899.138C576.393,899.482 578.366,899.835 578.366,899.835C578.366,899.835 576.094,899.726 575.307,899.428C572.248,898.571 571.186,897.887 569.548,896.168L569.418,898.839L567.816,932.222L566.917,955.756L567.157,955.877C568.052,956.141 570.417,956.705 572.816,956.137C570.424,956.832 568.509,956.823 567.454,956.731C567.287,957.332 567.19,957.832 566.93,958.646C566.757,959.187 566.873,960.277 566.959,960.553C567.19,961.29 567.19,961.29 567.581,961.29L575.762,961.29C576.461,960.392 576.356,958.509 575.759,957.047C575.67,956.829 575.818,956.689 575.802,956.278L576.851,956.12L578.602,931.234C578.602,931.234 579.96,912.056 580.865,911.989C581.807,911.92 583.388,931.788 583.388,931.788L585.244,955.662C585.771,955.838 588.457,956.655 591.184,956.009C588.902,956.671 587.052,956.694 585.97,956.615L585.942,956.678C585.282,958.193 584.998,960.315 585.757,961.29L593.939,961.29C594.33,961.29 594.33,961.29 594.56,960.553C594.708,960.08 594.442,958.741 594.233,957.844C594.09,957.232 594.053,956.039 594.053,956.039L594.764,955.756L593.912,931.511L593.226,908.767C593.069,904.696 592.583,898.009 592.583,898.009L592.49,895.384C590.381,898.966 586.998,899.535 583.218,899.862C582.756,899.91 582.073,899.883 581.57,899.898C582.048,899.872 582.725,899.752 583.205,899.711C587.001,899.322 589.569,897.891 591.224,896.273C592.565,894.963 593.716,891.901 593.801,890.028L593.801,884.2L593.745,881.767L593.848,882.862L595.746,890.573L595.008,904.034L595.539,904.489L595.528,905.255L594.687,908.252L594.687,909.083L595.057,909.083C594.978,910.108 594.934,911.231 594.975,912.31C594.987,912.61 595.295,912.808 595.577,912.704L597.551,911.973L599.729,908.959C599.729,908.959 600.344,906.869 599.975,904.839L599.98,904.484L596.45,904.484L600.394,904.034L601.291,888.545L601.253,887.742C600.519,888.815 600.184,889.503 598.636,890.492C600.48,889.248 600.612,886.479 601.02,884.826C601.02,884.826 599.284,875.544 598.399,872.517C597.916,870.867 597.243,869.273 596.382,867.945C599.05,867.574 602.21,867.136 602.404,867.113L602.783,867.068Z" style="fill:rgb(69,63,53);fill-rule:nonzero;"/>
            </g>
        </g>
        <g transform="matrix(4.16667,0,0,4.16667,0,0)">
            <g transform="matrix(1,0,0,1,-49.1612,1043.62)">
                <path d="M459.325,805.404L461.557,748.075L685.444,721.375C694.273,725.139 699.958,733.89 699.958,743.768L701.235,776.555L459.325,805.404ZM703.833,776.245L702.567,743.744C702.559,736.592 699.852,729.973 695.236,725.086C699.852,729.973 702.559,736.592 702.567,743.744L703.833,776.245Z" style="fill:rgb(110,159,150);fill-rule:nonzero;"/>
            </g>
        </g>
        <g transform="matrix(4.16667,0,0,4.16667,0,0)">
            <g transform="matrix(1,0,0,1,-49.1612,1043.62)">
                <path d="M452.677,806.196L452.83,802.268L454.914,748.867L455.068,748.849L458.935,748.387L456.701,805.716L452.83,806.178L452.677,806.196ZM703.833,776.245L702.567,743.744C702.559,736.592 699.852,729.973 695.236,725.086C693.701,723.461 691.955,722.027 690.028,720.829L691.028,720.709L695.82,720.139C702.538,725.869 706.568,734.423 706.568,743.77L707.663,771.879L707.815,775.77L707.663,775.788L703.833,776.245Z" style="fill:rgb(201,179,151);fill-rule:nonzero;"/>
            </g>
        </g>
        <g transform="matrix(4.16667,0,0,4.16667,0,0)">
            <g transform="matrix(1,0,0,1,-49.1612,1043.62)">
                <path d="M447.647,806.795L449.88,749.466L454.914,748.867L452.83,802.268L452.677,806.196L447.647,806.795ZM707.815,775.77L707.663,771.879L706.568,743.77C706.568,734.423 702.538,725.869 695.82,720.139L698.805,719.784C706.868,726.518 711.734,736.714 711.734,747.68L712.807,775.176L707.815,775.77Z" style="fill:rgb(57,56,57);fill-rule:nonzero;"/>
            </g>
        </g>
        <g transform="matrix(4.16667,0,0,4.16667,0,0)">
            <g transform="matrix(1,0,0,1,-49.1612,1043.62)">
                <path d="M456.701,805.716L458.935,748.387L458.936,748.387L456.702,805.716L456.701,805.716ZM701.235,776.555L699.958,743.768C699.958,733.89 694.273,725.139 685.444,721.375L685.447,721.375C694.274,725.139 699.96,733.89 699.96,743.77L701.238,776.555L701.235,776.555ZM695.236,725.086C693.701,723.461 691.955,722.027 690.027,720.829L690.028,720.829C691.955,722.027 693.701,723.461 695.236,725.086Z" style="fill:rgb(57,56,57);fill-rule:nonzero;"/>
            </g>
        </g>
        <g transform="matrix(4.16667,0,0,4.16667,0,0)">
            <g transform="matrix(1,0,0,1,-49.1612,1043.62)">
                <path d="M456.702,805.716L458.936,748.387L461.557,748.075L459.325,805.404L456.702,805.716ZM701.238,776.555L699.96,743.77C699.96,733.89 694.274,725.139 685.447,721.375L690.027,720.829C691.955,722.027 693.701,723.461 695.236,725.086C699.852,729.973 702.559,736.592 702.567,743.744L703.833,776.245L701.238,776.555Z" style="fill:rgb(57,56,57);fill-rule:nonzero;"/>
            </g>
        </g>
        <g transform="matrix(4.16667,0,0,4.16667,0,0)">
            <g transform="matrix(1,0,0,1,-49.1612,1043.62)">
                <path d="M742.447,767.286L419.235,805.829L419.235,753.569L742.447,715.026L742.447,767.286Z" style="fill:rgb(227,117,76);fill-rule:nonzero;"/>
            </g>
        </g>
        <g transform="matrix(4.16667,0,0,4.16667,0,0)">
            <g transform="matrix(1,0,0,1,-49.1612,1043.62)">
                <path d="M455.12,779.579L456.471,779.413C458.15,779.207 460.832,778.713 460.828,778.079L458.119,766.989C457.628,767.049 456.654,769.265 456.136,771.632L454.551,778.707L455.12,779.579ZM449.971,761.868C450.093,761.654 450.174,761.486 450.296,761.351L453.735,760.929C456.15,760.633 458.442,760.271 460.857,759.975L464.296,759.552C465.115,759.452 466.177,759.354 466.181,760.107L475.806,787.934C475.81,788.45 475.497,788.67 474.392,788.805L472.509,789.036C470.871,789.238 469.275,789.474 467.637,789.675C466.205,789.851 463.136,790.545 462.761,789.599L462.753,788.289C462.5,787.129 461.754,785.752 460.935,785.852L453.894,786.717L452.856,791.054C452.654,791.515 451.672,791.675 450.566,791.811L448.929,792.012C447.168,792.229 445.45,792.559 443.69,792.775L443.116,792.846C442.421,792.931 441.766,793.051 440.988,793.146C440.782,792.973 440.617,792.756 440.41,792.503C443.155,782.079 446.726,772.041 449.971,761.868Z" style="fill:rgb(245,240,215);fill-rule:nonzero;"/>
            </g>
        </g>
        <g transform="matrix(4.16667,0,0,4.16667,0,0)">
            <g transform="matrix(1,0,0,1,-49.1612,1043.62)">
                <path d="M495.667,770.67L495.66,769.44C495.631,764.785 494.051,762.554 488.901,763.044C488.699,763.506 488.455,763.853 488.253,764.314L488.26,765.267C488.271,767.195 487.879,780.127 489.089,780.173C494.922,779.457 495.694,774.928 495.667,770.67ZM482.925,757.266L485.217,756.985C486.527,756.824 487.714,756.599 488.901,756.453C493.609,755.874 499.385,755.721 502.881,757.991L503.622,758.536C504.528,759.219 507.785,762.511 507.825,769.137C507.887,779.016 500.676,785.659 492.775,786.629L492.12,786.709C490.36,786.925 488.64,787.057 486.88,787.274C483.728,787.661 480.699,788.073 477.588,788.574C477.174,787.831 477.09,787.563 477.086,786.888L476.913,758.878C476.906,757.804 481.749,757.411 482.925,757.266Z" style="fill:rgb(245,240,215);fill-rule:nonzero;"/>
            </g>
        </g>
        <g transform="matrix(4.16667,0,0,4.16667,0,0)">
            <g transform="matrix(1,0,0,1,-49.1612,1043.62)">
                <path d="M506.97,754.474C510.9,753.992 514.664,753.45 518.472,752.982C518.8,752.941 519.128,753.02 519.458,753.417L523.101,772.742C523.653,769.339 524.615,765.886 525.291,762.507L527.276,752.337C527.397,751.965 531.981,751.283 535.666,750.83L538.94,750.428C539.268,750.507 539.394,750.849 539.436,751.042L534.941,767.672C534.263,770.46 532.489,781.133 530.574,781.989C529.1,782.169 527.667,782.227 526.193,782.407L524.719,782.589C521.526,783.258 518.286,783.539 515.175,784.04L506.272,755.14C506.27,754.703 506.601,754.52 506.97,754.474Z" style="fill:rgb(245,240,215);fill-rule:nonzero;"/>
            </g>
        </g>
        <g transform="matrix(4.16667,0,0,4.16667,0,0)">
            <g transform="matrix(1,0,0,1,-49.1612,1043.62)">
                <path d="M540.876,778.701C540.834,771.916 540.957,765.429 540.916,758.645L540.865,750.432L564.69,747.506L564.731,754.012C564.735,754.806 564.905,755.777 563.514,755.949L562.941,756.019C559.666,756.421 556.554,756.764 553.278,757.047C553.162,758.133 552.963,759.15 552.97,760.221L562.713,759.025C563.573,758.919 563.738,759.137 563.741,759.574C563.742,759.772 563.703,760.015 563.704,760.213C563.716,762.118 563.85,763.927 563.862,765.832C563.823,766.115 563.7,766.249 563.537,766.269L563.331,766.215C560.098,766.771 557.029,767.306 553.754,767.709L553.222,767.774L553.239,770.631C556.842,770.188 560.197,769.458 563.676,769.031C564.331,768.951 565.069,768.979 565.235,769.395L565.245,770.903C565.256,772.807 565.35,774.622 565.361,776.527C565.364,777.003 565.204,777.539 564.549,777.619C562.379,777.886 560.168,778.118 557.917,778.394C552.39,779.073 546.988,780.014 541.544,780.723L540.967,780.158C540.924,779.886 540.882,779.653 540.881,779.455L540.876,778.701Z" style="fill:rgb(245,240,215);fill-rule:nonzero;"/>
            </g>
        </g>
        <g transform="matrix(4.16667,0,0,4.16667,0,0)">
            <g transform="matrix(1,0,0,1,-49.1612,1043.62)">
                <path d="M598.473,743.318L598.474,743.398L598.473,743.318ZM567.327,768.028C567.246,761.725 567.413,755.551 567.537,749.222L567.528,747.596C567.526,747.397 567.607,747.11 567.689,747.06L581.771,745.33C582.221,745.275 584.306,751.054 585.427,753.537L588.337,760.445L588.289,752.748C588.274,750.209 588.381,747.615 588.323,744.962C588.32,744.486 589.835,744.22 591.595,744.004C593.437,743.778 595.566,743.596 596.59,743.47L598.146,743.279C598.35,743.254 598.473,743.318 598.473,743.358C598.631,748.858 598.662,753.896 598.695,759.133L598.78,772.9C598.66,773.352 598.087,773.501 597.473,773.577L596.941,773.642C594.812,773.903 592.807,774.229 590.678,774.491L584.66,775.23C584.414,775.181 583.957,774.125 583.458,772.876C581.792,768.714 580.072,764.612 578.383,760.476C578.397,762.817 578.37,765.124 578.385,767.464C578.396,769.21 578.489,770.945 578.499,772.691L578.514,775.191C578.517,775.627 578.315,776.128 577.702,776.204L568.286,777.36L567.382,776.995L567.327,768.028Z" style="fill:rgb(245,240,215);fill-rule:nonzero;"/>
            </g>
        </g>
        <g transform="matrix(4.16667,0,0,4.16667,0,0)">
            <g transform="matrix(1,0,0,1,-49.1612,1043.62)">
                <path d="M600.667,747.022C600.664,746.705 600.578,746.04 600.574,745.247C600.567,744.175 600.602,743.139 600.97,743.093C601.011,743.088 601.134,743.074 601.257,743.098C609.772,742.052 618.122,740.828 626.513,739.797C627.987,739.616 628.112,739.839 628.115,740.474L628.119,741.029C628.132,743.092 628.185,745.031 628.198,747.134C628.201,747.69 628.122,748.176 627.631,748.236C625.338,748.518 623.086,748.715 620.794,748.996L620.926,770.262C620.846,770.629 620.684,770.887 620.234,770.982C618.801,771.158 617.491,771.279 616.058,771.455L615.976,771.505C614.216,771.721 612.66,771.872 611.023,772.074L609.794,772.225C609.385,772.315 608.976,772.365 608.607,772.41L607.783,771.559C607.746,765.528 608.119,759.606 608.081,753.576C608.035,752.589 608.188,750.863 607.041,751.003L601.187,751.723C600.736,751.659 600.605,750.285 600.597,749.055C600.593,748.381 600.67,747.578 600.667,747.022Z" style="fill:rgb(245,240,215);fill-rule:nonzero;"/>
            </g>
        </g>
        <g transform="matrix(4.16667,0,0,4.16667,0,0)">
            <g transform="matrix(1,0,0,1,-49.1612,1043.62)">
                <path d="M629.88,744.785L629.879,744.547C629.876,744.111 629.788,743.169 629.782,742.137C629.774,740.987 629.807,739.712 630.174,739.389C630.379,739.364 630.584,739.379 630.789,739.354C633.367,738.917 636.028,738.551 638.77,738.214L641.554,737.872C641.882,737.872 642.17,738.035 642.375,738.01C642.479,741.635 642.664,745.135 642.647,748.895L642.695,756.632C642.704,758.099 642.757,760.118 644.518,759.901C645.705,759.756 646.435,758.515 646.427,757.325L646.382,750.064C646.323,747.093 646.47,744.376 646.369,741.41L646.361,739.982C646.358,739.545 646.273,739.119 646.27,738.643L646.265,737.69C646.303,737.368 646.589,737.135 646.794,737.07C650.846,736.572 654.653,736.144 658.583,735.701L658.585,736.018L659.486,735.908C659.383,739.097 659.364,742.593 659.383,745.767L659.411,750.211C659.422,751.996 659.352,753.91 659.363,755.696C659.418,764.583 652.022,767.714 644.859,768.595C638.063,769.43 630.272,768.361 629.889,759.356C629.899,754.471 629.911,749.745 629.88,744.785Z" style="fill:rgb(245,240,215);fill-rule:nonzero;"/>
            </g>
        </g>
        <g transform="matrix(4.16667,0,0,4.16667,0,0)">
            <g transform="matrix(1,0,0,1,-49.1612,1043.62)">
                <path d="M676.43,746.693C678.518,746.437 681.092,745.366 681.073,742.311C681.057,739.732 677.904,740.08 676.513,740.251L676.022,740.311C675.572,740.565 675.535,741.205 675.541,742.197C675.551,743.704 675.524,745.931 676.43,746.693ZM685.175,762.89C684.478,762.976 683.783,763.061 683.168,763.097L681.122,763.349C680.137,763.152 679.739,758.397 679.4,756.612C679.26,753.929 678.602,753.494 676.637,753.735L675.736,753.846L675.797,763.526C675.679,764.414 671.952,764.634 670.356,764.83L667.408,765.192C666.139,765.348 664.911,765.499 663.642,765.694C663.437,765.64 663.273,765.581 663.068,765.487L662.884,735.89C662.881,735.414 663.658,735.239 664.518,735.133L682.367,732.941C688.59,732.335 691.883,734.75 691.913,739.63C691.934,743.082 690.065,745.495 686.962,747.266C692.048,748.189 691.715,753.948 692.23,757.776L692.241,759.521C692.368,760.101 692.862,760.596 693.029,761.171C693.031,761.449 692.991,761.573 692.868,761.588C691.888,762.665 686.722,762.7 685.175,762.89Z" style="fill:rgb(245,240,215);fill-rule:nonzero;"/>
            </g>
        </g>
        <g transform="matrix(4.16667,0,0,4.16667,0,0)">
            <g transform="matrix(1,0,0,1,-49.1612,1043.62)">
                <path d="M694.914,759.79C694.872,753.006 694.995,746.519 694.954,739.735L694.903,731.522L718.728,728.596L718.769,735.102C718.774,735.896 718.944,736.867 717.552,737.038L716.979,737.109C713.704,737.511 710.592,737.854 707.316,738.137C707.2,739.223 707.001,740.24 707.008,741.311L716.751,740.115C717.611,740.009 717.776,740.227 717.779,740.663C717.78,740.862 717.741,741.105 717.742,741.303C717.754,743.208 717.888,745.018 717.9,746.922C717.861,747.205 717.739,747.339 717.575,747.359L717.369,747.305C714.137,747.86 711.067,748.396 707.792,748.799L707.26,748.864L707.278,751.721C710.88,751.278 714.235,750.548 717.715,750.121C718.37,750.04 719.107,750.069 719.273,750.485L719.283,751.993C719.295,753.897 719.388,755.712 719.4,757.616C719.403,758.093 719.242,758.628 718.587,758.709C716.417,758.976 714.207,759.207 711.955,759.484C706.429,760.163 701.027,761.104 695.582,761.813L695.005,761.248C694.962,760.976 694.92,760.743 694.919,760.544L694.914,759.79Z" style="fill:rgb(245,240,215);fill-rule:nonzero;"/>
            </g>
        </g>
        <g transform="matrix(4.16667,0,0,4.16667,0,0)">
            <g transform="matrix(1,0,0,1,-49.1612,1043.62)">
                <path d="M593.758,882.381C593.714,882.38 592.3,868.462 592.3,868.462L596.382,867.945L596.855,868.738L593.332,869.657C593.332,869.657 593.745,881.767 593.759,882.364C593.759,882.376 593.759,882.382 593.758,882.381Z" style="fill:rgb(63,57,48);fill-rule:nonzero;"/>
            </g>
        </g>
        <g transform="matrix(4.16667,0,0,4.16667,0,0)">
            <g transform="matrix(1,0,0,1,-49.1612,1043.62)">
                <path d="M568.385,883.29C568.323,883.29 568.375,882.482 568.492,881.25C568.501,882.389 568.476,883.172 568.399,883.279C568.394,883.287 568.389,883.29 568.385,883.29ZM568.492,881.25C568.464,877.491 568.08,869.856 568.08,869.856L565.862,869.38L566.54,868.327L569.89,869.06C569.89,869.06 568.865,877.315 568.492,881.25Z" style="fill:rgb(63,57,48);fill-rule:nonzero;"/>
            </g>
        </g>
        <g transform="matrix(4.16667,0,0,4.16667,0,0)">
            <g transform="matrix(1,0,0,1,-49.1612,1043.62)">
                <path d="M581.113,875.478C577.441,875.478 573.768,875.046 570.173,874.182C570.223,873.971 570.274,873.76 570.325,873.549C573.87,874.4 577.492,874.826 581.113,874.826C584.735,874.826 588.356,874.4 591.902,873.549C591.953,873.76 592.004,873.971 592.054,874.182C588.458,875.046 584.786,875.478 581.113,875.478Z" style="fill:rgb(63,57,48);fill-rule:nonzero;"/>
            </g>
        </g>
        <g transform="matrix(4.16667,0,0,4.16667,0,0)">
            <g transform="matrix(1,0,0,1,-49.1612,1043.62)">
                <path d="M581.113,879.822C577.441,879.822 573.768,879.39 570.173,878.527C570.223,878.316 570.274,878.105 570.325,877.893C573.87,878.745 577.492,879.17 581.113,879.17C584.735,879.17 588.356,878.745 591.902,877.893C591.953,878.105 592.004,878.316 592.054,878.527C588.458,879.39 584.786,879.822 581.113,879.822Z" style="fill:rgb(63,57,48);fill-rule:nonzero;"/>
            </g>
        </g>
        <g transform="matrix(4.16667,0,0,4.16667,0,0)">
            <g transform="matrix(1,0,0,1,-49.1612,1043.62)">
                <path d="M581.113,884.167C577.441,884.167 573.768,883.735 570.173,882.871C570.223,882.66 570.274,882.449 570.325,882.238C573.87,883.089 577.492,883.515 581.113,883.515C584.735,883.515 588.356,883.089 591.902,882.238C591.953,882.449 592.004,882.66 592.054,882.871C588.458,883.735 584.786,884.167 581.113,884.167Z" style="fill:rgb(63,57,48);fill-rule:nonzero;"/>
            </g>
        </g>
        <g transform="matrix(4.16667,0,0,4.16667,0,0)">
            <g transform="matrix(1,0,0,1,-49.1612,1043.62)">
                <path d="M581.113,888.511C577.441,888.511 573.768,888.079 570.173,887.216C570.223,887.005 570.274,886.793 570.325,886.582C573.87,887.434 577.492,887.859 581.113,887.859C584.735,887.859 588.356,887.434 591.902,886.582C591.953,886.793 592.004,887.005 592.054,887.216C588.458,888.079 584.786,888.511 581.113,888.511Z" style="fill:rgb(63,57,48);fill-rule:nonzero;"/>
            </g>
        </g>
        <g transform="matrix(4.16667,0,0,4.16667,0,0)">
            <g transform="matrix(1,0,0,1,-49.1612,1043.62)">
                <path d="M581.113,892.855C577.441,892.855 573.768,892.424 570.173,891.56C570.223,891.349 570.274,891.138 570.325,890.927C573.87,891.778 577.492,892.204 581.113,892.204C584.735,892.204 588.356,891.778 591.902,890.927C591.953,891.138 592.004,891.349 592.054,891.56C588.458,892.424 584.786,892.855 581.113,892.855Z" style="fill:rgb(63,57,48);fill-rule:nonzero;"/>
            </g>
        </g>
        <g transform="matrix(4.16667,0,0,4.16667,0,0)">
            <g transform="matrix(1,0,0,1,-49.1612,1043.62)">
                <path d="M560.175,886.265C560.175,886.265 560.296,889.153 562.324,890.927C560.115,888.935 560.563,885.056 560.563,885.056L560.175,886.265Z" style="fill:rgb(141,154,139);fill-rule:nonzero;"/>
            </g>
        </g>
        <g transform="matrix(4.16667,0,0,4.16667,0,0)">
            <g id="_Image7_" serif:id="_Image7" transform="matrix(0.238685,0,0,0.238402,844.852,1904.69)">
                <clipPath id="_clip1">
                    <path d="M-3709.9,-3090.2L-3692.46,-3084.85L-3663.55,-3066.76L-3657.59,-3054.34L-3709.9,-3090.2ZM-3503.78,-3072.27C-3505.98,-3072.74 -3508.18,-3072.58 -3510.53,-3072.43C-3516.19,-3072.11 -3521.85,-3071.8 -3524.2,-3079.35C-3527.66,-3090.05 -3523.1,-3104.67 -3535.04,-3098.54C-3546.98,-3092.4 -3555.47,-3092.4 -3553.11,-3102.31C-3550.91,-3112.22 -3549.34,-3121.19 -3554.84,-3125.12C-3560.34,-3128.9 -3561.59,-3142.58 -3557.67,-3150.29L-3490.74,-3070.54C-3490.74,-3070.54 -3496.24,-3071.01 -3503.78,-3072.27ZM-3489.01,-3246.55L-3487.44,-3247.65L-3488.7,-3246.55L-3489.01,-3246.55ZM-3522.79,-3252.37C-3525.46,-3252.37 -3528.13,-3252.53 -3530.64,-3252.69C-3533.94,-3252.84 -3537.08,-3253.16 -3540.39,-3253.47C-3544.47,-3253.78 -3548.4,-3254.26 -3552.32,-3254.89C-3556.57,-3255.52 -3560.65,-3256.15 -3564.74,-3256.93C-3567.56,-3257.41 -3570.39,-3258.03 -3573.06,-3258.5C-3576.05,-3259.29 -3579.03,-3259.92 -3581.86,-3260.55C-3585.94,-3261.49 -3590.19,-3262.59 -3594.27,-3263.85C-3597.88,-3264.95 -3601.65,-3266.05 -3605.11,-3267.31C-3610.14,-3269.05 -3614.85,-3270.77 -3619.25,-3272.66C-3626.48,-3275.49 -3632.92,-3278.64 -3638.73,-3281.94L-3641.56,-3283.51C-3649.89,-3288.39 -3656.8,-3293.42 -3661.83,-3298.61L-3662.3,-3299.09C-3665.91,-3302.7 -3669.21,-3306.95 -3672.51,-3311.51C-3676.12,-3316.7 -3679.58,-3322.21 -3682.88,-3328.18C-3709.9,-3377.58 -3725.29,-3453.55 -3729.07,-3495.86C-3730.32,-3508.76 -3734.25,-3527 -3736.77,-3537.54L-3736.29,-3537.23C-3737.08,-3540.53 -3737.24,-3543.52 -3736.29,-3545.88L-3736.29,-3546.03L-3736.45,-3546.19L-3736.14,-3547.29L-3736.14,-3547.92L-3735.82,-3548.24L-3735.51,-3548.87L-3734.88,-3549.65L-3734.25,-3550.59L-3733.46,-3551.38L-3731.58,-3552.8C-3729.07,-3554.84 -3726.08,-3556.42 -3722.94,-3557.68C-3716.66,-3560.35 -3709.9,-3562.39 -3703.14,-3564.12C-3699.53,-3565.07 -3695.76,-3565.85 -3691.99,-3566.64L-3689.16,-3567.58C-3686.8,-3568.21 -3683.82,-3568.69 -3680.37,-3569L-3677.54,-3569.32L-3677.54,-3569.47C-3672.35,-3570.41 -3667.32,-3571.04 -3662.3,-3571.83C-3634.8,-3575.76 -3607.47,-3577.81 -3581.08,-3578.91C-3567.72,-3579.54 -3554.68,-3580.01 -3541.96,-3580.17C-3529.23,-3580.33 -3516.82,-3580.33 -3504.56,-3580.33C-3480.37,-3580.17 -3457.43,-3579.22 -3436.22,-3578.28C-3423.5,-3577.65 -3411.4,-3576.87 -3400.09,-3575.76C-3398.99,-3577.96 -3396.95,-3581.9 -3393.96,-3585.67C-3389.56,-3591.49 -3383.28,-3597.15 -3376.05,-3596.68C-3372.75,-3596.53 -3369.61,-3595.11 -3366.78,-3592.43C-3366.16,-3595.74 -3366.94,-3598.73 -3366.94,-3599.04C-3367.41,-3601.4 -3366,-3603.76 -3363.64,-3604.24C-3361.28,-3604.7 -3358.93,-3603.29 -3358.46,-3600.93C-3357.51,-3597.15 -3357.36,-3590.86 -3359.87,-3585.67C-3361.44,-3582.05 -3364.43,-3579.07 -3369.14,-3577.49C-3374.79,-3575.61 -3378.57,-3577.34 -3380.76,-3579.07C-3382.34,-3580.33 -3383.28,-3581.9 -3384.22,-3583.47L-3381.39,-3585.67C-3379.67,-3586.77 -3377.78,-3587.4 -3376.37,-3587.09L-3374.95,-3585.67L-3372.28,-3585.67L-3371.81,-3585.83C-3368.51,-3586.93 -3367.25,-3589.76 -3366.78,-3592.43C-3367.57,-3589.29 -3370.56,-3586.62 -3373.07,-3586.3L-3376.53,-3587.88C-3378.25,-3588.03 -3380.14,-3587.09 -3382.02,-3585.67C-3385.32,-3583.16 -3388.47,-3578.75 -3390.66,-3574.98C-3386.58,-3574.5 -3382.49,-3574.03 -3378.57,-3573.56C-3373.54,-3572.93 -3368.82,-3572.3 -3364.27,-3571.52C-3364.27,-3571.52 -3366,-3575.76 -3366.78,-3577.34C-3363.64,-3578.91 -3361.76,-3581.43 -3360.34,-3584.1C-3358.3,-3580.33 -3356.26,-3575.61 -3354.37,-3569.94C-3352.33,-3569.47 -3350.44,-3569.16 -3348.56,-3568.69C-3343.53,-3567.74 -3338.98,-3566.64 -3334.73,-3565.54C-3322.95,-3562.23 -3313.68,-3558.46 -3308.65,-3554.21C-3306.14,-3552.17 -3304.57,-3550.13 -3304.1,-3548.55L-3303.63,-3546.19L-3303.63,-3546.03L-3304.1,-3543.83L-3304.57,-3542.89C-3304.88,-3541.95 -3305.51,-3540.22 -3305.98,-3538.17C-3306.3,-3536.13 -3308.5,-3529.52 -3309.13,-3526.06L-3309.28,-3525.9C-3310.38,-3521.97 -3311.33,-3518.66 -3311.33,-3518.66C-3311.33,-3518.51 -3311.33,-3518.51 -3311.33,-3518.35C-3312.74,-3510.49 -3314.15,-3502.47 -3314.78,-3495.86C-3316.19,-3479.82 -3319.18,-3458.9 -3323.74,-3436.4L-3323.89,-3435.77C-3326.72,-3421.77 -3330.33,-3407.15 -3334.58,-3392.83C-3334.58,-3392.68 -3334.58,-3392.52 -3334.73,-3392.36C-3334.89,-3391.73 -3335.05,-3391.1 -3335.21,-3390.63C-3345.73,-3355.24 -3360.34,-3321.42 -3379.35,-3301.44L-3379.35,-3301.29C-3379.82,-3300.82 -3380.14,-3300.5 -3380.45,-3300.19C-3381.08,-3299.56 -3381.55,-3299.09 -3382.02,-3298.61C-3387.36,-3293.42 -3393.02,-3288.7 -3398.99,-3284.62C-3399.15,-3284.46 -3399.3,-3284.3 -3399.46,-3284.3C-3400.09,-3283.83 -3400.88,-3283.36 -3401.5,-3282.88L-3401.66,-3282.73C-3405.43,-3280.21 -3409.36,-3277.69 -3413.44,-3275.49C-3415.17,-3274.55 -3417.06,-3273.45 -3418.79,-3272.66C-3424.91,-3269.51 -3431.2,-3266.84 -3437.64,-3264.48C-3439.21,-3263.85 -3440.94,-3263.38 -3442.51,-3262.75C-3442.82,-3262.75 -3443.14,-3262.59 -3443.45,-3262.44C-3443.76,-3262.44 -3444.08,-3262.28 -3444.39,-3262.12C-3452.72,-3259.45 -3461.2,-3257.41 -3469.85,-3255.83C-3471.26,-3255.52 -3472.51,-3255.2 -3473.93,-3255.04C-3474.08,-3255.04 -3474.4,-3255.04 -3474.71,-3255.04C-3476.13,-3254.73 -3477.7,-3254.41 -3479.27,-3254.26L-3481.16,-3254.1C-3483.2,-3253.78 -3485.24,-3253.63 -3487.44,-3253.47C-3491.37,-3252.84 -3495.3,-3252.69 -3499.22,-3252.53L-3499.85,-3252.37C-3502.05,-3252.21 -3503.94,-3252.21 -3505.98,-3252.21L-3507.24,-3252.21C-3509.44,-3252.21 -3511.48,-3252.06 -3513.68,-3252.06C-3516.66,-3252.06 -3519.8,-3252.21 -3522.79,-3252.37Z"/>
                </clipPath>
                <g clip-path="url(#_clip1)">
                    <clipPath id="_clip2">
                        <path d="M0,0C0,0 0,0 0,0Z"/>
                    </clipPath>
                    <g clip-path="url(#_clip2)">
                        <g transform="matrix(1.00551,-0,-0,1.0067,-2142.85,-717.758)">
                        </g>
                    </g>
                </g>
            </g>
        </g>
    </g>
</svg>
