<?xml version="1.0" encoding="UTF-8" standalone="no"?>
<!DOCTYPE svg PUBLIC "-//W3C//DTD SVG 1.1//EN" "http://www.w3.org/Graphics/SVG/1.1/DTD/svg11.dtd">
<svg width="100%" height="100%" viewBox="0 0 751 402" version="1.1" xmlns="http://www.w3.org/2000/svg" xmlns:xlink="http://www.w3.org/1999/xlink" xml:space="preserve" xmlns:serif="http://www.serif.com/" style="fill-rule:evenodd;clip-rule:evenodd;stroke-linejoin:round;stroke-miterlimit:1.41421;">
    <g transform="matrix(1,0,0,1,-458.238,-1188.03)">
        <g transform="matrix(4.16667,0,0,4.16667,0,0)">
            <path d="M111.423,363.479L121.728,351.877L111.423,340.276L151.955,340.276L151.955,363.479L111.423,363.479Z" style="fill:rgb(34,30,31);fill-rule:nonzero;"/>
        </g>
        <g transform="matrix(4.16667,0,0,4.16667,0,0)">
            <path d="M152.605,339.627L151.305,339.627L112.87,339.627L109.977,339.627L111.898,341.79L120.858,351.877L111.898,361.965L109.977,364.128L152.605,364.128L152.605,362.828L152.605,340.927L152.605,339.627ZM151.305,340.927L151.305,362.828L112.87,362.828L122.597,351.877L112.87,340.927L151.305,340.927Z" style="fill:white;fill-rule:nonzero;"/>
        </g>
        <g transform="matrix(4.16667,0,0,4.16667,0,0)">
            <rect x="128.466" y="331.554" width="28.992" height="23.173" style="fill:rgb(34,30,31);"/>
        </g>
        <g transform="matrix(4.16667,0,0,4.16667,0,0)">
            <path d="M158.108,330.904L156.808,330.904L129.116,330.904L127.816,330.904L127.816,355.376L158.108,355.376L158.108,354.076L158.108,332.204L158.108,330.904ZM156.808,332.204L156.808,354.076L129.116,354.076L129.116,332.204L156.808,332.204Z" style="fill:white;fill-rule:nonzero;"/>
        </g>
        <g transform="matrix(4.16667,0,0,4.16667,0,0)">
            <path d="M248.041,363.479L248.041,340.274L288.576,340.274L278.272,351.881L288.577,363.479L248.041,363.479Z" style="fill:rgb(34,30,31);fill-rule:nonzero;"/>
        </g>
        <g transform="matrix(4.16667,0,0,4.16667,0,0)">
            <path d="M290.022,339.625L287.13,339.625L248.691,339.625L247.391,339.625L247.391,364.128L290.024,364.128L288.101,361.964L279.142,351.88L288.102,341.788L290.022,339.625ZM287.13,340.925L277.403,351.881L287.13,362.828L248.691,362.828L248.691,340.925L287.13,340.925Z" style="fill:white;fill-rule:nonzero;"/>
        </g>
        <g transform="matrix(4.16667,0,0,4.16667,0,0)">
            <rect x="242.541" y="331.556" width="28.986" height="23.168" style="fill:rgb(34,30,31);"/>
        </g>
        <g transform="matrix(4.16667,0,0,4.16667,0,0)">
            <path d="M272.177,330.906L270.877,330.906L243.191,330.906L241.891,330.906L241.891,355.374L272.177,355.374L272.177,354.074L272.177,332.206L272.177,330.906ZM270.877,332.206L270.877,354.074L243.191,354.074L243.191,332.206L270.877,332.206Z" style="fill:white;fill-rule:nonzero;"/>
        </g>
        <g transform="matrix(4.16667,0,0,4.16667,0,0)">
            <path d="M248.205,333.329C248.205,334.576 248.16,335.805 248.063,337.025C247.842,340.005 247.347,342.914 246.595,345.717C245.826,348.618 244.8,351.412 243.518,354.074C235.772,370.317 219.192,381.539 199.995,381.539C180.798,381.539 164.218,370.317 156.472,354.074C155.19,351.412 154.164,348.618 153.395,345.717C152.652,342.914 152.148,340.014 151.927,337.034C151.83,335.805 151.785,334.576 151.785,333.329C151.785,332.958 151.785,332.577 151.803,332.206C151.812,331.613 151.839,331.012 151.874,330.42C152.068,327.042 152.626,323.752 153.492,320.587C159.072,300.152 177.783,285.128 199.995,285.128C222.208,285.128 240.918,300.152 246.498,320.587C247.365,323.752 247.922,327.042 248.116,330.42C248.152,331.012 248.178,331.613 248.187,332.206C248.205,332.577 248.205,332.958 248.205,333.329Z" style="fill:rgb(34,30,31);fill-rule:nonzero;"/>
        </g>
        <g transform="matrix(4.16667,0,0,4.16667,0,0)">
            <path d="M244.331,333.338C244.331,357.822 224.483,377.67 199.998,377.67C175.514,377.67 155.666,357.822 155.666,333.338C155.666,308.853 175.514,289.005 199.998,289.005C224.483,289.005 244.331,308.853 244.331,333.338Z" style="fill:white;fill-rule:nonzero;"/>
        </g>
        <g transform="matrix(4.16667,0,0,4.16667,0,0)">
            <path d="M162.771,350.267L237.226,350.267C230.788,364.397 216.543,374.221 199.998,374.221C183.454,374.221 169.209,364.397 162.771,350.267Z" style="fill:rgb(34,30,31);fill-rule:nonzero;"/>
        </g>
        <g transform="matrix(4.16667,0,0,4.16667,0,0)">
            <path d="M237.234,316.409L162.762,316.409C169.2,302.278 183.454,292.454 199.998,292.454C216.543,292.454 230.797,302.278 237.234,316.409Z" style="fill:rgb(34,30,31);fill-rule:nonzero;"/>
        </g>
        <g transform="matrix(4.16667,0,0,4.16667,0,0)">
            <path d="M216.094,367.58C216.161,367.508 216.194,367.421 216.194,367.318L216.194,365.484C216.194,365.32 216.171,365.199 216.125,365.122C216.079,365.046 215.986,365.007 215.848,365.007C215.709,365.007 215.615,365.047 215.566,365.126C215.518,365.206 215.493,365.325 215.493,365.484L215.493,367.318C215.493,367.421 215.528,367.508 215.597,367.58C215.666,367.652 215.75,367.688 215.848,367.688C215.945,367.688 216.027,367.652 216.094,367.58ZM214.766,368.246C214.506,367.961 214.376,367.577 214.376,367.095L214.376,365.724C214.376,365.21 214.498,364.819 214.742,364.553C214.986,364.285 215.355,364.152 215.848,364.152C216.335,364.152 216.702,364.287 216.949,364.557C217.195,364.826 217.319,365.215 217.319,365.724L217.319,367.095C217.319,367.577 217.189,367.961 216.93,368.246C216.671,368.531 216.31,368.674 215.848,368.674C215.386,368.674 215.024,368.531 214.766,368.246ZM211.818,368.604L213.853,361.956L215.069,361.956L213.036,368.604L211.818,368.604ZM211.214,365.523C211.283,365.451 211.318,365.364 211.318,365.261L211.318,363.436C211.318,363.271 211.294,363.15 211.245,363.073C211.196,362.996 211.103,362.958 210.964,362.958C210.825,362.958 210.732,362.996 210.687,363.073C210.64,363.15 210.617,363.271 210.617,363.436L210.617,365.261C210.617,365.364 210.65,365.451 210.717,365.523C210.784,365.595 210.866,365.631 210.964,365.631C211.062,365.631 211.145,365.595 211.214,365.523ZM209.885,366.193C209.628,365.911 209.5,365.525 209.5,365.038L209.5,363.674C209.5,363.166 209.622,362.776 209.866,362.507C210.109,362.237 210.476,362.103 210.964,362.103C211.457,362.103 211.826,362.237 212.073,362.507C212.319,362.776 212.442,363.166 212.442,363.674L212.442,365.038C212.442,365.525 212.313,365.911 212.054,366.193C211.794,366.476 211.431,366.617 210.964,366.617C210.501,366.617 210.142,366.476 209.885,366.193Z" style="fill:white;fill-rule:nonzero;"/>
        </g>
        <g transform="matrix(4.16667,0,0,4.16667,0,0)">
            <rect x="139.366" y="319.937" width="121.258" height="26.431" style="fill:rgb(34,30,31);"/>
        </g>
        <g transform="matrix(4.16667,0,0,4.16667,0,0)">
            <path d="M261.273,319.287L259.974,319.287L140.016,319.287L138.716,319.287L138.716,347.017L261.273,347.017L261.273,345.717L261.273,320.587L261.273,319.287ZM259.974,320.587L259.974,345.717L140.016,345.717L140.016,320.587L259.974,320.587Z" style="fill:white;fill-rule:nonzero;"/>
        </g>
        <g transform="matrix(4.16667,0,0,4.16667,0,0)">
            <path d="M177.992,310.507L177.992,309.413L180.052,309.413L180.052,311.94C180.052,312.875 179.592,313.343 178.671,313.343L177.268,313.343C176.347,313.343 175.887,312.875 175.887,311.94L175.887,307.661C175.887,306.727 176.347,306.259 177.268,306.259L178.671,306.259C179.592,306.259 180.052,306.727 180.052,307.661L180.052,308.309L178.571,308.309L178.571,307.48C178.571,307.424 178.55,307.374 178.51,307.332C178.469,307.289 178.418,307.268 178.359,307.268L177.658,307.268C177.598,307.268 177.548,307.289 177.507,307.332C177.466,307.374 177.446,307.424 177.446,307.48L177.446,312.11C177.446,312.167 177.466,312.217 177.507,312.26C177.548,312.302 177.598,312.323 177.658,312.323L178.359,312.323C178.418,312.323 178.469,312.302 178.51,312.26C178.55,312.217 178.571,312.167 178.571,312.11L178.571,310.507L177.992,310.507Z" style="fill:white;fill-rule:nonzero;"/>
        </g>
        <g transform="matrix(4.16667,0,0,4.16667,0,0)">
            <path d="M183.482,306.365L185.041,306.365L185.041,311.94C185.041,312.875 184.581,313.343 183.66,313.343L182.279,313.343C181.358,313.343 180.898,312.875 180.898,311.94L180.898,306.365L182.458,306.365L182.458,312.068C182.458,312.125 182.478,312.175 182.519,312.217C182.56,312.26 182.609,312.28 182.669,312.28L183.271,312.28C183.33,312.28 183.38,312.26 183.421,312.217C183.461,312.175 183.482,312.125 183.482,312.068L183.482,306.365Z" style="fill:white;fill-rule:nonzero;"/>
        </g>
        <g transform="matrix(4.16667,0,0,4.16667,0,0)">
            <path d="M187.67,309.785L188.794,309.785L188.794,307.48C188.794,307.424 188.774,307.374 188.733,307.332C188.692,307.289 188.642,307.268 188.583,307.268L187.881,307.268C187.822,307.268 187.771,307.289 187.731,307.332C187.69,307.374 187.67,307.424 187.67,307.48L187.67,309.785ZM188.973,306.259C189.893,306.259 190.354,306.727 190.354,307.661L190.354,313.236L188.794,313.236L188.794,310.932L187.67,310.932L187.67,313.236L186.11,313.236L186.11,307.661C186.11,306.727 186.571,306.259 187.492,306.259L188.973,306.259Z" style="fill:white;fill-rule:nonzero;"/>
        </g>
        <g transform="matrix(4.16667,0,0,4.16667,0,0)">
            <path d="M193.071,307.374L193.071,309.381L193.895,309.381C193.954,309.381 194.004,309.36 194.045,309.317C194.086,309.275 194.106,309.226 194.106,309.169L194.106,307.587C194.106,307.53 194.086,307.48 194.045,307.438C194.004,307.396 193.954,307.374 193.895,307.374L193.071,307.374ZM193.071,310.422L193.071,313.236L191.511,313.236L191.511,306.365L194.285,306.365C195.205,306.365 195.666,306.832 195.666,307.767L195.666,308.563C195.666,309.13 195.454,309.491 195.031,309.646C195.402,309.774 195.587,310.064 195.587,310.518L195.587,313.236L194.028,313.236L194.028,310.635C194.028,310.493 193.958,310.422 193.817,310.422L193.071,310.422Z" style="fill:white;fill-rule:nonzero;"/>
        </g>
        <g transform="matrix(4.16667,0,0,4.16667,0,0)">
            <path d="M198.227,309.785L199.352,309.785L199.352,307.48C199.352,307.424 199.331,307.374 199.291,307.332C199.25,307.289 199.199,307.268 199.14,307.268L198.438,307.268C198.379,307.268 198.329,307.289 198.288,307.332C198.247,307.374 198.227,307.424 198.227,307.48L198.227,309.785ZM199.53,306.259C200.45,306.259 200.911,306.727 200.911,307.661L200.911,313.236L199.352,313.236L199.352,310.932L198.227,310.932L198.227,313.236L196.667,313.236L196.667,307.661C196.667,306.727 197.128,306.259 198.049,306.259L199.53,306.259Z" style="fill:white;fill-rule:nonzero;"/>
        </g>
        <g transform="matrix(4.16667,0,0,4.16667,0,0)">
            <path d="M206.201,313.236L204.642,313.236L204.642,307.533C204.642,307.477 204.621,307.427 204.581,307.385C204.54,307.342 204.489,307.321 204.431,307.321L203.829,307.321C203.77,307.321 203.72,307.342 203.679,307.385C203.638,307.427 203.617,307.477 203.617,307.533L203.617,313.236L202.059,313.236L202.059,307.661C202.059,306.727 202.519,306.259 203.439,306.259L204.82,306.259C205.74,306.259 206.201,306.727 206.201,307.661L206.201,313.236Z" style="fill:white;fill-rule:nonzero;"/>
        </g>
        <g transform="matrix(4.16667,0,0,4.16667,0,0)">
            <path d="M206.836,307.629L206.836,306.365L210.733,306.365L210.733,307.629L209.564,307.629L209.564,313.236L208.005,313.236L208.005,307.629L206.836,307.629Z" style="fill:white;fill-rule:nonzero;"/>
        </g>
        <g transform="matrix(4.16667,0,0,4.16667,0,0)">
            <path d="M213.006,312.005L214.731,312.005L214.731,313.236L211.446,313.236L211.446,306.365L214.731,306.365L214.731,307.576L213.006,307.576L213.006,309.19L214.62,309.19L214.62,310.358L213.006,310.358L213.006,312.005Z" style="fill:white;fill-rule:nonzero;"/>
        </g>
        <g transform="matrix(4.16667,0,0,4.16667,0,0)">
            <path d="M217.193,312.005L218.919,312.005L218.919,313.236L215.634,313.236L215.634,306.365L218.919,306.365L218.919,307.576L217.193,307.576L217.193,309.19L218.808,309.19L218.808,310.358L217.193,310.358L217.193,312.005Z" style="fill:white;fill-rule:nonzero;"/>
        </g>
        <g transform="matrix(4.16667,0,0,4.16667,0,0)">
            <path d="M222.505,312.005L222.505,307.587C222.505,307.53 222.484,307.48 222.444,307.438C222.403,307.396 222.353,307.374 222.294,307.374L221.381,307.374L221.381,312.217L222.294,312.217C222.353,312.217 222.403,312.195 222.444,312.153C222.484,312.11 222.505,312.062 222.505,312.005ZM222.684,306.365C223.604,306.365 224.064,306.832 224.064,307.767L224.064,311.835C224.064,312.77 223.604,313.236 222.684,313.236L219.821,313.236L219.821,306.365L222.684,306.365Z" style="fill:white;fill-rule:nonzero;"/>
        </g>
        <g transform="matrix(4.16667,0,0,4.16667,0,0)">
            <path d="M187.676,357.144C187.48,357.386 187.205,357.582 186.854,357.732C186.501,357.883 186.164,357.957 185.84,357.957L185.84,355.586C186.348,355.505 186.854,355.303 187.355,354.979C187.857,354.656 188.218,354.235 188.438,353.716L190.827,353.716L190.827,368.604L187.676,368.604L187.676,357.144Z" style="fill:white;fill-rule:nonzero;"/>
        </g>
        <g transform="matrix(4.16667,0,0,4.16667,0,0)">
            <path d="M196.176,365.705C196.314,365.503 196.384,365.264 196.384,364.986L196.384,357.646C196.384,357.219 196.334,356.893 196.237,356.668C196.139,356.442 195.939,356.33 195.64,356.33C195.339,356.33 195.143,356.442 195.051,356.668C194.959,356.893 194.912,357.219 194.912,357.646L194.912,364.986C194.912,365.264 194.979,365.503 195.111,365.705C195.244,365.906 195.42,366.008 195.64,366.008C195.858,366.008 196.038,365.906 196.176,365.705ZM192.731,367.679C192.05,366.969 191.709,365.956 191.709,364.64L191.709,357.923C191.709,356.515 192.039,355.441 192.696,354.703C193.354,353.964 194.335,353.595 195.64,353.595C196.955,353.595 197.942,353.964 198.6,354.703C199.258,355.441 199.586,356.515 199.586,357.923L199.586,364.64C199.586,365.968 199.246,366.983 198.565,367.687C197.884,368.391 196.909,368.743 195.64,368.743C194.381,368.743 193.412,368.388 192.731,367.679Z" style="fill:white;fill-rule:nonzero;"/>
        </g>
        <g transform="matrix(4.16667,0,0,4.16667,0,0)">
            <path d="M204.729,365.705C204.866,365.503 204.936,365.264 204.936,364.986L204.936,357.646C204.936,357.219 204.887,356.893 204.789,356.668C204.69,356.442 204.491,356.33 204.191,356.33C203.892,356.33 203.695,356.442 203.603,356.668C203.511,356.893 203.464,357.219 203.464,357.646L203.464,364.986C203.464,365.264 203.53,365.503 203.663,365.705C203.796,365.906 203.972,366.008 204.191,366.008C204.41,366.008 204.59,365.906 204.729,365.705ZM201.283,367.679C200.602,366.969 200.261,365.956 200.261,364.64L200.261,357.923C200.261,356.515 200.59,355.441 201.248,354.703C201.906,353.964 202.887,353.595 204.191,353.595C205.507,353.595 206.494,353.964 207.152,354.703C207.81,355.441 208.139,356.515 208.139,357.923L208.139,364.64C208.139,365.968 207.798,366.983 207.117,367.687C206.437,368.391 205.461,368.743 204.191,368.743C202.934,368.743 201.964,368.388 201.283,367.679Z" style="fill:white;fill-rule:nonzero;"/>
        </g>
        <g transform="matrix(4.16667,0,0,4.16667,0,0)">
            <path d="M191.355,297.651L192.206,299.802L194.514,299.947L192.732,301.42L193.308,303.66L191.355,302.421L189.403,303.66L189.979,301.42L188.196,299.947L190.504,299.802L191.355,297.651Z" style="fill:white;fill-rule:nonzero;"/>
        </g>
        <g transform="matrix(4.16667,0,0,4.16667,0,0)">
            <path d="M208.642,297.651L209.492,299.802L211.801,299.947L210.018,301.42L210.594,303.66L208.642,302.421L206.689,303.66L207.265,301.42L205.483,299.947L207.791,299.802L208.642,297.651Z" style="fill:white;fill-rule:nonzero;"/>
        </g>
        <g transform="matrix(4.16667,0,0,4.16667,0,0)">
            <path d="M199.998,297.651L200.849,299.802L203.157,299.947L201.375,301.42L201.951,303.66L199.998,302.421L198.046,303.66L198.622,301.42L196.839,299.947L199.148,299.802L199.998,297.651Z" style="fill:white;fill-rule:nonzero;"/>
        </g>
        <g transform="matrix(4.16667,0,0,4.16667,0,0)">
            <path d="M246.004,326.02L247.735,330.394L252.43,330.688L248.804,333.686L249.975,338.242L246.004,335.72L242.033,338.242L243.204,333.686L239.578,330.688L244.273,330.394L246.004,326.02Z" style="fill:white;fill-rule:nonzero;"/>
        </g>
        <g transform="matrix(4.16667,0,0,4.16667,0,0)">
            <path d="M153.993,326.02L155.723,330.394L160.418,330.688L156.793,333.686L157.964,338.242L153.993,335.72L150.022,338.242L151.193,333.686L147.567,330.688L152.262,330.394L153.993,326.02Z" style="fill:white;fill-rule:nonzero;"/>
        </g>
        <g transform="matrix(4.16667,0,0,4.16667,0,0)">
            <path d="M171.73,338.987L171.73,326.808C171.73,326.659 171.69,326.528 171.611,326.417C171.532,326.306 171.435,326.249 171.319,326.249L169.957,326.249C169.842,326.249 169.744,326.306 169.666,326.417C169.586,326.528 169.546,326.659 169.546,326.808L169.546,338.987C169.546,339.137 169.586,339.267 169.666,339.378C169.744,339.49 169.842,339.546 169.957,339.546L171.319,339.546C171.435,339.546 171.532,339.49 171.611,339.378C171.69,339.267 171.73,339.137 171.73,338.987ZM174.757,327.283L174.757,338.54C174.757,340.998 173.864,342.228 172.076,342.228L169.2,342.228C167.413,342.228 166.519,340.998 166.519,338.54L166.519,327.283C166.519,324.825 167.413,323.596 169.2,323.596L172.076,323.596C173.864,323.596 174.757,324.825 174.757,327.283Z" style="fill:white;fill-rule:nonzero;"/>
        </g>
        <g transform="matrix(4.16667,0,0,4.16667,0,0)">
            <path d="M180.012,326.528L180.012,331.809L181.612,331.809C181.727,331.809 181.824,331.752 181.904,331.641C181.983,331.529 182.022,331.398 182.022,331.25L182.022,327.087C182.022,326.938 181.983,326.808 181.904,326.696C181.824,326.585 181.727,326.528 181.612,326.528L180.012,326.528ZM180.012,334.546L180.012,341.948L176.984,341.948L176.984,323.875L182.369,323.875C184.156,323.875 185.05,325.104 185.05,327.563L185.05,329.657C185.05,331.147 184.639,332.097 183.817,332.507C184.538,332.842 184.898,333.605 184.898,334.797L184.898,341.948L181.871,341.948L181.871,335.104C181.871,334.732 181.734,334.546 181.46,334.546L180.012,334.546Z" style="fill:white;fill-rule:nonzero;"/>
        </g>
        <g transform="matrix(4.16667,0,0,4.16667,0,0)">
            <rect x="186.996" y="323.875" width="3.027" height="18.073" style="fill:white;"/>
        </g>
        <g transform="matrix(4.16667,0,0,4.16667,0,0)">
            <path d="M196.358,334.77L196.358,331.892L200.358,331.892L200.358,338.54C200.358,340.998 199.465,342.228 197.677,342.228L194.953,342.228C193.165,342.228 192.271,340.998 192.271,338.54L192.271,327.283C192.271,324.825 193.165,323.596 194.953,323.596L197.677,323.596C199.465,323.596 200.358,324.825 200.358,327.283L200.358,328.987L197.483,328.987L197.483,326.808C197.483,326.659 197.443,326.528 197.364,326.417C197.285,326.306 197.187,326.249 197.072,326.249L195.709,326.249C195.594,326.249 195.497,326.306 195.418,326.417C195.338,326.528 195.299,326.659 195.299,326.808L195.299,338.987C195.299,339.137 195.338,339.267 195.418,339.378C195.497,339.49 195.594,339.546 195.709,339.546L197.072,339.546C197.187,339.546 197.285,339.49 197.364,339.378C197.443,339.267 197.483,339.137 197.483,338.987L197.483,334.77L196.358,334.77Z" style="fill:white;fill-rule:nonzero;"/>
        </g>
        <g transform="matrix(4.16667,0,0,4.16667,0,0)">
            <rect x="202.023" y="323.875" width="3.028" height="18.073" style="fill:white;"/>
        </g>
        <g transform="matrix(4.16667,0,0,4.16667,0,0)">
            <path d="M215.322,341.948L212.295,341.948L212.295,326.947C212.295,326.799 212.255,326.668 212.176,326.557C212.097,326.445 211.999,326.389 211.884,326.389L210.716,326.389C210.601,326.389 210.503,326.445 210.424,326.557C210.345,326.668 210.306,326.799 210.306,326.947L210.306,341.948L207.278,341.948L207.278,327.283C207.278,324.825 208.172,323.596 209.959,323.596L212.641,323.596C214.428,323.596 215.322,324.825 215.322,327.283L215.322,341.948Z" style="fill:white;fill-rule:nonzero;"/>
        </g>
        <g transform="matrix(4.16667,0,0,4.16667,0,0)">
            <path d="M220.382,332.87L222.565,332.87L222.565,326.808C222.565,326.659 222.525,326.528 222.446,326.417C222.367,326.306 222.27,326.249 222.154,326.249L220.792,326.249C220.677,326.249 220.579,326.306 220.501,326.417C220.421,326.528 220.382,326.659 220.382,326.808L220.382,332.87ZM222.911,323.596C224.699,323.596 225.593,324.825 225.593,327.283L225.593,341.948L222.565,341.948L222.565,335.887L220.382,335.887L220.382,341.948L217.355,341.948L217.355,327.283C217.355,324.825 218.248,323.596 220.035,323.596L222.911,323.596Z" style="fill:white;fill-rule:nonzero;"/>
        </g>
        <g transform="matrix(4.16667,0,0,4.16667,0,0)">
            <path d="M230.868,338.652L234.177,338.652L234.177,341.948L227.841,341.948L227.841,323.875L230.868,323.875L230.868,338.652Z" style="fill:white;fill-rule:nonzero;"/>
        </g>
    </g>
</svg>
