<?xml version="1.0" encoding="UTF-8" standalone="no"?>
<!DOCTYPE svg PUBLIC "-//W3C//DTD SVG 1.1//EN" "http://www.w3.org/Graphics/SVG/1.1/DTD/svg11.dtd">
<svg width="100%" height="100%" viewBox="0 0 125 228" version="1.1" xmlns="http://www.w3.org/2000/svg" xmlns:xlink="http://www.w3.org/1999/xlink" xml:space="preserve" xmlns:serif="http://www.serif.com/" style="fill-rule:evenodd;clip-rule:evenodd;stroke-linejoin:round;stroke-miterlimit:1.41421;">
    <g transform="matrix(1,0,0,1,-587.088,-43.3848)">
        <path d="M624.438,59.424C624.438,59.424 625.272,60.467 626.629,60.258C627.986,60.049 628.717,58.797 628.717,58.797C628.717,58.797 627.778,58.797 626.527,58.693C625.273,58.587 624.438,59.424 624.438,59.424ZM639.365,59.737C639.365,59.737 638.527,59.215 637.592,59.11C637.054,59.05 636.277,59.298 635.712,59.521C635.816,59.193 635.935,57.546 638.426,57.753C640.096,57.858 640.616,58.17 640.616,58.17C640.616,58.17 635.607,55.144 634.981,59.841C634.981,59.841 636.648,60.676 637.485,60.989C638.32,61.302 639.365,59.737 639.365,59.737ZM631.745,65.478C630.492,65.375 629.552,66.626 629.552,66.626C629.552,66.626 626.954,67.76 626.64,67.969C626.64,67.969 628.406,69.027 629.24,69.549C630.075,70.071 631.954,69.653 633.416,69.34C634.875,69.027 636.309,69.291 636.208,68.873C636.104,68.456 634.354,67.982 633.624,67.147C632.893,66.312 632.997,65.583 631.745,65.478ZM634.033,68.294C634.056,68.295 634.064,68.295 634.04,68.295L634.033,68.294C633.756,68.279 630.197,68.184 629.136,68.087C629.136,68.087 629.971,66.731 631.43,66.731C632.884,66.731 633.717,68.274 634.033,68.294ZM629.938,58.208C630.074,58.518 630.459,59.523 629.942,60.093C629.421,60.663 628.025,63.306 629.11,62.426C629.11,62.426 630.614,61.079 631.288,61.079C631.963,61.079 632.844,61.597 632.844,61.597C632.844,61.597 631.393,60.56 631.754,59.058C632.119,57.555 629.682,55.586 627.038,55.948C624.398,56.311 624.136,57.451 624.136,57.451C624.136,57.451 626.872,56.798 627.547,57.367C628.218,57.938 629.8,57.897 629.938,58.208ZM682.639,238.459C678.123,226.762 671.762,208.496 667.451,197.824C663.141,187.154 656.165,176.891 655.959,164.578C656.37,159.035 656.984,148.775 656.984,148.775C656.984,148.775 659.653,145.49 653.908,142.617C648.161,139.745 645.288,134.202 644.467,131.33C643.645,128.456 635.46,118.975 635.46,118.975C635.46,118.975 643.217,121.691 643.233,114.503C643.248,109.129 636.257,97.878 643.441,94.595C650.624,91.312 656.154,99.93 656.154,99.93C656.154,99.93 659.448,95.62 656.574,92.132C653.701,88.644 652.263,88.235 649.391,86.797C646.905,85.552 642.576,83.544 640.658,82.892C643.458,83.82 648.441,85.771 648.441,85.771C648.441,85.771 648.775,80.111 648.108,76.114C647.442,72.119 645.446,65.794 644.779,64.462C644.114,63.13 645.112,58.468 644.114,53.809C643.116,49.147 639.121,46.15 633.46,43.82C627.802,41.49 621.14,49.148 616.812,51.81C612.487,54.474 609.156,56.473 606.825,57.471C608.487,58.469 613.484,55.14 613.484,55.14C613.484,55.14 610.821,57.471 607.157,59.468C603.497,61.467 599.167,61.133 596.837,60.801C594.506,60.468 596.837,57.138 596.837,57.138C596.837,57.138 593.841,56.805 592.509,59.469C591.178,66.462 607.823,64.797 607.823,64.797L604.494,66.462C601.164,68.126 597.503,69.791 594.172,69.125C590.843,68.459 592.841,66.129 594.172,64.131C590.843,63.132 588.845,68.126 589.512,71.123C590.177,74.121 595.506,74.785 595.506,74.785C595.506,74.785 593.841,78.116 591.508,79.779C589.18,81.443 590.177,78.779 590.177,78.779C590.177,78.779 588.179,79.446 587.182,82.11C586.182,84.774 593.509,80.779 593.509,80.779C593.509,80.779 592.841,82.11 591.178,84.107C589.512,86.105 585.517,89.768 587.848,88.436C590.177,87.103 592.175,86.771 594.172,86.771C596.172,86.771 598.837,86.438 598.837,86.438C598.837,86.438 597.503,88.768 595.838,90.766C594.172,92.763 596.503,95.094 596.503,94.095C596.503,93.659 597.074,92.654 597.826,91.52C596.692,93.635 595.648,96.486 595.368,100.034C594.804,107.116 594.658,113.694 596.3,117.593C597.943,121.492 598.744,125.873 599.061,128.355C599.235,129.711 600.549,137.078 604.038,143.44C607.527,149.803 608.545,154.855 609.106,157.287C609.886,160.672 609.558,161.788 610.277,163.275C610.996,164.764 612.573,167.779 612.881,167.831C613.188,167.883 613.068,168.836 613.068,168.836C613.068,168.836 618.656,166.237 619.471,161.855C617.008,159.803 617.033,156.591 615.326,152.676C615.326,152.676 611.428,139.643 611.22,137.693C611.016,135.743 610.595,126.436 612.865,124.764C618.713,120.454 611.53,121.07 611.632,120.249C611.734,119.428 610.4,117.375 610.4,117.375C610.4,117.375 607.682,129.278 611.221,133.588C614.763,137.898 618.149,141.284 617.994,145.594C617.84,149.904 618.61,151.288 618.61,151.288C618.61,151.288 626.4,157.202 635.276,156.602C636.124,156.958 636.672,157.188 636.672,157.188C636.672,157.188 634.037,157.58 633.962,157.606C634.039,157.577 636.672,157.188 636.672,157.188C627.422,151.432 618.61,151.288 618.61,151.288C618.61,151.288 618.61,154.519 618.61,156.059C618.61,157.599 613.068,168.835 613.068,168.835C606.244,184.132 609.373,177.712 603.833,191.052C602.938,193.206 599.22,201.448 597.882,205.623C596.24,210.753 603.736,226.93 606.912,233.738C611.221,242.972 612.043,260.418 612.043,260.418L616.764,258.571C616.764,258.571 613.432,248.12 613.687,238.868C614.249,218.288 608.553,211.162 608.553,211.162C608.553,211.162 613.069,199.67 614.299,197.822C615.196,196.476 616.099,196.103 617.392,194.256C627.996,185.383 627.085,182.829 632.155,177.299C636.353,172.721 646.044,172.045 647.386,171.971C647.616,172.472 647.817,173.013 647.957,173.606C648.984,177.916 655.142,189.202 656.372,192.075C657.603,194.949 673.403,219.986 677.509,234.968C681.616,249.949 680.589,251.798 680.589,251.798L681.205,255.286L688.387,254.875C688.385,254.878 687.155,250.159 682.639,238.459ZM603.139,86.326C602.249,86.585 601.47,86.848 600.832,87.437C601.58,86.499 602.331,86.407 603.139,86.326ZM609.896,94.821C611.015,89.299 612.592,90.923 614.85,89.486C617.106,88.049 618.402,82.283 618.608,84.745C618.813,87.208 619.223,85.976 619.223,85.976C619.223,85.976 619.019,81.051 619.635,80.23C619.678,80.169 619.652,80.143 619.572,80.135C620.778,79.217 621.786,77.926 622.471,76.781C623.469,75.118 624.469,73.784 623.138,72.12C621.804,70.455 621.219,69.002 620.888,67.669C620.554,66.337 620.864,62.221 621.827,60.049C622.689,58.102 622.138,55.474 623.803,51.145C625.467,46.816 632.458,47.815 632.458,47.815C635.457,47.482 639.784,49.814 641.115,52.476C642.448,55.14 643.114,60.467 642.778,67.126C644.777,66.792 643.114,71.787 641.448,71.787C640.16,73.72 640.115,77.841 639.209,82.028C639.53,80.346 640.181,75.128 641.031,71.531C639.883,73.201 635.5,75.602 631.743,75.706C627.985,75.81 624.019,73.514 624.019,73.514C623.496,76.123 628.192,77.272 633.202,78.211C638.214,79.15 638.841,83.43 639.119,82.441C639.416,82.501 639.912,82.647 640.519,82.847C640.284,82.77 640.085,82.715 639.95,82.692C638.717,82.487 638.924,86.797 637.485,88.848C636.05,90.901 633.587,92.338 632.357,92.543C631.125,92.749 629.277,93.159 629.277,94.185C629.277,95.211 631.33,93.159 632.972,94.596C634.611,96.032 646.795,115.292 632.53,112.913C632.53,112.913 618.498,111.646 612.655,104.114C610.202,99.964 608.979,99.364 609.896,94.821Z" style="fill-rule:nonzero;"/>
        <path d="M613.892,89.357C613.892,89.357 616.198,91.202 619.117,91.663C622.037,92.124 623.421,91.97 623.576,93.353C623.729,94.737 623.576,96.736 621.268,94.891C618.964,93.046 617.426,92.586 615.275,91.97C613.122,91.354 609.587,90.125 609.587,90.125L613.892,89.357Z" style="fill-rule:nonzero;"/>
        <path d="M612.041,260.42C612.041,260.42 611.26,262.001 608.058,263.373C604.859,264.744 597.315,266.345 596.4,268.403C595.484,270.459 595.484,270.917 596.629,271.146C597.771,271.374 626.35,271.146 626.35,271.146C626.35,271.146 628.636,268.86 627.95,266.345C627.264,263.829 623.379,258.343 622.921,256.742C622.462,255.142 614.192,260.211 612.041,260.42Z" style="fill-rule:nonzero;"/>
        <path d="M683.253,255.494C682.432,257.956 686.333,259.803 685.718,262.883C685.1,265.96 684.487,268.424 688.18,269.655C691.873,270.886 699.263,270.886 701.11,270.886C702.957,270.886 701.11,265.96 698.031,261.651C694.953,257.342 693.719,256.11 692.491,254.262C691.259,252.417 693.106,249.339 693.106,249.339L688.18,232.715C688.18,232.715 692.491,249.339 688.18,253.032" style="fill-rule:nonzero;"/>
        <path d="M641.475,178.963C641.475,178.963 637.946,186.021 631.945,191.314C625.948,196.606 616.774,204.723 617.831,210.721C618.89,216.721 625.948,226.249 623.479,243.894C621.361,230.484 617.479,216.722 615.007,211.781C612.539,206.84 616.774,200.488 622.772,195.901C628.77,191.314 636.181,186.726 641.475,178.963Z" style="fill-rule:nonzero;"/>
        <path d="M656.914,92.906C656.914,92.906 665.331,100.352 666.497,104.232C667.662,108.113 671.542,115.484 673.48,117.423C675.419,119.363 682.791,110.44 688.611,103.068L694.431,95.698L697.921,96.473C697.921,96.473 694.818,100.354 693.653,105.396C692.489,110.44 679.298,124.019 676.194,123.631C673.091,123.242 671.151,121.691 671.151,119.751C671.151,117.812 667.661,108.501 663.003,105.784C658.349,103.068 650.319,95.234 656.914,92.906Z" style="fill-rule:nonzero;"/>
        <path d="M659.125,132.554C658.134,131.565 669.212,136.047 669.6,149.626C669.989,163.205 669.6,169.413 672.704,174.457C675.808,179.502 680.464,192.692 681.239,199.289C682.015,205.884 667.274,168.638 666.885,160.49C666.497,152.342 666.497,139.926 659.125,132.554Z" style="fill-rule:nonzero;"/>
        <path d="M647.487,124.408C647.487,124.408 651.754,113.545 651.754,108.114C657.961,117.037 665.722,123.243 665.722,123.243C665.722,123.243 652.918,108.112 651.366,105.009C649.813,101.905 646.71,104.233 647.873,108.889C649.037,113.544 649.425,120.916 647.487,124.408Z" style="fill-rule:nonzero;"/>
        <path d="M694.432,95.698C694.432,95.698 694.598,95.504 695.77,93.158C697.429,89.841 696.014,87.06 697.088,86.419C703.977,82.316 703.242,87.884 703.977,89.349C704.709,90.815 705.734,91.986 704.417,92.573C703.097,93.158 701.485,91.986 701.485,91.986C701.485,91.986 705.589,93.452 705.881,94.33C706.173,95.211 697.921,96.473 697.921,96.473L694.432,95.698Z" style="fill-rule:nonzero;"/>
        <path d="M705.733,92.719C706.128,92.523 706.612,91.547 707.636,92.133C708.663,92.719 709.544,92.719 709.544,92.719L711.155,93.597C711.155,93.597 711.74,95.21 709.836,94.917C707.932,94.625 708.225,93.597 707.198,93.597C706.174,93.597 705.147,93.012 705.733,92.719Z" style="fill-rule:nonzero;"/>
        <path d="M701.19,97.115C701.19,97.115 703.681,99.313 705.294,98.433C706.905,97.554 707.783,96.089 707.783,96.089C707.783,96.089 702.951,95.21 701.19,97.115Z" style="fill-rule:nonzero;"/>
    </g>
</svg>
