<?xml version="1.0" encoding="UTF-8" standalone="no"?>
<!DOCTYPE svg PUBLIC "-//W3C//DTD SVG 1.1//EN" "http://www.w3.org/Graphics/SVG/1.1/DTD/svg11.dtd">
<svg width="100%" height="100%" viewBox="0 0 87 253" version="1.1" xmlns="http://www.w3.org/2000/svg" xmlns:xlink="http://www.w3.org/1999/xlink" xml:space="preserve" xmlns:serif="http://www.serif.com/" style="fill-rule:evenodd;clip-rule:evenodd;stroke-linejoin:round;stroke-miterlimit:1.41421;">
    <g transform="matrix(1,0,0,1,-450.654,-321.998)">
        <path d="M450.654,356.916C450.635,362.546 459.03,376.646 463.573,381.468C468.114,386.291 467.669,392.641 470.292,398.079C472.912,403.515 477.912,412.501 483.66,421.536C489.407,430.572 485.255,436.285 485.255,436.285C485.255,436.285 481.922,457.072 482.525,469.876C483.13,482.679 487.797,501.774 488.153,507.43C488.507,513.083 488.651,521.726 490.447,528.234C492.243,534.743 492.449,547.891 492.214,551.254C491.978,554.615 490.804,555.284 490.301,557.126C489.796,558.966 488.708,563.77 485.484,566.924C482.261,570.075 482.078,572.689 482.078,572.689C482.078,572.689 486.325,576.366 490.964,574.438C495.603,572.512 498.906,568.238 501.382,565.034C503.86,561.831 505.589,558.574 504.999,556.281C504.408,553.985 502.94,553.508 501.978,551.188C501.013,548.869 504.047,543.075 505.528,532.67C507.007,522.264 504.215,508.556 503.408,503.994C502.602,499.433 503.742,493.884 504.003,490.147C504.265,486.414 506.674,473.446 505.776,459.496C506.747,467.07 511.953,489.206 512.142,491.844C512.333,494.486 511.194,500.036 510.531,504.117C509.87,508.201 510.486,510.121 511.424,512.816C512.361,515.506 510.39,516.872 511.301,519.936C512.211,523.004 512.958,523.055 511.977,526.365C510.993,529.672 510.22,529.995 510.307,534.13C510.39,538.267 515.809,541.274 515.809,541.274L515.574,544.634L513.472,547.864C511.368,551.093 511.696,557.124 513.625,561.762C514.949,574.992 519.935,573.462 522.949,573.301C525.964,573.136 527.266,570.6 526.33,567.906C525.392,565.213 527.81,557.501 526.926,554.06C526.039,550.622 523.66,547.074 523.66,547.074C523.66,547.074 525.357,538.937 526.791,534.533C528.228,530.131 531.051,527.325 530.781,525.807C530.512,524.286 528.585,519.643 528.206,514.362C527.824,509.082 528.323,501.986 527.594,496.305C526.867,490.623 527.708,462.532 528.337,453.568C528.964,444.603 523.723,433.727 520.596,430.13C517.471,426.533 517.942,419.811 517.942,419.811C517.942,419.811 524.488,428.15 527.398,429.481C530.309,430.81 528.925,434.467 528.925,434.467L528.021,436.655L531.251,438.759C531.251,438.759 533.065,439.636 534.588,439.367C536.106,439.098 536.984,437.284 536.795,434.644C536.605,432.002 533.903,427.686 532.114,426.432C530.326,425.182 526.261,418.891 526.261,418.891L524.525,416.893C522.788,414.895 513.594,401.489 513.594,401.489C513.594,401.489 514.551,390.617 513.547,386.097C512.383,380.871 507.922,382.493 507.922,382.493C507.922,382.493 501.338,382.192 498.494,381.289C495.995,380.493 495.872,375.85 495.872,375.85C495.881,375.827 495.885,375.811 495.893,375.788C496.522,375.999 498.463,375.845 498.582,375.854C499.399,375.91 499.156,373.078 500.382,372.81C504.944,371.808 503.396,367.475 503.396,367.475C503.396,367.475 499.174,364.807 501.144,364.302C503.111,363.794 504.323,362.594 503.43,361.565C502.534,360.536 501.905,360.329 502.614,359.413C503.321,358.497 503.917,359.183 503.046,357.832C502.175,356.485 501.067,358.497 501.729,355.969C502.388,353.44 502.376,353.599 502.388,353.44C502.399,353.277 501.665,352.262 501.665,352.262C501.665,352.262 502.292,350.21 501.17,350.132C500.049,350.055 499.236,350.157 499.236,350.157C499.236,350.157 497.462,350.195 497.495,349.715C497.528,349.234 497.402,348.74 497.275,348.249C497.15,347.757 496.918,346.453 496.918,346.453C495.555,345.23 494.859,345.986 494.859,345.986C494.859,345.986 492.098,346.277 491.309,346.06C490.521,345.843 489.669,344.173 489.669,344.173L488.387,344.082C487.36,344.978 486.294,344.097 486.294,344.097C485.128,344.66 483.789,345.369 483.502,344.867C483.215,344.366 481.988,343.474 481.934,344.276C481.877,345.078 482.761,346.266 481.616,346.507C480.472,346.749 479.671,346.692 478.891,346.315C478.113,345.939 475.399,345.588 477.381,347.176C479.363,348.765 478.721,348.721 477.258,348.94C475.792,349.159 471.044,348.02 472.692,349.748C474.344,351.474 474.801,351.826 473.806,352.24C472.811,352.655 469.938,352.292 470.786,353.962C471.637,355.631 471.478,355.565 471.591,356.274C471.926,358.39 469.72,360.008 470.636,360.716C471.552,361.422 472.112,360.335 472.607,362.464C473.103,364.592 471.924,365.315 471.924,365.315C471.924,365.315 473.264,364.604 474.223,364.671C475.184,364.737 475.655,364.931 474.111,366.274C472.569,367.616 470.533,369.083 471.516,368.828C472.5,368.576 473.267,366.859 473.838,367.866C474.411,368.871 474.401,369.031 475.214,368.926C476.027,368.823 474.625,371.535 475.106,371.571C475.585,371.604 476.138,371.906 476.138,371.906C476.138,371.906 476.894,373.077 476.872,372.749C477.195,372.736 478.168,373.104 478.168,373.104C478.168,373.104 480.505,375.526 481.069,378.191C481.632,380.858 476.48,379.372 476.188,378.225C474.632,373.613 468.25,368.283 466.941,365.564C465.628,362.846 461.808,358.451 461.27,355.41C463.217,354.42 470.874,341.554 471.386,339.602C472.697,334.61 474.482,336.382 476.453,335.016C478.427,333.655 478.53,330.583 478.473,328.85C478.446,328.055 480.834,326.72 479.269,323.644C478.948,323.01 479.883,322.924 478.815,322.098C477.747,321.272 477.447,325.767 475.227,328.414C472.481,331.684 468.47,333.018 468.47,333.018C468.47,333.018 450.675,351.287 450.654,356.916ZM498.126,490.957C501.099,484.688 505.213,459.664 505.213,459.664C506.383,484.247 499.077,494.058 502.72,508.497C507.205,526.277 502.225,539.439 501.252,545.286C500.278,551.128 501.726,554.607 500.182,552.529C498.637,550.449 499.744,548.215 500.887,535.909C502.032,523.603 496.805,505.783 497.863,502.761C498.919,499.74 495.154,497.222 498.126,490.957ZM495.802,383.541C495.803,383.541 495.804,383.541 495.804,383.543C497.074,383.897 499.29,384.331 501.685,383.951C505.385,383.367 507.782,382.859 509.887,383.402C512.561,384.088 513.141,387.908 513.182,392.906C513.36,394.184 513.276,395.528 513.093,397.087C512.927,401.41 513.646,402.541 513.646,402.541C513.646,402.541 514.942,407.494 515.73,410.741C516.372,413.381 516.933,419.357 516.933,419.357C516.933,419.357 516.064,427.928 522.939,434.141C522.939,434.141 527.133,442.6 526.992,456.663C526.85,470.728 525.885,498.713 526.54,507.303C527.273,516.927 530.266,525.841 526.587,530.092C524.805,532.15 524.042,538.939 523.364,540.578C522.686,542.222 525.344,544.856 521.486,543.263C519.025,542.246 519.22,539.445 519.97,532.742C520.722,526.037 523.621,518.849 521.735,513.649C519.847,508.451 519.241,498.116 520.813,491.754C522.385,485.387 523.4,474.564 523.055,471.444C522.71,468.323 523.109,455.827 518.262,436.626C518.262,436.626 513.727,428.7 513.154,423.238C512.579,417.773 512.394,415.848 512.394,415.848C512.394,415.848 512.558,401.227 512.742,399.816C512.869,398.824 512.995,397.924 513.094,397.085C513.109,396.683 513.13,396.264 513.161,395.807C513.18,394.806 513.191,393.837 513.182,392.905C512.911,390.963 512.039,389.159 509.977,386.957C509.977,386.957 509.168,385.601 505.528,385.346C501.888,385.091 497.95,385.097 495.804,383.542C495.116,383.349 494.7,383.18 494.7,383.18C494.7,383.18 493.658,381.982 495.802,383.541ZM495.689,375.651C495.699,375.687 495.75,375.712 495.791,375.738C495.621,376.036 495.445,376.347 495.689,375.651ZM486.742,380.204C487.24,380.365 487.72,380.47 488.155,380.513C487.646,380.478 487.178,380.366 486.742,380.204ZM484.43,366.167C486.116,365.951 487.895,369.077 487.895,369.077L488.012,367.418C488.127,365.76 487.059,364.889 486.324,362.967C484.376,357.528 490.103,355.964 492.334,355.569C492.885,355.864 493.412,356.174 493.861,356.502C496.348,358.311 497.876,360.626 497.83,361.275C497.785,361.925 497.682,363.386 497.836,365.847C497.991,368.304 497.494,370.719 497.494,370.719C497.152,373.306 496.511,373.099 495.366,375.467C493.595,379.191 491.884,380.369 489.546,380.524C490.693,380.338 490.425,379.472 490.277,377.911C490.084,375.897 487.692,376.731 487.692,376.731L487.909,378.412C488.123,380.094 484.044,376.475 482.948,373.065C481.854,369.652 482.75,366.383 484.43,366.167ZM457.921,354.862C457.646,351.038 462.984,347.246 464.809,344.474C466.636,341.703 471.622,335.167 471.622,335.167C471.622,335.167 471.596,334.007 473.964,333.811C475.907,333.65 477.043,333.522 477.657,332.85C477.948,332.355 478.117,332.041 477.997,332.33C477.91,332.539 477.792,332.703 477.657,332.85C477.255,333.534 476.617,334.569 476.173,334.866C475.114,335.581 474.353,334.998 473.245,335.283C472.137,335.568 471.907,336.277 471.007,338.748C470.111,341.223 463.977,350.908 460.629,355.238C461.108,357.939 463.638,361.031 465.481,364.083C466.448,365.691 468.647,368.688 470.664,371.327C472.635,373.579 474.378,375.734 474.717,376.331C475.064,376.937 472.986,374.371 470.664,371.327C468.895,369.308 466.944,367.212 465.651,366.094C462.919,363.729 460.451,357.575 460.026,358.451C459.603,359.329 458.196,358.688 457.921,354.862Z" style="fill-rule:nonzero;"/>
        <path d="M492.604,365.664L490.289,366.289L491.24,364.506C492.189,362.72 494.889,364.42 494.889,364.42C494.889,364.42 494.293,366.303 493.453,365.667C492.614,365.034 492.604,365.664 492.604,365.664Z" style="fill-rule:nonzero;"/>
        <path d="M490.764,370.944C487.191,374.362 485.257,370.396 487.14,370.357C490.811,370.28 490.764,370.944 490.764,370.944Z" style="fill-rule:nonzero;"/>
        <path d="M490.095,373.799C491.779,373.582 492.149,374.031 492.149,374.031C489.92,376.303 484.768,375.604 486.234,373.707C486.233,373.707 488.413,374.012 490.095,373.799Z" style="fill-rule:nonzero;"/>
    </g>
</svg>
