<?xml version="1.0" encoding="UTF-8" standalone="no"?>
<!DOCTYPE svg PUBLIC "-//W3C//DTD SVG 1.1//EN" "http://www.w3.org/Graphics/SVG/1.1/DTD/svg11.dtd">
<svg width="100%" height="100%" viewBox="0 0 95 227" version="1.1" xmlns="http://www.w3.org/2000/svg" xmlns:xlink="http://www.w3.org/1999/xlink" xml:space="preserve" xmlns:serif="http://www.serif.com/" style="fill-rule:evenodd;clip-rule:evenodd;stroke-linejoin:round;stroke-miterlimit:1.41421;">
    <g transform="matrix(1,0,0,1,-271.033,-39.5413)">
        <path d="M362.461,132.391C361.608,129.8 359.905,124.332 360.788,118.874C361.671,113.416 360.837,105.939 359.991,102.199C359.141,98.458 364.644,92.778 364.278,85.706C364.034,80.966 363.939,71.953 360.032,66.046C357.174,61.722 354.399,60.786 351.563,51.29C348.725,41.793 349.109,42.052 344.417,40.45C342.25,39.711 337.383,38.861 334.202,40.409C332.394,41.289 328.372,44.374 327.499,46.67C326.627,48.965 326.328,57.28 326.328,57.28C326.314,61.016 324.724,63.418 324.181,67.806C323.543,72.967 328.135,72.588 322.026,80.264C318.728,84.411 320.416,87.984 320.416,87.984C320.589,98.838 320.996,96.398 320.004,103.609C319.866,104.611 319.884,105.502 320.039,105.926C317.656,109.574 314.967,113.197 310.795,115.494C304.955,118.709 298.401,126.144 294.18,129.043C289.959,131.941 291.059,130.139 287.498,129.803C283.937,129.466 279.32,127.439 276.903,125.391C272.527,121.687 270.289,122.139 271.256,123.437C272.223,124.737 274.483,126.689 274.483,126.689C274.483,126.689 274.285,128.071 274.797,128.956C277.049,132.852 279.318,132.537 281.575,134.812C283.835,137.088 289.768,136.977 292.032,137.633C294.296,138.292 296.561,138.948 299.484,137.016C302.405,135.082 322.734,126.875 324.032,126.231C325.329,125.588 329.815,138.235 330.116,144.067L330.423,147.954C330.423,147.954 331.068,149.574 325.229,151.819C319.391,154.064 300.253,162.41 292.781,168.534C285.308,174.659 283.355,177.566 286.251,182.112C289.148,186.654 300.421,202.568 302.018,208.725C303.613,214.883 313.007,231.674 314.233,232.092C316.173,232.745 315.189,235.981 312.914,238.24C310.638,240.495 308.685,243.079 312.578,241.153C316.473,239.225 326.204,234.726 326.204,234.726C326.204,234.726 330.027,251.259 330.664,254.174C331.299,257.091 331.612,260.008 331.612,260.008C331.612,260.008 321.88,264.505 323.171,265.805C324.461,267.105 356.85,265.935 356.85,265.935C356.85,265.935 358.809,261.407 355.265,257.508C357.539,255.572 355.275,254.594 354.32,250.704C353.36,246.814 349.219,229.309 343.097,220.867C336.978,212.426 331.813,208.518 336.044,203.029C339.291,198.815 346.967,183.557 350.662,174.2C354.689,172.641 358.275,169.619 360.16,163.611C361.134,158.535 362.406,152.202 357.911,142.168C358.039,142.191 358.171,142.207 358.298,142.231C358.298,142.231 352.496,135.407 354.146,127.642C354.614,125.435 355.138,122.47 355.633,119.208C356.112,121.554 356.504,124.03 356.74,126.357C357.301,131.847 359.011,132.087 358.733,130.074C358.454,128.06 358.483,120.874 358.483,120.874C358.483,120.874 359.038,125.763 360.604,132.524C362.169,139.284 365.055,130.672 365.055,130.672C365.055,130.672 363.313,134.981 362.461,132.391ZM328.249,59.248C328.369,57.977 328.588,56.992 328.81,55.561C328.818,55.74 328.817,55.902 328.793,56.044C328.587,57.236 329.881,57.14 331.668,57.148C330.383,58.021 329.284,61.252 328.795,63.035C328.36,62.076 328.073,61.119 328.249,59.248ZM331.554,70.703C331.311,70.275 331.111,69.794 330.937,69.261C331.143,69.769 331.351,70.257 331.554,70.703ZM297.299,132.227C297.299,132.227 296.128,134.936 292.197,135.314C288.267,135.692 287.092,134.902 284.347,133.319C281.603,131.737 279.549,130.544 279.549,130.544C278.767,129.361 279.296,129.172 283.177,130.957C290.564,134.354 296.074,134.124 300.806,129.82C305.537,125.517 317.039,121.94 319.683,118.323C321.671,115.605 326.918,111.123 330.216,107.602C336.507,100.888 341.067,95.43 341.067,95.43C341.067,95.43 332.373,108.363 327.248,113.057C318.171,124.02 297.299,132.227 297.299,132.227ZM316.336,190.645C314.725,188.374 310.86,182.853 310.541,181.88C310.222,180.909 314.433,179.954 314.433,179.954C314.433,179.954 316.737,179.439 319.952,178.784C319.522,181.182 318.976,184.21 318.62,186.122C317.959,189.681 317.947,192.92 316.336,190.645ZM321.476,193.885C320.276,192.205 319.065,190.969 319.065,190.969L321.409,178.807L327.718,177.681C327.717,177.681 322.068,189.576 321.476,193.885ZM314.341,161.631C297.325,167.493 287.815,174.175 287.815,174.175C292.966,168.374 308.379,159.923 315.273,157.22C330.594,151.216 331.329,149.009 331.329,149.009C333.564,140.81 325.562,120.97 325.562,120.97C325.562,120.97 325.176,118.796 329.53,116.441C331.285,131.312 340.639,143.519 341.612,146.22C341.824,146.438 342.036,146.671 342.248,146.928C343.158,148.026 331.354,155.769 314.341,161.631ZM335.867,85.149C334.275,87.907 332.272,94.618 329.496,97.374C326.72,100.129 323.145,104.462 323.145,104.462L323.549,102.092C323.955,99.724 325.546,96.964 327.529,94.995C329.512,93.027 329.922,89.471 333.106,83.556C336.288,77.641 344.98,78.069 344.98,78.069C340.631,79.236 337.456,82.387 335.867,85.149ZM333.789,73.052C335.05,73.446 336.682,73.606 337.55,73.65C337.311,74.639 336.745,76.738 335.893,78.43C335.622,78.963 335.255,79.409 334.755,79.934C335.011,79.294 335.143,78.665 335.103,78.032C334.978,76.05 334.682,74.291 333.789,73.052ZM345.481,63.05C345.481,63.05 344.711,64.655 343.596,66.486C342.356,67.651 338.097,70.105 336.384,70.478C334.595,70.869 333.407,69.77 333.511,68.48C333.616,67.189 335.68,65.844 335.68,65.844C335.68,65.844 340.745,63.426 334.331,64.485C333.266,64.661 333.529,63.712 333.728,63.315C333.93,62.92 333.728,63.315 333.533,62.62C333.336,61.922 335.027,61.63 335.027,61.63C335.027,61.63 332.547,60.827 332.25,60.528C331.953,60.229 332.353,59.833 332.652,59.139C332.953,58.444 333.427,53.92 333.427,53.92C332.338,51.242 333.913,48.413 334.896,47.021C340.667,45.299 346.958,52.366 346.943,55.869C346.933,58.92 347.509,61.009 348.651,62.772C348.027,63.99 346.919,65.223 345.481,63.05Z" style="fill-rule:nonzero;"/>
    </g>
</svg>
