<?xml version="1.0" encoding="UTF-8" standalone="no"?>
<!DOCTYPE svg PUBLIC "-//W3C//DTD SVG 1.1//EN" "http://www.w3.org/Graphics/SVG/1.1/DTD/svg11.dtd">
<svg width="100%" height="100%" viewBox="0 0 91 186" version="1.1" xmlns="http://www.w3.org/2000/svg" xmlns:xlink="http://www.w3.org/1999/xlink" xml:space="preserve" xmlns:serif="http://www.serif.com/" style="fill-rule:evenodd;clip-rule:evenodd;stroke-linejoin:round;stroke-miterlimit:1.41421;">
    <g transform="matrix(1,0,0,1,-2.978,-188.287)">
        <path d="M34.178,188.287C35.351,188.287 36.525,188.287 37.699,188.287C38.129,188.4 38.791,188.978 39.217,189.115C40.609,189.563 42.217,188.754 43.635,189.254C47.01,190.438 48.965,194.482 49.71,198.364C49.663,199.399 49.618,200.436 49.571,201.472C50.19,204.216 51.178,211.442 52.747,212.93C54.133,214.241 55.142,212.95 56.475,213.275C57.258,213.464 57.961,213.996 58.891,214.172C60.938,214.078 62.987,213.987 65.036,213.896C66.278,214.495 67.521,215.092 68.763,215.69C69.132,216.014 69.499,216.336 69.868,216.658C70.097,216.658 70.327,216.658 70.558,216.658C71.409,217.762 72.26,218.864 73.112,219.969C74.87,221.979 76.801,223.611 79.118,225.078C79.647,225.414 81.669,227.636 82.431,227.082C82.817,226.664 82.731,225.546 83.191,225.218C83.375,225.171 83.559,225.124 83.743,225.078C83.747,223.651 84.231,222.419 84.502,221.213C84.456,220.868 84.41,220.523 84.364,220.178C84.456,219.58 84.548,218.982 84.641,218.383C84.618,217.601 84.594,216.819 84.572,216.037C84.686,215.575 84.802,215.115 84.917,214.655C84.817,214.253 84.334,213.707 84.227,213.206C83.972,212.025 84.469,210.836 84.019,209.757C83.409,208.287 81.834,207.689 80.982,206.513C80.661,205.819 80.337,205.131 80.016,204.44C79.251,203.122 78.484,202.193 78.221,200.298C78.406,200.159 78.59,200.023 78.773,199.886C79.096,199.886 79.418,199.886 79.739,199.886C80.2,200.413 80.661,200.942 81.12,201.474C81.58,202.363 81.559,202.92 82.225,203.543C85.156,203.587 84.707,202.272 85.192,199.886C85.347,199.124 85.505,198.188 85.331,197.331C85.353,196.594 85.377,195.858 85.4,195.123C85.129,193.64 84.89,192.214 85.675,191.12C85.859,191.096 86.042,191.074 86.228,191.051C86.411,191.189 86.595,191.325 86.779,191.464C86.804,190.977 86.914,190.91 87.194,190.705C87.378,190.729 87.562,190.751 87.747,190.774C89.306,192.945 91.725,193.723 92.647,196.573C93.351,198.751 91.956,201.863 91.956,204.236C91.956,204.718 91.956,205.203 91.956,205.684C92.2,206.37 93.206,206.528 93.475,207.41C94.119,209.518 93.745,212.495 93.2,214.104C93.246,215.6 93.292,217.097 93.338,218.592C93.339,220.979 92.932,222.536 92.579,224.46C92.533,225.564 92.487,226.667 92.442,227.772C92.025,229.936 91.612,232.099 91.199,234.261C90.893,235.814 90.926,238.358 90.094,239.3C88.927,240.624 84.637,240.68 82.57,239.99C76.698,238.031 71.912,235.918 68.349,231.707C66.393,232.191 66.766,239.838 66.278,242.406C66.09,243.392 65.896,245.349 66.139,246.547C66.247,247.077 66.708,247.469 66.555,248.204C66.272,249.543 65.742,251.162 65.451,252.621C65.156,254.095 65.528,256.086 65.726,257.178C65.679,258.559 65.635,259.94 65.588,261.321C65.75,261.733 65.91,262.149 66.072,262.562C66.139,263.39 66.209,264.218 66.278,265.046C66.577,265.46 66.876,265.877 67.176,266.29C68.009,267.852 67.429,270.042 66.485,270.846C66.647,271.672 66.807,272.503 66.968,273.329C67.193,273.94 67.777,274.308 67.935,275.124C68.144,276.212 67.329,276.467 67.659,277.748C68.829,282.311 69.014,287.533 70.006,292.519C70.658,295.8 71.346,299.18 72.077,302.457C72.055,303.332 72.03,304.206 72.007,305.081C72.275,306.775 72.398,308.565 72.698,310.465C72.698,312.858 72.698,315.251 72.698,317.644C73.434,321.575 74.406,325.79 75.253,329.379C75.471,330.303 75.247,331.14 75.529,332.277C75.822,333.46 75.928,334.722 76.218,336.142C76.587,337.338 76.955,338.535 77.324,339.732C77.67,341.481 77.01,343.114 76.771,344.289C76.373,346.235 77.642,347.526 78.014,348.846C78.37,350.109 77.488,350.584 77.324,351.329C77.014,352.728 77.821,353.676 78.014,354.642C78.245,355.808 78.018,358.235 77.6,359.06C77.311,359.628 76.542,360.3 76.771,361.409C77.094,362.973 78.981,363.593 78.428,366.241C78.069,367.957 76.094,368.828 75.805,370.519C75.758,370.79 75.928,371.159 75.872,371.486C75.66,371.573 75.47,371.592 75.39,371.693C74.901,372.419 74.711,373.32 74.216,373.968C69.854,374.039 60.042,374.543 58.961,371.761C58.546,370.696 59.289,369.956 59.514,369.275C59.536,368.907 59.559,368.541 59.581,368.171C59.969,367.176 61.071,366.766 61.653,365.893C60.771,363.28 59.417,359.966 59.099,356.852C59.023,356.106 59.388,354.857 59.237,353.883C59.168,352.617 59.099,351.352 59.031,350.087C59.053,349.351 59.077,348.613 59.099,347.877C58.639,345.461 59.458,342.326 58.961,339.732C58.708,338.404 58.536,335.893 58.823,334.346C59.026,333.256 59.255,331.019 58.961,329.723C58.354,327.045 58.449,322.874 57.857,320.265C57.598,319.127 58.06,317.026 57.857,316.263C57.627,315.986 57.396,315.71 57.166,315.434C57.166,315.067 57.166,314.699 57.166,314.329C56.702,312.591 56.084,310.511 55.51,308.877C55.143,307.818 54.773,306.76 54.406,305.701C53.865,304.769 53.079,303.955 52.611,302.873C51.861,301.138 51.418,299.474 50.195,298.248C49.895,297.995 49.597,297.739 49.297,297.488C48.605,297.261 46.54,297.526 46.191,297.834C44.881,301.261 43.568,304.69 42.256,308.117C41.313,310.096 40.37,312.076 39.425,314.055C38.648,316.249 38.2,318.597 37.561,320.821C37.516,321.602 37.469,322.384 37.424,323.167C36.591,326.939 36.724,330.885 35.904,334.765C34.899,339.521 34.185,344.156 33.005,348.983C32.522,350.432 32.04,351.881 31.556,353.333C31.405,354.564 31.218,356.21 30.797,357.543C30.41,358.767 29.535,360.193 29.14,361.41C28.942,362.014 29.225,362.447 29.07,363.064C28.859,363.911 28.485,365.225 28.174,365.963C28.945,366.177 31.644,367.493 31.142,368.311C31.046,368.559 31.079,368.531 30.867,368.655C29.483,369.451 27.058,369.058 25.207,369.347C19.515,370.226 12.72,369.225 7.119,368.932C7.02,368.386 6.968,368.208 6.98,367.551C7.095,367.459 7.21,367.367 7.325,367.276C7.325,367.253 7.325,367.229 7.325,367.207C5.581,367.012 3.117,366.002 2.978,364.238C3.272,363.919 3.457,363.842 3.943,363.686C3.827,361.64 5.655,359.857 8.084,360.649C9.144,361.318 10.203,361.983 11.26,362.649C12.916,363.098 13.054,361.426 13.952,361.062C13.768,360.833 13.585,360.602 13.399,360.374C13.585,359.473 14.361,358.543 14.92,357.957C14.792,356.981 14.195,356.049 13.953,355.196C13.514,353.641 14.49,352.682 14.782,351.881C15.714,349.33 16.845,347.124 18.165,344.841C18.695,344.151 19.224,343.462 19.752,342.771C19.799,341.69 19.846,340.609 19.891,339.527C20.166,337.018 20.443,334.509 20.72,332.004C20.766,330.187 20.812,328.368 20.858,326.551C21.157,321.858 21.457,317.162 21.755,312.469C21.824,310.767 21.894,309.064 21.961,307.361C22.03,305.108 22.1,302.852 22.169,300.597C22.422,294.132 22.675,287.664 22.928,281.2C23.067,276.691 23.204,272.179 23.342,267.67C23.411,265.164 23.48,262.657 23.548,260.148C23.663,253.294 23.779,246.435 23.894,239.579C22.007,240.774 20.121,241.974 18.233,243.169C17.328,243.434 16.039,243.081 15.335,242.962C11.955,242.381 9.926,240.578 10.778,236.335C10.778,235.139 10.778,233.941 10.778,232.745C11.017,231.396 11.475,230.291 11.814,229.224C12.045,228.235 12.273,227.246 12.504,226.257C13.378,224.623 14.253,222.988 15.127,221.357C15.288,219.999 15.449,218.641 15.61,217.286C16.025,216.756 16.439,216.225 16.853,215.696C15.919,214.032 17.655,212.502 18.096,211.073C18.096,210.382 18.096,209.692 18.096,209.002C18.464,208.197 18.832,207.39 19.199,206.585C19.178,206.541 19.154,206.493 19.132,206.446C18.348,206.701 17.683,206.428 17.475,205.757C15.554,205.807 13.978,205.528 12.919,204.722C12.872,204.293 12.864,203.989 12.988,203.618C14.553,202.915 17.634,203.131 19.476,203.201C20.228,201.807 21.93,201.593 23.136,200.648C23.764,200.766 25.058,201.268 25.482,200.786C25.752,200.718 27.025,200.738 27.069,200.719C27.402,200.573 27.489,200.221 28.106,200.165C28.904,200.835 29.751,201.329 30.107,202.445C30.13,202.445 30.153,202.445 30.175,202.445C30.183,201.02 30.38,199.495 29.899,198.302C29.371,197.543 28.84,196.783 28.311,196.025C27.45,194.063 28.192,191.2 29.485,190.226C30.567,189.629 31.649,189.029 32.73,188.433C33.211,188.378 33.694,188.333 34.178,188.287ZM87.263,191.186C87.171,191.253 87.079,191.322 86.987,191.392C87.025,193.869 88.494,196.533 87.678,199.054C87.586,199.054 87.492,199.054 87.401,199.054C87.378,199.032 87.355,199.011 87.333,198.987C87.378,196.576 87.372,193.33 86.366,191.6C86.205,191.577 86.043,191.554 85.883,191.531C85.172,192.596 85.527,194.174 85.745,195.602C86.208,198.64 85.778,202.747 83.95,203.68C83.237,204.043 82.459,204.095 81.741,203.68C81.451,202.849 79.977,199.781 78.842,200.228C78.71,200.324 78.8,200.234 78.704,200.367C78.088,201.516 79.782,203.162 80.223,203.886C80.638,204.694 81.051,205.497 81.466,206.302C82.409,207.552 85.615,208.604 87.402,209.134C88.391,209.425 89.499,210.282 90.647,209.617C91.038,208.42 91.428,207.221 91.82,206.025C92.081,204.259 91.409,204.152 91.751,202.437C92.341,199.48 93.175,195.849 90.786,194.084C90.716,194.108 90.648,194.13 90.578,194.152C90.532,194.246 90.486,194.337 90.44,194.43C90.06,195.944 91.844,198.285 90.716,199.884C90.624,199.86 90.531,199.835 90.44,199.815C90.852,197.237 90.296,193.747 89.059,192.291C88.944,192.314 88.83,192.336 88.714,192.359C87.722,192.926 90.047,197.287 89.612,198.916C89.565,198.987 89.52,199.054 89.473,199.124C89.313,199.124 89.152,199.124 88.99,199.124C89.303,196.948 88.42,195.392 88.093,193.811C87.886,192.808 88.288,192.08 87.886,191.394C87.677,191.322 87.469,191.253 87.263,191.186ZM37.975,213.896C37.956,214.869 38.042,215.869 38.457,216.45C40.164,218.838 49.983,216.937 52.54,216.174C54.015,215.732 55.165,215.882 56.061,214.932C56.069,214.398 55.981,214.314 55.785,214.034C54.607,214.006 53.165,213.905 52.472,213.343C50.638,211.86 50.274,205.993 49.572,203.06C49.319,202.532 49.066,202.002 48.813,201.475C48.569,200.322 50.348,198.616 48.537,197.538C47.022,196.638 45.379,198.716 44.671,199.263C43.82,195.922 37.609,195.969 40.598,192.156C40.552,192.017 40.506,191.878 40.46,191.741C38.233,191.646 36.726,191.748 35.49,192.708C35.402,192.217 35.369,191.801 34.798,191.741C34.453,192.224 34.108,192.708 33.763,193.19C33.769,192.825 33.726,192.636 33.624,192.431C33.374,192.476 33.416,192.458 33.28,192.569C32.522,192.89 32.181,193.485 31.899,194.295C31.655,194.131 31.621,194.059 31.208,194.018C29.893,196.024 30.145,197.243 30.587,199.888C30.608,200.623 30.633,201.359 30.657,202.096C31.829,202.564 32.84,204.177 32.589,205.959C32.526,206.407 32.433,207.239 32.658,207.616C33.181,208.498 34.044,209.595 34.66,210.447C34.913,211.207 35.166,211.965 35.419,212.724C35.672,212.932 35.925,213.138 36.178,213.343C37.799,214.134 44.054,211.213 44.806,210.447C45.284,209.961 45.333,209.037 45.842,208.582C45.993,208.687 46.013,208.711 46.118,208.859C45.864,209.435 45.611,210.01 45.358,210.582C44.634,211.591 39.611,213.745 37.975,213.896ZM27.481,200.573C27.459,200.712 27.436,200.85 27.413,200.988C28.953,201.886 29.205,202.64 29.621,204.715C29.714,204.694 29.806,204.668 29.897,204.646C29.722,202.106 29.787,202.021 28.241,200.574C27.988,200.573 27.736,200.573 27.481,200.573ZM26.102,200.851C25.986,200.941 25.871,201.034 25.757,201.125C25.757,201.147 25.757,201.172 25.757,201.194C26.41,201.617 27.251,201.74 27.69,202.367C28.273,203.204 28.086,204.991 28.587,205.817C28.748,205.795 28.908,205.772 29.069,205.75C29.734,205.389 29.274,204.467 29.139,203.956C28.678,202.213 28.102,200.924 26.102,200.851ZM23.134,200.988C22.125,201.42 20.154,202.139 19.958,203.334C20.28,203.334 20.602,203.334 20.924,203.334C22.165,203.65 22.699,202.446 23.961,202.989C24.934,203.407 24.772,204.64 26.239,204.782C26.285,204.737 26.331,204.693 26.377,204.645C26.275,202.76 24.644,201.446 23.134,200.988ZM24.238,201.125C24.191,201.194 24.146,201.263 24.099,201.333C24.099,201.354 24.099,201.377 24.099,201.4C26.306,201.75 25.953,203.9 27.205,205.129C27.366,205.082 27.527,205.037 27.689,204.99C27.736,204.99 27.781,204.99 27.827,204.99C27.906,202.575 26.617,201.134 24.238,201.125ZM30.658,202.712C30.541,202.851 30.427,202.989 30.312,203.129C29.712,204.4 30.935,205.491 30.727,206.373C30.659,206.324 30.589,206.278 30.519,206.233C30.381,206.003 30.243,205.772 30.105,205.543C30.013,205.543 29.92,205.543 29.828,205.543C29.672,205.847 28.819,207.09 28.586,207.338C28.001,207.961 26.907,207.87 26.446,208.649C26.217,209.169 26.304,210.105 26.446,210.58C26.492,210.606 26.538,210.63 26.585,210.652C28.29,210.558 31.844,207.307 32.175,205.751C32.337,204.993 31.738,204.619 31.555,204.163C31.371,203.707 31.49,203.136 31.14,202.851C30.979,202.806 30.818,202.76 30.658,202.712ZM35.282,204.3C36.36,204.255 37.995,204.26 38.388,204.922C39.429,206.705 36.636,209.709 34.592,209.269C33.626,208.371 32.827,206.933 33.349,205.335C33.884,205.155 33.981,204.727 34.385,204.508C34.684,204.438 34.983,204.369 35.282,204.3ZM37.009,204.853C35.543,205.757 34.7,205.061 33.694,206.786C33.729,207.386 33.921,207.857 34.317,208.098C35.448,208.879 37.86,206.568 38.25,205.751C38.205,205.568 38.159,205.384 38.112,205.2C37.779,204.968 37.623,204.851 37.009,204.853ZM19.613,206.717C19.274,207.243 18.789,208.592 18.921,209.269C19.621,209.575 19.745,210.316 20.303,210.718C20.905,211.156 22.823,212.177 23.616,212.239C23.616,212.194 23.616,212.148 23.616,212.1C24.116,211.25 23.998,209.146 23.962,208.097C23.372,207.757 23.299,207.246 22.857,206.785C21.749,206.805 20.672,206.817 19.613,206.717ZM30.173,207.338C30.197,207.383 30.22,207.43 30.242,207.477C30.22,207.43 30.198,207.383 30.173,207.338ZM31.625,207.613C30.288,209.274 28.565,210.375 26.585,211.41C26.591,213.526 26.249,215.47 26.239,217.831C27.43,216.943 28.525,215.686 30.105,215.206C31.781,214.698 35.572,215.484 36.525,214.654C36.091,213.894 35.244,213.683 34.868,212.997C34.846,212.722 34.823,212.444 34.799,212.169C34.445,211.097 32.578,207.924 31.625,207.613ZM24.928,212.583C24.769,212.722 24.697,212.728 24.583,212.93C23.636,214.529 24.973,218.076 23.961,219.624C23.241,219.769 22.813,219.442 22.096,219.624C21.425,221.469 22.562,225.517 22.925,227.147C23.339,229.006 21.778,230.06 22.096,230.944C22.208,231.18 22.208,231.174 22.443,231.288C22.931,231.517 23.368,231.231 23.823,231.083C23.845,231.129 23.869,231.174 23.891,231.222C24.219,233.006 23.472,237.464 24.305,238.675C24.489,238.675 24.674,238.675 24.857,238.675C24.996,238.562 25.133,238.446 25.272,238.329C25.327,235.597 25.494,232.443 25.963,230.256C25.939,228.345 25.916,226.435 25.893,224.525C25.898,222.777 26.824,220.536 26.101,219.281C25.939,219.234 25.778,219.189 25.617,219.142C25.664,217.094 25.709,215.045 25.756,212.997C25.617,212.859 25.48,212.722 25.342,212.583C25.206,212.583 25.066,212.583 24.928,212.583ZM47.708,214.101C47.754,214.15 47.8,214.197 47.847,214.241C47.777,214.264 47.708,214.286 47.639,214.311C47.663,214.24 47.685,214.172 47.708,214.101ZM29.483,234.604C28.816,234.925 28.149,235.247 27.481,235.569C26.81,236.034 25.647,237.78 25.412,238.606C25.412,243.369 25.412,248.13 25.412,252.895C25.251,265.019 25.089,277.146 24.928,289.271C24.975,289.248 25.02,289.225 25.067,289.203C25.871,286.35 26.677,283.496 27.482,280.644C27.345,280.162 27.207,279.675 27.068,279.193C27.137,277.837 27.207,276.478 27.276,275.121C27.713,274.124 28.931,273.597 29.347,272.706C30.193,270.889 29.497,268.046 30.175,265.874C30.561,264.64 31.427,263.396 31.694,261.868C31.58,261.132 31.464,260.396 31.35,259.658C31.511,258.464 31.672,257.266 31.833,256.07C32.248,254.414 32.662,252.757 33.075,251.1C32.592,249.007 32.108,246.912 31.627,244.819C31.12,242.45 30.612,240.08 30.107,237.71C29.924,236.85 30.044,235.121 29.483,234.604ZM23.892,290.308C23.731,290.4 23.569,290.492 23.409,290.583C22.685,292.748 23.303,295.688 22.926,298.176C22.718,303.076 22.511,307.978 22.305,312.88C22.305,314.605 22.305,316.332 22.305,318.057C21.867,333.61 21.43,349.166 20.992,364.718C20.946,364.718 20.9,364.718 20.854,364.718C19.473,364.812 18.093,364.903 16.712,364.994C14.78,365.301 12.985,365.514 11.258,365.89C10.292,366.104 8.121,366.36 8.567,367.617C8.678,367.853 8.678,367.849 8.911,367.962C10.26,368.626 13.098,368.239 14.917,368.239C19.864,368.217 24.812,368.192 29.757,368.169C29.78,368.1 29.804,368.032 29.826,367.962C29.959,367.639 29.83,367.489 29.689,367.273C27.801,366.538 25.914,365.799 24.027,365.064C23.443,364.872 22.98,364.968 22.578,364.651C22.739,359.656 22.901,354.663 23.062,349.672C23.337,341.94 23.613,334.208 23.89,326.478C23.936,323.327 23.983,320.173 24.028,317.021C24.55,313.692 23.799,309.884 24.304,306.669C24.488,302.273 24.673,297.877 24.856,293.483C25.079,292.077 25.213,290.429 23.892,290.308ZM21.683,366.79C21.844,366.811 22.005,366.835 22.167,366.858C22.005,366.835 21.844,366.812 21.683,366.79Z"/>
    </g>
</svg>
