<?xml version="1.0" encoding="UTF-8" standalone="no"?>
<!DOCTYPE svg PUBLIC "-//W3C//DTD SVG 1.1//EN" "http://www.w3.org/Graphics/SVG/1.1/DTD/svg11.dtd">
<svg width="100%" height="100%" viewBox="0 0 51 118" version="1.1" xmlns="http://www.w3.org/2000/svg" xmlns:xlink="http://www.w3.org/1999/xlink" xml:space="preserve" xmlns:serif="http://www.serif.com/" style="fill-rule:evenodd;clip-rule:evenodd;stroke-linejoin:round;stroke-miterlimit:1.41421;">
    <g transform="matrix(1,0,0,1,-567.461,-60.7448)">
        <path id="katman_29" d="M568.557,174.215C568.557,174.215 568.043,177.295 569.84,177.68C571.637,178.064 588.447,180.245 581.776,175.242C581.776,175.242 586.138,176.139 586.652,173.957C587.165,171.776 586.138,170.619 582.417,170.619C582.417,170.619 588.448,156.245 590.503,149.445C592.556,142.642 597.561,129.551 596.021,126.216L601.281,125.83C601.281,125.83 598.586,117.232 598.843,115.565C599.099,113.895 598.329,106.581 597.432,105.811C596.533,105.04 597.432,100.164 595.764,99.008C595.764,99.008 593.581,98.495 597.175,97.339C597.175,97.339 602.308,96.186 605.773,83.993L603.463,82.197C603.463,82.197 607.057,80.014 604.874,78.86L602.051,77.192C602.051,77.192 605.645,75.652 605.132,74.368C605.132,74.368 615.655,71.545 610.265,68.464C610.265,68.464 614.628,66.154 616.169,68.079C616.169,68.079 618.094,70.134 617.837,68.079L615.655,61.791C615.655,61.791 613.729,59.354 613.858,61.919C613.858,61.919 613.729,64.229 612.19,65.128L601.153,69.619C601.153,69.619 600.639,66.668 599.355,68.849C599.355,68.849 598.584,70.519 598.202,70.003C598.202,70.003 597.431,67.565 596.405,70.519L596.147,71.544L589.346,74.367C589.346,74.367 587.934,74.238 587.292,76.292L583.57,77.963C583.57,77.963 583.443,76.938 582.929,77.067C582.929,77.067 584.469,76.168 581.389,75.397C581.389,75.397 578.437,69.494 573.56,70.776C573.56,70.776 563.679,73.216 569.07,81.685C569.07,81.685 571.892,85.023 572.791,85.152C572.791,85.152 569.325,85.536 569.967,89.899C570.609,94.262 572.022,101.579 572.92,102.86C572.92,102.86 573.947,104.786 572.791,107.994C572.791,107.994 569.325,124.293 573.433,132.378C573.433,132.378 573.304,143.798 573.433,146.108C573.433,146.109 569.197,171.391 568.557,174.215ZM583.827,79.503L587.42,77.964C589.346,81.042 595.376,77.193 595.376,77.193C596.66,76.808 596.147,77.706 596.147,77.706C595.12,78.348 590.5,82.967 590.5,82.967C589.858,82.455 586.523,82.967 586.523,82.967C583.699,83.481 583.827,79.503 583.827,79.503Z" style="fill:rgb(3,6,6);fill-rule:nonzero;"/>
    </g>
</svg>
