<?xml version="1.0" encoding="UTF-8" standalone="no"?>
<!DOCTYPE svg PUBLIC "-//W3C//DTD SVG 1.1//EN" "http://www.w3.org/Graphics/SVG/1.1/DTD/svg11.dtd">
<svg width="100%" height="100%" viewBox="0 0 69 129" version="1.1" xmlns="http://www.w3.org/2000/svg" xmlns:xlink="http://www.w3.org/1999/xlink" xml:space="preserve" xmlns:serif="http://www.serif.com/" style="fill-rule:evenodd;clip-rule:evenodd;stroke-linejoin:round;stroke-miterlimit:1.41421;">
    <g transform="matrix(1,0,0,1,-63.755,-50.8437)">
        <path d="M129.111,164.247C128.09,161.556 128.555,152.927 128.09,149.679C127.626,146.432 124.656,142.348 124.656,140.586C124.656,138.824 125.584,130.193 125.584,130.193L128.739,129.08C128.739,129.08 127.904,118.78 127.44,113.306C126.976,107.831 129.295,101.707 129.574,100.592C129.852,99.481 132.914,92.892 131.523,87.51C127.626,81.2 123.635,77.581 123.635,77.581C123.635,77.581 123.078,75.819 123.358,75.354C123.635,74.891 125.214,73.869 125.214,71.642C126.791,71.92 127.365,71.532 127.124,71.355L125.552,70.146C125.552,70.146 127.47,65.302 125.429,64.003C123.387,62.704 117.697,60.785 116.274,62.765C114.851,64.745 114.542,65.61 114.542,65.61C114.542,65.61 111.51,66.106 111.818,66.291C112.129,66.477 112.562,66.786 113.057,66.972C113.552,67.158 114.293,67.405 114.293,67.405C114.293,67.405 113.365,68.457 113.489,69.509C113.614,70.561 113.242,72.231 112.623,73.159C112.562,73.963 114.108,74.148 113.923,74.148C113.737,74.148 113.614,75.943 113.614,75.943L113.489,76.933L111.448,78.851C111.448,78.851 106.561,79.222 106.19,79.283C105.819,79.346 109.345,67.469 109.345,67.469C109.345,67.469 110.551,66.819 110.736,66.077C111.085,65.877 111.271,65.894 111.369,65.95L110.921,65.428C110.921,65.428 111.942,59.026 112.129,57.911C112.314,56.799 113.242,55.684 113.613,55.684C113.984,55.684 115.654,55.313 115.377,54.942C115.098,54.571 114.078,53.178 113.706,52.993C113.335,52.807 114.078,51.044 113.057,50.858C112.036,50.673 111.479,52.343 111.015,52.343C110.552,52.343 108.417,52.25 108.696,53.085C108.975,53.92 110.18,53.828 109.903,54.663C109.625,55.498 109.253,56.983 109.253,56.983L106.933,64.406L105.541,64.962L106.933,65.797L106.655,68.303C106.655,68.303 103.778,68.489 102.757,69.231C101.737,69.974 98.489,73.128 98.118,73.221C97.747,73.315 96.076,73.407 94.869,74.521C93.663,75.634 94.221,80.459 94.128,82.686C94.034,84.913 96.507,86.91 99.848,87.003C99.291,90.342 98.582,92.708 98.582,92.708C98.582,92.708 95.705,94.842 92.179,95.677C88.654,96.512 79.189,99.388 78.261,113.121C81.045,112.936 81.88,116.183 80.488,120.637C78.725,125.369 77.148,127.411 70.375,126.947C70.189,127.133 61.095,137.896 64.529,149.123C66.597,157.317 76.021,160.871 78.673,161.719L74.642,179.095L80.637,162.363C85.523,163.852 103.107,167.427 106.933,143.279C107.954,154.135 108.789,161.652 112.315,164.435C112.408,165.827 112.037,168.889 109.253,170.096C106.47,171.301 103.221,171.765 103.315,173.157L103.407,174.549C103.407,174.549 110.553,173.899 112.131,173.157C113.708,172.415 117.142,172.508 118.44,172.322C119.74,172.136 120.204,168.239 119.46,166.755C118.719,165.271 119.46,164.713 119.46,164.713C119.46,164.713 122.616,169.075 122.616,169.817C122.616,170.559 117.142,175.942 116.77,176.499C116.399,177.054 117.234,178.725 117.513,178.817C117.79,178.911 124.286,178.446 126.791,176.033C129.296,175.57 129.667,175.292 129.667,175.292L129.017,170.93C129.018,170.928 130.131,166.939 129.111,164.247ZM100.427,76.279C100.427,76.279 102.336,75.692 102.336,74.077C103.217,74.739 103.878,75.692 103.878,75.692L102.744,79.424L100.354,79.216L100.427,76.279ZM101.831,129.358C102.109,124.348 105.542,122.771 105.542,122.771C105.542,122.771 105.45,129.73 106.842,137.061C103.501,137.523 101.552,134.369 101.831,129.358ZM102.573,93.541C103.594,89.272 103.779,88.253 103.779,88.253L108.141,88.438C107.863,88.623 107.863,97.995 108.326,101.893C105.078,99.015 102.851,96.047 102.573,93.541Z" style="fill:rgb(3,6,6);fill-rule:nonzero;"/>
    </g>
</svg>
