<?xml version="1.0" encoding="UTF-8" standalone="no"?>
<!DOCTYPE svg PUBLIC "-//W3C//DTD SVG 1.1//EN" "http://www.w3.org/Graphics/SVG/1.1/DTD/svg11.dtd">
<svg width="100%" height="100%" viewBox="0 0 209 209" version="1.1" xmlns="http://www.w3.org/2000/svg" xmlns:xlink="http://www.w3.org/1999/xlink" xml:space="preserve" xmlns:serif="http://www.serif.com/" style="fill-rule:evenodd;clip-rule:evenodd;stroke-linejoin:round;stroke-miterlimit:1.41421;">
    <g transform="matrix(1,0,0,1,-731.634,-1384.03)">
        <g transform="matrix(4.16667,0,0,4.16667,0,0)">
            <path d="M225.592,379.166C225.592,380.816 224.242,382.166 222.592,382.166L178.592,382.166C176.941,382.166 175.592,380.816 175.592,379.166L175.592,335.167C175.592,333.518 176.941,332.167 178.592,332.167L222.592,332.167C224.242,332.167 225.592,333.518 225.592,335.167L225.592,379.166Z" style="fill:white;fill-rule:nonzero;"/>
        </g>
        <g transform="matrix(4.16667,0,0,4.16667,0,0)">
            <path d="M206.861,355.371C205.863,355.371 204.936,355.674 204.16,356.187C203.385,356.684 202.498,355.635 203.367,354.961C204.645,354.076 205.484,352.607 205.484,350.937C205.484,348.234 203.295,346.045 200.592,346.045C197.891,346.045 195.701,348.234 195.701,350.937C195.701,352.607 196.539,354.076 197.818,354.961C198.687,355.635 197.801,356.684 197.025,356.187C196.25,355.674 195.322,355.371 194.324,355.371C191.621,355.371 189.432,357.561 189.432,360.264C189.432,362.965 191.621,365.154 194.324,365.154C196.516,365.154 198.348,363.705 198.973,361.719C199.113,361.281 199.418,361.141 199.732,361.494C199.697,363.121 199.586,365.742 199.273,366.053C198.414,366.912 197.631,366.727 197.061,367.295C196.697,367.658 196.877,368.287 196.877,368.287L204.309,368.287C204.309,368.287 204.488,367.658 204.125,367.295C203.555,366.727 202.772,366.912 201.91,366.053C201.602,365.742 201.486,363.123 201.453,361.494C201.768,361.141 202.07,361.281 202.215,361.719C202.836,363.705 204.67,365.154 206.861,365.154C209.562,365.154 211.752,362.965 211.752,360.264C211.752,357.561 209.562,355.371 206.861,355.371Z" style="fill:rgb(29,29,30);fill-rule:nonzero;"/>
        </g>
        <g transform="matrix(4.16667,0,0,4.16667,0,0)">
            <path d="M182.227,337.511C182.227,338.007 182.383,338.413 182.701,338.729C183.016,339.044 183.43,339.202 183.939,339.202C184.438,339.202 184.842,339.046 185.156,338.733C185.469,338.419 185.627,338.036 185.627,337.583C185.627,337.11 185.465,336.712 185.141,336.39C184.818,336.067 184.412,335.906 183.926,335.906C183.434,335.906 183.027,336.063 182.707,336.379C182.387,336.694 182.227,337.071 182.227,337.511ZM181.807,342.353C181.807,342.72 181.893,343.074 182.064,343.417C182.236,343.761 182.494,344.026 182.836,344.215C183.18,344.403 183.549,344.497 183.941,344.497C184.557,344.497 185.063,344.3 185.459,343.903C185.857,343.509 186.055,343.005 186.055,342.396C186.055,341.775 185.852,341.263 185.441,340.857C185.033,340.452 184.518,340.249 183.898,340.249C183.293,340.249 182.793,340.45 182.398,340.851C182.004,341.251 181.807,341.751 181.807,342.353ZM182.482,339.693C181.945,339.497 181.549,339.22 181.289,338.856C181.031,338.494 180.902,338.06 180.902,337.554C180.902,336.791 181.176,336.149 181.723,335.629C182.271,335.108 183,334.849 183.908,334.849C184.822,334.849 185.559,335.115 186.115,335.646C186.672,336.179 186.949,336.827 186.949,337.59C186.949,338.076 186.822,338.5 186.568,338.86C186.313,339.22 185.926,339.497 185.406,339.693C186.049,339.903 186.539,340.241 186.875,340.708C187.211,341.175 187.379,341.733 187.379,342.382C187.379,343.276 187.063,344.03 186.43,344.64C185.797,345.25 184.963,345.555 183.932,345.555C182.898,345.555 182.064,345.249 181.432,344.636C180.799,344.024 180.482,343.261 180.482,342.345C180.482,341.664 180.656,341.093 181.002,340.634C181.348,340.174 181.842,339.86 182.482,339.693Z" style="fill:rgb(29,29,30);fill-rule:nonzero;"/>
        </g>
        <g transform="matrix(4.16667,0,0,4.16667,0,0)">
            <path d="M215.309,370.594C215.309,371.09 215.467,371.496 215.783,371.813C216.1,372.127 216.514,372.285 217.023,372.285C217.52,372.285 217.926,372.129 218.238,371.816C218.553,371.502 218.709,371.119 218.709,370.666C218.709,370.193 218.549,369.795 218.225,369.473C217.902,369.15 217.496,368.989 217.01,368.989C216.518,368.989 216.111,369.147 215.791,369.462C215.469,369.777 215.309,370.154 215.309,370.594ZM214.891,375.436C214.891,375.803 214.977,376.157 215.148,376.5C215.318,376.844 215.576,377.109 215.92,377.298C216.262,377.486 216.631,377.58 217.025,377.58C217.641,377.58 218.146,377.383 218.543,376.986C218.939,376.592 219.139,376.088 219.139,375.479C219.139,374.858 218.934,374.346 218.525,373.94C218.117,373.535 217.602,373.332 216.982,373.332C216.377,373.332 215.877,373.533 215.482,373.934C215.088,374.334 214.891,374.834 214.891,375.436ZM215.564,372.776C215.029,372.58 214.633,372.303 214.373,371.939C214.115,371.577 213.986,371.143 213.986,370.637C213.986,369.874 214.26,369.232 214.807,368.712C215.353,368.192 216.082,367.933 216.992,367.933C217.906,367.933 218.641,368.198 219.199,368.729C219.756,369.262 220.033,369.91 220.033,370.673C220.033,371.159 219.906,371.583 219.65,371.943C219.396,372.303 219.008,372.58 218.488,372.776C219.133,372.986 219.623,373.324 219.959,373.791C220.295,374.258 220.463,374.816 220.463,375.465C220.463,376.359 220.146,377.113 219.514,377.723C218.881,378.333 218.047,378.638 217.014,378.638C215.982,378.638 215.148,378.332 214.516,377.719C213.883,377.107 213.566,376.344 213.566,375.428C213.566,374.747 213.74,374.176 214.086,373.717C214.432,373.257 214.926,372.943 215.564,372.776Z" style="fill:rgb(29,29,30);fill-rule:nonzero;"/>
        </g>
        <g transform="matrix(4.16667,0,0,4.16667,0,0)">
            <path d="M222.592,382.166L178.592,382.166C177.766,382.166 177.016,381.83 176.473,381.285C177.017,381.829 177.767,382.166 178.592,382.166L222.592,382.166C224.242,382.166 225.592,380.816 225.592,379.166L225.592,335.167L225.592,379.166C225.592,380.816 224.242,382.166 222.592,382.166ZM225.591,335.109C225.591,335.107 225.591,335.106 225.591,335.104C225.591,335.106 225.591,335.108 225.591,335.109Z" style="fill:rgb(14,116,59);fill-rule:nonzero;"/>
        </g>
        <g transform="matrix(4.16667,0,0,4.16667,0,0)">
            <path d="M222.592,382.166L178.592,382.166C177.767,382.166 177.017,381.829 176.473,381.285L192.835,364.924C193.304,365.073 193.805,365.154 194.324,365.154C196.516,365.154 198.348,363.705 198.973,361.719C199.059,361.451 199.206,361.294 199.38,361.294C199.49,361.294 199.61,361.357 199.732,361.494C199.697,363.121 199.586,365.742 199.273,366.053C198.414,366.912 197.631,366.727 197.061,367.295C196.697,367.658 196.877,368.287 196.877,368.287L204.309,368.287C204.309,368.287 204.488,367.658 204.125,367.295C203.555,366.727 202.772,366.912 201.91,366.053C201.602,365.742 201.486,363.123 201.453,361.494C201.575,361.357 201.695,361.294 201.805,361.294C201.979,361.294 202.126,361.451 202.215,361.719C202.836,363.705 204.67,365.154 206.861,365.154C209.562,365.154 211.752,362.965 211.752,360.264C211.752,357.561 209.562,355.371 206.861,355.371C205.863,355.371 204.936,355.674 204.16,356.187C204.02,356.277 203.876,356.316 203.739,356.316C203.121,356.317 202.655,355.513 203.367,354.961C204.213,354.375 204.867,353.533 205.212,352.547L224.711,333.049C225.24,333.578 225.575,334.304 225.591,335.104C225.591,335.106 225.591,335.107 225.591,335.109C225.592,335.128 225.592,335.148 225.592,335.167L225.592,379.166C225.592,380.816 224.242,382.166 222.592,382.166ZM216.992,367.933C216.082,367.933 215.353,368.192 214.807,368.712C214.26,369.232 213.986,369.874 213.986,370.637C213.986,371.143 214.115,371.577 214.373,371.939C214.633,372.303 215.029,372.58 215.564,372.776C214.926,372.943 214.432,373.257 214.086,373.717C213.74,374.176 213.566,374.747 213.566,375.428C213.566,376.344 213.883,377.107 214.516,377.719C215.148,378.332 215.982,378.638 217.014,378.638C218.047,378.638 218.881,378.333 219.514,377.723C220.146,377.113 220.463,376.359 220.463,375.465C220.463,374.816 220.295,374.258 219.959,373.791C219.623,373.324 219.133,372.986 218.488,372.776C219.008,372.58 219.396,372.303 219.65,371.943C219.906,371.583 220.033,371.159 220.033,370.673C220.033,369.91 219.756,369.262 219.199,368.729C218.641,368.198 217.906,367.933 216.992,367.933Z" style="fill:rgb(229,229,229);fill-rule:nonzero;"/>
        </g>
        <g transform="matrix(4.16667,0,0,4.16667,0,0)">
            <path d="M204.309,368.287L196.877,368.287C196.877,368.287 196.697,367.658 197.061,367.295C197.631,366.727 198.414,366.912 199.273,366.053C199.586,365.742 199.697,363.121 199.732,361.494C199.61,361.357 199.49,361.294 199.38,361.294C199.206,361.294 199.059,361.451 198.973,361.719C198.348,363.705 196.516,365.154 194.324,365.154C193.805,365.154 193.304,365.073 192.835,364.924L205.212,352.547C204.867,353.533 204.213,354.375 203.367,354.961C202.655,355.513 203.121,356.317 203.739,356.316C203.876,356.316 204.02,356.277 204.16,356.187C204.936,355.674 205.863,355.371 206.861,355.371C209.562,355.371 211.752,357.561 211.752,360.264C211.752,362.965 209.562,365.154 206.861,365.154C204.67,365.154 202.836,363.705 202.215,361.719C202.126,361.451 201.979,361.294 201.805,361.294C201.695,361.294 201.575,361.357 201.453,361.494C201.486,363.123 201.602,365.742 201.91,366.053C202.772,366.912 203.555,366.727 204.125,367.295C204.488,367.658 204.309,368.287 204.309,368.287Z" style="fill:rgb(25,26,26);fill-rule:nonzero;"/>
        </g>
        <g transform="matrix(4.16667,0,0,4.16667,0,0)">
            <path d="M217.025,377.58C216.631,377.58 216.262,377.486 215.92,377.298C215.576,377.109 215.318,376.844 215.148,376.5C214.977,376.157 214.891,375.803 214.891,375.436C214.891,374.834 215.088,374.334 215.482,373.934C215.877,373.533 216.377,373.332 216.982,373.332C217.602,373.332 218.117,373.535 218.525,373.94C218.934,374.346 219.139,374.858 219.139,375.479C219.139,376.088 218.939,376.592 218.543,376.986C218.146,377.383 217.641,377.58 217.025,377.58ZM217.023,372.285C216.514,372.285 216.1,372.127 215.783,371.813C215.467,371.496 215.309,371.09 215.309,370.594C215.309,370.154 215.469,369.777 215.791,369.462C216.111,369.147 216.518,368.989 217.01,368.989C217.496,368.989 217.902,369.15 218.225,369.473C218.549,369.795 218.709,370.193 218.709,370.666C218.709,371.119 218.553,371.502 218.238,371.816C217.926,372.129 217.52,372.285 217.023,372.285Z" style="fill:rgb(229,229,229);fill-rule:nonzero;"/>
        </g>
        <g transform="matrix(4.16667,0,0,4.16667,0,0)">
            <path d="M217.014,378.638C215.982,378.638 215.148,378.332 214.516,377.719C213.883,377.107 213.566,376.344 213.566,375.428C213.566,374.747 213.74,374.176 214.086,373.717C214.432,373.257 214.926,372.943 215.564,372.776C215.029,372.58 214.633,372.303 214.373,371.939C214.115,371.577 213.986,371.143 213.986,370.637C213.986,369.874 214.26,369.232 214.807,368.712C215.353,368.192 216.082,367.933 216.992,367.933C217.906,367.933 218.641,368.198 219.199,368.729C219.756,369.262 220.033,369.91 220.033,370.673C220.033,371.159 219.906,371.583 219.65,371.943C219.396,372.303 219.008,372.58 218.488,372.776C219.133,372.986 219.623,373.324 219.959,373.791C220.295,374.258 220.463,374.816 220.463,375.465C220.463,376.359 220.146,377.113 219.514,377.723C218.881,378.333 218.047,378.638 217.014,378.638ZM216.982,373.332C216.377,373.332 215.877,373.533 215.482,373.934C215.088,374.334 214.891,374.834 214.891,375.436C214.891,375.803 214.977,376.157 215.148,376.5C215.318,376.844 215.576,377.109 215.92,377.298C216.262,377.486 216.631,377.58 217.025,377.58C217.641,377.58 218.146,377.383 218.543,376.986C218.939,376.592 219.139,376.088 219.139,375.479C219.139,374.858 218.934,374.346 218.525,373.94C218.117,373.535 217.602,373.332 216.982,373.332ZM217.01,368.989C216.518,368.989 216.111,369.147 215.791,369.462C215.469,369.777 215.309,370.154 215.309,370.594C215.309,371.09 215.467,371.496 215.783,371.813C216.1,372.127 216.514,372.285 217.023,372.285C217.52,372.285 217.926,372.129 218.238,371.816C218.553,371.502 218.709,371.119 218.709,370.666C218.709,370.193 218.549,369.795 218.225,369.473C217.902,369.15 217.496,368.989 217.01,368.989Z" style="fill:rgb(25,26,26);fill-rule:nonzero;"/>
        </g>
    </g>
</svg>
