<?xml version="1.0" encoding="UTF-8" standalone="no"?>
<!DOCTYPE svg PUBLIC "-//W3C//DTD SVG 1.1//EN" "http://www.w3.org/Graphics/SVG/1.1/DTD/svg11.dtd">
<svg width="100%" height="100%" viewBox="0 0 209 209" version="1.1" xmlns="http://www.w3.org/2000/svg" xmlns:xlink="http://www.w3.org/1999/xlink" xml:space="preserve" xmlns:serif="http://www.serif.com/" style="fill-rule:evenodd;clip-rule:evenodd;stroke-linejoin:round;stroke-miterlimit:1.41421;">
    <g transform="matrix(1,0,0,1,-1411.66,-1835.54)">
        <g transform="matrix(4.16667,0,0,4.16667,0,0)">
            <path d="M388.799,487.531C388.799,489.182 387.449,490.531 385.799,490.531L341.799,490.531C340.148,490.531 338.799,489.182 338.799,487.531L338.799,443.53C338.799,441.881 340.148,440.53 341.799,440.53L385.799,440.53C387.449,440.53 388.799,441.881 388.799,443.53L388.799,487.531Z" style="fill:white;fill-rule:nonzero;"/>
        </g>
        <g transform="matrix(4.16667,0,0,4.16667,0,0)">
            <path d="M370.066,463.736C369.068,463.736 368.141,464.039 367.365,464.553C366.59,465.049 365.703,464 366.572,463.324C367.85,462.441 368.689,460.971 368.689,459.301C368.689,456.599 366.5,454.409 363.797,454.409C361.096,454.409 358.906,456.599 358.906,459.301C358.906,460.971 359.746,462.441 361.023,463.324C361.893,464 361.006,465.049 360.23,464.553C359.455,464.039 358.529,463.736 357.529,463.736C354.828,463.736 352.639,465.926 352.639,468.627C352.639,471.33 354.828,473.519 357.529,473.519C359.721,473.519 361.553,472.068 362.178,470.082C362.318,469.646 362.623,469.506 362.938,469.857C362.902,471.486 362.791,474.107 362.478,474.416C361.619,475.277 360.836,475.092 360.268,475.66C359.904,476.021 360.084,476.652 360.084,476.652L367.514,476.652C367.514,476.652 367.693,476.021 367.33,475.66C366.76,475.092 365.977,475.277 365.115,474.416C364.807,474.107 364.691,471.488 364.658,469.857C364.973,469.506 365.275,469.646 365.42,470.082C366.041,472.068 367.875,473.519 370.066,473.519C372.768,473.519 374.957,471.33 374.957,468.627C374.957,465.926 372.768,463.736 370.066,463.736Z" style="fill:rgb(29,29,30);fill-rule:nonzero;"/>
        </g>
        <g transform="matrix(4.16667,0,0,4.16667,0,0)">
            <path d="M343.842,454.068L343.842,443.592L345.232,443.592L345.232,448.782L350.432,443.592L352.309,443.592L347.912,447.846L352.5,454.068L350.67,454.068L346.947,448.779L345.232,450.439L345.232,454.068L343.842,454.068Z" style="fill:rgb(29,29,30);fill-rule:nonzero;"/>
        </g>
        <g transform="matrix(4.16667,0,0,4.16667,0,0)">
            <path d="M376.811,487.037L376.811,476.56L378.201,476.56L378.201,481.752L383.4,476.56L385.277,476.56L380.881,480.815L385.469,487.037L383.639,487.037L379.916,481.748L378.201,483.408L378.201,487.037L376.811,487.037Z" style="fill:rgb(29,29,30);fill-rule:nonzero;"/>
        </g>
        <g transform="matrix(4.16667,0,0,4.16667,0,0)">
            <path d="M341.76,490.531C340.949,490.521 340.214,490.185 339.68,489.65C340.215,490.185 340.95,490.521 341.76,490.531ZM388.798,443.479C388.798,443.474 388.798,443.47 388.798,443.465C388.798,443.47 388.798,443.474 388.798,443.479Z" style="fill:rgb(14,116,59);fill-rule:nonzero;"/>
        </g>
        <g transform="matrix(4.16667,0,0,4.16667,0,0)">
            <path d="M385.799,490.531L341.799,490.531C341.786,490.531 341.773,490.531 341.76,490.531C340.95,490.521 340.215,490.185 339.68,489.65L356.041,473.289C356.51,473.439 357.01,473.519 357.529,473.519C359.721,473.519 361.553,472.068 362.178,470.082C362.264,469.815 362.412,469.659 362.586,469.659C362.695,469.659 362.816,469.721 362.938,469.857C362.902,471.486 362.791,474.107 362.478,474.416C361.619,475.277 360.836,475.092 360.268,475.66C359.904,476.021 360.084,476.652 360.084,476.652L367.514,476.652C367.514,476.652 367.693,476.021 367.33,475.66C366.76,475.092 365.977,475.277 365.115,474.416C364.807,474.107 364.691,471.488 364.658,469.857C364.78,469.721 364.9,469.659 365.01,469.659C365.183,469.659 365.331,469.815 365.42,470.082C366.041,472.068 367.875,473.519 370.066,473.519C372.768,473.519 374.957,471.33 374.957,468.627C374.957,465.926 372.768,463.736 370.066,463.736C369.068,463.736 368.141,464.039 367.365,464.553C367.225,464.642 367.081,464.682 366.945,464.682C366.326,464.682 365.86,463.878 366.572,463.324C367.417,462.74 368.07,461.9 368.416,460.914L387.918,441.412C388.44,441.934 388.772,442.647 388.797,443.434C388.798,443.444 388.798,443.455 388.798,443.465C388.798,443.47 388.798,443.474 388.798,443.479C388.799,443.496 388.799,443.513 388.799,443.53L388.799,487.531C388.799,489.182 387.449,490.531 385.799,490.531ZM379.916,481.748L383.639,487.037L385.469,487.037L380.881,480.815L385.277,476.56L383.4,476.56L378.201,481.752L378.201,476.56L376.811,476.56L376.811,487.037L378.201,487.037L378.201,483.408L379.916,481.748Z" style="fill:rgb(229,229,229);fill-rule:nonzero;"/>
        </g>
        <g transform="matrix(4.16667,0,0,4.16667,0,0)">
            <path d="M367.514,476.652L360.084,476.652C360.084,476.652 359.904,476.021 360.268,475.66C360.836,475.092 361.619,475.277 362.478,474.416C362.791,474.107 362.902,471.486 362.938,469.857C362.816,469.721 362.695,469.659 362.586,469.659C362.412,469.659 362.264,469.815 362.178,470.082C361.553,472.068 359.721,473.519 357.529,473.519C357.01,473.519 356.51,473.439 356.041,473.289L368.416,460.914C368.07,461.9 367.417,462.74 366.572,463.324C365.86,463.878 366.326,464.682 366.945,464.682C367.081,464.682 367.225,464.642 367.365,464.553C368.141,464.039 369.068,463.736 370.066,463.736C372.768,463.736 374.957,465.926 374.957,468.627C374.957,471.33 372.768,473.519 370.066,473.519C367.875,473.519 366.041,472.068 365.42,470.082C365.331,469.815 365.183,469.659 365.01,469.659C364.9,469.659 364.78,469.721 364.658,469.857C364.691,471.488 364.807,474.107 365.115,474.416C365.977,475.277 366.76,475.092 367.33,475.66C367.693,476.021 367.514,476.652 367.514,476.652Z" style="fill:rgb(25,26,26);fill-rule:nonzero;"/>
        </g>
        <g transform="matrix(4.16667,0,0,4.16667,0,0)">
            <path d="M385.469,487.037L383.639,487.037L379.916,481.748L378.201,483.408L378.201,487.037L376.811,487.037L376.811,476.56L378.201,476.56L378.201,481.752L383.4,476.56L385.277,476.56L380.881,480.815L385.469,487.037Z" style="fill:rgb(25,26,26);fill-rule:nonzero;"/>
        </g>
    </g>
</svg>
