<?xml version="1.0" encoding="UTF-8" standalone="no"?>
<!DOCTYPE svg PUBLIC "-//W3C//DTD SVG 1.1//EN" "http://www.w3.org/Graphics/SVG/1.1/DTD/svg11.dtd">
<svg width="100%" height="100%" viewBox="0 0 209 209" version="1.1" xmlns="http://www.w3.org/2000/svg" xmlns:xlink="http://www.w3.org/1999/xlink" xml:space="preserve" xmlns:serif="http://www.serif.com/" style="fill-rule:evenodd;clip-rule:evenodd;stroke-linejoin:round;stroke-miterlimit:1.41421;">
    <g transform="matrix(1,0,0,1,-1860.63,-1610.68)">
        <g transform="matrix(4.16667,0,0,4.16667,0,0)">
            <path d="M496.551,433.561C496.551,435.211 495.201,436.56 493.551,436.56L449.551,436.56C447.901,436.56 446.551,435.211 446.551,433.561L446.551,389.562C446.551,387.912 447.901,386.563 449.551,386.563L493.551,386.563C495.201,386.563 496.551,387.912 496.551,389.562L496.551,433.561Z" style="fill:rgb(165,153,202);fill-rule:nonzero;"/>
        </g>
        <g transform="matrix(4.16667,0,0,4.16667,0,0)">
            <path d="M446.551,391.953L446.551,390.539L450.528,386.563L451.942,386.563L446.551,391.953Z" style="fill:rgb(133,123,163);fill-rule:nonzero;"/>
        </g>
        <g transform="matrix(4.16667,0,0,4.16667,0,0)">
            <path d="M446.551,398.428L446.551,397.014L457.002,386.563L458.416,386.563L446.551,398.428Z" style="fill:rgb(133,123,163);fill-rule:nonzero;"/>
        </g>
        <g transform="matrix(4.16667,0,0,4.16667,0,0)">
            <path d="M446.551,404.9L446.551,403.486L463.476,386.563L464.89,386.563L446.551,404.9Z" style="fill:rgb(133,123,163);fill-rule:nonzero;"/>
        </g>
        <g transform="matrix(4.16667,0,0,4.16667,0,0)">
            <path d="M446.551,411.375L446.551,409.961L469.95,386.563L471.364,386.563L446.551,411.375Z" style="fill:rgb(133,123,163);fill-rule:nonzero;"/>
        </g>
        <g transform="matrix(4.16667,0,0,4.16667,0,0)">
            <path d="M446.551,417.848L446.551,416.434L476.423,386.563L477.837,386.563L446.551,417.848Z" style="fill:rgb(133,123,163);fill-rule:nonzero;"/>
        </g>
        <g transform="matrix(4.16667,0,0,4.16667,0,0)">
            <path d="M446.551,424.322L446.551,422.908L482.897,386.563L484.311,386.563L446.551,424.322Z" style="fill:rgb(133,123,163);fill-rule:nonzero;"/>
        </g>
        <g transform="matrix(4.16667,0,0,4.16667,0,0)">
            <path d="M446.551,430.795L446.551,429.381L489.37,386.563L490.784,386.563L446.551,430.795Z" style="fill:rgb(133,123,163);fill-rule:nonzero;"/>
        </g>
        <g transform="matrix(4.16667,0,0,4.16667,0,0)">
            <path d="M447.437,435.676C447.318,435.557 447.21,435.43 447.112,435.293L495.282,387.123C495.419,387.221 495.547,387.329 495.666,387.448L447.437,435.676Z" style="fill:rgb(133,123,163);fill-rule:nonzero;"/>
        </g>
        <g transform="matrix(4.16667,0,0,4.16667,0,0)">
            <path d="M493.551,436.56L449.551,436.56C448.747,436.56 448.014,436.241 447.473,435.72C448.013,436.24 448.746,436.56 449.551,436.56L493.551,436.56C495.201,436.56 496.551,435.211 496.551,433.561L496.551,432.586L496.551,431.172L496.551,426.111L496.551,424.697L496.551,419.639L496.551,418.225L496.551,413.164L496.551,411.75L496.551,406.691L496.551,405.277L496.551,400.217L496.551,398.803L496.551,393.744L496.551,392.33L496.551,389.562L496.551,433.561C496.551,435.211 495.201,436.56 493.551,436.56ZM496.551,389.562C496.551,388.737 496.213,387.987 495.67,387.444L495.67,387.443C496.214,387.986 496.551,388.736 496.551,389.562Z" style="fill:rgb(14,116,59);fill-rule:nonzero;"/>
        </g>
        <g transform="matrix(4.16667,0,0,4.16667,0,0)">
            <path d="M493.551,436.56L492.575,436.56L496.551,432.586L496.551,433.561C496.551,435.211 495.201,436.56 493.551,436.56ZM491.161,436.56L486.101,436.56L496.551,426.111L496.551,431.172L491.161,436.56ZM484.686,436.56L479.628,436.56L496.551,419.639L496.551,424.697L484.686,436.56ZM478.214,436.56L473.153,436.56L496.551,413.164L496.551,418.225L478.214,436.56ZM471.739,436.56L466.681,436.56L496.551,406.691L496.551,411.75L471.739,436.56ZM465.267,436.56L460.206,436.56L496.551,400.217L496.551,405.277L465.267,436.56ZM458.792,436.56L453.733,436.56L496.551,393.744L496.551,398.803L458.792,436.56ZM452.319,436.56L449.551,436.56C448.746,436.56 448.013,436.24 447.473,435.72C447.46,435.706 447.446,435.693 447.433,435.68L447.437,435.676C447.555,435.794 447.683,435.902 447.819,436L495.989,387.83C495.892,387.693 495.784,387.566 495.666,387.448L495.67,387.443C496.213,387.987 496.551,388.737 496.551,389.562L496.551,392.33L452.319,436.56Z" style="fill:rgb(149,137,181);fill-rule:nonzero;"/>
        </g>
        <g transform="matrix(4.16667,0,0,4.16667,0,0)">
            <path d="M447.819,436C447.683,435.902 447.555,435.794 447.437,435.676L495.666,387.448C495.784,387.566 495.892,387.693 495.989,387.83L447.819,436Z" style="fill:rgb(120,111,146);fill-rule:nonzero;"/>
        </g>
        <g transform="matrix(4.16667,0,0,4.16667,0,0)">
            <path d="M453.733,436.56L452.319,436.56L496.551,392.33L496.551,393.744L453.733,436.56Z" style="fill:rgb(120,111,146);fill-rule:nonzero;"/>
        </g>
        <g transform="matrix(4.16667,0,0,4.16667,0,0)">
            <path d="M460.206,436.56L458.792,436.56L496.551,398.803L496.551,400.217L460.206,436.56Z" style="fill:rgb(120,111,146);fill-rule:nonzero;"/>
        </g>
        <g transform="matrix(4.16667,0,0,4.16667,0,0)">
            <path d="M466.681,436.56L465.267,436.56L496.551,405.277L496.551,406.691L466.681,436.56Z" style="fill:rgb(120,111,146);fill-rule:nonzero;"/>
        </g>
        <g transform="matrix(4.16667,0,0,4.16667,0,0)">
            <path d="M473.153,436.56L471.739,436.56L496.551,411.75L496.551,413.164L473.153,436.56Z" style="fill:rgb(120,111,146);fill-rule:nonzero;"/>
        </g>
        <g transform="matrix(4.16667,0,0,4.16667,0,0)">
            <path d="M479.628,436.56L478.214,436.56L496.551,418.225L496.551,419.639L479.628,436.56Z" style="fill:rgb(120,111,146);fill-rule:nonzero;"/>
        </g>
        <g transform="matrix(4.16667,0,0,4.16667,0,0)">
            <path d="M486.101,436.56L484.686,436.56L496.551,424.697L496.551,426.111L486.101,436.56Z" style="fill:rgb(120,111,146);fill-rule:nonzero;"/>
        </g>
        <g transform="matrix(4.16667,0,0,4.16667,0,0)">
            <path d="M492.575,436.56L491.161,436.56L496.551,431.172L496.551,432.586L492.575,436.56Z" style="fill:rgb(120,111,146);fill-rule:nonzero;"/>
        </g>
    </g>
</svg>
