<?xml version="1.0" encoding="UTF-8" standalone="no"?>
<!DOCTYPE svg PUBLIC "-//W3C//DTD SVG 1.1//EN" "http://www.w3.org/Graphics/SVG/1.1/DTD/svg11.dtd">
<svg width="100%" height="100%" viewBox="0 0 209 209" version="1.1" xmlns="http://www.w3.org/2000/svg" xmlns:xlink="http://www.w3.org/1999/xlink" xml:space="preserve" xmlns:serif="http://www.serif.com/" style="fill-rule:evenodd;clip-rule:evenodd;stroke-linejoin:round;stroke-miterlimit:1.41421;">
    <g transform="matrix(1,0,0,1,-33.9542,-1835.88)">
        <g transform="matrix(4.16667,0,0,4.16667,0,0)">
            <path d="M58.149,487.611C58.149,489.262 56.799,490.611 55.149,490.611L11.149,490.611C9.501,490.611 8.149,489.262 8.149,487.611L8.149,443.611C8.149,441.961 9.501,440.611 11.149,440.611L55.149,440.611C56.799,440.611 58.149,441.961 58.149,443.611L58.149,487.611Z" style="fill:white;fill-rule:nonzero;"/>
        </g>
        <g transform="matrix(4.16667,0,0,4.16667,0,0)">
            <path d="M38.549,455.945C36.237,455.945 34.102,457.705 33.149,459.652C32.196,457.705 30.042,455.949 27.729,455.949C24.493,455.949 22.045,458.567 22.045,461.803C22.045,467.676 31.702,477.276 33.149,477.276C34.596,477.276 44.254,467.676 44.254,461.803C44.254,458.567 41.784,455.945 38.549,455.945Z" style="fill:rgb(237,31,36);fill-rule:nonzero;"/>
        </g>
        <g transform="matrix(4.16667,0,0,4.16667,0,0)">
            <path d="M14.819,453.795L13.534,453.795L13.534,445.594C13.223,445.89 12.817,446.186 12.315,446.48C11.813,446.775 11.362,446.998 10.961,447.146L10.961,445.901C11.68,445.563 12.309,445.153 12.848,444.672C13.385,444.189 13.766,443.724 13.991,443.271L14.819,443.271L14.819,453.795Z" style="fill:rgb(237,31,36);fill-rule:nonzero;"/>
        </g>
        <g transform="matrix(4.16667,0,0,4.16667,0,0)">
            <path d="M19.44,448.628C19.44,450.353 19.641,451.498 20.043,452.066C20.444,452.635 20.938,452.919 21.526,452.919C22.116,452.919 22.61,452.634 23.01,452.063C23.413,451.492 23.612,450.348 23.612,448.628C23.612,446.902 23.413,445.756 23.012,445.188C22.612,444.621 22.112,444.337 21.512,444.337C20.924,444.337 20.454,444.588 20.1,445.088C19.661,445.727 19.44,446.907 19.44,448.628ZM18.118,448.627C18.118,447.387 18.243,446.389 18.499,445.632C18.752,444.875 19.131,444.291 19.633,443.883C20.133,443.475 20.766,443.271 21.526,443.271C22.088,443.271 22.581,443.383 23.006,443.61C23.43,443.836 23.78,444.163 24.053,444.59C24.329,445.017 24.543,445.537 24.702,446.148C24.858,446.762 24.936,447.588 24.936,448.627C24.936,449.857 24.811,450.851 24.559,451.607C24.305,452.365 23.928,452.949 23.428,453.359C22.926,453.771 22.292,453.977 21.526,453.977C20.518,453.977 19.727,453.615 19.151,452.895C18.461,452.018 18.118,450.596 18.118,448.627Z" style="fill:rgb(237,31,36);fill-rule:nonzero;"/>
        </g>
        <g transform="matrix(4.16667,0,0,4.16667,0,0)">
            <path d="M44.985,486.961L43.7,486.961L43.7,478.76C43.389,479.056 42.983,479.352 42.481,479.646C41.979,479.941 41.528,480.164 41.127,480.312L41.127,479.067C41.846,478.729 42.475,478.319 43.014,477.838C43.551,477.355 43.932,476.89 44.157,476.437L44.985,476.437L44.985,486.961Z" style="fill:rgb(237,31,36);fill-rule:nonzero;"/>
        </g>
        <g transform="matrix(4.16667,0,0,4.16667,0,0)">
            <path d="M49.606,481.794C49.606,483.519 49.807,484.664 50.21,485.232C50.61,485.801 51.104,486.085 51.692,486.085C52.282,486.085 52.776,485.8 53.176,485.229C53.579,484.658 53.778,483.514 53.778,481.794C53.778,480.068 53.579,478.922 53.178,478.355C52.778,477.787 52.278,477.503 51.678,477.503C51.09,477.503 50.62,477.754 50.266,478.254C49.827,478.893 49.606,480.073 49.606,481.794ZM48.284,481.793C48.284,480.553 48.409,479.555 48.665,478.798C48.919,478.041 49.297,477.457 49.799,477.049C50.299,476.641 50.932,476.437 51.692,476.437C52.254,476.437 52.747,476.549 53.172,476.776C53.596,477.002 53.946,477.329 54.219,477.756C54.495,478.183 54.71,478.703 54.868,479.314C55.024,479.928 55.102,480.754 55.102,481.793C55.102,483.023 54.977,484.017 54.725,484.773C54.471,485.531 54.094,486.115 53.594,486.525C53.092,486.937 52.458,487.143 51.692,487.143C50.684,487.143 49.893,486.781 49.317,486.06C48.628,485.184 48.284,483.762 48.284,481.793Z" style="fill:rgb(237,31,36);fill-rule:nonzero;"/>
        </g>
        <g transform="matrix(4.16667,0,0,4.16667,0,0)">
            <path d="M58.149,443.573C58.138,442.763 57.803,442.028 57.268,441.492C57.803,442.027 58.138,442.762 58.149,443.573Z" style="fill:rgb(14,116,59);fill-rule:nonzero;"/>
        </g>
        <g transform="matrix(4.16667,0,0,4.16667,0,0)">
            <path d="M55.149,490.611L11.149,490.611C10.325,490.611 9.575,490.273 9.032,489.73L27.039,471.723C29.638,474.867 32.424,477.276 33.149,477.276C34.596,477.276 44.254,467.676 44.254,461.803C44.254,459.791 43.299,458.016 41.799,456.962L57.268,441.492C57.803,442.028 58.138,442.763 58.149,443.573L58.149,487.611C58.149,489.262 56.799,490.611 55.149,490.611ZM51.692,476.437C50.932,476.437 50.299,476.641 49.799,477.049C49.297,477.457 48.919,478.041 48.665,478.798C48.409,479.555 48.284,480.553 48.284,481.793C48.284,483.762 48.628,485.184 49.317,486.06C49.893,486.781 50.684,487.143 51.692,487.143C52.458,487.143 53.092,486.937 53.594,486.525C54.094,486.115 54.471,485.531 54.725,484.773C54.977,484.017 55.102,483.023 55.102,481.793C55.102,480.754 55.024,479.928 54.868,479.314C54.71,478.703 54.495,478.183 54.219,477.756C53.946,477.329 53.596,477.002 53.172,476.776C52.747,476.549 52.254,476.437 51.692,476.437ZM43.7,478.76L43.7,486.961L44.985,486.961L44.985,476.437L44.157,476.437C43.932,476.89 43.551,477.355 43.014,477.838C42.475,478.319 41.846,478.729 41.127,479.067L41.127,480.312C41.528,480.164 41.979,479.941 42.481,479.646C42.983,479.352 43.389,479.056 43.7,478.76Z" style="fill:rgb(229,229,229);fill-rule:nonzero;"/>
        </g>
        <g transform="matrix(4.16667,0,0,4.16667,0,0)">
            <path d="M33.149,477.276C32.424,477.276 29.638,474.867 27.039,471.723L41.799,456.962C43.299,458.016 44.254,459.791 44.254,461.803C44.254,467.676 34.596,477.276 33.149,477.276Z" style="fill:rgb(228,30,37);fill-rule:nonzero;"/>
        </g>
        <g transform="matrix(4.16667,0,0,4.16667,0,0)">
            <path d="M51.692,486.085C51.104,486.085 50.61,485.801 50.21,485.232C49.807,484.664 49.606,483.519 49.606,481.794C49.606,480.073 49.827,478.893 50.266,478.254C50.62,477.754 51.09,477.503 51.678,477.503C52.278,477.503 52.778,477.787 53.178,478.355C53.579,478.922 53.778,480.068 53.778,481.794C53.778,483.514 53.579,484.658 53.176,485.229C52.776,485.8 52.282,486.085 51.692,486.085Z" style="fill:rgb(229,229,229);fill-rule:nonzero;"/>
        </g>
        <g transform="matrix(4.16667,0,0,4.16667,0,0)">
            <path d="M44.985,486.961L43.7,486.961L43.7,478.76C43.389,479.056 42.983,479.352 42.481,479.646C41.979,479.941 41.528,480.164 41.127,480.312L41.127,479.067C41.846,478.729 42.475,478.319 43.014,477.838C43.551,477.355 43.932,476.89 44.157,476.437L44.985,476.437L44.985,486.961Z" style="fill:rgb(228,30,37);fill-rule:nonzero;"/>
        </g>
        <g transform="matrix(4.16667,0,0,4.16667,0,0)">
            <path d="M51.692,487.143C50.684,487.143 49.893,486.781 49.317,486.06C48.628,485.184 48.284,483.762 48.284,481.793C48.284,480.553 48.409,479.555 48.665,478.798C48.919,478.041 49.297,477.457 49.799,477.049C50.299,476.641 50.932,476.437 51.692,476.437C52.254,476.437 52.747,476.549 53.172,476.776C53.596,477.002 53.946,477.329 54.219,477.756C54.495,478.183 54.71,478.703 54.868,479.314C55.024,479.928 55.102,480.754 55.102,481.793C55.102,483.023 54.977,484.017 54.725,484.773C54.471,485.531 54.094,486.115 53.594,486.525C53.092,486.937 52.458,487.143 51.692,487.143ZM51.678,477.503C51.09,477.503 50.62,477.754 50.266,478.254C49.827,478.893 49.606,480.073 49.606,481.794C49.606,483.519 49.807,484.664 50.21,485.232C50.61,485.801 51.104,486.085 51.692,486.085C52.282,486.085 52.776,485.8 53.176,485.229C53.579,484.658 53.778,483.514 53.778,481.794C53.778,480.068 53.579,478.922 53.178,478.355C52.778,477.787 52.278,477.503 51.678,477.503Z" style="fill:rgb(228,30,37);fill-rule:nonzero;"/>
        </g>
    </g>
</svg>
