<?xml version="1.0" encoding="UTF-8" standalone="no"?>
<!DOCTYPE svg PUBLIC "-//W3C//DTD SVG 1.1//EN" "http://www.w3.org/Graphics/SVG/1.1/DTD/svg11.dtd">
<svg width="100%" height="100%" viewBox="0 0 209 209" version="1.1" xmlns="http://www.w3.org/2000/svg" xmlns:xlink="http://www.w3.org/1999/xlink" xml:space="preserve" xmlns:serif="http://www.serif.com/" style="fill-rule:evenodd;clip-rule:evenodd;stroke-linejoin:round;stroke-miterlimit:1.41421;">
    <g transform="matrix(1,0,0,1,-33.9542,-28.475)">
        <g transform="matrix(4.16667,0,0,4.16667,0,0)">
            <path d="M58.149,53.833C58.149,55.484 56.8,56.833 55.149,56.833L11.149,56.833C9.499,56.833 8.149,55.484 8.149,53.833L8.149,9.833C8.149,8.184 9.499,6.834 11.149,6.834L55.149,6.834C56.8,6.834 58.149,8.184 58.149,9.833L58.149,53.833Z" style="fill:white;fill-rule:nonzero;"/>
        </g>
        <g transform="matrix(4.16667,0,0,4.16667,0,0)">
            <path d="M38.549,22.167C36.235,22.167 34.103,23.928 33.15,25.874C32.196,23.928 30.041,22.171 27.728,22.171C24.492,22.171 22.045,24.79 22.045,28.025C22.045,33.898 31.702,43.499 33.15,43.499C34.597,43.499 44.253,33.898 44.253,28.025C44.253,24.79 41.784,22.167 38.549,22.167Z" style="fill:rgb(237,31,36);fill-rule:nonzero;"/>
        </g>
        <g transform="matrix(4.16667,0,0,4.16667,0,0)">
            <path d="M19.608,18.859L19.608,20.098L12.694,20.098C12.685,19.788 12.734,19.49 12.843,19.205C13.019,18.733 13.301,18.269 13.688,17.812C14.073,17.356 14.634,16.828 15.368,16.228C16.505,15.29 17.272,14.549 17.67,14.003C18.067,13.458 18.267,12.941 18.267,12.454C18.267,11.944 18.085,11.515 17.723,11.165C17.36,10.814 16.888,10.64 16.306,10.64C15.689,10.64 15.196,10.825 14.827,11.195C14.458,11.566 14.271,12.08 14.266,12.735L12.942,12.602C13.032,11.616 13.372,10.865 13.961,10.348C14.55,9.831 15.341,9.573 16.333,9.573C17.335,9.573 18.129,9.852 18.714,10.409C19.298,10.967 19.59,11.658 19.59,12.482C19.59,12.902 19.505,13.315 19.333,13.72C19.163,14.125 18.88,14.551 18.483,14.999C18.087,15.448 17.429,16.062 16.507,16.844C15.737,17.492 15.243,17.931 15.026,18.162C14.81,18.394 14.63,18.626 14.488,18.859L19.608,18.859Z" style="fill:rgb(237,31,36);fill-rule:nonzero;"/>
        </g>
        <g transform="matrix(4.16667,0,0,4.16667,0,0)">
            <path d="M52.678,51.928L52.678,53.166L45.763,53.166C45.753,52.857 45.804,52.559 45.912,52.273C46.088,51.802 46.37,51.337 46.757,50.881C47.143,50.425 47.703,49.896 48.437,49.296C49.573,48.359 50.341,47.618 50.739,47.072C51.136,46.527 51.335,46.01 51.335,45.523C51.335,45.013 51.153,44.583 50.792,44.233C50.429,43.883 49.956,43.708 49.374,43.708C48.758,43.708 48.265,43.893 47.896,44.264C47.526,44.635 47.339,45.148 47.335,45.804L46.011,45.67C46.101,44.685 46.44,43.934 47.03,43.416C47.618,42.9 48.409,42.642 49.402,42.642C50.404,42.642 51.198,42.921 51.782,43.478C52.366,44.036 52.659,44.727 52.659,45.551C52.659,45.971 52.573,46.384 52.402,46.789C52.232,47.194 51.948,47.62 51.552,48.068C51.155,48.517 50.497,49.131 49.575,49.913C48.806,50.561 48.312,51 48.095,51.231C47.878,51.462 47.698,51.695 47.558,51.928L52.678,51.928Z" style="fill:rgb(237,31,36);fill-rule:nonzero;"/>
        </g>
        <g transform="matrix(4.16667,0,0,4.16667,0,0)">
            <path d="M11.11,56.833C10.3,56.823 9.566,56.488 9.03,55.953C9.566,56.487 10.3,56.823 11.11,56.833ZM58.149,9.776C58.149,9.774 58.149,9.772 58.149,9.771C58.149,9.772 58.149,9.774 58.149,9.776ZM58.146,9.699C58.146,9.697 58.146,9.695 58.146,9.692C58.146,9.695 58.146,9.697 58.146,9.699ZM57.812,8.455C57.811,8.455 57.811,8.455 57.811,8.454C57.811,8.455 57.811,8.455 57.812,8.455ZM57.803,8.439C57.802,8.437 57.802,8.436 57.801,8.435C57.802,8.436 57.802,8.437 57.803,8.439ZM57.795,8.423C57.793,8.42 57.792,8.418 57.791,8.415C57.792,8.418 57.793,8.42 57.795,8.423ZM57.786,8.407C57.784,8.403 57.782,8.4 57.781,8.397C57.782,8.4 57.784,8.403 57.786,8.407ZM57.777,8.391C57.775,8.387 57.773,8.383 57.771,8.379C57.773,8.383 57.775,8.387 57.777,8.391ZM57.768,8.375C57.727,8.301 57.683,8.229 57.635,8.159C57.683,8.229 57.727,8.301 57.768,8.375ZM57.635,8.159C57.633,8.155 57.63,8.151 57.627,8.147C57.63,8.151 57.633,8.155 57.635,8.159ZM57.625,8.144C57.622,8.14 57.619,8.136 57.616,8.131C57.619,8.136 57.622,8.14 57.625,8.144ZM57.615,8.13C57.613,8.127 57.611,8.124 57.609,8.122C57.611,8.124 57.613,8.127 57.615,8.13ZM57.605,8.115C57.604,8.115 57.604,8.114 57.604,8.114C57.604,8.114 57.604,8.115 57.605,8.115Z" style="fill:rgb(14,116,59);fill-rule:nonzero;"/>
        </g>
        <g transform="matrix(4.16667,0,0,4.16667,0,0)">
            <path d="M55.149,56.833L11.149,56.833C11.136,56.833 11.123,56.833 11.11,56.833C10.3,56.823 9.566,56.487 9.031,55.952L27.038,37.945C29.638,41.089 32.424,43.499 33.15,43.499C34.597,43.499 44.253,33.898 44.253,28.025C44.253,26.014 43.299,24.239 41.799,23.184L57.269,7.715C57.391,7.838 57.504,7.972 57.604,8.114C57.604,8.114 57.604,8.115 57.605,8.115C57.606,8.117 57.608,8.119 57.609,8.122L57.616,8.131C57.619,8.136 57.622,8.14 57.625,8.144C57.626,8.145 57.626,8.146 57.627,8.147C57.63,8.151 57.633,8.155 57.635,8.159C57.683,8.229 57.727,8.301 57.768,8.375C57.769,8.376 57.77,8.377 57.771,8.379C57.773,8.383 57.775,8.387 57.777,8.391C57.778,8.393 57.78,8.395 57.781,8.397C57.782,8.4 57.784,8.403 57.786,8.407C57.788,8.41 57.789,8.413 57.791,8.415L57.803,8.439C57.806,8.444 57.809,8.449 57.811,8.454C57.811,8.455 57.811,8.455 57.812,8.455C58.007,8.829 58.125,9.248 58.146,9.692C58.146,9.695 58.146,9.697 58.146,9.699C58.147,9.723 58.148,9.747 58.149,9.771L58.149,53.833C58.149,55.484 56.8,56.833 55.149,56.833ZM49.374,43.708C49.956,43.708 50.429,43.883 50.792,44.233C51.153,44.583 51.335,45.013 51.335,45.523C51.335,46.01 51.136,46.527 50.739,47.072C50.341,47.618 49.573,48.359 48.437,49.296C47.703,49.896 47.143,50.425 46.757,50.881C46.37,51.337 46.088,51.802 45.912,52.273C45.804,52.559 45.753,52.857 45.763,53.166L52.678,53.166L52.678,51.928L47.558,51.928C47.698,51.695 47.878,51.462 48.095,51.231C48.312,51 48.806,50.561 49.575,49.913C50.497,49.131 51.155,48.517 51.552,48.068C51.948,47.62 52.232,47.194 52.402,46.789C52.573,46.384 52.659,45.971 52.659,45.551C52.659,44.727 52.366,44.036 51.782,43.478C51.198,42.921 50.404,42.642 49.402,42.642C48.409,42.642 47.618,42.9 47.03,43.416C46.44,43.934 46.101,44.685 46.011,45.67L47.335,45.804C47.339,45.148 47.526,44.635 47.896,44.264C48.265,43.893 48.758,43.708 49.374,43.708Z" style="fill:rgb(229,229,229);fill-rule:nonzero;"/>
        </g>
        <g transform="matrix(4.16667,0,0,4.16667,0,0)">
            <path d="M33.15,43.499C32.424,43.499 29.638,41.089 27.038,37.945L41.799,23.184C43.299,24.239 44.253,26.014 44.253,28.025C44.253,33.898 34.597,43.499 33.15,43.499Z" style="fill:rgb(228,30,37);fill-rule:nonzero;"/>
        </g>
        <g transform="matrix(4.16667,0,0,4.16667,0,0)">
            <path d="M52.678,53.166L45.763,53.166C45.753,52.857 45.804,52.559 45.912,52.273C46.088,51.802 46.37,51.337 46.757,50.881C47.143,50.425 47.703,49.896 48.437,49.296C49.573,48.359 50.341,47.618 50.739,47.072C51.136,46.527 51.335,46.01 51.335,45.523C51.335,45.013 51.153,44.583 50.792,44.233C50.429,43.883 49.956,43.708 49.374,43.708C48.758,43.708 48.265,43.893 47.896,44.264C47.526,44.635 47.339,45.148 47.335,45.804L46.011,45.67C46.101,44.685 46.44,43.934 47.03,43.416C47.618,42.9 48.409,42.642 49.402,42.642C50.404,42.642 51.198,42.921 51.782,43.478C52.366,44.036 52.659,44.727 52.659,45.551C52.659,45.971 52.573,46.384 52.402,46.789C52.232,47.194 51.948,47.62 51.552,48.068C51.155,48.517 50.497,49.131 49.575,49.913C48.806,50.561 48.312,51 48.095,51.231C47.878,51.462 47.698,51.695 47.558,51.928L52.678,51.928L52.678,53.166Z" style="fill:rgb(228,30,37);fill-rule:nonzero;"/>
        </g>
    </g>
</svg>
