<?xml version="1.0" encoding="UTF-8" standalone="no"?>
<!DOCTYPE svg PUBLIC "-//W3C//DTD SVG 1.1//EN" "http://www.w3.org/Graphics/SVG/1.1/DTD/svg11.dtd">
<svg width="100%" height="100%" viewBox="0 0 849 1167" version="1.1" xmlns="http://www.w3.org/2000/svg" xmlns:xlink="http://www.w3.org/1999/xlink" xml:space="preserve" xmlns:serif="http://www.serif.com/" style="fill-rule:evenodd;clip-rule:evenodd;stroke-linejoin:round;stroke-miterlimit:1.41421;">
    <g transform="matrix(1,0,0,1,-5852.11,-7250.24)">
        <g transform="matrix(1,0,0,1,6700.24,7316.51)">
            <path d="M0,1033.64C0,1070.08 -29.824,1099.91 -66.264,1099.91L-781.867,1099.91C-818.318,1099.91 -848.131,1070.08 -848.131,1033.64L-848.131,-0.007C-848.131,-36.448 -818.318,-66.264 -781.867,-66.264L-66.264,-66.264C-29.824,-66.264 0,-36.448 0,-0.007L0,1033.64Z" style="fill:white;fill-rule:nonzero;"/>
        </g>
        <g transform="matrix(1,0,0,1,5916.55,7382.84)">
            <path d="M0,-15.829C0,1.089 0.634,12.604 1.906,18.706C3.168,24.816 5.562,27.867 9.081,27.867C12.498,27.867 14.839,24.816 16.104,18.706C17.372,12.604 18.006,1.142 18.006,-15.676C18.006,-33.785 17.429,-46.047 16.26,-52.462C15.098,-58.877 12.65,-62.087 8.925,-62.087C5.199,-62.087 2.782,-58.604 1.667,-51.648C0.558,-44.688 0,-32.749 0,-15.829M-5.664,52.471L-10.476,45.641C-6.491,42.792 -3.569,40.776 -1.707,39.584C-12.624,33.894 -18.082,15.267 -18.082,-16.297C-18.082,-36.577 -15.741,-51.854 -11.06,-62.127C-6.378,-72.396 0.232,-77.533 8.772,-77.533C17.309,-77.533 23.996,-72.536 28.83,-62.552C33.671,-52.564 36.092,-37.64 36.092,-17.771C36.092,16.794 29.312,36.712 15.755,41.991C22.847,46.025 28.355,48.044 32.287,48.044C33.27,48.044 34.18,47.991 35.003,47.889L31.51,61.704C27.734,61.704 24.723,61.239 22.469,60.307C20.221,59.377 17.335,57.746 13.815,55.419C8.54,51.9 4.426,50.14 1.475,50.14C-1.06,50.14 -3.439,50.916 -5.664,52.471" style="fill:rgb(191,33,33);fill-rule:nonzero;"/>
        </g>
        <g transform="matrix(1,0,0,1,6635.79,8283.83)">
            <path d="M0,15.827C0,-1.09 -0.634,-12.605 -1.902,-18.707C-3.168,-24.817 -5.559,-27.868 -9.078,-27.868C-12.494,-27.868 -14.835,-24.817 -16.101,-18.707C-17.368,-12.605 -18.003,-1.143 -18.003,15.675C-18.003,33.783 -17.425,46.046 -16.256,52.46C-15.098,58.875 -12.65,62.086 -8.925,62.086C-5.199,62.086 -2.779,58.602 -1.663,51.646C-0.555,44.687 0,32.748 0,15.827M5.668,-52.472L10.479,-45.642C6.494,-42.793 3.572,-40.777 1.71,-39.585C12.624,-33.895 18.086,-15.268 18.086,16.296C18.086,36.576 15.745,51.852 11.063,62.126C6.378,72.395 -0.232,77.532 -8.769,77.532C-17.306,77.532 -23.992,72.535 -28.83,62.551C-33.668,52.563 -36.089,37.639 -36.089,17.769C-36.089,-16.795 -29.309,-36.713 -15.755,-41.992C-22.844,-46.027 -28.355,-48.046 -32.287,-48.046C-33.267,-48.046 -34.176,-47.992 -35.003,-47.89L-31.51,-61.705C-27.734,-61.705 -24.72,-61.24 -22.465,-60.308C-20.218,-59.378 -17.332,-57.747 -13.813,-55.42C-8.536,-51.901 -4.423,-50.141 -1.475,-50.141C1.063,-50.141 3.443,-50.918 5.668,-52.472" style="fill:rgb(191,33,33);fill-rule:nonzero;"/>
        </g>
        <g transform="matrix(1,0,0,1,5958.53,7501.98)">
            <path d="M0,-44.446C-10.462,-64.278 -28.927,-46.674 -31.928,-43.616C-34.933,-46.664 -53.47,-64.172 -63.859,-44.28C-76.168,-20.706 -32.084,19.822 -31.812,19.593C-31.536,19.832 12.401,-20.938 0,-44.446" style="fill:rgb(191,33,33);fill-rule:nonzero;"/>
        </g>
        <g transform="matrix(1,0,0,1,6593.81,8164.67)">
            <path d="M0,44.449C10.462,64.281 28.934,46.677 31.938,43.615C34.943,46.674 53.477,64.172 63.859,44.286C76.168,20.709 32.084,-19.816 31.812,-19.594C31.546,-19.832 -12.401,20.937 0,44.449" style="fill:rgb(191,33,33);fill-rule:nonzero;"/>
        </g>
        <g transform="matrix(1,0,0,1,6550.81,7513.76)">
            <path d="M0,639.132C0,603.303 28.82,573.908 64.427,572.925L64.427,-178.521L-549.273,-178.521L-549.273,-0.013C-549.273,35.815 -578.097,65.222 -613.7,66.204L-613.7,817.653L0,817.653L0,639.132Z" style="fill:rgb(191,33,33);fill-rule:nonzero;"/>
        </g>
        <g transform="matrix(1,0,0,1,6533.81,7352.24)">
            <path d="M0,962.172L-579.703,962.172L-579.703,242.568C-542.964,233.901 -515.276,200.496 -515.276,161.51L-515.276,0L64.424,0L64.424,719.61C27.685,728.273 0,761.672 0,800.655L0,962.172Z" style="fill:white;fill-rule:nonzero;"/>
        </g>
        <g transform="matrix(1,0,0,1,6194.57,7736.91)">
            <path d="M0,-369.341C-1.058,-370.123 -1.16,-370.705 0,-369.341M240.452,85.305C234.538,54.953 228.625,24.599 222.715,-5.753C225.335,-30.438 227.961,-55.124 230.584,-79.81C230.883,-82.603 230.022,-84.693 228.545,-86.092C225.673,-92.409 222.801,-98.727 219.929,-105.046C219.086,-106.901 218.242,-108.754 217.399,-110.611C216.814,-111.897 216.28,-113.098 215.752,-114.232C214.72,-116.504 213.69,-118.776 212.657,-121.049C211.788,-122.959 209.898,-124.289 207.81,-124.941C207.026,-125.51 206.17,-126.062 205.207,-126.599C187.987,-136.212 170.771,-145.824 153.553,-155.437C153.021,-155.905 152.421,-156.294 151.77,-156.595C138.73,-168.571 125.692,-180.548 112.653,-192.525C113.769,-196.375 114.482,-200.48 115.329,-203.255C117.601,-210.721 119.871,-218.187 122.146,-225.653C123.497,-230.088 122.873,-235.569 123.003,-240.121C123.428,-255.019 123.853,-269.917 124.281,-284.814C124.593,-285.99 124.623,-287.31 124.271,-288.755C124.145,-289.777 123.862,-290.686 123.454,-291.482C121.575,-297.881 119.981,-306.292 114.682,-310.118L93.475,-325.435C92.556,-326.101 91.698,-326.72 90.868,-327.316C94.146,-329.137 97.373,-331.056 100.563,-332.732C107.099,-336.161 117.753,-339.259 120.164,-346.977C122.847,-355.57 125.532,-364.163 128.219,-372.757C130.719,-380.761 119.145,-388.312 113.54,-381.303C111.697,-379.003 109.857,-376.703 108.018,-374.403C106.859,-372.955 105.704,-371.507 104.545,-370.06C104.282,-369.731 104.116,-369.5 104.014,-369.332C100.288,-366.987 96.566,-364.643 92.841,-362.298C92.765,-363.557 92.651,-364.769 92.456,-365.916C93.14,-367.984 93.216,-370.169 92.881,-372.94C92.303,-377.69 92.691,-385.294 90.198,-389.55C88.79,-391.953 85.898,-393.841 83.069,-395.476C85.672,-402.368 88.278,-409.258 90.882,-416.151C92.462,-420.329 94.039,-424.508 95.62,-428.685C97.107,-432.626 95.049,-437.889 94.202,-441.836C93.455,-445.321 89.401,-448.693 85.732,-448.284C84.059,-448.1 82.385,-447.913 80.715,-447.728C76.773,-447.29 73.357,-445.363 72.245,-441.279C72.182,-441.053 72.122,-440.827 72.059,-440.602C71.793,-443.635 71.315,-446.683 71.093,-449.54C70.542,-456.719 61.729,-460.648 56.427,-464.373C55.025,-465.356 53.495,-465.764 51.994,-465.721C50.49,-465.764 48.961,-465.356 47.561,-464.373C43.199,-461.31 34.722,-457.379 33.206,-451.874C32.404,-448.953 31.854,-445.194 31.667,-441.485C30.494,-445.42 27.142,-447.297 23.273,-447.728C21.601,-447.913 19.927,-448.1 18.253,-448.284C14.588,-448.693 10.53,-445.321 9.785,-441.836C9.003,-438.188 6.848,-432.704 8.226,-429.054C9.672,-425.234 11.116,-421.41 12.561,-417.588C15.347,-410.217 18.134,-402.847 20.92,-395.476C18.087,-393.841 15.197,-391.952 13.789,-389.55C11.297,-385.294 11.686,-377.69 11.106,-372.94C10.77,-370.169 10.848,-367.983 11.529,-365.916C11.336,-364.769 11.225,-363.557 11.145,-362.298C7.557,-364.557 3.97,-366.817 0.382,-369.075C0.252,-369.156 0.147,-369.237 0.038,-369.318C-0.991,-370.603 -2.019,-371.886 -3.047,-373.172C-5.215,-375.882 -7.383,-378.593 -9.551,-381.303C-15.159,-388.312 -26.733,-380.761 -24.231,-372.757C-21.62,-364.403 -19.011,-356.048 -16.4,-347.695C-13.891,-339.669 -4.942,-337.124 1.961,-333.499C5.586,-331.596 9.271,-329.341 13.034,-327.253C12.227,-326.676 11.4,-326.075 10.514,-325.435C3.444,-320.329 -3.624,-315.224 -10.693,-310.118C-15.992,-306.292 -17.59,-297.881 -19.466,-291.482C-19.877,-290.684 -20.159,-289.777 -20.285,-288.755C-20.634,-287.31 -20.607,-285.989 -20.292,-284.814C-19.881,-270.374 -19.469,-255.934 -19.056,-241.493C-18.919,-236.719 -19.698,-230.708 -18.276,-226.046C-15.966,-218.449 -13.653,-210.852 -11.341,-203.255C-10.504,-200.504 -9.792,-196.378 -8.68,-192.514C-21.713,-180.54 -34.749,-168.569 -47.784,-156.595C-48.436,-156.294 -49.034,-155.906 -49.567,-155.438C-66.506,-145.981 -83.444,-136.523 -100.385,-127.066C-101.615,-126.378 -102.684,-125.695 -103.642,-124.995C-105.807,-124.366 -107.775,-123.014 -108.669,-121.049L-112.853,-111.847C-112.853,-111.845 -112.853,-111.842 -112.854,-111.841C-113.071,-111.361 -113.291,-110.879 -113.51,-110.398C-117.192,-102.295 -120.876,-94.194 -124.56,-86.092C-126.034,-84.693 -126.895,-82.602 -126.599,-79.81C-123.973,-55.124 -121.35,-30.438 -118.727,-5.753C-124.638,24.601 -130.552,54.953 -136.463,85.305C-137.542,90.847 -134.033,96.423 -127.995,96.423L231.981,96.423C238.021,96.423 241.531,90.847 240.452,85.305" style="fill:rgb(28,33,38);fill-rule:nonzero;"/>
        </g>
        <g transform="matrix(1,0,0,1,6416.37,7705.47)">
            <path d="M0,-48.37L-7.922,26.154L-32.622,-28.294L-28.441,-71.791L-11.89,-74.524L0,-48.37Z" style="fill:rgb(96,56,19);fill-rule:nonzero;"/>
        </g>
        <g transform="matrix(1,0,0,1,6296.75,7824.55)">
            <path d="M0,-277.867L92.158,-193.22L129.797,0L-50.19,0L-50.19,-45.322L-50.19,-249.427L0,-277.867Z" style="fill:rgb(165,30,30);fill-rule:nonzero;"/>
        </g>
        <g transform="matrix(1,0,0,1,6341.63,7824.55)">
            <path d="M0,-236.642L-35.68,0L46.296,0L59.68,-180.834L74.737,-167.451L58.006,-204.256L0,-236.642Z" style="fill:rgb(255,204,51);fill-rule:nonzero;"/>
        </g>
        <g transform="matrix(1,0,0,1,6341.63,7824.55)">
            <path d="M0,-236.642L-21.737,0L-35.68,0L0,-236.642Z" style="fill:rgb(28,33,38);fill-rule:nonzero;"/>
        </g>
        <g transform="matrix(1,0,0,1,6387.93,7643.71)">
            <path d="M0,180.834L13.384,0L-12.266,180.834L0,180.834Z" style="fill:rgb(28,33,38);fill-rule:nonzero;"/>
        </g>
        <g transform="matrix(1,0,0,1,6336.88,7723.94)">
            <path d="M0,-84.339L54.825,-12.532L53.049,0L0,-84.339Z" style="fill:rgb(234,160,61);fill-rule:nonzero;"/>
        </g>
        <g transform="matrix(1,0,0,1,6329.52,7663.86)">
            <path d="M0,55.913L68.937,0L1.454,40.075L0,55.913Z" style="fill:rgb(234,160,61);fill-rule:nonzero;"/>
        </g>
        <g transform="matrix(1,0,0,1,6326.05,7741.44)">
            <path d="M0,16.114L63.886,-17.496L-1.607,33.61L0,16.114Z" style="fill:rgb(234,160,61);fill-rule:nonzero;"/>
        </g>
        <g transform="matrix(1,0,0,1,6329.52,7796.8)">
            <path d="M0,-77.026L50.077,0L52.554,-17.454L0,-77.026Z" style="fill:rgb(234,160,61);fill-rule:nonzero;"/>
        </g>
        <g transform="matrix(1,0,0,1,6320.37,7801.95)">
            <path d="M0,17.445L59.231,-5.152L-0.471,22.597L0,17.445Z" style="fill:rgb(234,160,61);fill-rule:nonzero;"/>
        </g>
        <g transform="matrix(1,0,0,1,6324.44,7824.55)">
            <path d="M0,-49.496L51.223,0L52.435,-8.541L0,-49.496Z" style="fill:rgb(234,160,61);fill-rule:nonzero;"/>
        </g>
        <g transform="matrix(1,0,0,1,6401.31,7587.9)">
            <path d="M0,55.808L-59.68,0L-61.03,14.747L0,55.808Z" style="fill:rgb(234,160,61);fill-rule:nonzero;"/>
        </g>
        <g transform="matrix(1,0,0,1,6336.88,7620.29)">
            <path d="M0,19.314L62.754,0L66.938,9.201L0,19.314Z" style="fill:rgb(234,160,61);fill-rule:nonzero;"/>
        </g>
        <g transform="matrix(1,0,0,1,6363.26,7661.56)">
            <path d="M0,-13.942L12.292,-20.913L21.911,-8.464L14.962,6.471L5.343,6.971L-1.604,-2.988L0,-13.942Z" style="fill:rgb(145,98,5);fill-rule:nonzero;"/>
        </g>
        <g transform="matrix(0.698063,-0.716036,-0.716036,-0.698063,6371.55,7652.07)">
            <path d="M1.374,2.18L6.882,2.18L4.658,-3.757L-0.877,-2.704L1.374,2.18Z" style="fill:rgb(234,160,61);fill-rule:nonzero;"/>
        </g>
        <g transform="matrix(0.698337,-0.715769,-0.715769,-0.698337,6364.6,7660.53)">
            <path d="M1.373,2.178L6.88,2.178L4.657,-3.756L-0.878,-2.705L1.373,2.178Z" style="fill:rgb(234,160,61);fill-rule:nonzero;"/>
        </g>
        <g transform="matrix(0.698247,-0.715857,-0.715857,-0.698247,6373.15,7661.78)">
            <path d="M1.372,2.179L6.88,2.179L4.656,-3.756L-0.879,-2.703L1.372,2.179Z" style="fill:rgb(234,160,61);fill-rule:nonzero;"/>
        </g>
        <g transform="matrix(1,0,0,1,6350.21,7724.63)">
            <path d="M0,-13.94L12.292,-20.912L21.911,-8.463L14.965,6.473L5.343,6.972L-1.601,-2.987L0,-13.94Z" style="fill:rgb(145,98,5);fill-rule:nonzero;"/>
        </g>
        <g transform="matrix(0.698063,-0.716036,-0.716036,-0.698063,6358.5,7715.14)">
            <path d="M1.372,2.18L6.88,2.18L4.655,-3.755L-0.879,-2.701L1.372,2.18Z" style="fill:rgb(234,160,61);fill-rule:nonzero;"/>
        </g>
        <g transform="matrix(0.698526,-0.715585,-0.715585,-0.698526,6351.54,7723.6)">
            <path d="M1.371,2.178L6.881,2.178L4.657,-3.755L-0.878,-2.705L1.371,2.178Z" style="fill:rgb(234,160,61);fill-rule:nonzero;"/>
        </g>
        <g transform="matrix(0.698063,-0.716036,-0.716036,-0.698063,6360.09,7724.85)">
            <path d="M1.373,2.179L6.881,2.179L4.655,-3.756L-0.88,-2.701L1.373,2.179Z" style="fill:rgb(234,160,61);fill-rule:nonzero;"/>
        </g>
        <g transform="matrix(1,0,0,1,6341.84,7782.37)">
            <path d="M0,-8.963L12.291,-13.445L21.91,-5.442L14.961,4.161L5.342,4.482L-1.604,-1.92L0,-8.963Z" style="fill:rgb(145,98,5);fill-rule:nonzero;"/>
        </g>
        <g transform="matrix(0.834615,-0.550833,-0.550833,-0.834615,6349.88,7776.51)">
            <path d="M0.731,1.744L5.334,1.744L5.556,-2.82L0.558,-2.008L0.731,1.744Z" style="fill:rgb(234,160,61);fill-rule:nonzero;"/>
        </g>
        <g transform="matrix(0.834879,-0.550434,-0.550434,-0.834879,6342.92,7781.95)">
            <path d="M0.731,1.743L5.336,1.743L5.558,-2.819L0.559,-2.01L0.731,1.743Z" style="fill:rgb(234,160,61);fill-rule:nonzero;"/>
        </g>
        <g transform="matrix(0.835076,-0.550135,-0.550135,-0.835076,6351.47,7782.75)">
            <path d="M0.73,1.743L5.338,1.743L5.561,-2.819L0.559,-2.01L0.73,1.743Z" style="fill:rgb(234,160,61);fill-rule:nonzero;"/>
        </g>
        <g transform="matrix(1,0,0,1,6295.92,7726.94)">
            <path d="M0,-125.054L-28.442,15.476L15.058,-116.69L5.017,5.439L25.095,-109.997L36.806,-120.872L36.806,-132.583L15.058,-126.728L1.255,-140.53L0,-125.054Z" style="fill:rgb(236,32,36);fill-rule:nonzero;"/>
        </g>
        <g transform="matrix(1,0,0,1,6076.75,7705.47)">
            <path d="M0,-48.37L7.922,26.154L32.623,-28.294L28.439,-71.791L11.888,-74.524L0,-48.37Z" style="fill:rgb(178,127,25);fill-rule:nonzero;"/>
        </g>
        <g transform="matrix(1,0,0,1,6196.37,7824.55)">
            <path d="M0,-277.867L-92.159,-193.22L-129.8,0L50.189,0L50.189,-45.322L50.189,-249.427L0,-277.867Z" style="fill:rgb(206,23,23);fill-rule:nonzero;"/>
        </g>
        <g transform="matrix(1,0,0,1,6151.49,7824.55)">
            <path d="M0,-236.642L35.682,0L-46.296,0L-59.68,-180.834L-74.735,-167.451L-58.006,-204.256L0,-236.642Z" style="fill:rgb(255,225,100);fill-rule:nonzero;"/>
        </g>
        <g transform="matrix(1,0,0,1,6151.49,7824.55)">
            <path d="M0,-236.642L21.741,0L35.682,0L0,-236.642Z" style="fill:rgb(28,33,38);fill-rule:nonzero;"/>
        </g>
        <g transform="matrix(1,0,0,1,6105.19,7643.71)">
            <path d="M0,180.834L-13.384,0L12.269,180.834L0,180.834Z" style="fill:rgb(28,33,38);fill-rule:nonzero;"/>
        </g>
        <g transform="matrix(1,0,0,1,6156.24,7723.94)">
            <path d="M0,-84.339L-54.824,-12.532L-53.047,0L0,-84.339Z" style="fill:rgb(255,180,13);fill-rule:nonzero;"/>
        </g>
        <g transform="matrix(1,0,0,1,6163.6,7663.86)">
            <path d="M0,55.913L-68.937,0L-1.454,40.075L0,55.913Z" style="fill:rgb(255,180,13);fill-rule:nonzero;"/>
        </g>
        <g transform="matrix(1,0,0,1,6167.07,7741.44)">
            <path d="M0,16.114L-63.883,-17.496L1.609,33.61L0,16.114Z" style="fill:rgb(255,180,13);fill-rule:nonzero;"/>
        </g>
        <g transform="matrix(1,0,0,1,6163.6,7796.8)">
            <path d="M0,-77.026L-50.077,0L-52.554,-17.454L0,-77.026Z" style="fill:rgb(255,180,13);fill-rule:nonzero;"/>
        </g>
        <g transform="matrix(1,0,0,1,6172.76,7801.95)">
            <path d="M0,17.445L-59.229,-5.152L0.475,22.597L0,17.445Z" style="fill:rgb(255,180,13);fill-rule:nonzero;"/>
        </g>
        <g transform="matrix(1,0,0,1,6168.68,7824.55)">
            <path d="M0,-49.496L-51.222,0L-52.434,-8.541L0,-49.496Z" style="fill:rgb(255,180,13);fill-rule:nonzero;"/>
        </g>
        <g transform="matrix(1,0,0,1,6091.81,7587.9)">
            <path d="M0,55.808L59.68,0L61.034,14.747L0,55.808Z" style="fill:rgb(255,180,13);fill-rule:nonzero;"/>
        </g>
        <g transform="matrix(1,0,0,1,6156.24,7620.29)">
            <path d="M0,19.314L-62.755,0L-66.938,9.201L0,19.314Z" style="fill:rgb(255,180,13);fill-rule:nonzero;"/>
        </g>
        <g transform="matrix(1,0,0,1,6129.86,7661.56)">
            <path d="M0,-13.942L-12.292,-20.913L-21.911,-8.464L-14.963,6.471L-5.343,6.971L1.603,-2.988L0,-13.942Z" style="fill:rgb(211,141,41);fill-rule:nonzero;"/>
        </g>
        <g transform="matrix(-0.698063,-0.716036,-0.716036,0.698063,6116.23,7648.14)">
            <path d="M-5.168,-3.256L0.34,-3.256L-1.886,2.679L-7.421,1.626L-5.168,-3.256Z" style="fill:rgb(255,180,13);fill-rule:nonzero;"/>
        </g>
        <g transform="matrix(-0.69843,-0.715678,-0.715678,0.69843,6123.19,7656.6)">
            <path d="M-5.17,-3.258L0.338,-3.258L-1.884,2.677L-7.421,1.625L-5.17,-3.258Z" style="fill:rgb(255,180,13);fill-rule:nonzero;"/>
        </g>
        <g transform="matrix(-0.698247,-0.715857,-0.715857,0.698247,6114.64,7657.85)">
            <path d="M-5.169,-3.256L0.339,-3.256L-1.885,2.679L-7.42,1.626L-5.169,-3.256Z" style="fill:rgb(255,180,13);fill-rule:nonzero;"/>
        </g>
        <g transform="matrix(1,0,0,1,6142.92,7724.63)">
            <path d="M0,-13.94L-12.29,-20.912L-21.911,-8.463L-14.962,6.473L-5.343,6.972L1.604,-2.987L0,-13.94Z" style="fill:rgb(211,141,41);fill-rule:nonzero;"/>
        </g>
        <g transform="matrix(-0.698063,-0.716036,-0.716036,0.698063,6129.29,7711.21)">
            <path d="M-5.169,-3.255L0.339,-3.255L-1.886,2.68L-7.42,1.626L-5.169,-3.255Z" style="fill:rgb(255,180,13);fill-rule:nonzero;"/>
        </g>
        <g transform="matrix(-0.698154,-0.715948,-0.715948,0.698154,6136.25,7719.67)">
            <path d="M-5.168,-3.256L0.339,-3.256L-1.885,2.679L-7.42,1.626L-5.168,-3.256Z" style="fill:rgb(255,180,13);fill-rule:nonzero;"/>
        </g>
        <g transform="matrix(-0.698249,-0.715855,-0.715855,0.698249,6127.7,7720.92)">
            <path d="M-5.169,-3.255L0.341,-3.255L-1.885,2.68L-7.42,1.627L-5.169,-3.255Z" style="fill:rgb(255,180,13);fill-rule:nonzero;"/>
        </g>
        <g transform="matrix(1,0,0,1,6151.28,7782.37)">
            <path d="M0,-8.963L-12.29,-13.445L-21.91,-5.442L-14.963,4.161L-5.342,4.482L1.603,-1.92L0,-8.963Z" style="fill:rgb(211,141,41);fill-rule:nonzero;"/>
        </g>
        <g transform="matrix(-0.834879,-0.550434,-0.550434,0.834879,6137.41,7773.49)">
            <path d="M-5.811,-2.435L-1.205,-2.435L-0.984,2.127L-5.981,1.318L-5.811,-2.435Z" style="fill:rgb(255,180,13);fill-rule:nonzero;"/>
        </g>
        <g transform="matrix(-0.835142,-0.550035,-0.550035,0.835142,6144.36,7778.93)">
            <path d="M-5.813,-2.435L-1.204,-2.435L-0.982,2.126L-5.982,1.319L-5.813,-2.435Z" style="fill:rgb(255,180,13);fill-rule:nonzero;"/>
        </g>
        <g transform="matrix(-0.834879,-0.550434,-0.550434,0.834879,6135.81,7779.73)">
            <path d="M-5.81,-2.436L-1.205,-2.436L-0.983,2.126L-5.982,1.317L-5.81,-2.436Z" style="fill:rgb(255,180,13);fill-rule:nonzero;"/>
        </g>
        <g transform="matrix(1,0,0,1,6197.21,7726.94)">
            <path d="M0,-125.054L28.439,15.476L-15.058,-116.69L-5.021,5.439L-25.096,-109.997L-36.806,-120.872L-36.806,-132.583L-15.058,-126.728L-1.256,-140.53L0,-125.054Z" style="fill:rgb(240,86,60);fill-rule:nonzero;"/>
        </g>
        <g transform="matrix(1,0,0,1,6182.99,7536.64)">
            <path d="M0,-86.995L1.674,-28.44L13.385,10.038L40.153,35.133L63.574,38.479L63.574,-125.474L35.133,-123.801L5.02,-102.052L0,-86.995Z" style="fill:white;fill-rule:nonzero;"/>
        </g>
        <g transform="matrix(1,0,0,1,6310.14,7536.64)">
            <path d="M0,-86.995L-1.674,-28.44L-13.384,10.038L-40.152,35.133L-63.574,38.479L-63.574,-125.474L-35.136,-123.801L-5.021,-102.052L0,-86.995Z" style="fill:rgb(221,221,221);fill-rule:nonzero;"/>
        </g>
        <g transform="matrix(1,0,0,1,6246.56,7546.41)">
            <path d="M0,-57.718L10.037,-15.057L0,0L0,-57.718Z" style="fill:rgb(239,239,220);fill-rule:nonzero;"/>
        </g>
        <g transform="matrix(1,0,0,1,6263.43,7561.62)">
            <path d="M0,-3.265L-13.879,3.809L-16.871,3.538L-16.871,-3.809L-10.885,-7.074L0,-3.265Z" style="fill:rgb(135,26,26);fill-rule:nonzero;"/>
        </g>
        <g transform="matrix(1,0,0,1,6246.56,7557.81)">
            <path d="M0,-3.809L6.531,-6.53L16.871,0.545L4.354,-1.631L0,2.721L0,-3.809Z" style="fill:rgb(165,30,30);fill-rule:nonzero;"/>
        </g>
        <g transform="matrix(1,0,0,1,6262.59,7474.91)">
            <path d="M0,11.402L7.285,2.85L15.546,0L30.604,0.814L16.516,3.257L13.604,11.402L0,11.402Z" style="fill:rgb(35,35,35);fill-rule:nonzero;"/>
        </g>
        <g transform="matrix(1,0,0,1,6246.56,7546.41)">
            <path d="M0,-57.718L10.037,-15.057L0,0L0.419,-5.589L6.69,-16.045L0,-57.718Z" style="fill:rgb(35,35,35);fill-rule:nonzero;"/>
        </g>
        <g transform="matrix(1,0,0,1,6262.04,7453.41)">
            <path d="M0,-2.09L9.618,-5.854L5.435,-1.672L15.473,-5.436L-0.837,3.764L0,-2.09Z" style="fill:rgb(35,35,35);fill-rule:nonzero;"/>
        </g>
        <g transform="matrix(1,0,0,1,6229.69,7561.62)">
            <path d="M0,-3.265L13.875,3.809L16.87,3.538L16.87,-3.809L10.884,-7.074L0,-3.265Z" style="fill:rgb(135,26,26);fill-rule:nonzero;"/>
        </g>
        <g transform="matrix(1,0,0,1,6246.56,7557.81)">
            <path d="M0,-3.809L-6.531,-6.53L-16.87,0.545L-4.353,-1.631L0,2.721L0,-3.809Z" style="fill:rgb(165,30,30);fill-rule:nonzero;"/>
        </g>
        <g transform="matrix(1,0,0,1,6230.53,7474.91)">
            <path d="M0,11.402L-7.285,2.85L-15.543,0L-30.602,0.814L-16.516,3.257L-13.601,11.402L0,11.402Z" style="fill:rgb(35,35,35);fill-rule:nonzero;"/>
        </g>
        <g transform="matrix(1,0,0,1,6231.09,7453.41)">
            <path d="M0,-2.09L-9.619,-5.854L-5.438,-1.672L-15.477,-5.436L0.837,3.764L0,-2.09Z" style="fill:rgb(35,35,35);fill-rule:nonzero;"/>
        </g>
        <g transform="matrix(1,0,0,1,6246.56,7531.34)">
            <path d="M0,-35.69L6.412,-2.712L0,0L0,-35.69Z" style="fill:rgb(255,248,184);fill-rule:nonzero;"/>
        </g>
        <g transform="matrix(1,0,0,1,6228.16,7505.41)">
            <path d="M0,-0.001C0,3.387 -6.614,6.135 -14.777,6.135C-22.94,6.135 -29.554,3.387 -29.554,-0.001C-29.554,-3.389 -22.94,-6.136 -14.777,-6.136C-6.614,-6.136 0,-3.389 0,-0.001" style="fill:rgb(249,226,210);fill-rule:nonzero;"/>
        </g>
        <g transform="matrix(1,0,0,1,6264.96,7505.41)">
            <path d="M0,-0.001C0,3.387 6.617,6.135 14.778,6.135C22.94,6.135 29.558,3.387 29.558,-0.001C29.558,-3.389 22.94,-6.136 14.778,-6.136C6.617,-6.136 0,-3.389 0,-0.001" style="fill:rgb(247,181,169);fill-rule:nonzero;"/>
        </g>
        <g transform="matrix(1,0,0,1,6246.56,7484.78)">
            <path d="M0,-61.061L25.932,-69.427L58.554,-50.187L63.574,-35.13L61.9,23.424L50.19,61.903L29.488,81.31L61.9,102.054L97.033,88.67L141.366,51.865L150.569,-14.218L139.692,-92.012L112.091,-138.02L35.969,-163.115L0,-163.115L0,-61.061Z" style="fill:rgb(28,33,38);fill-rule:nonzero;"/>
        </g>
        <g transform="matrix(1,0,0,1,6246.56,7484.78)">
            <path d="M0,-61.061L-25.932,-69.427L-58.555,-50.187L-63.574,-35.13L-61.9,23.424L-50.189,61.903L-29.487,81.31L-61.9,102.054L-97.034,88.67L-141.369,51.865L-150.569,-14.218L-139.695,-92.012L-112.09,-138.02L-35.969,-163.115L0,-163.115L0,-61.061Z" style="fill:rgb(65,74,81);fill-rule:nonzero;"/>
        </g>
        <g transform="matrix(1,0,0,1,6246.56,7374.36)">
            <path d="M0,27.603L35.133,14.22L57.717,-0.001L67.755,-12.548L59.391,14.22L25.932,31.786L0,40.151L0,27.603Z" style="fill:rgb(234,160,61);fill-rule:nonzero;"/>
        </g>
        <g transform="matrix(1,0,0,1,6246.56,7374.36)">
            <path d="M0,27.603L-35.134,14.22L-57.719,-0.001L-67.758,-12.548L-59.392,14.22L-25.932,31.786L0,40.151L0,27.603Z" style="fill:rgb(255,225,100);fill-rule:nonzero;"/>
        </g>
        <g transform="matrix(1,0,0,1,6251.37,7372.48)">
            <path d="M0,15.266L2.929,20.285L8.367,19.449L10.954,12.965L17.359,4.809L22.589,9.202L27.396,5.228L27.188,-1.464L25.305,-5.019L0,15.266Z" style="fill:rgb(145,98,5);fill-rule:nonzero;"/>
        </g>
        <g transform="matrix(1,0,0,1,6246.56,7335.06)">
            <path d="M0,56.032L18.681,49.34L32.622,33.168L30.62,16.729L9.479,3.333L0,0L0,56.032Z" style="fill:rgb(234,160,61);fill-rule:nonzero;"/>
        </g>
        <g transform="matrix(1,0,0,1,6251.58,7357.63)">
            <path d="M0,-7.807L6.411,-11.711L11.432,-4.741L7.806,3.624L2.786,3.904L-0.837,-1.673L0,-7.807Z" style="fill:rgb(145,98,5);fill-rule:nonzero;"/>
        </g>
        <g transform="matrix(0.67299,-0.739652,-0.739652,-0.67299,6255.93,7352.28)">
            <path d="M0.781,1.163L3.767,1.163L2.336,-2.037L-0.623,-1.471L0.781,1.163Z" style="fill:rgb(234,160,61);fill-rule:nonzero;"/>
        </g>
        <g transform="matrix(0.672439,-0.740152,-0.740152,-0.672439,6252.3,7357.02)">
            <path d="M0.782,1.163L3.765,1.163L2.332,-2.036L-0.624,-1.469L0.782,1.163Z" style="fill:rgb(234,160,61);fill-rule:nonzero;"/>
        </g>
        <g transform="matrix(0.67299,-0.739652,-0.739652,-0.67299,6256.76,7357.71)">
            <path d="M0.781,1.163L3.767,1.163L2.335,-2.037L-0.623,-1.471L0.781,1.163Z" style="fill:rgb(234,160,61);fill-rule:nonzero;"/>
        </g>
        <g transform="matrix(1,0,0,1,6263.84,7370.87)">
            <path d="M0,-7.81L6.411,-11.713L11.432,-4.742L7.806,3.623L2.786,3.903L-0.837,-1.675L0,-7.81Z" style="fill:rgb(145,98,5);fill-rule:nonzero;"/>
        </g>
        <g transform="matrix(0.67299,-0.739652,-0.739652,-0.67299,6268.18,7365.51)">
            <path d="M0.781,1.163L3.767,1.163L2.336,-2.037L-0.623,-1.471L0.781,1.163Z" style="fill:rgb(234,160,61);fill-rule:nonzero;"/>
        </g>
        <g transform="matrix(0.67299,-0.739652,-0.739652,-0.67299,6264.55,7370.25)">
            <path d="M0.781,1.163L3.767,1.163L2.336,-2.037L-0.621,-1.473L0.781,1.163Z" style="fill:rgb(234,160,61);fill-rule:nonzero;"/>
        </g>
        <g transform="matrix(0.672439,-0.740152,-0.740152,-0.672439,6269.01,7370.95)">
            <path d="M0.782,1.164L3.765,1.164L2.333,-2.038L-0.624,-1.468L0.782,1.164Z" style="fill:rgb(234,160,61);fill-rule:nonzero;"/>
        </g>
        <g transform="matrix(1,0,0,1,6249.81,7379.26)">
            <path d="M0,-7.807L6.411,-11.711L11.432,-4.741L7.806,3.624L2.786,3.904L-0.837,-1.673L0,-7.807Z" style="fill:rgb(145,98,5);fill-rule:nonzero;"/>
        </g>
        <g transform="matrix(0.67299,-0.739652,-0.739652,-0.67299,6254.15,7373.91)">
            <path d="M0.781,1.163L3.767,1.163L2.336,-2.037L-0.621,-1.473L0.781,1.163Z" style="fill:rgb(234,160,61);fill-rule:nonzero;"/>
        </g>
        <g transform="matrix(0.672439,-0.740152,-0.740152,-0.672439,6250.52,7378.65)">
            <path d="M0.783,1.164L3.766,1.164L2.334,-2.037L-0.624,-1.469L0.783,1.164Z" style="fill:rgb(234,160,61);fill-rule:nonzero;"/>
        </g>
        <g transform="matrix(0.67299,-0.739652,-0.739652,-0.67299,6254.98,7379.35)">
            <path d="M0.781,1.164L3.766,1.164L2.335,-2.036L-0.621,-1.472L0.781,1.164Z" style="fill:rgb(234,160,61);fill-rule:nonzero;"/>
        </g>
        <g transform="matrix(1,0,0,1,6246.56,7281.81)">
            <path d="M0,53.245L0,-1.697L10.316,5.552L11.432,20.052L4.824,54.942L0,53.245Z" style="fill:rgb(145,98,5);fill-rule:nonzero;"/>
        </g>
        <g transform="matrix(1,0,0,1,6263.05,7299.81)">
            <path d="M0,43.028L12.229,-1.846L17.246,-2.404L18.919,5.404L3.792,45.432L0,43.028Z" style="fill:rgb(145,98,5);fill-rule:nonzero;"/>
        </g>
        <g transform="matrix(1,0,0,1,6241.75,7372.48)">
            <path d="M0,15.266L-2.929,20.285L-8.364,19.449L-10.952,12.965L-17.357,4.809L-22.585,9.202L-27.396,5.228L-27.188,-1.464L-25.305,-5.019L0,15.266Z" style="fill:rgb(211,141,41);fill-rule:nonzero;"/>
        </g>
        <g transform="matrix(1,0,0,1,6246.56,7335.06)">
            <path d="M0,56.032L-18.684,49.34L-32.625,33.168L-30.62,16.729L-9.479,3.333L0,0L0,56.032Z" style="fill:rgb(255,225,100);fill-rule:nonzero;"/>
        </g>
        <g transform="matrix(1,0,0,1,6241.54,7357.63)">
            <path d="M0,-7.807L-6.414,-11.711L-11.432,-4.741L-7.806,3.624L-2.789,3.904L0.836,-1.673L0,-7.807Z" style="fill:rgb(211,141,41);fill-rule:nonzero;"/>
        </g>
        <g transform="matrix(-0.672255,-0.740319,-0.740319,0.672255,6234.45,7350.16)">
            <path d="M-2.63,-1.768L0.352,-1.768L-1.079,1.433L-4.038,0.865L-2.63,-1.768Z" style="fill:rgb(255,211,141);fill-rule:nonzero;"/>
        </g>
        <g transform="matrix(-0.672255,-0.740319,-0.740319,0.672255,6238.08,7354.9)">
            <path d="M-2.63,-1.768L0.352,-1.768L-1.079,1.434L-4.038,0.864L-2.63,-1.768Z" style="fill:rgb(255,211,141);fill-rule:nonzero;"/>
        </g>
        <g transform="matrix(-0.672439,-0.740152,-0.740152,0.672439,6233.62,7355.59)">
            <path d="M-2.63,-1.768L0.353,-1.768L-1.079,1.434L-4.037,0.865L-2.63,-1.768Z" style="fill:rgb(255,211,141);fill-rule:nonzero;"/>
        </g>
        <g transform="matrix(1,0,0,1,6229.29,7370.87)">
            <path d="M0,-7.81L-6.413,-11.713L-11.432,-4.742L-7.806,3.623L-2.789,3.903L0.837,-1.675L0,-7.81Z" style="fill:rgb(211,141,41);fill-rule:nonzero;"/>
        </g>
        <g transform="matrix(-0.672255,-0.740319,-0.740319,0.672255,6222.2,7363.39)">
            <path d="M-2.63,-1.768L0.352,-1.768L-1.079,1.433L-4.038,0.865L-2.63,-1.768Z" style="fill:rgb(255,211,141);fill-rule:nonzero;"/>
        </g>
        <g transform="matrix(-0.672255,-0.740319,-0.740319,0.672255,6225.83,7368.13)">
            <path d="M-2.63,-1.768L0.352,-1.768L-1.079,1.433L-4.038,0.864L-2.63,-1.768Z" style="fill:rgb(255,211,141);fill-rule:nonzero;"/>
        </g>
        <g transform="matrix(-0.672439,-0.740152,-0.740152,0.672439,6221.37,7368.83)">
            <path d="M-2.631,-1.767L0.352,-1.767L-1.08,1.435L-4.037,0.865L-2.631,-1.767Z" style="fill:rgb(255,211,141);fill-rule:nonzero;"/>
        </g>
        <g transform="matrix(1,0,0,1,6243.32,7379.26)">
            <path d="M0,-7.807L-6.413,-11.711L-11.431,-4.741L-7.807,3.624L-2.788,3.904L0.837,-1.673L0,-7.807Z" style="fill:rgb(211,141,41);fill-rule:nonzero;"/>
        </g>
        <g transform="matrix(-0.672255,-0.740319,-0.740319,0.672255,6236.23,7371.79)">
            <path d="M-2.63,-1.768L0.352,-1.768L-1.079,1.433L-4.038,0.865L-2.63,-1.768Z" style="fill:rgb(255,211,141);fill-rule:nonzero;"/>
        </g>
        <g transform="matrix(-0.672255,-0.740319,-0.740319,0.672255,6239.86,7376.53)">
            <path d="M-2.63,-1.768L0.352,-1.768L-1.079,1.433L-4.038,0.864L-2.63,-1.768Z" style="fill:rgb(255,211,141);fill-rule:nonzero;"/>
        </g>
        <g transform="matrix(-0.672439,-0.740152,-0.740152,0.672439,6235.4,7377.23)">
            <path d="M-2.631,-1.767L0.352,-1.767L-1.079,1.434L-4.037,0.865L-2.631,-1.767Z" style="fill:rgb(255,211,141);fill-rule:nonzero;"/>
        </g>
        <g transform="matrix(1,0,0,1,6246.56,7281.81)">
            <path d="M0,53.245L0,-1.697L-10.317,5.552L-11.435,20.052L-4.827,54.942L0,53.245Z" style="fill:rgb(211,141,41);fill-rule:nonzero;"/>
        </g>
        <g transform="matrix(1,0,0,1,6230.07,7299.81)">
            <path d="M0,43.028L-12.229,-1.846L-17.249,-2.404L-18.92,5.404L-3.791,45.432L0,43.028Z" style="fill:rgb(211,141,41);fill-rule:nonzero;"/>
        </g>
        <g transform="matrix(0,1,1,0,6366.75,7650)">
            <path d="M-74.882,-120.189L129.221,-120.189L-73.789,-74.883L-83.915,-90.701L-74.882,-120.189Z" style="fill:rgb(183,183,183);fill-rule:nonzero;"/>
        </g>
        <g transform="matrix(0,1,1,0,6288.45,7693.71)">
            <path d="M-10.682,-41.887L85.514,-41.887L-54.31,-10.682L-54.179,-21.812L-10.682,-41.887Z" style="fill:rgb(6,41,91);fill-rule:nonzero;"/>
        </g>
        <g transform="matrix(1,0,0,1,6246.56,7571.09)">
            <path d="M0,123.646L0,68.438L27.605,29.958L38.479,15.738L37.308,0L44.715,4.739L31.204,68.308L0,123.646Z" style="fill:rgb(255,180,13);fill-rule:nonzero;"/>
        </g>
        <g transform="matrix(1,0,0,1,6283.87,7648.73)">
            <path d="M0,-77.638L-7.195,-58.554L-37.308,-26.767L-37.308,0L-8.032,-40.152L1.172,-61.901L4.516,-74.448L0,-77.638Z" style="fill:rgb(216,221,206);fill-rule:nonzero;"/>
        </g>
        <g transform="matrix(0,1,1,0,6321.44,7695.31)">
            <path d="M-120.19,-74.881L83.914,-74.881L-119.097,-120.19L-129.223,-104.368L-120.19,-74.881Z" style="fill:rgb(221,221,221);fill-rule:nonzero;"/>
        </g>
        <g transform="matrix(0,1,1,0,6257.24,7724.92)">
            <path d="M-41.887,-10.681L54.309,-10.681L-85.515,-41.887L-85.385,-30.759L-41.887,-10.681Z" style="fill:rgb(25,78,165);fill-rule:nonzero;"/>
        </g>
        <g transform="matrix(1,0,0,1,6246.56,7571.09)">
            <path d="M0,123.646L0,68.438L-27.604,29.958L-38.479,15.738L-37.311,0L-44.715,4.739L-31.206,68.308L0,123.646Z" style="fill:rgb(255,225,100);fill-rule:nonzero;"/>
        </g>
        <g transform="matrix(1,0,0,1,6209.25,7648.73)">
            <path d="M0,-77.638L7.195,-58.554L37.311,-26.767L37.311,0L8.032,-40.152L-1.168,-61.901L-4.516,-74.448L0,-77.638Z" style="fill:white;fill-rule:nonzero;"/>
        </g>
        <g transform="matrix(1,0,0,1,6209.25,7621.96)">
            <path d="M0,-50.871L7.195,-31.787L37.311,0L37.311,-6.692L11.937,-30.115L0,-50.871Z" style="fill:rgb(28,33,38);fill-rule:nonzero;"/>
        </g>
        <g transform="matrix(1,0,0,1,6283.87,7621.96)">
            <path d="M0,-50.871L-7.195,-31.787L-37.308,0L-37.308,-6.692L-11.937,-30.115L0,-50.871Z" style="fill:rgb(28,33,38);fill-rule:nonzero;"/>
        </g>
        <g transform="matrix(1,0,0,1,6246.56,7575.83)">
            <path d="M0,203.393L0,183.318L44.715,0L0,203.393Z" style="fill:rgb(28,33,38);fill-rule:nonzero;"/>
        </g>
        <g transform="matrix(1,0,0,1,6246.56,7575.83)">
            <path d="M0,203.393L0,183.318L-44.715,0L0,203.393Z" style="fill:rgb(28,33,38);fill-rule:nonzero;"/>
        </g>
        <g transform="matrix(1,0,0,1,6357.77,7929.75)">
            <path d="M0,369.342C1.059,370.125 1.162,370.706 0,369.342M-240.45,-85.305C-234.54,-54.951 -228.627,-24.598 -222.714,5.754C-225.337,30.44 -227.963,55.124 -230.586,79.811C-230.882,82.603 -230.021,84.695 -228.547,86.093C-225.675,92.411 -222.803,98.728 -219.931,105.048C-219.088,106.901 -218.244,108.757 -217.401,110.612C-216.816,111.898 -216.278,113.1 -215.754,114.233C-214.722,116.505 -213.688,118.778 -212.656,121.049C-211.786,122.961 -209.9,124.289 -207.809,124.942C-207.025,125.511 -206.168,126.063 -205.209,126.601C-187.989,136.213 -170.773,145.825 -153.555,155.438C-153.021,155.905 -152.423,156.296 -151.771,156.596C-138.732,168.572 -125.694,180.549 -112.655,192.526C-113.768,196.377 -114.484,200.481 -115.328,203.256C-117.603,210.722 -119.873,218.188 -122.145,225.654C-123.496,230.09 -122.875,235.57 -123.005,240.122C-123.43,255.02 -123.854,269.918 -124.279,284.817C-124.595,285.992 -124.621,287.31 -124.272,288.758C-124.146,289.778 -123.864,290.687 -123.453,291.484C-121.577,297.882 -119.979,306.292 -114.681,310.119L-93.474,325.436C-92.554,326.102 -91.7,326.721 -90.867,327.317C-94.147,329.138 -97.372,331.057 -100.563,332.732C-107.097,336.162 -117.752,339.26 -120.162,346.978C-122.849,355.571 -125.534,364.165 -128.221,372.758C-130.721,380.762 -119.146,388.313 -113.538,381.305C-111.699,379.004 -109.859,376.704 -108.02,374.404C-106.861,372.956 -105.702,371.508 -104.547,370.061C-104.281,369.734 -104.118,369.501 -104.016,369.335C-100.29,366.988 -96.564,364.644 -92.843,362.299C-92.763,363.558 -92.653,364.77 -92.454,365.917C-93.139,367.984 -93.218,370.17 -92.879,372.941C-92.302,377.691 -92.69,385.296 -90.196,389.551C-88.792,391.953 -85.9,393.842 -83.067,395.476C-85.674,402.369 -88.277,409.259 -90.884,416.152C-92.461,420.33 -94.041,424.509 -95.622,428.686C-97.109,432.627 -95.048,437.89 -94.201,441.837C-93.457,445.323 -89.399,448.694 -85.734,448.285C-84.061,448.1 -82.387,447.913 -80.714,447.728C-76.775,447.291 -73.355,445.363 -72.243,441.28C-72.184,441.054 -72.121,440.828 -72.061,440.603C-71.795,443.636 -71.313,446.684 -71.095,449.54C-70.544,456.719 -61.729,460.649 -56.426,464.374C-55.024,465.359 -53.497,465.764 -51.993,465.722C-50.489,465.764 -48.962,465.359 -47.561,464.374C-43.201,461.311 -34.721,457.38 -33.207,451.875C-32.403,448.956 -31.852,445.195 -31.666,441.486C-30.494,445.42 -27.141,447.298 -23.272,447.728C-21.599,447.913 -19.929,448.1 -18.255,448.285C-14.586,448.694 -10.532,445.323 -9.785,441.837C-9.002,438.189 -6.847,432.705 -8.228,429.054C-9.672,425.235 -11.116,421.411 -12.561,417.589C-15.347,410.218 -18.133,402.847 -20.918,395.476C-18.089,393.842 -15.197,391.953 -13.789,389.551C-11.296,385.296 -11.685,377.691 -11.106,372.941C-10.768,370.17 -10.848,367.984 -11.531,365.915C-11.336,364.77 -11.227,363.558 -11.146,362.299C-7.558,364.557 -3.968,366.819 -0.382,369.076C-0.253,369.157 -0.146,369.238 -0.037,369.319C0.989,370.604 2.019,371.889 3.048,373.173C5.216,375.883 7.384,378.594 9.553,381.305C15.157,388.313 26.735,380.762 24.231,372.758C21.622,364.404 19.012,356.051 16.398,347.696C13.892,339.67 4.943,337.125 -1.959,333.501C-5.585,331.597 -9.273,329.342 -13.032,327.253C-12.229,326.678 -11.402,326.076 -10.513,325.436C-3.443,320.33 3.626,315.224 10.694,310.119C15.994,306.292 17.591,297.882 19.467,291.484C19.879,290.686 20.161,289.778 20.283,288.758C20.636,287.31 20.605,285.99 20.294,284.817C19.882,270.375 19.467,255.935 19.055,241.493C18.919,236.72 19.696,230.709 18.278,226.047C15.964,218.45 13.653,210.854 11.342,203.256C10.505,200.506 9.791,196.38 8.679,192.515C21.715,180.542 34.75,168.57 47.786,156.596C48.437,156.296 49.034,155.907 49.568,155.439C66.506,145.981 83.446,136.525 100.383,127.067C101.614,126.38 102.684,125.696 103.644,124.996C105.805,124.367 107.773,123.015 108.67,121.049C110.064,117.983 111.456,114.916 112.851,111.848C112.854,111.845 112.854,111.845 112.854,111.842C113.073,111.362 113.292,110.88 113.512,110.401L113.512,110.399C117.193,102.296 120.876,94.195 124.558,86.093C126.035,84.695 126.896,82.603 126.597,79.811C123.974,55.124 121.351,30.44 118.725,5.754C124.638,-24.6 130.551,-54.951 136.465,-85.305C137.544,-90.846 134.034,-96.422 127.994,-96.422L-231.983,-96.422C-238.021,-96.422 -241.533,-90.846 -240.45,-85.305" style="fill:rgb(28,33,38);fill-rule:nonzero;"/>
        </g>
        <g transform="matrix(1,0,0,1,6135.97,7961.19)">
            <path d="M0,48.37L7.922,-26.154L32.625,28.294L28.441,71.791L11.89,74.524L0,48.37Z" style="fill:rgb(96,56,19);fill-rule:nonzero;"/>
        </g>
        <g transform="matrix(1,0,0,1,6255.59,7842.11)">
            <path d="M0,277.867L-92.159,193.219L-129.801,0L50.189,0L50.189,249.427L0,277.867Z" style="fill:rgb(165,30,30);fill-rule:nonzero;"/>
        </g>
        <g transform="matrix(1,0,0,1,6210.71,7842.11)">
            <path d="M0,236.642L35.683,0L-46.296,0L-59.68,180.834L-74.737,167.451L-58.006,204.256L0,236.642Z" style="fill:rgb(255,204,51);fill-rule:nonzero;"/>
        </g>
        <g transform="matrix(1,0,0,1,6210.71,7842.11)">
            <path d="M0,236.642L21.741,0L35.683,0L0,236.642Z" style="fill:rgb(28,33,38);fill-rule:nonzero;"/>
        </g>
        <g transform="matrix(1,0,0,1,6164.41,8022.95)">
            <path d="M0,-180.834L-13.384,0L12.269,-180.834L0,-180.834Z" style="fill:rgb(28,33,38);fill-rule:nonzero;"/>
        </g>
        <g transform="matrix(1,0,0,1,6215.46,7942.71)">
            <path d="M0,84.339L-54.822,12.532L-53.046,0L0,84.339Z" style="fill:rgb(234,160,61);fill-rule:nonzero;"/>
        </g>
        <g transform="matrix(1,0,0,1,6222.82,8002.8)">
            <path d="M0,-55.913L-68.937,0L-1.454,-40.075L0,-55.913Z" style="fill:rgb(234,160,61);fill-rule:nonzero;"/>
        </g>
        <g transform="matrix(1,0,0,1,6226.29,7925.22)">
            <path d="M0,-16.114L-63.883,17.496L1.607,-33.61L0,-16.114Z" style="fill:rgb(234,160,61);fill-rule:nonzero;"/>
        </g>
        <g transform="matrix(1,0,0,1,6222.82,7869.86)">
            <path d="M0,77.024L-50.077,0L-52.554,17.452L0,77.024Z" style="fill:rgb(234,160,61);fill-rule:nonzero;"/>
        </g>
        <g transform="matrix(1,0,0,1,6231.97,7864.71)">
            <path d="M0,-17.445L-59.229,5.153L0.475,-22.598L0,-17.445Z" style="fill:rgb(234,160,61);fill-rule:nonzero;"/>
        </g>
        <g transform="matrix(1,0,0,1,6227.9,7842.11)">
            <path d="M0,49.496L-51.22,0L-52.432,8.543L0,49.496Z" style="fill:rgb(234,160,61);fill-rule:nonzero;"/>
        </g>
        <g transform="matrix(1,0,0,1,6151.03,8078.75)">
            <path d="M0,-55.808L59.68,0L61.034,-14.745L0,-55.808Z" style="fill:rgb(234,160,61);fill-rule:nonzero;"/>
        </g>
        <g transform="matrix(1,0,0,1,6215.46,8046.37)">
            <path d="M0,-19.314L-62.754,0L-66.938,-9.201L0,-19.314Z" style="fill:rgb(234,160,61);fill-rule:nonzero;"/>
        </g>
        <g transform="matrix(1,0,0,1,6189.08,8005.1)">
            <path d="M0,13.942L-12.292,20.913L-21.911,8.465L-14.965,-6.471L-5.343,-6.971L1.601,2.988L0,13.942Z" style="fill:rgb(145,98,5);fill-rule:nonzero;"/>
        </g>
        <g transform="matrix(-0.698154,0.715948,0.715948,0.698154,6175.45,8018.52)">
            <path d="M-5.169,3.255L0.339,3.255L-1.886,-2.68L-7.419,-1.626L-5.169,3.255Z" style="fill:rgb(234,160,61);fill-rule:nonzero;"/>
        </g>
        <g transform="matrix(-0.698616,0.715496,0.715496,0.698616,6182.41,8010.06)">
            <path d="M-5.169,3.256L0.34,3.256L-1.883,-2.676L-7.418,-1.627L-5.169,3.256Z" style="fill:rgb(234,160,61);fill-rule:nonzero;"/>
        </g>
        <g transform="matrix(-0.698247,0.715857,0.715857,0.698247,6173.86,8008.81)">
            <path d="M-5.169,3.256L0.339,3.256L-1.885,-2.679L-7.42,-1.626L-5.169,3.256Z" style="fill:rgb(234,160,61);fill-rule:nonzero;"/>
        </g>
        <g transform="matrix(1,0,0,1,6202.13,7942.03)">
            <path d="M0,13.942L-12.289,20.913L-21.911,8.464L-14.962,-6.472L-5.343,-6.971L1.604,2.988L0,13.942Z" style="fill:rgb(145,98,5);fill-rule:nonzero;"/>
        </g>
        <g transform="matrix(-0.698063,0.716036,0.716036,0.698063,6188.51,7955.45)">
            <path d="M-5.17,3.257L0.338,3.257L-1.886,-2.68L-7.421,-1.627L-5.17,3.257Z" style="fill:rgb(234,160,61);fill-rule:nonzero;"/>
        </g>
        <g transform="matrix(-0.698244,0.715859,0.715859,0.698244,6195.46,7946.99)">
            <path d="M-5.168,3.257L0.339,3.257L-1.884,-2.677L-7.42,-1.625L-5.168,3.257Z" style="fill:rgb(234,160,61);fill-rule:nonzero;"/>
        </g>
        <g transform="matrix(-0.697972,0.716125,0.716125,0.697972,6186.92,7945.74)">
            <path d="M-5.169,3.254L0.34,3.254L-1.887,-2.682L-7.421,-1.626L-5.169,3.254Z" style="fill:rgb(234,160,61);fill-rule:nonzero;"/>
        </g>
        <g transform="matrix(1,0,0,1,6210.5,7884.29)">
            <path d="M0,8.963L-12.292,13.445L-21.911,5.442L-14.965,-4.161L-5.343,-4.482L1.601,1.922L0,8.963Z" style="fill:rgb(145,98,5);fill-rule:nonzero;"/>
        </g>
        <g transform="matrix(-0.834879,0.550434,0.550434,0.834879,6196.62,7893.17)">
            <path d="M-5.811,2.435L-1.205,2.435L-0.983,-2.126L-5.981,-1.318L-5.811,2.435Z" style="fill:rgb(234,160,61);fill-rule:nonzero;"/>
        </g>
        <g transform="matrix(-0.835142,0.550035,0.550035,0.835142,6203.57,7887.73)">
            <path d="M-5.815,2.436L-1.206,2.436L-0.983,-2.126L-5.982,-1.319L-5.815,2.436Z" style="fill:rgb(234,160,61);fill-rule:nonzero;"/>
        </g>
        <g transform="matrix(-0.834679,0.550736,0.550736,0.834679,6195.03,7886.93)">
            <path d="M-5.81,2.434L-1.204,2.434L-0.985,-2.129L-5.983,-1.318L-5.81,2.434Z" style="fill:rgb(234,160,61);fill-rule:nonzero;"/>
        </g>
        <g transform="matrix(1,0,0,1,6256.43,7939.71)">
            <path d="M0,125.055L28.438,-15.475L-15.058,116.69L-5.021,-5.438L-25.096,109.999L-36.806,120.873L-36.806,132.584L-15.058,126.729L-1.256,140.53L0,125.055Z" style="fill:rgb(236,32,36);fill-rule:nonzero;"/>
        </g>
        <g transform="matrix(1,0,0,1,6475.59,7961.19)">
            <path d="M0,48.37L-7.922,-26.154L-32.622,28.294L-28.441,71.791L-11.89,74.524L0,48.37Z" style="fill:rgb(178,127,25);fill-rule:nonzero;"/>
        </g>
        <g transform="matrix(1,0,0,1,6355.97,7842.11)">
            <path d="M0,277.867L92.158,193.219L129.797,0L-50.19,0L-50.19,249.427L0,277.867Z" style="fill:rgb(206,23,23);fill-rule:nonzero;"/>
        </g>
        <g transform="matrix(1,0,0,1,6400.85,7842.11)">
            <path d="M0,236.642L-35.684,0L46.292,0L59.676,180.834L74.733,167.451L58.002,204.256L0,236.642Z" style="fill:rgb(255,225,100);fill-rule:nonzero;"/>
        </g>
        <g transform="matrix(1,0,0,1,6400.85,7842.11)">
            <path d="M0,236.642L-21.741,0L-35.684,0L0,236.642Z" style="fill:rgb(28,33,38);fill-rule:nonzero;"/>
        </g>
        <g transform="matrix(1,0,0,1,6447.15,8022.95)">
            <path d="M0,-180.834L13.384,0L-12.266,-180.834L0,-180.834Z" style="fill:rgb(28,33,38);fill-rule:nonzero;"/>
        </g>
        <g transform="matrix(1,0,0,1,6396.1,7942.71)">
            <path d="M0,84.339L54.825,12.532L53.049,0L0,84.339Z" style="fill:rgb(255,180,13);fill-rule:nonzero;"/>
        </g>
        <g transform="matrix(1,0,0,1,6388.74,8002.8)">
            <path d="M0,-55.913L68.937,0L1.454,-40.075L0,-55.913Z" style="fill:rgb(255,180,13);fill-rule:nonzero;"/>
        </g>
        <g transform="matrix(1,0,0,1,6385.27,7925.22)">
            <path d="M0,-16.114L63.886,17.496L-1.607,-33.61L0,-16.114Z" style="fill:rgb(255,180,13);fill-rule:nonzero;"/>
        </g>
        <g transform="matrix(1,0,0,1,6388.74,7869.86)">
            <path d="M0,77.024L50.077,0L52.554,17.452L0,77.024Z" style="fill:rgb(255,180,13);fill-rule:nonzero;"/>
        </g>
        <g transform="matrix(1,0,0,1,6379.58,7864.71)">
            <path d="M0,-17.445L59.231,5.153L-0.471,-22.598L0,-17.445Z" style="fill:rgb(255,180,13);fill-rule:nonzero;"/>
        </g>
        <g transform="matrix(1,0,0,1,6383.66,7842.11)">
            <path d="M0,49.496L51.223,0L52.435,8.543L0,49.496Z" style="fill:rgb(255,180,13);fill-rule:nonzero;"/>
        </g>
        <g transform="matrix(1,0,0,1,6460.53,8078.75)">
            <path d="M0,-55.808L-59.676,0L-61.03,-14.745L0,-55.808Z" style="fill:rgb(255,180,13);fill-rule:nonzero;"/>
        </g>
        <g transform="matrix(1,0,0,1,6396.1,8046.37)">
            <path d="M0,-19.314L62.754,0L66.938,-9.201L0,-19.314Z" style="fill:rgb(255,180,13);fill-rule:nonzero;"/>
        </g>
        <g transform="matrix(1,0,0,1,6422.48,8005.1)">
            <path d="M0,13.942L12.292,20.913L21.911,8.465L14.962,-6.471L5.343,-6.971L-1.604,2.988L0,13.942Z" style="fill:rgb(211,141,41);fill-rule:nonzero;"/>
        </g>
        <g transform="matrix(0.697874,0.71622,0.71622,-0.697874,6430.77,8014.58)">
            <path d="M1.373,-2.18L6.879,-2.18L4.654,3.756L-0.879,2.7L1.373,-2.18Z" style="fill:rgb(255,180,13);fill-rule:nonzero;"/>
        </g>
        <g transform="matrix(0.698337,0.715769,0.715769,-0.698337,6423.81,8006.13)">
            <path d="M1.373,-2.178L6.88,-2.178L4.657,3.756L-0.878,2.705L1.373,-2.178Z" style="fill:rgb(255,180,13);fill-rule:nonzero;"/>
        </g>
        <g transform="matrix(0.698526,0.715585,0.715585,-0.698526,6432.36,8004.88)">
            <path d="M1.371,-2.178L6.881,-2.178L4.657,3.755L-0.878,2.705L1.371,-2.178Z" style="fill:rgb(255,180,13);fill-rule:nonzero;"/>
        </g>
        <g transform="matrix(1,0,0,1,6409.42,7942.03)">
            <path d="M0,13.942L12.292,20.913L21.911,8.464L14.965,-6.472L5.343,-6.971L-1.601,2.988L0,13.942Z" style="fill:rgb(211,141,41);fill-rule:nonzero;"/>
        </g>
        <g transform="matrix(0.698063,0.716036,0.716036,-0.698063,6417.71,7951.52)">
            <path d="M1.373,-2.179L6.881,-2.179L4.655,3.756L-0.88,2.703L1.373,-2.179Z" style="fill:rgb(255,180,13);fill-rule:nonzero;"/>
        </g>
        <g transform="matrix(0.698616,0.715496,0.715496,-0.698616,6410.75,7943.06)">
            <path d="M1.372,-2.179L6.882,-2.179L4.662,3.757L-0.877,2.705L1.372,-2.179Z" style="fill:rgb(255,180,13);fill-rule:nonzero;"/>
        </g>
        <g transform="matrix(0.697972,0.716125,0.716125,-0.697972,6419.31,7941.81)">
            <path d="M1.372,-2.18L6.881,-2.18L4.654,3.756L-0.88,2.7L1.372,-2.18Z" style="fill:rgb(255,180,13);fill-rule:nonzero;"/>
        </g>
        <g transform="matrix(1,0,0,1,6401.06,7884.29)">
            <path d="M0,8.963L12.291,13.445L21.91,5.442L14.961,-4.161L5.342,-4.482L-1.604,1.922L0,8.963Z" style="fill:rgb(211,141,41);fill-rule:nonzero;"/>
        </g>
        <g transform="matrix(0.834615,0.550833,0.550833,-0.834615,6409.1,7890.14)">
            <path d="M0.731,-1.744L5.334,-1.744L5.557,2.819L0.558,2.008L0.731,-1.744Z" style="fill:rgb(255,180,13);fill-rule:nonzero;"/>
        </g>
        <g transform="matrix(0.834879,0.550434,0.550434,-0.834879,6402.14,7884.71)">
            <path d="M0.731,-1.743L5.336,-1.743L5.558,2.819L0.559,2.01L0.731,-1.743Z" style="fill:rgb(255,180,13);fill-rule:nonzero;"/>
        </g>
        <g transform="matrix(0.834877,0.550437,0.550437,-0.834877,6410.69,7883.9)">
            <path d="M0.73,-1.744L5.339,-1.744L5.56,2.819L0.562,2.01L0.73,-1.744Z" style="fill:rgb(255,180,13);fill-rule:nonzero;"/>
        </g>
        <g transform="matrix(1,0,0,1,6355.13,7939.71)">
            <path d="M0,125.055L-28.442,-15.475L15.058,116.69L5.017,-5.438L25.095,109.999L36.806,120.873L36.806,132.584L15.058,126.729L1.255,140.53L0,125.055Z" style="fill:rgb(240,86,60);fill-rule:nonzero;"/>
        </g>
        <g transform="matrix(1,0,0,1,6369.35,8130.02)">
            <path d="M0,86.994L-1.674,28.44L-13.384,-10.038L-40.152,-35.133L-63.574,-38.479L-63.574,125.473L-35.132,123.8L-5.021,102.052L0,86.994Z" style="fill:white;fill-rule:nonzero;"/>
        </g>
        <g transform="matrix(1,0,0,1,6242.21,8130.02)">
            <path d="M0,86.994L1.674,28.44L13.385,-10.038L40.153,-35.133L63.574,-38.479L63.574,125.473L35.133,123.8L5.018,102.052L0,86.994Z" style="fill:rgb(221,221,221);fill-rule:nonzero;"/>
        </g>
        <g transform="matrix(1,0,0,1,6305.78,8120.24)">
            <path d="M0,57.719L-10.037,15.058L0,0L0,57.719Z" style="fill:rgb(239,239,220);fill-rule:nonzero;"/>
        </g>
        <g transform="matrix(1,0,0,1,6288.91,8105.04)">
            <path d="M0,3.266L13.875,-3.809L16.87,-3.537L16.87,3.811L10.884,7.075L0,3.266Z" style="fill:rgb(135,26,26);fill-rule:nonzero;"/>
        </g>
        <g transform="matrix(1,0,0,1,6305.78,8108.85)">
            <path d="M0,3.81L-6.531,6.531L-16.87,-0.544L-4.353,1.631L0,-2.721L0,3.81Z" style="fill:rgb(165,30,30);fill-rule:nonzero;"/>
        </g>
        <g transform="matrix(1,0,0,1,6289.75,8191.75)">
            <path d="M0,-11.402L-7.285,-2.85L-15.543,0L-30.601,-0.813L-16.516,-3.257L-13.601,-11.402L0,-11.402Z" style="fill:rgb(35,35,35);fill-rule:nonzero;"/>
        </g>
        <g transform="matrix(1,0,0,1,6305.78,8120.24)">
            <path d="M0,57.719L-10.037,15.058L0,0L-0.418,5.59L-6.693,16.047L0,57.719Z" style="fill:rgb(35,35,35);fill-rule:nonzero;"/>
        </g>
        <g transform="matrix(1,0,0,1,6290.3,8213.25)">
            <path d="M0,2.092L-9.619,5.855L-5.438,1.673L-15.477,5.437L0.837,-3.763L0,2.092Z" style="fill:rgb(35,35,35);fill-rule:nonzero;"/>
        </g>
        <g transform="matrix(1,0,0,1,6322.65,8105.04)">
            <path d="M0,3.266L-13.879,-3.809L-16.871,-3.537L-16.871,3.811L-10.885,7.075L0,3.266Z" style="fill:rgb(135,26,26);fill-rule:nonzero;"/>
        </g>
        <g transform="matrix(1,0,0,1,6305.78,8108.85)">
            <path d="M0,3.81L6.531,6.531L16.871,-0.544L4.354,1.631L0,-2.721L0,3.81Z" style="fill:rgb(165,30,30);fill-rule:nonzero;"/>
        </g>
        <g transform="matrix(1,0,0,1,6321.81,8191.75)">
            <path d="M0,-11.402L7.288,-2.85L15.546,0L30.604,-0.813L16.519,-3.257L13.604,-11.402L0,-11.402Z" style="fill:rgb(35,35,35);fill-rule:nonzero;"/>
        </g>
        <g transform="matrix(1,0,0,1,6321.26,8213.25)">
            <path d="M0,2.092L9.618,5.855L5.435,1.673L15.473,5.437L-0.837,-3.763L0,2.092Z" style="fill:rgb(35,35,35);fill-rule:nonzero;"/>
        </g>
        <g transform="matrix(1,0,0,1,6305.78,8135.31)">
            <path d="M0,35.69L-6.415,2.712L0,0L0,35.69Z" style="fill:rgb(255,248,184);fill-rule:nonzero;"/>
        </g>
        <g transform="matrix(1,0,0,1,6324.18,8161.25)">
            <path d="M0,0.001C0,-3.387 6.617,-6.135 14.778,-6.135C22.94,-6.135 29.558,-3.387 29.558,0.001C29.558,3.388 22.94,6.136 14.778,6.136C6.617,6.136 0,3.388 0,0.001" style="fill:rgb(249,226,210);fill-rule:nonzero;"/>
        </g>
        <g transform="matrix(1,0,0,1,6287.38,8161.25)">
            <path d="M0,0.001C0,-3.387 -6.617,-6.135 -14.775,-6.135C-22.94,-6.135 -29.554,-3.387 -29.554,0.001C-29.554,3.388 -22.94,6.136 -14.775,6.136C-6.617,6.136 0,3.388 0,0.001" style="fill:rgb(247,181,169);fill-rule:nonzero;"/>
        </g>
        <g transform="matrix(1,0,0,1,6305.78,8181.88)">
            <path d="M0,61.061L-25.932,69.427L-58.557,50.187L-63.574,35.129L-61.9,-23.424L-50.189,-61.903L-29.487,-81.31L-61.9,-102.054L-97.032,-88.671L-141.369,-51.866L-150.569,14.218L-139.695,92.013L-112.09,138.02L-35.969,163.115L0,163.115L0,61.061Z" style="fill:rgb(28,33,38);fill-rule:nonzero;"/>
        </g>
        <g transform="matrix(1,0,0,1,6305.78,8181.88)">
            <path d="M0,61.061L25.932,69.427L58.554,50.187L63.574,35.129L61.9,-23.424L50.19,-61.903L29.488,-81.31L61.9,-102.054L97.033,-88.671L141.366,-51.866L150.569,14.218L139.695,92.013L112.091,138.02L35.969,163.115L0,163.115L0,61.061Z" style="fill:rgb(65,74,81);fill-rule:nonzero;"/>
        </g>
        <g transform="matrix(1,0,0,1,6305.78,8292.3)">
            <path d="M0,-27.604L-35.132,-14.221L-57.72,0L-67.758,12.547L-59.391,-14.221L-25.932,-31.786L0,-40.151L0,-27.604Z" style="fill:rgb(234,160,61);fill-rule:nonzero;"/>
        </g>
        <g transform="matrix(1,0,0,1,6305.78,8292.3)">
            <path d="M0,-27.604L35.133,-14.221L57.717,0L67.755,12.547L59.391,-14.221L25.932,-31.786L0,-40.151L0,-27.604Z" style="fill:rgb(255,225,100);fill-rule:nonzero;"/>
        </g>
        <g transform="matrix(1,0,0,1,6300.97,8294.18)">
            <path d="M0,-15.267L-2.929,-20.285L-8.364,-19.45L-10.954,-12.966L-17.355,-4.81L-22.585,-9.202L-27.396,-5.228L-27.188,1.463L-25.305,5.018L0,-15.267Z" style="fill:rgb(145,98,5);fill-rule:nonzero;"/>
        </g>
        <g transform="matrix(1,0,0,1,6305.78,8331.6)">
            <path d="M0,-56.032L-18.684,-49.34L-32.625,-33.168L-30.62,-16.729L-9.479,-3.334L0,0L0,-56.032Z" style="fill:rgb(234,160,61);fill-rule:nonzero;"/>
        </g>
        <g transform="matrix(1,0,0,1,6300.76,8309.03)">
            <path d="M0,7.807L-6.414,11.711L-11.432,4.741L-7.806,-3.625L-2.789,-3.904L0.837,1.674L0,7.807Z" style="fill:rgb(145,98,5);fill-rule:nonzero;"/>
        </g>
        <g transform="matrix(-0.672255,0.740319,0.740319,0.672255,6293.67,8316.5)">
            <path d="M-2.63,1.768L0.352,1.768L-1.078,-1.433L-4.037,-0.865L-2.63,1.768Z" style="fill:rgb(234,160,61);fill-rule:nonzero;"/>
        </g>
        <g transform="matrix(-0.672255,0.740319,0.740319,0.672255,6297.3,8311.76)">
            <path d="M-2.63,1.768L0.352,1.768L-1.079,-1.434L-4.038,-0.864L-2.63,1.768Z" style="fill:rgb(234,160,61);fill-rule:nonzero;"/>
        </g>
        <g transform="matrix(-0.672439,0.740152,0.740152,0.672439,6292.84,8311.06)">
            <path d="M-2.63,1.769L0.353,1.769L-1.079,-1.433L-4.038,-0.865L-2.63,1.769Z" style="fill:rgb(234,160,61);fill-rule:nonzero;"/>
        </g>
        <g transform="matrix(1,0,0,1,6288.51,8295.79)">
            <path d="M0,7.808L-6.414,11.711L-11.432,4.74L-7.806,-3.624L-2.789,-3.903L0.837,1.672L0,7.808Z" style="fill:rgb(145,98,5);fill-rule:nonzero;"/>
        </g>
        <g transform="matrix(-0.672255,0.740319,0.740319,0.672255,6281.42,8303.27)">
            <path d="M-2.63,1.768L0.352,1.768L-1.079,-1.433L-4.038,-0.865L-2.63,1.768Z" style="fill:rgb(234,160,61);fill-rule:nonzero;"/>
        </g>
        <g transform="matrix(-0.672255,0.740319,0.740319,0.672255,6285.05,8298.53)">
            <path d="M-2.63,1.768L0.352,1.768L-1.079,-1.433L-4.038,-0.864L-2.63,1.768Z" style="fill:rgb(234,160,61);fill-rule:nonzero;"/>
        </g>
        <g transform="matrix(-0.672439,0.740152,0.740152,0.672439,6280.59,8297.83)">
            <path d="M-2.631,1.767L0.352,1.767L-1.08,-1.435L-4.037,-0.865L-2.631,1.767Z" style="fill:rgb(234,160,61);fill-rule:nonzero;"/>
        </g>
        <g transform="matrix(1,0,0,1,6302.54,8287.39)">
            <path d="M0,7.808L-6.414,11.711L-11.432,4.74L-7.809,-3.624L-2.789,-3.903L0.834,1.674L0,7.808Z" style="fill:rgb(145,98,5);fill-rule:nonzero;"/>
        </g>
        <g transform="matrix(-0.672255,0.740319,0.740319,0.672255,6295.45,8294.87)">
            <path d="M-2.63,1.768L0.352,1.768L-1.079,-1.433L-4.038,-0.865L-2.63,1.768Z" style="fill:rgb(234,160,61);fill-rule:nonzero;"/>
        </g>
        <g transform="matrix(-0.672255,0.740319,0.740319,0.672255,6299.08,8290.13)">
            <path d="M-2.63,1.768L0.352,1.768L-1.079,-1.433L-4.038,-0.864L-2.63,1.768Z" style="fill:rgb(234,160,61);fill-rule:nonzero;"/>
        </g>
        <g transform="matrix(-0.672439,0.740152,0.740152,0.672439,6294.62,8289.43)">
            <path d="M-2.631,1.767L0.352,1.767L-1.08,-1.435L-4.037,-0.865L-2.631,1.767Z" style="fill:rgb(234,160,61);fill-rule:nonzero;"/>
        </g>
        <g transform="matrix(1,0,0,1,6305.78,8384.84)">
            <path d="M0,-53.245L0,1.697L-10.319,-5.553L-11.435,-20.052L-4.827,-54.942L0,-53.245Z" style="fill:rgb(145,98,5);fill-rule:nonzero;"/>
        </g>
        <g transform="matrix(1,0,0,1,6289.29,8366.85)">
            <path d="M0,-43.028L-12.229,1.846L-17.249,2.404L-18.922,-5.404L-3.791,-45.432L0,-43.028Z" style="fill:rgb(145,98,5);fill-rule:nonzero;"/>
        </g>
        <g transform="matrix(1,0,0,1,6310.59,8294.18)">
            <path d="M0,-15.267L2.929,-20.285L8.367,-19.45L10.954,-12.966L17.359,-4.81L22.589,-9.202L27.396,-5.228L27.188,1.463L25.305,5.018L0,-15.267Z" style="fill:rgb(211,141,41);fill-rule:nonzero;"/>
        </g>
        <g transform="matrix(1,0,0,1,6305.78,8331.6)">
            <path d="M0,-56.032L18.684,-49.34L32.622,-33.168L30.62,-16.729L9.479,-3.334L0,0L0,-56.032Z" style="fill:rgb(255,225,100);fill-rule:nonzero;"/>
        </g>
        <g transform="matrix(1,0,0,1,6310.8,8309.03)">
            <path d="M0,7.807L6.411,11.711L11.432,4.741L7.806,-3.625L2.786,-3.904L-0.837,1.674L0,7.807Z" style="fill:rgb(211,141,41);fill-rule:nonzero;"/>
        </g>
        <g transform="matrix(0.67299,0.739652,0.739652,-0.67299,6315.14,8314.38)">
            <path d="M0.781,-1.164L3.766,-1.164L2.337,2.035L-0.621,1.472L0.781,-1.164Z" style="fill:rgb(255,211,141);fill-rule:nonzero;"/>
        </g>
        <g transform="matrix(0.672439,0.740152,0.740152,-0.672439,6311.52,8309.64)">
            <path d="M0.782,-1.163L3.765,-1.163L2.332,2.036L-0.624,1.469L0.782,-1.163Z" style="fill:rgb(255,211,141);fill-rule:nonzero;"/>
        </g>
        <g transform="matrix(0.67299,0.739652,0.739652,-0.67299,6315.98,8308.94)">
            <path d="M0.782,-1.163L3.767,-1.163L2.335,2.037L-0.622,1.474L0.782,-1.163Z" style="fill:rgb(255,211,141);fill-rule:nonzero;"/>
        </g>
        <g transform="matrix(1,0,0,1,6323.05,8295.79)">
            <path d="M0,7.808L6.411,11.711L11.432,4.74L7.806,-3.624L2.786,-3.903L-0.837,1.672L0,7.808Z" style="fill:rgb(211,141,41);fill-rule:nonzero;"/>
        </g>
        <g transform="matrix(0.67299,0.739652,0.739652,-0.67299,6327.4,8301.15)">
            <path d="M0.781,-1.163L3.767,-1.163L2.336,2.037L-0.623,1.471L0.781,-1.163Z" style="fill:rgb(255,211,141);fill-rule:nonzero;"/>
        </g>
        <g transform="matrix(0.672439,0.740152,0.740152,-0.672439,6323.77,8296.41)">
            <path d="M0.782,-1.163L3.765,-1.163L2.332,2.035L-0.624,1.469L0.782,-1.163Z" style="fill:rgb(255,211,141);fill-rule:nonzero;"/>
        </g>
        <g transform="matrix(0.67299,0.739652,0.739652,-0.67299,6328.23,8295.71)">
            <path d="M0.781,-1.164L3.766,-1.164L2.335,2.037L-0.623,1.47L0.781,-1.164Z" style="fill:rgb(255,211,141);fill-rule:nonzero;"/>
        </g>
        <g transform="matrix(1,0,0,1,6309.02,8287.39)">
            <path d="M0,7.808L6.411,11.711L11.432,4.74L7.806,-3.624L2.789,-3.903L-0.837,1.674L0,7.808Z" style="fill:rgb(211,141,41);fill-rule:nonzero;"/>
        </g>
        <g transform="matrix(0.672439,0.740152,0.740152,-0.672439,6313.37,8292.75)">
            <path d="M0.782,-1.163L3.765,-1.163L2.332,2.036L-0.625,1.47L0.782,-1.163Z" style="fill:rgb(255,211,141);fill-rule:nonzero;"/>
        </g>
        <g transform="matrix(0.672439,0.740152,0.740152,-0.672439,6309.74,8288.01)">
            <path d="M0.782,-1.164L3.765,-1.164L2.335,2.036L-0.624,1.468L0.782,-1.164Z" style="fill:rgb(255,211,141);fill-rule:nonzero;"/>
        </g>
        <g transform="matrix(0.672255,0.740319,0.740319,-0.672255,6314.2,8287.31)">
            <path d="M0.782,-1.163L3.764,-1.163L2.33,2.036L-0.626,1.468L0.782,-1.163Z" style="fill:rgb(255,211,141);fill-rule:nonzero;"/>
        </g>
        <g transform="matrix(1,0,0,1,6305.78,8384.84)">
            <path d="M0,-53.245L0,1.697L10.316,-5.553L11.432,-20.052L4.824,-54.942L0,-53.245Z" style="fill:rgb(211,141,41);fill-rule:nonzero;"/>
        </g>
        <g transform="matrix(1,0,0,1,6322.27,8366.85)">
            <path d="M0,-43.028L12.229,1.846L17.246,2.404L18.919,-5.404L3.792,-45.432L0,-43.028Z" style="fill:rgb(211,141,41);fill-rule:nonzero;"/>
        </g>
        <g transform="matrix(0,-1,-1,-0,6380.66,7971.35)">
            <path d="M-120.19,74.881L83.914,74.881L-119.098,120.19L-129.223,104.368L-120.19,74.881Z" style="fill:rgb(183,183,183);fill-rule:nonzero;"/>
        </g>
        <g transform="matrix(0,-1,-1,-0,6316.46,7941.74)">
            <path d="M-41.885,10.681L54.311,10.681L-85.515,41.885L-85.384,30.759L-41.885,10.681Z" style="fill:rgb(6,41,91);fill-rule:nonzero;"/>
        </g>
        <g transform="matrix(1,0,0,1,6305.78,8095.56)">
            <path d="M0,-123.646L0,-68.437L-27.604,-29.958L-38.479,-15.738L-37.311,0L-44.715,-4.739L-31.204,-68.306L0,-123.646Z" style="fill:rgb(255,180,13);fill-rule:nonzero;"/>
        </g>
        <g transform="matrix(1,0,0,1,6268.47,8017.93)">
            <path d="M0,77.638L7.195,58.554L37.311,26.767L37.311,0L8.032,40.152L-1.168,61.901L-4.516,74.447L0,77.638Z" style="fill:rgb(216,221,206);fill-rule:nonzero;"/>
        </g>
        <g transform="matrix(0,-1,-1,-0,6425.97,8016.66)">
            <path d="M-74.88,120.19L129.224,120.19L-73.788,74.88L-83.913,90.702L-74.88,120.19Z" style="fill:rgb(221,221,221);fill-rule:nonzero;"/>
        </g>
        <g transform="matrix(0,-1,-1,-0,6347.67,7972.95)">
            <path d="M-10.681,41.885L85.515,41.885L-54.31,10.681L-54.179,21.81L-10.681,41.885Z" style="fill:rgb(25,78,165);fill-rule:nonzero;"/>
        </g>
        <g transform="matrix(1,0,0,1,6305.78,8095.56)">
            <path d="M0,-123.646L0,-68.437L27.605,-29.958L38.479,-15.738L37.308,0L44.715,-4.739L31.204,-68.306L0,-123.646Z" style="fill:rgb(255,225,100);fill-rule:nonzero;"/>
        </g>
        <g transform="matrix(1,0,0,1,6343.09,8017.93)">
            <path d="M0,77.638L-7.195,58.554L-37.308,26.767L-37.308,0L-8.032,40.152L1.172,61.901L4.516,74.447L0,77.638Z" style="fill:white;fill-rule:nonzero;"/>
        </g>
        <g transform="matrix(1,0,0,1,6343.09,8044.69)">
            <path d="M0,50.871L-7.195,31.787L-37.308,0L-37.308,6.692L-11.934,30.115L0,50.871Z" style="fill:rgb(28,33,38);fill-rule:nonzero;"/>
        </g>
        <g transform="matrix(1,0,0,1,6268.47,8044.69)">
            <path d="M0,50.871L7.195,31.787L37.311,0L37.311,6.692L11.937,30.115L0,50.871Z" style="fill:rgb(28,33,38);fill-rule:nonzero;"/>
        </g>
        <g transform="matrix(1,0,0,1,6305.78,8090.83)">
            <path d="M0,-203.393L0,-183.319L-44.715,0L0,-203.393Z" style="fill:rgb(28,33,38);fill-rule:nonzero;"/>
        </g>
        <g transform="matrix(1,0,0,1,6305.78,8090.83)">
            <path d="M0,-203.393L0,-183.319L44.715,0L0,-203.393Z" style="fill:rgb(28,33,38);fill-rule:nonzero;"/>
        </g>
        <g transform="matrix(1,0,0,1,6601.09,7726.89)">
            <path d="M0,14.329C-5.539,10.738 -11.077,7.149 -16.618,3.56C-14.775,2.397 -12.937,1.234 -11.094,0.072C-5.18,-3.661 -5.519,-11.54 -11.094,-15.341C-15.218,-18.151 -19.341,-20.962 -23.465,-23.773C-21.698,-25.355 -19.929,-26.936 -18.162,-28.519C-12.681,-33.427 -16.33,-41.155 -22.101,-43.436C-31.085,-46.984 -40.07,-50.534 -49.052,-54.082C-48.646,-54.68 -48.238,-55.276 -47.833,-55.873C-44.33,-61.012 -48.142,-67.095 -53.165,-68.984C-58.84,-71.118 -64.511,-73.254 -70.186,-75.388C-68.651,-78.772 -67.117,-82.157 -65.583,-85.54C-62.874,-91.517 -65.995,-98.971 -73.29,-98.971L-112.437,-98.971C-111.944,-102.112 -111.457,-105.253 -110.969,-108.395C-110.089,-114.028 -113.272,-119.692 -119.575,-119.692L-177.896,-119.692C-184.194,-119.692 -187.379,-114.028 -186.502,-108.395C-186.011,-105.253 -185.522,-102.112 -185.035,-98.971L-224.182,-98.971C-231.476,-98.971 -234.594,-91.517 -231.888,-85.54C-230.354,-82.157 -228.819,-78.772 -227.286,-75.388C-232.957,-73.254 -238.631,-71.118 -244.303,-68.984C-249.329,-67.095 -253.138,-61.012 -249.638,-55.873C-249.229,-55.276 -248.824,-54.68 -248.416,-54.082C-257.401,-50.534 -266.383,-46.984 -275.367,-43.436C-281.142,-41.155 -284.79,-33.427 -279.305,-28.519C-277.539,-26.936 -275.772,-25.355 -274.006,-23.773C-278.13,-20.962 -282.254,-18.151 -286.377,-15.341C-291.952,-11.54 -292.291,-3.661 -286.377,0.072C-284.534,1.234 -282.695,2.397 -280.853,3.56C-286.391,7.149 -291.933,10.739 -297.471,14.329C-304.297,18.754 -302.561,27.918 -295.339,30.641C-288.781,33.114 -282.224,35.588 -275.666,38.059C-279.84,42.428 -284.01,46.795 -288.184,51.162C-292.334,55.507 -291.248,65.082 -284.246,66.079C-256.017,70.098 -227.787,74.117 -199.558,78.136C-199.551,78.138 -199.548,78.139 -199.541,78.14C-192.791,79.1 -186.037,80.061 -179.287,81.023C-179.324,81.307 -179.36,81.592 -179.4,81.876C-180.21,87.999 -180.081,91.504 -177.487,97.222C-174.25,104.36 -171.017,111.499 -167.779,118.636C-166.826,120.735 -165.272,122.002 -163.486,122.606C-161.896,123.73 -160.305,124.852 -158.715,125.975C-158.456,126.185 -158.17,126.38 -157.878,126.566C-157.785,126.631 -157.692,126.697 -157.599,126.764C-157.593,126.767 -157.589,126.77 -157.586,126.773C-155.072,128.547 -152.854,130.376 -150.526,131.746C-148.495,133.145 -146.499,133.741 -144.474,133.884C-143.199,134.021 -141.831,133.982 -140.327,133.695C-134.157,132.519 -122.908,132.657 -118.184,127.931C-113.983,123.732 -110.832,117.789 -107.406,112.991C-101.476,104.688 -95.546,96.387 -89.615,88.085C-89.124,87.549 -88.702,86.934 -88.364,86.246C-87.059,83.865 -86.764,80.017 -86.634,76.53C-62.163,73.046 -37.696,69.563 -13.226,66.079C-6.223,65.082 -5.137,55.507 -9.287,51.162C-13.461,46.796 -17.631,42.428 -21.805,38.06C-15.247,35.588 -8.689,33.114 -2.132,30.641C5.09,27.918 6.829,18.754 0,14.329" style="fill:rgb(28,33,38);fill-rule:nonzero;"/>
        </g>
        <g transform="matrix(1,0,0,1,6452.36,7636.84)">
            <path d="M0,166.474L0,0L75.443,0L0,166.474Z" style="fill:rgb(221,221,221);fill-rule:nonzero;"/>
        </g>
        <g transform="matrix(1,0,0,1,6518.9,7803.31)">
            <path d="M0,-146.836L26.655,-136.807L-66.539,0L0,-146.836Z" style="fill:rgb(165,30,30);fill-rule:nonzero;"/>
        </g>
        <g transform="matrix(1,0,0,1,6538.43,7803.31)">
            <path d="M0,-126.343L38.187,-111.257L-86.072,0L0,-126.343Z" style="fill:rgb(221,221,221);fill-rule:nonzero;"/>
        </g>
        <g transform="matrix(1,0,0,1,6563.21,7803.31)">
            <path d="M0,-99.252L22.282,-84.062L-110.852,0L0,-99.252Z" style="fill:rgb(165,30,30);fill-rule:nonzero;"/>
        </g>
        <g transform="matrix(1,0,0,1,6567.93,7803.31)">
            <path d="M0,-72.968L28.664,-54.393L-115.566,0L0,-72.968Z" style="fill:rgb(221,221,221);fill-rule:nonzero;"/>
        </g>
        <g transform="matrix(1,0,0,1,6563.54,7803.31)">
            <path d="M0,-41.932L21.95,-18.955L-111.184,0L0,-41.932Z" style="fill:rgb(165,30,30);fill-rule:nonzero;"/>
        </g>
        <g transform="matrix(1,0,0,1,6452.36,7636.84)">
            <path d="M0,166.474L0,0L-75.448,0L0,166.474Z" style="fill:rgb(221,221,221);fill-rule:nonzero;"/>
        </g>
        <g transform="matrix(1,0,0,1,6385.82,7803.31)">
            <path d="M0,-146.836L-26.655,-136.807L66.543,0L0,-146.836Z" style="fill:rgb(165,30,30);fill-rule:nonzero;"/>
        </g>
        <g transform="matrix(1,0,0,1,6366.29,7803.31)">
            <path d="M0,-126.343L-38.189,-111.257L86.073,0L0,-126.343Z" style="fill:rgb(221,221,221);fill-rule:nonzero;"/>
        </g>
        <g transform="matrix(1,0,0,1,6341.51,7803.31)">
            <path d="M0,-99.252L-22.286,-84.062L110.853,0L0,-99.252Z" style="fill:rgb(165,30,30);fill-rule:nonzero;"/>
        </g>
        <g transform="matrix(1,0,0,1,6336.79,7803.31)">
            <path d="M0,-72.968L-28.664,-54.393L115.567,0L0,-72.968Z" style="fill:rgb(221,221,221);fill-rule:nonzero;"/>
        </g>
        <g transform="matrix(1,0,0,1,6341.17,7803.31)">
            <path d="M0,-41.932L-21.951,-18.955L111.188,0L0,-41.932Z" style="fill:rgb(165,30,30);fill-rule:nonzero;"/>
        </g>
        <g transform="matrix(1,0,0,1,6452.36,7616.12)">
            <path d="M0,187.194L0,0L29.158,0L0,187.194Z" style="fill:rgb(165,30,30);fill-rule:nonzero;"/>
        </g>
        <g transform="matrix(1,0,0,1,6452.36,7616.12)">
            <path d="M0,187.194L0,0L-29.163,0L0,187.194Z" style="fill:rgb(165,30,30);fill-rule:nonzero;"/>
        </g>
        <g transform="matrix(1,0,0,1,6403.92,7768.2)">
            <path d="M0,28.221L0.216,16.932L6.701,8.766L12.415,2.864L23.13,-2.477L30.016,-5.536L41.89,-6.895L48.438,-6.312L48.438,35.116L0,28.221Z" style="fill:rgb(255,225,100);fill-rule:nonzero;"/>
        </g>
        <g transform="matrix(1,0,0,1,6430.64,7784.05)">
            <path d="M0,-11.358L10.014,-17.037L17.847,-6.896L12.192,5.272L4.35,5.679L-1.305,-2.434L0,-11.358Z" style="fill:rgb(214,164,91);fill-rule:nonzero;"/>
        </g>
        <g transform="matrix(0.698029,-0.71607,-0.71607,-0.698029,6437.39,7776.33)">
            <path d="M1.118,1.777L5.607,1.777L3.794,-3.06L-0.714,-2.201L1.118,1.777Z" style="fill:rgb(255,225,100);fill-rule:nonzero;"/>
        </g>
        <g transform="matrix(0.698588,-0.715524,-0.715524,-0.698588,6431.72,7783.21)">
            <path d="M1.118,1.774L5.605,1.774L3.795,-3.06L-0.714,-2.204L1.118,1.774Z" style="fill:rgb(255,225,100);fill-rule:nonzero;"/>
        </g>
        <g transform="matrix(0.698363,-0.715744,-0.715744,-0.698363,6438.69,7784.23)">
            <path d="M1.119,1.775L5.607,1.775L3.797,-3.061L-0.716,-2.203L1.119,1.775Z" style="fill:rgb(255,225,100);fill-rule:nonzero;"/>
        </g>
        <g transform="matrix(1,0,0,1,6412.19,7790.05)">
            <path d="M0,-9.057L7.982,-13.584L14.231,-5.497L9.723,4.203L3.47,4.527L-1.039,-1.943L0,-9.057Z" style="fill:rgb(214,164,91);fill-rule:nonzero;"/>
        </g>
        <g transform="matrix(0.697541,-0.716545,-0.716545,-0.697541,6417.57,7783.89)">
            <path d="M0.892,1.417L4.47,1.417L3.023,-2.44L-0.573,-1.751L0.892,1.417Z" style="fill:rgb(255,225,100);fill-rule:nonzero;"/>
        </g>
        <g transform="matrix(0.698533,-0.715578,-0.715578,-0.698533,6413.05,7789.38)">
            <path d="M0.891,1.415L4.47,1.415L3.026,-2.44L-0.568,-1.759L0.891,1.415Z" style="fill:rgb(255,225,100);fill-rule:nonzero;"/>
        </g>
        <g transform="matrix(0.697964,-0.716133,-0.716133,-0.697964,6418.61,7790.2)">
            <path d="M0.892,1.416L4.47,1.416L3.025,-2.44L-0.572,-1.754L0.892,1.416Z" style="fill:rgb(255,225,100);fill-rule:nonzero;"/>
        </g>
        <g transform="matrix(1,0,0,1,6500.79,7768.2)">
            <path d="M0,28.221L-0.212,16.932L-6.7,8.766L-12.411,2.864L-23.126,-2.477L-30.012,-5.536L-41.889,-6.895L-48.433,-6.312L-48.433,35.116L0,28.221Z" style="fill:rgb(242,166,44);fill-rule:nonzero;"/>
        </g>
        <g transform="matrix(1,0,0,1,6474.08,7784.05)">
            <path d="M0,-11.358L-10.014,-17.037L-17.85,-6.896L-12.191,5.272L-4.353,5.679L1.302,-2.434L0,-11.358Z" style="fill:rgb(145,98,5);fill-rule:nonzero;"/>
        </g>
        <g transform="matrix(-0.697686,-0.716404,-0.716404,0.697686,6462.98,7773.12)">
            <path d="M-4.213,-2.651L0.274,-2.651L-1.539,2.188L-6.049,1.324L-4.213,-2.651Z" style="fill:rgb(234,160,61);fill-rule:nonzero;"/>
        </g>
        <g transform="matrix(-0.698132,-0.715969,-0.715969,0.698132,6468.64,7780.01)">
            <path d="M-4.21,-2.654L0.275,-2.654L-1.536,2.181L-6.047,1.32L-4.21,-2.654Z" style="fill:rgb(234,160,61);fill-rule:nonzero;"/>
        </g>
        <g transform="matrix(-0.698477,-0.715633,-0.715633,0.698477,6461.68,7781.03)">
            <path d="M-4.214,-2.656L0.274,-2.656L-1.535,2.181L-6.045,1.327L-4.214,-2.656Z" style="fill:rgb(234,160,61);fill-rule:nonzero;"/>
        </g>
        <g transform="matrix(1,0,0,1,6492.53,7790.05)">
            <path d="M0,-9.057L-7.985,-13.584L-14.231,-5.497L-9.722,4.203L-3.47,4.527L1.039,-1.943L0,-9.057Z" style="fill:rgb(145,98,5);fill-rule:nonzero;"/>
        </g>
        <g transform="matrix(-0.697685,-0.716405,-0.716405,0.697685,6483.68,7781.33)">
            <path d="M-3.358,-2.113L0.221,-2.113L-1.227,1.744L-4.825,1.053L-3.358,-2.113Z" style="fill:rgb(234,160,61);fill-rule:nonzero;"/>
        </g>
        <g transform="matrix(-0.698104,-0.715997,-0.715997,0.698104,6488.19,7786.83)">
            <path d="M-3.358,-2.116L0.219,-2.116L-1.225,1.74L-4.821,1.055L-3.358,-2.116Z" style="fill:rgb(234,160,61);fill-rule:nonzero;"/>
        </g>
        <g transform="matrix(-0.697821,-0.716273,-0.716273,0.697821,6482.64,7787.64)">
            <path d="M-3.357,-2.116L0.22,-2.116L-1.225,1.74L-4.821,1.056L-3.357,-2.116Z" style="fill:rgb(234,160,61);fill-rule:nonzero;"/>
        </g>
        <g transform="matrix(1,0,0,1,6441.02,7744.58)">
            <path d="M0,96.436L-9.363,71.157L-4.682,44.005L-3.746,30.898L2.809,37.451L7.49,67.412L7.49,5.56L14.045,0L19.662,7.492L21.535,58.986L25.277,-6.552L32.768,-11.234L39.322,-1.872L33.704,60.857L44.94,14.045L51.494,17.79L49.622,60.857L58.049,33.707L66.476,35.58L63.667,64.603L35.577,103.924L15.917,107.67L0,96.436Z" style="fill:rgb(255,211,141);fill-rule:nonzero;"/>
        </g>
        <g transform="matrix(1,0,0,1,6462.56,7735.22)">
            <path d="M0,68.349L3.742,2.811L11.232,-1.871L17.787,7.492L12.169,70.22L14.745,8.178L10.279,2.595L6.558,5.574L0,68.349Z" style="fill:rgb(96,56,19);fill-rule:nonzero;"/>
        </g>
        <g transform="matrix(1,0,0,1,6448.51,7744.58)">
            <path d="M0,67.411L0,5.559L6.555,0L12.172,7.491L14.045,58.985L9.437,8.491L5.718,4.769L2.364,8.118L0,67.411Z" style="fill:rgb(96,56,19);fill-rule:nonzero;"/>
        </g>
        <g transform="matrix(1,0,0,1,6474.72,7758.63)">
            <path d="M0,46.812L11.236,0L17.79,3.746L15.918,46.812L14.855,8.587L13.182,6.912L0,46.812Z" style="fill:rgb(96,56,19);fill-rule:nonzero;"/>
        </g>
        <g transform="matrix(1,0,0,1,6504.69,7778.29)">
            <path d="M0,30.896L2.809,1.873L-5.618,0L-14.045,27.15L-3.569,5.672L0.152,7.534L0,30.896Z" style="fill:rgb(96,56,19);fill-rule:nonzero;"/>
        </g>
        <g transform="matrix(1,0,0,1,6448.51,7799.96)">
            <path d="M0,12.033L-4.682,-17.928L-11.236,-24.481L-16.854,15.778L-7.49,41.057L-18.85,16.006L-13.265,-26.047L-8.799,-29.024L-2.471,-21.208L0,12.033Z" style="fill:rgb(96,56,19);fill-rule:nonzero;"/>
        </g>
        <g transform="matrix(1,0,0,1,6448.01,7825.82)">
            <path d="M0,20.136L8.925,26.435L28.585,22.689L49.293,-6.299L27.798,18.433L10.678,23.272L0,20.136Z" style="fill:rgb(96,56,19);fill-rule:nonzero;"/>
        </g>
        <g transform="matrix(1,0,0,1,5951.25,7939.77)">
            <path d="M0,-14.327C5.542,-10.737 11.08,-7.148 16.618,-3.559C14.779,-2.397 12.937,-1.233 11.097,-0.071C5.18,3.662 5.519,11.542 11.097,15.342C15.221,18.152 19.341,20.963 23.465,23.774C21.698,25.356 19.933,26.938 18.166,28.519C12.681,33.428 16.333,41.155 22.104,43.437C31.089,46.986 40.07,50.535 49.055,54.083C48.646,54.681 48.241,55.277 47.833,55.874C44.333,61.013 48.145,67.096 53.169,68.986C58.84,71.12 64.514,73.255 70.186,75.388C68.651,78.774 67.117,82.158 65.583,85.541C62.877,91.518 65.995,98.972 73.29,98.972L112.437,98.972C111.948,102.113 111.46,105.254 110.969,108.396C110.092,114.029 113.276,119.693 119.575,119.693L177.896,119.693C184.198,119.693 187.382,114.029 186.502,108.396C186.015,105.254 185.526,102.113 185.035,98.972L224.182,98.972C231.476,98.972 234.597,91.518 231.888,85.541C230.354,82.158 228.819,78.774 227.286,75.388C232.96,73.255 238.631,71.12 244.306,68.986C249.329,67.096 253.138,61.013 249.638,55.874C249.233,55.277 248.824,54.681 248.42,54.083C257.401,50.535 266.386,46.986 275.37,43.437C281.142,41.155 284.79,33.428 279.309,28.519C277.542,26.938 275.775,25.356 274.006,23.774C278.13,20.963 282.257,18.152 286.377,15.342C291.955,11.542 292.294,3.662 286.377,-0.071C284.538,-1.233 282.695,-2.397 280.855,-3.559C286.394,-7.148 291.933,-10.737 297.471,-14.327C304.301,-18.753 302.561,-27.917 295.339,-30.64C288.781,-33.113 282.224,-35.587 275.666,-38.058C279.84,-42.427 284.014,-46.793 288.184,-51.161C292.337,-55.506 291.248,-65.081 284.246,-66.077C256.017,-70.097 227.787,-74.116 199.558,-78.135C199.555,-78.137 199.548,-78.137 199.545,-78.139C192.791,-79.099 186.041,-80.06 179.287,-81.022C179.327,-81.306 179.363,-81.59 179.4,-81.875C180.214,-87.998 180.084,-91.503 177.491,-97.22C174.254,-104.358 171.017,-111.497 167.779,-118.635C166.826,-120.734 165.272,-122.001 163.486,-122.605C161.898,-123.729 160.305,-124.851 158.715,-125.973C158.459,-126.184 158.174,-126.379 157.878,-126.565C157.785,-126.63 157.692,-126.696 157.599,-126.763C157.596,-126.765 157.593,-126.769 157.586,-126.772C155.072,-128.546 152.857,-130.375 150.53,-131.745C148.495,-133.144 146.503,-133.74 144.478,-133.883C143.199,-134.02 141.834,-133.981 140.33,-133.693C134.157,-132.518 122.912,-132.656 118.187,-127.93C113.986,-123.731 110.836,-117.788 107.406,-112.99C101.479,-104.687 95.549,-96.385 89.615,-88.084C89.124,-87.548 88.702,-86.933 88.367,-86.245C87.063,-83.864 86.767,-80.015 86.638,-76.529C62.167,-73.045 37.696,-69.561 13.229,-66.077C6.226,-65.081 5.137,-55.506 9.291,-51.161C13.461,-46.795 17.635,-42.427 21.805,-38.06L2.132,-30.64C-5.09,-27.917 -6.826,-18.753 0,-14.327" style="fill:rgb(28,33,38);fill-rule:nonzero;"/>
        </g>
        <g transform="matrix(1,0,0,1,6099.98,8029.82)">
            <path d="M0,-166.474L0,0L-75.447,0L0,-166.474Z" style="fill:rgb(221,221,221);fill-rule:nonzero;"/>
        </g>
        <g transform="matrix(1,0,0,1,6033.44,7863.34)">
            <path d="M0,146.836L-26.655,136.807L66.543,0L0,146.836Z" style="fill:rgb(165,30,30);fill-rule:nonzero;"/>
        </g>
        <g transform="matrix(1,0,0,1,6013.91,7863.34)">
            <path d="M0,126.345L-38.19,111.257L86.072,0L0,126.345Z" style="fill:rgb(221,221,221);fill-rule:nonzero;"/>
        </g>
        <g transform="matrix(1,0,0,1,5989.13,7863.34)">
            <path d="M0,99.251L-22.285,84.063L110.853,0L0,99.251Z" style="fill:rgb(165,30,30);fill-rule:nonzero;"/>
        </g>
        <g transform="matrix(1,0,0,1,5984.42,7863.34)">
            <path d="M0,72.967L-28.664,54.394L115.567,0L0,72.967Z" style="fill:rgb(221,221,221);fill-rule:nonzero;"/>
        </g>
        <g transform="matrix(1,0,0,1,5988.8,7863.34)">
            <path d="M0,41.933L-21.95,18.956L111.188,0L0,41.933Z" style="fill:rgb(165,30,30);fill-rule:nonzero;"/>
        </g>
        <g transform="matrix(1,0,0,1,6099.98,8029.82)">
            <path d="M0,-166.474L0,0L75.444,0L0,-166.474Z" style="fill:rgb(221,221,221);fill-rule:nonzero;"/>
        </g>
        <g transform="matrix(1,0,0,1,6166.52,7863.34)">
            <path d="M0,146.836L26.655,136.807L-66.539,0L0,146.836Z" style="fill:rgb(165,30,30);fill-rule:nonzero;"/>
        </g>
        <g transform="matrix(1,0,0,1,6186.06,7863.34)">
            <path d="M0,126.345L38.187,111.257L-86.072,0L0,126.345Z" style="fill:rgb(221,221,221);fill-rule:nonzero;"/>
        </g>
        <g transform="matrix(1,0,0,1,6210.84,7863.34)">
            <path d="M0,99.251L22.286,84.063L-110.852,0L0,99.251Z" style="fill:rgb(165,30,30);fill-rule:nonzero;"/>
        </g>
        <g transform="matrix(1,0,0,1,6215.55,7863.34)">
            <path d="M0,72.967L28.664,54.394L-115.566,0L0,72.967Z" style="fill:rgb(221,221,221);fill-rule:nonzero;"/>
        </g>
        <g transform="matrix(1,0,0,1,6211.17,7863.34)">
            <path d="M0,41.933L21.954,18.956L-111.184,0L0,41.933Z" style="fill:rgb(165,30,30);fill-rule:nonzero;"/>
        </g>
        <g transform="matrix(1,0,0,1,6099.98,8050.54)">
            <path d="M0,-187.194L0,0L-29.162,0L0,-187.194Z" style="fill:rgb(165,30,30);fill-rule:nonzero;"/>
        </g>
        <g transform="matrix(1,0,0,1,6099.98,8050.54)">
            <path d="M0,-187.194L0,0L29.159,0L0,-187.194Z" style="fill:rgb(165,30,30);fill-rule:nonzero;"/>
        </g>
        <g transform="matrix(1,0,0,1,6148.42,7898.46)">
            <path d="M0,-28.222L-0.213,-16.933L-6.701,-8.767L-12.412,-2.865L-23.126,2.476L-30.013,5.534L-41.89,6.895L-48.434,6.311L-48.434,-35.117L0,-28.222Z" style="fill:rgb(255,225,100);fill-rule:nonzero;"/>
        </g>
        <g transform="matrix(1,0,0,1,6121.71,7882.61)">
            <path d="M0,11.357L-10.015,17.037L-17.851,6.894L-12.192,-5.273L-4.354,-5.68L1.301,2.433L0,11.357Z" style="fill:rgb(214,164,91);fill-rule:nonzero;"/>
        </g>
        <g transform="matrix(-0.697797,0.716295,0.716295,0.697797,6110.6,7893.54)">
            <path d="M-4.214,2.651L0.273,2.651L-1.54,-2.188L-6.048,-1.324L-4.214,2.651Z" style="fill:rgb(255,225,100);fill-rule:nonzero;"/>
        </g>
        <g transform="matrix(-0.698246,0.715858,0.715858,0.698246,6116.27,7886.65)">
            <path d="M-4.211,2.653L0.275,2.653L-1.536,-2.182L-6.046,-1.322L-4.211,2.653Z" style="fill:rgb(255,225,100);fill-rule:nonzero;"/>
        </g>
        <g transform="matrix(-0.698588,0.715524,0.715524,0.698588,6109.3,7885.63)">
            <path d="M-4.214,2.655L0.273,2.655L-1.534,-2.181L-6.045,-1.326L-4.214,2.655Z" style="fill:rgb(255,225,100);fill-rule:nonzero;"/>
        </g>
        <g transform="matrix(1,0,0,1,6140.15,7876.6)">
            <path d="M0,9.058L-7.985,13.585L-14.23,5.498L-9.722,-4.202L-3.47,-4.527L1.039,1.945L0,9.058Z" style="fill:rgb(214,164,91);fill-rule:nonzero;"/>
        </g>
        <g transform="matrix(-0.697402,0.716681,0.716681,0.697402,6131.3,7885.33)">
            <path d="M-3.358,2.112L0.221,2.112L-1.228,-1.745L-4.826,-1.053L-3.358,2.112Z" style="fill:rgb(255,225,100);fill-rule:nonzero;"/>
        </g>
        <g transform="matrix(-0.697964,0.716133,0.716133,0.697964,6135.82,7879.83)">
            <path d="M-3.358,2.115L0.22,2.115L-1.225,-1.741L-4.821,-1.055L-3.358,2.115Z" style="fill:rgb(255,225,100);fill-rule:nonzero;"/>
        </g>
        <g transform="matrix(-0.697824,0.716269,0.716269,0.697824,6130.27,7879.02)">
            <path d="M-3.358,2.115L0.221,2.115L-1.226,-1.742L-4.82,-1.058L-3.358,2.115Z" style="fill:rgb(255,225,100);fill-rule:nonzero;"/>
        </g>
        <g transform="matrix(1,0,0,1,6051.55,7898.46)">
            <path d="M0,-28.222L0.216,-16.933L6.7,-8.767L12.414,-2.865L23.129,2.476L30.016,5.534L41.892,6.895L48.437,6.311L48.437,-35.117L0,-28.222Z" style="fill:rgb(242,166,44);fill-rule:nonzero;"/>
        </g>
        <g transform="matrix(1,0,0,1,6078.26,7882.61)">
            <path d="M0,11.357L10.014,17.037L17.847,6.894L12.192,-5.273L4.353,-5.68L-1.305,2.433L0,11.357Z" style="fill:rgb(145,98,5);fill-rule:nonzero;"/>
        </g>
        <g transform="matrix(0.698254,0.71585,0.71585,-0.698254,6085.01,7890.33)">
            <path d="M1.117,-1.777L5.607,-1.777L3.794,3.06L-0.712,2.201L1.117,-1.777Z" style="fill:rgb(234,160,61);fill-rule:nonzero;"/>
        </g>
        <g transform="matrix(0.698132,0.715969,0.715969,-0.698132,6079.35,7883.45)">
            <path d="M1.118,-1.774L5.603,-1.774L3.79,3.059L-0.718,2.2L1.118,-1.774Z" style="fill:rgb(234,160,61);fill-rule:nonzero;"/>
        </g>
        <g transform="matrix(0.698474,0.715635,0.715635,-0.698474,6086.31,7882.43)">
            <path d="M1.119,-1.775L5.606,-1.775L3.797,3.061L-0.714,2.204L1.119,-1.775Z" style="fill:rgb(234,160,61);fill-rule:nonzero;"/>
        </g>
        <g transform="matrix(1,0,0,1,6059.82,7876.6)">
            <path d="M0,9.058L7.981,13.585L14.23,5.498L9.722,-4.202L3.47,-4.527L-1.04,1.945L0,9.058Z" style="fill:rgb(145,98,5);fill-rule:nonzero;"/>
        </g>
        <g transform="matrix(0.697545,0.716541,0.716541,-0.697545,6065.2,7882.77)">
            <path d="M0.891,-1.418L4.471,-1.418L3.023,2.439L-0.573,1.75L0.891,-1.418Z" style="fill:rgb(234,160,61);fill-rule:nonzero;"/>
        </g>
        <g transform="matrix(0.698537,0.715574,0.715574,-0.698537,6060.68,7877.27)">
            <path d="M0.891,-1.415L4.471,-1.415L3.027,2.439L-0.568,1.759L0.891,-1.415Z" style="fill:rgb(234,160,61);fill-rule:nonzero;"/>
        </g>
        <g transform="matrix(0.697824,0.716269,0.716269,-0.697824,6066.24,7876.46)">
            <path d="M0.892,-1.416L4.471,-1.416L3.024,2.441L-0.573,1.754L0.892,-1.416Z" style="fill:rgb(234,160,61);fill-rule:nonzero;"/>
        </g>
        <g transform="matrix(1,0,0,1,6111.32,7922.08)">
            <path d="M0,-96.436L9.363,-71.157L4.682,-44.006L3.746,-30.898L-2.809,-37.451L-7.49,-67.412L-7.49,-5.56L-14.041,0L-19.659,-7.491L-21.532,-58.984L-25.277,6.552L-32.768,11.234L-39.322,1.871L-33.701,-60.857L-44.94,-14.045L-51.491,-17.79L-49.618,-60.857L-58.045,-33.707L-66.473,-35.58L-63.663,-64.602L-35.577,-103.924L-15.914,-107.67L0,-96.436Z" style="fill:rgb(255,211,141);fill-rule:nonzero;"/>
        </g>
        <g transform="matrix(1,0,0,1,6089.79,7931.44)">
            <path d="M0,-68.345L-3.745,-2.809L-11.235,1.873L-17.79,-7.491L-12.169,-70.218L-14.745,-8.176L-10.279,-2.593L-6.558,-5.572L0,-68.345Z" style="fill:rgb(96,56,19);fill-rule:nonzero;"/>
        </g>
        <g transform="matrix(1,0,0,1,6103.83,7922.08)">
            <path d="M0,-67.411L0,-5.559L-6.551,0L-12.169,-7.49L-14.042,-58.983L-9.433,-8.492L-5.714,-4.769L-2.364,-8.118L0,-67.411Z" style="fill:rgb(96,56,19);fill-rule:nonzero;"/>
        </g>
        <g transform="matrix(1,0,0,1,6077.62,7908.03)">
            <path d="M0,-46.812L-11.239,0L-17.79,-3.746L-15.917,-46.812L-14.858,-8.586L-13.182,-6.912L0,-46.812Z" style="fill:rgb(96,56,19);fill-rule:nonzero;"/>
        </g>
        <g transform="matrix(1,0,0,1,6047.66,7888.37)">
            <path d="M0,-30.896L-2.81,-1.874L5.618,0L14.045,-27.151L3.569,-5.673L-0.153,-7.535L0,-30.896Z" style="fill:rgb(96,56,19);fill-rule:nonzero;"/>
        </g>
        <g transform="matrix(1,0,0,1,6103.83,7866.7)">
            <path d="M0,-12.032L4.682,17.929L11.236,24.482L16.854,-15.777L7.49,-41.056L18.85,-16.006L13.268,26.049L8.802,29.024L2.474,21.21L0,-12.032Z" style="fill:rgb(96,56,19);fill-rule:nonzero;"/>
        </g>
        <g transform="matrix(1,0,0,1,6104.33,7840.84)">
            <path d="M0,-20.138L-8.925,-26.437L-28.588,-22.691L-49.293,6.299L-27.797,-18.435L-10.678,-23.274L0,-20.138Z" style="fill:rgb(96,56,19);fill-rule:nonzero;"/>
        </g>
        <g transform="matrix(1,0,0,1,6282.47,7855.6)">
            <path d="M0,32.434C7.641,46.917 21.114,34.069 23.309,31.834C25.504,34.062 39.037,46.847 46.617,32.33C55.592,15.121 23.408,-14.474 23.209,-14.308C23.014,-14.483 -9.058,15.269 0,32.434" style="fill:rgb(191,33,33);fill-rule:nonzero;"/>
        </g>
        <g transform="matrix(1,0,0,1,6282.47,7855.6)">
            <path d="M0,32.434C7.641,46.917 21.114,34.069 23.309,31.834L23.209,-14.308C23.014,-14.483 -9.058,15.269 0,32.434" style="fill:rgb(135,26,26);fill-rule:nonzero;"/>
        </g>
        <g transform="matrix(1,0,0,1,6269.87,7811.06)">
            <path d="M0,-32.435C-7.64,-46.917 -21.117,-34.07 -23.309,-31.835C-25.503,-34.063 -39.037,-46.848 -46.617,-32.331C-55.592,-15.122 -23.408,14.473 -23.209,14.308C-23.013,14.482 9.058,-15.27 0,-32.435" style="fill:rgb(191,33,33);fill-rule:nonzero;"/>
        </g>
        <g transform="matrix(1,0,0,1,6269.87,7811.06)">
            <path d="M0,-32.435C-7.64,-46.917 -21.117,-34.07 -23.309,-31.835L-23.209,14.308C-23.013,14.482 9.058,-15.27 0,-32.435" style="fill:rgb(135,26,26);fill-rule:nonzero;"/>
        </g>
    </g>
</svg>
