<?xml version="1.0" encoding="UTF-8" standalone="no"?>
<!DOCTYPE svg PUBLIC "-//W3C//DTD SVG 1.1//EN" "http://www.w3.org/Graphics/SVG/1.1/DTD/svg11.dtd">
<svg width="100%" height="100%" viewBox="0 0 1040 1430" version="1.1" xmlns="http://www.w3.org/2000/svg" xmlns:xlink="http://www.w3.org/1999/xlink" xml:space="preserve" xmlns:serif="http://www.serif.com/" style="fill-rule:evenodd;clip-rule:evenodd;stroke-linejoin:round;stroke-miterlimit:1.41421;">
    <g transform="matrix(1,0,0,1,-10765.4,-8133.89)">
        <g transform="matrix(4.16667,0,0,4.16667,2443.47,151.804)">
            <path d="M2246.7,2239.21C2246.7,2249.93 2237.92,2258.7 2227.21,2258.7L2016.73,2258.7C2006.01,2258.7 1997.25,2249.93 1997.25,2239.21L1997.25,1935.19C1997.25,1924.47 2006.01,1915.7 2016.73,1915.7L2227.21,1915.7C2237.92,1915.7 2246.7,1924.47 2246.7,1935.19L2246.7,2239.21Z" style="fill:white;fill-rule:nonzero;"/>
        </g>
        <g transform="matrix(4.16667,0,0,4.16667,2443.47,151.804)">
            <path d="M2014.28,1969.62L2014.28,1965.65L2016.2,1965.65C2016.2,1954.02 2017.9,1945.28 2021.29,1939.42L2015.31,1939.42L2015.31,1944.28L2011.34,1944.28L2011.34,1935.22L2025.35,1935.22L2025.35,1938.3C2023.95,1940.54 2022.9,1943.28 2022.2,1946.53C2021.5,1949.78 2021.07,1952.9 2020.89,1955.88C2020.72,1958.86 2020.62,1962.12 2020.61,1965.65L2022.66,1965.65L2022.66,1969.62L2014.28,1969.62Z" style="fill:rgb(54,54,57);fill-rule:nonzero;"/>
        </g>
        <g transform="matrix(4.16667,0,0,4.16667,2443.47,151.804)">
            <path d="M2026.66,1981.88C2024.97,1980.9 2022.93,1981.12 2021.49,1982.24C2021.42,1982.07 2021.31,1981.9 2021.2,1981.75C2022.9,1981.07 2024.1,1979.4 2024.1,1977.46C2024.1,1974.9 2022.03,1972.83 2019.48,1972.83C2016.92,1972.83 2014.85,1974.9 2014.85,1977.46C2014.85,1979.4 2016.05,1981.07 2017.75,1981.75C2017.64,1981.9 2017.54,1982.06 2017.46,1982.24C2016.02,1981.12 2013.98,1980.91 2012.29,1981.88C2010.08,1983.16 2009.33,1985.99 2010.6,1988.2C2011.88,1990.41 2014.71,1991.17 2016.92,1989.89C2017.96,1989.29 2018.68,1988.35 2019.02,1987.28C2018.97,1987.78 2018.93,1988.33 2018.89,1988.92C2018.63,1992.8 2015.68,1994.4 2015.68,1994.4L2023.27,1994.4C2023.27,1994.4 2020.33,1992.8 2020.06,1988.92C2020.02,1988.32 2019.98,1987.78 2019.93,1987.28C2020.27,1988.34 2020.99,1989.29 2022.03,1989.89C2024.24,1991.17 2027.07,1990.41 2028.35,1988.2C2029.63,1985.99 2028.87,1983.16 2026.66,1981.88Z" style="fill:rgb(54,54,57);fill-rule:nonzero;"/>
        </g>
        <g transform="matrix(4.16667,0,0,4.16667,2443.47,151.804)">
            <path d="M2229.66,2204.78L2229.66,2208.75L2227.74,2208.75C2227.74,2220.38 2226.05,2229.12 2222.65,2234.98L2228.63,2234.98L2228.63,2230.12L2232.6,2230.12L2232.6,2239.18L2218.59,2239.18L2218.59,2236.1C2219.99,2233.86 2221.04,2231.12 2221.74,2227.87C2222.44,2224.62 2222.88,2221.5 2223.05,2218.52C2223.23,2215.54 2223.32,2212.28 2223.34,2208.75L2221.28,2208.75L2221.28,2204.78L2229.66,2204.78Z" style="fill:rgb(54,54,57);fill-rule:nonzero;"/>
        </g>
        <g transform="matrix(4.16667,0,0,4.16667,2443.47,151.804)">
            <path d="M2217.29,2192.52C2218.97,2193.49 2221.01,2193.28 2222.45,2192.16C2222.53,2192.34 2222.63,2192.5 2222.75,2192.65C2221.05,2193.33 2219.84,2195 2219.84,2196.94C2219.84,2199.5 2221.91,2201.57 2224.47,2201.57C2227.02,2201.57 2229.1,2199.5 2229.1,2196.94C2229.1,2195 2227.89,2193.33 2226.19,2192.65C2226.31,2192.5 2226.41,2192.34 2226.48,2192.16C2227.93,2193.28 2229.97,2193.49 2231.65,2192.52C2233.86,2191.24 2234.62,2188.41 2233.34,2186.2C2232.06,2183.99 2229.23,2183.23 2227.02,2184.51C2225.98,2185.11 2225.26,2186.05 2224.93,2187.12C2224.97,2186.62 2225.01,2186.08 2225.05,2185.48C2225.32,2181.6 2228.26,2180 2228.26,2180L2220.67,2180C2220.67,2180 2223.62,2181.6 2223.88,2185.48C2223.93,2186.08 2223.97,2186.62 2224.01,2187.12C2223.67,2186.06 2222.96,2185.11 2221.92,2184.51C2219.7,2183.23 2216.87,2183.99 2215.59,2186.2C2214.32,2188.41 2215.08,2191.24 2217.29,2192.52Z" style="fill:rgb(54,54,57);fill-rule:nonzero;"/>
        </g>
        <g transform="matrix(4.16667,0,0,4.16667,2443.47,151.804)">
            <path d="M2050.16,2202.14C2054.63,2204.72 2060.03,2204.16 2063.85,2201.17C2064.05,2201.65 2064.32,2202.08 2064.63,2202.48C2060.12,2204.29 2056.93,2208.7 2056.93,2213.86C2056.93,2220.63 2062.42,2226.12 2069.19,2226.12C2075.97,2226.12 2081.46,2220.63 2081.46,2213.86C2081.46,2208.7 2078.26,2204.29 2073.76,2202.48C2074.07,2202.08 2074.34,2201.65 2074.53,2201.17C2078.36,2204.16 2083.76,2204.72 2088.22,2202.14C2094.09,2198.76 2096.1,2191.25 2092.71,2185.39C2089.32,2179.53 2081.82,2177.51 2075.96,2180.9C2073.2,2182.5 2071.3,2185.01 2070.41,2187.83C2070.52,2186.49 2070.63,2185.06 2070.74,2183.49C2071.45,2173.2 2079.25,2168.96 2079.25,2168.96L2059.14,2168.96C2059.14,2168.96 2066.93,2173.2 2067.65,2183.49C2067.75,2185.06 2067.87,2186.5 2067.98,2187.83C2067.09,2185.01 2065.19,2182.5 2062.43,2180.9C2056.56,2177.51 2049.06,2179.53 2045.67,2185.39C2042.29,2191.26 2044.3,2198.76 2050.16,2202.14Z" style="fill:rgb(54,54,57);fill-rule:nonzero;"/>
        </g>
        <g transform="matrix(4.16667,0,0,4.16667,2443.47,151.804)">
            <path d="M2088.22,1972.26C2083.76,1969.68 2078.36,1970.24 2074.53,1973.23C2074.34,1972.75 2074.07,1972.32 2073.76,1971.92C2078.27,1970.11 2081.46,1965.7 2081.46,1960.54C2081.46,1953.77 2075.97,1948.28 2069.19,1948.28C2062.42,1948.28 2056.93,1953.77 2056.93,1960.54C2056.93,1965.7 2060.12,1970.11 2064.63,1971.92C2064.32,1972.32 2064.05,1972.75 2063.85,1973.22C2060.03,1970.24 2054.63,1969.68 2050.16,1972.26C2044.3,1975.64 2042.29,1983.14 2045.68,1989.01C2049.06,1994.88 2056.56,1996.89 2062.43,1993.5C2065.19,1991.9 2067.09,1989.39 2067.98,1986.58C2067.87,1987.9 2067.75,1989.34 2067.65,1990.91C2066.93,2001.2 2059.14,2005.44 2059.14,2005.44L2079.25,2005.44C2079.25,2005.44 2071.45,2001.2 2070.74,1990.91C2070.63,1989.34 2070.52,1987.9 2070.41,1986.57C2071.3,1989.39 2073.2,1991.9 2075.96,1993.5C2081.82,1996.88 2089.33,1994.88 2092.71,1989.01C2096.1,1983.14 2094.09,1975.64 2088.22,1972.26Z" style="fill:rgb(54,54,57);fill-rule:nonzero;"/>
        </g>
        <g transform="matrix(4.16667,0,0,4.16667,2443.47,151.804)">
            <path d="M2193.78,1972.26C2189.32,1969.68 2183.92,1970.24 2180.09,1973.23C2179.89,1972.75 2179.62,1972.32 2179.31,1971.92C2183.83,1970.11 2187.01,1965.7 2187.01,1960.54C2187.01,1953.77 2181.53,1948.28 2174.75,1948.28C2167.98,1948.28 2162.49,1953.77 2162.49,1960.54C2162.49,1965.7 2165.68,1970.11 2170.19,1971.92C2169.88,1972.32 2169.61,1972.75 2169.41,1973.22C2165.59,1970.24 2160.18,1969.68 2155.72,1972.26C2149.86,1975.64 2147.85,1983.14 2151.23,1989.01C2154.62,1994.88 2162.12,1996.89 2167.99,1993.5C2170.75,1991.9 2172.65,1989.39 2173.53,1986.58C2173.43,1987.9 2173.31,1989.34 2173.2,1990.91C2172.49,2001.2 2164.7,2005.44 2164.7,2005.44L2184.81,2005.44C2184.81,2005.44 2177.01,2001.2 2176.3,1990.91C2176.19,1989.34 2176.08,1987.9 2175.97,1986.57C2176.86,1989.39 2178.75,1991.9 2181.52,1993.5C2187.38,1996.88 2194.89,1994.88 2198.27,1989.01C2201.66,1983.14 2199.65,1975.64 2193.78,1972.26Z" style="fill:rgb(54,54,57);fill-rule:nonzero;"/>
        </g>
        <g transform="matrix(4.16667,0,0,4.16667,2443.47,151.804)">
            <path d="M2155.72,2202.14C2160.18,2204.72 2165.59,2204.16 2169.41,2201.17C2169.61,2201.65 2169.88,2202.08 2170.19,2202.48C2165.68,2204.29 2162.49,2208.7 2162.49,2213.86C2162.49,2220.63 2167.98,2226.12 2174.75,2226.12C2181.53,2226.12 2187.01,2220.63 2187.01,2213.86C2187.01,2208.7 2183.82,2204.29 2179.31,2202.48C2179.62,2202.08 2179.89,2201.65 2180.09,2201.17C2183.91,2204.16 2189.32,2204.72 2193.78,2202.14C2199.65,2198.76 2201.66,2191.25 2198.27,2185.39C2194.88,2179.53 2187.38,2177.51 2181.52,2180.9C2178.75,2182.5 2176.86,2185.01 2175.97,2187.83C2176.08,2186.49 2176.19,2185.06 2176.3,2183.49C2177.01,2173.2 2184.81,2168.96 2184.81,2168.96L2164.7,2168.96C2164.7,2168.96 2172.49,2173.2 2173.2,2183.49C2173.31,2185.06 2173.43,2186.5 2173.53,2187.83C2172.65,2185.01 2170.75,2182.5 2167.99,2180.9C2162.12,2177.51 2154.62,2179.53 2151.23,2185.39C2147.85,2191.26 2149.85,2198.76 2155.72,2202.14Z" style="fill:rgb(54,54,57);fill-rule:nonzero;"/>
        </g>
        <g transform="matrix(4.16667,0,0,4.16667,2443.47,151.804)">
            <path d="M2088.22,2082.6C2083.76,2080.02 2078.36,2080.58 2074.53,2083.57C2074.34,2083.09 2074.07,2082.66 2073.76,2082.26C2078.27,2080.45 2081.46,2076.04 2081.46,2070.88C2081.46,2064.11 2075.97,2058.62 2069.19,2058.62C2062.42,2058.62 2056.93,2064.11 2056.93,2070.88C2056.93,2076.04 2060.12,2080.45 2064.63,2082.26C2064.32,2082.66 2064.05,2083.09 2063.85,2083.57C2060.03,2080.58 2054.63,2080.03 2050.16,2082.6C2044.3,2085.99 2042.29,2093.49 2045.68,2099.35C2049.06,2105.22 2056.56,2107.23 2062.43,2103.84C2065.19,2102.25 2067.09,2099.74 2067.98,2096.92C2067.87,2098.25 2067.75,2099.68 2067.65,2101.25C2066.93,2111.54 2059.14,2115.78 2059.14,2115.78L2079.25,2115.78C2079.25,2115.78 2071.45,2111.54 2070.74,2101.25C2070.63,2099.68 2070.52,2098.24 2070.41,2096.91C2071.3,2099.73 2073.2,2102.24 2075.96,2103.84C2081.82,2107.23 2089.33,2105.22 2092.71,2099.35C2096.1,2093.49 2094.09,2085.99 2088.22,2082.6Z" style="fill:rgb(54,54,57);fill-rule:nonzero;"/>
        </g>
        <g transform="matrix(4.16667,0,0,4.16667,2443.47,151.804)">
            <path d="M2193.78,2082.6C2189.32,2080.02 2183.92,2080.58 2180.09,2083.57C2179.89,2083.09 2179.62,2082.66 2179.31,2082.26C2183.83,2080.45 2187.01,2076.04 2187.01,2070.88C2187.01,2064.11 2181.53,2058.62 2174.75,2058.62C2167.98,2058.62 2162.49,2064.11 2162.49,2070.88C2162.49,2076.04 2165.68,2080.45 2170.19,2082.26C2169.88,2082.66 2169.61,2083.09 2169.41,2083.57C2165.59,2080.58 2160.18,2080.03 2155.72,2082.6C2149.86,2085.99 2147.85,2093.49 2151.23,2099.35C2154.62,2105.22 2162.12,2107.23 2167.99,2103.84C2170.75,2102.25 2172.65,2099.74 2173.53,2096.92C2173.43,2098.25 2173.31,2099.68 2173.2,2101.25C2172.49,2111.54 2164.7,2115.78 2164.7,2115.78L2184.81,2115.78C2184.81,2115.78 2177.01,2111.54 2176.3,2101.25C2176.19,2099.68 2176.08,2098.24 2175.97,2096.91C2176.86,2099.73 2178.75,2102.24 2181.52,2103.84C2187.38,2107.23 2194.89,2105.22 2198.27,2099.35C2201.66,2093.49 2199.65,2085.99 2193.78,2082.6Z" style="fill:rgb(54,54,57);fill-rule:nonzero;"/>
        </g>
        <g transform="matrix(4.16667,0,0,4.16667,2443.47,151.804)">
            <path d="M2140.47,2027.43C2136.01,2024.85 2130.61,2025.41 2126.78,2028.4C2126.59,2027.92 2126.32,2027.49 2126.01,2027.09C2130.52,2025.28 2133.71,2020.87 2133.71,2015.71C2133.71,2008.94 2128.22,2003.45 2121.44,2003.45C2114.67,2003.45 2109.18,2008.94 2109.18,2015.71C2109.18,2020.87 2112.37,2025.28 2116.88,2027.09C2116.57,2027.49 2116.3,2027.92 2116.1,2028.4C2112.28,2025.41 2106.88,2024.85 2102.41,2027.43C2096.55,2030.82 2094.54,2038.32 2097.93,2044.18C2101.31,2050.05 2108.81,2052.06 2114.68,2048.67C2117.44,2047.08 2119.34,2044.57 2120.23,2041.75C2120.12,2043.08 2120.01,2044.51 2119.9,2046.08C2119.18,2056.37 2111.39,2060.61 2111.39,2060.61L2131.5,2060.61C2131.5,2060.61 2123.7,2056.37 2122.99,2046.08C2122.88,2044.51 2122.77,2043.07 2122.66,2041.74C2123.55,2044.56 2125.45,2047.08 2128.21,2048.67C2134.07,2052.06 2141.58,2050.05 2144.96,2044.18C2148.35,2038.32 2146.34,2030.82 2140.47,2027.43Z" style="fill:rgb(54,54,57);fill-rule:nonzero;"/>
        </g>
    </g>
</svg>
