<?xml version="1.0" encoding="UTF-8" standalone="no"?>
<!DOCTYPE svg PUBLIC "-//W3C//DTD SVG 1.1//EN" "http://www.w3.org/Graphics/SVG/1.1/DTD/svg11.dtd">
<svg width="100%" height="100%" viewBox="0 0 1040 1430" version="1.1" xmlns="http://www.w3.org/2000/svg" xmlns:xlink="http://www.w3.org/1999/xlink" xml:space="preserve" xmlns:serif="http://www.serif.com/" style="fill-rule:evenodd;clip-rule:evenodd;stroke-linejoin:round;stroke-miterlimit:1.41421;">
    <g transform="matrix(1,0,0,1,-9518.06,-6418.93)">
        <g transform="matrix(4.16667,0,0,4.16667,2443.47,151.804)">
            <path d="M1947.35,1827.62C1947.35,1838.34 1938.58,1847.11 1927.87,1847.11L1717.39,1847.11C1706.67,1847.11 1697.9,1838.34 1697.9,1827.62L1697.9,1523.6C1697.9,1512.88 1706.67,1504.11 1717.39,1504.11L1927.87,1504.11C1938.58,1504.11 1947.35,1512.88 1947.35,1523.6L1947.35,1827.62Z" style="fill:white;fill-rule:nonzero;"/>
        </g>
        <g transform="matrix(4.16667,0,0,4.16667,2443.47,151.804)">
            <path d="M1716.77,1533.15L1712.88,1533.15C1712.88,1529.54 1713.35,1526.96 1714.27,1525.4C1715.19,1523.84 1716.75,1523.06 1718.96,1523.06C1721.09,1523.06 1722.74,1523.87 1723.92,1525.48C1725.1,1527.09 1725.69,1529.36 1725.69,1532.28C1725.69,1536.41 1724.35,1538.84 1721.67,1539.57L1721.67,1539.66C1724.7,1540.49 1726.22,1543.27 1726.22,1547.99C1726.22,1551.37 1725.62,1553.98 1724.43,1555.83C1723.25,1557.68 1721.55,1558.6 1719.35,1558.6C1717.09,1558.6 1715.43,1557.7 1714.36,1555.9C1713.29,1554.09 1712.75,1551.19 1712.75,1547.19L1716.9,1547.19C1716.9,1550.19 1717.07,1552.21 1717.39,1553.27C1717.72,1554.33 1718.39,1554.86 1719.39,1554.86C1720.15,1554.86 1720.71,1554.51 1721.06,1553.81C1721.41,1553.11 1721.58,1551.1 1721.58,1547.78C1721.58,1545.36 1721.29,1543.71 1720.71,1542.82C1720.13,1541.93 1719.13,1541.48 1717.7,1541.48L1717.7,1537.74C1718.77,1537.74 1719.55,1537.62 1720.04,1537.4C1720.54,1537.17 1720.88,1536.67 1721.09,1535.91C1721.3,1535.15 1721.4,1533.93 1721.4,1532.24C1721.4,1530.18 1721.23,1528.76 1720.88,1527.98C1720.54,1527.2 1719.88,1526.8 1718.91,1526.8C1718.26,1526.8 1717.74,1527.12 1717.35,1527.75C1716.96,1528.38 1716.77,1530.18 1716.77,1533.15Z" style="fill:rgb(54,54,57);fill-rule:nonzero;"/>
        </g>
        <g transform="matrix(4.16667,0,0,4.16667,2443.47,151.804)">
            <path d="M1727.31,1570.29C1725.63,1569.32 1723.59,1569.53 1722.15,1570.65C1722.08,1570.48 1721.97,1570.31 1721.85,1570.16C1723.56,1569.48 1724.76,1567.82 1724.76,1565.87C1724.76,1563.31 1722.69,1561.24 1720.13,1561.24C1717.58,1561.24 1715.51,1563.31 1715.51,1565.87C1715.51,1567.82 1716.71,1569.48 1718.41,1570.16C1718.29,1570.31 1718.19,1570.48 1718.12,1570.65C1716.67,1569.53 1714.63,1569.32 1712.95,1570.29C1710.74,1571.57 1709.98,1574.4 1711.26,1576.61C1712.54,1578.83 1715.37,1579.58 1717.58,1578.31C1718.62,1577.7 1719.34,1576.76 1719.67,1575.69C1719.63,1576.19 1719.59,1576.74 1719.55,1577.33C1719.28,1581.21 1716.34,1582.81 1716.34,1582.81L1723.93,1582.81C1723.93,1582.81 1720.98,1581.21 1720.72,1577.33C1720.67,1576.73 1720.63,1576.19 1720.59,1575.69C1720.92,1576.76 1721.64,1577.7 1722.68,1578.31C1724.9,1579.58 1727.73,1578.83 1729.01,1576.61C1730.29,1574.4 1729.53,1571.57 1727.31,1570.29Z" style="fill:rgb(54,54,57);fill-rule:nonzero;"/>
        </g>
        <g transform="matrix(4.16667,0,0,4.16667,2443.47,151.804)">
            <path d="M1928.49,1818.07L1932.38,1818.07C1932.38,1821.68 1931.91,1824.26 1930.99,1825.82C1930.07,1827.38 1928.51,1828.16 1926.3,1828.16C1924.17,1828.16 1922.52,1827.35 1921.34,1825.74C1920.16,1824.13 1919.57,1821.86 1919.57,1818.94C1919.57,1814.81 1920.91,1812.39 1923.59,1811.66L1923.59,1811.57C1920.56,1810.73 1919.04,1807.95 1919.04,1803.23C1919.04,1799.85 1919.64,1797.24 1920.82,1795.39C1922.01,1793.54 1923.71,1792.62 1925.91,1792.62C1928.17,1792.62 1929.83,1793.52 1930.9,1795.32C1931.97,1797.13 1932.51,1800.03 1932.51,1804.03L1928.36,1804.03C1928.36,1801.03 1928.19,1799.01 1927.87,1797.95C1927.54,1796.89 1926.87,1796.36 1925.87,1796.36C1925.11,1796.36 1924.55,1796.71 1924.2,1797.41C1923.85,1798.11 1923.68,1800.12 1923.68,1803.44C1923.68,1805.86 1923.97,1807.51 1924.54,1808.4C1925.12,1809.29 1926.13,1809.74 1927.56,1809.74L1927.56,1813.48C1926.49,1813.48 1925.71,1813.6 1925.22,1813.83C1924.72,1814.05 1924.38,1814.55 1924.17,1815.31C1923.96,1816.07 1923.86,1817.29 1923.86,1818.98C1923.86,1821.04 1924.03,1822.46 1924.38,1823.24C1924.71,1824.02 1925.38,1824.42 1926.35,1824.42C1927,1824.42 1927.52,1824.1 1927.91,1823.47C1928.3,1822.84 1928.49,1821.04 1928.49,1818.07Z" style="fill:rgb(54,54,57);fill-rule:nonzero;"/>
        </g>
        <g transform="matrix(4.16667,0,0,4.16667,2443.47,151.804)">
            <path d="M1917.94,1780.93C1919.63,1781.9 1921.67,1781.69 1923.11,1780.57C1923.18,1780.75 1923.29,1780.91 1923.4,1781.06C1921.7,1781.74 1920.5,1783.41 1920.5,1785.35C1920.5,1787.91 1922.57,1789.98 1925.13,1789.98C1927.68,1789.98 1929.75,1787.91 1929.75,1785.35C1929.75,1783.41 1928.55,1781.74 1926.85,1781.06C1926.96,1780.91 1927.07,1780.75 1927.14,1780.57C1928.58,1781.69 1930.62,1781.9 1932.3,1780.93C1934.52,1779.65 1935.28,1776.82 1934,1774.61C1932.72,1772.4 1929.89,1771.64 1927.68,1772.91C1926.63,1773.52 1925.92,1774.46 1925.59,1775.53C1925.63,1775.03 1925.67,1774.49 1925.71,1773.89C1925.98,1770.01 1928.92,1768.41 1928.92,1768.41L1921.33,1768.41C1921.33,1768.41 1924.27,1770.01 1924.54,1773.89C1924.58,1774.49 1924.62,1775.03 1924.67,1775.53C1924.33,1774.47 1923.61,1773.52 1922.57,1772.91C1920.36,1771.64 1917.53,1772.4 1916.25,1774.61C1914.97,1776.82 1915.73,1779.65 1917.94,1780.93Z" style="fill:rgb(54,54,57);fill-rule:nonzero;"/>
        </g>
        <g transform="matrix(4.16667,0,0,4.16667,2443.47,151.804)">
            <path d="M1841.66,1560.67C1837.2,1558.09 1831.79,1558.65 1827.97,1561.64C1827.77,1561.16 1827.5,1560.73 1827.19,1560.33C1831.7,1558.52 1834.89,1554.11 1834.89,1548.95C1834.89,1542.18 1829.4,1536.69 1822.63,1536.69C1815.86,1536.69 1810.37,1542.18 1810.37,1548.95C1810.37,1554.11 1813.56,1558.52 1818.07,1560.33C1817.76,1560.73 1817.48,1561.16 1817.29,1561.63C1813.46,1558.65 1808.06,1558.09 1803.6,1560.67C1797.74,1564.06 1795.73,1571.56 1799.11,1577.42C1802.5,1583.29 1810,1585.3 1815.87,1581.91C1818.63,1580.32 1820.52,1577.81 1821.41,1574.99C1821.3,1576.32 1821.19,1577.75 1821.08,1579.32C1820.37,1589.61 1812.58,1593.85 1812.58,1593.85L1832.68,1593.85C1832.68,1593.85 1824.89,1589.61 1824.17,1579.32C1824.07,1577.75 1823.96,1576.32 1823.85,1574.98C1824.73,1577.8 1826.63,1580.31 1829.39,1581.91C1835.26,1585.3 1842.76,1583.29 1846.15,1577.42C1849.53,1571.56 1847.53,1564.06 1841.66,1560.67Z" style="fill:rgb(54,54,57);fill-rule:nonzero;"/>
        </g>
        <g transform="matrix(4.16667,0,0,4.16667,2443.47,151.804)">
            <path d="M1803.6,1790.55C1808.06,1793.13 1813.46,1792.58 1817.29,1789.58C1817.48,1790.06 1817.76,1790.49 1818.07,1790.89C1813.56,1792.7 1810.37,1797.11 1810.37,1802.27C1810.37,1809.04 1815.86,1814.54 1822.63,1814.54C1829.4,1814.54 1834.89,1809.04 1834.89,1802.27C1834.89,1797.11 1831.7,1792.7 1827.19,1790.89C1827.5,1790.49 1827.77,1790.06 1827.97,1789.58C1831.79,1792.58 1837.19,1793.13 1841.66,1790.55C1847.53,1787.17 1849.53,1779.66 1846.15,1773.8C1842.76,1767.93 1835.26,1765.92 1829.39,1769.31C1826.63,1770.91 1824.73,1773.41 1823.85,1776.24C1823.96,1774.9 1824.07,1773.47 1824.17,1771.9C1824.89,1761.61 1832.68,1757.37 1832.68,1757.37L1812.58,1757.37C1812.58,1757.37 1820.37,1761.61 1821.08,1771.9C1821.19,1773.47 1821.3,1774.91 1821.41,1776.24C1820.53,1773.42 1818.63,1770.91 1815.87,1769.31C1810,1765.92 1802.5,1767.93 1799.11,1773.8C1795.73,1779.66 1797.73,1787.16 1803.6,1790.55Z" style="fill:rgb(54,54,57);fill-rule:nonzero;"/>
        </g>
        <g transform="matrix(4.16667,0,0,4.16667,2443.47,151.804)">
            <path d="M1841.66,1671.01C1837.2,1668.43 1831.79,1668.99 1827.97,1671.98C1827.77,1671.5 1827.5,1671.07 1827.19,1670.67C1831.7,1668.86 1834.89,1664.45 1834.89,1659.29C1834.89,1652.52 1829.4,1647.03 1822.63,1647.03C1815.86,1647.03 1810.37,1652.52 1810.37,1659.29C1810.37,1664.45 1813.56,1668.86 1818.07,1670.67C1817.76,1671.07 1817.48,1671.5 1817.29,1671.98C1813.46,1668.99 1808.06,1668.44 1803.6,1671.01C1797.74,1674.4 1795.73,1681.9 1799.11,1687.77C1802.5,1693.63 1810,1695.64 1815.87,1692.25C1818.63,1690.66 1820.52,1688.15 1821.41,1685.33C1821.3,1686.66 1821.19,1688.09 1821.08,1689.66C1820.37,1699.95 1812.58,1704.19 1812.58,1704.19L1832.68,1704.19C1832.68,1704.19 1824.89,1699.95 1824.17,1689.66C1824.07,1688.09 1823.96,1686.66 1823.85,1685.33C1824.73,1688.14 1826.63,1690.66 1829.39,1692.25C1835.26,1695.64 1842.76,1693.63 1846.15,1687.76C1849.53,1681.9 1847.53,1674.4 1841.66,1671.01Z" style="fill:rgb(54,54,57);fill-rule:nonzero;"/>
        </g>
    </g>
</svg>
