<?xml version="1.0" encoding="UTF-8" standalone="no"?>
<!DOCTYPE svg PUBLIC "-//W3C//DTD SVG 1.1//EN" "http://www.w3.org/Graphics/SVG/1.1/DTD/svg11.dtd">
<svg width="100%" height="100%" viewBox="0 0 250 343" version="1.1" xmlns="http://www.w3.org/2000/svg" xmlns:xlink="http://www.w3.org/1999/xlink" xml:space="preserve" xmlns:serif="http://www.serif.com/" style="fill-rule:evenodd;clip-rule:evenodd;stroke-linejoin:round;stroke-miterlimit:1.41421;">
    <g transform="matrix(1,0,0,1,-8297.75,-7254.61)">
        <g transform="matrix(1,0,0,1,8547.2,7274.1)">
            <path d="M0,304.013C0,314.732 -8.771,323.502 -19.49,323.502L-229.961,323.502C-240.682,323.502 -249.449,314.732 -249.449,304.013L-249.449,-0.002C-249.449,-10.719 -240.682,-19.489 -229.961,-19.489L-19.49,-19.489C-8.771,-19.489 0,-10.719 0,-0.002L0,304.013Z" style="fill:white;fill-rule:nonzero;"/>
        </g>
        <g transform="matrix(1,0,0,1,8320.39,7287.07)">
            <path d="M0,7.944L0,-5.182L-0.115,-5.175L-4.979,7.944L0,7.944ZM-2.078,21.458L-2.078,17.486L0,17.486L0,11.46L-6.939,11.46C-7.184,9.999 -7.693,8.827 -8.471,7.944L0.092,-13.514L4.018,-13.514L4.018,7.944L6.209,7.944L6.209,11.46L4.018,11.46L4.018,17.486L5.682,17.486L5.682,21.458L-2.078,21.458Z" style="fill:rgb(191,33,33);fill-rule:nonzero;"/>
        </g>
        <g transform="matrix(1,0,0,1,8329.04,7327.28)">
            <path d="M0,-13.071C-3.078,-18.905 -8.508,-13.727 -9.391,-12.826C-10.275,-13.724 -15.727,-18.873 -18.783,-13.024C-22.402,-6.09 -9.438,5.83 -9.355,5.764C-9.275,5.834 3.646,-6.157 0,-13.071" style="fill:rgb(191,33,33);fill-rule:nonzero;"/>
        </g>
        <g transform="matrix(1,0,0,1,8524.55,7565.14)">
            <path d="M0,-7.944L0,5.182L0.115,5.175L4.979,-7.944L0,-7.944ZM2.078,-21.458L2.078,-17.485L0,-17.485L0,-11.459L6.939,-11.459C7.184,-9.998 7.693,-8.827 8.469,-7.944L-0.092,13.514L-4.018,13.514L-4.018,-7.944L-6.209,-7.944L-6.209,-11.459L-4.018,-11.459L-4.018,-17.485L-5.684,-17.485L-5.684,-21.458L2.078,-21.458Z" style="fill:rgb(191,33,33);fill-rule:nonzero;"/>
        </g>
        <g transform="matrix(1,0,0,1,8515.89,7524.94)">
            <path d="M0,13.069C3.078,18.904 8.51,13.726 9.395,12.825C10.277,13.723 15.729,18.872 18.783,13.021C22.402,6.087 9.438,-5.833 9.355,-5.766C9.277,-5.835 -3.646,6.155 0,13.069" style="fill:rgb(191,33,33);fill-rule:nonzero;"/>
        </g>
        <g transform="matrix(1,0,0,1,8393.71,7328.95)">
            <path d="M0,-34.628C-8.158,-50.093 -22.547,-36.375 -24.889,-33.989C-27.229,-36.368 -41.68,-50.018 -49.773,-34.519C-59.357,-16.146 -24.992,15.456 -24.779,15.278C-24.57,15.465 9.672,-16.302 0,-34.628" style="fill:rgb(191,33,33);fill-rule:nonzero;"/>
        </g>
        <g transform="matrix(1,0,0,1,8343.97,7523.27)">
            <path d="M0,34.63C8.158,50.094 22.547,36.376 24.889,33.989C27.229,36.37 41.68,50.02 49.773,34.52C59.357,16.146 24.992,-15.454 24.781,-15.278C24.57,-15.464 -9.672,16.304 0,34.63" style="fill:rgb(191,33,33);fill-rule:nonzero;"/>
        </g>
        <g transform="matrix(1,0,0,1,8500.96,7328.95)">
            <path d="M0,-34.628C-8.158,-50.093 -22.547,-36.375 -24.889,-33.989C-27.229,-36.368 -41.68,-50.018 -49.773,-34.519C-59.357,-16.146 -24.992,15.456 -24.779,15.278C-24.57,15.465 9.672,-16.302 0,-34.628" style="fill:rgb(191,33,33);fill-rule:nonzero;"/>
        </g>
        <g transform="matrix(1,0,0,1,8451.22,7523.27)">
            <path d="M0,34.63C8.158,50.094 22.547,36.376 24.889,33.989C27.229,36.37 41.68,50.02 49.773,34.52C59.357,16.146 24.992,-15.454 24.781,-15.278C24.57,-15.464 -9.672,16.304 0,34.63" style="fill:rgb(191,33,33);fill-rule:nonzero;"/>
        </g>
    </g>
</svg>
