<?xml version="1.0" encoding="UTF-8" standalone="no"?>
<!DOCTYPE svg PUBLIC "-//W3C//DTD SVG 1.1//EN" "http://www.w3.org/Graphics/SVG/1.1/DTD/svg11.dtd">
<svg width="100%" height="100%" viewBox="0 0 32 45" version="1.1" xmlns="http://www.w3.org/2000/svg" xmlns:xlink="http://www.w3.org/1999/xlink" xml:space="preserve" xmlns:serif="http://www.serif.com/" style="fill-rule:evenodd;clip-rule:evenodd;stroke-linejoin:round;stroke-miterlimit:1.41421;">
    <g transform="matrix(1,0,0,1,-323.335,-145.231)">
        <g transform="matrix(1,0,0,1,358,358)">
            <g transform="matrix(1,0,0,1,-63,-56)">
                <g transform="matrix(1,0,0,1,-171.574,-277.1)">
                    <path d="M220.398,122.645C218.661,126.407 216.361,131.325 213.975,136.402C213.288,130.89 213.679,122.314 213.679,122.314C209.161,125.068 203.322,127.822 203.322,127.822C204.643,136.353 207.013,145.792 207.916,149.251C204.507,156.463 201.891,161.971 201.891,161.971C206.188,162.193 210.262,162.633 210.262,162.633C217.204,146.218 229.321,124.187 229.321,124.187C224.582,123.856 220.398,122.645 220.398,122.645Z" style="fill-rule:nonzero;"/>
                </g>
                <g transform="matrix(1,0,0,1,-171.574,-277.1)">
                    <path d="M215.769,137.244C215.769,137.244 220.392,127.348 221.5,124.972C222.636,125.239 224.28,125.576 226.168,125.839C222.874,131.961 214.536,147.719 209.014,160.514C208.008,160.418 206.575,160.292 204.937,160.175C206.51,156.853 209.709,150.099 209.709,150.099C209.834,149.832 209.897,149.543 209.897,149.251C209.897,149.085 209.878,148.917 209.834,148.752C208.951,145.365 206.84,136.941 205.516,128.966C206.911,128.28 209.215,127.123 211.6,125.805C211.59,126.43 211.584,127.107 211.584,127.825C211.584,130.615 211.674,133.957 212.008,136.646C212.118,137.524 212.794,138.223 213.666,138.362C214.54,138.5 215.396,138.045 215.769,137.244ZM212.646,120.621C208.274,123.285 202.534,126.002 202.477,126.029C201.775,126.36 201.34,127.064 201.34,127.821C201.34,127.922 201.348,128.024 201.363,128.125C202.609,136.187 204.773,145.003 205.816,149.053C205.263,150.221 200.099,161.12 200.099,161.12C199.974,161.389 199.909,161.681 199.909,161.97C199.909,162.323 200.003,162.676 200.188,162.988C200.528,163.555 201.128,163.918 201.79,163.951C205.978,164.166 210.011,164.598 210.051,164.603C210.919,164.698 211.749,164.21 212.09,163.405C218.91,147.276 230.938,125.362 231.058,125.142C231.384,124.55 231.386,123.831 231.062,123.239C230.738,122.643 230.132,122.256 229.457,122.208C225.004,121.898 220.988,120.752 220.948,120.739C220.009,120.469 219.012,120.929 218.597,121.813C218.597,121.813 217.072,125.08 215.556,128.328C215.556,128.169 215.552,128 215.552,127.844C215.552,124.83 215.657,122.449 215.659,122.404C215.66,122.373 215.66,122.343 215.66,122.314C215.66,121.616 215.293,120.966 214.689,120.608C214.055,120.234 213.27,120.239 212.646,120.621Z" style="fill-rule:nonzero;"/>
                </g>
                <g transform="matrix(1,0,0,1,-171.574,-277.1)">
                    <path d="M219.518,121.764C217.779,125.526 215.48,130.443 213.093,135.52C212.405,130.008 212.797,121.433 212.797,121.433C208.279,124.187 202.44,126.941 202.44,126.941C203.761,135.473 206.133,144.911 207.035,148.371C203.626,155.583 201.011,161.091 201.011,161.091C205.307,161.31 209.382,161.751 209.382,161.751C216.322,145.339 228.439,123.306 228.439,123.306C223.703,122.975 219.518,121.764 219.518,121.764Z" style="fill:white;fill-rule:nonzero;"/>
                </g>
                <g transform="matrix(1,0,0,1,-171.574,-277.1)">
                    <path d="M228,124.107C224.38,123.772 221.211,122.995 220.198,122.725C219.899,123.368 213.286,137.533 213.286,137.533L213.097,136.014C212.999,135.23 212.906,133.952 212.828,132.473C212.788,131.764 212.758,131.039 212.734,130.317C212.681,128.814 212.646,127.251 212.646,125.865C212.646,124.587 212.677,123.472 212.742,122.683C208.97,124.918 204.543,127.075 203.37,127.637C204.686,136.002 206.971,145.131 207.901,148.699L207.942,148.855C207.942,148.855 202.638,160.054 202.13,161.128C205.338,161.309 208.31,161.595 209.401,161.706C215.562,147.147 225.776,128.195 228,124.107Z" style="fill:url(#_Linear1);"/>
                </g>
            </g>
        </g>
    </g>
    <defs>
        <linearGradient id="_Linear1" x1="0" y1="0" x2="1" y2="0" gradientUnits="userSpaceOnUse" gradientTransform="matrix(20.0503,20.0503,-20.0503,20.0503,201.728,129.28)"><stop offset="0" style="stop-color:rgb(255,153,0);stop-opacity:1"/><stop offset="1" style="stop-color:rgb(253,221,87);stop-opacity:1"/></linearGradient>
    </defs>
</svg>
